<?xml version="1.0" encoding="utf-8"?>
<!-- Generator: Adobe Illustrator 25.2.1, SVG Export Plug-In . SVG Version: 6.00 Build 0)  -->
<svg version="1.1" id="Layer_1" xmlns="http://www.w3.org/2000/svg" xmlns:xlink="http://www.w3.org/1999/xlink" x="0px" y="0px"
	 viewBox="0 0 932.8 571.5" style="enable-background:new 0 0 932.8 571.5;" xml:space="preserve">
<style type="text/css">
	.st0{fill:#FFFFFF;}
	.st1{fill:none;stroke:#25AF4B;stroke-miterlimit:10;}
	.st2{fill:none;stroke:#0C5C8D;stroke-linecap:round;stroke-miterlimit:10;}
	.st3{fill:none;stroke:#25AF4B;stroke-linecap:round;stroke-miterlimit:10;}
	.st4{fill:none;stroke:#000000;stroke-linecap:round;stroke-linejoin:round;}
	.st5{fill:none;stroke:#000000;stroke-miterlimit:10;}
	.st6{fill:none;stroke:#0C5C8D;stroke-miterlimit:10;}
	.st7{fill:none;stroke:#000000;stroke-linecap:round;stroke-miterlimit:10;}
	.st8{fill:#343434;}
	.st9{fill:none;stroke:#343434;stroke-linecap:round;stroke-miterlimit:10;}
	.st10{fill:#FFFFFF;stroke:#000000;stroke-linecap:round;stroke-miterlimit:10;}
	.st11{fill:none;stroke:#29AE4A;stroke-linecap:round;stroke-linejoin:round;}
	.st12{fill:none;stroke:#1D9CD3;stroke-linecap:round;stroke-miterlimit:10;}
	.st13{fill:none;stroke:#1D9CD3;stroke-linecap:round;stroke-linejoin:round;}
	.st14{fill:#FFFFFF;stroke:#000000;stroke-miterlimit:10;}
	.st15{fill:#FFFFFF;stroke:#221F1F;stroke-miterlimit:10;}
</style>
<rect x="60" y="66.7" class="st0" width="800" height="450"/>
<polyline class="st1" points="367.4,206.7 328.1,206.7 328.1,167.8 245.7,167.8 "/>
<polyline class="st2" points="720.9,131.6 632.2,131.6 632.2,181.4 "/>
<polyline class="st3" points="720.9,136.6 637,136.6 637,181.4 "/>
<polyline class="st2" points="720.9,410.8 632.2,410.8 632.2,326.1 "/>
<polyline class="st3" points="720.9,405.8 637,405.8 637,326.1 "/>
<polyline class="st2" points="740.5,428.2 740.5,448.7 786.7,448.7 "/>
<polyline class="st3" points="786.7,369.4 740.5,369.4 740.5,388.4 "/>
<line class="st3" x1="191" y1="328.1" x2="274.5" y2="328.1"/>
<line class="st2" x1="190.8" y1="323.1" x2="275.7" y2="323.1"/>
<path d="M285.9,348.6h-3.7l-0.6,1.6h-1l2.9-7.3h1.1l3,7.3h-1L285.9,348.6z M282.5,347.8h3.2l-1.6-4.1L282.5,347.8z"/>
<path d="M291,344.8c0.8,0,1.5,0.3,1.9,0.9l-0.6,0.5c-0.3-0.4-0.8-0.7-1.4-0.7c-1.1,0.1-2,1.1-1.8,2.3c0.1,1,0.9,1.7,1.8,1.8
	c0.5,0,1-0.2,1.4-0.7l0.6,0.5c-0.5,0.6-1.2,1-1.9,0.9c-1.5-0.1-2.7-1.4-2.6-2.9C288.4,346,289.5,344.9,291,344.8z"/>
<path d="M296.5,344.8c0.8,0,1.5,0.3,1.9,0.9l-0.6,0.5c-0.3-0.4-0.8-0.7-1.4-0.7c-1.1,0.1-2,1.1-1.8,2.3c0.1,1,0.9,1.7,1.8,1.8
	c0.5,0,1-0.2,1.4-0.7l0.6,0.5c-0.5,0.6-1.2,1-1.9,0.9c-1.5-0.1-2.7-1.4-2.6-2.9C294,346,295.1,344.9,296.5,344.8z"/>
<path d="M302.1,344.8c1.4,0,2.6,1.2,2.6,2.6c0,0.1,0,0.2,0,0.3v0.2h-4.3c0,1,0.9,1.9,1.9,1.8c0,0,0,0,0,0c0.6,0,1.2-0.2,1.6-0.7
	l0.4,0.5c-0.6,0.5-1.3,0.8-2.1,0.8c-1.5,0-2.8-1.3-2.7-2.9C299.5,346.1,300.6,344.9,302.1,344.8L302.1,344.8z M300.3,347.3h3.5
	c0-1-0.7-1.7-1.7-1.8c0,0-0.1,0-0.1,0C301.1,345.5,300.3,346.3,300.3,347.3L300.3,347.3z"/>
<path d="M306,348.9c0.5,0.5,1.1,0.8,1.7,0.8c0.8,0,1.3-0.4,1.3-0.9c0-0.6-0.6-0.8-1.4-0.9c-0.9-0.2-1.9-0.5-1.9-1.6
	c0-0.8,0.7-1.5,2-1.5c0.7,0,1.4,0.3,2,0.8l-0.4,0.6c-0.4-0.4-1-0.7-1.6-0.7c-0.7,0-1.2,0.3-1.2,0.8c0,0.5,0.6,0.7,1.3,0.8
	c0.9,0.2,2,0.5,2,1.7c0,0.9-0.7,1.6-2.1,1.6c-0.8,0-1.6-0.3-2.1-0.8L306,348.9z"/>
<path d="M311.2,348.9c0.5,0.5,1.1,0.8,1.7,0.8c0.8,0,1.3-0.4,1.3-0.9c0-0.6-0.6-0.8-1.4-0.9c-0.9-0.2-1.9-0.5-1.9-1.6
	c0-0.8,0.7-1.5,2-1.5c0.7,0,1.4,0.3,2,0.8l-0.4,0.6c-0.4-0.4-1-0.7-1.6-0.7c-0.7,0-1.2,0.3-1.2,0.8c0,0.5,0.6,0.7,1.3,0.8
	c0.9,0.2,2,0.5,2,1.7c0,0.9-0.7,1.6-2.1,1.6c-0.8,0-1.6-0.3-2.1-0.8L311.2,348.9z"/>
<line class="st3" x1="403.1" y1="328.1" x2="447.8" y2="328.1"/>
<line class="st2" x1="403" y1="323.1" x2="447.8" y2="323.1"/>
<line class="st3" x1="321.2" y1="328.1" x2="366.7" y2="328.1"/>
<line class="st2" x1="321.3" y1="323.1" x2="366.7" y2="323.1"/>
<path class="st4" d="M394.7,331.3l-5.3,0c-1.1-0.1-2.2-0.7-2.6-1.8l-3.5-7.9c-0.5-1-1.5-1.7-2.6-1.8l-5.3,0"/>
<path class="st4" d="M384.1,327.7l-0.9,1.8c-0.5,1-1.5,1.7-2.7,1.8l-5.3,0"/>
<path class="st4" d="M394.8,319.9l-5.3,0c-1.1,0.1-2.2,0.7-2.7,1.8l-0.9,1.8"/>
<polyline class="st4" points="394.8,317.2 397.4,319.9 394.8,322.5 "/>
<polyline class="st4" points="394.9,328.4 397.4,330.8 394.9,333.3 "/>
<polyline class="st4" points="375.3,317.2 372.7,319.8 375.3,322.4 "/>
<polyline class="st4" points="375.3,328.6 372.6,331.2 375.3,333.9 "/>
<circle class="st5" cx="385" cy="325.5" r="17.8"/>
<path d="M359,352.1h3.3c1-0.1,1.9,0.6,2,1.6c0,0.1,0,0.2,0,0.2c0,0.8-0.5,1.5-1.3,1.7c0.8,0.2,1.4,0.9,1.4,1.8c0,1.1-0.8,1.9-1.8,2
	c-0.1,0-0.2,0-0.3,0H359V352.1z M362.1,355.3c0.6,0.1,1.2-0.4,1.3-1c0-0.1,0-0.1,0-0.2c0-0.6-0.5-1.2-1.1-1.2c-0.1,0-0.1,0-0.2,0
	h-2.2v2.4H362.1z M362.2,358.7c0.7,0.1,1.3-0.4,1.4-1.1c0-0.1,0-0.1,0-0.2c0-0.7-0.5-1.3-1.2-1.3c0,0-0.1,0-0.1,0h-2.2v2.5H362.2z"
	/>
<path d="M368.4,356.6H367v2.9h-0.9v-7.3h2.9c1.2-0.1,2.2,0.8,2.3,2c0,0.1,0,0.2,0,0.2c0.1,1.1-0.8,2.1-1.9,2.1l2,3h-1.1L368.4,356.6
	z M368.9,353H367v2.8h1.9c0.8,0,1.4-0.6,1.5-1.3c0-0.8-0.6-1.4-1.3-1.5C369,353,368.9,353,368.9,353z"/>
<path d="M377.5,357.9h-3.7l-0.6,1.6h-1l2.9-7.3h1.1l3,7.3h-1L377.5,357.9z M374,357h3.2l-1.6-4.1L374,357z"/>
<path d="M380.1,357.8c0.6,0.7,1.4,1,2.3,1c1.3,0,1.7-0.7,1.7-1.3c0-0.9-0.9-1.1-1.9-1.4c-1.2-0.3-2.5-0.6-2.5-2.1c0-1.2,1.1-2,2.5-2
	c1,0,1.9,0.3,2.6,1l-0.6,0.7c-0.5-0.6-1.3-0.9-2.1-0.9c-0.9,0-1.5,0.5-1.5,1.2c0,0.7,0.8,1,1.8,1.2c1.2,0.3,2.6,0.7,2.6,2.2
	c0,1.1-0.7,2.2-2.7,2.2c-1.1,0-2.1-0.4-2.8-1.2L380.1,357.8z"/>
<path d="M388.4,351.9h0.6l-2.6,7.8h-0.6L388.4,351.9z"/>
<path d="M390,352.1h3.3c1-0.1,1.9,0.6,2,1.6c0,0.1,0,0.2,0,0.2c0,0.8-0.5,1.5-1.3,1.7c0.8,0.2,1.4,0.9,1.4,1.8c0,1.1-0.8,1.9-1.8,2
	c-0.1,0-0.2,0-0.3,0H390L390,352.1z M393.1,355.3c0.6,0.1,1.2-0.4,1.3-1c0-0.1,0-0.1,0-0.2c0-0.6-0.5-1.2-1.1-1.2
	c-0.1,0-0.1,0-0.2,0h-2.2v2.4H393.1z M393.1,358.7c0.7,0.1,1.3-0.4,1.4-1.1c0-0.1,0-0.1,0-0.2c0-0.7-0.5-1.3-1.2-1.3
	c0,0-0.1,0-0.1,0h-2.2v2.5H393.1z"/>
<path d="M397.9,353.6v5.9H397v-7.3h0.9l4.2,5.8v-5.8h0.9v7.3h-0.9L397.9,353.6z"/>
<path d="M408.4,352c1.1,0,2.2,0.5,2.8,1.4l-0.7,0.5c-0.5-0.6-1.3-1-2.1-1c-1.6,0.1-2.9,1.5-2.8,3.2c0.1,1.5,1.3,2.7,2.8,2.8
	c0.7,0,1.4-0.3,2-0.8v-1.5h-2.5v-0.8h3.4v2.7c-0.7,0.8-1.8,1.3-2.9,1.3c-2.1,0-3.8-1.7-3.8-3.8C404.6,353.7,406.3,352,408.4,352
	L408.4,352z"/>
<path class="st4" d="M308,333.9h-26.7c-3.7,0-6.7-3.1-6.7-6.8c0-3.7,3-6.7,6.7-6.7v0c0-5.5,4.5-10,10-10c1.4,0,2.8,0.3,4.1,0.9
	c2.2-6,8.9-9.1,15-6.9c4.6,1.7,7.6,6.1,7.6,11c0,1-0.1,2.1-0.4,3.1c3.9,2.6,5,7.8,2.4,11.7c-1.6,2.3-4.2,3.8-7,3.8h-1.7"/>
<polyline class="st2" points="740.5,267.8 740.5,288.2 786.7,288.2 "/>
<polyline class="st3" points="786.7,209 740.5,209 740.5,228 "/>
<line class="st1" x1="235.9" y1="167.8" x2="190.7" y2="167.8"/>
<line class="st1" x1="234.7" y1="248.8" x2="190.3" y2="248.8"/>
<path d="M234.8,278c0.5,0.6,1.3,1,2,1c1.1,0,1.7-0.5,1.7-1.4c0-0.9-0.7-1.3-1.8-1.3c-0.3,0-0.6,0-0.8,0v-0.8c0.1,0,0.5,0,0.8,0
	c0.9,0,1.7-0.4,1.7-1.2c0-0.8-0.7-1.3-1.6-1.3c-0.7,0-1.5,0.3-1.9,0.9l-0.5-0.6c0.6-0.7,1.5-1.2,2.5-1.1c1.4,0,2.5,0.7,2.5,2
	c0,0.9-0.7,1.6-1.6,1.7c0.9,0.1,1.7,0.9,1.7,1.8c0,1.2-1,2.1-2.6,2.1c-1,0-2-0.4-2.6-1.2L234.8,278z"/>
<path d="M244.5,272.2c1.1,0,2.2,0.5,2.8,1.4l-0.7,0.5c-0.5-0.6-1.3-1-2.1-1c-1.6,0.1-2.9,1.5-2.8,3.2c0.1,1.5,1.3,2.7,2.8,2.8
	c0.7,0,1.4-0.3,2-0.8v-1.5H244v-0.8h3.4v2.7c-0.7,0.8-1.8,1.3-2.9,1.3c-2.1,0-3.8-1.7-3.8-3.8C240.8,273.9,242.5,272.2,244.5,272.2z
	"/>
<polyline class="st6" points="367.6,211.7 323.4,211.7 323.1,211.7 323.1,172.8 247,172.8 "/>
<polyline class="st1" points="368.8,216.7 323.4,216.7 323.1,216.7 323.1,248.8 247,248.8 "/>
<line class="st6" x1="234.7" y1="172.8" x2="190.3" y2="172.8"/>
<path class="st4" d="M234.5,159.4l-1.5-2c-1.2-1.5-1.1-3.7,0.1-5.2l1.4-1.8"/>
<path class="st4" d="M231.5,161.8l-3.2-4.4c-1.2-1.5-1.1-3.7,0.1-5.2l3.1-4.1"/>
<path class="st4" d="M227.9,163.6l-4.6-6.3c-1.2-1.5-1.1-3.7,0.1-5.2l4.5-5.9"/>
<path class="st4" d="M247.2,150.3l1.5,2c1.2,1.5,1.1,3.7-0.1,5.2l-1.4,1.8"/>
<path class="st4" d="M250.2,147.9l3.2,4.4c1.2,1.5,1.1,3.7-0.1,5.2l-3.1,4.1"/>
<path class="st4" d="M253.8,146.1l4.6,6.3c1.2,1.5,1.1,3.7-0.1,5.2l-4.5,5.9"/>
<path class="st4" d="M251,186.8l-7.9-28.3c2-1.2,2.7-3.8,1.5-5.8s-3.8-2.7-5.8-1.5s-2.7,3.8-1.5,5.8c0.4,0.6,0.9,1.1,1.5,1.5
	l-7.9,28.3h17.3"/>
<line class="st4" x1="235.1" y1="181.1" x2="246.6" y2="181.1"/>
<line class="st4" x1="236.5" y1="175.2" x2="245.2" y2="175.2"/>
<line class="st4" x1="238" y1="169.4" x2="243.8" y2="169.4"/>
<line class="st2" x1="403.1" y1="211.7" x2="447.8" y2="211.7"/>
<line class="st3" x1="403" y1="206.7" x2="447.8" y2="206.7"/>
<line class="st2" x1="676.7" y1="250.4" x2="720.9" y2="250.4"/>
<line class="st3" x1="676.6" y1="245.4" x2="720.9" y2="245.4"/>
<path d="M228.8,201.9h-3.5v-0.8l3.1-4.7h1.3v4.7h1v0.8h-1v1.9h-0.9V201.9z M226.3,201.1h2.6v-3.8L226.3,201.1z"/>
<path d="M235.6,196.3c1.1,0,2.2,0.5,2.8,1.4l-0.7,0.5c-0.5-0.6-1.3-1-2.1-1c-1.6,0.1-2.9,1.5-2.8,3.2c0.1,1.5,1.3,2.7,2.8,2.8
	c0.7,0,1.4-0.3,2-0.8v-1.5H235V200h3.4v2.7c-0.7,0.8-1.8,1.3-2.9,1.3c-2.1,0-3.8-1.7-3.8-3.8C231.8,198,233.5,196.3,235.6,196.3
	L235.6,196.3z"/>
<path d="M241.8,196.2h0.6l-2.6,7.8h-0.6L241.8,196.2z"/>
<path d="M243.8,202.1c0.5,0.6,1.2,1,2,1c0.9,0.1,1.6-0.6,1.7-1.5c0,0,0-0.1,0-0.1c0-0.9-0.6-1.6-1.5-1.6c-0.1,0-0.1,0-0.2,0
	c-0.6,0-1.2,0.2-1.7,0.7l-0.7-0.2v-4h4.5v0.8h-3.6v2.6c0.5-0.4,1.1-0.7,1.7-0.7c1.2,0,2.3,0.9,2.3,2.2c0,0.1,0,0.1,0,0.2
	c0,1.3-1,2.4-2.4,2.4c-0.1,0-0.2,0-0.2,0c-1,0.1-2-0.4-2.6-1.2L243.8,202.1z"/>
<path d="M253.5,196.3c1.1,0,2.2,0.5,2.8,1.4l-0.7,0.5c-0.5-0.6-1.3-1-2.1-1c-1.6,0.1-2.9,1.5-2.8,3.2c0.1,1.5,1.3,2.7,2.8,2.8
	c0.7,0,1.4-0.3,2-0.8v-1.5h-2.5V200h3.4v2.7c-0.7,0.8-1.8,1.3-2.9,1.3c-2.1,0-3.8-1.7-3.8-3.8C249.7,198,251.4,196.3,253.5,196.3
	L253.5,196.3z"/>
<path d="M786.1,236.1h0.9v7.3h-0.9V236.1z"/>
<path d="M792.4,239.9c0-0.9-0.5-1.2-1.2-1.2c-0.6,0-1.2,0.3-1.6,0.8v3.9h-0.8v-5.3h0.8v0.8c0.5-0.5,1.2-0.9,1.9-0.9
	c0.8-0.1,1.6,0.5,1.7,1.3c0,0.1,0,0.3,0,0.4v3.7h-0.8V239.9z"/>
<path d="M795.2,242.3v-3.5h-0.9v-0.7h0.9v-1.5h0.8v1.5h1.1v0.7H796v3.3c0,0.4,0.2,0.7,0.5,0.7c0.2,0,0.4-0.1,0.6-0.2l0.2,0.6
	c-0.3,0.2-0.6,0.4-1,0.3c-0.6,0.1-1.1-0.4-1.2-1C795.1,242.5,795.1,242.4,795.2,242.3z"/>
<path d="M800.7,238c1.4,0,2.6,1.2,2.6,2.6c0,0.1,0,0.2,0,0.3v0.2h-4.3c0,1,0.9,1.9,1.9,1.8c0,0,0,0,0,0c0.6,0,1.2-0.2,1.6-0.7
	l0.4,0.5c-0.6,0.5-1.3,0.8-2.1,0.8c-1.5,0-2.8-1.3-2.7-2.9C798.1,239.2,799.2,238,800.7,238L800.7,238z M798.9,240.4h3.5
	c0-1-0.7-1.7-1.7-1.8c0,0-0.1,0-0.1,0C799.7,238.7,798.9,239.4,798.9,240.4L798.9,240.4z"/>
<path d="M804.6,238.1h0.8v0.9c0.4-0.6,1.1-0.9,1.8-1v0.8c-0.1,0-0.2,0-0.3,0c-0.6,0.1-1.1,0.4-1.4,0.8v3.8h-0.8V238.1z"/>
<path d="M812,239.9c0-0.9-0.5-1.2-1.2-1.2c-0.6,0-1.2,0.3-1.6,0.8v3.9h-0.8v-5.3h0.8v0.8c0.5-0.5,1.2-0.9,1.9-0.9
	c0.8-0.1,1.6,0.5,1.7,1.3c0,0.1,0,0.3,0,0.4v3.7H812V239.9z"/>
<path d="M816.9,238c1.4,0,2.6,1.2,2.6,2.6c0,0.1,0,0.2,0,0.3v0.2h-4.3c0,1,0.9,1.9,1.9,1.8c0,0,0,0,0,0c0.6,0,1.2-0.2,1.6-0.7
	l0.4,0.5c-0.6,0.5-1.3,0.8-2.1,0.8c-1.5,0-2.8-1.3-2.7-2.9C814.3,239.2,815.4,238,816.9,238L816.9,238z M815.1,240.4h3.5
	c0-1-0.7-1.7-1.7-1.8c0,0-0.1,0-0.1,0C815.9,238.7,815.1,239.4,815.1,240.4L815.1,240.4z"/>
<path d="M821,242.3v-3.5h-0.9v-0.7h0.9v-1.5h0.8v1.5h1.1v0.7h-1.1v3.3c0,0.4,0.2,0.7,0.5,0.7c0.2,0,0.4-0.1,0.6-0.2l0.2,0.6
	c-0.3,0.2-0.6,0.4-1,0.3c-0.6,0.1-1.1-0.4-1.2-1C821,242.5,821,242.4,821,242.3z"/>
<path d="M794.7,247.1h0.9v7.3h-0.9V247.1z"/>
<path d="M797.4,247.1h2.9c1.2,0,2.2,0.9,2.3,2.1c0,1.2-0.9,2.2-2.1,2.3c-0.1,0-0.1,0-0.2,0h-2v2.9h-0.9V247.1z M800.2,247.9h-1.9
	v2.8h1.9c0.8,0,1.4-0.6,1.5-1.3c0-0.8-0.6-1.4-1.3-1.5C800.3,247.9,800.3,247.9,800.2,247.9z"/>
<path d="M803.1,249.1h0.9l1.8,4.4l1.8-4.4h0.9l-2.2,5.3h-0.9L803.1,249.1z"/>
<path d="M812.4,252.5H809v-0.8l3.1-4.7h1.3v4.7h1v0.8h-1v1.9h-0.9V252.5z M809.9,251.7h2.6v-3.8L809.9,251.7z"/>
<g id="laptop">
	<line class="st4" x1="153.5" y1="201.4" x2="159.5" y2="201.4"/>
	<path class="st4" d="M179,201.3c0,1-0.6,1.9-1.5,2.3l-41.8,0l-0.2,0c-0.9-0.4-1.5-1.3-1.5-2.3c0-1,0.6-1.8,1.5-2.2h42v-24h-42v21"
		/>
</g>
<g id="mobile-phone">
	<ellipse cx="98.8" cy="185.3" rx="0.5" ry="0.5"/>
	<path d="M98.8,184.3c-0.5,0-1,0.4-1,1c0,0.5,0.4,1,1,1c0.5,0,1-0.4,1-1C99.8,184.7,99.3,184.3,98.8,184.3z"/>
	<line class="st4" x1="104" y1="217.4" x2="109.2" y2="217.4"/>
	<path class="st4" d="M117.1,214.2v3.9c0,0.7-0.6,1.3-1.3,1.3H97.5c-0.7,0-1.3-0.6-1.3-1.3v-33.4c0-0.7,0.6-1.3,1.3-1.3h18.2
		c0.7,0,1.3,0.6,1.3,1.3v0.7"/>
	<path class="st4" d="M97.5,187.2h18.3c0.7,0,1.3,0.6,1.3,1.3v25.7c0,0.7-0.6,1.3-1.3,1.3H97.5c-0.7,0-1.3-0.6-1.3-1.3v-25.7
		C96.2,187.8,96.8,187.2,97.5,187.2z"/>
</g>
<g id="monitor">
	<polyline class="st4" points="169.3,249.4 169.3,251 124.3,251 124.3,246.2 169.3,246.2 169.3,220.5 124.3,220.5 124.3,243 	"/>
	<line class="st4" x1="146.8" y1="251.2" x2="146.8" y2="254.3"/>
	<line class="st4" x1="137.2" y1="254.3" x2="156.5" y2="254.3"/>
	<circle cx="146.8" cy="248.6" r="1"/>
</g>
<polygon class="st7" points="190.4,177.5 190.4,265.9 84.8,265.9 84.8,148.2 190.4,148.2 190.4,164.2 "/>
<rect x="91.3" y="139.2" width="92.6" height="18"/>
<path class="st0" d="M97.6,144.6h1.5v7.1h-1.5V144.6z"/>
<path class="st0" d="M104.6,146.6v0.9c0,1.1-0.9,2-1.9,2c-0.1,0-0.1,0-0.2,0h-0.8v2.3h-1.5v-7.1h2.4c1.1-0.1,2,0.7,2.1,1.8
	C104.6,146.5,104.6,146.5,104.6,146.6z M103,146.5c0-0.2-0.2-0.5-0.4-0.5c0,0,0,0-0.1,0h-0.9v2h0.9c0.2,0,0.5-0.2,0.5-0.4
	c0,0,0,0,0-0.1L103,146.5z"/>
<path class="st0" d="M109.5,146.6l-1.2,5.1h-1.9l-1.2-5.1h1.5l0.6,3.4l0.5-3.4H109.5z"/>
<path class="st0" d="M114.1,147.2v4.6h-1.5v-1.5h-2.7v-1.4l1.2-4.2h1.6l-1.2,4.2h1v-1.7H114.1z"/>
<path class="st0" d="M122.3,148.8h-0.6v1.1c0,1-0.8,1.8-1.8,1.9c0,0,0,0-0.1,0H119c-1,0-1.8-0.8-1.9-1.8c0,0,0,0,0-0.1v-0.6
	c0-0.4,0.1-0.8,0.4-1.2c-0.3-0.3-0.4-0.7-0.4-1.1v-0.5c0-1,0.8-1.8,1.8-1.8c0,0,0,0,0.1,0h1.5v1.3H119c-0.2,0-0.3,0.2-0.3,0.4v0.7
	c0,0.2,0.1,0.4,0.3,0.4h1.1v-0.8h1.5v0.8h0.6V148.8z M120.1,148.8H119c-0.2,0-0.3,0.2-0.3,0.4v0.8c0,0.2,0.1,0.4,0.3,0.4h0.8
	c0.2,0,0.3-0.2,0.3-0.4V148.8z"/>
<path class="st0" d="M125,144.6h1.5v7.1H125V144.6z"/>
<path class="st0" d="M132,146.6v0.9c0,1.1-0.9,2-1.9,2c-0.1,0-0.1,0-0.2,0H129v2.3h-1.5v-7.1h2.4c1.1-0.1,2,0.7,2.1,1.8
	C132,146.5,132,146.5,132,146.6z M130.4,146.5c0-0.2-0.2-0.5-0.4-0.5c0,0,0,0-0.1,0H129v2h0.9c0.2,0,0.5-0.2,0.5-0.4c0,0,0,0,0-0.1
	L130.4,146.5z"/>
<path class="st0" d="M136.9,146.6l-1.2,5.1h-1.9l-1.2-5.1h1.5l0.6,3.4l0.5-3.4H136.9z"/>
<path class="st0" d="M141.9,149v0.9c0,1.1-0.9,2-2,2c0,0-0.1,0-0.1,0c-1.1,0.1-2.1-0.7-2.2-1.9c0,0,0-0.1,0-0.1v-3.4
	c0.1-1.2,1.1-2.1,2.3-2c1.1,0.1,1.9,0.9,2,2h-1.5c0-0.3-0.2-0.6-0.5-0.7c0,0-0.1,0-0.1,0c-0.3,0-0.6,0.2-0.6,0.5c0,0,0,0.1,0,0.1
	v0.9c0.3-0.1,0.6-0.2,0.9-0.2c1-0.1,1.8,0.7,1.9,1.6C141.9,148.9,141.9,149,141.9,149z M140.3,148.9c0-0.3-0.2-0.5-0.6-0.5
	c-0.4,0-0.6,0.2-0.6,0.5v1.1c0,0.3,0.2,0.5,0.6,0.5c0.4,0,0.6-0.2,0.6-0.5V148.9z"/>
<path class="st0" d="M149.5,146.7v3.1c0,1.1-0.9,2-2.1,2c-0.1,0-0.1,0-0.2,0h-2.3v-7.1h2.3c1.1-0.1,2.1,0.7,2.3,1.8
	C149.5,146.5,149.5,146.6,149.5,146.7z M147.9,146.6c0-0.3-0.2-0.6-0.5-0.6c0,0-0.1,0-0.1,0h-0.8v4.3h0.8c0.3,0,0.6-0.2,0.6-0.5
	c0,0,0-0.1,0-0.1V146.6z"/>
<path class="st0" d="M152,146v1.5h1.7v1.4H152v1.3h2.1v1.4h-3.7v-7.1h3.7v1.4L152,146z"/>
<path class="st0" d="M159.8,144.6l-1.5,7.1h-2l-1.5-7.1h1.5l1,4.9l1-4.9H159.8z"/>
<path class="st0" d="M160.6,144.6h1.5v7.1h-1.5V144.6z"/>
<path class="st0" d="M163,149.9v-3.4c0.2-1.3,1.4-2.2,2.7-2c1,0.2,1.8,1,2,2v0.9h-1.6v-0.9c0-0.4-0.3-0.6-0.8-0.6
	c-0.5,0-0.8,0.2-0.8,0.6v3.4c0,0.4,0.3,0.6,0.8,0.6c0.5,0,0.8-0.2,0.8-0.6V149h1.6v0.9c-0.2,1.3-1.4,2.2-2.7,2
	C164,151.7,163.2,150.9,163,149.9L163,149.9z"/>
<path class="st0" d="M170.2,146v1.5h1.7v1.4h-1.7v1.3h2.1v1.4h-3.7v-7.1h3.7v1.4L170.2,146z"/>
<path class="st0" d="M173.1,149.6v-0.3h1.5v0.4c0,0.4,0.3,0.7,0.7,0.7c0,0,0.1,0,0.1,0c0.4,0,0.7-0.3,0.7-0.6c0,0,0,0,0-0.1
	c0-1.3-3-1-3-3.3c-0.1-1.1,0.8-2,1.9-2.1c0.1,0,0.2,0,0.3,0c1.1-0.1,2,0.6,2.2,1.7c0,0.1,0,0.2,0,0.3v0.4h-1.5v-0.5
	c0-0.3-0.3-0.5-0.7-0.5c-0.3,0-0.6,0.2-0.6,0.5c0,0,0,0.1,0,0.1c0,1,3,0.8,3,3.2c0.1,1.2-0.8,2.1-2,2.2c-0.1,0-0.2,0-0.3,0
	c-1.2,0.1-2.2-0.8-2.3-1.9C173.1,149.8,173.1,149.7,173.1,149.6z"/>
<path class="st4" d="M799.2,209.6c0,0,0-0.1,0-0.1h-6.8c0,0,0,0.1,0,0.1c0,2.7,0.4,5.3,1.2,7.8c2-0.5,3.9-0.8,5.9-1
	C799.3,214.2,799.2,211.9,799.2,209.6z"/>
<path class="st4" d="M799.6,216.5c-2,0.2-4,0.5-5.9,1c1.4,4.3,3.9,7.6,7,9.2c0.1,0,0.3,0.1,0.4,0.1c0.7,0.1,1.5,0.2,2.2,0.3
	C801.7,225.7,800.3,221.7,799.6,216.5z"/>
<path class="st4" d="M809.5,202.5c0.3,2.3,0.4,4.6,0.4,7h6.8c0-2.7-0.4-5.4-1.3-7.9C813.5,202,811.5,202.3,809.5,202.5z"/>
<path class="st4" d="M809.6,216.5c-0.5,0-1-0.1-1.6-0.1c-1.1-0.1-2.2-0.1-3.4-0.1c-1.7,0-3.4,0.1-5,0.2c0.7,5.2,2.1,9.2,3.8,10.5
	c0.4,0,0.8,0,1.2,0c0.4,0,0.8,0,1.2,0l0,0C807.5,225.7,808.9,221.7,809.6,216.5z"/>
<path class="st4" d="M805.8,227L805.8,227c0.9-0.1,1.8-0.2,2.6-0.4c3.1-1.5,5.6-4.9,7.1-9.2c-2-0.5-3.9-0.8-5.9-1
	C808.9,221.7,807.5,225.7,805.8,227z"/>
<path class="st4" d="M810,209.6c0,2.3-0.1,4.6-0.4,6.8c2,0.2,4,0.5,5.9,1c0.8-2.5,1.2-5.2,1.2-7.8c0,0,0-0.1,0-0.1H810
	C810,209.5,810,209.6,810,209.6z"/>
<path class="st4" d="M799.6,202.5c-2-0.2-4-0.5-5.9-0.9c-0.8,2.6-1.3,5.2-1.3,7.9h6.8C799.2,207.1,799.3,204.8,799.6,202.5z"/>
<path class="st4" d="M804.6,202.7c-1.2,0-2.4,0-3.5-0.1c-0.5,0-1-0.1-1.5-0.1c-0.3,2.3-0.4,4.6-0.4,7H810c0-2.3-0.1-4.7-0.4-7
	c-0.3,0-0.6,0.1-1,0.1C807.3,202.7,806,202.7,804.6,202.7z"/>
<path class="st4" d="M799.2,209.6c0,2.3,0.1,4.6,0.4,6.8c1.6-0.1,3.3-0.2,5-0.2c1.2,0,2.3,0,3.4,0.1c0.5,0,1.1,0.1,1.6,0.1
	c0.3-2.3,0.4-4.6,0.4-6.8c0,0,0-0.1,0-0.1h-10.8C799.2,209.5,799.2,209.6,799.2,209.6z"/>
<path class="st4" d="M809.1,199.6L809.1,199.6L809.1,199.6c0.2,0.9,0.3,1.9,0.5,2.9c2-0.2,4-0.5,5.9-0.9c-0.2-0.7-0.5-1.4-0.8-2
	c-1.6-3.5-4-6.1-6.9-7.3c-0.8-0.1-1.6-0.2-2.4-0.3c0.1,0,0.2,0.1,0.3,0.2C807.1,193,808.3,195.8,809.1,199.6z"/>
<path class="st4" d="M800.2,199.3c-0.2,1-0.4,2.1-0.6,3.2c0.5,0,1,0.1,1.5,0.1c1.1,0.1,2.3,0.1,3.5,0.1c1.4,0,2.7-0.1,4-0.1
	c0.3,0,0.6-0.1,1-0.1c-0.1-1-0.3-2-0.5-2.9c-0.8-3.8-2-6.6-3.4-7.5c-0.1-0.1-0.2-0.1-0.3-0.2c-0.2,0-0.5,0-0.8,0c-0.3,0-0.5,0-0.8,0
	C802.3,192.7,801,195.4,800.2,199.3z"/>
<path class="st4" d="M800.2,199.3c0.8-3.9,2.1-6.6,3.6-7.3c-0.8,0-1.6,0.1-2.4,0.3c-3,1.4-5.4,3.9-6.7,6.9c-0.4,0.8-0.7,1.6-1,2.4
	c1.9,0.5,3.9,0.8,5.9,0.9C799.8,201.4,800,200.3,800.2,199.3z"/>
<path class="st4" d="M800.7,226.6c-3.1-1.5-5.6-4.9-7-9.2c-1.1,0.3-2.3,0.6-3.4,1.1c-0.2,0.1-0.4,0.2-0.6,0.3
	C792.2,222.7,796.1,225.6,800.7,226.6z"/>
<path class="st4" d="M816.7,209.5C816.7,209.5,816.7,209.5,816.7,209.5c0,2.7-0.4,5.4-1.2,7.9c1.2,0.3,2.5,0.7,3.6,1.2l0,0l0,0
	c0.1,0.1,0.2,0.1,0.3,0.2c1.7-2.8,2.7-6,2.7-9.3L816.7,209.5z"/>
<path class="st4" d="M815.5,217.4c-1.4,4.3-4,7.6-7.1,9.2c0,0,0.1,0,0.1,0c4.5-1.1,8.4-3.9,10.9-7.8c-0.1-0.1-0.2-0.1-0.3-0.2
	C818,218.1,816.8,217.7,815.5,217.4z"/>
<path class="st4" d="M808,192.3c-0.1,0-0.1,0-0.2,0c2.8,1.1,5.3,3.8,6.9,7.3l0,0l0,0c0.3,0.7,0.6,1.4,0.8,2c1.4-0.3,2.7-0.8,4-1.4
	c-0.1-0.2-0.2-0.3-0.3-0.5C816.5,195.8,812.5,193.2,808,192.3z"/>
<path class="st4" d="M816.7,209.5h5.4c0-3.3-0.9-6.5-2.7-9.3c-1.3,0.6-2.6,1.1-4,1.4C816.3,204.1,816.7,206.8,816.7,209.5z"/>
<path class="st4" d="M793.7,201.6c-1.4-0.3-2.7-0.8-4-1.4c-1.7,2.8-2.7,6-2.7,9.3h5.4C792.4,206.8,792.9,204.1,793.7,201.6z"/>
<path class="st4" d="M793.7,217.4c-0.8-2.5-1.2-5.2-1.2-7.8c0,0,0-0.1,0-0.1H787c0,3.3,0.9,6.5,2.7,9.3c0.2-0.1,0.4-0.2,0.6-0.3
	C791.4,218,792.5,217.7,793.7,217.4z"/>
<path class="st4" d="M794.7,199.2c1.3-3.1,3.7-5.5,6.7-6.9c-4.5,0.8-8.5,3.4-11.1,7.1c-0.2,0.3-0.4,0.6-0.6,0.9
	c1.3,0.6,2.6,1.1,4,1.4C794,200.7,794.3,199.9,794.7,199.2z"/>
<path d="M786.1,315h0.9v7.3h-0.9V315z"/>
<path d="M792.4,318.8c0-0.9-0.5-1.2-1.2-1.2c-0.6,0-1.2,0.3-1.6,0.8v3.9h-0.8V317h0.8v0.8c0.5-0.5,1.2-0.9,1.9-0.9
	c0.8-0.1,1.6,0.5,1.7,1.3c0,0.1,0,0.3,0,0.4v3.7h-0.8V318.8z"/>
<path d="M795.2,321.2v-3.5h-0.9V317h0.9v-1.5h0.8v1.5h1.1v0.7H796v3.3c0,0.4,0.2,0.7,0.5,0.7c0.2,0,0.4-0.1,0.6-0.2l0.2,0.6
	c-0.3,0.2-0.6,0.4-1,0.3c-0.6,0.1-1.1-0.4-1.2-1C795.1,321.4,795.1,321.3,795.2,321.2z"/>
<path d="M800.7,316.9c1.4,0,2.6,1.2,2.6,2.6c0,0.1,0,0.2,0,0.3v0.2h-4.3c0,1,0.9,1.9,1.9,1.8c0,0,0,0,0,0c0.6,0,1.2-0.2,1.6-0.7
	l0.4,0.5c-0.6,0.5-1.3,0.8-2.1,0.8c-1.5,0-2.8-1.3-2.7-2.9C798.1,318.1,799.2,317,800.7,316.9L800.7,316.9z M798.9,319.3h3.5
	c0-1-0.7-1.7-1.7-1.8c0,0-0.1,0-0.1,0C799.7,317.6,798.9,318.4,798.9,319.3z"/>
<path d="M804.6,317h0.8v0.9c0.4-0.6,1.1-0.9,1.8-1v0.8c-0.1,0-0.2,0-0.3,0c-0.6,0.1-1.1,0.4-1.4,0.8v3.8h-0.8V317z"/>
<path d="M812,318.8c0-0.9-0.5-1.2-1.2-1.2c-0.6,0-1.2,0.3-1.6,0.8v3.9h-0.8V317h0.8v0.8c0.5-0.5,1.2-0.9,1.9-0.9
	c0.8-0.1,1.6,0.5,1.7,1.3c0,0.1,0,0.3,0,0.4v3.7H812V318.8z"/>
<path d="M816.9,316.9c1.4,0,2.6,1.2,2.6,2.6c0,0.1,0,0.2,0,0.3v0.2h-4.3c0,1,0.9,1.9,1.9,1.8c0,0,0,0,0,0c0.6,0,1.2-0.2,1.6-0.7
	l0.4,0.5c-0.6,0.5-1.3,0.8-2.1,0.8c-1.5,0-2.8-1.3-2.7-2.9C814.3,318.1,815.4,317,816.9,316.9L816.9,316.9z M815.1,319.3h3.5
	c0-1-0.7-1.7-1.7-1.8c0,0-0.1,0-0.1,0C815.9,317.6,815.1,318.4,815.1,319.3z"/>
<path d="M821,321.2v-3.5h-0.9V317h0.9v-1.5h0.8v1.5h1.1v0.7h-1.1v3.3c0,0.4,0.2,0.7,0.5,0.7c0.2,0,0.4-0.1,0.6-0.2l0.2,0.6
	c-0.3,0.2-0.6,0.4-1,0.3c-0.6,0.1-1.1-0.4-1.2-1C821,321.4,821,321.3,821,321.2z"/>
<path d="M794.5,326h0.9v7.3h-0.9V326z"/>
<path d="M797.2,326h2.9c1.2,0,2.2,0.9,2.3,2.1c0,1.2-0.9,2.2-2.1,2.3c-0.1,0-0.1,0-0.2,0h-2v2.9h-0.9V326z M800,326.8h-1.9v2.8h1.9
	c0.8,0,1.4-0.6,1.5-1.3s-0.6-1.4-1.3-1.5C800.1,326.8,800.1,326.8,800,326.8z"/>
<path d="M803,328h0.9l1.8,4.4l1.8-4.4h0.9l-2.2,5.3h-0.9L803,328z"/>
<path d="M812,325.9c0.8,0,1.5,0.3,2,0.9l-0.5,0.7c-0.4-0.5-1-0.8-1.6-0.7c-1.4,0-2.1,1.4-2.1,2.9c0,0.1,0,0.2,0,0.3
	c0.5-0.7,1.2-1.1,2.1-1.1c1.2-0.1,2.3,0.8,2.4,2c0,0.1,0,0.2,0,0.3c0,1.3-1.1,2.4-2.4,2.4c-0.1,0-0.1,0-0.2,0c-2,0-2.8-1.8-2.8-3.8
	S809.9,325.9,812,325.9z M811.8,329.5c-0.8,0-1.4,0.4-1.8,1.1c0.1,0.9,0.6,2,1.8,2c0.9,0.1,1.6-0.6,1.7-1.5c0,0,0,0,0-0.1
	c0-0.8-0.6-1.6-1.4-1.6C811.9,329.5,811.8,329.5,811.8,329.5L811.8,329.5z"/>
<path class="st4" d="M799.2,288.5c0,0,0-0.1,0-0.1h-6.8c0,0,0,0.1,0,0.1c0,2.7,0.4,5.3,1.2,7.8c2-0.5,3.9-0.8,5.9-1
	C799.3,293.1,799.2,290.8,799.2,288.5z"/>
<path class="st4" d="M799.6,295.4c-2,0.2-4,0.5-5.9,1c1.4,4.3,3.9,7.6,7,9.2c0.1,0,0.3,0.1,0.4,0.1c0.7,0.1,1.5,0.2,2.2,0.3
	C801.7,304.6,800.3,300.6,799.6,295.4z"/>
<path class="st4" d="M809.5,281.4c0.3,2.3,0.4,4.6,0.4,7h6.8c0-2.7-0.4-5.4-1.3-7.9C813.5,280.9,811.5,281.2,809.5,281.4z"/>
<path class="st4" d="M809.6,295.4c-0.5,0-1-0.1-1.6-0.1c-1.1-0.1-2.2-0.1-3.4-0.1c-1.7,0-3.4,0.1-5,0.2c0.7,5.2,2.1,9.2,3.8,10.5
	c0.4,0,0.8,0,1.2,0c0.4,0,0.8,0,1.2,0l0,0C807.5,304.6,808.9,300.6,809.6,295.4z"/>
<path class="st4" d="M805.8,305.9L805.8,305.9c0.9-0.1,1.8-0.2,2.6-0.4c3.1-1.5,5.6-4.9,7.1-9.2c-2-0.5-3.9-0.8-5.9-1
	C808.9,300.6,807.5,304.6,805.8,305.9z"/>
<path class="st4" d="M810,288.5c0,2.3-0.1,4.6-0.4,6.8c2,0.2,4,0.5,5.9,1c0.8-2.5,1.2-5.2,1.2-7.8c0,0,0-0.1,0-0.1H810
	C810,288.4,810,288.5,810,288.5z"/>
<path class="st4" d="M799.6,281.4c-2-0.2-4-0.5-5.9-0.9c-0.8,2.6-1.3,5.2-1.3,7.9h6.8C799.2,286.1,799.3,283.7,799.6,281.4z"/>
<path class="st4" d="M804.6,281.6c-1.2,0-2.4,0-3.5-0.1c-0.5,0-1-0.1-1.5-0.1c-0.3,2.3-0.4,4.6-0.4,7H810c0-2.3-0.1-4.7-0.4-7
	c-0.3,0-0.6,0.1-1,0.1C807.3,281.6,806,281.6,804.6,281.6z"/>
<path class="st4" d="M799.2,288.5c0,2.3,0.1,4.6,0.4,6.8c1.6-0.1,3.3-0.2,5-0.2c1.2,0,2.3,0,3.4,0.1c0.5,0,1.1,0.1,1.6,0.1
	c0.3-2.3,0.4-4.6,0.4-6.8c0,0,0-0.1,0-0.1h-10.8C799.2,288.4,799.2,288.5,799.2,288.5z"/>
<path class="st4" d="M809.1,278.5L809.1,278.5L809.1,278.5c0.2,0.9,0.3,1.9,0.5,2.9c2-0.2,4-0.5,5.9-0.9c-0.2-0.7-0.5-1.4-0.8-2
	c-1.6-3.5-4-6.1-6.9-7.3c-0.8-0.1-1.6-0.2-2.4-0.3c0.1,0,0.2,0.1,0.3,0.2C807.1,271.9,808.3,274.7,809.1,278.5z"/>
<path class="st4" d="M800.2,278.2c-0.2,1-0.4,2.1-0.6,3.2c0.5,0,1,0.1,1.5,0.1c1.1,0.1,2.3,0.1,3.5,0.1c1.4,0,2.7-0.1,4-0.1
	c0.3,0,0.6-0.1,1-0.1c-0.1-1-0.3-2-0.5-2.9c-0.8-3.8-2-6.6-3.4-7.5c-0.1-0.1-0.2-0.1-0.3-0.2c-0.2,0-0.5,0-0.8,0c-0.3,0-0.5,0-0.8,0
	C802.3,271.6,801,274.3,800.2,278.2z"/>
<path class="st4" d="M800.2,278.2c0.8-3.9,2.1-6.6,3.6-7.3c-0.8,0-1.6,0.1-2.4,0.3c-3,1.4-5.4,3.9-6.7,6.9c-0.4,0.8-0.7,1.6-1,2.4
	c1.9,0.5,3.9,0.8,5.9,0.9C799.8,280.3,800,279.2,800.2,278.2z"/>
<path class="st4" d="M800.7,305.5c-3.1-1.5-5.6-4.9-7-9.2c-1.1,0.3-2.3,0.6-3.4,1.1c-0.2,0.1-0.4,0.2-0.6,0.3
	C792.2,301.7,796.1,304.5,800.7,305.5z"/>
<path class="st4" d="M816.7,288.4C816.7,288.4,816.7,288.4,816.7,288.4c0,2.7-0.4,5.4-1.2,7.9c1.2,0.3,2.5,0.7,3.6,1.2l0,0l0,0
	c0.1,0.1,0.2,0.1,0.3,0.2c1.7-2.8,2.7-6,2.7-9.3H816.7z"/>
<path class="st4" d="M815.5,296.3c-1.4,4.3-4,7.6-7.1,9.2c0,0,0.1,0,0.1,0c4.5-1.1,8.4-3.9,10.9-7.8c-0.1-0.1-0.2-0.1-0.3-0.2
	C818,297,816.8,296.6,815.5,296.3z"/>
<path class="st4" d="M808,271.2c-0.1,0-0.1,0-0.2,0c2.8,1.1,5.3,3.8,6.9,7.3l0,0l0,0c0.3,0.7,0.6,1.4,0.8,2c1.4-0.3,2.7-0.8,4-1.4
	c-0.1-0.2-0.2-0.3-0.3-0.5C816.5,274.7,812.5,272.1,808,271.2z"/>
<path class="st4" d="M816.7,288.4h5.4c0-3.3-0.9-6.5-2.7-9.3c-1.3,0.6-2.6,1.1-4,1.4C816.3,283,816.7,285.7,816.7,288.4z"/>
<path class="st4" d="M793.7,280.5c-1.4-0.3-2.7-0.8-4-1.4c-1.7,2.8-2.7,6-2.7,9.3h5.4C792.4,285.7,792.9,283,793.7,280.5z"/>
<path class="st4" d="M793.7,296.3c-0.8-2.5-1.2-5.2-1.2-7.8c0,0,0-0.1,0-0.1H787c0,3.3,0.9,6.5,2.7,9.3c0.2-0.1,0.4-0.2,0.6-0.3
	C791.4,297,792.5,296.6,793.7,296.3z"/>
<path class="st4" d="M794.7,278.1c1.3-3.1,3.7-5.5,6.7-6.9c-4.5,0.8-8.5,3.4-11.1,7.1c-0.2,0.3-0.4,0.6-0.6,0.9
	c1.3,0.6,2.6,1.1,4,1.4C794,279.7,794.3,278.9,794.7,278.1z"/>
<path class="st4" d="M812.7,387.2H786c-3.7,0-6.7-3.1-6.7-6.8c0-3.7,3-6.7,6.7-6.7v0c0-5.5,4.5-10,10-10c1.4,0,2.8,0.3,4.1,0.9
	c2.2-6,8.9-9.1,15-6.9c4.6,1.7,7.6,6.1,7.6,11c0,1-0.1,2.1-0.4,3.1c3.9,2.6,5,7.8,2.4,11.7c-1.6,2.3-4.2,3.8-7,3.8H816"/>
<path class="st4" d="M812.7,466H786c-3.7,0-6.7-3.1-6.7-6.8c0-3.7,3-6.7,6.7-6.7v0c0-5.5,4.5-10,10-10c1.4,0,2.8,0.3,4.1,0.9
	c2.2-6,8.9-9.1,15-6.9c4.6,1.7,7.6,6.1,7.6,11c0,1-0.1,2.1-0.4,3.1c3.9,2.6,5,7.8,2.4,11.7c-1.6,2.3-4.2,3.8-7,3.8H816"/>
<path class="st4" d="M394.7,214.9l-5.3,0c-1.1-0.1-2.2-0.7-2.6-1.8l-3.5-7.9c-0.5-1-1.5-1.7-2.6-1.8l-5.3,0"/>
<path class="st4" d="M384.1,211.4l-0.9,1.8c-0.5,1-1.5,1.7-2.7,1.8l-5.3,0"/>
<path class="st4" d="M394.8,203.5l-5.3,0c-1.1,0.1-2.2,0.7-2.7,1.8l-0.9,1.8"/>
<polyline class="st4" points="394.8,200.8 397.4,203.5 394.8,206.1 "/>
<polyline class="st4" points="394.9,212 397.4,214.5 394.9,216.9 "/>
<polyline class="st4" points="375.3,200.8 372.7,203.4 375.3,206.1 "/>
<polyline class="st4" points="375.3,212.2 372.6,214.9 375.3,217.5 "/>
<circle class="st5" cx="385" cy="209.1" r="17.8"/>
<path d="M358.7,235.6c1.1,0,2.2,0.5,2.8,1.4l-0.7,0.5c-0.5-0.6-1.3-1-2.1-1c-1.6,0.1-2.9,1.5-2.8,3.2c0.1,1.5,1.3,2.7,2.8,2.8
	c0.7,0,1.4-0.3,2-0.8v-1.5h-2.5v-0.8h3.4v2.7c-0.7,0.8-1.8,1.3-2.9,1.3c-2.1,0-3.8-1.7-3.8-3.8C355,237.3,356.6,235.7,358.7,235.6
	L358.7,235.6z"/>
<path d="M366.7,235.6c1.1,0,2.2,0.5,2.8,1.4l-0.7,0.5c-0.5-0.6-1.3-1-2.1-1c-1.6,0.1-2.9,1.5-2.8,3.2c0.1,1.5,1.3,2.7,2.8,2.8
	c0.7,0,1.4-0.3,2-0.8v-1.5h-2.5v-0.8h3.4v2.7c-0.7,0.8-1.8,1.3-2.9,1.3c-2.1,0-3.8-1.7-3.8-3.8C362.9,237.3,364.6,235.7,366.7,235.6
	L366.7,235.6z"/>
<path d="M371.2,241.4c0.6,0.7,1.4,1,2.3,1c1.3,0,1.7-0.7,1.7-1.3c0-0.9-0.9-1.1-1.9-1.4c-1.2-0.3-2.5-0.6-2.5-2.1c0-1.2,1.1-2,2.5-2
	c1,0,1.9,0.3,2.6,1l-0.5,0.7c-0.5-0.6-1.3-0.9-2.1-0.9c-0.9,0-1.5,0.5-1.5,1.2c0,0.7,0.8,1,1.8,1.2c1.2,0.3,2.6,0.7,2.6,2.2
	c0,1.1-0.7,2.2-2.7,2.2c-1.1,0-2.1-0.4-2.8-1.2L371.2,241.4z"/>
<path d="M378.6,237.2v5.9h-0.9v-7.3h0.9l4.2,5.8v-5.8h0.9v7.3h-0.9L378.6,237.2z"/>
<path d="M387.3,235.5h0.6l-2.6,7.8h-0.6L387.3,235.5z"/>
<path d="M389,235.8h2.9c1.2,0,2.3,0.9,2.3,2.1c0,1.2-0.9,2.3-2.1,2.3c-0.1,0-0.1,0-0.2,0h-2v2.9H389V235.8z M391.8,236.6h-1.9v2.8
	h1.9c0.8,0,1.4-0.6,1.5-1.3c0-0.8-0.6-1.4-1.3-1.5C391.9,236.6,391.8,236.6,391.8,236.6z"/>
<path d="M399,235.6c1.1,0,2.2,0.5,2.8,1.4l-0.7,0.5c-0.5-0.6-1.3-1-2.1-1c-1.6,0.1-2.9,1.5-2.8,3.2c0.1,1.5,1.3,2.7,2.8,2.8
	c0.7,0,1.4-0.3,2-0.8v-1.5h-2.5v-0.8h3.4v2.7c-0.7,0.8-1.8,1.3-2.9,1.3c-2.1,0-3.8-1.7-3.8-3.8C395.2,237.3,396.9,235.7,399,235.6
	L399,235.6z"/>
<path d="M407.4,237.2l-1.6,5.9h-1l-2.1-7.3h1l1.6,6.1l1.7-6.1h0.8l1.7,6.1l1.6-6.1h1l-2.1,7.3h-1L407.4,237.2z"/>
<path d="M415,235.5h0.6l-2.6,7.8h-0.6L415,235.5z"/>
<path d="M375.7,246.8h0.9v4.5c-0.1,1.1,0.8,2.1,2,2.2c1.1,0.1,2.1-0.8,2.2-2c0-0.1,0-0.1,0-0.2v-4.5h0.9v4.5c0,1.7-1.3,3-3,3
	c-1.6,0-3-1.3-3-3V246.8z"/>
<path d="M383.5,246.8h2.9c1.2,0,2.3,0.9,2.3,2.1c0,1.2-0.9,2.3-2.1,2.3c-0.1,0-0.1,0-0.2,0h-2v2.9h-0.9V246.8z M386.3,247.6h-1.9
	v2.8h1.9c0.8,0,1.4-0.6,1.5-1.3c0-0.8-0.6-1.4-1.3-1.5C386.4,247.6,386.4,247.6,386.3,247.6z"/>
<path d="M390,246.8h4.8v0.8H391v2.4h3.8v0.8H391v3.3H390V246.8z"/>
<path class="st8" d="M284.5,140h1.8c1.3-0.1,2.4,0.9,2.5,2.2c0.1,1.3-0.9,2.4-2.2,2.5c-0.1,0-0.2,0-0.3,0h-1.8V140z M286.4,143.8
	c0.8,0,1.4-0.6,1.5-1.3c0,0,0-0.1,0-0.1c0.1-0.8-0.5-1.4-1.3-1.5c-0.1,0-0.1,0-0.2,0h-0.8v2.9H286.4z"/>
<path class="st8" d="M290.1,145.2c0.2,0,0.4-0.1,0.5-0.2l0.1-0.3l-1.4-3.4h1l0.9,2.4l0.9-2.4h1l-1.6,3.9c-0.2,0.5-0.7,0.9-1.3,0.8
	c-0.1,0-0.3,0-0.4,0l0.1-0.8C289.9,145.2,290,145.2,290.1,145.2z"/>
<path class="st8" d="M295.9,142.6c0-0.3-0.2-0.6-0.5-0.6c-0.1,0-0.1,0-0.2,0c-0.3,0-0.6,0.2-0.8,0.4v2.3h-0.9v-3.4h0.9v0.4
	c0.3-0.3,0.7-0.5,1.2-0.5c0.5-0.1,1,0.3,1.1,0.9c0,0.1,0,0.1,0,0.2v2.4h-0.9V142.6z"/>
<path class="st8" d="M299.9,144.3c-0.3,0.3-0.7,0.5-1.1,0.4c-0.6,0-1.1-0.5-1.2-1.1c0,0,0,0,0,0c0-0.6,0.5-1.1,1.1-1.1
	c0,0,0.1,0,0.1,0c0.4,0,0.8,0.1,1.1,0.4v-0.5c0-0.3-0.3-0.6-0.7-0.6c-0.4,0-0.7,0.1-1,0.4l-0.3-0.6c0.4-0.4,0.9-0.5,1.5-0.5
	c0.8,0,1.5,0.3,1.5,1.3v2.2h-0.9V144.3z M299.9,143.4c-0.2-0.2-0.4-0.3-0.7-0.3c-0.4,0-0.6,0.2-0.6,0.5c0,0.3,0.3,0.5,0.6,0.5
	c0.3,0,0.5-0.1,0.7-0.3V143.4z"/>
<path class="st8" d="M306,142.5c0-0.3-0.1-0.5-0.5-0.5c-0.3,0-0.5,0.2-0.7,0.4v2.3h-0.9v-2.1c0-0.3-0.1-0.5-0.5-0.5
	c-0.3,0-0.5,0.2-0.7,0.4v2.3h-0.9v-3.4h0.9v0.4c0.3-0.3,0.7-0.5,1.1-0.5c0.4,0,0.8,0.2,0.9,0.6c0.3-0.4,0.7-0.6,1.2-0.6
	c0.5-0.1,0.9,0.3,1,0.8c0,0.1,0,0.2,0,0.2v2.4H306V142.5z"/>
<path class="st8" d="M307.8,140.2c0-0.3,0.2-0.5,0.5-0.5c0.3,0,0.5,0.2,0.5,0.5c0,0.3-0.2,0.5-0.5,0.5
	C308.1,140.7,307.8,140.5,307.8,140.2z M307.9,141.2h0.9v3.4h-0.9V141.2z"/>
<path class="st8" d="M311.4,141.2c0.5,0,1,0.2,1.3,0.6l-0.6,0.5c-0.2-0.2-0.4-0.4-0.7-0.4c-0.5,0-1,0.5-0.9,1.1
	c0,0.5,0.4,0.9,0.9,0.9c0.3,0,0.6-0.1,0.7-0.4l0.6,0.5c-0.3,0.4-0.8,0.6-1.3,0.6c-1,0-1.8-0.8-1.8-1.8
	C309.6,142,310.4,141.2,311.4,141.2C311.4,141.2,311.4,141.2,311.4,141.2L311.4,141.2z"/>
<path class="st8" d="M269.4,150.2c0.4,0.4,0.9,0.6,1.5,0.6c0.5,0,0.8-0.3,0.8-0.5c0-0.4-0.4-0.5-0.9-0.6c-0.8-0.2-1.7-0.4-1.7-1.4
	c0-0.8,0.7-1.4,1.8-1.4c0.7,0,1.3,0.2,1.8,0.7l-0.6,0.7c-0.4-0.3-0.8-0.5-1.3-0.5c-0.4,0-0.7,0.2-0.7,0.5c0,0.3,0.4,0.4,0.9,0.5
	c0.8,0.2,1.8,0.4,1.8,1.4c0,0.9-0.6,1.5-1.9,1.5c-0.7,0-1.5-0.2-2-0.7L269.4,150.2z"/>
<path class="st8" d="M273.6,152.9v-4.7h0.9v0.4c0.2-0.3,0.6-0.5,1-0.5c0.9,0,1.5,0.6,1.5,1.8c0,1.1-0.6,1.8-1.5,1.8
	c-0.4,0-0.8-0.2-1-0.5v1.7H273.6z M275.2,149c-0.3,0-0.6,0.1-0.8,0.4v1.2c0.2,0.2,0.5,0.4,0.8,0.4c0.5-0.1,0.9-0.6,0.8-1.1
	C276,149.4,275.6,149,275.2,149z"/>
<path class="st8" d="M279.4,148.2c0.9,0,1.7,0.8,1.7,1.7c0,0.1,0,0.1,0,0.2v0.2h-2.5c0.1,0.5,0.5,0.8,1,0.8c0.3,0,0.7-0.1,0.9-0.3
	l0.4,0.6c-0.4,0.3-0.9,0.5-1.4,0.5c-1,0-1.8-0.8-1.8-1.7C277.6,149,278.4,148.2,279.4,148.2L279.4,148.2L279.4,148.2z M278.6,149.6
	h1.7c0-0.4-0.4-0.8-0.8-0.7c0,0,0,0,0,0C279,148.9,278.6,149.2,278.6,149.6L278.6,149.6z"/>
<path class="st8" d="M283.5,148.2c0.5,0,1,0.2,1.3,0.6l-0.6,0.5c-0.2-0.2-0.4-0.4-0.7-0.4c-0.5,0-1,0.5-0.9,1.1
	c0,0.5,0.4,0.9,0.9,0.9c0.3,0,0.6-0.1,0.7-0.4l0.6,0.5c-0.3,0.4-0.8,0.6-1.3,0.6c-1,0-1.8-0.8-1.8-1.8
	C281.7,149,282.5,148.2,283.5,148.2C283.5,148.2,283.5,148.2,283.5,148.2L283.5,148.2z"/>
<path class="st8" d="M285.9,150.8V149h-0.6v-0.8h0.6v-0.9h0.9v0.9h0.7v0.8h-0.7v1.5c0,0.2,0.1,0.4,0.3,0.4c0.1,0,0.2,0,0.3-0.1
	l0.2,0.7c-0.2,0.2-0.5,0.2-0.7,0.2c-0.5,0.1-0.9-0.3-1-0.7C285.9,150.9,285.9,150.9,285.9,150.8z"/>
<path class="st8" d="M288.4,148.2h0.9v0.5c0.3-0.3,0.7-0.5,1.1-0.5v0.9c-0.1,0-0.2,0-0.2,0c-0.3,0-0.6,0.1-0.8,0.4v2.2h-0.9V148.2z"
	/>
<path class="st8" d="M293.3,151.2c-0.3,0.3-0.7,0.5-1.2,0.5c-0.5,0.1-1-0.3-1.1-0.8c0-0.1,0-0.2,0-0.2v-2.4h0.9v2.1
	c0,0.3,0.2,0.6,0.5,0.6c0.1,0,0.1,0,0.2,0c0.3,0,0.6-0.1,0.8-0.4v-2.3h0.9v3.4h-0.9V151.2z"/>
<path class="st8" d="M299.4,149.5c0-0.3-0.1-0.5-0.5-0.5c-0.3,0-0.5,0.2-0.7,0.4v2.3h-0.9v-2.1c0-0.3-0.1-0.5-0.5-0.5
	c-0.3,0-0.5,0.2-0.7,0.4v2.3h-0.9v-3.4h0.9v0.4c0.3-0.3,0.7-0.5,1.1-0.5c0.4,0,0.8,0.2,0.9,0.6c0.3-0.4,0.7-0.6,1.2-0.6
	c0.5-0.1,0.9,0.3,1,0.8c0,0.1,0,0.2,0,0.2v2.4h-0.9V149.5z"/>
<path class="st8" d="M303.4,150.2c0.4,0.4,0.9,0.6,1.5,0.6c0.5,0,0.8-0.3,0.8-0.5c0-0.4-0.4-0.5-0.9-0.6c-0.8-0.2-1.7-0.4-1.7-1.4
	c0-0.8,0.7-1.4,1.8-1.4c0.7,0,1.3,0.2,1.8,0.7l-0.6,0.7c-0.4-0.3-0.8-0.5-1.3-0.5c-0.4,0-0.7,0.2-0.7,0.5c0,0.3,0.4,0.4,0.9,0.5
	c0.8,0.2,1.8,0.4,1.8,1.4c0,0.9-0.6,1.5-1.9,1.5c-0.7,0-1.5-0.2-2-0.7L303.4,150.2z"/>
<path class="st8" d="M309.9,149.6c0-0.5-0.2-0.6-0.6-0.6c-0.3,0-0.6,0.2-0.8,0.4v2.3h-0.9V147h0.9v1.7c0.3-0.3,0.7-0.5,1.2-0.5
	c0.5-0.1,1,0.3,1.1,0.8c0,0.1,0,0.2,0,0.2v2.4h-0.9V149.6z"/>
<path class="st8" d="M313.8,151.3c-0.3,0.3-0.7,0.5-1.1,0.4c-0.6,0-1.1-0.5-1.2-1.1c0,0,0,0,0,0c0-0.6,0.5-1.1,1.1-1.1
	c0,0,0.1,0,0.1,0c0.4,0,0.8,0.1,1.1,0.4v-0.5c0-0.3-0.3-0.6-0.7-0.6c-0.4,0-0.7,0.1-1,0.4l-0.3-0.6c0.4-0.4,0.9-0.5,1.5-0.5
	c0.8,0,1.5,0.3,1.5,1.3v2.2h-0.9L313.8,151.3z M313.8,150.4c-0.2-0.2-0.4-0.3-0.7-0.3c-0.4,0-0.6,0.2-0.6,0.5c0,0.3,0.3,0.5,0.6,0.5
	c0.3,0,0.5-0.1,0.7-0.3V150.4z"/>
<path class="st8" d="M315.8,148.2h0.9v0.5c0.3-0.3,0.7-0.5,1.1-0.5v0.9c-0.1,0-0.2,0-0.2,0c-0.3,0-0.6,0.1-0.8,0.4v2.2h-0.9V148.2z"
	/>
<path class="st8" d="M318.3,147.2c0-0.3,0.2-0.5,0.5-0.5c0.3,0,0.5,0.2,0.5,0.5c0,0.3-0.2,0.5-0.5,0.5
	C318.6,147.7,318.3,147.5,318.3,147.2z M318.4,148.2h0.9v3.4h-0.9V148.2z"/>
<path class="st8" d="M322.7,149.6c0-0.3-0.2-0.6-0.5-0.6c-0.1,0-0.1,0-0.2,0c-0.3,0-0.6,0.2-0.8,0.4v2.3h-0.9v-3.4h0.9v0.4
	c0.3-0.3,0.7-0.5,1.2-0.5c0.5-0.1,1,0.3,1.1,0.9c0,0.1,0,0.1,0,0.2v2.4h-0.9V149.6z"/>
<path class="st8" d="M325,151.9c0.3,0.3,0.7,0.4,1.1,0.4c0.5,0.1,0.9-0.3,0.9-0.7c0,0,0-0.1,0-0.1v-0.3c-0.2,0.3-0.6,0.5-1,0.5
	c-0.8,0-1.5-0.6-1.5-1.7c-0.1-0.8,0.5-1.6,1.3-1.7c0.1,0,0.1,0,0.2,0c0.4,0,0.8,0.2,1,0.5v-0.4h0.9v3.2c0,1.3-1,1.6-1.8,1.6
	c-0.5,0-1.1-0.2-1.5-0.5L325,151.9z M326.9,149.3c-0.2-0.2-0.5-0.4-0.8-0.4c-0.5,0-0.9,0.5-0.9,1c0,0.5,0.4,0.8,0.9,0.9
	c0.3,0,0.6-0.1,0.8-0.4V149.3z"/>
<line class="st9" x1="276.9" y1="157.2" x2="318.5" y2="157.2"/>
<line class="st9" x1="297.7" y1="162.9" x2="297.7" y2="157.2"/>
<path class="st8" d="M648.2,426.8h1.8c1.3-0.1,2.4,0.9,2.5,2.2s-0.9,2.4-2.2,2.5c-0.1,0-0.2,0-0.3,0h-1.8V426.8z M650,430.6
	c0.8,0,1.4-0.6,1.5-1.3c0,0,0-0.1,0-0.1c0.1-0.8-0.5-1.4-1.3-1.5c-0.1,0-0.1,0-0.2,0h-0.8v2.9H650z"/>
<path class="st8" d="M655,428c0.9,0,1.7,0.8,1.7,1.7c0,0.1,0,0.1,0,0.2v0.2h-2.5c0.1,0.5,0.5,0.8,1,0.8c0.3,0,0.7-0.1,0.9-0.3
	l0.4,0.6c-0.4,0.3-0.9,0.5-1.4,0.5c-1,0-1.8-0.8-1.8-1.7C653.2,428.9,654,428,655,428C654.9,428,654.9,428,655,428z M654.1,429.5
	h1.7c0-0.4-0.4-0.8-0.8-0.7c0,0,0,0,0,0C654.5,428.7,654.2,429.1,654.1,429.5z"/>
<path class="st8" d="M657.6,430.4c0.3,0.3,0.7,0.4,1.2,0.5c0.4,0,0.6-0.1,0.6-0.3c0-0.2-0.3-0.3-0.7-0.4c-0.6-0.1-1.3-0.3-1.3-1.1
	c0-0.6,0.5-1.1,1.4-1.1c0.5,0,1,0.2,1.4,0.5l-0.3,0.6c-0.3-0.3-0.6-0.4-1-0.4c-0.3,0-0.5,0.1-0.5,0.3c0,0.2,0.3,0.3,0.6,0.4
	c0.6,0.1,1.4,0.3,1.4,1.1c0,0.6-0.5,1.1-1.5,1.1c-0.6,0-1.1-0.2-1.5-0.5L657.6,430.4z"/>
<path class="st8" d="M661.2,430.7v-1.8h-0.6v-0.8h0.6v-0.9h0.9v0.9h0.7v0.8h-0.7v1.5c0,0.2,0.1,0.4,0.3,0.4c0.1,0,0.2,0,0.3-0.1
	l0.2,0.7c-0.2,0.2-0.5,0.2-0.7,0.2c-0.5,0.1-0.9-0.3-1-0.7C661.2,430.8,661.2,430.7,661.2,430.7z"/>
<path class="st8" d="M663.5,427.1c0-0.3,0.2-0.5,0.5-0.5c0.3,0,0.5,0.2,0.5,0.5c0,0.3-0.2,0.5-0.5,0.5
	C663.8,427.6,663.5,427.4,663.5,427.1z M663.6,428.1h0.9v3.4h-0.9V428.1z"/>
<path class="st8" d="M667.9,429.5c0-0.3-0.2-0.6-0.5-0.6c-0.1,0-0.1,0-0.2,0c-0.3,0-0.6,0.2-0.8,0.4v2.3h-0.9v-3.4h0.9v0.4
	c0.3-0.3,0.7-0.5,1.2-0.5c0.5-0.1,1,0.3,1.1,0.9c0,0.1,0,0.1,0,0.2v2.4h-0.9V429.5z"/>
<path class="st8" d="M671.8,431.1c-0.3,0.3-0.7,0.5-1.1,0.4c-0.6,0-1.1-0.5-1.2-1.1c0,0,0,0,0,0c0-0.6,0.5-1.1,1.1-1.1
	c0,0,0.1,0,0.1,0c0.4,0,0.8,0.1,1.1,0.4v-0.5c0-0.3-0.3-0.6-0.7-0.6c-0.4,0-0.7,0.1-1,0.4l-0.3-0.6c0.4-0.4,0.9-0.5,1.5-0.5
	c0.8,0,1.5,0.3,1.5,1.3v2.2h-0.9V431.1z M671.8,430.3c-0.2-0.2-0.4-0.3-0.7-0.3c-0.3,0-0.6,0.2-0.6,0.5c0,0.3,0.3,0.5,0.6,0.5
	c0.3,0,0.5-0.1,0.7-0.3V430.3z"/>
<path class="st8" d="M673.9,430.7v-1.8h-0.6v-0.8h0.6v-0.9h0.9v0.9h0.7v0.8h-0.7v1.5c0,0.2,0.1,0.4,0.3,0.4c0.1,0,0.2,0,0.3-0.1
	l0.2,0.7c-0.2,0.2-0.5,0.2-0.7,0.2c-0.5,0.1-0.9-0.3-1-0.7C673.9,430.8,673.9,430.7,673.9,430.7z"/>
<path class="st8" d="M676.3,427.1c0-0.3,0.2-0.5,0.5-0.5c0.3,0,0.5,0.2,0.5,0.5c0,0.3-0.2,0.5-0.5,0.5
	C676.5,427.6,676.3,427.4,676.3,427.1z M676.4,428.1h0.9v3.4h-0.9V428.1z"/>
<path class="st8" d="M678.1,429.8c0-1,0.8-1.8,1.8-1.8s1.8,0.8,1.8,1.8s-0.8,1.8-1.8,1.8c0,0,0,0,0,0c-0.9,0-1.7-0.7-1.8-1.6
	C678.1,429.9,678.1,429.8,678.1,429.8z M680.7,429.8c-0.1-0.5-0.5-0.8-1-0.8c-0.5,0.1-0.8,0.5-0.8,1c0.1,0.4,0.4,0.8,0.9,0.8
	C680.4,430.8,680.7,430.4,680.7,429.8C680.7,429.8,680.7,429.8,680.7,429.8L680.7,429.8z"/>
<path class="st8" d="M684.8,429.5c0-0.3-0.2-0.6-0.5-0.6c-0.1,0-0.1,0-0.2,0c-0.3,0-0.6,0.2-0.8,0.4v2.3h-0.9v-3.4h0.9v0.4
	c0.3-0.3,0.7-0.5,1.2-0.5c0.5-0.1,1,0.3,1.1,0.9c0,0.1,0,0.1,0,0.2v2.4h-0.9V429.5z"/>
<path class="st8" d="M686.6,429.4h1.7v0.8h-1.7V429.4z"/>
<path class="st8" d="M691.2,431.1c-0.3,0.3-0.7,0.5-1.1,0.4c-0.6,0-1.1-0.5-1.2-1.1c0,0,0,0,0,0c0-0.6,0.5-1.1,1.1-1.1
	c0,0,0.1,0,0.1,0c0.4,0,0.8,0.1,1.1,0.4v-0.5c0-0.3-0.3-0.6-0.7-0.6c-0.4,0-0.7,0.1-1,0.4l-0.3-0.6c0.4-0.4,0.9-0.5,1.5-0.5
	c0.8,0,1.5,0.3,1.5,1.3v2.2h-0.9L691.2,431.1z M691.2,430.3c-0.2-0.2-0.4-0.3-0.7-0.3c-0.4,0-0.6,0.2-0.6,0.5c0,0.3,0.3,0.5,0.6,0.5
	c0.3,0,0.5-0.1,0.7-0.3V430.3z"/>
<path class="st8" d="M695.4,429.2l-0.7,2.3h-1l-1-3.4h0.9l0.6,2.3l0.7-2.3h0.8l0.7,2.3l0.6-2.3h0.9l-1,3.4h-0.9L695.4,429.2z"/>
<path class="st8" d="M700.7,431.1c-0.3,0.3-0.7,0.5-1.1,0.4c-0.6,0-1.1-0.5-1.2-1.1c0,0,0,0,0,0c0-0.6,0.5-1.1,1.1-1.1
	c0,0,0.1,0,0.1,0c0.4,0,0.8,0.1,1.1,0.4v-0.5c0-0.3-0.3-0.6-0.7-0.6c-0.4,0-0.7,0.1-1,0.4l-0.3-0.6c0.4-0.4,0.9-0.5,1.5-0.5
	c0.8,0,1.5,0.3,1.5,1.3v2.2h-0.9V431.1z M700.7,430.3c-0.2-0.2-0.4-0.3-0.7-0.3c-0.4,0-0.6,0.2-0.6,0.5c0,0.3,0.3,0.5,0.6,0.5
	c0.3,0,0.5-0.1,0.7-0.3V430.3z"/>
<path class="st8" d="M702.7,428.1h0.9v0.5c0.3-0.3,0.7-0.5,1.1-0.5v0.9c-0.1,0-0.2,0-0.2,0c-0.3,0-0.6,0.1-0.8,0.4v2.2h-0.9V428.1z"
	/>
<path class="st8" d="M706.9,428c0.9,0,1.7,0.8,1.7,1.7c0,0.1,0,0.1,0,0.2v0.2h-2.5c0.1,0.5,0.5,0.8,1,0.8c0.3,0,0.7-0.1,0.9-0.3
	l0.4,0.6c-0.4,0.3-0.9,0.5-1.4,0.5c-1,0-1.8-0.8-1.8-1.7C705.1,428.9,705.9,428,706.9,428C706.9,428,706.9,428,706.9,428z
	 M706.1,429.5h1.7c0-0.4-0.4-0.8-0.8-0.7c0,0,0,0,0,0C706.5,428.7,706.1,429.1,706.1,429.5L706.1,429.5z"/>
<path class="st8" d="M666.4,436.2c0-1.3,1-2.4,2.3-2.4c0,0,0.1,0,0.1,0c0.8,0,1.6,0.4,2,1.1l-0.9,0.4c-0.2-0.4-0.7-0.7-1.1-0.7
	c-0.8,0.1-1.5,0.8-1.4,1.6c0.1,0.8,0.7,1.4,1.4,1.4c0.5,0,0.9-0.3,1.1-0.7l0.9,0.4c-0.4,0.7-1.2,1.2-2,1.1c-1.3,0-2.4-1-2.5-2.3
	C666.4,436.3,666.4,436.2,666.4,436.2z"/>
<path class="st8" d="M673.8,433.7c0.8,0,1.5,0.4,1.9,1l-0.8,0.4c-0.2-0.4-0.7-0.6-1.1-0.6c-0.8,0-1.5,0.8-1.5,1.6
	c0,0.8,0.7,1.4,1.5,1.5c0.4,0,0.7-0.1,1-0.4v-0.6h-1.2v-0.9h2.2v1.8c-0.5,0.6-1.2,0.9-2,0.9c-1.3,0-2.4-1-2.5-2.4
	c0-1.3,1-2.4,2.4-2.5C673.8,433.7,673.8,433.7,673.8,433.7z"/>
<path class="st8" d="M677.9,435.4v3.1h-1v-4.7h1l2.2,3v-3h1v4.7h-1L677.9,435.4z"/>
<path class="st8" d="M685.2,437.7h-2.1l-0.3,0.8h-1.1l1.8-4.7h1.2l1.8,4.7h-1.1L685.2,437.7z M683.4,436.8h1.5l-0.8-2.1L683.4,436.8
	z"/>
<path class="st8" d="M687.8,434.7h-1.4v-0.9h3.7v0.9h-1.4v3.8h-1V434.7z"/>
<line class="st9" x1="698.3" y1="421.3" x2="656.7" y2="421.3"/>
<line class="st9" x1="677.5" y1="415.6" x2="677.5" y2="421.3"/>
<g id="laptop-2">
	<line class="st4" x1="153.5" y1="354.2" x2="159.5" y2="354.2"/>
	<path class="st4" d="M179,354.2c0,1-0.6,1.9-1.5,2.3l-41.8,0l-0.2,0c-0.9-0.4-1.5-1.3-1.5-2.3c0-1,0.6-1.8,1.5-2.2h42v-24h-42v21"
		/>
</g>
<g id="mobile-phone-2">
	<ellipse cx="98.8" cy="338.1" rx="0.5" ry="0.5"/>
	<path d="M98.8,337.1c-0.5,0-1,0.4-1,1c0,0.5,0.4,1,1,1c0.5,0,1-0.4,1-1C99.8,337.6,99.3,337.1,98.8,337.1z"/>
	<line class="st4" x1="104" y1="370.3" x2="109.2" y2="370.3"/>
	<path class="st4" d="M117.1,367.1v3.9c0,0.7-0.6,1.3-1.3,1.3H97.5c-0.7,0-1.3-0.6-1.3-1.3v-33.4c0-0.7,0.6-1.3,1.3-1.3h18.2
		c0.7,0,1.3,0.6,1.3,1.3v0.7"/>
	<path class="st4" d="M97.5,340.1h18.3c0.7,0,1.3,0.6,1.3,1.3v25.7c0,0.7-0.6,1.3-1.3,1.3H97.5c-0.7,0-1.3-0.6-1.3-1.3v-25.7
		C96.2,340.6,96.8,340.1,97.5,340.1z"/>
</g>
<g id="monitor-2">
	<polyline class="st4" points="169.3,402.3 169.3,403.9 124.3,403.9 124.3,399.1 169.3,399.1 169.3,373.3 124.3,373.3 124.3,395.8 	
		"/>
	<line class="st4" x1="146.8" y1="404" x2="146.8" y2="407.1"/>
	<line class="st4" x1="137.2" y1="407.1" x2="156.5" y2="407.1"/>
	<circle cx="146.8" cy="401.5" r="1"/>
</g>
<polygon class="st7" points="190.4,330.3 190.4,418.8 84.8,418.8 84.8,301 190.4,301 190.4,317 "/>
<rect x="91.3" y="292.1" width="92.6" height="18"/>
<path class="st0" d="M97.6,297.5h1.5v7.1h-1.5V297.5z"/>
<path class="st0" d="M104.6,299.4v0.9c0,1.1-0.9,2-1.9,2c-0.1,0-0.1,0-0.2,0h-0.8v2.3h-1.5v-7.1h2.4c1.1-0.1,2,0.7,2.1,1.8
	C104.6,299.3,104.6,299.4,104.6,299.4z M103,299.3c0-0.2-0.2-0.5-0.4-0.5c0,0,0,0-0.1,0h-0.9v2h0.9c0.2,0,0.5-0.2,0.5-0.4
	c0,0,0,0,0-0.1L103,299.3z"/>
<path class="st0" d="M109.5,299.5l-1.2,5.1h-1.9l-1.2-5.1h1.5l0.6,3.4l0.5-3.4H109.5z"/>
<path class="st0" d="M114.1,300v4.6h-1.5v-1.5h-2.7v-1.4l1.2-4.2h1.6l-1.2,4.2h1V300H114.1z"/>
<path class="st0" d="M122.3,301.6h-0.6v1.1c0,1-0.8,1.8-1.8,1.9c0,0,0,0-0.1,0H119c-1,0-1.8-0.8-1.9-1.8c0,0,0,0,0-0.1v-0.6
	c0-0.4,0.1-0.8,0.4-1.2c-0.3-0.3-0.4-0.7-0.4-1.1v-0.5c0-1,0.8-1.8,1.8-1.8c0,0,0,0,0.1,0h1.5v1.3H119c-0.2,0-0.3,0.2-0.3,0.4v0.7
	c0,0.2,0.1,0.4,0.3,0.4h1.1v-0.8h1.5v0.8h0.6V301.6z M120.1,301.6H119c-0.2,0-0.3,0.2-0.3,0.4v0.8c0,0.2,0.1,0.4,0.3,0.4h0.8
	c0.2,0,0.3-0.2,0.3-0.4V301.6z"/>
<path class="st0" d="M125,297.5h1.5v7.1H125V297.5z"/>
<path class="st0" d="M132,299.4v0.9c0,1.1-0.9,2-1.9,2c-0.1,0-0.1,0-0.2,0H129v2.3h-1.5v-7.1h2.4c1.1-0.1,2,0.7,2.1,1.8
	C132,299.3,132,299.4,132,299.4z M130.4,299.3c0-0.2-0.2-0.5-0.4-0.5c0,0,0,0-0.1,0H129v2h0.9c0.2,0,0.5-0.2,0.5-0.4c0,0,0,0,0-0.1
	L130.4,299.3z"/>
<path class="st0" d="M136.9,299.5l-1.2,5.1h-1.9l-1.2-5.1h1.5l0.6,3.4l0.5-3.4H136.9z"/>
<path class="st0" d="M141.9,301.9v0.9c0,1.1-0.9,2-2,2c0,0-0.1,0-0.1,0c-1.1,0.1-2.1-0.7-2.2-1.9c0,0,0-0.1,0-0.1v-3.4
	c0.1-1.2,1.1-2.1,2.3-2c1.1,0.1,1.9,0.9,2,2h-1.5c0-0.3-0.2-0.6-0.5-0.7c0,0-0.1,0-0.1,0c-0.3,0-0.6,0.2-0.6,0.5c0,0,0,0.1,0,0.1
	v0.9c0.3-0.1,0.6-0.2,0.9-0.2c1-0.1,1.8,0.7,1.9,1.6C141.9,301.7,141.9,301.8,141.9,301.9z M140.3,301.7c0-0.3-0.2-0.5-0.6-0.5
	c-0.4,0-0.6,0.2-0.6,0.5v1.1c0,0.3,0.2,0.5,0.6,0.5c0.4,0,0.6-0.2,0.6-0.5V301.7z"/>
<path class="st0" d="M149.5,299.5v3.1c0,1.1-0.9,2-2.1,2c-0.1,0-0.1,0-0.2,0h-2.3v-7.1h2.3c1.1-0.1,2.1,0.7,2.3,1.8
	C149.5,299.4,149.5,299.4,149.5,299.5z M147.9,299.5c0-0.3-0.2-0.6-0.5-0.6c0,0-0.1,0-0.1,0h-0.8v4.3h0.8c0.3,0,0.6-0.2,0.6-0.5
	c0,0,0-0.1,0-0.1V299.5z"/>
<path class="st0" d="M152,298.9v1.5h1.7v1.4H152v1.3h2.1v1.4h-3.7v-7.1h3.7v1.4H152z"/>
<path class="st0" d="M159.8,297.5l-1.5,7.1h-2l-1.5-7.1h1.5l1,4.9l1-4.9H159.8z"/>
<path class="st0" d="M160.6,297.5h1.5v7.1h-1.5V297.5z"/>
<path class="st0" d="M163,302.7v-3.4c0.2-1.3,1.4-2.2,2.7-2c1,0.2,1.8,1,2,2v0.9h-1.6v-0.9c0-0.4-0.3-0.6-0.8-0.6
	c-0.5,0-0.8,0.2-0.8,0.6v3.4c0,0.4,0.3,0.6,0.8,0.6c0.5,0,0.8-0.2,0.8-0.6v-0.9h1.6v0.9c-0.2,1.3-1.4,2.2-2.7,2
	C164,304.5,163.2,303.7,163,302.7z"/>
<path class="st0" d="M170.2,298.9v1.5h1.7v1.4h-1.7v1.3h2.1v1.4h-3.7v-7.1h3.7v1.4H170.2z"/>
<path class="st0" d="M173.1,302.5v-0.3h1.5v0.4c0,0.4,0.3,0.7,0.7,0.7c0,0,0.1,0,0.1,0c0.4,0,0.7-0.3,0.7-0.6c0,0,0,0,0-0.1
	c0-1.3-3-1-3-3.3c-0.1-1.1,0.8-2,1.9-2.1c0.1,0,0.2,0,0.3,0c1.1-0.1,2,0.6,2.2,1.7c0,0.1,0,0.2,0,0.3v0.4h-1.5v-0.5
	c0-0.3-0.3-0.5-0.7-0.5c-0.3,0-0.6,0.2-0.6,0.5c0,0,0,0.1,0,0.1c0,1,3,0.8,3,3.2c0.1,1.2-0.8,2.1-2,2.2c-0.1,0-0.2,0-0.3,0
	c-1.2,0.1-2.2-0.8-2.3-1.9C173.1,302.7,173.1,302.6,173.1,302.5z"/>
<circle class="st5" cx="740.6" cy="248" r="19.5"/>
<line class="st4" x1="756" y1="248" x2="742.6" y2="248"/>
<polyline class="st4" points="748.1,253.5 742.5,248 748.1,242.4 "/>
<line class="st4" x1="725.3" y1="248" x2="738.7" y2="248"/>
<polyline class="st4" points="733.2,253.5 738.8,248 733.2,242.4 "/>
<line class="st4" x1="740.6" y1="250.2" x2="740.6" y2="263.6"/>
<polyline class="st4" points="746.2,258.1 740.6,263.7 735.1,258.1 "/>
<line class="st4" x1="740.6" y1="245.7" x2="740.6" y2="232.3"/>
<polyline class="st4" points="746.2,237.8 740.6,232.2 735.1,237.8 "/>
<path d="M794.7,396.5h0.9v7.3h-0.9V396.5z"/>
<path d="M797.4,396.5h2.9c1.2,0,2.2,0.9,2.3,2.1c0,1.2-0.9,2.2-2.1,2.3c-0.1,0-0.1,0-0.2,0h-2v2.9h-0.9V396.5z M800.2,397.3h-1.9
	v2.8h1.9c0.8,0,1.4-0.6,1.5-1.3s-0.6-1.4-1.3-1.5C800.3,397.3,800.3,397.3,800.2,397.3z"/>
<path d="M803.1,398.5h0.9l1.8,4.4l1.8-4.4h0.9l-2.2,5.3h-0.9L803.1,398.5z"/>
<path d="M812.4,402H809v-0.8l3.1-4.7h1.3v4.7h1v0.8h-1v1.9h-0.9V402z M809.9,401.2h2.6v-3.8L809.9,401.2z"/>
<path d="M779.5,413.2h-3.7l-0.6,1.6h-1l2.9-7.3h1.1l3,7.3h-1L779.5,413.2z M776.1,412.4h3.2l-1.6-4.1L776.1,412.4z"/>
<path d="M782.2,416.8v-7.3h0.8v0.8c0.4-0.6,1.1-0.9,1.8-0.9c1.4,0,2.4,1.1,2.4,2.8c0,1.7-1,2.8-2.4,2.8c-0.7,0-1.4-0.3-1.8-0.9v2.8
	H782.2z M784.6,410.1c-0.6,0-1.2,0.3-1.6,0.8v2.4c0.4,0.5,0.9,0.8,1.6,0.9c1.1,0,1.7-0.9,1.7-2.1C786.3,411,785.7,410.1,784.6,410.1
	z"/>
<path d="M788.6,416.8v-7.3h0.8v0.8c0.4-0.6,1.1-0.9,1.8-0.9c1.4,0,2.4,1.1,2.4,2.8c0,1.7-1,2.8-2.4,2.8c-0.7,0-1.4-0.3-1.8-0.9v2.8
	H788.6z M791,410.1c-0.6,0-1.2,0.3-1.6,0.8v2.4c0.4,0.5,0.9,0.8,1.6,0.9c1.1,0,1.7-0.9,1.7-2.1C792.8,411,792.1,410.1,791,410.1
	L791,410.1z"/>
<path d="M795.1,407.5h0.8v7.3h-0.8V407.5z"/>
<path d="M797.5,408.1c0-0.3,0.3-0.6,0.6-0.6c0.3,0,0.5,0.2,0.6,0.6c0,0.3-0.2,0.6-0.6,0.6S797.5,408.4,797.5,408.1
	C797.5,408.1,797.5,408.1,797.5,408.1z M797.6,409.5h0.8v5.3h-0.8V409.5z"/>
<path d="M802.6,409.4c0.8,0,1.5,0.3,1.9,0.9l-0.6,0.5c-0.3-0.4-0.8-0.7-1.4-0.7c-1.1,0.1-1.9,1.1-1.8,2.3c0.1,1,0.9,1.7,1.8,1.8
	c0.5,0,1-0.2,1.4-0.7l0.6,0.5c-0.5,0.6-1.2,1-1.9,0.9c-1.5-0.1-2.7-1.4-2.6-2.9C800,410.6,801.1,409.4,802.6,409.4z"/>
<path d="M809.1,414.2c-0.5,0.5-1.1,0.8-1.8,0.7c-1,0-1.8-0.7-1.9-1.7c0,0,0-0.1,0-0.1c0-1,0.8-1.7,1.7-1.8c0,0,0.1,0,0.1,0
	c0.7,0,1.3,0.2,1.8,0.7v-1c0-0.7-0.6-1.1-1.3-1.1c-0.6,0-1.2,0.3-1.6,0.7l-0.4-0.6c0.5-0.6,1.3-0.9,2.1-0.9c1.1,0,2.1,0.5,2.1,1.8
	v3.7h-0.8L809.1,414.2z M809.1,412.7c-0.4-0.4-0.9-0.7-1.5-0.7c-0.6-0.1-1.2,0.4-1.3,1c-0.1,0.6,0.4,1.2,1,1.3c0.1,0,0.2,0,0.3,0
	c0.6,0,1.1-0.2,1.5-0.7V412.7z"/>
<path d="M811.9,413.7v-3.5H811v-0.7h0.9v-1.5h0.8v1.5h1.1v0.7h-1.1v3.3c0,0.4,0.2,0.7,0.5,0.7c0.2,0,0.4-0.1,0.6-0.2l0.2,0.6
	c-0.3,0.2-0.6,0.4-1,0.3c-0.6,0.1-1.1-0.4-1.2-1C811.8,413.9,811.8,413.8,811.9,413.7z"/>
<path d="M814.9,408.1c0-0.3,0.3-0.6,0.6-0.6c0.3,0,0.5,0.2,0.6,0.6c0,0.3-0.2,0.6-0.6,0.6S814.9,408.4,814.9,408.1
	C814.9,408.1,814.9,408.1,814.9,408.1z M815,409.5h0.8v5.3H815V409.5z"/>
<path d="M817.3,412.2c0.1-1.5,1.3-2.6,2.8-2.5c1.5,0.1,2.6,1.3,2.5,2.8c-0.1,1.4-1.2,2.5-2.6,2.5c-1.4,0-2.6-1.1-2.6-2.6
	C817.3,412.3,817.3,412.2,817.3,412.2z M821.7,412.2c-0.1-1-1.1-1.6-2-1.5c-1,0.1-1.6,1.1-1.5,2c0.1,0.9,0.9,1.5,1.8,1.5
	c1,0,1.8-0.9,1.8-1.9C821.7,412.2,821.7,412.2,821.7,412.2z"/>
<path d="M827.6,411.3c0-0.9-0.5-1.2-1.2-1.2c-0.6,0-1.2,0.3-1.6,0.8v3.9H824v-5.3h0.8v0.8c0.5-0.5,1.2-0.9,1.9-0.9
	c0.8-0.1,1.6,0.5,1.7,1.3c0,0.1,0,0.3,0,0.4v3.7h-0.8L827.6,411.3z"/>
<path d="M830.2,413.5c0.5,0.5,1.1,0.8,1.7,0.8c0.8,0,1.3-0.4,1.3-0.9c0-0.6-0.6-0.8-1.4-0.9c-0.9-0.2-1.9-0.5-1.9-1.6
	c0-0.8,0.7-1.5,2-1.5c0.7,0,1.4,0.3,2,0.8l-0.4,0.6c-0.4-0.4-1-0.7-1.6-0.7c-0.7,0-1.2,0.3-1.2,0.8c0,0.5,0.6,0.7,1.3,0.8
	c0.9,0.2,2,0.5,2,1.6c0,0.9-0.7,1.6-2.1,1.6c-0.8,0-1.6-0.3-2.1-0.8L830.2,413.5z"/>
<path d="M794.5,475.4h0.9v7.3h-0.9V475.4z"/>
<path d="M797.2,475.4h2.9c1.2,0,2.2,0.9,2.3,2.1c0,1.2-0.9,2.2-2.1,2.3c-0.1,0-0.1,0-0.2,0h-2v2.9h-0.9V475.4z M800,476.2h-1.9v2.8
	h1.9c0.8,0,1.4-0.6,1.5-1.3s-0.6-1.4-1.3-1.5C800.1,476.2,800.1,476.2,800,476.2z"/>
<path d="M803,477.4h0.9l1.8,4.4l1.8-4.4h0.9l-2.2,5.3h-0.9L803,477.4z"/>
<path d="M812,475.3c0.8,0,1.5,0.3,2,0.9l-0.5,0.7c-0.4-0.5-1-0.8-1.6-0.7c-1.4,0-2.1,1.4-2.1,2.9c0,0.1,0,0.2,0,0.3
	c0.5-0.7,1.2-1.1,2.1-1.1c1.2-0.1,2.3,0.8,2.4,2c0,0.1,0,0.2,0,0.3c0,1.3-1.1,2.4-2.4,2.4c-0.1,0-0.1,0-0.2,0c-2,0-2.8-1.8-2.8-3.8
	S809.9,475.3,812,475.3z M811.8,478.9c-0.8,0-1.4,0.4-1.8,1.1c0.1,0.9,0.6,2,1.8,2c0.9,0.1,1.6-0.6,1.7-1.5c0,0,0,0,0-0.1
	c0-0.8-0.6-1.6-1.4-1.6C811.9,478.9,811.8,478.9,811.8,478.9L811.8,478.9z"/>
<path d="M779.5,492.1h-3.7l-0.6,1.6h-1l2.9-7.3h1.1l3,7.3h-1L779.5,492.1z M776.1,491.3h3.2l-1.6-4.1L776.1,491.3z"/>
<path d="M782.2,495.8v-7.3h0.8v0.8c0.4-0.6,1.1-0.9,1.8-0.9c1.4,0,2.4,1.1,2.4,2.8c0,1.7-1,2.8-2.4,2.8c-0.7,0-1.4-0.3-1.8-0.9v2.8
	H782.2z M784.6,489c-0.6,0-1.2,0.3-1.6,0.8v2.4c0.4,0.5,0.9,0.8,1.6,0.9c1.1,0,1.7-0.9,1.7-2.1C786.3,489.9,785.7,489,784.6,489z"/>
<path d="M788.6,495.8v-7.3h0.8v0.8c0.4-0.6,1.1-0.9,1.8-0.9c1.4,0,2.4,1.1,2.4,2.8c0,1.7-1,2.8-2.4,2.8c-0.7,0-1.4-0.3-1.8-0.9v2.8
	H788.6z M791,489c-0.6,0-1.2,0.3-1.6,0.8v2.4c0.4,0.5,0.9,0.8,1.6,0.9c1.1,0,1.7-0.9,1.7-2.1C792.8,489.9,792.1,489,791,489L791,489
	z"/>
<path d="M795.1,486.4h0.8v7.3h-0.8V486.4z"/>
<path d="M797.5,487c0-0.3,0.3-0.6,0.6-0.6c0.3,0,0.5,0.2,0.6,0.6c0,0.3-0.2,0.6-0.6,0.6S797.5,487.3,797.5,487
	C797.5,487,797.5,487,797.5,487z M797.6,488.4h0.8v5.3h-0.8V488.4z"/>
<path d="M802.6,488.3c0.8,0,1.5,0.3,1.9,0.9l-0.6,0.5c-0.3-0.4-0.8-0.7-1.4-0.7c-1.1,0.1-1.9,1.1-1.8,2.3c0.1,1,0.9,1.7,1.8,1.8
	c0.5,0,1-0.2,1.4-0.7l0.6,0.5c-0.5,0.6-1.2,1-1.9,0.9c-1.5-0.1-2.7-1.4-2.6-2.9C800,489.5,801.1,488.4,802.6,488.3z"/>
<path d="M809.1,493.1c-0.5,0.5-1.1,0.8-1.8,0.7c-1,0-1.8-0.7-1.9-1.7c0,0,0-0.1,0-0.1c0-1,0.8-1.7,1.7-1.8c0,0,0.1,0,0.1,0
	c0.7,0,1.3,0.2,1.8,0.7v-1c0-0.7-0.6-1.1-1.3-1.1c-0.6,0-1.2,0.3-1.6,0.7l-0.4-0.6c0.5-0.6,1.3-0.9,2.1-0.9c1.1,0,2.1,0.5,2.1,1.8
	v3.7h-0.8L809.1,493.1z M809.1,491.6c-0.4-0.4-0.9-0.7-1.5-0.7c-0.6-0.1-1.2,0.4-1.3,1c-0.1,0.6,0.4,1.2,1,1.3c0.1,0,0.2,0,0.3,0
	c0.6,0,1.1-0.2,1.5-0.7V491.6z"/>
<path d="M811.9,492.6v-3.5H811v-0.7h0.9V487h0.8v1.5h1.1v0.7h-1.1v3.3c0,0.4,0.2,0.7,0.5,0.7c0.2,0,0.4-0.1,0.6-0.2l0.2,0.6
	c-0.3,0.2-0.6,0.4-1,0.3c-0.6,0.1-1.1-0.4-1.2-1C811.8,492.8,811.8,492.7,811.9,492.6z"/>
<path d="M814.9,487c0-0.3,0.3-0.6,0.6-0.6c0.3,0,0.5,0.2,0.6,0.6c0,0.3-0.2,0.6-0.6,0.6S814.9,487.3,814.9,487
	C814.9,487,814.9,487,814.9,487z M815,488.4h0.8v5.3H815V488.4z"/>
<path d="M817.3,491.1c0.1-1.5,1.3-2.6,2.8-2.5c1.5,0.1,2.6,1.3,2.5,2.8c-0.1,1.4-1.2,2.5-2.6,2.5c-1.4,0-2.6-1.1-2.6-2.6
	C817.3,491.2,817.3,491.1,817.3,491.1z M821.7,491.1c-0.1-1-1.1-1.6-2-1.5c-1,0.1-1.6,1.1-1.5,2c0.1,0.9,0.9,1.5,1.8,1.5
	c1,0,1.8-0.9,1.8-1.9C821.7,491.2,821.7,491.1,821.7,491.1z"/>
<path d="M827.6,490.3c0-0.9-0.5-1.2-1.2-1.2c-0.6,0-1.2,0.3-1.6,0.8v3.9H824v-5.3h0.8v0.8c0.5-0.5,1.2-0.9,1.9-0.9
	c0.8-0.1,1.6,0.5,1.7,1.3c0,0.1,0,0.3,0,0.4v3.7h-0.8L827.6,490.3z"/>
<path d="M830.2,492.4c0.5,0.5,1.1,0.8,1.7,0.8c0.8,0,1.3-0.4,1.3-0.9c0-0.6-0.6-0.8-1.4-0.9c-0.9-0.2-1.9-0.5-1.9-1.6
	c0-0.8,0.7-1.5,2-1.5c0.7,0,1.4,0.3,2,0.8l-0.4,0.6c-0.4-0.4-1-0.7-1.6-0.7c-0.7,0-1.2,0.3-1.2,0.8c0,0.5,0.6,0.7,1.3,0.8
	c0.9,0.2,2,0.5,2,1.6c0,0.9-0.7,1.6-2.1,1.6c-0.8,0-1.6-0.3-2.1-0.8L830.2,492.4z"/>
<circle class="st5" cx="740.6" cy="408.4" r="19.5"/>
<line class="st4" x1="756" y1="408.4" x2="742.6" y2="408.4"/>
<polyline class="st4" points="748.1,413.9 742.5,408.4 748.1,402.8 "/>
<line class="st4" x1="725.3" y1="408.4" x2="738.7" y2="408.4"/>
<polyline class="st4" points="733.2,413.9 738.8,408.4 733.2,402.8 "/>
<line class="st4" x1="740.6" y1="410.6" x2="740.6" y2="424"/>
<polyline class="st4" points="746.2,418.5 740.6,424.1 735.1,418.5 "/>
<line class="st4" x1="740.6" y1="406.1" x2="740.6" y2="392.8"/>
<polyline class="st4" points="746.2,398.2 740.6,392.7 735.1,398.2 "/>
<path class="st4" d="M234.5,235.4l-1.5-2c-1.2-1.5-1.1-3.7,0.1-5.2l1.4-1.8"/>
<path class="st4" d="M231.5,237.7l-3.2-4.4c-1.2-1.5-1.1-3.7,0.1-5.2l3.1-4.1"/>
<path class="st4" d="M227.9,239.5l-4.6-6.3c-1.2-1.5-1.1-3.7,0.1-5.2l4.5-5.9"/>
<path class="st4" d="M247.2,226.3l1.5,2c1.2,1.5,1.1,3.7-0.1,5.2l-1.4,1.8"/>
<path class="st4" d="M250.2,223.9l3.2,4.4c1.2,1.5,1.1,3.7-0.1,5.2l-3.1,4.1"/>
<path class="st4" d="M253.8,222.1l4.6,6.3c1.2,1.5,1.1,3.7-0.1,5.2l-4.5,5.9"/>
<path class="st4" d="M251,262.8l-7.9-28.3c2-1.2,2.7-3.8,1.5-5.8s-3.8-2.7-5.8-1.5s-2.7,3.8-1.5,5.8c0.4,0.6,0.9,1.1,1.5,1.5
	l-7.9,28.3h17.3"/>
<line class="st4" x1="235.1" y1="257" x2="246.6" y2="257"/>
<line class="st4" x1="236.5" y1="251.2" x2="245.2" y2="251.2"/>
<line class="st4" x1="238" y1="245.3" x2="243.8" y2="245.3"/>
<polygon class="st10" points="835.3,152 835.3,96.6 681.5,96.6 681.5,165.7 835.3,165.7 835.3,157.3 "/>
<rect x="733.8" y="87.6" width="49.1" height="18"/>
<path class="st0" d="M745.2,98.7v1.4h-3.7v-7.1h1.5v5.7H745.2z"/>
<path class="st0" d="M745.9,98.3v-3.4c0.2-1.3,1.4-2.2,2.7-2c1,0.2,1.8,1,2,2v3.4c-0.2,1.3-1.4,2.2-2.7,2
	C746.9,100.1,746.1,99.3,745.9,98.3z M749.1,98.3v-3.4c0-0.4-0.2-0.6-0.8-0.6c-0.6,0-0.8,0.2-0.8,0.6v3.4c0,0.4,0.2,0.6,0.8,0.6
	C748.8,98.9,749.1,98.7,749.1,98.3L749.1,98.3z"/>
<path class="st0" d="M754.6,95.6v-0.7c0-0.4-0.3-0.6-0.8-0.6c-0.5,0-0.8,0.2-0.8,0.6v3.4c0,0.4,0.3,0.6,0.8,0.6
	c0.5,0,0.8-0.2,0.8-0.6v-0.6h-0.8v-1.4h2.4v2c-0.2,1.3-1.4,2.2-2.7,2c-1-0.2-1.8-1-2-2v-3.4c0.2-1.3,1.4-2.2,2.7-2c1,0.2,1.8,1,2,2
	v0.7H754.6z"/>
<path class="st0" d="M760.2,95.6v-0.7c0-0.4-0.3-0.6-0.8-0.6s-0.8,0.2-0.8,0.6v3.4c0,0.4,0.3,0.6,0.8,0.6c0.5,0,0.8-0.2,0.8-0.6
	v-0.6h-0.8v-1.4h2.4v2c-0.2,1.3-1.4,2.2-2.7,2c-1-0.2-1.8-1-2-2v-3.4c0.2-1.3,1.4-2.2,2.7-2c1,0.2,1.8,1,2,2v0.7H760.2z"/>
<path class="st0" d="M762.7,93.1h1.5v7.1h-1.5V93.1z"/>
<path class="st0" d="M769.7,93.1v7.1h-1.4l-1.8-4v4h-1.3v-7.1h1.3l1.8,4.1v-4.1H769.7z"/>
<path class="st0" d="M773.8,95.6v-0.7c0-0.4-0.3-0.6-0.8-0.6c-0.5,0-0.8,0.2-0.8,0.6v3.4c0,0.4,0.3,0.6,0.8,0.6
	c0.5,0,0.8-0.2,0.8-0.6v-0.6H773v-1.4h2.4v2c-0.2,1.3-1.4,2.2-2.7,2c-1-0.2-1.8-1-2-2v-3.4c0.2-1.3,1.4-2.2,2.7-2c1,0.2,1.8,1,2,2
	v0.7H773.8z"/>
<path class="st4" d="M819.7,141.7v4.4c0,3.8-6.3,6.9-14.8,6.9s-14.9-3.1-14.9-6.9v-8.8c0,1.7,1.3,3.2,3.5,4.4
	c3.5,1.8,7.5,2.6,11.4,2.5c3.9,0.1,7.8-0.7,11.3-2.5c2.2-1.2,3.5-2.7,3.5-4.4v-5.1c0,0.9-0.4,1.8-1,2.5c-2.2,2.6-7.2,4.4-13.7,4.4
	s-11.7-1.8-13.9-4.4c-0.6-0.7-1-1.6-1-2.5v-7.6c0,1.4,0.9,2.7,2.5,3.8c2,1.3,4.1,2.1,6.4,2.5c2,0.4,4,0.6,6,0.6c2,0,3.9-0.2,5.9-0.6
	c2.3-0.4,4.5-1.3,6.4-2.5c1.6-1.1,2.5-2.4,2.5-3.8c0-3.8-6.3-6.9-14.8-6.9c-6.5,0-11.7,1.8-13.9,4.4"/>
<path class="st4" d="M726.7,141.7v4.4c0,3.8-6.3,6.9-14.8,6.9s-14.9-3.1-14.9-6.9v-8.8c0,1.7,1.3,3.2,3.5,4.4
	c3.5,1.8,7.5,2.6,11.4,2.5c3.9,0.1,7.8-0.7,11.3-2.5c2.2-1.2,3.5-2.7,3.5-4.4v-5.1c0,0.9-0.4,1.8-1,2.5c-2.2,2.6-7.2,4.4-13.7,4.4
	s-11.7-1.8-13.9-4.4c-0.6-0.7-1-1.6-1-2.5v-7.6c0,1.4,0.9,2.7,2.5,3.8c2,1.3,4.1,2.1,6.4,2.5c2,0.4,4,0.6,6,0.6c2,0,3.9-0.2,5.9-0.6
	c2.3-0.4,4.5-1.3,6.4-2.5c1.6-1.1,2.5-2.4,2.5-3.8c0-3.8-6.3-6.9-14.8-6.9c-6.5,0-11.7,1.8-13.9,4.4"/>
<path class="st4" d="M773.2,141.7v4.4c0,3.8-6.3,6.9-14.8,6.9s-14.9-3.1-14.9-6.9v-8.8c0,1.7,1.3,3.2,3.5,4.4
	c3.5,1.8,7.5,2.6,11.4,2.5c3.9,0.1,7.8-0.7,11.3-2.5c2.2-1.2,3.5-2.7,3.5-4.4v-5.1c0,0.9-0.4,1.8-1,2.5c-2.2,2.6-7.2,4.4-13.7,4.4
	s-11.7-1.8-13.9-4.4c-0.6-0.7-1-1.6-1-2.5v-7.6c0,1.4,0.9,2.7,2.5,3.8c2,1.3,4.1,2.1,6.4,2.5c2,0.4,4,0.6,6,0.6c2,0,3.9-0.2,5.9-0.6
	c2.3-0.4,4.5-1.3,6.4-2.5c1.6-1.1,2.5-2.4,2.5-3.8c0-3.8-6.3-6.9-14.8-6.9c-6.5,0-11.7,1.8-13.9,4.4"/>
<line class="st2" x1="215.4" y1="476.4" x2="195.7" y2="476.4"/>
<line class="st11" x1="215.4" y1="467.4" x2="195.7" y2="467.4"/>
<path class="st8" d="M219.3,465.1h1v4.7h-1V465.1z"/>
<path class="st8" d="M221.5,465.1h2.2c0.8,0,1.5,0.6,1.6,1.4c0,0.8-0.6,1.5-1.4,1.6c0,0-0.1,0-0.1,0h-1.2v1.7h-1V465.1z
	 M223.5,465.9h-1.1v1.3h1.1c0.4,0,0.7-0.2,0.7-0.6C224.2,466.3,223.9,466,223.5,465.9C223.6,465.9,223.5,465.9,223.5,465.9
	L223.5,465.9z"/>
<path class="st8" d="M225.7,466.4h1l0.9,2.4l0.9-2.4h1l-1.4,3.4h-1L225.7,466.4z"/>
<path class="st8" d="M231.8,468.8h-2.2V468l1.9-2.9h1.4v2.8h0.6v0.9h-0.6v1h-1L231.8,468.8z M230.6,467.9h1.3V466L230.6,467.9z"/>
<path class="st8" d="M237.1,466h-1.4v-0.9h3.7v0.9h-1.4v3.8h-1L237.1,466z"/>
<path class="st8" d="M239.8,466.4h0.9v0.5c0.3-0.3,0.7-0.5,1.1-0.5v0.9c-0.4-0.1-0.8,0.1-1.1,0.4v2.2h-0.9V466.4z"/>
<path class="st8" d="M244.5,469.4c-0.3,0.3-0.7,0.4-1.1,0.4c-0.6,0-1.1-0.5-1.2-1.1c0,0,0,0,0,0c0-0.6,0.5-1.1,1.1-1.1
	c0,0,0.1,0,0.1,0c0.4,0,0.8,0.1,1.1,0.4v-0.5c0-0.3-0.3-0.6-0.7-0.6c-0.4,0-0.7,0.1-1,0.4l-0.3-0.6c0.4-0.4,0.9-0.5,1.5-0.5
	c0.8,0,1.5,0.3,1.5,1.3v2.2h-0.9L244.5,469.4z M244.5,468.5c-0.2-0.2-0.4-0.3-0.7-0.3c-0.4,0-0.6,0.2-0.6,0.5c0,0.3,0.3,0.5,0.6,0.5
	c0.3,0,0.5-0.1,0.7-0.3V468.5z"/>
<path class="st8" d="M246.6,467.1H246v-0.8h0.6v-0.2c0-0.6,0.4-1.1,1-1.2c0,0,0.1,0,0.1,0c0.2,0,0.4,0,0.6,0.1l-0.2,0.6
	c-0.1,0-0.2-0.1-0.3-0.1c-0.3,0-0.4,0.2-0.4,0.5v0.2h0.7v0.8h-0.7v2.6h-0.9V467.1z M248.9,467.1h-0.6v-0.8h0.6v-0.2
	c0-0.6,0.4-1.1,1-1.2c0,0,0.1,0,0.1,0c0.2,0,0.4,0,0.6,0.1l-0.2,0.6c-0.1-0.1-0.2-0.1-0.3-0.1c-0.3,0-0.4,0.2-0.4,0.5v0.2h0.7v0.8
	h-0.7v2.6h-0.9L248.9,467.1z M250.9,465.3c0-0.3,0.2-0.5,0.5-0.5s0.5,0.2,0.5,0.5c0,0.3-0.2,0.5-0.5,0.5l0,0
	C251.1,465.9,250.9,465.6,250.9,465.3L250.9,465.3z M251,466.4h0.9v3.4H251V466.4z"/>
<path class="st8" d="M254.5,466.3c0.5,0,1,0.2,1.3,0.6l-0.6,0.5c-0.2-0.2-0.4-0.4-0.7-0.4c-0.5,0-1,0.5-0.9,1.1
	c0,0.5,0.4,0.9,0.9,0.9c0.3,0,0.6-0.1,0.7-0.4l0.6,0.5c-0.3,0.4-0.8,0.6-1.3,0.6c-1,0-1.8-0.8-1.8-1.8S253.5,466.3,254.5,466.3
	C254.5,466.3,254.5,466.3,254.5,466.3L254.5,466.3z"/>
<path class="st8" d="M219.3,474.1h1v4.7h-1V474.1z"/>
<path class="st8" d="M221.5,474.1h2.2c0.8,0,1.5,0.6,1.6,1.4c0,0.8-0.6,1.5-1.4,1.6c0,0-0.1,0-0.1,0h-1.2v1.7h-1V474.1z
	 M223.5,474.9h-1.1v1.3h1.1c0.4,0,0.7-0.2,0.7-0.6C224.2,475.3,223.9,475,223.5,474.9C223.6,474.9,223.5,474.9,223.5,474.9
	L223.5,474.9z"/>
<path class="st8" d="M225.7,475.4h1l0.9,2.4l0.9-2.4h1l-1.4,3.4h-1L225.7,475.4z"/>
<path class="st8" d="M232,474c0.5,0,1,0.2,1.4,0.5l-0.4,0.7c-0.5-0.5-1.2-0.5-1.7,0c-0.3,0.3-0.4,0.6-0.4,1c0,0,0,0.1,0,0.1
	c0.3-0.4,0.7-0.6,1.2-0.6c0.8-0.1,1.5,0.5,1.6,1.4c0,0.1,0,0.1,0,0.2c0,0.9-0.8,1.6-1.7,1.6c0,0-0.1,0-0.1,0c-1.4,0-2-1.1-2-2.4
	c-0.1-1.2,0.7-2.3,1.9-2.4C231.8,474,231.9,474,232,474z M231.7,476.5c-0.4,0-0.7,0.2-0.9,0.4c0,0.5,0.4,1,0.9,1c0,0,0,0,0,0
	c0.4,0,0.8-0.3,0.8-0.7c0,0,0,0,0,0C232.6,476.8,232.2,476.5,231.7,476.5z"/>
<path class="st8" d="M237.3,475h-1.4v-0.9h3.7v0.9h-1.4v3.8h-1V475z"/>
<path class="st8" d="M240,475.4h0.9v0.5c0.3-0.3,0.7-0.5,1.1-0.5v0.9c-0.4-0.1-0.8,0.1-1.1,0.4v2.2H240V475.4z"/>
<path class="st8" d="M244.7,478.4c-0.3,0.3-0.7,0.4-1.1,0.4c-0.6,0-1.1-0.5-1.2-1.1c0,0,0,0,0,0c0-0.6,0.5-1.1,1.1-1.1
	c0,0,0.1,0,0.1,0c0.4,0,0.8,0.1,1.1,0.4v-0.5c0-0.3-0.3-0.6-0.7-0.6c-0.4,0-0.7,0.1-1,0.4l-0.3-0.6c0.4-0.4,0.9-0.5,1.5-0.5
	c0.8,0,1.5,0.3,1.5,1.3v2.2h-0.9L244.7,478.4z M244.7,477.5c-0.2-0.2-0.4-0.3-0.7-0.3c-0.4,0-0.6,0.2-0.6,0.5c0,0.3,0.3,0.5,0.6,0.5
	c0.3,0,0.5-0.1,0.7-0.3V477.5z"/>
<path class="st8" d="M246.9,476.1h-0.6v-0.8h0.6v-0.2c0-0.6,0.4-1.1,1-1.2c0,0,0.1,0,0.1,0c0.2,0,0.4,0,0.6,0.1l-0.2,0.6
	c-0.1,0-0.2-0.1-0.3-0.1c-0.3,0-0.4,0.2-0.4,0.5v0.2h0.7v0.8h-0.7v2.6h-0.9L246.9,476.1z M249.1,476.1h-0.6v-0.8h0.6v-0.2
	c0-0.6,0.4-1.1,1-1.2c0,0,0.1,0,0.1,0c0.2,0,0.4,0,0.6,0.1l-0.2,0.6c-0.1-0.1-0.2-0.1-0.3-0.1c-0.3,0-0.4,0.2-0.4,0.5v0.2h0.7v0.8
	H250v2.6h-0.9L249.1,476.1z M251.1,474.3c0-0.3,0.2-0.5,0.5-0.5s0.5,0.2,0.5,0.5c0,0.3-0.2,0.5-0.5,0.5l0,0
	C251.4,474.9,251.1,474.6,251.1,474.3L251.1,474.3z M251.2,475.4h0.9v3.4h-0.9V475.4z"/>
<path class="st8" d="M254.8,475.3c0.5,0,1,0.2,1.3,0.6l-0.6,0.5c-0.2-0.2-0.4-0.4-0.7-0.4c-0.5,0-1,0.5-0.9,1.1
	c0,0.5,0.4,0.9,0.9,0.9c0.3,0,0.6-0.1,0.7-0.4l0.6,0.5c-0.3,0.4-0.8,0.6-1.3,0.6c-1,0-1.8-0.8-1.8-1.8S253.7,475.3,254.8,475.3
	C254.7,475.3,254.8,475.3,254.8,475.3L254.8,475.3z"/>
<polygon class="st10" points="676.4,224 676.4,351.8 448,351.8 448,181.7 676.4,181.7 676.4,204.8 "/>
<rect x="531.1" y="172.7" width="62.3" height="18"/>
<path class="st0" d="M542.4,178.1v7.1H541l-1.8-4v4h-1.3v-7.1h1.3l1.8,4.1v-4.1H542.4z"/>
<path class="st0" d="M547.7,182.5v0.9c0,1.1-0.9,2-2,2c0,0-0.1,0-0.1,0c-1.1,0.1-2.1-0.7-2.2-1.9c0,0,0-0.1,0-0.1V180
	c0.1-1.2,1.1-2.1,2.3-2c1.1,0.1,1.9,0.9,2,2h-1.5c0-0.3-0.2-0.6-0.5-0.7c0,0-0.1,0-0.1,0c-0.3,0-0.6,0.2-0.6,0.5c0,0,0,0.1,0,0.1
	v0.9c0.3-0.1,0.6-0.2,0.9-0.2c1-0.1,1.8,0.7,1.9,1.6C547.7,182.4,547.7,182.4,547.7,182.5z M546.1,182.4c0-0.3-0.2-0.5-0.6-0.5
	c-0.4,0-0.6,0.2-0.6,0.5v1.1c0,0.3,0.2,0.5,0.6,0.5c0.4,0,0.6-0.2,0.6-0.5V182.4z"/>
<path class="st0" d="M551.2,177.8l-1.4,7.9h-1.5l1.4-7.9H551.2z"/>
<path class="st0" d="M551.7,183.1v-0.3h1.5v0.4c0,0.4,0.3,0.7,0.7,0.7c0,0,0.1,0,0.1,0c0.4,0,0.7-0.3,0.7-0.6c0,0,0,0,0-0.1
	c0-1.3-3-1-3-3.3c-0.1-1.1,0.8-2,1.9-2.1c0.1,0,0.2,0,0.3,0c1.1-0.1,2,0.6,2.2,1.7c0,0.1,0,0.2,0,0.3v0.4h-1.5v-0.5
	c0-0.3-0.3-0.5-0.7-0.5c-0.3,0-0.6,0.2-0.6,0.5c0,0,0,0.1,0,0.1c0,1,3,0.8,3,3.2c0.1,1.2-0.8,2.1-2,2.2c-0.1,0-0.2,0-0.3,0
	c-1.2,0.1-2.2-0.8-2.3-1.9C551.7,183.3,551.7,183.2,551.7,183.1z"/>
<path class="st0" d="M559.9,177.8l-1.4,7.9H557l1.4-7.9H559.9z"/>
<path class="st0" d="M563.6,180.7V180c0-0.4-0.3-0.6-0.8-0.6s-0.8,0.2-0.8,0.6v3.4c0,0.4,0.3,0.6,0.8,0.6c0.5,0,0.8-0.2,0.8-0.6
	v-0.6h-0.8v-1.4h2.4v2c-0.2,1.3-1.4,2.2-2.7,2c-1-0.2-1.8-1-2-2V180c0.2-1.3,1.4-2.2,2.7-2c1,0.2,1.8,1,2,2v0.7H563.6z"/>
<path class="st0" d="M566.1,178.1h1.5v1.5h-1.5V178.1z M566.1,180.1h1.5v5.1h-1.5V180.1z"/>
<path class="st0" d="M568.5,181.3h2.4v1.3h-2.4V181.3z"/>
<path class="st0" d="M575.5,183.8v1.4h-3.7v-7.1h1.5v5.7H575.5z"/>
<path class="st0" d="M579.4,184H578l-0.3,1.2h-1.5l1.5-7.1h2l1.5,7.1h-1.5L579.4,184z M578.7,180l-0.4,2.6h0.9L578.7,180z"/>
<path class="st0" d="M586.6,178.1v7.1h-1.4l-1.8-4v4H582v-7.1h1.3l1.8,4.1v-4.1H586.6z"/>
<polyline class="st12" points="585.8,240.2 585.8,247.8 538.6,247.8 538.6,240.2 "/>
<line class="st13" x1="562.2" y1="258.9" x2="562.2" y2="247.9"/>
<rect x="462.2" y="259.4" class="st10" width="200.1" height="75.7"/>
<circle class="st14" cx="499.8" cy="297.6" r="19.2"/>
<path d="M487.7,290.4h3.1c0.9-0.1,1.7,0.6,1.8,1.5c0,0.1,0,0.1,0,0.2c0,0.7-0.4,1.3-1.1,1.5c0.8,0.2,1.3,0.8,1.3,1.6
	c0,0.9-0.7,1.7-1.6,1.8c-0.1,0-0.2,0-0.2,0h-3.2V290.4z M490.6,293.1c0.5,0,1-0.4,1-0.9s-0.4-1-0.9-1c0,0-0.1,0-0.1,0h-1.9v1.9
	H490.6z M490.6,296c0.5,0.1,1-0.3,1.1-0.9c0-0.1,0-0.1,0-0.2c0-0.6-0.4-1-1-1c0,0-0.1,0-0.1,0h-2v2H490.6z"/>
<path d="M493.7,290.4h1v6.6h-1V290.4z"/>
<path d="M499,290.2c1,0,2,0.5,2.6,1.3l-0.8,0.5c-0.4-0.6-1.1-0.9-1.8-0.9c-1.4,0.1-2.5,1.3-2.4,2.7c0.1,1.3,1.1,2.3,2.4,2.4
	c0.6,0,1.2-0.2,1.7-0.6v-1.2h-2.1v-0.9h3.1v2.4c-0.7,0.8-1.6,1.2-2.6,1.2c-1.9,0-3.4-1.5-3.4-3.4C495.6,291.8,497.1,290.3,499,290.2
	C499,290.2,499,290.2,499,290.2L499,290.2z"/>
<path d="M502.2,294.2h2.4v0.8h-2.4V294.2z"/>
<path d="M505.4,290.4h1v6.6h-1V290.4z"/>
<path d="M507.6,290.4h2.8c1.1,0,2,0.8,2.1,1.9c0,1.1-0.8,2-1.9,2.1c-0.1,0-0.1,0-0.2,0h-1.8v2.5h-1V290.4z M510.2,291.2h-1.7v2.3
	h1.7c0.6,0,1.2-0.5,1.2-1.1c0-0.6-0.5-1.2-1.1-1.2C510.3,291.2,510.3,291.2,510.2,291.2z"/>
<path d="M493.9,299.4h1.1l2.1,5.5l2.1-5.5h1.1l-2.6,6.6h-1.2L493.9,299.4z"/>
<path d="M500.9,299.4h4.4v0.9h-3.4v1.9h3.4v0.9h-3.4v2h3.4v0.9h-4.4V299.4z"/>
<path class="st5" d="M533.1,287.4h58.1c0.7,0,1.2-0.6,1.2-1.2v-8.1c0-0.7-0.6-1.2-1.2-1.2h-58.1c-0.7,0-1.2,0.6-1.2,1.2v8.1
	C531.8,286.9,532.4,287.4,533.1,287.4z"/>
<path class="st5" d="M587.5,279.6c1,0,1.8,0.8,1.8,1.8s-0.8,1.8-1.8,1.8c-1,0-1.8-0.8-1.8-1.8C585.8,280.4,586.6,279.6,587.5,279.6
	C587.5,279.6,587.5,279.6,587.5,279.6z"/>
<path class="st5" d="M565,280.4c0-0.5,0.4-0.8,0.8-0.8h10.4c0.5,0,0.8,0.4,0.8,0.8v1.9c0,0.5-0.4,0.8-0.8,0.8c0,0,0,0,0,0h-10.4
	c-0.5,0-0.8-0.4-0.8-0.8c0,0,0,0,0,0V280.4z"/>
<path class="st5" d="M537.9,289.6h-4.8c-0.7,0-1.2,0.6-1.2,1.2v26.4c0,0.7,0.6,1.2,1.2,1.2h4.8c0.7,0,1.2-0.6,1.2-1.2v-26.4
	C539.2,290.2,538.6,289.6,537.9,289.6z"/>
<path class="st5" d="M537,308.6c0,0.5-0.4,1-1,1h0h-0.9c-0.5,0-1-0.4-1-1c0,0,0,0,0,0v-9.4c0-0.5,0.4-1,1-1c0,0,0,0,0,0h0.9
	c0.5,0,1,0.4,1,1c0,0,0,0,0,0V308.6z"/>
<path class="st5" d="M591.1,312.8h-48.4c-0.8,0-1.4,0.6-1.4,1.4v2.8c0,0.8,0.6,1.4,1.4,1.4h48.4c0.8,0,1.4-0.6,1.4-1.4v-2.8
	C592.5,313.4,591.9,312.8,591.1,312.8z"/>
<path class="st5" d="M586.1,315.9c0,0.4-0.4,0.7-0.8,0.7h-10.4c-0.4,0-0.8-0.3-0.8-0.7v-0.7c0-0.4,0.4-0.7,0.8-0.7h10.4
	c0.4,0,0.8,0.3,0.8,0.7V315.9z"/>
<path class="st5" d="M591.1,305h-48.4c-0.8,0-1.4,0.6-1.4,1.4v2.8c0,0.8,0.6,1.4,1.4,1.4h48.4c0.8,0,1.4-0.6,1.4-1.4v-2.8
	C592.5,305.7,591.9,305,591.1,305z"/>
<path class="st5" d="M586.1,308.2c0,0.4-0.4,0.7-0.8,0.7h-10.4c-0.4,0-0.8-0.3-0.8-0.7v-0.7c0-0.4,0.4-0.7,0.8-0.7h10.4
	c0.4,0,0.8,0.3,0.8,0.7V308.2z"/>
<path class="st5" d="M591.1,297.3h-48.4c-0.8,0-1.4,0.6-1.4,1.4v2.8c0,0.8,0.6,1.4,1.4,1.4h48.4c0.8,0,1.4-0.6,1.4-1.4v-2.8
	C592.5,297.9,591.9,297.3,591.1,297.3z"/>
<path class="st5" d="M586.1,300.4c0,0.4-0.4,0.7-0.8,0.7h-10.4c-0.4,0-0.8-0.3-0.8-0.7v-0.7c0-0.4,0.4-0.7,0.8-0.7h10.4
	c0.4,0,0.8,0.3,0.8,0.7V300.4z"/>
<path class="st5" d="M591.1,289.6h-48.4c-0.8,0-1.4,0.6-1.4,1.4v2.8c0,0.8,0.6,1.4,1.4,1.4h48.4c0.8,0,1.4-0.6,1.4-1.4V291
	C592.5,290.2,591.9,289.6,591.1,289.6z"/>
<path class="st5" d="M586.1,292.7c0,0.4-0.4,0.7-0.8,0.7h-10.4c-0.4,0-0.8-0.3-0.8-0.7V292c0-0.4,0.4-0.7,0.8-0.7h10.4
	c0.4,0,0.8,0.3,0.8,0.7V292.7z"/>
<line class="st4" x1="534.1" y1="285.4" x2="590.1" y2="285.4"/>
<path class="st15" d="M558.4,292.4L558.4,292.4c0-0.4,0.3-0.7,0.7-0.7h0c0.4,0,0.7,0.3,0.7,0.7v0c0,0.4-0.3,0.7-0.7,0.7h0
	C558.7,293,558.4,292.7,558.4,292.4z"/>
<path class="st15" d="M561.3,292.4L561.3,292.4c0-0.4,0.3-0.7,0.7-0.7h0c0.4,0,0.7,0.3,0.7,0.7v0c0,0.4-0.3,0.7-0.7,0.7h0
	C561.6,293,561.3,292.7,561.3,292.4z"/>
<path class="st15" d="M564.3,292.4L564.3,292.4c0-0.4,0.3-0.7,0.7-0.7h0c0.4,0,0.7,0.3,0.7,0.7v0c0,0.4-0.3,0.7-0.7,0.7h0
	C564.6,293,564.3,292.7,564.3,292.4z"/>
<path class="st15" d="M567.2,292.4L567.2,292.4c0-0.4,0.3-0.7,0.7-0.7h0c0.4,0,0.7,0.3,0.7,0.7v0c0,0.4-0.3,0.7-0.7,0.7h0
	C567.5,293,567.2,292.7,567.2,292.4z"/>
<path class="st15" d="M570.2,292.4L570.2,292.4c0-0.4,0.3-0.7,0.7-0.7h0c0.4,0,0.7,0.3,0.7,0.7v0c0,0.4-0.3,0.7-0.7,0.7h0
	C570.5,293,570.2,292.7,570.2,292.4z"/>
<path class="st15" d="M558.4,300.1L558.4,300.1c0-0.4,0.3-0.7,0.7-0.7h0c0.4,0,0.7,0.3,0.7,0.7v0c0,0.4-0.3,0.7-0.7,0.7h0
	C558.7,300.8,558.4,300.5,558.4,300.1z"/>
<path class="st15" d="M561.3,300.1L561.3,300.1c0-0.4,0.3-0.7,0.7-0.7h0c0.4,0,0.7,0.3,0.7,0.7v0c0,0.4-0.3,0.7-0.7,0.7h0
	C561.6,300.8,561.3,300.5,561.3,300.1z"/>
<path class="st15" d="M564.3,300.1L564.3,300.1c0-0.4,0.3-0.7,0.7-0.7h0c0.4,0,0.7,0.3,0.7,0.7v0c0,0.4-0.3,0.7-0.7,0.7h0
	C564.6,300.8,564.3,300.5,564.3,300.1z"/>
<path class="st15" d="M567.2,300.1L567.2,300.1c0-0.4,0.3-0.7,0.7-0.7h0c0.4,0,0.7,0.3,0.7,0.7v0c0,0.4-0.3,0.7-0.7,0.7h0
	C567.5,300.8,567.2,300.5,567.2,300.1z"/>
<path class="st15" d="M570.2,300.1L570.2,300.1c0-0.4,0.3-0.7,0.7-0.7h0c0.4,0,0.7,0.3,0.7,0.7v0c0,0.4-0.3,0.7-0.7,0.7h0
	C570.5,300.8,570.2,300.5,570.2,300.1z"/>
<path class="st15" d="M558.4,307.8L558.4,307.8c0-0.4,0.3-0.7,0.7-0.7h0c0.4,0,0.7,0.3,0.7,0.7v0c0,0.4-0.3,0.7-0.7,0.7h0
	C558.7,308.5,558.4,308.2,558.4,307.8z"/>
<path class="st15" d="M561.3,307.8L561.3,307.8c0-0.4,0.3-0.7,0.7-0.7h0c0.4,0,0.7,0.3,0.7,0.7v0c0,0.4-0.3,0.7-0.7,0.7h0
	C561.6,308.5,561.3,308.2,561.3,307.8z"/>
<path class="st15" d="M564.3,307.8L564.3,307.8c0-0.4,0.3-0.7,0.7-0.7h0c0.4,0,0.7,0.3,0.7,0.7v0c0,0.4-0.3,0.7-0.7,0.7h0
	C564.6,308.5,564.3,308.2,564.3,307.8z"/>
<path class="st15" d="M567.2,307.8L567.2,307.8c0-0.4,0.3-0.7,0.7-0.7h0c0.4,0,0.7,0.3,0.7,0.7v0c0,0.4-0.3,0.7-0.7,0.7h0
	C567.5,308.5,567.2,308.2,567.2,307.8z"/>
<path class="st15" d="M570.2,307.8L570.2,307.8c0-0.4,0.3-0.7,0.7-0.7h0c0.4,0,0.7,0.3,0.7,0.7v0c0,0.4-0.3,0.7-0.7,0.7h0
	C570.5,308.5,570.2,308.2,570.2,307.8z"/>
<path class="st15" d="M558.4,315.5L558.4,315.5c0-0.4,0.3-0.7,0.7-0.7h0c0.4,0,0.7,0.3,0.7,0.7v0c0,0.4-0.3,0.7-0.7,0.7h0
	C558.7,316.2,558.4,315.9,558.4,315.5z"/>
<path class="st15" d="M561.3,315.5L561.3,315.5c0-0.4,0.3-0.7,0.7-0.7h0c0.4,0,0.7,0.3,0.7,0.7v0c0,0.4-0.3,0.7-0.7,0.7h0
	C561.6,316.2,561.3,315.9,561.3,315.5z"/>
<path class="st15" d="M564.3,315.5L564.3,315.5c0-0.4,0.3-0.7,0.7-0.7h0c0.4,0,0.7,0.3,0.7,0.7v0c0,0.4-0.3,0.7-0.7,0.7h0
	C564.6,316.2,564.3,315.9,564.3,315.5z"/>
<path class="st15" d="M567.2,315.5L567.2,315.5c0-0.4,0.3-0.7,0.7-0.7h0c0.4,0,0.7,0.3,0.7,0.7v0c0,0.4-0.3,0.7-0.7,0.7h0
	C567.5,316.2,567.2,315.9,567.2,315.5z"/>
<path class="st15" d="M570.2,315.5L570.2,315.5c0-0.4,0.3-0.7,0.7-0.7h0c0.4,0,0.7,0.3,0.7,0.7v0c0,0.4-0.3,0.7-0.7,0.7h0
	C570.5,316.2,570.2,315.9,570.2,315.5z"/>
<circle class="st5" cx="612.2" cy="290.3" r="1.6"/>
<circle class="st5" cx="636.9" cy="304.7" r="1.6"/>
<circle class="st5" cx="624.3" cy="312.1" r="1.6"/>
<rect x="623.1" y="296" class="st5" width="2.8" height="2.8"/>
<rect x="635.5" y="288.9" class="st5" width="2.8" height="2.8"/>
<polygon class="st5" points="612.3,303 610.7,305.7 613.9,305.7 "/>
<polygon class="st5" points="624.3,281.5 622.7,284.3 625.8,284.3 "/>
<polygon class="st5" points="615.7,284.4 608.7,284.4 605.3,290.5 608.7,296.5 615.7,296.5 619.2,290.5 "/>
<polygon class="st5" points="627.9,277.4 621,277.4 617.5,283.4 621,289.5 627.9,289.5 631.4,283.4 "/>
<polygon class="st5" points="627.9,305.8 621,305.8 617.5,311.9 621,317.9 627.9,317.9 631.4,311.9 "/>
<polygon class="st5" points="628.1,291.6 621.1,291.6 617.6,297.7 621.1,303.7 628.1,303.7 631.5,297.7 "/>
<polygon class="st5" points="640.3,284.4 633.3,284.4 629.8,290.4 633.3,296.5 640.3,296.5 643.8,290.4 "/>
<polygon class="st5" points="615.7,298.8 608.7,298.8 605.3,304.8 608.7,310.9 615.7,310.9 619.2,304.8 "/>
<polygon class="st5" points="640.3,298.8 633.3,298.8 629.8,304.8 633.3,310.8 640.3,310.8 643.8,304.8 "/>
<circle class="st5" cx="562.2" cy="219.3" r="19.5"/>
<path d="M546.9,219.3c-0.1-1.8,1.4-3.4,3.2-3.4c0.1,0,0.1,0,0.2,0c1.1,0,2.1,0.5,2.6,1.4l-0.8,0.4c-0.4-0.6-1.1-1-1.8-1
	c-1.4,0.1-2.5,1.3-2.4,2.7c0.1,1.3,1.1,2.3,2.4,2.4c0.7,0,1.4-0.4,1.8-1l0.8,0.5c-0.6,0.9-1.6,1.4-2.6,1.4c-1.8,0-3.4-1.4-3.4-3.3
	C546.9,219.4,546.9,219.4,546.9,219.3z"/>
<path d="M556.9,215.8c1,0,2,0.5,2.6,1.3l-0.8,0.5c-0.4-0.6-1.1-0.9-1.8-0.9c-1.4,0.1-2.5,1.3-2.4,2.7c0.1,1.3,1.1,2.4,2.4,2.4
	c0.6,0,1.2-0.2,1.7-0.7V220h-2.1v-0.9h3.1v2.4c-0.7,0.8-1.7,1.2-2.7,1.2c-1.9,0-3.5-1.5-3.5-3.4S555,215.8,556.9,215.8
	C556.9,215.8,556.9,215.8,556.9,215.8L556.9,215.8z"/>
<path d="M561.6,217.5v5.1h-1V216h1l3.6,5v-5h1v6.7h-1L561.6,217.5z"/>
<path d="M571.7,221.2h-3.3l-0.5,1.4h-1.1l2.6-6.7h1.2l2.6,6.7h-1.1L571.7,221.2z M568.7,220.3h2.7l-1.3-3.5L568.7,220.3z"/>
<path d="M574.9,216.8h-2.1V216h5.1v0.9h-2.1v5.8h-1V216.8z"/>
</svg>
