<svg id="Layer_1" data-name="Layer 1" xmlns="http://www.w3.org/2000/svg" viewBox="0 0 624.93491 290.47478"><defs><style>.cls-1,.cls-14,.cls-15,.cls-16,.cls-5{fill:#fff;}.cls-1,.cls-16,.cls-8,.cls-9{stroke:#000;}.cls-1,.cls-11,.cls-14,.cls-18,.cls-19,.cls-2,.cls-21,.cls-22,.cls-6,.cls-7,.cls-9{stroke-linecap:round;}.cls-1,.cls-10,.cls-12,.cls-13,.cls-15,.cls-16,.cls-18,.cls-19,.cls-2,.cls-21,.cls-22,.cls-4,.cls-6,.cls-8{stroke-miterlimit:10;}.cls-10,.cls-11,.cls-12,.cls-18,.cls-19,.cls-2,.cls-21,.cls-22,.cls-4,.cls-6,.cls-7,.cls-8,.cls-9{fill:none;}.cls-2,.cls-4{stroke:#1db14b;}.cls-3{fill:#1db14b;}.cls-6,.cls-7{stroke:#1d9cd3;}.cls-11,.cls-14,.cls-7,.cls-9{stroke-linejoin:round;}.cls-10{stroke:#29ad4a;stroke-width:1.1663px;}.cls-11{stroke:#010101;}.cls-12,.cls-13{stroke:#010201;}.cls-13{fill:#010201;stroke-width:0.4239px;}.cls-14,.cls-15{stroke:#221f1f;}.cls-17{fill:#343434;}.cls-18,.cls-19{stroke:#f3704b;}.cls-19,.cls-22{stroke-dasharray:2.91707 2.91707;}.cls-20{fill:#f3704b;}.cls-21,.cls-22{stroke:#f5c31e;}.cls-23{fill:#f5c31e;}</style></defs><rect class="cls-1" x="206.07964" y="23.65478" width="398.43976" height="248.54503"/><polyline class="cls-2" points="158.081 159.579 41.538 159.579 41.538 126.94"/><polygon class="cls-3" points="154.768 155.489 154.086 156.221 157.697 159.578 154.086 162.935 154.768 163.668 159.166 159.578 154.768 155.489"/><line class="cls-4" x1="450.18491" y1="171.71598" x2="374.63914" y2="171.71598"/><polyline class="cls-2" points="221.931 171.716 162.693 171.716 162.686 166.672 162.686 118.965"/><polygon class="cls-3" points="218.617 167.626 217.935 168.359 221.547 171.715 217.935 175.072 218.617 175.805 223.015 171.715 218.617 167.626"/><polygon class="cls-3" points="166.776 122.279 166.043 122.961 162.687 119.349 159.329 122.961 158.597 122.279 162.687 117.881 166.776 122.279"/><path d="M76.50441,135.50582a2.01185,2.01185,0,0,0,1.58252.72168c.49756,0,.70068-.28711.70068-.53906,0-.28027-.35742-.42773-.79883-.58887-.65136-.23046-1.46337-.53906-1.46337-1.37207a1.63889,1.63889,0,0,1,1.8208-1.457,2.44721,2.44721,0,0,1,1.856.75586l-.61621.69336a1.84592,1.84592,0,0,0-1.36572-.59473c-.38525,0-.65137.23145-.65137.49024,0,.252.35694.39941.79834.56055.65137.23046,1.478.54589,1.478,1.35839a1.65187,1.65187,0,0,1-1.83545,1.56153,2.69338,2.69338,0,0,1-2.11475-.86817Z"/><path d="M83.5508,136.206H81.46388l-.46924.80566H79.853l2.83643-4.67089h1.24658l.77051,4.67089H83.66994Zm-1.625-.86133h1.54785l-.30811-2.14941Z"/><path d="M90.105,133.59371l-2.06592,3.418H87.605l-.56739-3.418-.74951,3.418h-.99463l1.02979-4.67089h1.3584l.47656,2.96875,1.793-2.96875h1.43554l-1.02929,4.67089H89.356Z"/><path d="M92.523,132.34079h.99415l-.833,3.79589h1.96777l-.189.875H91.49318Z"/><path d="M99.22267,135.33786h-.77734l-.36426,1.67382h-.99463l1.02979-4.67089h1.99609a1.35327,1.35327,0,0,1,1.44238,1.3164,1.61627,1.61627,0,0,1-1.33056,1.625l.64453,1.72949H99.76906Zm1.28858-1.583a.56941.56941,0,0,0-.59522-.55957H98.9214l-.28027,1.28808h1.03662A.738.738,0,0,0,100.51125,133.75485Z"/><path d="M103.8174,133.54489a1.43866,1.43866,0,0,1,1.51953,1.51269,2.23338,2.23338,0,0,1-.06982.54688h-2.51465v.084a.83092.83092,0,0,0,.9248.7002,1.517,1.517,0,0,0,.85449-.252l.27979.60938a2.20412,2.20412,0,0,1-1.19727.34961c-1.06494,0-1.751-.57422-1.751-1.51953A1.9765,1.9765,0,0,1,103.8174,133.54489Zm.72119,1.38672a.69107.69107,0,0,0-.77734-.67872.96555.96555,0,0,0-.91748.749h1.69482Z"/><path d="M109.16261,132.34079h.89649l-1.03662,4.67089H108.126l.09815-.41992a1.27626,1.27626,0,0,1-1.01563.50391,1.2464,1.2464,0,0,1-1.28857-1.40039,1.97784,1.97784,0,0,1,1.78613-2.15039,1.27822,1.27822,0,0,1,1.07861.53222Zm-1.562,3.96386a1.00522,1.00522,0,0,0,.77783-.39941l.25879-1.17676a.93544.93544,0,0,0-.7915-.3916,1.09115,1.09115,0,0,0-.99414,1.17578A.73626.73626,0,0,0,107.6006,136.30465Z"/><path d="M110.83937,133.62887h.88965l-.74951,3.38281h-.88965Zm.72119-1.56152a.45943.45943,0,0,1,.47656.45508.60093.60093,0,0,1-.5957.60937.4552.4552,0,0,1-.47607-.45508A.60544.60544,0,0,1,111.56056,132.06735Z"/><path d="M112.79738,133.62887h.88965l-.10547.44824a1.53982,1.53982,0,0,1,1.19775-.52539l-.189.88282a1.41037,1.41037,0,0,0-.3291-.042,1.19161,1.19161,0,0,0-.84082.40625l-.48291,2.21289h-.88965Z"/><path d="M116.85158,133.54489a1.43866,1.43866,0,0,1,1.51953,1.51269,2.23284,2.23284,0,0,1-.06983.54688h-2.51464v.084a.83092.83092,0,0,0,.9248.7002,1.517,1.517,0,0,0,.85449-.252l.27979.60938a2.20415,2.20415,0,0,1-1.19727.34961c-1.06494,0-1.751-.57422-1.751-1.51953A1.9765,1.9765,0,0,1,116.85158,133.54489Zm.72119,1.38672a.69107.69107,0,0,0-.77734-.67872.96555.96555,0,0,0-.91748.749h1.69482Z"/><path d="M120.93312,133.54489a1.49972,1.49972,0,0,1,1.373.666l-.66553.51074a.8003.8003,0,0,0-.70752-.38476,1.09617,1.09617,0,0,0-1.06445,1.17578.7763.7763,0,0,0,.84765.792.93987.93987,0,0,0,.707-.33594l.48339.59473a1.749,1.749,0,0,1-1.28173.53223,1.50808,1.50808,0,0,1-1.65967-1.54A1.97045,1.97045,0,0,1,120.93312,133.54489Z"/><path d="M122.97023,136.12985l.37793-1.73047h-.56006l.17481-.77051h.56054l.20313-.92383h.89648l-.20312.92383h.686l-.18164.77051h-.68652l-.32227,1.4707a.981.981,0,0,0-.01416.14063c0,.18164.10547.29394.32959.29394a.46221.46221,0,0,0,.24512-.07031l.03467.71484a1.0386,1.0386,0,0,1-.56006.14649c-.60254,0-1.00879-.23047-1.00879-.73535A1.07287,1.07287,0,0,1,122.97023,136.12985Z"/><path d="M68.6382,139.26364a2.10686,2.10686,0,0,1,2.29053,2.08691,2.69381,2.69381,0,0,1-2.71045,2.74512,2.11026,2.11026,0,0,1-2.29737-2.09375A2.69345,2.69345,0,0,1,68.6382,139.26364Zm-.063.88183a1.69893,1.69893,0,0,0-1.61768,1.793,1.23188,1.23188,0,0,0,1.3169,1.27539,1.70335,1.70335,0,0,0,1.61768-1.793A1.23562,1.23562,0,0,0,68.57521,140.14547Z"/><path d="M74.01076,141.99508a1.1474,1.1474,0,0,0,.03515-.22461c0-.31445-.25244-.43359-.51855-.43359a1.26041,1.26041,0,0,0-.854.3916l-.5044,2.2832h-.88965l.74951-3.38281h.88965l-.09814.44141a1.60984,1.60984,0,0,1,1.12744-.52539c.65137,0,1.05762.34375,1.05762.86816a2.05833,2.05833,0,0,1-.03516.27344l-.51807,2.32519h-.88964Z"/><path d="M75.815,141.93844h1.68115l-.16846.75684H75.647Z"/><path d="M78.5464,145.30075h-.88965l1.03662-4.67188H79.583l-.09814.4209a1.28721,1.28721,0,0,1,1.02246-.50488,1.24929,1.24929,0,0,1,1.28174,1.40136,1.98585,1.98585,0,0,1-1.77881,2.14942,1.25788,1.25788,0,0,1-1.07861-.53223Zm1.56153-3.96387a1.02267,1.02267,0,0,0-.77735.40625l-.25928,1.17578a.93049.93049,0,0,0,.79151.38574,1.08753,1.08753,0,0,0,.99463-1.17676A.73581.73581,0,0,0,80.10793,141.33688Z"/><path d="M82.97267,140.62887h.88965l-.10547.44824a1.53983,1.53983,0,0,1,1.19776-.52539l-.189.88282a1.41037,1.41037,0,0,0-.3291-.042,1.19161,1.19161,0,0,0-.84082.40625l-.48291,2.21289h-.88965Z"/><path d="M87.02834,140.54489a1.43867,1.43867,0,0,1,1.51953,1.51269,2.23284,2.23284,0,0,1-.06983.54688H85.96339v.084a.83093.83093,0,0,0,.92481.7002,1.517,1.517,0,0,0,.85449-.252l.27979.60938a2.20417,2.20417,0,0,1-1.19727.34961c-1.06494,0-1.751-.57422-1.751-1.51953A1.97651,1.97651,0,0,1,87.02834,140.54489Zm.72119,1.38672a.69107.69107,0,0,0-.77735-.67872.96557.96557,0,0,0-.91748.749h1.69483Z"/><path d="M93.62843,141.96676a1.32753,1.32753,0,0,0,.02832-.22363.43166.43166,0,0,0-.48339-.40625,1.03619,1.03619,0,0,0-.70752.3916l-.49707,2.2832h-.89649l.45508-2.04492a1.20691,1.20691,0,0,0,.03516-.24512c-.00684-.21679-.18213-.38476-.49707-.38476a1.036,1.036,0,0,0-.69385.3916l-.50391,2.2832H88.978l.74951-3.38281h.88965l-.09814.44141a1.42924,1.42924,0,0,1,1.0293-.52539.89145.89145,0,0,1,.93164.60937v.02149a1.51292,1.51292,0,0,1,1.16943-.63086.88467.88467,0,0,1,.9668.86816,1.42048,1.42048,0,0,1-.03516.27344l-.51123,2.32519h-.89648Z"/><path d="M100.09572,143.206H98.0088l-.46923.80566H96.398l2.83643-4.67089H100.481l.77051,4.67089h-1.03662Zm-1.625-.86133h1.54785l-.30811-2.14941Z"/><path d="M102.45168,145.30075H101.562l1.03662-4.67188h.88965l-.09815.4209a1.28721,1.28721,0,0,1,1.02246-.50488,1.24929,1.24929,0,0,1,1.28174,1.40136,1.98585,1.98585,0,0,1-1.77881,2.14942,1.25788,1.25788,0,0,1-1.07861-.53223Zm1.56152-3.96387a1.02265,1.02265,0,0,0-.77734.40625l-.25928,1.17578a.93047.93047,0,0,0,.7915.38574,1.08753,1.08753,0,0,0,.99463-1.17676A.7358.7358,0,0,0,104.0132,141.33688Z"/><path d="M106.74171,145.30075h-.88964l1.03662-4.67188h.88965l-.09815.4209a1.28721,1.28721,0,0,1,1.02246-.50488,1.24929,1.24929,0,0,1,1.28174,1.40136,1.98585,1.98585,0,0,1-1.77881,2.14942,1.25788,1.25788,0,0,1-1.07861-.53223Zm1.56153-3.96387a1.02269,1.02269,0,0,0-.77735.40625l-.25927,1.17578a.93047.93047,0,0,0,.7915.38574,1.08753,1.08753,0,0,0,.99463-1.17676A.73581.73581,0,0,0,108.30324,141.33688Z"/><path d="M115.374,143.206h-2.08692l-.46923.80566h-1.14161l2.83643-4.67089h1.24658l.77051,4.67089h-1.03662Zm-1.625-.86133h1.54785l-.30811-2.14941Z"/><path d="M119.1758,140.54489a1.49969,1.49969,0,0,1,1.373.666l-.66552.51074a.80031.80031,0,0,0-.70752-.38476,1.09618,1.09618,0,0,0-1.06446,1.17578.77631.77631,0,0,0,.84766.792.93985.93985,0,0,0,.707-.33594l.4834.59473a1.749,1.749,0,0,1-1.28174.53223,1.50808,1.50808,0,0,1-1.65967-1.54A1.97046,1.97046,0,0,1,119.1758,140.54489Z"/><path d="M122.80324,140.54489a1.49969,1.49969,0,0,1,1.373.666l-.66552.51074a.80031.80031,0,0,0-.70752-.38476,1.09618,1.09618,0,0,0-1.06446,1.17578.77631.77631,0,0,0,.84766.792.93985.93985,0,0,0,.707-.33594l.4834.59473a1.749,1.749,0,0,1-1.28174.53223,1.50808,1.50808,0,0,1-1.65967-1.54A1.97046,1.97046,0,0,1,122.80324,140.54489Z"/><path d="M126.4175,140.54489a1.43867,1.43867,0,0,1,1.51953,1.51269,2.23284,2.23284,0,0,1-.06983.54688h-2.51465v.084a.83093.83093,0,0,0,.92481.7002,1.517,1.517,0,0,0,.85449-.252l.27979.60938a2.20417,2.20417,0,0,1-1.19727.34961c-1.06494,0-1.751-.57422-1.751-1.51953A1.97651,1.97651,0,0,1,126.4175,140.54489Zm.72119,1.38672a.69107.69107,0,0,0-.77735-.67872.96557.96557,0,0,0-.91748.749h1.69483Z"/><path d="M128.731,142.8984a1.73486,1.73486,0,0,0,1.19043.51856c.30127,0,.49024-.16114.49024-.35742,0-.20313-.28711-.3086-.62305-.41993-.4834-.16113-1.09277-.3789-1.09277-.95312a1.23253,1.23253,0,0,1,1.394-1.1416,1.99415,1.99415,0,0,1,1.42871.55371l-.44141.56054a1.40758,1.40758,0,0,0-1.00146-.43457c-.31543,0-.49024.14649-.49024.32911,0,.16113.252.26562.58106.37793.49756.15429,1.13476.37109,1.13476.98046,0,.64454-.53906,1.1836-1.46386,1.1836a2.20859,2.20859,0,0,1-1.59668-.60938Z"/><path d="M132.273,142.8984a1.73486,1.73486,0,0,0,1.19043.51856c.30127,0,.49024-.16114.49024-.35742,0-.20313-.28711-.3086-.62305-.41993-.4834-.16113-1.09277-.3789-1.09277-.95312a1.23253,1.23253,0,0,1,1.394-1.1416,1.99415,1.99415,0,0,1,1.42871.55371l-.4414.56054a1.40761,1.40761,0,0,0-1.00147-.43457c-.31543,0-.49023.14649-.49023.32911,0,.16113.25195.26562.581.37793.49756.15429,1.13477.37109,1.13477.98046,0,.64454-.53907,1.1836-1.46387,1.1836a2.20859,2.20859,0,0,1-1.59668-.60938Z"/><path d="M76.50441,177.65524a2.01418,2.01418,0,0,0,1.58252.7207c.49756,0,.70068-.28711.70068-.53906,0-.28027-.35742-.42774-.79883-.58789-.65136-.23145-1.46337-.53906-1.46337-1.373a1.63951,1.63951,0,0,1,1.8208-1.457,2.44721,2.44721,0,0,1,1.856.75586l-.61621.69336a1.84592,1.84592,0,0,0-1.36572-.59473c-.38525,0-.65137.23145-.65137.49024,0,.25293.35694.39941.79834.56054.65137.23145,1.478.5459,1.478,1.3584a1.65254,1.65254,0,0,1-1.83545,1.5625,2.69384,2.69384,0,0,1-2.11475-.86914Z"/><path d="M83.5508,178.35446H81.46388l-.46924.80664H79.853l2.83643-4.67188h1.24658l.77051,4.67188H83.66994Zm-1.625-.86133h1.54785l-.30811-2.14942Z"/><path d="M90.105,175.74313l-2.06592,3.418H87.605l-.56739-3.418-.74951,3.418h-.99463l1.02979-4.67188h1.3584l.47656,2.96875,1.793-2.96875h1.43554l-1.02929,4.67188H89.356Z"/><path d="M92.523,174.48922h.99415l-.833,3.7959h1.96777l-.189.876H91.49318Z"/><path d="M99.22267,177.48727h-.77734l-.36426,1.67383h-.99463l1.02979-4.67188h1.99609a1.35327,1.35327,0,0,1,1.44238,1.31641,1.61628,1.61628,0,0,1-1.33056,1.625l.64453,1.73047H99.76906Zm1.28858-1.584a.57.57,0,0,0-.59522-.55958H98.9214l-.28027,1.28809h1.03662A.738.738,0,0,0,100.51125,175.90329Z"/><path d="M103.8174,175.6943a1.43789,1.43789,0,0,1,1.51953,1.51172,2.2265,2.2265,0,0,1-.06982.54687h-2.51465v.084a.83092.83092,0,0,0,.9248.70019,1.517,1.517,0,0,0,.85449-.25195l.27979.60938a2.20491,2.20491,0,0,1-1.19727.35058c-1.06494,0-1.751-.57422-1.751-1.51953A1.9765,1.9765,0,0,1,103.8174,175.6943Zm.72119,1.38672a.69122.69122,0,0,0-.77734-.67969.96555.96555,0,0,0-.91748.749h1.69482Z"/><path d="M109.16261,174.48922h.89649l-1.03662,4.67188H108.126l.09815-.4209a1.27446,1.27446,0,0,1-1.01563.50488,1.24719,1.24719,0,0,1-1.28857-1.40137,1.97692,1.97692,0,0,1,1.78613-2.14941,1.27743,1.27743,0,0,1,1.07861.53125Zm-1.562,3.96387a1.00522,1.00522,0,0,0,.77783-.39941l.25879-1.17579a.9337.9337,0,0,0-.7915-.39257,1.09115,1.09115,0,0,0-.99414,1.17578A.73573.73573,0,0,0,107.6006,178.45309Z"/><path d="M110.83937,175.77829h.88965l-.74951,3.38281h-.88965Zm.72119-1.5625a.46.46,0,0,1,.47656.45507.60094.60094,0,0,1-.5957.60938.45521.45521,0,0,1-.47607-.45508A.6061.6061,0,0,1,111.56056,174.21579Z"/><path d="M112.79738,175.77829h.88965l-.10547.44726a1.53982,1.53982,0,0,1,1.19775-.52539l-.189.88281a1.41106,1.41106,0,0,0-.3291-.042,1.19543,1.19543,0,0,0-.84082.40625l-.48291,2.21387h-.88965Z"/><path d="M116.85158,175.6943a1.43789,1.43789,0,0,1,1.51953,1.51172,2.226,2.226,0,0,1-.06983.54687h-2.51464v.084a.83092.83092,0,0,0,.9248.70019,1.517,1.517,0,0,0,.85449-.25195l.27979.60938a2.20493,2.20493,0,0,1-1.19727.35058c-1.06494,0-1.751-.57422-1.751-1.51953A1.9765,1.9765,0,0,1,116.85158,175.6943Zm.72119,1.38672a.69122.69122,0,0,0-.77734-.67969.96555.96555,0,0,0-.91748.749h1.69482Z"/><path d="M120.93312,175.6943a1.49923,1.49923,0,0,1,1.373.665l-.66553.51074a.8003.8003,0,0,0-.70752-.38476,1.09617,1.09617,0,0,0-1.06445,1.17578.7763.7763,0,0,0,.84765.792.93661.93661,0,0,0,.707-.33594l.48339.59473a1.74934,1.74934,0,0,1-1.28173.5332,1.5088,1.5088,0,0,1-1.65967-1.541A1.97023,1.97023,0,0,1,120.93312,175.6943Z"/><path d="M122.97023,178.27829l.37793-1.73047h-.56006l.17481-.76953h.56054l.20313-.92481h.89648l-.20312.92481h.686l-.18164.76953h-.68652l-.32227,1.4707a.99531.99531,0,0,0-.01416.14062c0,.18165.10547.29395.32959.29395a.46249.46249,0,0,0,.24512-.06934l.03467.71387a1.03864,1.03864,0,0,1-.56006.14746c-.60254,0-1.00879-.23144-1.00879-.73633A1.07286,1.07286,0,0,1,122.97023,178.27829Z"/><path d="M72.27345,184.65524a2.01418,2.01418,0,0,0,1.58252.7207c.49756,0,.70069-.28711.70069-.53906,0-.28027-.35743-.42774-.79883-.58789-.65137-.23145-1.46338-.53906-1.46338-1.373a1.63951,1.63951,0,0,1,1.8208-1.457,2.44723,2.44723,0,0,1,1.856.75586l-.61621.69336a1.84594,1.84594,0,0,0-1.36573-.59473c-.38525,0-.65136.23145-.65136.49024,0,.25293.35693.39941.79834.56054.65136.23145,1.478.5459,1.478,1.3584a1.65254,1.65254,0,0,1-1.83545,1.5625,2.69382,2.69382,0,0,1-2.11474-.86914Z"/><path d="M79.2007,182.77829h.89648l-.74951,3.38281h-.89648l.09814-.4209a1.27444,1.27444,0,0,1-1.01562.50488,1.2472,1.2472,0,0,1-1.28858-1.40137,1.97692,1.97692,0,0,1,1.78614-2.14941,1.27743,1.27743,0,0,1,1.07861.53125Zm-1.2749,2.6748a1.00522,1.00522,0,0,0,.77783-.39941l.25879-1.17579a.9337.9337,0,0,0-.79151-.39257,1.09116,1.09116,0,0,0-.99414,1.17578A.73573.73573,0,0,0,77.9258,185.45309Z"/><path d="M83.49513,182.77829h.89649l-.74951,3.38281h-.89649l.09815-.4209a1.27446,1.27446,0,0,1-1.01563.50488,1.24719,1.24719,0,0,1-1.28857-1.40137,1.97692,1.97692,0,0,1,1.78613-2.14941,1.27743,1.27743,0,0,1,1.07861.53125Zm-1.2749,2.6748a1.00522,1.00522,0,0,0,.77783-.39941l.25879-1.17579a.9337.9337,0,0,0-.7915-.39257,1.09115,1.09115,0,0,0-.99414,1.17578A.73572.73572,0,0,0,82.22023,185.45309Z"/><path d="M85.22267,184.65524a2.01418,2.01418,0,0,0,1.58252.7207c.49756,0,.70068-.28711.70068-.53906,0-.28027-.35742-.42774-.79882-.58789-.65137-.23145-1.46338-.53906-1.46338-1.373a1.63951,1.63951,0,0,1,1.8208-1.457,2.44723,2.44723,0,0,1,1.856.75586l-.61622.69336a1.8459,1.8459,0,0,0-1.36572-.59473c-.38525,0-.65137.23145-.65137.49024,0,.25293.35694.39941.79834.56054.65137.23145,1.478.5459,1.478,1.3584a1.65254,1.65254,0,0,1-1.83545,1.5625,2.69382,2.69382,0,0,1-2.11474-.86914Z"/><path d="M94.03615,185.35446H91.94923l-.46923.80664H90.33839l2.83643-4.67188H94.4214l.77051,4.67188H94.15529Zm-1.625-.86133H93.959l-.30811-2.14942Z"/><path d="M96.39211,187.44918h-.88965l1.03662-4.67089h.88965l-.09815.41992a1.289,1.289,0,0,1,1.02246-.50391,1.24848,1.24848,0,0,1,1.28174,1.40039,1.98619,1.98619,0,0,1-1.77881,2.15039,1.25863,1.25863,0,0,1-1.07861-.5332Zm1.56152-3.96386a1.02269,1.02269,0,0,0-.77735.40625l-.25927,1.17578a.93047.93047,0,0,0,.7915.38574,1.08753,1.08753,0,0,0,.99463-1.17676A.73634.73634,0,0,0,97.95363,183.48532Z"/><path d="M100.68263,187.44918H99.793l1.03663-4.67089h.88964l-.09814.41992a1.289,1.289,0,0,1,1.02246-.50391,1.24848,1.24848,0,0,1,1.28174,1.40039,1.98622,1.98622,0,0,1-1.7793,2.15039,1.25835,1.25835,0,0,1-1.07812-.5332Zm1.56153-3.96386a1.02267,1.02267,0,0,0-.77735.40625l-.25928,1.17578a.9305.9305,0,0,0,.79151.38574,1.08753,1.08753,0,0,0,.99463-1.17676A.73634.73634,0,0,0,102.24416,183.48532Z"/><path d="M109.315,185.35446H107.228l-.46924.80664h-1.1416l2.83643-4.67188h1.24658l.77051,4.67188H109.4341Zm-1.625-.86133h1.54785l-.30811-2.14942Z"/><path d="M113.11671,182.6943a1.49922,1.49922,0,0,1,1.37305.665l-.66553.51074a.80029.80029,0,0,0-.70752-.38476,1.09617,1.09617,0,0,0-1.06445,1.17578.77631.77631,0,0,0,.84766.792.93659.93659,0,0,0,.707-.33594l.4834.59473a1.74938,1.74938,0,0,1-1.28174.5332,1.5088,1.5088,0,0,1-1.65967-1.541A1.97023,1.97023,0,0,1,113.11671,182.6943Z"/><path d="M116.74416,182.6943a1.4992,1.4992,0,0,1,1.373.665l-.66552.51074a.80031.80031,0,0,0-.70752-.38476,1.09618,1.09618,0,0,0-1.06446,1.17578.77631.77631,0,0,0,.84766.792.93659.93659,0,0,0,.707-.33594l.4834.59473a1.74934,1.74934,0,0,1-1.28174.5332,1.5088,1.5088,0,0,1-1.65967-1.541A1.97023,1.97023,0,0,1,116.74416,182.6943Z"/><path d="M120.35793,182.6943a1.43789,1.43789,0,0,1,1.51953,1.51172,2.226,2.226,0,0,1-.06983.54687H119.293v.084a.83092.83092,0,0,0,.92481.70019,1.517,1.517,0,0,0,.85449-.25195l.27979.60938a2.205,2.205,0,0,1-1.19727.35058c-1.06494,0-1.751-.57422-1.751-1.51953A1.97651,1.97651,0,0,1,120.35793,182.6943Zm.72119,1.38672a.69122.69122,0,0,0-.77735-.67969.96557.96557,0,0,0-.91748.749h1.69483Z"/><path d="M122.67189,185.04684a1.73486,1.73486,0,0,0,1.19043.51855c.30127,0,.49023-.16113.49023-.35742,0-.20312-.2871-.30859-.623-.41992-.4834-.16113-1.09278-.37891-1.09278-.95312,0-.58789.49024-1.14063,1.394-1.14063a1.99357,1.99357,0,0,1,1.42871.55274l-.44141.56054a1.40756,1.40756,0,0,0-1.00146-.43457c-.31494,0-.49024.14746-.49024.3291,0,.16114.252.26563.58106.37891.49756.15332,1.13476.37109,1.13476.98047,0,.64453-.53906,1.18359-1.46386,1.18359a2.21266,2.21266,0,0,1-1.59668-.60937Z"/><path d="M126.21388,185.04684a1.73486,1.73486,0,0,0,1.19043.51855c.30127,0,.49024-.16113.49024-.35742,0-.20312-.28711-.30859-.623-.41992-.4834-.16113-1.09277-.37891-1.09277-.95312,0-.58789.49023-1.14063,1.394-1.14063a1.99357,1.99357,0,0,1,1.42871.55274l-.44141.56054a1.40752,1.40752,0,0,0-1.00146-.43457c-.31494,0-.49024.14746-.49024.3291,0,.16114.252.26563.58106.37891.49756.15332,1.13477.37109,1.13477.98047,0,.64453-.53907,1.18359-1.46387,1.18359a2.21268,2.21268,0,0,1-1.59668-.60937Z"/><rect x="339.78708" y="14.65478" width="131.02489" height="18"/><path class="cls-5" d="M354.81154,22.07711v3.0586a2.05294,2.05294,0,0,1-2.26856,2.01855h-2.29882v-7.0957h2.28906A2.06147,2.06147,0,0,1,354.81154,22.07711Zm-1.54883-.01953a.56683.56683,0,0,0-.61963-.59961h-.84961v4.29688h.83936a.56994.56994,0,0,0,.62988-.59961Z"/><path class="cls-5" d="M358.66017,25.90524H357.211l-.28955,1.249h-1.50928l1.5293-7.0957h2.00879l1.53906,7.0957h-1.53906Zm-.71924-3.958-.4497,2.55859h.89941Z"/><path class="cls-5" d="M365.01711,21.458h-1.46924v5.69629h-1.54932V21.458h-1.479V20.05856h4.49756Z"/><path class="cls-5" d="M368.31447,25.90524h-1.44922l-.28955,1.249h-1.50928l1.5293-7.0957h2.00879l1.53906,7.0957h-1.53906Zm-.71924-3.958-.44971,2.55859h.89942Z"/><path class="cls-5" d="M372.84621,25.28512V21.9277a2.36977,2.36977,0,0,1,4.6875,0v.88965h-1.56934v-.91016c0-.35937-.25976-.59961-.76953-.59961-.52979,0-.79932.24024-.79932.59961v3.39844c0,.35937.26953.59961.78955.59961.51954,0,.7793-.24024.7793-.59961v-.90918h1.56934v.88867a2.36977,2.36977,0,0,1-4.6875,0Z"/><path class="cls-5" d="M379.981,21.458V23.0068h1.71924v1.39941H379.981v1.34864h2.11865v1.39941h-3.668v-7.0957h3.668V21.458Z"/><path class="cls-5" d="M387.4883,20.05856v7.0957h-1.35938l-1.84863-4.03711v4.03711h-1.34961v-7.0957h1.34961l1.84863,4.05762V20.05856Z"/><path class="cls-5" d="M392.73439,21.458h-1.46924v5.69629h-1.54931V21.458h-1.479V20.05856h4.49756Z"/><path class="cls-5" d="M395.043,21.458V23.0068h1.71875v1.39941H395.043v1.34864h2.11866v1.39941h-3.668v-7.0957h3.668V21.458Z"/><path class="cls-5" d="M400.28127,24.59567h-.73975v2.55859H397.9922v-7.0957h2.35889a1.94616,1.94616,0,0,1,2.11865,1.93848v.66015a1.85331,1.85331,0,0,1-.70947,1.499l.91943,2.998h-1.61914Zm-.73975-1.39942h.90967a.43575.43575,0,0,0,.46972-.46972V21.9277a.43313.43313,0,0,0-.46-.46973h-.91943Z"/><path class="cls-5" d="M406.24269,19.709l-1.40918,7.94531h-1.459l1.40918-7.94531Z"/><path class="cls-5" d="M406.86281,25.28512V21.9277a2.38711,2.38711,0,0,1,4.71728,0v3.35742a2.38711,2.38711,0,0,1-4.71728,0Zm3.16846.02051V21.90719c0-.35937-.24024-.59961-.79981-.59961-.57959,0-.81934.24024-.81934.59961v3.39844c0,.35937.23975.59961.80958.59961C409.791,25.90524,410.03127,25.665,410.03127,25.30563Z"/><path class="cls-5" d="M417.07082,20.05856v7.0957h-1.35938l-1.84912-4.03711v4.03711H412.5132v-7.0957h1.34912l1.84912,4.05762V20.05856Z"/><path class="cls-5" d="M418,23.2568h2.35888v1.29883H418Z"/><path class="cls-5" d="M425.75929,21.997v.91015a1.94516,1.94516,0,0,1-2.10888,1.94824h-.81934v2.29883h-1.54932v-7.0957h2.35889A1.95222,1.95222,0,0,1,425.75929,21.997Zm-1.54883-.06934a.43806.43806,0,0,0-.46-.46973h-.91943v1.999h.90967a.44407.44407,0,0,0,.46972-.48047Z"/><path class="cls-5" d="M428.88478,24.59567H428.145v2.55859h-1.54931v-7.0957h2.35889a1.94617,1.94617,0,0,1,2.11865,1.93848v.66015a1.85329,1.85329,0,0,1-.70948,1.499l.91944,2.998h-1.61914Zm-.73975-1.39942h.90967a.43576.43576,0,0,0,.46973-.46972V21.9277a.43314.43314,0,0,0-.46-.46973H428.145Z"/><path class="cls-5" d="M433.67921,21.458V23.0068h1.71924v1.39941h-1.71924v1.34864h2.11866v1.39941h-3.668v-7.0957h3.668V21.458Z"/><path class="cls-5" d="M442.42091,27.15426h-1.32959V22.58688l-1.00927,4.56738h-1.10938l-1.01953-4.60742v4.60742H436.6338v-7.0957h1.83887l1.04981,4.05762,1.04931-4.05762h1.84912Z"/><path class="cls-5" d="M443.41359,20.05856h1.54932v7.0957h-1.54932Z"/><path class="cls-5" d="M445.83009,25.05563v-.28027h1.54883v.44043a.73523.73523,0,0,0,.82959.72949.677.677,0,0,0,.71973-.68946c0-1.26953-2.96826-.96972-2.96826-3.26855a1.99787,1.99787,0,0,1,2.21875-2.0791,1.94084,1.94084,0,0,1,2.20849,1.98926v.43945h-1.54883v-.53906c0-.31055-.2998-.49024-.66992-.49024a.585.585,0,0,0-.64941.59961c0,1.01953,2.96826.79,2.96826,3.208a2.10132,2.10132,0,0,1-2.30859,2.18945A2.1527,2.1527,0,0,1,445.83009,25.05563Z"/><path class="cls-5" d="M452.91457,21.458V23.0068h1.71923v1.39941h-1.71923v1.34864h2.11865v1.39941h-3.668v-7.0957h3.668V21.458Z"/><path class="cls-5" d="M455.79445,25.05563v-.28027h1.54883v.44043a.73523.73523,0,0,0,.82959.72949.67694.67694,0,0,0,.71972-.68946c0-1.26953-2.96826-.96972-2.96826-3.26855a1.99787,1.99787,0,0,1,2.21875-2.0791,1.94084,1.94084,0,0,1,2.2085,1.98926v.43945h-1.54883v-.53906c0-.31055-.2998-.49024-.66992-.49024a.585.585,0,0,0-.64942.59961c0,1.01953,2.96827.79,2.96827,3.208a2.10133,2.10133,0,0,1-2.3086,2.18945A2.15269,2.15269,0,0,1,455.79445,25.05563Z"/><polyline class="cls-6" points="328.035 102.077 328.035 109.689 273.131 109.689 273.131 102.077"/><line class="cls-7" x1="300.58271" y1="133.20016" x2="300.58271" y2="109.95138"/><path d="M364.95461,100.89352h2.50878a3.6701,3.6701,0,1,1,0,7.33789h-2.50878Zm2.50878,6.52344a2.85524,2.85524,0,0,0,0-5.71h-1.59521v5.71Z"/><path d="M372.36916,101.46579a.55568.55568,0,0,1,1.11132,0,.55568.55568,0,1,1-1.11132,0Zm.14306,1.45214h.8252v5.31348h-.8252Z"/><path d="M374.877,102.91793h.82519v.85743a2.25875,2.25875,0,0,1,1.771-.96778v.84766a1.427,1.427,0,0,0-.33008-.0332,1.94367,1.94367,0,0,0-1.44092.84667v3.7627H374.877Z"/><path d="M380.70705,102.7861a2.5805,2.5805,0,0,1,2.55273,2.84863v.209H378.958a1.87221,1.87221,0,0,0,1.91407,1.8379,2.325,2.325,0,0,0,1.63964-.6709l.396.53906a2.88943,2.88943,0,0,1-2.1123.81348,2.79193,2.79193,0,0,1-.08838-5.57715Zm-1.749,2.45312h3.48731a1.72243,1.72243,0,0,0-1.749-1.77148A1.77268,1.77268,0,0,0,378.958,105.23922Z"/><path d="M386.82326,102.7861a2.27365,2.27365,0,0,1,1.94726.92383l-.55029.50586a1.57462,1.57462,0,0,0-1.353-.69336,2.06426,2.06426,0,0,0,0,4.10351,1.602,1.602,0,0,0,1.353-.69238l.55029.50586a2.27365,2.27365,0,0,1-1.94726.92383,2.79212,2.79212,0,0,1,0-5.57715Z"/><path d="M389.98,107.12008v-3.47656h-.88038v-.72559H389.98v-1.45214h.82519v1.45214h1.07813v.72559h-1.07813v3.30078c0,.39551.17578.68164.53906.68164a.7963.7963,0,0,0,.561-.21973l.2417.61622a1.347,1.347,0,0,1-.98975.34082A1.08716,1.08716,0,0,1,389.98,107.12008Z"/><path d="M392.63039,105.5693a2.63424,2.63424,0,1,1,2.62939,2.79395A2.60694,2.60694,0,0,1,392.63039,105.5693Zm4.38964,0a1.78642,1.78642,0,1,0-1.76025,2.05664A1.84749,1.84749,0,0,0,397.02,105.5693Z"/><path d="M399.12062,102.91793h.8252v.85743a2.25873,2.25873,0,0,1,1.771-.96778v.84766a1.427,1.427,0,0,0-.33008-.0332,1.94365,1.94365,0,0,0-1.44091.84667v3.7627h-.8252Z"/><path d="M402.92677,109.65036a.76432.76432,0,0,0,.792-.56055l.35205-.80371-2.22217-5.36817h.89111l1.771,4.35645,1.76025-4.35645h.90235l-2.6626,6.39161a1.57842,1.57842,0,0,1-1.562,1.07812,2.67739,2.67739,0,0,1-.605-.07715l.13183-.748A1.272,1.272,0,0,0,402.92677,109.65036Z"/><path d="M366.54933,117.50387a3.10317,3.10317,0,0,0,2.31055,1.0459c1.30908,0,1.72705-.7041,1.72705-1.26563,0-.87988-.89111-1.12207-1.85938-1.38574-1.17675-.30859-2.48632-.63867-2.48632-2.08008,0-1.21,1.07812-2.03515,2.51953-2.03515a3.44947,3.44947,0,0,1,2.60742,1.02344l-.55029.67089a2.80534,2.80534,0,0,0-2.123-.87988c-.88037,0-1.50732.47266-1.50732,1.166,0,.7373.84716.957,1.78222,1.21,1.19922.31933,2.56348.69336,2.56348,2.2334,0,1.06738-.72608,2.15625-2.70654,2.15625a3.63217,3.63217,0,0,1-2.81641-1.166Z"/><path d="M375.06349,113.7861a2.58051,2.58051,0,0,1,2.55274,2.84863v.209h-4.30176a1.87221,1.87221,0,0,0,1.91406,1.8379,2.325,2.325,0,0,0,1.63965-.6709l.396.53906a2.88946,2.88946,0,0,1-2.11231.81348,2.79193,2.79193,0,0,1-.08838-5.57715Zm-1.749,2.45312h3.4873a1.72243,1.72243,0,0,0-1.749-1.77148A1.77268,1.77268,0,0,0,373.31447,116.23922Z"/><path d="M378.836,113.91793h.8252v.85743a2.25873,2.25873,0,0,1,1.771-.96778v.84766a1.427,1.427,0,0,0-.33007-.0332,1.94367,1.94367,0,0,0-1.44092.84667v3.7627h-.8252Z"/><path d="M381.564,113.91793h.89111l1.771,4.35645,1.76025-4.35645h.90235l-2.21143,5.31348h-.90234Z"/><path d="M387.49318,112.46579a.55569.55569,0,0,1,1.11133,0,.55569.55569,0,1,1-1.11133,0Zm.14307,1.45214h.82519v5.31348h-.82519Z"/><path d="M392.34474,113.7861a2.27368,2.27368,0,0,1,1.94727.92383l-.5503.50586a1.57462,1.57462,0,0,0-1.353-.69336,2.06426,2.06426,0,0,0,0,4.10351,1.602,1.602,0,0,0,1.353-.69238l.5503.50586a2.27368,2.27368,0,0,1-1.94727.92383,2.79212,2.79212,0,0,1,0-5.57715Z"/><path d="M397.646,113.7861a2.58051,2.58051,0,0,1,2.55274,2.84863v.209H395.897a1.87221,1.87221,0,0,0,1.91406,1.8379,2.325,2.325,0,0,0,1.63965-.6709l.396.53906a2.88947,2.88947,0,0,1-2.11231.81348,2.79193,2.79193,0,0,1-.08838-5.57715Zm-1.749,2.45312h3.4873a1.72243,1.72243,0,0,0-1.749-1.77148A1.77268,1.77268,0,0,0,395.897,116.23922Z"/><path d="M401.38576,117.93356a2.41119,2.41119,0,0,0,1.74951.75879c.814,0,1.25391-.36328,1.25391-.87989,0-.583-.64893-.7705-1.36426-.94628-.90186-.209-1.9253-.45118-1.9253-1.55176,0-.82422.71534-1.52832,1.98047-1.52832a2.68983,2.68983,0,0,1,1.96924.76953l-.38476.57226a2.072,2.072,0,0,0-1.58448-.67089c-.72607,0-1.17724.33007-1.17724.80273,0,.51758.605.68262,1.29834.84766.92431.209,1.99121.47265,1.99121,1.64941,0,.8916-.71485,1.60645-2.09033,1.60645a2.825,2.825,0,0,1-2.145-.83594Z"/><path d="M288.20851,64.10055h3.12842a1.68991,1.68991,0,0,1,1.87891,1.69922,1.50593,1.50593,0,0,1-1.15967,1.52734,1.64967,1.64967,0,0,1,1.28955,1.64063,1.74293,1.74293,0,0,1-1.9292,1.79883h-3.208Zm2.93848,2.82813a.97664.97664,0,1,0,0-1.94922h-1.939v1.94922Zm.0498,2.957a1.00135,1.00135,0,0,0,1.11963-1.04883,1.01773,1.01773,0,0,0-1.11963-1.0293H289.208v2.07813Z"/><path d="M294.33839,64.10055h.99952v6.666h-.99952Z"/><path d="M299.75685,63.98922a3.13215,3.13215,0,0,1,2.63818,1.32032l-.80957.46875a2.29694,2.29694,0,0,0-1.82861-.89844,2.56721,2.56721,0,0,0,0,5.12695,2.58041,2.58041,0,0,0,1.689-.66016V68.14743h-2.13868v-.87891h3.13819v2.44727a3.54261,3.54261,0,0,1-2.68848,1.17968,3.45313,3.45313,0,1,1,0-6.90625Z"/><path d="M303.03859,67.958H305.437v.7793h-2.39844Z"/><path d="M306.228,64.10055h1v6.666h-1Z"/><path d="M308.46828,64.10055h2.80859a2.05034,2.05034,0,1,1,0,4.09766h-1.80908v2.56836h-.99951Zm2.67871.87891h-1.6792v2.33789h1.6792a1.17044,1.17044,0,1,0,0-2.33789Z"/><path d="M295.36623,79.0068h-3.26807l-.54,1.37891H290.459l2.64844-6.666H294.357l2.64844,6.666h-1.09961Zm-2.978-.88867h2.68848l-1.34961-3.5293Z"/><path d="M297.55812,73.71969h2.80859a2.05034,2.05034,0,1,1,0,4.09766h-1.80859v2.56836h-1Zm2.67871.87891h-1.67871v2.33984h1.67871a1.17136,1.17136,0,1,0,0-2.33984Z"/><path d="M309.01515,75.08883,306.856,80.38571h-.41943l-2.15869-5.29688v5.29688h-1v-6.666h1.42968L306.646,78.5068l1.93945-4.78711h1.42872v6.666h-.999Z"/><circle class="cls-8" cx="300.58271" cy="71.53819" r="19.5"/><path class="cls-9" d="M391.67143,82.745s-.81174.20472-1.684.33861a27.59338,27.59338,0,0,1-4.17463.28074,23.59727,23.59727,0,0,1-11.453-2.57143c-2.18387-1.22264-3.496-2.79045-3.496-4.5v9c0,3.90545,6.50235,7.07143,14.94895,7.07143a25.507,25.507,0,0,0,5.12681-.417,13.82153,13.82153,0,0,0,1.357-.30873"/><polyline class="cls-9" points="406.364 84.958 404.598 86.739 402.832 84.958"/><polyline class="cls-9" points="388.707 88.521 390.473 86.739 392.238 88.521"/><path class="cls-9" d="M404.30623,88.75922q-.09024.30854-.20689.605l-.00006.00017a7.05508,7.05508,0,0,1-13.63087-2.625"/><path class="cls-9" d="M390.71555,84.86422a7.05725,7.05725,0,0,1,13.87851,1.87512"/><path class="cls-9" d="M371.91086,60.85917c2.22765-2.63128,7.42164-4.49483,13.902-4.49483,8.4466,0,14.79173,3.166,14.79173,7.07143,0,1.42348-.91289,2.74764-2.47808,3.85714a17.67727,17.67727,0,0,1-6.44585,2.57143,26.116,26.116,0,0,1-5.8678.64286,27.56457,27.56457,0,0,1-6.025-.64286,17.67727,17.67727,0,0,1-6.44585-2.57143c-1.56519-1.1095-2.47808-2.43366-2.47808-3.85714v7.71429a3.98022,3.98022,0,0,0,1.04744,2.57143c2.22529,2.63352,7.4177,4.5,13.90151,4.5s11.519-1.86648,13.74429-4.5a3.98022,3.98022,0,0,0,1.04744-2.57143v5.14285a3.85051,3.85051,0,0,1-.85385,2.3355s-.50307.62268-.88188,1.03212"/><path d="M504.70461,107.13375c4.77967-.17025,4.78066,7.76122-.00024,7.5908C499.92009,114.89718,499.921,106.96055,504.70461,107.13375Zm0,.81446c-3.55236-.15573-3.55458,6.111.00015,5.96287C508.25522,114.05634,508.25307,107.79486,504.70461,107.94821Z"/><path d="M509.85207,109.27926h.82519v.85742a2.25859,2.25859,0,0,1,1.77051-.96777v.84668a1.48131,1.48131,0,0,0-.33008-.03223,1.94187,1.94187,0,0,0-1.44043.84668v3.7627h-.82519Z"/><path d="M516.91457,113.98727a2.29816,2.29816,0,0,1-1.76075.7373,1.7687,1.7687,0,0,1-1.85839-1.75976,1.74039,1.74039,0,0,1,1.85839-1.75,2.22178,2.22178,0,0,1,1.76075.72656v-.957c0-.71484-.57227-1.12207-1.34278-1.12207a2.10917,2.10917,0,0,0-1.62793.7373l-.38476-.57226a2.7788,2.7788,0,0,1,2.123-.87988c1.12207,0,2.05762.50586,2.05762,1.793v3.65235h-.82519Zm0-1.51758a1.77836,1.77836,0,0,0-1.46289-.66015,1.16911,1.16911,0,1,0,0,2.32128,1.77836,1.77836,0,0,0,1.46289-.66015Z"/><path d="M521.8423,109.14743a2.27432,2.27432,0,0,1,1.94727.92382l-.55079.50586a1.57381,1.57381,0,0,0-1.35253-.69336,2.0642,2.0642,0,0,0,0,4.10352,1.60118,1.60118,0,0,0,1.35253-.69238l.55079.50586a2.27432,2.27432,0,0,1-1.94727.92382,2.79212,2.79212,0,0,1,0-5.57714Z"/><path d="M525.05324,107.25485h.82519v7.33789h-.82519Z"/><path d="M529.94875,109.14743a2.5805,2.5805,0,0,1,2.55273,2.84863v.209h-4.30176a1.87158,1.87158,0,0,0,1.91406,1.83789,2.32581,2.32581,0,0,0,1.63965-.67089l.39551.53906a2.88942,2.88942,0,0,1-2.1123.81347,2.79194,2.79194,0,0,1-.08789-5.57714Zm-1.749,2.45312H531.687a1.72245,1.72245,0,0,0-1.749-1.77148A1.77234,1.77234,0,0,0,528.19972,111.60055Z"/><path d="M536.92238,107.25485h2.94824a2.21312,2.21312,0,1,1,0,4.42285h-2.03516v2.915h-.91308Zm2.83887.81347h-1.92579v2.79493h1.92579a1.39893,1.39893,0,1,0,0-2.79493Z"/><path d="M545.62355,109.14743a2.5805,2.5805,0,0,1,2.55273,2.84863v.209h-4.30175a1.87158,1.87158,0,0,0,1.91406,1.83789,2.32583,2.32583,0,0,0,1.63965-.67089l.39551.53906a2.88945,2.88945,0,0,1-2.11231.81347,2.79194,2.79194,0,0,1-.08789-5.57714Zm-1.749,2.45312h3.4873a1.72243,1.72243,0,0,0-1.749-1.77148A1.77234,1.77234,0,0,0,543.87453,111.60055Z"/><path d="M549.30812,111.93063a2.63424,2.63424,0,1,1,2.62988,2.79394A2.60733,2.60733,0,0,1,549.30812,111.93063Zm4.38965,0a1.78622,1.78622,0,1,0-1.75977,2.05664A1.84743,1.84743,0,0,0,553.69777,111.93063Z"/><path d="M556.01808,116.61715v-7.33789h.8252v.792a2.22006,2.22006,0,0,1,1.793-.92382c1.39746,0,2.36621,1.05566,2.36621,2.7832,0,1.71582-.96875,2.79394-2.36621,2.79394a2.17751,2.17751,0,0,1-1.793-.93457v2.82715Zm2.40918-6.7334a1.96608,1.96608,0,0,0-1.584.84766v2.39844a1.97438,1.97438,0,0,0,1.584.85742c1.06738,0,1.70606-.87988,1.70606-2.05664C560.13332,110.75289,559.49464,109.88375,558.42726,109.88375Z"/><path d="M562.44191,107.25485h.8252v7.33789h-.8252Z"/><path d="M567.33742,109.14743a2.5805,2.5805,0,0,1,2.55273,2.84863v.209h-4.30176a1.87159,1.87159,0,0,0,1.91407,1.83789,2.32583,2.32583,0,0,0,1.63965-.67089l.39549.53906a2.88938,2.88938,0,0,1-2.11229.81347,2.79194,2.79194,0,0,1-.08789-5.57714Zm-1.749,2.45312h3.48731a1.72243,1.72243,0,0,0-1.749-1.77148A1.77235,1.77235,0,0,0,565.58839,111.60055Z"/><path d="M571.46242,112.8652a3.10313,3.10313,0,0,0,2.31054,1.0459c1.3086,0,1.72657-.7041,1.72657-1.26563,0-.87988-.89063-1.12207-1.85938-1.38574-1.17676-.30859-2.48633-.63867-2.48633-2.08008,0-1.21,1.07813-2.03515,2.51954-2.03515a3.4495,3.4495,0,0,1,2.60742,1.02343l-.54981.6709a2.806,2.806,0,0,0-2.123-.87988c-.88086,0-1.50782.47266-1.50782,1.166,0,.73731.84766.957,1.78223,1.21,1.19922.31933,2.56348.69336,2.56348,2.23339,0,1.06739-.72559,2.15625-2.70606,2.15625a3.63394,3.63394,0,0,1-2.8164-1.166Z"/><path d="M577.57765,111.93063a2.63424,2.63424,0,1,1,2.62988,2.79394A2.60733,2.60733,0,0,1,577.57765,111.93063Zm4.38965,0a1.78622,1.78622,0,1,0-1.75977,2.05664A1.84743,1.84743,0,0,0,581.9673,111.93063Z"/><path d="M584.51906,110.00485h-.87988v-.72559h.87988V108.872a1.59615,1.59615,0,0,1,2.34277-1.54l-.209.61621a.91287.91287,0,0,0-.47266-.1211c-.53906,0-.83594.374-.83594,1.04493v.40722h1.07813v.72559h-1.07813v4.58789h-.82519Z"/><path d="M587.67531,113.48141v-3.47656h-.87988v-.72559h.87988v-1.45215h.82519v1.45215h1.07813v.72559H588.5005v3.30078c0,.39551.17578.68164.53907.68164a.79665.79665,0,0,0,.56152-.21973l.24121.61621a1.34644,1.34644,0,0,1-.98926.34082A1.0875,1.0875,0,0,1,587.67531,113.48141Z"/><path d="M524.70168,180.95309a3.10313,3.10313,0,0,0,2.31054,1.0459c1.3086,0,1.72656-.7041,1.72656-1.26563,0-.87988-.89062-1.12207-1.85937-1.38574-1.17676-.30859-2.48633-.63867-2.48633-2.08008,0-1.21,1.07813-2.03515,2.51952-2.03515a3.44951,3.44951,0,0,1,2.60743,1.02343l-.5498.6709a2.806,2.806,0,0,0-2.12305-.87988c-.88086,0-1.50781.47266-1.50781,1.166,0,.7373.84766.957,1.78223,1.21,1.19922.31933,2.56347.69336,2.56347,2.23339,0,1.06739-.72558,2.15625-2.70605,2.15625a3.634,3.634,0,0,1-2.81642-1.166Z"/><path d="M535.66945,181.0527H531.9507l-.64942,1.62793h-1.01171l2.94824-7.33789h1.13281l2.96,7.33789h-1.01269Zm-3.45508-.81445h3.17969l-1.584-4.082Z"/><path d="M538.396,175.34274h2.94922a2.21309,2.21309,0,1,1,0,4.42285h-2.03516v2.915H538.396Zm2.83887.81347h-1.92481v2.79493h1.92481a1.39893,1.39893,0,1,0,0-2.79493Z"/><path d="M547.91066,175.34274h4.80859v.81347h-3.89453v2.36622h3.81739v.81347h-3.81739v2.53028h3.89453v.81445h-4.80859Z"/><path d="M556.65578,179.76559h-1.46289v2.915h-.91309v-7.33789H557.228a2.13746,2.13746,0,0,1,2.29981,2.21094,2.02809,2.02809,0,0,1-1.90332,2.13476l1.98047,2.99219h-1.07813Zm.46289-3.60938h-1.92578v2.80567h1.92578a1.40407,1.40407,0,1,0,0-2.80567Z"/><path d="M561.07765,175.34274h2.94922a2.21309,2.21309,0,1,1,0,4.42285h-2.03516v2.915h-.91406Zm2.83887.81347h-1.92481v2.79493h1.92481a1.39893,1.39893,0,1,0,0-2.79493Z"/><line class="cls-10" x1="449.61008" y1="149.54503" x2="526.89765" y2="149.54503"/><path d="M526.9839,247.10543a3.663,3.663,0,0,1,3.74121-3.79589,3.29906,3.29906,0,0,1,2.81641,1.45214l-.77051.42871a2.48879,2.48879,0,0,0-2.0459-1.0664,2.98767,2.98767,0,0,0,0,5.96289,2.46239,2.46239,0,0,0,2.0459-1.06738l.78125.42871a3.33706,3.33706,0,0,1-2.82715,1.45215A3.66278,3.66278,0,0,1,526.9839,247.10543Z"/><path d="M538.38039,250.02047a2.59855,2.59855,0,0,1-1.89161.87989,1.49457,1.49457,0,0,1-1.69433-1.69434v-3.751h.82519v3.49805c0,.93555.47266,1.21,1.1875,1.21a2.03253,2.03253,0,0,0,1.57325-.80273V245.455h.82519v5.31348h-.82519Z"/><path d="M540.93214,249.47067a2.41236,2.41236,0,0,0,1.75.75879c.81348,0,1.25391-.36328,1.25391-.87989,0-.583-.64941-.7705-1.36426-.94628-.90234-.209-1.92578-.45118-1.92578-1.55176,0-.82422.71582-1.52832,1.98047-1.52832a2.69192,2.69192,0,0,1,1.96973.76953l-.38477.57226a2.07224,2.07224,0,0,0-1.585-.67089c-.72559,0-1.17676.33007-1.17676.80273,0,.51758.60449.68262,1.29785.84766.92481.209,1.99121.47265,1.99121,1.64941,0,.8916-.71484,1.60645-2.08984,1.60645a2.82613,2.82613,0,0,1-2.14551-.83594Z"/><path d="M546.355,249.65719v-3.47656h-.87989V245.455h.87989v-1.45215h.82519V245.455h1.07813v.72559h-1.07813v3.30078c0,.39551.17578.68164.53906.68164a.79665.79665,0,0,0,.56153-.21973l.24121.61622a1.3465,1.3465,0,0,1-.98926.34082A1.0875,1.0875,0,0,1,546.355,249.65719Z"/><path d="M549.22609,248.10641a2.63424,2.63424,0,1,1,2.62891,2.79395A2.60656,2.60656,0,0,1,549.22609,248.10641Zm4.38965,0a1.78664,1.78664,0,1,0-1.76074,2.05664A1.84756,1.84756,0,0,0,553.61574,248.10641Z"/><path d="M562.35011,247.16012c0-.6709-.29785-1.10058-.97949-1.10058a1.8604,1.8604,0,0,0-1.4082.81445v3.89453h-.8252v-3.6084c0-.6709-.28613-1.10058-.97949-1.10058a1.85528,1.85528,0,0,0-1.39648.82519v3.88379h-.8252V245.455h.8252v.76953a2.29548,2.29548,0,0,1,1.71582-.90136,1.36435,1.36435,0,0,1,1.43066.98925,2.23666,2.23666,0,0,1,1.78223-.98925c.96777,0,1.48437.53906,1.48437,1.60547v3.83984h-.82422Z"/><polyline class="cls-10" points="526.898 217.633 449.754 217.633 449.754 81.457 526.898 81.457"/><path d="M473.45558,68.082l-.48291.47656-.32226,1.43555h-.99463l1.02978-4.6709h.99414l-.44092,2.00293,2.03809-2.00293h1.28174l-2.33936,2.1914,1.43555,2.4795h-1.16943Z"/><path d="M478.13185,66.52731A1.43866,1.43866,0,0,1,479.65138,68.04a2.2329,2.2329,0,0,1-.06982.54688h-2.51465v.084a.83092.83092,0,0,0,.9248.7002,1.51705,1.51705,0,0,0,.8545-.25195l.27978.60937a2.20411,2.20411,0,0,1-1.19726.34961c-1.06495,0-1.751-.57422-1.751-1.51953A1.9765,1.9765,0,0,1,478.13185,66.52731ZM478.853,67.914a.69106.69106,0,0,0-.77734-.67871.96557.96557,0,0,0-.91748.749H478.853Z"/><path d="M480.83058,66.61129h.88965l-.10547.44825a1.53981,1.53981,0,0,1,1.19776-.5254l-.189.88282a1.41092,1.41092,0,0,0-.3291-.042,1.19165,1.19165,0,0,0-.84082.40625l-.48291,2.2129h-.88965Z"/><path d="M483.626,69.99411h-.88965l1.02979-4.6709h.88916l-.37793,1.709a1.28721,1.28721,0,0,1,1.02246-.50488,1.24929,1.24929,0,0,1,1.28174,1.40137,1.98588,1.98588,0,0,1-1.7793,2.14941,1.25759,1.25759,0,0,1-1.07812-.53223Zm1.27442-2.67481a1.0227,1.0227,0,0,0-.77735.40625l-.25928,1.17578a.9305.9305,0,0,0,.79151.38574,1.08752,1.08752,0,0,0,.99463-1.17675A.73581.73581,0,0,0,484.90041,67.3193Z"/><path d="M489.13771,66.52731A1.43866,1.43866,0,0,1,490.65724,68.04a2.2329,2.2329,0,0,1-.06982.54688h-2.51465v.084a.83092.83092,0,0,0,.9248.7002,1.51705,1.51705,0,0,0,.8545-.25195l.27978.60937a2.20411,2.20411,0,0,1-1.19726.34961c-1.065,0-1.751-.57422-1.751-1.51953A1.9765,1.9765,0,0,1,489.13771,66.52731Zm.72119,1.38672a.69106.69106,0,0,0-.77734-.67871.96557.96557,0,0,0-.91748.749h1.69482Z"/><path d="M491.83693,66.61129h.88965l-.10547.44825a1.5398,1.5398,0,0,1,1.19775-.5254l-.189.88282a1.41092,1.41092,0,0,0-.3291-.042,1.19165,1.19165,0,0,0-.84082.40625l-.48291,2.2129h-.88965Z"/><path d="M495.88771,66.52731a1.51178,1.51178,0,0,1,1.68115,1.541,1.98084,1.98084,0,0,1-1.96142,2.00977,1.50058,1.50058,0,0,1-1.67383-1.5332A1.98184,1.98184,0,0,1,495.88771,66.52731Zm-.02783.792a1.10087,1.10087,0,0,0-1.00879,1.17578.729.729,0,0,0,.7915.792,1.09638,1.09638,0,0,0,1.00147-1.17675A.72649.72649,0,0,0,495.85988,67.3193Z"/><path d="M498.38039,68.88082a1.73478,1.73478,0,0,0,1.19043.51856c.30127,0,.49023-.16113.49023-.35742,0-.20313-.28711-.3086-.62305-.41992-.48339-.16114-1.09277-.37891-1.09277-.95313a1.23253,1.23253,0,0,1,1.394-1.1416,1.99415,1.99415,0,0,1,1.42871.55371l-.4414.56055a1.40757,1.40757,0,0,0-1.00147-.43457c-.31543,0-.49023.14648-.49023.3291,0,.16113.252.26562.58105.37793.49756.15429,1.13477.37109,1.13477.98047,0,.64453-.53906,1.18359-1.46387,1.18359a2.20859,2.20859,0,0,1-1.59668-.60938Z"/><path d="M503.81447,65.18258h.67236l-2.75928,4.95215H501.062Z"/><path d="M467.76906,75.03317h-2.20654l-.43409,1.96094h-.99463l1.02979-4.6709h.99414l-.39893,1.835H467.958l.40625-1.835h1.00147l-1.02979,4.6709h-1.00146Z"/><path d="M471.50685,73.52731A1.43866,1.43866,0,0,1,473.02638,75.04a2.2329,2.2329,0,0,1-.06982.54688h-2.51465v.084a.83092.83092,0,0,0,.9248.7002,1.51705,1.51705,0,0,0,.8545-.25195l.27978.60937a2.20411,2.20411,0,0,1-1.19726.34961c-1.06495,0-1.751-.57422-1.751-1.51953A1.9765,1.9765,0,0,1,471.50685,73.52731ZM472.228,74.914a.69106.69106,0,0,0-.77734-.67871.96557.96557,0,0,0-.91748.749H472.228Z"/><path d="M476.56447,73.61129h.89648l-.74951,3.38282H475.815l.09814-.41993a1.27624,1.27624,0,0,1-1.01562.50391,1.2464,1.2464,0,0,1-1.28858-1.40039,1.97784,1.97784,0,0,1,1.78613-2.15039,1.27821,1.27821,0,0,1,1.07862.53223Zm-1.2749,2.67578a1.00519,1.00519,0,0,0,.77783-.39941l.25879-1.17676a.93546.93546,0,0,0-.79151-.3916,1.09117,1.09117,0,0,0-.99414,1.17578A.73626.73626,0,0,0,475.28957,76.28707Z"/><path d="M481.15334,72.32321h.89648l-1.03662,4.6709h-.89649l.09815-.41993a1.27626,1.27626,0,0,1-1.01563.50391,1.2464,1.2464,0,0,1-1.28857-1.40039,1.97784,1.97784,0,0,1,1.78613-2.15039,1.27823,1.27823,0,0,1,1.07862.53223Zm-1.562,3.96386a1.00521,1.00521,0,0,0,.77784-.39941l.25879-1.17676a.93547.93547,0,0,0-.79151-.3916,1.09117,1.09117,0,0,0-.99414,1.17578A.73626.73626,0,0,0,479.59132,76.28707Z"/><path d="M484.15431,73.52731A1.43866,1.43866,0,0,1,485.67384,75.04a2.2329,2.2329,0,0,1-.06982.54688h-2.51465v.084a.83093.83093,0,0,0,.92481.7002,1.517,1.517,0,0,0,.85449-.25195l.27978.60937a2.20411,2.20411,0,0,1-1.19726.34961c-1.06494,0-1.751-.57422-1.751-1.51953A1.9765,1.9765,0,0,1,484.15431,73.52731Zm.72119,1.38672a.69106.69106,0,0,0-.77734-.67871.96557.96557,0,0,0-.91748.749h1.69482Z"/><path d="M486.85353,73.61129h.88965l-.10547.44825a1.5398,1.5398,0,0,1,1.19775-.5254l-.189.88282a1.41092,1.41092,0,0,0-.3291-.042,1.19165,1.19165,0,0,0-.84082.40625l-.48291,2.2129H486.104Z"/><path d="M491.607,72.32321h2.269a1.1481,1.1481,0,0,1,1.26758,1.12011,1.2337,1.2337,0,0,1-1.06445,1.21875.94845.94845,0,0,1,.67236.94532,1.4257,1.4257,0,0,1-1.625,1.38672h-2.54932Zm1.63183,2.72363H491.999l-.23828,1.09961h1.28174a.64623.64623,0,0,0,.71435-.62305A.47163.47163,0,0,0,493.23878,75.04684Zm.35694-1.877h-1.17627l-.23145,1.03027h1.25391a.56726.56726,0,0,0,.63721-.58887A.45482.45482,0,0,0,493.59572,73.16989Z"/><path d="M498.48439,73.61129h.89648l-.74951,3.38282h-.89648l.09814-.41993a1.27624,1.27624,0,0,1-1.01562.50391,1.2464,1.2464,0,0,1-1.28858-1.40039,1.97784,1.97784,0,0,1,1.78614-2.15039,1.2782,1.2782,0,0,1,1.07861.53223Zm-1.2749,2.67578a1.00519,1.00519,0,0,0,.77783-.39941l.25879-1.17676a.93544.93544,0,0,0-.7915-.3916,1.09117,1.09117,0,0,0-.99415,1.17578A.73626.73626,0,0,0,497.20949,76.28707Z"/><path d="M500.063,75.88082a1.73482,1.73482,0,0,0,1.19043.51856c.30127,0,.49024-.16113.49024-.35742,0-.20313-.28711-.3086-.62305-.41992-.4834-.16114-1.09277-.37891-1.09277-.95313a1.23253,1.23253,0,0,1,1.394-1.1416,1.99415,1.99415,0,0,1,1.42871.55371l-.4414.56055a1.40757,1.40757,0,0,0-1.00147-.43457c-.31543,0-.49023.14648-.49023.3291,0,.16113.25195.26562.58105.37793.49756.15429,1.13477.37109,1.13477.98047,0,.64453-.53907,1.18359-1.46387,1.18359a2.20859,2.20859,0,0,1-1.59668-.60938Z"/><path d="M505.28468,73.52731A1.43866,1.43866,0,0,1,506.80421,75.04a2.2329,2.2329,0,0,1-.06982.54688h-2.51465v.084a.83093.83093,0,0,0,.92481.7002,1.517,1.517,0,0,0,.85449-.25195l.27978.60937a2.20411,2.20411,0,0,1-1.19726.34961c-1.06494,0-1.751-.57422-1.751-1.51953A1.9765,1.9765,0,0,1,505.28468,73.52731Zm.72119,1.38672a.69106.69106,0,0,0-.77734-.67871.96557.96557,0,0,0-.91748.749h1.69482Z"/><path d="M510.6299,72.32321h.89648l-1.03662,4.6709h-.89648l.09814-.41993a1.27624,1.27624,0,0,1-1.01562.50391,1.2464,1.2464,0,0,1-1.28858-1.40039,1.97784,1.97784,0,0,1,1.78614-2.15039,1.2782,1.2782,0,0,1,1.07861.53223Zm-1.562,3.96386a1.00519,1.00519,0,0,0,.77783-.39941l.25879-1.17676a.93546.93546,0,0,0-.79151-.3916,1.09117,1.09117,0,0,0-.99414,1.17578A.73626.73626,0,0,0,509.06789,76.28707Z"/><path d="M473.45558,136.19723l-.48291.47656-.32226,1.43555h-.99463l1.02978-4.6709h.99414l-.44092,2.00293,2.03809-2.00293h1.28174l-2.33936,2.19141,1.43555,2.47949h-1.16943Z"/><path d="M478.13185,134.64254a1.43867,1.43867,0,0,1,1.51953,1.5127,2.23274,2.23274,0,0,1-.06982.54687h-2.51465v.084a.83092.83092,0,0,0,.9248.70019,1.51705,1.51705,0,0,0,.8545-.25195l.27978.60937a2.204,2.204,0,0,1-1.19726.34961c-1.06495,0-1.751-.57421-1.751-1.51953A1.9765,1.9765,0,0,1,478.13185,134.64254Zm.72119,1.38672a.69106.69106,0,0,0-.77734-.67871.96557.96557,0,0,0-.91748.749H478.853Z"/><path d="M480.83058,134.72653h.88965l-.10547.44824a1.5398,1.5398,0,0,1,1.19776-.52539l-.189.88281a1.41106,1.41106,0,0,0-.3291-.042,1.19161,1.19161,0,0,0-.84082.40625l-.48291,2.21289h-.88965Z"/><path d="M483.626,138.10934h-.88965l1.02979-4.6709h.88916l-.37793,1.709a1.28719,1.28719,0,0,1,1.02246-.50489,1.24929,1.24929,0,0,1,1.28174,1.40137,1.98587,1.98587,0,0,1-1.7793,2.14941,1.26,1.26,0,0,1-1.07812-.53222Zm1.27442-2.6748a1.02267,1.02267,0,0,0-.77735.40625l-.25928,1.17578a.9305.9305,0,0,0,.79151.38574,1.08753,1.08753,0,0,0,.99463-1.17676A.7358.7358,0,0,0,484.90041,135.43454Z"/><path d="M489.13771,134.64254a1.43867,1.43867,0,0,1,1.51953,1.5127,2.23274,2.23274,0,0,1-.06982.54687h-2.51465v.084a.83092.83092,0,0,0,.9248.70019,1.51705,1.51705,0,0,0,.8545-.25195l.27978.60937a2.204,2.204,0,0,1-1.19726.34961c-1.065,0-1.751-.57421-1.751-1.51953A1.9765,1.9765,0,0,1,489.13771,134.64254Zm.72119,1.38672a.69106.69106,0,0,0-.77734-.67871.96557.96557,0,0,0-.91748.749h1.69482Z"/><path d="M491.83693,134.72653h.88965l-.10547.44824a1.53979,1.53979,0,0,1,1.19775-.52539l-.189.88281a1.41106,1.41106,0,0,0-.3291-.042,1.19161,1.19161,0,0,0-.84082.40625l-.48291,2.21289h-.88965Z"/><path d="M495.88771,134.64254a1.51179,1.51179,0,0,1,1.68115,1.541,1.98084,1.98084,0,0,1-1.96142,2.00976,1.50058,1.50058,0,0,1-1.67383-1.5332A1.98184,1.98184,0,0,1,495.88771,134.64254Zm-.02783.792a1.10086,1.10086,0,0,0-1.00879,1.17578.72951.72951,0,0,0,.7915.792,1.09639,1.09639,0,0,0,1.00147-1.17676A.72649.72649,0,0,0,495.85988,135.43454Z"/><path d="M498.38039,136.99606a1.73482,1.73482,0,0,0,1.19043.51855c.30127,0,.49023-.16113.49023-.35742,0-.20312-.28711-.30859-.62305-.41992-.48339-.16113-1.09277-.37891-1.09277-.95313a1.23253,1.23253,0,0,1,1.394-1.1416,1.9901,1.9901,0,0,1,1.42871.55371l-.4414.55957a1.411,1.411,0,0,0-1.00147-.43359c-.31543,0-.49023.14648-.49023.3291,0,.16113.252.26563.58105.37793.49756.1543,1.13477.3711,1.13477.98047,0,.64453-.53906,1.18359-1.46387,1.18359a2.20862,2.20862,0,0,1-1.59668-.60937Z"/><path d="M503.81447,133.29782h.67236L501.72755,138.25H501.062Z"/><path d="M467.76906,143.1484h-2.20654l-.43409,1.96094h-.99463l1.02979-4.6709h.99414l-.39893,1.835H467.958l.40625-1.835h1.00147l-1.02979,4.6709h-1.00146Z"/><path d="M471.50685,141.64254a1.43867,1.43867,0,0,1,1.51953,1.5127,2.23274,2.23274,0,0,1-.06982.54687h-2.51465v.084a.83092.83092,0,0,0,.9248.70019,1.51705,1.51705,0,0,0,.8545-.25195l.27978.60937a2.204,2.204,0,0,1-1.19726.34961c-1.06495,0-1.751-.57421-1.751-1.51953A1.9765,1.9765,0,0,1,471.50685,141.64254Zm.72119,1.38672a.69106.69106,0,0,0-.77734-.67871.96557.96557,0,0,0-.91748.749H472.228Z"/><path d="M476.56447,141.72653h.89648l-.74951,3.38281H475.815l.09814-.41992a1.27623,1.27623,0,0,1-1.01562.5039,1.2464,1.2464,0,0,1-1.28858-1.40039,1.97784,1.97784,0,0,1,1.78613-2.15039,1.27821,1.27821,0,0,1,1.07862.53223Zm-1.2749,2.67578a1.0052,1.0052,0,0,0,.77783-.39942l.25879-1.17675a.93543.93543,0,0,0-.79151-.3916,1.09116,1.09116,0,0,0-.99414,1.17578A.73626.73626,0,0,0,475.28957,144.40231Z"/><path d="M481.15334,140.43844h.89648l-1.03662,4.6709h-.89649l.09815-.41992a1.27625,1.27625,0,0,1-1.01563.5039,1.2464,1.2464,0,0,1-1.28857-1.40039,1.97784,1.97784,0,0,1,1.78613-2.15039,1.27823,1.27823,0,0,1,1.07862.53223Zm-1.562,3.96387a1.00522,1.00522,0,0,0,.77784-.39942l.25879-1.17675a.93545.93545,0,0,0-.79151-.3916,1.09116,1.09116,0,0,0-.99414,1.17578A.73626.73626,0,0,0,479.59132,144.40231Z"/><path d="M484.15431,141.64254a1.43867,1.43867,0,0,1,1.51953,1.5127,2.23274,2.23274,0,0,1-.06982.54687h-2.51465v.084a.83092.83092,0,0,0,.92481.70019,1.517,1.517,0,0,0,.85449-.25195l.27978.60937a2.204,2.204,0,0,1-1.19726.34961c-1.06494,0-1.751-.57421-1.751-1.51953A1.9765,1.9765,0,0,1,484.15431,141.64254Zm.72119,1.38672a.69106.69106,0,0,0-.77734-.67871.96557.96557,0,0,0-.91748.749h1.69482Z"/><path d="M486.85353,141.72653h.88965l-.10547.44824a1.53979,1.53979,0,0,1,1.19775-.52539l-.189.88281a1.41106,1.41106,0,0,0-.3291-.042,1.19161,1.19161,0,0,0-.84082.40625l-.48291,2.21289H486.104Z"/><path d="M491.607,140.43844h2.269a1.14756,1.14756,0,0,1,1.26758,1.12012,1.23371,1.23371,0,0,1-1.06445,1.21875.94844.94844,0,0,1,.67236.94531,1.4257,1.4257,0,0,1-1.625,1.38672h-2.54932Zm1.63183,2.72363H491.999l-.23828,1.09961h1.28174a.64622.64622,0,0,0,.71435-.623A.47164.47164,0,0,0,493.23878,143.16207Zm.35694-1.87695h-1.17627l-.23145,1.03027h1.25391a.56726.56726,0,0,0,.63721-.58886A.45482.45482,0,0,0,493.59572,141.28512Z"/><path d="M498.48439,141.72653h.89648l-.74951,3.38281h-.89648l.09814-.41992a1.27623,1.27623,0,0,1-1.01562.5039,1.2464,1.2464,0,0,1-1.28858-1.40039,1.97784,1.97784,0,0,1,1.78614-2.15039,1.2782,1.2782,0,0,1,1.07861.53223Zm-1.2749,2.67578a1.0052,1.0052,0,0,0,.77783-.39942l.25879-1.17675a.93541.93541,0,0,0-.7915-.3916,1.09116,1.09116,0,0,0-.99415,1.17578A.73626.73626,0,0,0,497.20949,144.40231Z"/><path d="M500.063,143.99606a1.73486,1.73486,0,0,0,1.19043.51855c.30127,0,.49024-.16113.49024-.35742,0-.20312-.28711-.30859-.62305-.41992-.4834-.16113-1.09277-.37891-1.09277-.95313a1.23253,1.23253,0,0,1,1.394-1.1416,1.9901,1.9901,0,0,1,1.42871.55371l-.4414.55957a1.411,1.411,0,0,0-1.00147-.43359c-.31543,0-.49023.14648-.49023.3291,0,.16113.25195.26563.58105.37793.49756.1543,1.13477.3711,1.13477.98047,0,.64453-.53907,1.18359-1.46387,1.18359a2.20862,2.20862,0,0,1-1.59668-.60937Z"/><path d="M505.28468,141.64254a1.43867,1.43867,0,0,1,1.51953,1.5127,2.23274,2.23274,0,0,1-.06982.54687h-2.51465v.084a.83092.83092,0,0,0,.92481.70019,1.517,1.517,0,0,0,.85449-.25195l.27978.60937a2.204,2.204,0,0,1-1.19726.34961c-1.06494,0-1.751-.57421-1.751-1.51953A1.9765,1.9765,0,0,1,505.28468,141.64254Zm.72119,1.38672a.69106.69106,0,0,0-.77734-.67871.96557.96557,0,0,0-.91748.749h1.69482Z"/><path d="M510.6299,140.43844h.89648l-1.03662,4.6709h-.89648l.09814-.41992a1.27623,1.27623,0,0,1-1.01562.5039,1.2464,1.2464,0,0,1-1.28858-1.40039,1.97784,1.97784,0,0,1,1.78614-2.15039,1.2782,1.2782,0,0,1,1.07861.53223Zm-1.562,3.96387a1.0052,1.0052,0,0,0,.77783-.39942l.25879-1.17675a.93543.93543,0,0,0-.79151-.3916,1.09116,1.09116,0,0,0-.99414,1.17578A.73626.73626,0,0,0,509.06789,144.40231Z"/><path d="M466.249,211.55172h-.77734l-.36426,1.67383h-.99463l1.02978-4.6709h1.9961a1.35328,1.35328,0,0,1,1.44238,1.31641,1.61553,1.61553,0,0,1-1.33057,1.625l.64453,1.72949h-1.0996Zm1.28856-1.582a.56957.56957,0,0,0-.5952-.56055h-.99463l-.28027,1.28907h1.03662A.73854.73854,0,0,0,467.5376,209.96969Z"/><path d="M470.84377,209.75875a1.43945,1.43945,0,0,1,1.51953,1.51368,2.23063,2.23063,0,0,1-.06983.54589h-2.51465v.084a.83092.83092,0,0,0,.92481.70019,1.517,1.517,0,0,0,.85449-.25195l.27979.60938a2.19593,2.19593,0,0,1-1.19727.34961c-1.06494,0-1.751-.57422-1.751-1.51954A1.97651,1.97651,0,0,1,470.84377,209.75875Zm.72119,1.38672a.69107.69107,0,0,0-.77736-.67871.96557.96557,0,0,0-.91747.749H471.565Z"/><path d="M472.99269,209.84274h.92481l.35693,2.35351,1.41455-2.35351h.981l-2.1084,3.38281h-.95947Z"/><path d="M478.53712,209.75875a1.43945,1.43945,0,0,1,1.51954,1.51368,2.23063,2.23063,0,0,1-.06983.54589h-2.51465v.084a.83092.83092,0,0,0,.92481.70019,1.517,1.517,0,0,0,.85449-.25195l.27979.60938a2.19593,2.19593,0,0,1-1.19727.34961c-1.06494,0-1.751-.57422-1.751-1.51954A1.9765,1.9765,0,0,1,478.53712,209.75875Zm.7212,1.38672a.69108.69108,0,0,0-.77735-.67871.96557.96557,0,0,0-.91748.749h1.69483Z"/><path d="M481.23586,209.84274h.88964l-.10547.44922a1.5398,1.5398,0,0,1,1.19776-.52539l-.189.88183a1.411,1.411,0,0,0-.3291-.042,1.19165,1.19165,0,0,0-.84082.40625l-.48291,2.21289h-.88965Z"/><path d="M483.60255,212.11227a1.73486,1.73486,0,0,0,1.19043.51855c.30127,0,.49024-.16113.49024-.35742,0-.20312-.28711-.30761-.623-.41992-.4834-.16113-1.09277-.37793-1.09277-.95215a1.23261,1.23261,0,0,1,1.394-1.14258,1.99419,1.99419,0,0,1,1.42871.55371l-.4414.56055a1.41152,1.41152,0,0,0-1.00147-.43457c-.31494,0-.49023.14649-.49023.3291,0,.16114.252.2666.58105.37793.49756.1543,1.13477.3711,1.13477.98047,0,.64453-.53907,1.1836-1.46387,1.1836a2.20459,2.20459,0,0,1-1.59668-.60938Z"/><path d="M488.82423,209.75875a1.43945,1.43945,0,0,1,1.51954,1.51368,2.23063,2.23063,0,0,1-.06983.54589h-2.51465v.084a.83092.83092,0,0,0,.92481.70019,1.517,1.517,0,0,0,.85449-.25195l.27978.60938a2.19587,2.19587,0,0,1-1.19726.34961c-1.06494,0-1.751-.57422-1.751-1.51954A1.9765,1.9765,0,0,1,488.82423,209.75875Zm.7212,1.38672a.69108.69108,0,0,0-.77735-.67871.96557.96557,0,0,0-.91748.749h1.69483Z"/><path d="M493.59035,208.55465h2.01709a1.30209,1.30209,0,0,1,1.42138,1.2959,1.74381,1.74381,0,0,1-1.93261,1.72266h-1.17676l-.36426,1.65234h-.99463Zm2.395,1.39356a.53971.53971,0,0,0-.58838-.53907h-1.00147l-.28027,1.28907H495.145A.756.756,0,0,0,495.98537,209.94821Z"/><path d="M497.80031,209.84274H498.69l-.10547.44922a1.53979,1.53979,0,0,1,1.19775-.52539l-.189.88183a1.41114,1.41114,0,0,0-.3291-.042,1.19161,1.19161,0,0,0-.84082.40625l-.48291,2.21289h-.88965Z"/><path d="M501.85109,209.75875a1.51179,1.51179,0,0,1,1.68115,1.541,1.98084,1.98084,0,0,1-1.96142,2.00977,1.50035,1.50035,0,0,1-1.67383-1.53321A1.98184,1.98184,0,0,1,501.85109,209.75875Zm-.02783.792a1.10118,1.10118,0,0,0-1.00879,1.17675.72877.72877,0,0,0,.7915.791,1.09606,1.09606,0,0,0,1.00147-1.17578A.72677.72677,0,0,0,501.82326,210.55075Z"/><path d="M505.51711,212.08493l-1.02979,1.14062H503.4717l1.57617-1.73633-.75635-1.64648h.95947l.46924,1.04394.93164-1.04394h1.02246l-1.50586,1.64648.8335,1.73633h-.9668Z"/><path d="M508.03859,213.79977a.45637.45637,0,0,0,.41992-.23731l.21045-.31542-.60254-3.4043h.92481l.35693,2.35351,1.415-2.35351h.98047l-2.46533,3.93652a1.4105,1.4105,0,0,1-1.31006.81934,1.80406,1.80406,0,0,1-.56739-.084l.29444-.7705A.94823.94823,0,0,0,508.03859,213.79977Z"/><path d="M151.56447,107.27633a3.10315,3.10315,0,0,0,2.31055,1.0459c1.30908,0,1.727-.7041,1.727-1.26562,0-.87989-.89112-1.12207-1.85938-1.38575-1.17676-.30859-2.48633-.63867-2.48633-2.08007,0-1.21,1.07813-2.03516,2.51953-2.03516a3.44949,3.44949,0,0,1,2.60743,1.02344l-.5503.67089a2.80531,2.80531,0,0,0-2.123-.87988c-.88037,0-1.50733.47266-1.50733,1.166,0,.7373.84717.957,1.78223,1.21,1.19922.31933,2.56348.69336,2.56348,2.2334,0,1.06738-.72608,2.15625-2.70655,2.15625a3.63546,3.63546,0,0,1-2.8164-1.166Z"/><path d="M161.09084,108.3984a2.29708,2.29708,0,0,1-1.76026.73731,1.76884,1.76884,0,0,1-1.85888-1.75977,1.74053,1.74053,0,0,1,1.85888-1.75,2.22147,2.22147,0,0,1,1.76026.72656v-.957c0-.71484-.57178-1.12207-1.34229-1.12207a2.10844,2.10844,0,0,0-1.62793.73731l-.38525-.57227a2.77986,2.77986,0,0,1,2.12353-.87988c1.12207,0,2.05713.50586,2.05713,1.793v3.65234h-.82519Zm0-1.51758a1.77771,1.77771,0,0,0-1.46289-.66015,1.16912,1.16912,0,1,0,0,2.32129,1.77772,1.77772,0,0,0,1.46289-.66016Z"/><path d="M166.77736,108.3984a2.297,2.297,0,0,1-1.76025.73731,1.76884,1.76884,0,0,1-1.85889-1.75977,1.74053,1.74053,0,0,1,1.85889-1.75,2.22145,2.22145,0,0,1,1.76025.72656v-.957c0-.71484-.57178-1.12207-1.34229-1.12207a2.10844,2.10844,0,0,0-1.62793.73731l-.38525-.57227a2.77988,2.77988,0,0,1,2.12354-.87988c1.12207,0,2.05712.50586,2.05712,1.793v3.65234h-.82519Zm0-1.51758a1.7777,1.7777,0,0,0-1.46289-.66015,1.16911,1.16911,0,1,0,0,2.32129,1.77771,1.77771,0,0,0,1.46289-.66016Z"/><path d="M169.27394,107.27633a3.10317,3.10317,0,0,0,2.31055,1.0459c1.30908,0,1.72705-.7041,1.72705-1.26562,0-.87989-.89111-1.12207-1.85938-1.38575-1.17675-.30859-2.48632-.63867-2.48632-2.08007,0-1.21,1.07812-2.03516,2.51953-2.03516a3.44947,3.44947,0,0,1,2.60742,1.02344l-.55029.67089a2.80534,2.80534,0,0,0-2.123-.87988c-.88037,0-1.50733.47266-1.50733,1.166,0,.7373.84717.957,1.78223,1.21,1.19922.31933,2.56348.69336,2.56348,2.2334,0,1.06738-.72608,2.15625-2.70655,2.15625a3.63548,3.63548,0,0,1-2.8164-1.166Z"/><path class="cls-11" d="M172.68313,92.43447H146.02356a6.74843,6.74843,0,0,1-.0285-13.49646l0-.00146a10.005,10.005,0,0,1,9.978-10.0318,9.892,9.892,0,0,1,4.11275.89236,11.6611,11.6611,0,0,1,22.59666,4.11942,11.80051,11.80051,0,0,1-.40227,3.05553,8.4304,8.4304,0,0,1-4.59836,15.46241h-1.66622"/><path d="M24.02248,107.37594H20.30373l-.64893,1.62793H18.64259l2.94825-7.33789h1.1333l2.95947,7.33789H24.6714Zm-3.45459-.81445h3.1792l-1.584-4.082Z"/><path d="M26.24367,108.36618l2.92627-3.9502H26.24367v-.72559h4.00439v.627L27.29982,108.289H30.292v.71484H26.24367Z"/><path d="M35.16457,108.25582a2.59967,2.59967,0,0,1-1.89209.87989,1.49457,1.49457,0,0,1-1.69434-1.69434v-3.751h.8252v3.49805c0,.93555.47314,1.21,1.188,1.21a2.03411,2.03411,0,0,0,1.57325-.80273v-3.90528h.82519v5.31348h-.82519Z"/><path d="M37.52931,103.69039h.8252v.85743a2.25873,2.25873,0,0,1,1.771-.96778v.84668a1.48742,1.48742,0,0,0-.33007-.03222,1.94365,1.94365,0,0,0-1.44092.84668v3.76269h-.8252Z"/><path d="M43.35939,103.55856a2.5805,2.5805,0,0,1,2.55273,2.84863v.209H41.61037a1.8722,1.8722,0,0,0,1.91406,1.83789,2.325,2.325,0,0,0,1.63965-.6709l.396.53906a2.88943,2.88943,0,0,1-2.1123.81348,2.79193,2.79193,0,0,1-.08838-5.57715Zm-1.749,2.45312h3.4873a1.72243,1.72243,0,0,0-1.749-1.77148A1.77268,1.77268,0,0,0,41.61037,106.01168Z"/><path d="M54.51369,107.37594H50.79494l-.64893,1.62793H49.1338l2.94825-7.33789h1.1333l2.95947,7.33789H55.16261Zm-3.45459-.81445h3.1792l-1.584-4.082Z"/><path d="M57.02052,101.666h2.50879a3.6701,3.6701,0,1,1,0,7.33789H57.02052Zm2.50879,6.52344a2.85524,2.85524,0,0,0,0-5.71H57.9341v5.71Z"/><path class="cls-11" d="M51.20081,92.43447H24.54124a6.74843,6.74843,0,0,1-.0285-13.49646l0-.00146a10.005,10.005,0,0,1,9.978-10.0318,9.89212,9.89212,0,0,1,4.11276.89236,11.66109,11.66109,0,0,1,22.59665,4.11942,11.80051,11.80051,0,0,1-.40227,3.05553,8.4304,8.4304,0,0,1-4.59836,15.46241H54.53326"/><rect class="cls-12" x="526.89764" y="129.71652" width="36.62657" height="36.62657" rx="5.30511"/><g id="Group_13232-2" data-name="Group 13232-2"><path id="Path_61042" data-name="Path 61042" class="cls-13" d="M539.19757,149.40759a3.01663,3.01663,0,0,1-2.39851,1.02243,2.32295,2.32295,0,1,1,0-4.63985,3.01666,3.01666,0,0,1,2.39851,1.02243V145.24a1.76,1.76,0,0,0-1.96475-1.72974,2.71441,2.71441,0,0,0-2.24134,1.101l-.27506-.27507a3.0159,3.0159,0,0,1,2.55418-1.18036c1.37609,0,2.39851.70807,2.39851,2.08415v5.0328h-.43224v-.86525Zm0-2.16274a2.8149,2.8149,0,0,0-2.28063-1.058,1.94663,1.94663,0,0,0-2.07934,1.80417q-.00433.0613-.00481.12281a1.924,1.924,0,0,0,1.91422,1.93363q.08508.00042.16993-.00666a2.76275,2.76275,0,0,0,2.28063-1.06626Z"/><path id="Path_61043" data-name="Path 61043" class="cls-13" d="M541.989,152.9041V143.307h.43224v1.17961a3.10509,3.10509,0,0,1,2.5149-1.33074c1.88918,0,3.10658,1.45467,3.10658,3.61742,0,2.202-1.21891,3.65671-3.10658,3.65671a3.11715,3.11715,0,0,1-2.51641-1.37608v3.85394Zm2.94714-9.35526a3.03782,3.03782,0,0,0-2.51641,1.37608v3.73531a3.0144,3.0144,0,0,0,2.51641,1.41538c1.69044,0,2.63428-1.45468,2.63428-3.26376C547.57273,144.965,546.62889,143.54884,544.93618,143.54884Z"/><path id="Path_61044" data-name="Path 61044" class="cls-13" d="M550.01054,152.9041V143.307h.43224v1.17961a3.10509,3.10509,0,0,1,2.51489-1.33074c1.88919,0,3.10659,1.45467,3.10659,3.61742,0,2.202-1.21891,3.65671-3.10659,3.65671a3.11714,3.11714,0,0,1-2.5164-1.37608v3.85394Zm2.94713-9.35526a3.03782,3.03782,0,0,0-2.5164,1.37608v3.73531a3.01439,3.01439,0,0,0,2.5164,1.41538c1.69045,0,2.63429-1.45468,2.63429-3.26376C555.59422,144.965,554.65039,143.54884,552.95767,143.54884Z"/></g><rect class="cls-12" x="526.89764" y="197.80432" width="36.62657" height="36.62657" rx="5.30511"/><g id="Group_13232-2-2" data-name="Group 13232-2"><path id="Path_61042-2" data-name="Path 61042" class="cls-13" d="M539.19757,217.49539a3.01666,3.01666,0,0,1-2.39851,1.02243,2.32295,2.32295,0,1,1,0-4.63985,3.01663,3.01663,0,0,1,2.39851,1.02243v-1.57256a1.76,1.76,0,0,0-1.96475-1.72974,2.71438,2.71438,0,0,0-2.24134,1.101l-.27506-.27507a3.0159,3.0159,0,0,1,2.55418-1.18036c1.37609,0,2.39851.70806,2.39851,2.08415v5.0328h-.43224v-.86525Zm0-2.16274a2.8149,2.8149,0,0,0-2.28063-1.058,1.94662,1.94662,0,0,0-2.07934,1.80416q-.00433.06132-.00481.12281a1.924,1.924,0,0,0,1.91422,1.93363q.08508.00044.16993-.00666a2.76274,2.76274,0,0,0,2.28063-1.06625Z"/><path id="Path_61043-2" data-name="Path 61043" class="cls-13" d="M541.989,220.9919v-9.59708h.43224v1.17961a3.10506,3.10506,0,0,1,2.5149-1.33074c1.88918,0,3.10658,1.45467,3.10658,3.61741,0,2.202-1.21891,3.65672-3.10658,3.65672a3.11717,3.11717,0,0,1-2.51641-1.37608v3.85394Zm2.94714-9.35527a3.03786,3.03786,0,0,0-2.51641,1.37609V216.748a3.01442,3.01442,0,0,0,2.51641,1.41538c1.69044,0,2.63428-1.45468,2.63428-3.26377C547.57273,213.05277,546.62889,211.63663,544.93618,211.63663Z"/><path id="Path_61044-2" data-name="Path 61044" class="cls-13" d="M550.01054,220.9919v-9.59708h.43224v1.17961a3.10506,3.10506,0,0,1,2.51489-1.33074c1.88919,0,3.10659,1.45467,3.10659,3.61741,0,2.202-1.21891,3.65672-3.10659,3.65672a3.11717,3.11717,0,0,1-2.5164-1.37608v3.85394Zm2.94713-9.35527a3.03785,3.03785,0,0,0-2.5164,1.37609V216.748a3.01442,3.01442,0,0,0,2.5164,1.41538c1.69045,0,2.63429-1.45468,2.63429-3.26377C555.59422,213.05277,554.65039,211.63663,552.95767,211.63663Z"/></g><rect class="cls-12" x="526.89764" y="61.62873" width="36.62657" height="36.62657" rx="5.30511"/><g id="Group_13232-2-3" data-name="Group 13232-2"><path id="Path_61042-3" data-name="Path 61042" class="cls-13" d="M539.19757,81.3198a3.01666,3.01666,0,0,1-2.39851,1.02243,2.32295,2.32295,0,1,1,0-4.63985,3.01666,3.01666,0,0,1,2.39851,1.02242V77.15225a1.76,1.76,0,0,0-1.96475-1.72975,2.71441,2.71441,0,0,0-2.24134,1.101l-.27506-.27506a3.01588,3.01588,0,0,1,2.55418-1.18037c1.37609,0,2.39851.70807,2.39851,2.08416v5.0328h-.43224V81.3198Zm0-2.16275a2.81486,2.81486,0,0,0-2.28063-1.05794,1.94662,1.94662,0,0,0-2.07934,1.80416q-.00433.0613-.00481.12281a1.924,1.924,0,0,0,1.91422,1.93363q.08508.00043.16993-.00666a2.76275,2.76275,0,0,0,2.28063-1.06626Z"/><path id="Path_61043-3" data-name="Path 61043" class="cls-13" d="M541.989,84.81631V75.21923h.43224v1.17961a3.1051,3.1051,0,0,1,2.5149-1.33075c1.88918,0,3.10658,1.45468,3.10658,3.61742,0,2.202-1.21891,3.65672-3.10658,3.65672a3.11718,3.11718,0,0,1-2.51641-1.37609v3.85395Zm2.94714-9.35527a3.03781,3.03781,0,0,0-2.51641,1.37609v3.7353a3.0144,3.0144,0,0,0,2.51641,1.41538c1.69044,0,2.63428-1.45467,2.63428-3.26376C547.57273,76.87718,546.62889,75.461,544.93618,75.461Z"/><path id="Path_61044-3" data-name="Path 61044" class="cls-13" d="M550.01054,84.81631V75.21923h.43224v1.17961a3.1051,3.1051,0,0,1,2.51489-1.33075c1.88919,0,3.10659,1.45468,3.10659,3.61742,0,2.202-1.21891,3.65672-3.10659,3.65672a3.11718,3.11718,0,0,1-2.5164-1.37609v3.85395Zm2.94713-9.35527a3.0378,3.0378,0,0,0-2.5164,1.37609v3.7353a3.01439,3.01439,0,0,0,2.5164,1.41538c1.69045,0,2.63429-1.45467,2.63429-3.26376C555.59422,76.87718,554.65039,75.461,552.95767,75.461Z"/></g><rect class="cls-1" x="226.58437" y="133.76705" width="147.99668" height="74.31706"/><g id="big-ip-series"><path class="cls-14" d="M301.78476,159.00872H245.45917a1.21188,1.21188,0,0,0-1.19987,1.21747v4.12672a1.212,1.212,0,0,0,1.19987,1.21679h56.32559a1.21233,1.21233,0,0,0,1.19954-1.21679v-4.12672A1.21225,1.21225,0,0,0,301.78476,159.00872Z"/><path class="cls-14" d="M301.78476,167.57692H245.45917a1.21248,1.21248,0,0,0-1.19987,1.21741v7.89691a1.21277,1.21277,0,0,0,1.19987,1.21748h56.32559a1.21315,1.21315,0,0,0,1.19954-1.21748v-7.89691A1.21286,1.21286,0,0,0,301.78476,167.57692Z"/><path class="cls-14" d="M291.75907,173.48842a.78875.78875,0,0,1-.78425.79473H280.885a.78866.78866,0,0,1-.78486-.79473v-.74175a.788.788,0,0,1,.78486-.79377h10.08981a.78809.78809,0,0,1,.78425.79377Z"/><path class="cls-14" d="M297.95767,175.1392a1.85823,1.85823,0,1,1,1.82974-1.85623A1.843,1.843,0,0,1,297.95767,175.1392Z"/><rect class="cls-15" x="262.05024" y="172.54934" width="0.92956" height="0.9432" rx="0.46478"/><rect class="cls-15" x="265.38952" y="172.54934" width="0.92956" height="0.9432" rx="0.46478"/><rect class="cls-15" x="268.7288" y="172.54934" width="0.92956" height="0.9432" rx="0.46478"/><rect class="cls-15" x="272.06809" y="172.54934" width="0.92956" height="0.9432" rx="0.46478"/><rect class="cls-15" x="275.40737" y="172.54934" width="0.92956" height="0.9432" rx="0.46478"/><line class="cls-14" x1="246.05788" y1="163.75496" x2="301.10223" y2="163.75496"/></g><path d="M255.252,185.51657h2.94873a2.2131,2.2131,0,1,1,0,4.42285h-2.03516v2.915H255.252Zm2.83887.81347h-1.9253V189.125h1.9253a1.39892,1.39892,0,1,0,0-2.79492Z"/><path d="M265.16408,189.35641c0-.93555-.48438-1.21094-1.19922-1.21094a2.08924,2.08924,0,0,0-1.57324.8252v3.88379h-.8252v-7.33789h.8252v2.79394a2.64218,2.64218,0,0,1,1.90332-.90137,1.49411,1.49411,0,0,1,1.69384,1.69336v3.752h-.8247Z"/><path d="M267.814,194.2734a.7643.7643,0,0,0,.792-.56054l.352-.80372-2.22216-5.36816h.89111l1.771,4.35645,1.76026-4.35645h.90234l-2.6626,6.3916a1.57842,1.57842,0,0,1-1.562,1.07813,2.686,2.686,0,0,1-.60547-.07715l.13233-.74805A1.272,1.272,0,0,0,267.814,194.2734Z"/><path d="M272.77443,191.55661a2.41119,2.41119,0,0,0,1.74951.75878c.814,0,1.25391-.36328,1.25391-.87988,0-.583-.64893-.77051-1.36426-.94629-.90186-.209-1.92529-.45117-1.92529-1.55176,0-.82421.71533-1.52832,1.98047-1.52832a2.68979,2.68979,0,0,1,1.96923.76954l-.38476.57226a2.072,2.072,0,0,0-1.58447-.6709c-.72608,0-1.17725.33008-1.17725.80274,0,.51758.605.68261,1.29834.84765.92432.209,1.99121.47266,1.99121,1.64942,0,.8916-.71484,1.60644-2.09033,1.60644a2.825,2.825,0,0,1-2.145-.83593Z"/><path d="M277.66945,186.08883a.55569.55569,0,0,1,1.11133,0,.55569.55569,0,1,1-1.11133,0Zm.14307,1.45215h.82519v5.31348h-.82519Z"/><path d="M282.521,187.40914a2.27368,2.27368,0,0,1,1.94727.92383l-.5503.50586a1.57464,1.57464,0,0,0-1.353-.69336,2.06426,2.06426,0,0,0,0,4.10352,1.602,1.602,0,0,0,1.353-.69238l.5503.50585a2.27365,2.27365,0,0,1-1.94727.92383,2.79212,2.79212,0,0,1,0-5.57715Z"/><path d="M288.83449,192.249a2.29708,2.29708,0,0,1-1.76026.7373,1.76923,1.76923,0,0,1-1.85937-1.75976,1.74093,1.74093,0,0,1,1.85937-1.75,2.22143,2.22143,0,0,1,1.76026.72656v-.957c0-.71485-.57178-1.12207-1.34229-1.12207a2.10846,2.10846,0,0,0-1.62793.7373l-.38525-.57226a2.77987,2.77987,0,0,1,2.12353-.87989c1.12207,0,2.05713.50586,2.05713,1.793v3.65235h-.82519Zm0-1.51758a1.77771,1.77771,0,0,0-1.46289-.66016,1.16911,1.16911,0,1,0,0,2.32129,1.7777,1.7777,0,0,0,1.46289-.66015Z"/><path d="M291.19923,185.51657h.8252v7.33789h-.8252Z"/><path d="M323.47511,185.51559H324.52l2.47559,6.33691,2.4751-6.33691h1.04541l-2.95947,7.33789h-1.1333Z"/><path d="M331.18605,186.08786a.55569.55569,0,0,1,1.11133,0,.55569.55569,0,1,1-1.11133,0Zm.14307,1.45214h.82519v5.31348h-.82519Z"/><path d="M333.69386,187.54h.8252v.85743a2.25873,2.25873,0,0,1,1.771-.96778v.84766a1.427,1.427,0,0,0-.33007-.0332,1.94365,1.94365,0,0,0-1.44092.84668v3.76269h-.8252Z"/><path d="M337.37892,191.74215v-3.47656h-.88037V187.54h.88037v-1.45214h.8252V187.54h1.07812v.72559h-1.07812v3.30078c0,.39551.17578.68164.53906.68164a.79632.79632,0,0,0,.561-.21972l.2417.61621a1.34693,1.34693,0,0,1-.98974.34082A1.08717,1.08717,0,0,1,337.37892,191.74215Z"/><path d="M343.92433,192.10543a2.59965,2.59965,0,0,1-1.89209.87989,1.49456,1.49456,0,0,1-1.69433-1.69434V187.54h.82519v3.49805c0,.93555.47315,1.21,1.188,1.21a2.03407,2.03407,0,0,0,1.57324-.80273V187.54h.8252v5.31348h-.8252Z"/><path d="M349.61134,192.248a2.297,2.297,0,0,1-1.76025.73731,1.76884,1.76884,0,0,1-1.85889-1.75977,1.74053,1.74053,0,0,1,1.85889-1.75,2.22145,2.22145,0,0,1,1.76025.72656v-.957c0-.71484-.57177-1.12207-1.34228-1.12207a2.10841,2.10841,0,0,0-1.62793.73731l-.38526-.57227a2.7799,2.7799,0,0,1,2.12354-.87988c1.12207,0,2.05713.50586,2.05713,1.793v3.65234h-.8252Zm0-1.51758a1.77769,1.77769,0,0,0-1.46289-.66015,1.16911,1.16911,0,1,0,0,2.32129,1.77769,1.77769,0,0,0,1.46289-.66016Z"/><path d="M351.9756,185.51559h.8252v7.33789h-.8252Z"/><circle class="cls-16" cx="338.50033" cy="164.07452" r="16.2"/><path d="M328.22023,157.92379h2.59814a1.40359,1.40359,0,0,1,1.56055,1.41114,1.25107,1.25107,0,0,1-.96289,1.26953,1.36929,1.36929,0,0,1,1.0708,1.36133,1.44707,1.44707,0,0,1-1.60205,1.49414h-2.66455Zm2.44043,2.34864a.81079.81079,0,1,0,0-1.61817h-1.61035v1.61817Zm.0415,2.457a.83207.83207,0,0,0,.92969-.8711.845.845,0,0,0-.92969-.85547h-1.65185v1.72657Z"/><path d="M333.313,157.92379h.83008v5.53614H333.313Z"/><path d="M337.813,157.832a2.6031,2.6031,0,0,1,2.19141,1.0957l-.67285.39062a1.90548,1.90548,0,0,0-1.51856-.74707,2.132,2.132,0,0,0,0,4.25782,2.149,2.149,0,0,0,1.40332-.54786v-.99609h-1.77685v-.73047h2.60693v2.03418a2.94793,2.94793,0,0,1-2.2334.97949,2.86816,2.86816,0,1,1,0-5.73632Z"/><path d="M340.54054,161.12789h1.99219v.64747h-1.99219Z"/><path d="M343.19,157.92379H344.02v5.53614H343.19Z"/><path d="M345.05128,157.92379h2.333a1.70289,1.70289,0,1,1,0,3.40332h-1.50293v2.13282h-.83008Zm2.22461.73047h-1.39453v1.94238h1.39453a.97238.97238,0,1,0,0-1.94238Z"/><path d="M333.5,165.58h.94628l1.76807,4.63184,1.77637-4.63184h.94629l-2.19971,5.53614h-1.0376Z"/><path d="M339.398,165.58h3.71875v.73047H340.228v1.61817h2.83008v.73046H340.228v1.72657h2.88867v.73047H339.398Z"/><path class="cls-17" d="M285.04347,100.38961a2.053,2.053,0,0,0,1.48487.62989c.54589,0,.812-.25879.812-.52539,0-.35059-.40576-.46973-.94532-.59571-.76318-.1748-1.74414-.38476-1.74414-1.42871,0-.77734.67237-1.4082,1.772-1.4082a2.59745,2.59745,0,0,1,1.82129.65234l-.55323.72852a1.99254,1.99254,0,0,0-1.33789-.51172c-.44824,0-.68652.19629-.68652.47656,0,.31445.39258.41309.93164.53906.77051.17481,1.751.40625,1.751,1.44336,0,.85352-.60938,1.498-1.87012,1.498a2.6909,2.6909,0,0,1-1.98193-.74219Z"/><path class="cls-17" d="M292.16359,100.998h-2.0874l-.29395.80567h-1.09277l1.80713-4.67188h1.24658l1.7998,4.67188h-1.08545Zm-1.82129-.86133h1.54785l-.77-2.14355Z"/><path class="cls-17" d="M298.25978,98.44235l-1.31689,3.36133h-.43409l-1.3164-3.36133v3.36133h-.99463V97.1318h1.39355l1.13477,2.91406,1.13428-2.91406h1.40088v4.67188h-1.00147Z"/><path class="cls-17" d="M300.43507,97.1318h.99463v3.79688h1.97461v.875h-2.96924Z"/><path class="cls-17" d="M306.02834,97.1318h.99414v4.67188h-.99414Z"/><path class="cls-17" d="M310.48634,101.37594a1.325,1.325,0,0,1-1.04345.51172c-.8545,0-1.499-.64453-1.499-1.77148,0-1.10743.63721-1.7793,1.499-1.7793a1.3034,1.3034,0,0,1,1.04345.51758V97.1318h.89649v4.67188h-.89649Zm0-1.8623a.98041.98041,0,0,0-.7705-.38575.99424.99424,0,0,0,0,1.96875.9804.9804,0,0,0,.7705-.38574Z"/><path class="cls-17" d="M312.49367,97.1318h2.18506a1.50058,1.50058,0,1,1,0,2.99805H313.4883v1.67383h-.99463Zm2.05176.85547H313.4883v1.28809h1.05713a.64536.64536,0,1,0,0-1.28809Z"/><path class="cls-17" d="M26.105,117.48239a2.0492,2.0492,0,0,0,1.48486.62988c.5459,0,.812-.25879.812-.52539,0-.34961-.40576-.46875-.94531-.5957-.76319-.17481-1.74414-.38477-1.74414-1.42872,0-.77734.67236-1.40722,1.772-1.40722a2.59678,2.59678,0,0,1,1.82129.65137l-.55322.72851a1.99262,1.99262,0,0,0-1.33789-.51172c-.44825,0-.68653.19629-.68653.47656,0,.31543.39258.41309.93164.53907.77051.1748,1.751.40625,1.751,1.44336,0,.85351-.60938,1.498-1.87012,1.498a2.691,2.691,0,0,1-1.98193-.74218Z"/><path class="cls-17" d="M33.22511,118.09079h-2.0874l-.29394.80566H29.751l1.80713-4.6709H32.8047l1.79981,4.6709H33.51906Zm-1.82129-.86133h1.54786l-.77-2.14258Z"/><path class="cls-17" d="M39.3213,115.53512l-1.31689,3.36133h-.43408l-1.31641-3.36133v3.36133h-.99463v-4.6709h1.39356l1.13476,2.91309,1.13428-2.91309h1.40088v4.6709H39.3213Z"/><path class="cls-17" d="M41.4966,114.22555h.99463v3.7959h1.97461v.875H41.4966Z"/><path class="cls-17" d="M47.08986,114.22555H48.084v4.6709h-.99414Z"/><path class="cls-17" d="M51.54787,118.46969a1.327,1.327,0,0,1-1.04346.51074c-.85449,0-1.499-.64453-1.499-1.77148,0-1.10645.6372-1.7793,1.499-1.7793a1.30164,1.30164,0,0,1,1.04346.51856v-1.72266h.89648v4.6709h-.89648Zm0-1.86328a.97962.97962,0,0,0-.77051-.38477.99369.99369,0,0,0,0,1.96778.97759.97759,0,0,0,.77051-.38574Z"/><path class="cls-17" d="M53.55519,114.22555h2.18506a1.50011,1.50011,0,1,1,0,2.99707H54.54982v1.67383h-.99463ZM55.607,115.08H54.54982v1.28809H55.607a.64536.64536,0,1,0,0-1.28809Z"/><line class="cls-18" x1="56.60059" y1="168.89736" x2="58.10059" y2="168.89736"/><line class="cls-19" x1="61.01765" y1="168.89736" x2="141.23698" y2="168.89736"/><line class="cls-18" x1="142.69551" y1="168.89736" x2="144.19551" y2="168.89736"/><polygon class="cls-20" points="59.914 172.987 60.596 172.255 56.984 168.898 60.596 165.541 59.914 164.808 55.516 168.898 59.914 172.987"/><polygon class="cls-20" points="140.882 172.987 140.2 172.255 143.812 168.898 140.2 165.541 140.882 164.808 145.28 168.898 140.882 172.987"/><line class="cls-21" x1="56.60059" y1="150.17837" x2="58.10059" y2="150.17837"/><line class="cls-22" x1="61.01765" y1="150.17837" x2="141.23698" y2="150.17837"/><line class="cls-21" x1="142.69551" y1="150.17837" x2="144.19551" y2="150.17837"/><polygon class="cls-23" points="59.914 154.268 60.596 153.536 56.984 150.179 60.596 146.822 59.914 146.09 55.516 150.179 59.914 154.268"/><polygon class="cls-23" points="140.882 154.268 140.2 153.536 143.812 150.179 140.2 146.822 140.882 146.09 145.28 150.179 140.882 154.268"/></svg>