<svg id="Layer_1" data-name="Layer 1" xmlns="http://www.w3.org/2000/svg" xmlns:xlink="http://www.w3.org/1999/xlink" viewBox="0 0 575.22643 179.46284"><defs><style>.cls-1,.cls-12,.cls-13,.cls-14,.cls-17,.cls-18,.cls-2,.cls-9{fill:none;}.cls-2{stroke:#999;}.cls-12,.cls-13,.cls-14,.cls-17,.cls-18,.cls-2,.cls-9{stroke-linecap:round;}.cls-12,.cls-13,.cls-14,.cls-2{stroke-miterlimit:10;}.cls-3{fill:#999;}.cls-4{fill:#1e9cd3;}.cls-5{fill:#2bae4a;}.cls-6{fill:#f36f4c;}.cls-7{fill:#231f20;}.cls-8{clip-path:url(#clip-path);}.cls-17,.cls-9{stroke:#000;}.cls-17,.cls-18,.cls-9{stroke-linejoin:round;}.cls-10{fill:#343434;}.cls-11{fill:#4e4e50;}.cls-12{stroke:#2bae4a;}.cls-13{stroke:#1e9cd3;}.cls-14{stroke:#f36f4c;}.cls-15{fill:#fff;}.cls-16{clip-path:url(#clip-path-3);}.cls-17{stroke-width:0.9985px;}.cls-18{stroke:#010101;}</style><clipPath id="clip-path"><rect class="cls-1" x="105.3348" y="55.73619" width="50" height="50"/></clipPath><clipPath id="clip-path-3"><rect class="cls-1" x="312.28409" y="55.89157" width="50" height="50"/></clipPath></defs><line class="cls-2" x1="59.49963" y1="80.6982" x2="105.15295" y2="80.6982"/><polygon class="cls-3" points="101.839 84.788 101.157 84.056 104.769 80.699 101.157 77.342 101.839 76.609 106.237 80.699 101.839 84.788"/><path class="cls-4" d="M149.90369,81.19838h-1.5a.5.5,0,0,1,0-1h1.5a.5.5,0,0,1,0,1Z"/><path class="cls-5" d="M330.13611,81.19838H327.1322a.5.5,0,0,1,0-1h3.00391a.5.5,0,0,1,0,1Z"/><path class="cls-6" d="M324.12829,81.19838h-3.0039a.5.5,0,0,1,0-1h3.0039a.5.5,0,0,1,0,1Z"/><path class="cls-5" d="M318.12048,81.19838h-3.0039a.5.5,0,0,1,0-1h3.0039a.5.5,0,0,1,0,1Z"/><path class="cls-4" d="M312.11267,81.19838h-3.00391a.5.5,0,0,1,0-1h3.00391a.5.5,0,0,1,0,1Z"/><path class="cls-6" d="M306.10486,81.19838H303.101a.5.5,0,0,1,0-1h3.00391a.5.5,0,0,1,0,1Z"/><path class="cls-5" d="M300.097,81.19838h-3.0039a.5.5,0,0,1,0-1h3.0039a.5.5,0,0,1,0,1Z"/><path class="cls-4" d="M294.08923,81.19838h-3.0039a.5.5,0,0,1,0-1h3.0039a.5.5,0,0,1,0,1Z"/><path class="cls-6" d="M288.08142,81.19838h-3.00391a.5.5,0,0,1,0-1h3.00391a.5.5,0,0,1,0,1Z"/><path class="cls-6" d="M282.07458,81.19838h-3.0039a.5.5,0,0,1,0-1h3.0039a.5.5,0,0,1,0,1Z"/><path class="cls-5" d="M276.06677,81.19838h-3.0039a.5.5,0,0,1,0-1h3.0039a.5.5,0,0,1,0,1Z"/><path class="cls-4" d="M270.059,81.19838h-3.00391a.5.5,0,0,1,0-1H270.059a.5.5,0,0,1,0,1Z"/><path class="cls-5" d="M264.05115,81.19838h-3.00391a.5.5,0,0,1,0-1h3.00391a.5.5,0,0,1,0,1Z"/><path class="cls-6" d="M258.04333,81.19838h-3.0039a.5.5,0,0,1,0-1h3.0039a.5.5,0,0,1,0,1Z"/><path class="cls-5" d="M252.03552,81.19838h-3.0039a.5.5,0,0,1,0-1h3.0039a.5.5,0,0,1,0,1Z"/><path class="cls-6" d="M246.02771,81.19838H243.0238a.5.5,0,0,1,0-1h3.00391a.5.5,0,0,1,0,1Z"/><path class="cls-5" d="M240.0199,81.19838H237.016a.5.5,0,0,1,0-1h3.00391a.5.5,0,0,1,0,1Z"/><path class="cls-5" d="M234.01208,81.19838h-3.0039a.5.5,0,0,1,0-1h3.0039a.5.5,0,0,1,0,1Z"/><path class="cls-4" d="M228.00427,81.19838h-3.0039a.5.5,0,0,1,0-1h3.0039a.5.5,0,0,1,0,1Z"/><path class="cls-6" d="M221.99646,81.19838h-3.00391a.5.5,0,0,1,0-1h3.00391a.5.5,0,0,1,0,1Z"/><path class="cls-6" d="M215.98865,81.19838h-3.00391a.5.5,0,0,1,0-1h3.00391a.5.5,0,0,1,0,1Z"/><path class="cls-5" d="M209.98083,81.19838h-3.0039a.5.5,0,0,1,0-1h3.0039a.5.5,0,0,1,0,1Z"/><path class="cls-6" d="M203.973,81.19838h-3.0039a.5.5,0,0,1,0-1h3.0039a.5.5,0,0,1,0,1Z"/><path class="cls-5" d="M197.96521,81.19838H194.9613a.5.5,0,0,1,0-1h3.00391a.5.5,0,0,1,0,1Z"/><path class="cls-4" d="M191.95837,81.19838h-3.0039a.5.5,0,0,1,0-1h3.0039a.5.5,0,0,1,0,1Z"/><path class="cls-6" d="M185.95056,81.19838h-3.00391a.5.5,0,0,1,0-1h3.00391a.5.5,0,0,1,0,1Z"/><path class="cls-5" d="M179.94275,81.19838h-3.00391a.5.5,0,0,1,0-1h3.00391a.5.5,0,0,1,0,1Z"/><path class="cls-6" d="M173.93494,81.19838H170.931a.5.5,0,0,1,0-1h3.00391a.5.5,0,0,1,0,1Z"/><path class="cls-5" d="M167.92712,81.19838h-3.0039a.5.5,0,0,1,0-1h3.0039a.5.5,0,0,1,0,1Z"/><path class="cls-4" d="M161.91931,81.19838H158.9154a.5.5,0,0,1,0-1h3.00391a.5.5,0,0,1,0,1Z"/><path class="cls-5" d="M155.9115,81.19838h-3.00391a.5.5,0,0,1,0-1h3.00391a.5.5,0,0,1,0,1Z"/><path class="cls-4" d="M334.64,81.19838h-1.5a.5.5,0,0,1,0-1h1.5a.5.5,0,0,1,0,1Z"/><path class="cls-4" d="M149.90369,85.27358h-1.5a.5.5,0,0,1,0-1h1.5a.5.5,0,0,1,0,1Z"/><path class="cls-6" d="M330.13611,85.27358H327.1322a.5.5,0,0,1,0-1h3.00391a.5.5,0,0,1,0,1Z"/><path class="cls-5" d="M324.12829,85.27358h-3.0039a.5.5,0,0,1,0-1h3.0039a.5.5,0,0,1,0,1Z"/><path class="cls-4" d="M318.12048,85.27358h-3.0039a.5.5,0,0,1,0-1h3.0039a.5.5,0,0,1,0,1Z"/><path class="cls-5" d="M312.11267,85.27358h-3.00391a.5.5,0,0,1,0-1h3.00391a.5.5,0,0,1,0,1Z"/><path class="cls-4" d="M306.10486,85.27358H303.101a.5.5,0,0,1,0-1h3.00391a.5.5,0,0,1,0,1Z"/><path class="cls-4" d="M300.097,85.27358h-3.0039a.5.5,0,0,1,0-1h3.0039a.5.5,0,0,1,0,1Z"/><path class="cls-6" d="M294.08923,85.27358h-3.0039a.5.5,0,0,1,0-1h3.0039a.5.5,0,0,1,0,1Z"/><path class="cls-4" d="M288.08142,85.27358h-3.00391a.5.5,0,0,1,0-1h3.00391a.5.5,0,0,1,0,1Z"/><path class="cls-4" d="M282.07458,85.27358h-3.0039a.5.5,0,0,1,0-1h3.0039a.5.5,0,0,1,0,1Z"/><path class="cls-6" d="M276.06677,85.27358h-3.0039a.5.5,0,0,1,0-1h3.0039a.5.5,0,0,1,0,1Z"/><path class="cls-4" d="M270.059,85.27358h-3.00391a.5.5,0,0,1,0-1H270.059a.5.5,0,0,1,0,1Z"/><path class="cls-6" d="M264.05115,85.27358h-3.00391a.5.5,0,0,1,0-1h3.00391a.5.5,0,0,1,0,1Z"/><path class="cls-5" d="M258.04333,85.27358h-3.0039a.5.5,0,0,1,0-1h3.0039a.5.5,0,0,1,0,1Z"/><path class="cls-4" d="M252.03552,85.27358h-3.0039a.5.5,0,0,1,0-1h3.0039a.5.5,0,0,1,0,1Z"/><path class="cls-5" d="M246.02771,85.27358H243.0238a.5.5,0,0,1,0-1h3.00391a.5.5,0,0,1,0,1Z"/><path class="cls-6" d="M240.0199,85.27358H237.016a.5.5,0,0,1,0-1h3.00391a.5.5,0,0,1,0,1Z"/><path class="cls-4" d="M234.01208,85.27358h-3.0039a.5.5,0,0,1,0-1h3.0039a.5.5,0,0,1,0,1Z"/><path class="cls-4" d="M228.00427,85.27358h-3.0039a.5.5,0,0,1,0-1h3.0039a.5.5,0,0,1,0,1Z"/><path class="cls-5" d="M221.99646,85.27358h-3.00391a.5.5,0,0,1,0-1h3.00391a.5.5,0,0,1,0,1Z"/><path class="cls-4" d="M215.98865,85.27358h-3.00391a.5.5,0,0,1,0-1h3.00391a.5.5,0,0,1,0,1Z"/><path class="cls-6" d="M209.98083,85.27358h-3.0039a.5.5,0,0,1,0-1h3.0039a.5.5,0,0,1,0,1Z"/><path class="cls-4" d="M203.973,85.27358h-3.0039a.5.5,0,0,1,0-1h3.0039a.5.5,0,0,1,0,1Z"/><path class="cls-4" d="M197.96521,85.27358H194.9613a.5.5,0,0,1,0-1h3.00391a.5.5,0,0,1,0,1Z"/><path class="cls-5" d="M191.95837,85.27358h-3.0039a.5.5,0,0,1,0-1h3.0039a.5.5,0,0,1,0,1Z"/><path class="cls-4" d="M185.95056,85.27358h-3.00391a.5.5,0,0,1,0-1h3.00391a.5.5,0,0,1,0,1Z"/><path class="cls-6" d="M179.94275,85.27358h-3.00391a.5.5,0,0,1,0-1h3.00391a.5.5,0,0,1,0,1Z"/><path class="cls-4" d="M173.93494,85.27358H170.931a.5.5,0,0,1,0-1h3.00391a.5.5,0,0,1,0,1Z"/><path class="cls-4" d="M167.92712,85.27358h-3.0039a.5.5,0,0,1,0-1h3.0039a.5.5,0,0,1,0,1Z"/><path class="cls-5" d="M161.91931,85.27358H158.9154a.5.5,0,0,1,0-1h3.00391a.5.5,0,0,1,0,1Z"/><path class="cls-4" d="M155.9115,85.27358h-3.00391a.5.5,0,0,1,0-1h3.00391a.5.5,0,0,1,0,1Z"/><path class="cls-4" d="M334.64,85.27358h-1.5a.5.5,0,0,1,0-1h1.5a.5.5,0,0,1,0,1Z"/><path class="cls-4" d="M149.90369,77.12612h-1.5a.5.5,0,0,1,0-1h1.5a.5.5,0,0,1,0,1Z"/><path class="cls-4" d="M330.13611,77.12612H327.1322a.5.5,0,0,1,0-1h3.00391a.5.5,0,0,1,0,1Z"/><path class="cls-4" d="M324.12829,77.12612h-3.0039a.5.5,0,0,1,0-1h3.0039a.5.5,0,0,1,0,1Z"/><path class="cls-6" d="M318.12048,77.12612h-3.0039a.5.5,0,0,1,0-1h3.0039a.5.5,0,0,1,0,1Z"/><path class="cls-6" d="M312.11267,77.12612h-3.00391a.5.5,0,0,1,0-1h3.00391a.5.5,0,0,1,0,1Z"/><path class="cls-5" d="M306.10486,77.12612H303.101a.5.5,0,0,1,0-1h3.00391a.5.5,0,0,1,0,1Z"/><path class="cls-4" d="M300.097,77.12612h-3.0039a.5.5,0,0,1,0-1h3.0039a.5.5,0,0,1,0,1Z"/><path class="cls-5" d="M294.08923,77.12612h-3.0039a.5.5,0,0,1,0-1h3.0039a.5.5,0,0,1,0,1Z"/><path class="cls-4" d="M288.08142,77.12612h-3.00391a.5.5,0,0,1,0-1h3.00391a.5.5,0,0,1,0,1Z"/><path class="cls-5" d="M282.07458,77.12612h-3.0039a.5.5,0,0,1,0-1h3.0039a.5.5,0,0,1,0,1Z"/><path class="cls-4" d="M276.06677,77.12612h-3.0039a.5.5,0,0,1,0-1h3.0039a.5.5,0,0,1,0,1Z"/><path class="cls-5" d="M270.059,77.12612h-3.00391a.5.5,0,0,1,0-1H270.059a.5.5,0,0,1,0,1Z"/><path class="cls-4" d="M264.05115,77.12612h-3.00391a.5.5,0,0,1,0-1h3.00391a.5.5,0,0,1,0,1Z"/><path class="cls-4" d="M258.04333,77.12612h-3.0039a.5.5,0,0,1,0-1h3.0039a.5.5,0,0,1,0,1Z"/><path class="cls-6" d="M252.03552,77.12612h-3.0039a.5.5,0,0,1,0-1h3.0039a.5.5,0,0,1,0,1Z"/><path class="cls-4" d="M246.02771,77.12612H243.0238a.5.5,0,0,1,0-1h3.00391a.5.5,0,0,1,0,1Z"/><path class="cls-4" d="M240.0199,77.12612H237.016a.5.5,0,0,1,0-1h3.00391a.5.5,0,0,1,0,1Z"/><path class="cls-6" d="M234.01208,77.12612h-3.0039a.5.5,0,0,1,0-1h3.0039a.5.5,0,0,1,0,1Z"/><path class="cls-5" d="M228.00427,77.12612h-3.0039a.5.5,0,0,1,0-1h3.0039a.5.5,0,0,1,0,1Z"/><path class="cls-4" d="M221.99646,77.12612h-3.00391a.5.5,0,0,1,0-1h3.00391a.5.5,0,0,1,0,1Z"/><path class="cls-5" d="M215.98865,77.12612h-3.00391a.5.5,0,0,1,0-1h3.00391a.5.5,0,0,1,0,1Z"/><path class="cls-4" d="M209.98083,77.12612h-3.0039a.5.5,0,0,1,0-1h3.0039a.5.5,0,0,1,0,1Z"/><path class="cls-5" d="M203.973,77.12612h-3.0039a.5.5,0,0,1,0-1h3.0039a.5.5,0,0,1,0,1Z"/><path class="cls-4" d="M197.96521,77.12612H194.9613a.5.5,0,0,1,0-1h3.00391a.5.5,0,0,1,0,1Z"/><path class="cls-6" d="M191.95837,77.12612h-3.0039a.5.5,0,0,1,0-1h3.0039a.5.5,0,0,1,0,1Z"/><path class="cls-5" d="M185.95056,77.12612h-3.00391a.5.5,0,0,1,0-1h3.00391a.5.5,0,0,1,0,1Z"/><path class="cls-4" d="M179.94275,77.12612h-3.00391a.5.5,0,0,1,0-1h3.00391a.5.5,0,0,1,0,1Z"/><path class="cls-5" d="M173.93494,77.12612H170.931a.5.5,0,0,1,0-1h3.00391a.5.5,0,0,1,0,1Z"/><path class="cls-4" d="M167.92712,77.12612h-3.0039a.5.5,0,0,1,0-1h3.0039a.5.5,0,0,1,0,1Z"/><path class="cls-6" d="M161.91931,77.12612H158.9154a.5.5,0,0,1,0-1h3.00391a.5.5,0,0,1,0,1Z"/><path class="cls-4" d="M155.9115,77.12612h-3.00391a.5.5,0,0,1,0-1h3.00391a.5.5,0,0,1,0,1Z"/><path class="cls-4" d="M334.64,77.12612h-1.5a.5.5,0,0,1,0-1h1.5a.5.5,0,0,1,0,1Z"/><path class="cls-7" d="M112.50427,109.589a3.66281,3.66281,0,0,1,3.74024-3.7959,3.299,3.299,0,0,1,2.8164,1.45215l-.76953.42871a2.492,2.492,0,0,0-2.04687-1.06641,2.98774,2.98774,0,0,0,0,5.96289,2.4655,2.4655,0,0,0,2.04687-1.06738l.78027.42871a3.33573,3.33573,0,0,1-2.82714,1.45215A3.66256,3.66256,0,0,1,112.50427,109.589Z"/><path class="cls-7" d="M119.7865,110.59a2.63424,2.63424,0,1,1,2.6289,2.794A2.60656,2.60656,0,0,1,119.7865,110.59Zm4.38965,0a1.78664,1.78664,0,1,0-1.76075,2.05664A1.84757,1.84757,0,0,0,124.17615,110.59Z"/><path class="cls-7" d="M129.86267,109.77553c0-.93555-.47363-1.23242-1.18848-1.23242a2.05309,2.05309,0,0,0-1.57324.82519v3.88379h-.82519v-5.31347h.82519v.76953a2.63838,2.63838,0,0,1,1.89258-.90137,1.50988,1.50988,0,0,1,1.69434,1.71582v3.72949h-.8252Z"/><path class="cls-7" d="M132.392,112.14076V108.6642h-.87989v-.72558h.87989v-1.45215h.82519v1.45215h1.07813v.72558h-1.07813V111.965c0,.39551.17578.68164.53906.68164a.79669.79669,0,0,0,.56153-.21972l.24121.61621a1.3465,1.3465,0,0,1-.98926.34082A1.0875,1.0875,0,0,1,132.392,112.14076Z"/><path class="cls-7" d="M137.6615,107.80678a2.58051,2.58051,0,0,1,2.55273,2.84863v.209h-4.30176a1.87159,1.87159,0,0,0,1.91407,1.83789,2.32584,2.32584,0,0,0,1.63965-.6709l.3955.53906a2.88939,2.88939,0,0,1-2.1123.81348,2.79194,2.79194,0,0,1-.08789-5.57715Zm-1.749,2.45312h3.48731a1.72243,1.72243,0,0,0-1.749-1.77148A1.77235,1.77235,0,0,0,135.91247,110.2599Z"/><path class="cls-7" d="M142.93005,111.07338l-1.59472,2.17871H140.389l2.03515-2.72851-1.9248-2.585h.957l1.47363,2.02441,1.47461-2.02441h.957l-1.9248,2.585,2.0459,2.72851h-.957Z"/><path class="cls-7" d="M146.48279,112.14076V108.6642h-.88086v-.72558h.88086v-1.45215h.82519v1.45215h1.07813v.72558H147.308V111.965c0,.39551.17578.68164.53906.68164a.796.796,0,0,0,.56055-.21972l.24219.61621a1.34742,1.34742,0,0,1-.99024.34082A1.08681,1.08681,0,0,1,146.48279,112.14076Z"/><path class="cls-7" d="M114.7865,116.9142h4.80762v.81348h-3.89454v2.36621H119.517v.81348h-3.81739v2.53027h3.89454v.81445H114.7865Z"/><path class="cls-7" d="M124.48865,120.77553c0-.93555-.47266-1.23242-1.1875-1.23242a2.05149,2.05149,0,0,0-1.57325.82519v3.88379h-.82519v-5.31347h.82519v.76953a2.63611,2.63611,0,0,1,1.89161-.90137,1.50988,1.50988,0,0,1,1.69433,1.71582v3.72949h-.82519Z"/><path class="cls-7" d="M127.26013,125.00014a2.0291,2.0291,0,0,0,1.72754.72656,1.52186,1.52186,0,0,0,1.70508-1.5957v-.75879a2.21952,2.21952,0,0,1-1.78223.94629c-1.38672,0-2.36523-1.03418-2.36523-2.751,0-1.70508.96777-2.76074,2.36523-2.76074a2.201,2.201,0,0,1,1.78223.93457v-.80273h.82519v5.15918c0,1.76074-1.23242,2.31054-2.53027,2.31054a2.71467,2.71467,0,0,1-2.14551-.792Zm3.43262-4.59863a1.95782,1.95782,0,0,0-1.584-.8584c-1.06738,0-1.706.84765-1.706,2.02441,0,1.166.63867,2.02442,1.706,2.02442a1.96694,1.96694,0,0,0,1.584-.86914Z"/><path class="cls-7" d="M132.91443,117.48647a.55569.55569,0,0,1,1.11133,0,.55569.55569,0,1,1-1.11133,0Zm.14258,1.45215h.82519v5.31347H133.057Z"/><path class="cls-7" d="M139.00915,120.77553c0-.93555-.47363-1.23242-1.18847-1.23242a2.05307,2.05307,0,0,0-1.57324.82519v3.88379h-.8252v-5.31347h.8252v.76953a2.63836,2.63836,0,0,1,1.89257-.90137,1.50988,1.50988,0,0,1,1.69434,1.71582v3.72949h-.8252Z"/><path class="cls-7" d="M143.684,118.80678a2.58051,2.58051,0,0,1,2.55273,2.84863v.209h-4.30175a1.87159,1.87159,0,0,0,1.91406,1.83789,2.32584,2.32584,0,0,0,1.63965-.6709l.3955.53906a2.88939,2.88939,0,0,1-2.1123.81348,2.79194,2.79194,0,0,1-.08789-5.57715Zm-1.749,2.45312h3.4873a1.72243,1.72243,0,0,0-1.749-1.77148A1.77234,1.77234,0,0,0,141.93494,121.2599Z"/><g id="gear-with-circular-arrows"><g class="cls-8"><polyline class="cls-9" points="152.835 76.174 148.335 80.736 143.835 76.174"/><polyline class="cls-9" points="107.835 85.299 112.335 80.736 116.835 85.299"/><g class="cls-8"><path class="cls-9" d="M148.0755,83.77794a17.9845,17.9845,0,0,1-35.7515-3.0415"/><path class="cls-9" d="M112.5731,77.69444a17.98423,17.98423,0,0,1,35.751,3.0415"/><path class="cls-9" d="M124.05525,79.43319a6.41181,6.41181,0,1,1,4.972,7.574A6.41211,6.41211,0,0,1,124.05525,79.43319Z"/><path class="cls-9" d="M131.3797,68.65759l.645,3.178c.0525.01.105.018.1575.029a9.06068,9.06068,0,0,1,1.1885.334l2.059-2.468"/><path class="cls-9" d="M132.0245,71.83554l-.645-3.178a12.0815,12.0815,0,0,0-2.135.0005l-.55,3.1655"/><path class="cls-9" d="M137.28255,70.78989l-1.0315,3.076a9.0419,9.0419,0,0,1,.9375.9345l3.0085-1.13349"/><path class="cls-9" d="M136.2513,73.86609l1.0315-3.076a12.10409,12.10409,0,0,0-1.8535-1.05951l-2.0585,2.468"/><path class="cls-9" d="M127.2757,72.20444l-2.166-2.412a12.22322,12.22322,0,0,0-1.839,1.084l1.1305,3.006"/><path class="cls-9" d="M125.11,69.79234l2.166,2.412a9.09587,9.09587,0,0,1,1.4185-.381l.55-3.1655"/><path class="cls-9" d="M137.21665,86.64169l3.0805,1.02851a12.03866,12.03866,0,0,0,1.059-1.85151l-2.4715-2.055"/><path class="cls-9" d="M120.3863,73.78329l3.0785,1.034a9.03132,9.03132,0,0,1,.9365-.9345l-1.1305-3.006"/><path class="cls-9" d="M138.8724,77.66929l2.412-2.1665a12.17212,12.17212,0,0,0-1.0875-1.836l-3.0085,1.134"/><path class="cls-9" d="M142.42855,81.77329l-3.1815.646c-.01.054-.018.108-.0295.16249a9.14265,9.14265,0,0,1-.333,1.182l2.4715,2.055"/><path class="cls-9" d="M139.24715,82.419l3.1815-.646a12.05246,12.05246,0,0,0-.0015-2.1325l-3.1695-.547"/><path class="cls-9" d="M141.2845,75.50279l-2.412,2.1665a9.01022,9.01022,0,0,1,.385,1.424l3.17.547"/><path class="cls-9" d="M133.41,89.26184l2.1705,2.408a12.22652,12.22652,0,0,0,1.8375-1.087l-1.1365-3.004"/><path class="cls-9" d="M129.2667,92.81309l-.6385-3.1795c-.0475-.009-.094-.016-.141-.0255a9.21493,9.21493,0,0,1-1.205-.3395l-2.0635,2.463"/><path class="cls-9" d="M128.628,89.63364l.6385,3.1795a12.13806,12.13806,0,0,0,2.1355.003l.5555-3.164"/><path class="cls-9" d="M135.5804,91.66979l-2.1705-2.408a9.00075,9.00075,0,0,1-1.4525.39l-.5555,3.16449"/><path class="cls-9" d="M140.2972,87.67029l-3.0805-1.0285a9.094,9.094,0,0,1-.9355.937l1.137,3.004"/><path class="cls-9" d="M124.4051,87.59484l-1.037,3.0735a12.02807,12.02807,0,0,0,1.8505,1.0635l2.0635-2.4635"/><path class="cls-9" d="M118.24275,79.67589l3.183-.6395c.009-.0485.016-.097.026-.1455a9.11929,9.11929,0,0,1,.339-1.1985l-2.4675-2.06"/><path class="cls-9" d="M123.4647,74.81749l-3.0785-1.034a12.01044,12.01044,0,0,0-1.063,1.849l2.4675,2.06"/><path class="cls-9" d="M121.4256,79.03624l-3.183.63951a12.061,12.061,0,0,0-.002,2.133l3.1685.553"/><path class="cls-9" d="M121.79085,83.78674l-2.4165,2.162a12.173,12.173,0,0,0,1.085,1.83749l3.01-1.12749"/><path class="cls-9" d="M123.368,90.66854l1.037-3.0735a9.13676,9.13676,0,0,1-.9355-.9365l-3.01,1.1275"/><path class="cls-9" d="M119.3746,85.94884l2.4165-2.162a8.946,8.946,0,0,1-.382-1.425l-3.1685-.553"/></g></g></g><path d="M68.6781,65.59877c3.44-.059,2.62151,5.00616-.4201,4.83293C64.81012,70.4935,65.62351,65.42336,68.6781,65.59877Zm-.06348.88281c-1.72653-.12971-2.36323,3.09889-.30066,3.06743C70.03379,69.67669,70.68034,66.456,68.61462,66.48158Z"/><path d="M72.48669,69.00307a1.09833,1.09833,0,0,0-.02734.20312c0,.30762.25195.4336.56641.4336a1.25543,1.25543,0,0,0,.80566-.39844L74.3363,66.965H75.225l-.749,3.38282H73.5863l.09766-.44141a1.60771,1.60771,0,0,1-1.12695.52539c-.65137,0-1.05762-.34375-1.05762-.86816a1.97334,1.97334,0,0,1,.03418-.27344l.51172-2.3252h.89648Z"/><path d="M75.93005,69.465l.377-1.72949h-.55957l.1748-.77051h.56055l.20312-.9248h.89649l-.20313.9248h.68652l-.18261.77051h-.68555l-.32226,1.4707a.84661.84661,0,0,0-.01465.13965c0,.18262.10547.294.3291.294a.46622.46622,0,0,0,.24609-.06934l.03418.71387a1.03686,1.03686,0,0,1-.55957.14746c-.60351,0-1.00976-.23145-1.00976-.73535A1.06137,1.06137,0,0,1,75.93005,69.465Z"/><path d="M79.05505,70.3478H78.1654l1.03028-4.67188h.88867l-.37793,1.709a1.28906,1.28906,0,0,1,1.02246-.5039,1.24837,1.24837,0,0,1,1.28125,1.40039,1.98582,1.98582,0,0,1-1.77832,2.15039,1.26236,1.26236,0,0,1-1.0791-.53223ZM80.32947,67.672a1.02112,1.02112,0,0,0-.77735.40625L79.29333,69.255a.92943.92943,0,0,0,.791.38477,1.08657,1.08657,0,0,0,.99414-1.17578A.73653.73653,0,0,0,80.32947,67.672Z"/><path d="M84.56287,66.881a1.51142,1.51142,0,0,1,1.68066,1.54,1.98177,1.98177,0,0,1-1.96191,2.01074,1.501,1.501,0,0,1-1.67383-1.53418A1.98119,1.98119,0,0,1,84.56287,66.881Zm-.02833.791a1.10119,1.10119,0,0,0-1.00878,1.17676.72886.72886,0,0,0,.791.791A1.09611,1.09611,0,0,0,85.31872,68.464.72678.72678,0,0,0,84.53454,67.672Z"/><path d="M87.85193,69.00307a1.02505,1.02505,0,0,0-.02832.20312c0,.30762.25195.4336.56738.4336a1.253,1.253,0,0,0,.80469-.39844l.50488-2.27637h.88965l-.75,3.38282h-.88867l.09765-.44141a1.60963,1.60963,0,0,1-1.12695.52539c-.65234,0-1.05859-.34375-1.05859-.86816a1.97912,1.97912,0,0,1,.03515-.27344l.51172-2.3252H88.307Z"/><path d="M93.64294,68.33022a1.17448,1.17448,0,0,0,.03516-.22364c0-.31543-.25293-.43457-.51953-.43457a1.25577,1.25577,0,0,0-.85352.39258l-.5039,2.28321h-.89063l.75-3.38282h.88965l-.09863.44141a1.60806,1.60806,0,0,1,1.12793-.52539c.65136,0,1.05761.34277,1.05761.86816a2.16485,2.16485,0,0,1-.03515.27344l-.51758,2.3252h-.89063Z"/><path d="M98.49646,65.67592h.89648L98.35583,70.3478h-.89648l.09766-.4209a1.27446,1.27446,0,0,1-1.01563.50488,1.24733,1.24733,0,0,1-1.28809-1.40137A1.97659,1.97659,0,0,1,97.03943,66.881a1.27422,1.27422,0,0,1,1.07812.53223ZM96.934,69.63979a1.00548,1.00548,0,0,0,.77734-.39844l.25977-1.17676a.93526.93526,0,0,0-.792-.39258,1.09209,1.09209,0,0,0-.99414,1.17676A.73517.73517,0,0,0,96.934,69.63979Z"/><path d="M73.03357,76.465l.3789-1.72949h-.56054l.1748-.77051h.56055l.20312-.9248h.89649l-.20313.9248h.68653l-.18164.77051h-.6875l-.32227,1.4707a1.12659,1.12659,0,0,0-.01367.13965c0,.18262.10547.294.33008.294a.46153.46153,0,0,0,.24414-.06934l.03515.71387a1.04042,1.04042,0,0,1-.56054.14746c-.60157,0-1.00782-.23145-1.00782-.73535A1.10178,1.10178,0,0,1,73.03357,76.465Z"/><path d="M76.01892,73.965h.88965l-.10547.44825a1.5395,1.5395,0,0,1,1.19727-.5254l-.18848.88282a1.34688,1.34688,0,0,0-.3291-.043,1.19543,1.19543,0,0,0-.84082.40625l-.4834,2.21387H75.2699Z"/><path d="M81.06677,73.965h.89649l-.749,3.38282h-.89648l.09863-.4209a1.27444,1.27444,0,0,1-1.01562.50488,1.24707,1.24707,0,0,1-1.28907-1.40137A1.97726,1.97726,0,0,1,79.89783,73.881a1.27728,1.27728,0,0,1,1.0791.53223Zm-1.27441,2.67481a1.009,1.009,0,0,0,.77832-.39844l.25781-1.17676a.9321.9321,0,0,0-.791-.39258,1.0921,1.0921,0,0,0-.99414,1.17676A.73571.73571,0,0,0,79.79236,76.63979Z"/><path d="M83.05505,74.74233h-.56054l.168-.77735H83.223l.042-.18261a1.29513,1.29513,0,0,1,1.26758-1.17676,1.36964,1.36964,0,0,1,.74219.18945l-.30762.60254a.54154.54154,0,0,0-.32226-.09082c-.27344,0-.41993.168-.49024.47559l-.043.18261h.69336l-.17383.77735h-.6875l-.57421,2.60547H82.473Zm2.29,0h-.56055l.168-.77735h.56055l.042-.18261a1.29513,1.29513,0,0,1,1.26758-1.17676,1.36744,1.36744,0,0,1,.74219.18945l-.30762.60254a.54356.54356,0,0,0-.32226-.09082c-.27344,0-.4209.168-.49024.47559l-.042.18261h.69336l-.17578.77735h-.68555l-.57422,2.60547H84.764Zm2.2627-.77735h.88867l-.749,3.38282h-.88965Zm.7207-1.5625a.46022.46022,0,0,1,.47656.45606.60158.60158,0,0,1-.5957.60937.45553.45553,0,0,1-.47656-.45605A.6062.6062,0,0,1,88.32849,72.40248Z"/><path d="M90.90466,73.881a1.50122,1.50122,0,0,1,1.373.665l-.666.51172a.79913.79913,0,0,0-.707-.38575,1.09618,1.09618,0,0,0-1.06445,1.17676.77582.77582,0,0,0,.84766.791.9366.9366,0,0,0,.707-.33594l.48339.5957a1.753,1.753,0,0,1-1.28222.53223,1.50814,1.50814,0,0,1-1.65918-1.541A1.97022,1.97022,0,0,1,90.90466,73.881Z"/><path class="cls-10" d="M169.37048,99.29408h-1.36621v-.875h3.72559v.875h-1.3584V103.09h-1.001Z"/><path class="cls-10" d="M171.92322,99.70717h.88965v.46289a1.44568,1.44568,0,0,1,1.07812-.54v.86914a1.15614,1.15614,0,0,0-1.07812.35645V103.09h-.88965Z"/><path class="cls-10" d="M176.50134,102.74037a1.403,1.403,0,0,1-1.07129.4336,1.12658,1.12658,0,0,1-1.17676-1.12012,1.07108,1.07108,0,0,1,1.17676-1.0791,1.36955,1.36955,0,0,1,1.07129.41308v-.46875c0-.34277-.29394-.56738-.74219-.56738a1.4248,1.4248,0,0,0-.98828.39942l-.33593-.59571a2.21784,2.21784,0,0,1,1.47753-.53222c.77051,0,1.47852.30859,1.47852,1.28222V103.09h-.88965Zm0-.88281a.89049.89049,0,0,0-.71484-.29394c-.34961,0-.63672.18847-.63672.51074,0,.31543.28711.498.63672.498a.89111.89111,0,0,0,.71484-.29492Z"/><path class="cls-10" d="M178.49353,100.48451H177.933v-.77734h.56055v-.18164a1.09062,1.09062,0,0,1,1.1416-1.17676,1.441,1.441,0,0,1,.64453.13965l-.18262.63086a.547.547,0,0,0-.2871-.07031c-.252,0-.41993.168-.41993.49023v.168h.68653v.77734H179.39V103.09h-.89648Zm2.29,0H180.223v-.77734h.56055v-.18164a1.09062,1.09062,0,0,1,1.1416-1.17676,1.441,1.441,0,0,1,.64453.13965l-.18262.64453a.49816.49816,0,0,0-.28711-.084c-.252,0-.41992.168-.41992.47656v.18164h.68653v.77734h-.68653V103.09h-.89648Zm2.00293-1.80664a.53223.53223,0,1,1,.53222.53223A.53665.53665,0,0,1,182.7865,98.67787Zm.09082,1.0293h.88965V103.09h-.88965Z"/><path class="cls-10" d="M186.267,99.62319a1.56187,1.56187,0,0,1,1.33789.61621l-.582.54a.83575.83575,0,0,0-.71387-.36426.98625.98625,0,0,0,0,1.96777.85486.85486,0,0,0,.71387-.36426l.582.53907a1.55944,1.55944,0,0,1-1.33789.61621,1.77548,1.77548,0,1,1,0-3.55078Z"/><path class="cls-10" d="M189.63318,100.75795a2.36415,2.36415,0,0,1,2.45117-2.416,2.15585,2.15585,0,0,1,1.98926,1.1416l-.85449.41992a1.2815,1.2815,0,0,0-1.13477-.67969,1.53807,1.53807,0,0,0,0,3.06836,1.26869,1.26869,0,0,0,1.13477-.67969l.85449.41309a2.16993,2.16993,0,0,1-1.98926,1.14844A2.36416,2.36416,0,0,1,189.63318,100.75795Z"/><path class="cls-10" d="M194.66443,98.41908h.88965V103.09h-.88965Z"/><path class="cls-10" d="M198.50622,102.74037a1.39994,1.39994,0,0,1-1.07128.4336,1.12712,1.12712,0,0,1-1.17676-1.12012,1.07154,1.07154,0,0,1,1.17676-1.0791,1.36811,1.36811,0,0,1,1.07128.41308v-.46875c0-.34277-.29394-.56738-.74218-.56738a1.42078,1.42078,0,0,0-.98731.39942l-.33594-.59571a2.21788,2.21788,0,0,1,1.47754-.53222c.77051,0,1.47754.30859,1.47754,1.28222V103.09h-.88965Zm0-.88281a.88708.88708,0,0,0-.71386-.29394c-.35059,0-.6377.18847-.6377.51074,0,.31543.28711.498.6377.498a.8877.8877,0,0,0,.71386-.29492Z"/><path class="cls-10" d="M200.40759,102.02553a1.93315,1.93315,0,0,0,1.16992.46191c.38477,0,.56641-.13281.56641-.34277,0-.23828-.29395-.32227-.67871-.39941-.582-.11133-1.33106-.252-1.33106-1.05762,0-.56738.49707-1.06445,1.38672-1.06445a2.12223,2.12223,0,0,1,1.3584.46289l-.34961.6084a1.42953,1.42953,0,0,0-1.00195-.39161c-.32227,0-.53223.11914-.53223.31543,0,.21.2666.28711.64453.36426.58106.11133,1.3584.26563,1.3584,1.10645,0,.623-.52441,1.085-1.46387,1.085a2.27352,2.27352,0,0,1-1.51269-.52539Z"/><path class="cls-10" d="M203.79822,102.02553a1.93554,1.93554,0,0,0,1.16992.46191c.38476,0,.56738-.13281.56738-.34277,0-.23828-.29394-.32227-.67969-.39941-.58105-.11133-1.33007-.252-1.33007-1.05762,0-.56738.49707-1.06445,1.38671-1.06445a2.12223,2.12223,0,0,1,1.3584.46289l-.35058.6084a1.427,1.427,0,0,0-1.001-.39161c-.32227,0-.53223.11914-.53223.31543,0,.21.26563.28711.64454.36426.58105.11133,1.35839.26563,1.35839,1.10645,0,.623-.52539,1.085-1.46386,1.085a2.27355,2.27355,0,0,1-1.5127-.52539Z"/><path class="cls-10" d="M206.9906,98.67787a.53223.53223,0,1,1,.53223.53223A.53665.53665,0,0,1,206.9906,98.67787Zm.09082,1.0293h.88965V103.09h-.88965Z"/><path class="cls-10" d="M209.1,100.48451h-.55957v-.77734H209.1v-.18164a1.09063,1.09063,0,0,1,1.14161-1.17676,1.43787,1.43787,0,0,1,.64453.13965l-.18164.64453a.50055.50055,0,0,0-.28711-.084c-.252,0-.4209.168-.4209.47656v.18164h.68652v.77734h-.68652V103.09H209.1Zm2.00391-1.80664a.53223.53223,0,1,1,.53223.53223A.53665.53665,0,0,1,211.10388,98.67787Zm.09082,1.0293h.88965V103.09h-.88965Z"/><path class="cls-10" d="M214.57458,99.62319a1.56185,1.56185,0,0,1,1.33789.61621l-.582.54a.83573.83573,0,0,0-.71386-.36426.98625.98625,0,0,0,0,1.96777.85484.85484,0,0,0,.71386-.36426l.582.53907a1.55943,1.55943,0,0,1-1.33789.61621,1.77548,1.77548,0,1,1,0-3.55078Z"/><path class="cls-10" d="M218.59021,102.74037a1.4,1.4,0,0,1-1.07129.4336,1.12713,1.12713,0,0,1-1.17676-1.12012,1.07155,1.07155,0,0,1,1.17676-1.0791,1.36814,1.36814,0,0,1,1.07129.41308v-.46875c0-.34277-.294-.56738-.74219-.56738a1.42076,1.42076,0,0,0-.9873.39942l-.33594-.59571a2.21786,2.21786,0,0,1,1.47754-.53222c.77051,0,1.47754.30859,1.47754,1.28222V103.09h-.88965Zm0-.88281a.88712.88712,0,0,0-.71387-.29394c-.35058,0-.63769.18847-.63769.51074,0,.31543.28711.498.63769.498a.88774.88774,0,0,0,.71387-.29492Z"/><path class="cls-10" d="M220.56189,102.25014v-1.76563h-.55957v-.77734h.55957v-.92383h.89648v.92383h.68653v.77734h-.68653v1.52735c0,.21.11231.37109.3086.37109a.47961.47961,0,0,0,.30761-.09863l.18946.67285a1.09692,1.09692,0,0,1-.74219.2168A.84577.84577,0,0,1,220.56189,102.25014Z"/><path class="cls-10" d="M222.74353,98.67787a.53223.53223,0,1,1,.53223.53223A.53665.53665,0,0,1,222.74353,98.67787Zm.09082,1.0293h.88965V103.09h-.88965Z"/><path class="cls-10" d="M224.41052,101.39565a1.78959,1.78959,0,1,1,1.78613,1.77832A1.7138,1.7138,0,0,1,224.41052,101.39565Zm2.6543,0a.87235.87235,0,1,0-.86817.9873A.89231.89231,0,0,0,227.06482,101.39565Z"/><path class="cls-10" d="M230.98279,101.04506a.54894.54894,0,0,0-.624-.62988.96442.96442,0,0,0-.7705.39844V103.09h-.88868V99.70717h.88868v.44141a1.55216,1.55216,0,0,1,1.18359-.52539.98364.98364,0,0,1,1.09961,1.0791V103.09h-.88867Z"/><path class="cls-10" d="M236.43494,102.74037a1.403,1.403,0,0,1-1.07129.4336,1.12658,1.12658,0,0,1-1.17676-1.12012,1.07108,1.07108,0,0,1,1.17676-1.0791,1.36955,1.36955,0,0,1,1.07129.41308v-.46875c0-.34277-.294-.56738-.74219-.56738a1.42476,1.42476,0,0,0-.98828.39942l-.33594-.59571a2.21786,2.21786,0,0,1,1.47754-.53222c.77051,0,1.47851.30859,1.47851,1.28222V103.09h-.88964Zm0-.88281a.89053.89053,0,0,0-.71485-.29394c-.34961,0-.63672.18847-.63672.51074,0,.31543.28711.498.63672.498a.89115.89115,0,0,0,.71485-.29492Z"/><path class="cls-10" d="M240.515,101.04506a.54863.54863,0,0,0-.623-.62988.96294.96294,0,0,0-.77051.39844V103.09h-.88965V99.70717h.88965v.44141a1.54885,1.54885,0,0,1,1.18359-.52539.98407.98407,0,0,1,1.09961,1.0791V103.09H240.515Z"/><path class="cls-10" d="M244.65954,102.66323a1.326,1.326,0,0,1-1.043.51074c-.8545,0-1.499-.64356-1.499-1.77149,0-1.10644.63672-1.77929,1.499-1.77929a1.3007,1.3007,0,0,1,1.043.51855V98.41908h.89649V103.09h-.89649Zm0-1.86329a.97885.97885,0,0,0-.7705-.38476.99368.99368,0,0,0,0,1.96777.97683.97683,0,0,0,.7705-.38574Z"/><path class="cls-10" d="M248.08826,104.37905V99.70717h.88964v.42773a1.30652,1.30652,0,0,1,1.04395-.51171c.86816,0,1.49805.64453,1.49805,1.77246,0,1.12695-.62989,1.77832-1.49805,1.77832a1.29429,1.29429,0,0,1-1.04395-.51758v1.72266Zm1.65332-3.96387a.99812.99812,0,0,0-.76368.38476v1.19727a1.0177,1.0177,0,0,0,.76368.38574.99368.99368,0,0,0,0-1.96777Z"/><path class="cls-10" d="M252.25232,99.70717h.88965v.46289a1.44568,1.44568,0,0,1,1.07812-.54v.86914a1.15614,1.15614,0,0,0-1.07812.35645V103.09h-.88965Z"/><path class="cls-10" d="M256.3324,99.62319a1.6968,1.6968,0,0,1,1.69531,1.86328v.19629h-2.51465a.91164.91164,0,0,0,.97363.78418,1.38237,1.38237,0,0,0,.90332-.33594l.39258.57422a2.08525,2.08525,0,0,1-1.39355.46875,1.77562,1.77562,0,1,1-.05664-3.55078Zm-.833,1.457h1.667a.78372.78372,0,0,0-.834-.749A.81277.81277,0,0,0,255.49939,101.08022Z"/><path class="cls-10" d="M258.92712,100.48451h-.56054v-.77734h.56054v-.18164a1.09063,1.09063,0,0,1,1.1416-1.17676,1.441,1.441,0,0,1,.64454.13965l-.18262.64453a.49821.49821,0,0,0-.28711-.084c-.252,0-.41992.168-.41992.47656v.18164h.68652v.77734h-.68652V103.09h-.89649Zm2.00293-1.80664a.53223.53223,0,1,1,.53223.53223A.53665.53665,0,0,1,260.93005,98.67787Zm.09082,1.0293h.88965V103.09h-.88965Z"/><path class="cls-10" d="M262.8324,98.41908h.88964V103.09h-.88964Z"/><path class="cls-10" d="M264.86169,102.25014v-1.76563h-.56054v-.77734h.56054v-.92383h.89649v.92383h.68652v.77734h-.68652v1.52735c0,.21.1123.37109.30761.37109a.48062.48062,0,0,0,.3086-.09863l.18945.67285a1.09991,1.09991,0,0,1-.74316.2168A.845.845,0,0,1,264.86169,102.25014Z"/><path class="cls-10" d="M268.62537,99.62319a1.69661,1.69661,0,0,1,1.69433,1.86328v.19629H267.806a.91063.91063,0,0,0,.97266.78418,1.38239,1.38239,0,0,0,.90332-.33594l.39257.57422a2.08171,2.08171,0,0,1-1.39355.46875,1.77561,1.77561,0,1,1-.05566-3.55078Zm-.834,1.457h1.667a.78341.78341,0,0,0-.833-.749A.813.813,0,0,0,267.79138,101.08022Z"/><path class="cls-10" d="M271.01111,99.70717h.88965v.46289a1.444,1.444,0,0,1,1.07812-.54v.86914a1.15614,1.15614,0,0,0-1.07812.35645V103.09h-.88965Z"/><path class="cls-10" d="M273.44958,98.67787a.53223.53223,0,1,1,.53223.53223A.53665.53665,0,0,1,273.44958,98.67787Zm.09082,1.0293h.88965V103.09h-.88965Z"/><path class="cls-10" d="M277.62732,101.04506a.54864.54864,0,0,0-.623-.62988.96146.96146,0,0,0-.77051.39844V103.09h-.88964V99.70717h.88964v.44141a1.54887,1.54887,0,0,1,1.1836-.52539.98408.98408,0,0,1,1.09961,1.0791V103.09h-.88965Z"/><path class="cls-10" d="M279.77576,103.31459a1.34528,1.34528,0,0,0,1.05761.41992.82735.82735,0,0,0,.93164-.85449v-.34277a1.31951,1.31951,0,0,1-1.04394.53223c-.84766,0-1.49121-.59571-1.49121-1.72364a1.51285,1.51285,0,0,1,1.49121-1.72265,1.30251,1.30251,0,0,1,1.04394.51855v-.43457h.89649v3.15234c0,1.28809-.99512,1.60352-1.82813,1.60352a2.03933,2.03933,0,0,1-1.457-.50391Zm1.98925-2.51465a.96685.96685,0,0,0-.76367-.38476.93459.93459,0,0,0,0,1.8623.98716.98716,0,0,0,.76367-.38476Z"/><path class="cls-10" d="M168.25622,113.39565a.83353.83353,0,1,1,.834.82617A.83108.83108,0,0,1,168.25622,113.39565Z"/><path class="cls-10" d="M178.016,113.67592a2.048,2.048,0,0,0,1.48438.62988c.54589,0,.8125-.25879.8125-.52539,0-.34961-.40625-.46875-.94532-.59472-.76367-.17579-1.74414-.38575-1.74414-1.42969,0-.77735.67188-1.40723,1.77149-1.40723a2.59513,2.59513,0,0,1,1.82129.65137l-.55274.72851a1.99349,1.99349,0,0,0-1.33789-.51171c-.44824,0-.68652.19629-.68652.47656,0,.31543.39258.41308.93164.53906.77051.17481,1.751.40625,1.751,1.44336,0,.85449-.60937,1.498-1.87011,1.498a2.69211,2.69211,0,0,1-1.98242-.74219Z"/><path class="cls-10" d="M181.82654,113.39565a1.78959,1.78959,0,1,1,1.78613,1.77832A1.71324,1.71324,0,0,1,181.82654,113.39565Zm2.65429,0a.87278.87278,0,1,0-.86816.9873A.89289.89289,0,0,0,184.48083,113.39565Z"/><path class="cls-10" d="M188.38806,114.66323a1.586,1.586,0,0,1-1.19141.51074.96824.96824,0,0,1-1.09179-1.06446v-2.40234h.88867v2.05273a.54407.54407,0,0,0,.624.623.99677.99677,0,0,0,.77051-.38574v-2.29h.88867V115.09h-.88867Z"/><path class="cls-10" d="M190.18982,111.70717h.88867v.46289a1.44772,1.44772,0,0,1,1.0791-.54v.86914a1.158,1.158,0,0,0-1.0791.35645V115.09h-.88867Z"/><path class="cls-10" d="M194.31775,111.62319a1.56187,1.56187,0,0,1,1.33789.61621l-.582.54a.83575.83575,0,0,0-.71387-.36426.98625.98625,0,0,0,0,1.96777.85486.85486,0,0,0,.71387-.36426l.582.53907a1.55944,1.55944,0,0,1-1.33789.61621,1.77548,1.77548,0,1,1,0-3.55078Z"/><path class="cls-10" d="M197.73083,111.62319a1.69662,1.69662,0,0,1,1.69434,1.86328v.19629H196.9115a.91063.91063,0,0,0,.97265.78418,1.38691,1.38691,0,0,0,.9043-.33594l.3916.57422a2.08171,2.08171,0,0,1-1.39355.46875,1.77561,1.77561,0,1,1-.05567-3.55078Zm-.834,1.457h1.667a.78278.78278,0,0,0-.833-.749A.813.813,0,0,0,196.89685,113.08022Z"/><path class="cls-10" d="M203.75134,114.74037a1.403,1.403,0,0,1-1.07129.4336,1.12658,1.12658,0,0,1-1.17676-1.12012,1.07108,1.07108,0,0,1,1.17676-1.0791,1.36955,1.36955,0,0,1,1.07129.41308v-.46875c0-.34277-.29394-.56738-.74219-.56738a1.4248,1.4248,0,0,0-.98828.39942l-.33593-.59571a2.21784,2.21784,0,0,1,1.47753-.53222c.77051,0,1.47852.30859,1.47852,1.28222V115.09h-.88965Zm0-.88281a.89049.89049,0,0,0-.71484-.29394c-.34961,0-.63672.18847-.63672.51074,0,.31543.28711.498.63672.498a.89111.89111,0,0,0,.71484-.29492Z"/><path class="cls-10" d="M207.89587,114.66323a1.32793,1.32793,0,0,1-1.04394.51074c-.85449,0-1.499-.64356-1.499-1.77149,0-1.10644.6377-1.77929,1.499-1.77929a1.30253,1.30253,0,0,1,1.04394.51855v-1.72266h.89649V115.09h-.89649Zm0-1.86329a.98032.98032,0,0,0-.7705-.38476.99368.99368,0,0,0,0,1.96777.97829.97829,0,0,0,.7705-.38574Z"/><path class="cls-10" d="M212.057,114.66323a1.32607,1.32607,0,0,1-1.043.51074c-.8545,0-1.499-.64356-1.499-1.77149,0-1.10644.63672-1.77929,1.499-1.77929a1.30074,1.30074,0,0,1,1.043.51855v-1.72266h.89648V115.09H212.057Zm0-1.86329a.97887.97887,0,0,0-.77051-.38476.99368.99368,0,0,0,0,1.96777.97685.97685,0,0,0,.77051-.38574Z"/><path class="cls-10" d="M213.86658,111.70717h.88867v.46289a1.44772,1.44772,0,0,1,1.0791-.54v.86914a1.158,1.158,0,0,0-1.0791.35645V115.09h-.88867Z"/><path class="cls-10" d="M217.94665,111.62319a1.69681,1.69681,0,0,1,1.69532,1.86328v.19629h-2.51465a.91164.91164,0,0,0,.97363.78418,1.38239,1.38239,0,0,0,.90332-.33594l.39258.57422a2.08526,2.08526,0,0,1-1.39356.46875,1.77562,1.77562,0,1,1-.05664-3.55078Zm-.833,1.457h1.667a.78373.78373,0,0,0-.834-.749A.81276.81276,0,0,0,217.11365,113.08022Z"/><path class="cls-10" d="M220.41736,114.02553a1.9331,1.9331,0,0,0,1.16992.46191c.38476,0,.56641-.13281.56641-.34277,0-.23828-.294-.32227-.67872-.39941-.582-.11133-1.33105-.252-1.33105-1.05762,0-.56738.49707-1.06445,1.38672-1.06445a2.12223,2.12223,0,0,1,1.3584.46289l-.34961.6084a1.42955,1.42955,0,0,0-1.002-.39161c-.32226,0-.53222.11914-.53222.31543,0,.21.2666.28711.64453.36426.58105.11133,1.3584.26563,1.3584,1.10645,0,.623-.52442,1.085-1.46387,1.085a2.27352,2.27352,0,0,1-1.51269-.52539Z"/><path class="cls-10" d="M223.808,114.02553a1.93557,1.93557,0,0,0,1.16992.46191c.38477,0,.56739-.13281.56739-.34277,0-.23828-.29395-.32227-.67969-.39941-.58106-.11133-1.33008-.252-1.33008-1.05762,0-.56738.49707-1.06445,1.38672-1.06445a2.12223,2.12223,0,0,1,1.3584.46289l-.35059.6084a1.427,1.427,0,0,0-1.001-.39161c-.32227,0-.53223.11914-.53223.31543,0,.21.26562.28711.64453.36426.58106.11133,1.3584.26563,1.3584,1.10645,0,.623-.52539,1.085-1.46387,1.085a2.27352,2.27352,0,0,1-1.51269-.52539Z"/><path class="cls-10" d="M168.25622,124.39565a.83353.83353,0,1,1,.834.82617A.83108.83108,0,0,1,168.25622,124.39565Z"/><path class="cls-10" d="M177.79138,121.41908h1.8418a2.33963,2.33963,0,1,1,0,4.6709h-1.8418Zm1.8418,3.7959a1.39866,1.39866,0,0,0,1.46386-1.457,1.36707,1.36707,0,0,0-1.46386-1.46387h-.84766v2.9209Z"/><path class="cls-10" d="M184.40076,122.62319a1.6968,1.6968,0,0,1,1.69531,1.86328v.19629h-2.51465a.91164.91164,0,0,0,.97363.78418,1.38237,1.38237,0,0,0,.90332-.33594l.39258.57422a2.08525,2.08525,0,0,1-1.39355.46875,1.77562,1.77562,0,1,1-.05664-3.55078Zm-.833,1.457h1.667a.78372.78372,0,0,0-.834-.749A.81277.81277,0,0,0,183.56775,124.08022Z"/><path class="cls-10" d="M186.87146,125.02553a1.93312,1.93312,0,0,0,1.16992.46191c.38477,0,.56641-.13281.56641-.34277,0-.23828-.29395-.32227-.67871-.39941-.582-.11133-1.33106-.252-1.33106-1.05762,0-.56738.49707-1.06445,1.38672-1.06445a2.12223,2.12223,0,0,1,1.3584.46289l-.34961.6084a1.42954,1.42954,0,0,0-1.00195-.39161c-.32227,0-.53223.11914-.53223.31543,0,.21.2666.28711.64453.36426.58106.11133,1.3584.26563,1.3584,1.10645,0,.623-.52441,1.085-1.46387,1.085a2.27352,2.27352,0,0,1-1.51269-.52539Z"/><path class="cls-10" d="M190.38122,125.25014v-1.76563h-.55957v-.77734h.55957v-.92383h.89649v.92383h.68652v.77734h-.68652v1.52735c0,.21.1123.37109.30859.37109a.47964.47964,0,0,0,.30762-.09863l.18945.67285a1.09687,1.09687,0,0,1-.74218.2168A.84577.84577,0,0,1,190.38122,125.25014Z"/><path class="cls-10" d="M192.56287,121.67787a.53223.53223,0,1,1,.53222.53223A.53664.53664,0,0,1,192.56287,121.67787Zm.09082,1.0293h.88964V126.09h-.88964Z"/><path class="cls-10" d="M196.74158,124.04506a.54894.54894,0,0,0-.624-.62988.96446.96446,0,0,0-.77051.39844V126.09h-.88867v-3.38281h.88867v.44141a1.55219,1.55219,0,0,1,1.1836-.52539.98364.98364,0,0,1,1.09961,1.0791V126.09h-.88867Z"/><path class="cls-10" d="M200.58044,125.74037a1.4,1.4,0,0,1-1.07129.4336,1.12712,1.12712,0,0,1-1.17675-1.12012,1.07154,1.07154,0,0,1,1.17675-1.0791,1.36812,1.36812,0,0,1,1.07129.41308v-.46875c0-.34277-.29394-.56738-.74218-.56738a1.42078,1.42078,0,0,0-.98731.39942l-.33594-.59571a2.21788,2.21788,0,0,1,1.47754-.53222c.77051,0,1.47754.30859,1.47754,1.28222V126.09h-.88965Zm0-.88281a.88708.88708,0,0,0-.71386-.29394c-.35059,0-.6377.18847-.6377.51074,0,.31543.28711.498.6377.498a.8877.8877,0,0,0,.71386-.29492Z"/><path class="cls-10" d="M202.55212,125.25014v-1.76563h-.56054v-.77734h.56054v-.92383h.89649v.92383h.68652v.77734h-.68652v1.52735c0,.21.1123.37109.30761.37109a.48062.48062,0,0,0,.3086-.09863l.18945.67285a1.09991,1.09991,0,0,1-.74316.2168A.845.845,0,0,1,202.55212,125.25014Z"/><path class="cls-10" d="M204.73376,121.67787a.53223.53223,0,1,1,.53223.53223A.53665.53665,0,0,1,204.73376,121.67787Zm.09082,1.0293h.88965V126.09h-.88965Z"/><path class="cls-10" d="M206.40076,124.39565a1.78959,1.78959,0,1,1,1.78613,1.77832A1.7138,1.7138,0,0,1,206.40076,124.39565Zm2.65429,0a.87235.87235,0,1,0-.86816.9873A.89231.89231,0,0,0,209.05505,124.39565Z"/><path class="cls-10" d="M212.972,124.04506a.54863.54863,0,0,0-.623-.62988.96294.96294,0,0,0-.77051.39844V126.09h-.88965v-3.38281h.88965v.44141a1.54885,1.54885,0,0,1,1.18359-.52539.98407.98407,0,0,1,1.09961,1.0791V126.09H212.972Z"/><path class="cls-10" d="M218.42517,125.74037a1.403,1.403,0,0,1-1.07129.4336,1.12658,1.12658,0,0,1-1.17676-1.12012,1.07108,1.07108,0,0,1,1.17676-1.0791,1.36955,1.36955,0,0,1,1.07129.41308v-.46875c0-.34277-.29395-.56738-.74219-.56738a1.42478,1.42478,0,0,0-.98828.39942l-.33594-.59571a2.21788,2.21788,0,0,1,1.47754-.53222c.77051,0,1.47852.30859,1.47852,1.28222V126.09h-.88965Zm0-.88281a.89049.89049,0,0,0-.71484-.29394c-.34961,0-.63672.18847-.63672.51074,0,.31543.28711.498.63672.498a.89111.89111,0,0,0,.71484-.29492Z"/><path class="cls-10" d="M222.5697,125.66323a1.326,1.326,0,0,1-1.043.51074c-.85449,0-1.499-.64356-1.499-1.77149,0-1.10644.63672-1.77929,1.499-1.77929a1.30071,1.30071,0,0,1,1.043.51855v-1.72266h.89649V126.09h-.89649Zm0-1.86329a.97887.97887,0,0,0-.77051-.38476.99368.99368,0,0,0,0,1.96777.97685.97685,0,0,0,.77051-.38574Z"/><path class="cls-10" d="M226.73083,125.66323a1.326,1.326,0,0,1-1.043.51074c-.8545,0-1.499-.64356-1.499-1.77149,0-1.10644.63672-1.77929,1.499-1.77929a1.3007,1.3007,0,0,1,1.043.51855v-1.72266h.89649V126.09h-.89649Zm0-1.86329a.97885.97885,0,0,0-.7705-.38476.99368.99368,0,0,0,0,1.96777.97683.97683,0,0,0,.7705-.38574Z"/><path class="cls-10" d="M228.5404,122.70717h.88868v.46289a1.44772,1.44772,0,0,1,1.0791-.54v.86914a1.158,1.158,0,0,0-1.0791.35645V126.09h-.88868Z"/><path class="cls-10" d="M232.62048,122.62319a1.6968,1.6968,0,0,1,1.69531,1.86328v.19629h-2.51464a.91164.91164,0,0,0,.97363.78418,1.38239,1.38239,0,0,0,.90332-.33594l.39258.57422a2.08526,2.08526,0,0,1-1.39356.46875,1.77562,1.77562,0,1,1-.05664-3.55078Zm-.833,1.457h1.667a.78373.78373,0,0,0-.834-.749A.81278.81278,0,0,0,231.78747,124.08022Z"/><path class="cls-10" d="M235.09119,125.02553a1.9331,1.9331,0,0,0,1.16992.46191c.38476,0,.5664-.13281.5664-.34277,0-.23828-.29394-.32227-.67871-.39941-.582-.11133-1.33105-.252-1.33105-1.05762,0-.56738.49707-1.06445,1.38672-1.06445a2.12225,2.12225,0,0,1,1.3584.46289l-.34961.6084a1.42955,1.42955,0,0,0-1.002-.39161c-.32226,0-.53222.11914-.53222.31543,0,.21.2666.28711.64453.36426.58105.11133,1.3584.26563,1.3584,1.10645,0,.623-.52442,1.085-1.46387,1.085a2.27357,2.27357,0,0,1-1.5127-.52539Z"/><path class="cls-10" d="M238.48181,125.02553a1.93557,1.93557,0,0,0,1.16992.46191c.38477,0,.56739-.13281.56739-.34277,0-.23828-.29395-.32227-.67969-.39941-.58106-.11133-1.33008-.252-1.33008-1.05762,0-.56738.49707-1.06445,1.38672-1.06445a2.12223,2.12223,0,0,1,1.3584.46289l-.35059.6084a1.427,1.427,0,0,0-1.001-.39161c-.32226,0-.53222.11914-.53222.31543,0,.21.26562.28711.64453.36426.581.11133,1.3584.26563,1.3584,1.10645,0,.623-.52539,1.085-1.46387,1.085a2.27357,2.27357,0,0,1-1.5127-.52539Z"/><path class="cls-10" d="M168.25622,135.39565a.83353.83353,0,1,1,.834.82617A.83108.83108,0,0,1,168.25622,135.39565Z"/><path class="cls-10" d="M177.79138,132.41908h1.8418a2.33963,2.33963,0,1,1,0,4.6709h-1.8418Zm1.8418,3.7959a1.39866,1.39866,0,0,0,1.46386-1.457,1.36707,1.36707,0,0,0-1.46386-1.46387h-.84766v2.9209Z"/><path class="cls-10" d="M184.40076,133.62319a1.6968,1.6968,0,0,1,1.69531,1.86328v.19629h-2.51465a.91164.91164,0,0,0,.97363.78418,1.38237,1.38237,0,0,0,.90332-.33594l.39258.57422a2.08525,2.08525,0,0,1-1.39355.46875,1.77562,1.77562,0,1,1-.05664-3.55078Zm-.833,1.457h1.667a.78372.78372,0,0,0-.834-.749A.81277.81277,0,0,0,183.56775,135.08022Z"/><path class="cls-10" d="M186.87146,136.02553a1.93312,1.93312,0,0,0,1.16992.46191c.38477,0,.56641-.13281.56641-.34277,0-.23828-.29395-.32227-.67871-.39941-.582-.11133-1.33106-.252-1.33106-1.05762,0-.56738.49707-1.06445,1.38672-1.06445a2.12223,2.12223,0,0,1,1.3584.46289l-.34961.6084a1.42954,1.42954,0,0,0-1.00195-.39161c-.32227,0-.53223.11914-.53223.31543,0,.21.2666.28711.64453.36426.58106.11133,1.3584.26563,1.3584,1.10645,0,.623-.52441,1.085-1.46387,1.085a2.27352,2.27352,0,0,1-1.51269-.52539Z"/><path class="cls-10" d="M190.38122,136.25014v-1.76563h-.55957v-.77734h.55957v-.92383h.89649v.92383h.68652v.77734h-.68652v1.52735c0,.21.1123.37109.30859.37109a.47964.47964,0,0,0,.30762-.09863l.18945.67285a1.09687,1.09687,0,0,1-.74218.2168A.84577.84577,0,0,1,190.38122,136.25014Z"/><path class="cls-10" d="M192.56287,132.67787a.53223.53223,0,1,1,.53222.53223A.53664.53664,0,0,1,192.56287,132.67787Zm.09082,1.0293h.88964V137.09h-.88964Z"/><path class="cls-10" d="M196.74158,135.04506a.54894.54894,0,0,0-.624-.62988.96446.96446,0,0,0-.77051.39844V137.09h-.88867v-3.38281h.88867v.44141a1.55219,1.55219,0,0,1,1.1836-.52539.98364.98364,0,0,1,1.09961,1.0791V137.09h-.88867Z"/><path class="cls-10" d="M200.58044,136.74037a1.4,1.4,0,0,1-1.07129.4336,1.12712,1.12712,0,0,1-1.17675-1.12012,1.07154,1.07154,0,0,1,1.17675-1.0791,1.36812,1.36812,0,0,1,1.07129.41308v-.46875c0-.34277-.29394-.56738-.74218-.56738a1.42078,1.42078,0,0,0-.98731.39942l-.33594-.59571a2.21788,2.21788,0,0,1,1.47754-.53222c.77051,0,1.47754.30859,1.47754,1.28222V137.09h-.88965Zm0-.88281a.88708.88708,0,0,0-.71386-.29394c-.35059,0-.6377.18847-.6377.51074,0,.31543.28711.498.6377.498a.8877.8877,0,0,0,.71386-.29492Z"/><path class="cls-10" d="M202.55212,136.25014v-1.76563h-.56054v-.77734h.56054v-.92383h.89649v.92383h.68652v.77734h-.68652v1.52735c0,.21.1123.37109.30761.37109a.48062.48062,0,0,0,.3086-.09863l.18945.67285a1.09991,1.09991,0,0,1-.74316.2168A.845.845,0,0,1,202.55212,136.25014Z"/><path class="cls-10" d="M204.73376,132.67787a.53223.53223,0,1,1,.53223.53223A.53665.53665,0,0,1,204.73376,132.67787Zm.09082,1.0293h.88965V137.09h-.88965Z"/><path class="cls-10" d="M206.40076,135.39565a1.78959,1.78959,0,1,1,1.78613,1.77832A1.7138,1.7138,0,0,1,206.40076,135.39565Zm2.65429,0a.87235.87235,0,1,0-.86816.9873A.89231.89231,0,0,0,209.05505,135.39565Z"/><path class="cls-10" d="M212.972,135.04506a.54863.54863,0,0,0-.623-.62988.96294.96294,0,0,0-.77051.39844V137.09h-.88965v-3.38281h.88965v.44141a1.54885,1.54885,0,0,1,1.18359-.52539.98407.98407,0,0,1,1.09961,1.0791V137.09H212.972Z"/><path class="cls-10" d="M216.39392,138.37905v-4.67188h.88965v.42773a1.3065,1.3065,0,0,1,1.04394-.51171c.86817,0,1.49805.64453,1.49805,1.77246,0,1.127-.62988,1.77832-1.49805,1.77832a1.29427,1.29427,0,0,1-1.04394-.51758v1.72266Zm1.65332-3.96387a.99808.99808,0,0,0-.76367.38476v1.19727a1.01766,1.01766,0,0,0,.76367.38574.99368.99368,0,0,0,0-1.96777Z"/><path class="cls-10" d="M220.348,135.39565a1.78959,1.78959,0,1,1,1.78613,1.77832A1.71324,1.71324,0,0,1,220.348,135.39565Zm2.6543,0a.87278.87278,0,1,0-.86817.9873A.89289.89289,0,0,0,223.00232,135.39565Z"/><path class="cls-10" d="M224.63611,133.70717h.88965v.46289a1.44568,1.44568,0,0,1,1.07812-.54v.86914a1.15614,1.15614,0,0,0-1.07812.35645V137.09h-.88965Z"/><path class="cls-10" d="M227.51794,136.25014v-1.76563h-.55957v-.77734h.55957v-.92383h.89649v.92383h.68652v.77734h-.68652v1.52735c0,.21.1123.37109.30859.37109a.47966.47966,0,0,0,.30762-.09863l.18945.67285a1.09688,1.09688,0,0,1-.74219.2168A.84577.84577,0,0,1,227.51794,136.25014Z"/><path class="cls-10" d="M168.25622,146.39565a.83353.83353,0,1,1,.834.82617A.83108.83108,0,0,1,168.25622,146.39565Z"/><path class="cls-10" d="M177.79138,143.41908h1.8418a2.33963,2.33963,0,1,1,0,4.6709h-1.8418Zm1.8418,3.7959a1.39866,1.39866,0,0,0,1.46386-1.457,1.36707,1.36707,0,0,0-1.46386-1.46387h-.84766v2.9209Z"/><path class="cls-10" d="M182.64978,146.39565a1.78959,1.78959,0,1,1,1.78613,1.77832A1.7138,1.7138,0,0,1,182.64978,146.39565Zm2.6543,0a.87236.87236,0,1,0-.86817.9873A.89232.89232,0,0,0,185.30408,146.39565Z"/><path class="cls-10" d="M191.13415,145.95424c0-.31543-.14062-.53906-.50488-.53906a.89783.89783,0,0,0-.70019.3916V148.09h-.89649v-2.13574c0-.31543-.13965-.53906-.5039-.53906a.911.911,0,0,0-.70118.39844V148.09h-.88867v-3.38281h.88867v.44141a1.4822,1.4822,0,0,1,1.10743-.52539.89632.89632,0,0,1,.93847.61621,1.43426,1.43426,0,0,1,1.16211-.61621.90348.90348,0,0,1,.99512,1.02246V148.09h-.89649Z"/><path class="cls-10" d="M194.98669,147.74037a1.403,1.403,0,0,1-1.07129.4336,1.12658,1.12658,0,0,1-1.17675-1.12012,1.07107,1.07107,0,0,1,1.17675-1.0791,1.36953,1.36953,0,0,1,1.07129.41308v-.46875c0-.34277-.29394-.56738-.74218-.56738a1.4248,1.4248,0,0,0-.98829.39942l-.33593-.59571a2.21785,2.21785,0,0,1,1.47754-.53222c.7705,0,1.47851.30859,1.47851,1.28222V148.09h-.88965Zm0-.88281a.89049.89049,0,0,0-.71484-.29394c-.34961,0-.63672.18847-.63672.51074,0,.31543.28711.498.63672.498a.89111.89111,0,0,0,.71484-.29492Z"/><path class="cls-10" d="M196.68494,143.67787a.53223.53223,0,1,1,.53222.53223A.53664.53664,0,0,1,196.68494,143.67787Zm.09082,1.0293h.88964V148.09h-.88964Z"/><path class="cls-10" d="M200.86267,146.04506a.54864.54864,0,0,0-.62305-.62988.96293.96293,0,0,0-.7705.39844V148.09h-.88965v-3.38281h.88965v.44141a1.54883,1.54883,0,0,1,1.18359-.52539.98407.98407,0,0,1,1.09961,1.0791V148.09h-.88965Z"/><path class="cls-10" d="M206.56775,146.04506a.54894.54894,0,0,0-.624-.62988.96444.96444,0,0,0-.7705.39844V148.09h-.88868v-3.38281h.88868v.44141a1.55216,1.55216,0,0,1,1.18359-.52539.98364.98364,0,0,1,1.09961,1.0791V148.09h-.88867Z"/><path class="cls-10" d="M210.40759,147.74037a1.403,1.403,0,0,1-1.07129.4336,1.12658,1.12658,0,0,1-1.17676-1.12012,1.07108,1.07108,0,0,1,1.17676-1.0791,1.36955,1.36955,0,0,1,1.07129.41308v-.46875c0-.34277-.29394-.56738-.74219-.56738a1.4248,1.4248,0,0,0-.98828.39942l-.33593-.59571a2.21784,2.21784,0,0,1,1.47753-.53222c.77051,0,1.47852.30859,1.47852,1.28222V148.09h-.88965Zm0-.88281a.89049.89049,0,0,0-.71484-.29394c-.34961,0-.63672.18847-.63672.51074,0,.31543.28711.498.63672.498a.89111.89111,0,0,0,.71484-.29492Z"/><path class="cls-10" d="M216.39978,145.95424c0-.31543-.13965-.53906-.50391-.53906a.90141.90141,0,0,0-.70117.3916V148.09h-.89648v-2.13574c0-.31543-.13965-.53906-.50391-.53906a.909.909,0,0,0-.70019.39844V148.09h-.88965v-3.38281h.88965v.44141a1.47792,1.47792,0,0,1,1.10644-.52539.89558.89558,0,0,1,.93848.61621,1.43764,1.43764,0,0,1,1.16308-.61621.90279.90279,0,0,1,.99414,1.02246V148.09h-.89648Z"/><path class="cls-10" d="M219.75134,144.62319a1.69662,1.69662,0,0,1,1.69434,1.86328v.19629H218.932a.91062.91062,0,0,0,.97265.78418,1.38691,1.38691,0,0,0,.9043-.33594l.3916.57422a2.08171,2.08171,0,0,1-1.39355.46875,1.77561,1.77561,0,1,1-.05567-3.55078Zm-.834,1.457h1.667a.78278.78278,0,0,0-.833-.749A.813.813,0,0,0,218.91736,146.08022Z"/><path class="cls-10" d="M248.74646,113.39565a.833.833,0,1,1,.833.82617A.83064.83064,0,0,1,248.74646,113.39565Z"/><path class="cls-10" d="M258.28162,110.41908h.99414V115.091h-.99414Z"/><path class="cls-10" d="M260.29822,110.41908h2.18457a1.5006,1.5006,0,1,1,0,2.99805h-1.18946V115.091h-.99511Zm2.05175.8545h-1.05664v1.28906H262.35a.64581.64581,0,1,0,0-1.28906Z"/><path class="cls-10" d="M266.62732,115.31459a1.34067,1.34067,0,0,0,1.05664.4209.82693.82693,0,0,0,.93164-.85449v-.34375a1.31769,1.31769,0,0,1-1.043.53223c-.84766,0-1.49219-.59473-1.49219-1.72266a1.513,1.513,0,0,1,1.49219-1.72266,1.30254,1.30254,0,0,1,1.043.51758v-.43359h.89648v3.15136c0,1.28907-.99414,1.60352-1.82812,1.60352a2.04084,2.04084,0,0,1-1.457-.50391Zm1.98828-2.51367a.962.962,0,0,0-.76367-.38574.93522.93522,0,0,0,0,1.86328.982.982,0,0,0,.76367-.38574Z"/><path class="cls-10" d="M271.976,111.62416a1.69526,1.69526,0,0,1,1.69434,1.86231v.19629h-2.51367a.90989.90989,0,0,0,.97265.78418,1.383,1.383,0,0,0,.9043-.33594l.39258.57422a2.08673,2.08673,0,0,1-1.39453.46972,1.77561,1.77561,0,1,1-.05567-3.55078Zm-.833,1.45606h1.666a.78273.78273,0,0,0-.833-.749A.81138.81138,0,0,0,271.14294,113.08022Z"/><path class="cls-10" d="M274.16736,113.39565a1.78958,1.78958,0,1,1,1.78613,1.77929A1.71357,1.71357,0,0,1,274.16736,113.39565Zm2.65429,0a.87235.87235,0,1,0-.86816.9873A.89289.89289,0,0,0,276.82165,113.39565Z"/><path class="cls-10" d="M278.81091,115.31459a1.34484,1.34484,0,0,0,1.0586.4209.8266.8266,0,0,0,.93066-.85449v-.34375a1.3181,1.3181,0,0,1-1.04395.53223c-.84668,0-1.49121-.59473-1.49121-1.72266a1.51336,1.51336,0,0,1,1.49121-1.72266,1.303,1.303,0,0,1,1.04395.51758v-.43359h.89648v3.15136c0,1.28907-.99414,1.60352-1.82714,1.60352a2.03783,2.03783,0,0,1-1.457-.50391Zm1.98926-2.51367a.96444.96444,0,0,0-.7627-.38574.935.935,0,0,0,0,1.86328.98465.98465,0,0,0,.7627-.38574Z"/><path class="cls-10" d="M282.60974,111.70815h.88867v.46191a1.448,1.448,0,0,1,1.07813-.53906v.86816a1.19808,1.19808,0,0,0-.24414-.02051,1.12888,1.12888,0,0,0-.834.37793V115.091h-.88867Z"/><path class="cls-10" d="M287.18689,114.74037a1.39861,1.39861,0,0,1-1.07129.43457,1.12732,1.12732,0,0,1-1.17676-1.12109,1.07134,1.07134,0,0,1,1.17676-1.07812,1.3648,1.3648,0,0,1,1.07129.41308v-.46973c0-.34277-.29395-.5664-.74219-.5664a1.42407,1.42407,0,0,0-.9873.39844l-.33594-.59473a2.21537,2.21537,0,0,1,1.47656-.53223c.77149,0,1.47852.30762,1.47852,1.28125V115.091h-.88965Zm0-.88183a.88907.88907,0,0,0-.71387-.29492c-.35058,0-.63769.18945-.63769.51171,0,.31543.28711.49707.63769.49707a.88844.88844,0,0,0,.71387-.29394Z"/><path class="cls-10" d="M288.98279,116.37905v-4.6709h.88965v.42675a1.30557,1.30557,0,0,1,1.04394-.51074c.86816,0,1.498.64356,1.498,1.77149s-.62989,1.77929-1.498,1.77929a1.29249,1.29249,0,0,1-1.04394-.51855v1.72266Zm1.65332-3.96387a.99593.99593,0,0,0-.76367.38574v1.19727a1.02,1.02,0,0,0,.76367.38476.99368.99368,0,0,0,0-1.96777Z"/><path class="cls-10" d="M295.43787,113.03139c0-.46875-.2461-.61621-.63086-.61621a.98515.98515,0,0,0-.77051.39941V115.091h-.88965v-4.67188h.88965v1.73047a1.56484,1.56484,0,0,1,1.19043-.52539.97411.97411,0,0,1,1.09961,1.06446V115.091h-.88867Z"/><path class="cls-10" d="M297.48279,115.672a.4497.4497,0,0,0,.46972-.24511l.126-.28711-1.373-3.43164h.95313l.88281,2.35254.88184-2.35254h.96l-1.58985,3.93554a1.2289,1.2289,0,0,1-1.28222.81934,2.39385,2.39385,0,0,1-.44043-.04883l.13281-.79785A.75752.75752,0,0,0,297.48279,115.672Z"/><path class="cls-10" d="M248.74646,124.39565a.833.833,0,1,1,.833.82617A.83064.83064,0,0,1,248.74646,124.39565Z"/><path class="cls-10" d="M258.28162,121.41908h2.18457a1.5006,1.5006,0,1,1,0,2.99805h-1.19043V126.091h-.99414Zm2.05078.8545h-1.05664v1.28906h1.05664a.64587.64587,0,1,0,0-1.28906Z"/><path class="cls-10" d="M262.62829,122.70815h.88965v.46191a1.448,1.448,0,0,1,1.07813-.53906v.86816a1.20188,1.20188,0,0,0-.24512-.02051,1.12674,1.12674,0,0,0-.833.37793V126.091h-.88965Z"/><path class="cls-10" d="M264.96033,124.39565a1.78958,1.78958,0,1,1,1.78613,1.77929A1.71357,1.71357,0,0,1,264.96033,124.39565Zm2.65429,0a.87235.87235,0,1,0-.86816.9873A.89289.89289,0,0,0,267.61462,124.39565Z"/><path class="cls-10" d="M269.432,125.25014v-1.76465h-.56055v-.77734h.56055v-.92481h.89648v.92481h.68652v.77734h-.68652v1.52637c0,.21.1123.37109.30859.37109a.491.491,0,0,0,.3086-.09765l.18847.67187a1.09942,1.09942,0,0,1-.74316.21777A.8453.8453,0,0,1,269.432,125.25014Z"/><path class="cls-10" d="M271.4447,124.39565a1.78958,1.78958,0,1,1,1.78613,1.77929A1.71357,1.71357,0,0,1,271.4447,124.39565Zm2.6543,0a.87235.87235,0,1,0-.86817.9873A.89289.89289,0,0,0,274.099,124.39565Z"/><path class="cls-10" d="M277.32068,122.62416a1.55944,1.55944,0,0,1,1.33789.61621l-.582.53907a.83453.83453,0,0,0-.71387-.36426.98632.98632,0,0,0,0,1.96777.85114.85114,0,0,0,.71387-.36426l.582.54a1.56187,1.56187,0,0,1-1.33789.61621,1.77548,1.77548,0,1,1,0-3.55078Z"/><path class="cls-10" d="M278.98669,124.39565a1.78958,1.78958,0,1,1,1.78614,1.77929A1.713,1.713,0,0,1,278.98669,124.39565Zm2.6543,0a.87278.87278,0,1,0-.86816.9873A.89231.89231,0,0,0,281.641,124.39565Z"/><path class="cls-10" d="M283.27185,121.41908h.88867V126.091h-.88867Z"/><path class="cls-10" d="M248.74646,135.39565a.833.833,0,1,1,.833.82617A.83064.83064,0,0,1,248.74646,135.39565Z"/><path class="cls-10" d="M258.28162,132.41908h1.00781v2.77344a1.07881,1.07881,0,1,0,2.15722,0v-2.77344h1.00879v2.80176a2.09167,2.09167,0,0,1-4.17382.00684Z"/><path class="cls-10" d="M265.19763,135.41713h-.72851V137.091H263.475v-4.67188h2.18555a1.4545,1.4545,0,0,1,1.56836,1.50586,1.34041,1.34041,0,0,1-1.02148,1.38672l1.0498,1.7793h-1.1416Zm.31641-2.14355h-1.04492v1.28906H265.514a.64667.64667,0,1,0,0-1.28906Z"/><path class="cls-10" d="M268.06287,132.41908h.99414v3.7959h1.97461v.876h-2.96875Z"/><path class="cls-10" d="M274.931,133.62416a1.5581,1.5581,0,0,1,1.33789.61621l-.58105.53907a.83748.83748,0,0,0-.71485-.36426.98625.98625,0,0,0,0,1.96777.8542.8542,0,0,0,.71485-.36426l.58105.54a1.56052,1.56052,0,0,1-1.33789.61621,1.77548,1.77548,0,1,1,0-3.55078Z"/><path class="cls-10" d="M278.94763,136.74037a1.40079,1.40079,0,0,1-1.07226.43457,1.12652,1.12652,0,0,1-1.17579-1.12109,1.07056,1.07056,0,0,1,1.17579-1.07812,1.367,1.367,0,0,1,1.07226.41308v-.46973c0-.34277-.29492-.5664-.74219-.5664a1.42466,1.42466,0,0,0-.98828.39844l-.33594-.59473a2.21789,2.21789,0,0,1,1.47754-.53223c.77051,0,1.47754.30762,1.47754,1.28125V137.091h-.88867Zm0-.88183a.89111.89111,0,0,0-.71484-.29492c-.34961,0-.63672.18945-.63672.51171,0,.31543.28711.49707.63672.49707a.89049.89049,0,0,0,.71484-.29394Z"/><path class="cls-10" d="M280.91833,136.25014v-1.76465h-.56054v-.77734h.56054v-.92481h.89649v.92481h.68652v.77734h-.68652v1.52637c0,.21.1123.37109.30859.37109a.491.491,0,0,0,.3086-.09765l.18847.67187a1.09944,1.09944,0,0,1-.74316.21777A.84531.84531,0,0,1,280.91833,136.25014Z"/><path class="cls-10" d="M284.682,133.62416a1.69651,1.69651,0,0,1,1.69531,1.86231v.19629h-2.51465a.9109.9109,0,0,0,.97363.78418,1.38624,1.38624,0,0,0,.90332-.33594l.3916.57422a2.08147,2.08147,0,0,1-1.39257.46972,1.77562,1.77562,0,1,1-.05664-3.55078Zm-.834,1.45606h1.668a.785.785,0,0,0-.834-.749A.81446.81446,0,0,0,283.848,135.08022Z"/><path class="cls-10" d="M287.42029,137.31459a1.34067,1.34067,0,0,0,1.05664.4209.82693.82693,0,0,0,.93164-.85449v-.34375a1.31769,1.31769,0,0,1-1.043.53223c-.84766,0-1.49219-.59473-1.49219-1.72266a1.513,1.513,0,0,1,1.49219-1.72266,1.30254,1.30254,0,0,1,1.043.51758v-.43359h.89648v3.15136c0,1.28907-.99414,1.60352-1.82812,1.60352a2.04082,2.04082,0,0,1-1.457-.50391Zm1.98828-2.51367a.962.962,0,0,0-.76367-.38574.93522.93522,0,0,0,0,1.86328.982.982,0,0,0,.76367-.38574Z"/><path class="cls-10" d="M291.01794,135.39565a1.78958,1.78958,0,1,1,1.78614,1.77929A1.713,1.713,0,0,1,291.01794,135.39565Zm2.6543,0a.87278.87278,0,1,0-.86816.9873A.89231.89231,0,0,0,293.67224,135.39565Z"/><path class="cls-10" d="M295.3031,133.70815h.88867v.46191a1.45006,1.45006,0,0,1,1.0791-.53906v.86816a1.21507,1.21507,0,0,0-.24511-.02051,1.13223,1.13223,0,0,0-.834.37793V137.091h-.88867Z"/><path class="cls-10" d="M298.35193,137.672a.4497.4497,0,0,0,.46972-.24511l.126-.28711-1.373-3.43164h.95313l.88281,2.35254.88184-2.35254h.96l-1.58985,3.93554a1.2289,1.2289,0,0,1-1.28222.81934,2.39385,2.39385,0,0,1-.44043-.04883l.13281-.79785A.75752.75752,0,0,0,298.35193,137.672Z"/><path class="cls-10" d="M248.74646,146.39565a.833.833,0,1,1,.833.82617A.83064.83064,0,0,1,248.74646,146.39565Z"/><path class="cls-10" d="M258.28162,143.41908h.99414V148.091h-.99414Z"/><path class="cls-10" d="M260.29822,143.41908h2.18457a1.5006,1.5006,0,1,1,0,2.998h-1.18946V148.091h-.99511Zm2.05175.8545h-1.05664v1.28906H262.35a.64581.64581,0,1,0,0-1.28906Z"/><path class="cls-10" d="M264.69665,143.41908h.99512V148.091h-.99512Z"/><path class="cls-10" d="M269.82068,144.62416a1.5581,1.5581,0,0,1,1.33789.61621l-.58106.53907a.83573.83573,0,0,0-.71386-.36426.98625.98625,0,0,0,0,1.96777.85241.85241,0,0,0,.71386-.36426l.58106.54a1.56052,1.56052,0,0,1-1.33789.61621,1.77548,1.77548,0,1,1,0-3.55078Z"/><path class="cls-10" d="M273.83728,147.74037a1.39861,1.39861,0,0,1-1.07129.43457,1.12732,1.12732,0,0,1-1.17676-1.12109,1.07134,1.07134,0,0,1,1.17676-1.07812,1.3648,1.3648,0,0,1,1.07129.41308v-.46973c0-.34277-.29395-.5664-.74219-.5664a1.42407,1.42407,0,0,0-.9873.39844l-.33594-.59473a2.21537,2.21537,0,0,1,1.47656-.53223c.77149,0,1.47852.30762,1.47852,1.28125V148.091h-.88965Zm0-.88183a.88907.88907,0,0,0-.71387-.29492c-.35058,0-.63769.18945-.63769.51171,0,.31543.28711.49707.63769.49707a.88844.88844,0,0,0,.71387-.29394Z"/><path class="cls-10" d="M275.809,147.25014v-1.76465h-.56055v-.77734h.56055v-.92481h.89648v.92481h.68653v.77734h-.68653v1.52637c0,.21.11231.37109.3086.37109a.491.491,0,0,0,.30859-.09765l.18848.67187a1.09947,1.09947,0,0,1-.74317.21777A.84531.84531,0,0,1,275.809,147.25014Z"/><path class="cls-10" d="M279.57263,144.62416a1.69651,1.69651,0,0,1,1.69531,1.86231v.19629h-2.51465a.91092.91092,0,0,0,.97364.78418,1.38628,1.38628,0,0,0,.90332-.33594l.3916.57422a2.08148,2.08148,0,0,1-1.39258.46972,1.77562,1.77562,0,1,1-.05664-3.55078Zm-.834,1.45606h1.668a.785.785,0,0,0-.834-.749A.81445.81445,0,0,0,278.73865,146.08022Z"/><path class="cls-10" d="M282.31091,148.31459a1.34067,1.34067,0,0,0,1.05664.4209.82692.82692,0,0,0,.93164-.85449v-.34375a1.31768,1.31768,0,0,1-1.043.53223c-.84765,0-1.49218-.59473-1.49218-1.72266a1.513,1.513,0,0,1,1.49218-1.72266,1.30253,1.30253,0,0,1,1.043.51758v-.43359h.89649v3.15136c0,1.28907-.99414,1.60352-1.82813,1.60352a2.04085,2.04085,0,0,1-1.457-.50391Zm1.98828-2.51367a.962.962,0,0,0-.76367-.38574.93522.93522,0,0,0,0,1.86328.982.982,0,0,0,.76367-.38574Z"/><path class="cls-10" d="M285.90857,146.39565a1.78958,1.78958,0,1,1,1.78613,1.77929A1.713,1.713,0,0,1,285.90857,146.39565Zm2.6543,0a.87278.87278,0,1,0-.86817.9873A.89232.89232,0,0,0,288.56287,146.39565Z"/><path class="cls-10" d="M290.19372,144.70815h.88868v.46191a1.45006,1.45006,0,0,1,1.0791-.53906v.86816a1.21518,1.21518,0,0,0-.24512-.02051,1.13221,1.13221,0,0,0-.834.37793V148.091h-.88868Z"/><path class="cls-10" d="M293.24255,148.672a.44909.44909,0,0,0,.46875-.24511l.127-.28711-1.373-3.43164h.95312l.88184,2.35254.88184-2.35254h.96l-1.58985,3.93554a1.22819,1.22819,0,0,1-1.28222.81934,2.403,2.403,0,0,1-.44043-.04883l.13281-.79785A.76659.76659,0,0,0,293.24255,148.672Z"/><path class="cls-11" d="M158.71939,152.43977H157.61c-1.6992,0-2.5137-.8379-2.5137-2.8574v-29.2988c0-2.4863-.3437-3.1748-1.4746-3.1748V115.976c1.1309,0,1.4746-.6924,1.4746-3.1768V98.31187c0-2.0215.8145-2.8574,2.5137-2.8574h1.1094v1.1308h-.7403c-1.0332,0-1.5507.4688-1.5507,1.75v15.251c0,1.8955-.6192,2.6592-1.5762,2.9317v.0488c.957.2695,1.5762,1.0342,1.5762,2.9287v30.0644c0,1.2784.5175,1.7461,1.5507,1.7461h.7403Z"/><path class="cls-7" d="M320.67322,111.52455a3.10309,3.10309,0,0,0,2.31054,1.0459c1.30957,0,1.72754-.7041,1.72754-1.26562,0-.87989-.8916-1.12207-1.85937-1.38575-1.17774-.30859-2.48633-.63867-2.48633-2.08007,0-1.21,1.07812-2.03516,2.51953-2.03516a3.4525,3.4525,0,0,1,2.60742,1.02344l-.55078.6709a2.806,2.806,0,0,0-2.12305-.87989c-.88085,0-1.50781.47266-1.50781,1.166,0,.7373.84766.957,1.78321,1.21,1.19921.31934,2.5625.69336,2.5625,2.2334,0,1.06738-.72559,2.15625-2.70606,2.15625a3.634,3.634,0,0,1-2.81641-1.166Z"/><path class="cls-7" d="M329.18787,107.80678a2.58106,2.58106,0,0,1,2.55273,2.84863v.209h-4.30273a1.87281,1.87281,0,0,0,1.91406,1.83789,2.3281,2.3281,0,0,0,1.64062-.6709l.39551.53906a2.88939,2.88939,0,0,1-2.1123.81348,2.79189,2.79189,0,0,1-.08789-5.57715Zm-1.75,2.45312h3.48828a1.72329,1.72329,0,0,0-1.75-1.77148A1.77369,1.77369,0,0,0,327.43787,110.2599Z"/><path class="cls-7" d="M332.95935,107.93862h.82617v.85742a2.25709,2.25709,0,0,1,1.77051-.96778v.84668a1.48745,1.48745,0,0,0-.33008-.03222,1.94187,1.94187,0,0,0-1.44043.84668v3.76269h-.82617Z"/><path class="cls-7" d="M335.68787,107.93862h.89062l1.77148,4.35644,1.75977-4.35644h.90234l-2.21093,5.31347h-.90235Z"/><path class="cls-7" d="M341.61658,106.48647a.55568.55568,0,0,1,1.11132,0,.55568.55568,0,1,1-1.11132,0Zm.14355,1.45215h.82422v5.31347h-.82422Z"/><path class="cls-7" d="M346.46814,107.80678a2.27429,2.27429,0,0,1,1.94726.92383l-.5498.50586a1.57545,1.57545,0,0,0-1.35352-.69336,2.0642,2.0642,0,0,0,0,4.10351,1.60286,1.60286,0,0,0,1.35352-.69238l.5498.50586a2.27429,2.27429,0,0,1-1.94726.92383,2.79212,2.79212,0,0,1,0-5.57715Z"/><path class="cls-7" d="M351.7699,107.80678a2.58105,2.58105,0,0,1,2.55273,2.84863v.209H350.0199a1.87281,1.87281,0,0,0,1.91406,1.83789,2.3281,2.3281,0,0,0,1.64062-.6709l.39551.53906a2.88939,2.88939,0,0,1-2.1123.81348,2.79189,2.79189,0,0,1-.08789-5.57715Zm-1.75,2.45312h3.48828a1.72329,1.72329,0,0,0-1.75-1.77148A1.7737,1.7737,0,0,0,350.0199,110.2599Z"/><path class="cls-7" d="M324.13318,120.589a3.66224,3.66224,0,0,1,3.74023-3.7959,3.299,3.299,0,0,1,2.81641,1.45215l-.76953.42871a2.492,2.492,0,0,0-2.04688-1.06641,2.98767,2.98767,0,0,0,0,5.96289,2.46553,2.46553,0,0,0,2.04688-1.06738l.78027.42871a3.337,3.337,0,0,1-2.82715,1.45215A3.662,3.662,0,0,1,324.13318,120.589Z"/><path class="cls-7" d="M335.32068,120.75405c0-.93555-.48438-1.21094-1.19922-1.21094a2.08923,2.08923,0,0,0-1.57324.82519v3.88379h-.8252V116.9142h.8252v2.794a2.64307,2.64307,0,0,1,1.90332-.90137,1.49357,1.49357,0,0,1,1.69336,1.69336v3.75195h-.82422Z"/><path class="cls-7" d="M341.00622,123.64662a2.296,2.296,0,0,1-1.75976.73731,1.769,1.769,0,0,1-1.85938-1.75977,1.74068,1.74068,0,0,1,1.85938-1.75,2.21836,2.21836,0,0,1,1.75976.72657v-.957c0-.71484-.57128-1.12207-1.34179-1.12207a2.10912,2.10912,0,0,0-1.62793.73731l-.38574-.57227a2.781,2.781,0,0,1,2.124-.87988c1.12207,0,2.05762.50586,2.05762,1.793v3.65234h-.82618Zm0-1.51757a1.77576,1.77576,0,0,0-1.46289-.66016,1.169,1.169,0,1,0,0,2.32129,1.77576,1.77576,0,0,0,1.46289-.66016Z"/><path class="cls-7" d="M343.22888,117.48647a.55569.55569,0,0,1,1.11133,0,.55569.55569,0,1,1-1.11133,0Zm.14258,1.45215h.82519v5.31347h-.82519Z"/><path class="cls-7" d="M349.32263,120.77553c0-.93555-.47266-1.23242-1.1875-1.23242a2.05148,2.05148,0,0,0-1.57324.82519v3.88379h-.8252v-5.31347h.8252v.76953a2.63794,2.63794,0,0,1,1.8916-.90137,1.51056,1.51056,0,0,1,1.69531,1.71582v3.72949h-.82617Z"/><polyline class="cls-12" points="352.643 68.576 371.164 50.055 494.248 50.055 507.527 63.334"/><polygon class="cls-5" points="502.292 63.883 502.328 62.882 507.255 63.063 507.075 58.135 508.075 58.099 508.293 64.101 502.292 63.883"/><path d="M389.92419,34.99526h2.26856a1.1479,1.1479,0,0,1,1.26758,1.1206,1.23446,1.23446,0,0,1-1.06446,1.21875.9479.9479,0,0,1,.67285.94531,1.42569,1.42569,0,0,1-1.625,1.38672h-2.5498Zm1.63184,2.72412h-1.24024l-.23828,1.09961h1.28223a.64578.64578,0,0,0,.71387-.623A.47122.47122,0,0,0,391.556,37.71938Zm.35644-1.877h-1.17578l-.23144,1.02979h1.2539a.567.567,0,0,0,.63672-.58838A.45481.45481,0,0,0,391.91247,35.84242Z"/><path d="M396.80212,36.28383h.89649l-.75,3.38281h-.89649l.09864-.42041a1.27535,1.27535,0,0,1-1.01563.5044,1.24714,1.24714,0,0,1-1.28906-1.40088,1.97772,1.97772,0,0,1,1.78613-2.1499,1.27852,1.27852,0,0,1,1.0791.53222Zm-1.27539,2.67529a1.00795,1.00795,0,0,0,.77832-.39892l.25879-1.17676a.93614.93614,0,0,0-.792-.39209,1.09162,1.09162,0,0,0-.99414,1.17627A.7361.7361,0,0,0,395.52673,38.95912Z"/><path d="M400.75134,37.64955a1.18031,1.18031,0,0,0,.03516-.22412c0-.31494-.252-.43408-.51856-.43408a1.25994,1.25994,0,0,0-.85449.39209l-.50391,2.2832h-.88964l.749-3.38281h.88965l-.09766.44141a1.60576,1.60576,0,0,1,1.127-.52539c.65136,0,1.05761.34326,1.05761.86816a1.99116,1.99116,0,0,1-.03515.27344l-.51758,2.32519h-.88965Z"/><path d="M403.851,38.34291l-.52539.45508-.18945.86865h-.88965l1.03027-4.67138h.88867l-.60937,2.73828,1.56934-1.44971h1.13476l-1.68066,1.53369.97265,1.84912H404.474Z"/><path d="M408.62732,34.85512h.67285l-2.75977,4.95166h-.665Z"/><path d="M412.46326,37.70571h-2.207l-.43359,1.96093h-.99512l1.03028-4.67138h.99414l-.39942,1.835h2.19922l.40625-1.835h1.002l-1.03028,4.67138h-1.001Z"/><path d="M416.20056,36.19985a1.43866,1.43866,0,0,1,1.51953,1.51269,2.25555,2.25555,0,0,1-.06933.54639h-2.51465v.084a.83058.83058,0,0,0,.9248.7002,1.51808,1.51808,0,0,0,.85449-.252l.2793.60938a2.20038,2.20038,0,0,1-1.19726.3501c-1.06446,0-1.751-.57422-1.751-1.51953A1.9765,1.9765,0,0,1,416.20056,36.19985Zm.72168,1.38671a.69114.69114,0,0,0-.77734-.67919.96614.96614,0,0,0-.918.749h1.69531Z"/><path d="M421.25818,36.28383h.89648l-.749,3.38281h-.89649l.09766-.42041a1.27533,1.27533,0,0,1-1.01562.5044,1.24646,1.24646,0,0,1-1.28809-1.40088,1.977,1.977,0,0,1,1.78613-2.1499,1.27549,1.27549,0,0,1,1.07813.53222Zm-1.27442,2.67529a1.00452,1.00452,0,0,0,.77735-.39892l.25879-1.17676a.933.933,0,0,0-.791-.39209,1.09163,1.09163,0,0,0-.99414,1.17627A.73558.73558,0,0,0,419.98376,38.95912Z"/><path d="M423.50622,34.99526h.88868l-1.0293,4.67138H422.476Z"/><path d="M424.806,38.78432l.37793-1.73h-.56055l.17481-.77051h.56054l.20313-.92432h.89648l-.20312.92432h.68652l-.18164.77051h-.68652l-.32227,1.4707a.97549.97549,0,0,0-.01465.14014c0,.18213.10547.29394.33008.29394a.46235.46235,0,0,0,.24512-.06982l.03418.71435a1.03677,1.03677,0,0,1-.55957.147c-.60254,0-1.00879-.231-1.00879-.73535A1.04623,1.04623,0,0,1,424.806,38.78432Z"/><path d="M429.77283,37.63539a1.22381,1.22381,0,0,0,.03515-.21c0-.31494-.25195-.43408-.55371-.43408a1.2251,1.2251,0,0,0-.81933.39893l-.50391,2.27636h-.88965l1.0293-4.67138h.88965l-.37793,1.73a1.60574,1.60574,0,0,1,1.12695-.52539c.65137,0,1.05762.34326,1.05762.86816a1.85633,1.85633,0,0,1-.03516.27344l-.51074,2.32519h-.88965Z"/><path d="M433.36365,36.19985a1.50119,1.50119,0,0,1,1.373.665l-.666.51171a.79989.79989,0,0,0-.707-.38525,1.096,1.096,0,0,0-1.06446,1.17627.77569.77569,0,0,0,.84766.7915.93822.93822,0,0,0,.707-.33593l.4834.59521a1.75119,1.75119,0,0,1-1.28223.53223,1.50814,1.50814,0,0,1-1.65918-1.541A1.97023,1.97023,0,0,1,433.36365,36.19985Z"/><path d="M437.99158,36.28383h.89648l-.75,3.38281h-.89648l.09863-.42041a1.27535,1.27535,0,0,1-1.01563.5044,1.24715,1.24715,0,0,1-1.28906-1.40088,1.97772,1.97772,0,0,1,1.78613-2.1499,1.27853,1.27853,0,0,1,1.07911.53222Zm-1.27539,2.67529a1.008,1.008,0,0,0,.77832-.39892l.25878-1.17676a.93614.93614,0,0,0-.792-.39209,1.09163,1.09163,0,0,0-.99414,1.17627A.73611.73611,0,0,0,436.71619,38.95912Z"/><path d="M439.95837,36.28383h.88965l-.10547.44824a1.538,1.538,0,0,1,1.19727-.52539l-.18848.88281a1.3861,1.3861,0,0,0-.3291-.04248,1.19352,1.19352,0,0,0-.84082.40625l-.4834,2.21338h-.88965Z"/><path d="M444.01306,36.19985a1.43866,1.43866,0,0,1,1.51953,1.51269,2.20212,2.20212,0,0,1-.07031.54639h-2.51465v.084a.83127.83127,0,0,0,.92481.7002,1.51581,1.51581,0,0,0,.85449-.252l.28027.60938a2.20038,2.20038,0,0,1-1.19726.3501c-1.06543,0-1.751-.57422-1.751-1.51953A1.9765,1.9765,0,0,1,444.01306,36.19985Zm.7207,1.38671a.69114.69114,0,0,0-.77734-.67919.965.965,0,0,0-.917.749h1.69433Z"/><path d="M448.10681,38.78432l.37793-1.73h-.55957l.1748-.77051h.56055l.20313-.92432h.89648l-.20312.92432h.68652l-.18262.77051h-.68652l-.32227,1.4707a.97345.97345,0,0,0-.01367.14014c0,.18213.10547.29394.3291.29394a.46235.46235,0,0,0,.24512-.06982l.03516.71435a1.04034,1.04034,0,0,1-.56055.147c-.60254,0-1.00879-.231-1.00879-.73535A1.10924,1.10924,0,0,1,448.10681,38.78432Z"/><path d="M451.09216,36.28383h.88965l-.10547.44824a1.54161,1.54161,0,0,1,1.19824-.52539l-.18945.88281a1.37025,1.37025,0,0,0-.3291-.04248,1.19352,1.19352,0,0,0-.84082.40625l-.48242,2.21338h-.88965Z"/><path d="M456.14,36.28383h.89649l-.749,3.38281H455.391l.09766-.42041a1.27535,1.27535,0,0,1-1.01563.5044,1.24645,1.24645,0,0,1-1.28808-1.40088,1.977,1.977,0,0,1,1.78613-2.1499,1.27546,1.27546,0,0,1,1.07812.53222Zm-1.27441,2.67529a1.0045,1.0045,0,0,0,.77734-.39892l.25879-1.17676a.933.933,0,0,0-.791-.39209,1.09162,1.09162,0,0,0-.99414,1.17627A.73558.73558,0,0,0,454.8656,38.95912Z"/><path d="M458.12732,37.06117h-.55957l.168-.77734h.56054l.042-.18213a1.294,1.294,0,0,1,1.26757-1.17676,1.36538,1.36538,0,0,1,.74219.18946l-.30859.602a.545.545,0,0,0-.32227-.09082c-.27246,0-.41992.168-.49023.47607l-.042.18213h.69335l-.1748.77734H459.017l-.57422,2.60547h-.89649Zm2.291,0h-.56054l.168-.77734h.56054l.042-.18213a1.29474,1.29474,0,0,1,1.26758-1.17676,1.36538,1.36538,0,0,1,.74219.18946l-.30762.602a.547.547,0,0,0-.32226-.09082c-.27344,0-.4209.168-.49024.47607l-.042.18213h.69336l-.17578.77734H461.307l-.57422,2.60547h-.89649Zm2.26172-.77734h.88965l-.749,3.38281H461.931Zm.72168-1.562a.459.459,0,0,1,.47559.45557.60048.60048,0,0,1-.59473.60937.45543.45543,0,0,1-.47656-.45557A.60586.60586,0,0,1,463.40173,34.72182Z"/><path d="M465.9779,36.19985a1.50121,1.50121,0,0,1,1.37305.665l-.666.51171a.79989.79989,0,0,0-.707-.38525,1.096,1.096,0,0,0-1.06445,1.17627.77569.77569,0,0,0,.84766.7915.93822.93822,0,0,0,.707-.33593l.4834.59521a1.75123,1.75123,0,0,1-1.28223.53223,1.50814,1.50814,0,0,1-1.65918-1.541A1.97022,1.97022,0,0,1,465.9779,36.19985Z"/><path d="M384.83826,47.95522h-.88965l1.03711-4.67139h.88965l-.09864.42041a1.2881,1.2881,0,0,1,1.02246-.50439,1.249,1.249,0,0,1,1.28223,1.40088,1.9864,1.9864,0,0,1-1.7793,2.1499,1.25935,1.25935,0,0,1-1.07812-.53223Zm1.56152-3.96387a1.02425,1.02425,0,0,0-.77734.40625l-.25879,1.17627a.93107.93107,0,0,0,.791.38525,1.0871,1.0871,0,0,0,.99512-1.17627A.73633.73633,0,0,0,386.39978,43.99135Z"/><path d="M391.61951,43.28383h.89648l-.749,3.38281h-.89649l.09766-.42041a1.27535,1.27535,0,0,1-1.01563.5044,1.24646,1.24646,0,0,1-1.28808-1.40088,1.977,1.977,0,0,1,1.78613-2.1499,1.27549,1.27549,0,0,1,1.07813.53222Zm-1.27442,2.67529a1.00453,1.00453,0,0,0,.77735-.39892l.25878-1.17676a.933.933,0,0,0-.791-.39209,1.09162,1.09162,0,0,0-.99414,1.17627A.73558.73558,0,0,0,390.34509,45.95912Z"/><path d="M393.19861,45.55287a1.73482,1.73482,0,0,0,1.19043.51856c.30078,0,.49023-.16113.49023-.35742,0-.20313-.28711-.30811-.62305-.41993-.48339-.16113-1.09277-.37841-1.09277-.95263a1.23207,1.23207,0,0,1,1.39356-1.1416,1.99183,1.99183,0,0,1,1.42871.55322l-.44141.56006a1.41,1.41,0,0,0-1.001-.43408c-.31543,0-.49023.147-.49023.3291,0,.16113.252.26611.58105.37841.49707.15381,1.13477.3711,1.13477.98047,0,.64453-.53906,1.1836-1.46387,1.1836a2.20859,2.20859,0,0,1-1.59668-.60938Z"/><path d="M396.7406,45.55287a1.73482,1.73482,0,0,0,1.19043.51856c.30078,0,.49023-.16113.49023-.35742,0-.20313-.28711-.30811-.623-.41993-.4834-.16113-1.09278-.37841-1.09278-.95263a1.23207,1.23207,0,0,1,1.39356-1.1416,1.99181,1.99181,0,0,1,1.42871.55322l-.44141.56006a1.41,1.41,0,0,0-1.001-.43408c-.31543,0-.49024.147-.49024.3291,0,.16113.25195.26611.58106.37841.49707.15381,1.13476.3711,1.13476.98047,0,.64453-.53906,1.1836-1.46387,1.1836a2.20855,2.20855,0,0,1-1.59667-.60938Z"/><path d="M401.96228,43.19985a1.43866,1.43866,0,0,1,1.51953,1.51269,2.20259,2.20259,0,0,1-.07031.54639h-2.51465v.084a.83127.83127,0,0,0,.9248.7002,1.51582,1.51582,0,0,0,.8545-.252l.28027.60938a2.20039,2.20039,0,0,1-1.19727.3501c-1.06543,0-1.751-.57422-1.751-1.51953A1.9765,1.9765,0,0,1,401.96228,43.19985Zm.7207,1.38671a.69114.69114,0,0,0-.77734-.67919.965.965,0,0,0-.917.749H402.683Z"/><path d="M404.27576,45.55287a1.73482,1.73482,0,0,0,1.19043.51856c.30078,0,.49023-.16113.49023-.35742,0-.20313-.28711-.30811-.623-.41993-.4834-.16113-1.09277-.37841-1.09277-.95263a1.23206,1.23206,0,0,1,1.39355-1.1416,1.99183,1.99183,0,0,1,1.42872.55322l-.44141.56006a1.41,1.41,0,0,0-1.001-.43408c-.31543,0-.49023.147-.49023.3291,0,.16113.252.26611.58105.37841.49707.15381,1.13477.3711,1.13477.98047,0,.64453-.53906,1.1836-1.46387,1.1836a2.20859,2.20859,0,0,1-1.59668-.60938Z"/><path d="M411.94177,44.36244l-1.21875,2.3042h-.95215l-.28027-3.38281h.88965l.13281,2.27637,1.24707-2.27637h.791l.23144,2.27637,1.1416-2.27637h.95215l-1.7793,3.38281h-.94531Z"/><path d="M415.50427,43.28383h.88965l-.749,3.38281h-.88965Zm.72168-1.562a.45982.45982,0,0,1,.47656.45557.60125.60125,0,0,1-.5957.60937.45543.45543,0,0,1-.47656-.45557A.60586.60586,0,0,1,416.226,41.72182Z"/><path d="M417.07556,45.78432l.37793-1.73h-.56055l.17481-.77051h.56054l.20313-.92432h.89648l-.20312.92432h.68652l-.18164.77051h-.68652l-.32227,1.4707a.97549.97549,0,0,0-.01465.14014c0,.18213.10547.29394.33008.29394a.46235.46235,0,0,0,.24512-.06982l.03418.71435a1.03675,1.03675,0,0,1-.55957.147c-.60254,0-1.00879-.231-1.00879-.73535A1.04684,1.04684,0,0,1,417.07556,45.78432Z"/><path d="M422.04236,44.63539a1.22381,1.22381,0,0,0,.03515-.21c0-.31494-.252-.43408-.55371-.43408a1.22512,1.22512,0,0,0-.81933.39893l-.50391,2.27636h-.88965l1.0293-4.67138h.88965l-.37793,1.73a1.60574,1.60574,0,0,1,1.127-.52539c.65137,0,1.05762.34326,1.05762.86816a1.85633,1.85633,0,0,1-.03516.27344l-.51074,2.32519H421.601Z"/><path d="M425.6156,43.19985a1.51152,1.51152,0,0,1,1.68066,1.54052,1.98117,1.98117,0,0,1-1.96093,2.01026,1.50093,1.50093,0,0,1-1.67383-1.53369A1.98142,1.98142,0,0,1,425.6156,43.19985Zm-.02832.7915a1.101,1.101,0,0,0-1.00879,1.17627.72951.72951,0,0,0,.792.7915,1.09619,1.09619,0,0,0,1.001-1.17627A.72663.72663,0,0,0,425.58728,43.99135Z"/><path d="M428.90173,45.32192a1.11431,1.11431,0,0,0-.02832.20312c0,.30811.252.43408.56738.43408a1.25371,1.25371,0,0,0,.80567-.39892l.50391-2.27637H431.64l-.749,3.38281h-.88965l.09766-.4414a1.6058,1.6058,0,0,1-1.127.52539c-.65136,0-1.05761-.34326-1.05761-.86817a1.9916,1.9916,0,0,1,.03418-.27343l.51172-2.3252h.89648Z"/><path d="M432.34412,45.78432l.37792-1.73h-.55957l.17481-.77051h.56055l.20312-.92432h.89649l-.20313.92432h.68652l-.18261.77051h-.68653l-.32226,1.4707a.972.972,0,0,0-.01367.14014c0,.18213.10546.29394.3291.29394a.46231.46231,0,0,0,.24511-.06982l.03516.71435a1.04032,1.04032,0,0,1-.56055.147c-.60254,0-1.00879-.231-1.00879-.73535A1.10936,1.10936,0,0,1,432.34412,45.78432Z"/><path d="M439.62537,41.99526h.89648l-1.03613,4.67138h-.89649l.09766-.42041a1.27535,1.27535,0,0,1-1.01563.5044,1.24646,1.24646,0,0,1-1.28808-1.40088,1.977,1.977,0,0,1,1.78613-2.1499,1.27549,1.27549,0,0,1,1.07813.53222Zm-1.56153,3.96386a1.00453,1.00453,0,0,0,.77735-.39892L439.1,44.38344a.933.933,0,0,0-.791-.39209,1.09162,1.09162,0,0,0-.99414,1.17627A.73558.73558,0,0,0,438.06384,45.95912Z"/><path d="M442.62732,43.19985a1.43866,1.43866,0,0,1,1.51953,1.51269,2.20259,2.20259,0,0,1-.07031.54639h-2.51465v.084a.83127.83127,0,0,0,.9248.7002,1.51584,1.51584,0,0,0,.8545-.252l.28027.60938a2.20039,2.20039,0,0,1-1.19727.3501c-1.06543,0-1.751-.57422-1.751-1.51953A1.9765,1.9765,0,0,1,442.62732,43.19985Zm.7207,1.38671a.69114.69114,0,0,0-.77734-.67919.965.965,0,0,0-.917.749H443.348Z"/><path d="M446.70544,43.19985a1.50122,1.50122,0,0,1,1.373.665l-.666.51171a.79987.79987,0,0,0-.707-.38525,1.096,1.096,0,0,0-1.06445,1.17627.77569.77569,0,0,0,.84766.7915.93822.93822,0,0,0,.707-.33593l.4834.59521a1.75123,1.75123,0,0,1-1.28223.53223,1.50814,1.50814,0,0,1-1.65918-1.541A1.97022,1.97022,0,0,1,446.70544,43.19985Z"/><path d="M449.02087,43.28383h.88965l-.10547.44824a1.54161,1.54161,0,0,1,1.19824-.52539l-.18945.88281a1.37025,1.37025,0,0,0-.3291-.04248,1.19352,1.19352,0,0,0-.84082.40625l-.48242,2.21338h-.88965Z"/><path d="M451.37341,47.24086a.45544.45544,0,0,0,.41992-.23828l.21094-.31494-.60254-3.40381h.92481l.35644,2.353,1.415-2.353h.98047l-2.46484,3.936a1.41161,1.41161,0,0,1-1.31055.81933,1.8098,1.8098,0,0,1-.56641-.084l.29395-.77051A.94441.94441,0,0,0,451.37341,47.24086Z"/><path d="M455.53454,47.95522h-.88964l1.03711-4.67139h.88964l-.09863.42041a1.2881,1.2881,0,0,1,1.02246-.50439,1.249,1.249,0,0,1,1.28223,1.40088,1.9864,1.9864,0,0,1-1.7793,2.1499,1.25935,1.25935,0,0,1-1.07812-.53223Zm1.56153-3.96387a1.02429,1.02429,0,0,0-.77735.40625l-.25878,1.17627a.93107.93107,0,0,0,.791.38525,1.0871,1.0871,0,0,0,.99512-1.17627A.73633.73633,0,0,0,457.09607,43.99135Z"/><path d="M459.58435,45.78432l.37793-1.73h-.55957l.1748-.77051h.56055l.20313-.92432h.89648l-.20313.92432h.68653l-.18262.77051h-.68652l-.32227,1.4707a.97345.97345,0,0,0-.01367.14014c0,.18213.10547.29394.3291.29394a.46235.46235,0,0,0,.24512-.06982l.03516.71435a1.04034,1.04034,0,0,1-.56055.147c-.60254,0-1.00879-.231-1.00879-.73535A1.10924,1.10924,0,0,1,459.58435,45.78432Z"/><path d="M462.5697,43.28383h.88965l-.75,3.38281h-.88965Zm.7207-1.562a.45983.45983,0,0,1,.47657.45557.60126.60126,0,0,1-.59571.60937.45517.45517,0,0,1-.47558-.45557A.60569.60569,0,0,1,463.2904,41.72182Z"/><path d="M465.82751,43.19985a1.51184,1.51184,0,0,1,1.68164,1.54052,1.98136,1.98136,0,0,1-1.96191,2.01026,1.50094,1.50094,0,0,1-1.67383-1.53369A1.98142,1.98142,0,0,1,465.82751,43.19985Zm-.02734.7915a1.101,1.101,0,0,0-1.00879,1.17627.72877.72877,0,0,0,.791.7915,1.09626,1.09626,0,0,0,1.00195-1.17627A.72663.72663,0,0,0,465.80017,43.99135Z"/><path d="M470.68591,44.64955a1.18031,1.18031,0,0,0,.03516-.22412c0-.31494-.252-.43408-.51856-.43408a1.25994,1.25994,0,0,0-.85449.39209l-.5039,2.2832h-.88965l.749-3.38281h.88965l-.09766.44141a1.60578,1.60578,0,0,1,1.127-.52539c.65136,0,1.05761.34326,1.05761.86816a1.99116,1.99116,0,0,1-.03515.27344l-.51758,2.32519h-.88965Z"/><line class="cls-13" x1="356.78577" y1="80.6982" x2="502.16394" y2="80.6982"/><polygon class="cls-4" points="498.85 84.788 498.168 84.056 501.78 80.699 498.168 77.342 498.85 76.609 503.248 80.699 498.85 84.788"/><path d="M409.39783,68.34877h-2.20606l-.43457,1.96094h-.99414l1.0293-4.6709h.99414l-.39844,1.835h2.19922l.40625-1.835h1.001l-1.0293,4.6709h-1.002Z"/><path d="M412.87634,66.51381h-1.36621l.19629-.875H415.432l-.18848.875h-1.36621l-.833,3.7959h-1.002Z"/><path d="M417.16052,66.51381h-1.36621l.19629-.875h3.72559l-.18848.875H418.1615l-.833,3.7959h-1.00195Z"/><path d="M420.43005,65.63881h2.0166a1.30181,1.30181,0,0,1,1.42188,1.29492,1.74477,1.74477,0,0,1-1.93262,1.72364h-1.17676l-.36425,1.65234h-.99512Zm2.39453,1.39356a.53929.53929,0,0,0-.58789-.53907h-1.002l-.28027,1.28809h1.03027A.75484.75484,0,0,0,422.82458,67.03237Z"/><path d="M426.016,65.49819h.67285l-2.75976,4.95214h-.665Z"/><path d="M429.85193,68.34877h-2.207l-.4336,1.96094h-.99511l1.03027-4.6709h.99414l-.39941,1.835h2.19921l.40625-1.835h1.002l-1.03028,4.6709h-1.001Z"/><path d="M433.33044,66.51381h-1.36621l.19629-.875h3.72559l-.18848.875h-1.36621l-.833,3.7959h-1.00195Z"/><path d="M437.61365,66.51381h-1.36524l.19629-.875h3.72559l-.18946.875H438.6156l-.834,3.7959h-1.001Z"/><path d="M440.88318,65.63881h2.01758a1.301,1.301,0,0,1,1.42089,1.29492,1.74418,1.74418,0,0,1-1.93261,1.72364h-1.17676l-.36426,1.65234h-.99414Zm2.39551,1.39356a.54014.54014,0,0,0-.58887-.53907h-1.001l-.28027,1.28809h1.0293A.7557.7557,0,0,0,443.27869,67.03237Z"/><path d="M444.892,68.80385a2.01212,2.01212,0,0,0,1.583.72168c.49707,0,.7002-.28711.7002-.53906,0-.28028-.35742-.42774-.79883-.58887-.65137-.23047-1.46289-.53906-1.46289-1.37207a1.63869,1.63869,0,0,1,1.82031-1.457,2.44834,2.44834,0,0,1,1.85645.75586l-.61621.69336a1.847,1.847,0,0,0-1.36621-.59473c-.38477,0-.65137.23145-.65137.49024,0,.252.35742.39941.79883.56054.65137.23047,1.47754.5459,1.47754,1.3584a1.65169,1.65169,0,0,1-1.835,1.56152,2.69448,2.69448,0,0,1-2.11524-.86816Z"/><path d="M449.32068,69.25209a.51774.51774,0,0,1,.51172.52539.62192.62192,0,0,1-.61621.61621.5235.5235,0,0,1-.51856-.52539A.62787.62787,0,0,1,449.32068,69.25209Zm.51855-2.374a.51334.51334,0,0,1,.51856.51855.62332.62332,0,0,1-.62305.61621.51774.51774,0,0,1-.51172-.52539A.62053.62053,0,0,1,449.83923,66.87807Z"/><path d="M406.18982,72.56166a2.07854,2.07854,0,0,1,2.07324,1.32324l-.96.32227a1.17708,1.17708,0,0,0-1.16211-.76367,1.70977,1.70977,0,0,0-1.63184,1.793,1.23586,1.23586,0,0,0,1.31641,1.27539,1.47783,1.47783,0,0,0,1.09961-.54l.76367.52539a2.41524,2.41524,0,0,1-1.91894.89648,2.1183,2.1183,0,0,1-2.29786-2.09375A2.66745,2.66745,0,0,1,406.18982,72.56166Z"/><path d="M408.97986,73.9269h.88965l-.75,3.38281h-.88965Zm.7207-1.56153a.45943.45943,0,0,1,.47656.45508.60094.60094,0,0,1-.5957.60938.45508.45508,0,0,1-.47559-.45508A.60537.60537,0,0,1,409.70056,72.36537Z"/><path d="M410.56677,76.19643a1.73486,1.73486,0,0,0,1.19043.51855c.30078,0,.49024-.16113.49024-.35742,0-.20312-.28711-.30859-.623-.41992-.4834-.16113-1.09277-.37891-1.09277-.95313a1.23235,1.23235,0,0,1,1.39355-1.1416,1.9901,1.9901,0,0,1,1.42871.55371l-.44141.55957a1.40977,1.40977,0,0,0-1.001-.43359c-.31543,0-.49024.14648-.49024.3291,0,.16113.252.26563.58106.37793.49707.1543,1.13476.3711,1.13476.98047,0,.64453-.53906,1.18359-1.46386,1.18359a2.20862,2.20862,0,0,1-1.59668-.60937Z"/><path d="M415.80115,73.84291a1.50121,1.50121,0,0,1,1.373.665l-.665.51172a.80111.80111,0,0,0-.708-.38477,1.09648,1.09648,0,0,0-1.06446,1.17579.77656.77656,0,0,0,.84766.792.93988.93988,0,0,0,.707-.33594l.4834.59473a1.74864,1.74864,0,0,1-1.28125.53222,1.50845,1.50845,0,0,1-1.66016-1.541A1.97023,1.97023,0,0,1,415.80115,73.84291Z"/><path d="M419.4115,73.84291a1.512,1.512,0,0,1,1.68164,1.541,1.98094,1.98094,0,0,1-1.96192,2.00976,1.50082,1.50082,0,0,1-1.67382-1.5332A1.98184,1.98184,0,0,1,419.4115,73.84291Zm-.02735.792a1.10087,1.10087,0,0,0-1.00878,1.17579.72914.72914,0,0,0,.791.792,1.09643,1.09643,0,0,0,1.002-1.17676A.72649.72649,0,0,0,419.38415,74.6349Z"/><path d="M421.34607,77.89858a1.45789,1.45789,0,0,0,.68652-.58887h-.07715a.41938.41938,0,0,1-.42675-.45508.62862.62862,0,0,1,.61621-.60254.53293.53293,0,0,1,.54589.57422,1.74267,1.74267,0,0,1-1.02929,1.40137Z"/><path d="M430.141,74.64858a2.69291,2.69291,0,0,1-3.02637,2.66113h-1.835l1.03028-4.6709h1.80664A2.00287,2.00287,0,0,1,430.141,74.64858Zm-1.03711.0625a1.15013,1.15013,0,0,0-1.17676-1.19727h-.8125l-.64355,2.9209h.82617A1.701,1.701,0,0,0,429.10388,74.71108Z"/><path d="M431.48962,72.63881h.99414l-.833,3.7959h1.96777l-.18848.875h-2.96972Z"/><path d="M435.19958,72.63881h2.01758a1.301,1.301,0,0,1,1.4209,1.29492,1.74419,1.74419,0,0,1-1.93262,1.72364h-1.17675l-.36426,1.65234h-.99414Zm2.39551,1.39356a.54013.54013,0,0,0-.58887-.53907h-1.001l-.28028,1.28809h1.0293A.75569.75569,0,0,0,437.59509,74.03237Z"/><path d="M438.26208,77.89858a1.45792,1.45792,0,0,0,.68653-.58887h-.07715a.41959.41959,0,0,1-.42774-.45508.62931.62931,0,0,1,.61622-.60254.53366.53366,0,0,1,.54687.57422,1.74193,1.74193,0,0,1-1.03027,1.40137Z"/><path d="M443.226,72.63881h.99414l-1.0293,4.6709h-.99511Z"/><path d="M445.34607,72.63881h2.0166a1.30181,1.30181,0,0,1,1.42187,1.29492,1.74476,1.74476,0,0,1-1.93261,1.72364h-1.17676l-.36426,1.65234h-.99512Zm2.39453,1.39356a.53929.53929,0,0,0-.58789-.53907h-1.002l-.28028,1.28809h1.03028A.75484.75484,0,0,0,447.7406,74.03237Z"/><path d="M449.35486,75.80385a2.01155,2.01155,0,0,0,1.582.72168c.498,0,.70117-.28711.70117-.53906,0-.28028-.35742-.42774-.79883-.58887-.65136-.23047-1.46386-.53906-1.46386-1.37207a1.63906,1.63906,0,0,1,1.82128-1.457,2.44612,2.44612,0,0,1,1.85547.75586l-.61621.69336a1.84487,1.84487,0,0,0-1.36523-.59473c-.38574,0-.65137.23145-.65137.49024,0,.252.35645.39941.79785.56054.65137.23047,1.47852.5459,1.47852,1.3584a1.652,1.652,0,0,1-1.83594,1.56152,2.69227,2.69227,0,0,1-2.11426-.86816Z"/><polyline class="cls-14" points="352.889 93.066 371.164 111.342 494.248 111.342 507.467 98.123"/><polygon class="cls-6" points="508.016 103.358 507.016 103.322 507.196 98.395 502.268 98.575 502.233 97.575 508.234 97.357 508.016 103.358"/><path d="M405.476,100.1476H403.389l-.46973.80566h-1.1416l2.83691-4.67187h1.2461l.7705,4.67187h-1.03613Zm-1.625-.86133h1.54785l-.30859-2.15039Z"/><path d="M408.25134,96.28139H409.14l-1.02929,4.67187h-.88965Z"/><path d="M410.20154,96.28139h.88867l-1.0293,4.67187h-.88965Z"/><path d="M414.95447,97.48647a1.51174,1.51174,0,0,1,1.68164,1.54,1.98177,1.98177,0,0,1-1.96192,2.01074,1.501,1.501,0,0,1-1.67382-1.53418A1.981,1.981,0,0,1,414.95447,97.48647Zm-.02735.791a1.10119,1.10119,0,0,0-1.00879,1.17676.72841.72841,0,0,0,.791.791,1.09611,1.09611,0,0,0,1.002-1.17578A.72677.72677,0,0,0,414.92712,98.27748Z"/><path d="M417.43787,100.07045l.37792-1.72949h-.55957l.17481-.77051h.56055l.20312-.9248h.89649l-.20313.9248h.68652l-.18261.77051h-.68653l-.32226,1.4707a.96535.96535,0,0,0-.01367.13965c0,.18262.10546.29395.3291.29395a.46246.46246,0,0,0,.24511-.06934l.03516.71387a1.04043,1.04043,0,0,1-.56055.14746c-.60254,0-1.00879-.23145-1.00879-.73535A1.11348,1.11348,0,0,1,417.43787,100.07045Z"/><path d="M422.40564,98.922a1.22381,1.22381,0,0,0,.03515-.21c0-.31543-.25195-.43457-.55371-.43457a1.22348,1.22348,0,0,0-.81933.39942l-.50391,2.27636h-.88965l1.0293-4.67187h.88965l-.37793,1.73047a1.60379,1.60379,0,0,1,1.12695-.52539c.65137,0,1.05762.34277,1.05762.86816a1.85633,1.85633,0,0,1-.03516.27344l-.51074,2.32519h-.88965Z"/><path d="M425.98279,97.48647a1.43866,1.43866,0,0,1,1.51953,1.51269,2.19819,2.19819,0,0,1-.07031.5459h-2.51465v.084a.83127.83127,0,0,0,.9248.70019,1.51586,1.51586,0,0,0,.85449-.25195l.28028.60937a2.1967,2.1967,0,0,1-1.19727.35059c-1.06543,0-1.751-.57422-1.751-1.51953A1.9765,1.9765,0,0,1,425.98279,97.48647Zm.7207,1.38672a.69122.69122,0,0,0-.77734-.67969.965.965,0,0,0-.917.749h1.69434Z"/><path d="M428.67615,97.57045h.88964l-.10546.44824a1.54158,1.54158,0,0,1,1.19824-.52539l-.18945.88282a1.33934,1.33934,0,0,0-.32911-.043,1.19543,1.19543,0,0,0-.84082.40625l-.48242,2.21386h-.88965Z"/><path d="M432.7572,100.07045l.37793-1.72949h-.55957l.17481-.77051h.56054l.20313-.9248h.89648l-.20312.9248h.68652l-.18262.77051h-.68652l-.32227,1.4707a.96676.96676,0,0,0-.01367.13965c0,.18262.10547.29395.3291.29395a.46249.46249,0,0,0,.24512-.06934l.03516.71387a1.04045,1.04045,0,0,1-.56055.14746c-.60254,0-1.00879-.23145-1.00879-.73535A1.11336,1.11336,0,0,1,432.7572,100.07045Z"/><path d="M435.74255,97.57045h.88965l-.10547.44824a1.54161,1.54161,0,0,1,1.19824-.52539l-.18945.88282a1.33917,1.33917,0,0,0-.3291-.043,1.19539,1.19539,0,0,0-.84082.40625l-.48242,2.21386h-.88965Z"/><path d="M440.7904,97.57045h.89649l-.749,3.38281h-.89649l.09766-.42089a1.27446,1.27446,0,0,1-1.01563.50488,1.24685,1.24685,0,0,1-1.28808-1.40137,1.97658,1.97658,0,0,1,1.78613-2.14941,1.27424,1.27424,0,0,1,1.07812.53222Zm-1.27441,2.67481a1.00548,1.00548,0,0,0,.77734-.39844l.25879-1.17676a.9321.9321,0,0,0-.791-.39258,1.09209,1.09209,0,0,0-.99414,1.17676A.73518.73518,0,0,0,439.516,100.24526Z"/><path d="M442.77771,98.3478h-.55957l.168-.77735h.56054l.042-.18262a1.29442,1.29442,0,0,1,1.26757-1.17675,1.36962,1.36962,0,0,1,.74219.18945l-.30859.60254a.54159.54159,0,0,0-.32227-.09082c-.27246,0-.41992.168-.49023.47558l-.042.18262h.69336l-.17481.77735h-.68652l-.57422,2.60546h-.89649Zm2.291,0h-.56054l.168-.77735h.56054l.042-.18262a1.29512,1.29512,0,0,1,1.26757-1.17675,1.36964,1.36964,0,0,1,.74219.18945l-.30762.60254a.54356.54356,0,0,0-.32226-.09082c-.27344,0-.4209.168-.49024.47558l-.042.18262h.69336l-.17578.77735h-.68652l-.57422,2.60546h-.89649Zm2.26172-.77735h.88965l-.749,3.38281h-.88965Zm.72168-1.5625a.45936.45936,0,0,1,.47559.45606.60081.60081,0,0,1-.59473.60937.45553.45553,0,0,1-.47656-.45605A.60621.60621,0,0,1,448.05212,96.00795Z"/><path d="M450.62829,97.48647a1.50121,1.50121,0,0,1,1.37305.665l-.666.51172a.80028.80028,0,0,0-.707-.38575,1.09618,1.09618,0,0,0-1.06445,1.17676.77532.77532,0,0,0,.84766.791.93659.93659,0,0,0,.707-.33594l.4834.5957a1.75308,1.75308,0,0,1-1.28223.53223,1.50814,1.50814,0,0,1-1.65918-1.541A1.97022,1.97022,0,0,1,450.62829,97.48647Z"/><path d="M452.81384,99.89565a.51692.51692,0,0,1,.51074.52539.62126.62126,0,0,1-.61621.61621.52267.52267,0,0,1-.51758-.52539A.62786.62786,0,0,1,452.81384,99.89565Zm.51856-2.374a.5117.5117,0,0,1,.51757.51758.62267.62267,0,0,1-.623.61621.5163.5163,0,0,1-.51074-.52539A.61968.61968,0,0,1,453.3324,97.52162Z"/><path d="M409.69861,106.4474a2.01457,2.01457,0,0,0,1.582.72168c.498,0,.70117-.28808.70117-.54,0-.28028-.35742-.42676-.79883-.5879-.65136-.23144-1.46386-.53906-1.46386-1.373a1.63969,1.63969,0,0,1,1.82128-1.457,2.44326,2.44326,0,0,1,1.85547.75683l-.61621.69336a1.84228,1.84228,0,0,0-1.36523-.5957c-.38574,0-.65137.23144-.65137.49023,0,.25293.35645.39942.79785.56055.65137.23145,1.47852.54688,1.47852,1.3584a1.65215,1.65215,0,0,1-1.83594,1.5625,2.69548,2.69548,0,0,1-2.11426-.86817Z"/><path d="M416.91833,104.74526l-1.5205,3.208h-1.05762l-.30762-4.67187h1.08594l.07617,3.376,1.63184-3.376h.77832l.13965,3.376,1.56152-3.376h1.1416l-2.36035,4.67187h-1.05762Z"/><path d="M423.02478,103.20424a2.05762,2.05762,0,0,1,1.92676,1.13477l-.918.39257a1.22906,1.22906,0,0,0-1.14844-.64453,1.71863,1.71863,0,0,0-1.63184,1.793,1.23918,1.23918,0,0,0,1.31641,1.27442,1.4203,1.4203,0,0,0,.94531-.35743l.11914-.56738h-1.24609l.19531-.85351h2.23438l-.40625,1.80664a2.43959,2.43959,0,0,1-1.89746.85449,2.118,2.118,0,0,1-2.29785-2.09473A2.69555,2.69555,0,0,1,423.02478,103.20424Z"/><path d="M425.04724,108.54115a1.45594,1.45594,0,0,0,.68652-.58789h-.07714a.41958.41958,0,0,1-.42774-.45507.6293.6293,0,0,1,.61621-.60254.53366.53366,0,0,1,.54688.57422,1.74057,1.74057,0,0,1-1.03028,1.40039Z"/><path d="M431.92322,103.20424a2.07568,2.07568,0,0,1,2.07226,1.32422l-.959.32227a1.17835,1.17835,0,0,0-1.16309-.76368,1.71039,1.71039,0,0,0-1.63183,1.793,1.2359,1.2359,0,0,0,1.31738,1.27442,1.48,1.48,0,0,0,1.09961-.53907l.76269.52539a2.41824,2.41824,0,0,1-1.91894.89649,2.11818,2.11818,0,0,1-2.29688-2.09473A2.668,2.668,0,0,1,431.92322,103.20424Z"/><path d="M434.71228,104.57045h.88965l-.749,3.38281h-.88964Zm.72168-1.5625a.46022.46022,0,0,1,.47656.45606.60158.60158,0,0,1-.5957.60937.45552.45552,0,0,1-.47656-.45605A.6062.6062,0,0,1,435.434,103.00795Z"/><path d="M436.29919,106.839a1.73486,1.73486,0,0,0,1.19043.51855c.30078,0,.49024-.16113.49024-.35742,0-.20313-.28711-.30762-.623-.41992-.4834-.16114-1.09277-.37793-1.09277-.95215a1.23178,1.23178,0,0,1,1.39355-1.1416,1.99356,1.99356,0,0,1,1.42871.55273l-.4414.56055a1.41029,1.41029,0,0,0-1.001-.43457c-.31543,0-.49023.14746-.49023.3291,0,.16113.252.2666.58105.37891.49707.15332,1.13477.37109,1.13477.98046,0,.64454-.53907,1.1836-1.46387,1.1836a2.20859,2.20859,0,0,1-1.59668-.60938Z"/><path d="M441.53454,104.48647a1.50121,1.50121,0,0,1,1.37305.665l-.666.51172a.80028.80028,0,0,0-.707-.38575,1.09618,1.09618,0,0,0-1.06445,1.17676.77532.77532,0,0,0,.84766.791.93659.93659,0,0,0,.707-.33594l.4834.5957a1.75308,1.75308,0,0,1-1.28223.53223,1.50814,1.50814,0,0,1-1.65918-1.541A1.97022,1.97022,0,0,1,441.53454,104.48647Z"/><path d="M445.1449,104.48647a1.51142,1.51142,0,0,1,1.68066,1.54,1.98158,1.98158,0,0,1-1.96094,2.01074,1.501,1.501,0,0,1-1.67383-1.53418A1.981,1.981,0,0,1,445.1449,104.48647Zm-.02832.791a1.10119,1.10119,0,0,0-1.00879,1.17676.72914.72914,0,0,0,.792.791,1.096,1.096,0,0,0,1.001-1.17578A.72678.72678,0,0,0,445.11658,105.27748Z"/><circle class="cls-15" cx="337.28409" cy="80.89157" r="19.52046"/><g id="shapes-three-interlocked-within-circle"><g class="cls-16"><polygon class="cls-17" points="337.352 74.948 325.465 82.263 325.465 88.664 330.951 91.407 342.839 84.092 342.816 78.308 337.352 74.948"/><polygon class="cls-17" points="331.866 84.092 343.754 91.408 349.24 88.664 349.24 82.263 342.816 78.309 342.839 71.176 337.33 67.701 331.775 71.268 331.866 84.092"/><g class="cls-16"><circle class="cls-17" cx="337.28409" cy="80.89157" r="19.5"/></g></g></g><path class="cls-9" d="M36.4776,71.93862H33.31984a8.50474,8.50474,0,0,0-8.54468,8.596v8.59149"/><path class="cls-9" d="M63.77516,95.37612v-7.029a8.4463,8.4463,0,0,0-8.4751-8.596H48.915a8.50474,8.50474,0,0,0-8.54468,8.596v7.029"/><circle class="cls-9" cx="36.46317" cy="64.90737" r="7.03201"/><circle class="cls-9" cx="52.09157" cy="72.71987" r="7.03201"/><path class="cls-18" d="M526.52389,80.84344c0-.04889.00164-.09641.00176-.14524H519.0242c-.00009.03138-.00126.06236-.00126.09376a28.0039,28.0039,0,0,0,1.3552,8.72026,45.11391,45.11391,0,0,1,6.60336-1.0639A61.33622,61.33622,0,0,1,526.52389,80.84344Z"/><path class="cls-18" d="M526.9815,88.44832a45.11391,45.11391,0,0,0-6.60336,1.0639c1.56916,4.77123,4.38357,8.48009,7.81991,10.19859.15492.03512.30889.07273.46519.10413a19.70055,19.70055,0,0,0,2.49684.332C529.26539,98.69049,527.71477,94.27379,526.9815,88.44832Z"/><path class="cls-18" d="M538.02621,72.94781a60.7848,60.7848,0,0,1,.49752,7.75039h7.50021a27.91685,27.91685,0,0,0-1.41275-8.799A45.57132,45.57132,0,0,1,538.02621,72.94781Z"/><path class="cls-18" d="M538.06639,88.448q-.86511-.07874-1.7611-.134c-1.22376-.074-2.48634-.11486-3.78065-.11486-1.92775,0-3.78607.08845-5.54314.24917.73327,5.82547,2.28389,10.24217,4.17858,11.69859.45125.03175.90518.05375,1.36456.05375.45418,0,.90269-.02211,1.34824-.05489l.01726-.01175C535.78337,98.67591,537.3327,94.26484,538.06639,88.448Z"/><path class="cls-18" d="M533.89014,100.134l-.01726.01175a20.01988,20.01988,0,0,0,2.96094-.44533c3.44261-1.71472,6.2643-5.41948,7.83643-10.193a45.32091,45.32091,0,0,0-6.60386-1.05942C537.3327,94.26484,535.78337,98.67591,533.89014,100.134Z"/><path class="cls-18" d="M538.5254,80.84344a61.19177,61.19177,0,0,1-.459,7.60458,45.32091,45.32091,0,0,1,6.60386,1.05942,27.95034,27.95034,0,0,0,1.35609-8.71548c0-.03154-.00231-.06224-.0024-.09376h-7.50021C538.52384,80.747,538.5254,80.79457,538.5254,80.84344Z"/><path class="cls-18" d="M527.02536,72.95424a45.50975,45.50975,0,0,1-6.58345-1.04818,27.79459,27.79459,0,0,0-1.41771,8.79214h7.50145A60.424,60.424,0,0,1,527.02536,72.95424Z"/><path class="cls-18" d="M532.52464,73.19726c-1.32239,0-2.61288-.04151-3.8614-.11869q-.83229-.05143-1.63788-.12433a60.424,60.424,0,0,0-.49971,7.744h11.99808a60.7848,60.7848,0,0,0-.49752-7.75039c-.3511.03173-.70472.06162-1.06372.08738C535.53473,73.13758,534.05377,73.19726,532.52464,73.19726Z"/><path class="cls-18" d="M526.52389,80.84344a61.33622,61.33622,0,0,0,.45761,7.60488c1.75707-.16072,3.61539-.24917,5.54314-.24917,1.29431,0,2.55689.04086,3.78065.11486q.89642.05423,1.7611.134a61.19177,61.19177,0,0,0,.459-7.60458c0-.04887-.00156-.09646-.00167-.14524H526.52565C526.52553,80.747,526.52389,80.79455,526.52389,80.84344Z"/><path class="cls-18" d="M537.49967,69.75471l.0046-.00581-.0046.00581c.20479,1.001.37908,2.07332.52654,3.1931a45.57132,45.57132,0,0,0,6.585-1.04861,23.67265,23.67265,0,0,0-.89275-2.27723c-1.78825-3.91314-4.49237-6.82731-7.65486-8.09463a19.687,19.687,0,0,0-2.70284-.31035,2.69608,2.69608,0,0,1,.32718.18C535.26937,62.42408,536.6286,65.49707,537.49967,69.75471Z"/><path class="cls-18" d="M527.63783,69.36483c-.24049,1.11551-.44452,2.32065-.61247,3.58941q.80512.07266,1.63788.12433c1.24852.07718,2.539.11869,3.8614.11869,1.52913,0,3.01009-.05968,4.43785-.16207.359-.02576.71262-.05565,1.06372-.08738-.14746-1.11978-.32175-2.19214-.52654-3.1931-.87107-4.25764-2.2303-7.33063-3.81175-8.35773a2.69608,2.69608,0,0,0-.32718-.18c-.2774-.01223-.55564-.02125-.8361-.02125-.28463,0-.56573.01406-.84733.02617C530.01329,62.00252,528.57044,65.039,527.63783,69.36483Z"/><path class="cls-18" d="M527.63783,69.36483c.93261-4.32581,2.37546-7.36231,4.03948-8.14292a19.49894,19.49894,0,0,0-2.67036.29376c-3.05875,1.22318-5.68674,3.99454-7.47764,7.71358a23.61428,23.61428,0,0,0-1.0874,2.67681,45.50975,45.50975,0,0,0,6.58345,1.04818C527.19331,71.68548,527.39734,70.48034,527.63783,69.36483Z"/><path class="cls-18" d="M528.19805,99.71081c-3.43634-1.7185-6.25075-5.42736-7.81991-10.19859a24.03417,24.03417,0,0,0-3.73564,1.21344c-.22974.09923-.44738.20128-.65782.30481A19.52652,19.52652,0,0,0,528.19805,99.71081Z"/><path class="cls-18" d="M546.02394,80.6982c.00009.03152.0024.06222.0024.09376a27.95034,27.95034,0,0,1-1.35609,8.71548,23.162,23.162,0,0,1,4.0232,1.33622l.01495-.00176-.01495.00176q.19122.087.37239.17628A19.3662,19.3662,0,0,0,552.0271,80.6982Z"/><path class="cls-18" d="M544.67025,89.50744c-1.57213,4.77352-4.39382,8.47828-7.83643,10.193.0426-.00966.08616-.01659.12867-.02651a19.54682,19.54682,0,0,0,12.10335-8.654q-.18147-.08916-.37239-.17628A23.162,23.162,0,0,0,544.67025,89.50744Z"/><path class="cls-18" d="M536.30529,61.5691c-.07994-.01571-.16143-.027-.24171-.04176,3.16249,1.26732,5.86661,4.18149,7.65486,8.09463l.01035-.00584-.01035.00584a23.67265,23.67265,0,0,1,.89275,2.27723,22.17448,22.17448,0,0,0,4.45914-1.52892q-.18352-.29337-.37688-.57986A19.51076,19.51076,0,0,0,536.30529,61.5691Z"/><path class="cls-18" d="M546.02394,80.6982h6.00316a19.40974,19.40974,0,0,0-2.95677-10.32792,22.17448,22.17448,0,0,1-4.45914,1.52892A27.91685,27.91685,0,0,1,546.02394,80.6982Z"/><path class="cls-18" d="M520.44191,71.90606a22.18406,22.18406,0,0,1-4.44677-1.52509,19.35789,19.35789,0,0,0-2.973,10.31723h6.002A27.79459,27.79459,0,0,1,520.44191,71.90606Z"/><path class="cls-18" d="M520.37814,89.51222a28.0039,28.0039,0,0,1-1.3552-8.72026c0-.0314.00117-.06238.00126-.09376h-6.002a19.40109,19.40109,0,0,0,2.9625,10.33227c.21044-.10353.42808-.20558.65782-.30481A24.03417,24.03417,0,0,1,520.37814,89.51222Z"/><path class="cls-18" d="M521.52931,69.22925c1.7909-3.719,4.41889-6.4904,7.47764-7.71358a19.50941,19.50941,0,0,0-12.36445,7.89124c-.226.31724-.44006.6433-.64736.97406a22.18406,22.18406,0,0,0,4.44677,1.52509A23.61428,23.61428,0,0,1,521.52931,69.22925Z"/></svg>