<svg id="Layer_1" data-name="Layer 1" xmlns="http://www.w3.org/2000/svg" xmlns:xlink="http://www.w3.org/1999/xlink" viewBox="0 0 594.44423 210.97388"><defs><style>.cls-1,.cls-11,.cls-12,.cls-3,.cls-4,.cls-5,.cls-7,.cls-8{fill:none;}.cls-2{fill:#231f20;}.cls-3{stroke:#29abe2;}.cls-11,.cls-12,.cls-3,.cls-7,.cls-8{stroke-linecap:round;stroke-linejoin:round;}.cls-4{stroke:#27b14b;}.cls-4,.cls-5,.cls-9{stroke-miterlimit:10;}.cls-5,.cls-7,.cls-8,.cls-9{stroke:#010101;}.cls-6,.cls-9{fill:#010101;}.cls-8,.cls-9{stroke-width:0.675px;}.cls-10{clip-path:url(#clip-path);}.cls-11,.cls-12{stroke:#000;}.cls-12{stroke-width:0.75px;}</style><clipPath id="clip-path"><rect class="cls-1" x="110.57473" y="23.72716" width="50" height="50"/></clipPath></defs><path class="cls-2" d="M251.13528,185.0724a3.10313,3.10313,0,0,0,2.31055,1.0459c1.30957,0,1.72754-.7041,1.72754-1.26562,0-.87988-.8916-1.12207-1.85937-1.38574-1.17676-.3086-2.48633-.63868-2.48633-2.08008,0-1.21,1.07812-2.03516,2.51953-2.03516a3.4495,3.4495,0,0,1,2.60742,1.02344l-.55078.6709a2.80458,2.80458,0,0,0-2.12305-.87989c-.87988,0-1.50683.47266-1.50683,1.166,0,.73731.84668.957,1.78222,1.21,1.19922.31934,2.56348.69336,2.56348,2.2334,0,1.06738-.72656,2.15625-2.707,2.15625a3.637,3.637,0,0,1-2.81641-1.166Z"/><path class="cls-2" d="M257.47122,185.0724a3.10313,3.10313,0,0,0,2.31055,1.0459c1.30957,0,1.72754-.7041,1.72754-1.26562,0-.87988-.8916-1.12207-1.85938-1.38574-1.17675-.3086-2.48632-.63868-2.48632-2.08008,0-1.21,1.07812-2.03516,2.51953-2.03516a3.4495,3.4495,0,0,1,2.60742,1.02344l-.55078.6709a2.80458,2.80458,0,0,0-2.123-.87989c-.87988,0-1.50684.47266-1.50684,1.166,0,.73731.84668.957,1.78223,1.21,1.19922.31934,2.56348.69336,2.56348,2.2334,0,1.06738-.72657,2.15625-2.707,2.15625a3.637,3.637,0,0,1-2.81641-1.166Z"/><path class="cls-2" d="M263.70755,179.46205h.91406v6.52344h3.41016v.81445h-4.32422Z"/><path class="cls-2" d="M275.28079,179.341c4.77968-.17025,4.78067,7.76122-.00023,7.5908C270.49627,187.10439,270.49716,179.16776,275.28079,179.341Zm0,.81445c-3.55235-.15573-3.55458,6.111.00015,5.96288C278.8314,186.26354,278.82926,180.00207,275.28079,180.15541Z"/><path class="cls-2" d="M280.20853,181.48647h.82519v.85742a2.25856,2.25856,0,0,1,1.77051-.96777v.84668a1.48072,1.48072,0,0,0-.33008-.03223,1.94187,1.94187,0,0,0-1.44043.84668v3.76269h-.82519Z"/><path class="cls-2" d="M286.07083,181.35463a2.273,2.273,0,0,1,1.94727.92383l-.54981.50586a1.57545,1.57545,0,0,0-1.35351-.69336,2.06432,2.06432,0,0,0,0,4.10352,1.60286,1.60286,0,0,0,1.35351-.69239l.54981.50586a2.273,2.273,0,0,1-1.94727.92383,2.79212,2.79212,0,0,1,0-5.57715Z"/><path class="cls-2" d="M292.66068,183.3019c0-.93555-.48438-1.21094-1.19922-1.21094a2.08758,2.08758,0,0,0-1.57325.82519v3.88379H289.063v-7.33789h.82519V182.256a2.64129,2.64129,0,0,1,1.90332-.90137,1.494,1.494,0,0,1,1.69336,1.69336v3.75195h-.82421Z"/><path class="cls-2" d="M297.3345,181.35463a2.58051,2.58051,0,0,1,2.55274,2.84863v.209h-4.30176a1.87283,1.87283,0,0,0,1.91406,1.83789,2.32413,2.32413,0,0,0,1.63965-.6709l.39649.53906a2.88942,2.88942,0,0,1-2.11231.81348,2.79193,2.79193,0,0,1-.08887-5.57715Zm-1.749,2.45313h3.4873a1.72243,1.72243,0,0,0-1.749-1.77149A1.773,1.773,0,0,0,295.58548,183.80776Z"/><path class="cls-2" d="M301.07376,185.50209a2.41236,2.41236,0,0,0,1.75.75879c.81348,0,1.25391-.36328,1.25391-.87988,0-.583-.64942-.77051-1.36426-.94629-.90234-.209-1.92578-.45117-1.92578-1.55176,0-.82422.71582-1.52832,1.98047-1.52832a2.69188,2.69188,0,0,1,1.96972.76953l-.38476.57227a2.07224,2.07224,0,0,0-1.585-.6709c-.72559,0-1.17676.33008-1.17676.80273,0,.51758.60449.68262,1.29785.84766.92481.209,1.99121.47266,1.99121,1.64941,0,.89161-.71484,1.60645-2.08984,1.60645a2.82608,2.82608,0,0,1-2.14551-.83594Z"/><path class="cls-2" d="M306.27689,185.68862v-3.47657H305.397v-.72558h.87989v-1.45215h.82519v1.45215h1.07813v.72558h-1.07813v3.30078c0,.39551.17578.68165.53906.68165a.7967.7967,0,0,0,.56153-.21973l.24121.61621a1.3465,1.3465,0,0,1-.98926.34082A1.0875,1.0875,0,0,1,306.27689,185.68862Z"/><path class="cls-2" d="M309.23587,181.48647h.8252v.85742a2.25888,2.25888,0,0,1,1.77148-.96777v.84668a1.493,1.493,0,0,0-.33008-.03223,1.94545,1.94545,0,0,0-1.4414.84668v3.76269h-.8252Z"/><path class="cls-2" d="M316.07864,186.19448a2.29813,2.29813,0,0,1-1.76074.7373,1.7687,1.7687,0,0,1-1.8584-1.75977,1.7404,1.7404,0,0,1,1.8584-1.75,2.22178,2.22178,0,0,1,1.76074.72657v-.957c0-.71485-.57226-1.12207-1.34277-1.12207a2.10913,2.10913,0,0,0-1.62793.7373l-.38476-.57227a2.77884,2.77884,0,0,1,2.123-.87988c1.12207,0,2.05762.50586,2.05762,1.793v3.65234h-.8252Zm0-1.51758a1.77834,1.77834,0,0,0-1.46289-.66016,1.16911,1.16911,0,1,0,0,2.32129,1.77834,1.77834,0,0,0,1.46289-.66016Z"/><path class="cls-2" d="M318.60794,185.68862v-3.47657h-.88086v-.72558h.88086v-1.45215h.8252v1.45215h1.07812v.72558h-1.07812v3.30078c0,.39551.17578.68165.53906.68165a.796.796,0,0,0,.56055-.21973l.24218.61621a1.3474,1.3474,0,0,1-.99023.34082A1.08682,1.08682,0,0,1,318.60794,185.68862Z"/><path class="cls-2" d="M321.25833,184.13783a2.63424,2.63424,0,1,1,2.62988,2.79395A2.60733,2.60733,0,0,1,321.25833,184.13783Zm4.38965,0a1.78622,1.78622,0,1,0-1.75977,2.05665A1.84743,1.84743,0,0,0,325.648,184.13783Z"/><path class="cls-2" d="M327.74857,181.48647h.82519v.85742a2.25888,2.25888,0,0,1,1.77149-.96777v.84668a1.49306,1.49306,0,0,0-.33008-.03223,1.94549,1.94549,0,0,0-1.44141.84668v3.76269h-.82519Z"/><path class="cls-2" d="M37.49368,173.46205h.91407v4.4668a2.08188,2.08188,0,1,0,4.1582,0v-4.4668H43.479v4.47754a2.71676,2.71676,0,0,1-2.99218,2.99219,2.71913,2.71913,0,0,1-2.99317-2.98145Z"/><path class="cls-2" d="M45.0181,179.50209a2.41234,2.41234,0,0,0,1.75.75879c.81347,0,1.2539-.36328,1.2539-.87988,0-.583-.64941-.77051-1.36425-.94629-.90235-.209-1.92579-.45117-1.92579-1.55176,0-.82422.71582-1.52832,1.98047-1.52832a2.69191,2.69191,0,0,1,1.96973.76953l-.38477.57227a2.07221,2.07221,0,0,0-1.585-.6709c-.72558,0-1.17675.33008-1.17675.80273,0,.51758.60449.68262,1.29785.84766.9248.209,1.99121.47266,1.99121,1.64941,0,.89161-.71485,1.60645-2.08985,1.60645a2.82606,2.82606,0,0,1-2.1455-.83594Z"/><path class="cls-2" d="M52.36575,175.35463a2.58051,2.58051,0,0,1,2.55274,2.84863v.209H50.61673a1.87283,1.87283,0,0,0,1.91406,1.83789,2.32413,2.32413,0,0,0,1.63965-.6709l.39649.53906a2.88942,2.88942,0,0,1-2.11231.81348,2.79193,2.79193,0,0,1-.08887-5.57715Zm-1.749,2.45313H54.104a1.72243,1.72243,0,0,0-1.749-1.77149A1.773,1.773,0,0,0,50.61673,177.80776Z"/><path class="cls-2" d="M56.13919,175.48647h.8252v.85742a2.25856,2.25856,0,0,1,1.7705-.96777v.84668a1.48062,1.48062,0,0,0-.33007-.03223,1.94187,1.94187,0,0,0-1.44043.84668v3.76269h-.8252Z"/><path class="cls-2" d="M59.62552,179.50209a2.41236,2.41236,0,0,0,1.75.75879c.81348,0,1.25391-.36328,1.25391-.87988,0-.583-.64942-.77051-1.36426-.94629-.90235-.209-1.92578-.45117-1.92578-1.55176,0-.82422.71582-1.52832,1.98047-1.52832a2.6919,2.6919,0,0,1,1.96972.76953l-.38476.57227a2.07224,2.07224,0,0,0-1.585-.6709c-.72559,0-1.17676.33008-1.17676.80273,0,.51758.60449.68262,1.29785.84766.9248.209,1.99121.47266,1.99121,1.64941,0,.89161-.71484,1.60645-2.08984,1.60645a2.82608,2.82608,0,0,1-2.14551-.83594Z"/><polyline class="cls-3" points="482.294 97.742 482.294 105.355 98.177 105.355 98.177 97.742"/><line class="cls-3" x1="290.23529" y1="118.86542" x2="290.23529" y2="105.35456"/><line class="cls-4" x1="189.32153" y1="145.18458" x2="73.63506" y2="145.18458"/><g id="lock"><rect class="cls-4" x="189.32153" y="141.44463" width="9" height="7.87622" transform="translate(387.64305 290.76548) rotate(-180)"/><path class="cls-4" d="M190.45127,141.44463v-2.24951a3.37026,3.37026,0,1,1,6.74051,0v2.24951"/></g><line class="cls-4" x1="264.24892" y1="145.18458" x2="198.58416" y2="145.18458"/><line class="cls-4" x1="317.00967" y1="145.18458" x2="382.14906" y2="145.18458"/><line class="cls-4" x1="500.05533" y1="145.18458" x2="516.94302" y2="145.18458"/><line class="cls-4" x1="391.14906" y1="145.18458" x2="460.93095" y2="145.18458"/><g id="lock-2" data-name="lock"><rect class="cls-4" x="382.14906" y="141.44463" width="9" height="7.87622"/><path class="cls-4" d="M390.01932,141.44463v-2.24951a3.37026,3.37026,0,1,0-6.74051,0v2.24951"/></g><circle class="cls-5" cx="290.23529" cy="145.40082" r="26.325"/><path class="cls-6" d="M275.74173,147.51479a3.79343,3.79343,0,0,0,2.835,1.26953c1.459,0,1.97168-.74219,1.97168-1.39063,0-.94531-1.02637-1.21582-2.17383-1.51269-1.44531-.37793-3.11914-.79688-3.11914-2.63281,0-1.48536,1.30957-2.56641,3.18653-2.56641a4.41674,4.41674,0,0,1,3.28125,1.25586l-.78321,1a3.51162,3.51162,0,0,0-2.60547-1.05371c-1,0-1.68847.51367-1.68847,1.26953,0,.81055.97265,1.06641,2.09277,1.35059,1.47266.3916,3.1875.85058,3.1875,2.76757,0,1.40528-.97266,2.71485-3.40332,2.71485a4.61219,4.61219,0,0,1-3.55176-1.43164Z"/><path class="cls-6" d="M283.36868,147.51479a3.79344,3.79344,0,0,0,2.835,1.26953c1.459,0,1.97168-.74219,1.97168-1.39063,0-.94531-1.02636-1.21582-2.17382-1.51269-1.44532-.37793-3.11914-.79688-3.11914-2.63281,0-1.48536,1.30957-2.56641,3.18652-2.56641a4.41674,4.41674,0,0,1,3.28125,1.25586l-.7832,1a3.51163,3.51163,0,0,0-2.60547-1.05371c-1,0-1.68848.51367-1.68848,1.26953,0,.81055.97266,1.06641,2.09277,1.35059,1.47266.3916,3.1875.85058,3.1875,2.76757,0,1.40528-.97265,2.71485-3.40332,2.71485a4.61216,4.61216,0,0,1-3.55175-1.43164Z"/><path class="cls-6" d="M290.77982,140.81752h1.35058v7.81836h4.0918v1.18848h-5.44238Z"/><path class="cls-6" d="M301.09525,140.66908c5.95389-.2174,5.95321,9.53485-.00031,9.31736C295.14351,150.20336,295.14271,140.45128,301.09525,140.66908Zm0,1.20118c-4.14821-.17619-4.15064,7.082.00017,6.914C305.237,148.94607,305.23467,141.69969,301.09525,141.87026Z"/><path class="cls-7" d="M42.7072,133.24787h-4.263A11.4814,11.4814,0,0,0,26.9089,144.85249V156.451"/><path class="cls-7" d="M79.5589,164.8885v-9.48914a11.4025,11.4025,0,0,0-11.44138-11.60461h-8.6199A11.48139,11.48139,0,0,0,47.9623,155.39936v9.48914"/><circle class="cls-7" cx="42.68772" cy="123.75569" r="9.49425"/><circle class="cls-7" cx="63.78605" cy="134.30256" r="9.49425"/><path class="cls-2" d="M114.94876,74.714v5.91894h-.91406V73.29506h.93555l4.22461,5.79785V73.29506h.91406v7.33789h-.88086Z"/><path class="cls-2" d="M123.99075,75.18764a2.58051,2.58051,0,0,1,2.55274,2.84863v.209h-4.30176a1.87221,1.87221,0,0,0,1.91406,1.83789,2.32582,2.32582,0,0,0,1.63965-.6709l.39551.53906a2.88554,2.88554,0,0,1-2.11133.81348,2.79193,2.79193,0,0,1-.08887-5.57715Zm-1.749,2.45312h3.4873a1.72243,1.72243,0,0,0-1.749-1.77148A1.773,1.773,0,0,0,122.24173,77.64076Z"/><path class="cls-2" d="M129.25931,78.45424l-1.5957,2.17871h-.94532l2.03516-2.72851-1.92578-2.585h.957l1.47461,2.02441,1.47461-2.02441h.957l-1.92578,2.585,2.04687,2.72851h-.957Z"/><path class="cls-2" d="M132.812,79.52162V76.04506h-.88086v-.72558h.88086V73.86733h.8252v1.45215h1.07812v.72558h-1.07812v3.30078c0,.39551.17578.68164.53906.68164a.79847.79847,0,0,0,.56152-.21972l.24121.61621a1.34646,1.34646,0,0,1-.98925.34082A1.08751,1.08751,0,0,1,132.812,79.52162Z"/><path class="cls-2" d="M135.27591,77.60756h2.63965v.72559h-2.63965Z"/><path class="cls-2" d="M142.47025,73.174a3.49755,3.49755,0,0,1,2.84961,1.375l-.72657.45117a2.70333,2.70333,0,0,0-2.123-1.01172,2.99132,2.99132,0,0,0,0,5.97363,2.8939,2.8939,0,0,0,1.96875-.792V77.674h-2.51856v-.81446h3.43262v2.65137a3.82285,3.82285,0,0,1-2.88281,1.26465,3.80088,3.80088,0,0,1,0-7.60156Z"/><path class="cls-2" d="M149.00345,75.18764a2.58051,2.58051,0,0,1,2.55273,2.84863v.209h-4.30175a1.8722,1.8722,0,0,0,1.91406,1.83789,2.32413,2.32413,0,0,0,1.63965-.6709l.39648.53906a2.89335,2.89335,0,0,1-2.11328.81348,2.79194,2.79194,0,0,1-.08789-5.57715Zm-1.749,2.45312h3.4873a1.72243,1.72243,0,0,0-1.749-1.77148A1.77234,1.77234,0,0,0,147.25443,77.64076Z"/><path class="cls-2" d="M156.36282,77.15639c0-.93555-.47265-1.23242-1.1875-1.23242a2.05344,2.05344,0,0,0-1.57421.82519v3.88379h-.82422V75.31948h.82422V76.089a2.64023,2.64023,0,0,1,1.89257-.90137,1.50988,1.50988,0,0,1,1.69434,1.71582v3.72949h-.8252Z"/><path class="cls-2" d="M118.25345,84.29506H123.062v.81348h-3.89453v2.36621h3.81641v.81348h-3.81641v3.34472h-.91406Z"/><path class="cls-2" d="M124.01712,84.86733a.55569.55569,0,0,1,1.11133,0,.55569.55569,0,1,1-1.11133,0Zm.14356,1.45215h.82519v5.31347h-.82519Z"/><path class="cls-2" d="M126.52493,86.31948h.82618v.85742a2.25707,2.25707,0,0,1,1.7705-.96778v.84668a1.48745,1.48745,0,0,0-.33008-.03222,1.94187,1.94187,0,0,0-1.44042.84668v3.76269h-.82618Z"/><path class="cls-2" d="M132.355,86.18764a2.58,2.58,0,0,1,2.55274,2.84863v.209H130.607a1.87159,1.87159,0,0,0,1.91407,1.83789,2.32183,2.32183,0,0,0,1.63867-.6709l.39648.53906a2.88943,2.88943,0,0,1-2.1123.81348,2.792,2.792,0,0,1-.08887-5.57715ZM130.607,88.64076h3.48633a1.72158,1.72158,0,0,0-1.748-1.77148A1.77167,1.77167,0,0,0,130.607,88.64076Z"/><path class="cls-2" d="M139.34134,87.3644l-1.38672,4.26855h-.82519l-1.69434-5.31347h.8584l1.29785,4.23535,1.39746-4.23535h.7041l1.39649,4.23535,1.29882-4.23535h.8584l-1.69433,5.31347h-.8252Z"/><path class="cls-2" d="M147.41458,91.02748a2.29811,2.29811,0,0,1-1.76074.73731,1.76951,1.76951,0,0,1-1.85938-1.75977,1.74119,1.74119,0,0,1,1.85938-1.75,2.22181,2.22181,0,0,1,1.76074.72656v-.957c0-.71484-.57129-1.12207-1.34277-1.12207a2.10716,2.10716,0,0,0-1.62695.73731l-.38575-.57227a2.781,2.781,0,0,1,2.124-.87988c1.12109,0,2.05664.50586,2.05664,1.793v3.65234h-.8252Zm0-1.51758a1.77836,1.77836,0,0,0-1.46289-.66015,1.16911,1.16911,0,1,0,0,2.32129,1.77834,1.77834,0,0,0,1.46289-.66016Z"/><path class="cls-2" d="M149.77884,84.29506h.82519v7.33789h-.82519Z"/><path class="cls-2" d="M152.14407,84.29506h.8252v7.33789h-.8252Z"/><path class="cls-7" d="M198.9076,47.95067l2.25052,2.25052a1.64679,1.64679,0,0,1,2.37792,0L214.9585,61.62364a1.68145,1.68145,0,0,1,0,2.37792h0a1.68142,1.68142,0,0,1-2.37791,0L201.15812,52.57911"/><circle class="cls-7" cx="190.80068" cy="39.84374" r="11.3497"/><circle class="cls-7" cx="190.80068" cy="39.84374" r="8.10693"/><path class="cls-2" d="M176.80423,74.714v5.91894h-.91309V73.29506h.93555l4.22461,5.79785V73.29506h.91309v7.33789h-.88086Z"/><path class="cls-2" d="M185.8472,75.18764a2.58105,2.58105,0,0,1,2.55273,2.84863v.209H184.0972a1.87283,1.87283,0,0,0,1.91406,1.83789,2.32814,2.32814,0,0,0,1.64063-.6709l.3955.53906a2.88943,2.88943,0,0,1-2.1123.81348,2.79189,2.79189,0,0,1-.08789-5.57715Zm-1.75,2.45312h3.48828a1.72329,1.72329,0,0,0-1.75-1.77148A1.7737,1.7737,0,0,0,184.0972,77.64076Z"/><path class="cls-2" d="M191.11478,78.45424l-1.59473,2.17871h-.94629l2.03516-2.72851-1.92481-2.585h.957l1.47364,2.02441,1.47461-2.02441h.957l-1.92481,2.585,2.0459,2.72851h-.957Z"/><path class="cls-2" d="M194.66751,79.52162V76.04506h-.87988v-.72558h.87988V73.86733h.82617v1.45215h1.07813v.72558h-1.07813v3.30078c0,.39551.17578.68164.53907.68164a.796.796,0,0,0,.56054-.21972l.24219.61621a1.3474,1.3474,0,0,1-.99023.34082A1.08751,1.08751,0,0,1,194.66751,79.52162Z"/><path class="cls-2" d="M197.13236,77.60756H199.772v.72559h-2.63964Z"/><path class="cls-2" d="M204.32571,73.174a3.49752,3.49752,0,0,1,2.84961,1.375l-.72558.45117a2.70685,2.70685,0,0,0-2.124-1.01172,2.99138,2.99138,0,0,0,0,5.97363,2.89659,2.89659,0,0,0,1.96973-.792V77.674h-2.51855v-.81446h3.43164v2.65137a3.82286,3.82286,0,0,1-2.88282,1.26465,3.80088,3.80088,0,0,1,0-7.60156Z"/><path class="cls-2" d="M210.85892,75.18764a2.58,2.58,0,0,1,2.55273,2.84863v.209h-4.30078a1.87159,1.87159,0,0,0,1.91406,1.83789,2.32185,2.32185,0,0,0,1.63868-.6709l.39648.53906a2.88944,2.88944,0,0,1-2.11231.81348,2.792,2.792,0,0,1-.08886-5.57715Zm-1.74805,2.45312h3.48633a1.72159,1.72159,0,0,0-1.748-1.77148A1.77166,1.77166,0,0,0,209.11087,77.64076Z"/><path class="cls-2" d="M218.21829,77.15639c0-.93555-.47265-1.23242-1.1875-1.23242a2.05148,2.05148,0,0,0-1.57324.82519v3.88379h-.82519V75.31948h.82519V76.089a2.638,2.638,0,0,1,1.8916-.90137,1.51056,1.51056,0,0,1,1.69531,1.71582v3.72949h-.82617Z"/><path class="cls-2" d="M190.65286,84.29506h.91309v7.33789h-.91309Z"/><path class="cls-2" d="M193.17142,84.29506h2.94922a2.21309,2.21309,0,1,1,0,4.42285h-2.03516v2.915h-.91406Zm2.83886.81348h-1.9248v2.79492h1.9248a1.399,1.399,0,1,0,0-2.79492Z"/><path class="cls-2" d="M199.61771,89.90541a3.10309,3.10309,0,0,0,2.31054,1.0459c1.30957,0,1.72754-.7041,1.72754-1.26562,0-.87989-.8916-1.12207-1.85937-1.38575-1.17774-.30859-2.48633-.63867-2.48633-2.08007,0-1.21,1.07812-2.03516,2.51953-2.03516a3.4525,3.4525,0,0,1,2.60742,1.02344l-.55078.6709a2.806,2.806,0,0,0-2.12305-.87989c-.88085,0-1.50781.47266-1.50781,1.166,0,.7373.84766.957,1.78321,1.21,1.19921.31934,2.5625.69336,2.5625,2.2334,0,1.06738-.72559,2.15625-2.70606,2.15625a3.634,3.634,0,0,1-2.81641-1.166Z"/><path class="cls-2" d="M376.49661,73.29506h.91309v4.4668a2.08188,2.08188,0,1,0,4.1582,0v-4.4668h.91406V77.7726a2.99269,2.99269,0,0,1-5.98535.01074Z"/><path class="cls-2" d="M386.816,77.50893l-2.34375,3.124h-1.11133l2.86133-3.76269-2.69629-3.5752h1.11133l2.17871,2.9375,2.167-2.9375h1.11035l-2.68359,3.56445,2.84961,3.77344h-1.10059Z"/><path class="cls-2" d="M364.77689,85.52748l-2.4961,6.10547h-.375l-2.48633-6.10547v6.10547h-.91308V84.29506H359.816l2.27734,5.58887,2.28809-5.58887H365.691v7.33789h-.91406Z"/><path class="cls-2" d="M366.95462,88.97084a2.63424,2.63424,0,1,1,2.62891,2.794A2.60656,2.60656,0,0,1,366.95462,88.97084Zm4.38965,0a1.78664,1.78664,0,1,0-1.76074,2.05664A1.84756,1.84756,0,0,0,371.34427,88.97084Z"/><path class="cls-2" d="M377.03079,88.15639c0-.93555-.47265-1.23242-1.1875-1.23242a2.05347,2.05347,0,0,0-1.57422.82519v3.88379h-.82421V86.31948h.82421V87.089a2.64025,2.64025,0,0,1,1.89258-.90137,1.50988,1.50988,0,0,1,1.69434,1.71582v3.72949h-.8252Z"/><path class="cls-2" d="M379.25247,84.86733a.55569.55569,0,0,1,1.11133,0,.55569.55569,0,1,1-1.11133,0Zm.14356,1.45215h.82422v5.31347H379.396Z"/><path class="cls-2" d="M381.92532,90.52162V87.04506h-.87988v-.72558h.87988V84.86733h.82618v1.45215h1.07812v.72558H382.7515v3.30078c0,.39551.17578.68164.53906.68164a.796.796,0,0,0,.56055-.21972l.24218.61621a1.3474,1.3474,0,0,1-.99023.34082A1.08751,1.08751,0,0,1,381.92532,90.52162Z"/><path class="cls-2" d="M384.57669,88.97084a2.63424,2.63424,0,1,1,2.62988,2.794A2.60733,2.60733,0,0,1,384.57669,88.97084Zm4.38965,0a1.78622,1.78622,0,1,0-1.75977,2.05664A1.84743,1.84743,0,0,0,388.96634,88.97084Z"/><path class="cls-2" d="M391.066,86.31948h.82617v.85742a2.25709,2.25709,0,0,1,1.77051-.96778v.84668a1.48745,1.48745,0,0,0-.33008-.03222,1.94187,1.94187,0,0,0-1.44043.84668v3.76269H391.066Z"/><path class="cls-2" d="M394.4429,84.86733a.55569.55569,0,0,1,1.11133,0,.55569.55569,0,1,1-1.11133,0Zm.14356,1.45215h.82519v5.31347h-.82519Z"/><path class="cls-2" d="M400.53861,88.15639c0-.93555-.47364-1.23242-1.18848-1.23242a2.05307,2.05307,0,0,0-1.57324.82519v3.88379h-.8252V86.31948h.8252V87.089a2.63651,2.63651,0,0,1,1.89257-.90137,1.50919,1.50919,0,0,1,1.69336,1.71582v3.72949h-.82421Z"/><path class="cls-2" d="M403.31009,92.381a2.02605,2.02605,0,0,0,1.72656.72656,1.52186,1.52186,0,0,0,1.70508-1.5957v-.75879a2.21952,2.21952,0,0,1-1.78223.94629c-1.38574,0-2.36523-1.03418-2.36523-2.751,0-1.70508.96777-2.76074,2.36523-2.76074a2.19962,2.19962,0,0,1,1.78223.93457v-.80273h.8252v5.15917c0,1.76075-1.23145,2.31055-2.53028,2.31055a2.71592,2.71592,0,0,1-2.14551-.792Zm3.43164-4.59863a1.95781,1.95781,0,0,0-1.584-.8584c-1.06739,0-1.70508.84765-1.70508,2.02441,0,1.166.63769,2.02442,1.70508,2.02442a1.96692,1.96692,0,0,0,1.584-.86915Z"/><path class="cls-7" d="M444.50608,58.29208H455.148a6.36242,6.36242,0,0,0,6.37781-6.34692V34.841a6.36242,6.36242,0,0,0-6.37781-6.34691H437.96056a6.36242,6.36242,0,0,0-6.37782,6.34691V49.55324"/><ellipse class="cls-5" cx="436.48247" cy="56.27739" rx="8.25499" ry="8.215"/><g id="Group_12831" data-name="Group 12831"><rect id="Rectangle_9394" data-name="Rectangle 9394" class="cls-8" x="433.03097" y="55.03819" width="6.88639" height="6.00051"/><path id="Path_60586" data-name="Path 60586" class="cls-8" d="M439.06069,55.03819v-1.705a2.57,2.57,0,0,0-5.14-.00218v1.70721"/></g><path class="cls-1" d="M437.31284,38.82788c1.39331,0,1.46412-1.98492,1.46412-2.38293,0-.39655-.07081-2.37476-1.46412-2.37476-1.40136,0-1.47241,1.97821-1.47241,2.37476C435.84043,36.843,435.91148,38.82788,437.31284,38.82788Z"/><path class="cls-1" d="M441.81626,47.95825a1.37925,1.37925,0,0,0-1.29394,1.15448,8.22125,8.22125,0,0,1,2.615,2.31952,4.71153,4.71153,0,0,0,.14282-1.09924C443.28013,49.93646,443.20957,47.95825,441.81626,47.95825Z"/><path class="cls-1" d="M456.15537,45.65277c1.39356,0,1.46387-1.98492,1.46387-2.38293,0-.39655-.07031-2.37507-1.46387-2.37507-1.40136,0-1.47216,1.97852-1.47216,2.37507C454.68321,43.66785,454.754,45.65277,456.15537,45.65277Z"/><path class="cls-1" d="M444.48228,38.82788c1.39355,0,1.46411-1.98492,1.46411-2.38293,0-.39655-.07056-2.37476-1.46411-2.37476-1.40137,0-1.47217,1.97821-1.47217,2.37476C443.01011,36.843,443.08091,38.82788,444.48228,38.82788Z"/><path class="cls-1" d="M448.98545,40.89477c-1.40112,0-1.47217,1.97852-1.47217,2.37507,0,.398.07105,2.38293,1.47217,2.38293,1.39356,0,1.46436-1.98492,1.46436-2.38293C450.44981,42.87329,450.379,40.89477,448.98545,40.89477Z"/><path class="cls-1" d="M451.6522,38.82788c1.39331,0,1.46387-1.98492,1.46387-2.38293,0-.39655-.07056-2.37476-1.46387-2.37476-1.40137,0-1.47241,1.97821-1.47241,2.37476C450.17979,36.843,450.25083,38.82788,451.6522,38.82788Z"/><path class="cls-1" d="M439.56455,45.65277c1.39331,0,1.46387-1.98492,1.46387-2.38293,0-.39655-.07056-2.37507-1.46387-2.37507-1.40136,0-1.47216,1.97852-1.47216,2.37507C438.09239,43.66785,438.16319,45.65277,439.56455,45.65277Z"/><path class="cls-1" d="M451.2374,47.95825c-1.40136,0-1.47216,1.97821-1.47216,2.37476,0,.398.0708,2.38293,1.47216,2.38293,1.39332,0,1.46387-1.98492,1.46387-2.38293C452.70127,49.93646,452.63072,47.95825,451.2374,47.95825Z"/><path class="cls-6" d="M437.31284,39.42761c1.45411,0,2.105-1.49786,2.105-2.98266,0-1.48072-.65087-2.97486-2.105-2.97486-1.45971,0-2.113,1.49414-2.113,2.97486C435.19981,37.92975,435.85313,39.42761,437.31284,39.42761Zm0-5.35742c1.39331,0,1.46412,1.97821,1.46412,2.37476,0,.398-.07081,2.38293-1.46412,2.38293-1.40136,0-1.47241-1.98492-1.47241-2.38293C435.84043,36.0484,435.91148,34.07019,437.31284,34.07019Z"/><polygon class="cls-6" points="440.865 34.563 440.865 39.33 441.482 39.33 441.482 33.552 440.983 33.552 439.766 34.853 440.193 35.299 440.865 34.563"/><path class="cls-6" d="M444.48228,39.42761c1.4541,0,2.105-1.49786,2.105-2.98266,0-1.48072-.65088-2.97486-2.105-2.97486-1.45972,0-2.113,1.49414-2.113,2.97486C442.36924,37.92975,443.02256,39.42761,444.48228,39.42761Zm0-5.35742c1.39355,0,1.46411,1.97821,1.46411,2.37476,0,.398-.07056,2.38293-1.46411,2.38293-1.40137,0-1.47217-1.98492-1.47217-2.38293C443.01011,36.0484,443.08091,34.07019,444.48228,34.07019Z"/><polygon class="cls-6" points="448.035 34.563 448.035 39.33 448.652 39.33 448.652 33.552 448.152 33.552 446.936 34.853 447.363 35.299 448.035 34.563"/><path class="cls-6" d="M451.6522,39.42761c1.4541,0,2.10474-1.49786,2.10474-2.98266,0-1.48072-.65064-2.97486-2.10474-2.97486-1.46,0-2.11328,1.49414-2.11328,2.97486C449.53892,37.92975,450.19224,39.42761,451.6522,39.42761Zm0-5.35742c1.39331,0,1.46387,1.97821,1.46387,2.37476,0,.398-.07056,2.38293-1.46387,2.38293-1.40137,0-1.47241-1.98492-1.47241-2.38293C450.17979,36.0484,450.25083,34.07019,451.6522,34.07019Z"/><polygon class="cls-6" points="455.205 34.563 455.205 39.33 455.821 39.33 455.821 33.552 455.322 33.552 454.105 34.853 454.532 35.299 455.205 34.563"/><polygon class="cls-6" points="457.456 34.563 457.456 39.33 458.073 39.33 458.073 33.552 457.574 33.552 456.357 34.853 456.784 35.299 457.456 34.563"/><polygon class="cls-6" points="435.948 41.388 435.948 46.155 436.564 46.155 436.564 40.376 436.065 40.376 434.848 41.678 435.275 42.124 435.948 41.388"/><path class="cls-6" d="M437.45127,43.26984c0,1.4848.65332,2.98266,2.11328,2.98266,1.4541,0,2.10474-1.49786,2.10474-2.98266,0-1.48078-.65064-2.97486-2.10474-2.97486C438.10459,40.295,437.45127,41.78906,437.45127,43.26984Zm2.11328-2.37507c1.39331,0,1.46387,1.97852,1.46387,2.37507,0,.398-.07056,2.38293-1.46387,2.38293-1.40136,0-1.47216-1.98492-1.47216-2.38293C438.09239,42.87329,438.16319,40.89477,439.56455,40.89477Z"/><polygon class="cls-6" points="443.117 41.388 443.117 46.155 443.733 46.155 443.733 40.376 443.234 40.376 442.018 41.678 442.445 42.124 443.117 41.388"/><polygon class="cls-6" points="444.269 41.678 444.696 42.124 445.369 41.388 445.369 46.155 445.985 46.155 445.985 40.376 445.486 40.376 444.269 41.678"/><path class="cls-6" d="M451.09043,43.26984c0-1.48078-.65088-2.97486-2.105-2.97486-1.45947,0-2.113,1.49408-2.113,2.97486,0,1.4848.65357,2.98266,2.113,2.98266C450.43955,46.2525,451.09043,44.75464,451.09043,43.26984Zm-2.105,2.38293c-1.40112,0-1.47217-1.98492-1.47217-2.38293,0-.39655.07105-2.37507,1.47217-2.37507,1.39356,0,1.46436,1.97852,1.46436,2.37507C450.44981,43.66785,450.379,45.65277,448.98545,45.65277Z"/><polygon class="cls-6" points="453.155 46.155 453.155 40.376 452.656 40.376 451.439 41.678 451.866 42.124 452.538 41.388 452.538 46.155 453.155 46.155"/><path class="cls-6" d="M456.15537,46.2525c1.4541,0,2.105-1.49786,2.105-2.98266,0-1.48078-.65088-2.97486-2.105-2.97486-1.46,0-2.11328,1.49408-2.11328,2.97486C454.04209,44.75464,454.69541,46.2525,456.15537,46.2525Zm0-5.35773c1.39356,0,1.46387,1.97852,1.46387,2.37507,0,.398-.07031,2.38293-1.46387,2.38293-1.40136,0-1.47216-1.98492-1.47216-2.38293C454.68321,42.87329,454.754,40.89477,456.15537,40.89477Z"/><path class="cls-6" d="M436.56406,48.06421v-.62457h-.49926l-.65357.69891A8.21116,8.21116,0,0,1,436.56406,48.06421Z"/><path class="cls-6" d="M438.81577,48.40405v-.96441h-.49926l-.66846.7149c.17187.02454.34326.04431.51562.08C438.38609,48.28058,438.60166,48.34137,438.81577,48.40405Z"/><path class="cls-6" d="M441.81626,47.95825c1.39331,0,1.46387,1.97821,1.46387,2.37476a4.71153,4.71153,0,0,1-.14282,1.09924q.22924.3121.42822.64392A4.234,4.234,0,0,0,443.921,50.333c0-1.48078-.65088-2.97486-2.10474-2.97486a1.97413,1.97413,0,0,0-1.8584,1.47449c.19165.08844.38208.17828.56446.28009A1.37925,1.37925,0,0,1,441.81626,47.95825Z"/><polygon class="cls-6" points="444.269 48.741 444.696 49.187 445.369 48.451 445.369 53.218 445.985 53.218 445.985 47.44 445.486 47.44 444.269 48.741"/><polygon class="cls-6" points="446.521 48.741 446.948 49.187 447.62 48.451 447.62 53.218 448.237 53.218 448.237 47.44 447.738 47.44 446.521 48.741"/><path class="cls-6" d="M451.2374,47.35815c-1.46,0-2.11328,1.49408-2.11328,2.97486,0,1.4848.65332,2.983,2.11328,2.983,1.45411,0,2.10474-1.49817,2.10474-2.983C453.34214,48.85223,452.69151,47.35815,451.2374,47.35815Zm0,5.35779c-1.40136,0-1.47216-1.98492-1.47216-2.38293,0-.39655.0708-2.37476,1.47216-2.37476,1.39332,0,1.46387,1.97821,1.46387,2.37476C452.70127,50.731,452.63072,52.71594,451.2374,52.71594Z"/><polygon class="cls-6" points="453.691 48.741 454.118 49.187 454.79 48.451 454.79 53.218 455.407 53.218 455.407 47.44 454.907 47.44 453.691 48.741"/><polygon class="cls-6" points="455.942 48.741 456.369 49.187 457.042 48.451 457.042 53.218 457.658 53.218 457.658 47.44 457.159 47.44 455.942 48.741"/><path class="cls-2" d="M422.54056,73.29506h2.50879a3.67009,3.67009,0,1,1,0,7.33789h-2.50879Zm2.50879,6.52344a2.85524,2.85524,0,0,0,0-5.71h-1.59571v5.71Z"/><path class="cls-2" d="M433.42044,80.02748a2.29811,2.29811,0,0,1-1.76074.73731,1.76951,1.76951,0,0,1-1.85938-1.75977,1.74119,1.74119,0,0,1,1.85938-1.75,2.22181,2.22181,0,0,1,1.76074.72656v-.957c0-.71484-.57226-1.12207-1.34277-1.12207a2.10912,2.10912,0,0,0-1.62793.73731l-.38477-.57227a2.77887,2.77887,0,0,1,2.123-.87988c1.12207,0,2.05762.50586,2.05762,1.793v3.65234h-.8252Zm0-1.51758a1.77836,1.77836,0,0,0-1.46289-.66015,1.16911,1.16911,0,1,0,0,2.32129,1.77834,1.77834,0,0,0,1.46289-.66016Z"/><path class="cls-2" d="M435.94974,79.52162V76.04506h-.88086v-.72558h.88086V73.86733h.82519v1.45215h1.07813v.72558h-1.07813v3.30078c0,.39551.17578.68164.53907.68164a.796.796,0,0,0,.56054-.21972l.24219.61621a1.3474,1.3474,0,0,1-.99023.34082A1.08682,1.08682,0,0,1,435.94974,79.52162Z"/><path class="cls-2" d="M442.231,80.02748a2.29811,2.29811,0,0,1-1.76074.73731,1.76951,1.76951,0,0,1-1.85938-1.75977,1.74119,1.74119,0,0,1,1.85938-1.75,2.22181,2.22181,0,0,1,1.76074.72656v-.957c0-.71484-.57227-1.12207-1.34278-1.12207a2.10915,2.10915,0,0,0-1.62793.73731l-.38476-.57227a2.77886,2.77886,0,0,1,2.123-.87988c1.12207,0,2.05761.50586,2.05761,1.793v3.65234H442.231Zm0-1.51758a1.77837,1.77837,0,0,0-1.46289-.66015,1.16911,1.16911,0,1,0,0,2.32129,1.77835,1.77835,0,0,0,1.46289-.66016Z"/><path class="cls-2" d="M447.356,73.29506h.91406V79.8185h3.41016v.81445H447.356Z"/><path class="cls-2" d="M452.28372,77.97084a2.63424,2.63424,0,1,1,2.62989,2.794A2.60733,2.60733,0,0,1,452.28372,77.97084Zm4.38965,0a1.78622,1.78622,0,1,0-1.75976,2.05664A1.84743,1.84743,0,0,0,456.67337,77.97084Z"/><path class="cls-2" d="M458.74075,79.3351a2.41236,2.41236,0,0,0,1.75.75879c.81348,0,1.25391-.36328,1.25391-.87988,0-.583-.64941-.77051-1.36426-.94629-.90234-.209-1.92578-.45117-1.92578-1.55176,0-.82422.71582-1.52832,1.98047-1.52832a2.69192,2.69192,0,0,1,1.96973.76953l-.38477.57227a2.07223,2.07223,0,0,0-1.585-.6709c-.72559,0-1.17676.33008-1.17676.80273,0,.51758.60449.68262,1.29785.84766.92481.209,1.99121.47265,1.99121,1.64941,0,.8916-.71484,1.60645-2.08984,1.60645a2.8261,2.8261,0,0,1-2.14551-.83594Z"/><path class="cls-2" d="M463.74564,79.3351a2.41234,2.41234,0,0,0,1.75.75879c.81347,0,1.2539-.36328,1.2539-.87988,0-.583-.64941-.77051-1.36426-.94629-.90234-.209-1.92578-.45117-1.92578-1.55176,0-.82422.71582-1.52832,1.98047-1.52832a2.69191,2.69191,0,0,1,1.96973.76953l-.38477.57227a2.07221,2.07221,0,0,0-1.585-.6709c-.72558,0-1.17676.33008-1.17676.80273,0,.51758.6045.68262,1.29786.84766.9248.209,1.99121.47265,1.99121,1.64941,0,.8916-.71485,1.60645-2.08985,1.60645a2.82606,2.82606,0,0,1-2.1455-.83594Z"/><path class="cls-2" d="M420.23587,84.29506h2.94922a2.21309,2.21309,0,1,1,0,4.42285h-2.03516v2.915h-.91406Zm2.83887.81348h-1.92481v2.79492h1.92481a1.39892,1.39892,0,1,0,0-2.79492Z"/><path class="cls-2" d="M426.55032,86.31948h.8252v.85742a2.25889,2.25889,0,0,1,1.77148-.96778v.84668a1.49362,1.49362,0,0,0-.33007-.03222,1.94549,1.94549,0,0,0-1.44141.84668v3.76269h-.8252Z"/><path class="cls-2" d="M432.3804,86.18764a2.58051,2.58051,0,0,1,2.55274,2.84863v.209h-4.30176a1.87159,1.87159,0,0,0,1.91406,1.83789,2.32584,2.32584,0,0,0,1.63965-.6709l.39551.53906a2.88946,2.88946,0,0,1-2.11231.81348,2.79194,2.79194,0,0,1-.08789-5.57715Zm-1.749,2.45312h3.4873a1.72243,1.72243,0,0,0-1.749-1.77148A1.77234,1.77234,0,0,0,430.63138,88.64076Z"/><path class="cls-2" d="M435.36087,86.31948h.8916l1.77051,4.35644,1.76074-4.35644h.90235l-2.21192,5.31347h-.90234Z"/><path class="cls-2" d="M443.74271,86.18764a2.58051,2.58051,0,0,1,2.55273,2.84863v.209h-4.30176a1.87283,1.87283,0,0,0,1.91407,1.83789,2.32411,2.32411,0,0,0,1.63964-.6709l.39649.53906a2.88946,2.88946,0,0,1-2.11231.81348,2.79193,2.79193,0,0,1-.08886-5.57715Zm-1.749,2.45312H445.481a1.72243,1.72243,0,0,0-1.749-1.77148A1.773,1.773,0,0,0,441.99368,88.64076Z"/><path class="cls-2" d="M451.10208,88.15639c0-.93555-.47265-1.23242-1.1875-1.23242a2.05148,2.05148,0,0,0-1.57324.82519v3.88379h-.8252V86.31948h.8252V87.089a2.63609,2.63609,0,0,1,1.8916-.90137,1.50988,1.50988,0,0,1,1.69434,1.71582v3.72949h-.8252Z"/><path class="cls-2" d="M453.63138,90.52162V87.04506h-.87988v-.72558h.87988V84.86733h.82519v1.45215h1.07813v.72558h-1.07813v3.30078c0,.39551.17579.68164.53907.68164a.79668.79668,0,0,0,.56152-.21972l.24121.61621a1.34648,1.34648,0,0,1-.98926.34082A1.0875,1.0875,0,0,1,453.63138,90.52162Z"/><path class="cls-2" d="M456.44778,84.86733a.55569.55569,0,0,1,1.11133,0,.55569.55569,0,1,1-1.11133,0Zm.14258,1.45215h.8252v5.31347h-.8252Z"/><path class="cls-2" d="M458.648,88.97084a2.63424,2.63424,0,1,1,2.62891,2.794A2.60656,2.60656,0,0,1,458.648,88.97084Zm4.38965,0a1.78664,1.78664,0,1,0-1.76074,2.05664A1.84756,1.84756,0,0,0,463.03763,88.97084Z"/><path class="cls-2" d="M468.72415,88.15639c0-.93555-.47363-1.23242-1.18847-1.23242a2.05311,2.05311,0,0,0-1.57325.82519v3.88379h-.82519V86.31948h.82519V87.089a2.6384,2.6384,0,0,1,1.89258-.90137,1.50988,1.50988,0,0,1,1.69434,1.71582v3.72949h-.8252Z"/><path class="cls-2" d="M246.33353,74.52748l-2.49707,6.10547h-.374l-2.48632-6.10547v6.10547H240.063V73.29506h1.30957l2.27734,5.58887,2.28809-5.58887h1.30859v7.33789h-.91308Z"/><path class="cls-2" d="M252.14114,80.02748a2.296,2.296,0,0,1-1.75976.73731A1.769,1.769,0,0,1,248.522,79.005a1.74068,1.74068,0,0,1,1.85938-1.75,2.2211,2.2211,0,0,1,1.75976.72656v-.957c0-.71484-.57128-1.12207-1.34179-1.12207a2.1077,2.1077,0,0,0-1.62793.73731l-.38574-.57227a2.781,2.781,0,0,1,2.124-.87988c1.12207,0,2.05664.50586,2.05664,1.793v3.65234h-.8252Zm0-1.51758a1.77708,1.77708,0,0,0-1.46289-.66015,1.16911,1.16911,0,1,0,0,2.32129,1.77706,1.77706,0,0,0,1.46289-.66016Z"/><path class="cls-2" d="M254.5054,73.29506h.8252v7.33789h-.8252Z"/><path class="cls-2" d="M260.08353,76.3644l-1.38672,4.26855h-.8252l-1.69433-5.31347h.8584l1.29882,4.23535,1.39649-4.23535h.7041l1.39746,4.23535,1.29785-4.23535h.8584l-1.69434,5.31347h-.82519Z"/><path class="cls-2" d="M268.15677,80.02748a2.296,2.296,0,0,1-1.75977.73731,1.769,1.769,0,0,1-1.85937-1.75977,1.74067,1.74067,0,0,1,1.85937-1.75,2.22111,2.22111,0,0,1,1.75977.72656v-.957c0-.71484-.57129-1.12207-1.3418-1.12207a2.10773,2.10773,0,0,0-1.62793.73731l-.38574-.57227a2.781,2.781,0,0,1,2.124-.87988c1.12207,0,2.05664.50586,2.05664,1.793v3.65234h-.82519Zm0-1.51758a1.77708,1.77708,0,0,0-1.46289-.66015,1.16911,1.16911,0,1,0,0,2.32129,1.77706,1.77706,0,0,0,1.46289-.66016Z"/><path class="cls-2" d="M270.522,75.31948h.8252v.85742a2.25857,2.25857,0,0,1,1.77051-.96778v.84668a1.48142,1.48142,0,0,0-.33008-.03222,1.94187,1.94187,0,0,0-1.44043.84668v3.76269h-.8252Z"/><path class="cls-2" d="M276.35111,75.18764a2.58051,2.58051,0,0,1,2.55273,2.84863v.209h-4.30176a1.87283,1.87283,0,0,0,1.91406,1.83789,2.32413,2.32413,0,0,0,1.63965-.6709l.39649.53906a2.88946,2.88946,0,0,1-2.11231.81348,2.79193,2.79193,0,0,1-.08886-5.57715Zm-1.749,2.45312h3.48731a1.72245,1.72245,0,0,0-1.749-1.77148A1.773,1.773,0,0,0,274.60208,77.64076Z"/><path class="cls-2" d="M236.00345,84.29506h2.94922a2.21309,2.21309,0,1,1,0,4.42285h-2.03516v2.915h-.91406Zm2.83887.81348h-1.92481v2.79492h1.92481a1.39892,1.39892,0,1,0,0-2.79492Z"/><path class="cls-2" d="M242.3179,86.31948h.8252v.85742a2.25889,2.25889,0,0,1,1.77148-.96778v.84668a1.49365,1.49365,0,0,0-.33008-.03222,1.94545,1.94545,0,0,0-1.4414.84668v3.76269h-.8252Z"/><path class="cls-2" d="M245.52982,88.97084a2.63424,2.63424,0,1,1,2.6289,2.794A2.60655,2.60655,0,0,1,245.52982,88.97084Zm4.38964,0a1.78663,1.78663,0,1,0-1.76074,2.05664A1.84756,1.84756,0,0,0,249.91946,88.97084Z"/><path class="cls-2" d="M252.18509,90.52162V87.04506h-.88086v-.72558h.88086V84.86733h.82519v1.45215h1.07813v.72558h-1.07813v3.30078c0,.39551.17579.68164.53907.68164a.796.796,0,0,0,.56054-.21972l.24219.61621a1.3474,1.3474,0,0,1-.99023.34082A1.08682,1.08682,0,0,1,252.18509,90.52162Z"/><path class="cls-2" d="M257.45364,86.18764a2.58051,2.58051,0,0,1,2.55274,2.84863v.209h-4.30176a1.87283,1.87283,0,0,0,1.91406,1.83789,2.32413,2.32413,0,0,0,1.63965-.6709l.39649.53906a2.88946,2.88946,0,0,1-2.11231.81348,2.79193,2.79193,0,0,1-.08887-5.57715Zm-1.749,2.45312h3.48731a1.72245,1.72245,0,0,0-1.749-1.77148A1.773,1.773,0,0,0,255.70462,88.64076Z"/><path class="cls-2" d="M263.56986,86.18764a2.273,2.273,0,0,1,1.94726.92383l-.5498.50586a1.57546,1.57546,0,0,0-1.35352-.69336,2.06432,2.06432,0,0,0,0,4.10351,1.60287,1.60287,0,0,0,1.35352-.69238l.5498.50586a2.273,2.273,0,0,1-1.94726.92383,2.79212,2.79212,0,0,1,0-5.57715Z"/><path class="cls-2" d="M266.72611,90.52162V87.04506h-.87989v-.72558h.87989V84.86733h.82519v1.45215h1.07813v.72558H267.5513v3.30078c0,.39551.17578.68164.53906.68164a.79671.79671,0,0,0,.56153-.21972l.24121.61621a1.3465,1.3465,0,0,1-.98926.34082A1.0875,1.0875,0,0,1,266.72611,90.52162Z"/><path class="cls-2" d="M269.54251,84.86733a.55569.55569,0,0,1,1.11133,0,.55569.55569,0,1,1-1.11133,0Zm.14258,1.45215h.82519v5.31347h-.82519Z"/><path class="cls-2" d="M271.74271,88.97084a2.63424,2.63424,0,1,1,2.6289,2.794A2.60656,2.60656,0,0,1,271.74271,88.97084Zm4.38965,0a1.78664,1.78664,0,1,0-1.76075,2.05664A1.84757,1.84757,0,0,0,276.13236,88.97084Z"/><path class="cls-2" d="M281.81888,88.15639c0-.93555-.47363-1.23242-1.18848-1.23242a2.05309,2.05309,0,0,0-1.57324.82519v3.88379h-.8252V86.31948h.8252V87.089a2.63838,2.63838,0,0,1,1.89258-.90137,1.50987,1.50987,0,0,1,1.69433,1.71582v3.72949h-.82519Z"/><path class="cls-7" d="M262.61683,38.54827a8.95224,8.95224,0,1,0,2.40456,1.43761l.00162-.00034-7.05693,10.66569-3.79844-5.03649"/><path class="cls-7" d="M267.81022,34.38081q-.89706.04457-1.78924.07669l-.00269-.00664L261.7415,31.167a3.63345,3.63345,0,0,0-4.54191-.06845L252.5934,34.4575q-.89115-.03274-1.78924-.07669c-3.38036-.168-6.017-1.12606-6.017,3.5033s.62677,12.13644.62677,12.13644-.37606,5.63029,6.14232,10.38478c5.60675,4.08953,7.7293,5.56976,7.7293,5.56976h0s2.16577-1.48023,7.77252-5.56976c6.51838-4.75449,6.14232-10.38478,6.14232-10.38478s.62677-7.50708.62677-12.13644-2.63661-3.67127-6.017-3.5033"/><path class="cls-2" d="M293.31693,78.90541a3.10309,3.10309,0,0,0,2.31054,1.0459c1.30957,0,1.72754-.7041,1.72754-1.26562,0-.87989-.8916-1.12207-1.85937-1.38575-1.17774-.30859-2.48633-.63867-2.48633-2.08007,0-1.21,1.07812-2.03516,2.51953-2.03516a3.45251,3.45251,0,0,1,2.60742,1.02344l-.55078.6709a2.806,2.806,0,0,0-2.12305-.87989c-.88086,0-1.50781.47266-1.50781,1.166,0,.7373.84766.957,1.7832,1.21,1.19922.31934,2.5625.69336,2.5625,2.2334,0,1.06738-.72558,2.15625-2.70605,2.15625a3.634,3.634,0,0,1-2.81641-1.166Z"/><path class="cls-2" d="M301.83157,75.18764a2.58106,2.58106,0,0,1,2.55274,2.84863v.209h-4.30274a1.87283,1.87283,0,0,0,1.91407,1.83789,2.3281,2.3281,0,0,0,1.64062-.6709l.39551.53906a2.88944,2.88944,0,0,1-2.11231.81348,2.79189,2.79189,0,0,1-.08789-5.57715Zm-1.75,2.45312h3.48829a1.72329,1.72329,0,0,0-1.75-1.77148A1.77371,1.77371,0,0,0,300.08157,77.64076Z"/><path class="cls-2" d="M307.94681,75.18764a2.273,2.273,0,0,1,1.94726.92383l-.55078.50586a1.57379,1.57379,0,0,0-1.35254-.69336,2.06432,2.06432,0,0,0,0,4.10351,1.60116,1.60116,0,0,0,1.35254-.69238l.55078.50586a2.273,2.273,0,0,1-1.94726.92383,2.79212,2.79212,0,0,1,0-5.57715Z"/><path class="cls-2" d="M314.52493,79.8849a2.599,2.599,0,0,1-1.89257.87989,1.49388,1.49388,0,0,1-1.69336-1.69434v-3.751h.82421v3.498c0,.93555.47364,1.21,1.18848,1.21a2.03407,2.03407,0,0,0,1.57324-.80273V75.31948h.8252v5.31347h-.8252Z"/><path class="cls-2" d="M316.89017,75.31948h.82422v.85742a2.26037,2.26037,0,0,1,1.77148-.96778v.84668a1.48745,1.48745,0,0,0-.33008-.03222,1.94545,1.94545,0,0,0-1.4414.84668v3.76269h-.82422Z"/><path class="cls-2" d="M322.72025,75.18764a2.58106,2.58106,0,0,1,2.55273,2.84863v.209h-4.30273a1.87281,1.87281,0,0,0,1.91406,1.83789,2.3281,2.3281,0,0,0,1.64062-.6709l.39551.53906a2.88943,2.88943,0,0,1-2.1123.81348,2.79189,2.79189,0,0,1-.08789-5.57715Zm-1.75,2.45312h3.48828a1.72329,1.72329,0,0,0-1.75-1.77148A1.77369,1.77369,0,0,0,320.97025,77.64076Z"/><path class="cls-2" d="M333.24661,74.714l-1.61718,5.91894h-.99024l-2.09082-7.33789h1.0127l1.62793,6.11719,1.68359-6.11719h.75977l1.68261,6.11719,1.61719-6.11719h1.0127L335.854,80.63295h-.99023Z"/><path class="cls-2" d="M340.6929,75.18764a2.58,2.58,0,0,1,2.55274,2.84863v.209h-4.30078a1.87158,1.87158,0,0,0,1.91406,1.83789,2.32183,2.32183,0,0,0,1.63867-.6709l.39648.53906a2.88943,2.88943,0,0,1-2.1123.81348,2.792,2.792,0,0,1-.08887-5.57715Zm-1.748,2.45312h3.48632a1.72158,1.72158,0,0,0-1.748-1.77148A1.77166,1.77166,0,0,0,338.94486,77.64076Z"/><path class="cls-2" d="M344.46634,73.29506h.82422v2.82715a2.207,2.207,0,0,1,1.793-.93457c1.38672,0,2.36523,1.09961,2.36523,2.79394,0,1.72754-.97851,2.78321-2.36523,2.78321a2.237,2.237,0,0,1-1.793-.92383v.792h-.82422Zm2.4082,6.73242c1.07813,0,1.7168-.86914,1.7168-2.0459s-.63867-2.05761-1.7168-2.05761a1.97668,1.97668,0,0,0-1.584.8584v2.40918A1.95774,1.95774,0,0,0,346.87454,80.02748Z"/><path class="cls-2" d="M304.66361,84.174a3.49752,3.49752,0,0,1,2.8496,1.375l-.72558.45117a2.70684,2.70684,0,0,0-2.124-1.01172,2.99138,2.99138,0,0,0,0,5.97363,2.89658,2.89658,0,0,0,1.96972-.792V88.674h-2.51855v-.81446h3.43164v2.65137a3.82285,3.82285,0,0,1-2.88281,1.26465,3.80088,3.80088,0,0,1,0-7.60156Z"/><path class="cls-2" d="M312.21048,91.02748a2.29811,2.29811,0,0,1-1.76074.73731,1.7687,1.7687,0,0,1-1.8584-1.75977,1.7404,1.7404,0,0,1,1.8584-1.75,2.22453,2.22453,0,0,1,1.76074.72656v-.957c0-.71484-.57227-1.12207-1.34277-1.12207a2.1077,2.1077,0,0,0-1.62793.73731l-.38477-.57227a2.77887,2.77887,0,0,1,2.12305-.87988c1.12207,0,2.05664.50586,2.05664,1.793v3.65234h-.82422Zm0-1.51758a1.77966,1.77966,0,0,0-1.46289-.66015,1.16922,1.16922,0,1,0,0,2.32129,1.77964,1.77964,0,0,0,1.46289-.66016Z"/><path class="cls-2" d="M314.73978,90.52162V87.04506h-.88086v-.72558h.88086V84.86733h.82422v1.45215h1.07812v.72558H315.564v3.30078c0,.39551.17578.68164.53906.68164a.79668.79668,0,0,0,.56152-.21972l.24121.61621a1.34648,1.34648,0,0,1-.98926.34082A1.08681,1.08681,0,0,1,314.73978,90.52162Z"/><path class="cls-2" d="M320.00833,86.18764a2.58051,2.58051,0,0,1,2.55274,2.84863v.209h-4.30176a1.8722,1.8722,0,0,0,1.91406,1.83789,2.32584,2.32584,0,0,0,1.63965-.6709l.39551.53906a2.88556,2.88556,0,0,1-2.11133.81348,2.79193,2.79193,0,0,1-.08887-5.57715Zm-1.749,2.45312h3.4873a1.72243,1.72243,0,0,0-1.749-1.77148A1.773,1.773,0,0,0,318.25931,88.64076Z"/><path class="cls-2" d="M326.99368,87.3644,325.607,91.63295h-.82421l-1.69532-5.31347h.85938l1.29687,4.23535,1.39844-4.23535h.70313l1.39746,4.23535,1.29785-4.23535h.85937l-1.69531,5.31347h-.82422Z"/><path class="cls-2" d="M335.0679,91.02748a2.29811,2.29811,0,0,1-1.76074.73731,1.7687,1.7687,0,0,1-1.8584-1.75977,1.7404,1.7404,0,0,1,1.8584-1.75,2.22451,2.22451,0,0,1,1.76074.72656v-.957c0-.71484-.57226-1.12207-1.34277-1.12207a2.10771,2.10771,0,0,0-1.62793.73731l-.38477-.57227a2.77887,2.77887,0,0,1,2.12305-.87988c1.12207,0,2.05664.50586,2.05664,1.793v3.65234h-.82422Zm0-1.51758a1.77965,1.77965,0,0,0-1.46289-.66015,1.16922,1.16922,0,1,0,0,2.32129,1.77963,1.77963,0,0,0,1.46289-.66016Z"/><path class="cls-2" d="M337.71829,93.0519a.76326.76326,0,0,0,.791-.56055l.35254-.80371-2.22168-5.36816h.89062l1.77149,4.35644,1.75976-4.35644h.90235l-2.66211,6.3916a1.5794,1.5794,0,0,1-1.5625,1.07812,2.68908,2.68908,0,0,1-.60547-.07715l.13281-.748A1.27007,1.27007,0,0,0,337.71829,93.0519Z"/><rect class="cls-7" x="309.7234" y="44.69345" width="22.88" height="20.0231"/><path class="cls-7" d="M329.73133,44.69345V38.97469a8.56794,8.56794,0,1,0-17.13586,0v5.71876"/><rect class="cls-5" x="516.94302" y="122.53811" width="41.67539" height="41.67539" rx="8.44757"/><g id="Group_13232-2" data-name="Group 13232-2"><path id="Path_61042" data-name="Path 61042" class="cls-9" d="M530.93845,144.94351a3.43252,3.43252,0,0,1-2.72914,1.16337,2.64316,2.64316,0,1,1,0-5.27944,3.43252,3.43252,0,0,1,2.72914,1.16337v-1.78933a2.00255,2.00255,0,0,0-2.23559-1.96818,3.08855,3.08855,0,0,0-2.55029,1.25279l-.313-.313a3.43164,3.43164,0,0,1,2.90627-1.34308c1.56577,0,2.72914.80568,2.72914,2.37145V145.928h-.49183v-.98452Zm0-2.46087a3.20289,3.20289,0,0,0-2.595-1.20378,2.215,2.215,0,0,0-2.366,2.05286q-.005.06977-.00548.13974a2.18916,2.18916,0,0,0,2.17809,2.20017q.0968.0005.19335-.00758a3.14358,3.14358,0,0,0,2.595-1.21323Z"/><path id="Path_61043" data-name="Path 61043" class="cls-9" d="M534.11471,148.922v-10.92h.49183v1.34221a3.5331,3.5331,0,0,1,2.86155-1.51418c2.14961,0,3.53482,1.6552,3.53482,4.11607,0,2.50558-1.38693,4.16078-3.53482,4.16078a3.54684,3.54684,0,0,1-2.86327-1.56578v4.3852Zm3.35338-10.64485a3.45654,3.45654,0,0,0-2.86327,1.56577v4.2502a3.42991,3.42991,0,0,0,2.86327,1.61049c1.92347,0,2.99741-1.6552,2.99741-3.71366C540.46808,139.88849,539.39414,138.27715,537.46809,138.27715Z"/><path id="Path_61044" data-name="Path 61044" class="cls-9" d="M543.24193,148.922v-10.92h.49183v1.34221a3.53313,3.53313,0,0,1,2.86156-1.51418c2.14961,0,3.53481,1.6552,3.53481,4.11607,0,2.50558-1.38692,4.16078-3.53481,4.16078a3.54686,3.54686,0,0,1-2.86328-1.56578v4.3852Zm3.35339-10.64485a3.45656,3.45656,0,0,0-2.86328,1.56577v4.2502a3.42994,3.42994,0,0,0,2.86328,1.61049c1.92347,0,2.99741-1.6552,2.99741-3.71366C549.59531,139.88849,548.52137,138.27715,546.59532,138.27715Z"/></g><path class="cls-5" d="M525.21763,122.53811v-1.22644a7.06889,7.06889,0,0,1,7.04817-7.04817h27.579a7.06889,7.06889,0,0,1,7.04817,7.04817v27.579a7.0689,7.0689,0,0,1-7.04817,7.04817h-1.22643"/><path class="cls-2" d="M518.38528,179.172h-3.71875l-.64941,1.62793H513.0054l2.94824-7.33789h1.13282l2.96,7.33789h-1.0127Zm-3.45507-.81445h3.17968l-1.584-4.082Z"/><path class="cls-2" d="M520.85892,182.82436v-7.33789h.82519v.792a2.22008,2.22008,0,0,1,1.793-.92383c1.39746,0,2.36621,1.05567,2.36621,2.7832,0,1.71582-.96875,2.79395-2.36621,2.79395a2.17753,2.17753,0,0,1-1.793-.93457v2.82715Zm2.40918-6.7334a1.96609,1.96609,0,0,0-1.584.84766v2.39843a1.97439,1.97439,0,0,0,1.584.85743c1.06738,0,1.70605-.87989,1.70605-2.05665C524.97415,176.9601,524.33548,176.091,523.2681,176.091Z"/><path class="cls-2" d="M527.063,182.82436v-7.33789h.82519v.792a2.2201,2.2201,0,0,1,1.793-.92383c1.39746,0,2.36524,1.05567,2.36524,2.7832,0,1.71582-.96778,2.79395-2.36524,2.79395a2.17623,2.17623,0,0,1-1.793-.93457v2.82715Zm2.40918-6.7334a1.96464,1.96464,0,0,0-1.584.84766v2.39843a1.97293,1.97293,0,0,0,1.584.85743c1.06738,0,1.70508-.87989,1.70508-2.05665C531.17728,176.9601,530.53958,176.091,529.4722,176.091Z"/><path class="cls-2" d="M533.26712,173.46205h.8252v7.33789h-.8252Z"/><path class="cls-2" d="M535.4888,174.03432a.55569.55569,0,0,1,1.11133,0,.55569.55569,0,1,1-1.11133,0Zm.14356,1.45215h.82519v5.31347h-.82519Z"/><path class="cls-2" d="M540.34036,175.35463a2.273,2.273,0,0,1,1.94727.92383l-.54981.50586a1.57545,1.57545,0,0,0-1.35351-.69336,2.06432,2.06432,0,0,0,0,4.10352,1.60286,1.60286,0,0,0,1.35351-.69239l.54981.50586a2.273,2.273,0,0,1-1.94727.92383,2.79213,2.79213,0,0,1,0-5.57715Z"/><path class="cls-2" d="M546.65384,180.19448a2.296,2.296,0,0,1-1.75977.7373,1.769,1.769,0,0,1-1.85937-1.75977,1.74067,1.74067,0,0,1,1.85937-1.75,2.22108,2.22108,0,0,1,1.75977.72657v-.957c0-.71485-.57129-1.12207-1.3418-1.12207a2.10772,2.10772,0,0,0-1.62793.7373l-.38574-.57227a2.781,2.781,0,0,1,2.124-.87988c1.12207,0,2.05664.50586,2.05664,1.793v3.65234h-.82519Zm0-1.51758a1.77706,1.77706,0,0,0-1.46289-.66016,1.16911,1.16911,0,1,0,0,2.32129,1.77706,1.77706,0,0,0,1.46289-.66016Z"/><path class="cls-2" d="M549.18411,179.68862v-3.47657h-.88086v-.72558h.88086v-1.45215h.8252v1.45215h1.07812v.72558h-1.07812v3.30078c0,.39551.17578.68165.53906.68165a.796.796,0,0,0,.56055-.21973l.24219.61621a1.34742,1.34742,0,0,1-.99024.34082A1.08682,1.08682,0,0,1,549.18411,179.68862Z"/><path class="cls-2" d="M551.99954,174.03432a.55569.55569,0,0,1,1.11133,0,.55569.55569,0,1,1-1.11133,0Zm.14356,1.45215h.82519v5.31347h-.82519Z"/><path class="cls-2" d="M554.19974,178.13783a2.63424,2.63424,0,1,1,2.6289,2.79395A2.60656,2.60656,0,0,1,554.19974,178.13783Zm4.38965,0a1.78664,1.78664,0,1,0-1.76075,2.05665A1.84757,1.84757,0,0,0,558.58939,178.13783Z"/><path class="cls-2" d="M564.27591,177.32338c0-.93555-.47266-1.23242-1.1875-1.23242a2.05147,2.05147,0,0,0-1.57324.82519v3.88379H560.69v-5.31347h.8252v.76953a2.63613,2.63613,0,0,1,1.8916-.90137,1.50988,1.50988,0,0,1,1.69434,1.71582v3.72949h-.8252Z"/><path class="cls-2" d="M566.60794,179.50209a2.41,2.41,0,0,0,1.749.75879c.81446,0,1.25391-.36328,1.25391-.87988,0-.583-.64844-.77051-1.36426-.94629-.90136-.209-1.9248-.45117-1.9248-1.55176,0-.82422.71484-1.52832,1.98047-1.52832a2.68778,2.68778,0,0,1,1.96875.76953l-.38477.57227a2.07155,2.07155,0,0,0-1.584-.6709c-.72657,0-1.17774.33008-1.17774.80273,0,.51758.60547.68262,1.29883.84766.92383.209,1.99121.47266,1.99121,1.64941,0,.89161-.71484,1.60645-2.09082,1.60645a2.82388,2.82388,0,0,1-2.14453-.83594Z"/><path class="cls-2" d="M462.981,170.87123h.91308v7.33789H462.981Z"/><path class="cls-2" d="M469.05423,174.73256c0-.93555-.47363-1.23242-1.18848-1.23242a2.0531,2.0531,0,0,0-1.57324.82519v3.88379h-.82519v-5.31347h.82519v.76953a2.63655,2.63655,0,0,1,1.89258-.90137,1.50919,1.50919,0,0,1,1.69336,1.71582v3.72949h-.82422Z"/><path class="cls-2" d="M471.58353,177.0978v-3.47657h-.88086v-.72558h.88086V171.4435h.82422v1.45215h1.07812v.72558h-1.07812V176.922c0,.39551.17578.68164.53906.68164a.79668.79668,0,0,0,.56152-.21972l.24121.61621a1.34648,1.34648,0,0,1-.98926.34082A1.08681,1.08681,0,0,1,471.58353,177.0978Z"/><path class="cls-2" d="M476.85208,172.76381a2.58051,2.58051,0,0,1,2.55274,2.84863v.209h-4.30176a1.8722,1.8722,0,0,0,1.91406,1.83789,2.32584,2.32584,0,0,0,1.63965-.6709l.39551.53906a2.88552,2.88552,0,0,1-2.11133.81348,2.79193,2.79193,0,0,1-.08887-5.57715Zm-1.749,2.45313h3.4873a1.72243,1.72243,0,0,0-1.749-1.77149A1.773,1.773,0,0,0,475.10306,175.21694Z"/><path class="cls-2" d="M480.62454,172.89565h.82617v.85742a2.2571,2.2571,0,0,1,1.77051-.96777v.84668a1.48681,1.48681,0,0,0-.33008-.03223,1.94189,1.94189,0,0,0-1.44043.84668v3.76269h-.82617Z"/><path class="cls-2" d="M487.732,174.73256c0-.93555-.47363-1.23242-1.18847-1.23242a2.05307,2.05307,0,0,0-1.57324.82519v3.88379h-.8252v-5.31347h.8252v.76953a2.63655,2.63655,0,0,1,1.89257-.90137,1.50919,1.50919,0,0,1,1.69336,1.71582v3.72949H487.732Z"/><path class="cls-2" d="M492.40579,172.76381a2.58051,2.58051,0,0,1,2.55274,2.84863v.209h-4.30176a1.87221,1.87221,0,0,0,1.91406,1.83789,2.32413,2.32413,0,0,0,1.63965-.6709l.39648.53906a2.89329,2.89329,0,0,1-2.11328.81348,2.79194,2.79194,0,0,1-.08789-5.57715Zm-1.749,2.45313h3.4873a1.72243,1.72243,0,0,0-1.749-1.77149A1.77234,1.77234,0,0,0,490.65677,175.21694Z"/><path class="cls-2" d="M496.34329,177.0978v-3.47657h-.87988v-.72558h.87988V171.4435h.82617v1.45215h1.07813v.72558h-1.07813V176.922c0,.39551.17579.68164.53907.68164a.796.796,0,0,0,.56054-.21972l.24219.61621a1.3474,1.3474,0,0,1-.99023.34082A1.0875,1.0875,0,0,1,496.34329,177.0978Z"/><path class="cls-7" d="M474.35313,145.32982c0-.04889.00165-.09641.00176-.14524h-7.50144c-.0001.03138-.00126.06235-.00126.09376a28.004,28.004,0,0,0,1.35519,8.72026,45.11421,45.11421,0,0,1,6.60337-1.06391A61.33392,61.33392,0,0,1,474.35313,145.32982Z"/><path class="cls-7" d="M474.81075,152.93469a45.11421,45.11421,0,0,0-6.60337,1.06391c1.56916,4.77123,4.38357,8.48009,7.81991,10.19859.15493.03511.3089.07272.4652.10413a19.70031,19.70031,0,0,0,2.49684.332C477.09464,163.17687,475.544,158.76017,474.81075,152.93469Z"/><path class="cls-7" d="M485.85546,137.43419a60.78293,60.78293,0,0,1,.49751,7.75039h7.50022a27.91753,27.91753,0,0,0-1.41275-8.799A45.57009,45.57009,0,0,1,485.85546,137.43419Z"/><path class="cls-7" d="M485.89563,152.9344q-.86511-.07874-1.7611-.134c-1.22376-.074-2.48634-.11487-3.78064-.11487-1.92775,0-3.78607.08845-5.54314.24917.73327,5.82548,2.28389,10.24218,4.17858,11.6986.45125.03175.90518.05375,1.36456.05375.45418,0,.90268-.02212,1.34824-.0549l.01726-.01174C483.61261,163.16228,485.162,158.75122,485.89563,152.9344Z"/><path class="cls-7" d="M481.71939,164.6204l-.01726.01174a20.01822,20.01822,0,0,0,2.96093-.44532c3.44261-1.71472,6.2643-5.41948,7.83644-10.193a45.32106,45.32106,0,0,0-6.60387-1.05942C485.162,158.75122,483.61261,163.16228,481.71939,164.6204Z"/><path class="cls-7" d="M486.35464,145.32982a61.19177,61.19177,0,0,1-.459,7.60458,45.32106,45.32106,0,0,1,6.60387,1.05942,27.95034,27.95034,0,0,0,1.35609-8.71548c0-.03154-.00231-.06224-.0024-.09376H486.353C486.35309,145.23336,486.35464,145.281,486.35464,145.32982Z"/><path class="cls-7" d="M474.85461,137.44062a45.51113,45.51113,0,0,1-6.58345-1.04818,27.7943,27.7943,0,0,0-1.41771,8.79214h7.50144A60.42574,60.42574,0,0,1,474.85461,137.44062Z"/><path class="cls-7" d="M480.35389,137.68363c-1.3224,0-2.61288-.0415-3.8614-.11869q-.83229-.05143-1.63788-.12432a60.42574,60.42574,0,0,0-.49972,7.744H486.353a60.78293,60.78293,0,0,0-.49751-7.75039c-.3511.03173-.70473.06162-1.06373.08737C483.364,137.624,481.883,137.68363,480.35389,137.68363Z"/><path class="cls-7" d="M474.35313,145.32982a61.33392,61.33392,0,0,0,.45762,7.60487c1.75707-.16072,3.61539-.24917,5.54314-.24917,1.2943,0,2.55688.04086,3.78064.11487q.89643.05423,1.7611.134a61.19177,61.19177,0,0,0,.459-7.60458c0-.04887-.00155-.09646-.00167-.14524H474.35489C474.35478,145.23341,474.35313,145.28093,474.35313,145.32982Z"/><path class="cls-7" d="M485.32892,134.24109l.0046-.00581-.0046.00581c.20478,1.001.37907,2.07331.52654,3.1931a45.57009,45.57009,0,0,0,6.585-1.04862,23.67348,23.67348,0,0,0-.89275-2.27722c-1.78825-3.91314-4.49237-6.82731-7.65487-8.09463a19.68667,19.68667,0,0,0-2.70284-.31036,2.6969,2.6969,0,0,1,.32719.18C483.09862,126.91046,484.45784,129.98344,485.32892,134.24109Z"/><path class="cls-7" d="M475.46708,133.85121c-.24049,1.11551-.44452,2.32065-.61247,3.58941q.80513.07266,1.63788.12432c1.24852.07719,2.539.11869,3.8614.11869,1.52912,0,3.01008-.05967,4.43784-.16207.359-.02575.71263-.05564,1.06373-.08737-.14747-1.11979-.32176-2.19214-.52654-3.1931-.87108-4.25765-2.2303-7.33063-3.81175-8.35773a2.6969,2.6969,0,0,0-.32719-.18c-.27739-.01222-.55563-.02124-.83609-.02124-.28463,0-.56573.01406-.84734.02617C477.84253,126.48889,476.39969,129.52539,475.46708,133.85121Z"/><path class="cls-7" d="M475.46708,133.85121c.93261-4.32582,2.37545-7.36232,4.03947-8.14292a19.49929,19.49929,0,0,0-2.67036.29376c-3.05875,1.22318-5.68673,3.99453-7.47764,7.71358a23.61425,23.61425,0,0,0-1.08739,2.67681,45.51113,45.51113,0,0,0,6.58345,1.04818C475.02256,136.17186,475.22659,134.96672,475.46708,133.85121Z"/><path class="cls-7" d="M476.02729,164.19719c-3.43634-1.7185-6.25075-5.42736-7.81991-10.19859a24.03386,24.03386,0,0,0-3.73564,1.21343c-.22973.09924-.44738.20128-.65782.30482A19.52657,19.52657,0,0,0,476.02729,164.19719Z"/><path class="cls-7" d="M493.85319,145.18458c.00009.03152.0024.06222.0024.09376a27.95034,27.95034,0,0,1-1.35609,8.71548,23.16258,23.16258,0,0,1,4.0232,1.33622l.01494-.00177-.01494.00177q.19122.087.37239.17628a19.36629,19.36629,0,0,0,2.96126-10.32174Z"/><path class="cls-7" d="M492.4995,153.99382c-1.57214,4.77352-4.39383,8.47828-7.83644,10.193.0426-.00966.08616-.0166.12867-.02651a19.54685,19.54685,0,0,0,12.10336-8.654q-.18147-.08917-.37239-.17628A23.16258,23.16258,0,0,0,492.4995,153.99382Z"/><path class="cls-7" d="M484.13453,126.05547c-.07993-.0157-.16143-.027-.24171-.04175,3.1625,1.26732,5.86662,4.18149,7.65487,8.09463l.01035-.00584-.01035.00584a23.67348,23.67348,0,0,1,.89275,2.27722,22.1744,22.1744,0,0,0,4.45913-1.52891q-.18352-.29339-.37687-.57986A19.51083,19.51083,0,0,0,484.13453,126.05547Z"/><path class="cls-7" d="M493.85319,145.18458h6.00316a19.40972,19.40972,0,0,0-2.95678-10.32792,22.1744,22.1744,0,0,1-4.45913,1.52891A27.91753,27.91753,0,0,1,493.85319,145.18458Z"/><path class="cls-7" d="M468.27116,136.39244a22.18362,22.18362,0,0,1-4.44677-1.52509,19.3578,19.3578,0,0,0-2.973,10.31723h6.002A27.7943,27.7943,0,0,1,468.27116,136.39244Z"/><path class="cls-7" d="M468.20738,153.9986a28.004,28.004,0,0,1-1.35519-8.72026c0-.03141.00116-.06238.00126-.09376h-6.002a19.40122,19.40122,0,0,0,2.96249,10.33227c.21044-.10354.42809-.20558.65782-.30482A24.03386,24.03386,0,0,1,468.20738,153.9986Z"/><path class="cls-7" d="M469.35855,133.71563c1.79091-3.71905,4.41889-6.4904,7.47764-7.71358a19.5094,19.5094,0,0,0-12.36445,7.89123c-.226.31725-.44.64331-.64735.97407a22.18362,22.18362,0,0,0,4.44677,1.52509A23.61425,23.61425,0,0,1,469.35855,133.71563Z"/><polyline class="cls-7" points="380.785 41.044 378.056 35.821 372.925 46.106 370.144 40.688 366.9 40.688"/><polyline class="cls-7" points="388.417 45.325 385.783 50.605 382.107 43.573"/><polyline class="cls-7" points="399.189 40.742 390.703 40.742 389.715 42.723"/><polyline class="cls-7" points="399.27 56.482 399.27 29.277 366.77 29.277 366.77 33.876 399.072 33.876"/><line class="cls-7" x1="390.26168" y1="56.86669" x2="399.25781" y2="56.86669"/><polyline class="cls-7" points="366.77 36.187 366.77 56.867 374.007 56.867"/><path class="cls-7" d="M389.33251,57.62805,390.91363,59.74a1.38253,1.38253,0,0,1,1.9619.28847l3.85475,5.03257a1.38026,1.38026,0,0,1-.29127,1.943h0a1.4114,1.4114,0,0,1-1.96189-.28846L390.62236,61.683"/><path class="cls-7" d="M374.27286,48.64348a9.46513,9.46513,0,1,1,7.97385,10.65084A9.45346,9.45346,0,0,1,374.27286,48.64348Zm8.371,8.00112a6.69859,6.69859,0,1,0-5.6956-7.60774A6.75245,6.75245,0,0,0,382.6439,56.6446Z"/><g id="firewall-with-shield-and-checkmark"><g class="cls-10"><line class="cls-11" x1="122.13333" y1="32.98936" x2="155.57483" y2="32.97786"/><line class="cls-11" x1="122.15433" y1="39.98936" x2="155.57483" y2="39.98936"/><line class="cls-11" x1="134.49613" y1="46.98986" x2="155.57463" y2="46.98986"/><line class="cls-11" x1="134.08988" y1="53.99036" x2="155.57488" y2="53.99036"/><line class="cls-11" x1="131.90333" y1="32.98936" x2="131.90333" y2="39.78937"/><line class="cls-11" x1="145.82768" y1="32.98936" x2="145.82768" y2="39.78937"/><line class="cls-11" x1="145.82768" y1="46.98986" x2="145.82768" y2="53.99036"/><line class="cls-11" x1="152.79008" y1="39.98936" x2="152.79008" y2="46.98986"/><line class="cls-11" x1="124.94093" y1="39.98936" x2="124.94093" y2="42.16186"/><line class="cls-11" x1="138.86478" y1="39.98936" x2="138.86478" y2="46.98986"/><line class="cls-11" x1="131.18898" y1="60.99036" x2="155.57448" y2="60.99036"/><line class="cls-11" x1="152.79008" y1="54.19056" x2="152.79008" y2="60.99056"/><line class="cls-11" x1="138.86478" y1="54.19056" x2="138.86478" y2="60.99056"/><g class="cls-10"><path class="cls-11" d="M130.52638,44.80871q-.58275.0285-1.162.05l-.0015-.00449-2.778-2.148a2.34532,2.34532,0,0,0-2.949-.045l-2.992,2.1975c-.3855-.0145-.7735-.031-1.1615-.05-2.1955-.11-3.9075-.737-3.9075,2.2915,0,3.029.407,7.94.407,7.94s-.2445,3.683,3.989,6.7935c3.641,2.6755,5.0195,3.644,5.0195,3.644s1.4065-.9685,5.0475-3.644c4.233-3.1105,3.989-6.7935,3.989-6.7935s.407-4.911.407-7.94c0-3.0285-1.712-2.4015-3.9075-2.2915"/><path class="cls-12" d="M127.15383,47.53476a5.84725,5.84725,0,1,0,1.5615.9405h.001l-4.583,6.9775-2.467-3.295"/></g></g></g></svg>