<svg id="Layer_1" data-name="Layer 1" xmlns="http://www.w3.org/2000/svg" viewBox="0 0 356.82754 84.81899"><defs><style>.cls-1{fill:#343434;}.cls-2,.cls-4,.cls-6{fill:none;}.cls-2{stroke:#e41e2d;}.cls-2,.cls-6{stroke-miterlimit:10;}.cls-3{fill:#e41e2d;}.cls-4,.cls-6{stroke:#010101;}.cls-4{stroke-linecap:round;stroke-linejoin:round;}.cls-5{fill:#010101;}</style></defs><path class="cls-1" d="M213.84369,25.30751a2.04443,2.04443,0,0,1,1.56933.63769l-.60253.68555a1.27153,1.27153,0,0,0-1.02247-.45508,1.48165,1.48165,0,0,0-1.30957,1.16309.589.589,0,0,0-.06347.19629,1.72688,1.72688,0,0,1,1.21191-.498,1.32377,1.32377,0,0,1,1.47754,1.28223,1.88259,1.88259,0,0,1-1.93262,1.81347,1.66865,1.66865,0,0,1-1.835-1.80664C211.33685,26.81337,212.23334,25.30751,213.84369,25.30751Zm-.67188,2.51465a1.24159,1.24159,0,0,0-.84765.3496,1.48113,1.48113,0,0,0-.01367.252.809.809,0,0,0,.86816.84082.83986.83986,0,0,0,.88281-.8125C214.06146,28.06727,213.67572,27.82216,213.17181,27.82216Z"/><path class="cls-1" d="M216.28314,28.62a1.42232,1.42232,0,0,0,1.26074.64453.81115.81115,0,0,0,.88965-.77051c0-.39941-.35742-.64453-.88281-.64453a1.30392,1.30392,0,0,0-.85449.29492l-.64453-.25976.55371-2.50684h3.207l-.18848.85449h-2.23437l-.24512,1.12012a1.47691,1.47691,0,0,1,.94531-.29395,1.28223,1.28223,0,0,1,1.38672,1.31641,1.81065,1.81065,0,0,1-1.93945,1.75781,2.20768,2.20768,0,0,1-1.94727-.89648Z"/><path class="cls-1" d="M222.69135,25.30751a2.0407,2.0407,0,0,1,1.56835.63769l-.60156.68555a1.27286,1.27286,0,0,0-1.02246-.45508,1.4838,1.4838,0,0,0-1.31055,1.16309.58584.58584,0,0,0-.0625.19629,1.725,1.725,0,0,1,1.21192-.498,1.32429,1.32429,0,0,1,1.47754,1.28223,1.88286,1.88286,0,0,1-1.9336,1.81347,1.66865,1.66865,0,0,1-1.835-1.80664C220.18353,26.81337,221.08,25.30751,222.69135,25.30751Zm-.67286,2.51465a1.23738,1.23738,0,0,0-.84668.3496,1.38429,1.38429,0,0,0-.01464.252.80932.80932,0,0,0,.86914.84082.839.839,0,0,0,.88183-.8125C222.90814,28.06727,222.52338,27.82216,222.01849,27.82216Z"/><path class="cls-1" d="M227.05072,30.04872h-.88965l1.03028-4.6709H228.08l-.37793,1.709a1.28721,1.28721,0,0,1,1.02246-.50488,1.24939,1.24939,0,0,1,1.28222,1.40137,1.98621,1.98621,0,0,1-1.77929,2.14941,1.257,1.257,0,0,1-1.07813-.53222Zm1.27441-2.67481a1.02428,1.02428,0,0,0-.77734.40625l-.25879,1.17578a.9302.9302,0,0,0,.791.38575,1.08756,1.08756,0,0,0,.99511-1.17676A.73591.73591,0,0,0,228.32513,27.37391Z"/><path class="cls-1" d="M230.60638,30.62294a.45542.45542,0,0,0,.41993-.23731l.21093-.31543-.60254-3.40429h.92481l.35644,2.35351,1.415-2.35351h.98047l-2.46484,3.93652a1.41159,1.41159,0,0,1-1.31055.81933,1.82406,1.82406,0,0,1-.5664-.084l.29394-.77051A.94523.94523,0,0,0,230.60638,30.62294Z"/><path class="cls-1" d="M234.72064,29.16688l.37793-1.73047H234.539l.17481-.7705h.56054l.20313-.92383h.89648l-.20312.92383h.68652l-.18262.7705h-.68652l-.32227,1.47071a.98.98,0,0,0-.01367.14062c0,.18164.10547.29395.3291.29395a.46221.46221,0,0,0,.24512-.07032l.03516.71485a1.04039,1.04039,0,0,1-.56055.14648c-.60254,0-1.00879-.23047-1.00879-.73535A1.10528,1.10528,0,0,1,234.72064,29.16688Z"/><path class="cls-1" d="M239.00482,26.58192a1.43866,1.43866,0,0,1,1.51953,1.5127,2.2063,2.2063,0,0,1-.07031.54687h-2.51465v.084a.83127.83127,0,0,0,.92481.70019,1.51588,1.51588,0,0,0,.85449-.252l.28027.60937a2.204,2.204,0,0,1-1.19726.34961c-1.06543,0-1.751-.57422-1.751-1.51953A1.9765,1.9765,0,0,1,239.00482,26.58192Zm.7207,1.38672a.69106.69106,0,0,0-.77734-.67871.965.965,0,0,0-.917.749h1.69433Z"/><path class="cls-1" d="M243.46967,26.66591h.88964l-.10546.44824a1.54155,1.54155,0,0,1,1.19824-.52539l-.18946.88281a1.40288,1.40288,0,0,0-.3291-.042,1.19165,1.19165,0,0,0-.84082.40625l-.48242,2.21289h-.88965Z"/><path class="cls-1" d="M247.52435,26.58192a1.43866,1.43866,0,0,1,1.51953,1.5127,2.2063,2.2063,0,0,1-.07031.54687h-2.51465v.084a.83127.83127,0,0,0,.92481.70019,1.51588,1.51588,0,0,0,.85449-.252l.28027.60937a2.204,2.204,0,0,1-1.19726.34961c-1.06543,0-1.751-.57422-1.751-1.51953A1.9765,1.9765,0,0,1,247.52435,26.58192Zm.72071,1.38672a.69107.69107,0,0,0-.77735-.67871.965.965,0,0,0-.917.749h1.69434Z"/><path class="cls-1" d="M249.83783,28.93544a1.73482,1.73482,0,0,0,1.19043.51855c.30176,0,.49023-.16113.49023-.35742,0-.20313-.28711-.30859-.623-.41992-.4834-.16114-1.09278-.37891-1.09278-.95313a1.23273,1.23273,0,0,1,1.39453-1.1416,1.99418,1.99418,0,0,1,1.42872.55371l-.44141.56055a1.40879,1.40879,0,0,0-1.00195-.43457c-.31446,0-.49024.14648-.49024.3291,0,.16113.25195.26563.58106.37793.498.1543,1.13476.37109,1.13476.98047,0,.64453-.53906,1.18359-1.46387,1.18359a2.20858,2.20858,0,0,1-1.59667-.60937Z"/><path class="cls-1" d="M253.60052,31.33778h-.88964l1.03711-4.67187h.88964l-.09863.42089a1.28721,1.28721,0,0,1,1.02246-.50488,1.24939,1.24939,0,0,1,1.28223,1.40137,1.98622,1.98622,0,0,1-1.7793,2.14941,1.257,1.257,0,0,1-1.07812-.53222Zm1.56153-3.96387a1.02432,1.02432,0,0,0-.77735.40625l-.25878,1.17578a.93019.93019,0,0,0,.791.38575,1.08756,1.08756,0,0,0,.99512-1.17676A.73592.73592,0,0,0,255.16205,27.37391Z"/><path class="cls-1" d="M259.38373,26.58192a1.51195,1.51195,0,0,1,1.68164,1.541,1.98094,1.98094,0,0,1-1.96192,2.00976,1.50082,1.50082,0,0,1-1.67382-1.5332A1.98184,1.98184,0,0,1,259.38373,26.58192Zm-.02735.792a1.10087,1.10087,0,0,0-1.00878,1.17578.72868.72868,0,0,0,.791.792,1.09643,1.09643,0,0,0,1.00195-1.17676A.72649.72649,0,0,0,259.35638,27.37391Z"/><path class="cls-1" d="M264.24213,28.03212a1.18559,1.18559,0,0,0,.03515-.22461c0-.31446-.252-.4336-.51855-.4336a1.26166,1.26166,0,0,0-.85449.3916l-.50391,2.28321h-.88965l.749-3.38281h.88965l-.09765.4414a1.60769,1.60769,0,0,1,1.127-.52539c.65137,0,1.05762.34375,1.05762.86817a1.98011,1.98011,0,0,1-.03516.27343l-.51758,2.3252h-.88965Z"/><path class="cls-1" d="M266.10541,28.93544a1.73482,1.73482,0,0,0,1.19043.51855c.30176,0,.49023-.16113.49023-.35742,0-.20313-.28711-.30859-.623-.41992-.48339-.16114-1.09277-.37891-1.09277-.95313a1.23273,1.23273,0,0,1,1.39453-1.1416,1.99415,1.99415,0,0,1,1.42871.55371l-.4414.56055a1.4088,1.4088,0,0,0-1.002-.43457c-.31445,0-.49023.14648-.49023.3291,0,.16113.252.26563.58105.37793.498.1543,1.13477.37109,1.13477.98047,0,.64453-.53906,1.18359-1.46387,1.18359a2.20862,2.20862,0,0,1-1.59668-.60937Z"/><path class="cls-1" d="M271.32709,26.58192a1.43866,1.43866,0,0,1,1.51953,1.5127,2.25978,2.25978,0,0,1-.06934.54687h-2.51465v.084a.83058.83058,0,0,0,.92481.70019,1.5182,1.5182,0,0,0,.85449-.252l.2793.60937a2.20406,2.20406,0,0,1-1.19727.34961c-1.06445,0-1.751-.57422-1.751-1.51953A1.9765,1.9765,0,0,1,271.32709,26.58192Zm.72168,1.38672a.69107.69107,0,0,0-.77735-.67871.96615.96615,0,0,0-.918.749h1.69532Z"/><line class="cls-2" x1="197.36522" y1="34.89425" x2="286.48705" y2="34.89425"/><polygon class="cls-3" points="283.174 38.984 282.491 38.252 286.103 34.895 282.491 31.538 283.174 30.805 287.572 34.895 283.174 38.984"/><line class="cls-4" x1="336.99942" y1="41.35596" x2="336.99942" y2="45.76772"/><line class="cls-4" x1="332.55299" y1="41.35596" x2="332.55299" y2="45.76772"/><line class="cls-4" x1="328.10657" y1="41.35596" x2="328.10657" y2="45.76772"/><line class="cls-4" x1="336.99942" y1="32.53243" x2="336.99942" y2="36.94419"/><line class="cls-4" x1="332.55299" y1="32.53243" x2="332.55299" y2="36.94419"/><line class="cls-4" x1="328.10657" y1="32.53243" x2="328.10657" y2="36.94419"/><line class="cls-4" x1="336.99942" y1="23.7089" x2="336.99942" y2="28.12066"/><line class="cls-4" x1="332.55299" y1="23.7089" x2="332.55299" y2="28.12066"/><line class="cls-4" x1="328.10657" y1="23.7089" x2="328.10657" y2="28.12066"/><path class="cls-5" d="M303.65123,25.17948a.73531.73531,0,1,1-.74109.73529.7382.7382,0,0,1,.74109-.73529m0-1a1.7353,1.7353,0,1,0,1.74109,1.73529,1.74014,1.74014,0,0,0-1.74109-1.73529Z"/><path class="cls-5" d="M303.65123,34.003a.73533.73533,0,1,1-.74109.73532.73821.73821,0,0,1,.74109-.73532m0-1a1.73531,1.73531,0,1,0,1.74109,1.73532,1.74016,1.74016,0,0,0-1.74109-1.73532Z"/><path class="cls-5" d="M303.65123,42.82655a.73531.73531,0,1,1-.74109.73529.73819.73819,0,0,1,.74109-.73529m0-1a1.7353,1.7353,0,1,0,1.74109,1.73529,1.74014,1.74014,0,0,0-1.74109-1.73529Z"/><path class="cls-6" d="M301.42221,39.88537H339.9304a1.51545,1.51545,0,0,1,1.51545,1.51545V45.762a1.47635,1.47635,0,0,1-1.47635,1.47635H301.42221a1.47635,1.47635,0,0,1-1.47635-1.47635V41.36172A1.47635,1.47635,0,0,1,301.42221,39.88537Z"/><rect class="cls-6" x="299.94585" y="31.06184" width="41.5" height="7.35294" rx="1.47635"/><rect class="cls-6" x="299.94585" y="22.23831" width="41.5" height="7.35294" rx="1.47635"/><path class="cls-5" d="M305.64349,54.25868h1.04493l2.47558,6.33789,2.47461-6.33789h1.0459l-2.96,7.33789h-1.13281Z"/><path class="cls-5" d="M313.57416,54.83094a.55569.55569,0,0,1,1.11133,0,.55569.55569,0,1,1-1.11133,0Zm.14258,1.45313h.82519v5.3125h-.82519Z"/><path class="cls-5" d="M318.64545,56.15126a2.27539,2.27539,0,0,1,1.94726.92383l-.5498.50585a1.57548,1.57548,0,0,0-1.35352-.69335,2.06432,2.06432,0,0,0,0,4.10351,1.60194,1.60194,0,0,0,1.35352-.69141l.5498.50586a2.27539,2.27539,0,0,1-1.94726.92383,2.79263,2.79263,0,0,1,0-5.57812Z"/><path class="cls-5" d="M322.0224,60.48524V57.00868h-.88086v-.72461h.88086V54.83094h.8252v1.45313h1.07812v.72461H322.8476v3.30078c0,.39648.17578.68164.53906.68164a.79551.79551,0,0,0,.56054-.21875l.24219.61524a1.34347,1.34347,0,0,1-.99023.34179A1.08714,1.08714,0,0,1,322.0224,60.48524Z"/><path class="cls-5" d="M325.05756,54.83094a.55568.55568,0,0,1,1.11132,0,.55568.55568,0,1,1-1.11132,0Zm.14355,1.45313h.8252v5.3125h-.8252Z"/><path class="cls-5" d="M334.20013,57.98915c0-.67188-.29785-1.10156-.97949-1.10156a1.8604,1.8604,0,0,0-1.4082.81445v3.89453h-.8252V57.98915c0-.67188-.28613-1.10156-.97949-1.10156a1.85354,1.85354,0,0,0-1.39648.82617v3.88281h-.8252v-5.3125h.8252v.76953a2.29291,2.29291,0,0,1,1.71582-.90234,1.364,1.364,0,0,1,1.43066.99023,2.23488,2.23488,0,0,1,1.78223-.99023c.96777,0,1.48437.53906,1.48437,1.60547v3.83984h-.82422Z"/><path class="cls-5" d="M298.999,65.25868h.91406v7.33789H298.999Z"/><path class="cls-5" d="M301.73822,65.25868h2.94824a2.21359,2.21359,0,1,1,0,4.42383h-2.03515v2.91406h-.91309Zm2.83887.81445h-1.92578v2.79492h1.92578a1.39892,1.39892,0,1,0,0-2.79492Z"/><path class="cls-5" d="M308.71283,67.20594a.60547.60547,0,1,1-.60547.60547A.61024.61024,0,0,1,308.71283,67.20594Zm0,4.291a.60547.60547,0,1,1-.60547.60547A.61023.61023,0,0,1,308.71283,71.497Z"/><path class="cls-5" d="M316.874,70.73719h-3.4873v-.75781l3.14648-4.7207H317.788v4.67578h1.03321v.80273H317.788v1.85938H316.874Zm-2.57422-.80273H316.874V66.10634Z"/><path class="cls-5" d="M320.54779,71.497a.60547.60547,0,1,1-.60449.60547A.61108.61108,0,0,1,320.54779,71.497Z"/><path class="cls-5" d="M323.2099,70.94618a2.413,2.413,0,0,0,2.02441.96875,1.58381,1.58381,0,0,0,1.69434-1.57227,1.54756,1.54756,0,0,0-1.68359-1.58593,2.29846,2.29846,0,0,0-1.69336.69336l-.67188-.23047V65.25868h4.48926v.81445h-3.57617v2.55274a2.4859,2.4859,0,0,1,1.71679-.66016,2.248,2.248,0,0,1,2.332,2.34375,2.40242,2.40242,0,0,1-2.60743,2.41992,2.99426,2.99426,0,0,1-2.585-1.17773Z"/><path class="cls-5" d="M329.788,71.497a.60547.60547,0,1,1-.60546.60547A.61024.61024,0,0,1,329.788,71.497Z"/><path class="cls-5" d="M331.75677,71.87c2.63965-2.07813,4.07032-3.29883,4.07032-4.56446a1.37172,1.37172,0,0,0-1.5293-1.34179,2.451,2.451,0,0,0-1.99121.92383l-.56152-.584a3.18142,3.18142,0,0,1,2.55273-1.1543,2.233,2.233,0,0,1,2.46387,2.15625c0,1.4961-1.51758,2.85938-3.56446,4.47657h3.59766v.81445h-5.03809Z"/><path class="cls-5" d="M339.0058,71.497a.60547.60547,0,1,1-.60547.60547A.61023.61023,0,0,1,339.0058,71.497Z"/><path class="cls-5" d="M341.48041,66.46962l-1.17676,1.24218-.55078-.56054,1.83789-1.89258h.80273v7.33789h-.91308Z"/><path class="cls-1" d="M71.86713,30.12684a2.02215,2.02215,0,0,1-1.55469-.63086l.60351-.69336a1.22422,1.22422,0,0,0,1.01465.45508,1.77255,1.77255,0,0,0,1.37305-1.35156,1.76572,1.76572,0,0,1-1.21191.49023,1.33377,1.33377,0,0,1-1.48438-1.28125,1.89923,1.89923,0,0,1,1.93945-1.81445,1.67012,1.67012,0,0,1,1.83594,1.80762C74.38275,28.621,73.49213,30.12684,71.86713,30.12684Zm.67968-2.51465a1.27037,1.27037,0,0,0,.85547-.35058c.00586-.05567.00586-.18164.00586-.24512a.81722.81722,0,0,0-.86816-.84668.84051.84051,0,0,0-.88965.81153C71.65033,27.36708,72.04974,27.61219,72.54681,27.61219Z"/><path class="cls-1" d="M75.08978,28.57118a1.68986,1.68986,0,0,0,1.38086.69433c.55274,0,.833-.29492.833-.65136,0-.27344-.21-.50489-.85449-.50489-.19531,0-.49024,0-.56055.00684l.19629-.86816c.07715.00683.47656.00683.65137.00683.53222,0,.91015-.16113.91015-.55273,0-.3086-.33593-.53223-.917-.53223a1.84517,1.84517,0,0,0-1.13476.3916l-.35645-.67968a2.45969,2.45969,0,0,1,1.58984-.57422c1.11329,0,1.84766.44824,1.84766,1.21875,0,.63086-.65039,1.0791-1.25977,1.15625a1.01313,1.01313,0,0,1,.86817,1.02246,1.61641,1.61641,0,0,1-1.79981,1.42871,2.3321,2.3321,0,0,1-2.04492-.97363Z"/><path class="cls-1" d="M81.52338,30.04969H80.6347l1.0293-4.67187h.88867l-.377,1.709a1.28722,1.28722,0,0,1,1.02148-.5039,1.24859,1.24859,0,0,1,1.28223,1.40039,1.9865,1.9865,0,0,1-1.77832,2.15039,1.25991,1.25991,0,0,1-1.0791-.53223Zm1.27539-2.67578a1.02112,1.02112,0,0,0-.77735.40625l-.25976,1.17676a.932.932,0,0,0,.791.38477,1.08664,1.08664,0,0,0,.99512-1.17578A.73653.73653,0,0,0,82.79877,27.37391Z"/><path class="cls-1" d="M85.08,30.62391a.45828.45828,0,0,0,.41992-.23828l.21-.31543-.60254-3.40332h.92481l.35644,2.35254,1.416-2.35254h.98047l-2.46583,3.93555a1.41028,1.41028,0,0,1-1.30957.81933,1.81233,1.81233,0,0,1-.56835-.084l.29492-.77051A.94538.94538,0,0,0,85.08,30.62391Z"/><path class="cls-1" d="M89.1933,29.16688l.37793-1.72949h-.55957l.17383-.77051H89.746l.20313-.9248h.89648l-.20312.9248H91.33l-.18262.77051h-.68652l-.32227,1.4707a.96549.96549,0,0,0-.01367.13965c0,.18262.10547.29395.3291.29395a.46529.46529,0,0,0,.24512-.06934l.03515.71387a1.04042,1.04042,0,0,1-.56054.14746c-.60254,0-1.00879-.23145-1.00879-.73535A1.05014,1.05014,0,0,1,89.1933,29.16688Z"/><path class="cls-1" d="M93.4765,26.5829A1.43866,1.43866,0,0,1,94.996,28.09559a2.251,2.251,0,0,1-.06933.5459H92.412v.084a.83057.83057,0,0,0,.9248.70019,1.51821,1.51821,0,0,0,.8545-.252l.27929.60937a2.19423,2.19423,0,0,1-1.19726.35059c-1.06446,0-1.75-.57422-1.75-1.51953A1.97631,1.97631,0,0,1,93.4765,26.5829Zm.72168,1.38672a.69122.69122,0,0,0-.77734-.67969.96408.96408,0,0,0-.917.749h1.69433Z"/><path class="cls-1" d="M100.26752,26.66688h.89648l-1.03711,4.6709h-.89648l.38574-1.709a1.27446,1.27446,0,0,1-1.01563.50488,1.24685,1.24685,0,0,1-1.28808-1.40137A1.97651,1.97651,0,0,1,99.0976,26.5829a1.27482,1.27482,0,0,1,1.0791.53222Zm-1.27539,2.67481a1.00743,1.00743,0,0,0,.77832-.39844l.25879-1.17676a.93213.93213,0,0,0-.791-.39258,1.09143,1.09143,0,0,0-.99414,1.17676A.735.735,0,0,0,98.99213,29.34169Z"/><path class="cls-1" d="M102.62592,28.705a1.02505,1.02505,0,0,0-.02832.20312c0,.30762.25195.4336.56835.4336a1.253,1.253,0,0,0,.80469-.39844l.50391-2.27637h.89062l-.75,3.38281h-.88965l.09864-.4414a1.612,1.612,0,0,1-1.12793.52539c-.65137,0-1.05762-.34375-1.05762-.86817a1.979,1.979,0,0,1,.03516-.27343l.51172-2.3252h.89648Z"/><path class="cls-1" d="M107.75189,26.5829a1.43866,1.43866,0,0,1,1.51953,1.51269,2.19771,2.19771,0,0,1-.07031.5459h-2.51465v.084a.83127.83127,0,0,0,.92481.70019,1.51588,1.51588,0,0,0,.85449-.252l.28027.60937a2.19911,2.19911,0,0,1-1.19726.35059c-1.06543,0-1.752-.57422-1.752-1.51953A1.97669,1.97669,0,0,1,107.75189,26.5829Zm.72071,1.38672a.69122.69122,0,0,0-.77735-.67969.96706.96706,0,0,0-.918.749h1.69532Z"/><path class="cls-1" d="M110.45306,26.66688h.88965l-.10547.44824a1.54014,1.54014,0,0,1,1.19825-.52539l-.18946.88282a1.3468,1.3468,0,0,0-.3291-.043,1.19543,1.19543,0,0,0-.84082.40625l-.48242,2.21386h-.89063Z"/><path class="cls-1" d="M112.8056,30.62391a.45633.45633,0,0,0,.41992-.23828l.21-.31543-.60157-3.40332h.92383l.35742,2.35254,1.41407-2.35254h.98144l-2.46582,3.93555a1.40935,1.40935,0,0,1-1.30957.81933,1.80179,1.80179,0,0,1-.56738-.084l.29492-.77051A.93976.93976,0,0,0,112.8056,30.62391Z"/><path class="cls-1" d="M59.04486,42.13563a2.01386,2.01386,0,0,0,1.582.72071c.498,0,.70117-.28711.70117-.53907,0-.28027-.35742-.42676-.79882-.58789-.65137-.23144-1.46289-.53906-1.46289-1.373a1.6387,1.6387,0,0,1,1.82031-1.457,2.44178,2.44178,0,0,1,1.85547.75684l-.61524.69336a1.84591,1.84591,0,0,0-1.36621-.5957c-.38574,0-.65137.23144-.65137.49023,0,.25293.35743.39941.79883.56055.65039.23144,1.47754.54687,1.47754,1.3584a1.6518,1.6518,0,0,1-1.835,1.5625,2.69494,2.69494,0,0,1-2.11523-.86914Z"/><path class="cls-1" d="M63.49408,44.92958h-.89063l1.03711-4.6709h.88965l-.09863.41992a1.29089,1.29089,0,0,1,1.02344-.50391,1.24838,1.24838,0,0,1,1.28125,1.4004,1.98588,1.98588,0,0,1-1.7793,2.15039,1.26056,1.26056,0,0,1-1.07812-.53223Zm1.56055-3.96387a1.02427,1.02427,0,0,0-.77735.40625l-.25879,1.17676a.93256.93256,0,0,0,.792.38476,1.08656,1.08656,0,0,0,.99414-1.17578A.73673.73673,0,0,0,65.05463,40.96571Z"/><path class="cls-1" d="M69.27728,40.17469a1.51225,1.51225,0,0,1,1.68164,1.54A1.98178,1.98178,0,0,1,68.997,43.72548a1.50054,1.50054,0,0,1-1.67383-1.53418A1.981,1.981,0,0,1,69.27728,40.17469Zm-.02734.791a1.10127,1.10127,0,0,0-1.00977,1.17676.72915.72915,0,0,0,.792.791,1.096,1.096,0,0,0,1.001-1.17578A.726.726,0,0,0,69.24994,40.96571Z"/><path class="cls-1" d="M73.49408,40.17469a1.51175,1.51175,0,0,1,1.68164,1.54,1.98159,1.98159,0,0,1-1.96094,2.01075A1.501,1.501,0,0,1,71.541,42.1913,1.98082,1.98082,0,0,1,73.49408,40.17469Zm-.02734.791A1.10119,1.10119,0,0,0,72.458,42.14247a.72867.72867,0,0,0,.792.791,1.096,1.096,0,0,0,1.001-1.17578A.72677.72677,0,0,0,73.46674,40.96571Z"/><path class="cls-1" d="M76.37689,41.036h-.55957l.168-.77734h.55957l.043-.18262a1.29444,1.29444,0,0,1,1.26758-1.17676,1.36747,1.36747,0,0,1,.74219.18946l-.3086.60254a.54154.54154,0,0,0-.32226-.09082c-.27247,0-.41993.168-.49024.47558l-.041.18262h.69336l-.17579.77734h-.68554l-.57422,2.60547h-.89649Z"/><path class="cls-1" d="M80.18842,40.17469a1.43867,1.43867,0,0,1,1.51953,1.5127,2.251,2.251,0,0,1-.06934.5459H79.123v.084a.83168.83168,0,0,0,.92578.7002,1.51489,1.51489,0,0,0,.85351-.252l.28028.60938a2.19673,2.19673,0,0,1-1.19727.35059c-1.06543,0-1.751-.57422-1.751-1.51954A1.97651,1.97651,0,0,1,80.18842,40.17469Zm.72168,1.38672a.69122.69122,0,0,0-.77735-.67968.96615.96615,0,0,0-.918.749H80.9101Z"/><path class="cls-1" d="M85.53314,38.96962h.89649l-1.03614,4.67187H84.497l.09863-.4209a1.27442,1.27442,0,0,1-1.01562.50489A1.24708,1.24708,0,0,1,82.291,42.32411a1.97727,1.97727,0,0,1,1.78614-2.14942,1.2773,1.2773,0,0,1,1.0791.53223Zm-1.56152,3.96386a1.009,1.009,0,0,0,.77832-.39843l.25781-1.17676a.9321.9321,0,0,0-.791-.39258,1.09209,1.09209,0,0,0-.99414,1.17676A.73569.73569,0,0,0,83.97162,42.93348Z"/><path class="cls-1" d="M88.74506,42.13563a2.01442,2.01442,0,0,0,1.583.72071c.49707,0,.7002-.28711.7002-.53907,0-.28027-.35742-.42676-.79883-.58789-.65137-.23144-1.46387-.53906-1.46387-1.373a1.64033,1.64033,0,0,1,1.82129-1.457,2.447,2.447,0,0,1,1.85645.75684l-.61719.69336a1.84074,1.84074,0,0,0-1.36523-.5957c-.38477,0-.65137.23144-.65137.49023,0,.25293.35644.39941.79785.56055.65234.23144,1.47852.54687,1.47852,1.3584a1.65216,1.65216,0,0,1-1.83594,1.5625,2.69277,2.69277,0,0,1-2.11426-.86914Z"/><path class="cls-1" d="M94.75385,41.96766H93.9765l-.36426,1.67383h-.99511l1.03027-4.67187h1.99609a1.353,1.353,0,0,1,1.44239,1.3164,1.61556,1.61556,0,0,1-1.33008,1.625l.64453,1.73047H95.30072Zm1.28906-1.583a.57061.57061,0,0,0-.59571-.56055h-.99414l-.28125,1.28906h1.03711A.739.739,0,0,0,96.04291,40.38466Z"/><path class="cls-1" d="M100.22845,38.89247a2.07569,2.07569,0,0,1,2.07227,1.32422l-.959.32226a1.17708,1.17708,0,0,0-1.16211-.76367,1.71053,1.71053,0,0,0-1.63282,1.793,1.23591,1.23591,0,0,0,1.31739,1.27441,1.47839,1.47839,0,0,0,1.09961-.53906l.76269.52539a2.41519,2.41519,0,0,1-1.918.89649,2.11848,2.11848,0,0,1-2.29785-2.09473A2.668,2.668,0,0,1,100.22845,38.89247Z"/><path class="cls-1" d="M102.85931,42.58387a.51693.51693,0,0,1,.51075.52539.62193.62193,0,0,1-.61621.61622.52268.52268,0,0,1-.51758-.52539A.62787.62787,0,0,1,102.85931,42.58387Zm.51758-2.374a.51193.51193,0,0,1,.51856.51758.62268.62268,0,0,1-.623.61621.5163.5163,0,0,1-.51074-.52539A.61948.61948,0,0,1,103.37689,40.20985Z"/><path class="cls-1" d="M108.14447,42.67469H105.9101l.19726-.86816,2.416-2.83691h1.43554l-.63086,2.83007h.60352l-.18945.875h-.60254l-.21.9668h-.99414Zm-1.07129-.875h1.26074l.43457-1.94726Z"/><path class="cls-1" d="M111.03217,42.58387a.51693.51693,0,0,1,.51074.52539.62108.62108,0,0,1-.61524.61622.5235.5235,0,0,1-.51855-.52539A.62787.62787,0,0,1,111.03217,42.58387Z"/><path class="cls-1" d="M113.11713,42.21278a1.42273,1.42273,0,0,0,1.26074.64356.81046.81046,0,0,0,.88965-.76954c0-.39941-.35742-.64453-.88282-.64453a1.30054,1.30054,0,0,0-.85351.294l-.64453-.25879.55273-2.50781h3.207l-.18847.85449h-2.2334l-.2461,1.12109a1.48112,1.48112,0,0,1,.94532-.29492,1.283,1.283,0,0,1,1.38672,1.31738,1.81125,1.81125,0,0,1-1.93946,1.75782,2.20883,2.20883,0,0,1-1.94726-.89649Z"/><path class="cls-1" d="M117.50189,42.58387a.51692.51692,0,0,1,.51074.52539.62192.62192,0,0,1-.61621.61622.52267.52267,0,0,1-.51757-.52539A.62786.62786,0,0,1,117.50189,42.58387Z"/><path class="cls-1" d="M119.03705,42.71669c1.97461-1.12012,2.99805-1.73731,2.99805-2.38868,0-.34277-.34961-.55273-.84083-.55273a1.75743,1.75743,0,0,0-1.16308.41992l-.41992-.71386a2.60666,2.60666,0,0,1,1.65332-.582c.96,0,1.81347.46973,1.81347,1.35938,0,.92383-.97265,1.72266-2.48632,2.50683H122.539l-.18945.876h-3.51563Z"/><path class="cls-1" d="M124.03119,42.58387a.51692.51692,0,0,1,.51074.52539.62192.62192,0,0,1-.61621.61622.52268.52268,0,0,1-.51758-.52539A.62787.62787,0,0,1,124.03119,42.58387Z"/><path class="cls-1" d="M126.69232,40.25184l-.94629.791-.44043-.5957,1.79981-1.47754h.86914l-1.03028,4.67187h-.99511Z"/><line class="cls-2" x1="48.06578" y1="34.89425" x2="143.54467" y2="34.89425"/><polygon class="cls-3" points="140.231 38.984 139.549 38.252 143.161 34.895 139.549 31.538 140.231 30.805 144.629 34.895 140.231 38.984"/><line class="cls-4" x1="193.29723" y1="41.35596" x2="193.29723" y2="45.76772"/><line class="cls-4" x1="188.8508" y1="41.35596" x2="188.8508" y2="45.76772"/><line class="cls-4" x1="184.40437" y1="41.35596" x2="184.40437" y2="45.76772"/><line class="cls-4" x1="193.29723" y1="32.53243" x2="193.29723" y2="36.94419"/><line class="cls-4" x1="188.8508" y1="32.53243" x2="188.8508" y2="36.94419"/><line class="cls-4" x1="184.40437" y1="32.53243" x2="184.40437" y2="36.94419"/><line class="cls-4" x1="193.29723" y1="23.7089" x2="193.29723" y2="28.12066"/><line class="cls-4" x1="188.8508" y1="23.7089" x2="188.8508" y2="28.12066"/><line class="cls-4" x1="184.40437" y1="23.7089" x2="184.40437" y2="28.12066"/><path class="cls-5" d="M159.949,25.17948a.73531.73531,0,1,1-.741.73529.7382.7382,0,0,1,.741-.73529m0-1a1.7353,1.7353,0,1,0,1.74109,1.73529,1.74011,1.74011,0,0,0-1.74109-1.73529Z"/><path class="cls-5" d="M159.949,34.003a.73533.73533,0,1,1-.741.73532.73822.73822,0,0,1,.741-.73532m0-1a1.73531,1.73531,0,1,0,1.74109,1.73532A1.74013,1.74013,0,0,0,159.949,33.003Z"/><path class="cls-5" d="M159.949,42.82655a.73531.73531,0,1,1-.741.73529.7382.7382,0,0,1,.741-.73529m0-1a1.7353,1.7353,0,1,0,1.74109,1.73529,1.7401,1.7401,0,0,0-1.74109-1.73529Z"/><path class="cls-6" d="M157.72,39.88537H196.2282a1.51545,1.51545,0,0,1,1.51545,1.51545V45.762a1.47635,1.47635,0,0,1-1.47635,1.47635H157.72a1.47635,1.47635,0,0,1-1.47635-1.47635V41.36172A1.47635,1.47635,0,0,1,157.72,39.88537Z"/><rect class="cls-6" x="156.24366" y="31.06184" width="41.5" height="7.35294" rx="1.47635"/><rect class="cls-6" x="156.24366" y="22.23831" width="41.5" height="7.35294" rx="1.47635"/><path class="cls-5" d="M166.77533,54.25868h2.50879a3.67009,3.67009,0,1,1,0,7.33789h-2.50879Zm2.50879,6.52344a2.85475,2.85475,0,0,0,0-5.709h-1.5957v5.709Z"/><path class="cls-5" d="M175.499,55.6786v5.918h-.91406V54.25868h.93555l4.22461,5.79883V54.25868h.91308v7.33789h-.87988Z"/><path class="cls-5" d="M182.583,59.87a3.10253,3.10253,0,0,0,2.31054,1.04492c1.3086,0,1.72657-.70313,1.72657-1.26563,0-.8789-.89063-1.12109-1.85938-1.38476-1.17676-.3086-2.48633-.63867-2.48633-2.08008,0-1.21094,1.07813-2.03516,2.51953-2.03516a3.44593,3.44593,0,0,1,2.60743,1.02344l-.54981.66992a2.80514,2.80514,0,0,0-2.123-.8789c-.88085,0-1.50781.47265-1.50781,1.166,0,.73633.84766.957,1.78223,1.209,1.19922.32031,2.56348.69336,2.56348,2.23437,0,1.06641-.72559,2.15625-2.70606,2.15625a3.634,3.634,0,0,1-2.81641-1.166Z"/><path class="cls-5" d="M161.93549,70.87a3.10253,3.10253,0,0,0,2.31054,1.04492c1.30957,0,1.72754-.70313,1.72754-1.26563,0-.8789-.8916-1.12109-1.85937-1.38476-1.17676-.3086-2.48633-.63867-2.48633-2.08008,0-1.21094,1.07812-2.03516,2.51953-2.03516a3.4459,3.4459,0,0,1,2.60742,1.02344l-.55078.66992a2.80369,2.80369,0,0,0-2.123-.8789c-.87988,0-1.50683.47265-1.50683,1.166,0,.73633.84668.957,1.78222,1.209,1.19922.32031,2.56348.69336,2.56348,2.23437,0,1.06641-.72656,2.15625-2.707,2.15625a3.637,3.637,0,0,1-2.81641-1.166Z"/><path class="cls-5" d="M170.66986,67.15126a2.58083,2.58083,0,0,1,2.55274,2.84961v.209h-4.30176a1.87159,1.87159,0,0,0,1.91406,1.83789,2.32263,2.32263,0,0,0,1.63965-.67187l.39551.53906a2.89011,2.89011,0,0,1-2.11231.81445,2.79245,2.79245,0,0,1-.08789-5.57812Zm-1.749,2.45312h3.4873a1.723,1.723,0,0,0-1.749-1.77148A1.77234,1.77234,0,0,0,168.92084,69.60438Z"/><path class="cls-5" d="M174.663,67.28407h.8252v.85742a2.25957,2.25957,0,0,1,1.77051-.96875v.84766a1.47605,1.47605,0,0,0-.33008-.03321,1.94,1.94,0,0,0-1.44043.84766v3.76172h-.8252Z"/><path class="cls-5" d="M177.61029,67.28407h.8916l1.77051,4.35547,1.76074-4.35547h.90235l-2.21192,5.3125h-.90234Z"/><path class="cls-5" d="M186.21283,67.15126a2.58083,2.58083,0,0,1,2.55273,2.84961v.209h-4.30175a1.87159,1.87159,0,0,0,1.91406,1.83789,2.32263,2.32263,0,0,0,1.63965-.67187l.3955.53906a2.89008,2.89008,0,0,1-2.1123.81445,2.79245,2.79245,0,0,1-.08789-5.57812Zm-1.749,2.45312h3.4873a1.723,1.723,0,0,0-1.749-1.77148A1.77234,1.77234,0,0,0,184.46381,69.60438Z"/><path class="cls-5" d="M190.205,67.28407h.82519v.85742a2.25989,2.25989,0,0,1,1.77149-.96875v.84766a1.48866,1.48866,0,0,0-.33008-.03321,1.94363,1.94363,0,0,0-1.44141.84766v3.76172H190.205Z"/><path class="cls-5" d="M17.36322,59.96962H13.64447l-.64941,1.6289H11.98334l2.94824-7.33789h1.13281l2.96,7.33789H18.01166Zm-3.45508-.81446h3.17969l-1.584-4.082Z"/><path class="cls-5" d="M20.10052,60.48719V57.01063h-.87988v-.72656h.87988V54.8329h.8252v1.45117h1.07813v.72656H20.92572v3.30078c0,.39453.17578.68164.53906.68164a.79718.79718,0,0,0,.56153-.2207l.24121.61719a1.3505,1.3505,0,0,1-.98926.33984A1.08718,1.08718,0,0,1,20.10052,60.48719Z"/><path class="cls-5" d="M23.44525,60.48719V57.01063h-.87988v-.72656h.87988V54.8329h.8252v1.45117h1.07812v.72656H24.27045v3.30078c0,.39453.17578.68164.53906.68164a.79715.79715,0,0,0,.56152-.2207l.24121.61719a1.35047,1.35047,0,0,1-.98925.33984A1.08718,1.08718,0,0,1,23.44525,60.48719Z"/><path class="cls-5" d="M29.94623,60.99305a2.29735,2.29735,0,0,1-1.76074.73633,1.76809,1.76809,0,0,1-1.8584-1.75976,1.741,1.741,0,0,1,1.8584-1.75,2.22494,2.22494,0,0,1,1.76074.72656v-.957c0-.71485-.57227-1.1211-1.34278-1.1211a2.11139,2.11139,0,0,0-1.62793.73633l-.38476-.57226a2.78148,2.78148,0,0,1,2.123-.87891c1.12207,0,2.05761.50586,2.05761,1.793v3.65234h-.82519Zm0-1.51757a1.77559,1.77559,0,0,0-1.46289-.66016,1.16868,1.16868,0,1,0,0,2.32031,1.77561,1.77561,0,0,0,1.46289-.66015Z"/><path class="cls-5" d="M34.874,56.15321a2.2719,2.2719,0,0,1,1.94727.92383l-.55078.50586a1.57381,1.57381,0,0,0-1.35254-.69336,2.0642,2.0642,0,0,0,0,4.10351,1.60212,1.60212,0,0,0,1.35254-.69336l.55078.50586a2.2719,2.2719,0,0,1-1.94727.92383,2.79161,2.79161,0,0,1,0-5.57617Z"/><path class="cls-5" d="M39.791,59.20985l-.87988.86914v1.51953h-.82519V54.26063h.82519v4.85156L41.705,56.28407h1.04492l-2.35449,2.41016,2.36621,2.90429H41.705Z"/><path class="cls-5" d="M45.90619,56.15321a2.58019,2.58019,0,0,1,2.55273,2.84766v.209H44.15717a1.87281,1.87281,0,0,0,1.91406,1.83789,2.32739,2.32739,0,0,0,1.63965-.66992l.39648.53906a2.88873,2.88873,0,0,1-2.1123.8125,2.79141,2.79141,0,0,1-.08887-5.57617Zm-1.749,2.45313h3.4873a1.7219,1.7219,0,0,0-1.749-1.77149A1.773,1.773,0,0,0,44.15717,58.60634Z"/><path class="cls-5" d="M49.89935,56.28407h.8252v.85742a2.25756,2.25756,0,0,1,1.77051-.9668v.84571a1.48552,1.48552,0,0,0-.33008-.03125,1.94373,1.94373,0,0,0-1.44043.8457v3.76367h-.8252Z"/><path class="cls-5" d="M11.72943,65.26063h.91406v7.33789h-.91406Z"/><path class="cls-5" d="M14.46869,65.26063h2.94824a2.21266,2.21266,0,1,1,0,4.42188H15.38177v2.916h-.91308Zm2.83887.8125H15.38177v2.79492h1.92579a1.39892,1.39892,0,1,0,0-2.79492Z"/><path class="cls-5" d="M21.4433,67.2079a.60449.60449,0,1,1-.60547.60351A.60855.60855,0,0,1,21.4433,67.2079Zm0,4.28906a.60547.60547,0,1,1-.60547.60547A.61023.61023,0,0,1,21.4433,71.497Z"/><path class="cls-5" d="M26.35931,71.872c2.64063-2.08008,4.07032-3.30078,4.07032-4.56641a1.37237,1.37237,0,0,0-1.5293-1.34179,2.458,2.458,0,0,0-1.99121.92383l-.56055-.582a3.17379,3.17379,0,0,1,2.55176-1.15625,2.23334,2.23334,0,0,1,2.46484,2.15625c0,1.4961-1.51855,2.86133-3.56445,4.47852h3.59766v.81445H26.35931Z"/><path class="cls-5" d="M33.60834,71.497a.60547.60547,0,1,1-.60547.60547A.61023.61023,0,0,1,33.60834,71.497Z"/><path class="cls-5" d="M36.27045,70.94813a2.41809,2.41809,0,0,0,2.02441.96875,1.5853,1.5853,0,0,0,1.69434-1.57422,1.54609,1.54609,0,0,0-1.6836-1.584,2.29909,2.29909,0,0,0-1.69433.69336l-.6709-.23242v-3.959h4.48828v.8125h-3.5752v2.55274a2.48334,2.48334,0,0,1,1.71582-.66016,2.24819,2.24819,0,0,1,2.333,2.34375,2.40293,2.40293,0,0,1-2.60742,2.41992,3.00111,3.00111,0,0,1-2.58594-1.17578Z"/><path class="cls-5" d="M42.8476,71.497a.60547.60547,0,1,1-.6045.60547A.61108.61108,0,0,1,42.8476,71.497Z"/><path class="cls-5" d="M47.78705,66.07313h-3.9502v-.8125h5.00586v.627l-3.00293,6.71093H44.82709Z"/><path class="cls-5" d="M49.46967,71.497a.60547.60547,0,1,1-.6045.60547A.61108.61108,0,0,1,49.46967,71.497Z"/><path class="cls-5" d="M51.94525,66.46962l-1.17773,1.24414-.54981-.56055,1.83692-1.89258h.80371v7.33789h-.91309Z"/><path class="cls-4" d="M24.29332,45.63414V39.21748s-11.66214.01569-9.79777-14.48534c1.08713-8.45561,6.96018-12.75331,11.66814-14.74583A15.6987,15.6987,0,0,1,38.43585,9.988c4.70364,1.9932,10.56925,6.29094,11.65606,14.7441,1.86437,14.501-9.80571,14.48534-9.80571,14.48534v6.41666M24.62687,21.23286c-2.76142,0-5,2.57436-5,5.75s2.23858,5.75,5,5.75,5-2.57437,5-5.75S27.38829,21.23286,24.62687,21.23286Zm15.18052,0c-2.76142,0-5,2.57436-5,5.75s2.23858,5.75,5,5.75,5-2.57437,5-5.75S42.56882,21.23286,39.80739,21.23286ZM29.09118,47.23831V40.82164m6.39716,0v6.41667M32.23127,32.09643c-.73505,0-2.482,2.54042-2.482,3.3398a1.57577,1.57577,0,0,0,1.47482,1.6602,1.3885,1.3885,0,0,0,1.02518-.46985,1.3885,1.3885,0,0,0,1.02518.46985,1.57578,1.57578,0,0,0,1.47482-1.6602C34.74926,34.623,32.96633,32.09643,32.23127,32.09643Z"/></svg>