<svg xmlns="http://www.w3.org/2000/svg" xmlns:xlink="http://www.w3.org/1999/xlink" viewBox="0 0 345 171"><defs><style>.cls-1{fill:#fff;}.cls-2{fill:none;}.cls-3{clip-path:url(#clip-path);}.cls-4{clip-path:url(#clip-path-2);}.cls-5{clip-path:url(#clip-path-3);}</style><clipPath id="clip-path"><path class="cls-1" d="M223.93,108.36l0,0c-12.14,8.6-26.53,17.63-42,27.11l-.61.35a.46.46,0,0,0,.53.76l.52-.27c13.13-6.85,28.2-15,43.37-23.33l.24-.13a19,19,0,0,1-2-4.52m79.72-64.53c-19.14-21.12-142.34-2.12-194.72,9.32l-1.22.26a.46.46,0,0,0,.16.91l1.21-.24c43.4-7.73,133.66-18.44,153.08.82,5.92,5.87,4.51,13.44-2.36,22.37a17.73,17.73,0,0,1,7.53,10.81C294.16,70.24,312.18,53.23,303.65,43.82Z"/></clipPath><clipPath id="clip-path-2"><rect class="cls-1" x="30.35" y="34.31" width="294.3" height="102.38"/></clipPath><clipPath id="clip-path-3"><rect class="cls-2" x="30.35" y="34.31" width="294.3" height="102.38"/></clipPath></defs><title>nginx.com-CustomerSection-logos_345x171_R01mw</title><g id="Transparent_object" data-name="Transparent object"><rect class="cls-2" width="345" height="171"/></g><g id="Layer_1" data-name="Layer 1"><path class="cls-1" d="M223.93,108.36l0,0c-12.14,8.6-26.53,17.63-42,27.11l-.61.35a.46.46,0,0,0,.53.76l.52-.27c13.13-6.85,28.2-15,43.37-23.33l.24-.13a19,19,0,0,1-2-4.52m79.72-64.53c-19.14-21.12-142.34-2.12-194.72,9.32l-1.22.26a.46.46,0,0,0,.16.91l1.21-.24c43.4-7.73,133.66-18.44,153.08.82,5.92,5.87,4.51,13.44-2.36,22.37a17.73,17.73,0,0,1,7.53,10.81C294.16,70.24,312.18,53.23,303.65,43.82Z"/><g class="cls-3"><rect class="cls-1" x="30.35" y="34.31" width="294.3" height="102.38"/><g class="cls-4"><rect class="cls-1" x="23.54" y="-28.78" width="307.92" height="228.56" transform="translate(-19.36 93.34) rotate(-28)"/></g></g><path class="cls-1" d="M231.68,102.82c.25,7.42,4.95,13.51,11.08,13.51,11.88,0,16.94-14.59,16.59-24.34-.25-7.45-5.08-13.52-11.2-13.52-10.22,0-16.82,14.53-16.47,24.35m-6.28-.4c-.44-12.68,9.5-25.65,23.93-25.65,9.65,0,16,6.43,16.32,16.28.46,13.37-8.82,25.65-23.92,25.65C232.07,118.7,225.76,112.28,225.4,102.42Z"/><path class="cls-1" d="M88.71,99.07a14.5,14.5,0,0,1-2,.56c-.82.18-2.33.46-4.51.8a7.88,7.88,0,0,0-3.15,1,2.33,2.33,0,0,0-1,1.54,1.5,1.5,0,0,0,.66,1.59,5.27,5.27,0,0,0,2.91.61,9.73,9.73,0,0,0,3-.48,7.25,7.25,0,0,0,2.45-1.3,4,4,0,0,0,1.06-1.53,22.2,22.2,0,0,0,.59-2.76m12.55-7.8a31.14,31.14,0,0,1-.57,4l-2.12,11.91a2.21,2.21,0,0,0,1.19,2.46l-.06.46-12.15,0-.11-3a24.25,24.25,0,0,1-5.84,2.5,21.36,21.36,0,0,1-5.82.71c-3.93,0-6.17-.41-7.73-1.77s-2.34-2.33-2.27-4.26a6.58,6.58,0,0,1,1.47-3.53,8.94,8.94,0,0,1,3.24-2.26A17.13,17.13,0,0,1,75.36,97c2.15-.35,5.14-.7,9.15-1a13.3,13.3,0,0,0,4-.9c.84-.33,1.16-.69,1.29-1.37.23-1.22-.17-1.92-1.79-2.24-4.38-.86-12.58.56-16.81,1.61l2.3-6.2A111.19,111.19,0,0,1,89.8,85.56C98.54,85.56,101.34,88.06,101.26,91.27Z"/><path class="cls-1" d="M136.48,110.07l4.22-23.8h11.63l-4.21,23.8H136.48m4.86-29.31c.35-2,3.43-3.54,6.88-3.54s6,1.59,5.64,3.54S150.43,84.3,147,84.3,141,82.71,141.34,80.75Z"/><g class="cls-5"><path class="cls-1" d="M193.65,99.12a20.8,20.8,0,0,1-2,.56c-.82.19-2.32.44-4.52.8a7.67,7.67,0,0,0-3.13,1,2.44,2.44,0,0,0-1,1.53,1.51,1.51,0,0,0,.67,1.58,5.33,5.33,0,0,0,2.93.6,9.84,9.84,0,0,0,3-.46,7.32,7.32,0,0,0,2.46-1.3,4,4,0,0,0,1-1.54,20.72,20.72,0,0,0,.61-2.75m12.54-7.81a28.71,28.71,0,0,1-.57,4l-2.11,11.93a2.23,2.23,0,0,0,1.18,2.46l-.07.41-12.15,0-.09-3a23.83,23.83,0,0,1-5.84,2.49,20.83,20.83,0,0,1-5.85.72c-3.92,0-6.15-.39-7.71-1.76s-2.35-2.33-2.27-4.26a6.36,6.36,0,0,1,1.47-3.54,8.8,8.8,0,0,1,3.24-2.26,18,18,0,0,1,4.86-1.38c2.16-.33,5.16-.7,9.17-1a13.73,13.73,0,0,0,4-.88c.85-.33,1.18-.69,1.31-1.38.22-1.2-.17-1.92-1.78-2.24-4.4-.87-12.58.56-16.81,1.61l2.29-6.2a110.67,110.67,0,0,1,16.31-1.34C203.47,85.61,206.26,88.11,206.19,91.31Z"/><path class="cls-1" d="M64.19,101.51a42.61,42.61,0,0,1-9.66,1c-5.56,0-10-2.76-9.73-7.82C45,91.36,49,84.25,59.1,84.25a16.57,16.57,0,0,1,9,2.48l1.47-8.27a28,28,0,0,0-11.51-1.94C44.82,76.66,32,82.71,30.47,95c-1.61,12.49,13.64,15.63,20.41,15.6,3.91,0,8-.17,11.77-.57l1.54-8.52"/></g><path class="cls-1" d="M158.74,86.13l.84-4.85,12.17-2.65-1.29,7.49h6l-1.13,4.8H169.5L166,110s-11.72-.08-11.76,0l3.5-19.1H153.3l.9-4.83h4.54"/><polyline class="cls-1" points="218 110.05 206.15 110.07 212.12 76.86 223.66 77.18 218 110.05"/><path class="cls-1" d="M121.09,91.84A6.71,6.71,0,0,0,117,93.23a6.22,6.22,0,0,0-2.3,4.07c-.36,2.08-.15,3.57.67,4.49a4.62,4.62,0,0,0,3.6,1.37,7,7,0,0,0,3-.59,5.82,5.82,0,0,0,2.28-2,7.81,7.81,0,0,0,1.28-3.14c.33-1.88.05-3.29-.82-4.22a4.46,4.46,0,0,0-3.53-1.42M99.9,118.28l5.66-31.9h10.22L115,90.45a9.72,9.72,0,0,1,4.26-3,17.39,17.39,0,0,1,6.6-1.4c2.67,0,4.31.14,6.31,1.18a8.42,8.42,0,0,1,4.12,4.52,11.85,11.85,0,0,1,.51,6.48,14.08,14.08,0,0,1-5.75,9.31c-3.12,2.27-5.93,2.87-9.94,2.89a15.28,15.28,0,0,1-3.59-.39,8.17,8.17,0,0,1-2.32-.93,10.74,10.74,0,0,1-1.91-1.73l-1.9,10.93Z"/><path class="cls-1" d="M311.13,94.76c-.07-1.92-1-3.21-3-3.21-4.77,0-9.85,9.35-10.73,13.11,7.83,0,13.93-4.66,13.73-9.91m1,14.65.92.62c-2.33,4.74-7.07,8.55-12.64,8.55-4.55,0-8.29-3-8.48-8.72-.37-10.2,9.19-19.68,17-19.68,3.36,0,6.47,1.47,6.61,5.08.29,8.11-11.1,10.59-18.61,10.76a9,9,0,0,0-.29,3c.12,3.36,2.16,6.19,6.37,6.19C306.68,115.22,310.32,112.3,312.16,109.42Z"/><path class="cls-1" d="M265.48,94.5c.81-.1,2.11-.25,2.67-.25.85,0,1.66.16,1.7,1,0,.5-.89,4.12-1.08,5l-1.82,8c-.73,3.28-1.53,6.71-2.23,9.41h4.66L272,105c8-8.33,11.07-11,13-11a1.35,1.35,0,0,1,1.47,1.46,25.11,25.11,0,0,1-1.18,5.75l-2.67,9.24a19.17,19.17,0,0,0-1,5.29,2.79,2.79,0,0,0,3.13,2.93c3.41,0,5.88-3.55,8-7l-.63-1.15c-.88,1.41-2.9,4.47-4.49,4.47-.5,0-1-.34-1-1.18a13.74,13.74,0,0,1,.72-3.77l3-10.83a26.71,26.71,0,0,0,1.16-5.93,2.78,2.78,0,0,0-3.06-3c-3.07,0-7.14,2.24-15.77,12.17h-.12l1.09-4.84c.59-2.65,1.17-5.41,1.73-7.32a77.49,77.49,0,0,1-9.9,2.79l0,1.52"/></g></svg>