<svg xmlns="http://www.w3.org/2000/svg" width="42" height="42" viewBox="0 0 42 42">
    <g fill="#4F73FF" fill-rule="evenodd">
        <rect width="42" height="42" opacity=".05" rx="3"/>
        <path fill-rule="nonzero" d="M31 23a1 1 0 0 1 1 1v7a1 1 0 0 1-1 1h-7a1 1 0 0 1-1-1v-7a1 1 0 0 1 1-1zm-13 0a1 1 0 0 1 1 1v7a1 1 0 0 1-1 1h-7a1 1 0 0 1-1-1v-7a1 1 0 0 1 1-1zm8.846-13.73a.925.925 0 0 1 1.308 0l4.575 4.576a.925.925 0 0 1 0 1.308l-4.575 4.575a.925.925 0 0 1-1.308 0l-4.575-4.575a.925.925 0 0 1 0-1.308zM18 10a1 1 0 0 1 1 1v7a1 1 0 0 1-1 1h-7a1 1 0 0 1-1-1v-7a1 1 0 0 1 1-1z"/>
    </g>
</svg>
