<?xml version="1.0" encoding="UTF-8"?>
<svg width="24px" height="16px" viewBox="0 0 24 16" version="1.1" xmlns="http://www.w3.org/2000/svg" xmlns:xlink="http://www.w3.org/1999/xlink">
    <g id="Page-1" stroke="none" stroke-width="1" fill="none" fill-rule="evenodd">
        <g id="Careers-(480)" transform="translate(-15.000000, -27.000000)" fill="#0F1E57" fill-rule="nonzero">
            <g id="Group">
                <path d="M27,41 C27.552,41 28,41.447 28,42 C28,42.553 27.552,43 27,43 L16,43 C15.448,43 15,42.553 15,42 C15,41.447 15.448,41 16,41 L27,41 Z M38,34 C38.552,34 39,34.447 39,35 C39,35.553 38.552,36 38,36 L16,36 C15.448,36 15,35.553 15,35 C15,34.447 15.448,34 16,34 L38,34 Z M38,27 C38.552,27 39,27.447 39,28 C39,28.553 38.552,29 38,29 L16,29 C15.448,29 15,28.553 15,28 C15,27.447 15.448,27 16,27 L38,27 Z" id="Combined-Shape"></path>
            </g>
        </g>
    </g>
</svg>
