<svg xmlns="http://www.w3.org/2000/svg" width="42" height="42" viewBox="0 0 42 42">
    <g fill="#4F73FF" fill-rule="evenodd">
        <rect width="42" height="42" opacity=".05" rx="3"/>
        <path fill-rule="nonzero" d="M12.864 27.1c.984.263 1.752 1.031 2.015 2.015.262.984-.021 2.033-.744 2.751C13.024 32.977 9 33 9 33v-.095c.01-.616.101-4.052 1.113-5.061.718-.723 1.767-1.006 2.75-.744zm17.795-4.457c.498 2.86-.429 5.784-2.484 7.835-.54.535-1.144 1-1.8 1.384-.393.231-.893.168-1.215-.155l-1.99-1.989c2.933-1.848 5.477-4.252 7.489-7.075zm1.16-13.513c.284-.015.56.092.761.294.2.201.305.478.289.762-.794 13.962-13.223 19.202-13.348 19.253-.373.152-.8.066-1.085-.218l-5.657-5.657c-.283-.283-.37-.708-.22-1.08.05-.126 5.232-12.622 19.26-13.354zm-7.405 8.456c-.572-.572-1.432-.743-2.18-.434C21.487 17.462 21 18.191 21 19c0 .809.487 1.538 1.234 1.848.748.31 1.608.138 2.18-.434.78-.781.78-2.047 0-2.828zm-12.892-3.761c2.051-2.055 4.975-2.982 7.835-2.484-2.823 2.012-5.227 4.556-7.075 7.489l-1.989-1.99c-.323-.322-.386-.822-.155-1.215.384-.656.85-1.26 1.384-1.8z"/>
    </g>
</svg>
