<svg xmlns="http://www.w3.org/2000/svg" width="42" height="42" viewBox="0 0 42 42">
    <g fill="#4F73FF" fill-rule="evenodd">
        <rect width="42" height="42" opacity=".05" rx="3"/>
        <path fill-rule="nonzero" d="M23.368 27l4.27.939-1.609 1.168c.557.562 1.323.893 2.131.893 1.37 0 2.564-.925 2.905-2.249l1.938.498C32.433 30.458 30.442 32 28.16 32c-1.45 0-2.814-.644-3.754-1.714l-1.466 1.065.428-4.351zM21 25v5h-8c-2.206 0-4-1.794-4-4v-1h12zm6.783-4c1.45 0 2.814.644 3.754 1.714l1.466-1.065L32.575 26l-4.27-.939 1.609-1.168c-.557-.562-1.323-.893-2.131-.893-1.37 0-2.564.925-2.905 2.249l-1.938-.498C23.51 22.542 25.501 21 27.783 21zM30 10c1.103 0 2 .897 2 2v7h-2v-7H14v11h-2V12c0-1.103.897-2 2-2z"/>
    </g>
</svg>
