<?xml version="1.0" encoding="utf-8"?>
<!-- Generator: Adobe Illustrator 23.0.3, SVG Export Plug-In . SVG Version: 6.00 Build 0)  -->
<svg version="1.1" id="Layer_1" xmlns="http://www.w3.org/2000/svg" xmlns:xlink="http://www.w3.org/1999/xlink" x="0px" y="0px"
	 viewBox="0 0 398.7 152.5" style="enable-background:new 0 0 398.7 152.5;" xml:space="preserve">
<style type="text/css">
	.st0{fill:#252F3E;}
	.st1{fill:#FF9900;}
</style>
<g>
	<path class="st0" d="M146.4,56.2c0,3,0.3,5.4,0.9,7.2c0.6,1.8,1.5,3.7,2.6,5.8c0.4,0.6,0.6,1.3,0.6,1.9c0,0.8-0.5,1.6-1.5,2.4
		l-5.1,3.4c-0.7,0.5-1.5,0.7-2.1,0.7c-0.8,0-1.6-0.4-2.4-1.1c-1.1-1.2-2.1-2.5-2.9-3.8c-0.8-1.4-1.6-2.9-2.5-4.8
		c-6.3,7.4-14.2,11.1-23.7,11.1c-6.8,0-12.2-1.9-16.1-5.8s-6-9-6-15.5c0-6.9,2.4-12.4,7.3-16.6c4.9-4.2,11.5-6.3,19.8-6.3
		c2.7,0,5.6,0.2,8.5,0.6c3,0.4,6,1,9.3,1.8v-5.9c0-6.1-1.3-10.4-3.8-12.9c-2.6-2.5-6.9-3.7-13.1-3.7c-2.8,0-5.7,0.3-8.7,1
		s-5.9,1.6-8.7,2.7c-1.3,0.6-2.3,0.9-2.8,1c-0.6,0.2-1,0.2-1.3,0.2c-1.1,0-1.7-0.8-1.7-2.5v-4c0-1.3,0.2-2.3,0.6-2.8
		c0.4-0.6,1.1-1.1,2.3-1.7c2.8-1.5,6.2-2.7,10.2-3.6c4-1,8.1-1.5,12.6-1.5c9.6,0,16.6,2.2,21.1,6.5c4.4,4.4,6.7,11,6.7,19.8v26.1
		H146.4z M113.7,68.4c2.7,0,5.4-0.5,8.3-1.5c2.9-1,5.5-2.7,7.7-5.2c1.3-1.5,2.3-3.2,2.7-5.2c0.5-1.9,0.8-4.3,0.8-7v-3.4
		c-2.3-0.6-4.8-1-7.4-1.4s-5.1-0.5-7.6-0.5c-5.4,0-9.4,1-12,3.2c-2.7,2.2-4,5.2-4,9.3c0,3.8,1,6.6,3,8.5
		C107.1,67.5,109.9,68.4,113.7,68.4z M178.4,77.1c-1.5,0-2.4-0.2-3.1-0.8c-0.6-0.5-1.2-1.6-1.7-3.1l-19-62.3
		c-0.5-1.6-0.7-2.7-0.7-3.2c0-1.3,0.6-2,1.9-2h7.9c1.5,0,2.6,0.2,3.1,0.8c0.6,0.5,1.1,1.6,1.6,3.1l13.5,53.4l12.6-53.4
		c0.4-1.6,0.9-2.7,1.5-3.1s1.8-0.8,3.2-0.8h6.5c1.5,0,2.6,0.2,3.2,0.8c0.6,0.5,1.2,1.6,1.5,3.1l12.7,54l14-54c0.5-1.6,1-2.7,1.6-3.1
		c0.6-0.5,1.7-0.8,3.1-0.8h7.5c1.3,0,2,0.6,2,2c0,0.4-0.1,0.8-0.2,1.3c-0.1,0.5-0.2,1.1-0.6,2l-19.4,62.3c-0.5,1.6-1,2.7-1.7,3.1
		c-0.6,0.5-1.7,0.8-3.1,0.8h-6.9c-1.5,0-2.6-0.2-3.2-0.8c-0.6-0.6-1.2-1.6-1.5-3.2l-12.5-52l-12.4,51.9c-0.4,1.6-0.9,2.7-1.5,3.2
		s-1.8,0.8-3.2,0.8H178.4z M282,79.3c-4.2,0-8.4-0.5-12.4-1.5s-7.2-2-9.3-3.2c-1.3-0.7-2.2-1.5-2.5-2.3s-0.5-1.5-0.5-2.3V66
		c0-1.7,0.6-2.5,1.9-2.5c0.5,0,1,0.1,1.5,0.2c0.5,0.2,1.2,0.5,2,0.8c2.7,1.2,5.7,2.2,8.9,2.8c3.2,0.6,6.4,1,9.6,1
		c5.1,0,9-0.9,11.8-2.7c2.7-1.8,4.2-4.4,4.2-7.7c0-2.3-0.7-4.1-2.2-5.6c-1.5-1.5-4.2-2.9-8.1-4.2l-11.7-3.6
		c-5.9-1.9-10.2-4.6-12.9-8.2c-2.7-3.5-4-7.5-4-11.7c0-3.4,0.7-6.4,2.2-9c1.5-2.6,3.4-4.8,5.8-6.6c2.4-1.9,5.2-3.2,8.4-4.2
		s6.6-1.4,10.2-1.4c1.8,0,3.6,0.1,5.4,0.3c1.9,0.2,3.5,0.6,5.2,0.9c1.6,0.4,3.1,0.8,4.6,1.3c1.5,0.5,2.6,1,3.4,1.5
		c1.1,0.6,1.9,1.3,2.4,2c0.5,0.6,0.7,1.5,0.7,2.7v3.8c0,1.7-0.6,2.6-1.9,2.6c-0.6,0-1.7-0.3-3.1-1c-4.6-2.1-9.8-3.1-15.5-3.1
		c-4.6,0-8.2,0.7-10.7,2.3c-2.5,1.5-3.8,3.9-3.8,7.2c0,2.3,0.8,4.2,2.4,5.7c1.6,1.5,4.6,3.1,8.9,4.4l11.5,3.6
		c5.8,1.9,10,4.4,12.5,7.7s3.7,7.1,3.7,11.3c0,3.5-0.7,6.6-2.1,9.4c-1.5,2.7-3.4,5.2-5.9,7.1c-2.5,2-5.5,3.5-9,4.5
		C289.9,78.7,286.2,79.3,282,79.3z"/>
	<path class="st1" d="M297.3,118.5c-26.5,19.6-65.1,30-98.2,30c-46.5,0-88.3-17.2-119.9-45.7c-2.5-2.3-0.2-5.3,2.7-3.5
		c34.2,19.8,76.4,31.9,120,31.9c29.4,0,61.8-6.1,91.5-18.7C297.8,110.4,301.6,115.3,297.3,118.5z M308.3,105.9
		c-3.4-4.4-22.4-2.1-31-1c-2.6,0.3-3-1.9-0.6-3.6c15.2-10.6,40.1-7.6,43-4c2.9,3.6-0.8,28.5-15,40.5c-2.2,1.9-4.3,0.9-3.3-1.5
		C304.5,128.2,311.7,110.2,308.3,105.9z"/>
</g>
</svg>
