<?xml version="1.0" encoding="utf-8"?>
<!-- Generator: Adobe Illustrator 22.1.0, SVG Export Plug-In . SVG Version: 6.00 Build 0)  -->
<svg version="1.1"
	 id="svg53702" xmlns:cc="http://creativecommons.org/ns#" xmlns:dc="http://purl.org/dc/elements/1.1/" xmlns:rdf="http://www.w3.org/1999/02/22-rdf-syntax-ns#" xmlns:svg="http://www.w3.org/2000/svg"
	 xmlns="http://www.w3.org/2000/svg" xmlns:xlink="http://www.w3.org/1999/xlink" x="0px" y="0px" viewBox="0 0 300 109.1"
	 style="enable-background:new 0 0 300 109.1;" xml:space="preserve">
<style type="text/css">
	.st0{fill:#049FD9;}
</style>
<g id="layer1" transform="translate(-446.85715,-442.59426)">
	<g id="g53688" transform="matrix(1.3796296,0,0,-1.3796296,745.85714,492.3076)">
		<path id="path53690" class="st0" d="M-39.9,10.1c0,1.6-1.3,3-3,3c-1.6,0-3-1.3-3-3V3.9c0-1.6,1.3-3,3-3c1.6,0,3,1.3,3,3V10.1z
			 M-56.1,18.3c0,1.6-1.3,3-3,3c-1.6,0-3-1.3-3-3V3.9c0-1.6,1.3-3,3-3c1.7,0,3,1.3,3,3C-56.1,3.9-56.1,18.3-56.1,18.3z M-72.4,29.5
			c0,1.6-1.3,3-3,3c-1.6,0-3-1.3-3-3V-2c0-1.6,1.3-3,3-3c1.6,0,3,1.3,3,3C-72.4-2-72.4,29.5-72.4,29.5z M-88.7,18.3c0,1.6-1.3,3-3,3
			c-1.6,0-3-1.3-3-3V3.9c0-1.6,1.3-3,3-3c1.6,0,3,1.3,3,3C-88.7,3.9-88.7,18.3-88.7,18.3z M-105,10.1c0,1.6-1.3,3-2.9,3
			c-1.6,0-3-1.3-3-3V3.9c0-1.6,1.3-3,3-3c1.6,0,2.9,1.3,2.9,3C-105,3.9-105,10.1-105,10.1z M-121.3,18.3c0,1.6-1.3,3-3,3
			c-1.6,0-3-1.3-3-3V3.9c0-1.6,1.3-3,3-3c1.6,0,3,1.3,3,3C-121.3,3.9-121.3,18.3-121.3,18.3z M-137.6,29.5c0,1.6-1.3,3-3,3
			c-1.6,0-3-1.3-3-3V-2c0-1.6,1.3-3,3-3c1.6,0,3,1.3,3,3C-137.6-2-137.6,29.5-137.6,29.5z M-153.9,18.3c0,1.6-1.3,3-3,3s-3-1.3-3-3
			V3.9c0-1.6,1.3-3,3-3s3,1.3,3,3V18.3z M-170.2,10.1c0,1.6-1.3,3-3,3c-1.6,0-3-1.3-3-3V3.9c0-1.6,1.3-3,3-3c1.6,0,3,1.3,3,3V10.1
			L-170.2,10.1z M-109-15.6c-0.2,0-2.9,0.8-5.8,0.8c-5.5,0-8.8-3-8.8-7.4c0-3.9,2.8-5.9,6.1-6.9c0.4-0.1,0.9-0.3,1.3-0.4
			c1.5-0.5,2.7-1.2,2.7-2.4c0-1.3-1.4-2.2-4.3-2.2c-2.6,0-5.1,0.7-5.6,0.9v-5.4c0.3-0.1,3.3-0.6,6.4-0.6c4.6,0,9.8,2,9.8,7.9
			c0,2.9-1.8,5.5-5.6,6.8l-1.6,0.5c-1,0.3-2.7,0.8-2.7,2.3c0,1.1,1.3,1.9,3.7,1.9c2.1,0,4.6-0.7,4.7-0.7L-109-15.6L-109-15.6z
			 M-58.5-27.1c0-3.4-2.6-6.2-6.2-6.2c-3.5,0-6.2,2.8-6.2,6.2c0,3.4,2.6,6.2,6.2,6.2C-61.1-20.9-58.5-23.7-58.5-27.1 M-64.6-14.9
			c-7.3,0-12.5-5.5-12.5-12.3c0-6.8,5.2-12.3,12.5-12.3c7.3,0,12.5,5.5,12.5,12.3C-52.1-20.4-57.4-14.9-64.6-14.9 M-145.8-15.7
			c-0.6,0.2-2.6,0.8-5.4,0.8c-7.3,0-12.6-5.2-12.6-12.3c0-7.6,5.9-12.3,12.6-12.3c2.7,0,4.7,0.6,5.4,0.8v6.4c-0.3-0.1-2.2-1.3-5-1.3
			c-4,0-6.5,2.8-6.5,6.3c0,3.6,2.7,6.3,6.5,6.3c2.9,0,4.8-1.1,5-1.3V-15.7z M-83.4-15.7c-0.6,0.2-2.6,0.8-5.4,0.8
			c-7.3,0-12.6-5.2-12.6-12.3c0-7.6,5.9-12.3,12.6-12.3c2.7,0,4.7,0.6,5.4,0.8v6.4c-0.3-0.1-2.2-1.3-5-1.3c-4,0-6.5,2.8-6.5,6.3
			c0,3.6,2.7,6.3,6.5,6.3c2.9,0,4.8-1.1,5-1.3V-15.7z M-131.6-39h-6v23.7h6V-39z"/>
	</g>
</g>
</svg>
