<?xml version="1.0" encoding="utf-8"?>
<!-- Generator: Adobe Illustrator 22.1.0, SVG Export Plug-In . SVG Version: 6.00 Build 0)  -->
<svg version="1.1" id="Layer_1" xmlns="http://www.w3.org/2000/svg" xmlns:xlink="http://www.w3.org/1999/xlink" x="0px" y="0px"
	 viewBox="0 0 789 186" style="enable-background:new 0 0 789 186;" xml:space="preserve">
<style type="text/css">
	.st0{fill:none;}
	.st1{fill:#282561;}
	.st2{fill:#2AABE2;}
	.st3{clip-path:url(#SVGID_2_);fill:#282561;}
	.st4{clip-path:url(#SVGID_4_);fill:#2AABE2;}
	.st5{clip-path:url(#SVGID_6_);fill:#2AABE2;}
	.st6{clip-path:url(#SVGID_8_);fill:#2AABE2;}
</style>
<rect x="-53" y="-21.5" class="st0" width="898.7" height="256.5"/>
<path class="st1" d="M751.3,132.3c0,0.9,0.7,1.7,1.7,1.7h8.5c0.9,0,1.7-0.8,1.7-1.7V103l21.3-30.6c0.7-1.2,0-2.7-1.5-2.7h-9.5
	c-0.7,0-1.2,0.5-1.5,0.8l-14.7,21.2l-14.7-21.2c-0.3-0.4-0.7-0.8-1.5-0.8h-9.4c-1.5,0-2.2,1.5-1.5,2.7l21,30.7L751.3,132.3
	L751.3,132.3z M679.9,132.3c0,0.9,0.7,1.7,1.7,1.7h8.5c0.9,0,1.7-0.8,1.7-1.7v-23.3h22.7c0.9,0,1.7-0.8,1.7-1.8v-7.5
	c0-0.9-0.8-1.7-1.7-1.7h-22.7V80.7h27.2c1,0,1.7-0.8,1.7-1.7v-7.5c0-0.9-0.7-1.7-1.7-1.7h-37.5c-1,0-1.7,0.8-1.7,1.7V132.3z
	 M645.6,132.3c0,0.9,0.8,1.7,1.7,1.7h8.6c0.9,0,1.7-0.8,1.7-1.7V71.4c0-0.9-0.8-1.7-1.7-1.7h-8.6c-0.9,0-1.7,0.8-1.7,1.7V132.3z
	 M584.1,122.9V80.8h10.5c12,0,20.7,9,20.7,21c0,12.1-8.7,21.1-20.7,21.1H584.1z M572.2,132.3c0,0.9,0.7,1.7,1.7,1.7h21.8
	c17.8,0,32.3-14.4,32.3-32.3c0-17.7-14.5-32.1-32.3-32.1h-21.8c-0.9,0-1.7,0.8-1.7,1.7V132.3z M499.6,109.7
	c0,14,11.1,25.3,25.6,25.3c14.5,0,25.7-11.3,25.7-25.3V71.4c0-0.9-0.8-1.7-1.7-1.7h-8.7c-1,0-1.7,0.8-1.7,1.7v37.7
	c0,7.7-5.4,13.9-13.4,13.9c-8,0-13.3-6.2-13.3-14V71.4c0-0.9-0.7-1.7-1.7-1.7h-8.7c-0.9,0-1.7,0.8-1.7,1.7L499.6,109.7L499.6,109.7z
	 M428.7,102c0-11.6,9.5-21.3,21.1-21.3c11.6,0,21.2,9.7,21.2,21.3s-9.6,21.1-21.2,21.1C438.2,123,428.7,113.6,428.7,102 M416.8,102
	c0,18.4,14.6,33,33,33c18.4,0,33.1-14.6,33.1-33s-14.7-33.2-33.1-33.2C431.4,68.7,416.8,83.6,416.8,102 M370,132.3
	c0,0.9,0.7,1.7,1.7,1.7h33.7c1,0,1.8-0.8,1.8-1.7v-7.5c0-0.9-0.7-1.7-1.8-1.7H382V71.4c0-0.9-0.8-1.7-1.7-1.7h-8.5
	c-1,0-1.7,0.8-1.7,1.7L370,132.3L370,132.3z M296.9,102c0,18.4,14.8,33,33.2,33c8.2,0,16.1-2.9,22.4-8.9c0.6-0.6,0.8-1.8,0.1-2.5
	l-5.7-5.9c-0.6-0.6-1.6-0.6-2.3,0c-3.9,3.1-8.6,5.2-14.1,5.2c-11.8,0-20.6-9.8-20.6-21.3c0-11.6,8.7-21.4,20.5-21.4
	c5.2,0,10.3,2,14.2,5.4c0.7,0.7,1.7,0.7,2.3,0l5.6-5.8c0.7-0.7,0.7-1.8-0.1-2.6c-6.3-5.6-13-8.6-22.3-8.6
	C311.7,68.7,296.9,83.6,296.9,102"/>
<rect x="-53" y="-21.5" class="st0" width="898.7" height="256.5"/>
<path class="st2" d="M188.3,34.7c-17.3-23-49.6-29.9-74.8-16c-1.5,0.8-2.9,1.7-4.3,2.6c-8.6,5.7-15.1,13.2-19.5,21.7
	c-0.5,1-1.3,1.9-2.2,2.5c-1.6,1.1-3.6,1.4-5.6,0.9c-8.9-2.5-18.5-2.6-27.6,0c-6.1,1.7-11,4.3-14.5,6.7c-1.2,0.8-2.3,1.6-3.2,2.3
	c0,0-2.5,1.8-5.2,4.3l8.4,9.3c2.3-2,4.5-3.6,4.6-3.7c0.7-0.6,1.5-1.2,2.4-1.7c3.4-2.3,7.1-4,11-5c6.8-1.9,14-1.9,20.8,0
	c5.4,1.5,11.2,0.6,15.9-2.5c2.7-1.8,5-4.3,6.4-7.2c3.6-6.8,8.9-12.7,15.3-17c1.1-0.7,2.2-1.4,3.4-2c19.8-10.9,45.1-5.5,58.7,12.6
	c7.8,10.3,10.8,22.9,8.7,35.6c-2.2,12.7-9.3,23.5-20,30.6c-13.2,8.7-29.7,10.1-44.3,3.5c-6.1-2.7-13-2.1-18.5,1.6
	c-1.9,1.3-3.6,2.9-5,4.7c-2.7,3.7-6,6.9-9.8,9.4c-9,5.9-19.7,7.9-30.2,5.4c-10.5-2.5-19.2-9-24.6-18.4c-4.2-7.3-5.1-15.2-4.5-22.4
	c2.3,1.6,5.5,1.6,7.7-0.3c0.2-0.1,0.3-0.3,0.5-0.5c2.4-2.5,2.3-6.5-0.2-8.9L27.7,72.6c-1.9-1.8-4.6-2.2-6.8-1.3
	c-0.3,0.1-0.5,0.3-0.8,0.4c-0.1,0.1-0.2,0.1-0.3,0.2c-0.1,0-0.1,0.1-0.2,0.1c-0.3,0.2-0.6,0.4-0.8,0.7c0,0,0,0,0,0l-9.2,9.5
	c-2.4,2.5-2.3,6.5,0.2,8.9c2.1,2.1,5.3,2.3,7.7,0.8c-0.7,9.4,0.8,19.6,6.2,29c14.9,25.9,48.2,33.5,72.7,17.3
	c5.2-3.5,9.6-7.7,13.1-12.5c0.5-0.7,1.1-1.2,1.7-1.6c1.9-1.2,4.3-1.5,6.5-0.6c17.7,8,38.9,7,56.3-4.5
	C201.9,100.4,208.9,62,188.3,34.7"/>
<g>
	<defs>
		<rect id="SVGID_1_" x="-53" y="-21.5" width="898.7" height="256.5"/>
	</defs>
	<clipPath id="SVGID_2_">
		<use xlink:href="#SVGID_1_"  style="overflow:visible;"/>
	</clipPath>
	<path class="st3" d="M220.5,139.6c-2.8,1.2-5.7,2-8.6,2.5c-6.9,1.2-14.1,0.4-20.7-2.2c-5.2-2.1-11.1-1.8-16.1,0.8
		c-2.9,1.5-5.4,3.8-7.1,6.4c-4.3,6.4-10.1,11.7-17,15.3c-1.2,0.6-2.4,1.2-3.6,1.7c-18.1,7.6-39.1,2.5-51.9-11.7
		c-1.4,1.1-2.9,2.1-4.4,3.1c-2.1,1.3-4.2,2.6-6.3,3.7c16.2,19.3,43.7,26.5,67.4,16.5c1.6-0.6,3.1-1.4,4.5-2.1
		c9.1-4.7,16.4-11.5,21.7-19.5c0.6-1,1.5-1.7,2.5-2.2c1.7-0.9,3.8-1,5.6-0.3c8.6,3.4,18.1,4.5,27.4,2.9c4.5-0.8,8.5-2.1,11.8-3.5
		L220.5,139.6z"/>
</g>
<g>
	<defs>
		<rect id="SVGID_3_" x="-53" y="-21.5" width="898.7" height="256.5"/>
	</defs>
	<clipPath id="SVGID_4_">
		<use xlink:href="#SVGID_3_"  style="overflow:visible;"/>
	</clipPath>
	<path class="st4" d="M106.9,28.8c-0.1-0.2-0.3-0.3-0.4-0.5l-6.6-6.1c-0.3-0.3-0.6-0.5-0.9-0.7c-3.3,2.6-6.2,5.4-8.9,8.4
		c0.3,0.4,0.6,0.8,0.9,1.2l6.6,6.1c2.5,2.5,6.4,2.5,8.9,0C108.8,34.9,108.9,31.2,106.9,28.8"/>
</g>
<g>
	<defs>
		<rect id="SVGID_5_" x="-53" y="-21.5" width="898.7" height="256.5"/>
	</defs>
	<clipPath id="SVGID_6_">
		<use xlink:href="#SVGID_5_"  style="overflow:visible;"/>
	</clipPath>
	<path class="st5" d="M140.3,5.5c-4.2-0.1-8.3,0.2-12.5,0.8c0,0.1,0,0.1,0,0.2l0.9,8.9c0.2,3.5,3.2,6.1,6.7,5.9
		c3.2-0.2,5.7-2.8,5.9-6c0-0.2,0-0.4,0-0.7l-0.9-8.9C140.3,5.7,140.3,5.6,140.3,5.5"/>
</g>
<g>
	<defs>
		<rect id="SVGID_7_" x="-53" y="-21.5" width="898.7" height="256.5"/>
	</defs>
	<clipPath id="SVGID_8_">
		<use xlink:href="#SVGID_7_"  style="overflow:visible;"/>
	</clipPath>
	<path class="st6" d="M179.5,17.3c-3.4-2.5-7-4.7-10.7-6.5l-4.9,7c-2.1,2.8-1.5,6.7,1.2,8.8c2.6,2,6.2,1.6,8.4-0.7
		c0.1-0.2,0.3-0.3,0.4-0.5l5.1-7.3C179.2,17.8,179.3,17.6,179.5,17.3"/>
</g>
<rect x="-53" y="-21.5" class="st0" width="898.7" height="256.5"/>
<path class="st1" d="M254.7,131c-1.2-2.7-4-4.1-6.8-3.7c4.3-8.4,6.8-18.4,5.4-29.2c-2.9-22.3-19.4-39-39.7-43.5
	c0.9,4.5,1.2,8.9,1.1,13.3c3.6,1.2,7.1,3,10.4,5.3c8.7,6.3,14.3,15.7,15.7,26.4c1.1,8.3-1.1,16-4.4,22.4c-1.5-2.4-4.5-3.5-7.2-2.7
	c-0.2,0.1-0.4,0.1-0.6,0.2c-3.2,1.4-4.6,5.1-3.3,8.3l5.8,13.3c1,2.4,3.4,3.8,5.8,3.8c0.3,0,0.6-0.1,0.9-0.1c0.1,0,0.2,0,0.4,0
	c0.1,0,0.1,0,0.2-0.1c0.3-0.1,0.7-0.2,1-0.3c0,0,0,0,0,0l12.1-5.3C254.7,137.9,256.1,134.2,254.7,131"/>
</svg>
