<svg id="Layer_1" data-name="Layer 1" xmlns="http://www.w3.org/2000/svg" viewBox="0 0 264.98 61.93"><path d="M121.37,94.09V79.84H108.85V94.09h-6.39V60.31h6.39v13.9h12.52V60.31h6.39V94.09Z" transform="translate(-31.24 -46.03)"/><path d="M151.14,94.09h-5.07l-.45-1.67a13.54,13.54,0,0,1-7.36,2.18c-4.51,0-6.44-3.1-6.44-7.36,0-5,2.18-6.95,7.2-6.95H145V77.71c0-2.74-.76-3.7-4.72-3.7a34.31,34.31,0,0,0-6.85.76l-.76-4.72a32.27,32.27,0,0,1,8.47-1.17c7.76,0,10,2.74,10,8.93ZM145,84.76h-4.57c-2,0-2.58.56-2.58,2.43s.55,2.49,2.48,2.49A9.74,9.74,0,0,0,145,88.41Z" transform="translate(-31.24 -46.03)"/><path d="M163.11,94.6a29.24,29.24,0,0,1-8.52-1.42l.87-4.72a27.48,27.48,0,0,0,7.35,1.07c2.74,0,3.14-.61,3.14-2.49,0-1.52-.3-2.28-4.31-3.25-6-1.47-6.74-3-6.74-7.76,0-5,2.18-7.15,9.23-7.15a32.36,32.36,0,0,1,7.4.87l-.61,4.92a42.72,42.72,0,0,0-6.79-.71c-2.69,0-3.15.6-3.15,2.13,0,2,.16,2.13,3.5,3,6.9,1.82,7.56,2.74,7.56,7.81C172,91.66,170.57,94.6,163.11,94.6Z" transform="translate(-31.24 -46.03)"/><path d="M190.45,94.09V76.85c0-1.32-.56-2-2-2A17,17,0,0,0,182,77V94.09h-6.19V59.3l6.19-.86V71.27a21.81,21.81,0,0,1,9-2.39c4.11,0,5.58,2.89,5.58,7.31v17.9Z" transform="translate(-31.24 -46.03)"/><path d="M201.2,65.89V58.74h6.19v7.15Zm0,28.2V69.39h6.19v24.7Z" transform="translate(-31.24 -46.03)"/><path d="M211.7,69.59c0-6.18,3.6-9.78,12-9.78a38.22,38.22,0,0,1,9.18,1.11l-.71,5.53a49.47,49.47,0,0,0-8.27-.86c-4.41,0-5.83,1.52-5.83,5.12v13c0,3.6,1.42,5.13,5.83,5.13a49.54,49.54,0,0,0,8.27-.87l.71,5.53a38.22,38.22,0,0,1-9.18,1.12c-8.42,0-12-3.6-12-9.79Z" transform="translate(-31.24 -46.03)"/><path d="M245.58,94.6c-8.47,0-10.75-4.67-10.75-9.74V78.62c0-5.07,2.28-9.74,10.75-9.74s10.75,4.67,10.75,9.74v6.24C256.33,89.93,254.05,94.6,245.58,94.6Zm0-20.44c-3.3,0-4.56,1.47-4.56,4.26v6.64c0,2.79,1.26,4.26,4.56,4.26s4.56-1.47,4.56-4.26V78.42C250.14,75.63,248.88,74.16,245.58,74.16Z" transform="translate(-31.24 -46.03)"/><path d="M272.76,74.56a49.09,49.09,0,0,0-6.54,3.6V94.09H260V69.39h5.23l.4,2.74a27.74,27.74,0,0,1,6.5-3.25Z" transform="translate(-31.24 -46.03)"/><path d="M296.22,85.87c0,5.48-2.43,8.73-8.16,8.73a34.47,34.47,0,0,1-6.59-.71v10.19l-6.19.86V69.39h4.92l.61,2.08a13,13,0,0,1,7.81-2.59c5,0,7.6,3,7.6,8.57Zm-14.75,2.79a27,27,0,0,0,5.47.66c2.24,0,3.1-1.06,3.1-3.29V77.3c0-2-.76-3.14-3.05-3.14a8.71,8.71,0,0,0-5.52,2.23Z" transform="translate(-31.24 -46.03)"/><polygon points="24.38 0 0 14.06 0 14.08 0 47.85 9.16 53.13 9.16 19.35 24.38 10.56 24.38 0"/><polygon points="34.11 0 34.11 26.91 24.38 26.91 24.38 16.86 15.22 22.15 15.22 56.62 24.38 61.92 24.38 35.09 34.11 35.09 34.11 45.07 43.27 39.78 43.27 5.29 34.11 0"/><polygon points="34.11 61.93 58.49 47.87 58.49 47.86 58.49 14.09 49.33 8.8 49.33 42.58 34.11 51.37 34.11 61.93"/></svg>