<?xml version="1.0" encoding="utf-8"?>
<!-- Generator: Adobe Illustrator 23.0.6, SVG Export Plug-In . SVG Version: 6.00 Build 0)  -->
<svg version="1.1" id="Layer_1" xmlns="http://www.w3.org/2000/svg" xmlns:xlink="http://www.w3.org/1999/xlink" x="0px" y="0px"
	 viewBox="0 0 398.7 152.5" style="enable-background:new 0 0 398.7 152.5;" xml:space="preserve">
<style type="text/css">
	.st0{fill:#0071C5;}
</style>
<g>
	<path class="st0" d="M193.4,133.8c-44.2,4.1-90.2-2.3-96.6-36.8c-3.2-17,4.6-35,14.9-46.3v-6c-18.5,16.2-28.6,36.8-22.8,61.1
		c7.4,31.1,46.9,48.8,107.2,42.9c23.9-2.3,55.1-10,76.8-21.9v-16.9C253.1,121.5,220.5,131.2,193.4,133.8z M309.7,44.3
		C299.2-6.9,199.9-10.1,135.9,28.8v4.3C199.8,0.3,290.5,0.5,298.8,47.6c2.8,15.6-6,31.8-21.7,41.2v12.2
		C295.9,94,315.3,71.7,309.7,44.3z"/>
	<path class="st0" d="M269.2,36.8h-11.6v51.5c0,6.1,2.9,11.3,11.6,12.1V36.8z"/>
	<path class="st0" d="M131.4,55.6h-11.6l0,33.7c0,6.1,2.9,11.3,11.6,12.1V55.6z"/>
	<rect x="119.8" y="38.4" class="st0" width="11.6" height="11"/>
	<path class="st0" d="M200.7,100.9c-9.4,0-13.3-6.5-13.3-12.9V43.3h11.5v12.4h8.6v9.3h-8.6v22.4c0,2.6,1.2,4.1,4,4.1h4.7v9.6H200.7"
		/>
	<path class="st0" d="M221.8,81.9c0,5.9,3.7,10.2,10.2,10.2c5.1,0,7.6-1.4,10.5-4.3l7.1,6.8c-4.5,4.5-9.3,7.2-17.7,7.2
		c-11,0-21.5-6-21.5-23.5c0-14.9,9.2-23.4,21.3-23.4c12.2,0,19.3,9.9,19.3,22.9v4.1H221.8 M231.1,64.4c-3.9,0-7,2-8.2,4.8
		c-0.8,1.6-1,2.9-1.1,4.9h17.7C239.3,69.1,237,64.4,231.1,64.4z"/>
	<path class="st0" d="M162.5,64.9c3.4,0,4.8,1.7,4.8,4.4V101h11.5V69.2c0-6.4-3.4-13.6-13.5-13.6l-23.7,0V101H153V64.9H162.5z"/>
	<g>
		<path class="st0" d="M281.7,46c-2.6,0-4.6-2.1-4.6-4.6s2-4.6,4.6-4.6c2.5,0,4.6,2.1,4.6,4.6S284.2,46,281.7,46z M281.7,37.6
			c-2.1,0-3.8,1.7-3.8,3.8c0,2.1,1.7,3.8,3.8,3.8c2.1,0,3.8-1.7,3.8-3.8C285.5,39.3,283.8,37.6,281.7,37.6z M283.7,44.2h-0.9
			c-0.1,0-0.1,0-0.2-0.1l-1.2-2c0,0-0.1-0.1-0.2-0.1c0,0-0.2,0-0.3,0c-0.1,0-0.2,0-0.2,0v2c0,0.1-0.1,0.2-0.2,0.2h-0.8
			c-0.1,0-0.2-0.1-0.2-0.2v-5c0-0.3,0.1-0.4,0.4-0.4c0.3,0,1-0.1,1.4-0.1c1.4,0,2.3,0.4,2.3,1.8v0.1c0,0.8-0.4,1.3-1,1.5l1.2,2.1
			c0,0,0,0.1,0,0.1C283.9,44.1,283.9,44.2,283.7,44.2z M282.6,40.2c0-0.6-0.3-0.7-1.1-0.7c-0.1,0-0.3,0-0.5,0c-0.1,0-0.2,0-0.2,0
			v1.6c0.1,0,0.6,0,0.7,0C282.3,41.1,282.6,40.9,282.6,40.2L282.6,40.2z"/>
	</g>
</g>
</svg>
