<?xml version="1.0" encoding="utf-8"?>
<!-- Generator: Adobe Illustrator 22.1.0, SVG Export Plug-In . SVG Version: 6.00 Build 0)  -->
<svg version="1.1" id="Layer_1" xmlns="http://www.w3.org/2000/svg" xmlns:xlink="http://www.w3.org/1999/xlink" x="0px" y="0px"
	 viewBox="0 0 505.5 94.5" style="enable-background:new 0 0 505.5 94.5;" xml:space="preserve">
<style type="text/css">
	.st0{fill:#ED1944;}
	.st1{fill:#4E4540;}
</style>
<g>
	<g>
		<path class="st0" d="M97.9,4.6h-71c-4.5,0-8.1,3.6-8.1,8.1v19.1h19.7v-3.1c0-2.4,2-4.4,4.4-4.4h39.1c2.4,0,4.4,2,4.4,4.4v3.1H106
			V12.7C106,8.2,102.3,4.6,97.9,4.6z"/>
		<path class="st0" d="M86.3,65.9c0,2.4-2,4.4-4.4,4.4H42.8c-2.4,0-4.4-2-4.4-4.4v-3.1H18.7v19.1c0,4.5,3.6,8.1,8.1,8.1h71
			c4.5,0,8.1-3.6,8.1-8.1V62.8H86.3V65.9z"/>
		<rect x="18.7" y="37.4" class="st0" width="19.7" height="19.7"/>
		<rect x="86.3" y="37.4" class="st0" width="19.7" height="19.7"/>
	</g>
</g>
<path class="st1" d="M499.4,63.8c0-3.1-2.5-5.5-5.5-5.5c-3.1,0-5.5,2.5-5.5,5.5c0,3.1,2.5,5.5,5.5,5.5
	C496.9,69.4,499.4,66.9,499.4,63.8z M493.8,68c-2.3,0-4.2-1.9-4.2-4.2c0-2.3,1.9-4.2,4.2-4.2s4.2,1.9,4.2,4.2
	C498,66.1,496.1,68,493.8,68z"/>
<path class="st1" d="M495.9,62.8L495.9,62.8c0-0.6-0.2-1-0.5-1.3c-0.3-0.3-0.8-0.5-1.5-0.5h-2v5.4h1.1v-1.8h0.7l1,1.8h1.3l-1.2-2
	C495.5,64.2,495.9,63.6,495.9,62.8z M494.8,62.9c0,0.5-0.3,0.8-0.9,0.8H493V62h0.8C494.4,62,494.8,62.3,494.8,62.9L494.8,62.9z"/>
<path class="st1" d="M166.4,47.7v-0.8c0-13.1-8.6-22.6-20.3-22.6c-11.8,0-20.5,9.7-20.5,22.7v0.8c0,13.1,8.6,22.6,20.3,22.6
	C157.8,70.3,166.4,60.7,166.4,47.7z M135.1,47.5V47c0-8.3,4.3-14.4,10.9-14.4c6.4,0,11,6.2,11,14.4v0.5c0,8.3-4.3,14.4-10.9,14.4
	C139.7,62,135.1,55.8,135.1,47.5z"/>
<path class="st1" d="M211.4,47.8v-1.2c0-15-8.4-22.4-17.2-22.4c-6.3,0-10.2,3.7-12.9,7.9v-7.1h-9.4V82h9.4V62.7
	c2.7,3.9,6.5,7.5,12.9,7.5C203.1,70.2,211.4,62.7,211.4,47.8z M181.1,47.7v-0.8c0-8.7,4.8-14.2,10.5-14.2c5.7,0,10.3,5.4,10.3,14.3
	v0.8c0,8.9-4.5,14.2-10.3,14.2C185.9,61.9,181.1,56.3,181.1,47.7z"/>
<path class="st1" d="M252.3,63.4l-4.9-5.8c-2.9,2.8-6,4.7-10.2,4.7c-5.8,0-10.4-4-11.2-11.4h27.7c0.1-1.3,0.1-2.7,0.1-3.3
	c0-13.3-6.3-23.3-18.4-23.3c-10.9,0-18.9,9.5-18.9,22.8v0.7c0,13.9,8.9,22.6,20.2,22.6C243.3,70.3,248.3,67.7,252.3,63.4z
	 M235.4,32.2c5.5,0,8.7,5.1,9.2,12.1h-18.7C226.5,36.8,230.2,32.2,235.4,32.2z"/>
<path class="st1" d="M281.5,24.3c-6,0-9.6,3.4-12.1,7.4v-6.5h-9.4v44.3h9.4V42.6c0-6.1,3.4-9.8,8.4-9.8c5,0,7.9,3.4,7.9,9.6v27h9.4
	V39.7C295.1,30.3,290,24.3,281.5,24.3z"/>
<path class="st1" d="M333.1,56.8L333.1,56.8c0-7-5.2-10.2-12-13.3c-5.2-2.3-8.7-3.8-8.7-6.8v-0.2c0-2.4,2.1-4.3,5.6-4.3
	c3.5,0,7.2,1.7,10.5,3.9l4-6.9c-4.2-3-9.4-4.8-14.4-4.8c-8.3,0-14.6,5-14.6,12.9v0.2c0,7.3,5.5,10.3,12.1,13.1
	c5.3,2.3,8.7,3.7,8.7,6.8v0.1c0,2.8-2.3,4.8-6.2,4.8s-8.2-1.9-12.2-5.2l-4.4,6.8c5.1,4.3,11.2,6.2,16.5,6.2
	C326.5,70.2,333.1,65.4,333.1,56.8z"/>
<path class="st1" d="M362.4,68.1v-7.8c-1.6,0.8-3.3,1.3-5.1,1.3c-3,0-4.8-1.4-4.8-4.8V33.2h9.9v-8.1h-9.9V13.2h-9.4v11.9h-4.8
	l1.6,8.1h3.3v25.5c0,8.6,4.9,11.4,11.4,11.4C357.7,70,360.2,69.3,362.4,68.1z"/>
<path class="st1" d="M398.5,29.1c-2.8-2.9-7.3-4.5-13-4.5c-5.9,0-10.4,1.4-14.6,3.5l2.7,7.5c2.9-1.3,6.4-2.7,10.7-2.7
	c6,0,9.5,3.1,9.5,9v1.8c-3-1-6-1.8-10.2-1.8c-9.4,0-15.7,4.7-15.7,14.2v0.4c0,8.6,6.2,13.5,13.5,13.5c5.8,0,9.7-2.5,12.3-6.3v5.4
	h9.3V41.9C403,36.4,401.5,32,398.5,29.1z M393.9,54.5c0,5-4.2,8.7-9.6,8.6c-4.1-0.1-7.2-2.6-7.2-7v-0.2c0-4.7,3.2-7.4,8.6-7.4
	c3.2,0,6,0.7,8.2,1.6V54.5z"/>
<path class="st1" d="M443.1,63.6l-5.1-6.3c-2.6,2.6-5.2,4.5-9,4.5c-6.4,0-10.9-5.8-10.9-14.4v-0.4c0-8.4,4.5-14.3,10.7-14.3
	c4,0,6.6,2,8.9,4.4l5.3-6.9c-3.7-3.7-7.9-6-14.2-6c-11.6,0-20.2,9.5-20.2,22.7v0.8c0,13.2,8.4,22.5,19.9,22.5
	C435.1,70.3,439.6,67.5,443.1,63.6z"/>
<g>
	<polygon class="st1" points="472,46.4 465.3,53.5 474.2,69.4 485.2,69.4 	"/>
	<polygon class="st1" points="473.6,25.1 458.4,44.6 458.4,9.1 449,9.1 449,69.4 458.4,69.4 458.4,56.6 484.7,25.1 	"/>
</g>
</svg>
