<svg id="Layer_1" xmlns="http://www.w3.org/2000/svg" viewBox="0 0 170 80">
  <style>
    .st0{fill:#717073;}
  </style>
  <path class="st0" d="M154.15 30.13c0-.7-.5-1.2-1.2-1.2s-1.2.5-1.2 1.2.5 1.2 1.2 1.2c.6 0 1.2-.5 1.2-1.2 0 .1 0 .1 0 0m-2.7 0c0-.8.6-1.5 1.4-1.5.8 0 1.5.6 1.5 1.4v.1c0 .8-.7 1.5-1.5 1.5-.7.1-1.4-.5-1.5-1.2.1-.2.1-.2.1-.3"/>
  <path class="st0" d="M153.05 30.13c.1 0 .2-.1.3-.2 0-.2-.1-.2-.3-.2h-.3v.4h.3zm-.6-.6c0-.1 0-.1.1-.2h.5c.2 0 .3.1.4.2.1.1.1.2.1.3 0 .2-.1.4-.3.4l.2.3.1.1c0 .1 0 .1-.1.2-.1 0-.1-.1-.2-.1l-.3-.4h-.3v.3c0 .1-.1.2-.2.2s-.2-.1-.2-.2l.2-1.1zM76.25 48.13l-6.2-17.2c-.1-.3-.2-.5-.2-.8 0-.8.7-1.5 1.5-1.5.7 0 1.4.5 1.5 1.3l5.1 14.8 5.2-14.9c.2-.7.8-1.2 1.5-1.2h.2c.7 0 1.4.5 1.6 1.2l5.1 14.9 5.2-14.9c.2-.7.8-1.2 1.5-1.2.8 0 1.5.6 1.5 1.4 0 .3-.1.6-.2.8l-6.2 17.2c-.2.8-.9 1.3-1.7 1.4h-.1c-.8 0-1.5-.6-1.7-1.4l-5.1-14.6-5.1 14.6c-.2.8-.9 1.4-1.7 1.4h-.1c-.7 0-1.4-.5-1.6-1.3M121.35 30.13c0-.8.7-1.5 1.5-1.5s1.5.6 1.5 1.5v3.6c1.2-2.8 3.9-4.8 7-5 .8 0 1.5.6 1.5 1.5v.1c0 .8-.6 1.5-1.4 1.5-3.9.5-7.2 3.5-7.2 9.3v6.9c0 .8-.7 1.5-1.5 1.5s-1.5-.7-1.5-1.5v-17.9h.1zM148.65 38.03c-.3-3.7-2.4-6.9-6.4-6.9-3.5 0-6.1 2.9-6.5 6.9h12.9zm-6 11.7c-5.5 0-10-4.2-10-10.5v-.1c0-5.8 4.1-10.5 9.6-10.5 5.9 0 9.3 4.9 9.3 10.2 0 .8-.6 1.4-1.4 1.4h-14.5c.4 4.3 3.5 6.8 7 6.8 2.2 0 4.2-.8 5.8-2.4.2-.2.5-.4.8-.4.7 0 1.3.6 1.3 1.3 0 .4-.2.7-.5 1-1.8 2.1-4.5 3.3-7.4 3.2M114.85 41.73v-2c-1.9-.6-3.9-.9-6-.9-3.8 0-5.9 1.7-5.9 4.2v.1c0 2.6 2.4 4 5.1 4 3.7.1 6.8-2.1 6.8-5.4m-15 1.6c0-4.4 3.6-6.6 8.7-6.6 2.1 0 4.2.3 6.2.9v-.7c0-3.7-2.3-5.6-6.1-5.6-1.6-.1-3.2.2-4.7.9-.2.1-.4.1-.6.1-.7 0-1.3-.6-1.4-1.3 0-.6.3-1.1.8-1.3 1.9-.9 4-1.3 6.1-1.2 2.9 0 5.1.7 6.5 2.3 1.5 1.6 2.2 3.7 2.1 5.9v11.2c0 .8-.6 1.5-1.4 1.5h-.1c-.8 0-1.4-.5-1.5-1.3v-2c-1.7 2.3-4.5 3.6-7.3 3.5-3.5.1-7.3-2.1-7.3-6.3M21.15 29.93c-.7-1.5-2.4-2.1-3.8-1.4h-.1c-1.4.6-2.1 2.3-1.5 3.8v.1l6.4 14c1 2.2 2.1 3.4 4.1 3.4 2.1 0 3.1-1.3 4.1-3.4 0 0 5.7-12.3 5.7-12.4.1-.3.4-.5.8-.5.5 0 .9.4.9.9v12c0 1.8 1 3.4 3 3.4s3-1.5 3-3.4v-9.8c-.1-1.7 1.3-3.1 2.9-3.1h.3c1.6-.1 3 1.2 3.1 2.8V46.43c0 1.8 1 3.4 3 3.4s3-1.5 3-3.4v-9.8c-.1-1.7 1.3-3.1 2.9-3.1h.3c1.6-.1 3 1.2 3.1 2.8V46.43c0 1.8 1 3.4 3 3.4s3-1.5 3-3.4v-11.2c.1-4.1-3.2-7-7.2-7-2.4 0-4.7 1-6.4 2.7-1.3-1.7-3.1-2.7-6.2-2.7-3.2 0-6.1 2.7-6.1 2.7-1.3-1.7-3.3-2.6-5.4-2.7-2.9-.1-5.6 1.7-6.5 4.5l-4.1 9.7-5.3-12.5z"/>
</svg> 