<svg width="170" height="80" xmlns="http://www.w3.org/2000/svg"><style>.st0{fill:#FF9900;}</style><path id="svg_1" d="M55.6 31.23l-7.8-2.6v-11.3l7.8 2.3v11.6zm2-11.6l7.8-2.3v11.3l-7.8 2.6v-11.6m6.2-3.5l-7.3-2.3-7.2 2.3 7.2 1.9 7.3-1.9m11.4 15.1l-7.8-2.6v-11.3l7.8 2.3v11.6zm2.1-11.6l7.8-2.3v11.3l-7.8 2.6v-11.6m6.2-3.5l-7.3-2.3-7.2 2.3 7.2 1.9 7.3-1.9m-57.5 20l-7.8-2.3v11.3l7.8 2.6v-11.6zm2.1 0l7.8-2.3v11.3l-7.8 2.6v-11.6m6.2-3.6l-7.3-2.3-7.2 2.3 7.2 1.9 7.3-1.9m11.4 15.1l-7.8-2.6v-11.3l7.8 2.3v11.6zm2-11.5l7.8-2.3v11.3l-7.8 2.6v-11.6m6.3-3.6l-7.3-2.3-7.2 2.3 7.2 1.9 7.3-1.9m-18.1 31.6l-7.8-2.6v-11.3l7.8 2.3v11.6zm2-11.5l7.8-2.3v11.3l-7.8 2.6v-11.6m6.2-3.6l-7.3-2.3-7.2 2.3 7.2 1.9 7.3-1.9" class="st0"/><g id="svg_2"><path id="svg_3" d="M70.45 54.18h-.6c-.2 0-.5.1-.6.4l-1.7 6.1-1.7-6.1c-.1-.2-.3-.4-.5-.4h-.7c-.2 0-.4.2-.5.4l-1.6 6-1.6-6.1c-.1-.2-.3-.4-.5-.4h-.8c-.2 0-.3.1-.4.2-.1.1-.1.2-.1.3l2.5 9.1c.1.2.2.4.5.4h.8c.2 0 .4-.2.5-.4l1.6-6 1.7 6c.1.2.2.4.5.4h.8c.2 0 .4-.2.5-.4l2.5-9.1c0-.1 0-.2-.1-.3-.2 0-.3-.1-.5-.1zm5 0c-2.9 0-4.3 2.6-4.3 5 0 3 1.6 4.9 4.2 4.9 1.7.1 3.3-.9 3.8-2.5v-.3c-.1-.1-.2-.2-.3-.2l-.8-.1c-.2 0-.5.1-.5.3-.3.8-1.1 1.4-2 1.4-.9 0-1.6-.5-2-1.3-.3-.6-.4-1.2-.3-1.9h5.9c.1 0 .3-.1.3-.1.1-.1.1-.2.1-.3-.1-2.5-1.2-4.9-4.1-4.9zm2.1 3.9h-4.3c0-1.3 1-2.4 2.2-2.5 1.4 0 2.1 1.2 2.1 2.5zm7.4-4h-.2c-.9 0-1.8.4-2.3 1.2v-3.8c0-.2-.2-.4-.5-.4h-.8c-.2 0-.4.2-.5.4v11.9c0 .2.2.4.5.4h.3c.2 0 .4-.2.5-.4l.3-.8c.6.9 1.5 1.4 2.5 1.4h.1c2.6 0 3.8-2.5 3.8-5.1 0-1.2-.3-2.3-.8-3.3-.7-.9-1.7-1.5-2.9-1.5zm1.8 5.1c0 .6-.1 3.3-2.1 3.4-.7 0-1.3-.4-1.7-1-.3-.5-.5-1.1-.5-1.8v-1.6c0-1.3.9-2.4 2.2-2.7 2 .1 2.1 3.1 2.1 3.7zm11.1-.3c-.6-.4-1.2-.6-1.9-.7l-1.3-.2c-.9-.1-1.4-.4-1.4-1.2 0-.8.9-1.2 1.6-1.2.8 0 1.6.4 1.9 1.2.1.2.2.3.4.3h.1l.8-.2c.1 0 .2-.1.3-.2.1-.1.1-.2 0-.3-.5-1.4-1.7-2.2-3.6-2.2-1.7 0-3.5.8-3.5 2.8 0 1.4.9 2.3 2.7 2.7l1.4.3c.8.1 1.6.4 1.6 1.2 0 1.2-1.4 1.4-1.9 1.4-1 .1-1.9-.5-2.4-1.4-.1-.2-.3-.3-.5-.3l-.8.2c-.1 0-.2.1-.3.2 0 .1-.1.2-.1.3.4 1.5 1.9 2.5 4 2.5h.1c1.8 0 3.8-.8 3.8-3 .2-.8-.2-1.7-1-2.2zm6.3-4.7c-2.9 0-4.3 2.6-4.3 5 0 3 1.6 4.9 4.2 4.9 1.7.1 3.3-.9 3.8-2.5v-.3c-.1-.1-.2-.2-.3-.2l-.8-.1c-.2 0-.5.1-.5.3-.3.8-1.1 1.4-2 1.4-.9 0-1.6-.5-2-1.3-.3-.6-.4-1.2-.3-1.9h5.9c.1 0 .3-.1.3-.1.1-.1.1-.2.1-.3 0-2.4-1.1-4.9-4.1-4.9zm2.1 3.9h-4.3c0-1.3 1-2.4 2.2-2.5 1.3 0 2.2 1.2 2.1 2.5 0-.1 0 0 0 0zm7.5-3.8h-.3c-1 0-1.9.6-2.3 1.6v-.9c0-.2-.2-.4-.5-.4h-.7c-.2 0-.4.2-.5.4v8.7c0 .2.2.4.5.4h.9c.2 0 .4-.2.5-.4v-4.4c0-.7.1-1.3.4-1.9.4-.8 1.2-1.4 2.1-1.4.2 0 .4-.2.4-.4v-.8c-.1-.3-.2-.5-.5-.5zm9-.2h-.7c-.2 0-.5.1-.5.4l-2.2 6.9-2.3-6.9c-.1-.2-.3-.4-.6-.4h-1c-.2 0-.3.1-.4.2-.1.1-.1.2-.1.3l3.1 9.1c.1.2.2.4.5.4h1.2c.2 0 .4-.2.5-.4l3-9.1c0-.1 0-.2-.1-.3 0-.1-.2-.2-.4-.2z"/><circle id="svg_4" r="1.1" cy="51.68" cx="125.05"/><path id="svg_5" d="M125.45 53.98h-.9c-.3 0-.5.2-.5.4v9.3c0 .1.1.2.1.3.1.1.2.1.3.1h.9c.3 0 .5-.2.5-.4v-9.3c.1-.2-.1-.4-.4-.4zm8.7 6.3h-.8c-.2 0-.4.1-.5.3-.3 1.2-.9 1.9-1.9 1.9-1.9-.1-2.1-2.7-2.1-3.5 0-1.6.5-3.4 2.1-3.4 1 .1 1.8.8 1.8 1.8 0 .2.2.4.4.4h.8c.2 0 .4-.2.4-.4-.1-1.8-1.7-3.3-3.5-3.3h-.1c-2.7 0-3.9 2.5-3.9 5 0 2.3 1 4.9 3.8 4.9h.1c1.8 0 3.4-1.5 3.5-3.3 0-.1 0-.2-.1-.3.3 0 .2-.1 0-.1zm5.6-6.1c-2.9 0-4.3 2.6-4.3 5 0 3 1.6 4.9 4.2 4.9 1.7.1 3.3-.9 3.8-2.5v-.3c-.1-.1-.2-.2-.3-.2l-.8-.1c-.2 0-.5.1-.5.3-.3.8-1.1 1.4-2 1.4-.9 0-1.7-.5-2-1.3-.3-.6-.4-1.2-.3-1.9h5.9c.1 0 .3-.1.3-.1.1-.1.1-.2.1-.3-.1-2.4-1.2-4.9-4.1-4.9zm2.1 3.9h-4.3c0-1.3 1-2.4 2.2-2.5 1.3.1 2.2 1.2 2.1 2.5zm9.3.8c-.6-.4-1.2-.6-1.9-.7l-1.3-.2c-.9-.1-1.4-.4-1.4-1.2 0-1.1 1.4-1.2 1.6-1.2.8 0 1.6.4 1.9 1.2.1.2.2.3.4.3h.1l.8-.2c.1 0 .2-.1.3-.2.1-.1.1-.2 0-.3-.5-1.4-1.7-2.2-3.6-2.2-1.7 0-3.5.8-3.5 2.8 0 1.4.9 2.3 2.7 2.7l1.4.3c.8.1 1.6.4 1.6 1.2 0 1.2-1.4 1.4-1.9 1.4-1 .1-1.9-.5-2.4-1.4-.1-.2-.3-.3-.5-.3l-.8.2c-.1 0-.2.1-.3.2 0 .1-.1.2-.1.3.4 1.5 1.9 2.5 4 2.5h.1c1.9 0 3.8-.8 3.8-3 .1-.8-.3-1.7-1-2.2z"/></g><path id="svg_6" d="M113.37 36.2v-2.1c0-.3.2-.5.5-.5h9.4c.3 0 .5.2.6.5v1.8c-.1.5-.4 1-.7 1.3l-4.9 7c1.9-.1 3.7.3 5.4 1.2.3.2.5.5.5.8v2.3c0 .3-.2.5-.5.5h-.2c-3.1-1.6-6.9-1.6-10 0-.3.2-.7-.2-.7-.5v-2.1c0-.5.1-1 .3-1.4l5.7-8.1h-4.9c-.3-.2-.5-.4-.5-.7m-34.5 13.1h-2.9c-.3 0-.5-.2-.5-.5V34.1c0-.3.3-.5.5-.5h2.7c.3 0 .5.2.5.5V36h.1c.5-1.7 2.1-2.8 3.8-2.7 1.8 0 2.9.9 3.7 2.7.8-2.2 3.3-3.3 5.5-2.4.7.3 1.3.7 1.8 1.3.9 1.2.7 3 .7 4.6v9.3c0 .3-.3.5-.5.5h-2.9c-.3 0-.5-.2-.5-.5V41c0-.9 0-1.8-.1-2.7-.1-.8-.9-1.4-1.7-1.3-.8 0-1.4.5-1.7 1.2-.2.9-.3 1.9-.3 2.8v7.8c0 .3-.3.5-.6.5h-2.9c-.3 0-.5-.2-.5-.5V41c0-1.6.3-4.1-1.8-4.1s-2 2.3-2 4.1v7.8c.2.3-.1.5-.4.5m53.1-16.1c4.3 0 6.6 3.6 6.6 8.3 0 4.5-2.5 8.1-6.6 8.1-4.2 0-6.5-3.6-6.5-8.2s2.4-8.2 6.5-8.2m0 3c-2.1 0-2.3 2.9-2.3 4.7 0 1.8 0 5.6 2.2 5.6s2.3-3.1 2.3-5c0-1.3-.1-2.6-.4-3.9-.1-.8-.9-1.4-1.8-1.4zm12.1 13.1h-2.9c-.3 0-.5-.2-.5-.5V34c0-.3.3-.5.5-.5h2.7c.2 0 .5.2.5.4v2.3h.1c.8-2 1.9-3 3.9-3 1.3-.1 2.6.6 3.4 1.7.8 1.2.8 3.2.8 4.6v9.3c0 .3-.3.5-.5.5h-2.9c-.3 0-.5-.2-.5-.5v-8c0-1.6.2-4-1.8-4-.7 0-1.4.5-1.6 1.2-.4.9-.5 1.8-.5 2.8v7.9c-.1.4-.4.6-.7.6m-70.8-2.7c-.7-.7-1.1-1.7-1.1-2.7v-4.5c0-1.9.1-3.6-1.3-4.9-1.2-1-2.8-1.5-4.3-1.4-2.7 0-5.8 1-6.4 4.4 0 .3.2.5.4.6l2.8.3c.3 0 .4-.3.5-.5.2-1.1 1.2-1.8 2.3-1.7.6 0 1.2.3 1.6.8.3.6.4 1.4.3 2.1v.4c-1.8.1-3.7.4-5.4 1-1.9.8-3.1 2.6-3.1 4.7 0 3 1.9 4.5 4.3 4.5 1.8.1 3.6-.7 4.7-2.1.4.7 1 1.4 1.6 1.9.2.1.5.1.7-.1.6-.5 1.6-1.4 2.2-1.9.4-.3.4-.6.2-.9zm-5.6-1.3c-.4.8-1.1 1.3-2 1.3-1.1 0-1.7-.8-1.7-2.1 0-2.4 2.2-2.9 4.3-2.9v.6c0 1.1-.2 2.2-.6 3.1zm43.3 1.3c-.7-.7-1.1-1.7-1.1-2.7v-4.5c0-1.9.1-3.6-1.3-4.9-1.2-1-2.8-1.5-4.3-1.4-2.7 0-5.8 1-6.4 4.4 0 .3.2.5.4.6l2.8.3c.3 0 .4-.3.5-.5.2-1.1 1.2-1.8 2.3-1.7.6 0 1.2.3 1.6.8.3.6.4 1.4.3 2.1v.4c-1.8.1-3.7.4-5.4 1-1.9.8-3.1 2.6-3.1 4.7 0 3 1.9 4.5 4.3 4.5 1.8.1 3.6-.7 4.7-2.1.4.7 1 1.4 1.6 1.9.2.1.5.1.7-.1.6-.5 1.6-1.4 2.2-1.9.4-.3.4-.6.2-.9zm-5.7-1.3c-.4.8-1.1 1.3-2 1.3-1.1 0-1.7-.8-1.7-2.1 0-2.4 2.2-2.9 4.3-2.9v.6c.1 1.1-.1 2.2-.6 3.1z"/></svg>