<?xml version="1.0" encoding="utf-8"?>
<!-- Generator: Adobe Illustrator 23.0.1, SVG Export Plug-In . SVG Version: 6.00 Build 0)  -->
<svg version="1.1" id="Layer_1" xmlns="http://www.w3.org/2000/svg" xmlns:xlink="http://www.w3.org/1999/xlink" x="0px" y="0px"
	 viewBox="0 0 789 186" style="enable-background:new 0 0 789 186;" xml:space="preserve">
<style type="text/css">
	.st0{fill:#005197;}
	.st1{fill:#009CE1;}
	.st2{fill:#8CD21E;}
	.st3{fill:#FFAA00;}
</style>
<g>
	<path class="st0" d="M367.69,124.04L367.69,124.04c0-32.25,25.4-58.86,60.07-58.86s59.67,25.8,59.67,58.05v0.4
		c0,12.09-3.63,22.98-10.08,32.25l5.64,4.84c2.42,2.42,4.43,5.24,4.43,9.27c0,6.45-5.24,11.69-11.69,11.69
		c-3.23,0-6.45-1.61-8.06-3.23l-6.85-6.45c-9.68,6.05-20.96,9.68-33.46,9.68C392.69,182.1,367.69,155.89,367.69,124.04
		 M426.15,136.54c0-6.45,5.24-11.69,11.69-11.69c3.23,0,5.64,1.21,8.06,3.23l12.5,11.29c2.02-4.43,3.23-9.68,3.23-15.32v-0.4
		c0-19.35-14.11-35.48-34.27-35.48c-20.16,0-33.86,15.72-33.86,35.07v0.4c0,19.35,14.11,35.48,34.27,35.48
		c5.64,0,10.48-0.81,14.92-3.23l-11.69-10.08C428.16,143.8,426.15,140.57,426.15,136.54"/>
	<path class="st0" d="M502.75,124.04L502.75,124.04c0-32.66,24.19-58.86,58.86-58.86c16.93,0,28.22,4.43,37.9,11.29
		c2.42,2.02,4.84,5.64,4.84,9.68c0,6.85-5.64,12.09-12.09,12.09c-3.23,0-5.64-1.21-7.26-2.42c-6.85-5.24-14.11-8.06-22.98-8.06
		c-18.95,0-32.66,15.72-32.66,35.07v0.4c0,19.35,13.3,35.48,32.66,35.48c10.48,0,17.34-3.23,24.59-8.87
		c2.02-1.61,4.43-2.82,7.26-2.82c6.45,0,11.69,5.24,11.69,11.29c0,4.03-2.02,6.85-4.03,8.87c-10.08,8.87-22.17,14.11-40.32,14.11
		C527.74,182.1,502.75,156.3,502.75,124.04"/>
	<path class="st0" d="M655.94,88.57h-24.19c-6.45,0-11.69-5.24-11.69-11.69c0-6.45,5.24-11.69,11.69-11.69h72.97
		c6.45,0,11.69,5.24,11.69,11.69c0,6.45-5.24,11.69-11.69,11.69h-23.38v80.63c0,7.26-5.64,12.5-12.5,12.5
		c-7.26,0-12.5-5.64-12.5-12.5L655.94,88.57L655.94,88.57z"/>
	<path class="st0" d="M690.62,45.02h-4.03c-0.4,0-1.21-0.4-1.21-1.21c0-0.4,0.4-1.21,1.21-1.21h10.08c0.4,0,1.21,0.4,1.21,1.21
		c0,0.4-0.4,1.21-1.21,1.21h-4.03v12.09c0,0.4-0.4,1.21-1.21,1.21c-0.4,0-1.21-0.4-1.21-1.21L690.62,45.02L690.62,45.02z
		 M701.1,43.82c0-0.81,0.4-1.21,1.21-1.21h0.4c0.4,0,0.81,0,0.81,0.4l5.24,8.06l5.24-8.06c0.4-0.4,0.4-0.4,0.81-0.4h0.4
		c0.4,0,1.21,0.4,1.21,1.21v13.3c0,0.4-0.4,1.21-1.21,1.21c-0.4,0-1.21-0.4-1.21-1.21V47.04l-4.43,6.85c-0.4,0.4-0.4,0.81-0.81,0.81
		c-0.4,0-0.81-0.4-0.81-0.81l-4.43-6.85v10.08c0,0.4-0.4,1.21-1.21,1.21c-0.4,0-1.21-0.4-1.21-1.21V43.82L701.1,43.82z"/>
	<polygon class="st0" points="290.69,95.82 259.65,95.82 259.65,65.18 290.69,65.18 	"/>
	<path class="st0" d="M301.57,95.82h-10.89v21.37c0,0,2.42,0,2.82,0c12.09,0,21.77,9.27,21.77,20.96c0,12.09-9.68,21.77-21.77,21.77
		h-97.16H164.1h-40.32c-16.93,0-30.64-13.71-30.64-30.64s13.71-30.64,30.64-30.64l0,0l12.9,0.4l-1.21-12.5c0-1.61-0.4-3.23-0.4-4.43
		c0-18.55,12.09-34.27,29.03-39.91l0,0c1.21-0.4,2.02-0.81,3.23-0.81l0,0c0.81-0.4,2.02-0.4,2.82-0.4c0.4,0,0.81,0,1.21,0
		c0.81,0,1.61-0.4,2.42-0.4c1.21,0,2.02,0,3.23,0c0.4,0,0.4,0,0.81,0c1.61,0,3.23,0,4.84,0.4h0.4c4.84,0.4,9.27,2.02,13.71,4.03l0,0
		c8.47,4.43,15.72,11.29,19.75,20.16h19.35l0,0h25V46.64h-29.83c-10.89-15.72-28.22-26.2-47.98-27.82c0,0,0,0-0.4,0
		c-1.61,0-3.23,0-4.84,0l0,0l0,0l0,0c-1.61,0-3.63,0-5.24,0.4c-0.4,0-0.81,0-1.21,0c-1.61,0-2.82,0.4-4.43,0.81
		c-0.81,0-1.21,0.4-2.02,0.4l0,0l0,0c-27.82,5.64-48.78,29.43-50.39,58.46c-23.79,4.84-41.93,25.8-41.93,51.2
		c0,29.03,23.38,52.41,52.41,52.41h40.32h32.25h95.55c23.79,0,43.54-19.35,43.54-43.54C336.65,118.8,321.33,99.85,301.57,95.82"/>
	<polygon class="st1" points="321.33,65.18 290.69,65.18 290.69,34.54 321.33,34.54 	"/>
	<polygon class="st2" points="321.33,95.82 351.97,95.82 351.97,65.18 321.33,65.18 	"/>
	<polygon class="st3" points="321.33,34.54 351.97,34.54 351.97,3.5 321.33,3.5 	"/>
</g>
</svg>
