<svg id="Layer_1" data-name="Layer 1" xmlns="http://www.w3.org/2000/svg" xmlns:xlink="http://www.w3.org/1999/xlink" viewBox="0 0 241.66 163"><defs><style>.cls-1,.cls-5{fill:none;}.cls-2{fill:#fff;}.cls-3{fill:#00a1e4;}.cls-4{clip-path:url(#clip-path);}.cls-5{stroke:#00a1e4;stroke-linecap:round;stroke-linejoin:round;stroke-width:2px;}</style><clipPath id="clip-path"><rect class="cls-1" x="1.15" y="-0.13" width="239" height="161.52"/></clipPath></defs><title>Access_blue</title><path class="cls-2" d="M6.47,81.52c15.7,14.62,64.13,41.32,83.16,49.41s23.45,7.85,35.28,7.28c16-.76,79.26-31.9,110.89-58.8,3.13-2.67,3.67-9.59,2.24-13.44-1.28-3.45-4.11-8.21-7.28-10.08C206.12,41.33,164.11,15,137.8,3.8,130.36.64,106.61,1.38,99.43,5.08,72.76,18.8,18,49.32,5.63,60.37c-4.36,3.91-2.74,17.83.84,21.15"/><path class="cls-3" d="M226,87.08l-77.18,44.85c-15.25,8.86-40.13,8.85-55.47,0L15.62,87.08C.28,78.22.18,63.81,15.43,55L92.62,10.1c15.23-8.86,40.11-8.85,55.45,0L225.76,55c15.33,8.85,15.43,23.26.19,32.12m14.1-14.76c.57-6.66-3.5-13.45-12.3-18.52L150.07,8.94c-16.46-9.5-43.13-9.5-59.46,0L13.42,53.79C5.27,58.52,1.21,64.74,1.22,71v-.06L1.15,94c0,6.27,4.12,12.56,12.4,17.34l77.69,44.86c1,.57,2,1.1,3.07,1.6.36.17.73.31,1.09.47.62.28,1.24.57,1.88.82l.24.08c1.46.57,3,1.07,4.5,1.52l.36.12c.35.1.72.17,1.08.27.87.23,1.74.45,2.62.64l.69.17c.35.07.7.11,1,.18.75.14,1.48.27,2.24.39.3,0,.58.11.88.15s.67.07,1,.11c.71.09,1.41.17,2.12.24.33,0,.66.09,1,.11s.63,0,.94,0c.72.05,1.43.09,2.15.12.36,0,.71.05,1.07.05h.85c.77,0,1.54,0,2.32,0,.38,0,.77,0,1.15,0l.67,0c1,0,1.91-.11,2.86-.19.38,0,.77,0,1.15-.08l.34,0c1.61-.17,3.21-.39,4.78-.67a2.13,2.13,0,0,1,.25,0c.45-.08.89-.2,1.34-.29.78-.16,1.56-.31,2.33-.5l1.64-.44c.73-.2,1.46-.4,2.18-.62.15,0,.31-.08.47-.14s.49-.19.75-.28c1.12-.38,2.21-.8,3.28-1.24l1.2-.51c1.37-.62,2.7-1.27,4-2l77.18-44.86.51-.3c.39-.24.72-.49,1.09-.73s1-.66,1.5-1,.79-.62,1.18-.93.88-.7,1.27-1c.08-.08.18-.14.26-.21.54-.5,1-1,1.51-1.54l.29-.33c.27-.31.55-.62.8-.93.11-.14.19-.3.29-.44.36-.48.69-1,1-1.46.13-.21.29-.41.41-.61s.09-.22.15-.33a14.16,14.16,0,0,0,.62-1.31c.11-.25.26-.5.35-.76,0-.09,0-.18.08-.26.15-.43.25-.85.36-1.27s.19-.56.24-.84c0-.08,0-.15,0-.23.08-.45.11-.89.15-1.33,0-.29.09-.57.1-.86v-.37l.07-23.14c0,.39-.07.78-.1,1.17"/><g class="cls-4"><path class="cls-5" d="M100.53,88.15c4.29,1.76,17.58,7.56,26.38,14.83m43.41-6.86c-23-20.33-49.74-29.8-49.74-29.8-2.6-.85-5.42-.9-7.09,0-2.24,1.21-1.58,3.67,1.47,5.49,2.84,1.71,13.49,5.1,28,14.32m6.57,4.45a117.48,117.48,0,0,1,12.31,10.08M176,90c-5.64-4.41-11.09-8.24-16.23-11.55m-6.93-4.27c-19.23-11.36-32.64-15-32.64-15-6.41-1.5-12.88-1.29-17,.93-6.38,3.46-4.5,10.5,4.19,15.71,0,0,3.73,2,8.1,4.1m7.61,3.51a110.11,110.11,0,0,1,28.45,19.66m-64-44.09c0-.07.07-.13.1-.2A12.38,12.38,0,0,1,92.92,54c8.44-4.58,23.08-4,36,.84A217.79,217.79,0,0,1,178,81.28M86.65,63.43c.16,5.36,4.73,11.5,13.21,16.59a56.3,56.3,0,0,0,7.9,3.9s19.35,7.84,32.29,20.07M93.43,84.36l-.76-.44C72.86,72,68.58,56,83.12,48.11c7.22-3.93,17.74-5.1,28.92-3.83l.2,0m8.55,1.44a88.15,88.15,0,0,1,10,2.87c5.08,1.77,19.92,7.24,43,21.09M67.68,72.78c-8.6-11.71-7.18-23.59,5.64-30.55A39.37,39.37,0,0,1,81,39.11c1-.29,2-.56,3-.8M92.66,37c15.17-1.34,33.48,1.84,49.58,8.9M100.72,95.55A100.51,100.51,0,0,1,85.4,88.09,73.24,73.24,0,0,1,73.16,79"/></g></svg>