<svg xmlns="http://www.w3.org/2000/svg" xmlns:xlink="http://www.w3.org/1999/xlink" viewBox="0 0 240 163"><defs><style>.cls-1,.cls-5{fill:none;}.cls-2{clip-path:url(#clip-path);}.cls-3{fill:#fff;}.cls-4{fill:#adb5bd;}.cls-5{stroke:#adb5bd;stroke-linecap:round;stroke-linejoin:round;stroke-width:2px;}</style><clipPath id="clip-path"><rect class="cls-1" x="0.15" y="0.69" width="239" height="161.52"/></clipPath></defs><title>AppServices_dark copy</title><g id="Layer_2" data-name="Layer 2"><g class="cls-2"><path class="cls-3" d="M5.47,81.05c15.71,14.62,64.13,41.32,83.16,49.41s23.45,7.85,35.28,7.28c16-.76,79.26-31.9,110.89-58.8,3.13-2.67,3.67-9.59,2.24-13.44-1.28-3.45-4.11-8.21-7.28-10.08-24.64-14.56-66.65-40.88-93-52.09C129.36.18,105.61.91,98.43,4.61,71.76,18.33,17,48.85,4.63,59.9c-4.36,3.91-2.74,17.83.84,21.15"/><path class="cls-4" d="M225,85.32l-77.18,44.52c-15.25,8.79-40.13,8.78-55.47,0L14.62,85.32C-.72,76.53-.82,62.23,14.43,53.43L91.62,8.92c15.23-8.79,40.11-8.78,55.45,0l77.69,44.51c15.33,8.79,15.43,23.09.19,31.88m14.1-14.13c.57-6.66-3.5-13.44-12.3-18.52L149.07,7.82c-16.46-9.5-43.13-9.5-59.46,0L12.42,52.66C4.27,57.4.21,63.61.22,69.83v-.07L.15,92.91c0,6.27,4.12,12.56,12.4,17.35l77.69,44.85c1,.57,2,1.1,3.07,1.6.36.17.73.32,1.09.47.62.29,1.24.57,1.88.83a2.25,2.25,0,0,1,.24.08q2.19.84,4.5,1.52c.13,0,.24.08.36.12.35.1.72.17,1.08.26.87.23,1.74.45,2.62.64.23.05.45.13.69.17l1,.18c.75.14,1.48.28,2.24.39l.88.16,1,.11c.71.09,1.41.17,2.12.24l1,.11.94,0c.72.05,1.43.08,2.15.11.36,0,.71,0,1.07.06s.57,0,.85,0c.77,0,1.54,0,2.32,0h1.15l.67-.05c1,0,1.91-.11,2.86-.19l1.15-.07.34,0c1.61-.17,3.21-.39,4.78-.67l.25,0c.45-.08.89-.2,1.34-.29.78-.16,1.56-.31,2.33-.5.55-.13,1.1-.29,1.64-.44.73-.2,1.46-.39,2.18-.62l.47-.13c.26-.09.49-.2.75-.29,1.12-.38,2.21-.79,3.28-1.24.4-.17.81-.33,1.2-.51,1.37-.62,2.7-1.27,4-2l77.18-44.85.51-.31c.39-.23.72-.48,1.09-.73s1-.65,1.5-1,.79-.62,1.18-.94.88-.69,1.27-1.05l.26-.21c.54-.5,1-1,1.51-1.53l.29-.34c.27-.31.55-.62.8-.93.11-.14.19-.29.29-.43.36-.49.69-1,1-1.47.13-.21.29-.4.41-.61s.09-.22.15-.32c.24-.44.43-.88.62-1.32.11-.25.26-.5.35-.75,0-.09,0-.18.08-.27.15-.42.25-.84.36-1.26s.19-.56.24-.84c0-.08,0-.16,0-.24.08-.44.11-.89.15-1.33,0-.28.09-.57.1-.85v-.37L239.15,70c0,.39-.07.78-.1,1.17"/><path class="cls-5" d="M122.9,43.46,112,48.16a21.52,21.52,0,0,0,4.25,4.3l13.35-2v0c.61.31,1.24.59,1.88.85l.22,8.21a56.37,56.37,0,0,0,8.17,1.35l4.77-7.31M135.82,25l6.8,7.68a31.24,31.24,0,0,1,3.33.55l10.14-5m-13.47,4.48L135.82,25a50.53,50.53,0,0,0-7.92.86L129.81,34m27,4.39,6.07-7c-.6-.35-1.19-.7-1.83-1a41.75,41.75,0,0,0-4.92-2.14l-10.14,5m-32.57-.69L127.63,35a16,16,0,0,1,2.18-1l-1.91-8.15M127.63,35l-14.25-2.45a13.24,13.24,0,0,0-3,4.16l12.3,5M112,48.16l10.9-4.7a6.26,6.26,0,0,1-.23-1.76l-12.3-5m37,16.61,11.42,5.84A30.22,30.22,0,0,0,165,56.5l-7.47-7.39m1.18-1.45,14.14-.94a10.7,10.7,0,0,0-.4-4.71l-14.2-1.94m4.61-8.67-6.07,7a11.54,11.54,0,0,1,1.46,1.64L172.43,42m.4,4.71-14.14.94a8.16,8.16,0,0,1-1.18,1.45L165,56.5m-6.22,2.68-11.42-5.84a26.12,26.12,0,0,1-2.69.23l-4.77,7.31m9-22.76c5.34,2.76,6.21,7.22,1.95,9.94s-12,2.7-17.37-.07-6.21-7.21-1.95-9.94S143.57,35.36,148.9,38.12Zm-47,14.11,3.43,7.46c2,.28,4,.64,5.9,1.1l7.88-5.42m-41.82-1.5,9.31,6c1.67-.27,3.39-.48,5.14-.6L93.21,52m12.14,7.73-3.43-7.46A84.91,84.91,0,0,0,93.21,52l-1.45,7.28m31.6,5.87,3.55-7a71.63,71.63,0,0,0-7.78-2.76l-7.88,5.42M135,74.5l9.46-4.63a36.87,36.87,0,0,0-4.79-4.44l-12.08,2.12m-.68-9.42-3.55,7,.48.24a41.2,41.2,0,0,1,3.75,2.2l12.08-2.12m-53-5.59-9.31-6A59.18,59.18,0,0,0,70,56.08l5.18,7.17M57,90.51l9.44-4.64a17.85,17.85,0,0,1-1.69-3L51.67,81.18m-.57-5,12.8-1.1a12,12,0,0,1,1.26-3.31L54.63,66.65m16.74-1.26L58.58,62.52a25.36,25.36,0,0,0-3.95,4.13l10.53,5.16m-6.58-9.29,12.79,2.87.35-.24a32.85,32.85,0,0,1,3.47-1.9L70,56.08m-6.11,19-12.8,1.1a16.18,16.18,0,0,0,.57,5l13.06,1.67m34.85,25.27-3.46-7.47c-2-.27-4-.64-5.91-1.09L82.36,105m-4.27-9.74-3.52,7A74,74,0,0,0,82.36,105l7.85-5.43m-15.64,2.68,3.52-7L77.55,95a40.51,40.51,0,0,1-3.7-2.17L61.78,95m34.34,5.7,3.46,7.47c2.91.23,5.82.32,8.7.26l1.42-7.29m34.76-31.22L135,74.5a17.12,17.12,0,0,1,1.68,3l13.06,1.69M66.42,85.87,57,90.51A37.64,37.64,0,0,0,61.78,95l12.07-2.14m76.45-8.64-12.81,1.08a12.46,12.46,0,0,1-1.23,3.24l10.55,5.14m-9.32-8.38,12.81-1.08a16.52,16.52,0,0,0-.56-5l-13.06-1.69m-21.83,23,9.32,6a57.37,57.37,0,0,0,7.29-2.23l-5.2-7.16m-2.09,9.39-9.32-6c-1.68.28-3.4.48-5.15.61l-1.42,7.29m21.79-13.46,12.79,2.85a25,25,0,0,0,3.95-4.14l-10.55-5.14m6.6,9.28-12.79-2.85-.4.27a30.81,30.81,0,0,1-3.41,1.87l5.2,7.16M116.13,70.28c10.66,5.53,12.41,14.44,3.88,19.89S95.93,95.57,85.27,90,72.86,75.6,81.38,70.15,105.46,64.76,116.13,70.28Z"/></g></g></svg>