<svg id="Layer_1" data-name="Layer 1" xmlns="http://www.w3.org/2000/svg" xmlns:xlink="http://www.w3.org/1999/xlink" viewBox="0 0 240 163"><defs><style>.cls-1,.cls-2,.cls-4{fill:#e30f37;}.cls-1{clip-rule:evenodd;}.cls-13,.cls-3{fill:none;}.cls-4{fill-rule:evenodd;}.cls-5{clip-path:url(#clip-path);}.cls-6{clip-path:url(#clip-path-2);}.cls-7{clip-path:url(#clip-path-3);}.cls-8{clip-path:url(#clip-path-5);}.cls-9{clip-path:url(#clip-path-7);}.cls-10{clip-path:url(#clip-path-9);}.cls-11{fill:#fff;}.cls-12{fill:#00a1e4;}.cls-13{stroke:#00a1e4;stroke-linecap:round;stroke-linejoin:round;stroke-width:2px;}</style><clipPath id="clip-path"><path class="cls-1" d="M150.93,81.54,138.67,80a14.68,14.68,0,0,0-.91-2.55l10.05-4.55.06,0c.2-.11.26-.29.16-.44a27.4,27.4,0,0,0-3.92-4.5.08.08,0,0,1,0,0l-.07,0a.33.33,0,0,0-.1-.06.85.85,0,0,0-.24-.08h0a1,1,0,0,0-.35,0l-12,2.1a31.55,31.55,0,0,0-3.08-2l-.1-.06,4.78-6.81a.25.25,0,0,0,0-.09c0-.11,0-.23-.18-.35l0,0,0,0h0a59.93,59.93,0,0,0-7.24-2.76,1.15,1.15,0,0,0-1,0L115.74,63c-1.59-.37-3.22-.69-4.87-.93L109,54.8a.69.69,0,0,1-.05-.1.64.64,0,0,0-.18-.15.75.75,0,0,0-.18-.07l-.19,0a.74.74,0,0,0-.21,0,.67.67,0,0,1,.2,0,85.92,85.92,0,0,0-8.79-.24h0l-.18,0a.83.83,0,0,0-.29.1.41.41,0,0,0-.19.2l-2.8,7.09c-1.49.13-3,.3-4.43.53l-7.82-5.79-.22-.11a1.49,1.49,0,0,0-.21,0h-.21l-.13,0h0a2,2,0,0,0-.26.06l-.07,0a.31.31,0,0,0-.15.12.31.31,0,0,1,.15-.12l.07,0a1.55,1.55,0,0,1,.23-.06s0,0-.06,0a68.26,68.26,0,0,0-7.84,2.29h0l-.06,0a.3.3,0,0,1-.08,0,.46.46,0,0,0-.2.22.22.22,0,0,0,0,.19l3.6,7A36.46,36.46,0,0,0,75,67.75l-.08,0L63.09,65.06a1.15,1.15,0,0,0-.26,0,1,1,0,0,0-.51.11h0l0,0,0,0a34.18,34.18,0,0,0-4.78,4.17h0a.36.36,0,0,0-.14.27.21.21,0,0,0,0,.13h0a.28.28,0,0,1,0-.12.27.27,0,0,0,0,.12h0a.44.44,0,0,0,.17.16l9.15,5A16.2,16.2,0,0,0,65,77.79L52.46,78.91a.91.91,0,0,0-.44.14.35.35,0,0,0-.17.25,16.81,16.81,0,0,0-.42,5,.27.27,0,0,0,0,.19.75.75,0,0,0,.51.25l12.27,1.58a13.55,13.55,0,0,0,.91,2.54l-10,4.56-.07,0a.33.33,0,0,0-.18.37A.37.37,0,0,0,55,94a.85.85,0,0,0,.47.15A.85.85,0,0,1,55,94a.68.68,0,0,1-.12-.12v0a28,28,0,0,0,4,4.53h0a.71.71,0,0,0,.3.15h.08a1.4,1.4,0,0,0,.41,0l12-2.12a36.12,36.12,0,0,0,3,2l.15.08-4.75,6.82c-.11.15-.05.3.14.44l.06,0h0l0,0h0a59.17,59.17,0,0,0,7.22,2.74,1.15,1.15,0,0,0,1,0l8.62-5.32q2.4.57,4.89.93L94,111.43c.06.19.32.32.64.34a83.44,83.44,0,0,0,8.67.24h.14a1.19,1.19,0,0,0,.44-.11l.1-.07-.1.06a.41.41,0,0,0,.12-.09.26.26,0,0,0,.07-.11l2.89-7.36-.11.27c1.49-.13,3-.31,4.42-.53l7.85,5.77.21.11a1.15,1.15,0,0,0,.61,0,68.81,68.81,0,0,0,7.87-2.31l.12-.05a.57.57,0,0,0,.19-.19s0,0,0,0a.26.26,0,0,0,0-.15s0,0,0,0l-3.63-7A37.94,37.94,0,0,0,128,98.47l.11-.08,11.8,2.73a1.1,1.1,0,0,0,.77-.1l0,0h0a33.92,33.92,0,0,0,4.8-4.21.31.31,0,0,0,.12-.3,0,0,0,0,0,0,0,.48.48,0,0,0-.11-.15l0,0-.05,0-9.16-5a17,17,0,0,0,1.62-2.8l12.57-1.1a1,1,0,0,0,.4-.12.36.36,0,0,0,.21-.27,17.29,17.29,0,0,0,.44-5C151.48,81.74,151.26,81.58,150.93,81.54ZM57.51,69.34h0a1.11,1.11,0,0,1,1,0A1.12,1.12,0,0,0,57.51,69.34ZM51.93,83.93a1.09,1.09,0,0,1,.36,0A1.09,1.09,0,0,0,51.93,83.93Zm93.51,12.9h0a1.11,1.11,0,0,1-1,0A1.13,1.13,0,0,0,145.44,96.83Zm-8.25-9.14a1.41,1.41,0,0,0-.31.07l-.09,0a.41.41,0,0,0-.11.07l0,0a.24.24,0,0,0-.06.09s0,0,0,0a15.58,15.58,0,0,1-1.79,3.11.43.43,0,0,1,0,.07.24.24,0,0,0-.07.2.38.38,0,0,0,.23.26L144,96.62a32.88,32.88,0,0,1-4.12,3.62l-11.75-2.72a1.14,1.14,0,0,0-.78.1l-.44.26a37.18,37.18,0,0,1-3.68,1.85l-.12.06a.38.38,0,0,0-.17.16.25.25,0,0,0,0,.17.13.13,0,0,0,0,.08l3.6,6.92a68.5,68.5,0,0,1-6.67,2l-7.81-5.75,0,0a1.14,1.14,0,0,0-.55-.13l-.18,0c-1.68.27-3.36.48-5.08.61a1.22,1.22,0,0,0-.34.06l-.14.06a.38.38,0,0,0-.17.16s0,0,0,0l-2.77,7c-2.49,0-5,0-7.47-.2l-1.88-7.22c0-.17-.24-.3-.54-.34-1.89-.26-3.76-.62-5.68-1.08h-.07a1.09,1.09,0,0,0-.64.13L78,107.76l-.19.12.19-.12a57.9,57.9,0,0,1-6.24-2.37l4.72-6.8,0,0s0,0,0,0a.25.25,0,0,0,0-.24.57.57,0,0,0-.21-.15l-.42-.24a30.56,30.56,0,0,1-3.17-2.1l0,0a.44.44,0,0,0-.17-.07.39.39,0,0,0-.16-.07,1.24,1.24,0,0,0-.43,0l-12,2.12a27.16,27.16,0,0,1-3.38-3.86l10-4.52.06,0a.53.53,0,0,0,.18-.19v0a.19.19,0,0,0,0-.13.16.16,0,0,1,0,.12.23.23,0,0,0,0-.18,13.47,13.47,0,0,1-1.06-3c0-.16-.23-.29-.5-.34h0L52.84,84a16.08,16.08,0,0,1,.36-4.31l12.51-1.12a.94.94,0,0,0,.4-.11.54.54,0,0,0,.2-.22l0,0h0v0h0a16.65,16.65,0,0,1,1.9-3.3s0,0,0-.07,0-.27-.22-.36l-9.1-5a32.85,32.85,0,0,1,4.13-3.61l11.73,2.73.11,0h0a1.08,1.08,0,0,0,.63-.12l.4-.24a35.84,35.84,0,0,1,3.77-1.89l.07,0c.19-.1.27-.26.19-.41l-3.59-6.92a67.09,67.09,0,0,1,6.68-2l7.79,5.76.05,0,0,0a1,1,0,0,0,.5.1h0l.15,0h.07c1.68-.27,3.39-.47,5.11-.6a1,1,0,0,0,.41-.12l.07,0a.48.48,0,0,0,.13-.16l2.07-5.24.72-1.82c2.49,0,5,0,7.46.2l1.86,7.23a.11.11,0,0,0,0,0l0,0a.69.69,0,0,0,.5.26c1.91.27,3.77.63,5.68,1.09h.07a1.09,1.09,0,0,0,.64-.13l8.6-5.27a58.72,58.72,0,0,1,6.24,2.37l-4.77,6.79c-.12.17,0,.37.23.48l.37.2a32,32,0,0,1,3.21,2.14.39.39,0,0,1-.08-.1c-.08-.15,0-.31.18-.41-.18.1-.26.26-.18.41a.39.39,0,0,0,.08.1.92.92,0,0,0,.28.15,1.37,1.37,0,0,0,.54,0l12-2.1a26.39,26.39,0,0,1,3.36,3.85l-10,4.52-.1.06a.33.33,0,0,0-.17.28.36.36,0,0,0,.16.24,1,1,0,0,0,.21.11,1,1,0,0,1-.21-.11.36.36,0,0,1-.16-.24.36.36,0,0,0,0,.1,13.92,13.92,0,0,1,1.06,3v0a.25.25,0,0,0,.1.17.75.75,0,0,0,.44.18l12.2,1.59a16.08,16.08,0,0,1-.36,4.31Zm-13.46,12a.9.9,0,0,0-.28,0A.9.9,0,0,1,123.73,99.67ZM66.47,89.31a.44.44,0,0,0,.18-.18A.44.44,0,0,1,66.47,89.31Z"/></clipPath><clipPath id="clip-path-2"><rect class="cls-2" x="1.17" y="-1.28" width="239" height="168"/></clipPath><clipPath id="clip-path-3"><path class="cls-1" d="M181.38,44.23a.34.34,0,0,0-.11-.19.79.79,0,0,0-.38-.17h-.06L167.42,42a9.6,9.6,0,0,0-.89-1.29l-.21.19,7.48-7.11c.17-.15.13-.34-.06-.47h0l-.05,0c-.5-.34-1-.69-1.6-1a35.32,35.32,0,0,0-4.59-2.2l-.11,0a1.17,1.17,0,0,0-.74,0l-10.84,5c-.84-.18-1.7-.32-2.58-.43l-5.12-7.51h0a.84.84,0,0,0-.7-.25h0a.83.83,0,0,1,.69.25.84.84,0,0,0-.71-.25,52.59,52.59,0,0,0-8.26.91l-.16.05a.33.33,0,0,0-.12.05.37.37,0,0,0-.21.3l.27,8c-.62.23-1.23.48-1.81.76l-13.6-2.37a1,1,0,0,0-.59.18A18.5,18.5,0,0,0,119,39c-.11.16,0,.36.24.46l11,4.83a7.18,7.18,0,0,0-.1,1.38l-11.83,5a.32.32,0,0,0,0,.16,16.93,16.93,0,0,0,3.46,4.42,1,1,0,0,0,.79.18l13.37-2c.38.21.78.41,1.18.6l-1.39,8c0,.18.14.35.42.42a50.65,50.65,0,0,0,8,1.34h.1a1.14,1.14,0,0,0,.45,0h-.11a1.61,1.61,0,0,0,.38-.18L151,56.42c.68,0,1.36-.1,2-.19l-.27-.15L163,61.92l.09,0a1.32,1.32,0,0,0,.61.07l.12,0a40.53,40.53,0,0,0,6.95-2.8h0l.08-.05A.36.36,0,0,0,171,59a.26.26,0,0,0-.05-.25l-5.82-7.21a9.87,9.87,0,0,0,1.12-1.12l-.38,0,14.33-1a1,1,0,0,0,.49-.16.37.37,0,0,0,.12-.17A11.06,11.06,0,0,0,181.38,44.23ZM147,27a.93.93,0,0,1,.24-.09A.93.93,0,0,0,147,27c-.2.12-.27.29-.17.45C146.68,27.26,146.75,27.09,147,27Zm-9.47,10c.37.07.58.3.46.52.12-.22-.09-.45-.47-.51Zm42,11.66-13.82,1a1,1,0,0,0-.41.11l-.12.09,0,0a.29.29,0,0,0-.06.22.45.45,0,0,0,.27.27.45.45,0,0,1-.27-.27.29.29,0,0,1,.06-.22,11.67,11.67,0,0,1-1.41,1.4s0,0-.06,0l.14-.11a.84.84,0,0,1,.21-.08.84.84,0,0,0-.21.08l-.14.11a.28.28,0,0,0-.06.26s0,0,0,.05l0,0,5.77,7.16a36.69,36.69,0,0,1-5.76,2.33l-9.89-5.64-.08,0-.11,0a1.51,1.51,0,0,0-.43,0h0q-1.26.16-2.55.24a.89.89,0,0,0-.52.12.4.4,0,0,0-.14.11l-6,7.11a49,49,0,0,1-6.73-1.13l1.37-8c0-.14-.08-.28-.27-.37a17.67,17.67,0,0,1-1.63-.81,1.05,1.05,0,0,0-.71-.13l-13.25,2a16.15,16.15,0,0,1-2.89-3.69l11.52-4.66a.38.38,0,0,0,.22-.27l.12-1.78s0-.08-.15-.26a.57.57,0,0,0-.13-.08L120.5,39a17.9,17.9,0,0,1,3.28-3.6L137,37.76a1.24,1.24,0,0,0,.72-.1l0,0a19.52,19.52,0,0,1,2.24-.94l.18-.08a.4.4,0,0,0,.2-.21s0-.06,0-.08l-.27-7.91a50.75,50.75,0,0,1,6.9-.76l5.07,7.44a.75.75,0,0,0,.52.25,25.53,25.53,0,0,1,3.09.52,1.33,1.33,0,0,0,.65,0l.06,0,11.16-5.12-.42.2a32.39,32.39,0,0,1,4,1.92c.43.25.84.52,1.24.79l-7.21,6.85a.37.37,0,0,0-.09.14.25.25,0,0,0,0,.26,8.8,8.8,0,0,1,1.1,1.6l0,0s-.05,0-.06-.09a.3.3,0,0,1,0-.16.43.43,0,0,1,.19-.19A1,1,0,0,1,167,42a1,1,0,0,0-.67.11.43.43,0,0,0-.19.19.3.3,0,0,0,0,.16s0,.06.06.09a.36.36,0,0,0,.11.1l.08.06h0a.71.71,0,0,0,.26.07L180,44.58A10.58,10.58,0,0,1,179.52,48.63Z"/></clipPath><clipPath id="clip-path-5"><path class="cls-1" d="M158.16,40.2c-5-3-13.23-3-18.3,0s-5.1,7.76-.06,10.71,13.23,3,18.31,0,5.08-7.75,0-10.7M157.1,50.31a17.82,17.82,0,0,1-16.29,0c-2.24-1.32-3.36-3-3.34-4.76s1.14-3.45,3.39-4.77a16.59,16.59,0,0,1,8.16-2,16.42,16.42,0,0,1,8.13,2c2.24,1.32,3.36,3,3.35,4.77s-1.14,3.44-3.4,4.76"/></clipPath><clipPath id="clip-path-7"><path class="cls-1" d="M119.51,73.06c-9.86-5.7-25.91-5.7-35.84,0S73.7,88,83.56,93.7s25.9,5.7,35.83,0,10-14.94.12-20.64m-1.13,20.06a34.74,34.74,0,0,1-16.93,4c-6.12,0-12.22-1.35-16.87-4s-7-6.21-7-9.74,2.37-7,7.06-9.73a34.73,34.73,0,0,1,16.92-4,34.47,34.47,0,0,1,16.89,4c4.65,2.69,7,6.2,7,9.74s-2.38,7-7.06,9.73"/></clipPath><clipPath id="clip-path-9"><rect class="cls-3" x="0.48" y="0.84" width="239" height="161.52"/></clipPath></defs><title>AppServices_blue</title><path class="cls-4" d="M150.93,81.54,138.67,80a14.68,14.68,0,0,0-.91-2.55l10.05-4.55.06,0c.2-.11.26-.29.16-.44a27.4,27.4,0,0,0-3.92-4.5.08.08,0,0,1,0,0l-.07,0a.33.33,0,0,0-.1-.06.85.85,0,0,0-.24-.08h0a1,1,0,0,0-.35,0l-12,2.1a31.55,31.55,0,0,0-3.08-2l-.1-.06,4.78-6.81a.25.25,0,0,0,0-.09c0-.11,0-.23-.18-.35l0,0,0,0h0a59.93,59.93,0,0,0-7.24-2.76,1.15,1.15,0,0,0-1,0L115.74,63c-1.59-.37-3.22-.69-4.87-.93L109,54.8a.69.69,0,0,1-.05-.1.64.64,0,0,0-.18-.15.75.75,0,0,0-.18-.07l-.19,0a.74.74,0,0,0-.21,0,.67.67,0,0,1,.2,0,85.92,85.92,0,0,0-8.79-.24h0l-.18,0a.83.83,0,0,0-.29.1.41.41,0,0,0-.19.2l-2.8,7.09c-1.49.13-3,.3-4.43.53l-7.82-5.79-.22-.11a1.49,1.49,0,0,0-.21,0h-.21l-.13,0h0a2,2,0,0,0-.26.06l-.07,0a.31.31,0,0,0-.15.12.31.31,0,0,1,.15-.12l.07,0a1.55,1.55,0,0,1,.23-.06s0,0-.06,0a68.26,68.26,0,0,0-7.84,2.29h0l-.06,0a.3.3,0,0,1-.08,0,.46.46,0,0,0-.2.22.22.22,0,0,0,0,.19l3.6,7A36.46,36.46,0,0,0,75,67.75l-.08,0L63.09,65.06a1.15,1.15,0,0,0-.26,0,1,1,0,0,0-.51.11h0l0,0,0,0a34.18,34.18,0,0,0-4.78,4.17h0a.36.36,0,0,0-.14.27.21.21,0,0,0,0,.13h0a.28.28,0,0,1,0-.12.27.27,0,0,0,0,.12h0a.44.44,0,0,0,.17.16l9.15,5A16.2,16.2,0,0,0,65,77.79L52.46,78.91a.91.91,0,0,0-.44.14.35.35,0,0,0-.17.25,16.81,16.81,0,0,0-.42,5,.27.27,0,0,0,0,.19.75.75,0,0,0,.51.25l12.27,1.58a13.55,13.55,0,0,0,.91,2.54l-10,4.56-.07,0a.33.33,0,0,0-.18.37A.37.37,0,0,0,55,94a.85.85,0,0,0,.47.15A.85.85,0,0,1,55,94a.68.68,0,0,1-.12-.12v0a28,28,0,0,0,4,4.53h0a.71.71,0,0,0,.3.15h.08a1.4,1.4,0,0,0,.41,0l12-2.12a36.12,36.12,0,0,0,3,2l.15.08-4.75,6.82c-.11.15-.05.3.14.44l.06,0h0l0,0h0a59.17,59.17,0,0,0,7.22,2.74,1.15,1.15,0,0,0,1,0l8.62-5.32q2.4.57,4.89.93L94,111.43c.06.19.32.32.64.34a83.44,83.44,0,0,0,8.67.24h.14a1.19,1.19,0,0,0,.44-.11l.1-.07-.1.06a.41.41,0,0,0,.12-.09.26.26,0,0,0,.07-.11l2.89-7.36-.11.27c1.49-.13,3-.31,4.42-.53l7.85,5.77.21.11a1.15,1.15,0,0,0,.61,0,68.81,68.81,0,0,0,7.87-2.31l.12-.05a.57.57,0,0,0,.19-.19s0,0,0,0a.26.26,0,0,0,0-.15s0,0,0,0l-3.63-7A37.94,37.94,0,0,0,128,98.47l.11-.08,11.8,2.73a1.1,1.1,0,0,0,.77-.1l0,0h0a33.92,33.92,0,0,0,4.8-4.21.31.31,0,0,0,.12-.3,0,0,0,0,0,0,0,.48.48,0,0,0-.11-.15l0,0-.05,0-9.16-5a17,17,0,0,0,1.62-2.8l12.57-1.1a1,1,0,0,0,.4-.12.36.36,0,0,0,.21-.27,17.29,17.29,0,0,0,.44-5C151.48,81.74,151.26,81.58,150.93,81.54ZM57.51,69.34h0a1.11,1.11,0,0,1,1,0A1.12,1.12,0,0,0,57.51,69.34ZM51.93,83.93a1.09,1.09,0,0,1,.36,0A1.09,1.09,0,0,0,51.93,83.93Zm93.51,12.9h0a1.11,1.11,0,0,1-1,0A1.13,1.13,0,0,0,145.44,96.83Zm-8.25-9.14a1.41,1.41,0,0,0-.31.07l-.09,0a.41.41,0,0,0-.11.07l0,0a.24.24,0,0,0-.06.09s0,0,0,0a15.58,15.58,0,0,1-1.79,3.11.43.43,0,0,1,0,.07.24.24,0,0,0-.07.2.38.38,0,0,0,.23.26L144,96.62a32.88,32.88,0,0,1-4.12,3.62l-11.75-2.72a1.14,1.14,0,0,0-.78.1l-.44.26a37.18,37.18,0,0,1-3.68,1.85l-.12.06a.38.38,0,0,0-.17.16.25.25,0,0,0,0,.17.13.13,0,0,0,0,.08l3.6,6.92a68.5,68.5,0,0,1-6.67,2l-7.81-5.75,0,0a1.14,1.14,0,0,0-.55-.13l-.18,0c-1.68.27-3.36.48-5.08.61a1.22,1.22,0,0,0-.34.06l-.14.06a.38.38,0,0,0-.17.16s0,0,0,0l-2.77,7c-2.49,0-5,0-7.47-.2l-1.88-7.22c0-.17-.24-.3-.54-.34-1.89-.26-3.76-.62-5.68-1.08h-.07a1.09,1.09,0,0,0-.64.13L78,107.76l-.19.12.19-.12a57.9,57.9,0,0,1-6.24-2.37l4.72-6.8,0,0s0,0,0,0a.25.25,0,0,0,0-.24.57.57,0,0,0-.21-.15l-.42-.24a30.56,30.56,0,0,1-3.17-2.1l0,0a.44.44,0,0,0-.17-.07.39.39,0,0,0-.16-.07,1.24,1.24,0,0,0-.43,0l-12,2.12a27.16,27.16,0,0,1-3.38-3.86l10-4.52.06,0a.53.53,0,0,0,.18-.19v0a.19.19,0,0,0,0-.13.16.16,0,0,1,0,.12.23.23,0,0,0,0-.18,13.47,13.47,0,0,1-1.06-3c0-.16-.23-.29-.5-.34h0L52.84,84a16.08,16.08,0,0,1,.36-4.31l12.51-1.12a.94.94,0,0,0,.4-.11.54.54,0,0,0,.2-.22l0,0h0v0h0a16.65,16.65,0,0,1,1.9-3.3s0,0,0-.07,0-.27-.22-.36l-9.1-5a32.85,32.85,0,0,1,4.13-3.61l11.73,2.73.11,0h0a1.08,1.08,0,0,0,.63-.12l.4-.24a35.84,35.84,0,0,1,3.77-1.89l.07,0c.19-.1.27-.26.19-.41l-3.59-6.92a67.09,67.09,0,0,1,6.68-2l7.79,5.76.05,0,0,0a1,1,0,0,0,.5.1h0l.15,0h.07c1.68-.27,3.39-.47,5.11-.6a1,1,0,0,0,.41-.12l.07,0a.48.48,0,0,0,.13-.16l2.07-5.24.72-1.82c2.49,0,5,0,7.46.2l1.86,7.23a.11.11,0,0,0,0,0l0,0a.69.69,0,0,0,.5.26c1.91.27,3.77.63,5.68,1.09h.07a1.09,1.09,0,0,0,.64-.13l8.6-5.27a58.72,58.72,0,0,1,6.24,2.37l-4.77,6.79c-.12.17,0,.37.23.48l.37.2a32,32,0,0,1,3.21,2.14.39.39,0,0,1-.08-.1c-.08-.15,0-.31.18-.41-.18.1-.26.26-.18.41a.39.39,0,0,0,.08.1.92.92,0,0,0,.28.15,1.37,1.37,0,0,0,.54,0l12-2.1a26.39,26.39,0,0,1,3.36,3.85l-10,4.52-.1.06a.33.33,0,0,0-.17.28.36.36,0,0,0,.16.24,1,1,0,0,0,.21.11,1,1,0,0,1-.21-.11.36.36,0,0,1-.16-.24.36.36,0,0,0,0,.1,13.92,13.92,0,0,1,1.06,3v0a.25.25,0,0,0,.1.17.75.75,0,0,0,.44.18l12.2,1.59a16.08,16.08,0,0,1-.36,4.31Zm-13.46,12a.9.9,0,0,0-.28,0A.9.9,0,0,1,123.73,99.67ZM66.47,89.31a.44.44,0,0,0,.18-.18A.44.44,0,0,1,66.47,89.31Z"/><g class="cls-5"><rect class="cls-2" x="1.17" y="-1.28" width="239" height="168"/><g class="cls-6"><rect class="cls-2" x="46.39" y="49.18" width="110.13" height="67.85"/></g></g><path class="cls-4" d="M181.38,44.23a.34.34,0,0,0-.11-.19.79.79,0,0,0-.38-.17h-.06L167.42,42a9.6,9.6,0,0,0-.89-1.29l-.21.19,7.48-7.11c.17-.15.13-.34-.06-.47h0l-.05,0c-.5-.34-1-.69-1.6-1a35.32,35.32,0,0,0-4.59-2.2l-.11,0a1.17,1.17,0,0,0-.74,0l-10.84,5c-.84-.18-1.7-.32-2.58-.43l-5.12-7.51h0a.84.84,0,0,0-.7-.25h0a.83.83,0,0,1,.69.25.84.84,0,0,0-.71-.25,52.59,52.59,0,0,0-8.26.91l-.16.05a.33.33,0,0,0-.12.05.37.37,0,0,0-.21.3l.27,8c-.62.23-1.23.48-1.81.76l-13.6-2.37a1,1,0,0,0-.59.18A18.5,18.5,0,0,0,119,39c-.11.16,0,.36.24.46l11,4.83a7.18,7.18,0,0,0-.1,1.38l-11.83,5a.32.32,0,0,0,0,.16,16.93,16.93,0,0,0,3.46,4.42,1,1,0,0,0,.79.18l13.37-2c.38.21.78.41,1.18.6l-1.39,8c0,.18.14.35.42.42a50.65,50.65,0,0,0,8,1.34h.1a1.14,1.14,0,0,0,.45,0h-.11a1.61,1.61,0,0,0,.38-.18L151,56.42c.68,0,1.36-.1,2-.19l-.27-.15L163,61.92l.09,0a1.32,1.32,0,0,0,.61.07l.12,0a40.53,40.53,0,0,0,6.95-2.8h0l.08-.05A.36.36,0,0,0,171,59a.26.26,0,0,0-.05-.25l-5.82-7.21a9.87,9.87,0,0,0,1.12-1.12l-.38,0,14.33-1a1,1,0,0,0,.49-.16.37.37,0,0,0,.12-.17A11.06,11.06,0,0,0,181.38,44.23ZM147,27a.93.93,0,0,1,.24-.09A.93.93,0,0,0,147,27c-.2.12-.27.29-.17.45C146.68,27.26,146.75,27.09,147,27Zm-9.47,10c.37.07.58.3.46.52.12-.22-.09-.45-.47-.51Zm42,11.66-13.82,1a1,1,0,0,0-.41.11l-.12.09,0,0a.29.29,0,0,0-.06.22.45.45,0,0,0,.27.27.45.45,0,0,1-.27-.27.29.29,0,0,1,.06-.22,11.67,11.67,0,0,1-1.41,1.4s0,0-.06,0l.14-.11a.84.84,0,0,1,.21-.08.84.84,0,0,0-.21.08l-.14.11a.28.28,0,0,0-.06.26s0,0,0,.05l0,0,5.77,7.16a36.69,36.69,0,0,1-5.76,2.33l-9.89-5.64-.08,0-.11,0a1.51,1.51,0,0,0-.43,0h0q-1.26.16-2.55.24a.89.89,0,0,0-.52.12.4.4,0,0,0-.14.11l-6,7.11a49,49,0,0,1-6.73-1.13l1.37-8c0-.14-.08-.28-.27-.37a17.67,17.67,0,0,1-1.63-.81,1.05,1.05,0,0,0-.71-.13l-13.25,2a16.15,16.15,0,0,1-2.89-3.69l11.52-4.66a.38.38,0,0,0,.22-.27l.12-1.78s0-.08-.15-.26a.57.57,0,0,0-.13-.08L120.5,39a17.9,17.9,0,0,1,3.28-3.6L137,37.76a1.24,1.24,0,0,0,.72-.1l0,0a19.52,19.52,0,0,1,2.24-.94l.18-.08a.4.4,0,0,0,.2-.21s0-.06,0-.08l-.27-7.91a50.75,50.75,0,0,1,6.9-.76l5.07,7.44a.75.75,0,0,0,.52.25,25.53,25.53,0,0,1,3.09.52,1.33,1.33,0,0,0,.65,0l.06,0,11.16-5.12-.42.2a32.39,32.39,0,0,1,4,1.92c.43.25.84.52,1.24.79l-7.21,6.85a.37.37,0,0,0-.09.14.25.25,0,0,0,0,.26,8.8,8.8,0,0,1,1.1,1.6l0,0s-.05,0-.06-.09a.3.3,0,0,1,0-.16.43.43,0,0,1,.19-.19A1,1,0,0,1,167,42a1,1,0,0,0-.67.11.43.43,0,0,0-.19.19.3.3,0,0,0,0,.16s0,.06.06.09a.36.36,0,0,0,.11.1l.08.06h0a.71.71,0,0,0,.26.07L180,44.58A10.58,10.58,0,0,1,179.52,48.63Z"/><g class="cls-7"><rect class="cls-2" x="1.17" y="-1.28" width="239" height="168"/><g class="cls-6"><rect class="cls-2" x="113.26" y="21.86" width="73.18" height="46.97"/></g></g><path class="cls-4" d="M158.16,40.2c-5-3-13.23-3-18.3,0s-5.1,7.76-.06,10.71,13.23,3,18.31,0,5.08-7.75,0-10.7M157.1,50.31a17.82,17.82,0,0,1-16.29,0c-2.24-1.32-3.36-3-3.34-4.76s1.14-3.45,3.39-4.77a16.59,16.59,0,0,1,8.16-2,16.42,16.42,0,0,1,8.13,2c2.24,1.32,3.36,3,3.35,4.77s-1.14,3.44-3.4,4.76"/><g class="cls-8"><rect class="cls-2" x="1.17" y="-1.28" width="239" height="168"/><g class="cls-6"><rect class="cls-2" x="131.04" y="32.98" width="35.88" height="25.13"/></g></g><path class="cls-4" d="M119.51,73.06c-9.86-5.7-25.91-5.7-35.84,0S73.7,88,83.56,93.7s25.9,5.7,35.83,0,10-14.94.12-20.64m-1.13,20.06a34.74,34.74,0,0,1-16.93,4c-6.12,0-12.22-1.35-16.87-4s-7-6.21-7-9.74,2.37-7,7.06-9.73a34.73,34.73,0,0,1,16.92-4,34.47,34.47,0,0,1,16.89,4c4.65,2.69,7,6.2,7,9.74s-2.38,7-7.06,9.73"/><g class="cls-9"><rect class="cls-2" x="1.17" y="-1.28" width="239" height="168"/><g class="cls-6"><rect class="cls-2" x="71.19" y="63.79" width="60.68" height="39.19"/></g></g><g class="cls-10"><path class="cls-11" d="M5.8,81.87C21.51,96.49,69.93,123.18,89,131.28s23.44,7.84,35.28,7.28c16-.76,79.25-31.9,110.88-58.8,3.14-2.67,3.68-9.59,2.24-13.45-1.28-3.44-4.11-8.21-7.28-10.08-24.64-14.56-66.64-40.88-93-52.08C129.7,1,106,1.73,98.77,5.43,72.1,19.15,17.28,49.67,5,60.72c-4.35,3.9-2.73,17.82.84,21.15"/><path class="cls-12" d="M225.29,86.1,148.1,131c-15.25,8.86-40.13,8.85-55.46,0L15,86.1C-.39,77.25-.48,62.83,14.77,54L92,9.12c15.23-8.86,40.12-8.85,55.45,0L225.09,54c15.33,8.85,15.43,23.27.2,32.12m14.09-14.76c.57-6.66-3.5-13.44-12.29-18.52L149.4,8c-16.46-9.5-43.13-9.5-59.46,0L12.75,52.81C4.6,57.54.54,63.76.55,70v-.06L.48,93.06c0,6.27,4.12,12.56,12.4,17.34l77.69,44.86c1,.57,2,1.1,3.08,1.6.35.17.73.32,1.09.47.62.28,1.23.57,1.87.83a1,1,0,0,1,.24.08c1.46.56,3,1.07,4.51,1.51l.35.13c.36.09.73.16,1.09.26.86.23,1.73.45,2.61.64l.69.17c.35.07.71.12,1.06.18.74.14,1.48.27,2.23.39l.89.16,1,.11c.7.09,1.4.17,2.11.24l1,.11.93,0c.72.06,1.43.09,2.15.12.36,0,.71,0,1.07.06s.57,0,.85,0c.78,0,1.55,0,2.32,0h1.15l.68-.05c1,0,1.9-.11,2.85-.19l1.15-.07.34-.05c1.61-.17,3.21-.39,4.79-.67l.24,0c.46-.08.89-.2,1.34-.29.79-.16,1.57-.31,2.33-.5.56-.13,1.1-.29,1.65-.44.73-.2,1.45-.39,2.17-.62l.47-.13c.26-.09.49-.2.75-.29,1.12-.38,2.21-.79,3.28-1.24.41-.17.81-.33,1.21-.51a44.23,44.23,0,0,0,4-2l77.19-44.86.5-.3c.39-.23.72-.49,1.1-.73s1-.65,1.49-1,.79-.63,1.18-.94.88-.69,1.28-1l.25-.21c.54-.5,1-1,1.51-1.53.11-.11.19-.23.3-.34.26-.31.54-.62.79-.93.11-.14.19-.29.3-.43.36-.49.68-1,1-1.47.13-.21.3-.4.41-.61s.1-.22.16-.33c.23-.43.42-.87.61-1.31.11-.25.26-.5.35-.76a2,2,0,0,0,.08-.26,11.91,11.91,0,0,0,.36-1.26c.08-.29.19-.56.25-.84,0-.08,0-.16,0-.24a12,12,0,0,0,.15-1.33c0-.29.09-.57.1-.86,0-.12,0-.24,0-.36l.06-23.15a11.54,11.54,0,0,1-.1,1.17"/><path class="cls-13" d="M123.23,43.61l-10.9,4.7a21.52,21.52,0,0,0,4.25,4.3l13.35-2,0,0c.6.31,1.23.59,1.87.85l.23,8.21A55.92,55.92,0,0,0,140.22,61L145,53.72m-8.83-28.54,6.8,7.68a31.24,31.24,0,0,1,3.33.55l10.14-5M143,32.86l-6.8-7.68a50.79,50.79,0,0,0-7.92.86l1.91,8.15m27,4.39,6.07-7c-.6-.35-1.19-.7-1.83-1a42.75,42.75,0,0,0-4.92-2.15l-10.14,5m-32.57-.69L128,35.17a15.89,15.89,0,0,1,2.17-1L128.23,26M128,35.17l-14.26-2.45a13.24,13.24,0,0,0-3,4.16l12.3,5m-10.67,6.46,10.9-4.7a6.26,6.26,0,0,1-.23-1.76l-12.3-5m37,16.61,11.42,5.84a31.11,31.11,0,0,0,6.23-2.68l-7.48-7.39M159,47.81l14.14-.94a10.7,10.7,0,0,0-.4-4.71l-14.19-1.94m4.6-8.67-6.07,7a11.63,11.63,0,0,1,1.47,1.64l14.19,1.94m.4,4.71L159,47.81a7.75,7.75,0,0,1-1.18,1.45l7.48,7.39m-6.23,2.68-11.42-5.84a26.12,26.12,0,0,1-2.69.23L140.22,61m9-22.76c5.33,2.76,6.2,7.21,1.94,9.94s-12,2.7-17.37-.07-6.2-7.21-1.94-9.94S143.91,35.5,149.24,38.27Zm-47,14.11,3.43,7.46c2,.28,4,.64,5.9,1.1l7.88-5.42M77.64,54,87,60c1.68-.27,3.4-.48,5.14-.6l1.45-7.28m12.14,7.73-3.43-7.46a84.73,84.73,0,0,0-8.71-.27l-1.45,7.28m31.6,5.87,3.55-7a71.63,71.63,0,0,0-7.78-2.76l-7.88,5.42m23.75,13.71L144.79,70A36.76,36.76,0,0,0,140,65.58L127.93,67.7m-.69-9.42-3.55,7,.49.24a42.61,42.61,0,0,1,3.75,2.2L140,65.58M87,60l-9.31-6a60.24,60.24,0,0,0-7.3,2.21l5.19,7.17M57.32,90.66,66.76,86a16.57,16.57,0,0,1-1.69-3L52,81.33m-.57-5,12.8-1.1A12.31,12.31,0,0,1,65.49,72L55,66.8M71.7,65.54,58.92,62.67a25,25,0,0,0-4,4.13L65.49,72m-6.57-9.29L71.7,65.54l.36-.24a29.45,29.45,0,0,1,3.47-1.9l-5.19-7.17m-6.11,19-12.8,1.1a16.53,16.53,0,0,0,.57,5L65.07,83m34.84,25.27-3.46-7.47c-2-.27-4-.64-5.91-1.09l-7.85,5.43M78.42,95.4l-3.52,7a74,74,0,0,0,7.79,2.75l7.85-5.43M74.9,102.39l3.52-7c-.18-.09-.36-.17-.53-.27A39.39,39.39,0,0,1,74.18,93L62.12,95.1m34.33,5.7,3.46,7.47c2.91.23,5.83.32,8.71.26l1.42-7.29M144.79,70l-9.46,4.63a16.5,16.5,0,0,1,1.68,3l13.06,1.68M66.76,86l-9.44,4.64a36.34,36.34,0,0,0,4.8,4.44L74.18,93m76.46-8.64L137.83,85.4a12.83,12.83,0,0,1-1.23,3.24l10.54,5.14m-9.31-8.38,12.81-1.08a16.59,16.59,0,0,0-.57-5L137,77.67m-21.83,23,9.32,6a55.78,55.78,0,0,0,7.29-2.22l-5.2-7.16m-2.09,9.38-9.32-6c-1.68.28-3.39.48-5.14.61l-1.42,7.29M130.4,95.07l12.79,2.85a25,25,0,0,0,3.95-4.14L136.6,88.64m6.59,9.28L130.4,95.07l-.39.27a31.9,31.9,0,0,1-3.42,1.87l5.2,7.16M116.46,70.43c10.67,5.53,12.41,14.44,3.88,19.89s-24.08,5.4-34.74-.13S73.19,75.75,81.72,70.3,105.8,64.91,116.46,70.43Z"/></g></svg>