<svg xmlns="http://www.w3.org/2000/svg" xmlns:xlink="http://www.w3.org/1999/xlink" viewBox="0 0 240 163"><defs><style>.cls-1,.cls-5{fill:none;}.cls-2{clip-path:url(#clip-path);}.cls-3{fill:#fff;}.cls-4{fill:url(#linear-gradient);}.cls-5{stroke:#38313d;stroke-miterlimit:10;stroke-width:2px;}</style><clipPath id="clip-path"><rect class="cls-1" x="1.41" y="-0.41" width="239" height="161.52"/></clipPath><linearGradient id="linear-gradient" x1="1.41" y1="80.35" x2="239.67" y2="80.35" gradientUnits="userSpaceOnUse"><stop offset="0" stop-color="#404040"/><stop offset="0.88" stop-color="#6c6c6c"/><stop offset="1" stop-color="#737373"/></linearGradient></defs><title>Network_dark</title><g id="Layer_2" data-name="Layer 2"><g class="cls-2"><path class="cls-3" d="M6.73,80.62C22.43,95.24,70.85,121.93,89.89,130s23.45,7.84,35.28,7.28c16-.77,79.25-31.91,110.89-58.8,3.13-2.67,3.67-9.59,2.24-13.45C237,61.62,234.18,56.85,231,55c-24.64-14.56-66.65-40.88-93-52.08C130.62-.26,106.87.48,99.69,4.18,73,17.9,18.21,48.42,5.89,59.47c-4.36,3.9-2.74,17.82.84,21.15"/><path class="cls-4" d="M226.21,84.85,149,129.71c-15.25,8.85-40.13,8.85-55.47,0L15.87,84.85C.54,76,.44,61.58,15.69,52.72L92.87,7.87C108.11-1,133-1,148.32,7.88L226,52.73c15.34,8.85,15.43,23.26.2,32.12m14.1-14.76c.57-6.66-3.51-13.45-12.3-18.52L150.32,6.71c-16.46-9.5-43.12-9.5-59.46,0L13.68,51.56C5.53,56.29,1.47,62.51,1.48,68.72a.35.35,0,0,1,0-.06L1.41,91.81c0,6.27,4.11,12.56,12.4,17.34L91.5,154c1,.57,2,1.1,3.07,1.6.36.17.73.31,1.09.47.62.28,1.24.57,1.88.83a1.13,1.13,0,0,1,.24.08c1.45.56,3,1.07,4.5,1.51l.36.13c.35.09.72.16,1.08.26.86.23,1.73.45,2.62.64l.68.17c.35.07.71.12,1.06.18.74.14,1.48.27,2.23.39.3,0,.59.11.89.15s.66.07,1,.12c.71.09,1.41.17,2.12.24l1,.11.94,0c.71.06,1.43.09,2.15.12l1.06.06c.29,0,.57,0,.86,0,.77,0,1.54,0,2.32,0h1.15l.67-.05c1,0,1.91-.11,2.86-.19l1.14-.07.34-.05c1.62-.17,3.22-.39,4.79-.67l.24,0c.46-.08.9-.2,1.35-.29.78-.16,1.56-.31,2.33-.5.55-.13,1.09-.29,1.64-.44.73-.2,1.46-.39,2.17-.62l.48-.13.74-.29c1.12-.38,2.22-.79,3.29-1.24.4-.17.81-.33,1.2-.51a42.92,42.92,0,0,0,3.95-2l77.19-44.86.51-.3c.39-.23.72-.49,1.09-.73s1-.65,1.49-1,.8-.63,1.18-.94.88-.7,1.28-1c.08-.08.17-.14.25-.21.55-.5,1-1,1.52-1.53l.29-.34c.27-.31.55-.62.8-.93.11-.14.18-.29.29-.43.36-.49.68-1,1-1.47.12-.21.29-.4.41-.61s.09-.22.15-.33A11.89,11.89,0,0,0,239,98a7.51,7.51,0,0,0,.36-.76,2.5,2.5,0,0,0,.07-.26c.15-.42.26-.84.37-1.26s.19-.57.24-.85a1.64,1.64,0,0,0,0-.23,12.06,12.06,0,0,0,.16-1.33c0-.29.09-.57.1-.86v-.37l.07-23.14c0,.39-.07.78-.1,1.17"/><path class="cls-5" d="M111.64,60c-4.42,2.53-5.13,6.45-2.21,9.64m0-10.94-18.64-11a16.4,16.4,0,0,1-4.59,1.71m81.86,18a5.32,5.32,0,0,0-1,2.86L136.35,67.4m31.72,0a9,9,0,0,1,3-2.63c5.49-3.12,14.6-2.92,20.33.46s6,8.65.46,11.78S177.28,80,171.54,76.6c-3-1.77-4.48-4.06-4.43-6.29M119.92,94.88a22.44,22.44,0,0,1,5-.51l-2-20a21.68,21.68,0,0,1-10.76-2.66,11.4,11.4,0,0,1-2.68-2.12l-6.81,1.91m17.3,23.34a16.44,16.44,0,0,0-4.6,1.69c-5.49,3.13-5.28,8.4.46,11.78s14.84,3.58,20.33.46,5.28-8.4-.46-11.78a21.71,21.71,0,0,0-10.77-2.66M90.8,47.72c5.49-3.12,5.29-8.39-.45-11.77S75.5,32.37,70,35.49s-5.29,8.4.45,11.78C74.8,49.82,81,50.56,86.21,49.43M81.51,74.6a11.2,11.2,0,0,1,2.68,2.12l18.43-5.18m6.82-12.85,2.2,1.3h0c4.44-2.53,11.24-2.88,16.71-1.13L141,44.38a17.18,17.18,0,0,1-3.62-1.59M81.51,74.6c-5.74-3.38-14.84-3.59-20.33-.46s-5.28,8.4.46,11.78S76.47,89.5,82,86.37c4.44-2.53,5.16-6.46,2.23-9.65M141,44.38c5.47,1.74,12.27,1.39,16.71-1.13,5.48-3.13,5.28-8.4-.46-11.78S142.4,27.89,136.91,31s-5.28,8.4.46,11.78m-14.5,31.62a19.52,19.52,0,0,0,9.57-2.2c5.49-3.13,5.29-8.4-.45-11.78a17.69,17.69,0,0,0-3.62-1.58m63,6.47c5.74,3.38,5.94,8.65.45,11.77s-14.59,2.92-20.33-.45S165.53,68,171,64.86,185.61,61.94,191.35,65.32Z"/></g></g></svg>