<svg xmlns="http://www.w3.org/2000/svg" xmlns:xlink="http://www.w3.org/1999/xlink" viewBox="0 0 240 140.3"><defs><style>.cls-1,.cls-2{fill:none;}.cls-1{clip-rule:evenodd;}.cls-3{fill:url(#linear-gradient);}.cls-4{clip-path:url(#clip-path);}.cls-5{clip-path:url(#clip-path-2);}.cls-6{fill:#fff;}.cls-7{clip-path:url(#clip-path-3);}.cls-8{clip-path:url(#clip-path-5);}</style><linearGradient id="linear-gradient" x1="3.05" y1="69.89" x2="236.32" y2="69.89" gradientUnits="userSpaceOnUse"><stop offset="0" stop-color="#333"/><stop offset="0.71" stop-color="#5f5f5f"/><stop offset="1" stop-color="#737373"/></linearGradient><clipPath id="clip-path"><path class="cls-1" d="M132.89,40.68c6.88-4,16.48-3.52,24.47,1.1s8.7,10.16,1.81,14.11a20,20,0,0,1-11.67,2.35l11.9,6.89-4,2.29-33.7-19.51,3.75-2.16,3.2,1.86c-.66-2.4.84-5,4.22-6.93m22.78,13.19c5.42-3.12,2.16-7.23-2.29-9.8s-11.56-4.48-17-1.36c-5.23,3-4.64,6.41,1.76,10.12,2.26,1.31,10.2,5.25,17.52,1"/></clipPath><clipPath id="clip-path-2"><rect class="cls-2" x="3.42" y="-2.88" width="240.12" height="138.77"/></clipPath><clipPath id="clip-path-3"><path class="cls-1" d="M105.9,56.66c6.89-4,16.49-3.52,24.48,1.1s8.69,10.15,1.81,14.11a20,20,0,0,1-11.68,2.35l11.91,6.89-4,2.29L94.73,63.89l3.76-2.16,3.2,1.85c-.67-2.39.84-5,4.21-6.92m22.78,13.18c5.43-3.12,2.16-7.22-2.28-9.79s-11.57-4.48-17-1.36c-5.23,3-4.65,6.41,1.76,10.12,2.26,1.31,10.19,5.24,17.51,1"/></clipPath><clipPath id="clip-path-5"><path class="cls-1" d="M112.54,78.44l.44-.6L116.66,80l-.31.29a9.89,9.89,0,0,1-1.86,1.31,7.16,7.16,0,0,1-7.22.36c.57,2.6-.2,4.82-4.48,7.32-5.34,3.13-11.57,3.36-16.24.61-6.77-4-1.27-8,4-11.92l1.17-.87c2.19-1.61,2.77-2.29.6-3.57-3-1.79-6.22-1.55-10.25.81-2.16,1.27-5.18,3.82-.85,6.48l.49.31-4,2.37-.52-.35C71.92,79.74,72.55,75.79,79,72s12.27-3.9,17.75-.66l12.8,7.54A2.17,2.17,0,0,0,112,79a2,2,0,0,0,.58-.51m-12.15-.16-2.78-1.64a6.1,6.1,0,0,1-1.44,1.47c-.67.57-1.4,1.16-2.15,1.73-3.66,2.84-7.12,5.53-3.63,7.59,2.74,1.61,6.73,1,9.09-.36s3.76-3.19,3.75-4.91c0-1.46-1-2.8-2.84-3.88"/></clipPath></defs><title>Top_app_dark</title><g id="Layer_2" data-name="Layer 2"><path class="cls-3" d="M225,86l-77.18,44.86c-15.25,8.86-40.13,8.85-55.47,0L14.62,86C-.72,77.1-.82,62.68,14.43,53.82L91.62,9C106.85.11,131.73.12,147.07,9l77.69,44.85C240.09,62.68,240.19,77.1,225,86"/><g class="cls-4"><g class="cls-5"><rect class="cls-6" x="118.31" y="34.58" width="48.96" height="36.24"/></g></g><g class="cls-7"><g class="cls-5"><rect class="cls-6" x="91.33" y="50.56" width="48.96" height="36.24"/></g></g><g class="cls-8"><g class="cls-5"><rect class="cls-6" x="70.25" y="65.7" width="49.81" height="29.51"/></g></g></g></svg>