<svg xmlns="http://www.w3.org/2000/svg" viewBox="0 0 345 171"><defs><style>.cls-1{fill:none;}.cls-2{fill:#fff;fill-rule:evenodd;}</style></defs><title>nginx.com-CustomerSection-logos_345x171_R01mw</title><g id="Transparent_object" data-name="Transparent object"><rect class="cls-1" width="345" height="171"/></g><g id="Layer_1" data-name="Layer 1"><path class="cls-2" d="M243.66,106.66c0,3.55-2.29,5.23-6.31,5.23h-7.67v-3.55h7.67a2.34,2.34,0,0,0,1.55-.37,1.56,1.56,0,0,0,.49-1.06,1.62,1.62,0,0,0-.49-1.18,2,2,0,0,0-1.42-.37c-3.65-.12-8.29.12-8.29-5.17,0-2.37,1.55-5,5.69-5h7.92v3.55h-7.3A2.57,2.57,0,0,0,234,99a1.76,1.76,0,0,0-.62,1.31,1.24,1.24,0,0,0,.8,1.19,6.23,6.23,0,0,0,1.55.25h2.16a7,7,0,0,1,4.64,1.31,5.47,5.47,0,0,1,1.17,3.62M227,103a7,7,0,0,0-4.64-1.31h-2.17a6.16,6.16,0,0,1-1.55-.25,1.24,1.24,0,0,1-.81-1.19,1.43,1.43,0,0,1,.62-1.31,2.57,2.57,0,0,1,1.55-.25h7.3V95.19h-7.92c-4.27,0-5.69,2.62-5.69,5,0,5.3,4.64,5,8.29,5.17a2,2,0,0,1,1.42.37,1.63,1.63,0,0,1,.5,1.18,1.57,1.57,0,0,1-.5,1.06,2.58,2.58,0,0,1-1.55.37h-7.67v3.55h7.67c4,0,6.31-1.68,6.31-5.23A5.49,5.49,0,0,0,227,103m-15.22,5.42h-9.34V105.1h9.16v-3.36h-9.16V98.68h9.34V95.19H198.51v16.7h13.24ZM194.24,96a10.32,10.32,0,0,0-4.89-.81h-9.09v16.7h4v-6.11h4.27c1.42,0,2.23.12,2.84.75.68.81.68,2.24.68,3.37v2h4v-3.24a5.22,5.22,0,0,0-.62-3.05,4.11,4.11,0,0,0-2-1.43,4.57,4.57,0,0,0,2.84-4.42,3.81,3.81,0,0,0-2-3.74m-22.52-.81H159l-5.13,5.48-4.83-5.48h-16v16.7h15.77l5.07-5.48,4.89,5.48h7.67v-5.61h5c3.4,0,6.87-.93,6.87-5.61s-3.53-5.48-6.62-5.48M232.65,83.1H227l-7.49-12.52V83.1h-8l-1.55-3.68H201.6l-1.55,3.68h-4.64c-1.92,0-4.39-.44-5.81-1.87s-2-3.37-2-6.36c.06-2.49.37-4.73,2.17-6.54,1.17-1.31,3.34-1.93,6.06-1.93h3.77V70h-3.77a4.3,4.3,0,0,0-3.09.93c-.74.75-1.05,2.06-1.05,3.8a6,6,0,0,0,1.05,4,4.07,4.07,0,0,0,2.72.81h1.79L202.9,66.4h5.87l6.68,15.76V66.4h6.12l7,11.59V66.4h4.08ZM185.58,66.4h-4V83.1h4Zm-8.41.75c-1.3-.75-2.72-.75-4.76-.75h-9.09V83.1h3.9v-6h4.27c1.42,0,2.35.12,3,.69.68.87.56,2.31.56,3.24V83.1h4.08V79.8a4.32,4.32,0,0,0-.74-3,4.85,4.85,0,0,0-1.92-1.43A4.72,4.72,0,0,0,179.27,71a4,4,0,0,0-2.1-3.8m-16.7,12.52h-9.28V76.31h9.16V72.88h-9.16v-3h9.28V66.4h-13.3V83.1h13.3ZM144.2,66.4h-6.49l-4.89,11.34L127.62,66.4h-6.37V82.17L114.45,66.4h-5.87l-7.11,16.7h4.27l1.49-3.68h8.35L117,83.1h8.1V70L131,83.1h3.4L140.18,70V83.1h4ZM191,102.1a4.76,4.76,0,0,1-1.92.25l-4.82.12v-3.8h4.82A3.69,3.69,0,0,1,191,99a1.51,1.51,0,0,1,.8,1.43,2,2,0,0,1-.8,1.68m-19.3.81h-5.26V98.68h5.26c1.42,0,2.35.56,2.35,2a2.12,2.12,0,0,1-2.35,2.24m-15.28.62L162.57,97v13.46Zm-9.65,4.92H137V105.1h8.78v-3.36H137V98.68h10l4.39,4.86Zm61.67-32.59-2.72-6.61L203,75.87ZM174.08,73.2a3.44,3.44,0,0,1-2,.37h-4.88V69.89h4.88a5,5,0,0,1,2,.25,1.67,1.67,0,0,1,.74,1.56,1.51,1.51,0,0,1-.74,1.5m-65.44,2.68,2.78-6.61,2.72,6.61Z"/><path class="cls-2" d="M236.18,86.47H225l-2.17-3.55v3.55H209l-1.54-3.8h-3.4l-1.55,3.8h-7.24A13.59,13.59,0,0,1,188.92,85v1.43h-17.2V81.11c0-.75-.12-.87-.62-.87h-.56v6.23H137.33v-3l-1.17,3h-7L128,83.6v2.87H114.57l-1.42-3.8h-3.4l-1.55,3.8h-6.86V157H242.67V114.19a14.61,14.61,0,0,1-5.75,1.06H226.59v-1.43a9.28,9.28,0,0,1-5.32,1.43H188.8V109.9c0-.75-.13-.75-.74-.75h-.55v6.11H176.8V108.9a12.46,12.46,0,0,1-5.57.87h-1.17v5.48H157l-3.09-3.61-3.4,3.61h-21V91.83h21.34l3,3.61,3.34-3.61H171.6c1.67,0,4.39.25,5.57,1.43V91.83H190a10.18,10.18,0,0,1,5.44,1.43V91.83h19.3v1.43a8.12,8.12,0,0,1,4.89-1.43h10.76v1.43a8.74,8.74,0,0,1,5-1.43h7.3V14H101.34V74.19l4.83-11.09h10.33l1.42,2.74V63.1H130L132.7,69l2.66-5.92h38.47a6.71,6.71,0,0,1,4.51,1.31V63.1h10.58v1.31a13.39,13.39,0,0,1,6.62-1.31h15.28l1.42,2.74V63.1H223.5l1.67,2.74V63.1h11"/></g></svg>