<svg xmlns="http://www.w3.org/2000/svg" viewBox="-5475 2863.109 40.353 40.353">
  <defs>
    <style>
      .cls-1, .cls-3 {
        fill: none;
      }

      .cls-1 {
        stroke: #000;
        stroke-width: 3px;
      }

      .cls-2 {
        stroke: none;
      }
    </style>
  </defs>
  <g id="Group_11230" data-name="Group 11230" transform="translate(-5985 -322.891)">
    <g id="Ellipse_9" data-name="Ellipse 9" class="cls-1" transform="translate(510 3186)">
      <circle class="cls-2" cx="20.176" cy="20.176" r="20.176"/>
      <circle class="cls-3" cx="20.176" cy="20.176" r="18.676"/>
    </g>
    <path id="Path_60281" data-name="Path 60281" d="M16.468,27.229h2.557V10.986H16.468V17.1a4.719,4.719,0,0,0-3.775-1.924c-3.044,0-5.236,2.387-5.236,6.186,0,3.872,2.216,6.161,5.236,6.161a4.764,4.764,0,0,0,3.775-1.9Zm0-3.531a3.843,3.843,0,0,1-3.044,1.559c-2.021,0-3.312-1.632-3.312-3.9,0-2.289,1.291-3.921,3.312-3.921a3.864,3.864,0,0,1,3.044,1.583Zm5.138-2.362a6.187,6.187,0,0,0,2.473,5.093,6.009,6.009,0,0,0,3.615,1.093A5.274,5.274,0,0,0,32.2,25.427l-1.68-1.559a3.2,3.2,0,0,1-2.7,1.388c-2.143,0-3.555-1.632-3.555-3.921a4.411,4.411,0,0,1,.822-2.625,3.251,3.251,0,0,1,2.734-1.271,3.139,3.139,0,0,1,2.7,1.388l1.68-1.559a5.274,5.274,0,0,0-4.505-2.094A5.9,5.9,0,0,0,21.607,21.336Z" transform="translate(510.15 3186.17)"/>
  </g>
</svg>
