<?xml version="1.0" encoding="UTF-8"?>
<svg width="16px" height="16px" viewBox="0 0 16 16" version="1.1" xmlns="http://www.w3.org/2000/svg" xmlns:xlink="http://www.w3.org/1999/xlink">
    <!-- Generator: Sketch 64 (93537) - https://sketch.com -->
    <title>blue-li</title>
    <desc>Created with Sketch.</desc>
    <g id="new" stroke="none" stroke-width="1" fill="none" fill-rule="evenodd">
        <g id="Artboard" transform="translate(-890.000000, -3394.000000)" fill-rule="nonzero">
            <g id="Group-3" transform="translate(0.000000, 2922.000000)">
                <g id="Group-2" transform="translate(150.000000, 93.000000)">
                    <g id="Group-5" transform="translate(740.000000, 317.000000)">
                        <g id="blue-li" transform="translate(0.000000, 62.000000)">
                            <path d="M8,0 C3.6,0 0,3.6 0,8 C0,12.4 3.6,16 8,16 C12.4,16 16,12.4 16,8 C16,3.6 12.4,0 8,0 Z" id="Shape-Copy-4" fill="#E5EAFF"></path>
                            <path d="M6.29289322,10.6928932 L4.3,8.7 C3.91340068,8.31340068 3.91340068,7.68659932 4.3,7.3 C4.68659932,6.91340068 5.31340068,6.91340068 5.7,7.3 L7,8.6 L7,8.6 L10.3,5.3 C10.6865993,4.91340068 11.3134007,4.91340068 11.7,5.3 C12.0865993,5.68659932 12.0865993,6.31340068 11.7,6.7 L7.70710678,10.6928932 C7.31658249,11.0834175 6.68341751,11.0834175 6.29289322,10.6928932 Z" id="Path" fill="#4F73FF"></path>
                        </g>
                    </g>
                </g>
            </g>
        </g>
    </g>
</svg>