<?xml version="1.0" encoding="UTF-8"?>
<svg width="147px" height="109px" viewBox="0 0 147 109" version="1.1" xmlns="http://www.w3.org/2000/svg" xmlns:xlink="http://www.w3.org/1999/xlink">
    <title>Artboard</title>
    <g id="Artboard" stroke="none" stroke-width="1" fill="none" fill-rule="evenodd" opacity="0.100000001">
        <path d="M30,136 C31.1045695,136 32,136.895431 32,138 C32,139.104569 31.1045695,140 30,140 C28.8954305,140 28,139.104569 28,138 C28,136.895431 28.8954305,136 30,136 Z M42,136 C43.1045695,136 44,136.895431 44,138 C44,139.104569 43.1045695,140 42,140 C40.8954305,140 40,139.104569 40,138 C40,136.895431 40.8954305,136 42,136 Z M78,136 C79.1045695,136 80,136.895431 80,138 C80,139.104569 79.1045695,140 78,140 C76.8954305,140 76,139.104569 76,138 C76,136.895431 76.8954305,136 78,136 Z M90,136 C91.1045695,136 92,136.895431 92,138 C92,139.104569 91.1045695,140 90,140 C88.8954305,140 88,139.104569 88,138 C88,136.895431 88.8954305,136 90,136 Z M114,136 C115.104569,136 116,136.895431 116,138 C116,139.104569 115.104569,140 114,140 C112.895431,140 112,139.104569 112,138 C112,136.895431 112.895431,136 114,136 Z M126,136 C127.104569,136 128,136.895431 128,138 C128,139.104569 127.104569,140 126,140 C124.895431,140 124,139.104569 124,138 C124,136.895431 124.895431,136 126,136 Z M138,136 C139.104569,136 140,136.895431 140,138 C140,139.104569 139.104569,140 138,140 C136.895431,140 136,139.104569 136,138 C136,136.895431 136.895431,136 138,136 Z M90,124 C91.1045695,124 92,124.895431 92,126 C92,127.104569 91.1045695,128 90,128 C88.8954305,128 88,127.104569 88,126 C88,124.895431 88.8954305,124 90,124 Z M102,124 C103.104569,124 104,124.895431 104,126 C104,127.104569 103.104569,128 102,128 C100.895431,128 100,127.104569 100,126 C100,124.895431 100.895431,124 102,124 Z M138,124 C139.104569,124 140,124.895431 140,126 C140,127.104569 139.104569,128 138,128 C136.895431,128 136,127.104569 136,126 C136,124.895431 136.895431,124 138,124 Z M6,124 C7.1045695,124 8,124.895431 8,126 C8,127.104569 7.1045695,128 6,128 C4.8954305,128 4,127.104569 4,126 C4,124.895431 4.8954305,124 6,124 Z M30,124 C31.1045695,124 32,124.895431 32,126 C32,127.104569 31.1045695,128 30,128 C28.8954305,128 28,127.104569 28,126 C28,124.895431 28.8954305,124 30,124 Z M78,112 C79.1045695,112 80,112.895431 80,114 C80,115.104569 79.1045695,116 78,116 C76.8954305,116 76,115.104569 76,114 C76,112.895431 76.8954305,112 78,112 Z M90,112 C91.1045695,112 92,112.895431 92,114 C92,115.104569 91.1045695,116 90,116 C88.8954305,116 88,115.104569 88,114 C88,112.895431 88.8954305,112 90,112 Z M102,112 C103.104569,112 104,112.895431 104,114 C104,115.104569 103.104569,116 102,116 C100.895431,116 100,115.104569 100,114 C100,112.895431 100.895431,112 102,112 Z M138,112 C139.104569,112 140,112.895431 140,114 C140,115.104569 139.104569,116 138,116 C136.895431,116 136,115.104569 136,114 C136,112.895431 136.895431,112 138,112 Z M6,112 C7.1045695,112 8,112.895431 8,114 C8,115.104569 7.1045695,116 6,116 C4.8954305,116 4,115.104569 4,114 C4,112.895431 4.8954305,112 6,112 Z M18,112 C19.1045695,112 20,112.895431 20,114 C20,115.104569 19.1045695,116 18,116 C16.8954305,116 16,115.104569 16,114 C16,112.895431 16.8954305,112 18,112 Z M30,112 C31.1045695,112 32,112.895431 32,114 C32,115.104569 31.1045695,116 30,116 C28.8954305,116 28,115.104569 28,114 C28,112.895431 28.8954305,112 30,112 Z M66,112 C67.1045695,112 68,112.895431 68,114 C68,115.104569 67.1045695,116 66,116 C64.8954305,116 64,115.104569 64,114 C64,112.895431 64.8954305,112 66,112 Z M102,100 C103.104569,100 104,100.895431 104,102 C104,103.104569 103.104569,104 102,104 C100.895431,104 100,103.104569 100,102 C100,100.895431 100.895431,100 102,100 Z M126,100 C127.104569,100 128,100.895431 128,102 C128,103.104569 127.104569,104 126,104 C124.895431,104 124,103.104569 124,102 C124,100.895431 124.895431,100 126,100 Z M138,100 C139.104569,100 140,100.895431 140,102 C140,103.104569 139.104569,104 138,104 C136.895431,104 136,103.104569 136,102 C136,100.895431 136.895431,100 138,100 Z M6,100 C7.1045695,100 8,100.895431 8,102 C8,103.104569 7.1045695,104 6,104 C4.8954305,104 4,103.104569 4,102 C4,100.895431 4.8954305,100 6,100 Z M18,100 C19.1045695,100 20,100.895431 20,102 C20,103.104569 19.1045695,104 18,104 C16.8954305,104 16,103.104569 16,102 C16,100.895431 16.8954305,100 18,100 Z M66,100 C67.1045695,100 68,100.895431 68,102 C68,103.104569 67.1045695,104 66,104 C64.8954305,104 64,103.104569 64,102 C64,100.895431 64.8954305,100 66,100 Z M78,100 C79.1045695,100 80,100.895431 80,102 C80,103.104569 79.1045695,104 78,104 C76.8954305,104 76,103.104569 76,102 C76,100.895431 76.8954305,100 78,100 Z M90,100 C91.1045695,100 92,100.895431 92,102 C92,103.104569 91.1045695,104 90,104 C88.8954305,104 88,103.104569 88,102 C88,100.895431 88.8954305,100 90,100 Z M126,88 C127.104569,88 128,88.8954305 128,90 C128,91.1045695 127.104569,92 126,92 C124.895431,92 124,91.1045695 124,90 C124,88.8954305 124.895431,88 126,88 Z M138,88 C139.104569,88 140,88.8954305 140,90 C140,91.1045695 139.104569,92 138,92 C136.895431,92 136,91.1045695 136,90 C136,88.8954305 136.895431,88 138,88 Z M18,88 C19.1045695,88 20,88.8954305 20,90 C20,91.1045695 19.1045695,92 18,92 C16.8954305,92 16,91.1045695 16,90 C16,88.8954305 16.8954305,88 18,88 Z M66,88 C67.1045695,88 68,88.8954305 68,90 C68,91.1045695 67.1045695,92 66,92 C64.8954305,92 64,91.1045695 64,90 C64,88.8954305 64.8954305,88 66,88 Z M78,88 C79.1045695,88 80,88.8954305 80,90 C80,91.1045695 79.1045695,92 78,92 C76.8954305,92 76,91.1045695 76,90 C76,88.8954305 76.8954305,88 78,88 Z M30,88 C31.1045695,88 32,88.8954305 32,90 C32,91.1045695 31.1045695,92 30,92 C28.8954305,92 28,91.1045695 28,90 C28,88.8954305 28.8954305,88 30,88 Z M42,88 C43.1045695,88 44,88.8954305 44,90 C44,91.1045695 43.1045695,92 42,92 C40.8954305,92 40,91.1045695 40,90 C40,88.8954305 40.8954305,88 42,88 Z M54,88 C55.1045695,88 56,88.8954305 56,90 C56,91.1045695 55.1045695,92 54,92 C52.8954305,92 52,91.1045695 52,90 C52,88.8954305 52.8954305,88 54,88 Z M114,88 C115.104569,88 116,88.8954305 116,90 C116,91.1045695 115.104569,92 114,92 C112.895431,92 112,91.1045695 112,90 C112,88.8954305 112.895431,88 114,88 Z M102,88 C103.104569,88 104,88.8954305 104,90 C104,91.1045695 103.104569,92 102,92 C100.895431,92 100,91.1045695 100,90 C100,88.8954305 100.895431,88 102,88 Z M54,76 C55.1045695,76 56,76.8954305 56,78 C56,79.1045695 55.1045695,80 54,80 C52.8954305,80 52,79.1045695 52,78 C52,76.8954305 52.8954305,76 54,76 Z M138,76 C139.104569,76 140,76.8954305 140,78 C140,79.1045695 139.104569,80 138,80 C136.895431,80 136,79.1045695 136,78 C136,76.8954305 136.895431,76 138,76 Z M42,76 C43.1045695,76 44,76.8954305 44,78 C44,79.1045695 43.1045695,80 42,80 C40.8954305,80 40,79.1045695 40,78 C40,76.8954305 40.8954305,76 42,76 Z M66,76 C67.1045695,76 68,76.8954305 68,78 C68,79.1045695 67.1045695,80 66,80 C64.8954305,80 64,79.1045695 64,78 C64,76.8954305 64.8954305,76 66,76 Z M78,76 C79.1045695,76 80,76.8954305 80,78 C80,79.1045695 79.1045695,80 78,80 C76.8954305,80 76,79.1045695 76,78 C76,76.8954305 76.8954305,76 78,76 Z M90,76 C91.1045695,76 92,76.8954305 92,78 C92,79.1045695 91.1045695,80 90,80 C88.8954305,80 88,79.1045695 88,78 C88,76.8954305 88.8954305,76 90,76 Z M102,76 C103.104569,76 104,76.8954305 104,78 C104,79.1045695 103.104569,80 102,80 C100.895431,80 100,79.1045695 100,78 C100,76.8954305 100.895431,76 102,76 Z M114,76 C115.104569,76 116,76.8954305 116,78 C116,79.1045695 115.104569,80 114,80 C112.895431,80 112,79.1045695 112,78 C112,76.8954305 112.895431,76 114,76 Z M126,76 C127.104569,76 128,76.8954305 128,78 C128,79.1045695 127.104569,80 126,80 C124.895431,80 124,79.1045695 124,78 C124,76.8954305 124.895431,76 126,76 Z M30,64 C31.1045695,64 32,64.8954305 32,66 C32,67.1045695 31.1045695,68 30,68 C28.8954305,68 28,67.1045695 28,66 C28,64.8954305 28.8954305,64 30,64 Z M78,64 C79.1045695,64 80,64.8954305 80,66 C80,67.1045695 79.1045695,68 78,68 C76.8954305,68 76,67.1045695 76,66 C76,64.8954305 76.8954305,64 78,64 Z M102,64 C103.104569,64 104,64.8954305 104,66 C104,67.1045695 103.104569,68 102,68 C100.895431,68 100,67.1045695 100,66 C100,64.8954305 100.895431,64 102,64 Z M90,64 C91.1045695,64 92,64.8954305 92,66 C92,67.1045695 91.1045695,68 90,68 C88.8954305,68 88,67.1045695 88,66 C88,64.8954305 88.8954305,64 90,64 Z M138,64 C139.104569,64 140,64.8954305 140,66 C140,67.1045695 139.104569,68 138,68 C136.895431,68 136,67.1045695 136,66 C136,64.8954305 136.895431,64 138,64 Z M114,64 C115.104569,64 116,64.8954305 116,66 C116,67.1045695 115.104569,68 114,68 C112.895431,68 112,67.1045695 112,66 C112,64.8954305 112.895431,64 114,64 Z M66,64 C67.1045695,64 68,64.8954305 68,66 C68,67.1045695 67.1045695,68 66,68 C64.8954305,68 64,67.1045695 64,66 C64,64.8954305 64.8954305,64 66,64 Z M54,64 C55.1045695,64 56,64.8954305 56,66 C56,67.1045695 55.1045695,68 54,68 C52.8954305,68 52,67.1045695 52,66 C52,64.8954305 52.8954305,64 54,64 Z M42,64 C43.1045695,64 44,64.8954305 44,66 C44,67.1045695 43.1045695,68 42,68 C40.8954305,68 40,67.1045695 40,66 C40,64.8954305 40.8954305,64 42,64 Z M54,52 C55.1045695,52 56,52.8954305 56,54 C56,55.1045695 55.1045695,56 54,56 C52.8954305,56 52,55.1045695 52,54 C52,52.8954305 52.8954305,52 54,52 Z M66,52 C67.1045695,52 68,52.8954305 68,54 C68,55.1045695 67.1045695,56 66,56 C64.8954305,56 64,55.1045695 64,54 C64,52.8954305 64.8954305,52 66,52 Z M114,52 C115.104569,52 116,52.8954305 116,54 C116,55.1045695 115.104569,56 114,56 C112.895431,56 112,55.1045695 112,54 C112,52.8954305 112.895431,52 114,52 Z M126,52 C127.104569,52 128,52.8954305 128,54 C128,55.1045695 127.104569,56 126,56 C124.895431,56 124,55.1045695 124,54 C124,52.8954305 124.895431,52 126,52 Z M90,52 C91.1045695,52 92,52.8954305 92,54 C92,55.1045695 91.1045695,56 90,56 C88.8954305,56 88,55.1045695 88,54 C88,52.8954305 88.8954305,52 90,52 Z M102,52 C103.104569,52 104,52.8954305 104,54 C104,55.1045695 103.104569,56 102,56 C100.895431,56 100,55.1045695 100,54 C100,52.8954305 100.895431,52 102,52 Z M18,52 C19.1045695,52 20,52.8954305 20,54 C20,55.1045695 19.1045695,56 18,56 C16.8954305,56 16,55.1045695 16,54 C16,52.8954305 16.8954305,52 18,52 Z M30,52 C31.1045695,52 32,52.8954305 32,54 C32,55.1045695 31.1045695,56 30,56 C28.8954305,56 28,55.1045695 28,54 C28,52.8954305 28.8954305,52 30,52 Z M138,52 C139.104569,52 140,52.8954305 140,54 C140,55.1045695 139.104569,56 138,56 C136.895431,56 136,55.1045695 136,54 C136,52.8954305 136.895431,52 138,52 Z M6,52 C7.1045695,52 8,52.8954305 8,54 C8,55.1045695 7.1045695,56 6,56 C4.8954305,56 4,55.1045695 4,54 C4,52.8954305 4.8954305,52 6,52 Z M126,40 C127.104569,40 128,40.8954305 128,42 C128,43.1045695 127.104569,44 126,44 C124.895431,44 124,43.1045695 124,42 C124,40.8954305 124.895431,40 126,40 Z M78,40 C79.1045695,40 80,40.8954305 80,42 C80,43.1045695 79.1045695,44 78,44 C76.8954305,44 76,43.1045695 76,42 C76,40.8954305 76.8954305,40 78,40 Z M18,40 C19.1045695,40 20,40.8954305 20,42 C20,43.1045695 19.1045695,44 18,44 C16.8954305,44 16,43.1045695 16,42 C16,40.8954305 16.8954305,40 18,40 Z M54,40 C55.1045695,40 56,40.8954305 56,42 C56,43.1045695 55.1045695,44 54,44 C52.8954305,44 52,43.1045695 52,42 C52,40.8954305 52.8954305,40 54,40 Z M30,40 C31.1045695,40 32,40.8954305 32,42 C32,43.1045695 31.1045695,44 30,44 C28.8954305,44 28,43.1045695 28,42 C28,40.8954305 28.8954305,40 30,40 Z M42,40 C43.1045695,40 44,40.8954305 44,42 C44,43.1045695 43.1045695,44 42,44 C40.8954305,44 40,43.1045695 40,42 C40,40.8954305 40.8954305,40 42,40 Z M66,40 C67.1045695,40 68,40.8954305 68,42 C68,43.1045695 67.1045695,44 66,44 C64.8954305,44 64,43.1045695 64,42 C64,40.8954305 64.8954305,40 66,40 Z M114,40 C115.104569,40 116,40.8954305 116,42 C116,43.1045695 115.104569,44 114,44 C112.895431,44 112,43.1045695 112,42 C112,40.8954305 112.895431,40 114,40 Z M6,40 C7.1045695,40 8,40.8954305 8,42 C8,43.1045695 7.1045695,44 6,44 C4.8954305,44 4,43.1045695 4,42 C4,40.8954305 4.8954305,40 6,40 Z M102,40 C103.104569,40 104,40.8954305 104,42 C104,43.1045695 103.104569,44 102,44 C100.895431,44 100,43.1045695 100,42 C100,40.8954305 100.895431,40 102,40 Z M90,28 C91.1045695,28 92,28.8954305 92,30 C92,31.1045695 91.1045695,32 90,32 C88.8954305,32 88,31.1045695 88,30 C88,28.8954305 88.8954305,28 90,28 Z M66,28 C67.1045695,28 68,28.8954305 68,30 C68,31.1045695 67.1045695,32 66,32 C64.8954305,32 64,31.1045695 64,30 C64,28.8954305 64.8954305,28 66,28 Z M6,28 C7.1045695,28 8,28.8954305 8,30 C8,31.1045695 7.1045695,32 6,32 C4.8954305,32 4,31.1045695 4,30 C4,28.8954305 4.8954305,28 6,28 Z M114,28 C115.104569,28 116,28.8954305 116,30 C116,31.1045695 115.104569,32 114,32 C112.895431,32 112,31.1045695 112,30 C112,28.8954305 112.895431,28 114,28 Z M78,28 C79.1045695,28 80,28.8954305 80,30 C80,31.1045695 79.1045695,32 78,32 C76.8954305,32 76,31.1045695 76,30 C76,28.8954305 76.8954305,28 78,28 Z M18,28 C19.1045695,28 20,28.8954305 20,30 C20,31.1045695 19.1045695,32 18,32 C16.8954305,32 16,31.1045695 16,30 C16,28.8954305 16.8954305,28 18,28 Z M42,28 C43.1045695,28 44,28.8954305 44,30 C44,31.1045695 43.1045695,32 42,32 C40.8954305,32 40,31.1045695 40,30 C40,28.8954305 40.8954305,28 42,28 Z M102,28 C103.104569,28 104,28.8954305 104,30 C104,31.1045695 103.104569,32 102,32 C100.895431,32 100,31.1045695 100,30 C100,28.8954305 100.895431,28 102,28 Z M6,16 C7.1045695,16 8,16.8954305 8,18 C8,19.1045695 7.1045695,20 6,20 C4.8954305,20 4,19.1045695 4,18 C4,16.8954305 4.8954305,16 6,16 Z M18,16 C19.1045695,16 20,16.8954305 20,18 C20,19.1045695 19.1045695,20 18,20 C16.8954305,20 16,19.1045695 16,18 C16,16.8954305 16.8954305,16 18,16 Z M30,16 C31.1045695,16 32,16.8954305 32,18 C32,19.1045695 31.1045695,20 30,20 C28.8954305,20 28,19.1045695 28,18 C28,16.8954305 28.8954305,16 30,16 Z M54,16 C55.1045695,16 56,16.8954305 56,18 C56,19.1045695 55.1045695,20 54,20 C52.8954305,20 52,19.1045695 52,18 C52,16.8954305 52.8954305,16 54,16 Z M66,16 C67.1045695,16 68,16.8954305 68,18 C68,19.1045695 67.1045695,20 66,20 C64.8954305,20 64,19.1045695 64,18 C64,16.8954305 64.8954305,16 66,16 Z M90,16 C91.1045695,16 92,16.8954305 92,18 C92,19.1045695 91.1045695,20 90,20 C88.8954305,20 88,19.1045695 88,18 C88,16.8954305 88.8954305,16 90,16 Z M102,16 C103.104569,16 104,16.8954305 104,18 C104,19.1045695 103.104569,20 102,20 C100.895431,20 100,19.1045695 100,18 C100,16.8954305 100.895431,16 102,16 Z M6,4 C7.1045695,4 8,4.8954305 8,6 C8,7.1045695 7.1045695,8 6,8 C4.8954305,8 4,7.1045695 4,6 C4,4.8954305 4.8954305,4 6,4 Z M30,4 C31.1045695,4 32,4.8954305 32,6 C32,7.1045695 31.1045695,8 30,8 C28.8954305,8 28,7.1045695 28,6 C28,4.8954305 28.8954305,4 30,4 Z M42,4 C43.1045695,4 44,4.8954305 44,6 C44,7.1045695 43.1045695,8 42,8 C40.8954305,8 40,7.1045695 40,6 C40,4.8954305 40.8954305,4 42,4 Z M54,4 C55.1045695,4 56,4.8954305 56,6 C56,7.1045695 55.1045695,8 54,8 C52.8954305,8 52,7.1045695 52,6 C52,4.8954305 52.8954305,4 54,4 Z M90,4 C91.1045695,4 92,4.8954305 92,6 C92,7.1045695 91.1045695,8 90,8 C88.8954305,8 88,7.1045695 88,6 C88,4.8954305 88.8954305,4 90,4 Z M102,4 C103.104569,4 104,4.8954305 104,6 C104,7.1045695 103.104569,8 102,8 C100.895431,8 100,7.1045695 100,6 C100,4.8954305 100.895431,4 102,4 Z M114,4 C115.104569,4 116,4.8954305 116,6 C116,7.1045695 115.104569,8 114,8 C112.895431,8 112,7.1045695 112,6 C112,4.8954305 112.895431,4 114,4 Z" id="Combined-Shape-Copy-3" stroke="#FFFFFF"></path>
    </g>
</svg>