<?xml version="1.0" encoding="utf-8"?>
<!-- Generator: Adobe Illustrator 24.1.3, SVG Export Plug-In . SVG Version: 6.00 Build 0)  -->
<svg version="1.1" id="Layer_1" xmlns="http://www.w3.org/2000/svg" xmlns:xlink="http://www.w3.org/1999/xlink" x="0px" y="0px"
	 viewBox="0 0 137 137" style="enable-background:new 0 0 137 137;" xml:space="preserve">
<style type="text/css">
	.st0{opacity:0.1;fill:none;stroke:#FFFFFF;enable-background:new    ;}
</style>
<g>
	<circle class="st0" cx="26.5" cy="134.5" r="2"/>
	<circle class="st0" cx="38.5" cy="134.5" r="2"/>
	<circle class="st0" cx="74.5" cy="134.5" r="2"/>
	<circle class="st0" cx="86.5" cy="134.5" r="2"/>
	<circle class="st0" cx="110.5" cy="134.5" r="2"/>
	<circle class="st0" cx="122.5" cy="134.5" r="2"/>
	<circle class="st0" cx="134.5" cy="134.5" r="2"/>
	<circle class="st0" cx="86.5" cy="122.5" r="2"/>
	<circle class="st0" cx="98.5" cy="122.5" r="2"/>
	<circle class="st0" cx="134.5" cy="122.5" r="2"/>
	<circle class="st0" cx="2.5" cy="122.5" r="2"/>
	<circle class="st0" cx="26.5" cy="122.5" r="2"/>
	<circle class="st0" cx="74.5" cy="110.5" r="2"/>
	<circle class="st0" cx="86.5" cy="110.5" r="2"/>
	<circle class="st0" cx="98.5" cy="110.5" r="2"/>
	<circle class="st0" cx="134.5" cy="110.5" r="2"/>
	<circle class="st0" cx="2.5" cy="110.5" r="2"/>
	<circle class="st0" cx="14.5" cy="110.5" r="2"/>
	<circle class="st0" cx="26.5" cy="110.5" r="2"/>
	<circle class="st0" cx="62.5" cy="110.5" r="2"/>
	<circle class="st0" cx="98.5" cy="98.5" r="2"/>
	<circle class="st0" cx="122.5" cy="98.5" r="2"/>
	<circle class="st0" cx="134.5" cy="98.5" r="2"/>
	<circle class="st0" cx="2.5" cy="98.5" r="2"/>
	<circle class="st0" cx="14.5" cy="98.5" r="2"/>
	<circle class="st0" cx="62.5" cy="98.5" r="2"/>
	<circle class="st0" cx="74.5" cy="98.5" r="2"/>
	<circle class="st0" cx="86.5" cy="98.5" r="2"/>
	<circle class="st0" cx="122.5" cy="86.5" r="2"/>
	<circle class="st0" cx="134.5" cy="86.5" r="2"/>
	<circle class="st0" cx="14.5" cy="86.5" r="2"/>
	<circle class="st0" cx="62.5" cy="86.5" r="2"/>
	<circle class="st0" cx="74.5" cy="86.5" r="2"/>
	<circle class="st0" cx="26.5" cy="86.5" r="2"/>
	<circle class="st0" cx="38.5" cy="86.5" r="2"/>
	<circle class="st0" cx="50.5" cy="86.5" r="2"/>
	<circle class="st0" cx="110.5" cy="86.5" r="2"/>
	<circle class="st0" cx="98.5" cy="86.5" r="2"/>
	<circle class="st0" cx="50.5" cy="74.5" r="2"/>
	<circle class="st0" cx="134.5" cy="74.5" r="2"/>
	<circle class="st0" cx="38.5" cy="74.5" r="2"/>
	<circle class="st0" cx="62.5" cy="74.5" r="2"/>
	<circle class="st0" cx="74.5" cy="74.5" r="2"/>
	<circle class="st0" cx="86.5" cy="74.5" r="2"/>
	<circle class="st0" cx="98.5" cy="74.5" r="2"/>
	<circle class="st0" cx="110.5" cy="74.5" r="2"/>
	<circle class="st0" cx="122.5" cy="74.5" r="2"/>
	<circle class="st0" cx="26.5" cy="62.5" r="2"/>
	<circle class="st0" cx="74.5" cy="62.5" r="2"/>
	<circle class="st0" cx="98.5" cy="62.5" r="2"/>
	<circle class="st0" cx="86.5" cy="62.5" r="2"/>
	<circle class="st0" cx="134.5" cy="62.5" r="2"/>
	<circle class="st0" cx="110.5" cy="62.5" r="2"/>
	<circle class="st0" cx="62.5" cy="62.5" r="2"/>
	<circle class="st0" cx="50.5" cy="62.5" r="2"/>
	<circle class="st0" cx="38.5" cy="62.5" r="2"/>
	<circle class="st0" cx="50.5" cy="50.5" r="2"/>
	<circle class="st0" cx="62.5" cy="50.5" r="2"/>
	<circle class="st0" cx="110.5" cy="50.5" r="2"/>
	<circle class="st0" cx="122.5" cy="50.5" r="2"/>
	<circle class="st0" cx="86.5" cy="50.5" r="2"/>
	<circle class="st0" cx="98.5" cy="50.5" r="2"/>
	<circle class="st0" cx="14.5" cy="50.5" r="2"/>
	<circle class="st0" cx="26.5" cy="50.5" r="2"/>
	<circle class="st0" cx="134.5" cy="50.5" r="2"/>
	<circle class="st0" cx="2.5" cy="50.5" r="2"/>
	<circle class="st0" cx="122.5" cy="38.5" r="2"/>
	<circle class="st0" cx="74.5" cy="38.5" r="2"/>
	<circle class="st0" cx="14.5" cy="38.5" r="2"/>
	<circle class="st0" cx="50.5" cy="38.5" r="2"/>
	<circle class="st0" cx="26.5" cy="38.5" r="2"/>
	<circle class="st0" cx="38.5" cy="38.5" r="2"/>
	<circle class="st0" cx="62.5" cy="38.5" r="2"/>
	<circle class="st0" cx="110.5" cy="38.5" r="2"/>
	<circle class="st0" cx="2.5" cy="38.5" r="2"/>
	<circle class="st0" cx="98.5" cy="38.5" r="2"/>
	<circle class="st0" cx="86.5" cy="26.5" r="2"/>
	<circle class="st0" cx="62.5" cy="26.5" r="2"/>
	<circle class="st0" cx="2.5" cy="26.5" r="2"/>
	<circle class="st0" cx="110.5" cy="26.5" r="2"/>
	<circle class="st0" cx="74.5" cy="26.5" r="2"/>
	<circle class="st0" cx="14.5" cy="26.5" r="2"/>
	<circle class="st0" cx="38.5" cy="26.5" r="2"/>
	<circle class="st0" cx="98.5" cy="26.5" r="2"/>
	<circle class="st0" cx="2.5" cy="14.5" r="2"/>
	<circle class="st0" cx="14.5" cy="14.5" r="2"/>
	<circle class="st0" cx="26.5" cy="14.5" r="2"/>
	<circle class="st0" cx="50.5" cy="14.5" r="2"/>
	<circle class="st0" cx="62.5" cy="14.5" r="2"/>
	<circle class="st0" cx="86.5" cy="14.5" r="2"/>
	<circle class="st0" cx="98.5" cy="14.5" r="2"/>
	<circle class="st0" cx="2.5" cy="2.5" r="2"/>
	<circle class="st0" cx="26.5" cy="2.5" r="2"/>
	<circle class="st0" cx="38.5" cy="2.5" r="2"/>
	<circle class="st0" cx="50.5" cy="2.5" r="2"/>
	<circle class="st0" cx="86.5" cy="2.5" r="2"/>
	<circle class="st0" cx="98.5" cy="2.5" r="2"/>
	<circle class="st0" cx="110.5" cy="2.5" r="2"/>
</g>
</svg>
