<?xml version="1.0" encoding="UTF-8"?>
<svg width="66px" height="138px" viewBox="0 0 66 138" version="1.1" xmlns="http://www.w3.org/2000/svg" xmlns:xlink="http://www.w3.org/1999/xlink">
    <title>start-bubble2</title>
    <g id="Page-1" stroke="none" stroke-width="1" fill="none" fill-rule="evenodd">
        <g id="Home-updated-Copy-5" transform="translate(-1221.000000, -5924.000000)" stroke="#E5E9F7">
            <g id="Group-19-Copy-3" transform="translate(150.000000, 5850.000000)">
                <g id="Combined-Shape">
                    <path d="M1098,207 C1099.10457,207 1100,207.895431 1100,209 C1100,210.104569 1099.10457,211 1098,211 C1096.89543,211 1096,210.104569 1096,209 C1096,207.895431 1096.89543,207 1098,207 Z M1110,207 C1111.10457,207 1112,207.895431 1112,209 C1112,210.104569 1111.10457,211 1110,211 C1108.89543,211 1108,210.104569 1108,209 C1108,207.895431 1108.89543,207 1110,207 Z M1146,207 C1147.10457,207 1148,207.895431 1148,209 C1148,210.104569 1147.10457,211 1146,211 C1144.89543,211 1144,210.104569 1144,209 C1144,207.895431 1144.89543,207 1146,207 Z M1158,207 C1159.10457,207 1160,207.895431 1160,209 C1160,210.104569 1159.10457,211 1158,211 C1156.89543,211 1156,210.104569 1156,209 C1156,207.895431 1156.89543,207 1158,207 Z M1182,207 C1183.10457,207 1184,207.895431 1184,209 C1184,210.104569 1183.10457,211 1182,211 C1180.89543,211 1180,210.104569 1180,209 C1180,207.895431 1180.89543,207 1182,207 Z M1194,207 C1195.10457,207 1196,207.895431 1196,209 C1196,210.104569 1195.10457,211 1194,211 C1192.89543,211 1192,210.104569 1192,209 C1192,207.895431 1192.89543,207 1194,207 Z M1206,207 C1207.10457,207 1208,207.895431 1208,209 C1208,210.104569 1207.10457,211 1206,211 C1204.89543,211 1204,210.104569 1204,209 C1204,207.895431 1204.89543,207 1206,207 Z M1158,195 C1159.10457,195 1160,195.895431 1160,197 C1160,198.104569 1159.10457,199 1158,199 C1156.89543,199 1156,198.104569 1156,197 C1156,195.895431 1156.89543,195 1158,195 Z M1170,195 C1171.10457,195 1172,195.895431 1172,197 C1172,198.104569 1171.10457,199 1170,199 C1168.89543,199 1168,198.104569 1168,197 C1168,195.895431 1168.89543,195 1170,195 Z M1206,195 C1207.10457,195 1208,195.895431 1208,197 C1208,198.104569 1207.10457,199 1206,199 C1204.89543,199 1204,198.104569 1204,197 C1204,195.895431 1204.89543,195 1206,195 Z M1074,195 C1075.10457,195 1076,195.895431 1076,197 C1076,198.104569 1075.10457,199 1074,199 C1072.89543,199 1072,198.104569 1072,197 C1072,195.895431 1072.89543,195 1074,195 Z M1098,195 C1099.10457,195 1100,195.895431 1100,197 C1100,198.104569 1099.10457,199 1098,199 C1096.89543,199 1096,198.104569 1096,197 C1096,195.895431 1096.89543,195 1098,195 Z M1146,183 C1147.10457,183 1148,183.895431 1148,185 C1148,186.104569 1147.10457,187 1146,187 C1144.89543,187 1144,186.104569 1144,185 C1144,183.895431 1144.89543,183 1146,183 Z M1158,183 C1159.10457,183 1160,183.895431 1160,185 C1160,186.104569 1159.10457,187 1158,187 C1156.89543,187 1156,186.104569 1156,185 C1156,183.895431 1156.89543,183 1158,183 Z M1170,183 C1171.10457,183 1172,183.895431 1172,185 C1172,186.104569 1171.10457,187 1170,187 C1168.89543,187 1168,186.104569 1168,185 C1168,183.895431 1168.89543,183 1170,183 Z M1206,183 C1207.10457,183 1208,183.895431 1208,185 C1208,186.104569 1207.10457,187 1206,187 C1204.89543,187 1204,186.104569 1204,185 C1204,183.895431 1204.89543,183 1206,183 Z M1074,183 C1075.10457,183 1076,183.895431 1076,185 C1076,186.104569 1075.10457,187 1074,187 C1072.89543,187 1072,186.104569 1072,185 C1072,183.895431 1072.89543,183 1074,183 Z M1086,183 C1087.10457,183 1088,183.895431 1088,185 C1088,186.104569 1087.10457,187 1086,187 C1084.89543,187 1084,186.104569 1084,185 C1084,183.895431 1084.89543,183 1086,183 Z M1098,183 C1099.10457,183 1100,183.895431 1100,185 C1100,186.104569 1099.10457,187 1098,187 C1096.89543,187 1096,186.104569 1096,185 C1096,183.895431 1096.89543,183 1098,183 Z M1134,183 C1135.10457,183 1136,183.895431 1136,185 C1136,186.104569 1135.10457,187 1134,187 C1132.89543,187 1132,186.104569 1132,185 C1132,183.895431 1132.89543,183 1134,183 Z M1170,171 C1171.10457,171 1172,171.895431 1172,173 C1172,174.104569 1171.10457,175 1170,175 C1168.89543,175 1168,174.104569 1168,173 C1168,171.895431 1168.89543,171 1170,171 Z M1194,171 C1195.10457,171 1196,171.895431 1196,173 C1196,174.104569 1195.10457,175 1194,175 C1192.89543,175 1192,174.104569 1192,173 C1192,171.895431 1192.89543,171 1194,171 Z M1206,171 C1207.10457,171 1208,171.895431 1208,173 C1208,174.104569 1207.10457,175 1206,175 C1204.89543,175 1204,174.104569 1204,173 C1204,171.895431 1204.89543,171 1206,171 Z M1074,171 C1075.10457,171 1076,171.895431 1076,173 C1076,174.104569 1075.10457,175 1074,175 C1072.89543,175 1072,174.104569 1072,173 C1072,171.895431 1072.89543,171 1074,171 Z M1086,171 C1087.10457,171 1088,171.895431 1088,173 C1088,174.104569 1087.10457,175 1086,175 C1084.89543,175 1084,174.104569 1084,173 C1084,171.895431 1084.89543,171 1086,171 Z M1134,171 C1135.10457,171 1136,171.895431 1136,173 C1136,174.104569 1135.10457,175 1134,175 C1132.89543,175 1132,174.104569 1132,173 C1132,171.895431 1132.89543,171 1134,171 Z M1146,171 C1147.10457,171 1148,171.895431 1148,173 C1148,174.104569 1147.10457,175 1146,175 C1144.89543,175 1144,174.104569 1144,173 C1144,171.895431 1144.89543,171 1146,171 Z M1158,171 C1159.10457,171 1160,171.895431 1160,173 C1160,174.104569 1159.10457,175 1158,175 C1156.89543,175 1156,174.104569 1156,173 C1156,171.895431 1156.89543,171 1158,171 Z M1194,159 C1195.10457,159 1196,159.895431 1196,161 C1196,162.104569 1195.10457,163 1194,163 C1192.89543,163 1192,162.104569 1192,161 C1192,159.895431 1192.89543,159 1194,159 Z M1206,159 C1207.10457,159 1208,159.895431 1208,161 C1208,162.104569 1207.10457,163 1206,163 C1204.89543,163 1204,162.104569 1204,161 C1204,159.895431 1204.89543,159 1206,159 Z M1086,159 C1087.10457,159 1088,159.895431 1088,161 C1088,162.104569 1087.10457,163 1086,163 C1084.89543,163 1084,162.104569 1084,161 C1084,159.895431 1084.89543,159 1086,159 Z M1134,159 C1135.10457,159 1136,159.895431 1136,161 C1136,162.104569 1135.10457,163 1134,163 C1132.89543,163 1132,162.104569 1132,161 C1132,159.895431 1132.89543,159 1134,159 Z M1146,159 C1147.10457,159 1148,159.895431 1148,161 C1148,162.104569 1147.10457,163 1146,163 C1144.89543,163 1144,162.104569 1144,161 C1144,159.895431 1144.89543,159 1146,159 Z M1098,159 C1099.10457,159 1100,159.895431 1100,161 C1100,162.104569 1099.10457,163 1098,163 C1096.89543,163 1096,162.104569 1096,161 C1096,159.895431 1096.89543,159 1098,159 Z M1110,159 C1111.10457,159 1112,159.895431 1112,161 C1112,162.104569 1111.10457,163 1110,163 C1108.89543,163 1108,162.104569 1108,161 C1108,159.895431 1108.89543,159 1110,159 Z M1122,159 C1123.10457,159 1124,159.895431 1124,161 C1124,162.104569 1123.10457,163 1122,163 C1120.89543,163 1120,162.104569 1120,161 C1120,159.895431 1120.89543,159 1122,159 Z M1182,159 C1183.10457,159 1184,159.895431 1184,161 C1184,162.104569 1183.10457,163 1182,163 C1180.89543,163 1180,162.104569 1180,161 C1180,159.895431 1180.89543,159 1182,159 Z M1170,159 C1171.10457,159 1172,159.895431 1172,161 C1172,162.104569 1171.10457,163 1170,163 C1168.89543,163 1168,162.104569 1168,161 C1168,159.895431 1168.89543,159 1170,159 Z M1122,147 C1123.10457,147 1124,147.895431 1124,149 C1124,150.104569 1123.10457,151 1122,151 C1120.89543,151 1120,150.104569 1120,149 C1120,147.895431 1120.89543,147 1122,147 Z M1206,147 C1207.10457,147 1208,147.895431 1208,149 C1208,150.104569 1207.10457,151 1206,151 C1204.89543,151 1204,150.104569 1204,149 C1204,147.895431 1204.89543,147 1206,147 Z M1110,147 C1111.10457,147 1112,147.895431 1112,149 C1112,150.104569 1111.10457,151 1110,151 C1108.89543,151 1108,150.104569 1108,149 C1108,147.895431 1108.89543,147 1110,147 Z M1134,147 C1135.10457,147 1136,147.895431 1136,149 C1136,150.104569 1135.10457,151 1134,151 C1132.89543,151 1132,150.104569 1132,149 C1132,147.895431 1132.89543,147 1134,147 Z M1146,147 C1147.10457,147 1148,147.895431 1148,149 C1148,150.104569 1147.10457,151 1146,151 C1144.89543,151 1144,150.104569 1144,149 C1144,147.895431 1144.89543,147 1146,147 Z M1158,147 C1159.10457,147 1160,147.895431 1160,149 C1160,150.104569 1159.10457,151 1158,151 C1156.89543,151 1156,150.104569 1156,149 C1156,147.895431 1156.89543,147 1158,147 Z M1170,147 C1171.10457,147 1172,147.895431 1172,149 C1172,150.104569 1171.10457,151 1170,151 C1168.89543,151 1168,150.104569 1168,149 C1168,147.895431 1168.89543,147 1170,147 Z M1182,147 C1183.10457,147 1184,147.895431 1184,149 C1184,150.104569 1183.10457,151 1182,151 C1180.89543,151 1180,150.104569 1180,149 C1180,147.895431 1180.89543,147 1182,147 Z M1194,147 C1195.10457,147 1196,147.895431 1196,149 C1196,150.104569 1195.10457,151 1194,151 C1192.89543,151 1192,150.104569 1192,149 C1192,147.895431 1192.89543,147 1194,147 Z M1098,135 C1099.10457,135 1100,135.895431 1100,137 C1100,138.104569 1099.10457,139 1098,139 C1096.89543,139 1096,138.104569 1096,137 C1096,135.895431 1096.89543,135 1098,135 Z M1146,135 C1147.10457,135 1148,135.895431 1148,137 C1148,138.104569 1147.10457,139 1146,139 C1144.89543,139 1144,138.104569 1144,137 C1144,135.895431 1144.89543,135 1146,135 Z M1170,135 C1171.10457,135 1172,135.895431 1172,137 C1172,138.104569 1171.10457,139 1170,139 C1168.89543,139 1168,138.104569 1168,137 C1168,135.895431 1168.89543,135 1170,135 Z M1158,135 C1159.10457,135 1160,135.895431 1160,137 C1160,138.104569 1159.10457,139 1158,139 C1156.89543,139 1156,138.104569 1156,137 C1156,135.895431 1156.89543,135 1158,135 Z M1206,135 C1207.10457,135 1208,135.895431 1208,137 C1208,138.104569 1207.10457,139 1206,139 C1204.89543,139 1204,138.104569 1204,137 C1204,135.895431 1204.89543,135 1206,135 Z M1182,135 C1183.10457,135 1184,135.895431 1184,137 C1184,138.104569 1183.10457,139 1182,139 C1180.89543,139 1180,138.104569 1180,137 C1180,135.895431 1180.89543,135 1182,135 Z M1134,135 C1135.10457,135 1136,135.895431 1136,137 C1136,138.104569 1135.10457,139 1134,139 C1132.89543,139 1132,138.104569 1132,137 C1132,135.895431 1132.89543,135 1134,135 Z M1122,135 C1123.10457,135 1124,135.895431 1124,137 C1124,138.104569 1123.10457,139 1122,139 C1120.89543,139 1120,138.104569 1120,137 C1120,135.895431 1120.89543,135 1122,135 Z M1110,135 C1111.10457,135 1112,135.895431 1112,137 C1112,138.104569 1111.10457,139 1110,139 C1108.89543,139 1108,138.104569 1108,137 C1108,135.895431 1108.89543,135 1110,135 Z M1122,123 C1123.10457,123 1124,123.895431 1124,125 C1124,126.104569 1123.10457,127 1122,127 C1120.89543,127 1120,126.104569 1120,125 C1120,123.895431 1120.89543,123 1122,123 Z M1134,123 C1135.10457,123 1136,123.895431 1136,125 C1136,126.104569 1135.10457,127 1134,127 C1132.89543,127 1132,126.104569 1132,125 C1132,123.895431 1132.89543,123 1134,123 Z M1182,123 C1183.10457,123 1184,123.895431 1184,125 C1184,126.104569 1183.10457,127 1182,127 C1180.89543,127 1180,126.104569 1180,125 C1180,123.895431 1180.89543,123 1182,123 Z M1194,123 C1195.10457,123 1196,123.895431 1196,125 C1196,126.104569 1195.10457,127 1194,127 C1192.89543,127 1192,126.104569 1192,125 C1192,123.895431 1192.89543,123 1194,123 Z M1158,123 C1159.10457,123 1160,123.895431 1160,125 C1160,126.104569 1159.10457,127 1158,127 C1156.89543,127 1156,126.104569 1156,125 C1156,123.895431 1156.89543,123 1158,123 Z M1170,123 C1171.10457,123 1172,123.895431 1172,125 C1172,126.104569 1171.10457,127 1170,127 C1168.89543,127 1168,126.104569 1168,125 C1168,123.895431 1168.89543,123 1170,123 Z M1086,123 C1087.10457,123 1088,123.895431 1088,125 C1088,126.104569 1087.10457,127 1086,127 C1084.89543,127 1084,126.104569 1084,125 C1084,123.895431 1084.89543,123 1086,123 Z M1098,123 C1099.10457,123 1100,123.895431 1100,125 C1100,126.104569 1099.10457,127 1098,127 C1096.89543,127 1096,126.104569 1096,125 C1096,123.895431 1096.89543,123 1098,123 Z M1206,123 C1207.10457,123 1208,123.895431 1208,125 C1208,126.104569 1207.10457,127 1206,127 C1204.89543,127 1204,126.104569 1204,125 C1204,123.895431 1204.89543,123 1206,123 Z M1074,123 C1075.10457,123 1076,123.895431 1076,125 C1076,126.104569 1075.10457,127 1074,127 C1072.89543,127 1072,126.104569 1072,125 C1072,123.895431 1072.89543,123 1074,123 Z M1194,111 C1195.10457,111 1196,111.895431 1196,113 C1196,114.104569 1195.10457,115 1194,115 C1192.89543,115 1192,114.104569 1192,113 C1192,111.895431 1192.89543,111 1194,111 Z M1146,111 C1147.10457,111 1148,111.895431 1148,113 C1148,114.104569 1147.10457,115 1146,115 C1144.89543,115 1144,114.104569 1144,113 C1144,111.895431 1144.89543,111 1146,111 Z M1086,111 C1087.10457,111 1088,111.895431 1088,113 C1088,114.104569 1087.10457,115 1086,115 C1084.89543,115 1084,114.104569 1084,113 C1084,111.895431 1084.89543,111 1086,111 Z M1122,111 C1123.10457,111 1124,111.895431 1124,113 C1124,114.104569 1123.10457,115 1122,115 C1120.89543,115 1120,114.104569 1120,113 C1120,111.895431 1120.89543,111 1122,111 Z M1098,111 C1099.10457,111 1100,111.895431 1100,113 C1100,114.104569 1099.10457,115 1098,115 C1096.89543,115 1096,114.104569 1096,113 C1096,111.895431 1096.89543,111 1098,111 Z M1110,111 C1111.10457,111 1112,111.895431 1112,113 C1112,114.104569 1111.10457,115 1110,115 C1108.89543,115 1108,114.104569 1108,113 C1108,111.895431 1108.89543,111 1110,111 Z M1134,111 C1135.10457,111 1136,111.895431 1136,113 C1136,114.104569 1135.10457,115 1134,115 C1132.89543,115 1132,114.104569 1132,113 C1132,111.895431 1132.89543,111 1134,111 Z M1182,111 C1183.10457,111 1184,111.895431 1184,113 C1184,114.104569 1183.10457,115 1182,115 C1180.89543,115 1180,114.104569 1180,113 C1180,111.895431 1180.89543,111 1182,111 Z M1074,111 C1075.10457,111 1076,111.895431 1076,113 C1076,114.104569 1075.10457,115 1074,115 C1072.89543,115 1072,114.104569 1072,113 C1072,111.895431 1072.89543,111 1074,111 Z M1170,111 C1171.10457,111 1172,111.895431 1172,113 C1172,114.104569 1171.10457,115 1170,115 C1168.89543,115 1168,114.104569 1168,113 C1168,111.895431 1168.89543,111 1170,111 Z M1158,99 C1159.10457,99 1160,99.8954305 1160,101 C1160,102.104569 1159.10457,103 1158,103 C1156.89543,103 1156,102.104569 1156,101 C1156,99.8954305 1156.89543,99 1158,99 Z M1134,99 C1135.10457,99 1136,99.8954305 1136,101 C1136,102.104569 1135.10457,103 1134,103 C1132.89543,103 1132,102.104569 1132,101 C1132,99.8954305 1132.89543,99 1134,99 Z M1074,99 C1075.10457,99 1076,99.8954305 1076,101 C1076,102.104569 1075.10457,103 1074,103 C1072.89543,103 1072,102.104569 1072,101 C1072,99.8954305 1072.89543,99 1074,99 Z M1182,99 C1183.10457,99 1184,99.8954305 1184,101 C1184,102.104569 1183.10457,103 1182,103 C1180.89543,103 1180,102.104569 1180,101 C1180,99.8954305 1180.89543,99 1182,99 Z M1146,99 C1147.10457,99 1148,99.8954305 1148,101 C1148,102.104569 1147.10457,103 1146,103 C1144.89543,103 1144,102.104569 1144,101 C1144,99.8954305 1144.89543,99 1146,99 Z M1086,99 C1087.10457,99 1088,99.8954305 1088,101 C1088,102.104569 1087.10457,103 1086,103 C1084.89543,103 1084,102.104569 1084,101 C1084,99.8954305 1084.89543,99 1086,99 Z M1110,99 C1111.10457,99 1112,99.8954305 1112,101 C1112,102.104569 1111.10457,103 1110,103 C1108.89543,103 1108,102.104569 1108,101 C1108,99.8954305 1108.89543,99 1110,99 Z M1170,99 C1171.10457,99 1172,99.8954305 1172,101 C1172,102.104569 1171.10457,103 1170,103 C1168.89543,103 1168,102.104569 1168,101 C1168,99.8954305 1168.89543,99 1170,99 Z M1074,87 C1075.10457,87 1076,87.8954305 1076,89 C1076,90.1045695 1075.10457,91 1074,91 C1072.89543,91 1072,90.1045695 1072,89 C1072,87.8954305 1072.89543,87 1074,87 Z M1086,87 C1087.10457,87 1088,87.8954305 1088,89 C1088,90.1045695 1087.10457,91 1086,91 C1084.89543,91 1084,90.1045695 1084,89 C1084,87.8954305 1084.89543,87 1086,87 Z M1098,87 C1099.10457,87 1100,87.8954305 1100,89 C1100,90.1045695 1099.10457,91 1098,91 C1096.89543,91 1096,90.1045695 1096,89 C1096,87.8954305 1096.89543,87 1098,87 Z M1122,87 C1123.10457,87 1124,87.8954305 1124,89 C1124,90.1045695 1123.10457,91 1122,91 C1120.89543,91 1120,90.1045695 1120,89 C1120,87.8954305 1120.89543,87 1122,87 Z M1134,87 C1135.10457,87 1136,87.8954305 1136,89 C1136,90.1045695 1135.10457,91 1134,91 C1132.89543,91 1132,90.1045695 1132,89 C1132,87.8954305 1132.89543,87 1134,87 Z M1158,87 C1159.10457,87 1160,87.8954305 1160,89 C1160,90.1045695 1159.10457,91 1158,91 C1156.89543,91 1156,90.1045695 1156,89 C1156,87.8954305 1156.89543,87 1158,87 Z M1170,87 C1171.10457,87 1172,87.8954305 1172,89 C1172,90.1045695 1171.10457,91 1170,91 C1168.89543,91 1168,90.1045695 1168,89 C1168,87.8954305 1168.89543,87 1170,87 Z M1074,75 C1075.10457,75 1076,75.8954305 1076,77 C1076,78.1045695 1075.10457,79 1074,79 C1072.89543,79 1072,78.1045695 1072,77 C1072,75.8954305 1072.89543,75 1074,75 Z M1098,75 C1099.10457,75 1100,75.8954305 1100,77 C1100,78.1045695 1099.10457,79 1098,79 C1096.89543,79 1096,78.1045695 1096,77 C1096,75.8954305 1096.89543,75 1098,75 Z M1110,75 C1111.10457,75 1112,75.8954305 1112,77 C1112,78.1045695 1111.10457,79 1110,79 C1108.89543,79 1108,78.1045695 1108,77 C1108,75.8954305 1108.89543,75 1110,75 Z M1122,75 C1123.10457,75 1124,75.8954305 1124,77 C1124,78.1045695 1123.10457,79 1122,79 C1120.89543,79 1120,78.1045695 1120,77 C1120,75.8954305 1120.89543,75 1122,75 Z M1158,75 C1159.10457,75 1160,75.8954305 1160,77 C1160,78.1045695 1159.10457,79 1158,79 C1156.89543,79 1156,78.1045695 1156,77 C1156,75.8954305 1156.89543,75 1158,75 Z M1170,75 C1171.10457,75 1172,75.8954305 1172,77 C1172,78.1045695 1171.10457,79 1170,79 C1168.89543,79 1168,78.1045695 1168,77 C1168,75.8954305 1168.89543,75 1170,75 Z M1182,75 C1183.10457,75 1184,75.8954305 1184,77 C1184,78.1045695 1183.10457,79 1182,79 C1180.89543,79 1180,78.1045695 1180,77 C1180,75.8954305 1180.89543,75 1182,75 Z" id="start-bubble2"></path>
                </g>
            </g>
        </g>
    </g>
</svg>