<?xml version="1.0" encoding="UTF-8"?>
<svg width="66px" height="66px" viewBox="0 0 66 66" version="1.1" xmlns="http://www.w3.org/2000/svg" xmlns:xlink="http://www.w3.org/1999/xlink">
    <title>start-bubble1</title>
    <g id="Page-1" stroke="none" stroke-width="1" fill="none" fill-rule="evenodd">
        <g id="Home-updated-Copy-5" transform="translate(-150.000000, -6043.000000)" stroke="#E5E9F7">
            <g id="Group-19-Copy-3" transform="translate(150.000000, 5850.000000)">
                <g id="Combined-Shape">
                    <path d="M-45,326 C-43.8954305,326 -43,326.895431 -43,328 C-43,329.104569 -43.8954305,330 -45,330 C-46.1045695,330 -47,329.104569 -47,328 C-47,326.895431 -46.1045695,326 -45,326 Z M-33,326 C-31.8954305,326 -31,326.895431 -31,328 C-31,329.104569 -31.8954305,330 -33,330 C-34.1045695,330 -35,329.104569 -35,328 C-35,326.895431 -34.1045695,326 -33,326 Z M3,326 C4.1045695,326 5,326.895431 5,328 C5,329.104569 4.1045695,330 3,330 C1.8954305,330 1,329.104569 1,328 C1,326.895431 1.8954305,326 3,326 Z M15,326 C16.1045695,326 17,326.895431 17,328 C17,329.104569 16.1045695,330 15,330 C13.8954305,330 13,329.104569 13,328 C13,326.895431 13.8954305,326 15,326 Z M39,326 C40.1045695,326 41,326.895431 41,328 C41,329.104569 40.1045695,330 39,330 C37.8954305,330 37,329.104569 37,328 C37,326.895431 37.8954305,326 39,326 Z M51,326 C52.1045695,326 53,326.895431 53,328 C53,329.104569 52.1045695,330 51,330 C49.8954305,330 49,329.104569 49,328 C49,326.895431 49.8954305,326 51,326 Z M63,326 C64.1045695,326 65,326.895431 65,328 C65,329.104569 64.1045695,330 63,330 C61.8954305,330 61,329.104569 61,328 C61,326.895431 61.8954305,326 63,326 Z M15,314 C16.1045695,314 17,314.895431 17,316 C17,317.104569 16.1045695,318 15,318 C13.8954305,318 13,317.104569 13,316 C13,314.895431 13.8954305,314 15,314 Z M27,314 C28.1045695,314 29,314.895431 29,316 C29,317.104569 28.1045695,318 27,318 C25.8954305,318 25,317.104569 25,316 C25,314.895431 25.8954305,314 27,314 Z M63,314 C64.1045695,314 65,314.895431 65,316 C65,317.104569 64.1045695,318 63,318 C61.8954305,318 61,317.104569 61,316 C61,314.895431 61.8954305,314 63,314 Z M-69,314 C-67.8954305,314 -67,314.895431 -67,316 C-67,317.104569 -67.8954305,318 -69,318 C-70.1045695,318 -71,317.104569 -71,316 C-71,314.895431 -70.1045695,314 -69,314 Z M-45,314 C-43.8954305,314 -43,314.895431 -43,316 C-43,317.104569 -43.8954305,318 -45,318 C-46.1045695,318 -47,317.104569 -47,316 C-47,314.895431 -46.1045695,314 -45,314 Z M3,302 C4.1045695,302 5,302.895431 5,304 C5,305.104569 4.1045695,306 3,306 C1.8954305,306 1,305.104569 1,304 C1,302.895431 1.8954305,302 3,302 Z M15,302 C16.1045695,302 17,302.895431 17,304 C17,305.104569 16.1045695,306 15,306 C13.8954305,306 13,305.104569 13,304 C13,302.895431 13.8954305,302 15,302 Z M27,302 C28.1045695,302 29,302.895431 29,304 C29,305.104569 28.1045695,306 27,306 C25.8954305,306 25,305.104569 25,304 C25,302.895431 25.8954305,302 27,302 Z M63,302 C64.1045695,302 65,302.895431 65,304 C65,305.104569 64.1045695,306 63,306 C61.8954305,306 61,305.104569 61,304 C61,302.895431 61.8954305,302 63,302 Z M-69,302 C-67.8954305,302 -67,302.895431 -67,304 C-67,305.104569 -67.8954305,306 -69,306 C-70.1045695,306 -71,305.104569 -71,304 C-71,302.895431 -70.1045695,302 -69,302 Z M-57,302 C-55.8954305,302 -55,302.895431 -55,304 C-55,305.104569 -55.8954305,306 -57,306 C-58.1045695,306 -59,305.104569 -59,304 C-59,302.895431 -58.1045695,302 -57,302 Z M-45,302 C-43.8954305,302 -43,302.895431 -43,304 C-43,305.104569 -43.8954305,306 -45,306 C-46.1045695,306 -47,305.104569 -47,304 C-47,302.895431 -46.1045695,302 -45,302 Z M-9,302 C-7.8954305,302 -7,302.895431 -7,304 C-7,305.104569 -7.8954305,306 -9,306 C-10.1045695,306 -11,305.104569 -11,304 C-11,302.895431 -10.1045695,302 -9,302 Z M27,290 C28.1045695,290 29,290.895431 29,292 C29,293.104569 28.1045695,294 27,294 C25.8954305,294 25,293.104569 25,292 C25,290.895431 25.8954305,290 27,290 Z M51,290 C52.1045695,290 53,290.895431 53,292 C53,293.104569 52.1045695,294 51,294 C49.8954305,294 49,293.104569 49,292 C49,290.895431 49.8954305,290 51,290 Z M63,290 C64.1045695,290 65,290.895431 65,292 C65,293.104569 64.1045695,294 63,294 C61.8954305,294 61,293.104569 61,292 C61,290.895431 61.8954305,290 63,290 Z M-69,290 C-67.8954305,290 -67,290.895431 -67,292 C-67,293.104569 -67.8954305,294 -69,294 C-70.1045695,294 -71,293.104569 -71,292 C-71,290.895431 -70.1045695,290 -69,290 Z M-57,290 C-55.8954305,290 -55,290.895431 -55,292 C-55,293.104569 -55.8954305,294 -57,294 C-58.1045695,294 -59,293.104569 -59,292 C-59,290.895431 -58.1045695,290 -57,290 Z M-9,290 C-7.8954305,290 -7,290.895431 -7,292 C-7,293.104569 -7.8954305,294 -9,294 C-10.1045695,294 -11,293.104569 -11,292 C-11,290.895431 -10.1045695,290 -9,290 Z M3,290 C4.1045695,290 5,290.895431 5,292 C5,293.104569 4.1045695,294 3,294 C1.8954305,294 1,293.104569 1,292 C1,290.895431 1.8954305,290 3,290 Z M15,290 C16.1045695,290 17,290.895431 17,292 C17,293.104569 16.1045695,294 15,294 C13.8954305,294 13,293.104569 13,292 C13,290.895431 13.8954305,290 15,290 Z M51,278 C52.1045695,278 53,278.895431 53,280 C53,281.104569 52.1045695,282 51,282 C49.8954305,282 49,281.104569 49,280 C49,278.895431 49.8954305,278 51,278 Z M63,278 C64.1045695,278 65,278.895431 65,280 C65,281.104569 64.1045695,282 63,282 C61.8954305,282 61,281.104569 61,280 C61,278.895431 61.8954305,278 63,278 Z M-57,278 C-55.8954305,278 -55,278.895431 -55,280 C-55,281.104569 -55.8954305,282 -57,282 C-58.1045695,282 -59,281.104569 -59,280 C-59,278.895431 -58.1045695,278 -57,278 Z M-9,278 C-7.8954305,278 -7,278.895431 -7,280 C-7,281.104569 -7.8954305,282 -9,282 C-10.1045695,282 -11,281.104569 -11,280 C-11,278.895431 -10.1045695,278 -9,278 Z M3,278 C4.1045695,278 5,278.895431 5,280 C5,281.104569 4.1045695,282 3,282 C1.8954305,282 1,281.104569 1,280 C1,278.895431 1.8954305,278 3,278 Z M-45,278 C-43.8954305,278 -43,278.895431 -43,280 C-43,281.104569 -43.8954305,282 -45,282 C-46.1045695,282 -47,281.104569 -47,280 C-47,278.895431 -46.1045695,278 -45,278 Z M-33,278 C-31.8954305,278 -31,278.895431 -31,280 C-31,281.104569 -31.8954305,282 -33,282 C-34.1045695,282 -35,281.104569 -35,280 C-35,278.895431 -34.1045695,278 -33,278 Z M-21,278 C-19.8954305,278 -19,278.895431 -19,280 C-19,281.104569 -19.8954305,282 -21,282 C-22.1045695,282 -23,281.104569 -23,280 C-23,278.895431 -22.1045695,278 -21,278 Z M39,278 C40.1045695,278 41,278.895431 41,280 C41,281.104569 40.1045695,282 39,282 C37.8954305,282 37,281.104569 37,280 C37,278.895431 37.8954305,278 39,278 Z M27,278 C28.1045695,278 29,278.895431 29,280 C29,281.104569 28.1045695,282 27,282 C25.8954305,282 25,281.104569 25,280 C25,278.895431 25.8954305,278 27,278 Z M-21,266 C-19.8954305,266 -19,266.895431 -19,268 C-19,269.104569 -19.8954305,270 -21,270 C-22.1045695,270 -23,269.104569 -23,268 C-23,266.895431 -22.1045695,266 -21,266 Z M63,266 C64.1045695,266 65,266.895431 65,268 C65,269.104569 64.1045695,270 63,270 C61.8954305,270 61,269.104569 61,268 C61,266.895431 61.8954305,266 63,266 Z M-33,266 C-31.8954305,266 -31,266.895431 -31,268 C-31,269.104569 -31.8954305,270 -33,270 C-34.1045695,270 -35,269.104569 -35,268 C-35,266.895431 -34.1045695,266 -33,266 Z M-9,266 C-7.8954305,266 -7,266.895431 -7,268 C-7,269.104569 -7.8954305,270 -9,270 C-10.1045695,270 -11,269.104569 -11,268 C-11,266.895431 -10.1045695,266 -9,266 Z M3,266 C4.1045695,266 5,266.895431 5,268 C5,269.104569 4.1045695,270 3,270 C1.8954305,270 1,269.104569 1,268 C1,266.895431 1.8954305,266 3,266 Z M15,266 C16.1045695,266 17,266.895431 17,268 C17,269.104569 16.1045695,270 15,270 C13.8954305,270 13,269.104569 13,268 C13,266.895431 13.8954305,266 15,266 Z M27,266 C28.1045695,266 29,266.895431 29,268 C29,269.104569 28.1045695,270 27,270 C25.8954305,270 25,269.104569 25,268 C25,266.895431 25.8954305,266 27,266 Z M39,266 C40.1045695,266 41,266.895431 41,268 C41,269.104569 40.1045695,270 39,270 C37.8954305,270 37,269.104569 37,268 C37,266.895431 37.8954305,266 39,266 Z M51,266 C52.1045695,266 53,266.895431 53,268 C53,269.104569 52.1045695,270 51,270 C49.8954305,270 49,269.104569 49,268 C49,266.895431 49.8954305,266 51,266 Z M-45,254 C-43.8954305,254 -43,254.895431 -43,256 C-43,257.104569 -43.8954305,258 -45,258 C-46.1045695,258 -47,257.104569 -47,256 C-47,254.895431 -46.1045695,254 -45,254 Z M3,254 C4.1045695,254 5,254.895431 5,256 C5,257.104569 4.1045695,258 3,258 C1.8954305,258 1,257.104569 1,256 C1,254.895431 1.8954305,254 3,254 Z M27,254 C28.1045695,254 29,254.895431 29,256 C29,257.104569 28.1045695,258 27,258 C25.8954305,258 25,257.104569 25,256 C25,254.895431 25.8954305,254 27,254 Z M15,254 C16.1045695,254 17,254.895431 17,256 C17,257.104569 16.1045695,258 15,258 C13.8954305,258 13,257.104569 13,256 C13,254.895431 13.8954305,254 15,254 Z M63,254 C64.1045695,254 65,254.895431 65,256 C65,257.104569 64.1045695,258 63,258 C61.8954305,258 61,257.104569 61,256 C61,254.895431 61.8954305,254 63,254 Z M39,254 C40.1045695,254 41,254.895431 41,256 C41,257.104569 40.1045695,258 39,258 C37.8954305,258 37,257.104569 37,256 C37,254.895431 37.8954305,254 39,254 Z M-9,254 C-7.8954305,254 -7,254.895431 -7,256 C-7,257.104569 -7.8954305,258 -9,258 C-10.1045695,258 -11,257.104569 -11,256 C-11,254.895431 -10.1045695,254 -9,254 Z M-21,254 C-19.8954305,254 -19,254.895431 -19,256 C-19,257.104569 -19.8954305,258 -21,258 C-22.1045695,258 -23,257.104569 -23,256 C-23,254.895431 -22.1045695,254 -21,254 Z M-33,254 C-31.8954305,254 -31,254.895431 -31,256 C-31,257.104569 -31.8954305,258 -33,258 C-34.1045695,258 -35,257.104569 -35,256 C-35,254.895431 -34.1045695,254 -33,254 Z M-21,242 C-19.8954305,242 -19,242.895431 -19,244 C-19,245.104569 -19.8954305,246 -21,246 C-22.1045695,246 -23,245.104569 -23,244 C-23,242.895431 -22.1045695,242 -21,242 Z M-9,242 C-7.8954305,242 -7,242.895431 -7,244 C-7,245.104569 -7.8954305,246 -9,246 C-10.1045695,246 -11,245.104569 -11,244 C-11,242.895431 -10.1045695,242 -9,242 Z M39,242 C40.1045695,242 41,242.895431 41,244 C41,245.104569 40.1045695,246 39,246 C37.8954305,246 37,245.104569 37,244 C37,242.895431 37.8954305,242 39,242 Z M51,242 C52.1045695,242 53,242.895431 53,244 C53,245.104569 52.1045695,246 51,246 C49.8954305,246 49,245.104569 49,244 C49,242.895431 49.8954305,242 51,242 Z M15,242 C16.1045695,242 17,242.895431 17,244 C17,245.104569 16.1045695,246 15,246 C13.8954305,246 13,245.104569 13,244 C13,242.895431 13.8954305,242 15,242 Z M27,242 C28.1045695,242 29,242.895431 29,244 C29,245.104569 28.1045695,246 27,246 C25.8954305,246 25,245.104569 25,244 C25,242.895431 25.8954305,242 27,242 Z M-57,242 C-55.8954305,242 -55,242.895431 -55,244 C-55,245.104569 -55.8954305,246 -57,246 C-58.1045695,246 -59,245.104569 -59,244 C-59,242.895431 -58.1045695,242 -57,242 Z M-45,242 C-43.8954305,242 -43,242.895431 -43,244 C-43,245.104569 -43.8954305,246 -45,246 C-46.1045695,246 -47,245.104569 -47,244 C-47,242.895431 -46.1045695,242 -45,242 Z M63,242 C64.1045695,242 65,242.895431 65,244 C65,245.104569 64.1045695,246 63,246 C61.8954305,246 61,245.104569 61,244 C61,242.895431 61.8954305,242 63,242 Z M-69,242 C-67.8954305,242 -67,242.895431 -67,244 C-67,245.104569 -67.8954305,246 -69,246 C-70.1045695,246 -71,245.104569 -71,244 C-71,242.895431 -70.1045695,242 -69,242 Z M51,230 C52.1045695,230 53,230.895431 53,232 C53,233.104569 52.1045695,234 51,234 C49.8954305,234 49,233.104569 49,232 C49,230.895431 49.8954305,230 51,230 Z M3,230 C4.1045695,230 5,230.895431 5,232 C5,233.104569 4.1045695,234 3,234 C1.8954305,234 1,233.104569 1,232 C1,230.895431 1.8954305,230 3,230 Z M-57,230 C-55.8954305,230 -55,230.895431 -55,232 C-55,233.104569 -55.8954305,234 -57,234 C-58.1045695,234 -59,233.104569 -59,232 C-59,230.895431 -58.1045695,230 -57,230 Z M-21,230 C-19.8954305,230 -19,230.895431 -19,232 C-19,233.104569 -19.8954305,234 -21,234 C-22.1045695,234 -23,233.104569 -23,232 C-23,230.895431 -22.1045695,230 -21,230 Z M-45,230 C-43.8954305,230 -43,230.895431 -43,232 C-43,233.104569 -43.8954305,234 -45,234 C-46.1045695,234 -47,233.104569 -47,232 C-47,230.895431 -46.1045695,230 -45,230 Z M-33,230 C-31.8954305,230 -31,230.895431 -31,232 C-31,233.104569 -31.8954305,234 -33,234 C-34.1045695,234 -35,233.104569 -35,232 C-35,230.895431 -34.1045695,230 -33,230 Z M-9,230 C-7.8954305,230 -7,230.895431 -7,232 C-7,233.104569 -7.8954305,234 -9,234 C-10.1045695,234 -11,233.104569 -11,232 C-11,230.895431 -10.1045695,230 -9,230 Z M39,230 C40.1045695,230 41,230.895431 41,232 C41,233.104569 40.1045695,234 39,234 C37.8954305,234 37,233.104569 37,232 C37,230.895431 37.8954305,230 39,230 Z M-69,230 C-67.8954305,230 -67,230.895431 -67,232 C-67,233.104569 -67.8954305,234 -69,234 C-70.1045695,234 -71,233.104569 -71,232 C-71,230.895431 -70.1045695,230 -69,230 Z M27,230 C28.1045695,230 29,230.895431 29,232 C29,233.104569 28.1045695,234 27,234 C25.8954305,234 25,233.104569 25,232 C25,230.895431 25.8954305,230 27,230 Z M15,218 C16.1045695,218 17,218.895431 17,220 C17,221.104569 16.1045695,222 15,222 C13.8954305,222 13,221.104569 13,220 C13,218.895431 13.8954305,218 15,218 Z M-9,218 C-7.8954305,218 -7,218.895431 -7,220 C-7,221.104569 -7.8954305,222 -9,222 C-10.1045695,222 -11,221.104569 -11,220 C-11,218.895431 -10.1045695,218 -9,218 Z M-69,218 C-67.8954305,218 -67,218.895431 -67,220 C-67,221.104569 -67.8954305,222 -69,222 C-70.1045695,222 -71,221.104569 -71,220 C-71,218.895431 -70.1045695,218 -69,218 Z M39,218 C40.1045695,218 41,218.895431 41,220 C41,221.104569 40.1045695,222 39,222 C37.8954305,222 37,221.104569 37,220 C37,218.895431 37.8954305,218 39,218 Z M3,218 C4.1045695,218 5,218.895431 5,220 C5,221.104569 4.1045695,222 3,222 C1.8954305,222 1,221.104569 1,220 C1,218.895431 1.8954305,218 3,218 Z M-57,218 C-55.8954305,218 -55,218.895431 -55,220 C-55,221.104569 -55.8954305,222 -57,222 C-58.1045695,222 -59,221.104569 -59,220 C-59,218.895431 -58.1045695,218 -57,218 Z M-33,218 C-31.8954305,218 -31,218.895431 -31,220 C-31,221.104569 -31.8954305,222 -33,222 C-34.1045695,222 -35,221.104569 -35,220 C-35,218.895431 -34.1045695,218 -33,218 Z M27,218 C28.1045695,218 29,218.895431 29,220 C29,221.104569 28.1045695,222 27,222 C25.8954305,222 25,221.104569 25,220 C25,218.895431 25.8954305,218 27,218 Z M-69,206 C-67.8954305,206 -67,206.895431 -67,208 C-67,209.104569 -67.8954305,210 -69,210 C-70.1045695,210 -71,209.104569 -71,208 C-71,206.895431 -70.1045695,206 -69,206 Z M-57,206 C-55.8954305,206 -55,206.895431 -55,208 C-55,209.104569 -55.8954305,210 -57,210 C-58.1045695,210 -59,209.104569 -59,208 C-59,206.895431 -58.1045695,206 -57,206 Z M-45,206 C-43.8954305,206 -43,206.895431 -43,208 C-43,209.104569 -43.8954305,210 -45,210 C-46.1045695,210 -47,209.104569 -47,208 C-47,206.895431 -46.1045695,206 -45,206 Z M-21,206 C-19.8954305,206 -19,206.895431 -19,208 C-19,209.104569 -19.8954305,210 -21,210 C-22.1045695,210 -23,209.104569 -23,208 C-23,206.895431 -22.1045695,206 -21,206 Z M-9,206 C-7.8954305,206 -7,206.895431 -7,208 C-7,209.104569 -7.8954305,210 -9,210 C-10.1045695,210 -11,209.104569 -11,208 C-11,206.895431 -10.1045695,206 -9,206 Z M15,206 C16.1045695,206 17,206.895431 17,208 C17,209.104569 16.1045695,210 15,210 C13.8954305,210 13,209.104569 13,208 C13,206.895431 13.8954305,206 15,206 Z M27,206 C28.1045695,206 29,206.895431 29,208 C29,209.104569 28.1045695,210 27,210 C25.8954305,210 25,209.104569 25,208 C25,206.895431 25.8954305,206 27,206 Z M-69,194 C-67.8954305,194 -67,194.895431 -67,196 C-67,197.104569 -67.8954305,198 -69,198 C-70.1045695,198 -71,197.104569 -71,196 C-71,194.895431 -70.1045695,194 -69,194 Z M-45,194 C-43.8954305,194 -43,194.895431 -43,196 C-43,197.104569 -43.8954305,198 -45,198 C-46.1045695,198 -47,197.104569 -47,196 C-47,194.895431 -46.1045695,194 -45,194 Z M-33,194 C-31.8954305,194 -31,194.895431 -31,196 C-31,197.104569 -31.8954305,198 -33,198 C-34.1045695,198 -35,197.104569 -35,196 C-35,194.895431 -34.1045695,194 -33,194 Z M-21,194 C-19.8954305,194 -19,194.895431 -19,196 C-19,197.104569 -19.8954305,198 -21,198 C-22.1045695,198 -23,197.104569 -23,196 C-23,194.895431 -22.1045695,194 -21,194 Z M15,194 C16.1045695,194 17,194.895431 17,196 C17,197.104569 16.1045695,198 15,198 C13.8954305,198 13,197.104569 13,196 C13,194.895431 13.8954305,194 15,194 Z M27,194 C28.1045695,194 29,194.895431 29,196 C29,197.104569 28.1045695,198 27,198 C25.8954305,198 25,197.104569 25,196 C25,194.895431 25.8954305,194 27,194 Z M39,194 C40.1045695,194 41,194.895431 41,196 C41,197.104569 40.1045695,198 39,198 C37.8954305,198 37,197.104569 37,196 C37,194.895431 37.8954305,194 39,194 Z" id="start-bubble1"></path>
                </g>
            </g>
        </g>
    </g>
</svg>