<?xml version="1.0" encoding="UTF-8" standalone="no"?>
<!-- Created with Inkscape (http://www.inkscape.org/) -->

<svg
   xmlns:dc="http://purl.org/dc/elements/1.1/"
   xmlns:cc="http://creativecommons.org/ns#"
   xmlns:rdf="http://www.w3.org/1999/02/22-rdf-syntax-ns#"
   xmlns:svg="http://www.w3.org/2000/svg"
   xmlns="http://www.w3.org/2000/svg"
   xmlns:sodipodi="http://sodipodi.sourceforge.net/DTD/sodipodi-0.dtd"
   xmlns:inkscape="http://www.inkscape.org/namespaces/inkscape"
   version="1.1"
   id="svg2"
   xml:space="preserve"
   width="297.33334"
   height="314.66666"
   viewBox="0 0 297.33334 314.66666"
   sodipodi:docname="stack-above-top-active.svg"
   inkscape:version="0.92.3 (2405546, 2018-03-11)"><metadata
     id="metadata8"><rdf:RDF><cc:Work
         rdf:about=""><dc:format>image/svg+xml</dc:format><dc:type
           rdf:resource="http://purl.org/dc/dcmitype/StillImage" /><dc:title></dc:title></cc:Work></rdf:RDF></metadata><defs
     id="defs6"><clipPath
       clipPathUnits="userSpaceOnUse"
       id="clipPath18"><path
         d="m 153.977,192.515 c -2.217,-1.117 -3.986,-3.794 -3.977,-6.019 v 0 c 0.004,-2.22 1.785,-3.136 4.002,-2.02 v 0 c 2.209,1.12 4.002,3.84 3.998,6.061 v 0 c -0.006,1.566 -0.905,2.462 -2.211,2.462 v 0 c -0.545,0.001 -1.161,-0.155 -1.812,-0.484"
         id="path16"
         inkscape:connector-curvature="0" /></clipPath><clipPath
       clipPathUnits="userSpaceOnUse"
       id="clipPath26"><path
         d="m 149.992,193.631 h 8.012 V 183.36 h -8.012 z"
         id="path24"
         inkscape:connector-curvature="0" /></clipPath><linearGradient
       x1="0"
       y1="0"
       x2="0"
       y2="1024"
       gradientUnits="userSpaceOnUse"
       gradientTransform="matrix(1,0,0,-1,149.9994,192.9989)"
       id="linearGradient36"><stop
         style="stop-opacity:1;stop-color:#808285"
         offset="0"
         id="stop32" /><stop
         style="stop-opacity:1;stop-color:#39313d"
         offset="1"
         id="stop34" /></linearGradient><linearGradient
       x1="-153.903"
       y1="-50.085899"
       x2="102.176"
       y2="9"
       gradientUnits="userSpaceOnUse"
       gradientTransform="matrix(1,0,0,-1,149.9994,192.9989)"
       spreadMethod="pad"
       id="linearGradient68"><stop
         style="stop-opacity:1;stop-color:#808285"
         offset="0"
         id="stop64" /><stop
         style="stop-opacity:1;stop-color:#39313d"
         offset="1"
         id="stop66" /></linearGradient><linearGradient
       x1="0"
       y1="0"
       x2="1"
       y2="0"
       gradientUnits="userSpaceOnUse"
       gradientTransform="matrix(0,-214.50058,-214.50058,0,173.50002,235.16667)"
       spreadMethod="pad"
       id="linearGradient90"><stop
         style="stop-opacity:1;stop-color:#199bdc"
         offset="0"
         id="stop84" /><stop
         style="stop-opacity:1;stop-color:#199bdc"
         offset="0.536906"
         id="stop86" /><stop
         style="stop-opacity:1;stop-color:#093b52"
         offset="1"
         id="stop88" /></linearGradient><clipPath
       clipPathUnits="userSpaceOnUse"
       id="clipPath100"><path
         d="m 212.166,228.364 -65.427,-35.348 c -2.093,-1.191 -3.872,-3.75 -4.499,-6.259 v 0 c -0.162,-0.634 -0.244,-1.263 -0.24,-1.868 v 0 L 142.052,165 c 2.097,6.12 6.514,12.074 11.653,15.003 v 0 l 51.582,27.465 c 5.135,2.921 9.547,2.016 11.674,-1.652 v 0 l 0.039,16.494 -0.066,3.342 c -0.006,2.123 -1.091,3.348 -2.654,3.348 v 0 c -0.638,0 -1.357,-0.204 -2.114,-0.636"
         id="path98"
         inkscape:connector-curvature="0" /></clipPath><clipPath
       clipPathUnits="userSpaceOnUse"
       id="clipPath110"><path
         d="M 206.287,70.901 154.704,43.492 c -5.147,-2.924 -9.572,-2.04 -11.704,1.666 v 0 l 0.048,-16.684 0.009,-3.162 c 0,-0.477 0.061,-0.906 0.165,-1.288 v 0 c 0.549,-1.987 2.416,-2.633 4.603,-1.388 v 0 l 65.436,35.278 c 2.612,1.488 4.748,5.127 4.739,8.081 v 0 L 217.943,84.456 218,86 c -2.076,-6.155 -6.513,-12.145 -11.713,-15.099"
         id="path108"
         inkscape:connector-curvature="0" /></clipPath><clipPath
       clipPathUnits="userSpaceOnUse"
       id="clipPath120"><path
         d="M 206.013,206.43 154.6,179.089 c -6.425,-3.661 -11.621,-12.554 -11.6,-19.802 v 0 l 0.312,-107.154 c 0.018,-7.281 5.249,-10.216 11.672,-6.56 v 0 L 206.4,72.919 c 6.434,3.661 11.621,12.522 11.6,19.803 v 0 l -0.304,107.152 c -0.019,5.139 -2.648,8.126 -6.47,8.126 v 0 c -1.569,0 -3.34,-0.504 -5.213,-1.57"
         id="path118"
         inkscape:connector-curvature="0" /></clipPath><clipPath
       clipPathUnits="userSpaceOnUse"
       id="clipPath130"><path
         d="M 194.361,58.907 173.626,46.616 C 173.29,46.41 172.996,45.898 173,45.49 v 0 c 0,-0.436 0.29,-0.608 0.63,-0.406 v 0 l 20.74,12.295 c 0.369,0.219 0.63,0.719 0.63,1.153 v 0 C 194.997,58.822 194.865,59 194.654,59 v 0 c -0.086,0 -0.184,-0.03 -0.293,-0.093"
         id="path128"
         inkscape:connector-curvature="0" /></clipPath><clipPath
       clipPathUnits="userSpaceOnUse"
       id="clipPath138"><path
         d="M 172.996,59.126 H 195 V 44.882 h -22.004 z"
         id="path136"
         inkscape:connector-curvature="0" /></clipPath><linearGradient
       x1="0"
       y1="0"
       x2="0"
       y2="1024"
       gradientUnits="userSpaceOnUse"
       gradientTransform="matrix(1,0,0,-1,172.99945,59.000549)"
       id="linearGradient148"><stop
         style="stop-opacity:1;stop-color:#808285"
         offset="0"
         id="stop144" /><stop
         style="stop-opacity:1;stop-color:#39313d"
         offset="1"
         id="stop146" /></linearGradient><linearGradient
       x1="-423.23401"
       y1="-77.9114"
       x2="280.983"
       y2="14"
       gradientUnits="userSpaceOnUse"
       gradientTransform="matrix(1,0,0,-1,172.99945,59.000549)"
       spreadMethod="pad"
       id="linearGradient180"><stop
         style="stop-opacity:1;stop-color:#808285"
         offset="0"
         id="stop176" /><stop
         style="stop-opacity:1;stop-color:#39313d"
         offset="1"
         id="stop178" /></linearGradient><clipPath
       clipPathUnits="userSpaceOnUse"
       id="clipPath190"><path
         d="M 0,236 H 223 V 0 H 0 Z"
         id="path188"
         inkscape:connector-curvature="0" /></clipPath><clipPath
       clipPathUnits="userSpaceOnUse"
       id="clipPath202"><path
         d="m 93.386,146.806 -0.833,-0.13 -0.362,-0.057 c -0.57,-0.104 -1.15,-0.245 -1.735,-0.393 v 0 l -0.57,-0.161 -0.31,-0.087 c -1.473,-0.436 -2.977,-0.977 -4.525,-1.7 v 0 c -0.998,-0.467 -2.004,-0.981 -3.02,-1.57 v 0 L 49.682,124.034 c -2.571,-1.486 -5.056,-3.308 -7.45,-5.353 v 0 l -0.275,-0.24 -0.618,-0.54 c -0.681,-0.602 -1.352,-1.225 -2.014,-1.869 v 0 l -0.654,-0.651 -0.684,-0.688 c -1.391,-1.434 -2.729,-2.947 -4.016,-4.53 v 0 c -0.566,-0.697 -1.124,-1.408 -1.669,-2.131 v 0 l -0.636,-0.855 c -0.732,-1.001 -1.448,-2.022 -2.136,-3.068 v 0 c -0.619,-0.946 -1.203,-1.914 -1.783,-2.886 v 0 l -0.265,-0.432 c -0.864,-1.477 -1.683,-2.973 -2.447,-4.498 v 0 c -0.443,-0.894 -0.862,-1.796 -1.272,-2.698 v 0 l -0.257,-0.55 -0.004,-0.004 c -0.903,-2.036 -1.679,-4.098 -2.376,-6.168 v 0 C 20.982,86.45 20.829,86.027 20.699,85.6 v 0 c -0.21,-0.658 -0.393,-1.317 -0.58,-1.975 v 0 c -0.144,-0.532 -0.292,-1.063 -0.423,-1.594 v 0 L 19.691,82.025 C 19.557,81.49 19.417,80.953 19.3,80.421 v 0 c -0.132,-0.588 -0.232,-1.168 -0.345,-1.752 v 0 c -0.161,-0.837 -0.31,-1.67 -0.428,-2.502 v 0 L 18.472,75.709 C 18.34,74.728 18.214,73.747 18.139,72.775 v 0 C 18.053,71.598 17.996,70.43 18,69.279 v 0 L 18.13,23.587 18.183,5 114,60.321 113.817,124.605 C 113.78,138.822 106.605,147.001 96.218,147 v 0 c -0.92,0 -1.865,-0.064 -2.832,-0.194"
         id="path200"
         inkscape:connector-curvature="0" /></clipPath><clipPath
       clipPathUnits="userSpaceOnUse"
       id="clipPath212"><path
         d="m 68.371,208.192 -0.643,-0.294 c -0.742,-0.355 -1.5,-0.74 -2.285,-1.185 v 0 c -1.134,-0.641 -2.201,-1.342 -3.242,-2.064 v 0 c -0.45,-0.311 -0.891,-0.624 -1.323,-0.947 v 0 l -0.137,-0.1 -1.032,-0.839 -1.094,-0.913 c -0.622,-0.554 -1.217,-1.128 -1.8,-1.718 v 0 l -0.18,-0.177 -0.746,-0.792 -0.313,-0.358 c -0.657,-0.737 -1.279,-1.498 -1.875,-2.281 v 0 l -0.692,-0.926 -0.15,-0.203 c -0.71,-1.021 -1.358,-2.085 -1.985,-3.213 v 0 c -0.348,-0.633 -0.697,-1.261 -1.014,-1.914 v 0 c -0.345,-0.722 -0.666,-1.461 -0.97,-2.215 v 0 l -0.097,-0.263 c -0.221,-0.546 -0.432,-1.099 -0.627,-1.657 v 0 l -0.225,-0.719 c -0.432,-1.319 -0.794,-2.665 -1.085,-4.015 v 0 l -0.057,-0.289 c -0.199,-0.952 -0.366,-1.904 -0.516,-3.024 v 0 c -0.063,-0.498 -0.106,-0.987 -0.145,-1.48 v 0 l -0.054,-0.571 c -0.053,-0.787 -0.088,-1.57 -0.083,-2.34 v 0 c 0.004,-1.506 0.075,-2.942 0.172,-4.344 v 0 c 0.035,-0.45 0.079,-0.891 0.123,-1.337 v 0 c 0.106,-1.125 0.247,-2.215 0.414,-3.266 v 0 l 0.097,-0.623 c 0.204,-1.147 0.433,-2.254 0.737,-3.465 v 0 c 2.987,-11.353 9.972,-16.587 18.066,-12.006 v 0 c 3.308,1.873 6.418,5.183 9.144,9.435 v 0 l 0.198,0.308 c 0.477,0.757 0.94,1.549 1.39,2.362 v 0 l 0.264,0.481 c 0.887,1.635 1.711,3.378 2.483,5.204 v 0 l 0.441,1.059 c 1.046,2.596 1.959,5.344 2.731,8.19 v 0 c 0.979,3.604 1.72,7.351 2.179,11.153 v 0 c 0.172,1.406 0.304,2.817 0.397,4.228 v 0 l 0.026,0.333 c 0.084,1.462 0.141,2.92 0.137,4.374 v 0 c -0.018,5.407 -1.456,9.833 -3.943,12.152 v 0 C 79.573,209.312 77.726,210 75.518,210 v 0 c -2.068,0 -4.451,-0.604 -7.147,-1.808"
         id="path210"
         inkscape:connector-curvature="0" /></clipPath><linearGradient
       x1="0"
       y1="0"
       x2="1"
       y2="0"
       gradientUnits="userSpaceOnUse"
       gradientTransform="matrix(0,-215.00162,-215.00162,0,57.5,220)"
       spreadMethod="pad"
       id="linearGradient234"><stop
         style="stop-opacity:1;stop-color:#199bdc"
         offset="0"
         id="stop228" /><stop
         style="stop-opacity:1;stop-color:#199bdc"
         offset="0.582941"
         id="stop230" /><stop
         style="stop-opacity:1;stop-color:#093b52"
         offset="1"
         id="stop232" /></linearGradient></defs><sodipodi:namedview
     pagecolor="#ffffff"
     bordercolor="#666666"
     borderopacity="1"
     objecttolerance="10"
     gridtolerance="10"
     guidetolerance="10"
     inkscape:pageopacity="0"
     inkscape:pageshadow="2"
     inkscape:window-width="640"
     inkscape:window-height="480"
     id="namedview4"
     showgrid="false"
     inkscape:zoom="0.75000002"
     inkscape:cx="148.66667"
     inkscape:cy="157.33333"
     inkscape:window-x="0"
     inkscape:window-y="0"
     inkscape:window-maximized="0"
     inkscape:current-layer="g10" /><g
     id="g10"
     inkscape:groupmode="layer"
     inkscape:label="Vector Smart Object11"
     transform="matrix(1.3333333,0,0,-1.3333333,0,314.66667)"><g
       id="g12"><g
         id="g14"
         clip-path="url(#clipPath18)"><g
           id="g20"><g
             id="g22" /><g
             id="g50"><g
               clip-path="url(#clipPath26)"
               id="g48"
               style="opacity:0"><g
                 id="g46"><g
                   id="g44"><g
                     id="g42"><g
                       id="g40"><path
                         d="m 149.991,183.36 h 8.014 v 10.272 h -8.014 z"
                         style="fill:url(#linearGradient36);stroke:none"
                         id="path38"
                         inkscape:connector-curvature="0" /></g></g></g></g></g></g></g></g></g><g
       id="g52"><g
         id="g54"><g
           id="g60"><g
             id="g62"><path
               d="m 153.977,192.515 c -2.217,-1.117 -3.986,-3.794 -3.977,-6.019 v 0 c 0.004,-2.22 1.785,-3.136 4.002,-2.02 v 0 c 2.209,1.12 4.002,3.84 3.998,6.061 v 0 c -0.006,1.566 -0.905,2.463 -2.212,2.463 v 0 c -0.544,0 -1.16,-0.156 -1.811,-0.485"
               style="fill:url(#linearGradient68);stroke:none"
               id="path70"
               inkscape:connector-curvature="0" /></g></g></g></g><g
       id="g72"><g
         id="g74"><g
           id="g80"><g
             id="g82"><path
               d="m 200.878,236 -0.137,-0.013 -0.094,-0.013 -0.223,-0.022 -0.532,-0.112 -0.227,-0.078 -0.21,-0.074 -0.271,-0.09 -0.706,-0.347 -0.13,-0.074 -61.611,-33.558 c -0.69,-0.398 -4.077,-2.594 -4.694,-3.192 v 0 l -0.154,-0.121 -0.151,-0.169 -0.172,-0.182 -0.287,-0.307 -0.42,-0.515 -0.179,-0.247 -0.068,-0.083 -0.104,-0.138 -0.309,-0.451 -0.278,-0.442 -0.142,-0.246 -0.043,-0.069 -0.077,-0.126 -0.236,-0.446 -0.201,-0.407 -0.189,-0.416 -0.022,-0.03 -0.012,-0.035 -0.223,-0.541 -0.202,-0.567 -0.086,-0.273 -0.038,-0.13 -0.064,-0.208 -0.168,-0.689 -0.068,-0.411 -0.042,-0.221 -0.034,-0.198 C 128.021,190.36 128,189.965 128,189.58 v 0 l 0.45,-159.705 c 0.004,-1.889 0.678,-3.218 1.762,-3.846 v 0 l 14.165,-4.638 -0.33,0.274 c -0.027,0.023 -0.054,0.045 -0.081,0.068 v 0 l 0.081,-0.068 c 1.106,-0.887 2.759,-0.931 4.604,0.138 v 0 l 64.356,35.221 c 3.304,1.91 6.002,6.578 5.993,10.381 v 0 l -0.103,18.556 -0.026,6.969 0.056,0.722 -0.304,107.235 -0.055,0.659 -0.009,22.36 -0.009,3.199 c -0.004,1.905 -0.686,3.238 -1.766,3.862 v 0 l 0.008,-0.008 -14.165,4.639 -0.034,0.017 -0.296,0.147 -0.326,0.112 -0.21,0.052 -0.056,0.009 -0.073,0.017 -0.36,0.044 z m 14.011,-4.65 h 0.017 l 0.338,-0.018 z m -0.785,-0.166 -0.274,-0.06 h -0.004 z M 143.888,52.264 143.58,159.495 c -0.021,7.254 5.105,16.153 11.447,19.817 v 0 l 50.73,27.36 c 6.35,3.665 11.503,0.694 11.528,-6.56 v 0 l 0.3,-107.231 c 0.021,-7.284 -5.098,-16.153 -11.446,-19.817 v 0 L 155.403,45.699 c -1.849,-1.068 -3.599,-1.574 -5.15,-1.574 v 0 c -3.762,-10e-4 -6.353,2.978 -6.365,8.139 m -1.264,-27.023 c 0,-0.477 0.038,-0.913 0.12,-1.316 v 0 c -0.082,0.403 -0.12,0.839 -0.12,1.316 m 0.239,-1.675 0.237,-0.729 z m 0.456,-1.066 0.334,-0.51 z m 72.929,208.667 -0.326,0.121 -0.026,0.009 z m 0.536,-0.2 -0.005,0.005 z m 0.008,-0.008 -0.008,0.008 c 0,0 -0.001,10e-4 -0.001,10e-4 v 0 z"
               style="fill:url(#linearGradient90);stroke:none"
               id="path92"
               inkscape:connector-curvature="0" /></g></g></g></g><g
       id="g94"><g
         id="g96"
         clip-path="url(#clipPath100)"><path
           d="m 137,160 h 85 v 74 h -85 z"
           style="fill:#ffffff;fill-opacity:1;fill-rule:nonzero;stroke:none"
           id="path102"
           inkscape:connector-curvature="0" /></g></g><g
       id="g104"><g
         id="g106"
         clip-path="url(#clipPath110)"><path
           d="m 138,17 h 85 v 74 h -85 z"
           style="fill:#ffffff;fill-opacity:1;fill-rule:nonzero;stroke:none"
           id="path112"
           inkscape:connector-curvature="0" /></g></g><g
       id="g114"><g
         id="g116"
         clip-path="url(#clipPath120)"><path
           d="m 138,39 h 85 v 174 h -85 z"
           style="fill:#ffffff;fill-opacity:1;fill-rule:nonzero;stroke:none"
           id="path122"
           inkscape:connector-curvature="0" /></g></g><g
       id="g124"><g
         id="g126"
         clip-path="url(#clipPath130)"><g
           id="g132"><g
             id="g134" /><g
             id="g162"><g
               clip-path="url(#clipPath138)"
               id="g160"
               style="opacity:0"><g
                 id="g158"><g
                   id="g156"><g
                     id="g154"><g
                       id="g152"><path
                         d="M 172.996,44.882 H 195 v 14.244 h -22.004 z"
                         style="fill:url(#linearGradient148);stroke:none"
                         id="path150"
                         inkscape:connector-curvature="0" /></g></g></g></g></g></g></g></g></g><g
       id="g164"><g
         id="g166"><g
           id="g172"><g
             id="g174"><path
               d="M 194.361,58.907 173.626,46.616 C 173.29,46.41 172.996,45.898 173,45.49 v 0 c 0,-0.436 0.29,-0.608 0.63,-0.406 v 0 l 20.74,12.295 c 0.369,0.219 0.63,0.719 0.63,1.153 v 0 C 194.997,58.822 194.864,59 194.655,59 v 0 c -0.087,0 -0.186,-0.029 -0.294,-0.093"
               style="fill:url(#linearGradient180);stroke:none"
               id="path182"
               inkscape:connector-curvature="0" /></g></g></g></g><g
       id="g184"><g
         id="g186"
         clip-path="url(#clipPath190)"><g
           id="g192"
           transform="translate(194.3613,58.9067)"><path
             d="m 0,0 -20.735,-12.291 c -0.336,-0.206 -0.63,-0.718 -0.626,-1.127 0,-0.435 0.29,-0.607 0.63,-0.404 l 20.74,12.294 c 0.368,0.22 0.63,0.719 0.63,1.153 C 0.635,0.034 0.373,0.219 0,0 Z"
             style="fill:none;stroke:#39313d;stroke-width:0.64899999;stroke-linecap:round;stroke-linejoin:round;stroke-miterlimit:10;stroke-dasharray:none;stroke-opacity:1"
             id="path194"
             inkscape:connector-curvature="0" /></g></g></g><g
       id="g196"><g
         id="g198"
         clip-path="url(#clipPath202)"><path
           d="M 13,0 H 119 V 152 H 13 Z"
           style="fill:#ffffff;fill-opacity:1;fill-rule:nonzero;stroke:none"
           id="path204"
           inkscape:connector-curvature="0" /></g></g><g
       id="g206"><g
         id="g208"
         clip-path="url(#clipPath212)"><path
           d="m 41,142 h 49 v 73 H 41 Z"
           style="fill:#ffffff;fill-opacity:1;fill-rule:nonzero;stroke:none"
           id="path214"
           inkscape:connector-curvature="0" /></g></g><g
       id="g216"><g
         id="g218"><g
           id="g224"><g
             id="g226"><path
               d="m 59.068,221 -0.76,-0.073 -0.467,-0.049 -0.183,-0.017 -1.036,-0.222 -0.685,-0.148 -0.101,-0.022 c -0.559,-0.148 -1.145,-0.344 -1.742,-0.562 v 0 l -0.45,-0.174 -0.608,-0.231 c -0.406,-0.169 -0.834,-0.365 -1.258,-0.57 v 0 l -0.27,-0.117 c -0.586,-0.282 -1.184,-0.592 -1.805,-0.936 v 0 l -0.663,-0.37 c -0.957,-0.553 -1.861,-1.132 -2.734,-1.724 v 0 l -0.817,-0.588 c -0.581,-0.417 -1.153,-0.84 -1.699,-1.271 v 0 l -0.852,-0.705 c -0.507,-0.427 -0.991,-0.858 -1.463,-1.293 v 0 l -0.764,-0.723 -0.388,-0.366 -0.923,-0.991 -0.724,-0.781 -0.201,-0.217 c -0.442,-0.51 -0.86,-1.019 -1.263,-1.537 v 0 l -0.188,-0.253 -0.231,-0.309 -0.555,-0.735 c -0.297,-0.414 -0.584,-0.832 -0.86,-1.25 v 0 l -0.087,-0.139 -0.119,-0.188 -0.572,-0.896 c -0.249,-0.409 -0.489,-0.819 -0.72,-1.232 v 0 l -0.065,-0.112 -0.084,-0.162 -0.502,-0.923 -0.581,-1.163 -0.074,-0.156 -0.14,-0.305 -0.467,-1.018 -0.363,-0.889 -0.2,-0.492 -0.114,-0.283 c -0.24,-0.614 -0.459,-1.227 -0.664,-1.837 v 0 l -0.018,-0.07 -0.165,-0.535 c -0.162,-0.509 -0.324,-1.019 -0.463,-1.515 v 0 l -0.044,-0.187 c -0.161,-0.588 -0.297,-1.171 -0.432,-1.746 v 0 l -0.149,-0.609 -0.009,-0.057 c -0.223,-1.049 -0.388,-2.063 -0.524,-3.047 v 0 l -0.057,-0.331 -0.043,-0.436 c -0.066,-0.565 -0.118,-1.114 -0.158,-1.649 v 0 l -0.056,-0.706 c -0.044,-0.744 -0.071,-1.462 -0.066,-2.136 v 0 c 0.039,-13.484 3.922,-23.113 9.74,-26.483 v 0 l 15.112,-8.75 -20.31,-11.689 c -1.083,-0.623 -2.153,-1.306 -3.209,-2.033 v 0 l -1.035,-0.757 c -0.704,-0.51 -1.403,-1.02 -2.088,-1.568 v 0 c -0.398,-0.322 -0.791,-0.661 -1.188,-0.997 v 0 c -0.616,-0.518 -1.232,-1.044 -1.835,-1.596 v 0 c -0.406,-0.376 -0.809,-0.763 -1.21,-1.151 v 0 l -0.983,-0.931 -0.58,-0.623 c -0.655,-0.679 -1.298,-1.375 -1.935,-2.089 v 0 l -0.83,-0.897 -0.476,-0.579 c -0.323,-0.383 -0.642,-0.775 -0.961,-1.167 v 0 l -0.9,-1.097 -0.829,-1.11 -0.669,-0.892 -0.415,-0.558 c -0.58,-0.804 -1.144,-1.628 -1.695,-2.455 v 0 l -0.105,-0.17 -0.265,-0.418 c -0.398,-0.613 -0.795,-1.223 -1.176,-1.847 v 0 c -0.24,-0.395 -0.471,-0.804 -0.707,-1.204 v 0 l -0.42,-0.719 -0.31,-0.522 c -0.458,-0.814 -0.904,-1.637 -1.332,-2.464 v 0 l -0.218,-0.44 -0.275,-0.548 C 7.133,105.78 6.918,105.37 6.722,104.956 v 0 C 6.377,104.243 6.053,103.52 5.735,102.802 v 0 l -0.17,-0.366 -0.057,-0.131 C 5.08,101.321 4.674,100.333 4.289,99.34 v 0 L 4.097,98.806 3.712,97.73 C 3.529,97.225 3.337,96.728 3.171,96.223 v 0 L 2.817,95.083 C 2.678,94.626 2.533,94.172 2.402,93.716 v 0 L 2.14,92.863 C 2.001,92.363 1.9,91.867 1.773,91.369 v 0 C 1.629,90.803 1.48,90.242 1.358,89.68 v 0 L 1.21,89.079 C 1.122,88.675 1.078,88.274 1,87.869 v 0 C 0.834,86.994 0.673,86.119 0.55,85.253 v 0 L 0.424,84.517 C 0.354,83.969 0.314,83.433 0.262,82.889 v 0 L 0.148,81.722 C 0.057,80.499 0,79.285 0,78.087 v 0 L 0.188,12.329 16.292,3 115,59.803 l -0.188,65.758 c -0.03,10.413 -3.748,17.735 -9.723,21.162 v 0 l 0.063,-0.031 -16.104,9.325 -0.184,0.105 -0.214,0.105 c -0.398,0.216 -0.808,0.414 -1.223,0.595 v 0 l -0.227,0.109 -0.197,0.07 c -0.493,0.2 -0.995,0.383 -1.516,0.531 v 0 l -0.043,0.017 h -0.009 c -0.536,0.157 -1.096,0.279 -1.659,0.384 v 0 l -0.192,0.043 -0.263,0.031 c -0.498,0.078 -1,0.139 -1.51,0.178 v 0 l -0.232,0.026 H 81.5 c -0.629,0.039 -1.271,0.039 -1.926,0.018 v 0 h -0.188 l -0.253,-0.027 c -0.72,-0.039 -1.454,-0.104 -2.205,-0.217 v 0 l -0.014,-0.005 -0.034,-0.004 c -0.407,-0.065 -0.835,-0.178 -1.25,-0.265 v 0 c 6.146,10.095 10.273,24.687 10.234,38.684 v 0 c -0.018,5.489 -1.433,11.763 -5.831,14.218 v 0 l 0.113,-0.052 -16.104,9.325 -0.078,0.047 -0.842,0.41 -0.233,0.082 -0.279,0.1 -0.367,0.132 -0.834,0.186 -0.087,0.022 -0.027,0.004 -1.048,0.122 -0.323,0.005 -0.406,0.004 z m -11.644,-60.721 -0.035,0.165 c -0.267,1.054 -0.494,2.168 -0.694,3.322 v 0 l -0.097,0.627 c -0.165,1.058 -0.306,2.155 -0.41,3.287 v 0 0.004 c -0.044,0.444 -0.087,0.889 -0.122,1.34 v 0 c -0.097,1.411 -0.167,2.857 -0.171,4.372 v 0 c -0.004,0.775 0.031,1.563 0.083,2.355 v 0 l 0.053,0.575 c 0.039,0.496 0.083,0.988 0.143,1.488 v 0 l 0.027,0.179 c 0.122,0.949 0.289,1.907 0.485,2.864 v 0 l 0.056,0.292 c 0.288,1.358 0.647,2.712 1.075,4.04 v 0 l 0.222,0.723 c 0.193,0.561 0.403,1.119 0.62,1.667 v 0 l 0.097,0.266 c 0.301,0.757 0.62,1.502 0.961,2.23 v 0 c 0.314,0.656 0.66,1.288 1.004,1.923 v 0 l 0.009,0.017 0.008,0.013 c 0.603,1.107 1.246,2.177 1.949,3.204 v 0 l 0.148,0.205 0.686,0.932 c 0.59,0.789 1.205,1.554 1.856,2.294 v 0 l 0.311,0.361 0.738,0.798 0.179,0.177 c 0.577,0.592 1.166,1.171 1.782,1.729 v 0 l 1.082,0.918 1.023,0.845 0.135,0.1 c 0.428,0.326 0.866,0.64 1.31,0.953 v 0 c 1.032,0.727 2.088,1.432 3.21,2.077 v 0 c 0.778,0.447 1.529,0.836 2.263,1.193 v 0 l 0.638,0.296 0.087,0.034 c 5.434,2.473 9.631,2.39 12.474,-0.296 v 0 c 2.464,-2.333 3.888,-6.786 3.905,-12.228 v 0 c 0.004,-1.463 -0.053,-2.93 -0.135,-4.401 v 0 l -0.026,-0.335 c -0.092,-1.42 -0.224,-2.839 -0.394,-4.254 v 0 c -0.454,-3.827 -1.188,-7.597 -2.157,-11.223 v 0 c -0.765,-2.865 -1.669,-5.629 -2.704,-8.241 v 0 L 78.661,166.1 v -0.005 c -0.764,-1.832 -1.58,-3.587 -2.459,-5.233 v 0 l -0.262,-0.483 c -0.445,-0.818 -0.904,-1.615 -1.376,-2.377 v 0 l -0.196,-0.309 c -2.699,-4.279 -5.779,-7.61 -9.054,-9.494 v 0 c -1.961,-1.128 -3.856,-1.665 -5.643,-1.665 v 0 c -5.52,0 -10.013,5.117 -12.247,13.745 M 17.584,23.9 17.453,69.533 c -0.005,1.149 0.052,2.316 0.14,3.491 v 0 c 0.074,0.971 0.201,1.951 0.331,2.93 v 0 l 0.057,0.457 c 0.119,0.832 0.267,1.663 0.429,2.499 v 0 c 0.114,0.583 0.214,1.162 0.345,1.75 v 0 c 0.118,0.531 0.257,1.067 0.393,1.602 v 0 l 0.004,0.004 c 0.131,0.532 0.28,1.063 0.424,1.594 v 0 c 0.188,0.657 0.371,1.314 0.58,1.972 v 0 c 0.132,0.427 0.285,0.849 0.429,1.271 v 0 c 0.699,2.068 1.476,4.127 2.38,6.16 v 0 l 0.004,0.004 0.258,0.549 c 0.411,0.901 0.83,1.802 1.276,2.696 v 0 c 0.764,1.522 1.585,3.015 2.449,4.491 v 0 l 0.268,0.432 c 0.58,0.971 1.165,1.937 1.785,2.881 v 0 c 0.69,1.045 1.407,2.064 2.14,3.065 v 0 l 0.639,0.853 c 0.545,0.723 1.104,1.433 1.672,2.129 v 0 c 1.289,1.58 2.629,3.091 4.023,4.523 v 0 l 0.686,0.688 0.655,0.649 c 0.663,0.644 1.336,1.268 2.017,1.867 v 0 l 0.621,0.54 0.275,0.24 c 2.398,2.041 4.887,3.861 7.465,5.346 v 0 l 32.411,18.649 c 1.018,0.588 2.027,1.103 3.027,1.568 v 0 c 1.551,0.723 3.057,1.262 4.534,1.698 v 0 l 0.31,0.087 0.572,0.161 c 0.585,0.148 1.167,0.287 1.738,0.391 v 0 l 0.363,0.057 0.834,0.131 c 11.915,1.593 20.432,-6.718 20.471,-22.172 v 0 L 113.641,60.587 17.636,5.338 Z m 87.568,122.792 -0.014,0.004 z"
               style="fill:url(#linearGradient234);stroke:none"
               id="path236"
               inkscape:connector-curvature="0" /></g></g></g></g></g></svg>