<svg xmlns="http://www.w3.org/2000/svg" viewBox="0 0 1020.55 237.89"><g id="TS_logo" data-name="TS logo"><g id="red_dots" data-name="red dots"><g id="red_dots-2" data-name="red dots"><path d="M164,.68a13.61,13.61,0,1,0,13.6,13.61A13.64,13.64,0,0,0,164,.68" style="fill:#f32735"/><path d="M88.79,38.44a13.61,13.61,0,1,0,13.6,13.61,13.64,13.64,0,0,0-13.6-13.61" style="fill:#f32735"/><path d="M88.79,76.54a12.93,12.93,0,1,0,12.92,12.93h0A12.92,12.92,0,0,0,88.79,76.54h0" style="fill:#f32735"/><path d="M88.79,153.42A11.57,11.57,0,1,0,100.35,165a11.47,11.47,0,0,0-11.56-11.57h0" style="fill:#f32735"/><path d="M13.61.68a13.61,13.61,0,1,0,13.6,13.61A13.64,13.64,0,0,0,13.61.68" style="fill:#f32735"/><path d="M88.79,115A12.25,12.25,0,1,0,101,127.23,12.19,12.19,0,0,0,88.79,115h0" style="fill:#f32735"/></g><path d="M88.79,0A14.37,14.37,0,0,0,74.5,14.29a14.29,14.29,0,1,0,28.58,0h0A14.16,14.16,0,0,0,88.79,0h0" style="fill:#f32735"/></g><g id="blue_dots" data-name="blue dots"><path d="M164,40.48a11.57,11.57,0,1,0,11.56,11.57h0A11.47,11.47,0,0,0,164,40.48" style="fill:#fff"/><path d="M164,79.6a10.23,10.23,0,0,0-10.21,10.21c0,5.78,4.42,9.86,10.21,9.86a10,10,0,1,0,0-20.07h0" style="fill:#fff"/><path d="M164,118.72a8.51,8.51,0,1,0,8.5,8.51h0c.34-4.76-3.74-8.51-8.5-8.51" style="fill:#fff"/><path d="M126.55,20.41a12.25,12.25,0,1,0,12.24,12.25h0a12.19,12.19,0,0,0-12.24-12.25" style="fill:#fff"/><path d="M126.55,58.51a11.57,11.57,0,1,0,11.56,11.57h0a11.68,11.68,0,0,0-11.56-11.57" style="fill:#fff"/><path d="M126.55,98a10,10,0,1,0,.34,20.07,9.87,9.87,0,0,0,9.86-9.86c0-5.79-4.42-10.55-10.2-10.21h0" style="fill:#fff"/><path d="M126.55,136.75a8.51,8.51,0,1,0,8.5,8.51h0a8.64,8.64,0,0,0-8.5-8.51" style="fill:#fff"/><path d="M51.37,20.41A12.25,12.25,0,1,0,63.61,32.66h0A12.19,12.19,0,0,0,51.37,20.41h0" style="fill:#fff"/><path d="M51.37,58.51A11.57,11.57,0,1,0,62.93,70.08h0A11.68,11.68,0,0,0,51.37,58.51h0" style="fill:#fff"/><path d="M51.37,98A10,10,0,1,0,51.71,118a9.87,9.87,0,0,0,9.86-9.86c0-5.79-4.76-10.55-10.2-10.21h0" style="fill:#fff"/><path d="M51.37,136.75a8.51,8.51,0,1,0,8.5,8.51h0a8.64,8.64,0,0,0-8.5-8.51" style="fill:#fff"/><path d="M13.61,40.48a11.57,11.57,0,1,0,0,23.13A11.46,11.46,0,0,0,25.17,52.05h0A11.47,11.47,0,0,0,13.61,40.48" style="fill:#fff"/><path d="M13.61,79.6A10,10,0,1,0,14,99.67a9.87,9.87,0,0,0,9.86-9.86A10.23,10.23,0,0,0,13.61,79.6" style="fill:#fff"/><path d="M13.61,118.72a8.51,8.51,0,1,0,0,17,8.42,8.42,0,0,0,8.5-8.5h0a8.43,8.43,0,0,0-8.5-8.51" style="fill:#fff"/></g><g id="threat"><path d="M233.7,44.56h-8.5V114c0,14,6.46,21.09,19.73,21.09h12.93V123.83h-9.53c-6.12,0-9.52-3.75-9.52-10.89V68h19.05V57.15H236.77Z" style="fill:#f32735"/><path d="M373.52,57.15h-9.19v77.9h13.61V78.24a28.76,28.76,0,0,1,22.45-9.86V56.81a34.43,34.43,0,0,0-24.49,9.87Z" style="fill:#f32735"/><path d="M424.21,88.45c1-13.61,8.16-20.41,22.11-20.41,12.93,0,19.73,6.8,20.07,20.41Zm22.11-31.3c-23.81,0-35.72,12.59-35.72,38.1,0,26.54,13.27,39.8,40.14,39.8,8.51,0,17-.68,25.17-3.06V120.76a92.19,92.19,0,0,1-23.47,3.07c-18.71,0-27.89-7.83-27.89-23.82H479c.34-3.4.68-6.8.68-9.86-.34-22.11-11.57-33-33.34-33" style="fill:#f32735"/><path d="M546,116a37.83,37.83,0,0,1-24.15,7.49c-9.53,0-14-4.09-14-12.59S514,98.31,525.58,98.31A137.23,137.23,0,0,1,546,99.67ZM524.9,57.15a85.55,85.55,0,0,0-24.49,3.74V72.12a85.55,85.55,0,0,1,24.49-3.74c14,0,21.09,4.42,21.09,13.26v7.49a137.23,137.23,0,0,0-20.41-1.36c-21.09,0-31.64,7.82-31.64,23.81s9.19,23.81,27.9,23.47A43.31,43.31,0,0,0,547,127.23l4.76,7.82h7.83V81.3C559.6,65,548,57.15,524.9,57.15" style="fill:#f32735"/><path d="M590.56,44.56h-8.51V114c0,14,6.46,21.09,19.73,21.09h12.93V123.83h-9.53c-6.12,0-9.52-3.75-9.52-10.89V68h19.05V57.15H593.62Z" style="fill:#f32735"/><path d="M313,57.15a35.07,35.07,0,0,0-24.16,8.51l-5.1-21.44h-8.5v90.49h13.6V78.24a32.6,32.6,0,0,1,22.46-9.86q17.34,0,17.35,17.35v49h13.6V86.07C341.88,66.68,332,57.15,313,57.15" style="fill:#f32735"/></g><g id="stack"><path d="M699.07,89.47H687.85q-12.26,0-12.25-10.21Q675.6,68,695,68a83.58,83.58,0,0,1,27.56,4.42V60.55A107.7,107.7,0,0,0,695,56.81c-21.43,0-32.32,7.48-32.32,22.11,0,15.31,8.51,22.79,25.18,22.79h11.22c8.51,0,12.93,3.41,12.93,10.21s-6.12,11.23-18.71,11.23a83.27,83.27,0,0,1-27.55-4.43v11.91a109.69,109.69,0,0,0,27.55,3.74c21.43,0,32.32-7.48,32.32-22.11C726,97,717.1,89.47,699.07,89.47" style="fill:#fff"/><path d="M752.82,44.56h-8.5V114c0,14,6.46,21.09,19.73,21.09H777V123.83h-9.53c-6.12,0-9.53-3.75-9.53-10.89V68H777V57.15h-21.1Z" style="fill:#fff"/><path d="M842.63,116a37.83,37.83,0,0,1-24.15,7.49c-9.53,0-14-4.09-14-12.59s6.12-12.59,17.69-12.59a137.23,137.23,0,0,1,20.41,1.36ZM821.54,57.15a85.5,85.5,0,0,0-24.49,3.74V72.12a85.5,85.5,0,0,1,24.49-3.74c14,0,21.09,4.42,21.09,13.26v7.15a137.23,137.23,0,0,0-20.41-1.36c-21.09,0-31.64,7.82-31.64,23.81s9.19,23.81,27.9,23.47a44.55,44.55,0,0,0,25.17-7.48l4.76,7.82h7.83V81.3c-.34-16.33-11.57-24.15-34.7-24.15" style="fill:#fff"/><path d="M874.61,94.57c0,26.87,13.94,40.48,41.5,40.48a86.41,86.41,0,0,0,20.75-2.38V121.44a91.51,91.51,0,0,1-21.43,2.39c-18,0-27.22-9.87-27.22-29.26,0-17.69,9.19-26.19,27.22-26.19a114.35,114.35,0,0,1,21.43,2V59.19a84.49,84.49,0,0,0-20.75-2.38c-27.56.34-41.5,12.59-41.5,37.76" style="fill:#fff"/><rect x="954.21" y="44.56" width="13.61" height="90.49" style="fill:#fff"/><polygon points="1020.54 57.15 1003.2 57.15 974.28 95.93 974.28 95.93 974.28 95.93 1003.2 134.71 1020.54 134.71 990.95 95.93 1020.54 57.15" style="fill:#fff"/></g></g><g id="powered_by" data-name="powered by"><text transform="translate(435.38 227.68)" style="font-size:34px;fill:#fff;font-family:OpenSans-Regular, Open Sans;letter-spacing:0.2070025275735294em">WITH</text></g><g id="threatML"><g id="threat-2" data-name="threat"><path d="M580.68,176.4h-4.89v39.93c0,8,3.72,12.14,11.35,12.14h7.44V222H589.1c-3.53,0-5.48-2.15-5.48-6.26V189.91h11v-6.27H582.44Z" style="fill:#fff"/><path d="M661.13,183.64h-5.28v44.83h7.82V195.78a16.57,16.57,0,0,1,12.92-5.68v-6.65a19.83,19.83,0,0,0-14.09,5.68Z" style="fill:#fff"/><path d="M690.3,201.65c.58-7.83,4.69-11.74,12.72-11.74,7.44,0,11.35,3.91,11.55,11.74Zm12.72-18c-13.7,0-20.55,7.25-20.55,21.93,0,15.27,7.63,22.9,23.09,22.9a51.57,51.57,0,0,0,14.49-1.76v-6.46A53.54,53.54,0,0,1,706.54,222c-10.76,0-16-4.5-16-13.7h31.32c.2-2,.39-3.92.39-5.68-.19-12.72-6.65-19-19.18-19" style="fill:#fff"/><path d="M760.37,217.51a21.76,21.76,0,0,1-13.9,4.3c-5.48,0-8-2.34-8-7.24s3.52-7.24,10.18-7.24a79.84,79.84,0,0,1,11.74.78Zm-12.14-33.87a49.23,49.23,0,0,0-14.09,2.16v6.46a49.23,49.23,0,0,1,14.09-2.16c8,0,12.14,2.55,12.14,7.64V202a79.84,79.84,0,0,0-11.74-.78c-12.14,0-18.21,4.5-18.21,13.7s5.29,13.71,16.05,13.51A25,25,0,0,0,761,224l2.74,4.5h4.5V197.54c0-9.39-6.65-13.9-20-13.9" style="fill:#fff"/><path d="M786,176.4h-4.89v39.93c0,8,3.72,12.14,11.35,12.14h7.44V222h-5.48c-3.52,0-5.48-2.15-5.48-6.26V189.91h11v-6.27H787.77Z" style="fill:#fff"/><path d="M626.29,183.64a20.22,20.22,0,0,0-13.9,4.9l-2.94-12.33h-4.89v52.06h7.83V195.78a18.79,18.79,0,0,1,12.92-5.68q10,0,10,10v28.18h7.83v-28c-.19-11.15-5.87-16.64-16.83-16.64" style="fill:#fff"/></g><path d="M813.19,228.85V168.58h9.91l22.12,50.28,21.71-50.28h9.48v60.27h-6.95V179.41l-21.41,49.44h-6.16l-21.74-49.44v49.44Z" style="fill:#f32735"/><path d="M898.53,168.58v53.95h31.53v6.32H890.74V168.58Z" style="fill:#f32735"/></g><g id="Layer_4" data-name="Layer 4"><path d="M962.64,168.18v2.59h-7.73v21.95h-3.17V170.77H944v-2.59Zm3.24,24.54V168.18h4l9,20.45,8.82-20.45h3.87v24.54h-2.85v-19.8l-8.71,19.8h-2.52l-8.86-19.8v19.8Z" style="fill:#f32735"/><path d="M962.64,168.18v2.59h-7.73v21.95h-3.17V170.77H944v-2.59Zm3.24,24.54V168.18h4l9,20.45,8.82-20.45h3.87v24.54h-2.85v-19.8l-8.71,19.8h-2.52l-8.86-19.8v19.8Z" style="fill:#f32735"/></g></svg>