<?xml version="1.0" encoding="UTF-8"?>
<svg width="1440px" height="2510px" viewBox="0 0 1440 2510" version="1.1" xmlns="http://www.w3.org/2000/svg" xmlns:xlink="http://www.w3.org/1999/xlink">
    <!-- Generator: Sketch 62 (91390) - https://sketch.com -->
    <title>Pop</title>
    <desc>Created with Sketch.</desc>
    <defs>
        <rect id="path-1" x="0" y="0" width="1440" height="2510"></rect>
    </defs>
    <g id="Pop" stroke="none" stroke-width="1" fill="none" fill-rule="evenodd">
        <mask id="mask-2" fill="white">
            <use xlink:href="#path-1"></use>
        </mask>
        <use id="Rectangle" fill="#FFFFFF" xlink:href="#path-1"></use>
        <path d="M50,1904 C51.1045695,1904 52,1904.89543 52,1906 C52,1907.10457 51.1045695,1908 50,1908 C48.8954305,1908 48,1907.10457 48,1906 C48,1904.89543 48.8954305,1904 50,1904 Z M86,1904 C87.1045695,1904 88,1904.89543 88,1906 C88,1907.10457 87.1045695,1908 86,1908 C84.8954305,1908 84,1907.10457 84,1906 C84,1904.89543 84.8954305,1904 86,1904 Z M98,1904 C99.1045695,1904 100,1904.89543 100,1906 C100,1907.10457 99.1045695,1908 98,1908 C96.8954305,1908 96,1907.10457 96,1906 C96,1904.89543 96.8954305,1904 98,1904 Z M218,1904 C219.104569,1904 220,1904.89543 220,1906 C220,1907.10457 219.104569,1908 218,1908 C216.895431,1908 216,1907.10457 216,1906 C216,1904.89543 216.895431,1904 218,1904 Z M230,1892 C231.104569,1892 232,1892.89543 232,1894 C232,1895.10457 231.104569,1896 230,1896 C228.895431,1896 228,1895.10457 228,1894 C228,1892.89543 228.895431,1892 230,1892 Z M86,1892 C87.1045695,1892 88,1892.89543 88,1894 C88,1895.10457 87.1045695,1896 86,1896 C84.8954305,1896 84,1895.10457 84,1894 C84,1892.89543 84.8954305,1892 86,1892 Z M98,1892 C99.1045695,1892 100,1892.89543 100,1894 C100,1895.10457 99.1045695,1896 98,1896 C96.8954305,1896 96,1895.10457 96,1894 C96,1892.89543 96.8954305,1892 98,1892 Z M170,1892 C171.104569,1892 172,1892.89543 172,1894 C172,1895.10457 171.104569,1896 170,1896 C168.895431,1896 168,1895.10457 168,1894 C168,1892.89543 168.895431,1892 170,1892 Z M182,1892 C183.104569,1892 184,1892.89543 184,1894 C184,1895.10457 183.104569,1896 182,1896 C180.895431,1896 180,1895.10457 180,1894 C180,1892.89543 180.895431,1892 182,1892 Z M218,1880 C219.104569,1880 220,1880.89543 220,1882 C220,1883.10457 219.104569,1884 218,1884 C216.895431,1884 216,1883.10457 216,1882 C216,1880.89543 216.895431,1880 218,1880 Z M230,1880 C231.104569,1880 232,1880.89543 232,1882 C232,1883.10457 231.104569,1884 230,1884 C228.895431,1884 228,1883.10457 228,1882 C228,1880.89543 228.895431,1880 230,1880 Z M38,1880 C39.1045695,1880 40,1880.89543 40,1882 C40,1883.10457 39.1045695,1884 38,1884 C36.8954305,1884 36,1883.10457 36,1882 C36,1880.89543 36.8954305,1880 38,1880 Z M86,1880 C87.1045695,1880 88,1880.89543 88,1882 C88,1883.10457 87.1045695,1884 86,1884 C84.8954305,1884 84,1883.10457 84,1882 C84,1880.89543 84.8954305,1880 86,1880 Z M98,1880 C99.1045695,1880 100,1880.89543 100,1882 C100,1883.10457 99.1045695,1884 98,1884 C96.8954305,1884 96,1883.10457 96,1882 C96,1880.89543 96.8954305,1880 98,1880 Z M110,1880 C111.104569,1880 112,1880.89543 112,1882 C112,1883.10457 111.104569,1884 110,1884 C108.895431,1884 108,1883.10457 108,1882 C108,1880.89543 108.895431,1880 110,1880 Z M122,1880 C123.104569,1880 124,1880.89543 124,1882 C124,1883.10457 123.104569,1884 122,1884 C120.895431,1884 120,1883.10457 120,1882 C120,1880.89543 120.895431,1880 122,1880 Z M146,1880 C147.104569,1880 148,1880.89543 148,1882 C148,1883.10457 147.104569,1884 146,1884 C144.895431,1884 144,1883.10457 144,1882 C144,1880.89543 144.895431,1880 146,1880 Z M158,1880 C159.104569,1880 160,1880.89543 160,1882 C160,1883.10457 159.104569,1884 158,1884 C156.895431,1884 156,1883.10457 156,1882 C156,1880.89543 156.895431,1880 158,1880 Z M170,1880 C171.104569,1880 172,1880.89543 172,1882 C172,1883.10457 171.104569,1884 170,1884 C168.895431,1884 168,1883.10457 168,1882 C168,1880.89543 168.895431,1880 170,1880 Z M194,1880 C195.104569,1880 196,1880.89543 196,1882 C196,1883.10457 195.104569,1884 194,1884 C192.895431,1884 192,1883.10457 192,1882 C192,1880.89543 192.895431,1880 194,1880 Z M206,1868 C207.104569,1868 208,1868.89543 208,1870 C208,1871.10457 207.104569,1872 206,1872 C204.895431,1872 204,1871.10457 204,1870 C204,1868.89543 204.895431,1868 206,1868 Z M230,1868 C231.104569,1868 232,1868.89543 232,1870 C232,1871.10457 231.104569,1872 230,1872 C228.895431,1872 228,1871.10457 228,1870 C228,1868.89543 228.895431,1868 230,1868 Z M38,1868 C39.1045695,1868 40,1868.89543 40,1870 C40,1871.10457 39.1045695,1872 38,1872 C36.8954305,1872 36,1871.10457 36,1870 C36,1868.89543 36.8954305,1868 38,1868 Z M50,1868 C51.1045695,1868 52,1868.89543 52,1870 C52,1871.10457 51.1045695,1872 50,1872 C48.8954305,1872 48,1871.10457 48,1870 C48,1868.89543 48.8954305,1868 50,1868 Z M86,1868 C87.1045695,1868 88,1868.89543 88,1870 C88,1871.10457 87.1045695,1872 86,1872 C84.8954305,1872 84,1871.10457 84,1870 C84,1868.89543 84.8954305,1868 86,1868 Z M110,1868 C111.104569,1868 112,1868.89543 112,1870 C112,1871.10457 111.104569,1872 110,1872 C108.895431,1872 108,1871.10457 108,1870 C108,1868.89543 108.895431,1868 110,1868 Z M134,1868 C135.104569,1868 136,1868.89543 136,1870 C136,1871.10457 135.104569,1872 134,1872 C132.895431,1872 132,1871.10457 132,1870 C132,1868.89543 132.895431,1868 134,1868 Z M146,1868 C147.104569,1868 148,1868.89543 148,1870 C148,1871.10457 147.104569,1872 146,1872 C144.895431,1872 144,1871.10457 144,1870 C144,1868.89543 144.895431,1868 146,1868 Z M158,1868 C159.104569,1868 160,1868.89543 160,1870 C160,1871.10457 159.104569,1872 158,1872 C156.895431,1872 156,1871.10457 156,1870 C156,1868.89543 156.895431,1868 158,1868 Z M170,1868 C171.104569,1868 172,1868.89543 172,1870 C172,1871.10457 171.104569,1872 170,1872 C168.895431,1872 168,1871.10457 168,1870 C168,1868.89543 168.895431,1868 170,1868 Z M194,1868 C195.104569,1868 196,1868.89543 196,1870 C196,1871.10457 195.104569,1872 194,1872 C192.895431,1872 192,1871.10457 192,1870 C192,1868.89543 192.895431,1868 194,1868 Z M230,1856 C231.104569,1856 232,1856.89543 232,1858 C232,1859.10457 231.104569,1860 230,1860 C228.895431,1860 228,1859.10457 228,1858 C228,1856.89543 228.895431,1856 230,1856 Z M182,1856 C183.104569,1856 184,1856.89543 184,1858 C184,1859.10457 183.104569,1860 182,1860 C180.895431,1860 180,1859.10457 180,1858 C180,1856.89543 180.895431,1856 182,1856 Z M194,1856 C195.104569,1856 196,1856.89543 196,1858 C196,1859.10457 195.104569,1860 194,1860 C192.895431,1860 192,1859.10457 192,1858 C192,1856.89543 192.895431,1856 194,1856 Z M206,1856 C207.104569,1856 208,1856.89543 208,1858 C208,1859.10457 207.104569,1860 206,1860 C204.895431,1860 204,1859.10457 204,1858 C204,1856.89543 204.895431,1856 206,1856 Z M218,1856 C219.104569,1856 220,1856.89543 220,1858 C220,1859.10457 219.104569,1860 218,1860 C216.895431,1860 216,1859.10457 216,1858 C216,1856.89543 216.895431,1856 218,1856 Z M170,1856 C171.104569,1856 172,1856.89543 172,1858 C172,1859.10457 171.104569,1860 170,1860 C168.895431,1860 168,1859.10457 168,1858 C168,1856.89543 168.895431,1856 170,1856 Z M26,1856 C27.1045695,1856 28,1856.89543 28,1858 C28,1859.10457 27.1045695,1860 26,1860 C24.8954305,1860 24,1859.10457 24,1858 C24,1856.89543 24.8954305,1856 26,1856 Z M50,1856 C51.1045695,1856 52,1856.89543 52,1858 C52,1859.10457 51.1045695,1860 50,1860 C48.8954305,1860 48,1859.10457 48,1858 C48,1856.89543 48.8954305,1856 50,1856 Z M62,1856 C63.1045695,1856 64,1856.89543 64,1858 C64,1859.10457 63.1045695,1860 62,1860 C60.8954305,1860 60,1859.10457 60,1858 C60,1856.89543 60.8954305,1856 62,1856 Z M74,1856 C75.1045695,1856 76,1856.89543 76,1858 C76,1859.10457 75.1045695,1860 74,1860 C72.8954305,1860 72,1859.10457 72,1858 C72,1856.89543 72.8954305,1856 74,1856 Z M98,1856 C99.1045695,1856 100,1856.89543 100,1858 C100,1859.10457 99.1045695,1860 98,1860 C96.8954305,1860 96,1859.10457 96,1858 C96,1856.89543 96.8954305,1856 98,1856 Z M110,1856 C111.104569,1856 112,1856.89543 112,1858 C112,1859.10457 111.104569,1860 110,1860 C108.895431,1860 108,1859.10457 108,1858 C108,1856.89543 108.895431,1856 110,1856 Z M134,1856 C135.104569,1856 136,1856.89543 136,1858 C136,1859.10457 135.104569,1860 134,1860 C132.895431,1860 132,1859.10457 132,1858 C132,1856.89543 132.895431,1856 134,1856 Z M146,1856 C147.104569,1856 148,1856.89543 148,1858 C148,1859.10457 147.104569,1860 146,1860 C144.895431,1860 144,1859.10457 144,1858 C144,1856.89543 144.895431,1856 146,1856 Z M158,1856 C159.104569,1856 160,1856.89543 160,1858 C160,1859.10457 159.104569,1860 158,1860 C156.895431,1860 156,1859.10457 156,1858 C156,1856.89543 156.895431,1856 158,1856 Z M26,1844 C27.1045695,1844 28,1844.89543 28,1846 C28,1847.10457 27.1045695,1848 26,1848 C24.8954305,1848 24,1847.10457 24,1846 C24,1844.89543 24.8954305,1844 26,1844 Z M38,1844 C39.1045695,1844 40,1844.89543 40,1846 C40,1847.10457 39.1045695,1848 38,1848 C36.8954305,1848 36,1847.10457 36,1846 C36,1844.89543 36.8954305,1844 38,1844 Z M50,1844 C51.1045695,1844 52,1844.89543 52,1846 C52,1847.10457 51.1045695,1848 50,1848 C48.8954305,1848 48,1847.10457 48,1846 C48,1844.89543 48.8954305,1844 50,1844 Z M170,1844 C171.104569,1844 172,1844.89543 172,1846 C172,1847.10457 171.104569,1848 170,1848 C168.895431,1848 168,1847.10457 168,1846 C168,1844.89543 168.895431,1844 170,1844 Z M182,1844 C183.104569,1844 184,1844.89543 184,1846 C184,1847.10457 183.104569,1848 182,1848 C180.895431,1848 180,1847.10457 180,1846 C180,1844.89543 180.895431,1844 182,1844 Z M194,1844 C195.104569,1844 196,1844.89543 196,1846 C196,1847.10457 195.104569,1848 194,1848 C192.895431,1848 192,1847.10457 192,1846 C192,1844.89543 192.895431,1844 194,1844 Z M230,1844 C231.104569,1844 232,1844.89543 232,1846 C232,1847.10457 231.104569,1848 230,1848 C228.895431,1848 228,1847.10457 228,1846 C228,1844.89543 228.895431,1844 230,1844 Z M14,1844 C15.1045695,1844 16,1844.89543 16,1846 C16,1847.10457 15.1045695,1848 14,1848 C12.8954305,1848 12,1847.10457 12,1846 C12,1844.89543 12.8954305,1844 14,1844 Z M146,1844 C147.104569,1844 148,1844.89543 148,1846 C148,1847.10457 147.104569,1848 146,1848 C144.895431,1848 144,1847.10457 144,1846 C144,1844.89543 144.895431,1844 146,1844 Z M158,1844 C159.104569,1844 160,1844.89543 160,1846 C160,1847.10457 159.104569,1848 158,1848 C156.895431,1848 156,1847.10457 156,1846 C156,1844.89543 156.895431,1844 158,1844 Z M62,1844 C63.1045695,1844 64,1844.89543 64,1846 C64,1847.10457 63.1045695,1848 62,1848 C60.8954305,1848 60,1847.10457 60,1846 C60,1844.89543 60.8954305,1844 62,1844 Z M74,1844 C75.1045695,1844 76,1844.89543 76,1846 C76,1847.10457 75.1045695,1848 74,1848 C72.8954305,1848 72,1847.10457 72,1846 C72,1844.89543 72.8954305,1844 74,1844 Z M98,1844 C99.1045695,1844 100,1844.89543 100,1846 C100,1847.10457 99.1045695,1848 98,1848 C96.8954305,1848 96,1847.10457 96,1846 C96,1844.89543 96.8954305,1844 98,1844 Z M110,1844 C111.104569,1844 112,1844.89543 112,1846 C112,1847.10457 111.104569,1848 110,1848 C108.895431,1848 108,1847.10457 108,1846 C108,1844.89543 108.895431,1844 110,1844 Z M134,1844 C135.104569,1844 136,1844.89543 136,1846 C136,1847.10457 135.104569,1848 134,1848 C132.895431,1848 132,1847.10457 132,1846 C132,1844.89543 132.895431,1844 134,1844 Z M38,1832 C39.1045695,1832 40,1832.89543 40,1834 C40,1835.10457 39.1045695,1836 38,1836 C36.8954305,1836 36,1835.10457 36,1834 C36,1832.89543 36.8954305,1832 38,1832 Z M62,1832 C63.1045695,1832 64,1832.89543 64,1834 C64,1835.10457 63.1045695,1836 62,1836 C60.8954305,1836 60,1835.10457 60,1834 C60,1832.89543 60.8954305,1832 62,1832 Z M110,1832 C111.104569,1832 112,1832.89543 112,1834 C112,1835.10457 111.104569,1836 110,1836 C108.895431,1836 108,1835.10457 108,1834 C108,1832.89543 108.895431,1832 110,1832 Z M122,1832 C123.104569,1832 124,1832.89543 124,1834 C124,1835.10457 123.104569,1836 122,1836 C120.895431,1836 120,1835.10457 120,1834 C120,1832.89543 120.895431,1832 122,1832 Z M134,1832 C135.104569,1832 136,1832.89543 136,1834 C136,1835.10457 135.104569,1836 134,1836 C132.895431,1836 132,1835.10457 132,1834 C132,1832.89543 132.895431,1832 134,1832 Z M146,1832 C147.104569,1832 148,1832.89543 148,1834 C148,1835.10457 147.104569,1836 146,1836 C144.895431,1836 144,1835.10457 144,1834 C144,1832.89543 144.895431,1832 146,1832 Z M98,1832 C99.1045695,1832 100,1832.89543 100,1834 C100,1835.10457 99.1045695,1836 98,1836 C96.8954305,1836 96,1835.10457 96,1834 C96,1832.89543 96.8954305,1832 98,1832 Z M26,1832 C27.1045695,1832 28,1832.89543 28,1834 C28,1835.10457 27.1045695,1836 26,1836 C24.8954305,1836 24,1835.10457 24,1834 C24,1832.89543 24.8954305,1832 26,1832 Z M170,1832 C171.104569,1832 172,1832.89543 172,1834 C172,1835.10457 171.104569,1836 170,1836 C168.895431,1836 168,1835.10457 168,1834 C168,1832.89543 168.895431,1832 170,1832 Z M194,1832 C195.104569,1832 196,1832.89543 196,1834 C196,1835.10457 195.104569,1836 194,1836 C192.895431,1836 192,1835.10457 192,1834 C192,1832.89543 192.895431,1832 194,1832 Z M2,1832 C3.1045695,1832 4,1832.89543 4,1834 C4,1835.10457 3.1045695,1836 2,1836 C0.8954305,1836 0,1835.10457 0,1834 C0,1832.89543 0.8954305,1832 2,1832 Z M74,1832 C75.1045695,1832 76,1832.89543 76,1834 C76,1835.10457 75.1045695,1836 74,1836 C72.8954305,1836 72,1835.10457 72,1834 C72,1832.89543 72.8954305,1832 74,1832 Z M86,1832 C87.1045695,1832 88,1832.89543 88,1834 C88,1835.10457 87.1045695,1836 86,1836 C84.8954305,1836 84,1835.10457 84,1834 C84,1832.89543 84.8954305,1832 86,1832 Z M14,1832 C15.1045695,1832 16,1832.89543 16,1834 C16,1835.10457 15.1045695,1836 14,1836 C12.8954305,1836 12,1835.10457 12,1834 C12,1832.89543 12.8954305,1832 14,1832 Z M158,1832 C159.104569,1832 160,1832.89543 160,1834 C160,1835.10457 159.104569,1836 158,1836 C156.895431,1836 156,1835.10457 156,1834 C156,1832.89543 156.895431,1832 158,1832 Z M158,1820 C159.104569,1820 160,1820.89543 160,1822 C160,1823.10457 159.104569,1824 158,1824 C156.895431,1824 156,1823.10457 156,1822 C156,1820.89543 156.895431,1820 158,1820 Z M170,1820 C171.104569,1820 172,1820.89543 172,1822 C172,1823.10457 171.104569,1824 170,1824 C168.895431,1824 168,1823.10457 168,1822 C168,1820.89543 168.895431,1820 170,1820 Z M182,1820 C183.104569,1820 184,1820.89543 184,1822 C184,1823.10457 183.104569,1824 182,1824 C180.895431,1824 180,1823.10457 180,1822 C180,1820.89543 180.895431,1820 182,1820 Z M14,1820 C15.1045695,1820 16,1820.89543 16,1822 C16,1823.10457 15.1045695,1824 14,1824 C12.8954305,1824 12,1823.10457 12,1822 C12,1820.89543 12.8954305,1820 14,1820 Z M2,1820 C3.1045695,1820 4,1820.89543 4,1822 C4,1823.10457 3.1045695,1824 2,1824 C0.8954305,1824 0,1823.10457 0,1822 C0,1820.89543 0.8954305,1820 2,1820 Z M74,1820 C75.1045695,1820 76,1820.89543 76,1822 C76,1823.10457 75.1045695,1824 74,1824 C72.8954305,1824 72,1823.10457 72,1822 C72,1820.89543 72.8954305,1820 74,1820 Z M86,1820 C87.1045695,1820 88,1820.89543 88,1822 C88,1823.10457 87.1045695,1824 86,1824 C84.8954305,1824 84,1823.10457 84,1822 C84,1820.89543 84.8954305,1820 86,1820 Z M98,1820 C99.1045695,1820 100,1820.89543 100,1822 C100,1823.10457 99.1045695,1824 98,1824 C96.8954305,1824 96,1823.10457 96,1822 C96,1820.89543 96.8954305,1820 98,1820 Z M110,1820 C111.104569,1820 112,1820.89543 112,1822 C112,1823.10457 111.104569,1824 110,1824 C108.895431,1824 108,1823.10457 108,1822 C108,1820.89543 108.895431,1820 110,1820 Z M122,1820 C123.104569,1820 124,1820.89543 124,1822 C124,1823.10457 123.104569,1824 122,1824 C120.895431,1824 120,1823.10457 120,1822 C120,1820.89543 120.895431,1820 122,1820 Z M134,1820 C135.104569,1820 136,1820.89543 136,1822 C136,1823.10457 135.104569,1824 134,1824 C132.895431,1824 132,1823.10457 132,1822 C132,1820.89543 132.895431,1820 134,1820 Z M194,1820 C195.104569,1820 196,1820.89543 196,1822 C196,1823.10457 195.104569,1824 194,1824 C192.895431,1824 192,1823.10457 192,1822 C192,1820.89543 192.895431,1820 194,1820 Z M50,1820 C51.1045695,1820 52,1820.89543 52,1822 C52,1823.10457 51.1045695,1824 50,1824 C48.8954305,1824 48,1823.10457 48,1822 C48,1820.89543 48.8954305,1820 50,1820 Z M146,1820 C147.104569,1820 148,1820.89543 148,1822 C148,1823.10457 147.104569,1824 146,1824 C144.895431,1824 144,1823.10457 144,1822 C144,1820.89543 144.895431,1820 146,1820 Z M26,1820 C27.1045695,1820 28,1820.89543 28,1822 C28,1823.10457 27.1045695,1824 26,1824 C24.8954305,1824 24,1823.10457 24,1822 C24,1820.89543 24.8954305,1820 26,1820 Z M38,1820 C39.1045695,1820 40,1820.89543 40,1822 C40,1823.10457 39.1045695,1824 38,1824 C36.8954305,1824 36,1823.10457 36,1822 C36,1820.89543 36.8954305,1820 38,1820 Z M86,1808 C87.1045695,1808 88,1808.89543 88,1810 C88,1811.10457 87.1045695,1812 86,1812 C84.8954305,1812 84,1811.10457 84,1810 C84,1808.89543 84.8954305,1808 86,1808 Z M110,1808 C111.104569,1808 112,1808.89543 112,1810 C112,1811.10457 111.104569,1812 110,1812 C108.895431,1812 108,1811.10457 108,1810 C108,1808.89543 108.895431,1808 110,1808 Z M122,1808 C123.104569,1808 124,1808.89543 124,1810 C124,1811.10457 123.104569,1812 122,1812 C120.895431,1812 120,1811.10457 120,1810 C120,1808.89543 120.895431,1808 122,1808 Z M134,1808 C135.104569,1808 136,1808.89543 136,1810 C136,1811.10457 135.104569,1812 134,1812 C132.895431,1812 132,1811.10457 132,1810 C132,1808.89543 132.895431,1808 134,1808 Z M170,1808 C171.104569,1808 172,1808.89543 172,1810 C172,1811.10457 171.104569,1812 170,1812 C168.895431,1812 168,1811.10457 168,1810 C168,1808.89543 168.895431,1808 170,1808 Z M2,1808 C3.1045695,1808 4,1808.89543 4,1810 C4,1811.10457 3.1045695,1812 2,1812 C0.8954305,1812 0,1811.10457 0,1810 C0,1808.89543 0.8954305,1808 2,1808 Z M14,1808 C15.1045695,1808 16,1808.89543 16,1810 C16,1811.10457 15.1045695,1812 14,1812 C12.8954305,1812 12,1811.10457 12,1810 C12,1808.89543 12.8954305,1808 14,1808 Z M50,1808 C51.1045695,1808 52,1808.89543 52,1810 C52,1811.10457 51.1045695,1812 50,1812 C48.8954305,1812 48,1811.10457 48,1810 C48,1808.89543 48.8954305,1808 50,1808 Z M182,1808 C183.104569,1808 184,1808.89543 184,1810 C184,1811.10457 183.104569,1812 182,1812 C180.895431,1812 180,1811.10457 180,1810 C180,1808.89543 180.895431,1808 182,1808 Z M62,1808 C63.1045695,1808 64,1808.89543 64,1810 C64,1811.10457 63.1045695,1812 62,1812 C60.8954305,1812 60,1811.10457 60,1810 C60,1808.89543 60.8954305,1808 62,1808 Z M194,1808 C195.104569,1808 196,1808.89543 196,1810 C196,1811.10457 195.104569,1812 194,1812 C192.895431,1812 192,1811.10457 192,1810 C192,1808.89543 192.895431,1808 194,1808 Z M206,1808 C207.104569,1808 208,1808.89543 208,1810 C208,1811.10457 207.104569,1812 206,1812 C204.895431,1812 204,1811.10457 204,1810 C204,1808.89543 204.895431,1808 206,1808 Z M230,1808 C231.104569,1808 232,1808.89543 232,1810 C232,1811.10457 231.104569,1812 230,1812 C228.895431,1812 228,1811.10457 228,1810 C228,1808.89543 228.895431,1808 230,1808 Z M74,1808 C75.1045695,1808 76,1808.89543 76,1810 C76,1811.10457 75.1045695,1812 74,1812 C72.8954305,1812 72,1811.10457 72,1810 C72,1808.89543 72.8954305,1808 74,1808 Z M62,1796 C63.1045695,1796 64,1796.89543 64,1798 C64,1799.10457 63.1045695,1800 62,1800 C60.8954305,1800 60,1799.10457 60,1798 C60,1796.89543 60.8954305,1796 62,1796 Z M74,1796 C75.1045695,1796 76,1796.89543 76,1798 C76,1799.10457 75.1045695,1800 74,1800 C72.8954305,1800 72,1799.10457 72,1798 C72,1796.89543 72.8954305,1796 74,1796 Z M86,1796 C87.1045695,1796 88,1796.89543 88,1798 C88,1799.10457 87.1045695,1800 86,1800 C84.8954305,1800 84,1799.10457 84,1798 C84,1796.89543 84.8954305,1796 86,1796 Z M98,1796 C99.1045695,1796 100,1796.89543 100,1798 C100,1799.10457 99.1045695,1800 98,1800 C96.8954305,1800 96,1799.10457 96,1798 C96,1796.89543 96.8954305,1796 98,1796 Z M110,1796 C111.104569,1796 112,1796.89543 112,1798 C112,1799.10457 111.104569,1800 110,1800 C108.895431,1800 108,1799.10457 108,1798 C108,1796.89543 108.895431,1796 110,1796 Z M26,1796 C27.1045695,1796 28,1796.89543 28,1798 C28,1799.10457 27.1045695,1800 26,1800 C24.8954305,1800 24,1799.10457 24,1798 C24,1796.89543 24.8954305,1796 26,1796 Z M170,1796 C171.104569,1796 172,1796.89543 172,1798 C172,1799.10457 171.104569,1800 170,1800 C168.895431,1800 168,1799.10457 168,1798 C168,1796.89543 168.895431,1796 170,1796 Z M182,1796 C183.104569,1796 184,1796.89543 184,1798 C184,1799.10457 183.104569,1800 182,1800 C180.895431,1800 180,1799.10457 180,1798 C180,1796.89543 180.895431,1796 182,1796 Z M206,1796 C207.104569,1796 208,1796.89543 208,1798 C208,1799.10457 207.104569,1800 206,1800 C204.895431,1800 204,1799.10457 204,1798 C204,1796.89543 204.895431,1796 206,1796 Z M218,1796 C219.104569,1796 220,1796.89543 220,1798 C220,1799.10457 219.104569,1800 218,1800 C216.895431,1800 216,1799.10457 216,1798 C216,1796.89543 216.895431,1796 218,1796 Z M230,1796 C231.104569,1796 232,1796.89543 232,1798 C232,1799.10457 231.104569,1800 230,1800 C228.895431,1800 228,1799.10457 228,1798 C228,1796.89543 228.895431,1796 230,1796 Z M134,1796 C135.104569,1796 136,1796.89543 136,1798 C136,1799.10457 135.104569,1800 134,1800 C132.895431,1800 132,1799.10457 132,1798 C132,1796.89543 132.895431,1796 134,1796 Z M38,1796 C39.1045695,1796 40,1796.89543 40,1798 C40,1799.10457 39.1045695,1800 38,1800 C36.8954305,1800 36,1799.10457 36,1798 C36,1796.89543 36.8954305,1796 38,1796 Z M50,1796 C51.1045695,1796 52,1796.89543 52,1798 C52,1799.10457 51.1045695,1800 50,1800 C48.8954305,1800 48,1799.10457 48,1798 C48,1796.89543 48.8954305,1796 50,1796 Z M134,1784 C135.104569,1784 136,1784.89543 136,1786 C136,1787.10457 135.104569,1788 134,1788 C132.895431,1788 132,1787.10457 132,1786 C132,1784.89543 132.895431,1784 134,1784 Z M170,1784 C171.104569,1784 172,1784.89543 172,1786 C172,1787.10457 171.104569,1788 170,1788 C168.895431,1788 168,1787.10457 168,1786 C168,1784.89543 168.895431,1784 170,1784 Z M38,1784 C39.1045695,1784 40,1784.89543 40,1786 C40,1787.10457 39.1045695,1788 38,1788 C36.8954305,1788 36,1787.10457 36,1786 C36,1784.89543 36.8954305,1784 38,1784 Z M206,1784 C207.104569,1784 208,1784.89543 208,1786 C208,1787.10457 207.104569,1788 206,1788 C204.895431,1788 204,1787.10457 204,1786 C204,1784.89543 204.895431,1784 206,1784 Z M230,1784 C231.104569,1784 232,1784.89543 232,1786 C232,1787.10457 231.104569,1788 230,1788 C228.895431,1788 228,1787.10457 228,1786 C228,1784.89543 228.895431,1784 230,1784 Z M98,1784 C99.1045695,1784 100,1784.89543 100,1786 C100,1787.10457 99.1045695,1788 98,1788 C96.8954305,1788 96,1787.10457 96,1786 C96,1784.89543 96.8954305,1784 98,1784 Z M122,1784 C123.104569,1784 124,1784.89543 124,1786 C124,1787.10457 123.104569,1788 122,1788 C120.895431,1788 120,1787.10457 120,1786 C120,1784.89543 120.895431,1784 122,1784 Z M74,1784 C75.1045695,1784 76,1784.89543 76,1786 C76,1787.10457 75.1045695,1788 74,1788 C72.8954305,1788 72,1787.10457 72,1786 C72,1784.89543 72.8954305,1784 74,1784 Z M158,1784 C159.104569,1784 160,1784.89543 160,1786 C160,1787.10457 159.104569,1788 158,1788 C156.895431,1788 156,1787.10457 156,1786 C156,1784.89543 156.895431,1784 158,1784 Z M218,1784 C219.104569,1784 220,1784.89543 220,1786 C220,1787.10457 219.104569,1788 218,1788 C216.895431,1788 216,1787.10457 216,1786 C216,1784.89543 216.895431,1784 218,1784 Z M26,1784 C27.1045695,1784 28,1784.89543 28,1786 C28,1787.10457 27.1045695,1788 26,1788 C24.8954305,1788 24,1787.10457 24,1786 C24,1784.89543 24.8954305,1784 26,1784 Z M182,1784 C183.104569,1784 184,1784.89543 184,1786 C184,1787.10457 183.104569,1788 182,1788 C180.895431,1788 180,1787.10457 180,1786 C180,1784.89543 180.895431,1784 182,1784 Z M86,1784 C87.1045695,1784 88,1784.89543 88,1786 C88,1787.10457 87.1045695,1788 86,1788 C84.8954305,1788 84,1787.10457 84,1786 C84,1784.89543 84.8954305,1784 86,1784 Z M110,1784 C111.104569,1784 112,1784.89543 112,1786 C112,1787.10457 111.104569,1788 110,1788 C108.895431,1788 108,1787.10457 108,1786 C108,1784.89543 108.895431,1784 110,1784 Z M86,1772 C87.1045695,1772 88,1772.89543 88,1774 C88,1775.10457 87.1045695,1776 86,1776 C84.8954305,1776 84,1775.10457 84,1774 C84,1772.89543 84.8954305,1772 86,1772 Z M98,1772 C99.1045695,1772 100,1772.89543 100,1774 C100,1775.10457 99.1045695,1776 98,1776 C96.8954305,1776 96,1775.10457 96,1774 C96,1772.89543 96.8954305,1772 98,1772 Z M2,1772 C3.1045695,1772 4,1772.89543 4,1774 C4,1775.10457 3.1045695,1776 2,1776 C0.8954305,1776 0,1775.10457 0,1774 C0,1772.89543 0.8954305,1772 2,1772 Z M122,1772 C123.104569,1772 124,1772.89543 124,1774 C124,1775.10457 123.104569,1776 122,1776 C120.895431,1776 120,1775.10457 120,1774 C120,1772.89543 120.895431,1772 122,1772 Z M230,1772 C231.104569,1772 232,1772.89543 232,1774 C232,1775.10457 231.104569,1776 230,1776 C228.895431,1776 228,1775.10457 228,1774 C228,1772.89543 228.895431,1772 230,1772 Z M206,1772 C207.104569,1772 208,1772.89543 208,1774 C208,1775.10457 207.104569,1776 206,1776 C204.895431,1776 204,1775.10457 204,1774 C204,1772.89543 204.895431,1772 206,1772 Z M38,1772 C39.1045695,1772 40,1772.89543 40,1774 C40,1775.10457 39.1045695,1776 38,1776 C36.8954305,1776 36,1775.10457 36,1774 C36,1772.89543 36.8954305,1772 38,1772 Z M182,1772 C183.104569,1772 184,1772.89543 184,1774 C184,1775.10457 183.104569,1776 182,1776 C180.895431,1776 180,1775.10457 180,1774 C180,1772.89543 180.895431,1772 182,1772 Z M110,1772 C111.104569,1772 112,1772.89543 112,1774 C112,1775.10457 111.104569,1776 110,1776 C108.895431,1776 108,1775.10457 108,1774 C108,1772.89543 108.895431,1772 110,1772 Z M14,1772 C15.1045695,1772 16,1772.89543 16,1774 C16,1775.10457 15.1045695,1776 14,1776 C12.8954305,1776 12,1775.10457 12,1774 C12,1772.89543 12.8954305,1772 14,1772 Z M26,1772 C27.1045695,1772 28,1772.89543 28,1774 C28,1775.10457 27.1045695,1776 26,1776 C24.8954305,1776 24,1775.10457 24,1774 C24,1772.89543 24.8954305,1772 26,1772 Z M194,1772 C195.104569,1772 196,1772.89543 196,1774 C196,1775.10457 195.104569,1776 194,1776 C192.895431,1776 192,1775.10457 192,1774 C192,1772.89543 192.895431,1772 194,1772 Z M170,1772 C171.104569,1772 172,1772.89543 172,1774 C172,1775.10457 171.104569,1776 170,1776 C168.895431,1776 168,1775.10457 168,1774 C168,1772.89543 168.895431,1772 170,1772 Z M134,1772 C135.104569,1772 136,1772.89543 136,1774 C136,1775.10457 135.104569,1776 134,1776 C132.895431,1776 132,1775.10457 132,1774 C132,1772.89543 132.895431,1772 134,1772 Z M158,1772 C159.104569,1772 160,1772.89543 160,1774 C160,1775.10457 159.104569,1776 158,1776 C156.895431,1776 156,1775.10457 156,1774 C156,1772.89543 156.895431,1772 158,1772 Z M194,1760 C195.104569,1760 196,1760.89543 196,1762 C196,1763.10457 195.104569,1764 194,1764 C192.895431,1764 192,1763.10457 192,1762 C192,1760.89543 192.895431,1760 194,1760 Z M62,1760 C63.1045695,1760 64,1760.89543 64,1762 C64,1763.10457 63.1045695,1764 62,1764 C60.8954305,1764 60,1763.10457 60,1762 C60,1760.89543 60.8954305,1760 62,1760 Z M218,1760 C219.104569,1760 220,1760.89543 220,1762 C220,1763.10457 219.104569,1764 218,1764 C216.895431,1764 216,1763.10457 216,1762 C216,1760.89543 216.895431,1760 218,1760 Z M14,1760 C15.1045695,1760 16,1760.89543 16,1762 C16,1763.10457 15.1045695,1764 14,1764 C12.8954305,1764 12,1763.10457 12,1762 C12,1760.89543 12.8954305,1760 14,1760 Z M122,1760 C123.104569,1760 124,1760.89543 124,1762 C124,1763.10457 123.104569,1764 122,1764 C120.895431,1764 120,1763.10457 120,1762 C120,1760.89543 120.895431,1760 122,1760 Z M230,1760 C231.104569,1760 232,1760.89543 232,1762 C232,1763.10457 231.104569,1764 230,1764 C228.895431,1764 228,1763.10457 228,1762 C228,1760.89543 228.895431,1760 230,1760 Z M206,1760 C207.104569,1760 208,1760.89543 208,1762 C208,1763.10457 207.104569,1764 206,1764 C204.895431,1764 204,1763.10457 204,1762 C204,1760.89543 204.895431,1760 206,1760 Z M158,1760 C159.104569,1760 160,1760.89543 160,1762 C160,1763.10457 159.104569,1764 158,1764 C156.895431,1764 156,1763.10457 156,1762 C156,1760.89543 156.895431,1760 158,1760 Z M38,1760 C39.1045695,1760 40,1760.89543 40,1762 C40,1763.10457 39.1045695,1764 38,1764 C36.8954305,1764 36,1763.10457 36,1762 C36,1760.89543 36.8954305,1760 38,1760 Z M50,1760 C51.1045695,1760 52,1760.89543 52,1762 C52,1763.10457 51.1045695,1764 50,1764 C48.8954305,1764 48,1763.10457 48,1762 C48,1760.89543 48.8954305,1760 50,1760 Z M26,1760 C27.1045695,1760 28,1760.89543 28,1762 C28,1763.10457 27.1045695,1764 26,1764 C24.8954305,1764 24,1763.10457 24,1762 C24,1760.89543 24.8954305,1760 26,1760 Z M98,1760 C99.1045695,1760 100,1760.89543 100,1762 C100,1763.10457 99.1045695,1764 98,1764 C96.8954305,1764 96,1763.10457 96,1762 C96,1760.89543 96.8954305,1760 98,1760 Z M146,1760 C147.104569,1760 148,1760.89543 148,1762 C148,1763.10457 147.104569,1764 146,1764 C144.895431,1764 144,1763.10457 144,1762 C144,1760.89543 144.895431,1760 146,1760 Z M74,1760 C75.1045695,1760 76,1760.89543 76,1762 C76,1763.10457 75.1045695,1764 74,1764 C72.8954305,1764 72,1763.10457 72,1762 C72,1760.89543 72.8954305,1760 74,1760 Z M110,1760 C111.104569,1760 112,1760.89543 112,1762 C112,1763.10457 111.104569,1764 110,1764 C108.895431,1764 108,1763.10457 108,1762 C108,1760.89543 108.895431,1760 110,1760 Z M2,1760 C3.1045695,1760 4,1760.89543 4,1762 C4,1763.10457 3.1045695,1764 2,1764 C0.8954305,1764 0,1763.10457 0,1762 C0,1760.89543 0.8954305,1760 2,1760 Z M134,1760 C135.104569,1760 136,1760.89543 136,1762 C136,1763.10457 135.104569,1764 134,1764 C132.895431,1764 132,1763.10457 132,1762 C132,1760.89543 132.895431,1760 134,1760 Z M122,1748 C123.104569,1748 124,1748.89543 124,1750 C124,1751.10457 123.104569,1752 122,1752 C120.895431,1752 120,1751.10457 120,1750 C120,1748.89543 120.895431,1748 122,1748 Z M74,1748 C75.1045695,1748 76,1748.89543 76,1750 C76,1751.10457 75.1045695,1752 74,1752 C72.8954305,1752 72,1751.10457 72,1750 C72,1748.89543 72.8954305,1748 74,1748 Z M146,1748 C147.104569,1748 148,1748.89543 148,1750 C148,1751.10457 147.104569,1752 146,1752 C144.895431,1752 144,1751.10457 144,1750 C144,1748.89543 144.895431,1748 146,1748 Z M194,1748 C195.104569,1748 196,1748.89543 196,1750 C196,1751.10457 195.104569,1752 194,1752 C192.895431,1752 192,1751.10457 192,1750 C192,1748.89543 192.895431,1748 194,1748 Z M134,1748 C135.104569,1748 136,1748.89543 136,1750 C136,1751.10457 135.104569,1752 134,1752 C132.895431,1752 132,1751.10457 132,1750 C132,1748.89543 132.895431,1748 134,1748 Z M2,1748 C3.1045695,1748 4,1748.89543 4,1750 C4,1751.10457 3.1045695,1752 2,1752 C0.8954305,1752 0,1751.10457 0,1750 C0,1748.89543 0.8954305,1748 2,1748 Z M182,1748 C183.104569,1748 184,1748.89543 184,1750 C184,1751.10457 183.104569,1752 182,1752 C180.895431,1752 180,1751.10457 180,1750 C180,1748.89543 180.895431,1748 182,1748 Z M206,1748 C207.104569,1748 208,1748.89543 208,1750 C208,1751.10457 207.104569,1752 206,1752 C204.895431,1752 204,1751.10457 204,1750 C204,1748.89543 204.895431,1748 206,1748 Z M86,1748 C87.1045695,1748 88,1748.89543 88,1750 C88,1751.10457 87.1045695,1752 86,1752 C84.8954305,1752 84,1751.10457 84,1750 C84,1748.89543 84.8954305,1748 86,1748 Z M230,1748 C231.104569,1748 232,1748.89543 232,1750 C232,1751.10457 231.104569,1752 230,1752 C228.895431,1752 228,1751.10457 228,1750 C228,1748.89543 228.895431,1748 230,1748 Z M38,1748 C39.1045695,1748 40,1748.89543 40,1750 C40,1751.10457 39.1045695,1752 38,1752 C36.8954305,1752 36,1751.10457 36,1750 C36,1748.89543 36.8954305,1748 38,1748 Z M62,1748 C63.1045695,1748 64,1748.89543 64,1750 C64,1751.10457 63.1045695,1752 62,1752 C60.8954305,1752 60,1751.10457 60,1750 C60,1748.89543 60.8954305,1748 62,1748 Z M98,1748 C99.1045695,1748 100,1748.89543 100,1750 C100,1751.10457 99.1045695,1752 98,1752 C96.8954305,1752 96,1751.10457 96,1750 C96,1748.89543 96.8954305,1748 98,1748 Z M50,1748 C51.1045695,1748 52,1748.89543 52,1750 C52,1751.10457 51.1045695,1752 50,1752 C48.8954305,1752 48,1751.10457 48,1750 C48,1748.89543 48.8954305,1748 50,1748 Z M14,1748 C15.1045695,1748 16,1748.89543 16,1750 C16,1751.10457 15.1045695,1752 14,1752 C12.8954305,1752 12,1751.10457 12,1750 C12,1748.89543 12.8954305,1748 14,1748 Z M170,1748 C171.104569,1748 172,1748.89543 172,1750 C172,1751.10457 171.104569,1752 170,1752 C168.895431,1752 168,1751.10457 168,1750 C168,1748.89543 168.895431,1748 170,1748 Z M110,1748 C111.104569,1748 112,1748.89543 112,1750 C112,1751.10457 111.104569,1752 110,1752 C108.895431,1752 108,1751.10457 108,1750 C108,1748.89543 108.895431,1748 110,1748 Z M218,1748 C219.104569,1748 220,1748.89543 220,1750 C220,1751.10457 219.104569,1752 218,1752 C216.895431,1752 216,1751.10457 216,1750 C216,1748.89543 216.895431,1748 218,1748 Z M158,1748 C159.104569,1748 160,1748.89543 160,1750 C160,1751.10457 159.104569,1752 158,1752 C156.895431,1752 156,1751.10457 156,1750 C156,1748.89543 156.895431,1748 158,1748 Z M26,1748 C27.1045695,1748 28,1748.89543 28,1750 C28,1751.10457 27.1045695,1752 26,1752 C24.8954305,1752 24,1751.10457 24,1750 C24,1748.89543 24.8954305,1748 26,1748 Z M26,1736 C27.1045695,1736 28,1736.89543 28,1738 C28,1739.10457 27.1045695,1740 26,1740 C24.8954305,1740 24,1739.10457 24,1738 C24,1736.89543 24.8954305,1736 26,1736 Z M146,1736 C147.104569,1736 148,1736.89543 148,1738 C148,1739.10457 147.104569,1740 146,1740 C144.895431,1740 144,1739.10457 144,1738 C144,1736.89543 144.895431,1736 146,1736 Z M50,1736 C51.1045695,1736 52,1736.89543 52,1738 C52,1739.10457 51.1045695,1740 50,1740 C48.8954305,1740 48,1739.10457 48,1738 C48,1736.89543 48.8954305,1736 50,1736 Z M170,1736 C171.104569,1736 172,1736.89543 172,1738 C172,1739.10457 171.104569,1740 170,1740 C168.895431,1740 168,1739.10457 168,1738 C168,1736.89543 168.895431,1736 170,1736 Z M182,1736 C183.104569,1736 184,1736.89543 184,1738 C184,1739.10457 183.104569,1740 182,1740 C180.895431,1740 180,1739.10457 180,1738 C180,1736.89543 180.895431,1736 182,1736 Z M158,1736 C159.104569,1736 160,1736.89543 160,1738 C160,1739.10457 159.104569,1740 158,1740 C156.895431,1740 156,1739.10457 156,1738 C156,1736.89543 156.895431,1736 158,1736 Z M86,1736 C87.1045695,1736 88,1736.89543 88,1738 C88,1739.10457 87.1045695,1740 86,1740 C84.8954305,1740 84,1739.10457 84,1738 C84,1736.89543 84.8954305,1736 86,1736 Z M38,1736 C39.1045695,1736 40,1736.89543 40,1738 C40,1739.10457 39.1045695,1740 38,1740 C36.8954305,1740 36,1739.10457 36,1738 C36,1736.89543 36.8954305,1736 38,1736 Z M98,1736 C99.1045695,1736 100,1736.89543 100,1738 C100,1739.10457 99.1045695,1740 98,1740 C96.8954305,1740 96,1739.10457 96,1738 C96,1736.89543 96.8954305,1736 98,1736 Z M206,1736 C207.104569,1736 208,1736.89543 208,1738 C208,1739.10457 207.104569,1740 206,1740 C204.895431,1740 204,1739.10457 204,1738 C204,1736.89543 204.895431,1736 206,1736 Z M134,1736 C135.104569,1736 136,1736.89543 136,1738 C136,1739.10457 135.104569,1740 134,1740 C132.895431,1740 132,1739.10457 132,1738 C132,1736.89543 132.895431,1736 134,1736 Z M74,1736 C75.1045695,1736 76,1736.89543 76,1738 C76,1739.10457 75.1045695,1740 74,1740 C72.8954305,1740 72,1739.10457 72,1738 C72,1736.89543 72.8954305,1736 74,1736 Z M98,1724 C99.1045695,1724 100,1724.89543 100,1726 C100,1727.10457 99.1045695,1728 98,1728 C96.8954305,1728 96,1727.10457 96,1726 C96,1724.89543 96.8954305,1724 98,1724 Z M182,1724 C183.104569,1724 184,1724.89543 184,1726 C184,1727.10457 183.104569,1728 182,1728 C180.895431,1728 180,1727.10457 180,1726 C180,1724.89543 180.895431,1724 182,1724 Z M194,1724 C195.104569,1724 196,1724.89543 196,1726 C196,1727.10457 195.104569,1728 194,1728 C192.895431,1728 192,1727.10457 192,1726 C192,1724.89543 192.895431,1724 194,1724 Z M110,1724 C111.104569,1724 112,1724.89543 112,1726 C112,1727.10457 111.104569,1728 110,1728 C108.895431,1728 108,1727.10457 108,1726 C108,1724.89543 108.895431,1724 110,1724 Z M86,1724 C87.1045695,1724 88,1724.89543 88,1726 C88,1727.10457 87.1045695,1728 86,1728 C84.8954305,1728 84,1727.10457 84,1726 C84,1724.89543 84.8954305,1724 86,1724 Z M206,1724 C207.104569,1724 208,1724.89543 208,1726 C208,1727.10457 207.104569,1728 206,1728 C204.895431,1728 204,1727.10457 204,1726 C204,1724.89543 204.895431,1724 206,1724 Z M170,1724 C171.104569,1724 172,1724.89543 172,1726 C172,1727.10457 171.104569,1728 170,1728 C168.895431,1728 168,1727.10457 168,1726 C168,1724.89543 168.895431,1724 170,1724 Z M50,1724 C51.1045695,1724 52,1724.89543 52,1726 C52,1727.10457 51.1045695,1728 50,1728 C48.8954305,1728 48,1727.10457 48,1726 C48,1724.89543 48.8954305,1724 50,1724 Z M2,1724 C3.1045695,1724 4,1724.89543 4,1726 C4,1727.10457 3.1045695,1728 2,1728 C0.8954305,1728 0,1727.10457 0,1726 C0,1724.89543 0.8954305,1724 2,1724 Z M14,1724 C15.1045695,1724 16,1724.89543 16,1726 C16,1727.10457 15.1045695,1728 14,1728 C12.8954305,1728 12,1727.10457 12,1726 C12,1724.89543 12.8954305,1724 14,1724 Z M38,1724 C39.1045695,1724 40,1724.89543 40,1726 C40,1727.10457 39.1045695,1728 38,1728 C36.8954305,1728 36,1727.10457 36,1726 C36,1724.89543 36.8954305,1724 38,1724 Z M122,1724 C123.104569,1724 124,1724.89543 124,1726 C124,1727.10457 123.104569,1728 122,1728 C120.895431,1728 120,1727.10457 120,1726 C120,1724.89543 120.895431,1724 122,1724 Z M146,1724 C147.104569,1724 148,1724.89543 148,1726 C148,1727.10457 147.104569,1728 146,1728 C144.895431,1728 144,1727.10457 144,1726 C144,1724.89543 144.895431,1724 146,1724 Z M158,1724 C159.104569,1724 160,1724.89543 160,1726 C160,1727.10457 159.104569,1728 158,1728 C156.895431,1728 156,1727.10457 156,1726 C156,1724.89543 156.895431,1724 158,1724 Z M62,1724 C63.1045695,1724 64,1724.89543 64,1726 C64,1727.10457 63.1045695,1728 62,1728 C60.8954305,1728 60,1727.10457 60,1726 C60,1724.89543 60.8954305,1724 62,1724 Z M74,1724 C75.1045695,1724 76,1724.89543 76,1726 C76,1727.10457 75.1045695,1728 74,1728 C72.8954305,1728 72,1727.10457 72,1726 C72,1724.89543 72.8954305,1724 74,1724 Z M74,1712 C75.1045695,1712 76,1712.89543 76,1714 C76,1715.10457 75.1045695,1716 74,1716 C72.8954305,1716 72,1715.10457 72,1714 C72,1712.89543 72.8954305,1712 74,1712 Z M26,1712 C27.1045695,1712 28,1712.89543 28,1714 C28,1715.10457 27.1045695,1716 26,1716 C24.8954305,1716 24,1715.10457 24,1714 C24,1712.89543 24.8954305,1712 26,1712 Z M206,1712 C207.104569,1712 208,1712.89543 208,1714 C208,1715.10457 207.104569,1716 206,1716 C204.895431,1716 204,1715.10457 204,1714 C204,1712.89543 204.895431,1712 206,1712 Z M50,1712 C51.1045695,1712 52,1712.89543 52,1714 C52,1715.10457 51.1045695,1716 50,1716 C48.8954305,1716 48,1715.10457 48,1714 C48,1712.89543 48.8954305,1712 50,1712 Z M146,1712 C147.104569,1712 148,1712.89543 148,1714 C148,1715.10457 147.104569,1716 146,1716 C144.895431,1716 144,1715.10457 144,1714 C144,1712.89543 144.895431,1712 146,1712 Z M110,1712 C111.104569,1712 112,1712.89543 112,1714 C112,1715.10457 111.104569,1716 110,1716 C108.895431,1716 108,1715.10457 108,1714 C108,1712.89543 108.895431,1712 110,1712 Z M38,1712 C39.1045695,1712 40,1712.89543 40,1714 C40,1715.10457 39.1045695,1716 38,1716 C36.8954305,1716 36,1715.10457 36,1714 C36,1712.89543 36.8954305,1712 38,1712 Z M122,1712 C123.104569,1712 124,1712.89543 124,1714 C124,1715.10457 123.104569,1716 122,1716 C120.895431,1716 120,1715.10457 120,1714 C120,1712.89543 120.895431,1712 122,1712 Z M14,1712 C15.1045695,1712 16,1712.89543 16,1714 C16,1715.10457 15.1045695,1716 14,1716 C12.8954305,1716 12,1715.10457 12,1714 C12,1712.89543 12.8954305,1712 14,1712 Z M134,1712 C135.104569,1712 136,1712.89543 136,1714 C136,1715.10457 135.104569,1716 134,1716 C132.895431,1716 132,1715.10457 132,1714 C132,1712.89543 132.895431,1712 134,1712 Z M194,1712 C195.104569,1712 196,1712.89543 196,1714 C196,1715.10457 195.104569,1716 194,1716 C192.895431,1716 192,1715.10457 192,1714 C192,1712.89543 192.895431,1712 194,1712 Z M86,1712 C87.1045695,1712 88,1712.89543 88,1714 C88,1715.10457 87.1045695,1716 86,1716 C84.8954305,1716 84,1715.10457 84,1714 C84,1712.89543 84.8954305,1712 86,1712 Z M98,1712 C99.1045695,1712 100,1712.89543 100,1714 C100,1715.10457 99.1045695,1716 98,1716 C96.8954305,1716 96,1715.10457 96,1714 C96,1712.89543 96.8954305,1712 98,1712 Z M2,1712 C3.1045695,1712 4,1712.89543 4,1714 C4,1715.10457 3.1045695,1716 2,1716 C0.8954305,1716 0,1715.10457 0,1714 C0,1712.89543 0.8954305,1712 2,1712 Z M170,1700 C171.104569,1700 172,1700.89543 172,1702 C172,1703.10457 171.104569,1704 170,1704 C168.895431,1704 168,1703.10457 168,1702 C168,1700.89543 168.895431,1700 170,1700 Z M146,1700 C147.104569,1700 148,1700.89543 148,1702 C148,1703.10457 147.104569,1704 146,1704 C144.895431,1704 144,1703.10457 144,1702 C144,1700.89543 144.895431,1700 146,1700 Z M86,1700 C87.1045695,1700 88,1700.89543 88,1702 C88,1703.10457 87.1045695,1704 86,1704 C84.8954305,1704 84,1703.10457 84,1702 C84,1700.89543 84.8954305,1700 86,1700 Z M2,1700 C3.1045695,1700 4,1700.89543 4,1702 C4,1703.10457 3.1045695,1704 2,1704 C0.8954305,1704 0,1703.10457 0,1702 C0,1700.89543 0.8954305,1700 2,1700 Z M14,1700 C15.1045695,1700 16,1700.89543 16,1702 C16,1703.10457 15.1045695,1704 14,1704 C12.8954305,1704 12,1703.10457 12,1702 C12,1700.89543 12.8954305,1700 14,1700 Z M74,1700 C75.1045695,1700 76,1700.89543 76,1702 C76,1703.10457 75.1045695,1704 74,1704 C72.8954305,1704 72,1703.10457 72,1702 C72,1700.89543 72.8954305,1700 74,1700 Z M50,1700 C51.1045695,1700 52,1700.89543 52,1702 C52,1703.10457 51.1045695,1704 50,1704 C48.8954305,1704 48,1703.10457 48,1702 C48,1700.89543 48.8954305,1700 50,1700 Z M38,1700 C39.1045695,1700 40,1700.89543 40,1702 C40,1703.10457 39.1045695,1704 38,1704 C36.8954305,1704 36,1703.10457 36,1702 C36,1700.89543 36.8954305,1700 38,1700 Z M26,1700 C27.1045695,1700 28,1700.89543 28,1702 C28,1703.10457 27.1045695,1704 26,1704 C24.8954305,1704 24,1703.10457 24,1702 C24,1700.89543 24.8954305,1700 26,1700 Z M98,1700 C99.1045695,1700 100,1700.89543 100,1702 C100,1703.10457 99.1045695,1704 98,1704 C96.8954305,1704 96,1703.10457 96,1702 C96,1700.89543 96.8954305,1700 98,1700 Z M134,1700 C135.104569,1700 136,1700.89543 136,1702 C136,1703.10457 135.104569,1704 134,1704 C132.895431,1704 132,1703.10457 132,1702 C132,1700.89543 132.895431,1700 134,1700 Z M2,1688 C3.1045695,1688 4,1688.89543 4,1690 C4,1691.10457 3.1045695,1692 2,1692 C0.8954305,1692 0,1691.10457 0,1690 C0,1688.89543 0.8954305,1688 2,1688 Z M14,1688 C15.1045695,1688 16,1688.89543 16,1690 C16,1691.10457 15.1045695,1692 14,1692 C12.8954305,1692 12,1691.10457 12,1690 C12,1688.89543 12.8954305,1688 14,1688 Z M26,1688 C27.1045695,1688 28,1688.89543 28,1690 C28,1691.10457 27.1045695,1692 26,1692 C24.8954305,1692 24,1691.10457 24,1690 C24,1688.89543 24.8954305,1688 26,1688 Z M74,1688 C75.1045695,1688 76,1688.89543 76,1690 C76,1691.10457 75.1045695,1692 74,1692 C72.8954305,1692 72,1691.10457 72,1690 C72,1688.89543 72.8954305,1688 74,1688 Z M86,1688 C87.1045695,1688 88,1688.89543 88,1690 C88,1691.10457 87.1045695,1692 86,1692 C84.8954305,1692 84,1691.10457 84,1690 C84,1688.89543 84.8954305,1688 86,1688 Z M98,1688 C99.1045695,1688 100,1688.89543 100,1690 C100,1691.10457 99.1045695,1692 98,1692 C96.8954305,1692 96,1691.10457 96,1690 C96,1688.89543 96.8954305,1688 98,1688 Z M134,1688 C135.104569,1688 136,1688.89543 136,1690 C136,1691.10457 135.104569,1692 134,1692 C132.895431,1692 132,1691.10457 132,1690 C132,1688.89543 132.895431,1688 134,1688 Z M146,1688 C147.104569,1688 148,1688.89543 148,1690 C148,1691.10457 147.104569,1692 146,1692 C144.895431,1692 144,1691.10457 144,1690 C144,1688.89543 144.895431,1688 146,1688 Z M158,1688 C159.104569,1688 160,1688.89543 160,1690 C160,1691.10457 159.104569,1692 158,1692 C156.895431,1692 156,1691.10457 156,1690 C156,1688.89543 156.895431,1688 158,1688 Z M14,1676 C15.1045695,1676 16,1676.89543 16,1678 C16,1679.10457 15.1045695,1680 14,1680 C12.8954305,1680 12,1679.10457 12,1678 C12,1676.89543 12.8954305,1676 14,1676 Z M26,1676 C27.1045695,1676 28,1676.89543 28,1678 C28,1679.10457 27.1045695,1680 26,1680 C24.8954305,1680 24,1679.10457 24,1678 C24,1676.89543 24.8954305,1676 26,1676 Z M74,1676 C75.1045695,1676 76,1676.89543 76,1678 C76,1679.10457 75.1045695,1680 74,1680 C72.8954305,1680 72,1679.10457 72,1678 C72,1676.89543 72.8954305,1676 74,1676 Z M86,1676 C87.1045695,1676 88,1676.89543 88,1678 C88,1679.10457 87.1045695,1680 86,1680 C84.8954305,1680 84,1679.10457 84,1678 C84,1676.89543 84.8954305,1676 86,1676 Z M98,1676 C99.1045695,1676 100,1676.89543 100,1678 C100,1679.10457 99.1045695,1680 98,1680 C96.8954305,1680 96,1679.10457 96,1678 C96,1676.89543 96.8954305,1676 98,1676 Z" id="Combined-Shape-Copy-2" stroke="#E5E9F7" mask="url(#mask-2)"></path>
        <path d="M1316,2436 C1317.10457,2436 1318,2436.89543 1318,2438 C1318,2439.10457 1317.10457,2440 1316,2440 C1314.89543,2440 1314,2439.10457 1314,2438 C1314,2436.89543 1314.89543,2436 1316,2436 Z M1352,2436 C1353.10457,2436 1354,2436.89543 1354,2438 C1354,2439.10457 1353.10457,2440 1352,2440 C1350.89543,2440 1350,2439.10457 1350,2438 C1350,2436.89543 1350.89543,2436 1352,2436 Z M1364,2436 C1365.10457,2436 1366,2436.89543 1366,2438 C1366,2439.10457 1365.10457,2440 1364,2440 C1362.89543,2440 1362,2439.10457 1362,2438 C1362,2436.89543 1362.89543,2436 1364,2436 Z M1484,2436 C1485.10457,2436 1486,2436.89543 1486,2438 C1486,2439.10457 1485.10457,2440 1484,2440 C1482.89543,2440 1482,2439.10457 1482,2438 C1482,2436.89543 1482.89543,2436 1484,2436 Z M1496,2424 C1497.10457,2424 1498,2424.89543 1498,2426 C1498,2427.10457 1497.10457,2428 1496,2428 C1494.89543,2428 1494,2427.10457 1494,2426 C1494,2424.89543 1494.89543,2424 1496,2424 Z M1352,2424 C1353.10457,2424 1354,2424.89543 1354,2426 C1354,2427.10457 1353.10457,2428 1352,2428 C1350.89543,2428 1350,2427.10457 1350,2426 C1350,2424.89543 1350.89543,2424 1352,2424 Z M1364,2424 C1365.10457,2424 1366,2424.89543 1366,2426 C1366,2427.10457 1365.10457,2428 1364,2428 C1362.89543,2428 1362,2427.10457 1362,2426 C1362,2424.89543 1362.89543,2424 1364,2424 Z M1436,2424 C1437.10457,2424 1438,2424.89543 1438,2426 C1438,2427.10457 1437.10457,2428 1436,2428 C1434.89543,2428 1434,2427.10457 1434,2426 C1434,2424.89543 1434.89543,2424 1436,2424 Z M1448,2424 C1449.10457,2424 1450,2424.89543 1450,2426 C1450,2427.10457 1449.10457,2428 1448,2428 C1446.89543,2428 1446,2427.10457 1446,2426 C1446,2424.89543 1446.89543,2424 1448,2424 Z M1484,2412 C1485.10457,2412 1486,2412.89543 1486,2414 C1486,2415.10457 1485.10457,2416 1484,2416 C1482.89543,2416 1482,2415.10457 1482,2414 C1482,2412.89543 1482.89543,2412 1484,2412 Z M1496,2412 C1497.10457,2412 1498,2412.89543 1498,2414 C1498,2415.10457 1497.10457,2416 1496,2416 C1494.89543,2416 1494,2415.10457 1494,2414 C1494,2412.89543 1494.89543,2412 1496,2412 Z M1304,2412 C1305.10457,2412 1306,2412.89543 1306,2414 C1306,2415.10457 1305.10457,2416 1304,2416 C1302.89543,2416 1302,2415.10457 1302,2414 C1302,2412.89543 1302.89543,2412 1304,2412 Z M1352,2412 C1353.10457,2412 1354,2412.89543 1354,2414 C1354,2415.10457 1353.10457,2416 1352,2416 C1350.89543,2416 1350,2415.10457 1350,2414 C1350,2412.89543 1350.89543,2412 1352,2412 Z M1364,2412 C1365.10457,2412 1366,2412.89543 1366,2414 C1366,2415.10457 1365.10457,2416 1364,2416 C1362.89543,2416 1362,2415.10457 1362,2414 C1362,2412.89543 1362.89543,2412 1364,2412 Z M1376,2412 C1377.10457,2412 1378,2412.89543 1378,2414 C1378,2415.10457 1377.10457,2416 1376,2416 C1374.89543,2416 1374,2415.10457 1374,2414 C1374,2412.89543 1374.89543,2412 1376,2412 Z M1388,2412 C1389.10457,2412 1390,2412.89543 1390,2414 C1390,2415.10457 1389.10457,2416 1388,2416 C1386.89543,2416 1386,2415.10457 1386,2414 C1386,2412.89543 1386.89543,2412 1388,2412 Z M1412,2412 C1413.10457,2412 1414,2412.89543 1414,2414 C1414,2415.10457 1413.10457,2416 1412,2416 C1410.89543,2416 1410,2415.10457 1410,2414 C1410,2412.89543 1410.89543,2412 1412,2412 Z M1424,2412 C1425.10457,2412 1426,2412.89543 1426,2414 C1426,2415.10457 1425.10457,2416 1424,2416 C1422.89543,2416 1422,2415.10457 1422,2414 C1422,2412.89543 1422.89543,2412 1424,2412 Z M1436,2412 C1437.10457,2412 1438,2412.89543 1438,2414 C1438,2415.10457 1437.10457,2416 1436,2416 C1434.89543,2416 1434,2415.10457 1434,2414 C1434,2412.89543 1434.89543,2412 1436,2412 Z M1460,2412 C1461.10457,2412 1462,2412.89543 1462,2414 C1462,2415.10457 1461.10457,2416 1460,2416 C1458.89543,2416 1458,2415.10457 1458,2414 C1458,2412.89543 1458.89543,2412 1460,2412 Z M1472,2400 C1473.10457,2400 1474,2400.89543 1474,2402 C1474,2403.10457 1473.10457,2404 1472,2404 C1470.89543,2404 1470,2403.10457 1470,2402 C1470,2400.89543 1470.89543,2400 1472,2400 Z M1496,2400 C1497.10457,2400 1498,2400.89543 1498,2402 C1498,2403.10457 1497.10457,2404 1496,2404 C1494.89543,2404 1494,2403.10457 1494,2402 C1494,2400.89543 1494.89543,2400 1496,2400 Z M1304,2400 C1305.10457,2400 1306,2400.89543 1306,2402 C1306,2403.10457 1305.10457,2404 1304,2404 C1302.89543,2404 1302,2403.10457 1302,2402 C1302,2400.89543 1302.89543,2400 1304,2400 Z M1316,2400 C1317.10457,2400 1318,2400.89543 1318,2402 C1318,2403.10457 1317.10457,2404 1316,2404 C1314.89543,2404 1314,2403.10457 1314,2402 C1314,2400.89543 1314.89543,2400 1316,2400 Z M1352,2400 C1353.10457,2400 1354,2400.89543 1354,2402 C1354,2403.10457 1353.10457,2404 1352,2404 C1350.89543,2404 1350,2403.10457 1350,2402 C1350,2400.89543 1350.89543,2400 1352,2400 Z M1376,2400 C1377.10457,2400 1378,2400.89543 1378,2402 C1378,2403.10457 1377.10457,2404 1376,2404 C1374.89543,2404 1374,2403.10457 1374,2402 C1374,2400.89543 1374.89543,2400 1376,2400 Z M1400,2400 C1401.10457,2400 1402,2400.89543 1402,2402 C1402,2403.10457 1401.10457,2404 1400,2404 C1398.89543,2404 1398,2403.10457 1398,2402 C1398,2400.89543 1398.89543,2400 1400,2400 Z M1412,2400 C1413.10457,2400 1414,2400.89543 1414,2402 C1414,2403.10457 1413.10457,2404 1412,2404 C1410.89543,2404 1410,2403.10457 1410,2402 C1410,2400.89543 1410.89543,2400 1412,2400 Z M1424,2400 C1425.10457,2400 1426,2400.89543 1426,2402 C1426,2403.10457 1425.10457,2404 1424,2404 C1422.89543,2404 1422,2403.10457 1422,2402 C1422,2400.89543 1422.89543,2400 1424,2400 Z M1436,2400 C1437.10457,2400 1438,2400.89543 1438,2402 C1438,2403.10457 1437.10457,2404 1436,2404 C1434.89543,2404 1434,2403.10457 1434,2402 C1434,2400.89543 1434.89543,2400 1436,2400 Z M1460,2400 C1461.10457,2400 1462,2400.89543 1462,2402 C1462,2403.10457 1461.10457,2404 1460,2404 C1458.89543,2404 1458,2403.10457 1458,2402 C1458,2400.89543 1458.89543,2400 1460,2400 Z M1496,2388 C1497.10457,2388 1498,2388.89543 1498,2390 C1498,2391.10457 1497.10457,2392 1496,2392 C1494.89543,2392 1494,2391.10457 1494,2390 C1494,2388.89543 1494.89543,2388 1496,2388 Z M1448,2388 C1449.10457,2388 1450,2388.89543 1450,2390 C1450,2391.10457 1449.10457,2392 1448,2392 C1446.89543,2392 1446,2391.10457 1446,2390 C1446,2388.89543 1446.89543,2388 1448,2388 Z M1460,2388 C1461.10457,2388 1462,2388.89543 1462,2390 C1462,2391.10457 1461.10457,2392 1460,2392 C1458.89543,2392 1458,2391.10457 1458,2390 C1458,2388.89543 1458.89543,2388 1460,2388 Z M1472,2388 C1473.10457,2388 1474,2388.89543 1474,2390 C1474,2391.10457 1473.10457,2392 1472,2392 C1470.89543,2392 1470,2391.10457 1470,2390 C1470,2388.89543 1470.89543,2388 1472,2388 Z M1484,2388 C1485.10457,2388 1486,2388.89543 1486,2390 C1486,2391.10457 1485.10457,2392 1484,2392 C1482.89543,2392 1482,2391.10457 1482,2390 C1482,2388.89543 1482.89543,2388 1484,2388 Z M1436,2388 C1437.10457,2388 1438,2388.89543 1438,2390 C1438,2391.10457 1437.10457,2392 1436,2392 C1434.89543,2392 1434,2391.10457 1434,2390 C1434,2388.89543 1434.89543,2388 1436,2388 Z M1292,2388 C1293.10457,2388 1294,2388.89543 1294,2390 C1294,2391.10457 1293.10457,2392 1292,2392 C1290.89543,2392 1290,2391.10457 1290,2390 C1290,2388.89543 1290.89543,2388 1292,2388 Z M1316,2388 C1317.10457,2388 1318,2388.89543 1318,2390 C1318,2391.10457 1317.10457,2392 1316,2392 C1314.89543,2392 1314,2391.10457 1314,2390 C1314,2388.89543 1314.89543,2388 1316,2388 Z M1328,2388 C1329.10457,2388 1330,2388.89543 1330,2390 C1330,2391.10457 1329.10457,2392 1328,2392 C1326.89543,2392 1326,2391.10457 1326,2390 C1326,2388.89543 1326.89543,2388 1328,2388 Z M1340,2388 C1341.10457,2388 1342,2388.89543 1342,2390 C1342,2391.10457 1341.10457,2392 1340,2392 C1338.89543,2392 1338,2391.10457 1338,2390 C1338,2388.89543 1338.89543,2388 1340,2388 Z M1364,2388 C1365.10457,2388 1366,2388.89543 1366,2390 C1366,2391.10457 1365.10457,2392 1364,2392 C1362.89543,2392 1362,2391.10457 1362,2390 C1362,2388.89543 1362.89543,2388 1364,2388 Z M1376,2388 C1377.10457,2388 1378,2388.89543 1378,2390 C1378,2391.10457 1377.10457,2392 1376,2392 C1374.89543,2392 1374,2391.10457 1374,2390 C1374,2388.89543 1374.89543,2388 1376,2388 Z M1400,2388 C1401.10457,2388 1402,2388.89543 1402,2390 C1402,2391.10457 1401.10457,2392 1400,2392 C1398.89543,2392 1398,2391.10457 1398,2390 C1398,2388.89543 1398.89543,2388 1400,2388 Z M1412,2388 C1413.10457,2388 1414,2388.89543 1414,2390 C1414,2391.10457 1413.10457,2392 1412,2392 C1410.89543,2392 1410,2391.10457 1410,2390 C1410,2388.89543 1410.89543,2388 1412,2388 Z M1424,2388 C1425.10457,2388 1426,2388.89543 1426,2390 C1426,2391.10457 1425.10457,2392 1424,2392 C1422.89543,2392 1422,2391.10457 1422,2390 C1422,2388.89543 1422.89543,2388 1424,2388 Z M1292,2376 C1293.10457,2376 1294,2376.89543 1294,2378 C1294,2379.10457 1293.10457,2380 1292,2380 C1290.89543,2380 1290,2379.10457 1290,2378 C1290,2376.89543 1290.89543,2376 1292,2376 Z M1304,2376 C1305.10457,2376 1306,2376.89543 1306,2378 C1306,2379.10457 1305.10457,2380 1304,2380 C1302.89543,2380 1302,2379.10457 1302,2378 C1302,2376.89543 1302.89543,2376 1304,2376 Z M1316,2376 C1317.10457,2376 1318,2376.89543 1318,2378 C1318,2379.10457 1317.10457,2380 1316,2380 C1314.89543,2380 1314,2379.10457 1314,2378 C1314,2376.89543 1314.89543,2376 1316,2376 Z M1436,2376 C1437.10457,2376 1438,2376.89543 1438,2378 C1438,2379.10457 1437.10457,2380 1436,2380 C1434.89543,2380 1434,2379.10457 1434,2378 C1434,2376.89543 1434.89543,2376 1436,2376 Z M1448,2376 C1449.10457,2376 1450,2376.89543 1450,2378 C1450,2379.10457 1449.10457,2380 1448,2380 C1446.89543,2380 1446,2379.10457 1446,2378 C1446,2376.89543 1446.89543,2376 1448,2376 Z M1460,2376 C1461.10457,2376 1462,2376.89543 1462,2378 C1462,2379.10457 1461.10457,2380 1460,2380 C1458.89543,2380 1458,2379.10457 1458,2378 C1458,2376.89543 1458.89543,2376 1460,2376 Z M1496,2376 C1497.10457,2376 1498,2376.89543 1498,2378 C1498,2379.10457 1497.10457,2380 1496,2380 C1494.89543,2380 1494,2379.10457 1494,2378 C1494,2376.89543 1494.89543,2376 1496,2376 Z M1280,2376 C1281.10457,2376 1282,2376.89543 1282,2378 C1282,2379.10457 1281.10457,2380 1280,2380 C1278.89543,2380 1278,2379.10457 1278,2378 C1278,2376.89543 1278.89543,2376 1280,2376 Z M1412,2376 C1413.10457,2376 1414,2376.89543 1414,2378 C1414,2379.10457 1413.10457,2380 1412,2380 C1410.89543,2380 1410,2379.10457 1410,2378 C1410,2376.89543 1410.89543,2376 1412,2376 Z M1424,2376 C1425.10457,2376 1426,2376.89543 1426,2378 C1426,2379.10457 1425.10457,2380 1424,2380 C1422.89543,2380 1422,2379.10457 1422,2378 C1422,2376.89543 1422.89543,2376 1424,2376 Z M1328,2376 C1329.10457,2376 1330,2376.89543 1330,2378 C1330,2379.10457 1329.10457,2380 1328,2380 C1326.89543,2380 1326,2379.10457 1326,2378 C1326,2376.89543 1326.89543,2376 1328,2376 Z M1340,2376 C1341.10457,2376 1342,2376.89543 1342,2378 C1342,2379.10457 1341.10457,2380 1340,2380 C1338.89543,2380 1338,2379.10457 1338,2378 C1338,2376.89543 1338.89543,2376 1340,2376 Z M1364,2376 C1365.10457,2376 1366,2376.89543 1366,2378 C1366,2379.10457 1365.10457,2380 1364,2380 C1362.89543,2380 1362,2379.10457 1362,2378 C1362,2376.89543 1362.89543,2376 1364,2376 Z M1376,2376 C1377.10457,2376 1378,2376.89543 1378,2378 C1378,2379.10457 1377.10457,2380 1376,2380 C1374.89543,2380 1374,2379.10457 1374,2378 C1374,2376.89543 1374.89543,2376 1376,2376 Z M1400,2376 C1401.10457,2376 1402,2376.89543 1402,2378 C1402,2379.10457 1401.10457,2380 1400,2380 C1398.89543,2380 1398,2379.10457 1398,2378 C1398,2376.89543 1398.89543,2376 1400,2376 Z M1304,2364 C1305.10457,2364 1306,2364.89543 1306,2366 C1306,2367.10457 1305.10457,2368 1304,2368 C1302.89543,2368 1302,2367.10457 1302,2366 C1302,2364.89543 1302.89543,2364 1304,2364 Z M1328,2364 C1329.10457,2364 1330,2364.89543 1330,2366 C1330,2367.10457 1329.10457,2368 1328,2368 C1326.89543,2368 1326,2367.10457 1326,2366 C1326,2364.89543 1326.89543,2364 1328,2364 Z M1376,2364 C1377.10457,2364 1378,2364.89543 1378,2366 C1378,2367.10457 1377.10457,2368 1376,2368 C1374.89543,2368 1374,2367.10457 1374,2366 C1374,2364.89543 1374.89543,2364 1376,2364 Z M1388,2364 C1389.10457,2364 1390,2364.89543 1390,2366 C1390,2367.10457 1389.10457,2368 1388,2368 C1386.89543,2368 1386,2367.10457 1386,2366 C1386,2364.89543 1386.89543,2364 1388,2364 Z M1400,2364 C1401.10457,2364 1402,2364.89543 1402,2366 C1402,2367.10457 1401.10457,2368 1400,2368 C1398.89543,2368 1398,2367.10457 1398,2366 C1398,2364.89543 1398.89543,2364 1400,2364 Z M1412,2364 C1413.10457,2364 1414,2364.89543 1414,2366 C1414,2367.10457 1413.10457,2368 1412,2368 C1410.89543,2368 1410,2367.10457 1410,2366 C1410,2364.89543 1410.89543,2364 1412,2364 Z M1364,2364 C1365.10457,2364 1366,2364.89543 1366,2366 C1366,2367.10457 1365.10457,2368 1364,2368 C1362.89543,2368 1362,2367.10457 1362,2366 C1362,2364.89543 1362.89543,2364 1364,2364 Z M1292,2364 C1293.10457,2364 1294,2364.89543 1294,2366 C1294,2367.10457 1293.10457,2368 1292,2368 C1290.89543,2368 1290,2367.10457 1290,2366 C1290,2364.89543 1290.89543,2364 1292,2364 Z M1436,2364 C1437.10457,2364 1438,2364.89543 1438,2366 C1438,2367.10457 1437.10457,2368 1436,2368 C1434.89543,2368 1434,2367.10457 1434,2366 C1434,2364.89543 1434.89543,2364 1436,2364 Z M1460,2364 C1461.10457,2364 1462,2364.89543 1462,2366 C1462,2367.10457 1461.10457,2368 1460,2368 C1458.89543,2368 1458,2367.10457 1458,2366 C1458,2364.89543 1458.89543,2364 1460,2364 Z M1268,2364 C1269.10457,2364 1270,2364.89543 1270,2366 C1270,2367.10457 1269.10457,2368 1268,2368 C1266.89543,2368 1266,2367.10457 1266,2366 C1266,2364.89543 1266.89543,2364 1268,2364 Z M1340,2364 C1341.10457,2364 1342,2364.89543 1342,2366 C1342,2367.10457 1341.10457,2368 1340,2368 C1338.89543,2368 1338,2367.10457 1338,2366 C1338,2364.89543 1338.89543,2364 1340,2364 Z M1352,2364 C1353.10457,2364 1354,2364.89543 1354,2366 C1354,2367.10457 1353.10457,2368 1352,2368 C1350.89543,2368 1350,2367.10457 1350,2366 C1350,2364.89543 1350.89543,2364 1352,2364 Z M1280,2364 C1281.10457,2364 1282,2364.89543 1282,2366 C1282,2367.10457 1281.10457,2368 1280,2368 C1278.89543,2368 1278,2367.10457 1278,2366 C1278,2364.89543 1278.89543,2364 1280,2364 Z M1424,2364 C1425.10457,2364 1426,2364.89543 1426,2366 C1426,2367.10457 1425.10457,2368 1424,2368 C1422.89543,2368 1422,2367.10457 1422,2366 C1422,2364.89543 1422.89543,2364 1424,2364 Z M1424,2352 C1425.10457,2352 1426,2352.89543 1426,2354 C1426,2355.10457 1425.10457,2356 1424,2356 C1422.89543,2356 1422,2355.10457 1422,2354 C1422,2352.89543 1422.89543,2352 1424,2352 Z M1436,2352 C1437.10457,2352 1438,2352.89543 1438,2354 C1438,2355.10457 1437.10457,2356 1436,2356 C1434.89543,2356 1434,2355.10457 1434,2354 C1434,2352.89543 1434.89543,2352 1436,2352 Z M1448,2352 C1449.10457,2352 1450,2352.89543 1450,2354 C1450,2355.10457 1449.10457,2356 1448,2356 C1446.89543,2356 1446,2355.10457 1446,2354 C1446,2352.89543 1446.89543,2352 1448,2352 Z M1280,2352 C1281.10457,2352 1282,2352.89543 1282,2354 C1282,2355.10457 1281.10457,2356 1280,2356 C1278.89543,2356 1278,2355.10457 1278,2354 C1278,2352.89543 1278.89543,2352 1280,2352 Z M1268,2352 C1269.10457,2352 1270,2352.89543 1270,2354 C1270,2355.10457 1269.10457,2356 1268,2356 C1266.89543,2356 1266,2355.10457 1266,2354 C1266,2352.89543 1266.89543,2352 1268,2352 Z M1340,2352 C1341.10457,2352 1342,2352.89543 1342,2354 C1342,2355.10457 1341.10457,2356 1340,2356 C1338.89543,2356 1338,2355.10457 1338,2354 C1338,2352.89543 1338.89543,2352 1340,2352 Z M1352,2352 C1353.10457,2352 1354,2352.89543 1354,2354 C1354,2355.10457 1353.10457,2356 1352,2356 C1350.89543,2356 1350,2355.10457 1350,2354 C1350,2352.89543 1350.89543,2352 1352,2352 Z M1364,2352 C1365.10457,2352 1366,2352.89543 1366,2354 C1366,2355.10457 1365.10457,2356 1364,2356 C1362.89543,2356 1362,2355.10457 1362,2354 C1362,2352.89543 1362.89543,2352 1364,2352 Z M1376,2352 C1377.10457,2352 1378,2352.89543 1378,2354 C1378,2355.10457 1377.10457,2356 1376,2356 C1374.89543,2356 1374,2355.10457 1374,2354 C1374,2352.89543 1374.89543,2352 1376,2352 Z M1388,2352 C1389.10457,2352 1390,2352.89543 1390,2354 C1390,2355.10457 1389.10457,2356 1388,2356 C1386.89543,2356 1386,2355.10457 1386,2354 C1386,2352.89543 1386.89543,2352 1388,2352 Z M1400,2352 C1401.10457,2352 1402,2352.89543 1402,2354 C1402,2355.10457 1401.10457,2356 1400,2356 C1398.89543,2356 1398,2355.10457 1398,2354 C1398,2352.89543 1398.89543,2352 1400,2352 Z M1460,2352 C1461.10457,2352 1462,2352.89543 1462,2354 C1462,2355.10457 1461.10457,2356 1460,2356 C1458.89543,2356 1458,2355.10457 1458,2354 C1458,2352.89543 1458.89543,2352 1460,2352 Z M1316,2352 C1317.10457,2352 1318,2352.89543 1318,2354 C1318,2355.10457 1317.10457,2356 1316,2356 C1314.89543,2356 1314,2355.10457 1314,2354 C1314,2352.89543 1314.89543,2352 1316,2352 Z M1412,2352 C1413.10457,2352 1414,2352.89543 1414,2354 C1414,2355.10457 1413.10457,2356 1412,2356 C1410.89543,2356 1410,2355.10457 1410,2354 C1410,2352.89543 1410.89543,2352 1412,2352 Z M1292,2352 C1293.10457,2352 1294,2352.89543 1294,2354 C1294,2355.10457 1293.10457,2356 1292,2356 C1290.89543,2356 1290,2355.10457 1290,2354 C1290,2352.89543 1290.89543,2352 1292,2352 Z M1304,2352 C1305.10457,2352 1306,2352.89543 1306,2354 C1306,2355.10457 1305.10457,2356 1304,2356 C1302.89543,2356 1302,2355.10457 1302,2354 C1302,2352.89543 1302.89543,2352 1304,2352 Z M1352,2340 C1353.10457,2340 1354,2340.89543 1354,2342 C1354,2343.10457 1353.10457,2344 1352,2344 C1350.89543,2344 1350,2343.10457 1350,2342 C1350,2340.89543 1350.89543,2340 1352,2340 Z M1376,2340 C1377.10457,2340 1378,2340.89543 1378,2342 C1378,2343.10457 1377.10457,2344 1376,2344 C1374.89543,2344 1374,2343.10457 1374,2342 C1374,2340.89543 1374.89543,2340 1376,2340 Z M1388,2340 C1389.10457,2340 1390,2340.89543 1390,2342 C1390,2343.10457 1389.10457,2344 1388,2344 C1386.89543,2344 1386,2343.10457 1386,2342 C1386,2340.89543 1386.89543,2340 1388,2340 Z M1400,2340 C1401.10457,2340 1402,2340.89543 1402,2342 C1402,2343.10457 1401.10457,2344 1400,2344 C1398.89543,2344 1398,2343.10457 1398,2342 C1398,2340.89543 1398.89543,2340 1400,2340 Z M1436,2340 C1437.10457,2340 1438,2340.89543 1438,2342 C1438,2343.10457 1437.10457,2344 1436,2344 C1434.89543,2344 1434,2343.10457 1434,2342 C1434,2340.89543 1434.89543,2340 1436,2340 Z M1268,2340 C1269.10457,2340 1270,2340.89543 1270,2342 C1270,2343.10457 1269.10457,2344 1268,2344 C1266.89543,2344 1266,2343.10457 1266,2342 C1266,2340.89543 1266.89543,2340 1268,2340 Z M1280,2340 C1281.10457,2340 1282,2340.89543 1282,2342 C1282,2343.10457 1281.10457,2344 1280,2344 C1278.89543,2344 1278,2343.10457 1278,2342 C1278,2340.89543 1278.89543,2340 1280,2340 Z M1316,2340 C1317.10457,2340 1318,2340.89543 1318,2342 C1318,2343.10457 1317.10457,2344 1316,2344 C1314.89543,2344 1314,2343.10457 1314,2342 C1314,2340.89543 1314.89543,2340 1316,2340 Z M1448,2340 C1449.10457,2340 1450,2340.89543 1450,2342 C1450,2343.10457 1449.10457,2344 1448,2344 C1446.89543,2344 1446,2343.10457 1446,2342 C1446,2340.89543 1446.89543,2340 1448,2340 Z M1328,2340 C1329.10457,2340 1330,2340.89543 1330,2342 C1330,2343.10457 1329.10457,2344 1328,2344 C1326.89543,2344 1326,2343.10457 1326,2342 C1326,2340.89543 1326.89543,2340 1328,2340 Z M1460,2340 C1461.10457,2340 1462,2340.89543 1462,2342 C1462,2343.10457 1461.10457,2344 1460,2344 C1458.89543,2344 1458,2343.10457 1458,2342 C1458,2340.89543 1458.89543,2340 1460,2340 Z M1472,2340 C1473.10457,2340 1474,2340.89543 1474,2342 C1474,2343.10457 1473.10457,2344 1472,2344 C1470.89543,2344 1470,2343.10457 1470,2342 C1470,2340.89543 1470.89543,2340 1472,2340 Z M1496,2340 C1497.10457,2340 1498,2340.89543 1498,2342 C1498,2343.10457 1497.10457,2344 1496,2344 C1494.89543,2344 1494,2343.10457 1494,2342 C1494,2340.89543 1494.89543,2340 1496,2340 Z M1340,2340 C1341.10457,2340 1342,2340.89543 1342,2342 C1342,2343.10457 1341.10457,2344 1340,2344 C1338.89543,2344 1338,2343.10457 1338,2342 C1338,2340.89543 1338.89543,2340 1340,2340 Z M1328,2328 C1329.10457,2328 1330,2328.89543 1330,2330 C1330,2331.10457 1329.10457,2332 1328,2332 C1326.89543,2332 1326,2331.10457 1326,2330 C1326,2328.89543 1326.89543,2328 1328,2328 Z M1340,2328 C1341.10457,2328 1342,2328.89543 1342,2330 C1342,2331.10457 1341.10457,2332 1340,2332 C1338.89543,2332 1338,2331.10457 1338,2330 C1338,2328.89543 1338.89543,2328 1340,2328 Z M1352,2328 C1353.10457,2328 1354,2328.89543 1354,2330 C1354,2331.10457 1353.10457,2332 1352,2332 C1350.89543,2332 1350,2331.10457 1350,2330 C1350,2328.89543 1350.89543,2328 1352,2328 Z M1364,2328 C1365.10457,2328 1366,2328.89543 1366,2330 C1366,2331.10457 1365.10457,2332 1364,2332 C1362.89543,2332 1362,2331.10457 1362,2330 C1362,2328.89543 1362.89543,2328 1364,2328 Z M1376,2328 C1377.10457,2328 1378,2328.89543 1378,2330 C1378,2331.10457 1377.10457,2332 1376,2332 C1374.89543,2332 1374,2331.10457 1374,2330 C1374,2328.89543 1374.89543,2328 1376,2328 Z M1292,2328 C1293.10457,2328 1294,2328.89543 1294,2330 C1294,2331.10457 1293.10457,2332 1292,2332 C1290.89543,2332 1290,2331.10457 1290,2330 C1290,2328.89543 1290.89543,2328 1292,2328 Z M1436,2328 C1437.10457,2328 1438,2328.89543 1438,2330 C1438,2331.10457 1437.10457,2332 1436,2332 C1434.89543,2332 1434,2331.10457 1434,2330 C1434,2328.89543 1434.89543,2328 1436,2328 Z M1448,2328 C1449.10457,2328 1450,2328.89543 1450,2330 C1450,2331.10457 1449.10457,2332 1448,2332 C1446.89543,2332 1446,2331.10457 1446,2330 C1446,2328.89543 1446.89543,2328 1448,2328 Z M1472,2328 C1473.10457,2328 1474,2328.89543 1474,2330 C1474,2331.10457 1473.10457,2332 1472,2332 C1470.89543,2332 1470,2331.10457 1470,2330 C1470,2328.89543 1470.89543,2328 1472,2328 Z M1484,2328 C1485.10457,2328 1486,2328.89543 1486,2330 C1486,2331.10457 1485.10457,2332 1484,2332 C1482.89543,2332 1482,2331.10457 1482,2330 C1482,2328.89543 1482.89543,2328 1484,2328 Z M1496,2328 C1497.10457,2328 1498,2328.89543 1498,2330 C1498,2331.10457 1497.10457,2332 1496,2332 C1494.89543,2332 1494,2331.10457 1494,2330 C1494,2328.89543 1494.89543,2328 1496,2328 Z M1400,2328 C1401.10457,2328 1402,2328.89543 1402,2330 C1402,2331.10457 1401.10457,2332 1400,2332 C1398.89543,2332 1398,2331.10457 1398,2330 C1398,2328.89543 1398.89543,2328 1400,2328 Z M1304,2328 C1305.10457,2328 1306,2328.89543 1306,2330 C1306,2331.10457 1305.10457,2332 1304,2332 C1302.89543,2332 1302,2331.10457 1302,2330 C1302,2328.89543 1302.89543,2328 1304,2328 Z M1316,2328 C1317.10457,2328 1318,2328.89543 1318,2330 C1318,2331.10457 1317.10457,2332 1316,2332 C1314.89543,2332 1314,2331.10457 1314,2330 C1314,2328.89543 1314.89543,2328 1316,2328 Z M1400,2316 C1401.10457,2316 1402,2316.89543 1402,2318 C1402,2319.10457 1401.10457,2320 1400,2320 C1398.89543,2320 1398,2319.10457 1398,2318 C1398,2316.89543 1398.89543,2316 1400,2316 Z M1436,2316 C1437.10457,2316 1438,2316.89543 1438,2318 C1438,2319.10457 1437.10457,2320 1436,2320 C1434.89543,2320 1434,2319.10457 1434,2318 C1434,2316.89543 1434.89543,2316 1436,2316 Z M1304,2316 C1305.10457,2316 1306,2316.89543 1306,2318 C1306,2319.10457 1305.10457,2320 1304,2320 C1302.89543,2320 1302,2319.10457 1302,2318 C1302,2316.89543 1302.89543,2316 1304,2316 Z M1472,2316 C1473.10457,2316 1474,2316.89543 1474,2318 C1474,2319.10457 1473.10457,2320 1472,2320 C1470.89543,2320 1470,2319.10457 1470,2318 C1470,2316.89543 1470.89543,2316 1472,2316 Z M1496,2316 C1497.10457,2316 1498,2316.89543 1498,2318 C1498,2319.10457 1497.10457,2320 1496,2320 C1494.89543,2320 1494,2319.10457 1494,2318 C1494,2316.89543 1494.89543,2316 1496,2316 Z M1364,2316 C1365.10457,2316 1366,2316.89543 1366,2318 C1366,2319.10457 1365.10457,2320 1364,2320 C1362.89543,2320 1362,2319.10457 1362,2318 C1362,2316.89543 1362.89543,2316 1364,2316 Z M1388,2316 C1389.10457,2316 1390,2316.89543 1390,2318 C1390,2319.10457 1389.10457,2320 1388,2320 C1386.89543,2320 1386,2319.10457 1386,2318 C1386,2316.89543 1386.89543,2316 1388,2316 Z M1340,2316 C1341.10457,2316 1342,2316.89543 1342,2318 C1342,2319.10457 1341.10457,2320 1340,2320 C1338.89543,2320 1338,2319.10457 1338,2318 C1338,2316.89543 1338.89543,2316 1340,2316 Z M1424,2316 C1425.10457,2316 1426,2316.89543 1426,2318 C1426,2319.10457 1425.10457,2320 1424,2320 C1422.89543,2320 1422,2319.10457 1422,2318 C1422,2316.89543 1422.89543,2316 1424,2316 Z M1484,2316 C1485.10457,2316 1486,2316.89543 1486,2318 C1486,2319.10457 1485.10457,2320 1484,2320 C1482.89543,2320 1482,2319.10457 1482,2318 C1482,2316.89543 1482.89543,2316 1484,2316 Z M1292,2316 C1293.10457,2316 1294,2316.89543 1294,2318 C1294,2319.10457 1293.10457,2320 1292,2320 C1290.89543,2320 1290,2319.10457 1290,2318 C1290,2316.89543 1290.89543,2316 1292,2316 Z M1448,2316 C1449.10457,2316 1450,2316.89543 1450,2318 C1450,2319.10457 1449.10457,2320 1448,2320 C1446.89543,2320 1446,2319.10457 1446,2318 C1446,2316.89543 1446.89543,2316 1448,2316 Z M1352,2316 C1353.10457,2316 1354,2316.89543 1354,2318 C1354,2319.10457 1353.10457,2320 1352,2320 C1350.89543,2320 1350,2319.10457 1350,2318 C1350,2316.89543 1350.89543,2316 1352,2316 Z M1376,2316 C1377.10457,2316 1378,2316.89543 1378,2318 C1378,2319.10457 1377.10457,2320 1376,2320 C1374.89543,2320 1374,2319.10457 1374,2318 C1374,2316.89543 1374.89543,2316 1376,2316 Z M1352,2304 C1353.10457,2304 1354,2304.89543 1354,2306 C1354,2307.10457 1353.10457,2308 1352,2308 C1350.89543,2308 1350,2307.10457 1350,2306 C1350,2304.89543 1350.89543,2304 1352,2304 Z M1364,2304 C1365.10457,2304 1366,2304.89543 1366,2306 C1366,2307.10457 1365.10457,2308 1364,2308 C1362.89543,2308 1362,2307.10457 1362,2306 C1362,2304.89543 1362.89543,2304 1364,2304 Z M1268,2304 C1269.10457,2304 1270,2304.89543 1270,2306 C1270,2307.10457 1269.10457,2308 1268,2308 C1266.89543,2308 1266,2307.10457 1266,2306 C1266,2304.89543 1266.89543,2304 1268,2304 Z M1388,2304 C1389.10457,2304 1390,2304.89543 1390,2306 C1390,2307.10457 1389.10457,2308 1388,2308 C1386.89543,2308 1386,2307.10457 1386,2306 C1386,2304.89543 1386.89543,2304 1388,2304 Z M1496,2304 C1497.10457,2304 1498,2304.89543 1498,2306 C1498,2307.10457 1497.10457,2308 1496,2308 C1494.89543,2308 1494,2307.10457 1494,2306 C1494,2304.89543 1494.89543,2304 1496,2304 Z M1472,2304 C1473.10457,2304 1474,2304.89543 1474,2306 C1474,2307.10457 1473.10457,2308 1472,2308 C1470.89543,2308 1470,2307.10457 1470,2306 C1470,2304.89543 1470.89543,2304 1472,2304 Z M1304,2304 C1305.10457,2304 1306,2304.89543 1306,2306 C1306,2307.10457 1305.10457,2308 1304,2308 C1302.89543,2308 1302,2307.10457 1302,2306 C1302,2304.89543 1302.89543,2304 1304,2304 Z M1448,2304 C1449.10457,2304 1450,2304.89543 1450,2306 C1450,2307.10457 1449.10457,2308 1448,2308 C1446.89543,2308 1446,2307.10457 1446,2306 C1446,2304.89543 1446.89543,2304 1448,2304 Z M1376,2304 C1377.10457,2304 1378,2304.89543 1378,2306 C1378,2307.10457 1377.10457,2308 1376,2308 C1374.89543,2308 1374,2307.10457 1374,2306 C1374,2304.89543 1374.89543,2304 1376,2304 Z M1280,2304 C1281.10457,2304 1282,2304.89543 1282,2306 C1282,2307.10457 1281.10457,2308 1280,2308 C1278.89543,2308 1278,2307.10457 1278,2306 C1278,2304.89543 1278.89543,2304 1280,2304 Z M1292,2304 C1293.10457,2304 1294,2304.89543 1294,2306 C1294,2307.10457 1293.10457,2308 1292,2308 C1290.89543,2308 1290,2307.10457 1290,2306 C1290,2304.89543 1290.89543,2304 1292,2304 Z M1460,2304 C1461.10457,2304 1462,2304.89543 1462,2306 C1462,2307.10457 1461.10457,2308 1460,2308 C1458.89543,2308 1458,2307.10457 1458,2306 C1458,2304.89543 1458.89543,2304 1460,2304 Z M1436,2304 C1437.10457,2304 1438,2304.89543 1438,2306 C1438,2307.10457 1437.10457,2308 1436,2308 C1434.89543,2308 1434,2307.10457 1434,2306 C1434,2304.89543 1434.89543,2304 1436,2304 Z M1400,2304 C1401.10457,2304 1402,2304.89543 1402,2306 C1402,2307.10457 1401.10457,2308 1400,2308 C1398.89543,2308 1398,2307.10457 1398,2306 C1398,2304.89543 1398.89543,2304 1400,2304 Z M1424,2304 C1425.10457,2304 1426,2304.89543 1426,2306 C1426,2307.10457 1425.10457,2308 1424,2308 C1422.89543,2308 1422,2307.10457 1422,2306 C1422,2304.89543 1422.89543,2304 1424,2304 Z M1460,2292 C1461.10457,2292 1462,2292.89543 1462,2294 C1462,2295.10457 1461.10457,2296 1460,2296 C1458.89543,2296 1458,2295.10457 1458,2294 C1458,2292.89543 1458.89543,2292 1460,2292 Z M1328,2292 C1329.10457,2292 1330,2292.89543 1330,2294 C1330,2295.10457 1329.10457,2296 1328,2296 C1326.89543,2296 1326,2295.10457 1326,2294 C1326,2292.89543 1326.89543,2292 1328,2292 Z M1484,2292 C1485.10457,2292 1486,2292.89543 1486,2294 C1486,2295.10457 1485.10457,2296 1484,2296 C1482.89543,2296 1482,2295.10457 1482,2294 C1482,2292.89543 1482.89543,2292 1484,2292 Z M1280,2292 C1281.10457,2292 1282,2292.89543 1282,2294 C1282,2295.10457 1281.10457,2296 1280,2296 C1278.89543,2296 1278,2295.10457 1278,2294 C1278,2292.89543 1278.89543,2292 1280,2292 Z M1388,2292 C1389.10457,2292 1390,2292.89543 1390,2294 C1390,2295.10457 1389.10457,2296 1388,2296 C1386.89543,2296 1386,2295.10457 1386,2294 C1386,2292.89543 1386.89543,2292 1388,2292 Z M1496,2292 C1497.10457,2292 1498,2292.89543 1498,2294 C1498,2295.10457 1497.10457,2296 1496,2296 C1494.89543,2296 1494,2295.10457 1494,2294 C1494,2292.89543 1494.89543,2292 1496,2292 Z M1472,2292 C1473.10457,2292 1474,2292.89543 1474,2294 C1474,2295.10457 1473.10457,2296 1472,2296 C1470.89543,2296 1470,2295.10457 1470,2294 C1470,2292.89543 1470.89543,2292 1472,2292 Z M1424,2292 C1425.10457,2292 1426,2292.89543 1426,2294 C1426,2295.10457 1425.10457,2296 1424,2296 C1422.89543,2296 1422,2295.10457 1422,2294 C1422,2292.89543 1422.89543,2292 1424,2292 Z M1304,2292 C1305.10457,2292 1306,2292.89543 1306,2294 C1306,2295.10457 1305.10457,2296 1304,2296 C1302.89543,2296 1302,2295.10457 1302,2294 C1302,2292.89543 1302.89543,2292 1304,2292 Z M1316,2292 C1317.10457,2292 1318,2292.89543 1318,2294 C1318,2295.10457 1317.10457,2296 1316,2296 C1314.89543,2296 1314,2295.10457 1314,2294 C1314,2292.89543 1314.89543,2292 1316,2292 Z M1292,2292 C1293.10457,2292 1294,2292.89543 1294,2294 C1294,2295.10457 1293.10457,2296 1292,2296 C1290.89543,2296 1290,2295.10457 1290,2294 C1290,2292.89543 1290.89543,2292 1292,2292 Z M1364,2292 C1365.10457,2292 1366,2292.89543 1366,2294 C1366,2295.10457 1365.10457,2296 1364,2296 C1362.89543,2296 1362,2295.10457 1362,2294 C1362,2292.89543 1362.89543,2292 1364,2292 Z M1412,2292 C1413.10457,2292 1414,2292.89543 1414,2294 C1414,2295.10457 1413.10457,2296 1412,2296 C1410.89543,2296 1410,2295.10457 1410,2294 C1410,2292.89543 1410.89543,2292 1412,2292 Z M1340,2292 C1341.10457,2292 1342,2292.89543 1342,2294 C1342,2295.10457 1341.10457,2296 1340,2296 C1338.89543,2296 1338,2295.10457 1338,2294 C1338,2292.89543 1338.89543,2292 1340,2292 Z M1376,2292 C1377.10457,2292 1378,2292.89543 1378,2294 C1378,2295.10457 1377.10457,2296 1376,2296 C1374.89543,2296 1374,2295.10457 1374,2294 C1374,2292.89543 1374.89543,2292 1376,2292 Z M1268,2292 C1269.10457,2292 1270,2292.89543 1270,2294 C1270,2295.10457 1269.10457,2296 1268,2296 C1266.89543,2296 1266,2295.10457 1266,2294 C1266,2292.89543 1266.89543,2292 1268,2292 Z M1400,2292 C1401.10457,2292 1402,2292.89543 1402,2294 C1402,2295.10457 1401.10457,2296 1400,2296 C1398.89543,2296 1398,2295.10457 1398,2294 C1398,2292.89543 1398.89543,2292 1400,2292 Z M1388,2280 C1389.10457,2280 1390,2280.89543 1390,2282 C1390,2283.10457 1389.10457,2284 1388,2284 C1386.89543,2284 1386,2283.10457 1386,2282 C1386,2280.89543 1386.89543,2280 1388,2280 Z M1340,2280 C1341.10457,2280 1342,2280.89543 1342,2282 C1342,2283.10457 1341.10457,2284 1340,2284 C1338.89543,2284 1338,2283.10457 1338,2282 C1338,2280.89543 1338.89543,2280 1340,2280 Z M1412,2280 C1413.10457,2280 1414,2280.89543 1414,2282 C1414,2283.10457 1413.10457,2284 1412,2284 C1410.89543,2284 1410,2283.10457 1410,2282 C1410,2280.89543 1410.89543,2280 1412,2280 Z M1460,2280 C1461.10457,2280 1462,2280.89543 1462,2282 C1462,2283.10457 1461.10457,2284 1460,2284 C1458.89543,2284 1458,2283.10457 1458,2282 C1458,2280.89543 1458.89543,2280 1460,2280 Z M1400,2280 C1401.10457,2280 1402,2280.89543 1402,2282 C1402,2283.10457 1401.10457,2284 1400,2284 C1398.89543,2284 1398,2283.10457 1398,2282 C1398,2280.89543 1398.89543,2280 1400,2280 Z M1268,2280 C1269.10457,2280 1270,2280.89543 1270,2282 C1270,2283.10457 1269.10457,2284 1268,2284 C1266.89543,2284 1266,2283.10457 1266,2282 C1266,2280.89543 1266.89543,2280 1268,2280 Z M1448,2280 C1449.10457,2280 1450,2280.89543 1450,2282 C1450,2283.10457 1449.10457,2284 1448,2284 C1446.89543,2284 1446,2283.10457 1446,2282 C1446,2280.89543 1446.89543,2280 1448,2280 Z M1472,2280 C1473.10457,2280 1474,2280.89543 1474,2282 C1474,2283.10457 1473.10457,2284 1472,2284 C1470.89543,2284 1470,2283.10457 1470,2282 C1470,2280.89543 1470.89543,2280 1472,2280 Z M1352,2280 C1353.10457,2280 1354,2280.89543 1354,2282 C1354,2283.10457 1353.10457,2284 1352,2284 C1350.89543,2284 1350,2283.10457 1350,2282 C1350,2280.89543 1350.89543,2280 1352,2280 Z M1496,2280 C1497.10457,2280 1498,2280.89543 1498,2282 C1498,2283.10457 1497.10457,2284 1496,2284 C1494.89543,2284 1494,2283.10457 1494,2282 C1494,2280.89543 1494.89543,2280 1496,2280 Z M1304,2280 C1305.10457,2280 1306,2280.89543 1306,2282 C1306,2283.10457 1305.10457,2284 1304,2284 C1302.89543,2284 1302,2283.10457 1302,2282 C1302,2280.89543 1302.89543,2280 1304,2280 Z M1328,2280 C1329.10457,2280 1330,2280.89543 1330,2282 C1330,2283.10457 1329.10457,2284 1328,2284 C1326.89543,2284 1326,2283.10457 1326,2282 C1326,2280.89543 1326.89543,2280 1328,2280 Z M1364,2280 C1365.10457,2280 1366,2280.89543 1366,2282 C1366,2283.10457 1365.10457,2284 1364,2284 C1362.89543,2284 1362,2283.10457 1362,2282 C1362,2280.89543 1362.89543,2280 1364,2280 Z M1316,2280 C1317.10457,2280 1318,2280.89543 1318,2282 C1318,2283.10457 1317.10457,2284 1316,2284 C1314.89543,2284 1314,2283.10457 1314,2282 C1314,2280.89543 1314.89543,2280 1316,2280 Z M1280,2280 C1281.10457,2280 1282,2280.89543 1282,2282 C1282,2283.10457 1281.10457,2284 1280,2284 C1278.89543,2284 1278,2283.10457 1278,2282 C1278,2280.89543 1278.89543,2280 1280,2280 Z M1436,2280 C1437.10457,2280 1438,2280.89543 1438,2282 C1438,2283.10457 1437.10457,2284 1436,2284 C1434.89543,2284 1434,2283.10457 1434,2282 C1434,2280.89543 1434.89543,2280 1436,2280 Z M1376,2280 C1377.10457,2280 1378,2280.89543 1378,2282 C1378,2283.10457 1377.10457,2284 1376,2284 C1374.89543,2284 1374,2283.10457 1374,2282 C1374,2280.89543 1374.89543,2280 1376,2280 Z M1484,2280 C1485.10457,2280 1486,2280.89543 1486,2282 C1486,2283.10457 1485.10457,2284 1484,2284 C1482.89543,2284 1482,2283.10457 1482,2282 C1482,2280.89543 1482.89543,2280 1484,2280 Z M1424,2280 C1425.10457,2280 1426,2280.89543 1426,2282 C1426,2283.10457 1425.10457,2284 1424,2284 C1422.89543,2284 1422,2283.10457 1422,2282 C1422,2280.89543 1422.89543,2280 1424,2280 Z M1292,2280 C1293.10457,2280 1294,2280.89543 1294,2282 C1294,2283.10457 1293.10457,2284 1292,2284 C1290.89543,2284 1290,2283.10457 1290,2282 C1290,2280.89543 1290.89543,2280 1292,2280 Z M1292,2268 C1293.10457,2268 1294,2268.89543 1294,2270 C1294,2271.10457 1293.10457,2272 1292,2272 C1290.89543,2272 1290,2271.10457 1290,2270 C1290,2268.89543 1290.89543,2268 1292,2268 Z M1412,2268 C1413.10457,2268 1414,2268.89543 1414,2270 C1414,2271.10457 1413.10457,2272 1412,2272 C1410.89543,2272 1410,2271.10457 1410,2270 C1410,2268.89543 1410.89543,2268 1412,2268 Z M1316,2268 C1317.10457,2268 1318,2268.89543 1318,2270 C1318,2271.10457 1317.10457,2272 1316,2272 C1314.89543,2272 1314,2271.10457 1314,2270 C1314,2268.89543 1314.89543,2268 1316,2268 Z M1436,2268 C1437.10457,2268 1438,2268.89543 1438,2270 C1438,2271.10457 1437.10457,2272 1436,2272 C1434.89543,2272 1434,2271.10457 1434,2270 C1434,2268.89543 1434.89543,2268 1436,2268 Z M1448,2268 C1449.10457,2268 1450,2268.89543 1450,2270 C1450,2271.10457 1449.10457,2272 1448,2272 C1446.89543,2272 1446,2271.10457 1446,2270 C1446,2268.89543 1446.89543,2268 1448,2268 Z M1424,2268 C1425.10457,2268 1426,2268.89543 1426,2270 C1426,2271.10457 1425.10457,2272 1424,2272 C1422.89543,2272 1422,2271.10457 1422,2270 C1422,2268.89543 1422.89543,2268 1424,2268 Z M1352,2268 C1353.10457,2268 1354,2268.89543 1354,2270 C1354,2271.10457 1353.10457,2272 1352,2272 C1350.89543,2272 1350,2271.10457 1350,2270 C1350,2268.89543 1350.89543,2268 1352,2268 Z M1304,2268 C1305.10457,2268 1306,2268.89543 1306,2270 C1306,2271.10457 1305.10457,2272 1304,2272 C1302.89543,2272 1302,2271.10457 1302,2270 C1302,2268.89543 1302.89543,2268 1304,2268 Z M1364,2268 C1365.10457,2268 1366,2268.89543 1366,2270 C1366,2271.10457 1365.10457,2272 1364,2272 C1362.89543,2272 1362,2271.10457 1362,2270 C1362,2268.89543 1362.89543,2268 1364,2268 Z M1472,2268 C1473.10457,2268 1474,2268.89543 1474,2270 C1474,2271.10457 1473.10457,2272 1472,2272 C1470.89543,2272 1470,2271.10457 1470,2270 C1470,2268.89543 1470.89543,2268 1472,2268 Z M1400,2268 C1401.10457,2268 1402,2268.89543 1402,2270 C1402,2271.10457 1401.10457,2272 1400,2272 C1398.89543,2272 1398,2271.10457 1398,2270 C1398,2268.89543 1398.89543,2268 1400,2268 Z M1340,2268 C1341.10457,2268 1342,2268.89543 1342,2270 C1342,2271.10457 1341.10457,2272 1340,2272 C1338.89543,2272 1338,2271.10457 1338,2270 C1338,2268.89543 1338.89543,2268 1340,2268 Z M1364,2256 C1365.10457,2256 1366,2256.89543 1366,2258 C1366,2259.10457 1365.10457,2260 1364,2260 C1362.89543,2260 1362,2259.10457 1362,2258 C1362,2256.89543 1362.89543,2256 1364,2256 Z M1448,2256 C1449.10457,2256 1450,2256.89543 1450,2258 C1450,2259.10457 1449.10457,2260 1448,2260 C1446.89543,2260 1446,2259.10457 1446,2258 C1446,2256.89543 1446.89543,2256 1448,2256 Z M1460,2256 C1461.10457,2256 1462,2256.89543 1462,2258 C1462,2259.10457 1461.10457,2260 1460,2260 C1458.89543,2260 1458,2259.10457 1458,2258 C1458,2256.89543 1458.89543,2256 1460,2256 Z M1376,2256 C1377.10457,2256 1378,2256.89543 1378,2258 C1378,2259.10457 1377.10457,2260 1376,2260 C1374.89543,2260 1374,2259.10457 1374,2258 C1374,2256.89543 1374.89543,2256 1376,2256 Z M1352,2256 C1353.10457,2256 1354,2256.89543 1354,2258 C1354,2259.10457 1353.10457,2260 1352,2260 C1350.89543,2260 1350,2259.10457 1350,2258 C1350,2256.89543 1350.89543,2256 1352,2256 Z M1472,2256 C1473.10457,2256 1474,2256.89543 1474,2258 C1474,2259.10457 1473.10457,2260 1472,2260 C1470.89543,2260 1470,2259.10457 1470,2258 C1470,2256.89543 1470.89543,2256 1472,2256 Z M1436,2256 C1437.10457,2256 1438,2256.89543 1438,2258 C1438,2259.10457 1437.10457,2260 1436,2260 C1434.89543,2260 1434,2259.10457 1434,2258 C1434,2256.89543 1434.89543,2256 1436,2256 Z M1316,2256 C1317.10457,2256 1318,2256.89543 1318,2258 C1318,2259.10457 1317.10457,2260 1316,2260 C1314.89543,2260 1314,2259.10457 1314,2258 C1314,2256.89543 1314.89543,2256 1316,2256 Z M1268,2256 C1269.10457,2256 1270,2256.89543 1270,2258 C1270,2259.10457 1269.10457,2260 1268,2260 C1266.89543,2260 1266,2259.10457 1266,2258 C1266,2256.89543 1266.89543,2256 1268,2256 Z M1280,2256 C1281.10457,2256 1282,2256.89543 1282,2258 C1282,2259.10457 1281.10457,2260 1280,2260 C1278.89543,2260 1278,2259.10457 1278,2258 C1278,2256.89543 1278.89543,2256 1280,2256 Z M1304,2256 C1305.10457,2256 1306,2256.89543 1306,2258 C1306,2259.10457 1305.10457,2260 1304,2260 C1302.89543,2260 1302,2259.10457 1302,2258 C1302,2256.89543 1302.89543,2256 1304,2256 Z M1388,2256 C1389.10457,2256 1390,2256.89543 1390,2258 C1390,2259.10457 1389.10457,2260 1388,2260 C1386.89543,2260 1386,2259.10457 1386,2258 C1386,2256.89543 1386.89543,2256 1388,2256 Z M1412,2256 C1413.10457,2256 1414,2256.89543 1414,2258 C1414,2259.10457 1413.10457,2260 1412,2260 C1410.89543,2260 1410,2259.10457 1410,2258 C1410,2256.89543 1410.89543,2256 1412,2256 Z M1424,2256 C1425.10457,2256 1426,2256.89543 1426,2258 C1426,2259.10457 1425.10457,2260 1424,2260 C1422.89543,2260 1422,2259.10457 1422,2258 C1422,2256.89543 1422.89543,2256 1424,2256 Z M1328,2256 C1329.10457,2256 1330,2256.89543 1330,2258 C1330,2259.10457 1329.10457,2260 1328,2260 C1326.89543,2260 1326,2259.10457 1326,2258 C1326,2256.89543 1326.89543,2256 1328,2256 Z M1340,2256 C1341.10457,2256 1342,2256.89543 1342,2258 C1342,2259.10457 1341.10457,2260 1340,2260 C1338.89543,2260 1338,2259.10457 1338,2258 C1338,2256.89543 1338.89543,2256 1340,2256 Z M1340,2244 C1341.10457,2244 1342,2244.89543 1342,2246 C1342,2247.10457 1341.10457,2248 1340,2248 C1338.89543,2248 1338,2247.10457 1338,2246 C1338,2244.89543 1338.89543,2244 1340,2244 Z M1292,2244 C1293.10457,2244 1294,2244.89543 1294,2246 C1294,2247.10457 1293.10457,2248 1292,2248 C1290.89543,2248 1290,2247.10457 1290,2246 C1290,2244.89543 1290.89543,2244 1292,2244 Z M1472,2244 C1473.10457,2244 1474,2244.89543 1474,2246 C1474,2247.10457 1473.10457,2248 1472,2248 C1470.89543,2248 1470,2247.10457 1470,2246 C1470,2244.89543 1470.89543,2244 1472,2244 Z M1316,2244 C1317.10457,2244 1318,2244.89543 1318,2246 C1318,2247.10457 1317.10457,2248 1316,2248 C1314.89543,2248 1314,2247.10457 1314,2246 C1314,2244.89543 1314.89543,2244 1316,2244 Z M1412,2244 C1413.10457,2244 1414,2244.89543 1414,2246 C1414,2247.10457 1413.10457,2248 1412,2248 C1410.89543,2248 1410,2247.10457 1410,2246 C1410,2244.89543 1410.89543,2244 1412,2244 Z M1376,2244 C1377.10457,2244 1378,2244.89543 1378,2246 C1378,2247.10457 1377.10457,2248 1376,2248 C1374.89543,2248 1374,2247.10457 1374,2246 C1374,2244.89543 1374.89543,2244 1376,2244 Z M1304,2244 C1305.10457,2244 1306,2244.89543 1306,2246 C1306,2247.10457 1305.10457,2248 1304,2248 C1302.89543,2248 1302,2247.10457 1302,2246 C1302,2244.89543 1302.89543,2244 1304,2244 Z M1388,2244 C1389.10457,2244 1390,2244.89543 1390,2246 C1390,2247.10457 1389.10457,2248 1388,2248 C1386.89543,2248 1386,2247.10457 1386,2246 C1386,2244.89543 1386.89543,2244 1388,2244 Z M1280,2244 C1281.10457,2244 1282,2244.89543 1282,2246 C1282,2247.10457 1281.10457,2248 1280,2248 C1278.89543,2248 1278,2247.10457 1278,2246 C1278,2244.89543 1278.89543,2244 1280,2244 Z M1400,2244 C1401.10457,2244 1402,2244.89543 1402,2246 C1402,2247.10457 1401.10457,2248 1400,2248 C1398.89543,2248 1398,2247.10457 1398,2246 C1398,2244.89543 1398.89543,2244 1400,2244 Z M1460,2244 C1461.10457,2244 1462,2244.89543 1462,2246 C1462,2247.10457 1461.10457,2248 1460,2248 C1458.89543,2248 1458,2247.10457 1458,2246 C1458,2244.89543 1458.89543,2244 1460,2244 Z M1352,2244 C1353.10457,2244 1354,2244.89543 1354,2246 C1354,2247.10457 1353.10457,2248 1352,2248 C1350.89543,2248 1350,2247.10457 1350,2246 C1350,2244.89543 1350.89543,2244 1352,2244 Z M1364,2244 C1365.10457,2244 1366,2244.89543 1366,2246 C1366,2247.10457 1365.10457,2248 1364,2248 C1362.89543,2248 1362,2247.10457 1362,2246 C1362,2244.89543 1362.89543,2244 1364,2244 Z M1268,2244 C1269.10457,2244 1270,2244.89543 1270,2246 C1270,2247.10457 1269.10457,2248 1268,2248 C1266.89543,2248 1266,2247.10457 1266,2246 C1266,2244.89543 1266.89543,2244 1268,2244 Z M1436,2232 C1437.10457,2232 1438,2232.89543 1438,2234 C1438,2235.10457 1437.10457,2236 1436,2236 C1434.89543,2236 1434,2235.10457 1434,2234 C1434,2232.89543 1434.89543,2232 1436,2232 Z M1412,2232 C1413.10457,2232 1414,2232.89543 1414,2234 C1414,2235.10457 1413.10457,2236 1412,2236 C1410.89543,2236 1410,2235.10457 1410,2234 C1410,2232.89543 1410.89543,2232 1412,2232 Z M1352,2232 C1353.10457,2232 1354,2232.89543 1354,2234 C1354,2235.10457 1353.10457,2236 1352,2236 C1350.89543,2236 1350,2235.10457 1350,2234 C1350,2232.89543 1350.89543,2232 1352,2232 Z M1268,2232 C1269.10457,2232 1270,2232.89543 1270,2234 C1270,2235.10457 1269.10457,2236 1268,2236 C1266.89543,2236 1266,2235.10457 1266,2234 C1266,2232.89543 1266.89543,2232 1268,2232 Z M1280,2232 C1281.10457,2232 1282,2232.89543 1282,2234 C1282,2235.10457 1281.10457,2236 1280,2236 C1278.89543,2236 1278,2235.10457 1278,2234 C1278,2232.89543 1278.89543,2232 1280,2232 Z M1340,2232 C1341.10457,2232 1342,2232.89543 1342,2234 C1342,2235.10457 1341.10457,2236 1340,2236 C1338.89543,2236 1338,2235.10457 1338,2234 C1338,2232.89543 1338.89543,2232 1340,2232 Z M1316,2232 C1317.10457,2232 1318,2232.89543 1318,2234 C1318,2235.10457 1317.10457,2236 1316,2236 C1314.89543,2236 1314,2235.10457 1314,2234 C1314,2232.89543 1314.89543,2232 1316,2232 Z M1304,2232 C1305.10457,2232 1306,2232.89543 1306,2234 C1306,2235.10457 1305.10457,2236 1304,2236 C1302.89543,2236 1302,2235.10457 1302,2234 C1302,2232.89543 1302.89543,2232 1304,2232 Z M1292,2232 C1293.10457,2232 1294,2232.89543 1294,2234 C1294,2235.10457 1293.10457,2236 1292,2236 C1290.89543,2236 1290,2235.10457 1290,2234 C1290,2232.89543 1290.89543,2232 1292,2232 Z M1364,2232 C1365.10457,2232 1366,2232.89543 1366,2234 C1366,2235.10457 1365.10457,2236 1364,2236 C1362.89543,2236 1362,2235.10457 1362,2234 C1362,2232.89543 1362.89543,2232 1364,2232 Z M1400,2232 C1401.10457,2232 1402,2232.89543 1402,2234 C1402,2235.10457 1401.10457,2236 1400,2236 C1398.89543,2236 1398,2235.10457 1398,2234 C1398,2232.89543 1398.89543,2232 1400,2232 Z M1268,2220 C1269.10457,2220 1270,2220.89543 1270,2222 C1270,2223.10457 1269.10457,2224 1268,2224 C1266.89543,2224 1266,2223.10457 1266,2222 C1266,2220.89543 1266.89543,2220 1268,2220 Z M1280,2220 C1281.10457,2220 1282,2220.89543 1282,2222 C1282,2223.10457 1281.10457,2224 1280,2224 C1278.89543,2224 1278,2223.10457 1278,2222 C1278,2220.89543 1278.89543,2220 1280,2220 Z M1292,2220 C1293.10457,2220 1294,2220.89543 1294,2222 C1294,2223.10457 1293.10457,2224 1292,2224 C1290.89543,2224 1290,2223.10457 1290,2222 C1290,2220.89543 1290.89543,2220 1292,2220 Z M1340,2220 C1341.10457,2220 1342,2220.89543 1342,2222 C1342,2223.10457 1341.10457,2224 1340,2224 C1338.89543,2224 1338,2223.10457 1338,2222 C1338,2220.89543 1338.89543,2220 1340,2220 Z M1352,2220 C1353.10457,2220 1354,2220.89543 1354,2222 C1354,2223.10457 1353.10457,2224 1352,2224 C1350.89543,2224 1350,2223.10457 1350,2222 C1350,2220.89543 1350.89543,2220 1352,2220 Z M1364,2220 C1365.10457,2220 1366,2220.89543 1366,2222 C1366,2223.10457 1365.10457,2224 1364,2224 C1362.89543,2224 1362,2223.10457 1362,2222 C1362,2220.89543 1362.89543,2220 1364,2220 Z M1400,2220 C1401.10457,2220 1402,2220.89543 1402,2222 C1402,2223.10457 1401.10457,2224 1400,2224 C1398.89543,2224 1398,2223.10457 1398,2222 C1398,2220.89543 1398.89543,2220 1400,2220 Z M1412,2220 C1413.10457,2220 1414,2220.89543 1414,2222 C1414,2223.10457 1413.10457,2224 1412,2224 C1410.89543,2224 1410,2223.10457 1410,2222 C1410,2220.89543 1410.89543,2220 1412,2220 Z M1424,2220 C1425.10457,2220 1426,2220.89543 1426,2222 C1426,2223.10457 1425.10457,2224 1424,2224 C1422.89543,2224 1422,2223.10457 1422,2222 C1422,2220.89543 1422.89543,2220 1424,2220 Z M1280,2208 C1281.10457,2208 1282,2208.89543 1282,2210 C1282,2211.10457 1281.10457,2212 1280,2212 C1278.89543,2212 1278,2211.10457 1278,2210 C1278,2208.89543 1278.89543,2208 1280,2208 Z M1292,2208 C1293.10457,2208 1294,2208.89543 1294,2210 C1294,2211.10457 1293.10457,2212 1292,2212 C1290.89543,2212 1290,2211.10457 1290,2210 C1290,2208.89543 1290.89543,2208 1292,2208 Z M1340,2208 C1341.10457,2208 1342,2208.89543 1342,2210 C1342,2211.10457 1341.10457,2212 1340,2212 C1338.89543,2212 1338,2211.10457 1338,2210 C1338,2208.89543 1338.89543,2208 1340,2208 Z M1352,2208 C1353.10457,2208 1354,2208.89543 1354,2210 C1354,2211.10457 1353.10457,2212 1352,2212 C1350.89543,2212 1350,2211.10457 1350,2210 C1350,2208.89543 1350.89543,2208 1352,2208 Z M1364,2208 C1365.10457,2208 1366,2208.89543 1366,2210 C1366,2211.10457 1365.10457,2212 1364,2212 C1362.89543,2212 1362,2211.10457 1362,2210 C1362,2208.89543 1362.89543,2208 1364,2208 Z" id="Combined-Shape-Copy-3" stroke="#E5E9F7" mask="url(#mask-2)"></path>
    </g>
</svg>