<?xml version="1.0" encoding="UTF-8"?>
<svg width="89px" height="88px" viewBox="0 0 89 88" version="1.1" xmlns="http://www.w3.org/2000/svg" xmlns:xlink="http://www.w3.org/1999/xlink">
    <!-- Generator: Sketch 64 (93537) - https://sketch.com -->
    <title>Combined Shape</title>
    <desc>Created with Sketch.</desc>
    <g id="Page-1" stroke="none" stroke-width="1" fill="none" fill-rule="evenodd">
        <g id="Product-–-VoltMesh-updated" transform="translate(-150.000000, -2981.000000)" stroke="#E5E9F7">
            <g id="Group-24" transform="translate(150.000000, 2981.000000)">
                <g id="Group-20">
                    <g id="Group-10">
                        <path d="M-22,83 C-20.8954305,83 -20,83.8954305 -20,85 C-20,86.1045695 -20.8954305,87 -22,87 C-23.1045695,87 -24,86.1045695 -24,85 C-24,83.8954305 -23.1045695,83 -22,83 Z M-10,83 C-8.8954305,83 -8,83.8954305 -8,85 C-8,86.1045695 -8.8954305,87 -10,87 C-11.1045695,87 -12,86.1045695 -12,85 C-12,83.8954305 -11.1045695,83 -10,83 Z M26,83 C27.1045695,83 28,83.8954305 28,85 C28,86.1045695 27.1045695,87 26,87 C24.8954305,87 24,86.1045695 24,85 C24,83.8954305 24.8954305,83 26,83 Z M38,83 C39.1045695,83 40,83.8954305 40,85 C40,86.1045695 39.1045695,87 38,87 C36.8954305,87 36,86.1045695 36,85 C36,83.8954305 36.8954305,83 38,83 Z M62,83 C63.1045695,83 64,83.8954305 64,85 C64,86.1045695 63.1045695,87 62,87 C60.8954305,87 60,86.1045695 60,85 C60,83.8954305 60.8954305,83 62,83 Z M74,83 C75.1045695,83 76,83.8954305 76,85 C76,86.1045695 75.1045695,87 74,87 C72.8954305,87 72,86.1045695 72,85 C72,83.8954305 72.8954305,83 74,83 Z M86,83 C87.1045695,83 88,83.8954305 88,85 C88,86.1045695 87.1045695,87 86,87 C84.8954305,87 84,86.1045695 84,85 C84,83.8954305 84.8954305,83 86,83 Z M38,71 C39.1045695,71 40,71.8954305 40,73 C40,74.1045695 39.1045695,75 38,75 C36.8954305,75 36,74.1045695 36,73 C36,71.8954305 36.8954305,71 38,71 Z M50,71 C51.1045695,71 52,71.8954305 52,73 C52,74.1045695 51.1045695,75 50,75 C48.8954305,75 48,74.1045695 48,73 C48,71.8954305 48.8954305,71 50,71 Z M86,71 C87.1045695,71 88,71.8954305 88,73 C88,74.1045695 87.1045695,75 86,75 C84.8954305,75 84,74.1045695 84,73 C84,71.8954305 84.8954305,71 86,71 Z M-46,71 C-44.8954305,71 -44,71.8954305 -44,73 C-44,74.1045695 -44.8954305,75 -46,75 C-47.1045695,75 -48,74.1045695 -48,73 C-48,71.8954305 -47.1045695,71 -46,71 Z M-22,71 C-20.8954305,71 -20,71.8954305 -20,73 C-20,74.1045695 -20.8954305,75 -22,75 C-23.1045695,75 -24,74.1045695 -24,73 C-24,71.8954305 -23.1045695,71 -22,71 Z M26,59 C27.1045695,59 28,59.8954305 28,61 C28,62.1045695 27.1045695,63 26,63 C24.8954305,63 24,62.1045695 24,61 C24,59.8954305 24.8954305,59 26,59 Z M38,59 C39.1045695,59 40,59.8954305 40,61 C40,62.1045695 39.1045695,63 38,63 C36.8954305,63 36,62.1045695 36,61 C36,59.8954305 36.8954305,59 38,59 Z M50,59 C51.1045695,59 52,59.8954305 52,61 C52,62.1045695 51.1045695,63 50,63 C48.8954305,63 48,62.1045695 48,61 C48,59.8954305 48.8954305,59 50,59 Z M86,59 C87.1045695,59 88,59.8954305 88,61 C88,62.1045695 87.1045695,63 86,63 C84.8954305,63 84,62.1045695 84,61 C84,59.8954305 84.8954305,59 86,59 Z M-46,59 C-44.8954305,59 -44,59.8954305 -44,61 C-44,62.1045695 -44.8954305,63 -46,63 C-47.1045695,63 -48,62.1045695 -48,61 C-48,59.8954305 -47.1045695,59 -46,59 Z M-34,59 C-32.8954305,59 -32,59.8954305 -32,61 C-32,62.1045695 -32.8954305,63 -34,63 C-35.1045695,63 -36,62.1045695 -36,61 C-36,59.8954305 -35.1045695,59 -34,59 Z M-22,59 C-20.8954305,59 -20,59.8954305 -20,61 C-20,62.1045695 -20.8954305,63 -22,63 C-23.1045695,63 -24,62.1045695 -24,61 C-24,59.8954305 -23.1045695,59 -22,59 Z M14,59 C15.1045695,59 16,59.8954305 16,61 C16,62.1045695 15.1045695,63 14,63 C12.8954305,63 12,62.1045695 12,61 C12,59.8954305 12.8954305,59 14,59 Z M50,47 C51.1045695,47 52,47.8954305 52,49 C52,50.1045695 51.1045695,51 50,51 C48.8954305,51 48,50.1045695 48,49 C48,47.8954305 48.8954305,47 50,47 Z M74,47 C75.1045695,47 76,47.8954305 76,49 C76,50.1045695 75.1045695,51 74,51 C72.8954305,51 72,50.1045695 72,49 C72,47.8954305 72.8954305,47 74,47 Z M86,47 C87.1045695,47 88,47.8954305 88,49 C88,50.1045695 87.1045695,51 86,51 C84.8954305,51 84,50.1045695 84,49 C84,47.8954305 84.8954305,47 86,47 Z M-46,47 C-44.8954305,47 -44,47.8954305 -44,49 C-44,50.1045695 -44.8954305,51 -46,51 C-47.1045695,51 -48,50.1045695 -48,49 C-48,47.8954305 -47.1045695,47 -46,47 Z M-34,47 C-32.8954305,47 -32,47.8954305 -32,49 C-32,50.1045695 -32.8954305,51 -34,51 C-35.1045695,51 -36,50.1045695 -36,49 C-36,47.8954305 -35.1045695,47 -34,47 Z M14,47 C15.1045695,47 16,47.8954305 16,49 C16,50.1045695 15.1045695,51 14,51 C12.8954305,51 12,50.1045695 12,49 C12,47.8954305 12.8954305,47 14,47 Z M26,47 C27.1045695,47 28,47.8954305 28,49 C28,50.1045695 27.1045695,51 26,51 C24.8954305,51 24,50.1045695 24,49 C24,47.8954305 24.8954305,47 26,47 Z M38,47 C39.1045695,47 40,47.8954305 40,49 C40,50.1045695 39.1045695,51 38,51 C36.8954305,51 36,50.1045695 36,49 C36,47.8954305 36.8954305,47 38,47 Z M74,35 C75.1045695,35 76,35.8954305 76,37 C76,38.1045695 75.1045695,39 74,39 C72.8954305,39 72,38.1045695 72,37 C72,35.8954305 72.8954305,35 74,35 Z M86,35 C87.1045695,35 88,35.8954305 88,37 C88,38.1045695 87.1045695,39 86,39 C84.8954305,39 84,38.1045695 84,37 C84,35.8954305 84.8954305,35 86,35 Z M-34,35 C-32.8954305,35 -32,35.8954305 -32,37 C-32,38.1045695 -32.8954305,39 -34,39 C-35.1045695,39 -36,38.1045695 -36,37 C-36,35.8954305 -35.1045695,35 -34,35 Z M14,35 C15.1045695,35 16,35.8954305 16,37 C16,38.1045695 15.1045695,39 14,39 C12.8954305,39 12,38.1045695 12,37 C12,35.8954305 12.8954305,35 14,35 Z M26,35 C27.1045695,35 28,35.8954305 28,37 C28,38.1045695 27.1045695,39 26,39 C24.8954305,39 24,38.1045695 24,37 C24,35.8954305 24.8954305,35 26,35 Z M-22,35 C-20.8954305,35 -20,35.8954305 -20,37 C-20,38.1045695 -20.8954305,39 -22,39 C-23.1045695,39 -24,38.1045695 -24,37 C-24,35.8954305 -23.1045695,35 -22,35 Z M-10,35 C-8.8954305,35 -8,35.8954305 -8,37 C-8,38.1045695 -8.8954305,39 -10,39 C-11.1045695,39 -12,38.1045695 -12,37 C-12,35.8954305 -11.1045695,35 -10,35 Z M2,35 C3.1045695,35 4,35.8954305 4,37 C4,38.1045695 3.1045695,39 2,39 C0.8954305,39 0,38.1045695 0,37 C0,35.8954305 0.8954305,35 2,35 Z M62,35 C63.1045695,35 64,35.8954305 64,37 C64,38.1045695 63.1045695,39 62,39 C60.8954305,39 60,38.1045695 60,37 C60,35.8954305 60.8954305,35 62,35 Z M50,35 C51.1045695,35 52,35.8954305 52,37 C52,38.1045695 51.1045695,39 50,39 C48.8954305,39 48,38.1045695 48,37 C48,35.8954305 48.8954305,35 50,35 Z M2,23 C3.1045695,23 4,23.8954305 4,25 C4,26.1045695 3.1045695,27 2,27 C0.8954305,27 0,26.1045695 0,25 C0,23.8954305 0.8954305,23 2,23 Z M86,23 C87.1045695,23 88,23.8954305 88,25 C88,26.1045695 87.1045695,27 86,27 C84.8954305,27 84,26.1045695 84,25 C84,23.8954305 84.8954305,23 86,23 Z M-10,23 C-8.8954305,23 -8,23.8954305 -8,25 C-8,26.1045695 -8.8954305,27 -10,27 C-11.1045695,27 -12,26.1045695 -12,25 C-12,23.8954305 -11.1045695,23 -10,23 Z M14,23 C15.1045695,23 16,23.8954305 16,25 C16,26.1045695 15.1045695,27 14,27 C12.8954305,27 12,26.1045695 12,25 C12,23.8954305 12.8954305,23 14,23 Z M26,23 C27.1045695,23 28,23.8954305 28,25 C28,26.1045695 27.1045695,27 26,27 C24.8954305,27 24,26.1045695 24,25 C24,23.8954305 24.8954305,23 26,23 Z M38,23 C39.1045695,23 40,23.8954305 40,25 C40,26.1045695 39.1045695,27 38,27 C36.8954305,27 36,26.1045695 36,25 C36,23.8954305 36.8954305,23 38,23 Z M50,23 C51.1045695,23 52,23.8954305 52,25 C52,26.1045695 51.1045695,27 50,27 C48.8954305,27 48,26.1045695 48,25 C48,23.8954305 48.8954305,23 50,23 Z M62,23 C63.1045695,23 64,23.8954305 64,25 C64,26.1045695 63.1045695,27 62,27 C60.8954305,27 60,26.1045695 60,25 C60,23.8954305 60.8954305,23 62,23 Z M74,23 C75.1045695,23 76,23.8954305 76,25 C76,26.1045695 75.1045695,27 74,27 C72.8954305,27 72,26.1045695 72,25 C72,23.8954305 72.8954305,23 74,23 Z M-22,11 C-20.8954305,11 -20,11.8954305 -20,13 C-20,14.1045695 -20.8954305,15 -22,15 C-23.1045695,15 -24,14.1045695 -24,13 C-24,11.8954305 -23.1045695,11 -22,11 Z M26,11 C27.1045695,11 28,11.8954305 28,13 C28,14.1045695 27.1045695,15 26,15 C24.8954305,15 24,14.1045695 24,13 C24,11.8954305 24.8954305,11 26,11 Z M50,11 C51.1045695,11 52,11.8954305 52,13 C52,14.1045695 51.1045695,15 50,15 C48.8954305,15 48,14.1045695 48,13 C48,11.8954305 48.8954305,11 50,11 Z M38,11 C39.1045695,11 40,11.8954305 40,13 C40,14.1045695 39.1045695,15 38,15 C36.8954305,15 36,14.1045695 36,13 C36,11.8954305 36.8954305,11 38,11 Z M86,11 C87.1045695,11 88,11.8954305 88,13 C88,14.1045695 87.1045695,15 86,15 C84.8954305,15 84,14.1045695 84,13 C84,11.8954305 84.8954305,11 86,11 Z M62,11 C63.1045695,11 64,11.8954305 64,13 C64,14.1045695 63.1045695,15 62,15 C60.8954305,15 60,14.1045695 60,13 C60,11.8954305 60.8954305,11 62,11 Z M14,11 C15.1045695,11 16,11.8954305 16,13 C16,14.1045695 15.1045695,15 14,15 C12.8954305,15 12,14.1045695 12,13 C12,11.8954305 12.8954305,11 14,11 Z M2,11 C3.1045695,11 4,11.8954305 4,13 C4,14.1045695 3.1045695,15 2,15 C0.8954305,15 0,14.1045695 0,13 C0,11.8954305 0.8954305,11 2,11 Z M-10,11 C-8.8954305,11 -8,11.8954305 -8,13 C-8,14.1045695 -8.8954305,15 -10,15 C-11.1045695,15 -12,14.1045695 -12,13 C-12,11.8954305 -11.1045695,11 -10,11 Z M2,-1 C3.1045695,-1 4,-0.1045695 4,1 C4,2.1045695 3.1045695,3 2,3 C0.8954305,3 0,2.1045695 0,1 C0,-0.1045695 0.8954305,-1 2,-1 Z M14,-1 C15.1045695,-1 16,-0.1045695 16,1 C16,2.1045695 15.1045695,3 14,3 C12.8954305,3 12,2.1045695 12,1 C12,-0.1045695 12.8954305,-1 14,-1 Z M62,-1 C63.1045695,-1 64,-0.1045695 64,1 C64,2.1045695 63.1045695,3 62,3 C60.8954305,3 60,2.1045695 60,1 C60,-0.1045695 60.8954305,-1 62,-1 Z M74,-1 C75.1045695,-1 76,-0.1045695 76,1 C76,2.1045695 75.1045695,3 74,3 C72.8954305,3 72,2.1045695 72,1 C72,-0.1045695 72.8954305,-1 74,-1 Z M38,-1 C39.1045695,-1 40,-0.1045695 40,1 C40,2.1045695 39.1045695,3 38,3 C36.8954305,3 36,2.1045695 36,1 C36,-0.1045695 36.8954305,-1 38,-1 Z M50,-1 C51.1045695,-1 52,-0.1045695 52,1 C52,2.1045695 51.1045695,3 50,3 C48.8954305,3 48,2.1045695 48,1 C48,-0.1045695 48.8954305,-1 50,-1 Z M-34,-1 C-32.8954305,-1 -32,-0.1045695 -32,1 C-32,2.1045695 -32.8954305,3 -34,3 C-35.1045695,3 -36,2.1045695 -36,1 C-36,-0.1045695 -35.1045695,-1 -34,-1 Z M-22,-1 C-20.8954305,-1 -20,-0.1045695 -20,1 C-20,2.1045695 -20.8954305,3 -22,3 C-23.1045695,3 -24,2.1045695 -24,1 C-24,-0.1045695 -23.1045695,-1 -22,-1 Z M86,-1 C87.1045695,-1 88,-0.1045695 88,1 C88,2.1045695 87.1045695,3 86,3 C84.8954305,3 84,2.1045695 84,1 C84,-0.1045695 84.8954305,-1 86,-1 Z M-46,-1 C-44.8954305,-1 -44,-0.1045695 -44,1 C-44,2.1045695 -44.8954305,3 -46,3 C-47.1045695,3 -48,2.1045695 -48,1 C-48,-0.1045695 -47.1045695,-1 -46,-1 Z M74,-13 C75.1045695,-13 76,-12.1045695 76,-11 C76,-9.8954305 75.1045695,-9 74,-9 C72.8954305,-9 72,-9.8954305 72,-11 C72,-12.1045695 72.8954305,-13 74,-13 Z M26,-13 C27.1045695,-13 28,-12.1045695 28,-11 C28,-9.8954305 27.1045695,-9 26,-9 C24.8954305,-9 24,-9.8954305 24,-11 C24,-12.1045695 24.8954305,-13 26,-13 Z M-34,-13 C-32.8954305,-13 -32,-12.1045695 -32,-11 C-32,-9.8954305 -32.8954305,-9 -34,-9 C-35.1045695,-9 -36,-9.8954305 -36,-11 C-36,-12.1045695 -35.1045695,-13 -34,-13 Z M2,-13 C3.1045695,-13 4,-12.1045695 4,-11 C4,-9.8954305 3.1045695,-9 2,-9 C0.8954305,-9 0,-9.8954305 0,-11 C0,-12.1045695 0.8954305,-13 2,-13 Z M-22,-13 C-20.8954305,-13 -20,-12.1045695 -20,-11 C-20,-9.8954305 -20.8954305,-9 -22,-9 C-23.1045695,-9 -24,-9.8954305 -24,-11 C-24,-12.1045695 -23.1045695,-13 -22,-13 Z M-10,-13 C-8.8954305,-13 -8,-12.1045695 -8,-11 C-8,-9.8954305 -8.8954305,-9 -10,-9 C-11.1045695,-9 -12,-9.8954305 -12,-11 C-12,-12.1045695 -11.1045695,-13 -10,-13 Z M14,-13 C15.1045695,-13 16,-12.1045695 16,-11 C16,-9.8954305 15.1045695,-9 14,-9 C12.8954305,-9 12,-9.8954305 12,-11 C12,-12.1045695 12.8954305,-13 14,-13 Z M62,-13 C63.1045695,-13 64,-12.1045695 64,-11 C64,-9.8954305 63.1045695,-9 62,-9 C60.8954305,-9 60,-9.8954305 60,-11 C60,-12.1045695 60.8954305,-13 62,-13 Z M-46,-13 C-44.8954305,-13 -44,-12.1045695 -44,-11 C-44,-9.8954305 -44.8954305,-9 -46,-9 C-47.1045695,-9 -48,-9.8954305 -48,-11 C-48,-12.1045695 -47.1045695,-13 -46,-13 Z M50,-13 C51.1045695,-13 52,-12.1045695 52,-11 C52,-9.8954305 51.1045695,-9 50,-9 C48.8954305,-9 48,-9.8954305 48,-11 C48,-12.1045695 48.8954305,-13 50,-13 Z M38,-25 C39.1045695,-25 40,-24.1045695 40,-23 C40,-21.8954305 39.1045695,-21 38,-21 C36.8954305,-21 36,-21.8954305 36,-23 C36,-24.1045695 36.8954305,-25 38,-25 Z M14,-25 C15.1045695,-25 16,-24.1045695 16,-23 C16,-21.8954305 15.1045695,-21 14,-21 C12.8954305,-21 12,-21.8954305 12,-23 C12,-24.1045695 12.8954305,-25 14,-25 Z M-46,-25 C-44.8954305,-25 -44,-24.1045695 -44,-23 C-44,-21.8954305 -44.8954305,-21 -46,-21 C-47.1045695,-21 -48,-21.8954305 -48,-23 C-48,-24.1045695 -47.1045695,-25 -46,-25 Z M62,-25 C63.1045695,-25 64,-24.1045695 64,-23 C64,-21.8954305 63.1045695,-21 62,-21 C60.8954305,-21 60,-21.8954305 60,-23 C60,-24.1045695 60.8954305,-25 62,-25 Z M26,-25 C27.1045695,-25 28,-24.1045695 28,-23 C28,-21.8954305 27.1045695,-21 26,-21 C24.8954305,-21 24,-21.8954305 24,-23 C24,-24.1045695 24.8954305,-25 26,-25 Z M-34,-25 C-32.8954305,-25 -32,-24.1045695 -32,-23 C-32,-21.8954305 -32.8954305,-21 -34,-21 C-35.1045695,-21 -36,-21.8954305 -36,-23 C-36,-24.1045695 -35.1045695,-25 -34,-25 Z M-10,-25 C-8.8954305,-25 -8,-24.1045695 -8,-23 C-8,-21.8954305 -8.8954305,-21 -10,-21 C-11.1045695,-21 -12,-21.8954305 -12,-23 C-12,-24.1045695 -11.1045695,-25 -10,-25 Z M50,-25 C51.1045695,-25 52,-24.1045695 52,-23 C52,-21.8954305 51.1045695,-21 50,-21 C48.8954305,-21 48,-21.8954305 48,-23 C48,-24.1045695 48.8954305,-25 50,-25 Z M-46,-37 C-44.8954305,-37 -44,-36.1045695 -44,-35 C-44,-33.8954305 -44.8954305,-33 -46,-33 C-47.1045695,-33 -48,-33.8954305 -48,-35 C-48,-36.1045695 -47.1045695,-37 -46,-37 Z M-34,-37 C-32.8954305,-37 -32,-36.1045695 -32,-35 C-32,-33.8954305 -32.8954305,-33 -34,-33 C-35.1045695,-33 -36,-33.8954305 -36,-35 C-36,-36.1045695 -35.1045695,-37 -34,-37 Z M-22,-37 C-20.8954305,-37 -20,-36.1045695 -20,-35 C-20,-33.8954305 -20.8954305,-33 -22,-33 C-23.1045695,-33 -24,-33.8954305 -24,-35 C-24,-36.1045695 -23.1045695,-37 -22,-37 Z M2,-37 C3.1045695,-37 4,-36.1045695 4,-35 C4,-33.8954305 3.1045695,-33 2,-33 C0.8954305,-33 0,-33.8954305 0,-35 C0,-36.1045695 0.8954305,-37 2,-37 Z M14,-37 C15.1045695,-37 16,-36.1045695 16,-35 C16,-33.8954305 15.1045695,-33 14,-33 C12.8954305,-33 12,-33.8954305 12,-35 C12,-36.1045695 12.8954305,-37 14,-37 Z M38,-37 C39.1045695,-37 40,-36.1045695 40,-35 C40,-33.8954305 39.1045695,-33 38,-33 C36.8954305,-33 36,-33.8954305 36,-35 C36,-36.1045695 36.8954305,-37 38,-37 Z M50,-37 C51.1045695,-37 52,-36.1045695 52,-35 C52,-33.8954305 51.1045695,-33 50,-33 C48.8954305,-33 48,-33.8954305 48,-35 C48,-36.1045695 48.8954305,-37 50,-37 Z M-46,-49 C-44.8954305,-49 -44,-48.1045695 -44,-47 C-44,-45.8954305 -44.8954305,-45 -46,-45 C-47.1045695,-45 -48,-45.8954305 -48,-47 C-48,-48.1045695 -47.1045695,-49 -46,-49 Z M-22,-49 C-20.8954305,-49 -20,-48.1045695 -20,-47 C-20,-45.8954305 -20.8954305,-45 -22,-45 C-23.1045695,-45 -24,-45.8954305 -24,-47 C-24,-48.1045695 -23.1045695,-49 -22,-49 Z M-10,-49 C-8.8954305,-49 -8,-48.1045695 -8,-47 C-8,-45.8954305 -8.8954305,-45 -10,-45 C-11.1045695,-45 -12,-45.8954305 -12,-47 C-12,-48.1045695 -11.1045695,-49 -10,-49 Z M2,-49 C3.1045695,-49 4,-48.1045695 4,-47 C4,-45.8954305 3.1045695,-45 2,-45 C0.8954305,-45 0,-45.8954305 0,-47 C0,-48.1045695 0.8954305,-49 2,-49 Z M38,-49 C39.1045695,-49 40,-48.1045695 40,-47 C40,-45.8954305 39.1045695,-45 38,-45 C36.8954305,-45 36,-45.8954305 36,-47 C36,-48.1045695 36.8954305,-49 38,-49 Z M50,-49 C51.1045695,-49 52,-48.1045695 52,-47 C52,-45.8954305 51.1045695,-45 50,-45 C48.8954305,-45 48,-45.8954305 48,-47 C48,-48.1045695 48.8954305,-49 50,-49 Z M62,-49 C63.1045695,-49 64,-48.1045695 64,-47 C64,-45.8954305 63.1045695,-45 62,-45 C60.8954305,-45 60,-45.8954305 60,-47 C60,-48.1045695 60.8954305,-49 62,-49 Z" id="Combined-Shape"></path>
                    </g>
                </g>
            </g>
        </g>
    </g>
</svg>