<svg xmlns="http://www.w3.org/2000/svg" width="138" height="137" viewBox="0 0 138 137">
    <path fill="none" fill-rule="evenodd" stroke="#FFF" d="M27 132.03c1.105 0 2 .888 2 1.985 0 1.096-.895 1.985-2 1.985s-2-.889-2-1.985c0-1.097.895-1.986 2-1.986zm12 0c1.105 0 2 .888 2 1.985 0 1.096-.895 1.985-2 1.985s-2-.889-2-1.985c0-1.097.895-1.986 2-1.986zm36 0c1.105 0 2 .888 2 1.985 0 1.096-.895 1.985-2 1.985s-2-.889-2-1.985c0-1.097.895-1.986 2-1.986zm12 0c1.105 0 2 .888 2 1.985 0 1.096-.895 1.985-2 1.985s-2-.889-2-1.985c0-1.097.895-1.986 2-1.986zm24 0c1.105 0 2 .888 2 1.985 0 1.096-.895 1.985-2 1.985s-2-.889-2-1.985c0-1.097.895-1.986 2-1.986zm12 0c1.105 0 2 .888 2 1.985 0 1.096-.895 1.985-2 1.985s-2-.889-2-1.985c0-1.097.895-1.986 2-1.986zm12 0c1.105 0 2 .888 2 1.985 0 1.096-.895 1.985-2 1.985s-2-.889-2-1.985c0-1.097.895-1.986 2-1.986zm-48-11.912c1.105 0 2 .888 2 1.985 0 1.096-.895 1.985-2 1.985s-2-.889-2-1.985c0-1.097.895-1.985 2-1.985zm12 0c1.105 0 2 .888 2 1.985 0 1.096-.895 1.985-2 1.985s-2-.889-2-1.985c0-1.097.895-1.985 2-1.985zm36 0c1.105 0 2 .888 2 1.985 0 1.096-.895 1.985-2 1.985s-2-.889-2-1.985c0-1.097.895-1.985 2-1.985zm-132 0c1.105 0 2 .888 2 1.985 0 1.096-.895 1.985-2 1.985s-2-.889-2-1.985c0-1.097.895-1.985 2-1.985zm24 0c1.105 0 2 .888 2 1.985 0 1.096-.895 1.985-2 1.985s-2-.889-2-1.985c0-1.097.895-1.985 2-1.985zm48-11.912c1.105 0 2 .889 2 1.985 0 1.097-.895 1.985-2 1.985s-2-.888-2-1.985c0-1.096.895-1.985 2-1.985zm12 0c1.105 0 2 .889 2 1.985 0 1.097-.895 1.985-2 1.985s-2-.888-2-1.985c0-1.096.895-1.985 2-1.985zm12 0c1.105 0 2 .889 2 1.985 0 1.097-.895 1.985-2 1.985s-2-.888-2-1.985c0-1.096.895-1.985 2-1.985zm36 0c1.105 0 2 .889 2 1.985 0 1.097-.895 1.985-2 1.985s-2-.888-2-1.985c0-1.096.895-1.985 2-1.985zm-132 0c1.105 0 2 .889 2 1.985 0 1.097-.895 1.985-2 1.985s-2-.888-2-1.985c0-1.096.895-1.985 2-1.985zm12 0c1.105 0 2 .889 2 1.985 0 1.097-.895 1.985-2 1.985s-2-.888-2-1.985c0-1.096.895-1.985 2-1.985zm12 0c1.105 0 2 .889 2 1.985 0 1.097-.895 1.985-2 1.985s-2-.888-2-1.985c0-1.096.895-1.985 2-1.985zm36 0c1.105 0 2 .889 2 1.985 0 1.097-.895 1.985-2 1.985s-2-.888-2-1.985c0-1.096.895-1.985 2-1.985zm36-11.912c1.105 0 2 .889 2 1.985 0 1.097-.895 1.986-2 1.986s-2-.89-2-1.986.895-1.985 2-1.985zm24 0c1.105 0 2 .889 2 1.985 0 1.097-.895 1.986-2 1.986s-2-.89-2-1.986.895-1.985 2-1.985zm12 0c1.105 0 2 .889 2 1.985 0 1.097-.895 1.986-2 1.986s-2-.89-2-1.986.895-1.985 2-1.985zm-132 0c1.105 0 2 .889 2 1.985 0 1.097-.895 1.986-2 1.986s-2-.89-2-1.986.895-1.985 2-1.985zm12 0c1.105 0 2 .889 2 1.985 0 1.097-.895 1.986-2 1.986s-2-.89-2-1.986.895-1.985 2-1.985zm48 0c1.105 0 2 .889 2 1.985 0 1.097-.895 1.986-2 1.986s-2-.89-2-1.986.895-1.985 2-1.985zm12 0c1.105 0 2 .889 2 1.985 0 1.097-.895 1.986-2 1.986s-2-.89-2-1.986.895-1.985 2-1.985zm12 0c1.105 0 2 .889 2 1.985 0 1.097-.895 1.986-2 1.986s-2-.89-2-1.986.895-1.985 2-1.985zm36-11.912c1.105 0 2 .89 2 1.986s-.895 1.985-2 1.985-2-.889-2-1.985c0-1.097.895-1.986 2-1.986zm12 0c1.105 0 2 .89 2 1.986s-.895 1.985-2 1.985-2-.889-2-1.985c0-1.097.895-1.986 2-1.986zm-120 0c1.105 0 2 .89 2 1.986s-.895 1.985-2 1.985-2-.889-2-1.985c0-1.097.895-1.986 2-1.986zm48 0c1.105 0 2 .89 2 1.986s-.895 1.985-2 1.985-2-.889-2-1.985c0-1.097.895-1.986 2-1.986zm12 0c1.105 0 2 .89 2 1.986s-.895 1.985-2 1.985-2-.889-2-1.985c0-1.097.895-1.986 2-1.986zm-48 0c1.105 0 2 .89 2 1.986s-.895 1.985-2 1.985-2-.889-2-1.985c0-1.097.895-1.986 2-1.986zm12 0c1.105 0 2 .89 2 1.986s-.895 1.985-2 1.985-2-.889-2-1.985c0-1.097.895-1.986 2-1.986zm12 0c1.105 0 2 .89 2 1.986s-.895 1.985-2 1.985-2-.889-2-1.985c0-1.097.895-1.986 2-1.986zm60 0c1.105 0 2 .89 2 1.986s-.895 1.985-2 1.985-2-.889-2-1.985c0-1.097.895-1.986 2-1.986zm-12 0c1.105 0 2 .89 2 1.986s-.895 1.985-2 1.985-2-.889-2-1.985c0-1.097.895-1.986 2-1.986zM51 72.471c1.105 0 2 .888 2 1.985 0 1.096-.895 1.985-2 1.985s-2-.889-2-1.985c0-1.097.895-1.985 2-1.985zm84 0c1.105 0 2 .888 2 1.985 0 1.096-.895 1.985-2 1.985s-2-.889-2-1.985c0-1.097.895-1.985 2-1.985zm-96 0c1.105 0 2 .888 2 1.985 0 1.096-.895 1.985-2 1.985s-2-.889-2-1.985c0-1.097.895-1.985 2-1.985zm24 0c1.105 0 2 .888 2 1.985 0 1.096-.895 1.985-2 1.985s-2-.889-2-1.985c0-1.097.895-1.985 2-1.985zm12 0c1.105 0 2 .888 2 1.985 0 1.096-.895 1.985-2 1.985s-2-.889-2-1.985c0-1.097.895-1.985 2-1.985zm12 0c1.105 0 2 .888 2 1.985 0 1.096-.895 1.985-2 1.985s-2-.889-2-1.985c0-1.097.895-1.985 2-1.985zm12 0c1.105 0 2 .888 2 1.985 0 1.096-.895 1.985-2 1.985s-2-.889-2-1.985c0-1.097.895-1.985 2-1.985zm12 0c1.105 0 2 .888 2 1.985 0 1.096-.895 1.985-2 1.985s-2-.889-2-1.985c0-1.097.895-1.985 2-1.985zm12 0c1.105 0 2 .888 2 1.985 0 1.096-.895 1.985-2 1.985s-2-.889-2-1.985c0-1.097.895-1.985 2-1.985zM27 60.559c1.105 0 2 .889 2 1.985 0 1.097-.895 1.985-2 1.985s-2-.888-2-1.985c0-1.096.895-1.985 2-1.985zm48 0c1.105 0 2 .889 2 1.985 0 1.097-.895 1.985-2 1.985s-2-.888-2-1.985c0-1.096.895-1.985 2-1.985zm24 0c1.105 0 2 .889 2 1.985 0 1.097-.895 1.985-2 1.985s-2-.888-2-1.985c0-1.096.895-1.985 2-1.985zm-12 0c1.105 0 2 .889 2 1.985 0 1.097-.895 1.985-2 1.985s-2-.888-2-1.985c0-1.096.895-1.985 2-1.985zm48 0c1.105 0 2 .889 2 1.985 0 1.097-.895 1.985-2 1.985s-2-.888-2-1.985c0-1.096.895-1.985 2-1.985zm-24 0c1.105 0 2 .889 2 1.985 0 1.097-.895 1.985-2 1.985s-2-.888-2-1.985c0-1.096.895-1.985 2-1.985zm-48 0c1.105 0 2 .889 2 1.985 0 1.097-.895 1.985-2 1.985s-2-.888-2-1.985c0-1.096.895-1.985 2-1.985zm-12 0c1.105 0 2 .889 2 1.985 0 1.097-.895 1.985-2 1.985s-2-.888-2-1.985c0-1.096.895-1.985 2-1.985zm-12 0c1.105 0 2 .889 2 1.985 0 1.097-.895 1.985-2 1.985s-2-.888-2-1.985c0-1.096.895-1.985 2-1.985zm12-11.912c1.105 0 2 .889 2 1.985 0 1.097-.895 1.986-2 1.986s-2-.89-2-1.986.895-1.985 2-1.985zm12 0c1.105 0 2 .889 2 1.985 0 1.097-.895 1.986-2 1.986s-2-.89-2-1.986.895-1.985 2-1.985zm48 0c1.105 0 2 .889 2 1.985 0 1.097-.895 1.986-2 1.986s-2-.89-2-1.986.895-1.985 2-1.985zm12 0c1.105 0 2 .889 2 1.985 0 1.097-.895 1.986-2 1.986s-2-.89-2-1.986.895-1.985 2-1.985zm-36 0c1.105 0 2 .889 2 1.985 0 1.097-.895 1.986-2 1.986s-2-.89-2-1.986.895-1.985 2-1.985zm12 0c1.105 0 2 .889 2 1.985 0 1.097-.895 1.986-2 1.986s-2-.89-2-1.986.895-1.985 2-1.985zm-84 0c1.105 0 2 .889 2 1.985 0 1.097-.895 1.986-2 1.986s-2-.89-2-1.986.895-1.985 2-1.985zm12 0c1.105 0 2 .889 2 1.985 0 1.097-.895 1.986-2 1.986s-2-.89-2-1.986.895-1.985 2-1.985zm108 0c1.105 0 2 .889 2 1.985 0 1.097-.895 1.986-2 1.986s-2-.89-2-1.986.895-1.985 2-1.985zm-132 0c1.105 0 2 .889 2 1.985 0 1.097-.895 1.986-2 1.986s-2-.89-2-1.986.895-1.985 2-1.985zm120-11.912c1.105 0 2 .89 2 1.986s-.895 1.985-2 1.985-2-.889-2-1.985c0-1.097.895-1.986 2-1.986zm-48 0c1.105 0 2 .89 2 1.986s-.895 1.985-2 1.985-2-.889-2-1.985c0-1.097.895-1.986 2-1.986zm-60 0c1.105 0 2 .89 2 1.986s-.895 1.985-2 1.985-2-.889-2-1.985c0-1.097.895-1.986 2-1.986zm36 0c1.105 0 2 .89 2 1.986s-.895 1.985-2 1.985-2-.889-2-1.985c0-1.097.895-1.986 2-1.986zm-24 0c1.105 0 2 .89 2 1.986s-.895 1.985-2 1.985-2-.889-2-1.985c0-1.097.895-1.986 2-1.986zm12 0c1.105 0 2 .89 2 1.986s-.895 1.985-2 1.985-2-.889-2-1.985c0-1.097.895-1.986 2-1.986zm24 0c1.105 0 2 .89 2 1.986s-.895 1.985-2 1.985-2-.889-2-1.985c0-1.097.895-1.986 2-1.986zm48 0c1.105 0 2 .89 2 1.986s-.895 1.985-2 1.985-2-.889-2-1.985c0-1.097.895-1.986 2-1.986zm-108 0c1.105 0 2 .89 2 1.986s-.895 1.985-2 1.985-2-.889-2-1.985c0-1.097.895-1.986 2-1.986zm96 0c1.105 0 2 .89 2 1.986s-.895 1.985-2 1.985-2-.889-2-1.985c0-1.097.895-1.986 2-1.986zM87 24.824c1.105 0 2 .888 2 1.985 0 1.096-.895 1.985-2 1.985s-2-.889-2-1.985c0-1.097.895-1.985 2-1.985zm-24 0c1.105 0 2 .888 2 1.985 0 1.096-.895 1.985-2 1.985s-2-.889-2-1.985c0-1.097.895-1.985 2-1.985zm-60 0c1.105 0 2 .888 2 1.985 0 1.096-.895 1.985-2 1.985s-2-.889-2-1.985c0-1.097.895-1.985 2-1.985zm108 0c1.105 0 2 .888 2 1.985 0 1.096-.895 1.985-2 1.985s-2-.889-2-1.985c0-1.097.895-1.985 2-1.985zm-36 0c1.105 0 2 .888 2 1.985 0 1.096-.895 1.985-2 1.985s-2-.889-2-1.985c0-1.097.895-1.985 2-1.985zm-60 0c1.105 0 2 .888 2 1.985 0 1.096-.895 1.985-2 1.985s-2-.889-2-1.985c0-1.097.895-1.985 2-1.985zm24 0c1.105 0 2 .888 2 1.985 0 1.096-.895 1.985-2 1.985s-2-.889-2-1.985c0-1.097.895-1.985 2-1.985zm60 0c1.105 0 2 .888 2 1.985 0 1.096-.895 1.985-2 1.985s-2-.889-2-1.985c0-1.097.895-1.985 2-1.985zM3 12.912c1.105 0 2 .889 2 1.985 0 1.097-.895 1.985-2 1.985s-2-.888-2-1.985c0-1.096.895-1.985 2-1.985zm12 0c1.105 0 2 .889 2 1.985 0 1.097-.895 1.985-2 1.985s-2-.888-2-1.985c0-1.096.895-1.985 2-1.985zm12 0c1.105 0 2 .889 2 1.985 0 1.097-.895 1.985-2 1.985s-2-.888-2-1.985c0-1.096.895-1.985 2-1.985zm24 0c1.105 0 2 .889 2 1.985 0 1.097-.895 1.985-2 1.985s-2-.888-2-1.985c0-1.096.895-1.985 2-1.985zm12 0c1.105 0 2 .889 2 1.985 0 1.097-.895 1.985-2 1.985s-2-.888-2-1.985c0-1.096.895-1.985 2-1.985zm24 0c1.105 0 2 .889 2 1.985 0 1.097-.895 1.985-2 1.985s-2-.888-2-1.985c0-1.096.895-1.985 2-1.985zm12 0c1.105 0 2 .889 2 1.985 0 1.097-.895 1.985-2 1.985s-2-.888-2-1.985c0-1.096.895-1.985 2-1.985zM3 1c1.105 0 2 .889 2 1.985 0 1.097-.895 1.986-2 1.986s-2-.89-2-1.986S1.895 1 3 1zm24 0c1.105 0 2 .889 2 1.985 0 1.097-.895 1.986-2 1.986s-2-.89-2-1.986S25.895 1 27 1zm12 0c1.105 0 2 .889 2 1.985 0 1.097-.895 1.986-2 1.986s-2-.89-2-1.986S37.895 1 39 1zm12 0c1.105 0 2 .889 2 1.985 0 1.097-.895 1.986-2 1.986s-2-.89-2-1.986S49.895 1 51 1zm36 0c1.105 0 2 .889 2 1.985 0 1.097-.895 1.986-2 1.986s-2-.89-2-1.986S85.895 1 87 1zm12 0c1.105 0 2 .889 2 1.985 0 1.097-.895 1.986-2 1.986s-2-.89-2-1.986S97.895 1 99 1zm12 0c1.105 0 2 .889 2 1.985 0 1.097-.895 1.986-2 1.986s-2-.89-2-1.986S109.895 1 111 1z" opacity=".1"/>
</svg>
