<svg xmlns="http://www.w3.org/2000/svg" viewBox="0 0 1044.27 336.68"><defs><style>.cls-1,.cls-6{fill:#fff;}.cls-2,.cls-4,.cls-5,.cls-7{fill:none;}.cls-2,.cls-4,.cls-5,.cls-6,.cls-7{stroke:#38313d;}.cls-2,.cls-4,.cls-5{stroke-linecap:round;stroke-linejoin:round;}.cls-2{stroke-dasharray:6.01 6.01;}.cls-3{fill:#38313d;}.cls-5{stroke-dasharray:7.41 7.41;}.cls-6,.cls-7{stroke-miterlimit:10;}</style></defs><title>Asset 4</title><g id="Layer_2" data-name="Layer 2"><g id="F5_Dynamic_Traffic_Steering" data-name="F5 Dynamic Traffic Steering"><rect class="cls-1" x="86.84" y="0.5" width="842.9" height="176.33" rx="4" ry="4"/><rect class="cls-2" x="86.84" y="0.5" width="842.9" height="176.33" rx="4" ry="4"/><path class="cls-3" d="M447,333.81a4.8,4.8,0,0,0,3.57,1.61c2,0,2.67-1.09,2.67-1.95,0-1.36-1.38-1.74-2.88-2.14-1.81-.48-3.84-1-3.84-3.22,0-1.87,1.67-3.14,3.9-3.14a5.32,5.32,0,0,1,4,1.58l-.85,1a4.35,4.35,0,0,0-3.28-1.35c-1.36,0-2.33.73-2.33,1.8s1.31,1.47,2.76,1.87c1.85.49,4,1.07,4,3.45,0,1.65-1.12,3.33-4.18,3.33a5.62,5.62,0,0,1-4.35-1.8Z"/><path class="cls-3" d="M456.91,333.81a4.8,4.8,0,0,0,3.57,1.61c2,0,2.67-1.09,2.67-1.95,0-1.36-1.38-1.74-2.87-2.14-1.82-.48-3.85-1-3.85-3.22,0-1.87,1.67-3.14,3.9-3.14a5.36,5.36,0,0,1,4,1.58l-.85,1a4.35,4.35,0,0,0-3.28-1.35c-1.36,0-2.33.73-2.33,1.8s1.31,1.47,2.75,1.87c1.85.49,4,1.07,4,3.45,0,1.65-1.12,3.33-4.18,3.33a5.62,5.62,0,0,1-4.35-1.8Z"/><path class="cls-3" d="M466.72,325.14h1.41v10.08h5.27v1.26h-6.68Z"/><path class="cls-3" d="M484.94,325a5.87,5.87,0,1,1-5.62,5.87A5.54,5.54,0,0,1,484.94,325Zm0,1.26c-2.55,0-4.16,2-4.16,4.61s1.61,4.6,4.16,4.6,4.17-2,4.17-4.6S487.48,326.21,484.94,326.21Z"/><path class="cls-3" d="M492.73,328.26H494v1.33a3.51,3.51,0,0,1,2.74-1.5v1.31a2.51,2.51,0,0,0-.51,0,3,3,0,0,0-2.23,1.31v5.82h-1.27Z"/><path class="cls-3" d="M502,328.06a3.5,3.5,0,0,1,3,1.43l-.85.78A2.43,2.43,0,0,0,502,329.2a3.19,3.19,0,0,0,0,6.34,2.48,2.48,0,0,0,2.09-1.07l.85.78a3.5,3.5,0,0,1-3,1.43,4.32,4.32,0,0,1,0-8.62Z"/><path class="cls-3" d="M512.31,331.07c0-1.45-.75-1.87-1.85-1.87a3.2,3.2,0,0,0-2.43,1.28v6h-1.28V325.14H508v4.31a4.08,4.08,0,0,1,2.94-1.39,2.31,2.31,0,0,1,2.62,2.62v5.8h-1.28Z"/><path class="cls-3" d="M519.71,328.06c2.48,0,3.94,1.94,3.94,4.4v.33H517a2.9,2.9,0,0,0,3,2.84,3.58,3.58,0,0,0,2.53-1l.62.83a4.46,4.46,0,0,1-3.27,1.26,4.32,4.32,0,0,1-.13-8.62ZM517,331.85h5.39a2.66,2.66,0,0,0-2.7-2.74A2.75,2.75,0,0,0,517,331.85Z"/><path class="cls-3" d="M525.66,334.47a3.7,3.7,0,0,0,2.7,1.17c1.26,0,1.94-.56,1.94-1.36s-1-1.19-2.11-1.46c-1.39-.32-3-.7-3-2.4,0-1.27,1.1-2.36,3.06-2.36a4.16,4.16,0,0,1,3,1.19l-.6.88a3.2,3.2,0,0,0-2.44-1c-1.13,0-1.82.51-1.82,1.24s.93,1.05,2,1.31c1.43.32,3.08.73,3.08,2.55,0,1.37-1.11,2.48-3.23,2.48a4.41,4.41,0,0,1-3.32-1.29Z"/><path class="cls-3" d="M533.87,334.76v-5.37h-1.36v-1.13h1.36V326h1.27v2.24h1.67v1.13h-1.67v5.1c0,.61.28,1.05.84,1.05a1.21,1.21,0,0,0,.86-.34l.38.95a2.08,2.08,0,0,1-1.53.53A1.68,1.68,0,0,1,533.87,334.76Z"/><path class="cls-3" d="M538.61,328.26h1.28v1.33a3.47,3.47,0,0,1,2.73-1.5v1.31a2.44,2.44,0,0,0-.51,0,3,3,0,0,0-2.22,1.31v5.82h-1.28Z"/><path class="cls-3" d="M549.35,335.54a3.54,3.54,0,0,1-2.72,1.14,2.73,2.73,0,0,1-2.87-2.72,2.68,2.68,0,0,1,2.87-2.7,3.4,3.4,0,0,1,2.72,1.12V330.9c0-1.11-.88-1.74-2.07-1.74a3.28,3.28,0,0,0-2.52,1.15l-.59-.89a4.29,4.29,0,0,1,3.28-1.36c1.73,0,3.18.78,3.18,2.77v5.65h-1.28Zm0-2.35a2.73,2.73,0,0,0-2.26-1,1.81,1.81,0,1,0,0,3.59,2.73,2.73,0,0,0,2.26-1Z"/><path class="cls-3" d="M553.44,334.76v-5.37h-1.36v-1.13h1.36V326h1.27v2.24h1.67v1.13h-1.67v5.1c0,.61.27,1.05.83,1.05a1.22,1.22,0,0,0,.87-.34l.37.95a2.06,2.06,0,0,1-1.53.53A1.68,1.68,0,0,1,553.44,334.76Z"/><path class="cls-3" d="M557.7,332.36a4.07,4.07,0,1,1,4.06,4.32A4,4,0,0,1,557.7,332.36Zm6.78,0c0-1.66-1-3.16-2.72-3.16s-2.73,1.5-2.73,3.16,1,3.18,2.73,3.18S564.48,334,564.48,332.36Z"/><path class="cls-3" d="M567.9,328.26h1.28v1.33a3.47,3.47,0,0,1,2.73-1.5v1.31a2.44,2.44,0,0,0-.51,0,3,3,0,0,0-2.22,1.31v5.82H567.9Z"/><path class="cls-3" d="M30.29,305.06H31.7V312c0,2.07,1.12,3.38,3.21,3.38S38.13,314,38.13,312v-6.91h1.41V312c0,2.82-1.55,4.63-4.63,4.63s-4.62-1.82-4.62-4.61Z"/><path class="cls-3" d="M42.09,314.4a3.7,3.7,0,0,0,2.7,1.17c1.26,0,1.94-.56,1.94-1.36s-1-1.19-2.11-1.46c-1.39-.33-3-.7-3-2.4,0-1.27,1.1-2.36,3.06-2.36a4.16,4.16,0,0,1,3,1.19l-.6.88a3.2,3.2,0,0,0-2.44-1c-1.12,0-1.82.51-1.82,1.24s.93,1.05,2,1.31c1.43.32,3.08.73,3.08,2.54,0,1.38-1.1,2.49-3.23,2.49a4.34,4.34,0,0,1-3.31-1.3Z"/><path class="cls-3" d="M53.62,308c2.48,0,3.94,1.94,3.94,4.4v.32H50.91a2.89,2.89,0,0,0,3,2.84,3.59,3.59,0,0,0,2.53-1l.61.83a4.47,4.47,0,0,1-3.26,1.26,4.32,4.32,0,0,1-.13-8.62Zm-2.71,3.79H56.3A2.66,2.66,0,0,0,53.6,309,2.75,2.75,0,0,0,50.91,311.78Z"/><path class="cls-3" d="M59.62,308.19h1.27v1.33a3.49,3.49,0,0,1,2.74-1.5v1.31a2.51,2.51,0,0,0-.51-.05,3,3,0,0,0-2.23,1.31v5.81H59.62Z"/><path class="cls-3" d="M65.17,314.4a3.75,3.75,0,0,0,2.71,1.17c1.26,0,1.94-.56,1.94-1.36s-1-1.19-2.11-1.46c-1.4-.33-3-.7-3-2.4,0-1.27,1.11-2.36,3.06-2.36a4.19,4.19,0,0,1,3,1.19l-.6.88a3.2,3.2,0,0,0-2.45-1c-1.12,0-1.82.51-1.82,1.24s.94,1.05,2,1.31c1.43.32,3.08.73,3.08,2.54,0,1.38-1.11,2.49-3.23,2.49a4.35,4.35,0,0,1-3.32-1.3Z"/><path class="cls-4" d="M30.45,229H22.37A21.77,21.77,0,0,0,.5,251v22"/><path class="cls-4" d="M100.32,289V271c0-12.1-9.3-22-21.69-22H62.28a21.77,21.77,0,0,0-21.87,22v18"/><circle class="cls-4" cx="30.41" cy="211.04" r="18"/><circle class="cls-4" cx="70.41" cy="231.04" r="18"/><path class="cls-3" d="M861.93,286.31h1.41v11.33h-1.41Z"/><path class="cls-3" d="M871.49,292.27c0-1.44-.73-1.9-1.84-1.9a3.18,3.18,0,0,0-2.43,1.27v6H866v-8.21h1.27v1.19a4.07,4.07,0,0,1,2.92-1.39,2.33,2.33,0,0,1,2.62,2.65v5.76h-1.27Z"/><path class="cls-3" d="M875.57,295.93v-5.37h-1.36v-1.13h1.36v-2.24h1.27v2.24h1.67v1.13h-1.67v5.09c0,.62.28,1.06.84,1.06a1.21,1.21,0,0,0,.86-.34l.38.95a2.09,2.09,0,0,1-1.53.53A1.68,1.68,0,0,1,875.57,295.93Z"/><path class="cls-3" d="M883.88,289.23c2.48,0,3.94,1.94,3.94,4.4V294h-6.64a2.89,2.89,0,0,0,3,2.83,3.6,3.6,0,0,0,2.53-1l.61.83a4.45,4.45,0,0,1-3.26,1.26,4.32,4.32,0,0,1-.14-8.62Zm-2.7,3.79h5.39a2.67,2.67,0,0,0-2.71-2.74A2.74,2.74,0,0,0,881.18,293Z"/><path class="cls-3" d="M889.88,289.43h1.28v1.33a3.47,3.47,0,0,1,2.73-1.5v1.31a2.44,2.44,0,0,0-.51-.05,3,3,0,0,0-2.22,1.31v5.81h-1.28Z"/><path class="cls-3" d="M901,292.27c0-1.44-.73-1.9-1.83-1.9a3.15,3.15,0,0,0-2.43,1.27v6h-1.28v-8.21h1.28v1.19a4.05,4.05,0,0,1,2.92-1.39,2.33,2.33,0,0,1,2.62,2.65v5.76H901Z"/><path class="cls-3" d="M908.43,289.23c2.48,0,3.94,1.94,3.94,4.4V294h-6.64a2.89,2.89,0,0,0,2.95,2.83,3.61,3.61,0,0,0,2.54-1l.61.83a4.46,4.46,0,0,1-3.27,1.26,4.32,4.32,0,0,1-.13-8.62Zm-2.7,3.79h5.38a2.66,2.66,0,0,0-2.7-2.74A2.73,2.73,0,0,0,905.73,293Z"/><path class="cls-3" d="M914.68,295.93v-5.37h-1.36v-1.13h1.36v-2.24H916v2.24h1.67v1.13H916v5.09c0,.62.27,1.06.83,1.06a1.22,1.22,0,0,0,.87-.34l.37.95a2.06,2.06,0,0,1-1.53.53A1.68,1.68,0,0,1,914.68,295.93Z"/><line class="cls-4" x1="508.85" y1="176.83" x2="508.85" y2="179.83"/><line class="cls-5" x1="508.85" y1="187.24" x2="508.85" y2="198.35"/><line class="cls-4" x1="508.85" y1="202.05" x2="508.85" y2="205.05"/><circle class="cls-6" cx="508.85" cy="260.06" r="55.02"/><path class="cls-3" d="M479.08,265.47a7.6,7.6,0,0,0,5.82,2.72c3.84,0,4.93-2.13,4.93-3.73,0-2.63-2.49-3.36-5.13-4-2.94-.82-6.07-1.66-6.07-5.1,0-3.05,2.74-5,6.13-5a8,8,0,0,1,6.33,2.63L490,254.13a6.68,6.68,0,0,0-5.35-2.35c-2.49,0-4.36,1.43-4.36,3.44,0,2.22,2.32,2.86,4.87,3.53,3,.87,6.33,1.82,6.33,5.6,0,2.41-1.6,5.29-6.64,5.29a8.6,8.6,0,0,1-6.83-3Z"/><path class="cls-3" d="M494.64,265.47a7.64,7.64,0,0,0,5.83,2.72c3.83,0,4.92-2.13,4.92-3.73,0-2.63-2.49-3.36-5.12-4-2.94-.82-6.08-1.66-6.08-5.1,0-3.05,2.75-5,6.14-5a8,8,0,0,1,6.32,2.63l-1.06,1.17a6.7,6.7,0,0,0-5.35-2.35c-2.49,0-4.37,1.43-4.37,3.44,0,2.22,2.33,2.86,4.88,3.53,3,.87,6.32,1.82,6.32,5.6,0,2.41-1.59,5.29-6.63,5.29a8.59,8.59,0,0,1-6.83-3Z"/><path class="cls-3" d="M510.21,250.63h1.6v17.22h9v1.46H510.21Z"/><path class="cls-3" d="M531,250.33c5.46,0,9.07,4.2,9.07,9.66s-3.61,9.65-9.07,9.65-9.07-4.19-9.07-9.65S525.47,250.33,531,250.33Zm0,1.45c-4.54,0-7.39,3.44-7.39,8.21s2.85,8.2,7.39,8.2,7.39-3.5,7.39-8.2S535.44,251.78,531,251.78Z"/><line id="_Path_" data-name="&lt;Path&gt;" class="cls-4" x1="721.61" y1="259.05" x2="841.03" y2="259.05"/><line id="_Path_2" data-name="&lt;Path&gt;" class="cls-4" x1="578.85" y1="259.05" x2="697.56" y2="259.05"/><polyline id="_Path_3" data-name="&lt;Path&gt;" class="cls-4" points="835.34 265.05 841.34 259.05 835.34 253.05"/><polyline id="_Path_4" data-name="&lt;Path&gt;" class="cls-4" points="583.84 253.05 577.84 259.05 583.84 265.05"/><rect class="cls-4" x="697.56" y="248.52" width="24.04" height="21.02"/><path class="cls-4" d="M718.59,248.52v-6a9,9,0,0,0-18,0v6"/><path class="cls-4" d="M905.16,276.8H863.08a10.6,10.6,0,0,1,0-21.19h0a15.75,15.75,0,0,1,22.24-14.35,18.42,18.42,0,0,1,35,11.26,13.22,13.22,0,0,1-7.26,24.28h-2.63"/><path class="cls-3" d="M277.33,24.69v9.15h-1.41V22.5h1.45l6.52,9v-9h1.41V33.84h-1.36Z"/><path class="cls-3" d="M291.48,25.42c2.48,0,3.94,1.94,3.94,4.41v.32h-6.65a2.9,2.9,0,0,0,3,2.84,3.54,3.54,0,0,0,2.53-1l.62.84A4.49,4.49,0,0,1,291.61,34a4.07,4.07,0,0,1-4.18-4.32A4.11,4.11,0,0,1,291.48,25.42Zm-2.71,3.79h5.39a2.65,2.65,0,0,0-2.7-2.73A2.74,2.74,0,0,0,288.77,29.21Z"/><path class="cls-3" d="M299.79,30.47l-2.47,3.37h-1.46L299,29.62l-3-4h1.48l2.28,3.13,2.28-3.13h1.48l-3,4,3.16,4.22h-1.48Z"/><path class="cls-3" d="M305.45,32.12V26.75h-1.36V25.63h1.36V23.38h1.27v2.25h1.67v1.12h-1.67v5.1c0,.61.28,1,.84,1a1.21,1.21,0,0,0,.86-.34l.38,1a2.1,2.1,0,0,1-1.53.52A1.68,1.68,0,0,1,305.45,32.12Z"/><path class="cls-3" d="M309.43,29.16h4.08v1.13h-4.08Z"/><path class="cls-3" d="M320.71,22.31a5.43,5.43,0,0,1,4.41,2.13l-1.12.7a4.19,4.19,0,0,0-3.29-1.57,4.35,4.35,0,0,0-4.36,4.61,4.37,4.37,0,0,0,4.36,4.62,4.47,4.47,0,0,0,3.05-1.22V29.27h-3.89V28h5.3v4.1a5.92,5.92,0,0,1-4.46,2,5.69,5.69,0,0,1-5.83-5.88A5.68,5.68,0,0,1,320.71,22.31Z"/><path class="cls-3" d="M331,25.42c2.48,0,3.95,1.94,3.95,4.41v.32h-6.65a2.89,2.89,0,0,0,3,2.84,3.55,3.55,0,0,0,2.53-1l.61.84A4.46,4.46,0,0,1,331.12,34a4.07,4.07,0,0,1-4.18-4.32A4.11,4.11,0,0,1,331,25.42Zm-2.7,3.79h5.39a2.66,2.66,0,0,0-2.7-2.73A2.74,2.74,0,0,0,328.28,29.21Z"/><path class="cls-3" d="M342.53,28.47c0-1.45-.74-1.91-1.84-1.91a3.18,3.18,0,0,0-2.43,1.28v6H337V25.63h1.28v1.19a4.08,4.08,0,0,1,2.92-1.4,2.34,2.34,0,0,1,2.62,2.66v5.76h-1.27Z"/><path class="cls-3" d="M299.16,39.5h1.41V50.84h-1.41Z"/><path class="cls-3" d="M303.22,39.5h4.56a3.42,3.42,0,1,1,0,6.83h-3.15v4.51h-1.41Zm4.39,1.26h-3v4.32h3a2.16,2.16,0,1,0,0-4.32Z"/><path class="cls-3" d="M313.35,48.17a4.82,4.82,0,0,0,3.57,1.62c2,0,2.67-1.09,2.67-2,0-1.36-1.37-1.73-2.87-2.14-1.82-.48-3.84-1-3.84-3.21,0-1.87,1.67-3.15,3.89-3.15a5.35,5.35,0,0,1,4,1.58L320,42a4.32,4.32,0,0,0-3.28-1.36c-1.36,0-2.33.73-2.33,1.8s1.31,1.48,2.75,1.87c1.86.49,4,1.07,4,3.45,0,1.65-1.12,3.33-4.18,3.33a5.63,5.63,0,0,1-4.35-1.8Z"/><path class="cls-3" d="M428.53,24.4l-3.86,9.44h-.58l-3.84-9.44v9.44h-1.41V22.5h2l3.52,8.64,3.54-8.64h2V33.84h-1.41Z"/><path class="cls-3" d="M437.68,32.9A3.55,3.55,0,0,1,435,34a2.73,2.73,0,0,1-2.87-2.72,2.68,2.68,0,0,1,2.87-2.7,3.46,3.46,0,0,1,2.72,1.12V28.26c0-1.1-.89-1.73-2.08-1.73a3.26,3.26,0,0,0-2.51,1.14l-.6-.89a4.34,4.34,0,0,1,3.28-1.36c1.74,0,3.18.79,3.18,2.78v5.64h-1.27Zm0-2.34a2.76,2.76,0,0,0-2.26-1,1.8,1.8,0,1,0,0,3.58,2.75,2.75,0,0,0,2.26-1Z"/><path class="cls-3" d="M441.5,22.5h1.28V33.84H441.5Z"/><path class="cls-3" d="M450.29,27.24l-2.14,6.6h-1.28l-2.61-8.21h1.32l2,6.54,2.16-6.54h1.09L453,32.17l2-6.54h1.33l-2.62,8.21h-1.28Z"/><path class="cls-3" d="M462.94,32.9A3.54,3.54,0,0,1,460.22,34a2.73,2.73,0,0,1-2.87-2.72,2.69,2.69,0,0,1,2.87-2.7,3.45,3.45,0,0,1,2.72,1.12V28.26c0-1.1-.88-1.73-2.07-1.73a3.27,3.27,0,0,0-2.52,1.14l-.6-.89A4.34,4.34,0,0,1,461,25.42c1.73,0,3.17.79,3.17,2.78v5.64h-1.27Zm0-2.34a2.75,2.75,0,0,0-2.26-1,1.8,1.8,0,1,0,0,3.58,2.74,2.74,0,0,0,2.26-1Z"/><path class="cls-3" d="M466.76,25.63H468V27a3.51,3.51,0,0,1,2.74-1.49v1.31a2,2,0,0,0-.51-.05A3,3,0,0,0,468,28v5.81h-1.28Z"/><path class="cls-3" d="M475.94,25.42c2.48,0,3.95,1.94,3.95,4.41v.32h-6.65a2.89,2.89,0,0,0,3,2.84,3.55,3.55,0,0,0,2.53-1l.61.84A4.46,4.46,0,0,1,476.08,34a4.07,4.07,0,0,1-4.18-4.32A4.11,4.11,0,0,1,475.94,25.42Zm-2.7,3.79h5.39a2.66,2.66,0,0,0-2.7-2.73A2.74,2.74,0,0,0,473.24,29.21Z"/><path class="cls-3" d="M412.31,39.5h4.56a3.42,3.42,0,1,1,0,6.83h-3.15v4.51h-1.41Zm4.39,1.26h-3v4.32h3a2.16,2.16,0,1,0,0-4.32Z"/><path class="cls-3" d="M422.24,42.63h1.28V44a3.49,3.49,0,0,1,2.73-1.49v1.31a1.91,1.91,0,0,0-.51-.05A3,3,0,0,0,423.52,45v5.81h-1.28Z"/><path class="cls-3" d="M427.37,46.73a4.07,4.07,0,1,1,8.13,0,4.07,4.07,0,1,1-8.13,0Zm6.79,0c0-1.67-1-3.17-2.72-3.17s-2.74,1.5-2.74,3.17,1,3.17,2.74,3.17S434.16,48.41,434.16,46.73Z"/><path class="cls-3" d="M437.83,49.12V43.75h-1.36V42.63h1.36V40.38h1.27v2.25h1.67v1.12H439.1v5.1c0,.61.28,1,.84,1a1.21,1.21,0,0,0,.86-.34l.38,1a2.12,2.12,0,0,1-1.53.52A1.68,1.68,0,0,1,437.83,49.12Z"/><path class="cls-3" d="M446.14,42.42c2.48,0,3.95,1.94,3.95,4.41v.32h-6.65a2.89,2.89,0,0,0,3,2.84,3.57,3.57,0,0,0,2.53-1l.61.84A4.46,4.46,0,0,1,446.28,51a4.07,4.07,0,0,1-4.18-4.31A4.11,4.11,0,0,1,446.14,42.42Zm-2.7,3.8h5.39a2.66,2.66,0,0,0-2.71-2.74A2.74,2.74,0,0,0,443.44,46.22Z"/><path class="cls-3" d="M455.76,42.42a3.53,3.53,0,0,1,3,1.43l-.85.78a2.45,2.45,0,0,0-2.09-1.07A2.87,2.87,0,0,0,453,46.73a2.87,2.87,0,0,0,2.84,3.17,2.47,2.47,0,0,0,2.09-1.07l.85.79a3.52,3.52,0,0,1-3,1.42,4.06,4.06,0,0,1-4.09-4.31A4.06,4.06,0,0,1,455.76,42.42Z"/><path class="cls-3" d="M460.81,49.12V43.75h-1.36V42.63h1.36V40.38h1.28v2.25h1.66v1.12h-1.66v5.1c0,.61.27,1,.83,1a1.22,1.22,0,0,0,.87-.34l.37,1a2.1,2.1,0,0,1-1.53.52A1.68,1.68,0,0,1,460.81,49.12Z"/><path class="cls-3" d="M465.34,40.45a.86.86,0,1,1,1.71,0,.86.86,0,0,1-1.71,0Zm.22,2.18h1.27v8.21h-1.27Z"/><path class="cls-3" d="M468.91,46.73a4.07,4.07,0,1,1,8.12,0,4.07,4.07,0,1,1-8.12,0Zm6.78,0c0-1.67-1-3.17-2.72-3.17s-2.74,1.5-2.74,3.17,1,3.17,2.74,3.17S475.69,48.41,475.69,46.73Z"/><path class="cls-3" d="M484.65,45.47c0-1.45-.73-1.91-1.84-1.91a3.19,3.19,0,0,0-2.43,1.28v6H479.1V42.63h1.28v1.19a4.08,4.08,0,0,1,2.92-1.4,2.34,2.34,0,0,1,2.62,2.66v5.76h-1.27Z"/><path class="cls-3" d="M138.53,24.69v9.15h-1.41V22.5h1.44l6.53,9v-9h1.41V33.84h-1.36Z"/><path class="cls-3" d="M152.67,25.42c2.48,0,3.94,1.94,3.94,4.41v.32H150a2.89,2.89,0,0,0,3,2.84,3.57,3.57,0,0,0,2.53-1l.61.84A4.48,4.48,0,0,1,152.81,34a4.07,4.07,0,0,1-4.18-4.32A4.11,4.11,0,0,1,152.67,25.42ZM150,29.21h5.39a2.67,2.67,0,0,0-2.71-2.73A2.74,2.74,0,0,0,150,29.21Z"/><path class="cls-3" d="M161,30.47l-2.46,3.37h-1.46l3.14-4.22-3-4h1.48L161,28.76l2.28-3.13h1.48l-3,4,3.17,4.22h-1.48Z"/><path class="cls-3" d="M166.64,32.12V26.75h-1.36V25.63h1.36V23.38h1.28v2.25h1.67v1.12h-1.67v5.1c0,.61.27,1,.83,1a1.22,1.22,0,0,0,.87-.34l.37,1a2.1,2.1,0,0,1-1.53.52A1.68,1.68,0,0,1,166.64,32.12Z"/><path class="cls-3" d="M170.62,29.16h4.08v1.13h-4.08Z"/><path class="cls-3" d="M181.91,22.31a5.4,5.4,0,0,1,4.4,2.13l-1.12.7a4.17,4.17,0,0,0-3.28-1.57,4.36,4.36,0,0,0-4.37,4.61,4.38,4.38,0,0,0,4.37,4.62,4.47,4.47,0,0,0,3-1.22V29.27h-3.89V28h5.3v4.1a5.9,5.9,0,0,1-4.45,2,5.68,5.68,0,0,1-5.83-5.88A5.67,5.67,0,0,1,181.91,22.31Z"/><path class="cls-3" d="M192.18,25.42c2.48,0,3.94,1.94,3.94,4.41v.32h-6.65a2.9,2.9,0,0,0,3,2.84A3.54,3.54,0,0,0,195,32l.62.84A4.49,4.49,0,0,1,192.31,34a4.07,4.07,0,0,1-4.18-4.32A4.11,4.11,0,0,1,192.18,25.42Zm-2.71,3.79h5.39a2.65,2.65,0,0,0-2.7-2.73A2.74,2.74,0,0,0,189.47,29.21Z"/><path class="cls-3" d="M203.72,28.47c0-1.45-.73-1.91-1.84-1.91a3.19,3.19,0,0,0-2.43,1.28v6h-1.27V25.63h1.27v1.19a4.08,4.08,0,0,1,2.93-1.4A2.33,2.33,0,0,1,205,28.08v5.76h-1.27Z"/><path class="cls-3" d="M143.64,39.5h7.42v1.26h-6v3.65h5.89v1.26h-5.89v5.17h-1.41Z"/><path class="cls-3" d="M152.71,40.45a.86.86,0,1,1,1.72,0,.86.86,0,0,1-1.72,0Zm.22,2.18h1.28v8.21h-1.28Z"/><path class="cls-3" d="M156.76,42.63H158V44a3.52,3.52,0,0,1,2.74-1.49v1.31a2,2,0,0,0-.51-.05A3,3,0,0,0,158,45v5.81h-1.27Z"/><path class="cls-3" d="M165.94,42.42c2.48,0,3.94,1.94,3.94,4.41v.32h-6.64A2.89,2.89,0,0,0,166.19,50a3.58,3.58,0,0,0,2.54-1l.61.84A4.49,4.49,0,0,1,166.07,51a4.07,4.07,0,0,1-4.18-4.31A4.11,4.11,0,0,1,165.94,42.42Zm-2.7,3.8h5.38a2.65,2.65,0,0,0-2.7-2.74A2.73,2.73,0,0,0,163.24,46.22Z"/><path class="cls-3" d="M176.9,44.24l-2.14,6.6h-1.27l-2.62-8.21h1.32l2,6.54,2.16-6.54h1.09l2.16,6.54,2-6.54h1.33l-2.62,8.21H179Z"/><path class="cls-3" d="M189.55,49.9A3.54,3.54,0,0,1,186.83,51,2.73,2.73,0,0,1,184,48.32a2.69,2.69,0,0,1,2.87-2.7,3.45,3.45,0,0,1,2.72,1.12V45.26c0-1.1-.88-1.73-2.07-1.73A3.27,3.27,0,0,0,185,44.67l-.59-.89a4.31,4.31,0,0,1,3.28-1.36c1.73,0,3.18.79,3.18,2.78v5.64h-1.28Zm0-2.34a2.75,2.75,0,0,0-2.26-1,1.8,1.8,0,1,0,0,3.58,2.74,2.74,0,0,0,2.26-1Z"/><path class="cls-3" d="M193.38,39.5h1.27V50.84h-1.27Z"/><path class="cls-3" d="M197.2,39.5h1.28V50.84H197.2Z"/><g id="_Group_" data-name="&lt;Group&gt;"><line id="_Path_5" data-name="&lt;Path&gt;" class="cls-4" x1="123" y1="66.93" x2="219.06" y2="66.9"/><line id="_Path_6" data-name="&lt;Path&gt;" class="cls-4" x1="123.06" y1="86.93" x2="219.06" y2="86.93"/><line id="_Path_7" data-name="&lt;Path&gt;" class="cls-4" x1="123.06" y1="106.93" x2="219.06" y2="106.93"/><line id="_Path_8" data-name="&lt;Path&gt;" class="cls-4" x1="123.06" y1="126.93" x2="219.06" y2="126.93"/><line id="_Path_9" data-name="&lt;Path&gt;" class="cls-4" x1="151.06" y1="66.93" x2="151.06" y2="86.36"/><line id="_Path_10" data-name="&lt;Path&gt;" class="cls-4" x1="191.06" y1="66.93" x2="191.06" y2="86.36"/><line id="_Path_11" data-name="&lt;Path&gt;" class="cls-4" x1="151.06" y1="106.93" x2="151.06" y2="126.93"/><line id="_Path_12" data-name="&lt;Path&gt;" class="cls-4" x1="191.06" y1="106.93" x2="191.06" y2="126.93"/><line id="_Path_13" data-name="&lt;Path&gt;" class="cls-4" x1="211.06" y1="86.93" x2="211.06" y2="106.93"/><line id="_Path_14" data-name="&lt;Path&gt;" class="cls-4" x1="131.06" y1="86.93" x2="131.06" y2="106.93"/><line id="_Path_15" data-name="&lt;Path&gt;" class="cls-4" x1="171.06" y1="86.93" x2="171.06" y2="106.93"/><line id="_Path_16" data-name="&lt;Path&gt;" class="cls-4" x1="123.06" y1="146.93" x2="219.06" y2="146.93"/><line id="_Path_17" data-name="&lt;Path&gt;" class="cls-4" x1="211.06" y1="127.5" x2="211.06" y2="146.93"/><line id="_Path_18" data-name="&lt;Path&gt;" class="cls-4" x1="131.06" y1="127.5" x2="131.06" y2="146.93"/><line id="_Path_19" data-name="&lt;Path&gt;" class="cls-4" x1="171.06" y1="127.5" x2="171.06" y2="146.93"/></g><path class="cls-3" d="M544.32,31.17a4.81,4.81,0,0,0,3.57,1.62c2,0,2.67-1.09,2.67-2,0-1.36-1.38-1.73-2.87-2.14-1.82-.48-3.84-1-3.84-3.21,0-1.87,1.66-3.15,3.89-3.15a5.35,5.35,0,0,1,4,1.58l-.85,1a4.32,4.32,0,0,0-3.28-1.36c-1.36,0-2.33.73-2.33,1.8s1.31,1.48,2.75,1.87c1.86.49,4,1.07,4,3.45,0,1.65-1.12,3.33-4.18,3.33a5.62,5.62,0,0,1-4.35-1.8Z"/><path class="cls-3" d="M557.65,25.42c2.48,0,3.94,1.94,3.94,4.41v.32H555a2.89,2.89,0,0,0,3,2.84,3.57,3.57,0,0,0,2.53-1l.61.84A4.48,4.48,0,0,1,557.79,34a4.08,4.08,0,0,1-4.19-4.32A4.11,4.11,0,0,1,557.65,25.42ZM555,29.21h5.39a2.67,2.67,0,0,0-2.71-2.73A2.74,2.74,0,0,0,555,29.21Z"/><path class="cls-3" d="M567.27,25.42a3.53,3.53,0,0,1,3,1.43l-.85.78a2.45,2.45,0,0,0-2.09-1.07,2.87,2.87,0,0,0-2.84,3.16,2.88,2.88,0,0,0,2.84,3.18,2.47,2.47,0,0,0,2.09-1.07l.85.79a3.52,3.52,0,0,1-3,1.42,4.06,4.06,0,0,1-4.1-4.32A4.06,4.06,0,0,1,567.27,25.42Z"/><path class="cls-3" d="M577.61,32.68A4,4,0,0,1,574.68,34a2.31,2.31,0,0,1-2.61-2.62V25.63h1.27V31c0,1.45.73,1.87,1.84,1.87a3.13,3.13,0,0,0,2.43-1.24v-6h1.27v8.21h-1.27Z"/><path class="cls-3" d="M581.43,25.63h1.28V27a3.49,3.49,0,0,1,2.73-1.49v1.31a1.91,1.91,0,0,0-.51-.05A3,3,0,0,0,582.71,28v5.81h-1.28Z"/><path class="cls-3" d="M590.61,25.42c2.48,0,3.95,1.94,3.95,4.41v.32h-6.65a2.89,2.89,0,0,0,3,2.84,3.57,3.57,0,0,0,2.53-1l.61.84A4.46,4.46,0,0,1,590.75,34a4.07,4.07,0,0,1-4.18-4.32A4.11,4.11,0,0,1,590.61,25.42Zm-2.7,3.79h5.39a2.67,2.67,0,0,0-2.71-2.73A2.74,2.74,0,0,0,587.91,29.21Z"/><path class="cls-3" d="M607.22,24.69l-2.5,9.15h-1.53L600,22.5h1.57L604,32l2.6-9.45h1.18l2.6,9.45,2.5-9.45h1.56l-3.23,11.34h-1.53Z"/><path class="cls-3" d="M618.9,25.42c2.48,0,3.94,1.94,3.94,4.41v.32H616.2a2.89,2.89,0,0,0,3,2.84,3.57,3.57,0,0,0,2.53-1l.61.84A4.48,4.48,0,0,1,619,34a4.08,4.08,0,0,1-4.19-4.32A4.11,4.11,0,0,1,618.9,25.42Zm-2.7,3.79h5.39a2.67,2.67,0,0,0-2.71-2.73A2.74,2.74,0,0,0,616.2,29.21Z"/><path class="cls-3" d="M624.9,22.5h1.28v4.37A3.4,3.4,0,0,1,629,25.42c2.14,0,3.65,1.7,3.65,4.32S631.09,34,629,34a3.45,3.45,0,0,1-2.77-1.42v1.22H624.9Zm3.72,10.4c1.67,0,2.66-1.34,2.66-3.16s-1-3.18-2.66-3.18a3.05,3.05,0,0,0-2.44,1.33v3.72A3,3,0,0,0,628.62,32.9Z"/><path class="cls-3" d="M562.11,39.31a5.4,5.4,0,0,1,4.4,2.13l-1.12.7a4.17,4.17,0,0,0-3.28-1.57,4.36,4.36,0,0,0-4.37,4.61,4.38,4.38,0,0,0,4.37,4.62,4.52,4.52,0,0,0,3-1.22V46.27h-3.9V45h5.31v4.1a5.94,5.94,0,0,1-4.46,2,5.88,5.88,0,0,1,0-11.75Z"/><path class="cls-3" d="M573.94,49.9A3.54,3.54,0,0,1,571.22,51a2.73,2.73,0,0,1-2.87-2.72,2.69,2.69,0,0,1,2.87-2.7,3.43,3.43,0,0,1,2.72,1.12V45.26c0-1.1-.88-1.73-2.07-1.73a3.28,3.28,0,0,0-2.52,1.14l-.59-.89A4.32,4.32,0,0,1,572,42.42c1.73,0,3.18.79,3.18,2.78v5.64h-1.28Zm0-2.34a2.73,2.73,0,0,0-2.26-1,1.8,1.8,0,1,0,0,3.58,2.72,2.72,0,0,0,2.26-1Z"/><path class="cls-3" d="M578,49.12V43.75h-1.36V42.63H578V40.38h1.27v2.25H581v1.12H579.3v5.1c0,.61.27,1,.83,1a1.22,1.22,0,0,0,.87-.34l.37,1a2.1,2.1,0,0,1-1.53.52A1.67,1.67,0,0,1,578,49.12Z"/><path class="cls-3" d="M586.34,42.42c2.48,0,3.94,1.94,3.94,4.41v.32h-6.65a2.9,2.9,0,0,0,3,2.84,3.58,3.58,0,0,0,2.54-1l.61.84A4.49,4.49,0,0,1,586.47,51a4.07,4.07,0,0,1-4.18-4.31A4.11,4.11,0,0,1,586.34,42.42Zm-2.71,3.8H589a2.65,2.65,0,0,0-2.7-2.74A2.75,2.75,0,0,0,583.63,46.22Z"/><path class="cls-3" d="M597.3,44.24l-2.14,6.6h-1.28l-2.61-8.21h1.32l2,6.54,2.16-6.54h1.09L600,49.17l2-6.54h1.33l-2.62,8.21h-1.28Z"/><path class="cls-3" d="M610,49.9A3.54,3.54,0,0,1,607.23,51a2.73,2.73,0,0,1-2.87-2.72,2.69,2.69,0,0,1,2.87-2.7A3.45,3.45,0,0,1,610,46.74V45.26c0-1.1-.88-1.73-2.07-1.73a3.27,3.27,0,0,0-2.52,1.14l-.6-.89a4.34,4.34,0,0,1,3.29-1.36c1.73,0,3.17.79,3.17,2.78v5.64H610Zm0-2.34a2.75,2.75,0,0,0-2.26-1,1.8,1.8,0,1,0,0,3.58,2.74,2.74,0,0,0,2.26-1Z"/><path class="cls-3" d="M614.22,53a1.18,1.18,0,0,0,1.22-.87l.54-1.24-3.43-8.29h1.38l2.74,6.73,2.71-6.73h1.4l-4.11,9.87a2.46,2.46,0,0,1-2.42,1.67,3.94,3.94,0,0,1-.93-.12l.2-1.15A2.07,2.07,0,0,0,614.22,53Z"/><path class="cls-4" d="M457.05,82.81a21.58,21.58,0,1,0,5.79,3.47h0l-17,25.7-9.13-12.14"/><path class="cls-4" d="M469.55,72.77l-4.31.18v0L455,65A8.74,8.74,0,0,0,444,64.85L432.94,73l-4.31-.18c-8.13-.41-14.47-2.72-14.47,8.44s1.51,29.25,1.51,29.25-.91,13.57,14.77,25c13.49,9.86,18.6,13.43,18.6,13.43h0s5.21-3.57,18.7-13.43c15.68-11.46,14.78-25,14.78-25S484,92.37,484,81.21s-6.34-8.85-14.47-8.44"/><rect class="cls-4" x="561.45" y="98.54" width="53.34" height="46.62"/><path class="cls-4" d="M608.09,98.54V85.23a20,20,0,1,0-39.94,0V98.54"/><path class="cls-3" d="M710.3,22.5h1.41v6.9c0,2.08,1.12,3.39,3.21,3.39s3.22-1.31,3.22-3.39V22.5h1.41v6.92c0,2.82-1.55,4.62-4.63,4.62s-4.62-1.82-4.62-4.6Z"/><path class="cls-3" d="M726.42,29l-3.63,4.83h-1.71L725.5,28l-4.17-5.53h1.72L726.42,27l3.34-4.54h1.72L727.33,28l4.41,5.83H730Z"/><path class="cls-3" d="M691.5,41.41l-3.85,9.43h-.58l-3.84-9.43v9.43h-1.41V39.5h2l3.52,8.64,3.53-8.64h2V50.84H691.5Z"/><path class="cls-3" d="M695,46.73a4.07,4.07,0,1,1,8.13,0,4.07,4.07,0,1,1-8.13,0Zm6.78,0c0-1.67-1-3.17-2.72-3.17s-2.73,1.5-2.73,3.17,1,3.17,2.73,3.17S701.82,48.41,701.82,46.73Z"/><path class="cls-3" d="M710.78,45.47c0-1.45-.73-1.91-1.83-1.91a3.16,3.16,0,0,0-2.43,1.28v6h-1.28V42.63h1.28v1.19a4.06,4.06,0,0,1,2.92-1.4,2.34,2.34,0,0,1,2.62,2.66v5.76h-1.28Z"/><path class="cls-3" d="M714.39,40.45a.86.86,0,1,1,1.71,0,.86.86,0,0,1-1.71,0Zm.22,2.18h1.27v8.21h-1.27Z"/><path class="cls-3" d="M718.69,49.12V43.75h-1.36V42.63h1.36V40.38H720v2.25h1.67v1.12H720v5.1c0,.61.28,1,.84,1a1.21,1.21,0,0,0,.86-.34l.38,1a2.13,2.13,0,0,1-1.53.52A1.68,1.68,0,0,1,718.69,49.12Z"/><path class="cls-3" d="M723,46.73a4.07,4.07,0,1,1,8.12,0,4.07,4.07,0,1,1-8.12,0Zm6.78,0c0-1.67-1-3.17-2.72-3.17s-2.74,1.5-2.74,3.17,1,3.17,2.74,3.17S729.74,48.41,729.74,46.73Z"/><path class="cls-3" d="M733.16,42.63h1.27V44a3.51,3.51,0,0,1,2.74-1.49v1.31a2,2,0,0,0-.51-.05A3,3,0,0,0,734.43,45v5.81h-1.27Z"/><path class="cls-3" d="M738.54,40.45a.86.86,0,1,1,1.72,0,.86.86,0,0,1-1.72,0Zm.22,2.18H740v8.21h-1.28Z"/><path class="cls-3" d="M748.13,45.47c0-1.45-.73-1.91-1.83-1.91a3.2,3.2,0,0,0-2.44,1.28v6h-1.27V42.63h1.27v1.19a4.1,4.1,0,0,1,2.93-1.4,2.34,2.34,0,0,1,2.62,2.66v5.76h-1.28Z"/><path class="cls-3" d="M752.59,52a3.14,3.14,0,0,0,2.66,1.12,2.36,2.36,0,0,0,2.64-2.47V49.48a3.44,3.44,0,0,1-2.75,1.46c-2.15,0-3.66-1.6-3.66-4.25s1.5-4.27,3.66-4.27a3.4,3.4,0,0,1,2.75,1.45V42.63h1.28v8c0,2.72-1.91,3.57-3.92,3.57A4.2,4.2,0,0,1,751.94,53Zm5.3-7.11a3,3,0,0,0-2.45-1.33c-1.65,0-2.63,1.31-2.63,3.13s1,3.13,2.63,3.13a3,3,0,0,0,2.45-1.34Z"/><path class="cls-3" d="M819.23,22.5h3.87a5.53,5.53,0,0,1,5.82,5.68,5.5,5.5,0,0,1-5.82,5.66h-3.87Zm3.87,10.08a4.16,4.16,0,0,0,4.35-4.4,4.14,4.14,0,0,0-4.35-4.42h-2.46v8.82Z"/><path class="cls-3" d="M836.21,32.9A3.54,3.54,0,0,1,833.49,34a2.73,2.73,0,0,1-2.87-2.72,2.69,2.69,0,0,1,2.87-2.7,3.45,3.45,0,0,1,2.72,1.12V28.26c0-1.1-.88-1.73-2.07-1.73a3.27,3.27,0,0,0-2.52,1.14l-.59-.89a4.31,4.31,0,0,1,3.28-1.36c1.73,0,3.18.79,3.18,2.78v5.64h-1.28Zm0-2.34a2.75,2.75,0,0,0-2.26-1,1.8,1.8,0,1,0,0,3.58,2.74,2.74,0,0,0,2.26-1Z"/><path class="cls-3" d="M840.29,32.12V26.75h-1.36V25.63h1.36V23.38h1.28v2.25h1.66v1.12h-1.66v5.1c0,.61.27,1,.83,1a1.24,1.24,0,0,0,.87-.34l.37,1a2.1,2.1,0,0,1-1.53.52A1.68,1.68,0,0,1,840.29,32.12Z"/><path class="cls-3" d="M850.17,32.9A3.55,3.55,0,0,1,847.45,34a2.73,2.73,0,0,1-2.87-2.72,2.68,2.68,0,0,1,2.87-2.7,3.46,3.46,0,0,1,2.72,1.12V28.26c0-1.1-.89-1.73-2.08-1.73a3.26,3.26,0,0,0-2.51,1.14l-.6-.89a4.34,4.34,0,0,1,3.28-1.36c1.74,0,3.18.79,3.18,2.78v5.64h-1.27Zm0-2.34a2.76,2.76,0,0,0-2.26-1,1.8,1.8,0,1,0,0,3.58,2.75,2.75,0,0,0,2.26-1Z"/><path class="cls-3" d="M858.43,22.5h1.41V32.58h5.27v1.26h-6.68Z"/><path class="cls-3" d="M866.22,29.72a4.07,4.07,0,1,1,8.12,0,4.07,4.07,0,1,1-8.12,0Zm6.78,0c0-1.66-1-3.16-2.72-3.16a2.87,2.87,0,0,0-2.74,3.16c0,1.69,1,3.18,2.74,3.18S873,31.41,873,29.72Z"/><path class="cls-3" d="M876.36,31.83A3.75,3.75,0,0,0,879.07,33c1.26,0,1.93-.56,1.93-1.36s-1-1.19-2.1-1.47c-1.4-.32-3-.69-3-2.39,0-1.28,1.11-2.37,3.06-2.37a4.19,4.19,0,0,1,3,1.19l-.6.89a3.17,3.17,0,0,0-2.45-1c-1.12,0-1.82.51-1.82,1.24s.94,1.06,2,1.31c1.43.32,3.08.73,3.08,2.55,0,1.38-1.11,2.48-3.23,2.48a4.38,4.38,0,0,1-3.32-1.29Z"/><path class="cls-3" d="M884.27,31.83A3.71,3.71,0,0,0,887,33c1.26,0,1.94-.56,1.94-1.36s-1-1.19-2.11-1.47c-1.39-.32-3-.69-3-2.39,0-1.28,1.1-2.37,3.06-2.37a4.16,4.16,0,0,1,3,1.19l-.59.89a3.21,3.21,0,0,0-2.45-1c-1.13,0-1.82.51-1.82,1.24s.93,1.06,2,1.31c1.43.32,3.08.73,3.08,2.55,0,1.38-1.1,2.48-3.23,2.48a4.37,4.37,0,0,1-3.31-1.29Z"/><path class="cls-3" d="M815.58,39.5h4.56a3.42,3.42,0,1,1,0,6.83H817v4.51h-1.41ZM820,40.76h-3v4.32h3a2.16,2.16,0,1,0,0-4.32Z"/><path class="cls-3" d="M825.51,42.63h1.27V44a3.52,3.52,0,0,1,2.74-1.49v1.31a2,2,0,0,0-.51-.05A3,3,0,0,0,826.78,45v5.81h-1.27Z"/><path class="cls-3" d="M834.69,42.42c2.48,0,3.94,1.94,3.94,4.41v.32H832a2.88,2.88,0,0,0,3,2.84,3.58,3.58,0,0,0,2.54-1l.61.84A4.49,4.49,0,0,1,834.82,51a4.07,4.07,0,0,1-4.18-4.31A4.11,4.11,0,0,1,834.69,42.42Zm-2.7,3.8h5.38a2.65,2.65,0,0,0-2.7-2.74A2.73,2.73,0,0,0,832,46.22Z"/><path class="cls-3" d="M839.47,42.63h1.37l2.74,6.73,2.72-6.73h1.39l-3.41,8.21h-1.4Z"/><path class="cls-3" d="M852.59,42.42c2.48,0,3.94,1.94,3.94,4.41v.32h-6.64a2.89,2.89,0,0,0,3,2.84,3.58,3.58,0,0,0,2.54-1l.61.84A4.48,4.48,0,0,1,852.73,51a4.07,4.07,0,0,1-4.19-4.31A4.11,4.11,0,0,1,852.59,42.42Zm-2.7,3.8h5.38a2.65,2.65,0,0,0-2.7-2.74A2.73,2.73,0,0,0,849.89,46.22Z"/><path class="cls-3" d="M864.13,45.47c0-1.45-.73-1.91-1.83-1.91a3.2,3.2,0,0,0-2.44,1.28v6h-1.27V42.63h1.27v1.19a4.1,4.1,0,0,1,2.93-1.4,2.34,2.34,0,0,1,2.62,2.66v5.76h-1.28Z"/><path class="cls-3" d="M868.21,49.12V43.75h-1.36V42.63h1.36V40.38h1.28v2.25h1.66v1.12h-1.66v5.1c0,.61.27,1,.83,1a1.22,1.22,0,0,0,.87-.34l.37,1A2.1,2.1,0,0,1,870,51,1.68,1.68,0,0,1,868.21,49.12Z"/><path class="cls-3" d="M872.73,40.45a.86.86,0,1,1,1.72,0,.86.86,0,0,1-1.72,0Zm.22,2.18h1.28v8.21H873Z"/><path class="cls-3" d="M876.3,46.73a4.07,4.07,0,1,1,8.13,0,4.07,4.07,0,1,1-8.13,0Zm6.79,0c0-1.67-1-3.17-2.72-3.17s-2.74,1.5-2.74,3.17,1,3.17,2.74,3.17S883.09,48.41,883.09,46.73Z"/><path class="cls-3" d="M892.05,45.47c0-1.45-.74-1.91-1.84-1.91a3.18,3.18,0,0,0-2.43,1.28v6H886.5V42.63h1.28v1.19a4.08,4.08,0,0,1,2.92-1.4,2.34,2.34,0,0,1,2.62,2.66v5.76h-1.27Z"/><path class="cls-4" d="M313.43,111.17l5.55,5.55s2.93-2.93,5.87,0L353,144.9a4.15,4.15,0,0,1,0,5.87h0a4.15,4.15,0,0,1-5.87,0L319,122.59"/><circle class="cls-4" cx="293.43" cy="91.17" r="28"/><circle class="cls-4" cx="293.43" cy="91.17" r="20"/><polyline class="cls-4" points="713.92 94.94 708.01 83.51 696.89 106 690.87 94.16 683.84 94.16"/><polyline class="cls-4" points="730.45 104.3 724.74 115.84 716.78 100.47"/><polyline class="cls-4" points="753.78 94.28 735.4 94.28 733.26 98.61"/><polyline class="cls-4" points="753.95 128.7 753.95 69.2 683.56 69.2 683.56 79.26 753.52 79.26"/><line class="cls-4" x1="734.44" y1="129.54" x2="753.93" y2="129.54"/><polyline class="cls-4" points="683.56 84.31 683.56 129.54 699.24 129.54"/><path class="cls-4" d="M732.43,131.2l3.42,4.62a3,3,0,0,1,4.25.63l8.35,11a3,3,0,0,1-.63,4.25h0a3,3,0,0,1-4.25-.64l-8.35-11"/><path class="cls-4" d="M699.81,111.55a20.5,20.5,0,1,1,17.27,23.3A20.51,20.51,0,0,1,699.81,111.55Zm18.13,17.5a14.64,14.64,0,1,0-12.33-16.64A14.64,14.64,0,0,0,717.94,129.05Z"/><path class="cls-3" d="M954,313.56h-5.74l-1,2.52h-1.56l4.56-11.34H952l4.57,11.34H955Zm-5.34-1.25h4.92L951.08,306Z"/><path class="cls-3" d="M958,319.21V307.87h1.27v1.22a3.45,3.45,0,0,1,2.77-1.42c2.16,0,3.66,1.63,3.66,4.3s-1.5,4.31-3.66,4.31a3.37,3.37,0,0,1-2.77-1.44v4.37Zm3.72-10.41a3.05,3.05,0,0,0-2.45,1.31v3.71a3.07,3.07,0,0,0,2.45,1.33c1.65,0,2.63-1.36,2.63-3.18S963.32,308.8,961.67,308.8Z"/><path class="cls-3" d="M967.7,319.21V307.87H969v1.22a3.43,3.43,0,0,1,2.77-1.42c2.16,0,3.66,1.63,3.66,4.3s-1.5,4.31-3.66,4.31a3.35,3.35,0,0,1-2.77-1.44v4.37Zm3.73-10.41a3,3,0,0,0-2.45,1.31v3.71a3.05,3.05,0,0,0,2.45,1.33c1.65,0,2.63-1.36,2.63-3.18S973.08,308.8,971.43,308.8Z"/><path class="cls-3" d="M977.46,304.74h1.28v11.34h-1.28Z"/><path class="cls-3" d="M981.07,305.69a.86.86,0,1,1,1.71,0,.86.86,0,0,1-1.71,0Zm.22,2.18h1.27v8.21h-1.27Z"/><path class="cls-3" d="M988.73,307.67a3.52,3.52,0,0,1,3,1.42l-.85.79a2.43,2.43,0,0,0-2.09-1.08,3.19,3.19,0,0,0,0,6.35,2.46,2.46,0,0,0,2.09-1.08l.85.79a3.52,3.52,0,0,1-3,1.42,4.31,4.31,0,0,1,0-8.61Z"/><path class="cls-3" d="M998.66,315.15a3.57,3.57,0,0,1-2.72,1.13,2.73,2.73,0,0,1-2.87-2.72,2.69,2.69,0,0,1,2.87-2.7,3.45,3.45,0,0,1,2.72,1.12V310.5c0-1.1-.88-1.73-2.07-1.73a3.27,3.27,0,0,0-2.52,1.14l-.59-.88a4.29,4.29,0,0,1,3.28-1.36c1.73,0,3.18.78,3.18,2.77v5.64h-1.28Zm0-2.35a2.75,2.75,0,0,0-2.26-1,1.81,1.81,0,1,0,0,3.59,2.75,2.75,0,0,0,2.26-1Z"/><path class="cls-3" d="M1002.74,314.36V309h-1.36v-1.12h1.36v-2.24H1004v2.24h1.66V309H1004v5.1c0,.61.27,1.06.83,1.06a1.26,1.26,0,0,0,.87-.34l.37.95a2.1,2.1,0,0,1-1.53.52A1.68,1.68,0,0,1,1002.74,314.36Z"/><path class="cls-3" d="M1007.26,305.69a.86.86,0,1,1,1.72,0,.86.86,0,0,1-1.72,0Zm.23,2.18h1.27v8.21h-1.27Z"/><path class="cls-3" d="M1010.84,312a4.07,4.07,0,1,1,4.06,4.31A4,4,0,0,1,1010.84,312Zm6.78,0c0-1.67-1-3.17-2.72-3.17s-2.74,1.5-2.74,3.17,1,3.18,2.74,3.18S1017.62,313.65,1017.62,312Z"/><path class="cls-3" d="M1026.58,310.71c0-1.45-.74-1.91-1.84-1.91a3.18,3.18,0,0,0-2.43,1.28v6H1021v-8.21h1.28v1.19a4.07,4.07,0,0,1,2.92-1.39,2.33,2.33,0,0,1,2.62,2.65v5.76h-1.27Z"/><path class="cls-3" d="M1030.35,314.07a3.71,3.71,0,0,0,2.7,1.18c1.26,0,1.94-.56,1.94-1.36s-1-1.19-2.11-1.46c-1.39-.33-3-.7-3-2.4,0-1.28,1.1-2.36,3.06-2.36a4.12,4.12,0,0,1,3,1.19l-.59.88a3.21,3.21,0,0,0-2.45-1c-1.12,0-1.82.51-1.82,1.24s.94,1.06,2,1.31c1.42.33,3.07.73,3.07,2.55,0,1.38-1.1,2.48-3.23,2.48a4.33,4.33,0,0,1-3.31-1.29Z"/><rect class="cls-4" x="938.74" y="201.87" width="87.66" height="87.66" rx="20.45" ry="20.45"/><path class="cls-4" d="M1024.2,279.65h.9A18.67,18.67,0,0,0,1043.77,261V210.67A18.67,18.67,0,0,0,1025.1,192H974.79a18.65,18.65,0,0,0-16.47,9.87"/><path class="cls-3" d="M968.24,248.71a6.93,6.93,0,0,1-5.42,2.28,5.33,5.33,0,0,1-5.57-5.31c0-3.47,2.8-5.28,5.57-5.28a6.92,6.92,0,0,1,5.42,2.27v-3.23c0-2.38-1.92-3.66-4.3-3.66a6.19,6.19,0,0,0-5,2.34l-1-1.19a7.75,7.75,0,0,1,6.14-2.67c3.24,0,5.81,1.55,5.81,5.11V250.6h-1.71Zm0-4.75a6,6,0,0,0-4.82-2.21c-2.64,0-4.36,1.68-4.36,4s1.72,3.93,4.36,3.93a6,6,0,0,0,4.82-2.18Z"/><path class="cls-3" d="M975,256.67v-22h1.72v2.51a6.86,6.86,0,0,1,5.54-2.9c4.26,0,7.13,3.23,7.13,8.35s-2.87,8.38-7.13,8.38a6.8,6.8,0,0,1-5.54-3v8.65Zm7-20.86a6.42,6.42,0,0,0-5.25,2.84v7.89a6.5,6.5,0,0,0,5.25,2.9c3.56,0,5.57-3,5.57-6.83S985.56,235.81,982,235.81Z"/><path class="cls-3" d="M993.58,256.67v-22h1.71v2.51a6.88,6.88,0,0,1,5.55-2.9c4.26,0,7.13,3.23,7.13,8.35s-2.87,8.38-7.13,8.38a6.8,6.8,0,0,1-5.55-3v8.65Zm7-20.86a6.45,6.45,0,0,0-5.25,2.84v7.89a6.53,6.53,0,0,0,5.25,2.9c3.57,0,5.58-3,5.58-6.83S1004.11,235.81,1000.54,235.81Z"/><path class="cls-3" d="M828.05,75.54c4.24,0,5.74,4.57,5.74,8.33s-1.5,8.35-5.74,8.35-5.76-4.62-5.76-8.35S823.79,75.54,828.05,75.54Zm0,.72c-3.73,0-4.91,4.17-4.91,7.61s1.18,7.62,4.91,7.62,4.89-4.21,4.89-7.62S831.78,76.26,828.05,76.26Z"/><path class="cls-3" d="M839.16,76.89l-2.54,2.79-.53-.56,3.12-3.34h.73V91.93h-.78Z"/><path class="cls-3" d="M849.4,75.54c4.24,0,5.74,4.57,5.74,8.33s-1.5,8.35-5.74,8.35-5.76-4.62-5.76-8.35S845.14,75.54,849.4,75.54Zm0,.72c-3.73,0-4.91,4.17-4.91,7.61s1.18,7.62,4.91,7.62,4.89-4.21,4.89-7.62S853.13,76.26,849.4,76.26Z"/><path class="cls-3" d="M860.51,76.89,858,79.68l-.53-.56,3.12-3.34h.73V91.93h-.78Z"/><path class="cls-3" d="M870.75,75.54c4.24,0,5.74,4.57,5.74,8.33s-1.5,8.35-5.74,8.35S865,87.6,865,83.87,866.49,75.54,870.75,75.54Zm0,.72c-3.73,0-4.91,4.17-4.91,7.61s1.18,7.62,4.91,7.62,4.89-4.21,4.89-7.62S874.48,76.26,870.75,76.26Z"/><path class="cls-3" d="M881.86,76.89l-2.54,2.79-.53-.56,3.12-3.34h.73V91.93h-.78Z"/><path class="cls-3" d="M888.57,76.89,886,79.68l-.54-.56,3.13-3.34h.72V91.93h-.77Z"/><path class="cls-3" d="M824.52,97.22,822,100l-.53-.55,3.12-3.34h.73v11.28h-.77Z"/><path class="cls-3" d="M840.49,104.19c0-3.75-1.5-8.33-5.73-8.33s-5.77,4.58-5.77,8.33a12.63,12.63,0,0,0,.85,4.65l1.19.67a11.26,11.26,0,0,1-1.19-5.32c0-3.44,1.19-7.6,4.92-7.6s4.89,4.16,4.89,7.6-1.11,7.31-4.5,7.6a1.84,1.84,0,0,0,.62.65C839.23,111.75,840.49,107.6,840.49,104.19Z"/><path class="cls-3" d="M845.87,97.22,843.32,100l-.53-.55,3.12-3.34h.73v16.14h-.77Z"/><path class="cls-3" d="M852.57,97.22,850,100l-.53-.55,3.12-3.34h.73v16.14h-.78Z"/><path class="cls-3" d="M862.81,95.86c4.24,0,5.74,4.58,5.74,8.33s-1.5,8.35-5.74,8.35-5.76-4.62-5.76-8.35S858.55,95.86,862.81,95.86Zm0,.73c-3.73,0-4.91,4.16-4.91,7.6s1.18,7.63,4.91,7.63,4.89-4.21,4.89-7.63S866.54,96.59,862.81,96.59Z"/><path class="cls-3" d="M873.92,97.22,871.38,100l-.53-.55L874,96.11h.73v16.14h-.78Z"/><path class="cls-3" d="M884.16,95.86c4.24,0,5.74,4.58,5.74,8.33s-1.5,8.35-5.74,8.35-5.76-4.62-5.76-8.35S879.9,95.86,884.16,95.86Zm0,.73c-3.72,0-4.91,4.16-4.91,7.6s1.19,7.63,4.91,7.63,4.89-4.21,4.89-7.63S887.89,96.59,884.16,96.59Z"/><path class="cls-3" d="M847.2,125.23c0-3.76-1.5-8.33-5.74-8.33a4.64,4.64,0,0,0-.85.07,1.89,1.89,0,0,1,.74.66h.11c3.73,0,4.89,4.17,4.89,7.61,0,2.39-.59,5.18-2.22,6.63a9.21,9.21,0,0,1-.07,1C846.33,131.4,847.2,128.06,847.2,125.23Z"/><path class="cls-3" d="M852.57,118.25,850,121l-.53-.56,3.12-3.34h.73v16.15h-.78Z"/><path class="cls-3" d="M859.28,118.25,856.74,121l-.54-.56,3.13-3.34h.72v16.15h-.77Z"/><path class="cls-3" d="M869.52,116.9c4.23,0,5.74,4.57,5.74,8.33s-1.51,8.35-5.74,8.35-5.76-4.63-5.76-8.35S865.26,116.9,869.52,116.9Zm0,.72c-3.73,0-4.92,4.17-4.92,7.61s1.19,7.62,4.92,7.62,4.89-4.21,4.89-7.62S873.25,117.62,869.52,117.62Z"/><path class="cls-3" d="M880.63,118.25,878.09,121l-.54-.56,3.13-3.34h.72v16.15h-.77Z"/><path class="cls-3" d="M887.33,118.25,884.79,121l-.53-.56,3.12-3.34h.73v16.15h-.78Z"/><circle class="cls-7" cx="821.97" cy="129.76" r="22.53"/><rect class="cls-4" x="812.44" y="125.79" width="19.07" height="16.67"/><path class="cls-4" d="M829.12,125.79V121a7.14,7.14,0,1,0-14.28,0v4.76"/><path class="cls-4" d="M813,109V67.42a2.2,2.2,0,0,1,2.19-2.19h82a2.2,2.2,0,0,1,2.19,2.19v74.47a2.2,2.2,0,0,1-2.19,2.19H839.47"/><path class="cls-3" d="M120.91,286.31h1.41v11.33h-1.41Z"/><path class="cls-3" d="M130.46,292.27c0-1.44-.73-1.9-1.83-1.9a3.17,3.17,0,0,0-2.43,1.27v6h-1.28v-8.21h1.28v1.19a4.07,4.07,0,0,1,2.92-1.39,2.33,2.33,0,0,1,2.62,2.65v5.76h-1.28Z"/><path class="cls-3" d="M134.55,295.93v-5.37h-1.37v-1.13h1.37v-2.24h1.27v2.24h1.67v1.13h-1.67v5.09c0,.62.27,1.06.83,1.06a1.22,1.22,0,0,0,.87-.34l.37.95a2.06,2.06,0,0,1-1.53.53A1.68,1.68,0,0,1,134.55,295.93Z"/><path class="cls-3" d="M142.86,289.23c2.48,0,3.94,1.94,3.94,4.4V294h-6.65a2.9,2.9,0,0,0,3,2.83,3.57,3.57,0,0,0,2.53-1l.62.83a4.46,4.46,0,0,1-3.27,1.26,4.32,4.32,0,0,1-.13-8.62ZM140.15,293h5.39a2.66,2.66,0,0,0-2.7-2.74A2.75,2.75,0,0,0,140.15,293Z"/><path class="cls-3" d="M148.86,289.43h1.27v1.33a3.51,3.51,0,0,1,2.74-1.5v1.31a2.51,2.51,0,0,0-.51-.05,3,3,0,0,0-2.23,1.31v5.81h-1.27Z"/><path class="cls-3" d="M160,292.27c0-1.44-.73-1.9-1.84-1.9a3.18,3.18,0,0,0-2.43,1.27v6h-1.27v-8.21h1.27v1.19a4.08,4.08,0,0,1,2.93-1.39,2.33,2.33,0,0,1,2.61,2.65v5.76H160Z"/><path class="cls-3" d="M167.41,289.23c2.48,0,3.94,1.94,3.94,4.4V294H164.7a2.89,2.89,0,0,0,3,2.83,3.59,3.59,0,0,0,2.53-1l.61.83a4.43,4.43,0,0,1-3.26,1.26,4.32,4.32,0,0,1-.13-8.62ZM164.7,293h5.39a2.67,2.67,0,0,0-2.7-2.74A2.75,2.75,0,0,0,164.7,293Z"/><path class="cls-3" d="M173.66,295.93v-5.37H172.3v-1.13h1.36v-2.24h1.28v2.24h1.66v1.13h-1.66v5.09c0,.62.27,1.06.83,1.06a1.22,1.22,0,0,0,.87-.34l.37.95a2.06,2.06,0,0,1-1.53.53A1.68,1.68,0,0,1,173.66,295.93Z"/><line id="_Path_20" data-name="&lt;Path&gt;" class="cls-4" x1="328.86" y1="259.05" x2="439.28" y2="259.05"/><line id="_Path_21" data-name="&lt;Path&gt;" class="cls-4" x1="195.89" y1="259.05" x2="304.82" y2="259.05"/><polyline id="_Path_22" data-name="&lt;Path&gt;" class="cls-4" points="433.59 265.05 439.59 259.05 433.59 253.05"/><polyline id="_Path_23" data-name="&lt;Path&gt;" class="cls-4" points="200.87 253.05 194.87 259.05 200.87 265.05"/><rect class="cls-4" x="304.82" y="248.52" width="24.04" height="21.02"/><path class="cls-4" d="M325.84,248.52v-6a9,9,0,0,0-18,0v6"/><path class="cls-4" d="M164.14,276.8H122.06a10.6,10.6,0,0,1,0-21.19h0a15.75,15.75,0,0,1,22.24-14.35,18.42,18.42,0,0,1,35.67,6.47,18,18,0,0,1-.64,4.79A13.22,13.22,0,0,1,172,276.8H169.4"/></g></g></svg>