<svg xmlns="http://www.w3.org/2000/svg" viewBox="0 0 841.91 373.69"><defs><style>.cls-1,.cls-4{fill:#fff;}.cls-2,.cls-5{fill:none;}.cls-2,.cls-4,.cls-5{stroke:#38313d;}.cls-2{stroke-linecap:round;stroke-linejoin:round;}.cls-3{fill:#38313d;}.cls-4,.cls-5{stroke-miterlimit:10;}</style></defs><title>Asset 4f5-data-center-firewall</title><g id="Layer_2" data-name="Layer 2"><g id="F5_Data_Center_Firewall" data-name="F5 Data Center Firewall"><rect class="cls-1" x="117.14" y="0.5" width="603.74" height="176.33" rx="4" ry="4"/><rect class="cls-2" x="117.14" y="0.5" width="603.74" height="176.33" rx="4" ry="4"/><path class="cls-3" d="M30.29,305.06H31.7V312c0,2.07,1.12,3.38,3.21,3.38S38.13,314,38.13,312v-6.91h1.41V312c0,2.82-1.55,4.63-4.63,4.63s-4.62-1.82-4.62-4.61Z"/><path class="cls-3" d="M42.09,314.4a3.7,3.7,0,0,0,2.7,1.17c1.26,0,1.94-.56,1.94-1.36s-1-1.19-2.11-1.46c-1.39-.33-3-.7-3-2.4,0-1.27,1.1-2.36,3.06-2.36a4.16,4.16,0,0,1,3,1.19l-.6.88a3.2,3.2,0,0,0-2.44-1c-1.13,0-1.82.51-1.82,1.24s.93,1.05,2,1.31c1.43.32,3.08.73,3.08,2.54,0,1.38-1.11,2.49-3.23,2.49a4.38,4.38,0,0,1-3.32-1.3Z"/><path class="cls-3" d="M53.61,308c2.49,0,4,1.94,4,4.4v.32H50.91a2.89,2.89,0,0,0,3,2.84,3.59,3.59,0,0,0,2.53-1l.61.83a4.47,4.47,0,0,1-3.26,1.26,4.32,4.32,0,0,1-.14-8.62Zm-2.7,3.79H56.3A2.66,2.66,0,0,0,53.6,309,2.75,2.75,0,0,0,50.91,311.78Z"/><path class="cls-3" d="M59.62,308.19h1.27v1.33a3.49,3.49,0,0,1,2.74-1.5v1.31a2.51,2.51,0,0,0-.51-.05,3,3,0,0,0-2.23,1.31v5.81H59.62Z"/><path class="cls-3" d="M65.17,314.4a3.73,3.73,0,0,0,2.71,1.17c1.26,0,1.94-.56,1.94-1.36s-1-1.19-2.11-1.46c-1.4-.33-3-.7-3-2.4,0-1.27,1.11-2.36,3.06-2.36a4.14,4.14,0,0,1,3,1.19l-.59.88a3.2,3.2,0,0,0-2.45-1c-1.12,0-1.82.51-1.82,1.24s.94,1.05,2,1.31c1.43.32,3.08.73,3.08,2.54,0,1.38-1.11,2.49-3.23,2.49a4.35,4.35,0,0,1-3.32-1.3Z"/><path class="cls-2" d="M30.45,229H22.37A21.77,21.77,0,0,0,.5,251v22"/><path class="cls-2" d="M100.32,289V271c0-12.1-9.3-22-21.69-22H62.28a21.77,21.77,0,0,0-21.87,22v18"/><circle class="cls-2" cx="30.41" cy="211.04" r="18"/><circle class="cls-2" cx="70.41" cy="231.04" r="18"/><path class="cls-3" d="M321.26,22.5h3.87A5.53,5.53,0,0,1,331,28.18a5.5,5.5,0,0,1-5.82,5.66h-3.87Zm3.87,10.08a4.17,4.17,0,0,0,4.36-4.4,4.15,4.15,0,0,0-4.36-4.42h-2.46v8.82Z"/><path class="cls-3" d="M333.16,22.5H337a5.53,5.53,0,0,1,5.82,5.68A5.5,5.5,0,0,1,337,33.84h-3.87ZM337,32.58a4.17,4.17,0,0,0,4.36-4.4A4.15,4.15,0,0,0,337,23.76h-2.46v8.82Z"/><path class="cls-3" d="M344.53,29.73a4.07,4.07,0,1,1,8.13,0,4.07,4.07,0,1,1-8.13,0Zm6.79,0c0-1.67-1-3.17-2.72-3.17s-2.74,1.5-2.74,3.17,1,3.18,2.74,3.18S351.32,31.41,351.32,29.73Z"/><path class="cls-3" d="M354.94,31.17a4.79,4.79,0,0,0,3.57,1.62c2,0,2.66-1.09,2.66-2,0-1.36-1.37-1.73-2.87-2.14-1.82-.48-3.84-1-3.84-3.21,0-1.87,1.67-3.15,3.89-3.15a5.33,5.33,0,0,1,4,1.58l-.85,1a4.32,4.32,0,0,0-3.28-1.36c-1.36,0-2.33.73-2.33,1.8s1.31,1.48,2.76,1.87c1.85.49,4,1.07,4,3.45,0,1.65-1.12,3.33-4.19,3.33a5.6,5.6,0,0,1-4.35-1.8Z"/><path class="cls-3" d="M316.18,41.41l-3.86,9.43h-.58l-3.84-9.43v9.43h-1.41V39.5h2L312,48.14l3.53-8.64h2V50.84h-1.41Z"/><path class="cls-3" d="M320,40.45a.86.86,0,1,1,1.71,0,.86.86,0,0,1-1.71,0Zm.22,2.18h1.27v8.21h-1.27Z"/><path class="cls-3" d="M324.27,49.12V43.75h-1.36V42.63h1.36V40.39h1.27v2.24h1.67v1.12h-1.67v5.1c0,.61.28,1.06.84,1.06a1.26,1.26,0,0,0,.86-.34l.38,1a2.12,2.12,0,0,1-1.53.52A1.68,1.68,0,0,1,324.27,49.12Z"/><path class="cls-3" d="M328.79,40.45a.86.86,0,1,1,1.72,0,.86.86,0,0,1-1.72,0Zm.22,2.18h1.28v8.21H329Z"/><path class="cls-3" d="M333.47,52a3.14,3.14,0,0,0,2.66,1.12,2.35,2.35,0,0,0,2.64-2.47V49.48A3.44,3.44,0,0,1,336,50.94c-2.15,0-3.66-1.6-3.66-4.25s1.5-4.26,3.66-4.26a3.4,3.4,0,0,1,2.75,1.44V42.63H340v8c0,2.72-1.9,3.57-3.91,3.57A4.2,4.2,0,0,1,332.82,53Zm5.3-7.11a3,3,0,0,0-2.45-1.33c-1.65,0-2.63,1.31-2.63,3.13s1,3.13,2.63,3.13a3,3,0,0,0,2.45-1.34Z"/><path class="cls-3" d="M347.73,49.91A3.58,3.58,0,0,1,345,51a2.73,2.73,0,0,1-2.87-2.72,2.68,2.68,0,0,1,2.87-2.7,3.45,3.45,0,0,1,2.72,1.12V45.26c0-1.1-.89-1.73-2.07-1.73a3.27,3.27,0,0,0-2.52,1.14l-.6-.88a4.3,4.3,0,0,1,3.28-1.36c1.74,0,3.18.78,3.18,2.77v5.64h-1.27Zm0-2.35a2.75,2.75,0,0,0-2.26-1,1.81,1.81,0,1,0,0,3.59,2.75,2.75,0,0,0,2.26-1Z"/><path class="cls-3" d="M351.81,49.12V43.75h-1.36V42.63h1.36V40.39h1.27v2.24h1.67v1.12h-1.67v5.1c0,.61.28,1.06.84,1.06a1.26,1.26,0,0,0,.86-.34l.38,1a2.12,2.12,0,0,1-1.53.52A1.68,1.68,0,0,1,351.81,49.12Z"/><path class="cls-3" d="M356.33,40.45a.86.86,0,1,1,1.72,0,.86.86,0,0,1-1.72,0Zm.22,2.18h1.28v8.21h-1.28Z"/><path class="cls-3" d="M359.9,46.73a4.07,4.07,0,1,1,8.13,0,4.07,4.07,0,1,1-8.13,0Zm6.78,0c0-1.67-1-3.17-2.72-3.17s-2.73,1.5-2.73,3.17,1,3.18,2.73,3.18S366.68,48.41,366.68,46.73Z"/><path class="cls-3" d="M375.64,45.47c0-1.45-.73-1.91-1.83-1.91a3.16,3.16,0,0,0-2.43,1.28v6H370.1V42.63h1.28v1.19a4.05,4.05,0,0,1,2.92-1.39,2.33,2.33,0,0,1,2.62,2.65v5.76h-1.28Z"/><g id="_Group_" data-name="&lt;Group&gt;"><polyline id="_Path_" data-name="&lt;Path&gt;" class="cls-2" points="321.36 66.9 341.76 87.3 353.73 75.07"/><polyline id="_Path_2" data-name="&lt;Path&gt;" class="cls-2" points="348.56 70.3 358.76 70.3 358.76 80.5"/></g><circle class="cls-2" cx="341.76" cy="111.1" r="17"/><g id="_Group_2" data-name="&lt;Group&gt;"><polyline id="_Path_3" data-name="&lt;Path&gt;" class="cls-2" points="370.33 71.68 362.52 99.45 379.04 103.9"/><polyline id="_Path_4" data-name="&lt;Path&gt;" class="cls-2" points="380.67 97.06 385.66 105.96 376.77 110.95"/></g><g id="_Group_3" data-name="&lt;Group&gt;"><polyline id="_Path_5" data-name="&lt;Path&gt;" class="cls-2" points="390.15 116.48 362.14 123.4 366.43 139.96"/><polyline id="_Path_6" data-name="&lt;Path&gt;" class="cls-2" points="373.18 138 367.91 146.74 359.17 141.47"/></g><g id="_Group_4" data-name="&lt;Group&gt;"><polyline id="_Path_7" data-name="&lt;Path&gt;" class="cls-2" points="314.56 151.47 321.42 123.45 304.75 119.56"/><polyline id="_Path_8" data-name="&lt;Path&gt;" class="cls-2" points="303.36 126.45 298.06 117.73 306.78 112.44"/></g><g id="_Group_5" data-name="&lt;Group&gt;"><polyline id="_Path_9" data-name="&lt;Path&gt;" class="cls-2" points="361.87 155.43 341.6 134.9 329.56 147.05"/><polyline id="_Path_10" data-name="&lt;Path&gt;" class="cls-2" points="334.69 151.85 324.49 151.78 324.56 141.58"/></g><g id="_Group_6" data-name="&lt;Group&gt;"><polyline id="_Path_11" data-name="&lt;Path&gt;" class="cls-2" points="293.2 107.7 320.9 99.64 315.94 83.26"/><polyline id="_Path_12" data-name="&lt;Path&gt;" class="cls-2" points="309.28 85.49 314.19 76.55 323.13 81.46"/></g><path class="cls-3" d="M465.08,22.5H469a5.52,5.52,0,0,1,5.81,5.68A5.49,5.49,0,0,1,469,33.84h-3.88ZM469,32.58a4.17,4.17,0,0,0,4.35-4.4A4.15,4.15,0,0,0,469,23.76h-2.47v8.82Z"/><path class="cls-3" d="M478.4,24.69v9.15H477V22.5h1.44l6.53,9v-9h1.41V33.84H485Z"/><path class="cls-3" d="M489.17,31.17a4.82,4.82,0,0,0,3.57,1.62c2,0,2.67-1.09,2.67-2,0-1.36-1.37-1.73-2.87-2.14-1.82-.48-3.84-1-3.84-3.21,0-1.87,1.66-3.15,3.89-3.15a5.35,5.35,0,0,1,4,1.58l-.85,1a4.32,4.32,0,0,0-3.28-1.36c-1.36,0-2.33.73-2.33,1.8s1.31,1.48,2.75,1.87c1.86.49,4,1.07,4,3.45,0,1.65-1.12,3.33-4.18,3.33a5.6,5.6,0,0,1-4.35-1.8Z"/><path class="cls-3" d="M452.15,48.17a4.81,4.81,0,0,0,3.57,1.62c2,0,2.67-1.09,2.67-2,0-1.36-1.38-1.73-2.88-2.14-1.82-.48-3.84-1-3.84-3.21,0-1.87,1.67-3.15,3.89-3.15a5.33,5.33,0,0,1,4,1.58l-.85,1a4.32,4.32,0,0,0-3.28-1.36c-1.36,0-2.33.73-2.33,1.8s1.31,1.48,2.76,1.87c1.85.49,4,1.07,4,3.45,0,1.65-1.12,3.33-4.18,3.33a5.61,5.61,0,0,1-4.36-1.8Z"/><path class="cls-3" d="M465.48,42.43c2.48,0,3.94,1.93,3.94,4.4v.32h-6.65a2.89,2.89,0,0,0,3,2.84,3.55,3.55,0,0,0,2.53-1l.61.84A4.46,4.46,0,0,1,465.61,51a4.31,4.31,0,0,1-.13-8.61Zm-2.71,3.79h5.39a2.66,2.66,0,0,0-2.7-2.74A2.75,2.75,0,0,0,462.77,46.22Z"/><path class="cls-3" d="M475.1,42.43a3.54,3.54,0,0,1,3,1.42l-.85.79a2.44,2.44,0,0,0-2.09-1.08,2.86,2.86,0,0,0-2.84,3.17,2.88,2.88,0,0,0,2.84,3.18,2.47,2.47,0,0,0,2.09-1.08l.85.79a3.54,3.54,0,0,1-3,1.42,4.06,4.06,0,0,1-4.1-4.31A4.06,4.06,0,0,1,475.1,42.43Z"/><path class="cls-3" d="M485.43,49.68A4,4,0,0,1,482.51,51a2.31,2.31,0,0,1-2.62-2.61v-5.8h1.28V48c0,1.44.73,1.87,1.83,1.87a3.11,3.11,0,0,0,2.43-1.25v-6h1.28v8.21h-1.28Z"/><path class="cls-3" d="M489.26,42.63h1.27V44a3.51,3.51,0,0,1,2.74-1.5v1.31a2,2,0,0,0-.51-.05A3,3,0,0,0,490.53,45v5.81h-1.27Z"/><path class="cls-3" d="M494.65,40.45a.86.86,0,1,1,1.71,0,.86.86,0,0,1-1.71,0Zm.22,2.18h1.27v8.21h-1.27Z"/><path class="cls-3" d="M499,49.12V43.75h-1.36V42.63H499V40.39h1.27v2.24h1.67v1.12h-1.67v5.1c0,.61.28,1.06.84,1.06a1.26,1.26,0,0,0,.86-.34l.38,1a2.12,2.12,0,0,1-1.53.52A1.68,1.68,0,0,1,499,49.12Z"/><path class="cls-3" d="M504.13,53a1.18,1.18,0,0,0,1.23-.86l.54-1.25-3.43-8.29h1.37l2.74,6.73,2.72-6.73h1.4l-4.12,9.88a2.43,2.43,0,0,1-2.41,1.66,4.1,4.1,0,0,1-.94-.12l.21-1.15A2,2,0,0,0,504.13,53Z"/><path class="cls-3" d="M175.25,39.5h7.43v1.26h-6v3.65h5.9v1.26h-5.9v5.17h-1.41Z"/><path class="cls-3" d="M184.33,40.45a.86.86,0,1,1,1.71,0,.86.86,0,0,1-1.71,0Zm.22,2.18h1.27v8.21h-1.27Z"/><path class="cls-3" d="M188.37,42.63h1.28V44a3.47,3.47,0,0,1,2.73-1.5v1.31a1.91,1.91,0,0,0-.51-.05A3,3,0,0,0,189.65,45v5.81h-1.28Z"/><path class="cls-3" d="M197.55,42.43c2.48,0,3.95,1.93,3.95,4.4v.32h-6.65a2.89,2.89,0,0,0,3,2.84,3.57,3.57,0,0,0,2.53-1l.61.84A4.46,4.46,0,0,1,197.69,51a4.31,4.31,0,0,1-.14-8.61Zm-2.7,3.79h5.39a2.66,2.66,0,0,0-2.71-2.74A2.74,2.74,0,0,0,194.85,46.22Z"/><path class="cls-3" d="M208.52,44.24l-2.15,6.6H205.1l-2.62-8.21h1.33l2,6.54L208,42.63h1.09l2.16,6.54,2-6.54h1.32l-2.62,8.21h-1.27Z"/><path class="cls-3" d="M221.16,49.91A3.57,3.57,0,0,1,218.44,51a2.73,2.73,0,0,1-2.87-2.72,2.69,2.69,0,0,1,2.87-2.7,3.43,3.43,0,0,1,2.72,1.12V45.26c0-1.1-.88-1.73-2.07-1.73a3.28,3.28,0,0,0-2.52,1.14l-.59-.88a4.29,4.29,0,0,1,3.28-1.36c1.73,0,3.18.78,3.18,2.77v5.64h-1.28Zm0-2.35a2.75,2.75,0,0,0-2.26-1,1.81,1.81,0,1,0,0,3.59,2.75,2.75,0,0,0,2.26-1Z"/><path class="cls-3" d="M225,39.5h1.27V50.84H225Z"/><path class="cls-3" d="M228.81,39.5h1.28V50.84h-1.28Z"/><g id="_Group_7" data-name="&lt;Group&gt;"><line id="_Path_13" data-name="&lt;Path&gt;" class="cls-2" x1="154.61" y1="66.93" x2="250.68" y2="66.9"/><line id="_Path_14" data-name="&lt;Path&gt;" class="cls-2" x1="154.67" y1="86.93" x2="250.68" y2="86.93"/><line id="_Path_15" data-name="&lt;Path&gt;" class="cls-2" x1="154.67" y1="106.93" x2="250.68" y2="106.93"/><line id="_Path_16" data-name="&lt;Path&gt;" class="cls-2" x1="154.67" y1="126.93" x2="250.68" y2="126.93"/><line id="_Path_17" data-name="&lt;Path&gt;" class="cls-2" x1="182.68" y1="66.93" x2="182.68" y2="86.36"/><line id="_Path_18" data-name="&lt;Path&gt;" class="cls-2" x1="222.68" y1="66.93" x2="222.68" y2="86.36"/><line id="_Path_19" data-name="&lt;Path&gt;" class="cls-2" x1="182.68" y1="106.93" x2="182.68" y2="126.93"/><line id="_Path_20" data-name="&lt;Path&gt;" class="cls-2" x1="222.68" y1="106.93" x2="222.68" y2="126.93"/><line id="_Path_21" data-name="&lt;Path&gt;" class="cls-2" x1="242.68" y1="86.93" x2="242.68" y2="106.93"/><line id="_Path_22" data-name="&lt;Path&gt;" class="cls-2" x1="162.68" y1="86.93" x2="162.68" y2="106.93"/><line id="_Path_23" data-name="&lt;Path&gt;" class="cls-2" x1="202.67" y1="86.93" x2="202.67" y2="106.93"/><line id="_Path_24" data-name="&lt;Path&gt;" class="cls-2" x1="154.67" y1="146.93" x2="250.68" y2="146.93"/><line id="_Path_25" data-name="&lt;Path&gt;" class="cls-2" x1="242.68" y1="127.5" x2="242.68" y2="146.93"/><line id="_Path_26" data-name="&lt;Path&gt;" class="cls-2" x1="162.68" y1="127.5" x2="162.68" y2="146.93"/><line id="_Path_27" data-name="&lt;Path&gt;" class="cls-2" x1="202.67" y1="127.5" x2="202.67" y2="146.93"/></g><path class="cls-3" d="M552.17,22.5h1.41V33.84h-1.41Z"/><path class="cls-3" d="M561.72,28.47c0-1.45-.73-1.91-1.83-1.91a3.16,3.16,0,0,0-2.43,1.28v6h-1.28V25.63h1.28v1.19a4.06,4.06,0,0,1,2.92-1.4A2.34,2.34,0,0,1,563,28.08v5.76h-1.28Z"/><path class="cls-3" d="M565.8,32.12V26.75h-1.36V25.63h1.36V23.38h1.28v2.25h1.66v1.12h-1.66v5.1c0,.61.27,1,.83,1a1.22,1.22,0,0,0,.87-.34l.37,1a2.1,2.1,0,0,1-1.53.52A1.68,1.68,0,0,1,565.8,32.12Z"/><path class="cls-3" d="M570.55,25.63h1.27V27a3.51,3.51,0,0,1,2.74-1.49v1.31a2,2,0,0,0-.51-.05A3,3,0,0,0,571.82,28v5.81h-1.27Z"/><path class="cls-3" d="M581.7,32.68A4,4,0,0,1,578.77,34a2.31,2.31,0,0,1-2.61-2.62V25.63h1.27V31c0,1.45.73,1.87,1.84,1.87a3.13,3.13,0,0,0,2.43-1.24v-6H583v8.21H581.7Z"/><path class="cls-3" d="M585.47,31.83a3.71,3.71,0,0,0,2.7,1.18c1.26,0,1.94-.56,1.94-1.36s-1-1.19-2.11-1.47c-1.39-.32-3-.69-3-2.39,0-1.28,1.1-2.37,3.06-2.37a4.16,4.16,0,0,1,3,1.19l-.59.89a3.21,3.21,0,0,0-2.45-1c-1.12,0-1.82.51-1.82,1.24s.94,1.06,2,1.31c1.42.32,3.07.73,3.07,2.55,0,1.38-1.1,2.48-3.23,2.48a4.37,4.37,0,0,1-3.31-1.29Z"/><path class="cls-3" d="M593.21,23.45a.86.86,0,1,1,1.71,0,.86.86,0,0,1-1.71,0Zm.22,2.18h1.27v8.21h-1.27Z"/><path class="cls-3" d="M596.78,29.72a4.07,4.07,0,1,1,8.12,0,4.07,4.07,0,1,1-8.12,0Zm6.78,0c0-1.66-1-3.16-2.72-3.16a2.87,2.87,0,0,0-2.74,3.16c0,1.69,1,3.18,2.74,3.18S603.56,31.41,603.56,29.72Z"/><path class="cls-3" d="M612.52,28.47c0-1.45-.73-1.91-1.84-1.91a3.19,3.19,0,0,0-2.43,1.28v6H607V25.63h1.27v1.19a4.08,4.08,0,0,1,2.92-1.4,2.34,2.34,0,0,1,2.62,2.66v5.76h-1.27Z"/><path class="cls-3" d="M620.78,22.5h4.56a3.42,3.42,0,1,1,0,6.83h-3.15v4.51h-1.41Zm4.38,1.26h-3v4.32h3a2.16,2.16,0,1,0,0-4.32Z"/><path class="cls-3" d="M630.71,25.63H632V27a3.52,3.52,0,0,1,2.74-1.49v1.31a2,2,0,0,0-.51-.05A3,3,0,0,0,632,28v5.81h-1.27Z"/><path class="cls-3" d="M635.84,29.72a4.07,4.07,0,1,1,8.13,0,4.07,4.07,0,1,1-8.13,0Zm6.78,0c0-1.66-1-3.16-2.72-3.16s-2.73,1.5-2.73,3.16,1,3.18,2.73,3.18S642.62,31.41,642.62,29.72Z"/><path class="cls-3" d="M646.3,32.12V26.75h-1.36V25.63h1.36V23.38h1.27v2.25h1.67v1.12h-1.67v5.1c0,.61.27,1,.83,1a1.22,1.22,0,0,0,.87-.34l.38,1a2.14,2.14,0,0,1-1.54.52A1.67,1.67,0,0,1,646.3,32.12Z"/><path class="cls-3" d="M654.61,25.42c2.48,0,3.94,1.94,3.94,4.41v.32h-6.64a2.89,2.89,0,0,0,3,2.84,3.58,3.58,0,0,0,2.54-1l.61.84A4.49,4.49,0,0,1,654.74,34a4.07,4.07,0,0,1-4.18-4.32A4.11,4.11,0,0,1,654.61,25.42Zm-2.7,3.79h5.38a2.65,2.65,0,0,0-2.7-2.73A2.73,2.73,0,0,0,651.91,29.21Z"/><path class="cls-3" d="M664.23,25.42a3.53,3.53,0,0,1,3,1.43l-.85.78a2.45,2.45,0,0,0-2.09-1.07,2.87,2.87,0,0,0-2.84,3.16,2.88,2.88,0,0,0,2.84,3.18,2.47,2.47,0,0,0,2.09-1.07l.85.79a3.52,3.52,0,0,1-3,1.42,4.06,4.06,0,0,1-4.1-4.32A4.06,4.06,0,0,1,664.23,25.42Z"/><path class="cls-3" d="M669.28,32.12V26.75h-1.36V25.63h1.36V23.38h1.28v2.25h1.66v1.12h-1.66v5.1c0,.61.27,1,.83,1a1.21,1.21,0,0,0,.86-.34l.38,1a2.1,2.1,0,0,1-1.53.52A1.68,1.68,0,0,1,669.28,32.12Z"/><path class="cls-3" d="M673.8,23.45a.86.86,0,1,1,1.72,0,.86.86,0,0,1-1.72,0Zm.22,2.18h1.28v8.21H674Z"/><path class="cls-3" d="M677.37,29.72a4.07,4.07,0,1,1,8.13,0,4.07,4.07,0,1,1-8.13,0Zm6.79,0c0-1.66-1-3.16-2.73-3.16s-2.73,1.5-2.73,3.16,1,3.18,2.73,3.18S684.16,31.41,684.16,29.72Z"/><path class="cls-3" d="M693.11,28.47c0-1.45-.73-1.91-1.83-1.91a3.16,3.16,0,0,0-2.43,1.28v6h-1.28V25.63h1.28v1.19a4.06,4.06,0,0,1,2.92-1.4,2.34,2.34,0,0,1,2.62,2.66v5.76h-1.28Z"/><path class="cls-3" d="M597.53,48.17a4.81,4.81,0,0,0,3.57,1.62c2,0,2.67-1.09,2.67-2,0-1.36-1.37-1.73-2.87-2.14-1.82-.48-3.84-1-3.84-3.21,0-1.87,1.66-3.15,3.89-3.15a5.35,5.35,0,0,1,4,1.58l-.85,1a4.32,4.32,0,0,0-3.28-1.36c-1.36,0-2.33.73-2.33,1.8s1.31,1.48,2.75,1.87c1.86.49,4,1.07,4,3.45,0,1.65-1.12,3.33-4.18,3.33a5.63,5.63,0,0,1-4.35-1.8Z"/><path class="cls-3" d="M607.63,53a1.17,1.17,0,0,0,1.22-.87l.55-1.24L606,42.63h1.37l2.74,6.73,2.72-6.73h1.39l-4.11,9.87a2.45,2.45,0,0,1-2.42,1.67,4,4,0,0,1-.93-.12l.2-1.15A2.11,2.11,0,0,0,607.63,53Z"/><path class="cls-3" d="M615.47,48.83a3.71,3.71,0,0,0,2.7,1.18c1.26,0,1.94-.56,1.94-1.36s-1-1.19-2.11-1.47c-1.39-.32-3-.69-3-2.39,0-1.28,1.1-2.37,3.06-2.37a4.16,4.16,0,0,1,3,1.19l-.6.89a3.17,3.17,0,0,0-2.44-1c-1.13,0-1.82.51-1.82,1.24s.93,1.06,2,1.31c1.43.32,3.08.73,3.08,2.55,0,1.38-1.11,2.48-3.23,2.48a4.37,4.37,0,0,1-3.31-1.29Z"/><path class="cls-3" d="M623.68,49.12V43.75h-1.36V42.63h1.36V40.38H625v2.25h1.67v1.12H625v5.1c0,.61.28,1,.84,1a1.24,1.24,0,0,0,.87-.34l.37,1a2.1,2.1,0,0,1-1.53.52A1.68,1.68,0,0,1,623.68,49.12Z"/><path class="cls-3" d="M632,42.42c2.48,0,4,1.94,4,4.41v.32h-6.65a2.89,2.89,0,0,0,3,2.84,3.57,3.57,0,0,0,2.53-1l.61.84A4.46,4.46,0,0,1,632.13,51,4.07,4.07,0,0,1,628,46.73,4.11,4.11,0,0,1,632,42.42Zm-2.7,3.8h5.39a2.67,2.67,0,0,0-2.7-2.74A2.75,2.75,0,0,0,629.29,46.22Z"/><path class="cls-3" d="M647.9,45.26c0-1-.46-1.7-1.51-1.7a2.91,2.91,0,0,0-2.18,1.26v6h-1.27V45.26c0-1-.44-1.7-1.51-1.7a2.87,2.87,0,0,0-2.16,1.28v6H638V42.63h1.28v1.19a3.53,3.53,0,0,1,2.65-1.4A2.11,2.11,0,0,1,644.13,44a3.47,3.47,0,0,1,2.75-1.53c1.5,0,2.3.84,2.3,2.49v5.93H647.9Z"/><path class="cls-3" d="M751.59,313.89h-5.75l-1,2.51h-1.56l4.55-11.34h1.75l4.58,11.34h-1.57Zm-5.34-1.26h4.91l-2.44-6.31Z"/><path class="cls-3" d="M755.58,319.53V308.19h1.28v1.23a3.4,3.4,0,0,1,2.77-1.43c2.16,0,3.65,1.63,3.65,4.3s-1.49,4.32-3.65,4.32a3.36,3.36,0,0,1-2.77-1.45v4.37Zm3.73-10.4a3,3,0,0,0-2.45,1.31v3.7a3,3,0,0,0,2.45,1.33c1.65,0,2.63-1.36,2.63-3.18S761,309.13,759.31,309.13Z"/><path class="cls-3" d="M765.34,319.53V308.19h1.28v1.23a3.4,3.4,0,0,1,2.77-1.43c2.16,0,3.65,1.63,3.65,4.3s-1.49,4.32-3.65,4.32a3.36,3.36,0,0,1-2.77-1.45v4.37Zm3.72-10.4a3,3,0,0,0-2.44,1.31v3.7a3,3,0,0,0,2.44,1.33c1.65,0,2.64-1.36,2.64-3.18S770.71,309.13,769.06,309.13Z"/><path class="cls-3" d="M775.1,305.06h1.27V316.4H775.1Z"/><path class="cls-3" d="M778.7,306a.86.86,0,1,1,1.72,0,.86.86,0,0,1-1.72,0Zm.22,2.17h1.28v8.21h-1.28Z"/><path class="cls-3" d="M786.37,308a3.5,3.5,0,0,1,3,1.43l-.85.78a2.42,2.42,0,0,0-2.09-1.07,3.19,3.19,0,0,0,0,6.34,2.47,2.47,0,0,0,2.09-1.07l.85.78a3.53,3.53,0,0,1-3,1.43,4.32,4.32,0,0,1,0-8.62Z"/><path class="cls-3" d="M796.3,315.47a3.55,3.55,0,0,1-2.72,1.14,2.74,2.74,0,0,1-2.87-2.72,2.69,2.69,0,0,1,2.87-2.71,3.42,3.42,0,0,1,2.72,1.13v-1.48c0-1.11-.89-1.74-2.07-1.74a3.27,3.27,0,0,0-2.52,1.14l-.6-.88A4.31,4.31,0,0,1,794.4,308c1.73,0,3.17.78,3.17,2.77v5.64H796.3Zm0-2.35a2.75,2.75,0,0,0-2.26-1,1.81,1.81,0,1,0,0,3.59,2.75,2.75,0,0,0,2.26-1Z"/><path class="cls-3" d="M800.38,314.69v-5.38H799v-1.12h1.36V306h1.27v2.24h1.67v1.12h-1.67v5.1c0,.62.28,1.06.84,1.06a1.26,1.26,0,0,0,.86-.34l.38.95a2.06,2.06,0,0,1-1.53.53A1.68,1.68,0,0,1,800.38,314.69Z"/><path class="cls-3" d="M804.9,306a.86.86,0,1,1,.85.85A.86.86,0,0,1,804.9,306Zm.22,2.17h1.28v8.21h-1.28Z"/><path class="cls-3" d="M808.47,312.29a4.07,4.07,0,1,1,4.06,4.32A4,4,0,0,1,808.47,312.29Zm6.78,0c0-1.67-1-3.16-2.72-3.16s-2.73,1.49-2.73,3.16,1,3.18,2.73,3.18S815.25,314,815.25,312.29Z"/><path class="cls-3" d="M824.21,311c0-1.44-.73-1.9-1.83-1.9A3.15,3.15,0,0,0,820,310.4v6h-1.28v-8.21H820v1.19a4.05,4.05,0,0,1,2.92-1.39,2.33,2.33,0,0,1,2.62,2.65v5.76h-1.28Z"/><path class="cls-3" d="M828,314.4a3.7,3.7,0,0,0,2.7,1.17c1.26,0,1.94-.56,1.94-1.36s-1-1.19-2.11-1.46c-1.39-.33-3-.7-3-2.4,0-1.27,1.1-2.36,3.06-2.36a4.16,4.16,0,0,1,3,1.19l-.6.88a3.2,3.2,0,0,0-2.44-1c-1.13,0-1.82.51-1.82,1.24s.93,1.05,2,1.31c1.43.32,3.08.73,3.08,2.54,0,1.38-1.11,2.49-3.23,2.49a4.38,4.38,0,0,1-3.32-1.3Z"/><rect class="cls-2" x="736.38" y="202.19" width="87.66" height="87.66" rx="20.45" ry="20.45"/><path class="cls-2" d="M821.84,280h.9a18.67,18.67,0,0,0,18.67-18.67V211a18.67,18.67,0,0,0-18.67-18.67H772.43A18.68,18.68,0,0,0,756,202.19"/><line class="cls-2" x1="419.2" y1="176.83" x2="419.2" y2="205.05"/><line id="_Path_28" data-name="&lt;Path&gt;" class="cls-2" x1="285.83" y1="259.05" x2="349.25" y2="259.05"/><line id="_Path_29" data-name="&lt;Path&gt;" class="cls-2" x1="198.07" y1="259.05" x2="261.79" y2="259.05"/><polyline id="_Path_30" data-name="&lt;Path&gt;" class="cls-2" points="343.56 265.05 349.56 259.05 343.56 253.05"/><polyline id="_Path_31" data-name="&lt;Path&gt;" class="cls-2" points="203.06 253.05 197.06 259.05 203.06 265.05"/><rect class="cls-2" x="261.79" y="248.52" width="24.04" height="21.02"/><path class="cls-2" d="M282.81,248.52v-6a9,9,0,0,0-18,0v6"/><line id="_Path_32" data-name="&lt;Path&gt;" class="cls-2" x1="617.22" y1="259.05" x2="721.65" y2="259.05"/><line id="_Path_33" data-name="&lt;Path&gt;" class="cls-2" x1="489.47" y1="259.05" x2="593.18" y2="259.05"/><polyline id="_Path_34" data-name="&lt;Path&gt;" class="cls-2" points="715.95 265.05 721.95 259.05 715.95 253.05"/><polyline id="_Path_35" data-name="&lt;Path&gt;" class="cls-2" points="494.45 253.05 488.45 259.05 494.45 265.05"/><rect class="cls-2" x="593.18" y="248.52" width="24.04" height="21.02"/><path class="cls-2" d="M614.21,248.52v-6a9,9,0,0,0-18,0v6"/><path class="cls-2" d="M161.47,276.8H119.39a10.6,10.6,0,0,1,0-21.19h0a15.75,15.75,0,0,1,22.24-14.35,18.42,18.42,0,0,1,35,11.26,13.23,13.23,0,0,1-7.26,24.28h-2.63"/><path class="cls-3" d="M397.52,325h5a2.86,2.86,0,0,1,3.18,2.89,2.57,2.57,0,0,1-2,2.6A2.83,2.83,0,0,1,406,333.3a3,3,0,0,1-3.28,3.06h-5.16Zm4.81,4.92a1.76,1.76,0,0,0,1.95-1.82,1.78,1.78,0,0,0-1.95-1.84h-3.4v3.66Zm.06,5.16a1.87,1.87,0,0,0,2.11-2,1.93,1.93,0,0,0-2.11-2h-3.46v3.91Z"/><path class="cls-3" d="M408.21,325h1.41v11.34h-1.41Z"/><path class="cls-3" d="M417.64,324.84a5.42,5.42,0,0,1,4.41,2.12l-1.13.7a4.16,4.16,0,0,0-3.28-1.56,4.62,4.62,0,0,0,0,9.23,4.52,4.52,0,0,0,3.05-1.23v-2.31h-3.9v-1.26h5.31v4.1a5.92,5.92,0,0,1-4.46,1.95,5.87,5.87,0,0,1,0-11.74Z"/><path class="cls-3" d="M423.58,331.69h4.08v1.12h-4.08Z"/><path class="cls-3" d="M429.49,325h1.41v11.34h-1.41Z"/><path class="cls-3" d="M433.56,325h4.55a3.42,3.42,0,1,1,0,6.84H435v4.5h-1.41Zm4.38,1.26h-3v4.32h3a2.16,2.16,0,1,0,0-4.32Z"/><path class="cls-3" d="M359.06,350.85h-5.74l-1,2.51h-1.56L355.31,342h1.75l4.57,11.34h-1.56Zm-5.34-1.26h4.92l-2.45-6.31Z"/><path class="cls-3" d="M369,352.14a3.47,3.47,0,0,1-2.77,1.43c-2.15,0-3.66-1.64-3.66-4.3s1.5-4.32,3.66-4.32a3.45,3.45,0,0,1,2.77,1.44V342h1.27v11.34H369Zm0-4.73a3.1,3.1,0,0,0-2.47-1.32c-1.65,0-2.63,1.36-2.63,3.18s1,3.16,2.63,3.16a3.07,3.07,0,0,0,2.47-1.29Z"/><path class="cls-3" d="M371.61,345.15H373l2.73,6.73,2.72-6.73h1.4l-3.42,8.21H375Z"/><path class="cls-3" d="M386.3,352.43a3.55,3.55,0,0,1-2.72,1.14,2.74,2.74,0,0,1-2.88-2.72,2.69,2.69,0,0,1,2.88-2.71,3.44,3.44,0,0,1,2.72,1.13v-1.48c0-1.11-.89-1.74-2.08-1.74a3.26,3.26,0,0,0-2.51,1.14l-.6-.88a4.3,4.3,0,0,1,3.28-1.36c1.74,0,3.18.78,3.18,2.77v5.64H386.3Zm0-2.35a2.76,2.76,0,0,0-2.26-1,1.81,1.81,0,1,0,0,3.59,2.76,2.76,0,0,0,2.26-1Z"/><path class="cls-3" d="M395.66,348c0-1.44-.73-1.9-1.83-1.9a3.15,3.15,0,0,0-2.43,1.27v6h-1.28v-8.21h1.28v1.19a4.07,4.07,0,0,1,2.92-1.39,2.33,2.33,0,0,1,2.62,2.65v5.76h-1.28Z"/><path class="cls-3" d="M403.11,345a3.5,3.5,0,0,1,3,1.43l-.85.78a2.42,2.42,0,0,0-2.09-1.07,3.19,3.19,0,0,0,0,6.34,2.47,2.47,0,0,0,2.09-1.07l.85.78a3.53,3.53,0,0,1-3,1.43,4.32,4.32,0,0,1,0-8.62Z"/><path class="cls-3" d="M411.47,345c2.49,0,3.95,1.94,3.95,4.4v.32h-6.65a2.89,2.89,0,0,0,3,2.84,3.59,3.59,0,0,0,2.53-1l.61.83a4.47,4.47,0,0,1-3.26,1.26,4.32,4.32,0,0,1-.14-8.62Zm-2.7,3.79h5.39a2.66,2.66,0,0,0-2.7-2.74A2.75,2.75,0,0,0,408.77,348.74Z"/><path class="cls-3" d="M423.42,352.14a3.46,3.46,0,0,1-2.77,1.43c-2.14,0-3.65-1.64-3.65-4.3s1.49-4.32,3.65-4.32a3.42,3.42,0,0,1,2.77,1.44V342h1.28v11.34h-1.28Zm0-4.73a3.07,3.07,0,0,0-2.46-1.32c-1.65,0-2.64,1.36-2.64,3.18s1,3.16,2.64,3.16a3,3,0,0,0,2.46-1.29Z"/><path class="cls-3" d="M431.69,342h7.42v1.26h-6v3.66H439v1.25h-5.9v5.17h-1.41Z"/><path class="cls-3" d="M440.76,343a.86.86,0,1,1,1.72,0,.86.86,0,0,1-1.72,0Zm.23,2.17h1.27v8.21H441Z"/><path class="cls-3" d="M444.81,345.15h1.28v1.33a3.47,3.47,0,0,1,2.73-1.5v1.31a2.44,2.44,0,0,0-.51-.05,3,3,0,0,0-2.22,1.31v5.81h-1.28Z"/><path class="cls-3" d="M454,345c2.48,0,3.94,1.94,3.94,4.4v.32h-6.64a2.89,2.89,0,0,0,2.95,2.84,3.61,3.61,0,0,0,2.54-1l.61.83a4.49,4.49,0,0,1-3.26,1.26A4.31,4.31,0,0,1,454,345Zm-2.7,3.79h5.39A2.67,2.67,0,0,0,454,346,2.74,2.74,0,0,0,451.29,348.74Z"/><path class="cls-3" d="M465,346.77l-2.14,6.59h-1.27l-2.62-8.21h1.33l2,6.55,2.16-6.55h1.09l2.16,6.55,2-6.55H471l-2.62,8.21H467.1Z"/><path class="cls-3" d="M477.6,352.43a3.54,3.54,0,0,1-2.72,1.14,2.74,2.74,0,0,1-2.87-2.72,2.69,2.69,0,0,1,2.87-2.71,3.42,3.42,0,0,1,2.72,1.13v-1.48c0-1.11-.88-1.74-2.07-1.74a3.27,3.27,0,0,0-2.52,1.14l-.59-.88A4.29,4.29,0,0,1,475.7,345c1.73,0,3.18.78,3.18,2.77v5.64H477.6Zm0-2.35a2.75,2.75,0,0,0-2.26-1,1.81,1.81,0,1,0,0,3.59,2.75,2.75,0,0,0,2.26-1Z"/><path class="cls-3" d="M481.43,342h1.27v11.34h-1.27Z"/><path class="cls-3" d="M485.25,342h1.28v11.34h-1.28Z"/><path class="cls-3" d="M397.23,360.93l-3.86,9.43h-.58L389,360.93v9.43h-1.41V359h2l3.52,8.64,3.53-8.64h2v11.34h-1.41Z"/><path class="cls-3" d="M406.37,369.43a3.54,3.54,0,0,1-2.72,1.14,2.74,2.74,0,0,1-2.87-2.72,2.69,2.69,0,0,1,2.87-2.71,3.41,3.41,0,0,1,2.72,1.13v-1.48c0-1.11-.88-1.74-2.07-1.74a3.27,3.27,0,0,0-2.52,1.14l-.59-.88a4.29,4.29,0,0,1,3.28-1.36c1.73,0,3.18.78,3.18,2.77v5.64h-1.28Zm0-2.35a2.75,2.75,0,0,0-2.26-1,1.81,1.81,0,1,0,0,3.59,2.75,2.75,0,0,0,2.26-1Z"/><path class="cls-3" d="M415.74,365c0-1.44-.73-1.9-1.84-1.9a3.18,3.18,0,0,0-2.43,1.27v6H410.2v-8.21h1.27v1.19A4.08,4.08,0,0,1,414.4,362,2.33,2.33,0,0,1,417,364.6v5.76h-1.27Z"/><path class="cls-3" d="M424.7,369.43a3.55,3.55,0,0,1-2.72,1.14,2.74,2.74,0,0,1-2.87-2.72,2.69,2.69,0,0,1,2.87-2.71,3.42,3.42,0,0,1,2.72,1.13v-1.48c0-1.11-.88-1.74-2.07-1.74a3.27,3.27,0,0,0-2.52,1.14l-.6-.88A4.31,4.31,0,0,1,422.8,362c1.73,0,3.17.78,3.17,2.77v5.64H424.7Zm0-2.35a2.75,2.75,0,0,0-2.26-1,1.81,1.81,0,1,0,0,3.59,2.75,2.75,0,0,0,2.26-1Z"/><path class="cls-3" d="M429.15,371.52a3.16,3.16,0,0,0,2.67,1.12,2.35,2.35,0,0,0,2.64-2.46V369a3.45,3.45,0,0,1-2.76,1.46c-2.14,0-3.65-1.59-3.65-4.25s1.49-4.26,3.65-4.26a3.41,3.41,0,0,1,2.76,1.44v-1.24h1.27v8c0,2.72-1.9,3.57-3.91,3.57a4.2,4.2,0,0,1-3.31-1.22Zm5.31-7.11a3,3,0,0,0-2.45-1.32c-1.65,0-2.64,1.31-2.64,3.12s1,3.13,2.64,3.13a3,3,0,0,0,2.45-1.34Z"/><path class="cls-3" d="M441.85,362c2.48,0,3.95,1.94,3.95,4.4v.32h-6.65a2.89,2.89,0,0,0,3,2.84,3.6,3.6,0,0,0,2.53-1l.61.83a4.47,4.47,0,0,1-3.26,1.26,4.32,4.32,0,0,1-.14-8.62Zm-2.7,3.79h5.39a2.67,2.67,0,0,0-2.71-2.74A2.74,2.74,0,0,0,439.15,365.74Z"/><path class="cls-3" d="M447.85,362.15h1.28v1.33a3.47,3.47,0,0,1,2.73-1.5v1.31a2.41,2.41,0,0,0-.5-.05,3,3,0,0,0-2.23,1.31v5.81h-1.28Z"/><circle class="cls-4" cx="419.2" cy="260.06" r="55.02"/><path class="cls-3" d="M386.64,239.3h7.67c3.13,0,5.15,1.82,5.15,4.76a4.24,4.24,0,0,1-3.28,4.28,4.69,4.69,0,0,1,3.64,4.6c0,3.1-2,5-5.34,5h-7.84Zm7.47,8.37a3.46,3.46,0,1,0,0-6.91h-5.88v6.91Zm.11,8.85c2.47,0,3.92-1.43,3.92-3.7a3.63,3.63,0,0,0-3.92-3.69h-6v7.39Z"/><path class="cls-3" d="M403.13,239.3h1.59V258h-1.59Z"/><path class="cls-3" d="M417.44,239a8.84,8.84,0,0,1,7,3.19l-1.2.87a7.6,7.6,0,0,0-5.82-2.6c-4.4,0-7.79,3.33-7.79,8.2s3.39,8.23,7.79,8.23a7.94,7.94,0,0,0,5.48-2.26v-4.48h-7.05v-1.43h8.65v6.52A9.52,9.52,0,0,1,408,248.65,9.29,9.29,0,0,1,417.44,239Z"/><path class="cls-3" d="M426.4,250.53h6.72v1.34H426.4Z"/><path class="cls-3" d="M435.58,239.3h1.6V258h-1.6Z"/><path class="cls-3" d="M441.12,239.3h7a5.46,5.46,0,1,1,0,10.92h-5.4V258h-1.6Zm6.84,1.46h-5.24v8H448a4,4,0,1,0,0-8Z"/><path class="cls-3" d="M406.57,279.38h-9.94l-1.87,4.6H393l7.65-18.68h2L410.24,284h-1.79Zm-9.43-1.45h8.93l-4.48-11.06Z"/><path class="cls-3" d="M412.28,265.3h11.85v1.46H413.88v6.91h10.05v1.46H413.88V284h-1.6Z"/><path class="cls-3" d="M442.61,267.4,435.8,284h-.61l-6.84-16.58V284h-1.59V265.3h2.38l6.35,15.48,6.33-15.48h2.41V284h-1.62Z"/><path class="cls-3" d="M765.87,249a7,7,0,0,1-5.41,2.28,5.35,5.35,0,0,1-5.58-5.32c0-3.46,2.81-5.28,5.58-5.28a6.89,6.89,0,0,1,5.41,2.28v-3.24c0-2.37-1.91-3.66-4.29-3.66a6.19,6.19,0,0,0-5,2.34l-1-1.19a7.75,7.75,0,0,1,6.14-2.67c3.23,0,5.81,1.55,5.81,5.12v11.22h-1.72Zm0-4.75a6,6,0,0,0-4.82-2.22c-2.64,0-4.35,1.69-4.35,4s1.71,3.93,4.35,3.93a5.93,5.93,0,0,0,4.82-2.18Z"/><path class="cls-3" d="M772.67,257V235h1.72v2.51a6.83,6.83,0,0,1,5.54-2.91c4.26,0,7.13,3.24,7.13,8.35s-2.87,8.39-7.13,8.39a6.8,6.8,0,0,1-5.54-3V257Zm7-20.86a6.42,6.42,0,0,0-5.24,2.84v7.89a6.47,6.47,0,0,0,5.24,2.9c3.57,0,5.58-3,5.58-6.83S783.2,236.13,779.63,236.13Z"/><path class="cls-3" d="M791.21,257V235h1.72v2.51a6.85,6.85,0,0,1,5.55-2.91c4.25,0,7.12,3.24,7.12,8.35s-2.87,8.39-7.12,8.39a6.81,6.81,0,0,1-5.55-3V257Zm7-20.86a6.44,6.44,0,0,0-5.25,2.84v7.89a6.49,6.49,0,0,0,5.25,2.9c3.56,0,5.58-3,5.58-6.83S801.74,236.13,798.18,236.13Z"/><circle class="cls-5" cx="454.4" cy="128.24" r="20.67"/><rect class="cls-2" x="445.66" y="124.6" width="17.49" height="15.29"/><path class="cls-2" d="M461,124.6v-4.37a6.55,6.55,0,1,0-13.1,0v4.37"/><line class="cls-2" x1="521.68" y1="94.47" x2="521.68" y2="117.5"/><line class="cls-2" x1="461.32" y1="65.7" x2="490.18" y2="65.7"/><line class="cls-2" x1="448.03" y1="108.54" x2="448.03" y2="93.72"/><line class="cls-2" x1="503.16" y1="139.36" x2="486.92" y2="139.36"/><path class="cls-2" d="M474.69,89.6a4.74,4.74,0,0,0,1.51.26,4.6,4.6,0,0,0,3.72-1.9"/><path class="cls-2" d="M478.13,81.08a4.62,4.62,0,0,0-1.93-.43,4.57,4.57,0,0,0-3.43,1.55"/><path class="cls-2" d="M518.61,65.7H490.18a50.81,50.81,0,0,0-12.05,15.38,4.6,4.6,0,0,1,2.68,4.18,4.53,4.53,0,0,1-.89,2.7,50.57,50.57,0,0,0,41.76,6.51V68.77A3.06,3.06,0,0,0,518.61,65.7Z"/><path class="cls-2" d="M468.74,95.53a4.55,4.55,0,0,0-.28,1.57,4.6,4.6,0,0,0,4.19,4.58"/><path class="cls-2" d="M477.22,99.07a4.66,4.66,0,0,0,.45-2,4.59,4.59,0,0,0-3.76-4.52"/><path class="cls-2" d="M473.06,92.49a4,4,0,0,1,.85.09c.24-1,.49-2,.78-3a4.6,4.6,0,0,1-3.09-4.34,4.55,4.55,0,0,1,1.17-3.06,50.7,50.7,0,0,1-11.45-16.5H451.1A3.06,3.06,0,0,0,448,68.77v25a49.73,49.73,0,0,1,6.14-.4,49,49,0,0,1,14.57,2.21A4.6,4.6,0,0,1,473.06,92.49Z"/><path class="cls-2" d="M488.49,113.37a4.59,4.59,0,0,0,7.11,2.73"/><path class="cls-2" d="M497.55,111.83a4.61,4.61,0,0,0-7.59-3"/><path class="cls-2" d="M500.2,111.74c-.89,0-1.78,0-2.65.09,0,.16,0,.33,0,.49a4.6,4.6,0,0,1-2,3.78,48.72,48.72,0,0,1,7.56,23.26h15.45a3.07,3.07,0,0,0,3.07-3.07V117.5A42.71,42.71,0,0,0,500.2,111.74Z"/><path class="cls-2" d="M476.75,124.12a4.6,4.6,0,0,0,2.2-6.75"/><path class="cls-2" d="M473.87,115.4a4.54,4.54,0,0,0-2.21,1.36"/><path class="cls-2" d="M490,108.84a49.24,49.24,0,0,0-12.74-9.77,4.61,4.61,0,0,1-4.16,2.63l-.41,0c0,.79-.07,1.58-.07,2.38a51.06,51.06,0,0,0,1.29,11.34,4.82,4.82,0,0,1,1.2-.16,4.59,4.59,0,0,1,3.88,2.13,43,43,0,0,1,9.54-4,4.57,4.57,0,0,1-.12-1.05A4.62,4.62,0,0,1,490,108.84Z"/><path class="cls-2" d="M479,117.37a4.59,4.59,0,0,0-3.88-2.13,4.82,4.82,0,0,0-1.2.16"/><path class="cls-2" d="M471.57,139.36h15.35a50.85,50.85,0,0,1-10.17-15.24,4.48,4.48,0,0,1-1.68.32"/><path class="cls-2" d="M475.07,124.44a4.48,4.48,0,0,0,1.68-.32"/><path class="cls-3" d="M118.24,286.31h1.41v11.33h-1.41Z"/><path class="cls-3" d="M127.8,292.27c0-1.44-.74-1.9-1.84-1.9a3.17,3.17,0,0,0-2.43,1.27v6h-1.28v-8.21h1.28v1.19a4.07,4.07,0,0,1,2.92-1.39,2.33,2.33,0,0,1,2.62,2.65v5.76H127.8Z"/><path class="cls-3" d="M131.88,295.93v-5.37h-1.36v-1.13h1.36v-2.24h1.27v2.24h1.67v1.13h-1.67v5.09c0,.62.27,1.06.83,1.06a1.22,1.22,0,0,0,.87-.34l.38.95a2.1,2.1,0,0,1-1.54.53A1.68,1.68,0,0,1,131.88,295.93Z"/><path class="cls-3" d="M140.19,289.23c2.48,0,3.94,1.94,3.94,4.4V294h-6.64a2.89,2.89,0,0,0,2.95,2.83,3.61,3.61,0,0,0,2.54-1l.61.83a4.46,4.46,0,0,1-3.27,1.26,4.32,4.32,0,0,1-.13-8.62Zm-2.7,3.79h5.38a2.66,2.66,0,0,0-2.7-2.74A2.73,2.73,0,0,0,137.49,293Z"/><path class="cls-3" d="M146.19,289.43h1.28v1.33a3.47,3.47,0,0,1,2.73-1.5v1.31a2.44,2.44,0,0,0-.51-.05,3,3,0,0,0-2.22,1.31v5.81h-1.28Z"/><path class="cls-3" d="M157.34,292.27c0-1.44-.73-1.9-1.84-1.9a3.18,3.18,0,0,0-2.43,1.27v6H151.8v-8.21h1.27v1.19a4.08,4.08,0,0,1,2.93-1.39,2.33,2.33,0,0,1,2.62,2.65v5.76h-1.28Z"/><path class="cls-3" d="M164.74,289.23c2.48,0,3.94,1.94,3.94,4.4V294H162a2.9,2.9,0,0,0,3,2.83,3.57,3.57,0,0,0,2.53-1l.62.83a4.46,4.46,0,0,1-3.27,1.26,4.32,4.32,0,0,1-.13-8.62ZM162,293h5.39a2.66,2.66,0,0,0-2.7-2.74A2.75,2.75,0,0,0,162,293Z"/><path class="cls-3" d="M171,295.93v-5.37h-1.36v-1.13H171v-2.24h1.28v2.24h1.66v1.13h-1.66v5.09c0,.62.27,1.06.83,1.06a1.22,1.22,0,0,0,.87-.34l.37.95a2.06,2.06,0,0,1-1.53.53A1.68,1.68,0,0,1,171,295.93Z"/><g id="_Group_8" data-name="&lt;Group&gt;"><line id="_Path_36" data-name="&lt;Path&gt;" class="cls-2" x1="621.22" y1="118.37" x2="633.18" y2="118.37"/></g><polyline id="_Path_37" data-name="&lt;Path&gt;" class="cls-2" points="618.55 113.87 669.07 113.87 669.07 66 585.3 66 585.3 95.33"/><path id="_Path_38" data-name="&lt;Path&gt;" class="cls-2" d="M672.05,118.26a5.43,5.43,0,0,1-3,4.59H616.79"/><line class="cls-5" x1="585.35" y1="125.54" x2="607.52" y2="103.37"/><path class="cls-3" d="M601,81.48c-4,0-5.36,4.26-5.36,7.75a12.33,12.33,0,0,0,.52,3.59h.78a12.18,12.18,0,0,1-.52-3.59c0-3.2,1.11-7.07,4.58-7.07s4.55,3.87,4.55,7.07a11,11,0,0,1-.92,4.62,2.33,2.33,0,0,0,.43.7,10.84,10.84,0,0,0,1.28-5.32C606.3,85.74,604.9,81.48,601,81.48Z"/><path class="cls-3" d="M611.3,82.74l-2.36,2.59-.5-.51,2.91-3.11H612v15h-.72Z"/><path class="cls-3" d="M620.83,81.48c3.95,0,5.35,4.26,5.35,7.75S624.78,97,620.83,97s-5.36-4.31-5.36-7.78S616.87,81.48,620.83,81.48Zm0,.68c-3.47,0-4.57,3.87-4.57,7.07s1.1,7.1,4.57,7.1,4.56-3.92,4.56-7.1S624.3,82.16,620.83,82.16Z"/><path class="cls-3" d="M631.18,82.74l-2.37,2.59-.5-.51,2.91-3.11h.68v15h-.72Z"/><path class="cls-3" d="M640.71,81.48c3.94,0,5.34,4.26,5.34,7.75S644.65,97,640.71,97s-5.37-4.31-5.37-7.78S636.74,81.48,640.71,81.48Zm0,.68c-3.47,0-4.58,3.87-4.58,7.07s1.11,7.1,4.58,7.1,4.55-3.92,4.55-7.1S644.18,82.16,640.71,82.16Z"/><path class="cls-3" d="M651.05,82.74l-2.37,2.59-.49-.51,2.91-3.11h.67v15h-.72Z"/><path class="cls-3" d="M657.29,82.74l-2.36,2.59-.5-.51,2.91-3.11H658v15h-.72Z"/><path class="cls-2" d="M592.07,124.46v-3.55s-6.48,0-5.44-8a10.13,10.13,0,0,1,6.48-8.16,8.77,8.77,0,0,1,6.82,0,10.12,10.12,0,0,1,6.47,8.16c1,8-5.45,8-5.45,8v3.55m-8.69-13.52a3.22,3.22,0,1,0,2.79,3.19A3,3,0,0,0,592.26,110.94Zm8.43,0a3.22,3.22,0,1,0,2.8,3.19A3,3,0,0,0,600.69,110.94Zm-6,14.41v-3.56m3.55,0v3.56m-1.81-8.43c-.42,0-1.43,1.45-1.43,1.91a.91.91,0,0,0,.85,1,.78.78,0,0,1,1.18,0,.91.91,0,0,0,.85-1C597.93,118.36,596.9,116.92,596.48,116.92Z"/><path class="cls-2" d="M609.65,132.27l3.66,4.95a3.19,3.19,0,0,1,4.56.68l8.94,11.79a3.25,3.25,0,0,1-.67,4.55h0a3.26,3.26,0,0,1-4.56-.67l-8.94-11.79"/><circle class="cls-2" cx="596.43" cy="114.45" r="21.97"/><circle class="cls-2" cx="596.43" cy="114.45" r="15.69"/></g></g></svg>