<svg xmlns="http://www.w3.org/2000/svg" viewBox="0 0 943.51 361.98"><defs><style>.cls-1,.cls-14,.cls-3{fill:#fff;}.cls-10,.cls-12,.cls-15,.cls-2,.cls-4,.cls-7,.cls-8,.cls-9{fill:none;}.cls-15,.cls-2,.cls-3{stroke:#38313d;}.cls-10,.cls-14,.cls-15,.cls-2,.cls-4,.cls-7,.cls-8,.cls-9{stroke-linecap:round;stroke-linejoin:round;}.cls-12,.cls-3{stroke-miterlimit:10;}.cls-12,.cls-14,.cls-4{stroke:#e4002b;}.cls-13,.cls-5{fill:#38313d;}.cls-6{fill:#109cd3;}.cls-10,.cls-7,.cls-8,.cls-9{stroke:#109cd3;}.cls-8{stroke-dasharray:6.11 3.05;}.cls-9{stroke-dasharray:6.31 3.16;}.cls-10{stroke-dasharray:6 3;}.cls-11{fill:#e4002b;}.cls-13{font-size:33px;font-family:ProximaNova-Light, Proxima Nova;letter-spacing:-0.01em;}.cls-15{stroke-dasharray:6 6;}</style></defs><title>Asset 1</title><g id="Layer_2" data-name="Layer 2"><g id="Hybrid_Deployment_with_Automated_Signaling" data-name="Hybrid Deployment with Automated Signaling"><rect class="cls-1" x="410.07" y="0.5" width="532.94" height="360.98" rx="4" ry="4"/><rect class="cls-2" x="410.07" y="0.5" width="532.94" height="360.98" rx="4" ry="4"/><circle class="cls-3" cx="506.75" cy="196.24" r="55.02"/><circle class="cls-3" cx="202.83" cy="55.52" r="55.02"/><line id="_Path_" data-name="&lt;Path&gt;" class="cls-4" x1="212.29" y1="154.58" x2="212.29" y2="122.4"/><polyline id="_Path_2" data-name="&lt;Path&gt;" class="cls-4" points="218.29 128.09 212.29 122.09 206.29 128.09"/><polyline id="_Path_3" data-name="&lt;Path&gt;" class="cls-4" points="212.29 225.38 212.29 289.01 82.8 289.01"/><path class="cls-5" d="M13,90.35h1.41v10.08h5.27v1.26H13Z"/><path class="cls-5" d="M24.79,93.27c2.48,0,3.94,1.94,3.94,4.41V98H22.09a2.89,2.89,0,0,0,3,2.84,3.61,3.61,0,0,0,2.53-1l.61.83a4.43,4.43,0,0,1-3.26,1.26,4.32,4.32,0,0,1-.14-8.62Zm-2.7,3.79h5.39a2.67,2.67,0,0,0-2.71-2.73A2.74,2.74,0,0,0,22.09,97.06Z"/><path class="cls-5" d="M31.42,102.84A3.14,3.14,0,0,0,34.09,104a2.35,2.35,0,0,0,2.63-2.47v-1.17A3.42,3.42,0,0,1,34,101.79c-2.14,0-3.65-1.6-3.65-4.25s1.49-4.27,3.65-4.27a3.39,3.39,0,0,1,2.75,1.45V93.48H38v8c0,2.72-1.9,3.57-3.91,3.57a4.22,4.22,0,0,1-3.32-1.22Zm5.3-7.1a3,3,0,0,0-2.44-1.33c-1.65,0-2.64,1.31-2.64,3.13s1,3.13,2.64,3.13a3,3,0,0,0,2.44-1.34Z"/><path class="cls-5" d="M40.33,91.3a.86.86,0,0,1,.85-.86.88.88,0,0,1,.87.86.86.86,0,0,1-.87.85A.85.85,0,0,1,40.33,91.3Zm.22,2.18h1.27v8.21H40.55Z"/><path class="cls-5" d="M44.63,100V94.6H43.27V93.48h1.36V91.23h1.28v2.25h1.66V94.6H45.91v5.1c0,.61.27,1,.83,1a1.22,1.22,0,0,0,.87-.34l.37,1a2.06,2.06,0,0,1-1.53.53A1.68,1.68,0,0,1,44.63,100Z"/><path class="cls-5" d="M49.15,91.3a.86.86,0,1,1,1.72,0,.86.86,0,0,1-1.72,0Zm.22,2.18h1.28v8.21H49.37Z"/><path class="cls-5" d="M63.11,96.11c0-1-.46-1.7-1.51-1.7a2.89,2.89,0,0,0-2.18,1.26v6H58.14V96.11c0-1-.44-1.7-1.51-1.7a2.9,2.9,0,0,0-2.16,1.28v6H53.2V93.48h1.27v1.19a3.55,3.55,0,0,1,2.65-1.4,2.1,2.1,0,0,1,2.21,1.53,3.49,3.49,0,0,1,2.76-1.53c1.49,0,2.29.84,2.29,2.49v5.93H63.11Z"/><path class="cls-5" d="M72.07,100.75a3.55,3.55,0,0,1-2.72,1.14,2.73,2.73,0,0,1-2.87-2.72,2.68,2.68,0,0,1,2.87-2.7,3.46,3.46,0,0,1,2.72,1.12V96.11c0-1.1-.89-1.73-2.08-1.73a3.26,3.26,0,0,0-2.51,1.14l-.6-.89a4.34,4.34,0,0,1,3.28-1.36c1.74,0,3.18.79,3.18,2.77v5.65H72.07Zm0-2.34a2.76,2.76,0,0,0-2.26-1,1.8,1.8,0,1,0,0,3.58,2.76,2.76,0,0,0,2.26-1Z"/><path class="cls-5" d="M76.15,100V94.6H74.79V93.48h1.36V91.23h1.27v2.25h1.67V94.6H77.42v5.1c0,.61.28,1,.84,1a1.21,1.21,0,0,0,.86-.34l.38,1a2.08,2.08,0,0,1-1.53.53A1.68,1.68,0,0,1,76.15,100Z"/><path class="cls-5" d="M84.46,93.27c2.48,0,3.94,1.94,3.94,4.41V98H81.76a2.89,2.89,0,0,0,3,2.84,3.61,3.61,0,0,0,2.53-1l.61.83a4.43,4.43,0,0,1-3.26,1.26,4.32,4.32,0,0,1-.14-8.62Zm-2.7,3.79h5.39a2.67,2.67,0,0,0-2.71-2.73A2.74,2.74,0,0,0,81.76,97.06Z"/><path class="cls-5" d="M30.29,107.35H31.7v6.9c0,2.08,1.12,3.38,3.21,3.38s3.22-1.3,3.22-3.38v-6.9h1.41v6.92c0,2.82-1.55,4.62-4.63,4.62s-4.62-1.82-4.62-4.6Z"/><path class="cls-5" d="M42.09,116.68a3.71,3.71,0,0,0,2.7,1.18c1.26,0,1.94-.57,1.94-1.36s-1-1.19-2.11-1.47c-1.39-.32-3-.69-3-2.39,0-1.28,1.1-2.37,3.06-2.37a4.16,4.16,0,0,1,3,1.19l-.6.89a3.17,3.17,0,0,0-2.44-1c-1.13,0-1.82.51-1.82,1.24s.93,1.06,2,1.31c1.43.32,3.08.73,3.08,2.55,0,1.38-1.11,2.48-3.23,2.48a4.37,4.37,0,0,1-3.31-1.29Z"/><path class="cls-5" d="M53.61,110.27c2.49,0,4,1.94,4,4.41V115H50.91a2.89,2.89,0,0,0,3,2.84,3.6,3.6,0,0,0,2.53-1l.61.83a4.43,4.43,0,0,1-3.26,1.26,4.32,4.32,0,0,1-.14-8.62Zm-2.7,3.79H56.3a2.66,2.66,0,0,0-2.7-2.73A2.74,2.74,0,0,0,50.91,114.06Z"/><path class="cls-5" d="M59.62,110.48h1.27v1.32a3.51,3.51,0,0,1,2.74-1.49v1.31a2,2,0,0,0-.51-.05,3,3,0,0,0-2.23,1.3v5.82H59.62Z"/><path class="cls-5" d="M65.17,116.68a3.75,3.75,0,0,0,2.71,1.18c1.26,0,1.93-.57,1.93-1.36s-1-1.19-2.1-1.47c-1.4-.32-3-.69-3-2.39,0-1.28,1.11-2.37,3.06-2.37a4.19,4.19,0,0,1,3,1.19l-.6.89a3.17,3.17,0,0,0-2.45-1c-1.12,0-1.82.51-1.82,1.24s.94,1.06,2,1.31c1.43.32,3.08.73,3.08,2.55,0,1.38-1.11,2.48-3.23,2.48a4.38,4.38,0,0,1-3.32-1.29Z"/><path class="cls-5" d="M459.78,261.2h3.88a5.67,5.67,0,1,1,0,11.34h-3.88Zm3.88,10.08a4.41,4.41,0,0,0,0-8.82h-2.47v8.82Z"/><path class="cls-5" d="M471.68,261.2h3.88a5.67,5.67,0,1,1,0,11.34h-3.88Zm3.88,10.08a4.41,4.41,0,0,0,0-8.82h-2.47v8.82Z"/><path class="cls-5" d="M483.06,268.42a4.07,4.07,0,1,1,4.06,4.32A4,4,0,0,1,483.06,268.42Zm6.78,0c0-1.66-1-3.16-2.72-3.16a2.87,2.87,0,0,0-2.74,3.16c0,1.69,1,3.18,2.74,3.18S489.84,270.11,489.84,268.42Z"/><path class="cls-5" d="M493.46,269.87a4.8,4.8,0,0,0,3.57,1.61c2,0,2.67-1.08,2.67-2,0-1.36-1.38-1.74-2.87-2.14-1.82-.48-3.85-1-3.85-3.22,0-1.87,1.67-3.14,3.9-3.14a5.32,5.32,0,0,1,4,1.58l-.84,1a4.33,4.33,0,0,0-3.29-1.36c-1.36,0-2.32.73-2.32,1.8s1.3,1.48,2.75,1.87c1.85.49,4,1.07,4,3.45,0,1.65-1.12,3.33-4.18,3.33a5.62,5.62,0,0,1-4.35-1.8Z"/><path class="cls-5" d="M515.69,267.34h-6.63v5.2h-1.41V261.2h1.41v4.88h6.63V261.2h1.42v11.34h-1.42Z"/><path class="cls-5" d="M520.15,274.73a1.18,1.18,0,0,0,1.22-.87l.55-1.24-3.44-8.29h1.38l2.74,6.73,2.72-6.73h1.39l-4.11,9.87a2.46,2.46,0,0,1-2.42,1.67,4,4,0,0,1-.93-.12l.2-1.16A1.86,1.86,0,0,0,520.15,274.73Z"/><path class="cls-5" d="M528,261.2h1.27v4.37a3.43,3.43,0,0,1,2.77-1.45c2.14,0,3.66,1.7,3.66,4.32s-1.52,4.3-3.66,4.3a3.44,3.44,0,0,1-2.77-1.43v1.23H528Zm3.72,10.4c1.67,0,2.65-1.34,2.65-3.16s-1-3.18-2.65-3.18a3,3,0,0,0-2.45,1.33v3.72A3,3,0,0,0,531.76,271.6Z"/><path class="cls-5" d="M537.81,264.33h1.28v1.32a3.49,3.49,0,0,1,2.73-1.49v1.31a1.88,1.88,0,0,0-.51-.06,3,3,0,0,0-2.22,1.31v5.82h-1.28Z"/><path class="cls-5" d="M543.2,262.15a.86.86,0,1,1,1.72,0,.86.86,0,0,1-1.72,0Zm.22,2.18h1.28v8.21h-1.28Z"/><path class="cls-5" d="M553.2,271.31a3.46,3.46,0,0,1-2.77,1.43c-2.15,0-3.66-1.63-3.66-4.3s1.5-4.32,3.66-4.32a3.46,3.46,0,0,1,2.77,1.45V261.2h1.27v11.34H553.2Zm0-4.72a3.08,3.08,0,0,0-2.47-1.33c-1.65,0-2.63,1.36-2.63,3.18s1,3.16,2.63,3.16a3.07,3.07,0,0,0,2.47-1.29Z"/><path class="cls-5" d="M473.34,278.2h3.88a5.67,5.67,0,1,1,0,11.34h-3.88Zm3.88,10.08a4.41,4.41,0,0,0,0-8.82h-2.47v8.82Z"/><path class="cls-5" d="M488.76,281.12c2.48,0,3.94,1.94,3.94,4.41v.32h-6.64a2.89,2.89,0,0,0,2.95,2.84,3.62,3.62,0,0,0,2.54-1l.61.83a4.46,4.46,0,0,1-3.27,1.26,4.32,4.32,0,0,1-.13-8.62Zm-2.7,3.79h5.38a2.65,2.65,0,0,0-2.7-2.73A2.73,2.73,0,0,0,486.06,284.91Z"/><path class="cls-5" d="M495.12,282.45h-1.36v-1.12h1.36v-.63c0-1.7.95-2.67,2.38-2.67a2.33,2.33,0,0,1,1.24.29l-.33.95a1.39,1.39,0,0,0-.73-.19c-.83,0-1.29.58-1.29,1.62v.63h1.67v1.12h-1.67v7.09h-1.27Z"/><path class="cls-5" d="M503.14,281.12c2.48,0,3.94,1.94,3.94,4.41v.32h-6.64a2.89,2.89,0,0,0,2.95,2.84,3.62,3.62,0,0,0,2.54-1l.61.83a4.45,4.45,0,0,1-3.26,1.26,4.31,4.31,0,0,1-.14-8.62Zm-2.7,3.79h5.39a2.67,2.67,0,0,0-2.71-2.73A2.74,2.74,0,0,0,500.44,284.91Z"/><path class="cls-5" d="M514.68,284.17c0-1.45-.73-1.91-1.83-1.91a3.13,3.13,0,0,0-2.43,1.28v6h-1.28v-8.21h1.28v1.19a4.06,4.06,0,0,1,2.92-1.4,2.33,2.33,0,0,1,2.62,2.65v5.77h-1.28Z"/><path class="cls-5" d="M524.46,288.31a3.44,3.44,0,0,1-2.77,1.43c-2.15,0-3.66-1.63-3.66-4.3s1.5-4.32,3.66-4.32a3.46,3.46,0,0,1,2.77,1.45V278.2h1.27v11.34h-1.27Zm0-4.72a3.08,3.08,0,0,0-2.47-1.33c-1.65,0-2.63,1.36-2.63,3.18s1,3.16,2.63,3.16a3.07,3.07,0,0,0,2.47-1.29Z"/><path class="cls-5" d="M531.85,281.12c2.48,0,3.95,1.94,3.95,4.41v.32h-6.65a2.89,2.89,0,0,0,3,2.84,3.61,3.61,0,0,0,2.53-1l.61.83a4.43,4.43,0,0,1-3.26,1.26,4.32,4.32,0,0,1-.14-8.62Zm-2.7,3.79h5.39a2.66,2.66,0,0,0-2.7-2.73A2.74,2.74,0,0,0,529.15,284.91Z"/><path class="cls-5" d="M537.85,281.33h1.28v1.32a3.49,3.49,0,0,1,2.73-1.49v1.31a1.88,1.88,0,0,0-.51-.06,3,3,0,0,0-2.22,1.31v5.82h-1.28Z"/><path class="cls-5" d="M425.68,12.52h3.88a5.51,5.51,0,0,1,5.81,5.67,5.49,5.49,0,0,1-5.81,5.66h-3.88Zm3.88,10.08a4.18,4.18,0,0,0,4.35-4.41,4.15,4.15,0,0,0-4.35-4.42h-2.47V22.6Z"/><path class="cls-5" d="M442.67,22.92A3.55,3.55,0,0,1,440,24.06a2.74,2.74,0,0,1-2.88-2.72A2.69,2.69,0,0,1,440,18.63a3.44,3.44,0,0,1,2.72,1.13V18.28c0-1.11-.89-1.74-2.08-1.74a3.26,3.26,0,0,0-2.51,1.14l-.6-.88a4.29,4.29,0,0,1,3.28-1.36c1.74,0,3.18.78,3.18,2.77v5.64h-1.27Zm0-2.35a2.76,2.76,0,0,0-2.27-1,1.81,1.81,0,1,0,0,3.59,2.76,2.76,0,0,0,2.27-1Z"/><path class="cls-5" d="M446.75,22.14V16.77h-1.36V15.64h1.36V13.4H448v2.24h1.67v1.13H448v5.09c0,.62.27,1.06.83,1.06a1.22,1.22,0,0,0,.87-.34l.38,1a2.1,2.1,0,0,1-1.54.53A1.68,1.68,0,0,1,446.75,22.14Z"/><path class="cls-5" d="M456.62,22.92a3.54,3.54,0,0,1-2.72,1.14A2.74,2.74,0,0,1,451,21.34a2.69,2.69,0,0,1,2.87-2.71,3.42,3.42,0,0,1,2.72,1.13V18.28c0-1.11-.88-1.74-2.07-1.74A3.27,3.27,0,0,0,452,17.68l-.59-.88a4.29,4.29,0,0,1,3.28-1.36c1.73,0,3.18.78,3.18,2.77v5.64h-1.28Zm0-2.35a2.75,2.75,0,0,0-2.26-1,1.81,1.81,0,1,0,0,3.59,2.75,2.75,0,0,0,2.26-1Z"/><path class="cls-5" d="M464.43,18.19a5.65,5.65,0,0,1,5.78-5.86,5.11,5.11,0,0,1,4.35,2.24l-1.19.67a3.83,3.83,0,0,0-3.16-1.65,4.34,4.34,0,0,0-4.32,4.6,4.35,4.35,0,0,0,4.32,4.61,3.81,3.81,0,0,0,3.16-1.65l1.2.66a5.13,5.13,0,0,1-4.36,2.25A5.66,5.66,0,0,1,464.43,18.19Z"/><path class="cls-5" d="M479.9,15.44c2.48,0,3.94,1.94,3.94,4.4v.32h-6.65a2.9,2.9,0,0,0,3,2.84,3.57,3.57,0,0,0,2.53-1l.62.83A4.51,4.51,0,0,1,480,24.06a4.07,4.07,0,0,1-4.18-4.32A4.11,4.11,0,0,1,479.9,15.44Zm-2.71,3.79h5.39a2.67,2.67,0,0,0-2.7-2.74A2.75,2.75,0,0,0,477.19,19.23Z"/><path class="cls-5" d="M491.44,18.48c0-1.44-.73-1.9-1.84-1.9a3.18,3.18,0,0,0-2.43,1.27v6H485.9V15.64h1.27v1.19a4.08,4.08,0,0,1,2.93-1.39,2.33,2.33,0,0,1,2.61,2.65v5.76h-1.27Z"/><path class="cls-5" d="M495.52,22.14V16.77h-1.36V15.64h1.36V13.4h1.27v2.24h1.67v1.13h-1.67v5.09c0,.62.28,1.06.84,1.06a1.21,1.21,0,0,0,.86-.34l.38,1a2.06,2.06,0,0,1-1.53.53A1.68,1.68,0,0,1,495.52,22.14Z"/><path class="cls-5" d="M503.83,15.44c2.48,0,3.95,1.94,3.95,4.4v.32h-6.65a2.89,2.89,0,0,0,3,2.84,3.6,3.6,0,0,0,2.53-1l.61.83A4.47,4.47,0,0,1,504,24.06a4.07,4.07,0,0,1-4.18-4.32A4.1,4.1,0,0,1,503.83,15.44Zm-2.7,3.79h5.39a2.67,2.67,0,0,0-2.71-2.74A2.74,2.74,0,0,0,501.13,19.23Z"/><path class="cls-5" d="M509.83,15.64h1.28V17a3.47,3.47,0,0,1,2.73-1.5v1.31a2.44,2.44,0,0,0-.51-.05A3,3,0,0,0,511.11,18v5.81h-1.28Z"/><path class="cls-5" d="M658.26,239.45v9.14h-1.41V237.25h1.44l6.53,9v-9h1.41v11.34h-1.36Z"/><path class="cls-5" d="M672.4,240.18c2.48,0,4,1.93,4,4.4v.32H669.7a2.89,2.89,0,0,0,3,2.84,3.57,3.57,0,0,0,2.53-1l.61.84a4.46,4.46,0,0,1-3.26,1.25,4.31,4.31,0,0,1-.14-8.61ZM669.7,244h5.39a2.66,2.66,0,0,0-2.71-2.74A2.74,2.74,0,0,0,669.7,244Z"/><path class="cls-5" d="M678.66,246.87V241.5H677.3v-1.12h1.36v-2.24h1.27v2.24h1.67v1.12h-1.67v5.1c0,.61.28,1.06.84,1.06a1.26,1.26,0,0,0,.86-.34l.38,1a2.1,2.1,0,0,1-1.53.52A1.68,1.68,0,0,1,678.66,246.87Z"/><path class="cls-5" d="M688.36,242l-2.14,6.6H685l-2.62-8.21h1.33l2,6.54,2.16-6.54h1.09l2.16,6.54,2-6.54h1.33l-2.62,8.21h-1.27Z"/><path class="cls-5" d="M695.4,244.48a4.07,4.07,0,1,1,4.07,4.31A4,4,0,0,1,695.4,244.48Zm6.79,0c0-1.67-1-3.16-2.72-3.16s-2.74,1.49-2.74,3.16,1,3.18,2.74,3.18S702.19,246.16,702.19,244.48Z"/><path class="cls-5" d="M705.6,240.38h1.28v1.33a3.47,3.47,0,0,1,2.73-1.5v1.31a2.44,2.44,0,0,0-.51-.05,3,3,0,0,0-2.22,1.31v5.81H705.6Z"/><path class="cls-5" d="M713.85,244.9l-1.36,1.34v2.35h-1.28V237.25h1.28v7.5l4.31-4.37h1.62l-3.64,3.72,3.66,4.49H716.8Z"/><path class="cls-5" d="M639.1,254.25h1.41v11.34H639.1Z"/><path class="cls-5" d="M648.65,260.22c0-1.45-.73-1.9-1.83-1.9a3.15,3.15,0,0,0-2.43,1.27v6h-1.28v-8.21h1.28v1.19a4.05,4.05,0,0,1,2.92-1.39,2.33,2.33,0,0,1,2.62,2.65v5.76h-1.28Z"/><path class="cls-5" d="M652.84,258.5h-1.36v-1.12h1.36v-.63c0-1.7.95-2.67,2.38-2.67a2.42,2.42,0,0,1,1.24.29l-.33.95a1.39,1.39,0,0,0-.73-.18c-.83,0-1.29.57-1.29,1.61v.63h1.67v1.12h-1.67v7.09h-1.27Z"/><path class="cls-5" d="M657.29,257.38h1.27v1.33a3.51,3.51,0,0,1,2.74-1.5v1.31a2.44,2.44,0,0,0-.51,0,3,3,0,0,0-2.23,1.31v5.81h-1.27Z"/><path class="cls-5" d="M668,264.66a3.57,3.57,0,0,1-2.72,1.13,2.73,2.73,0,0,1-2.87-2.72,2.69,2.69,0,0,1,2.87-2.7,3.43,3.43,0,0,1,2.72,1.12V260c0-1.11-.88-1.74-2.07-1.74a3.27,3.27,0,0,0-2.52,1.14l-.59-.88a4.29,4.29,0,0,1,3.28-1.36c1.73,0,3.18.78,3.18,2.77v5.64H668Zm0-2.35a2.75,2.75,0,0,0-2.26-1,1.81,1.81,0,1,0,0,3.59,2.75,2.75,0,0,0,2.26-1Z"/><path class="cls-5" d="M671.81,263.58a3.71,3.71,0,0,0,2.7,1.18c1.26,0,1.94-.56,1.94-1.36s-1-1.19-2.11-1.46c-1.4-.33-3-.7-3-2.4,0-1.28,1.11-2.36,3.07-2.36a4.14,4.14,0,0,1,3,1.19l-.6.88a3.2,3.2,0,0,0-2.44-1c-1.13,0-1.83.51-1.83,1.24s.94,1.06,2,1.31c1.43.33,3.08.73,3.08,2.55,0,1.38-1.11,2.48-3.23,2.48a4.37,4.37,0,0,1-3.32-1.29Z"/><path class="cls-5" d="M680,263.87V258.5h-1.36v-1.12H680v-2.24h1.27v2.24H683v1.12h-1.67v5.1c0,.61.28,1.06.84,1.06a1.26,1.26,0,0,0,.86-.34l.38.95a2.12,2.12,0,0,1-1.53.52A1.68,1.68,0,0,1,680,263.87Z"/><path class="cls-5" d="M684.76,257.38H686v1.33a3.47,3.47,0,0,1,2.73-1.5v1.31a2.44,2.44,0,0,0-.51,0,3,3,0,0,0-2.22,1.31v5.81h-1.28Z"/><path class="cls-5" d="M695.91,264.43a4,4,0,0,1-2.92,1.36,2.31,2.31,0,0,1-2.62-2.61v-5.8h1.28v5.41c0,1.44.73,1.87,1.83,1.87a3.12,3.12,0,0,0,2.43-1.25v-6h1.28v8.21h-1.28Z"/><path class="cls-5" d="M703.36,257.18a3.54,3.54,0,0,1,3,1.42l-.85.79a2.43,2.43,0,0,0-2.09-1.07,3.19,3.19,0,0,0,0,6.34,2.47,2.47,0,0,0,2.09-1.08l.85.79a3.54,3.54,0,0,1-3,1.42,4.31,4.31,0,0,1,0-8.61Z"/><path class="cls-5" d="M708.41,263.87V258.5h-1.36v-1.12h1.36v-2.24h1.27v2.24h1.67v1.12h-1.67v5.1c0,.61.27,1.06.84,1.06a1.26,1.26,0,0,0,.86-.34l.38.95a2.13,2.13,0,0,1-1.53.52A1.68,1.68,0,0,1,708.41,263.87Z"/><path class="cls-5" d="M718.69,264.43a4,4,0,0,1-2.92,1.36,2.31,2.31,0,0,1-2.62-2.61v-5.8h1.28v5.41c0,1.44.73,1.87,1.83,1.87a3.11,3.11,0,0,0,2.43-1.25v-6H720v8.21h-1.28Z"/><path class="cls-5" d="M722.52,257.38h1.27v1.33a3.51,3.51,0,0,1,2.74-1.5v1.31a2.51,2.51,0,0,0-.51,0,3,3,0,0,0-2.23,1.31v5.81h-1.27Z"/><path class="cls-5" d="M731.7,257.18c2.48,0,3.94,1.93,3.94,4.4v.32H729a2.9,2.9,0,0,0,3,2.84,3.54,3.54,0,0,0,2.53-1l.62.84a4.49,4.49,0,0,1-3.27,1.25,4.31,4.31,0,0,1-.13-8.61ZM729,261h5.39a2.65,2.65,0,0,0-2.7-2.74A2.75,2.75,0,0,0,729,261Z"/><path class="cls-2" d="M30.45,165.21H22.37a21.77,21.77,0,0,0-21.87,22v22"/><path class="cls-2" d="M100.32,225.21v-18c0-12.11-9.3-22-21.69-22H62.28a21.77,21.77,0,0,0-21.87,22v18"/><circle class="cls-2" cx="30.41" cy="147.21" r="18"/><circle class="cls-2" cx="70.41" cy="167.21" r="18"/><line id="_Path_4" data-name="&lt;Path&gt;" class="cls-2" x1="256.35" y1="195.23" x2="437.25" y2="195.23"/><polyline id="_Path_5" data-name="&lt;Path&gt;" class="cls-2" points="431.56 201.23 437.56 195.23 431.56 189.23"/><line id="_Path_6" data-name="&lt;Path&gt;" class="cls-2" x1="114.8" y1="195.23" x2="154.65" y2="195.23"/><polyline id="_Path_7" data-name="&lt;Path&gt;" class="cls-2" points="119.78 189.23 113.78 195.23 119.78 201.23"/><line id="_Path_8" data-name="&lt;Path&gt;" class="cls-2" x1="576.47" y1="195.23" x2="817.89" y2="195.23"/><polyline id="_Path_9" data-name="&lt;Path&gt;" class="cls-2" points="812.2 201.23 818.2 195.23 812.2 189.23"/><polyline id="_Path_10" data-name="&lt;Path&gt;" class="cls-2" points="812.2 305.89 818.2 299.89 812.2 293.89"/><polyline id="_Path_11" data-name="&lt;Path&gt;" class="cls-2" points="817.89 90.57 796.02 90.57 796.02 299.89 817.89 299.89"/><polyline id="_Path_12" data-name="&lt;Path&gt;" class="cls-2" points="812.2 96.57 818.2 90.57 812.2 84.57"/><polyline id="_Path_13" data-name="&lt;Path&gt;" class="cls-2" points="581.45 189.23 575.45 195.23 581.45 201.23"/><path class="cls-5" d="M159,61.2a7.07,7.07,0,0,0,5.41,2.52c3.56,0,4.58-2,4.58-3.46,0-2.44-2.32-3.12-4.76-3.77-2.73-.75-5.65-1.53-5.65-4.73,0-2.83,2.55-4.63,5.7-4.63a7.45,7.45,0,0,1,5.88,2.45l-1,1.09a6.21,6.21,0,0,0-5-2.18c-2.31,0-4.05,1.32-4.05,3.19,0,2.06,2.15,2.65,4.52,3.28,2.81.8,5.88,1.69,5.88,5.2,0,2.24-1.49,4.91-6.17,4.91a8,8,0,0,1-6.34-2.75Z"/><path class="cls-5" d="M172.75,49a1.06,1.06,0,0,1,1-1,1,1,0,0,1,0,2.08A1.06,1.06,0,0,1,172.75,49Zm.36,3.17h1.35V64.76h-1.35Z"/><path class="cls-5" d="M177.71,47.42h1.36V64.76h-1.36Z"/><path class="cls-5" d="M180.39,52.2h1.51l4.58,11,4.52-11h1.53l-5.3,12.56H185.7Z"/><path class="cls-5" d="M199.19,51.89c3.82,0,5.93,3,5.93,6.66v.36H194.61a4.89,4.89,0,0,0,4.92,5,5.51,5.51,0,0,0,4.11-1.74l.7.89a6.49,6.49,0,0,1-4.92,2c-3.66,0-6.29-2.73-6.29-6.6C193.13,54.83,195.71,51.89,199.19,51.89Zm-4.58,6h9.13a4.61,4.61,0,0,0-4.58-4.78C196.2,53.06,194.72,55.66,194.61,57.84Z"/><path class="cls-5" d="M207.64,52.2H209v2.16a5.42,5.42,0,0,1,4.24-2.42v1.48a3,3,0,0,0-.68-.05A4.8,4.8,0,0,0,209,55.61v9.15h-1.35Z"/><path class="cls-5" d="M214.92,47.42h1.35V64.76h-1.35Z"/><path class="cls-5" d="M219.16,49a1.06,1.06,0,0,1,1-1,1,1,0,1,1,0,2.08A1.06,1.06,0,0,1,219.16,49Zm.36,3.17h1.35V64.76h-1.35Z"/><path class="cls-5" d="M232.6,56.26c0-2.42-1.22-3.15-3-3.15a5.4,5.4,0,0,0-4.09,2.16v9.49h-1.35V52.2h1.35v1.9A6.39,6.39,0,0,1,230,51.89c2.55,0,3.95,1.25,3.95,4.08v8.79H232.6Z"/><path class="cls-5" d="M242.53,51.89c3.82,0,5.93,3,5.93,6.66v.36H238a4.91,4.91,0,0,0,4.92,5A5.51,5.51,0,0,0,247,62.16l.7.89a6.47,6.47,0,0,1-4.91,2c-3.67,0-6.3-2.73-6.3-6.6C236.47,54.83,239.05,51.89,242.53,51.89Zm-4.58,6h9.13a4.6,4.6,0,0,0-4.57-4.78C239.54,53.06,238.06,55.66,238,57.84Z"/><circle class="cls-3" cx="725.59" cy="196.24" r="33.07"/><polyline id="_Path_14" data-name="&lt;Path&gt;" class="cls-2" points="744.33 188.11 750.54 195.36 744.33 202.6"/><circle class="cls-2" cx="728.81" cy="195.35" r="9.31"/><circle class="cls-2" cx="706.05" cy="195.35" r="5.17"/><line class="cls-2" x1="711.22" y1="195.35" x2="719.5" y2="195.35"/><line class="cls-2" x1="738.13" y1="195.35" x2="748.47" y2="195.35"/><polyline id="_Path_15" data-name="&lt;Path&gt;" class="cls-2" points="725.83 175.25 734.69 171.69 739.55 179.88"/><line class="cls-2" x1="729.82" y1="186.05" x2="734.02" y2="173.65"/><polyline id="_Path_16" data-name="&lt;Path&gt;" class="cls-2" points="725.86 215.51 734.72 219.07 739.58 210.87"/><line class="cls-2" x1="729.85" y1="204.71" x2="734.04" y2="217.11"/><circle class="cls-2" cx="706.05" cy="195.35" r="5.17"/><circle class="cls-3" cx="648.61" cy="196.24" r="33.07"/><g id="_Group_" data-name="&lt;Group&gt;"><line id="_Path_17" data-name="&lt;Path&gt;" class="cls-2" x1="627.11" y1="178.34" x2="670.11" y2="178.33"/><line id="_Path_18" data-name="&lt;Path&gt;" class="cls-2" x1="627.14" y1="187.29" x2="670.11" y2="187.29"/><line id="_Path_19" data-name="&lt;Path&gt;" class="cls-2" x1="627.14" y1="196.25" x2="670.11" y2="196.25"/><line id="_Path_20" data-name="&lt;Path&gt;" class="cls-2" x1="627.14" y1="205.2" x2="670.11" y2="205.2"/><line id="_Path_21" data-name="&lt;Path&gt;" class="cls-2" x1="639.67" y1="178.34" x2="639.67" y2="187.04"/><line id="_Path_22" data-name="&lt;Path&gt;" class="cls-2" x1="657.57" y1="178.34" x2="657.57" y2="187.04"/><line id="_Path_23" data-name="&lt;Path&gt;" class="cls-2" x1="639.67" y1="196.25" x2="639.67" y2="205.2"/><line id="_Path_24" data-name="&lt;Path&gt;" class="cls-2" x1="657.57" y1="196.25" x2="657.57" y2="205.2"/><line id="_Path_25" data-name="&lt;Path&gt;" class="cls-2" x1="666.52" y1="187.29" x2="666.52" y2="196.25"/><line id="_Path_26" data-name="&lt;Path&gt;" class="cls-2" x1="630.72" y1="187.29" x2="630.72" y2="196.25"/><line id="_Path_27" data-name="&lt;Path&gt;" class="cls-2" x1="648.62" y1="187.29" x2="648.62" y2="196.25"/><line id="_Path_28" data-name="&lt;Path&gt;" class="cls-2" x1="627.14" y1="214.15" x2="670.11" y2="214.15"/><line id="_Path_29" data-name="&lt;Path&gt;" class="cls-2" x1="666.52" y1="205.45" x2="666.52" y2="214.15"/><line id="_Path_30" data-name="&lt;Path&gt;" class="cls-2" x1="630.72" y1="205.45" x2="630.72" y2="214.15"/><line id="_Path_31" data-name="&lt;Path&gt;" class="cls-2" x1="648.62" y1="205.45" x2="648.62" y2="214.15"/></g><path class="cls-2" d="M226.83,225.23h-64a16.12,16.12,0,0,1-.07-32.23h0a24,24,0,0,1,33.83-21.83,28,28,0,0,1,53.28,17.14,20.11,20.11,0,0,1-11,36.92h-4"/><path class="cls-6" d="M282.54,71.18h-3v-1h7.09v1h-3v8.31h-1.17Z"/><path class="cls-6" d="M292.75,75c0-1.19-.62-1.54-1.53-1.54a2.68,2.68,0,0,0-2,1.05v4.95h-1.05V70.15h1.05V73.7a3.36,3.36,0,0,1,2.42-1.14,1.9,1.9,0,0,1,2.16,2.15v4.78h-1.05Z"/><path class="cls-6" d="M295.9,72.72H297v1.1a2.87,2.87,0,0,1,2.25-1.24v1.08a1.71,1.71,0,0,0-.42,0A2.47,2.47,0,0,0,297,74.7v4.79H295.9Z"/><path class="cls-6" d="M303.46,72.56c2.05,0,3.25,1.59,3.25,3.62v.27h-5.48a2.39,2.39,0,0,0,2.44,2.34,3,3,0,0,0,2.09-.86l.5.69a3.68,3.68,0,0,1-2.69,1,3.55,3.55,0,0,1-.11-7.1Zm-2.23,3.12h4.44a2.19,2.19,0,0,0-2.22-2.26A2.26,2.26,0,0,0,301.23,75.68Z"/><path class="cls-6" d="M308.36,77.84a3.09,3.09,0,0,0,2.23,1c1,0,1.59-.46,1.59-1.12s-.83-1-1.74-1.2c-1.14-.27-2.45-.58-2.45-2,0-1,.91-1.94,2.53-1.94a3.39,3.39,0,0,1,2.5,1l-.49.72a2.62,2.62,0,0,0-2-.85c-.93,0-1.5.42-1.5,1s.77.87,1.65,1.08c1.18.27,2.53.6,2.53,2.1,0,1.14-.91,2-2.66,2a3.61,3.61,0,0,1-2.73-1.07Z"/><path class="cls-6" d="M319.49,75c0-1.19-.62-1.54-1.53-1.54a2.68,2.68,0,0,0-2,1.05v4.95h-1V70.15h1V73.7a3.36,3.36,0,0,1,2.42-1.14,1.9,1.9,0,0,1,2.16,2.15v4.78h-1.05Z"/><path class="cls-6" d="M322.25,76.1a3.35,3.35,0,1,1,3.34,3.56A3.31,3.31,0,0,1,322.25,76.1Zm5.58,0a2.27,2.27,0,1,0-2.24,2.62A2.35,2.35,0,0,0,327.83,76.1Z"/><path class="cls-6" d="M330.65,70.15h1.05v9.34h-1.05Z"/><path class="cls-6" d="M338.7,78.48a2.85,2.85,0,0,1-2.29,1.18c-1.76,0-3-1.35-3-3.55s1.23-3.55,3-3.55a2.83,2.83,0,0,1,2.29,1.19v-3.6h1.05v9.34H338.7Zm0-3.89a2.54,2.54,0,0,0-2-1.1c-1.36,0-2.17,1.12-2.17,2.62s.81,2.61,2.17,2.61a2.52,2.52,0,0,0,2-1.07Z"/><path class="cls-6" d="M341.21,75.64h3.37v.92h-3.37Z"/><path class="cls-6" d="M346,70.15h1.06v3.6a2.77,2.77,0,0,1,2.28-1.19c1.76,0,3,1.4,3,3.55s-1.25,3.55-3,3.55a2.83,2.83,0,0,1-2.28-1.18v1H346Zm3.07,8.57c1.38,0,2.19-1.11,2.19-2.61s-.81-2.62-2.19-2.62a2.51,2.51,0,0,0-2,1.1v3.06A2.48,2.48,0,0,0,349.11,78.72Z"/><path class="cls-6" d="M358.33,78.72a3,3,0,0,1-2.25.94,2.25,2.25,0,0,1-2.36-2.24,2.21,2.21,0,0,1,2.36-2.23,2.84,2.84,0,0,1,2.25.92V74.89c0-.91-.73-1.42-1.71-1.42a2.71,2.71,0,0,0-2.08.93l-.49-.72a3.54,3.54,0,0,1,2.71-1.12c1.43,0,2.61.64,2.61,2.28v4.65h-1Zm0-1.93a2.29,2.29,0,0,0-1.87-.84,1.49,1.49,0,1,0,0,3,2.29,2.29,0,0,0,1.87-.84Z"/><path class="cls-6" d="M361.43,77.84a3.09,3.09,0,0,0,2.23,1c1,0,1.6-.46,1.6-1.12s-.83-1-1.74-1.2c-1.15-.27-2.45-.58-2.45-2,0-1,.91-1.94,2.52-1.94a3.42,3.42,0,0,1,2.51,1l-.5.72a2.61,2.61,0,0,0-2-.85c-.93,0-1.5.42-1.5,1s.77.87,1.65,1.08c1.18.27,2.54.6,2.54,2.1,0,1.14-.91,2-2.67,2a3.61,3.61,0,0,1-2.73-1.07Z"/><path class="cls-6" d="M370.92,72.56c2.05,0,3.25,1.59,3.25,3.62v.27H368.7a2.38,2.38,0,0,0,2.43,2.34,3,3,0,0,0,2.09-.86l.51.69a3.71,3.71,0,0,1-2.69,1,3.55,3.55,0,0,1-.12-7.1Zm-2.22,3.12h4.44a2.2,2.2,0,0,0-2.23-2.26A2.25,2.25,0,0,0,368.7,75.68Z"/><path class="cls-6" d="M380.77,78.48a2.85,2.85,0,0,1-2.29,1.18c-1.76,0-3-1.35-3-3.55s1.23-3.55,3-3.55a2.83,2.83,0,0,1,2.29,1.19v-3.6h1.05v9.34h-1.05Zm0-3.89a2.54,2.54,0,0,0-2-1.1c-1.36,0-2.18,1.12-2.18,2.62s.82,2.61,2.18,2.61a2.52,2.52,0,0,0,2-1.07Z"/><path class="cls-6" d="M274.08,92.72a3,3,0,0,1-2.24.94,2.25,2.25,0,0,1-2.37-2.24,2.22,2.22,0,0,1,2.37-2.23,2.81,2.81,0,0,1,2.24.92V88.89c0-.91-.73-1.42-1.71-1.42a2.69,2.69,0,0,0-2.07.93l-.49-.72a3.53,3.53,0,0,1,2.7-1.12c1.43,0,2.62.64,2.62,2.28v4.65h-1.05Zm0-1.93a2.26,2.26,0,0,0-1.86-.84,1.49,1.49,0,1,0,0,3,2.26,2.26,0,0,0,1.86-.84Z"/><path class="cls-6" d="M281.8,92.54a3.34,3.34,0,0,1-2.41,1.12,1.91,1.91,0,0,1-2.16-2.16V86.72h1v4.46c0,1.19.6,1.54,1.51,1.54a2.63,2.63,0,0,0,2-1v-5h1.05v6.77H281.8Z"/><path class="cls-6" d="M285.15,92.07V87.65H284v-.93h1.12V84.87h1.05v1.85h1.38v.93H286.2v4.2c0,.5.23.87.69.87a1,1,0,0,0,.71-.28l.31.78a1.67,1.67,0,0,1-1.26.44A1.39,1.39,0,0,1,285.15,92.07Z"/><path class="cls-6" d="M288.67,90.1A3.35,3.35,0,1,1,292,93.66,3.32,3.32,0,0,1,288.67,90.1Zm5.59,0A2.28,2.28,0,1,0,292,92.72,2.36,2.36,0,0,0,294.26,90.1Z"/><path class="cls-6" d="M305.23,88.89c0-.85-.37-1.4-1.24-1.4a2.39,2.39,0,0,0-1.8,1v5h-1.05v-4.6c0-.85-.36-1.4-1.24-1.4a2.37,2.37,0,0,0-1.78,1.05v4.95h-1.05V86.72h1.05v1a2.93,2.93,0,0,1,2.18-1.14,1.73,1.73,0,0,1,1.82,1.26,2.84,2.84,0,0,1,2.27-1.26c1.24,0,1.89.68,1.89,2v4.89h-1Z"/><path class="cls-6" d="M312.61,92.72a3,3,0,0,1-2.24.94A2.25,2.25,0,0,1,308,91.42a2.22,2.22,0,0,1,2.37-2.23,2.84,2.84,0,0,1,2.24.92V88.89c0-.91-.73-1.42-1.71-1.42a2.69,2.69,0,0,0-2.07.93l-.49-.72a3.53,3.53,0,0,1,2.7-1.12c1.43,0,2.62.64,2.62,2.28v4.65h-1.05Zm0-1.93a2.27,2.27,0,0,0-1.86-.84,1.49,1.49,0,1,0,0,3,2.27,2.27,0,0,0,1.86-.84Z"/><path class="cls-6" d="M316,92.07V87.65h-1.12v-.93H316V84.87h1v1.85h1.37v.93H317v4.2c0,.5.22.87.68.87a1,1,0,0,0,.72-.28l.31.78a1.7,1.7,0,0,1-1.26.44A1.39,1.39,0,0,1,316,92.07Z"/><path class="cls-6" d="M322.82,86.56c2,0,3.25,1.59,3.25,3.62v.27h-5.48A2.38,2.38,0,0,0,323,92.79a2.93,2.93,0,0,0,2.09-.86l.51.69a3.71,3.71,0,0,1-2.69,1,3.55,3.55,0,0,1-.11-7.1Zm-2.23,3.12H325a2.2,2.2,0,0,0-2.23-2.26A2.25,2.25,0,0,0,320.59,89.68Z"/><path class="cls-6" d="M332.66,92.48a2.85,2.85,0,0,1-2.29,1.18c-1.76,0-3-1.35-3-3.55s1.24-3.55,3-3.55a2.83,2.83,0,0,1,2.29,1.19v-3.6h1v9.34h-1Zm0-3.89a2.54,2.54,0,0,0-2-1.1c-1.36,0-2.17,1.12-2.17,2.62s.81,2.61,2.17,2.61a2.52,2.52,0,0,0,2-1.07Z"/><path class="cls-6" d="M339.38,91.84a3.07,3.07,0,0,0,2.22,1c1,0,1.6-.46,1.6-1.12s-.83-1-1.74-1.2c-1.15-.27-2.45-.58-2.45-2,0-1,.91-1.94,2.52-1.94a3.42,3.42,0,0,1,2.51,1l-.49.72a2.64,2.64,0,0,0-2-.85c-.92,0-1.5.42-1.5,1s.77.87,1.66,1.08c1.17.27,2.53.6,2.53,2.1,0,1.14-.91,2-2.66,2a3.59,3.59,0,0,1-2.73-1.07Z"/><path class="cls-6" d="M345.75,84.93a.71.71,0,1,1,.69.7A.7.7,0,0,1,345.75,84.93Zm.18,1.79H347v6.77h-1.05Z"/><path class="cls-6" d="M349.6,94.44a2.58,2.58,0,0,0,2.19.93,1.94,1.94,0,0,0,2.18-2v-1a2.84,2.84,0,0,1-2.27,1.2c-1.77,0-3-1.31-3-3.5s1.23-3.51,3-3.51A2.79,2.79,0,0,1,354,87.75v-1h1v6.57c0,2.24-1.57,2.94-3.23,2.94a3.48,3.48,0,0,1-2.73-1ZM354,88.59a2.51,2.51,0,0,0-2-1.1c-1.36,0-2.17,1.08-2.17,2.58s.81,2.58,2.17,2.58a2.52,2.52,0,0,0,2-1.11Z"/><path class="cls-6" d="M361.68,89.06c0-1.19-.6-1.57-1.51-1.57a2.65,2.65,0,0,0-2,1.05v4.95h-1.05V86.72h1.05v1a3.36,3.36,0,0,1,2.41-1.14,1.92,1.92,0,0,1,2.16,2.18v4.75h-1.05Z"/><path class="cls-6" d="M369.06,92.72a3,3,0,0,1-2.24.94,2.25,2.25,0,0,1-2.37-2.24,2.22,2.22,0,0,1,2.37-2.23,2.84,2.84,0,0,1,2.24.92V88.89c0-.91-.73-1.42-1.71-1.42a2.72,2.72,0,0,0-2.08.93l-.49-.72a3.54,3.54,0,0,1,2.71-1.12c1.43,0,2.62.64,2.62,2.28v4.65h-1.05Zm0-1.93a2.27,2.27,0,0,0-1.87-.84,1.49,1.49,0,1,0,0,3,2.27,2.27,0,0,0,1.87-.84Z"/><path class="cls-6" d="M372.2,84.15h1.06v9.34H372.2Z"/><path class="cls-6" d="M375.17,84.93a.71.71,0,1,1,.7.7A.7.7,0,0,1,375.17,84.93Zm.18,1.79h1.06v6.77h-1.06Z"/><path class="cls-6" d="M383.07,89.06c0-1.19-.6-1.57-1.51-1.57a2.65,2.65,0,0,0-2,1.05v4.95H378.5V86.72h1.05v1A3.36,3.36,0,0,1,382,86.56a1.92,1.92,0,0,1,2.16,2.18v4.75h-1.05Z"/><path class="cls-6" d="M386.74,94.44a2.59,2.59,0,0,0,2.2.93,1.94,1.94,0,0,0,2.17-2v-1a2.84,2.84,0,0,1-2.27,1.2c-1.77,0-3-1.31-3-3.5s1.23-3.51,3-3.51a2.79,2.79,0,0,1,2.27,1.19v-1h1.05v6.57c0,2.24-1.57,2.94-3.22,2.94a3.48,3.48,0,0,1-2.74-1Zm4.37-5.85a2.51,2.51,0,0,0-2-1.1c-1.36,0-2.17,1.08-2.17,2.58s.81,2.58,2.17,2.58a2.52,2.52,0,0,0,2-1.11Z"/><path class="cls-6" d="M270,101.65h-1.12v-.93H270v-.52A1.93,1.93,0,0,1,272,98a2,2,0,0,1,1,.23l-.27.79a1.14,1.14,0,0,0-.6-.16c-.69,0-1.07.48-1.07,1.33v.52h1.38v.93h-1.38v5.84H270Z"/><path class="cls-6" d="M273.29,104.1a3.35,3.35,0,1,1,3.35,3.56A3.32,3.32,0,0,1,273.29,104.1Zm5.59,0a2.28,2.28,0,1,0-2.24,2.62A2.36,2.36,0,0,0,278.88,104.1Z"/><path class="cls-6" d="M281.69,100.72h1.05v1.1a2.87,2.87,0,0,1,2.26-1.24v1.08a1.82,1.82,0,0,0-.42,0,2.47,2.47,0,0,0-1.84,1.08v4.79h-1.05Z"/><path class="cls-6" d="M288.91,100.72h1.14l2.25,5.55,2.24-5.55h1.15l-2.81,6.77h-1.15Z"/><path class="cls-6" d="M296.39,104.1a3.35,3.35,0,1,1,3.35,3.56A3.32,3.32,0,0,1,296.39,104.1Zm5.59,0a2.28,2.28,0,1,0-2.24,2.62A2.36,2.36,0,0,0,302,104.1Z"/><path class="cls-6" d="M304.79,98.15h1v9.34h-1Z"/><path class="cls-6" d="M312.51,106.54a3.36,3.36,0,0,1-2.41,1.12,1.91,1.91,0,0,1-2.16-2.16v-4.78H309v4.46c0,1.19.6,1.54,1.51,1.54a2.63,2.63,0,0,0,2-1v-5h1.05v6.77h-1.05Z"/><path class="cls-6" d="M323.82,102.89c0-.85-.38-1.4-1.25-1.4a2.37,2.37,0,0,0-1.79,1v5h-1v-4.6c0-.85-.37-1.4-1.25-1.4a2.39,2.39,0,0,0-1.78,1.05v4.95h-1.05v-6.77h1.05v1a2.93,2.93,0,0,1,2.19-1.14,1.74,1.74,0,0,1,1.82,1.26,2.84,2.84,0,0,1,2.27-1.26c1.23,0,1.89.68,1.89,2v4.89h-1.05Z"/><path class="cls-6" d="M329.91,100.56c2,0,3.25,1.59,3.25,3.62v.27h-5.48a2.38,2.38,0,0,0,2.43,2.34,2.93,2.93,0,0,0,2.09-.86l.51.69a3.71,3.71,0,0,1-2.69,1,3.55,3.55,0,0,1-.11-7.1Zm-2.23,3.12h4.44a2.2,2.2,0,0,0-2.23-2.26A2.25,2.25,0,0,0,327.68,103.68Z"/><path class="cls-6" d="M335.06,106.07v-4.42h-1.12v-.93h1.12V98.87h1.05v1.85h1.37v.93h-1.37v4.2c0,.5.22.87.68.87a1,1,0,0,0,.72-.28l.31.78a1.71,1.71,0,0,1-1.27.44C335.56,107.66,335.06,107.08,335.06,106.07Z"/><path class="cls-6" d="M339,100.72H340v1.1a2.87,2.87,0,0,1,2.26-1.24v1.08a1.76,1.76,0,0,0-.42,0A2.47,2.47,0,0,0,340,102.7v4.79H339Z"/><path class="cls-6" d="M343.4,98.93a.71.71,0,1,1,.7.7A.7.7,0,0,1,343.4,98.93Zm.18,1.79h1.05v6.77h-1.05Z"/><path class="cls-6" d="M349.71,100.56a2.88,2.88,0,0,1,2.48,1.17l-.7.65a2,2,0,0,0-1.72-.89,2.63,2.63,0,0,0,0,5.23,2,2,0,0,0,1.72-.88l.7.64a2.88,2.88,0,0,1-2.48,1.18,3.55,3.55,0,0,1,0-7.1Z"/><path class="cls-6" d="M361.5,106.72a3,3,0,0,1-2.24.94,2.25,2.25,0,0,1-2.37-2.24,2.22,2.22,0,0,1,2.37-2.23,2.81,2.81,0,0,1,2.24.92v-1.22c0-.91-.73-1.42-1.71-1.42a2.69,2.69,0,0,0-2.07.93l-.49-.72a3.54,3.54,0,0,1,2.71-1.12c1.42,0,2.61.64,2.61,2.28v4.65H361.5Zm0-1.93a2.26,2.26,0,0,0-1.86-.84,1.49,1.49,0,1,0,0,3,2.26,2.26,0,0,0,1.86-.84Z"/><path class="cls-6" d="M364.86,106.07v-4.42h-1.12v-.93h1.12V98.87h1.05v1.85h1.37v.93h-1.37v4.2c0,.5.23.87.69.87a1,1,0,0,0,.71-.28l.31.78a1.68,1.68,0,0,1-1.26.44A1.39,1.39,0,0,1,364.86,106.07Z"/><path class="cls-6" d="M369,106.07v-4.42h-1.12v-.93H369V98.87h1v1.85h1.37v.93H370v4.2c0,.5.22.87.68.87a1,1,0,0,0,.72-.28l.31.78a1.7,1.7,0,0,1-1.26.44A1.39,1.39,0,0,1,369,106.07Z"/><path class="cls-6" d="M377.11,106.72a3,3,0,0,1-2.24.94,2.25,2.25,0,0,1-2.36-2.24,2.21,2.21,0,0,1,2.36-2.23,2.81,2.81,0,0,1,2.24.92v-1.22c0-.91-.72-1.42-1.7-1.42a2.71,2.71,0,0,0-2.08.93l-.49-.72a3.53,3.53,0,0,1,2.7-1.12c1.43,0,2.62.64,2.62,2.28v4.65h-1.05Zm0-1.93a2.26,2.26,0,0,0-1.86-.84,1.49,1.49,0,1,0,0,3,2.26,2.26,0,0,0,1.86-.84Z"/><path class="cls-6" d="M383.25,100.56a2.87,2.87,0,0,1,2.47,1.17l-.7.65a2,2,0,0,0-1.72-.89,2.63,2.63,0,0,0,0,5.23,2,2,0,0,0,1.72-.88l.7.64a2.88,2.88,0,0,1-2.47,1.18,3.55,3.55,0,0,1,0-7.1Z"/><path class="cls-6" d="M389.36,104.45l-1.12,1.11v1.93h-1.05V98.15h1.05v6.17l3.56-3.6h1.33l-3,3.07,3,3.7H391.8Z"/><path class="cls-6" d="M310.16,116.89c0-.85-.38-1.4-1.25-1.4a2.37,2.37,0,0,0-1.79,1v5h-1.05v-4.6c0-.85-.37-1.4-1.25-1.4a2.37,2.37,0,0,0-1.78,1.05v4.95H302v-6.77H303v1a2.93,2.93,0,0,1,2.18-1.14,1.75,1.75,0,0,1,1.83,1.26,2.81,2.81,0,0,1,2.27-1.26c1.23,0,1.89.68,1.89,2v4.89h-1Z"/><path class="cls-6" d="M313.12,112.93a.71.71,0,1,1,.7.7A.7.7,0,0,1,313.12,112.93Zm.18,1.79h1.05v6.77H313.3Z"/><path class="cls-6" d="M316.66,120.07v-4.42h-1.12v-.93h1.12v-1.85h1v1.85h1.37v.93h-1.37v4.2c0,.5.23.87.69.87a1,1,0,0,0,.71-.28l.31.78a1.7,1.7,0,0,1-1.26.44A1.39,1.39,0,0,1,316.66,120.07Z"/><path class="cls-6" d="M320.38,112.93a.71.71,0,1,1,1.42,0,.71.71,0,0,1-1.42,0Zm.19,1.79h1.05v6.77h-1.05Z"/><path class="cls-6" d="M324.23,122.44a2.6,2.6,0,0,0,2.2.93,1.94,1.94,0,0,0,2.17-2v-1a2.83,2.83,0,0,1-2.26,1.2c-1.77,0-3-1.31-3-3.5s1.24-3.51,3-3.51a2.76,2.76,0,0,1,2.26,1.19v-1h1.06v6.57c0,2.24-1.57,2.94-3.23,2.94a3.46,3.46,0,0,1-2.73-1Zm4.37-5.85a2.48,2.48,0,0,0-2-1.1c-1.36,0-2.17,1.08-2.17,2.58s.81,2.58,2.17,2.58a2.48,2.48,0,0,0,2-1.11Z"/><path class="cls-6" d="M336,120.72a3,3,0,0,1-2.24.94,2.25,2.25,0,0,1-2.37-2.24,2.22,2.22,0,0,1,2.37-2.23,2.81,2.81,0,0,1,2.24.92v-1.22c0-.91-.73-1.42-1.71-1.42a2.69,2.69,0,0,0-2.07.93l-.49-.72a3.53,3.53,0,0,1,2.7-1.12c1.43,0,2.62.64,2.62,2.28v4.65h-1Zm0-1.93a2.26,2.26,0,0,0-1.86-.84,1.49,1.49,0,1,0,0,3,2.26,2.26,0,0,0,1.86-.84Z"/><path class="cls-6" d="M339.34,120.07v-4.42h-1.12v-.93h1.12v-1.85h1.05v1.85h1.37v.93h-1.37v4.2c0,.5.22.87.69.87a1,1,0,0,0,.71-.28l.31.78a1.7,1.7,0,0,1-1.26.44A1.39,1.39,0,0,1,339.34,120.07Z"/><path class="cls-6" d="M343.06,112.93a.71.71,0,1,1,1.42,0,.71.71,0,0,1-1.42,0Zm.19,1.79h1.05v6.77h-1.05Z"/><path class="cls-6" d="M346,118.1a3.36,3.36,0,1,1,3.35,3.56A3.32,3.32,0,0,1,346,118.1Zm5.59,0a2.27,2.27,0,1,0-2.24,2.62A2.36,2.36,0,0,0,351.59,118.1Z"/><path class="cls-6" d="M359,117.06c0-1.19-.6-1.57-1.51-1.57a2.65,2.65,0,0,0-2,1.05v4.95H354.4v-6.77h1.05v1a3.36,3.36,0,0,1,2.41-1.14,1.92,1.92,0,0,1,2.16,2.18v4.75h-1Z"/><line class="cls-7" x1="259.54" y1="56.15" x2="262.54" y2="56.15"/><line class="cls-8" x1="265.6" y1="56.15" x2="502.22" y2="56.15"/><polyline class="cls-7" points="503.75 56.15 506.75 56.15 506.75 59.15"/><line class="cls-9" x1="506.75" y1="62.31" x2="506.75" y2="136.47"/><line class="cls-7" x1="506.75" y1="138.05" x2="506.75" y2="141.05"/><line id="_Path_32" data-name="&lt;Path&gt;" class="cls-10" x1="193.38" y1="169.78" x2="193.38" y2="115.4"/><polyline id="_Path_33" data-name="&lt;Path&gt;" class="cls-7" points="199.38 121.09 193.38 115.09 187.38 121.09"/><path class="cls-11" d="M37,317.42h3.88a5.67,5.67,0,1,1,0,11.33H37Zm3.88,10.08a4.42,4.42,0,0,0,0-8.83H38.4v8.83Z"/><path class="cls-11" d="M48.89,317.42h3.88a5.67,5.67,0,1,1,0,11.33H48.89Zm3.88,10.08a4.42,4.42,0,0,0,0-8.83H50.3v8.83Z"/><path class="cls-11" d="M60.27,324.64A4.07,4.07,0,1,1,64.33,329,4,4,0,0,1,60.27,324.64Zm6.78,0c0-1.66-1-3.16-2.72-3.16a2.87,2.87,0,0,0-2.74,3.16c0,1.68,1,3.18,2.74,3.18S67.05,326.32,67.05,324.64Z"/><path class="cls-11" d="M70.67,326.09a4.8,4.8,0,0,0,3.57,1.61c2,0,2.67-1.09,2.67-1.95,0-1.36-1.38-1.74-2.87-2.15-1.82-.47-3.85-1-3.85-3.21,0-1.87,1.67-3.14,3.9-3.14a5.29,5.29,0,0,1,4,1.58l-.84,1A4.36,4.36,0,0,0,74,318.5c-1.36,0-2.32.74-2.32,1.81s1.3,1.47,2.75,1.87c1.85.49,4,1.07,4,3.45,0,1.65-1.12,3.33-4.18,3.33a5.62,5.62,0,0,1-4.35-1.8Z"/><path class="cls-11" d="M31,343.24H25.23l-1,2.51H22.66l4.56-11.33H29l4.57,11.33H32ZM25.64,342h4.91l-2.45-6.31Z"/><path class="cls-11" d="M35,344v-5.37H33.68v-1.13H35V335.3h1.27v2.24H38v1.13H36.31v5.1c0,.61.28,1.05.84,1.05a1.21,1.21,0,0,0,.86-.34l.38.95a2.09,2.09,0,0,1-1.53.53A1.68,1.68,0,0,1,35,344Z"/><path class="cls-11" d="M40,344v-5.37H38.68v-1.13H40V335.3h1.27v2.24H43v1.13H41.31v5.1c0,.61.27,1.05.83,1.05a1.22,1.22,0,0,0,.87-.34l.38.95a2.1,2.1,0,0,1-1.54.53A1.68,1.68,0,0,1,40,344Z"/><path class="cls-11" d="M49.91,344.82A3.54,3.54,0,0,1,47.19,346a2.74,2.74,0,0,1-2.87-2.72,2.68,2.68,0,0,1,2.87-2.7,3.41,3.41,0,0,1,2.72,1.12v-1.48c0-1.11-.88-1.73-2.07-1.73a3.26,3.26,0,0,0-2.52,1.13l-.59-.88A4.29,4.29,0,0,1,48,337.34c1.73,0,3.18.78,3.18,2.77v5.64H49.91Zm0-2.35a2.75,2.75,0,0,0-2.26-1,1.81,1.81,0,1,0,0,3.59,2.75,2.75,0,0,0,2.26-1Z"/><path class="cls-11" d="M57.36,337.34a3.52,3.52,0,0,1,3,1.43l-.85.78a2.43,2.43,0,0,0-2.09-1.07,3.19,3.19,0,0,0,0,6.34,2.48,2.48,0,0,0,2.09-1.07l.85.78a3.52,3.52,0,0,1-3,1.43,4.32,4.32,0,0,1,0-8.62Z"/><path class="cls-11" d="M64.79,342.07l-1.36,1.34v2.34H62.15V334.42h1.28v7.49l4.32-4.37h1.61l-3.64,3.73,3.66,4.48H67.75Z"/><path class="cls-11" d="M74.07,337.34c2.48,0,3.94,1.94,3.94,4.4v.33H71.37a2.9,2.9,0,0,0,2.95,2.84,3.62,3.62,0,0,0,2.54-1l.61.83A4.45,4.45,0,0,1,74.21,346a4.31,4.31,0,0,1-.14-8.62Zm-2.7,3.79h5.39a2.67,2.67,0,0,0-2.71-2.74A2.74,2.74,0,0,0,71.37,341.13Z"/><path class="cls-11" d="M80.07,337.54h1.28v1.33a3.47,3.47,0,0,1,2.73-1.5v1.31a2.44,2.44,0,0,0-.51-.05,3,3,0,0,0-2.22,1.31v5.81H80.07Z"/><path class="cls-11" d="M85.63,343.75a3.7,3.7,0,0,0,2.7,1.17c1.26,0,1.94-.56,1.94-1.36s-1-1.19-2.11-1.46c-1.39-.32-3-.7-3-2.4,0-1.27,1.1-2.36,3.06-2.36a4.16,4.16,0,0,1,3,1.19l-.6.88a3.2,3.2,0,0,0-2.44-1c-1.12,0-1.82.51-1.82,1.24s.93,1.05,2,1.31c1.43.32,3.08.73,3.08,2.55,0,1.37-1.1,2.48-3.23,2.48A4.37,4.37,0,0,1,85,344.67Z"/><circle class="cls-12" cx="57.41" cy="288.56" r="24.54"/><path class="cls-4" d="M50.72,303.5v-5.44s-9.9,0-8.32-12.26c.92-7.16,5.91-10.8,9.91-12.49a13.41,13.41,0,0,1,10.42,0c4,1.68,9,5.32,9.9,12.48,1.58,12.28-8.33,12.26-8.33,12.26v5.44M51,282.83c-2.36,0-4.27,2.18-4.27,4.88s1.91,4.87,4.27,4.87a4.6,4.6,0,0,0,4.28-4.87C55.28,285,53.37,282.83,51,282.83Zm12.9,0c-2.37,0-4.28,2.18-4.28,4.88a4.6,4.6,0,0,0,4.28,4.87c2.36,0,4.27-2.18,4.27-4.87S66.26,282.83,63.9,282.83Zm-9.1,22v-5.43m5.43,0v5.43M57.46,292c-.64,0-2.18,2.22-2.18,2.92a1.38,1.38,0,0,0,1.3,1.45,1.24,1.24,0,0,0,.9-.41,1.23,1.23,0,0,0,.9.41,1.38,1.38,0,0,0,1.29-1.45C59.67,294.17,58.11,292,57.46,292Z"/><rect class="cls-2" x="832.35" y="46.93" width="87.66" height="87.66" rx="20.45" ry="20.45"/><text class="cls-13" transform="translate(849.04 95.66)">app</text><rect class="cls-2" x="832.35" y="151.6" width="87.66" height="87.66" rx="20.45" ry="20.45"/><text class="cls-13" transform="translate(849.04 200.32)">app</text><rect class="cls-2" x="832.35" y="256.26" width="87.66" height="87.66" rx="20.45" ry="20.45"/><text class="cls-13" transform="translate(849.04 304.98)">app</text><circle class="cls-14" cx="212.29" cy="109.48" r="8.68"/><line class="cls-4" x1="216.26" y1="104.67" x2="208.47" y2="114.29"/><line class="cls-4" x1="208.32" y1="104.67" x2="216.1" y2="114.29"/><path class="cls-5" d="M481.41,186.81h6a9.34,9.34,0,1,1,0,18.67h-6Zm6,17.22c4.92,0,7.75-3.5,7.75-7.87s-2.8-7.9-7.75-7.9H483V204Z"/><path class="cls-5" d="M513.19,196.61H501.35v8.87h-1.6V186.81h1.6v8.34h11.84v-8.34h1.62v18.67h-1.62Z"/><path class="cls-5" d="M518.4,186.81h6a9.34,9.34,0,1,1,0,18.67h-6Zm6,17.22c4.93,0,7.76-3.5,7.76-7.87s-2.8-7.9-7.76-7.9H520V204Z"/><rect class="cls-15" x="601.01" y="148.61" width="172.17" height="131.36" rx="4" ry="4"/></g></g></svg>