<?xml version="1.0" encoding="UTF-8"?>
<svg width="63px" height="46px" viewBox="0 0 63 46" version="1.1" xmlns="http://www.w3.org/2000/svg" xmlns:xlink="http://www.w3.org/1999/xlink">
    <title>Group 10</title>
    <defs>
        <linearGradient x1="50%" y1="0%" x2="50%" y2="100%" id="linearGradient-1">
            <stop stop-color="#408A9F" offset="0%"></stop>
            <stop stop-color="#1E5266" offset="100%"></stop>
        </linearGradient>
        <linearGradient x1="50%" y1="0%" x2="50%" y2="100%" id="linearGradient-2">
            <stop stop-color="#408A9F" offset="0%"></stop>
            <stop stop-color="#1E5266" offset="100%"></stop>
        </linearGradient>
        <polygon id="path-3" points="0 0.1008 38.8989 0.1008 38.8989 38.9998 0 38.9998"></polygon>
        <linearGradient x1="50%" y1="0%" x2="50%" y2="100%" id="linearGradient-5">
            <stop stop-color="#408A9F" offset="0%"></stop>
            <stop stop-color="#1E5266" offset="100%"></stop>
        </linearGradient>
        <linearGradient x1="50%" y1="0%" x2="50%" y2="100%" id="linearGradient-6">
            <stop stop-color="#6BD581" offset="0%"></stop>
            <stop stop-color="#39AB4A" offset="100%"></stop>
        </linearGradient>
    </defs>
    <g id="Page-1" stroke="none" stroke-width="1" fill="none" fill-rule="evenodd">
        <g id="Aspen-Mesh---Home-Page---Desktop" transform="translate(-582.000000, -963.000000)">
            <g id="Group-10" transform="translate(583.000000, 963.000000)">
                <g id="Group-144" transform="translate(22.220178, 0.000000)">
                    <polygon id="Fill-1" fill="#0D3447" points="16.313 9.469 22.231 9.469 22.231 3.551 16.313 3.551"></polygon>
                    <polygon id="Fill-2" fill="url(#linearGradient-1)" points="15.093 4.734 23.378 4.734 23.378 0 15.093 0"></polygon>
                    <polygon id="Fill-4" fill="#0D3447" points="10.4648 11.4492 6.8268 14.0172 4.2578 10.3792 7.8968 7.8102"></polygon>
                    <polygon id="Fill-5" fill="url(#linearGradient-2)" points="9.1152 8.0405 4.0212 11.6365 1.9672 8.7265 7.0602 5.1295"></polygon>
                    <polygon id="Fill-7" fill="#0D3447" points="28.0063 11.4492 31.6443 14.0172 34.2133 10.3792 30.5743 7.8102"></polygon>
                    <polygon id="Fill-8" fill="url(#linearGradient-2)" points="29.356 8.0405 34.45 11.6365 36.504 8.7265 31.411 5.1295"></polygon>
                    <g id="Group-143" transform="translate(0.000000, 7.000000)">
                        <g id="Group-12">
                            <mask id="mask-4" fill="white">
                                <use xlink:href="#path-3"></use>
                            </mask>
                            <g id="Clip-11"></g>
                            <path d="M38.8989,19.5508 C38.8989,30.2918 30.1909,38.9998 19.4489,38.9998 C8.7079,38.9998 -0.0001,30.2918 -0.0001,19.5508 C-0.0001,8.8088 8.7079,0.1008 19.4489,0.1008 C30.1909,0.1008 38.8989,8.8088 38.8989,19.5508" id="Fill-10" fill="url(#linearGradient-5)" mask="url(#mask-4)"></path>
                        </g>
                        <path d="M34.2207,19.5508 C34.2207,27.6878 27.6237,34.2848 19.4867,34.2848 C11.3487,34.2848 4.7517,27.6878 4.7517,19.5508 C4.7517,11.4128 11.3487,4.8168 19.4867,4.8168 C27.6237,4.8168 34.2207,11.4128 34.2207,19.5508" id="Fill-13" fill="#0D3447"></path>
                        <path d="M33.042,19.5508 C33.042,27.0368 26.973,33.1068 19.486,33.1068 C12,33.1068 5.931,27.0368 5.931,19.5508 C5.931,12.0638 12,5.9948 19.486,5.9948 C26.973,5.9948 33.042,12.0638 33.042,19.5508" id="Fill-15" fill="#FFFFFF"></path>
                        <path d="M11.6851,13.2632 L9.8531,11.7782 C9.7171,11.9472 9.5851,12.1192 9.4581,12.2952 L11.3681,13.6782 C11.4701,13.5362 11.5761,13.3982 11.6851,13.2632" id="Fill-17" fill="#CFCFCF"></path>
                        <path d="M12.3848,12.4819 L10.7178,10.8149 C10.5648,10.9679 10.4158,11.1259 10.2718,11.2869 L12.0258,12.8619 C12.1428,12.7319 12.2618,12.6059 12.3848,12.4819" id="Fill-19" fill="#CFCFCF"></path>
                        <path d="M9.4814,20.0967 L7.1274,20.2217 C7.1384,20.4387 7.1554,20.6547 7.1794,20.8687 L9.5224,20.6177 C9.5044,20.4447 9.4904,20.2717 9.4814,20.0967" id="Fill-21" fill="#CFCFCF"></path>
                        <path d="M13.165,11.7764 L11.676,9.9484 C11.508,10.0854 11.345,10.2264 11.185,10.3704 L12.767,12.1194 C12.896,12.0014 13.029,11.8874 13.165,11.7764" id="Fill-23" fill="#CFCFCF"></path>
                        <path d="M16.8682,9.876 L16.2462,7.603 C16.0382,7.659 15.8332,7.721 15.6302,7.787 L16.3612,10.028 C16.5282,9.973 16.6972,9.923 16.8682,9.876" id="Fill-25" fill="#CFCFCF"></path>
                        <path d="M15.8706,10.2031 L15.0176,8.0051 C14.8166,8.0831 14.6176,8.1661 14.4226,8.2541 L15.3856,10.4061 C15.5456,10.3341 15.7066,10.2661 15.8706,10.2031" id="Fill-27" fill="#CFCFCF"></path>
                        <path d="M14.917,10.6313 L13.838,8.5353 C13.646,8.6333 13.458,8.7363 13.272,8.8453 L14.455,10.8833 C14.606,10.7963 14.76,10.7123 14.917,10.6313" id="Fill-29" fill="#CFCFCF"></path>
                        <path d="M14.0112,11.1577 L12.7192,9.1857 C12.5392,9.3037 12.3632,9.4257 12.1892,9.5537 L13.5782,11.4567 C13.7202,11.3537 13.8652,11.2537 14.0112,11.1577" id="Fill-31" fill="#CFCFCF"></path>
                        <path d="M9.5859,18.0034 L7.2559,17.6414 C7.2229,17.8534 7.1959,18.0674 7.1739,18.2824 L9.5189,18.5244 C9.5369,18.3494 9.5589,18.1754 9.5859,18.0034" id="Fill-33" fill="#CFCFCF"></path>
                        <path d="M9.8008,16.978 L7.5218,16.374 C7.4668,16.582 7.4168,16.792 7.3728,17.004 L9.6788,17.488 C9.7158,17.317 9.7558,17.147 9.8008,16.978" id="Fill-35" fill="#CFCFCF"></path>
                        <path d="M9.4795,19.0459 L7.1255,18.9299 C7.1145,19.1349 7.1095,19.3419 7.1095,19.5509 L7.1095,19.5729 L9.4665,19.5509 C9.4665,19.3809 9.4705,19.2129 9.4795,19.0459" id="Fill-37" fill="#CFCFCF"></path>
                        <path d="M10.5474,15.021 L8.4454,13.953 C8.3474,14.146 8.2554,14.341 8.1664,14.539 L10.3214,15.495 C10.3924,15.334 10.4674,15.177 10.5474,15.021" id="Fill-39" fill="#CFCFCF"></path>
                        <path d="M10.1211,15.9795 L7.9191,15.1395 C7.8421,15.3405 7.7701,15.5435 7.7031,15.7505 L9.9471,16.4765 C10.0011,16.3085 10.0591,16.1425 10.1211,15.9795" id="Fill-41" fill="#CFCFCF"></path>
                        <path d="M11.0693,14.1143 L9.0933,12.8273 C8.9763,13.0093 8.8623,13.1943 8.7543,13.3823 L10.7963,14.5603 C10.8833,14.4083 10.9743,14.2603 11.0693,14.1143" id="Fill-43" fill="#CFCFCF"></path>
                        <path d="M9.5913,21.1362 L7.2633,21.5102 C7.2983,21.7242 7.3373,21.9362 7.3833,22.1472 L9.6873,21.6522 C9.6513,21.4812 9.6183,21.3092 9.5913,21.1362" id="Fill-45" fill="#CFCFCF"></path>
                        <path d="M17.8887,9.6572 L17.5137,7.3292 C17.3007,7.3642 17.0877,7.4042 16.8777,7.4492 L17.3737,9.7542 C17.5437,9.7182 17.7157,9.6852 17.8887,9.6572" id="Fill-47" fill="#CFCFCF"></path>
                        <path d="M17.5649,31.7788 C17.7769,31.8118 17.9919,31.8398 18.2069,31.8618 L18.4479,29.5168 C18.2729,29.4988 18.0999,29.4758 17.9279,29.4488 L17.5649,31.7788 Z" id="Fill-49" fill="#CFCFCF"></path>
                        <path d="M27.2729,25.856 L29.1049,27.341 C29.2399,27.173 29.3719,27.002 29.4989,26.827 L27.5929,25.44 C27.4899,25.582 27.3829,25.72 27.2729,25.856" id="Fill-51" fill="#CFCFCF"></path>
                        <path d="M24.9438,27.9551 L26.2318,29.9291 C26.4128,29.8111 26.5898,29.6901 26.7618,29.5631 L25.3768,27.6561 C25.2358,27.7591 25.0908,27.8591 24.9438,27.9551" id="Fill-53" fill="#CFCFCF"></path>
                        <path d="M21.061,29.4473 L21.435,31.7753 C21.647,31.7413 21.859,31.7013 22.068,31.6573 L21.58,29.3503 C21.409,29.3873 21.235,29.4193 21.061,29.4473" id="Fill-55" fill="#CFCFCF"></path>
                        <path d="M25.792,27.3374 L27.277,29.1694 C27.444,29.0334 27.608,28.8924 27.769,28.7484 L26.191,26.9964 C26.062,27.1134 25.928,27.2274 25.792,27.3374" id="Fill-57" fill="#CFCFCF"></path>
                        <path d="M22.0894,29.23 L22.6984,31.507 C22.9084,31.451 23.1154,31.389 23.3214,31.322 L22.5904,29.081 C22.4244,29.135 22.2584,29.185 22.0894,29.23" id="Fill-59" fill="#CFCFCF"></path>
                        <path d="M23.084,28.9053 L23.931,31.1053 C24.133,31.0273 24.332,30.9453 24.529,30.8573 L23.567,28.7043 C23.409,28.7753 23.248,28.8423 23.084,28.9053" id="Fill-61" fill="#CFCFCF"></path>
                        <path d="M24.0371,28.4805 L25.1131,30.5775 C25.3051,30.4795 25.4951,30.3765 25.6811,30.2685 L24.4971,28.2295 C24.3471,28.3165 24.1931,28.4005 24.0371,28.4805" id="Fill-63" fill="#CFCFCF"></path>
                        <path d="M26.5708,26.6357 L28.2378,28.3027 C28.3908,28.1497 28.5398,27.9927 28.6838,27.8327 L26.9318,26.2547 C26.8158,26.3847 26.6958,26.5117 26.5708,26.6357" id="Fill-65" fill="#CFCFCF"></path>
                        <path d="M29.3833,21.1157 L31.7123,21.4867 C31.7453,21.2737 31.7743,21.0577 31.7963,20.8407 L29.4513,20.5987 C29.4333,20.7727 29.4113,20.9457 29.3833,21.1157" id="Fill-67" fill="#CFCFCF"></path>
                        <path d="M29.167,22.1426 L31.444,22.7536 C31.5,22.5436 31.55,22.3326 31.595,22.1206 L29.289,21.6356 C29.253,21.8056 29.212,21.9756 29.167,22.1426" id="Fill-69" fill="#CFCFCF"></path>
                        <path d="M28.8442,23.1392 L31.0442,23.9862 C31.1222,23.7842 31.1952,23.5792 31.2612,23.3722 L29.0192,22.6462 C28.9652,22.8122 28.9062,22.9772 28.8442,23.1392" id="Fill-71" fill="#CFCFCF"></path>
                        <path d="M28.416,24.0991 L30.516,25.1701 C30.613,24.9781 30.707,24.7841 30.795,24.5861 L28.643,23.6241 C28.571,23.7851 28.496,23.9431 28.416,24.0991" id="Fill-73" fill="#CFCFCF"></path>
                        <path d="M27.8916,25.0059 L29.8676,26.2929 C29.9846,26.1119 30.0986,25.9269 30.2066,25.7399 L28.1656,24.5599 C28.0786,24.7109 27.9866,24.8599 27.8916,25.0059" id="Fill-75" fill="#CFCFCF"></path>
                        <path d="M14.9492,28.4868 L13.8752,30.5858 C14.0692,30.6838 14.2652,30.7788 14.4642,30.8658 L15.4202,28.7118 C15.2612,28.6408 15.1042,28.5668 14.9492,28.4868" id="Fill-77" fill="#CFCFCF"></path>
                        <path d="M12.4077,26.6416 L10.7447,28.3116 C10.8967,28.4636 11.0537,28.6126 11.2127,28.7566 L12.7907,27.0046 C12.6597,26.8866 12.5327,26.7666 12.4077,26.6416" id="Fill-79" fill="#CFCFCF"></path>
                        <path d="M14.0376,27.96 L12.7546,29.939 C12.9356,30.056 13.1206,30.169 13.3076,30.277 L14.4856,28.235 C14.3326,28.147 14.1836,28.055 14.0376,27.96" id="Fill-81" fill="#CFCFCF"></path>
                        <path d="M11.7036,25.8618 L9.8776,27.3538 C10.0136,27.5198 10.1526,27.6818 10.2966,27.8418 L12.0486,26.2628 C11.9306,26.1328 11.8146,25.9978 11.7036,25.8618" id="Fill-83" fill="#CFCFCF"></path>
                        <path d="M13.187,27.3433 L11.707,29.1783 C11.875,29.3123 12.045,29.4443 12.219,29.5713 L13.606,27.6643 C13.463,27.5603 13.324,27.4533 13.187,27.3433" id="Fill-85" fill="#CFCFCF"></path>
                        <path d="M10.1343,23.1558 L7.9373,24.0088 C8.0143,24.2098 8.0973,24.4088 8.1853,24.6038 L10.3363,23.6408 C10.2653,23.4808 10.1983,23.3198 10.1343,23.1558" id="Fill-87" fill="#CFCFCF"></path>
                        <path d="M11.0889,25.019 L9.1129,26.306 C9.2319,26.487 9.3539,26.665 9.4819,26.839 L11.3859,25.45 C11.2829,25.309 11.1839,25.165 11.0889,25.019" id="Fill-89" fill="#CFCFCF"></path>
                        <path d="M10.561,24.1089 L8.466,25.1909 C8.565,25.3819 8.667,25.5699 8.775,25.7559 L10.813,24.5719 C10.726,24.4209 10.642,24.2659 10.561,24.1089" id="Fill-91" fill="#CFCFCF"></path>
                        <path d="M28.3999,14.9707 L30.4959,13.8917 C30.3969,13.6997 30.2939,13.5107 30.1849,13.3247 L28.1479,14.5117 C28.2349,14.6617 28.3189,14.8147 28.3999,14.9707" id="Fill-93" fill="#39AB4A"></path>
                        <path d="M27.2529,13.2207 L29.0809,11.7327 C28.9439,11.5637 28.8029,11.3997 28.6569,11.2397 L26.9119,12.8247 C27.0289,12.9537 27.1419,13.0857 27.2529,13.2207" id="Fill-95" fill="#39AB4A"></path>
                        <path d="M28.8301,15.9238 L31.0271,15.0708 C30.9491,14.8688 30.8661,14.6698 30.7771,14.4738 L28.6281,15.4428 C28.6991,15.6008 28.7671,15.7608 28.8301,15.9238" id="Fill-97" fill="#39AB4A"></path>
                        <path d="M27.875,14.0688 L29.843,12.7728 C29.726,12.5928 29.603,12.4158 29.476,12.2428 L27.575,13.6358 C27.678,13.7778 27.778,13.9228 27.875,14.0688" id="Fill-99" fill="#39AB4A"></path>
                        <path d="M29.1567,16.918 L31.4327,16.302 C31.3757,16.092 31.3127,15.884 31.2457,15.679 L29.0067,16.418 C29.0607,16.583 29.1117,16.75 29.1567,16.918" id="Fill-101" fill="#39AB4A"></path>
                        <path d="M29.4902,18.9858 L31.8442,18.8548 C31.8322,18.6378 31.8142,18.4238 31.7912,18.2108 L29.4472,18.4618 C29.4662,18.6358 29.4802,18.8098 29.4902,18.9858" id="Fill-103" fill="#39AB4A"></path>
                        <path d="M29.3784,17.9453 L31.7044,17.5643 C31.6704,17.3523 31.6294,17.1403 31.5854,16.9313 L29.2804,17.4273 C29.3174,17.5983 29.3494,17.7713 29.3784,17.9453" id="Fill-105" fill="#39AB4A"></path>
                        <path d="M22.6523,7.5825 C22.4433,7.5275 22.2313,7.4775 22.0193,7.4335 L21.5403,9.7415 C21.7113,9.7765 21.8803,9.8165 22.0483,9.8615 L22.6523,7.5825 Z" id="Fill-107" fill="#39AB4A"></path>
                        <path d="M18.9326,9.5464 L18.8016,7.1924 C18.5846,7.2044 18.3706,7.2214 18.1576,7.2444 L18.4086,9.5884 C18.5816,9.5694 18.7566,9.5564 18.9326,9.5464" id="Fill-109" fill="#39AB4A"></path>
                        <path d="M23.0474,10.1821 L23.8874,7.9801 C23.6854,7.9021 23.4804,7.8301 23.2724,7.7641 L22.5534,10.0101 C22.7204,10.0621 22.8844,10.1201 23.0474,10.1821" id="Fill-111" fill="#39AB4A"></path>
                        <path d="M24.0088,10.6074 L25.0708,8.5034 C24.8798,8.4064 24.6848,8.3144 24.4878,8.2264 L23.5318,10.3814 C23.6928,10.4524 23.8518,10.5284 24.0088,10.6074" id="Fill-113" fill="#39AB4A"></path>
                        <path d="M26.5488,12.4438 L28.2128,10.7738 C28.0588,10.6198 27.9008,10.4708 27.7388,10.3268 L26.1688,12.0848 C26.2988,12.2008 26.4248,12.3198 26.5488,12.4438" id="Fill-115" fill="#39AB4A"></path>
                        <path d="M25.769,11.7451 L27.246,9.9081 C27.078,9.7721 26.907,9.6411 26.732,9.5161 L25.35,11.4251 C25.492,11.5281 25.632,11.6351 25.769,11.7451" id="Fill-117" fill="#39AB4A"></path>
                        <path d="M24.916,11.1289 L26.2,9.1509 C26.017,9.0329 25.832,8.9199 25.643,8.8119 L24.471,10.8579 C24.622,10.9439 24.77,11.0339 24.916,11.1289" id="Fill-119" fill="#39AB4A"></path>
                        <path d="M31.4722,19.5132 L29.5052,19.5512 C29.5052,19.7272 29.5012,19.9022 29.4922,20.0772 L31.8462,20.1962 C31.8572,19.9822 31.8632,19.7662 31.8622,19.5162 L31.4722,19.5132 Z" id="Fill-121" fill="#39AB4A"></path>
                        <path d="M19.4575,7.1743 L19.4565,7.4433 L19.4865,9.5313 C19.6535,9.5313 19.8185,9.5353 19.9825,9.5433 L20.0945,7.1883 C19.8935,7.1793 19.6875,7.1763 19.4575,7.1743" id="Fill-123" fill="#39AB4A"></path>
                        <path d="M20.7397,7.2363 L20.5047,9.5823 C20.6777,9.5993 20.8517,9.6213 21.0227,9.6493 L21.3847,7.3193 C21.1717,7.2863 20.9567,7.2583 20.7397,7.2363" id="Fill-125" fill="#39AB4A"></path>
                        <path d="M19.4976,29.5693 L19.4236,29.5693 C19.2716,29.5693 19.1226,29.5653 18.9726,29.5573 L18.8516,31.9113 C19.0606,31.9223 19.2736,31.9273 19.4866,31.9273 L19.5836,31.9273 L19.6806,31.9113 L19.4976,30.7503 L19.4976,29.5693 Z" id="Fill-127" fill="#CFCFCF"></path>
                        <path d="M9.8101,22.1616 L7.5341,22.7776 C7.5901,22.9866 7.6521,23.1926 7.7191,23.3966 L9.9601,22.6656 C9.9061,22.4986 9.8561,22.3306 9.8101,22.1616" id="Fill-129" fill="#CFCFCF"></path>
                        <path d="M20.021,29.5566 L20.145,31.9106 C20.362,31.8996 20.576,31.8826 20.789,31.8606 L20.545,29.5146 C20.372,29.5336 20.197,29.5476 20.021,29.5566" id="Fill-131" fill="#CFCFCF"></path>
                        <path d="M15.9072,28.9121 L15.0602,31.1121 C15.2622,31.1901 15.4682,31.2621 15.6752,31.3291 L16.4002,29.0861 C16.2342,29.0321 16.0702,28.9741 15.9072,28.9121" id="Fill-133" fill="#CFCFCF"></path>
                        <path d="M16.2974,31.5127 C16.5054,31.5677 16.7154,31.6177 16.9274,31.6617 L17.4124,29.3557 C17.2404,29.3187 17.0714,29.2787 16.9014,29.2337 L16.2974,31.5127 Z" id="Fill-135" fill="#CFCFCF"></path>
                        <path d="M25.8955,19.5508 C25.8955,23.1318 22.9935,26.0338 19.4125,26.0338 C15.8325,26.0338 12.9295,23.1318 12.9295,19.5508 C12.9295,15.9698 15.8325,13.0678 19.4125,13.0678 C22.9935,13.0678 25.8955,15.9698 25.8955,19.5508" id="Fill-137" fill="url(#linearGradient-6)"></path>
                        <polygon id="Fill-139" fill="#39AB4A" points="18.8232 23.6763 19.4122 23.6763 20.0022 23.6763 19.4122 23.6763"></polygon>
                        <path d="M22.3594,17.2856 L19.1834,21.5196 C18.9144,21.8796 18.3884,21.9166 18.0694,21.5986 L16.2144,19.7436" id="Stroke-141" stroke="#FFFFFF" stroke-linecap="round"></path>
                    </g>
                </g>
                <line x1="9" y1="17.3699722" x2="17" y2="17.3699722" id="Path-2" stroke="#2F6D82" stroke-width="2" stroke-linecap="round"></line>
                <line x1="0" y1="24.4566574" x2="16" y2="24.4566574" id="Path-2" stroke="#64CF79" stroke-width="2" stroke-linecap="round"></line>
                <line x1="9" y1="31.5433426" x2="17" y2="31.5433426" id="Path-2" stroke="#2F6D82" stroke-width="2" stroke-linecap="round"></line>
                <line x1="5" y1="38.6300278" x2="21" y2="38.6300278" id="Path-2" stroke="#64CF79" stroke-width="2" stroke-linecap="round"></line>
            </g>
        </g>
    </g>
</svg>