<?xml version="1.0" encoding="UTF-8"?>
<svg width="48px" height="45px" viewBox="0 0 48 45" version="1.1" xmlns="http://www.w3.org/2000/svg" xmlns:xlink="http://www.w3.org/1999/xlink">
    <title>Group 138</title>
    <defs>
        <polygon id="path-1" points="0 0.849 8.3696 0.849 8.3696 5.1 0 5.1"></polygon>
    </defs>
    <g id="Page-1" stroke="none" stroke-width="1" fill="none" fill-rule="evenodd">
        <g id="Aspen-Mesh---Home-Page---Desktop" transform="translate(-978.000000, -1296.000000)">
            <g id="Group-138" transform="translate(978.000000, 1297.000000)">
                <path d="M41.3531,21.0285 C41.3531,29.8425 34.2081,36.9875 25.3941,36.9875 C16.5801,36.9875 9.4341,29.8425 9.4341,21.0285 C9.4341,12.2145 16.5801,5.0695 25.3941,5.0695 C34.2081,5.0695 41.3531,12.2145 41.3531,21.0285" id="Fill-1" fill="#1E5266"></path>
                <path d="M38.0992,21.0285 C38.0992,28.0455 32.4112,33.7335 25.3942,33.7335 C18.3772,33.7335 12.6892,28.0455 12.6892,21.0285 C12.6892,14.0115 18.3772,8.3235 25.3942,8.3235 C32.4112,8.3235 38.0992,14.0115 38.0992,21.0285" id="Fill-3" fill="#0D3447"></path>
                <path d="M36.4791,21.0285 C36.4791,27.1505 31.5161,32.1135 25.3941,32.1135 C19.2721,32.1135 14.3091,27.1505 14.3091,21.0285 C14.3091,14.9065 19.2721,9.9435 25.3941,9.9435 C31.5161,9.9435 36.4791,14.9065 36.4791,21.0285" id="Fill-5" fill="#FFFFFF"></path>
                <path d="M19.317,16.1306 L17.891,14.9736 C17.784,15.1056 17.682,15.2396 17.583,15.3766 L19.07,16.4536 C19.15,16.3436 19.232,16.2356 19.317,16.1306" id="Fill-7" fill="#E6E6E6"></path>
                <path d="M19.8629,15.5222 L18.5639,14.2242 C18.4449,14.3432 18.3289,14.4662 18.2169,14.5912 L19.5829,15.8182 C19.6739,15.7162 19.7659,15.6182 19.8629,15.5222" id="Fill-9" fill="#E6E6E6"></path>
                <path d="M17.6012,21.4538 L15.7672,21.5508 C15.7762,21.7198 15.7892,21.8878 15.8072,22.0548 L17.6332,21.8598 C17.6192,21.7248 17.6082,21.5898 17.6012,21.4538" id="Fill-11" fill="#E6E6E6"></path>
                <path d="M20.4703,14.9724 L19.3113,13.5484 C19.1803,13.6554 19.0523,13.7644 18.9273,13.8774 L20.1593,15.2394 C20.2613,15.1474 20.3643,15.0594 20.4703,14.9724" id="Fill-13" fill="#E6E6E6"></path>
                <path d="M23.3551,13.4919 L22.8711,11.7209 C22.7091,11.7649 22.5481,11.8129 22.3901,11.8649 L22.9591,13.6109 C23.0901,13.5679 23.2211,13.5289 23.3551,13.4919" id="Fill-15" fill="#E6E6E6"></path>
                <path d="M22.5777,13.7468 L21.9137,12.0348 C21.7567,12.0958 21.6017,12.1608 21.4497,12.2288 L22.1997,13.9048 C22.3247,13.8488 22.4497,13.7968 22.5777,13.7468" id="Fill-17" fill="#E6E6E6"></path>
                <path d="M21.8345,14.0803 L20.9945,12.4473 C20.8455,12.5243 20.6975,12.6043 20.5535,12.6893 L21.4755,14.2773 C21.5935,14.2093 21.7125,14.1433 21.8345,14.0803" id="Fill-19" fill="#E6E6E6"></path>
                <path d="M21.1295,14.4904 L20.1235,12.9544 C19.9835,13.0464 19.8455,13.1414 19.7105,13.2404 L20.7925,14.7234 C20.9025,14.6434 21.0155,14.5654 21.1295,14.4904" id="Fill-21" fill="#E6E6E6"></path>
                <path d="M17.6822,19.8229 L15.8682,19.5409 C15.8422,19.7059 15.8212,19.8729 15.8032,20.0399 L17.6292,20.2289 C17.6442,20.0929 17.6612,19.9569 17.6822,19.8229" id="Fill-23" fill="#E6E6E6"></path>
                <path d="M17.8492,19.0241 L16.0742,18.5531 C16.0312,18.7151 15.9932,18.8791 15.9572,19.0441 L17.7552,19.4211 C17.7832,19.2881 17.8152,19.1561 17.8492,19.0241" id="Fill-25" fill="#E6E6E6"></path>
                <path d="M17.5992,20.635 L15.7652,20.545 C15.7572,20.704 15.7532,20.866 15.7532,21.028 L15.7532,21.046 L17.5892,21.028 C17.5892,20.896 17.5922,20.765 17.5992,20.635" id="Fill-27" fill="#E6E6E6"></path>
                <path d="M18.4312,17.4997 L16.7932,16.6677 C16.7172,16.8177 16.6452,16.9697 16.5772,17.1247 L18.2552,17.8697 C18.3102,17.7447 18.3692,17.6217 18.4312,17.4997" id="Fill-29" fill="#E6E6E6"></path>
                <path d="M18.0992,18.2463 L16.3842,17.5913 C16.3242,17.7483 16.2682,17.9073 16.2152,18.0683 L17.9632,18.6333 C18.0052,18.5023 18.0512,18.3733 18.0992,18.2463" id="Fill-31" fill="#E6E6E6"></path>
                <path d="M18.8375,16.7936 L17.2995,15.7916 C17.2065,15.9326 17.1185,16.0766 17.0345,16.2236 L18.6255,17.1406 C18.6925,17.0226 18.7635,16.9066 18.8375,16.7936" id="Fill-33" fill="#E6E6E6"></path>
                <path d="M17.6861,22.2634 L15.8741,22.5554 C15.9001,22.7214 15.9301,22.8864 15.9661,23.0504 L17.7611,22.6654 C17.7331,22.5324 17.7071,22.3984 17.6861,22.2634" id="Fill-35" fill="#E6E6E6"></path>
                <path d="M24.15,13.322 L23.858,11.509 C23.691,11.535 23.526,11.567 23.362,11.602 L23.749,13.397 C23.881,13.369 24.015,13.343 24.15,13.322" id="Fill-37" fill="#E6E6E6"></path>
                <path d="M23.898,30.5534 C24.063,30.5784 24.23,30.6004 24.397,30.6174 L24.585,28.7914 C24.45,28.7774 24.314,28.7594 24.18,28.7384 L23.898,30.5534 Z" id="Fill-39" fill="#E6E6E6"></path>
                <path d="M31.4595,25.9396 L32.8865,27.0966 C32.9915,26.9656 33.0945,26.8326 33.1935,26.6956 L31.7085,25.6156 C31.6285,25.7256 31.5455,25.8336 31.4595,25.9396" id="Fill-41" fill="#E6E6E6"></path>
                <path d="M29.6451,27.5749 L30.6491,29.1129 C30.7901,29.0209 30.9271,28.9259 31.0621,28.8279 L29.9831,27.3419 C29.8731,27.4219 29.7601,27.4999 29.6451,27.5749" id="Fill-43" fill="#E6E6E6"></path>
                <path d="M26.6207,28.737 L26.9117,30.55 C27.0777,30.524 27.2417,30.493 27.4057,30.459 L27.0247,28.662 C26.8917,28.69 26.7567,28.715 26.6207,28.737" id="Fill-45" fill="#E6E6E6"></path>
                <path d="M30.3062,27.0934 L31.4622,28.5204 C31.5932,28.4144 31.7212,28.3044 31.8462,28.1924 L30.6172,26.8274 C30.5162,26.9194 30.4122,27.0074 30.3062,27.0934" id="Fill-47" fill="#E6E6E6"></path>
                <path d="M27.4215,28.5676 L27.8965,30.3416 C28.0605,30.2976 28.2215,30.2496 28.3815,30.1976 L27.8125,28.4516 C27.6835,28.4936 27.5535,28.5326 27.4215,28.5676" id="Fill-49" fill="#E6E6E6"></path>
                <path d="M28.1969,28.3151 L28.8569,30.0281 C29.0129,29.9681 29.1689,29.9041 29.3219,29.8351 L28.5729,28.1581 C28.4499,28.2131 28.3239,28.2661 28.1969,28.3151" id="Fill-51" fill="#E6E6E6"></path>
                <path d="M28.939,27.9841 L29.778,29.6181 C29.926,29.5411 30.074,29.4611 30.219,29.3771 L29.297,27.7891 C29.18,27.8571 29.06,27.9221 28.939,27.9841" id="Fill-53" fill="#E6E6E6"></path>
                <path d="M30.9127,26.5471 L32.2117,27.8451 C32.3307,27.7261 32.4467,27.6041 32.5587,27.4801 L31.1937,26.2501 C31.1027,26.3521 31.0097,26.4501 30.9127,26.5471" id="Fill-55" fill="#E6E6E6"></path>
                <path d="M33.1041,22.2473 L34.9171,22.5363 C34.9441,22.3703 34.9651,22.2023 34.9831,22.0333 L33.1571,21.8453 C33.1431,21.9803 33.1251,22.1143 33.1041,22.2473" id="Fill-57" fill="#E6E6E6"></path>
                <path d="M32.9351,23.0471 L34.7081,23.5231 C34.7521,23.3591 34.7911,23.1951 34.8271,23.0291 L33.0301,22.6521 C33.0011,22.7851 32.9701,22.9171 32.9351,23.0471" id="Fill-59" fill="#E6E6E6"></path>
                <path d="M32.6832,23.8234 L34.3972,24.4834 C34.4582,24.3254 34.5142,24.1664 34.5672,24.0054 L32.8202,23.4394 C32.7782,23.5694 32.7322,23.6974 32.6832,23.8234" id="Fill-61" fill="#E6E6E6"></path>
                <path d="M32.3502,24.5715 L33.9862,25.4055 C34.0622,25.2565 34.1342,25.1045 34.2042,24.9505 L32.5272,24.2005 C32.4712,24.3255 32.4122,24.4495 32.3502,24.5715" id="Fill-63" fill="#E6E6E6"></path>
                <path d="M31.942,25.2775 L33.48,26.2795 C33.572,26.1395 33.661,25.9955 33.745,25.8495 L32.155,24.9295 C32.087,25.0475 32.015,25.1635 31.942,25.2775" id="Fill-65" fill="#E6E6E6"></path>
                <path d="M21.8599,27.989 L21.0229,29.624 C21.1739,29.701 21.3279,29.774 21.4819,29.843 L22.2269,28.164 C22.1029,28.109 21.9799,28.051 21.8599,27.989" id="Fill-67" fill="#E6E6E6"></path>
                <path d="M19.8804,26.5515 L18.5844,27.8525 C18.7034,27.9705 18.8244,28.0865 18.9494,28.1985 L20.1784,26.8345 C20.0764,26.7425 19.9784,26.6485 19.8804,26.5515" id="Fill-69" fill="#E6E6E6"></path>
                <path d="M21.15,27.5788 L20.151,29.1208 C20.292,29.2108 20.435,29.2998 20.582,29.3838 L21.499,27.7928 C21.379,27.7238 21.263,27.6528 21.15,27.5788" id="Fill-71" fill="#E6E6E6"></path>
                <path d="M19.3316,25.944 L17.9096,27.106 C18.0156,27.236 18.1236,27.362 18.2356,27.486 L19.6006,26.257 C19.5086,26.155 19.4186,26.05 19.3316,25.944" id="Fill-73" fill="#E6E6E6"></path>
                <path d="M20.4879,27.0983 L19.3349,28.5273 C19.4649,28.6323 19.5979,28.7343 19.7329,28.8333 L20.8139,27.3483 C20.7029,27.2673 20.5929,27.1843 20.4879,27.0983" id="Fill-75" fill="#E6E6E6"></path>
                <path d="M18.1099,23.8366 L16.3979,24.5016 C16.4589,24.6576 16.5229,24.8126 16.5909,24.9646 L18.2669,24.2136 C18.2119,24.0896 18.1599,23.9636 18.1099,23.8366" id="Fill-77" fill="#E6E6E6"></path>
                <path d="M18.8531,25.2878 L17.3141,26.2898 C17.4061,26.4308 17.5011,26.5698 17.6011,26.7048 L19.0841,25.6228 C19.0041,25.5138 18.9271,25.4018 18.8531,25.2878" id="Fill-79" fill="#E6E6E6"></path>
                <path d="M18.442,24.5788 L16.81,25.4218 C16.887,25.5708 16.966,25.7178 17.05,25.8618 L18.638,24.9398 C18.57,24.8218 18.504,24.7008 18.442,24.5788" id="Fill-81" fill="#E6E6E6"></path>
                <path d="M32.3375,17.4606 L33.9705,16.6206 C33.8935,16.4706 33.8125,16.3236 33.7285,16.1786 L32.1415,17.1026 C32.2095,17.2196 32.2755,17.3386 32.3375,17.4606" id="Fill-83" fill="#E6E6E6"></path>
                <path d="M31.4439,16.0974 L32.8679,14.9384 C32.7609,14.8064 32.6509,14.6794 32.5379,14.5544 L31.1779,15.7884 C31.2689,15.8894 31.3579,15.9924 31.4439,16.0974" id="Fill-85" fill="#E6E6E6"></path>
                <path d="M32.6724,18.2033 L34.3844,17.5383 C34.3224,17.3813 34.2584,17.2263 34.1894,17.0733 L32.5154,17.8283 C32.5704,17.9523 32.6224,18.0763 32.6724,18.2033" id="Fill-87" fill="#E6E6E6"></path>
                <path d="M31.9283,16.758 L33.4613,15.749 C33.3693,15.608 33.2743,15.47 33.1753,15.336 L31.6953,16.421 C31.7753,16.531 31.8533,16.644 31.9283,16.758" id="Fill-89" fill="#E6E6E6"></path>
                <path d="M32.9273,18.9772 L34.6993,18.4982 C34.6563,18.3342 34.6063,18.1722 34.5543,18.0132 L32.8103,18.5882 C32.8523,18.7162 32.8913,18.8462 32.9273,18.9772" id="Fill-91" fill="#E6E6E6"></path>
                <path d="M33.1871,20.5886 L35.0201,20.4856 C35.0111,20.3176 34.9971,20.1506 34.9791,19.9846 L33.1541,20.1796 C33.1671,20.3156 33.1791,20.4516 33.1871,20.5886" id="Fill-93" fill="#E6E6E6"></path>
                <path d="M33.0992,19.7775 L34.9112,19.4815 C34.8852,19.3155 34.8532,19.1505 34.8192,18.9875 L33.0232,19.3745 C33.0522,19.5075 33.0772,19.6415 33.0992,19.7775" id="Fill-95" fill="#E6E6E6"></path>
                <path d="M27.8599,11.7053 C27.6969,11.6623 27.5329,11.6233 27.3669,11.5893 L26.9949,13.3873 C27.1279,13.4153 27.2579,13.4463 27.3889,13.4803 L27.8599,11.7053 Z" id="Fill-97" fill="#E6E6E6"></path>
                <path d="M24.9625,13.2351 L24.8605,11.4021 C24.6915,11.4111 24.5255,11.4241 24.3585,11.4421 L24.5545,13.2681 C24.6905,13.2541 24.8255,13.2431 24.9625,13.2351" id="Fill-99" fill="#E6E6E6"></path>
                <path d="M28.1676,13.7307 L28.8226,12.0157 C28.6646,11.9547 28.5056,11.8987 28.3436,11.8467 L27.7836,13.5957 C27.9136,13.6377 28.0416,13.6827 28.1676,13.7307" id="Fill-101" fill="#E6E6E6"></path>
                <path d="M28.9176,14.0617 L29.7446,12.4227 C29.5956,12.3467 29.4436,12.2747 29.2906,12.2077 L28.5456,13.8857 C28.6716,13.9407 28.7946,14.0007 28.9176,14.0617" id="Fill-103" fill="#E6E6E6"></path>
                <path d="M30.8961,15.4919 L32.1911,14.1909 C32.0721,14.0719 31.9491,13.9559 31.8231,13.8439 L30.6001,15.2129 C30.7011,15.3039 30.7991,15.3959 30.8961,15.4919" id="Fill-105" fill="#E6E6E6"></path>
                <path d="M30.2877,14.9479 L31.4387,13.5169 C31.3077,13.4109 31.1747,13.3099 31.0387,13.2119 L29.9617,14.6989 C30.0727,14.7799 30.1817,14.8619 30.2877,14.9479" id="Fill-107" fill="#E6E6E6"></path>
                <path d="M29.6236,14.468 L30.6236,12.927 C30.4806,12.836 30.3376,12.747 30.1896,12.663 L29.2766,14.257 C29.3946,14.324 29.5106,14.394 29.6236,14.468" id="Fill-109" fill="#E6E6E6"></path>
                <path d="M34.731,20.9992 L33.199,21.0282 C33.199,21.1662 33.195,21.3022 33.188,21.4382 L35.022,21.5312 C35.031,21.3642 35.035,21.1962 35.035,21.0012 L34.731,20.9992 Z" id="Fill-111" fill="#E6E6E6"></path>
                <path d="M25.3717,11.3874 L25.3707,11.5964 L25.3937,13.2234 C25.5237,13.2234 25.6527,13.2264 25.7807,13.2334 L25.8677,11.3984 C25.7117,11.3914 25.5517,11.3884 25.3717,11.3874" id="Fill-113" fill="#E6E6E6"></path>
                <path d="M26.3707,11.4362 L26.1877,13.2632 C26.3227,13.2772 26.4577,13.2942 26.5907,13.3152 L26.8737,11.5002 C26.7067,11.4752 26.5397,11.4532 26.3707,11.4362" id="Fill-115" fill="#E6E6E6"></path>
                <path d="M25.4029,28.8322 L25.3449,28.8322 C25.2269,28.8322 25.1099,28.8292 24.9939,28.8232 L24.8999,30.6562 C25.0629,30.6652 25.2279,30.6692 25.3939,30.6692 L25.4699,30.6692 L25.5459,30.6562 L25.4029,29.7522 L25.4029,28.8322 Z" id="Fill-117" fill="#E6E6E6"></path>
                <path d="M17.857,23.0617 L16.084,23.5417 C16.128,23.7047 16.176,23.8647 16.228,24.0237 L17.974,23.4547 C17.931,23.3247 17.892,23.1937 17.857,23.0617" id="Fill-119" fill="#E6E6E6"></path>
                <path d="M25.8111,28.8225 L25.9081,30.6555 C26.0761,30.6475 26.2441,30.6345 26.4091,30.6165 L26.2191,28.7905 C26.0831,28.8035 25.9481,28.8155 25.8111,28.8225" id="Fill-121" fill="#E6E6E6"></path>
                <path d="M22.606,28.3205 L21.947,30.0335 C22.104,30.0945 22.264,30.1515 22.425,30.2035 L22.991,28.4555 C22.861,28.4135 22.733,28.3685 22.606,28.3205" id="Fill-123" fill="#E6E6E6"></path>
                <path d="M22.9107,30.3459 C23.0727,30.3889 23.2357,30.4279 23.4007,30.4629 L23.7787,28.6659 C23.6447,28.6379 23.5137,28.6059 23.3817,28.5709 L22.9107,30.3459 Z" id="Fill-125" fill="#E6E6E6"></path>
                <polygon id="Fill-127" fill="#E6E6E6" points="24.8775 24.2419 25.3365 24.2419 25.7955 24.2419 25.3365 24.2419"></polygon>
                <polyline id="Stroke-129" stroke="#0D3447" stroke-linecap="round" points="25.397 13.1369 25.366 20.9989 32.077 21.0259"></polyline>
                <path d="M27.481,20.9987 C27.481,22.1497 26.548,23.0827 25.397,23.0827 C24.246,23.0827 23.313,22.1497 23.313,20.9987 C23.313,19.8477 24.246,18.9147 25.397,18.9147 C26.548,18.9147 27.481,19.8477 27.481,20.9987" id="Fill-131" fill="#4DC15B"></path>
                <path d="M5.0953,14.7385 C8.6893,3.5715 20.6553,-2.5665 31.8213,1.0275 C42.9873,4.6205 49.1253,16.5865 45.5323,27.7525 C41.9383,38.9195 29.9723,45.0575 18.8063,41.4645 C9.7873,38.5615 4.0483,30.1985 4.06824789,21.2055" id="Stroke-133" stroke="#4DC15B" stroke-width="2"></path>
                <g id="Group-137" transform="translate(0.000000, 16.491200)">
                    <mask id="mask-2" fill="white">
                        <use xlink:href="#path-1"></use>
                    </mask>
                    <g id="Clip-136"></g>
                    <polyline id="Fill-135" fill="#4DC15B" mask="url(#mask-2)" points="-0.0004 4.968 4.2506 0.849 8.3696 5.1"></polyline>
                </g>
            </g>
        </g>
    </g>
</svg>