<?xml version="1.0" encoding="UTF-8"?>
<svg width="46px" height="47px" viewBox="0 0 46 47" version="1.1" xmlns="http://www.w3.org/2000/svg" xmlns:xlink="http://www.w3.org/1999/xlink">
    <title>Group 16</title>
    <defs>
        <polygon id="path-1" points="0.0001 0.059 45.941 0.059 45.941 45.9995 0.0001 45.9995"></polygon>
        <linearGradient x1="50%" y1="0%" x2="50%" y2="100%" id="linearGradient-3">
            <stop stop-color="#408A9F" offset="0%"></stop>
            <stop stop-color="#1E5266" offset="100%"></stop>
        </linearGradient>
        <linearGradient x1="50%" y1="0%" x2="50%" y2="100%" id="linearGradient-4">
            <stop stop-color="#1E647D" offset="0%"></stop>
            <stop stop-color="#0D3447" offset="100%"></stop>
        </linearGradient>
        <linearGradient x1="50%" y1="0%" x2="50%" y2="100%" id="linearGradient-5">
            <stop stop-color="#B9EDBE" offset="0%"></stop>
            <stop stop-color="#83D68A" offset="100%"></stop>
        </linearGradient>
        <linearGradient x1="50%" y1="0%" x2="50%" y2="100%" id="linearGradient-6">
            <stop stop-color="#57CA6E" offset="0%"></stop>
            <stop stop-color="#2DA33F" offset="100%"></stop>
        </linearGradient>
        <linearGradient x1="50%" y1="0%" x2="50%" y2="100%" id="linearGradient-7">
            <stop stop-color="#98F7A8" offset="0%"></stop>
            <stop stop-color="#62CB6F" offset="100%"></stop>
        </linearGradient>
        <linearGradient x1="50%" y1="0%" x2="50%" y2="100%" id="linearGradient-8">
            <stop stop-color="#408A9F" offset="0%"></stop>
            <stop stop-color="#1E5266" offset="100%"></stop>
        </linearGradient>
    </defs>
    <g id="Page-1" stroke="none" stroke-width="1" fill="none" fill-rule="evenodd">
        <g id="Aspen-Mesh---Home-Page---Desktop" transform="translate(-583.000000, -1307.000000)">
            <g id="Group-16" transform="translate(583.000000, 1307.000000)">
                <g id="Group-3" transform="translate(0.000000, 0.941100)">
                    <mask id="mask-2" fill="white">
                        <use xlink:href="#path-1"></use>
                    </mask>
                    <g id="Clip-2"></g>
                    <path d="M45.9411,23.0295 C45.9411,35.7155 35.6571,45.9995 22.9701,45.9995 C10.2841,45.9995 0.0001,35.7155 0.0001,23.0295 C0.0001,10.3425 10.2841,0.0585 22.9701,0.0585 C35.6571,0.0585 45.9411,10.3425 45.9411,23.0295" id="Fill-1" fill="url(#linearGradient-3)" mask="url(#mask-2)"></path>
                </g>
                <path d="M41.0886,23.9257 C41.0886,34.0247 32.9016,42.2117 22.8026,42.2117 C12.7036,42.2117 4.5166,34.0247 4.5166,23.9257 C4.5166,13.8267 12.7036,5.6397 22.8026,5.6397 C32.9016,5.6397 41.0886,13.8267 41.0886,23.9257" id="Fill-4" fill="url(#linearGradient-4)"></path>
                <path d="M38.863,23.9706 C38.863,32.7826 31.719,39.9256 22.908,39.9256 C14.096,39.9256 6.953,32.7826 6.953,23.9706 C6.953,15.1586 14.096,8.0156 22.908,8.0156 C31.719,8.0156 38.863,15.1586 38.863,23.9706" id="Fill-6" fill="#FFFFFF"></path>
                <path d="M10.0378,33.3022 C8.0628,30.5742 7.0188,27.3472 7.0188,23.9702 C7.0188,19.7562 8.6488,15.7832 11.6078,12.7842 L17.4868,18.5852 C16.0618,20.0292 15.2768,21.9412 15.2768,23.9702 C15.2768,25.5962 15.7788,27.1492 16.7268,28.4592 L10.0378,33.3022 Z" id="Fill-8" fill="url(#linearGradient-5)"></path>
                <path d="M36.1501,32.8784 L29.3071,28.2544 C30.1621,26.9904 30.6131,25.5084 30.6131,23.9704 C30.6131,21.9224 29.8161,19.9964 28.3681,18.5484 L34.2071,12.7084 C37.2151,15.7164 38.8721,19.7154 38.8721,23.9704 C38.8721,27.1624 37.9301,30.2424 36.1501,32.8784" id="Fill-10" fill="url(#linearGradient-6)"></path>
                <path d="M17.4865,18.5849 L11.6085,12.7839 C14.6245,9.7279 18.6515,8.0439 22.9455,8.0439 C27.1995,8.0439 31.1985,9.7009 34.2065,12.7089 L28.3675,18.5479 C26.9195,17.0999 24.9935,16.3019 22.9455,16.3019 C20.8775,16.3019 18.9395,17.1129 17.4865,18.5849" id="Fill-12" fill="url(#linearGradient-7)"></path>
                <path d="M22.6772327,25.4926616 C21.6992327,25.4926616 20.9062327,24.7006616 20.9062327,23.7226616 C20.9062327,22.7456616 21.6992327,21.9536616 22.6772327,21.9536616 C23.6542327,21.9536616 24.4472327,22.7456616 24.4472327,23.7226616 C24.4472327,24.7006616 23.6542327,25.4926616 22.6772327,25.4926616 M22.9102327,19.9986616 L22.9102327,19.9986616 C20.8732327,19.9986616 19.0472327,21.5246616 18.9402327,23.5586616 C18.8272327,25.7286616 20.5522327,27.5246616 22.6982327,27.5246616 C22.8432327,27.5246616 22.9822327,27.4976616 23.1232327,27.4816616 L23.2992327,27.4636616 C23.7202327,27.3956616 24.1132327,27.2546616 24.4752327,27.0586616 L36.2432327,23.0086616 L23.3302327,20.0466616 C23.1932327,20.0146616 23.0522327,19.9986616 22.9102327,19.9986616" id="Fill-14" fill="url(#linearGradient-8)"></path>
            </g>
        </g>
    </g>
</svg>