<?xml version="1.0" encoding="UTF-8"?>
<svg width="36px" height="25px" viewBox="0 0 36 25" version="1.1" xmlns="http://www.w3.org/2000/svg" xmlns:xlink="http://www.w3.org/1999/xlink">
    <title>607609D0-769B-420B-B94A-6D5DD894CB48</title>
    <g id="Page-1" stroke="none" stroke-width="1" fill="none" fill-rule="evenodd">
        <g id="Aspen-Mesh---Home-Page---Desktop" transform="translate(-151.000000, -3822.000000)" fill="#E50696" fill-rule="nonzero">
            <path d="M157.8,3847 C161.6,3847 164.6,3844 164.6,3839.8 C164.6,3837 163.4,3834.6 160.8,3833.4 L166.4,3822 L160.8,3822 L153.4,3833.4 C152,3835.6 151,3837.4 151,3839.8 C151,3844 154.2,3847 157.8,3847 Z M178.4,3847 C182.2,3847 185.2,3844 185.2,3839.8 C185.2,3837 184,3834.6 181.4,3833.4 L187,3822 L181.4,3822 L174,3833.4 C172.6,3835.6 171.6,3837.4 171.6,3839.8 C171.6,3844 174.8,3847 178.4,3847 Z" id="“"></path>
        </g>
    </g>
</svg>