<svg xmlns="http://www.w3.org/2000/svg" viewBox="0 0 710 260"><defs><style>.cls-1{fill:#fff;}.cls-10,.cls-12,.cls-13,.cls-14,.cls-2,.cls-3,.cls-4,.cls-5,.cls-6,.cls-7,.cls-9{fill:none;}.cls-2,.cls-3,.cls-4,.cls-5{stroke:#f36f4c;}.cls-11,.cls-13,.cls-2,.cls-3,.cls-4,.cls-5,.cls-6,.cls-7,.cls-9{stroke-miterlimit:10;}.cls-3{stroke-dasharray:3.03 3.03;}.cls-4{stroke-dasharray:3.06 3.06;}.cls-5{stroke-dasharray:3.09 3.09;}.cls-6{stroke:#2aaf4a;}.cls-10,.cls-11,.cls-12,.cls-13,.cls-14,.cls-7{stroke:#000;}.cls-10,.cls-12,.cls-14,.cls-7,.cls-9{stroke-linecap:round;}.cls-8{fill:#010101;}.cls-9{stroke:#343434;}.cls-10,.cls-12,.cls-14{stroke-linejoin:round;}.cls-12{stroke-width:0.75px;}.cls-14{stroke-dasharray:2.98 2.24;}.cls-15{font-size:12px;font-family:ProximaNova-Regular, Proxima Nova;letter-spacing:-0.05em;}.cls-16{letter-spacing:-0.09em;}.cls-17{letter-spacing:-0.05em;}</style></defs><g id="Layer_2" data-name="Layer 2"><g id="Layer_1-2" data-name="Layer 1"><rect class="cls-1" width="710" height="260"/><line class="cls-2" x1="173.16" y1="84.57" x2="171.66" y2="84.57"/><line class="cls-3" x1="168.63" y1="84.57" x2="121.65" y2="84.57"/><line class="cls-2" x1="120.13" y1="84.57" x2="118.63" y2="84.57"/><line class="cls-2" x1="267.2" y1="84.57" x2="265.7" y2="84.57"/><line class="cls-4" x1="262.64" y1="84.57" x2="215.19" y2="84.57"/><line class="cls-2" x1="213.66" y1="84.57" x2="212.16" y2="84.57"/><line class="cls-2" x1="555.44" y1="84.57" x2="553.94" y2="84.57"/><line class="cls-5" x1="550.85" y1="84.57" x2="515.26" y2="84.57"/><line class="cls-2" x1="513.71" y1="84.57" x2="512.21" y2="84.57"/><line class="cls-6" x1="389.95" y1="134.28" x2="389.95" y2="170.6"/><polyline class="cls-6" points="483.94 134.28 483.94 170.6 599.68 170.6"/><rect class="cls-7" x="555.02" y="46.12" width="130.06" height="80"/><rect class="cls-8" x="564.42" y="37.12" width="110.07" height="18"/><path class="cls-1" d="M580.22,48.37h-1.45l-.29,1.25H577l1.53-7.1h2l1.54,7.1h-1.54Zm-.72-4L579.05,47h.9Z"/><path class="cls-1" d="M587.32,44.46v.91a2,2,0,0,1-2.11,2h-.81v2.3h-1.55v-7.1h2.35A2,2,0,0,1,587.32,44.46Zm-1.55-.07a.44.44,0,0,0-.46-.47h-.91v2h.9a.44.44,0,0,0,.47-.48Z"/><path class="cls-1" d="M592.64,44.46v.91a2,2,0,0,1-2.11,2h-.82v2.3h-1.55v-7.1h2.36A2,2,0,0,1,592.64,44.46Zm-1.55-.07a.44.44,0,0,0-.46-.47h-.92v2h.91a.44.44,0,0,0,.47-.48Z"/><path class="cls-1" d="M597.16,48.22v1.4h-3.69v-7.1H595v5.7Z"/><path class="cls-1" d="M597.94,42.52h1.54v7.1h-1.54Z"/><path class="cls-1" d="M600.41,47.75V44.39a2.37,2.37,0,0,1,4.69,0v.89h-1.57v-.91c0-.36-.26-.6-.77-.6s-.8.24-.8.6v3.4c0,.36.27.6.79.6s.78-.24.78-.6v-.91h1.57v.89a2.37,2.37,0,0,1-4.69,0Z"/><path class="cls-1" d="M609,48.37h-1.45l-.29,1.25h-1.51l1.53-7.1h2l1.54,7.1h-1.54Zm-.72-4L607.79,47h.9Z"/><path class="cls-1" d="M615.32,43.92h-1.47v5.7H612.3v-5.7h-1.48v-1.4h4.5Z"/><path class="cls-1" d="M616.08,42.52h1.55v7.1h-1.55Z"/><path class="cls-1" d="M618.55,47.75V44.39c-.18-2.65,4.89-2.65,4.72,0v3.36C623.45,50.4,618.37,50.39,618.55,47.75Zm3.17,0v-3.4c.12-.8-1.75-.78-1.62,0v3.4C620,48.56,621.85,48.56,621.72,47.77Z"/><path class="cls-1" d="M628.76,42.52v7.1H627.4l-1.85-4v4H624.2v-7.1h1.35l1.85,4.06V42.52Z"/><path class="cls-1" d="M631.69,47.52v-.28h1.55v.44a.74.74,0,0,0,.83.73.68.68,0,0,0,.72-.69c0-1.27-3-1-3-3.27A2,2,0,0,1,634,42.37a1.94,1.94,0,0,1,2.21,2v.44H634.7v-.54c0-.31-.3-.49-.67-.49a.59.59,0,0,0-.65.6c0,1,3,.79,3,3.21A2.1,2.1,0,0,1,634,49.77,2.15,2.15,0,0,1,631.69,47.52Z"/><path class="cls-1" d="M638.78,43.92v1.55h1.72v1.4h-1.72v1.35h2.12v1.4h-3.67v-7.1h3.67v1.4Z"/><path class="cls-1" d="M644,47.06h-.74v2.56h-1.55v-7.1h2.36a2,2,0,0,1,2.12,1.94v.66a1.86,1.86,0,0,1-.71,1.5l.92,3H644.8Zm-.74-1.4h.91a.44.44,0,0,0,.47-.47v-.8a.43.43,0,0,0-.46-.47h-.92Z"/><path class="cls-1" d="M651.88,42.52l-1.5,7.1h-2l-1.49-7.1h1.55l1,4.87,1-4.87Z"/><path class="cls-1" d="M654.22,43.92v1.55h1.72v1.4h-1.72v1.35h2.12v1.4h-3.67v-7.1h3.67v1.4Z"/><path class="cls-1" d="M659.46,47.06h-.74v2.56h-1.55v-7.1h2.36a2,2,0,0,1,2.12,1.94v.66a1.86,1.86,0,0,1-.71,1.5l.92,3h-1.62Zm-.74-1.4h.91a.44.44,0,0,0,.47-.47v-.8a.43.43,0,0,0-.46-.47h-.92Z"/><path d="M24.92,131.48h1.14l1.29,3.59,1.29-3.59h1.14L28,136.15H26.73Z"/><path d="M30.35,131.8a.54.54,0,1,1,.53.54A.54.54,0,0,1,30.35,131.8Zm.09,1h.89v3.38h-.89Z"/><path d="M32.5,135.09a2,2,0,0,0,1.17.46c.39,0,.57-.13.57-.34s-.3-.32-.68-.4c-.58-.11-1.33-.25-1.33-1.06,0-.57.5-1.06,1.39-1.06a2.14,2.14,0,0,1,1.36.46l-.36.61a1.39,1.39,0,0,0-1-.39c-.32,0-.53.11-.53.31s.27.29.64.37c.59.11,1.36.26,1.36,1.1,0,.62-.52,1.09-1.46,1.09a2.25,2.25,0,0,1-1.51-.53Z"/><path d="M35.83,131.8a.54.54,0,0,1,.54-.53.54.54,0,0,1,0,1.07A.54.54,0,0,1,35.83,131.8Zm.09,1h.89v3.38h-.89Z"/><path d="M38.05,135.31v-1.76h-.56v-.78h.56v-.92H39v.92h.68v.78H39v1.52c0,.21.11.38.31.38a.46.46,0,0,0,.3-.1l.19.67a1.08,1.08,0,0,1-.74.22A.85.85,0,0,1,38.05,135.31Z"/><path d="M40.21,134.46c-.15-2.31,3.72-2.3,3.57,0C43.93,136.76,40.06,136.77,40.21,134.46Zm2.65,0a.87.87,0,1,0-1.73,0A.87.87,0,1,0,42.86,134.46Z"/><path d="M44.63,132.77h.89v.46a1.46,1.46,0,0,1,1.08-.54v.87a1.42,1.42,0,0,0-.24,0,1.14,1.14,0,0,0-.84.39v2.23h-.89Z"/><path d="M49.18,135.09a1.93,1.93,0,0,0,1.17.46c.38,0,.56-.13.56-.34s-.29-.32-.68-.4c-.58-.11-1.33-.25-1.33-1.06,0-.57.5-1.06,1.39-1.06a2.17,2.17,0,0,1,1.37.46l-.36.61a1.41,1.41,0,0,0-1-.39c-.32,0-.53.11-.53.31s.26.29.64.37c.58.11,1.36.26,1.36,1.1,0,.62-.53,1.09-1.47,1.09a2.29,2.29,0,0,1-1.51-.53Z"/><path d="M54.14,132.69a1.69,1.69,0,0,1,1.7,1.86v.2H53.33a.9.9,0,0,0,1,.78,1.39,1.39,0,0,0,.9-.34l.39.58a2.07,2.07,0,0,1-1.39.47,1.78,1.78,0,1,1-.06-3.55Zm-.83,1.45H55a.79.79,0,0,0-.84-.75A.82.82,0,0,0,53.31,134.14Z"/><path d="M59,134.11c0-.47-.24-.63-.62-.63a1,1,0,0,0-.77.4v2.27h-.89v-3.38h.89v.44a1.55,1.55,0,0,1,1.18-.52,1,1,0,0,1,1.1,1.07v2.39H59Z"/><path d="M63.23,135.72a1.33,1.33,0,0,1-1,.52c-.86,0-1.5-.65-1.5-1.77s.64-1.78,1.5-1.78a1.29,1.29,0,0,1,1,.51v-1.72h.9v4.67h-.9Zm0-1.86a1,1,0,0,0-.77-.38,1,1,0,0,0,0,2,1,1,0,0,0,.77-.39Z"/><path d="M65.3,135.09a2,2,0,0,0,1.17.46c.39,0,.57-.13.57-.34s-.29-.32-.68-.4c-.58-.11-1.33-.25-1.33-1.06,0-.57.5-1.06,1.39-1.06a2.12,2.12,0,0,1,1.36.46l-.35.61a1.44,1.44,0,0,0-1-.39c-.32,0-.53.11-.53.31s.27.29.65.37c.58.11,1.35.26,1.35,1.1,0,.62-.52,1.09-1.46,1.09a2.27,2.27,0,0,1-1.51-.53Z"/><path d="M70.48,132.77h.89v.46a1.46,1.46,0,0,1,1.08-.54v.87a1.42,1.42,0,0,0-.24,0,1.14,1.14,0,0,0-.84.39v2.23h-.89Z"/><path d="M74.7,132.69a1.69,1.69,0,0,1,1.7,1.86v.2H73.88a.92.92,0,0,0,1,.78,1.39,1.39,0,0,0,.9-.34l.39.58a2.09,2.09,0,0,1-1.39.47,1.78,1.78,0,1,1-.06-3.55Zm-.83,1.45h1.67a.79.79,0,0,0-.84-.75A.82.82,0,0,0,73.87,134.14Z"/><path d="M79.57,137.44v-1.72a1.28,1.28,0,0,1-1,.52c-.86,0-1.49-.65-1.49-1.78s.63-1.77,1.49-1.77a1.29,1.29,0,0,1,1,.51v-.43h.9v4.67Zm0-3.58a1,1,0,0,0-.76-.38,1,1,0,0,0,0,2,1,1,0,0,0,.76-.39Z"/><path d="M83.8,135.73a1.62,1.62,0,0,1-1.19.51,1,1,0,0,1-1.09-1.07v-2.4h.89v2c0,.47.24.63.62.63a1,1,0,0,0,.77-.39v-2.29h.89v3.38H83.8Z"/><path d="M87.29,132.69a1.69,1.69,0,0,1,1.7,1.86v.2H86.47a.92.92,0,0,0,1,.78,1.39,1.39,0,0,0,.9-.34l.39.58a2.09,2.09,0,0,1-1.39.47,1.78,1.78,0,1,1-.06-3.55Zm-.83,1.45h1.67a.8.8,0,0,0-.84-.75A.82.82,0,0,0,86.46,134.14Z"/><path d="M89.9,135.09a2,2,0,0,0,1.17.46c.39,0,.57-.13.57-.34s-.3-.32-.68-.4c-.58-.11-1.33-.25-1.33-1.06,0-.57.5-1.06,1.39-1.06a2.12,2.12,0,0,1,1.36.46l-.36.61a1.39,1.39,0,0,0-1-.39c-.32,0-.53.11-.53.31s.27.29.64.37c.59.11,1.36.26,1.36,1.1,0,.62-.52,1.09-1.46,1.09a2.25,2.25,0,0,1-1.51-.53Z"/><path d="M93.56,135.31v-1.76H93v-.78h.56v-.92h.89v.92h.69v.78h-.69v1.52a.34.34,0,0,0,.31.38.49.49,0,0,0,.31-.1l.19.67a1.08,1.08,0,0,1-.74.22A.85.85,0,0,1,93.56,135.31Z"/><path d="M97.85,135.31v-1.76h-.56v-.78h.56v-.92h.9v.92h.69v.78h-.69v1.52c0,.21.11.38.31.38a.49.49,0,0,0,.31-.1l.19.67a1.11,1.11,0,0,1-.75.22A.85.85,0,0,1,97.85,135.31Z"/><path d="M100,134.46c-.14-2.31,3.72-2.3,3.58,0C103.73,136.76,99.87,136.77,100,134.46Zm2.65,0a.87.87,0,1,0-1.73,0A.87.87,0,1,0,102.66,134.46Z"/><path d="M108.21,135.8a1.41,1.41,0,0,1-1.08.44,1.12,1.12,0,0,1-1.17-1.12,1.06,1.06,0,0,1,1.17-1.08,1.4,1.4,0,0,1,1.08.41V134c0-.34-.3-.57-.75-.57a1.47,1.47,0,0,0-1,.4l-.33-.59a2.17,2.17,0,0,1,1.48-.53c.77,0,1.47.3,1.47,1.28v2.18h-.88Zm0-.88a.89.89,0,0,0-.72-.29c-.35,0-.64.18-.64.51s.29.5.64.5a.89.89,0,0,0,.72-.3Z"/><path d="M110.14,137.44v-4.67H111v.43a1.31,1.31,0,0,1,1-.51c.86,0,1.49.64,1.49,1.77s-.63,1.78-1.49,1.78a1.3,1.3,0,0,1-1-.52v1.72Zm1.66-4a1,1,0,0,0-.77.38v1.2a1,1,0,0,0,.77.39,1,1,0,0,0,0-2Z"/><path d="M114.45,137.44v-4.67h.89v.43a1.29,1.29,0,0,1,1-.51c.87,0,1.5.64,1.5,1.77s-.63,1.78-1.5,1.78a1.28,1.28,0,0,1-1-.52v1.72Zm1.65-4a1,1,0,0,0-.76.38v1.2a1,1,0,0,0,.76.39,1,1,0,0,0,0-2Z"/><path d="M118.75,131.48h.89v4.67h-.89Z"/><path d="M120.6,131.8a.54.54,0,1,1,.53.54A.54.54,0,0,1,120.6,131.8Zm.09,1h.89v3.38h-.89Z"/><path d="M124.2,132.69a1.56,1.56,0,0,1,1.34.61l-.58.54a.81.81,0,0,0-.71-.36,1,1,0,0,0,0,2,.87.87,0,0,0,.71-.37l.58.54a1.54,1.54,0,0,1-1.34.62,1.78,1.78,0,1,1,0-3.55Z"/><path d="M128.36,135.8a1.38,1.38,0,0,1-1.07.44,1.13,1.13,0,0,1-1.18-1.12,1.07,1.07,0,0,1,1.18-1.08,1.38,1.38,0,0,1,1.07.41V134c0-.34-.3-.57-.74-.57a1.45,1.45,0,0,0-1,.4l-.34-.59a2.21,2.21,0,0,1,1.48-.53c.77,0,1.48.3,1.48,1.28v2.18h-.89Zm0-.88a.89.89,0,0,0-.72-.29c-.34,0-.63.18-.63.51s.29.5.63.5a.89.89,0,0,0,.72-.3Z"/><path d="M130.47,135.31v-1.76h-.56v-.78h.56v-.92h.9v.92h.68v.78h-.68v1.52c0,.21.11.38.3.38a.47.47,0,0,0,.31-.1l.19.67a1.08,1.08,0,0,1-.74.22A.85.85,0,0,1,130.47,135.31Z"/><path d="M132.79,131.8a.54.54,0,1,1,.53.54A.54.54,0,0,1,132.79,131.8Zm.09,1h.89v3.38h-.89Z"/><path d="M134.6,134.46a1.79,1.79,0,1,1,1.78,1.78A1.71,1.71,0,0,1,134.6,134.46Zm2.65,0a.87.87,0,1,0-.87,1A.89.89,0,0,0,137.25,134.46Z"/><path d="M141.31,134.11c.05-.88-1.11-.72-1.39-.23v2.27H139v-3.38h.89v.44c2.38-1.92,2.43,1.35,2.28,2.94h-.89Z"/><path d="M163.52,23.92h3.3v.85h-2.31v1h2.26v.85h-2.26v1.95h-1Z"/><path d="M168.1,27.3a1.68,1.68,0,0,0,1.24.5c.56,0,.87-.31.87-.7s-.31-.71-.84-.71a1.34,1.34,0,0,0-1,.39l-.69-.19V23.92h3.21v.85h-2.24v1.17a1.6,1.6,0,0,1,1.05-.39,1.46,1.46,0,0,1,1.5,1.51c0,1-.74,1.61-1.87,1.61a2.32,2.32,0,0,1-1.8-.7Z"/><path d="M173.84,29.88V25.21h.89v.42a1.29,1.29,0,0,1,1-.51c.87,0,1.5.65,1.5,1.77s-.63,1.78-1.5,1.78a1.26,1.26,0,0,1-1-.52v1.73Zm1.65-4a1,1,0,0,0-.76.39v1.2a1,1,0,0,0,.76.38,1,1,0,0,0,0-2Z"/><path d="M178.14,25.21H179v.46a1.46,1.46,0,0,1,1.08-.54V26a.85.85,0,0,0-.25,0,1.16,1.16,0,0,0-.83.38v2.24h-.89Z"/><path d="M180.61,26.89c-.14-2.3,3.73-2.29,3.58,0C184.34,29.2,180.47,29.21,180.61,26.89Zm2.66,0a.87.87,0,1,0-1.73,0A.87.87,0,1,0,183.27,26.89Z"/><path d="M186.28,27.45l-.78,1.14h-1l1.2-1.74-1.13-1.64h1l.7,1,.69-1h1l-1.14,1.64L188,28.59h-1Z"/><path d="M188.6,24.24a.53.53,0,1,1,.53.53A.53.53,0,0,1,188.6,24.24Zm.09,1h.89v3.38h-.89Z"/><path d="M192.15,25.12a1.7,1.7,0,0,1,1.7,1.86v.2h-2.52a.92.92,0,0,0,1,.79,1.39,1.39,0,0,0,.9-.34l.39.57a2.09,2.09,0,0,1-1.39.47,1.78,1.78,0,1,1-.06-3.55Zm-.83,1.46H193a.79.79,0,0,0-.84-.75A.81.81,0,0,0,191.32,26.58Z"/><path d="M194.76,27.52a1.9,1.9,0,0,0,1.17.47c.39,0,.57-.14.57-.35s-.29-.32-.68-.4c-.58-.11-1.33-.25-1.33-1,0-.57.5-1.07,1.39-1.07a2.18,2.18,0,0,1,1.36.46l-.35.61a1.48,1.48,0,0,0-1-.39c-.32,0-.53.12-.53.32s.27.28.65.36c.58.11,1.36.27,1.36,1.11,0,.61-.53,1.08-1.47,1.08a2.26,2.26,0,0,1-1.51-.52Z"/><path d="M199.94,25.21h.89v.46a1.46,1.46,0,0,1,1.08-.54V26a.83.83,0,0,0-.24,0,1.16,1.16,0,0,0-.84.38v2.24h-.89Z"/><path d="M204.16,25.12a1.7,1.7,0,0,1,1.7,1.86v.2h-2.52a.92.92,0,0,0,1,.79,1.39,1.39,0,0,0,.9-.34l.39.57a2.09,2.09,0,0,1-1.39.47,1.78,1.78,0,1,1-.06-3.55Zm-.83,1.46H205a.79.79,0,0,0-.84-.75A.81.81,0,0,0,203.33,26.58Z"/><path d="M209,29.88V28.15a1.26,1.26,0,0,1-1,.52c-.86,0-1.49-.65-1.49-1.78s.63-1.77,1.49-1.77a1.29,1.29,0,0,1,1,.51v-.42h.9v4.67Zm0-3.58a1,1,0,0,0-.76-.39,1,1,0,0,0,0,2,1,1,0,0,0,.76-.38Z"/><path d="M213.26,28.16a1.58,1.58,0,0,1-1.19.51A1,1,0,0,1,211,27.61v-2.4h.89v2.05c0,.47.24.62.62.62a1,1,0,0,0,.77-.38V25.21h.89v3.38h-.89Z"/><path d="M216.75,25.12a1.7,1.7,0,0,1,1.7,1.86v.2h-2.52a.92.92,0,0,0,1,.79,1.39,1.39,0,0,0,.9-.34l.39.57a2.09,2.09,0,0,1-1.39.47,1.78,1.78,0,1,1-.06-3.55Zm-.83,1.46h1.67a.79.79,0,0,0-.84-.75A.81.81,0,0,0,215.92,26.58Z"/><path d="M219.36,27.52a1.9,1.9,0,0,0,1.17.47c.39,0,.57-.14.57-.35s-.29-.32-.68-.4c-.58-.11-1.33-.25-1.33-1,0-.57.5-1.07,1.39-1.07a2.18,2.18,0,0,1,1.36.46l-.36.61a1.43,1.43,0,0,0-1-.39c-.32,0-.53.12-.53.32s.27.28.65.36c.58.11,1.35.27,1.35,1.11,0,.61-.52,1.08-1.46,1.08a2.26,2.26,0,0,1-1.51-.52Z"/><path d="M223,27.75V26h-.56v-.77H223v-.93h.89v.93h.69V26h-.69v1.53a.33.33,0,0,0,.31.37.47.47,0,0,0,.31-.1l.19.68a1.14,1.14,0,0,1-.74.21A.84.84,0,0,1,223,27.75Z"/><path d="M176.47,35.24a1.41,1.41,0,0,1-1.07.43,1.12,1.12,0,0,1-1.17-1.12,1.07,1.07,0,0,1,1.17-1.08,1.34,1.34,0,0,1,1.07.42v-.47c0-.35-.29-.57-.74-.57a1.43,1.43,0,0,0-1,.4l-.33-.6a2.22,2.22,0,0,1,1.48-.53c.77,0,1.47.31,1.47,1.28v2.19h-.89Zm0-.88a.86.86,0,0,0-.71-.3c-.35,0-.64.18-.64.51s.29.5.64.5a.88.88,0,0,0,.71-.29Z"/><path d="M180.69,33.54c0-.47-.24-.63-.62-.63a1,1,0,0,0-.77.4v2.28h-.89V32.21h.89v.44a1.55,1.55,0,0,1,1.18-.53,1,1,0,0,1,1.1,1.08v2.39h-.89Z"/><path d="M185,35.15a1.31,1.31,0,0,1-1,.52c-.86,0-1.5-.64-1.5-1.77s.63-1.78,1.5-1.78a1.33,1.33,0,0,1,1,.52V30.92h.9v4.67H185Zm0-1.85a1,1,0,0,0-.77-.39,1,1,0,0,0,0,2,1,1,0,0,0,.77-.38Z"/><path d="M190.26,32.12a1.56,1.56,0,0,1,1.34.61l-.58.55a.82.82,0,0,0-.71-.37,1,1,0,0,0,0,2,.86.86,0,0,0,.71-.36l.58.54a1.56,1.56,0,0,1-1.34.61,1.78,1.78,0,1,1,0-3.55Z"/><path d="M192.07,33.89c-.14-2.3,3.72-2.29,3.58,0C195.79,36.2,191.92,36.21,192.07,33.89Zm2.65,0a.87.87,0,1,0-1.73,0A.87.87,0,1,0,194.72,33.89Z"/><path d="M196.49,30.92h.89v4.67h-.89Z"/><path d="M198.43,30.92h.89v4.67h-.89Z"/><path d="M201.91,32.12a1.7,1.7,0,0,1,1.7,1.86v.2h-2.52a.92.92,0,0,0,1,.79,1.39,1.39,0,0,0,.9-.34l.39.57a2.09,2.09,0,0,1-1.39.47,1.78,1.78,0,1,1-.06-3.55Zm-.83,1.46h1.67a.8.8,0,0,0-.84-.75A.81.81,0,0,0,201.08,33.58Z"/><path d="M206,32.12a1.55,1.55,0,0,1,1.33.61l-.58.55a.81.81,0,0,0-.71-.37,1,1,0,0,0,0,2,.85.85,0,0,0,.71-.36l.58.54a1.55,1.55,0,0,1-1.33.61,1.78,1.78,0,1,1,0-3.55Z"/><path d="M208.45,34.75V33h-.56v-.77h.56v-.93h.89v.93H210V33h-.69v1.53c0,.21.11.37.31.37a.49.49,0,0,0,.31-.1l.19.68a1.14,1.14,0,0,1-.74.21A.84.84,0,0,1,208.45,34.75Z"/><path d="M211,34.52a1.9,1.9,0,0,0,1.17.47c.39,0,.57-.14.57-.35s-.29-.32-.68-.4c-.58-.11-1.33-.25-1.33-1.05,0-.57.5-1.07,1.39-1.07a2.18,2.18,0,0,1,1.36.46l-.35.61a1.48,1.48,0,0,0-1-.39c-.32,0-.53.12-.53.32s.27.28.65.36c.58.11,1.35.27,1.35,1.11,0,.61-.52,1.08-1.46,1.08a2.25,2.25,0,0,1-1.51-.52Z"/><path d="M178.56,41.75V40H178v-.77h.56v-.93h.9v.93h.68V40h-.68v1.53c0,.21.11.37.3.37a.47.47,0,0,0,.31-.1l.19.68a1.14,1.14,0,0,1-.74.21A.85.85,0,0,1,178.56,41.75Z"/><path d="M182.46,39.12a1.7,1.7,0,0,1,1.7,1.86v.2h-2.52a.92.92,0,0,0,1,.79,1.39,1.39,0,0,0,.9-.34l.39.57a2.09,2.09,0,0,1-1.39.47,1.78,1.78,0,1,1-.06-3.55Zm-.83,1.46h1.67a.79.79,0,0,0-.84-.75A.81.81,0,0,0,181.63,40.58Z"/><path d="M185,37.92h.89v4.67H185Z"/><path d="M188.48,39.12a1.7,1.7,0,0,1,1.7,1.86v.2h-2.52a.92.92,0,0,0,1,.79,1.4,1.4,0,0,0,.91-.34l.39.57a2.11,2.11,0,0,1-1.39.47,1.78,1.78,0,1,1-.06-3.55Zm-.83,1.46h1.66a.78.78,0,0,0-.83-.75A.81.81,0,0,0,187.65,40.58Z"/><path d="M195.2,40.45c0-.31-.14-.54-.5-.54a.87.87,0,0,0-.7.4v2.28h-.9V40.45c0-.31-.14-.54-.5-.54a.9.9,0,0,0-.7.4v2.28H191V39.21h.89v.44a1.44,1.44,0,0,1,1.1-.53.89.89,0,0,1,.94.62,1.45,1.45,0,0,1,1.16-.62.9.9,0,0,1,1,1v2.45h-.9Z"/><path d="M198.69,39.12a1.7,1.7,0,0,1,1.7,1.86v.2h-2.52a.92.92,0,0,0,1,.79,1.39,1.39,0,0,0,.9-.34l.39.57a2.07,2.07,0,0,1-1.39.47,1.78,1.78,0,1,1-.06-3.55Zm-.83,1.46h1.67a.79.79,0,0,0-.84-.75A.81.81,0,0,0,197.86,40.58Z"/><path d="M201.41,41.75V40h-.56v-.77h.56v-.93h.9v.93H203V40h-.68v1.53c0,.21.11.37.31.37a.46.46,0,0,0,.3-.1l.19.68a1.14,1.14,0,0,1-.74.21A.85.85,0,0,1,201.41,41.75Z"/><path d="M203.84,39.21h.88v.46a1.46,1.46,0,0,1,1.08-.54V40a.78.78,0,0,0-.24,0,1.16,1.16,0,0,0-.84.38v2.24h-.88Z"/><path d="M207,43.17c.24,0,.39-.06.47-.24l.13-.29-1.37-3.43h.95l.88,2.35.88-2.35h1l-1.59,3.93a1.22,1.22,0,0,1-1.28.82,2.28,2.28,0,0,1-.44-.05l.13-.8A.71.71,0,0,0,207,43.17Z"/><line class="cls-9" x1="104.18" y1="125.5" x2="63.29" y2="125.5"/><line class="cls-9" x1="83.74" y1="119.81" x2="83.74" y2="125.5"/><path d="M237.68,189.35H237V191h-1v-4.67h2.18a1.45,1.45,0,0,1,1.57,1.51,1.33,1.33,0,0,1-1,1.38l1.05,1.78H238.6Zm.32-2.14H237v1.29H238a.65.65,0,0,0,.7-.65A.64.64,0,0,0,238,187.21Z"/><path d="M242.11,187.56a1.69,1.69,0,0,1,1.69,1.86v.2h-2.51a.91.91,0,0,0,1,.78,1.4,1.4,0,0,0,.91-.34l.39.58a2.11,2.11,0,0,1-1.4.47,1.78,1.78,0,0,1,0-3.55Zm-.83,1.45h1.66a.78.78,0,0,0-.83-.75A.82.82,0,0,0,241.28,189Z"/><path d="M248.83,188.89c0-.32-.14-.54-.5-.54a.88.88,0,0,0-.7.39V191h-.9v-2.13c0-.32-.14-.54-.51-.54a.93.93,0,0,0-.7.4V191h-.89v-3.38h.89v.44a1.49,1.49,0,0,1,1.11-.52.9.9,0,0,1,.94.61,1.42,1.42,0,0,1,1.16-.61.9.9,0,0,1,1,1V191h-.9Z"/><path d="M250.57,189.33c-.14-2.3,3.72-2.3,3.58,0C254.29,191.64,250.43,191.64,250.57,189.33Zm2.65,0a.87.87,0,1,0-1.73,0A.87.87,0,1,0,253.22,189.33Z"/><path d="M254.43,187.64h1l.88,2.35.88-2.35h1L256.75,191h-1Z"/><path d="M260.15,187.56a1.69,1.69,0,0,1,1.69,1.86v.2h-2.51a.91.91,0,0,0,1,.78,1.35,1.35,0,0,0,.9-.34l.4.58a2.11,2.11,0,0,1-1.4.47,1.78,1.78,0,0,1-.05-3.55Zm-.84,1.45H261a.79.79,0,0,0-.83-.75A.83.83,0,0,0,259.31,189Z"/><path d="M266.7,190.6a1.58,1.58,0,0,1-1.19.51,1,1,0,0,1-1.09-1.07v-2.4h.89v2.05c0,.47.24.63.62.63a1,1,0,0,0,.77-.39v-2.29h.89V191h-.89Z"/><path d="M270.92,189c0-.47-.24-.63-.62-.63a1,1,0,0,0-.77.4V191h-.89v-3.38h.89v.44a1.55,1.55,0,0,1,1.18-.52,1,1,0,0,1,1.1,1.08V191h-.89Z"/><path d="M275.09,188.72l-.72,2.3h-.95l-1-3.38h.93l.63,2.28.74-2.28h.79l.74,2.28.63-2.28h.93l-1,3.38h-.95Z"/><path d="M280.43,190.67a1.38,1.38,0,0,1-1.07.44,1.13,1.13,0,0,1-1.18-1.12,1.08,1.08,0,0,1,1.18-1.08,1.36,1.36,0,0,1,1.07.41v-.47c0-.34-.29-.56-.74-.56a1.44,1.44,0,0,0-1,.39l-.34-.59a2.21,2.21,0,0,1,1.48-.53c.77,0,1.48.3,1.48,1.28V191h-.89Zm0-.88a.91.91,0,0,0-.71-.29c-.35,0-.64.18-.64.51s.29.5.64.5a.89.89,0,0,0,.71-.3Z"/><path d="M284.65,189c0-.47-.24-.63-.62-.63a.93.93,0,0,0-.77.4V191h-.89v-3.38h.89v.44a1.53,1.53,0,0,1,1.18-.52,1,1,0,0,1,1.1,1.08V191h-.89Z"/><path d="M286.77,190.18v-1.76h-.56v-.78h.56v-.92h.9v.92h.69v.78h-.69v1.52c0,.21.11.38.31.38a.49.49,0,0,0,.31-.1l.19.67a1.11,1.11,0,0,1-.75.22A.85.85,0,0,1,286.77,190.18Z"/><path d="M290.68,187.56a1.69,1.69,0,0,1,1.69,1.86v.2h-2.51a.92.92,0,0,0,1,.78,1.4,1.4,0,0,0,.91-.34l.39.58a2.11,2.11,0,0,1-1.4.47,1.78,1.78,0,0,1-.05-3.55Zm-.83,1.45h1.66a.78.78,0,0,0-.83-.75A.82.82,0,0,0,289.85,189Z"/><path d="M295.55,190.59a1.28,1.28,0,0,1-1,.52c-.86,0-1.5-.65-1.5-1.77s.64-1.78,1.5-1.78a1.29,1.29,0,0,1,1,.51v-1.72h.9V191h-.9Zm0-1.86a1,1,0,0,0-.77-.38,1,1,0,0,0,0,2,1,1,0,0,0,.77-.39Z"/><path d="M301.29,190.67a1.38,1.38,0,0,1-1.07.44A1.13,1.13,0,0,1,299,190a1.08,1.08,0,0,1,1.18-1.08,1.36,1.36,0,0,1,1.07.41v-.47c0-.34-.29-.56-.74-.56a1.46,1.46,0,0,0-1,.39l-.33-.59a2.17,2.17,0,0,1,1.47-.53c.77,0,1.48.3,1.48,1.28V191h-.89Zm0-.88a.88.88,0,0,0-.71-.29c-.35,0-.64.18-.64.51s.29.5.64.5a.86.86,0,0,0,.71-.3Z"/><path d="M305.5,190.6a1.58,1.58,0,0,1-1.19.51,1,1,0,0,1-1.1-1.07v-2.4h.89v2.05a.55.55,0,0,0,.63.63,1,1,0,0,0,.77-.39v-2.29h.89V191h-.89Z"/><path d="M307.66,190.18v-1.76h-.56v-.78h.56v-.92h.9v.92h.69v.78h-.69v1.52c0,.21.11.38.31.38a.49.49,0,0,0,.31-.1l.18.67a1.08,1.08,0,0,1-.74.22A.85.85,0,0,1,307.66,190.18Z"/><path d="M309.82,189.33c-.14-2.3,3.72-2.3,3.57,0C313.54,191.64,309.67,191.64,309.82,189.33Zm2.65,0a.87.87,0,1,0-1.73,0A.87.87,0,1,0,312.47,189.33Z"/><path d="M318.44,188.89c0-.32-.14-.54-.51-.54a.92.92,0,0,0-.7.39V191h-.89v-2.13c0-.32-.14-.54-.51-.54a.93.93,0,0,0-.7.4V191h-.89v-3.38h.89v.44a1.49,1.49,0,0,1,1.11-.52.9.9,0,0,1,.94.61,1.41,1.41,0,0,1,1.16-.61.91.91,0,0,1,1,1V191h-.9Z"/><path d="M322.43,190.67a1.38,1.38,0,0,1-1.07.44,1.13,1.13,0,0,1-1.18-1.12,1.08,1.08,0,0,1,1.18-1.08,1.36,1.36,0,0,1,1.07.41v-.47c0-.34-.29-.56-.74-.56a1.46,1.46,0,0,0-1,.39l-.33-.59a2.17,2.17,0,0,1,1.47-.53c.77,0,1.48.3,1.48,1.28V191h-.89Zm0-.88a.91.91,0,0,0-.71-.29c-.35,0-.64.18-.64.51s.29.5.64.5a.89.89,0,0,0,.71-.3Z"/><path d="M324.54,190.18v-1.76H324v-.78h.56v-.92h.9v.92h.69v.78h-.69v1.52c0,.21.11.38.31.38a.49.49,0,0,0,.31-.1l.18.67a1.08,1.08,0,0,1-.74.22A.85.85,0,0,1,324.54,190.18Z"/><path d="M326.86,186.67a.54.54,0,0,1,.54-.53.54.54,0,0,1,0,1.07A.54.54,0,0,1,326.86,186.67Zm.1,1h.89V191H327Z"/><path d="M328.67,189.33a1.79,1.79,0,1,1,1.79,1.78A1.71,1.71,0,0,1,328.67,189.33Zm2.66,0a.89.89,0,0,0-.87-1,1,1,0,0,0,0,2A.9.9,0,0,0,331.33,189.33Z"/><path d="M335.38,189c.05-.89-1.1-.72-1.39-.23V191h-.89v-3.38H334v.44c2.38-1.92,2.44,1.35,2.28,2.94h-.89Z"/><path d="M245.47,196.61a2.06,2.06,0,0,0,1.48.63c.55,0,.81-.26.81-.53s-.4-.47-.94-.59c-.76-.18-1.75-.39-1.75-1.43,0-.78.68-1.41,1.78-1.41a2.63,2.63,0,0,1,1.82.65l-.56.73a2,2,0,0,0-1.33-.51c-.45,0-.69.2-.69.48s.39.41.93.54c.77.17,1.75.4,1.75,1.44,0,.85-.61,1.5-1.87,1.5a2.66,2.66,0,0,1-2-.74Z"/><path d="M249.77,197.18v-1.76h-.56v-.78h.56v-.92h.9v.92h.69v.78h-.69v1.52c0,.21.11.38.31.38a.49.49,0,0,0,.31-.1l.18.67a1.08,1.08,0,0,1-.74.22A.85.85,0,0,1,249.77,197.18Z"/><path d="M251.92,196.33c-.14-2.3,3.72-2.3,3.58,0C255.64,198.64,251.78,198.64,251.92,196.33Zm2.66,0a.87.87,0,1,0-1.73,0A.87.87,0,1,0,254.58,196.33Z"/><path d="M256.35,199.31v-4.67h.89v.43a1.3,1.3,0,0,1,1-.51c.87,0,1.5.64,1.5,1.77s-.63,1.78-1.5,1.78a1.28,1.28,0,0,1-1-.52v1.72Zm1.65-4a1,1,0,0,0-.76.38v1.2a1,1,0,0,0,.76.39,1,1,0,0,0,0-2Z"/><path d="M264.67,196c0-.46-.25-.61-.63-.61a1,1,0,0,0-.77.4V198h-.89v-4.67h.89v1.73a1.54,1.54,0,0,1,1.19-.52,1,1,0,0,1,1.1,1.06V198h-.89Z"/><path d="M268.88,197.6a1.58,1.58,0,0,1-1.19.51A1,1,0,0,1,266.6,197v-2.4h.89v2.05c0,.47.24.63.62.63a1,1,0,0,0,.77-.39v-2.29h.89V198h-.89Z"/><path d="M275,195.89c0-.32-.14-.54-.51-.54a.92.92,0,0,0-.7.39V198h-.89v-2.13c0-.32-.14-.54-.51-.54a.93.93,0,0,0-.7.4V198h-.89v-3.38h.89v.44a1.49,1.49,0,0,1,1.11-.52.9.9,0,0,1,.94.61,1.41,1.41,0,0,1,1.16-.61.91.91,0,0,1,1,1V198H275Z"/><path d="M279,197.67a1.38,1.38,0,0,1-1.07.44,1.13,1.13,0,0,1-1.18-1.12,1.08,1.08,0,0,1,1.18-1.08,1.39,1.39,0,0,1,1.07.41v-.47c0-.34-.3-.56-.74-.56a1.44,1.44,0,0,0-1,.39l-.34-.59a2.19,2.19,0,0,1,1.48-.53c.77,0,1.48.3,1.48,1.28V198H279Zm0-.88a.92.92,0,0,0-.72-.29c-.35,0-.63.18-.63.51s.28.5.63.5a.89.89,0,0,0,.72-.3Z"/><path d="M283.23,196a.55.55,0,0,0-.63-.63,1,1,0,0,0-.77.4V198h-.89v-3.38h.89v.44a1.55,1.55,0,0,1,1.19-.52,1,1,0,0,1,1.1,1.08V198h-.89Z"/><path d="M285,196h1.68v.76H285Z"/><path d="M290.06,197.59a1.3,1.3,0,0,1-1,.52c-.86,0-1.5-.65-1.5-1.77s.64-1.78,1.5-1.78a1.29,1.29,0,0,1,1,.51v-1.72h.9V198h-.9Zm0-1.86a1,1,0,0,0-.77-.38,1,1,0,0,0,0,2,1,1,0,0,0,.77-.39Z"/><path d="M292,194.64h.89v.46a1.46,1.46,0,0,1,1.08-.54v.87a1.42,1.42,0,0,0-.25,0,1.13,1.13,0,0,0-.83.39V198H292Z"/><path d="M294.59,193.67a.54.54,0,0,1,.53-.53.54.54,0,0,1,0,1.07A.54.54,0,0,1,294.59,193.67Zm.09,1h.89V198h-.89Z"/><path d="M296.19,194.64h.95L298,197l.88-2.35h1L298.51,198h-1Z"/><path d="M301.9,194.56a1.69,1.69,0,0,1,1.7,1.86v.2h-2.52a.92.92,0,0,0,1,.78,1.39,1.39,0,0,0,.9-.34l.39.58a2.09,2.09,0,0,1-1.39.47,1.78,1.78,0,1,1-.06-3.55Zm-.83,1.45h1.67a.79.79,0,0,0-.84-.75A.82.82,0,0,0,301.07,196Z"/><path d="M306.71,196c0-.47-.24-.63-.62-.63a1,1,0,0,0-.77.4V198h-.89v-3.38h.89v.44a1.55,1.55,0,0,1,1.18-.52,1,1,0,0,1,1.1,1.08V198h-.89Z"/><path d="M310.61,195.42h-.56v-.78h.56v-.18a1.09,1.09,0,0,1,1.14-1.18,1.56,1.56,0,0,1,.65.14l-.19.63a.51.51,0,0,0-.28-.07c-.26,0-.42.17-.42.49v.17h.68v.78h-.68V198h-.9Z"/><path d="M312.87,194.64h.89v.46a1.46,1.46,0,0,1,1.08-.54v.87a1.42,1.42,0,0,0-.25,0,1.13,1.13,0,0,0-.83.39V198h-.89Z"/><path d="M317.59,197.67a1.38,1.38,0,0,1-1.07.44,1.13,1.13,0,0,1-1.18-1.12,1.08,1.08,0,0,1,1.18-1.08,1.36,1.36,0,0,1,1.07.41v-.47c0-.34-.29-.56-.74-.56a1.46,1.46,0,0,0-1,.39l-.33-.59a2.17,2.17,0,0,1,1.47-.53c.77,0,1.48.3,1.48,1.28V198h-.89Zm0-.88a.91.91,0,0,0-.71-.29c-.35,0-.64.18-.64.51s.29.5.64.5a.89.89,0,0,0,.71-.3Z"/><path d="M321.8,197.6a1.58,1.58,0,0,1-1.19.51,1,1,0,0,1-1.1-1.07v-2.4h.89v2.05a.55.55,0,0,0,.63.63,1,1,0,0,0,.77-.39v-2.29h.89V198h-.89Z"/><path d="M326.09,197.59a1.31,1.31,0,0,1-1,.52c-.86,0-1.5-.65-1.5-1.77s.64-1.78,1.5-1.78a1.3,1.3,0,0,1,1,.51v-1.72h.9V198h-.9Zm0-1.86a1,1,0,0,0-.77-.38,1,1,0,0,0,0,2,1,1,0,0,0,.77-.39Z"/><line class="cls-9" x1="344.16" y1="200.42" x2="344.16" y2="183.97"/><line class="cls-9" x1="349.85" y1="192.19" x2="344.16" y2="192.19"/><path d="M578.68,209.58a2.06,2.06,0,0,0,1.49.63c.54,0,.81-.26.81-.52s-.41-.47-1-.6c-.76-.17-1.74-.38-1.74-1.43,0-.78.67-1.41,1.77-1.41a2.63,2.63,0,0,1,1.82.65l-.55.73a2,2,0,0,0-1.34-.51c-.45,0-.69.2-.69.48s.4.41.94.54c.77.17,1.75.4,1.75,1.44,0,.85-.61,1.5-1.87,1.5a2.68,2.68,0,0,1-2-.74Z"/><path d="M585.14,208.94c0-.47-.25-.62-.63-.62a1,1,0,0,0-.77.4V211h-.89v-4.68h.89v1.73a1.54,1.54,0,0,1,1.19-.52,1,1,0,0,1,1.1,1.06V211h-.89Z"/><path d="M589.12,210.64a1.38,1.38,0,0,1-1.07.44,1.13,1.13,0,0,1-1.18-1.12,1.08,1.08,0,0,1,1.18-1.08,1.39,1.39,0,0,1,1.07.41v-.47c0-.34-.3-.56-.74-.56a1.41,1.41,0,0,0-1,.4l-.34-.6a2.24,2.24,0,0,1,1.48-.53c.77,0,1.48.31,1.48,1.28V211h-.89Zm0-.88a.92.92,0,0,0-.72-.29c-.35,0-.63.18-.63.51s.28.5.63.5a.89.89,0,0,0,.72-.3Z"/><path d="M591.06,207.61h.88v.46a1.45,1.45,0,0,1,1.08-.53v.86l-.24,0a1.13,1.13,0,0,0-.84.38V211h-.88Z"/><path d="M595.28,207.53a1.69,1.69,0,0,1,1.69,1.86v.2h-2.51a.91.91,0,0,0,1,.78,1.35,1.35,0,0,0,.9-.33l.4.57a2.11,2.11,0,0,1-1.4.47,1.78,1.78,0,0,1-.05-3.55Zm-.84,1.45h1.67a.78.78,0,0,0-.83-.74A.81.81,0,0,0,594.44,209Z"/><path d="M599.45,206.65a.54.54,0,0,1,.54-.54.54.54,0,0,1,0,1.07A.54.54,0,0,1,599.45,206.65Zm.1,1h.88V211h-.88Z"/><path d="M603.77,209c0-.47-.24-.63-.62-.63a1,1,0,0,0-.77.4V211h-.89v-3.39h.89v.44a1.55,1.55,0,0,1,1.18-.52,1,1,0,0,1,1.1,1.08V211h-.89Z"/><path d="M605.82,209.93a2,2,0,0,0,1.17.46c.39,0,.57-.13.57-.34s-.29-.32-.68-.4c-.58-.11-1.33-.25-1.33-1.06,0-.56.5-1.06,1.39-1.06a2.12,2.12,0,0,1,1.36.46l-.35.61a1.44,1.44,0,0,0-1-.39c-.32,0-.53.12-.53.31s.27.29.65.37c.58.11,1.36.26,1.36,1.1,0,.62-.53,1.09-1.47,1.09a2.27,2.27,0,0,1-1.51-.53Z"/><path d="M609.16,206.65a.53.53,0,1,1,.53.53A.54.54,0,0,1,609.16,206.65Zm.09,1h.89V211h-.89Z"/><path d="M611.52,211.22a1.36,1.36,0,0,0,1.06.42.82.82,0,0,0,.93-.85v-.35a1.31,1.31,0,0,1-1,.53c-.85,0-1.49-.59-1.49-1.72s.63-1.72,1.49-1.72a1.28,1.28,0,0,1,1,.52v-.44h.9v3.15c0,1.29-1,1.61-1.83,1.61a2.07,2.07,0,0,1-1.46-.51Zm2-2.51a1,1,0,0,0-.76-.39.93.93,0,0,0,0,1.86,1,1,0,0,0,.76-.38Z"/><path d="M617.75,208.94c0-.47-.24-.62-.63-.62a1,1,0,0,0-.77.4V211h-.89v-4.68h.89v1.73a1.57,1.57,0,0,1,1.19-.52,1,1,0,0,1,1.1,1.06V211h-.89Z"/><path d="M619.87,210.15v-1.76h-.56v-.78h.56v-.92h.9v.92h.69v.78h-.69v1.53c0,.21.11.37.31.37a.49.49,0,0,0,.31-.1l.18.67a1.08,1.08,0,0,1-.74.22A.85.85,0,0,1,619.87,210.15Z"/><path d="M622.44,209.93a2,2,0,0,0,1.17.46c.38,0,.57-.13.57-.34s-.3-.32-.68-.4c-.58-.11-1.33-.25-1.33-1.06,0-.56.49-1.06,1.38-1.06a2.15,2.15,0,0,1,1.37.46l-.36.61a1.41,1.41,0,0,0-1-.39c-.32,0-.53.12-.53.31s.26.29.64.37c.58.11,1.36.26,1.36,1.1,0,.62-.52,1.09-1.46,1.09a2.3,2.3,0,0,1-1.52-.53Z"/><path d="M629.65,210.64a1.38,1.38,0,0,1-1.07.44A1.13,1.13,0,0,1,627.4,210a1.08,1.08,0,0,1,1.18-1.08,1.36,1.36,0,0,1,1.07.41v-.47c0-.34-.29-.56-.74-.56a1.41,1.41,0,0,0-1,.4l-.34-.6a2.26,2.26,0,0,1,1.48-.53c.77,0,1.48.31,1.48,1.28V211h-.89Zm0-.88a.91.91,0,0,0-.71-.29c-.35,0-.64.18-.64.51s.29.5.64.5a.89.89,0,0,0,.71-.3Z"/><path d="M633.87,209c0-.47-.24-.63-.62-.63a1,1,0,0,0-.77.4V211h-.89v-3.39h.89v.44a1.53,1.53,0,0,1,1.18-.52,1,1,0,0,1,1.1,1.08V211h-.89Z"/><path d="M638.16,210.56a1.32,1.32,0,0,1-1,.52c-.85,0-1.5-.65-1.5-1.77s.64-1.78,1.5-1.78a1.3,1.3,0,0,1,1,.52v-1.73h.89V211h-.89Zm0-1.85a1,1,0,0,0-.77-.39,1,1,0,0,0,0,2,1,1,0,0,0,.77-.39Z"/><path d="M643.44,207.53a1.59,1.59,0,0,1,1.34.61l-.58.54a.85.85,0,0,0-.72-.36,1,1,0,0,0,0,2,.86.86,0,0,0,.72-.37l.58.54a1.57,1.57,0,0,1-1.34.62,1.78,1.78,0,1,1,0-3.55Z"/><path d="M645.24,209.3c-.14-2.3,3.72-2.3,3.58,0C649,211.61,645.1,211.61,645.24,209.3Zm2.66,0a.87.87,0,1,0-1.73,0A.87.87,0,1,0,647.9,209.3Z"/><path d="M652,209c0-.47-.24-.63-.62-.63a1,1,0,0,0-.77.4V211h-.89v-3.39h.89v.44a1.55,1.55,0,0,1,1.18-.52,1,1,0,0,1,1.1,1.08V211H652Z"/><path d="M654.08,210.15v-1.76h-.56v-.78h.56v-.92H655v.92h.69v.78H655v1.53a.33.33,0,0,0,.31.37.49.49,0,0,0,.31-.1l.19.67a1.08,1.08,0,0,1-.74.22A.84.84,0,0,1,654.08,210.15Z"/><path d="M658,207.53a1.69,1.69,0,0,1,1.7,1.86v.2h-2.52a.92.92,0,0,0,1,.78,1.39,1.39,0,0,0,.9-.33l.39.57a2.09,2.09,0,0,1-1.39.47,1.78,1.78,0,1,1-.06-3.55Zm-.83,1.45h1.67a.79.79,0,0,0-.84-.74A.81.81,0,0,0,657.15,209Z"/><path d="M661.76,209.85,661,211h-1l1.2-1.74-1.12-1.65h1l.7,1,.69-1h1l-1.14,1.65,1.22,1.74h-1Z"/><path d="M664.49,210.15v-1.76h-.56v-.78h.56v-.92h.89v.92h.69v.78h-.69v1.53c0,.21.11.37.31.37a.49.49,0,0,0,.31-.1l.19.67a1.08,1.08,0,0,1-.74.22A.84.84,0,0,1,664.49,210.15Z"/><path d="M585.3,215.69l-.72,2.31h-1l-1-3.39h.93l.63,2.28.74-2.28h.79l.74,2.28.63-2.28H588L587,218h-1Z"/><path d="M588.55,213.65a.53.53,0,1,1,.53.53A.54.54,0,0,1,588.55,213.65Zm.09,1h.89V218h-.89Z"/><path d="M590.76,217.15v-1.76h-.56v-.78h.56v-.92h.9v.92h.69v.78h-.69v1.53c0,.21.11.37.31.37a.49.49,0,0,0,.31-.1l.19.67a1.11,1.11,0,0,1-.75.22A.85.85,0,0,1,590.76,217.15Z"/><path d="M595.48,215.94c0-.47-.25-.62-.63-.62a1,1,0,0,0-.77.4V218h-.89v-4.68h.89v1.73a1.57,1.57,0,0,1,1.19-.52,1,1,0,0,1,1.1,1.06V218h-.89Z"/><path d="M599.38,215.39h-.56v-.78h.56v-.18a1.09,1.09,0,0,1,1.14-1.18,1.48,1.48,0,0,1,.64.14L601,214a.54.54,0,0,0-.29-.07c-.25,0-.42.17-.42.49v.17H601v.78h-.69V218h-.89Z"/><path d="M601.64,214.61h.89v.46a1.45,1.45,0,0,1,1.08-.53v.86l-.25,0a1.12,1.12,0,0,0-.83.38V218h-.89Z"/><path d="M606.36,217.64a1.38,1.38,0,0,1-1.07.44,1.13,1.13,0,0,1-1.18-1.12,1.08,1.08,0,0,1,1.18-1.08,1.36,1.36,0,0,1,1.07.41v-.47c0-.34-.29-.56-.74-.56a1.41,1.41,0,0,0-1,.4l-.34-.6a2.26,2.26,0,0,1,1.48-.53c.77,0,1.48.31,1.48,1.28V218h-.89Zm0-.88a.91.91,0,0,0-.71-.29c-.36,0-.64.18-.64.51s.28.5.64.5a.89.89,0,0,0,.71-.3Z"/><path d="M610.56,217.57a1.56,1.56,0,0,1-1.19.51,1,1,0,0,1-1.09-1.07v-2.4h.89v2a.55.55,0,0,0,.62.63,1,1,0,0,0,.77-.39v-2.29h.89V218h-.89Z"/><path d="M614.86,217.56a1.31,1.31,0,0,1-1,.52c-.86,0-1.5-.65-1.5-1.77s.63-1.78,1.5-1.78a1.3,1.3,0,0,1,1,.52v-1.73h.9V218h-.9Zm0-1.85a1,1,0,0,0-.77-.39,1,1,0,0,0,0,2,1,1,0,0,0,.77-.39Z"/><path d="M622.76,215.86c0-.32-.14-.54-.5-.54a.88.88,0,0,0-.7.39V218h-.9v-2.14c0-.32-.14-.54-.5-.54a.9.9,0,0,0-.7.4V218h-.89v-3.39h.89v.44a1.49,1.49,0,0,1,1.1-.52.89.89,0,0,1,.94.61,1.47,1.47,0,0,1,1.16-.61.9.9,0,0,1,1,1V218h-.9Z"/><path d="M626.75,217.64a1.38,1.38,0,0,1-1.07.44A1.13,1.13,0,0,1,624.5,217a1.08,1.08,0,0,1,1.18-1.08,1.36,1.36,0,0,1,1.07.41v-.47c0-.34-.29-.56-.74-.56a1.43,1.43,0,0,0-1,.4l-.33-.6a2.22,2.22,0,0,1,1.47-.53c.77,0,1.48.31,1.48,1.28V218h-.89Zm0-.88a.91.91,0,0,0-.71-.29c-.35,0-.64.18-.64.51s.29.5.64.5a.89.89,0,0,0,.71-.3Z"/><path d="M631,216c0-.47-.24-.63-.62-.63a1,1,0,0,0-.77.4V218h-.89v-3.39h.89v.44a1.53,1.53,0,0,1,1.18-.52,1,1,0,0,1,1.1,1.08V218H631Z"/><path d="M635,217.64a1.38,1.38,0,0,1-1.07.44A1.13,1.13,0,0,1,632.7,217a1.08,1.08,0,0,1,1.18-1.08,1.36,1.36,0,0,1,1.07.41v-.47c0-.34-.29-.56-.74-.56a1.41,1.41,0,0,0-1,.4l-.33-.6a2.22,2.22,0,0,1,1.47-.53c.77,0,1.48.31,1.48,1.28V218H635Zm0-.88a.91.91,0,0,0-.71-.29c-.35,0-.64.18-.64.51s.29.5.64.5a.89.89,0,0,0,.71-.3Z"/><path d="M637.24,218.22a1.35,1.35,0,0,0,1.06.42.82.82,0,0,0,.93-.85v-.35a1.31,1.31,0,0,1-1,.53,1.74,1.74,0,0,1,0-3.44,1.28,1.28,0,0,1,1,.52v-.44h.9v3.15c0,1.29-1,1.61-1.83,1.61a2.07,2.07,0,0,1-1.46-.51Zm2-2.51a1,1,0,0,0-.76-.39.93.93,0,0,0,0,1.86,1,1,0,0,0,.76-.38Z"/><path d="M642.73,214.53a1.69,1.69,0,0,1,1.69,1.86v.2h-2.51a.92.92,0,0,0,1,.78,1.39,1.39,0,0,0,.91-.33l.39.57a2.11,2.11,0,0,1-1.4.47,1.78,1.78,0,0,1,0-3.55ZM641.9,216h1.66a.77.77,0,0,0-.83-.74A.81.81,0,0,0,641.9,216Z"/><path d="M649.45,215.86c0-.32-.14-.54-.5-.54a.88.88,0,0,0-.7.39V218h-.9v-2.14c0-.32-.14-.54-.5-.54a.9.9,0,0,0-.7.4V218h-.89v-3.39h.89v.44a1.45,1.45,0,0,1,1.1-.52.9.9,0,0,1,.94.61,1.45,1.45,0,0,1,1.16-.61.9.9,0,0,1,1,1V218h-.9Z"/><path d="M652.94,214.53a1.69,1.69,0,0,1,1.7,1.86v.2h-2.52a.92.92,0,0,0,1,.78,1.39,1.39,0,0,0,.9-.33l.39.57a2.09,2.09,0,0,1-1.39.47,1.78,1.78,0,1,1-.06-3.55Zm-.83,1.45h1.67a.79.79,0,0,0-.84-.74A.81.81,0,0,0,652.11,216Z"/><path d="M657.75,216c0-.47-.24-.63-.62-.63a1,1,0,0,0-.77.4V218h-.89v-3.39h.89v.44a1.55,1.55,0,0,1,1.18-.52,1,1,0,0,1,1.1,1.08V218h-.89Z"/><path d="M659.88,217.15v-1.76h-.56v-.78h.56v-.92h.89v.92h.69v.78h-.69v1.53a.33.33,0,0,0,.31.37.49.49,0,0,0,.31-.1l.19.67a1.08,1.08,0,0,1-.74.22A.84.84,0,0,1,659.88,217.15Z"/><path d="M604.64,221.53a1.69,1.69,0,0,1,1.7,1.86v.2h-2.52a.92.92,0,0,0,1,.78,1.39,1.39,0,0,0,.9-.33l.39.57a2.09,2.09,0,0,1-1.39.47,1.78,1.78,0,1,1-.06-3.55Zm-.83,1.45h1.67a.79.79,0,0,0-.84-.74A.81.81,0,0,0,603.81,223Z"/><path d="M608.77,221.53a1.59,1.59,0,0,1,1.34.61l-.59.54a.82.82,0,0,0-.71-.36,1,1,0,0,0,0,2,.83.83,0,0,0,.71-.37l.59.54a1.57,1.57,0,0,1-1.34.62,1.78,1.78,0,1,1,0-3.55Z"/><path d="M610.57,223.3c-.14-2.3,3.72-2.3,3.58,0C614.29,225.61,610.43,225.61,610.57,223.3Zm2.65,0a.87.87,0,1,0-1.73,0A.87.87,0,1,0,613.22,223.3Z"/><path d="M615.07,223.93a2,2,0,0,0,1.17.46c.39,0,.57-.13.57-.34s-.3-.32-.68-.4c-.58-.11-1.33-.25-1.33-1.06,0-.56.5-1.06,1.39-1.06a2.14,2.14,0,0,1,1.36.46l-.36.61a1.39,1.39,0,0,0-1-.39c-.32,0-.53.12-.53.31s.27.29.64.37c.59.11,1.36.26,1.36,1.1,0,.62-.52,1.09-1.46,1.09a2.25,2.25,0,0,1-1.51-.53Z"/><path d="M618.84,225.58a.45.45,0,0,0,.47-.25l.13-.29-1.37-3.43H619l.88,2.36.88-2.36h1l-1.59,3.94a1.23,1.23,0,0,1-1.28.82,2.28,2.28,0,0,1-.44-.05l.13-.8A.71.71,0,0,0,618.84,225.58Z"/><path d="M622.42,223.93a1.93,1.93,0,0,0,1.17.46c.38,0,.56-.13.56-.34s-.29-.32-.67-.4c-.59-.11-1.34-.25-1.34-1.06,0-.56.5-1.06,1.39-1.06a2.15,2.15,0,0,1,1.37.46l-.36.61a1.41,1.41,0,0,0-1-.39c-.32,0-.53.12-.53.31s.26.29.64.37c.58.11,1.36.26,1.36,1.1,0,.62-.53,1.09-1.47,1.09a2.29,2.29,0,0,1-1.51-.53Z"/><path d="M626.07,224.15v-1.76h-.56v-.78h.56v-.92h.9v.92h.68v.78H627v1.53c0,.21.11.37.31.37a.46.46,0,0,0,.3-.1l.19.67a1.08,1.08,0,0,1-.74.22A.85.85,0,0,1,626.07,224.15Z"/><path d="M630,221.53a1.69,1.69,0,0,1,1.69,1.86v.2h-2.51a.9.9,0,0,0,1,.78,1.37,1.37,0,0,0,.9-.33l.39.57a2.07,2.07,0,0,1-1.39.47,1.78,1.78,0,1,1,0-3.55Zm-.84,1.45h1.67a.78.78,0,0,0-.83-.74A.81.81,0,0,0,629.14,223Z"/><path d="M636.7,222.86c0-.32-.14-.54-.51-.54a.92.92,0,0,0-.7.39V225h-.89v-2.14c0-.32-.14-.54-.51-.54a.9.9,0,0,0-.7.4V225h-.89v-3.39h.89v.44a1.49,1.49,0,0,1,1.11-.52.91.91,0,0,1,.94.61,1.44,1.44,0,0,1,1.16-.61.9.9,0,0,1,1,1V225h-.89Z"/><path d="M638.76,223.93a1.93,1.93,0,0,0,1.17.46c.38,0,.56-.13.56-.34s-.29-.32-.68-.4c-.58-.11-1.33-.25-1.33-1.06,0-.56.5-1.06,1.39-1.06a2.17,2.17,0,0,1,1.37.46l-.36.61a1.41,1.41,0,0,0-1-.39c-.32,0-.53.12-.53.31s.26.29.64.37c.58.11,1.36.26,1.36,1.1,0,.62-.53,1.09-1.47,1.09a2.29,2.29,0,0,1-1.51-.53Z"/><line class="cls-9" x1="640.56" y1="200.34" x2="599.66" y2="200.34"/><line class="cls-9" x1="620.11" y1="194.65" x2="620.11" y2="200.34"/><line class="cls-9" x1="171.28" y1="50.26" x2="212.18" y2="50.26"/><line class="cls-9" x1="191.73" y1="55.95" x2="191.73" y2="50.26"/><rect class="cls-7" x="267.35" y="33.29" width="244.5" height="101.35"/><path class="cls-10" d="M337.22,81.4H295.49a.9.9,0,0,0-.89.9v3.06a.9.9,0,0,0,.89.9h41.73a.9.9,0,0,0,.88-.9V82.3A.9.9,0,0,0,337.22,81.4Z"/><path class="cls-10" d="M337.22,87.75H295.49a.89.89,0,0,0-.89.9V94.5a.9.9,0,0,0,.89.9h41.73a.9.9,0,0,0,.88-.9V88.65A.89.89,0,0,0,337.22,87.75Z"/><path class="cls-10" d="M329.79,92.13a.58.58,0,0,1-.58.58h-7.48a.58.58,0,0,1-.58-.58v-.55a.58.58,0,0,1,.58-.59h7.48a.58.58,0,0,1,.58.59Z"/><path class="cls-10" d="M334.38,93.35A1.38,1.38,0,1,1,335.74,92,1.36,1.36,0,0,1,334.38,93.35Z"/><rect class="cls-11" x="307.78" y="91.43" width="0.69" height="0.7" rx="0.34"/><rect class="cls-11" x="310.26" y="91.43" width="0.69" height="0.7" rx="0.34"/><rect class="cls-11" x="312.73" y="91.43" width="0.69" height="0.7" rx="0.34"/><rect class="cls-11" x="315.2" y="91.43" width="0.69" height="0.7" rx="0.34"/><rect class="cls-11" x="317.68" y="91.43" width="0.69" height="0.7" rx="0.34"/><line class="cls-12" x1="295.94" y1="84.92" x2="336.71" y2="84.92"/><line class="cls-10" x1="371.95" y1="60.58" x2="374.68" y2="60.58"/><line class="cls-10" x1="371.95" y1="64.76" x2="374.68" y2="64.76"/><line class="cls-10" x1="371.95" y1="68.94" x2="374.68" y2="68.94"/><path d="M373.31,91.22a.7.7,0,1,1-.7.7.7.7,0,0,1,.7-.7m0-1a1.7,1.7,0,1,0,1.71,1.7,1.7,1.7,0,0,0-1.71-1.7Z"/><rect class="cls-13" x="353.81" y="73.13" width="39" height="5.54" rx="1.4" transform="translate(297.41 449.21) rotate(-90)"/><line class="cls-10" x1="379.31" y1="60.58" x2="382.04" y2="60.58"/><line class="cls-10" x1="379.31" y1="64.76" x2="382.04" y2="64.76"/><line class="cls-10" x1="379.31" y1="68.94" x2="382.04" y2="68.94"/><path d="M380.68,91.22a.7.7,0,1,1-.7.7.7.7,0,0,1,.7-.7m0-1a1.7,1.7,0,1,0,1.7,1.7,1.7,1.7,0,0,0-1.7-1.7Z"/><rect class="cls-13" x="361.18" y="73.13" width="39" height="5.54" rx="1.4" transform="translate(304.78 456.58) rotate(-90)"/><line class="cls-10" x1="386.68" y1="60.58" x2="389.41" y2="60.58"/><line class="cls-10" x1="386.68" y1="64.76" x2="389.41" y2="64.76"/><line class="cls-10" x1="386.68" y1="68.94" x2="389.41" y2="68.94"/><path d="M388,91.22a.7.7,0,1,1-.7.7.7.7,0,0,1,.7-.7m0-1a1.7,1.7,0,1,0,1.71,1.7,1.7,1.7,0,0,0-1.71-1.7Z"/><rect class="cls-13" x="368.54" y="73.13" width="39" height="5.54" rx="1.4" transform="translate(312.14 463.94) rotate(-90)"/><line class="cls-10" x1="394.04" y1="60.58" x2="396.77" y2="60.58"/><line class="cls-10" x1="394.04" y1="64.76" x2="396.77" y2="64.76"/><line class="cls-10" x1="394.04" y1="68.94" x2="396.77" y2="68.94"/><path d="M395.41,91.22a.7.7,0,1,1-.7.7.7.7,0,0,1,.7-.7m0-1a1.7,1.7,0,1,0,1.7,1.7,1.7,1.7,0,0,0-1.7-1.7Z"/><rect class="cls-13" x="375.91" y="73.13" width="39" height="5.54" rx="1.4" transform="translate(319.51 471.31) rotate(-90)"/><line class="cls-10" x1="401.41" y1="60.58" x2="404.14" y2="60.58"/><line class="cls-10" x1="401.41" y1="64.76" x2="404.14" y2="64.76"/><line class="cls-10" x1="401.41" y1="68.94" x2="404.14" y2="68.94"/><path d="M402.77,91.22a.7.7,0,1,1-.7.7.7.7,0,0,1,.7-.7m0-1a1.7,1.7,0,1,0,1.71,1.7,1.7,1.7,0,0,0-1.71-1.7Z"/><rect class="cls-13" x="383.27" y="73.13" width="39" height="5.54" rx="1.4" transform="translate(326.87 478.67) rotate(-90)"/><rect class="cls-8" x="330.27" y="24.25" width="115.48" height="18"/><path class="cls-1" d="M340.76,31.06v1.8h1.82v1.4h-1.82v2.49h-1.55V29.66h3.67v1.4Z"/><path class="cls-1" d="M347.84,34.17V35a2.13,2.13,0,0,1-4.24,0v-.64h1.55v.75c0,.3.2.48.57.48s.57-.18.57-.48v-1c0-.28-.13-.45-.34-.45h-2.16V29.66h3.78v1.4h-2.23v1.19H346A1.82,1.82,0,0,1,347.84,34.17Z"/><path class="cls-1" d="M350.79,34.88V31.53c-.18-2.65,4.89-2.65,4.72,0v3.35C355.69,37.54,350.61,37.53,350.79,34.88Zm3.17,0V31.51c.12-.8-1.75-.79-1.62,0V34.9C352.21,35.7,354.09,35.7,354,34.9Z"/><path class="cls-1" d="M361,29.66v7.09h-1.36l-1.85-4v4h-1.35V29.66h1.35l1.85,4.06V29.66Z"/><path class="cls-1" d="M365.67,35.35v1.4H362V29.66h1.55v5.69Z"/><path class="cls-1" d="M366.45,29.66H368v7.09h-1.55Z"/><path class="cls-1" d="M373.53,29.66v7.09h-1.36l-1.85-4v4H369V29.66h1.34l1.85,4.06V29.66Z"/><path class="cls-1" d="M376.07,31.06v1.55h1.72V34h-1.72v1.34h2.12v1.4h-3.67V29.66h3.67v1.4Z"/><path class="cls-1" d="M382.59,31.06v1.8h1.82v1.4h-1.82v2.49H381V29.66h3.67v1.4Z"/><path class="cls-1" d="M387.82,34.19h-.74v2.56h-1.55V29.66h2.36A2,2,0,0,1,390,31.6v.66a1.86,1.86,0,0,1-.71,1.5l.92,3H388.6Zm-.74-1.39H388a.44.44,0,0,0,.47-.47v-.8a.43.43,0,0,0-.46-.47h-.92Z"/><path class="cls-1" d="M394.17,35.5h-1.45l-.29,1.25h-1.51l1.53-7.09h2L396,36.75h-1.54Zm-.72-3.95L393,34.1h.9Z"/><path class="cls-1" d="M396.61,34.88V29.66h1.55V34.9c0,.36.23.6.72.6s.73-.24.73-.6V29.66h1.55v5.22a2.29,2.29,0,0,1-4.55,0Z"/><path class="cls-1" d="M406.68,31.68v3a2.05,2.05,0,0,1-2.27,2h-2.3V29.66h2.29A2.06,2.06,0,0,1,406.68,31.68Zm-1.55,0a.57.57,0,0,0-.62-.6h-.85v4.29h.84a.57.57,0,0,0,.63-.6Z"/><path class="cls-1" d="M411.2,31.06v1.55h1.72V34H411.2v1.34h2.12v1.4h-3.67V29.66h3.67v1.4Z"/><path class="cls-1" d="M418.7,29.66v7.09h-1.36l-1.84-4v4h-1.35V29.66h1.35l1.84,4.06V29.66Z"/><path class="cls-1" d="M422.77,32.22v-.71c0-.36-.33-.6-.79-.6s-.8.24-.8.6V34.9c0,.36.34.6.79.6s.8-.24.8-.6v-.6H422V32.91h2.36v2a2.37,2.37,0,0,1-4.69,0V31.53a2.37,2.37,0,0,1,4.69,0v.69Z"/><path class="cls-1" d="M425.25,29.66h1.55v7.09h-1.55Z"/><path class="cls-1" d="M432.33,29.66v7.09H431l-1.85-4v4h-1.35V29.66h1.35L431,33.72V29.66Z"/><path class="cls-1" d="M434.87,31.06v1.55h1.72V34h-1.72v1.34H437v1.4h-3.67V29.66H437v1.4Z"/><path class="cls-10" d="M472.47,95.4H448.24a6.14,6.14,0,0,1,0-12.27h0A9.09,9.09,0,0,1,457.28,74a9,9,0,0,1,3.74.81,10.62,10.62,0,0,1,20.18,6.52A7.66,7.66,0,0,1,477,95.4H475.5"/><path class="cls-12" d="M468.31,79.72a4.14,4.14,0,1,0,1.12.67h0l-3.26,4.93L464.41,83"/><path class="cls-12" d="M470.71,77.8l-.82,0h0l-2-1.52a1.68,1.68,0,0,0-2.1,0l-2.13,1.55-.82,0c-1.57-.08-2.78-.52-2.78,1.62s.28,5.61.28,5.61-.17,2.6,2.84,4.79c2.59,1.89,3.58,2.58,3.58,2.58h0s1-.69,3.59-2.58c3-2.19,2.84-4.79,2.84-4.79s.29-3.47.29-5.61-1.22-1.7-2.79-1.62"/><path d="M287,103.56c4.78-.17,4.78,7.76,0,7.59C282.21,111.32,282.21,103.39,287,103.56Zm0,.81c-3.56-.15-3.56,6.11,0,6C290.55,110.48,290.54,104.22,287,104.37Z"/><path d="M295.73,107.54c0-.93-.47-1.23-1.19-1.23a2.07,2.07,0,0,0-1.57.82V111h-.83V105.7H293v.77a2.63,2.63,0,0,1,1.89-.9,1.51,1.51,0,0,1,1.69,1.72V111h-.82Z"/><path d="M301.29,103.68h2.95a2.21,2.21,0,1,1,0,4.42h-2V111h-.92Zm2.84.81h-1.92v2.8h1.92a1.4,1.4,0,1,0,0-2.8Z"/><path d="M307.83,105.7h.82v.86a2.27,2.27,0,0,1,1.77-1v.85a1.48,1.48,0,0,0-.33,0,2,2,0,0,0-1.44.85V111h-.82Z"/><path d="M313.88,105.57a2.59,2.59,0,0,1,2.55,2.85v.21h-4.3a1.88,1.88,0,0,0,1.91,1.84,2.31,2.31,0,0,0,1.64-.67l.4.54a2.91,2.91,0,0,1-2.11.81,2.63,2.63,0,0,1-2.71-2.79A2.66,2.66,0,0,1,313.88,105.57ZM312.13,108h3.49a1.73,1.73,0,0,0-1.75-1.78A1.77,1.77,0,0,0,312.13,108Z"/><path d="M324.29,107.41c0-.67-.3-1.1-1-1.1a1.87,1.87,0,0,0-1.41.81V111h-.83v-3.61c0-.67-.28-1.1-1-1.1a1.85,1.85,0,0,0-1.39.82V111h-.83V105.7h.83v.77a2.29,2.29,0,0,1,1.71-.9,1.36,1.36,0,0,1,1.43,1,2.25,2.25,0,0,1,1.79-1c1,0,1.48.54,1.48,1.61V111h-.82Z"/><path d="M326.73,104.3a.57.57,0,0,1,.55-.57.57.57,0,0,1,.56.57.56.56,0,0,1-.56.55A.55.55,0,0,1,326.73,104.3Zm.14,1.4h.82V111h-.82Z"/><path d="M329.42,109.72a2.39,2.39,0,0,0,1.75.76c.81,0,1.25-.36,1.25-.88s-.64-.77-1.36-.95c-.9-.21-1.93-.45-1.93-1.55,0-.82.72-1.53,2-1.53a2.69,2.69,0,0,1,2,.77l-.39.57a2.08,2.08,0,0,0-1.58-.67c-.73,0-1.18.33-1.18.81s.6.68,1.3.84c.92.21,2,.48,2,1.65,0,.89-.72,1.61-2.09,1.61a2.81,2.81,0,0,1-2.15-.84Z"/><path d="M337,105.57a2.59,2.59,0,0,1,2.55,2.85v.21h-4.3a1.88,1.88,0,0,0,1.91,1.84,2.3,2.3,0,0,0,1.64-.67l.4.54a2.91,2.91,0,0,1-2.11.81,2.63,2.63,0,0,1-2.71-2.79A2.66,2.66,0,0,1,337,105.57ZM335.24,108h3.49a1.73,1.73,0,0,0-1.75-1.78A1.77,1.77,0,0,0,335.24,108Z"/><path d="M341,109.72a2.39,2.39,0,0,0,1.75.76c.81,0,1.25-.36,1.25-.88s-.65-.77-1.36-.95c-.9-.21-1.93-.45-1.93-1.55,0-.82.72-1.53,2-1.53a2.68,2.68,0,0,1,2,.77l-.38.57a2.11,2.11,0,0,0-1.59-.67c-.72,0-1.17.33-1.17.81s.6.68,1.29.84c.93.21,2,.48,2,1.65,0,.89-.72,1.61-2.09,1.61a2.81,2.81,0,0,1-2.15-.84Z"/><path d="M372.7,104.91,370.21,111h-.38l-2.48-6.11V111h-.92v-7.34h1.31l2.28,5.59,2.29-5.59h1.31V111h-.92Z"/><path d="M378.73,110.41a2.27,2.27,0,0,1-1.76.74,1.77,1.77,0,0,1-1.86-1.76,1.74,1.74,0,0,1,1.86-1.75,2.2,2.2,0,0,1,1.76.73v-1c0-.72-.57-1.12-1.34-1.12a2.12,2.12,0,0,0-1.63.73l-.38-.57a2.78,2.78,0,0,1,2.12-.88c1.12,0,2.06.51,2.06,1.8V111h-.83Zm0-1.52a1.78,1.78,0,0,0-1.46-.66,1.17,1.17,0,1,0,0,2.33,1.78,1.78,0,0,0,1.46-.66Z"/><path d="M384.9,107.54c0-.93-.47-1.23-1.18-1.23a2.09,2.09,0,0,0-1.58.82V111h-.82V105.7h.82v.77a2.64,2.64,0,0,1,1.89-.9,1.51,1.51,0,0,1,1.7,1.72V111h-.83Z"/><path d="M390.81,110.41a2.27,2.27,0,0,1-1.76.74,1.77,1.77,0,0,1-1.86-1.76,1.74,1.74,0,0,1,1.86-1.75,2.2,2.2,0,0,1,1.76.73v-1c0-.72-.57-1.12-1.34-1.12a2.12,2.12,0,0,0-1.63.73l-.39-.57a2.82,2.82,0,0,1,2.13-.88c1.12,0,2.06.51,2.06,1.8V111h-.83Zm0-1.52a1.78,1.78,0,0,0-1.46-.66,1.17,1.17,0,1,0,0,2.33,1.78,1.78,0,0,0,1.46-.66Z"/><path d="M393.8,111.77a2.05,2.05,0,0,0,1.73.72,1.52,1.52,0,0,0,1.7-1.59v-.76a2.2,2.2,0,0,1-1.78.94c-1.38,0-2.36-1-2.36-2.75s1-2.76,2.36-2.76a2.16,2.16,0,0,1,1.78.94v-.81h.83v5.16c0,1.76-1.23,2.31-2.53,2.31a2.72,2.72,0,0,1-2.15-.79Zm3.43-4.6a2,2,0,0,0-1.58-.86c-1.07,0-1.71.85-1.71,2s.64,2,1.71,2a2,2,0,0,0,1.58-.87Z"/><path d="M402.13,105.57a2.59,2.59,0,0,1,2.55,2.85v.21h-4.3a1.88,1.88,0,0,0,1.91,1.84,2.3,2.3,0,0,0,1.64-.67l.4.54a2.91,2.91,0,0,1-2.11.81,2.63,2.63,0,0,1-2.71-2.79A2.66,2.66,0,0,1,402.13,105.57ZM400.38,108h3.49a1.73,1.73,0,0,0-1.75-1.78A1.77,1.77,0,0,0,400.38,108Z"/><path d="M410,110.23a2.24,2.24,0,0,1-1.79.92c-1.39,0-2.37-1.06-2.37-2.78s1-2.8,2.37-2.8a2.21,2.21,0,0,1,1.79.94v-2.83h.83V111H410Zm0-3.06a2,2,0,0,0-1.59-.86c-1.07,0-1.71.88-1.71,2.06s.64,2,1.71,2a2,2,0,0,0,1.59-.83Z"/><path d="M371.34,120.29a3.1,3.1,0,0,0,2.31,1c1.31,0,1.73-.71,1.73-1.27,0-.88-.89-1.12-1.86-1.39-1.18-.3-2.49-.63-2.49-2.08,0-1.21,1.08-2,2.52-2a3.46,3.46,0,0,1,2.61,1l-.55.67a2.83,2.83,0,0,0-2.13-.88c-.88,0-1.5.48-1.5,1.17s.84,1,1.78,1.21c1.2.32,2.56.69,2.56,2.23,0,1.07-.72,2.16-2.7,2.16A3.62,3.62,0,0,1,370.8,121Z"/><path d="M380.07,116.57a2.59,2.59,0,0,1,2.56,2.85v.21h-4.31a1.88,1.88,0,0,0,1.92,1.84,2.33,2.33,0,0,0,1.64-.67l.39.54a2.9,2.9,0,0,1-2.11.81,2.63,2.63,0,0,1-2.7-2.79A2.66,2.66,0,0,1,380.07,116.57ZM378.32,119h3.49a1.73,1.73,0,0,0-1.75-1.78A1.78,1.78,0,0,0,378.32,119Z"/><path d="M384.07,116.7h.82v.86a2.27,2.27,0,0,1,1.77-1v.85a1.61,1.61,0,0,0-.33,0,2,2,0,0,0-1.44.85V122h-.82Z"/><path d="M387,116.7h.89l1.78,4.36,1.76-4.36h.9L390.13,122h-.9Z"/><path d="M393.16,115.3a.56.56,0,1,1,1.11,0,.56.56,0,0,1-1.11,0Zm.15,1.4h.82V122h-.82Z"/><path d="M398.23,116.57a2.27,2.27,0,0,1,1.95.93l-.55.5a1.57,1.57,0,0,0-1.35-.69,2.06,2.06,0,0,0,0,4.1,1.6,1.6,0,0,0,1.35-.69l.55.51a2.29,2.29,0,0,1-1.95.92,2.79,2.79,0,0,1,0-5.58Z"/><path d="M403.76,116.57a2.59,2.59,0,0,1,2.55,2.85v.21H402a1.87,1.87,0,0,0,1.91,1.84,2.31,2.31,0,0,0,1.64-.67l.4.54a2.94,2.94,0,0,1-2.12.81,2.63,2.63,0,0,1-2.7-2.79A2.66,2.66,0,0,1,403.76,116.57ZM402,119h3.48a1.72,1.72,0,0,0-1.75-1.78A1.77,1.77,0,0,0,402,119Z"/><path d="M434.19,103.68h.91V111h-.91Z"/><path d="M440.48,107.54c0-.93-.47-1.23-1.19-1.23a2.09,2.09,0,0,0-1.57.82V111h-.82V105.7h.82v.77a2.64,2.64,0,0,1,1.89-.9,1.51,1.51,0,0,1,1.7,1.72V111h-.83Z"/><path d="M446.18,109.91v-3.48h-.88v-.73h.88v-1.45H447v1.45h1.07v.73H447v3.3c0,.4.17.68.53.68a.81.81,0,0,0,.57-.22l.24.62a1.35,1.35,0,0,1-1,.34A1.09,1.09,0,0,1,446.18,109.91Z"/><path d="M453,107.52c0-.94-.49-1.21-1.2-1.21a2.13,2.13,0,0,0-1.58.82V111h-.82v-7.34h.82v2.79a2.65,2.65,0,0,1,1.91-.9,1.49,1.49,0,0,1,1.69,1.7V111H453Z"/><path d="M457.85,105.57a2.58,2.58,0,0,1,2.55,2.85v.21h-4.3a1.88,1.88,0,0,0,1.92,1.84,2.33,2.33,0,0,0,1.64-.67l.39.54a2.91,2.91,0,0,1-2.11.81,2.64,2.64,0,0,1-2.71-2.79A2.66,2.66,0,0,1,457.85,105.57ZM456.1,108h3.49a1.73,1.73,0,0,0-1.75-1.78A1.78,1.78,0,0,0,456.1,108Z"/><path d="M464.53,107.35a3.66,3.66,0,0,1,3.74-3.79,3.3,3.3,0,0,1,2.81,1.45l-.77.43a2.46,2.46,0,0,0-2-1.07,3,3,0,0,0,0,6,2.43,2.43,0,0,0,2-1.07l.79.43a3.36,3.36,0,0,1-2.83,1.45A3.66,3.66,0,0,1,464.53,107.35Z"/><path d="M472.34,103.68h.82V111h-.82Z"/><path d="M474.61,108.36c-.19-3.63,5.46-3.63,5.26,0C480.06,112,474.42,112,474.61,108.36Zm4.39,0a1.78,1.78,0,1,0-3.53,0A1.78,1.78,0,1,0,479,108.36Z"/><path d="M484.91,110.27a2.61,2.61,0,0,1-1.89.88,1.5,1.5,0,0,1-1.7-1.69V105.7h.83v3.5c0,.94.47,1.21,1.19,1.21a2,2,0,0,0,1.57-.8V105.7h.83V111h-.83Z"/><path d="M491.35,110.23a2.27,2.27,0,0,1-1.8.92c-1.38,0-2.36-1.06-2.36-2.78s1-2.8,2.36-2.8a2.21,2.21,0,0,1,1.8.94v-2.83h.82V111h-.82Zm0-3.06a2,2,0,0,0-1.6-.86c-1.07,0-1.7.88-1.7,2.06s.63,2,1.7,2a2,2,0,0,0,1.6-.83Z"/><path d="M353.23,217.82h2.51a3.67,3.67,0,1,1,0,7.34h-2.51Zm2.51,6.52a2.86,2.86,0,0,0,0-5.71h-1.59v5.71Z"/><path d="M363.32,219.71a2.58,2.58,0,0,1,2.55,2.85v.21h-4.3a1.88,1.88,0,0,0,1.91,1.84,2.3,2.3,0,0,0,1.64-.67l.4.54a2.91,2.91,0,0,1-2.11.81,2.64,2.64,0,0,1-2.71-2.79A2.66,2.66,0,0,1,363.32,219.71Zm-1.75,2.46h3.49a1.73,1.73,0,0,0-1.75-1.78A1.78,1.78,0,0,0,361.57,222.17Z"/><path d="M367.48,224.05v-3.48h-.88v-.73h.88v-1.45h.82v1.45h1.08v.73H368.3v3.3c0,.4.18.68.54.68a.8.8,0,0,0,.56-.22l.24.62a1.32,1.32,0,0,1-1,.34A1.08,1.08,0,0,1,367.48,224.05Z"/><path d="M373,219.71a2.59,2.59,0,0,1,2.55,2.85v.21h-4.3a1.87,1.87,0,0,0,1.91,1.84,2.31,2.31,0,0,0,1.64-.67l.4.54a2.94,2.94,0,0,1-2.12.81,2.63,2.63,0,0,1-2.7-2.79A2.66,2.66,0,0,1,373,219.71Zm-1.75,2.46h3.48a1.72,1.72,0,0,0-1.74-1.78A1.77,1.77,0,0,0,371.22,222.17Z"/><path d="M377,219.84h.82v.86a2.28,2.28,0,0,1,1.78-1v.85a1.61,1.61,0,0,0-.33,0,2,2,0,0,0-1.45.84v3.77H377Z"/><path d="M387.11,221.55c0-.67-.29-1.1-1-1.1a1.85,1.85,0,0,0-1.4.81v3.9h-.83v-3.61c0-.67-.29-1.1-1-1.1a1.89,1.89,0,0,0-1.4.82v3.89h-.82v-5.32h.82v.77a2.31,2.31,0,0,1,1.72-.9,1.36,1.36,0,0,1,1.43,1,2.25,2.25,0,0,1,1.78-1c1,0,1.49.54,1.49,1.61v3.84h-.83Z"/><path d="M389.55,218.44a.56.56,0,1,1,1.12,0,.56.56,0,0,1-1.12,0Zm.15,1.4h.82v5.32h-.82Z"/><path d="M395.87,221.68c0-.93-.47-1.23-1.19-1.23a2.07,2.07,0,0,0-1.57.82v3.89h-.83v-5.32h.83v.77a2.63,2.63,0,0,1,1.89-.9,1.51,1.51,0,0,1,1.69,1.72v3.73h-.82Z"/><path d="M400.76,219.71a2.59,2.59,0,0,1,2.56,2.85v.21H399a1.88,1.88,0,0,0,1.92,1.84,2.33,2.33,0,0,0,1.64-.67l.39.54a2.9,2.9,0,0,1-2.11.81,2.64,2.64,0,0,1-2.71-2.79A2.66,2.66,0,0,1,400.76,219.71ZM399,222.17h3.49a1.73,1.73,0,0,0-1.75-1.78A1.78,1.78,0,0,0,399,222.17Z"/><path d="M407.87,224.05v-3.48H407v-.73h.88v-1.45h.82v1.45h1.08v.73h-1.08v3.3c0,.4.18.68.54.68a.8.8,0,0,0,.56-.22l.25.62a1.35,1.35,0,0,1-1,.34A1.08,1.08,0,0,1,407.87,224.05Z"/><path d="M411.05,219.84h.82v.86a2.27,2.27,0,0,1,1.77-1v.85a1.55,1.55,0,0,0-.33,0,2,2,0,0,0-1.44.84v3.77h-.82Z"/><path d="M418.37,224.41a2.59,2.59,0,0,1-1.89.88,1.49,1.49,0,0,1-1.69-1.69v-3.76h.82v3.5c0,.94.47,1.21,1.19,1.21a2,2,0,0,0,1.57-.8v-3.91h.83v5.32h-.83Z"/><path d="M421.12,224.05v-3.48h-.88v-.73h.88v-1.45H422v1.45H423v.73H422v3.3c0,.4.17.68.54.68a.8.8,0,0,0,.56-.22l.24.62a1.35,1.35,0,0,1-1,.34A1.09,1.09,0,0,1,421.12,224.05Z"/><path d="M427.9,221.66c0-.94-.48-1.21-1.2-1.21a2.1,2.1,0,0,0-1.57.82v3.89h-.83v-7.34h.83v2.79a2.63,2.63,0,0,1,1.9-.9,1.5,1.5,0,0,1,1.7,1.7v3.75h-.83Z"/><path d="M370.48,235.55a2.29,2.29,0,0,1-1.77.74,1.77,1.77,0,0,1-1.85-1.76,1.73,1.73,0,0,1,1.85-1.75,2.23,2.23,0,0,1,1.77.73v-1c0-.72-.58-1.12-1.35-1.12a2.11,2.11,0,0,0-1.62.73l-.39-.57a2.78,2.78,0,0,1,2.12-.88c1.13,0,2.06.51,2.06,1.8v3.65h-.82Zm0-1.52a1.79,1.79,0,0,0-1.47-.66,1.17,1.17,0,1,0,0,2.33,1.79,1.79,0,0,0,1.47-.66Z"/><path d="M376.65,232.68c0-.93-.48-1.23-1.19-1.23a2.09,2.09,0,0,0-1.58.82v3.89h-.82v-5.32h.82v.77a2.65,2.65,0,0,1,1.9-.9,1.51,1.51,0,0,1,1.69,1.72v3.73h-.82Z"/><path d="M383.08,235.37a2.24,2.24,0,0,1-1.79.92c-1.39,0-2.37-1.06-2.37-2.78s1-2.8,2.37-2.8a2.21,2.21,0,0,1,1.79.94v-2.83h.83v7.34h-.83Zm0-3.06a2,2,0,0,0-1.59-.86c-1.07,0-1.71.88-1.71,2.06s.64,2,1.71,2a2,2,0,0,0,1.59-.83Z"/><path d="M388.47,229.44a.56.56,0,1,1,1.11,0,.56.56,0,0,1-1.11,0Zm.14,1.4h.83v5.32h-.83Z"/><path d="M394.78,232.68c0-.93-.47-1.23-1.18-1.23a2.09,2.09,0,0,0-1.58.82v3.89h-.82v-5.32H392v.77a2.65,2.65,0,0,1,1.9-.9,1.51,1.51,0,0,1,1.69,1.72v3.73h-.83Z"/><path d="M397.53,235.05v-3.48h-.88v-.73h.88v-1.45h.83v1.45h1.08v.73h-1.08v3.3c0,.4.17.68.54.68a.8.8,0,0,0,.56-.22l.24.62a1.35,1.35,0,0,1-1,.34A1.09,1.09,0,0,1,397.53,235.05Z"/><path d="M403,230.71a2.58,2.58,0,0,1,2.55,2.85v.21h-4.3a1.88,1.88,0,0,0,1.92,1.84,2.33,2.33,0,0,0,1.64-.67l.39.54a2.91,2.91,0,0,1-2.11.81,2.64,2.64,0,0,1-2.71-2.79A2.66,2.66,0,0,1,403,230.71Zm-1.75,2.46h3.49a1.73,1.73,0,0,0-1.75-1.78A1.78,1.78,0,0,0,401.27,233.17Z"/><path d="M410.6,232.68c0-.93-.47-1.23-1.19-1.23a2.09,2.09,0,0,0-1.57.82v3.89H407v-5.32h.82v.77a2.64,2.64,0,0,1,1.89-.9,1.52,1.52,0,0,1,1.7,1.72v3.73h-.83Z"/><path d="M413.35,235.05v-3.48h-.88v-.73h.88v-1.45h.83v1.45h1.08v.73h-1.08v3.3c0,.4.17.68.54.68a.8.8,0,0,0,.56-.22l.24.62a1.35,1.35,0,0,1-1,.34A1.09,1.09,0,0,1,413.35,235.05Z"/><line class="cls-10" x1="635.3" y1="91.93" x2="635.3" y2="96.34"/><line class="cls-10" x1="630.85" y1="91.93" x2="630.85" y2="96.34"/><line class="cls-10" x1="626.4" y1="91.93" x2="626.4" y2="96.34"/><line class="cls-10" x1="635.3" y1="83.11" x2="635.3" y2="87.52"/><line class="cls-10" x1="630.85" y1="83.11" x2="630.85" y2="87.52"/><line class="cls-10" x1="626.4" y1="83.11" x2="626.4" y2="87.52"/><line class="cls-10" x1="635.3" y1="74.28" x2="635.3" y2="78.7"/><line class="cls-10" x1="630.85" y1="74.28" x2="630.85" y2="78.7"/><line class="cls-10" x1="626.4" y1="74.28" x2="626.4" y2="78.7"/><path d="M602,75.75a.74.74,0,1,1-.74.74.74.74,0,0,1,.74-.74m0-1a1.74,1.74,0,1,0,1.74,1.74A1.74,1.74,0,0,0,602,74.75Z"/><path d="M602,84.58a.74.74,0,1,1-.74.73.74.74,0,0,1,.74-.73m0-1a1.74,1.74,0,1,0,1.74,1.73A1.74,1.74,0,0,0,602,83.58Z"/><path d="M602,93.4a.74.74,0,1,1-.74.74.74.74,0,0,1,.74-.74m0-1a1.74,1.74,0,1,0,1.74,1.74A1.74,1.74,0,0,0,602,92.4Z"/><path class="cls-13" d="M625.19,97.81h13.08a1.47,1.47,0,0,0,1.47-1.47V92a1.51,1.51,0,0,0-1.51-1.52H599.72a1.48,1.48,0,0,0-1.48,1.48v4.4a1.47,1.47,0,0,0,1.48,1.47h6"/><rect class="cls-13" x="598.24" y="81.64" width="41.5" height="7.35" rx="1.48"/><rect class="cls-13" x="598.24" y="72.81" width="41.5" height="7.35" rx="1.48"/><path d="M611.89,104.54a1.64,1.64,0,0,1-1.27.53,1.3,1.3,0,0,1-1.35-1.29,1.25,1.25,0,0,1,1.35-1.27,1.61,1.61,0,0,1,1.27.51v-.64c0-.48-.39-.77-.95-.77a1.55,1.55,0,0,0-1.16.51l-.32-.5a2.19,2.19,0,0,1,1.6-.63c.84,0,1.56.37,1.56,1.36V105h-.73Zm0-1.08a1.21,1.21,0,0,0-1-.45.78.78,0,1,0,0,1.55,1.21,1.21,0,0,0,1-.44Z"/><path d="M613.71,106.45v-5.37h.73v.56a1.57,1.57,0,0,1,1.27-.65c1,0,1.73.76,1.73,2s-.72,2-1.73,2a1.56,1.56,0,0,1-1.27-.66v2Zm1.81-4.82a1.33,1.33,0,0,0-1.08.57v1.65a1.33,1.33,0,0,0,1.08.57c.72,0,1.16-.58,1.16-1.4S616.24,101.63,615.52,101.63Z"/><path d="M618.29,106.45v-5.37H619v.56a1.57,1.57,0,0,1,1.27-.65c1,0,1.73.76,1.73,2s-.72,2-1.73,2a1.56,1.56,0,0,1-1.27-.66v2Zm1.81-4.82a1.33,1.33,0,0,0-1.08.57v1.65a1.33,1.33,0,0,0,1.08.57c.72,0,1.16-.58,1.16-1.4S620.82,101.63,620.1,101.63Z"/><rect class="cls-14" x="606.92" y="94.98" width="17.23" height="17.25" rx="3.67"/><rect class="cls-10" x="375.09" y="176.24" width="29.85" height="29.69"/><rect class="cls-10" x="380.71" y="181.84" width="18.61" height="18.5"/><line class="cls-10" x1="404.92" y1="202.97" x2="408.97" y2="202.97"/><line class="cls-10" x1="404.92" y1="198.15" x2="408.97" y2="198.15"/><line class="cls-10" x1="404.92" y1="193.33" x2="408.97" y2="193.33"/><line class="cls-10" x1="404.92" y1="188.5" x2="408.97" y2="188.5"/><line class="cls-10" x1="404.92" y1="183.68" x2="408.97" y2="183.68"/><line class="cls-10" x1="404.92" y1="178.86" x2="408.97" y2="178.86"/><line class="cls-10" x1="370.97" y1="202.97" x2="375.02" y2="202.97"/><line class="cls-10" x1="370.97" y1="198.15" x2="375.02" y2="198.15"/><line class="cls-10" x1="370.97" y1="193.33" x2="375.02" y2="193.33"/><line class="cls-10" x1="370.97" y1="188.5" x2="375.02" y2="188.5"/><line class="cls-10" x1="370.97" y1="183.68" x2="375.02" y2="183.68"/><line class="cls-10" x1="370.97" y1="178.86" x2="375.02" y2="178.86"/><line class="cls-10" x1="402.09" y1="176.06" x2="402.09" y2="172.03"/><line class="cls-10" x1="397.24" y1="176.06" x2="397.24" y2="172.03"/><line class="cls-10" x1="392.4" y1="176.06" x2="392.4" y2="172.03"/><line class="cls-10" x1="387.55" y1="176.06" x2="387.55" y2="172.03"/><line class="cls-10" x1="382.7" y1="176.06" x2="382.7" y2="172.03"/><line class="cls-10" x1="377.85" y1="176.06" x2="377.85" y2="172.03"/><line class="cls-10" x1="402.09" y1="210.03" x2="402.09" y2="206"/><line class="cls-10" x1="397.24" y1="210.03" x2="397.24" y2="206"/><line class="cls-10" x1="392.4" y1="210.03" x2="392.4" y2="206"/><line class="cls-10" x1="387.55" y1="210.03" x2="387.55" y2="206"/><line class="cls-10" x1="382.7" y1="210.03" x2="382.7" y2="206"/><line class="cls-10" x1="377.85" y1="210.03" x2="377.85" y2="206"/><text class="cls-15" transform="translate(383.44 195.24)">A.<tspan class="cls-16" x="9.46" y="0">I</tspan><tspan class="cls-17" x="11.24" y="0">.</tspan></text><circle class="cls-13" cx="192.66" cy="85.45" r="19.5"/><path d="M187.64,82.05h4.47v.88h-3.47v1.95h3.41v.88h-3.41v3h-1Z"/><path d="M193.41,87.11a2.23,2.23,0,0,0,1.82.84,1.33,1.33,0,0,0,1.44-1.3,1.29,1.29,0,0,0-1.42-1.31,2.05,2.05,0,0,0-1.5.6l-.72-.23V82.05h4.21v.88H194v2.13a2.21,2.21,0,0,1,1.53-.59,2.05,2.05,0,0,1,2.12,2.14,2.23,2.23,0,0,1-2.44,2.23,2.89,2.89,0,0,1-2.42-1Z"/><g id="mobile-phone"><path d="M98.92,70.26a.47.47,0,1,1,.48-.47A.48.48,0,0,1,98.92,70.26Z"/><path d="M98.92,68.83a1,1,0,1,0,1,1,1,1,0,0,0-1-1Z"/><line class="cls-10" x1="104.13" y1="101.96" x2="109.35" y2="101.96"/><path class="cls-10" d="M117.17,98.75v3.86a1.29,1.29,0,0,1-1.3,1.28H97.63a1.3,1.3,0,0,1-1.3-1.28V69.18a1.3,1.3,0,0,1,1.3-1.29h18.24a1.3,1.3,0,0,1,1.3,1.29v.67"/><rect class="cls-10" x="96.33" y="71.75" width="20.84" height="28.29" rx="1.29"/></g><g id="Group_12831" data-name="Group 12831"><rect id="Rectangle_9394" data-name="Rectangle 9394" class="cls-12" x="102.93" y="84.37" width="7.65" height="6.67"/><path id="Path_60586" data-name="Path 60586" class="cls-12" d="M109.63,84.37V82.48a2.86,2.86,0,0,0-5.71,0h0v1.89"/></g><g id="monitor"><polyline class="cls-10" points="89.67 99.72 89.67 101.33 44.67 101.33 44.67 96.5 89.67 96.5 89.67 70.79 44.67 70.79 44.67 93.29"/><line class="cls-10" x1="67.19" y1="101.48" x2="67.19" y2="104.54"/><line class="cls-10" x1="57.53" y1="104.54" x2="76.82" y2="104.54"/><circle cx="67.19" cy="98.91" r="1.01"/></g><g id="Group_12831-2" data-name="Group 12831"><rect id="Rectangle_9394-2" data-name="Rectangle 9394" class="cls-12" x="63.35" y="83.13" width="7.65" height="6.67"/><path id="Path_60586-2" data-name="Path 60586" class="cls-12" d="M70.05,83.13v-1.9a2.86,2.86,0,0,0-5.71,0h0v1.9"/></g><polyline class="cls-10" points="600.63 159.33 600.63 183.69 638.63 183.69 638.63 151.19 600.63 151.19 600.63 156.6 635.92 156.6"/><path class="cls-10" d="M623.87,167.61l2.94,2.93a1.35,1.35,0,0,1,1-.4,1.32,1.32,0,0,1,.68.2l4.09-7.15a1.33,1.33,0,0,1-.49-.48"/><path class="cls-10" d="M616.37,172.09l-3.62-1.44a1.34,1.34,0,0,1-2,.61l-3.93,5.88a1.3,1.3,0,0,1,.41.43"/><path class="cls-10" d="M616.37,172.09l.67.27a1.35,1.35,0,0,1,1.25-.86,1.41,1.41,0,0,1,.41.07l.36-1.09"/><path class="cls-10" d="M623.87,167.61,622,165.69a1.35,1.35,0,0,1-1,.39,1.32,1.32,0,0,1-.44-.08l-1.5,4.48"/><path class="cls-10" d="M612.75,170.65a1.44,1.44,0,0,0,.09-.51,1.34,1.34,0,1,0-2.1,1.12"/><path class="cls-10" d="M606.81,177.14a1.32,1.32,0,0,0-.74-.22,1.35,1.35,0,1,0,1.35,1.35,1.39,1.39,0,0,0-.2-.7"/><path class="cls-10" d="M617,172.36a1.34,1.34,0,0,0-.1.49,1.35,1.35,0,1,0,1.76-1.28"/><path class="cls-10" d="M622,165.69a1.39,1.39,0,0,0,.39-1,1.34,1.34,0,1,0-1.78,1.27"/><path class="cls-10" d="M626.81,170.54a1.35,1.35,0,1,0,1.63-.2"/><path class="cls-10" d="M632.53,163.19a1.35,1.35,0,1,0,.66-2.52,1.34,1.34,0,0,0-1.15,2"/></g></g></svg>