<?xml version="1.0" encoding="utf-8"?>
<!-- Generator: Adobe Illustrator 24.1.2, SVG Export Plug-In . SVG Version: 6.00 Build 0)  -->
<svg version="1.1" id="Layer_1" xmlns="http://www.w3.org/2000/svg" xmlns:xlink="http://www.w3.org/1999/xlink" x="0px" y="0px"
	 viewBox="0 0 130 46" style="enable-background:new 0 0 130 46;" xml:space="preserve">
<style type="text/css">
	.st0{fill-rule:evenodd;clip-rule:evenodd;fill:#6C778C;}
</style>
<g id="Page-1">
	<g id="Customer" transform="translate(0.000000, -33.000000)">
		<path id="betclic" class="st0" d="M86,42.6c0.9,0.1,1.7,0.3,2.5,0.7c0,0.5-0.1,0.9-0.1,1.4c-0.2,1.9-0.4,3.9-0.6,5.8
			c-0.6-0.4-1.2-0.8-1.8-1.1c-1.1-0.6-2.4-0.9-3.6-0.7c-2,0.1-4,0.9-5.6,2.2c-1,0.8-1.9,1.7-2.6,2.8s-1.1,2.3-1.3,3.6
			c-0.2,1.2-0.2,2.6,0.3,3.8c0.4,1,1.1,1.8,1.9,2.4c1.3,0.9,2.9,1.1,4.5,1c1.3-0.1,2.5-0.7,3.5-1.4c0.3-0.2,0.6-0.4,0.9-0.6
			c-0.4,1.5-0.8,3.1-1.2,4.6c-0.2,0.8-0.4,1.7-0.7,2.5c-0.5,0.3-1,0.3-1.6,0.5c-1.2,0.2-2.5,0.4-3.7,0.4c-1.9,0-3.9-0.3-5.6-1.1
			c-1-0.4-1.9-1-2.7-1.7c-1-0.9-1.7-1.9-2.2-3.1c-0.7-1.6-0.9-3.3-0.8-5c0.2-3,1.3-5.8,2.9-8.3c2.7-4.2,7.1-7.2,11.9-8.3
			C82.2,42.5,84.1,42.4,86,42.6z M97.5,43.5c-2.3,9-4.7,18-7.1,27h-5.9c2.4-9,4.7-18,7.1-27H97.5z M104.5,50.5
			c-1.7,6.7-3.4,13.3-5.2,20h-5.8c1.7-6.7,3.4-13.3,5.2-20H104.5z M63.7,43.5c-0.6,2.1-1.1,4.3-1.7,6.4c1.9,0,3.7,0,5.6,0
			c-1.2,1.5-2.2,3.2-2.7,5.1c-1.4,0-2.8,0-4.2,0c-0.6,2.4-1.3,4.8-1.9,7.2c-0.1,0.6-0.1,1.2,0.2,1.7c0.4,0.5,1.1,0.6,1.7,0.7
			c0.7,0,1.5,0,2.2-0.2c-0.7,1.3-1.5,2.6-2.2,4c-0.4,0.7-0.7,1.4-1.1,2c-0.6,0.1-1.3,0.1-2,0.1c-1.3-0.1-2.7-0.4-3.8-1.2
			c-0.8-0.6-1.4-1.6-1.5-2.6c-0.2-1.4,0-2.8,0.4-4.2c0.7-2.5,1.3-5,2-7.5h-3.1l0,0c0.8-1.7,1.7-3.4,2.6-5.1c0.6,0,1.3,0,1.9,0
			c0.4-1.3,0.7-2.7,1.1-4c1.6-0.6,3.1-1.1,4.7-1.7C62.4,44,63,43.7,63.7,43.5z M12.5,43.5c2.5,0,5,0,7.5,0c0.7,0,1.3,0,2,0.1
			c1.5,0.2,3,0.5,4.3,1.3c1,0.7,1.9,1.7,2.1,3s-0.1,2.6-0.5,3.8c-0.8,2-2.3,3.6-4.3,4.5c-0.1,0-0.2,0.1-0.3,0.2
			c0.4,0.2,0.9,0.5,1.2,0.8c1,0.9,1.5,2.3,1.5,3.6s-0.3,2.7-0.9,3.9c-1.2,2.6-3.5,4.5-6.2,5.2c-2.2,0.7-4.5,0.6-6.8,0.6H5.5v-0.1
			c1.9-7.2,3.7-14.3,5.6-21.5C11.6,47.1,12,45.3,12.5,43.5z M41.7,49.5c1.8,0,3.5,0.6,4.9,1.6c1.5,1,2.6,2.7,2.9,4.4
			c-5,2.7-10,5.4-15,8.1c0,0.2,0.2,0.4,0.3,0.5c0.5,0.5,1.2,0.8,2,0.9c1.4,0.1,2.9-0.2,4.2-0.8c1-0.4,1.9-0.9,2.8-1.5l1.9,4.6l0,0
			c-2.5,1.5-5.3,2.7-8.3,3c-1,0.1-2.1,0.1-3.1,0c-2.5-0.3-4.8-2-5.8-4.3c-0.9-1.8-1.1-4-0.5-5.9c0.4-1.9,1.4-3.6,2.6-5.1
			c2-2.4,4.6-4.3,7.6-5.2C39.2,49.6,40.5,49.4,41.7,49.5z M118.3,49.5c2.3,0,4.6,0.8,6.2,2.4l0,0c-0.5,0.4-1,1-1.5,1.4
			c-1,1-2,1.9-2.9,2.9c-0.4-0.4-0.9-0.8-1.5-1c-1.5-0.6-3.3-0.5-4.7,0.2c-1.1,0.5-2.1,1.3-2.8,2.4c-0.6,1-1,2.1-1,3.3
			c-0.1,0.9,0.1,1.8,0.6,2.5c0.4,0.6,1.1,1.1,1.8,1.3c0.6,0.2,1.3,0.2,2,0.2c1.4-0.1,2.6-0.6,3.7-1.4c0.2,0.2,0.3,0.5,0.4,0.7
			c0.6,1.2,1.2,2.4,1.8,3.5c-0.4,0.3-0.8,0.6-1.2,0.8c-1.4,0.7-2.8,1.2-4.4,1.5c-1.4,0.3-2.9,0.3-4.4,0.1c-1.3-0.2-2.6-0.6-3.6-1.4
			c-1.1-0.8-2-1.8-2.6-3.1c-0.6-1.5-0.7-3.2-0.4-4.8c0.3-1.3,0.8-2.7,1.4-3.9s1.4-2.2,2.3-3.2C110.2,51.2,114.2,49.4,118.3,49.5z
			 M14.8,59.6c-0.5,1.9-1,3.7-1.5,5.6c0.6,0,1.2,0,1.8,0c1.1,0,2.2-0.2,3-0.8c0.7-0.5,1.1-1.3,1.3-2.1c0.1-0.6,0.2-1.4-0.2-1.9
			c-0.4-0.4-0.9-0.5-1.3-0.6C16.9,59.5,15.9,59.6,14.8,59.6z M38.5,54.7c-1.3,0.4-2.3,1.2-3.2,2.2c-0.8,0.9-1.3,2-1.6,3.2
			c2.9-1.6,5.7-3.2,8.6-4.8c-0.4-0.5-1-0.7-1.6-0.7C40,54.5,39.2,54.5,38.5,54.7z M17.6,48.8c-0.5,1.8-1,3.6-1.4,5.4
			c1,0,2,0.1,3-0.2c0.8-0.2,1.6-0.8,2-1.6c0.4-0.7,0.6-1.5,0.4-2.2c-0.1-0.5-0.5-0.9-0.9-1.1C19.7,48.7,18.6,48.9,17.6,48.8z
			 M103.9,41.8c0.8,0.4,1.3,1.2,1.5,2.1c0.3,1.3-0.1,2.8-1,3.7c-0.5,0.5-1,0.8-1.7,0.9c-0.8,0.2-1.7-0.1-2.3-0.7
			c-0.9-0.9-1.1-2.4-0.7-3.7c0.4-1.2,1.3-2.2,2.5-2.5C102.8,41.5,103.4,41.5,103.9,41.8z"/>
	</g>
</g>
</svg>
