<?xml version="1.0" encoding="utf-8"?>
<!-- Generator: Adobe Illustrator 24.1.2, SVG Export Plug-In . SVG Version: 6.00 Build 0)  -->
<svg version="1.1" id="Layer_1" xmlns="http://www.w3.org/2000/svg" xmlns:xlink="http://www.w3.org/1999/xlink" x="0px" y="0px"
	 viewBox="0 0 130 46" style="enable-background:new 0 0 130 46;" xml:space="preserve">
<style type="text/css">
	.st0{fill-rule:evenodd;clip-rule:evenodd;fill:#6C778C;}
</style>
<g id="Page-1">
	<g id="Customer" transform="translate(-1266.000000, -38.000000)">
		<path id="cdiscount" class="st0" d="M1277.5,52c3,0,5.9,1.3,7.8,3.6l0,0l0.2,0.2l-3.3,2.8l-0.2-0.2c-1-1.4-2.7-2.3-4.5-2.3
			c-1.5,0-2.9,0.5-4,1.5s-1.6,2.4-1.6,4c0,3.1,2.4,5.5,5.6,5.5c1.8,0,3.5-0.8,4.5-2.3l0,0l0.2-0.2l3.3,2.8l-0.2,0.2
			c-1.9,2.2-4.8,3.5-7.8,3.5c-5.5,0-10-4.3-10-9.5C1267.5,56.3,1272,52,1277.5,52z M1300.2,51v18.8h-3.6V69c-1.1,0.6-2.6,1-4.1,1
			c-3.9,0-7.1-2.8-7.1-7s3.2-7,7.1-7c1.4,0,2.8,0.4,4.1,1v-6H1300.2z M1367.1,56.4v13.4h-3.6v-0.9c-1.1,0.7-2.4,1.1-3.8,1.1
			c-4.1,0-6-1.8-6-6.2v-7.4h3.6v7.4c0,2.1,1.1,3.1,3,3.1c1.3,0,2.3-0.4,3.2-1.1v-9.4H1367.1z M1330,56c2.2,0,4.2,1,5.4,2.7l-2.3,2.1
			c-0.7-1-1.9-1.6-3.1-1.6c-2.3,0-4.1,1.7-4.1,3.9c0,2.1,1.8,3.9,4.1,3.9c1.3,0,2.4-0.6,3.1-1.7l2.3,2.1c-1.3,1.7-3.2,2.7-5.4,2.7
			c-4.2,0-7.6-3.1-7.6-7C1322.4,59.1,1325.8,56,1330,56z M1314.8,56c2.2,0,3.9,0.5,5.4,1.1l-1.2,2.5c-1.4-0.5-2.9-0.9-4.3-0.9
			s-2,0.5-2,1.2s0.8,1.1,3.1,1.5c3.2,0.7,5.1,1.7,5.1,4.2c0,2.6-2,4.3-5.6,4.3c-2.4,0-4-0.3-6-1.3l1.3-2.6c1.7,0.7,3,1.1,4.8,1.1
			c1.6,0,2.3-0.6,2.3-1.3c0-0.8-0.8-1.1-2.9-1.6c-3-0.6-5.2-1.6-5.2-4.2C1309.5,57.7,1311.5,56,1314.8,56z M1390.6,51v5.3h3.9v2.9
			h-3.9V64c0,2.4,0.4,3.1,2.2,3.1c0.6,0,1.2-0.1,1.6-0.1v2.5c-0.2,0-1.2,0.5-3.2,0.5c-2.3,0-4.2-1.4-4.2-4.3v-6.6h-2v-2.9h2v-5.3
			h3.6V51z M1344.1,56c4.2,0,7.6,3.1,7.6,7s-3.4,7-7.6,7s-7.6-3.1-7.6-7C1336.4,59.1,1339.9,56,1344.1,56z M1377.4,56
			c4.1,0,6,1.8,6,6.2v7.5h-3.6v-7.5c0-2.1-1.1-3.1-3-3.1c-1.3,0-2.3,0.4-3.1,1.1v9.6h-3.6V56.3h3.6v0.8
			C1374.7,56.4,1376,56,1377.4,56z M1306.8,57.3v12.4h-3.6V57.3H1306.8z M1344.1,59.1c-2.3,0-4.1,1.7-4.1,3.9c0,2.1,1.8,3.9,4.1,3.9
			c2.3,0,4.1-1.7,4.1-3.9C1348.2,60.9,1346.4,59.1,1344.1,59.1z M1293.2,59.1c-2.4,0-4.2,1.7-4.2,3.9c0,2.3,1.8,3.9,4.2,3.9
			c1.3,0,2.6-0.4,3.4-1.2v-5.4C1295.8,59.6,1294.6,59.1,1293.2,59.1z M1305.5,51c1.1,0,2,0.9,2,2s-0.9,2-2,2s-2-0.9-2-2
			S1304.4,51,1305.5,51z"/>
	</g>
</g>
</svg>
