<?xml version="1.0" encoding="utf-8"?>
<!-- Generator: Adobe Illustrator 24.1.2, SVG Export Plug-In . SVG Version: 6.00 Build 0)  -->
<svg version="1.1" id="Layer_1" xmlns="http://www.w3.org/2000/svg" xmlns:xlink="http://www.w3.org/1999/xlink" x="0px" y="0px"
	 viewBox="0 0 130 46" style="enable-background:new 0 0 130 46;" xml:space="preserve">
<style type="text/css">
	.st0{fill-rule:evenodd;clip-rule:evenodd;fill:#FDFDFD;}
	.st1{fill-rule:evenodd;clip-rule:evenodd;fill:#6C778C;}
	.st2{fill-rule:evenodd;clip-rule:evenodd;fill:#A0A7C2;}
</style>
<g id="Page-1">
	<g id="Customer" transform="translate(-1447.000000, -33.000000)">
		<g id="cybertest" transform="translate(1447.000000, 33.000000)">
			<path id="Fill-1" class="st0" d="M89.4,13.4l-0.1-0.1c0-0.2,0-0.4,0-0.6c0.1-0.4-0.1-0.5-0.5-0.5c-0.7,0-1.3,0-2,0
				c-0.3,0-0.4,0.1-0.4,0.4c0,4,0,7.9,0,11.9c0,0.3,0.1,0.4,0.4,0.4c0.6,0,1.3,0,1.9,0c0.5,0,0.6-0.1,0.6-0.6c0-2.6,0-5.1,0-7.7
				c0-1.4,0.5-1.9,1.9-1.9c0.2,0,0.3,0,0.5,0s0.4,0,0.4-0.3c0-0.6,0-1.2,0-1.9c0-0.3-0.1-0.3-0.3-0.3C90.6,12,89.8,12.4,89.4,13.4"
				/>
			<path id="Fill-8" class="st0" d="M59.7,24.3c-0.1,1.1-0.4,1.5-1.3,1.7c-0.5,0.1-1.2-0.3-1.5,0.2c-0.2,0.4,0,1.1-0.1,1.6
				c0,0.4,0.1,0.5,0.5,0.5s0.9,0,1.3,0c1.8,0,3-1,3.4-2.8c0.9-4.3,1.8-8.6,2.7-13c0.1-0.4,0-0.4-0.3-0.4c-0.7,0-1.4,0-2,0
				c-0.4,0-0.5,0.1-0.6,0.5c-0.4,2.2-0.7,4.4-1.1,6.6c-0.1,0.8-0.3,1.6-0.4,2.4c-0.6-3-1.2-5.9-1.7-8.9c-0.1-0.4-0.2-0.6-0.6-0.6
				c-0.6,0-1.3,0-1.9,0c-0.5,0-0.6,0.2-0.4,0.6c0.8,3.4,1.6,6.8,2.4,10.1c0.1,0.4,0.1,1,0.4,1.3C58.7,24.5,59.3,24.2,59.7,24.3"/>
			<path id="Fill-14" class="st0" d="M117.3,24.7c0.5,0,1,0,1.5,0c1.5-0.1,2.2-0.9,2.3-2.3c0-0.9,0-1.8,0-2.7
				c-0.1-1.4-0.8-2.1-2.2-2.2c-0.7-0.1-1.4,0-2-0.1c-0.5,0-0.7-0.2-0.7-0.7s0-1,0-1.6c0-0.9,0.1-0.9,1-1c0.1,0,0.2,0,0.4,0
				c0.4,0,0.6,0.2,0.6,0.6c0,1,0.1,1,1,1h0.4c1.5,0,1.5,0,1.4-1.6c-0.1-1.2-0.8-1.9-1.9-2.1c-1.3-0.2-2.5-0.2-3.8,0
				c-1.1,0.1-1.7,0.8-1.9,1.9c-0.1,1.1-0.1,2.2,0,3.3c0.1,1.3,0.8,2,2.1,2.1c0.7,0.1,1.4,0,2,0.1c0.5,0,0.7,0.2,0.7,0.7
				c0,0.6,0,1.1,0,1.7c0,0.5-0.2,0.8-0.8,0.8c-0.2,0-0.4,0-0.6,0c-0.4,0-0.6-0.2-0.6-0.6c0-0.3,0.2-0.8-0.1-1c-0.3-0.2-0.7,0-1.1,0
				c-0.1,0-0.2,0-0.3,0c-1.4,0-1.4,0-1.3,1.4c0.1,1.2,0.7,1.9,1.9,2.2C116,24.8,116.6,24.7,117.3,24.7"/>
			<path id="Fill-16" class="st0" d="M46.5,18.5L46.5,18.5c0,1.3,0,2.6,0,3.9c0,1.4,0.8,2.3,2.2,2.3c1.2,0.1,2.5,0.1,3.7,0
				c1.4-0.1,2.2-1,2.2-2.4c0-0.5,0-0.9,0-1.4c0-0.4-0.1-0.4-0.4-0.4c-0.6,0-1.2,0-1.9,0c-0.5,0-0.6,0.1-0.6,0.6c0,1.4,0,1.4-1.4,1.4
				h-0.1c-0.8,0-0.9-0.1-0.9-0.9c0-2,0-3.9,0-5.9c0-1.4,0-1.4,1.4-1.4c0.9,0,0.9,0.1,0.9,0.9c0,1.1,0,1.1,1.1,1.1
				c0.6,0,1.4,0.3,1.7-0.1s0.1-1.2,0.1-1.8c0-1.3-0.8-2.1-2.1-2.3c-1.2-0.2-2.5-0.1-3.7,0c-1.7,0.1-2.4,0.9-2.4,2.6
				C46.5,16,46.5,17.2,46.5,18.5"/>
			<path id="Fill-18" class="st0" d="M123.3,18.6v1.8c0,0.6,0,1.2,0,1.8c0,1.6,0.8,2.4,2.4,2.5c0.2,0,0.4,0,0.7,0
				c0.5,0,1.1,0.2,1.4-0.1c0.3-0.3,0.1-0.9,0.1-1.4c0-0.8,0-0.8-0.8-0.8s-0.9-0.1-0.9-0.9c0-2.2,0-4.4,0-6.6c0-0.4,0.1-0.5,0.5-0.5
				c1.3,0,1.3,0,1.3-1.3c0-1,0-1-1-1c-0.6,0-0.8-0.1-0.7-0.7c0.1-0.4,0-0.8,0-1.1s0-0.4-0.4-0.4c-0.7,0-1.4,0-2.2,0
				c-0.3,0-0.4,0.1-0.4,0.4c0,0.5,0,1,0,1.5c0,0.2,0,0.4-0.3,0.4c-0.9,0.1-0.9,0.1-0.9,1.1c0,0.2,0,0.4,0,0.5
				c-0.1,0.6,0.1,0.8,0.7,0.7c0.5-0.1,0.6,0.1,0.6,0.6C123.2,16.2,123.3,17.4,123.3,18.6"/>
			<path id="Fill-20" class="st0" d="M97.6,18.7c0,1.2,0,2.3,0,3.5c0,1.7,0.8,2.5,2.5,2.6c0.2,0,0.4,0,0.6,0c0.5,0,1.1,0.2,1.4-0.1
				c0.3-0.3,0.1-0.9,0.1-1.4c0-0.8,0-0.8-0.8-0.8s-0.9-0.1-0.9-0.9c0-2.1,0-4.2,0-6.3c0-0.8,0-0.8,0.8-0.8c0.9,0,0.9,0,0.9-0.9
				c0-0.4,0.2-1-0.1-1.3c-0.3-0.3-0.8-0.1-1.2-0.1c-0.3,0-0.4-0.1-0.4-0.4c0-0.5,0-1,0-1.4c0-0.3,0-0.4-0.4-0.4c-0.7,0-1.4,0-2.2,0
				c-0.3,0-0.4,0.1-0.4,0.4c0,0.5,0,1,0,1.5c0,0.2,0,0.4-0.3,0.4c-1,0.1-1,0.1-1,1.1c0,0.1,0,0.3,0,0.4c-0.1,0.6,0.2,0.9,0.8,0.8
				c0.4-0.1,0.5,0.1,0.5,0.5C97.6,16.2,97.6,17.4,97.6,18.7"/>
			<path id="Fill-22" class="st0" d="M106.7,31.3c0.2,0.1,0.1,0.3,0.1,0.4c0.1,1.9,0.2,3.7,0.2,5.6c0,0.5,0.2,0.5,0.6,0.5
				c0.5,0,0.4-0.3,0.4-0.5c-0.1-2-0.2-4-0.3-6c0-0.3,0.1-0.7-0.5-0.8c-1-0.1-1.2,0-1.4,0.6c-0.5,1.6-1,3.2-1.5,4.8
				c0,0.1,0,0.4-0.3,0.4c0-0.1-0.1-0.3-0.1-0.4c-0.5-1.6-1-3.2-1.5-4.8c-0.1-0.4-0.3-0.6-0.7-0.5c-0.2,0-0.5,0-0.7,0
				c-0.3,0-0.5,0.2-0.5,0.5c-0.1,2.2-0.2,4.3-0.3,6.5c0,0.1-0.1,0.3,0.2,0.3c0.5,0.2,0.8,0,0.8-0.6c0.1-1.8,0.1-3.7,0.2-5.5
				c0-0.1-0.1-0.3,0.1-0.4c0.2,0.1,0.1,0.2,0.2,0.3c0.5,1.6,1,3.2,1.5,4.8c0.2,0.6,0.5,0.5,1,0.5c0.4,0,0.7,0,0.8-0.5
				c0.4-1.6,0.9-3.1,1.4-4.7C106.5,31.6,106.5,31.4,106.7,31.3"/>
			<path id="Fill-24" class="st0" d="M58.6,37.1L58.6,37.1c-0.4,0-0.8,0-1.1,0s-0.4,0.1-0.4,0.4c0,0.3,0.1,0.4,0.4,0.4
				c0.9,0.1,1.7,0.2,2.6,0.1c0.5,0,1-0.1,1.4-0.5c0.9-1.1,0.3-3.1-1-3.5c-0.6-0.2-1.2-0.3-1.8-0.5s-0.8-0.6-0.7-1.4
				c0.1-0.6,0.4-0.8,0.9-0.8c0.7,0,1.4,0,2.2,0c0.3,0,0.4,0,0.5-0.4c0.1-0.3-0.2-0.4-0.4-0.4c-1-0.1-2-0.2-2.9-0.1
				c-0.3,0.1-0.7,0.2-0.9,0.5c-0.9,1.1-0.3,3,1.1,3.4c0.6,0.2,1.1,0.3,1.7,0.4c0.7,0.2,0.9,0.6,0.8,1.5c-0.1,0.6-0.3,0.8-1,0.8
				C59.4,37.1,59,37.1,58.6,37.1"/>
			<path id="Fill-26" class="st0" d="M113.7,37L113.7,37c-0.4,0-0.8,0-1.1,0c-0.2,0-0.4,0-0.4,0.3s0,0.4,0.3,0.4
				c0.9,0.1,1.8,0.2,2.7,0.1c1.1-0.1,1.6-0.6,1.7-1.6c0.1-1.4-0.3-2.1-1.3-2.4c-0.6-0.2-1.2-0.3-1.8-0.5c-0.6-0.2-0.8-0.6-0.7-1.5
				c0.1-0.6,0.5-0.8,1-0.8c0.7,0,1.4,0,2.2,0c0.3,0,0.4,0,0.4-0.3s-0.1-0.4-0.3-0.4c-1-0.1-2-0.2-3.1,0c-0.3,0.1-0.6,0.2-0.8,0.5
				c-0.9,1.1-0.2,3,1.1,3.4c0.6,0.2,1.2,0.3,1.7,0.5c0.6,0.2,0.8,0.6,0.7,1.5c-0.1,0.6-0.4,0.8-0.9,0.8
				C114.5,37.1,114.1,37,113.7,37"/>
			<path id="Fill-28" class="st0" d="M75.8,37L75.8,37c-0.4,0-0.8,0-1.2,0c-0.3,0-0.3,0.1-0.4,0.4c0,0.3,0,0.4,0.3,0.4
				c0.9,0.1,1.9,0.2,2.8,0.1c1-0.1,1.5-0.6,1.6-1.5c0.1-1.4-0.2-2.1-1.3-2.5c-0.6-0.2-1.2-0.3-1.8-0.5C75.2,33.2,75,32.8,75,32
				c0.1-0.6,0.5-0.8,1-0.8c0.7,0,1.4,0,2.1,0c0.3,0,0.4,0,0.5-0.3c0-0.3-0.1-0.4-0.4-0.4c-1-0.1-2-0.2-2.9-0.1
				c-0.3,0.1-0.7,0.2-0.9,0.5c-0.9,1.1-0.3,3,1,3.4c0.6,0.2,1.2,0.3,1.9,0.5c0.5,0.2,0.7,0.6,0.6,1.4c0,0.5-0.4,0.8-0.8,0.8
				C76.7,37.1,76.3,37,75.8,37"/>
			<path id="Fill-30" class="st0" d="M91.8,34.1c0,0.8,0,1.6,0,2.4c0,0.8,0.5,1.3,1.3,1.4c0.9,0,1.9,0,2.8,0c0.3,0,0.4-0.1,0.4-0.4
				c0-0.4-0.2-0.4-0.5-0.4c-0.8,0-1.6,0-2.4,0c-0.5,0-0.7-0.2-0.7-0.7s0-1,0-1.6c0-0.3,0.1-0.4,0.4-0.4c0.7,0,1.4,0,2.1,0
				c0.3,0,0.7,0.2,0.7-0.4c0-0.6-0.4-0.3-0.6-0.4c-0.4,0-0.8,0-1.1,0c-1.4,0-1.4,0-1.4-1.5c0-0.7,0.2-0.8,0.8-0.8c0.8,0,1.6,0,2.4,0
				c0.3,0,0.4-0.1,0.4-0.4s-0.1-0.4-0.4-0.4c-0.9,0-1.9-0.1-2.8,0c-0.9,0-1.3,0.5-1.3,1.4C91.8,32.6,91.8,33.3,91.8,34.1"/>
			<path id="Fill-32" class="st0" d="M65.1,30.5c0.4,0.8,0.7,1.5,1.1,2.2c0.8,1.5,1.5,2.9,1.3,4.7c0,0.1,0,0.1,0,0.2
				c0,0.1,0.1,0.2,0.2,0.2c0.5,0.1,0.8,0,0.8-0.6c-0.1-1.4,0.2-2.6,0.9-3.8c0.6-0.9,1-1.9,1.5-2.9c-0.7-0.2-1.1,0-1.3,0.6
				c-0.5,1.1-1,2.1-1.6,3.2c-0.4-1.1-1-2.1-1.5-3.1C66.1,30.5,65.8,30.3,65.1,30.5"/>
			<path id="Fill-34" class="st0" d="M84.7,34.5c0,0.9,0,1.8,0,2.7c0,0.4,0,0.6,0.5,0.6c0.4,0,0.5-0.2,0.5-0.5c0-1.8,0-3.7,0-5.5
				c0-0.4,0.1-0.5,0.5-0.5c0.5,0,1,0,1.4,0s0.4-0.1,0.4-0.4s-0.1-0.4-0.4-0.4c-1.6,0-3.3,0-4.9,0c-0.4,0-0.4,0.2-0.4,0.4
				c0,0.3,0,0.4,0.4,0.4c0.5,0,1,0,1.5,0c0.4,0,0.5,0.1,0.5,0.5C84.7,32.7,84.7,33.6,84.7,34.5"/>
			<path id="Combined-Shape" class="st1" d="M12.1,9.2l0.1,0.1l0,0c1.6,1.4,3.6,2,5.7,2.1c1.3,0.1,2.7,0.3,4,0.4c1,0.1,2-0.1,3-0.2
				c1.5-0.1,3.1-0.4,4.6-0.5c0.3,0,0.6-0.1,0.9-0.3c1.1-0.8,2.3-1.5,3.4-2.3c0.3-0.2,0.6-0.3,1-0.3c1.1,0,2.1,0,3.2,0
				c0.3,0,0.5,0.1,0.6,0.4c0.4,1.4,0.7,2.8,1.1,4.1c0.1,0.3,0,0.5-0.1,0.7c-0.6,1.4-1.2,2.8-1.8,4.3c-0.1,0.3-0.1,0.5,0,0.8
				c1.6,3.1,3.2,6.3,4.8,9.4c0.2,0.4,0.1,0.5-0.2,0.7c-6.5,2.8-13,5.7-19.5,8.6c-0.4,0.2-0.7,0.2-1.1,0c-6.5-2.9-13-5.7-19.5-8.6
				c-0.4-0.2-0.4-0.3-0.2-0.7c1.6-3.1,3.1-6.2,4.7-9.3C7,18.3,7,18,6.8,17.7c-0.6-1.4-1.2-2.8-1.8-4.2c0-0.3,0-0.5,0-0.8
				c0.4-1.4,0.8-2.8,1.2-4.2c0.1-0.3,0.2-0.4,0.5-0.4c0.6,0,1.2,0,2,0C9.9,7.8,11,8.3,12.1,9.2z M16.2,19.2
				c-1.9-0.1-3.4,0.6-4.8,1.9c-1.3,1.2-2.4,2.7-3.6,4c-0.7,0.8-1.5,1.5-2.5,2c-0.3,0.1-0.6,0.2-0.9,0.2c-0.1,0.2,0.1,0.2,0.3,0.2
				c2,0,3.9-0.4,5.3-1.9c1.8-2,4-2.5,6.5-2.2c0.4,0,0.4,0.1,0.3,0.5c-0.1,0.5,0.2,0.9,0.7,1s1-0.3,1-0.7c-0.1-0.7,0.2-0.7,0.6-0.7
				c0.1,0,0.3,0,0.4-0.1c0.3-0.1,0.5,0,0.6,0.3c0.3,0.8,0.6,1.5,0.9,2.3c0.2,0.3,0.1,0.4-0.3,0.5c-2.9,0.7-4.8,2.5-6.2,5
				c-0.1,0.3-0.2,0.4,0.2,0.5c2.5,1.1,4.9,2.2,7.4,3.2c0.2,0.1,0.4,0.1,0.6,0c2.5-1.1,5-2.2,7.5-3.3c0.3-0.1,0.3-0.2,0.2-0.4
				c-1.1-2.1-2.6-3.7-4.9-4.6c-0.6-0.2-1.2-0.4-1.8-0.6c0.2-0.6,0.5-1.2,0.7-1.8c0.4-1.1,0.4-1.1,1.6-1c0.2,0,0.3,0,0.3,0.3
				c0,0.6,0.4,1,0.9,0.9c0.6,0,0.9-0.5,0.8-1.1c-0.1-0.2-0.1-0.3,0.2-0.3c2.4-0.3,4.6,0,6.3,1.9c1.5,1.7,3.4,2.3,5.6,2.3
				c-0.2-0.3-0.5-0.3-0.8-0.4c-1.3-0.7-2.3-1.8-3.2-2.9c-0.9-1-1.7-2.1-2.6-3c-2.2-2.1-4.7-2.4-7.4-1.5c-0.8,0.3-1.6,0.6-2.3,0.9
				c-0.9,0.4-1.7,0.4-2.6,0C19.5,19.8,17.9,19.3,16.2,19.2z M36,9.9c-0.8,0-1.5,0.2-2.2,0.7c-1,0.8-2.1,1.4-3.1,2.1
				c0,0.2,0.2,0.2,0.3,0.3c0.9,0.7,1.8,1.4,2.6,2.3c0.8,0.9,1.5,2,2.2,3c0.5-1.1,0.8-2.3,1.4-3.4c0.7-1.3,0.8-2.6,0.3-3.9
				C37,9.9,37.1,9.9,36,9.9z M9.7,9.9c-0.6,0-1.1,0-1.7,0c-0.3,0-0.4,0.1-0.4,0.3C7.4,11,7.2,11.7,7,12.5c-0.1,0.3-0.1,0.6,0.1,0.9
				c0.7,1.6,1.4,3.2,2,4.9c1.3-2.2,2.9-4.2,5.2-5.5c-1.3-0.8-2.6-1.7-3.9-2.5C10.1,10,9.9,9.9,9.7,9.9z"/>
			<path id="Combined-Shape_1_" class="st1" d="M66.7,7.5c0.6,0,1.2,0,1.9,0c0.4,0,0.5,0.1,0.5,0.5c0,1.6,0,3.3,0,5.1
				c0.5-0.8,1.2-1,1.9-1c0.7,0,1.5,0,2.1,0.3s0.9,0.8,1.1,1.4c0.1,0.3,0.1,0.6,0.1,1c0,2.4,0,4.8,0,7.2c0,1.9-0.8,2.7-2.7,2.7
				c-0.2,0-0.4,0-0.7,0c-0.7,0-1.4-0.2-1.8-1c0,1,0,1-0.9,1c-0.7,0-1.5,0.3-1.9-0.1c-0.3-0.4-0.1-1.2-0.1-1.9c0-4.9,0-9.8,0-14.7
				C66.1,7.6,66.3,7.5,66.7,7.5z M71.2,14.5c-0.5-0.3-1.1-0.2-1.6-0.1c-0.4,0.1-0.5,0.6-0.5,1c0,1.9,0,3.8,0,5.7
				c0,1.3,0.1,1.4,1.4,1.4h0.1c0.5,0,0.7-0.2,0.7-0.7c0-1.1,0-2.2,0-3.3c0-1.1,0-2.2,0-3.3C71.3,14.9,71.4,14.6,71.2,14.5z"/>
			<path id="Fill-45" class="st1" d="M59.7,24.3c-0.4-0.1-1,0.2-1.3-0.2c-0.3-0.3-0.3-0.9-0.4-1.3c-0.8-3.4-1.6-6.8-2.4-10.1
				c-0.1-0.4-0.1-0.6,0.4-0.6c0.6,0,1.3,0,1.9,0c0.5,0,0.6,0.2,0.6,0.6c0.5,3,1.1,5.9,1.7,8.9c0.1-0.8,0.3-1.6,0.4-2.4
				c0.4-2.2,0.8-4.4,1.1-6.6c0.1-0.4,0.2-0.5,0.6-0.5c0.7,0,1.4,0,2,0c0.3,0,0.4,0,0.3,0.4c-0.9,4.3-1.8,8.6-2.7,13
				c-0.4,1.8-1.6,2.8-3.4,2.8c-0.4,0-0.9,0-1.3,0c-0.4,0-0.6-0.1-0.5-0.5c0-0.5-0.2-1.2,0.1-1.6c0.3-0.5,1-0.1,1.5-0.2
				C59.3,25.9,59.6,25.4,59.7,24.3"/>
			<path id="Combined-Shape_2_" class="st1" d="M109.7,12.2c1.3,0.2,2,0.9,2,2.3c0,1.5,0,2.9,0,4.4c0,0.4-0.1,0.5-0.5,0.5
				c-1.5,0-3,0-4.5,0c-0.4,0-0.6,0.1-0.5,0.5c0,0.7,0,1.4,0,2.1c0,0.5,0.2,0.7,0.7,0.7c0.2,0,0.4,0,0.5,0c1.1,0,1.5,0.3,1.4-1.3
				c0-0.3,0.1-0.4,0.3-0.4c0.7,0,1.4,0,2.2,0c0.2,0,0.3,0,0.3,0.3c0,0.5,0,1.1,0,1.6c-0.2,1.2-0.9,1.9-2.2,2c-1.2,0.1-2.5,0.1-3.7,0
				c-1.5-0.1-2.3-0.9-2.3-2.5c0-1.3,0-2.5,0-3.8c0-1.2,0-2.4,0-3.6c0-1.8,0.7-2.6,2.5-2.7C107.2,12.1,108.5,12,109.7,12.2z
				 M108.1,14.3c-2.1,0-1.7,0-1.7,1.7c0,0.3,0,0.6,0,1c0,0.3,0.1,0.5,0.4,0.4c0.6,0,1.2,0,1.8,0c0.3,0,0.5-0.1,0.4-0.4
				c0-0.6,0-1.2,0-1.7C109,14.4,108.9,14.3,108.1,14.3z"/>
			<path id="Combined-Shape_3_" class="st1" d="M82.3,12.2c1.4,0.1,2.1,0.9,2.2,2.3c0,1.5,0,2.9,0,4.4c0,0.4-0.2,0.4-0.4,0.4h-3
				c-0.5,0-1,0-1.5,0s-0.6,0.1-0.5,0.6c0,0.7,0,1.4,0,2.1c0,0.4,0.2,0.7,0.7,0.7c0.2,0,0.4,0,0.5,0c1.3,0,1.3,0,1.4-1.3
				c0-0.2,0.1-0.4,0.3-0.4c0.7,0,1.4,0,2.2,0c0.3,0,0.4,0.1,0.3,0.3c0,0.4,0,0.7,0,1.1c-0.1,1.5-0.8,2.3-2.3,2.4
				c-1.2,0.1-2.4,0.1-3.6,0c-1.5-0.1-2.3-0.9-2.3-2.5c0-1.3,0-2.5,0-3.8c0-1.2,0-2.5,0-3.7c0-1.6,0.7-2.4,2.3-2.5
				C79.7,12,81,12,82.3,12.2z M81.6,16c0-1.8,0.3-1.8-1.8-1.8c0,0,0,0-0.1,0c-0.5,0-0.8,0.2-0.8,0.8c0,0.3,0,0.7,0,1
				c0,1.3,0,1.3,1.3,1.3h0.1C81.6,17.4,81.6,17.3,81.6,16z"/>
			<path id="Fill-55" class="st1" d="M117.3,24.7c-0.7,0-1.3,0.1-2-0.1c-1.2-0.3-1.8-1-1.9-2.2c-0.1-1.4-0.1-1.4,1.3-1.4
				c0.1,0,0.2,0,0.3,0c0.4,0,0.8-0.1,1.1,0c0.3,0.2,0.1,0.7,0.1,1c0,0.4,0.3,0.6,0.6,0.6c0.2,0,0.4,0,0.6,0c0.5,0,0.8-0.2,0.8-0.8
				c0-0.6,0-1.1,0-1.7c0-0.5-0.2-0.7-0.7-0.7c-0.7,0-1.4,0-2-0.1c-1.3-0.1-2-0.8-2.1-2.1c-0.1-1.1-0.1-2.2,0-3.3s0.8-1.8,1.9-1.9
				c1.3-0.2,2.5-0.2,3.8,0c1.1,0.2,1.8,0.9,1.9,2.1c0.1,1.6,0.1,1.6-1.4,1.6h-0.4c-1,0-1,0-1-1c0-0.4-0.2-0.6-0.6-0.6
				c-0.1,0-0.2,0-0.4,0c-0.9,0-1,0.1-1,1c0,0.5,0,1,0,1.6c0,0.5,0.2,0.7,0.7,0.7c0.7,0,1.4,0,2,0.1c1.4,0.1,2.1,0.8,2.2,2.2
				c0.1,0.9,0.1,1.8,0,2.7c-0.1,1.5-0.9,2.2-2.3,2.3C118.3,24.8,117.8,24.7,117.3,24.7"/>
			<path id="Fill-57" class="st1" d="M46.5,18.5c0-1.2,0-2.5,0-3.7c0-1.7,0.7-2.5,2.4-2.6c1.2-0.1,2.5-0.1,3.7,0
				c1.3,0.2,2,1,2.1,2.3c0,0.6,0.2,1.4-0.1,1.8c-0.3,0.4-1.1,0.1-1.7,0.1c-1.1,0-1.1,0-1.1-1.1c0-0.8-0.1-0.9-0.9-0.9
				c-1.4,0-1.4,0-1.4,1.4c0,2,0,3.9,0,5.9c0,0.8,0.1,0.9,0.9,0.9h0.1c1.4,0,1.4,0,1.4-1.4c0-0.5,0.1-0.6,0.6-0.6c0.6,0,1.2,0,1.9,0
				c0.3,0,0.5,0.1,0.4,0.4c0,0.5,0,0.9,0,1.4c0,1.5-0.8,2.3-2.2,2.4c-1.2,0.1-2.5,0.1-3.7,0c-1.4-0.1-2.2-0.9-2.2-2.3
				C46.5,21.1,46.5,19.8,46.5,18.5L46.5,18.5z"/>
			<path id="Fill-59" class="st1" d="M123.3,18.6c0-1.2,0-2.4,0-3.6c0-0.5-0.1-0.7-0.6-0.6c-0.5,0.1-0.8-0.1-0.7-0.7
				c0-0.2,0-0.4,0-0.5c0-1,0-1,0.9-1.1c0.3,0,0.3-0.2,0.3-0.4c0-0.5,0-1,0-1.5c0-0.3,0.1-0.4,0.4-0.4c0.7,0,1.4,0,2.2,0
				c0.3,0,0.4,0.1,0.4,0.4c0,0.4,0,0.8,0,1.1c-0.1,0.6,0.2,0.7,0.7,0.7c1,0,1,0,1,1c0,1.3,0,1.3-1.3,1.3c-0.4,0-0.5,0.2-0.5,0.5
				c0,2.2,0,4.4,0,6.6c0,0.7,0.1,0.9,0.9,0.9s0.8,0,0.8,0.8c0,0.5,0.2,1.2-0.1,1.4c-0.3,0.2-0.9,0.1-1.4,0.1c-0.2,0-0.4,0-0.7,0
				c-1.6-0.1-2.4-0.9-2.4-2.5c0-0.6,0-1.2,0-1.8L123.3,18.6L123.3,18.6z"/>
			<path id="Fill-61" class="st1" d="M97.6,18.7c0-1.2,0-2.5,0-3.7c0-0.4-0.1-0.6-0.5-0.5c-0.6,0.1-0.9-0.1-0.8-0.8
				c0-0.1,0-0.3,0-0.4c0-1,0-1,1-1.1c0.3,0,0.3-0.1,0.3-0.4c0-0.5,0-1,0-1.5c0-0.3,0.1-0.4,0.4-0.4c0.7,0,1.5,0,2.2,0
				c0.3,0,0.4,0.1,0.4,0.4c0,0.5,0,1,0,1.4c0,0.3,0.1,0.4,0.4,0.4c0.4,0,1-0.2,1.2,0.1c0.3,0.3,0.1,0.8,0.1,1.3c0,0.9,0,0.9-0.9,0.9
				c-0.8,0-0.8,0-0.8,0.8c0,2.1,0,4.2,0,6.3c0,0.8,0.1,0.9,0.9,0.9s0.8,0,0.8,0.8c0,0.5,0.2,1.2-0.1,1.4c-0.3,0.2-0.9,0.1-1.4,0.1
				c-0.2,0-0.4,0-0.6,0c-1.7-0.1-2.5-0.9-2.5-2.6C97.6,21,97.6,19.8,97.6,18.7"/>
			<path id="Fill-63" class="st1" d="M89.4,13.4c0.5-0.9,1.2-1.3,2.3-1.3c0.3,0,0.3,0.1,0.3,0.3c0,0.6,0,1.2,0,1.9
				c0,0.3-0.1,0.3-0.4,0.3c-0.2,0-0.3,0-0.5,0c-1.3,0-1.9,0.5-1.9,1.9c0,2.6,0,5.1,0,7.7c0,0.5-0.1,0.6-0.6,0.6c-0.6,0-1.3,0-1.9,0
				c-0.3,0-0.4-0.1-0.4-0.4c0-4,0-7.9,0-11.9c0-0.3,0.1-0.4,0.4-0.4c0.7,0,1.3,0,2,0c0.4,0,0.6,0.1,0.5,0.5c0,0.2,0,0.4,0,0.6
				c0,0.1,0,0.1,0,0.2C89.3,13.4,89.3,13.4,89.4,13.4"/>
			<path id="Fill-65" class="st1" d="M106.7,31.3c-0.2,0.1-0.2,0.3-0.2,0.5c-0.5,1.6-1,3.1-1.4,4.7c-0.1,0.5-0.4,0.5-0.8,0.5
				s-0.8,0-1-0.5c-0.5-1.6-1-3.2-1.5-4.8c0-0.1,0-0.2-0.2-0.3c-0.2,0.1-0.1,0.3-0.1,0.4c-0.1,1.8-0.1,3.7-0.2,5.5
				c0,0.5-0.3,0.7-0.8,0.6c-0.2-0.1-0.2-0.2-0.2-0.3c0.1-2.2,0.2-4.3,0.3-6.5c0-0.3,0.2-0.5,0.5-0.5c0.2,0,0.5,0,0.7,0
				c0.4,0,0.6,0.2,0.7,0.5c0.5,1.6,1,3.2,1.5,4.8c0,0.1,0.1,0.3,0.1,0.4c0.3,0,0.2-0.3,0.3-0.4c0.5-1.6,1-3.2,1.5-4.8
				c0.2-0.6,0.4-0.6,1.4-0.6c0.6,0,0.5,0.4,0.5,0.8c0.1,2,0.2,4,0.3,6c0,0.3,0.1,0.6-0.4,0.5c-0.4,0-0.6,0-0.6-0.5
				c0-1.9-0.1-3.7-0.2-5.6C106.8,31.5,106.9,31.4,106.7,31.3"/>
			<path id="Fill-67" class="st1" d="M58.6,37.1c0.4,0,0.8,0,1.1,0c0.7,0,1-0.3,1-0.8c0.1-0.9-0.1-1.3-0.8-1.5
				c-0.6-0.2-1.1-0.3-1.7-0.4c-1.3-0.4-1.9-2.3-1.1-3.4c0.2-0.3,0.5-0.4,0.9-0.5c1-0.2,2-0.1,2.9,0.1c0.2,0,0.4,0,0.4,0.4
				c0,0.3-0.2,0.4-0.5,0.4c-0.7,0-1.4,0-2.2,0c-0.5,0-0.9,0.2-0.9,0.8c-0.1,0.8,0.1,1.2,0.7,1.4c0.6,0.2,1.2,0.3,1.8,0.5
				c1.3,0.4,1.9,2.4,1,3.5c-0.4,0.4-0.9,0.5-1.4,0.5c-0.9,0.1-1.7,0-2.6-0.1c-0.3,0-0.4-0.1-0.4-0.4c0-0.3,0.1-0.4,0.4-0.4
				C57.9,37,58.2,37,58.6,37.1L58.6,37.1z"/>
			<path id="Fill-69" class="st1" d="M113.7,37c0.4,0,0.8,0,1.3,0s0.9-0.2,0.9-0.8c0.1-0.8-0.1-1.3-0.7-1.5s-1.2-0.3-1.7-0.5
				c-1.3-0.4-2-2.3-1.1-3.4c0.2-0.3,0.5-0.4,0.8-0.5c1-0.2,2-0.1,3.1,0c0.3,0,0.4,0.1,0.3,0.4c0,0.3-0.2,0.3-0.4,0.3
				c-0.7,0-1.4,0-2.2,0c-0.5,0-0.9,0.2-1,0.8c-0.1,0.8,0.1,1.3,0.7,1.5s1.2,0.3,1.8,0.5c1.1,0.3,1.4,1,1.3,2.4
				c-0.1,1-0.5,1.4-1.7,1.6c-0.9,0.1-1.8,0-2.7-0.1c-0.3,0-0.3-0.2-0.3-0.4c0-0.3,0.1-0.3,0.4-0.3C112.9,37,113.3,37,113.7,37
				L113.7,37z"/>
			<path id="Fill-71" class="st1" d="M75.8,37c0.4,0,0.9,0,1.3,0c0.5,0,0.8-0.3,0.8-0.8c0.1-0.8-0.1-1.2-0.6-1.4
				c-0.6-0.2-1.2-0.3-1.9-0.5c-1.3-0.4-1.9-2.4-1-3.4c0.2-0.3,0.5-0.4,0.9-0.5c1-0.2,2-0.1,2.9,0.1c0.2,0,0.4,0.1,0.4,0.4
				c0,0.4-0.2,0.4-0.5,0.3c-0.7,0-1.4,0-2.1,0c-0.5,0-0.9,0.2-1,0.8c-0.1,0.8,0.1,1.2,0.8,1.4c0.6,0.2,1.2,0.3,1.8,0.5
				c1.1,0.3,1.4,1,1.3,2.5c-0.1,0.9-0.5,1.4-1.6,1.5c-0.9,0.1-1.9,0-2.8-0.1c-0.2,0-0.3-0.1-0.3-0.4c0-0.2,0.1-0.4,0.4-0.4
				C75,37,75.4,37,75.8,37L75.8,37z"/>
			<path id="Fill-73" class="st1" d="M91.8,34.1c0-0.7,0-1.5,0-2.2c0-0.9,0.5-1.4,1.3-1.4c0.9,0,1.9,0,2.8,0c0.3,0,0.4,0.1,0.4,0.4
				s-0.1,0.4-0.4,0.4c-0.8,0-1.6,0-2.4,0c-0.7,0-0.8,0.2-0.8,0.8c0,1.5,0,1.5,1.4,1.5c0.4,0,0.8,0,1.1,0c0.2,0,0.6-0.2,0.6,0.4
				c0,0.6-0.4,0.4-0.7,0.4c-0.7,0-1.4,0-2.1,0c-0.3,0-0.4,0.1-0.4,0.4c0,0.5,0,1,0,1.6c0,0.5,0.2,0.7,0.7,0.7c0.8,0,1.6,0,2.4,0
				c0.3,0,0.4,0,0.5,0.4c0,0.4-0.1,0.4-0.4,0.4c-0.9,0-1.9,0-2.8,0c-0.8,0-1.3-0.5-1.3-1.4C91.8,35.6,91.8,34.9,91.8,34.1"/>
			<path id="Fill-75" class="st1" d="M65.1,30.5c0.7-0.2,1.1,0,1.4,0.7c0.4,1.1,1,2,1.5,3.1c0.5-1.1,1.1-2.1,1.6-3.2
				c0.3-0.6,0.6-0.8,1.3-0.6c-0.5,1-0.9,2-1.5,2.9c-0.7,1.2-1.1,2.4-0.9,3.8c0.1,0.6-0.2,0.7-0.8,0.6c-0.1,0-0.2-0.1-0.2-0.2
				c0-0.1,0-0.1,0-0.2c0.3-1.8-0.4-3.2-1.3-4.7C65.8,32,65.4,31.3,65.1,30.5"/>
			<path id="Fill-77" class="st1" d="M84.7,34.5c0-0.9,0-1.8,0-2.8c0-0.4-0.1-0.5-0.5-0.5c-0.5,0-1,0-1.5,0c-0.3,0-0.4-0.1-0.4-0.4
				s0-0.4,0.4-0.4c1.6,0,3.3,0,4.9,0c0.3,0,0.4,0.1,0.4,0.4s-0.1,0.5-0.4,0.4c-0.5,0-1,0-1.4,0s-0.5,0.1-0.5,0.5c0,1.8,0,3.7,0,5.5
				c0,0.3,0,0.5-0.5,0.5s-0.5-0.2-0.5-0.6C84.8,36.3,84.7,35.4,84.7,34.5"/>
			<path id="Fill-81" class="st0" d="M23.9,31c0.6-1,0.2-2.3-0.9-2.8c-0.7-0.3-1.4-0.1-2,0.5c-0.5,0.6-0.7,1.4-0.4,2
				c0.1,0.1,0.1,0.4,0.4,0.2c0.6-0.4,1-0.1,0.9,0.6c0,0.4,0.3,0.3,0.4,0.3c0.2,0,0.5,0.1,0.5-0.3c-0.1-0.4,0-0.6,0.3-0.8
				C23.4,30.6,23.7,30.8,23.9,31"/>
			<path id="Fill-83" class="st2" d="M40,27.5c-0.2-0.3-0.5-0.3-0.8-0.4c-1.3-0.7-2.3-1.8-3.2-2.9c-0.9-1-1.7-2.1-2.6-3
				c-2.2-2.1-4.7-2.4-7.4-1.5c-0.8,0.3-1.6,0.6-2.3,0.9c-0.9,0.4-1.7,0.4-2.6,0c-1.5-0.8-3.1-1.3-4.9-1.4c-1.9-0.1-3.4,0.6-4.8,1.9
				c-1.3,1.2-2.4,2.7-3.6,4c-0.7,0.8-1.5,1.5-2.5,2c-0.3,0.1-0.6,0.2-0.9,0.2c1.3-2.6,2.6-5.2,3.9-7.8c0.2-0.4,0.4-0.9,0.7-1.3
				c1.3-2.2,2.9-4.2,5.2-5.5c1.4,0.3,2.8,0.2,4.2,0.6c0.5,0.1,1.1,0,1.6,0.1c2.3,0.5,4.5,0.1,6.7-0.1c1.3-0.2,2.5-0.5,3.8-0.5
				c0,0.2,0.2,0.2,0.3,0.3c0.9,0.7,1.8,1.4,2.6,2.3c0.8,0.9,1.5,2,2.2,3c1,2,2.1,4.1,3.1,6.1c0.5,0.9,0.9,1.9,1.4,2.8
				C40.4,27.4,40.4,27.6,40,27.5"/>
			<path id="Fill-87" class="st0" d="M9.5,16.3c0.7-0.8,1.4-1.5,2.1-2.2c0.2-0.2,0.1-0.3-0.1-0.4c-1-0.6-2-1.3-3-1.9
				c-0.1-0.1-0.2-0.2-0.3-0.1c-0.1,0.1-0.4,1.5-0.3,1.7C8.4,14.3,8.9,15.2,9.5,16.3"/>
			<path id="Fill-91" class="st0" d="M35.2,16.3c0.5-0.8,0.8-1.5,1.2-2.1c0.6-0.8,0.4-1.5,0.1-2.2c-0.1-0.2-0.1-0.3-0.3-0.1
				c-1,0.7-2,1.3-3,2C33,14,33,14.1,33.1,14.3C33.8,14.8,34.5,15.5,35.2,16.3"/>
			<path id="Fill-99" class="st0" d="M89.4,13.4c0,0-0.1,0-0.1,0.1C89.3,13.4,89.3,13.4,89.4,13.4C89.3,13.3,89.3,13.3,89.4,13.4"/>
			<path id="Fill-101" class="st2" d="M23.9,31c-0.2-0.2-0.5-0.4-0.8-0.2c-0.3,0.2-0.4,0.4-0.3,0.8c0.1,0.3-0.3,0.3-0.5,0.3
				c-0.1,0-0.5,0.1-0.4-0.3c0-0.7-0.3-0.9-0.9-0.6c-0.3,0.2-0.3-0.1-0.4-0.2c-0.3-0.6-0.1-1.4,0.4-2c0.6-0.6,1.3-0.8,2-0.5
				C24.1,28.7,24.5,30,23.9,31"/>
			<path id="Fill-103" class="st2" d="M9.5,16.3c-0.6-1-1.1-1.9-1.6-2.8c-0.1-0.2,0.1-1.6,0.3-1.7c0.1-0.1,0.2,0,0.3,0.1
				c1,0.6,2,1.3,3,1.9c0.2,0.1,0.3,0.2,0.1,0.4C10.9,14.8,10.2,15.5,9.5,16.3"/>
			<path id="Fill-105" class="st2" d="M35.2,16.3c-0.7-0.8-1.4-1.5-2.1-2.2c-0.2-0.2-0.1-0.2,0.1-0.4c1-0.7,2-1.3,3-2
				c0.2-0.1,0.3-0.1,0.3,0.1c0.3,0.8,0.4,1.5-0.1,2.2C35.9,14.7,35.6,15.4,35.2,16.3"/>
		</g>
	</g>
</g>
</svg>
