<?xml version="1.0" encoding="utf-8"?>
<!-- Generator: Adobe Illustrator 24.1.2, SVG Export Plug-In . SVG Version: 6.00 Build 0)  -->
<svg version="1.1" id="Layer_1" xmlns="http://www.w3.org/2000/svg" xmlns:xlink="http://www.w3.org/1999/xlink" x="0px" y="0px"
	 viewBox="0 0 130 46" style="enable-background:new 0 0 130 46;" xml:space="preserve">
<style type="text/css">
	.st0{fill-rule:evenodd;clip-rule:evenodd;fill:#6C778C;}
	.st1{fill-rule:evenodd;clip-rule:evenodd;fill:url(#Fill-63_1_);}
	.st2{fill-rule:evenodd;clip-rule:evenodd;fill:#FFFFFF;}
</style>
<g id="Page-1">
	<g id="Customer" transform="translate(-1920.000000, -26.000000)">
		<g id="itochu" transform="translate(1920.000000, 26.000000)">
			<path id="Combined-Shape" class="st0" d="M44.6,42.3c0.3,0,0.6,0,0.7,0.1l0,0l-0.4,1.3c-0.1,0.3-0.2,0.5-0.5,0.7
				c-0.2,0.1-0.5,0.1-0.7,0.1c-0.3,0-0.5,0-0.7-0.1l0,0l0.1-0.2c0.1,0.1,0.4,0.1,0.6,0.1c0.4,0,0.7-0.1,0.8-0.5l0,0l0.1-0.2l0,0
				c-0.2,0.2-0.5,0.3-0.8,0.3c-0.5,0-0.7-0.3-0.7-0.5C43.1,42.8,43.7,42.3,44.6,42.3z M50.7,42.3c0.3,0,0.6,0,0.7,0.1l0,0L51,43.7
				c-0.1,0.3-0.2,0.5-0.5,0.7c-0.1,0.1-0.4,0.1-0.7,0.1s-0.5,0-0.7-0.1l0,0l0.1-0.2c0.1,0.1,0.4,0.1,0.6,0.1c0.4,0,0.7-0.1,0.8-0.5
				l0,0l0.1-0.2l0,0c-0.2,0.2-0.5,0.3-0.8,0.3c-0.5,0-0.7-0.3-0.7-0.5C49.2,42.8,49.8,42.3,50.7,42.3z M88.4,42.3
				c0.3,0,0.6,0,0.7,0.1l0,0l-0.4,1.3c-0.1,0.3-0.2,0.5-0.5,0.7c-0.1,0.1-0.4,0.1-0.6,0.1c-0.3,0-0.5,0-0.7-0.1l0,0l0.1-0.2
				c0.1,0.1,0.4,0.1,0.6,0.1c0.4,0,0.7-0.1,0.8-0.5l0,0l0.1-0.2l0,0c-0.2,0.2-0.5,0.3-0.8,0.3c-0.5,0-0.7-0.3-0.7-0.5
				C87,42.8,87.5,42.3,88.4,42.3z M35.3,42.3c0.2,0,0.5,0,0.6,0.1l0,0l-0.2,0.8c-0.1,0.3-0.1,0.5-0.1,0.7l0,0h-0.4
				c0-0.1,0-0.2,0.1-0.4l0,0l0,0c-0.3,0.3-0.6,0.4-0.9,0.4c-0.4,0-0.7-0.2-0.7-0.5C33.7,42.8,34.3,42.3,35.3,42.3z M62.6,42.3
				c0.6,0,0.9,0.3,0.9,0.6c0,0.5-0.5,1-1.3,1l0,0c-0.6,0-0.9-0.3-0.9-0.6C61.4,42.7,61.9,42.3,62.6,42.3z M56.3,42.3
				c0.6,0,0.9,0.3,0.9,0.6c0,0.5-0.5,1-1.3,1l0,0c-0.6,0-0.9-0.3-0.9-0.6C55,42.7,55.5,42.3,56.3,42.3z M68.2,42.3
				c0.6,0,0.9,0.3,0.9,0.6c0,0.5-0.5,1-1.3,1l0,0c-0.6,0-0.9-0.3-0.9-0.6C66.9,42.7,67.4,42.3,68.2,42.3z M83.5,42.3
				c0.2,0,0.5,0,0.6,0.1l0,0l-0.2,0.8c-0.1,0.3-0.1,0.5-0.1,0.7l0,0h-0.4c0-0.1,0-0.2,0.1-0.4l0,0l0,0c-0.3,0.3-0.6,0.4-0.9,0.4
				c-0.4,0-0.7-0.2-0.7-0.5C81.9,42.8,82.5,42.3,83.5,42.3z M39.6,42.3c0.4,0,0.7,0.2,0.7,0.4c0,0.4-0.7,0.5-1.5,0.5
				c0,0.1,0,0.2,0,0.3c0.1,0.1,0.3,0.2,0.5,0.2c0.3,0,0.5-0.1,0.6-0.1l0,0l0.1,0.2c-0.2,0.1-0.5,0.1-0.8,0.1c-0.6,0-0.9-0.3-0.9-0.6
				C38.4,42.8,38.9,42.3,39.6,42.3z M90.7,42.3c0.4,0,0.7,0.2,0.7,0.4c0,0.4-0.7,0.5-1.5,0.5c0,0.1,0,0.2,0,0.3
				c0.1,0.1,0.3,0.2,0.5,0.2c0.3,0,0.5-0.1,0.6-0.1l0,0l0.1,0.2c-0.2,0.1-0.5,0.1-0.8,0.1c-0.6,0-0.9-0.3-0.9-0.6
				C89.5,42.8,90,42.3,90.7,42.3z M92.7,42.3c0.2,0,0.4,0,0.5,0.1L93,42.5c0,0-0.2,0-0.4,0c-0.2,0-0.4,0.1-0.4,0.2
				c0,0.1,0.1,0.2,0.3,0.3c0.3,0.1,0.4,0.2,0.4,0.4c0,0.3-0.4,0.5-0.9,0.5c-0.2,0-0.5-0.1-0.6-0.1l0.1-0.2c0.1,0,0.3,0.1,0.5,0.1
				c0.3,0,0.4-0.1,0.4-0.2c0-0.1-0.1-0.2-0.3-0.3c-0.3-0.1-0.4-0.2-0.4-0.4C91.8,42.5,92.2,42.3,92.7,42.3z M78.7,41.7
				c0.4,0,0.6,0.1,0.7,0.1L79.3,42c-0.1,0-0.3-0.1-0.6-0.1c-0.3,0-0.7,0.1-0.9,0.2c-0.3,0.2-0.5,0.5-0.5,0.8c0,0.4,0.3,0.7,1,0.7
				c0.2,0,0.5,0,0.7-0.1l0.1,0.2c-0.2,0.1-0.5,0.1-0.8,0.1c-0.8,0-1.3-0.3-1.3-0.9c0-0.4,0.2-0.8,0.7-1
				C77.8,41.8,78.2,41.7,78.7,41.7z M30.5,41.7c0.4,0,0.6,0.1,0.7,0.1L31,42c-0.1,0-0.3-0.1-0.6-0.1c-0.3,0-0.7,0.1-0.9,0.2
				c-0.3,0.2-0.5,0.5-0.5,0.8c0,0.4,0.3,0.7,1,0.7c0.2,0,0.5,0,0.7-0.1l0.1,0.2c-0.2,0.1-0.5,0.1-0.8,0.1c-0.8,0-1.3-0.3-1.3-0.9
				c0-0.4,0.2-0.8,0.7-1C29.6,41.8,30,41.7,30.5,41.7z M74.4,42.3c0.2,0,0.4,0,0.5,0.1l-0.1,0.1c-0.1,0-0.2-0.1-0.4-0.1
				c-0.2,0-0.4,0.1-0.4,0.2c0,0.1,0.1,0.2,0.3,0.3c0.3,0.1,0.4,0.2,0.4,0.4c0,0.3-0.4,0.5-0.9,0.5c-0.2,0-0.5-0.1-0.6-0.1l0.1-0.2
				c0.1,0,0.3,0.1,0.5,0.1c0.3,0,0.4-0.1,0.4-0.2c0-0.1-0.1-0.2-0.3-0.3c-0.3-0.1-0.4-0.2-0.4-0.4S73.9,42.3,74.4,42.3z M69.9,42.3
				l0.1,0.9c0,0.2,0,0.3,0,0.4l0,0c0.1-0.1,0.1-0.2,0.3-0.4l0.7-0.9h0.3l0.1,0.9c0,0.2,0,0.3,0,0.4l0,0c0.1-0.1,0.1-0.2,0.2-0.4
				l0.6-0.9h0.4l-1.1,1.5h-0.4L71,43c0-0.1,0-0.3,0-0.4l0,0c-0.1,0.1-0.2,0.3-0.3,0.4L70,43.8h-0.4l-0.2-1.5H69.9z M60.4,42.3
				c0.3,0,0.6,0.1,0.6,0.4c0,0.1,0,0.2,0,0.3l-0.3,0.9h-0.4l0.2-0.9c0-0.1,0-0.1,0-0.2c0-0.2-0.1-0.3-0.3-0.3
				c-0.3,0-0.6,0.2-0.7,0.6l-0.2,0.8h-0.4l0.3-0.9c0-0.1,0-0.1,0-0.2c0-0.1-0.1-0.3-0.3-0.3c-0.3,0-0.6,0.3-0.7,0.6L58,43.9h-0.4
				l0.3-1.1c0-0.2,0.1-0.3,0.1-0.4h0.4l-0.1,0.3l0,0c0.2-0.2,0.5-0.3,0.8-0.3c0.4,0,0.5,0.1,0.5,0.3C59.8,42.4,60,42.3,60.4,42.3z
				 M37.2,41.6l-0.6,2.3h-0.4l0.6-2.3H37.2z M32.2,41.6l-0.3,1l0,0c0.2-0.2,0.5-0.3,0.8-0.3s0.6,0.1,0.6,0.4c0,0.1,0,0.2,0,0.3
				L33,43.8h-0.4l0.3-0.9c0-0.1,0-0.1,0-0.2c0-0.1-0.1-0.3-0.4-0.3c-0.3,0-0.7,0.2-0.8,0.6l-0.2,0.8h-0.4l0.6-2.3h0.5V41.6z
				 M65.2,42.3L65.2,42.3l0.1,0.2h-0.1c-0.3,0-0.6,0.3-0.7,0.6l-0.2,0.7h-0.4l0.3-1c0.1-0.2,0.1-0.4,0.1-0.5h0.4
				c0,0.1,0,0.2-0.1,0.3l0,0C64.7,42.4,64.9,42.3,65.2,42.3z M38.3,41.6l-0.6,2.3h-0.4l0.6-2.3H38.3z M55.5,41.7l-0.1,0.2h-0.9
				L54,43.8h-0.4l0.5-1.9h-0.9l0.1-0.2C53.3,41.7,55.5,41.7,55.5,41.7z M66.8,42.3L66.8,42.3v0.2h-0.1c-0.3,0-0.6,0.3-0.7,0.6
				l-0.2,0.7h-0.4l0.3-1c0.1-0.2,0.1-0.4,0.1-0.5h0.4c0,0.1,0,0.2-0.1,0.3l0,0C66.2,42.4,66.5,42.3,66.8,42.3z M80.4,41.6l-0.3,1
				l0,0c0.2-0.2,0.5-0.3,0.8-0.3s0.6,0.1,0.6,0.4c0,0.1,0,0.2,0,0.3l-0.3,0.9h-0.4l0.3-0.9c0-0.1,0-0.1,0-0.2c0-0.1-0.1-0.3-0.4-0.3
				s-0.7,0.2-0.8,0.6l-0.2,0.8h-0.4l0.6-2.3H80.4z M48.2,42.3c0.3,0,0.6,0.1,0.6,0.4c0,0.1,0,0.2,0,0.2l-0.3,0.9h-0.4l0.3-0.9
				c0-0.1,0-0.1,0-0.2c0-0.2-0.1-0.3-0.4-0.3c-0.3,0-0.7,0.2-0.8,0.6L47,43.7h-0.4l0.3-1.1c0.1-0.2,0.1-0.3,0.1-0.4h0.4l-0.1,0.3
				l0,0C47.6,42.4,47.9,42.3,48.2,42.3z M42.1,42.3c0.3,0,0.6,0.1,0.6,0.4c0,0.1,0,0.2,0,0.2l-0.3,0.9H42l0.3-0.9c0-0.1,0-0.1,0-0.2
				c0-0.2-0.1-0.3-0.4-0.3c-0.3,0-0.7,0.2-0.8,0.6l-0.2,0.7h-0.4l0.3-1.1c0.1-0.2,0.1-0.3,0.1-0.4h0.4l-0.1,0.3l0,0
				C41.4,42.4,41.8,42.3,42.1,42.3z M86,42.3c0.3,0,0.6,0.1,0.6,0.4c0,0.1,0,0.2,0,0.2l-0.3,0.9h-0.4l0.3-0.9c0-0.1,0-0.1,0-0.2
				c0-0.2-0.1-0.3-0.4-0.3S85.1,42.6,85,43l-0.2,0.7h-0.4l0.3-1.1c0.1-0.2,0.1-0.3,0.1-0.4h0.4l-0.1,0.3l0,0
				C85.3,42.4,85.6,42.3,86,42.3z M46.4,42.3L46,43.8h-0.4l0.4-1.5H46.4z M68.1,42.5c-0.5,0-0.8,0.4-0.8,0.8c0,0.2,0.2,0.4,0.5,0.4
				l0,0c0.5,0,0.8-0.4,0.8-0.8C68.7,42.7,68.5,42.5,68.1,42.5z M56.2,42.5c-0.5,0-0.8,0.4-0.8,0.8c0,0.2,0.2,0.4,0.5,0.4l0,0
				c0.5,0,0.8-0.4,0.8-0.8C56.8,42.7,56.7,42.5,56.2,42.5z M62.6,42.5c-0.5,0-0.8,0.4-0.8,0.8c0,0.2,0.2,0.4,0.5,0.4l0,0
				c0.5,0,0.8-0.4,0.8-0.8C63.1,42.7,63,42.5,62.6,42.5z M35.2,42.5c-0.6,0-1.1,0.4-1.1,0.8c0,0.2,0.1,0.3,0.4,0.3
				c0.3,0,0.7-0.3,0.8-0.7l0,0l0.1-0.5C35.4,42.5,35.3,42.5,35.2,42.5z M83.4,42.5c-0.6,0-1.1,0.4-1.1,0.8c0,0.2,0.1,0.3,0.4,0.3
				s0.7-0.3,0.8-0.7l0,0l0.1-0.5C83.6,42.5,83.6,42.5,83.4,42.5z M44.5,42.5c-0.6,0-1,0.4-1,0.8c0,0.2,0.1,0.4,0.4,0.4
				c0.3,0,0.7-0.3,0.8-0.6l0,0l0.1-0.5C44.8,42.5,44.6,42.5,44.5,42.5z M50.6,42.5c-0.6,0-1,0.4-1,0.8c0,0.2,0.1,0.4,0.4,0.4
				c0.3,0,0.7-0.3,0.8-0.6l0,0l0.2-0.6C50.9,42.5,50.8,42.5,50.6,42.5z M88.4,42.5c-0.6,0-1,0.4-1,0.8c0,0.2,0.1,0.4,0.4,0.4
				s0.7-0.3,0.8-0.6l0,0l0.1-0.5C88.7,42.5,88.5,42.5,88.4,42.5z M90.7,42.5c-0.4,0-0.7,0.2-0.8,0.5c0.6,0,1.1,0,1.1-0.3l0,0
				C91,42.5,90.9,42.5,90.7,42.5z M39.6,42.5c-0.4,0-0.7,0.2-0.8,0.5c0.6,0,1.1,0,1.1-0.3l0,0C39.9,42.5,39.8,42.5,39.6,42.5z
				 M73.6,41.6l-0.3,0.8H73l0.1-0.8H73.6z M46.4,41.7c0.1,0,0.2,0.1,0.2,0.2c0,0.1-0.1,0.2-0.3,0.2l0,0c-0.1,0-0.2-0.1-0.2-0.2
				C46.1,41.7,46.2,41.7,46.4,41.7z"/>
			<polygon id="Fill-57" class="st0" points="25.2,41.9 24.5,44.2 27.8,41.9 			"/>
			<path id="Fill-59" class="st0" d="M63.5,0.5c-6.4,0-12.3,0.1-17.5,1.8c-6.8,2.2-12,6.9-13.6,12.8l-6.2,23h68.5l10.1-37.6H63.5z"
				/>
			
				<linearGradient id="Fill-63_1_" gradientUnits="userSpaceOnUse" x1="-472.2855" y1="171.9812" x2="-473.2855" y2="171.9812" gradientTransform="matrix(70 0 0 4.363 33156.5859 -716.2041)">
				<stop  offset="0" style="stop-color:#FFFFFF;stop-opacity:0"/>
				<stop  offset="1" style="stop-color:#FFFFFF"/>
			</linearGradient>
			<polygon id="Fill-63" class="st1" points="27.7,32 26.6,36.3 95.5,36.3 96.6,32 			"/>
			<path id="Combined-Shape_1_" class="st2" d="M54.9,23.5c0.9,0,1.5,0.7,1.5,1.8c0,1.3-0.8,1.9-1.6,1.9c-0.5,0-0.9-0.2-1.1-0.6l0,0
				l0,0v1.9H53v-5h0.6v0.6l0,0C53.9,23.8,54.3,23.5,54.9,23.5z M72.8,23.5c1.1,0,1.7,0.8,1.7,1.9s-0.7,1.9-1.7,1.9
				c-1.1,0-1.7-0.8-1.7-1.9S71.8,23.5,72.8,23.5z M58.7,23.5c1.1,0,1.7,0.8,1.7,1.9s-0.7,1.9-1.7,1.9S57,26.5,57,25.4
				S57.6,23.5,58.7,23.5z M48,23.5c1.1,0,1.7,0.8,1.7,1.9S49,27.3,48,27.3c-1.1,0-1.7-0.8-1.7-1.9S47,23.5,48,23.5z M64.7,23.5
				c0.7,0,1,0.3,1.2,0.7c0.1,0.3,0.1,0.5,0.1,1.1v1c0,0.3,0,0.6,0.1,0.9l0,0h-0.6l-0.1-0.5l0,0c-0.2,0.3-0.6,0.5-1.1,0.5
				c-0.7,0-1.1-0.5-1.1-1c0-0.9,0.8-1.3,2.1-1.3l0,0v-0.1c0-0.3-0.1-0.8-0.8-0.8c-0.3,0-0.7,0.1-0.9,0.3l0,0l-0.1-0.4
				C63.9,23.6,64.3,23.5,64.7,23.5z M44.6,22.1c0.6,0,1,0.1,1.2,0.2l-0.2,0.5c-0.2-0.1-0.6-0.2-1-0.2c-1.2,0-1.9,0.8-1.9,2
				s0.8,2,1.9,2c0.4,0,0.8-0.1,1-0.2l0.2,0.5c-0.2,0.1-0.6,0.2-1.2,0.2c-1.5,0-2.6-1-2.6-2.5S43.1,22.1,44.6,22.1z M67.9,22.7v0.9
				h0.9v0.5h-0.9v1.7c0,0.2,0,0.5,0.1,0.6c0.1,0.2,0.2,0.3,0.5,0.3c0.1,0,0.2,0,0.3,0l0,0v0.5c-0.1,0-0.3,0.1-0.5,0.1
				c-0.5,0-0.8-0.2-0.9-0.6c-0.1-0.2-0.1-0.4-0.1-0.7v-1.9h-0.6v-0.5h0.6v-0.9H67.9z M77.2,23.5c0.6,0,1,0.4,1.2,0.9
				c0.1,0.2,0.1,0.5,0.1,0.8l0,0v2h-0.6v-1.9c0-0.2,0-0.4,0-0.6c-0.1-0.4-0.4-0.7-0.8-0.7c-0.3,0-0.6,0.2-0.8,0.5
				c-0.1,0.2-0.1,0.4-0.1,0.9l0,0v1.8h-0.6v-3.6H76v0.6l0,0C76.2,23.8,76.6,23.5,77.2,23.5z M52.2,23.5c0.1,0,0.1,0,0.2,0l0,0v0.6
				c-0.1,0-0.1,0-0.2,0c-0.4,0-0.7,0.3-0.8,0.6c-0.1,0.2-0.1,0.4-0.1,0.8v1.6h-0.6v-3.6h0.6v0.7l0,0C51.4,23.8,51.8,23.5,52.2,23.5z
				 M62.8,23.5c0.1,0,0.1,0,0.2,0l0,0v0.6c-0.1,0-0.1,0-0.2,0c-0.4,0-0.7,0.3-0.8,0.6c-0.1,0.2-0.1,0.4-0.1,0.8v1.6h-0.6v-3.6h0.6
				v0.7l0,0C62,23.8,62.4,23.5,62.8,23.5z M70.3,23.6v3.6h-0.6v-3.6H70.3z M65.5,25.3c-0.7,0-1.5,0.1-1.5,0.8c0,0.4,0.3,0.6,0.6,0.6
				c0.5,0,0.9-0.4,0.9-1l0,0V25.3z M72.8,24c-0.7,0-1.1,0.6-1.1,1.4s0.4,1.4,1.1,1.4s1.1-0.6,1.1-1.4S73.5,24,72.8,24z M58.7,24
				c-0.7,0-1.1,0.6-1.1,1.4s0.4,1.4,1.1,1.4c0.7,0,1.1-0.6,1.1-1.4S59.4,24,58.7,24z M48,24c-0.7,0-1.1,0.6-1.1,1.4s0.4,1.4,1.1,1.4
				c0.7,0,1.1-0.6,1.1-1.4S48.7,24,48,24z M54.7,24c-0.7,0-1.1,0.6-1.1,1.4c0,0.7,0.4,1.3,1.1,1.3c0.7,0,1.1-0.6,1.1-1.4
				C55.7,24.6,55.4,24,54.7,24z M70,22.1c0.2,0,0.4,0.2,0.4,0.4c0,0.2-0.2,0.4-0.4,0.4c-0.2,0-0.4-0.2-0.4-0.4
				C69.5,22.3,69.7,22.1,70,22.1z M62.2,15.5c1,0,1.7,0.7,1.7,1.8c0,1.3-0.9,1.9-1.8,1.9l0,0c-1,0-1.7-0.7-1.7-1.8
				C60.4,16.2,61.2,15.5,62.2,15.5z M86.9,15.5c1.1,0,1.7,0.8,1.7,1.9s-0.7,1.9-1.7,1.9c-1.1,0-1.7-0.8-1.7-1.9S85.8,15.5,86.9,15.5
				z M72.8,15.5c1.1,0,1.7,0.8,1.7,1.9s-0.7,1.9-1.7,1.9c-1.1,0-1.7-0.8-1.7-1.9S71.8,15.5,72.8,15.5z M77.7,15.6v1.9
				c0,0.4,0,0.6,0.1,0.8c0.1,0.3,0.3,0.4,0.7,0.4c0.4,0,0.7-0.2,0.8-0.6c0.1-0.2,0.1-0.4,0.1-0.7l0,0v-1.8H80v3.6h-0.6v-0.6l0,0
				c-0.2,0.3-0.5,0.7-1.2,0.7c-0.5,0-0.9-0.2-1.1-0.6c-0.1-0.3-0.2-0.5-0.2-1.1l0,0v-2C76.9,15.6,77.7,15.6,77.7,15.6z M46.9,15.5
				c1,0,1.6,0.8,1.5,2l0,0h-2.5c0,0.8,0.5,1.2,1.3,1.2c0.4,0,0.7-0.1,0.9-0.2l0,0l0.2,0.5c-0.3,0.2-0.7,0.3-1.1,0.3
				c-1.2,0-1.8-0.7-1.8-1.8C45.3,16.3,45.8,15.5,46.9,15.5z M81.9,14.7v0.9h0.9v0.5h-0.9V18c0,0.2,0,0.4,0.1,0.5
				c0.1,0.2,0.2,0.3,0.5,0.3c0.1,0,0.2,0,0.3,0l0,0v0.5c-0.1,0-0.3,0.1-0.5,0.1c-0.5,0-0.8-0.2-0.9-0.6c-0.1-0.2-0.1-0.4-0.1-0.7
				v-1.9h-0.6v-0.5h0.6v-0.9L81.9,14.7L81.9,14.7z M50.9,15.5c0.4,0,0.7,0.1,0.9,0.2l-0.1,0.5c-0.2-0.1-0.4-0.2-0.8-0.2
				c-0.8,0-1.2,0.6-1.3,1.3c0,0.7,0.4,1.3,1.3,1.3c0.4,0,0.6-0.1,0.8-0.2l0.1,0.5c-0.2,0.1-0.5,0.2-0.9,0.2c-1.2,0-1.9-0.7-1.9-1.8
				C49,16.3,49.7,15.5,50.9,15.5z M94.6,15.5c0.4,0,0.7,0.1,0.9,0.2l-0.2,0.5c-0.1-0.1-0.4-0.2-0.7-0.2c-0.4,0-0.6,0.2-0.6,0.5
				c0,0.6,0.8,0.5,1.3,1c0.2,0.2,0.3,0.4,0.3,0.7c0,0.6-0.5,1.1-1.3,1.1c-0.4,0-0.8-0.1-1-0.2l0.2-0.5c0.2,0.1,0.5,0.3,0.9,0.3
				c0.5,0,0.7-0.2,0.7-0.5c0-0.6-0.8-0.5-1.3-1c-0.2-0.2-0.3-0.4-0.3-0.6C93.4,16,93.8,15.5,94.6,15.5z M69.1,14.1
				c0.5,0,0.9,0.1,1.1,0.2l0,0L70,14.9c-0.2-0.1-0.5-0.2-0.9-0.2c-0.7,0-0.9,0.4-0.9,0.7c0,0.8,1,0.8,1.6,1.3
				c0.3,0.2,0.6,0.6,0.6,1.1c0,0.8-0.6,1.4-1.7,1.4c-0.5,0-1-0.1-1.3-0.3l0,0l0.2-0.5c0.3,0.2,0.7,0.3,1.1,0.3c0.7,0,1-0.3,1-0.8
				c0-0.9-1-0.8-1.7-1.4c-0.3-0.2-0.5-0.5-0.5-1C67.5,14.7,68.1,14.1,69.1,14.1z M45.7,14.2v0.6h-1.5v4.4h-0.7v-4.4H42v-0.6
				C42,14.2,45.7,14.2,45.7,14.2z M58.4,15.5c0.6,0,1,0.4,1.2,0.9c0.1,0.2,0.1,0.5,0.1,0.8l0,0v2H59v-2c0-0.2,0-0.3,0-0.4
				c-0.1-0.4-0.4-0.7-0.8-0.7c-0.3,0-0.6,0.2-0.8,0.5c-0.1,0.2-0.1,0.4-0.1,0.9l0,0v1.8h-0.6v-3.6h0.6v0.6l0,0
				C57.4,15.8,57.8,15.5,58.4,15.5z M91.2,15.5c0.6,0,1,0.4,1.2,0.9c0.1,0.2,0.1,0.5,0.1,0.8l0,0v2h-0.6v-1.9c0-0.2,0-0.4,0-0.6
				c-0.1-0.4-0.4-0.7-0.8-0.7c-0.3,0-0.6,0.2-0.8,0.5c-0.1,0.2-0.1,0.4-0.1,0.9l0,0v1.8h-0.6v-3.6H90v0.6l0,0
				C90.2,15.8,90.6,15.5,91.2,15.5z M53.2,13.9v2.2l0,0c0.2-0.3,0.6-0.6,1.1-0.6c0.6,0,1,0.4,1.2,0.9c0.1,0.2,0.1,0.5,0.1,0.8l0,0v2
				H55v-1.9c0-0.2,0-0.4,0-0.6c-0.1-0.4-0.4-0.7-0.8-0.7c-0.3,0-0.6,0.2-0.8,0.5c-0.1,0.2-0.1,0.4-0.1,0.9l0,0v1.8h-0.6v-5.3
				C52.7,13.9,53.2,13.9,53.2,13.9z M76.1,13.9v5.3h-0.6v-5.3C75.5,13.9,76.1,13.9,76.1,13.9z M84.3,15.6v3.6h-0.6v-3.6H84.3z
				 M72.8,16c-0.7,0-1.1,0.6-1.1,1.4s0.4,1.4,1.1,1.4s1.1-0.6,1.1-1.4S73.5,16,72.8,16z M86.9,16c-0.7,0-1.1,0.6-1.1,1.4
				s0.4,1.4,1.1,1.4s1.1-0.6,1.1-1.4S87.6,16,86.9,16z M62.2,16c-0.8,0-1.1,0.7-1.1,1.4c0,0.8,0.4,1.4,1.1,1.4l0,0
				c0.6,0,1.1-0.6,1.1-1.4C63.2,16.8,62.9,16,62.2,16z M66.7,16.9v0.5h-1.8v-0.5H66.7z M46.8,16c-0.6,0-0.9,0.6-0.9,1l0,0h1.8
				C47.7,16.4,47.4,16,46.8,16z M84,14.1c0.2,0,0.4,0.2,0.4,0.4s-0.2,0.4-0.4,0.4s-0.4-0.2-0.4-0.4S83.8,14.1,84,14.1z M55.4,6.1
				c0.6,0,1,0.1,1.2,0.2l-0.2,0.5c-0.2-0.1-0.6-0.2-1-0.2c-1.2,0-1.9,0.8-1.9,2c0,1.3,0.8,2,1.9,2c0.4,0,0.8-0.1,1-0.2l0.2,0.5
				c-0.2,0.1-0.6,0.2-1.2,0.2c-1.5,0-2.6-1-2.6-2.5S53.8,6.1,55.4,6.1z M63,6.2v2.5c0,0.5,0,0.9,0.1,1.2c0.2,0.6,0.5,0.8,1.1,0.8
				c0.5,0,0.9-0.3,1.1-0.8c0.1-0.3,0.1-0.7,0.1-1.2V6.2H66v2.3c0,0.5,0,1-0.1,1.4c-0.2,1-0.9,1.4-1.7,1.4c-0.9,0-1.5-0.4-1.7-1.4
				c-0.1-0.3-0.1-0.7-0.1-1.1V6.3L63,6.2L63,6.2z M49.7,6.1c1.3,0,2.3,1,2.3,2.6s-0.9,2.6-2.3,2.6c-1.3,0-2.3-1-2.3-2.6
				S48.4,6.1,49.7,6.1z M58.2,6.2v2.1h2.4V6.2h0.6v5h-0.6V8.9h-2.4v2.3h-0.6v-5H58.2z M42.7,6.2v5H42v-5H42.7z M47.1,6.2v0.6h-1.5
				v4.4H45V6.8h-1.5V6.2H47.1z M49.7,6.7c-1,0-1.6,1-1.6,2s0.6,2,1.6,2s1.6-1,1.6-2S50.7,6.7,49.7,6.7z"/>
		</g>
	</g>
</g>
</svg>
