<?xml version="1.0" encoding="UTF-8"?>
<svg width="125px" height="35px" viewBox="0 0 125 35" version="1.1" xmlns="http://www.w3.org/2000/svg" xmlns:xlink="http://www.w3.org/1999/xlink">
    <title>keyyo-communications</title>
    <defs>
        <polygon id="path-1" points="2.13162821e-14 34.819378 124.9061 34.819378 124.9061 -8.8817842e-14 2.13162821e-14 -8.8817842e-14"></polygon>
    </defs>
    <g id="Page-1" stroke="none" stroke-width="1" fill="none" fill-rule="evenodd">
        <g id="Customer" transform="translate(-2551.000000, -32.000000)">
            <g id="keyyo-communications" transform="translate(2551.000000, 32.000000)">
                <path d="M113.22823,3.09970096 C108.916627,3.03181818 104.628349,6.48367225 104.631936,11.683134 C104.635825,16.6619019 108.640012,20.2270933 113.193242,20.2647727 C117.906459,20.3039474 121.8314,16.3957536 121.819167,11.6867225 C121.805981,6.72589713 117.702213,3.03301435 113.22823,3.09970096 M113.179187,23.3393806 C106.594258,23.3401316 101.452512,17.8332536 101.538636,11.5055024 C101.620574,5.48427033 106.592165,-0.118600478 113.45939,0.0019138756 C119.906758,0.115251196 125.088278,5.50550239 124.901077,12.0261364 C124.725538,18.1457536 119.669916,23.3712321 113.179187,23.3393806" id="Fill-1" fill="#6C778C"></path>
                <path d="M30.6377392,3.98908493 L30.6377392,10.0201854 L31.2358254,10.0201854 C34.2223684,10.0201854 37.2095096,10.031549 40.1960526,10.0142045 C41.2582536,10.0082237 42.1541866,11.0189892 41.615311,12.2390849 C41.4149522,12.6927333 41.0342703,12.9657596 40.5381579,13.0390251 C40.2729067,13.0784988 40.0010766,13.0877691 39.7319378,13.0880682 C36.906878,13.0910586 34.0821172,13.0901615 31.2570574,13.0901615 L30.6422249,13.0901615 L30.6422249,19.3102572 L31.2489833,19.3102572 C34.9197368,19.3102572 38.5901914,19.3084629 42.260945,19.3147428 C42.5447368,19.3153409 42.8386962,19.3404605 43.1105263,19.4164175 C43.7492823,19.5949462 44.1769139,20.2100778 44.1698258,20.8790371 C44.1631579,21.5456041 43.7208732,22.142195 43.0749402,22.3141447 C42.8354067,22.37814 42.5794258,22.4074462 42.3309211,22.4077452 C37.9944976,22.4128289 33.6583732,22.413427 29.3219498,22.4098385 C28.1425239,22.4086423 27.511244,21.7962022 27.5100478,20.6194677 C27.5031699,14.6870514 27.5025718,8.75493421 27.5106459,2.82281699 C27.5124402,1.63113038 28.2148923,0.95798445 29.3949163,0.95798445 C33.7851675,0.957386364 38.1757177,0.955592105 42.5659689,0.959479665 C43.6565789,0.960675837 44.3488636,1.81115431 44.1254785,2.85272129 C43.990311,3.48190789 43.4364833,3.95439593 42.7911483,3.98579545 C42.629366,3.99386962 42.4672847,3.98908493 42.3052033,3.98908493 C38.6526914,3.98908493 35.0001794,3.98908493 31.3476675,3.98908493 L30.6377392,3.98908493 Z" id="Fill-3" fill="#6C778C"></path>
                <path d="M3.37413278,17.0345395 C4.25690789,16.1436902 5.1360945,15.2486543 6.02305622,14.3619916 C10.3089414,10.0776017 14.5996112,5.79799641 18.8804127,1.50912081 C19.3570873,1.03154904 19.889384,0.823116029 20.5362141,1.02257775 C21.6513457,1.36617823 21.9743122,2.7229366 21.1372907,3.58388158 C20.14686,4.60212321 19.1310108,5.59554426 18.1262261,6.59973086 C16.6253289,8.09973086 15.1265251,9.60152512 13.6202452,11.0958433 C13.4680323,11.24686 13.27186,11.3530203 13.0960227,11.4801136 C13.090939,11.5512859 13.0861543,11.6221591 13.0810706,11.6933313 C13.2347787,11.7902213 13.4127093,11.8625897 13.5380084,11.9875897 C16.1002093,14.5369318 18.65314,17.0955443 21.215939,19.6445873 C21.7069677,20.1326256 21.9154007,20.6900419 21.6890251,21.350628 C21.313128,22.447817 19.9982356,22.7432715 19.1552333,21.920305 C18.2033792,20.9905801 17.2700658,20.0423146 16.3292763,19.100927 C14.5628289,17.3332835 12.7969797,15.5650419 10.986573,13.7528409 C10.8316687,13.9005682 10.6917165,14.0282596 10.5577452,14.1622309 C8.00032895,16.7163577 5.44231459,19.2695873 2.88788876,21.8267045 C2.43812799,22.2770634 1.93782895,22.5139055 1.28741029,22.3243122 C0.653139952,22.1392045 0.216238038,21.6170754 0.177063397,20.9594797 C0.173773923,20.9056519 0.175568182,20.8518242 0.175568182,20.7976974 C0.175568182,14.7043959 0.175568182,8.6110945 0.175867225,2.51749402 C0.175867225,1.86139354 0.466238038,1.35930024 1.05774522,1.09345096 C2.24644139,0.559360048 3.23388158,1.56504187 3.22550837,2.47742225 C3.18932416,6.35959928 3.20965909,10.2423744 3.20936005,14.1251495 C3.20936005,15.0743122 3.20936005,16.024073 3.20936005,16.9738337 C3.26438397,16.9941687 3.31910885,17.0145036 3.37413278,17.0345395" id="Fill-5" fill="#6C778C"></path>
                <path d="M88.5381878,6.7930323 C90.3339414,5.76133373 92.1225179,4.73412081 93.9107955,3.70601077 C95.3737141,2.86510167 96.830951,2.01402512 98.3007476,1.18477871 C99.3506878,0.592374402 100.50619,1.1465012 100.647937,2.30828349 C100.733463,3.00774522 100.407207,3.51462321 99.8052333,3.85941986 C98.1545156,4.80529306 96.504994,5.75325957 94.8554725,6.70122608 C93.3770036,7.55110646 91.8988337,8.40188397 90.421561,9.25355861 C90.3139055,9.31546053 90.2119318,9.38603469 90.0662978,9.47873804 L90.0662978,10.3250299 C90.0665969,13.7045156 90.0668959,17.0843002 90.0677931,20.4634868 C90.0680921,21.0110347 90.0238337,21.5358553 89.5863337,21.9494318 C89.1141447,22.3956041 88.5624103,22.4736543 87.9858553,22.2744916 C87.3928529,22.0696471 87.0686902,21.6073266 86.9996112,20.9805323 C86.984061,20.8381878 86.9951256,20.6931519 86.9951256,20.5490132 C86.9948266,17.061573 86.9948266,13.5744318 86.9948266,10.0869916 L86.9948266,9.46617823 C86.1042763,8.95451555 85.2188098,8.44674043 84.3345395,7.9374701 C81.9858553,6.58430024 79.6386663,5.22784091 77.2869916,3.87975478 C76.8252691,3.61510167 76.4870514,3.26821172 76.414683,2.72514952 C76.3351376,2.13125 76.4990132,1.61898923 76.9975179,1.25385766 C77.5274222,0.865101675 78.1015849,0.834599282 78.6709629,1.14081938 C79.365939,1.51492225 80.0429725,1.92191986 80.7274821,2.31575957 C83.1862141,3.72963517 85.644049,5.14440789 88.1030801,6.55798445 C88.2421352,6.63782895 88.3850778,6.71049641 88.5381878,6.7930323" id="Fill-7" fill="#6C778C"></path>
                <path d="M72.3013756,2.39207536 C72.2771531,3.12532895 71.9559809,3.54309211 71.4365431,3.84123804 C69.6007177,4.89566388 67.7672847,5.95427632 65.9323565,7.0110945 C65.2642943,7.39626196 64.6040072,7.79608254 63.9245813,8.16091507 C63.3447368,8.4722189 62.6246411,8.3534988 62.1820574,7.91839115 C61.7412679,7.48507775 61.5770933,6.78083134 61.8716507,6.23507775 C62.0250598,5.95098684 62.2771531,5.67287679 62.554067,5.51019737 C65.0139952,4.06492225 67.4927632,2.65254187 69.9580742,1.21653708 C71.1623206,0.5152811 72.3722488,1.4701256 72.3013756,2.39207536" id="Fill-9" fill="#6C778C"></path>
                <path d="M58.7086423,16.4367524 C58.7086423,15.0180921 58.7053529,13.5994318 58.7095395,12.1807715 C58.7122309,11.2627093 59.3270634,10.6104964 60.1829246,10.6050768 C61.0345993,10.5994318 61.699073,11.2519438 61.7029605,12.1574462 C61.7146232,15.0485945 61.713128,17.9400419 61.7029605,20.8311902 C61.6999701,21.5832835 61.1892045,22.1939294 60.5292165,22.3072667 C59.7226974,22.4457237 59.0516447,22.0961423 58.7974581,21.3769438 C58.7277811,21.1807715 58.713427,20.9573864 58.7125299,20.746561 C58.7053529,19.3096591 58.7086423,17.8733553 58.7086423,16.4367524" id="Fill-11" fill="#6C778C"></path>
                <path d="M48.1317513,2.48582536 C48.1284689,1.30789474 49.2699163,0.621291866 50.3264354,1.19605263 C51.3979067,1.77858852 52.4439593,2.40807416 53.5013756,3.01662679 C54.900299,3.8222488 56.2986244,4.62876794 57.698744,5.43199761 C58.0647727,5.64192584 58.3865431,5.88833732 58.5384569,6.30311005 C58.7573565,6.9 58.5937799,7.56058612 58.1239833,7.96309809 C57.6517943,8.36830144 56.9592105,8.43169856 56.3644139,8.09587321 C55.2561603,7.46907895 54.1550837,6.82942584 53.0519139,6.19336124 C51.7002392,5.41405502 50.3488636,4.63385167 48.9986842,3.85125598 C48.3557416,3.47864833 48.1335526,3.12338517 48.1317513,2.48582536" id="Fill-13" fill="#6C778C"></path>
                <path d="M29.9232656,29.2334031 C30.4935407,29.0784988 30.8784091,29.1927333 31.1894139,29.6954246 C31.5919258,30.3455443 32.0805622,30.9424342 32.5688995,31.6128888 C33.0638158,30.9286782 33.5243421,30.2932117 33.9830742,29.6568481 C34.3852871,29.0994318 34.384689,29.0988337 35.1789474,29.2360945 L35.1789474,34.6810706 L34.3230861,34.6810706 L34.3230861,30.7495514 C34.2880981,30.7366926 34.252811,30.7238337 34.217823,30.7109749 C33.7611842,31.3210227 33.3045455,31.9310706 32.835945,32.5572667 L32.2716507,32.5572667 C31.8177033,31.9505084 31.35,31.3255084 30.8822967,30.7002093 L30.7925837,30.7301136 L30.7925837,34.6738935 L29.9232656,34.6738935 L29.9232656,29.2334031 Z" id="Fill-15" fill="#6C778C"></path>
                <path d="M24.7988038,34.6795455 L23.9608852,34.6795455 L23.9608852,30.7354665 L23.8592105,30.69061 C23.3944976,31.3099282 22.9294856,31.9295455 22.4761364,32.5333134 C22.070933,32.6669856 21.8242225,32.5207536 21.6047249,32.1915072 C21.2596292,31.6735646 20.8678828,31.1867225 20.3959928,30.7115431 L20.3959928,34.6750598 L19.5335526,34.6750598 L19.5335526,29.224701 C20.0742225,29.0955144 20.4842105,29.1529306 20.8086722,29.6876196 C21.2058014,30.3419258 21.6977273,30.9391148 22.1899522,31.6182416 C22.6618421,30.961244 23.1095096,30.3392344 23.5556818,29.7160287 C23.9788278,29.1251196 23.9779306,29.1245215 24.7988038,29.2130383 L24.7988038,34.6795455 Z" id="Fill-17" fill="#6C778C"></path>
                <path d="M108.730891,29.2047847 C109.170783,29.1135766 109.492255,29.1694976 109.79369,29.5791866 C110.613068,30.692823 111.491358,31.7630981 112.347219,32.8498206 C112.387889,32.9018541 112.435138,32.9491029 112.572398,33.1019139 L112.572398,31.1339115 L112.572398,29.2116627 L113.404635,29.2116627 L113.404635,34.6422847 C112.921083,34.8205144 112.612769,34.6632177 112.325688,34.283134 C111.459659,33.137201 110.56253,32.0148923 109.583762,30.8949761 L109.583762,34.6802632 L108.730891,34.6802632 L108.730891,29.2047847 Z" id="Fill-19" fill="#6C778C"></path>
                <path d="M99.0858852,31.9162978 C99.0760167,33.0547548 99.9273923,33.9692285 100.998565,33.9701268 C102.067045,33.9713218 102.933971,33.0487739 102.923505,31.9219797 C102.913038,30.80625 102.089773,29.8819079 101.033852,29.8953648 C99.7895335,29.9115132 99.1199761,30.8520036 99.0858852,31.9162978 M103.836184,31.966238 C103.82183,33.5655203 102.584988,34.8146232 101.011423,34.8188217 C99.4115431,34.8232955 98.175299,33.563427 98.175598,31.9288577 C98.175598,30.2880084 99.4013756,29.0535586 101.023086,29.0612972 C102.632835,29.0691089 103.850837,30.3265849 103.836184,31.966238" id="Fill-21" fill="#6C778C"></path>
                <path d="M11.7524522,33.9687201 C12.8143541,34.0162679 13.7398923,33.1409689 13.751256,31.9998206 C13.7617225,30.9220694 13.1415072,29.9654306 11.8873206,29.9011364 C10.9441388,29.8526914 9.99049043,30.5126794 9.91184211,31.8930622 C9.85023923,32.9758971 10.7141746,33.9223684 11.7524522,33.9687201 M14.6537679,31.947488 C14.6836722,33.2686603 13.7886364,34.7486244 11.8607057,34.8099282 C10.237799,34.8610646 9.00245215,33.5632177 9.01471292,31.8927632 C9.02667464,30.2641746 10.2120813,29.0763756 11.83439,29.066751 C13.45311,29.0572368 14.660945,30.2913876 14.6537679,31.947488" id="Fill-23" fill="#6C778C"></path>
                <path d="M53.6926734,32.9410586 L53.6926734,29.2093002 L54.502183,29.2093002 L54.502183,34.652183 C54.0664773,34.7990132 53.7641447,34.6916567 53.4836423,34.319049 C52.6747309,33.2436902 51.8302333,32.194049 50.9991926,31.1351376 C50.9354964,31.0534988 50.8664175,30.9766447 50.7159988,30.7975179 L50.7159988,34.6686304 L49.8807715,34.6686304 L49.8807715,29.2326256 C50.3401017,29.0789175 50.6499103,29.2030203 50.9411782,29.59686 C51.7411184,30.6790969 52.5859151,31.7278409 53.4136663,32.7894438 C53.4654007,32.8561304 53.5222189,32.9189294 53.5766447,32.9832237 L53.6926734,32.9410586 Z" id="Fill-25" fill="#6C778C"></path>
                <path d="M76.0613337,32.5070873 L77.99375,32.5070873 C77.6612141,31.7520036 77.3585825,31.0654007 77.0185706,30.2938696 C76.6767644,31.0842404 76.3801136,31.7696471 76.0613337,32.5070873 M78.3011663,33.3195873 L76.3262859,33.3195873 L75.7494318,33.3195873 C75.5442883,33.7723385 75.3397428,34.2235945 75.132506,34.6814294 L74.1923146,34.6814294 C75.0060108,32.8088218 75.7951854,30.9921352 76.5921352,29.1572069 L77.4683313,29.1572069 C78.2572069,30.9667165 79.055951,32.7989533 79.875628,34.6796352 L78.9273624,34.6796352 C78.7341806,34.2600778 78.5266447,33.8091208 78.3011663,33.3195873" id="Fill-27" fill="#6C778C"></path>
                <path d="M118.178499,34.2613337 L118.178499,33.395006 C118.699731,33.5774222 119.18747,33.8151615 119.701226,33.9069677 C120.088786,33.9763457 120.51881,33.9003888 120.91235,33.8112739 C121.194946,33.7472787 121.413547,33.5173146 121.43448,33.1913577 C121.455712,32.8576256 121.245484,32.6468002 120.969767,32.5307715 C120.607626,32.3785586 120.225748,32.2744916 119.854336,32.1441089 C119.567255,32.0433313 119.275389,31.950628 118.999671,31.8247309 C118.453917,31.5753289 118.18448,31.1342404 118.206908,30.5361543 C118.229635,29.9395634 118.533164,29.5104366 119.082207,29.2897428 C120.061573,28.8956041 121.011035,29.040939 121.961992,29.4871112 L121.961992,30.3148624 C121.480532,30.1790969 121.024193,30.013128 120.552901,29.9314892 C120.263726,29.88125 119.945245,29.9287978 119.652183,29.9901017 C119.377661,30.0475179 119.161453,30.2293361 119.137829,30.5403409 C119.113307,30.8636065 119.335496,31.0382476 119.592972,31.1393242 C119.941956,31.2759868 120.311274,31.3615132 120.665042,31.4871112 C120.968571,31.5947667 121.278678,31.6991328 121.558283,31.8546352 C122.610317,32.4410586 122.633044,33.8265251 121.595963,34.4473385 C120.706609,34.9796352 119.768511,34.8665969 118.836693,34.5675538 C118.617195,34.4972787 118.415042,34.3731758 118.178499,34.2613337" id="Fill-29" fill="#6C778C"></path>
                <path d="M43.965311,29.201555 L44.7793062,29.201555 C44.8151914,29.2607656 44.8501794,29.291567 44.8498823,29.3217703 C44.8301435,30.5221292 44.8693182,31.7275718 44.7676435,32.9213517 C44.6626794,34.1540072 43.6958732,34.8283493 42.4276316,34.8110048 C41.1767344,34.7936603 40.2924641,33.9712919 40.2383373,32.7505981 C40.1866029,31.5885167 40.2272727,30.4225478 40.2272727,29.215012 L41.097488,29.215012 C41.097488,29.6336722 41.097488,30.0427632 41.0977871,30.4518541 C41.0977871,31.1698565 41.0810407,31.8881579 41.1031699,32.6055622 C41.1276914,33.4078947 41.6937799,33.9536483 42.4748804,33.9697967 C43.2685407,33.9865431 43.8630383,33.4874402 43.9081938,32.6812201 C43.9614234,31.7329545 43.9497608,30.7808014 43.965012,29.8307416 C43.9680024,29.6360646 43.965311,29.4416866 43.965311,29.201555" id="Fill-31" fill="#6C778C"></path>
                <path d="M69.8141148,29.4372309 L69.8141148,30.257805 C68.2327751,29.7075658 67.3114234,29.8558911 66.6938995,30.7488337 C66.1894139,31.4784988 66.2384569,32.5960227 66.8042464,33.2595993 C67.4920455,34.0667165 68.5527512,34.1749701 69.8996411,33.5499701 L69.8996411,34.3765251 C68.7028708,35.0933313 67.0354067,34.8795156 66.1472488,33.8959629 C65.2187201,32.8675538 65.1753589,31.2383672 66.0189593,30.1235347 C66.8455144,29.0302333 68.6804426,28.7637859 69.8141148,29.4372309" id="Fill-33" fill="#6C778C"></path>
                <path d="M4.40604067,30.2829545 C3.00442584,29.6917464 1.95059809,29.8316986 1.33456938,30.6657297 C0.746650718,31.4617823 0.780741627,32.5769139 1.41590909,33.3053828 C2.0986244,34.0888756 3.20358852,34.1779904 4.49156699,33.5215909 L4.49156699,34.3293062 C3.57679426,35.1125 1.70897129,34.8927033 0.816626794,33.9898923 C-0.150179426,33.0123206 -0.284748804,31.2823565 0.554066986,30.1872608 C1.42966507,29.0440191 3.12045455,28.7153708 4.40604067,29.459988 L4.40604067,30.2829545 Z" id="Fill-35" fill="#6C778C"></path>
                <path d="M83.2222787,29.9795455 L83.2222787,29.2142943 L87.7040371,29.2142943 C87.7156998,29.3479665 87.7288577,29.4511364 87.7330443,29.5549043 C87.7378289,29.6754187 87.7342404,29.7968301 87.7342404,29.9636962 L85.9340012,29.9636962 L85.9340012,34.6664474 L85.0601974,34.6664474 L85.0601974,29.9795455 L83.2222787,29.9795455 Z" id="Fill-37" fill="#6C778C"></path>
                <mask id="mask-2" fill="white">
                    <use xlink:href="#path-1"></use>
                </mask>
                <g id="Clip-40"></g>
                <polygon id="Fill-39" fill="#6C778C" mask="url(#mask-2)" points="59.7108254 34.6749402 60.5095694 34.6749402 60.5095694 29.194677 59.7108254 29.194677"></polygon>
                <polygon id="Fill-41" fill="#6C778C" mask="url(#mask-2)" points="92.4357057 34.6964713 93.2392344 34.6964713 93.2392344 29.2024522 92.4357057 29.2024522"></polygon>
            </g>
        </g>
    </g>
</svg>