<?xml version="1.0" encoding="utf-8"?>
<!-- Generator: Adobe Illustrator 24.1.2, SVG Export Plug-In . SVG Version: 6.00 Build 0)  -->
<svg version="1.1" id="Layer_1" xmlns="http://www.w3.org/2000/svg" xmlns:xlink="http://www.w3.org/1999/xlink" x="0px" y="0px"
	 viewBox="0 0 130 46" style="enable-background:new 0 0 130 46;" xml:space="preserve">
<style type="text/css">
	.st0{fill-rule:evenodd;clip-rule:evenodd;fill:#6C778C;}
</style>
<g id="Page-1">
	<g id="Customer" transform="translate(-2389.000000, -31.000000)">
		<g id="scoopit" transform="translate(2389.000000, 31.000000)">
			<path id="Combined-Shape" class="st0" d="M119.5,5.5v34h-34v-34H119.5z M104.1,11.8h-4.4v5.7h-6.6v16.7h4.4V20.4h2.2V30
				c0,3.4,0.6,4.4,4.1,4.4c1,0,1.9-0.1,2.9-0.2v-3c-0.3,0-0.6,0.1-1,0.1c-1.3,0-1.6-0.5-1.6-1.8v-9h2.5v-3h-2.5V11.8z M112.4,30.1
				H108v4.1h4.4V30.1z M112.4,11.8H108v7.5l0.6,8.8h3.2l0.6-8.8C112.4,19.3,112.4,11.8,112.4,11.8z M97.6,11.8h-4.4v3.7h4.4V11.8z"
				/>
			<path id="Fill-2" class="st0" d="M79.9,34.2h4.2v-4.8h-4.2V34.2z M71.9,31.4c-1.9,0-2.3-1.9-2.3-5.5s0.4-5.5,2.3-5.5
				s2.3,1.9,2.3,5.5S73.8,31.4,71.9,31.4L71.9,31.4z M58.5,31.7c-2.2,0-2.3-2.5-2.3-5.9s0.2-5.9,2.3-5.9c1.8,0,2.3,1.7,2.3,5.9
				S60.3,31.7,58.5,31.7L58.5,31.7z M45.1,31.7c-2.2,0-2.3-2.5-2.3-5.9s0.2-5.9,2.3-5.9c1.8,0,2.3,1.7,2.3,5.9S46.9,31.7,45.1,31.7
				L45.1,31.7z M73.3,17.1c-1.7,0-2.9,0.7-3.9,2.2h-0.1v-1.8h-4.2v6.4c-0.3-4.6-2-7-6.7-6.9c-4.6,0-6.4,2.6-6.7,7.4
				c-0.2-4.9-1.9-7.5-6.7-7.4c-5,0-6.7,3.1-6.7,8.8c0,0.7,0,1.3,0.1,2h-4.1c0,2.7-0.7,3.9-2.1,3.9c-2,0-2.3-1.7-2.3-5.8
				c0-3.8,0.3-5.7,2.5-5.7c1.7,0,2,1.7,2,3.4h4.2c0-3.9-2.1-6.5-6.1-6.5s-6.9,1.9-6.9,8.8c0,0.2,0,0.4,0,0.5
				c-0.3-1.9-1.4-3.2-4.2-4.4l-3.7-1.5c-1.9-0.8-2.3-1.6-2.3-3c0-1.3,0.5-2.6,2.6-2.6c1.7,0,2.5,1.2,2.5,3.3h4.4v-0.6c0-4.3-3-6-7-6
				c-4.3,0-7,2.2-7,6.5c0,3.7,1.9,5.3,5.9,6.7c3,1,4.1,1.8,4.1,3.8c0,1.9-1.3,2.7-2.7,2.7c-2.4,0-3-1.3-3-3.4v-0.7h-4.6v0.9
				c0,4.1,2,6.5,7.2,6.5c4.8,0,7.7-2,7.9-6.4c0.5,4.8,2.6,6.4,6.4,6.4c4.5,0,6.4-2.3,6.5-6.4c0.4,4.3,2.1,6.5,6.6,6.4
				c4.6,0,6.4-2.6,6.7-7.4c0.2,4.9,1.9,7.5,6.7,7.4c4.5,0,6.3-2.4,6.7-7v12.1h4.4v-7h0.1c0.9,1.3,2,2,3.7,2c3.6,0,5.2-2.6,5.2-8.8
				S76.9,17.1,73.3,17.1L73.3,17.1z"/>
		</g>
	</g>
</g>
</svg>
