<?xml version="1.0" encoding="utf-8"?>
<!-- Generator: Adobe Illustrator 24.1.2, SVG Export Plug-In . SVG Version: 6.00 Build 0)  -->
<svg version="1.1" id="Layer_1" xmlns="http://www.w3.org/2000/svg" xmlns:xlink="http://www.w3.org/1999/xlink" x="0px" y="0px"
	 viewBox="0 0 130 46" style="enable-background:new 0 0 130 46;" xml:space="preserve">
<style type="text/css">
	.st0{fill-rule:evenodd;clip-rule:evenodd;fill:#6C778C;}
	.st1{fill-rule:evenodd;clip-rule:evenodd;fill:#485266;}
</style>
<g id="Page-1">
	<g id="Customer" transform="translate(-173.000000, -29.000000)">
		<g id="sigfox" transform="translate(173.000000, 29.000000)">
			<path id="Combined-Shape" class="st0" d="M82,16.7c0.4,0,0.9,0,1.3,0.1c0.5,0,0.9,0.1,1.3,0.2s0.9,0.1,1.3,0.2s0.8,0.2,1.1,0.3
				V28c0,2.1-0.5,3.6-1.6,4.6c-1,1-2.7,1.5-4.8,1.5c-0.8,0-1.5-0.1-2.3-0.2c-0.7-0.1-1.4-0.3-2.1-0.5l0.6-3c0.6,0.2,1.2,0.4,1.8,0.5
				c0.7,0.1,1.4,0.2,2.1,0.2c1,0,1.7-0.2,2.2-0.7c0.4-0.4,0.6-1,0.6-1.5v-0.6c-0.4,0.2-0.8,0.3-1.2,0.4c-0.4,0.1-0.9,0.1-1.3,0.1
				c-1.7,0-3.1-0.5-4-1.5s-1.4-2.5-1.4-4.3c0-0.9,0.1-1.7,0.4-2.5c0.3-0.7,0.7-1.4,1.2-2c0.6-0.6,1.3-1,2-1.3
				C80.2,16.8,81.1,16.7,82,16.7z M63.2,16.6c0.7,0,1.5,0.1,2.2,0.2c0.6,0.1,1.1,0.2,1.7,0.4L66.5,20c-0.4-0.2-0.9-0.3-1.3-0.4
				c-0.6-0.1-1.1-0.1-1.7-0.1c-1.1,0-1.7,0.3-1.7,0.9c0,0.1,0,0.3,0.1,0.4s0.2,0.2,0.3,0.3c0.2,0.1,0.4,0.2,0.6,0.3
				c0.2,0.1,0.6,0.3,0.9,0.4c0.7,0.2,1.3,0.5,1.9,0.9c0.4,0.2,0.9,0.5,1.2,0.9c0.3,0.3,0.5,0.7,0.6,1.1s0.2,0.9,0.2,1.4
				c0.1,1.1-0.5,2.2-1.4,2.8c-0.9,0.6-2.3,1-4,1c-0.9,0-1.9-0.1-2.8-0.3c-0.5-0.1-1-0.3-1.5-0.5l0.6-2.9c0.6,0.2,1.2,0.4,1.9,0.6
				c0.6,0.1,1.2,0.2,1.9,0.2c0.5,0,0.9,0,1.4-0.2c0.3-0.1,0.4-0.4,0.4-0.7c0-0.3-0.2-0.6-0.5-0.8c-0.5-0.3-1-0.5-1.6-0.7
				c-0.5-0.2-1-0.4-1.5-0.6c-0.4-0.2-0.8-0.5-1.2-0.8c-0.3-0.3-0.6-0.7-0.7-1.1c-0.2-0.5-0.3-1-0.3-1.6c0-1.1,0.5-2.1,1.3-2.8
				C60.5,17,61.7,16.6,63.2,16.6z M104.8,16.6c0.9,0,1.7,0.2,2.5,0.5c0.7,0.3,1.4,0.8,1.9,1.3c0.6,0.6,1,1.3,1.3,2.1
				c0.3,0.9,0.5,1.8,0.4,2.7c0,0.9-0.1,1.8-0.4,2.7c-0.3,0.8-0.7,1.5-1.2,2.1s-1.2,1-1.9,1.3c-0.8,0.3-1.7,0.5-2.5,0.5
				c-0.9,0-1.7-0.2-2.5-0.5c-0.7-0.3-1.4-0.8-1.9-1.3c-0.6-0.6-1-1.3-1.3-2.1c-0.3-0.9-0.5-1.8-0.4-2.7c0-0.9,0.1-1.8,0.5-2.7
				c0.3-0.8,0.7-1.5,1.3-2.1c0.6-0.6,1.2-1,1.9-1.3C103.1,16.8,104,16.6,104.8,16.6z M95.3,11c0.6,0,1.2,0.1,1.8,0.2
				c0.4,0.1,0.9,0.2,1.3,0.4l-0.7,2.8c-0.3-0.1-0.7-0.3-1-0.3C96.4,14,96,14,95.7,14c-0.4,0-0.7,0.1-1.1,0.2
				c-0.3,0.1-0.5,0.3-0.7,0.5s-0.3,0.5-0.4,0.7c-0.1,0.3-0.1,0.6-0.1,0.9v0.6h4.4v3h-4.4v9.6h-3.5V16.3c-0.1-1.4,0.4-2.8,1.4-3.9
				C92.1,11.5,93.5,11,95.3,11z M73.3,17v12.5h-3.5V17H73.3z M115.2,17l2.5,3.5l2.5-3.5h3.8l-2.1,3l-2.2,3.2l2.2,3.2l2.1,3h-3.8
				l-2.5-3.5l-2.5,3.5h-3.8l2.1-3l2.2-3.2l-2.2-3.2l-2.1-3H115.2z M104.8,19.7c-0.7,0-1.5,0.3-1.9,0.9c-0.5,0.8-0.7,1.7-0.7,2.6
				s0.2,1.8,0.7,2.6c0.4,0.6,1.1,1,1.9,1c0.7,0,1.5-0.3,1.9-1c0.5-0.8,0.7-1.7,0.7-2.6s-0.2-1.8-0.7-2.6
				C106.2,20,105.5,19.6,104.8,19.7z M79.9,20.5c-0.5,0.7-0.7,1.5-0.7,2.4c0,2,0.8,3,2.4,3c0.3,0,0.7,0,1-0.1s0.6-0.2,0.8-0.3v-5.7
				c-0.2,0-0.4-0.1-0.6-0.1s-0.5,0-0.8,0C81.2,19.5,80.4,19.8,79.9,20.5z M73.1,11.8c0.4,0.4,0.7,1,0.6,1.6c0,0.6-0.2,1.1-0.6,1.5
				c-0.9,0.7-2.1,0.7-3,0c-0.4-0.4-0.7-1-0.6-1.5c0-0.6,0.2-1.1,0.6-1.5C70.9,11,72.2,11,73.1,11.8z"/>
			<path id="Fill-11" class="st1" d="M51,6c-3.1-3.1-12.7,1.4-22,10.1c0.7,0.7,1.4,1.3,2.1,2.1c3.4,3.3,6.4,7,8.9,10.9
				C49.3,19.3,54.2,9.2,51,6"/>
			<path id="Fill-12" class="st1" d="M26.9,17.9C17,27.5,11.7,37.9,15,41.1c2.2,2.1,7.7,0.5,14-3.6V16
				C28.3,16.6,27.6,17.3,26.9,17.9"/>
			<path id="Fill-14" class="st0" d="M9.7,4.6C8.5,4.6,7.6,4.9,7,5.5l0,0C6.3,6.2,6,7.1,6,8.3l0,0l0,0c0,4.5,4.5,12.3,11.7,19.7l0,0
				c2.5-3.9,5.5-7.4,8.8-10.7l0,0c0.7-0.7,1.4-1.4,2.1-2l0,0C21.4,8.7,14.1,4.6,9.8,4.6l0,0H9.7z M28.5,37.3
				c6.3,4.2,11.7,5.9,13.9,3.7l0,0c3.3-3.3-2-13.9-11.8-23.7l0,0c-0.7-0.7-1.4-1.4-2.1-2l0,0C28.5,15.3,28.5,37.3,28.5,37.3z"/>
		</g>
	</g>
</g>
</svg>
