<?xml version="1.0" encoding="utf-8"?>
<!-- Generator: Adobe Illustrator 24.1.2, SVG Export Plug-In . SVG Version: 6.00 Build 0)  -->
<svg version="1.1" id="Layer_1" xmlns="http://www.w3.org/2000/svg" xmlns:xlink="http://www.w3.org/1999/xlink" x="0px" y="0px"
	 viewBox="0 0 130 46" style="enable-background:new 0 0 130 46;" xml:space="preserve">
<style type="text/css">
	.st0{fill-rule:evenodd;clip-rule:evenodd;fill:#6C778C;}
</style>
<g id="Page-1">
	<g id="Customer" transform="translate(-719.000000, -32.000000)">
		<path id="webedia" class="st0" d="M773,66.6v2.8c0,0.2,0,0.4,0.1,0.5c0,0.1,0.1,0.2,0.2,0.2c0.1,0.1,0.2,0.1,0.4,0.1
			s0.3,0,0.4-0.1c0.1-0.1,0.2-0.1,0.2-0.2s0.1-0.3,0.1-0.6v-2.7h0.8v2.6c0,0.4,0,0.7-0.1,0.9c0,0.2-0.1,0.3-0.3,0.5
			c-0.1,0.2-0.3,0.3-0.5,0.4s-0.4,0.1-0.6,0.1c-0.3,0-0.6-0.1-0.8-0.2s-0.4-0.3-0.5-0.5s-0.1-0.6-0.1-1.1v-2.6h0.7V66.6z
			 M742.1,66.5c0.4,0,0.7,0.1,1.1,0.2c0.3,0.1,0.5,0.3,0.8,0.6l-0.6,0.6c-0.4-0.4-0.8-0.6-1.3-0.6c-0.4,0-0.8,0.1-1.1,0.4
			s-0.4,0.6-0.4,1s0.1,0.8,0.5,1.1c0.3,0.3,0.7,0.4,1.1,0.4c0.3,0,0.5-0.1,0.7-0.2s0.4-0.3,0.5-0.6h-1.3v-0.8h2.2v0.2
			c0,0.4-0.1,0.7-0.3,1.1c-0.2,0.3-0.5,0.6-0.8,0.8c-0.3,0.2-0.7,0.3-1.1,0.3c-0.5,0-0.9-0.1-1.2-0.3c-0.4-0.2-0.6-0.5-0.9-0.8
			c-0.2-0.4-0.3-0.7-0.3-1.2c0-0.6,0.2-1.1,0.6-1.5C740.8,66.7,741.3,66.5,742.1,66.5z M751.7,66.5c0.4,0,0.7,0.1,1.1,0.2
			c0.2,0.1,0.5,0.3,0.8,0.6l-0.6,0.6c-0.4-0.4-0.8-0.6-1.3-0.6c-0.4,0-0.8,0.1-1.1,0.4s-0.4,0.6-0.4,1s0.1,0.8,0.5,1.1
			c0.3,0.3,0.7,0.4,1.1,0.4c0.3,0,0.5-0.1,0.7-0.2s0.4-0.3,0.5-0.6h-1.3v-0.8h2.2v0.2c0,0.4-0.1,0.7-0.3,1.1
			c-0.2,0.3-0.5,0.6-0.8,0.8c-0.3,0.2-0.7,0.3-1.1,0.3c-0.5,0-0.9-0.1-1.2-0.3c-0.4-0.2-0.6-0.5-0.9-0.8c-0.2-0.4-0.3-0.7-0.3-1.2
			c0-0.6,0.2-1.1,0.6-1.5C750.4,66.7,751,66.5,751.7,66.5z M763,66.5c0.4,0,0.7,0.1,1.1,0.2c0.3,0.1,0.5,0.3,0.8,0.6l-0.6,0.6
			c-0.4-0.4-0.8-0.6-1.3-0.6c-0.4,0-0.8,0.1-1.1,0.4s-0.4,0.6-0.4,1s0.1,0.8,0.5,1.1c0.3,0.3,0.7,0.4,1.1,0.4c0.3,0,0.5-0.1,0.7-0.2
			s0.4-0.3,0.5-0.6H763v-0.8h2.2v0.2c0,0.4-0.1,0.7-0.3,1.1c-0.2,0.3-0.5,0.6-0.8,0.8c-0.3,0.2-0.7,0.3-1.1,0.3
			c-0.5,0-0.9-0.1-1.2-0.3c-0.4-0.2-0.6-0.5-0.9-0.8c-0.2-0.4-0.3-0.7-0.3-1.2c0-0.6,0.2-1.1,0.6-1.5
			C761.7,66.7,762.3,66.5,763,66.5z M835.9,66.4c0.7,0,1.2,0.2,1.7,0.7c0.4,0.4,0.7,1,0.7,1.6s-0.2,1.2-0.7,1.6
			c-0.4,0.4-1,0.7-1.6,0.7s-1.2-0.2-1.6-0.7c-0.4-0.4-0.7-1-0.7-1.6c0-0.4,0.1-0.8,0.3-1.2c0.2-0.4,0.5-0.6,0.8-0.8
			C835.1,66.5,835.5,66.4,835.9,66.4z M827.3,66.4c0.2,0,0.4,0,0.6,0.1c0.2,0.1,0.4,0.3,0.6,0.6l-0.4,0.3c-0.2-0.2-0.3-0.3-0.4-0.4
			c-0.1-0.1-0.2-0.1-0.4-0.1s-0.3,0.1-0.4,0.2c-0.1,0.1-0.2,0.2-0.2,0.4c0,0.1,0,0.2,0.1,0.3c0,0.1,0.1,0.2,0.2,0.3
			c0.1,0.1,0.2,0.2,0.6,0.4c0.4,0.3,0.6,0.5,0.8,0.7c0.1,0.2,0.2,0.4,0.2,0.6c0,0.3-0.1,0.6-0.4,0.8c-0.2,0.2-0.5,0.4-0.9,0.4
			c-0.3,0-0.5-0.1-0.7-0.2s-0.4-0.4-0.6-0.7l0.4-0.2c0.3,0.5,0.6,0.7,0.9,0.7c0.1,0,0.3,0,0.4-0.1c0.1-0.1,0.2-0.2,0.3-0.3
			c0.1-0.1,0.1-0.2,0.1-0.4c0-0.1,0-0.3-0.1-0.4c-0.1-0.2-0.4-0.4-0.8-0.7c-0.4-0.3-0.6-0.5-0.7-0.6c-0.1-0.2-0.2-0.4-0.2-0.7
			c0-0.2,0-0.4,0.1-0.5s0.2-0.3,0.4-0.4C826.9,66.5,827.1,66.4,827.3,66.4z M830.3,66.4c0.2,0,0.4,0,0.6,0.1
			c0.2,0.1,0.4,0.3,0.6,0.6l-0.4,0.3c-0.2-0.2-0.3-0.3-0.4-0.4c-0.1-0.1-0.2-0.1-0.4-0.1s-0.3,0.1-0.4,0.2c-0.1,0.1-0.2,0.2-0.2,0.4
			c0,0.1,0,0.2,0.1,0.3c0,0.1,0.1,0.2,0.2,0.3c0.1,0.1,0.2,0.2,0.6,0.4c0.4,0.3,0.6,0.5,0.8,0.7c0.1,0.2,0.2,0.4,0.2,0.6
			c0,0.3-0.1,0.6-0.4,0.8c-0.2,0.2-0.5,0.4-0.9,0.4c-0.3,0-0.5-0.1-0.7-0.2s-0.4-0.4-0.6-0.7l0.4-0.2c0.3,0.5,0.6,0.7,0.9,0.7
			c0.1,0,0.3,0,0.4-0.1c0.1-0.1,0.2-0.2,0.3-0.3c0.1-0.1,0.1-0.2,0.1-0.4c0-0.1,0-0.3-0.1-0.4c-0.1-0.2-0.4-0.4-0.8-0.7
			c-0.4-0.3-0.6-0.5-0.7-0.6c-0.1-0.2-0.2-0.4-0.2-0.7c0-0.2,0-0.4,0.1-0.5s0.2-0.3,0.4-0.4C829.9,66.5,830.1,66.4,830.3,66.4z
			 M798.7,66.4c0.2,0,0.4,0,0.6,0.1c0.2,0.1,0.4,0.3,0.6,0.6l-0.6,0.5c-0.2-0.3-0.4-0.5-0.7-0.5c-0.1,0-0.2,0-0.3,0.1
			s-0.1,0.1-0.1,0.2s0,0.1,0.1,0.2s0.3,0.3,0.6,0.6c0.3,0.3,0.5,0.4,0.6,0.5c0.2,0.2,0.3,0.3,0.4,0.5c0.1,0.1,0.1,0.3,0.1,0.5
			c0,0.4-0.1,0.6-0.4,0.9c-0.2,0.2-0.6,0.4-1,0.4c-0.3,0-0.6-0.1-0.8-0.2s-0.4-0.4-0.6-0.7l0.7-0.4c0.2,0.4,0.5,0.6,0.7,0.6
			c0.1,0,0.3,0,0.4-0.1c0.1-0.1,0.1-0.2,0.1-0.3c0-0.1,0-0.2-0.1-0.3c-0.1-0.1-0.2-0.2-0.5-0.5c-0.5-0.4-0.8-0.7-0.9-0.9
			c-0.1-0.2-0.2-0.4-0.2-0.6c0-0.3,0.1-0.6,0.4-0.8C798.1,66.5,798.4,66.4,798.7,66.4z M791.9,66.4c0.4,0,0.7,0.1,1,0.2
			c0.3,0.2,0.6,0.4,0.9,0.7l-0.6,0.5c-0.4-0.4-0.8-0.6-1.3-0.6c-0.4,0-0.8,0.1-1.1,0.4s-0.4,0.6-0.4,1c0,0.3,0.1,0.5,0.2,0.8
			c0.1,0.2,0.3,0.4,0.5,0.5s0.5,0.2,0.8,0.2c0.2,0,0.5,0,0.7-0.1s0.4-0.2,0.7-0.5l0.6,0.6c-0.3,0.3-0.6,0.5-0.9,0.6
			c-0.3,0.1-0.6,0.2-1,0.2c-0.7,0-1.2-0.2-1.7-0.6c-0.4-0.4-0.6-1-0.6-1.6c0-0.4,0.1-0.8,0.3-1.1c0.2-0.3,0.5-0.6,0.9-0.8
			S791.5,66.4,791.9,66.4z M839.2,66.6l2.9,3.3v-3.3h0.4v4.3h-0.1l-2.9-3.3v3.3H839L839.2,66.6L839.2,66.6z M734.6,66.6v0.8H733v0.8
			h1.6V69H733v1.1h1.6v0.8h-2.4v-4.3C732.2,66.6,734.6,66.6,734.6,66.6z M736.2,66.6l1.9,2.8v-2.8h0.8v4.3h-0.8l-1.9-2.8v2.8h-0.8
			v-4.3H736.2z M757.2,66.6l1.9,2.8v-2.8h0.8v4.3h-0.8l-1.9-2.8v2.8h-0.8v-4.3H757.2z M802.8,66.6l0.9,3.1l1.3-3.1h0.1l1.3,3.1
			l0.9-3.1h0.4l-1.3,4.3h-0.1l-1.3-3.3l-1.3,3.3h-0.1l-1.3-4.3H802.8z M786,66.6l1.9,2.8v-2.8h0.8v4.3h-0.8l-1.9-2.8v2.8h-0.8v-4.3
			H786z M812.8,66.6v1.8h2.2v-1.8h0.4v4.3H815v-2.1h-2.2v2.1h-0.4v-4.3H812.8z M777.1,66.6c0.6,0,1.1,0.1,1.4,0.2
			c0.3,0.1,0.6,0.4,0.8,0.8s0.3,0.8,0.3,1.2c0,0.3-0.1,0.6-0.2,0.9c-0.1,0.3-0.3,0.5-0.5,0.7s-0.4,0.3-0.6,0.4
			c-0.2,0.1-0.6,0.1-1.2,0.1h-1v-4.3C776.1,66.6,777.1,66.6,777.1,66.6z M781.1,66.6v4.3h-0.8v-4.3H781.1z M784.5,66.6v0.8h-1.6v0.8
			h1.6V69h-1.6v1.1h1.6v0.8h-2.4v-4.3C782.1,66.6,784.5,66.6,784.5,66.6z M808.8,66.6v4.3h-0.4v-4.3H808.8z M755.4,66.6v4.3h-0.8
			v-4.3H755.4z M832.8,66.6v4.3h-0.4v-4.3H832.8z M823.6,66.6l2,4.3h-0.5l-0.7-1.4h-1.9l-0.7,1.4h-0.5l2.1-4.3H823.6z M811.8,66.6
			V67h-1v3.9h-0.4V67h-1v-0.4H811.8z M796.9,66.6v0.8h-1.6v0.8h1.6V69h-1.6v1.1h1.6v0.8h-2.4v-4.3C794.5,66.6,796.9,66.6,796.9,66.6
			z M747.2,66.6l1.7,4.3H748l-0.3-0.9h-1.8l-0.4,0.9h-0.9l1.7-4.3H747.2z M769.9,66.6l1.7,4.3h-0.9l-0.3-0.9h-1.8l-0.4,0.9h-0.9
			l1.7-4.3H769.9z M819.1,66.6c0.5,0,0.8,0,1,0.1s0.5,0.2,0.6,0.4c0.2,0.2,0.2,0.4,0.2,0.7c0,0.3-0.1,0.5-0.2,0.7
			c-0.1,0.2-0.4,0.3-0.6,0.4c-0.2,0-0.6,0.1-1.1,0.1h-0.3v2h-0.4v-4.3L819.1,66.6L819.1,66.6z M835.9,66.9c-0.3,0-0.6,0.1-0.9,0.2
			c-0.3,0.2-0.5,0.4-0.7,0.7c-0.2,0.3-0.2,0.6-0.2,0.9c0,0.5,0.2,0.9,0.5,1.3c0.4,0.4,0.8,0.5,1.3,0.5c0.3,0,0.6-0.1,0.9-0.2
			c0.3-0.2,0.5-0.4,0.7-0.7c0.2-0.3,0.2-0.6,0.2-0.9c0-0.4-0.1-0.6-0.2-0.9c-0.2-0.3-0.4-0.5-0.7-0.7
			C836.6,67,836.2,66.9,835.9,66.9z M777.2,67.4h-0.3v2.7h0.4c0.4,0,0.7,0,0.8-0.1c0.2-0.1,0.3-0.2,0.4-0.4c0.1-0.2,0.2-0.5,0.2-0.7
			c0-0.5-0.1-0.8-0.4-1.1C778.1,67.5,777.7,67.4,777.2,67.4z M769.4,67.7l-0.6,1.5h1.2L769.4,67.7z M746.8,67.7l-0.6,1.5h1.2
			L746.8,67.7z M823.6,67.5l-0.8,1.5h1.5L823.6,67.5z M819.5,67h-0.8v1.5h0.8c0.3,0,0.5,0,0.7-0.1c0.1-0.1,0.3-0.1,0.3-0.3
			s0.1-0.2,0.1-0.4c0-0.1,0-0.3-0.1-0.4s-0.2-0.2-0.3-0.2C820,67,819.8,67,819.5,67z M753.6,45.1c2.9,0,5.3,1.1,7,3.3
			c1.2,1.5,1.9,3.5,1.9,5.8h-15.4c0,2,0.7,3.6,1.9,4.8c1.2,1.3,2.8,1.9,4.5,1.9c0.9,0,1.7-0.1,2.5-0.5c0.8-0.3,1.5-0.7,2.1-1.2
			c0.5-0.5,1.2-1.3,1.8-2.4l1.9,1c-0.6,1.2-1.3,2.1-2.1,2.9c-0.8,0.7-1.7,1.3-2.7,1.6c-1,0.4-2.1,0.6-3.4,0.6c-2.8,0-5-0.9-6.5-2.7
			c-1.6-1.8-2.4-3.9-2.4-6.1c0-2.1,0.7-4.1,2-5.8C748.5,46.2,750.8,45.1,753.6,45.1z M818.5,39v23.5h-4.3v-1.8
			c-0.8,0.8-1.7,1.4-2.5,1.7c-0.8,0.4-1.8,0.5-2.8,0.5c-2.2,0-4.1-0.8-5.7-2.5c-1.6-1.7-2.4-3.8-2.4-6.3c0-2.6,0.8-4.8,2.3-6.4
			c1.6-1.7,3.5-2.5,5.7-2.5c1,0,2,0.2,2.9,0.6c0.9,0.4,1.7,1,2.5,1.7v-8.4L818.5,39L818.5,39z M846.2,57.4c0.8,0,1.4,0.3,1.9,0.8
			s0.8,1.2,0.8,2s-0.3,1.4-0.8,1.9s-1.2,0.8-1.9,0.8c-0.8,0-1.4-0.3-2-0.8c-0.5-0.5-0.8-1.2-0.8-2c0-0.7,0.3-1.4,0.8-1.9
			C844.9,57.7,845.5,57.4,846.2,57.4z M791.4,45.1c2.7,0,4.9,0.8,6.6,2.6c1.7,1.7,2.5,4,2.5,6.8v0.8h-13.8c0.2,1.2,0.7,2.2,1.6,2.9
			c0.9,0.7,2,1.1,3.3,1.1c1.6,0,3-0.6,4.1-1.7l3.6,1.7c-0.9,1.3-2,2.2-3.3,2.8s-2.8,0.9-4.5,0.9c-2.7,0-4.9-0.8-6.6-2.5
			c-1.7-1.7-2.5-3.8-2.5-6.3c0-2.6,0.8-4.7,2.5-6.4C786.8,46,788.9,45.1,791.4,45.1z M832.9,45.1c1,0,2,0.2,2.9,0.6
			c0.9,0.4,1.7,1,2.5,1.7v-1.9h4.3v17h-4.3v-1.8c-0.8,0.8-1.7,1.4-2.5,1.7c-0.8,0.4-1.8,0.5-2.8,0.5c-2.2,0-4.1-0.8-5.7-2.5
			c-1.6-1.7-2.4-3.8-2.4-6.3c0-2.6,0.8-4.8,2.3-6.4C828.7,45.9,830.6,45.1,832.9,45.1z M766.5,39v9.4c0.9-1.1,2-2,3.1-2.5
			c1.1-0.6,2.4-0.8,3.8-0.8c2.4,0,4.5,0.9,6.2,2.6c1.7,1.7,2.6,3.9,2.6,6.3c0,2.5-0.9,4.5-2.6,6.3c-1.7,1.7-3.8,2.6-6.2,2.6
			c-1.4,0-2.6-0.3-3.8-0.9c-1.1-0.6-2.1-1.5-3-2.7v3.2h-2.2V39H766.5z M721.3,45.5l5.3,12.3l5.4-12.3h0.4l5.5,12.3l5.4-12.3h2.3
			l-7.5,17h-0.4l-5.5-12.1l-5.5,12.1h-0.4l-7.3-17H721.3z M824.2,45.5v17h-4.3v-17H824.2z M773.1,47.1c-1.2,0-2.4,0.3-3.4,0.9
			c-1.1,0.6-1.9,1.4-2.5,2.5c-0.6,1-0.9,2.2-0.9,3.5c0,2,0.6,3.6,2,4.9c1.3,1.3,2.9,2,4.8,2c1.2,0,2.4-0.3,3.4-0.9
			c1-0.6,1.9-1.4,2.5-2.5s0.9-2.2,0.9-3.4s-0.3-2.4-0.9-3.4c-0.6-1.1-1.4-1.9-2.5-2.5C775.4,47.4,774.3,47.1,773.1,47.1z M809.7,49
			c-1.3,0-2.4,0.5-3.3,1.4c-0.9,0.9-1.3,2.1-1.3,3.6s0.4,2.7,1.3,3.6c0.9,0.9,2,1.4,3.3,1.4c1.4,0,2.5-0.5,3.4-1.4s1.3-2.1,1.3-3.7
			c0-1.5-0.4-2.7-1.3-3.6C812.1,49.5,811,49,809.7,49z M833.7,49c-1.3,0-2.4,0.5-3.3,1.4c-0.9,0.9-1.3,2.1-1.3,3.6s0.4,2.7,1.3,3.6
			s2,1.4,3.3,1.4c1.4,0,2.5-0.5,3.4-1.4s1.3-2.1,1.3-3.7c0-1.5-0.4-2.7-1.3-3.6C836.2,49.5,835.1,49,833.7,49z M753.6,47.2
			c-1.7,0-3.1,0.5-4.3,1.6c-0.9,0.8-1.5,1.9-2,3.5H760c-0.3-1.2-0.7-2.1-1.3-2.8s-1.3-1.3-2.2-1.7C755.6,47.4,754.6,47.2,753.6,47.2
			z M791.6,48.7c-1.2,0-2.3,0.3-3.1,1c-0.6,0.4-1.1,1.2-1.6,2.2h9.3l-0.1-0.2c-0.3-0.8-0.8-1.5-1.6-2.1
			C793.7,49,792.7,48.7,791.6,48.7z M824.2,39v4.8h-4.3V39H824.2z"/>
	</g>
</g>
</svg>
