<?xml version="1.0" encoding="UTF-8"?>
<svg width="39px" height="41px" viewBox="0 0 39 41" version="1.1" xmlns="http://www.w3.org/2000/svg" xmlns:xlink="http://www.w3.org/1999/xlink">
    <title>26986124-0E4E-4EC2-BC2B-EFB17AEBF5F5</title>
    <defs>
        <polygon id="path-1" points="0 0.000247643796 38.375602 0.000247643796 38.375602 41 0 41"></polygon>
        <linearGradient x1="50%" y1="0%" x2="50%" y2="100%" id="linearGradient-3">
            <stop stop-color="#408A9F" offset="0%"></stop>
            <stop stop-color="#1E5266" offset="100%"></stop>
        </linearGradient>
        <linearGradient x1="50%" y1="0%" x2="50%" y2="100%" id="linearGradient-4">
            <stop stop-color="#1E647D" offset="0%"></stop>
            <stop stop-color="#0D3447" offset="100%"></stop>
        </linearGradient>
        <linearGradient x1="50%" y1="0%" x2="50%" y2="100%" id="linearGradient-5">
            <stop stop-color="#6BD581" offset="0%"></stop>
            <stop stop-color="#39AB4A" offset="100%"></stop>
        </linearGradient>
    </defs>
    <g id="Page-1" stroke="none" stroke-width="1" fill="none" fill-rule="evenodd">
        <g id="Aspen-Mesh-Game---Introduction-Page" transform="translate(-855.000000, -461.000000)">
            <g id="Group-12" transform="translate(855.000000, 461.000000)">
                <g id="Group-3">
                    <mask id="mask-2" fill="white">
                        <use xlink:href="#path-1"></use>
                    </mask>
                    <g id="Clip-2"></g>
                    <path d="M38.375602,37.6687902 L28.5030306,26.8664961 C31.3818673,23.4257118 32.8590918,18.8152216 32.1738061,14.0053588 C30.9003367,5.07861373 22.7047653,-1.11640588 13.8660918,0.169064706 C5.02821429,1.45373137 -1.10513265,9.73331961 0.166744898,18.6600647 C1.44021429,27.5876137 9.63658163,33.7826333 18.4744592,32.4971627 C20.8200306,32.1563 22.9666224,31.3113784 24.843398,30.1030843 L34.8035204,41.0002476 L38.375602,37.6687902 Z" id="Fill-1" fill="url(#linearGradient-3)" mask="url(#mask-2)"></path>
                </g>
                <path d="M17.8531187,28.8658045 C10.7468507,29.8882058 4.15741689,24.9578524 3.1341979,17.8516811 C2.11178269,10.7471174 7.04220319,4.15696941 14.1476674,3.13456811 C21.2531315,2.11055927 27.8433692,7.04171646 28.8657844,14.1470839 C29.8881996,21.2532552 24.9585829,27.8417956 17.8531187,28.8658045 Z" id="Fill-4" fill="url(#linearGradient-4)"></path>
                <path d="M26.4130756,14.4320087 C27.2407239,20.4444618 23.2508625,26.0203826 17.499825,26.8864315 C11.7487876,27.7517009 6.41530243,23.5789197 5.58690847,17.5664666 C4.75926014,11.554793 8.74986722,5.97887227 14.500159,5.11360287 C20.2511965,4.24833346 25.5854273,8.41955562 26.4130756,14.4320087" id="Fill-6" fill="#FFFFFF"></path>
                <path d="M25,16 C25,20.9709585 20.9709585,25 16,25 C11.0290415,25 7,20.9709585 7,16 C7,11.0290415 11.0290415,7 16,7 C20.9709585,7 25,11.0290415 25,16" id="Fill-8" fill="url(#linearGradient-5)"></path>
                <path d="M16.1634692,21 C15.9050262,21 15.6759156,20.9115673 15.4769304,20.7354915 C15.2866656,20.5633636 15.1907404,20.3517568 15.1907404,20.0983024 C15.1907404,19.8409001 15.2866656,19.6292933 15.4769304,19.4619029 C15.6719518,19.2810896 15.9002695,19.1910778 16.1634692,19.1910778 C16.4219122,19.1910778 16.6486444,19.2810896 16.8436658,19.4619029 C17.0347233,19.6292933 17.1298557,19.8409001 17.1298557,20.0983024 C17.1298557,20.3517568 17.0347233,20.5633636 16.8436658,20.7354915 C16.6438877,20.9115673 16.4171555,21 16.1634692,21 L16.1634692,21 Z M15.3873474,18.1338334 C15.3477089,18.0217134 15.3112415,17.8740624 15.2795307,17.6940387 C15.2478199,17.5132254 15.2311717,17.3339913 15.2311717,17.1587051 C15.2311717,16.8831425 15.2874584,16.633636 15.3984462,16.4101856 C15.509434,16.1859455 15.6481687,15.977497 15.8138576,15.783261 C15.9787538,15.5882353 16.1579198,15.4011054 16.3505629,15.2210817 C16.543206,15.0402685 16.722372,14.8641927 16.8880609,14.6928543 C17.0537498,14.5207264 17.1916918,14.3399131 17.3026796,14.1504145 C17.4136674,13.9609159 17.4691612,13.7524674 17.4691612,13.5266482 C17.4691612,13.3237268 17.42873,13.1468614 17.3470747,12.9952625 C17.2654194,12.8436636 17.152846,12.7173312 17.0101475,12.6162653 C16.8674489,12.5144098 16.704931,12.4386103 16.5202156,12.388867 C16.3370858,12.3391236 16.1412716,12.3146467 15.9319803,12.3146467 C15.2565404,12.3146467 14.6128112,12.6146861 14,13.2155547 L14,11.6498223 C14.744411,11.2163443 15.5149834,11 16.3125099,11 C16.6803552,11 17.0275884,11.0481642 17.3542096,11.1429135 C17.6800381,11.2376629 17.9654352,11.3766285 18.2111939,11.5621792 C18.4561598,11.7469404 18.6488029,11.977497 18.789916,12.2530596 C18.9294435,12.5286222 19,12.8499803 19,13.2155547 C19,13.5629688 18.941335,13.8724832 18.8232123,14.1433083 C18.7050896,14.4141334 18.5568416,14.6644295 18.3776756,14.8926174 C18.1985096,15.1208054 18.0058665,15.3229372 17.7989535,15.4982235 C17.5936261,15.6750888 17.400983,15.8511646 17.2210243,16.0272404 C17.0418583,16.2033162 16.8936103,16.3857086 16.7754876,16.5752073 C16.6581576,16.7654955 16.5986999,16.9755231 16.5986999,17.2052902 C16.5986999,17.3995263 16.6240685,17.5763916 16.674013,17.7343071 C16.7231647,17.8922227 16.773902,18.0248717 16.8230537,18.1338334 L15.3873474,18.1338334 Z" id="Fill-10" fill="#FFFFFF"></path>
            </g>
        </g>
    </g>
</svg>