<svg  data-name="Layer 1" xmlns="http://www.w3.org/2000/svg" width="953" height="804.36" viewBox="0 0 953 804.36"><defs><style>.cls-1{fill:none;stroke:#d1d1d1;stroke-linejoin:round;}</style></defs><polygon class="cls-1" points="952.5 378.29 479.03 653.44 0.68 377.77 475.88 103.11 952.5 378.29"/><polygon class="cls-1" points="952.5 378.29 952.35 528.71 478.88 803.86 479.03 653.44 952.5 378.29"/><polygon class="cls-1" points="479.03 653.44 478.88 803.86 0.5 528.2 0.65 377.78 479.03 653.44"/><polygon class="cls-1" points="519.85 664.08 519.85 755 543.15 741.58 543.15 650.71 519.85 664.08"/><polygon class="cls-1" points="571.82 634.03 551 646.27 551 737.13 571.63 724.96 571.82 634.03"/><path class="cls-1" d="M878.32,486.4c6.14-3.64,11.21-.84,11.32,6.27s-4.78,15.83-10.92,19.48-11.21.84-11.32-6.27S872.18,490.05,878.32,486.4Z"/><path class="cls-1" d="M921.28,461.82c6.15-3.65,11.21-.84,11.32,6.27s-4.78,15.82-10.92,19.47-11.21.85-11.32-6.26S915.14,465.47,921.28,461.82Z"/><polygon class="cls-1" points="951.6 275.11 479.11 549.69 1.75 274.6 475.97 0.5 951.6 275.11"/><polygon class="cls-1" points="951.6 275.11 951.45 327.78 478.96 602.36 479.11 549.69 951.6 275.11"/><polygon class="cls-1" points="479.11 549.69 478.96 602.36 1.58 327.27 1.73 274.6 479.11 549.69"/></svg>