<svg  data-name="Layer 1" xmlns="http://www.w3.org/2000/svg" width="950.8" height="531.58" viewBox="0 0 950.8 531.58"><defs><style>.cls-1,.cls-2{fill:none;stroke:#d1d1d1;stroke-linejoin:round;}.cls-2{stroke-linecap:round;}</style></defs><path class="cls-1" d="M944.26,334.11c8.24-19.05,6.3-37.63,4.31-59C942.8,212.88,873,120.23,780.57,103a239.72,239.72,0,0,0-44-4c-113.56,0-190.45,88.61-197.17,176.11-1.65,21.44-3.93,42.1,4.3,61.15,0,0,5.68,41.23,194.21,41.23S944.26,334.11,944.26,334.11Z"/><path class="cls-1" d="M819.11,363.58A267.63,267.63,0,0,0,835.91,270c0-129.08-91.21-237-213-263.35A273.38,273.38,0,0,0,565,.5C415.38.5,294.09,121.17,294.09,270a267.85,267.85,0,0,0,16.79,93.56s7.48,63.09,255.88,63.09S819.11,363.58,819.11,363.58Z"/><path class="cls-1" d="M436.14,378.4A164.15,164.15,0,0,0,282.35,156.7c-90.55,0-164,73.68-164,164.57a164.64,164.64,0,0,0,10.17,57.13s4.52,38.53,154.85,38.53S436.14,378.4,436.14,378.4Z"/><path class="cls-1" d="M231.21,438.61a88.81,88.81,0,0,0,7.38-35.4c0-48.84-40.08-89.65-93.6-99.63a138.66,138.66,0,0,0-25.44-2.34c-65.75,0-119,45.65-119,102a88.81,88.81,0,0,0,7.38,35.4s3.29,23.87,112.44,23.87S231.21,438.61,231.21,438.61Z"/><path class="cls-1" d="M492.86,437.66c6.2-14.33,4.74-28.31,3.24-44.42-4.34-46.8-56.86-116.53-126.42-129.5a180.15,180.15,0,0,0-33.07-3c-85.46,0-143.33,66.68-148.39,132.53-1.23,16.13-2.95,31.68,3.25,46,0,0,4.27,31,146.14,31S492.86,437.66,492.86,437.66Z"/><path class="cls-1" d="M871.59,314.92c-18.26-5.94-50.91-9.58-90.17-11.71-119.76-6.49-301.29,1.11-325.63.6a5,5,0,0,0-2.25.47c-12.93,6.41-210.53,44.23-344.12,76.25C-59.49,421-12,489.41,156.88,478.24c42.72-2.82,50.25-2.79,78,1.78,18.21,3,51.16,15.79,121.56,15.79,133.5,0,146.09-30.68,146.09-30.68A50.4,50.4,0,0,0,506,452.94c11.48.67,23.77,1.16,36.77,1.48,9.37.22,19.06.37,29.32.37,171.44,0,219.09-31.93,232.34-49,49.05-3,102-13,134.2-40.67S899.51,321.9,871.59,314.92Z"/><path class="cls-1" d="M871.59,350.18c-18.26-5.94-50.91-9.58-90.17-11.71-119.76-6.49-301.28,1.11-325.63.61a4.84,4.84,0,0,0-2.25.46c-13,6.41-210.54,44.23-344.12,76.25C-59.49,456.27-12,524.67,156.88,513.51c42.72-2.83,50.25-2.8,78,1.77,18.21,3,51.16,15.8,121.56,15.8,133.5,0,146.09-30.69,146.09-30.69A50.28,50.28,0,0,0,506,488.2c11.48.68,23.77,1.17,36.77,1.48,9.37.22,19.06.37,29.32.37,171.44,0,219.09-31.92,232.34-48.95,49.05-3,102-13,134.2-40.66S899.51,357.16,871.59,350.18Z"/><line class="cls-2" x1="4" y1="439.6" x2="4" y2="474.79"/><line class="cls-2" x1="946.8" y1="351.61" x2="946.8" y2="386.78"/></svg>