<svg  data-name="Layer 1" xmlns="http://www.w3.org/2000/svg" xmlns:xlink="http://www.w3.org/1999/xlink" width="573.78" height="320.96" viewBox="0 0 573.78 320.96"><defs><style>.cls-1,.cls-3,.cls-4{fill:none;}.cls-2{fill:#d1d1d1;}.cls-3,.cls-4{stroke:#d1d1d1;stroke-miterlimit:10;}.cls-4{stroke-linecap:round;}.cls-5{fill:url(#Dot_);}</style><pattern id="Dot_" data-name="Dot?" width="8.94" height="8.92" patternUnits="userSpaceOnUse" viewBox="0 0 8.94 8.92"><rect class="cls-1" width="8.94" height="8.92"/><circle class="cls-2" cx="8.94" cy="8.92" r="0.97"/><circle class="cls-2" cy="8.92" r="0.97"/><circle class="cls-2" cx="4.47" cy="4.46" r="0.97"/><circle class="cls-2" cx="8.94" r="0.97"/><circle class="cls-2" r="0.97"/></pattern></defs><path class="cls-3" d="M569.63,201.68c5-11.49,3.8-22.69,2.6-35.6-3.48-37.5-45.56-93.38-101.31-103.78a144.79,144.79,0,0,0-26.5-2.43c-68.49,0-114.86,53.44-118.91,106.21-1,12.93-2.37,25.39,2.6,36.87,0,0,3.42,24.87,117.11,24.87S569.63,201.68,569.63,201.68Z"/><path class="cls-3" d="M494.16,219.45A161.42,161.42,0,0,0,504.29,163c0-77.84-55-142.9-128.46-158.81A164.56,164.56,0,0,0,340.92.5C250.69.5,177.55,73.27,177.55,163a161.19,161.19,0,0,0,10.13,56.42S192.19,257.5,342,257.5,494.16,219.45,494.16,219.45Z"/><path class="cls-3" d="M263.21,228.39A99,99,0,0,0,170.47,94.7c-54.61,0-98.88,44.43-98.88,99.24a99.33,99.33,0,0,0,6.13,34.45s2.73,23.24,93.39,23.24S263.21,228.39,263.21,228.39Z"/><path class="cls-3" d="M139.63,264.7a53.5,53.5,0,0,0,4.45-21.35c0-29.45-24.17-54.06-56.45-60.08a83.75,83.75,0,0,0-15.34-1.41C32.64,181.86.5,209.39.5,243.35A53.67,53.67,0,0,0,5,264.7s2,14.39,67.81,14.39S139.63,264.7,139.63,264.7Z"/><path class="cls-3" d="M297.42,264.13c3.73-8.65,2.85-17.07,1.95-26.79-2.62-28.22-34.29-70.27-76.24-78.09a108.66,108.66,0,0,0-19.94-1.83c-51.54,0-86.43,40.21-89.48,79.92-.75,9.73-1.79,19.1,2,27.75,0,0,2.58,18.71,88.13,18.71S297.42,264.13,297.42,264.13Z"/><path class="cls-3" d="M525.81,190.11c-11-3.58-30.7-5.78-54.38-7.06-72.22-3.92-181.69.67-196.37.36a3,3,0,0,0-1.35.28c-7.81,3.87-127,26.68-207.53,46C-35.67,254.09-7,295.33,94.8,288.6c25.76-1.7,30.31-1.68,47,1.07,11,1.81,30.85,9.53,73.3,9.53,80.51,0,88.1-18.51,88.1-18.51a30.16,30.16,0,0,0,2.08-7.35c6.93.41,14.34.7,22.18.89,5.65.14,11.5.22,17.68.22,103.39,0,132.12-19.25,140.11-29.51,29.58-1.8,61.48-7.86,80.93-24.53S542.64,194.32,525.81,190.11Z"/><path class="cls-3" d="M525.81,211.38c-11-3.59-30.7-5.78-54.38-7.07-72.22-3.91-181.69.67-196.37.37a2.89,2.89,0,0,0-1.36.28c-7.81,3.86-127,26.67-207.52,46C-35.67,275.35-7,316.6,94.8,309.87c25.76-1.71,30.31-1.69,47,1.07,11,1.81,30.85,9.52,73.3,9.52,80.51,0,88.1-18.5,88.1-18.5a30.41,30.41,0,0,0,2.08-7.35c6.93.4,14.34.7,22.18.89,5.65.13,11.5.22,17.68.22,103.39,0,132.12-19.25,140.11-29.52,29.58-1.79,61.48-7.86,80.93-24.52S542.64,215.58,525.81,211.38Z"/><line class="cls-4" x1="2.61" y1="265.3" x2="2.61" y2="286.52"/><line class="cls-4" x1="571.16" y1="212.23" x2="571.16" y2="233.44"/><path class="cls-5" d="M56.79,182.8s-76.23,16-50.24,84.72c0,0,14.08,9.27,30.69,9.27C37.24,276.79.7,224.13,56.79,182.8Zm129.6-24.1s-79.86,14-72.27,102.81a9.34,9.34,0,0,0,3.85,6.81c6.34,4.57,21.24,13.2,43.24,13.2C161.21,281.52,114.15,212.91,186.39,158.7ZM149.83,96.6s-65.91,11.75-77.12,84.45a95.09,95.09,0,0,1,32.89,6.8C103,162.8,108.91,127.3,149.83,96.6ZM326.11,1.32S235.71,4.09,191.6,97.39c0,0,33.68,6.28,51.76,29.92C242.44,72.36,282.19,15.53,326.11,1.32ZM105.6,187.85"/><path class="cls-5" d="M2.61,267.33v20.38S1.7,313.05,86.83,310.3c0,0,25-2.13,34.1-1.58a226.9,226.9,0,0,1,32,4.72c9.9,2.2,39.28,7.75,57.38,7s62.44.24,82.26-10.58c0,0,11.79-3.88,12.75-14.76V273.78s-1.31,12.41-17.49,16.72-31.08,8.68-65.7,8.7-53.26-3.31-65.82-6.23-26.12-5.77-36.15-5.53-40.63,2.3-58.35,1.65S7.15,284.14,2.61,267.33Z"/></svg>