<svg  data-name="Layer 1" xmlns="http://www.w3.org/2000/svg" xmlns:xlink="http://www.w3.org/1999/xlink" width="469.43" height="396.3" viewBox="0 0 469.43 396.3"><defs><style>.cls-1,.cls-3{fill:none;}.cls-2{fill:#d1d1d1;}.cls-3,.cls-4{stroke:#d1d1d1;stroke-linejoin:round;}.cls-4{fill:url(#Dot_);}</style><pattern id="Dot_" data-name="Dot?" width="8.94" height="8.92" patternTransform="translate(3.36 -8.92)" patternUnits="userSpaceOnUse" viewBox="0 0 8.94 8.92"><rect class="cls-1" width="8.94" height="8.92"/><circle class="cls-2" cx="8.94" cy="8.92" r="0.97"/><circle class="cls-2" cy="8.92" r="0.97"/><circle class="cls-2" cx="4.47" cy="4.46" r="0.97"/><circle class="cls-2" cx="8.94" r="0.97"/><circle class="cls-2" r="0.97"/></pattern></defs><polygon class="cls-3" points="468.93 186.39 235.96 321.78 0.59 186.13 234.41 50.99 468.93 186.39"/><polygon class="cls-3" points="468.93 186.39 468.86 260.41 235.89 395.8 235.96 321.78 468.93 186.39"/><polygon class="cls-4" points="235.96 321.78 235.89 395.8 0.5 260.16 0.57 186.14 235.96 321.78"/><polygon class="cls-3" points="256.05 327.01 256.05 371.75 267.51 365.15 267.51 320.44 256.05 327.01"/><polygon class="cls-3" points="281.62 312.23 271.38 318.25 271.38 362.96 281.52 356.97 281.62 312.23"/><path class="cls-3" d="M432.43,239.59c3-1.8,5.52-.42,5.57,3.08a12.11,12.11,0,0,1-5.37,9.59c-3,1.79-5.52.41-5.57-3.09A12.13,12.13,0,0,1,432.43,239.59Z"/><path class="cls-3" d="M453.57,227.49c3-1.79,5.52-.41,5.57,3.09a12.1,12.1,0,0,1-5.37,9.58c-3,1.8-5.52.42-5.57-3.08A12.13,12.13,0,0,1,453.57,227.49Z"/><polygon class="cls-3" points="468.49 135.62 236 270.73 1.12 135.37 234.46 0.5 468.49 135.62"/><polygon class="cls-3" points="468.49 135.62 468.42 161.54 235.93 296.65 236 270.73 468.49 135.62"/><polygon class="cls-4" points="236 270.73 235.93 296.65 1.03 161.29 1.1 135.37 236 270.73"/></svg>