<svg  data-name="Layer 1" xmlns="http://www.w3.org/2000/svg" width="849.37" height="980.61" viewBox="0 0 849.37 980.61"><defs><style>.cls-1,.cls-2{fill:none;stroke:#d1d1d1;stroke-linejoin:round;}.cls-1{stroke-linecap:round;}</style></defs><line class="cls-1" x1="424.69" y1="0.5" x2="848.87" y2="245.4"/><line class="cls-1" x1="848.87" y1="245.4" x2="424.69" y2="490.3"/><line class="cls-1" x1="424.69" y1="0.5" x2="0.51" y2="245.4"/><line class="cls-1" x1="424.69" y1="0.5" x2="424.69" y2="172.59"/><line class="cls-1" x1="424.69" y1="259.17" x2="424.7" y2="265.71"/><polygon class="cls-1" points="424.68 490.31 424.68 980.11 0.5 735.2 0.5 245.39 424.68 490.31"/><line class="cls-1" x1="848.87" y1="245.4" x2="848.87" y2="735.2"/><line class="cls-1" x1="681.32" y1="638.47" x2="848.87" y2="735.2"/><line class="cls-1" x1="848.87" y1="735.2" x2="424.69" y2="980.1"/><line class="cls-1" x1="149.57" y1="649.14" x2="0.51" y2="735.2"/><line class="cls-1" x1="149.57" y1="331.43" x2="149.57" y2="417.84"/><path class="cls-2" d="M476.56,200.94c-6.21,3.58-11.26.7-11.28-6.43s5-15.84,11.21-19.43,11.27-.71,11.29,6.43S482.78,197.35,476.56,200.94Z"/><path class="cls-2" d="M509,182.19c-6.21,3.59-11.26.71-11.28-6.43s5-15.83,11.21-19.42,11.27-.71,11.29,6.44S515.18,178.61,509,182.19Z"/><path class="cls-2" d="M541.48,163.48c-6.21,3.59-11.26.71-11.29-6.43s5-15.83,11.21-19.42,11.28-.71,11.29,6.43S547.69,159.9,541.48,163.48Z"/><line class="cls-1" x1="573.75" y1="86.53" x2="149.57" y2="331.43"/><line class="cls-1" x1="573.75" y1="173.11" x2="149.57" y2="418.01"/><line class="cls-1" x1="573.75" y1="179.65" x2="149.57" y2="424.55"/><line class="cls-1" x1="149.57" y1="424.55" x2="149.57" y2="821.23"/><line class="cls-1" x1="573.75" y1="86.53" x2="573.75" y2="173.11"/><line class="cls-1" x1="573.75" y1="179.65" x2="573.75" y2="210.63"/><line class="cls-1" x1="253.22" y1="761.39" x2="149.57" y2="821.23"/><line class="cls-1" x1="257.29" y1="393.42" x2="257.29" y2="479.83"/><path class="cls-2" d="M584.28,262.76c-6.21,3.58-11.26.7-11.28-6.43s5-15.84,11.21-19.43,11.27-.7,11.29,6.43S590.5,259.17,584.28,262.76Z"/><path class="cls-2" d="M616.68,244c-6.21,3.59-11.27.71-11.28-6.43s5-15.83,11.21-19.42,11.26-.71,11.29,6.44S622.9,240.43,616.68,244Z"/><path class="cls-2" d="M649.2,225.31c-6.21,3.59-11.27.7-11.29-6.43s5-15.84,11.21-19.43,11.27-.71,11.29,6.44S655.41,221.72,649.2,225.31Z"/><line class="cls-1" x1="681.21" y1="148.58" x2="257.03" y2="393.48"/><line class="cls-1" x1="681.47" y1="234.93" x2="257.29" y2="479.83"/><line class="cls-1" x1="681.47" y1="241.47" x2="257.29" y2="486.37"/><line class="cls-1" x1="257.29" y1="486.37" x2="257.29" y2="883.05"/><line class="cls-1" x1="681.47" y1="148.58" x2="681.47" y2="234.93"/><line class="cls-1" x1="681.47" y1="241.54" x2="681.47" y2="638.22"/><line class="cls-1" x1="681.47" y1="638.15" x2="257.29" y2="883.05"/><line class="cls-1" x1="573.75" y1="297.28" x2="573.75" y2="303.45"/></svg>