<svg  data-name="Layer 1" xmlns="http://www.w3.org/2000/svg" xmlns:xlink="http://www.w3.org/1999/xlink" width="418.44" height="483.02" viewBox="0 0 418.44 483.02"><defs><style>.cls-1,.cls-3,.cls-5{fill:none;}.cls-2{fill:#d1d1d1;}.cls-3,.cls-4,.cls-5{stroke:#d1d1d1;stroke-linejoin:round;}.cls-3,.cls-4{stroke-linecap:round;}.cls-4{fill:url(#Dot_);}</style><pattern id="Dot_" data-name="Dot?" width="8.94" height="8.92" patternTransform="translate(13.82 0.41)" patternUnits="userSpaceOnUse" viewBox="0 0 8.94 8.92"><rect class="cls-1" width="8.94" height="8.92"/><circle class="cls-2" cx="8.94" cy="8.92" r="0.97"/><circle class="cls-2" cy="8.92" r="0.97"/><circle class="cls-2" cx="4.47" cy="4.46" r="0.97"/><circle class="cls-2" cx="8.94" r="0.97"/><circle class="cls-2" r="0.97"/></pattern></defs><line class="cls-3" x1="417.94" y1="121" x2="417.94" y2="362.01"/><line class="cls-3" x1="209.22" y1="0.5" x2="417.94" y2="121"/><line class="cls-3" x1="417.94" y1="121" x2="209.22" y2="241.51"/><line class="cls-3" x1="209.22" y1="0.5" x2="0.5" y2="121"/><line class="cls-3" x1="209.22" y1="0.5" x2="209.22" y2="85.18"/><line class="cls-3" x1="209.23" y1="127.78" x2="209.23" y2="131"/><polygon class="cls-4" points="209.22 241.51 209.22 482.52 0.5 362.01 0.5 121 209.22 241.51"/><line class="cls-3" x1="335.5" y1="314.41" x2="417.94" y2="362.01"/><line class="cls-3" x1="417.94" y1="362.01" x2="209.22" y2="482.51"/><line class="cls-3" x1="73.85" y1="319.66" x2="0.5" y2="362.01"/><line class="cls-3" x1="73.85" y1="163.33" x2="73.85" y2="205.85"/><path class="cls-5" d="M234.75,99.13c-3.06,1.76-5.55.34-5.56-3.17a12.17,12.17,0,0,1,5.52-9.56c3.06-1.76,5.55-.34,5.56,3.17A12.17,12.17,0,0,1,234.75,99.13Z"/><path class="cls-5" d="M250.69,89.9c-3.06,1.77-5.54.35-5.55-3.16a12.19,12.19,0,0,1,5.51-9.56c3.06-1.76,5.55-.35,5.56,3.17A12.14,12.14,0,0,1,250.69,89.9Z"/><path class="cls-5" d="M266.69,80.7c-3.06,1.76-5.54.35-5.55-3.17A12.16,12.16,0,0,1,266.65,68c3.06-1.77,5.55-.35,5.56,3.16A12.17,12.17,0,0,1,266.69,80.7Z"/><line class="cls-3" x1="282.57" y1="42.83" x2="73.85" y2="163.33"/><line class="cls-3" x1="282.57" y1="85.43" x2="73.85" y2="205.94"/><line class="cls-3" x1="282.57" y1="88.65" x2="73.85" y2="209.16"/><line class="cls-3" x1="73.85" y1="209.16" x2="73.85" y2="404.34"/><line class="cls-3" x1="282.57" y1="42.83" x2="282.57" y2="85.43"/><line class="cls-3" x1="282.57" y1="88.65" x2="282.57" y2="103.89"/><line class="cls-3" x1="124.85" y1="374.89" x2="73.85" y2="404.34"/><line class="cls-3" x1="126.85" y1="193.84" x2="126.85" y2="236.35"/><path class="cls-5" d="M287.75,129.54c-3.06,1.77-5.54.35-5.55-3.16a12.19,12.19,0,0,1,5.51-9.56c3.06-1.76,5.55-.35,5.56,3.17A12.14,12.14,0,0,1,287.75,129.54Z"/><path class="cls-5" d="M303.69,120.32c-3.05,1.77-5.54.35-5.55-3.16a12.16,12.16,0,0,1,5.52-9.56c3-1.76,5.54-.35,5.55,3.17A12.14,12.14,0,0,1,303.69,120.32Z"/><path class="cls-5" d="M319.69,111.12c-3.05,1.76-5.54.34-5.55-3.17a12.17,12.17,0,0,1,5.52-9.56c3-1.76,5.54-.34,5.55,3.17A12.17,12.17,0,0,1,319.69,111.12Z"/><line class="cls-3" x1="335.44" y1="73.37" x2="126.73" y2="193.87"/><line class="cls-3" x1="335.57" y1="115.85" x2="126.85" y2="236.35"/><line class="cls-3" x1="335.57" y1="119.07" x2="126.85" y2="239.57"/><line class="cls-3" x1="126.85" y1="239.57" x2="126.85" y2="434.76"/><line class="cls-3" x1="335.57" y1="73.37" x2="335.57" y2="115.85"/><line class="cls-3" x1="335.57" y1="119.1" x2="335.57" y2="314.29"/><line class="cls-3" x1="335.57" y1="314.26" x2="126.85" y2="434.76"/><line class="cls-3" x1="282.57" y1="146.5" x2="282.57" y2="149.54"/></svg>