<svg class="ux-modal-launch" data-modal-template="#uxModalTmp" width="411px" height="424px" viewBox="0 0 411 424" version="1.1" xmlns="http://www.w3.org/2000/svg" xmlns:xlink="http://www.w3.org/1999/xlink">
                        <g id="Product-page" stroke="none" stroke-width="1" fill="none" fill-rule="evenodd">
                            <g id="Desktop" transform="translate(-879.000000, -128.000000)" fill-rule="nonzero">
                                <g id="Hero">
                                    <g id="Image" transform="translate(879.000000, 128.000000)">
                                        <g id="Group" transform="translate(0.000000, 163.800370)">
                                            <polygon id="Path" fill="#EB0000" points="410.921565 118.806211 206.762805 237.361627 0.501984733 118.594603 205.405878 0.250794824"></polygon>
                                            <polygon id="Path" fill="#A30000" points="410.921565 118.806211 410.858817 141.550166 206.700057 260.097745 206.762805 237.361627"></polygon>
                                            <polygon id="Path" fill="#CC0000" points="206.762805 237.361627 206.700057 260.097745 0.43139313 141.330721 0.494141221 118.586765"></polygon>
                                        </g>
                                        <polygon id="Blue_Shadow_10_" fill="#ACB8BF" points="62.0892366 293.351571 133.245573 334.670018 205.013702 293.367246 133.724027 252.025287"></polygon>
                                        <polygon id="Blue_Shadow_12_" fill="#ACB8BF" points="198.299656 223.771682 253.463073 255.802884 309.089256 223.779519 253.831718 191.732643"></polygon>
                                        <g id="Containers_7_" transform="translate(196.872137, 0.000000)">
                                            <g id="container-grey_7_">
                                                <g id="Group">
                                                    <polygon id="Path" fill="#D1D1D1" opacity="0.35" points="0.894160305 32.3603697 0.776507634 96.6187061 56.2301336 64.7442514 56.1673855 0.321330869"></polygon>
                                                    <polygon id="Path" fill="#ECECEC" opacity="0.75" points="112.217118 97.1438078 112.091622 32.3055083 56.1673855 0.211608133 56.1673855 64.7285767"></polygon>
                                                    <polygon id="Path" fill="#DDDDDB" opacity="0.75" points="1.16083969 96.1798152 56.2301336 64.7442514 112.256336 97.1751571 56.2850382 128.775305"></polygon>
                                                    <path d="M2.41580153,33.0970795 L54.2692557,62.9103142 L54.5829962,126.016562 L2.35305344,95.8192976 L2.41580153,35.1818115 L2.41580153,33.0970795 Z M0.737290076,32.2819963 L0.666698473,96.7832902 L56.2850382,128.939889 L55.9477672,61.930647 L4.13353053,32.297671 L0.737290076,32.2819963 L0.737290076,32.2819963 Z" id="Shape" fill="#FFFFFF"></path>
                                                    <path d="M56.2850382,2.03770795 L108.703225,32.2898336 L56.0105153,61.9698336 L4.11,32.274159 L56.2850382,2.03770795 L56.2850382,2.03770795 Z M56.2850382,0.0940480591 L0.737290076,32.274159 L56.0026718,63.8978189 L112.091622,32.3055083 L56.2850382,0.0940480591 L56.2850382,0.0940480591 Z" id="Shape" fill="#FFFFFF"></path>
                                                </g>
                                            </g>
                                        </g>
                                        <g id="Containers_5_" transform="translate(60.395038, 144.990758)">
                                            <g id="container-grey_5_">
                                                <g id="Group">
                                                    <polygon id="Path" fill="#D1D1D1" opacity="0.35" points="0.996125954 41.9532717 0.854942748 124.848799 72.3799237 83.7262847 72.3093321 0.619149723"></polygon>
                                                    <polygon id="Path" fill="#ECECEC" opacity="0.75" points="144.618664 125.530647 144.45395 41.8827357 72.3093321 0.470240296 72.3093321 83.7027726"></polygon>
                                                    <polygon id="Path" fill="#DDDDDB" opacity="0.75" points="1.34124046 124.28451 72.3799237 83.7262847 144.665725 125.561996 72.4583588 166.33183"></polygon>
                                                    <path d="M2.96484733,42.9015896 L69.854313,81.3594085 L70.2621756,162.773678 L2.8785687,123.81427 L2.96484733,45.5897967 L2.96484733,42.9015896 Z M0.800038168,41.8513863 L0.705916031,125.060407 L72.4505153,166.543438 L72.0191221,80.097597 L5.17671756,41.867061 L0.800038168,41.8513863 L0.800038168,41.8513863 Z" id="Shape" fill="#FFFFFF"></path>
                                                    <path d="M72.4583588,2.83711645 L140.077271,41.867061 L72.1054008,80.1524584 L5.14534351,41.8357116 L72.4583588,2.83711645 L72.4583588,2.83711645 Z M72.4583588,0.329168207 L0.800038168,41.843549 L72.0975573,82.6368946 L144.461794,41.8748983 L72.4583588,0.329168207 L72.4583588,0.329168207 Z" id="Shape" fill="#FFFFFF"></path>
                                                </g>
                                            </g>
                                        </g>
                                        <polygon id="Blue_Shadow_11_" fill="#ACB8BF" points="182.251832 335.336192 237.415248 367.367394 293.041431 335.34403 237.77605 303.297153"></polygon>
                                        <g id="Containers_6_" transform="translate(181.185115, 220.229205)">
                                            <g id="container-grey_6_">
                                                <g id="Group">
                                                    <polygon id="Path" fill="#D1D1D1" opacity="0.35" points="0.525515267 32.6268392 0.415706107 96.8773383 55.8614885 65.0028835 55.806584 0.579963031"></polygon>
                                                    <polygon id="Path" fill="#ECECEC" opacity="0.75" points="111.856317 97.4024399 111.730821 32.5641405 55.806584 0.470240296 55.806584 64.9872089"></polygon>
                                                    <polygon id="Path" fill="#DDDDDB" opacity="0.75" points="0.792194656 96.4462847 55.8614885 65.0028835 111.895534 97.4337893 55.9163931 129.033937"></polygon>
                                                    <path d="M2.055,33.3557116 L53.9084542,63.1689464 L54.2221947,126.275194 L1.9844084,96.0779298 L2.04715649,35.4404436 L2.055,33.3557116 Z M0.37648855,32.5484658 L0.305896947,97.0497597 L55.9242366,129.206359 L55.5869656,62.1971165 L3.77272901,32.5641405 L0.37648855,32.5484658 L0.37648855,32.5484658 Z" id="Shape" fill="#FFFFFF"></path>
                                                    <path d="M55.9242366,2.29634011 L108.342424,32.5484658 L55.6497137,62.2284658 L3.74919847,32.5327911 L55.9242366,2.29634011 L55.9242366,2.29634011 Z M55.9163931,0.352680222 L0.368645038,32.5327911 L55.6340267,64.156451 L111.722977,32.5641405 L55.9163931,0.352680222 L55.9163931,0.352680222 Z" id="Shape" fill="#FFFFFF"></path>
                                                </g>
                                            </g>
                                        </g>
                                    </g>
                                </g>
                            </g>
                        </g>
                    </svg>