<?xml version="1.0" encoding="utf-8"?>
<!-- Generator: Adobe Illustrator 25.2.3, SVG Export Plug-In . SVG Version: 6.00 Build 0)  -->
<svg version="1.1" id="Layer_1" xmlns="http://www.w3.org/2000/svg" xmlns:xlink="http://www.w3.org/1999/xlink" x="0px" y="0px"
	 viewBox="0 0 909 557.64" style="enable-background:new 0 0 909 557.64;" xml:space="preserve">
<style type="text/css">
	.st0{fill:none;stroke:#1DB14B;stroke-linecap:round;stroke-miterlimit:10;}
	.st1{fill:#FFFFFF;stroke:#231F20;stroke-linecap:round;stroke-miterlimit:10;}
	.st2{fill:#FFFFFF;stroke:#000000;stroke-linecap:round;stroke-miterlimit:10;}
	.st3{fill:#1DB14B;}
	.st4{fill:none;stroke:#000000;stroke-linecap:round;stroke-linejoin:round;stroke-miterlimit:10;}
	.st5{fill:none;}
	.st6{fill:#221F1F;}
	.st7{font-family:'ProximaNova-Regular';}
	.st8{font-size:11px;}
	.st9{fill:none;stroke:#000000;stroke-miterlimit:10;}
	.st10{stroke:#000000;stroke-width:0.5;stroke-miterlimit:10;}
	.st11{fill:#231F20;}
	.st12{fill:#FFFFFF;}
	.st13{font-family:'NeusaNextStd-CondensedBold';}
	.st14{font-size:8px;}
	.st15{fill:#FFFFFF;stroke:#1DB14B;stroke-linecap:round;stroke-miterlimit:10;}
	.st16{fill:none;stroke:#231F20;stroke-linecap:round;stroke-miterlimit:10;}
	.st17{font-family:'ProximaNova-Medium';}
	.st18{font-size:10px;}
	.st19{stroke:#000000;stroke-width:0.25;stroke-miterlimit:10;}
	.st20{fill:#343434;}
	.st21{font-family:'ProximaNova-Bold';}
	.st22{font-size:6px;}
	.st23{font-family:'ProximaNova-BoldIt';}
	.st24{font-size:7px;}
	.st25{fill:#010101;}
	.st26{font-size:9px;}
	.st27{fill:none;stroke:#000000;stroke-width:0.75;stroke-linecap:round;stroke-linejoin:round;stroke-miterlimit:10;}
</style>
<line class="st0" x1="669.9" y1="73.38" x2="669.9" y2="86.74"/>
<rect x="10.45" y="234.49" class="st1" width="421.09" height="303.66"/>
<rect x="441.86" y="234.46" class="st2" width="456.69" height="303.7"/>
<g>
	<g>
		<polyline class="st0" points="324.15,496.27 324.15,513.8 708.66,513.8 708.66,489.35 		"/>
		<g>
			<polygon class="st3" points="712.75,492.66 712.01,493.35 708.66,489.74 705.3,493.35 704.57,492.66 708.66,488.27 			"/>
		</g>
	</g>
</g>
<g id="Group_11423_1_" transform="translate(0.25 0.25)">
	<path id="Path_60436_1_" class="st4" d="M278.59,15.87h-2.39c-3.54-0.02-6.44,2.84-6.46,6.39c0,0.04,0,0.08,0,0.12v5.94"/>
	<ellipse id="Ellipse_32_1_" class="st4" cx="278.54" cy="10.55" rx="5.31" ry="5.32"/>
	<path id="Path_60437_1_" class="st4" d="M299.89,15.87h2.39c3.54-0.02,6.44,2.84,6.46,6.39c0,0.04,0,0.08,0,0.12v5.94"/>
	<ellipse id="Ellipse_33_1_" class="st4" cx="299.94" cy="10.55" rx="5.31" ry="5.32"/>
	<path id="Path_60438_1_" class="st4" d="M289.47,28.28h-2.92c-4.34-0.03-7.89,3.47-7.92,7.82c0,0.05,0,0.1,0,0.15v7.98"/>
	<path id="Path_60439_1_" class="st4" d="M289.73,28.28h2.92c4.34-0.03,7.89,3.47,7.92,7.82c0,0.05,0,0.1,0,0.15v7.98"/>
	<ellipse id="Ellipse_34_2_" class="st4" cx="289.2" cy="21.19" rx="7.08" ry="7.09"/>
</g>
<g>
	<rect x="237.1" y="55.58" class="st5" width="103.71" height="9.12"/>
	<text transform="matrix(1 0 0 1 252.3274 62.918)" class="st6 st7 st8">Usuarios de NA</text>
</g>
<g id="Group_11423_2_" transform="translate(0.25 0.25)">
	<path id="Path_60436_2_" class="st4" d="M367.32,15.87h-2.39c-3.54-0.02-6.44,2.84-6.46,6.39c0,0.04,0,0.08,0,0.12v5.94"/>
	<ellipse id="Ellipse_32_2_" class="st4" cx="367.28" cy="10.55" rx="5.31" ry="5.32"/>
	<path id="Path_60437_2_" class="st4" d="M388.63,15.87h2.39c3.54-0.02,6.44,2.84,6.46,6.39c0,0.04,0,0.08,0,0.12v5.94"/>
	<ellipse id="Ellipse_33_2_" class="st4" cx="388.67" cy="10.55" rx="5.31" ry="5.32"/>
	<path id="Path_60438_2_" class="st4" d="M378.2,28.28h-2.92c-4.34-0.03-7.89,3.47-7.92,7.82c0,0.05,0,0.1,0,0.15v7.98"/>
	<path id="Path_60439_2_" class="st4" d="M378.47,28.28h2.92c4.34-0.03,7.89,3.47,7.92,7.82c0,0.05,0,0.1,0,0.15v7.98"/>
	<ellipse id="Ellipse_34_1_" class="st4" cx="377.94" cy="21.19" rx="7.08" ry="7.09"/>
</g>
<g>
	<rect x="335.34" y="55.58" class="st5" width="85.71" height="7.71"/>
	<text transform="matrix(1 0 0 1 350.2485 62.918)" class="st6 st7 st8">Usuarios de </text>
</g>
<g id="Group_11423_4_" transform="translate(0.25 0.25)">
	<path id="Path_60436_4_" class="st4" d="M659.3,15.87h-2.39c-3.54-0.02-6.44,2.84-6.46,6.39c0,0.04,0,0.08,0,0.12v5.94"/>
	<ellipse id="Ellipse_32_4_" class="st4" cx="659.25" cy="10.55" rx="5.31" ry="5.32"/>
	<path id="Path_60437_4_" class="st4" d="M680.61,15.87h2.39c3.54-0.02,6.44,2.84,6.46,6.39c0,0.04,0,0.08,0,0.12v5.94"/>
	<ellipse id="Ellipse_33_4_" class="st4" cx="680.65" cy="10.55" rx="5.31" ry="5.32"/>
	<path id="Path_60438_4_" class="st4" d="M670.18,28.28h-2.92c-4.34-0.03-7.89,3.47-7.92,7.82c0,0.05,0,0.1,0,0.15v7.98"/>
	<path id="Path_60439_4_" class="st4" d="M670.45,28.28h2.92c4.34-0.03,7.89,3.47,7.92,7.82c0,0.05,0,0.1,0,0.15v7.98"/>
	<ellipse id="Ellipse_34_4_" class="st4" cx="669.91" cy="21.19" rx="7.08" ry="7.09"/>
</g>
<g>
	<rect x="637.82" y="55.58" class="st5" width="64.77" height="8.03"/>
	<text transform="matrix(1 0 0 1 651.189 62.9161)" class="st6 st7 st8">Clientes</text>
</g>
<g id="Group_11423_3_" transform="translate(0.25 0.25)">
	<path id="Path_60436_3_" class="st4" d="M189.85,15.87h-2.39c-3.54-0.02-6.44,2.84-6.46,6.39c0,0.04,0,0.08,0,0.12v5.94"/>
	<ellipse id="Ellipse_32_3_" class="st4" cx="189.81" cy="10.55" rx="5.31" ry="5.32"/>
	<path id="Path_60437_3_" class="st4" d="M211.16,15.87h2.39c3.54-0.02,6.44,2.84,6.46,6.39c0,0.04,0,0.08,0,0.12v5.94"/>
	<ellipse id="Ellipse_33_3_" class="st4" cx="211.2" cy="10.55" rx="5.31" ry="5.32"/>
	<path id="Path_60438_3_" class="st4" d="M200.73,28.28h-2.92c-4.34-0.03-7.89,3.47-7.92,7.82c0,0.05,0,0.1,0,0.15v7.98"/>
	<path id="Path_60439_3_" class="st4" d="M201,28.28h2.92c4.34-0.03,7.89,3.47,7.92,7.82c0,0.05,0,0.1,0,0.15v7.98"/>
	<ellipse id="Ellipse_34_3_" class="st4" cx="200.47" cy="21.19" rx="7.08" ry="7.09"/>
</g>
<g>
	<rect x="155.37" y="55.58" class="st5" width="92.08" height="13.98"/>
	<text transform="matrix(1 0 0 1 160.0056 62.918)" class="st6 st7 st8">Usuarios de la UE</text>
</g>
<g>
	<g>
		<path class="st9" d="M301.73,124.43h-24.49c-3.44,0-6.26-2.82-6.26-6.26V93.69c0-3.44,2.82-6.26,6.26-6.26h24.49
			c3.44,0,6.26,2.82,6.26,6.26v24.49C307.99,121.61,305.17,124.43,301.73,124.43z"/>
	</g>
	<g id="Group_13232-2_19_" transform="translate(11.219 19.18)">
		<path id="Path_61042_19_" class="st10" d="M272.2,88.14c-0.61,0.69-1.5,1.07-2.42,1.03c-1.29,0.07-2.4-0.93-2.46-2.22
			c-0.07-1.29,0.93-2.4,2.22-2.46c0.08,0,0.16,0,0.24,0c0.92-0.04,1.81,0.34,2.42,1.03v-1.59c-0.01-0.98-0.81-1.77-1.8-1.76
			c-0.06,0-0.13,0-0.19,0.01c-0.89-0.02-1.73,0.4-2.26,1.11l-0.28-0.28c0.61-0.8,1.58-1.25,2.58-1.19c1.39,0,2.42,0.72,2.42,2.11
			v5.08h-0.44v-0.87H272.2z M272.2,85.96c-0.56-0.7-1.41-1.09-2.3-1.07c-1.08-0.08-2.02,0.74-2.1,1.82c0,0.04,0,0.08,0,0.12
			c-0.01,1.07,0.86,1.95,1.93,1.95c0.06,0,0.11,0,0.17-0.01c0.9,0.03,1.75-0.37,2.3-1.08V85.96z"/>
		<path id="Path_61043_19_" class="st10" d="M275.02,91.67v-9.69h0.44v1.19c0.58-0.83,1.53-1.33,2.54-1.34
			c1.91,0,3.14,1.47,3.14,3.65c0,2.22-1.23,3.69-3.14,3.69c-1.02-0.02-1.97-0.54-2.54-1.39v3.89L275.02,91.67z M277.99,82.22
			c-1.03,0.01-1.98,0.53-2.54,1.39v3.77c0.55,0.88,1.51,1.42,2.54,1.43c1.71,0,2.66-1.47,2.66-3.3
			C280.66,83.65,279.7,82.22,277.99,82.22z"/>
		<path id="Path_61044_19_" class="st10" d="M283.12,91.67v-9.69h0.44v1.19c0.58-0.83,1.53-1.33,2.54-1.34
			c1.91,0,3.14,1.47,3.14,3.65c0,2.22-1.23,3.69-3.14,3.69c-1.02-0.02-1.97-0.54-2.54-1.39v3.89L283.12,91.67z M286.1,82.22
			c-1.03,0.01-1.98,0.53-2.54,1.39v3.77c0.55,0.88,1.51,1.42,2.54,1.43c1.71,0,2.66-1.47,2.66-3.3
			C288.76,83.65,287.81,82.22,286.1,82.22z"/>
	</g>
</g>
<g>
	<rect x="257.1" y="132.78" class="st5" width="64.77" height="8.03"/>
	<text transform="matrix(1 0 0 1 260.3503 140.1153)" class="st6 st7 st8">Aplicación A</text>
</g>
<g>
	<g>
		<path class="st9" d="M682.44,124.43h-24.49c-3.44,0-6.26-2.82-6.26-6.26V93.69c0-3.44,2.82-6.26,6.26-6.26h24.49
			c3.44,0,6.26,2.82,6.26,6.26v24.49C688.7,121.61,685.89,124.43,682.44,124.43z"/>
	</g>
	<g id="Group_13232-2_1_" transform="translate(11.219 19.18)">
		<path id="Path_61042_1_" class="st10" d="M652.91,88.14c-0.61,0.69-1.5,1.07-2.42,1.03c-1.29,0.07-2.4-0.93-2.46-2.22
			c-0.07-1.29,0.93-2.4,2.22-2.46c0.08,0,0.16,0,0.24,0c0.92-0.04,1.81,0.34,2.42,1.03v-1.59c-0.01-0.98-0.81-1.77-1.8-1.76
			c-0.06,0-0.13,0-0.19,0.01c-0.89-0.02-1.73,0.4-2.26,1.11l-0.28-0.28c0.61-0.8,1.58-1.25,2.58-1.19c1.39,0,2.42,0.72,2.42,2.11
			v5.08h-0.44v-0.87H652.91z M652.91,85.96c-0.56-0.7-1.41-1.09-2.3-1.07c-1.08-0.08-2.02,0.74-2.1,1.82c0,0.04,0,0.08,0,0.12
			c-0.01,1.07,0.86,1.95,1.93,1.95c0.06,0,0.11,0,0.17-0.01c0.9,0.03,1.75-0.37,2.3-1.08V85.96z"/>
		<path id="Path_61043_1_" class="st10" d="M655.73,91.67v-9.69h0.44v1.19c0.58-0.83,1.53-1.33,2.54-1.34
			c1.91,0,3.14,1.47,3.14,3.65c0,2.22-1.23,3.69-3.14,3.69c-1.02-0.02-1.97-0.54-2.54-1.39v3.89L655.73,91.67z M658.71,82.22
			c-1.03,0.01-1.98,0.53-2.54,1.39v3.77c0.55,0.88,1.51,1.42,2.54,1.43c1.71,0,2.66-1.47,2.66-3.3
			C661.37,83.65,660.42,82.22,658.71,82.22z"/>
		<path id="Path_61044_1_" class="st10" d="M663.83,91.67v-9.69h0.44v1.19c0.58-0.83,1.53-1.33,2.54-1.34
			c1.91,0,3.14,1.47,3.14,3.65c0,2.22-1.23,3.69-3.14,3.69c-1.02-0.02-1.97-0.54-2.54-1.39v3.89L663.83,91.67z M666.81,82.22
			c-1.03,0.01-1.98,0.53-2.54,1.39v3.77c0.55,0.88,1.51,1.42,2.54,1.43c1.71,0,2.66-1.47,2.66-3.3
			C669.47,83.65,668.52,82.22,666.81,82.22z"/>
	</g>
</g>
<g>
	<rect x="637.82" y="132.78" class="st5" width="64.77" height="8.03"/>
	<text transform="matrix(1 0 0 1 641.2231 140.1153)" class="st6 st7 st8">Aplicación B</text>
</g>
<rect x="149.92" y="528.68" class="st11" width="142.17" height="18"/>
<text transform="matrix(1 0 0 1 158.6145 540.5201)" class="st12 st13 st14">PROVEEDOR DE NUBE PÚBLICA A - EUROPA</text>
<line class="st15" x1="186.43" y1="285.68" x2="293.54" y2="285.68"/>
<rect x="481.44" y="247.68" class="st16" width="138.26" height="96"/>
<rect x="535.18" y="269.82" class="st5" width="28.13" height="11.09"/>
<text transform="matrix(1 0 0 1 536.1262 278.1457)" class="st17 st18">BIG-IP</text>
<circle class="st9" cx="548.29" cy="274.68" r="19.5"/>
<g>
	<path class="st19" d="M491.3,305.2c0-0.27,0.23-0.49,0.49-0.49c0.27,0,0.49,0.22,0.49,0.49c0,0.27-0.22,0.49-0.49,0.49
		C491.53,305.7,491.3,305.47,491.3,305.2z M491.47,306.68h0.64v5.95h-0.64V306.68z"/>
	<path class="st19" d="M497.11,309.23h-1.81v3.4h-0.7v-8.22h3.07c1.42,0,2.5,0.9,2.5,2.4c0,1.49-1.06,2.32-2.28,2.37l2.38,3.45
		h-0.85L497.11,309.23z M497.61,305.05h-2.31v3.54h2.31c1.09,0,1.82-0.74,1.82-1.78C499.43,305.78,498.69,305.05,497.61,305.05z"/>
	<path class="st19" d="M505.14,311.76c-0.49,0.54-1.28,1.02-2.15,1.02c-1.22,0-1.87-0.57-1.87-1.91v-4.19h0.64v4.04
		c0,1.16,0.58,1.48,1.44,1.48c0.76,0,1.54-0.46,1.94-0.99v-4.54h0.64v5.95h-0.64V311.76z"/>
	<path class="st19" d="M507.4,304.41h0.64v8.22h-0.64V304.41z"/>
	<path class="st19" d="M512.18,306.53c1.81,0,2.81,1.44,2.81,3.16v0.17h-4.98c0.06,1.29,0.92,2.37,2.33,2.37
		c0.75,0,1.44-0.28,1.95-0.83l0.33,0.42c-0.59,0.62-1.34,0.96-2.33,0.96c-1.74,0-2.98-1.29-2.98-3.13
		C509.3,307.93,510.52,306.53,512.18,306.53z M510.01,309.36h4.33c-0.01-1.01-0.68-2.27-2.17-2.27
		C510.76,307.09,510.06,308.32,510.01,309.36z"/>
	<path class="st19" d="M516.12,311.37c0.38,0.48,1.08,0.88,1.92,0.88c1,0,1.59-0.49,1.59-1.18c0-0.76-0.81-0.99-1.66-1.21
		c-1-0.25-2.1-0.51-2.1-1.66c0-0.91,0.78-1.65,2.12-1.65c1.02,0,1.7,0.39,2.13,0.88l-0.36,0.46c-0.35-0.47-0.99-0.79-1.78-0.79
		c-0.92,0-1.49,0.46-1.49,1.07c0,0.68,0.76,0.86,1.59,1.07c1.02,0.26,2.17,0.54,2.17,1.81c0,0.96-0.74,1.75-2.23,1.75
		c-0.96,0-1.7-0.28-2.29-0.94L516.12,311.37z"/>
</g>
<g>
	<rect x="487.25" y="317.38" class="st5" width="40.82" height="11.78"/>
	<text transform="matrix(1 0 0 1 490.676 321.3831)"><tspan x="0" y="0" class="st20 st21 st22">Lenguaje de </tspan><tspan x="-2.26" y="7" class="st20 st21 st22">programación</tspan></text>
</g>
<g>
	<rect x="573.41" y="317.38" class="st5" width="46.3" height="18.74"/>
	<text transform="matrix(1 0 0 1 583.132 321.3831)"><tspan x="0" y="0" class="st20 st21 st22">Controles </tspan><tspan x="1.72" y="7" class="st20 st21 st22">de salud </tspan><tspan x="-7.47" y="14" class="st20 st21 st22">personalizados</tspan></text>
</g>
<g>
	<rect x="533.55" y="317.38" class="st5" width="38.35" height="21.05"/>
	<text transform="matrix(1 0 0 1 535.7396 321.3827)"><tspan x="0" y="0" class="st20 st21 st22">Lenguaje de </tspan><tspan x="2.64" y="7" class="st20 st21 st22">programa</tspan><tspan x="29.53" y="7" class="st20 st21 st22">-</tspan><tspan x="-0.11" y="14" class="st20 st21 st22">ción Node.js</tspan></text>
</g>
<g>
	<g>
		<path class="st19" d="M532.44,305.2c0-0.27,0.23-0.49,0.49-0.49c0.27,0,0.49,0.22,0.49,0.49c0,0.27-0.22,0.49-0.49,0.49
			C532.67,305.7,532.44,305.47,532.44,305.2z M532.61,306.68h0.64v5.95h-0.64V306.68z"/>
		<path class="st19" d="M538.25,309.23h-1.81v3.4h-0.7v-8.22h3.07c1.42,0,2.5,0.9,2.5,2.4c0,1.49-1.06,2.32-2.28,2.37l2.38,3.45
			h-0.85L538.25,309.23z M538.74,305.05h-2.31v3.54h2.31c1.09,0,1.82-0.74,1.82-1.78C540.57,305.78,539.83,305.05,538.74,305.05z"/>
		<path class="st19" d="M546.28,311.76c-0.49,0.54-1.28,1.02-2.15,1.02c-1.22,0-1.87-0.57-1.87-1.91v-4.19h0.64v4.04
			c0,1.16,0.58,1.48,1.44,1.48c0.76,0,1.54-0.46,1.94-0.99v-4.54h0.64v5.95h-0.64V311.76z"/>
		<path class="st19" d="M548.53,304.41h0.64v8.22h-0.64V304.41z"/>
		<path class="st19" d="M553.31,306.53c1.81,0,2.81,1.44,2.81,3.16v0.17h-4.98c0.06,1.29,0.92,2.37,2.33,2.37
			c0.75,0,1.44-0.28,1.95-0.83l0.33,0.42c-0.59,0.62-1.34,0.96-2.33,0.96c-1.74,0-2.98-1.29-2.98-3.13
			C550.44,307.93,551.66,306.53,553.31,306.53z M551.14,309.36h4.33c-0.01-1.01-0.68-2.27-2.17-2.27
			C551.89,307.09,551.19,308.32,551.14,309.36z"/>
		<path class="st19" d="M557.25,311.37c0.38,0.48,1.08,0.88,1.92,0.88c1,0,1.59-0.49,1.59-1.18c0-0.76-0.81-0.99-1.66-1.21
			c-1-0.25-2.1-0.51-2.1-1.66c0-0.91,0.78-1.65,2.12-1.65c1.02,0,1.7,0.39,2.13,0.88l-0.36,0.46c-0.35-0.47-0.99-0.79-1.78-0.79
			c-0.92,0-1.49,0.46-1.49,1.07c0,0.68,0.76,0.86,1.59,1.07c1.02,0.26,2.17,0.54,2.17,1.81c0,0.96-0.74,1.75-2.23,1.75
			c-0.96,0-1.7-0.28-2.29-0.94L557.25,311.37z"/>
	</g>
	<g>
		<rect x="563.3" y="305.34" class="st5" width="12.72" height="7.44"/>
		<text transform="matrix(1 0 0 1 563.3538 312.6778)" class="st6 st7 st8">LX</text>
	</g>
</g>
<rect x="48.17" y="247.68" class="st16" width="138.26" height="96"/>
<rect x="99.33" y="269.82" class="st5" width="28.55" height="11.09"/>
<text transform="matrix(1 0 0 1 100.4924 278.1457)" class="st17 st18">BIG-IP</text>
<circle class="st9" cx="115.02" cy="274.68" r="19.5"/>
<g>
	<path class="st19" d="M58.02,305.2c0-0.27,0.23-0.49,0.49-0.49c0.27,0,0.49,0.22,0.49,0.49c0,0.27-0.22,0.49-0.49,0.49
		C58.26,305.7,58.02,305.47,58.02,305.2z M58.2,306.68h0.64v5.95H58.2V306.68z"/>
	<path class="st19" d="M63.84,309.23h-1.81v3.4h-0.7v-8.22h3.07c1.42,0,2.5,0.9,2.5,2.4c0,1.49-1.06,2.32-2.28,2.37l2.38,3.45h-0.85
		L63.84,309.23z M64.33,305.05h-2.31v3.54h2.31c1.09,0,1.82-0.74,1.82-1.78C66.15,305.78,65.41,305.05,64.33,305.05z"/>
	<path class="st19" d="M71.87,311.76c-0.49,0.54-1.28,1.02-2.15,1.02c-1.22,0-1.87-0.57-1.87-1.91v-4.19h0.64v4.04
		c0,1.16,0.58,1.48,1.44,1.48c0.76,0,1.54-0.46,1.94-0.99v-4.54h0.64v5.95h-0.64V311.76z"/>
	<path class="st19" d="M74.12,304.41h0.64v8.22h-0.64V304.41z"/>
	<path class="st19" d="M78.9,306.53c1.81,0,2.81,1.44,2.81,3.16v0.17h-4.98c0.06,1.29,0.92,2.37,2.33,2.37
		c0.75,0,1.44-0.28,1.95-0.83l0.33,0.42c-0.59,0.62-1.34,0.96-2.33,0.96c-1.74,0-2.98-1.29-2.98-3.13
		C76.03,307.93,77.25,306.53,78.9,306.53z M76.73,309.36h4.33c-0.01-1.01-0.68-2.27-2.17-2.27
		C77.48,307.09,76.78,308.32,76.73,309.36z"/>
	<path class="st19" d="M82.84,311.37c0.38,0.48,1.08,0.88,1.92,0.88c1,0,1.59-0.49,1.59-1.18c0-0.76-0.81-0.99-1.66-1.21
		c-1-0.25-2.1-0.51-2.1-1.66c0-0.91,0.78-1.65,2.12-1.65c1.02,0,1.7,0.39,2.13,0.88l-0.36,0.46c-0.35-0.47-0.99-0.79-1.78-0.79
		c-0.92,0-1.49,0.46-1.49,1.07c0,0.68,0.76,0.86,1.59,1.07c1.02,0.26,2.17,0.54,2.17,1.81c0,0.96-0.74,1.75-2.23,1.75
		c-0.96,0-1.7-0.28-2.29-0.94L82.84,311.37z"/>
</g>
<g>
	<rect x="51.85" y="317.38" class="st5" width="41.08" height="21.05"/>
	<text transform="matrix(1 0 0 1 55.4002 321.3831)"><tspan x="0" y="0" class="st20 st21 st22">Lenguaje de </tspan><tspan x="-2.26" y="7" class="st20 st21 st22">programación</tspan></text>
</g>
<g>
	<rect x="139.86" y="317.38" class="st5" width="44.08" height="26.3"/>
	<text transform="matrix(1 0 0 1 148.4694 321.3831)"><tspan x="0" y="0" class="st20 st21 st22">Controles </tspan><tspan x="1.72" y="7" class="st20 st21 st22">de salud </tspan><tspan x="-7.47" y="14" class="st20 st21 st22">personalizados</tspan></text>
</g>
<g>
	<rect x="94.52" y="317.38" class="st5" width="48.44" height="21.05"/>
	<text transform="matrix(1 0 0 1 101.7504 321.3831)"><tspan x="0" y="0" class="st20 st21 st22">Lenguaje de </tspan><tspan x="-2.26" y="7" class="st20 st21 st22">programación </tspan><tspan x="5.46" y="14" class="st20 st21 st22">Node JS</tspan></text>
</g>
<g>
	<g>
		<path class="st19" d="M99.16,305.2c0-0.27,0.23-0.49,0.49-0.49c0.27,0,0.49,0.22,0.49,0.49c0,0.27-0.22,0.49-0.49,0.49
			C99.39,305.7,99.16,305.47,99.16,305.2z M99.33,306.68h0.64v5.95h-0.64V306.68z"/>
		<path class="st19" d="M104.97,309.23h-1.81v3.4h-0.7v-8.22h3.07c1.42,0,2.5,0.9,2.5,2.4c0,1.49-1.06,2.32-2.28,2.37l2.38,3.45
			h-0.85L104.97,309.23z M105.46,305.05h-2.31v3.54h2.31c1.09,0,1.82-0.74,1.82-1.78C107.29,305.78,106.55,305.05,105.46,305.05z"/>
		<path class="st19" d="M113,311.76c-0.49,0.54-1.28,1.02-2.15,1.02c-1.22,0-1.87-0.57-1.87-1.91v-4.19h0.64v4.04
			c0,1.16,0.58,1.48,1.44,1.48c0.76,0,1.54-0.46,1.94-0.99v-4.54h0.64v5.95H113V311.76z"/>
		<path class="st19" d="M115.26,304.41h0.64v8.22h-0.64V304.41z"/>
		<path class="st19" d="M120.04,306.53c1.81,0,2.81,1.44,2.81,3.16v0.17h-4.98c0.06,1.29,0.92,2.37,2.33,2.37
			c0.75,0,1.44-0.28,1.95-0.83l0.33,0.42c-0.59,0.62-1.34,0.96-2.33,0.96c-1.74,0-2.98-1.29-2.98-3.13
			C117.16,307.93,118.38,306.53,120.04,306.53z M117.87,309.36h4.33c-0.01-1.01-0.68-2.27-2.17-2.27
			C118.62,307.09,117.91,308.32,117.87,309.36z"/>
		<path class="st19" d="M123.98,311.37c0.38,0.48,1.08,0.88,1.92,0.88c1,0,1.59-0.49,1.59-1.18c0-0.76-0.81-0.99-1.66-1.21
			c-1-0.25-2.1-0.51-2.1-1.66c0-0.91,0.78-1.65,2.12-1.65c1.02,0,1.7,0.39,2.13,0.88l-0.36,0.46c-0.35-0.47-0.99-0.79-1.78-0.79
			c-0.92,0-1.49,0.46-1.49,1.07c0,0.68,0.76,0.86,1.59,1.07c1.02,0.26,2.17,0.54,2.17,1.81c0,0.96-0.74,1.75-2.23,1.75
			c-0.96,0-1.7-0.28-2.29-0.94L123.98,311.37z"/>
	</g>
	<g>
		<rect x="130.03" y="305.34" class="st5" width="12.72" height="7.44"/>
		<text transform="matrix(1 0 0 1 130.0776 312.6778)" class="st6 st7 st8">LX</text>
	</g>
</g>
<rect x="624.75" y="247.68" class="st16" width="90.91" height="96"/>
<g>
	<g>
		<rect x="626.58" y="316.38" class="st5" width="49.03" height="18.91"/>
		<text transform="matrix(1 0 0 1 628.097 320.3831)"><tspan x="0" y="0" class="st20 st21 st22">Enrutamiento de </tspan><tspan x="-0.99" y="7" class="st20 st21 st22">tráfico basado en </tspan><tspan x="6.41" y="14" class="st20 st21 st22">argumentos</tspan></text>
	</g>
</g>
<g>
	<rect x="655.98" y="370.67" class="st16" width="116.55" height="114.08"/>
</g>
<line class="st0" x1="669.9" y1="148.76" x2="669.9" y2="247.18"/>
<rect x="659.88" y="359.83" class="st11" width="108.74" height="18"/>
<text transform="matrix(1 0 0 1 680.8429 371.6698)" class="st12 st13 st14">GESTIÓN DE API NGINX</text>
<g>
	<g>
		<polyline class="st0" points="836.57,504.06 836.57,513.8 719.61,513.8 719.61,489.35 		"/>
		<g>
			<polygon class="st3" points="723.7,492.66 722.97,493.35 719.61,489.74 716.25,493.35 715.52,492.66 719.61,488.27 			"/>
		</g>
	</g>
</g>
<g>
	<polyline class="st0" points="715.66,295.68 834.87,295.68 834.87,295.68 834.87,316.62 	"/>
</g>
<rect x="578.74" y="528.68" class="st11" width="182.92" height="18"/>
<text transform="matrix(1 0 0 1 589.6082 540.5201)" class="st12 st13 st14">PROVEEDOR DE NUBE PÚBLICA B - AMÉRICA DEL NORTE</text>
<line class="st0" x1="289.49" y1="73.38" x2="289.49" y2="86.64"/>
<polyline class="st0" points="378.19,73.38 378.19,105.67 308.64,105.67 "/>
<polyline class="st0" points="200.98,73.38 200.98,105.67 270.14,105.67 "/>
<line class="st0" x1="289.27" y1="148.76" x2="289.27" y2="159.49"/>
<polyline class="st0" points="120.97,255.18 120.97,207.3 289.68,207.3 289.68,198.49 "/>
<polyline class="st0" points="269.95,178.99 110.83,178.99 110.83,255.83 "/>
<polyline class="st0" points="308.72,178.99 547.75,178.99 547.75,255.83 "/>
<rect x="274.41" y="169.92" class="st5" width="30.15" height="20.31"/>
<text transform="matrix(1 0 0 1 276.3754 178.2487)"><tspan x="0" y="0" class="st17 st18">BIG-IP </tspan><tspan x="3.32" y="9.22" class="st17 st18">DNS</tspan></text>
<circle class="st9" cx="289.49" cy="178.99" r="19.5"/>
<line class="st0" x1="550.58" y1="343.68" x2="550.58" y2="388.16"/>
<g>
	<rect x="555" y="352.41" class="st5" width="66.24" height="27.14"/>
	<text transform="matrix(1 0 0 1 555.0037 356.4081)"><tspan x="0" y="0" class="st20 st23 st22">Comprobación del </tspan><tspan x="0" y="7" class="st20 st23 st22">servicio personalizado </tspan><tspan x="0" y="14" class="st20 st23 st22">para la respuesta de la </tspan><tspan x="0" y="21" class="st20 st23 st22">aplicación en vivo</tspan></text>
</g>
<g>
	<rect x="331.46" y="334.11" class="st5" width="66.24" height="27.14"/>
	<text transform="matrix(1 0 0 1 331.4573 338.1147)"><tspan x="0" y="0" class="st20 st23 st22">Comprobación del </tspan><tspan x="0" y="7" class="st20 st23 st22">servicio personalizado </tspan><tspan x="0" y="14" class="st20 st23 st22">para la respuesta de la </tspan><tspan x="0" y="21" class="st20 st23 st22">aplicación en vivo</tspan></text>
</g>
<g>
	<polygon class="st4" points="707.48,291.19 707.48,271.69 690.61,261.94 673.75,271.69 673.75,291.19 690.61,300.94 	"/>
	<polyline class="st4" points="678.81,287.25 678.81,275.77 689.15,287.25 689.15,275.77 	"/>
	<line class="st4" x1="698.63" y1="285.85" x2="698.63" y2="277.17"/>
	<line class="st4" x1="694.29" y1="281.51" x2="702.97" y2="281.51"/>
</g>
<g>
	<polygon class="st4" points="666.68,291.19 666.68,271.69 649.82,261.94 632.96,271.69 632.96,291.19 649.82,300.94 	"/>
	<polyline class="st4" points="638.02,287.25 638.02,275.77 648.36,287.25 648.36,275.77 	"/>
	<line class="st4" x1="657.84" y1="285.85" x2="657.84" y2="277.17"/>
	<line class="st4" x1="653.5" y1="281.51" x2="662.18" y2="281.51"/>
</g>
<rect x="218.5" y="213.37" class="st5" width="137.19" height="10.84"/>
<text transform="matrix(1 0 0 1 236.9257 218.3674)" class="st20 st23 st22">Selección del centro de datos GeoIP</text>
<rect x="125.28" y="217.94" class="st5" width="19.62" height="8.41"/>
<text transform="matrix(1 0 0 1 126.9663 222.94)" class="st20 st23 st22">APAC</text>
<rect x="330.18" y="371.31" class="st5" width="19.62" height="8.41"/>
<text transform="matrix(1 0 0 1 331.8652 376.3041)" class="st20 st23 st22">APAC</text>
<rect x="551.34" y="186.87" class="st5" width="10.13" height="8.41"/>
<text transform="matrix(1 0 0 1 551.4249 192.705)" class="st20 st23 st24">NA</text>
<rect x="113.71" y="186.77" class="st5" width="9.53" height="8.41"/>
<text transform="matrix(1 0 0 1 114.5163 191.7729)" class="st20 st23 st22">UE</text>
<rect x="119.34" y="370.73" class="st5" width="9.53" height="8.41"/>
<text transform="matrix(1 0 0 1 120.1469 375.727)" class="st20 st23 st22">UE</text>
<line class="st0" x1="326.62" y1="319.89" x2="326.62" y2="389.09"/>
<polyline class="st0" points="319.54,319.89 319.54,359.67 115.21,359.67 115.21,388 "/>
<rect x="294.54" y="264.05" class="st16" width="77.57" height="55.63"/>
<g>
	<path class="st19" d="M317.67,270.56c0-0.27,0.23-0.49,0.49-0.49c0.27,0,0.49,0.22,0.49,0.49s-0.22,0.49-0.49,0.49
		C317.91,271.05,317.67,270.83,317.67,270.56z M317.85,272.03h0.64v5.95h-0.64V272.03z"/>
	<path class="st19" d="M323.49,274.59h-1.81v3.4h-0.7v-8.22h3.07c1.42,0,2.5,0.9,2.5,2.4c0,1.49-1.06,2.32-2.28,2.37l2.38,3.45
		h-0.85L323.49,274.59z M323.98,270.41h-2.31v3.54h2.31c1.09,0,1.82-0.74,1.82-1.78C325.8,271.13,325.06,270.41,323.98,270.41z"/>
	<path class="st19" d="M331.52,277.11c-0.49,0.54-1.28,1.02-2.15,1.02c-1.22,0-1.87-0.57-1.87-1.91v-4.19h0.64v4.04
		c0,1.16,0.58,1.48,1.44,1.48c0.76,0,1.54-0.46,1.94-0.99v-4.54h0.64v5.95h-0.64V277.11z"/>
	<path class="st19" d="M333.77,269.77h0.64v8.22h-0.64V269.77z"/>
	<path class="st19" d="M338.55,271.89c1.81,0,2.81,1.44,2.81,3.16v0.17h-4.98c0.06,1.29,0.92,2.37,2.33,2.37
		c0.75,0,1.44-0.28,1.95-0.83l0.33,0.42c-0.59,0.62-1.34,0.96-2.33,0.96c-1.74,0-2.98-1.29-2.98-3.13
		C335.68,273.28,336.9,271.89,338.55,271.89z M336.38,274.71h4.33c-0.01-1.01-0.68-2.27-2.17-2.27
		C337.13,272.44,336.43,273.67,336.38,274.71z"/>
	<path class="st19" d="M342.49,276.72c0.38,0.48,1.08,0.88,1.92,0.88c1,0,1.59-0.49,1.59-1.18c0-0.76-0.81-0.99-1.66-1.21
		c-1-0.25-2.1-0.51-2.1-1.66c0-0.91,0.78-1.65,2.12-1.65c1.02,0,1.7,0.39,2.13,0.88l-0.36,0.46c-0.35-0.47-0.99-0.79-1.78-0.79
		c-0.92,0-1.49,0.46-1.49,1.07c0,0.68,0.76,0.86,1.59,1.07c1.02,0.26,2.17,0.54,2.17,1.81c0,0.96-0.74,1.75-2.23,1.75
		c-0.96,0-1.7-0.28-2.29-0.94L342.49,276.72z"/>
</g>
<g>
	<rect x="297.49" y="281.73" class="st5" width="71.5" height="43.43"/>
	<text transform="matrix(1 0 0 1 297.4864 285.7367)"><tspan x="0" y="0" class="st20 st23 st22">Tráfico personalizado </tspan><tspan x="0" y="6" class="st20 st23 st22">para usuarios europeos </tspan><tspan x="0" y="12" class="st20 st23 st22">para el conjunto de </tspan><tspan x="0" y="18" class="st20 st23 st22">aplicaciones que cumplen </tspan><tspan x="0" y="24" class="st20 st23 st22">con la normativa de la UE</tspan></text>
</g>
<rect x="224.62" y="397.48" class="st16" width="199.05" height="98.66"/>
<rect x="17.77" y="397.48" class="st16" width="199.05" height="98.85"/>
<rect x="85.11" y="388.48" class="st11" width="64.37" height="18"/>
<text transform="matrix(1 0 0 1 94.8765 400.3168)" class="st12 st13 st14">GRUPO A - V1.5</text>
<g>
	<g>
		<path class="st9" d="M74.88,434.68h-41.8c-0.88,0-1.6,0.72-1.6,1.6v4.77c0,0.88,0.72,1.6,1.6,1.6h41.8c0.88,0,1.6-0.72,1.6-1.6
			v-4.77C76.48,435.39,75.76,434.68,74.88,434.68z"/>
		<line class="st4" x1="71.66" y1="436.27" x2="71.66" y2="441.05"/>
		<line class="st4" x1="66.83" y1="436.27" x2="66.83" y2="441.05"/>
		<line class="st4" x1="62.01" y1="436.27" x2="62.01" y2="441.05"/>
		<path class="st25" d="M35.49,437.87c0.44,0,0.8,0.36,0.8,0.8c0,0.44-0.36,0.8-0.8,0.8c-0.44,0-0.8-0.36-0.8-0.8
			C34.69,438.22,35.05,437.87,35.49,437.87 M35.49,436.78c-1.04,0-1.89,0.84-1.89,1.88c0,1.04,0.85,1.88,1.89,1.88
			c1.04,0,1.89-0.84,1.89-1.88C37.38,437.63,36.54,436.78,35.49,436.78"/>
	</g>
	<g>
		<path class="st9" d="M74.88,423.9h-41.8c-0.88,0-1.6,0.72-1.6,1.6v4.77c0,0.88,0.72,1.6,1.6,1.6h41.8c0.88,0,1.6-0.72,1.6-1.6
			v-4.77C76.48,424.62,75.76,423.9,74.88,423.9z"/>
		<line class="st4" x1="71.66" y1="425.5" x2="71.66" y2="430.28"/>
		<line class="st4" x1="66.83" y1="425.5" x2="66.83" y2="430.28"/>
		<line class="st4" x1="62.01" y1="425.5" x2="62.01" y2="430.28"/>
		<path class="st25" d="M35.49,427.09c0.44,0,0.8,0.36,0.8,0.8c0,0.44-0.36,0.8-0.8,0.8c-0.44,0-0.8-0.36-0.8-0.8
			C34.69,427.45,35.05,427.09,35.49,427.09 M35.49,426.01c-1.04,0-1.89,0.84-1.89,1.88c0,1.04,0.85,1.88,1.89,1.88
			c1.04,0,1.89-0.84,1.89-1.88C37.38,426.85,36.54,426.01,35.49,426.01"/>
	</g>
	<g>
		<path class="st9" d="M74.88,413.13h-41.8c-0.88,0-1.6,0.72-1.6,1.6v4.77c0,0.88,0.72,1.6,1.6,1.6h41.8c0.88,0,1.6-0.72,1.6-1.6
			v-4.77C76.48,413.85,75.76,413.13,74.88,413.13z"/>
		<line class="st4" x1="71.66" y1="414.73" x2="71.66" y2="419.51"/>
		<line class="st4" x1="66.83" y1="414.73" x2="66.83" y2="419.51"/>
		<line class="st4" x1="62.01" y1="414.73" x2="62.01" y2="419.51"/>
		<path class="st25" d="M35.49,416.32c0.44,0,0.8,0.36,0.8,0.8c0,0.44-0.36,0.8-0.8,0.8c-0.44,0-0.8-0.36-0.8-0.8
			C34.69,416.68,35.05,416.32,35.49,416.32 M35.49,415.24c-1.04,0-1.89,0.84-1.89,1.88c0,1.04,0.85,1.88,1.89,1.88
			c1.04,0,1.89-0.84,1.89-1.88C37.38,416.08,36.54,415.24,35.49,415.24"/>
	</g>
</g>
<g>
	<rect x="27.32" y="446.6" class="st5" width="53.32" height="33.64"/>
	<text transform="matrix(1 0 0 1 31.8508 452.6051)"><tspan x="0" y="0" class="st6 st7 st26">Servidor de </tspan><tspan x="-1.63" y="9.5" class="st6 st7 st26">aplicaciones</tspan><tspan x="9.13" y="19" class="st6 st7 st26">(10 ms)</tspan></text>
</g>
<g>
	<g>
		<path class="st9" d="M138.2,444.3H96.4c-0.88,0-1.6,0.72-1.6,1.6v4.77c0,0.88,0.72,1.6,1.6,1.6h41.8c0.88,0,1.6-0.72,1.6-1.6
			v-4.77C139.8,445.02,139.08,444.3,138.2,444.3z"/>
		<line class="st4" x1="134.98" y1="445.9" x2="134.98" y2="450.68"/>
		<line class="st4" x1="130.16" y1="445.9" x2="130.16" y2="450.68"/>
		<line class="st4" x1="125.34" y1="445.9" x2="125.34" y2="450.68"/>
		<path class="st25" d="M98.82,447.49c0.44,0,0.8,0.36,0.8,0.8c0,0.44-0.36,0.8-0.8,0.8c-0.44,0-0.8-0.36-0.8-0.8
			C98.01,447.85,98.37,447.49,98.82,447.49 M98.82,446.41c-1.04,0-1.89,0.84-1.89,1.88c0,1.04,0.85,1.88,1.89,1.88
			c1.04,0,1.89-0.84,1.89-1.88C100.71,447.25,99.86,446.41,98.82,446.41"/>
	</g>
	<g>
		<path class="st9" d="M138.2,433.53H96.4c-0.88,0-1.6,0.72-1.6,1.6v4.77c0,0.88,0.72,1.6,1.6,1.6h41.8c0.88,0,1.6-0.72,1.6-1.6
			v-4.77C139.8,434.25,139.08,433.53,138.2,433.53z"/>
		<line class="st4" x1="134.98" y1="435.13" x2="134.98" y2="439.91"/>
		<line class="st4" x1="130.16" y1="435.13" x2="130.16" y2="439.91"/>
		<line class="st4" x1="125.34" y1="435.13" x2="125.34" y2="439.91"/>
		<path class="st25" d="M98.82,436.72c0.44,0,0.8,0.36,0.8,0.8c0,0.44-0.36,0.8-0.8,0.8c-0.44,0-0.8-0.36-0.8-0.8
			C98.01,437.08,98.37,436.72,98.82,436.72 M98.82,435.64c-1.04,0-1.89,0.84-1.89,1.88c0,1.04,0.85,1.88,1.89,1.88
			c1.04,0,1.89-0.84,1.89-1.88C100.71,436.48,99.86,435.64,98.82,435.64"/>
	</g>
	<g>
		<path class="st9" d="M138.2,422.76H96.4c-0.88,0-1.6,0.72-1.6,1.6v4.77c0,0.88,0.72,1.6,1.6,1.6h41.8c0.88,0,1.6-0.72,1.6-1.6
			v-4.77C139.8,423.48,139.08,422.76,138.2,422.76z"/>
		<line class="st4" x1="134.98" y1="424.36" x2="134.98" y2="429.14"/>
		<line class="st4" x1="130.16" y1="424.36" x2="130.16" y2="429.14"/>
		<line class="st4" x1="125.34" y1="424.36" x2="125.34" y2="429.14"/>
		<path class="st25" d="M98.82,425.95c0.44,0,0.8,0.36,0.8,0.8c0,0.44-0.36,0.8-0.8,0.8c-0.44,0-0.8-0.36-0.8-0.8
			C98.01,426.31,98.37,425.95,98.82,425.95 M98.82,424.87c-1.04,0-1.89,0.84-1.89,1.88c0,1.04,0.85,1.88,1.89,1.88
			c1.04,0,1.89-0.84,1.89-1.88C100.71,425.71,99.86,424.87,98.82,424.87"/>
	</g>
</g>
<g>
	<rect x="90.64" y="456.23" class="st5" width="53.32" height="27.64"/>
	<text transform="matrix(1 0 0 1 95.1746 462.2342)"><tspan x="0" y="0" class="st6 st7 st26">Servidor de </tspan><tspan x="-1.63" y="9.5" class="st6 st7 st26">aplicaciones</tspan><tspan x="8.01" y="19" class="st6 st7 st26">(20 ms)</tspan></text>
</g>
<g>
	<g>
		<path class="st9" d="M201.52,453.3h-41.8c-0.88,0-1.6,0.72-1.6,1.6v4.77c0,0.88,0.72,1.6,1.6,1.6h41.8c0.88,0,1.6-0.72,1.6-1.6
			v-4.77C203.12,454.02,202.41,453.3,201.52,453.3z"/>
		<line class="st4" x1="198.3" y1="454.9" x2="198.3" y2="459.68"/>
		<line class="st4" x1="193.48" y1="454.9" x2="193.48" y2="459.68"/>
		<line class="st4" x1="188.66" y1="454.9" x2="188.66" y2="459.68"/>
		<path class="st25" d="M162.14,456.49c0.44,0,0.8,0.36,0.8,0.8c0,0.44-0.36,0.8-0.8,0.8c-0.44,0-0.8-0.36-0.8-0.8
			C161.34,456.85,161.7,456.49,162.14,456.49 M162.14,455.41c-1.04,0-1.89,0.84-1.89,1.88c0,1.04,0.85,1.88,1.89,1.88
			c1.04,0,1.89-0.84,1.89-1.88C164.03,456.25,163.18,455.41,162.14,455.41"/>
	</g>
	<g>
		<path class="st9" d="M201.52,442.53h-41.8c-0.88,0-1.6,0.72-1.6,1.6v4.77c0,0.88,0.72,1.6,1.6,1.6h41.8c0.88,0,1.6-0.72,1.6-1.6
			v-4.77C203.12,443.25,202.41,442.53,201.52,442.53z"/>
		<line class="st4" x1="198.3" y1="444.13" x2="198.3" y2="448.91"/>
		<line class="st4" x1="193.48" y1="444.13" x2="193.48" y2="448.91"/>
		<line class="st4" x1="188.66" y1="444.13" x2="188.66" y2="448.91"/>
		<path class="st25" d="M162.14,445.72c0.44,0,0.8,0.36,0.8,0.8c0,0.44-0.36,0.8-0.8,0.8c-0.44,0-0.8-0.36-0.8-0.8
			C161.34,446.08,161.7,445.72,162.14,445.72 M162.14,444.64c-1.04,0-1.89,0.84-1.89,1.88c0,1.04,0.85,1.88,1.89,1.88
			c1.04,0,1.89-0.84,1.89-1.88C164.03,445.48,163.18,444.64,162.14,444.64"/>
	</g>
	<g>
		<path class="st9" d="M201.52,431.76h-41.8c-0.88,0-1.6,0.72-1.6,1.6v4.77c0,0.88,0.72,1.6,1.6,1.6h41.8c0.88,0,1.6-0.72,1.6-1.6
			v-4.77C203.12,432.48,202.41,431.76,201.52,431.76z"/>
		<line class="st4" x1="198.3" y1="433.36" x2="198.3" y2="438.14"/>
		<line class="st4" x1="193.48" y1="433.36" x2="193.48" y2="438.14"/>
		<line class="st4" x1="188.66" y1="433.36" x2="188.66" y2="438.14"/>
		<path class="st25" d="M162.14,434.95c0.44,0,0.8,0.36,0.8,0.8c0,0.44-0.36,0.8-0.8,0.8c-0.44,0-0.8-0.36-0.8-0.8
			C161.34,435.31,161.7,434.95,162.14,434.95 M162.14,433.87c-1.04,0-1.89,0.84-1.89,1.88c0,1.04,0.85,1.88,1.89,1.88
			c1.04,0,1.89-0.84,1.89-1.88C164.03,434.71,163.18,433.87,162.14,433.87"/>
	</g>
</g>
<g>
	<rect x="153.96" y="465.73" class="st5" width="53.32" height="41.99"/>
	<text transform="matrix(1 0 0 1 158.4971 471.734)"><tspan x="0" y="0" class="st6 st7 st26">Servidor de </tspan><tspan x="-1.63" y="9.5" class="st6 st7 st26">aplicaciones</tspan><tspan x="8.11" y="19" class="st6 st7 st26">(25 ms)</tspan></text>
</g>
<rect x="224.62" y="397.48" class="st16" width="199.05" height="98.85"/>
<g>
	<g>
		<path class="st9" d="M281.72,434.68h-41.8c-0.88,0-1.6,0.72-1.6,1.6v4.77c0,0.88,0.72,1.6,1.6,1.6h41.8c0.88,0,1.6-0.72,1.6-1.6
			v-4.77C283.33,435.39,282.61,434.68,281.72,434.68z"/>
		<line class="st4" x1="278.5" y1="436.27" x2="278.5" y2="441.05"/>
		<line class="st4" x1="273.68" y1="436.27" x2="273.68" y2="441.05"/>
		<line class="st4" x1="268.86" y1="436.27" x2="268.86" y2="441.05"/>
		<path class="st25" d="M242.34,437.87c0.44,0,0.8,0.36,0.8,0.8c0,0.44-0.36,0.8-0.8,0.8c-0.44,0-0.8-0.36-0.8-0.8
			C241.54,438.22,241.9,437.87,242.34,437.87 M242.34,436.78c-1.04,0-1.89,0.84-1.89,1.88c0,1.04,0.85,1.88,1.89,1.88
			c1.04,0,1.89-0.84,1.89-1.88C244.23,437.63,243.38,436.78,242.34,436.78"/>
	</g>
	<g>
		<path class="st9" d="M281.72,423.9h-41.8c-0.88,0-1.6,0.72-1.6,1.6v4.77c0,0.88,0.72,1.6,1.6,1.6h41.8c0.88,0,1.6-0.72,1.6-1.6
			v-4.77C283.33,424.62,282.61,423.9,281.72,423.9z"/>
		<line class="st4" x1="278.5" y1="425.5" x2="278.5" y2="430.28"/>
		<line class="st4" x1="273.68" y1="425.5" x2="273.68" y2="430.28"/>
		<line class="st4" x1="268.86" y1="425.5" x2="268.86" y2="430.28"/>
		<path class="st25" d="M242.34,427.09c0.44,0,0.8,0.36,0.8,0.8c0,0.44-0.36,0.8-0.8,0.8c-0.44,0-0.8-0.36-0.8-0.8
			C241.54,427.45,241.9,427.09,242.34,427.09 M242.34,426.01c-1.04,0-1.89,0.84-1.89,1.88c0,1.04,0.85,1.88,1.89,1.88
			c1.04,0,1.89-0.84,1.89-1.88C244.23,426.85,243.38,426.01,242.34,426.01"/>
	</g>
	<g>
		<path class="st9" d="M281.72,413.13h-41.8c-0.88,0-1.6,0.72-1.6,1.6v4.77c0,0.88,0.72,1.6,1.6,1.6h41.8c0.88,0,1.6-0.72,1.6-1.6
			v-4.77C283.33,413.85,282.61,413.13,281.72,413.13z"/>
		<line class="st4" x1="278.5" y1="414.73" x2="278.5" y2="419.51"/>
		<line class="st4" x1="273.68" y1="414.73" x2="273.68" y2="419.51"/>
		<line class="st4" x1="268.86" y1="414.73" x2="268.86" y2="419.51"/>
		<path class="st25" d="M242.34,416.32c0.44,0,0.8,0.36,0.8,0.8c0,0.44-0.36,0.8-0.8,0.8c-0.44,0-0.8-0.36-0.8-0.8
			C241.54,416.68,241.9,416.32,242.34,416.32 M242.34,415.24c-1.04,0-1.89,0.84-1.89,1.88c0,1.04,0.85,1.88,1.89,1.88
			c1.04,0,1.89-0.84,1.89-1.88C244.23,416.08,243.38,415.24,242.34,415.24"/>
	</g>
</g>
<g>
	<rect x="234.16" y="446.6" class="st5" width="53.32" height="33.64"/>
	<text transform="matrix(1 0 0 1 238.6992 452.6051)"><tspan x="0" y="0" class="st6 st7 st26">Servidor de </tspan><tspan x="-1.63" y="9.5" class="st6 st7 st26">aplicaciones</tspan><tspan x="9.13" y="19" class="st6 st7 st26">(10 ms)</tspan></text>
</g>
<g>
	<g>
		<path class="st9" d="M345.05,453.3h-41.8c-0.88,0-1.6,0.72-1.6,1.6v4.77c0,0.88,0.72,1.6,1.6,1.6h41.8c0.88,0,1.6-0.72,1.6-1.6
			v-4.77C346.65,454.02,345.93,453.3,345.05,453.3z"/>
		<line class="st4" x1="341.83" y1="454.9" x2="341.83" y2="459.68"/>
		<line class="st4" x1="337.01" y1="454.9" x2="337.01" y2="459.68"/>
		<line class="st4" x1="332.18" y1="454.9" x2="332.18" y2="459.68"/>
		<path class="st25" d="M305.67,456.49c0.44,0,0.8,0.36,0.8,0.8c0,0.44-0.36,0.8-0.8,0.8c-0.44,0-0.8-0.36-0.8-0.8
			C304.86,456.85,305.22,456.49,305.67,456.49 M305.67,455.41c-1.04,0-1.89,0.84-1.89,1.88c0,1.04,0.85,1.88,1.89,1.88
			c1.04,0,1.89-0.84,1.89-1.88C307.55,456.25,306.71,455.41,305.67,455.41"/>
	</g>
	<g>
		<path class="st9" d="M345.05,442.53h-41.8c-0.88,0-1.6,0.72-1.6,1.6v4.77c0,0.88,0.72,1.6,1.6,1.6h41.8c0.88,0,1.6-0.72,1.6-1.6
			v-4.77C346.65,443.25,345.93,442.53,345.05,442.53z"/>
		<line class="st4" x1="341.83" y1="444.13" x2="341.83" y2="448.91"/>
		<line class="st4" x1="337.01" y1="444.13" x2="337.01" y2="448.91"/>
		<line class="st4" x1="332.18" y1="444.13" x2="332.18" y2="448.91"/>
		<path class="st25" d="M305.67,445.72c0.44,0,0.8,0.36,0.8,0.8c0,0.44-0.36,0.8-0.8,0.8c-0.44,0-0.8-0.36-0.8-0.8
			C304.86,446.08,305.22,445.72,305.67,445.72 M305.67,444.64c-1.04,0-1.89,0.84-1.89,1.88c0,1.04,0.85,1.88,1.89,1.88
			c1.04,0,1.89-0.84,1.89-1.88C307.55,445.48,306.71,444.64,305.67,444.64"/>
	</g>
	<g>
		<path class="st9" d="M345.05,431.76h-41.8c-0.88,0-1.6,0.72-1.6,1.6v4.77c0,0.88,0.72,1.6,1.6,1.6h41.8c0.88,0,1.6-0.72,1.6-1.6
			v-4.77C346.65,432.48,345.93,431.76,345.05,431.76z"/>
		<line class="st4" x1="341.83" y1="433.36" x2="341.83" y2="438.14"/>
		<line class="st4" x1="337.01" y1="433.36" x2="337.01" y2="438.14"/>
		<line class="st4" x1="332.18" y1="433.36" x2="332.18" y2="438.14"/>
		<path class="st25" d="M305.67,434.95c0.44,0,0.8,0.36,0.8,0.8c0,0.44-0.36,0.8-0.8,0.8c-0.44,0-0.8-0.36-0.8-0.8
			C304.86,435.31,305.22,434.95,305.67,434.95 M305.67,433.87c-1.04,0-1.89,0.84-1.89,1.88c0,1.04,0.85,1.88,1.89,1.88
			c1.04,0,1.89-0.84,1.89-1.88C307.55,434.71,306.71,433.87,305.67,433.87"/>
	</g>
</g>
<g>
	<rect x="297.49" y="465.73" class="st5" width="53.32" height="38.49"/>
	<text transform="matrix(1 0 0 1 302.0217 471.7342)"><tspan x="0" y="0" class="st6 st7 st26">Servidor de </tspan><tspan x="-1.63" y="9.5" class="st6 st7 st26">aplicaciones</tspan><tspan x="8.11" y="19" class="st6 st7 st26">(25 ms)</tspan></text>
</g>
<g>
	<g>
		<path class="st9" d="M408.37,453.3h-41.8c-0.88,0-1.6,0.72-1.6,1.6v4.77c0,0.88,0.72,1.6,1.6,1.6h41.8c0.88,0,1.6-0.72,1.6-1.6
			v-4.77C409.97,454.02,409.25,453.3,408.37,453.3z"/>
		<line class="st4" x1="405.15" y1="454.9" x2="405.15" y2="459.68"/>
		<line class="st4" x1="400.33" y1="454.9" x2="400.33" y2="459.68"/>
		<line class="st4" x1="395.51" y1="454.9" x2="395.51" y2="459.68"/>
		<path class="st25" d="M368.99,456.49c0.44,0,0.8,0.36,0.8,0.8c0,0.44-0.36,0.8-0.8,0.8c-0.44,0-0.8-0.36-0.8-0.8
			C368.19,456.85,368.55,456.49,368.99,456.49 M368.99,455.41c-1.04,0-1.89,0.84-1.89,1.88c0,1.04,0.85,1.88,1.89,1.88
			c1.04,0,1.89-0.84,1.89-1.88C370.88,456.25,370.03,455.41,368.99,455.41"/>
	</g>
	<g>
		<path class="st9" d="M408.37,442.53h-41.8c-0.88,0-1.6,0.72-1.6,1.6v4.77c0,0.88,0.72,1.6,1.6,1.6h41.8c0.88,0,1.6-0.72,1.6-1.6
			v-4.77C409.97,443.25,409.25,442.53,408.37,442.53z"/>
		<line class="st4" x1="405.15" y1="444.13" x2="405.15" y2="448.91"/>
		<line class="st4" x1="400.33" y1="444.13" x2="400.33" y2="448.91"/>
		<line class="st4" x1="395.51" y1="444.13" x2="395.51" y2="448.91"/>
		<path class="st25" d="M368.99,445.72c0.44,0,0.8,0.36,0.8,0.8c0,0.44-0.36,0.8-0.8,0.8c-0.44,0-0.8-0.36-0.8-0.8
			C368.19,446.08,368.55,445.72,368.99,445.72 M368.99,444.64c-1.04,0-1.89,0.84-1.89,1.88c0,1.04,0.85,1.88,1.89,1.88
			c1.04,0,1.89-0.84,1.89-1.88C370.88,445.48,370.03,444.64,368.99,444.64"/>
	</g>
	<g>
		<path class="st9" d="M408.37,431.76h-41.8c-0.88,0-1.6,0.72-1.6,1.6v4.77c0,0.88,0.72,1.6,1.6,1.6h41.8c0.88,0,1.6-0.72,1.6-1.6
			v-4.77C409.97,432.48,409.25,431.76,408.37,431.76z"/>
		<line class="st4" x1="405.15" y1="433.36" x2="405.15" y2="438.14"/>
		<line class="st4" x1="400.33" y1="433.36" x2="400.33" y2="438.14"/>
		<line class="st4" x1="395.51" y1="433.36" x2="395.51" y2="438.14"/>
		<path class="st25" d="M368.99,434.95c0.44,0,0.8,0.36,0.8,0.8c0,0.44-0.36,0.8-0.8,0.8c-0.44,0-0.8-0.36-0.8-0.8
			C368.19,435.31,368.55,434.95,368.99,434.95 M368.99,433.87c-1.04,0-1.89,0.84-1.89,1.88c0,1.04,0.85,1.88,1.89,1.88
			c1.04,0,1.89-0.84,1.89-1.88C370.88,434.71,370.03,433.87,368.99,433.87"/>
	</g>
</g>
<g>
	<rect x="360.81" y="465.73" class="st5" width="53.32" height="31.3"/>
	<text transform="matrix(1 0 0 1 365.3452 471.734)"><tspan x="0" y="0" class="st6 st7 st26">Servidor de </tspan><tspan x="-1.63" y="9.5" class="st6 st7 st26">aplicaciones</tspan><tspan x="8.11" y="19" class="st6 st7 st26">(25 ms)</tspan></text>
</g>
<rect x="451.05" y="397.48" class="st16" width="199.05" height="98.85"/>
<g>
	<g>
		<path class="st9" d="M508.15,434.68h-41.8c-0.88,0-1.6,0.72-1.6,1.6v4.77c0,0.88,0.72,1.6,1.6,1.6h41.8c0.88,0,1.6-0.72,1.6-1.6
			v-4.77C509.75,435.39,509.04,434.68,508.15,434.68z"/>
		<line class="st4" x1="504.93" y1="436.27" x2="504.93" y2="441.05"/>
		<line class="st4" x1="500.11" y1="436.27" x2="500.11" y2="441.05"/>
		<line class="st4" x1="495.29" y1="436.27" x2="495.29" y2="441.05"/>
		<path class="st25" d="M468.77,437.87c0.44,0,0.8,0.36,0.8,0.8c0,0.44-0.36,0.8-0.8,0.8c-0.44,0-0.8-0.36-0.8-0.8
			C467.97,438.22,468.33,437.87,468.77,437.87 M468.77,436.78c-1.04,0-1.89,0.84-1.89,1.88c0,1.04,0.85,1.88,1.89,1.88
			c1.04,0,1.89-0.84,1.89-1.88C470.66,437.63,469.81,436.78,468.77,436.78"/>
	</g>
	<g>
		<path class="st9" d="M508.15,423.9h-41.8c-0.88,0-1.6,0.72-1.6,1.6v4.77c0,0.88,0.72,1.6,1.6,1.6h41.8c0.88,0,1.6-0.72,1.6-1.6
			v-4.77C509.75,424.62,509.04,423.9,508.15,423.9z"/>
		<line class="st4" x1="504.93" y1="425.5" x2="504.93" y2="430.28"/>
		<line class="st4" x1="500.11" y1="425.5" x2="500.11" y2="430.28"/>
		<line class="st4" x1="495.29" y1="425.5" x2="495.29" y2="430.28"/>
		<path class="st25" d="M468.77,427.09c0.44,0,0.8,0.36,0.8,0.8c0,0.44-0.36,0.8-0.8,0.8c-0.44,0-0.8-0.36-0.8-0.8
			C467.97,427.45,468.33,427.09,468.77,427.09 M468.77,426.01c-1.04,0-1.89,0.84-1.89,1.88c0,1.04,0.85,1.88,1.89,1.88
			c1.04,0,1.89-0.84,1.89-1.88C470.66,426.85,469.81,426.01,468.77,426.01"/>
	</g>
	<g>
		<path class="st9" d="M508.15,413.13h-41.8c-0.88,0-1.6,0.72-1.6,1.6v4.77c0,0.88,0.72,1.6,1.6,1.6h41.8c0.88,0,1.6-0.72,1.6-1.6
			v-4.77C509.75,413.85,509.04,413.13,508.15,413.13z"/>
		<line class="st4" x1="504.93" y1="414.73" x2="504.93" y2="419.51"/>
		<line class="st4" x1="500.11" y1="414.73" x2="500.11" y2="419.51"/>
		<line class="st4" x1="495.29" y1="414.73" x2="495.29" y2="419.51"/>
		<path class="st25" d="M468.77,416.32c0.44,0,0.8,0.36,0.8,0.8c0,0.44-0.36,0.8-0.8,0.8c-0.44,0-0.8-0.36-0.8-0.8
			C467.97,416.68,468.33,416.32,468.77,416.32 M468.77,415.24c-1.04,0-1.89,0.84-1.89,1.88c0,1.04,0.85,1.88,1.89,1.88
			c1.04,0,1.89-0.84,1.89-1.88C470.66,416.08,469.81,415.24,468.77,415.24"/>
	</g>
</g>
<g>
	<rect x="452.09" y="446.6" class="st5" width="70.98" height="31.14"/>
	<text transform="matrix(1 0 0 1 465.458 452.6051)"><tspan x="0" y="0" class="st6 st7 st26">Servidor de </tspan><tspan x="-1.63" y="9.5" class="st6 st7 st26">aplicaciones</tspan><tspan x="9.13" y="19" class="st6 st7 st26">(10 ms)</tspan></text>
</g>
<g>
	<g>
		<path class="st9" d="M571.48,453.3h-41.8c-0.88,0-1.6,0.72-1.6,1.6v4.77c0,0.88,0.72,1.6,1.6,1.6h41.8c0.88,0,1.6-0.72,1.6-1.6
			v-4.77C573.08,454.02,572.36,453.3,571.48,453.3z"/>
		<line class="st4" x1="568.26" y1="454.9" x2="568.26" y2="459.68"/>
		<line class="st4" x1="563.43" y1="454.9" x2="563.43" y2="459.68"/>
		<line class="st4" x1="558.61" y1="454.9" x2="558.61" y2="459.68"/>
		<path class="st25" d="M532.09,456.49c0.44,0,0.8,0.36,0.8,0.8c0,0.44-0.36,0.8-0.8,0.8c-0.44,0-0.8-0.36-0.8-0.8
			C531.29,456.85,531.65,456.49,532.09,456.49 M532.09,455.41c-1.04,0-1.89,0.84-1.89,1.88c0,1.04,0.85,1.88,1.89,1.88
			c1.04,0,1.89-0.84,1.89-1.88C533.98,456.25,533.14,455.41,532.09,455.41"/>
	</g>
	<g>
		<path class="st9" d="M571.48,442.53h-41.8c-0.88,0-1.6,0.72-1.6,1.6v4.77c0,0.88,0.72,1.6,1.6,1.6h41.8c0.88,0,1.6-0.72,1.6-1.6
			v-4.77C573.08,443.25,572.36,442.53,571.48,442.53z"/>
		<line class="st4" x1="568.26" y1="444.13" x2="568.26" y2="448.91"/>
		<line class="st4" x1="563.43" y1="444.13" x2="563.43" y2="448.91"/>
		<line class="st4" x1="558.61" y1="444.13" x2="558.61" y2="448.91"/>
		<path class="st25" d="M532.09,445.72c0.44,0,0.8,0.36,0.8,0.8c0,0.44-0.36,0.8-0.8,0.8c-0.44,0-0.8-0.36-0.8-0.8
			C531.29,446.08,531.65,445.72,532.09,445.72 M532.09,444.64c-1.04,0-1.89,0.84-1.89,1.88c0,1.04,0.85,1.88,1.89,1.88
			c1.04,0,1.89-0.84,1.89-1.88C533.98,445.48,533.14,444.64,532.09,444.64"/>
	</g>
	<g>
		<path class="st9" d="M571.48,431.76h-41.8c-0.88,0-1.6,0.72-1.6,1.6v4.77c0,0.88,0.72,1.6,1.6,1.6h41.8c0.88,0,1.6-0.72,1.6-1.6
			v-4.77C573.08,432.48,572.36,431.76,571.48,431.76z"/>
		<line class="st4" x1="568.26" y1="433.36" x2="568.26" y2="438.14"/>
		<line class="st4" x1="563.43" y1="433.36" x2="563.43" y2="438.14"/>
		<line class="st4" x1="558.61" y1="433.36" x2="558.61" y2="438.14"/>
		<path class="st25" d="M532.09,434.95c0.44,0,0.8,0.36,0.8,0.8c0,0.44-0.36,0.8-0.8,0.8c-0.44,0-0.8-0.36-0.8-0.8
			C531.29,435.31,531.65,434.95,532.09,434.95 M532.09,433.87c-1.04,0-1.89,0.84-1.89,1.88c0,1.04,0.85,1.88,1.89,1.88
			c1.04,0,1.89-0.84,1.89-1.88C533.98,434.71,533.14,433.87,532.09,433.87"/>
	</g>
</g>
<g>
	<rect x="515.41" y="465.73" class="st5" width="67.48" height="31.71"/>
	<text transform="matrix(1 0 0 1 527.0315 471.7342)"><tspan x="0" y="0" class="st6 st7 st26">Servidor de </tspan><tspan x="-1.63" y="9.5" class="st6 st7 st26">aplicaciones</tspan><tspan x="8.11" y="19" class="st6 st7 st26">(25 ms)</tspan></text>
</g>
<g>
	<g>
		<path class="st9" d="M634.8,453.3H593c-0.88,0-1.6,0.72-1.6,1.6v4.77c0,0.88,0.72,1.6,1.6,1.6h41.8c0.88,0,1.6-0.72,1.6-1.6v-4.77
			C636.4,454.02,635.68,453.3,634.8,453.3z"/>
		<line class="st4" x1="631.58" y1="454.9" x2="631.58" y2="459.68"/>
		<line class="st4" x1="626.76" y1="454.9" x2="626.76" y2="459.68"/>
		<line class="st4" x1="621.94" y1="454.9" x2="621.94" y2="459.68"/>
		<path class="st25" d="M595.42,456.49c0.44,0,0.8,0.36,0.8,0.8c0,0.44-0.36,0.8-0.8,0.8c-0.44,0-0.8-0.36-0.8-0.8
			C594.61,456.85,594.97,456.49,595.42,456.49 M595.42,455.41c-1.04,0-1.89,0.84-1.89,1.88c0,1.04,0.85,1.88,1.89,1.88
			c1.04,0,1.89-0.84,1.89-1.88C597.3,456.25,596.46,455.41,595.42,455.41"/>
	</g>
	<g>
		<path class="st9" d="M634.8,442.53H593c-0.88,0-1.6,0.72-1.6,1.6v4.77c0,0.88,0.72,1.6,1.6,1.6h41.8c0.88,0,1.6-0.72,1.6-1.6
			v-4.77C636.4,443.25,635.68,442.53,634.8,442.53z"/>
		<line class="st4" x1="631.58" y1="444.13" x2="631.58" y2="448.91"/>
		<line class="st4" x1="626.76" y1="444.13" x2="626.76" y2="448.91"/>
		<line class="st4" x1="621.94" y1="444.13" x2="621.94" y2="448.91"/>
		<path class="st25" d="M595.42,445.72c0.44,0,0.8,0.36,0.8,0.8c0,0.44-0.36,0.8-0.8,0.8c-0.44,0-0.8-0.36-0.8-0.8
			C594.61,446.08,594.97,445.72,595.42,445.72 M595.42,444.64c-1.04,0-1.89,0.84-1.89,1.88c0,1.04,0.85,1.88,1.89,1.88
			c1.04,0,1.89-0.84,1.89-1.88C597.3,445.48,596.46,444.64,595.42,444.64"/>
	</g>
	<g>
		<path class="st9" d="M634.8,431.76H593c-0.88,0-1.6,0.72-1.6,1.6v4.77c0,0.88,0.72,1.6,1.6,1.6h41.8c0.88,0,1.6-0.72,1.6-1.6
			v-4.77C636.4,432.48,635.68,431.76,634.8,431.76z"/>
		<line class="st4" x1="631.58" y1="433.36" x2="631.58" y2="438.14"/>
		<line class="st4" x1="626.76" y1="433.36" x2="626.76" y2="438.14"/>
		<line class="st4" x1="621.94" y1="433.36" x2="621.94" y2="438.14"/>
		<path class="st25" d="M595.42,434.95c0.44,0,0.8,0.36,0.8,0.8c0,0.44-0.36,0.8-0.8,0.8c-0.44,0-0.8-0.36-0.8-0.8
			C594.61,435.31,594.97,434.95,595.42,434.95 M595.42,433.87c-1.04,0-1.89,0.84-1.89,1.88c0,1.04,0.85,1.88,1.89,1.88
			c1.04,0,1.89-0.84,1.89-1.88C597.3,434.71,596.46,433.87,595.42,433.87"/>
	</g>
</g>
<g>
	<rect x="577.74" y="465.73" class="st5" width="70.6" height="37.21"/>
	<text transform="matrix(1 0 0 1 590.9116 471.734)"><tspan x="0" y="0" class="st6 st7 st26">Servidor de </tspan><tspan x="-1.63" y="9.5" class="st6 st7 st26">aplicaciones</tspan><tspan x="8.11" y="19" class="st6 st7 st26">(25 ms)</tspan></text>
</g>
<line class="st0" x1="708.22" y1="411.27" x2="720.93" y2="411.27"/>
<line class="st0" x1="708.22" y1="457.4" x2="720.93" y2="457.4"/>
<line class="st0" x1="691.33" y1="437.28" x2="691.33" y2="430.49"/>
<line class="st0" x1="738.18" y1="437.49" x2="738.18" y2="430.7"/>
<g>
	<polygon class="st4" points="755.07,420.43 755.07,400.93 738.21,391.18 721.34,400.93 721.34,420.43 738.21,430.18 	"/>
	<polyline class="st4" points="726.4,416.49 726.4,405.02 736.74,416.49 736.74,405.02 	"/>
	<line class="st4" x1="746.22" y1="415.09" x2="746.22" y2="406.41"/>
	<line class="st4" x1="741.88" y1="410.75" x2="750.56" y2="410.75"/>
</g>
<g>
	<polygon class="st4" points="707.94,420.43 707.94,400.93 691.07,391.18 674.21,400.93 674.21,420.43 691.07,430.18 	"/>
	<polyline class="st4" points="679.27,416.49 679.27,405.02 689.61,416.49 689.61,405.02 	"/>
	<line class="st4" x1="699.09" y1="415.09" x2="699.09" y2="406.41"/>
	<line class="st4" x1="694.75" y1="410.75" x2="703.43" y2="410.75"/>
</g>
<g>
	<polygon class="st4" points="755.07,466.74 755.07,447.24 738.21,437.49 721.34,447.24 721.34,466.74 738.21,476.49 	"/>
	<polyline class="st4" points="726.4,462.8 726.4,451.33 736.74,462.8 736.74,451.33 	"/>
	<line class="st4" x1="746.22" y1="461.41" x2="746.22" y2="452.73"/>
	<line class="st4" x1="741.88" y1="457.07" x2="750.56" y2="457.07"/>
</g>
<g>
	<polygon class="st4" points="707.94,466.74 707.94,447.24 691.07,437.49 674.21,447.24 674.21,466.74 691.07,476.49 	"/>
	<polyline class="st4" points="679.27,462.8 679.27,451.33 689.61,462.8 689.61,451.33 	"/>
	<line class="st4" x1="699.09" y1="461.41" x2="699.09" y2="452.73"/>
	<line class="st4" x1="694.75" y1="457.07" x2="703.43" y2="457.07"/>
</g>
<g>
	<rect x="814.69" y="382.46" class="st5" width="44.11" height="37.49"/>
	<text transform="matrix(1 0 0 1 820.3511 389.8016)"><tspan x="0" y="0" class="st7 st8">NGINX </tspan><tspan x="6.5" y="11" class="st7 st8">Plus</tspan></text>
</g>
<g>
	<polygon class="st4" points="854.57,366.62 854.57,346.39 837.07,336.27 819.57,346.39 819.57,366.62 837.07,376.74 	"/>
	<polyline class="st4" points="824.82,362.53 824.82,350.63 835.56,362.53 835.56,350.63 	"/>
	<line class="st4" x1="845.39" y1="361.08" x2="845.39" y2="352.08"/>
	<line class="st4" x1="840.89" y1="356.58" x2="849.89" y2="356.58"/>
</g>
<g>
	<rect x="779.41" y="317.39" class="st16" width="114.45" height="186.51"/>
</g>
<rect x="784.38" y="308.5" class="st11" width="104.47" height="18"/>
<text transform="matrix(1 0 0 1 803.0012 320.335)" class="st12 st13 st14">clúster kubernetes</text>
<g>
	<rect x="804.69" y="456.95" class="st5" width="64.77" height="37.49"/>
	<text transform="matrix(1 0 0 1 820.6821 464.2852)"><tspan x="0" y="0" class="st7 st8">NGINX </tspan><tspan x="-0.81" y="11" class="st7 st8">Ingress </tspan><tspan x="-6.97" y="22" class="st7 st8">Controller</tspan></text>
</g>
<polygon class="st4" points="854.57,442.62 854.57,422.38 837.07,412.26 819.57,422.38 819.57,442.62 837.07,452.74 "/>
<g>
	<path id="XMLID_278_" class="st27" d="M848.56,440.04h-6.27c-1.37,0-2.46-0.9-3.13-2.09l-4.18-9.43c-0.67-1.2-1.76-2.09-3.13-2.09
		h-9.4"/>
	<path id="XMLID_277_" class="st27" d="M836.03,435.85l-1.04,2.09c-0.67,1.2-1.76,2.09-3.13,2.09h-9.4"/>
	<path id="XMLID_276_" class="st27" d="M848.56,426.42h-6.27c-1.37,0-2.46,0.9-3.13,2.09l-1.04,2.09"/>
	<polyline id="XMLID_275_" class="st27" points="848.56,423.28 851.7,426.42 848.56,429.56 	"/>
	<polyline id="XMLID_274_" class="st27" points="848.79,436.59 851.7,439.49 848.79,442.4 	"/>
</g>
<rect x="516.11" y="388.16" class="st11" width="68.94" height="18"/>
<text transform="matrix(1 0 0 1 527.6648 400.0026)" class="st12 st13 st14">GRUPO A - V2.0</text>
<rect x="289.68" y="388.48" class="st11" width="68.94" height="18"/>
<text transform="matrix(1 0 0 1 301.3329 400.3168)" class="st12 st13 st14">GRUPO B - V2.0</text>
<g>
	<g>
		<rect x="676.11" y="316.38" class="st5" width="36.64" height="18.74"/>
		<text transform="matrix(1 0 0 1 681.0044 320.3831)"><tspan x="0" y="0" class="st20 st21 st22">Controles </tspan><tspan x="1.72" y="7" class="st20 st21 st22">de salud </tspan><tspan x="3.65" y="14" class="st20 st21 st22">activos</tspan></text>
	</g>
</g>
</svg>
