<?xml version="1.0" encoding="utf-8"?>
<!-- Generator: Adobe Illustrator 25.2.3, SVG Export Plug-In . SVG Version: 6.00 Build 0)  -->
<svg version="1.1" id="Layer_1" xmlns="http://www.w3.org/2000/svg" xmlns:xlink="http://www.w3.org/1999/xlink" x="0px" y="0px"
	 viewBox="0 0 909 556.29" style="enable-background:new 0 0 909 556.29;" xml:space="preserve">
<style type="text/css">
	.st0{fill:none;stroke:#1DB14B;stroke-linecap:round;stroke-miterlimit:10;}
	.st1{fill:#FFFFFF;stroke:#231F20;stroke-linecap:round;stroke-miterlimit:10;}
	.st2{fill:#FFFFFF;stroke:#000000;stroke-linecap:round;stroke-miterlimit:10;}
	.st3{fill:#1DB14B;}
	.st4{fill:none;stroke:#000000;stroke-linecap:round;stroke-linejoin:round;stroke-miterlimit:10;}
	.st5{fill:none;}
	.st6{fill:#221F1F;}
	.st7{font-family:'ProximaNova-Regular';}
	.st8{font-size:11px;}
	.st9{fill:none;stroke:#000000;stroke-miterlimit:10;}
	.st10{stroke:#000000;stroke-width:0.5;stroke-miterlimit:10;}
	.st11{fill:#231F20;}
	.st12{fill:#FFFFFF;}
	.st13{font-family:'NeusaNextStd-CondensedBold';}
	.st14{font-size:8px;}
	.st15{fill:#FFFFFF;stroke:#1DB14B;stroke-linecap:round;stroke-miterlimit:10;}
	.st16{fill:none;stroke:#231F20;stroke-linecap:round;stroke-miterlimit:10;}
	.st17{font-family:'ProximaNova-Medium';}
	.st18{font-size:10px;}
	.st19{stroke:#000000;stroke-width:0.25;stroke-miterlimit:10;}
	.st20{fill:#343434;}
	.st21{font-family:'ProximaNova-Bold';}
	.st22{font-size:6px;}
	.st23{font-family:'ProximaNova-BoldIt';}
	.st24{font-size:7px;}
	.st25{fill:#010101;}
	.st26{fill:none;stroke:#000000;stroke-width:0.75;stroke-linecap:round;stroke-linejoin:round;stroke-miterlimit:10;}
</style>
<line class="st0" x1="669.9" y1="76.8" x2="669.9" y2="90.15"/>
<rect x="10.45" y="237.91" class="st1" width="421.09" height="303.66"/>
<rect x="441.86" y="237.87" class="st2" width="456.69" height="303.7"/>
<g>
	<g>
		<polyline class="st0" points="324.15,499.68 324.15,517.22 708.66,517.22 708.66,492.77 		"/>
		<g>
			<polygon class="st3" points="712.75,496.08 712.01,496.76 708.66,493.15 705.3,496.76 704.57,496.08 708.66,491.68 			"/>
		</g>
	</g>
</g>
<g id="Group_11423_1_" transform="translate(0.25 0.25)">
	<path id="Path_60436_1_" class="st4" d="M278.59,19.29h-2.39c-3.54-0.02-6.44,2.84-6.46,6.39c0,0.04,0,0.08,0,0.12v5.94"/>
	<ellipse id="Ellipse_32_1_" class="st4" cx="278.54" cy="13.97" rx="5.31" ry="5.32"/>
	<path id="Path_60437_1_" class="st4" d="M299.89,19.29h2.39c3.54-0.02,6.44,2.84,6.46,6.39c0,0.04,0,0.08,0,0.12v5.94"/>
	<ellipse id="Ellipse_33_1_" class="st4" cx="299.94" cy="13.97" rx="5.31" ry="5.32"/>
	<path id="Path_60438_1_" class="st4" d="M289.47,31.7h-2.92c-4.34-0.03-7.89,3.47-7.92,7.82c0,0.05,0,0.1,0,0.15v7.98"/>
	<path id="Path_60439_1_" class="st4" d="M289.73,31.7h2.92c4.34-0.03,7.89,3.47,7.92,7.82c0,0.05,0,0.1,0,0.15v7.98"/>
	<ellipse id="Ellipse_34_2_" class="st4" cx="289.2" cy="24.61" rx="7.08" ry="7.09"/>
</g>
<g>
	<rect x="242.1" y="57" class="st5" width="91.88" height="36.78"/>
	<text transform="matrix(1 0 0 1 266.8782 64.3347)"><tspan x="0" y="0" class="st6 st7 st8">Benutzer </tspan><tspan x="-9.25" y="11" class="st6 st7 st8">Nordamerika</tspan></text>
</g>
<g id="Group_11423_2_" transform="translate(0.25 0.25)">
	<path id="Path_60436_2_" class="st4" d="M367.32,19.29h-2.39c-3.54-0.02-6.44,2.84-6.46,6.39c0,0.04,0,0.08,0,0.12v5.94"/>
	<ellipse id="Ellipse_32_2_" class="st4" cx="367.28" cy="13.97" rx="5.31" ry="5.32"/>
	<path id="Path_60437_2_" class="st4" d="M388.63,19.29h2.39c3.54-0.02,6.44,2.84,6.46,6.39c0,0.04,0,0.08,0,0.12v5.94"/>
	<ellipse id="Ellipse_33_2_" class="st4" cx="388.67" cy="13.97" rx="5.31" ry="5.32"/>
	<path id="Path_60438_2_" class="st4" d="M378.2,31.7h-2.92c-4.34-0.03-7.89,3.47-7.92,7.82c0,0.05,0,0.1,0,0.15v7.98"/>
	<path id="Path_60439_2_" class="st4" d="M378.47,31.7h2.92c4.34-0.03,7.89,3.47,7.92,7.82c0,0.05,0,0.1,0,0.15v7.98"/>
	<ellipse id="Ellipse_34_1_" class="st4" cx="377.94" cy="24.61" rx="7.08" ry="7.09"/>
</g>
<g>
	<rect x="345.84" y="57" class="st5" width="64.77" height="18.77"/>
	<text transform="matrix(1 0 0 1 357.061 64.3347)"><tspan x="0" y="0" class="st6 st7 st8">Benutzer </tspan><tspan x="-8.68" y="11" class="st6 st7 st8">Asien/Pazifik</tspan></text>
</g>
<g id="Group_11423_4_" transform="translate(0.25 0.25)">
	<path id="Path_60436_4_" class="st4" d="M659.3,19.29h-2.39c-3.54-0.02-6.44,2.84-6.46,6.39c0,0.04,0,0.08,0,0.12v5.94"/>
	<ellipse id="Ellipse_32_4_" class="st4" cx="659.25" cy="13.97" rx="5.31" ry="5.32"/>
	<path id="Path_60437_4_" class="st4" d="M680.61,19.29h2.39c3.54-0.02,6.44,2.84,6.46,6.39c0,0.04,0,0.08,0,0.12v5.94"/>
	<ellipse id="Ellipse_33_4_" class="st4" cx="680.65" cy="13.97" rx="5.31" ry="5.32"/>
	<path id="Path_60438_4_" class="st4" d="M670.18,31.7h-2.92c-4.34-0.03-7.89,3.47-7.92,7.82c0,0.05,0,0.1,0,0.15v7.98"/>
	<path id="Path_60439_4_" class="st4" d="M670.45,31.7h2.92c4.34-0.03,7.89,3.47,7.92,7.82c0,0.05,0,0.1,0,0.15v7.98"/>
	<ellipse id="Ellipse_34_4_" class="st4" cx="669.91" cy="24.61" rx="7.08" ry="7.09"/>
</g>
<g>
	<rect x="637.82" y="59" class="st5" width="64.77" height="8.03"/>
	<text transform="matrix(1 0 0 1 651.959 66.3328)" class="st6 st7 st8">Kunden</text>
</g>
<g id="Group_11423_3_" transform="translate(0.25 0.25)">
	<path id="Path_60436_3_" class="st4" d="M189.85,19.29h-2.39c-3.54-0.02-6.44,2.84-6.46,6.39c0,0.04,0,0.08,0,0.12v5.94"/>
	<ellipse id="Ellipse_32_3_" class="st4" cx="189.81" cy="13.97" rx="5.31" ry="5.32"/>
	<path id="Path_60437_3_" class="st4" d="M211.16,19.29h2.39c3.54-0.02,6.44,2.84,6.46,6.39c0,0.04,0,0.08,0,0.12v5.94"/>
	<ellipse id="Ellipse_33_3_" class="st4" cx="211.2" cy="13.97" rx="5.31" ry="5.32"/>
	<path id="Path_60438_3_" class="st4" d="M200.73,31.7h-2.92c-4.34-0.03-7.89,3.47-7.92,7.82c0,0.05,0,0.1,0,0.15v7.98"/>
	<path id="Path_60439_3_" class="st4" d="M201,31.7h2.92c4.34-0.03,7.89,3.47,7.92,7.82c0,0.05,0,0.1,0,0.15v7.98"/>
	<ellipse id="Ellipse_34_3_" class="st4" cx="200.47" cy="24.61" rx="7.08" ry="7.09"/>
</g>
<g>
	<rect x="177.37" y="57" class="st5" width="48.39" height="26.43"/>
	<text transform="matrix(1 0 0 1 180.4001 64.3347)"><tspan x="0" y="0" class="st6 st7 st8">Benutzer </tspan><tspan x="14.27" y="11" class="st6 st7 st8">EU</tspan></text>
</g>
<g>
	<g>
		<path class="st9" d="M301.73,127.85h-24.49c-3.44,0-6.26-2.82-6.26-6.26V97.1c0-3.44,2.82-6.26,6.26-6.26h24.49
			c3.44,0,6.26,2.82,6.26,6.26v24.49C307.99,125.03,305.17,127.85,301.73,127.85z"/>
	</g>
	<g id="Group_13232-2_19_" transform="translate(11.219 19.18)">
		<path id="Path_61042_19_" class="st10" d="M272.2,91.56c-0.61,0.69-1.5,1.07-2.42,1.03c-1.29,0.07-2.4-0.93-2.46-2.22
			s0.93-2.4,2.22-2.46c0.08,0,0.16,0,0.24,0c0.92-0.04,1.81,0.34,2.42,1.03v-1.59c-0.01-0.98-0.81-1.77-1.8-1.76
			c-0.06,0-0.13,0-0.19,0.01c-0.89-0.02-1.73,0.4-2.26,1.11l-0.28-0.28c0.61-0.8,1.58-1.25,2.58-1.19c1.39,0,2.42,0.72,2.42,2.11
			v5.08h-0.44v-0.87H272.2z M272.2,89.37c-0.56-0.7-1.41-1.09-2.3-1.07c-1.08-0.08-2.02,0.74-2.1,1.82c0,0.04,0,0.08,0,0.12
			c-0.01,1.07,0.86,1.95,1.93,1.95c0.06,0,0.11,0,0.17-0.01c0.9,0.03,1.75-0.37,2.3-1.08V89.37z"/>
		<path id="Path_61043_19_" class="st10" d="M275.02,95.09V85.4h0.44v1.19c0.58-0.83,1.53-1.33,2.54-1.34
			c1.91,0,3.14,1.47,3.14,3.65c0,2.22-1.23,3.69-3.14,3.69c-1.02-0.02-1.97-0.54-2.54-1.39v3.89L275.02,95.09z M277.99,85.64
			c-1.03,0.01-1.98,0.53-2.54,1.39v3.77c0.55,0.88,1.51,1.42,2.54,1.43c1.71,0,2.66-1.47,2.66-3.3
			C280.66,87.07,279.7,85.64,277.99,85.64z"/>
		<path id="Path_61044_19_" class="st10" d="M283.12,95.09V85.4h0.44v1.19c0.58-0.83,1.53-1.33,2.54-1.34
			c1.91,0,3.14,1.47,3.14,3.65c0,2.22-1.23,3.69-3.14,3.69c-1.02-0.02-1.97-0.54-2.54-1.39v3.89L283.12,95.09z M286.1,85.64
			c-1.03,0.01-1.98,0.53-2.54,1.39v3.77c0.55,0.88,1.51,1.42,2.54,1.43c1.71,0,2.66-1.47,2.66-3.3
			C288.76,87.07,287.81,85.64,286.1,85.64z"/>
	</g>
</g>
<g>
	<rect x="257.1" y="136.2" class="st5" width="64.77" height="8.03"/>
	<text transform="matrix(1 0 0 1 274.8484 143.532)" class="st6 st7 st8">App A</text>
</g>
<g>
	<g>
		<path class="st9" d="M682.44,127.85h-24.49c-3.44,0-6.26-2.82-6.26-6.26V97.1c0-3.44,2.82-6.26,6.26-6.26h24.49
			c3.44,0,6.26,2.82,6.26,6.26v24.49C688.7,125.03,685.89,127.85,682.44,127.85z"/>
	</g>
	<g id="Group_13232-2_1_" transform="translate(11.219 19.18)">
		<path id="Path_61042_1_" class="st10" d="M652.91,91.56c-0.61,0.69-1.5,1.07-2.42,1.03c-1.29,0.07-2.4-0.93-2.46-2.22
			c-0.07-1.29,0.93-2.4,2.22-2.46c0.08,0,0.16,0,0.24,0c0.92-0.04,1.81,0.34,2.42,1.03v-1.59c-0.01-0.98-0.81-1.77-1.8-1.76
			c-0.06,0-0.13,0-0.19,0.01c-0.89-0.02-1.73,0.4-2.26,1.11l-0.28-0.28c0.61-0.8,1.58-1.25,2.58-1.19c1.39,0,2.42,0.72,2.42,2.11
			v5.08h-0.44v-0.87H652.91z M652.91,89.37c-0.56-0.7-1.41-1.09-2.3-1.07c-1.08-0.08-2.02,0.74-2.1,1.82c0,0.04,0,0.08,0,0.12
			c-0.01,1.07,0.86,1.95,1.93,1.95c0.06,0,0.11,0,0.17-0.01c0.9,0.03,1.75-0.37,2.3-1.08V89.37z"/>
		<path id="Path_61043_1_" class="st10" d="M655.73,95.09V85.4h0.44v1.19c0.58-0.83,1.53-1.33,2.54-1.34c1.91,0,3.14,1.47,3.14,3.65
			c0,2.22-1.23,3.69-3.14,3.69c-1.02-0.02-1.97-0.54-2.54-1.39v3.89L655.73,95.09z M658.71,85.64c-1.03,0.01-1.98,0.53-2.54,1.39
			v3.77c0.55,0.88,1.51,1.42,2.54,1.43c1.71,0,2.66-1.47,2.66-3.3C661.37,87.07,660.42,85.64,658.71,85.64z"/>
		<path id="Path_61044_1_" class="st10" d="M663.83,95.09V85.4h0.44v1.19c0.58-0.83,1.53-1.33,2.54-1.34c1.91,0,3.14,1.47,3.14,3.65
			c0,2.22-1.23,3.69-3.14,3.69c-1.02-0.02-1.97-0.54-2.54-1.39v3.89L663.83,95.09z M666.81,85.64c-1.03,0.01-1.98,0.53-2.54,1.39
			v3.77c0.55,0.88,1.51,1.42,2.54,1.43c1.71,0,2.66-1.47,2.66-3.3C669.47,87.07,668.52,85.64,666.81,85.64z"/>
	</g>
</g>
<g>
	<rect x="637.82" y="136.2" class="st5" width="64.77" height="8.03"/>
	<text transform="matrix(1 0 0 1 655.7207 143.532)" class="st6 st7 st8">App B</text>
</g>
<rect x="149.92" y="532.1" class="st11" width="142.17" height="18"/>
<text transform="matrix(1 0 0 1 154.9583 544.1771)" class="st12 st13 st14">ÖFFENTLICHER CLOUD-ANBIETER A – EUROPA</text>
<line class="st15" x1="186.43" y1="289.1" x2="293.54" y2="289.1"/>
<rect x="481.44" y="251.1" class="st16" width="138.26" height="96"/>
<rect x="535.18" y="273.23" class="st5" width="28.13" height="11.09"/>
<text transform="matrix(1 0 0 1 536.1262 281.5624)" class="st17 st18">BIG-IP</text>
<circle class="st9" cx="548.29" cy="278.1" r="19.5"/>
<g>
	<path class="st19" d="M491.3,308.62c0-0.27,0.23-0.49,0.49-0.49c0.27,0,0.49,0.22,0.49,0.49s-0.22,0.49-0.49,0.49
		C491.53,309.11,491.3,308.89,491.3,308.62z M491.47,310.1h0.64v5.95h-0.64V310.1z"/>
	<path class="st19" d="M497.11,312.65h-1.81v3.4h-0.7v-8.22h3.07c1.42,0,2.5,0.9,2.5,2.4c0,1.49-1.06,2.32-2.28,2.37l2.38,3.45
		h-0.85L497.11,312.65z M497.61,308.47h-2.31v3.54h2.31c1.09,0,1.82-0.74,1.82-1.78C499.43,309.2,498.69,308.47,497.61,308.47z"/>
	<path class="st19" d="M505.14,315.18c-0.49,0.54-1.28,1.02-2.15,1.02c-1.22,0-1.87-0.57-1.87-1.91v-4.19h0.64v4.04
		c0,1.16,0.58,1.48,1.44,1.48c0.76,0,1.54-0.46,1.94-0.99v-4.54h0.64v5.95h-0.64V315.18z"/>
	<path class="st19" d="M507.4,307.83h0.64v8.22h-0.64V307.83z"/>
	<path class="st19" d="M512.18,309.95c1.81,0,2.81,1.44,2.81,3.16v0.17h-4.98c0.06,1.29,0.92,2.37,2.33,2.37
		c0.75,0,1.44-0.28,1.95-0.83l0.33,0.42c-0.59,0.62-1.34,0.96-2.33,0.96c-1.74,0-2.98-1.29-2.98-3.13
		C509.3,311.34,510.52,309.95,512.18,309.95z M510.01,312.77h4.33c-0.01-1.01-0.68-2.27-2.17-2.27
		C510.76,310.5,510.06,311.74,510.01,312.77z"/>
	<path class="st19" d="M516.12,314.78c0.38,0.48,1.08,0.88,1.92,0.88c1,0,1.59-0.49,1.59-1.18c0-0.76-0.81-0.99-1.66-1.21
		c-1-0.25-2.1-0.51-2.1-1.66c0-0.91,0.78-1.65,2.12-1.65c1.02,0,1.7,0.39,2.13,0.88l-0.36,0.46c-0.35-0.47-0.99-0.79-1.78-0.79
		c-0.92,0-1.49,0.46-1.49,1.07c0,0.68,0.76,0.86,1.59,1.07c1.02,0.26,2.17,0.54,2.17,1.81c0,0.96-0.74,1.75-2.23,1.75
		c-0.96,0-1.7-0.28-2.29-0.94L516.12,314.78z"/>
</g>
<g>
	<rect x="487.62" y="320.8" class="st5" width="40.65" height="11.78"/>
	<text transform="matrix(1 0 0 1 489.5041 324.7998)" class="st20 st21 st22">Skriptsprache</text>
</g>
<g>
	<rect x="575.52" y="320.8" class="st5" width="42.56" height="26.3"/>
	<text transform="matrix(1 0 0 1 578.7628 324.7998)"><tspan x="0" y="0" class="st20 st21 st22">Benutzerdef</tspan><tspan x="34.28" y="0" class="st20 st21 st22">-</tspan><tspan x="10.28" y="6" class="st20 st21 st22">nierte </tspan><tspan x="0.38" y="12" class="st20 st21 st22">Gesundheits</tspan><tspan x="33.89" y="12" class="st20 st21 st22">-</tspan><tspan x="8.76" y="18" class="st20 st21 st22">checks</tspan></text>
</g>
<g>
	<rect x="536.05" y="320.8" class="st5" width="33.61" height="21.05"/>
	<text transform="matrix(1 0 0 1 544.0135 324.7998)"><tspan x="0" y="0" class="st20 st21 st22">Node.</tspan><tspan x="15.89" y="0" class="st20 st21 st22">-</tspan><tspan x="-2.89" y="6" class="st20 st21 st22">js-Skript</tspan><tspan x="18.78" y="6" class="st20 st21 st22">-</tspan><tspan x="-1.77" y="12" class="st20 st21 st22">sprache</tspan></text>
</g>
<g>
	<g>
		<path class="st19" d="M532.44,308.62c0-0.27,0.23-0.49,0.49-0.49c0.27,0,0.49,0.22,0.49,0.49s-0.22,0.49-0.49,0.49
			C532.67,309.11,532.44,308.89,532.44,308.62z M532.61,310.1h0.64v5.95h-0.64V310.1z"/>
		<path class="st19" d="M538.25,312.65h-1.81v3.4h-0.7v-8.22h3.07c1.42,0,2.5,0.9,2.5,2.4c0,1.49-1.06,2.32-2.28,2.37l2.38,3.45
			h-0.85L538.25,312.65z M538.74,308.47h-2.31v3.54h2.31c1.09,0,1.82-0.74,1.82-1.78C540.57,309.2,539.83,308.47,538.74,308.47z"/>
		<path class="st19" d="M546.28,315.18c-0.49,0.54-1.28,1.02-2.15,1.02c-1.22,0-1.87-0.57-1.87-1.91v-4.19h0.64v4.04
			c0,1.16,0.58,1.48,1.44,1.48c0.76,0,1.54-0.46,1.94-0.99v-4.54h0.64v5.95h-0.64V315.18z"/>
		<path class="st19" d="M548.53,307.83h0.64v8.22h-0.64V307.83z"/>
		<path class="st19" d="M553.31,309.95c1.81,0,2.81,1.44,2.81,3.16v0.17h-4.98c0.06,1.29,0.92,2.37,2.33,2.37
			c0.75,0,1.44-0.28,1.95-0.83l0.33,0.42c-0.59,0.62-1.34,0.96-2.33,0.96c-1.74,0-2.98-1.29-2.98-3.13
			C550.44,311.34,551.66,309.95,553.31,309.95z M551.14,312.77h4.33c-0.01-1.01-0.68-2.27-2.17-2.27
			C551.89,310.5,551.19,311.74,551.14,312.77z"/>
		<path class="st19" d="M557.25,314.78c0.38,0.48,1.08,0.88,1.92,0.88c1,0,1.59-0.49,1.59-1.18c0-0.76-0.81-0.99-1.66-1.21
			c-1-0.25-2.1-0.51-2.1-1.66c0-0.91,0.78-1.65,2.12-1.65c1.02,0,1.7,0.39,2.13,0.88l-0.36,0.46c-0.35-0.47-0.99-0.79-1.78-0.79
			c-0.92,0-1.49,0.46-1.49,1.07c0,0.68,0.76,0.86,1.59,1.07c1.02,0.26,2.17,0.54,2.17,1.81c0,0.96-0.74,1.75-2.23,1.75
			c-0.96,0-1.7-0.28-2.29-0.94L557.25,314.78z"/>
	</g>
	<g>
		<rect x="563.3" y="308.76" class="st5" width="12.72" height="7.44"/>
		<text transform="matrix(1 0 0 1 563.3538 316.0945)" class="st6 st7 st8">LX</text>
	</g>
</g>
<rect x="48.17" y="251.1" class="st16" width="138.26" height="96"/>
<rect x="99.33" y="273.23" class="st5" width="28.55" height="11.09"/>
<text transform="matrix(1 0 0 1 100.4924 281.5624)" class="st17 st18">BIG-IP</text>
<circle class="st9" cx="115.02" cy="278.1" r="19.5"/>
<g>
	<path class="st19" d="M58.02,308.62c0-0.27,0.23-0.49,0.49-0.49c0.27,0,0.49,0.22,0.49,0.49s-0.22,0.49-0.49,0.49
		C58.26,309.11,58.02,308.89,58.02,308.62z M58.2,310.1h0.64v5.95H58.2V310.1z"/>
	<path class="st19" d="M63.84,312.65h-1.81v3.4h-0.7v-8.22h3.07c1.42,0,2.5,0.9,2.5,2.4c0,1.49-1.06,2.32-2.28,2.37l2.38,3.45h-0.85
		L63.84,312.65z M64.33,308.47h-2.31v3.54h2.31c1.09,0,1.82-0.74,1.82-1.78C66.15,309.2,65.41,308.47,64.33,308.47z"/>
	<path class="st19" d="M71.87,315.18c-0.49,0.54-1.28,1.02-2.15,1.02c-1.22,0-1.87-0.57-1.87-1.91v-4.19h0.64v4.04
		c0,1.16,0.58,1.48,1.44,1.48c0.76,0,1.54-0.46,1.94-0.99v-4.54h0.64v5.95h-0.64V315.18z"/>
	<path class="st19" d="M74.12,307.83h0.64v8.22h-0.64V307.83z"/>
	<path class="st19" d="M78.9,309.95c1.81,0,2.81,1.44,2.81,3.16v0.17h-4.98c0.06,1.29,0.92,2.37,2.33,2.37
		c0.75,0,1.44-0.28,1.95-0.83l0.33,0.42c-0.59,0.62-1.34,0.96-2.33,0.96c-1.74,0-2.98-1.29-2.98-3.13
		C76.03,311.34,77.25,309.95,78.9,309.95z M76.73,312.77h4.33c-0.01-1.01-0.68-2.27-2.17-2.27
		C77.48,310.5,76.78,311.74,76.73,312.77z"/>
	<path class="st19" d="M82.84,314.78c0.38,0.48,1.08,0.88,1.92,0.88c1,0,1.59-0.49,1.59-1.18c0-0.76-0.81-0.99-1.66-1.21
		c-1-0.25-2.1-0.51-2.1-1.66c0-0.91,0.78-1.65,2.12-1.65c1.02,0,1.7,0.39,2.13,0.88l-0.36,0.46c-0.35-0.47-0.99-0.79-1.78-0.79
		c-0.92,0-1.49,0.46-1.49,1.07c0,0.68,0.76,0.86,1.59,1.07c1.02,0.26,2.17,0.54,2.17,1.81c0,0.96-0.74,1.75-2.23,1.75
		c-0.96,0-1.7-0.28-2.29-0.94L82.84,314.78z"/>
</g>
<g>
	<rect x="53.35" y="320.8" class="st5" width="39.67" height="11.78"/>
	<text transform="matrix(1 0 0 1 54.7381 324.7998)" class="st20 st21 st22">Skriptsprache</text>
</g>
<g>
	<rect x="145.25" y="320.8" class="st5" width="41.19" height="33.18"/>
	<text transform="matrix(1 0 0 1 147.8005 324.7998)"><tspan x="0" y="0" class="st20 st21 st22">Benutzerdef</tspan><tspan x="34.28" y="0" class="st20 st21 st22">-</tspan><tspan x="10.28" y="6" class="st20 st21 st22">nierte </tspan><tspan x="0.38" y="12" class="st20 st21 st22">Gesundheits</tspan><tspan x="33.89" y="12" class="st20 st21 st22">-</tspan><tspan x="8.76" y="18" class="st20 st21 st22">checks</tspan></text>
</g>
<g>
	<rect x="96.78" y="320.8" class="st5" width="37.38" height="21.05"/>
	<text transform="matrix(1 0 0 1 108.2304 324.7998)"><tspan x="0" y="0" class="st20 st21 st22">Node </tspan><tspan x="-11.34" y="6" class="st20 st21 st22">JS-Skriptspra</tspan><tspan x="24.01" y="6" class="st20 st21 st22">-</tspan><tspan x="2.4" y="12" class="st20 st21 st22">che</tspan></text>
</g>
<g>
	<g>
		<path class="st19" d="M99.16,308.62c0-0.27,0.23-0.49,0.49-0.49c0.27,0,0.49,0.22,0.49,0.49s-0.22,0.49-0.49,0.49
			C99.39,309.11,99.16,308.89,99.16,308.62z M99.33,310.1h0.64v5.95h-0.64V310.1z"/>
		<path class="st19" d="M104.97,312.65h-1.81v3.4h-0.7v-8.22h3.07c1.42,0,2.5,0.9,2.5,2.4c0,1.49-1.06,2.32-2.28,2.37l2.38,3.45
			h-0.85L104.97,312.65z M105.46,308.47h-2.31v3.54h2.31c1.09,0,1.82-0.74,1.82-1.78C107.29,309.2,106.55,308.47,105.46,308.47z"/>
		<path class="st19" d="M113,315.18c-0.49,0.54-1.28,1.02-2.15,1.02c-1.22,0-1.87-0.57-1.87-1.91v-4.19h0.64v4.04
			c0,1.16,0.58,1.48,1.44,1.48c0.76,0,1.54-0.46,1.94-0.99v-4.54h0.64v5.95H113V315.18z"/>
		<path class="st19" d="M115.26,307.83h0.64v8.22h-0.64V307.83z"/>
		<path class="st19" d="M120.04,309.95c1.81,0,2.81,1.44,2.81,3.16v0.17h-4.98c0.06,1.29,0.92,2.37,2.33,2.37
			c0.75,0,1.44-0.28,1.95-0.83l0.33,0.42c-0.59,0.62-1.34,0.96-2.33,0.96c-1.74,0-2.98-1.29-2.98-3.13
			C117.16,311.34,118.38,309.95,120.04,309.95z M117.87,312.77h4.33c-0.01-1.01-0.68-2.27-2.17-2.27
			C118.62,310.5,117.91,311.74,117.87,312.77z"/>
		<path class="st19" d="M123.98,314.78c0.38,0.48,1.08,0.88,1.92,0.88c1,0,1.59-0.49,1.59-1.18c0-0.76-0.81-0.99-1.66-1.21
			c-1-0.25-2.1-0.51-2.1-1.66c0-0.91,0.78-1.65,2.12-1.65c1.02,0,1.7,0.39,2.13,0.88l-0.36,0.46c-0.35-0.47-0.99-0.79-1.78-0.79
			c-0.92,0-1.49,0.46-1.49,1.07c0,0.68,0.76,0.86,1.59,1.07c1.02,0.26,2.17,0.54,2.17,1.81c0,0.96-0.74,1.75-2.23,1.75
			c-0.96,0-1.7-0.28-2.29-0.94L123.98,314.78z"/>
	</g>
	<g>
		<rect x="130.03" y="308.76" class="st5" width="12.72" height="7.44"/>
		<text transform="matrix(1 0 0 1 130.0776 316.0945)" class="st6 st7 st8">LX</text>
	</g>
</g>
<rect x="624.75" y="251.1" class="st16" width="90.91" height="96"/>
<g>
	<g>
		<rect x="628.58" y="319.8" class="st5" width="42.48" height="27.3"/>
		<text transform="matrix(1 0 0 1 632.2177 323.7998)"><tspan x="0" y="0" class="st20 st21 st22">Argumentge</tspan><tspan x="33.41" y="0" class="st20 st21 st22">-</tspan><tspan x="8.48" y="6" class="st20 st21 st22">stützte </tspan><tspan x="-2.89" y="12" class="st20 st21 st22">Datenverkehrs</tspan><tspan x="36.3" y="12" class="st20 st21 st22">-</tspan><tspan x="4.03" y="18" class="st20 st21 st22">steuerung</tspan></text>
	</g>
</g>
<g>
	<rect x="655.98" y="374.08" class="st16" width="116.55" height="114.08"/>
</g>
<line class="st0" x1="669.9" y1="152.18" x2="669.9" y2="250.6"/>
<rect x="659.88" y="363.25" class="st11" width="108.74" height="18"/>
<text transform="matrix(1 0 0 1 676.4708 375.3267)" class="st12 st13 st14">NGINX-API-MANAGEMENT</text>
<g>
	<g>
		<polyline class="st0" points="836.57,507.48 836.57,517.22 719.61,517.22 719.61,492.77 		"/>
		<g>
			<polygon class="st3" points="723.7,496.08 722.97,496.76 719.61,493.15 716.25,496.76 715.52,496.08 719.61,491.68 			"/>
		</g>
	</g>
</g>
<g>
	<polyline class="st0" points="715.66,299.1 834.87,299.1 834.87,299.1 834.87,320.04 	"/>
</g>
<rect x="578.74" y="532.1" class="st11" width="182.92" height="18"/>
<text transform="matrix(1 0 0 1 594.2517 544.1771)" class="st12 st13 st14">ÖFFENTLICHER CLOUD-ANBIETER B – NORDAMERIKA</text>
<line class="st0" x1="289.49" y1="76.8" x2="289.49" y2="90.05"/>
<polyline class="st0" points="378.19,76.8 378.19,109.08 308.64,109.08 "/>
<polyline class="st0" points="200.98,76.8 200.98,109.08 270.14,109.08 "/>
<line class="st0" x1="289.27" y1="152.18" x2="289.27" y2="162.9"/>
<polyline class="st0" points="120.97,258.6 120.97,210.72 289.68,210.72 289.68,201.9 "/>
<polyline class="st0" points="269.95,182.4 110.83,182.4 110.83,259.25 "/>
<polyline class="st0" points="308.72,182.4 547.75,182.4 547.75,259.25 "/>
<rect x="274.41" y="173.34" class="st5" width="30.15" height="20.31"/>
<text transform="matrix(1 0 0 1 276.3754 181.6654)"><tspan x="0" y="0" class="st17 st18">BIG-IP </tspan><tspan x="3.32" y="9.22" class="st17 st18">DNS</tspan></text>
<circle class="st9" cx="289.49" cy="182.4" r="19.5"/>
<line class="st0" x1="550.58" y1="347.1" x2="550.58" y2="391.58"/>
<g>
	<rect x="555" y="355.82" class="st5" width="66.24" height="27.14"/>
	<text transform="matrix(1 0 0 1 555.0032 359.8253)"><tspan x="0" y="0" class="st20 st23 st22">Individueller </tspan><tspan x="0" y="6" class="st20 st23 st22">Service-Check für </tspan><tspan x="0" y="12" class="st20 st23 st22">Echtzeit-Anwendungs</tspan><tspan x="58.22" y="12" class="st20 st23 st22">-</tspan><tspan x="0" y="18" class="st20 st23 st22">antwort</tspan></text>
</g>
<g>
	<rect x="331.46" y="337.53" class="st5" width="68.87" height="27.14"/>
	<text transform="matrix(1 0 0 1 331.4568 341.5323)"><tspan x="0" y="0" class="st20 st23 st22">Individueller </tspan><tspan x="0" y="6" class="st20 st23 st22">Service-Check für </tspan><tspan x="0" y="12" class="st20 st23 st22">Echtzeit-Anwendungsant</tspan><tspan x="67.06" y="12" class="st20 st23 st22">-</tspan><tspan x="0" y="18" class="st20 st23 st22">wort</tspan></text>
</g>
<g>
	<polygon class="st4" points="707.48,294.6 707.48,275.1 690.61,265.35 673.75,275.1 673.75,294.6 690.61,304.35 	"/>
	<polyline class="st4" points="678.81,290.66 678.81,279.19 689.15,290.66 689.15,279.19 	"/>
	<line class="st4" x1="698.63" y1="289.27" x2="698.63" y2="280.59"/>
	<line class="st4" x1="694.29" y1="284.93" x2="702.97" y2="284.93"/>
</g>
<g>
	<polygon class="st4" points="666.68,294.6 666.68,275.1 649.82,265.35 632.96,275.1 632.96,294.6 649.82,304.35 	"/>
	<polyline class="st4" points="638.02,290.66 638.02,279.19 648.36,290.66 648.36,279.19 	"/>
	<line class="st4" x1="657.84" y1="289.27" x2="657.84" y2="280.59"/>
	<line class="st4" x1="653.5" y1="284.93" x2="662.18" y2="284.93"/>
</g>
<rect x="217.5" y="216.79" class="st5" width="137.72" height="11.21"/>
<text transform="matrix(1 0 0 1 236.4081 222.6171)" class="st20 st23 st24">GeoIP-Rechenzentrumauswahl</text>
<rect x="125.28" y="221.36" class="st5" width="19.62" height="8.41"/>
<text transform="matrix(1 0 0 1 125.6118 227.1897)" class="st20 st23 st24">APAC</text>
<rect x="330.18" y="374.72" class="st5" width="19.62" height="8.41"/>
<text transform="matrix(1 0 0 1 332.0449 379.7208)" class="st20 st23 st22">APAC</text>
<rect x="551.34" y="190.29" class="st5" width="10.13" height="8.41"/>
<text transform="matrix(1 0 0 1 551.4249 196.1216)" class="st20 st23 st24">NA</text>
<rect x="113.71" y="190.19" class="st5" width="9.53" height="8.41"/>
<text transform="matrix(1 0 0 1 113.8562 196.0226)" class="st20 st23 st24">EU</text>
<rect x="119.34" y="374.15" class="st5" width="9.53" height="8.41"/>
<text transform="matrix(1 0 0 1 120.2074 379.1437)" class="st20 st23 st22">EU</text>
<line class="st0" x1="326.62" y1="323.31" x2="326.62" y2="392.51"/>
<polyline class="st0" points="319.54,323.31 319.54,363.09 115.21,363.09 115.21,391.42 "/>
<rect x="294.54" y="267.47" class="st16" width="77.57" height="55.63"/>
<g>
	<path class="st19" d="M317.67,276.97c0-0.27,0.23-0.49,0.49-0.49c0.27,0,0.49,0.22,0.49,0.49s-0.22,0.49-0.49,0.49
		C317.91,277.47,317.67,277.24,317.67,276.97z M317.85,278.45h0.64v5.95h-0.64V278.45z"/>
	<path class="st19" d="M323.49,281h-1.81v3.4h-0.7v-8.22h3.07c1.42,0,2.5,0.9,2.5,2.4c0,1.49-1.06,2.32-2.28,2.37l2.38,3.45h-0.85
		L323.49,281z M323.98,276.82h-2.31v3.54h2.31c1.09,0,1.82-0.74,1.82-1.78C325.8,277.55,325.06,276.82,323.98,276.82z"/>
	<path class="st19" d="M331.52,283.53c-0.49,0.54-1.28,1.02-2.15,1.02c-1.22,0-1.87-0.57-1.87-1.91v-4.19h0.64v4.04
		c0,1.16,0.58,1.48,1.44,1.48c0.76,0,1.54-0.46,1.94-0.99v-4.54h0.64v5.95h-0.64V283.53z"/>
	<path class="st19" d="M333.77,276.18h0.64v8.22h-0.64V276.18z"/>
	<path class="st19" d="M338.55,278.3c1.81,0,2.81,1.44,2.81,3.16v0.17h-4.98c0.06,1.29,0.92,2.37,2.33,2.37
		c0.75,0,1.44-0.28,1.95-0.83l0.33,0.42c-0.59,0.62-1.34,0.96-2.33,0.96c-1.74,0-2.98-1.29-2.98-3.13
		C335.68,279.7,336.9,278.3,338.55,278.3z M336.38,281.13h4.33c-0.01-1.01-0.68-2.27-2.17-2.27
		C337.13,278.86,336.43,280.09,336.38,281.13z"/>
	<path class="st19" d="M342.49,283.14c0.38,0.48,1.08,0.88,1.92,0.88c1,0,1.59-0.49,1.59-1.18c0-0.76-0.81-0.99-1.66-1.21
		c-1-0.25-2.1-0.51-2.1-1.66c0-0.91,0.78-1.65,2.12-1.65c1.02,0,1.7,0.39,2.13,0.88l-0.36,0.46c-0.35-0.47-0.99-0.79-1.78-0.79
		c-0.92,0-1.49,0.46-1.49,1.07c0,0.68,0.76,0.86,1.59,1.07c1.02,0.26,2.17,0.54,2.17,1.81c0,0.96-0.74,1.75-2.23,1.75
		c-0.96,0-1.7-0.28-2.29-0.94L342.49,283.14z"/>
</g>
<g>
	<rect x="303.68" y="289.15" class="st5" width="64.93" height="50.4"/>
	<text transform="matrix(1 0 0 1 303.6758 293.1534)"><tspan x="0" y="0" class="st20 st23 st22">Individueller Verkehr für </tspan><tspan x="0" y="6" class="st20 st23 st22">europäische Benutzer </tspan><tspan x="0" y="12" class="st20 st23 st22">zum EU-konformen </tspan><tspan x="0" y="18" class="st20 st23 st22">Anwendungspool</tspan></text>
</g>
<rect x="224.62" y="400.89" class="st16" width="199.05" height="98.66"/>
<rect x="17.77" y="400.89" class="st16" width="199.05" height="98.85"/>
<rect x="85.11" y="391.89" class="st11" width="64.37" height="18"/>
<text transform="matrix(1 0 0 1 97.0044 403.9737)" class="st12 st13 st14">POOL A – V1.5</text>
<g>
	<g>
		<path class="st9" d="M74.88,438.09h-41.8c-0.88,0-1.6,0.72-1.6,1.6v4.77c0,0.88,0.72,1.6,1.6,1.6h41.8c0.88,0,1.6-0.72,1.6-1.6
			v-4.77C76.48,438.81,75.76,438.09,74.88,438.09z"/>
		<line class="st4" x1="71.66" y1="439.69" x2="71.66" y2="444.47"/>
		<line class="st4" x1="66.83" y1="439.69" x2="66.83" y2="444.47"/>
		<line class="st4" x1="62.01" y1="439.69" x2="62.01" y2="444.47"/>
		<path class="st25" d="M35.49,441.28c0.44,0,0.8,0.36,0.8,0.8c0,0.44-0.36,0.8-0.8,0.8c-0.44,0-0.8-0.36-0.8-0.8
			C34.69,441.64,35.05,441.28,35.49,441.28 M35.49,440.2c-1.04,0-1.89,0.84-1.89,1.88c0,1.04,0.85,1.88,1.89,1.88
			c1.04,0,1.89-0.84,1.89-1.88C37.38,441.04,36.54,440.2,35.49,440.2"/>
	</g>
	<g>
		<path class="st9" d="M74.88,427.32h-41.8c-0.88,0-1.6,0.72-1.6,1.6v4.77c0,0.88,0.72,1.6,1.6,1.6h41.8c0.88,0,1.6-0.72,1.6-1.6
			v-4.77C76.48,428.04,75.76,427.32,74.88,427.32z"/>
		<line class="st4" x1="71.66" y1="428.92" x2="71.66" y2="433.7"/>
		<line class="st4" x1="66.83" y1="428.92" x2="66.83" y2="433.7"/>
		<line class="st4" x1="62.01" y1="428.92" x2="62.01" y2="433.7"/>
		<path class="st25" d="M35.49,430.51c0.44,0,0.8,0.36,0.8,0.8c0,0.44-0.36,0.8-0.8,0.8c-0.44,0-0.8-0.36-0.8-0.8
			C34.69,430.87,35.05,430.51,35.49,430.51 M35.49,429.43c-1.04,0-1.89,0.84-1.89,1.88c0,1.04,0.85,1.88,1.89,1.88
			c1.04,0,1.89-0.84,1.89-1.88C37.38,430.27,36.54,429.43,35.49,429.43"/>
	</g>
	<g>
		<path class="st9" d="M74.88,416.55h-41.8c-0.88,0-1.6,0.72-1.6,1.6v4.77c0,0.88,0.72,1.6,1.6,1.6h41.8c0.88,0,1.6-0.72,1.6-1.6
			v-4.77C76.48,417.27,75.76,416.55,74.88,416.55z"/>
		<line class="st4" x1="71.66" y1="418.14" x2="71.66" y2="422.93"/>
		<line class="st4" x1="66.83" y1="418.14" x2="66.83" y2="422.93"/>
		<line class="st4" x1="62.01" y1="418.14" x2="62.01" y2="422.93"/>
		<path class="st25" d="M35.49,419.74c0.44,0,0.8,0.36,0.8,0.8c0,0.44-0.36,0.8-0.8,0.8c-0.44,0-0.8-0.36-0.8-0.8
			C34.69,420.1,35.05,419.74,35.49,419.74 M35.49,418.65c-1.04,0-1.89,0.84-1.89,1.88c0,1.04,0.85,1.88,1.89,1.88
			c1.04,0,1.89-0.84,1.89-1.88C37.38,419.5,36.54,418.65,35.49,418.65"/>
	</g>
</g>
<g>
	<rect x="27.32" y="454.52" class="st5" width="53.32" height="18.64"/>
	<text transform="matrix(1 0 0 1 27.3962 461.8567)"><tspan x="0" y="0" class="st6 st7 st8">App-Server</tspan><tspan x="10.7" y="11" class="st6 st7 st8">(10 ms)</tspan></text>
</g>
<g>
	<g>
		<path class="st9" d="M138.2,447.72H96.4c-0.88,0-1.6,0.72-1.6,1.6v4.77c0,0.88,0.72,1.6,1.6,1.6h41.8c0.88,0,1.6-0.72,1.6-1.6
			v-4.77C139.8,448.44,139.08,447.72,138.2,447.72z"/>
		<line class="st4" x1="134.98" y1="449.32" x2="134.98" y2="454.1"/>
		<line class="st4" x1="130.16" y1="449.32" x2="130.16" y2="454.1"/>
		<line class="st4" x1="125.34" y1="449.32" x2="125.34" y2="454.1"/>
		<path class="st25" d="M98.82,450.91c0.44,0,0.8,0.36,0.8,0.8c0,0.44-0.36,0.8-0.8,0.8c-0.44,0-0.8-0.36-0.8-0.8
			C98.01,451.27,98.37,450.91,98.82,450.91 M98.82,449.83c-1.04,0-1.89,0.84-1.89,1.88c0,1.04,0.85,1.88,1.89,1.88
			c1.04,0,1.89-0.84,1.89-1.88C100.71,450.67,99.86,449.83,98.82,449.83"/>
	</g>
	<g>
		<path class="st9" d="M138.2,436.95H96.4c-0.88,0-1.6,0.72-1.6,1.6v4.77c0,0.88,0.72,1.6,1.6,1.6h41.8c0.88,0,1.6-0.72,1.6-1.6
			v-4.77C139.8,437.67,139.08,436.95,138.2,436.95z"/>
		<line class="st4" x1="134.98" y1="438.54" x2="134.98" y2="443.33"/>
		<line class="st4" x1="130.16" y1="438.54" x2="130.16" y2="443.33"/>
		<line class="st4" x1="125.34" y1="438.54" x2="125.34" y2="443.33"/>
		<path class="st25" d="M98.82,440.14c0.44,0,0.8,0.36,0.8,0.8c0,0.44-0.36,0.8-0.8,0.8c-0.44,0-0.8-0.36-0.8-0.8
			C98.01,440.5,98.37,440.14,98.82,440.14 M98.82,439.05c-1.04,0-1.89,0.84-1.89,1.88c0,1.04,0.85,1.88,1.89,1.88
			c1.04,0,1.89-0.84,1.89-1.88C100.71,439.9,99.86,439.05,98.82,439.05"/>
	</g>
	<g>
		<path class="st9" d="M138.2,426.18H96.4c-0.88,0-1.6,0.72-1.6,1.6v4.77c0,0.88,0.72,1.6,1.6,1.6h41.8c0.88,0,1.6-0.72,1.6-1.6
			v-4.77C139.8,426.9,139.08,426.18,138.2,426.18z"/>
		<line class="st4" x1="134.98" y1="427.77" x2="134.98" y2="432.56"/>
		<line class="st4" x1="130.16" y1="427.77" x2="130.16" y2="432.56"/>
		<line class="st4" x1="125.34" y1="427.77" x2="125.34" y2="432.56"/>
		<path class="st25" d="M98.82,429.37c0.44,0,0.8,0.36,0.8,0.8c0,0.44-0.36,0.8-0.8,0.8c-0.44,0-0.8-0.36-0.8-0.8
			C98.01,429.72,98.37,429.37,98.82,429.37 M98.82,428.28c-1.04,0-1.89,0.84-1.89,1.88c0,1.04,0.85,1.88,1.89,1.88
			c1.04,0,1.89-0.84,1.89-1.88C100.71,429.13,99.86,428.28,98.82,428.28"/>
	</g>
</g>
<g>
	<rect x="90.64" y="464.15" class="st5" width="53.32" height="18.64"/>
	<text transform="matrix(1 0 0 1 90.7185 471.4849)"><tspan x="0" y="0" class="st6 st7 st8">App-Server</tspan><tspan x="9.33" y="11" class="st6 st7 st8">(20 ms)</tspan></text>
</g>
<g>
	<g>
		<path class="st9" d="M201.52,456.72h-41.8c-0.88,0-1.6,0.72-1.6,1.6v4.77c0,0.88,0.72,1.6,1.6,1.6h41.8c0.88,0,1.6-0.72,1.6-1.6
			v-4.77C203.12,457.44,202.41,456.72,201.52,456.72z"/>
		<line class="st4" x1="198.3" y1="458.32" x2="198.3" y2="463.1"/>
		<line class="st4" x1="193.48" y1="458.32" x2="193.48" y2="463.1"/>
		<line class="st4" x1="188.66" y1="458.32" x2="188.66" y2="463.1"/>
		<path class="st25" d="M162.14,459.91c0.44,0,0.8,0.36,0.8,0.8c0,0.44-0.36,0.8-0.8,0.8c-0.44,0-0.8-0.36-0.8-0.8
			C161.34,460.27,161.7,459.91,162.14,459.91 M162.14,458.83c-1.04,0-1.89,0.84-1.89,1.88c0,1.04,0.85,1.88,1.89,1.88
			c1.04,0,1.89-0.84,1.89-1.88C164.03,459.67,163.18,458.83,162.14,458.83"/>
	</g>
	<g>
		<path class="st9" d="M201.52,445.95h-41.8c-0.88,0-1.6,0.72-1.6,1.6v4.77c0,0.88,0.72,1.6,1.6,1.6h41.8c0.88,0,1.6-0.72,1.6-1.6
			v-4.77C203.12,446.67,202.41,445.95,201.52,445.95z"/>
		<line class="st4" x1="198.3" y1="447.54" x2="198.3" y2="452.33"/>
		<line class="st4" x1="193.48" y1="447.54" x2="193.48" y2="452.33"/>
		<line class="st4" x1="188.66" y1="447.54" x2="188.66" y2="452.33"/>
		<path class="st25" d="M162.14,449.14c0.44,0,0.8,0.36,0.8,0.8c0,0.44-0.36,0.8-0.8,0.8c-0.44,0-0.8-0.36-0.8-0.8
			C161.34,449.5,161.7,449.14,162.14,449.14 M162.14,448.05c-1.04,0-1.89,0.84-1.89,1.88c0,1.04,0.85,1.88,1.89,1.88
			c1.04,0,1.89-0.84,1.89-1.88C164.03,448.9,163.18,448.05,162.14,448.05"/>
	</g>
	<g>
		<path class="st9" d="M201.52,435.18h-41.8c-0.88,0-1.6,0.72-1.6,1.6v4.77c0,0.88,0.72,1.6,1.6,1.6h41.8c0.88,0,1.6-0.72,1.6-1.6
			v-4.77C203.12,435.9,202.41,435.18,201.52,435.18z"/>
		<line class="st4" x1="198.3" y1="436.77" x2="198.3" y2="441.56"/>
		<line class="st4" x1="193.48" y1="436.77" x2="193.48" y2="441.56"/>
		<line class="st4" x1="188.66" y1="436.77" x2="188.66" y2="441.56"/>
		<path class="st25" d="M162.14,438.37c0.44,0,0.8,0.36,0.8,0.8c0,0.44-0.36,0.8-0.8,0.8c-0.44,0-0.8-0.36-0.8-0.8
			C161.34,438.72,161.7,438.37,162.14,438.37 M162.14,437.28c-1.04,0-1.89,0.84-1.89,1.88c0,1.04,0.85,1.88,1.89,1.88
			c1.04,0,1.89-0.84,1.89-1.88C164.03,438.13,163.18,437.28,162.14,437.28"/>
	</g>
</g>
<g>
	<rect x="153.96" y="473.15" class="st5" width="53.32" height="18.64"/>
	<text transform="matrix(1 0 0 1 154.042 480.4846)"><tspan x="0" y="0" class="st6 st7 st8">App-Server</tspan><tspan x="9.45" y="11" class="st6 st7 st8">(25 ms)</tspan></text>
</g>
<rect x="224.62" y="400.89" class="st16" width="199.05" height="98.85"/>
<g>
	<g>
		<path class="st9" d="M281.72,438.09h-41.8c-0.88,0-1.6,0.72-1.6,1.6v4.77c0,0.88,0.72,1.6,1.6,1.6h41.8c0.88,0,1.6-0.72,1.6-1.6
			v-4.77C283.33,438.81,282.61,438.09,281.72,438.09z"/>
		<line class="st4" x1="278.5" y1="439.69" x2="278.5" y2="444.47"/>
		<line class="st4" x1="273.68" y1="439.69" x2="273.68" y2="444.47"/>
		<line class="st4" x1="268.86" y1="439.69" x2="268.86" y2="444.47"/>
		<path class="st25" d="M242.34,441.28c0.44,0,0.8,0.36,0.8,0.8c0,0.44-0.36,0.8-0.8,0.8c-0.44,0-0.8-0.36-0.8-0.8
			C241.54,441.64,241.9,441.28,242.34,441.28 M242.34,440.2c-1.04,0-1.89,0.84-1.89,1.88c0,1.04,0.85,1.88,1.89,1.88
			c1.04,0,1.89-0.84,1.89-1.88C244.23,441.04,243.38,440.2,242.34,440.2"/>
	</g>
	<g>
		<path class="st9" d="M281.72,427.32h-41.8c-0.88,0-1.6,0.72-1.6,1.6v4.77c0,0.88,0.72,1.6,1.6,1.6h41.8c0.88,0,1.6-0.72,1.6-1.6
			v-4.77C283.33,428.04,282.61,427.32,281.72,427.32z"/>
		<line class="st4" x1="278.5" y1="428.92" x2="278.5" y2="433.7"/>
		<line class="st4" x1="273.68" y1="428.92" x2="273.68" y2="433.7"/>
		<line class="st4" x1="268.86" y1="428.92" x2="268.86" y2="433.7"/>
		<path class="st25" d="M242.34,430.51c0.44,0,0.8,0.36,0.8,0.8c0,0.44-0.36,0.8-0.8,0.8c-0.44,0-0.8-0.36-0.8-0.8
			C241.54,430.87,241.9,430.51,242.34,430.51 M242.34,429.43c-1.04,0-1.89,0.84-1.89,1.88c0,1.04,0.85,1.88,1.89,1.88
			c1.04,0,1.89-0.84,1.89-1.88C244.23,430.27,243.38,429.43,242.34,429.43"/>
	</g>
	<g>
		<path class="st9" d="M281.72,416.55h-41.8c-0.88,0-1.6,0.72-1.6,1.6v4.77c0,0.88,0.72,1.6,1.6,1.6h41.8c0.88,0,1.6-0.72,1.6-1.6
			v-4.77C283.33,417.27,282.61,416.55,281.72,416.55z"/>
		<line class="st4" x1="278.5" y1="418.14" x2="278.5" y2="422.93"/>
		<line class="st4" x1="273.68" y1="418.14" x2="273.68" y2="422.93"/>
		<line class="st4" x1="268.86" y1="418.14" x2="268.86" y2="422.93"/>
		<path class="st25" d="M242.34,419.74c0.44,0,0.8,0.36,0.8,0.8c0,0.44-0.36,0.8-0.8,0.8c-0.44,0-0.8-0.36-0.8-0.8
			C241.54,420.1,241.9,419.74,242.34,419.74 M242.34,418.65c-1.04,0-1.89,0.84-1.89,1.88c0,1.04,0.85,1.88,1.89,1.88
			c1.04,0,1.89-0.84,1.89-1.88C244.23,419.5,243.38,418.65,242.34,418.65"/>
	</g>
</g>
<g>
	<rect x="234.16" y="454.52" class="st5" width="53.32" height="18.64"/>
	<text transform="matrix(1 0 0 1 234.2441 461.8567)"><tspan x="0" y="0" class="st6 st7 st8">App-Server</tspan><tspan x="10.7" y="11" class="st6 st7 st8">(10 ms)</tspan></text>
</g>
<g>
	<g>
		<path class="st9" d="M345.05,456.72h-41.8c-0.88,0-1.6,0.72-1.6,1.6v4.77c0,0.88,0.72,1.6,1.6,1.6h41.8c0.88,0,1.6-0.72,1.6-1.6
			v-4.77C346.65,457.44,345.93,456.72,345.05,456.72z"/>
		<line class="st4" x1="341.83" y1="458.32" x2="341.83" y2="463.1"/>
		<line class="st4" x1="337.01" y1="458.32" x2="337.01" y2="463.1"/>
		<line class="st4" x1="332.18" y1="458.32" x2="332.18" y2="463.1"/>
		<path class="st25" d="M305.67,459.91c0.44,0,0.8,0.36,0.8,0.8c0,0.44-0.36,0.8-0.8,0.8c-0.44,0-0.8-0.36-0.8-0.8
			C304.86,460.27,305.22,459.91,305.67,459.91 M305.67,458.83c-1.04,0-1.89,0.84-1.89,1.88c0,1.04,0.85,1.88,1.89,1.88
			c1.04,0,1.89-0.84,1.89-1.88C307.55,459.67,306.71,458.83,305.67,458.83"/>
	</g>
	<g>
		<path class="st9" d="M345.05,445.95h-41.8c-0.88,0-1.6,0.72-1.6,1.6v4.77c0,0.88,0.72,1.6,1.6,1.6h41.8c0.88,0,1.6-0.72,1.6-1.6
			v-4.77C346.65,446.67,345.93,445.95,345.05,445.95z"/>
		<line class="st4" x1="341.83" y1="447.54" x2="341.83" y2="452.33"/>
		<line class="st4" x1="337.01" y1="447.54" x2="337.01" y2="452.33"/>
		<line class="st4" x1="332.18" y1="447.54" x2="332.18" y2="452.33"/>
		<path class="st25" d="M305.67,449.14c0.44,0,0.8,0.36,0.8,0.8c0,0.44-0.36,0.8-0.8,0.8c-0.44,0-0.8-0.36-0.8-0.8
			C304.86,449.5,305.22,449.14,305.67,449.14 M305.67,448.05c-1.04,0-1.89,0.84-1.89,1.88c0,1.04,0.85,1.88,1.89,1.88
			c1.04,0,1.89-0.84,1.89-1.88C307.55,448.9,306.71,448.05,305.67,448.05"/>
	</g>
	<g>
		<path class="st9" d="M345.05,435.18h-41.8c-0.88,0-1.6,0.72-1.6,1.6v4.77c0,0.88,0.72,1.6,1.6,1.6h41.8c0.88,0,1.6-0.72,1.6-1.6
			v-4.77C346.65,435.9,345.93,435.18,345.05,435.18z"/>
		<line class="st4" x1="341.83" y1="436.77" x2="341.83" y2="441.56"/>
		<line class="st4" x1="337.01" y1="436.77" x2="337.01" y2="441.56"/>
		<line class="st4" x1="332.18" y1="436.77" x2="332.18" y2="441.56"/>
		<path class="st25" d="M305.67,438.37c0.44,0,0.8,0.36,0.8,0.8c0,0.44-0.36,0.8-0.8,0.8c-0.44,0-0.8-0.36-0.8-0.8
			C304.86,438.72,305.22,438.37,305.67,438.37 M305.67,437.28c-1.04,0-1.89,0.84-1.89,1.88c0,1.04,0.85,1.88,1.89,1.88
			c1.04,0,1.89-0.84,1.89-1.88C307.55,438.13,306.71,437.28,305.67,437.28"/>
	</g>
</g>
<g>
	<rect x="297.49" y="473.15" class="st5" width="53.32" height="18.64"/>
	<text transform="matrix(1 0 0 1 297.5676 480.4839)"><tspan x="0" y="0" class="st6 st7 st8">App-Server</tspan><tspan x="9.45" y="11" class="st6 st7 st8">(25 ms)</tspan></text>
</g>
<g>
	<g>
		<path class="st9" d="M408.37,456.72h-41.8c-0.88,0-1.6,0.72-1.6,1.6v4.77c0,0.88,0.72,1.6,1.6,1.6h41.8c0.88,0,1.6-0.72,1.6-1.6
			v-4.77C409.97,457.44,409.25,456.72,408.37,456.72z"/>
		<line class="st4" x1="405.15" y1="458.32" x2="405.15" y2="463.1"/>
		<line class="st4" x1="400.33" y1="458.32" x2="400.33" y2="463.1"/>
		<line class="st4" x1="395.51" y1="458.32" x2="395.51" y2="463.1"/>
		<path class="st25" d="M368.99,459.91c0.44,0,0.8,0.36,0.8,0.8c0,0.44-0.36,0.8-0.8,0.8c-0.44,0-0.8-0.36-0.8-0.8
			C368.19,460.27,368.55,459.91,368.99,459.91 M368.99,458.83c-1.04,0-1.89,0.84-1.89,1.88c0,1.04,0.85,1.88,1.89,1.88
			c1.04,0,1.89-0.84,1.89-1.88C370.88,459.67,370.03,458.83,368.99,458.83"/>
	</g>
	<g>
		<path class="st9" d="M408.37,445.95h-41.8c-0.88,0-1.6,0.72-1.6,1.6v4.77c0,0.88,0.72,1.6,1.6,1.6h41.8c0.88,0,1.6-0.72,1.6-1.6
			v-4.77C409.97,446.67,409.25,445.95,408.37,445.95z"/>
		<line class="st4" x1="405.15" y1="447.54" x2="405.15" y2="452.33"/>
		<line class="st4" x1="400.33" y1="447.54" x2="400.33" y2="452.33"/>
		<line class="st4" x1="395.51" y1="447.54" x2="395.51" y2="452.33"/>
		<path class="st25" d="M368.99,449.14c0.44,0,0.8,0.36,0.8,0.8c0,0.44-0.36,0.8-0.8,0.8c-0.44,0-0.8-0.36-0.8-0.8
			C368.19,449.5,368.55,449.14,368.99,449.14 M368.99,448.05c-1.04,0-1.89,0.84-1.89,1.88c0,1.04,0.85,1.88,1.89,1.88
			c1.04,0,1.89-0.84,1.89-1.88C370.88,448.9,370.03,448.05,368.99,448.05"/>
	</g>
	<g>
		<path class="st9" d="M408.37,435.18h-41.8c-0.88,0-1.6,0.72-1.6,1.6v4.77c0,0.88,0.72,1.6,1.6,1.6h41.8c0.88,0,1.6-0.72,1.6-1.6
			v-4.77C409.97,435.9,409.25,435.18,408.37,435.18z"/>
		<line class="st4" x1="405.15" y1="436.77" x2="405.15" y2="441.56"/>
		<line class="st4" x1="400.33" y1="436.77" x2="400.33" y2="441.56"/>
		<line class="st4" x1="395.51" y1="436.77" x2="395.51" y2="441.56"/>
		<path class="st25" d="M368.99,438.37c0.44,0,0.8,0.36,0.8,0.8c0,0.44-0.36,0.8-0.8,0.8c-0.44,0-0.8-0.36-0.8-0.8
			C368.19,438.72,368.55,438.37,368.99,438.37 M368.99,437.28c-1.04,0-1.89,0.84-1.89,1.88c0,1.04,0.85,1.88,1.89,1.88
			c1.04,0,1.89-0.84,1.89-1.88C370.88,438.13,370.03,437.28,368.99,437.28"/>
	</g>
</g>
<g>
	<rect x="360.81" y="473.15" class="st5" width="53.32" height="18.64"/>
	<text transform="matrix(1 0 0 1 360.8901 480.4846)"><tspan x="0" y="0" class="st6 st7 st8">App-Server</tspan><tspan x="9.45" y="11" class="st6 st7 st8">(25 ms)</tspan></text>
</g>
<rect x="451.05" y="400.89" class="st16" width="199.05" height="98.85"/>
<g>
	<g>
		<path class="st9" d="M508.15,438.09h-41.8c-0.88,0-1.6,0.72-1.6,1.6v4.77c0,0.88,0.72,1.6,1.6,1.6h41.8c0.88,0,1.6-0.72,1.6-1.6
			v-4.77C509.75,438.81,509.04,438.09,508.15,438.09z"/>
		<line class="st4" x1="504.93" y1="439.69" x2="504.93" y2="444.47"/>
		<line class="st4" x1="500.11" y1="439.69" x2="500.11" y2="444.47"/>
		<line class="st4" x1="495.29" y1="439.69" x2="495.29" y2="444.47"/>
		<path class="st25" d="M468.77,441.28c0.44,0,0.8,0.36,0.8,0.8c0,0.44-0.36,0.8-0.8,0.8c-0.44,0-0.8-0.36-0.8-0.8
			C467.97,441.64,468.33,441.28,468.77,441.28 M468.77,440.2c-1.04,0-1.89,0.84-1.89,1.88c0,1.04,0.85,1.88,1.89,1.88
			c1.04,0,1.89-0.84,1.89-1.88C470.66,441.04,469.81,440.2,468.77,440.2"/>
	</g>
	<g>
		<path class="st9" d="M508.15,427.32h-41.8c-0.88,0-1.6,0.72-1.6,1.6v4.77c0,0.88,0.72,1.6,1.6,1.6h41.8c0.88,0,1.6-0.72,1.6-1.6
			v-4.77C509.75,428.04,509.04,427.32,508.15,427.32z"/>
		<line class="st4" x1="504.93" y1="428.92" x2="504.93" y2="433.7"/>
		<line class="st4" x1="500.11" y1="428.92" x2="500.11" y2="433.7"/>
		<line class="st4" x1="495.29" y1="428.92" x2="495.29" y2="433.7"/>
		<path class="st25" d="M468.77,430.51c0.44,0,0.8,0.36,0.8,0.8c0,0.44-0.36,0.8-0.8,0.8c-0.44,0-0.8-0.36-0.8-0.8
			C467.97,430.87,468.33,430.51,468.77,430.51 M468.77,429.43c-1.04,0-1.89,0.84-1.89,1.88c0,1.04,0.85,1.88,1.89,1.88
			c1.04,0,1.89-0.84,1.89-1.88C470.66,430.27,469.81,429.43,468.77,429.43"/>
	</g>
	<g>
		<path class="st9" d="M508.15,416.55h-41.8c-0.88,0-1.6,0.72-1.6,1.6v4.77c0,0.88,0.72,1.6,1.6,1.6h41.8c0.88,0,1.6-0.72,1.6-1.6
			v-4.77C509.75,417.27,509.04,416.55,508.15,416.55z"/>
		<line class="st4" x1="504.93" y1="418.14" x2="504.93" y2="422.93"/>
		<line class="st4" x1="500.11" y1="418.14" x2="500.11" y2="422.93"/>
		<line class="st4" x1="495.29" y1="418.14" x2="495.29" y2="422.93"/>
		<path class="st25" d="M468.77,419.74c0.44,0,0.8,0.36,0.8,0.8c0,0.44-0.36,0.8-0.8,0.8c-0.44,0-0.8-0.36-0.8-0.8
			C467.97,420.1,468.33,419.74,468.77,419.74 M468.77,418.65c-1.04,0-1.89,0.84-1.89,1.88c0,1.04,0.85,1.88,1.89,1.88
			c1.04,0,1.89-0.84,1.89-1.88C470.66,419.5,469.81,418.65,468.77,418.65"/>
	</g>
</g>
<g>
	<rect x="460.59" y="454.52" class="st5" width="53.32" height="18.64"/>
	<text transform="matrix(1 0 0 1 460.6724 461.8557)"><tspan x="0" y="0" class="st6 st7 st8">App-Server</tspan><tspan x="10.7" y="11" class="st6 st7 st8">(10 ms)</tspan></text>
</g>
<g>
	<g>
		<path class="st9" d="M571.48,456.72h-41.8c-0.88,0-1.6,0.72-1.6,1.6v4.77c0,0.88,0.72,1.6,1.6,1.6h41.8c0.88,0,1.6-0.72,1.6-1.6
			v-4.77C573.08,457.44,572.36,456.72,571.48,456.72z"/>
		<line class="st4" x1="568.26" y1="458.32" x2="568.26" y2="463.1"/>
		<line class="st4" x1="563.43" y1="458.32" x2="563.43" y2="463.1"/>
		<line class="st4" x1="558.61" y1="458.32" x2="558.61" y2="463.1"/>
		<path class="st25" d="M532.09,459.91c0.44,0,0.8,0.36,0.8,0.8c0,0.44-0.36,0.8-0.8,0.8c-0.44,0-0.8-0.36-0.8-0.8
			C531.29,460.27,531.65,459.91,532.09,459.91 M532.09,458.83c-1.04,0-1.89,0.84-1.89,1.88c0,1.04,0.85,1.88,1.89,1.88
			c1.04,0,1.89-0.84,1.89-1.88C533.98,459.67,533.14,458.83,532.09,458.83"/>
	</g>
	<g>
		<path class="st9" d="M571.48,445.95h-41.8c-0.88,0-1.6,0.72-1.6,1.6v4.77c0,0.88,0.72,1.6,1.6,1.6h41.8c0.88,0,1.6-0.72,1.6-1.6
			v-4.77C573.08,446.67,572.36,445.95,571.48,445.95z"/>
		<line class="st4" x1="568.26" y1="447.54" x2="568.26" y2="452.33"/>
		<line class="st4" x1="563.43" y1="447.54" x2="563.43" y2="452.33"/>
		<line class="st4" x1="558.61" y1="447.54" x2="558.61" y2="452.33"/>
		<path class="st25" d="M532.09,449.14c0.44,0,0.8,0.36,0.8,0.8c0,0.44-0.36,0.8-0.8,0.8c-0.44,0-0.8-0.36-0.8-0.8
			C531.29,449.5,531.65,449.14,532.09,449.14 M532.09,448.05c-1.04,0-1.89,0.84-1.89,1.88c0,1.04,0.85,1.88,1.89,1.88
			c1.04,0,1.89-0.84,1.89-1.88C533.98,448.9,533.14,448.05,532.09,448.05"/>
	</g>
	<g>
		<path class="st9" d="M571.48,435.18h-41.8c-0.88,0-1.6,0.72-1.6,1.6v4.77c0,0.88,0.72,1.6,1.6,1.6h41.8c0.88,0,1.6-0.72,1.6-1.6
			v-4.77C573.08,435.9,572.36,435.18,571.48,435.18z"/>
		<line class="st4" x1="568.26" y1="436.77" x2="568.26" y2="441.56"/>
		<line class="st4" x1="563.43" y1="436.77" x2="563.43" y2="441.56"/>
		<line class="st4" x1="558.61" y1="436.77" x2="558.61" y2="441.56"/>
		<path class="st25" d="M532.09,438.37c0.44,0,0.8,0.36,0.8,0.8c0,0.44-0.36,0.8-0.8,0.8c-0.44,0-0.8-0.36-0.8-0.8
			C531.29,438.72,531.65,438.37,532.09,438.37 M532.09,437.28c-1.04,0-1.89,0.84-1.89,1.88c0,1.04,0.85,1.88,1.89,1.88
			c1.04,0,1.89-0.84,1.89-1.88C533.98,438.13,533.14,437.28,532.09,437.28"/>
	</g>
</g>
<g>
	<rect x="523.91" y="473.15" class="st5" width="53.32" height="18.64"/>
	<text transform="matrix(1 0 0 1 523.9949 480.4839)"><tspan x="0" y="0" class="st6 st7 st8">App-Server</tspan><tspan x="9.45" y="11" class="st6 st7 st8">(25 ms)</tspan></text>
</g>
<g>
	<g>
		<path class="st9" d="M634.8,456.72H593c-0.88,0-1.6,0.72-1.6,1.6v4.77c0,0.88,0.72,1.6,1.6,1.6h41.8c0.88,0,1.6-0.72,1.6-1.6
			v-4.77C636.4,457.44,635.68,456.72,634.8,456.72z"/>
		<line class="st4" x1="631.58" y1="458.32" x2="631.58" y2="463.1"/>
		<line class="st4" x1="626.76" y1="458.32" x2="626.76" y2="463.1"/>
		<line class="st4" x1="621.94" y1="458.32" x2="621.94" y2="463.1"/>
		<path class="st25" d="M595.42,459.91c0.44,0,0.8,0.36,0.8,0.8c0,0.44-0.36,0.8-0.8,0.8c-0.44,0-0.8-0.36-0.8-0.8
			C594.61,460.27,594.97,459.91,595.42,459.91 M595.42,458.83c-1.04,0-1.89,0.84-1.89,1.88c0,1.04,0.85,1.88,1.89,1.88
			c1.04,0,1.89-0.84,1.89-1.88C597.3,459.67,596.46,458.83,595.42,458.83"/>
	</g>
	<g>
		<path class="st9" d="M634.8,445.95H593c-0.88,0-1.6,0.72-1.6,1.6v4.77c0,0.88,0.72,1.6,1.6,1.6h41.8c0.88,0,1.6-0.72,1.6-1.6
			v-4.77C636.4,446.67,635.68,445.95,634.8,445.95z"/>
		<line class="st4" x1="631.58" y1="447.54" x2="631.58" y2="452.33"/>
		<line class="st4" x1="626.76" y1="447.54" x2="626.76" y2="452.33"/>
		<line class="st4" x1="621.94" y1="447.54" x2="621.94" y2="452.33"/>
		<path class="st25" d="M595.42,449.14c0.44,0,0.8,0.36,0.8,0.8c0,0.44-0.36,0.8-0.8,0.8c-0.44,0-0.8-0.36-0.8-0.8
			C594.61,449.5,594.97,449.14,595.42,449.14 M595.42,448.05c-1.04,0-1.89,0.84-1.89,1.88c0,1.04,0.85,1.88,1.89,1.88
			c1.04,0,1.89-0.84,1.89-1.88C597.3,448.9,596.46,448.05,595.42,448.05"/>
	</g>
	<g>
		<path class="st9" d="M634.8,435.18H593c-0.88,0-1.6,0.72-1.6,1.6v4.77c0,0.88,0.72,1.6,1.6,1.6h41.8c0.88,0,1.6-0.72,1.6-1.6
			v-4.77C636.4,435.9,635.68,435.18,634.8,435.18z"/>
		<line class="st4" x1="631.58" y1="436.77" x2="631.58" y2="441.56"/>
		<line class="st4" x1="626.76" y1="436.77" x2="626.76" y2="441.56"/>
		<line class="st4" x1="621.94" y1="436.77" x2="621.94" y2="441.56"/>
		<path class="st25" d="M595.42,438.37c0.44,0,0.8,0.36,0.8,0.8c0,0.44-0.36,0.8-0.8,0.8c-0.44,0-0.8-0.36-0.8-0.8
			C594.61,438.72,594.97,438.37,595.42,438.37 M595.42,437.28c-1.04,0-1.89,0.84-1.89,1.88c0,1.04,0.85,1.88,1.89,1.88
			c1.04,0,1.89-0.84,1.89-1.88C597.3,438.13,596.46,437.28,595.42,437.28"/>
	</g>
</g>
<g>
	<rect x="587.24" y="473.15" class="st5" width="53.32" height="18.64"/>
	<text transform="matrix(1 0 0 1 587.3184 480.4846)"><tspan x="0" y="0" class="st6 st7 st8">App-Server</tspan><tspan x="9.45" y="11" class="st6 st7 st8">(25 ms)</tspan></text>
</g>
<line class="st0" x1="708.22" y1="414.68" x2="720.93" y2="414.68"/>
<line class="st0" x1="708.22" y1="460.81" x2="720.93" y2="460.81"/>
<line class="st0" x1="691.33" y1="440.7" x2="691.33" y2="433.9"/>
<line class="st0" x1="738.18" y1="440.91" x2="738.18" y2="434.12"/>
<g>
	<polygon class="st4" points="755.07,423.85 755.07,404.35 738.21,394.6 721.34,404.35 721.34,423.85 738.21,433.6 	"/>
	<polyline class="st4" points="726.4,419.9 726.4,408.43 736.74,419.9 736.74,408.43 	"/>
	<line class="st4" x1="746.22" y1="418.51" x2="746.22" y2="409.83"/>
	<line class="st4" x1="741.88" y1="414.17" x2="750.56" y2="414.17"/>
</g>
<g>
	<polygon class="st4" points="707.94,423.85 707.94,404.35 691.07,394.6 674.21,404.35 674.21,423.85 691.07,433.6 	"/>
	<polyline class="st4" points="679.27,419.9 679.27,408.43 689.61,419.9 689.61,408.43 	"/>
	<line class="st4" x1="699.09" y1="418.51" x2="699.09" y2="409.83"/>
	<line class="st4" x1="694.75" y1="414.17" x2="703.43" y2="414.17"/>
</g>
<g>
	<polygon class="st4" points="755.07,470.16 755.07,450.66 738.21,440.91 721.34,450.66 721.34,470.16 738.21,479.91 	"/>
	<polyline class="st4" points="726.4,466.22 726.4,454.75 736.74,466.22 736.74,454.75 	"/>
	<line class="st4" x1="746.22" y1="464.82" x2="746.22" y2="456.14"/>
	<line class="st4" x1="741.88" y1="460.48" x2="750.56" y2="460.48"/>
</g>
<g>
	<polygon class="st4" points="707.94,470.16 707.94,450.66 691.07,440.91 674.21,450.66 674.21,470.16 691.07,479.91 	"/>
	<polyline class="st4" points="679.27,466.22 679.27,454.75 689.61,466.22 689.61,454.75 	"/>
	<line class="st4" x1="699.09" y1="464.82" x2="699.09" y2="456.14"/>
	<line class="st4" x1="694.75" y1="460.48" x2="703.43" y2="460.48"/>
</g>
<g>
	<rect x="812.19" y="385.88" class="st5" width="49.88" height="37.49"/>
	<text transform="matrix(1 0 0 1 820.7393 393.2183)"><tspan x="0" y="0" class="st7 st8">NGINX </tspan><tspan x="6.5" y="11" class="st7 st8">Plus</tspan></text>
</g>
<g>
	<polygon class="st4" points="854.57,370.04 854.57,349.8 837.07,339.69 819.57,349.8 819.57,370.04 837.07,380.16 	"/>
	<polyline class="st4" points="824.82,365.95 824.82,354.05 835.56,365.95 835.56,354.05 	"/>
	<line class="st4" x1="845.39" y1="364.5" x2="845.39" y2="355.49"/>
	<line class="st4" x1="840.89" y1="360" x2="849.89" y2="360"/>
</g>
<g>
	<rect x="779.41" y="320.81" class="st16" width="114.45" height="186.51"/>
</g>
<rect x="784.38" y="311.91" class="st11" width="104.47" height="18"/>
<text transform="matrix(1 0 0 1 802.6008 323.9919)" class="st12 st13 st14">Kubernetes-Cluster</text>
<g>
	<rect x="804.69" y="460.36" class="st5" width="64.77" height="37.49"/>
	<text transform="matrix(1 0 0 1 820.6821 467.7019)"><tspan x="0" y="0" class="st7 st8">NGINX </tspan><tspan x="-0.81" y="11" class="st7 st8">Ingress </tspan><tspan x="-6.97" y="22" class="st7 st8">Controller</tspan></text>
</g>
<polygon class="st4" points="854.57,446.03 854.57,425.8 837.07,415.68 819.57,425.8 819.57,446.03 837.07,456.15 "/>
<g>
	<path id="XMLID_278_" class="st26" d="M848.56,443.45h-6.27c-1.37,0-2.46-0.9-3.13-2.09l-4.18-9.43c-0.67-1.2-1.76-2.09-3.13-2.09
		h-9.4"/>
	<path id="XMLID_277_" class="st26" d="M836.03,439.27l-1.04,2.09c-0.67,1.2-1.76,2.09-3.13,2.09h-9.4"/>
	<path id="XMLID_276_" class="st26" d="M848.56,429.84h-6.27c-1.37,0-2.46,0.9-3.13,2.09l-1.04,2.09"/>
	<polyline id="XMLID_275_" class="st26" points="848.56,426.7 851.7,429.84 848.56,432.98 	"/>
	<polyline id="XMLID_274_" class="st26" points="848.79,440 851.7,442.91 848.79,445.82 	"/>
</g>
<rect x="516.11" y="391.58" class="st11" width="68.94" height="18"/>
<text transform="matrix(1 0 0 1 529.7927 403.6595)" class="st12 st13 st14">POOL A – V2.0</text>
<rect x="289.68" y="391.89" class="st11" width="68.94" height="18"/>
<text transform="matrix(1 0 0 1 303.4608 403.9737)" class="st12 st13 st14">POOL B – V2.0</text>
<g>
	<g>
		<rect x="673.11" y="319.8" class="st5" width="38.05" height="25.47"/>
		<text transform="matrix(1 0 0 1 683.6548 323.7998)"><tspan x="0" y="0" class="st20 st21 st22">Aktive </tspan><tspan x="-9.18" y="6" class="st20 st21 st22">Zustandsprü</tspan><tspan x="24.33" y="6" class="st20 st21 st22">-</tspan><tspan x="-0.98" y="12" class="st20 st21 st22">fungen</tspan></text>
	</g>
</g>
</svg>
