<svg xmlns="http://www.w3.org/2000/svg" viewBox="0 0 16.2 16.18"><defs><style>.cls-1{fill:#009539;}</style></defs><g id="Layer_2" data-name="Layer 2"><g id="Layer_1-2" data-name="Layer 1"><g id="ETafrq"><path class="cls-1" d="M0,2.2C.84,1.93,1,2,1,2.88c0,3.75,0,7.5,0,11.25,0,.82.25,1.06,1.06,1,3.75,0,7.51,0,11.27,0,.85,0,.95.17.67,1H1.35A1.73,1.73,0,0,1,0,14.83Z"/><path class="cls-1" d="M2,7.09C2,5,2,3,2,.94,2,.28,2.15,0,2.9,0Q9.1,0,15.29,0c.72,0,.91.24.9.93q0,6.14,0,12.28c0,.75-.26,1-1,1q-6.1,0-12.22,0c-.8,0-1-.27-1-1C2.05,11.13,2,9.11,2,7.09ZM9.1,13.15c1.83,0,3.65,0,5.48,0,.48,0,.6-.13.6-.6q0-5.47,0-10.94c0-.48-.13-.61-.6-.6-3.65,0-7.3,0-11,0-.47,0-.6.12-.6.6q0,5.46,0,10.94c0,.47.13.61.61.6C5.45,13.13,7.28,13.15,9.1,13.15Z"/><path class="cls-1" d="M9.07,5.07H5.78c-.36,0-.71,0-.71-.5s.34-.52.7-.52h6.65c.36,0,.71,0,.71.51s-.33.51-.7.51C11.31,5.06,10.19,5.07,9.07,5.07Z"/><path class="cls-1" d="M9.15,7.09H5.78c-.36,0-.71,0-.71-.5s.34-.52.7-.52h6.65c.36,0,.71,0,.71.51s-.33.51-.7.51Z"/><path class="cls-1" d="M8.14,8.1H10.5c.36,0,.62.12.61.51s-.27.51-.63.51H5.68c-.36,0-.62-.13-.61-.52s.28-.5.63-.5Z"/></g></g></g></svg>