<svg id="b5ec40a7-11b9-4328-90c5-21dbb0608ca2" data-name="Layer 1" xmlns="http://www.w3.org/2000/svg" viewBox="0 0 526.5 178"><defs><style>.b73c814c-59f4-46df-8fdf-bc9ace1c2a87{fill:#b8bbbe;}.e8f63cf1-e290-4441-b636-27ff17f61e80{fill:#989898;}.fc88e614-063a-4866-a9bf-bc25d3ff4a72{fill:#c8c8c8;}.f92efc30-2125-49a1-bde3-5efcef07d129{fill:#b3b3b3;}.b1b1d67b-03aa-46c5-86b3-9caf6871aec9{fill:#bababa;}.ec881c4f-f846-44c6-823c-999877cfd086{fill:#9e9e9e;}.b353ae12-1d04-4f32-972c-bd3d4c46f9f7{fill:#d6d6d6;}.a863e161-3614-4036-a4ab-c30c4805155f{fill:#c3c3c3;}.f4295364-6a23-4845-944b-c33b36d24b02{fill:#d4d4d4;}</style></defs><path class="b73c814c-59f4-46df-8fdf-bc9ace1c2a87" d="M172.1,162.6V110.3h18.5a28.87,28.87,0,0,1,10.9,2,27.05,27.05,0,0,1,8.7,5.4,24.36,24.36,0,0,1,5.8,8.4,27,27,0,0,1,2.1,10.5,25.85,25.85,0,0,1-7.8,18.7,26.78,26.78,0,0,1-8.7,5.3,31.51,31.51,0,0,1-11,2Zm18.6-45.4H179.9v38.3h10.8a19.81,19.81,0,0,0,7.6-1.5,19.41,19.41,0,0,0,6.2-4,19.83,19.83,0,0,0,4.1-6.1,19.31,19.31,0,0,0,1.5-7.5,19.87,19.87,0,0,0-5.6-13.8,17.86,17.86,0,0,0-6.2-4A21.78,21.78,0,0,0,190.7,117.2Z" transform="translate(-0.8)"/><path class="b73c814c-59f4-46df-8fdf-bc9ace1c2a87" d="M259.5,158.2a22.59,22.59,0,0,1-14.8,4.9,20.11,20.11,0,0,1-14.2-5.6,19.33,19.33,0,0,1-4.2-6.3,20.77,20.77,0,0,1,0-15.5,19.41,19.41,0,0,1,4-6.2,18.49,18.49,0,0,1,6.1-4.2,19.31,19.31,0,0,1,7.5-1.5,17.47,17.47,0,0,1,13.1,5.7,21,21,0,0,1,5.2,14.1v2.2h-30a12.85,12.85,0,0,0,12.9,10.9,16,16,0,0,0,5.3-.9,11.59,11.59,0,0,0,4.3-2.5Zm-15.8-28a10.6,10.6,0,0,0-7.4,2.9,12.51,12.51,0,0,0-4.1,7.3h22.6a13.75,13.75,0,0,0-3.9-7.3A10.13,10.13,0,0,0,243.7,130.2Z" transform="translate(-0.8)"/><path class="b73c814c-59f4-46df-8fdf-bc9ace1c2a87" d="M281,162.6l-16.4-38.1h8.2l12,28.5,11.9-28.5h8l-16.5,38.1Z" transform="translate(-0.8)"/><path class="b73c814c-59f4-46df-8fdf-bc9ace1c2a87" d="M341.6,158.2a22.59,22.59,0,0,1-14.8,4.9,21.33,21.33,0,0,1-7.9-1.5,20.14,20.14,0,0,1-6.3-4.1,19.33,19.33,0,0,1-4.2-6.3,20.77,20.77,0,0,1,0-15.5,19.41,19.41,0,0,1,4-6.2,18.49,18.49,0,0,1,6.1-4.2,19.31,19.31,0,0,1,7.5-1.5,18.35,18.35,0,0,1,7.3,1.5,17.28,17.28,0,0,1,5.8,4.2,21,21,0,0,1,5.2,14.1v2.2H314.2a12.92,12.92,0,0,0,12.9,10.9,16,16,0,0,0,5.3-.9,11.59,11.59,0,0,0,4.3-2.5Zm-15.8-28a10.6,10.6,0,0,0-7.4,2.9,12.51,12.51,0,0,0-4.1,7.3H337a13.75,13.75,0,0,0-3.9-7.3A10.54,10.54,0,0,0,325.8,130.2Z" transform="translate(-0.8)"/><path class="b73c814c-59f4-46df-8fdf-bc9ace1c2a87" d="M359.8,108.6v54h-7.5V110.3Z" transform="translate(-0.8)"/><path class="b73c814c-59f4-46df-8fdf-bc9ace1c2a87" d="M367.8,143.5a19.94,19.94,0,0,1,1.5-7.7,19.33,19.33,0,0,1,4.2-6.3,20.2,20.2,0,0,1,21.8-4.2,19.61,19.61,0,0,1,12,18.2,20.81,20.81,0,0,1-1.5,7.8,20,20,0,0,1-25.9,10.5,19.3,19.3,0,0,1-10.5-10.5A20.91,20.91,0,0,1,367.8,143.5Zm19.8,13.2a11.61,11.61,0,0,0,8.7-3.9,13.94,13.94,0,0,0,0-18.7,12,12,0,0,0-17-.6l-.6.6a13.51,13.51,0,0,0-3.7,9.3,13,13,0,0,0,3.6,9.4A11.84,11.84,0,0,0,387.6,156.7Z" transform="translate(-0.8)"/><path class="b73c814c-59f4-46df-8fdf-bc9ace1c2a87" d="M415.4,178V124.5h7.4v3.7a15.06,15.06,0,0,1,5.3-3.2,19.56,19.56,0,0,1,6.4-1.1,19.81,19.81,0,0,1,7.6,1.5,19.24,19.24,0,0,1,10.2,10.4,20.31,20.31,0,0,1,1.5,7.7,19.94,19.94,0,0,1-1.5,7.7,18.13,18.13,0,0,1-4.1,6.2,19.35,19.35,0,0,1-25.3,2V178Zm18.1-47.6a15.31,15.31,0,0,0-6,1.2,11.8,11.8,0,0,0-4.6,3.3v17.3a12.58,12.58,0,0,0,4.6,3.3,15.67,15.67,0,0,0,6,1.2,12.68,12.68,0,0,0,9.2-3.7,13.53,13.53,0,0,0,0-18.7,12.26,12.26,0,0,0-9.2-3.9Z" transform="translate(-0.8)"/><path class="b73c814c-59f4-46df-8fdf-bc9ace1c2a87" d="M494.9,158.2a22.59,22.59,0,0,1-14.8,4.9,20.3,20.3,0,0,1-14.2-5.7,17.87,17.87,0,0,1-4.2-6.3,20.77,20.77,0,0,1,0-15.5,19.41,19.41,0,0,1,4-6.2,18.49,18.49,0,0,1,6.1-4.2,19.31,19.31,0,0,1,7.5-1.5,17.47,17.47,0,0,1,13.1,5.7,21.7,21.7,0,0,1,3.8,6.4,23.34,23.34,0,0,1,1.4,7.8v2.2H467.5a12.85,12.85,0,0,0,12.9,10.9,16,16,0,0,0,5.3-.9,11.59,11.59,0,0,0,4.3-2.5Zm-15.8-28a10.6,10.6,0,0,0-7.4,2.9,12.93,12.93,0,0,0-4,7.3h22.5a13.75,13.75,0,0,0-3.9-7.3,9.88,9.88,0,0,0-7.2-2.9Z" transform="translate(-0.8)"/><path class="b73c814c-59f4-46df-8fdf-bc9ace1c2a87" d="M505.6,162.6V124.5h7.5v4.9a11.81,11.81,0,0,1,4.4-4.2,12.81,12.81,0,0,1,6.1-1.5,14.77,14.77,0,0,1,2.1.1,7.49,7.49,0,0,1,1.6.5v6.6a14.13,14.13,0,0,0-2.2-.6,8.2,8.2,0,0,0-2.2-.2,10.5,10.5,0,0,0-5.9,1.8,11.44,11.44,0,0,0-4,5.2v25.5Z" transform="translate(-0.8)"/><path class="b73c814c-59f4-46df-8fdf-bc9ace1c2a87" d="M435.6,65.9c0,8.8,5.3,13.1,15,13.1a43.36,43.36,0,0,0,8.8-1.2V67.5a17.74,17.74,0,0,1-5.6.9c-4,0-5.5-1.2-5.5-4.9V47.7h11.6V37.2H448.3V23.8l-12.7,2.7V37.2h-8.4V47.8h8.4Zm-39.4.2c0-2.7,2.7-4.1,6.9-4.1a32,32,0,0,1,7.5.9v5.4a16.55,16.55,0,0,1-7.9,2c-4,.1-6.5-1.6-6.5-4.2M400,79.3A19.25,19.25,0,0,0,411.4,76v2.5h12.5V52c0-10.1-6.8-15.6-18.1-15.6a45.91,45.91,0,0,0-19.3,4.5l4.5,9.3a34.09,34.09,0,0,1,12.5-3.3c5.2,0,7.9,2,7.9,6.2v2a37.28,37.28,0,0,0-9.4-1.2c-10.6,0-17,4.4-17,12.4,0,7.3,5.8,12.8,15,12.8m-68.6-.7h13.4V57.1h22.5V78.4h13.4V23.8H367.3v21H344.9v-21H331.5ZM280.2,57.7a10.5,10.5,0,0,1,10.5-10.5h.4a12.77,12.77,0,0,1,8.7,3.3V65a12.31,12.31,0,0,1-8.7,3.3,10.59,10.59,0,0,1-10.9-10.2v-.4m19.7,20.8h12.5V21.1l-12.7,2.7V39.3A21.32,21.32,0,1,0,278,76a21.69,21.69,0,0,0,10.8,3,18.42,18.42,0,0,0,11.1-3.6ZM242.7,46.8a9.18,9.18,0,0,1,8.7,6.6H234.1a8.66,8.66,0,0,1,8.6-6.6M221.4,57.9c0,12,9.8,21.3,22.5,21.3a24.72,24.72,0,0,0,17.3-6.3l-8.4-7.4a11.06,11.06,0,0,1-8.3,3.1A10.65,10.65,0,0,1,234.4,62h29.4V58.9c0-13.1-8.8-22.6-20.9-22.6a21.3,21.3,0,0,0-21.6,20.9,1.7,1.7,0,0,1,.1.7M199.6,35.3c4.4,0,6.9,2.8,6.9,6.2s-2.5,6.2-6.9,6.2H186.3V35.3ZM172.9,78.5h13.4V58.6h10.2l10.3,19.9h15l-12-21.9a16.43,16.43,0,0,0,10.3-15.4c0-9.8-7.7-17.4-19.3-17.4H172.9Z" transform="translate(-0.8)"/><rect class="e8f63cf1-e290-4441-b636-27ff17f61e80" x="16.1" width="16.2" height="16.2"/><rect class="fc88e614-063a-4866-a9bf-bc25d3ff4a72" x="32.3" y="28.1" width="32.3" height="16.2"/><rect class="f92efc30-2125-49a1-bde3-5efcef07d129" x="16.1" y="84.3" width="32.3" height="16.2"/><rect class="b1b1d67b-03aa-46c5-86b3-9caf6871aec9" y="56.2" width="16.2" height="16.2"/><rect class="e8f63cf1-e290-4441-b636-27ff17f61e80" x="44.3" width="32.3" height="16.2"/><rect class="fc88e614-063a-4866-a9bf-bc25d3ff4a72" x="76.5" y="28.1" width="16.2" height="16.2"/><rect class="f92efc30-2125-49a1-bde3-5efcef07d129" x="60.4" y="84.3" width="16.2" height="16.2"/><rect class="b1b1d67b-03aa-46c5-86b3-9caf6871aec9" x="28.1" y="56.2" width="32.3" height="16.2"/><rect class="ec881c4f-f846-44c6-823c-999877cfd086" x="76.5" width="48.4" height="16.2"/><rect class="b353ae12-1d04-4f32-972c-bd3d4c46f9f7" x="92.7" y="28.1" width="48.4" height="16.2"/><rect class="a863e161-3614-4036-a4ab-c30c4805155f" x="76.5" y="84.3" width="32.3" height="16.2"/><rect class="f4295364-6a23-4845-944b-c33b36d24b02" x="60.4" y="56.2" width="64.6" height="16.2"/></svg>