<svg id="b6e2f7bd-076f-4d68-a79d-11528feeb117" data-name="Layer 1" xmlns="http://www.w3.org/2000/svg" viewBox="0 0 939 160"><defs><style>.aeec171a-0f92-48fa-acac-14c2d0920ea4{fill:#e00;}</style></defs><path d="M319.2,7.3h25.6c11.2,0,18.8,6.8,18.8,16.7,0,7.4-4.5,13.1-11.6,15.5l12.6,24.3h-9.4L343.5,40.6H327.6V63.8h-8.5Zm8.4,7.4V33.6h16.5c6.6,0,11-3.8,11-9.4s-4.4-9.4-11-9.4l-16.5-.1Z"/><path d="M388.6,64.5a21.13,21.13,0,0,1-21.5-20.8v-.5c0-11.9,9.1-21.2,20.6-21.2,11.3,0,19.8,9.4,19.8,21.4v2.3H375.1A13.91,13.91,0,0,0,389,57.5a15.69,15.69,0,0,0,10.4-3.6l5.2,5A24.26,24.26,0,0,1,388.6,64.5ZM375.1,39.8h24.4c-1.2-6.3-6-11-12-11C381.2,28.8,376.3,33.3,375.1,39.8Z"/><path d="M446.7,59.9a19.82,19.82,0,0,1-12.6,4.5c-11.6,0-20.7-9.3-20.7-21.2a20.88,20.88,0,0,1,33.3-17.1V7.3l8.1-1.8V63.7h-8Zm-11.4-2.5a15,15,0,0,0,11.4-4.9V33.8A14.9,14.9,0,0,0,435.3,29a13.81,13.81,0,0,0-14,13.5v.6a13.94,13.94,0,0,0,13.5,14.3Z"/><path d="M482,7.3h8.5V31.5h30V7.3H529V63.7h-8.5V39.2h-30V63.8H482Z"/><path d="M536.6,52c0-7.7,6.3-12.5,16.6-12.5a28.41,28.41,0,0,1,11.2,2.3V37.4c0-5.8-3.5-8.7-10-8.7-3.8,0-7.7,1-12.7,3.5l-3-6A38.25,38.25,0,0,1,555.6,22c10.6,0,16.8,5.2,16.8,14.7V63.9h-7.9V60.3a19.63,19.63,0,0,1-12.8,4.3C542.7,64.5,536.6,59.4,536.6,52Zm16.9,6.5a15.58,15.58,0,0,0,10.9-3.9V47.5A21.53,21.53,0,0,0,553.8,45c-5.9,0-9.5,2.7-9.5,6.8S548.1,58.5,553.5,58.5Z"/><path d="M585.3,29.5h-8.7V22.7h8.7V12.2l8-1.9V22.7h12.1v6.8H593.3V51.8c0,4.2,1.7,5.7,6,5.7a17,17,0,0,0,5.9-1v6.8a25.27,25.27,0,0,1-7.7,1.2c-8,0-12.3-3.8-12.3-10.9Z"/><path d="M361.9,131.2l7.6,7.6a31.08,31.08,0,0,1-23.2,10.4c-17,0-30.1-12.7-30.1-29s13.1-29.1,30.1-29.1c9.1,0,18.2,4.1,23.5,10.6l-7.9,7.8a19.8,19.8,0,0,0-15.6-7.7c-10.2,0-18.1,7.9-18.1,18.4a17.82,17.82,0,0,0,17.6,18.2h.8A19.5,19.5,0,0,0,361.9,131.2Z"/><path d="M384.8,130.8c0,5.4,3.5,8.9,8.7,8.9a10,10,0,0,0,8.7-4.2V106.4h11.1v42H402.2V145a17.7,17.7,0,0,1-11.9,4.2c-9.8,0-16.6-6.9-16.6-16.8v-26h11.1Z"/><path d="M423.8,136.1c4.9,3.2,9.2,4.8,13.6,4.8,4.9,0,8.1-1.8,8.1-4.4,0-2.2-1.6-3.4-5.2-4l-8.1-1.2c-8.3-1.3-12.7-5.4-12.7-12.2,0-8.1,6.8-13.3,17.5-13.3a31.6,31.6,0,0,1,17.3,5.2l-5.3,7.1c-4.6-2.7-8.7-4-13-4-4,0-6.6,1.6-6.6,4.1,0,2.3,1.6,3.4,5.7,4l8.1,1.2c8.2,1.2,12.8,5.5,12.8,12,0,7.9-7.8,13.9-18.4,13.9-7.7,0-14.5-2-19.3-5.8Z"/><path d="M466.4,115.7h-8.6v-9.3h8.6V95.7l11.1-2.5v13.2h11.9v9.3H477.5v18.6c0,4,1.5,5.4,5.8,5.4a17,17,0,0,0,5.9-1v9.1a35.75,35.75,0,0,1-8.5,1.3c-9.4,0-14.2-4.3-14.2-12.5l-.1-20.9Z"/><path d="M514.9,105.6c12.6,0,22.4,9.6,22.4,21.9s-9.8,21.8-22.4,21.8-22.4-9.5-22.4-21.8S502.3,105.6,514.9,105.6Zm11.6,21.8c0-6.9-5-12.3-11.6-12.3s-11.6,5.3-11.6,12.3c0,6.8,5,12.2,11.6,12.2S526.5,134.2,526.5,127.4Z"/><path d="M544.1,106.4h11.1v3.1a16.72,16.72,0,0,1,11-4,15,15,0,0,1,12.6,6.3,17.56,17.56,0,0,1,13.9-6.3c9.4,0,16,6.9,16,16.7v26.1H597.6V123.8c0-5.3-3-8.8-7.9-8.8a9.45,9.45,0,0,0-8.1,4.2,15.14,15.14,0,0,1,.2,3v26.1H570.7V123.7c0-5.3-3-8.8-7.9-8.8a9.18,9.18,0,0,0-7.8,3.8v29.5H543.9Z"/><path d="M637.8,149.2c-12.7,0-22.6-9.5-22.6-21.8a21.51,21.51,0,0,1,21.1-21.8h.5c11.9,0,20.8,9.7,20.8,22.6v2.9H626.4a12.13,12.13,0,0,0,11.9,8.8,13.4,13.4,0,0,0,9.3-3.4l7.3,6.6A25.15,25.15,0,0,1,637.8,149.2Zm-11.5-25.9h20.6c-1.4-5-5.4-8.5-10.2-8.5C631.5,114.8,627.6,118.1,626.3,123.3Z"/><path d="M664.4,106.4h11.1V111a13.47,13.47,0,0,1,11.2-5.6,9.12,9.12,0,0,1,4.6,1v9.7a13.65,13.65,0,0,0-5.6-1.1,11.15,11.15,0,0,0-10.2,6.3v27.2H664.4Z"/><path d="M714.2,92h28.3c11.1,0,18.9,7.3,18.9,17.7,0,10.1-8,17.4-18.9,17.4H725.9v21.3H714.2Zm11.7,10v15.4h15.3c5,0,8.4-3,8.4-7.7s-3.3-7.7-8.4-7.7Z"/><path d="M786.3,105.6c12.6,0,22.4,9.6,22.4,21.9s-9.8,21.8-22.4,21.8-22.4-9.5-22.4-21.8S773.7,105.6,786.3,105.6Zm11.6,21.8c0-6.9-5-12.3-11.6-12.3s-11.6,5.3-11.6,12.3c0,6.8,5,12.2,11.6,12.2s11.6-5.4,11.6-12.2Z"/><path d="M815.5,106.4h11.1V111a13.47,13.47,0,0,1,11.2-5.6,9.12,9.12,0,0,1,4.6,1v9.7a13.65,13.65,0,0,0-5.6-1.1,11.15,11.15,0,0,0-10.2,6.3v27.2H815.5Z"/><path d="M854.7,115.7h-8.6v-9.3h8.6V95.7l11.1-2.5v13.2h11.9v9.3h-12v18.6c0,4,1.5,5.4,5.8,5.4a17,17,0,0,0,5.9-1v9.1a35.75,35.75,0,0,1-8.5,1.3c-9.4,0-14.2-4.3-14.2-12.5Z"/><path d="M881.1,136.2c0-8,6.5-12.7,17.3-12.7a35.06,35.06,0,0,1,10.2,1.6v-3c0-4.8-3-7.3-8.9-7.3-3.5,0-7.5,1.1-12.8,3.5l-4-8.1a43.27,43.27,0,0,1,18.7-4.5c11.4,0,17.9,5.6,17.9,15.6v27.2H908.6v-2.9a19.68,19.68,0,0,1-12.2,3.6C887.4,149.2,881.1,143.9,881.1,136.2Zm18.3,5.1a15.56,15.56,0,0,0,9.3-2.7v-6.3a22.25,22.25,0,0,0-8.9-1.5c-5,0-8.1,2-8.1,5.2s3,5.2,7.7,5.3Z"/><path d="M939,148.4H927.9V92L939,89.6Z"/><path id="bbb32088-ac7f-4367-b925-13f789223f54" data-name="Dividing line" d="M255.5,160a2.26,2.26,0,0,1-2.3-2.3V2.3a2.3,2.3,0,1,1,4.6,0V157.8A2.24,2.24,0,0,1,255.5,160Z"/><g id="ae52d0a1-15df-43d4-8467-6e6d599cf3c2" data-name="Hat icon"><path id="b1be00ac-93b9-40b5-9c0d-6b74dc6cf050" data-name="Red hat" class="aeec171a-0f92-48fa-acac-14c2d0920ea4" d="M128,91c12.6,0,30.9-2.6,30.9-17.6a18.7,18.7,0,0,0-.3-3.4l-7.5-32.6c-1.7-7.2-3.3-10.4-15.9-16.7-9.8-5-31.1-13.3-37.4-13.3-5.9,0-7.6,7.6-14.6,7.6-6.7,0-11.7-5.6-18-5.6-6,0-10,4.1-13,12.6,0,0-8.5,23.9-9.6,27.4a6.45,6.45,0,0,0-.3,2C42.4,60.5,79,91,128,91Zm32.8-11.6c1.7,8.3,1.7,9.1,1.7,10.2,0,14.1-15.9,21.9-36.7,21.9-47.1,0-88.4-27.6-88.4-45.8a18.83,18.83,0,0,1,1.5-7.4C21.9,59.2,0,62.2,0,81.6c0,31.7,75.2,70.8,134.7,70.8,45.6,0,57.1-20.6,57.1-36.9.1-12.8-11-27.4-31-36.1Z"/><path id="b3f35604-a887-41c5-96dd-e8a9dd239aff" data-name="Black band" d="M160.8,79.4c1.7,8.3,1.7,9.1,1.7,10.2,0,14.1-15.9,21.9-36.7,21.9-47.1,0-88.4-27.6-88.4-45.8a18.83,18.83,0,0,1,1.5-7.4l3.7-9.1a6.45,6.45,0,0,0-.3,2C42.3,60.5,78.9,91,128,91c12.6,0,30.9-2.6,30.9-17.6a18.7,18.7,0,0,0-.3-3.4Z"/></g></svg>