<?xml version="1.0" encoding="utf-8"?>
<!-- Generator: Adobe Illustrator 25.2.3, SVG Export Plug-In . SVG Version: 6.00 Build 0)  -->
<svg version="1.1" id="Layer_1" xmlns="http://www.w3.org/2000/svg" xmlns:xlink="http://www.w3.org/1999/xlink" x="0px" y="0px"
	 viewBox="0 0 142.6 236.7" style="enable-background:new 0 0 142.6 236.7;" xml:space="preserve">
<style type="text/css">
	.st0{enable-background:new    ;}
	.st1{fill:#221F1F;}
	.st2{fill:none;stroke:#989898;stroke-width:18;stroke-miterlimit:10;}
	.st3{fill:#FFFFFF;}
	.st4{fill:none;stroke:#1DB14B;stroke-linecap:round;stroke-linejoin:round;}
	.st5{fill:none;stroke:#000000;stroke-linecap:round;stroke-linejoin:round;}
	.st6{fill:none;}
</style>
<g class="st0">
	<path class="st1" d="M43,160.2h2.5c2.3,0,3.8,1.6,3.8,3.7c0,2.1-1.5,3.7-3.8,3.7H43V160.2z M45.5,166.7c1.8,0,2.8-1.3,2.8-2.8
		c0-1.6-1-2.9-2.8-2.9h-1.6v5.7H45.5z"/>
	<path class="st1" d="M53.9,166.9c-0.4,0.5-1,0.7-1.8,0.7c-0.9,0-1.9-0.6-1.9-1.8c0-1.2,1-1.8,1.9-1.8c0.7,0,1.3,0.2,1.8,0.7v-1
		c0-0.7-0.6-1.1-1.3-1.1c-0.6,0-1.2,0.2-1.6,0.7l-0.4-0.6c0.6-0.6,1.3-0.9,2.1-0.9c1.1,0,2.1,0.5,2.1,1.8v3.7h-0.8V166.9z
		 M53.9,165.4c-0.3-0.4-0.9-0.7-1.5-0.7c-0.8,0-1.3,0.5-1.3,1.2c0,0.7,0.5,1.2,1.3,1.2c0.6,0,1.1-0.2,1.5-0.7V165.4z"/>
	<path class="st1" d="M59.8,166.8c-0.4,0.5-1.1,0.9-1.9,0.9c-1.1,0-1.7-0.5-1.7-1.7v-3.8h0.8v3.5c0,0.9,0.5,1.2,1.2,1.2
		c0.6,0,1.3-0.4,1.6-0.8v-3.9h0.8v5.3h-0.8V166.8z"/>
	<path class="st1" d="M64.5,162.1c1.6,0,2.6,1.3,2.6,2.8v0.2h-4.3c0.1,1,0.8,1.8,1.9,1.8c0.6,0,1.2-0.2,1.6-0.7l0.4,0.5
		c-0.5,0.5-1.2,0.8-2.1,0.8c-1.6,0-2.7-1.1-2.7-2.8C61.9,163.3,63,162.1,64.5,162.1z M62.7,164.5h3.5c0-0.8-0.5-1.8-1.7-1.8
		C63.3,162.8,62.8,163.7,62.7,164.5z"/>
	<path class="st1" d="M68.3,162.2h0.8v0.9c0.4-0.6,1-1,1.8-1v0.8c-0.1,0-0.2,0-0.3,0c-0.5,0-1.2,0.4-1.4,0.8v3.8h-0.8V162.2z"/>
	<path class="st1" d="M75.4,164c0-0.9-0.5-1.2-1.2-1.2c-0.6,0-1.3,0.4-1.6,0.8v3.9h-0.8v-7.3h0.8v2.8c0.4-0.4,1.1-0.9,1.9-0.9
		c1.1,0,1.7,0.5,1.7,1.7v3.8h-0.8V164z"/>
	<path class="st1" d="M81.1,166.9c-0.4,0.5-1,0.7-1.8,0.7c-0.9,0-1.9-0.6-1.9-1.8c0-1.2,1-1.8,1.9-1.8c0.7,0,1.3,0.2,1.8,0.7v-1
		c0-0.7-0.6-1.1-1.3-1.1c-0.6,0-1.2,0.2-1.6,0.7l-0.4-0.6c0.6-0.6,1.3-0.9,2.1-0.9c1.1,0,2.1,0.5,2.1,1.8v3.7h-0.8V166.9z
		 M81.1,165.4c-0.3-0.4-0.9-0.7-1.5-0.7c-0.8,0-1.3,0.5-1.3,1.2c0,0.7,0.5,1.2,1.3,1.2c0.6,0,1.1-0.2,1.5-0.7V165.4z"/>
	<path class="st1" d="M83.7,162.9h-0.9v-0.7h0.9v-0.4c0-1.1,0.6-1.7,1.5-1.7c0.3,0,0.6,0.1,0.8,0.2l-0.2,0.6
		c-0.1-0.1-0.3-0.1-0.5-0.1c-0.5,0-0.8,0.4-0.8,1v0.4h1.1v0.7h-1.1v4.6h-0.8V162.9z"/>
	<path class="st1" d="M86.6,166.4v-3.5h-0.9v-0.7h0.9v-1.5h0.8v1.5h1.1v0.7h-1.1v3.3c0,0.4,0.2,0.7,0.5,0.7c0.2,0,0.5-0.1,0.6-0.2
		l0.2,0.6c-0.2,0.2-0.5,0.3-1,0.3C87,167.7,86.6,167.2,86.6,166.4z"/>
	<path class="st1" d="M91.9,162.1c1.6,0,2.6,1.3,2.6,2.8v0.2h-4.3c0.1,1,0.8,1.8,1.9,1.8c0.6,0,1.2-0.2,1.6-0.7l0.4,0.5
		c-0.5,0.5-1.2,0.8-2.1,0.8c-1.6,0-2.7-1.1-2.7-2.8C89.3,163.3,90.4,162.1,91.9,162.1z M90.1,164.5h3.5c0-0.8-0.5-1.8-1.7-1.8
		C90.7,162.8,90.2,163.7,90.1,164.5z"/>
	<path class="st1" d="M95.6,162.2h0.8v0.9c0.4-0.6,1-1,1.8-1v0.8c-0.1,0-0.2,0-0.3,0c-0.5,0-1.2,0.4-1.4,0.8v3.8h-0.8V162.2z"/>
</g>
<g class="st0">
	<path class="st1" d="M34.9,177.8L39,172h-4.1v-0.8h5.3v0.8l-4.1,5.8h4.2v0.8h-5.4V177.8z"/>
	<path class="st1" d="M45.1,177.8c-0.4,0.5-1.1,0.9-1.9,0.9c-1.1,0-1.7-0.5-1.7-1.7v-3.8h0.8v3.5c0,0.9,0.5,1.2,1.2,1.2
		c0.6,0,1.3-0.4,1.6-0.8v-3.9h0.8v5.3h-0.8V177.8z"/>
	<path class="st1" d="M47.8,179.3c0.4,0.5,1,0.7,1.7,0.7c0.9,0,1.7-0.4,1.7-1.6v-0.8c-0.4,0.5-1,0.9-1.8,0.9c-1.4,0-2.4-1-2.4-2.8
		c0-1.7,1-2.8,2.4-2.8c0.7,0,1.4,0.4,1.8,0.9v-0.8h0.8v5.2c0,1.8-1.2,2.3-2.5,2.3c-0.9,0-1.5-0.2-2.1-0.8L47.8,179.3z M51.3,174.7
		c-0.3-0.5-0.9-0.9-1.6-0.9c-1.1,0-1.7,0.8-1.7,2c0,1.2,0.6,2,1.7,2c0.7,0,1.3-0.4,1.6-0.9V174.7z"/>
	<path class="st1" d="M57,177.9c-0.4,0.5-1,0.7-1.8,0.7c-0.9,0-1.9-0.6-1.9-1.8c0-1.2,1-1.8,1.9-1.8c0.7,0,1.3,0.2,1.8,0.7v-1
		c0-0.7-0.6-1.1-1.3-1.1c-0.6,0-1.2,0.2-1.6,0.7l-0.4-0.6c0.6-0.6,1.3-0.9,2.1-0.9c1.1,0,2.1,0.5,2.1,1.8v3.7H57V177.9z M57,176.4
		c-0.3-0.4-0.9-0.7-1.5-0.7c-0.8,0-1.3,0.5-1.3,1.2c0,0.7,0.5,1.2,1.3,1.2c0.6,0,1.1-0.2,1.5-0.7V176.4z"/>
	<path class="st1" d="M62.9,175.1c0-0.9-0.5-1.2-1.2-1.2c-0.6,0-1.3,0.4-1.6,0.8v3.9h-0.8v-5.3h0.8v0.8c0.4-0.4,1.1-0.9,1.9-0.9
		c1.1,0,1.7,0.6,1.7,1.7v3.7h-0.8V175.1z"/>
	<path class="st1" d="M65.7,179.3c0.4,0.5,1,0.7,1.7,0.7c0.9,0,1.7-0.4,1.7-1.6v-0.8c-0.4,0.5-1,0.9-1.8,0.9c-1.4,0-2.4-1-2.4-2.8
		c0-1.7,1-2.8,2.4-2.8c0.7,0,1.4,0.4,1.8,0.9v-0.8h0.8v5.2c0,1.8-1.2,2.3-2.5,2.3c-0.9,0-1.5-0.2-2.1-0.8L65.7,179.3z M69.1,174.7
		c-0.3-0.5-0.9-0.9-1.6-0.9c-1.1,0-1.7,0.8-1.7,2c0,1.2,0.6,2,1.7,2c0.7,0,1.3-0.4,1.6-0.9V174.7z"/>
	<path class="st1" d="M71.4,177.2c0.4,0.4,1,0.8,1.7,0.8c0.8,0,1.3-0.4,1.3-0.9c0-0.6-0.6-0.8-1.4-0.9c-0.9-0.2-1.9-0.5-1.9-1.6
		c0-0.8,0.7-1.5,2-1.5c0.9,0,1.5,0.3,2,0.8l-0.4,0.6c-0.3-0.4-0.9-0.7-1.6-0.7c-0.7,0-1.2,0.3-1.2,0.8c0,0.5,0.6,0.7,1.3,0.8
		c0.9,0.2,2,0.5,2,1.6c0,0.9-0.7,1.6-2.1,1.6c-0.9,0-1.6-0.3-2.1-0.8L71.4,177.2z"/>
	<path class="st1" d="M76.4,177.2c0.4,0.4,1,0.8,1.8,0.8c0.8,0,1.3-0.4,1.3-0.9c0-0.6-0.6-0.8-1.4-0.9c-0.9-0.2-1.9-0.5-1.9-1.6
		c0-0.8,0.7-1.5,2-1.5c0.9,0,1.5,0.3,2,0.8l-0.4,0.6c-0.3-0.4-0.9-0.7-1.6-0.7c-0.7,0-1.2,0.3-1.2,0.8c0,0.5,0.6,0.7,1.3,0.8
		c0.9,0.2,2,0.5,2,1.6c0,0.9-0.7,1.6-2.1,1.6c-0.9,0-1.6-0.3-2.1-0.8L76.4,177.2z"/>
	<path class="st1" d="M83.8,173.1c1,0,1.5,0.4,1.9,0.9l-0.6,0.5c-0.4-0.5-0.8-0.7-1.4-0.7c-1.1,0-1.8,0.9-1.8,2
		c0,1.2,0.7,2.1,1.8,2.1c0.5,0,1-0.2,1.4-0.7l0.6,0.5c-0.4,0.5-1,0.9-1.9,0.9c-1.6,0-2.7-1.2-2.7-2.8
		C81.2,174.3,82.2,173.1,83.8,173.1z"/>
	<path class="st1" d="M90.4,175c0-0.9-0.5-1.2-1.2-1.2c-0.6,0-1.3,0.4-1.6,0.8v3.9h-0.8v-7.3h0.8v2.8c0.4-0.4,1.1-0.9,1.9-0.9
		c1.1,0,1.7,0.5,1.7,1.7v3.8h-0.8V175z"/>
	<path class="st1" d="M96.4,177.8c-0.4,0.5-1.1,0.9-1.9,0.9c-1.1,0-1.7-0.5-1.7-1.7v-3.8h0.8v3.5c0,0.9,0.5,1.2,1.2,1.2
		c0.6,0,1.3-0.4,1.6-0.8v-3.9h0.8v5.3h-0.8V177.8z"/>
	<path class="st1" d="M98.9,177.4v-3.5H98v-0.7h0.9v-1.5h0.8v1.5h1.1v0.7h-1.1v3.3c0,0.4,0.2,0.7,0.5,0.7c0.2,0,0.5-0.1,0.6-0.2
		l0.2,0.6c-0.2,0.2-0.5,0.3-1,0.3C99.3,178.7,98.9,178.2,98.9,177.4z"/>
	<path class="st1" d="M101.6,177.9l2.9-4h-2.9v-0.7h4v0.6l-2.9,4h3v0.7h-4V177.9z"/>
</g>
<path class="st2" d="M109.2,134.8c21.1,21.6,20.7,56.2-0.9,77.3s-56.2,20.7-77.3-0.9c-21.1-21.6-20.7-56.2,0.9-77.3
	c10.2-10,23.9-15.6,38.2-15.6"/>
<g class="st0">
	<path class="st3" d="M40.8,221.2l-2.2-1.5l-0.9,0.7l-1.2-0.8l5.2-3.8l1.3,0.9l-1.3,6.3l-1.2-0.8L40.8,221.2z M39.4,219l1.7,1.1
		l0.7-2.8L39.4,219z"/>
</g>
<g class="st0">
	<path class="st3" d="M46.2,218.7l2.1,1c1.7,0.8,2.4,2.4,1.6,4.1c-0.8,1.6-2.5,2.2-4.2,1.4l-2.1-1L46.2,218.7z M46.3,224.1
		c1.1,0.5,2.1,0,2.5-0.9c0.5-1,0.2-2-0.9-2.5l-1-0.5l-1.6,3.4L46.3,224.1z"/>
</g>
<g class="st0">
	<path class="st3" d="M54.7,227.4l-2.5-0.8l-0.7,0.9l-1.3-0.4l4-5l1.5,0.5l0.4,6.4l-1.3-0.4L54.7,227.4z M52.8,225.7l1.9,0.6
		l-0.1-2.9L52.8,225.7z"/>
</g>
<g class="st0">
	<path class="st3" d="M59.3,223.5L62,224c1.3,0.2,1.8,1.2,1.7,2.3c-0.2,1-1,1.8-2.3,1.5l-1.5-0.3l-0.4,2.1l-1.3-0.2L59.3,223.5z
		 M61.7,225l-1.3-0.2l-0.3,1.6l1.3,0.2c0.5,0.1,0.9-0.2,1-0.7C62.5,225.5,62.2,225.1,61.7,225z"/>
</g>
<g class="st0">
	<path class="st3" d="M67,225.6l-1.8-0.1l0.1-1.1l4.8,0.2l-0.1,1.1l-1.7-0.1l-0.2,4.9l-1.3-0.1L67,225.6z"/>
</g>
<g class="st0">
	<path class="st3" d="M75.3,229.4l-2.7,0.2l-0.3,1.1l-1.4,0.1l1.9-6.2l1.6-0.1l2.7,5.8l-1.4,0.1L75.3,229.4z M72.9,228.4l2-0.1
		l-1.2-2.7L72.9,228.4z"/>
</g>
<g class="st0">
	<path class="st3" d="M79.2,225l-1.7,0.3l-0.2-1.1l4.7-0.9l0.2,1.1l-1.7,0.3l0.9,4.8l-1.3,0.2L79.2,225z"/>
</g>
<g class="st0">
	<path class="st3" d="M83.6,222.8l1.2-0.3l1.6,5.8l-1.2,0.3L83.6,222.8z"/>
</g>
<g class="st0">
	<path class="st3" d="M89.4,220.8c1.7-0.7,3.4,0,4.1,1.7s-0.1,3.4-1.7,4.1c-1.7,0.7-3.4,0-4.1-1.7C87,223.1,87.7,221.4,89.4,220.8z
		 M89.8,221.8c-1,0.4-1.4,1.5-0.9,2.5c0.4,1,1.4,1.6,2.4,1.1c1-0.4,1.4-1.5,0.9-2.5C91.9,221.9,90.9,221.4,89.8,221.8z"/>
</g>
<g class="st0">
	<path class="st3" d="M96,219.9l2.1,3.5l-1.1,0.7l-3.1-5.2l1.1-0.7l4.4,1.9l-2-3.3l1.1-0.7l3.1,5.2l-1.1,0.6L96,219.9z"/>
</g>
<path class="st2" d="M31.9,102.8C10.3,81.7,9.9,47.1,31,25.5s55.7-22,77.3-0.9s22,55.7,0.9,77.3c-10.3,10.5-24.4,16.5-39.1,16.5"/>
<g class="st0">
	<path class="st3" d="M33.9,130.5l1.4,3.9l-0.4,0.3l-3.7-1.9l2.5,2.9l-0.9,0.7l-3.5-4l1.2-1l3.2,1.7l-1.2-3.4l1.2-1.1l3.5,4
		l-0.9,0.8L33.9,130.5z"/>
</g>
<g class="st0">
	<path class="st3" d="M37.9,125.6c1.3-0.9,3-0.6,3.8,0.8c0.9,1.3,0.5,2.9-0.8,3.8c-1.3,0.9-2.9,0.6-3.8-0.8
		C36.2,128.1,36.5,126.5,37.9,125.6z M38.4,126.5c-0.8,0.5-0.9,1.5-0.4,2.3c0.5,0.8,1.5,1.1,2.3,0.6c0.8-0.5,0.9-1.5,0.4-2.3
		C40.2,126.2,39.2,125.9,38.4,126.5z"/>
</g>
<g class="st0">
	<path class="st3" d="M44,124.1l1.6,3.2l-1,0.5l-2.4-4.8l1-0.5l3.7,2l-1.5-3.1l1-0.5l2.4,4.8l-1,0.5L44,124.1z"/>
</g>
<g class="st0">
	<path class="st3" d="M48.8,120l3.5-1.3l0.3,0.9l-2.5,0.9l0.4,1.1l2.4-0.9l0.3,0.9l-2.4,0.9l0.4,1.2l2.5-0.9l0.3,0.9l-3.5,1.3
		L48.8,120z"/>
</g>
<g class="st0">
	<path class="st3" d="M55.9,118.7l-1.5,0.4l-0.2-1l4.1-1l0.2,1l-1.5,0.4l1.1,4.2l-1.1,0.3L55.9,118.7z"/>
</g>
<g class="st0">
	<path class="st3" d="M63.8,120.6l-2.4,0.4l-0.2,1l-1.2,0.2l1.2-5.6l1.4-0.2l2.8,5l-1.2,0.2L63.8,120.6z M61.6,119.9l1.7-0.3
		l-1.2-2.3L61.6,119.9z"/>
</g>
<g class="st0">
	<path class="st3" d="M68.7,119.2l-0.8,0l0.1,1.9l-1.1,0l-0.2-5.3l2.5-0.1c1.1,0,1.8,0.7,1.9,1.6c0,0.9-0.5,1.5-1.1,1.6l1.3,2
		l-1.3,0.1L68.7,119.2z M69,116.7l-1.2,0l0.1,1.5l1.2,0c0.5,0,0.8-0.3,0.8-0.8S69.4,116.7,69,116.7z"/>
</g>
<g class="st0">
	<path class="st3" d="M72.7,115.7l1.1-0.1l0.3,5.3L73,121L72.7,115.7z"/>
</g>
<g class="st0">
	<path class="st3" d="M76.5,119.2c0.4,0.3,1,0.6,1.8,0.5c0.6-0.1,0.9-0.4,0.8-0.7c-0.1-0.4-0.5-0.5-1.2-0.5c-0.9-0.1-2-0.2-2.2-1.4
		c-0.1-0.9,0.5-1.7,1.8-1.9c0.8-0.1,1.6,0,2.2,0.5l-0.5,0.9c-0.5-0.3-1.1-0.4-1.6-0.4c-0.5,0.1-0.7,0.3-0.7,0.6
		c0,0.4,0.5,0.4,1.1,0.5c0.9,0.1,2,0.2,2.2,1.4c0.1,1-0.5,1.8-1.9,2c-1,0.1-1.8-0.1-2.4-0.5L76.5,119.2z"/>
</g>
<g class="st0">
	<path class="st3" d="M81.3,114.7l1.1-0.2l1.2,5.2l-1.1,0.2L81.3,114.7z"/>
</g>
<g class="st0">
	<path class="st3" d="M84.2,114l3.6-1.1l0.3,0.9l-2.5,0.8l0.4,1.1l2.5-0.8l0.3,0.9l-2.5,0.8l0.4,1.2l2.5-0.8l0.3,0.9l-3.6,1.1
		L84.2,114z"/>
</g>
<g class="st0">
	<path class="st3" d="M92.5,114.6l-0.8,0.3l0.8,1.7l-1,0.5l-2.2-4.9l2.3-1c1-0.5,1.9-0.1,2.3,0.8c0.4,0.9,0.1,1.6-0.4,1.9l1.9,1.4
		l-1.2,0.5L92.5,114.6z M91.8,112.2l-1.1,0.5l0.6,1.3l1.1-0.5c0.4-0.2,0.6-0.6,0.4-1S92.3,112,91.8,112.2z"/>
</g>
<g class="st0">
	<path class="st3" d="M94.6,109.8l1-0.6l1.6,2.7c0.4,0.6,1,0.9,1.7,0.4c0.7-0.4,0.8-1.1,0.4-1.7l-1.6-2.7l1-0.6l1.7,2.7
		c0.7,1.1,0.5,2.3-0.9,3.1c-1.4,0.8-2.5,0.5-3.2-0.6L94.6,109.8z"/>
</g>
<g class="st0">
	<path class="st3" d="M102.2,106.9l2.3,2.8l-0.9,0.7l-3.4-4.1l0.9-0.7l4.1,1.1l-2.2-2.7l0.9-0.7l3.4,4.1l-0.9,0.7L102.2,106.9z"/>
</g>
<g class="st0">
	<path class="st3" d="M106.9,100c0.8-0.8,1.6-0.9,2.4-0.8l-0.3,1c-0.4-0.1-1,0.1-1.4,0.5c-0.7,0.7-0.6,1.7,0.1,2.4
		c0.7,0.7,1.8,0.7,2.4,0c0.3-0.4,0.5-0.8,0.5-1.1l-0.5-0.4l-1,1l-0.7-0.7l1.8-1.9l1.5,1.4c0.1,0.8-0.2,1.6-0.8,2.4
		c-1.1,1.1-2.8,1.3-4,0.2C105.7,102.8,105.8,101.2,106.9,100z"/>
</g>
<polygon class="st3" points="105.3,65.1 110.8,62.4 121,82.7 140.4,74.9 142.6,80.6 118.1,90.4 "/>
<polygon class="st3" points="87.8,32.8 87.8,26.8 110.5,26.7 112.2,5.9 118.3,6.4 116.1,32.7 "/>
<polygon class="st3" points="134.2,214.3 128.5,216.6 119.9,195.6 100,201.8 98.1,196 123.4,188.1 "/>
<polygon class="st3" points="0,206.2 0.4,200.1 23.1,201.7 26.4,181.1 32.4,182.1 28.3,208.2 "/>
<polygon class="st3" points="6.1,132.4 11.7,130.1 20.4,151.1 40.3,144.8 42.2,150.6 16.9,158.6 "/>
<g class="st0">
	<path class="st3" d="M44.9,12.4l2.2-0.9c1.7-0.8,3.4-0.2,4.1,1.5c0.7,1.7,0,3.3-1.7,4l-2.2,0.9L44.9,12.4z M49,16
		c1.1-0.5,1.4-1.5,1-2.5c-0.4-1-1.3-1.5-2.5-1l-1,0.4l1.5,3.4L49,16z"/>
</g>
<g class="st0">
	<path class="st3" d="M52.3,9.5l1.2-0.4l1.8,5.7l-1.2,0.4L52.3,9.5z"/>
</g>
<g class="st0">
	<path class="st3" d="M56.1,8.3l4.2-0.9l0.2,1.1l-2.9,0.6l0.3,1.3l2.8-0.6l0.2,1.1l-2.8,0.6l0.3,1.4l2.9-0.6l0.2,1.1l-4.2,0.9
		L56.1,8.3z"/>
</g>
<g class="st0">
	<path class="st3" d="M62.9,7l3.1-0.2c1.1-0.1,1.8,0.6,1.8,1.4C68,8.9,67.5,9.5,67,9.6c0.6,0,1.2,0.6,1.3,1.4
		c0.1,0.9-0.5,1.7-1.6,1.8L63.4,13L62.9,7z M66,9.2c0.4,0,0.7-0.3,0.6-0.7c0-0.4-0.3-0.6-0.8-0.6L64.3,8l0.1,1.3L66,9.2z M66.2,11.7
		c0.5,0,0.8-0.3,0.7-0.8c0-0.4-0.3-0.7-0.8-0.6l-1.6,0.1l0.1,1.4L66.2,11.7z"/>
</g>
<g class="st0">
	<path class="st3" d="M70.6,10.8c0.4,0.5,1,0.9,1.9,0.9c0.7,0,1.1-0.3,1.1-0.6c0-0.4-0.5-0.6-1.2-0.8c-1-0.3-2.2-0.6-2.2-1.9
		c0-1,0.9-1.8,2.4-1.7c1,0,1.7,0.4,2.3,0.9l-0.8,0.9C73.6,8,73,7.7,72.4,7.7c-0.6,0-0.9,0.2-0.9,0.6c0,0.4,0.5,0.6,1.2,0.7
		c1,0.3,2.2,0.6,2.2,1.9c0,1.1-0.9,1.9-2.5,1.8c-1.2,0-2-0.5-2.5-1.1L70.6,10.8z"/>
</g>
<g class="st0">
	<path class="st3" d="M78.6,8.4l-1.7-0.3L77,7l4.7,0.8l-0.2,1.1l-1.7-0.3L79,13.4l-1.3-0.2L78.6,8.4z"/>
</g>
<g class="st0">
	<path class="st3" d="M85.8,14l-2.6-0.7l-0.7,0.9l-1.3-0.4l3.9-5.1l1.5,0.4l0.6,6.4l-1.3-0.4L85.8,14z M83.9,12.3l1.9,0.6l-0.2-2.9
		L83.9,12.3z"/>
</g>
<g class="st0">
	<path class="st3" d="M93.3,15.4l-2.6-1.2l-1,2.3L88.6,16l2.5-5.5l1.2,0.5l-1,2.2l2.6,1.2l1-2.2l1.2,0.5l-2.5,5.5l-1.2-0.5
		L93.3,15.4z"/>
</g>
<g class="st0">
	<path class="st3" d="M98.4,14.1l1.1,0.7l-2.5,4.2l2.2,1.3l-0.6,1l-3.3-2L98.4,14.1z"/>
</g>
<polygon class="st3" points="39,47 32.9,47 32.9,24.2 12.1,22.5 12.6,16.4 39,18.6 "/>
<path class="st4" d="M78,52l-1.5,0.1l0,0l-3.6-2.8c-1.1-0.9-2.7-1-3.9-0.1l-3.9,2.9L63.6,52c-2.9-0.1-5.1-1-5.1,3S59,65.4,59,65.4
	s-0.3,4.8,5.2,8.9c4.8,3.5,6.6,4.8,6.6,4.8l0,0c0,0,1.8-1.3,6.6-4.8c5.5-4.1,5.2-8.9,5.2-8.9S83.1,59,83.1,55S80.9,51.9,78,52"/>
<polyline class="st5" points="105.3,55.4 98.5,62.5 91.5,55.6 "/>
<polyline class="st5" points="36.3,70.6 43.1,63.4 50.2,70.3 "/>
<path class="st5" d="M98.2,67.2c-2.1,15.1-16.1,25.7-31.3,23.6c-13.6-1.9-23.8-13.5-23.8-27.3"/>
<path class="st5" d="M43.4,58.8c2.2-15.1,16.2-25.6,31.3-23.5c13.6,1.9,23.7,13.5,23.8,27.2"/>
<path class="st6" d="M109.2,134.8c21.1,21.6,20.7,56.2-0.9,77.3s-56.2,20.7-77.3-0.9c-21.1-21.6-20.7-56.2,0.9-77.3
	c10.2-10,23.9-15.6,38.2-15.6"/>
<path class="st6" d="M31.9,102.8C10.3,81.7,9.9,47.1,31,25.5s55.7-22,77.3-0.9s22,55.7,0.9,77.3c-10.3,10.5-24.4,16.5-39.1,16.5"/>
</svg>
