<svg xmlns="http://www.w3.org/2000/svg" viewBox="0 0 1481 701"><defs><style>.cls-1,.cls-16,.cls-20,.cls-22{fill:#fff;}.cls-1{stroke:#231f20;}.cls-1,.cls-14,.cls-2,.cls-4{stroke-miterlimit:10;}.cls-14,.cls-2,.cls-21,.cls-23,.cls-4{fill:none;}.cls-2{stroke:#00a0e3;}.cls-14,.cls-2{stroke-width:2px;}.cls-3{fill:#00a0e3;}.cls-21,.cls-23,.cls-4{stroke:#808184;}.cls-12,.cls-18,.cls-5,.cls-7,.cls-9{font-size:23px;}.cls-12,.cls-18,.cls-25,.cls-5,.cls-7,.cls-9{fill:#808184;}.cls-12,.cls-16,.cls-18,.cls-5,.cls-7,.cls-9{font-family:ProximaNova-Semibold, Proxima Nova;font-weight:600;}.cls-10,.cls-5{letter-spacing:0.02em;}.cls-6{letter-spacing:0.01em;}.cls-11,.cls-7{letter-spacing:-0.02em;}.cls-18,.cls-8{letter-spacing:0.01em;}.cls-12{letter-spacing:0em;}.cls-13{letter-spacing:-0.09em;}.cls-14{stroke:#404041;}.cls-15{fill:#404041;}.cls-16{font-size:25.89px;}.cls-17{letter-spacing:-0.01em;}.cls-19{fill:#1a9fd9;}.cls-20{font-size:25.85px;letter-spacing:0.01em;}.cls-20,.cls-22{font-family:ProximaNova-Bold, Proxima Nova;font-weight:700;}.cls-21,.cls-23{stroke-linecap:round;stroke-linejoin:round;stroke-width:1.5px;}.cls-21{fill-rule:evenodd;}.cls-22{font-size:18.8px;letter-spacing:0.01em;}.cls-24{letter-spacing:0em;}.cls-25{font-size:27.66px;font-family:ProximaNova-Regular, Proxima Nova;}</style></defs><g id="Layer_2" data-name="Layer 2"><g id="Layer_1-2" data-name="Layer 1"><rect class="cls-1" x="0.5" y="0.5" width="1480" height="700"/><line class="cls-2" x1="498.23" y1="350.5" x2="459.08" y2="350.5"/><polygon class="cls-3" points="490.34 340.77 488.72 342.51 497.31 350.5 488.72 358.49 490.34 360.23 500.81 350.5 490.34 340.77"/><line class="cls-2" x1="1019.34" y1="350.5" x2="980.19" y2="350.5"/><polygon class="cls-3" points="1011.45 340.77 1009.83 342.51 1018.42 350.5 1009.83 358.49 1011.45 360.23 1021.92 350.5 1011.45 340.77"/><rect class="cls-4" x="76.56" y="154.02" width="285.66" height="43.98" rx="8"/><text class="cls-5" transform="translate(170.17 182.93)">RE<tspan class="cls-6" x="28.4" y="0">S</tspan><tspan x="42.18" y="0">T API</tspan></text><rect class="cls-4" x="76.56" y="236.36" width="285.66" height="43.98" rx="8"/><text class="cls-7" transform="translate(169.45 265.28)">W<tspan class="cls-8" x="20.19" y="0">ebhook</tspan></text><rect class="cls-4" x="76.56" y="318.71" width="285.66" height="43.98" rx="8"/><text class="cls-9" transform="translate(165.25 347.63)"><tspan class="cls-8">GUI </tspan><tspan x="46.28" y="0">P</tspan><tspan class="cls-10" x="60.26" y="0">ortal</tspan></text><rect class="cls-4" x="76.56" y="401.06" width="285.66" height="43.98" rx="8"/><text class="cls-5" transform="translate(135.65 429.98)">CI/CD <tspan class="cls-11" x="68.88" y="0">W</tspan><tspan class="cls-8" x="89.08" y="0">orkflow</tspan></text><rect class="cls-4" x="76.56" y="483.41" width="285.66" height="43.98" rx="8"/><text class="cls-12" transform="translate(127.24 512.32)">A<tspan class="cls-8" x="15.53" y="0">utomation </tspan><tspan class="cls-13" x="129.03" y="0">T</tspan><tspan class="cls-8" x="140.23" y="0">ools</tspan></text><rect class="cls-4" x="76.56" y="565.76" width="285.66" height="43.98" rx="8"/><text class="cls-5" transform="translate(162.73 594.67)">CLI Scripts</text><rect class="cls-14" x="23.36" y="64.22" width="392.06" height="613.95" rx="12"/><rect class="cls-15" x="103.18" y="22.83" width="232.43" height="82.8" rx="6"/><text class="cls-16" transform="translate(175.06 55.85)">Service <tspan x="-14.54" y="31.07">Interfaces</tspan></text><rect class="cls-14" x="545.04" y="65.66" width="392.06" height="613.95" rx="12"/><rect class="cls-15" x="624.29" y="24.26" width="232.43" height="82.8" rx="6"/><text class="cls-16" transform="translate(671.68 57.29)"><tspan class="cls-17">A</tspan><tspan x="17.09" y="0">utomation</tspan><tspan x="-10.63" y="31.07">Infrastructure</tspan></text><text class="cls-18" transform="translate(1208.37 267.72)">Hardware</text><text class="cls-18" transform="translate(1173.88 418.05)">Multi-<tspan class="cls-13" x="59.64" y="0">T</tspan><tspan x="70.84" y="0">enant SW</tspan></text><text class="cls-9" transform="translate(1198.14 640.56)">P<tspan class="cls-10" x="13.98" y="0">er-App SW</tspan></text><rect class="cls-14" x="1065.58" y="65.66" width="392.06" height="613.95" rx="12"/><rect class="cls-15" x="1145.4" y="24.26" width="232.43" height="82.8" rx="6"/><text class="cls-16" transform="translate(1217.29 57.29)">Service<tspan x="-35.12" y="31.07">Infrastructure</tspan></text><rect class="cls-19" x="1228.88" y="305.7" width="62.15" height="29.15" rx="3.3"/><text class="cls-20" transform="translate(1243.26 328.05)">VE</text><path class="cls-21" d="M1314,348.24H1205.91a6.94,6.94,0,0,0-7.06,7v14a7.08,7.08,0,0,0,7.06,7H1314a7.08,7.08,0,0,0,7.06-7v-14a6.94,6.94,0,0,0-7.06-7Zm-54,21.51a7.54,7.54,0,1,1,0-15.08,7.54,7.54,0,1,1,0,15.08Z"/><rect class="cls-19" x="1173.55" y="466.27" width="45.2" height="21.2" rx="3.3"/><text class="cls-22" transform="translate(1184.01 482.52)">VE</text><path class="cls-21" d="M1235.46,497.21h-78.61a5,5,0,0,0-5.14,5.07v10.16a5.15,5.15,0,0,0,5.14,5.08h78.61a5.14,5.14,0,0,0,5.13-5.08V502.28a5,5,0,0,0-5.13-5.07Zm-39.31,15.64a5.49,5.49,0,1,1,0-11,5.49,5.49,0,1,1,0,11Z"/><rect class="cls-19" x="1300.91" y="466.27" width="45.2" height="21.2" rx="3.3"/><text class="cls-22" transform="translate(1311.37 482.52)">VE</text><path class="cls-21" d="M1362.81,497.21h-78.6a5,5,0,0,0-5.14,5.07v10.16a5.15,5.15,0,0,0,5.14,5.08h78.6a5.15,5.15,0,0,0,5.14-5.08V502.28a5,5,0,0,0-5.14-5.07Zm-39.3,15.64a5.49,5.49,0,1,1,0-11,5.49,5.49,0,1,1,0,11Z"/><rect class="cls-19" x="1173.55" y="531.85" width="45.2" height="21.2" rx="3.3"/><text class="cls-22" transform="translate(1184.01 548.11)">VE</text><path class="cls-21" d="M1235.46,562.8h-78.61a5,5,0,0,0-5.14,5.07V578a5.15,5.15,0,0,0,5.14,5.08h78.61a5.14,5.14,0,0,0,5.13-5.08V567.87a5,5,0,0,0-5.13-5.07Zm-39.31,15.64a5.49,5.49,0,1,1,0-11,5.49,5.49,0,1,1,0,11Z"/><rect class="cls-19" x="1300.91" y="531.85" width="45.2" height="21.2" rx="3.3"/><text class="cls-22" transform="translate(1311.37 548.11)">VE</text><path class="cls-21" d="M1362.81,562.8h-78.6a5,5,0,0,0-5.14,5.07V578a5.15,5.15,0,0,0,5.14,5.08h78.6A5.15,5.15,0,0,0,1368,578V567.87a5,5,0,0,0-5.14-5.07Zm-39.3,15.64a5.49,5.49,0,1,1,0-11,5.49,5.49,0,1,1,0,11Z"/><line class="cls-23" x1="1217.43" y1="207.38" x2="1217.43" y2="219.7"/><line class="cls-23" x1="1205.02" y1="207.38" x2="1205.02" y2="219.7"/><line class="cls-23" x1="1192.61" y1="207.38" x2="1192.61" y2="219.7"/><line class="cls-23" x1="1217.43" y1="182.75" x2="1217.43" y2="195.07"/><line class="cls-23" x1="1205.02" y1="182.75" x2="1205.02" y2="195.07"/><line class="cls-23" x1="1192.61" y1="182.75" x2="1192.61" y2="195.07"/><line class="cls-23" x1="1217.43" y1="158.12" x2="1217.43" y2="170.44"/><line class="cls-23" x1="1205.02" y1="158.12" x2="1205.02" y2="170.44"/><line class="cls-23" x1="1192.61" y1="158.12" x2="1192.61" y2="170.44"/><ellipse class="cls-23" cx="1124.34" cy="164.28" rx="2.07" ry="2.05"/><ellipse class="cls-23" cx="1124.34" cy="188.91" rx="2.07" ry="2.05"/><ellipse class="cls-23" cx="1124.34" cy="213.54" rx="2.07" ry="2.05"/><path class="cls-23" d="M1116.95,203.28h109.86a3,3,0,0,1,3,3v14.54a3,3,0,0,1-3,3H1116.95a3,3,0,0,1-3-3V206.23A3,3,0,0,1,1116.95,203.28Z"/><rect class="cls-23" x="1114" y="178.65" width="115.85" height="20.53" rx="2.95"/><rect class="cls-23" x="1114" y="154.02" width="115.85" height="20.53" rx="2.95"/><line class="cls-23" x1="1401" y1="207.38" x2="1401" y2="219.7"/><line class="cls-23" x1="1388.58" y1="207.38" x2="1388.58" y2="219.7"/><line class="cls-23" x1="1376.17" y1="207.38" x2="1376.17" y2="219.7"/><line class="cls-23" x1="1401" y1="182.75" x2="1401" y2="195.07"/><line class="cls-23" x1="1388.58" y1="182.75" x2="1388.58" y2="195.07"/><line class="cls-23" x1="1376.17" y1="182.75" x2="1376.17" y2="195.07"/><line class="cls-23" x1="1401" y1="158.12" x2="1401" y2="170.44"/><line class="cls-23" x1="1388.58" y1="158.12" x2="1388.58" y2="170.44"/><line class="cls-23" x1="1376.17" y1="158.12" x2="1376.17" y2="170.44"/><ellipse class="cls-23" cx="1307.91" cy="164.28" rx="2.07" ry="2.05"/><ellipse class="cls-23" cx="1307.91" cy="188.91" rx="2.07" ry="2.05"/><ellipse class="cls-23" cx="1307.91" cy="213.54" rx="2.07" ry="2.05"/><path class="cls-23" d="M1300.51,203.28h109.86a3,3,0,0,1,3,3v14.54a3,3,0,0,1-3,3H1300.51a3,3,0,0,1-3-3V206.23a3,3,0,0,1,3-3Z"/><rect class="cls-23" x="1297.56" y="178.65" width="115.85" height="20.53" rx="2.95"/><rect class="cls-23" x="1297.56" y="154.02" width="115.85" height="20.53" rx="2.95"/><text class="cls-5" transform="translate(679.29 640.56)">Ecosystem </text><text class="cls-18" transform="translate(611.4 294.86)">F5 <tspan class="cls-24" x="33.67" y="0">A</tspan><tspan x="49.2" y="0">utomation </tspan><tspan class="cls-13" x="162.7" y="0">T</tspan><tspan class="cls-10" x="173.9" y="0">oolchain</tspan></text><path class="cls-23" d="M742.18,530.06H746a10.16,10.16,0,0,1,10.21,10.27"/><path class="cls-23" d="M733.79,521.66a8.4,8.4,0,1,0,8.4-8.41A8.4,8.4,0,0,0,733.79,521.66Z"/><path class="cls-23" d="M720.53,539.84h-4.65a12.51,12.51,0,0,0-12.56,12.65v12.58"/><path class="cls-23" d="M719.34,539.84H724a12.44,12.44,0,0,1,10.72,6"/><path class="cls-23" d="M731.35,528.63a11.21,11.21,0,1,1-11.21-11.21A11.21,11.21,0,0,1,731.35,528.63Z"/><path class="cls-23" d="M743.86,571v-.2H733.51V571a38.73,38.73,0,0,0,1.87,12,63.62,63.62,0,0,1,9.11-1.47A83.75,83.75,0,0,1,743.86,571Z"/><path class="cls-23" d="M744.49,581.51a63.62,63.62,0,0,0-9.11,1.47c2.16,6.58,6,11.69,10.78,14.06l.65.15a29.66,29.66,0,0,0,3.44.46C747.64,595.64,745.5,589.55,744.49,581.51Z"/><path class="cls-23" d="M759.72,560.14a84.57,84.57,0,0,1,.68,10.69h10.34a38.41,38.41,0,0,0-1.94-12.13A63.85,63.85,0,0,1,759.72,560.14Z"/><path class="cls-23" d="M759.77,581.51q-1.18-.1-2.43-.18c-1.69-.1-3.43-.16-5.21-.16-2.66,0-5.22.12-7.64.34,1,8,3.15,14.13,5.76,16.14.62,0,1.25.07,1.88.07s1.24,0,1.86-.08h0C756.62,595.62,758.76,589.53,759.77,581.51Z"/><path class="cls-23" d="M754,597.63h0a27.49,27.49,0,0,0,4.08-.61c4.75-2.37,8.64-7.47,10.81-14a62.25,62.25,0,0,0-9.11-1.47C758.76,589.53,756.62,595.62,754,597.63Z"/><path class="cls-23" d="M760.4,571a83.63,83.63,0,0,1-.63,10.48,62.25,62.25,0,0,1,9.11,1.47,38.73,38.73,0,0,0,1.87-12c0-.05,0-.09,0-.13H760.4Z"/><path class="cls-23" d="M744.55,560.15a63.62,63.62,0,0,1-9.08-1.44,38.34,38.34,0,0,0-2,12.12h10.35A82.52,82.52,0,0,1,744.55,560.15Z"/><path class="cls-23" d="M752.13,560.49c-1.82,0-3.6-.06-5.33-.17-.76,0-1.51-.1-2.25-.17a82.52,82.52,0,0,0-.69,10.68H760.4a84.57,84.57,0,0,0-.68-10.69q-.74.08-1.47.12C756.28,560.4,754.24,560.49,752.13,560.49Z"/><path class="cls-23" d="M743.86,571a83.75,83.75,0,0,0,.63,10.48c2.42-.22,5-.34,7.64-.34,1.78,0,3.53.06,5.21.16q1.24.07,2.43.18A83.63,83.63,0,0,0,760.4,571v-.2H743.86Z"/><path class="cls-23" d="M759,555.74h0c.28,1.38.52,2.86.73,4.4a63.46,63.46,0,0,0,9.07-1.44,30.12,30.12,0,0,0-1.23-3.14c-2.46-5.4-6.19-9.42-10.55-11.17a26.94,26.94,0,0,0-3.73-.42,3.37,3.37,0,0,1,.45.25C755.91,545.63,757.79,549.87,759,555.74Z"/><path class="cls-23" d="M745.39,555.2c-.33,1.54-.61,3.2-.84,4.95.74.07,1.49.12,2.26.17,1.72.11,3.5.17,5.32.17,2.11,0,4.15-.09,6.12-.23q.74,0,1.47-.12c-.21-1.54-.45-3-.73-4.4-1.2-5.87-3.08-10.11-5.26-11.52a3.37,3.37,0,0,0-.45-.25c-.38,0-.76,0-1.15,0L751,544C748.67,545.05,746.68,549.24,745.39,555.2Z"/><path class="cls-23" d="M745.39,555.2c1.29-6,3.28-10.15,5.57-11.23a27.8,27.8,0,0,0-3.68.41c-4.22,1.69-7.84,5.51-10.31,10.64a33.05,33.05,0,0,0-1.5,3.69,63.39,63.39,0,0,0,9.08,1.44C744.78,558.4,745.06,556.74,745.39,555.2Z"/><path class="cls-23" d="M746.16,597c-4.73-2.37-8.62-7.48-10.78-14.06a34.3,34.3,0,0,0-5.15,1.67c-.32.14-.62.28-.91.43A26.9,26.9,0,0,0,746.16,597Z"/><path class="cls-23" d="M770.74,570.83s0,.08,0,.13a38.73,38.73,0,0,1-1.87,12,31.49,31.49,0,0,1,5.54,1.84h0l.52.24A26.73,26.73,0,0,0,779,570.83Z"/><path class="cls-23" d="M768.88,583c-2.17,6.58-6.06,11.69-10.81,14l.18,0a26.94,26.94,0,0,0,16.69-11.93l-.52-.24A31.49,31.49,0,0,0,768.88,583Z"/><path class="cls-23" d="M757.34,544.45l-.33-.05c4.36,1.74,8.09,5.76,10.55,11.16h0a30.12,30.12,0,0,1,1.23,3.14,30.24,30.24,0,0,0,6.15-2.11c-.17-.27-.34-.54-.52-.8A26.89,26.89,0,0,0,757.34,544.45Z"/><path class="cls-23" d="M770.74,570.83H779a26.71,26.71,0,0,0-4.08-14.24,30.57,30.57,0,0,1-6.14,2.11A38.41,38.41,0,0,1,770.74,570.83Z"/><path class="cls-23" d="M735.47,558.71a30.46,30.46,0,0,1-6.13-2.11,26.69,26.69,0,0,0-4.1,14.23h8.28A38.06,38.06,0,0,1,735.47,558.71Z"/><path class="cls-23" d="M735.38,583a38.73,38.73,0,0,1-1.87-12v-.13h-8.27a26.85,26.85,0,0,0,4.08,14.25c.29-.15.59-.29.91-.43A34.3,34.3,0,0,1,735.38,583Z"/><path class="cls-23" d="M737,555c2.47-5.13,6.09-8.95,10.31-10.64a26.89,26.89,0,0,0-17,10.88c-.31.44-.61.89-.89,1.34a30.46,30.46,0,0,0,6.13,2.11A33.05,33.05,0,0,1,737,555Z"/><path class="cls-23" d="M793.5,403.26a52.43,52.43,0,1,1-52.43-52.43A52.42,52.42,0,0,1,793.5,403.26Z"/><text class="cls-25" transform="translate(701.17 413.22)">BIG-IQ</text><circle class="cls-23" cx="741.07" cy="202.68" r="23.72"/><path class="cls-23" d="M745.3,155.27l2.5,12.48c.2,0,.41.07.61.12a33.74,33.74,0,0,1,4.66,1.32l8.1-9.66"/><path class="cls-23" d="M747.8,167.75l-2.5-12.48a46.81,46.81,0,0,0-8.37,0l-2.19,12.42"/><path class="cls-23" d="M768.42,163.7l-4.07,12.07a36.33,36.33,0,0,1,3.66,3.68L779.82,175"/><path class="cls-23" d="M764.35,175.77l4.07-12.07a47.07,47.07,0,0,0-7.25-4.17l-8.1,9.66"/><path class="cls-23" d="M729.17,169.15l-8.46-9.5a48,48,0,0,0-7.23,4.24l4.4,11.81"/><path class="cls-23" d="M720.71,159.65l8.46,9.5a35.14,35.14,0,0,1,5.57-1.48l2.19-12.42"/><path class="cls-23" d="M768,225.93,780.06,230a47.07,47.07,0,0,0,4.17-7.25l-9.67-8.1"/><path class="cls-23" d="M702.14,175.27l12.06,4.09a36.33,36.33,0,0,1,3.68-3.66l-4.4-11.81"/><path class="cls-23" d="M774.58,190.73l9.48-8.48a47.41,47.41,0,0,0-4.24-7.22L768,179.45"/><path class="cls-23" d="M788.48,206.88,776,209.38c0,.21-.07.42-.12.64a33.73,33.73,0,0,1-1.32,4.63l9.67,8.1"/><path class="cls-23" d="M776,209.38l12.48-2.5a46.93,46.93,0,0,0,0-8.38l-12.42-2.18"/><path class="cls-23" d="M784.06,182.25l-9.48,8.48a35.43,35.43,0,0,1,1.5,5.59l12.42,2.18"/><path class="cls-23" d="M753,236.18l8.48,9.47a47.41,47.41,0,0,0,7.22-4.24l-4.42-11.81"/><path class="cls-23" d="M736.75,250.07l-2.47-12.48-.55-.11a36.56,36.56,0,0,1-4.72-1.34l-8.12,9.65"/><path class="cls-23" d="M734.28,237.59l2.47,12.48a47.9,47.9,0,0,0,8.38,0l2.21-12.42"/><path class="cls-23" d="M761.52,245.65,753,236.18a35.41,35.41,0,0,1-5.7,1.51l-2.21,12.42"/><path class="cls-23" d="M780.06,230,768,225.93a34.37,34.37,0,0,1-3.67,3.67l4.42,11.81"/><path class="cls-23" d="M717.75,229.54l-4.1,12.05a47.6,47.6,0,0,0,7.24,4.2l8.12-9.65"/><path class="cls-23" d="M693.67,198.38l12.49-2.48c0-.19.06-.38.1-.57a37.93,37.93,0,0,1,1.34-4.7L698,182.52"/><path class="cls-23" d="M714.2,179.36l-12.06-4.09a48.5,48.5,0,0,0-4.19,7.25l9.65,8.11"/><path class="cls-23" d="M706.16,195.9l-12.49,2.48a46.82,46.82,0,0,0,0,8.37L706.06,209"/><path class="cls-23" d="M707.54,214.56,698,223a48,48,0,0,0,4.24,7.23l11.81-4.4"/><path class="cls-23" d="M713.65,241.59l4.1-12.05a37.49,37.49,0,0,1-3.66-3.69l-11.81,4.4"/><path class="cls-23" d="M698,223l9.5-8.46a35.5,35.5,0,0,1-1.48-5.6l-12.42-2.21"/><path class="cls-23" d="M750.31,217.81l-6.6-6.72-3-4.24c-3.34-1.35-4.28-3.15-4.28-3.15l1.88-1.87-5.55-5.52a30.19,30.19,0,0,0-2.93-1.24l-3-4.2,1.55-1.55,4.21,3a28,28,0,0,0,1.23,2.92l5.52,5.55,1.87-1.87s1.8.94,3.15,4.28l4.24,3,6.72,6.6Z"/><path class="cls-23" d="M735.54,204.58l-7.81,7.87a3.1,3.1,0,0,0,4.38,4.38l8.27-8.34"/><path class="cls-23" d="M745.94,202.9l1.76-1.78a6,6,0,0,0,7.53-5.92L751,197.46l-.08,0-2.61-1.67.21-3,4.34-2.29a5.7,5.7,0,0,0-1.52-.82,6,6,0,0,0-7.87,6.91L742,198.05"/><circle class="cls-23" cx="730.38" cy="214.22" r="1.21"/></g></g></svg>