<svg id="Layer_1" data-name="Layer 1" xmlns="http://www.w3.org/2000/svg" viewBox="0 0 531.02156 268.60794"><defs><style>.cls-1,.cls-10,.cls-11,.cls-12,.cls-3,.cls-4,.cls-7,.cls-8,.cls-9{fill:none;}.cls-1{stroke:#999;}.cls-1,.cls-11,.cls-12,.cls-3,.cls-4,.cls-7,.cls-9{stroke-linecap:round;}.cls-1,.cls-10,.cls-8{stroke-miterlimit:10;}.cls-2{fill:#999;}.cls-10,.cls-11,.cls-12,.cls-3,.cls-4,.cls-7,.cls-8,.cls-9{stroke:#000;}.cls-11,.cls-12,.cls-3,.cls-4,.cls-7,.cls-9{stroke-linejoin:round;}.cls-3{stroke-width:0.75px;}.cls-5{fill:#343434;}.cls-6{fill:#fff;}.cls-7{stroke-width:0.99805px;}.cls-10,.cls-11,.cls-9{stroke-width:1.00548px;}.cls-11{stroke-dasharray:0.82461 1.92409;}.cls-12{stroke-width:0.97643px;}</style></defs><line class="cls-1" x1="92.35745" y1="71.43278" x2="225.83636" y2="70.87634"/><polygon class="cls-2" points="222.54 74.98 221.855 74.25 225.453 70.879 221.827 67.537 222.506 66.801 226.921 70.873 222.54 74.98"/><polyline class="cls-1" points="58.772 103.496 58.733 207.626 225.836 207.626"/><polygon class="cls-2" points="222.523 211.716 221.841 210.983 225.453 207.627 221.841 204.27 222.523 203.537 226.921 207.627 222.523 211.716"/><polyline class="cls-1" points="460.01 110.057 460.01 207.626 295.34 207.626"/><polygon class="cls-2" points="298.654 203.536 299.336 204.269 295.724 207.625 299.336 210.982 298.654 211.715 294.256 207.625 298.654 203.536"/><path d="M479.80619,65.26168a.39905.39905,0,1,1,.40918-.39892A.40532.40532,0,0,1,479.80619,65.26168Z"/><path d="M479.80573,64.84886l-.024.01213a.02449.02449,0,0,1,.024-.01213m0-.77035a.78417.78417,0,1,0,.79441.78411.78932.78932,0,0,0-.79441-.78411Z"/><line class="cls-3" x1="484.0404" y1="91.0188" x2="488.28331" y2="91.0188"/><path class="cls-4" d="M494.64766,85.735v5.80947A1.05552,1.05552,0,0,1,493.58843,92.59H478.75915a1.05552,1.05552,0,0,1-1.05923-1.04548V64.36206a1.05552,1.05552,0,0,1,1.05923-1.04548h14.82928a1.05552,1.05552,0,0,1,1.05923,1.04548v5.43282"/><rect class="cls-4" x="477.69992" y="66.45302" width="16.94774" height="23.00051" rx="2.73208"/><line class="cls-3" x1="479.82163" y1="72.72588" x2="492.52919" y2="72.72588"/><line class="cls-3" x1="479.82163" y1="74.82275" x2="492.52919" y2="74.82275"/><line class="cls-3" x1="485.17727" y1="76.91962" x2="492.52919" y2="76.91962"/><line class="cls-1" x1="262.62998" y1="172.66725" x2="262.62998" y2="100.48546"/><polygon class="cls-2" points="266.72 103.799 265.987 104.481 262.631 100.869 259.274 104.481 258.541 103.799 262.631 99.401 266.72 103.799"/><circle class="cls-5" cx="73.14677" cy="134.45179" r="6.46195"/><path class="cls-6" d="M74.68656,135.96432v1.26025h-2.9707v-1.26025h.792v-3.8711h-.792v-1.26074h2.1875v5.13184Z"/><path d="M70.3477,147.34811H68.14164v1.96094H67.147v-4.67139h.99463v1.835H70.3477v-1.835h1.00146v4.67139H70.3477Z"/><path d="M72.15141,144.89645a.53223.53223,0,1,1,.53222.53271A.53664.53664,0,0,1,72.15141,144.89645Zm.09131,1.02978h.88916v3.38282h-.88916Z"/><path d="M74.10453,148.24459a1.93732,1.93732,0,0,0,1.16992.46192c.38477,0,.5669-.13282.5669-.34278,0-.23828-.294-.32226-.6792-.39941-.58106-.11182-1.33057-.25195-1.33057-1.05762,0-.56738.49707-1.06445,1.38672-1.06445a2.122,2.122,0,0,1,1.3584.4624l-.3501.60889a1.4285,1.4285,0,0,0-1.00146-.39209c-.32227,0-.53223.11914-.53223.31543,0,.21.26611.28711.64453.36425.58106.11182,1.3584.26612,1.3584,1.10645,0,.62305-.5249,1.08545-1.46387,1.08545a2.276,2.276,0,0,1-1.51269-.52539Z"/><path d="M77.52738,148.46871v-1.76513h-.56006v-.77735h.56006v-.92431h.89649v.92431h.68652v.77735h-.68652v1.52685c0,.21.1123.3711.3081.3711a.483.483,0,0,0,.30811-.09815l.18945.67236a1.09815,1.09815,0,0,1-.74267.21729A.84554.84554,0,0,1,77.52738,148.46871Z"/><path d="M79.5015,147.61422c-.14077-2.30356,3.72179-2.29678,3.57909.00019C83.22361,149.92087,79.35977,149.92777,79.5015,147.61422Zm2.6543,0a.86916.86916,0,1,0-1.73.00011A.86916.86916,0,1,0,82.1558,147.61422Z"/><path d="M83.73686,145.92623H84.626v.4624a1.4479,1.4479,0,0,1,1.07861-.53955v.86866a1.1699,1.1699,0,0,0-.24512-.021,1.12942,1.12942,0,0,0-.83349.37793v2.23438h-.88916Z"/><path d="M86.16557,144.89645a.53223.53223,0,1,1,.53222.53271A.53664.53664,0,0,1,86.16557,144.89645Zm.09131,1.02978H87.146v3.38282h-.88916Z"/><path d="M89.60355,145.84225a1.56,1.56,0,0,1,1.3379.61621l-.58155.53955a.836.836,0,0,0-.71435-.36426.98629.98629,0,0,0,0,1.96778.85388.85388,0,0,0,.71435-.36426l.58155.53955a1.56,1.56,0,0,1-1.3379.61621,1.77548,1.77548,0,1,1,0-3.55078Z"/><path d="M93.5518,148.95895a1.4,1.4,0,0,1-1.07129.43408,1.127,1.127,0,0,1-1.17676-1.12061,1.07121,1.07121,0,0,1,1.17676-1.07861,1.36717,1.36717,0,0,1,1.07129.41309v-.46924c0-.34278-.29395-.5669-.74219-.5669a1.42445,1.42445,0,0,0-.98779.39893l-.33594-.59522a2.21791,2.21791,0,0,1,1.47754-.53222c.77051,0,1.478.3081,1.478,1.28174v2.18506H93.5518Zm0-.88282a.89035.89035,0,0,0-.71436-.29394c-.3501,0-.63721.189-.63721.51123,0,.31543.28711.49756.63721.49756a.88916.88916,0,0,0,.71436-.29443Z"/><path d="M95.32182,144.63766H96.211v4.67139h-.88916Z"/><path d="M68.7017,152.84225a1.56,1.56,0,0,1,1.33789.61621l-.58154.53955a.836.836,0,0,0-.71436-.36426.98629.98629,0,0,0,0,1.96778.85513.85513,0,0,0,.71436-.36426l.58154.53906a1.55877,1.55877,0,0,1-1.33789.61621,1.77523,1.77523,0,1,1,0-3.55029Z"/><path d="M70.40189,154.61422c-.14077-2.30356,3.72179-2.29678,3.57909.00019C74.12395,156.92016,70.26021,156.92706,70.40189,154.61422Zm2.6543,0a.86916.86916,0,1,0-1.73.00011A.86916.86916,0,1,0,73.05619,154.61422Z"/><path d="M76.92045,154.26363a.54879.54879,0,0,0-.62354-.62988.964.964,0,0,0-.7705.39893v2.27588h-.88916v-3.38233h.88916v.44141a1.54884,1.54884,0,0,1,1.18359-.52539.98371.98371,0,0,1,1.09961,1.07861v2.3877h-.88916Z"/><path d="M78.88578,153.70358h-.56006v-.77735h.56006v-.18213a1.09062,1.09062,0,0,1,1.1416-1.17675,1.43915,1.43915,0,0,1,.64453.14013l-.18212.64453a.49582.49582,0,0,0-.28711-.084c-.252,0-.42041.168-.42041.47607v.18213h.68652v.77735h-.68652v2.605h-.89649Zm2.00342-1.80713a.53223.53223,0,1,1,.53223.53271A.53665.53665,0,0,1,80.8892,151.89645Zm.09082,1.02978h.88965v3.38233H80.98Z"/><path d="M82.75,152.92623h.88916v.4624a1.4479,1.4479,0,0,1,1.07861-.53955v.86866a1.16986,1.16986,0,0,0-.24511-.021,1.1308,1.1308,0,0,0-.8335.37744v2.23438H82.75Z"/><path d="M89.46537,154.17281c0-.31494-.14014-.53906-.50439-.53906a.8987.8987,0,0,0-.70069.39209v2.28272h-.89648v-2.13575c0-.31494-.13965-.53906-.50391-.53906a.90908.90908,0,0,0-.70068.39893v2.27588h-.88916v-3.38233h.88916v.44141a1.48007,1.48007,0,0,1,1.10693-.52539.89545.89545,0,0,1,.93848.61621,1.43467,1.43467,0,0,1,1.1626-.61621.90314.90314,0,0,1,.99463,1.02246v2.44385h-.89649Z"/><path d="M92.76762,152.84225a1.69629,1.69629,0,0,1,1.69482,1.86279v.19629H91.94828a.91131.91131,0,0,0,.97363.78418,1.38429,1.38429,0,0,0,.90332-.33594l.39209.57422a2.08348,2.08348,0,0,1-1.39355.46875,1.77537,1.77537,0,1,1-.05615-3.55029Zm-.8335,1.45654h1.667a.78353.78353,0,0,0-.83349-.749A.8129.8129,0,0,0,91.93412,154.29879Z"/><path d="M97.43022,155.8818a1.32631,1.32631,0,0,1-1.04346.51074c-.85449,0-1.499-.64355-1.499-1.77148,0-1.10645.63721-1.77881,1.499-1.77881a1.30255,1.30255,0,0,1,1.04346.51806v-1.72265h.89648v4.6709h-.89648Zm0-1.86279a.97858.97858,0,0,0-.77051-.38526.99369.99369,0,0,0,0,1.96778.9776.9776,0,0,0,.77051-.38575Z"/><path d="M67.32182,160.70309h-.56006v-.77735h.56006v-.18164a1.09062,1.09062,0,0,1,1.1416-1.17675,1.43939,1.43939,0,0,1,.64453.13964l-.18213.63086a.54831.54831,0,0,0-.28711-.07031c-.252,0-.42041.168-.42041.49024v.168h.68652v.77735H68.2183v2.60547h-.89648Z"/><path d="M69.41508,159.92574h.88916v.46289a1.44672,1.44672,0,0,1,1.07861-.54v.86914a1.157,1.157,0,0,0-1.07861.35644v2.23438h-.88916Z"/><path d="M73.96586,162.95895a1.40146,1.40146,0,0,1-1.07129.43359,1.12685,1.12685,0,0,1-1.17676-1.12012,1.07131,1.07131,0,0,1,1.17676-1.0791,1.36885,1.36885,0,0,1,1.07129.41309v-.46875c0-.34278-.294-.56738-.74219-.56738a1.4228,1.4228,0,0,0-.98779.39941l-.33594-.5957a2.21787,2.21787,0,0,1,1.47754-.53223c.77051,0,1.478.30859,1.478,1.28223v2.18457h-.88965Zm0-.88282a.88884.88884,0,0,0-.71436-.29394c-.35009,0-.6372.18848-.6372.51074,0,.31543.28711.498.6372.498a.88943.88943,0,0,0,.71436-.29492Z"/><path d="M78.01908,162.8818a1.58559,1.58559,0,0,1-1.19092.51074.96861.96861,0,0,1-1.09228-1.06445v-2.40235H76.625v2.05274a.54391.54391,0,0,0,.62353.62305.996.996,0,0,0,.77051-.38575v-2.29h.88916v3.38282h-.88916Z"/><path d="M82.11381,162.8818a1.32629,1.32629,0,0,1-1.04346.51074c-.85449,0-1.499-.64355-1.499-1.77148,0-1.10645.63721-1.7793,1.499-1.7793a1.30162,1.30162,0,0,1,1.04346.51855v-1.72265h.89648v4.6709h-.89648Zm0-1.86328a.97959.97959,0,0,0-.77051-.38477.99369.99369,0,0,0,0,1.96778.9776.9776,0,0,0,.77051-.38575Z"/><circle class="cls-5" cx="276.33336" cy="134.2159" r="6.46195"/><path class="cls-6" d="M278.2515,133.05416a1.58272,1.58272,0,0,1-.38671,1.05322,1.58277,1.58277,0,0,1,.38671,1.05323v.5581a1.9241,1.9241,0,0,1-3.835-.01806v-.41407h1.39551v.47705c0,.2793.19824.4502.52149.4502.31543,0,.52246-.15283.52246-.43213v-.65723c0-.24267-.13477-.396-.4502-.396H275.479v-1.24219h.92676c.31543,0,.4502-.16211.4502-.39648v-.59375c0-.27051-.19825-.42334-.5127-.42334-.32422,0-.53125.1709-.53125.45019v.54h-1.39551v-.477a1.92458,1.92458,0,0,1,3.835-.02685Z"/><path d="M272.05619,147.39938h-.72851v1.67383h-.99414v-4.67139h2.18554a1.45424,1.45424,0,0,1,1.56836,1.50586,1.34109,1.34109,0,0,1-1.02246,1.38672l1.05078,1.77881h-1.1416Zm.31543-2.14307h-1.04394v1.28857h1.04394a.64652.64652,0,1,0,0-1.28857Z"/><path d="M276.13725,145.60641a1.69639,1.69639,0,0,1,1.69531,1.86279v.19629h-2.51465a.91126.91126,0,0,0,.97363.78418,1.38237,1.38237,0,0,0,.90332-.33594l.39258.57422a2.08557,2.08557,0,0,1-1.39355.46924,1.77562,1.77562,0,1,1-.05664-3.55078Zm-.833,1.45654h1.667a.784.784,0,0,0-.834-.749A.81276.81276,0,0,0,275.30424,147.063Z"/><path d="M280.50541,148.72311a1.39853,1.39853,0,0,1-1.07129.43408,1.12723,1.12723,0,0,1-1.17676-1.12061,1.07145,1.07145,0,0,1,1.17676-1.07861,1.36647,1.36647,0,0,1,1.07129.41309v-.46924c0-.34277-.29394-.5669-.74219-.5669a1.42247,1.42247,0,0,0-.9873.39893l-.33594-.59522a2.21791,2.21791,0,0,1,1.47754-.53222c.77051,0,1.47754.3081,1.47754,1.28174v2.18506h-.88965Zm0-.88281a.88861.88861,0,0,0-.71387-.294c-.35058,0-.63769.189-.63769.51123,0,.31543.28711.49756.63769.49756a.88744.88744,0,0,0,.71387-.29443Z"/><path d="M282.27592,144.40182h.88867v4.67139h-.88867Z"/><path d="M283.815,147h1.68164v.75635H283.815Z"/><path d="M286.32182,148.23287v-1.76513h-.56055v-.77735h.56055v-.92431h.89648v.92431h.68652v.77735h-.68652v1.52685c0,.21.11231.3711.30762.3711a.4835.4835,0,0,0,.30859-.09815l.18946.67236a1.09965,1.09965,0,0,1-.74317.21729A.84517.84517,0,0,1,286.32182,148.23287Z"/><path d="M288.42143,144.66061a.53223.53223,0,1,1,.53222.53271A.53664.53664,0,0,1,288.42143,144.66061Zm.09179,1.02978h.88867v3.38282h-.88867Z"/><path d="M294.479,146.937c0-.31494-.13965-.53906-.5039-.53906a.90045.90045,0,0,0-.70117.39209v2.28321h-.89649V146.937c0-.31494-.13965-.53906-.50391-.53906a.90811.90811,0,0,0-.70019.39893v2.27637h-.88965v-3.38282h.88965v.44141a1.47794,1.47794,0,0,1,1.10644-.52539.89507.89507,0,0,1,.93848.61621,1.43637,1.43637,0,0,1,1.16309-.61621.9028.9028,0,0,1,.99414,1.02246v2.44434H294.479Z"/><path d="M297.78178,145.60641a1.6962,1.6962,0,0,1,1.69433,1.86279v.19629h-2.51367a.91026.91026,0,0,0,.97266.78418,1.38688,1.38688,0,0,0,.90429-.33594l.39161.57422a2.08206,2.08206,0,0,1-1.39356.46924,1.77561,1.77561,0,1,1-.05566-3.55078Zm-.834,1.45654h1.667a.78307.78307,0,0,0-.833-.749A.81305.81305,0,0,0,296.94779,147.063Z"/><path d="M270.50834,153.46774h-.55957v-.77735h.55957v-.18213a1.09062,1.09062,0,0,1,1.1416-1.17675,1.43759,1.43759,0,0,1,.64453.14013l-.18164.63037a.54928.54928,0,0,0-.28711-.06982c-.25195,0-.4209.168-.4209.49023v.168h.68653v.77735h-.68653v2.60547h-.89648Z"/><path d="M272.60209,152.69039h.88867v.46241a1.4489,1.4489,0,0,1,1.0791-.53956v.86866a1.17623,1.17623,0,0,0-.24511-.021,1.13052,1.13052,0,0,0-.834.37793v2.23438h-.88867Z"/><path d="M277.15287,155.72262a1.40009,1.40009,0,0,1-1.07129.43457,1.12678,1.12678,0,0,1-1.17676-1.12109,1.07087,1.07087,0,0,1,1.17676-1.07813,1.36621,1.36621,0,0,1,1.07129.41309v-.46924c0-.34277-.29394-.5669-.74219-.5669a1.4265,1.4265,0,0,0-.98828.39893l-.33593-.59522a2.21789,2.21789,0,0,1,1.47753-.53222c.77051,0,1.47852.3081,1.47852,1.28174v2.18506h-.88965Zm0-.88281a.89355.89355,0,0,0-.71484-.29395c-.34961,0-.63672.18945-.63672.51172,0,.31543.28711.49707.63672.49707a.89052.89052,0,0,0,.71484-.29394Z"/><path d="M281.20561,155.64547a1.58224,1.58224,0,0,1-1.19043.51172.969.969,0,0,1-1.09278-1.06445v-2.40235h.88965v2.05176a.54338.54338,0,0,0,.623.623.99447.99447,0,0,0,.77051-.38477v-2.29h.88964v3.38282h-.88964Z"/><path d="M285.30033,155.64547a1.327,1.327,0,0,1-1.043.51172c-.85449,0-1.499-.64453-1.499-1.77246,0-1.106.63672-1.77832,1.499-1.77832a1.30161,1.30161,0,0,1,1.043.51806v-1.72265h.89649v4.67139h-.89649Zm0-1.8623a.97785.97785,0,0,0-.77051-.38526.9934.9934,0,0,0,0,1.96729.97886.97886,0,0,0,.77051-.38477Z"/><path d="M270.313,159.69039h.88867v.46192a1.45007,1.45007,0,0,1,1.0791-.53907v.86817a1.21518,1.21518,0,0,0-.24512-.02051,1.13051,1.13051,0,0,0-.834.37793v2.23438H270.313Z"/><path d="M274.36674,159.60641a1.69578,1.69578,0,0,1,1.69433,1.8623v.19629H273.5474a.9099.9099,0,0,0,.97266.78418,1.38687,1.38687,0,0,0,.9043-.33594l.3916.57422a2.08238,2.08238,0,0,1-1.39356.46973,1.77561,1.77561,0,1,1-.05566-3.55078Zm-.834,1.456h1.667a.78336.78336,0,0,0-.833-.749A.81306.81306,0,0,0,273.53275,161.06246Z"/><path d="M276.79447,162.00875a1.94153,1.94153,0,0,0,1.16992.46192c.38477,0,.56739-.13282.56739-.34278,0-.23828-.294-.32226-.67969-.39941-.581-.11231-1.33008-.25195-1.33008-1.05762,0-.56738.49707-1.06445,1.38672-1.06445a2.12185,2.12185,0,0,1,1.3584.46191l-.35059.60938a1.42749,1.42749,0,0,0-1.001-.39258c-.32227,0-.53223.11914-.53223.31543,0,.21.26563.28711.64453.36426.58106.1123,1.3584.2666,1.3584,1.10644,0,.62305-.52539,1.08594-1.46387,1.08594a2.27853,2.27853,0,0,1-1.51269-.52539Z"/><path d="M280.04252,164.36129v-4.6709h.88965v.42676a1.30558,1.30558,0,0,1,1.04394-.51074c.86817,0,1.498.64355,1.498,1.77148s-.62988,1.7793-1.498,1.7793a1.29252,1.29252,0,0,1-1.04394-.51856v1.72266Zm1.65332-3.96387a.9959.9959,0,0,0-.76367.38575v1.19726a1.02,1.02,0,0,0,.76367.38477.99369.99369,0,0,0,0-1.96778Z"/><path d="M283.92045,161.37789c-.14106-2.30275,3.7214-2.29617,3.57908.0002C287.64226,163.68536,283.77833,163.69205,283.92045,161.37789Zm2.6543,0a.86938.86938,0,1,0-1.73046.00011A.86938.86938,0,1,0,286.57475,161.37789Z"/><path d="M290.439,161.02828a.54925.54925,0,0,0-.624-.63086.96515.96515,0,0,0-.77051.39942v2.27637h-.88867v-3.38282h.88867v.44141a1.54888,1.54888,0,0,1,1.1836-.52539.98336.98336,0,0,1,1.09961,1.07812v2.38868H290.439Z"/><path d="M292.29936,162.00875a1.939,1.939,0,0,0,1.16992.46192c.38476,0,.5664-.13282.5664-.34278,0-.23828-.29394-.32226-.67871-.39941-.582-.11231-1.33105-.25195-1.33105-1.05762,0-.56738.49707-1.06445,1.38672-1.06445a2.12187,2.12187,0,0,1,1.3584.46191l-.34961.60938a1.43,1.43,0,0,0-1.002-.39258c-.32226,0-.53222.11914-.53222.31543,0,.21.2666.28711.64453.36426.581.1123,1.3584.2666,1.3584,1.10644,0,.62305-.52442,1.08594-1.46387,1.08594a2.27858,2.27858,0,0,1-1.5127-.52539Z"/><path d="M297.08061,159.60641a1.696,1.696,0,0,1,1.69531,1.8623v.19629h-2.51465a.91089.91089,0,0,0,.97363.78418,1.38232,1.38232,0,0,0,.90332-.33594l.39258.57422a2.08588,2.08588,0,0,1-1.39355.46973,1.77562,1.77562,0,1,1-.05664-3.55078Zm-.833,1.456h1.667a.7843.7843,0,0,0-.834-.749A.81277.81277,0,0,0,296.2476,161.06246Z"/><circle class="cls-5" cx="473.71566" cy="134.35112" r="6.46195"/><path class="cls-6" d="M473.35111,136.21432h2.27832v1.26025h-3.78125v-.70215c0-1.86377,2.44825-2.73681,2.44825-3.94336v-.18017a.43633.43633,0,0,0-.49512-.44092c-.29688,0-.50391.2251-.50391.63037v.3418h-1.39551v-.27881a1.85407,1.85407,0,0,1,1.89942-1.95361,1.761,1.761,0,0,1,1.89062,1.7373v.2251C475.69193,134.70162,473.523,135.32272,473.35111,136.21432Z"/><path d="M467.49174,146.87594a2.36427,2.36427,0,0,1,2.45117-2.4165,2.15669,2.15669,0,0,1,1.98926,1.1416l-.85449.42041a1.28057,1.28057,0,0,0-1.13477-.67969,1.53781,1.53781,0,0,0,0,3.06787,1.26779,1.26779,0,0,0,1.13477-.67969l.85449.41358a2.16993,2.16993,0,0,1-1.98926,1.14844A2.36416,2.36416,0,0,1,467.49174,146.87594Z"/><path d="M472.50346,145.82516h.88965v.4624a1.44685,1.44685,0,0,1,1.07812-.53955v.86865a1.1636,1.1636,0,0,0-.24512-.021,1.12833,1.12833,0,0,0-.833.37793V149.208h-.88965Z"/><path d="M474.80619,147.51315c-.14043-2.30367,3.72212-2.29669,3.57908.00019C478.52863,149.8197,474.6648,149.8268,474.80619,147.51315Zm2.6543,0a.86894.86894,0,1,0-1.72948.0001A.86894.86894,0,1,0,477.46049,147.51315Z"/><path d="M479.13236,148.14352a1.9386,1.9386,0,0,0,1.16993.46191c.38476,0,.56738-.13281.56738-.34277,0-.23828-.29395-.32227-.67969-.39942-.58105-.11181-1.33008-.25195-1.33008-1.05761,0-.56739.49707-1.06446,1.38672-1.06446a2.122,2.122,0,0,1,1.3584.46241l-.35059.60888a1.42729,1.42729,0,0,0-1.001-.39209c-.32227,0-.53223.11914-.53223.31543,0,.21.26563.28711.64453.36426.58106.11182,1.3584.26611,1.3584,1.10645,0,.623-.52539,1.08545-1.46387,1.08545a2.276,2.276,0,0,1-1.51269-.5254Z"/><path d="M482.47123,148.14352a1.9386,1.9386,0,0,0,1.16992.46191c.38477,0,.56739-.13281.56739-.34277,0-.23828-.294-.32227-.67969-.39942-.58106-.11181-1.33008-.25195-1.33008-1.05761,0-.56739.49707-1.06446,1.38672-1.06446a2.122,2.122,0,0,1,1.3584.46241l-.35059.60888a1.42729,1.42729,0,0,0-1.001-.39209c-.32226,0-.53222.11914-.53222.31543,0,.21.26562.28711.64453.36426.58105.11182,1.3584.26611,1.3584,1.10645,0,.623-.52539,1.08545-1.46387,1.08545a2.276,2.276,0,0,1-1.51269-.5254Z"/><path d="M485.48783,147.13473h1.68164v.75635h-1.68164Z"/><path d="M469.22807,152.74117a1.69655,1.69655,0,0,1,1.69531,1.86329v.19628h-2.51465a.91163.91163,0,0,0,.97363.78418,1.38236,1.38236,0,0,0,.90332-.33593l.39258.57422a2.0853,2.0853,0,0,1-1.39355.46875,1.77562,1.77562,0,1,1-.05664-3.55079Zm-.833,1.457h1.667a.78407.78407,0,0,0-.834-.74952A.8128.8128,0,0,0,468.39506,154.19821Z"/><path d="M473.84916,154.16305a.54909.54909,0,0,0-.624-.63037.96482.96482,0,0,0-.77051.39892V156.208H471.566v-3.38281h.88867v.4414a1.55054,1.55054,0,0,1,1.18359-.52539.9835.9835,0,0,1,1.09961,1.07862V156.208h-.88867Z"/><path d="M475.7935,155.36813V153.6025H475.233v-.77734h.56055v-.92432H476.69v.92432h.68652v.77734H476.69v1.52735c0,.21.11231.37109.30762.37109a.48059.48059,0,0,0,.30859-.09863l.18945.67285a1.09989,1.09989,0,0,1-.74316.2168A.845.845,0,0,1,475.7935,155.36813Z"/><path d="M479.51811,152.74117a1.69655,1.69655,0,0,1,1.69531,1.86329v.19628h-2.51465a.91163.91163,0,0,0,.97363.78418,1.38236,1.38236,0,0,0,.90332-.33593l.39258.57422a2.0853,2.0853,0,0,1-1.39355.46875,1.77562,1.77562,0,1,1-.05664-3.55079Zm-.833,1.457h1.667a.78407.78407,0,0,0-.834-.74952A.8128.8128,0,0,0,478.6851,154.19821Z"/><path d="M481.856,152.82516h.88867v.4624a1.44889,1.44889,0,0,1,1.0791-.53955v.86865a1.17641,1.17641,0,0,0-.24512-.021,1.13051,1.13051,0,0,0-.834.37793V156.208H481.856Z"/><path d="M484.37553,157.497v-4.67187h.88965v.42724a1.306,1.306,0,0,1,1.04394-.51123c.86817,0,1.498.644,1.498,1.77246,0,1.127-.62988,1.77833-1.498,1.77833a1.29426,1.29426,0,0,1-1.04394-.51758V157.497Zm1.65332-3.96435a.997.997,0,0,0-.76367.38525v1.19727a1.01769,1.01769,0,0,0,.76367.38574.994.994,0,0,0,0-1.96826Z"/><path d="M488.47025,152.82516h.88965v.4624a1.44687,1.44687,0,0,1,1.07813-.53955v.86865a1.16367,1.16367,0,0,0-.24512-.021,1.12835,1.12835,0,0,0-.833.37793V156.208h-.88965Z"/><path d="M490.899,151.79537a.53223.53223,0,1,1,.53222.53272A.53664.53664,0,0,1,490.899,151.79537Zm.09179,1.02979h.88867V156.208h-.88867Z"/><path d="M492.85209,155.14352a1.93563,1.93563,0,0,0,1.16992.46191c.38477,0,.56738-.13281.56738-.34277,0-.23828-.29394-.32227-.67968-.39942-.58106-.11132-1.33008-.25195-1.33008-1.05761,0-.56739.49707-1.06446,1.38672-1.06446a2.122,2.122,0,0,1,1.3584.46241l-.35059.60888a1.42729,1.42729,0,0,0-1.001-.39209c-.32226,0-.53222.11914-.53222.31543,0,.21.26562.28711.64453.36475.58105.11133,1.3584.26562,1.3584,1.10644,0,.62305-.52539,1.085-1.46387,1.085a2.27352,2.27352,0,0,1-1.5127-.5254Z"/><path d="M497.63432,152.74117a1.69636,1.69636,0,0,1,1.69433,1.86329v.19628H496.815a.911.911,0,0,0,.97363.78418,1.38623,1.38623,0,0,0,.90332-.33593l.39161.57422a2.0818,2.0818,0,0,1-1.39356.46875,1.77562,1.77562,0,1,1-.05566-3.55079Zm-.834,1.457h1.667a.78312.78312,0,0,0-.833-.74952A.81309.81309,0,0,0,496.80033,154.19821Z"/><path d="M467.78568,162.14352a1.93321,1.93321,0,0,0,1.16993.46191c.38476,0,.5664-.13281.5664-.34277,0-.23828-.29394-.32227-.67871-.39942-.58105-.11132-1.33105-.25195-1.33105-1.05761,0-.56739.49707-1.06446,1.38672-1.06446a2.12222,2.12222,0,0,1,1.35839.46289l-.34961.6084a1.42955,1.42955,0,0,0-1.002-.3916c-.32226,0-.53223.11914-.53223.31543,0,.21.26661.28711.64454.36426.58105.11133,1.35839.26562,1.35839,1.10644,0,.62305-.52441,1.085-1.46386,1.085a2.2735,2.2735,0,0,1-1.5127-.5254Z"/><path d="M470.94193,158.79586a.53223.53223,0,1,1,.53223.53223A.53666.53666,0,0,1,470.94193,158.79586Zm.0918,1.0293h.88867V163.208h-.88867Z"/><path d="M473.13334,163.43258a1.34664,1.34664,0,0,0,1.05762.41992.82693.82693,0,0,0,.93164-.85449v-.34277a1.31811,1.31811,0,0,1-1.04395.53222c-.84668,0-1.49121-.5957-1.49121-1.72363a1.51285,1.51285,0,0,1,1.49121-1.72266,1.30256,1.30256,0,0,1,1.04395.51856v-.43457h.89648v3.15234c0,1.28809-.99414,1.60352-1.82812,1.60352a2.04082,2.04082,0,0,1-1.457-.50391Zm1.98926-2.51465a.96686.96686,0,0,0-.76367-.38476.93459.93459,0,0,0,0,1.8623.98717.98717,0,0,0,.76367-.38476Z"/><path d="M479.18217,161.16305a.54864.54864,0,0,0-.623-.62988.963.963,0,0,0-.77051.39843V163.208H476.899v-3.38281h.88964v.4414a1.5489,1.5489,0,0,1,1.1836-.52539.98408.98408,0,0,1,1.09961,1.07911V163.208h-.88965Z"/><path d="M482.983,162.85836a1.403,1.403,0,0,1-1.07129.4336,1.12658,1.12658,0,0,1-1.17676-1.12012,1.07108,1.07108,0,0,1,1.17676-1.0791,1.36955,1.36955,0,0,1,1.07129.41308v-.46875c0-.34277-.29395-.56738-.74219-.56738a1.42481,1.42481,0,0,0-.98828.39941l-.33594-.5957a2.21789,2.21789,0,0,1,1.47754-.53223c.77051,0,1.47852.3086,1.47852,1.28223V163.208H482.983Zm0-.88281a.8905.8905,0,0,0-.71484-.29395c-.34961,0-.63672.18848-.63672.51075,0,.31543.28711.498.63672.498a.89111.89111,0,0,0,.71484-.29492Z"/><path d="M484.75248,158.53707h.88965v4.6709h-.88965Z"/><path d="M486.61479,162.14352a1.93316,1.93316,0,0,0,1.16992.46191c.38476,0,.5664-.13281.5664-.34277,0-.23828-.29394-.32227-.67871-.39942-.58105-.11132-1.33105-.25195-1.33105-1.05761,0-.56739.49707-1.06446,1.38672-1.06446a2.12225,2.12225,0,0,1,1.3584.46289l-.34961.6084a1.42959,1.42959,0,0,0-1.002-.3916c-.32226,0-.53222.11914-.53222.31543,0,.21.2666.28711.64453.36426.58105.11133,1.3584.26562,1.3584,1.10644,0,.62305-.52442,1.085-1.46387,1.085a2.27352,2.27352,0,0,1-1.5127-.5254Z"/><path d="M234.98832,36.61764c4.78031-.17025,4.78036,7.76144-.00024,7.5908C230.20443,44.38108,230.20438,36.44466,234.98832,36.61764Zm0,.814c-3.55239-.15536-3.55452,6.11095.00015,5.96288C238.539,43.5398,238.537,37.27852,234.98832,37.4316Z"/><path d="M240.02592,38.76266h.82519v.8584a2.25787,2.25787,0,0,1,1.771-.96826V39.5a1.45441,1.45441,0,0,0-.33008-.0332,1.94422,1.94422,0,0,0-1.44092.84717v3.76269h-.82519Z"/><path d="M243.51273,37.31051a.5557.5557,0,0,1,1.11133,0,.55569.55569,0,1,1-1.11133,0Zm.14307,1.45215h.8252v5.314h-.8252Z"/><path d="M246.53813,44.82467a2.02782,2.02782,0,0,0,1.727.72607,1.52148,1.52148,0,0,0,1.70507-1.59521v-.75928a2.21819,2.21819,0,0,1-1.78222.94629c-1.38623,0-2.36524-1.03418-2.36524-2.75049,0-1.70508.96826-2.76123,2.36524-2.76123a2.20077,2.20077,0,0,1,1.78222.93506v-.80322h.8252v5.16015c0,1.76026-1.23193,2.31006-2.53027,2.31006a2.71527,2.71527,0,0,1-2.14551-.792Zm3.43212-4.59863a1.95739,1.95739,0,0,0-1.584-.85791c-1.06738,0-1.70557.84717-1.70557,2.02392,0,1.16651.63819,2.02442,1.70557,2.02442a1.96692,1.96692,0,0,0,1.584-.86914Z"/><path d="M252.3018,37.31051a.5557.5557,0,0,1,1.11133,0,.55569.55569,0,1,1-1.11133,0Zm.14306,1.45215h.8252v5.314h-.8252Z"/><path d="M258.50639,40.60006c0-.93506-.47315-1.23193-1.188-1.23193a2.05184,2.05184,0,0,0-1.57324.8247v3.88379H254.92v-5.314h.8252v.77051a2.63431,2.63431,0,0,1,1.89209-.90235,1.51023,1.51023,0,0,1,1.69433,1.71631v3.72949h-.82519Z"/><path d="M263.95072,42.34957a3.10257,3.10257,0,0,0,2.31055,1.04492c1.30859,0,1.72656-.7041,1.72656-1.26513,0-.88037-.89062-1.12207-1.85937-1.38623-1.17627-.30811-2.48584-.63819-2.48584-2.0791,0-1.21045,1.07812-2.03565,2.519-2.03565a3.44947,3.44947,0,0,1,2.60742,1.02344l-.5498.6709a2.8078,2.8078,0,0,0-2.12305-.87989c-.88037,0-1.50732.47315-1.50732,1.166,0,.7373.84716.957,1.78173,1.21,1.19922.31934,2.56348.69336,2.56348,2.2334,0,1.06738-.72558,2.15625-2.70605,2.15625a3.63383,3.63383,0,0,1-2.81641-1.166Z"/><path d="M272.57475,38.63082a2.58109,2.58109,0,0,1,2.55273,2.84961v.209h-4.30176a1.87141,1.87141,0,0,0,1.91407,1.83691,2.32374,2.32374,0,0,0,1.63964-.6709l.39551.53906a2.88584,2.88584,0,0,1-2.1123.814,2.7922,2.7922,0,0,1-.08789-5.57764Zm-1.749,2.45313H274.313a1.72205,1.72205,0,0,0-1.749-1.771A1.77225,1.77225,0,0,0,270.82572,41.084Z"/><path d="M276.45756,38.76266h.82519v.8584a2.25772,2.25772,0,0,1,1.77051-.96826V39.5a1.44835,1.44835,0,0,0-.33008-.0332,1.94243,1.94243,0,0,0-1.44043.84717v3.76269h-.82519Z"/><path d="M279.29545,38.76266h.89062l1.77149,4.35693,1.75976-4.35693h.90235l-2.21094,5.314h-.90234Z"/><path d="M287.78764,38.63082a2.58109,2.58109,0,0,1,2.55273,2.84961v.209h-4.30176a1.87141,1.87141,0,0,0,1.91407,1.83691,2.32374,2.32374,0,0,0,1.63964-.6709l.39551.53906a2.88584,2.88584,0,0,1-2.1123.814,2.7922,2.7922,0,0,1-.08789-5.57764Zm-1.749,2.45313h3.48731a1.72205,1.72205,0,0,0-1.749-1.771A1.77225,1.77225,0,0,0,286.03861,41.084Z"/><path d="M291.67045,38.76266h.82519v.8584a2.25772,2.25772,0,0,1,1.77051-.96826V39.5a1.44835,1.44835,0,0,0-.33008-.0332,1.94245,1.94245,0,0,0-1.44043.84717v3.76269h-.82519Z"/><path d="M222.146,243.11617h-3.71875l-.64893,1.62891h-1.01221l2.94824-7.33789h1.13331l2.95947,7.33789H222.795Zm-3.45459-.81347h3.17919l-1.584-4.082Z"/><path d="M227.07328,239.29879a2.27424,2.27424,0,0,1,1.94727.92481l-.5503.50586a1.57462,1.57462,0,0,0-1.353-.69336,2.06426,2.06426,0,0,0,0,4.10351,1.60055,1.60055,0,0,0,1.353-.69336l.5503.50684a2.27609,2.27609,0,0,1-1.94727.92383,2.79264,2.79264,0,0,1,0-5.57813Z"/><path d="M232.51811,239.29879a2.27422,2.27422,0,0,1,1.94726.92481l-.55029.50586a1.57463,1.57463,0,0,0-1.353-.69336,2.06426,2.06426,0,0,0,0,4.10351,1.60057,1.60057,0,0,0,1.353-.69336l.55029.50684a2.27608,2.27608,0,0,1-1.94726.92383,2.79264,2.79264,0,0,1,0-5.57813Z"/><path d="M235.31156,242.082c-.19322-3.62282,5.45244-3.6229,5.25877.00027C240.76245,245.71833,235.119,245.7184,235.31156,242.082Zm4.38965,0a1.77819,1.77819,0,1,0-3.53172.00023A1.77819,1.77819,0,1,0,239.70121,242.082Z"/><path d="M245.49809,243.997a2.59967,2.59967,0,0,1-1.89209.87989,1.49457,1.49457,0,0,1-1.69434-1.69434v-3.75195h.8252v3.499c0,.93457.47314,1.21,1.188,1.21a2.03411,2.03411,0,0,0,1.57325-.80273v-3.90625h.82519v5.31445h-.82519Z"/><path d="M251.55912,241.26852c0-.93555-.47314-1.23242-1.188-1.23242a2.05229,2.05229,0,0,0-1.57324.82519v3.88379h-.82519v-5.31445h.82519v.7705a2.63436,2.63436,0,0,1,1.89209-.90234,1.51058,1.51058,0,0,1,1.69434,1.7168v3.72949h-.8252Z"/><path d="M254.19877,243.63375v-3.47656h-.88037v-.72656h.88037v-1.45215h.8252v1.45215h1.07812v.72656H255.024V243.458c0,.39551.17578.68164.53906.68164a.7963.7963,0,0,0,.561-.21973l.2417.61622a1.351,1.351,0,0,1-.98974.34082A1.08717,1.08717,0,0,1,254.19877,243.63375Z"/><path d="M260.13822,237.40719H263.087a2.21263,2.21263,0,1,1,0,4.42187H261.0518v2.916h-.91358Zm2.83887.81348H261.0518v2.79492h1.92529a1.39892,1.39892,0,1,0,0-2.79492Z"/><path d="M266.563,239.43063h.82519v.8584a2.25857,2.25857,0,0,1,1.77051-.96778v.84668a1.47662,1.47662,0,0,0-.33008-.0332,1.94294,1.94294,0,0,0-1.44043.84765v3.7627H266.563Z"/><path d="M269.88432,242.082c-.193-3.62244,5.45267-3.62328,5.25876.00027C275.33544,245.71872,269.692,245.718,269.88432,242.082Zm4.38965,0a1.778,1.778,0,1,0-3.53123.00023A1.778,1.778,0,1,0,274.274,242.082Z"/><path d="M276.64994,243.63375v-3.47656h-.88086v-.72656h.88086v-1.45215h.8252v1.45215h1.07812v.72656h-1.07812V243.458c0,.39551.17578.68164.53906.68164a.796.796,0,0,0,.56055-.21973l.24218.61622a1.35148,1.35148,0,0,1-.99023.34082A1.08682,1.08682,0,0,1,276.64994,243.63375Z"/><path d="M282.02885,239.29879a2.58134,2.58134,0,0,1,2.55273,2.84961v.209h-4.30176a1.87142,1.87142,0,0,0,1.91407,1.83692,2.32168,2.32168,0,0,0,1.63965-.6709l.3955.53906a2.88617,2.88617,0,0,1-2.1123.81446,2.79246,2.79246,0,0,1-.08789-5.57813Zm-1.749,2.45313h3.48731a1.72166,1.72166,0,0,0-1.749-1.77051A1.77215,1.77215,0,0,0,280.27982,241.75192Z"/><path d="M288.25443,239.29879a2.27359,2.27359,0,0,1,1.94727.92481l-.54981.50586a1.57544,1.57544,0,0,0-1.35351-.69336,2.06432,2.06432,0,0,0,0,4.10351,1.60139,1.60139,0,0,0,1.35351-.69336l.54981.50684a2.27545,2.27545,0,0,1-1.94727.92383,2.79264,2.79264,0,0,1,0-5.57813Z"/><path d="M291.521,243.63375v-3.47656h-.87989v-.72656h.87989v-1.45215h.82519v1.45215h1.07813v.72656h-1.07813V243.458c0,.39551.17578.68164.53906.68164a.79665.79665,0,0,0,.56153-.21973l.24121.61622a1.35058,1.35058,0,0,1-.98926.34082A1.0875,1.0875,0,0,1,291.521,243.63375Z"/><path d="M294.44682,237.97848a.55569.55569,0,0,1,1.11132,0,.55569.55569,0,1,1-1.11132,0Zm.14355,1.45215h.8252v5.31445h-.8252Z"/><path d="M296.75736,242.082c-.19346-3.62321,5.4522-3.62251,5.25877.00027C302.208,245.71794,296.5646,245.71878,296.75736,242.082Zm4.38965,0a1.7784,1.7784,0,1,0-3.5322.00023A1.7784,1.7784,0,1,0,301.147,242.082Z"/><path d="M306.94389,241.26852c0-.93555-.47364-1.23242-1.18848-1.23242a2.05309,2.05309,0,0,0-1.57324.82519v3.88379h-.8252v-5.31445h.8252v.7705a2.63548,2.63548,0,0,1,1.89258-.90234,1.51058,1.51058,0,0,1,1.69433,1.7168v3.72949h-.82519Z"/><path d="M245.07523,254.11617h-3.71875l-.64892,1.62891h-1.01221l2.94824-7.33789h1.1333l2.95948,7.33789h-1.01221Zm-3.45459-.81347h3.1792l-1.584-4.082Z"/><path d="M247.69193,248.40719h.91358v7.33789h-.91358Z"/><path d="M253.15873,248.40719h4.80811v.81348H254.0723v2.36523h3.81739v.81445H254.0723v2.53028h3.89454v.81445h-4.80811Z"/><path d="M262.97123,252.26852c0-.93555-.47314-1.23242-1.188-1.23242a2.05229,2.05229,0,0,0-1.57324.82519v3.88379h-.8252v-5.31445h.8252v.7705a2.63436,2.63436,0,0,1,1.89209-.90234,1.51058,1.51058,0,0,1,1.69434,1.7168v3.72949h-.8252Z"/><path d="M265.85307,256.49313a2.02843,2.02843,0,0,0,1.72754.72558,1.52111,1.52111,0,0,0,1.70507-1.59472v-.75977a2.21687,2.21687,0,0,1-1.78222.94629c-1.38672,0-2.36573-1.03418-2.36573-2.75,0-1.70508.96827-2.76172,2.36573-2.76172a2.20193,2.20193,0,0,1,1.78222.93555v-.80371h.8252v5.16015c0,1.76075-1.23242,2.31055-2.53027,2.31055a2.71632,2.71632,0,0,1-2.146-.792Zm3.43261-4.59864a1.95782,1.95782,0,0,0-1.584-.85839c-1.06738,0-1.70606.84765-1.70606,2.02441,0,1.166.63868,2.02441,1.70606,2.02441a1.96689,1.96689,0,0,0,1.584-.86914Z"/><path d="M271.61674,248.97848a.5557.5557,0,0,1,1.11133,0,.5557.5557,0,1,1-1.11133,0Zm.14355,1.45215h.8252v5.31445h-.8252Z"/><path d="M277.82182,252.26852c0-.93555-.47364-1.23242-1.18848-1.23242a2.05309,2.05309,0,0,0-1.57324.82519v3.88379h-.8252v-5.31445h.8252v.7705a2.63548,2.63548,0,0,1,1.89258-.90234,1.51058,1.51058,0,0,1,1.69433,1.7168v3.72949h-.82519Z"/><path d="M282.606,250.29879a2.58134,2.58134,0,0,1,2.55273,2.84961v.209H280.857a1.87265,1.87265,0,0,0,1.91407,1.83692,2.32,2.32,0,0,0,1.63964-.6709l.39649.53906a2.88619,2.88619,0,0,1-2.11231.81446,2.79244,2.79244,0,0,1-.08886-5.57813Zm-1.749,2.45313h3.48731a1.72166,1.72166,0,0,0-1.749-1.77051A1.77282,1.77282,0,0,0,280.857,252.75192Z"/><line class="cls-4" x1="444.44411" y1="75.69132" x2="451.12414" y2="75.69132"/><path class="cls-4" d="M424.39617,73.17583V46.42008h46.76018V73.17583H424.39617a2.86246,2.86246,0,0,0-1.69082,2.48847,2.9353,2.9353,0,0,0,1.69082,2.52111l.20423.01426,46.501-.00712a.214.214,0,0,0,.10236-.02323,2.83494,2.83494,0,0,0,1.61553-2.53847,3.12,3.12,0,0,0-1.663-2.455"/><polyline class="cls-4" points="442.786 54.569 434.492 59.527 442.786 64.486"/><polyline class="cls-4" points="452.739 64.486 461.033 59.527 452.739 54.569"/><line class="cls-4" x1="449.42116" y1="54.56861" x2="446.10351" y2="64.48597"/><rect class="cls-7" x="403.01369" y="25.42833" width="107.2436" height="84.62895"/><rect x="417.51334" y="15.95904" width="78.24429" height="18.93858"/><path class="cls-6" d="M435.48588,21.82955l-1.51953,7.09619H432.358l-.79-3.85791-.78906,3.85791h-1.60938l-1.51953-7.09619h1.60938l.79,4.83741.91894-4.83741h1.18945l.96973,4.82764.76953-4.82764Z"/><path class="cls-6" d="M437.59916,23.229V24.7778h1.71973v1.39941h-1.71973v1.34912h2.11914v1.39941h-3.668V21.82955h3.668V23.229Z"/><path class="cls-6" d="M444.82768,26.54684V26.957a1.93284,1.93284,0,0,1-2.0293,1.96875h-2.44824V21.82955h2.30859a1.85927,1.85927,0,0,1,2.03906,1.76905v.50976a1.51067,1.51067,0,0,1-.53027,1.11963A1.67548,1.67548,0,0,1,444.82768,26.54684ZM441.899,23.17867v1.4795h.83984c.22949,0,.40918-.21973.40918-.52979v-.49951a.42681.42681,0,0,0-.39942-.4502Zm1.37988,3.34864c0-.3003-.16016-.52979-.41016-.52979H441.899v1.5791h.96c.25976,0,.41992-.25.41992-.5498Z"/><path class="cls-6" d="M451.97709,26.54684V26.957a1.93258,1.93258,0,0,1-2.02832,1.96875h-2.44922V21.82955h2.30957a1.859,1.859,0,0,1,2.03809,1.76905v.50976a1.50958,1.50958,0,0,1-.5293,1.11963A1.67449,1.67449,0,0,1,451.97709,26.54684Zm-2.92773-3.36817v1.4795h.83886c.23047,0,.41016-.21973.41016-.52979v-.49951a.42681.42681,0,0,0-.39941-.4502Zm1.3789,3.34864c0-.3003-.16015-.52979-.41015-.52979h-.96875v1.5791h.959c.25977,0,.41992-.25.41992-.5498Z"/><path class="cls-6" d="M454.9185,26.36715h-.73926v2.55859h-1.54981V21.82955h2.35938a1.94611,1.94611,0,0,1,2.11816,1.939v.65967a1.85432,1.85432,0,0,1-.709,1.499l.91894,2.99853h-1.61914Zm-.73926-1.39941h.90918a.43552.43552,0,0,0,.46972-.46973v-.79932a.43288.43288,0,0,0-.46-.46972h-.91894Z"/><path class="cls-6" d="M457.89018,27.0566V23.69869a2.38691,2.38691,0,0,1,4.71679,0V27.0566a2.38691,2.38691,0,0,1-4.71679,0Zm3.168.02V23.67867c0-.35986-.24023-.59961-.7998-.59961-.5791,0-.81934.23975-.81934.59961v3.39795c0,.35987.24024.59961.80957.59961S461.05814,27.43649,461.05814,27.07662Z"/><path class="cls-6" d="M470.9058,21.82955l-1.51953,7.09619h-1.6084l-.79-3.85791-.78906,3.85791h-1.60938l-1.51953-7.09619h1.60938l.79,4.83741.91894-4.83741h1.18946l.96972,4.82764.76953-4.82764Z"/><path class="cls-6" d="M471.17045,26.82711v-.28027h1.54883v.43994a.73482.73482,0,0,0,.8291.72949.677.677,0,0,0,.71973-.68945c0-1.26953-2.96778-.96973-2.96778-3.26807a1.99764,1.99764,0,0,1,2.21875-2.0791,1.9401,1.9401,0,0,1,2.208,1.98877v.43994h-1.54883v-.53955c0-.31006-.2998-.48975-.66992-.48975a.58472.58472,0,0,0-.64941.59961c0,1.01954,2.96875.78955,2.96875,3.208a2.10122,2.10122,0,0,1-2.3086,2.189A2.15258,2.15258,0,0,1,471.17045,26.82711Z"/><path class="cls-6" d="M478.09916,23.229V24.7778h1.71875v1.39941h-1.71875v1.34912h2.11816v1.39941h-3.668V21.82955h3.668V23.229Z"/><path class="cls-6" d="M483.13822,26.36715H482.399v2.55859h-1.54981V21.82955h2.35938a1.94612,1.94612,0,0,1,2.11816,1.939v.65967a1.85432,1.85432,0,0,1-.709,1.499l.91894,2.99853h-1.61914Zm-.73925-1.39941h.90917a.43553.43553,0,0,0,.46973-.46973v-.79932a.43289.43289,0,0,0-.46-.46972H482.399Z"/><line class="cls-4" x1="281.33829" y1="76.63368" x2="281.33829" y2="81.69617"/><line class="cls-4" x1="276.23603" y1="76.63368" x2="276.23603" y2="81.69617"/><line class="cls-4" x1="271.13377" y1="76.63368" x2="271.13377" y2="81.69617"/><line class="cls-4" x1="281.33829" y1="66.50871" x2="281.33829" y2="71.57119"/><line class="cls-4" x1="276.23603" y1="66.50871" x2="276.23603" y2="71.57119"/><line class="cls-4" x1="271.13377" y1="66.50871" x2="271.13377" y2="71.57119"/><line class="cls-4" x1="281.33829" y1="56.38373" x2="281.33829" y2="61.44622"/><line class="cls-4" x1="276.23603" y1="56.38373" x2="276.23603" y2="61.44622"/><line class="cls-4" x1="271.13377" y1="56.38373" x2="271.13377" y2="61.44622"/><path d="M243.07133,58.07123a.84377.84377,0,1,1-.8504.84375.84708.84708,0,0,1,.8504-.84375m0-1A1.84376,1.84376,0,1,0,244.9217,58.915a1.84916,1.84916,0,0,0-1.85037-1.84375Z"/><path d="M243.07133,68.1962a.84378.84378,0,1,1-.8504.84375.84709.84709,0,0,1,.8504-.84375m0-1A1.84376,1.84376,0,1,0,244.9217,69.04a1.84916,1.84916,0,0,0-1.85037-1.84375Z"/><path d="M243.07133,78.32118a.84377.84377,0,1,1-.8504.84375.84708.84708,0,0,1,.8504-.84375m0-1a1.84376,1.84376,0,1,0,1.85037,1.84375,1.84916,1.84916,0,0,0-1.85037-1.84375Z"/><path class="cls-8" d="M240.158,74.94618h44.86584a1.41674,1.41674,0,0,1,1.41674,1.41674v5.68219a1.33854,1.33854,0,0,1-1.33854,1.33854H240.158a1.33854,1.33854,0,0,1-1.33854-1.33854V76.28473A1.33854,1.33854,0,0,1,240.158,74.94618Z"/><rect class="cls-8" x="238.81943" y="64.82121" width="47.62112" height="8.43748" rx="1.33854"/><rect class="cls-8" x="238.81943" y="54.69624" width="47.62112" height="8.43748" rx="1.33854"/><path d="M31.81107,36.73873h4.80811v.814H32.72465v2.36523H36.542v.81445H32.72465v3.34424h-.91358Z"/><path d="M37.82816,38.76266h.8252v.8584a2.25786,2.25786,0,0,1,1.771-.96826V39.5a1.45453,1.45453,0,0,0-.33008-.0332,1.94422,1.94422,0,0,0-1.44092.84717v3.76269h-.8252Z"/><path d="M44.78031,43.47164a2.29837,2.29837,0,0,1-1.76025.73682,1.76964,1.76964,0,0,1-1.85938-1.76025,1.74044,1.74044,0,0,1,1.85938-1.749,2.22108,2.22108,0,0,1,1.76025.72608v-.957c0-.71533-.57177-1.12207-1.34228-1.12207a2.11115,2.11115,0,0,0-1.62793.73682l-.38526-.57178a2.78206,2.78206,0,0,1,2.12354-.88037c1.12207,0,2.05713.50586,2.05713,1.79346v3.65234h-.8252Zm0-1.51855a1.7787,1.7787,0,0,0-1.46289-.65967,1.16911,1.16911,0,1,0,0,2.32129,1.77908,1.77908,0,0,0,1.46289-.66016Z"/><path d="M50.84135,43.32858a2.5997,2.5997,0,0,1-1.89209.87988,1.49441,1.49441,0,0,1-1.69434-1.69385v-3.752h.8252v3.49853c0,.93506.47314,1.21045,1.188,1.21045a2.033,2.033,0,0,0,1.57324-.80322V38.76266h.82519v5.314h-.82519Z"/><path d="M57.16654,43.28463a2.23726,2.23726,0,0,1-1.79345.92383c-1.38623,0-2.36524-1.05615-2.36524-2.7832,0-1.69434.96826-2.79444,2.36524-2.79444a2.222,2.222,0,0,1,1.79345.93506V36.73873h.8252v7.33789h-.8252Zm0-3.05859a1.99541,1.99541,0,0,0-1.59521-.85791c-1.06738,0-1.70557.87988-1.70557,2.05713s.63819,2.04638,1.70557,2.04638a1.97612,1.97612,0,0,0,1.59521-.83642Z"/><path d="M64.32719,37.5527H62.0059v-.814h5.56689v.814H65.24027v6.52392h-.91308Z"/><path d="M69.794,38.63082a2.58109,2.58109,0,0,1,2.55274,2.84961v.209H68.045A1.872,1.872,0,0,0,69.959,43.52633a2.32289,2.32289,0,0,0,1.63965-.6709l.396.53906a2.88586,2.88586,0,0,1-2.11231.814,2.79219,2.79219,0,0,1-.08838-5.57764ZM68.045,41.084h3.48731a1.72207,1.72207,0,0,0-1.749-1.771A1.77258,1.77258,0,0,0,68.045,41.084Z"/><path d="M76.99955,43.47164a2.29837,2.29837,0,0,1-1.76025.73682,1.76924,1.76924,0,0,1-1.85889-1.76025,1.74,1.74,0,0,1,1.85889-1.749,2.22108,2.22108,0,0,1,1.76025.72608v-.957c0-.71533-.57178-1.12207-1.34228-1.12207a2.11115,2.11115,0,0,0-1.62793.73682l-.38526-.57178a2.78206,2.78206,0,0,1,2.12354-.88037c1.12207,0,2.05713.50586,2.05713,1.79346v3.65234h-.8252Zm0-1.51855a1.77871,1.77871,0,0,0-1.46289-.65967,1.16911,1.16911,0,1,0,0,2.32129,1.77909,1.77909,0,0,0,1.46289-.66016Z"/><path d="M85.88822,40.46822c0-.67138-.29736-1.10009-.97949-1.10009a1.85989,1.85989,0,0,0-1.4082.814v3.89453h-.8252v-3.6084c0-.67138-.28564-1.10009-.979-1.10009a1.85566,1.85566,0,0,0-1.397.8247v3.88379h-.8252v-5.314h.8252v.77051a2.29557,2.29557,0,0,1,1.7163-.90235,1.36432,1.36432,0,0,1,1.43018.99024,2.23486,2.23486,0,0,1,1.78223-.99024c.96777,0,1.48486.53906,1.48486,1.60645v3.83935h-.82471Z"/><line class="cls-9" x1="271.90919" y1="203.79906" x2="276.07524" y2="203.79906"/><path id="Path_60447" data-name="Path 60447" class="cls-9" d="M274.163,205.69575l1.91227-1.91228L274.163,201.8712"/><line class="cls-9" x1="258.32745" y1="206.27028" x2="258.32745" y2="204.04136"/><line class="cls-9" x1="260.3831" y1="206.27028" x2="260.3831" y2="201.04088"/><line class="cls-9" x1="262.38444" y1="206.27028" x2="262.38444" y2="202.81726"/><circle class="cls-10" cx="260.37951" cy="203.79914" r="5.28143"/><path class="cls-10" d="M261.24161,193.83718l.53114,2.62089c.04336.00824.08664.01461.13.02363a7.52853,7.52853,0,0,1,.97872.27548l1.69594-2.03482"/><path class="cls-10" d="M261.77275,196.45807l-.53114-2.62089a9.95606,9.95606,0,0,0-1.75877.00028L259.03,196.448"/><path class="cls-10" d="M266.10371,195.5957l-.8495,2.5368a7.4818,7.4818,0,0,1,.77214.77068l2.47792-.93484"/><path class="cls-10" d="M265.25421,198.1325l.8495-2.5368a9.92872,9.92872,0,0,0-1.52626-.87334l-1.69594,2.03482"/><path class="cls-10" d="M257.86136,196.76223l-1.784-1.98924a10.053,10.053,0,0,0-1.51494.89409l.93139,2.47912"/><path class="cls-10" d="M256.07734,194.773l1.784,1.98924A7.44981,7.44981,0,0,1,259.03,196.448l.4528-2.61051"/><path class="cls-10" d="M266.04936,208.66839l2.53733.8481a9.92265,9.92265,0,0,0,.87236-1.52671l-2.03573-1.69491"/><path class="cls-10" d="M252.18665,198.0642l2.53552.853a7.481,7.481,0,0,1,.77162-.771l-.93139-2.47912"/><path class="cls-10" d="M267.41328,201.269l1.98677-1.78677a10.05592,10.05592,0,0,0-.89578-1.51393l-2.47792.93484"/><path class="cls-10" d="M270.34238,204.65345l-2.62057.53255c-.00846.04471-.01506.0893-.02436.134a7.53071,7.53071,0,0,1-.27413.97484l2.03573,1.69491"/><path class="cls-10" d="M267.72181,205.186l2.62057-.53255a9.94891,9.94891,0,0,0-.0011-1.75879l-2.61082-.45135"/><path class="cls-10" d="M269.40005,199.48227l-1.98677,1.78677a7.44621,7.44621,0,0,1,.31718,1.17427l2.61082.45135"/><path class="cls-10" d="M262.91388,210.8291l1.78787,1.98577a10.05348,10.05348,0,0,0,1.51352-.8964l-.9362-2.47749"/><path class="cls-10" d="M259.50115,213.75772l-.52611-2.62194c-.03866-.00742-.07724-.013-.11593-.02109a7.52448,7.52448,0,0,1-.99238-.28018l-1.6998,2.03146"/><path class="cls-10" d="M258.975,211.13578l.52611,2.62194a9.95092,9.95092,0,0,0,1.75878.00256l.4578-2.60943"/><path class="cls-10" d="M264.70175,212.81487l-1.78787-1.98577a7.44275,7.44275,0,0,1-1.19615.32175l-.4578,2.60943"/><path class="cls-10" d="M268.58669,209.51649l-2.53733-.8481a7.48156,7.48156,0,0,1-.77029.77259l.9362,2.47749"/><path class="cls-10" d="M255.49688,209.45427l-.85435,2.535a9.92369,9.92369,0,0,0,1.5244.87668l1.6998-2.03146"/><path class="cls-10" d="M250.421,202.92381l2.62163-.52751c.00767-.04.01348-.07993.0218-.11994a7.53345,7.53345,0,0,1,.27884-.98853l-2.03238-1.69871"/><path class="cls-10" d="M254.72217,198.91716l-2.53552-.853a9.92358,9.92358,0,0,0-.87574,1.52492l2.03238,1.69871"/><path class="cls-10" d="M253.04265,202.3963l-2.62163.52751a9.94918,9.94918,0,0,0-.00176,1.75877l2.60974.45641"/><path class="cls-10" d="M253.34352,206.314l-1.99021,1.783a10.05829,10.05829,0,0,0,.89343,1.51532l2.47958-.93"/><path class="cls-10" d="M254.64253,211.98929l.85435-2.535a7.48288,7.48288,0,0,1-.77056-.772l-2.47958.93"/><path class="cls-10" d="M251.35331,208.097l1.99021-1.783a7.44668,7.44668,0,0,1-.31452-1.175l-2.60974-.45641"/><line class="cls-9" x1="260.37797" y1="191.53246" x2="260.37797" y2="190.92918"/><line class="cls-11" x1="260.37797" y1="189.00509" x2="260.37797" y2="187.21844"/><line class="cls-9" x1="260.37797" y1="186.25639" x2="260.37797" y2="185.6531"/><circle class="cls-9" cx="260.40139" cy="181.92565" r="1.71648"/><line class="cls-9" x1="260.37797" y1="216.0639" x2="260.37797" y2="216.66718"/><line class="cls-11" x1="260.37797" y1="218.59127" x2="260.37797" y2="220.37792"/><line class="cls-9" x1="260.37797" y1="221.33996" x2="260.37797" y2="221.94326"/><circle class="cls-9" cx="260.40139" cy="225.67071" r="1.71648"/><line class="cls-9" x1="253.0767" y1="193.93888" x2="252.71836" y2="193.45355"/><line class="cls-11" x1="251.57551" y1="191.90566" x2="250.51426" y2="190.46833"/><line class="cls-9" x1="249.94282" y1="189.69439" x2="249.58448" y2="189.20905"/><circle class="cls-9" cx="247.3893" cy="186.19648" r="1.71648"/><line class="cls-9" x1="248.63236" y1="200.2116" x2="248.05579" y2="200.03401"/><line class="cls-11" x1="246.21699" y1="199.46761" x2="244.5095" y2="198.94166"/><line class="cls-9" x1="243.59007" y1="198.65847" x2="243.01353" y2="198.48087"/><circle class="cls-9" cx="239.45812" cy="197.36122" r="1.71648"/><line class="cls-9" x1="248.78288" y1="207.89773" x2="248.21354" y2="208.09733"/><line class="cls-11" x1="246.39781" y1="208.7339" x2="244.71177" y2="209.32499"/><line class="cls-9" x1="243.8039" y1="209.64329" x2="243.2346" y2="209.84287"/><circle class="cls-9" cx="239.7093" cy="211.05397" r="1.71648"/><line class="cls-9" x1="253.46934" y1="213.99166" x2="253.12989" y2="214.4904"/><line class="cls-11" x1="252.04728" y1="216.08102" x2="251.042" y2="217.55802"/><line class="cls-9" x1="250.50071" y1="218.35333" x2="250.16126" y2="218.85206"/><circle class="cls-9" cx="248.04459" cy="221.92032" r="1.71648"/><path id="Shape_19" data-name="Shape 19" class="cls-12" d="M284.76387,207.13827v2.06221a1.10178,1.10178,0,0,1-1.10178,1.10178h-2.20357a1.10178,1.10178,0,0,1-1.10178-1.10178v-2.06221"/><path id="Shape_25" data-name="Shape 25" class="cls-12" d="M280.29063,207.13827h4.532a4.84051,4.84051,0,0,0,2.6957-4.40713,4.958,4.958,0,0,0-9.916,0A4.85522,4.85522,0,0,0,280.29063,207.13827Z"/><path class="cls-12" d="M280.45422,208.81h4.21217"/><path class="cls-4" d="M62.819,71.34211c2.35091-1.72747,3.94819-5.10667,3.94819-8.99364,0-5.64349-3.36655-7.77728-7.51937-7.77728s-7.51934,2.13379-7.51934,7.77728c0,3.88749,1.59784,7.26721,3.94936,8.99442"/><path class="cls-4" d="M43.30774,88.57119l2.63719-11.79077a4.698,4.698,0,0,1,2.02727-2.67337,23.18138,23.18138,0,0,1,7.7043-2.76494,5.58314,5.58314,0,0,0,7.14254,0"/><path class="cls-4" d="M75.18274,88.57119l-2.6372-11.79077a4.698,4.698,0,0,0-2.02727-2.67337A23.18126,23.18126,0,0,0,62.814,71.34211"/><path class="cls-4" d="M74.91954,70.95665a5.52368,5.52368,0,0,0,2.02-4.49682c0-2.82174-1.72244-3.88864-3.84717-3.88864s-3.84716,1.0669-3.84716,3.88864A5.52338,5.52338,0,0,0,71.26587,70.957"/><path class="cls-4" d="M71.26516,70.95665a2.90781,2.90781,0,0,0,3.65438,0"/><path class="cls-4" d="M81.24524,79.57119,79.896,73.67581a2.356,2.356,0,0,0-1.03723-1.33669A12.02666,12.02666,0,0,0,74.917,70.95665"/><path class="cls-4" d="M43.57094,70.95665a5.52366,5.52366,0,0,1-2.02-4.49682c0-2.82174,1.72244-3.88864,3.84717-3.88864s3.84716,1.0669,3.84716,3.88864A5.52338,5.52338,0,0,1,47.22461,70.957"/><path class="cls-4" d="M47.22532,70.95665a2.90781,2.90781,0,0,1-3.65438,0"/><path class="cls-4" d="M37.24524,79.57119l1.34928-5.89538a2.35593,2.35593,0,0,1,1.03722-1.33669,12.02678,12.02678,0,0,1,3.94179-1.38247"/></svg>