<?xml version="1.0" encoding="UTF-8"?><svg id="a" xmlns="http://www.w3.org/2000/svg" viewBox="0 0 643.352 359.736"><defs><style>.ah{fill:#fff;}.ai{fill:#999;}.aj{fill:#1fbf51;}.ak{fill:#1d9cd3;}.al{fill:#231f20;}</style></defs><rect class="aj" x="280.429" y="198.333" width="217.058" height="1"/><rect class="al" x="376.602" y="92.245" width="1" height="48.185"/><path class="al" d="M461.77,359.736h-169.336V149.2h169.336v210.536Zm-168.336-1h167.336V150.2h-167.336v208.536Z"/><path class="al" d="M479.594,93.204h-204.984V8.511h204.984V93.204Zm-203.984-1h202.984V9.511h-202.984V92.204Z"/><g><rect x="318.272" width="117.66" height="18.188"/><path class="ah" d="M334.476,5.404v7.096h-1.359l-1.849-4.038v4.038h-1.35V5.404h1.35l1.849,4.058V5.404h1.359Z"/><path class="ah" d="M339.768,9.792v.91c0,1.149-.93,1.949-2.169,1.949s-2.169-.819-2.169-1.999v-3.378c0-1.31,1.03-2.019,2.149-2.019s2.169,.709,2.169,2.029h-1.539c0-.439-.24-.669-.61-.669-.39,0-.619,.23-.619,.649v.95c.29-.15,.6-.23,.89-.23,1.029,0,1.898,.64,1.898,1.809Zm-1.549-.15c0-.3-.23-.48-.61-.48-.399,0-.629,.2-.629,.5v1.099c0,.33,.239,.53,.629,.53,.38,0,.61-.2,.61-.53v-1.119Z"/><path class="ah" d="M346.478,11.101v1.399h-3.688V5.404h1.549v5.697h2.139Z"/><path class="ah" d="M350.366,11.251h-1.449l-.289,1.25h-1.51l1.529-7.096h2.009l1.539,7.096h-1.539l-.29-1.25Zm-.719-3.958l-.45,2.559h.899l-.449-2.559Z"/><path class="ah" d="M357.548,5.404v7.096h-1.359l-1.849-4.038v4.038h-1.35V5.404h1.35l1.849,4.058V5.404h1.359Z"/><path class="ah" d="M360.511,10.631v-3.358c0-1.189,.92-2.019,2.339-2.019s2.349,.83,2.349,2.019v.89h-1.569v-.91c0-.36-.26-.6-.77-.6-.529,0-.799,.24-.799,.6v3.398c0,.36,.27,.6,.789,.6s.779-.24,.779-.6v-.909h1.569v.889c0,1.189-.919,2.019-2.339,2.019s-2.349-.83-2.349-2.019Z"/><path class="ah" d="M366.061,10.631v-3.358c0-1.189,.919-2.019,2.358-2.019,1.43,0,2.358,.83,2.358,2.019v3.358c0,1.189-.919,2.019-2.349,2.019-1.438,0-2.368-.83-2.368-2.019Zm3.168,.02v-3.398c0-.36-.24-.6-.8-.6-.579,0-.819,.24-.819,.6v3.398c0,.36,.24,.6,.81,.6s.81-.24,.81-.6Z"/><path class="ah" d="M376.268,5.404v7.096h-1.359l-1.849-4.038v4.038h-1.35V5.404h1.35l1.849,4.058V5.404h1.359Z"/><path class="ah" d="M381.514,6.803h-1.469v5.697h-1.55V6.803h-1.479v-1.399h4.497v1.399Z"/><path class="ah" d="M384.562,9.942h-.739v2.559h-1.55V5.404h2.359c1.239,0,2.118,.79,2.118,1.939v.66c0,.63-.27,1.159-.709,1.499l.919,2.999h-1.619l-.779-2.559Zm-.739-1.399h.909c.29,0,.47-.18,.47-.47v-.799c0-.29-.18-.47-.46-.47h-.919v1.739Z"/><path class="ah" d="M387.664,10.631v-3.358c0-1.189,.919-2.019,2.358-2.019,1.43,0,2.358,.83,2.358,2.019v3.358c0,1.189-.919,2.019-2.349,2.019-1.438,0-2.368-.83-2.368-2.019Zm3.168,.02v-3.398c0-.36-.24-.6-.8-.6-.579,0-.819,.24-.819,.6v3.398c0,.36,.24,.6,.81,.6s.81-.24,.81-.6Z"/><path class="ah" d="M397.003,11.101v1.399h-3.688V5.404h1.55v5.697h2.139Z"/><path class="ah" d="M404.223,7.343v.91c0,1.149-.87,1.949-2.109,1.949h-.819v2.299h-1.549V5.404h2.358c1.239,0,2.119,.8,2.119,1.939Zm-1.549-.07c0-.28-.181-.47-.46-.47h-.92v1.999h.91c.289,0,.47-.19,.47-.48v-1.049Z"/><path class="ah" d="M408.746,11.101v1.399h-3.688V5.404h1.549v5.697h2.139Z"/><path class="ah" d="M412.635,11.251h-1.449l-.289,1.25h-1.51l1.529-7.096h2.009l1.539,7.096h-1.539l-.29-1.25Zm-.719-3.958l-.45,2.559h.899l-.449-2.559Z"/><path class="ah" d="M419.816,5.404v7.096h-1.359l-1.849-4.038v4.038h-1.35V5.404h1.35l1.849,4.058V5.404h1.359Z"/><path class="ah" d="M422.354,6.803v1.549h1.719v1.399h-1.719v1.349h2.119v1.399h-3.668V5.404h3.668v1.399h-2.119Z"/></g><g><rect x="318.734" y="139.605" width="116.736" height="18.188"/><path class="ah" d="M342.723,145.008v7.096h-1.359l-1.849-4.037v4.037h-1.35v-7.096h1.35l1.849,4.058v-4.058h1.359Z"/><path class="ah" d="M348.015,149.396v.909c0,1.149-.93,1.949-2.169,1.949s-2.169-.819-2.169-1.999v-3.378c0-1.31,1.029-2.02,2.148-2.02s2.169,.71,2.169,2.029h-1.539c0-.439-.24-.67-.609-.67-.39,0-.62,.23-.62,.649v.95c.29-.15,.6-.23,.89-.23,1.029,0,1.899,.64,1.899,1.81Zm-1.55-.15c0-.3-.229-.479-.609-.479-.399,0-.63,.2-.63,.5v1.099c0,.33,.24,.53,.63,.53,.38,0,.609-.2,.609-.53v-1.119Z"/><path class="ah" d="M354.725,150.705v1.399h-3.688v-7.096h1.55v5.696h2.139Z"/><path class="ah" d="M358.613,150.855h-1.449l-.29,1.249h-1.509l1.529-7.096h2.009l1.539,7.096h-1.539l-.29-1.249Zm-.72-3.958l-.449,2.559h.899l-.45-2.559Z"/><path class="ah" d="M365.795,145.008v7.096h-1.359l-1.849-4.037v4.037h-1.35v-7.096h1.35l1.849,4.058v-4.058h1.359Z"/><path class="ah" d="M373.395,147.027v3.059c0,1.189-.919,2.019-2.269,2.019h-2.299v-7.096h2.289c1.35,0,2.278,.829,2.278,2.019Zm-1.549-.02c0-.36-.229-.6-.619-.6h-.85v4.297h.839c.4,0,.63-.239,.63-.6v-3.098Z"/><path class="ah" d="M377.243,150.855h-1.449l-.289,1.249h-1.51l1.529-7.096h2.009l1.539,7.096h-1.539l-.29-1.249Zm-.719-3.958l-.45,2.559h.899l-.449-2.559Z"/><path class="ah" d="M383.601,146.408h-1.47v5.696h-1.549v-5.696h-1.479v-1.399h4.498v1.399Z"/><path class="ah" d="M386.897,150.855h-1.449l-.29,1.249h-1.509l1.529-7.096h2.009l1.539,7.096h-1.539l-.29-1.249Zm-.72-3.958l-.449,2.559h.899l-.45-2.559Z"/><path class="ah" d="M395.977,146.947v.91c0,1.149-.869,1.948-2.108,1.948h-.819v2.299h-1.55v-7.096h2.359c1.239,0,2.118,.8,2.118,1.938Zm-1.549-.069c0-.28-.18-.47-.46-.47h-.919v1.999h.909c.29,0,.47-.19,.47-.48v-1.049Z"/><path class="ah" d="M400.501,150.705v1.399h-3.688v-7.096h1.549v5.696h2.139Z"/><path class="ah" d="M404.39,150.855h-1.449l-.29,1.249h-1.509l1.529-7.096h2.009l1.539,7.096h-1.539l-.29-1.249Zm-.72-3.958l-.449,2.559h.899l-.45-2.559Z"/><path class="ah" d="M411.572,145.008v7.096h-1.359l-1.849-4.037v4.037h-1.35v-7.096h1.35l1.849,4.058v-4.058h1.359Z"/><path class="ah" d="M414.108,146.408v1.549h1.72v1.399h-1.72v1.349h2.119v1.399h-3.668v-7.096h3.668v1.399h-2.119Z"/></g><g id="b"><g id="c"><path d="M58.882,256.478h-4c-.276,0-.5,.224-.5,.5s.224,.5,.5,.5h4c.276,0,.5-.224,.5-.5s-.224-.5-.5-.5Z"/><path d="M46.882,259.503h20c.827,0,1.5-.673,1.5-1.5v-38.05c0-.827-.673-1.5-1.5-1.5h-20c-.827,0-1.5,.673-1.5,1.5v38.05c0,.827,.673,1.5,1.5,1.5Zm20-1h-20c-.275,0-.5-.224-.5-.5v-2.617c.157,.056,.324,.092,.5,.092h20c.176,0,.343-.036,.5-.092v2.617c0,.276-.225,.5-.5,.5Zm.5-4.525c0,.276-.225,.5-.5,.5h-20c-.275,0-.5-.224-.5-.5v-30c0-.276,.225-.5,.5-.5h20c.275,0,.5,.224,.5,.5v30Zm-20.5-34.525h20c.275,0,.5,.224,.5,.5v2.617c-.157-.056-.324-.092-.5-.092h-20c-.176,0-.343,.036-.5,.092v-2.617c0-.276,.225-.5,.5-.5Z"/><circle cx="48.882" cy="220.978" r="1"/></g></g><g id="d"><g id="e"><path d="M59.994,203.461h-6c-.276,0-.5,.224-.5,.5s.224,.5,.5,.5h6c.276,0,.5-.224,.5-.5s-.224-.5-.5-.5Z"/><path d="M77.494,201.709v-21.748c0-.276-.224-.5-.5-.5H36.994c-.276,0-.5,.224-.5,.5v21.748c-.369,.303-1,1.001-1,2.252,0,1.727,1.208,2.41,1.26,2.438,.073,.041,.156,.062,.24,.062h40c.084,0,.167-.021,.24-.062,.052-.028,1.26-.711,1.26-2.438,0-1.252-.631-1.949-1-2.252Zm-1-21.248v21H37.494v-21h39Zm.347,25H37.147c-.2-.157-.653-.611-.653-1.5s.456-1.346,.653-1.5h39.693c.2,.157,.653,.611,.653,1.5s-.452,1.343-.652,1.5Z"/></g></g><g id="f"><g id="g"><circle cx="56.249" cy="297.037" r="1"/><path d="M76.222,271.537H36.194c-.133,0-.26,.053-.354,.147-.095,.094-.146,.221-.146,.354l.054,22.865c-.012,.044-.026,.086-.026,.134s.015,.092,.027,.136v3.864c0,.276,.224,.5,.5,.5h19.473v2h-8.44c-.276,0-.5,.224-.5,.5s.224,.5,.5,.5h18c.276,0,.5-.224,.5-.5s-.224-.5-.5-.5h-8.56v-2h19.5c.276,0,.5-.224,.5-.5v-27c0-.276-.224-.5-.5-.5Zm-.5,1v22H36.748l-.053-22h39.027Zm-38.973,26v-3h38.973v3H36.749Z"/></g></g><g id="h"><g id="i"><path d="M319.8,56.671c.276,0,.5-.224,.5-.5v-2.981c0-.276-.224-.5-.5-.5s-.5,.224-.5,.5v2.981c0,.276,.224,.5,.5,.5Z"/><path d="M315.8,56.671c.276,0,.5-.224,.5-.5v-2.981c0-.276-.224-.5-.5-.5s-.5,.224-.5,.5v2.981c0,.276,.224,.5,.5,.5Z"/><path d="M311.8,56.671c.276,0,.5-.224,.5-.5v-2.981c0-.276-.224-.5-.5-.5s-.5,.224-.5,.5v2.981c0,.276,.224,.5,.5,.5Z"/><path d="M288.8,56.68c1.103,0,2-.897,2-2s-.897-2-2-2-2,.897-2,2,.897,2,2,2Zm0-3c.552,0,1,.448,1,1s-.448,1-1,1-1-.448-1-1,.448-1,1-1Z"/><path d="M285.186,59.18h37.228c1.04,0,1.886-.846,1.886-1.886v-5.191c0-.56-.245-1.061-.629-1.413,.383-.346,.629-.841,.629-1.396v-5.191c0-.56-.245-1.061-.629-1.413,.383-.346,.629-.841,.629-1.396v-5.191c0-1.06-.863-1.923-1.923-1.923h-37.191c-1.04,0-1.886,.846-1.886,1.886v5.228c0,.55,.241,1.041,.617,1.386-.376,.345-.617,.836-.617,1.386v5.228c0,.55,.241,1.041,.617,1.386-.376,.345-.617,.836-.617,1.386v5.228c0,1.04,.846,1.886,1.886,1.886Zm-.886-17.886v-5.228c0-.489,.397-.886,.886-.886h37.191c.509,0,.923,.414,.923,.923v5.191c0,.489-.397,.886-.886,.886h-37.228c-.489,0-.886-.397-.886-.886Zm0,8v-5.228c0-.489,.397-.886,.886-.886h37.191c.509,0,.923,.414,.923,.923v5.191c0,.489-.397,.886-.886,.886h-37.228c-.489,0-.886-.397-.886-.886Zm38.077,1.886c.509,0,.923,.414,.923,.923v5.191c0,.489-.397,.886-.886,.886h-37.228c-.489,0-.886-.397-.886-.886v-5.228c0-.489,.397-.886,.886-.886h37.191Z"/><path d="M319.8,44.689c-.276,0-.5,.224-.5,.5v2.981c0,.276,.224,.5,.5,.5s.5-.224,.5-.5v-2.981c0-.276-.224-.5-.5-.5Z"/><path d="M315.8,44.689c-.276,0-.5,.224-.5,.5v2.981c0,.276,.224,.5,.5,.5s.5-.224,.5-.5v-2.981c0-.276-.224-.5-.5-.5Z"/><path d="M311.8,44.689c-.276,0-.5,.224-.5,.5v2.981c0,.276,.224,.5,.5,.5s.5-.224,.5-.5v-2.981c0-.276-.224-.5-.5-.5Z"/><path d="M288.8,44.68c-1.103,0-2,.897-2,2s.897,2,2,2,2-.897,2-2-.897-2-2-2Zm0,3c-.552,0-1-.448-1-1s.448-1,1-1,1,.448,1,1-.448,1-1,1Z"/><path d="M319.8,36.689c-.276,0-.5,.224-.5,.5v2.981c0,.276,.224,.5,.5,.5s.5-.224,.5-.5v-2.981c0-.276-.224-.5-.5-.5Z"/><path d="M315.8,36.689c-.276,0-.5,.224-.5,.5v2.981c0,.276,.224,.5,.5,.5s.5-.224,.5-.5v-2.981c0-.276-.224-.5-.5-.5Z"/><path d="M311.8,36.689c-.276,0-.5,.224-.5,.5v2.981c0,.276,.224,.5,.5,.5s.5-.224,.5-.5v-2.981c0-.276-.224-.5-.5-.5Z"/><path d="M288.8,36.68c-1.103,0-2,.897-2,2s.897,2,2,2,2-.897,2-2-.897-2-2-2Zm0,3c-.552,0-1-.448-1-1s.448-1,1-1,1,.448,1,1-.448,1-1,1Z"/></g></g><g id="j"><g id="k"><path d="M368.839,56.671c.276,0,.5-.224,.5-.5v-2.981c0-.276-.224-.5-.5-.5s-.5,.224-.5,.5v2.981c0,.276,.224,.5,.5,.5Z"/><path d="M364.839,56.671c.276,0,.5-.224,.5-.5v-2.981c0-.276-.224-.5-.5-.5s-.5,.224-.5,.5v2.981c0,.276,.224,.5,.5,.5Z"/><path d="M360.839,56.671c.276,0,.5-.224,.5-.5v-2.981c0-.276-.224-.5-.5-.5s-.5,.224-.5,.5v2.981c0,.276,.224,.5,.5,.5Z"/><path d="M337.839,56.68c1.103,0,2-.897,2-2s-.897-2-2-2-2,.897-2,2,.897,2,2,2Zm0-3c.552,0,1,.448,1,1s-.448,1-1,1-1-.448-1-1,.448-1,1-1Z"/><path d="M334.225,59.18h37.228c1.04,0,1.886-.846,1.886-1.886v-5.191c0-.56-.245-1.061-.629-1.413,.383-.346,.629-.841,.629-1.396v-5.191c0-.56-.245-1.061-.629-1.413,.383-.346,.629-.841,.629-1.396v-5.191c0-1.06-.863-1.923-1.923-1.923h-37.191c-1.04,0-1.886,.846-1.886,1.886v5.228c0,.55,.241,1.041,.617,1.386-.376,.345-.617,.836-.617,1.386v5.228c0,.55,.241,1.041,.617,1.386-.376,.345-.617,.836-.617,1.386v5.228c0,1.04,.846,1.886,1.886,1.886Zm-.886-17.886v-5.228c0-.489,.397-.886,.886-.886h37.191c.509,0,.923,.414,.923,.923v5.191c0,.489-.397,.886-.886,.886h-37.228c-.489,0-.886-.397-.886-.886Zm0,8v-5.228c0-.489,.397-.886,.886-.886h37.191c.509,0,.923,.414,.923,.923v5.191c0,.489-.397,.886-.886,.886h-37.228c-.489,0-.886-.397-.886-.886Zm38.077,1.886c.509,0,.923,.414,.923,.923v5.191c0,.489-.397,.886-.886,.886h-37.228c-.489,0-.886-.397-.886-.886v-5.228c0-.489,.397-.886,.886-.886h37.191Z"/><path d="M368.839,44.689c-.276,0-.5,.224-.5,.5v2.981c0,.276,.224,.5,.5,.5s.5-.224,.5-.5v-2.981c0-.276-.224-.5-.5-.5Z"/><path d="M364.839,44.689c-.276,0-.5,.224-.5,.5v2.981c0,.276,.224,.5,.5,.5s.5-.224,.5-.5v-2.981c0-.276-.224-.5-.5-.5Z"/><path d="M360.839,44.689c-.276,0-.5,.224-.5,.5v2.981c0,.276,.224,.5,.5,.5s.5-.224,.5-.5v-2.981c0-.276-.224-.5-.5-.5Z"/><path d="M337.839,44.68c-1.103,0-2,.897-2,2s.897,2,2,2,2-.897,2-2-.897-2-2-2Zm0,3c-.552,0-1-.448-1-1s.448-1,1-1,1,.448,1,1-.448,1-1,1Z"/><path d="M368.839,36.689c-.276,0-.5,.224-.5,.5v2.981c0,.276,.224,.5,.5,.5s.5-.224,.5-.5v-2.981c0-.276-.224-.5-.5-.5Z"/><path d="M364.839,36.689c-.276,0-.5,.224-.5,.5v2.981c0,.276,.224,.5,.5,.5s.5-.224,.5-.5v-2.981c0-.276-.224-.5-.5-.5Z"/><path d="M360.839,36.689c-.276,0-.5,.224-.5,.5v2.981c0,.276,.224,.5,.5,.5s.5-.224,.5-.5v-2.981c0-.276-.224-.5-.5-.5Z"/><path d="M337.839,36.68c-1.103,0-2,.897-2,2s.897,2,2,2,2-.897,2-2-.897-2-2-2Zm0,3c-.552,0-1-.448-1-1s.448-1,1-1,1,.448,1,1-.448,1-1,1Z"/></g></g><g id="l"><g id="m"><path d="M416.878,56.671c.276,0,.5-.224,.5-.5v-2.981c0-.276-.224-.5-.5-.5s-.5,.224-.5,.5v2.981c0,.276,.224,.5,.5,.5Z"/><path d="M412.878,56.671c.276,0,.5-.224,.5-.5v-2.981c0-.276-.224-.5-.5-.5s-.5,.224-.5,.5v2.981c0,.276,.224,.5,.5,.5Z"/><path d="M408.878,56.671c.276,0,.5-.224,.5-.5v-2.981c0-.276-.224-.5-.5-.5s-.5,.224-.5,.5v2.981c0,.276,.224,.5,.5,.5Z"/><path d="M385.878,56.68c1.103,0,2-.897,2-2s-.897-2-2-2-2,.897-2,2,.897,2,2,2Zm0-3c.552,0,1,.448,1,1s-.448,1-1,1-1-.448-1-1,.448-1,1-1Z"/><path d="M382.264,59.18h37.228c1.04,0,1.886-.846,1.886-1.886v-5.191c0-.56-.245-1.061-.629-1.413,.383-.346,.629-.841,.629-1.396v-5.191c0-.56-.245-1.061-.629-1.413,.383-.346,.629-.841,.629-1.396v-5.191c0-1.06-.863-1.923-1.923-1.923h-37.191c-1.04,0-1.886,.846-1.886,1.886v5.228c0,.55,.241,1.041,.617,1.386-.376,.345-.617,.836-.617,1.386v5.228c0,.55,.241,1.041,.617,1.386-.376,.345-.617,.836-.617,1.386v5.228c0,1.04,.846,1.886,1.886,1.886Zm-.886-17.886v-5.228c0-.489,.397-.886,.886-.886h37.191c.509,0,.923,.414,.923,.923v5.191c0,.489-.397,.886-.886,.886h-37.228c-.489,0-.886-.397-.886-.886Zm0,8v-5.228c0-.489,.397-.886,.886-.886h37.191c.509,0,.923,.414,.923,.923v5.191c0,.489-.397,.886-.886,.886h-37.228c-.489,0-.886-.397-.886-.886Zm38.077,1.886c.509,0,.923,.414,.923,.923v5.191c0,.489-.397,.886-.886,.886h-37.228c-.489,0-.886-.397-.886-.886v-5.228c0-.489,.397-.886,.886-.886h37.191Z"/><path d="M416.878,44.689c-.276,0-.5,.224-.5,.5v2.981c0,.276,.224,.5,.5,.5s.5-.224,.5-.5v-2.981c0-.276-.224-.5-.5-.5Z"/><path d="M412.878,44.689c-.276,0-.5,.224-.5,.5v2.981c0,.276,.224,.5,.5,.5s.5-.224,.5-.5v-2.981c0-.276-.224-.5-.5-.5Z"/><path d="M408.878,44.689c-.276,0-.5,.224-.5,.5v2.981c0,.276,.224,.5,.5,.5s.5-.224,.5-.5v-2.981c0-.276-.224-.5-.5-.5Z"/><path d="M385.878,44.68c-1.103,0-2,.897-2,2s.897,2,2,2,2-.897,2-2-.897-2-2-2Zm0,3c-.552,0-1-.448-1-1s.448-1,1-1,1,.448,1,1-.448,1-1,1Z"/><path d="M416.878,36.689c-.276,0-.5,.224-.5,.5v2.981c0,.276,.224,.5,.5,.5s.5-.224,.5-.5v-2.981c0-.276-.224-.5-.5-.5Z"/><path d="M412.878,36.689c-.276,0-.5,.224-.5,.5v2.981c0,.276,.224,.5,.5,.5s.5-.224,.5-.5v-2.981c0-.276-.224-.5-.5-.5Z"/><path d="M408.878,36.689c-.276,0-.5,.224-.5,.5v2.981c0,.276,.224,.5,.5,.5s.5-.224,.5-.5v-2.981c0-.276-.224-.5-.5-.5Z"/><path d="M385.878,36.68c-1.103,0-2,.897-2,2s.897,2,2,2,2-.897,2-2-.897-2-2-2Zm0,3c-.552,0-1-.448-1-1s.448-1,1-1,1,.448,1,1-.448,1-1,1Z"/></g></g><g id="n"><g id="o"><path d="M466.918,56.671c.276,0,.5-.224,.5-.5v-2.981c0-.276-.224-.5-.5-.5s-.5,.224-.5,.5v2.981c0,.276,.224,.5,.5,.5Z"/><path d="M462.918,56.671c.276,0,.5-.224,.5-.5v-2.981c0-.276-.224-.5-.5-.5s-.5,.224-.5,.5v2.981c0,.276,.224,.5,.5,.5Z"/><path d="M458.918,56.671c.276,0,.5-.224,.5-.5v-2.981c0-.276-.224-.5-.5-.5s-.5,.224-.5,.5v2.981c0,.276,.224,.5,.5,.5Z"/><path d="M435.918,56.68c1.103,0,2-.897,2-2s-.897-2-2-2-2,.897-2,2,.897,2,2,2Zm0-3c.552,0,1,.448,1,1s-.448,1-1,1-1-.448-1-1,.448-1,1-1Z"/><path d="M432.304,59.18h37.228c1.04,0,1.886-.846,1.886-1.886v-5.191c0-.56-.245-1.061-.629-1.413,.383-.346,.629-.841,.629-1.396v-5.191c0-.56-.245-1.061-.629-1.413,.383-.346,.629-.841,.629-1.396v-5.191c0-1.06-.863-1.923-1.923-1.923h-37.191c-1.04,0-1.886,.846-1.886,1.886v5.228c0,.55,.241,1.041,.617,1.386-.376,.345-.617,.836-.617,1.386v5.228c0,.55,.241,1.041,.617,1.386-.376,.345-.617,.836-.617,1.386v5.228c0,1.04,.846,1.886,1.886,1.886Zm-.886-17.886v-5.228c0-.489,.397-.886,.886-.886h37.191c.509,0,.923,.414,.923,.923v5.191c0,.489-.397,.886-.886,.886h-37.228c-.489,0-.886-.397-.886-.886Zm0,8v-5.228c0-.489,.397-.886,.886-.886h37.191c.509,0,.923,.414,.923,.923v5.191c0,.489-.397,.886-.886,.886h-37.228c-.489,0-.886-.397-.886-.886Zm38.077,1.886c.509,0,.923,.414,.923,.923v5.191c0,.489-.397,.886-.886,.886h-37.228c-.489,0-.886-.397-.886-.886v-5.228c0-.489,.397-.886,.886-.886h37.191Z"/><path d="M466.918,44.689c-.276,0-.5,.224-.5,.5v2.981c0,.276,.224,.5,.5,.5s.5-.224,.5-.5v-2.981c0-.276-.224-.5-.5-.5Z"/><path d="M462.918,44.689c-.276,0-.5,.224-.5,.5v2.981c0,.276,.224,.5,.5,.5s.5-.224,.5-.5v-2.981c0-.276-.224-.5-.5-.5Z"/><path d="M458.918,44.689c-.276,0-.5,.224-.5,.5v2.981c0,.276,.224,.5,.5,.5s.5-.224,.5-.5v-2.981c0-.276-.224-.5-.5-.5Z"/><path d="M435.918,44.68c-1.103,0-2,.897-2,2s.897,2,2,2,2-.897,2-2-.897-2-2-2Zm0,3c-.552,0-1-.448-1-1s.448-1,1-1,1,.448,1,1-.448,1-1,1Z"/><path d="M466.918,36.689c-.276,0-.5,.224-.5,.5v2.981c0,.276,.224,.5,.5,.5s.5-.224,.5-.5v-2.981c0-.276-.224-.5-.5-.5Z"/><path d="M462.918,36.689c-.276,0-.5,.224-.5,.5v2.981c0,.276,.224,.5,.5,.5s.5-.224,.5-.5v-2.981c0-.276-.224-.5-.5-.5Z"/><path d="M458.918,36.689c-.276,0-.5,.224-.5,.5v2.981c0,.276,.224,.5,.5,.5s.5-.224,.5-.5v-2.981c0-.276-.224-.5-.5-.5Z"/><path d="M435.918,36.68c-1.103,0-2,.897-2,2s.897,2,2,2,2-.897,2-2-.897-2-2-2Zm0,3c-.552,0-1-.448-1-1s.448-1,1-1,1,.448,1,1-.448,1-1,1Z"/></g></g><g><path d="M186.142,233.988h-3.719l-.648,1.628h-1.014l2.949-7.338h1.133l2.959,7.338h-1.012l-.648-1.628Zm-3.455-.814h3.18l-1.584-4.082-1.596,4.082Z"/><path d="M191.069,230.17c.969,0,1.541,.396,1.947,.925l-.551,.506c-.352-.483-.803-.692-1.352-.692-1.135,0-1.838,.869-1.838,2.045s.703,2.059,1.838,2.059c.549,0,1-.221,1.352-.693l.551,.506c-.406,.527-.979,.924-1.947,.924-1.584,0-2.652-1.21-2.652-2.795,0-1.572,1.068-2.783,2.652-2.783Z"/><path d="M196.515,230.17c.969,0,1.541,.396,1.947,.925l-.551,.506c-.352-.483-.803-.692-1.352-.692-1.135,0-1.838,.869-1.838,2.045s.703,2.059,1.838,2.059c.549,0,1-.221,1.352-.693l.551,.506c-.406,.527-.979,.924-1.947,.924-1.584,0-2.652-1.21-2.652-2.795,0-1.572,1.068-2.783,2.652-2.783Z"/><path d="M201.927,230.17c1.605,0,2.553,1.255,2.553,2.85v.209h-4.303c.066,1.002,.771,1.838,1.916,1.838,.604,0,1.221-.242,1.639-.672l.396,.539c-.529,.529-1.244,.814-2.113,.814-1.572,0-2.707-1.133-2.707-2.795,0-1.539,1.102-2.783,2.619-2.783Zm-1.75,2.454h3.488c-.012-.792-.539-1.771-1.75-1.771-1.133,0-1.693,.957-1.738,1.771Z"/><path d="M205.776,234.318c.352,.406,1.023,.759,1.748,.759,.814,0,1.256-.363,1.256-.88,0-.584-.65-.771-1.365-.946-.902-.209-1.926-.451-1.926-1.552,0-.824,.715-1.529,1.98-1.529,.902,0,1.541,.342,1.971,.771l-.387,.572c-.318-.386-.902-.671-1.584-.671-.727,0-1.176,.33-1.176,.803,0,.518,.604,.682,1.297,.848,.924,.209,1.992,.473,1.992,1.65,0,.891-.715,1.605-2.09,1.605-.869,0-1.607-.264-2.146-.836l.43-.594Z"/><path d="M210.892,234.318c.352,.406,1.023,.759,1.748,.759,.814,0,1.256-.363,1.256-.88,0-.584-.65-.771-1.365-.946-.902-.209-1.926-.451-1.926-1.552,0-.824,.715-1.529,1.98-1.529,.902,0,1.541,.342,1.971,.771l-.387,.572c-.318-.386-.902-.671-1.584-.671-.727,0-1.176,.33-1.176,.803,0,.518,.604,.682,1.297,.848,.924,.209,1.992,.473,1.992,1.65,0,.891-.715,1.605-2.09,1.605-.869,0-1.607-.264-2.146-.836l.43-.594Z"/><path d="M179.276,240.697v5.919h-.912v-7.338h.934l4.225,5.798v-5.798h.914v7.338h-.881l-4.279-5.919Z"/><path d="M188.429,241.171c1.605,0,2.553,1.254,2.553,2.849v.209h-4.303c.066,1.002,.771,1.838,1.916,1.838,.604,0,1.221-.242,1.639-.671l.396,.539c-.529,.527-1.244,.813-2.113,.813-1.572,0-2.707-1.133-2.707-2.794,0-1.54,1.102-2.783,2.619-2.783Zm-1.75,2.453h3.488c-.012-.792-.539-1.771-1.75-1.771-1.133,0-1.693,.957-1.738,1.771Z"/><path d="M192.476,245.505v-3.477h-.879v-.726h.879v-1.452h.826v1.452h1.078v.726h-1.078v3.301c0,.396,.176,.682,.539,.682,.23,0,.451-.099,.561-.22l.242,.616c-.209,.198-.506,.341-.99,.341-.781,0-1.178-.451-1.178-1.243Z"/><path d="M198.757,242.347l-1.385,4.269h-.826l-1.693-5.313h.857l1.299,4.235,1.396-4.235h.705l1.396,4.235,1.299-4.235h.857l-1.693,5.313h-.826l-1.387-4.269Z"/><path d="M203.312,243.954c0-1.54,1.012-2.783,2.629-2.783s2.629,1.243,2.629,2.783-1.012,2.794-2.629,2.794-2.629-1.254-2.629-2.794Zm4.389,0c0-1.078-.627-2.047-1.76-2.047s-1.771,.969-1.771,2.047c0,1.089,.639,2.057,1.771,2.057s1.76-.968,1.76-2.057Z"/><path d="M209.911,241.302h.826v.857c.428-.561,1.045-.968,1.771-.968v.848c-.1-.022-.199-.033-.33-.033-.508,0-1.199,.418-1.441,.847v3.763h-.826v-5.313Z"/><path d="M215.247,244.228l-.881,.869v1.519h-.824v-7.338h.824v4.852l2.795-2.827h1.045l-2.354,2.409,2.365,2.904h-1.057l-1.914-2.388Z"/></g><g><path d="M252.549,228.278h.913v4.466c0,1.343,.726,2.189,2.079,2.189s2.079-.847,2.079-2.189v-4.466h.913v4.478c0,1.826-1.001,2.992-2.992,2.992s-2.992-1.177-2.992-2.981v-4.488Z"/><path d="M260.249,228.278h2.948c1.475,0,2.299,1.013,2.299,2.211s-.847,2.212-2.299,2.212h-2.035v2.915h-.913v-7.338Zm2.838,.813h-1.925v2.795h1.925c.869,0,1.464-.572,1.464-1.397s-.595-1.397-1.464-1.397Z"/><path d="M266.706,228.278h4.808v.813h-3.895v2.365h3.817v.814h-3.817v3.345h-.913v-7.338Z"/></g><g><path d="M498.791,228.279h.913v7.338h-.913v-7.338Z"/><path d="M504.974,232.14c0-.936-.474-1.232-1.188-1.232-.649,0-1.266,.396-1.573,.825v3.884h-.825v-5.313h.825v.77c.374-.439,1.1-.901,1.893-.901,1.11,0,1.693,.561,1.693,1.716v3.729h-.824v-3.477Z"/><path d="M507.612,234.506v-3.477h-.88v-.726h.88v-1.452h.825v1.452h1.078v.726h-1.078v3.301c0,.396,.176,.682,.539,.682,.23,0,.451-.099,.561-.22l.242,.616c-.209,.198-.506,.341-.99,.341-.781,0-1.177-.451-1.177-1.243Z"/><path d="M512.992,230.172c1.605,0,2.552,1.254,2.552,2.849v.209h-4.302c.066,1.002,.771,1.838,1.915,1.838,.604,0,1.221-.242,1.639-.671l.396,.539c-.528,.527-1.243,.813-2.112,.813-1.573,0-2.707-1.133-2.707-2.794,0-1.54,1.101-2.783,2.619-2.783Zm-1.75,2.453h3.488c-.012-.792-.539-1.771-1.75-1.771-1.133,0-1.693,.957-1.738,1.771Z"/><path d="M516.874,230.303h.825v.857c.429-.561,1.045-.968,1.771-.968v.847c-.1-.021-.198-.032-.33-.032-.507,0-1.199,.418-1.441,.847v3.763h-.825v-5.313Z"/><path d="M524.091,232.14c0-.936-.474-1.232-1.188-1.232-.649,0-1.266,.396-1.573,.825v3.884h-.825v-5.313h.825v.77c.374-.439,1.1-.901,1.893-.901,1.11,0,1.693,.561,1.693,1.716v3.729h-.824v-3.477Z"/><path d="M528.875,230.172c1.605,0,2.552,1.254,2.552,2.849v.209h-4.302c.066,1.002,.771,1.838,1.915,1.838,.604,0,1.221-.242,1.639-.671l.396,.539c-.528,.527-1.243,.813-2.112,.813-1.573,0-2.707-1.133-2.707-2.794,0-1.54,1.101-2.783,2.619-2.783Zm-1.75,2.453h3.488c-.012-.792-.539-1.771-1.75-1.771-1.133,0-1.693,.957-1.738,1.771Z"/><path d="M532.922,234.506v-3.477h-.88v-.726h.88v-1.452h.825v1.452h1.078v.726h-1.078v3.301c0,.396,.176,.682,.539,.682,.23,0,.451-.099,.561-.22l.242,.616c-.209,.198-.506,.341-.99,.341-.781,0-1.177-.451-1.177-1.243Z"/></g><g><path d="M295.571,72.809h-3.719l-.648,1.628h-1.013l2.949-7.338h1.133l2.959,7.338h-1.012l-.649-1.628Zm-3.454-.814h3.18l-1.585-4.081-1.595,4.081Z"/><path d="M297.903,67.099h.913v4.467c0,1.342,.726,2.189,2.079,2.189s2.079-.848,2.079-2.189v-4.467h.913v4.478c0,1.826-1.001,2.992-2.992,2.992s-2.992-1.177-2.992-2.981v-4.488Z"/><path d="M305.702,72.711c.484,.539,1.276,1.045,2.311,1.045,1.309,0,1.728-.704,1.728-1.266,0-.88-.892-1.122-1.859-1.386-1.178-.309-2.486-.639-2.486-2.079,0-1.211,1.078-2.036,2.519-2.036,1.123,0,1.992,.374,2.607,1.023l-.55,.671c-.55-.604-1.32-.88-2.123-.88-.88,0-1.507,.473-1.507,1.166,0,.737,.847,.957,1.782,1.21,1.198,.319,2.562,.693,2.562,2.233,0,1.067-.726,2.156-2.706,2.156-1.276,0-2.211-.483-2.816-1.166l.539-.692Z"/><path d="M312.05,67.099h4.808v.814h-3.895v2.365h3.817v.813h-3.817v3.345h-.913v-7.338Z"/></g><g><path d="M341.649,67.099h.913v4.467c0,1.342,.726,2.189,2.079,2.189s2.079-.848,2.079-2.189v-4.467h.913v4.478c0,1.826-1.001,2.992-2.992,2.992s-2.992-1.177-2.992-2.981v-4.488Z"/><path d="M349.35,67.099h2.508c2.277,0,3.763,1.596,3.763,3.675,0,2.09-1.485,3.663-3.763,3.663h-2.508v-7.338Zm2.508,6.524c1.782,0,2.816-1.276,2.816-2.85,0-1.584-1.001-2.86-2.816-2.86h-1.595v5.71h1.595Z"/><path d="M363.32,68.332l-2.497,6.105h-.374l-2.486-6.105v6.105h-.913v-7.338h1.309l2.277,5.589,2.289-5.589h1.309v7.338h-.913v-6.105Z"/></g><g><path d="M393.841,66.978c2.168,0,3.642,1.628,3.642,3.796s-1.474,3.795-3.642,3.795-3.641-1.628-3.641-3.795,1.463-3.796,3.641-3.796Zm0,.814c-1.649,0-2.695,1.265-2.695,2.981,0,1.705,1.046,2.981,2.695,2.981,1.64,0,2.696-1.276,2.696-2.981,0-1.717-1.057-2.981-2.696-2.981Z"/><path d="M398.615,70.774c0-2.256,1.661-3.796,3.74-3.796,1.331,0,2.233,.627,2.816,1.452l-.771,.43c-.418-.616-1.177-1.067-2.046-1.067-1.573,0-2.795,1.232-2.795,2.981,0,1.738,1.222,2.981,2.795,2.981,.869,0,1.628-.44,2.046-1.067l.781,.429c-.616,.837-1.496,1.452-2.827,1.452-2.079,0-3.74-1.54-3.74-3.795Z"/><path d="M406.446,72.711c.484,.539,1.276,1.045,2.311,1.045,1.309,0,1.728-.704,1.728-1.266,0-.88-.892-1.122-1.859-1.386-1.178-.309-2.486-.639-2.486-2.079,0-1.211,1.078-2.036,2.519-2.036,1.123,0,1.992,.374,2.607,1.023l-.55,.671c-.55-.604-1.32-.88-2.123-.88-.88,0-1.507,.473-1.507,1.166,0,.737,.847,.957,1.782,1.21,1.198,.319,2.562,.693,2.562,2.233,0,1.067-.726,2.156-2.706,2.156-1.276,0-2.211-.483-2.816-1.166l.539-.692Z"/></g><g><path d="M441.733,67.099h2.948c1.474,0,2.299,1.013,2.299,2.211s-.847,2.212-2.299,2.212h-2.035v2.915h-.913v-7.338Zm2.838,.814h-1.925v2.794h1.925c.869,0,1.464-.572,1.464-1.397s-.595-1.396-1.464-1.396Z"/><path d="M447.894,70.774c0-2.256,1.661-3.796,3.74-3.796,1.331,0,2.233,.627,2.816,1.452l-.771,.43c-.418-.616-1.177-1.067-2.046-1.067-1.573,0-2.795,1.232-2.795,2.981,0,1.738,1.222,2.981,2.795,2.981,.869,0,1.628-.44,2.046-1.067l.781,.429c-.616,.837-1.496,1.452-2.827,1.452-2.079,0-3.74-1.54-3.74-3.795Z"/><path d="M455.626,67.099h4.808v.814h-3.895v2.365h3.817v.813h-3.817v3.345h-.913v-7.338Z"/></g><g><path d="M508.623,70.291l-2.497,6.106h-.374l-2.486-6.106v6.106h-.913v-7.338h1.309l2.277,5.589,2.289-5.589h1.309v7.338h-.913v-6.106Z"/><path d="M515.871,74.768h-3.718l-.649,1.629h-1.013l2.949-7.338h1.133l2.959,7.338h-1.012l-.649-1.629Zm-3.454-.813h3.18l-1.585-4.082-1.595,4.082Z"/><path d="M519.402,70.478v5.919h-.913v-7.338h.935l4.225,5.798v-5.798h.913v7.338h-.88l-4.279-5.919Z"/><path d="M529.621,68.938c2.168,0,3.642,1.628,3.642,3.795s-1.474,3.796-3.642,3.796-3.641-1.628-3.641-3.796,1.463-3.795,3.641-3.795Zm0,.813c-1.649,0-2.695,1.266-2.695,2.981,0,1.705,1.046,2.981,2.695,2.981,1.64,0,2.696-1.276,2.696-2.981,0-1.716-1.057-2.981-2.696-2.981Z"/></g><g><path d="M562.667,70.291l-2.497,6.105h-.374l-2.486-6.105v6.105h-.913v-7.338h1.309l2.277,5.589,2.289-5.589h1.309v7.338h-.913v-6.105Z"/><path d="M569.915,74.768h-3.719l-.648,1.628h-1.013l2.949-7.338h1.133l2.959,7.338h-1.012l-.649-1.628Zm-3.454-.814h3.18l-1.585-4.081-1.595,4.081Z"/><path d="M573.446,70.477v5.919h-.913v-7.338h.935l4.225,5.798v-5.798h.913v7.338h-.88l-4.279-5.919Z"/><path d="M583.665,68.937c2.168,0,3.642,1.628,3.642,3.796s-1.474,3.795-3.642,3.795-3.641-1.628-3.641-3.795,1.463-3.796,3.641-3.796Zm0,.814c-1.649,0-2.695,1.265-2.695,2.981,0,1.705,1.046,2.981,2.695,2.981,1.64,0,2.696-1.276,2.696-2.981,0-1.717-1.057-2.981-2.696-2.981Z"/></g><g><path d="M618.712,70.291l-2.497,6.105h-.374l-2.486-6.105v6.105h-.913v-7.338h1.309l2.277,5.589,2.289-5.589h1.309v7.338h-.913v-6.105Z"/><path d="M625.96,74.768h-3.719l-.648,1.628h-1.013l2.949-7.338h1.133l2.959,7.338h-1.012l-.649-1.628Zm-3.454-.814h3.18l-1.585-4.081-1.595,4.081Z"/><path d="M629.491,70.477v5.919h-.913v-7.338h.935l4.225,5.798v-5.798h.913v7.338h-.88l-4.279-5.919Z"/><path d="M639.71,68.937c2.168,0,3.642,1.628,3.642,3.796s-1.474,3.795-3.642,3.795-3.641-1.628-3.641-3.795,1.463-3.796,3.641-3.796Zm0,.814c-1.649,0-2.695,1.265-2.695,2.981,0,1.705,1.046,2.981,2.695,2.981,1.64,0,2.696-1.276,2.696-2.981,0-1.717-1.057-2.981-2.696-2.981Z"/></g><g id="p"><g id="q"><path d="M343.048,309.911c.276,0,.5-.224,.5-.5v-2.981c0-.276-.224-.5-.5-.5s-.5,.224-.5,.5v2.981c0,.276,.224,.5,.5,.5Z"/><path d="M339.048,309.911c.276,0,.5-.224,.5-.5v-2.981c0-.276-.224-.5-.5-.5s-.5,.224-.5,.5v2.981c0,.276,.224,.5,.5,.5Z"/><path d="M335.048,309.911c.276,0,.5-.224,.5-.5v-2.981c0-.276-.224-.5-.5-.5s-.5,.224-.5,.5v2.981c0,.276,.224,.5,.5,.5Z"/><path d="M312.048,309.92c1.103,0,2-.897,2-2s-.897-2-2-2-2,.897-2,2,.897,2,2,2Zm0-3c.552,0,1,.448,1,1s-.448,1-1,1-1-.448-1-1,.448-1,1-1Z"/><path d="M308.434,312.42h37.228c1.04,0,1.886-.846,1.886-1.886v-5.191c0-1.06-.863-1.923-1.923-1.923h-37.191c-1.04,0-1.886,.846-1.886,1.886v5.228c0,1.04,.846,1.886,1.886,1.886Zm-.886-7.114c0-.489,.397-.886,.886-.886h37.191c.509,0,.923,.414,.923,.923v5.191c0,.489-.397,.886-.886,.886h-37.228c-.489,0-.886-.397-.886-.886v-5.228Z"/></g></g><g id="r"><g id="s"><path d="M392.087,309.911c.276,0,.5-.224,.5-.5v-2.981c0-.276-.224-.5-.5-.5s-.5,.224-.5,.5v2.981c0,.276,.224,.5,.5,.5Z"/><path d="M388.087,309.911c.276,0,.5-.224,.5-.5v-2.981c0-.276-.224-.5-.5-.5s-.5,.224-.5,.5v2.981c0,.276,.224,.5,.5,.5Z"/><path d="M384.087,309.911c.276,0,.5-.224,.5-.5v-2.981c0-.276-.224-.5-.5-.5s-.5,.224-.5,.5v2.981c0,.276,.224,.5,.5,.5Z"/><path d="M361.087,309.92c1.103,0,2-.897,2-2s-.897-2-2-2-2,.897-2,2,.897,2,2,2Zm0-3c.552,0,1,.448,1,1s-.448,1-1,1-1-.448-1-1,.448-1,1-1Z"/><path d="M357.473,312.42h37.228c1.04,0,1.886-.846,1.886-1.886v-5.191c0-1.06-.863-1.923-1.923-1.923h-37.191c-1.04,0-1.886,.846-1.886,1.886v5.228c0,1.04,.846,1.886,1.886,1.886Zm-.886-7.114c0-.489,.397-.886,.886-.886h37.191c.509,0,.923,.414,.923,.923v5.191c0,.489-.397,.886-.886,.886h-37.228c-.489,0-.886-.397-.886-.886v-5.228Z"/></g></g><g id="t"><g id="u"><path d="M441.126,309.911c.276,0,.5-.224,.5-.5v-2.981c0-.276-.224-.5-.5-.5s-.5,.224-.5,.5v2.981c0,.276,.224,.5,.5,.5Z"/><path d="M437.126,309.911c.276,0,.5-.224,.5-.5v-2.981c0-.276-.224-.5-.5-.5s-.5,.224-.5,.5v2.981c0,.276,.224,.5,.5,.5Z"/><path d="M433.126,309.911c.276,0,.5-.224,.5-.5v-2.981c0-.276-.224-.5-.5-.5s-.5,.224-.5,.5v2.981c0,.276,.224,.5,.5,.5Z"/><path d="M410.126,309.92c1.103,0,2-.897,2-2s-.897-2-2-2-2,.897-2,2,.897,2,2,2Zm0-3c.552,0,1,.448,1,1s-.448,1-1,1-1-.448-1-1,.448-1,1-1Z"/><path d="M406.512,312.42h37.228c1.04,0,1.886-.846,1.886-1.886v-5.191c0-1.06-.863-1.923-1.923-1.923h-37.191c-1.04,0-1.886,.846-1.886,1.886v5.228c0,1.04,.846,1.886,1.886,1.886Zm-.886-7.114c0-.489,.397-.886,.886-.886h37.191c.509,0,.923,.414,.923,.923v5.191c0,.489-.397,.886-.886,.886h-37.228c-.489,0-.886-.397-.886-.886v-5.228Z"/></g></g><g><path d="M314.867,320.231c0-2.255,1.661-3.795,3.74-3.795,1.331,0,2.233,.627,2.816,1.452l-.771,.429c-.418-.616-1.177-1.067-2.046-1.067-1.573,0-2.795,1.232-2.795,2.981,0,1.738,1.222,2.981,2.795,2.981,.869,0,1.628-.439,2.046-1.066l.781,.429c-.616,.836-1.496,1.452-2.827,1.452-2.079,0-3.74-1.54-3.74-3.796Z"/><path d="M325.943,316.436c2.168,0,3.642,1.628,3.642,3.795s-1.474,3.796-3.642,3.796-3.641-1.628-3.641-3.796,1.463-3.795,3.641-3.795Zm0,.813c-1.649,0-2.695,1.266-2.695,2.981,0,1.705,1.046,2.981,2.695,2.981,1.64,0,2.696-1.276,2.696-2.981,0-1.716-1.057-2.981-2.696-2.981Z"/><path d="M332.533,317.371h-2.322v-.813h5.567v.813h-2.332v6.524h-.913v-6.524Z"/><path d="M337.053,322.168c.484,.539,1.276,1.045,2.311,1.045,1.309,0,1.728-.704,1.728-1.265,0-.881-.892-1.122-1.859-1.387-1.178-.308-2.486-.638-2.486-2.079,0-1.21,1.078-2.035,2.519-2.035,1.123,0,1.992,.374,2.607,1.023l-.55,.671c-.55-.605-1.32-.88-2.123-.88-.88,0-1.507,.473-1.507,1.166,0,.737,.847,.957,1.782,1.21,1.198,.319,2.562,.693,2.562,2.233,0,1.067-.726,2.156-2.706,2.156-1.276,0-2.211-.484-2.816-1.166l.539-.693Z"/></g><g><path d="M364.217,321.265c0-2.255,1.661-3.795,3.74-3.795,1.331,0,2.233,.627,2.816,1.452l-.771,.429c-.418-.616-1.177-1.067-2.046-1.067-1.573,0-2.795,1.232-2.795,2.981,0,1.738,1.222,2.981,2.795,2.981,.869,0,1.628-.439,2.046-1.066l.781,.429c-.616,.836-1.496,1.452-2.827,1.452-2.079,0-3.74-1.54-3.74-3.796Z"/><path d="M375.293,317.47c2.168,0,3.642,1.628,3.642,3.795s-1.474,3.796-3.642,3.796-3.641-1.628-3.641-3.796,1.463-3.795,3.641-3.795Zm0,.813c-1.649,0-2.695,1.266-2.695,2.981,0,1.705,1.046,2.981,2.695,2.981,1.64,0,2.696-1.276,2.696-2.981,0-1.716-1.057-2.981-2.696-2.981Z"/><path d="M381.883,318.405h-2.322v-.813h5.567v.813h-2.332v6.524h-.913v-6.524Z"/><path d="M386.402,323.202c.484,.539,1.276,1.045,2.311,1.045,1.309,0,1.728-.704,1.728-1.265,0-.881-.892-1.122-1.859-1.387-1.178-.308-2.486-.638-2.486-2.079,0-1.21,1.078-2.035,2.519-2.035,1.123,0,1.992,.374,2.607,1.023l-.55,.671c-.55-.605-1.32-.88-2.123-.88-.88,0-1.507,.473-1.507,1.166,0,.737,.847,.957,1.782,1.21,1.198,.319,2.562,.693,2.562,2.233,0,1.067-.726,2.156-2.706,2.156-1.276,0-2.211-.484-2.816-1.166l.539-.693Z"/></g><g><path d="M413.065,320.813c0-2.256,1.661-3.796,3.74-3.796,1.331,0,2.233,.627,2.816,1.452l-.771,.43c-.418-.616-1.177-1.067-2.046-1.067-1.573,0-2.795,1.232-2.795,2.981,0,1.738,1.222,2.981,2.795,2.981,.869,0,1.628-.44,2.046-1.067l.781,.429c-.616,.837-1.496,1.452-2.827,1.452-2.079,0-3.74-1.54-3.74-3.795Z"/><path d="M424.142,317.017c2.168,0,3.642,1.628,3.642,3.796s-1.474,3.795-3.642,3.795-3.641-1.628-3.641-3.795,1.463-3.796,3.641-3.796Zm0,.814c-1.649,0-2.695,1.265-2.695,2.981,0,1.705,1.046,2.981,2.695,2.981,1.64,0,2.696-1.276,2.696-2.981,0-1.717-1.057-2.981-2.696-2.981Z"/><path d="M430.731,317.953h-2.322v-.814h5.567v.814h-2.332v6.523h-.913v-6.523Z"/><path d="M435.251,322.75c.484,.539,1.276,1.045,2.311,1.045,1.309,0,1.728-.704,1.728-1.266,0-.88-.892-1.122-1.859-1.386-1.178-.309-2.486-.639-2.486-2.079,0-1.211,1.078-2.036,2.519-2.036,1.123,0,1.992,.374,2.607,1.023l-.55,.671c-.55-.604-1.32-.88-2.123-.88-.88,0-1.507,.473-1.507,1.166,0,.737,.847,.957,1.782,1.21,1.198,.319,2.562,.693,2.562,2.233,0,1.067-.726,2.156-2.706,2.156-1.276,0-2.211-.483-2.816-1.166l.539-.692Z"/></g><rect class="ai" x="308.834" y="280.905" width="136.536" height="17.174"/><g><path class="ah" d="M363.611,289.816h-2.206l-.435,1.961h-.994l1.029-4.672h.995l-.399,1.835h2.199l.406-1.835h1.001l-1.029,4.672h-1.001l.434-1.961Z"/><path class="ah" d="M365.311,292.351c.183,0,.302-.062,.421-.238l.21-.314-.603-3.404h.925l.357,2.354,1.414-2.354h.98l-2.465,3.937c-.371,.602-.75,.819-1.31,.819-.196,0-.406-.028-.567-.084l.294-.771c.077,.035,.217,.056,.343,.056Z"/><path class="ah" d="M369.266,293.066h-.889l1.036-4.672h.89l-.099,.42c.287-.336,.616-.504,1.022-.504,.757,0,1.282,.504,1.282,1.4,0,1.016-.631,2.15-1.779,2.15-.462,0-.854-.196-1.078-.532l-.386,1.737Zm1.562-3.965c-.315,0-.589,.176-.777,.406l-.26,1.177c.147,.225,.435,.386,.792,.386,.588,0,.994-.554,.994-1.177,0-.483-.322-.792-.749-.792Z"/><path class="ah" d="M374.832,288.31c.861,0,1.52,.567,1.52,1.513,0,.196-.035,.435-.07,.546h-2.514v.085c0,.287,.301,.7,.924,.7,.295,0,.645-.092,.854-.252l.28,.608c-.329,.225-.777,.351-1.197,.351-1.064,0-1.751-.574-1.751-1.52,0-1.1,.826-2.031,1.954-2.031Zm.721,1.387c0-.336-.237-.68-.777-.68-.476,0-.84,.379-.917,.75h1.694v-.07Z"/><path class="ah" d="M377.365,288.394h.89l-.105,.448c.302-.322,.666-.525,1.198-.525l-.189,.883c-.056-.015-.183-.042-.329-.042-.322,0-.638,.182-.841,.406l-.483,2.213h-.889l.749-3.383Z"/><path class="ah" d="M379.401,288.394h.925l.357,2.354,1.414-2.354h.98l-2.107,3.383h-.96l-.609-3.383Z"/><path class="ah" d="M383.476,288.394h.89l-.75,3.383h-.889l.749-3.383Zm.722-1.562c.28,0,.476,.21,.476,.455,0,.392-.322,.609-.595,.609-.28,0-.477-.203-.477-.455,0-.386,.322-.609,.596-.609Z"/><path class="ah" d="M384.86,290.664c.203,.238,.701,.518,1.191,.518,.301,0,.49-.161,.49-.356,0-.203-.287-.309-.624-.421-.482-.161-1.092-.378-1.092-.952,0-.588,.49-1.142,1.394-1.142,.574,0,1.113,.217,1.436,.554l-.448,.56c-.168-.21-.588-.434-1.002-.434-.314,0-.49,.146-.49,.329,0,.161,.253,.266,.582,.378,.497,.154,1.135,.371,1.135,.98,0,.645-.54,1.184-1.464,1.184-.616,0-1.219-.21-1.598-.609l.49-.588Z"/><path class="ah" d="M389.916,288.31c1.078,0,1.681,.658,1.681,1.541,0,1.051-.812,2.01-1.961,2.01-1.079,0-1.674-.651-1.674-1.534,0-1.058,.812-2.017,1.954-2.017Zm-.028,.791c-.603,0-1.009,.574-1.009,1.177,0,.49,.294,.792,.792,.792,.595,0,1.001-.567,1.001-1.177,0-.49-.294-.792-.784-.792Z"/><path class="ah" d="M392.603,288.394h.89l-.105,.448c.302-.322,.666-.525,1.198-.525l-.189,.883c-.056-.015-.183-.042-.329-.042-.322,0-.638,.182-.841,.406l-.483,2.213h-.889l.749-3.383Z"/></g><rect class="ak" x="376.492" y="255.703" width="1" height="15.286"/><path class="ak" d="M452.396,256.361h-150.886v-10.026c0-.276,.224-.5,.5-.5s.5,.224,.5,.5v9.026h148.886l-.003-8.421c0-.276,.224-.5,.5-.5s.5,.224,.5,.5l.003,9.421Z"/><path class="al" d="M452.194,341.137h-150.185v-70.89h150.185v70.89Zm-149.185-1h148.185v-68.89h-148.185v68.89Z"/><g><rect x="318.734" y="331.85" width="116.736" height="18.188"/><path class="ah" d="M337.772,337.253v7.097h-1.359l-1.849-4.038v4.038h-1.35v-7.097h1.35l1.849,4.058v-4.058h1.359Z"/><path class="ah" d="M340.309,338.652v1.799h1.818v1.399h-1.818v2.499h-1.55v-7.097h3.668v1.399h-2.118Z"/><path class="ah" d="M348.116,337.253l-1.499,7.097h-2.019l-1.489-7.097h1.549l.96,4.867,.969-4.867h1.529Z"/><path class="ah" d="M350.889,337.253h1.55v7.097h-1.55v-7.097Z"/><path class="ah" d="M357.973,337.253v7.097h-1.359l-1.849-4.038v4.038h-1.35v-7.097h1.35l1.849,4.058v-4.058h1.359Z"/><path class="ah" d="M360.509,338.652v1.799h1.818v1.399h-1.818v2.499h-1.55v-7.097h3.668v1.399h-2.118Z"/><path class="ah" d="M365.737,341.791h-.74v2.559h-1.549v-7.097h2.358c1.239,0,2.119,.79,2.119,1.939v.659c0,.63-.27,1.159-.71,1.499l.92,2.999h-1.619l-.779-2.559Zm-.74-1.399h.91c.289,0,.47-.18,.47-.47v-.8c0-.29-.181-.47-.46-.47h-.92v1.739Z"/><path class="ah" d="M372.092,343.099h-1.449l-.29,1.25h-1.509l1.529-7.097h2.009l1.539,7.097h-1.539l-.29-1.25Zm-.72-3.957l-.449,2.559h.899l-.45-2.559Z"/><path class="ah" d="M374.5,342.251v-.28h1.549v.439c0,.51,.4,.729,.83,.729,.34,0,.72-.21,.72-.689,0-1.27-2.969-.97-2.969-3.268,0-1.21,.779-2.079,2.219-2.079,1.419,0,2.209,.789,2.209,1.988v.44h-1.549v-.54c0-.31-.3-.489-.67-.489-.35,0-.649,.189-.649,.6,0,1.02,2.968,.789,2.968,3.208,0,1.299-.859,2.188-2.309,2.188s-2.349-.899-2.349-2.248Z"/><path class="ah" d="M384.3,338.652h-1.47v5.697h-1.549v-5.697h-1.479v-1.399h4.498v1.399Z"/><path class="ah" d="M387.343,341.791h-.74v2.559h-1.549v-7.097h2.358c1.239,0,2.119,.79,2.119,1.939v.659c0,.63-.27,1.159-.71,1.499l.92,2.999h-1.619l-.779-2.559Zm-.74-1.399h.91c.289,0,.47-.18,.47-.47v-.8c0-.29-.181-.47-.46-.47h-.92v1.739Z"/><path class="ah" d="M390.444,342.48v-5.228h1.55v5.247c0,.36,.229,.6,.719,.6,.5,0,.73-.239,.73-.6v-5.247h1.549v5.228c0,1.189-.89,2.019-2.269,2.019s-2.279-.829-2.279-2.019Z"/><path class="ah" d="M395.874,342.48v-3.358c0-1.189,.919-2.019,2.339-2.019s2.349,.829,2.349,2.019v.89h-1.569v-.909c0-.36-.26-.6-.77-.6-.53,0-.8,.239-.8,.6v3.397c0,.36,.27,.6,.79,.6s.779-.239,.779-.6v-.909h1.569v.89c0,1.189-.92,2.019-2.339,2.019s-2.349-.829-2.349-2.019Z"/><path class="ah" d="M405.767,338.652h-1.469v5.697h-1.55v-5.697h-1.479v-1.399h4.497v1.399Z"/><path class="ah" d="M406.483,342.48v-5.228h1.55v5.247c0,.36,.229,.6,.719,.6,.5,0,.73-.239,.73-.6v-5.247h1.549v5.228c0,1.189-.89,2.019-2.269,2.019s-2.279-.829-2.279-2.019Z"/><path class="ah" d="M414.27,341.791h-.739v2.559h-1.55v-7.097h2.359c1.239,0,2.118,.79,2.118,1.939v.659c0,.63-.27,1.159-.709,1.499l.919,2.999h-1.619l-.779-2.559Zm-.739-1.399h.909c.29,0,.47-.18,.47-.47v-.8c0-.29-.18-.47-.46-.47h-.919v1.739Z"/><path class="ah" d="M419.057,338.652v1.549h1.72v1.399h-1.72v1.35h2.119v1.399h-3.668v-7.097h3.668v1.399h-2.119Z"/></g><rect class="aj" x="215.694" y="198.333" width="24.771" height="1"/><rect class="aj" x="109.922" y="198.333" width="71.672" height="1"/><g id="v"><g id="w"><path d="M216.291,198.759c.204-.857,.308-1.734,.308-2.612,0-6.264-5.151-11.359-11.482-11.359-4.584,0-8.763,2.749-10.558,6.891-1.148-.445-2.356-.67-3.598-.67-5.291,0-9.625,4.132-9.879,9.306-3.519,.261-6.304,3.183-6.304,6.725,0,3.72,3.059,6.747,6.818,6.747h29.796c4.624,0,8.386-3.722,8.386-8.297,0-2.68-1.297-5.17-3.487-6.731Zm-4.899,14.028h-29.796c-3.208,0-5.818-2.578-5.818-5.747s2.599-5.732,5.793-5.747c.275,0,.498-.225,.498-.5,0-4.844,3.989-8.786,8.891-8.786,1.273,0,2.507,.263,3.666,.783,.125,.055,.269,.058,.396,.005,.127-.053,.227-.156,.275-.285,1.526-4.021,5.472-6.724,9.818-6.724,5.78,0,10.482,4.647,10.482,10.359,0,.909-.122,1.816-.361,2.697-.057,.209,.028,.432,.209,.55,2.086,1.358,3.331,3.637,3.331,6.096,.002,4.026-3.311,7.299-7.384,7.299Z"/></g></g><g><path d="M272.036,178.478h-22.96c-4.974,0-9.021,4.046-9.021,9.02v22.961c0,4.974,4.047,9.02,9.021,9.02h22.96c4.974,0,9.02-4.046,9.02-9.02v-22.961c0-4.974-4.046-9.02-9.02-9.02Zm8.02,31.98c0,4.422-3.598,8.02-8.02,8.02h-22.96c-4.423,0-8.021-3.598-8.021-8.02v-22.961c0-4.422,3.598-8.02,8.021-8.02h22.96c4.422,0,8.02,3.598,8.02,8.02v22.961Z"/><path d="M259.799,200.662c-.255-.113-.549,.003-.659,.255l-1.064,2.418c-.382,.671-1.229,1.795-2.611,1.795h-7.938l2.201-2.218c.195-.196,.193-.513-.002-.707-.196-.197-.513-.193-.707,.002l-3.046,3.069c-.016,.016-.022,.036-.035,.053-.026,.035-.055,.068-.072,.109-.025,.061-.038,.126-.038,.191h0c0,.014,.006,.025,.007,.037,.004,.052,.011,.104,.031,.153,.026,.063,.064,.12,.112,.167l3.041,3.066c.098,.098,.226,.147,.354,.147,.127,0,.255-.048,.353-.146,.195-.194,.197-.511,.002-.707l-2.199-2.217h7.937c1.399,0,2.635-.816,3.503-2.345l1.087-2.464c.112-.253-.003-.548-.255-.659Z"/><path d="M275.147,191.985l-.006-.01h0v-.002l-3.046-3.069c-.194-.193-.511-.199-.707-.002-.195,.194-.197,.511-.002,.707l2.2,2.218h-7.991c-1.5,.072-2.832,.966-3.479,2.342l-1.109,2.482c-.113,.252,0,.548,.252,.66,.066,.03,.136,.044,.204,.044,.19,0,.373-.11,.456-.296l1.105-2.474c.486-1.031,1.489-1.706,2.595-1.759h7.968l-2.2,2.217c-.195,.196-.193,.513,.002,.707,.098,.098,.226,.146,.353,.146,.129,0,.257-.049,.354-.147l3.044-3.068h.001v-.002l.007-.01c.042-.044,.077-.095,.101-.152,.051-.122,.051-.26,0-.382-.024-.057-.059-.108-.101-.152Z"/><path d="M275.248,205.439c-.024-.057-.059-.108-.101-.152l-.006-.01h0v-.002l-3.046-3.069c-.194-.193-.511-.199-.707-.002-.195,.194-.197,.511-.002,.707l2.2,2.218h-7.944c-1.13-.054-2.133-.729-2.614-1.749l-4.084-9.255c-.846-1.481-2.082-2.298-3.48-2.298h-7.938l2.2-2.218c.195-.196,.193-.513-.002-.707-.196-.197-.513-.191-.707,.002l-3.044,3.069h-.001v.002l-.006,.009c-.042,.044-.077,.095-.101,.153-.023,.056-.034,.116-.036,.176l-.003,.014c0,.006,.003,.012,.004,.018,.002,.059,.012,.117,.035,.172,.024,.058,.059,.11,.102,.155l.005,.008h0v.002l3.046,3.068c.098,.099,.226,.147,.354,.147,.127,0,.255-.048,.353-.146,.195-.194,.197-.511,.002-.707l-2.2-2.217h7.937c1.382,0,2.229,1.124,2.589,1.748l4.066,9.22c.644,1.367,1.976,2.261,3.499,2.334h7.968l-2.2,2.217c-.195,.196-.193,.513,.002,.707,.098,.098,.226,.146,.353,.146,.129,0,.257-.049,.354-.147l3.044-3.068h.001v-.002l.007-.01c.042-.044,.077-.095,.101-.152,.051-.122,.051-.26,0-.382Z"/></g><g id="x"><g id="y"><path d="M143.884,186.895v24.438c0,.276,.224,.5,.5,.5s.5-.224,.5-.5v-24.438c1.913-.276,3.24-2.051,2.964-3.964s-2.051-3.24-3.964-2.964c-1.913,.276-3.24,2.051-2.964,3.964,.222,1.536,1.428,2.742,2.964,2.964Zm.5-5.949c1.381,0,2.5,1.119,2.5,2.5s-1.119,2.5-2.5,2.5-2.5-1.119-2.5-2.5,1.119-2.5,2.5-2.5h0Z"/><path d="M149.618,189.223c.195,.195,.512,.195,.707,0,3.282-3.279,3.284-8.598,.005-11.879l-.005-.005c-.196-.195-.512-.195-.708,0s-.195,.512,0,.708c2.891,2.889,2.893,7.574,.004,10.465l-.004,.004c-.195,.195-.195,.512,0,.707Z"/><path d="M152.972,192.581c.195,.195,.512,.195,.707,0,5.134-5.132,5.135-13.455,.003-18.588l-.003-.003c-.199-.192-.515-.186-.707,.012-.187,.194-.187,.501,0,.695,4.735,4.747,4.735,12.43,0,17.177-.195,.195-.195,.512,0,.707Z"/><path d="M156.737,194.799c-.188,.202-.177,.519,.025,.707,.202,.188,.519,.177,.707-.025,6.373-6.882,6.373-17.51,0-24.392-.192-.198-.509-.203-.707-.011-.193,.187-.204,.492-.025,.692,6.017,6.497,6.017,16.532,0,23.029Z"/><path d="M138.796,189.37c.276,0,.5-.223,.501-.499,0-.133-.053-.261-.147-.355-2.891-2.889-2.893-7.574-.004-10.465l.004-.004c.196-.195,.196-.512,0-.708s-.512-.196-.708,0c-3.282,3.279-3.284,8.598-.005,11.879l.005,.005c.094,.094,.221,.147,.353,.147Z"/><path d="M135.089,192.581c.199,.192,.515,.186,.707-.012,.187-.194,.187-.501,0-.695-4.735-4.747-4.735-12.43,0-17.177,.192-.199,.186-.515-.012-.707-.194-.187-.501-.187-.695,0-5.134,5.132-5.135,13.455-.003,18.588l.003,.003Z"/><path d="M131.665,195.64c.276,0,.5-.224,.5-.5,0-.127-.048-.249-.134-.341-6.017-6.497-6.017-16.532,0-23.029,.184-.206,.166-.522-.04-.706-.2-.179-.505-.168-.692,.025-6.373,6.882-6.373,17.51,0,24.392,.095,.101,.227,.159,.366,.159Z"/></g></g><g><rect class="ah" x="302.51" y="167.411" width="149.184" height="70.974"/><path class="al" d="M452.194,238.884h-150.185v-71.974h150.185v71.974Zm-149.185-1h148.185v-69.974h-148.185v69.974Z"/></g><g><path d="M377.227,223.297c-11.304,0-20.5-9.196-20.5-20.5s9.196-20.5,20.5-20.5,20.5,9.196,20.5,20.5-9.196,20.5-20.5,20.5Zm0-40c-10.752,0-19.5,8.748-19.5,19.5s8.748,19.5,19.5,19.5,19.5-8.748,19.5-19.5-8.748-19.5-19.5-19.5Z"/><g><path d="M365.127,199.977h1.691c.234,.002,.464,.033,.688,.092,.225,.059,.424,.148,.598,.271,.175,.122,.314,.278,.418,.469,.104,.189,.155,.418,.152,.684-.002,.148-.026,.283-.072,.406-.045,.122-.107,.231-.186,.328-.08,.099-.17,.182-.268,.25-.098,.067-.215,.131-.354,.191v.012c.144,.033,.281,.095,.414,.184,.133,.088,.242,.186,.328,.293,.092,.117,.162,.248,.213,.395,.051,.146,.076,.303,.076,.473,.003,.266-.048,.5-.152,.703-.104,.203-.243,.372-.418,.508-.174,.138-.375,.243-.604,.316-.228,.072-.463,.11-.705,.113h-1.82v-5.688Zm1.734,2.426c.136-.003,.269-.024,.398-.064,.131-.041,.246-.1,.348-.178,.102-.076,.184-.17,.246-.281,.062-.112,.094-.242,.094-.391,0-.159-.03-.295-.092-.406-.061-.112-.143-.205-.244-.277-.104-.07-.223-.123-.357-.156-.134-.034-.271-.053-.412-.055h-.988v1.809h1.008Zm-1.008,2.648h1.113c.151-.003,.295-.028,.43-.076,.136-.049,.256-.115,.359-.201,.104-.086,.188-.191,.248-.316,.062-.125,.092-.268,.092-.426,.003-.162-.023-.305-.08-.43-.056-.125-.133-.232-.232-.32-.099-.086-.215-.152-.348-.199s-.275-.073-.43-.078h-1.152v2.047Z"/><path d="M372.942,199.977v.629h-1.363v4.434h1.363v.625h-3.438v-.625h1.332v-4.434h-1.332v-.629h3.438Z"/><path d="M377.187,205.202c-.099,.084-.201,.158-.309,.221-.182,.109-.379,.19-.59,.244-.211,.053-.432,.078-.664,.076-.234-.003-.449-.039-.646-.107-.196-.069-.373-.165-.529-.287-.156-.12-.293-.262-.41-.426s-.215-.343-.293-.535c-.08-.19-.141-.391-.182-.6-.04-.21-.062-.422-.064-.635v-.66c.003-.211,.021-.422,.057-.631,.035-.21,.09-.411,.162-.604,.073-.193,.164-.372,.273-.537,.109-.166,.241-.31,.395-.432,.151-.12,.323-.215,.516-.285,.193-.07,.409-.105,.648-.105,.266,0,.511,.041,.734,.123,.225,.082,.42,.198,.586,.35,.167,.153,.301,.338,.402,.553s.164,.455,.188,.721h-.715c-.028-.164-.072-.316-.133-.455-.06-.14-.138-.259-.234-.357-.099-.1-.216-.177-.352-.232-.135-.057-.293-.084-.473-.084-.172,0-.324,.029-.457,.088s-.248,.137-.348,.236c-.099,.099-.181,.214-.246,.346-.064,.131-.118,.27-.16,.416-.041,.146-.071,.294-.09,.445-.018,.15-.027,.297-.027,.438v.668c.003,.143,.016,.291,.037,.443,.022,.152,.057,.301,.104,.447,.047,.146,.107,.283,.18,.414,.073,.13,.162,.244,.266,.344,.102,.099,.221,.178,.355,.236,.136,.059,.289,.089,.461,.092,.1,.002,.203-.002,.311-.012,.108-.011,.213-.031,.314-.062s.197-.074,.285-.127c.089-.054,.163-.123,.223-.209l.008-1.277h-1.156v-.609h1.844l.012,2.086c-.088,.104-.182,.198-.281,.283Z"/><path d="M378.387,203.473v-.594h2.988v.594h-2.988Z"/><path d="M385.283,199.977v.629h-1.363v4.434h1.363v.625h-3.438v-.625h1.332v-4.434h-1.332v-.629h3.438Z"/><path d="M386.985,205.665h-.723v-5.688h1.844c.256,.005,.497,.045,.725,.121,.229,.075,.428,.185,.6,.328,.172,.143,.309,.32,.408,.531,.101,.211,.15,.453,.15,.727s-.05,.515-.15,.725c-.1,.209-.236,.386-.408,.529-.172,.143-.371,.252-.6,.328-.228,.075-.469,.114-.725,.117h-1.121v2.281Zm1.121-2.875c.167-.003,.32-.029,.461-.08s.264-.123,.367-.217c.104-.094,.186-.208,.244-.342,.059-.135,.088-.287,.088-.459s-.029-.327-.088-.465c-.059-.139-.139-.256-.24-.352-.104-.097-.227-.171-.369-.223-.142-.053-.296-.08-.463-.082h-1.121v2.219h1.121Z"/></g></g><g id="a`"><g id="aa"><path d="M499.166,209.656c2.905,4.619,7.521,7.899,12.838,9.123h0l.12,.028c.122,.028,.243,.056,.366,.081,.866,.172,1.743,.288,2.624,.348h.036c.463,.032,.928,.055,1.4,.055s.95-.023,1.42-.058c1.047-.078,2.086-.234,3.109-.467,.018-.005,.035-.012,.052-.019,.028,0,.056-.004,.083-.009,5.269-1.25,9.838-4.517,12.723-9.1,4.146-6.638,4.149-15.059,.006-21.7h0c-.129-.207-.263-.41-.4-.611-3.04-4.474-7.714-7.577-13.018-8.641l-.252-.043h0c-.938-.174-1.887-.283-2.84-.326-.547-.024-1.1-.024-1.647,0h-.124c-.913,.039-1.823,.143-2.722,.309-.028-.002-.056-.002-.084,0-5.252,.957-9.919,3.934-13,8.294-.239,.334-.462,.676-.681,1.023h0c-4.163,6.635-4.167,15.066-.011,21.706l.002,.007Zm1.156-.055c.048-.021,.091-.044,.14-.065,.249-.107,.511-.212,.784-.314,.095-.036,.2-.07,.294-.1,.184-.066,.368-.131,.561-.2,.12-.039,.246-.077,.369-.116,.181-.056,.364-.113,.553-.167,.135-.039,.275-.077,.414-.115l.334-.089c.16,.457,.331,.903,.513,1.338,.031,.073,.065,.141,.1,.214,.195,.457,.402,.901,.622,1.332,.067,.133,.136,.267,.208,.4,.244,.459,.5,.908,.765,1.335,.016,.027,.031,.055,.048,.081,.284,.448,.585,.872,.894,1.282,.085,.112,.171,.221,.257,.33,.267,.333,.539,.653,.816,.96,.063,.069,.124,.142,.188,.21,.29,.306,.586,.6,.891,.873-3.558-1.487-6.601-3.987-8.751-7.189Zm2.994-13.229c.057-.681,.138-1.354,.243-2.021,.006-.039,.008-.079,.014-.117,.113-.7,.256-1.391,.421-2.072,.057-.232,.129-.457,.191-.686,.1-.37,.206-.739,.322-1.1,.238,.054,.487,.1,.731,.154,.166,.035,.329,.072,.5,.105,.487,.095,.984,.185,1.493,.267l.065,.011c.534,.085,1.083,.161,1.64,.231,.171,.022,.346,.039,.518,.059,.3,.034,.593,.072,.9,.1-.012,.1-.016,.2-.028,.3-.12,1.021-.221,2.059-.289,3.12v.061c-.067,1.05-.1,2.121-.117,3.2,0,.105-.01,.206-.011,.311h-6.682c.008-.4,.026-.79,.049-1.182,.014-.247,.019-.496,.04-.741Zm8.4-7.445c.1-.569,.2-1.123,.317-1.65s.238-1.047,.368-1.538c.047-.178,.1-.339,.149-.511,.086-.3,.17-.611,.262-.895,.061-.191,.128-.361,.191-.544,.085-.242,.167-.492,.255-.717,.071-.182,.146-.341,.22-.511,.086-.2,.17-.411,.259-.6,.078-.163,.159-.3,.239-.452,.088-.165,.174-.34,.264-.49s.17-.251,.255-.376,.179-.273,.27-.389,.175-.193,.263-.288,.184-.207,.277-.289c.086-.069,.175-.134,.269-.192,.083-.064,.171-.122,.262-.174,.479-.02,.965-.024,1.442,0,.069,.032,.136,.069,.2,.109,.197,.131,.379,.282,.544,.452,1.254,1.274,2.379,4.046,3.146,7.8,.094,.46,.183,.949,.268,1.455,.024,.144,.046,.3,.069,.447,.042,.266,.082,.541,.121,.818-.185,.016-.367,.033-.554,.046-2.811,.202-5.631,.217-8.444,.044-.385-.024-.76-.056-1.136-.086,.046-.32,.093-.636,.143-.946,.022-.174,.047-.356,.076-.523h.005Zm12.457,2.207c.557-.07,1.1-.146,1.638-.231,.024,0,.047-.009,.072-.012,.507-.082,1.003-.171,1.487-.266,.169-.033,.332-.07,.5-.105,.244-.051,.493-.1,.73-.154,.12,.376,.229,.757,.332,1.14,.057,.215,.125,.427,.178,.644,.165,.685,.308,1.379,.422,2.084,0,.016,0,.033,.006,.048,.109,.688,.19,1.385,.25,2.09,.02,.243,.025,.49,.039,.734,.023,.394,.041,.79,.049,1.188h-6.676c0-.1-.009-.2-.011-.308-.015-1.1-.05-2.183-.118-3.249v-.01c-.068-1.077-.171-2.13-.292-3.166-.011-.087-.014-.179-.025-.266,.3-.03,.591-.066,.886-.1,.177-.021,.357-.039,.533-.061Zm3.247,15.835c-.459-.091-.929-.175-1.408-.254-.052-.008-.1-.018-.154-.027-.532-.085-1.079-.162-1.635-.232-.176-.022-.358-.041-.537-.061-.3-.035-.59-.072-.893-.1,.012-.1,.016-.209,.027-.311,.112-1.008,.206-2.033,.268-3.08,0-.059,.005-.119,.008-.178,.06-1.043,.091-2.105,.1-3.178,0-.085,.008-.167,.008-.252h6.678c-.006,.426-.025,.849-.048,1.27-.013,.231-.015,.466-.033,.7-.057,.715-.137,1.422-.244,2.12-.019,.117-.047,.231-.067,.348-.1,.58-.206,1.155-.339,1.721-.057,.246-.131,.484-.2,.727-.094,.354-.192,.707-.3,1.055-.229-.053-.469-.1-.7-.149-.176-.044-.35-.084-.531-.119Zm-9.358-.963c-.2-.005-.4,0-.6,0-.593-.009-1.185-.015-1.775-.008-.272,0-.541,.017-.812,.024-.509,.013-1.019,.025-1.524,.051-.324,.016-.643,.041-.965,.062-.359,.024-.722,.041-1.078,.07-.01-.085-.018-.172-.028-.259-.114-1.011-.208-2.042-.271-3.1,0-.041,0-.083-.005-.123-.06-1.043-.091-2.106-.1-3.181v-.247h11.3v.249c-.009,1.069-.04,2.127-.1,3.166,0,.045,0,.092-.006,.137-.062,1.038-.155,2.053-.266,3.051-.012,.1-.022,.2-.033,.3-.439-.037-.884-.07-1.333-.1-.804-.043-1.605-.074-2.404-.092Zm-9.188,.452c-.556,.07-1.1,.147-1.635,.233l-.129,.023c-.489,.08-.967,.166-1.436,.259-.172,.035-.337,.073-.506,.108-.242,.052-.488,.1-.723,.155-.113-.366-.216-.736-.314-1.109-.058-.221-.125-.437-.177-.661-.324-1.388-.541-2.8-.65-4.221-.019-.241-.022-.488-.035-.731-.022-.4-.038-.809-.044-1.22h6.673c0,.085,.007,.166,.008,.25,.009,1.084,.04,2.157,.1,3.209,0,.047,0,.095,.007,.142,.062,1.052,.156,2.079,.268,3.089,.011,.1,.015,.209,.027,.309-.3,.03-.583,.066-.874,.1-.183,.022-.376,.041-.56,.065Zm5.724-14.886c.24,.007,.483,.006,.724,.011,.41,.007,.82,.019,1.229,.019h.128c.452,0,.908-.014,1.363-.025,.285-.007,.566-.007,.853-.018,.743-.028,1.49-.069,2.243-.122,.206-.014,.41-.03,.613-.048,.012,.1,.022,.2,.034,.3,.118,1.009,.219,2.036,.286,3.086v.03c.066,1.045,.1,2.112,.116,3.188,0,.1,0,.2,.006,.308h-11.285v-.31c.016-1.073,.05-2.137,.117-3.18v-.035c.068-1.051,.168-2.078,.288-3.088,.011-.1,.021-.193,.033-.288,.4,.032,.802,.061,1.207,.086,.681,.035,1.362,.065,2.045,.086Zm-1.908,26.336c-.114-.022-.225-.049-.337-.074l-.055-.013c-.843-.432-1.631-.963-2.347-1.584-.131-.112-.253-.243-.38-.362-.239-.221-.48-.439-.709-.683-.145-.154-.28-.327-.421-.489-.2-.231-.4-.458-.595-.7-.143-.185-.276-.387-.414-.581-.176-.248-.355-.491-.522-.753-.134-.21-.258-.435-.386-.653-.157-.268-.315-.532-.462-.812-.122-.231-.233-.474-.348-.713-.137-.287-.276-.572-.4-.87-.107-.251-.2-.512-.3-.77-.083-.215-.164-.431-.241-.65,.212-.048,.424-.1,.641-.143,.167-.035,.33-.072,.5-.1,.4-.08,.821-.154,1.243-.225,.1-.016,.186-.034,.282-.049,.521-.084,1.055-.16,1.6-.228,.156-.02,.319-.036,.477-.055,.306-.035,.616-.069,.929-.1,.009,.068,.021,.131,.03,.2,.075,.544,.155,1.079,.244,1.594l.009,.054c.088,.509,.184,1,.284,1.477,.02,.1,.04,.193,.06,.288,.1,.473,.21,.932,.324,1.373,.02,.076,.04,.148,.06,.223,.11,.414,.225,.815,.345,1.2,.013,.044,.026,.09,.04,.133,.128,.4,.263,.785,.4,1.151,.028,.076,.057,.151,.087,.225,.141,.36,.285,.7,.436,1.026,.013,.028,.027,.053,.041,.081,.143,.3,.291,.58,.442,.843,.03,.051,.058,.1,.087,.153,.16,.267,.323,.513,.49,.739,.013,.017,.025,.039,.038,.056-.403-.063-.793-.133-1.172-.209Zm2.663,.343c-.042-.035-.083-.072-.125-.11s-.1-.093-.152-.145-.115-.125-.171-.191-.1-.111-.148-.172-.114-.153-.172-.232c-.046-.064-.092-.126-.138-.194-.061-.09-.121-.189-.18-.286-.041-.067-.082-.13-.123-.2-.068-.118-.134-.244-.2-.371-.031-.058-.062-.113-.093-.173-.089-.177-.176-.362-.263-.555l-.022-.046c-.191-.427-.374-.893-.549-1.392-.014-.037-.026-.077-.039-.114-.073-.212-.145-.427-.215-.651-.02-.063-.039-.13-.059-.2-.062-.2-.123-.406-.182-.616-.023-.081-.045-.166-.067-.248-.054-.2-.109-.4-.161-.609-.023-.093-.046-.19-.069-.286-.048-.2-.1-.4-.144-.613-.023-.106-.046-.214-.069-.321-.043-.2-.086-.4-.127-.611-.024-.121-.047-.245-.07-.368-.038-.2-.075-.4-.11-.6-.023-.131-.045-.265-.067-.4-.034-.2-.066-.405-.1-.611-.021-.141-.042-.283-.062-.426-.015-.1-.029-.208-.043-.313,.331-.027,.664-.049,1-.071s.67-.048,1.008-.065c.432-.021,.869-.031,1.3-.044,.333-.009,.663-.024,1-.028,.484-.006,.971,0,1.458,.006,.288,0,.575,0,.863,.006,.777,.019,1.556,.052,2.335,.1,.431,.026,.849,.062,1.269,.1-.015,.108-.029,.217-.044,.324-.02,.138-.04,.275-.061,.411-.032,.208-.065,.413-.1,.616-.022,.133-.044,.265-.067,.4-.035,.2-.072,.4-.109,.592-.024,.13-.049,.261-.074,.39-.038,.187-.076,.37-.116,.553-.028,.131-.055,.262-.084,.391-.038,.17-.078,.335-.118,.5-.032,.136-.064,.273-.1,.405-.037,.147-.076,.289-.114,.433s-.076,.289-.116,.429c-.033,.118-.068,.23-.1,.345-.048,.159-.094,.32-.143,.473-.022,.07-.045,.135-.067,.2-.408,1.401-1.044,2.724-1.882,3.918v.006c-.089,.113-.178,.216-.269,.314-.018,.02-.036,.042-.055,.061-.075,.079-.151,.148-.227,.216-.027,.025-.054,.05-.081,.072-.795,.053-1.593,.053-2.388,.001h.002Zm3.938-.223c.164-.222,.324-.464,.48-.725,.033-.055,.065-.114,.1-.171,.146-.255,.288-.524,.427-.812,.017-.036,.035-.069,.052-.106,.149-.317,.292-.657,.431-1.011,.031-.079,.062-.159,.092-.239,.138-.363,.271-.74,.4-1.139l.045-.147c.118-.378,.231-.772,.339-1.179,.021-.079,.043-.155,.063-.234,.113-.439,.221-.895,.323-1.365,.021-.1,.041-.2,.062-.3,.1-.471,.192-.953,.279-1.453,0-.026,.01-.05,.014-.075,.088-.511,.167-1.042,.242-1.583,.01-.069,.022-.133,.031-.2,.317,.032,.631,.065,.94,.1,.154,.018,.311,.033,.463,.052,.545,.067,1.079,.143,1.6,.228,.091,.014,.177,.031,.267,.046,.429,.071,.85,.146,1.261,.227,.166,.033,.325,.068,.488,.1,.22,.047,.435,.1,.65,.145-.077,.215-.156,.427-.238,.637-.1,.263-.2,.528-.31,.784-.129,.3-.268,.584-.406,.872-.114,.236-.224,.476-.345,.7-.152,.288-.315,.561-.477,.836-.123,.209-.242,.424-.371,.626-.176,.274-.363,.53-.548,.789-.13,.181-.255,.371-.39,.545-.2,.26-.415,.5-.627,.742-.131,.15-.257,.31-.392,.453-.241,.255-.494,.485-.746,.717-.116,.107-.227,.226-.345,.328-.718,.62-1.509,1.152-2.354,1.583-.512,.114-1.027,.209-1.541,.283,.013-.009,.026-.034,.041-.054Zm4.729-1.241c.3-.273,.6-.566,.892-.871,.067-.07,.13-.147,.2-.219,.278-.303,.548-.619,.81-.95,.087-.111,.175-.22,.26-.333,.31-.411,.612-.834,.9-1.282,.016-.024,.03-.051,.045-.075,.271-.43,.526-.882,.772-1.344,.069-.13,.136-.261,.2-.394,.222-.437,.432-.886,.631-1.349,.029-.067,.061-.131,.089-.2,.182-.437,.355-.883,.515-1.34,.142,.037,.284,.073,.421,.111s.267,.072,.4,.109c.234,.068,.457,.138,.679,.209,.1,.032,.208,.064,.307,.1,.313,.105,.615,.212,.9,.323,.049,.019,.093,.039,.142,.058,.209,.084,.41,.168,.6,.255-2.155,3.203-5.201,5.704-8.763,7.192Zm9.3-8.053h-.01c-.272-.123-.559-.243-.857-.359-.087-.034-.18-.066-.269-.1-.223-.083-.447-.166-.684-.245-.126-.043-.258-.083-.388-.125-.211-.067-.424-.134-.645-.2-.147-.043-.3-.085-.451-.127-.126-.034-.245-.071-.374-.1,.112-.364,.2-.739,.3-1.109,.06-.23,.129-.455,.184-.688,.154-.66,.285-1.331,.394-2.012,.007-.042,.017-.082,.024-.124,.114-.74,.199-1.492,.256-2.255,.013-.17,.014-.345,.025-.516,.029-.489,.063-.977,.07-1.476h5.151c-.083,3.327-1.021,6.577-2.724,9.436h-.002Zm-2.431-10.44c-.008-.428-.042-.849-.067-1.272-.015-.241-.018-.484-.038-.723-.063-.745-.149-1.482-.265-2.209-.012-.075-.031-.148-.044-.223-.109-.651-.238-1.294-.391-1.929-.057-.236-.129-.466-.192-.7-.1-.372-.19-.748-.3-1.113,.192-.05,.373-.1,.558-.155,.115-.032,.233-.063,.345-.1,.389-.114,.766-.232,1.124-.354l.076-.028c.329-.114,.644-.232,.944-.354,.1-.041,.2-.084,.3-.127,.129-.055,.265-.108,.389-.164,1.701,2.865,2.637,6.12,2.716,9.451h-5.155Zm1.829-10.4c.022,.031,.043,.064,.064,.095-.091,.041-.178,.083-.273,.123s-.2,.083-.3,.123c-.246,.098-.502,.194-.767,.287-.07,.025-.135,.05-.206,.074-.344,.117-.702,.229-1.075,.338-.081,.024-.168,.046-.251,.069-.208,.058-.426,.114-.643,.17-.068-.189-.139-.367-.208-.55-.042-.11-.082-.222-.125-.329-.145-.368-.294-.725-.448-1.062-.214-.468-.444-.915-.682-1.354-.054-.101-.109-.201-.165-.3-.244-.434-.5-.857-.762-1.26l-.009-.011c-.274-.416-.564-.808-.86-1.188-.038-.047-.075-.1-.113-.143-.677-.859-1.441-1.644-2.28-2.345,3.697,1.447,6.871,3.979,9.103,7.263Zm-12.724-8.3c1.065,.441,2.057,1.042,2.941,1.781,1.708,1.448,3.108,3.225,4.116,5.225,.179,.342,.359,.683,.523,1.043,.145,.315,.285,.651,.421,.995,.043,.107,.084,.218,.125,.327,.055,.143,.107,.293,.16,.44-.207,.047-.415,.094-.628,.138-.173,.037-.344,.074-.521,.109-.39,.076-.79,.146-1.2,.213-.11,.018-.215,.039-.325,.057-.517,.081-1.046,.155-1.585,.223-.159,.02-.324,.036-.486,.054-.3,.035-.609,.068-.919,.1-.041-.293-.087-.57-.131-.852-.025-.157-.047-.321-.073-.474-.083-.5-.169-.975-.261-1.428-.003-.023-.007-.046-.014-.068v-.007c-.003-.026-.009-.052-.016-.077-.105-.511-.218-1-.336-1.472-.035-.142-.073-.274-.11-.413-.089-.341-.181-.675-.278-1-.047-.157-.095-.31-.144-.463-.094-.294-.191-.578-.291-.852-.048-.135-.1-.272-.147-.4-.123-.321-.25-.624-.381-.914-.028-.062-.055-.131-.083-.192-.159-.342-.324-.657-.493-.952-.05-.087-.1-.163-.152-.246-.122-.2-.247-.393-.374-.569-.065-.09-.13-.174-.2-.258s-.107-.148-.162-.213c.358,.045,.699,.093,1.024,.145Zm-6.4,.576c-.049,.074-.1,.155-.145,.233-.135,.216-.266,.445-.395,.689-.05,.1-.1,.188-.149,.286-.158,.32-.313,.657-.463,1.021-.008,.02-.016,.037-.025,.057-.156,.386-.306,.8-.451,1.236-.041,.121-.08,.248-.12,.373-.107,.337-.21,.686-.31,1.047-.038,.138-.077,.273-.114,.414-.129,.493-.253,1-.369,1.536h0c-.115,.538-.222,1.1-.323,1.682-.036,.209-.067,.427-.1,.64-.048,.3-.1,.6-.144,.916-.32-.032-.638-.065-.951-.1-.147-.017-.3-.032-.443-.05-.546-.068-1.082-.143-1.6-.226-.084-.013-.162-.029-.245-.043-.433-.071-.86-.146-1.276-.227-.165-.032-.324-.068-.486-.1-.219-.046-.434-.1-.648-.143l.084-.228c.25-.666,.516-1.32,.813-1.936,1.8-3.738,4.414-6.449,7.363-7.644,.34-.06,.686-.114,1.04-.157-.196,.232-.378,.475-.545,.728l.002-.004Zm-4.063,.426c-.027,.021-.05,.049-.076,.07-.424,.354-.828,.732-1.211,1.13-.085,.089-.164,.188-.248,.279-.304,.333-.6,.682-.887,1.046-.118,.152-.232,.309-.347,.466-.253,.346-.497,.705-.731,1.078-.1,.158-.2,.313-.3,.476-.317,.535-.623,1.087-.9,1.67-.2,.412-.385,.839-.564,1.273-.058,.141-.11,.286-.166,.429-.085,.219-.174,.435-.255,.659-.216-.056-.432-.112-.64-.17-.083-.023-.169-.045-.251-.069-.368-.107-.722-.219-1.061-.334-.082-.028-.159-.057-.239-.086-.252-.089-.5-.18-.732-.273-.107-.043-.212-.086-.316-.13s-.177-.08-.266-.119c.109-.165,.221-.329,.336-.491,2.209-3.12,5.288-5.519,8.852-6.9l.002-.004Zm-9.739,8.261c.129,.058,.27,.114,.405,.17,.094,.04,.186,.081,.283,.12,.306,.123,.624,.243,.958,.358l.063,.024c.357,.122,.732,.239,1.119,.352,.118,.035,.242,.068,.363,.1,.178,.05,.351,.1,.536,.149-.113,.357-.2,.723-.3,1.085-.066,.244-.142,.484-.2,.731-.152,.626-.279,1.262-.388,1.9-.013,.082-.035,.161-.048,.243-.116,.726-.204,1.462-.265,2.207-.02,.237-.024,.479-.038,.718-.026,.424-.06,.846-.068,1.275h-5.154c.087-3.326,1.029-6.575,2.734-9.432Zm2.416,10.437c.006,.456,.038,.9,.064,1.355,.012,.227,.014,.458,.032,.684,.058,.738,.142,1.467,.252,2.187,.025,.165,.064,.326,.093,.49,.095,.556,.2,1.109,.325,1.652,.06,.26,.137,.513,.205,.77,.092,.349,.174,.7,.279,1.047-.117,.031-.226,.064-.34,.095l-.381,.107c-.208,.06-.41,.122-.61,.185-.118,.037-.238,.073-.354,.111-.208,.069-.407,.14-.6,.211-.1,.034-.193,.067-.285,.1-.284,.107-.558,.216-.818,.329-.1,.041-.191,.084-.284,.126-1.705-2.864-2.644-6.117-2.728-9.449h5.15Z"/></g></g><rect class="aj" x="587.336" y="49.929" width="24.716" height="1"/><rect class="aj" x="532.181" y="49.929" width="25.018" height="1"/><rect class="aj" x="478.821" y="49.929" width="23.139" height="1"/><g id="ab"><g id="ac"><path d="M501.768,52.757c0,4.538,6.806,8.093,15.494,8.093s15.494-3.555,15.494-8.093v-5.476h.006v-.731h-.004l.002-7.336h.002v-.731h-.002l.002-8.552h-.007c-.012-4.533-6.812-8.081-15.493-8.081s-15.494,3.555-15.494,8.093c0,.159,.028,.314,.044,.47h-.05l.006,22.344Zm15.494,7.093c-7.992,0-14.494-3.182-14.494-7.093v-4.717c2.183,3.069,7.766,5.205,14.494,5.205s12.311-2.136,14.495-5.205v4.717c0,3.911-6.503,7.093-14.495,7.093Zm-14.496-14.698v-4.72c2.182,3.071,7.766,5.208,14.496,5.208s12.315-2.137,14.497-5.208v4.72h-.003c0,3.911-6.502,7.093-14.494,7.093s-14.494-3.182-14.494-7.093h-.002Zm14.496-22.302c7.992,0,14.494,3.182,14.494,7.093s-6.502,7.093-14.494,7.093-14.494-3.182-14.494-7.093,6.502-7.093,14.494-7.093Zm0,15.186c6.732,0,12.318-2.139,14.499-5.211v4.723h-.005c0,3.911-6.502,7.093-14.494,7.093s-14.494-3.182-14.494-7.093h-.004v-4.723c2.18,3.072,7.766,5.211,14.498,5.211Z"/></g></g><g id="ad"><g id="ae"><path d="M556.812,52.757c0,4.538,6.806,8.093,15.494,8.093s15.494-3.555,15.494-8.093v-5.476h.006v-.731h-.004l.002-7.336h.002v-.731h-.002l.002-8.552h-.007c-.012-4.533-6.812-8.081-15.493-8.081s-15.494,3.555-15.494,8.093c0,.159,.028,.314,.044,.47h-.05l.006,22.344Zm15.494,7.093c-7.992,0-14.494-3.182-14.494-7.093v-4.717c2.183,3.069,7.766,5.205,14.494,5.205s12.311-2.136,14.495-5.205v4.717c0,3.911-6.503,7.093-14.495,7.093Zm-14.496-14.698v-4.72c2.182,3.071,7.766,5.208,14.496,5.208s12.315-2.137,14.497-5.208v4.72h-.003c0,3.911-6.502,7.093-14.494,7.093s-14.494-3.182-14.494-7.093h-.002Zm14.496-22.302c7.992,0,14.494,3.182,14.494,7.093s-6.502,7.093-14.494,7.093-14.494-3.182-14.494-7.093,6.502-7.093,14.494-7.093Zm0,15.186c6.732,0,12.318-2.139,14.499-5.211v4.723h-.005c0,3.911-6.502,7.093-14.494,7.093s-14.494-3.182-14.494-7.093h-.004v-4.723c2.18,3.072,7.766,5.211,14.498,5.211Z"/></g></g><g id="af"><g id="ag"><path d="M611.856,52.757c0,4.538,6.806,8.093,15.494,8.093s15.494-3.555,15.494-8.093v-5.476h.006v-.731h-.004l.002-7.336h.002v-.731h-.002l.002-8.552h-.007c-.012-4.533-6.812-8.081-15.493-8.081s-15.494,3.555-15.494,8.093c0,.159,.028,.314,.044,.47h-.05l.006,22.344Zm15.494,7.093c-7.992,0-14.494-3.182-14.494-7.093v-4.717c2.183,3.069,7.766,5.205,14.494,5.205s12.311-2.136,14.495-5.205v4.717c0,3.911-6.503,7.093-14.495,7.093Zm-14.496-14.698v-4.72c2.182,3.071,7.766,5.208,14.496,5.208s12.315-2.137,14.497-5.208v4.72h-.003c0,3.911-6.502,7.093-14.494,7.093s-14.494-3.182-14.494-7.093h-.002Zm14.496-22.302c7.992,0,14.494,3.182,14.494,7.093s-6.502,7.093-14.494,7.093-14.494-3.182-14.494-7.093,6.502-7.093,14.494-7.093Zm0,15.186c6.732,0,12.318-2.139,14.499-5.211v4.723h-.005c0,3.911-6.502,7.093-14.494,7.093s-14.494-3.182-14.494-7.093h-.004v-4.723c2.18,3.072,7.766,5.211,14.498,5.211Z"/></g></g><path class="al" d="M110.712,325.677H0V147.726H110.712v177.951Zm-109.712-1H109.712V148.726H1v175.951Z"/><g><rect x="28.064" y="139.657" width="54.583" height="18.188"/><path class="ah" d="M43.577,147.08v3.059c0,1.189-.919,2.019-2.269,2.019h-2.299v-7.097h2.289c1.35,0,2.278,.83,2.278,2.02Zm-1.549-.02c0-.36-.229-.6-.619-.6h-.85v4.297h.839c.4,0,.63-.24,.63-.6v-3.098Z"/><path class="ah" d="M46.044,146.461v1.549h1.72v1.398h-1.72v1.35h2.119v1.399h-3.668v-7.097h3.668v1.4h-2.119Z"/><path class="ah" d="M53.862,145.06l-1.499,7.097h-2.02l-1.489-7.097h1.55l.959,4.867,.97-4.867h1.529Z"/><path class="ah" d="M54.652,145.06h1.55v7.097h-1.55v-7.097Z"/><path class="ah" d="M57.124,150.288v-3.358c0-1.189,.92-2.019,2.339-2.019s2.349,.829,2.349,2.019v.891h-1.569v-.91c0-.359-.26-.6-.77-.6-.529,0-.799,.24-.799,.6v3.398c0,.359,.27,.6,.789,.6s.779-.24,.779-.6v-.91h1.569v.89c0,1.189-.919,2.019-2.339,2.019s-2.349-.829-2.349-2.019Z"/><path class="ah" d="M64.26,146.461v1.549h1.719v1.398h-1.719v1.35h2.118v1.399h-3.668v-7.097h3.668v1.4h-2.118Z"/><path class="ah" d="M67.14,150.058v-.28h1.549v.44c0,.51,.399,.729,.829,.729,.34,0,.72-.209,.72-.689,0-1.27-2.968-.969-2.968-3.268,0-1.209,.779-2.079,2.219-2.079,1.419,0,2.208,.79,2.208,1.989v.439h-1.549v-.539c0-.311-.3-.49-.67-.49-.35,0-.649,.189-.649,.6,0,1.02,2.969,.789,2.969,3.208,0,1.3-.859,2.188-2.309,2.188s-2.349-.898-2.349-2.248Z"/></g></svg>