<svg id="Icons" xmlns="http://www.w3.org/2000/svg" viewBox="0 0 128 128"><defs><style>.cls-1,.cls-2{fill:none;stroke:#231f20;stroke-width:3px;}.cls-1{stroke-linecap:round;stroke-linejoin:round;}.cls-2{stroke-miterlimit:10;}</style></defs><polyline class="cls-1" points="22.48 54.61 42.47 54.37 45.63 62.06 52.72 34.72 64.91 74.15 73.18 46.23 79.3 62.06 82.13 54.53 96.02 54.53"/><path class="cls-2" d="M90.16,40.8A79.1,79.1,0,0,0,97.36,34c2.94-3.35,2.94-7.2,1.3-9.48s-6.23-3.11-8.5,1.38c-2.54-4.49-6.86-3.72-8.5-1.43S80,30.56,83,33.91A83.58,83.58,0,0,0,90.16,40.8Z"/><circle class="cls-2" cx="99.76" cy="54.37" r="3.77"/><path class="cls-1" d="M62.76,102.15H95.43a20.22,20.22,0,0,0,20.22-20.22V27.44A20.22,20.22,0,0,0,95.43,7.22H40.94A20.22,20.22,0,0,0,20.72,27.44V67.9"/><circle class="cls-2" cx="35.2" cy="95.93" r="13.13"/><path class="cls-2" d="M37.35,71.16l1.32,6.51.32.06a18.91,18.91,0,0,1,2.43.69l4.22-5.06"/><path class="cls-2" d="M38.67,77.67l-1.32-6.51a24.64,24.64,0,0,0-4.38,0l-1.12,6.49"/><path class="cls-2" d="M49.44,75.53l-2.12,6.31a18.23,18.23,0,0,1,1.92,1.91l6.16-2.32"/><path class="cls-2" d="M47.32,81.84l2.12-6.31a24.91,24.91,0,0,0-3.8-2.17l-4.22,5.06"/><path class="cls-2" d="M28.94,78.43l-4.43-5a26,26,0,0,0-3.77,2.23l2.32,6.16"/><path class="cls-2" d="M24.51,73.48l4.43,5a18.1,18.1,0,0,1,2.91-.78L33,71.16"/><path class="cls-2" d="M49.3,108l6.31,2.11a24.91,24.91,0,0,0,2.17-3.8l-5.06-4.21"/><path class="cls-2" d="M14.83,81.67l6.31,2.12a17.4,17.4,0,0,1,1.92-1.92l-2.32-6.16"/><path class="cls-2" d="M52.69,89.64l4.94-4.45a25.48,25.48,0,0,0-2.23-3.76l-6.16,2.32"/><path class="cls-2" d="M60,98.05l-6.51,1.32-.06.34a21,21,0,0,1-.68,2.42l5.06,4.21"/><path class="cls-2" d="M53.46,99.37,60,98.05a24.53,24.53,0,0,0,0-4.37l-6.49-1.13"/><path class="cls-2" d="M57.63,85.19l-4.94,4.45a18.12,18.12,0,0,1,.79,2.91L60,93.68"/><path class="cls-2" d="M41.5,113.4,46,118.34a24.49,24.49,0,0,0,3.76-2.23L47.39,110"/><path class="cls-2" d="M33,120.68l-1.31-6.51-.29-.06a17.84,17.84,0,0,1-2.46-.69l-4.23,5"/><path class="cls-2" d="M31.71,114.17,33,120.68a23.63,23.63,0,0,0,4.37,0l1.14-6.49"/><path class="cls-2" d="M46,118.34,41.5,113.4a17.58,17.58,0,0,1-3,.8l-1.14,6.49"/><path class="cls-2" d="M55.61,110.14,49.3,108A18.23,18.23,0,0,1,47.39,110l2.32,6.16"/><path class="cls-2" d="M23.06,110l-2.12,6.3a24.39,24.39,0,0,0,3.79,2.18l4.23-5"/><path class="cls-2" d="M10.45,93.75,17,92.44l.06-.3a17.84,17.84,0,0,1,.69-2.46l-5.05-4.22"/><path class="cls-2" d="M21.14,83.79l-6.31-2.12a24.34,24.34,0,0,0-2.17,3.79l5.05,4.22"/><path class="cls-2" d="M17,92.44l-6.51,1.31a23.63,23.63,0,0,0,0,4.37l6.49,1.14"/><path class="cls-2" d="M17.71,102.18l-5,4.43A25.89,25.89,0,0,0,15,110.38l6.17-2.31"/><path class="cls-2" d="M20.94,116.29l2.12-6.3a20.36,20.36,0,0,1-1.91-1.92L15,110.38"/><path class="cls-2" d="M12.76,106.61l5-4.43a18.21,18.21,0,0,1-.78-2.92l-6.49-1.14"/></svg>