<?xml version="1.0" encoding="utf-8"?>
<!-- Generator: Adobe Illustrator 25.2.3, SVG Export Plug-In . SVG Version: 6.00 Build 0)  -->
<svg version="1.1" id="Layer_1" xmlns="http://www.w3.org/2000/svg" xmlns:xlink="http://www.w3.org/1999/xlink" x="0px" y="0px"
	 viewBox="0 0 50 50" style="enable-background:new 0 0 50 50;" xml:space="preserve">
<g id="e63dddd9-5a19-4fd2-95ee-4653cc791d2f">
	<path style="fill:#1D9CD3;" d="M13.794,45.755c-0.102,0-0.201-0.031-0.284-0.089c0,0-1.2-0.832-4.382-3.131
		c-3.867-2.8-3.69-6.126-3.68-6.267l0,0c-0.006,0-0.356-4.2-0.356-6.778c-0.087-0.763,0.155-1.526,0.665-2.1
		c0.745-0.485,1.658-0.638,2.52-0.421c0.239,0.02,0.487,0.041,0.744,0.053c0.279,0.015,0.557,0.028,0.834,0.037l2.466-1.784
		c0.941-0.711,2.245-0.693,3.165,0.046l2.283,1.738c0.273-0.011,0.547-0.022,0.822-0.037l0,0c0.257-0.012,0.505-0.033,0.743-0.053
		c0.862-0.216,1.776-0.063,2.521,0.421c0.51,0.574,0.752,1.337,0.665,2.1c0,2.589-0.353,6.81-0.357,6.853
		c0.01,0.065,0.188,3.392-3.68,6.191c-3.141,2.273-4.4,3.125-4.409,3.134C13.991,45.724,13.894,45.755,13.794,45.755z M7.29,27.916
		c-0.302-0.033-0.605,0.042-0.856,0.213c-0.282,0.394-0.404,0.881-0.342,1.362c0,2.547,0.349,6.727,0.353,6.769
		c-0.006,0.192-0.126,3.008,3.269,5.464c2.3,1.667,3.566,2.56,4.082,2.922c0.524-0.362,1.806-1.26,4.1-2.922
		c3.4-2.456,3.276-5.272,3.269-5.391s0.354-4.3,0.354-6.842c0.062-0.481-0.06-0.968-0.342-1.362c-0.307-0.281-0.981-0.225-1.76-0.16
		c-0.249,0.02-0.509,0.042-0.777,0.055l0,0c-0.341,0.018-0.681,0.032-1.019,0.044c-0.133,0.013-0.265-0.036-0.358-0.132
		l-2.382-1.816c-0.568-0.474-1.391-0.488-1.974-0.032L10.3,27.974c-0.09,0.066-0.2,0.099-0.311,0.094
		c-0.338-0.012-0.678-0.026-1.019-0.044c-0.268-0.013-0.528-0.035-0.777-0.055C7.868,27.941,7.56,27.916,7.29,27.916z"/>
	<path style="fill:#1D9CD3;" d="M13.021,37.816c-0.157,0-0.306-0.074-0.4-0.2l-1.832-2.431c-0.166-0.221-0.122-0.534,0.099-0.7
		c0.221-0.166,0.534-0.122,0.7,0.099c0,0,0,0.001,0.001,0.001l1.407,1.866l3.014-4.559c0.144-0.236,0.451-0.31,0.687-0.166
		c0.236,0.144,0.31,0.451,0.166,0.687c-0.007,0.011-0.013,0.021-0.021,0.031l-3.4,5.149c-0.089,0.135-0.238,0.218-0.4,0.224
		L13.021,37.816z"/>
	<path style="fill:#1D9CD3;" d="M13.807,40.242c-3.038,0-5.5-2.462-5.5-5.5s2.462-5.5,5.5-5.5s5.5,2.462,5.5,5.5l0,0
		C19.304,37.778,16.843,40.239,13.807,40.242z M13.807,30.242c-2.485,0-4.5,2.015-4.5,4.5s2.015,4.5,4.5,4.5s4.5-2.015,4.5-4.5l0,0
		C18.307,32.257,16.292,30.242,13.807,30.242z"/>
	<path style="fill:#1D9CD3;" d="M21.728,24.126c-0.045-0.089-0.076-0.184-0.094-0.282c-0.024-0.116-0.041-0.234-0.051-0.352
		c-0.104,0.104-0.216,0.199-0.336,0.285c-0.128,0.092-0.265,0.171-0.408,0.236c-0.153,0.069-0.312,0.123-0.475,0.161
		c-0.176,0.041-0.356,0.06-0.537,0.059c-0.284,0.004-0.567-0.042-0.836-0.134c-0.232-0.08-0.448-0.203-0.634-0.363
		c-0.171-0.15-0.307-0.335-0.4-0.542c-0.096-0.213-0.145-0.445-0.143-0.679c-0.008-0.29,0.056-0.578,0.186-0.838
		c0.128-0.242,0.313-0.448,0.54-0.6c0.256-0.17,0.541-0.291,0.841-0.357c0.361-0.083,0.73-0.122,1.1-0.118h1.085v-0.457
		c0.002-0.163-0.032-0.325-0.1-0.473c-0.064-0.138-0.157-0.26-0.274-0.357c-0.128-0.103-0.275-0.181-0.432-0.228
		c-0.185-0.056-0.378-0.084-0.572-0.081c-0.179-0.003-0.358,0.023-0.529,0.076c-0.142,0.043-0.276,0.111-0.395,0.2
		c-0.104,0.078-0.189,0.178-0.249,0.293c-0.058,0.108-0.089,0.229-0.089,0.352h-1c0.007-0.22,0.067-0.435,0.174-0.627
		c0.113-0.213,0.268-0.4,0.456-0.551c0.217-0.173,0.462-0.306,0.725-0.395c0.313-0.104,0.641-0.155,0.97-0.15
		c0.31-0.003,0.619,0.038,0.918,0.121c0.266,0.072,0.515,0.196,0.733,0.365c0.207,0.163,0.373,0.372,0.486,0.61
		c0.124,0.267,0.184,0.559,0.178,0.854v2.7c0.001,0.206,0.019,0.412,0.053,0.616c0.03,0.194,0.08,0.383,0.151,0.566v0.086
		L21.728,24.126z M19.972,23.369c0.183,0.002,0.366-0.024,0.542-0.076c0.161-0.047,0.316-0.115,0.46-0.2
		c0.131-0.078,0.251-0.173,0.357-0.283c0.095-0.097,0.174-0.209,0.236-0.33v-1.174h-0.924c-0.465-0.024-0.929,0.065-1.353,0.258
		c-0.309,0.149-0.5,0.468-0.484,0.811c-0.002,0.137,0.023,0.273,0.073,0.4c0.047,0.12,0.121,0.228,0.217,0.315
		c0.106,0.093,0.231,0.163,0.365,0.206C19.626,23.349,19.799,23.373,19.972,23.369z"/>
	<path style="fill:#1D9CD3;" d="M29.435,21.285c0.003,0.392-0.047,0.783-0.15,1.162c-0.089,0.337-0.238,0.655-0.441,0.938
		c-0.188,0.26-0.433,0.473-0.717,0.623c-0.302,0.154-0.636,0.231-0.975,0.225c-0.321,0.006-0.639-0.052-0.937-0.171
		c-0.268-0.112-0.507-0.283-0.7-0.5v2.798h-0.994v-8.046h0.908l0.048,0.634c0.188-0.235,0.427-0.424,0.7-0.551
		c0.3-0.132,0.625-0.197,0.953-0.19c0.343-0.007,0.682,0.068,0.989,0.22c0.284,0.145,0.531,0.355,0.719,0.613
		c0.204,0.282,0.354,0.6,0.441,0.937c0.104,0.391,0.154,0.795,0.15,1.2L29.435,21.285z M28.441,21.172
		c0.001-0.272-0.03-0.544-0.093-0.809c-0.057-0.241-0.155-0.469-0.29-0.676c-0.128-0.192-0.299-0.351-0.5-0.465
		c-0.221-0.12-0.469-0.179-0.72-0.172c-0.283-0.009-0.562,0.069-0.8,0.223c-0.216,0.147-0.393,0.343-0.518,0.572v2.8
		c0.125,0.225,0.301,0.418,0.515,0.561c0.244,0.153,0.529,0.229,0.817,0.217c0.249,0.007,0.496-0.053,0.714-0.174
		c0.199-0.116,0.369-0.277,0.494-0.47c0.134-0.209,0.232-0.44,0.288-0.682c0.063-0.266,0.094-0.538,0.093-0.811V21.172z"/>
	<path style="fill:#1D9CD3;" d="M36.079,21.285c0.003,0.392-0.047,0.783-0.15,1.162c-0.089,0.337-0.238,0.655-0.441,0.938
		c-0.188,0.26-0.433,0.473-0.717,0.623c-0.302,0.154-0.636,0.231-0.975,0.225c-0.321,0.006-0.639-0.052-0.937-0.171
		c-0.268-0.112-0.507-0.283-0.7-0.5v2.798H31.17v-8.046h0.908l0.048,0.634c0.188-0.235,0.427-0.424,0.7-0.551
		c0.3-0.132,0.625-0.197,0.953-0.19c0.343-0.007,0.682,0.068,0.989,0.22c0.284,0.145,0.531,0.355,0.719,0.613
		c0.204,0.282,0.354,0.6,0.441,0.937c0.104,0.391,0.154,0.795,0.15,1.2L36.079,21.285z M35.085,21.172
		c0.001-0.272-0.03-0.544-0.093-0.809c-0.057-0.241-0.155-0.469-0.29-0.676c-0.128-0.192-0.299-0.351-0.5-0.465
		c-0.221-0.12-0.469-0.179-0.72-0.172c-0.283-0.009-0.562,0.069-0.8,0.223c-0.216,0.147-0.393,0.343-0.518,0.572v2.8
		c0.125,0.225,0.301,0.418,0.515,0.561c0.244,0.153,0.529,0.229,0.817,0.217c0.249,0.007,0.496-0.053,0.714-0.174
		c0.199-0.116,0.369-0.277,0.494-0.47c0.134-0.209,0.232-0.44,0.288-0.682c0.063-0.266,0.094-0.538,0.093-0.811L35.085,21.172z"/>
	<g id="fa3bdea6-7210-47dd-9b6f-043a58bf8c3a">
		<path style="fill:#1D9CD3;" d="M36.953,40.245h-13.2c-0.276,0-0.5-0.224-0.5-0.5s0.224-0.5,0.5-0.5h13.2
			c3.839-0.004,6.951-3.116,6.955-6.955V12.2c-0.004-3.839-3.116-6.951-6.955-6.955h-20.09C13.024,5.249,9.912,8.361,9.908,12.2
			v12.545c0,0.276-0.224,0.5-0.5,0.5s-0.5-0.224-0.5-0.5V12.2c0.006-4.391,3.564-7.949,7.955-7.955h20.09
			c4.391,0.006,7.949,3.564,7.955,7.955v20.09C44.902,36.681,41.344,40.239,36.953,40.245z"/>
	</g>
</g>
</svg>
