<svg id="Icons" xmlns="http://www.w3.org/2000/svg" viewBox="0 0 128 128"><defs><style>.cls-1{fill:none;stroke-linecap:round;stroke-linejoin:round;stroke-width:3px;}.cls-1,.cls-2{stroke:#231f20;}.cls-2{fill:#231f20;stroke-miterlimit:10;stroke-width:0.75px;}</style></defs><path class="cls-1" d="M68.78,85.55H95.47a17.05,17.05,0,0,0,17.06-17v-46a17.06,17.06,0,0,0-17.06-17H49.52a17.05,17.05,0,0,0-17.05,17V46.47"/><path class="cls-2" d="M58.65,48.94a6.19,6.19,0,0,1-4.75,2,4.77,4.77,0,0,1-5-4.75c0-3.2,2.58-4.72,5-4.72a6,6,0,0,1,4.75,2V40.84c0-1.93-1.55-3-3.63-3a5.72,5.72,0,0,0-4.39,2l-1-1.54a7.54,7.54,0,0,1,5.73-2.38c3,0,5.55,1.37,5.55,4.84v9.86H58.65Zm0-4.09a4.8,4.8,0,0,0-3.95-1.78c-2.08,0-3.53,1.3-3.53,3.14s1.45,3.12,3.53,3.12a4.8,4.8,0,0,0,3.95-1.78Z"/><path class="cls-2" d="M65.09,56V36.24h2.22v2.14a6,6,0,0,1,4.84-2.5c3.77,0,6.38,2.85,6.38,7.51s-2.61,7.54-6.38,7.54a5.88,5.88,0,0,1-4.84-2.52V56Zm6.5-18.17a5.29,5.29,0,0,0-4.28,2.29v6.47a5.33,5.33,0,0,0,4.28,2.31c2.87,0,4.6-2.37,4.6-5.55S74.46,37.87,71.59,37.87Z"/><path class="cls-2" d="M81.88,56V36.24h2.23v2.14A6,6,0,0,1,89,35.88c3.77,0,6.38,2.85,6.38,7.51S92.72,50.93,89,50.93a5.88,5.88,0,0,1-4.84-2.52V56Zm6.5-18.17a5.29,5.29,0,0,0-4.27,2.29v6.47a5.33,5.33,0,0,0,4.27,2.31c2.88,0,4.6-2.37,4.6-5.55S91.26,37.87,88.38,37.87Z"/><polyline class="cls-1" points="20.66 77.7 31.06 77.6 35.24 67.93 41.71 86.36 45.81 77.67 56.6 77.67"/><path class="cls-1" d="M56.6,95.59l5,5s2.64-2.63,5.28,0l15.6,15.57a3.74,3.74,0,0,1,0,5.27h0a3.74,3.74,0,0,1-5.27,0L61.58,105.85"/><circle class="cls-1" cx="38.63" cy="77.63" r="25.15"/><circle class="cls-1" cx="38.63" cy="77.63" r="17.97"/></svg>