<svg id="Icons" xmlns="http://www.w3.org/2000/svg" viewBox="0 0 128 128"><defs><style>.cls-1{fill:#231f20;}.cls-2{fill:none;stroke:#000;stroke-linecap:round;stroke-linejoin:round;stroke-width:3px;}</style></defs><title>big-ip-square_38313D</title><path class="cls-1" d="M29,52H38.2c3.42,0,5.32,2.12,5.32,4.76a4.19,4.19,0,0,1-3.25,4.28,4.59,4.59,0,0,1,3.61,4.59c0,2.89-1.93,5-5.43,5H29Zm8.51,7.72a2.35,2.35,0,0,0,2.63-2.4,2.38,2.38,0,0,0-2.63-2.44H32.29v4.84Zm.14,8.07c1.79,0,2.85-1,2.85-2.61a2.56,2.56,0,0,0-2.85-2.57H32.29v5.18Z"/><path class="cls-1" d="M46.46,52h3.27V70.69H46.46Z"/><path class="cls-1" d="M62,51.71A8.76,8.76,0,0,1,69.5,55.6l-2.69,1.51A5.94,5.94,0,0,0,62,54.62a6.4,6.4,0,0,0-6.44,6.75A6.41,6.41,0,0,0,62,68.14a6.81,6.81,0,0,0,4.42-1.68V63.55H60.82V60.67h8.85v7A10.15,10.15,0,0,1,62,71.06a9.68,9.68,0,1,1,0-19.35Z"/><path class="cls-1" d="M71.24,62.66H78v2.52H71.24Z"/><path class="cls-1" d="M80.09,52h3.27V70.69H80.09Z"/><path class="cls-1" d="M86.64,52h8.2a5.86,5.86,0,1,1,0,11.7H89.91v7H86.64Zm7.75,2.88H89.91v5.94h4.48a3,3,0,1,0,0-5.94Z"/><circle class="cls-2" cx="64" cy="64" r="53.87"/></svg>