<?xml version="1.0" encoding="utf-8"?>
<!-- Generator: Adobe Illustrator 25.2.3, SVG Export Plug-In . SVG Version: 6.00 Build 0)  -->
<svg version="1.1" id="b7c440d4-2aac-49ef-a2cd-73871fcc662c"
	 xmlns="http://www.w3.org/2000/svg" xmlns:xlink="http://www.w3.org/1999/xlink" x="0px" y="0px" viewBox="0 0 50 50"
	 style="enable-background:new 0 0 50 50;" xml:space="preserve">
<path style="fill:#1D9CD3;" d="M40.113,11.291c-0.025-0.054-0.058-0.103-0.1-0.145c-0.028-0.023-0.059-0.044-0.091-0.061
	c-7.729-8.254-20.686-8.679-28.939-0.95s-8.679,20.686-0.95,28.939c0.237,0.253,0.48,0.499,0.729,0.74
	c-0.007,0.276,0.211,0.506,0.487,0.513c0.004,0,0.009,0,0.013,0c0.019-0.003,0.037-0.006,0.055-0.011
	c8.372,7.593,21.315,6.961,28.907-1.411c7.115-7.846,7.069-19.824-0.107-27.614L40.113,11.291z M5.5,25.094
	C5.489,14.335,14.202,5.604,24.961,5.593c5.271-0.005,10.32,2.126,13.993,5.907L11.37,39.014C7.616,35.356,5.499,30.336,5.5,25.094z
	 M25,44.594c-4.752-0.001-9.339-1.747-12.889-4.906l27.516-27.447c7.116,8.061,6.349,20.364-1.712,27.48
	C34.35,42.868,29.756,44.602,25,44.594z"/>
</svg>
