<?xml version="1.0" encoding="utf-8"?>
<!-- Generator: Adobe Illustrator 25.2.3, SVG Export Plug-In . SVG Version: 6.00 Build 0)  -->
<svg version="1.1" id="f8bbc45a-a8c1-40c1-8a84-78612592ea87"
	 xmlns="http://www.w3.org/2000/svg" xmlns:xlink="http://www.w3.org/1999/xlink" x="0px" y="0px" viewBox="0 0 50 50"
	 style="enable-background:new 0 0 50 50;" xml:space="preserve">
<path style="fill:#FFFFFF;" d="M20.147,31.329h-3.673c-0.248-0.022-0.467,0.161-0.489,0.409c-0.002,0.018-0.002,0.036-0.002,0.054
	v4.946c-0.008,0.249,0.188,0.457,0.437,0.465c0.018,0.001,0.036,0,0.054-0.002h3.673c0.248,0.022,0.467-0.161,0.489-0.409
	c0.002-0.018,0.002-0.036,0.002-0.054v-4.946c0.008-0.249-0.188-0.457-0.437-0.465C20.183,31.327,20.165,31.327,20.147,31.329z
	 M19.638,36.2h-2.655v-3.871h2.655V36.2z"/>
<path style="fill:#FFFFFF;" d="M26.624,25.176h-3.281c-0.393,0-0.589,0.293-0.589,0.683v10.659
	c-0.018,0.348,0.242,0.649,0.589,0.683h3.281c0.392,0,0.588-0.292,0.588-0.683V25.859C27.212,25.371,27.114,25.176,26.624,25.176z
	 M26.212,36.2h-2.458V26.176h2.458V36.2z"/>
<path style="fill:#FFFFFF;" d="M33.492,28.982h-3.477c-0.295,0.03-0.513,0.29-0.49,0.586v7.048c-0.022,0.296,0.195,0.555,0.49,0.585
	h3.477c0.295-0.03,0.513-0.289,0.491-0.585v-7.048C33.983,29.177,33.787,28.982,33.492,28.982z M32.983,36.2h-2.458v-6.218h2.458
	L32.983,36.2z"/>
<path style="fill:#FFFFFF;" d="M18.2,29.753c1.308,0.004,2.371-1.052,2.376-2.36c0.001-0.457-0.129-0.904-0.376-1.288l3.464-3.579
	c1.061,0.742,2.523,0.49,3.274-0.565l2.757,1.962c-0.201,0.35-0.308,0.746-0.31,1.15c-0.001,1.312,1.061,2.376,2.373,2.377
	c1.312,0.001,2.376-1.061,2.377-2.373c0.001-1.312-1.061-2.376-2.373-2.377c-0.003,0-0.005,0-0.008,0
	c-0.505,0.002-0.996,0.166-1.4,0.469l-3.014-2.146c0.029-0.147,0.044-0.296,0.045-0.446c0-1.312-1.063-2.375-2.375-2.375
	s-2.375,1.063-2.375,2.375c0.002,0.428,0.121,0.848,0.344,1.213l-3.487,3.6c-1.097-0.717-2.569-0.41-3.286,0.688
	c-0.717,1.097-0.41,2.569,0.688,3.286c0.386,0.252,0.837,0.387,1.298,0.387L18.2,29.753z M31.754,23.7
	c0.76-0.001,1.376,0.615,1.377,1.375c0.001,0.76-0.615,1.376-1.375,1.377c-0.76,0.001-1.376-0.615-1.377-1.375c0,0,0-0.001,0-0.001
	C30.38,24.317,30.995,23.701,31.754,23.7z M25.01,19.2c0.76-0.001,1.376,0.615,1.377,1.375c0.001,0.76-0.615,1.376-1.375,1.377
	c-0.76,0.001-1.376-0.615-1.377-1.375c0,0,0-0.001,0-0.001C23.636,19.817,24.251,19.201,25.01,19.2z M18.2,26
	c0.76-0.001,1.376,0.615,1.377,1.375c0.001,0.76-0.615,1.376-1.375,1.377c-0.76,0.001-1.376-0.615-1.377-1.375
	c0-0.001,0-0.001,0-0.002C16.826,26.616,17.441,26.001,18.2,26z"/>
<path style="fill:#FFFFFF;" d="M45.017,9.211H4.949c-0.276,0-0.5,0.224-0.5,0.5v30.578c0,0.276,0.224,0.5,0.5,0.5h40.068
	c0.276,0,0.5-0.224,0.5-0.5V9.711C45.517,9.435,45.293,9.211,45.017,9.211z M44.517,39.789H5.449V15.914h39.068V39.789z
	 M44.517,14.914H5.449v-4.7h39.068V14.914z"/>
<path style="fill:#FFFFFF;" d="M7.811,13.062h2.862c0.276,0,0.5-0.224,0.5-0.5s-0.224-0.5-0.5-0.5H7.811c-0.276,0-0.5,0.224-0.5,0.5
	S7.535,13.062,7.811,13.062z"/>
<path style="fill:#FFFFFF;" d="M13.535,13.062H16.4c0.276,0,0.5-0.224,0.5-0.5s-0.224-0.5-0.5-0.5h-2.865
	c-0.276,0-0.5,0.224-0.5,0.5S13.259,13.062,13.535,13.062z"/>
<path style="fill:#FFFFFF;" d="M19.259,13.062h2.862c0.276,0,0.5-0.224,0.5-0.5s-0.224-0.5-0.5-0.5h-2.862
	c-0.276,0-0.5,0.224-0.5,0.5S18.983,13.062,19.259,13.062z"/>
<circle style="fill:#FFFFFF;" cx="42.155" cy="12.563" r="1"/>
</svg>
