<?xml version="1.0" encoding="utf-8"?>
<!-- Generator: Adobe Illustrator 25.2.3, SVG Export Plug-In . SVG Version: 6.00 Build 0)  -->
<svg version="1.1" id="a4c9729f-5e0d-400c-800b-6dd4a474343e"
	 xmlns="http://www.w3.org/2000/svg" xmlns:xlink="http://www.w3.org/1999/xlink" x="0px" y="0px" viewBox="0 0 50 50"
	 style="enable-background:new 0 0 50 50;" xml:space="preserve">
<path style="fill:#FFFFFF;" d="M20.912,32.039c-0.087,0-0.176-0.022-0.256-0.071l-6.786-4.057c-0.151-0.09-0.244-0.253-0.244-0.429
	s0.092-0.339,0.243-0.429l6.786-4.058c0.238-0.141,0.544-0.064,0.686,0.172c0.142,0.237,0.064,0.544-0.172,0.686l-6.068,3.628
	l6.068,3.628c0.237,0.142,0.314,0.448,0.173,0.686C21.248,31.952,21.082,32.039,20.912,32.039z"/>
<path style="fill:#FFFFFF;" d="M29.054,32.039c-0.17,0-0.336-0.087-0.429-0.243c-0.143-0.237-0.064-0.544,0.172-0.686l6.068-3.628
	l-6.068-3.628c-0.236-0.142-0.314-0.449-0.172-0.686c0.141-0.237,0.447-0.313,0.686-0.172l6.786,4.058
	c0.15,0.09,0.243,0.253,0.243,0.429s-0.093,0.339-0.243,0.429l-6.786,4.057C29.229,32.017,29.142,32.039,29.054,32.039z"/>
<path style="fill:#FFFFFF;" d="M23.626,32.039c-0.053,0-0.106-0.008-0.159-0.025c-0.262-0.088-0.403-0.371-0.315-0.633l2.713-8.115
	c0.089-0.261,0.377-0.402,0.633-0.315c0.263,0.087,0.403,0.371,0.316,0.633L24.1,31.697C24.03,31.907,23.835,32.039,23.626,32.039z"
	/>
<path style="fill:#FFFFFF;" d="M45.017,40.789H4.949c-0.276,0-0.5-0.224-0.5-0.5V9.711c0-0.276,0.224-0.5,0.5-0.5h40.068
	c0.276,0,0.5,0.224,0.5,0.5v30.578C45.517,40.565,45.293,40.789,45.017,40.789z M5.449,39.789h39.068V15.914H5.449L5.449,39.789z
	 M5.449,14.914h39.068v-4.7H5.449L5.449,14.914z"/>
<path style="fill:#FFFFFF;" d="M10.673,13.062H7.811c-0.276,0-0.5-0.224-0.5-0.5s0.224-0.5,0.5-0.5h2.862c0.276,0,0.5,0.224,0.5,0.5
	S10.949,13.062,10.673,13.062z"/>
<path style="fill:#FFFFFF;" d="M16.4,13.062h-2.865c-0.276,0-0.5-0.224-0.5-0.5s0.224-0.5,0.5-0.5H16.4c0.276,0,0.5,0.224,0.5,0.5
	S16.676,13.062,16.4,13.062z"/>
<path style="fill:#FFFFFF;" d="M22.121,13.062h-2.862c-0.276,0-0.5-0.224-0.5-0.5s0.224-0.5,0.5-0.5h2.862
	c0.276,0,0.5,0.224,0.5,0.5S22.397,13.062,22.121,13.062z"/>
<path style="fill:#FFFFFF;" d="M42.155,11.563c-0.552,0-1,0.448-1,1s0.448,1,1,1s1-0.448,1-1S42.707,11.563,42.155,11.563z"/>
</svg>
