<?xml version="1.0" encoding="utf-8"?>
<!-- Generator: Adobe Illustrator 25.2.3, SVG Export Plug-In . SVG Version: 6.00 Build 0)  -->
<svg version="1.1" id="Layer_1" xmlns="http://www.w3.org/2000/svg" xmlns:xlink="http://www.w3.org/1999/xlink" x="0px" y="0px"
	 viewBox="0 0 50 50" style="enable-background:new 0 0 50 50;" xml:space="preserve">
<g id="a9704e3d-d5cd-4cb2-b2a1-32f90e77b8c0">
	<path style="fill:#FFFFFF;" d="M45.034,6.019H4.966c-0.276,0-0.5,0.224-0.5,0.5V37.1c0,0.276,0.224,0.5,0.5,0.5h5.991
		c0.276,0,0.5-0.224,0.5-0.5s-0.224-0.5-0.5-0.5H5.466V12.722h39.068V36.6H39c-0.276,0-0.5,0.224-0.5,0.5s0.224,0.5,0.5,0.5h6.03
		c0.276,0,0.5-0.224,0.5-0.5V6.519C45.53,6.244,45.309,6.021,45.034,6.019z M5.466,7.019h39.068v4.7H5.466L5.466,7.019z"/>
	<path style="fill:#FFFFFF;" d="M10.69,8.87H7.828c-0.276,0-0.5,0.224-0.5,0.5s0.224,0.5,0.5,0.5h2.862c0.276,0,0.5-0.224,0.5-0.5
		S10.966,8.87,10.69,8.87z"/>
	<path style="fill:#FFFFFF;" d="M16.414,8.87h-2.862c-0.276,0-0.5,0.224-0.5,0.5s0.224,0.5,0.5,0.5h2.862c0.276,0,0.5-0.224,0.5-0.5
		S16.69,8.87,16.414,8.87z"/>
	<path style="fill:#FFFFFF;" d="M22.138,8.87h-2.862c-0.276,0-0.5,0.224-0.5,0.5s0.224,0.5,0.5,0.5h2.862c0.276,0,0.5-0.224,0.5-0.5
		S22.414,8.87,22.138,8.87z"/>
	<circle style="fill:#FFFFFF;" cx="42.172" cy="9.37" r="1"/>
	<path style="fill:#FFFFFF;" d="M25,18c-7.168,0-12.979,5.811-12.979,12.979S17.832,43.958,25,43.958
		c7.167,0,12.978-5.81,12.979-12.977C37.972,23.816,32.165,18.008,25,18z M25,43c-6.64,0.001-12.022-5.381-12.023-12.021
		s5.381-12.022,12.021-12.023c6.64-0.001,12.022,5.381,12.023,12.021c0,0.001,0,0.003,0,0.004C37.012,37.616,31.635,42.992,25,43z"
		/>
	<path style="fill:#FFFFFF;" d="M32.109,25.732l0.411-0.409c0.583-0.558,0.683-1.453,0.237-2.126
		c-0.275-0.402-0.715-0.662-1.2-0.709c-0.485-0.046-0.964,0.127-1.308,0.472l0,0l-7.922,7.92c-2.201-0.962-4.77-0.02-5.827,2.137
		c-1.096,2.22-0.184,4.907,2.035,6.003c0.991,0.489,2.128,0.595,3.192,0.297c2.388-0.663,3.787-3.137,3.124-5.525
		c-0.056-0.202-0.126-0.4-0.21-0.592l1.929-1.928l1.374,1.377c0.63,0.651,1.668,0.667,2.319,0.037
		c0.651-0.63,0.667-1.668,0.037-2.319c-0.012-0.013-0.025-0.025-0.038-0.038l-1.376-1.375l0.9-0.9l1.382,1.381
		c0.313,0.302,0.733,0.468,1.168,0.461c0.906-0.017,1.626-0.765,1.609-1.671c-0.008-0.417-0.174-0.816-0.466-1.114L32.109,25.732z
		 M32.77,28.7c-0.117,0.124-0.278,0.196-0.448,0.2c-0.166,0.002-0.327-0.06-0.449-0.174l-1.729-1.729
		c-0.195-0.195-0.512-0.195-0.707,0L27.825,28.6c-0.195,0.195-0.195,0.512,0,0.707l1.73,1.73c0.263,0.236,0.284,0.64,0.049,0.902
		c-0.236,0.263-0.64,0.284-0.902,0.049c-0.016-0.015-0.032-0.03-0.046-0.046l-1.726-1.732c-0.094-0.094-0.221-0.146-0.354-0.147l0,0
		c-0.132,0-0.259,0.053-0.353,0.146l-2.536,2.534c-0.156,0.156-0.191,0.397-0.086,0.591c0.915,1.695,0.283,3.811-1.412,4.726
		c-1.077,0.581-2.379,0.556-3.432-0.066c-1.544-0.944-2.129-2.9-1.356-4.536c0.843-1.727,2.927-2.443,4.654-1.6
		c0.045,0.022,0.09,0.045,0.134,0.069c0.194,0.104,0.434,0.069,0.59-0.087l8.174-8.172c0.251-0.249,0.657-0.248,0.907,0.004
		c0.029,0.029,0.056,0.062,0.078,0.096c0.166,0.276,0.115,0.63-0.121,0.848l-0.765,0.762c-0.196,0.195-0.196,0.512-0.001,0.707
		c0,0,0.001,0.001,0.001,0.001l1.723,1.725C33.014,28.059,33.012,28.454,32.77,28.7z"/>
	<path style="fill:#FFFFFF;" d="M20.481,33.062c-1.063-0.001-1.925,0.861-1.926,1.924c-0.001,1.063,0.861,1.925,1.924,1.926
		c1.063,0.001,1.925-0.861,1.926-1.924c0,0,0-0.001,0-0.001C22.404,33.925,21.543,33.064,20.481,33.062z M20.481,35.911
		c-0.511,0.001-0.925-0.413-0.926-0.924c-0.001-0.511,0.413-0.925,0.924-0.926c0.511-0.001,0.925,0.413,0.926,0.924
		c0,0.001,0,0.001,0,0.002C21.404,35.497,20.991,35.91,20.481,35.911z"/>
</g>
</svg>
