<?xml version="1.0" encoding="utf-8"?>
<!-- Generator: Adobe Illustrator 25.2.3, SVG Export Plug-In . SVG Version: 6.00 Build 0)  -->
<svg version="1.1" id="Layer_1" xmlns="http://www.w3.org/2000/svg" xmlns:xlink="http://www.w3.org/1999/xlink" x="0px" y="0px"
	 viewBox="0 0 50 50" style="enable-background:new 0 0 50 50;" xml:space="preserve">
<g id="e41cd810-e10a-4617-83d0-da254f662d59">
	<path style="fill:#1D9CD3;" d="M45.034,6.019H4.966c-0.276,0-0.5,0.224-0.5,0.5V37.1c0,0.276,0.224,0.5,0.5,0.5h5.991
		c0.276,0,0.5-0.224,0.5-0.5s-0.224-0.5-0.5-0.5H5.466V12.722h39.068V36.6H39c-0.276,0-0.5,0.224-0.5,0.5s0.224,0.5,0.5,0.5h6.03
		c0.276,0,0.5-0.224,0.5-0.5V6.519C45.53,6.244,45.309,6.021,45.034,6.019z M5.466,7.019h39.068v4.7H5.466L5.466,7.019z"/>
	<path style="fill:#1D9CD3;" d="M10.69,8.87H7.828c-0.276,0-0.5,0.224-0.5,0.5s0.224,0.5,0.5,0.5h2.862c0.276,0,0.5-0.224,0.5-0.5
		S10.966,8.87,10.69,8.87z"/>
	<path style="fill:#1D9CD3;" d="M16.414,8.87h-2.862c-0.276,0-0.5,0.224-0.5,0.5s0.224,0.5,0.5,0.5h2.862c0.276,0,0.5-0.224,0.5-0.5
		S16.69,8.87,16.414,8.87z"/>
	<path style="fill:#1D9CD3;" d="M22.138,8.87h-2.862c-0.276,0-0.5,0.224-0.5,0.5s0.224,0.5,0.5,0.5h2.862c0.276,0,0.5-0.224,0.5-0.5
		S22.414,8.87,22.138,8.87z"/>
	<circle style="fill:#1D9CD3;" cx="42.172" cy="9.37" r="1"/>
	<path style="fill:#1D9CD3;" d="M25,18c-7.168,0-12.979,5.811-12.979,12.979S17.832,43.958,25,43.958
		c7.167,0,12.978-5.81,12.979-12.977C37.972,23.816,32.165,18.008,25,18z M25,43c-6.64,0.001-12.022-5.381-12.023-12.021
		s5.381-12.022,12.021-12.023c6.64-0.001,12.022,5.381,12.023,12.021c0,0.001,0,0.003,0,0.004C37.012,37.616,31.635,42.992,25,43z"
		/>
	<path style="fill:#1D9CD3;" d="M30.34,28.147H29.5v-2.166c0-2.485-2.015-4.5-4.5-4.5s-4.5,2.015-4.5,4.5v2.166h-0.84
		c-0.276,0-0.5,0.224-0.5,0.5v9.334c0,0.276,0.224,0.5,0.5,0.5h10.68c0.276,0,0.5-0.224,0.5-0.5v-9.334
		C30.84,28.371,30.616,28.147,30.34,28.147z M21.5,25.981c0-1.933,1.567-3.5,3.5-3.5s3.5,1.567,3.5,3.5l0,0v2.166h-7V25.981z
		 M29.839,37.481H20.16v-8.334h9.68L29.839,37.481z"/>
</g>
</svg>
