<svg xmlns="http://www.w3.org/2000/svg" viewBox="0 0 50 50"><g id="e991671b-767d-46c3-b22d-43891d34f98c" data-name="Isolation Mode"><path d="M36.49,22.2a3.491,3.491,0,0,0-.84-2.708c-.787-.725-1.922-.63-3.238-.518-.32.026-.655.055-1,.072q-.585.028-1.164.051l-3.1-2.383a3.264,3.264,0,0,0-4.038-.059L19.764,19.1q-.586-.023-1.176-.051c-.345-.017-.68-.046-1-.072-1.317-.111-2.451-.207-3.238.518a3.491,3.491,0,0,0-.84,2.708c0,3.482.469,9.161.475,9.161-.012.185-.245,4.582,4.853,8.3,4.2,3.066,5.843,4.214,5.859,4.226a.5.5,0,0,0,.569,0c.016-.011,1.694-1.161,5.9-4.228,5.1-3.722,4.865-8.119,4.852-8.229C36.019,31.379,36.49,25.688,36.49,22.2ZM30.572,38.858c-3.221,2.352-4.953,3.572-5.587,4.014-.628-.445-2.339-1.664-5.557-4.014-4.63-3.38-4.454-7.268-4.446-7.5,0-.057-.472-5.708-.472-9.153a2.7,2.7,0,0,1,.516-1.972A1.8,1.8,0,0,1,16.27,19.9c.364,0,.78.036,1.234.074.331.028.678.057,1.035.075q.682.033,1.36.058a.466.466,0,0,0,.314-.1L23.7,17.464a2.242,2.242,0,0,1,2.839.044l3.2,2.459a.484.484,0,0,0,.363.137q.677-.026,1.36-.058c.357-.018.7-.047,1.035-.075,1.124-.1,2.013-.169,2.478.258A2.7,2.7,0,0,1,35.49,22.2c0,3.445-.468,9.1-.473,9.226C35.026,31.59,35.2,35.478,30.572,38.858Z"/><path d="M28.9,25.307a.494.494,0,0,0-.691.141l-4.323,6.54-2.113-2.8a.5.5,0,1,0-.8.6l2.538,3.367a.5.5,0,0,0,.4.2h.016a.5.5,0,0,0,.4-.224L29.041,26A.5.5,0,0,0,28.9,25.307Z"/><path d="M25,21.866a7.423,7.423,0,1,0,7.423,7.423A7.431,7.431,0,0,0,25,21.866Zm0,13.846a6.423,6.423,0,1,1,6.423-6.423A6.43,6.43,0,0,1,25,35.712Z"/><path d="M45.034,6.019H4.966a.5.5,0,0,0-.5.5V37.1a.5.5,0,0,0,.5.5h8.3a.5.5,0,0,0,0-1h-7.8V12.722H44.534V36.6H36.721a.5.5,0,0,0,0,1h8.313a.5.5,0,0,0,.5-.5V6.519A.5.5,0,0,0,45.034,6.019Zm-39.568,1H44.534v4.7H5.466Z"/><path d="M10.69,8.87H7.828a.5.5,0,0,0,0,1H10.69a.5.5,0,0,0,0-1Z"/><path d="M16.414,8.87H13.552a.5.5,0,0,0,0,1h2.862a.5.5,0,0,0,0-1Z"/><path d="M22.138,8.87H19.276a.5.5,0,0,0,0,1h2.862a.5.5,0,0,0,0-1Z"/><circle cx="42.172" cy="9.37" r="1"/></g></svg>