<?xml version="1.0" encoding="utf-8"?>
<!-- Generator: Adobe Illustrator 25.2.3, SVG Export Plug-In . SVG Version: 6.00 Build 0)  -->
<svg version="1.1" id="b00dcd00-4ee2-4d62-a3ed-0d97daf3d2be"
	 xmlns="http://www.w3.org/2000/svg" xmlns:xlink="http://www.w3.org/1999/xlink" x="0px" y="0px" viewBox="0 0 50 50"
	 style="enable-background:new 0 0 50 50;" xml:space="preserve">
<path style="fill:#1D9CD3;" d="M35.416,14.639L35.416,14.639c-0.118,0.04-0.217,0.122-0.278,0.231l-13.2,19.976l-6.905-9.162
	c-0.166-0.221-0.479-0.266-0.7-0.1s-0.266,0.479-0.1,0.7l7.33,9.727c0.094,0.126,0.243,0.2,0.4,0.2h0.016
	c0.162-0.006,0.311-0.089,0.4-0.224l13.617-20.6c0.152-0.23,0.089-0.541-0.142-0.693c-0.128-0.085-0.288-0.106-0.433-0.057
	L35.416,14.639z"/>
<path style="fill:#1D9CD3;" d="M25.1,4.9c-11.322,0-20.5,9.178-20.5,20.5s9.178,20.5,20.5,20.5s20.5-9.178,20.5-20.5l0,0
	C45.587,14.083,36.417,4.913,25.1,4.9z M25.1,44.9c-10.77,0-19.5-8.73-19.5-19.5S14.33,5.9,25.1,5.9s19.5,8.73,19.5,19.5
	C44.587,36.164,35.864,44.887,25.1,44.9z"/>
</svg>
