<?xml version="1.0" encoding="utf-8"?>
<!-- Generator: Adobe Illustrator 25.2.3, SVG Export Plug-In . SVG Version: 6.00 Build 0)  -->
<svg version="1.1" id="Layer_1" xmlns="http://www.w3.org/2000/svg" xmlns:xlink="http://www.w3.org/1999/xlink" x="0px" y="0px"
	 viewBox="0 0 50 50" style="enable-background:new 0 0 50 50;" xml:space="preserve">
<g id="a7bea34b-8f3d-4f13-a33f-787d4e35c30c">
	<path style="fill:#1D9CD3;" d="M8.738,18.606c0.453,0.133,0.923,0.2,1.395,0.2c0.656-0.002,1.305-0.137,1.908-0.395l8.077,14.769
		c-2.235,1.547-2.792,4.613-1.245,6.847c1.547,2.235,4.613,2.792,6.847,1.245c2.073-1.435,2.726-4.204,1.513-6.414
		c-0.294-0.516-0.681-0.975-1.14-1.352l11.4-16.426c2.384,1.321,5.387,0.46,6.709-1.924s0.46-5.387-1.924-6.709
		c-2.384-1.321-5.387-0.46-6.709,1.924c-0.355,0.64-0.563,1.351-0.609,2.082l-19.95,0.734c-0.078-0.592-0.266-1.164-0.552-1.688
		c-1.309-2.392-4.309-3.271-6.701-1.962s-3.271,4.309-1.962,6.701C6.424,17.386,7.482,18.238,8.738,18.606z M24.791,40.682
		c-1.906,1.039-4.294,0.335-5.333-1.571c-1.039-1.906-0.335-4.294,1.571-5.333c1.902-1.036,4.284-0.339,5.326,1.56
		c1.049,1.888,0.37,4.269-1.518,5.318C24.822,40.665,24.807,40.674,24.791,40.682z M25.291,32.91
		c-0.03-0.017-0.063-0.029-0.093-0.045c-0.087-0.045-0.174-0.084-0.262-0.124c-0.113-0.052-0.227-0.1-0.342-0.144
		c-0.092-0.034-0.183-0.062-0.276-0.09c-0.116-0.036-0.233-0.068-0.351-0.094c-0.095-0.021-0.189-0.039-0.284-0.055
		c-0.119-0.019-0.238-0.033-0.358-0.044c-0.1-0.008-0.191-0.015-0.287-0.018c-0.046,0-0.092-0.009-0.139-0.009
		s-0.085,0.012-0.127,0.013c-0.244,0.006-0.486,0.03-0.726,0.073c-0.053,0.009-0.105,0.013-0.157,0.024
		c-0.285,0.061-0.564,0.147-0.833,0.258c-0.023,0.01-0.048,0.012-0.071,0.022l-8.063-14.739c0.031-0.022,0.058-0.047,0.089-0.069
		c0.061-0.044,0.119-0.091,0.177-0.137c0.11-0.087,0.215-0.177,0.316-0.271c0.056-0.053,0.111-0.1,0.164-0.159
		c0.1-0.1,0.193-0.211,0.283-0.321c0.042-0.052,0.086-0.1,0.126-0.154c0.123-0.163,0.236-0.333,0.338-0.51V16.31
		c0.102-0.18,0.191-0.367,0.268-0.559c0.025-0.06,0.044-0.122,0.067-0.183c0.049-0.136,0.094-0.272,0.132-0.413
		c0.019-0.072,0.036-0.146,0.052-0.22c0.03-0.136,0.053-0.273,0.071-0.412c0.01-0.075,0.021-0.149,0.027-0.224
		c0-0.038,0.011-0.075,0.014-0.112l19.936-0.734c0,0.009,0.005,0.018,0.006,0.028c0.038,0.258,0.097,0.512,0.175,0.76
		c0.018,0.057,0.038,0.113,0.058,0.17c0.193,0.583,0.505,1.12,0.916,1.576c0.069,0.08,0.147,0.151,0.221,0.226
		c0.1,0.1,0.191,0.214,0.3,0.308L25.291,32.91z M37.991,9.318c1.91-1.051,4.31-0.354,5.361,1.556s0.354,4.31-1.556,5.361
		c-1.91,1.051-4.31,0.354-5.361-1.556c-0.298-0.541-0.464-1.144-0.486-1.761c-0.064-1.49,0.725-2.887,2.035-3.6L37.991,9.318z
		 M6.348,12.76c0.614-2.085,2.801-3.278,4.886-2.664s3.278,2.801,2.664,4.886c-0.614,2.085-2.801,3.278-4.886,2.664
		c-0.999-0.294-1.841-0.972-2.341-1.886C6.166,14.844,6.049,13.763,6.348,12.76z"/>
</g>
</svg>
