<?xml version="1.0" encoding="utf-8"?>
<!-- Generator: Adobe Illustrator 25.2.3, SVG Export Plug-In . SVG Version: 6.00 Build 0)  -->
<svg version="1.1" id="bf304751-10b3-4e81-8f0e-7cfb1ddd95bb"
	 xmlns="http://www.w3.org/2000/svg" xmlns:xlink="http://www.w3.org/1999/xlink" x="0px" y="0px" viewBox="0 0 50 50"
	 style="enable-background:new 0 0 50 50;" xml:space="preserve">
<path style="fill:#FFFFFF;" d="M25,4.594c-11.322,0-20.5,9.178-20.5,20.5s9.178,20.5,20.5,20.5s20.5-9.178,20.5-20.5
	C45.487,13.777,36.317,4.607,25,4.594z M25,44.594C14.235,44.582,5.519,35.846,5.531,25.081C5.543,14.528,13.951,5.902,24.5,5.619
	v19.475c0,0.276,0.224,0.5,0.5,0.5h13c0.276,0,0.5-0.224,0.5-0.5s-0.224-0.5-0.5-0.5H25.5V5.619
	c10.761,0.288,19.25,9.245,18.962,20.006C44.18,36.174,35.553,44.582,25,44.594z"/>
</svg>
