<?xml version="1.0" encoding="utf-8"?>
<!-- Generator: Adobe Illustrator 25.2.3, SVG Export Plug-In . SVG Version: 6.00 Build 0)  -->
<svg version="1.1" id="Layer_1" xmlns="http://www.w3.org/2000/svg" xmlns:xlink="http://www.w3.org/1999/xlink" x="0px" y="0px"
	 viewBox="0 0 50 50" style="enable-background:new 0 0 50 50;" xml:space="preserve">
<g id="Layer_1_1_">
</g>
<g id="Icons">
</g>
<g id="Isolation_Mode">
	<g>
		<path style="fill:#1D9CD3;" d="M34.033,24.161c-0.342-0.499-0.879-0.816-1.472-0.871c-0.59-0.057-1.177,0.156-1.6,0.579
			c0,0,0,0-0.001,0L20.41,34.452c-1.301-0.602-2.754-0.695-4.136-0.256c-1.513,0.48-2.733,1.534-3.438,2.966
			c-1.326,2.695-0.353,6.003,2.217,7.53c0.902,0.536,1.903,0.81,2.92,0.81c0.513,0,1.029-0.069,1.537-0.21
			c1.53-0.423,2.789-1.428,3.545-2.829c0.871-1.611,0.932-3.516,0.18-5.166l2.745-2.75l1.917,1.939c0.377,0.38,0.88,0.59,1.414,0.59
			c0.001,0,0.001,0,0.002,0c0.535,0,1.039-0.209,1.417-0.59c0.77-0.771,0.784-2.02,0.042-2.806
			c-0.011-0.014-0.022-0.026-0.035-0.039l-1.924-1.939l1.423-1.428l1.927,1.942c0.383,0.373,0.888,0.563,1.424,0.565
			c0.536-0.009,1.037-0.227,1.41-0.614c0.753-0.782,0.756-2.008,0-2.798l-1.923-1.94l0.659-0.659
			C34.451,26.054,34.578,24.956,34.033,24.161z M33.026,26.063l-1.012,1.011c-0.194,0.194-0.195,0.51-0.002,0.706l2.268,2.288
			c0.378,0.395,0.376,1.012-0.004,1.407c-0.187,0.194-0.438,0.303-0.706,0.308c-0.242,0.01-0.519-0.096-0.703-0.276l-2.274-2.293
			c-0.094-0.095-0.222-0.148-0.354-0.148c-0.001,0-0.001,0-0.001,0c-0.133,0-0.261,0.053-0.354,0.147l-2.129,2.137
			c-0.194,0.195-0.194,0.51,0,0.705l2.243,2.261c0.01,0.012,0.021,0.023,0.03,0.034c0.392,0.395,0.39,1.037-0.005,1.432
			c-0.189,0.191-0.441,0.296-0.709,0.296h-0.001c-0.267,0-0.517-0.105-0.704-0.294l-2.271-2.296
			c-0.094-0.095-0.221-0.148-0.354-0.148h-0.001c-0.133,0-0.26,0.053-0.354,0.147l-3.354,3.36c-0.156,0.156-0.191,0.395-0.088,0.589
			c0.764,1.426,0.759,3.129-0.012,4.555c-0.626,1.16-1.667,1.991-2.931,2.34c-1.254,0.346-2.561,0.17-3.68-0.496
			c-2.089-1.242-2.911-4.036-1.832-6.229c0.584-1.186,1.594-2.058,2.844-2.455c0.475-0.151,0.96-0.226,1.442-0.226
			c0.776,0,1.546,0.194,2.25,0.577c0.194,0.106,0.436,0.071,0.594-0.086l10.806-10.838c0.212-0.212,0.507-0.316,0.801-0.291
			c0.301,0.028,0.563,0.184,0.739,0.44C33.477,25.118,33.398,25.692,33.026,26.063z"/>
		<path style="fill:#1D9CD3;" d="M18.604,37.263c-0.649-0.146-1.321-0.028-1.884,0.33c-0.563,0.358-0.954,0.915-1.099,1.566
			s-0.027,1.321,0.33,1.884c0.358,0.563,0.914,0.954,1.566,1.098c0.182,0.041,0.366,0.061,0.548,0.061
			c0.47,0,0.931-0.133,1.336-0.391c0.563-0.358,0.954-0.914,1.1-1.566c0.145-0.652,0.027-1.321-0.331-1.885
			S19.256,37.407,18.604,37.263z M19.524,40.028c-0.18,0.807-0.981,1.318-1.79,1.138c-0.391-0.087-0.725-0.321-0.939-0.659
			s-0.284-0.739-0.197-1.13l0,0c0.087-0.391,0.32-0.724,0.658-0.939c0.243-0.155,0.52-0.234,0.802-0.234
			c0.109,0,0.22,0.012,0.329,0.037c0.391,0.087,0.725,0.321,0.939,0.659S19.611,39.637,19.524,40.028z"/>
		<path style="fill:#1D9CD3;" d="M46.203,13.074c0.126-0.561,0.189-1.132,0.189-1.705c0-4.339-3.584-7.869-7.988-7.869
			c-3.138,0-6.001,1.842-7.282,4.634c-1.662-0.601-3.531-0.535-5.181,0.192C24.845,7.792,23.63,7.5,22.404,7.5
			c-3.138,0-6.001,1.842-7.282,4.634c-0.758-0.274-1.553-0.413-2.369-0.413c-3.645,0-6.638,2.797-6.886,6.328
			C3.452,18.298,1.56,20.32,1.56,22.761c0,2.613,2.156,4.739,4.808,4.739h5.924c-1.612,0.767-2.732,2.386-2.732,4.261
			c0,1.622,0.835,3.114,2.234,3.993c0.082,0.052,0.174,0.077,0.266,0.077c0.166,0,0.328-0.083,0.424-0.234
			c0.146-0.234,0.076-0.543-0.158-0.689c-1.105-0.694-1.766-1.871-1.766-3.146c0-2.052,1.701-3.729,3.792-3.739
			c0.275-0.001,0.498-0.225,0.498-0.5c0-3.199,2.647-5.801,5.902-5.801c0.847,0,1.666,0.174,2.437,0.517
			c0.125,0.056,0.27,0.057,0.395,0.005c0.127-0.053,0.227-0.155,0.275-0.284c0.931-2.442,3.218-4.133,5.821-4.404h0.001
			c0.001,0,0.002,0,0.002,0c0.239-0.025,0.477-0.055,0.72-0.055c3.357,0,6.244,2.353,6.863,5.594l0,0l0,0
			c0.083,0.433,0.125,0.862,0.125,1.275c0,0.602-0.081,1.203-0.24,1.788c-0.058,0.21,0.028,0.433,0.211,0.551
			c1.376,0.892,2.197,2.388,2.197,4.001c0,2.642-2.188,4.791-4.877,4.791h-1.623c-0.276,0-0.5,0.224-0.5,0.5s0.224,0.5,0.5,0.5
			h1.623c3.24,0,5.877-2.598,5.877-5.791c0-1.835-0.875-3.542-2.357-4.635c0.126-0.561,0.189-1.132,0.189-1.705
			c0-0.285-0.023-0.576-0.057-0.869h4.348c3.24,0,5.877-2.598,5.877-5.791C48.561,15.874,47.686,14.167,46.203,13.074z
			 M23.122,21.134c-0.758-0.274-1.553-0.413-2.369-0.413c-3.453,0-6.317,2.512-6.82,5.779H6.368c-2.1,0-3.808-1.677-3.808-3.739
			c0-2.052,1.701-3.729,3.792-3.739c0.275-0.001,0.498-0.225,0.498-0.5c0-3.199,2.647-5.801,5.902-5.801
			c0.847,0,1.666,0.174,2.437,0.517c0.125,0.056,0.27,0.057,0.395,0.005c0.127-0.053,0.227-0.155,0.275-0.284
			c1.017-2.667,3.647-4.459,6.545-4.459c1.147,0,2.288,0.281,3.297,0.813c2.277,1.2,3.691,3.521,3.691,6.056
			c0,0.394-0.052,0.798-0.131,1.214C26.586,16.969,24.246,18.686,23.122,21.134z M42.684,22.5h-4.53c-0.865-3.499-4.055-6-7.749-6
			c-0.038,0-0.076,0.008-0.114,0.008c0.061-0.386,0.102-0.765,0.102-1.139c0-2.558-1.255-4.922-3.331-6.39
			c1.364-0.403,2.83-0.319,4.128,0.259c0.125,0.056,0.27,0.058,0.395,0.005c0.127-0.053,0.227-0.155,0.275-0.284
			C32.876,6.292,35.507,4.5,38.404,4.5c3.854,0,6.988,3.082,6.988,6.869c0,0.602-0.081,1.203-0.24,1.788
			c-0.058,0.21,0.028,0.433,0.211,0.551c1.376,0.892,2.197,2.388,2.197,4.001C47.561,20.351,45.373,22.5,42.684,22.5z"/>
	</g>
</g>
</svg>
