<svg xmlns="http://www.w3.org/2000/svg" viewBox="0 0 50 50"><g id="b51cb4f5-fb0f-4f79-90c5-ad8e0f9d1889" data-name="Isolation Mode"><path d="M46.142,14.043a7.767,7.767,0,0,0,.19-1.7A7.938,7.938,0,0,0,38.344,4.47,8.037,8.037,0,0,0,31.062,9.1,6.984,6.984,0,0,0,25.88,9.3,8.023,8.023,0,0,0,15.062,13.1a6.923,6.923,0,0,0-9.256,5.914,4.736,4.736,0,0,0,.5,9.452H12.23a4.72,4.72,0,0,0,2.078,9h2.51a.5.5,0,0,0,0-1h-2.51a3.74,3.74,0,1,1-.016-7.479.5.5,0,0,0,.5-.5,5.859,5.859,0,0,1,5.9-5.8,5.938,5.938,0,0,1,2.436.518.506.506,0,0,0,.395.005.5.5,0,0,0,.276-.284,7,7,0,0,1,5.821-4.4h0a6.829,6.829,0,0,1,7.708,6.814,6.763,6.763,0,0,1-.241,1.787.5.5,0,0,0,.211.552,4.761,4.761,0,0,1,2.2,4,4.841,4.841,0,0,1-4.877,4.791H33.182a.5.5,0,0,0,0,1h1.441A5.841,5.841,0,0,0,40.5,31.679a5.75,5.75,0,0,0-2.358-4.636,7.63,7.63,0,0,0,.139-2.573h4.342A5.841,5.841,0,0,0,48.5,18.679,5.75,5.75,0,0,0,46.142,14.043ZM23.062,22.1a6.927,6.927,0,0,0-9.19,5.366H6.308a3.74,3.74,0,1,1-.016-7.479.5.5,0,0,0,.5-.5,5.859,5.859,0,0,1,5.9-5.8,5.938,5.938,0,0,1,2.436.518.5.5,0,0,0,.671-.279A7.019,7.019,0,0,1,22.344,9.47a7.1,7.1,0,0,1,3.3.813h0a6.85,6.85,0,0,1,3.69,6.056,6.49,6.49,0,0,1-.132,1.214A8.027,8.027,0,0,0,23.062,22.1ZM42.623,23.47H38.1a7.972,7.972,0,0,0-7.751-6c-.039,0-.076.007-.114.008a7.335,7.335,0,0,0,.1-1.139A7.816,7.816,0,0,0,27,9.949a5.971,5.971,0,0,1,4.129.259.5.5,0,0,0,.671-.279A7.019,7.019,0,0,1,38.344,5.47a6.937,6.937,0,0,1,6.988,6.869,6.763,6.763,0,0,1-.241,1.787.5.5,0,0,0,.211.552,4.761,4.761,0,0,1,2.2,4A4.841,4.841,0,0,1,42.623,23.47Z"/><path d="M31,33.528H29.994V30.887a5,5,0,1,0-9.988,0v2.641H19a.5.5,0,0,0-.5.5v11a.5.5,0,0,0,.5.5H31a.5.5,0,0,0,.5-.5v-11A.5.5,0,0,0,31,33.528Zm-9.994-2.641a4,4,0,1,1,7.988,0v2.641H21.006ZM30.5,44.53h-11v-10h11Z"/></g></svg>