<?xml version="1.0" encoding="utf-8"?>
<!-- Generator: Adobe Illustrator 25.2.3, SVG Export Plug-In . SVG Version: 6.00 Build 0)  -->
<svg version="1.1" id="Layer_1" xmlns="http://www.w3.org/2000/svg" xmlns:xlink="http://www.w3.org/1999/xlink" x="0px" y="0px"
	 viewBox="0 0 50 50" style="enable-background:new 0 0 50 50;" xml:space="preserve">
<g id="b51cb4f5-fb0f-4f79-90c5-ad8e0f9d1889">
	<path style="fill:#1D9CD3;" d="M46.142,14.043c0.126-0.558,0.189-1.128,0.19-1.7c-0.036-4.378-3.61-7.901-7.988-7.873
		c-3.12-0.001-5.959,1.804-7.282,4.63c-1.689-0.601-3.544-0.529-5.182,0.2c-3.974-1.96-8.784-0.327-10.744,3.647
		c-0.025,0.051-0.05,0.102-0.074,0.153c-3.595-1.303-7.565,0.556-8.867,4.15c-0.206,0.568-0.337,1.161-0.389,1.764
		c-2.605,0.237-4.524,2.541-4.288,5.146c0.224,2.466,2.311,4.344,4.788,4.306h5.924c-2.364,1.098-3.391,3.905-2.293,6.269
		c0.787,1.696,2.502,2.767,4.371,2.731h2.51c0.276,0,0.5-0.224,0.5-0.5s-0.224-0.5-0.5-0.5h-2.51
		c-2.065,0.038-3.77-1.606-3.808-3.671c-0.038-2.065,1.606-3.77,3.671-3.808c0.04-0.001,0.081-0.001,0.121,0
		c0.276,0,0.5-0.224,0.5-0.5c0.032-3.229,2.671-5.823,5.9-5.8c0.839-0.001,1.67,0.175,2.436,0.518
		c0.126,0.055,0.268,0.057,0.395,0.005c0.127-0.053,0.227-0.155,0.276-0.284c0.962-2.442,3.209-4.141,5.821-4.4l0,0
		c3.74-0.486,7.166,2.153,7.651,5.893c0.04,0.305,0.059,0.613,0.057,0.921c0,0.604-0.081,1.205-0.241,1.787
		c-0.058,0.21,0.028,0.434,0.211,0.552c1.366,0.872,2.195,2.379,2.2,4c-0.027,2.668-2.209,4.811-4.877,4.791h-1.439
		c-0.276,0-0.5,0.224-0.5,0.5s0.224,0.5,0.5,0.5h1.441c3.22,0.02,5.849-2.571,5.877-5.791c-0.002-1.833-0.878-3.555-2.358-4.636
		c0.192-0.844,0.239-1.714,0.139-2.573h4.342c3.22,0.02,5.849-2.571,5.877-5.791C48.498,16.846,47.622,15.124,46.142,14.043z
		 M23.062,22.1c-3.597-1.303-7.569,0.557-8.872,4.154c-0.142,0.393-0.249,0.799-0.318,1.212H6.308
		c-2.065,0.038-3.77-1.606-3.808-3.671c-0.038-2.065,1.606-3.77,3.671-3.808c0.04-0.001,0.081-0.001,0.121,0
		c0.276,0,0.5-0.224,0.5-0.5c0.032-3.229,2.671-5.823,5.9-5.8c0.839-0.001,1.67,0.175,2.436,0.518
		c0.252,0.112,0.548-0.001,0.66-0.253c0.004-0.009,0.007-0.017,0.011-0.026c1.056-2.692,3.654-4.46,6.545-4.456
		c1.15,0,2.282,0.279,3.3,0.813l0,0c2.261,1.175,3.682,3.508,3.69,6.056c-0.006,0.408-0.05,0.814-0.132,1.214
		C26.519,17.935,24.21,19.645,23.062,22.1z M42.623,23.47H38.1c-0.904-3.54-4.098-6.012-7.751-6c-0.039,0-0.076,0.007-0.114,0.008
		c0.063-0.376,0.096-0.757,0.1-1.139c-0.005-2.546-1.249-4.93-3.335-6.39c1.363-0.408,2.828-0.317,4.129,0.259
		c0.252,0.112,0.548-0.001,0.66-0.253c0.004-0.009,0.007-0.017,0.011-0.026c1.055-2.692,3.652-4.463,6.544-4.459
		c3.825-0.028,6.951,3.044,6.988,6.869c0,0.604-0.081,1.205-0.241,1.787c-0.058,0.21,0.028,0.434,0.211,0.552
		c1.366,0.872,2.195,2.379,2.2,4C47.475,21.347,45.292,23.491,42.623,23.47z"/>
	<path style="fill:#1D9CD3;" d="M31,33.528h-1.006v-2.641c0.135-2.758-1.991-5.104-4.749-5.239s-5.104,1.991-5.239,4.749
		c-0.008,0.163-0.008,0.327,0,0.49v2.641H19c-0.276,0-0.5,0.224-0.5,0.5v11c0,0.276,0.224,0.5,0.5,0.5h12c0.276,0,0.5-0.224,0.5-0.5
		v-11C31.5,33.752,31.276,33.528,31,33.528z M21.006,30.887c-0.121-2.206,1.569-4.092,3.775-4.213
		c2.206-0.121,4.092,1.569,4.213,3.775c0.008,0.146,0.008,0.292,0,0.438v2.641h-7.988V30.887z M30.5,44.53h-11v-10h11V44.53z"/>
</g>
</svg>
