<svg xmlns="http://www.w3.org/2000/svg" viewBox="0 0 50 50"><g id="f82ed7f6-b957-46cf-96ff-2f0694d35dc1" data-name="Isolation Mode"><path d="M26.628,16.854c-1.744,0-2.525,1.754-2.525,3.492s.781,3.5,2.525,3.5,2.517-1.758,2.517-3.5S28.366,16.854,26.628,16.854Zm0,6.013c-1.105,0-1.5-1.3-1.5-2.521s.392-2.511,1.5-2.511,1.488,1.3,1.488,2.511S27.726,22.867,26.628,22.867Z"/><polygon points="31.46 23.737 31.46 16.946 30.678 16.946 29.171 18.561 29.863 19.286 30.46 18.631 30.46 23.737 31.46 23.737"/><path d="M34.673,16.854c-1.744,0-2.526,1.754-2.526,3.492s.782,3.5,2.526,3.5,2.515-1.758,2.515-3.5S36.41,16.854,34.673,16.854Zm0,6.013c-1.105,0-1.5-1.3-1.5-2.521s.393-2.511,1.5-2.511,1.488,1.3,1.488,2.511S35.771,22.867,34.673,22.867Z"/><polygon points="39.505 23.737 39.505 16.946 38.724 16.946 37.215 18.561 37.907 19.286 38.505 18.63 38.505 23.737 39.505 23.737"/><polygon points="42.031 23.737 42.031 16.946 41.25 16.946 39.741 18.561 40.435 19.286 41.031 18.63 41.031 23.737 42.031 23.737"/><polygon points="28.469 31.395 28.469 24.604 27.687 24.604 26.179 26.219 26.871 26.944 27.468 26.288 27.468 31.395 28.469 31.395"/><path d="M31.681,31.5c1.738,0,2.516-1.758,2.516-3.5s-.778-3.492-2.516-3.492S29.155,26.266,29.155,28,29.937,31.5,31.681,31.5Zm0-6.011c1.1,0,1.488,1.3,1.488,2.511s-.391,2.52-1.488,2.52-1.5-1.3-1.5-2.52S30.576,25.493,31.681,25.493Z"/><polygon points="36.514 31.395 36.514 24.604 35.73 24.604 34.224 26.219 34.916 26.944 35.514 26.288 35.514 31.395 36.514 31.395"/><path d="M39.726,31.5c1.738,0,2.516-1.758,2.516-3.5s-.778-3.492-2.516-3.492S37.2,26.266,37.2,28,37.981,31.5,39.726,31.5Zm0-6.011c1.1,0,1.488,1.3,1.488,2.511s-.391,2.52-1.488,2.52-1.5-1.3-1.5-2.52S38.621,25.493,39.726,25.493Z"/><path d="M21.9,31.587l.293-.252a31.181,31.181,0,0,0,2.32-2.252.928.928,0,0,0-.06-1.318L17.36,21.352a.945.945,0,0,0-.676-.238.914.914,0,0,0-.641.311,30.962,30.962,0,0,0-2.026,2.557c-2.224,3.143-3.449,6.254-3.353,8.431l-1.856,1.3a.455.455,0,0,0-.084.074L3.6,39.456a2.844,2.844,0,0,0,4.218,3.815L12.942,37.6a.489.489,0,0,0,.072-.1l1.027-1.956C16.171,35.458,19.006,34.041,21.9,31.587ZM14.833,24.56a29.877,29.877,0,0,1,1.91-2.417l6.984,6.315a29.9,29.9,0,0,1-2.194,2.124l-.281.242c-2.726,2.313-5.444,3.689-7.33,3.729l-2.26-2.1C11.533,30.5,12.7,27.572,14.833,24.56ZM12.158,36.979,7.074,42.6A1.843,1.843,0,0,1,4.34,40.127L9.428,34.5l1.695-1.188,1.988,1.852Z"/><path d="M46.634,5.8H6.566a.5.5,0,0,0-.5.5V33.179a.5.5,0,0,0,1,0V12.5H46.134V36.374H16.056a.5.5,0,0,0,0,1H46.634a.5.5,0,0,0,.5-.5V6.3A.5.5,0,0,0,46.634,5.8ZM7.066,6.8H46.134v4.7H7.066Z"/><path d="M12.29,8.647H9.428a.5.5,0,0,0,0,1H12.29a.5.5,0,0,0,0-1Z"/><path d="M18.014,8.647H15.152a.5.5,0,0,0,0,1h2.862a.5.5,0,0,0,0-1Z"/><path d="M23.738,8.647H20.876a.5.5,0,0,0,0,1h2.862a.5.5,0,0,0,0-1Z"/><circle cx="43.772" cy="9.147" r="1"/></g></svg>