<svg id="Layer_1" data-name="Layer 1" xmlns="http://www.w3.org/2000/svg" viewBox="0 0 128 128"><path d="M74.22,93.51,93.91,73.66a12.89,12.89,0,1,0,9.53-22.74v-12a12.95,12.95,0,1,0-3-.06V51a12.85,12.85,0,0,0-6.59,2.91L74.17,34.06a12.89,12.89,0,1,0-22.92-9.48H38.76a12.9,12.9,0,1,0,0,3H51.25A12.89,12.89,0,0,0,53.87,34L34.18,53.82a12.9,12.9,0,1,0-.22,20l9.42,9.5L34.84,92s0,.06-.05.08a12.8,12.8,0,1,0,1.9,2.23,1.79,1.79,0,0,0,.28-.2l8.52-8.59,8.21,8.28a12.89,12.89,0,1,0,23.07,9.75H89.44a12.89,12.89,0,1,0-.14-3H76.91A12.85,12.85,0,0,0,74.22,93.51ZM26,111.32a9.9,9.9,0,1,1,9.9-9.9A9.92,9.92,0,0,1,26,111.32ZM92.25,26.08a9.9,9.9,0,1,1,9.9,9.9A9.91,9.91,0,0,1,92.25,26.08Zm9.9,27.77a9.9,9.9,0,1,1-9.9,9.9A9.91,9.91,0,0,1,102.15,53.85ZM64.06,16.18a9.9,9.9,0,1,1-9.9,9.9A9.91,9.91,0,0,1,64.06,16.18ZM26,36a9.9,9.9,0,1,1,9.9-9.9A9.91,9.91,0,0,1,26,36Zm-9.9,27.77a9.9,9.9,0,1,1,9.9,9.9A9.91,9.91,0,0,1,16.06,63.75Zm20,8A12.79,12.79,0,0,0,36.24,56L56,36.12a12.84,12.84,0,0,0,16.08.06L91.8,56.09a12.77,12.77,0,0,0-2.48,6.4H76.89a12.9,12.9,0,1,0-22.51,9.77l-8.89,9Zm18.09-8a9.9,9.9,0,1,1,9.9,9.9A9.91,9.91,0,0,1,54.16,63.75Zm2.46,10.52a12.86,12.86,0,0,0,20.2-8.78H89.39a12.8,12.8,0,0,0,2.46,6L72.12,91.37a12.85,12.85,0,0,0-16.37.19l-8.14-8.21Zm7.44,37.05a9.9,9.9,0,1,1,9.89-9.9A9.92,9.92,0,0,1,64.06,111.32Zm38.09-19.8a9.9,9.9,0,1,1-9.9,9.9A9.91,9.91,0,0,1,102.15,91.52Z"/></svg>