<?xml version="1.0" encoding="utf-8"?>
<!-- Generator: Adobe Illustrator 25.2.3, SVG Export Plug-In . SVG Version: 6.00 Build 0)  -->
<svg version="1.1" id="Layer_1" xmlns="http://www.w3.org/2000/svg" xmlns:xlink="http://www.w3.org/1999/xlink" x="0px" y="0px"
	 viewBox="0 0 50 50" style="enable-background:new 0 0 50 50;" xml:space="preserve">
<g id="f98c7138-40da-4235-bf4c-fc59dfbc3181">
	<path style="fill:#1D9CD3;" d="M5.526,40.255L14.4,44.7c0.155,0.078,0.339,0.07,0.487-0.021l10.087-6.218l10.088,6.218
		c0.145,0.089,0.325,0.099,0.479,0.025l8.929-4.287c0.174-0.084,0.284-0.261,0.283-0.454l-0.058-10.521
		c-0.001-0.172-0.091-0.331-0.237-0.422L34.33,22.777l-0.008-5.506l0.021-5.6c0.001-0.168-0.083-0.325-0.223-0.418l-8.872-5.919
		c-0.168-0.112-0.387-0.112-0.555,0l-8.871,5.923c-0.139,0.093-0.222,0.249-0.222,0.416v11.112L5.487,29.017
		C5.34,29.108,5.25,29.269,5.25,29.442v10.366C5.25,39.997,5.357,40.17,5.526,40.255z M34.343,32.4l-0.012-8.45l9.363,5.77
		l0.054,9.926l-8.4,4.032l-9.428-5.81l8.18-5.038C34.251,32.739,34.343,32.576,34.343,32.4z M16.6,11.94l8.371-5.589l8.371,5.588
		l-0.02,5.331l0.007,4.89l-8.1-4.99c-0.161-0.098-0.364-0.098-0.525,0l-8.108,5L16.6,11.94z M16.6,23.34l8.371-5.159l8.359,5.151
		l0.013,8.79l-8.372,5.159L16.6,32.125V23.34z M6.25,29.722l9.35-5.763V32.4c0,0.174,0.089,0.335,0.237,0.426l8.182,5.041
		L14.6,43.678L6.25,39.5V29.722z"/>
</g>
</svg>
