<svg id="Icons" xmlns="http://www.w3.org/2000/svg" viewBox="0 0 128 128"><defs><style>.cls-1,.cls-2{fill:none;stroke:#1d9cd3;stroke-width:3px;}.cls-1{stroke-linecap:round;stroke-linejoin:round;}.cls-2{stroke-miterlimit:10;isolation:isolate;}</style></defs><title>connected-shapes-with-arrows-square_1D9CD3</title><path class="cls-1" d="M125,51.8,112.8,64,100.6,51.8"/><path class="cls-1" d="M3,76.2,15.2,64,27.4,76.2"/><path class="cls-1" d="M112.09,72.13A48.79,48.79,0,0,1,15.2,64"/><path class="cls-1" d="M15.81,55.87A48.79,48.79,0,0,1,112.7,64"/><polygon class="cls-1" points="64.42 51.52 37.42 68.13 37.42 82.67 49.88 88.9 76.88 72.28 76.83 59.15 64.42 51.52"/><polygon class="cls-2" points="64.58 51.31 91.58 67.92 91.58 82.46 79.11 88.69 52.11 72.08 52.17 58.99 64.58 51.31"/><polygon class="cls-2" points="51.8 72.75 52.11 42.64 64.58 35.11 76.36 42.53 76.67 72.13 64.32 79.76 51.8 72.75"/></svg>