<?xml version="1.0" encoding="utf-8"?>
<!-- Generator: Adobe Illustrator 25.2.3, SVG Export Plug-In . SVG Version: 6.00 Build 0)  -->
<svg version="1.1" id="Layer_1" xmlns="http://www.w3.org/2000/svg" xmlns:xlink="http://www.w3.org/1999/xlink" x="0px" y="0px"
	 viewBox="0 0 50 50" style="enable-background:new 0 0 50 50;" xml:space="preserve">
<g id="b2ae2450-61a0-4173-98bd-6ca3f02ef7ab">
	<path style="fill:#1D9CD3;" d="M24.646,4.848L14.04,15.454c-0.195,0.195-0.195,0.512,0,0.707l5.66,5.657
		c0.195,0.195,0.512,0.195,0.707,0l3.182-3.182l7.778,7.778L28.182,29.6c-0.195,0.195-0.195,0.512,0,0.707l5.657,5.657
		c0.195,0.195,0.512,0.195,0.707,0l10.606-10.61c0.196-0.195,0.196-0.512,0.001-0.707c0,0-0.001-0.001-0.001-0.001l-19.8-19.8
		C25.156,4.652,24.841,4.653,24.646,4.848z M34.192,34.9l-4.949-4.95l3.182-3.182c0.195-0.195,0.195-0.512,0-0.707l-8.486-8.486
		c-0.195-0.195-0.512-0.195-0.707,0l-3.182,3.182l-4.95-4.949l9.9-9.9L44.092,25L34.192,34.9z"/>
	<path style="fill:#1D9CD3;" d="M24.646,45.152c0.195,0.196,0.512,0.196,0.707,0.001c0,0,0.001-0.001,0.001-0.001l7.8-7.8
		c0.195-0.195,0.195-0.512,0-0.707l-6.733-6.733l3.175-3.144c0.196-0.195,0.197-0.511,0.002-0.707
		c-0.001-0.001-0.001-0.001-0.002-0.002L23.939,20.4c-0.194-0.191-0.506-0.191-0.7,0l-3.179,3.154l-6.707-6.706
		c-0.198-0.188-0.509-0.188-0.707,0l-7.8,7.8C4.65,24.843,4.65,25.16,4.845,25.355c0,0,0.001,0.001,0.001,0.001L24.646,45.152z
		 M13,17.908l6.7,6.7c0.195,0.194,0.51,0.194,0.705,0l3.174-3.152l4.95,4.949l-3.176,3.144c-0.196,0.195-0.197,0.511-0.002,0.707
		c0.001,0.001,0.001,0.001,0.002,0.002L32.092,37L25,44.092L5.908,25L13,17.908z"/>
</g>
</svg>
