<svg id="Icons" xmlns="http://www.w3.org/2000/svg" viewBox="0 0 128 128"><defs><style>.cls-1,.cls-2{fill:none;stroke:#231f20;stroke-width:3px;}.cls-1{stroke-linecap:round;stroke-linejoin:round;}.cls-2{stroke-miterlimit:10;}</style></defs><path class="cls-1" d="M106.9,36a52.24,52.24,0,0,0-27.26-20"/><path class="cls-1" d="M105.86,97a51.93,51.93,0,0,0,10.41-31.26c0-.1,0-.21,0-.31"/><path class="cls-1" d="M47.36,115.15a52.13,52.13,0,0,0,33.52,0"/><path class="cls-1" d="M12,65.44v.32A52,52,0,0,0,22.37,97"/><circle class="cls-1" cx="64.12" cy="13.6" r="7.14"/><circle class="cls-1" cx="14.09" cy="49.89" r="7.14"/><circle class="cls-1" cx="114.14" cy="49.89" r="7.14"/><circle class="cls-1" cx="95.06" cy="108.41" r="7.14"/><circle class="cls-1" cx="33.18" cy="108.41" r="7.14"/><circle class="cls-2" cx="64.04" cy="52.07" r="9.75"/><path class="cls-2" d="M46.7,89.19,46.61,73.6A11.71,11.71,0,0,1,58.25,61.84l11.69-.06A11.7,11.7,0,0,1,81.7,73.42L81.78,89"/><circle class="cls-2" cx="64.11" cy="65.45" r="29.53"/><path class="cls-1" d="M48.59,16A52.27,52.27,0,0,0,21.33,36"/><path id="Path_60447" data-name="Path 60447" class="cls-1" d="M46.12,22.1l3.7-6.41L43.41,12"/><path id="Path_60447-2" data-name="Path 60447" class="cls-1" d="M104.07,90.24l.77,7.36,7.35-.76"/><path id="Path_60447-3" data-name="Path 60447" class="cls-1" d="M53.21,111.51,46.7,115l3.53,6.5"/><path id="Path_60447-4" data-name="Path 60447" class="cls-1" d="M17.17,70l-5-5.46-5.45,5"/><path id="Path_60447-5" data-name="Path 60447" class="cls-1" d="M99.86,34.87,107,36.79l1.92-7.15"/></svg>