<?xml version="1.0" encoding="utf-8"?>
<!-- Generator: Adobe Illustrator 25.2.3, SVG Export Plug-In . SVG Version: 6.00 Build 0)  -->
<svg version="1.1" id="Layer_1" xmlns="http://www.w3.org/2000/svg" xmlns:xlink="http://www.w3.org/1999/xlink" x="0px" y="0px"
	 viewBox="0 0 50 50" style="enable-background:new 0 0 50 50;" xml:space="preserve">
<g id="Layer_1_1_">
</g>
<g id="Icons">
</g>
<g id="Isolation_Mode">
	<path style="fill:#1D9CD3;" d="M9.506,36.407c0,4.538,6.806,8.093,15.494,8.093s15.494-3.555,15.494-8.093l0.001-5.476H40.5V30.2
		h-0.004l0.002-7.336H40.5v-0.731h-0.002l0.002-8.552h-0.007C40.481,9.048,33.681,5.5,25,5.5c-8.688,0-15.494,3.555-15.494,8.093
		c0,0.159,0.028,0.314,0.044,0.47H9.5L9.506,36.407z M25,43.5c-7.992,0-14.494-3.182-14.494-7.093l-0.001-4.717
		c2.184,3.069,7.767,5.205,14.495,5.205s12.311-2.136,14.495-5.205l-0.001,4.717C39.494,40.318,32.992,43.5,25,43.5z M10.504,28.802
		l-0.001-4.72C12.686,27.153,18.27,29.29,25,29.29s12.315-2.137,14.497-5.208l-0.001,4.72h-0.002c0,3.911-6.502,7.093-14.494,7.093
		s-14.494-3.182-14.494-7.093H10.504z M25,6.5c7.992,0,14.494,3.182,14.494,7.093S32.992,20.686,25,20.686
		s-14.494-3.182-14.494-7.093S17.008,6.5,25,6.5z M25,21.686c6.732,0,12.318-2.139,14.499-5.211l-0.001,4.723h-0.004
		c0,3.911-6.502,7.093-14.494,7.093s-14.494-3.182-14.494-7.093h-0.004l-0.001-4.723C12.682,19.547,18.268,21.686,25,21.686z"/>
</g>
</svg>
