<svg xmlns="http://www.w3.org/2000/svg" viewBox="0 0 50 50"><g id="aff0b280-9b60-4456-a82e-a017484ea6c2" data-name="Isolation Mode"><path d="M24.688,14.3a.5.5,0,0,0,.707,0L32.433,7.28V10.8a.5.5,0,1,0,1,0V6.075l0-.017a.5.5,0,0,0-.5-.483H28.2a.5.5,0,0,0,0,1h3.526l-6.682,6.666L15.925,4.146a.5.5,0,1,0-.706.708Z"/><path d="M25,16.5A8.5,8.5,0,1,0,33.5,25,8.51,8.51,0,0,0,25,16.5Zm0,16A7.5,7.5,0,1,1,32.5,25,7.508,7.508,0,0,1,25,32.5Z"/><path d="M34.542,20.057l9.578,2.688-3.074,1.719a.5.5,0,1,0,.489.873l4.129-2.311A.3.3,0,0,0,45.7,23a.336.336,0,0,0,.041-.034.464.464,0,0,0,.177-.434.465.465,0,0,0-.051-.158.2.2,0,0,0-.009-.026l-2.316-4.12a.5.5,0,1,0-.872.49l1.725,3.067-9.1-2.553L38.783,6.851a.5.5,0,1,0-.963-.272L34.2,19.44a.5.5,0,0,0,.347.617Z"/><path d="M47.38,26.975l-13,3.2a.5.5,0,0,0-.366.606L36.4,40.423,33.381,38.6a.5.5,0,0,0-.516.856L36.918,41.9c.009,0,.018,0,.027.008a.5.5,0,0,0,.231.064.493.493,0,0,0,.12-.015.478.478,0,0,0,.076-.035.456.456,0,0,0,.067-.032.489.489,0,0,0,.164-.159h0l2.446-4.043a.5.5,0,1,0-.855-.518l-1.824,3.014L35.1,31.03,47.62,27.945a.5.5,0,1,0-.24-.97Z"/><path d="M4.33,28.3l2.457,4.037a.5.5,0,1,0,.854-.519L5.812,28.814l9.181,2.24L11.93,43.545a.5.5,0,0,0,.367.6.493.493,0,0,0,.12.015.5.5,0,0,0,.485-.381l3.181-12.978a.5.5,0,0,0-.058-.378.5.5,0,0,0-.309-.227L6.051,27.843l3.012-1.824a.5.5,0,1,0-.517-.855L4.5,27.614a.5.5,0,0,0-.228.309.523.523,0,0,0-.007.2A.486.486,0,0,0,4.33,28.3Z"/><path d="M25.323,35.638a.5.5,0,0,0-.706,0l-7.086,6.974.024-3.518a.5.5,0,0,0-.5-.5h0a.5.5,0,0,0-.5.5l-.032,4.723h0c0,.007,0,.014,0,.021a.511.511,0,0,0,.032.168.479.479,0,0,0,.092.14.175.175,0,0,0,.016.025h0a.488.488,0,0,0,.164.11,29.8,29.8,0,0,0,.189.039l4.734.032h0a.5.5,0,0,0,0-1l-3.526-.024L24.962,36.7l9.055,9.156a.5.5,0,0,0,.711-.7Z"/><path d="M15.8,19.9a.5.5,0,0,0,.042-.381L13.059,9.99l3.092,1.7a.5.5,0,1,0,.48-.877L12.488,8.537a.486.486,0,0,0-.194-.062.506.506,0,0,0-.116.01.671.671,0,0,0-.076.007.564.564,0,0,0-.069.036.387.387,0,0,0-.219.191l-.01.012-2.28,4.14a.5.5,0,1,0,.876.482l1.7-3.085,2.64,9.053L2.361,22.914a.5.5,0,0,0,.139.98.477.477,0,0,0,.139-.02L15.5,20.142A.5.5,0,0,0,15.8,19.9Z"/></g></svg>