<svg id="Icons" xmlns="http://www.w3.org/2000/svg" viewBox="0 0 128 128"><defs><style>.cls-1,.cls-2{fill:none;stroke:#1d9cd3;stroke-linecap:round;stroke-linejoin:round;stroke-width:3px;}.cls-1{stroke-dasharray:8 6;}</style></defs><title>dns-contained-dotted-square_1D9CD3</title><rect class="cls-1" x="12.02" y="12.02" width="103.96" height="103.96" rx="22.14"/><path class="cls-2" d="M50,46.17a6.32,6.32,0,0,0,7.22-2.25"/><path class="cls-2" d="M54.72,34.42A6.34,6.34,0,0,0,47.33,36"/><path class="cls-2" d="M71.35,13.22a69.91,69.91,0,0,0-16.63,21.2,6.34,6.34,0,0,1,2.48,9.5A69.43,69.43,0,0,0,95.74,55.54a70,70,0,0,0,19-2.65"/><path class="cls-2" d="M41.78,54.35a6.18,6.18,0,0,0-.39,2.16,6.35,6.35,0,0,0,5.77,6.32"/><path class="cls-2" d="M53.47,59.23a6.32,6.32,0,0,0-4.56-8.95"/><path class="cls-2" d="M13.22,51.85a67,67,0,0,1,28.56,2.5,6.35,6.35,0,0,1,6-4.19,5.66,5.66,0,0,1,1.17.12c.32-1.39.67-2.76,1.07-4.11A6.33,6.33,0,0,1,47.33,36,69.91,69.91,0,0,1,31.55,13.22"/><path class="cls-2" d="M69,79a6.35,6.35,0,0,0,6.18,4.9,6.28,6.28,0,0,0,3.62-1.14"/><path class="cls-2" d="M81.5,76.82A6.34,6.34,0,0,0,71,72.71"/><path class="cls-2" d="M114.78,84.64A59,59,0,0,0,85.16,76.7c-1.23,0-2.45,0-3.66.12,0,.23,0,.45,0,.68a6.32,6.32,0,0,1-2.73,5.21,67.35,67.35,0,0,1,10.44,32.07"/><path class="cls-2" d="M52.82,93.78a6.35,6.35,0,0,0,4-5.91,6.27,6.27,0,0,0-1-3.4"/><path class="cls-2" d="M48.86,81.75a6.34,6.34,0,0,0-3.28,10.12"/><path class="cls-2" d="M71,72.71A67.87,67.87,0,0,0,53.47,59.23a6.35,6.35,0,0,1-5.73,3.63,5.63,5.63,0,0,1-.58,0c0,1.09-.09,2.18-.09,3.29a69.48,69.48,0,0,0,1.79,15.63,6.27,6.27,0,0,1,7,2.72A58.92,58.92,0,0,1,69,79a6.31,6.31,0,0,1,2-6.24Z"/><path class="cls-2" d="M55.86,84.47a6.27,6.27,0,0,0-7-2.72"/><path class="cls-2" d="M66.85,114.78a69.7,69.7,0,0,1-14-21,6.33,6.33,0,0,1-7.24-1.91,59.49,59.49,0,0,0-15.76,22.91"/><path class="cls-2" d="M45.58,91.87a6.33,6.33,0,0,0,7.24,1.91"/></svg>