<?xml version="1.0" encoding="utf-8"?>
<!-- Generator: Adobe Illustrator 25.2.3, SVG Export Plug-In . SVG Version: 6.00 Build 0)  -->
<svg version="1.1" id="Layer_1" xmlns="http://www.w3.org/2000/svg" xmlns:xlink="http://www.w3.org/1999/xlink" x="0px" y="0px"
	 viewBox="0 0 50 50" style="enable-background:new 0 0 50 50;" xml:space="preserve">
<g id="e853b765-5957-40f0-8a87-a8465fa3d2d9">
	<path style="fill:#1D9CD3;" d="M11.428,45.245l0.014,0.009c0.02,0.005,0.04,0.009,0.061,0.01c0.661,0.155,1.338,0.234,2.017,0.236
		h22.96c4.979-0.006,9.014-4.041,9.02-9.02V13.52c-0.006-4.979-4.041-9.014-9.02-9.02H13.52c-0.416,0.004-0.832,0.038-1.244,0.1
		c-0.046,0-0.093,0.007-0.137,0.021C7.75,5.304,4.51,9.078,4.5,13.52v22.96C4.507,40.651,7.371,44.275,11.428,45.245z
		 M12.323,44.401c1.215-2.939,3.058-5.577,5.4-7.728c0.017,0.015,0.039,0.024,0.057,0.039c0.11,0.086,0.226,0.164,0.347,0.234
		c0.069,0.042,0.133,0.091,0.2,0.127c0.157,0.077,0.321,0.139,0.489,0.186c0.046,0.014,0.088,0.036,0.135,0.047
		c0.173,0.04,0.349,0.064,0.526,0.073c0.053,0,0.1,0.017,0.156,0.018c0.015,0,0.029,0,0.044,0c0.202-0.001,0.403-0.023,0.6-0.064
		c0.011,0,0.022,0,0.033,0c1.187,2.617,2.772,5.034,4.697,7.167H13.52C13.119,44.497,12.719,44.463,12.323,44.401L12.323,44.401z
		 M16.718,21.369c0.352-0.905,1.289-1.44,2.247-1.283c1.082,0.2,1.798,1.239,1.598,2.322c-0.032,0.173-0.086,0.34-0.162,0.498
		c-0.365,0.751-1.153,1.202-1.986,1.135l0,0c-1.097-0.094-1.909-1.06-1.815-2.157c0.015-0.176,0.054-0.349,0.115-0.515
		L16.718,21.369z M18.81,14.292L18.81,14.292c0.588-0.649,1.527-0.845,2.326-0.487l0,0c0.708,0.327,1.162,1.035,1.164,1.815
		c0,0.422-0.134,0.834-0.385,1.174l0,0c-0.652,0.892-1.903,1.087-2.795,0.435c-0.514-0.375-0.818-0.973-0.82-1.609
		C18.301,15.13,18.482,14.657,18.81,14.292z M44.5,32.292c-3.437-1.833-7.272-2.794-11.167-2.8c-0.349,0-0.693,0.02-1.038,0.036
		c-0.421-1.591-2.053-2.539-3.644-2.118c-0.293,0.078-0.573,0.2-0.829,0.362c-1.869-1.93-4.014-3.572-6.365-4.872
		c0.087-0.274,0.134-0.559,0.139-0.846c-0.001-1.244-0.77-2.357-1.932-2.8c0.056-0.224,0.114-0.446,0.175-0.668
		c0.153,0.026,0.308,0.039,0.463,0.04c0.791-0.008,1.546-0.329,2.1-0.893c4.502,2.899,9.744,4.438,15.098,4.434
		c2.362-0.006,4.714-0.311,7-0.907V32.292z M31.406,30.319c-0.008,1.105-0.909,1.994-2.014,1.986
		c-0.918-0.006-1.715-0.637-1.93-1.53l0,0c-0.175-0.723,0.072-1.483,0.638-1.965l0,0c0.834-0.725,2.097-0.636,2.822,0.197
		c0.267,0.307,0.434,0.688,0.478,1.093l0,0C31.4,30.176,31.406,30.247,31.406,30.319z M26.346,44.5
		c-2.113-2.209-3.833-4.763-5.087-7.551c1.252-0.76,1.762-2.32,1.2-3.673c1.338-0.727,2.745-1.317,4.2-1.763
		c0.65,1.515,2.404,2.216,3.919,1.566c0.027-0.012,0.054-0.024,0.081-0.036c2.121,3.476,3.4,7.399,3.735,11.457H26.346z M21,31.712
		c-0.041-0.02-0.08-0.042-0.122-0.06c-0.177-0.078-0.362-0.139-0.551-0.182h-0.016c-0.181-0.037-0.365-0.057-0.549-0.059
		c-0.026,0-0.05-0.008-0.075-0.008c-0.088,0-0.177,0-0.266,0.013c-0.389-1.835-0.586-3.705-0.587-5.581
		c0-0.266,0.006-0.53,0.015-0.793c0.877-0.078,1.675-0.535,2.188-1.25c2.23,1.244,4.266,2.806,6.043,4.639
		c-0.435,0.534-0.673,1.201-0.673,1.89c0,0.07,0,0.141,0.008,0.213c-1.555,0.473-3.057,1.103-4.483,1.882
		c-0.129-0.143-0.271-0.273-0.424-0.389c-0.04-0.031-0.082-0.058-0.123-0.086C21.263,31.855,21.134,31.778,21,31.712z
		 M19.166,32.473L19.166,32.473c0.845-0.238,1.746,0.113,2.207,0.86l0,0c0.58,0.94,0.288,2.172-0.652,2.752
		c-0.847,0.523-1.95,0.343-2.587-0.422l0,0c-0.695-0.859-0.561-2.118,0.297-2.813c0.216-0.175,0.466-0.303,0.735-0.375V32.473z
		 M36.48,44.5H35.4c-0.338-4.26-1.678-8.38-3.91-12.024c0.535-0.516,0.859-1.212,0.91-1.953c4.225-0.175,8.415,0.831,12.1,2.906
		v3.051C44.495,40.907,40.907,44.495,36.48,44.5z M44.5,13.52v6.711c-2.282,0.617-4.636,0.932-7,0.936
		c-5.139,0.005-10.171-1.464-14.5-4.233c0.199-0.409,0.302-0.859,0.3-1.314c-0.002-0.983-0.484-1.902-1.291-2.463
		c1.543-2.902,3.605-5.497,6.083-7.657h8.388C40.907,5.505,44.495,9.093,44.5,13.52z M26.642,5.5
		c-2.224,2.094-4.09,4.54-5.522,7.238c-0.923-0.25-1.909-0.054-2.667,0.529c-2.263-2.234-4.106-4.856-5.444-7.741
		C13.179,5.515,13.347,5.5,13.52,5.5H26.642z M11.967,5.654c1.399,3.121,3.366,5.955,5.8,8.357
		c-0.889,1.394-0.481,3.245,0.913,4.134c0.063,0.04,0.128,0.078,0.194,0.114c-0.072,0.262-0.141,0.527-0.206,0.792
		c-1.113-0.013-2.146,0.577-2.7,1.543c-2.48-0.726-5.051-1.094-7.635-1.094c-0.947,0.005-1.892,0.06-2.833,0.165V13.52
		C5.506,9.692,8.212,6.4,11.967,5.654z M5.5,20.669c0.941-0.108,1.886-0.165,2.833-0.169c2.473,0.003,4.933,0.357,7.307,1.052
		c-0.268,1.54,0.7,3.025,2.218,3.4c-0.011,0.293-0.025,0.586-0.025,0.882c0.004,1.961,0.215,3.917,0.628,5.834
		c-1.506,0.67-2.184,2.434-1.514,3.941c0.045,0.102,0.096,0.201,0.153,0.297c-2.517,2.295-4.487,5.125-5.767,8.282
		c-3.447-0.98-5.827-4.125-5.833-7.708V20.669z"/>
</g>
</svg>
