<?xml version="1.0" encoding="utf-8"?>
<!-- Generator: Adobe Illustrator 25.2.3, SVG Export Plug-In . SVG Version: 6.00 Build 0)  -->
<svg version="1.1" id="a43f8b85-05b2-4ebb-8101-9f37ace29ce4"
	 xmlns="http://www.w3.org/2000/svg" xmlns:xlink="http://www.w3.org/1999/xlink" x="0px" y="0px" viewBox="0 0 50 50"
	 style="enable-background:new 0 0 50 50;" xml:space="preserve">
<path style="fill:#FFFFFF;" d="M40.353,15.74l-11-11c-0.046-0.046-0.101-0.083-0.162-0.108C29.131,4.606,29.066,4.594,29,4.594H10
	c-0.276,0-0.5,0.224-0.5,0.5v40c0,0.276,0.224,0.5,0.5,0.5h30c0.276,0,0.5-0.224,0.5-0.5v-29c0-0.066-0.014-0.132-0.039-0.193
	C40.436,15.841,40.399,15.786,40.353,15.74z M29.5,6.3l9.293,9.293H29.5V6.3z M10.5,44.593v-39h18v10.5c0,0.276,0.224,0.5,0.5,0.5
	h10.5v28H10.5z"/>
<path style="fill:#FFFFFF;" d="M32.075,26.429c-1.318,0.004-2.384,1.074-2.383,2.392c0,0.048,0.012,0.093,0.015,0.141l-2.742,0.894
	c-0.332-0.566-0.883-0.969-1.523-1.115v-2.862c1.278-0.295,2.075-1.571,1.779-2.849c-0.295-1.278-1.571-2.075-2.849-1.779
	c-1.278,0.295-2.075,1.571-1.779,2.849c0.21,0.909,0.934,1.611,1.849,1.794v2.836c-0.645,0.139-1.203,0.54-1.542,1.106l-2.686-0.877
	c0-0.047,0.014-0.091,0.014-0.138c0.018-1.338-1.052-2.438-2.39-2.456c-1.338-0.018-2.438,1.052-2.456,2.39
	c-0.018,1.338,1.052,2.438,2.39,2.456c0.91,0.012,1.749-0.486,2.175-1.29l2.628,0.858c-0.015,0.096-0.025,0.194-0.029,0.291
	c0.001,0.579,0.215,1.138,0.6,1.571l-1.75,2.419c-0.278-0.113-0.576-0.172-0.876-0.173c-1.325-0.01-2.408,1.057-2.418,2.382
	s1.057,2.408,2.382,2.418c1.325,0.01,2.408-1.057,2.418-2.382c0.005-0.629-0.238-1.235-0.675-1.687l1.718-2.375
	c0.622,0.291,1.34,0.291,1.962,0l1.718,2.376c-0.907,0.949-0.874,2.453,0.075,3.361c0.949,0.907,2.453,0.874,3.361-0.075
	c0.907-0.949,0.874-2.453-0.075-3.361c-0.444-0.424-1.035-0.661-1.649-0.659c-0.302,0.001-0.602,0.06-0.882,0.174L26.7,32.647
	c0.473-0.488,0.688-1.171,0.577-1.842l2.694-0.879c0.618,1.161,2.06,1.601,3.221,0.983c1.161-0.618,1.601-2.06,0.983-3.221
	c-0.414-0.777-1.223-1.263-2.103-1.262L32.075,26.429z M17.841,30.213c-0.769,0.005-1.396-0.614-1.401-1.383
	c-0.005-0.769,0.614-1.396,1.383-1.401s1.396,0.614,1.401,1.383c0,0.003,0,0.006,0,0.009C19.226,29.587,18.607,30.21,17.841,30.213z
	 M23.532,23.55c0.005-0.764,0.628-1.379,1.392-1.374c0.764,0.005,1.379,0.628,1.374,1.392c-0.005,0.76-0.623,1.374-1.383,1.374
	C24.149,24.939,23.53,24.316,23.532,23.55z M20.517,38.673c-0.769,0-1.392-0.623-1.392-1.392c0-0.769,0.623-1.392,1.392-1.392
	c0.247,0.002,0.489,0.071,0.7,0.2c0.013,0.011,0.02,0.026,0.033,0.036s0.04,0.009,0.059,0.019c0.63,0.44,0.784,1.308,0.344,1.938
	c-0.258,0.37-0.68,0.591-1.131,0.595L20.517,38.673z M23.542,31.073c0.005-0.764,0.628-1.379,1.392-1.374
	c0.764,0.005,1.379,0.628,1.374,1.392c-0.005,0.76-0.623,1.374-1.383,1.374C24.158,32.462,23.539,31.839,23.542,31.073
	C23.542,31.072,23.542,31.072,23.542,31.073L23.542,31.073z M30.717,37.282c-0.002,0.764-0.623,1.383-1.387,1.381
	c-0.764-0.002-1.383-0.623-1.381-1.387c0.001-0.441,0.212-0.855,0.568-1.115c0.028-0.013,0.06-0.009,0.086-0.028
	c0.021-0.018,0.04-0.039,0.057-0.061c0.204-0.117,0.435-0.18,0.67-0.182c0.767,0.001,1.388,0.624,1.387,1.391V37.282z
	 M32.075,30.214c-0.629-0.003-1.176-0.43-1.332-1.039c0-0.008,0-0.016,0-0.024c-0.003-0.006-0.006-0.012-0.01-0.018
	c-0.165-0.744,0.304-1.481,1.048-1.646c0.744-0.165,1.481,0.304,1.646,1.048c0.165,0.744-0.304,1.481-1.048,1.646
	c-0.099,0.022-0.2,0.033-0.301,0.033H32.075z"/>
</svg>
