<svg id="Icons" xmlns="http://www.w3.org/2000/svg" viewBox="0 0 128 128"><defs><style>.cls-1{fill:none;stroke:#38313d;stroke-linecap:round;stroke-linejoin:round;stroke-width:3px;}</style></defs><title>document-with-globe-tall_38313D</title><polyline class="cls-1" points="64 10.99 24.25 10.99 24.25 117.01 103.75 117.01 103.75 39.53 72.83 10.99 72.83 41.91 94.92 41.91"/><path class="cls-1" d="M55.76,77.76v-.19H45.52v.12A38.07,38.07,0,0,0,47.37,89.6a61.13,61.13,0,0,1,9-1.45A84.39,84.39,0,0,1,55.76,77.76Z"/><path class="cls-1" d="M56.38,88.15a61.13,61.13,0,0,0-9,1.45c2.14,6.52,6,11.58,10.68,13.93l.63.14a27.16,27.16,0,0,0,3.41.46C59.5,102.14,57.39,96.1,56.38,88.15Z"/><path class="cls-1" d="M71.47,67a83,83,0,0,1,.68,10.59H82.39a38,38,0,0,0-1.93-12A62.56,62.56,0,0,1,71.47,67Z"/><path class="cls-1" d="M71.52,88.15c-.78-.07-1.59-.13-2.4-.18-1.67-.11-3.4-.16-5.17-.16-2.63,0-5.17.12-7.57.34,1,7.95,3.12,14,5.71,16,.62,0,1.24.07,1.86.07s1.24,0,1.85-.08h0C68.41,102.12,70.52,96.09,71.52,88.15Z"/><path class="cls-1" d="M65.82,104.11h0a28.3,28.3,0,0,0,4-.6c4.7-2.35,8.55-7.41,10.7-13.92a61.06,61.06,0,0,0-9-1.45C70.52,96.09,68.41,102.12,65.82,104.11Z"/><path class="cls-1" d="M72.15,77.76a82.28,82.28,0,0,1-.63,10.39,61.06,61.06,0,0,1,9,1.45,38.07,38.07,0,0,0,1.85-11.91v-.12H72.15Z"/><path class="cls-1" d="M56.44,67a62.56,62.56,0,0,1-9-1.43,38,38,0,0,0-1.93,12H55.76A84.52,84.52,0,0,1,56.44,67Z"/><path class="cls-1" d="M64,67.32c-1.8,0-3.56-.06-5.27-.16-.76,0-1.5-.1-2.24-.17a84.52,84.52,0,0,0-.68,10.58H72.15A83,83,0,0,0,71.47,67L70,67.1C68.07,67.24,66,67.32,64,67.32Z"/><path class="cls-1" d="M55.76,77.76a84.39,84.39,0,0,0,.62,10.39c2.4-.22,4.94-.34,7.57-.34,1.77,0,3.5,0,5.17.16.81,0,1.62.11,2.4.18a82.28,82.28,0,0,0,.63-10.39v-.19H55.76Z"/><path class="cls-1" d="M70.75,62.62h0c.28,1.37.52,2.83.72,4.36a62.56,62.56,0,0,0,9-1.43,31.91,31.91,0,0,0-1.22-3.11c-2.44-5.35-6.13-9.33-10.45-11.06A28.15,28.15,0,0,0,65.1,51a2.76,2.76,0,0,1,.44.25C67.7,52.61,69.56,56.81,70.75,62.62Z"/><path class="cls-1" d="M57.28,62.09c-.33,1.52-.61,3.17-.84,4.9.74.07,1.48.12,2.24.17,1.71.1,3.47.16,5.27.16,2.09,0,4.12-.08,6.07-.22L71.47,67c-.2-1.53-.44-3-.72-4.36-1.19-5.81-3-10-5.21-11.41A2.76,2.76,0,0,0,65.1,51c-.38,0-.76,0-1.15,0s-.77,0-1.15,0C60.53,52,58.55,56.18,57.28,62.09Z"/><path class="cls-1" d="M57.28,62.09C58.55,56.18,60.53,52,62.8,51a25.8,25.8,0,0,0-3.65.4C55,53,51.38,56.82,48.94,61.9a33.31,33.31,0,0,0-1.49,3.66,62.56,62.56,0,0,0,9,1.43C56.67,65.26,57,63.61,57.28,62.09Z"/><path class="cls-1" d="M58.05,103.53c-4.7-2.35-8.54-7.41-10.68-13.93a33.24,33.24,0,0,0-5.1,1.66,9.39,9.39,0,0,0-.9.42A26.65,26.65,0,0,0,58.05,103.53Z"/><path class="cls-1" d="M82.39,77.57v.12A38.07,38.07,0,0,1,80.54,89.6,31.06,31.06,0,0,1,86,91.42h0l.5.24a26.34,26.34,0,0,0,4-14.09Z"/><path class="cls-1" d="M80.54,89.6c-2.15,6.51-6,11.57-10.7,13.92l.18,0A26.67,26.67,0,0,0,86.54,91.66l-.5-.24A31.06,31.06,0,0,0,80.54,89.6Z"/><path class="cls-1" d="M69.12,51.44l-.33-.06c4.32,1.73,8,5.71,10.45,11.06h0a31.91,31.91,0,0,1,1.22,3.11,30.08,30.08,0,0,0,6.09-2.09L86,62.67A26.66,26.66,0,0,0,69.12,51.44Z"/><path class="cls-1" d="M82.39,77.57h8.2a26.52,26.52,0,0,0-4-14.11,30.08,30.08,0,0,1-6.09,2.09A38,38,0,0,1,82.39,77.57Z"/><path class="cls-1" d="M47.45,65.56a30.74,30.74,0,0,1-6.07-2.08,26.41,26.41,0,0,0-4.06,14.09h8.2A38,38,0,0,1,47.45,65.56Z"/><path class="cls-1" d="M47.37,89.6a38.07,38.07,0,0,1-1.85-11.91v-.12h-8.2a26.46,26.46,0,0,0,4,14.11,9.39,9.39,0,0,1,.9-.42A33.24,33.24,0,0,1,47.37,89.6Z"/><path class="cls-1" d="M48.94,61.9c2.44-5.08,6-8.86,10.21-10.53A26.62,26.62,0,0,0,42.27,62.15c-.31.43-.61.87-.89,1.33a30.74,30.74,0,0,0,6.07,2.08A33.31,33.31,0,0,1,48.94,61.9Z"/></svg>