<?xml version="1.0" encoding="utf-8"?>
<!-- Generator: Adobe Illustrator 25.2.3, SVG Export Plug-In . SVG Version: 6.00 Build 0)  -->
<svg version="1.1" id="Layer_1" xmlns="http://www.w3.org/2000/svg" xmlns:xlink="http://www.w3.org/1999/xlink" x="0px" y="0px"
	 viewBox="0 0 50 50" style="enable-background:new 0 0 50 50;" xml:space="preserve">
<g id="e88ba624-4395-4086-b55f-057cc8ef1b69">
	<path style="fill:#1D9CD3;" d="M5,33.035h7.256c0.276,0,0.5-0.224,0.5-0.5s-0.224-0.5-0.5-0.5H5.5v-21.61l16.99,8.458l0.034,0.015
		c0.783,0.319,1.62,0.483,2.465,0.484c0.865-0.002,1.721-0.172,2.521-0.5l16.99-8.457v21.61h-6.957c-0.276,0-0.5,0.224-0.5,0.5
		s0.224,0.5,0.5,0.5H45c0.276,0,0.5-0.224,0.5-0.5V8.69c0-0.013-0.006-0.023-0.007-0.036c-0.025-1.132-0.955-2.033-2.087-2.021
		H6.594C5.716,6.625,4.928,7.174,4.63,8C4.55,8.225,4.509,8.461,4.511,8.7C4.506,8.718,4.503,8.737,4.5,8.756v23.779
		C4.5,32.811,4.724,33.035,5,33.035z M5.568,8.34c0.155-0.432,0.568-0.716,1.026-0.707h36.812c0.458-0.009,0.871,0.275,1.026,0.707
		c0.152,0.398,0.045,0.848-0.269,1.136L27.1,17.972c-1.34,0.547-2.84,0.549-4.181,0.007L5.837,9.476
		C5.523,9.188,5.416,8.738,5.568,8.34z"/>
	<path style="fill:#1D9CD3;" d="M13.9,32.367c0,6.075,4.925,11,11,11s11-4.925,11-11s-4.925-11-11-11
		C18.828,21.374,13.907,26.295,13.9,32.367z M34.9,32.367c0,5.523-4.477,10-10,10s-10-4.477-10-10s4.477-10,10-10
		C30.42,22.373,34.894,26.847,34.9,32.367z"/>
	<path style="fill:#1D9CD3;" d="M23.344,25.731c-0.002,0.86,0.693,1.559,1.553,1.561c0.86,0.002,1.559-0.693,1.561-1.553
		c0.002-0.86-0.693-1.559-1.553-1.561c-0.002,0-0.003,0-0.005,0C24.042,24.179,23.346,24.873,23.344,25.731z M24.9,25.178
		c0.306,0.001,0.553,0.25,0.552,0.556c-0.001,0.306-0.25,0.553-0.556,0.552c-0.306-0.001-0.553-0.249-0.552-0.555
		C24.346,25.425,24.594,25.178,24.9,25.178z"/>
	<path style="fill:#1D9CD3;" d="M25.4,28.731v-0.474c0-0.276-0.224-0.5-0.5-0.5s-0.5,0.224-0.5,0.5l0.007,0.394
		c-0.047,1.3,0.494,2.553,1.474,3.409c1.545,1.627,2.419,2.62,2.419,4.107c-0.006,1.874-1.526,3.39-3.4,3.39
		c-0.94,0.01-1.846-0.357-2.513-1.02c-0.576-0.595-0.895-1.393-0.888-2.221c0.134,0.266,0.307,0.51,0.514,0.724
		c0.196,0.195,0.512,0.195,0.708,0s0.195-0.512,0-0.708c-0.57-0.852-0.881-1.852-0.894-2.877c-0.009-0.276-0.24-0.492-0.516-0.483
		c-0.225,0.007-0.417,0.164-0.47,0.383c-0.201,0.918-0.315,1.854-0.339,2.794c-0.046,1.143,0.376,2.256,1.169,3.081
		c0.856,0.856,2.019,1.333,3.23,1.323c2.426,0,4.394-1.964,4.4-4.39c0-1.959-1.248-3.273-2.695-4.8
		C25.833,30.707,25.392,29.743,25.4,28.731z"/>
</g>
</svg>
