<?xml version="1.0" encoding="utf-8"?>
<!-- Generator: Adobe Illustrator 25.2.3, SVG Export Plug-In . SVG Version: 6.00 Build 0)  -->
<svg version="1.1" id="Layer_1" xmlns="http://www.w3.org/2000/svg" xmlns:xlink="http://www.w3.org/1999/xlink" x="0px" y="0px"
	 viewBox="0 0 50 50" style="enable-background:new 0 0 50 50;" xml:space="preserve">
<g id="eaa1140b-9aa0-4bb1-a209-2474de7568fb">
	<path style="fill:#FFFFFF;" d="M14.336,38.814c0.023,0.003,0.045,0.005,0.068,0.005c0.25,0,0.461-0.185,0.495-0.433
		c0.41-3.513,0.436-7.061,0.077-10.58c-0.025-0.276-0.27-0.479-0.546-0.454s-0.479,0.27-0.454,0.546
		c0.353,3.444,0.329,6.915-0.071,10.354c-0.037,0.274,0.156,0.525,0.429,0.562C14.335,38.814,14.335,38.814,14.336,38.814z"/>
	<path style="fill:#FFFFFF;" d="M36.5,36.472h0.022c0.268,0,0.489-0.211,0.5-0.479c0.203-5.235-0.121-10.476-0.966-15.646
		c-0.055-0.271-0.318-0.446-0.589-0.391c-0.257,0.052-0.431,0.294-0.397,0.554c0.833,5.102,1.153,10.274,0.953,15.44
		C36.011,36.226,36.224,36.46,36.5,36.472L36.5,36.472z"/>
	<path style="fill:#FFFFFF;" d="M24.591,9.768C23.822,9.769,23.054,9.846,22.3,10c-2.967,0.596-5.573,2.351-7.241,4.876
		c-1.681,2.501-2.287,5.572-1.682,8.524c0,0.023,0.085,0.447,0.2,1.168c0.037,0.243,0.247,0.423,0.493,0.424
		c0.026,0,0.052-0.002,0.077-0.006c0.272-0.042,0.459-0.297,0.418-0.569c-0.114-0.748-0.2-1.187-0.2-1.212
		c-0.553-2.691-0.002-5.491,1.53-7.772c1.521-2.304,3.898-3.907,6.605-4.454c4.944-1.007,9.902,1.664,11.78,6.347
		c0.111,0.253,0.406,0.367,0.659,0.256c0.241-0.106,0.358-0.38,0.269-0.627C33.451,12.631,29.259,9.793,24.591,9.768z"/>
	<path style="fill:#FFFFFF;" d="M12.113,13.629c0.231,0.152,0.541,0.088,0.693-0.142c0,0,0,0,0-0.001
		c4.265-6.495,12.987-8.303,19.482-4.038C32.462,9.561,32.632,9.679,32.8,9.8c0.224,0.161,0.537,0.11,0.698-0.114
		c0.161-0.224,0.11-0.537-0.114-0.698c-2.556-1.852-5.632-2.85-8.789-2.851c-1.016-0.002-2.029,0.099-3.025,0.3
		c-3.939,0.791-7.396,3.131-9.595,6.494c-0.155,0.228-0.096,0.539,0.133,0.695C12.11,13.627,12.111,13.628,12.113,13.629z"/>
	<path style="fill:#FFFFFF;" d="M38.372,18.336c0.551,2.908,0.928,5.847,1.129,8.8c0.019,0.262,0.237,0.465,0.5,0.464h0.036
		c0.275-0.02,0.483-0.259,0.463-0.534c0,0,0,0,0-0.001c-0.204-2.998-0.587-5.981-1.147-8.934c-0.524-2.514-1.686-4.851-3.373-6.787
		c-0.174-0.214-0.489-0.247-0.703-0.073s-0.247,0.489-0.073,0.703c0.007,0.009,0.015,0.017,0.022,0.026
		C36.801,13.807,37.884,15.989,38.372,18.336z"/>
	<path style="fill:#FFFFFF;" d="M10.589,33.1c0,0.276,0.224,0.5,0.5,0.5s0.5-0.224,0.5-0.5c-0.014-3.084-0.284-6.161-0.808-9.2
		c-0.51-2.496-0.319-5.084,0.552-7.478c0.104-0.256-0.019-0.547-0.275-0.651s-0.547,0.019-0.651,0.275
		c-0.005,0.011-0.009,0.023-0.012,0.034c-0.933,2.562-1.138,5.333-0.594,8.005C10.313,27.063,10.577,30.078,10.589,33.1z"/>
	<path style="fill:#FFFFFF;" d="M19.563,15.891c-0.203-0.187-0.519-0.174-0.707,0.028c0,0,0,0,0,0.001
		c-1.681,1.827-2.387,4.348-1.9,6.782c0.019,0.1,1.938,10.034,0.161,18.375c-0.057,0.27,0.115,0.536,0.385,0.593
		c0.034,0.008,0.07,0.011,0.105,0.011c0.237,0,0.442-0.168,0.489-0.4c1.819-8.54-0.077-18.362-0.16-18.78
		c-0.422-2.119,0.194-4.311,1.657-5.901c0.188-0.203,0.175-0.519-0.027-0.707C19.565,15.893,19.564,15.892,19.563,15.891z"/>
	<path style="fill:#FFFFFF;" d="M32.424,41h0.065c0.253,0.002,0.468-0.185,0.5-0.436c0.315-2.517,0.469-5.051,0.462-7.588
		c0-0.276-0.224-0.5-0.5-0.5s-0.5,0.224-0.5,0.5c0.007,2.494-0.145,4.986-0.454,7.461C31.96,40.71,32.151,40.962,32.424,41z"/>
	<path style="fill:#FFFFFF;" d="M32.364,29.6c0.013,0.267,0.233,0.476,0.5,0.476h0.024c0.276-0.013,0.489-0.247,0.476-0.523v-0.001
		c-0.147-3.343-0.531-6.671-1.149-9.96c-0.853-4.194-4.944-6.902-9.138-6.049c-0.42,0.085-0.833,0.206-1.233,0.359
		c-0.261,0.09-0.4,0.375-0.31,0.636s0.375,0.4,0.636,0.31c0.008-0.003,0.017-0.006,0.025-0.009c3.493-1.332,7.404,0.421,8.736,3.914
		c0.129,0.339,0.231,0.687,0.304,1.042C31.843,23.032,32.22,26.309,32.364,29.6z"/>
	<path style="fill:#FFFFFF;" d="M20.489,42.761c-0.041,0.273,0.148,0.527,0.421,0.568c0.024,0.004,0.049,0.005,0.074,0.005
		c0.247,0,0.457-0.181,0.494-0.426c0.013-0.086,0.026-0.171,0.045-0.256c0.92-4.319,1.221-8.748,0.894-13.152
		c-0.016-0.276-0.253-0.487-0.529-0.471c-0.276,0.016-0.487,0.253-0.471,0.529c0.321,4.308,0.028,8.64-0.87,12.865
		C20.523,42.538,20.505,42.649,20.489,42.761z"/>
	<path style="fill:#FFFFFF;" d="M28.342,43.245c0.033,0.006,0.066,0.009,0.1,0.009c0.238,0,0.442-0.167,0.49-0.4
		c2.09-10.749-0.185-22.047-0.283-22.523c-0.47-2.242-2.669-3.679-4.911-3.209c-1.066,0.223-2.002,0.857-2.604,1.765
		c-0.606,0.912-0.822,2.028-0.6,3.1c0,0.016,0.333,1.661,0.613,4.224c0.025,0.275,0.268,0.478,0.543,0.453
		c0.275-0.025,0.478-0.268,0.453-0.543c-0.001-0.006-0.001-0.012-0.002-0.017c-0.283-2.6-0.624-4.3-0.628-4.317
		c-0.343-1.697,0.754-3.35,2.451-3.693l0,0c1.696-0.347,3.354,0.742,3.71,2.436c0.1,0.468,2.333,11.575,0.28,22.13
		C27.901,42.928,28.074,43.189,28.342,43.245z"/>
	<path style="fill:#FFFFFF;" d="M26.155,34.05c0.066-4.356-0.296-8.707-1.08-12.992c-0.066-0.268-0.337-0.432-0.605-0.366
		c-0.253,0.062-0.416,0.309-0.374,0.566c0.769,4.213,1.124,8.492,1.059,12.774c-0.005,0.276,0.215,0.504,0.491,0.509l0,0h0.009
		C25.928,34.541,26.15,34.323,26.155,34.05z"/>
	<path style="fill:#FFFFFF;" d="M24.992,37.388c-0.154,1.973-0.453,3.932-0.893,5.861c-0.062,0.269,0.104,0.537,0.373,0.6
		c0.037,0.009,0.076,0.013,0.114,0.013c0.232,0,0.433-0.16,0.486-0.386c0.451-1.977,0.758-3.984,0.917-6.006
		c0.023-0.276-0.183-0.518-0.459-0.541s-0.518,0.183-0.541,0.459l0,0L24.992,37.388z"/>
</g>
</svg>
