<svg xmlns="http://www.w3.org/2000/svg" viewBox="0 0 50 50"><g id="febf4ea9-2ee4-45ff-b9fc-cff3db937ba7" data-name="Isolation Mode"><path d="M9.1,38.009c3.647,2.68,5.028,3.65,5.028,3.65a.5.5,0,0,0,.571,0c.014-.01,1.455-1,5.06-3.653.335-.245.634-.495.918-.746H45a.5.5,0,0,0,0-1H42.715v-6H45a.5.5,0,0,0,0-1H35.753v-6H45a.5.5,0,0,0,0-1H42.715v-6H45a.5.5,0,0,0,0-1H35.753V9.253L45,9.25a.5.5,0,0,0,0-1l-33.441.012a.5.5,0,1,0,0,1l9.27,0v6H11.58a.5.5,0,1,0,0,1h2.286v1.261a3.016,3.016,0,0,0-1.1.508L9.914,20.125c-.326-.013-.654-.027-.981-.043-.295-.015-.582-.04-.856-.063-1.095-.093-2.13-.181-2.83.462A3.08,3.08,0,0,0,4.5,22.873c0,3.007.4,7.907.408,7.906C4.9,30.941,4.7,34.773,9.1,38.009Zm14.85-7.155c0-.01.019-.232.047-.591H27.79v6H21.681A8.063,8.063,0,0,0,23.95,30.854Zm17.765,5.409H28.79v-6H41.715Zm-6.962-7H24.07c.113-1.6.267-4.091.286-6h10.4Zm6.962-7H28.79v-6H41.715Zm-19.886-13,12.924,0v6.008H21.829Zm5.961,7v6H24.325a2.63,2.63,0,0,0-.712-1.781c-.7-.643-1.735-.555-2.831-.462-.274.023-.56.048-.855.063q-.487.024-.971.043l-2.64-2.042a3.006,3.006,0,0,0-1.45-.614V16.262ZM5.923,21.218a1.518,1.518,0,0,1,1.028-.264c.313,0,.667.03,1.041.062.286.024.584.049.891.065q.585.029,1.168.049a.474.474,0,0,0,.314-.1l2.992-2.2a1.849,1.849,0,0,1,2.348.038L18.448,21a.46.46,0,0,0,.36.134q.582-.021,1.169-.049c.307-.016.605-.041.89-.065.908-.078,1.693-.144,2.069.2a2.31,2.31,0,0,1,.423,1.655c0,2.079-.2,5.085-.315,6.749a.472.472,0,0,0-.029.141.388.388,0,0,0,.014.066c-.044.595-.075.982-.076,1.014.008.14.153,3.466-3.786,6.361-2.695,1.98-4.174,3.03-4.749,3.435-.567-.405-2.022-1.448-4.726-3.435-3.94-2.9-3.794-6.22-3.787-6.433,0-.049-.405-4.925-.405-7.9A2.315,2.315,0,0,1,5.923,21.218Z"/><path d="M13.112,32.043a.5.5,0,0,0,.4.2h.016a.5.5,0,0,0,.4-.224L17.906,26a.5.5,0,1,0-.833-.552l-3.589,5.428L11.769,28.6a.5.5,0,0,0-.8.6Z"/><path d="M14.43,35.072a6.343,6.343,0,1,0-6.344-6.343A6.349,6.349,0,0,0,14.43,35.072Zm0-11.686a5.343,5.343,0,1,1-5.344,5.343A5.349,5.349,0,0,1,14.43,23.386Z"/></g></svg>