<?xml version="1.0" encoding="utf-8"?>
<!-- Generator: Adobe Illustrator 25.2.3, SVG Export Plug-In . SVG Version: 6.00 Build 0)  -->
<svg version="1.1" id="Layer_1" xmlns="http://www.w3.org/2000/svg" xmlns:xlink="http://www.w3.org/1999/xlink" x="0px" y="0px"
	 viewBox="0 0 50 50" style="enable-background:new 0 0 50 50;" xml:space="preserve">
<g id="a4b2fca8-5e5c-4648-bd65-3b96d31984f1">
	<path style="fill:#1D9CD3;" d="M39.2,8.282c-4.715-0.524-9.456-0.77-14.2-0.736c-4.744-0.034-9.485,0.212-14.2,0.736
		c-6.3,0.787-6.3,1.784-6.3,2.264c-0.016,0.303,0.13,0.591,0.383,0.758l15.178,16.913c0.588,0.56,0.919,1.337,0.914,2.149l1,9.5
		c0.007,1.431,1.169,2.587,2.6,2.587h0.86c1.415,0.01,2.574-1.121,2.6-2.535l1-9.574c0-0.815,0.337-1.593,0.932-2.149L45.117,11.3
		c0.253-0.167,0.399-0.455,0.383-0.758C45.5,10.066,45.5,9.069,39.2,8.282z M25,8.546c11.434,0,18.6,1.156,19.456,2l-0.014,0.015
		c-0.9,0.84-8.049,1.988-19.442,1.988S6.458,11.4,5.558,10.558l-0.014-0.015C6.4,9.7,13.566,8.546,25,8.546z M29.244,27.507
		c-0.753,0.72-1.185,1.713-1.2,2.755l-1,9.6c-0.007,0.879-0.721,1.587-1.6,1.587h-0.86c-0.89-0.004-1.609-0.728-1.605-1.619
		c0-0.007,0-0.013,0-0.02l-1-9.532c-0.01-1.04-0.437-2.032-1.185-2.755L6.983,12.147c1.257,0.296,2.53,0.518,3.813,0.663
		c4.715,0.524,9.456,0.77,14.2,0.736c4.744,0.034,9.485-0.212,14.2-0.736c1.283-0.146,2.557-0.367,3.814-0.664L29.244,27.507z"/>
</g>
</svg>
