<svg viewBox="0 0 128 128" xmlns="http://www.w3.org/2000/svg"><path d="m32.57 118.76h62.86a23.34 23.34 0 0 0 23.33-23.33v-62.86a23.34 23.34 0 0 0 -23.33-23.33h-62.86a23.34 23.34 0 0 0 -23.33 23.33v62.86a23.34 23.34 0 0 0 23.33 23.33z" fill="#f1f1f1"/><path d="m37.13 82.39h9.51c3.54 0 5.51 2.2 5.51 4.93a4.35 4.35 0 0 1 -3.37 4.43 4.76 4.76 0 0 1 3.74 4.76c0 3-2 5.21-5.62 5.21h-9.77zm8.81 8a2.52 2.52 0 1 0 0-5h-5.42v5zm.15 8.35c1.85 0 3-1 3-2.7a2.66 2.66 0 0 0 -3-2.67h-5.57v5.37z" fill="#8b5ba5"/><path d="m62.06 87.37c4.2 0 6.9 3.22 6.9 7.63v.72h-10.81a4.23 4.23 0 0 0 4.46 3.86 5.9 5.9 0 0 0 4-1.54l1.4 2a8.15 8.15 0 0 1 -5.69 2 7.35 7.35 0 0 1 -.23-14.7zm-3.94 6.21h7.88a3.73 3.73 0 0 0 -3.94-3.71 3.86 3.86 0 0 0 -3.94 3.71z" fill="#8b5ba5"/><path d="m72.15 97.69a7.2 7.2 0 0 0 4.75 2c1.83 0 2.76-.67 2.76-1.72 0-1.21-1.48-1.65-3.19-2-2.41-.53-5.28-1.16-5.28-4.3 0-2.29 2-4.26 5.51-4.26a8 8 0 0 1 5.45 2l-1.27 2.15a5.66 5.66 0 0 0 -4.15-1.68c-1.6 0-2.61.58-2.61 1.56s1.39 1.45 3 1.83c2.44.52 5.43 1.22 5.43 4.52 0 2.47-2.06 4.35-5.83 4.35a8.51 8.51 0 0 1 -6-2.17z" fill="#8b5ba5"/><path d="m86.27 98.48v-8.09h-2.27v-2.67h2.32v-3.83h3v3.83h2.84v2.67h-2.85v7.33c0 1 .46 1.66 1.33 1.66a2 2 0 0 0 1.37-.5l.72 2.29a4 4 0 0 1 -2.87.9 3.22 3.22 0 0 1 -3.59-3.59z" fill="#8b5ba5"/><g fill="#1d9cd3"><path d="m26.24 51.78h9.51c3.54 0 5.51 2.21 5.51 4.93a4.34 4.34 0 0 1 -3.36 4.44 4.76 4.76 0 0 1 3.74 4.75c0 3-2 5.22-5.63 5.22h-9.77zm8.82 8a2.52 2.52 0 1 0 0-5h-5.43v5zm.14 8.34c1.86 0 3-1 3-2.69a2.66 2.66 0 0 0 -3-2.67h-5.57v5.36z"/><path d="m51.17 56.77c4.21 0 6.9 3.22 6.9 7.62v.73h-10.81a4.24 4.24 0 0 0 4.47 3.88 6 6 0 0 0 4-1.54l1.39 2a8.17 8.17 0 0 1 -5.68 2 7.35 7.35 0 0 1 -.24-14.7zm-3.94 6.23h7.89a3.75 3.75 0 0 0 -3.95-3.71 3.87 3.87 0 0 0 -3.94 3.71z"/><path d="m61.7 67.87v-8.08h-2.32v-2.67h2.32v-3.83h3v3.83h2.84v2.67h-2.8v7.33c0 1 .46 1.65 1.33 1.65a2 2 0 0 0 1.37-.49l.72 2.29a4 4 0 0 1 -2.87.9c-2.35 0-3.59-1.28-3.59-3.6z"/><path d="m70.94 67.87v-8.08h-2.32v-2.67h2.32v-3.83h3v3.83h2.84v2.67h-2.78v7.33c0 1 .46 1.65 1.33 1.65a2 2 0 0 0 1.36-.49l.73 2.29a4 4 0 0 1 -2.87.9 3.24 3.24 0 0 1 -3.61-3.6z"/><path d="m85.82 56.77c4.2 0 6.89 3.22 6.89 7.62v.73h-10.81a4.24 4.24 0 0 0 4.47 3.88 6 6 0 0 0 4-1.54l1.39 2a8.17 8.17 0 0 1 -5.68 2 7.35 7.35 0 0 1 -.23-14.7zm-3.95 6.23h7.89a3.75 3.75 0 0 0 -3.94-3.71 3.87 3.87 0 0 0 -3.95 3.71z"/><path d="m95.73 57.12h3v2.06a6 6 0 0 1 4.55-2.38v3a5.11 5.11 0 0 0 -.95-.08 4.85 4.85 0 0 0 -3.6 1.85v9.54h-3z"/></g><path d="m39.91 22.48a9.09 9.09 0 0 1 7.8 4l-2.78 1.56a6.16 6.16 0 0 0 -5-2.58 6.62 6.62 0 0 0 -6.66 7c0 4.06 2.84 7 6.66 7a7.1 7.1 0 0 0 4.58-1.74v-3h-5.79v-3h9.17v7.28a10.49 10.49 0 0 1 -8 3.51 9.77 9.77 0 0 1 -10.14-10c.02-6.09 4.57-10.03 10.16-10.03z" fill="#38313d"/><path d="m50.46 35.12a7.21 7.21 0 1 1 14.41 0 7.21 7.21 0 1 1 -14.41 0zm11.25 0c0-2.47-1.45-4.64-4.06-4.64s-4 2.17-4 4.64 1.45 4.67 4 4.67 4.06-2.18 4.06-4.67z" fill="#38313d"/><path d="m67.07 35.12a7.21 7.21 0 1 1 14.41 0 7.21 7.21 0 1 1 -14.41 0zm11.25 0c0-2.47-1.45-4.64-4.06-4.64s-4 2.17-4 4.64 1.45 4.67 4 4.67 4.06-2.18 4.06-4.67z" fill="#38313d"/><path d="m94.41 40.22a5.66 5.66 0 0 1 -4.49 2.26c-3.6 0-6.24-2.72-6.24-7.33s2.61-7.37 6.24-7.37a5.63 5.63 0 0 1 4.49 2.29v-7.27h3v19.33h-3zm0-7.86a4.59 4.59 0 0 0 -3.62-1.88c-2.41 0-4 1.94-4 4.67s1.54 4.64 4 4.64a4.57 4.57 0 0 0 3.62-1.86z" fill="#38313d"/></svg>