<svg viewBox="0 0 128 128" xmlns="http://www.w3.org/2000/svg"><path d="m32.57 118.76h62.86a23.34 23.34 0 0 0 23.33-23.33v-62.86a23.34 23.34 0 0 0 -23.33-23.33h-62.86a23.34 23.34 0 0 0 -23.33 23.33v62.86a23.34 23.34 0 0 0 23.33 23.33z" fill="#f1f1f1"/><g fill="#8b5ba5"><path d="m37.13 51.39h9.51c3.54 0 5.51 2.2 5.51 4.92a4.35 4.35 0 0 1 -3.37 4.44 4.76 4.76 0 0 1 3.74 4.75c0 3-2 5.22-5.62 5.22h-9.77zm8.81 8a2.52 2.52 0 1 0 0-5h-5.42v5zm.15 8.35c1.85 0 3-1 3-2.7a2.66 2.66 0 0 0 -3-2.67h-5.57v5.37z"/><path d="m62.06 56.37c4.2 0 6.9 3.22 6.9 7.63v.72h-10.81a4.23 4.23 0 0 0 4.46 3.86 5.9 5.9 0 0 0 4-1.54l1.39 1.96a8.2 8.2 0 0 1 -5.69 2 7.35 7.35 0 0 1 -.23-14.7zm-3.94 6.21h7.88a3.73 3.73 0 0 0 -3.94-3.71 3.86 3.86 0 0 0 -3.94 3.71z"/><path d="m72.15 66.69a7.19 7.19 0 0 0 4.75 2c1.83 0 2.76-.66 2.76-1.71 0-1.21-1.48-1.65-3.19-2-2.41-.52-5.28-1.15-5.28-4.29 0-2.29 2-4.26 5.51-4.26a8 8 0 0 1 5.45 2l-1.27 2.15a5.66 5.66 0 0 0 -4.15-1.68c-1.6 0-2.61.58-2.61 1.56s1.39 1.45 3 1.83c2.44.52 5.43 1.22 5.43 4.52 0 2.47-2.06 4.35-5.83 4.35a8.51 8.51 0 0 1 -6-2.17z"/><path d="m86.27 67.48v-8.09h-2.27v-2.67h2.32v-3.83h3v3.83h2.84v2.67h-2.85v7.33c0 1 .46 1.65 1.33 1.65a2 2 0 0 0 1.36-.49l.72 2.29a4 4 0 0 1 -2.87.9 3.22 3.22 0 0 1 -3.58-3.59z"/></g></svg>