<svg viewBox="0 0 128 128" xmlns="http://www.w3.org/2000/svg"><g fill="none" stroke="#824c9e" stroke-linecap="round" stroke-linejoin="round"><path d="m64.19 47.31-33.38 20.54v18l15.41 7.7 33.38-20.55-.07-16.24z" stroke-width="2.5"/><path d="m64.19 47.31 33.38 20.54v18l-15.4 7.7-33.38-20.55v-16.25z" stroke-width="2.5"/><path d="m64.13 27 15.47 9.72-.13 36.28-15.41 9.5-15.34-9.32-.19-36.18z" stroke-width="2.5"/></g><path d="m63.74 47.05-33.38 20.54v18l15.41 7.7 33.38-20.56v-16.18z" fill="#824c9e" opacity=".3"/><path d="m64.38 47.05 33.39 20.54v18l-15.41 7.7-33.36-20.56v-16.18z" fill="#824c9e" opacity=".3"/><path d="m48.59 73.57.41-37.23 15.38-9.34 14.62 9.21.38 36.59-15.32 9.43z" fill="#824c9e" opacity=".3"/><circle cx="64" cy="64" fill="none" r="54.76" stroke="#824c9e" stroke-linecap="round" stroke-linejoin="round" stroke-width="3"/></svg>