<?xml version="1.0" encoding="utf-8"?>
<!-- Generator: Adobe Illustrator 25.2.3, SVG Export Plug-In . SVG Version: 6.00 Build 0)  -->
<svg version="1.1" id="Layer_1" xmlns="http://www.w3.org/2000/svg" xmlns:xlink="http://www.w3.org/1999/xlink" x="0px" y="0px"
	 viewBox="0 0 50 50" style="enable-background:new 0 0 50 50;" xml:space="preserve">
<g id="b3fa86df-38a6-45a5-956f-67ef5f77fdfd">
	<path style="fill:#1D9CD3;" d="M21.034,28.412c1.319,0.046,2.574-0.569,3.345-1.641l0.019-0.027l0.581-0.841
		c0.101,0.147,0.206,0.295,0.315,0.444c0.843,1.213,2.195,1.974,3.669,2.065c2.206,0,4-1.53,4-3.411s-1.795-3.411-4-3.411
		c-1.293-0.031-2.522,0.557-3.309,1.583l-0.644,0.931c-0.114-0.18-0.226-0.353-0.337-0.517c-0.77-1.267-2.156-2.029-3.639-2
		c-2.206,0-4,1.53-4,3.411S18.828,28.412,21.034,28.412z M26.444,23.783c0.596-0.784,1.535-1.229,2.519-1.193
		c1.488-0.142,2.818,0.927,3,2.411c-0.182,1.484-1.512,2.553-3,2.411c-1.157-0.09-2.21-0.7-2.863-1.659
		c-0.183-0.248-0.351-0.494-0.508-0.734L26.444,23.783z M21.034,22.59c1.15-0.025,2.225,0.57,2.813,1.559
		c0.158,0.234,0.317,0.487,0.484,0.753l0.061,0.1l-0.806,1.164c-0.581,0.825-1.544,1.297-2.552,1.25
		c-1.488,0.142-2.818-0.927-3-2.411C18.214,23.52,19.545,22.448,21.034,22.59z"/>
	<path style="fill:#1D9CD3;" d="M14.707,22.907c-1.158,5.682,2.509,11.227,8.191,12.386s11.227-2.509,12.386-8.191
		c1.158-5.682-2.509-11.227-8.191-12.386c0,0-0.001,0-0.001,0c-5.636-1.188-11.169,2.418-12.357,8.054
		C14.725,22.816,14.716,22.861,14.707,22.907z M26.893,15.7c5.142,1.045,8.463,6.06,7.418,11.202s-6.06,8.463-11.202,7.418
		c-5.142-1.045-8.463-6.06-7.418-11.202c0.001-0.003,0.001-0.005,0.002-0.008c1.005-5.111,5.963-8.44,11.074-7.436
		C26.809,15.683,26.851,15.691,26.893,15.7z"/>
	<path style="fill:#1D9CD3;" d="M4.594,26.919c0.012,0.093,0.051,0.181,0.112,0.253c0.012,0.013,0.024,0.022,0.037,0.034
		c0.07,0.071,0.159,0.12,0.257,0.139l4.884,0.833c0.125,0.597,0.285,1.185,0.48,1.763L6.644,33.3
		c-0.07,0.066-0.118,0.151-0.14,0.245c-0.005,0.018-0.01,0.036-0.013,0.054c-0.014,0.091-0.002,0.184,0.035,0.269
		c0,0.006,0,0.013,0,0.02c0.523,1.085,1.14,2.123,1.844,3.1c0.006,0.008,0.016,0.011,0.022,0.019c0.034,0.04,0.075,0.074,0.12,0.1
		c0.016,0.013,0.033,0.025,0.051,0.036c0.063,0.029,0.131,0.046,0.2,0.048h0.011c0.061,0,0.121-0.011,0.178-0.032l4.63-1.758
		c0.354,0.389,0.727,0.759,1.118,1.11l-1.583,4.762c-0.029,0.093-0.029,0.191,0,0.284c0.003,0.017,0.008,0.034,0.014,0.05
		c0.032,0.087,0.089,0.163,0.163,0.219c0.006,0,0.006,0.011,0.012,0.015c0.989,0.687,2.037,1.284,3.132,1.785
		c0.011,0.003,0.022,0.005,0.033,0.007c0.037,0.014,0.076,0.022,0.116,0.026c0.02,0.005,0.04,0.01,0.06,0.013
		c0.007,0,0.014,0,0.022,0c0.045-0.004,0.09-0.013,0.132-0.029c0.022-0.005,0.043-0.011,0.064-0.019
		c0.064-0.03,0.121-0.074,0.166-0.128l3.164-3.812c0.535,0.176,1.08,0.323,1.631,0.439l1.006,4.91
		c0.022,0.099,0.074,0.189,0.149,0.258c0.006,0.006,0.01,0.013,0.016,0.019c0.074,0.062,0.165,0.101,0.261,0.112
		c0.008,0,0.013,0.008,0.021,0.009s0.028,0,0.041,0l0,0c0.569,0.047,1.14,0.073,1.708,0.073c0.622,0,1.243-0.028,1.856-0.085
		c0.009,0,0.014-0.009,0.023-0.01c0.097-0.012,0.188-0.053,0.262-0.117c0.007-0.007,0.011-0.014,0.018-0.021
		c0.076-0.073,0.126-0.168,0.144-0.271l0.836-4.883c0.612-0.128,1.216-0.293,1.808-0.495l3.369,3.711
		c0.046,0.05,0.102,0.09,0.164,0.118c0.024,0.008,0.049,0.014,0.074,0.018c0.039,0.014,0.079,0.022,0.12,0.026h0.012
		c0.017,0,0.033-0.01,0.05-0.011c0.049-0.004,0.097-0.015,0.142-0.033c0.009-0.002,0.017-0.004,0.026-0.006
		c1.083-0.524,2.119-1.141,3.095-1.845c0.01-0.009,0.02-0.019,0.029-0.029c0.017-0.015,0.033-0.031,0.048-0.049
		c0.025-0.028,0.047-0.06,0.065-0.093c0.011-0.019,0.02-0.038,0.028-0.058c0.014-0.038,0.023-0.078,0.027-0.118
		c0.004-0.019,0.006-0.037,0.008-0.056c0.001-0.062-0.009-0.123-0.031-0.181l-1.77-4.626c0.385-0.353,0.752-0.726,1.1-1.116
		l4.769,1.572c0.05,0.017,0.103,0.025,0.156,0.025c0.006,0,0.011,0,0.017,0c0.074-0.001,0.146-0.019,0.212-0.052l0.011-0.009
		c0.06-0.034,0.112-0.08,0.153-0.135c0-0.006,0.013-0.009,0.018-0.016c0.684-0.991,1.279-2.041,1.777-3.138c0-0.008,0-0.016,0-0.023
		c0.036-0.087,0.045-0.183,0.028-0.275c0-0.017-0.01-0.031-0.015-0.048c-0.024-0.096-0.077-0.182-0.152-0.247l-3.82-3.154
		c0.174-0.536,0.32-1.081,0.435-1.632l4.907-1.019c0.095-0.022,0.181-0.072,0.247-0.143c0.012-0.011,0.024-0.023,0.035-0.036
		c0.059-0.072,0.096-0.159,0.107-0.251c0-0.007,0.007-0.011,0.008-0.018c0.1-1.2,0.094-2.407-0.017-3.606
		c0-0.008-0.008-0.013-0.01-0.021c-0.012-0.093-0.052-0.181-0.113-0.252c-0.011-0.013-0.023-0.024-0.036-0.035
		C45.182,22.69,45.095,22.64,45,22.619L40.109,21.8c-0.126-0.597-0.288-1.185-0.484-1.763l3.713-3.367
		c0.07-0.066,0.118-0.152,0.139-0.246c0.005-0.017,0.01-0.035,0.013-0.053c0.013-0.091,0.001-0.184-0.035-0.268
		c0-0.007,0-0.014,0-0.021c-0.525-1.085-1.143-2.123-1.849-3.1c-0.009-0.011-0.021-0.018-0.03-0.028
		c-0.015-0.017-0.031-0.033-0.048-0.048c-0.029-0.026-0.061-0.048-0.095-0.066c-0.017-0.01-0.036-0.019-0.054-0.027
		c-0.04-0.014-0.082-0.024-0.124-0.028c-0.017-0.003-0.035-0.006-0.052-0.007c-0.062-0.001-0.123,0.01-0.181,0.031l-4.626,1.766
		c-0.353-0.385-0.726-0.754-1.115-1.1l1.574-4.766c0.029-0.093,0.029-0.191,0-0.284c-0.004-0.017-0.008-0.034-0.014-0.051
		c-0.033-0.086-0.089-0.162-0.163-0.217c-0.005,0-0.006-0.012-0.012-0.016c-0.991-0.684-2.041-1.279-3.137-1.779
		c-0.007,0-0.015,0-0.022,0c-0.201-0.075-0.427-0.02-0.571,0.139l-3.156,3.818c-0.536-0.174-1.081-0.32-1.632-0.436l-1.02-4.913
		c-0.022-0.094-0.072-0.179-0.142-0.245c-0.012-0.013-0.025-0.025-0.038-0.037c-0.072-0.06-0.161-0.098-0.254-0.109
		c0,0-0.009,0-0.014-0.006c-1.2-0.1-2.407-0.095-3.606,0.015c-0.008,0-0.014,0.009-0.022,0.01c-0.088,0.014-0.172,0.051-0.241,0.108
		c-0.018,0.016-0.036,0.033-0.051,0.052C22.693,4.824,22.647,4.908,22.628,5L21.8,9.889c-0.592,0.125-1.177,0.285-1.751,0.478
		L16.688,6.65c-0.067-0.07-0.154-0.119-0.249-0.14c-0.016-0.005-0.033-0.009-0.05-0.012c-0.091-0.014-0.184-0.003-0.269,0.034
		c-0.006,0-0.014,0-0.02,0c-1.085,0.525-2.122,1.144-3.1,1.849c-0.007,0-0.007,0.014-0.014,0.019
		c-0.073,0.058-0.128,0.136-0.159,0.224c-0.005,0.017-0.009,0.034-0.012,0.051c-0.026,0.095-0.022,0.196,0.01,0.289l1.761,4.629
		c-0.385,0.352-0.752,0.724-1.1,1.113L8.72,13.125c-0.093-0.029-0.192-0.029-0.285,0c-0.017,0.003-0.033,0.008-0.049,0.013
		c-0.087,0.033-0.162,0.09-0.218,0.164c0,0.006-0.013,0.007-0.017,0.012c-0.685,0.991-1.282,2.04-1.783,3.135
		c0,0.008,0,0.016,0,0.024c-0.035,0.086-0.045,0.181-0.028,0.273c0.004,0.017,0.008,0.033,0.014,0.049
		c0.024,0.096,0.077,0.182,0.152,0.247l3.812,3.158c-0.175,0.535-0.321,1.08-0.438,1.631l-4.909,1.01
		c-0.094,0.021-0.18,0.071-0.246,0.142C4.712,22.996,4.7,23.006,4.688,23.02c-0.058,0.072-0.095,0.159-0.107,0.251
		c0,0.007-0.007,0.011-0.008,0.018c-0.102,1.198-0.098,2.403,0.011,3.6C4.585,26.906,4.593,26.911,4.594,26.919z M26.226,5.542
		l1.006,4.868c0.021,0.086,0.063,0.164,0.124,0.228c0.014,0.015,0.029,0.029,0.044,0.042c0.065,0.06,0.145,0.102,0.232,0.121
		l0.251,0.045c0.643,0.131,1.275,0.306,1.894,0.524h0.009c0.024,0.005,0.048,0.009,0.072,0.012c0.028,0.007,0.056,0.012,0.084,0.014
		c0.007,0,0.013,0,0.019,0c0.05-0.003,0.1-0.014,0.147-0.032c0.018-0.007,0.036-0.008,0.053-0.016
		c0.064-0.03,0.121-0.074,0.167-0.129l3.128-3.785c0.806,0.385,1.583,0.826,2.328,1.319l-1.559,4.722
		c-0.026,0.084-0.029,0.174-0.007,0.26c0.005,0.02,0.01,0.039,0.017,0.058c0.025,0.084,0.073,0.159,0.138,0.217l0,0
		c0.535,0.457,1.036,0.953,1.5,1.483l0.01,0.008c0.043,0.046,0.095,0.084,0.152,0.111l0.011,0.008
		c0.063,0.028,0.131,0.042,0.2,0.042h0.008c0.061,0,0.122-0.011,0.179-0.033l4.586-1.751c0.509,0.735,0.967,1.503,1.372,2.3
		l-3.679,3.336c-0.064,0.061-0.11,0.138-0.133,0.223c-0.006,0.019-0.011,0.039-0.015,0.059c-0.018,0.085-0.013,0.173,0.014,0.256
		l0,0c0.269,0.737,0.478,1.495,0.622,2.266v0.008c0.02,0.087,0.063,0.166,0.124,0.231c0.013,0.014,0.027,0.028,0.042,0.04
		c0.067,0.062,0.149,0.104,0.239,0.122l4.842,0.817c0.066,0.891,0.07,1.785,0.012,2.676l-4.867,1.011
		c-0.086,0.019-0.166,0.062-0.229,0.124c-0.015,0.014-0.027,0.027-0.041,0.042c-0.06,0.065-0.101,0.144-0.119,0.23l0,0l-0.047,0.26
		c-0.131,0.64-0.306,1.27-0.522,1.886v0.008c-0.027,0.086-0.03,0.177-0.009,0.264c0.026,0.107,0.082,0.204,0.162,0.279l3.787,3.126
		c-0.385,0.806-0.825,1.585-1.317,2.33l-4.724-1.557c-0.085-0.027-0.175-0.03-0.261-0.007c-0.018,0.003-0.036,0.008-0.053,0.015
		c-0.085,0.028-0.161,0.079-0.219,0.147l0,0c-0.457,0.535-0.952,1.036-1.482,1.5l-0.005,0.007c-0.065,0.061-0.112,0.138-0.136,0.223
		c-0.006,0.019-0.01,0.039-0.014,0.059c-0.019,0.089-0.013,0.181,0.017,0.266l1.755,4.585c-0.734,0.509-1.503,0.968-2.3,1.372
		l-3.338-3.677c-0.061-0.063-0.137-0.109-0.222-0.133c-0.021-0.007-0.042-0.012-0.064-0.015c-0.083-0.017-0.17-0.013-0.251,0.014
		l0,0c-0.751,0.275-1.523,0.486-2.309,0.632h-0.008c-0.106,0.027-0.201,0.085-0.273,0.168c-0.062,0.065-0.104,0.147-0.121,0.235
		l-0.829,4.84c-0.89,0.064-1.784,0.067-2.675,0.007l-1-4.87c-0.02-0.085-0.062-0.163-0.123-0.226
		c-0.015-0.017-0.031-0.033-0.048-0.047c-0.064-0.057-0.141-0.098-0.225-0.117l0,0l-0.1-0.018l-0.121-0.023
		c-0.652-0.134-1.294-0.312-1.922-0.533h-0.008c-0.085-0.027-0.175-0.03-0.262-0.009c-0.106,0.026-0.203,0.082-0.279,0.161
		l-3.136,3.78c-0.804-0.388-1.581-0.831-2.324-1.326l1.568-4.718c0.026-0.085,0.028-0.175,0.006-0.261
		c-0.004-0.019-0.009-0.038-0.016-0.056c-0.026-0.084-0.074-0.159-0.138-0.219l0,0c-0.536-0.458-1.037-0.955-1.5-1.487l-0.008-0.005
		c-0.061-0.064-0.138-0.111-0.223-0.136c-0.019-0.006-0.039-0.01-0.059-0.013c-0.088-0.019-0.18-0.014-0.265,0.015l-4.59,1.743
		c-0.508-0.735-0.965-1.503-1.368-2.3l3.685-3.33c0.064-0.061,0.11-0.138,0.134-0.223c0.006-0.019,0.011-0.039,0.015-0.059
		c0.018-0.085,0.014-0.174-0.014-0.257l0,0c-0.268-0.738-0.474-1.496-0.617-2.268v-0.007c-0.019-0.087-0.061-0.166-0.122-0.231
		c-0.013-0.015-0.028-0.029-0.044-0.041c-0.066-0.062-0.148-0.104-0.237-0.122l-4.841-0.826c-0.065-0.891-0.067-1.785-0.007-2.676
		l4.869-1c0.087-0.02,0.166-0.064,0.23-0.126c0.014-0.013,0.028-0.027,0.041-0.042c0.059-0.065,0.1-0.144,0.119-0.229l0,0l0.017-0.1
		l0.023-0.126c0.133-0.649,0.311-1.289,0.531-1.914V20.2c0.027-0.085,0.03-0.175,0.009-0.261c-0.004-0.019-0.01-0.039-0.017-0.057
		c-0.026-0.087-0.076-0.164-0.144-0.224L7.44,16.519c0.387-0.805,0.83-1.582,1.324-2.326l4.719,1.567
		c0.051,0.017,0.104,0.025,0.158,0.025c0.006,0,0.011,0,0.017,0c0.047-0.003,0.094-0.012,0.138-0.029
		c0.02-0.005,0.04-0.01,0.059-0.017c0.062-0.03,0.118-0.072,0.164-0.123l0,0c0.459-0.535,0.955-1.036,1.485-1.5v-0.007
		c0.066-0.061,0.113-0.138,0.138-0.224c0.005-0.019,0.01-0.038,0.013-0.057c0.019-0.088,0.014-0.18-0.015-0.266L13.9,8.971
		c0.735-0.509,1.503-0.967,2.3-1.371l3.33,3.682c0.046,0.051,0.102,0.092,0.165,0.12c0.021,0.009,0.044,0.009,0.066,0.016
		c0.041,0.014,0.084,0.023,0.127,0.026h0.013c0.048-0.001,0.095-0.01,0.141-0.025c0.008,0.001,0.017,0.001,0.025,0l0,0
		c0.734-0.266,1.489-0.472,2.257-0.616c0.008,0,0.013-0.01,0.022-0.012c0.086-0.019,0.164-0.062,0.228-0.122
		c0.01-0.01,0.017-0.02,0.026-0.03c0.064-0.068,0.107-0.153,0.124-0.244l0.82-4.843C24.437,5.487,25.333,5.484,26.226,5.542z"/>
</g>
</svg>
