<?xml version="1.0" encoding="utf-8"?>
<!-- Generator: Adobe Illustrator 25.2.3, SVG Export Plug-In . SVG Version: 6.00 Build 0)  -->
<svg version="1.1" id="Layer_1" xmlns="http://www.w3.org/2000/svg" xmlns:xlink="http://www.w3.org/1999/xlink" x="0px" y="0px"
	 viewBox="0 0 50 50" style="enable-background:new 0 0 50 50;" xml:space="preserve">
<g id="e4dfd003-6179-4525-9901-6911cb122846">
	<path style="fill:#1D9CD3;" d="M46.47,38.322l-5.964,0.092c7.385-8.604,6.397-21.566-2.207-28.951
		C31.061,3.25,20.497,2.841,12.8,8.475c-0.235,0.145-0.307,0.453-0.162,0.688c0.145,0.235,0.453,0.307,0.688,0.162
		c0.024-0.015,0.047-0.032,0.068-0.05c8.704-6.374,20.926-4.485,27.3,4.218c5.319,7.263,4.985,17.221-0.809,24.112l-0.11-5.757
		c-0.005-0.273-0.227-0.491-0.5-0.491h-0.009c-0.276,0.005-0.496,0.233-0.491,0.509c0,0,0,0.001,0,0.001l0.134,7.017
		c-0.013,0.146,0.04,0.291,0.145,0.394l0,0c0.093,0.093,0.22,0.146,0.352,0.146h0.008l7.069-0.109
		c0.276-0.004,0.497-0.231,0.493-0.507c0,0,0-0.001,0-0.001C46.957,38.54,46.738,38.33,46.47,38.322z"/>
	<path style="fill:#1D9CD3;" d="M10.772,39.718c7.172,6.995,18.357,7.76,26.414,1.807c0.235-0.145,0.307-0.453,0.162-0.688
		c-0.145-0.235-0.453-0.307-0.688-0.162c-0.024,0.015-0.047,0.032-0.068,0.05c-8.7,6.379-20.923,4.497-27.302-4.202
		c-5.334-7.275-4.993-17.256,0.826-24.15l0.111,5.792c0.005,0.272,0.228,0.49,0.5,0.49h0.009c0.276-0.005,0.496-0.233,0.491-0.509
		c0,0,0,0,0,0l-0.135-7.071c-0.016-0.286-0.261-0.505-0.547-0.49c-0.003,0-0.007,0-0.01,0.001l-7.02,0.108
		c-0.276,0.002-0.498,0.227-0.497,0.503c0.002,0.276,0.227,0.498,0.503,0.497H3.53L9.463,11.6
		C2.387,19.841,2.961,32.17,10.772,39.718z"/>
	<path style="fill:#1D9CD3;" d="M18.408,23.017c-0.532,1.741-0.343,3.622,0.523,5.223c1.803,3.352,5.982,4.608,9.334,2.805
		c1.602-0.862,2.799-2.322,3.329-4.062c0.531-1.741,0.343-3.622-0.522-5.223c-1.806-3.34-5.968-4.596-9.32-2.814
		C20.138,19.801,18.933,21.267,18.408,23.017z M22.223,19.829c2.855-1.516,6.398-0.431,7.915,2.424s0.431,6.398-2.424,7.915
		c-2.855,1.516-6.398,0.431-7.915-2.424c-0.724-1.364-0.88-2.958-0.434-4.437C19.817,21.813,20.845,20.561,22.223,19.829z"/>
	<path style="fill:#1D9CD3;" d="M13.409,19.2c-0.095-0.01-0.19,0.008-0.275,0.05c-0.018,0.008-0.036,0.016-0.053,0.026
		c-0.079,0.048-0.142,0.117-0.183,0.2c0,0.006-0.011,0.009-0.014,0.015c-0.324,0.709-0.585,1.445-0.781,2.2
		c-0.001,0.014-0.001,0.028,0,0.042c-0.011,0.06-0.011,0.121,0,0.181c0.004,0.021,0.009,0.042,0.015,0.062
		c0.014,0.038,0.032,0.074,0.054,0.108c0.009,0.017,0.02,0.033,0.031,0.049c0.039,0.048,0.086,0.088,0.139,0.119L15,23.746
		c-0.033,0.257-0.056,0.516-0.068,0.775l-2.886,1.127c-0.089,0.038-0.166,0.101-0.219,0.182c-0.011,0.014-0.021,0.028-0.03,0.043
		c-0.046,0.081-0.068,0.172-0.063,0.265c0,0.007-0.005,0.012-0.005,0.019c0.07,0.777,0.208,1.547,0.413,2.3
		c0,0.008,0.01,0.011,0.012,0.019c0.028,0.09,0.082,0.169,0.154,0.229c0.014,0.011,0.027,0.018,0.042,0.028
		c0.08,0.058,0.175,0.09,0.274,0.093l0,0h3.054c0.11,0.268,0.23,0.529,0.36,0.779l-1.932,2.409c-0.059,0.076-0.094,0.169-0.1,0.265
		c-0.003,0.018-0.004,0.036-0.005,0.054c0.001,0.092,0.028,0.183,0.078,0.26c0,0.006,0,0.014,0.006,0.02
		c0.446,0.64,0.948,1.239,1.5,1.79c0.008,0.008,0.019,0.011,0.027,0.019c0.026,0.021,0.054,0.039,0.084,0.055
		c0.052,0.034,0.112,0.055,0.174,0.059c0.022,0.006,0.044,0.01,0.067,0.013c0.009,0,0.017-0.006,0.026-0.007
		c0.078-0.001,0.155-0.022,0.224-0.059l2.645-1.526c0.25,0.193,0.507,0.373,0.772,0.54l-0.441,3.052
		c-0.011,0.096,0.006,0.194,0.051,0.28c0.007,0.016,0.014,0.032,0.023,0.047c0.047,0.08,0.117,0.144,0.2,0.185
		c0.006,0,0.009,0.011,0.015,0.014c0.712,0.324,1.45,0.586,2.207,0.782c0.015,0,0.031,0,0.046,0.005
		c0.013,0.003,0.027,0.004,0.04,0.005c0.013,0,0.026,0,0.039,0s0.027-0.01,0.041-0.011c0.061-0.003,0.12-0.018,0.175-0.044
		c0.021-0.01,0.041-0.018,0.061-0.03c0.068-0.042,0.125-0.1,0.166-0.168l1.5-2.648c0.259,0.033,0.52,0.056,0.78,0.069l1.127,2.878
		c0.075,0.191,0.26,0.317,0.466,0.317h0.043c0.779-0.068,1.551-0.204,2.306-0.408c0.008,0,0.011-0.01,0.019-0.012
		c0.09-0.028,0.17-0.081,0.23-0.154c0.01-0.013,0.02-0.027,0.028-0.042c0.058-0.08,0.091-0.175,0.093-0.274V34.3
		c0.269-0.109,0.53-0.229,0.784-0.358l2.416,1.929c0.082,0.062,0.181,0.097,0.284,0.1c0.01,0,0.018,0.01,0.028,0.01
		s0.013-0.006,0.019-0.007c0.089-0.001,0.175-0.027,0.25-0.074c0.006,0,0.013,0,0.019-0.006c0.642-0.447,1.245-0.949,1.8-1.5
		c0.006-0.007,0.005-0.016,0.011-0.023c0.064-0.069,0.106-0.154,0.123-0.246c0.001-0.017,0.001-0.035,0-0.052
		c0.01-0.098-0.01-0.197-0.057-0.284l-1.525-2.636c0.195-0.251,0.377-0.51,0.547-0.776l3.063,0.442c0.024,0.001,0.047,0.001,0.071,0
		c0.018,0,0.032-0.012,0.05-0.014c0.055-0.007,0.108-0.022,0.157-0.046c0.028-0.01,0.054-0.023,0.08-0.038
		c0.063-0.046,0.115-0.105,0.151-0.174c0-0.008,0.013-0.011,0.017-0.019c0.325-0.709,0.588-1.445,0.785-2.2c0-0.012,0-0.025,0-0.037
		c0.011-0.06,0.011-0.122,0-0.182c-0.003-0.023-0.009-0.045-0.016-0.067c-0.013-0.037-0.031-0.072-0.052-0.105
		c-0.009-0.017-0.02-0.034-0.032-0.05c-0.038-0.048-0.085-0.089-0.139-0.12l-2.656-1.5c0.034-0.259,0.058-0.517,0.07-0.775
		l2.887-1.121c0.089-0.037,0.166-0.1,0.219-0.181c0.011-0.014,0.021-0.028,0.03-0.043c0.046-0.08,0.068-0.172,0.064-0.265
		c0-0.006,0.005-0.012,0.005-0.019c-0.068-0.777-0.204-1.547-0.408-2.3c0-0.007-0.01-0.011-0.012-0.018
		c-0.028-0.09-0.081-0.17-0.154-0.23c-0.013-0.011-0.027-0.02-0.042-0.029c-0.08-0.058-0.175-0.091-0.274-0.093h-3.056
		c-0.109-0.267-0.229-0.528-0.357-0.779l1.936-2.405c0.059-0.077,0.094-0.169,0.1-0.266c0.003-0.018,0.004-0.036,0.005-0.054
		c-0.001-0.092-0.028-0.182-0.077-0.26c0-0.006,0-0.014-0.006-0.02c-0.446-0.641-0.948-1.241-1.5-1.793
		c-0.006-0.006-0.016-0.005-0.022-0.011c-0.069-0.062-0.153-0.104-0.244-0.121c-0.019-0.002-0.039-0.002-0.058,0
		c-0.097-0.01-0.194,0.01-0.279,0.056l-2.646,1.521c-0.261-0.2-0.527-0.388-0.8-0.563l0.436-3.053
		c0.011-0.096-0.007-0.193-0.051-0.279c-0.008-0.017-0.014-0.031-0.023-0.047c-0.048-0.08-0.117-0.144-0.2-0.186
		c-0.006,0-0.008-0.01-0.014-0.013c-0.712-0.323-1.451-0.583-2.208-0.777c-0.013-0.001-0.026-0.001-0.039,0
		c-0.022-0.003-0.045-0.005-0.067-0.006c-0.04-0.002-0.079,0.001-0.118,0.009c-0.02,0-0.038,0.008-0.058,0.014
		c-0.039,0.014-0.075,0.033-0.11,0.055c-0.016,0.011-0.033,0.019-0.048,0.031c-0.048,0.039-0.089,0.086-0.12,0.139l-1.5,2.651
		c-0.259-0.033-0.521-0.055-0.781-0.068l-1.132-2.875c-0.037-0.09-0.102-0.167-0.184-0.22c-0.012-0.009-0.024-0.018-0.037-0.025
		c-0.081-0.049-0.175-0.072-0.27-0.066c-0.006,0-0.011,0-0.017,0c-0.78,0.07-1.552,0.208-2.307,0.413
		c-0.012,0.004-0.024,0.01-0.035,0.016c-0.022,0.008-0.043,0.018-0.063,0.029c-0.034,0.017-0.065,0.038-0.093,0.063
		c-0.017,0.014-0.033,0.029-0.048,0.045c-0.026,0.031-0.048,0.064-0.066,0.1c-0.01,0.017-0.02,0.034-0.028,0.052
		c-0.023,0.057-0.035,0.118-0.036,0.18l0.007,3.042c-0.269,0.11-0.532,0.23-0.783,0.36l-2.425-1.938
		c-0.076-0.059-0.167-0.094-0.263-0.1c-0.019-0.003-0.039-0.004-0.058-0.005c-0.092,0.001-0.181,0.028-0.258,0.078
		c0,0-0.012,0-0.018,0.005c-0.643,0.446-1.245,0.948-1.8,1.5c-0.006,0.006-0.005,0.015-0.01,0.021
		c-0.064,0.07-0.107,0.157-0.123,0.25c-0.001,0.016-0.001,0.031,0,0.047c-0.01,0.099,0.009,0.199,0.057,0.287l1.531,2.633
		c-0.194,0.25-0.375,0.51-0.544,0.776L13.409,19.2z M21.837,16.518l0.007-0.006c0.082-0.034,0.154-0.089,0.207-0.16
		c0.012-0.015,0.022-0.031,0.032-0.048c0.05-0.076,0.078-0.165,0.08-0.256l-0.007-3c0.459-0.11,0.923-0.194,1.392-0.249l1.113,2.828
		c0.035,0.08,0.091,0.149,0.161,0.2c0.016,0.012,0.033,0.024,0.05,0.034c0.073,0.048,0.158,0.075,0.246,0.079l0,0
		c0.442,0.007,0.883,0.045,1.32,0.115h0.018h0.011c0.017,0.001,0.035,0.001,0.052,0c0.015,0,0.028-0.01,0.044-0.012
		c0.057-0.005,0.112-0.02,0.163-0.044c0.022-0.008,0.043-0.019,0.063-0.031c0.068-0.041,0.125-0.099,0.165-0.167l1.476-2.591
		c0.453,0.132,0.898,0.288,1.333,0.47l-0.429,3c-0.01,0.088,0.004,0.177,0.041,0.258c0.007,0.018,0.015,0.035,0.025,0.052
		c0.04,0.078,0.101,0.144,0.176,0.19l0,0c0.434,0.252,0.846,0.54,1.232,0.861l0.01,0.006c0.017,0.011,0.034,0.021,0.052,0.03
		c0.035,0.023,0.072,0.041,0.112,0.054c0.02,0.006,0.041,0.007,0.061,0.011c0.028,0.007,0.056,0.011,0.084,0.014
		c0.009,0,0.017-0.006,0.025-0.007c0.078-0.001,0.155-0.022,0.224-0.059l2.606-1.5c0.32,0.343,0.621,0.704,0.9,1.081l-1.902,2.378
		c-0.137,0.176-0.14,0.422-0.006,0.6c0.008,0.026,0.018,0.052,0.03,0.077c0.196,0.369,0.367,0.75,0.513,1.141v0.007
		c0.034,0.082,0.089,0.153,0.16,0.206c0.015,0.012,0.031,0.023,0.048,0.032c0.076,0.05,0.164,0.078,0.255,0.08h3.01
		c0.109,0.456,0.191,0.919,0.246,1.385l-2.84,1.1c-0.08,0.034-0.149,0.089-0.2,0.16c-0.013,0.015-0.024,0.032-0.034,0.049
		c-0.048,0.073-0.076,0.158-0.08,0.245l0,0c-0.008,0.441-0.048,0.881-0.119,1.316v0.008c-0.011,0.089,0.002,0.179,0.037,0.261
		c0.008,0.018,0.016,0.035,0.026,0.052c0.041,0.083,0.104,0.152,0.183,0.2l2.614,1.476c-0.133,0.45-0.291,0.892-0.474,1.324
		l-3.014-0.435c-0.085-0.009-0.171,0.005-0.25,0.039c-0.023,0.009-0.045,0.019-0.066,0.032c-0.075,0.04-0.139,0.099-0.185,0.17l0,0
		c-0.25,0.422-0.534,0.824-0.85,1.2v0.009c-0.054,0.07-0.089,0.153-0.1,0.241c0,0.021,0,0.039,0,0.059
		c-0.005,0.091,0.015,0.181,0.059,0.261l1.5,2.594c-0.344,0.32-0.707,0.621-1.085,0.9l-2.379-1.9c-0.179-0.136-0.426-0.136-0.605,0
		c-0.027,0.008-0.053,0.018-0.078,0.03c-0.368,0.195-0.749,0.365-1.14,0.509l-0.007,0.005c-0.082,0.034-0.154,0.09-0.207,0.161
		c-0.012,0.015-0.023,0.031-0.033,0.048c-0.05,0.076-0.078,0.164-0.08,0.255v2.994c-0.459,0.109-0.924,0.191-1.392,0.246
		l-1.108-2.831c-0.044-0.099-0.117-0.181-0.209-0.237c-0.074-0.048-0.158-0.075-0.246-0.08l0,0c-0.442-0.007-0.883-0.047-1.32-0.118
		h-0.008c-0.086-0.012-0.174,0-0.255,0.033c-0.023,0.009-0.045,0.021-0.066,0.034c-0.077,0.041-0.142,0.103-0.187,0.178l-1.48,2.607
		c-0.452-0.133-0.897-0.29-1.332-0.472l0.433-3c0.011-0.088-0.002-0.177-0.039-0.258c-0.012-0.015-0.025-0.029-0.039-0.042
		c-0.041-0.078-0.101-0.143-0.175-0.19l0,0c-0.422-0.248-0.823-0.53-1.2-0.842h-0.007c-0.071-0.055-0.155-0.09-0.244-0.1
		c-0.019-0.001-0.038-0.001-0.057,0c-0.09-0.005-0.18,0.015-0.26,0.058l-2.6,1.5c-0.322-0.342-0.624-0.702-0.905-1.079l1.9-2.372
		c0.055-0.07,0.09-0.154,0.1-0.243c0.003-0.02,0.005-0.041,0.005-0.061c0.004-0.087-0.015-0.174-0.056-0.251l0,0l-0.078-0.136
		c-0.193-0.363-0.362-0.738-0.506-1.123v-0.007c-0.034-0.082-0.089-0.153-0.16-0.206c-0.016-0.012-0.032-0.023-0.049-0.033
		c-0.076-0.05-0.164-0.077-0.254-0.08l0,0h-3.006c-0.11-0.456-0.193-0.918-0.249-1.383l2.82-1.119c0.08-0.035,0.149-0.09,0.2-0.161
		c0.012-0.016,0.024-0.033,0.034-0.05c0.048-0.073,0.076-0.158,0.079-0.245l0,0c0.007-0.441,0.046-0.88,0.116-1.315v-0.01
		c0.015-0.088,0.005-0.179-0.029-0.262c-0.007-0.018-0.015-0.035-0.025-0.051c-0.041-0.083-0.105-0.152-0.184-0.2l-2.616-1.471
		c0.132-0.451,0.289-0.893,0.472-1.326l3.014,0.429c0.023,0.001,0.047,0.001,0.07,0c0.02,0,0.036-0.013,0.055-0.015
		c0.045-0.006,0.089-0.017,0.131-0.035c0.029-0.008,0.057-0.019,0.083-0.033c0.061-0.039,0.113-0.09,0.152-0.15h0.005
		c0.249-0.425,0.532-0.829,0.847-1.207v-0.009c0.054-0.071,0.089-0.155,0.1-0.243c0-0.02,0-0.037,0-0.057
		c0.005-0.091-0.015-0.182-0.059-0.262l-1.507-2.591c0.344-0.32,0.706-0.621,1.084-0.9l2.383,1.9c0.082,0.062,0.181,0.097,0.283,0.1
		c0.01,0,0.018,0.01,0.028,0.01c0.007-0.001,0.015-0.003,0.022-0.006c0.077-0.002,0.153-0.021,0.221-0.057l0,0l0.144-0.082
		c0.366-0.197,0.745-0.369,1.134-0.514L21.837,16.518z"/>
</g>
</svg>
