<?xml version="1.0" encoding="utf-8"?>
<!-- Generator: Adobe Illustrator 25.2.3, SVG Export Plug-In . SVG Version: 6.00 Build 0)  -->
<svg version="1.1" id="f233472f-6489-494a-957d-d190e77dec66"
	 xmlns="http://www.w3.org/2000/svg" xmlns:xlink="http://www.w3.org/1999/xlink" x="0px" y="0px" viewBox="0 0 50 50"
	 style="enable-background:new 0 0 50 50;" xml:space="preserve">
<path style="fill:#FFFFFF;" d="M32.024,17.289c-4.311-3.879-10.95-3.529-14.829,0.781s-3.529,10.95,0.781,14.829
	c4.31,3.879,10.949,3.529,14.828-0.781C36.676,27.805,36.327,21.172,32.024,17.289z M32.062,31.449
	c-3.51,3.9-9.517,4.216-13.416,0.706s-4.216-9.517-0.706-13.416c3.51-3.9,9.516-4.216,13.416-0.707
	C35.25,21.544,35.566,27.547,32.062,31.449z"/>
<path style="fill:#FFFFFF;" d="M45.4,23.133c-0.012-0.093-0.052-0.181-0.113-0.253c-0.011-0.012-0.023-0.023-0.036-0.034
	c-0.069-0.071-0.159-0.119-0.256-0.138l-4.884-0.823c-0.109-0.512-0.243-1.019-0.4-1.516l3.774-3.31
	c0.071-0.065,0.121-0.15,0.143-0.244c0.006-0.017,0.01-0.034,0.014-0.052c0.016-0.091,0.005-0.185-0.031-0.27
	c0-0.007,0-0.014,0-0.02c-0.507-1.092-1.109-2.137-1.8-3.123c-0.005-0.007-0.014-0.008-0.019-0.014
	c-0.056-0.074-0.133-0.131-0.221-0.162c-0.018-0.006-0.036-0.01-0.054-0.014c-0.094-0.026-0.193-0.024-0.286,0.006l-4.657,1.691
	c-0.374-0.421-0.769-0.822-1.186-1.2l1.613-4.745c0.028-0.093,0.028-0.191,0-0.284c-0.003-0.017-0.008-0.034-0.014-0.05
	c-0.031-0.087-0.087-0.163-0.161-0.219c0,0-0.006-0.012-0.011-0.016c-0.983-0.696-2.026-1.304-3.116-1.816c-0.008,0-0.016,0-0.024,0
	c-0.086-0.037-0.18-0.047-0.272-0.031c-0.018,0.004-0.036,0.009-0.054,0.016c-0.095,0.023-0.18,0.075-0.245,0.148l-3.191,3.792
	c-0.574-0.192-1.159-0.351-1.752-0.475l-1.017-4.916C27.122,4.966,27.072,4.879,27,4.813c-0.012-0.012-0.021-0.023-0.034-0.034
	c-0.072-0.059-0.159-0.096-0.251-0.107c-0.008,0-0.013-0.008-0.02-0.009c-1.201-0.098-2.408-0.092-3.607,0.02
	c-0.009,0-0.015,0.009-0.025,0.011c-0.09,0.013-0.175,0.051-0.245,0.109c-0.016,0.014-0.026,0.028-0.041,0.043
	c-0.069,0.068-0.116,0.156-0.135,0.251l-0.83,4.883c-0.513,0.108-1.021,0.242-1.517,0.4L16.991,6.6
	c-0.066-0.072-0.151-0.122-0.246-0.145c-0.017,0-0.031-0.01-0.049-0.013c-0.092-0.016-0.186-0.005-0.272,0.031
	c-0.006,0-0.013,0-0.019,0c-1.093,0.507-2.139,1.109-3.126,1.8c-0.011,0.008-0.018,0.02-0.028,0.028
	c-0.018,0.015-0.035,0.031-0.05,0.048c-0.025,0.028-0.047,0.058-0.066,0.091c-0.011,0.019-0.021,0.039-0.03,0.059
	c-0.014,0.037-0.023,0.076-0.028,0.115c-0.005,0.019-0.008,0.039-0.009,0.059c-0.003,0.062,0.006,0.123,0.027,0.181l1.684,4.659
	c-0.423,0.373-0.826,0.77-1.206,1.187L8.83,13.077c-0.093-0.027-0.191-0.027-0.284,0c-0.017,0.003-0.034,0.008-0.05,0.014
	c-0.087,0.031-0.163,0.087-0.22,0.16c0,0.006-0.012,0.006-0.016,0.012c-0.697,0.983-1.305,2.025-1.819,3.114
	c0,0.008,0,0.016,0,0.024c-0.036,0.086-0.047,0.182-0.031,0.274c0,0.018,0.009,0.032,0.014,0.049
	c0.024,0.096,0.076,0.182,0.15,0.248l3.787,3.2c-0.195,0.578-0.355,1.167-0.481,1.764l-4.912,1.003
	c-0.094,0.022-0.18,0.072-0.246,0.143c-0.013,0.012-0.025,0.024-0.037,0.037c-0.058,0.072-0.095,0.158-0.107,0.25
	c0,0.007-0.008,0.012-0.008,0.019c-0.099,1.2-0.093,2.407,0.018,3.606c0,0.009,0.009,0.014,0.01,0.022
	c0.013,0.093,0.051,0.18,0.112,0.251c0.012,0.012,0.024,0.024,0.037,0.035C4.815,27.373,4.904,27.421,5,27.44l4.882,0.833
	c0.108,0.512,0.241,1.018,0.4,1.517L6.5,33.093c-0.071,0.065-0.121,0.15-0.144,0.244c-0.005,0.017-0.01,0.034-0.013,0.051
	c-0.016,0.091-0.005,0.185,0.03,0.27c0,0.007,0,0.014,0,0.02c0.507,1.094,1.109,2.14,1.8,3.128c0.006,0.008,0.016,0.011,0.022,0.019
	c0.037,0.047,0.083,0.087,0.135,0.117c0.011,0.007,0.02,0.018,0.031,0.024c0.066,0.032,0.138,0.049,0.211,0.051h0.011
	c0.058,0,0.116-0.01,0.17-0.03l4.661-1.682c0.373,0.425,0.769,0.829,1.186,1.21l-1.623,4.742c-0.028,0.093-0.028,0.191,0,0.284
	c0.003,0.017,0.008,0.034,0.013,0.051c0.033,0.087,0.089,0.163,0.162,0.22c0,0,0.006,0.011,0.011,0.015
	c0.982,0.697,2.024,1.307,3.113,1.821c0.011,0,0.022,0,0.032,0.007c0.041,0.015,0.083,0.024,0.126,0.028
	c0.019,0,0.037,0.012,0.055,0.012s0.013,0,0.02,0c0.046-0.003,0.092-0.014,0.135-0.03c0.021-0.004,0.041-0.009,0.061-0.017
	c0.064-0.029,0.121-0.072,0.166-0.126l3.2-3.786c0.593,0.2,1.197,0.364,1.809,0.491l1.02,4.903c0.021,0.1,0.074,0.191,0.15,0.259
	c0.006,0,0.009,0.012,0.015,0.017c0.075,0.062,0.166,0.101,0.262,0.112c0.008,0,0.014,0.008,0.022,0.009
	c0.553,0.044,1.109,0.066,1.663,0.066c0.635,0,1.267-0.031,1.894-0.089l0,0c0.014,0,0.03,0,0.045,0s0.013-0.008,0.022-0.009
	c0.097-0.013,0.189-0.054,0.263-0.119c0.007-0.006,0.01-0.013,0.017-0.019c0.075-0.071,0.125-0.165,0.143-0.267l0.821-4.885
	c0.512-0.108,1.018-0.241,1.516-0.4l3.312,3.773c0,0,0.01,0.006,0.014,0.01c0.043,0.047,0.095,0.085,0.152,0.112
	c0.019,0.006,0.038,0.011,0.058,0.015c0.044,0.017,0.09,0.026,0.137,0.029h0.015c0.019-0.003,0.038-0.007,0.056-0.013
	c0.044-0.003,0.087-0.013,0.129-0.028c0.008-0.002,0.017-0.004,0.025-0.006c1.092-0.507,2.136-1.109,3.122-1.8
	c0.01-0.009,0.02-0.019,0.029-0.029c0.017-0.014,0.034-0.03,0.048-0.047c0.026-0.028,0.048-0.059,0.067-0.092
	c0.011-0.018,0.021-0.038,0.029-0.058c0.015-0.037,0.024-0.076,0.029-0.116c0.004-0.019,0.007-0.039,0.009-0.058
	c0.002-0.062-0.008-0.123-0.028-0.181l-1.693-4.657c0.421-0.373,0.822-0.769,1.2-1.185l4.746,1.611
	c0.052,0.017,0.106,0.026,0.161,0.026h0.013c0.074-0.001,0.147-0.019,0.213-0.052l0.01-0.007c0.06-0.034,0.112-0.079,0.154-0.134
	c0.005-0.007,0.013-0.009,0.018-0.016c0.695-0.983,1.302-2.027,1.814-3.117c0-0.007,0-0.015,0-0.022
	c0.037-0.087,0.047-0.183,0.03-0.276c-0.003-0.016-0.008-0.032-0.013-0.048c-0.024-0.096-0.077-0.183-0.151-0.248l-3.794-3.189
	c0.194-0.578,0.353-1.168,0.476-1.765l4.909-1.02c0.094-0.022,0.18-0.071,0.246-0.142c0.013-0.012,0.025-0.025,0.036-0.038
	c0.058-0.072,0.095-0.158,0.107-0.25c0-0.007,0.007-0.012,0.008-0.019c0.097-1.2,0.089-2.407-0.024-3.606
	C45.408,23.146,45.4,23.141,45.4,23.133z M34.333,36.121v0.007c-0.065,0.06-0.114,0.136-0.14,0.221
	c-0.006,0.019-0.01,0.038-0.014,0.057c-0.021,0.088-0.017,0.181,0.012,0.267l1.678,4.616c-0.741,0.499-1.515,0.946-2.317,1.339
	l-3.286-3.738c-0.06-0.064-0.136-0.111-0.221-0.136c-0.019-0.007-0.039-0.012-0.059-0.016c-0.085-0.02-0.173-0.016-0.256,0.009l0,0
	c-0.666,0.229-1.347,0.409-2.039,0.54l0,0c-0.09,0.019-0.173,0.063-0.239,0.128c-0.012,0.011-0.023,0.023-0.034,0.036
	c-0.063,0.068-0.105,0.152-0.123,0.242l-0.814,4.843c-0.891,0.066-1.785,0.072-2.677,0.017l-1.013-4.862
	c-0.021-0.086-0.064-0.166-0.125-0.23l-0.041-0.04c-0.065-0.06-0.145-0.101-0.232-0.119l0,0c-0.786-0.145-1.559-0.355-2.311-0.627
	h-0.008c-0.085-0.028-0.177-0.032-0.264-0.011c-0.018,0.004-0.036,0.009-0.053,0.015c-0.088,0.026-0.166,0.076-0.227,0.144
	l-3.169,3.752c-0.8-0.397-1.572-0.848-2.31-1.352l1.609-4.7c0.027-0.085,0.03-0.175,0.009-0.261c0-0.02-0.009-0.037-0.015-0.057
	c-0.025-0.084-0.073-0.16-0.137-0.219l0,0l-0.175-0.149c-0.496-0.447-0.961-0.927-1.392-1.437l-0.007-0.005
	c-0.06-0.067-0.138-0.115-0.224-0.141c-0.017-0.006-0.034-0.01-0.051-0.013c-0.089-0.023-0.184-0.019-0.271,0.011l-4.619,1.666
	c-0.497-0.741-0.942-1.516-1.333-2.318l3.746-3.272c0.065-0.059,0.113-0.135,0.138-0.22c0.007-0.019,0.012-0.039,0.015-0.059
	c0.02-0.085,0.018-0.174-0.008-0.257l0,0c-0.228-0.666-0.407-1.348-0.535-2.04l-0.005-0.008c-0.019-0.087-0.062-0.167-0.123-0.231
	c-0.013-0.014-0.026-0.028-0.041-0.04c-0.067-0.062-0.149-0.105-0.239-0.122l-4.84-0.826c-0.065-0.891-0.069-1.785-0.012-2.677
	l4.864-1c0.086-0.019,0.166-0.062,0.229-0.124c0.015-0.014,0.029-0.028,0.042-0.043c0.059-0.064,0.1-0.143,0.119-0.229l0,0
	c0.145-0.772,0.352-1.531,0.619-2.269v-0.008c0.028-0.085,0.032-0.175,0.012-0.262c-0.004-0.019-0.01-0.038-0.016-0.056
	c-0.026-0.087-0.076-0.166-0.144-0.226l-3.753-3.175c0.397-0.8,0.848-1.573,1.351-2.311l4.705,1.607
	c0.052,0.018,0.106,0.027,0.161,0.027c0.006,0.001,0.013,0.001,0.019,0c0.043-0.003,0.085-0.012,0.125-0.027
	c0.024-0.004,0.047-0.01,0.07-0.018c0.062-0.029,0.117-0.071,0.162-0.122l0,0l0.07-0.082l0.082-0.1
	c0.445-0.492,0.922-0.953,1.429-1.38l0.005-0.007c0.065-0.059,0.113-0.135,0.139-0.22c0.007-0.019,0.012-0.038,0.015-0.058
	c0.021-0.088,0.017-0.18-0.012-0.266l-1.667-4.621c0.742-0.498,1.517-0.944,2.32-1.334l3.274,3.744
	c0.046,0.051,0.102,0.093,0.165,0.122c0.022,0.008,0.045,0.014,0.068,0.018c0.041,0.014,0.083,0.023,0.126,0.027
	c0.006,0,0.011,0,0.017,0c0.047-0.001,0.093-0.008,0.137-0.023c0.007,0,0.015,0,0.022,0l0,0c0.666-0.228,1.347-0.407,2.039-0.536
	c0.009,0,0.014-0.01,0.023-0.012c0.085-0.02,0.163-0.062,0.227-0.121c0.011-0.01,0.018-0.021,0.028-0.032
	c0.063-0.068,0.106-0.152,0.124-0.243l0.822-4.841c0.891-0.065,1.785-0.07,2.677-0.013l1,4.865c0.02,0.086,0.064,0.165,0.125,0.228
	c0.013,0.015,0.027,0.029,0.043,0.042c0.064,0.059,0.143,0.1,0.228,0.119l0,0c0.771,0.142,1.53,0.347,2.268,0.612h0.012
	c0.022,0.006,0.045,0.01,0.068,0.012c0.029,0.007,0.059,0.012,0.089,0.015c0.007,0,0.012,0,0.019,0
	c0.049-0.003,0.098-0.014,0.144-0.031c0.017-0.007,0.036-0.008,0.053-0.016c0.064-0.03,0.121-0.073,0.167-0.127l3.162-3.758
	c0.801,0.396,1.573,0.846,2.312,1.348l-1.6,4.707c-0.026,0.085-0.029,0.175-0.009,0.261c0.004,0.02,0.009,0.039,0.016,0.058
	c0.026,0.083,0.072,0.158,0.136,0.218l0,0l0.2,0.166c0.487,0.44,0.943,0.913,1.367,1.414l0.009,0.006
	c0.044,0.051,0.098,0.092,0.158,0.121c0.016,0.005,0.032,0.01,0.049,0.013c0.048,0.019,0.1,0.031,0.152,0.033h0.013
	c0.058,0,0.115-0.01,0.17-0.029l4.613-1.673c0.498,0.741,0.945,1.516,1.338,2.318L38.8,19.835c-0.065,0.06-0.112,0.136-0.137,0.221
	c-0.006,0.019-0.011,0.039-0.015,0.059c-0.019,0.085-0.016,0.174,0.009,0.257l0,0c0.229,0.666,0.409,1.347,0.54,2.039v0.007
	c0.019,0.088,0.062,0.168,0.124,0.233c0.013,0.014,0.027,0.027,0.041,0.039c0.067,0.062,0.15,0.104,0.239,0.122l4.842,0.816
	c0.066,0.891,0.072,1.785,0.016,2.677L39.6,27.317c-0.086,0.02-0.165,0.063-0.228,0.125c-0.015,0.013-0.029,0.027-0.042,0.043
	c-0.06,0.064-0.101,0.144-0.119,0.23l0,0c-0.143,0.772-0.348,1.531-0.614,2.27V30c-0.027,0.084-0.031,0.175-0.011,0.261
	c0.004,0.019,0.01,0.038,0.016,0.056c0.026,0.087,0.076,0.166,0.144,0.226l3.759,3.157c-0.396,0.8-0.846,1.573-1.348,2.312
	l-4.708-1.6c-0.085-0.026-0.175-0.029-0.261-0.008c-0.018,0.004-0.036,0.009-0.053,0.015c-0.085,0.025-0.161,0.072-0.222,0.136l0,0
	l-0.173,0.2C35.302,35.241,34.832,35.697,34.333,36.121z"/>
<path style="fill:#FFFFFF;" d="M25.464,24.128v-4.872c2.725,0.2,2.815,1.82,2.875,2.914v0.014c0.019,0.273,0.253,0.48,0.526,0.465
	c0.276-0.015,0.487-0.251,0.471-0.527c0-0.002,0-0.004,0-0.006c-0.06-1.1-0.207-3.614-3.873-3.857v-0.665c0-0.276-0.224-0.5-0.5-0.5
	s-0.5,0.224-0.5,0.5v0.666c-1.058-0.014-2.082,0.375-2.863,1.089c-0.576,0.593-0.889,1.393-0.867,2.22
	c0.018,1.394,0.334,2.7,3.735,3.377v5.325c-1.741-0.007-3.146-1.425-3.138-3.166c0-0.093,0.005-0.185,0.013-0.277
	c0-0.276-0.224-0.5-0.5-0.5s-0.5,0.224-0.5,0.5c-0.145,2.302,1.604,4.286,3.907,4.431c0.073,0.005,0.146,0.007,0.218,0.008v1.327
	c0,0.276,0.224,0.5,0.5,0.5s0.5-0.224,0.5-0.5v-1.315c3.453-0.171,4.112-2.143,4.186-3.342
	C29.779,25.85,28.544,24.733,25.464,24.128z M21.729,21.549c-0.015-0.557,0.194-1.098,0.58-1.5c0.597-0.52,1.364-0.801,2.155-0.791
	v4.672C21.753,23.358,21.741,22.48,21.729,21.549z M28.652,27.875c-0.092,1.489-1.172,2.288-3.188,2.4v-5.137
	C28.511,25.771,28.719,26.793,28.652,27.875z"/>
</svg>
