<?xml version="1.0" encoding="utf-8"?>
<!-- Generator: Adobe Illustrator 25.2.3, SVG Export Plug-In . SVG Version: 6.00 Build 0)  -->
<svg version="1.1" id="Layer_1" xmlns="http://www.w3.org/2000/svg" xmlns:xlink="http://www.w3.org/1999/xlink" x="0px" y="0px"
	 viewBox="0 0 50 50" style="enable-background:new 0 0 50 50;" xml:space="preserve">
<g id="bc90c1d2-9bb8-437e-afae-3b9e0642837f">
	<path style="fill:#1D9CD3;" d="M44.013,16.449c0.204-0.856,0.307-1.732,0.307-2.612C44.279,7.533,39.142,2.451,32.838,2.478
		c-4.573,0.003-8.714,2.705-10.559,6.89c-5.102-1.981-10.844,0.548-12.825,5.65C9.083,15.972,8.863,16.978,8.8,18
		c-3.717,0.235-6.54,3.438-6.306,7.156c0.226,3.587,3.227,6.366,6.821,6.318H13c0.276,0,0.5-0.224,0.5-0.5s-0.224-0.5-0.5-0.5H9.318
		c-3.174,0.048-5.786-2.486-5.835-5.66s2.486-5.786,5.66-5.835c0.05-0.001,0.1-0.001,0.15,0c0.276,0,0.5-0.224,0.5-0.5
		c0.039-4.875,4.014-8.801,8.889-8.779c1.264-0.001,2.514,0.265,3.667,0.782c0.252,0.113,0.548,0,0.66-0.253
		c0.004-0.008,0.007-0.017,0.011-0.025c2.081-5.413,8.155-8.114,13.568-6.033c4.011,1.542,6.678,5.372,6.732,9.669
		c0,0.912-0.121,1.82-0.361,2.7c-0.057,0.209,0.028,0.432,0.21,0.55c2.075,1.335,3.329,3.633,3.331,6.1
		c-0.028,4.054-3.332,7.319-7.386,7.3H37c-0.276,0-0.5,0.224-0.5,0.5s0.224,0.5,0.5,0.5h2.114c4.606,0.019,8.357-3.694,8.386-8.3
		C47.502,20.51,46.201,17.996,44.013,16.449z"/>
	<path style="fill:#1D9CD3;" d="M32.538,33.259c0.025,0.061,0.062,0.116,0.108,0.163l0,0l0.009,0.005
		c0.045,0.043,0.097,0.077,0.154,0.1c0.06,0.025,0.125,0.038,0.19,0.038h4.525c0.276,0,0.5-0.224,0.5-0.5s-0.224-0.5-0.5-0.5h-3.405
		c3.856-4.734,3.526-11.612-0.765-15.955c-3.963-3.984-10.187-4.616-14.87-1.51c-0.23,0.153-0.292,0.464-0.139,0.693
		c0.153,0.23,0.464,0.292,0.694,0.139l0,0c4.285-2.841,9.98-2.262,13.606,1.384c3.863,3.911,4.228,10.078,0.855,14.418v-3.221
		c0-0.276-0.224-0.5-0.5-0.5s-0.5,0.224-0.5,0.5v4.554l0,0C32.5,33.133,32.512,33.198,32.538,33.259z"/>
	<path style="fill:#1D9CD3;" d="M25,31.767c3.728,0,6.75-3.022,6.75-6.75s-3.022-6.75-6.75-6.75s-6.75,3.022-6.75,6.75l0,0
		C18.254,28.743,21.274,31.763,25,31.767z M25,19.267c0.981,0,2.012,1.288,2.473,3.37h-4.946C22.988,20.555,24.019,19.267,25,19.267
		z M27.636,23.637c0.115,0.918,0.115,1.848,0,2.766h-5.27c-0.115-0.918-0.115-1.848,0-2.766H27.636z M30.75,25.017
		c-0.002,0.467-0.061,0.933-0.176,1.386h-1.928c0.101-0.919,0.101-1.847,0-2.766h1.929C30.689,24.088,30.748,24.552,30.75,25.017z
		 M25,30.767c-0.98,0-2.009-1.286-2.471-3.364h4.942C27.009,29.481,25.98,30.767,25,30.767z M21.354,26.4h-1.928
		c-0.233-0.907-0.233-1.859,0-2.766h1.929c-0.101,0.919-0.101,1.847,0,2.766H21.354z M19.775,27.4h1.738
		c0.183,1.01,0.559,1.974,1.107,2.842C21.362,29.666,20.353,28.657,19.775,27.4z M27.38,30.242c0.548-0.868,0.924-1.832,1.107-2.842
		h1.738c-0.577,1.258-1.587,2.268-2.845,2.845V30.242z M30.228,22.634h-1.74c-0.183-1.012-0.559-1.979-1.108-2.848
		c1.261,0.577,2.272,1.589,2.848,2.851L30.228,22.634z M22.62,19.789c-0.549,0.869-0.925,1.836-1.108,2.848h-1.74
		C20.348,21.376,21.359,20.365,22.62,19.789z"/>
	<path style="fill:#1D9CD3;" d="M36.26,38.979c-0.909,0.003-1.702,0.62-1.929,1.5h-5.213v-4.324c0.845-0.313,1.65-0.724,2.4-1.223
		c0.23-0.153,0.292-0.464,0.139-0.694s-0.464-0.292-0.694-0.139l0,0c-4.286,2.839-9.98,2.26-13.606-1.385
		C13.495,28.805,13.129,22.64,16.5,18.3v3.22c0,0.276,0.224,0.5,0.5,0.5s0.5-0.224,0.5-0.5v-4.555l0,0
		c0-0.066-0.013-0.131-0.039-0.191c-0.025-0.061-0.062-0.116-0.108-0.162l0,0h-0.009c-0.086-0.086-0.202-0.135-0.324-0.136
		c-0.007,0-0.013,0-0.02,0h-4.524c-0.276,0-0.5,0.224-0.5,0.5s0.224,0.5,0.5,0.5h3.4c-3.856,4.734-3.526,11.612,0.765,15.955
		c1.199,1.202,2.644,2.129,4.236,2.717v4.342h-5.208c-0.276-1.069-1.367-1.713-2.436-1.436s-1.713,1.367-1.436,2.436
		c0.276,1.069,1.367,1.713,2.436,1.436c0.704-0.182,1.255-0.732,1.436-1.436h5.713c0.276,0,0.5-0.224,0.5-0.5v-4.527
		c0.859,0.234,1.741,0.371,2.631,0.407v6.723c-1.069,0.276-1.713,1.367-1.436,2.436c0.276,1.069,1.367,1.713,2.436,1.436
		s1.713-1.367,1.436-2.436c-0.182-0.704-0.732-1.255-1.436-1.436v-6.716c0.879-0.036,1.751-0.17,2.6-0.4v4.506
		c0,0.276,0.224,0.5,0.5,0.5h5.713c0.276,1.069,1.367,1.713,2.437,1.436c1.069-0.276,1.713-1.367,1.436-2.437
		c-0.229-0.886-1.029-1.503-1.944-1.5L36.26,38.979z M13.74,41.979c-0.552,0-1-0.448-1-1s0.448-1,1-1s1,0.448,1,1
		S14.292,41.979,13.74,41.979z M26.013,45.522c0,0.552-0.448,1-1,1s-1-0.448-1-1s0.448-1,1-1
		C25.565,44.522,26.013,44.97,26.013,45.522C26.013,45.522,26.013,45.522,26.013,45.522z M36.26,41.979c-0.552,0-1-0.448-1-1
		s0.448-1,1-1s1,0.448,1,1S36.812,41.979,36.26,41.979z"/>
</g>
</svg>
