<?xml version="1.0" encoding="utf-8"?>
<!-- Generator: Adobe Illustrator 25.2.3, SVG Export Plug-In . SVG Version: 6.00 Build 0)  -->
<svg version="1.1" xmlns="http://www.w3.org/2000/svg" xmlns:xlink="http://www.w3.org/1999/xlink" x="0px" y="0px"
	 viewBox="0 0 50 50" style="enable-background:new 0 0 50 50;" xml:space="preserve">
<g id="Layer_1">
</g>
<g id="Icons">
</g>
<g id="Isolation_Mode">
	<path d="M40.976,24.842c-0.276,0-0.5,0.224-0.5,0.5v2.981c0,0.276,0.224,0.5,0.5,0.5s0.5-0.224,0.5-0.5v-2.981
		C41.476,25.066,41.252,24.842,40.976,24.842z"/>
	<path d="M9.975,28.833c1.103,0,2-0.897,2-2s-0.897-2-2-2s-2,0.897-2,2S8.872,28.833,9.975,28.833z M9.975,25.833
		c0.552,0,1,0.448,1,1c0,0.552-0.448,1-1,1c-0.552,0-1-0.448-1-1C8.975,26.281,9.423,25.833,9.975,25.833z"/>
	<path d="M6.361,31.333h9.319c0.38,0.734,0.854,1.41,1.403,2.019l-1.946,1.946c-0.648-0.343-1.467-0.249-2.011,0.295l-5.148,5.148
		c-0.324,0.324-0.502,0.754-0.502,1.211c-0.001,0.458,0.178,0.889,0.502,1.212c0.334,0.334,0.772,0.501,1.212,0.501
		c0.438,0,0.877-0.167,1.211-0.501l5.149-5.149c0.544-0.545,0.637-1.364,0.295-2.011l1.946-1.946
		c1.703,1.535,3.949,2.479,6.417,2.479c3.709,0,6.927-2.118,8.526-5.205h10.856c1.04,0,1.887-0.846,1.887-1.886v-5.191
		c0-0.561-0.245-1.061-0.629-1.413c0.383-0.346,0.629-0.841,0.629-1.396v-5.191c0-0.561-0.245-1.061-0.629-1.413
		c0.383-0.346,0.629-0.841,0.629-1.396V8.256c0-1.06-0.862-1.923-1.923-1.923H6.361c-1.04,0-1.886,0.846-1.886,1.886v5.228
		c0,0.55,0.241,1.041,0.617,1.386c-0.377,0.345-0.617,0.836-0.617,1.386v5.228c0,0.55,0.241,1.041,0.617,1.386
		c-0.377,0.345-0.617,0.836-0.617,1.386v5.228C4.476,30.487,5.321,31.333,6.361,31.333z M14.843,37.309l-5.149,5.149
		c-0.278,0.279-0.732,0.277-1.009,0c-0.135-0.135-0.21-0.314-0.209-0.505c0-0.19,0.074-0.37,0.209-0.504l5.148-5.149
		c0.139-0.139,0.322-0.208,0.505-0.208s0.366,0.069,0.505,0.208C15.121,36.578,15.121,37.031,14.843,37.309z M24.207,35.538
		c-4.743,0-8.603-3.859-8.603-8.602c0-4.744,3.859-8.603,8.603-8.603s8.602,3.859,8.602,8.603
		C32.809,31.679,28.95,35.538,24.207,35.538z M44.476,29.447c0,0.489-0.397,0.886-0.887,0.886H33.176
		c0.402-1.058,0.632-2.2,0.632-3.397c0-1.274-0.255-2.489-0.708-3.603h10.452c0.509,0,0.923,0.414,0.923,0.923V29.447z
		 M5.476,13.447V8.219c0-0.489,0.397-0.886,0.886-0.886h37.191c0.509,0,0.923,0.414,0.923,0.923v5.191
		c0,0.489-0.397,0.886-0.887,0.886h-0.036H6.361C5.873,14.333,5.476,13.936,5.476,13.447z M5.476,21.447v-5.228
		c0-0.489,0.397-0.886,0.886-0.886h37.191c0.509,0,0.923,0.414,0.923,0.923v5.191c0,0.489-0.397,0.886-0.887,0.886H32.63
		c-1.633-2.977-4.796-5-8.423-5c-3.628,0-6.791,2.023-8.424,5H6.361C5.873,22.333,5.476,21.936,5.476,21.447z M15.312,23.333
		c-0.453,1.114-0.708,2.328-0.708,3.603c0,1.197,0.23,2.339,0.632,3.397H6.361c-0.488,0-0.886-0.397-0.886-0.886v-5.228
		c0-0.489,0.397-0.886,0.886-0.886H15.312z"/>
	<path d="M36.976,24.842c-0.276,0-0.5,0.224-0.5,0.5v2.981c0,0.276,0.224,0.5,0.5,0.5s0.5-0.224,0.5-0.5v-2.981
		C37.476,25.066,37.252,24.842,36.976,24.842z"/>
	<path d="M40.976,20.824c0.276,0,0.5-0.224,0.5-0.5v-2.981c0-0.276-0.224-0.5-0.5-0.5s-0.5,0.224-0.5,0.5v2.981
		C40.476,20.6,40.699,20.824,40.976,20.824z"/>
	<path d="M36.976,20.824c0.276,0,0.5-0.224,0.5-0.5v-2.981c0-0.276-0.224-0.5-0.5-0.5s-0.5,0.224-0.5,0.5v2.981
		C36.476,20.6,36.699,20.824,36.976,20.824z"/>
	<path d="M32.976,20.824c0.276,0,0.5-0.224,0.5-0.5v-2.981c0-0.276-0.224-0.5-0.5-0.5s-0.5,0.224-0.5,0.5v2.981
		C32.476,20.6,32.699,20.824,32.976,20.824z"/>
	<path d="M9.975,16.833c-1.103,0-2,0.897-2,2s0.897,2,2,2s2-0.897,2-2S11.078,16.833,9.975,16.833z M9.975,19.833
		c-0.552,0-1-0.448-1-1c0-0.552,0.448-1,1-1c0.552,0,1,0.448,1,1C10.975,19.385,10.528,19.833,9.975,19.833z"/>
	<path d="M40.976,8.842c-0.276,0-0.5,0.224-0.5,0.5v2.981c0,0.276,0.224,0.5,0.5,0.5s0.5-0.224,0.5-0.5V9.342
		C41.476,9.066,41.252,8.842,40.976,8.842z"/>
	<path d="M36.976,8.842c-0.276,0-0.5,0.224-0.5,0.5v2.981c0,0.276,0.224,0.5,0.5,0.5s0.5-0.224,0.5-0.5V9.342
		C37.476,9.066,37.252,8.842,36.976,8.842z"/>
	<path d="M32.976,8.842c-0.276,0-0.5,0.224-0.5,0.5v2.981c0,0.276,0.224,0.5,0.5,0.5s0.5-0.224,0.5-0.5V9.342
		C33.476,9.066,33.252,8.842,32.976,8.842z"/>
	<path d="M9.975,8.833c-1.103,0-2,0.897-2,2s0.897,2,2,2s2-0.897,2-2S11.078,8.833,9.975,8.833z M9.975,11.833c-0.552,0-1-0.448-1-1
		c0-0.552,0.448-1,1-1c0.552,0,1,0.448,1,1C10.975,11.385,10.528,11.833,9.975,11.833z"/>
	<path d="M24.207,19.76c-3.956,0-7.175,3.219-7.175,7.175c0,3.956,3.219,7.175,7.175,7.175s7.175-3.219,7.175-7.175
		C31.382,22.979,28.163,19.76,24.207,19.76z M24.207,33.11c-3.405,0-6.175-2.77-6.175-6.175c0-3.405,2.77-6.175,6.175-6.175
		s6.175,2.77,6.175,6.175C30.382,30.34,27.612,33.11,24.207,33.11z"/>
</g>
</svg>
