<svg xmlns="http://www.w3.org/2000/svg" viewBox="0 0 50 50"><g id="e2ca807d-e17c-423c-ab0e-80a110cca18a" data-name="Isolation Mode"><path d="M4.5,29.98a.5.5,0,0,0,.259.458l20,11a.5.5,0,0,0,.482,0l20-11a.5.5,0,0,0-.036-.894l-5.086-2.289,5.122-2.817a.5.5,0,0,0-.036-.894l-5.086-2.289,5.122-2.817a.5.5,0,0,0-.036-.894l-20-9a.5.5,0,0,0-.41,0l-20,9a.5.5,0,0,0-.036.894l5.122,2.817L4.8,23.544a.5.5,0,0,0-.036.894l5.122,2.817L4.8,29.544A.5.5,0,0,0,4.5,29.98ZM25,9.548l18.881,8.5L38.76,20.862h0l-6,3.3h0L25,28.429l-7.758-4.266h0l-6-3.3h0L6.119,18.045ZM10.978,21.858l5.781,3.18h0l8,4.4a.5.5,0,0,0,.482,0l8-4.4h0l5.781-3.18,4.859,2.187-5.122,2.817L25,34.429,11.241,26.862,6.119,24.045Zm0,6,13.781,7.58a.5.5,0,0,0,.482,0l13.781-7.58,4.859,2.187L25,40.429,6.119,30.045Z"/></g></svg>