<?xml version="1.0" encoding="utf-8"?>
<!-- Generator: Adobe Illustrator 25.2.3, SVG Export Plug-In . SVG Version: 6.00 Build 0)  -->
<svg version="1.1" id="a10841e5-c2ae-4c64-b34c-468902c6df7c"
	 xmlns="http://www.w3.org/2000/svg" xmlns:xlink="http://www.w3.org/1999/xlink" x="0px" y="0px" viewBox="0 0 50 50"
	 style="enable-background:new 0 0 50 50;" xml:space="preserve">
<path style="fill:#1D9CD3;" d="M37.118,20.7h-7.445l2.509-16.531c0.042-0.273-0.146-0.528-0.419-0.57
	c-0.181-0.028-0.363,0.046-0.474,0.193l-18.806,24.9c-0.166,0.221-0.121,0.534,0.1,0.7c0.087,0.065,0.192,0.1,0.3,0.1h7.445
	l-2.51,16.527c-0.034,0.226,0.089,0.447,0.3,0.536c0.061,0.026,0.127,0.039,0.194,0.039c0.157,0,0.306-0.074,0.4-0.2L37.517,21.5
	c0.166-0.221,0.121-0.534-0.1-0.7c-0.087-0.065-0.192-0.1-0.3-0.1H37.118z M19.1,44.218l2.3-15.155
	c0.041-0.273-0.146-0.528-0.419-0.569c-0.025-0.004-0.05-0.006-0.075-0.006h-7.019L30.9,5.97l-2.3,15.15
	c-0.041,0.273,0.146,0.528,0.419,0.569c0.025,0.004,0.05,0.006,0.075,0.006h7.021L19.1,44.218z"/>
</svg>
