<?xml version="1.0" encoding="utf-8"?>
<!-- Generator: Adobe Illustrator 25.2.3, SVG Export Plug-In . SVG Version: 6.00 Build 0)  -->
<svg version="1.1" id="b38cab9b-3f9c-4e11-b395-6748393f4f6a"
	 xmlns="http://www.w3.org/2000/svg" xmlns:xlink="http://www.w3.org/1999/xlink" x="0px" y="0px" viewBox="0 0 50 50"
	 style="enable-background:new 0 0 50 50;" xml:space="preserve">
<path style="fill:#1D9CD3;" d="M25,4.5c-7.444,0-13.5,5.8-13.5,12.923c0.008,4.063,1.97,7.874,5.271,10.243
	c0.706,1.275,1.125,2.688,1.229,4.141c0,2.23,1.126,4.48,3.642,4.48h8.577c-0.145,0.513-0.448,0.968-0.865,1.3l-8.1-0.005
	c-0.787-0.004-1.429,0.631-1.434,1.418v0.465l0,0v2.457c0.044,0.834,0.399,1.622,0.994,2.208c1.147,0.995,2.645,1.489,4.159,1.37
	c1.514,0.119,3.013-0.375,4.159-1.371c0.595-0.585,0.95-1.372,0.995-2.206v-0.617c-0.003-0.786-0.641-1.422-1.427-1.421h-7.45
	c-0.235,0.002-0.427-0.186-0.429-0.421c0,0,0,0,0,0V39c0.002-0.235,0.194-0.424,0.429-0.422l8.192,0.005
	c0.048,0,0.096-0.007,0.142-0.021c0.951-0.283,1.525-1.624,1.779-2.584c0.018-0.043,0.029-0.089,0.034-0.135
	c0.051-0.202,0.089-0.406,0.113-0.613l0.059-0.611c0.328-2.45,0.966-4.848,1.9-7.136c3.157-2.383,5.018-6.105,5.031-10.06
	C38.5,10.3,32.444,4.5,25,4.5z M21.249,40.885H28.7c0.234-0.002,0.426,0.187,0.428,0.421v0.616c0,0.105-0.078,2.578-4.154,2.578
	s-4.152-2.473-4.153-2.577v-1.1C20.96,40.866,21.104,40.886,21.249,40.885z M32.749,26.772c-0.075,0.056-0.132,0.132-0.166,0.219
	c-1,2.427-1.678,4.974-2.016,7.577l-0.056,0.56c-0.006,0.052-0.013,0.105-0.021,0.159h-8.849c-2.568,0-2.642-3.124-2.642-3.48
	c-0.108-1.649-0.581-3.253-1.387-4.695c-0.036-0.072-0.089-0.135-0.154-0.183c-3.098-2.176-4.947-5.72-4.958-9.506
	C12.5,10.849,18.107,5.5,25,5.5s12.5,5.349,12.5,11.923c-0.015,3.692-1.776,7.159-4.748,9.349H32.749z"/>
</svg>
