<svg xmlns="http://www.w3.org/2000/svg" viewBox="0 0 50 50"><g id="f47ca4d2-fe13-45ce-b02c-435ec54030a8" data-name="Isolation Mode"><path d="M6.925,37.5h20.8a2.423,2.423,0,0,0,2.424-2.416V21.956a2.423,2.423,0,0,0-2.424-2.416h-5.55a.5.5,0,0,0,0,1h5.55a1.422,1.422,0,0,1,1.424,1.416V35.084A1.422,1.422,0,0,1,27.727,36.5H6.925A1.422,1.422,0,0,1,5.5,35.084V21.956A1.422,1.422,0,0,1,6.925,20.54h11.23a.5.5,0,0,0,0-1H6.925A2.423,2.423,0,0,0,4.5,21.956V35.084A2.423,2.423,0,0,0,6.925,37.5Z"/><path d="M22.273,30.46h5.3a.5.5,0,1,0,0-1h-5.3a1.422,1.422,0,0,1-1.424-1.416V14.916A1.422,1.422,0,0,1,22.273,13.5h20.8A1.422,1.422,0,0,1,44.5,14.916V28.044a1.422,1.422,0,0,1-1.425,1.416H31.385a.5.5,0,1,0,0,1h11.69A2.423,2.423,0,0,0,45.5,28.044V14.916A2.423,2.423,0,0,0,43.075,12.5h-20.8a2.423,2.423,0,0,0-2.424,2.416V28.044A2.423,2.423,0,0,0,22.273,30.46Z"/></g></svg>