<svg xmlns="http://www.w3.org/2000/svg" viewBox="0 0 50 50"><g id="a3d76a2c-77f2-4f99-8d38-aa34510bd9a8" data-name="Isolation Mode"><path d="M47.489,24.946a.491.491,0,0,0-.024-.12.516.516,0,0,0-.076-.128c-.006-.007-.008-.015-.014-.022l-.007-.008c-.009-.01-.016-.02-.025-.029L42.1,18.67a.5.5,0,0,0-.751.66l4.544,5.17H36.475A8.508,8.508,0,0,0,29.8,16.7l3.5-10.365,3.446,5.959a.5.5,0,1,0,.865-.5L33.625,4.906l-.016-.026L33.6,4.866a.322.322,0,0,0-.024-.028.49.49,0,0,0-.089-.1.471.471,0,0,0-.121-.07.372.372,0,0,0-.034-.019h0a.493.493,0,0,0-.191-.025l-.027.006a.481.481,0,0,0-.138.03L25.608,7.74A.5.5,0,0,0,26,8.663L32.348,6,28.793,16.54c-.262-.024-.525-.04-.793-.04a8.5,8.5,0,0,0-8.475,8H11.449a4.5,4.5,0,1,0,0,1h8.076A8.5,8.5,0,0,0,28,33.5c.268,0,.531-.016.793-.04L32.348,44,26,41.337a.5.5,0,1,0-.387.923l7.367,3.085a.508.508,0,0,0,.193.039l.011,0a.483.483,0,0,0,.154-.026.3.3,0,0,0,.049-.028.5.5,0,0,0,.059-.034.478.478,0,0,0,.149-.148s.008-.006.011-.011l.008-.014.016-.026L37.6,38.212a.5.5,0,1,0-.865-.5L33.293,43.67,29.8,33.305a8.508,8.508,0,0,0,6.679-7.8H45.9l-4.553,5.169a.5.5,0,0,0,.75.662l5.279-5.994a.5.5,0,0,0,.081-.135l0-.009A.481.481,0,0,0,47.5,25v0A.517.517,0,0,0,47.489,24.946ZM7,28.5A3.5,3.5,0,1,1,10.5,25,3.5,3.5,0,0,1,7,28.5Zm21,4A7.5,7.5,0,1,1,35.5,25,7.508,7.508,0,0,1,28,32.5Z"/></g></svg>