<?xml version="1.0" encoding="utf-8"?>
<!-- Generator: Adobe Illustrator 25.2.3, SVG Export Plug-In . SVG Version: 6.00 Build 0)  -->
<svg version="1.1" id="Layer_1" xmlns="http://www.w3.org/2000/svg" xmlns:xlink="http://www.w3.org/1999/xlink" x="0px" y="0px"
	 viewBox="0 0 50 50" style="enable-background:new 0 0 50 50;" xml:space="preserve">
<g id="a3d76a2c-77f2-4f99-8d38-aa34510bd9a8">
	<path style="fill:#1D9CD3;" d="M47.489,24.946c-0.003-0.041-0.011-0.081-0.024-0.12c-0.019-0.046-0.045-0.089-0.076-0.128
		c-0.006-0.007-0.008-0.015-0.014-0.022l-0.007-0.008c-0.009-0.01-0.016-0.02-0.025-0.029L42.1,18.67
		c-0.186-0.204-0.503-0.218-0.706-0.031c-0.198,0.181-0.218,0.486-0.045,0.691l4.544,5.17h-9.418
		c-0.229-3.801-2.955-6.987-6.675-7.8l3.5-10.365l3.446,5.959c0.128,0.245,0.43,0.339,0.675,0.211
		c0.245-0.128,0.339-0.43,0.211-0.675c-0.007-0.012-0.014-0.025-0.021-0.036l-3.986-6.888L33.609,4.88L33.6,4.866
		c-0.007-0.01-0.015-0.019-0.024-0.028c-0.025-0.037-0.055-0.071-0.089-0.1c-0.037-0.029-0.077-0.053-0.121-0.07
		c-0.011-0.007-0.022-0.013-0.034-0.019l0,0c-0.061-0.021-0.126-0.029-0.191-0.025L33.114,4.63c-0.047,0.003-0.094,0.013-0.138,0.03
		l-7.368,3.08c-0.255,0.108-0.374,0.403-0.265,0.658C25.451,8.652,25.745,8.771,26,8.663L32.348,6l-3.555,10.54
		C28.531,16.516,28.268,16.5,28,16.5c-4.496,0.005-8.211,3.512-8.475,8h-8.076c-0.276-2.47-2.502-4.248-4.972-3.972
		S2.229,23.03,2.505,25.5s2.502,4.248,4.972,3.972c2.089-0.234,3.739-1.883,3.972-3.972h8.076c0.264,4.488,3.979,7.995,8.475,8
		c0.268,0,0.531-0.016,0.793-0.04L32.348,44L26,41.337c-0.255-0.107-0.548,0.013-0.655,0.268c-0.107,0.255,0.013,0.548,0.268,0.655
		l0,0l7.367,3.085c0.061,0.025,0.127,0.039,0.193,0.039h0.011c0.052,0,0.104-0.009,0.154-0.026c0.017-0.008,0.034-0.017,0.049-0.028
		c0.02-0.01,0.04-0.021,0.059-0.034c0.06-0.038,0.111-0.088,0.149-0.148c0,0,0.008-0.006,0.011-0.011l0.008-0.014l0.016-0.026
		l3.97-6.885c0.148-0.233,0.079-0.542-0.154-0.69c-0.233-0.148-0.542-0.079-0.69,0.154c-0.008,0.012-0.015,0.024-0.021,0.036
		l-3.442,5.958L29.8,33.305c3.721-0.812,6.45-3.998,6.679-7.8H45.9l-4.553,5.169c-0.183,0.207-0.163,0.523,0.044,0.706
		c0.207,0.183,0.523,0.163,0.706-0.044l5.279-5.994c0.034-0.04,0.061-0.086,0.081-0.135v-0.009C47.485,25.136,47.5,25.068,47.5,25
		l0,0C47.497,24.982,47.494,24.964,47.489,24.946z M7,28.5c-1.933,0-3.5-1.567-3.5-3.5s1.567-3.5,3.5-3.5s3.5,1.567,3.5,3.5
		S8.933,28.5,7,28.5z M28,32.5c-4.142,0-7.5-3.358-7.5-7.5s3.358-7.5,7.5-7.5s7.5,3.358,7.5,7.5C35.496,29.14,32.14,32.496,28,32.5z
		"/>
</g>
</svg>
