<svg xmlns="http://www.w3.org/2000/svg" viewBox="0 0 50 50"><g id="bc34f4ac-b0c6-463d-b542-0f4ec27dac12" data-name="Isolation Mode"><path d="M23.3,36.551l1.412-3.2a.5.5,0,1,0-.914-.4L22.406,36.1a4.268,4.268,0,0,1-3.526,2.408H8.2l3.115-3.138a.5.5,0,1,0-.709-.7L6.649,38.654a.516.516,0,0,0-.111.165.5.5,0,0,0,.111.545l3.957,3.988a.5.5,0,1,0,.709-.7L8.2,39.509H18.88A5.131,5.131,0,0,0,23.3,36.551Z"/><path d="M39.687,26.062a.5.5,0,0,0,.707,0l3.96-3.99A.43.43,0,0,0,44.4,22a.507.507,0,0,0,.058-.087.5.5,0,0,0,0-.386.515.515,0,0,0-.058-.088.466.466,0,0,0-.048-.071l-3.96-3.991a.5.5,0,1,0-.709.7L42.8,21.217H34.693V15.364a.5.5,0,0,0-.5-.5h-1.65V11.069a6.912,6.912,0,1,0-13.823,0v3.8H17.107a.5.5,0,0,0-.5.5v5.853H8.2l3.115-3.139a.5.5,0,1,0-.709-.7L6.649,21.362a.5.5,0,0,0,0,.71l3.957,3.988a.5.5,0,1,0,.709-.7L8.2,22.217h8.407v8.2a.5.5,0,0,0,.5.5h8.071l2.49,5.647a5.121,5.121,0,0,0,4.413,2.947H42.8l-3.115,3.139a.5.5,0,1,0,.709.7l3.959-3.989h0l.008-.011a.493.493,0,0,0,.1-.532.5.5,0,0,0-.112-.166l-3.956-3.986a.5.5,0,1,0-.709.7L42.8,38.509H32.1a4.116,4.116,0,0,1-3.527-2.363l-2.308-5.232h7.924a.5.5,0,0,0,.5-.5v-8.2H42.8l-3.115,3.138A.5.5,0,0,0,39.687,26.062ZM19.72,11.069a5.912,5.912,0,1,1,11.823,0v3.8H19.72ZM17.607,29.915v-7.7H18.88a4.252,4.252,0,0,1,3.5,2.362l2.353,5.336Zm16.086,0H25.828l-2.553-5.786a5.108,5.108,0,0,0-4.395-2.912H17.607V15.864H33.693v5.353H32.057a5.121,5.121,0,0,0-4.393,2.956L26.222,27.4a.5.5,0,0,0,.252.661.505.505,0,0,0,.2.043.5.5,0,0,0,.456-.3l1.438-3.219a4.114,4.114,0,0,1,3.509-2.373h1.612Z"/></g></svg>