<svg viewBox="0 0 128 128" xmlns="http://www.w3.org/2000/svg"><g fill="none" stroke="#231f20" stroke-linecap="round" stroke-linejoin="round" stroke-width="3"><path d="m66.96 60.45 28.99-29.14"/><path d="m104.38 52.61v-29.73h-29.73"/><path d="m76.77 39.37a17.13 17.13 0 0 0 -5.19-.8h-46a17.05 17.05 0 0 0 -17.06 17v46a17.06 17.06 0 0 0 17.06 17.06h46a17.05 17.05 0 0 0 17-17.06v-46a17.05 17.05 0 0 0 -.94-5.6"/><path d="m33.61 74.28h28.74v25.12h-28.74z"/><path d="m58.74 74.28v-7.18a10.76 10.76 0 0 0 -21.52 0v7.18"/><path d="m23 38.84v-15.14a14.39 14.39 0 0 1 14.36-14.35h67.74a14.4 14.4 0 0 1 14.35 14.35v67.74a14.39 14.39 0 0 1 -14.35 14.34h-16.53"/></g></svg>