<svg xmlns="http://www.w3.org/2000/svg" viewBox="0 0 50 50"><g id="b5d0e76e-26f2-4c90-8f8b-cbb189e164ca" data-name="Isolation Mode"><path d="M25,4.5A20.5,20.5,0,1,0,45.5,25,20.523,20.523,0,0,0,25,4.5Zm0,40A19.5,19.5,0,1,1,44.5,25,19.523,19.523,0,0,1,25,44.5Z"/><path d="M16.538,21.339a1.212,1.212,0,0,0-.31-.295,1.488,1.488,0,0,0-.424-.189,1.5,1.5,0,0,0,.621-.463,1.156,1.156,0,0,0,.234-.721,1.438,1.438,0,0,0-.148-.689,1.337,1.337,0,0,0-.42-.479,1.874,1.874,0,0,0-.625-.277,3.283,3.283,0,0,0-.768-.094H12.882V23.82h1.949a2.808,2.808,0,0,0,.779-.112,1.837,1.837,0,0,0,.625-.314,1.436,1.436,0,0,0,.412-.516,1.61,1.61,0,0,0,.149-.714,1.433,1.433,0,0,0-.067-.444A1.31,1.31,0,0,0,16.538,21.339Zm-2.715-2.433h.891a1.784,1.784,0,0,1,.4.049.885.885,0,0,1,.319.142.678.678,0,0,1,.209.25.84.84,0,0,1,.074.367.738.738,0,0,1-.078.346.787.787,0,0,1-.211.254.93.93,0,0,1-.315.156,1.526,1.526,0,0,1-.392.057h-.9Zm1.955,3.625a.8.8,0,0,1-.209.277.973.973,0,0,1-.316.178,1.274,1.274,0,0,1-.406.068H13.823V21.242H14.89a1.235,1.235,0,0,1,.4.068.875.875,0,0,1,.3.182.773.773,0,0,1,.191.287,1.037,1.037,0,0,1,.066.385A.861.861,0,0,1,15.778,22.531Z"/><polygon points="20.797 23.046 19.567 23.046 19.567 18.91 20.797 18.91 20.797 18.132 17.415 18.132 17.415 18.91 18.618 18.91 18.618 23.046 17.415 23.046 17.415 23.82 20.797 23.82 20.797 23.046"/><path d="M21.905,23.154a1.922,1.922,0,0,0,1.573.744,2.979,2.979,0,0,0,.6-.059,2.6,2.6,0,0,0,.525-.164,2.211,2.211,0,0,0,.438-.25,1.944,1.944,0,0,0,.34-.316l-.008-2.168H23.431v.73h1.027l-.008,1.137a.535.535,0,0,1-.172.15,1.1,1.1,0,0,1-.232.1,1.61,1.61,0,0,1-.268.057,2.339,2.339,0,0,1-.273.017,1.023,1.023,0,0,1-.555-.152,1.168,1.168,0,0,1-.377-.4,1.9,1.9,0,0,1-.215-.572,3.549,3.549,0,0,1-.072-.679v-.711a3.665,3.665,0,0,1,.07-.682,1.985,1.985,0,0,1,.207-.574,1.17,1.17,0,0,1,.354-.395.882.882,0,0,1,.51-.146,1.185,1.185,0,0,1,.42.068.833.833,0,0,1,.3.2.955.955,0,0,1,.2.313,1.838,1.838,0,0,1,.109.414h.922a2.321,2.321,0,0,0-.186-.734,1.655,1.655,0,0,0-.4-.557,1.717,1.717,0,0,0-.6-.35,2.408,2.408,0,0,0-.789-.121,1.857,1.857,0,0,0-.875.2,1.929,1.929,0,0,0-.646.549,2.551,2.551,0,0,0-.405.817,3.511,3.511,0,0,0-.14,1.007v.7a3.51,3.51,0,0,0,.146,1.007A2.467,2.467,0,0,0,21.905,23.154Z"/><rect x="26.341" y="20.949" width="3.129" height="0.754"/><polygon points="29.848 18.91 31.051 18.91 31.051 23.046 29.848 23.046 29.848 23.82 33.231 23.82 33.231 23.046 32 23.046 32 18.91 33.231 18.91 33.231 18.132 29.848 18.132 29.848 18.91"/><path d="M37.432,18.611a1.836,1.836,0,0,0-.623-.352,2.517,2.517,0,0,0-.788-.127h-1.9V23.82h.938V21.64h.964a2.517,2.517,0,0,0,.788-.125,1.828,1.828,0,0,0,.623-.348,1.589,1.589,0,0,0,.408-.546,1.708,1.708,0,0,0,.146-.719,1.768,1.768,0,0,0-.146-.736A1.6,1.6,0,0,0,37.432,18.611ZM36.971,20.3a.871.871,0,0,1-.2.309.941.941,0,0,1-.321.2,1.182,1.182,0,0,1-.426.072h-.964V18.89h.964a1.224,1.224,0,0,1,.426.078.93.93,0,0,1,.321.209.919.919,0,0,1,.2.323,1.153,1.153,0,0,1,.07.41A1.056,1.056,0,0,1,36.971,20.3Z"/><polygon points="19.803 26.132 18.866 26.132 18.866 31.82 22.514 31.82 22.514 31.054 19.803 31.054 19.803 26.132"/><polygon points="22.225 26.906 23.959 26.906 23.959 31.82 24.893 31.82 24.893 26.906 26.639 26.906 26.639 26.132 22.225 26.132 22.225 26.906"/><polygon points="29.056 28.589 28.349 26.132 27.185 26.132 27.185 31.82 28.068 31.82 28.068 29.867 28.013 27.468 28.806 30.101 29.298 30.101 30.173 27.375 30.119 29.867 30.119 31.82 31.001 31.82 31.001 26.132 29.837 26.132 29.056 28.589"/></g></svg>