<?xml version="1.0" encoding="utf-8"?>
<!-- Generator: Adobe Illustrator 25.2.3, SVG Export Plug-In . SVG Version: 6.00 Build 0)  -->
<svg version="1.1" id="Layer_1" xmlns="http://www.w3.org/2000/svg" xmlns:xlink="http://www.w3.org/1999/xlink" x="0px" y="0px"
	 viewBox="0 0 50 50" style="enable-background:new 0 0 50 50;" xml:space="preserve">
<g id="Layer_1_1_">
</g>
<g id="Icons">
</g>
<g id="Isolation_Mode">
	<g>
		<path style="fill:#FFFFFF;" d="M44.719,31.521c0-5.294-4.308-9.602-9.602-9.602c-5.295,0-9.603,4.308-9.603,9.602
			c0,2.468,0.944,4.714,2.479,6.417l-1.946,1.946c-0.648-0.343-1.467-0.25-2.011,0.295l-5.149,5.149
			c-0.668,0.668-0.668,1.755,0,2.423c0.324,0.324,0.754,0.502,1.212,0.502s0.888-0.178,1.211-0.502l5.149-5.149
			c0.544-0.544,0.637-1.363,0.295-2.011l1.946-1.946c1.703,1.535,3.949,2.479,6.417,2.479
			C40.411,41.124,44.719,36.816,44.719,31.521z M35.117,22.919c4.743,0,8.602,3.859,8.602,8.602c0,4.744-3.859,8.603-8.602,8.603
			c-4.744,0-8.603-3.859-8.603-8.603C26.514,26.778,30.373,22.919,35.117,22.919z M25.752,41.895l-5.149,5.149
			c-0.271,0.27-0.741,0.269-1.009,0c-0.278-0.278-0.278-0.731,0-1.009l5.149-5.149c0.139-0.139,0.322-0.208,0.504-0.208
			c0.183,0,0.366,0.069,0.505,0.208C26.03,41.164,26.03,41.616,25.752,41.895z"/>
		<path style="fill:#FFFFFF;" d="M35.117,38.696c3.956,0,7.175-3.219,7.175-7.175s-3.219-7.175-7.175-7.175
			c-3.957,0-7.175,3.219-7.175,7.175C27.941,35.478,31.16,38.696,35.117,38.696z M35.117,25.346c3.405,0,6.175,2.77,6.175,6.175
			s-2.77,6.175-6.175,6.175s-6.175-2.77-6.175-6.175C28.941,28.116,31.711,25.346,35.117,25.346z"/>
		<path style="fill:#FFFFFF;" d="M8.108,24.347L5.46,36.138c-0.061,0.269,0.109,0.537,0.378,0.597
			c0.037,0.008,0.074,0.012,0.11,0.012c0.229,0,0.435-0.158,0.487-0.391l2.64-11.76c0.291-0.993,0.937-1.841,1.82-2.39
			c0.031-0.019,3.055-1.89,7.349-2.661c2.402,1.673,4.984,1.663,7.388,0.001c1.393,0.249,2.795,0.633,4.168,1.152
			c0.058,0.022,0.118,0.032,0.177,0.032c0.202,0,0.392-0.123,0.468-0.323c0.098-0.258-0.033-0.547-0.291-0.645
			c-1.157-0.437-2.333-0.783-3.51-1.038C28.732,16.73,30,13.505,30,10.024c0-5.26-2.934-8.277-8.049-8.277s-8.049,3.017-8.049,8.277
			c0,3.48,1.267,6.704,3.353,8.701c-4.035,0.872-6.766,2.557-6.888,2.633C9.275,22.037,8.476,23.087,8.108,24.347z M14.902,10.024
			c0-6.332,4.417-7.277,7.049-7.277S29,3.693,29,10.024c0,3.598-1.438,6.886-3.752,8.585c-0.004,0.003-0.008,0.006-0.012,0.009
			c-2.166,1.582-4.407,1.581-6.573-0.003C16.343,16.919,14.902,13.627,14.902,10.024z"/>
	</g>
</g>
</svg>
