<svg id="a2cceb78-a579-4bee-bb91-7d7b5cb1bac0" data-name="Icons" xmlns="http://www.w3.org/2000/svg" viewBox="0 0 50 50"><path d="M37.392,33.661a2.636,2.636,0,0,0-3.366-.229l-3.284-3.271a15.583,15.583,0,1,0-.708.706l3.284,3.27a2.709,2.709,0,0,0-.5,1.564,2.506,2.506,0,0,0,.735,1.791l7.916,7.9a2.527,2.527,0,0,0,1.8.729,2.774,2.774,0,0,0,1.957-.818,2.744,2.744,0,0,0,.824-1.951,2.506,2.506,0,0,0-.735-1.791ZM4.957,19.568a14.5,14.5,0,1,1,14.5,14.5A14.517,14.517,0,0,1,4.957,19.568ZM44.514,44.592a1.666,1.666,0,0,1-2.341.088l-7.916-7.9a1.513,1.513,0,0,1-.441-1.082,1.748,1.748,0,0,1,.529-1.243,1.781,1.781,0,0,1,1.253-.527,1.531,1.531,0,0,1,1.088.438l7.916,7.9h0a1.515,1.515,0,0,1,.44,1.083A1.758,1.758,0,0,1,44.514,44.592Z"/><path d="M19.457,7.568a12,12,0,1,0,12,12A12.013,12.013,0,0,0,19.457,7.568Zm0,23a11,11,0,1,1,11-11A11.013,11.013,0,0,1,19.457,30.568Z"/></svg>