<?xml version="1.0" encoding="utf-8"?>
<!-- Generator: Adobe Illustrator 25.2.3, SVG Export Plug-In . SVG Version: 6.00 Build 0)  -->
<svg version="1.1" id="a3e9f48b-4802-4ad5-8e15-a19c99f3993f"
	 xmlns="http://www.w3.org/2000/svg" xmlns:xlink="http://www.w3.org/1999/xlink" x="0px" y="0px" viewBox="0 0 50 50"
	 style="enable-background:new 0 0 50 50;" xml:space="preserve">
<path style="fill:#1D9CD3;" d="M45.017,4.355H4.949c-0.276,0-0.5,0.224-0.5,0.5v30.579c0,0.276,0.224,0.5,0.5,0.5h14.275
	c0.276,0,0.5-0.224,0.5-0.5s-0.224-0.5-0.5-0.5H5.449V19.708h6.835l2.644,5.146c0.085,0.167,0.257,0.272,0.444,0.272l0,0
	c0.188-0.001,0.36-0.108,0.444-0.276l4.694-9.409l3,5.75c-4.577,2.636-6.15,8.483-3.514,13.06s8.483,6.15,13.06,3.514
	c0.589-0.339,1.14-0.74,1.644-1.197l1.243,1.232c-0.402,0.718-0.28,1.616,0.3,2.2l5.092,5.1c0.721,0.72,1.889,0.72,2.61,0
	c0.72-0.721,0.72-1.889,0-2.61l0,0l-5.09-5.1c-0.584-0.581-1.482-0.704-2.2-0.3l-1.235-1.235c3.532-3.895,3.238-9.916-0.657-13.449
	c-0.588-0.533-1.241-0.991-1.942-1.362l0.639-1.281h11.058v15.171h-6.99c-0.276,0-0.5,0.224-0.5,0.5s0.224,0.5,0.5,0.5h7.49
	c0.276,0,0.5-0.224,0.5-0.5V4.855C45.517,4.579,45.293,4.355,45.017,4.355z M5.449,5.355h39.068v4.7H5.449L5.449,5.355z
	 M37.549,37.855c0.225,0,0.441,0.089,0.6,0.248l5.09,5.1c0.331,0.331,0.331,0.869,0,1.2s-0.869,0.331-1.2,0l0,0l-5.092-5.1
	c-0.33-0.331-0.33-0.866,0-1.196c0.159-0.159,0.375-0.248,0.6-0.248L37.549,37.855z M36.89,29.46
	c0.006,4.741-3.833,8.589-8.574,8.594s-8.589-3.833-8.594-8.574c-0.006-4.741,3.833-8.589,8.574-8.594
	c1.263-0.001,2.511,0.276,3.654,0.812c3.009,1.414,4.932,4.437,4.938,7.761L36.89,29.46z M33.151,18.76
	c-0.189,0-0.363,0.107-0.447,0.277l-0.783,1.57c-2.415-0.992-5.131-0.948-7.513,0.12l-3.461-6.62
	c-0.071-0.181-0.255-0.291-0.448-0.268c-0.187,0.002-0.358,0.108-0.442,0.276l-4.69,9.4l-2.331-4.54
	c-0.086-0.166-0.257-0.271-0.444-0.271H5.449v-7.645h39.068v7.7L33.151,18.76z"/>
<path style="fill:#1D9CD3;" d="M10.673,7.207H7.812c-0.276,0-0.5,0.224-0.5,0.5s0.224,0.5,0.5,0.5h2.861c0.276,0,0.5-0.224,0.5-0.5
	S10.949,7.207,10.673,7.207z"/>
<path style="fill:#1D9CD3;" d="M16.4,7.207h-2.865c-0.276,0-0.5,0.224-0.5,0.5s0.224,0.5,0.5,0.5H16.4c0.276,0,0.5-0.224,0.5-0.5
	S16.676,7.207,16.4,7.207z"/>
<path style="fill:#1D9CD3;" d="M22.121,7.207h-2.862c-0.276,0-0.5,0.224-0.5,0.5s0.224,0.5,0.5,0.5h2.862c0.276,0,0.5-0.224,0.5-0.5
	S22.397,7.207,22.121,7.207z"/>
<circle style="fill:#1D9CD3;" cx="42.155" cy="7.707" r="1"/>
<path style="fill:#1D9CD3;" d="M25.156,23.228L25.156,23.228c-3.445,1.741-4.826,5.944-3.085,9.389s5.944,4.826,9.389,3.085
	c3.445-1.741,4.826-5.944,3.085-9.389c-0.715-1.415-1.889-2.544-3.331-3.203c-1.932-0.889-4.165-0.845-6.061,0.119L25.156,23.228z
	 M30.795,24.02c0.384,0.181,0.748,0.403,1.084,0.662l-3.62,7.256l-3.717-7.112c0.329-0.272,0.685-0.508,1.064-0.705l0,0
	c1.625-0.826,3.538-0.863,5.194-0.101H30.795z M28.306,35.446c-3.3,0.005-5.98-2.666-5.986-5.966
	c-0.002-1.446,0.519-2.843,1.469-3.934l4.037,7.725c0.086,0.165,0.258,0.268,0.444,0.268l0,0c0.188-0.002,0.359-0.108,0.443-0.276
	l3.936-7.89c2.269,2.389,2.173,6.165-0.216,8.434c-1.114,1.058-2.594,1.646-4.131,1.641L28.306,35.446z"/>
</svg>
