<svg xmlns="http://www.w3.org/2000/svg" viewBox="0 0 50 50"><g id="a49d0d0b-8e27-40e9-aeb5-ba4ba308a84a" data-name="Isolation Mode"><path d="M12.282,19.893a2,2,0,0,0,1.528-.1,2,2,0,1,0-1.528.1Zm-.3-2.215A1,1,0,0,1,12.929,17a.976.976,0,0,1,.322.054h0a1,1,0,1,1-1.27.623Z"/><path d="M36.426,33.893a2,2,0,0,0,2.538-1.247,2,2,0,0,0-1.247-2.539,2,2,0,0,0-1.291,3.786Zm-.3-2.215A1,1,0,0,1,37.072,31a.976.976,0,0,1,.322.054h0a1,1,0,1,1-1.27.623Z"/><path d="M24.354,40.893a2,2,0,0,0,2.539-1.247,2,2,0,1,0-2.539,1.247Zm-.3-2.215A1,1,0,0,1,25,38a.976.976,0,0,1,.322.054h0a1,1,0,0,1,.623,1.267,1,1,0,0,1-1.269.623,1,1,0,0,1-.623-1.267Z"/><path d="M27,23H23v4h4Zm-1,3H24V24h2Z"/><path d="M35.072,20h4V16h-4Zm1-3h2v2h-2Z"/><path d="M12.928,29.642,10.49,33.859h4.877Zm0,2,.7,1.219h-1.41Z"/><path d="M22.562,12.859h4.876L25,8.642Zm1.733-1L25,10.64l.7,1.219Z"/><path d="M32.505,11,28.752,4.5h-7.5L17.5,11l3.753,6.5h7.5Zm-10.68,5.5L18.649,11l3.176-5.5h6.35L31.351,11l-3.176,5.5Z"/><path d="M40.825,11.5H33.319L29.566,18l3.753,6.5h7.506L44.577,18Zm-.577,12H33.9L30.721,18,33.9,12.5h6.352L43.423,18Z"/><path d="M40.825,38.5,44.577,32l-3.752-6.5H33.319L29.566,32l3.753,6.5ZM33.9,26.5h6.352L43.423,32l-3.175,5.5H33.9L30.721,32Z"/><path d="M9.175,24.5h7.506L20.434,18l-3.753-6.5H9.175L5.423,18Zm.577-12H16.1L19.279,18,16.1,23.5H9.752L6.577,18Z"/><path d="M9.175,38.5h7.506L20.434,32l-3.753-6.5H9.175L5.423,32Zm.577-12H16.1L19.279,32,16.1,37.5H9.752L6.577,32Z"/><path d="M21.248,31.5h7.5L32.505,25l-3.753-6.5h-7.5L17.5,25Zm.577-12h6.35L31.351,25l-3.176,5.5h-6.35L18.649,25Z"/><path d="M21.248,45.5h7.5L32.505,39l-3.753-6.5h-7.5L17.5,39Zm.577-12h6.35L31.351,39l-3.176,5.5h-6.35L18.649,39Z"/></g></svg>