<?xml version="1.0" encoding="utf-8"?>
<!-- Generator: Adobe Illustrator 25.2.3, SVG Export Plug-In . SVG Version: 6.00 Build 0)  -->
<svg version="1.1" id="Layer_1" xmlns="http://www.w3.org/2000/svg" xmlns:xlink="http://www.w3.org/1999/xlink" x="0px" y="0px"
	 viewBox="0 0 50 50" style="enable-background:new 0 0 50 50;" xml:space="preserve">
<g id="Layer_1_1_">
</g>
<g id="Icons">
</g>
<g id="Isolation_Mode">
	<path style="fill:#1D9CD3;" d="M16.541,15.631h2.699l0.515,2.011c0.002,0.008,0.004,0.017,0.006,0.025l1.666,6.504l-1.1,1.658
		c-0.102,0.153-0.11,0.351-0.023,0.513c0.087,0.163,0.256,0.264,0.44,0.264h0.783c-0.251,0.527-0.173,1.173,0.26,1.61
		c0.268,0.268,0.623,0.416,1.001,0.416s0.733-0.148,1.001-0.416c0.435-0.437,0.513-1.083,0.261-1.61h4.955
		c-0.088,0.185-0.141,0.389-0.141,0.607c0,0.782,0.635,1.419,1.414,1.419s1.414-0.637,1.414-1.419c0-0.218-0.053-0.422-0.141-0.607
		h0.771c0.276,0,0.5-0.224,0.5-0.5s-0.224-0.5-0.5-0.5H21.676l0.568-0.856h8.86c0.21,0,0.398-0.132,0.47-0.33l2.438-6.719
		c0.056-0.153,0.033-0.324-0.061-0.458c-0.094-0.133-0.246-0.213-0.409-0.213H20.63l-0.518-2.023
		c-0.057-0.221-0.256-0.376-0.484-0.376h-3.087c-0.276,0-0.5,0.224-0.5,0.5S16.265,15.631,16.541,15.631z M23.08,27.509
		c-0.156,0.158-0.428,0.158-0.584,0c-0.163-0.164-0.163-0.431,0-0.594c0.078-0.079,0.182-0.122,0.292-0.122s0.214,0.043,0.292,0.122
		C23.243,27.08,23.243,27.346,23.08,27.509z M30.278,27.631c-0.229,0-0.414-0.188-0.414-0.419s0.186-0.418,0.414-0.418
		s0.414,0.188,0.414,0.418S30.507,27.631,30.278,27.631z M32.828,18.03l-2.075,5.719h-8.402l-1.464-5.719H32.828z"/>
	<circle style="fill:#1D9CD3;" cx="25.082" cy="35" r="1"/>
	<path style="fill:#1D9CD3;" d="M45.055,9.5H5.027c-0.133,0-0.26,0.053-0.354,0.147c-0.095,0.094-0.146,0.221-0.146,0.354
		l0.054,22.865C4.569,32.91,4.555,32.952,4.555,33s0.015,0.092,0.027,0.136V37c0,0.276,0.224,0.5,0.5,0.5h19.473v2h-8.44
		c-0.276,0-0.5,0.224-0.5,0.5s0.224,0.5,0.5,0.5h18c0.276,0,0.5-0.224,0.5-0.5s-0.224-0.5-0.5-0.5h-8.56v-2h19.5
		c0.276,0,0.5-0.224,0.5-0.5V10C45.555,9.724,45.331,9.5,45.055,9.5z M44.555,10.5v22H5.581l-0.053-22H44.555z M5.582,36.5v-3
		h38.973v3H5.582z"/>
</g>
</svg>
