<?xml version="1.0" encoding="utf-8"?>
<!-- Generator: Adobe Illustrator 25.2.3, SVG Export Plug-In . SVG Version: 6.00 Build 0)  -->
<svg version="1.1" xmlns="http://www.w3.org/2000/svg" xmlns:xlink="http://www.w3.org/1999/xlink" x="0px" y="0px"
	 viewBox="0 0 50 50" style="enable-background:new 0 0 50 50;" xml:space="preserve">
<g id="Layer_1">
</g>
<g id="Icons">
</g>
<g id="Isolation_Mode">
	<circle cx="25.041" cy="35" r="1"/>
	<path d="M45.014,9.5H4.986c-0.133,0-0.26,0.053-0.354,0.147c-0.095,0.094-0.146,0.221-0.146,0.354l0.054,22.865
		C4.528,32.91,4.514,32.952,4.514,33c0,0.048,0.015,0.092,0.027,0.136V37c0,0.276,0.224,0.5,0.5,0.5h19.473v2h-8.44
		c-0.276,0-0.5,0.224-0.5,0.5s0.224,0.5,0.5,0.5h18c0.276,0,0.5-0.224,0.5-0.5s-0.224-0.5-0.5-0.5h-8.56v-2h19.5
		c0.276,0,0.5-0.224,0.5-0.5V10C45.514,9.724,45.29,9.5,45.014,9.5z M44.514,10.5v22H5.54l-0.053-22H44.514z M5.541,36.5v-3h38.973
		v3H5.541z"/>
	<path d="M20.896,27.827c0.276,0,0.5-0.224,0.5-0.5V20.53c0-0.276-0.224-0.5-0.5-0.5s-0.5,0.224-0.5,0.5v6.796
		C20.396,27.603,20.619,27.827,20.896,27.827z"/>
	<path d="M16.344,27.332c0.003,0.274,0.226,0.495,0.5,0.495c0.002,0,0.003,0,0.005,0c0.276-0.002,0.498-0.229,0.495-0.505
		l-0.025-2.714c-0.002-0.276-0.205-0.485-0.505-0.495c-0.276,0.002-0.498,0.229-0.495,0.505L16.344,27.332z"/>
	<path d="M24.967,27.827c0.276,0,0.5-0.224,0.5-0.5V15.068c0-0.276-0.224-0.5-0.5-0.5s-0.5,0.224-0.5,0.5v12.258
		C24.467,27.603,24.69,27.827,24.967,27.827z"/>
	<path d="M29.038,27.827c0.276,0,0.5-0.224,0.5-0.5v-8.689c0-0.276-0.224-0.5-0.5-0.5s-0.5,0.224-0.5,0.5v8.689
		C28.538,27.603,28.762,27.827,29.038,27.827z"/>
	<path d="M33.109,27.827c0.276,0,0.5-0.224,0.5-0.5v-4.102c0-0.276-0.224-0.5-0.5-0.5s-0.5,0.224-0.5,0.5v4.102
		C32.609,27.603,32.833,27.827,33.109,27.827z"/>
</g>
</svg>
