<?xml version="1.0" encoding="utf-8"?>
<!-- Generator: Adobe Illustrator 25.2.3, SVG Export Plug-In . SVG Version: 6.00 Build 0)  -->
<svg version="1.1" id="Layer_1" xmlns="http://www.w3.org/2000/svg" xmlns:xlink="http://www.w3.org/1999/xlink" x="0px" y="0px"
	 viewBox="0 0 50 50" style="enable-background:new 0 0 50 50;" xml:space="preserve">
<g id="e7a96cf8-dd17-4665-ad5f-b6417d6efb09">
	<path style="fill:#FFFFFF;" d="M24.958,10.216c0.828,0,1.5-0.672,1.5-1.5s-0.672-1.5-1.5-1.5s-1.5,0.672-1.5,1.5
		S24.13,10.216,24.958,10.216z M24.958,8.216c0.276,0,0.5,0.224,0.5,0.5s-0.224,0.5-0.5,0.5s-0.5-0.224-0.5-0.5
		S24.682,8.216,24.958,8.216z"/>
	<path style="fill:#FFFFFF;" d="M9.478,20.885c0-0.828-0.672-1.5-1.5-1.5s-1.5,0.672-1.5,1.5s0.672,1.5,1.5,1.5
		S9.478,21.713,9.478,20.885z M7.478,20.885c0-0.276,0.224-0.5,0.5-0.5c0.276,0,0.5,0.224,0.5,0.5s-0.224,0.5-0.5,0.5
		S7.478,21.161,7.478,20.885z"/>
	<path style="fill:#FFFFFF;" d="M33.907,21.13L33.907,21.13l-0.2-0.309c-1.547-2.303-3.947-3.895-6.67-4.425l-0.127-0.023l0,0
		c-0.479-0.088-0.963-0.143-1.449-0.165h-0.006c-0.272-0.011-0.444-0.016-0.9,0c-0.482,0.021-0.963,0.073-1.438,0.158l0,0
		c-2.689,0.49-5.079,2.015-6.656,4.248c-0.122,0.17-0.237,0.346-0.349,0.525c-2.133,3.397-2.138,7.714-0.012,11.116
		c1.489,2.365,3.853,4.045,6.576,4.673h0.02l0.073,0.019l0.158,0.035c0.443,0.088,0.891,0.148,1.342,0.179l0,0
		c0.242,0.018,0.488,0.028,0.735,0.028c0.232,0,0.462-0.011,0.69-0.028h0.039c0.536-0.04,1.067-0.121,1.591-0.24l0.02-0.007
		c0.016-0.001,0.033-0.003,0.049-0.006c2.698-0.641,5.037-2.314,6.516-4.659c2.125-3.402,2.125-7.717,0-11.119L33.907,21.13z
		 M32.737,21.178l-0.139,0.051c-0.123,0.047-0.248,0.094-0.381,0.139c-0.081,0.027-0.168,0.053-0.252,0.079
		c-0.119,0.036-0.237,0.073-0.362,0.108l-0.089,0.023c-0.093-0.25-0.192-0.49-0.295-0.72c-0.008-0.024-0.018-0.048-0.03-0.071
		c-0.005-0.013-0.012-0.025-0.019-0.036c-0.01-0.021-0.022-0.039-0.032-0.06c-0.167-0.35-0.351-0.692-0.553-1.023
		c-0.044-0.073-0.087-0.147-0.133-0.219c-0.195-0.306-0.407-0.601-0.636-0.882c-0.026-0.031-0.047-0.069-0.073-0.1
		C30.922,19.147,31.943,20.072,32.737,21.178z M30.347,32.1c-0.062,0.14-0.126,0.279-0.193,0.414
		c-0.055,0.113-0.112,0.224-0.17,0.333c-0.071,0.133-0.145,0.263-0.221,0.388c-0.061,0.1-0.122,0.2-0.186,0.3
		c-0.081,0.124-0.165,0.242-0.25,0.36c-0.065,0.091-0.129,0.183-0.2,0.269c-0.091,0.117-0.187,0.225-0.282,0.334
		c-0.067,0.077-0.133,0.157-0.2,0.23c-0.106,0.112-0.216,0.213-0.326,0.315c-0.064,0.059-0.126,0.123-0.192,0.179
		c-0.151,0.129-0.309,0.25-0.473,0.363c-0.05,0.035-0.1,0.068-0.15,0.1c-0.153,0.1-0.311,0.193-0.474,0.277L26.868,36
		c0.028-0.048,0.052-0.113,0.079-0.164c0.1-0.185,0.2-0.383,0.287-0.6c0.04-0.094,0.08-0.186,0.119-0.285
		c0.1-0.268,0.2-0.554,0.3-0.861c0.015-0.051,0.033-0.095,0.048-0.147c0.106-0.362,0.2-0.752,0.29-1.161
		c0.025-0.116,0.047-0.238,0.071-0.357c0.062-0.315,0.12-0.64,0.172-0.979c0.012-0.077,0.028-0.145,0.04-0.223
		c0.42,0.046,0.842,0.091,1.234,0.154c0.057,0.009,0.109,0.021,0.166,0.03c0.309,0.052,0.595,0.116,0.884,0.177
		c-0.019,0.051-0.036,0.1-0.056,0.153C30.45,31.858,30.4,31.977,30.347,32.1z M25,30.038c-0.081,0-0.159,0.008-0.24,0.009
		c-0.365,0-0.72,0.025-1.085,0.04s-0.715,0.014-1.065,0.04c-0.046-0.427-0.091-0.854-0.119-1.295c0-0.042-0.008-0.082-0.01-0.125
		c-0.03-0.5-0.039-1-0.046-1.516h5.13c-0.007,0.511-0.016,1.021-0.046,1.517c0,0.041-0.007,0.08-0.01,0.121
		c-0.028,0.442-0.073,0.87-0.119,1.3c-0.139-0.01-0.28-0.02-0.421-0.028C26.332,30.06,25.676,30.039,25,30.038z M22.3,33.944
		c0.017,0.06,0.037,0.112,0.055,0.171c0.092,0.298,0.189,0.578,0.291,0.84c0.039,0.1,0.08,0.2,0.12,0.29
		c0.093,0.216,0.189,0.416,0.29,0.6c0.027,0.049,0.05,0.112,0.077,0.159h-0.014l-0.132-0.029l-0.025-0.006
		c-0.395-0.205-0.764-0.455-1.1-0.746c-0.054-0.046-0.1-0.1-0.156-0.147c-0.122-0.112-0.244-0.225-0.36-0.348
		c-0.063-0.067-0.122-0.139-0.183-0.209c-0.1-0.116-0.2-0.232-0.3-0.356c-0.063-0.081-0.123-0.167-0.184-0.252
		c-0.09-0.124-0.178-0.249-0.263-0.381c-0.06-0.092-0.117-0.187-0.174-0.283c-0.08-0.133-0.158-0.27-0.233-0.411
		c-0.055-0.1-0.107-0.2-0.159-0.31c-0.071-0.145-0.14-0.293-0.205-0.444c-0.048-0.108-0.095-0.217-0.139-0.329
		c-0.022-0.055-0.041-0.112-0.063-0.168c0.291-0.062,0.577-0.126,0.886-0.178c0.059-0.01,0.113-0.022,0.173-0.032
		c0.392-0.062,0.81-0.107,1.228-0.153c0.011,0.077,0.026,0.144,0.038,0.22c0.052,0.34,0.11,0.666,0.173,0.982
		c0.024,0.121,0.046,0.246,0.072,0.364C22.1,33.194,22.2,33.583,22.3,33.944z M20.153,20.381c0.039-0.068,0.081-0.13,0.121-0.2
		c0.083-0.136,0.164-0.272,0.251-0.4c0.051-0.075,0.106-0.144,0.158-0.217c0.081-0.111,0.161-0.224,0.244-0.329
		c0.059-0.073,0.12-0.14,0.18-0.209c0.083-0.1,0.165-0.2,0.251-0.286c0.063-0.066,0.129-0.127,0.194-0.19
		c0.086-0.084,0.172-0.169,0.261-0.247c0.069-0.06,0.14-0.114,0.21-0.171c0.088-0.07,0.176-0.142,0.266-0.206
		c0.075-0.053,0.151-0.1,0.227-0.15s0.177-0.115,0.267-0.166s0.164-0.086,0.247-0.126c0.058-0.029,0.116-0.057,0.175-0.083
		c-0.008,0.012-0.013,0.026-0.02,0.038c-0.133,0.223-0.252,0.453-0.357,0.69c-0.028,0.062-0.051,0.126-0.077,0.189
		c-0.082,0.194-0.159,0.39-0.229,0.593c-0.032,0.091-0.062,0.181-0.092,0.274c-0.06,0.188-0.117,0.376-0.17,0.565
		c-0.023,0.084-0.047,0.166-0.068,0.249c-0.069,0.263-0.132,0.523-0.186,0.773l0,0c-0.084,0.395-0.158,0.823-0.227,1.264
		c-0.007,0.045-0.016,0.082-0.023,0.127c-0.416-0.045-0.834-0.089-1.225-0.151c-0.056-0.009-0.107-0.02-0.162-0.03
		c-0.3-0.05-0.587-0.113-0.873-0.173c0.1-0.264,0.2-0.537,0.317-0.784C19.92,20.803,20.034,20.588,20.153,20.381z M23.722,18.6
		c0.047-0.106,0.094-0.214,0.141-0.308c0.033-0.064,0.065-0.118,0.1-0.177c0.045-0.082,0.09-0.165,0.135-0.236
		c0.033-0.053,0.066-0.1,0.1-0.146s0.084-0.121,0.126-0.172s0.067-0.077,0.1-0.112s0.078-0.083,0.116-0.117s0.065-0.053,0.1-0.076
		c0.025-0.019,0.052-0.036,0.079-0.052c0.193-0.009,0.388-0.008,0.581,0l0.03,0.017c0.744,0.74,1.244,1.691,1.432,2.724
		c0.11,0.386,0.214,0.8,0.3,1.243c0.069,0.34,0.122,0.714,0.178,1.083c-0.745,0.053-1.462,0.079-2.158,0.081
		c-0.268,0-0.519-0.017-0.781-0.023c-0.418-0.01-0.843-0.012-1.248-0.037c-0.1-0.006-0.2-0.015-0.3-0.022l0.024-0.156
		c0.062-0.391,0.129-0.773,0.2-1.122c0.065-0.3,0.134-0.58,0.2-0.841c0.019-0.071,0.04-0.131,0.059-0.2
		c0.053-0.183,0.105-0.364,0.159-0.528c0.026-0.078,0.053-0.145,0.08-0.219c0.049-0.137,0.1-0.275,0.147-0.4
		C23.661,18.727,23.692,18.665,23.722,18.6z M27,17.5c0.079,0.039,0.158,0.077,0.236,0.122c0.1,0.055,0.193,0.118,0.289,0.181
		c0.076,0.049,0.152,0.1,0.226,0.15c0.1,0.07,0.189,0.147,0.282,0.224c0.07,0.057,0.141,0.111,0.209,0.172
		c0.1,0.085,0.187,0.178,0.279,0.27c0.063,0.063,0.127,0.122,0.189,0.189c0.093,0.1,0.183,0.211,0.273,0.319
		c0.056,0.067,0.113,0.13,0.167,0.2c0.094,0.122,0.183,0.252,0.273,0.382c0.045,0.065,0.093,0.126,0.137,0.194
		c0.1,0.149,0.189,0.308,0.28,0.467c0.032,0.055,0.066,0.107,0.1,0.164c0.121,0.219,0.236,0.447,0.343,0.683l0.009,0.021
		c0.082,0.18,0.148,0.376,0.222,0.565c-0.294,0.062-0.583,0.127-0.895,0.178l-0.142,0.026c-0.392,0.062-0.812,0.106-1.23,0.152
		c-0.059-0.39-0.124-0.767-0.2-1.126c0-0.013-0.006-0.026-0.008-0.04v-0.017l-0.006-0.026c0-0.011,0-0.023-0.007-0.034
		s-0.011-0.047-0.016-0.069c-0.048-0.231-0.1-0.468-0.165-0.709c-0.02-0.08-0.04-0.157-0.061-0.237
		c-0.06-0.223-0.125-0.444-0.2-0.666c-0.02-0.062-0.038-0.124-0.059-0.186c-0.09-0.271-0.19-0.534-0.3-0.789
		c-0.028-0.064-0.058-0.123-0.087-0.185c-0.088-0.193-0.183-0.376-0.283-0.551c-0.022-0.038-0.04-0.083-0.062-0.12
		C26.869,17.438,26.937,17.47,27,17.5z M31.233,24.417l0.005,0.026c0.08,0.516,0.132,1.036,0.155,1.557
		c0,0.064,0.006,0.128,0.008,0.192h-2.83c-0.008-0.523-0.029-1.04-0.062-1.552v-0.047c-0.031-0.483-0.072-0.96-0.125-1.427
		c0.829-0.087,1.653-0.218,2.469-0.392c0.018,0.06,0.036,0.12,0.053,0.18c0.138,0.482,0.248,0.972,0.331,1.467L31.233,24.417z
		 M31.254,28.917v0.023c-0.081,0.502-0.191,0.999-0.328,1.489l-0.051,0.18c-0.359-0.078-0.734-0.148-1.121-0.211l-0.059-0.011
		c-0.419-0.067-0.852-0.126-1.3-0.174c0.047-0.438,0.082-0.887,0.111-1.339c0-0.04,0.007-0.078,0.01-0.119
		c0.03-0.516,0.05-1.039,0.056-1.57h2.832c0,0.064,0,0.127-0.007,0.191c-0.019,0.518-0.065,1.034-0.139,1.547L31.254,28.917z
		 M20.247,30.4c-0.387,0.063-0.764,0.133-1.125,0.212l-0.051-0.18c-0.136-0.486-0.245-0.98-0.325-1.479l0,0
		c-0.077-0.52-0.124-1.044-0.143-1.569c0-0.064-0.005-0.128-0.008-0.193h2.831c0.006,0.528,0.025,1.049,0.056,1.562
		c0,0.075,0.013,0.145,0.018,0.219c0.028,0.421,0.059,0.839,0.1,1.247c-0.445,0.048-0.876,0.106-1.293,0.173L20.247,30.4z
		 M18.759,24.441v-0.01c0.085-0.5,0.198-0.995,0.34-1.482c0.016-0.06,0.034-0.119,0.051-0.178c0.368,0.08,0.749,0.151,1.144,0.214
		l0.04,0.008c0.415,0.067,0.844,0.124,1.286,0.171c-0.051,0.442-0.088,0.895-0.12,1.352c0,0.043-0.008,0.084-0.011,0.127
		c-0.033,0.507-0.053,1.023-0.062,1.544H18.6c0-0.065,0.005-0.131,0.008-0.2c0.022-0.516,0.073-1.031,0.151-1.542L18.759,24.441z
		 M22.489,24.698v-0.033c0.032-0.481,0.085-0.946,0.138-1.409l0.359,0.023c0.65,0.041,1.323,0.063,2.011,0.063h0.06h0.084
		c0.706,0,1.416-0.028,2.168-0.081h0.059c0.054,0.471,0.107,0.942,0.139,1.429v0.01c0.031,0.488,0.04,0.99,0.049,1.49H22.44
		c0.009-0.5,0.018-1.001,0.049-1.49L22.489,24.698z M20.282,18.441c-0.01,0.012-0.018,0.027-0.028,0.039
		c-0.228,0.278-0.44,0.568-0.636,0.869c-0.049,0.074-0.095,0.15-0.143,0.226c-0.205,0.328-0.393,0.667-0.563,1.015
		c-0.153,0.316-0.294,0.648-0.424,0.989l-0.075-0.02c-0.133-0.037-0.259-0.076-0.384-0.116c-0.08-0.025-0.162-0.049-0.238-0.075
		c-0.123-0.041-0.238-0.084-0.352-0.127c-0.056-0.021-0.115-0.041-0.168-0.063c0.796-1.117,1.823-2.049,3.011-2.733L20.282,18.441z
		 M16.726,22.041l0.038,0.014c0.2,0.083,0.406,0.163,0.628,0.239c0.048,0.017,0.1,0.032,0.152,0.048
		c0.175,0.058,0.355,0.115,0.544,0.168l0.081,0.025c-0.018,0.062-0.026,0.129-0.043,0.192c-0.149,0.521-0.269,1.05-0.357,1.584
		c0,0.02,0,0.041-0.008,0.062c-0.08,0.535-0.131,1.073-0.154,1.613c0,0.07-0.018,0.136-0.02,0.2h-2.073
		C15.592,24.729,16.007,23.31,16.726,22.041z M17.583,27.191c0,0.074,0.016,0.145,0.019,0.218c0.02,0.525,0.067,1.049,0.14,1.569
		c0,0.036,0.007,0.073,0.013,0.109c0.084,0.533,0.199,1.06,0.344,1.58c0.017,0.063,0.024,0.131,0.042,0.193
		c-0.134,0.038-0.254,0.079-0.381,0.118c-0.085,0.027-0.172,0.052-0.253,0.079c-0.28,0.093-0.546,0.189-0.788,0.291
		c-0.717-1.274-1.13-2.697-1.206-4.157L17.583,27.191z M17.27,32.212c0.191-0.077,0.383-0.153,0.6-0.224
		c0.042-0.014,0.089-0.027,0.132-0.04c0.142-0.045,0.3-0.086,0.454-0.128c0.032,0.088,0.071,0.171,0.106,0.258
		c0.052,0.131,0.1,0.26,0.159,0.386c0.072,0.166,0.149,0.327,0.228,0.487c0.057,0.117,0.113,0.234,0.173,0.346
		c0.087,0.163,0.179,0.318,0.272,0.473c0.061,0.1,0.12,0.2,0.183,0.3c0.1,0.159,0.211,0.308,0.32,0.456
		c0.062,0.085,0.121,0.174,0.185,0.256c0.012,0.016,0.022,0.033,0.034,0.048C19,34.159,18.032,33.268,17.27,32.212z M24.511,36.176
		c-0.032-0.03-0.065-0.061-0.1-0.1s-0.066-0.071-0.1-0.113c-0.052-0.064-0.105-0.14-0.158-0.219c-0.033-0.049-0.065-0.094-0.1-0.148
		c-0.058-0.095-0.116-0.206-0.174-0.319c-0.028-0.055-0.057-0.1-0.085-0.163c-0.081-0.17-0.162-0.358-0.241-0.564
		c-0.005-0.013-0.01-0.023-0.015-0.037c-0.083-0.219-0.164-0.461-0.243-0.721c-0.027-0.089-0.052-0.192-0.078-0.286
		c-0.051-0.181-0.1-0.364-0.149-0.564c-0.029-0.122-0.056-0.257-0.084-0.386c-0.041-0.193-0.082-0.388-0.121-0.6
		c-0.027-0.147-0.051-0.3-0.077-0.457c-0.019-0.119-0.037-0.245-0.055-0.369c0.43-0.031,0.863-0.053,1.3-0.066
		c0.214-0.007,0.425-0.023,0.64-0.025c0.758-0.008,1.513,0.007,2.233,0.051c0.122,0.007,0.24,0.018,0.36,0.027
		c-0.019,0.128-0.037,0.258-0.057,0.381c-0.025,0.153-0.05,0.307-0.077,0.453c-0.039,0.21-0.08,0.407-0.122,0.6
		c-0.027,0.127-0.054,0.259-0.083,0.379c-0.049,0.206-0.1,0.4-0.153,0.583c-0.024,0.086-0.047,0.178-0.072,0.26
		c-0.077,0.258-0.157,0.5-0.24,0.717l0,0c-0.142,0.391-0.321,0.767-0.534,1.124l-0.007,0.011c-0.075,0.121-0.157,0.237-0.247,0.347
		c-0.017,0.02-0.033,0.036-0.05,0.055c-0.044,0.049-0.092,0.097-0.141,0.141C25.158,36.19,24.834,36.192,24.511,36.176z
		 M29.89,34.817l0.029-0.04c0.062-0.079,0.119-0.166,0.179-0.248c0.111-0.151,0.221-0.3,0.325-0.462c0.063-0.1,0.122-0.2,0.183-0.3
		c0.092-0.154,0.184-0.308,0.271-0.47c0.06-0.112,0.116-0.229,0.173-0.345c0.08-0.162,0.158-0.325,0.232-0.494
		c0.051-0.119,0.1-0.24,0.149-0.362c0.037-0.092,0.078-0.18,0.113-0.274c0.213,0.059,0.436,0.115,0.629,0.179l0.038,0.014
		c0.188,0.063,0.347,0.132,0.515,0.2C31.968,33.266,31.003,34.152,29.89,34.817z M33.281,31.344c-0.227-0.1-0.474-0.187-0.733-0.274
		c-0.053-0.018-0.112-0.034-0.167-0.051c-0.171-0.055-0.34-0.111-0.523-0.162c0.018-0.06,0.025-0.126,0.041-0.187
		c0.145-0.52,0.26-1.048,0.345-1.582c0-0.028,0.006-0.058,0.01-0.087c0.075-0.528,0.122-1.06,0.142-1.593
		c0-0.074,0.017-0.143,0.019-0.217h2.072C34.411,28.65,33.998,30.071,33.281,31.344z M32.413,26.191
		c0-0.073-0.017-0.143-0.021-0.216c-0.023-0.536-0.074-1.07-0.153-1.6c0-0.02,0-0.041-0.007-0.061
		c-0.089-0.537-0.209-1.069-0.358-1.593c-0.017-0.06-0.024-0.125-0.042-0.186l0.054-0.016c0.229-0.067,0.448-0.133,0.656-0.2
		l0.065-0.02c0.224-0.077,0.435-0.158,0.635-0.241l0.041-0.016c0.715,1.274,1.125,2.696,1.2,4.155L32.413,26.191z"/>
	<path style="fill:#FFFFFF;" d="M35.486,39.784c-0.828,0-1.5,0.672-1.5,1.5s0.672,1.5,1.5,1.5s1.5-0.672,1.5-1.5
		S36.314,39.784,35.486,39.784z M35.486,41.784c-0.276,0-0.5-0.224-0.5-0.5s0.224-0.5,0.5-0.5s0.5,0.224,0.5,0.5
		S35.762,41.784,35.486,41.784z"/>
	<path style="fill:#FFFFFF;" d="M42.022,19.432c-0.828,0-1.5,0.672-1.5,1.5s0.672,1.5,1.5,1.5s1.5-0.672,1.5-1.5
		S42.85,19.432,42.022,19.432z M42.022,21.432c-0.276,0-0.5-0.224-0.5-0.5s0.224-0.5,0.5-0.5s0.5,0.224,0.5,0.5
		S42.298,21.432,42.022,21.432z"/>
	<path style="fill:#FFFFFF;" d="M14.514,39.784c-0.828,0-1.5,0.672-1.5,1.5s0.672,1.5,1.5,1.5s1.5-0.672,1.5-1.5
		S15.342,39.784,14.514,39.784z M14.514,41.784c-0.276,0-0.5-0.224-0.5-0.5s0.224-0.5,0.5-0.5s0.5,0.224,0.5,0.5
		S14.79,41.784,14.514,41.784z"/>
	<path style="fill:#FFFFFF;" d="M46.022,20.932c0-2.209-1.791-4-4-4c-0.422,0.008-0.841,0.085-1.239,0.226
		c-2.61-4.324-6.878-7.39-11.809-8.483c-0.105-2.207-1.979-3.911-4.185-3.806c-2.06,0.098-3.708,1.746-3.806,3.806
		c-4.926,1.091-9.19,4.152-11.8,8.469c-0.388-0.133-0.795-0.205-1.206-0.212c-2.202-0.005-3.991,1.775-3.997,3.977
		c-0.004,1.684,1.051,3.19,2.636,3.761c-0.085,0.679-0.13,1.362-0.137,2.046c0.003,4.558,1.697,8.952,4.754,12.332
		c-0.461,0.655-0.711,1.435-0.719,2.236c0,2.209,1.791,4,4,4c1.253,0.001,2.432-0.593,3.177-1.6
		c4.656,2.046,9.957,2.041,14.609-0.013c0.744,1.015,1.928,1.614,3.187,1.613c2.209,0,4-1.791,4-4
		c-0.008-0.812-0.265-1.602-0.737-2.263c3.04-3.376,4.725-7.757,4.73-12.3c-0.004-0.679-0.048-1.356-0.13-2.03
		C44.953,24.139,46.027,22.628,46.022,20.932z M24.979,5.716c1.657,0,3,1.343,3,3c-0.001,0.052-0.007,0.103-0.016,0.154
		l-0.016,0.137l0,0c-0.151,1.639-1.601,2.845-3.24,2.695c-1.43-0.131-2.563-1.264-2.695-2.695l0,0L21.996,8.87
		c-0.009-0.051-0.014-0.102-0.015-0.154C21.981,7.06,23.323,5.717,24.979,5.716z M4.979,20.932c0-1.657,1.343-3,3-3
		c0.418,0,0.83,0.089,1.211,0.261l0,0c1.519,0.646,2.227,2.401,1.581,3.92c-0.579,1.361-2.065,2.094-3.497,1.725l0,0
		C5.928,23.518,4.978,22.316,4.979,20.932L4.979,20.932z M14.515,44.284c-1.657,0-3-1.343-3-3c0.002-0.713,0.261-1.402,0.731-1.939
		c1.063-1.261,2.947-1.421,4.208-0.358c0.677,0.571,1.066,1.412,1.061,2.297c-0.002,0.542-0.153,1.073-0.437,1.534
		c-0.534,0.909-1.51,1.466-2.564,1.466L14.515,44.284z M35.487,44.284c-1.649-0.019-2.981-1.351-3-3
		c-0.007-1.65,1.325-2.993,2.974-3c0.874-0.004,1.706,0.376,2.277,1.039c0.482,0.54,0.748,1.238,0.749,1.961
		C38.487,42.941,37.144,44.284,35.487,44.284C35.487,44.284,35.486,44.284,35.487,44.284L35.487,44.284z M38.1,38.271
		c-1.657-1.45-4.175-1.282-5.625,0.375c-0.639,0.73-0.99,1.668-0.986,2.638c0.002,0.526,0.11,1.047,0.317,1.531
		c-4.347,1.854-9.261,1.86-13.612,0.017c0.211-0.489,0.321-1.015,0.323-1.548c0.009-2.2-1.768-3.991-3.968-4
		c-0.983-0.004-1.932,0.355-2.666,1.009c-2.836-3.189-4.402-7.309-4.4-11.577c0.002-0.604,0.039-1.207,0.108-1.807
		c2.174,0.238,4.13-1.331,4.368-3.505c0.017-0.157,0.025-0.314,0.023-0.472c-0.002-1.38-0.715-2.661-1.886-3.39
		c2.461-4.002,6.429-6.845,11.01-7.889c0.505,2.139,2.648,3.463,4.787,2.958c1.467-0.346,2.612-1.491,2.958-2.958
		c4.591,1.044,8.567,3.896,11.028,7.91c-1.153,0.733-1.853,2.003-1.857,3.369c-0.022,2.187,1.733,3.979,3.921,4.001
		c0.143,0.001,0.285-0.005,0.427-0.019c0.069,0.598,0.106,1.198,0.109,1.8C42.481,30.972,40.923,35.083,38.1,38.271z M42.692,23.85
		c-0.22,0.052-0.444,0.079-0.67,0.082c-1.654,0.002-2.997-1.337-2.999-2.991c-0.002-1.177,0.687-2.246,1.759-2.732
		c0.388-0.181,0.811-0.276,1.24-0.277c1.657,0.014,2.988,1.369,2.974,3.026C44.984,22.337,44.033,23.53,42.692,23.85z"/>
</g>
</svg>
