<?xml version="1.0" encoding="utf-8"?>
<!-- Generator: Adobe Illustrator 25.2.3, SVG Export Plug-In . SVG Version: 6.00 Build 0)  -->
<svg version="1.1" id="Layer_1" xmlns="http://www.w3.org/2000/svg" xmlns:xlink="http://www.w3.org/1999/xlink" x="0px" y="0px"
	 viewBox="0 0 50 50" style="enable-background:new 0 0 50 50;" xml:space="preserve">
<g id="ad5c0615-4b14-4688-93ea-fe370eb90865">
	<path style="fill:#1D9CD3;" d="M16.8,20.519c-1.469-0.003-2.662,1.186-2.665,2.655c-0.003,1.469,1.186,2.662,2.655,2.665
		c1.016,0.002,1.945-0.576,2.393-1.488l3.145,1.018C22.185,26.16,22.435,26.97,23,27.542l-2.075,2.848
		c-1.363-0.582-2.939,0.051-3.521,1.413c-0.582,1.363,0.051,2.939,1.413,3.521c1.363,0.582,2.939-0.051,3.521-1.413
		c0.433-1.014,0.202-2.189-0.582-2.963l2.05-2.811c0.726,0.362,1.58,0.362,2.306,0l2.051,2.812c-1.043,1.035-1.05,2.72-0.015,3.763
		c1.035,1.043,2.72,1.05,3.763,0.015s1.05-2.72,0.015-3.763c-0.768-0.774-1.93-1.001-2.932-0.574l-2.077-2.847
		c0.562-0.564,0.815-1.367,0.677-2.151l3.22-1.042c0.66,1.299,2.248,1.818,3.548,1.158s1.818-2.248,1.158-3.548
		c-0.66-1.299-2.248-1.818-3.548-1.158c-0.893,0.453-1.452,1.373-1.444,2.374c0,0.071,0.015,0.139,0.021,0.209l-3.274,1.06
		c-0.38-0.675-1.034-1.152-1.793-1.306v-3.372c1.455-0.285,2.403-1.695,2.118-3.15c-0.285-1.455-1.695-2.403-3.15-2.118
		c-1.455,0.285-2.403,1.695-2.118,3.15c0.212,1.083,1.065,1.925,2.15,2.124v3.365c-0.766,0.142-1.431,0.613-1.82,1.287l-3.211-1.04
		c0.006-0.069,0.021-0.136,0.021-0.206C19.468,21.707,18.272,20.516,16.8,20.519z M19.885,34.5
		c-0.917,0.004-1.663-0.735-1.668-1.652c-0.004-0.917,0.735-1.663,1.652-1.668c0.304-0.001,0.602,0.081,0.863,0.237
		c0.013,0.012,0.02,0.028,0.035,0.039s0.046,0.011,0.068,0.022c0.754,0.517,0.947,1.548,0.43,2.302
		C20.953,34.235,20.436,34.505,19.885,34.5z M31.708,32.84c0.006,0.922-0.736,1.674-1.657,1.681
		c-0.922,0.006-1.674-0.736-1.681-1.657c-0.004-0.539,0.253-1.047,0.69-1.363c0.033-0.014,0.069-0.011,0.1-0.032
		c0.023-0.021,0.043-0.043,0.062-0.068c0.249-0.144,0.531-0.22,0.818-0.222C30.959,31.177,31.705,31.921,31.708,32.84z M33.2,21.519
		c0.917-0.002,1.662,0.739,1.664,1.656c0.002,0.917-0.739,1.662-1.656,1.664c-0.754,0.002-1.415-0.505-1.609-1.234
		c0-0.009,0-0.019,0-0.028s-0.009-0.014-0.012-0.022c-0.216-0.882,0.324-1.773,1.207-1.989C32.927,21.534,33.063,21.518,33.2,21.519
		z M23.282,17.16c-0.005-0.922,0.738-1.673,1.66-1.678c0.922-0.005,1.673,0.738,1.678,1.66s-0.738,1.673-1.66,1.678
		c-0.003,0-0.007,0-0.01,0C24.031,18.821,23.285,18.079,23.282,17.16z M24.862,24.1c0.039,0.013,0.079,0.021,0.12,0.024
		c0.036-0.003,0.072-0.01,0.106-0.021c0.649,0.048,1.21,0.47,1.436,1.08c0,0.011,0,0.022,0,0.033s0.009,0.009,0.012,0.015
		c0.058,0.167,0.089,0.342,0.091,0.519c0.009,0.922-0.731,1.676-1.653,1.685c-0.922,0.009-1.676-0.731-1.685-1.653
		c-0.009-0.889,0.682-1.629,1.57-1.682H24.862z M16.804,24.839c-0.917-0.004-1.656-0.751-1.652-1.668
		c0.004-0.917,0.751-1.656,1.668-1.652c0.914,0.004,1.652,0.746,1.652,1.66c-0.004,0.92-0.752,1.663-1.672,1.66H16.804z"/>
	<path style="fill:#1D9CD3;" d="M46.478,38.322H46.47l-5.964,0.092c7.385-8.604,6.397-21.566-2.207-28.951
		C31.061,3.25,20.497,2.841,12.8,8.475c-0.235,0.145-0.307,0.453-0.162,0.688c0.145,0.235,0.453,0.307,0.688,0.162
		c0.024-0.015,0.047-0.032,0.068-0.05c8.704-6.374,20.926-4.485,27.3,4.218c5.319,7.263,4.985,17.221-0.809,24.112l-0.109-5.757
		c-0.005-0.276-0.233-0.496-0.509-0.491c-0.276,0.005-0.496,0.233-0.491,0.51l0.133,7.02c-0.012,0.145,0.041,0.289,0.145,0.391l0,0
		c0.094,0.094,0.221,0.147,0.353,0.147h0.008l7.069-0.109c0.276-0.002,0.498-0.227,0.497-0.504
		c-0.002-0.276-0.227-0.498-0.504-0.496L46.478,38.322z"/>
	<path style="fill:#1D9CD3;" d="M36.592,40.721c-8.703,6.374-20.926,4.486-27.3-4.218c-5.325-7.27-4.984-17.24,0.824-24.13
		l0.11,5.792c0.005,0.272,0.228,0.49,0.5,0.49h0.009c0.276-0.005,0.496-0.233,0.491-0.509c0,0,0,0,0,0l-0.134-7.071
		c-0.003-0.134-0.059-0.261-0.157-0.352v-0.005c-0.036-0.031-0.075-0.056-0.118-0.076c-0.011,0-0.019-0.014-0.03-0.019
		c-0.078-0.033-0.162-0.046-0.246-0.037l-7.022,0.108c-0.276,0.002-0.498,0.227-0.497,0.503c0.002,0.276,0.227,0.498,0.503,0.497
		H3.53L9.463,11.6c-7.403,8.585-6.445,21.545,2.139,28.948c7.255,6.256,17.873,6.662,25.584,0.977
		c0.235-0.145,0.307-0.453,0.162-0.688c-0.145-0.235-0.453-0.307-0.688-0.162c-0.024,0.015-0.047,0.032-0.068,0.05V40.721z"/>
</g>
</svg>
