<svg id="Icons" xmlns="http://www.w3.org/2000/svg" viewBox="0 0 128 128"><defs><style>.cls-1,.cls-2{fill:none;stroke:#1d9cd3;stroke-width:3px;}.cls-1{stroke-linecap:round;stroke-linejoin:round;}.cls-2{stroke-miterlimit:10;}</style></defs><title>partner-briefings-square_1D9CD3</title><path class="cls-1" d="M61.56,53.69a18.89,18.89,0,0,0-19-19.23H28.33A19,19,0,0,0,9.22,53.69V69.41"/><circle class="cls-1" cx="35.43" cy="18.73" r="15.73"/><path class="cls-1" d="M118.56,69.41V53.69a18.89,18.89,0,0,0-19-19.23H85.33A19,19,0,0,0,66.22,53.69"/><circle class="cls-1" cx="92.43" cy="18.73" r="15.73"/><path class="cls-2" d="M95.8,60.41h-63A2.6,2.6,0,0,0,30.23,63v41.44A2.6,2.6,0,0,0,32.82,107H45.21v15.75a1.81,1.81,0,0,0,.68,1.4,2.33,2.33,0,0,0,2.8,0,14.09,14.09,0,0,0,2.32-2c3.1-3.1,9.73-9.82,15-15.1H95.8a2.6,2.6,0,0,0,2.59-2.59V63A2.6,2.6,0,0,0,95.8,60.41Z"/><circle class="cls-2" cx="48.96" cy="83.71" r="4.87"/><circle class="cls-2" cx="64.4" cy="83.71" r="4.87"/><circle class="cls-2" cx="79.83" cy="83.71" r="4.87"/></svg>