<?xml version="1.0" encoding="utf-8"?>
<!-- Generator: Adobe Illustrator 25.2.3, SVG Export Plug-In . SVG Version: 6.00 Build 0)  -->
<svg version="1.1" id="Layer_1" xmlns="http://www.w3.org/2000/svg" xmlns:xlink="http://www.w3.org/1999/xlink" x="0px" y="0px"
	 viewBox="0 0 50 50" style="enable-background:new 0 0 50 50;" xml:space="preserve">
<g id="Layer_1_1_">
</g>
<g id="Icons">
</g>
<g id="Isolation_Mode">
	<path style="fill:#FFFFFF;" d="M27,42.524h-4c-0.276,0-0.5,0.224-0.5,0.5s0.224,0.5,0.5,0.5h4c0.276,0,0.5-0.224,0.5-0.5
		S27.276,42.524,27,42.524z"/>
	<path style="fill:#FFFFFF;" d="M35,4.5H15c-0.827,0-1.5,0.673-1.5,1.5v4.024v30v4.025c0,0.827,0.673,1.5,1.5,1.5h20
		c0.827,0,1.5-0.673,1.5-1.5v-4.025v-30V6C36.5,5.173,35.827,4.5,35,4.5z M15,5.5h20c0.276,0,0.5,0.225,0.5,0.5v2.617
		C35.343,8.56,35.176,8.524,35,8.524H15c-0.176,0-0.343,0.036-0.5,0.092V6C14.5,5.725,14.724,5.5,15,5.5z M14.5,10.024
		c0-0.275,0.224-0.5,0.5-0.5h20c0.276,0,0.5,0.225,0.5,0.5v30c0,0.275-0.224,0.5-0.5,0.5H15c-0.276,0-0.5-0.225-0.5-0.5V10.024z
		 M35,44.55H15c-0.276,0-0.5-0.225-0.5-0.5v-2.617c0.157,0.056,0.324,0.092,0.5,0.092h20c0.176,0,0.343-0.036,0.5-0.092v2.617
		C35.5,44.325,35.276,44.55,35,44.55z"/>
	<circle style="fill:#FFFFFF;" cx="17" cy="7.025" r="1"/>
	<path style="fill:#FFFFFF;" d="M21.005,30.524h7.989c0.276,0,0.5-0.224,0.5-0.5v-7.001c0-0.276-0.224-0.5-0.5-0.5h-0.503v-1.499
		c0-1.93-1.566-3.5-3.492-3.5s-3.492,1.57-3.492,3.5v1.499h-0.503c-0.276,0-0.5,0.224-0.5,0.5v7.001
		C20.505,30.301,20.729,30.524,21.005,30.524z M22.508,21.024c0-1.379,1.118-2.5,2.492-2.5s2.492,1.121,2.492,2.5v1.499h-4.983
		v-1.499H22.508z M21.505,23.523h6.989v6.001h-6.989V23.523z"/>
</g>
</svg>
