<svg id="Icons" xmlns="http://www.w3.org/2000/svg" viewBox="0 0 128 128"><defs><style>.cls-1{fill:none;stroke:#231f20;stroke-linecap:round;stroke-linejoin:round;stroke-width:3px;}</style></defs><title>shield-with-layers-square_38313D</title><path class="cls-1" d="M92.07,18.44c-2,.1-3.95.18-5.91.26v0L72,7.81a12,12,0,0,0-15-.22L41.84,18.7c-2-.08-3.94-.16-5.91-.26C24.77,17.89,16.07,14.72,16.07,30s2.07,40.14,2.07,40.14-1.25,18.62,20.27,34.35C56.92,118,63.93,122.94,63.93,122.94h0s7.15-4.9,25.66-18.42c21.52-15.73,20.27-34.35,20.27-34.35s2.07-24.83,2.07-40.14-8.7-12.14-19.86-11.59"/><polygon class="cls-1" points="25.31 47.55 63.83 27.76 102.35 47.55 63.83 68.19 25.31 47.55"/><polyline class="cls-1" points="90.5 66.28 102.35 72.37 63.83 93.01 25.31 72.37 37.22 66.25"/><polyline class="cls-1" points="90.5 53.87 102.35 59.96 63.83 80.6 25.31 59.96 37.22 53.84"/></svg>