<?xml version="1.0" encoding="utf-8"?>
<!-- Generator: Adobe Illustrator 25.2.3, SVG Export Plug-In . SVG Version: 6.00 Build 0)  -->
<svg version="1.1" id="Layer_1" xmlns="http://www.w3.org/2000/svg" xmlns:xlink="http://www.w3.org/1999/xlink" x="0px" y="0px"
	 viewBox="0 0 50 50" style="enable-background:new 0 0 50 50;" xml:space="preserve">
<g id="aec8434f-4dc2-4e63-a3df-c7bb8cd458a3">
	<path style="fill:#FFFFFF;" d="M16.014,39.153c6.219,4.54,8.652,6.241,8.675,6.257c0.171,0.118,0.398,0.118,0.569,0
		c0.024-0.017,2.507-1.718,8.728-6.26c7.447-5.436,7.11-11.823,7.091-12.018c0.007-0.084,0.7-8.506,0.7-13.662
		c0-1.885-0.371-3.1-1.166-3.835c-1.09-1-2.724-0.865-4.616-0.7c-0.478,0.041-0.976,0.083-1.489,0.108l0,0
		C33.9,9.072,33.3,9.1,32.7,9.12l-4.666-3.583c-1.643-1.36-4.01-1.394-5.692-0.084l-5.025,3.668
		c-0.607-0.023-1.216-0.049-1.828-0.08C14.976,9.016,14.478,8.974,14,8.933c-1.894-0.16-3.527-0.3-4.616,0.705
		c-0.795,0.732-1.166,1.95-1.166,3.835c0,5.156,0.7,13.578,0.7,13.588C8.9,27.33,8.567,33.717,16.014,39.153z M10.061,10.375
		c0.576-0.43,1.291-0.628,2.006-0.555c0.551,0,1.172,0.053,1.849,0.11c0.488,0.041,1,0.084,1.523,0.11
		c0.674,0.034,1.345,0.063,2.014,0.086c0.113,0.006,0.224-0.027,0.314-0.095l5.165-3.77c1.328-1.034,3.197-1.005,4.493,0.069
		l4.749,3.649c0.097,0.1,0.233,0.154,0.373,0.147c0.667-0.024,1.338-0.053,2.014-0.086c0.525-0.026,1.035-0.069,1.523-0.11
		c1.727-0.145,3.088-0.26,3.855,0.445c0.568,0.521,0.843,1.534,0.843,3.1c0,5.115-0.694,13.5-0.7,13.653
		c0,0.061,0.3,6.125-6.684,11.219c-5.033,3.675-7.611,5.484-8.418,6.045c-0.8-0.564-3.347-2.374-8.374-6.045
		c-6.981-5.096-6.69-11.16-6.687-11.295c-0.007-0.084-0.7-8.464-0.7-13.579C9.218,11.909,9.493,10.9,10.061,10.375z"/>
	<path style="fill:#FFFFFF;" d="M22.988,29.556c0.094,0.126,0.243,0.2,0.4,0.2H23.4c0.162-0.006,0.311-0.089,0.4-0.224l6.983-10.564
		c0.152-0.231,0.088-0.541-0.143-0.692c-0.116-0.077-0.26-0.101-0.395-0.068l0,0c-0.132,0.032-0.245,0.118-0.312,0.236l-6.575,9.946
		l-3.333-4.423c-0.166-0.221-0.479-0.265-0.7-0.099c-0.22,0.166-0.265,0.479-0.1,0.699L22.988,29.556z"/>
	<path style="fill:#FFFFFF;" d="M25,34.73c5.941,0,10.757-4.816,10.757-10.757S30.941,13.216,25,13.216s-10.757,4.816-10.757,10.757
		c0,0,0,0.001,0,0.001C14.25,29.912,19.062,34.724,25,34.73z M25,14.217c5.389,0,9.757,4.368,9.757,9.757S30.389,33.731,25,33.731
		s-9.757-4.368-9.757-9.757l0,0C15.249,18.588,19.614,14.223,25,14.217z"/>
</g>
</svg>
