<svg id="Icons" xmlns="http://www.w3.org/2000/svg" viewBox="0 0 128 128"><defs><style>.cls-1,.cls-2{fill:none;stroke:#1d9cd3;}.cls-1{stroke-linecap:round;stroke-linejoin:round;stroke-width:3px;}.cls-2{stroke-miterlimit:10;stroke-width:2.51px;}</style></defs><polyline class="cls-1" points="125.29 51.74 113.03 64 100.78 51.74"/><polyline class="cls-1" points="2.71 76.26 14.97 64 27.23 76.26"/><path class="cls-1" d="M112.33,72.17A49,49,0,0,1,14.94,64"/><path class="cls-1" d="M15.62,55.83A49,49,0,0,1,113,64"/><path class="cls-1" d="M80.52,38.19,77,38.34h0l-8.31-6.39a7,7,0,0,0-8.82-.13L51,38.34l-3.48-.15C40.92,37.87,35.8,36,35.8,45S37,68.63,37,68.63s-.73,11,11.93,20.21c10.9,8,15,10.84,15,10.84h0s4.2-2.88,15.1-10.84C91.72,79.59,91,68.63,91,68.63S92.2,54,92.2,45s-5.12-7.14-11.68-6.82"/><circle class="cls-2" cx="64" cy="62" r="10.97"/><path class="cls-2" d="M65.79,41.3l1.1,5.45.27,0a15.37,15.37,0,0,1,2,.57l3.52-4.23"/><path class="cls-2" d="M66.89,46.75l-1.1-5.45a22.36,22.36,0,0,0-3.66,0l-.94,5.43"/><path class="cls-2" d="M75.89,45l-1.76,5.27a15.11,15.11,0,0,1,1.6,1.6l5.15-1.94"/><path class="cls-2" d="M74.13,50.23,75.89,45a21,21,0,0,0-3.17-1.82L69.2,47.37"/><path class="cls-2" d="M58.76,47.38l-3.7-4.13a20.36,20.36,0,0,0-3.15,1.86l1.94,5.15"/><path class="cls-2" d="M55.06,43.25l3.7,4.13a15.54,15.54,0,0,1,2.43-.65l.94-5.43"/><path class="cls-2" d="M75.78,72.12l5.27,1.76a20.16,20.16,0,0,0,1.81-3.17l-4.23-3.52"/><path class="cls-2" d="M47,50.09l5.27,1.77a14.31,14.31,0,0,1,1.61-1.6l-1.94-5.15"/><path class="cls-2" d="M78.61,56.75,82.74,53a21.09,21.09,0,0,0-1.86-3.14l-5.15,1.94"/><path class="cls-2" d="M84.7,63.78l-5.45,1.1c0,.1,0,.19,0,.28a15.22,15.22,0,0,1-.57,2l4.23,3.52"/><path class="cls-2" d="M79.25,64.88l5.45-1.1a22.36,22.36,0,0,0,0-3.66l-5.43-.94"/><path class="cls-2" d="M82.74,53l-4.13,3.72a14.29,14.29,0,0,1,.66,2.43l5.43.94"/><path class="cls-2" d="M69.26,76.61,73,80.73a20.26,20.26,0,0,0,3.14-1.86l-1.94-5.15"/><path class="cls-2" d="M62.17,82.69l-1.09-5.44-.24,0a15.26,15.26,0,0,1-2.06-.58l-3.54,4.22"/><path class="cls-2" d="M61.08,77.25l1.09,5.44a21.31,21.31,0,0,0,3.66,0l1-5.42"/><path class="cls-2" d="M73,80.73l-3.72-4.12a15.9,15.9,0,0,1-2.48.67l-1,5.42"/><path class="cls-2" d="M81.05,73.88l-5.27-1.76a16.11,16.11,0,0,1-1.6,1.6l1.94,5.15"/><path class="cls-2" d="M53.85,73.75,52.08,79a21.43,21.43,0,0,0,3.16,1.82l3.54-4.22"/><path class="cls-2" d="M43.31,60.18l5.44-1.09c0-.09,0-.17,0-.25a15.68,15.68,0,0,1,.58-2.06l-4.23-3.53"/><path class="cls-2" d="M52.24,51.86,47,50.09a21.43,21.43,0,0,0-1.82,3.16l4.23,3.53"/><path class="cls-2" d="M48.75,59.09l-5.44,1.09a21.31,21.31,0,0,0,0,3.66l5.42,1"/><path class="cls-2" d="M49.38,67.23l-4.14,3.7a21.19,21.19,0,0,0,1.86,3.15l5.15-1.93"/><path class="cls-2" d="M52.08,79l1.77-5.27a15.11,15.11,0,0,1-1.6-1.6L47.1,74.08"/><path class="cls-2" d="M45.24,70.93l4.14-3.7a15.69,15.69,0,0,1-.66-2.44l-5.42-1"/></svg>