<svg id="Icons" xmlns="http://www.w3.org/2000/svg" viewBox="0 0 128 128"><defs><style>.cls-1,.cls-3,.cls-4{fill:none;}.cls-1,.cls-2,.cls-3,.cls-4{stroke:#1d9cd3;}.cls-1,.cls-4{stroke-linecap:round;stroke-linejoin:round;}.cls-1,.cls-3{stroke-width:3px;}.cls-2{fill:#1d9cd3;stroke-width:1.25px;}.cls-2,.cls-3{stroke-miterlimit:10;}.cls-4{stroke-width:2.5px;}</style></defs><path class="cls-1" d="M48.6,110.92c12,8.7,16.74,12,16.74,12h0S72.49,118,91,104.52c21.52-15.73,20.28-34.35,20.28-34.35s2.07-24.83,2.07-40.14-8.7-12.14-19.86-11.59c-2,.1-4,.18-5.91.26v0L73.44,7.81a12,12,0,0,0-15-.22L43.24,18.7c-2-.08-3.93-.16-5.9-.26C26.18,17.89,17.47,14.72,17.47,30s2.07,40.14,2.07,40.14"/><path class="cls-2" d="M55.4,62.78a4.83,4.83,0,0,1-3.78,1.59,3.73,3.73,0,0,1-3.9-3.71A3.69,3.69,0,0,1,51.62,57a4.83,4.83,0,0,1,3.78,1.59V56.3c0-1.65-1.34-2.55-3-2.55a4.34,4.34,0,0,0-3.48,1.63l-.67-.83a5.44,5.44,0,0,1,4.29-1.86c2.26,0,4.06,1.08,4.06,3.57V64.1H55.4Zm0-3.32A4.2,4.2,0,0,0,52,57.92a2.77,2.77,0,1,0,0,5.51,4.19,4.19,0,0,0,3.37-1.52Z"/><path class="cls-2" d="M60.14,68.34V53h1.2v1.76a4.79,4.79,0,0,1,3.87-2c3,0,5,2.26,5,5.83s-2,5.85-5,5.85a4.75,4.75,0,0,1-3.87-2.07v6ZM65,53.77a4.51,4.51,0,0,0-3.67,2v5.51a4.55,4.55,0,0,0,3.67,2c2.49,0,3.89-2.08,3.89-4.77S67.5,53.77,65,53.77Z"/><path class="cls-2" d="M73.09,68.34V53h1.2v1.76a4.77,4.77,0,0,1,3.87-2c3,0,5,2.26,5,5.83s-2,5.85-5,5.85a4.74,4.74,0,0,1-3.87-2.07v6ZM78,53.77a4.49,4.49,0,0,0-3.66,2v5.51a4.53,4.53,0,0,0,3.66,2c2.49,0,3.9-2.08,3.9-4.77S80.44,53.77,78,53.77Z"/><path class="cls-3" d="M38.15,65.3V42.59a9.24,9.24,0,0,1,9.22-9.21H83.44a9.23,9.23,0,0,1,9.22,9.21V78.67a9.24,9.24,0,0,1-9.22,9.22H59.75"/><circle class="cls-3" cx="35.21" cy="89.66" r="24.54"/><polyline class="cls-4" points="27.72 82.22 15.87 89.7 27.72 97.18"/><polyline class="cls-4" points="42.68 97.18 54.53 89.7 42.68 82.22"/><line class="cls-4" x1="37.69" y1="82.22" x2="32.7" y2="97.18"/></svg>