<?xml version="1.0" encoding="utf-8"?>
<!-- Generator: Adobe Illustrator 25.2.3, SVG Export Plug-In . SVG Version: 6.00 Build 0)  -->
<svg version="1.1" id="f94eefb3-5611-4251-8c88-3d73dd912c95"
	 xmlns="http://www.w3.org/2000/svg" xmlns:xlink="http://www.w3.org/1999/xlink" x="0px" y="0px" viewBox="0 0 50 50"
	 style="enable-background:new 0 0 50 50;" xml:space="preserve">
<path style="fill:#1D9CD3;" d="M45,15.594H14.309L12.747,9.47c-0.057-0.221-0.256-0.376-0.484-0.376H5c-0.276,0-0.5,0.224-0.5,0.5
	s0.224,0.5,0.5,0.5h6.874l5.589,21.916l-3,4.82c-0.146,0.235-0.074,0.543,0.161,0.689c0.079,0.049,0.171,0.075,0.264,0.075h2.122
	c-0.331,0.43-0.511,0.957-0.513,1.5c0,1.381,1.119,2.5,2.5,2.5s2.5-1.119,2.5-2.5c-0.002-0.543-0.182-1.07-0.513-1.5h15.029
	c-0.331,0.43-0.511,0.957-0.513,1.5c0,1.381,1.119,2.5,2.5,2.5s2.5-1.119,2.5-2.5c-0.002-0.543-0.182-1.07-0.513-1.5h2.146
	c0.276,0,0.5-0.224,0.5-0.5s-0.224-0.5-0.5-0.5H15.79l2.488-4H39c0.208,0,0.395-0.129,0.468-0.324l6-16
	c0.097-0.258-0.034-0.547-0.292-0.644C45.12,15.605,45.06,15.594,45,15.594z M20.5,39.094c0,0.828-0.672,1.5-1.5,1.5
	s-1.5-0.672-1.5-1.5s0.672-1.5,1.5-1.5S20.5,38.266,20.5,39.094z M39.5,39.094c0,0.828-0.672,1.5-1.5,1.5s-1.5-0.672-1.5-1.5
	s0.672-1.5,1.5-1.5S39.5,38.266,39.5,39.094z M38.653,31.594H18.389l-3.826-15h29.715L38.653,31.594z"/>
</svg>
