<?xml version="1.0" encoding="utf-8"?>
<!-- Generator: Adobe Illustrator 25.2.3, SVG Export Plug-In . SVG Version: 6.00 Build 0)  -->
<svg version="1.1" id="Layer_1" xmlns="http://www.w3.org/2000/svg" xmlns:xlink="http://www.w3.org/1999/xlink" x="0px" y="0px"
	 viewBox="0 0 50 50" style="enable-background:new 0 0 50 50;" xml:space="preserve">
<g id="a8f159e2-52e1-43bd-8431-d4b1c6e58dd7">
	<path style="fill:#1D9CD3;" d="M17.333,30.154c3.032,0,5.5-2.794,5.5-6.228s-2.467-6.227-5.5-6.227s-5.5,2.793-5.5,6.227
		S14.3,30.154,17.333,30.154z M17.333,18.697c2.481,0,4.5,2.346,4.5,5.229s-2.02,5.23-4.5,5.23s-4.5-2.346-4.5-5.23
		s2.019-5.226,4.5-5.226V18.697z"/>
	<path style="fill:#1D9CD3;" d="M23.931,34.5h2.049c1.138-0.052,2.021-1.014,1.975-2.153c0-1-1.9-3.826-3.017-3.826
		s-2.981,2.822-2.981,3.826C21.911,33.485,22.793,34.447,23.931,34.5z M24.915,29.517c0.948,0.718,1.659,1.704,2.042,2.83
		C27,32.933,26.566,33.446,25.98,33.5h-2.049c-0.586-0.054-1.021-0.568-0.976-1.155C23.33,31.237,24.009,30.257,24.915,29.517
		L24.915,29.517z"/>
	<path style="fill:#1D9CD3;" d="M32.514,30.154c3.032,0,5.5-2.794,5.5-6.228s-2.467-6.227-5.5-6.227s-5.5,2.793-5.5,6.227
		S29.481,30.154,32.514,30.154z M32.514,18.697c2.481,0,4.5,2.346,4.5,5.229s-2.02,5.23-4.5,5.23s-4.5-2.346-4.5-5.23
		s2.018-5.226,4.5-5.226V18.697z"/>
	<path style="fill:#1D9CD3;" d="M16.5,36.59v6.048c0,2.052,7.626,2.111,8.495,2.111s8.5-0.059,8.5-2.111V36.59
		c2.778-0.21,5.373-1.463,7.266-3.507c2.324-2.64,3.177-6.5,2.536-11.463c-1.191-9.235-8-13.415-11.956-15.085
		c-4.045-1.722-8.616-1.722-12.661,0C14.718,8.2,7.9,12.382,6.707,21.62c-0.641,4.968,0.213,8.826,2.536,11.466
		C11.134,35.127,13.726,36.379,16.5,36.59z M7.7,21.748c1.125-8.743,7.6-12.709,11.364-14.295c3.796-1.617,8.088-1.617,11.884,0
		c3.757,1.588,10.228,5.554,11.352,14.295c0.6,4.663-0.167,8.252-2.287,10.667c-1.837,1.939-4.356,3.086-7.024,3.2
		c-0.276,0-0.5,0.224-0.5,0.5v6.393l0.013,0.069c-0.171,0.29-1.514,0.736-3.813,0.987v-5.851c0-0.276-0.224-0.5-0.5-0.5
		s-0.5,0.224-0.5,0.5v5.94c-0.81,0.061-1.708,0.1-2.7,0.1s-1.886-0.04-2.7-0.1v-5.94c0-0.276-0.224-0.5-0.5-0.5s-0.5,0.224-0.5,0.5
		v5.844c-2.235-0.246-3.583-0.672-3.8-0.961v-6.481c0-0.276-0.224-0.5-0.5-0.5c-2.666-0.114-5.182-1.262-7.016-3.2
		C7.865,30,7.1,26.413,7.7,21.748z"/>
</g>
</svg>
