<svg id="afc6aad1-3f49-4a89-95bb-dd8ab01a844c" data-name="Icons" xmlns="http://www.w3.org/2000/svg" viewBox="0 0 50 50"><path d="M9.584,43.344h4.677A1.837,1.837,0,0,0,16.1,41.509v-.527l1.586.007A21.039,21.039,0,0,0,20.819,43.1a.5.5,0,0,0,.237.059l18.292.008a2.873,2.873,0,0,0,2.879-3.178A2.889,2.889,0,0,0,41,37.4a2.986,2.986,0,0,0,1.25-2.669,2.888,2.888,0,0,0-1.242-2.6,2.99,2.99,0,0,0,1.233-2.658,2.887,2.887,0,0,0-1.233-2.593,2.992,2.992,0,0,0,1.234-2.659,2.792,2.792,0,0,0-2.879-3.075H29.786c.229-.5.433-.92.612-1.291a7.12,7.12,0,0,0,1.038-3.514c0-.175.006-.4.013-.665.07-2.472.231-8.261-3.605-8.786a2.794,2.794,0,0,0-2.253.441,2.927,2.927,0,0,0-.8,2.242c-.006.127-.011.245-.02.348-.155,1.527-.9,6.317-1.473,7.03a40.949,40.949,0,0,1-3.9,4.095c-.535,0-2.5.02-3.3.027V20.91a1.836,1.836,0,0,0-1.834-1.834H9.584A1.835,1.835,0,0,0,7.75,20.91v20.6A1.836,1.836,0,0,0,9.584,43.344ZM19.5,22.049c.809,0,4.538-4.423,4.574-4.468.948-1.179,1.682-7.495,1.688-7.558.012-.119.018-.255.025-.4A2.12,2.12,0,0,1,26.23,8.1a1.916,1.916,0,0,1,1.478-.219c2.947.4,2.8,5.564,2.741,7.767-.007.276-.013.511-.013.693a6.22,6.22,0,0,1-.938,3.079c-.263.543-.577,1.192-.941,2.026a.5.5,0,0,0,.458.7H39.363c.565,0,1.879.2,1.879,2.075,0,2.072-1.565,2.177-1.879,2.177h-5.71a.5.5,0,0,0,0,1h5.709c.565,0,1.879.2,1.879,2.074,0,2.073-1.565,2.178-1.879,2.178H33.677a.5.5,0,0,0,0,1H35.02c.01,0,.017,0,.027,0h4.324c.565,0,1.879.2,1.879,2.075,0,2.072-1.565,2.177-1.879,2.177H35.225a.247.247,0,0,0-.029.006H33.653a.5.5,0,1,0,0,1h5.7c.564,0,1.879.2,1.879,2.074,0,2.073-1.566,2.178-1.879,2.178l-18.165-.008a20.3,20.3,0,0,1-3-2.052.508.508,0,0,0-.323-.119L16.1,39.982V22.076C16.958,22.068,19.2,22.049,19.5,22.049ZM8.75,20.91a.835.835,0,0,1,.834-.834h4.677a.835.835,0,0,1,.834.834v20.6a.836.836,0,0,1-.834.835H9.584a.836.836,0,0,1-.834-.835Z"/></svg>