<?xml version="1.0" encoding="utf-8"?>
<!-- Generator: Adobe Illustrator 25.2.3, SVG Export Plug-In . SVG Version: 6.00 Build 0)  -->
<svg version="1.1" id="Layer_1" xmlns="http://www.w3.org/2000/svg" xmlns:xlink="http://www.w3.org/1999/xlink" x="0px" y="0px"
	 viewBox="0 0 50 50" style="enable-background:new 0 0 50 50;" xml:space="preserve">
<g>
	<g>
		<path style="fill:none;stroke:#000000;stroke-linecap:round;stroke-linejoin:round;stroke-miterlimit:10;" d="M23.588,19.266
			c2.36-1.727,3.964-5.107,3.964-8.994c0-5.643-3.38-7.777-7.549-7.777c-4.169,0-7.549,2.134-7.549,7.777
			c0,3.887,1.604,7.267,3.965,8.994"/>
		<path style="fill:none;stroke:#000000;stroke-linecap:round;stroke-linejoin:round;stroke-miterlimit:10;" d="M4,36.495
			l2.648-11.791c0.326-1.112,1.049-2.061,2.035-2.673c0,0,3.184-1.994,7.735-2.765c1.067,0.781,2.288,1.292,3.585,1.292
			c1.298,0,2.519-0.511,3.585-1.292"/>
		<path style="fill:none;stroke:#000000;stroke-linecap:round;stroke-linejoin:round;stroke-miterlimit:10;" d="M28.03,20.479
			c-1.226-0.463-2.741-0.925-4.447-1.214"/>
	</g>
	
		<ellipse style="fill:none;stroke:#000000;stroke-linecap:round;stroke-linejoin:round;stroke-miterlimit:10;" cx="33.5" cy="35" rx="12.5" ry="12.505"/>
	<g>
		<g>
			<path d="M28.621,38.06v3.239h-2.13V38.06H28.621 M29.186,37.06h-3.26c-0.261,0-0.435,0.165-0.435,0.413v4.413
				c0,0.248,0.174,0.413,0.435,0.413h3.26c0.261,0,0.435-0.165,0.435-0.413v-4.413C29.621,37.225,29.447,37.06,29.186,37.06
				L29.186,37.06z"/>
		</g>
		<g>
			<path d="M34.455,32.57l0,8.729h-1.956l0-8.729H34.455 M34.933,31.57h-2.911c-0.348,0-0.522,0.261-0.522,0.61v9.51
				c0,0.348,0.261,0.61,0.522,0.61h2.911c0.348,0,0.522-0.261,0.522-0.61v-9.51C35.455,31.744,35.368,31.57,34.933,31.57
				L34.933,31.57z"/>
		</g>
		<g>
			<path d="M40.463,35.966v5.333h-1.956v-5.333H40.463 M41.028,34.966h-3.085c-0.261,0-0.435,0.261-0.435,0.522v6.288
				c0,0.261,0.174,0.522,0.435,0.522h3.085c0.261,0,0.435-0.261,0.435-0.522v-6.288C41.463,35.14,41.289,34.966,41.028,34.966
				L41.028,34.966z"/>
		</g>
		<path style="fill:none;stroke:#000000;stroke-miterlimit:10;" d="M35.455,32.093"/>
		<circle style="fill:none;stroke:#000000;stroke-miterlimit:10;" cx="27.454" cy="33.534" r="1.676"/>
		<circle style="fill:none;stroke:#000000;stroke-miterlimit:10;" cx="33.501" cy="27.467" r="1.676"/>
		<circle style="fill:none;stroke:#000000;stroke-miterlimit:10;" cx="39.485" cy="31.479" r="1.676"/>
		<line style="fill:none;stroke:#000000;stroke-miterlimit:10;" x1="28.751" y1="32.257" x2="32.104" y2="28.764"/>
		<line style="fill:none;stroke:#000000;stroke-miterlimit:10;" x1="35.117" y1="28.106" x2="38.291" y2="30.361"/>
	</g>
</g>
</svg>
