<svg id="Icons" xmlns="http://www.w3.org/2000/svg" viewBox="0 0 128 128"><defs><style>.cls-1{fill:none;stroke:#231f20;stroke-linecap:round;stroke-linejoin:round;stroke-width:3px;}</style></defs><path class="cls-1" d="M38,36.05H31.06A18.63,18.63,0,0,0,12.34,54.88V73.63"/><path class="cls-1" d="M36.2,36.05h6.91a18.51,18.51,0,0,1,16,8.92"/><circle class="cls-1" cx="37.4" cy="19.35" r="16.7"/><path class="cls-1" d="M38,36.05H31.06A18.63,18.63,0,0,0,12.34,54.88V73.63"/><path class="cls-1" d="M36.2,36.05h6.91a18.51,18.51,0,0,1,16,8.92"/><circle class="cls-1" cx="37.4" cy="19.35" r="16.7"/><g id="Group_12831" data-name="Group 12831"><rect id="Rectangle_9394" data-name="Rectangle 9394" class="cls-1" x="59.51" y="79.11" width="33.69" height="29.5"/><path id="Path_60586" data-name="Path 60586" class="cls-1" d="M89,79.11V70.72a12.58,12.58,0,0,0-25.15,0h0v8.39"/></g><circle class="cls-1" cx="76.35" cy="86.05" r="39.3"/><circle class="cls-1" cx="76.35" cy="86.05" r="39.3"/></svg>