<?xml version="1.0" encoding="utf-8"?>
<!-- Generator: Adobe Illustrator 25.2.1, SVG Export Plug-In . SVG Version: 6.00 Build 0)  -->
<svg version="1.1" xmlns="http://www.w3.org/2000/svg" xmlns:xlink="http://www.w3.org/1999/xlink" x="0px" y="0px"
	 viewBox="0 0 50 50" style="enable-background:new 0 0 50 50;" xml:space="preserve">
<g id="Layer_1">
</g>
<g id="Icons">
</g>
<g id="Isolation_Mode">
	<g>
		<path d="M24.644,19.548c1.395,0.248,2.796,0.633,4.168,1.152c0.058,0.021,0.118,0.032,0.177,0.032
			c0.202,0,0.392-0.123,0.468-0.323c0.098-0.258-0.033-0.547-0.291-0.645c-1.156-0.437-2.332-0.783-3.51-1.038
			c2.087-1.997,3.355-5.222,3.355-8.703c0-5.261-2.934-8.277-8.049-8.277s-8.049,3.017-8.049,8.277c0,3.481,1.267,6.705,3.354,8.701
			c-4.036,0.871-6.767,2.556-6.889,2.633c-1.092,0.678-1.891,1.729-2.259,2.989l-2.647,11.79c-0.061,0.27,0.109,0.537,0.378,0.598
			c0.037,0.008,0.074,0.012,0.11,0.012c0.229,0,0.435-0.158,0.487-0.391l2.64-11.759c0.291-0.993,0.937-1.842,1.82-2.391
			c0.031-0.019,3.066-1.892,7.349-2.66C19.657,21.217,22.241,21.209,24.644,19.548z M17.674,18.617
			c-0.001,0-0.001-0.001-0.001-0.001c-2.319-1.696-3.76-4.988-3.76-8.591c0-6.332,4.417-7.277,7.049-7.277s7.049,0.945,7.049,7.277
			c0,3.597-1.437,6.884-3.751,8.584c-0.005,0.004-0.01,0.008-0.015,0.012C22.082,20.199,19.837,20.197,17.674,18.617z"/>
		<path d="M39.903,23.342H26.178c-3.084,0-5.593,2.51-5.593,5.594V42.66c0,0.137,0.017,0.268,0.034,0.399l0.019,0.151
			c0.019,0.192,0.147,0.357,0.33,0.422c0.181,0.064,0.384,0.021,0.522-0.117l6.148-6.163c0.12-0.121,0.171-0.295,0.134-0.461
			c-0.217-0.986-0.159-2.012,0.167-2.961c0.477-1.346,1.447-2.422,2.729-3.029c1.271-0.602,2.699-0.67,4.073-0.176
			c0.219,0.072,0.43,0.162,0.634,0.268l-3.461,1.819c-0.154,0.081-0.255,0.236-0.266,0.411l-0.184,2.912
			c-0.011,0.181,0.076,0.354,0.229,0.452l2.523,1.618c0.151,0.098,0.345,0.105,0.505,0.021c0,0,0.089-0.048,0.089-0.048l3.342-1.795
			c-0.048,0.375-0.129,0.744-0.243,1.102c-0.895,2.648-3.687,4.132-6.36,3.377c-0.175-0.051-0.361,0-0.489,0.128l-6.296,6.295
			c-0.13,0.13-0.178,0.32-0.126,0.496s0.197,0.309,0.376,0.347c0.394,0.083,0.785,0.125,1.164,0.125h13.725
			c0.564,0,1.121-0.084,1.654-0.249c2.356-0.729,3.939-2.876,3.939-5.344V28.936C45.496,25.852,42.987,23.342,39.903,23.342z
			 M44.496,42.66c0,2.026-1.3,3.79-3.235,4.389c-0.437,0.136-0.894,0.204-1.358,0.204H26.211l5.355-5.354
			c3.094,0.72,6.257-1.036,7.294-4.102c0.235-0.738,0.351-1.506,0.344-2.28c-0.001-0.176-0.094-0.337-0.245-0.426
			c-0.151-0.091-0.336-0.094-0.492-0.011l-3.958,2.125l-2.028-1.3l0.147-2.339l3.972-2.088c0.15-0.079,0.25-0.229,0.265-0.398
			c0.015-0.17-0.057-0.335-0.191-0.439c-0.488-0.378-1.032-0.669-1.644-0.875c-1.573-0.567-3.276-0.484-4.789,0.232
			c-1.525,0.722-2.678,2-3.246,3.604c-0.357,1.039-0.444,2.151-0.253,3.233l-5.157,5.169V28.936c0-2.533,2.061-4.594,4.593-4.594
			h13.725c2.532,0,4.593,2.061,4.593,4.594V42.66z"/>
	</g>
</g>
</svg>
