<?xml version="1.0" encoding="utf-8"?>
<!-- Generator: Adobe Illustrator 25.2.3, SVG Export Plug-In . SVG Version: 6.00 Build 0)  -->
<svg version="1.1" id="Layer_1" xmlns="http://www.w3.org/2000/svg" xmlns:xlink="http://www.w3.org/1999/xlink" x="0px" y="0px"
	 viewBox="0 0 50 50" style="enable-background:new 0 0 50 50;" xml:space="preserve">
<g id="Layer_1_1_">
</g>
<g id="Icons">
</g>
<g id="Isolation_Mode">
	<g>
		<path style="fill:#FFFFFF;" d="M3.891,36.982C3.928,36.991,3.964,36.995,4,36.995c0.229,0,0.436-0.158,0.488-0.391l2.639-11.759
			c0.292-0.993,0.938-1.842,1.82-2.39c0.031-0.019,3.067-1.892,7.35-2.661c2.399,1.67,4.984,1.662,7.388,0.001
			c1.393,0.248,2.794,0.633,4.168,1.152c0.059,0.022,0.118,0.032,0.177,0.032c0.202,0,0.392-0.123,0.468-0.323
			c0.098-0.258-0.032-0.547-0.291-0.645c-1.157-0.437-2.333-0.783-3.509-1.038c2.087-1.997,3.355-5.221,3.355-8.702
			c0-5.26-2.934-8.277-8.049-8.277s-8.049,3.017-8.049,8.277c0,3.48,1.267,6.704,3.353,8.701c-4.036,0.871-6.767,2.557-6.888,2.633
			c-1.091,0.677-1.891,1.728-2.26,2.989L3.512,36.385C3.451,36.654,3.621,36.922,3.891,36.982z M12.954,10.272
			c0-6.332,4.416-7.277,7.049-7.277s7.049,0.945,7.049,7.277c0,3.602-1.44,6.893-3.759,8.59c-2.166,1.586-4.414,1.585-6.578,0.002
			c0,0,0,0-0.001-0.001C14.395,17.167,12.954,13.875,12.954,10.272z"/>
		<path style="fill:#FFFFFF;" d="M20.5,35c0,7.171,5.832,13.005,13,13.005s13-5.834,13-13.005s-5.832-13.005-13-13.005
			S20.5,27.829,20.5,35z M33.5,22.995c6.617,0,12,5.386,12,12.005s-5.383,12.005-12,12.005S21.5,41.62,21.5,35
			S26.883,22.995,33.5,22.995z"/>
		<path style="fill:#FFFFFF;" d="M31.199,41.237c0.094,0.135,0.247,0.215,0.411,0.215c0.002,0,0.004,0,0.006,0
			c0.166-0.002,0.32-0.086,0.411-0.225l7.858-11.904c0.152-0.23,0.089-0.541-0.142-0.693c-0.231-0.151-0.541-0.089-0.692,0.142
			L31.6,40.061l-3.657-5.268c-0.158-0.227-0.47-0.283-0.696-0.125s-0.283,0.469-0.126,0.696L31.199,41.237z"/>
	</g>
</g>
</svg>
