<svg id="Layer_1" data-name="Layer 1" xmlns="http://www.w3.org/2000/svg" viewBox="0 0 128 128"><defs><style>.cls-1,.cls-2,.cls-3{fill:none;stroke:#000;}.cls-1,.cls-3{stroke-linecap:round;stroke-linejoin:round;}.cls-1,.cls-2{stroke-width:3px;}.cls-2{stroke-miterlimit:10;}.cls-3{stroke-width:3.05px;}</style></defs><polyline class="cls-1" points="24.96 46.69 24.96 23.32 123.46 23.32 123.46 47.94 50.32 47.94"/><polyline class="cls-1" points="60.79 55.94 123.46 55.94 123.46 80.56 69.24 80.56"/><polygon points="112.61 32.63 112.61 30.62 105.41 30.62 105.41 40.9 112.61 40.9 112.61 38.89 107.62 38.89 107.62 36.68 112.51 36.68 112.51 34.67 107.62 34.67 107.62 32.63 112.61 32.63"/><path d="M42.54,36.74a2.25,2.25,0,1,1-4.5,0V30.62H35.81V36.8c0,2.68,1.68,4.28,4.49,4.28s4.47-1.57,4.47-4.3V30.62H42.54Z"/><path d="M50.25,34.52c-1-.26-2-.49-2-1.06s.54-1,1.4-1a3.72,3.72,0,0,1,2.66,1l.2.2,1.29-1.68-.16-.15a5.29,5.29,0,0,0-3.84-1.44c-2.21,0-3.81,1.31-3.81,3.11,0,2.27,2,2.78,3.69,3.19,1.25.32,2,.55,2,1.2s-.45,1.08-1.71,1.08a4,4,0,0,1-2.92-1.27l-.2-.22L45.65,39.3l.14.15A5.53,5.53,0,0,0,50,41.08c3,0,4-1.69,4-3.27C54,35.48,51.84,34.93,50.25,34.52Z"/><polygon points="55.07 40.9 62.28 40.9 62.28 38.89 57.29 38.89 57.29 36.68 62.17 36.68 62.17 34.67 57.29 34.67 57.29 32.63 62.28 32.63 62.28 30.62 55.07 30.62 55.07 40.9"/><path d="M71.54,33.93a3.2,3.2,0,0,0-3.45-3.31H63.54V40.9h2.22V37.25h1.3l2.18,3.65h2.57L69.37,37A3,3,0,0,0,71.54,33.93Zm-2.26,0a1.3,1.3,0,0,1-1.43,1.31H65.76V32.63h2.09A1.3,1.3,0,0,1,69.28,33.93Z"/><polygon points="79.52 37.03 74.89 30.62 72.75 30.62 72.75 40.9 74.97 40.9 74.97 34.3 79.7 40.9 81.73 40.9 81.73 30.62 79.52 30.62 79.52 37.03"/><path d="M86.21,30.62l-4,10.28h2.42L85.31,39H89.6l.72,1.87h2.42l-4-10.28ZM88.93,37H86l1.48-4Z"/><polygon points="98.52 36.79 96.03 30.62 93.19 30.62 93.19 40.9 95.41 40.9 95.41 34.53 97.98 40.9 99.05 40.9 101.64 34.52 101.64 40.9 103.86 40.9 103.86 30.62 101.02 30.62 98.52 36.79"/><path d="M74.34,69.73l-3.08,2-1-1.78,3.2-1.65-3.2-1.65,1-1.82,3.08,2-.17-3.63h2.08l-.17,3.63,3-2,1.06,1.82L77,68.25l3.2,1.65-1.06,1.78-3-2,.17,3.64H74.17Z"/><path d="M85.92,69.73l-3.07,2-1-1.78L85,68.25l-3.2-1.65,1-1.82,3.07,2-.16-3.63h2.08l-.17,3.63,3-2,1.06,1.82-3.21,1.65,3.21,1.65-1.06,1.78-3-2,.17,3.64H85.76Z"/><path d="M97.51,69.73l-3.07,2-1-1.78,3.2-1.65-3.2-1.65,1-1.82,3.07,2-.16-3.63h2.08l-.17,3.63,3-2,1,1.82-3.2,1.65,3.2,1.65-1,1.78-3-2,.17,3.64H97.35Z"/><path d="M109.1,69.73l-3.07,2-1-1.78,3.21-1.65L105,66.6l1-1.82,3.07,2-.17-3.63H111l-.16,3.63,3-2,1.06,1.82-3.2,1.65,3.2,1.65-1.06,1.78-3-2,.16,3.64h-2.08Z"/><circle class="cls-2" cx="36.48" cy="76.74" r="31.93"/><rect class="cls-3" x="22.97" y="71.11" width="27.03" height="23.62"/><path class="cls-3" d="M46.61,71.11V64.36a10.12,10.12,0,1,0-20.24,0v6.75"/></svg>