<svg viewBox="0 0 128 128" xmlns="http://www.w3.org/2000/svg"><g fill="none" stroke="#1d9cd3" stroke-width="3"><g stroke-miterlimit="10"><path d="m66.28 73.35a29.94 29.94 0 1 1 -5.27 17 30 30 0 0 1 2.71-12.5"/><path d="m53.96 81.26 9.91-3.61 3.6 9.91"/><path d="m28.85 33.47h-5.78a15.57 15.57 0 0 0 -15.63 15.73v14.35"/><circle cx="28.83" cy="20.6" r="12.87"/><path d="m84.77 33.47h5.77a15.57 15.57 0 0 1 15.64 15.73v11.36"/><circle cx="84.79" cy="20.6" r="12.87"/><path d="m55.26 63.55h-7.11a19.15 19.15 0 0 0 -19.24 19.36v19.28"/><circle cx="54.66" cy="46.38" r="17.17"/></g><path d="m96.86 74.18a16.89 16.89 0 1 1 -5.75-1v17h10.81" stroke-linecap="round" stroke-linejoin="round"/></g></svg>