<?xml version="1.0" encoding="utf-8"?>
<!-- Generator: Adobe Illustrator 25.2.3, SVG Export Plug-In . SVG Version: 6.00 Build 0)  -->
<svg version="1.1" id="Layer_1" xmlns="http://www.w3.org/2000/svg" xmlns:xlink="http://www.w3.org/1999/xlink" x="0px" y="0px"
	 viewBox="0 0 50 50" style="enable-background:new 0 0 50 50;" xml:space="preserve">
<g id="Layer_1_1_">
</g>
<g id="Icons">
</g>
<g id="Isolation_Mode">
	<g>
		<path d="M32.524,23.842c0.276,0,0.5-0.224,0.5-0.5v-4.79l3.147,3.137c0.193,0.194,0.512,0.195,0.707-0.001
			c0.194-0.196,0.194-0.512-0.002-0.707l-3.926-3.913c-0.086-0.149-0.241-0.254-0.426-0.254c-0.167,0-0.308,0.087-0.399,0.214
			l-4.08,4.003c-0.196,0.193-0.2,0.51-0.006,0.707c0.098,0.1,0.227,0.15,0.356,0.15c0.126,0,0.253-0.048,0.351-0.143l3.277-3.216
			v4.815C32.024,23.618,32.248,23.842,32.524,23.842z"/>
		<path d="M17.17,43.147L17.17,43.147C17.17,43.148,17.171,43.148,17.17,43.147c0.039,0.069,0.098,0.123,0.165,0.168
			c0.021,0.014,0.041,0.023,0.063,0.033c0.023,0.011,0.042,0.028,0.067,0.035l5.539,1.635c0.047,0.014,0.095,0.021,0.142,0.021
			c0.216,0,0.415-0.141,0.479-0.358c0.078-0.265-0.073-0.543-0.338-0.621l-4.397-1.298l4.407-2.453
			c0.241-0.134,0.328-0.439,0.193-0.68c-0.134-0.243-0.44-0.326-0.68-0.194l-4.394,2.446l1.212-4.283
			c0.075-0.266-0.079-0.542-0.346-0.617c-0.265-0.08-0.542,0.079-0.617,0.345l-1.54,5.442c-0.006,0.023-0.002,0.045-0.005,0.068
			c-0.006,0.041-0.014,0.082-0.01,0.125C17.118,43.027,17.138,43.09,17.17,43.147z"/>
		<path d="M48,42.836c-0.003-0.023,0.001-0.045-0.005-0.068l-1.54-5.442c-0.075-0.265-0.352-0.422-0.617-0.345
			c-0.267,0.075-0.421,0.352-0.346,0.617l1.212,4.283l-4.394-2.446c-0.24-0.135-0.547-0.049-0.68,0.194
			c-0.135,0.241-0.048,0.546,0.193,0.68l4.407,2.453l-4.396,1.298c-0.265,0.078-0.416,0.356-0.338,0.621
			c0.064,0.218,0.264,0.358,0.479,0.358c0.047,0,0.095-0.006,0.142-0.021l5.538-1.635c0.025-0.008,0.044-0.024,0.067-0.035
			c0.022-0.01,0.042-0.019,0.062-0.033c0.067-0.044,0.126-0.099,0.164-0.167c0,0,0.001,0,0.001-0.001l0,0
			c0.032-0.057,0.052-0.12,0.06-0.186C48.015,42.919,48.006,42.878,48,42.836z"/>
		<path d="M33.562,29.613c-1.31-0.272-2.644-0.018-3.759,0.714c-1.116,0.732-1.881,1.855-2.152,3.163
			c-0.272,1.307-0.02,2.642,0.713,3.759c0.732,1.117,1.855,1.881,3.163,2.153c0.342,0.071,0.683,0.105,1.02,0.105
			c2.316,0,4.401-1.625,4.893-3.981C38,32.828,36.261,30.175,33.562,29.613z M36.46,35.322c-0.449,2.159-2.57,3.552-4.73,3.101
			c-1.046-0.217-1.944-0.829-2.53-1.722c-0.585-0.894-0.788-1.961-0.57-3.007l0,0c0.218-1.045,0.829-1.944,1.723-2.53
			c0.659-0.433,1.414-0.656,2.185-0.656c0.273,0,0.548,0.028,0.822,0.085C35.518,31.042,36.908,33.164,36.46,35.322z"/>
		<path d="M42.008,33.649c-0.001-0.008-0.008-0.013-0.009-0.021c-0.013-0.096-0.051-0.182-0.112-0.254
			c-0.011-0.013-0.023-0.022-0.036-0.034c-0.07-0.067-0.153-0.121-0.255-0.139l-2.015-0.349c-0.037-0.158-0.08-0.314-0.127-0.469
			l1.544-1.39c0.076-0.068,0.117-0.156,0.141-0.247c0.005-0.018,0.01-0.032,0.013-0.051c0.014-0.092,0.003-0.184-0.035-0.272
			c-0.003-0.006,0-0.013-0.002-0.019c-0.242-0.504-0.528-0.987-0.851-1.437c-0.004-0.006-0.013-0.007-0.018-0.013
			c-0.06-0.078-0.138-0.133-0.229-0.163c-0.014-0.005-0.026-0.006-0.041-0.01c-0.095-0.024-0.196-0.028-0.295,0.009l-1.912,0.721
			c-0.084-0.088-0.17-0.174-0.258-0.257l0.661-1.974c0.032-0.096,0.024-0.193,0-0.284c-0.005-0.018-0.007-0.033-0.014-0.05
			c-0.033-0.086-0.087-0.161-0.162-0.218c-0.006-0.004-0.006-0.012-0.012-0.016c-0.449-0.313-0.938-0.592-1.45-0.83
			c-0.008-0.004-0.017,0.001-0.025-0.003c-0.088-0.035-0.18-0.045-0.271-0.029c-0.018,0.003-0.033,0.009-0.051,0.015
			c-0.092,0.026-0.18,0.071-0.246,0.15l-1.31,1.57c-0.134-0.04-0.268-0.077-0.406-0.11l-0.412-2.036
			c-0.02-0.1-0.075-0.18-0.142-0.247c-0.013-0.013-0.022-0.024-0.036-0.036c-0.072-0.059-0.157-0.097-0.251-0.109
			c-0.006-0.001-0.011-0.007-0.017-0.007c-0.562-0.05-1.124-0.049-1.672,0c-0.009,0.001-0.014,0.009-0.023,0.01
			c-0.094,0.013-0.178,0.051-0.249,0.11c-0.015,0.012-0.025,0.026-0.038,0.04c-0.066,0.069-0.12,0.151-0.137,0.252l-0.351,2.015
			c-0.156,0.037-0.311,0.078-0.464,0.125l-1.387-1.547c-0.068-0.075-0.155-0.117-0.246-0.141c-0.018-0.005-0.033-0.01-0.052-0.013
			c-0.092-0.014-0.184-0.004-0.271,0.034c-0.006,0.003-0.013,0-0.019,0.002c-0.501,0.239-0.984,0.525-1.438,0.849
			c-0.013,0.014-0.02,0.025-0.03,0.034c-0.018,0.016-0.034,0.032-0.05,0.05c-0.025,0.028-0.046,0.057-0.064,0.089
			c-0.011,0.02-0.022,0.04-0.03,0.061c-0.014,0.037-0.022,0.074-0.027,0.113c-0.003,0.02-0.008,0.039-0.008,0.06
			c-0.001,0.06,0.007,0.121,0.029,0.181l0.718,1.914c-0.088,0.084-0.174,0.17-0.257,0.258l-1.973-0.664
			c-0.095-0.031-0.19-0.024-0.28-0.001c-0.019,0.005-0.036,0.008-0.054,0.015c-0.086,0.033-0.16,0.086-0.217,0.161
			c-0.005,0.006-0.013,0.007-0.018,0.013c-0.315,0.452-0.596,0.939-0.831,1.448c-0.003,0.007,0.001,0.015-0.002,0.022
			c-0.037,0.089-0.047,0.183-0.03,0.276c0.003,0.018,0.009,0.032,0.014,0.049c0.027,0.093,0.071,0.181,0.151,0.247l1.568,1.311
			c-0.04,0.134-0.077,0.269-0.11,0.407l-2.037,0.41c-0.099,0.02-0.179,0.074-0.246,0.141c-0.013,0.013-0.026,0.023-0.038,0.038
			c-0.058,0.072-0.096,0.156-0.108,0.249c-0.001,0.007-0.007,0.011-0.008,0.018c-0.05,0.565-0.05,1.128-0.001,1.672
			c0.001,0.008,0.009,0.014,0.01,0.022c0.013,0.095,0.051,0.18,0.112,0.252c0.011,0.013,0.023,0.023,0.036,0.035
			c0.069,0.067,0.152,0.121,0.255,0.139l2.014,0.352c0.037,0.158,0.079,0.315,0.126,0.47l-1.548,1.386
			c-0.076,0.068-0.117,0.155-0.141,0.247c-0.005,0.018-0.01,0.033-0.013,0.051c-0.014,0.091-0.004,0.182,0.034,0.269
			c0.003,0.007-0.001,0.014,0.003,0.021c0.242,0.506,0.528,0.99,0.85,1.439c0.006,0.009,0.016,0.012,0.023,0.02
			c0.034,0.042,0.075,0.075,0.12,0.104c0.017,0.011,0.03,0.026,0.049,0.034c0.064,0.031,0.133,0.047,0.205,0.049
			c0.003,0,0.006,0.002,0.01,0.002c0.059,0,0.118-0.01,0.176-0.032l1.913-0.718c0.084,0.088,0.17,0.174,0.258,0.257l-0.664,1.972
			c-0.032,0.095-0.025,0.191-0.001,0.282c0.005,0.019,0.008,0.036,0.015,0.055c0.033,0.085,0.086,0.159,0.16,0.216
			c0.006,0.005,0.007,0.013,0.013,0.017c0.453,0.317,0.94,0.597,1.449,0.833c0.009,0.004,0.02,0.003,0.029,0.006
			c0.042,0.016,0.083,0.023,0.127,0.028c0.018,0.002,0.035,0.012,0.053,0.012c0.007,0,0.013-0.004,0.019-0.004
			c0.047-0.002,0.091-0.015,0.136-0.03c0.021-0.007,0.042-0.008,0.061-0.018c0.062-0.03,0.119-0.071,0.167-0.127l1.312-1.568
			c0.136,0.042,0.271,0.079,0.406,0.111l0.409,2.037c0.021,0.104,0.076,0.19,0.147,0.258c0.006,0.006,0.01,0.013,0.017,0.019
			c0.073,0.063,0.162,0.099,0.259,0.113c0.008,0.001,0.014,0.009,0.022,0.01c0.284,0.025,0.569,0.038,0.854,0.038
			c0.26,0,0.518-0.012,0.775-0.034c0,0,0,0,0.001,0c0,0,0,0,0.001,0c0.014-0.001,0.028-0.001,0.042-0.002
			c0.008-0.001,0.013-0.008,0.022-0.01c0.1-0.013,0.192-0.052,0.266-0.117c0.006-0.005,0.009-0.012,0.014-0.017
			c0.072-0.071,0.128-0.16,0.146-0.268l0.353-2.014c0.166-0.039,0.329-0.082,0.491-0.132l1.39,1.544
			c0.048,0.053,0.105,0.092,0.166,0.12c0.021,0.009,0.043,0.01,0.064,0.016c0.042,0.013,0.084,0.026,0.128,0.027
			c0.005,0,0.009,0.003,0.013,0.003c0.018,0,0.036-0.01,0.054-0.012c0.047-0.005,0.092-0.013,0.136-0.031
			c0.009-0.004,0.018-0.002,0.027-0.006c0.503-0.242,0.986-0.528,1.437-0.852c0.011-0.008,0.018-0.02,0.029-0.029
			c0.017-0.015,0.032-0.03,0.046-0.047c0.026-0.029,0.048-0.06,0.067-0.094c0.01-0.019,0.02-0.037,0.028-0.057
			c0.015-0.038,0.023-0.078,0.028-0.118c0.002-0.019,0.007-0.037,0.008-0.056c0.001-0.061-0.007-0.122-0.03-0.181l-0.722-1.912
			c0.088-0.083,0.174-0.17,0.257-0.258l1.974,0.66c0.052,0.018,0.105,0.026,0.158,0.026c0.006,0,0.011-0.004,0.016-0.004
			c0.075-0.002,0.147-0.018,0.212-0.051c0.003-0.002,0.005-0.004,0.008-0.006c0.061-0.033,0.113-0.08,0.157-0.137
			c0.005-0.006,0.013-0.009,0.018-0.015c0.313-0.449,0.592-0.937,0.829-1.451c0.004-0.008-0.001-0.016,0.003-0.024
			c0.036-0.089,0.045-0.181,0.029-0.273c-0.003-0.018-0.009-0.032-0.014-0.05c-0.027-0.092-0.071-0.18-0.151-0.247l-1.571-1.308
			c0.04-0.134,0.077-0.269,0.109-0.407l2.036-0.414c0.099-0.02,0.179-0.075,0.246-0.141c0.013-0.013,0.025-0.023,0.037-0.037
			c0.058-0.072,0.096-0.156,0.108-0.249c0.001-0.007,0.007-0.011,0.008-0.018C42.058,34.763,42.058,34.2,42.008,33.649z
			 M36.55,42.003L35.197,40.5c-0.063-0.069-0.141-0.109-0.224-0.135c-0.019-0.006-0.036-0.01-0.056-0.014
			c-0.087-0.017-0.176-0.018-0.261,0.013h-0.001c-0.321,0.116-0.656,0.206-0.996,0.268c-0.004,0.001-0.006,0.004-0.01,0.005
			c-0.087,0.018-0.163,0.062-0.228,0.12c-0.016,0.014-0.029,0.028-0.043,0.044c-0.059,0.066-0.107,0.143-0.123,0.237L32.912,43
			c-0.246,0.01-0.493,0.01-0.743-0.001l-0.399-1.985c-0.044-0.219-0.231-0.369-0.44-0.392c-0.018-0.005-0.036-0.015-0.053-0.019
			c-0.285-0.059-0.561-0.139-0.827-0.234c-0.003-0.001-0.006,0.001-0.009,0c-0.084-0.028-0.171-0.028-0.257-0.01
			c-0.023,0.005-0.044,0.011-0.066,0.019c-0.082,0.029-0.159,0.071-0.22,0.142l-1.278,1.528c-0.221-0.115-0.436-0.238-0.644-0.37
			l0.646-1.919c0.029-0.087,0.025-0.175,0.008-0.259c-0.004-0.021-0.009-0.04-0.017-0.06c-0.028-0.082-0.07-0.159-0.136-0.216
			c-0.001-0.001-0.001-0.001-0.001-0.002c-0.227-0.197-0.443-0.414-0.643-0.644c-0.002-0.003-0.006-0.003-0.008-0.005
			c-0.06-0.066-0.136-0.109-0.219-0.136c-0.02-0.007-0.039-0.01-0.06-0.014c-0.087-0.017-0.178-0.019-0.266,0.014l-1.864,0.699
			c-0.134-0.207-0.26-0.421-0.377-0.641l1.507-1.349c0.069-0.062,0.108-0.14,0.134-0.223c0.006-0.02,0.011-0.038,0.015-0.059
			c0.016-0.086,0.017-0.173-0.012-0.257c0-0.001,0-0.002,0-0.003c-0.113-0.315-0.201-0.644-0.262-0.978
			c-0.001-0.003-0.004-0.005-0.005-0.009c-0.018-0.088-0.062-0.165-0.121-0.231c-0.014-0.016-0.027-0.028-0.043-0.041
			c-0.067-0.059-0.144-0.106-0.238-0.123l-1.962-0.343c-0.01-0.245-0.01-0.493,0.002-0.743l1.984-0.399
			c0.221-0.045,0.37-0.229,0.392-0.442c0.005-0.018,0.015-0.036,0.019-0.053c0.06-0.284,0.139-0.56,0.233-0.826
			c0.001-0.003-0.001-0.006,0-0.009c0.028-0.085,0.027-0.174,0.009-0.26c-0.004-0.02-0.01-0.037-0.016-0.057
			c-0.029-0.084-0.071-0.164-0.144-0.225l-1.527-1.277c0.114-0.221,0.237-0.436,0.37-0.644l1.919,0.646
			c0.052,0.018,0.105,0.026,0.159,0.026c0.006,0,0.012-0.004,0.018-0.004c0.048-0.002,0.092-0.015,0.136-0.029
			c0.02-0.007,0.04-0.007,0.059-0.016c0.062-0.029,0.117-0.069,0.163-0.122c0.001-0.001,0.002-0.001,0.003-0.002
			c0.195-0.227,0.411-0.443,0.643-0.642c0.002-0.002,0.002-0.006,0.005-0.008c0.067-0.06,0.111-0.138,0.137-0.222
			c0.006-0.02,0.01-0.037,0.014-0.057c0.017-0.087,0.019-0.178-0.015-0.267l-0.699-1.864c0.208-0.135,0.422-0.261,0.64-0.378
			l1.35,1.506c0.047,0.053,0.104,0.092,0.165,0.12c0.02,0.009,0.043,0.01,0.064,0.016c0.043,0.013,0.085,0.026,0.129,0.027
			c0.005,0,0.009,0.003,0.014,0.003c0.048,0,0.095-0.011,0.142-0.025c0.007-0.002,0.015-0.001,0.022-0.004
			c0.002-0.001,0.003,0,0.005-0.001c0.312-0.112,0.64-0.201,0.974-0.262c0.005-0.001,0.008-0.006,0.013-0.007
			c0.082-0.018,0.154-0.061,0.218-0.115c0.02-0.017,0.036-0.033,0.052-0.054c0.056-0.065,0.102-0.14,0.118-0.231l0.342-1.962
			c0.247-0.01,0.494-0.011,0.743,0L33.308,28c0.046,0.226,0.238,0.381,0.457,0.395c0.016,0.005,0.033,0.014,0.049,0.017
			c0.281,0.058,0.553,0.136,0.815,0.229c0.004,0.001,0.008,0.001,0.012,0.002c0.021,0.007,0.041,0.007,0.062,0.011
			c0.031,0.006,0.062,0.016,0.093,0.016c0.007,0,0.013-0.004,0.02-0.004c0.049-0.002,0.096-0.015,0.142-0.031
			c0.018-0.006,0.037-0.007,0.055-0.016c0.062-0.03,0.12-0.071,0.167-0.128l1.276-1.53c0.223,0.115,0.437,0.238,0.645,0.369
			l-0.643,1.92c-0.029,0.088-0.025,0.175-0.007,0.26c0.004,0.021,0.009,0.038,0.016,0.058c0.028,0.083,0.071,0.16,0.138,0.218
			c0,0,0,0.001,0.001,0.001c0.227,0.196,0.443,0.413,0.643,0.643c0.002,0.003,0.006,0.004,0.008,0.006
			c0.092,0.103,0.222,0.162,0.361,0.165c0.003,0,0.006,0.002,0.009,0.002c0.06,0,0.119-0.01,0.177-0.032l1.862-0.702
			c0.135,0.207,0.262,0.421,0.379,0.64l-1.503,1.353c-0.069,0.062-0.109,0.141-0.135,0.223c-0.006,0.02-0.011,0.037-0.014,0.057
			c-0.016,0.086-0.017,0.174,0.012,0.258c0,0.001,0,0.002,0,0.002c0.114,0.317,0.203,0.646,0.264,0.978
			c0.001,0.003,0.004,0.005,0.004,0.008c0.018,0.089,0.063,0.165,0.122,0.231c0.014,0.015,0.027,0.027,0.042,0.04
			c0.067,0.059,0.144,0.106,0.238,0.123l1.962,0.339c0.011,0.247,0.011,0.495,0,0.743l-1.984,0.404
			c-0.222,0.045-0.371,0.232-0.391,0.446c-0.007,0.021-0.017,0.043-0.021,0.062c-0.059,0.28-0.136,0.551-0.229,0.813
			c-0.001,0.003,0.001,0.006,0,0.009c-0.028,0.085-0.027,0.174-0.009,0.26c0.004,0.02,0.01,0.037,0.016,0.057
			c0.029,0.084,0.071,0.163,0.144,0.224l1.531,1.275c-0.114,0.222-0.237,0.437-0.369,0.645l-1.92-0.642
			c-0.086-0.028-0.173-0.024-0.257-0.007c-0.022,0.005-0.042,0.01-0.063,0.017c-0.081,0.028-0.157,0.07-0.215,0.135
			c-0.001,0.001-0.002,0.001-0.002,0.002c-0.197,0.229-0.414,0.446-0.643,0.645c-0.002,0.002-0.002,0.006-0.005,0.008
			c-0.067,0.06-0.11,0.138-0.136,0.222c-0.006,0.02-0.01,0.037-0.013,0.057c-0.017,0.087-0.019,0.178,0.015,0.267l0.703,1.862
			C36.983,41.76,36.769,41.886,36.55,42.003z"/>
		<path d="M7.429,25.421c0.03-0.019,3.062-1.892,7.34-2.66c2.394,1.67,4.977,1.661,7.379,0.001c1.393,0.249,2.792,0.633,4.162,1.152
			c0.058,0.022,0.118,0.032,0.177,0.032c0.202,0,0.392-0.123,0.468-0.323c0.098-0.258-0.032-0.547-0.291-0.645
			c-1.154-0.437-2.329-0.783-3.505-1.038c2.084-1.997,3.351-5.221,3.351-8.702c0-5.26-2.931-8.277-8.04-8.277
			s-8.039,3.017-8.039,8.277c0,3.48,1.265,6.704,3.349,8.701c-4.03,0.872-6.758,2.557-6.879,2.633
			c-1.091,0.678-1.889,1.729-2.257,2.989L1.998,39.352c-0.06,0.27,0.109,0.537,0.379,0.597c0.037,0.008,0.073,0.012,0.109,0.012
			c0.229,0,0.436-0.158,0.488-0.391L5.61,27.81C5.901,26.818,6.546,25.97,7.429,25.421z M11.43,13.238
			c0-6.332,4.41-7.277,7.039-7.277s7.04,0.945,7.04,7.277c0,3.602-1.438,6.893-3.755,8.59c-2.162,1.586-4.407,1.586-6.569,0l0,0
			C12.869,20.131,11.43,16.84,11.43,13.238z"/>
	</g>
</g>
</svg>
