<svg xmlns="http://www.w3.org/2000/svg" viewBox="0 0 50 50"><g id="a176676c-1c90-4edb-a8f3-4e8a16c2822f" data-name="Icons"><g id="f62e7c26-2c05-484f-8f0b-eebb05c818a3" data-name="app"><path d="M36.48,45.5h-.657a.5.5,0,0,1,0-1h.657a8.049,8.049,0,0,0,1.721-.185.5.5,0,0,1,.214.977A9.079,9.079,0,0,1,36.48,45.5Zm-3.157,0h-2.5a.5.5,0,0,1,0-1h2.5a.5.5,0,1,1,0,1Zm-5,0h-2.5a.5.5,0,0,1,0-1h2.5a.5.5,0,1,1,0,1Zm-5,0h-2.5a.5.5,0,0,1,0-1h2.5a.5.5,0,1,1,0,1Zm-5,0h-2.5a.5.5,0,0,1,0-1h2.5a.5.5,0,0,1,0,1Zm-5,0h-.011a9.008,9.008,0,0,1-2.6-.443.5.5,0,0,1,.31-.951,8.014,8.014,0,0,0,2.311.394.5.5,0,0,1-.011,1Zm27.313-1.079a.5.5,0,0,1-.244-.936,8.083,8.083,0,0,0,1.858-1.432.5.5,0,1,1,.718.7,9.038,9.038,0,0,1-2.088,1.61A.5.5,0,0,1,40.636,44.419Zm-32-.453a.49.49,0,0,1-.286-.091,9.016,9.016,0,0,1-1.917-1.809.5.5,0,0,1,.785-.62,8.063,8.063,0,0,0,1.7,1.61.5.5,0,0,1-.287.91Zm35.42-3.091a.486.486,0,0,1-.228-.056.5.5,0,0,1-.217-.673,7.966,7.966,0,0,0,.755-2.219.5.5,0,0,1,.984.179,9,9,0,0,1-.849,2.5A.5.5,0,0,1,44.06,40.875ZM5.588,40.1a.5.5,0,0,1-.465-.317,8.986,8.986,0,0,1-.594-2.57.5.5,0,0,1,1-.08,8.01,8.01,0,0,0,.527,2.284.5.5,0,0,1-.282.648A.512.512,0,0,1,5.588,40.1ZM45,36.026a.5.5,0,0,1-.5-.5v-2.5a.5.5,0,0,1,1,0v2.5A.5.5,0,0,1,45,36.026ZM5,35.171a.5.5,0,0,1-.5-.5v-2.5a.5.5,0,0,1,1,0v2.5A.5.5,0,0,1,5,35.171Zm40-4.145a.5.5,0,0,1-.5-.5v-2.5a.5.5,0,1,1,1,0v2.5A.5.5,0,0,1,45,31.026ZM5,30.171a.5.5,0,0,1-.5-.5v-2.5a.5.5,0,0,1,1,0v2.5A.5.5,0,0,1,5,30.171Zm40-4.145a.5.5,0,0,1-.5-.5v-2.5a.5.5,0,1,1,1,0v2.5A.5.5,0,0,1,45,26.026ZM5,25.171a.5.5,0,0,1-.5-.5v-2.5a.5.5,0,0,1,1,0v2.5A.5.5,0,0,1,5,25.171Zm40-4.145a.5.5,0,0,1-.5-.5v-2.5a.5.5,0,1,1,1,0v2.5A.5.5,0,0,1,45,21.026ZM5,20.171a.5.5,0,0,1-.5-.5v-2.5a.5.5,0,0,1,1,0v2.5A.5.5,0,0,1,5,20.171Zm40-4.145a.5.5,0,0,1-.5-.5V13.52c0-.156,0-.311-.013-.465a.5.5,0,1,1,1-.057q.015.26.015.522v2.006A.5.5,0,0,1,45,16.026ZM5,15.171a.5.5,0,0,1-.5-.5V13.52A9.107,9.107,0,0,1,4.612,12.1a.5.5,0,0,1,.987.156,8.1,8.1,0,0,0-.1,1.265v1.151A.5.5,0,0,1,5,15.171Zm39.482-4.083a.5.5,0,0,1-.469-.328A8.044,8.044,0,0,0,42.892,8.7a.5.5,0,1,1,.8-.6,9.015,9.015,0,0,1,1.261,2.316.5.5,0,0,1-.469.672ZM5.852,10.3a.5.5,0,0,1-.45-.718A9.052,9.052,0,0,1,6.888,7.406a.5.5,0,1,1,.736.678A7.988,7.988,0,0,0,6.3,10.021.5.5,0,0,1,5.852,10.3ZM41.519,7.149a.492.492,0,0,1-.3-.1,7.981,7.981,0,0,0-2.072-1.1.5.5,0,0,1,.333-.943,8.983,8.983,0,0,1,2.33,1.234.5.5,0,0,1-.3.9ZM9.194,6.679a.5.5,0,0,1-.255-.93,8.956,8.956,0,0,1,2.443-.994.5.5,0,0,1,.236.972,7.913,7.913,0,0,0-2.17.883A.5.5,0,0,1,9.194,6.679Zm27.681-1.17h-.023C36.728,5.5,36.6,5.5,36.478,5.5h-2.5a.5.5,0,0,1,0-1h2.5c.141,0,.279,0,.416.01a.5.5,0,0,1-.021,1ZM31.48,5.5h-2.5a.5.5,0,0,1,0-1h2.5a.5.5,0,1,1,0,1Zm-5,0h-2.5a.5.5,0,0,1,0-1h2.5a.5.5,0,0,1,0,1Zm-5,0h-2.5a.5.5,0,0,1,0-1h2.5a.5.5,0,0,1,0,1Zm-5,0h-2.5a.5.5,0,0,1,0-1h2.5a.5.5,0,0,1,0,1Z"/></g><path d="M19.406,27.026a1.161,1.161,0,0,1-.1-.307,3.284,3.284,0,0,1-.056-.384,3.053,3.053,0,0,1-.366.311,2.639,2.639,0,0,1-.445.257,2.709,2.709,0,0,1-.519.176,2.567,2.567,0,0,1-.586.065A2.666,2.666,0,0,1,16.421,27a2.139,2.139,0,0,1-.692-.395,1.741,1.741,0,0,1-.439-.592,1.786,1.786,0,0,1-.155-.741,1.924,1.924,0,0,1,.208-.915,1.812,1.812,0,0,1,.589-.653,2.716,2.716,0,0,1,.917-.389,5.122,5.122,0,0,1,1.2-.129H19.23v-.5a1.22,1.22,0,0,0-.105-.516,1.108,1.108,0,0,0-.3-.39,1.386,1.386,0,0,0-.472-.249,2.081,2.081,0,0,0-.624-.088,1.905,1.905,0,0,0-.577.082,1.41,1.41,0,0,0-.43.217.967.967,0,0,0-.273.32.821.821,0,0,0-.1.383h-1.09a1.521,1.521,0,0,1,.178-.679,1.939,1.939,0,0,1,.5-.6,2.611,2.611,0,0,1,.791-.431,3.189,3.189,0,0,1,1.058-.164,3.645,3.645,0,0,1,1,.132,2.277,2.277,0,0,1,.8.4,1.882,1.882,0,0,1,.53.665,2.106,2.106,0,0,1,.193.931v2.948a4.126,4.126,0,0,0,.059.67,3,3,0,0,0,.164.619v.093ZM17.49,26.2a2.056,2.056,0,0,0,.592-.082,2.185,2.185,0,0,0,.5-.217,1.825,1.825,0,0,0,.39-.307,1.491,1.491,0,0,0,.257-.361V23.95H18.223a3.189,3.189,0,0,0-1.477.281.937.937,0,0,0-.527.885,1.163,1.163,0,0,0,.079.434.92.92,0,0,0,.237.343,1.14,1.14,0,0,0,.4.225A1.708,1.708,0,0,0,17.49,26.2Z"/><path d="M27.756,23.927a4.679,4.679,0,0,1-.164,1.268,3.14,3.14,0,0,1-.48,1.023,2.274,2.274,0,0,1-.782.679,2.233,2.233,0,0,1-1.064.247,2.6,2.6,0,0,1-1.022-.188,2.126,2.126,0,0,1-.759-.539v3.047H22.4V20.687h.99l.053.691a2.121,2.121,0,0,1,.764-.6,2.461,2.461,0,0,1,1.041-.208,2.323,2.323,0,0,1,1.078.241,2.224,2.224,0,0,1,.785.668,3.068,3.068,0,0,1,.48,1.022,4.865,4.865,0,0,1,.164,1.3ZM26.672,23.8a3.713,3.713,0,0,0-.1-.882,2.293,2.293,0,0,0-.317-.738,1.593,1.593,0,0,0-.542-.507,1.554,1.554,0,0,0-.785-.188,1.516,1.516,0,0,0-.876.243,1.82,1.82,0,0,0-.565.624v3.053a1.775,1.775,0,0,0,.562.612,1.556,1.556,0,0,0,.891.238,1.522,1.522,0,0,0,.779-.191,1.581,1.581,0,0,0,.539-.512,2.378,2.378,0,0,0,.314-.744,3.763,3.763,0,0,0,.1-.885Z"/><path d="M34.947,23.927a4.719,4.719,0,0,1-.164,1.268,3.162,3.162,0,0,1-.481,1.023,2.265,2.265,0,0,1-.782.679,2.232,2.232,0,0,1-1.063.247,2.6,2.6,0,0,1-1.023-.188,2.126,2.126,0,0,1-.759-.539v3.047H29.591V20.687h.991l.052.691a2.116,2.116,0,0,1,.765-.6,2.456,2.456,0,0,1,1.04-.208,2.32,2.32,0,0,1,1.078.241,2.216,2.216,0,0,1,.785.668,3.089,3.089,0,0,1,.481,1.022,4.905,4.905,0,0,1,.164,1.3ZM33.863,23.8a3.662,3.662,0,0,0-.1-.882,2.291,2.291,0,0,0-.316-.738,1.6,1.6,0,0,0-.542-.507,1.559,1.559,0,0,0-.785-.188,1.512,1.512,0,0,0-.876.243,1.823,1.823,0,0,0-.566.624v3.053a1.778,1.778,0,0,0,.563.612,1.551,1.551,0,0,0,.89.238,1.528,1.528,0,0,0,.78-.191,1.6,1.6,0,0,0,.539-.512,2.377,2.377,0,0,0,.313-.744,3.711,3.711,0,0,0,.1-.885Z"/></g></svg>