<?xml version="1.0" encoding="utf-8"?>
<!-- Generator: Adobe Illustrator 25.2.3, SVG Export Plug-In . SVG Version: 6.00 Build 0)  -->
<svg version="1.1" id="Layer_1" xmlns="http://www.w3.org/2000/svg" xmlns:xlink="http://www.w3.org/1999/xlink" x="0px" y="0px"
	 viewBox="0 0 50 50" style="enable-background:new 0 0 50 50;" xml:space="preserve">
<g id="a176676c-1c90-4edb-a8f3-4e8a16c2822f">
	<g id="f62e7c26-2c05-484f-8f0b-eebb05c818a3">
		<path style="fill:#1D9CD3;" d="M36.48,45.5h-0.657c-0.276,0-0.5-0.224-0.5-0.5s0.224-0.5,0.5-0.5h0.657
			c0.579,0,1.156-0.062,1.721-0.185c0.27-0.059,0.536,0.112,0.596,0.382s-0.112,0.536-0.382,0.596
			C37.779,45.43,37.131,45.5,36.48,45.5z M33.323,45.5h-2.5c-0.276,0-0.5-0.224-0.5-0.5s0.224-0.5,0.5-0.5h2.5
			c0.276,0,0.5,0.224,0.5,0.5S33.599,45.5,33.323,45.5z M28.323,45.5h-2.5c-0.276,0-0.5-0.224-0.5-0.5s0.224-0.5,0.5-0.5h2.5
			c0.276,0,0.5,0.224,0.5,0.5S28.599,45.5,28.323,45.5z M23.323,45.5h-2.5c-0.276,0-0.5-0.224-0.5-0.5s0.224-0.5,0.5-0.5h2.5
			c0.276,0,0.5,0.224,0.5,0.5S23.599,45.5,23.323,45.5z M18.323,45.5h-2.5c-0.276,0-0.5-0.224-0.5-0.5s0.224-0.5,0.5-0.5h2.5
			c0.276,0,0.5,0.224,0.5,0.5S18.599,45.5,18.323,45.5z M13.323,45.5h-0.011c-0.884-0.019-1.76-0.169-2.6-0.443
			c-0.263-0.086-0.406-0.368-0.321-0.631c0.086-0.263,0.368-0.406,0.631-0.32c0.747,0.244,1.526,0.377,2.311,0.394
			c0.276,0.003,0.498,0.229,0.495,0.506S13.598,45.503,13.323,45.5L13.323,45.5z M40.636,44.421c-0.276,0-0.5-0.225-0.499-0.501
			c0-0.181,0.098-0.347,0.255-0.435c0.686-0.384,1.312-0.867,1.858-1.432c0.193-0.198,0.511-0.202,0.709-0.009
			s0.202,0.511,0.009,0.709c-0.614,0.636-1.317,1.178-2.088,1.61c-0.075,0.039-0.159,0.058-0.244,0.056L40.636,44.421z
			 M8.636,43.968c-0.103,0-0.203-0.031-0.286-0.091c-0.724-0.506-1.37-1.115-1.917-1.809c-0.171-0.217-0.134-0.531,0.083-0.702
			s0.531-0.134,0.702,0.083c0.485,0.617,1.058,1.159,1.7,1.61c0.226,0.158,0.282,0.47,0.124,0.696
			c-0.094,0.134-0.247,0.214-0.411,0.214H8.636z M44.056,40.877c-0.079,0-0.158-0.019-0.228-0.056
			c-0.246-0.126-0.343-0.427-0.217-0.673c0,0,0,0,0,0c0.36-0.698,0.614-1.446,0.755-2.219c0.049-0.272,0.31-0.452,0.582-0.403
			s0.452,0.31,0.403,0.582l0,0c-0.159,0.871-0.445,1.713-0.849,2.5c-0.086,0.164-0.256,0.266-0.441,0.267L44.056,40.877z
			 M5.588,40.1c-0.205,0-0.39-0.126-0.465-0.317C4.8,38.96,4.6,38.094,4.529,37.213c-0.022-0.276,0.184-0.518,0.46-0.54
			s0.518,0.184,0.54,0.46c0.063,0.783,0.24,1.553,0.527,2.284c0.101,0.257-0.025,0.547-0.282,0.648
			C5.715,40.088,5.652,40.1,5.588,40.1z M45,36.026c-0.276,0-0.5-0.224-0.5-0.5v-2.5c0-0.276,0.224-0.5,0.5-0.5s0.5,0.224,0.5,0.5
			v2.5C45.5,35.802,45.276,36.026,45,36.026z M5,35.171c-0.276,0-0.5-0.224-0.5-0.5v-2.5c0-0.276,0.224-0.5,0.5-0.5
			s0.5,0.224,0.5,0.5v2.5C5.5,34.947,5.276,35.171,5,35.171z M45,31.026c-0.276,0-0.5-0.224-0.5-0.5v-2.5c0-0.276,0.224-0.5,0.5-0.5
			s0.5,0.224,0.5,0.5v2.5C45.5,30.802,45.276,31.026,45,31.026z M5,30.171c-0.276,0-0.5-0.224-0.5-0.5v-2.5
			c0-0.276,0.224-0.5,0.5-0.5s0.5,0.224,0.5,0.5v2.5C5.5,29.947,5.276,30.171,5,30.171z M45,26.026c-0.276,0-0.5-0.224-0.5-0.5v-2.5
			c0-0.276,0.224-0.5,0.5-0.5s0.5,0.224,0.5,0.5v2.5C45.5,25.802,45.276,26.026,45,26.026z M5,25.171c-0.276,0-0.5-0.224-0.5-0.5
			v-2.5c0-0.276,0.224-0.5,0.5-0.5s0.5,0.224,0.5,0.5v2.5C5.5,24.947,5.276,25.171,5,25.171z M45,21.026c-0.276,0-0.5-0.224-0.5-0.5
			v-2.5c0-0.276,0.224-0.5,0.5-0.5s0.5,0.224,0.5,0.5v2.5C45.5,20.802,45.276,21.026,45,21.026z M5,20.171
			c-0.276,0-0.5-0.224-0.5-0.5v-2.5c0-0.276,0.224-0.5,0.5-0.5s0.5,0.224,0.5,0.5v2.5C5.5,19.947,5.276,20.171,5,20.171z M45,16.026
			c-0.276,0-0.5-0.224-0.5-0.5V13.52c0-0.156,0-0.311-0.013-0.465c-0.016-0.276,0.195-0.513,0.472-0.528
			c0.276-0.016,0.513,0.195,0.528,0.471c0.01,0.173,0.015,0.347,0.015,0.522v2.006c0,0.276-0.224,0.5-0.5,0.5
			C45.001,16.026,45.001,16.026,45,16.026z M5,15.171c-0.276,0-0.5-0.224-0.5-0.5V13.52c0-0.476,0.038-0.95,0.112-1.42
			c0.054-0.271,0.317-0.447,0.588-0.393c0.256,0.051,0.43,0.29,0.399,0.549c-0.066,0.418-0.1,0.841-0.1,1.265v1.151
			C5.498,14.947,5.275,15.17,5,15.171z M44.482,11.088c-0.21,0-0.397-0.131-0.469-0.328c-0.271-0.738-0.649-1.432-1.121-2.06
			c-0.166-0.221-0.121-0.534,0.099-0.7s0.534-0.121,0.7,0.099c0,0,0,0,0.001,0.001c0.532,0.706,0.956,1.486,1.261,2.316
			c0.095,0.259-0.038,0.546-0.297,0.641c-0.055,0.02-0.113,0.03-0.172,0.031H44.482z M5.852,10.3c-0.276,0-0.5-0.224-0.5-0.5
			c0-0.076,0.017-0.15,0.05-0.218c0.387-0.794,0.887-1.527,1.486-2.176C7.075,7.203,7.392,7.19,7.595,7.377s0.216,0.504,0.029,0.707
			C7.09,8.661,6.644,9.314,6.3,10.021C6.216,10.192,6.042,10.3,5.852,10.3z M41.519,7.149c-0.108,0.001-0.214-0.035-0.3-0.1
			c-0.633-0.467-1.331-0.837-2.072-1.1c-0.26-0.092-0.397-0.378-0.305-0.638c0.092-0.26,0.378-0.397,0.638-0.305
			c0.833,0.294,1.618,0.71,2.33,1.234c0.221,0.166,0.266,0.479,0.1,0.7c-0.094,0.126-0.243,0.2-0.4,0.2L41.519,7.149z M9.194,6.679
			c-0.276,0-0.5-0.224-0.5-0.5c0-0.176,0.093-0.34,0.245-0.43c0.761-0.45,1.584-0.785,2.443-0.994
			c0.268-0.065,0.539,0.1,0.604,0.368s-0.1,0.539-0.368,0.604c-0.763,0.185-1.494,0.483-2.17,0.883
			C9.371,6.655,9.283,6.679,9.194,6.679z M36.875,5.509h-0.023C36.728,5.5,36.6,5.5,36.478,5.5h-2.5c-0.276,0-0.5-0.224-0.5-0.5
			s0.224-0.5,0.5-0.5h2.5c0.141,0,0.279,0,0.416,0.01c0.276,0.006,0.495,0.234,0.489,0.51c-0.006,0.276-0.234,0.495-0.51,0.49
			L36.875,5.509z M31.48,5.5h-2.5c-0.276,0-0.5-0.224-0.5-0.5s0.224-0.5,0.5-0.5h2.5c0.276,0,0.5,0.224,0.5,0.5
			S31.756,5.5,31.48,5.5z M26.48,5.5h-2.5c-0.276,0-0.5-0.224-0.5-0.5s0.224-0.5,0.5-0.5h2.5c0.276,0,0.5,0.224,0.5,0.5
			S26.756,5.5,26.48,5.5z M21.48,5.5h-2.5c-0.276,0-0.5-0.224-0.5-0.5s0.224-0.5,0.5-0.5h2.5c0.276,0,0.5,0.224,0.5,0.5
			S21.756,5.5,21.48,5.5z M16.48,5.5h-2.5c-0.276,0-0.5-0.224-0.5-0.5s0.224-0.5,0.5-0.5h2.5c0.276,0,0.5,0.224,0.5,0.5
			S16.756,5.5,16.48,5.5z"/>
	</g>
	<path style="fill:#1D9CD3;" d="M19.406,27.026c-0.047-0.097-0.081-0.201-0.1-0.307c-0.026-0.127-0.045-0.255-0.056-0.384
		c-0.114,0.113-0.236,0.217-0.366,0.311c-0.14,0.1-0.289,0.186-0.445,0.257c-0.167,0.076-0.34,0.135-0.519,0.176
		c-0.192,0.044-0.389,0.066-0.586,0.065c-0.31,0.006-0.619-0.043-0.913-0.144c-0.253-0.087-0.488-0.221-0.692-0.395
		c-0.187-0.164-0.337-0.366-0.439-0.592c-0.104-0.233-0.157-0.486-0.155-0.741c-0.007-0.317,0.064-0.632,0.208-0.915
		c0.14-0.263,0.342-0.487,0.589-0.653c0.279-0.185,0.59-0.317,0.917-0.389c0.394-0.09,0.796-0.133,1.2-0.129h1.181v-0.5
		c0.003-0.178-0.033-0.354-0.105-0.516c-0.07-0.151-0.172-0.284-0.3-0.39c-0.14-0.113-0.3-0.197-0.472-0.249
		c-0.202-0.061-0.413-0.091-0.624-0.088c-0.195-0.002-0.39,0.025-0.577,0.082c-0.155,0.047-0.3,0.121-0.43,0.217
		c-0.113,0.085-0.207,0.195-0.273,0.32c-0.064,0.118-0.098,0.249-0.1,0.383h-1.09c0.006-0.237,0.067-0.47,0.178-0.679
		c0.124-0.232,0.294-0.436,0.5-0.6c0.237-0.188,0.504-0.334,0.791-0.431c0.341-0.114,0.699-0.169,1.058-0.164
		c0.338-0.003,0.674,0.042,1,0.132c0.29,0.079,0.562,0.215,0.8,0.4c0.225,0.178,0.406,0.406,0.53,0.665
		c0.134,0.292,0.2,0.61,0.193,0.931v2.948c0.001,0.225,0.021,0.449,0.059,0.67c0.032,0.212,0.087,0.419,0.164,0.619v0.093
		L19.406,27.026z M17.49,26.2c0.2,0.002,0.4-0.026,0.592-0.082c0.175-0.051,0.343-0.124,0.5-0.217
		c0.143-0.084,0.275-0.187,0.39-0.307c0.103-0.107,0.19-0.229,0.257-0.361V23.95h-1.006c-0.508-0.025-1.014,0.071-1.477,0.281
		c-0.337,0.163-0.544,0.511-0.527,0.885c-0.002,0.148,0.025,0.296,0.079,0.434c0.052,0.131,0.133,0.248,0.237,0.343
		c0.117,0.101,0.253,0.178,0.4,0.225C17.114,26.176,17.302,26.203,17.49,26.2z"/>
	<path style="fill:#1D9CD3;" d="M27.756,23.927c0.004,0.428-0.052,0.855-0.164,1.268c-0.097,0.367-0.259,0.714-0.48,1.023
		c-0.205,0.283-0.473,0.516-0.782,0.679c-0.329,0.169-0.694,0.254-1.064,0.247c-0.35,0.007-0.697-0.057-1.022-0.188
		c-0.29-0.121-0.549-0.305-0.759-0.539v3.047H22.4v-8.777h0.99l0.053,0.691c0.205-0.256,0.466-0.462,0.764-0.6
		c0.328-0.144,0.683-0.215,1.041-0.208c0.373-0.008,0.743,0.075,1.078,0.241c0.31,0.158,0.579,0.387,0.785,0.668
		c0.222,0.308,0.385,0.655,0.48,1.022c0.113,0.424,0.168,0.861,0.164,1.3L27.756,23.927z M26.672,23.8
		c0.002-0.297-0.032-0.593-0.1-0.882c-0.061-0.263-0.169-0.513-0.317-0.738c-0.138-0.209-0.324-0.383-0.542-0.507
		c-0.241-0.131-0.511-0.196-0.785-0.188c-0.31-0.011-0.616,0.074-0.876,0.243c-0.235,0.161-0.428,0.375-0.565,0.624v3.053
		c0.136,0.246,0.329,0.455,0.562,0.612c0.266,0.168,0.577,0.251,0.891,0.238c0.272,0.007,0.541-0.059,0.779-0.191
		c0.218-0.125,0.403-0.301,0.539-0.512c0.146-0.228,0.253-0.48,0.314-0.744c0.068-0.29,0.102-0.587,0.1-0.885V23.8z"/>
	<path style="fill:#1D9CD3;" d="M34.947,23.927c0.003,0.428-0.052,0.855-0.164,1.268c-0.098,0.367-0.261,0.714-0.481,1.023
		c-0.205,0.284-0.472,0.516-0.782,0.679c-0.328,0.169-0.694,0.254-1.063,0.247c-0.35,0.007-0.698-0.057-1.023-0.188
		c-0.29-0.121-0.549-0.305-0.759-0.539v3.047h-1.084v-8.777h0.991l0.052,0.691c0.205-0.257,0.467-0.462,0.765-0.6
		c0.327-0.144,0.682-0.215,1.04-0.208c0.373-0.008,0.743,0.075,1.078,0.241c0.311,0.158,0.579,0.387,0.785,0.668
		c0.222,0.308,0.385,0.655,0.481,1.022c0.113,0.424,0.168,0.861,0.164,1.3V23.927z M33.863,23.8c0.003-0.297-0.031-0.593-0.1-0.882
		c-0.061-0.263-0.168-0.513-0.316-0.738c-0.138-0.209-0.324-0.383-0.542-0.507c-0.241-0.13-0.511-0.195-0.785-0.188
		c-0.31-0.011-0.616,0.074-0.876,0.243c-0.235,0.161-0.429,0.375-0.566,0.624v3.053c0.137,0.246,0.33,0.455,0.563,0.612
		c0.266,0.168,0.576,0.251,0.89,0.238c0.272,0.007,0.542-0.059,0.78-0.191c0.217-0.126,0.402-0.301,0.539-0.512
		c0.146-0.228,0.252-0.48,0.313-0.744c0.069-0.29,0.102-0.587,0.1-0.885V23.8z"/>
</g>
</svg>
