<svg xmlns="http://www.w3.org/2000/svg" viewBox="0 0 890 350"><defs><style>.cls-1,.cls-2{fill:#fff;}.cls-12,.cls-2,.cls-8,.cls-9{stroke:#000;}.cls-11,.cls-12,.cls-14,.cls-15,.cls-16,.cls-2,.cls-3,.cls-4,.cls-5,.cls-9{stroke-miterlimit:10;}.cls-11,.cls-12,.cls-14,.cls-15,.cls-16,.cls-3,.cls-4,.cls-5,.cls-8,.cls-9{fill:none;}.cls-11,.cls-3,.cls-5{stroke:#343434;}.cls-14,.cls-15,.cls-3,.cls-4,.cls-8{stroke-linecap:round;}.cls-11,.cls-3,.cls-4{stroke-dasharray:3 3;}.cls-4{stroke:#1db14b;}.cls-6{fill:#010101;}.cls-7{fill:#231f20;}.cls-8{stroke-linejoin:round;}.cls-9{stroke-width:0.25px;}.cls-10{fill:#211e1f;}.cls-13{fill:#f1f1f1;}.cls-14,.cls-15,.cls-16{stroke:#231f20;}.cls-15{stroke-dasharray:3.09 3.09;}.cls-17{font-size:9px;font-family:ProximaNova-Bold, Proxima Nova;font-weight:700;letter-spacing:-0.01em;}</style></defs><g id="Layer_2" data-name="Layer 2"><g id="Layer_1-2" data-name="Layer 1"><rect class="cls-1" width="890" height="350"/><rect class="cls-2" x="23.76" y="33.02" width="349.95" height="292.57"/><rect class="cls-2" x="385.24" y="33.02" width="481" height="292.57"/><line class="cls-3" x1="771.23" y1="92.56" x2="771.23" y2="143.97"/><line class="cls-4" x1="805.51" y1="92.56" x2="805.51" y2="143.97"/><line class="cls-5" x1="708.05" y1="254.52" x2="742.36" y2="254.52"/><line class="cls-5" x1="466.03" y1="254.52" x2="621.24" y2="254.52"/><line class="cls-3" x1="598.38" y1="93.26" x2="598.38" y2="143.76"/><line class="cls-3" x1="651.78" y1="93.26" x2="651.78" y2="143.76"/><line class="cls-3" x1="543.67" y1="93.12" x2="543.67" y2="143.62"/><line class="cls-4" x1="488.96" y1="93.07" x2="488.96" y2="143.43"/><line class="cls-3" x1="451.37" y1="93.07" x2="451.37" y2="143.43"/><line class="cls-3" x1="445.96" y1="172.28" x2="445.96" y2="240.26"/><line class="cls-4" x1="707.8" y1="93.24" x2="707.8" y2="143.26"/><line class="cls-3" x1="771.23" y1="171.21" x2="771.23" y2="181.02"/><line class="cls-4" x1="805.51" y1="171.21" x2="805.51" y2="181.02"/><line class="cls-3" x1="651.78" y1="171.91" x2="651.78" y2="180.81"/><line class="cls-4" x1="674.83" y1="171.89" x2="674.83" y2="180.32"/><line class="cls-3" x1="653.09" y1="202.97" x2="653.09" y2="242.65"/><line class="cls-4" x1="674.62" y1="203.33" x2="674.62" y2="243.5"/><line class="cls-3" x1="323.47" y1="174.3" x2="323.47" y2="241.26"/><line class="cls-3" x1="79.45" y1="174.29" x2="79.45" y2="241.26"/><line class="cls-3" x1="177.06" y1="174.86" x2="177.06" y2="240.93"/><line class="cls-3" x1="225.86" y1="174.86" x2="225.86" y2="240.93"/><line class="cls-3" x1="274.67" y1="174.86" x2="274.67" y2="240.93"/><line class="cls-3" x1="128.25" y1="175.18" x2="128.25" y2="240.93"/><rect class="cls-6" x="140.24" y="24.41" width="117" height="18"/><path class="cls-1" d="M158,34.32v.79a2.13,2.13,0,0,1-4.24,0v-.64h1.55v.75c0,.3.2.48.57.48s.57-.18.57-.48v-1c0-.28-.13-.45-.34-.45H154V29.82h3.78v1.4h-2.23V32.4h.63A1.82,1.82,0,0,1,158,34.32Z"/><path class="cls-1" d="M162.06,32.37v-.7c0-.36-.33-.6-.79-.6s-.8.24-.8.6v3.39c0,.36.34.6.79.6s.8-.24.8-.6v-.6h-.81v-1.4h2.36v2a2.37,2.37,0,0,1-4.69,0V31.69a2.37,2.37,0,0,1,4.69,0v.68Z"/><path class="cls-1" d="M166.51,35V31.69a2.39,2.39,0,0,1,4.72,0V35a2.39,2.39,0,0,1-4.72,0Zm3.17,0V31.67c0-.36-.24-.6-.8-.6s-.82.24-.82.6v3.39c0,.36.24.6.81.6S169.68,35.42,169.68,35.06Z"/><path class="cls-1" d="M176.86,29.82l-1.5,7.09h-2l-1.49-7.09h1.55l1,4.86,1-4.86Z"/><path class="cls-1" d="M179.2,31.22v1.54h1.72v1.4H179.2v1.35h2.12v1.4h-3.67V29.82h3.67v1.4Z"/><path class="cls-1" d="M184.44,34.35h-.74v2.56h-1.55V29.82h2.36a2,2,0,0,1,2.12,1.93v.66a1.86,1.86,0,0,1-.71,1.5l.92,3h-1.62ZM183.7,33h.91a.44.44,0,0,0,.47-.47v-.79a.43.43,0,0,0-.46-.47h-.92Z"/><path class="cls-1" d="M191.37,35.51v1.4h-3.69V29.82h1.55v5.69Z"/><path class="cls-1" d="M195.26,35.66h-1.45l-.29,1.25H192l1.53-7.09h2l1.54,7.09h-1.54Zm-.72-3.95-.45,2.55h.9Z"/><path class="cls-1" d="M200.39,34.56v2.35h-1.55V34.56L197,29.82h1.65l1,2.82,1-2.82h1.63Z"/><path class="cls-1" d="M204.89,34.81v-.28h1.55V35a.74.74,0,0,0,.83.73A.68.68,0,0,0,208,35c0-1.27-3-1-3-3.26a2,2,0,0,1,2.22-2.08,1.94,1.94,0,0,1,2.21,2v.44H207.9v-.53c0-.31-.3-.49-.67-.49a.59.59,0,0,0-.65.6c0,1,3,.78,3,3.2a2.09,2.09,0,0,1-2.3,2.19A2.15,2.15,0,0,1,204.89,34.81Z"/><path class="cls-1" d="M210.39,35V31.69a2.39,2.39,0,0,1,4.72,0V35a2.39,2.39,0,0,1-4.72,0Zm3.17,0V31.67c0-.36-.24-.6-.8-.6s-.82.24-.82.6v3.39c0,.36.24.6.81.6S213.56,35.42,213.56,35.06Z"/><path class="cls-1" d="M219.73,35.51v1.4H216V29.82h1.55v5.69Z"/><path class="cls-1" d="M220.46,35V29.82H222v5.24c0,.36.23.6.72.6s.73-.24.73-.6V29.82H225V35a2.29,2.29,0,0,1-4.55,0Z"/><path class="cls-1" d="M230.22,31.22h-1.47v5.69H227.2V31.22h-1.48v-1.4h4.5Z"/><path class="cls-1" d="M231,29.82h1.55v7.09H231Z"/><path class="cls-1" d="M233.45,35V31.69a2.39,2.39,0,0,1,4.72,0V35a2.39,2.39,0,0,1-4.72,0Zm3.17,0V31.67c0-.36-.24-.6-.8-.6s-.82.24-.82.6v3.39c0,.36.24.6.81.6S236.62,35.42,236.62,35.06Z"/><path class="cls-1" d="M243.66,29.82v7.09H242.3l-1.85-4v4H239.1V29.82h1.35l1.85,4v-4Z"/><rect class="cls-6" x="551.24" y="24.41" width="149" height="18"/><path class="cls-1" d="M569.8,32.33v4.58h-1.55V35.42h-2.66V34l1.19-4.2h1.63L567.22,34h1V32.33Z"/><path class="cls-1" d="M573.85,32.37v-.7c0-.36-.33-.6-.79-.6s-.8.24-.8.6v3.39c0,.36.34.6.79.6s.8-.24.8-.6v-.6H573v-1.4h2.36v2a2.37,2.37,0,0,1-4.69,0V31.69a2.37,2.37,0,0,1,4.69,0v.68Z"/><path class="cls-1" d="M578.88,29.47l-1.41,7.94H576l1.41-7.94Z"/><path class="cls-1" d="M583.8,34.32v.79a2.13,2.13,0,0,1-4.24,0v-.64h1.55v.75c0,.3.2.48.57.48s.57-.18.57-.48v-1c0-.28-.13-.45-.34-.45h-2.16V29.82h3.78v1.4H581.3V32.4h.63A1.82,1.82,0,0,1,583.8,34.32Z"/><path class="cls-1" d="M587.83,32.37v-.7c0-.36-.33-.6-.79-.6s-.8.24-.8.6v3.39c0,.36.34.6.79.6s.8-.24.8-.6v-.6H587v-1.4h2.36v2a2.37,2.37,0,0,1-4.69,0V31.69a2.37,2.37,0,0,1,4.69,0v.68Z"/><path class="cls-1" d="M592.28,35V31.69a2.37,2.37,0,0,1,4.69,0v.88H595.4v-.9c0-.36-.26-.6-.77-.6s-.8.24-.8.6v3.39c0,.36.27.6.79.6s.78-.24.78-.6v-.91H597V35a2.37,2.37,0,0,1-4.69,0Z"/><path class="cls-1" d="M597.83,35c.12-1.88-.8-5.53,2.36-5.37,3.14-.16,2.24,3.49,2.35,5.37C602.72,37.7,597.65,37.68,597.83,35Zm3.17,0V31.67c.12-.81-1.75-.79-1.62,0v3.39C599.25,35.85,601.12,35.86,601,35.06Z"/><path class="cls-1" d="M608,29.82v7.09h-1.36l-1.85-4v4h-1.35V29.82h1.35l1.85,4v-4Z"/><path class="cls-1" d="M613.84,29.82l-1.5,7.09h-2l-1.49-7.09h1.55l1,4.86,1-4.86Z"/><path class="cls-1" d="M616.18,31.22v1.54h1.72v1.4h-1.72v1.35h2.12v1.4h-3.67V29.82h3.67v1.4Z"/><path class="cls-1" d="M621.42,34.35h-.74v2.56h-1.55V29.82h2.36a2,2,0,0,1,2.12,1.93v.66a1.86,1.86,0,0,1-.71,1.5l.92,3H622.2Zm-.74-1.4h.91a.44.44,0,0,0,.47-.47v-.79a.43.43,0,0,0-.46-.47h-.92Z"/><path class="cls-1" d="M627.66,32.37v-.7c0-.36-.33-.6-.79-.6s-.8.24-.8.6v3.39c0,.36.34.6.79.6s.8-.24.8-.6v-.6h-.81v-1.4h2.36v2a2.37,2.37,0,0,1-4.69,0V31.69a2.37,2.37,0,0,1,4.69,0v.68Z"/><path class="cls-1" d="M631.69,31.22v1.54h1.72v1.4h-1.72v1.35h2.11v1.4h-3.66V29.82h3.66v1.4Z"/><path class="cls-1" d="M639.19,29.82v7.09h-1.36l-1.84-4v4h-1.35V29.82H636l1.84,4v-4Z"/><path class="cls-1" d="M644.44,31.22H643v5.69h-1.55V31.22h-1.48v-1.4h4.5Z"/><path class="cls-1" d="M647,34.81v-.28h1.55V35a.74.74,0,0,0,.83.73.68.68,0,0,0,.72-.69c0-1.27-3-1-3-3.26a2,2,0,0,1,2.22-2.08,1.94,1.94,0,0,1,2.21,2v.44h-1.55v-.53c0-.31-.3-.49-.67-.49a.59.59,0,0,0-.65.6c0,1,3,.78,3,3.2a2.1,2.1,0,0,1-2.31,2.19A2.15,2.15,0,0,1,647,34.81Z"/><path class="cls-1" d="M652.55,35V31.69c-.19-2.65,4.89-2.66,4.71,0V35C657.44,37.7,652.37,37.69,652.55,35Zm3.16,0c-.26-.66.72-4.24-.8-4-1.54-.27-.55,3.33-.81,4S655.84,35.85,655.71,35.06Z"/><path class="cls-1" d="M661.88,35.51v1.4H658.2V29.82h1.55v5.69Z"/><path class="cls-1" d="M662.61,35V29.82h1.55v5.24c0,.36.23.6.72.6s.73-.24.73-.6V29.82h1.55V35a2.29,2.29,0,0,1-4.55,0Z"/><path class="cls-1" d="M672.38,31.22h-1.47v5.69h-1.55V31.22h-1.48v-1.4h4.5Z"/><path class="cls-1" d="M673.13,29.82h1.55v7.09h-1.55Z"/><path class="cls-1" d="M675.61,35V31.69c-.19-2.65,4.89-2.66,4.71,0V35C680.5,37.7,675.43,37.69,675.61,35Zm3.17,0c-.27-.66.71-4.24-.81-4-1.54-.27-.55,3.33-.81,4S678.9,35.85,678.78,35.06Z"/><path class="cls-1" d="M685.82,29.82v7.09h-1.36l-1.85-4v4h-1.35V29.82h1.35l1.85,4v-4Z"/><line class="cls-4" x1="78.24" y1="143.88" x2="78.24" y2="96.67"/><line class="cls-4" x1="319.24" y1="143.88" x2="319.24" y2="96.68"/><line class="cls-4" x1="140.24" y1="144.33" x2="140.24" y2="97.01"/><line class="cls-4" x1="257.74" y1="144.33" x2="257.74" y2="97.01"/><line class="cls-4" x1="198.74" y1="144.39" x2="198.74" y2="96.71"/><path d="M39.12,119.25a1.7,1.7,0,0,0,1.25.5c.55,0,.87-.31.87-.7s-.31-.71-.84-.71a1.36,1.36,0,0,0-1,.38l-.7-.19v-2.67h3.21v.86H39.7v1.17a1.58,1.58,0,0,1,1-.39A1.45,1.45,0,0,1,42.24,119c0,1-.74,1.61-1.87,1.61a2.35,2.35,0,0,1-1.8-.7Z"/><path d="M45.39,115.79a2.21,2.21,0,0,1,1.94,1l-.83.45a1.34,1.34,0,0,0-1.11-.59,1.54,1.54,0,0,0,0,3.07,1.58,1.58,0,0,0,1-.36v-.57H45.15V118h2.23v1.79a2.59,2.59,0,0,1-2,.88,2.42,2.42,0,1,1,0-4.84Z"/><path d="M30.29,124.4v3.14h-1v-4.68h1l2.17,3v-3h1v4.68h-1Z"/><path d="M36.15,124.07a1.7,1.7,0,0,1,1.69,1.86v.2H35.33a.9.9,0,0,0,1,.78,1.35,1.35,0,0,0,.9-.33l.4.57a2.11,2.11,0,0,1-1.4.47,1.78,1.78,0,0,1-.05-3.55Zm-.84,1.46H37a.78.78,0,0,0-.83-.75A.81.81,0,0,0,35.31,125.53Z"/><path d="M38.86,126.7v-1.77H38.3v-.78h.56v-.92h.9v.92h.69v.78h-.69v1.53c0,.21.11.37.31.37a.49.49,0,0,0,.31-.1l.19.67a1.13,1.13,0,0,1-.75.22A.85.85,0,0,1,38.86,126.7Z"/><path d="M43.64,125.23l-.72,2.31H42l-1-3.39h.92l.64,2.28.74-2.28H44l.74,2.28.63-2.28h.93l-1,3.39h-.95Z"/><path d="M46.7,125.84c-.14-2.3,3.72-2.29,3.58,0C50.42,128.15,46.56,128.16,46.7,125.84Zm2.65,0a.87.87,0,1,0-1.73,0A.87.87,0,1,0,49.35,125.84Z"/><path d="M51.13,124.15H52v.47a1.39,1.39,0,0,1,1.07-.54v.86l-.24,0a1.11,1.11,0,0,0-.83.38v2.24h-.89Z"/><path d="M55.09,126.23l-.4.44v.87H53.8v-4.68h.89v2.8L56,124.15h1.09l-1.34,1.54,1.38,1.85H56Z"/><path d="M40.66,207.57H38.43v-.79l1.85-2.92h1.37v2.83h.61v.88h-.61v1h-1Zm-1.26-.88h1.26v-1.94Z"/><path d="M45.38,203.79a2.18,2.18,0,0,1,1.93,1l-.83.45a1.32,1.32,0,0,0-1.1-.59,1.54,1.54,0,0,0,0,3.07,1.57,1.57,0,0,0,1-.36v-.57H45.14V206h2.22v1.78a2.55,2.55,0,0,1-2,.88,2.42,2.42,0,1,1,0-4.83Z"/><path d="M30.29,212.4v3.13h-1v-4.67h1l2.17,3v-3h1v4.67h-1Z"/><path d="M36.15,212.07a1.69,1.69,0,0,1,1.69,1.86v.2H35.33a.91.91,0,0,0,1,.78,1.31,1.31,0,0,0,.9-.34l.4.58a2.11,2.11,0,0,1-1.4.47,1.78,1.78,0,0,1-.05-3.55Zm-.84,1.45H37a.79.79,0,0,0-.83-.75A.83.83,0,0,0,35.31,213.52Z"/><path d="M38.86,214.69v-1.76H38.3v-.78h.56v-.92h.9v.92h.69v.78h-.69v1.53c0,.21.11.37.31.37a.49.49,0,0,0,.31-.1l.19.67a1.11,1.11,0,0,1-.75.22A.85.85,0,0,1,38.86,214.69Z"/><path d="M43.64,213.23l-.72,2.3H42l-1-3.38h.93l.63,2.28.74-2.28H44l.74,2.28.63-2.28h.93l-1,3.38h-.95Z"/><path d="M46.7,213.84c-.14-2.3,3.72-2.3,3.58,0C50.42,216.15,46.56,216.15,46.7,213.84Zm2.65,0a.87.87,0,1,0-1.73,0A.87.87,0,1,0,49.35,213.84Z"/><path d="M51.13,212.15H52v.46a1.44,1.44,0,0,1,1.08-.54v.87l-.25,0a1.11,1.11,0,0,0-.83.38v2.23h-.89Z"/><path d="M55.09,214.23l-.4.44v.86H53.8v-4.67h.89v2.8L56,212.15h1.09l-1.34,1.54,1.38,1.84H56Z"/><path d="M216.57,208.31h-.78l-.36,1.68h-1l1-4.67h2a1.35,1.35,0,0,1,1.44,1.31,1.62,1.62,0,0,1-1.33,1.63l.64,1.73h-1.1Zm1.29-1.58a.57.57,0,0,0-.6-.56h-1l-.28,1.29h1A.74.74,0,0,0,217.86,206.73Z"/><path d="M220.76,208.85l-1,1.14h-1l1.57-1.74-.75-1.64h1l.47,1,.93-1h1l-1.51,1.64.84,1.74h-1Z"/><path d="M156.82,205.29a2.07,2.07,0,0,1,1.93,1.13l-.92.39a1.24,1.24,0,0,0-1.15-.64,1.72,1.72,0,0,0-1.63,1.79,1.24,1.24,0,0,0,1.32,1.28,1.45,1.45,0,0,0,.94-.36l.12-.57h-1.25l.2-.85h2.23l-.4,1.81a2.48,2.48,0,0,1-1.9.85A2.12,2.12,0,0,1,154,208,2.69,2.69,0,0,1,156.82,205.29Z"/><path d="M159.2,210.61a.45.45,0,0,0,.42-.24l.21-.31-.6-3.41h.92l.36,2.36,1.41-2.36h1l-2.46,3.94a1.41,1.41,0,0,1-1.31.82,2,2,0,0,1-.57-.08l.3-.78A.8.8,0,0,0,159.2,210.61Z"/><path d="M164.84,205.22h.67l-2.76,5h-.66Z"/><path d="M168,205.29a2.07,2.07,0,0,1,1.93,1.13l-.92.39a1.22,1.22,0,0,0-1.14-.64,1.72,1.72,0,0,0-1.64,1.79,1.24,1.24,0,0,0,1.32,1.28,1.45,1.45,0,0,0,1-.36l.11-.57h-1.24l.19-.85h2.24l-.41,1.81a2.46,2.46,0,0,1-1.9.85,2.12,2.12,0,0,1-2.29-2.09A2.69,2.69,0,0,1,168,205.29Z"/><path d="M170.14,209.37l1.92-1.94h-1.49l.17-.78h2.73l-.14.65-2,2h1.54l-.17.78H170Z"/><path class="cls-7" d="M679.29,229a1.41,1.41,0,0,0,1.26.64.8.8,0,0,0,.89-.77c0-.4-.36-.64-.88-.64a1.35,1.35,0,0,0-.86.29l-.64-.26.55-2.5h3.21l-.19.85H680.4l-.25,1.12a1.49,1.49,0,0,1,1-.29,1.28,1.28,0,0,1,1.38,1.31,1.81,1.81,0,0,1-1.94,1.76,2.2,2.2,0,0,1-1.94-.89Z"/><path class="cls-7" d="M686,225.63a2.06,2.06,0,0,1,1.92,1.13l-.92.4a1.2,1.2,0,0,0-1.14-.65,1.72,1.72,0,0,0-1.64,1.79,1.24,1.24,0,0,0,1.32,1.28,1.4,1.4,0,0,0,1-.36l.12-.56h-1.25l.19-.86h2.24l-.41,1.81a2.41,2.41,0,0,1-1.89.85,2.11,2.11,0,0,1-2.3-2.09A2.69,2.69,0,0,1,686,225.63Z"/><path class="cls-7" d="M693.57,228.42h-2.21l-.43,2h-1l1-4.67h1l-.4,1.83h2.2l.41-1.83h1l-1,4.67h-1Z"/><path class="cls-7" d="M697.05,226.58h-1.37l.2-.87h3.73l-.19.87h-1.37l-.83,3.8h-1Z"/><path class="cls-7" d="M701.33,226.58H700l.19-.87h3.73l-.19.87h-1.37l-.83,3.8h-1Z"/><path class="cls-7" d="M704.6,225.71h2A1.29,1.29,0,0,1,708,227a1.74,1.74,0,0,1-1.93,1.72h-1.18l-.36,1.66h-1Zm2.4,1.39a.54.54,0,0,0-.59-.54h-1l-.28,1.29h1A.76.76,0,0,0,707,227.1Z"/><path class="cls-7" d="M710.19,225.57h.67l-2.76,5h-.66Z"/><path class="cls-7" d="M710.52,229.45c2-1.12,3-1.73,3-2.39,0-.34-.34-.55-.84-.55a1.77,1.77,0,0,0-1.16.42l-.42-.71a2.59,2.59,0,0,1,1.65-.58c1,0,1.82.47,1.82,1.36s-1,1.72-2.49,2.5H714l-.19.88h-3.52Z"/><path class="cls-7" d="M476.93,120.74a1.42,1.42,0,0,0,1.26.65.81.81,0,0,0,.89-.77c0-.4-.36-.65-.88-.65a1.31,1.31,0,0,0-.86.3l-.64-.26.55-2.51h3.21l-.19.85H478l-.25,1.12a1.56,1.56,0,0,1,.95-.29,1.28,1.28,0,0,1,1.38,1.32,1.8,1.8,0,0,1-1.94,1.75,2.18,2.18,0,0,1-1.94-.89Z"/><path class="cls-7" d="M483.64,117.42a2,2,0,0,1,1.92,1.14l-.92.39a1.21,1.21,0,0,0-1.14-.65,1.73,1.73,0,0,0-1.64,1.8,1.24,1.24,0,0,0,1.32,1.27,1.45,1.45,0,0,0,.95-.35l.12-.57H483l.19-.86h2.24L485,121.4a2.42,2.42,0,0,1-1.9.85,2.11,2.11,0,0,1-2.29-2.09A2.69,2.69,0,0,1,483.64,117.42Z"/><path class="cls-7" d="M695.85,120.74a1.42,1.42,0,0,0,1.26.65.81.81,0,0,0,.89-.77c0-.4-.36-.65-.88-.65a1.31,1.31,0,0,0-.86.3l-.64-.26.55-2.51h3.21l-.19.85H697l-.25,1.12a1.56,1.56,0,0,1,.95-.29A1.28,1.28,0,0,1,699,120.5a1.8,1.8,0,0,1-1.93,1.75,2.19,2.19,0,0,1-2-.89Z"/><path class="cls-7" d="M702.56,117.42a2,2,0,0,1,1.92,1.14l-.91.39a1.23,1.23,0,0,0-1.15-.65,1.72,1.72,0,0,0-1.63,1.8,1.23,1.23,0,0,0,1.31,1.27,1.45,1.45,0,0,0,.95-.35l.12-.57h-1.25l.2-.86h2.23l-.4,1.81a2.45,2.45,0,0,1-1.9.85,2.11,2.11,0,0,1-2.3-2.09A2.69,2.69,0,0,1,702.56,117.42Z"/><path class="cls-7" d="M794.05,120.74a1.42,1.42,0,0,0,1.26.65.82.82,0,0,0,.89-.77c0-.4-.36-.65-.88-.65a1.29,1.29,0,0,0-.86.3l-.64-.26.55-2.51h3.21l-.19.85h-2.24l-.24,1.12a1.53,1.53,0,0,1,.94-.29,1.28,1.28,0,0,1,1.39,1.32,1.8,1.8,0,0,1-1.94,1.75,2.21,2.21,0,0,1-1.95-.89Z"/><path class="cls-7" d="M800.75,117.42a2.06,2.06,0,0,1,1.93,1.14l-.92.39a1.23,1.23,0,0,0-1.15-.65,1.73,1.73,0,0,0-1.63,1.8,1.24,1.24,0,0,0,1.32,1.27,1.4,1.4,0,0,0,.94-.35l.12-.57h-1.24l.19-.86h2.24l-.41,1.81a2.43,2.43,0,0,1-1.9.85,2.11,2.11,0,0,1-2.29-2.09A2.69,2.69,0,0,1,800.75,117.42Z"/><path class="cls-7" d="M609.05,229.41h-2.23l.19-.87,2.43-2.83h1.42l-.62,2.83h.6l-.19.87H610l-.21,1h-1Zm-1.07-.87h1.26l.43-1.95Z"/><path class="cls-7" d="M614.26,225.63a2.08,2.08,0,0,1,1.93,1.13l-.92.4a1.23,1.23,0,0,0-1.15-.65,1.72,1.72,0,0,0-1.63,1.79,1.24,1.24,0,0,0,1.31,1.28,1.4,1.4,0,0,0,1-.36l.12-.56h-1.25l.2-.86h2.23l-.4,1.81a2.45,2.45,0,0,1-1.9.85,2.11,2.11,0,0,1-2.3-2.09A2.69,2.69,0,0,1,614.26,225.63Z"/><path class="cls-7" d="M619.23,225.71H621a2,2,0,0,1,2,2,2.69,2.69,0,0,1-3,2.66H618.2Zm2.79,2.07a1.15,1.15,0,0,0-1.17-1.2H620l-.64,2.92h.83A1.7,1.7,0,0,0,622,227.78Z"/><path class="cls-7" d="M624.18,227h.89l-.75,3.38h-.89Zm.71-1.5a.46.46,0,0,1,.48.45.61.61,0,0,1-.6.61.46.46,0,0,1-.48-.45A.6.6,0,0,1,624.89,225.5Z"/><path class="cls-7" d="M628.46,227h.89l-.75,3.38h-.89l.09-.42a1.28,1.28,0,0,1-1,.5,1.25,1.25,0,0,1-1.29-1.4,2,2,0,0,1,1.79-2.15,1.28,1.28,0,0,1,1.07.53Zm-1.28,2.67a1,1,0,0,0,.78-.4l.26-1.18a1,1,0,0,0-.79-.39,1.1,1.1,0,0,0-1,1.18A.74.74,0,0,0,627.18,229.67Z"/><path class="cls-7" d="M634.32,228.33a1.06,1.06,0,0,0,0-.22.43.43,0,0,0-.48-.41,1.06,1.06,0,0,0-.71.39l-.5,2.29h-.89l.45-2a.86.86,0,0,0,0-.24c0-.22-.18-.39-.5-.39a1,1,0,0,0-.69.39l-.51,2.29h-.89l.75-3.38h.89l-.1.44a1.43,1.43,0,0,1,1-.53.88.88,0,0,1,.93.61h0a1.55,1.55,0,0,1,1.17-.62.88.88,0,0,1,1,.86,1.84,1.84,0,0,1,0,.28l-.52,2.33h-.89Z"/><path class="cls-7" d="M637.9,226.91a1.44,1.44,0,0,1,1.52,1.51,2,2,0,0,1-.08.55h-2.51v.08a.83.83,0,0,0,.92.7,1.53,1.53,0,0,0,.86-.25l.28.61a2.16,2.16,0,0,1-1.2.35c-1.06,0-1.75-.57-1.75-1.52A2,2,0,0,1,637.9,226.91Zm.72,1.39a.69.69,0,0,0-.78-.68,1,1,0,0,0-.92.75h1.7Z"/><path class="cls-7" d="M640.21,229.5l.37-1.73H640l.18-.77h.56l.2-.93h.9l-.21.93h.69l-.18.77h-.69l-.32,1.47a.61.61,0,0,0,0,.14c0,.18.1.29.33.29a.4.4,0,0,0,.24-.07l0,.71a1,1,0,0,1-.56.15c-.61,0-1-.23-1-.73A.69.69,0,0,1,640.21,229.5Z"/><path class="cls-7" d="M644.49,226.91a1.44,1.44,0,0,1,1.52,1.51,2.47,2.47,0,0,1-.07.55h-2.52v.08c0,.29.3.7.93.7a1.52,1.52,0,0,0,.85-.25l.28.61a2.13,2.13,0,0,1-1.19.35c-1.07,0-1.76-.57-1.76-1.52A2,2,0,0,1,644.49,226.91Zm.72,1.39a.69.69,0,0,0-.78-.68,1,1,0,0,0-.92.75h1.7Z"/><path class="cls-7" d="M647.19,227h.89l-.11.44a1.55,1.55,0,0,1,1.2-.52l-.19.88a1.71,1.71,0,0,0-.33,0,1.17,1.17,0,0,0-.84.41l-.48,2.21h-.89Z"/><rect class="cls-8" x="62.98" y="65.26" width="30.77" height="30.77" rx="0.96" transform="translate(-2.28 159.01) rotate(-90)"/><path d="M73.86,81.4h-3l-.53,1.33h-.83l2.42-6h.92l2.42,6H74.4ZM71,80.73h2.6l-1.3-3.34Z"/><path d="M81.05,77.73l-2,5h-.3l-2-5v5h-.74v-6H77l1.86,4.58,1.87-4.58h1.07v6h-.74Z"/><path d="M83.11,76.72H87v.67H83.85v1.94H87V80H83.85v2.74h-.74Z"/><rect class="cls-8" x="124.98" y="65.26" width="30.77" height="30.77" rx="0.96" transform="translate(59.72 221.01) rotate(-90)"/><path d="M132.49,81.32c1.53,2.15,5.5-.39,1.78-1.32-4.59-.92-.35-5.23,2.16-2.53L136,78c-.67-.88-2.9-1.11-3,.23.33,1.49,3.7.69,3.56,2.82.29,2-3.57,2.29-4.52.81Z"/><path d="M142.72,77.73l-2,5h-.31l-2-5v5h-.75v-6h1.07l1.87,4.58,1.87-4.58h1.07v6h-.75Z"/><path d="M144.78,76.72h3.93v.67h-3.18v1.94h3.12V80h-3.12v2.74h-.75Z"/><rect class="cls-8" x="183.35" y="65.26" width="30.77" height="30.77" rx="0.96" transform="translate(118.09 279.38) rotate(-90)"/><path d="M192.25,81.4h-3l-.54,1.33h-.82l2.41-6h.93l2.42,6h-.83Zm-2.83-.67H192l-1.29-3.34Z"/><path d="M194.07,76.72h.74c.23,1.48-.89,5.6,1.7,5.45,2.59.16,1.48-4,1.71-5.45H199c-.16,2,.9,6.3-2.45,6.12C193.17,83,194.23,78.74,194.07,76.72Z"/><path d="M200.36,81.32c1.53,2.15,5.5-.39,1.78-1.32-4.59-.92-.35-5.23,2.16-2.53l-.45.55c-.67-.88-2.9-1.11-3,.23.33,1.49,3.7.69,3.55,2.82.29,2-3.57,2.29-4.51.81Z"/><path d="M205.46,76.72h3.93v.67h-3.18v1.94h3.12V80h-3.12v2.74h-.75Z"/><rect class="cls-8" x="242.35" y="65.26" width="30.77" height="30.77" rx="0.96" transform="translate(177.09 338.38) rotate(-90)"/><path d="M248.59,76.72h.74c.24,1.48-.89,5.6,1.71,5.45,2.59.16,1.47-4,1.7-5.45h.75c-.17,2,.89,6.3-2.45,6.12C247.69,83,248.75,78.74,248.59,76.72Z"/><path d="M254.8,76.72c6.89-1.11,6.89,7.13,0,6Zm2.05,5.34c4-.41,2.39-5.67-1.31-4.67v4.67Z"/><path d="M266.14,77.73l-2.05,5h-.3l-2-5v5H261v-6h1.07l1.86,4.58,1.87-4.58h1.08v6h-.75Z"/><rect class="cls-8" x="303.98" y="65.26" width="30.77" height="30.77" rx="0.96" transform="translate(238.72 400.01) rotate(-90)"/><path d="M312.51,77.88v4.85h-.75v-6h.77L316,81.47V76.72h.75v6H316Z"/><path d="M320,80.34h-1.2v2.39H318v-6h2.42c2.32-.19,2.48,3.49.32,3.56l1.62,2.45h-.88Zm.38-3h-1.58v2.3h1.58A1.15,1.15,0,1,0,320.37,77.39Z"/><path d="M323.43,76.72h3.93v.67h-3.19v1.94h3.13V80h-3.13v2.74h-.74Z"/><rect class="cls-8" x="64.07" y="242.28" width="30.77" height="30.77" rx="0.96" transform="translate(-178.21 337.11) rotate(-90)"/><path d="M76,257H72.51v2.75h-.75v-6h.75v2.58H76v-2.58h.75v6H76Z"/><path d="M78.16,258.33c1.54,2.15,5.5-.38,1.79-1.31-4.59-.92-.36-5.24,2.16-2.53l-.45.55c-.67-.88-2.9-1.12-3,.23.32,1.49,3.69.68,3.55,2.82.29,2-3.57,2.29-4.52.81Z"/><path d="M83.35,258.33c1.53,2.15,5.5-.38,1.78-1.31-4.59-.92-.35-5.24,2.16-2.53l-.45.55c-.67-.88-2.9-1.12-3,.23.33,1.49,3.7.68,3.55,2.82.29,2-3.57,2.29-4.51.81Z"/><rect class="cls-8" x="112.94" y="242.28" width="30.77" height="30.77" rx="0.96" transform="translate(-129.34 385.98) rotate(-90)"/><path d="M124.4,254.75l-2,5h-.31l-2-5v5h-.75v-6h1.07l1.87,4.57,1.87-4.57h1.07v6h-.75Z"/><path d="M131.59,254.75l-2,5h-.31l-2-5v5h-.75v-6h1.07l1.87,4.57,1.87-4.57h1.07v6h-.75Z"/><path d="M133.65,253.74h3.94v.67H134.4v1.93h3.12V257H134.4v2.07h3.19v.66h-3.94Z"/><rect class="cls-8" x="161.81" y="242.28" width="30.77" height="30.77" rx="0.96" transform="translate(-80.47 434.85) rotate(-90)"/><path d="M168.17,253.74h2.41a1.81,1.81,0,1,1,0,3.62h-1.66v2.38h-.75Zm2.33.67h-1.58v2.28h1.58A1.14,1.14,0,1,0,170.5,254.41Z"/><path d="M176.21,253.64a2.86,2.86,0,0,1,2.33,1.13l-.59.36c-5-3.95-5.42,6.84-.13,3.42v-1.23h-2.06v-.66h2.81v2.17C174.2,263,170.19,254.08,176.21,253.64Z"/><path d="M182.93,254.9l-1.32,4.84h-.81l-1.71-6h.83l1.33,5,1.38-5h.62l1.37,5,1.33-5h.83l-1.71,6h-.81Z"/><rect class="cls-8" x="210.68" y="242.28" width="30.77" height="30.77" rx="0.96" transform="translate(-31.6 483.72) rotate(-90)"/><path d="M216,253.74h2.42a1.81,1.81,0,1,1,0,3.62h-1.67v2.38H216Zm2.33.67h-1.58v2.28h1.58A1.14,1.14,0,1,0,218.33,254.41Z"/><path d="M221,256.75c-.17-2.95,3.9-4.2,5.37-1.92l-.63.35c-5.13-4.1-5.11,7.23,0,3.13l.64.35C224.83,260.94,220.79,259.7,221,256.75Z"/><path d="M229.13,257.36h-1.19v2.38h-.75v-6h2.41c2.32-.2,2.48,3.49.33,3.56l1.62,2.44h-.89Zm.38-3h-1.57v2.29h1.57A1.15,1.15,0,1,0,229.51,254.41Z"/><path d="M232.57,253.74h3.94v.67h-3.19v1.93h3.12V257h-3.12v2.73h-.75Z"/><rect class="cls-8" x="259.55" y="242.28" width="30.77" height="30.77" rx="0.96" transform="translate(17.27 532.59) rotate(-90)"/><path d="M268.05,249.11c3.91-.14,3.91,6.35,0,6.21C264.14,255.46,264.14,249,268.05,249.11Zm0,.66c-2.91-.12-2.91,5,0,4.88C271,254.77,271,249.65,268.05,249.77Z"/><path d="M271.87,252.21c-.18-2.94,3.89-4.19,5.36-1.91l-.63.35c-5.13-4.1-5.11,7.23,0,3.13l.64.35C275.74,256.41,271.7,255.17,271.87,252.21Z"/><path d="M278.18,253.8c1.54,2.15,5.51-.38,1.79-1.32-4.59-.92-.35-5.23,2.16-2.53l-.45.55c-.67-.87-2.9-1.11-3,.24.33,1.48,3.69.68,3.55,2.82.29,1.95-3.57,2.28-4.52.81Z"/><path d="M284.72,249h.53l-2.13,6.36h-.54Z"/><path d="M266.91,258.11c3.91-.14,3.91,6.35,0,6.21C263,264.46,263,258,266.91,258.11Zm0,.66c-2.91-.12-2.91,5,0,4.88C269.81,263.77,269.81,258.65,266.91,258.77Z"/><path d="M270.72,261.21c-.17-2.94,3.9-4.19,5.37-1.91l-.63.35c-5.13-4.1-5.11,7.23,0,3.13l.64.35C274.6,265.41,270.56,264.17,270.72,261.21Z"/><path d="M277,258.21h3.93v.66h-3.18v1.94h3.12v.67h-3.12v2.73H277Z"/><path d="M281.9,262.8c1.54,2.15,5.5-.38,1.78-1.32-4.59-.92-.35-5.23,2.16-2.53l-.45.55c-.67-.87-2.89-1.11-3,.24.33,1.48,3.7.68,3.56,2.82.29,1.95-3.57,2.28-4.52.81Z"/><rect class="cls-8" x="308.42" y="242.28" width="30.77" height="30.77" rx="0.96" transform="translate(647.6 515.32) rotate(-180)"/><path d="M322.89,258.41h-3l-.53,1.33h-.83l2.41-6h.93l2.42,6h-.83Zm-2.82-.66h2.6l-1.3-3.34Z"/><path d="M324.94,253.74h3.94v.67h-3.19v1.93h3.12V257h-3.12v2.73h-.75Z"/><path d="M770.9,76h-3.51v2.75h-.75v-6h.75v2.58h3.51V72.77h.75v6h-.75Z"/><path d="M773,77.36c1.54,2.15,5.5-.38,1.78-1.31-4.59-.92-.35-5.24,2.16-2.53l-.44.55c-.68-.88-2.9-1.12-3,.23.33,1.48,3.7.68,3.56,2.82.29,1.95-3.57,2.28-4.52.81Z"/><path d="M778.22,77.36c1.54,2.15,5.51-.38,1.79-1.31-4.59-.92-.35-5.24,2.16-2.53l-.45.55c-.67-.88-2.9-1.12-3,.23.33,1.48,3.69.68,3.55,2.82.29,1.95-3.57,2.28-4.52.81Z"/><path d="M787.36,77.89h-.51V76h-1.73v-.46h1.73V73.64h.51v1.87h1.73V76h-1.73Z"/><path d="M792.19,72.77h.75c.23,1.47-.89,5.6,1.7,5.44,2.59.16,1.47-4,1.7-5.44h.75c-.17,2,.9,6.29-2.45,6.11C791.29,79.06,792.36,74.78,792.19,72.77Z"/><path d="M798.4,72.77c6.89-1.11,6.89,7.12,0,6Zm2.06,5.34c4-.41,2.38-5.68-1.31-4.68v4.68Z"/><path d="M809.74,73.78l-2,5h-.31l-2-5v5h-.75v-6h1.07l1.87,4.57,1.87-4.57h1.07v6h-.75Z"/><rect class="cls-8" x="773.22" y="44.39" width="30.77" height="64.59" rx="0.96" transform="translate(711.91 865.29) rotate(-90)"/><path d="M445.12,72.77h2.41a1.81,1.81,0,1,1,0,3.62h-1.66v2.38h-.75Zm2.32.66h-1.57v2.29h1.57A1.15,1.15,0,1,0,447.44,73.43Z"/><path d="M450.07,75.78c-.18-3,3.9-4.2,5.37-1.92l-.63.35c-5.13-4.1-5.11,7.23,0,3.13l.64.35C454,80,449.9,78.73,450.07,75.78Z"/><path d="M458.25,76.39h-1.2v2.38h-.74v-6h2.41c2.32-.2,2.48,3.49.32,3.56l1.63,2.44h-.89Zm.38-3h-1.58v2.3h1.58A1.15,1.15,0,1,0,458.63,73.43Z"/><path d="M461.69,72.77h3.93v.66h-3.18v1.94h3.12V76h-3.12v2.73h-.75Z"/><path d="M470.58,77.89h-.51V76h-1.73v-.46h1.73V73.64h.51v1.87h1.73V76h-1.73Z"/><path d="M475.41,72.77h2.42a1.81,1.81,0,1,1,0,3.62h-1.67v2.38h-.75Zm2.33.66h-1.58v2.29h1.58A1.15,1.15,0,1,0,477.74,73.43Z"/><path d="M480.36,75.78c-.17-3,3.9-4.2,5.37-1.92l-.63.35c-5.13-4.1-5.11,7.23,0,3.13l.64.35C484.24,80,480.2,78.73,480.36,75.78Z"/><path d="M486.6,72.77h3.93v.66h-3.18v1.94h3.12V76h-3.12v2.73h-.75Z"/><rect class="cls-8" x="452.29" y="44.39" width="30.77" height="64.59" rx="0.96" transform="translate(390.98 544.36) rotate(-90)"/><rect class="cls-8" x="528.29" y="61.31" width="30.77" height="30.77" rx="0.96" transform="translate(466.98 620.36) rotate(-90)"/><path d="M538.08,72.67c3.91-.14,3.91,6.35,0,6.21C534.17,79,534.17,72.53,538.08,72.67Zm0,.67c-2.91-.13-2.91,5,0,4.87C541,78.33,541,73.21,538.08,73.34Z"/><path d="M541.9,75.78c-.18-3,3.89-4.2,5.36-1.92l-.63.35c-5.13-4.1-5.11,7.23,0,3.13l.64.35C545.77,80,541.73,78.73,541.9,75.78Z"/><path d="M548.21,77.36c1.54,2.15,5.51-.38,1.79-1.31-4.59-.92-.35-5.24,2.16-2.53l-.45.55c-.67-.88-2.9-1.12-3,.23.32,1.48,3.69.68,3.55,2.82.29,1.95-3.57,2.28-4.52.81Z"/><rect class="cls-8" x="583" y="61.31" width="30.77" height="30.77" rx="0.96" transform="translate(521.69 675.07) rotate(-90)"/><path d="M592.79,72.67c3.91-.14,3.91,6.35,0,6.21C588.88,79,588.87,72.53,592.79,72.67Zm0,.67c-2.91-.13-2.91,5,0,4.87C595.7,78.33,595.69,73.21,592.79,73.34Z"/><path d="M596.6,75.78c-.17-3,3.9-4.2,5.37-1.92l-.63.35c-5.13-4.1-5.11,7.23,0,3.13l.64.35C600.48,80,596.44,78.73,596.6,75.78Z"/><path d="M602.92,77.36c1.54,2.15,5.5-.38,1.79-1.31-4.6-.92-.36-5.24,2.16-2.53l-.45.55c-.67-.88-2.9-1.12-3,.23.33,1.48,3.7.68,3.56,2.82.29,1.95-3.57,2.28-4.52.81Z"/><rect class="cls-8" x="637.71" y="61.31" width="30.77" height="30.77" rx="0.96" transform="translate(576.4 729.78) rotate(-90)"/><path d="M648.78,77.44h-3l-.53,1.33h-.83l2.41-6h.93l2.42,6h-.83ZM646,76.77h2.61l-1.3-3.34Z"/><path d="M654.61,77.44h-3L651,78.77h-.83l2.41-6h.93l2.42,6h-.83Zm-2.82-.67h2.6l-1.3-3.34Z"/><path d="M660.44,77.44h-3l-.53,1.33H656l2.42-6h.92l2.42,6H661Zm-2.82-.67h2.6l-1.3-3.34Z"/><rect class="cls-8" x="692.42" y="61.31" width="30.77" height="30.77" rx="0.96" transform="translate(631.11 784.49) rotate(-90)"/><path d="M699.63,75.78c-.18-3,3.89-4.2,5.36-1.92l-.63.35c-5.13-4.1-5.11,7.23,0,3.13l.64.35C703.5,80,699.46,78.73,699.63,75.78Z"/><path d="M710.12,76h-3.51v2.75h-.74v-6h.74v2.58h3.51V72.77h.75v6h-.75Z"/><path d="M712.18,72.77h3.94v.66h-3.19v1.94h3.12V76h-3.12v2.73h-.75Z"/><line class="cls-9" x1="866.24" y1="211.59" x2="385.24" y2="211.59"/><path d="M391.1,197c-.17-2.47,3.52-3.25,4.44-1.28l-.85.42a1.42,1.42,0,1,0,0,1.71l.85.41C394.62,200.19,390.93,199.41,391.1,197Z"/><path d="M396.12,197.58c-.14-2.3,3.72-2.29,3.58,0C399.84,199.89,396,199.9,396.12,197.58Zm2.66,0a.87.87,0,1,0-1.73,0A.87.87,0,1,0,398.78,197.58Z"/><path d="M402.83,197.23c.05-.88-1.1-.71-1.39-.23v2.28h-.89V195.9h.89v.44c2.38-1.92,2.44,1.35,2.28,2.94h-.89Z"/><path d="M405,198.44v-1.77h-.56v-.77H405V195h.89v.93h.69v.77h-.69c.1.38-.34,2.41.62,1.8l.19.68C406.14,199.59,404.84,199.37,405,198.44Z"/><path d="M407.38,195.9h.89v.46a1.46,1.46,0,0,1,1.08-.54v.87a1.12,1.12,0,0,0-1.08.35v2.24h-.89Z"/><path d="M409.85,197.58c-.14-2.3,3.72-2.29,3.58,0C413.58,199.89,409.71,199.9,409.85,197.58Zm2.66,0a.87.87,0,1,0-1.73,0A.87.87,0,1,0,412.51,197.58Z"/><path d="M414.28,194.61h.89v4.67h-.89Z"/><path d="M394.43,201.61h2.19c2.95.49,1.43,3.68-1.19,3v1.67h-1Zm2.05.85h-1.05v1.29h1.05A.65.65,0,1,0,396.48,202.46Z"/><path d="M398.92,201.61h.89v4.67h-.89Z"/><path d="M402.9,205.93c-2.84,2-2.89-3.38,0-1.35.29-1.1-1-1.34-1.73-.64l-.33-.6c2.73-1.71,3.22.66,3,2.94h-.89Zm0-.88c-1.7-1.27-1.71,1.69,0,.42Z"/><path d="M407.12,204.23c.05-.88-1.1-.71-1.39-.23v2.28h-.89V202.9h.89v.44c2.39-1.92,2.44,1.35,2.28,2.94h-.89Z"/><path d="M410.61,202.81a1.75,1.75,0,0,1,1.69,2.06h-2.51c0,.83,1.33,1,1.88.45l.39.57C409.52,208,407.17,203.13,410.61,202.81Zm-.84,1.46h1.67C411.5,203.33,409.75,203.31,409.77,204.27Z"/><path d="M395.38,215.92h1c.2,1-.68,4,1.08,3.87,1.74.11.88-2.93,1.07-3.87h1c-.12,1.68.71,4.88-2.08,4.75C394.66,220.8,395.5,217.61,395.38,215.92Z"/><path d="M400.72,219.52c.28.34,1.64.8,1.74.12-.3-.71-2.09-.21-2-1.45-.09-1.18,2.06-1.34,2.75-.61l-.36.61c-.21-.31-1.43-.66-1.53-.07.34.66,2.07.2,2,1.47.09,1.26-2.25,1.35-3,.56Z"/><path d="M405.69,217.12a1.75,1.75,0,0,1,1.69,2.06h-2.51c0,.83,1.33,1,1.88.45l.39.57C404.6,222.34,402.25,217.44,405.69,217.12Zm-.83,1.46h1.66C406.59,217.64,404.83,217.62,404.86,218.58Z"/><path d="M408.21,217.21h.89v.46a1.46,1.46,0,0,1,1.08-.54V218a1.13,1.13,0,0,0-1.08.35v2.24h-.89Z"/><path d="M393.8,222.92H396c2.95.49,1.44,3.68-1.19,3v1.67h-1Zm2.05.85h-1.06v1.29h1.06A.65.65,0,1,0,395.85,223.77Z"/><path d="M398.29,222.92h.89v4.67h-.89Z"/><path d="M402.27,227.24c-2.84,2-2.89-3.38,0-1.35.28-1.1-1-1.34-1.73-.64l-.33-.6c2.73-1.71,3.21.66,3,2.94h-.89Zm0-.88c-1.71-1.27-1.71,1.69,0,.42Z"/><path d="M406.49,225.54c.05-.88-1.1-.71-1.39-.23v2.28h-.89v-3.38h.89v.44c2.38-1.92,2.44,1.35,2.28,2.94h-.89Z"/><path d="M410,224.12a1.76,1.76,0,0,1,1.7,2.06h-2.51c0,.83,1.33,1,1.87.45l.39.57C408.89,229.34,406.53,224.44,410,224.12Zm-.83,1.46h1.67C410.87,224.64,409.12,224.61,409.14,225.58Z"/><path class="cls-8" d="M781.45,252.1l-1.34-1.84a3.79,3.79,0,0,1,.07-4.7l1.27-1.65"/><path class="cls-8" d="M778.75,254.27l-2.91-4a3.76,3.76,0,0,1,.07-4.69l2.84-3.72"/><path class="cls-8" d="M775.47,255.89l-4.19-5.77a3.77,3.77,0,0,1,.07-4.7l4.12-5.39"/><path class="cls-8" d="M793,243.82l1.34,1.85a3.77,3.77,0,0,1-.07,4.69L793,252"/><path class="cls-8" d="M795.74,241.66l2.91,4a3.77,3.77,0,0,1-.07,4.7l-2.84,3.71"/><path class="cls-8" d="M799,240l4.19,5.78a3.76,3.76,0,0,1-.07,4.69L799,255.89"/><path class="cls-8" d="M796.44,277l-7.22-25.72a3.88,3.88,0,1,0-4,0L778.05,277h15.76"/><line class="cls-8" x1="781.99" y1="271.79" x2="792.5" y2="271.79"/><line class="cls-8" x1="783.3" y1="266.46" x2="791.19" y2="266.46"/><line class="cls-8" x1="784.62" y1="261.18" x2="789.87" y2="261.18"/><rect class="cls-8" x="621.24" y="180.59" width="82.56" height="22.32"/><path class="cls-10" d="M636.3,188.28h2.41a1.81,1.81,0,1,1,0,3.62H637v2.38h-.74Zm2.32.66H637v2.29h1.58A1.15,1.15,0,1,0,638.62,188.94Z"/><path class="cls-10" d="M644.33,188.18a2.88,2.88,0,0,1,2.34,1.12l-.6.37c-5-3.95-5.41,6.84-.12,3.41v-1.22h-2.07v-.67h2.81v2.17C642.32,197.56,638.31,188.62,644.33,188.18Z"/><path class="cls-10" d="M651.06,189.44l-1.33,4.84h-.81l-1.71-6H648l1.34,5,1.37-5h.62l1.38,5,1.32-5h.83l-1.71,6h-.81Z"/><path class="cls-10" d="M654.92,191.81h2.16v.59h-2.16Z"/><path class="cls-10" d="M657.72,191.28c-.18-2.94,3.89-4.19,5.36-1.91l-.63.35c-5.13-4.1-5.11,7.23,0,3.13l.64.35C661.59,195.48,657.55,194.24,657.72,191.28Z"/><path class="cls-10" d="M668,193.4h-.52v-1.92h-1.73V191h1.73v-1.86H668V191h1.72v.47H668Z"/><path class="cls-10" d="M672.9,192.87c1.54,2.15,5.5-.38,1.78-1.32-4.59-.92-.35-5.23,2.16-2.53l-.45.55c-.67-.87-2.9-1.11-3,.24.33,1.48,3.7.68,3.56,2.82.29,2-3.57,2.28-4.52.81Z"/><path class="cls-10" d="M683.13,189.29l-2,5h-.31l-2-5v5H678v-6h1.07l1.87,4.57,1.87-4.57h1.07v6h-.75Z"/><path class="cls-10" d="M685.19,188.28h3.94v.66h-3.19v1.94h3.12v.66h-3.12v2.74h-.75Z"/><line class="cls-11" x1="771.23" y1="203.06" x2="771.23" y2="229.45"/><line class="cls-4" x1="805.51" y1="202.79" x2="805.51" y2="229.19"/><rect class="cls-12" x="742.36" y="229.3" width="89.77" height="74.47"/><path d="M480.72,298c8.42-1.36,8.42,8.7,0,7.34Zm2.5,6.52c4.84-.54,3-6.87-1.59-5.71v5.71Z"/><path d="M491.6,304.68c-4.68,3.37-4.67-5.41,0-2.05.51-2-1.69-2.8-3-1.34l-.39-.57c4.3-2.91,4.43,1.38,4.18,4.57h-.82Zm0-1.52c-3.57-2.81-3.57,3.82,0,1Z"/><path d="M494.12,304.17V300.7h-.87V300h.87v-1.45H495V300H496v.73H495c.22.64-.71,5.06,1.1,3.76l.24.62C495.6,305.75,494,305.43,494.12,304.17Z"/><path d="M500.41,304.68c-4.68,3.37-4.67-5.41,0-2.05.51-2-1.69-2.8-3-1.34l-.39-.57c4.31-2.91,4.43,1.38,4.18,4.57h-.82Zm0-1.52c-3.57-2.81-3.57,3.82,0,1Z"/><path d="M472.63,310.37v5.92h-.92V309h.94l4.22,5.8V309h.92v7.34h-.88Z"/><path d="M481.67,310.84c1.69,0,2.63,1.42,2.55,3.06h-4.3c0,1.78,2.39,2.43,3.55,1.17l.4.53C480.05,319.14,476.53,311.3,481.67,310.84Zm-1.75,2.45h3.49C483.58,311.07,479.82,311,479.92,313.29Z"/><path d="M485.61,315.17V311.7h-.88V311h.88v-1.45h.82V311h1.08v.73h-1.08c.22.64-.71,5.06,1.1,3.76l.24.62C487.08,316.75,485.46,316.43,485.61,315.17Z"/><path d="M491.78,312l-1.39,4.27h-.82l-1.7-5.32h.86l1.3,4.24,1.4-4.24h.7l1.4,4.24,1.29-4.24h.86L494,316.29h-.83Z"/><path d="M496.22,313.62c-.19-3.62,5.45-3.62,5.26,0C501.67,317.26,496,317.26,496.22,313.62Zm4.39,0a1.78,1.78,0,1,0-3.53,0A1.78,1.78,0,1,0,500.61,313.62Z"/><path d="M502.71,311h.83v.86a2.24,2.24,0,0,1,1.77-1v.85c-2.52-.51-1.64,3.28-1.77,4.58h-.83Z"/><path d="M507.94,313.9l-.88.87v1.52h-.83V309h.83v4.85l2.79-2.83h1l-2.35,2.41,2.37,2.91h-1.06Z"/><g id="Group_12856" data-name="Group 12856"><g id="Group_12835" data-name="Group 12835"><path id="Path_60589" data-name="Path 60589" class="cls-8" d="M454.59,265.33h-23.4a5.9,5.9,0,0,1,0-11.79h0a8.77,8.77,0,0,1,12.34-8,10.24,10.24,0,0,1,19.83,3.64,9,9,0,0,1-.35,2.67,7.37,7.37,0,0,1-4,13.53Z"/></g></g><path d="M437.8,271.77h.92v7.34h-.92Z"/><path d="M446.59,273l-2.5,6.1h-.37l-2.49-6.1v6.1h-.91v-7.34h1.31l2.28,5.59,2.29-5.59h1.3v7.34h-.91Z"/><path d="M449.21,277.38c1.88,2.63,6.72-.46,2.18-1.6-5.61-1.13-.43-6.4,2.64-3.09l-.55.67c-1.83-2.32-6,.57-1.85,1.49,5.91,1.29.32,6.89-3,3.23Z"/><path d="M427.49,284.19v5.92h-.91v-7.34h.93l4.23,5.8v-5.8h.91v7.34h-.88Z"/><path d="M436.53,284.67c1.69,0,2.64,1.41,2.55,3.05h-4.3c0,1.78,2.4,2.44,3.56,1.17l.39.54C434.92,293,431.39,285.13,436.53,284.67Zm-1.75,2.45h3.49C438.44,284.89,434.69,284.84,434.78,287.12Z"/><path d="M440.47,289v-3.48h-.88v-.72h.88v-1.45h.82v1.45h1.08v.72h-1.08c.22.64-.71,5.07,1.11,3.77l.24.61C442,290.57,440.32,290.26,440.47,289Z"/><path d="M446.64,285.84l-1.39,4.27h-.82l-1.69-5.31h.85l1.3,4.23,1.4-4.23h.7l1.4,4.23,1.3-4.23h.86l-1.7,5.31H448Z"/><path d="M451.08,287.45c-.19-3.62,5.46-3.62,5.26,0C456.54,291.08,450.89,291.08,451.08,287.45Zm4.39,0a1.78,1.78,0,1,0-3.53,0A1.78,1.78,0,1,0,455.47,287.45Z"/><path d="M457.58,284.8h.82v.86a2.24,2.24,0,0,1,1.77-1v.84c-2.51-.5-1.63,3.29-1.77,4.58h-.82Z"/><path d="M462.8,287.72l-.88.87v1.52h-.83v-7.34h.83v4.85l2.79-2.82h1.05l-2.36,2.41,2.37,2.9h-1.06Z"/><path d="M768.5,289.23h-2.86v-.62l2.58-3.87h1v3.83h.84v.66h-.84v1.52h-.75Zm-2.11-.66h2.11v-3.13Z"/><path d="M771.3,291.36a1.58,1.58,0,0,0,2.81-1.33c-4.37,3.75-4.4-6.7,0-3v-.66h.67c.06,2.79.66,8.14-3.83,5.46Zm2.81-3.76c-3.49-3.23-3.47,5.14,0,1.9Z"/><path d="M777.5,284.56H778l-2.13,6.37h-.54Z"/><path d="M779,289.4c3.38,3.24,4.3-3.84.28-1.23l-.55-.19v-3.24h3.67v.67h-2.92v2.09c5.36-2.65,3.35,6.51-.94,2.39Z"/><path d="M784.17,291.36A1.58,1.58,0,0,0,787,290c-4.37,3.75-4.4-6.7,0-3v-.66h.67c.06,2.79.66,8.14-3.83,5.46ZM787,287.6c-3.49-3.23-3.47,5.14,0,1.9Z"/><path d="M793.11,288.36h-1.19v2.39h-.75v-6h2.41c2.32-.19,2.48,3.49.33,3.56l1.62,2.45h-.89Zm.38-2.95h-1.57v2.3h1.57A1.15,1.15,0,1,0,793.49,285.41Z"/><path d="M800.33,289.42h-3l-.53,1.33h-.83l2.41-6h.93l2.42,6h-.83Zm-2.83-.67h2.61l-1.3-3.34Z"/><path d="M803.13,285.9v4.85h-.75v-6h.77l3.45,4.75v-4.75h.75v6h-.72Z"/><rect class="cls-13" x="63.95" y="145.21" width="270.8" height="28.01"/><line class="cls-14" x1="214.31" y1="159.37" x2="212.81" y2="159.37"/><line class="cls-15" x1="209.71" y1="159.37" x2="186.52" y2="159.37"/><line class="cls-14" x1="184.97" y1="159.37" x2="183.47" y2="159.37"/><polygon class="cls-7" points="210.99 155.28 210.31 156.01 213.92 159.37 210.31 162.72 210.99 163.46 215.39 159.37 210.99 155.28"/><polygon class="cls-7" points="186.78 155.28 187.47 156.01 183.85 159.37 187.47 162.72 186.78 163.46 182.39 159.37 186.78 155.28"/><polyline class="cls-5" points="519.07 278.33 664.73 278.33 664.73 265.35"/><path class="cls-8" d="M503.71,284.28l0,3.5c0,3-5,5.52-11.61,5.56s-11.77-2.4-11.79-5.43l0-4.79v-2.2c0,1.33,1,2.54,2.77,3.48a18.77,18.77,0,0,0,9,2A18.37,18.37,0,0,0,501,284.3c1.71-1,2.73-2.19,2.73-3.51v-1.5l0-2.5a3,3,0,0,1-.81,2c-1.74,2.06-5.69,3.53-10.79,3.56s-9.19-1.4-11-3.43a3.08,3.08,0,0,1-.83-2v-1l0-3.34v-1.65a3.86,3.86,0,0,0,2,3,13.9,13.9,0,0,0,5.08,2,21.47,21.47,0,0,0,4.75.48,20.76,20.76,0,0,0,4.61-.53,14,14,0,0,0,5.06-2,3.86,3.86,0,0,0,1.93-3c0-3-5-5.47-11.67-5.43-5.09,0-9.17,1.5-10.91,3.55"/><path class="cls-8" d="M494.79,263.69a5.31,5.31,0,0,1,3.78-1.29,7,7,0,0,1,2.87.78A8.2,8.2,0,0,1,517.32,266a7.87,7.87,0,0,1-.27,2.13,5.85,5.85,0,0,1-3.16,10.77l-7.92,0"/><path class="cls-7" d="M310.55,297.34h-2.23l.2-.87,2.42-2.83h1.43l-.63,2.83h.6l-.19.87h-.6l-.21,1h-1Zm-1.07-.87h1.26l.44-2Z"/><path class="cls-7" d="M315.76,293.56a2.06,2.06,0,0,1,1.93,1.14l-.92.39a1.23,1.23,0,0,0-1.15-.65,1.72,1.72,0,0,0-1.63,1.8,1.24,1.24,0,0,0,1.32,1.27,1.36,1.36,0,0,0,.94-.36l.12-.56h-1.24l.19-.86h2.24l-.41,1.81a2.45,2.45,0,0,1-1.9.85A2.11,2.11,0,0,1,313,296.3,2.69,2.69,0,0,1,315.76,293.56Z"/><path class="cls-7" d="M320.73,293.64h1.81a2,2,0,0,1,2,2,2.69,2.69,0,0,1-3,2.66H319.7Zm2.8,2.07a1.16,1.16,0,0,0-1.18-1.2h-.81l-.65,2.92h.83A1.7,1.7,0,0,0,323.53,295.71Z"/><path class="cls-7" d="M325.68,294.93h.89l-.75,3.38h-.89Zm.71-1.5a.46.46,0,0,1,.48.45.61.61,0,0,1-.59.61.46.46,0,0,1-.48-.45A.6.6,0,0,1,326.39,293.43Z"/><path class="cls-7" d="M330,294.93h.9l-.75,3.38h-.9l.1-.42a1.27,1.27,0,0,1-1,.5A1.25,1.25,0,0,1,327,297a2,2,0,0,1,1.79-2.15,1.28,1.28,0,0,1,1.08.54Zm-1.28,2.67a1,1,0,0,0,.78-.4l.26-1.17a.92.92,0,0,0-.79-.4,1.1,1.1,0,0,0-1,1.18A.74.74,0,0,0,328.68,297.6Z"/><path class="cls-7" d="M335.83,296.26s0-.14,0-.22a.44.44,0,0,0-.49-.41,1,1,0,0,0-.7.4l-.5,2.28h-.9l.46-2.05a1.57,1.57,0,0,0,0-.24c0-.22-.18-.39-.5-.39a1.05,1.05,0,0,0-.69.4l-.5,2.28h-.89l.75-3.38h.89l-.1.44a1.44,1.44,0,0,1,1-.53.9.9,0,0,1,.93.61v0a1.51,1.51,0,0,1,1.17-.63.89.89,0,0,1,1,.86,1.7,1.7,0,0,1,0,.28l-.51,2.33h-.9Z"/><path class="cls-7" d="M339.4,294.84a1.44,1.44,0,0,1,1.52,1.52,2.45,2.45,0,0,1-.07.54h-2.52V297a.84.84,0,0,0,.93.7,1.53,1.53,0,0,0,.85-.26l.28.61a2.13,2.13,0,0,1-1.19.35c-1.07,0-1.75-.57-1.75-1.52A2,2,0,0,1,339.4,294.84Zm.72,1.39a.69.69,0,0,0-.78-.68,1,1,0,0,0-.91.75h1.69Z"/><path class="cls-7" d="M341.71,297.43l.38-1.73h-.56l.17-.77h.56l.2-.93h.9l-.2.93h.68l-.18.77H343l-.33,1.47s0,.1,0,.14.11.29.33.29a.4.4,0,0,0,.24-.07l0,.72a1,1,0,0,1-.56.14c-.6,0-1-.23-1-.73A1.11,1.11,0,0,1,341.71,297.43Z"/><path class="cls-7" d="M346,294.84a1.44,1.44,0,0,1,1.52,1.52,2,2,0,0,1-.07.54h-2.51V297a.83.83,0,0,0,.92.7,1.53,1.53,0,0,0,.86-.26l.28.61a2.16,2.16,0,0,1-1.2.35c-1.07,0-1.75-.57-1.75-1.52A2,2,0,0,1,346,294.84Zm.72,1.39a.68.68,0,0,0-.77-.68,1,1,0,0,0-.92.75h1.69Z"/><path class="cls-7" d="M348.69,294.93h.89l-.1.45a1.5,1.5,0,0,1,1.19-.53l-.19.88a1.58,1.58,0,0,0-.32,0,1.19,1.19,0,0,0-.85.41l-.48,2.21h-.89Z"/><path class="cls-7" d="M309.13,307.32a1.42,1.42,0,0,0,1.26.65.81.81,0,0,0,.89-.77c0-.4-.36-.65-.88-.65a1.31,1.31,0,0,0-.86.3l-.64-.26.55-2.51h3.21l-.19.85h-2.23l-.25,1.12a1.56,1.56,0,0,1,.95-.29,1.29,1.29,0,0,1,1.39,1.32,1.81,1.81,0,0,1-1.94,1.75,2.2,2.2,0,0,1-1.95-.89Z"/><path class="cls-7" d="M315.84,304a2,2,0,0,1,1.92,1.14l-.91.39a1.23,1.23,0,0,0-1.15-.65,1.72,1.72,0,0,0-1.63,1.8,1.23,1.23,0,0,0,1.31,1.27,1.45,1.45,0,0,0,.95-.35l.12-.57H315.2l.2-.86h2.23l-.4,1.81a2.45,2.45,0,0,1-1.9.85,2.11,2.11,0,0,1-2.3-2.09A2.7,2.7,0,0,1,315.84,304Z"/><path class="cls-7" d="M323.41,306.79h-2.2l-.44,2h-1l1-4.67h1l-.4,1.83h2.2l.41-1.83h1l-1,4.67h-1Z"/><path class="cls-7" d="M326.89,305h-1.36l.19-.88h3.73l-.19.88h-1.37l-.83,3.79h-1Z"/><path class="cls-7" d="M331.17,305h-1.36l.19-.88h3.73l-.19.88h-1.36l-.84,3.79h-1Z"/><path class="cls-7" d="M334.44,304.08h2a1.3,1.3,0,0,1,1.42,1.3A1.74,1.74,0,0,1,336,307.1h-1.18l-.36,1.65h-1Zm2.4,1.39a.55.55,0,0,0-.59-.54h-1l-.28,1.29h1A.76.76,0,0,0,336.84,305.47Z"/><path class="cls-7" d="M340,303.94h.68L338,308.89h-.67Z"/><path class="cls-7" d="M340.36,307.83c2-1.12,3-1.74,3-2.4,0-.34-.35-.55-.84-.55a1.77,1.77,0,0,0-1.17.42l-.42-.71a2.61,2.61,0,0,1,1.66-.58c1,0,1.81.47,1.81,1.36s-1,1.72-2.49,2.51h1.95l-.19.87h-3.51Z"/><line class="cls-3" x1="276.34" y1="296.36" x2="303.39" y2="296.36"/><line class="cls-4" x1="276.34" y1="307.35" x2="303.39" y2="307.35"/><path class="cls-10" d="M636.29,251.19h2.42a1.81,1.81,0,1,1,0,3.62H637v2.39h-.75Zm2.33.67H637v2.29h1.58A1.15,1.15,0,1,0,638.62,251.86Z"/><path class="cls-10" d="M644.33,251.09a2.86,2.86,0,0,1,2.33,1.13l-.59.37c-5-4-5.41,6.84-.13,3.41v-1.22h-2.06v-.67h2.81v2.17C642.32,260.48,638.31,251.54,644.33,251.09Z"/><path class="cls-10" d="M651.05,252.35l-1.32,4.85h-.81l-1.71-6H648l1.33,5,1.38-5h.62l1.38,5,1.32-5h.83l-1.71,6h-.81Z"/><path class="cls-10" d="M654.91,254.72h2.16v.6h-2.16Z"/><path class="cls-10" d="M658,251.19h.74c.24,1.48-.89,5.6,1.7,5.45,2.59.16,1.48-4,1.71-5.45h.74c-.16,2,.9,6.3-2.45,6.12C657.06,257.48,658.12,253.21,658,251.19Z"/><path class="cls-10" d="M668.2,256.32h-.52V254.4H666v-.47h1.72v-1.86h.52v1.86h1.73v.47H668.2Z"/><path class="cls-10" d="M673,251.19h.75c.23,1.48-.89,5.6,1.7,5.45,2.59.16,1.47-4,1.7-5.45h.75c-.17,2,.89,6.3-2.45,6.12C672.13,257.48,673.19,253.21,673,251.19Z"/><path class="cls-10" d="M679.24,251.19h2.41a1.81,1.81,0,1,1,0,3.62H680v2.39h-.75Zm2.32.67H680v2.29h1.57A1.15,1.15,0,1,0,681.56,251.86Z"/><path class="cls-10" d="M684.43,251.19h3.94v.67h-3.19v1.93h3.12v.67h-3.12v2.74h-.75Z"/><rect class="cls-8" x="621.24" y="243.37" width="86.56" height="22.32"/><path d="M152.09,156.19c6.89-1.11,6.89,7.13,0,6Zm2,5.34c4-.41,2.39-5.67-1.31-4.67v4.67Z"/><path d="M160.24,159.81H159v2.39h-.74v-6h2.41c2.32-.19,2.48,3.49.33,3.56l1.62,2.45h-.89Zm.38-2.95H159v2.29h1.58A1.15,1.15,0,1,0,160.62,156.86Z"/><path d="M167.46,160.86h-3l-.53,1.34h-.83l2.41-6h.93l2.42,6H168Zm-2.83-.66h2.61l-1.3-3.34Z"/><rect class="cls-16" x="140.76" y="151" width="38.69" height="16.62"/><path d="M230.05,160.78c1.54,2.15,5.51-.38,1.79-1.31-4.59-.92-.35-5.23,2.16-2.53l-.45.55c-.67-.88-2.9-1.12-3,.23.33,1.49,3.69.69,3.55,2.82.29,2-3.57,2.29-4.52.81Z"/><path d="M234.91,159.2c-.17-2.95,3.9-4.2,5.37-1.92l-.63.35c-5.13-4.09-5.11,7.23,0,3.14l.64.35C238.79,163.39,234.75,162.15,234.91,159.2Z"/><path d="M241.15,156.19h2.41a1.81,1.81,0,1,1,0,3.62H241.9v2.39h-.75Zm2.32.67H241.9v2.29h1.57A1.15,1.15,0,1,0,243.47,156.86Z"/><rect class="cls-16" x="218.12" y="151" width="38.69" height="16.62"/><rect class="cls-13" x="419.34" y="144.21" width="412.78" height="27.45"/><path d="M589.07,155.39c6.89-1.11,6.89,7.12,0,6Zm2,5.34c4-.42,2.39-5.68-1.31-4.68v4.68Z"/><path d="M597.22,159H596v2.38h-.74v-6h2.41c2.32-.2,2.47,3.49.32,3.55l1.62,2.45h-.88Zm.38-3H596v2.3h1.58A1.15,1.15,0,1,0,597.6,156.05Z"/><path d="M604.44,160.06h-3l-.54,1.33H600l2.41-6h.93l2.42,6H605Zm-2.83-.67h2.6l-1.29-3.34Z"/><rect class="cls-16" x="577.74" y="149.83" width="38.69" height="16.62"/><path d="M647.09,160c1.53,2.15,5.5-.38,1.78-1.32-4.59-.92-.35-5.23,2.16-2.53l-.45.55c-.67-.87-2.9-1.11-3,.24.33,1.48,3.7.68,3.55,2.82.29,1.95-3.57,2.28-4.52.8Z"/><path d="M652,158.39c-.18-2.94,3.89-4.19,5.36-1.91l-.63.35c-5.13-4.1-5.11,7.23,0,3.13l.64.35C655.82,162.59,651.78,161.35,652,158.39Z"/><path d="M658.18,155.39h2.42a1.81,1.81,0,1,1,0,3.62h-1.67v2.38h-.75Zm2.32.66h-1.57v2.29h1.57A1.15,1.15,0,1,0,660.5,156.05Z"/><text class="cls-17" transform="translate(623.66 160.67)">+</text><rect class="cls-16" x="635.15" y="149.83" width="38.69" height="16.62"/><rect class="cls-8" x="741.28" y="180.59" width="90.85" height="22.32"/><path class="cls-10" d="M769.41,189.72l-2,5h-.31l-2-5v5h-.75v-6h1.07l1.87,4.58,1.87-4.58h1.07v6h-.75Z"/><path class="cls-10" d="M776.6,189.72l-2,5h-.31l-2-5v5h-.75v-6h1.07l1.87,4.58,1.87-4.58h1.07v6h-.75Z"/><path class="cls-10" d="M778.66,188.71h3.94v.67h-3.19v1.94h3.12V192h-3.12v2.07h3.19v.67h-3.94Z"/><path class="cls-10" d="M787.73,193.84h-.52v-1.92h-1.73v-.47h1.73v-1.86h.52v1.86h1.72v.47h-1.72Z"/><path class="cls-10" d="M796.34,193.39h-3.05l-.53,1.33h-.82l2.41-6h.93l2.42,6h-.83Zm-2.83-.67h2.6l-1.29-3.34Z"/><path class="cls-10" d="M803.52,189.72l-2,5h-.31l-2-5v5h-.75v-6h1.07l1.86,4.58,1.88-4.58h1.07v6h-.75Z"/><path class="cls-10" d="M805.58,188.71h3.93v.67h-3.18v1.94h3.12V192h-3.12v2.74h-.75Z"/></g></g></svg>