<?xml version="1.0" encoding="utf-8"?>
<!-- Generator: Adobe Illustrator 25.4.1, SVG Export Plug-In . SVG Version: 6.00 Build 0)  -->
<svg version="1.1" id="Layer_1" xmlns="http://www.w3.org/2000/svg" xmlns:xlink="http://www.w3.org/1999/xlink" x="0px" y="0px"
	 viewBox="0 0 618.2 302.4" style="enable-background:new 0 0 618.2 302.4;" xml:space="preserve">
<style type="text/css">
	.st0{fill:#1DB14B;}
	.st1{fill:#1FBF51;}
	.st2{stroke:#231F20;stroke-width:0.25;stroke-miterlimit:10;}
	.st3{fill:none;stroke:#000000;stroke-width:0.75;stroke-linecap:round;stroke-linejoin:round;}
	.st4{fill:none;stroke:#000000;stroke-width:0.75;stroke-miterlimit:10;}
	.st5{fill:#231F20;}
	.st6{fill:#FFFFFF;}
	.st7{fill:none;stroke:#000000;stroke-width:1.18;stroke-linecap:round;stroke-linejoin:round;}
	.st8{stroke:#000000;stroke-width:0.27;stroke-miterlimit:10;}
	.st9{fill:none;stroke:#000000;stroke-linecap:round;stroke-linejoin:round;}
	.st10{fill:none;stroke:#000000;stroke-miterlimit:10;}
	.st11{fill:none;stroke:#000000;stroke-linecap:round;stroke-linejoin:round;stroke-dasharray:0.75,1.75;}
	.st12{fill:none;stroke:#000000;stroke-width:0.79;stroke-miterlimit:10;}
	.st13{fill:none;stroke:#212222;stroke-width:0.79;stroke-linecap:round;stroke-linejoin:round;}
	.st14{fill:none;stroke:#212222;stroke-width:0.79;stroke-miterlimit:10;}
</style>
<g id="Layer_2_00000101094663915894188210000018316794007374144909_">
	<g id="Layer_1-2">
		<path class="st0" d="M161.3,101.3h-54.5c-0.3,0-0.5-0.2-0.5-0.5s0.2-0.5,0.5-0.5h54.5c0.3,0,0.5,0.2,0.5,0.5
			S161.6,101.3,161.3,101.3z"/>
		<path class="st0" d="M161.8,263c-0.3,0-0.5-0.2-0.5-0.5V47.6c0-0.3,0.2-0.5,0.5-0.5h120.5c0.3,0,0.5,0.2,0.5,0.5s-0.2,0.5-0.5,0.5
			h-120v214.4C162.3,262.8,162.1,263,161.8,263z"/>
		<path class="st0" d="M579.3,137.8h-13.4c-0.3,0-0.5-0.2-0.5-0.5V64.7c0-0.3,0.2-0.5,0.5-0.5h13.5c0.3,0,0.5,0.2,0.5,0.5
			c0,0.3-0.2,0.5-0.5,0.5h-13v71.6h12.9c0.3,0,0.5,0.2,0.5,0.5C579.7,137.6,579.5,137.8,579.3,137.8z"/>
		<path class="st0" d="M565.8,101.5h-13.3c-0.3,0-0.5-0.2-0.5-0.5s0.2-0.5,0.5-0.5h13.3c0.3,0,0.5,0.2,0.5,0.5
			S566.1,101.5,565.8,101.5z"/>
		<path class="st0" d="M161.6,185.8h-54.2c-0.3,0-0.5-0.2-0.5-0.5s0.2-0.5,0.5-0.5h54.2c0.3,0,0.5,0.2,0.5,0.5
			S161.8,185.8,161.6,185.8z"/>
		<path class="st0" d="M161.6,263H88.7c-0.3,0-0.5-0.2-0.5-0.5s0.2-0.5,0.5-0.5h72.9c0.3,0,0.5,0.2,0.5,0.5S161.8,263,161.6,263z"/>
		<path class="st0" d="M181.4,263h-21.8c-0.3,0-0.5-0.2-0.5-0.5s0.2-0.5,0.5-0.5h21.8c0.3,0,0.5,0.2,0.5,0.5S181.7,263,181.4,263z"
			/>
		<path d="M291,39.9c-0.3,0-0.5-0.2-0.5-0.5v-1.7c0-0.3,0.2-0.5,0.5-0.5s0.5,0.2,0.5,0.5v1.7C291.5,39.7,291.3,39.9,291,39.9z
			 M291,36.2c-0.3,0-0.5-0.2-0.5-0.5v-2c0-0.3,0.2-0.5,0.5-0.5s0.5,0.2,0.5,0.5v2C291.5,36,291.3,36.2,291,36.2z M291,32.2
			c-0.3,0-0.5-0.2-0.5-0.5v-2c0-0.3,0.2-0.5,0.5-0.5s0.5,0.2,0.5,0.5v2C291.5,32,291.3,32.2,291,32.2z M291,28.2
			c-0.3,0-0.5-0.2-0.5-0.5v-2c0-0.3,0.2-0.5,0.5-0.5s0.5,0.2,0.5,0.5v2C291.5,28,291.3,28.2,291,28.2z M291,24.2
			c-0.1,0-0.3-0.1-0.4-0.2h-1.5c-0.3,0-0.5-0.2-0.5-0.5c0-0.3,0.2-0.5,0.5-0.5h1.8c0.3,0,0.5,0.2,0.5,0.5v0.2
			C291.5,24,291.3,24.2,291,24.2z M287.1,24.1h-2c-0.3,0-0.5-0.2-0.5-0.5c0-0.3,0.2-0.5,0.5-0.5h2c0.3,0,0.5,0.2,0.5,0.5
			C287.7,23.8,287.4,24.1,287.1,24.1C287.1,24.1,287.1,24.1,287.1,24.1L287.1,24.1z M283.1,24.1h-2c-0.3,0-0.5-0.2-0.5-0.5
			c0-0.3,0.2-0.5,0.5-0.5h2c0.3,0,0.5,0.2,0.5,0.5C283.7,23.8,283.4,24.1,283.1,24.1C283.1,24.1,283.1,24.1,283.1,24.1L283.1,24.1z
			 M279.1,24.1h-2c-0.3,0-0.5-0.2-0.5-0.5c0-0.3,0.2-0.5,0.5-0.5h2c0.3,0,0.5,0.2,0.5,0.5C279.7,23.8,279.4,24.1,279.1,24.1
			C279.1,24.1,279.1,24.1,279.1,24.1L279.1,24.1z M275.1,24.1h-2c-0.3,0-0.5-0.2-0.5-0.5c0-0.3,0.2-0.5,0.5-0.5h2
			c0.3,0,0.5,0.2,0.5,0.5C275.7,23.8,275.4,24.1,275.1,24.1C275.1,24.1,275.1,24.1,275.1,24.1L275.1,24.1z M271.1,24.1h-2
			c-0.3,0-0.5-0.2-0.5-0.5c0-0.3,0.2-0.5,0.5-0.5h2c0.3,0,0.5,0.2,0.5,0.5C271.7,23.8,271.4,24.1,271.1,24.1
			C271.1,24.1,271.1,24.1,271.1,24.1L271.1,24.1z M267.1,24.1h-2c-0.3,0-0.5-0.2-0.5-0.5c0-0.3,0.2-0.5,0.5-0.5h2
			c0.3,0,0.5,0.2,0.5,0.5C267.7,23.8,267.4,24.1,267.1,24.1C267.1,24.1,267.1,24.1,267.1,24.1L267.1,24.1z M263.1,24.1h-2
			c-0.3,0-0.5-0.2-0.5-0.5c0-0.3,0.2-0.5,0.5-0.5h2c0.3,0,0.5,0.2,0.5,0.5C263.7,23.8,263.4,24.1,263.1,24.1
			C263.1,24.1,263.1,24.1,263.1,24.1L263.1,24.1z M259.1,24.1h-2c-0.3,0-0.5-0.2-0.5-0.5c0-0.3,0.2-0.5,0.5-0.5h2
			c0.3,0,0.5,0.2,0.5,0.5C259.7,23.8,259.4,24.1,259.1,24.1C259.1,24.1,259.1,24.1,259.1,24.1L259.1,24.1z M255.1,24.1h-2
			c-0.3,0-0.5-0.2-0.5-0.5c0-0.3,0.2-0.5,0.5-0.5h2c0.3,0,0.5,0.2,0.5,0.5C255.7,23.8,255.4,24.1,255.1,24.1
			C255.1,24.1,255.1,24.1,255.1,24.1L255.1,24.1z M251.1,24.1h-2c-0.3,0-0.5-0.2-0.5-0.5c0-0.3,0.2-0.5,0.5-0.5h2
			c0.3,0,0.5,0.2,0.5,0.5C251.7,23.8,251.4,24.1,251.1,24.1C251.1,24.1,251.1,24.1,251.1,24.1L251.1,24.1z M247.1,24.1h-2
			c-0.3,0-0.5-0.2-0.5-0.5c0-0.3,0.2-0.5,0.5-0.5h2c0.3,0,0.5,0.2,0.5,0.5C247.7,23.8,247.4,24.1,247.1,24.1
			C247.1,24.1,247.1,24.1,247.1,24.1L247.1,24.1z M243.1,24.1h-2c-0.3,0-0.5-0.2-0.5-0.5c0-0.3,0.2-0.5,0.5-0.5h2
			c0.3,0,0.5,0.2,0.5,0.5C243.7,23.8,243.4,24.1,243.1,24.1C243.1,24.1,243.1,24.1,243.1,24.1L243.1,24.1z M239.1,24.1h-2
			c-0.3,0-0.5-0.2-0.5-0.5c0-0.3,0.2-0.5,0.5-0.5h2c0.3,0,0.5,0.2,0.5,0.5C239.7,23.8,239.4,24.1,239.1,24.1
			C239.1,24.1,239.1,24.1,239.1,24.1L239.1,24.1z M235.1,24.1h-2c-0.3,0-0.5-0.2-0.5-0.5c0-0.3,0.2-0.5,0.5-0.5h2
			c0.3,0,0.5,0.2,0.5,0.5C235.7,23.8,235.4,24.1,235.1,24.1C235.1,24.1,235.1,24.1,235.1,24.1L235.1,24.1z M231.1,24.1h-2
			c-0.3,0-0.5-0.2-0.5-0.5c0-0.3,0.2-0.5,0.5-0.5h2c0.3,0,0.5,0.2,0.5,0.5C231.7,23.8,231.4,24.1,231.1,24.1
			C231.1,24.1,231.1,24.1,231.1,24.1L231.1,24.1z M227.1,24.1h-2c-0.3,0-0.5-0.2-0.5-0.5c0-0.3,0.2-0.5,0.5-0.5h2
			c0.3,0,0.5,0.2,0.5,0.5C227.7,23.8,227.4,24.1,227.1,24.1C227.1,24.1,227.1,24.1,227.1,24.1L227.1,24.1z M223.1,24.1h-2
			c-0.3,0-0.5-0.2-0.5-0.5c0-0.3,0.2-0.5,0.5-0.5h2c0.3,0,0.5,0.2,0.5,0.5C223.7,23.8,223.4,24.1,223.1,24.1
			C223.1,24.1,223.1,24.1,223.1,24.1L223.1,24.1z M219.1,24.1h-2c-0.3,0-0.5-0.2-0.5-0.5c0-0.3,0.2-0.5,0.5-0.5h2
			c0.3,0,0.5,0.2,0.5,0.5C219.7,23.8,219.4,24.1,219.1,24.1C219.1,24.1,219.1,24.1,219.1,24.1L219.1,24.1z M215.1,24.1h-2
			c-0.3,0-0.5-0.2-0.5-0.5c0-0.3,0.2-0.5,0.5-0.5h2c0.3,0,0.5,0.2,0.5,0.5C215.7,23.8,215.4,24.1,215.1,24.1
			C215.1,24.1,215.1,24.1,215.1,24.1L215.1,24.1z M211.1,24.1h-2c-0.3,0-0.5-0.2-0.5-0.5c0-0.3,0.2-0.5,0.5-0.5h2
			c0.3,0,0.5,0.2,0.5,0.5C211.7,23.8,211.4,24.1,211.1,24.1C211.1,24.1,211.1,24.1,211.1,24.1L211.1,24.1z M207.1,24.1h-2
			c-0.3,0-0.5-0.2-0.5-0.5c0-0.3,0.2-0.5,0.5-0.5h2c0.3,0,0.5,0.2,0.5,0.5C207.7,23.8,207.4,24.1,207.1,24.1
			C207.1,24.1,207.1,24.1,207.1,24.1L207.1,24.1z M203.1,24.1h-2c-0.3,0-0.5-0.2-0.5-0.5c0-0.3,0.2-0.5,0.5-0.5h2
			c0.3,0,0.5,0.2,0.5,0.5C203.7,23.8,203.4,24.1,203.1,24.1C203.1,24.1,203.1,24.1,203.1,24.1L203.1,24.1z M199.1,24.1h-2
			c-0.3,0-0.5-0.2-0.5-0.5c0-0.3,0.2-0.5,0.5-0.5h2c0.3,0,0.5,0.2,0.5,0.5C199.7,23.8,199.4,24.1,199.1,24.1
			C199.1,24.1,199.1,24.1,199.1,24.1L199.1,24.1z M195.1,24.1h-2c-0.3,0-0.5-0.2-0.5-0.5c0-0.3,0.2-0.5,0.5-0.5h2
			c0.3,0,0.5,0.2,0.5,0.5C195.7,23.8,195.4,24.1,195.1,24.1C195.1,24.1,195.1,24.1,195.1,24.1L195.1,24.1z M191.1,24.1h-2
			c-0.3,0-0.5-0.2-0.5-0.5c0-0.3,0.2-0.5,0.5-0.5h2c0.3,0,0.5,0.2,0.5,0.5C191.7,23.8,191.4,24.1,191.1,24.1
			C191.1,24.1,191.1,24.1,191.1,24.1L191.1,24.1z M187.1,24.1h-2c-0.3,0-0.5-0.2-0.5-0.5c0-0.3,0.2-0.5,0.5-0.5h2
			c0.3,0,0.5,0.2,0.5,0.5C187.7,23.8,187.4,24.1,187.1,24.1C187.1,24.1,187.1,24.1,187.1,24.1L187.1,24.1z M183.1,24.1h-2
			c-0.3,0-0.5-0.2-0.5-0.5c0-0.3,0.2-0.5,0.5-0.5h2c0.3,0,0.5,0.2,0.5,0.5C183.7,23.8,183.4,24.1,183.1,24.1
			C183.1,24.1,183.1,24.1,183.1,24.1L183.1,24.1z M179.1,24.1h-2c-0.3,0-0.5-0.2-0.5-0.5c0-0.3,0.2-0.5,0.5-0.5h2
			c0.3,0,0.5,0.2,0.5,0.5C179.7,23.8,179.4,24.1,179.1,24.1C179.1,24.1,179.1,24.1,179.1,24.1L179.1,24.1z M175.1,24.1h-2
			c-0.3,0-0.5-0.2-0.5-0.5c0-0.3,0.2-0.5,0.5-0.5h2c0.3,0,0.5,0.2,0.5,0.5C175.7,23.8,175.4,24.1,175.1,24.1
			C175.1,24.1,175.1,24.1,175.1,24.1L175.1,24.1z M171.1,24.1h-2c-0.3,0-0.5-0.2-0.5-0.5c0-0.3,0.2-0.5,0.5-0.5h2
			c0.3,0,0.5,0.2,0.5,0.5C171.7,23.8,171.4,24.1,171.1,24.1C171.1,24.1,171.1,24.1,171.1,24.1L171.1,24.1z M167.1,24.1h-2
			c-0.3,0-0.5-0.2-0.5-0.5c0-0.3,0.2-0.5,0.5-0.5h2c0.3,0,0.5,0.2,0.5,0.5C167.7,23.8,167.4,24.1,167.1,24.1
			C167.1,24.1,167.1,24.1,167.1,24.1L167.1,24.1z M163.1,24.1h-2c-0.3,0-0.5-0.2-0.5-0.5c0-0.3,0.2-0.5,0.5-0.5h2
			c0.3,0,0.5,0.2,0.5,0.5C163.7,23.8,163.4,24.1,163.1,24.1C163.1,24.1,163.1,24.1,163.1,24.1L163.1,24.1z M159.1,24.1h-2
			c-0.3,0-0.5-0.2-0.5-0.5c0-0.3,0.2-0.5,0.5-0.5h2c0.3,0,0.5,0.2,0.5,0.5C159.7,23.8,159.4,24.1,159.1,24.1
			C159.1,24.1,159.1,24.1,159.1,24.1L159.1,24.1z M155.1,24.1h-2c-0.3,0-0.5-0.2-0.5-0.5c0-0.3,0.2-0.5,0.5-0.5h2
			c0.3,0,0.5,0.2,0.5,0.5C155.7,23.8,155.4,24.1,155.1,24.1C155.1,24.1,155.1,24.1,155.1,24.1L155.1,24.1z M151.1,24.1h-2
			c-0.3,0-0.5-0.2-0.5-0.5c0-0.3,0.2-0.5,0.5-0.5h2c0.3,0,0.5,0.2,0.5,0.5C151.7,23.8,151.4,24.1,151.1,24.1
			C151.1,24.1,151.1,24.1,151.1,24.1L151.1,24.1z M147.1,24.1h-2c-0.3,0-0.5-0.2-0.5-0.5c0-0.3,0.2-0.5,0.5-0.5h2
			c0.3,0,0.5,0.2,0.5,0.5C147.7,23.8,147.4,24.1,147.1,24.1C147.1,24.1,147.1,24.1,147.1,24.1L147.1,24.1z M143.1,24.1h-2
			c-0.3,0-0.5-0.2-0.5-0.5c0-0.3,0.2-0.5,0.5-0.5h2c0.3,0,0.5,0.2,0.5,0.5C143.7,23.8,143.4,24.1,143.1,24.1
			C143.1,24.1,143.1,24.1,143.1,24.1L143.1,24.1z M139.1,24.1h-2c-0.3,0-0.5-0.2-0.5-0.5c0-0.3,0.2-0.5,0.5-0.5h2
			c0.3,0,0.5,0.2,0.5,0.5C139.7,23.8,139.4,24.1,139.1,24.1C139.1,24.1,139.1,24.1,139.1,24.1L139.1,24.1z M135.1,24.1h-2
			c-0.3,0-0.5-0.2-0.5-0.5c0-0.3,0.2-0.5,0.5-0.5h2c0.3,0,0.5,0.2,0.5,0.5C135.7,23.8,135.4,24.1,135.1,24.1
			C135.1,24.1,135.1,24.1,135.1,24.1L135.1,24.1z M131.1,24.1h-2c-0.3,0-0.5-0.2-0.5-0.5c0-0.3,0.2-0.5,0.5-0.5h2
			c0.3,0,0.5,0.2,0.5,0.5C131.7,23.8,131.4,24.1,131.1,24.1C131.1,24.1,131.1,24.1,131.1,24.1L131.1,24.1z M127.1,24.1h-2
			c-0.3,0-0.5-0.2-0.5-0.5c0-0.3,0.2-0.5,0.5-0.5h2c0.3,0,0.5,0.2,0.5,0.5C127.7,23.8,127.4,24.1,127.1,24.1
			C127.1,24.1,127.1,24.1,127.1,24.1L127.1,24.1z M123.1,24.1h-2c-0.3,0-0.5-0.2-0.5-0.5c0-0.3,0.2-0.5,0.5-0.5h2
			c0.3,0,0.5,0.2,0.5,0.5C123.7,23.8,123.4,24.1,123.1,24.1C123.1,24.1,123.1,24.1,123.1,24.1L123.1,24.1z M119.1,24.1h-2
			c-0.3,0-0.5-0.2-0.5-0.5c0-0.3,0.2-0.5,0.5-0.5h2c0.3,0,0.5,0.2,0.5,0.5C119.7,23.8,119.4,24.1,119.1,24.1
			C119.1,24.1,119.1,24.1,119.1,24.1L119.1,24.1z M115.1,24.1h-2c-0.3,0-0.5-0.2-0.5-0.5c0-0.3,0.2-0.5,0.5-0.5h2
			c0.3,0,0.5,0.2,0.5,0.5C115.7,23.8,115.4,24.1,115.1,24.1C115.1,24.1,115.1,24.1,115.1,24.1L115.1,24.1z M111.1,24.1h-2
			c-0.3,0-0.5-0.2-0.5-0.5c0-0.3,0.2-0.5,0.5-0.5h2c0.3,0,0.5,0.2,0.5,0.5C111.7,23.8,111.4,24.1,111.1,24.1
			C111.1,24.1,111.1,24.1,111.1,24.1L111.1,24.1z M107.1,24.1h-2c-0.3,0-0.5-0.2-0.5-0.5c0-0.3,0.2-0.5,0.5-0.5h2
			c0.3,0,0.5,0.2,0.5,0.5C107.7,23.8,107.4,24.1,107.1,24.1C107.1,24.1,107.1,24.1,107.1,24.1L107.1,24.1z"/>
		<path d="M1,286.5h0.8v4c-0.1,1,0.6,1.9,1.5,2c0.1,0,0.2,0,0.4,0c1,0.1,1.8-0.7,1.9-1.6c0-0.1,0-0.2,0-0.4v-4h0.8v4.1
			c0.1,1.4-0.8,2.6-2.2,2.7c-0.2,0-0.4,0-0.5,0c-1.4,0.1-2.6-0.8-2.7-2.2c0-0.2,0-0.3,0-0.5V286.5z"/>
		<path d="M11.2,293.1V290c0-0.9-0.4-1.1-1.1-1.1c-0.6,0-1.1,0.3-1.4,0.8v3.5H7.9v-4.8h0.8v0.7c0.4-0.5,1.1-0.8,1.7-0.8
			c0.7-0.1,1.4,0.4,1.5,1.2c0,0.1,0,0.3,0,0.4v3.4L11.2,293.1z"/>
		<path d="M16.7,293.1L15,291l-0.8,0.8v1.4h-0.7v-6.7h0.7v4.4l2.5-2.6h1l-2.1,2.2l2.2,2.6L16.7,293.1z"/>
		<path d="M21.8,293.1V290c0-0.9-0.4-1.1-1.1-1.1c-0.6,0-1.1,0.3-1.4,0.8v3.5h-0.7v-4.8h0.7v0.7c0.4-0.5,1.1-0.8,1.7-0.8
			c0.7-0.1,1.4,0.4,1.5,1.2c0,0.1,0,0.3,0,0.4v3.4L21.8,293.1z"/>
		<path d="M23.8,290.7c0.1-1.3,1.2-2.3,2.5-2.2c1.3,0.1,2.3,1.2,2.2,2.5c-0.1,1.3-1.1,2.2-2.4,2.2c-1.3,0-2.4-1-2.4-2.3
			C23.8,290.9,23.8,290.8,23.8,290.7z M27.8,290.7c-0.1-0.9-1-1.5-1.9-1.4c-0.9,0.1-1.5,1-1.4,1.9c0.1,0.8,0.8,1.4,1.6,1.4
			c0.9,0,1.6-0.8,1.6-1.8C27.8,290.8,27.8,290.8,27.8,290.7L27.8,290.7z"/>
		<path d="M34,293.1l-1.3-3.9l-1.3,3.9h-0.8l-1.5-4.8h0.8l1.2,3.8l1.3-3.8H33l1.3,3.8l1.2-3.8h0.8l-1.5,4.8H34z"/>
		<path d="M40.4,293.1V290c0-0.9-0.4-1.1-1.1-1.1c-0.6,0-1.1,0.3-1.4,0.8v3.5h-0.8v-4.8h0.8v0.7c0.4-0.5,1.1-0.8,1.7-0.8
			c0.7-0.1,1.4,0.4,1.5,1.2c0,0.1,0,0.3,0,0.4v3.4L40.4,293.1z"/>
		<path d="M45.2,286.5h0.8v4c0,1,0.8,1.9,1.9,1.9c1,0,1.9-0.8,1.9-1.9c0,0,0,0,0,0v-4h0.8v4.1c0.1,1.4-0.8,2.6-2.2,2.7
			c-0.2,0-0.3,0-0.5,0c-1.4,0.1-2.6-0.8-2.7-2.2c0-0.2,0-0.3,0-0.5L45.2,286.5z"/>
		<path d="M52.2,292c0.4,0.4,1,0.7,1.6,0.7c0.7,0,1.1-0.3,1.1-0.8s-0.6-0.7-1.2-0.9c-0.8-0.2-1.8-0.4-1.8-1.4c0-0.8,0.7-1.4,1.8-1.4
			c0.7,0,1.3,0.2,1.8,0.7l-0.3,0.5c-0.4-0.4-0.9-0.6-1.4-0.6c-0.7,0-1.1,0.3-1.1,0.7s0.5,0.6,1.2,0.8c0.8,0.2,1.8,0.4,1.8,1.5
			c0,0.8-0.7,1.5-1.9,1.5c-0.7,0-1.5-0.2-2-0.8L52.2,292z"/>
		<path d="M59,288.2c1.3,0,2.3,1.1,2.3,2.3c0,0.1,0,0.2,0,0.2v0.2h-3.9c0,0.9,0.8,1.7,1.7,1.7c0,0,0,0,0,0c0.6,0,1.1-0.2,1.5-0.6
			l0.4,0.5c-0.5,0.5-1.2,0.8-1.9,0.7c-1.4,0-2.5-1.1-2.6-2.5S57.6,288.3,59,288.2L59,288.2z M57.4,290.4h3.2c0-0.9-0.7-1.6-1.5-1.6
			c0,0,0,0-0.1,0C58.1,288.8,57.4,289.5,57.4,290.4C57.4,290.4,57.4,290.4,57.4,290.4L57.4,290.4z"/>
		<path d="M62.5,293.1v-4.8h0.8v0.8c0.4-0.5,1-0.8,1.6-0.9v0.8c-0.1,0-0.2,0-0.3,0c-0.5,0-1,0.3-1.3,0.8v3.4L62.5,293.1z"/>
		<path d="M1,208.5h0.8v4.1c-0.1,1,0.6,1.9,1.5,2c0.1,0,0.2,0,0.4,0c1,0.1,1.8-0.7,1.9-1.6c0-0.1,0-0.2,0-0.4v-4.1h0.8v4.1
			c0.1,1.4-0.8,2.6-2.2,2.7c-0.2,0-0.4,0-0.5,0c-1.4,0.1-2.6-0.8-2.7-2.2c0-0.2,0-0.3,0-0.5V208.5z"/>
		<path d="M11.2,215.2V212c0-0.9-0.4-1.1-1.1-1.1c-0.6,0-1.1,0.3-1.4,0.8v3.5H8v-4.8h0.8v0.7c0.4-0.5,1.1-0.8,1.7-0.8
			c0.8-0.1,1.4,0.4,1.5,1.2c0,0.1,0,0.3,0,0.4v3.4H11.2z"/>
		<path d="M16.8,215.2L15,213l-0.8,0.8v1.4h-0.8v-6.7h0.8v4.4l2.5-2.6h1l-2.1,2.2l2.2,2.6H16.8z"/>
		<path d="M21.9,215.2V212c0-0.9-0.4-1.1-1.1-1.1c-0.6,0-1.1,0.3-1.4,0.8v3.5h-0.8v-4.8h0.8v0.7c0.4-0.5,1.1-0.8,1.7-0.8
			c0.7-0.1,1.4,0.4,1.5,1.2c0,0.1,0,0.3,0,0.4v3.4L21.9,215.2z"/>
		<path d="M23.8,212.8c0.1-1.3,1.2-2.3,2.5-2.2s2.3,1.2,2.2,2.5c-0.1,1.3-1.1,2.2-2.4,2.2c-1.3,0-2.4-1-2.4-2.3
			C23.8,212.9,23.8,212.8,23.8,212.8z M27.8,212.8c-0.1-0.9-1-1.5-1.9-1.4c-0.9,0.1-1.5,1-1.4,1.9c0.1,0.8,0.8,1.4,1.6,1.4
			c0.9,0,1.6-0.8,1.6-1.8C27.8,212.8,27.8,212.8,27.8,212.8L27.8,212.8z"/>
		<path d="M34,215.2l-1.3-3.9l-1.3,3.9h-0.8l-1.5-4.8H30l1.2,3.9l1.3-3.9h0.6l1.3,3.9l1.2-3.9h0.8l-1.5,4.8H34z"/>
		<path d="M40.4,215.2V212c0-0.9-0.4-1.1-1.1-1.1c-0.6,0-1.1,0.3-1.4,0.8v3.5h-0.8v-4.8h0.8v0.7c0.4-0.5,1.1-0.8,1.7-0.8
			c0.7-0.1,1.4,0.4,1.5,1.2c0,0.1,0,0.3,0,0.4v3.4L40.4,215.2z"/>
		<path d="M45.3,208.5h0.8v4.1c-0.1,1,0.7,1.9,1.7,2c1,0.1,1.9-0.7,2-1.7c0-0.1,0-0.2,0-0.3v-4.1h0.8v4.1c0.1,1.4-0.8,2.6-2.2,2.7
			c-0.2,0-0.4,0-0.5,0c-1.4,0.1-2.6-0.8-2.7-2.2c0-0.2,0-0.3,0-0.5L45.3,208.5z"/>
		<path d="M52.2,214c0.4,0.4,1,0.7,1.6,0.7c0.7,0,1.1-0.3,1.1-0.8s-0.6-0.7-1.2-0.9c-0.8-0.2-1.8-0.4-1.8-1.4c0-0.8,0.7-1.4,1.8-1.4
			c0.7,0,1.3,0.2,1.8,0.7l-0.3,0.5c-0.4-0.4-0.9-0.6-1.4-0.6c-0.7,0-1.1,0.3-1.1,0.7s0.5,0.6,1.2,0.8c0.8,0.2,1.8,0.4,1.8,1.5
			c0,0.8-0.7,1.5-1.9,1.5c-0.7,0-1.4-0.2-2-0.8L52.2,214z"/>
		<path d="M59,210.2c1.3,0,2.3,1.1,2.3,2.4c0,0.1,0,0.1,0,0.2v0.2h-3.9c0,0.9,0.8,1.7,1.7,1.7c0,0,0,0,0,0c0.6,0,1.1-0.2,1.5-0.6
			l0.4,0.5c-0.5,0.5-1.2,0.8-1.9,0.7c-1.4-0.1-2.5-1.3-2.4-2.7C56.7,211.4,57.7,210.3,59,210.2L59,210.2z M57.4,212.4h3.2
			c0-0.9-0.7-1.6-1.5-1.6c0,0,0,0-0.1,0C58.1,210.9,57.4,211.6,57.4,212.4L57.4,212.4z"/>
		<path d="M62.5,215.2v-4.8h0.8v0.8c0.4-0.5,1-0.9,1.6-0.9v0.8c-0.1,0-0.2,0-0.3,0c-0.5,0-1,0.3-1.3,0.8v3.4L62.5,215.2z"/>
		<path d="M0,126.3h0.8v4.1c-0.1,1,0.6,1.9,1.5,2c0.1,0,0.2,0,0.4,0c1,0.1,1.8-0.7,1.9-1.6c0-0.1,0-0.2,0-0.4v-4.1h0.8v4.1
			c0.1,1.4-0.8,2.6-2.2,2.7c-0.2,0-0.4,0-0.5,0c-1.4,0.1-2.6-0.8-2.7-2.2c0-0.2,0-0.3,0-0.5V126.3z"/>
		<path d="M10.2,133v-3.2c0-0.9-0.4-1.1-1.1-1.1c-0.6,0-1.1,0.3-1.4,0.8v3.5H7v-4.8h0.8v0.7c0.4-0.5,1-0.8,1.7-0.9
			c0.7-0.1,1.4,0.4,1.6,1.1c0,0.1,0,0.3,0,0.4v3.4H10.2z"/>
		<path d="M15.8,133l-1.8-2.2l-0.8,0.8v1.4h-0.8v-6.7h0.8v4.4l2.5-2.6h1l-2.1,2.2l2.2,2.6H15.8z"/>
		<path d="M20.9,133v-3.2c0-0.9-0.4-1.1-1.1-1.1c-0.6,0-1.1,0.3-1.4,0.8v3.5h-0.8v-4.8h0.8v0.7c0.4-0.5,1.1-0.8,1.7-0.8
			c0.7-0.1,1.4,0.4,1.5,1.2c0,0.1,0,0.3,0,0.4v3.4H20.9z"/>
		<path d="M22.9,130.6c0.1-1.3,1.2-2.3,2.5-2.2s2.3,1.2,2.2,2.5c-0.1,1.3-1.1,2.2-2.4,2.2c-1.3,0-2.4-1-2.4-2.3
			C22.8,130.7,22.8,130.6,22.9,130.6z M26.9,130.6c-0.1-0.9-1-1.5-1.9-1.4c-0.9,0.1-1.5,1-1.4,1.9c0.1,0.8,0.8,1.4,1.6,1.4
			c0.9,0,1.6-0.8,1.6-1.8C26.8,130.6,26.8,130.6,26.9,130.6L26.9,130.6z"/>
		<path d="M33,133l-1.3-3.9l-1.2,3.9h-0.8l-1.5-4.8H29l1.2,3.8l1.3-3.9h0.6l1.3,3.9l1.2-3.9h0.8l-1.5,4.9H33z"/>
		<path d="M39.5,133v-3.2c0-0.9-0.4-1.1-1.1-1.1c-0.6,0-1.1,0.3-1.4,0.8v3.5h-0.8v-4.8h0.8v0.7c0.4-0.5,1.1-0.8,1.7-0.8
			c0.7-0.1,1.4,0.4,1.5,1.2c0,0.1,0,0.3,0,0.4v3.4H39.5z"/>
		<path d="M44.3,126.3h0.8v4.1c0,1,0.8,1.9,1.9,1.9c1,0,1.9-0.8,1.9-1.9c0,0,0,0,0,0v-4.1h0.8v4.1c0.1,1.4-0.8,2.6-2.2,2.7
			c-0.2,0-0.4,0-0.6,0c-1.4,0.1-2.6-0.8-2.7-2.2c0-0.2,0-0.3,0-0.5L44.3,126.3z"/>
		<path d="M51.2,131.8c0.4,0.4,1,0.7,1.6,0.7c0.7,0,1.1-0.3,1.1-0.8s-0.6-0.7-1.2-0.9c-0.8-0.2-1.8-0.4-1.8-1.4
			c0-0.8,0.7-1.4,1.8-1.4c0.7,0,1.3,0.2,1.8,0.7l-0.3,0.5c-0.4-0.4-0.9-0.6-1.4-0.6c-0.7,0-1.1,0.3-1.1,0.7s0.5,0.6,1.2,0.8
			c0.8,0.2,1.8,0.4,1.8,1.5c0,0.8-0.7,1.5-1.9,1.5c-0.7,0-1.5-0.2-2-0.8L51.2,131.8z"/>
		<path d="M58,128c1.3,0,2.3,1.1,2.3,2.4c0,0.1,0,0.1,0,0.2v0.2h-3.9c0,0.9,0.8,1.7,1.7,1.7c0,0,0,0,0,0c0.6,0,1.1-0.2,1.5-0.6
			l0.4,0.5c-0.5,0.5-1.2,0.8-1.9,0.7c-1.4-0.1-2.5-1.2-2.4-2.6C55.7,129.2,56.7,128.1,58,128z M56.4,130.2h3.2
			c0-0.9-0.7-1.6-1.6-1.6c0,0,0,0,0,0C57.1,128.7,56.4,129.4,56.4,130.2L56.4,130.2z"/>
		<path d="M61.6,133v-4.8h0.8v0.8c0.4-0.5,1-0.9,1.6-0.9v0.8c-0.1,0-0.2,0-0.3,0c-0.5,0-1,0.3-1.3,0.8v3.4H61.6z"/>
		<path d="M24.1,48.1l-0.6-1.5h-3.4l-0.6,1.5h-0.9l2.7-6.7h1l2.7,6.7H24.1z M21.8,42.1l-1.5,3.7h2.9L21.8,42.1z"/>
		<path d="M29.4,48.1v-0.7c-0.4,0.5-1,0.8-1.6,0.8c-1.2,0-2.1-1-2.1-2.5s0.9-2.5,2.1-2.5c0.6,0,1.3,0.3,1.6,0.8v-2.6h0.8v6.7
			L29.4,48.1z M29.4,44.6c-0.3-0.5-0.9-0.8-1.5-0.8c-1,0-1.5,0.8-1.5,1.9s0.6,1.9,1.5,1.9c0.6,0,1.1-0.3,1.5-0.8V44.6z"/>
		<path d="M37.4,48.1v-3.3c0-0.6-0.3-1-0.9-1c-0.5,0-1,0.3-1.3,0.7v3.5h-0.8v-3.3c0-0.6-0.3-1-0.9-1c-0.5,0-1,0.3-1.3,0.8v3.5h-0.7
			v-4.8h0.7v0.7c0.4-0.5,0.9-0.8,1.6-0.8c0.6-0.1,1.1,0.3,1.3,0.9c0.4-0.5,1-0.9,1.6-0.9c0.9,0,1.3,0.5,1.3,1.5v3.5H37.4z"/>
		<path d="M39.6,41.9c0-0.3,0.2-0.5,0.5-0.5s0.5,0.2,0.5,0.5c0,0.3-0.2,0.5-0.5,0.5c0,0,0,0,0,0C39.8,42.4,39.6,42.2,39.6,41.9z
			 M39.7,48.1v-4.8h0.8v4.8L39.7,48.1z"/>
		<path d="M45.2,48.1v-3.2c0-0.8-0.4-1.1-1.1-1.1c-0.6,0-1.1,0.3-1.4,0.8v3.5h-0.8v-4.8h0.8v0.7c0.4-0.5,1.1-0.8,1.7-0.8
			c0.7-0.1,1.4,0.4,1.5,1.2c0,0.1,0,0.3,0,0.4v3.4H45.2z"/>
		<path d="M66.5,48.1l-0.6-1.5h-3.4l-0.6,1.5H61l2.7-6.7h1l2.7,6.7L66.5,48.1z M64.2,42.1l-1.5,3.7h2.9L64.2,42.1z"/>
		<path d="M69.3,48.1v-5.9h-2.1v-0.7h5v0.7h-2.1v5.9H69.3z"/>
		<path d="M73.3,48.1v-6.7h0.8v6.7L73.3,48.1z"/>
		<path d="M78.3,48.1v-6.7h2.3c1.8-0.1,3.4,1.3,3.5,3.2c0.1,1.8-1.3,3.4-3.2,3.5c-0.1,0-0.2,0-0.4,0L78.3,48.1z M79.1,47.3h1.4
			c1.4-0.1,2.5-1.3,2.4-2.8c-0.1-1.3-1.1-2.4-2.4-2.4h-1.4V47.3z"/>
		<path d="M88.3,48.1v-0.5c-0.4,0.4-1,0.7-1.6,0.7c-0.9,0-1.6-0.7-1.7-1.5c0,0,0,0,0-0.1c0-0.9,0.7-1.6,1.6-1.6c0,0,0.1,0,0.1,0
			c0.6,0,1.2,0.2,1.6,0.7v-0.9c0-0.7-0.5-1-1.2-1c-0.6,0-1.1,0.2-1.5,0.7l-0.3-0.5c0.5-0.5,1.2-0.8,1.9-0.8c1,0,1.9,0.5,1.9,1.6v3.3
			L88.3,48.1z M88.3,46.1c-0.3-0.4-0.8-0.6-1.3-0.6c-0.6-0.1-1.1,0.4-1.2,1s0.4,1.1,1,1.2c0.1,0,0.1,0,0.2,0c0.5,0,1-0.2,1.3-0.6
			V46.1z"/>
		<path d="M90.5,46.9c0.4,0.4,1,0.7,1.6,0.7c0.7,0,1.1-0.3,1.1-0.8s-0.6-0.7-1.2-0.9c-0.8-0.2-1.8-0.4-1.8-1.4
			c0-0.8,0.7-1.4,1.8-1.4c0.7,0,1.3,0.2,1.8,0.7l-0.3,0.5c-0.4-0.4-0.9-0.6-1.5-0.6c-0.7,0-1.1,0.3-1.1,0.7s0.6,0.6,1.2,0.8
			c0.8,0.2,1.8,0.4,1.8,1.5c0,0.8-0.6,1.5-1.9,1.5c-0.7,0-1.5-0.2-2-0.8L90.5,46.9z"/>
		<path d="M98.4,48.1v-3.2c0-0.8-0.4-1.1-1.1-1.1c-0.6,0-1.1,0.3-1.4,0.8v3.5h-0.8v-6.7h0.8v2.5c0.4-0.5,1.1-0.8,1.7-0.8
			c0.7-0.1,1.4,0.4,1.5,1.2c0,0.1,0,0.3,0,0.4v3.4H98.4z"/>
		<path d="M100.7,48.1v-6.7h0.8V44c0.4-0.5,1-0.8,1.6-0.8c1.2,0,2.2,1.1,2.2,2.3c0,0.1,0,0.1,0,0.2c0,1.6-0.9,2.5-2.2,2.5
			c-0.6,0-1.2-0.3-1.6-0.8v0.7L100.7,48.1z M101.4,46.8c0.3,0.5,0.9,0.8,1.4,0.8c1,0,1.6-0.8,1.6-1.9s-0.6-1.9-1.6-1.9
			c-0.6,0-1.1,0.3-1.4,0.8V46.8z"/>
		<path d="M106.2,45.6c0.1-1.3,1.2-2.3,2.5-2.2c1.3,0.1,2.3,1.2,2.2,2.5c-0.1,1.3-1.1,2.2-2.4,2.2c-1.3,0-2.4-1-2.4-2.3
			C106.2,45.8,106.2,45.7,106.2,45.6z M110.2,45.6c-0.1-0.9-1-1.5-1.9-1.4c-0.9,0.1-1.5,1-1.4,1.9c0.1,0.8,0.8,1.4,1.6,1.4
			C109.5,47.5,110.2,46.7,110.2,45.6C110.2,45.7,110.2,45.7,110.2,45.6L110.2,45.6z"/>
		<path d="M115.2,48.1v-0.5c-0.4,0.4-1,0.7-1.6,0.7c-0.9,0-1.6-0.6-1.7-1.5c0,0,0,0,0-0.1c0-0.9,0.7-1.6,1.6-1.6c0,0,0.1,0,0.1,0
			c0.6,0,1.2,0.2,1.6,0.7v-0.9c0-0.7-0.5-1-1.2-1c-0.6,0-1.1,0.2-1.5,0.7l-0.3-0.5c0.5-0.5,1.2-0.8,1.9-0.8c1,0,1.9,0.5,1.9,1.6v3.3
			L115.2,48.1z M115.2,46.1c-0.3-0.4-0.8-0.6-1.3-0.6c-0.6-0.1-1.1,0.4-1.2,1s0.4,1.1,1,1.2c0.1,0,0.1,0,0.2,0c0.5,0,1-0.2,1.3-0.6
			V46.1z"/>
		<path d="M117.4,48.1v-4.8h0.8V44c0.4-0.5,1-0.9,1.6-0.9v0.8c-0.1,0-0.2,0-0.3,0c-0.5,0-1,0.3-1.3,0.8v3.4L117.4,48.1z"/>
		<path d="M124.2,48.1v-0.7c-0.4,0.5-1,0.8-1.6,0.8c-1.2,0-2.1-1-2.1-2.5s0.9-2.5,2.1-2.5c0.6,0,1.3,0.3,1.6,0.8v-2.6h0.8v6.7
			L124.2,48.1z M124.2,44.6c-0.3-0.5-0.9-0.8-1.4-0.8c-1,0-1.6,0.8-1.6,1.9s0.6,1.9,1.6,1.9c0.6,0,1.1-0.3,1.4-0.8V44.6z"/>
		<path d="M276.1,115c-0.1-1.8,1.4-3.4,3.2-3.4c0.1,0,0.1,0,0.2,0c1,0,2,0.5,2.6,1.3l-0.7,0.4c-0.4-0.6-1.1-1-1.9-1
			c-1.5,0.1-2.6,1.4-2.5,2.9c0.1,1.3,1.2,2.4,2.5,2.5c0.7,0,1.4-0.4,1.9-1l0.7,0.4c-0.6,0.9-1.5,1.3-2.6,1.3c-1.8,0-3.4-1.4-3.4-3.3
			C276.1,115.1,276.1,115,276.1,115z"/>
		<path d="M282.8,116c0.1-1.3,1.2-2.3,2.5-2.2c1.3,0.1,2.3,1.2,2.2,2.5c-0.1,1.3-1.1,2.2-2.4,2.2c-1.3,0-2.4-1-2.4-2.3
			C282.8,116.1,282.8,116.1,282.8,116z M286.8,116c-0.1-0.9-1-1.5-1.9-1.4c-0.9,0.1-1.5,1-1.4,1.9c0.1,0.8,0.8,1.4,1.6,1.4
			c0.9,0,1.6-0.8,1.6-1.8C286.8,116.1,286.8,116,286.8,116L286.8,116z"/>
		<path d="M288.8,118.4v-6.7h0.8v6.7L288.8,118.4z"/>
		<path d="M291,118.4v-6.7h0.8v6.7L291,118.4z"/>
		<path d="M295.4,113.4c1.3,0,2.3,1.1,2.3,2.4c0,0.1,0,0.1,0,0.2v0.2h-3.9c0,0.9,0.8,1.7,1.7,1.7c0,0,0,0,0,0c0.6,0,1.1-0.2,1.5-0.6
			l0.4,0.5c-0.5,0.5-1.2,0.8-1.9,0.7c-1.4-0.1-2.5-1.3-2.4-2.7C293.1,114.6,294.1,113.5,295.4,113.4L295.4,113.4z M293.8,115.7h3.2
			c0-0.9-0.7-1.6-1.5-1.6c0,0,0,0-0.1,0C294.5,114,293.8,114.8,293.8,115.7z"/>
		<path d="M301.1,113.4c0.7,0,1.4,0.3,1.8,0.8l-0.5,0.5c-0.3-0.4-0.7-0.6-1.2-0.6c-1,0.1-1.8,1.1-1.6,2.1c0.1,0.9,0.8,1.5,1.6,1.6
			c0.5,0,1-0.2,1.2-0.6l0.5,0.5c-0.4,0.6-1.1,0.9-1.8,0.8c-1.4-0.1-2.5-1.3-2.4-2.7C298.8,114.5,299.8,113.5,301.1,113.4z"/>
		<path d="M304,117.4v-3.2h-0.8v-0.7h0.8v-1.3h0.8v1.3h1v0.7h-1v3c0,0.4,0.2,0.6,0.5,0.6c0.2,0,0.4-0.1,0.5-0.2l0.2,0.6
			c-0.2,0.2-0.6,0.3-0.9,0.3c-0.6,0-1-0.4-1.1-0.9C304,117.5,304,117.4,304,117.4z"/>
		<path d="M192.1,74c0.5,0.6,1.3,0.9,2.1,0.9c1.2,0,1.6-0.6,1.6-1.2c0-0.8-0.8-1-1.7-1.3c-1.1-0.3-2.3-0.6-2.3-1.9
			c0-1.1,1-1.8,2.3-1.8c0.9,0,1.7,0.3,2.4,0.9l-0.5,0.6c-0.5-0.5-1.2-0.8-1.9-0.8c-0.8,0-1.4,0.4-1.4,1.1s0.8,0.9,1.6,1.1
			c1.1,0.3,2.3,0.6,2.3,2c0,1-0.7,2-2.5,2c-1,0-1.9-0.3-2.6-1.1L192.1,74z"/>
		<path d="M200,70.7c1.3,0,2.3,1.1,2.3,2.4c0,0.1,0,0.1,0,0.2v0.2h-3.9c0,0.9,0.8,1.7,1.7,1.7c0,0,0,0,0,0c0.6,0,1.1-0.2,1.5-0.6
			L202,75c-0.5,0.5-1.2,0.8-1.9,0.7c-1.4-0.1-2.5-1.3-2.4-2.7C197.7,71.8,198.7,70.8,200,70.7L200,70.7z M198.4,72.9h3.2
			c0-0.9-0.7-1.6-1.5-1.6c0,0,0,0-0.1,0C199.1,71.3,198.4,72,198.4,72.9C198.4,72.9,198.4,72.9,198.4,72.9L198.4,72.9z"/>
		<path d="M206.8,75.6v-3.2c0-0.8-0.4-1.1-1.1-1.1c-0.6,0-1.1,0.3-1.4,0.8v3.5h-0.8v-4.8h0.8v0.7c0.4-0.5,1.1-0.8,1.7-0.8
			c0.7-0.1,1.4,0.4,1.5,1.2c0,0.1,0,0.3,0,0.4v3.4L206.8,75.6z"/>
		<path d="M209,74.4c0.4,0.4,1,0.7,1.6,0.7c0.7,0,1.1-0.3,1.1-0.8s-0.6-0.7-1.2-0.9c-0.8-0.2-1.8-0.4-1.8-1.4c0-0.8,0.6-1.4,1.8-1.4
			c0.7,0,1.3,0.2,1.8,0.7l-0.4,0.5c-0.4-0.4-0.9-0.6-1.4-0.6c-0.7,0-1.1,0.3-1.1,0.7s0.6,0.6,1.2,0.8c0.8,0.2,1.8,0.4,1.8,1.5
			c0,0.8-0.6,1.5-1.9,1.5c-0.7,0-1.4-0.2-1.9-0.8L209,74.4z"/>
		<path d="M213.4,73.2c0.1-1.3,1.2-2.3,2.5-2.2s2.3,1.2,2.2,2.5c-0.1,1.3-1.1,2.2-2.4,2.2c-1.3,0-2.4-1-2.4-2.3
			C213.4,73.3,213.4,73.3,213.4,73.2z M217.4,73.2c-0.1-0.9-1-1.5-1.9-1.4c-0.9,0.1-1.5,1-1.4,1.9c0.1,0.8,0.8,1.4,1.6,1.4
			c0.9,0,1.6-0.8,1.6-1.8C217.4,73.3,217.4,73.2,217.4,73.2L217.4,73.2z"/>
		<path d="M219.4,75.6v-4.8h0.8v0.8c0.4-0.5,1-0.9,1.6-0.9v0.8c-0.1,0-0.2,0-0.3,0c-0.5,0-1,0.3-1.3,0.8v3.4L219.4,75.6z"/>
		<path d="M187.6,87.6v-5.9h-2.1v-0.7h5.1v0.7h-2.1v5.9H187.6z"/>
		<path d="M192.5,82.7c1.3,0,2.3,1.1,2.3,2.4c0,0.1,0,0.1,0,0.2v0.2h-3.9c0,0.9,0.8,1.7,1.7,1.7c0,0,0,0,0,0c0.6,0,1.1-0.2,1.5-0.6
			l0.4,0.5c-0.5,0.5-1.2,0.8-1.9,0.7c-1.4-0.1-2.5-1.3-2.4-2.7C190.2,83.8,191.3,82.8,192.5,82.7L192.5,82.7z M190.9,84.9h3.2
			c0-0.9-0.7-1.6-1.5-1.6c0,0,0,0-0.1,0C191.6,83.3,190.9,84,190.9,84.9z"/>
		<path d="M196.1,87.6v-6.7h0.8v6.7H196.1z"/>
		<path d="M200.4,82.7c1.3,0,2.3,1.1,2.3,2.4c0,0.1,0,0.1,0,0.2v0.2h-3.9c0,0.9,0.8,1.7,1.7,1.7c0,0,0,0,0,0c0.6,0,1.1-0.2,1.5-0.6
			l0.4,0.5c-0.5,0.5-1.2,0.8-1.9,0.7c-1.4-0.1-2.5-1.3-2.4-2.7C198.1,83.8,199.1,82.8,200.4,82.7L200.4,82.7z M198.8,84.9h3.2
			c0-0.9-0.7-1.6-1.5-1.6c0,0,0,0-0.1,0C199.5,83.3,198.8,84,198.8,84.9z"/>
		<path d="M209.8,87.6v-3.3c0-0.6-0.3-1-0.9-1c-0.5,0-1,0.3-1.3,0.7v3.5h-0.8v-3.3c0-0.6-0.3-1-0.9-1c-0.5,0-1,0.3-1.3,0.8v3.5h-0.8
			v-4.8h0.8v0.7c0.4-0.5,0.9-0.8,1.6-0.8c0.6-0.1,1.1,0.3,1.3,0.9c0.4-0.5,1-0.9,1.6-0.9c0.9,0,1.4,0.5,1.4,1.5v3.5L209.8,87.6z"/>
		<path d="M214.1,82.7c1.3,0,2.3,1.1,2.3,2.4c0,0.1,0,0.1,0,0.2v0.2h-3.9c0,0.9,0.8,1.7,1.7,1.7c0,0,0,0,0,0c0.6,0,1.1-0.2,1.5-0.6
			l0.4,0.5c-0.5,0.5-1.2,0.8-1.9,0.7c-1.4-0.1-2.5-1.3-2.4-2.7C211.8,83.8,212.8,82.8,214.1,82.7L214.1,82.7z M212.5,84.9h3.2
			c0-0.9-0.7-1.6-1.5-1.6c0,0,0,0-0.1,0C213.2,83.3,212.5,84,212.5,84.9z"/>
		<path d="M217.8,86.6v-3.2H217v-0.7h0.8v-1.3h0.8v1.3h1v0.7h-1v3c0,0.4,0.2,0.6,0.5,0.6c0.2,0,0.4-0.1,0.5-0.2l0.2,0.6
			c-0.2,0.2-0.6,0.3-0.9,0.3c-0.6,0-1-0.4-1.1-0.9C217.8,86.7,217.8,86.7,217.8,86.6z"/>
		<path d="M220.6,87.6v-4.8h0.8v0.8c0.4-0.5,1-0.9,1.6-0.9v0.8c-0.1,0-0.2,0-0.3,0c-0.5,0-1,0.3-1.3,0.8v3.4L220.6,87.6z"/>
		<path d="M223.7,88.8c0.1,0.1,0.3,0.1,0.4,0.1c0.3,0,0.6-0.2,0.7-0.5l0.3-0.7l-2-4.9h0.8l1.6,4l1.6-4h0.8l-2.4,5.8
			c-0.2,0.6-0.8,1-1.4,1c-0.2,0-0.4,0-0.6-0.1L223.7,88.8z"/>
		<path d="M186.2,99.6v-6.7h3c0.9-0.1,1.8,0.6,1.9,1.5c0,0.1,0,0.1,0,0.2c0,0.7-0.5,1.4-1.2,1.5c0.8,0.2,1.3,0.9,1.3,1.6
			c0,1-0.7,1.8-1.7,1.8c-0.1,0-0.2,0-0.3,0H186.2z M187.1,95.8h2c0.5,0.1,1.1-0.3,1.1-0.8c0-0.1,0-0.2,0-0.2c0.1-0.5-0.4-1-0.9-1.1
			c-0.1,0-0.2,0-0.2,0h-2V95.8z M187.1,98.8h2c0.6,0.1,1.2-0.3,1.2-0.9c0-0.1,0-0.1,0-0.2c0-0.6-0.5-1.1-1.1-1.2c0,0-0.1,0-0.1,0h-2
			V98.8z"/>
		<path d="M192.2,97.2c0.1-1.3,1.2-2.3,2.5-2.2s2.3,1.2,2.2,2.5c-0.1,1.3-1.1,2.2-2.4,2.2c-1.3,0-2.4-1-2.4-2.3
			C192.2,97.3,192.2,97.3,192.2,97.2z M196.2,97.2c-0.1-0.9-1-1.5-1.9-1.4c-0.9,0.1-1.5,1-1.4,1.9c0.1,0.8,0.8,1.4,1.6,1.4
			c0.9,0,1.6-0.8,1.6-1.8C196.2,97.3,196.2,97.2,196.2,97.2L196.2,97.2z"/>
		<path d="M201.5,99.6v-0.7c-0.4,0.5-1.1,0.8-1.7,0.8c-0.7,0.1-1.4-0.4-1.5-1.2c0-0.1,0-0.3,0-0.4v-3.4h0.8V98
			c0,0.8,0.4,1.1,1.1,1.1c0.6,0,1.1-0.3,1.4-0.7v-3.6h0.8v4.8H201.5z"/>
		<path d="M207,99.6v-3.2c0-0.8-0.4-1.1-1.1-1.1c-0.6,0-1.1,0.3-1.4,0.8v3.5h-0.8v-4.8h0.8v0.7c0.4-0.5,1.1-0.8,1.7-0.8
			c0.7-0.1,1.4,0.4,1.5,1.2c0,0.1,0,0.3,0,0.4v3.4L207,99.6z"/>
		<path d="M212.7,99.6v-0.7c-0.4,0.5-1,0.8-1.6,0.8c-1.3,0-2.1-1-2.1-2.5s0.9-2.5,2.1-2.5c0.6,0,1.3,0.3,1.6,0.8v-2.6h0.8v6.7H212.7
			z M212.7,96.1c-0.3-0.5-0.9-0.8-1.4-0.8c-1,0-1.6,0.8-1.6,1.9s0.6,1.9,1.6,1.9c0.6,0,1.1-0.3,1.4-0.8V96.1z"/>
		<path d="M218,99.6v-0.6c-0.4,0.4-1,0.7-1.6,0.7c-0.9,0-1.6-0.6-1.7-1.5c0,0,0,0,0-0.1c0-0.9,0.7-1.6,1.6-1.6c0,0,0.1,0,0.1,0
			c0.6,0,1.2,0.2,1.6,0.7v-0.9c0-0.7-0.5-1-1.2-1c-0.6,0-1.1,0.2-1.5,0.7l-0.4-0.5c0.5-0.5,1.2-0.8,1.9-0.8c1,0,1.9,0.5,1.9,1.6v3.3
			L218,99.6z M218,97.7c-0.3-0.4-0.8-0.6-1.3-0.6c-0.6-0.1-1.1,0.4-1.2,1c-0.1,0.6,0.4,1.1,1,1.2c0.1,0,0.1,0,0.2,0
			c0.5,0,1-0.2,1.3-0.6V97.7z"/>
		<path d="M220.3,99.6v-4.8h0.7v0.8c0.4-0.5,1-0.9,1.6-0.9v0.8c-0.1,0-0.2,0-0.3,0c-0.5,0-1,0.3-1.3,0.8v3.4L220.3,99.6z"/>
		<path d="M223.4,100.8c0.1,0.1,0.3,0.1,0.4,0.1c0.3,0,0.6-0.2,0.7-0.5l0.3-0.7l-2-4.9h0.8l1.6,4l1.6-4h0.8l-2.4,5.8
			c-0.2,0.6-0.8,1-1.4,1c-0.2,0-0.4,0-0.6-0.1L223.4,100.8z"/>
		<path d="M386,118.4v-6.7h0.8v6.7L386,118.4z"/>
		<path d="M391.9,118.4v-0.7c-0.4,0.5-1,0.8-1.6,0.8c-1.2,0-2.1-1-2.1-2.5s0.9-2.5,2.1-2.5c0.6,0,1.3,0.3,1.6,0.8v-2.6h0.8v6.7
			L391.9,118.4z M391.9,114.9c-0.3-0.5-0.9-0.8-1.5-0.8c-1,0-1.5,0.8-1.5,1.9s0.6,1.9,1.5,1.9c0.6,0,1.1-0.3,1.5-0.8V114.9z"/>
		<path d="M396.2,113.4c1.3,0,2.3,1.1,2.3,2.4c0,0.1,0,0.1,0,0.2v0.2h-3.9c0,0.9,0.8,1.7,1.7,1.7c0,0,0,0,0,0c0.6,0,1.1-0.2,1.5-0.6
			l0.4,0.5c-0.5,0.5-1.2,0.8-1.9,0.7c-1.4-0.1-2.5-1.3-2.4-2.7C393.9,114.6,394.9,113.5,396.2,113.4z M394.6,115.7h3.2
			c0-0.9-0.6-1.6-1.5-1.6c0,0-0.1,0-0.1,0C395.3,114,394.6,114.7,394.6,115.7C394.6,115.6,394.6,115.6,394.6,115.7z"/>
		<path d="M403,118.4v-3.2c0-0.8-0.4-1.1-1.1-1.1c-0.6,0-1.1,0.3-1.4,0.8v3.5h-0.7v-4.8h0.7v0.7c0.4-0.5,1.1-0.8,1.7-0.8
			c0.7-0.1,1.4,0.4,1.5,1.2c0,0.1,0,0.3,0,0.4v3.4L403,118.4z"/>
		<path d="M405.4,117.4v-3.2h-0.8v-0.7h0.8v-1.3h0.8v1.3h1v0.7h-1v3c0,0.4,0.2,0.6,0.5,0.6c0.2,0,0.4-0.1,0.5-0.2l0.2,0.6
			c-0.2,0.2-0.6,0.3-0.9,0.3c-0.6,0-1-0.4-1.1-0.9C405.4,117.5,405.4,117.4,405.4,117.4z"/>
		<path d="M408.1,112.2c0.1-0.3,0.3-0.5,0.6-0.4c0.2,0,0.4,0.2,0.4,0.4c0.1,0.3-0.1,0.5-0.4,0.6c-0.3,0.1-0.5-0.1-0.6-0.4
			C408,112.4,408,112.3,408.1,112.2z M408.2,118.4v-4.8h0.8v4.8H408.2z"/>
		<path d="M411.4,114.2v4.2h-0.8v-4.2h-0.8v-0.7h0.8v-0.4c-0.1-0.8,0.5-1.5,1.3-1.6c0.3,0,0.6,0,0.8,0.2l-0.2,0.6
			c-0.1-0.1-0.3-0.1-0.4-0.1c-0.5,0-0.8,0.3-0.8,1v0.4h1v0.7L411.4,114.2z"/>
		<path d="M413.1,119.6c0.1,0.1,0.3,0.1,0.4,0.1c0.3,0,0.6-0.2,0.7-0.5l0.3-0.7l-2-4.9h0.8l1.6,4l1.6-4h0.8l-2.4,5.8
			c-0.2,0.6-0.8,1-1.4,1c-0.2,0-0.4,0-0.5-0.1L413.1,119.6z"/>
		<path d="M445.2,118.4v-5.6l-2.3,5.6h-0.3l-2.3-5.6v5.6h-0.8v-6.7h1.2l2.1,5.1l2.1-5.1h1.2v6.7L445.2,118.4z"/>
		<path d="M450.6,118.4v-0.6c-0.4,0.4-1,0.7-1.6,0.7c-0.9,0-1.6-0.6-1.7-1.5c0,0,0,0,0-0.1c0-0.9,0.7-1.6,1.6-1.6c0.1,0,0.1,0,0.2,0
			c0.6,0,1.2,0.2,1.6,0.7v-0.9c0-0.7-0.5-1-1.2-1c-0.6,0-1.1,0.2-1.5,0.7l-0.4-0.5c0.5-0.5,1.2-0.8,1.9-0.8c1,0,1.9,0.5,1.9,1.6v3.3
			L450.6,118.4z M450.6,116.4c-0.3-0.4-0.8-0.6-1.3-0.6c-0.6-0.1-1.1,0.4-1.2,1c-0.1,0.6,0.4,1.1,1,1.2c0.1,0,0.1,0,0.2,0
			c0.5,0,1-0.2,1.3-0.6V116.4z"/>
		<path d="M454.9,113.4c0.7,0,1.4,0.3,1.8,0.8l-0.5,0.5c-0.3-0.4-0.7-0.6-1.2-0.6c-1,0.1-1.8,1.1-1.6,2.1c0.1,0.9,0.8,1.5,1.6,1.6
			c0.5,0,1-0.2,1.2-0.6l0.5,0.5c-0.4,0.6-1.1,0.9-1.8,0.8c-1.4-0.1-2.5-1.3-2.4-2.7C452.6,114.5,453.7,113.5,454.9,113.4z"/>
		<path d="M461,118.4v-3.2c0-0.8-0.4-1.1-1.1-1.1c-0.6,0-1.1,0.3-1.4,0.8v3.5h-0.8v-6.7h0.8v2.5c0.4-0.5,1.1-0.8,1.7-0.8
			c0.7-0.1,1.4,0.4,1.5,1.2c0,0.1,0,0.3,0,0.4v3.4H461z"/>
		<path d="M463.1,112.2c0.1-0.3,0.3-0.5,0.6-0.4c0.2,0,0.4,0.2,0.4,0.4c0.1,0.3-0.1,0.5-0.4,0.6c-0.3,0.1-0.5-0.1-0.6-0.4
			C463.1,112.4,463.1,112.3,463.1,112.2z M463.3,118.4v-4.8h0.7v4.8H463.3z"/>
		<path d="M468.8,118.4v-3.2c0-0.8-0.4-1.1-1.1-1.1c-0.6,0-1.1,0.3-1.4,0.8v3.5h-0.8v-4.8h0.8v0.7c0.4-0.5,1.1-0.8,1.7-0.8
			c0.7-0.1,1.4,0.4,1.5,1.2c0,0.1,0,0.3,0,0.4v3.4L468.8,118.4z"/>
		<path d="M473.1,113.4c1.3,0,2.3,1.1,2.3,2.4c0,0.1,0,0.1,0,0.2v0.2h-3.9c0,0.9,0.8,1.7,1.7,1.7c0,0,0,0,0,0c0.6,0,1.1-0.2,1.5-0.6
			l0.4,0.5c-0.5,0.5-1.2,0.8-1.9,0.7c-1.4-0.1-2.5-1.3-2.4-2.7C470.9,114.6,471.9,113.5,473.1,113.4L473.1,113.4z M471.6,115.7h3.2
			c0-0.9-0.7-1.6-1.5-1.6c0,0,0,0-0.1,0C472.3,114.1,471.5,114.8,471.6,115.7L471.6,115.7z"/>
		<path d="M439,130.4v-6.7h0.8v5.9h3.2v0.7H439z"/>
		<path d="M446,125.4c1.3,0,2.3,1.1,2.3,2.4c0,0.1,0,0.1,0,0.2v0.2h-3.9c0,0.9,0.8,1.7,1.7,1.7c0,0,0,0,0,0c0.6,0,1.1-0.2,1.5-0.6
			l0.4,0.5c-0.5,0.5-1.2,0.8-1.9,0.7c-1.4-0.1-2.5-1.3-2.4-2.7C443.7,126.6,444.7,125.5,446,125.4L446,125.4z M444.4,127.7h3.2
			c0-0.9-0.6-1.6-1.5-1.6c0,0-0.1,0-0.1,0C445.1,126,444.4,126.7,444.4,127.7C444.4,127.6,444.4,127.6,444.4,127.7z"/>
		<path d="M452.5,130.4v-0.6c-0.4,0.4-1,0.7-1.6,0.7c-0.9,0-1.6-0.6-1.7-1.5c0,0,0,0,0-0.1c0-0.9,0.7-1.6,1.6-1.6c0.1,0,0.1,0,0.2,0
			c0.6,0,1.2,0.2,1.6,0.7v-0.9c0-0.7-0.5-1-1.2-1c-0.6,0-1.1,0.2-1.5,0.7l-0.4-0.5c0.5-0.5,1.2-0.8,1.9-0.8c1,0,1.9,0.5,1.9,1.6v3.3
			L452.5,130.4z M452.5,128.4c-0.3-0.4-0.8-0.6-1.3-0.6c-0.6-0.1-1.1,0.4-1.2,1s0.4,1.1,1,1.2c0.1,0,0.1,0,0.2,0
			c0.5,0,1-0.2,1.3-0.6V128.4z"/>
		<path d="M454.8,130.4v-4.8h0.8v0.8c0.4-0.5,1-0.9,1.6-0.9v0.8c-0.1,0-0.2,0-0.3,0c-0.5,0-1,0.3-1.3,0.8v3.4L454.8,130.4z"/>
		<path d="M461.4,130.4v-3.2c0-0.8-0.4-1.1-1.1-1.1c-0.6,0-1.1,0.3-1.4,0.8v3.5h-0.8v-4.8h0.8v0.7c0.4-0.5,1.1-0.8,1.7-0.8
			c0.7-0.1,1.4,0.4,1.5,1.2c0,0.1,0,0.3,0,0.4v3.4H461.4z"/>
		<path d="M463.5,124.2c0.1-0.3,0.3-0.5,0.6-0.4c0.2,0,0.4,0.2,0.4,0.4c0.1,0.3-0.1,0.5-0.4,0.6c-0.3,0.1-0.5-0.1-0.6-0.4
			C463.5,124.4,463.5,124.3,463.5,124.2z M463.6,130.4v-4.8h0.8v4.8H463.6z"/>
		<path d="M469.1,130.4v-3.2c0-0.8-0.4-1.1-1.1-1.1c-0.6,0-1.1,0.3-1.4,0.8v3.5h-0.8v-4.8h0.8v0.7c0.4-0.5,1.1-0.8,1.7-0.8
			c0.7-0.1,1.4,0.4,1.5,1.2c0,0.1,0,0.3,0,0.4v3.4H469.1z"/>
		<path d="M471.7,131.1c0.4,0.5,1,0.7,1.6,0.7c0.8,0.1,1.4-0.4,1.5-1.2c0-0.1,0-0.2,0-0.3v-0.7c-0.4,0.5-1,0.9-1.6,0.9
			c-1.2,0-2.2-1-2.2-2.2c0-0.1,0-0.2,0-0.3c0-1.6,0.9-2.5,2.1-2.5c0.6,0,1.2,0.3,1.6,0.8v-0.7h0.8v4.7c0,1.6-1.1,2.1-2.3,2.1
			c-0.7,0.1-1.4-0.2-2-0.7L471.7,131.1z M474.9,126.9c-0.3-0.5-0.9-0.8-1.4-0.8c-1,0-1.5,0.8-1.5,1.8s0.6,1.8,1.5,1.8
			c0.6,0,1.1-0.3,1.4-0.8V126.9z"/>
		<path d="M501.4,118.4v-6.7h2.7c1.1,0,2,0.9,2,2s-0.9,2-2,2h-1.9v2.7L501.4,118.4z M504,112.4h-1.8v2.6h1.8c0.7,0,1.3-0.6,1.3-1.3
			C505.3,113,504.7,112.5,504,112.4L504,112.4z"/>
		<path d="M510.1,118.4v-0.6c-0.4,0.4-1,0.7-1.6,0.7c-0.9,0-1.6-0.6-1.7-1.5c0,0,0,0,0-0.1c0-0.9,0.7-1.6,1.6-1.6c0,0,0.1,0,0.1,0
			c0.6,0,1.2,0.2,1.6,0.7v-0.9c0-0.7-0.5-1-1.2-1c-0.6,0-1.1,0.2-1.5,0.7l-0.4-0.5c0.5-0.5,1.2-0.8,1.9-0.8c1,0,1.9,0.5,1.9,1.6v3.3
			L510.1,118.4z M510.1,116.4c-0.3-0.4-0.8-0.6-1.3-0.6c-0.6-0.1-1.1,0.4-1.2,1c-0.1,0.6,0.4,1.1,1,1.2c0.1,0,0.1,0,0.2,0
			c0.5,0,1-0.2,1.3-0.6V116.4z"/>
		<path d="M512.5,117.4v-3.2h-0.8v-0.7h0.8v-1.3h0.8v1.3h1v0.7h-1v3c0,0.4,0.2,0.6,0.5,0.6c0.2,0,0.4-0.1,0.5-0.2l0.2,0.6
			c-0.2,0.2-0.6,0.3-0.9,0.3c-0.6,0-1-0.4-1.1-0.9C512.5,117.5,512.5,117.4,512.5,117.4z"/>
		<path d="M515.4,117.4v-3.2h-0.8v-0.7h0.8v-1.3h0.8v1.3h1v0.7h-1v3c0,0.4,0.2,0.6,0.5,0.6c0.2,0,0.4-0.1,0.5-0.2l0.2,0.6
			c-0.2,0.2-0.6,0.3-0.9,0.3c-0.6,0-1-0.4-1.1-0.9C515.4,117.5,515.4,117.4,515.4,117.4z"/>
		<path d="M520.3,113.4c1.3,0,2.3,1.1,2.3,2.4c0,0.1,0,0.2,0,0.2v0.2h-3.9c0,0.9,0.8,1.7,1.7,1.7c0,0,0,0,0,0c0.6,0,1.1-0.2,1.5-0.6
			l0.4,0.5c-0.5,0.5-1.2,0.8-1.9,0.7c-1.4-0.1-2.5-1.3-2.4-2.7C518,114.6,519,113.5,520.3,113.4L520.3,113.4z M518.7,115.7h3.2
			c0-0.9-0.7-1.6-1.5-1.6c0,0,0,0-0.1,0C519.4,114.1,518.7,114.8,518.7,115.7L518.7,115.7z"/>
		<path d="M523.8,118.4v-4.8h0.8v0.8c0.4-0.5,1-0.9,1.6-0.9v0.8c-0.1,0-0.2,0-0.3,0c-0.5,0-1,0.3-1.3,0.8v3.4L523.8,118.4z"/>
		<path d="M530.4,118.4v-3.2c0-0.8-0.4-1.1-1.1-1.1c-0.6,0-1.1,0.3-1.4,0.8v3.5h-0.8v-4.8h0.8v0.7c0.4-0.5,1.1-0.8,1.7-0.8
			c0.8-0.1,1.4,0.4,1.5,1.2c0,0.1,0,0.2,0,0.4v3.4L530.4,118.4z"/>
		<path d="M502.6,130.4v-5.6l-2.3,5.6H500l-2.3-5.6v5.6h-0.8v-6.7h1.2l2.1,5.1l2.1-5.1h1.2v6.7H502.6z"/>
		<path d="M508,130.4v-0.6c-0.4,0.4-1,0.7-1.6,0.7c-0.9,0-1.6-0.6-1.7-1.5c0,0,0,0,0-0.1c0-0.9,0.7-1.6,1.6-1.6c0,0,0.1,0,0.1,0
			c0.6,0,1.2,0.2,1.6,0.7v-0.9c0-0.7-0.5-1-1.2-1c-0.6,0-1.1,0.2-1.5,0.7l-0.4-0.5c0.5-0.5,1.2-0.8,1.9-0.8c1,0,1.9,0.5,1.9,1.6v3.3
			L508,130.4z M508,128.4c-0.3-0.4-0.8-0.6-1.3-0.6c-0.6-0.1-1.1,0.4-1.2,1s0.4,1.1,1,1.2c0.1,0,0.1,0,0.2,0c0.5,0,1-0.2,1.3-0.6
			V128.4z"/>
		<path d="M510.4,129.4v-3.2h-0.8v-0.7h0.8v-1.3h0.8v1.3h1v0.7h-1v3c0,0.4,0.2,0.6,0.5,0.6c0.2,0,0.4-0.1,0.5-0.2l0.2,0.6
			c-0.2,0.2-0.6,0.3-0.9,0.3c-0.6,0-1-0.4-1.1-0.9C510.4,129.5,510.4,129.4,510.4,129.4z"/>
		<path d="M515.3,125.4c0.7,0,1.4,0.3,1.8,0.8l-0.5,0.5c-0.3-0.4-0.7-0.6-1.2-0.6c-1,0.1-1.8,1.1-1.6,2.1c0.1,0.9,0.8,1.5,1.6,1.6
			c0.5,0,1-0.2,1.2-0.6l0.5,0.5c-0.4,0.6-1.1,0.9-1.8,0.8c-1.4-0.1-2.5-1.3-2.4-2.7C513,126.5,514,125.5,515.3,125.4z"/>
		<path d="M521.4,130.4v-3.2c0-0.8-0.4-1.1-1.1-1.1c-0.6,0-1.1,0.3-1.4,0.8v3.5h-0.8v-6.7h0.8v2.5c0.4-0.5,1.1-0.8,1.7-0.8
			c0.7-0.1,1.4,0.4,1.5,1.2c0,0.1,0,0.3,0,0.4v3.4H521.4z"/>
		<path d="M523.5,124.2c0.1-0.3,0.3-0.5,0.6-0.4c0.2,0,0.4,0.2,0.4,0.4c0.1,0.3-0.1,0.5-0.4,0.6c-0.3,0.1-0.5-0.1-0.6-0.4
			C523.5,124.4,523.5,124.3,523.5,124.2z M523.6,130.4v-4.8h0.8v4.8H523.6z"/>
		<path d="M529.2,130.4v-3.2c0-0.8-0.4-1.1-1.1-1.1c-0.6,0-1.1,0.3-1.4,0.8v3.5h-0.8v-4.8h0.8v0.7c0.4-0.5,1.1-0.8,1.7-0.8
			c0.7-0.1,1.4,0.4,1.5,1.2c0,0.1,0,0.3,0,0.4v3.4L529.2,130.4z"/>
		<path d="M531.8,131.1c0.4,0.5,1,0.7,1.6,0.7c0.8,0.1,1.4-0.4,1.5-1.2c0-0.1,0-0.2,0-0.3v-0.7c-0.4,0.5-1,0.9-1.6,0.9
			c-1.2,0-2.2-1-2.2-2.2c0-0.1,0-0.2,0-0.3c0-1.6,0.9-2.5,2.2-2.5c0.6,0,1.2,0.3,1.6,0.8v-0.7h0.8v4.7c0,1.6-1.1,2.1-2.3,2.1
			c-0.7,0.1-1.5-0.2-2-0.7L531.8,131.1z M534.9,126.9c-0.3-0.5-0.9-0.8-1.4-0.8c-1,0-1.5,0.8-1.5,1.8s0.6,1.8,1.5,1.8
			c0.6,0,1.1-0.3,1.4-0.8V126.9z"/>
		<path d="M331.8,118.4v-6.7h2.3c1.8-0.1,3.4,1.3,3.5,3.2c0.1,1.8-1.3,3.4-3.2,3.5c-0.1,0-0.2,0-0.4,0L331.8,118.4z M332.6,117.6
			h1.5c1.4-0.1,2.5-1.3,2.4-2.8c-0.1-1.3-1.1-2.4-2.4-2.4h-1.5V117.6z"/>
		<path d="M338.7,112.2c0.1-0.3,0.3-0.5,0.6-0.4c0.2,0,0.4,0.2,0.4,0.4c0.1,0.3-0.1,0.5-0.4,0.6c-0.3,0.1-0.5-0.1-0.6-0.4
			C338.6,112.4,338.6,112.3,338.7,112.2z M338.8,118.4v-4.8h0.8v4.8H338.8z"/>
		<path d="M341.4,119.1c0.4,0.5,1,0.7,1.6,0.7c0.8,0.1,1.4-0.4,1.5-1.2c0-0.1,0-0.2,0-0.3v-0.7c-0.4,0.5-1,0.9-1.6,0.9
			c-1.2,0-2.2-1-2.2-2.2c0-0.1,0-0.2,0-0.3c0-1.6,0.9-2.5,2.1-2.5c0.6,0,1.2,0.3,1.6,0.8v-0.7h0.8v4.7c0,1.6-1.1,2.1-2.3,2.1
			c-0.7,0.1-1.5-0.2-2-0.7L341.4,119.1z M344.5,114.9c-0.3-0.5-0.9-0.8-1.4-0.8c-1,0-1.5,0.8-1.5,1.8s0.6,1.8,1.5,1.8
			c0.6,0,1.1-0.3,1.4-0.8V114.9z"/>
		<path d="M346.6,112.2c0.1-0.3,0.3-0.5,0.6-0.4c0.2,0,0.4,0.2,0.4,0.4c0.1,0.3-0.1,0.5-0.4,0.6c-0.3,0.1-0.5-0.1-0.6-0.4
			C346.6,112.4,346.6,112.3,346.6,112.2z M346.8,118.4v-4.8h0.8v4.8H346.8z"/>
		<path d="M349.2,117.4v-3.2h-0.8v-0.7h0.8v-1.3h0.8v1.3h1v0.7h-1v3c0,0.4,0.2,0.6,0.5,0.6c0.2,0,0.4-0.1,0.5-0.2l0.2,0.6
			c-0.2,0.2-0.6,0.3-0.9,0.3c-0.6,0-1-0.4-1.1-0.9C349.2,117.5,349.2,117.4,349.2,117.4z"/>
		<path d="M355,118.4v-0.6c-0.4,0.4-1,0.7-1.6,0.7c-0.9,0-1.6-0.6-1.7-1.5c0,0,0,0,0-0.1c0-0.9,0.7-1.6,1.6-1.6c0,0,0.1,0,0.1,0
			c0.6,0,1.2,0.2,1.6,0.7v-0.9c0-0.7-0.5-1-1.2-1c-0.6,0-1.1,0.2-1.5,0.7l-0.4-0.5c0.5-0.5,1.2-0.8,1.9-0.8c1,0,1.9,0.5,1.9,1.6v3.3
			L355,118.4z M355,116.4c-0.3-0.4-0.8-0.6-1.3-0.6c-0.6-0.1-1.1,0.4-1.2,1c-0.1,0.6,0.4,1.1,1,1.2c0.1,0,0.1,0,0.2,0
			c0.5,0,1-0.2,1.3-0.6V116.4z"/>
		<path d="M357.2,118.4v-6.7h0.8v6.7L357.2,118.4z"/>
		<path d="M321.8,130.4v-6.7h4.4v0.7h-3.5v2.2h3.5v0.7h-3.5v3L321.8,130.4z"/>
		<path d="M327.2,124.2c0.1-0.3,0.3-0.5,0.6-0.4c0.2,0,0.4,0.2,0.4,0.4c0.1,0.3-0.1,0.5-0.4,0.6c-0.3,0.1-0.5-0.1-0.6-0.4
			C327.2,124.4,327.2,124.3,327.2,124.2z M327.3,130.4v-4.8h0.8v4.8H327.3z"/>
		<path d="M332.8,130.4v-3.2c0-0.8-0.4-1.1-1.1-1.1c-0.6,0-1.1,0.3-1.4,0.8v3.5h-0.8v-4.8h0.8v0.7c0.4-0.5,1.1-0.8,1.7-0.8
			c0.7-0.1,1.4,0.4,1.5,1.2c0,0.1,0,0.3,0,0.4v3.4H332.8z"/>
		<path d="M335.4,131.1c0.4,0.5,1,0.7,1.6,0.7c0.8,0.1,1.4-0.4,1.5-1.2c0-0.1,0-0.2,0-0.3v-0.7c-0.4,0.5-1,0.9-1.6,0.9
			c-1.2,0-2.2-1-2.2-2.2c0-0.1,0-0.2,0-0.3c0-1.6,0.9-2.5,2.1-2.5c0.6,0,1.2,0.3,1.6,0.8v-0.7h0.8v4.7c0,1.6-1.1,2.1-2.3,2.1
			c-0.7,0.1-1.4-0.2-2-0.7L335.4,131.1z M338.6,126.9c-0.3-0.5-0.9-0.8-1.4-0.8c-1,0-1.5,0.8-1.5,1.8s0.6,1.8,1.5,1.8
			c0.6,0,1.1-0.3,1.4-0.8V126.9z"/>
		<path d="M342.9,125.4c1.3,0,2.3,1.1,2.3,2.4c0,0.1,0,0.1,0,0.2v0.2h-3.9c0,0.9,0.8,1.7,1.7,1.7c0,0,0,0,0,0c0.6,0,1.1-0.2,1.5-0.6
			l0.4,0.5c-0.5,0.5-1.2,0.8-1.9,0.7c-1.4-0.1-2.5-1.3-2.4-2.7C340.6,126.6,341.6,125.5,342.9,125.4L342.9,125.4z M341.3,127.7h3.2
			c0-0.9-0.6-1.6-1.5-1.6c0,0-0.1,0-0.1,0C342,126,341.3,126.8,341.3,127.7C341.3,127.6,341.3,127.6,341.3,127.7z"/>
		<path d="M346.4,130.4v-4.8h0.8v0.8c0.4-0.5,1-0.9,1.6-0.9v0.8c-0.1,0-0.2,0-0.3,0c-0.5,0-1,0.3-1.3,0.8v3.4L346.4,130.4z"/>
		<path d="M350.5,132.2h-0.8v-6.7h0.8v0.7c0.4-0.5,1-0.8,1.6-0.8c1.3,0,2.1,1,2.1,2.5s-0.9,2.5-2.1,2.5c-0.6,0-1.3-0.3-1.6-0.9
			V132.2z M351.9,126.1c-0.6,0-1.1,0.3-1.4,0.8v2.1c0.3,0.5,0.9,0.8,1.4,0.8c1,0,1.5-0.8,1.5-1.9S352.9,126.1,351.9,126.1z"/>
		<path d="M355.5,130.4v-4.8h0.8v0.8c0.4-0.5,1-0.9,1.6-0.9v0.8c-0.1,0-0.2,0-0.3,0c-0.5,0-1,0.3-1.3,0.8v3.4L355.5,130.4z"/>
		<path d="M358.6,124.2c0.1-0.3,0.3-0.5,0.6-0.4c0.2,0,0.4,0.2,0.4,0.4c0.1,0.3-0.1,0.5-0.4,0.6c-0.3,0.1-0.5-0.1-0.6-0.4
			C358.6,124.4,358.6,124.3,358.6,124.2z M358.8,130.4v-4.8h0.8v4.8H358.8z"/>
		<path d="M364.3,130.4v-3.2c0-0.8-0.4-1.1-1.1-1.1c-0.6,0-1.1,0.3-1.4,0.8v3.5H361v-4.8h0.8v0.7c0.4-0.5,1.1-0.8,1.7-0.8
			c0.8-0.1,1.4,0.4,1.5,1.2c0,0.1,0,0.3,0,0.4v3.4L364.3,130.4z"/>
		<path d="M366.7,129.4v-3.2h-0.8v-0.7h0.8v-1.3h0.8v1.3h1v0.7h-1v3c0,0.4,0.2,0.6,0.5,0.6c0.2,0,0.4-0.1,0.5-0.2l0.2,0.6
			c-0.2,0.2-0.6,0.3-0.9,0.3c-0.6,0-1-0.4-1.1-0.9C366.7,129.5,366.7,129.4,366.7,129.4z"/>
		<path d="M341.5,159.6V153h4.4v0.7h-3.5v2.1h3.5v0.7h-3.5v3L341.5,159.6z"/>
		<path d="M347.4,158.1c0.4,0.6,1.1,0.9,1.8,0.9c0.8,0.1,1.5-0.5,1.5-1.3c0,0,0-0.1,0-0.1c0-0.8-0.6-1.4-1.4-1.4c-0.1,0-0.1,0-0.2,0
			c-0.6,0-1.1,0.2-1.5,0.6l-0.6-0.2V153h4.1v0.7h-3.2v2.3c0.4-0.4,1-0.6,1.6-0.6c1.1-0.1,2,0.8,2.1,1.9c0,0.1,0,0.2,0,0.2
			c0,1.2-0.9,2.2-2.2,2.2c-0.1,0-0.1,0-0.2,0c-0.9,0.1-1.8-0.3-2.4-1.1L347.4,158.1z"/>
		<path d="M355.4,159.6V153h3c0.9-0.1,1.8,0.6,1.9,1.5c0,0.1,0,0.1,0,0.2c0,0.7-0.5,1.4-1.2,1.5c0.8,0.2,1.3,0.9,1.3,1.6
			c0,1-0.7,1.8-1.7,1.8c-0.1,0-0.2,0-0.3,0L355.4,159.6z M356.3,155.9h2c0.5,0.1,1.1-0.3,1.1-0.8c0-0.1,0-0.2,0-0.2
			c0.1-0.5-0.4-1-0.9-1.1c-0.1,0-0.2,0-0.2,0h-2V155.9z M356.3,158.9h2c0.6,0.1,1.2-0.3,1.2-0.9c0-0.1,0-0.1,0-0.2
			c0-0.6-0.5-1.1-1.1-1.2c0,0-0.1,0-0.1,0h-2V158.9z"/>
		<path d="M361.4,157.2c0.1-1.3,1.2-2.3,2.5-2.2s2.3,1.2,2.2,2.5c-0.1,1.3-1.1,2.2-2.4,2.2c-1.3,0-2.4-1-2.4-2.3
			C361.4,157.4,361.4,157.3,361.4,157.2z M365.4,157.2c-0.1-0.9-1-1.5-1.9-1.4c-0.9,0.1-1.5,1-1.4,1.9c0.1,0.8,0.8,1.4,1.6,1.4
			c0.9,0,1.6-0.8,1.6-1.8C365.4,157.3,365.4,157.3,365.4,157.2L365.4,157.2z"/>
		<path d="M367.6,158.6v-3.2h-0.8v-0.7h0.8v-1.3h0.8v1.3h1v0.7h-1v3c0,0.4,0.2,0.6,0.5,0.6c0.2,0,0.4-0.1,0.5-0.2l0.2,0.6
			c-0.2,0.2-0.6,0.3-0.9,0.3c-0.6,0-1-0.4-1.1-0.9C367.6,158.8,367.6,158.7,367.6,158.6z"/>
		<path d="M378.7,159.6v-5.5l-2.3,5.6h-0.3l-2.3-5.6v5.6H373V153h1.2l2.1,5.1l2-5.1h1.2v6.7L378.7,159.6z"/>
		<path d="M384,159.6v-0.6c-0.4,0.4-1,0.7-1.6,0.7c-0.9,0-1.6-0.6-1.7-1.5c0,0,0,0,0-0.1c0-0.9,0.7-1.6,1.6-1.6c0,0,0.1,0,0.1,0
			c0.6,0,1.2,0.2,1.6,0.7v-0.9c0-0.6-0.5-1-1.2-1c-0.6,0-1.1,0.2-1.5,0.7l-0.4-0.5c0.5-0.5,1.2-0.8,1.9-0.8c1,0,1.9,0.5,1.9,1.6v3.3
			L384,159.6z M384,157.7c-0.3-0.4-0.8-0.6-1.3-0.6c-0.6-0.1-1.1,0.4-1.2,1c-0.1,0.6,0.4,1.1,1,1.2c0.1,0,0.1,0,0.2,0
			c0.5,0,1-0.2,1.3-0.6V157.7z"/>
		<path d="M389.5,159.6v-3.2c0-0.9-0.4-1.1-1.1-1.1c-0.6,0-1.1,0.3-1.4,0.8v3.5h-0.8v-4.8h0.8v0.7c0.4-0.5,1.1-0.8,1.7-0.8
			c0.7-0.1,1.4,0.4,1.5,1.2c0,0.1,0,0.3,0,0.4v3.4L389.5,159.6z"/>
		<path d="M394.8,159.6v-0.6c-0.4,0.4-1,0.7-1.6,0.7c-0.9,0-1.6-0.6-1.7-1.5c0,0,0,0,0-0.1c0-0.9,0.7-1.6,1.6-1.6c0,0,0.1,0,0.1,0
			c0.6,0,1.2,0.2,1.6,0.7v-0.9c0-0.6-0.5-1-1.2-1c-0.6,0-1.1,0.2-1.5,0.7l-0.4-0.5c0.5-0.5,1.2-0.8,1.9-0.8c1,0,1.9,0.5,1.9,1.6v3.3
			L394.8,159.6z M394.8,157.7c-0.3-0.4-0.8-0.6-1.3-0.6c-0.6-0.1-1.1,0.4-1.2,1c-0.1,0.6,0.4,1.1,1,1.2c0.1,0,0.1,0,0.2,0
			c0.5,0,1-0.2,1.3-0.6V157.7z"/>
		<path d="M397.4,160.3c0.4,0.5,1,0.7,1.6,0.7c0.8,0.1,1.4-0.4,1.5-1.2c0-0.1,0-0.2,0-0.3v-0.7c-0.4,0.5-1,0.9-1.6,0.9
			c-1.2,0-2.1-0.9-2.1-2.5s0.9-2.5,2.1-2.5c0.6,0,1.2,0.3,1.6,0.9v-0.7h0.8v4.7c0,1.6-1.1,2.1-2.3,2.1c-0.7,0.1-1.4-0.2-2-0.7
			L397.4,160.3z M400.6,156.2c-0.3-0.5-0.9-0.8-1.4-0.8c-1,0-1.5,0.8-1.5,1.8s0.6,1.8,1.5,1.8c0.6,0,1.1-0.3,1.4-0.8V156.2z"/>
		<path d="M404.9,154.7c1.3,0,2.3,1.1,2.3,2.4c0,0.1,0,0.1,0,0.2v0.2h-3.9c0,0.9,0.8,1.7,1.7,1.7c0,0,0,0,0,0c0.6,0,1.1-0.2,1.5-0.6
			l0.4,0.5c-0.5,0.5-1.2,0.8-1.9,0.7c-1.4-0.1-2.5-1.3-2.4-2.7C402.6,155.8,403.6,154.8,404.9,154.7z M403.3,156.9h3.2
			c0-0.9-0.7-1.6-1.5-1.6c0,0,0,0-0.1,0C404,155.3,403.3,156.1,403.3,156.9L403.3,156.9z"/>
		<path d="M414.3,159.6v-3.3c0-0.6-0.3-1-0.9-1c-0.5,0-1,0.3-1.3,0.7v3.5h-0.8v-3.3c0-0.6-0.3-1-0.9-1c-0.5,0-1,0.3-1.3,0.8v3.5
			h-0.7v-4.8h0.7v0.7c0.4-0.5,0.9-0.8,1.6-0.8c0.6-0.1,1.1,0.3,1.3,0.9c0.4-0.5,1-0.9,1.6-0.9c0.9,0,1.4,0.5,1.4,1.5v3.5H414.3z"/>
		<path d="M418.6,154.7c1.3,0,2.3,1.1,2.3,2.4c0,0.1,0,0.1,0,0.2v0.2H417c0,0.9,0.8,1.7,1.7,1.7c0,0,0,0,0,0c0.6,0,1.1-0.2,1.5-0.6
			l0.4,0.5c-0.5,0.5-1.2,0.8-1.9,0.7c-1.4-0.1-2.5-1.3-2.4-2.7C416.3,155.8,417.3,154.8,418.6,154.7L418.6,154.7z M417,156.9h3.2
			c0-0.9-0.7-1.6-1.5-1.6c0,0,0,0-0.1,0C417.7,155.3,417,156.1,417,156.9z"/>
		<path d="M425.4,159.6v-3.2c0-0.9-0.4-1.1-1.1-1.1c-0.6,0-1.1,0.3-1.4,0.8v3.5h-0.7v-4.8h0.7v0.7c0.4-0.5,1.1-0.8,1.7-0.8
			c0.7-0.1,1.4,0.4,1.5,1.2c0,0.1,0,0.3,0,0.4v3.4L425.4,159.6z"/>
		<path d="M427.8,158.6v-3.2H427v-0.7h0.8v-1.3h0.8v1.3h1v0.7h-1v3c0,0.4,0.2,0.6,0.5,0.6c0.2,0,0.4-0.1,0.5-0.2l0.2,0.6
			c-0.2,0.2-0.6,0.3-0.9,0.3c-0.6,0-1-0.4-1.1-0.9C427.8,158.8,427.8,158.7,427.8,158.6z"/>
		<path d="M433.2,159.6V153h2.7c1.1,0,2,0.9,2,2s-0.9,2-2,2H434v2.6H433.2z M435.8,153.7H434v2.5h1.8c0.7,0,1.3-0.6,1.3-1.3
			C437,154.3,436.5,153.7,435.8,153.7C435.8,153.7,435.8,153.7,435.8,153.7L435.8,153.7z"/>
		<path d="M439.1,159.6V153h0.7v6.7L439.1,159.6z"/>
		<path d="M444.3,159.6v-0.6c-0.4,0.4-1,0.7-1.6,0.7c-0.9,0-1.6-0.6-1.7-1.5c0,0,0,0,0-0.1c0-0.9,0.7-1.6,1.6-1.6c0,0,0.1,0,0.1,0
			c0.6,0,1.2,0.2,1.6,0.7v-0.9c0-0.6-0.5-1-1.2-1c-0.6,0-1.1,0.2-1.5,0.7l-0.4-0.5c0.5-0.5,1.2-0.8,1.9-0.8c1,0,1.9,0.5,1.9,1.6v3.3
			L444.3,159.6z M444.3,157.7c-0.3-0.4-0.8-0.6-1.3-0.6c-0.6-0.1-1.1,0.4-1.2,1c-0.1,0.6,0.4,1.1,1,1.2c0.1,0,0.1,0,0.2,0
			c0.5,0,1-0.2,1.3-0.6V157.7z"/>
		<path d="M446.7,158.6v-3.2h-0.8v-0.7h0.8v-1.3h0.8v1.3h1v0.7h-1v3c0,0.4,0.2,0.6,0.5,0.6c0.2,0,0.4-0.1,0.5-0.2l0.2,0.6
			c-0.2,0.2-0.6,0.3-0.9,0.3c-0.6,0-1-0.4-1.1-0.9C446.7,158.8,446.7,158.7,446.7,158.6z"/>
		<path d="M450.5,155.5v4.2h-0.8v-4.2h-0.8v-0.7h0.8v-0.4c-0.1-0.8,0.5-1.5,1.3-1.6c0.3,0,0.6,0,0.8,0.2l-0.2,0.6
			c-0.1-0.1-0.3-0.1-0.4-0.1c-0.5,0-0.8,0.3-0.8,0.9v0.4h1v0.7H450.5z"/>
		<path d="M452.1,157.2c0.1-1.3,1.2-2.3,2.5-2.2s2.3,1.2,2.2,2.5c-0.1,1.3-1.1,2.2-2.4,2.2c-1.3,0-2.4-1-2.4-2.3
			C452.1,157.4,452.1,157.3,452.1,157.2z M456.1,157.2c-0.1-0.9-1-1.5-1.9-1.4c-0.9,0.1-1.5,1-1.4,1.9c0.1,0.8,0.8,1.4,1.6,1.4
			c0.9,0,1.6-0.8,1.6-1.8C456.1,157.3,456.1,157.3,456.1,157.2L456.1,157.2z"/>
		<path d="M458.1,159.6v-4.8h0.8v0.8c0.4-0.5,1-0.9,1.6-0.9v0.8c-0.1,0-0.2,0-0.3,0c-0.5,0-1,0.3-1.3,0.8v3.4L458.1,159.6z"/>
		<path d="M467.2,159.6v-3.3c0-0.6-0.3-1-0.9-1c-0.5,0-1,0.3-1.3,0.7v3.5h-0.8v-3.3c0-0.6-0.3-1-0.9-1c-0.5,0-1,0.3-1.3,0.8v3.5
			h-0.8v-4.8h0.8v0.7c0.4-0.5,0.9-0.8,1.6-0.8c0.6-0.1,1.1,0.3,1.3,0.9c0.4-0.5,1-0.9,1.6-0.9c0.9,0,1.4,0.5,1.4,1.5v3.5H467.2z"/>
		<path d="M190,286.9c-0.1-1.8,1.4-3.4,3.2-3.4c0.1,0,0.1,0,0.2,0c1,0,2,0.5,2.6,1.3l-0.7,0.4c-0.4-0.6-1.1-1-1.9-1
			c-1.5,0.1-2.6,1.4-2.5,2.9c0.1,1.3,1.2,2.4,2.5,2.5c0.7,0,1.4-0.4,1.9-1l0.7,0.4c-0.6,0.9-1.5,1.3-2.6,1.3c-1.8,0-3.4-1.4-3.4-3.3
			C190,287,190,287,190,286.9z"/>
		<path d="M196.7,287.8c0.1-1.3,1.2-2.3,2.5-2.2c1.3,0.1,2.3,1.2,2.2,2.5c-0.1,1.3-1.1,2.2-2.4,2.2c-1.3,0-2.4-1-2.4-2.3
			C196.7,288,196.7,287.9,196.7,287.8z M200.7,287.8c-0.1-0.9-1-1.5-1.9-1.4c-0.9,0.1-1.5,1-1.4,1.9c0.1,0.8,0.8,1.4,1.6,1.4
			c0.9,0,1.6-0.8,1.6-1.8C200.7,287.9,200.7,287.9,200.7,287.8L200.7,287.8z"/>
		<path d="M206,290.2v-3.2c0-0.9-0.4-1.1-1.1-1.1c-0.6,0-1.1,0.3-1.4,0.8v3.5h-0.8v-4.8h0.8v0.7c0.4-0.5,1.1-0.8,1.7-0.8
			c0.7-0.1,1.4,0.4,1.5,1.2c0,0.1,0,0.3,0,0.4v3.4L206,290.2z"/>
		<path d="M211.5,290.2v-3.2c0-0.9-0.4-1.1-1.1-1.1c-0.6,0-1.1,0.3-1.4,0.8v3.5h-0.8v-4.8h0.8v0.7c0.4-0.5,1.1-0.8,1.7-0.8
			c0.7-0.1,1.4,0.4,1.5,1.2c0,0.1,0,0.3,0,0.4v3.4L211.5,290.2z"/>
		<path d="M215.9,285.3c1.3,0,2.3,1.1,2.3,2.4c0,0.1,0,0.1,0,0.2v0.2h-3.9c0,0.9,0.8,1.7,1.7,1.7c0,0,0,0,0,0c0.6,0,1.1-0.2,1.5-0.6
			l0.4,0.5c-0.5,0.5-1.2,0.8-1.9,0.7c-1.4-0.1-2.5-1.3-2.4-2.7C213.6,286.4,214.6,285.4,215.9,285.3L215.9,285.3z M214.3,287.5h3.2
			c0-0.9-0.7-1.6-1.5-1.6c0,0,0,0-0.1,0C215,285.9,214.3,286.7,214.3,287.5z"/>
		<path d="M221.5,285.3c0.7,0,1.4,0.3,1.8,0.8l-0.5,0.5c-0.3-0.4-0.7-0.6-1.2-0.6c-1,0.1-1.8,1.1-1.6,2.1c0.1,0.9,0.8,1.5,1.6,1.6
			c0.5,0,1-0.2,1.2-0.6l0.5,0.5c-0.4,0.6-1.1,0.9-1.8,0.8c-1.4-0.1-2.5-1.3-2.4-2.7C219.2,286.4,220.2,285.4,221.5,285.3
			L221.5,285.3z"/>
		<path d="M224.5,289.2v-3.2h-0.8v-0.7h0.8v-1.3h0.8v1.3h1v0.7h-1v3c0,0.4,0.2,0.6,0.5,0.6c0.2,0,0.4-0.1,0.5-0.2l0.2,0.6
			c-0.2,0.2-0.6,0.3-0.9,0.3c-0.6,0-1-0.4-1.1-0.9C224.5,289.4,224.5,289.3,224.5,289.2z"/>
		<path d="M226.5,290.4l2.4-7.1h0.6l-2.4,7.1H226.5z"/>
		<path d="M230.3,290.2v-6.7h0.8v5.9h3.1v0.7L230.3,290.2z"/>
		<path d="M234.9,287.8c0.1-1.3,1.2-2.3,2.5-2.2c1.3,0.1,2.3,1.2,2.2,2.5c-0.1,1.3-1.1,2.2-2.4,2.2c-1.3,0-2.4-1-2.4-2.3
			C234.8,288,234.8,287.9,234.9,287.8z M238.9,287.8c-0.1-0.9-1-1.5-1.9-1.4c-0.9,0.1-1.5,1-1.4,1.9c0.1,0.8,0.8,1.4,1.6,1.4
			c0.9,0,1.6-0.8,1.6-1.8C238.8,287.9,238.8,287.9,238.9,287.8L238.9,287.8z"/>
		<path d="M241.2,290.9c0.4,0.5,1,0.7,1.6,0.6c0.8,0.1,1.4-0.4,1.5-1.2c0-0.1,0-0.2,0-0.2v-0.7c-0.4,0.5-1,0.9-1.6,0.9
			c-1.2,0-2.2-1-2.2-2.2c0-0.1,0-0.2,0-0.3c0-1.5,0.9-2.5,2.1-2.5c0.6,0,1.2,0.3,1.6,0.9v-0.7h0.8v4.7c0,1.6-1.1,2.1-2.3,2.1
			c-0.7,0.1-1.4-0.2-1.9-0.7L241.2,290.9z M244.3,286.8c-0.3-0.5-0.9-0.8-1.4-0.8c-1,0-1.6,0.8-1.6,1.8s0.6,1.8,1.6,1.8
			c0.6,0,1.1-0.3,1.4-0.8V286.8z"/>
		<path d="M246.5,284.1c0.1-0.3,0.3-0.5,0.6-0.4c0.2,0,0.4,0.2,0.4,0.4c0.1,0.3-0.1,0.5-0.4,0.6c-0.3,0.1-0.5-0.1-0.6-0.4
			C246.4,284.2,246.4,284.2,246.5,284.1z M246.6,290.2v-4.8h0.8v4.8H246.6z"/>
		<path d="M252.1,290.2v-3.2c0-0.9-0.4-1.1-1.1-1.1c-0.6,0-1.1,0.3-1.4,0.8v3.5h-0.8v-4.8h0.8v0.7c0.4-0.5,1.1-0.8,1.7-0.8
			c0.7-0.1,1.4,0.4,1.5,1.2c0,0.1,0,0.3,0,0.4v3.4L252.1,290.2z"/>
		<path d="M253.6,290.4l2.4-7.1h0.6l-2.4,7.1H253.6z"/>
		<path d="M183.5,295.5c1,0,2,0.4,2.6,1.2l-0.7,0.4c-0.5-0.6-1.2-0.9-1.9-0.9c-1.5,0.1-2.6,1.4-2.6,2.9c0.1,1.4,1.2,2.5,2.6,2.6
			c0.7,0,1.3-0.3,1.8-0.7v-1.4H183v-0.7h3.1v2.4c-0.7,0.7-1.6,1.2-2.6,1.1c-1.9-0.1-3.4-1.7-3.3-3.6
			C180.3,297,181.7,295.6,183.5,295.5L183.5,295.5z"/>
		<path d="M189.5,297.3c1.3,0,2.3,1.1,2.3,2.4c0,0.1,0,0.1,0,0.2v0.2h-3.9c0,0.9,0.8,1.7,1.7,1.7c0,0,0,0,0,0c0.6,0,1.1-0.2,1.5-0.6
			l0.4,0.5c-0.5,0.5-1.2,0.8-1.9,0.7c-1.4-0.1-2.5-1.3-2.4-2.7C187.2,298.4,188.2,297.4,189.5,297.3L189.5,297.3z M187.9,299.5h3.2
			c0-0.9-0.7-1.6-1.5-1.6c0,0,0,0-0.1,0C188.6,297.9,187.9,298.7,187.9,299.5z"/>
		<path d="M193.2,301.2v-3.2h-0.8v-0.7h0.8v-1.3h0.8v1.3h1v0.7h-1v3c0,0.4,0.2,0.6,0.5,0.6c0.2,0,0.4-0.1,0.5-0.2l0.2,0.6
			c-0.2,0.2-0.6,0.3-0.9,0.3c-0.6,0-1-0.4-1.1-0.9C193.2,301.4,193.2,301.3,193.2,301.2z"/>
		<path d="M195.2,302.4l2.4-7.1h0.6l-2.4,7.1H195.2z"/>
		<path d="M199,302.2v-6.7h2.7c1.1,0,2,0.9,2,2s-0.9,2-2,2h-1.9v2.6L199,302.2z M201.6,296.3h-1.8v2.5h1.8c0.7,0,1.3-0.6,1.3-1.3
			C202.9,296.9,202.3,296.3,201.6,296.3z"/>
		<path d="M204.4,299.8c0.1-1.3,1.2-2.3,2.5-2.2c1.3,0.1,2.3,1.2,2.2,2.5c-0.1,1.3-1.1,2.2-2.4,2.2c-1.3,0-2.4-1-2.4-2.3
			C204.4,300,204.4,299.9,204.4,299.8z M208.4,299.8c-0.1-0.9-1-1.5-1.9-1.4c-0.9,0.1-1.5,1-1.4,1.9c0.1,0.8,0.8,1.4,1.6,1.4
			c0.9,0,1.6-0.8,1.6-1.8C208.4,299.9,208.4,299.9,208.4,299.8L208.4,299.8z"/>
		<path d="M210.4,301.1c0.4,0.4,1,0.7,1.6,0.7c0.7,0,1.1-0.3,1.1-0.8s-0.6-0.7-1.2-0.9c-0.8-0.2-1.8-0.4-1.8-1.4
			c0-0.8,0.6-1.4,1.8-1.4c0.7,0,1.3,0.2,1.8,0.7l-0.4,0.5c-0.4-0.4-0.9-0.6-1.4-0.6c-0.7,0-1.1,0.3-1.1,0.7s0.6,0.6,1.2,0.8
			c0.8,0.2,1.8,0.4,1.8,1.5c0,0.8-0.6,1.5-1.9,1.5c-0.7,0-1.4-0.2-1.9-0.8L210.4,301.1z"/>
		<path d="M215.2,301.2v-3.2h-0.8v-0.7h0.8v-1.3h0.8v1.3h1v0.7h-1v3c0,0.4,0.2,0.6,0.5,0.6c0.2,0,0.4-0.1,0.5-0.2l0.2,0.6
			c-0.2,0.2-0.6,0.3-0.9,0.3c-0.6,0-1-0.4-1.1-0.9C215.2,301.4,215.2,301.3,215.2,301.2z"/>
		<path d="M217.2,302.4l2.4-7.1h0.6l-2.4,7.1H217.2z"/>
		<path d="M221,302.2v-6.7h2.7c1.1,0,2,0.9,2,2s-0.9,2-2,2h-1.9v2.6L221,302.2z M223.6,296.3h-1.8v2.5h1.8c0.7,0,1.3-0.6,1.3-1.3
			C224.8,296.9,224.3,296.3,223.6,296.3L223.6,296.3L223.6,296.3z"/>
		<path d="M230.1,302.2v-0.7c-0.4,0.5-1.1,0.8-1.7,0.8c-0.7,0.1-1.4-0.4-1.5-1.2c0-0.1,0-0.3,0-0.4v-3.4h0.8v3.2
			c0,0.9,0.4,1.1,1.1,1.1c0.6,0,1.1-0.3,1.4-0.7v-3.5h0.8v4.8L230.1,302.2z"/>
		<path d="M232.5,301.2v-3.2h-0.8v-0.7h0.8v-1.3h0.8v1.3h1v0.7h-1v3c0,0.4,0.2,0.6,0.5,0.6c0.2,0,0.4-0.1,0.5-0.2l0.2,0.6
			c-0.2,0.2-0.6,0.3-0.9,0.3c-0.6,0-1-0.4-1.1-0.9C232.5,301.4,232.5,301.3,232.5,301.2z"/>
		<path d="M234.5,302.4l2.4-7.1h0.6l-2.4,7.1H234.5z"/>
		<path d="M238.2,302.2v-6.7h2.3c1.8-0.1,3.4,1.3,3.5,3.2c0.1,1.8-1.3,3.4-3.2,3.5c-0.1,0-0.2,0-0.4,0H238.2z M239.1,301.5h1.4
			c1.4-0.1,2.5-1.3,2.4-2.8c-0.1-1.3-1.1-2.4-2.4-2.4h-1.4V301.5z"/>
		<path d="M247.3,297.3c1.3,0,2.3,1.1,2.3,2.4c0,0.1,0,0.1,0,0.2v0.2h-3.9c0,0.9,0.8,1.7,1.7,1.7c0,0,0,0,0,0c0.6,0,1.1-0.2,1.5-0.6
			l0.4,0.5c-0.5,0.5-1.2,0.8-1.9,0.7c-1.4-0.1-2.5-1.3-2.4-2.7C245,298.4,246,297.4,247.3,297.3L247.3,297.3z M245.7,299.5h3.2
			c0-0.9-0.7-1.6-1.5-1.6c0,0,0,0-0.1,0C246.4,297.9,245.7,298.7,245.7,299.5L245.7,299.5z"/>
		<path d="M250.9,302.2v-6.7h0.8v6.7H250.9z"/>
		<path d="M255.2,297.3c1.3,0,2.3,1.1,2.3,2.4c0,0.1,0,0.1,0,0.2v0.2h-3.9c0,0.9,0.8,1.7,1.7,1.7c0,0,0,0,0,0c0.6,0,1.1-0.2,1.5-0.6
			l0.4,0.5c-0.5,0.5-1.2,0.8-1.9,0.7c-1.4-0.1-2.5-1.3-2.4-2.7C252.9,298.4,253.9,297.4,255.2,297.3L255.2,297.3z M253.6,299.5h3.2
			c0-0.9-0.7-1.6-1.5-1.6c0,0,0,0-0.1,0C254.3,297.9,253.6,298.7,253.6,299.5z"/>
		<path d="M258.9,301.2v-3.2h-0.8v-0.7h0.8v-1.3h0.8v1.3h1v0.7h-1v3c0,0.4,0.2,0.6,0.5,0.6c0.2,0,0.4-0.1,0.5-0.2l0.2,0.6
			c-0.2,0.2-0.6,0.3-0.9,0.3c-0.6,0-1-0.4-1.1-0.9C258.9,301.4,258.9,301.3,258.9,301.2z"/>
		<path d="M263.8,297.3c1.3,0,2.3,1.1,2.3,2.4c0,0.1,0,0.1,0,0.2v0.2h-3.9c0,0.9,0.8,1.7,1.7,1.7c0,0,0,0,0,0c0.6,0,1.1-0.2,1.5-0.6
			l0.4,0.5c-0.5,0.5-1.2,0.8-1.9,0.7c-1.4-0.1-2.5-1.3-2.4-2.7C261.5,298.4,262.5,297.4,263.8,297.3L263.8,297.3z M262.2,299.5h3.2
			c0-0.9-0.7-1.6-1.5-1.6c0,0,0,0-0.1,0C262.9,297.9,262.2,298.7,262.2,299.5z"/>
		<path class="st1" d="M120.9,255.7c0.2,0.3,0.6,0.5,1,0.5c0.6,0,1-0.4,1.1-0.9c0-0.1,0-0.1,0-0.2v-3.7h0.7v3.7
			c0.1,0.9-0.5,1.6-1.4,1.7c-0.1,0-0.2,0-0.3,0c-0.5,0-1-0.2-1.4-0.6L120.9,255.7z"/>
		<path class="st1" d="M124.9,255.4c0.4,0.5,1,0.8,1.7,0.8c1,0,1.3-0.5,1.3-0.9c0-0.6-0.7-0.8-1.3-1c-0.9-0.2-1.8-0.5-1.8-1.5
			c0-0.9,0.8-1.5,1.8-1.5c0.7,0,1.4,0.2,1.9,0.8l-0.4,0.5c-0.4-0.4-1-0.7-1.6-0.6c-0.6,0-1.1,0.4-1.1,0.9s0.6,0.7,1.3,0.9
			c0.9,0.2,1.9,0.5,1.9,1.6c0,0.8-0.5,1.6-2,1.6c-0.8,0-1.5-0.3-2-0.9L124.9,255.4z"/>
		<path class="st1" d="M130.5,95.5c0.2,0.3,0.6,0.5,1,0.5c0.6,0,1-0.4,1.1-0.9c0-0.1,0-0.1,0-0.2v-3.7h0.7V95
			c0.1,0.9-0.5,1.6-1.4,1.7c-0.1,0-0.2,0-0.3,0c-0.5,0-1-0.2-1.4-0.6L130.5,95.5z"/>
		<path class="st1" d="M134.6,95.3c0.4,0.5,1,0.8,1.7,0.8c0.9,0,1.2-0.5,1.2-0.9c0-0.6-0.6-0.8-1.4-1c-0.9-0.2-1.8-0.5-1.8-1.5
			c0-0.9,0.8-1.5,1.8-1.5c0.7,0,1.4,0.2,1.9,0.8l-0.4,0.5c-0.4-0.4-1-0.7-1.5-0.6c-0.6,0-1.1,0.3-1.1,0.8s0.6,0.7,1.3,0.9
			c0.9,0.2,1.9,0.5,1.9,1.6c0,0.8-0.5,1.6-2,1.6c-0.8,0-1.5-0.3-2.1-0.8L134.6,95.3z"/>
		<path class="st1" d="M130.3,178.9c0.2,0.3,0.6,0.5,1,0.5c0.6,0,1-0.4,1.1-0.9c0-0.1,0-0.1,0-0.2v-3.7h0.6v3.7
			c0.1,0.9-0.6,1.6-1.4,1.7c-0.1,0-0.2,0-0.3,0c-0.5,0-1-0.2-1.4-0.6L130.3,178.9z"/>
		<path class="st1" d="M134.4,178.7c0.4,0.5,1,0.8,1.7,0.8c1,0,1.2-0.5,1.2-0.9c0-0.6-0.6-0.8-1.4-1c-0.9-0.2-1.8-0.5-1.8-1.5
			c0-0.9,0.8-1.5,1.8-1.5c0.7,0,1.4,0.2,1.9,0.8l-0.4,0.5c-0.4-0.4-1-0.7-1.5-0.6c-0.6,0-1.1,0.3-1.1,0.8s0.6,0.7,1.3,0.9
			c0.9,0.2,1.9,0.5,1.9,1.6c0,0.8-0.5,1.6-2,1.6c-0.8,0-1.5-0.3-2-0.8L134.4,178.7z"/>
		<g id="user-question-mark">
			<g id="Isolation_Mode">
				<path d="M20,195.1L20,195.1c0.3,0,0.4-0.1,0.5-0.3l2.1-9.2c0.2-0.8,0.7-1.4,1.4-1.9c1.8-1,3.7-1.7,5.7-2.1
					c1.7,1.3,4.1,1.3,5.8,0c1.1,0.2,2.2,0.5,3.3,0.9c0,0,0.1,0,0.1,0c0.2,0,0.4-0.2,0.4-0.4c0-0.2-0.1-0.3-0.2-0.4
					c-0.9-0.3-1.8-0.6-2.7-0.8c1.7-1.8,2.7-4.3,2.6-6.8c0-4.1-2.3-6.5-6.3-6.5s-6.3,2.4-6.3,6.5c-0.1,2.5,0.9,5,2.6,6.8
					c-1.9,0.4-3.7,1.1-5.4,2c-0.9,0.5-1.5,1.4-1.8,2.3l-2.1,9.2c-0.1,0.2,0,0.4,0.2,0.5C19.9,195.1,20,195.1,20,195.1z M27.1,174.3
					c0-4.9,3.5-5.7,5.5-5.7s5.5,0.7,5.5,5.7c0.1,2.6-1,5-2.9,6.7c-1.5,1.2-3.7,1.2-5.1,0l0,0C28,179.3,26.9,176.9,27.1,174.3
					L27.1,174.3z"/>
				<path d="M33,193.6c0,5.6,4.5,10.1,10.1,10.1s10.1-4.5,10.1-10.1s-4.5-10.1-10.1-10.1l0,0C37.5,183.5,33,188,33,193.6z
					 M43.1,184.2c5.2,0,9.4,4.2,9.4,9.4s-4.2,9.4-9.4,9.4s-9.4-4.2-9.4-9.4c0,0,0,0,0,0C33.8,188.4,37.9,184.3,43.1,184.2
					L43.1,184.2z"/>
				<path d="M40,191.5c0.2,0,0.4-0.2,0.4-0.4c0-1.5,1.2-2.7,2.7-2.7l0,0c1.5,0,2.7,1.2,2.8,2.7c0,1.1-0.6,2.1-1.7,2.5
					c-0.9,0.4-1.5,1.3-1.5,2.4v0.3c0,0.2,0.2,0.4,0.4,0.4c0.2,0,0.4-0.2,0.4-0.4c0,0,0,0,0,0V196c0-0.7,0.4-1.3,1-1.7
					c1.8-0.8,2.6-2.9,1.8-4.6c-0.6-1.3-1.8-2.1-3.2-2.1l0,0c-1.9,0-3.5,1.6-3.5,3.5C39.5,191.3,39.7,191.5,40,191.5
					C39.9,191.5,40,191.5,40,191.5z"/>
				<path d="M43.1,198.2c-0.3,0-0.5,0.2-0.4,0.5c0,0.3,0.2,0.5,0.5,0.4c0.3,0,0.4-0.2,0.4-0.5C43.6,198.5,43.4,198.2,43.1,198.2
					C43.1,198.2,43.1,198.2,43.1,198.2z"/>
			</g>
		</g>
		<g id="user-question-mark-2">
			<g id="Isolation_Mode-2">
				<path d="M19.1,273.8L19.1,273.8c0.3,0,0.4-0.1,0.5-0.3l2.1-9.2c0.2-0.8,0.7-1.4,1.4-1.9c1.8-1,3.7-1.7,5.7-2.1
					c1.7,1.3,4.1,1.3,5.8,0c1.1,0.2,2.2,0.5,3.2,0.9H38c0.2,0,0.3-0.1,0.4-0.2c0.1-0.2,0-0.4-0.2-0.5c0,0,0,0,0,0
					c-0.9-0.3-1.8-0.6-2.7-0.8c1.7-1.8,2.7-4.2,2.6-6.8c0-4.1-2.3-6.5-6.3-6.5s-6.3,2.4-6.3,6.5c-0.1,2.5,0.9,5,2.6,6.8
					c-1.9,0.4-3.7,1-5.4,2c-0.9,0.5-1.5,1.4-1.8,2.3l-2.1,9.2C18.8,273.5,18.9,273.7,19.1,273.8C19.1,273.8,19.1,273.8,19.1,273.8z
					 M26.2,253c0-4.9,3.4-5.7,5.5-5.7s5.5,0.7,5.5,5.7c0.1,2.6-1,5-2.9,6.7c-1.5,1.2-3.6,1.2-5.1,0l0,0
					C27.2,258,26.1,255.6,26.2,253z"/>
				<path d="M32.1,272.3c0,5.6,4.5,10.1,10.1,10.1s10.2-4.5,10.2-10.1s-4.5-10.1-10.2-10.1c0,0,0,0,0,0
					C36.6,262.1,32.1,266.7,32.1,272.3z M42.2,262.9c5.2,0,9.4,4.2,9.4,9.4c0,5.2-4.2,9.4-9.4,9.4s-9.4-4.2-9.4-9.4c0,0,0,0,0,0
					C32.9,267.1,37.1,262.9,42.2,262.9z"/>
				<path d="M39.1,270.2c0.2,0,0.4-0.2,0.4-0.4l0,0c0-1.5,1.2-2.7,2.7-2.7c0,0,0,0,0,0l0,0c1.5,0,2.7,1.2,2.8,2.7
					c0,1.1-0.6,2.1-1.7,2.5c-0.9,0.4-1.5,1.4-1.5,2.4v0.3c0,0.2,0.2,0.4,0.4,0.4c0.2,0,0.4-0.2,0.4-0.4l0,0v-0.3
					c0-0.7,0.4-1.4,1-1.7c1.8-0.8,2.6-2.8,1.8-4.6c-0.6-1.3-1.8-2.1-3.2-2.1l0,0c-1.9,0-3.5,1.6-3.5,3.5l0,0
					C38.7,270,38.9,270.2,39.1,270.2C39.1,270.2,39.1,270.2,39.1,270.2z"/>
				<path d="M42.2,276.9c-0.3,0-0.5,0.2-0.5,0.4c0,0,0,0,0,0c0,0.3,0.3,0.4,0.5,0.4c0.2,0,0.4-0.2,0.4-0.4
					C42.7,277.1,42.5,276.9,42.2,276.9C42.3,276.9,42.3,276.9,42.2,276.9z"/>
			</g>
		</g>
		<g id="device-phone">
			<g id="Isolation_Mode-3">
				<path d="M79.5,279.3h-3.9c-0.3,0-0.5,0.2-0.5,0.5s0.2,0.5,0.5,0.5h3.9c0.3,0,0.5-0.2,0.5-0.5S79.8,279.3,79.5,279.3z"/>
				<path d="M67.9,282.2h19.3c0.8,0,1.4-0.7,1.4-1.5V244c0-0.8-0.6-1.4-1.4-1.4H67.9c-0.8,0-1.4,0.6-1.4,1.4v36.7
					C66.5,281.5,67.1,282.2,67.9,282.2z M87.2,281.2H67.9c-0.3,0-0.5-0.2-0.5-0.5l0,0v-2.5c0.2,0.1,0.3,0.1,0.5,0.1h19.3
					c0.2,0,0.3,0,0.5-0.1v2.5C87.7,281,87.5,281.2,87.2,281.2L87.2,281.2z M87.7,276.8c0,0.3-0.2,0.5-0.5,0.5H67.9
					c-0.3,0-0.5-0.2-0.5-0.5v-29c0-0.3,0.2-0.5,0.5-0.5h19.3c0.3,0,0.5,0.2,0.5,0.5L87.7,276.8z M67.9,243.5h19.3
					c0.3,0,0.5,0.2,0.5,0.5v2.5c-0.2-0.1-0.3-0.1-0.5-0.1H67.9c-0.2,0-0.3,0-0.5,0.1V244C67.4,243.7,67.7,243.5,67.9,243.5z"/>
				<circle cx="69.8" cy="245" r="1"/>
			</g>
		</g>
		<g id="device-laptop">
			<g id="Isolation_Mode-4">
				<path d="M90,114.2h-5.8c-0.3,0-0.5,0.2-0.5,0.5c0,0,0,0,0,0c0,0.3,0.2,0.5,0.5,0.5H90c0.3,0,0.5-0.2,0.5-0.5
					C90.5,114.4,90.3,114.2,90,114.2L90,114.2z"/>
				<path d="M106.9,112.5v-21c0-0.3-0.2-0.5-0.5-0.5H67.8c-0.3,0-0.5,0.2-0.5,0.5v21c-0.6,0.5-1,1.3-1,2.2c0,0.9,0.5,1.8,1.2,2.3
					c0.1,0,0.2,0.1,0.2,0.1h38.6c0.1,0,0.2,0,0.2-0.1c0.8-0.5,1.3-1.4,1.2-2.3C107.9,113.8,107.5,113,106.9,112.5z M105.9,92v20.3
					H68.3V92L105.9,92z M106.2,116.1H67.9c-0.8-0.8-0.8-2-0.1-2.8c0,0,0,0,0.1-0.1h38.3c0.8,0.8,0.8,2,0.1,2.8
					C106.3,116.1,106.3,116.1,106.2,116.1L106.2,116.1z"/>
			</g>
		</g>
		<g id="security-bot">
			<g id="bb33dc7d-97d4-4aba-b3b9-98db9ef21d11">
				<path d="M616.2,73.2c0.8,0,1.5-0.7,1.5-1.5V61c0-0.8-0.7-1.5-1.5-1.5c0,0,0,0,0,0l0,0c-0.9,0-1.5,0.7-1.6,1.5v10.6
					C614.7,72.5,615.3,73.2,616.2,73.2z M615.5,61c0-0.4,0.3-0.7,0.7-0.7c0.4,0,0.7,0.3,0.7,0.7c0,0,0,0,0,0v10.7
					c0,0.4-0.3,0.7-0.7,0.7c0,0,0,0,0,0l0,0c-0.4,0-0.7-0.3-0.7-0.7L615.5,61z"/>
				<path d="M585,73.2c0.8,0,1.5-0.7,1.5-1.5V61c0-0.8-0.8-1.5-1.6-1.5c-0.8,0-1.4,0.6-1.4,1.4v10.7C583.4,72.5,584.1,73.2,585,73.2
					L585,73.2z M584.2,61c0-0.4,0.3-0.7,0.7-0.7c0.4,0,0.7,0.3,0.7,0.7v10.7c0,0.4-0.3,0.7-0.7,0.7c-0.4,0-0.7-0.3-0.7-0.7V61z"/>
				<path d="M605.9,67.1c2.6-0.1,4.6-2.3,4.4-4.9c-0.1-2.4-2-4.3-4.4-4.4c-2.5,0-4.6,2-4.6,4.6v0.1C601.3,64.9,603.3,67,605.9,67.1
					L605.9,67.1z M605.9,58.6c2.1,0,3.9,1.6,3.9,3.7c0,2.1-1.6,3.9-3.7,3.9c-2.1,0-3.9-1.6-3.9-3.7c0-0.1,0-0.1,0-0.2
					C602.2,60.3,603.8,58.6,605.9,58.6z"/>
				<path d="M593.7,75.4c0.5,0.7,1.5,0.8,2.1,0.3c0,0,0,0,0,0c0.1-0.1,0.2-0.2,0.3-0.3l2.5-3.1l2.5,3.1c0.3,0.4,0.8,0.6,1.3,0.6
					c0.5,0,0.9-0.2,1.2-0.6l2.6-3.1l2.5,3.1c0.3,0.4,0.7,0.6,1.2,0.6c0.4,0,0.7-0.1,1-0.4c0.7-0.5,0.8-1.5,0.3-2.2l-3.8-4.6
					c-0.3-0.4-0.7-0.6-1.1-0.6c-0.5,0-0.9,0.2-1.2,0.6l-2.6,3.1l-2.6-3.1c-0.3-0.4-0.7-0.6-1.2-0.6l0,0c-0.5,0-0.9,0.2-1.2,0.6
					l-2.6,3.1l-2.5-3.1c-0.2-0.3-0.6-0.6-1-0.6c-0.4,0-0.8,0.1-1.2,0.4c-0.3,0.2-0.5,0.6-0.6,1c-0.1,0.4,0.1,0.9,0.4,1.2L593.7,75.4
					z M590.7,69.3c0.1-0.1,0.3-0.2,0.5-0.2h0.1c0.2,0,0.3,0.1,0.4,0.3l3.2,3.9l3.2-3.9c0.1-0.2,0.3-0.3,0.5-0.3
					c0.2,0,0.4,0.1,0.5,0.3l3.2,3.9l3.2-3.9c0.1-0.2,0.4-0.3,0.6-0.2c0.2,0,0.4,0.1,0.5,0.2l3.8,4.6c0.2,0.3,0.2,0.8-0.1,1h0
					c-0.1,0.1-0.2,0.2-0.4,0.2c-0.2,0-0.4-0.1-0.5-0.3l-3.2-3.9l-3.2,4c-0.1,0.2-0.3,0.2-0.5,0.3c-0.2,0-0.4-0.1-0.6-0.3l-3.3-4
					l-3.2,4c-0.3,0.3-0.7,0.3-1,0.1l-0.1-0.1l-3.7-4.6c-0.1-0.2-0.2-0.4-0.2-0.6C590.5,69.6,590.6,69.5,590.7,69.3L590.7,69.3z"/>
				<path d="M595.3,67.1c2.6,0,4.7-2.1,4.7-4.6c0-2.6-2.1-4.7-4.6-4.7c-2.6,0-4.7,2.1-4.7,4.6c0,0,0,0,0,0l0,0
					C590.6,65,592.7,67,595.3,67.1C595.2,67.1,595.2,67.1,595.3,67.1L595.3,67.1z M595.3,58.6c2.1,0,3.8,1.7,3.8,3.8
					c0,2.1-1.7,3.8-3.8,3.8c-2.1,0-3.8-1.7-3.8-3.8c0,0,0,0,0,0l0,0C591.4,60.3,593.1,58.6,595.3,58.6
					C595.2,58.6,595.2,58.6,595.3,58.6L595.3,58.6z"/>
				<path d="M589.7,79.2h21.7c1.2,0,2.2-1,2.2-2.2l0.1-21.4c0-1.2-1-2.3-2.2-2.3h-21.7c-1.2,0-2.2,1-2.2,2.3L587.5,77
					C587.5,78.2,588.4,79.2,589.7,79.2z M588.4,55.6c0-0.8,0.6-1.4,1.4-1.4c0,0,0,0,0,0h21.7c0.8,0,1.4,0.7,1.4,1.4c0,0,0,0,0,0
					L612.7,77c0,0.8-0.6,1.4-1.3,1.4c0,0,0,0,0,0h-21.7c-0.8,0-1.4-0.6-1.4-1.4c0,0,0,0,0,0L588.4,55.6z"/>
			</g>
		</g>
		<g id="hw-server-stack">
			<g id="Isolation_Mode-5">
				<path d="M216.9,271.5c0.3,0,0.5-0.2,0.5-0.5c0,0,0,0,0,0v-2.9c0-0.3-0.2-0.5-0.5-0.5l0,0c-0.3,0-0.5,0.2-0.5,0.5v2.9
					C216.4,271.3,216.6,271.5,216.9,271.5C216.8,271.5,216.8,271.5,216.9,271.5z"/>
				<path d="M213,271.5c0.3,0,0.5-0.2,0.5-0.5c0,0,0,0,0,0v-2.9c0-0.3-0.2-0.5-0.5-0.5s-0.5,0.2-0.5,0.5v2.9
					C212.5,271.3,212.6,271.5,213,271.5C212.9,271.5,213,271.5,213,271.5z"/>
				<path d="M209.1,271.5c0.3,0,0.5-0.2,0.5-0.5c0,0,0,0,0,0v-2.9c0-0.3-0.2-0.5-0.5-0.5s-0.5,0.2-0.5,0.5v2.9
					C208.6,271.3,208.8,271.5,209.1,271.5C209.1,271.5,209.1,271.5,209.1,271.5z"/>
				<path d="M186.9,271.5c1.1,0,1.9-0.9,1.9-1.9s-0.9-1.9-1.9-1.9c-1.1,0-1.9,0.9-1.9,1.9l0,0C185,270.7,185.9,271.5,186.9,271.5z
					 M186.9,268.6c0.6,0,1,0.4,1,1s-0.4,1-1,1s-1-0.4-1-1S186.4,268.6,186.9,268.6z"/>
				<path d="M183.4,273.9h35.9c1,0,1.8-0.8,1.8-1.8c0,0,0,0,0,0v-5c0-0.5-0.2-1-0.6-1.4c0.4-0.3,0.6-0.8,0.6-1.4v-5
					c0-0.5-0.2-1-0.6-1.4c0.4-0.3,0.6-0.8,0.6-1.4v-5c0-1-0.8-1.9-1.9-1.9l0,0h-35.9c-1,0-1.8,0.8-1.8,1.8v5.1c0,0.5,0.2,1,0.6,1.3
					c-0.4,0.3-0.6,0.8-0.6,1.3v5c0,0.5,0.2,1,0.6,1.3c-0.4,0.3-0.6,0.8-0.6,1.3v5C181.6,273.1,182.4,273.9,183.4,273.9
					C183.4,273.9,183.4,273.9,183.4,273.9z M182.6,256.7v-5.1c0-0.5,0.4-0.9,0.9-0.9h35.9c0.5,0,0.9,0.4,0.9,0.9v5
					c0,0.5-0.4,0.9-0.8,0.9c0,0,0,0,0,0h-35.9C183,257.5,182.6,257.1,182.6,256.7L182.6,256.7z M182.6,264.4v-5
					c0-0.5,0.4-0.9,0.9-0.9h35.9c0.5,0,0.9,0.4,0.9,0.9l0,0v5c0,0.5-0.4,0.9-0.9,0.9h-35.9C183,265.2,182.6,264.9,182.6,264.4
					L182.6,264.4z M219.3,266.2c0.5,0,0.9,0.4,0.9,0.9l0,0v5c0,0.5-0.4,0.9-0.9,0.9h-35.9c-0.5,0-0.9-0.4-0.9-0.9v-5
					c0-0.5,0.4-0.9,0.9-0.9L219.3,266.2z"/>
				<path d="M216.9,260c-0.3,0-0.5,0.2-0.5,0.5l0,0v2.9c0,0.3,0.2,0.5,0.5,0.5c0.3,0,0.5-0.2,0.5-0.5l0,0v-2.9
					C217.3,260.2,217.1,260,216.9,260C216.9,260,216.9,260,216.9,260z"/>
				<path d="M213,260c-0.3,0-0.5,0.2-0.5,0.5c0,0,0,0,0,0v2.9c0,0.3,0.2,0.5,0.5,0.5s0.5-0.2,0.5-0.5v-2.9
					C213.5,260.2,213.3,260,213,260C213,260,213,260,213,260z"/>
				<path d="M209.1,260c-0.3,0-0.5,0.2-0.5,0.5c0,0,0,0,0,0v2.9c0,0.3,0.2,0.5,0.5,0.5s0.5-0.2,0.5-0.5v-2.9
					C209.7,260.2,209.5,260,209.1,260C209.2,260,209.2,260,209.1,260z"/>
				<path d="M186.9,259.9c-1.1,0-1.9,0.9-1.9,1.9s0.9,1.9,1.9,1.9c1.1,0,1.9-0.9,1.9-1.9l0,0C188.9,260.8,188,259.9,186.9,259.9
					C187,259.9,186.9,259.9,186.9,259.9z M186.9,262.8c-0.6,0-1-0.4-1-1s0.4-1,1-1s1,0.4,1,1C187.9,262.4,187.5,262.8,186.9,262.8
					L186.9,262.8z"/>
				<path d="M216.9,252.2c-0.3,0-0.5,0.2-0.5,0.5v2.9c0,0.3,0.2,0.5,0.5,0.5c0.3,0,0.5-0.2,0.5-0.5c0,0,0,0,0,0v-2.9
					C217.3,252.4,217.1,252.2,216.9,252.2C216.9,252.2,216.9,252.2,216.9,252.2z"/>
				<path d="M213,252.2c-0.3,0-0.5,0.2-0.5,0.5c0,0,0,0,0,0v2.9c0,0.3,0.2,0.5,0.5,0.5s0.5-0.2,0.5-0.5l0,0v-2.9
					C213.5,252.4,213.3,252.2,213,252.2C213,252.2,213,252.2,213,252.2z"/>
				<path d="M209.1,252.2c-0.3,0-0.5,0.2-0.5,0.5c0,0,0,0,0,0v2.9c0,0.3,0.2,0.5,0.5,0.5s0.5-0.2,0.5-0.5l0,0v-2.9
					C209.7,252.4,209.5,252.2,209.1,252.2C209.2,252.2,209.2,252.2,209.1,252.2z"/>
				<path d="M186.9,252.2c-1.1,0-1.9,0.9-1.9,1.9s0.9,1.9,1.9,1.9c1.1,0,1.9-0.9,1.9-1.9v0C188.9,253.1,188,252.2,186.9,252.2
					C187,252.2,186.9,252.2,186.9,252.2z M186.9,255.1c-0.6,0-1-0.4-1-1s0.4-1,1-1s1,0.4,1,1S187.5,255.1,186.9,255.1z"/>
			</g>
		</g>
		<g id="user">
			<g id="Isolation_Mode-6">
				<path class="st2" d="M587,148L587,148c0.2,0,0.4-0.1,0.4-0.3l2.3-10.2c0.3-0.9,0.8-1.6,1.6-2.1c2-1.1,4.2-1.9,6.5-2.3
					c1.9,1.5,4.6,1.5,6.5,0c2.3,0.4,4.5,1.2,6.5,2.3c0.8,0.5,1.4,1.2,1.6,2.1l2.3,10.2c0,0.2,0.2,0.3,0.3,0.3h0.1
					c0.2,0,0.3-0.2,0.3-0.4l-2.3-10.3c-0.3-1.1-1-1.9-1.9-2.5c-1.9-1.1-4-1.9-6.2-2.3c2-2,3.1-4.8,3-7.6c0-4.5-2.5-7.1-7-7.1
					s-7,2.6-7,7.1c-0.1,2.8,1,5.6,3,7.6c-2.2,0.4-4.3,1.2-6.2,2.3c-0.9,0.6-1.6,1.5-2,2.5l-2.3,10.2C586.6,147.8,586.7,148,587,148
					C586.9,148,587,148,587,148z M594.9,124.9c0-5.6,3.9-6.4,6.3-6.4s6.3,0.8,6.3,6.4c0.1,2.9-1.1,5.7-3.3,7.5l0,0
					c-1.7,1.4-4.2,1.4-5.9,0l0,0C596,130.6,594.8,127.8,594.9,124.9L594.9,124.9z"/>
			</g>
		</g>
		<polyline class="st3" points="73.5,14.2 105.1,14.2 105.1,9.7 73.5,9.7 73.5,14.2 73.5,33.8 105.1,33.8 105.1,14.2 		"/>
		<line class="st3" x1="75.7" y1="11.9" x2="78" y2="11.9"/>
		<line class="st3" x1="80.3" y1="11.9" x2="82.5" y2="11.9"/>
		<line class="st3" x1="84.8" y1="11.9" x2="87" y2="11.9"/>
		<path d="M102.9,11.9L102.9,11.9 M102.9,11.2c-0.4,0-0.8,0.4-0.8,0.8s0.4,0.8,0.8,0.8c0.4,0,0.8-0.4,0.8-0.8S103.3,11.2,102.9,11.2
			L102.9,11.2z"/>
		<path class="st4" d="M78.1,21.2c0,1.6,1.3,2.8,2.8,2.9c1.6,0,2.8-1.3,2.9-2.8c0-1.6-1.2-2.8-2.8-2.9l0,0
			C79.4,18.4,78.2,19.7,78.1,21.2C78.2,21.2,78.2,21.2,78.1,21.2L78.1,21.2z"/>
		<path class="st4" d="M81,18.4v2.8l2,2"/>
		<path class="st4" d="M78.2,26.2h5.6"/>
		<path class="st4" d="M78.2,27.9h5.6"/>
		<path class="st4" d="M78.2,29.5h5.6"/>
		<path class="st4" d="M86.8,30V18"/>
		<path d="M91.4,27.2v2.1H90v-2.1H91.4 M91.8,26.4h-2.3c-0.2,0-0.3,0.1-0.3,0.3v3.1c0,0.2,0.1,0.3,0.3,0.3h2.3
			c0.2,0,0.3-0.1,0.3-0.3v-3.1C92.1,26.5,92,26.4,91.8,26.4C91.9,26.4,91.9,26.4,91.8,26.4L91.8,26.4z"/>
		<path d="M95.5,23.3v6h-1.2v-6H95.5 M95.9,22.5h-2.1c-0.2,0-0.4,0.2-0.4,0.4v6.7c0,0.2,0.2,0.4,0.4,0.4h2c0.2,0,0.4-0.2,0.4-0.4
			c0,0,0,0,0,0V23C96.2,22.7,96.2,22.6,95.9,22.5L95.9,22.5z"/>
		<path d="M99.7,25.7v3.6h-1.2v-3.6H99.7 M100.2,24.9H98c-0.2,0-0.3,0.2-0.3,0.4v4.4c0,0.2,0.1,0.3,0.3,0.4h2.2
			c0.2,0,0.3-0.2,0.3-0.4v-4.4C100.5,25,100.4,24.9,100.2,24.9z"/>
		<circle class="st4" cx="90.6" cy="23.9" r="1.2"/>
		<circle class="st4" cx="94.9" cy="19.6" r="1.2"/>
		<circle class="st4" cx="99.1" cy="22.5" r="1.2"/>
		<line class="st4" x1="91.5" y1="23" x2="93.9" y2="20.5"/>
		<line class="st4" x1="96" y1="20.1" x2="98.3" y2="21.7"/>
		<g id="cloud">
			<g id="Isolation_Mode-7">
				<path class="st2" d="M314.2,45.7c0.2-0.8,0.3-1.5,0.3-2.3c0-5.5-4.6-10-10.1-10c-4,0-7.7,2.4-9.3,6.1c-4.5-1.7-9.5,0.5-11.3,5
					c-0.3,0.8-0.5,1.7-0.6,2.6c-3.3,0.1-5.9,2.9-5.7,6.2c0.1,3.3,2.9,5.9,6.2,5.7h26.2c4,0,7.3-3.2,7.4-7.2
					C317.3,49.4,316.1,47.2,314.2,45.7L314.2,45.7z M309.9,58.1h-26.2c-2.8,0.1-5.2-2-5.3-4.8c-0.1-2.8,2-5.2,4.8-5.3
					c0.1,0,0.3,0,0.4,0c0.2,0,0.4-0.2,0.4-0.4l0,0c0.1-4.3,3.7-7.8,8-7.7c1,0,2,0.2,3,0.7c0.1,0,0.2,0,0.4,0c0.1,0,0.2-0.1,0.2-0.2
					c1.8-4.8,7.2-7.1,11.9-5.3c3.5,1.4,5.9,4.7,5.9,8.5c0,0.8-0.1,1.6-0.3,2.4c-0.1,0.2,0,0.4,0.2,0.5c1.8,1.2,2.9,3.2,2.9,5.4
					C316.3,55.2,313.4,58.1,309.9,58.1z"/>
			</g>
		</g>
		<g id="network-router">
			<g id="aab69145-9cee-426c-a0cd-c851ce1786d5">
				<path d="M292.3,84.7c0,0.1,0,0.2,0.1,0.3l3.7,3.7c0.1,0.1,0.4,0.1,0.5,0c0,0,0,0,0,0c0.1-0.1,0.1-0.4,0-0.5c0,0,0,0,0,0l0,0
					l-3.1-3h9.2c0.2,0,0.4-0.2,0.4-0.4c0-0.2-0.2-0.4-0.4-0.4h-9.2l3.1-3c0.1-0.2,0.1-0.4-0.1-0.5c-0.1-0.1-0.3-0.1-0.4,0l0,0
					l-3.7,3.7C292.4,84.6,292.3,84.6,292.3,84.7z"/>
				<path d="M285.9,88.1c-0.1,0.1-0.1,0.4,0,0.5c0,0,0,0,0,0c0.1,0.1,0.4,0.1,0.5,0c0,0,0,0,0,0l0,0l3.7-3.6c0.1-0.1,0.1-0.4,0-0.5
					l0,0l-3.7-3.7c-0.1-0.1-0.4-0.1-0.5,0c0,0,0,0,0,0c-0.1,0.1-0.1,0.3,0,0.5l3.1,3h-9.2c-0.2,0-0.4,0.2-0.4,0.4
					c0,0.2,0.2,0.4,0.4,0.4h9.2L285.9,88.1z"/>
				<path d="M294.6,92.5l-3,3.1v-9.4c0-0.2-0.1-0.4-0.3-0.4c-0.2,0-0.4,0.1-0.4,0.3c0,0,0,0.1,0,0.1v9.4l-3-3.1
					c-0.1-0.1-0.4-0.2-0.5,0c-0.1,0.1-0.2,0.4,0,0.5l0,0l0,0l3.6,3.7c0.1,0.1,0.4,0.1,0.5,0c0,0,0,0,0,0l0,0l3.7-3.7
					c0.1-0.1,0.1-0.4,0-0.5C295,92.3,294.8,92.3,294.6,92.5L294.6,92.5z"/>
				<path d="M287.9,77l3-3.1v9.4c0,0.2,0.2,0.3,0.4,0.3c0.2,0,0.3-0.1,0.3-0.3v-9.4l3,3.1c0.1,0.1,0.2,0.1,0.3,0.1
					c0.2,0,0.4-0.2,0.4-0.4c0-0.1,0-0.2-0.1-0.2l-3.6-3.7c-0.1-0.1-0.4-0.1-0.5,0l-3.6,3.7c-0.1,0.1-0.1,0.4,0,0.5
					C287.5,77.1,287.7,77.1,287.9,77L287.9,77z"/>
			</g>
		</g>
		<g id="security-fingerprint">
			<g id="eaa1140b-9aa0-4bb1-a209-2474de7568fb">
				<path d="M338,96L338,96c0.3,0,0.4-0.1,0.5-0.3c0.3-2.9,0.4-5.8,0.1-8.6c0-0.2-0.2-0.4-0.4-0.4c0,0,0,0,0,0
					c-0.2,0-0.4,0.2-0.4,0.4c0.3,2.8,0.3,5.6,0,8.4C337.6,95.8,337.8,96,338,96z"/>
				<path d="M356.1,94.1L356.1,94.1c0.2,0,0.4-0.2,0.4-0.4c0,0,0,0,0,0c0.2-4.3-0.1-8.5-0.8-12.8c0-0.2-0.3-0.4-0.5-0.3
					c-0.2,0-0.3,0.2-0.3,0.4c0.7,4.2,0.9,8.4,0.8,12.6C355.7,93.9,355.8,94.1,356.1,94.1C356.1,94.1,356.1,94.1,356.1,94.1
					L356.1,94.1z"/>
				<path d="M346.4,72.3c-0.6,0-1.2,0.1-1.9,0.2c-2.4,0.5-4.5,1.9-5.9,4c-1.4,2-1.9,4.5-1.4,6.9c0,0,0.1,0.4,0.2,1
					c0,0.2,0.2,0.3,0.4,0.3h0.1c0.2,0,0.4-0.2,0.3-0.5c0,0,0,0,0,0c-0.1-0.6-0.2-1-0.2-1c-0.5-2.2,0-4.5,1.2-6.3
					c2.6-3.9,7.9-5,11.8-2.4c1.5,1,2.6,2.3,3.2,4c0.1,0.2,0.3,0.3,0.5,0.2c0.2-0.1,0.3-0.3,0.2-0.5
					C353.6,74.7,350.2,72.3,346.4,72.3z"/>
				<path d="M336.2,75.5c0.2,0.1,0.4,0.1,0.6-0.1c0,0,0,0,0,0l0,0c3.5-5.3,10.6-6.8,15.9-3.3l0.4,0.3c0.2,0.1,0.4,0,0.6-0.1
					c0.1-0.2,0.1-0.4-0.1-0.5c-2.1-1.5-4.6-2.3-7.2-2.3c-0.8,0-1.7,0.1-2.5,0.2c-3.2,0.6-6,2.6-7.8,5.3
					C336,75.1,336,75.3,336.2,75.5C336.2,75.5,336.2,75.5,336.2,75.5z"/>
				<path d="M357.6,79.3c0.5,2.4,0.8,4.8,0.9,7.2c0,0.2,0.2,0.4,0.4,0.4l0,0c0.2,0,0.4-0.2,0.4-0.4c0,0,0,0,0,0l0,0
					c-0.2-2.4-0.5-4.9-0.9-7.3c-0.4-2-1.4-4-2.7-5.5c-0.2-0.2-0.4-0.2-0.6,0c-0.2,0.1-0.2,0.4-0.1,0.5l0,0
					C356.3,75.6,357.2,77.4,357.6,79.3z"/>
				<path d="M335,91.3c0,0.2,0.2,0.4,0.4,0.4c0.2,0,0.4-0.2,0.4-0.4v0c0-2.5-0.2-5-0.7-7.5c-0.4-2-0.3-4.1,0.5-6.1
					c0.1-0.2,0-0.4-0.2-0.5c-0.2-0.1-0.4,0-0.5,0.2c0,0,0,0,0,0l0,0c-0.8,2.1-0.9,4.3-0.5,6.5C334.8,86.4,335,88.9,335,91.3z"/>
				<path d="M342.3,77.3c-0.2-0.2-0.4-0.2-0.6,0c0,0,0,0,0,0l0,0c-1.4,1.5-1.9,3.5-1.5,5.5c0,0.1,1.6,8.2,0.1,15
					c0,0.2,0.1,0.4,0.3,0.5h0.1c0.2,0,0.4-0.1,0.4-0.3c1.5-7-0.1-15-0.1-15.3c-0.3-1.7,0.2-3.5,1.4-4.8
					C342.5,77.7,342.5,77.5,342.3,77.3L342.3,77.3z"/>
				<path d="M352.8,97.8L352.8,97.8c0.3,0,0.4-0.2,0.5-0.4c0.3-2.1,0.4-4.1,0.4-6.2c0-0.2-0.1-0.4-0.3-0.5c-0.2,0-0.4,0.1-0.5,0.3
					c0,0,0,0.1,0,0.1c0,2-0.1,4.1-0.4,6.1C352.4,97.5,352.5,97.7,352.8,97.8z"/>
				<path d="M352.7,88.5c0,0.2,0.2,0.4,0.4,0.4l0,0c0.2,0,0.4-0.2,0.4-0.4l0,0c-0.1-2.7-0.4-5.4-0.9-8.1c-0.7-3.4-4-5.6-7.5-4.9
					c-0.3,0.1-0.7,0.2-1,0.3c-0.2,0.1-0.3,0.3-0.3,0.5c0,0,0,0,0,0c0.1,0.2,0.3,0.3,0.5,0.3c0,0,0,0,0,0l0,0c2.8-1.1,6,0.3,7.1,3.2
					c0,0,0,0,0,0c0.1,0.3,0.2,0.6,0.2,0.8C352.3,83.1,352.6,85.8,352.7,88.5z"/>
				<path d="M343,99.2c0,0.2,0.1,0.4,0.3,0.5h0.1c0.2,0,0.4-0.1,0.4-0.3v-0.2c0.8-3.5,1-7.1,0.7-10.7c0-0.2-0.1-0.4-0.3-0.5
					c-0.2,0-0.4,0.1-0.5,0.3c0,0,0,0.1,0,0.1c0.3,3.5,0,7-0.7,10.5C343,99,343,99.1,343,99.2z"/>
				<path d="M349.4,99.6L349.4,99.6c0.3,0,0.4-0.1,0.5-0.3c1.7-8.8-0.1-18-0.2-18.4c-0.4-1.8-2.2-3-4-2.6c-0.9,0.2-1.6,0.7-2.1,1.4
					c-0.5,0.7-0.7,1.6-0.5,2.5c0,0,0.3,1.4,0.5,3.4c0,0.2,0.3,0.4,0.5,0.3c0.2,0,0.3-0.2,0.3-0.4l0,0c-0.2-2.1-0.5-3.5-0.5-3.5
					c-0.3-1.4,0.6-2.7,2-3l0,0c1.4-0.3,2.7,0.6,3,2c1.1,5.9,1.2,12,0.2,18C349,99.3,349.2,99.6,349.4,99.6
					C349.4,99.6,349.4,99.6,349.4,99.6z"/>
				<path d="M347.6,92.1c0.1-3.5-0.2-7.1-0.9-10.6c-0.1-0.2-0.3-0.3-0.5-0.3c-0.2,0.1-0.3,0.2-0.3,0.4c0.6,3.4,0.9,6.9,0.9,10.4
					c0,0.2,0.2,0.4,0.4,0.4l0,0C347.5,92.5,347.6,92.3,347.6,92.1C347.6,92.1,347.6,92.1,347.6,92.1z"/>
				<path d="M346.7,94.8c-0.1,1.6-0.4,3.2-0.7,4.8c0,0.2,0.1,0.4,0.3,0.5h0.1c0.2,0,0.4-0.1,0.4-0.3c0.4-1.6,0.6-3.3,0.7-4.9
					c0-0.2-0.1-0.4-0.4-0.4C346.9,94.4,346.8,94.6,346.7,94.8L346.7,94.8z"/>
			</g>
		</g>
		<g id="network-consolidation">
			<g id="f3da0501-e773-4b75-a765-015ad15412e4">
				<path d="M503.4,96.4h6.5c1.1,0,2-0.9,2-2l0,0v-6.5c0-1.1-0.9-2-2-2h-6.5c-1.1,0-2,0.9-2,2l0,0v6.5
					C501.4,95.5,502.3,96.4,503.4,96.4C503.4,96.4,503.4,96.4,503.4,96.4z M502.1,87.9c0-0.7,0.6-1.3,1.3-1.3h6.5
					c0.7,0,1.3,0.6,1.3,1.3l0,0v6.5c0,0.7-0.6,1.3-1.3,1.3h-6.5c-0.7,0-1.3-0.6-1.3-1.3l0,0V87.9z"/>
				<path d="M516.2,83.6h6.5c1.1,0,2-0.9,2-2l0,0v-6.5c0-1.1-0.9-2-2-2h-6.5c-1.1,0-2,0.9-2,2l0,0v6.5
					C514.2,82.7,515.1,83.6,516.2,83.6L516.2,83.6z M514.9,75.1c0-0.7,0.6-1.3,1.3-1.3l0,0h6.5c0.7,0,1.3,0.5,1.3,1.2c0,0,0,0,0,0
					l0,0v6.5c0,0.7-0.6,1.3-1.3,1.3h-6.5c-0.7,0-1.3-0.6-1.3-1.3c0,0,0,0,0,0l0,0V75.1z"/>
				<path d="M504.4,100.2h17.3c3.8,0,6.8-3,6.8-6.8V76.1c0-3.8-3-6.8-6.8-6.8h-17.3c-3.8,0-6.8,3-6.8,6.8v0v17.3
					C497.6,97.1,500.6,100.2,504.4,100.2z M498.4,76.1c0-3.3,2.7-6,6-6h17.3c3.3,0,6,2.7,6,6v17.3c0,3.3-2.7,6-6,6h-17.3
					c-3.3,0-6-2.7-6-6V76.1z"/>
				<circle class="st4" cx="506.6" cy="78.7" r="5.2"/>
				<circle class="st4" cx="519.4" cy="91.1" r="5.2"/>
			</g>
		</g>
		<path class="st5" d="M553,144.8H256.3v-91h21.3c0.3,0,0.5,0.2,0.5,0.5c0,0.3-0.2,0.5-0.5,0.5c0,0,0,0,0,0h-20.3v88.9H552V54.9
			H316.7c-0.3,0-0.5-0.2-0.5-0.5c0,0,0,0,0,0c0-0.3,0.2-0.5,0.5-0.5H553V144.8z"/>
		<rect x="388.7" y="45.5" width="31.9" height="18"/>
		<path class="st6" d="M401.9,56.7h-1.5l-0.3,1.3h-1.5l1.5-7.1h2l1.5,7.1h-1.5L401.9,56.7z M401.1,52.7l-0.5,2.5h0.9L401.1,52.7z"/>
		<path class="st6" d="M408.2,52.3h-1.5V58h-1.5v-5.7h-1.5v-1.4h4.5V52.3z"/>
		<path class="st6" d="M409,50.9h1.5V58H409V50.9z"/>
		<g id="device-tablet">
			<g id="Isolation_Mode-8">
				<path d="M70.2,188.1c0.3,0,0.5-0.2,0.5-0.5v-3.9c0-0.3-0.2-0.5-0.5-0.5s-0.5,0.2-0.5,0.5v3.9C69.7,187.9,69.9,188.1,70.2,188.1
					C70.2,188.1,70.2,188.1,70.2,188.1z"/>
				<path d="M69.2,199.7h36.7c0.8,0,1.4-0.6,1.4-1.4v-25.1c0-0.8-0.6-1.4-1.4-1.4H69.2c-0.8,0-1.4,0.6-1.4,1.4v25.1
					C67.8,199,68.4,199.7,69.2,199.7z M68.7,173.1c0-0.3,0.2-0.5,0.5-0.5h36.7c0.3,0,0.5,0.2,0.5,0.5v25.1c0,0.3-0.2,0.5-0.5,0.5
					H69.2c-0.3,0-0.5-0.2-0.5-0.5V173.1z"/>
				<circle cx="104.9" cy="185.7" r="1"/>
				<path d="M73.1,197.8h29c0.8,0,1.4-0.6,1.4-1.4v-21.2c0-0.8-0.6-1.4-1.4-1.4h-29c-0.8,0-1.4,0.7-1.4,1.4v21.2
					C71.7,197.1,72.3,197.8,73.1,197.8z M72.6,175.1c0-0.3,0.2-0.5,0.5-0.5h29c0.3,0,0.5,0.2,0.5,0.5c0,0,0,0,0,0v21.2
					c0,0.3-0.2,0.5-0.5,0.5h-29c-0.3,0-0.5-0.2-0.5-0.5V175.1z"/>
			</g>
		</g>
		<g id="security-hacker">
			<g id="bda1da20-d431-4b52-9a96-8266cefcf956">
				<path d="M26.5,94.8c0.1,0,0.1,0,0.2,0c0.2,0,0.3-0.1,0.4-0.2c0.1-0.1,0.1-0.2,0.2-0.3l1.9,4.6c0.5,1.2,1.7,2,3.1,2h0.8
					c1.3,0,2.5-0.8,3.1-2l0,0L38,94c0.1,0.2,0.2,0.3,0.3,0.5c0.1,0.2,0.4,0.3,0.6,0.2c0.2-0.1,0.3-0.4,0.2-0.6
					c-1.3-2.3-3.9-3.7-6.6-3.6c-2.6,0-5,1.4-6.4,3.6C26.2,94.3,26.2,94.6,26.5,94.8C26.5,94.7,26.5,94.7,26.5,94.8L26.5,94.8z
					 M32.7,91.5c1.8-0.1,3.5,0.6,4.7,1.8l-2.1,5.1l0,0c-0.4,0.9-1.3,1.5-2.2,1.5h-0.8c-1,0-1.9-0.6-2.3-1.5l-2-5
					C29.2,92.1,30.9,91.4,32.7,91.5z"/>
				<path d="M16.4,117.4l2.5,0.9l1.1,0.4c0.2,0.4,0.6,0.6,1,0.8H21h23.3h0.1c0.5-0.2,0.9-0.5,1.1-1l3.5-1.1c2.1-0.8,3.2-3,2.6-5.2
					l-3.2-10.8c-0.3-1.1-1-2-2-2.6l-3.9-2.4l0.6-1.3c0.4-1,0.2-2.1-0.3-3.1l-4.9-7.8c-1.1-1.8-3.1-2.9-5.2-2.9l0,0
					c-2.1,0-4.1,1.1-5.2,2.9L22.6,92c-0.6,0.9-0.7,2.1-0.3,3.1l0.6,1.3L19,98.8c-1,0.6-1.7,1.5-2,2.6l-3.2,10.8
					C13.2,114.4,14.3,116.7,16.4,117.4z M44.2,118.6H21.2c-0.1,0-0.5-0.2-0.5-0.4s0.3-0.4,0.5-0.4h23.1c0.2,0.1,0.5,0.2,0.5,0.4
					S44.4,118.5,44.2,118.6z M43.9,103.5v13.3H21.5v-13.3L43.9,103.5z M46,99.6c0.8,0.5,1.3,1.2,1.6,2.1l3.2,10.9
					c0.5,1.7-0.4,3.4-2,4l-3.3,1c-0.2-0.3-0.4-0.5-0.7-0.6V103c0-0.3-0.2-0.5-0.5-0.5c0,0,0,0,0,0h-5.7l1.9-1.8
					c0.1-0.1,0.2-0.2,0.2-0.4l1.3-3.1L46,99.6z M23.4,92.5l4.9-7.8c0.9-1.5,2.6-2.5,4.4-2.5l0,0c1.8,0,3.4,1,4.4,2.5l4.9,7.8
					c0.4,0.7,0.5,1.5,0.2,2.3l-2.3,5.3l-2.6,2.5h-9.3l-2.6-2.6l-2.3-5.3C22.9,94,23,93.1,23.4,92.5L23.4,92.5z M14.7,112.5l3.2-10.9
					c0.3-0.9,0.8-1.6,1.6-2.1l3.8-2.3l1.4,3.1c0.1,0.1,0.1,0.3,0.2,0.3l1.9,1.8h-5.7c-0.3,0-0.5,0.2-0.5,0.5v13.9
					c-0.3,0.2-0.6,0.5-0.8,0.8l-0.6-0.2l-2.5-0.9C15.1,116,14.2,114.2,14.7,112.5z"/>
			</g>
		</g>
		<g id="other-site-code">
			<polyline class="st7" points="245.1,259.6 239.5,262.9 245.1,266.3 			"/>
			<polyline class="st7" points="251.8,266.3 257.3,262.9 251.8,259.6 			"/>
			<line class="st7" x1="249.5" y1="259.6" x2="247.3" y2="266.3"/>
			<path d="M264.8,273.9H232c-0.2,0-0.4-0.2-0.4-0.4l0,0v-25.1c0-0.2,0.2-0.4,0.4-0.4h32.9c0.2,0,0.4,0.2,0.4,0.4l0,0v25.1
				C265.2,273.7,265.1,273.9,264.8,273.9z M232.4,273h32v-19.6h-32V273z M232.4,252.6h32v-3.9h-32V252.6z"/>
			<path d="M236.7,251.1h-2.4c-0.2,0-0.4-0.2-0.4-0.4l0,0c0-0.2,0.2-0.4,0.4-0.4h2.4c0.2,0,0.4,0.2,0.4,0.4l0,0
				C237.1,250.9,236.9,251.1,236.7,251.1L236.7,251.1z"/>
			<path d="M241.4,251.1H239c-0.2,0-0.4-0.2-0.4-0.4l0,0c0-0.2,0.2-0.4,0.4-0.4l0,0h2.4c0.2,0,0.4,0.2,0.4,0.4
				C241.8,250.9,241.6,251.1,241.4,251.1z"/>
			<path d="M246.1,251.1h-2.4c-0.2,0-0.4-0.2-0.4-0.4l0,0c0-0.2,0.2-0.4,0.4-0.4l0,0h2.4c0.2,0,0.4,0.2,0.4,0.4
				C246.5,250.9,246.3,251.1,246.1,251.1L246.1,251.1z"/>
			<path d="M262.5,249.9c-0.5,0-0.8,0.4-0.8,0.8c0,0.5,0.4,0.8,0.8,0.8c0.5,0,0.8-0.4,0.8-0.8C263.3,250.3,262.9,249.9,262.5,249.9
				L262.5,249.9z"/>
		</g>
		<g id="user-checkmark">
			<g id="Isolation_Mode-9">
				<path d="M19.1,29.8L19.1,29.8c0.3,0,0.5-0.1,0.5-0.3l2.2-10c0.3-0.8,0.8-1.5,1.5-2c1.9-1.1,4.1-1.9,6.3-2.3
					c1.9,1.4,4.4,1.4,6.3,0c1.2,0.2,2.4,0.6,3.6,1c0,0,0.1,0,0.2,0c0.2,0,0.3-0.1,0.4-0.3c0.1-0.2,0-0.5-0.2-0.6c-1-0.4-2-0.7-3-0.9
					c1.9-2,2.9-4.7,2.9-7.4c0-4.5-2.5-7.1-6.9-7.1S26,2.6,26,7.1c-0.1,2.8,1,5.4,2.9,7.4c-2.1,0.4-4,1.2-5.9,2.2
					c-0.9,0.6-1.6,1.5-1.9,2.5l-2.2,10.1C18.8,29.6,18.9,29.8,19.1,29.8z M26.9,7.1c0-5.4,3.8-6.2,6-6.2s6,0.8,6,6.2
					c0.1,2.8-1.1,5.5-3.2,7.3c-1.6,1.4-4,1.4-5.6,0l0,0C27.9,12.6,26.7,9.9,26.9,7.1z"/>
			</g>
			<g id="other-key">
				<path class="st8" d="M33.3,29.5c-1-0.2-1.9,0.4-2.1,1.4s0.4,1.9,1.4,2.1c1,0.2,1.9-0.4,2.1-1.4c0-0.2,0-0.5,0-0.7
					C34.6,30.1,34,29.6,33.3,29.5z M33,32.5c-0.7,0-1.3-0.6-1.3-1.3c0-0.1,0-0.2,0-0.3c0.1-0.4,0.5-0.8,0.9-0.9
					c0.7-0.2,1.4,0.2,1.6,0.8s-0.2,1.4-0.8,1.6C33.2,32.4,33.1,32.4,33,32.5L33,32.5z"/>
				<path class="st8" d="M44.9,21.4l0.6-0.6c0.5-0.5,0.6-1.3,0.2-1.9c-0.2-0.4-0.6-0.6-1.1-0.6c-0.4,0-0.9,0.1-1.2,0.4l0,0L35,27.2
					c-2.2-1.1-4.9-0.2-6,2.1s-0.2,4.9,2.1,6s4.9,0.2,6-2.1c0.5-1,0.6-2.1,0.3-3.2c-0.1-0.3-0.2-0.5-0.3-0.8l2.4-2.4l1.7,1.6
					c0.6,0.6,1.5,0.6,2.1,0s0.6-1.5,0-2.1l0,0l-1.7-1.6l1.3-1.4l1.7,1.7c0.6,0.5,1.5,0.5,2.1-0.1c0.5-0.6,0.5-1.4,0-2L44.9,21.4z
					 M46.2,24.7c-0.4,0.3-1,0.3-1.3,0L43,22.9c-0.1-0.1-0.3-0.1-0.4,0L41,24.6c-0.1,0.1-0.1,0.3,0,0.4c0,0,0,0,0,0l1.8,1.8l0,0
					c0.3,0.4,0.3,1,0,1.4c-0.4,0.3-1,0.3-1.3,0l-1.8-1.8c0,0-0.1-0.1-0.2-0.1l0,0c-0.1,0-0.1,0-0.2,0.1L36.6,29
					c-0.1,0.1-0.1,0.2,0,0.3c1,2,0.3,4.4-1.7,5.4c-1.2,0.6-2.7,0.6-3.9-0.1c-1.8-1.1-2.4-3.3-1.5-5.2c0.5-1,1.3-1.7,2.4-2
					c0.4-0.1,0.8-0.2,1.2-0.2c0.7,0,1.3,0.2,1.9,0.5c0.1,0,0.2,0,0.3,0l8.7-8.6c0.4-0.4,1-0.3,1.4,0.1c0,0,0,0,0.1,0.1
					c0.2,0.4,0.2,0.9-0.2,1.2l-0.8,0.8c-0.1,0.1-0.1,0.3,0,0.4l1.8,1.8C46.6,23.8,46.6,24.3,46.2,24.7z"/>
			</g>
		</g>
		<g id="machine-learning">
			<line class="st9" x1="456.1" y1="86.6" x2="456.1" y2="84.9"/>
			<line class="st9" x1="457.6" y1="86.6" x2="457.6" y2="82.7"/>
			<line class="st9" x1="459.1" y1="86.6" x2="459.1" y2="84"/>
			<circle class="st10" cx="457.6" cy="84.7" r="3.9"/>
			<path class="st10" d="M458.2,77.3l0.4,2h0.1c0.2,0.1,0.5,0.1,0.7,0.2l1.3-1.5"/>
			<path class="st10" d="M458.6,79.3l-0.4-2c-0.4,0-0.9,0-1.3,0l-0.3,1.9"/>
			<path class="st10" d="M461.9,78.7l-0.6,1.9c0.2,0.2,0.4,0.4,0.6,0.6l1.8-0.7"/>
			<path class="st10" d="M461.2,80.5l0.6-1.9c-0.4-0.2-0.7-0.5-1.1-0.7l-1.3,1.5"/>
			<path class="st10" d="M455.7,79.5l-1.3-1.5c-0.4,0.2-0.8,0.4-1.1,0.7l0.7,1.8"/>
			<path class="st10" d="M454.4,78l1.3,1.5c0.3-0.1,0.6-0.2,0.9-0.2l0.3-1.9"/>
			<path class="st10" d="M461.8,88.3l1.9,0.6c0.2-0.4,0.5-0.7,0.6-1.1l-1.5-1.2"/>
			<path class="st10" d="M451.5,80.5l1.9,0.6c0.2-0.2,0.4-0.4,0.6-0.6l-0.7-1.8"/>
			<path class="st10" d="M462.8,82.8l1.5-1.3c-0.2-0.4-0.4-0.8-0.7-1.1l-1.8,0.7"/>
			<path class="st10" d="M465,85.4l-1.9,0.4v0.1c-0.1,0.2-0.1,0.5-0.2,0.7l1.5,1.2"/>
			<path class="st10" d="M463,85.8l1.9-0.4c0-0.4,0-0.9,0-1.3l-1.9-0.3"/>
			<path class="st10" d="M464.3,81.5l-1.5,1.3c0.1,0.3,0.2,0.6,0.2,0.9l1.9,0.3"/>
			<path class="st10" d="M459.5,89.9l1.3,1.5c0.4-0.2,0.8-0.4,1.1-0.7l-0.7-1.8"/>
			<path class="st10" d="M457,92.1l-0.4-1.9h-0.1c-0.3-0.1-0.5-0.1-0.7-0.2l-1.3,1.5"/>
			<path class="st10" d="M456.6,90.2l0.4,1.9c0.4,0,0.9,0,1.3,0l0.3-1.9"/>
			<path class="st10" d="M460.8,91.4l-1.3-1.5c-0.3,0.1-0.6,0.2-0.9,0.2l-0.3,1.9"/>
			<path class="st10" d="M463.7,89l-1.9-0.6c-0.2,0.2-0.4,0.4-0.6,0.6l0.7,1.8"/>
			<path class="st10" d="M454,88.9l-0.6,1.9c0.4,0.2,0.7,0.5,1.1,0.7l1.2-1.4"/>
			<path class="st10" d="M450.2,84.1l1.9-0.4v-0.1c0-0.2,0.1-0.5,0.2-0.7l-1.5-1.3"/>
			<path class="st10" d="M453.4,81.1l-1.9-0.6c-0.3,0.4-0.5,0.7-0.6,1.1l1.5,1.3"/>
			<path class="st10" d="M452.2,83.7l-1.9,0.4c0,0.4,0,0.9,0,1.3l1.9,0.3"/>
			<path class="st10" d="M452.4,86.6l-1.5,1.3c0.2,0.4,0.4,0.8,0.7,1.1l1.8-0.7"/>
			<path class="st10" d="M453.4,90.8l0.6-1.9c-0.2-0.2-0.4-0.4-0.6-0.6l-1.8,0.7"/>
			<path class="st10" d="M450.9,87.9l1.5-1.3c-0.1-0.3-0.2-0.6-0.2-0.9l-1.9-0.3"/>
			<line class="st9" x1="457.6" y1="75.6" x2="457.6" y2="75.2"/>
			<line class="st11" x1="457.6" y1="73.8" x2="457.6" y2="72.4"/>
			<line class="st9" x1="457.6" y1="71.7" x2="457.6" y2="71.3"/>
			<circle class="st9" cx="457.6" cy="68.5" r="1.2"/>
			<line class="st9" x1="457.6" y1="93.8" x2="457.6" y2="94.3"/>
			<line class="st11" x1="457.6" y1="95.7" x2="457.6" y2="97"/>
			<line class="st9" x1="457.6" y1="97.7" x2="457.6" y2="98.2"/>
			<circle class="st9" cx="457.6" cy="100.9" r="1.2"/>
			<line class="st9" x1="452.2" y1="77.4" x2="451.9" y2="77.1"/>
			<line class="st11" x1="451.1" y1="75.9" x2="450.3" y2="74.8"/>
			<line class="st9" x1="449.9" y1="74.3" x2="449.6" y2="73.9"/>
			<circle class="st9" cx="448" cy="71.7" r="1.2"/>
			<line class="st9" x1="463" y1="92.1" x2="463.3" y2="92.4"/>
			<line class="st11" x1="464.1" y1="93.6" x2="464.9" y2="94.6"/>
			<line class="st9" x1="465.3" y1="95.2" x2="465.6" y2="95.6"/>
			<circle class="st9" cx="467.2" cy="97.8" r="1.2"/>
			<line class="st9" x1="448.9" y1="82.1" x2="448.5" y2="81.9"/>
			<line class="st11" x1="447.1" y1="81.5" x2="445.8" y2="81.1"/>
			<line class="st9" x1="445.2" y1="80.9" x2="444.7" y2="80.8"/>
			<circle class="st9" cx="442.1" cy="80" r="1.2"/>
			<line class="st9" x1="466.3" y1="87.4" x2="466.7" y2="87.6"/>
			<line class="st11" x1="468.1" y1="88" x2="469.3" y2="88.4"/>
			<line class="st9" x1="470" y1="88.6" x2="470.4" y2="88.7"/>
			<circle class="st9" cx="473.1" cy="89.5" r="1.2"/>
			<line class="st9" x1="449" y1="87.8" x2="448.6" y2="87.9"/>
			<line class="st11" x1="447.2" y1="88.4" x2="446" y2="88.8"/>
			<line class="st9" x1="445.3" y1="89.1" x2="444.9" y2="89.2"/>
			<circle class="st9" cx="442.3" cy="90.1" r="1.2"/>
			<line class="st9" x1="466.2" y1="81.8" x2="466.6" y2="81.6"/>
			<line class="st11" x1="467.9" y1="81.1" x2="469.2" y2="80.7"/>
			<line class="st9" x1="469.9" y1="80.5" x2="470.3" y2="80.3"/>
			<circle class="st9" cx="472.9" cy="79.4" r="1.2"/>
			<line class="st9" x1="452.5" y1="92.3" x2="452.2" y2="92.7"/>
			<line class="st11" x1="451.4" y1="93.8" x2="450.7" y2="94.9"/>
			<line class="st9" x1="450.3" y1="95.5" x2="450" y2="95.9"/>
			<circle class="st9" cx="448.5" cy="98.2" r="1.2"/>
			<line class="st9" x1="462.7" y1="77.2" x2="463" y2="76.9"/>
			<line class="st11" x1="463.8" y1="75.7" x2="464.5" y2="74.6"/>
			<line class="st9" x1="464.9" y1="74" x2="465.2" y2="73.7"/>
			<circle class="st9" cx="466.7" cy="71.3" r="1.2"/>
		</g>
		<g id="users-magnifying-glass">
			<g id="abf6e15e-569d-4fa7-aea1-883f883eae78">
				<path d="M402.1,73.1c-4.4,0-8,3.6-8,8s3.6,8,8,8s8-3.6,8-8S406.6,73.1,402.1,73.1z M402.1,73.9c4,0,7.2,3.2,7.2,7.2
					c0,1.8-0.7,3.5-1.9,4.8c-0.8-0.4-1.7-0.6-2.5-0.8c1.2-1.4,1.9-3.2,1.8-5c0-3.1-1.7-4.9-4.8-4.9s-4.8,1.8-4.8,4.9
					c0,1.8,0.6,3.6,1.8,4.9c-0.8,0.2-1.5,0.4-2.2,0.7c-2.6-3-2.3-7.5,0.6-10.1C398.7,74.5,400.4,73.8,402.1,73.9L402.1,73.9z
					 M400.1,85c-1.4-1.2-2.2-3-2.1-4.9c0-3.4,2.1-4.1,3.9-4.1s3.9,0.7,3.9,4.1c0.1,1.9-0.7,3.7-2.1,4.9c-0.5,0.4-1.1,0.6-1.7,0.7
					C401.3,85.6,400.6,85.4,400.1,85z M397.4,86.5c0.8-0.3,1.6-0.5,2.4-0.7c0.7,0.4,1.4,0.7,2.2,0.7c0.7,0,1.5-0.3,2.1-0.7
					c0.9,0.2,1.8,0.4,2.7,0.8C404,88.9,400.1,88.8,397.4,86.5L397.4,86.5z"/>
				<path d="M420.9,89.9l-1.1-5c-0.2-0.6-0.5-1.1-1.1-1.4c-0.8-0.5-1.7-0.8-2.7-1c0.8-1,1.3-2.3,1.2-3.6c0.2-1.8-1.1-3.5-3-3.7
					c-0.2,0-0.5,0-0.7,0c-0.7,0-1.4,0.1-2,0.4c-0.2,0.1-0.3,0.2-0.5,0.3c-2.8-5-9.1-6.7-14.1-3.9c-1.6,0.9-3,2.3-3.9,3.9
					c-0.1-0.1-0.3-0.2-0.4-0.3c-0.6-0.3-1.3-0.5-2-0.5c-1.8-0.2-3.5,1.2-3.7,3c0,0.2,0,0.5,0,0.7c0,1.3,0.4,2.6,1.2,3.6
					c-0.9,0.2-1.8,0.6-2.7,1.1c-0.5,0.3-0.9,0.8-1.1,1.4l-1.1,5c0,0.2,0.1,0.5,0.3,0.5h0.1c0.2,0,0.4-0.1,0.4-0.3l1.1-4.9
					c0.1-0.4,0.4-0.7,0.7-0.9c0.9-0.5,1.9-0.9,3-1.1c0.5,0.3,1,0.5,1.6,0.5c0.5,0,0.9-0.1,1.4-0.3c0.6,2.5,2,4.7,4.1,6.2
					c-0.2,0.2-0.3,0.5-0.4,0.7l-1.1,5c0,0.2,0.1,0.5,0.3,0.5h0.1c0.2,0,0.4-0.1,0.4-0.3l1.1-4.9c0.1-0.2,0.2-0.3,0.3-0.5
					c3.1,1.9,7.1,2,10.3,0.2c0,0.1,0.1,0.2,0.1,0.3l1.1,5c0,0.2,0.2,0.3,0.4,0.3h0.1c0.2,0,0.4-0.3,0.3-0.5l0,0l-1.1-5
					c0-0.2-0.1-0.3-0.2-0.5c0.5-0.3,0.9-0.6,1.3-1l2,2c-0.2,0.3-0.3,0.6-0.3,1c0,0.5,0.2,0.9,0.5,1.2l5.2,5.2
					c0.3,0.3,0.8,0.5,1.2,0.5c0.5,0,1-0.2,1.4-0.6c0.4-0.4,0.6-0.8,0.6-1.3c0-0.5-0.2-0.9-0.5-1.2l-5.2-5.2
					c-0.6-0.6-1.6-0.7-2.3-0.2l-2.1-2c1.2-1.3,2.1-3,2.5-4.8c0.4,0.2,0.9,0.3,1.4,0.3c0.6,0,1.1-0.2,1.6-0.5c1.1,0.2,2.1,0.6,3,1.1
					c0.3,0.2,0.6,0.5,0.7,0.9l1.1,5c0,0.2,0.2,0.3,0.4,0.3h0.1c0.2,0,0.4-0.3,0.3-0.5L420.9,89.9z M389.4,82.4L389.4,82.4
					c-1-0.8-1.6-2.1-1.5-3.4c-0.2-1.4,0.8-2.7,2.2-2.9c0.2,0,0.4,0,0.6,0c0.6,0,1.1,0.1,1.6,0.4c0.2,0.1,0.3,0.2,0.4,0.4
					c-0.6,1.3-0.9,2.8-1,4.3c0,0.4,0,0.9,0.1,1.3C391.2,83,390.1,82.9,389.4,82.4z M392.7,81.1c0-5.2,4.2-9.5,9.5-9.5
					c5.2,0,9.5,4.2,9.5,9.5c0,5.2-4.2,9.5-9.5,9.5l0,0l0,0C396.9,90.6,392.7,86.3,392.7,81.1z M412.8,90.7c0.2,0,0.5,0.1,0.6,0.3
					l5.2,5.2l0,0c0.2,0.2,0.3,0.4,0.3,0.7c0,0.3-0.1,0.6-0.3,0.8c-0.4,0.4-1,0.4-1.4,0.1l-5.2-5.2c-0.2-0.2-0.3-0.4-0.3-0.7
					c0-0.3,0.1-0.6,0.3-0.8C412.3,90.8,412.5,90.7,412.8,90.7z M412.4,82.4c0.1-0.4,0.1-0.9,0.1-1.3c0-1.5-0.3-3-1-4.3
					c0.1-0.2,0.3-0.3,0.4-0.4c0.5-0.3,1.1-0.4,1.6-0.4c1.4-0.2,2.7,0.8,2.8,2.2c0,0.2,0,0.4,0,0.6c0.1,1.3-0.5,2.6-1.5,3.4
					C414.2,82.9,413.1,83,412.4,82.4z"/>
			</g>
		</g>
		<path class="st12" d="M616.8,93.6c-0.6,0-1.1,0.5-1.1,1.1v10.5c0,0.6,0.5,1.1,1.1,1.1c0.6,0,1.1-0.5,1.1-1.1c0,0,0,0,0,0V94.7
			C617.9,94.1,617.4,93.6,616.8,93.6C616.8,93.6,616.8,93.6,616.8,93.6z"/>
		<path class="st12" d="M586.2,93.6c-0.6,0-1.1,0.5-1.1,1.1c0,0,0,0,0,0v10.5c0,0.6,0.5,1.1,1.1,1.1c0.6,0,1.1-0.5,1.1-1.1
			c0,0,0,0,0,0V94.7C587.3,94.1,586.8,93.6,586.2,93.6C586.2,93.6,586.2,93.6,586.2,93.6z"/>
		<path class="st12" d="M596.3,91.4c2.3,0,4.2,1.8,4.2,4.1c0,2.3-1.8,4.2-4.1,4.2c-2.3,0-4.2-1.8-4.2-4.1c0,0,0,0,0,0
			C592.1,93.3,594,91.4,596.3,91.4C596.3,91.4,596.3,91.4,596.3,91.4z M606.7,91.4c2.3,0,4.2,1.9,4.2,4.2s-1.9,4.2-4.2,4.2
			s-4.2-1.9-4.2-4.2S604.4,91.4,606.7,91.4z"/>
		<path class="st12" d="M612,112.2h-21.2c-1,0-1.8-0.8-1.8-1.8l0.1-21c0-1,0.8-1.8,1.8-1.8h21.2c1,0,1.8,0.8,1.8,1.8l-0.1,21
			C613.8,111.4,613,112.2,612,112.2C612,112.2,612,112.2,612,112.2z"/>
		<path class="st13" d="M596,103.5c3.2,2.9,8.2,2.9,11.4,0"/>
		<path class="st13" d="M594.2,105.7c4.4,3.7,10.8,3.7,15.2,0"/>
		<path class="st14" d="M594.3,105.8c-0.6-0.5-0.7-1.3-0.2-1.9c0-0.1,0.1-0.1,0.1-0.1c0.6-0.6,1.5-0.6,2.1-0.1"/>
		<path class="st14" d="M609.2,105.8c0.6-0.5,0.7-1.3,0.2-1.9c0,0-0.1-0.1-0.1-0.1c-0.6-0.6-1.5-0.6-2.1-0.1"/>
		<path class="st0" d="M206.6,62.8c-0.3,0-0.5-0.2-0.5-0.5v-0.9c0-0.3,0.2-0.5,0.5-0.5c0.3,0,0.5,0.2,0.5,0.5v0.9
			C207.1,62.6,206.9,62.8,206.6,62.8z M206.6,59.9c-0.3,0-0.5-0.2-0.5-0.5v-2c0-0.3,0.2-0.5,0.5-0.5c0.3,0,0.5,0.2,0.5,0.5v2
			C207.1,59.7,206.9,59.9,206.6,59.9z M206.6,55.9c-0.3,0-0.5-0.2-0.5-0.5v-2c0-0.3,0.2-0.5,0.5-0.5c0.3,0,0.5,0.2,0.5,0.5v2
			C207.1,55.7,206.9,55.9,206.6,55.9z M206.6,51.9c-0.3,0-0.5-0.2-0.5-0.5v-2c0-0.3,0.2-0.5,0.5-0.5c0.3,0,0.5,0.2,0.5,0.5v2
			C207.1,51.7,206.9,51.9,206.6,51.9z M206.6,47.9c-0.3,0-0.5-0.2-0.5-0.5v-2c0-0.3,0.2-0.5,0.5-0.5c0.3,0,0.5,0.2,0.5,0.5v2
			C207.1,47.7,206.9,47.9,206.6,47.9z M206.6,43.9c-0.3,0-0.5-0.2-0.5-0.5v-2c0-0.3,0.2-0.5,0.5-0.5c0.3,0,0.5,0.2,0.5,0.5v2
			C207.1,43.7,206.9,43.9,206.6,43.9z M206.6,39.9c-0.3,0-0.5-0.2-0.5-0.5v-2c0-0.3,0.2-0.5,0.5-0.5c0.3,0,0.5,0.2,0.5,0.5v2
			C207.1,39.7,206.9,39.9,206.6,39.9z M206.6,35.9c-0.3,0-0.5-0.2-0.5-0.5v-2c0-0.3,0.2-0.5,0.5-0.5c0.3,0,0.5,0.2,0.5,0.5v2
			C207.1,35.7,206.9,35.9,206.6,35.9z"/>
	</g>
</g>
<g>
	<path d="M291.2,99.5c-8.1,0-14.7-6.6-14.7-14.7s6.6-14.7,14.7-14.7s14.7,6.6,14.7,14.7S299.3,99.5,291.2,99.5z M291.2,70.8
		c-7.7,0-13.9,6.3-13.9,13.9s6.3,13.9,13.9,13.9s13.9-6.3,13.9-13.9S298.9,70.8,291.2,70.8z"/>
</g>
</svg>
