<svg id="Backgrounds" xmlns="http://www.w3.org/2000/svg" xmlns:xlink="http://www.w3.org/1999/xlink" viewBox="0 0 1366 600"><defs><style>.cls-1{fill:#222;}.cls-2,.cls-3{fill:none;}.cls-2{clip-path:url(#clip-path);}.cls-4{fill:#e6e6e6;}.cls-5{clip-path:url(#clip-path-2);}.cls-6{opacity:0.08;fill:url(#NSM_2);}</style><clipPath id="clip-path"><rect class="cls-1" width="1368" height="602"/></clipPath><clipPath id="clip-path-2"><rect class="cls-2" width="1368" height="602"/></clipPath><pattern id="NSM_2" data-name="NSM 2" width="129" height="167.88" patternTransform="translate(0 -167.88)" patternUnits="userSpaceOnUse" viewBox="0 0 129 167.88"><rect class="cls-3" width="129" height="167.88"/><path class="cls-4" d="M107.45,150.57v15a6.93,6.93,0,0,1,1.82,0v-15a6.93,6.93,0,0,1-1.82,0Z"/><path class="cls-4" d="M81.71,166.18a8.06,8.06,0,0,0,8.06-8.06,8,8,0,0,0-.69-3.24h0l12.83-7.49c-.14-.19-.26-.39-.39-.59.13.2.25.4.4.59a8,8,0,0,0,5.53,3.19c.3,0,.61.05.91.05a8.92,8.92,0,0,0,.91-.05,8.06,8.06,0,1,0-9-8,8,8,0,0,0,.69,3.25c0,.06.06.11.08.16s0-.1-.08-.16l-12.83,7.5a7.83,7.83,0,0,1,.67,1.08,7.83,7.83,0,0,0-.67-1.08h0a8.05,8.05,0,1,0-6.45,12.87Zm20.41-23.62a6.24,6.24,0,1,1,7.15,6.17,6.71,6.71,0,0,1-.91.07,6.84,6.84,0,0,1-.91-.07,6.27,6.27,0,0,1-5.33-6.17Zm-20.41,9.32a6.23,6.23,0,0,1,4.87,2.35h0a6.17,6.17,0,0,1,.92,1.57h0a6.18,6.18,0,0,1,.45,2.32,6.24,6.24,0,1,1-6.24-6.24Z"/><path class="cls-4" d="M135.31,180.12v-14a8.06,8.06,0,1,0-9-8,8,8,0,0,0,.72,3.3l-12.29,7.3a8.06,8.06,0,0,0-5.5-3.13,6.73,6.73,0,0,0-.91-.06,7,7,0,0,0-.91.06,8,8,0,0,0-6.52,11.11,6.53,6.53,0,0,0,.37.75,5.22,5.22,0,0,1-.37-.75l-12.07,6.73a8.38,8.38,0,0,1,.59.95,8.38,8.38,0,0,0-.59-.95h0a8.06,8.06,0,1,0-.14,9.57l-1.57-.93a6.25,6.25,0,1,1,.11-7.75l.08,0-.07,0a6.47,6.47,0,0,1,.88,1.59l.81-.45-.81.45a6.21,6.21,0,0,1-.06,4.59l.94.57-1-.57a6,6,0,0,1-.93,1.56l1.57.94h0L101,200.37a4.44,4.44,0,0,1,.28-.53,4.44,4.44,0,0,0-.28.53,7.83,7.83,0,0,0-.73,3.32,8.11,8.11,0,1,0,1.67-4.88,6.87,6.87,0,0,0-.45.65,6.16,6.16,0,0,1,.44-.65l-12.3-7.36h0a8,8,0,0,0,.1-6.42h0l12.06-6.72a8,8,0,0,0,13.08,0L127,185a8,8,0,0,0-.62,3.1,8.06,8.06,0,1,0,9-8Zm-26.95,17.33a6.24,6.24,0,1,1-6.24,6.24,6.18,6.18,0,0,1,.48-2.39,6.32,6.32,0,0,1,.93-1.56A6.22,6.22,0,0,1,108.36,197.45Zm-19.42-4.77a7.62,7.62,0,0,0,.48-.77A6.65,6.65,0,0,1,88.94,192.68Zm39.22-34.55a6.24,6.24,0,1,1,7.15,6.16,5.22,5.22,0,0,1-1.82,0,6.25,6.25,0,0,1-3.93-2.23,6.51,6.51,0,0,1-.93-1.57A6.21,6.21,0,0,1,128.16,158.13Zm-26.83,19.4h0Zm7,2.31a6.23,6.23,0,0,1-.91-12.4,5.5,5.5,0,0,1,.91-.08,5.4,5.4,0,0,1,.91.08,6.22,6.22,0,0,1,3.93,2.23,6.14,6.14,0,0,1,.93,1.56,6,6,0,0,1,.47,2.37,6.26,6.26,0,0,1-6.24,6.24Zm7.44-3.13a8.07,8.07,0,0,0-.09-6.41L128,163a8,8,0,0,0,5.5,3.14v14a8,8,0,0,0-5.63,3.32Zm18.6,17.66a6.24,6.24,0,0,1-.91-12.41,5.95,5.95,0,0,1,1.82,0,6.24,6.24,0,0,1-.91,12.41Z"/><path class="cls-4" d="M6.31,180.12v-14a8.06,8.06,0,1,0-9-8,8,8,0,0,0,.72,3.3l-12.29,7.3a8.06,8.06,0,0,0-5.5-3.13,6.73,6.73,0,0,0-.91-.06,7,7,0,0,0-.91.06,8.06,8.06,0,0,0-7.15,8,8.07,8.07,0,0,0,.63,3.11,6.53,6.53,0,0,0,.37.75,5.22,5.22,0,0,1-.37-.75l-12.07,6.73a8.38,8.38,0,0,1,.59.95,8.38,8.38,0,0,0-.59-.95h0a8,8,0,0,0-6.54-3.37,8.07,8.07,0,0,0-8.06,8.06,8.07,8.07,0,0,0,8.06,8.06,8,8,0,0,0,6.4-3.18l-1.57-.93a6.24,6.24,0,0,1-4.83,2.29,6.25,6.25,0,0,1-6.24-6.24,6.25,6.25,0,0,1,6.24-6.24,6.23,6.23,0,0,1,4.94,2.44l.08,0-.07,0a6.47,6.47,0,0,1,.88,1.59l.81-.45-.81.45a6.24,6.24,0,0,1,.41,2.21,6.27,6.27,0,0,1-.47,2.38l.94.57-1-.57a6,6,0,0,1-.93,1.56l1.57.94h0L-28,200.37a4.44,4.44,0,0,1,.28-.53,4.44,4.44,0,0,0-.28.53,7.83,7.83,0,0,0-.73,3.32,8.07,8.07,0,0,0,8.06,8.06,8.07,8.07,0,0,0,8.06-8.06,8.07,8.07,0,0,0-8.06-8.06A8,8,0,0,0-27,198.81a6.87,6.87,0,0,0-.45.65,6.16,6.16,0,0,1,.44-.65l-12.3-7.36h0a8,8,0,0,0,.72-3.32,8,8,0,0,0-.62-3.1h0l12.06-6.72a8.05,8.05,0,0,0,6.54,3.36,8,8,0,0,0,6.54-3.37L-2,185a8,8,0,0,0-.62,3.1,8.06,8.06,0,1,0,9-8Zm-26.95,17.33a6.25,6.25,0,0,1,6.24,6.24,6.25,6.25,0,0,1-6.24,6.24,6.25,6.25,0,0,1-6.24-6.24,6.18,6.18,0,0,1,.48-2.39,6.32,6.32,0,0,1,.93-1.56A6.22,6.22,0,0,1-20.64,197.45Zm-19.42-4.77a7.62,7.62,0,0,0,.48-.77A6.65,6.65,0,0,1-40.06,192.68ZM-.84,158.13a6.24,6.24,0,1,1,7.15,6.16,6.84,6.84,0,0,1-.91.08,6.84,6.84,0,0,1-.91-.08,6.25,6.25,0,0,1-3.93-2.23,6.51,6.51,0,0,1-.93-1.57A6.21,6.21,0,0,1-.84,158.13Zm-26.83,19.4h0Zm7,2.31a6.24,6.24,0,0,1-4.94-2.44,6.19,6.19,0,0,1-.89-1.59,6.2,6.2,0,0,1-.41-2.21,6.24,6.24,0,0,1,5.33-6.16,5.5,5.5,0,0,1,.91-.08,5.4,5.4,0,0,1,.91.08,6.22,6.22,0,0,1,3.93,2.23,6.14,6.14,0,0,1,.93,1.56,6,6,0,0,1,.47,2.37,6.2,6.2,0,0,1-.41,2.21,6.19,6.19,0,0,1-.89,1.59A6.23,6.23,0,0,1-20.64,179.84Zm7.44-3.13a8.07,8.07,0,0,0,.62-3.11,8.07,8.07,0,0,0-.71-3.3L-1,163a8,8,0,0,0,5.5,3.14v14a8,8,0,0,0-5.63,3.32ZM5.4,194.37A6.24,6.24,0,0,1,4.49,182a6.84,6.84,0,0,1,.91-.07,6.84,6.84,0,0,1,.91.07,6.24,6.24,0,0,1-.91,12.41Z"/><path class="cls-4" d="M43,66.63v15a6.93,6.93,0,0,1,1.82,0v-15a6.93,6.93,0,0,1-1.82,0Z"/><path class="cls-4" d="M17.21,82.24a8.06,8.06,0,0,0,8.06-8.06,8,8,0,0,0-.69-3.24h0l12.83-7.49c-.14-.19-.26-.39-.39-.59.13.2.25.4.4.59A8,8,0,0,0,43,66.63c.3,0,.61.05.91.05a8.92,8.92,0,0,0,.91-.05,8.06,8.06,0,1,0-9-8,8,8,0,0,0,.69,3.25c0,.06.06.11.08.16l-.08-.16-12.83,7.5a8.48,8.48,0,0,1,.67,1.08,7.83,7.83,0,0,0-.67-1.08h0a8.05,8.05,0,1,0-6.45,12.87ZM37.62,58.62a6.24,6.24,0,1,1,7.15,6.17,6.71,6.71,0,0,1-.91.07,6.84,6.84,0,0,1-.91-.07,6.27,6.27,0,0,1-5.33-6.17ZM17.21,67.94a6.23,6.23,0,0,1,4.87,2.35h0A6.17,6.17,0,0,1,23,71.86h0a6.18,6.18,0,0,1,.45,2.32,6.24,6.24,0,1,1-6.24-6.24Z"/><path class="cls-4" d="M70.81,96.18v-14a8.06,8.06,0,1,0-9-8,8,8,0,0,0,.72,3.3l-12.29,7.3a8.06,8.06,0,0,0-5.5-3.13,6.73,6.73,0,0,0-.91-.06,7,7,0,0,0-.91.06,8,8,0,0,0-6.52,11.11,6.53,6.53,0,0,0,.37.75,5.22,5.22,0,0,1-.37-.75L24.36,99.5a8.38,8.38,0,0,1,.59,1,8.38,8.38,0,0,0-.59-1h0a8.06,8.06,0,1,0-.14,9.57l-1.57-.93a6.25,6.25,0,1,1,.11-7.75l.08,0-.07,0a6.47,6.47,0,0,1,.88,1.59l.81-.45-.81.45a6.21,6.21,0,0,1-.06,4.59l.94.57-1-.57a6,6,0,0,1-.93,1.56l1.57.94h0l12.31,7.36a4.44,4.44,0,0,1,.28-.53,4.44,4.44,0,0,0-.28.53,7.83,7.83,0,0,0-.73,3.32,8.11,8.11,0,1,0,1.67-4.88,6.87,6.87,0,0,0-.45.65,7.4,7.4,0,0,1,.44-.65l-12.3-7.36h0a8,8,0,0,0,.1-6.42h0l12.06-6.72a8,8,0,0,0,13.08,0l12.06,6.74a8,8,0,0,0-.62,3.1,8.06,8.06,0,1,0,9-8ZM43.86,113.51a6.24,6.24,0,1,1-6.24,6.24,6.18,6.18,0,0,1,.48-2.39A6.32,6.32,0,0,1,39,115.8,6.22,6.22,0,0,1,43.86,113.51Zm-19.42-4.77a6.65,6.65,0,0,0,.48-.77A6.65,6.65,0,0,1,24.44,108.74ZM63.66,74.19a6.24,6.24,0,1,1,7.15,6.16,5.22,5.22,0,0,1-1.82,0,6.25,6.25,0,0,1-3.93-2.23,6.51,6.51,0,0,1-.93-1.57A6.21,6.21,0,0,1,63.66,74.19ZM36.83,93.59h0Zm7,2.32A6.24,6.24,0,0,1,43,83.5a5.5,5.5,0,0,1,.91-.08,5.4,5.4,0,0,1,.91.08,6.22,6.22,0,0,1,3.93,2.23,6.14,6.14,0,0,1,.93,1.56,6,6,0,0,1,.47,2.37,6.27,6.27,0,0,1-6.24,6.25Zm7.44-3.14a8.07,8.07,0,0,0-.09-6.41l12.28-7.31A8,8,0,0,0,69,82.19v14a8,8,0,0,0-5.63,3.32Zm18.6,17.66A6.24,6.24,0,0,1,69,98a5.95,5.95,0,0,1,1.82,0,6.24,6.24,0,0,1-.91,12.41Z"/><path class="cls-4" d="M135.31,12.24v-14a8.06,8.06,0,0,0,7.15-8,8.06,8.06,0,0,0-8.06-8.06,8.06,8.06,0,0,0-8.06,8.06,7.92,7.92,0,0,0,.72,3.3L114.77.85a8.06,8.06,0,0,0-5.5-3.13,6.75,6.75,0,0,0-.91-.05,6.94,6.94,0,0,0-.91.05,8,8,0,0,0-6.52,11.11,7.6,7.6,0,0,0,.37.76,5.91,5.91,0,0,1-.37-.76L88.86,15.56a8.38,8.38,0,0,1,.59,1,8.38,8.38,0,0,0-.59-1h0a8.06,8.06,0,1,0-.14,9.57l-1.57-.93a6.25,6.25,0,1,1,.11-7.75l.08,0-.07,0A6.47,6.47,0,0,1,88.15,18l.81-.45-.81.45a6.21,6.21,0,0,1-.06,4.59l.94.57-1-.57a6,6,0,0,1-.93,1.56l1.57.94h0L101,32.49a4.44,4.44,0,0,1,.28-.53,4.44,4.44,0,0,0-.28.53,7.83,7.83,0,0,0-.73,3.32A8.11,8.11,0,1,0,102,30.93a6.87,6.87,0,0,0-.45.65c.14-.22.28-.44.44-.65l-12.3-7.36h0a8,8,0,0,0,.1-6.42h0l12.06-6.72a8,8,0,0,0,13.08,0L127,17.15a8,8,0,0,0-.62,3.1,8.06,8.06,0,1,0,9-8ZM108.36,29.57a6.24,6.24,0,1,1-6.24,6.24,6.09,6.09,0,0,1,.48-2.38,6,6,0,0,1,.93-1.56A6.2,6.2,0,0,1,108.36,29.57ZM88.94,24.81a7.77,7.77,0,0,0,.48-.78A7.77,7.77,0,0,1,88.94,24.81ZM128.16-9.75A6.24,6.24,0,0,1,134.4-16a6.24,6.24,0,0,1,6.24,6.24,6.24,6.24,0,0,1-5.33,6.16,6.84,6.84,0,0,1-.91.08,6.84,6.84,0,0,1-.91-.08,6.25,6.25,0,0,1-3.93-2.23,6.51,6.51,0,0,1-.93-1.57A6.21,6.21,0,0,1,128.16-9.75ZM101.33,9.65h0Zm7,2.32a6.24,6.24,0,0,1-.91-12.41,5.49,5.49,0,0,1,.91-.07,5.41,5.41,0,0,1,.91.07,6.22,6.22,0,0,1,3.93,2.23,6.14,6.14,0,0,1,.93,1.56,6.05,6.05,0,0,1,.47,2.38A6.27,6.27,0,0,1,108.36,12Zm7.44-3.14a8.07,8.07,0,0,0-.09-6.41L128-4.89a8,8,0,0,0,5.5,3.14v14a8,8,0,0,0-5.63,3.32Zm18.6,17.66a6.24,6.24,0,0,1-.91-12.41,5.95,5.95,0,0,1,1.82,0,6.24,6.24,0,0,1-.91,12.41Z"/><path class="cls-4" d="M6.31,12.24v-14a8.06,8.06,0,0,0,7.15-8A8.06,8.06,0,0,0,5.4-17.81,8.06,8.06,0,0,0-2.66-9.75a7.92,7.92,0,0,0,.72,3.3L-14.23.85a8.06,8.06,0,0,0-5.5-3.13,6.75,6.75,0,0,0-.91-.05,6.94,6.94,0,0,0-.91.05,8.07,8.07,0,0,0-7.15,8,8.06,8.06,0,0,0,.63,3.1,7.6,7.6,0,0,0,.37.76,5.91,5.91,0,0,1-.37-.76l-12.07,6.73a8.38,8.38,0,0,1,.59,1,8.38,8.38,0,0,0-.59-1h0a8,8,0,0,0-6.54-3.37,8.07,8.07,0,0,0-8.06,8.06,8.07,8.07,0,0,0,8.06,8.06,8,8,0,0,0,6.4-3.18l-1.57-.93a6.24,6.24,0,0,1-4.83,2.29,6.25,6.25,0,0,1-6.24-6.24A6.25,6.25,0,0,1-46.68,14a6.23,6.23,0,0,1,4.94,2.44l.08,0-.07,0A6.47,6.47,0,0,1-40.85,18l.81-.45-.81.45a6.24,6.24,0,0,1,.41,2.21,6.27,6.27,0,0,1-.47,2.38l.94.57-1-.57a6,6,0,0,1-.93,1.56l1.57.94h0L-28,32.49a4.44,4.44,0,0,1,.28-.53,4.44,4.44,0,0,0-.28.53,7.83,7.83,0,0,0-.73,3.32,8.07,8.07,0,0,0,8.06,8.06,8.07,8.07,0,0,0,8.06-8.06,8.07,8.07,0,0,0-8.06-8.06A8,8,0,0,0-27,30.93a6.87,6.87,0,0,0-.45.65c.14-.22.28-.44.44-.65l-12.3-7.36h0a8,8,0,0,0,.72-3.32,8,8,0,0,0-.62-3.1h0l12.06-6.72a8.06,8.06,0,0,0,6.54,3.37,8,8,0,0,0,6.54-3.38L-2,17.15a8,8,0,0,0-.62,3.1,8.06,8.06,0,1,0,9-8ZM-20.64,29.57a6.25,6.25,0,0,1,6.24,6.24,6.25,6.25,0,0,1-6.24,6.24,6.25,6.25,0,0,1-6.24-6.24,6.09,6.09,0,0,1,.48-2.38,6,6,0,0,1,.93-1.56A6.2,6.2,0,0,1-20.64,29.57Zm-19.42-4.76a7.77,7.77,0,0,0,.48-.78A7.77,7.77,0,0,1-40.06,24.81ZM-.84-9.75A6.24,6.24,0,0,1,5.4-16a6.24,6.24,0,0,1,6.24,6.24A6.24,6.24,0,0,1,6.31-3.59a6.84,6.84,0,0,1-.91.08,6.84,6.84,0,0,1-.91-.08A6.25,6.25,0,0,1,.56-5.82,6.51,6.51,0,0,1-.37-7.39,6.21,6.21,0,0,1-.84-9.75ZM-27.67,9.65h0Zm7,2.32a6.25,6.25,0,0,1-4.94-2.45,6.3,6.3,0,0,1-.89-1.58,6.24,6.24,0,0,1-.41-2.21A6.25,6.25,0,0,1-21.55-.44a5.49,5.49,0,0,1,.91-.07,5.41,5.41,0,0,1,.91.07A6.22,6.22,0,0,1-15.8,1.79a6.14,6.14,0,0,1,.93,1.56,6.05,6.05,0,0,1,.47,2.38,6.24,6.24,0,0,1-.41,2.21,6.3,6.3,0,0,1-.89,1.58A6.24,6.24,0,0,1-20.64,12Zm7.44-3.14a8.05,8.05,0,0,0,.62-3.1,8.08,8.08,0,0,0-.71-3.31L-1-4.89a8,8,0,0,0,5.5,3.14v14a8,8,0,0,0-5.63,3.32ZM5.4,26.49a6.24,6.24,0,0,1-.91-12.41A9.06,9.06,0,0,1,5.4,14a9.06,9.06,0,0,1,.91.07A6.24,6.24,0,0,1,5.4,26.49Z"/></pattern></defs><g id="_1366x600-Stroked" data-name="1366x600-Stroked"><rect class="cls-1" width="1368" height="602"/><g class="cls-5"><rect class="cls-6" width="1366" height="600"/></g></g></svg>