<svg xmlns="http://www.w3.org/2000/svg" width="23" height="23" viewBox="0 0 23 23">
    <path fill="#4F73FF" d="M21 14c.552 0 1 .448 1 1v7c0 .552-.448 1-1 1h-7c-.552 0-1-.448-1-1v-7c0-.552.448-1 1-1zM8 14c.552 0 1 .448 1 1v7c0 .552-.448 1-1 1H1c-.552 0-1-.448-1-1v-7c0-.552.448-1 1-1zM16.846.27c.361-.36.947-.36 1.308 0l4.575 4.576c.361.361.361.947 0 1.308l-4.575 4.575c-.361.361-.947.361-1.308 0l-4.575-4.575c-.361-.361-.361-.947 0-1.308zM8 1c.552 0 1 .448 1 1v7c0 .552-.448 1-1 1H1c-.552 0-1-.448-1-1V2c0-.552.448-1 1-1z"/>
</svg>
