<svg xmlns="http://www.w3.org/2000/svg" viewBox="0 0 704.88256 260.26216"><defs><style>.cls-1,.cls-11,.cls-12,.cls-14,.cls-16,.cls-2,.cls-3,.cls-6,.cls-7,.cls-9{fill:none;}.cls-1{stroke:#29ad4a;}.cls-1,.cls-14,.cls-16,.cls-4,.cls-6,.cls-7,.cls-9{stroke-linecap:round;}.cls-1,.cls-11,.cls-12,.cls-14,.cls-2,.cls-3,.cls-8{stroke-miterlimit:10;}.cls-2{stroke:#be252a;}.cls-3{stroke:#f36f4c;stroke-dasharray:3 3;}.cls-4,.cls-5{fill:#fff;}.cls-11,.cls-12,.cls-4,.cls-6,.cls-7,.cls-8,.cls-9{stroke:#000;}.cls-16,.cls-4,.cls-6,.cls-7,.cls-9{stroke-linejoin:round;}.cls-6{stroke-dasharray:2.98196 2.23647;}.cls-9{stroke-width:0.75px;}.cls-10{fill:#221f1f;}.cls-12{fill-rule:evenodd;}.cls-13{fill:#343434;}.cls-14{stroke:#343434;}.cls-15{fill:#be252a;}.cls-16{stroke:#fff;}</style></defs><g id="Layer_1" data-name="Layer 1"><line class="cls-1" x1="396.70135" y1="167.99394" x2="396.70135" y2="135.01249"/><line class="cls-2" x1="283.27491" y1="88.59178" x2="228.2719" y2="88.59178"/><line class="cls-2" x1="196.53499" y1="88.59178" x2="157.17808" y2="88.59178"/><line class="cls-3" x1="509.32255" y1="88.59178" x2="548.92136" y2="88.59178"/><rect class="cls-4" x="548.92136" y="53.59747" width="136.53038" height="72.97668"/><rect x="561.52166" y="32.54502" width="111.32979" height="30.04916"/><path class="cls-5" d="M568.74368,42.94685v-.28028h1.54882V43.106a.73484.73484,0,0,0,.82911.72949.67694.67694,0,0,0,.71972-.68945c0-1.26954-2.96777-.96973-2.96777-3.26758a1.9974,1.9974,0,0,1,2.21875-2.0791,1.93976,1.93976,0,0,1,2.208,1.98828v.44043h-1.54883v-.54c0-.30957-.29981-.48926-.66992-.48926a.58447.58447,0,0,0-.64942.59961c0,1.01953,2.96875.78906,2.96875,3.208a2.10109,2.10109,0,0,1-2.30859,2.18847A2.15246,2.15246,0,0,1,568.74368,42.94685Z"/><path class="cls-5" d="M577.23684,43.79548h-1.44922l-.28906,1.25h-1.50977l1.5293-7.09668h2.00879l1.53906,7.09668h-1.53906Zm-.71875-3.957-.4502,2.55859h.89942Z"/><path class="cls-5" d="M583.54934,43.64607v1.39941h-3.6875V37.9488h1.54883v5.69727Z"/><path class="cls-5" d="M585.87258,39.34821V40.897h1.71875v1.39942h-1.71875v1.34961h2.11914v1.39941h-3.668V37.9488h3.668v1.39941Z"/><path class="cls-5" d="M588.75246,42.94685v-.28028h1.54883V43.106a.73564.73564,0,0,0,.83008.72949.677.677,0,0,0,.71973-.68945c0-1.26954-2.96875-.96973-2.96875-3.26758a1.99739,1.99739,0,0,1,2.21875-2.0791,1.94056,1.94056,0,0,1,2.209,1.98828v.44043h-1.54883v-.54c0-.30957-.2998-.48926-.66992-.48926a.58446.58446,0,0,0-.64941.59961c0,1.01953,2.96777.78906,2.96777,3.208a2.10109,2.10109,0,0,1-2.30859,2.18847A2.15247,2.15247,0,0,1,588.75246,42.94685Z"/><path class="cls-5" d="M595.84231,39.34821V41.147h1.81933v1.39942h-1.81933v2.499h-1.54883V37.9488h3.668v1.39941Z"/><path class="cls-5" d="M598.73586,43.17634v-3.3584a2.38758,2.38758,0,0,1,4.71778,0v3.3584a2.38758,2.38758,0,0,1-4.71778,0Zm3.16895.01953V39.79841c0-.36035-.24024-.59961-.79981-.59961-.58007,0-.81933.23926-.81933.59961v3.39746c0,.36035.23926.59961.80957.59961C601.66457,43.79548,601.90481,43.55622,601.90481,43.19587Z"/><path class="cls-5" d="M606.67532,42.48689h-.73926v2.55859h-1.54981V37.9488h2.35938a1.94648,1.94648,0,0,1,2.11816,1.93945v.65918a1.85434,1.85434,0,0,1-.709,1.499l.91894,2.999h-1.61914Zm-.73926-1.39942h.90918a.43552.43552,0,0,0,.46972-.46972v-.79981a.43289.43289,0,0,0-.46-.46973h-.91894Z"/><path class="cls-5" d="M609.77786,43.17634v-3.3584a2.36994,2.36994,0,0,1,4.6875,0v.88965H612.896v-.90918c0-.36035-.25977-.59961-.76953-.59961-.5293,0-.79883.23926-.79883.59961v3.39746c0,.36035.26953.59961.78906.59961s.7793-.23926.7793-.59961v-.90918h1.56934v.88965a2.36994,2.36994,0,0,1-4.6875,0Z"/><path class="cls-5" d="M616.91262,39.34821V40.897h1.71875v1.39942h-1.71875v1.34961h2.11914v1.39941h-3.668V37.9488h3.668v1.39941Z"/><path class="cls-5" d="M621.813,43.17634v-3.3584a2.36994,2.36994,0,0,1,4.6875,0v.88965h-1.56933v-.90918c0-.36035-.25977-.59961-.76954-.59961-.52929,0-.79882.23926-.79882.59961v3.39746c0,.36035.26953.59961.78906.59961s.7793-.23926.7793-.59961v-.90918h1.56933v.88965a2.36994,2.36994,0,0,1-4.6875,0Z"/><path class="cls-5" d="M627.36282,43.17634v-3.3584a2.38758,2.38758,0,0,1,4.71777,0v3.3584a2.38757,2.38757,0,0,1-4.71777,0Zm3.16894.01953V39.79841c0-.36035-.24023-.59961-.7998-.59961-.58008,0-.81934.23926-.81934.59961v3.39746c0,.36035.23926.59961.80957.59961C630.29153,43.79548,630.53176,43.55622,630.53176,43.19587Z"/><path class="cls-5" d="M638.80032,45.04548h-1.33008V40.4781l-1.00879,4.56738h-1.10938l-1.01953-4.60742v4.60742h-1.31933V37.9488h1.83886l1.04981,4.05762,1.04883-4.05762h1.84961Z"/><path class="cls-5" d="M645.57961,45.04548h-1.3291V40.4781l-1.00976,4.56738h-1.10938l-1.01953-4.60742v4.60742H639.7925V37.9488h1.83887l1.04981,4.05762,1.0498-4.05762h1.84863Z"/><path class="cls-5" d="M648.12258,39.34821V40.897h1.71875v1.39942h-1.71875v1.34961h2.11817v1.39941h-3.668V37.9488h3.668v1.39941Z"/><path class="cls-5" d="M653.36086,42.48689h-.74023v2.55859H651.0718V37.9488h2.3584a1.94732,1.94732,0,0,1,2.11914,1.93945v.65918a1.85232,1.85232,0,0,1-.71,1.499l.91992,2.999h-1.61914Zm-.74023-1.39942h.91015a.436.436,0,0,0,.46973-.46972v-.79981a.43338.43338,0,0,0-.46-.46973h-.91992Z"/><path class="cls-5" d="M656.4634,43.17634v-3.3584a2.36994,2.36994,0,0,1,4.6875,0v.88965h-1.56933v-.90918c0-.36035-.25977-.59961-.76954-.59961-.53027,0-.7998.23926-.7998.59961v3.39746c0,.36035.26953.59961.79.59961.51953,0,.7793-.23926.7793-.59961v-.90918h1.56933v.88965a2.36994,2.36994,0,0,1-4.6875,0Z"/><path class="cls-5" d="M663.59817,39.34821V40.897h1.71875v1.39942h-1.71875v1.34961h2.11816v1.39941h-3.668V37.9488h3.668v1.39941Z"/><path class="cls-5" d="M574.34914,55.17634v-3.3584a2.36994,2.36994,0,0,1,4.6875,0v.88965h-1.56933v-.90918c0-.36035-.25977-.59961-.76953-.59961-.5293,0-.79883.23926-.79883.59961v3.39746c0,.36035.26953.59961.78906.59961s.7793-.23926.7793-.59961v-.90918h1.56933v.88965a2.36994,2.36994,0,0,1-4.6875,0Z"/><path class="cls-5" d="M583.62356,55.64607v1.39941h-3.68848V49.9488h1.54981v5.69727Z"/><path class="cls-5" d="M584.3511,55.17634v-3.3584a2.38758,2.38758,0,0,1,4.71777,0v3.3584a2.38757,2.38757,0,0,1-4.71777,0Zm3.16894.01953V51.79841c0-.36035-.24023-.59961-.7998-.59961-.58008,0-.81934.23926-.81934.59961v3.39746c0,.36035.23926.59961.80957.59961C587.27981,55.79548,587.52,55.55622,587.52,55.19587Z"/><path class="cls-5" d="M589.95071,55.17634V49.9488h1.54882v5.24707c0,.36035.2295.59961.71973.59961.5,0,.72949-.23926.72949-.59961V49.9488h1.54883v5.22754a2.28953,2.28953,0,0,1-4.54687,0Z"/><path class="cls-5" d="M600.01614,51.96833V55.026a2.05339,2.05339,0,0,1-2.26856,2.01953h-2.29883V49.9488h2.28907A2.06192,2.06192,0,0,1,600.01614,51.96833Zm-1.54883-.02051a.56692.56692,0,0,0-.61914-.59961h-.84961v4.29786h.83887a.57018.57018,0,0,0,.62988-.59961Z"/><path class="cls-5" d="M605.97707,55.79548h-1.44921l-.28907,1.25H602.729l1.52929-7.09668h2.00879l1.53907,7.09668h-1.53907Zm-.71875-3.957-.45019,2.55859h.89941Z"/><path class="cls-5" d="M613.07961,51.88825v.90918a1.94549,1.94549,0,0,1-2.1084,1.94922h-.81933v2.29883h-1.54981V49.9488h2.35938A1.952,1.952,0,0,1,613.07961,51.88825Zm-1.54883-.07031a.4383.4383,0,0,0-.46-.46973h-.91894v1.999h.90918a.44306.44306,0,0,0,.46972-.47949Z"/><path class="cls-5" d="M618.39309,51.88825v.90918a1.94549,1.94549,0,0,1-2.1084,1.94922h-.81933v2.29883h-1.54981V49.9488h2.35938A1.952,1.952,0,0,1,618.39309,51.88825Zm-1.54883-.07031a.43831.43831,0,0,0-.46-.46973h-.91894v1.999h.90917a.44307.44307,0,0,0,.46973-.47949Z"/><path class="cls-5" d="M622.9175,55.64607v1.39941H619.23V49.9488h1.54883v5.69727Z"/><path class="cls-5" d="M623.69289,49.9488h1.54883v7.09668h-1.54883Z"/><path class="cls-5" d="M626.16457,55.17634v-3.3584a2.36994,2.36994,0,0,1,4.6875,0v.88965h-1.56933v-.90918c0-.36035-.25977-.59961-.76953-.59961-.5293,0-.79883.23926-.79883.59961v3.39746c0,.36035.26953.59961.78906.59961s.7793-.23926.7793-.59961v-.90918h1.56933v.88965a2.36994,2.36994,0,0,1-4.6875,0Z"/><path class="cls-5" d="M634.71926,55.79548H633.27l-.28906,1.25h-1.50977l1.5293-7.09668h2.00879l1.53906,7.09668H635.0093Zm-.71875-3.957-.45019,2.55859h.89941Z"/><path class="cls-5" d="M641.07668,51.34821H639.607v5.69727h-1.54883V51.34821h-1.47949V49.9488h4.498Z"/><path class="cls-5" d="M641.83547,49.9488h1.54883v7.09668h-1.54883Z"/><path class="cls-5" d="M644.30715,55.17634v-3.3584a2.38758,2.38758,0,0,1,4.71778,0v3.3584a2.38758,2.38758,0,0,1-4.71778,0Zm3.16895.01953V51.79841c0-.36035-.24024-.59961-.79981-.59961-.58008,0-.81933.23926-.81933.59961v3.39746c0,.36035.23925.59961.80957.59961C647.23586,55.79548,647.4761,55.55622,647.4761,55.19587Z"/><path class="cls-5" d="M654.51711,49.9488v7.09668h-1.35937l-1.84961-4.03809v4.03809H649.9595V49.9488h1.34863l1.84961,4.05762V49.9488Z"/><path class="cls-5" d="M655.395,54.94685v-.28028h1.54883V55.106a.73483.73483,0,0,0,.8291.72949.67694.67694,0,0,0,.71973-.68945c0-1.26954-2.96777-.96973-2.96777-3.26758a1.99739,1.99739,0,0,1,2.21875-2.0791,1.93975,1.93975,0,0,1,2.208,1.98828v.44043h-1.54882v-.54c0-.30957-.29981-.48926-.66993-.48926a.58446.58446,0,0,0-.64941.59961c0,1.01953,2.96875.78906,2.96875,3.208a2.10109,2.10109,0,0,1-2.30859,2.18847A2.15247,2.15247,0,0,1,655.395,54.94685Z"/><rect class="cls-4" x="283.93948" y="39.37736" width="225.52373" height="95.63513"/><rect x="352.88433" y="30.37407" width="87.63404" height="18"/><path class="cls-5" d="M360.89993,37.17732v1.79882h1.81933v1.39942h-1.81933v2.498H359.3511V35.7779h3.668v1.39942Z"/><path class="cls-5" d="M367.97512,40.28571v.78907a2.126,2.126,0,0,1-4.2373,0v-.63965h1.54882v.75c0,.2998.2002.47949.57032.47949.36914,0,.56933-.17969.56933-.47949V40.17536c0-.28027-.12988-.45019-.33984-.45019h-2.15918V35.7779h3.77832v1.39942h-2.22852v1.18945h.62891A1.81848,1.81848,0,0,1,367.97512,40.28571Z"/><path class="cls-5" d="M375.47512,40.4947v.41015a1.9323,1.9323,0,0,1-2.02832,1.96875h-2.44922V35.7779h2.3086a1.85893,1.85893,0,0,1,2.03906,1.76856v.50976a1.509,1.509,0,0,1-.5293,1.12012A1.67357,1.67357,0,0,1,375.47512,40.4947Zm-2.92773-3.36817V38.606h.83886c.23047,0,.41016-.21973.41016-.5293v-.5a.42681.42681,0,0,0-.39941-.4502Zm1.3789,3.34864c0-.29981-.16015-.5293-.41015-.5293h-.96875V41.525h.959c.25977,0,.41992-.25.41992-.5498Z"/><path class="cls-5" d="M376.28567,41.00446V37.647a2.3874,2.3874,0,0,1,4.71777,0v3.35742a2.38739,2.38739,0,0,1-4.71777,0Zm3.16894.02051V37.62653c0-.35937-.24023-.5996-.7998-.5996-.58008,0-.81934.24023-.81934.5996V41.025c0,.35938.23926.59961.80957.59961C379.21438,41.62458,379.45461,41.38435,379.45461,41.025Z"/><path class="cls-5" d="M386.20852,37.17732h-1.46973V42.8736H383.19V37.17732h-1.47949V35.7779h4.49805Z"/><path class="cls-5" d="M394.69778,42.8736H393.3677V38.30622l-1.00879,4.56738h-1.10938L390.23,38.26618V42.8736h-1.31933V35.7779h1.83886l1.04981,4.05762,1.04883-4.05762h1.84961Z"/><path class="cls-5" d="M395.69094,35.7779h1.54883v7.0957h-1.54883Z"/><path class="cls-5" d="M402.47512,37.17732h-1.46875V42.8736h-1.5498V37.17732h-1.47852V35.7779h4.49707Z"/><path class="cls-5" d="M403.23391,35.7779h1.5498v7.0957h-1.5498Z"/><path class="cls-5" d="M408.84426,38.3365v-.71c0-.35937-.3291-.5996-.78906-.5996s-.79981.24023-.79981.5996V41.025c0,.35938.33985.59961.79.59961.46973,0,.79883-.24023.79883-.59961v-.59961h-.80957V39.026h2.35938v1.97851a2.36977,2.36977,0,0,1-4.6875,0V37.647a2.36977,2.36977,0,0,1,4.6875,0v.68946Z"/><path class="cls-5" d="M414.26125,41.62458H412.812l-.28906,1.249h-1.50976l1.52929-7.0957h2.00879l1.53907,7.0957h-1.53907Zm-.71875-3.958-.45019,2.5586h.89941Z"/><path class="cls-5" d="M420.61868,37.17732H419.149V42.8736h-1.54883V37.17732h-1.47949V35.7779h4.498Z"/><path class="cls-5" d="M421.37746,35.7779h1.54883v7.0957h-1.54883Z"/><path class="cls-5" d="M423.84914,41.00446V37.647a2.3874,2.3874,0,0,1,4.71778,0v3.35742a2.3874,2.3874,0,0,1-4.71778,0Zm3.16895.02051V37.62653c0-.35937-.24023-.5996-.79981-.5996-.58007,0-.81933.24023-.81933.5996V41.025c0,.35938.23926.59961.80957.59961C426.77786,41.62458,427.01809,41.38435,427.01809,41.025Z"/><path class="cls-5" d="M434.05813,35.7779v7.0957h-1.35938l-1.84863-4.0371v4.0371h-1.34961V35.7779h1.34961l1.84863,4.05762V35.7779Z"/><path d="M614.632,98.30167a1.6675,1.6675,0,0,1-1.272.52319,1.29215,1.29215,0,0,1-1.3523-1.288,1.255,1.255,0,0,1,1.3523-1.272,1.62166,1.62166,0,0,1,1.272.51519v-.64383c0-.48319-.39455-.77278-.95006-.77278a1.59015,1.59015,0,0,0-1.167.51519l-.31391-.49919a2.18528,2.18528,0,0,1,1.59389-.63583c.8451,0,1.56157.37023,1.56157,1.36029v2.62427H614.632Zm0-1.0867a1.2315,1.2315,0,0,0-.99838-.44287.78093.78093,0,1,0,0,1.54557,1.2315,1.2315,0,0,0,.99838-.44287Z"/><path d="M616.45121,100.20947V94.8403h.72446v.55519a1.58517,1.58517,0,0,1,1.272-.65183c1.01438,0,1.73084.76478,1.73084,2.03644,0,1.272-.71646,2.04476-1.73084,2.04476a1.55139,1.55139,0,0,1-1.272-.66015v2.04476Zm1.80316-4.822a1.3321,1.3321,0,0,0-1.0787.5715V97.6092a1.35349,1.35349,0,0,0,1.0787.57151c.72447,0,1.16734-.58751,1.16734-1.40061C619.42171,95.97531,618.97884,95.38749,618.25437,95.38749Z"/><path d="M621.0316,100.20947V94.8403h.72446v.55519a1.58517,1.58517,0,0,1,1.272-.65183c1.01438,0,1.73084.76478,1.73084,2.03644,0,1.272-.71646,2.04476-1.73084,2.04476a1.55139,1.55139,0,0,1-1.272-.66015v2.04476Zm1.80316-4.822a1.3321,1.3321,0,0,0-1.0787.5715V97.6092a1.35349,1.35349,0,0,0,1.0787.57151c.72447,0,1.16734-.58751,1.16734-1.40061C624.0021,95.97531,623.55923,95.38749,622.83476,95.38749Z"/><path class="cls-6" d="M613.33332,88.737h9.8865a3.672,3.672,0,0,1,3.672,3.672v9.905a3.672,3.672,0,0,1-3.672,3.672h-9.88649a3.67206,3.67206,0,0,1-3.67206-3.67206V92.409A3.672,3.672,0,0,1,613.33332,88.737Z"/><path class="cls-7" d="M606.91868,102.986h-4.5232a5.91178,5.91178,0,1,1-.0253-11.82334l0-.00127A8.86812,8.86812,0,0,1,614.87852,83.155a10.37144,10.37144,0,0,1,20.05906,3.60875,10.20993,10.20993,0,0,1-.35709,2.67675,7.36668,7.36668,0,0,1-4.082,13.54557h-1.47911"/><path class="cls-7" d="M216.2451,78.81919a10.1731,10.1731,0,1,0,2.73244,1.63366l.00185-.0004-8.01924,12.12011-4.31641-5.72329"/><path class="cls-7" d="M222.14667,74.08344q-1.01938.05064-2.03323.08715l-.00305-.00754-4.86-3.73162a4.12892,4.12892,0,0,0-5.16126-.07779l-5.23431,3.817q-1.01266-.0372-2.03322-.08715c-3.84132-.19087-6.83747-1.27961-6.83747,3.981s.71224,13.7914.71224,13.7914-.42734,6.39806,6.97991,11.80089c6.37131,4.6472,8.78329,6.32927,8.78329,6.32927h0s2.4611-1.68207,8.83241-6.32927c7.40725-5.40283,6.97991-11.80089,6.97991-11.80089s.71224-8.53076.71224-13.7914-2.99615-4.1719-6.83747-3.981"/><path class="cls-7" d="M348.54485,84.51074H306.82219a.89769.89769,0,0,0-.88879.90184V88.4694a.89774.89774,0,0,0,.88879.90133h41.72266a.898.898,0,0,0,.88855-.90133V85.41258A.898.898,0,0,0,348.54485,84.51074Z"/><path class="cls-7" d="M348.54485,90.85756H306.82219a.89813.89813,0,0,0-.88879.90179v5.84956a.89834.89834,0,0,0,.88879.90183h41.72266a.89863.89863,0,0,0,.88855-.90183V91.75935A.89842.89842,0,0,0,348.54485,90.85756Z"/><path class="cls-7" d="M341.11842,95.23645a.58426.58426,0,0,1-.58093.58869h-7.47394a.58419.58419,0,0,1-.58137-.58869V94.687a.5837.5837,0,0,1,.58137-.588h7.47394a.58378.58378,0,0,1,.58093.588Z"/><path class="cls-7" d="M345.71,96.45925a1.37647,1.37647,0,1,1,1.35536-1.375A1.36518,1.36518,0,0,1,345.71,96.45925Z"/><rect class="cls-8" x="319.11187" y="94.54084" width="0.68856" height="0.69867" rx="0.34428"/><rect class="cls-8" x="321.58542" y="94.54084" width="0.68856" height="0.69867" rx="0.34428"/><rect class="cls-8" x="324.05896" y="94.54084" width="0.68856" height="0.69867" rx="0.34428"/><rect class="cls-8" x="326.5325" y="94.54084" width="0.68856" height="0.69867" rx="0.34428"/><rect class="cls-8" x="329.00604" y="94.54084" width="0.68856" height="0.69867" rx="0.34428"/><line class="cls-9" x1="307.26568" y1="88.02648" x2="348.03927" y2="88.02648"/><path class="cls-10" d="M301.51614,104.82185c4.77968-.17026,4.78066,7.76121-.00024,7.5908C296.73162,112.58527,296.7325,104.64864,301.51614,104.82185Zm0,.81445c-3.55236-.15573-3.55458,6.111.00015,5.96288C305.06675,111.74443,305.0646,105.483,301.51614,105.6363Z"/><path class="cls-10" d="M310.02981,108.80427c0-.93555-.47266-1.23242-1.1875-1.23242a2.05145,2.05145,0,0,0-1.57324.82519v3.88379h-.8252v-5.31348h.8252v.76954a2.63609,2.63609,0,0,1,1.8916-.90137,1.50987,1.50987,0,0,1,1.69433,1.71582v3.72949h-.82519Z"/><path class="cls-10" d="M311.899,109.25544h2.64062v.72559H311.899Z"/><path class="cls-10" d="M315.61672,104.94294h2.94922a2.21309,2.21309,0,1,1,0,4.42285h-2.03516v2.915h-.91406Zm2.83887.81348h-1.92481v2.79492h1.92481a1.39892,1.39892,0,1,0,0-2.79492Z"/><path class="cls-10" d="M321.93118,106.96735h.82519v.85743a2.2589,2.2589,0,0,1,1.77149-.96778v.84766a1.43292,1.43292,0,0,0-.33008-.0332,1.94549,1.94549,0,0,0-1.44141.84668v3.76269h-.82519Z"/><path class="cls-10" d="M327.76125,106.83552a2.58051,2.58051,0,0,1,2.55274,2.84863v.209h-4.30176a1.87283,1.87283,0,0,0,1.91406,1.83789,2.32413,2.32413,0,0,0,1.63965-.6709l.39649.53906a2.88946,2.88946,0,0,1-2.11231.81348,2.79193,2.79193,0,0,1-.08887-5.57715Zm-1.749,2.45312h3.4873a1.72243,1.72243,0,0,0-1.749-1.77148A1.773,1.773,0,0,0,326.01223,109.28864Z"/><path class="cls-10" d="M337.94778,108.67243c0-.6709-.29688-1.10058-.9795-1.10058a1.8604,1.8604,0,0,0-1.4082.81445v3.89453h-.82519v-3.6084c0-.6709-.28516-1.10058-.97852-1.10058a1.85712,1.85712,0,0,0-1.39746.82519v3.88379h-.8252v-5.31348h.8252v.76954a2.29776,2.29776,0,0,1,1.7168-.90137,1.36391,1.36391,0,0,1,1.42968.98926,2.23817,2.23817,0,0,1,1.78223-.98926c.96777,0,1.48535.53906,1.48535,1.60547v3.83984h-.82519Z"/><path class="cls-10" d="M340.16946,105.51521a.55568.55568,0,0,1,1.11132,0,.55568.55568,0,1,1-1.11132,0Zm.14257,1.45214h.8252v5.31348h-.8252Z"/><path class="cls-10" d="M342.64407,110.983a2.41234,2.41234,0,0,0,1.75.75879c.81347,0,1.2539-.36328,1.2539-.87988,0-.583-.64941-.77051-1.36426-.94629-.90234-.209-1.92578-.45117-1.92578-1.55176,0-.82422.71582-1.52832,1.98047-1.52832a2.69191,2.69191,0,0,1,1.96973.76953l-.38477.57227a2.07221,2.07221,0,0,0-1.585-.6709c-.72558,0-1.17676.33008-1.17676.80273,0,.51758.6045.68262,1.29786.84766.9248.209,1.99121.47265,1.99121,1.64941,0,.8916-.71485,1.60645-2.08985,1.60645a2.82606,2.82606,0,0,1-2.1455-.83594Z"/><path class="cls-10" d="M349.99172,106.83552a2.58051,2.58051,0,0,1,2.55274,2.84863v.209H348.2427a1.87283,1.87283,0,0,0,1.91406,1.83789,2.32413,2.32413,0,0,0,1.63965-.6709l.39648.53906a2.88943,2.88943,0,0,1-2.1123.81348,2.79193,2.79193,0,0,1-.08887-5.57715Zm-1.749,2.45312H351.73a1.72243,1.72243,0,0,0-1.749-1.77148A1.773,1.773,0,0,0,348.2427,109.28864Z"/><path class="cls-10" d="M353.732,110.983a2.41,2.41,0,0,0,1.749.75879c.81445,0,1.25391-.36328,1.25391-.87988,0-.583-.64844-.77051-1.36426-.94629-.90137-.209-1.92481-.45117-1.92481-1.55176,0-.82422.71485-1.52832,1.98047-1.52832a2.68777,2.68777,0,0,1,1.96875.76953l-.38476.57227a2.07159,2.07159,0,0,0-1.584-.6709c-.72656,0-1.17773.33008-1.17773.80273,0,.51758.60547.68262,1.29883.84766.92382.209,1.99121.47265,1.99121,1.64941,0,.8916-.71485,1.60645-2.09082,1.60645a2.82388,2.82388,0,0,1-2.14453-.83594Z"/><path class="cls-9" d="M469.15018,82.96571a3.82667,3.82667,0,0,0-1.44636-.28222,3.89291,3.89291,0,1,0,2.48594.912l.0007-.00015-3.051,4.67274-1.6422-2.20653"/><path class="cls-9" d="M471.39548,81.1399q-.38784.01953-.77356.0336l-.00116-.00291-1.849-1.43867a1.55476,1.55476,0,0,0-1.96364-.03l-1.99143,1.47157q-.38527-.01434-.77355-.0336c-1.46146-.07358-2.60137-.49334-2.60137,1.53483s.271,5.3171.271,5.3171-.16259,2.46668,2.65556,4.54967c2.424,1.79167,3.34166,2.44017,3.34166,2.44017h0s.93635-.6485,3.36036-2.44017c2.81814-2.083,2.65556-4.54967,2.65556-4.54967s.271-3.28893.271-5.3171-1.1399-1.60841-2.60136-1.53483"/><path class="cls-7" d="M474.80779,98.26074h-24.236a6.13493,6.13493,0,0,1-.02591-12.2695l0-.00132a9.09546,9.09546,0,0,1,9.0709-9.11982,8.99286,8.99286,0,0,1,3.73887.81123,10.601,10.601,0,0,1,20.54241,3.74492,10.72782,10.72782,0,0,1-.3657,2.77777A7.664,7.664,0,0,1,479.352,98.26074h-1.51474"/><path class="cls-10" d="M437.95559,104.94294h.91406v7.33789h-.91406Z"/><path class="cls-10" d="M444.02883,108.80427c0-.93555-.47363-1.23242-1.18847-1.23242a2.05311,2.05311,0,0,0-1.57325.82519v3.88379h-.82519v-5.31348h.82519v.76954a2.6384,2.6384,0,0,1,1.89258-.90137,1.50988,1.50988,0,0,1,1.69434,1.71582v3.72949h-.8252Z"/><path class="cls-10" d="M449.28567,111.1695v-3.47656h-.87989v-.72559h.87989v-1.45214h.82519v1.45214H451.189v.72559h-1.07813v3.30078c0,.39551.17578.68164.53907.68164a.79668.79668,0,0,0,.56152-.21972l.24121.61621a1.34648,1.34648,0,0,1-.98926.34082A1.0875,1.0875,0,0,1,449.28567,111.1695Z"/><path class="cls-10" d="M455.84231,108.78278c0-.93554-.48438-1.21093-1.19922-1.21093a2.09089,2.09089,0,0,0-1.57324.82519v3.88379h-.8252v-7.33789h.8252v2.794a2.64307,2.64307,0,0,1,1.90332-.90137,1.49425,1.49425,0,0,1,1.69433,1.69336v3.75195h-.82519Z"/><path class="cls-10" d="M460.51711,106.83552a2.58051,2.58051,0,0,1,2.55274,2.84863v.209h-4.30176a1.87159,1.87159,0,0,0,1.91406,1.83789,2.32582,2.32582,0,0,0,1.63965-.6709l.39551.53906a2.88946,2.88946,0,0,1-2.11231.81348,2.79194,2.79194,0,0,1-.08789-5.57715Zm-1.749,2.45312h3.4873a1.72243,1.72243,0,0,0-1.749-1.77148A1.77234,1.77234,0,0,0,458.76809,109.28864Z"/><path class="cls-10" d="M466.75344,108.61775a3.66281,3.66281,0,0,1,3.74024-3.7959,3.299,3.299,0,0,1,2.8164,1.45215l-.76953.42871a2.492,2.492,0,0,0-2.04687-1.06641,2.98774,2.98774,0,0,0,0,5.96289,2.4655,2.4655,0,0,0,2.04687-1.06738l.78027.42871a3.337,3.337,0,0,1-2.82714,1.45215A3.66256,3.66256,0,0,1,466.75344,108.61775Z"/><path class="cls-10" d="M474.34328,104.94294h.8252v7.33789h-.8252Z"/><path class="cls-10" d="M476.39993,109.61872c-.193-3.62244,5.45267-3.62328,5.25876.00027C481.851,113.254,476.20773,113.25332,476.39993,109.61872Zm4.38964,0a1.77806,1.77806,0,1,0-3.53123.00023A1.77806,1.77806,0,1,0,480.78957,109.61872Z"/><path class="cls-10" d="M486.47707,111.53278a2.60075,2.60075,0,0,1-1.89257.87989,1.49457,1.49457,0,0,1-1.69434-1.69434v-3.751h.8252v3.49805c0,.93555.47363,1.21,1.18847,1.21a2.03565,2.03565,0,0,0,1.57324-.80273v-3.90528h.8252v5.31348h-.8252Z"/><path class="cls-10" d="M492.69192,111.48884a2.23563,2.23563,0,0,1-1.793.92383c-1.38672,0-2.36524-1.05567-2.36524-2.78321,0-1.69433.96778-2.79394,2.36524-2.79394a2.22059,2.22059,0,0,1,1.793.93457v-2.82715h.82519v7.33789h-.82519Zm0-3.05859a1.99418,1.99418,0,0,0-1.59473-.8584c-1.06738,0-1.70605.88086-1.70605,2.05761s.63867,2.0459,1.70605,2.0459a1.97538,1.97538,0,0,0,1.59473-.83593Z"/><line class="cls-7" x1="379.34712" y1="62.76576" x2="382.07639" y2="62.76576"/><line class="cls-7" x1="379.34712" y1="66.94433" x2="382.07639" y2="66.94433"/><line class="cls-7" x1="379.34712" y1="71.12291" x2="382.07639" y2="71.12291"/><path d="M380.71175,93.40862a.69646.69646,0,1,1-.70263.69643.69955.69955,0,0,1,.70263-.69643m0-1a1.69644,1.69644,0,1,0,1.70264,1.69643,1.70146,1.70146,0,0,0-1.70264-1.69643Z"/><rect class="cls-11" x="361.21176" y="75.31727" width="39" height="5.53984" rx="1.39906" transform="translate(302.62457 458.79895) rotate(-90)"/><line class="cls-7" x1="386.71216" y1="62.76576" x2="389.44143" y2="62.76576"/><line class="cls-7" x1="386.71216" y1="66.94433" x2="389.44143" y2="66.94433"/><line class="cls-7" x1="386.71216" y1="71.12291" x2="389.44143" y2="71.12291"/><path d="M388.07681,93.40862a.69646.69646,0,1,1-.70264.69643.69954.69954,0,0,1,.70264-.69643m0-1a1.69644,1.69644,0,1,0,1.70263,1.69643,1.70146,1.70146,0,0,0-1.70263-1.69643Z"/><rect class="cls-11" x="368.5768" y="75.31727" width="39" height="5.53984" rx="1.39906" transform="translate(309.98961 466.16399) rotate(-90)"/><line class="cls-7" x1="394.0772" y1="62.76576" x2="396.80647" y2="62.76576"/><line class="cls-7" x1="394.0772" y1="66.94433" x2="396.80647" y2="66.94433"/><line class="cls-7" x1="394.0772" y1="71.12291" x2="396.80647" y2="71.12291"/><path d="M395.44186,93.40862a.69646.69646,0,1,1-.70264.69643.69954.69954,0,0,1,.70264-.69643m0-1a1.69644,1.69644,0,1,0,1.70263,1.69643,1.70146,1.70146,0,0,0-1.70263-1.69643Z"/><rect class="cls-11" x="375.94184" y="75.31727" width="39" height="5.53984" rx="1.39906" transform="translate(317.35465 473.52903) rotate(-90)"/><line class="cls-7" x1="401.44224" y1="62.76576" x2="404.17152" y2="62.76576"/><line class="cls-7" x1="401.44224" y1="66.94433" x2="404.17152" y2="66.94433"/><line class="cls-7" x1="401.44224" y1="71.12291" x2="404.17152" y2="71.12291"/><path d="M402.80691,93.40862a.69646.69646,0,1,1-.7027.69643.69958.69958,0,0,1,.7027-.69643m0-1a1.69644,1.69644,0,1,0,1.70263,1.69643,1.70152,1.70152,0,0,0-1.70263-1.69643Z"/><rect class="cls-11" x="383.30688" y="75.31727" width="39" height="5.53984" rx="1.39906" transform="translate(324.71969 480.89407) rotate(-90)"/><line class="cls-7" x1="408.80728" y1="62.76576" x2="411.53656" y2="62.76576"/><line class="cls-7" x1="408.80728" y1="66.94433" x2="411.53656" y2="66.94433"/><line class="cls-7" x1="408.80728" y1="71.12291" x2="411.53656" y2="71.12291"/><path d="M410.1719,93.40862a.69646.69646,0,1,1-.70264.69643.69954.69954,0,0,1,.70264-.69643m0-1a1.69644,1.69644,0,1,0,1.70263,1.69643,1.70147,1.70147,0,0,0-1.70263-1.69643Z"/><rect class="cls-11" x="390.67192" y="75.31727" width="39" height="5.53984" rx="1.39906" transform="translate(332.08473 488.25911) rotate(-90)"/><path class="cls-10" d="M380.20852,106.17634l-2.49707,6.10547h-.374l-2.48633-6.10547v6.10547H373.937v-7.33789h1.30958l2.27734,5.58886,2.28808-5.58886h1.30958v7.33789h-.91309Z"/><path class="cls-10" d="M386.01614,111.67634a2.29816,2.29816,0,0,1-1.76075.7373,1.76951,1.76951,0,0,1-1.85937-1.75976,1.74118,1.74118,0,0,1,1.85937-1.75,2.22178,2.22178,0,0,1,1.76075.72656v-.957c0-.71484-.57227-1.12207-1.34278-1.12207a2.10917,2.10917,0,0,0-1.62793.7373l-.38476-.57226a2.7788,2.7788,0,0,1,2.123-.87988c1.12207,0,2.05762.50585,2.05762,1.793v3.65235h-.82519Zm0-1.51758a1.77836,1.77836,0,0,0-1.46289-.66016,1.16911,1.16911,0,1,0,0,2.32129,1.77836,1.77836,0,0,0,1.46289-.66015Z"/><path class="cls-10" d="M391.96633,108.80525c0-.93555-.47265-1.23243-1.1875-1.23243a2.05149,2.05149,0,0,0-1.57324.8252v3.88379h-.8252v-5.31348h.8252v.76953a2.63612,2.63612,0,0,1,1.8916-.90136,1.50988,1.50988,0,0,1,1.69434,1.71582v3.72949h-.8252Z"/><path class="cls-10" d="M397.65383,111.67634a2.29813,2.29813,0,0,1-1.76074.7373,1.76951,1.76951,0,0,1-1.85938-1.75976,1.74119,1.74119,0,0,1,1.85938-1.75,2.22177,2.22177,0,0,1,1.76074.72656v-.957c0-.71484-.57226-1.12207-1.34277-1.12207a2.10915,2.10915,0,0,0-1.62793.7373l-.38477-.57226a2.77884,2.77884,0,0,1,2.123-.87988c1.12207,0,2.05762.50585,2.05762,1.793v3.65235h-.8252Zm0-1.51758a1.77834,1.77834,0,0,0-1.46289-.66016,1.16911,1.16911,0,1,0,0,2.32129,1.77833,1.77833,0,0,0,1.46289-.66015Z"/><path class="cls-10" d="M400.42532,113.02985a2.02908,2.02908,0,0,0,1.72754.72657,1.52185,1.52185,0,0,0,1.70507-1.59571v-.75878a2.21949,2.21949,0,0,1-1.78222.94628c-1.38672,0-2.36524-1.03418-2.36524-2.751,0-1.70508.96778-2.76074,2.36524-2.76074a2.201,2.201,0,0,1,1.78222.93457v-.80274h.8252v5.15918c0,1.76074-1.23242,2.31055-2.53027,2.31055a2.71464,2.71464,0,0,1-2.14551-.792Zm3.43261-4.59863a1.95783,1.95783,0,0,0-1.584-.8584c-1.06738,0-1.70606.84766-1.70606,2.02442,0,1.166.63868,2.02441,1.70606,2.02441a1.96689,1.96689,0,0,0,1.584-.86914Z"/><path class="cls-10" d="M408.53274,106.8365a2.5805,2.5805,0,0,1,2.55273,2.84863v.209h-4.30176a1.87159,1.87159,0,0,0,1.91407,1.83789,2.3258,2.3258,0,0,0,1.63965-.6709l.3955.53907a2.88942,2.88942,0,0,1-2.1123.81347,2.79194,2.79194,0,0,1-.08789-5.57714Zm-1.749,2.45312H410.271a1.72243,1.72243,0,0,0-1.749-1.77148A1.77235,1.77235,0,0,0,406.78371,109.28962Z"/><path class="cls-10" d="M416.15578,111.48982a2.23889,2.23889,0,0,1-1.79394.92382c-1.38574,0-2.36523-1.05566-2.36523-2.7832,0-1.69434.96875-2.79394,2.36523-2.79394a2.22235,2.22235,0,0,1,1.79394.93457v-2.82715h.8252v7.33789h-.8252Zm0-3.0586a1.99752,1.99752,0,0,0-1.5957-.8584c-1.06738,0-1.70508.88086-1.70508,2.05762s.6377,2.0459,1.70508,2.0459a1.97865,1.97865,0,0,0,1.5957-.83594Z"/><path class="cls-10" d="M378.84328,121.55427a3.10317,3.10317,0,0,0,2.31055,1.0459c1.30957,0,1.72754-.7041,1.72754-1.26563,0-.87988-.8916-1.12207-1.85937-1.38574-1.17676-.30859-2.48633-.63867-2.48633-2.08008,0-1.21,1.07812-2.03515,2.51953-2.03515a3.4495,3.4495,0,0,1,2.60742,1.02343l-.55078.6709a2.80458,2.80458,0,0,0-2.123-.87988c-.87988,0-1.50683.47266-1.50683,1.166,0,.73731.84668.957,1.78222,1.21,1.19922.31933,2.56348.69335,2.56348,2.23339,0,1.06739-.72656,2.15625-2.707,2.15625a3.637,3.637,0,0,1-2.81641-1.166Z"/><path class="cls-10" d="M387.35793,117.8365a2.58051,2.58051,0,0,1,2.55274,2.84863v.209h-4.30176A1.87158,1.87158,0,0,0,387.523,122.732a2.32578,2.32578,0,0,0,1.63965-.6709l.39551.53907a2.88945,2.88945,0,0,1-2.11231.81347,2.79194,2.79194,0,0,1-.08789-5.57714Zm-1.749,2.45312h3.4873a1.72243,1.72243,0,0,0-1.749-1.77148A1.77234,1.77234,0,0,0,385.60891,120.28962Z"/><path class="cls-10" d="M391.13039,117.96833h.8252v.85742a2.25859,2.25859,0,0,1,1.77051-.96777v.84668a1.48137,1.48137,0,0,0-.33008-.03223,1.94187,1.94187,0,0,0-1.44043.84668v3.7627h-.8252Z"/><path class="cls-10" d="M393.85793,117.96833h.8916l1.77051,4.35645,1.76074-4.35645h.90235l-2.21192,5.31348h-.90234Z"/><path class="cls-10" d="M399.78664,116.51618a.55569.55569,0,0,1,1.11133,0,.55569.55569,0,1,1-1.11133,0Zm.14356,1.45215h.82519v5.31348h-.82519Z"/><path class="cls-10" d="M404.63821,117.8365a2.273,2.273,0,0,1,1.94726.92382l-.5498.50586a1.57549,1.57549,0,0,0-1.35352-.69336,2.06432,2.06432,0,0,0,0,4.10352,1.60289,1.60289,0,0,0,1.35352-.69238l.5498.50586a2.273,2.273,0,0,1-1.94726.92382,2.79212,2.79212,0,0,1,0-5.57714Z"/><path class="cls-10" d="M409.94,117.8365a2.58051,2.58051,0,0,1,2.55274,2.84863v.209h-4.30176A1.87158,1.87158,0,0,0,410.105,122.732a2.32578,2.32578,0,0,0,1.63965-.6709l.39551.53907a2.88942,2.88942,0,0,1-2.1123.81347,2.79194,2.79194,0,0,1-.0879-5.57714Zm-1.749,2.45312h3.48731a1.72245,1.72245,0,0,0-1.749-1.77148A1.77234,1.77234,0,0,0,408.19094,120.28962Z"/><rect class="cls-7" x="381.82043" y="172.28394" width="29.85406" height="29.6906"/><rect class="cls-7" x="387.44433" y="177.87704" width="18.60627" height="18.50439"/><line class="cls-7" x1="411.64958" y1="199.01053" x2="415.70135" y2="199.01053"/><line class="cls-7" x1="411.64958" y1="194.18917" x2="415.70135" y2="194.18917"/><line class="cls-7" x1="411.64958" y1="189.36781" x2="415.70135" y2="189.36781"/><line class="cls-7" x1="411.64958" y1="184.54645" x2="415.70135" y2="184.54645"/><line class="cls-7" x1="411.64958" y1="179.72508" x2="415.70135" y2="179.72508"/><line class="cls-7" x1="411.64958" y1="174.90372" x2="415.70135" y2="174.90372"/><line class="cls-7" x1="377.70135" y1="199.01053" x2="381.75312" y2="199.01053"/><line class="cls-7" x1="377.70135" y1="194.18917" x2="381.75312" y2="194.18917"/><line class="cls-7" x1="377.70135" y1="189.36781" x2="381.75312" y2="189.36781"/><line class="cls-7" x1="377.70135" y1="184.54645" x2="381.75312" y2="184.54645"/><line class="cls-7" x1="377.70135" y1="179.72508" x2="381.75312" y2="179.72508"/><line class="cls-7" x1="377.70135" y1="174.90372" x2="381.75312" y2="174.90372"/><line class="cls-7" x1="408.82111" y1="172.10476" x2="408.82111" y2="168.07518"/><line class="cls-7" x1="403.97321" y1="172.10476" x2="403.97321" y2="168.07518"/><line class="cls-7" x1="399.1253" y1="172.10476" x2="399.1253" y2="168.07518"/><line class="cls-7" x1="394.27739" y1="172.10476" x2="394.27739" y2="168.07518"/><line class="cls-7" x1="389.42949" y1="172.10476" x2="389.42949" y2="168.07518"/><line class="cls-7" x1="384.58158" y1="172.10476" x2="384.58158" y2="168.07518"/><line class="cls-7" x1="408.82111" y1="206.07518" x2="408.82111" y2="202.0456"/><line class="cls-7" x1="403.97321" y1="206.07518" x2="403.97321" y2="202.0456"/><line class="cls-7" x1="399.1253" y1="206.07518" x2="399.1253" y2="202.0456"/><line class="cls-7" x1="394.27739" y1="206.07518" x2="394.27739" y2="202.0456"/><line class="cls-7" x1="389.42949" y1="206.07518" x2="389.42949" y2="202.0456"/><line class="cls-7" x1="384.58158" y1="206.07518" x2="384.58158" y2="202.0456"/><path class="cls-10" d="M394.67336,188.83747h-3.59765L390.481,190.356h-1.21l2.915-7.33789h1.376l2.915,7.33789h-1.21Zm-3.27929-.97851h2.959l-1.48437-3.88379Z"/><path class="cls-10" d="M397.73,189.10212a.695.695,0,0,1,.69336.68164.70509.70509,0,0,1-.69336.69336.695.695,0,0,1-.68164-.69336A.68479.68479,0,0,1,397.73,189.10212Z"/><path class="cls-10" d="M399.75344,183.01814h1.09961V190.356h-1.09961Z"/><path class="cls-10" d="M402.86672,189.10212a.69475.69475,0,0,1,.69239.68164.70491.70491,0,0,1-.69239.69336.69513.69513,0,0,1-.68261-.69336A.685.685,0,0,1,402.86672,189.10212Z"/><rect class="cls-4" x="22.33472" y="51.57425" width="134.67937" height="75.04091"/><rect x="31.42508" y="42.57096" width="116.49865" height="18"/><path class="cls-5" d="M39.732,53.20173V49.84431a2.07819,2.07819,0,0,1,2.33886-2.01953,2.08685,2.08685,0,0,1,2.34864,2.01953V50.733H42.85012V49.8238c0-.36035-.25976-.59961-.76953-.59961-.5293,0-.79883.23926-.79883.59961v3.39746c0,.36035.26953.59961.78906.59961s.7793-.23926.7793-.59961v-.9082h1.56934v.88867a2.07769,2.07769,0,0,1-2.33887,2.01953A2.08685,2.08685,0,0,1,39.732,53.20173Z"/><path class="cls-5" d="M50.02493,47.97517v7.0957H48.4761v-2.748H46.86672v2.748H45.31789v-7.0957h1.54883v2.94726H48.4761V47.97517Z"/><path class="cls-5" d="M52.56692,49.3736v1.54883h1.71875v1.40039H52.56692v1.34864h2.11816v1.39941h-3.668v-7.0957h3.668V49.3736Z"/><path class="cls-5" d="M58.63039,53.82087H57.18118l-.28907,1.25H55.38235l1.52929-7.0957h2.00879l1.53907,7.0957H58.92043Zm-.71875-3.957-.45019,2.55859h.89941Z"/><path class="cls-5" d="M65.732,49.91364v.90918a1.945,1.945,0,0,1-2.1084,1.94922h-.81934v2.29883h-1.5498v-7.0957h2.35937A1.95126,1.95126,0,0,1,65.732,49.91364Zm-1.54883-.06933a.43858.43858,0,0,0-.46-.47071h-.919v2h.90918a.44382.44382,0,0,0,.46973-.48046Z"/><path class="cls-5" d="M73.062,52.692v.41016a1.93286,1.93286,0,0,1-2.02832,1.96875H68.5845v-7.0957h2.30957a1.85858,1.85858,0,0,1,2.03808,1.76855v.50977a1.51215,1.51215,0,0,1-.52929,1.12011A1.67213,1.67213,0,0,1,73.062,52.692ZM70.1343,49.3238v1.47949h.83887c.23047,0,.41015-.21972.41015-.52929v-.5a.4268.4268,0,0,0-.39941-.4502Zm1.37891,3.34863c0-.30078-.16016-.52929-.41016-.52929H70.1343v1.57812h.959c.25977,0,.41993-.25.41993-.54883Z"/><path class="cls-5" d="M73.87258,53.20173V49.84431a2.3874,2.3874,0,0,1,4.71778,0v3.35742a2.3874,2.3874,0,0,1-4.71778,0Zm3.16895.01953V49.8238c0-.36035-.24024-.59961-.79981-.59961-.58008,0-.81933.23926-.81933.59961v3.39746c0,.36035.23925.59961.80957.59961C76.80129,53.82087,77.04153,53.58161,77.04153,53.22126Z"/><path class="cls-5" d="M83.79543,49.3736H82.32668v5.69727h-1.5498V49.3736H79.29836V47.97517h4.49707Z"/><path class="cls-5" d="M89.11184,47.97517v7.0957H87.75246l-1.84863-4.03711v4.03711H84.55422v-7.0957h1.34961l1.84863,4.05664V47.97517Z"/><path class="cls-5" d="M91.648,49.3736v1.54883H93.3677v1.40039H91.648v1.34864h2.11914v1.39941h-3.668v-7.0957h3.668V49.3736Z"/><path class="cls-5" d="M98.91457,49.3736H97.44582v5.69727H95.896V49.3736H94.4175V47.97517h4.49707Z"/><path class="cls-5" d="M101.51711,52.97224V52.692h1.54883v.43946a.73636.73636,0,0,0,.83008.73047.67753.67753,0,0,0,.71973-.68946c0-1.26953-2.96875-.9707-2.96875-3.26855a1.99739,1.99739,0,0,1,2.21875-2.0791,1.94056,1.94056,0,0,1,2.209,1.98828v.44043H104.5259v-.54c0-.30957-.2998-.48926-.66992-.48926a.585.585,0,0,0-.64941.59961c0,1.01953,2.96777.79,2.96777,3.208a2.10181,2.10181,0,0,1-2.30859,2.18945A2.1532,2.1532,0,0,1,101.51711,52.97224Z"/><path class="cls-5" d="M108.607,49.3736v1.54883h1.71875v1.40039H108.607v1.34864h2.11816v1.39941h-3.668v-7.0957h3.668V49.3736Z"/><path class="cls-5" d="M113.84524,52.51228H113.106v2.55859h-1.5498v-7.0957h2.35937a1.94574,1.94574,0,0,1,2.11816,1.93847v.65918a1.85487,1.85487,0,0,1-.709,1.5l.91895,2.998h-1.61915Zm-.73926-1.39942h.90918a.43552.43552,0,0,0,.46973-.46972v-.79883a.43318.43318,0,0,0-.46-.47071H113.106Z"/><path class="cls-5" d="M121.70266,47.97517l-1.499,7.0957h-2.01856l-1.48926-7.0957h1.54883l.96,4.86718.96875-4.86718Z"/><path class="cls-5" d="M122.49856,47.97517h1.54883v7.0957h-1.54883Z"/><path class="cls-5" d="M124.97024,53.20173V49.84431a2.36977,2.36977,0,0,1,4.6875,0V50.733H128.0884V49.8238c0-.36035-.25976-.59961-.76953-.59961-.5293,0-.79883.23926-.79883.59961v3.39746c0,.36035.26953.59961.78907.59961s.77929-.23926.77929-.59961v-.9082h1.56934v.88867a2.36977,2.36977,0,0,1-4.6875,0Z"/><path class="cls-5" d="M132.105,49.3736v1.54883h1.71973v1.40039H132.105v1.34864h2.11914v1.39941h-3.668v-7.0957h3.668V49.3736Z"/><path class="cls-5" d="M134.98489,52.97224V52.692h1.54882v.43946a.73636.73636,0,0,0,.83008.73047.67753.67753,0,0,0,.71973-.68946c0-1.26953-2.96875-.9707-2.96875-3.26855a1.9974,1.9974,0,0,1,2.21875-2.0791,1.94056,1.94056,0,0,1,2.209,1.98828v.44043h-1.54882v-.54c0-.30957-.29981-.48926-.66993-.48926a.585.585,0,0,0-.64941.59961c0,1.01953,2.96777.79,2.96777,3.208a2.10181,2.10181,0,0,1-2.30859,2.18945A2.15319,2.15319,0,0,1,134.98489,52.97224Z"/><path d="M108.80773,84.76841a.34484.34484,0,0,1,.36667.35385v12.777a.34484.34484,0,0,1-.36667.35385.40359.40359,0,0,1-.36667-.35385v-12.777a.40359.40359,0,0,1,.36667-.35385m0-1a1.39838,1.39838,0,0,0-1.36667,1.35385v12.777a1.39837,1.39837,0,0,0,1.36667,1.35385,1.34289,1.34289,0,0,0,1.36667-1.35385v-12.777a1.34289,1.34289,0,0,0-1.36667-1.35385Z"/><path d="M70.54107,84.76841a.34484.34484,0,0,1,.36666.35385v12.777a.3669.3669,0,0,1-.73333,0v-12.777a.34484.34484,0,0,1,.36667-.35385m0-1a1.34291,1.34291,0,0,0-1.36667,1.35385v12.777a1.36673,1.36673,0,0,0,2.73333,0v-12.777a1.34288,1.34288,0,0,0-1.36666-1.35385Z"/><path class="cls-12" d="M101.993,102.33179a1.11054,1.11054,0,0,1-.86288.34352,1.35086,1.35086,0,0,1-1.03548-.51528l-3.53785-4.20818L93.019,102.16a1.35083,1.35083,0,0,1-1.03547.51528,1.39407,1.39407,0,0,1-1.12176-.51528l-3.53785-4.20818L83.87231,102.16a1.38653,1.38653,0,0,1-2.15722,0l-4.57332-5.49641a1.2711,1.2711,0,0,1,.17258-1.88938,1.285,1.285,0,0,1,1.89836.17176l3.53785,4.20818L86.28841,94.946a1.38653,1.38653,0,0,1,2.15723,0l3.53785,4.20818L95.52135,94.946a1.35127,1.35127,0,0,1,2.07093,0l4.65961,5.4964A1.352,1.352,0,0,1,101.993,102.33179ZM83.182,81.80615a5.06818,5.06818,0,1,1-5.17734,5.067A5.08839,5.08839,0,0,1,83.182,81.80615Zm13.02966,0a5.06706,5.06706,0,1,1,0,10.134,5.06706,5.06706,0,1,1,0-10.134Z"/><path class="cls-12" d="M102.88685,106.47808H76.33308a2.21516,2.21516,0,0,1-2.209-2.20837l.10343-25.58325a2.21517,2.21517,0,0,1,2.209-2.20838h26.55377a2.21517,2.21517,0,0,1,2.209,2.20838l-.10343,25.58325A2.21516,2.21516,0,0,1,102.88685,106.47808Z"/><path class="cls-13" d="M63.44875,148.17927H61.36184l-.294.80566H59.97512l1.80664-4.67187h1.24707l1.79981,4.67187H63.7427Zm-1.82129-.86133h1.54786l-.76954-2.14355Z"/><path class="cls-13" d="M67.67141,148.5572a1.58292,1.58292,0,0,1-1.19141.51172.96824.96824,0,0,1-1.09179-1.06446v-2.40234h.88867v2.05176a.54369.54369,0,0,0,.624.62305.99606.99606,0,0,0,.77051-.38477v-2.29h.88867v3.38281h-.88867Z"/><path class="cls-13" d="M69.83645,148.14411v-1.76465H69.2759v-.77734h.56055v-.9248h.89648v.9248h.68653v.77734h-.68653v1.52637c0,.21.11231.3711.30762.3711a.4865.4865,0,0,0,.30859-.09766l.18946.67187a1.09946,1.09946,0,0,1-.74317.21778A.84531.84531,0,0,1,69.83645,148.14411Z"/><path class="cls-13" d="M71.98879,147.28962c-.14106-2.30275,3.72141-2.29617,3.57909.00019C75.71061,149.59708,71.84668,149.60378,71.98879,147.28962Zm2.6543,0a.86938.86938,0,1,0-1.73046.00011A.86938.86938,0,1,0,74.64309,147.28962Z"/><path class="cls-13" d="M80.61282,146.84821c0-.31445-.14063-.53906-.50489-.53906a.89594.89594,0,0,0-.70019.39258v2.2832h-.89649v-2.13672c0-.31445-.13964-.53906-.5039-.53906a.90907.90907,0,0,0-.70117.39942v2.27636H76.4175v-3.38281h.88868v.44141a1.48216,1.48216,0,0,1,1.10742-.52539.89526.89526,0,0,1,.93847.61621,1.43172,1.43172,0,0,1,1.16211-.61621.90348.90348,0,0,1,.99512,1.02246v2.44433h-.89648Z"/><path class="cls-13" d="M84.605,148.63435a1.40013,1.40013,0,0,1-1.07129.43457,1.12678,1.12678,0,0,1-1.17675-1.1211,1.07087,1.07087,0,0,1,1.17675-1.07812,1.36622,1.36622,0,0,1,1.07129.41308v-.46972c0-.34278-.29394-.56641-.74218-.56641a1.42813,1.42813,0,0,0-.98829.39844l-.33593-.59473a2.21785,2.21785,0,0,1,1.47754-.53222c.7705,0,1.47851.30761,1.47851,1.28125v2.18554H84.605Zm0-.88282a.89357.89357,0,0,0-.71484-.29394c-.34961,0-.63672.18945-.63672.51172,0,.31543.28711.49707.63672.49707a.8905.8905,0,0,0,.71484-.29395Z"/><path class="cls-13" d="M86.71633,148.14411v-1.76465h-.55957v-.77734h.55957v-.9248h.89649v.9248h.68652v.77734h-.68652v1.52637c0,.21.1123.3711.30859.3711a.48558.48558,0,0,0,.30762-.09766l.18945.67187a1.0964,1.0964,0,0,1-.74219.21778A.846.846,0,0,1,86.71633,148.14411Z"/><path class="cls-13" d="M90.61965,145.51814a1.696,1.696,0,0,1,1.69531,1.8623v.19629H89.80032a.9109.9109,0,0,0,.97363.78418,1.38239,1.38239,0,0,0,.90332-.33594l.39258.57422a2.08589,2.08589,0,0,1-1.39356.46973,1.77562,1.77562,0,1,1-.05664-3.55078Zm-.833,1.45605h1.667a.78431.78431,0,0,0-.834-.749A.81277.81277,0,0,0,89.78664,146.97419Z"/><path class="cls-13" d="M95.49368,148.5572a1.32705,1.32705,0,0,1-1.043.51172c-.8545,0-1.499-.64453-1.499-1.77246,0-1.10645.63672-1.77832,1.499-1.77832a1.30254,1.30254,0,0,1,1.043.51757v-1.72265h.89648v4.67187h-.89648Zm0-1.86231a.97685.97685,0,0,0-.77051-.38574.99369.99369,0,0,0,0,1.96778.97888.97888,0,0,0,.77051-.38477Z"/><path class="cls-13" d="M101.23391,148.63435a1.40014,1.40014,0,0,1-1.07129.43457,1.12678,1.12678,0,0,1-1.17676-1.1211,1.07087,1.07087,0,0,1,1.17676-1.07812,1.36623,1.36623,0,0,1,1.07129.41308v-.46972c0-.34278-.29395-.56641-.74219-.56641a1.4281,1.4281,0,0,0-.98828.39844l-.33594-.59473a2.21788,2.21788,0,0,1,1.47754-.53222c.77051,0,1.47852.30761,1.47852,1.28125v2.18554h-.88965Zm0-.88282a.89357.89357,0,0,0-.71484-.29394c-.34961,0-.63672.18945-.63672.51172,0,.31543.28711.49707.63672.49707a.8905.8905,0,0,0,.71484-.29395Z"/><path class="cls-13" d="M103.34524,148.14411v-1.76465h-.56055v-.77734h.56055v-.9248h.89648v.9248h.68653v.77734h-.68653v1.52637c0,.21.11231.3711.30762.3711a.4865.4865,0,0,0,.30859-.09766l.18946.67187a1.09946,1.09946,0,0,1-.74317.21778A.84531.84531,0,0,1,103.34524,148.14411Z"/><path class="cls-13" d="M106.01223,148.14411v-1.76465h-.55957v-.77734h.55957v-.9248h.89648v.9248h.68653v.77734h-.68653v1.52637c0,.21.11231.3711.3086.3711a.48558.48558,0,0,0,.30762-.09766l.18945.67187a1.09642,1.09642,0,0,1-.74219.21778A.846.846,0,0,1,106.01223,148.14411Z"/><path class="cls-13" d="M110.44875,148.63435a1.40013,1.40013,0,0,1-1.07129.43457,1.12678,1.12678,0,0,1-1.17675-1.1211,1.07087,1.07087,0,0,1,1.17675-1.07812,1.36622,1.36622,0,0,1,1.07129.41308v-.46972c0-.34278-.29394-.56641-.74218-.56641a1.42813,1.42813,0,0,0-.98829.39844l-.33593-.59473a2.21785,2.21785,0,0,1,1.47754-.53222c.7705,0,1.47851.30761,1.47851,1.28125v2.18554h-.88965Zm0-.88282a.89357.89357,0,0,0-.71484-.29394c-.34961,0-.63672.18945-.63672.51172,0,.31543.28711.49707.63672.49707a.8905.8905,0,0,0,.71484-.29395Z"/><path class="cls-13" d="M113.96243,145.51814a1.55946,1.55946,0,0,1,1.33789.61621l-.582.53906a.83573.83573,0,0,0-.71386-.36426.98626.98626,0,0,0,0,1.96778.85241.85241,0,0,0,.71386-.36426l.582.54a1.56191,1.56191,0,0,1-1.33789.61621,1.77548,1.77548,0,1,1,0-3.55078Z"/><path class="cls-13" d="M117.33059,147.6822l-.40625.43359v.86914h-.88867v-4.67187h.88867V147.108l1.28223-1.50586h1.09277l-1.33789,1.5332,1.37988,1.84961h-1.11426Z"/><path class="cls-13" d="M74.42141,153.37946h-.55957v-.77734h.55957v-.18262a1.09062,1.09062,0,0,1,1.1416-1.17675,1.43734,1.43734,0,0,1,.64453.14062l-.18164.62988a.54911.54911,0,0,0-.28711-.06933c-.25195,0-.4209.168-.4209.49023v.168h.68653v.77734h-.68653v2.60547h-.89648Z"/><path class="cls-13" d="M76.68411,152.60212h.88964v.46191a1.448,1.448,0,0,1,1.07813-.53906v.86817a1.20117,1.20117,0,0,0-.24512-.02051,1.12835,1.12835,0,0,0-.833.37793v2.23437h-.88964Z"/><path class="cls-13" d="M79.15676,154.28962c-.14106-2.30275,3.7214-2.29617,3.57908.00019C82.87857,156.59708,79.01465,156.60378,79.15676,154.28962Zm2.6543,0a.86938.86938,0,1,0-1.73046.00011A.86938.86938,0,1,0,81.81106,154.28962Z"/><path class="cls-13" d="M87.78078,153.84821c0-.31445-.14062-.53906-.50488-.53906a.89594.89594,0,0,0-.70019.39258v2.2832h-.89649v-2.13672c0-.31445-.13965-.53906-.5039-.53906a.90911.90911,0,0,0-.70118.39942v2.27636h-.88867v-3.38281h.88867v.44141a1.4822,1.4822,0,0,1,1.10743-.52539.89526.89526,0,0,1,.93847.61621,1.43172,1.43172,0,0,1,1.16211-.61621.90348.90348,0,0,1,.99512,1.02246v2.44433h-.89649Z"/><path class="cls-13" d="M91.481,151.31306h.88867v1.72265a1.30434,1.30434,0,0,1,1.044-.51757c.86133,0,1.499.67187,1.499,1.77832,0,1.12793-.64453,1.77246-1.499,1.77246a1.32893,1.32893,0,0,1-1.044-.51172v.42773H91.481Zm1.65234,3.96387a.99261.99261,0,0,0,0-1.96778.98146.98146,0,0,0-.76367.39258V154.899A.992.992,0,0,0,93.13332,155.27693Z"/><path class="cls-13" d="M95.57864,154.28962c-.14107-2.30275,3.7214-2.29617,3.57908.00019C99.30045,156.59708,95.43652,156.60378,95.57864,154.28962Zm2.65429,0a.86938.86938,0,1,0-1.73045.00011A.86938.86938,0,1,0,98.23293,154.28962Z"/><path class="cls-13" d="M100.19,155.14411v-1.76465h-.55957v-.77734H100.19v-.9248h.89649v.9248h.68652v.77734h-.68652v1.52637c0,.21.1123.3711.30859.3711a.48556.48556,0,0,0,.30762-.09766l.18945.67187a1.09639,1.09639,0,0,1-.74218.21778A.846.846,0,0,1,100.19,155.14411Z"/><path class="cls-13" d="M102.75735,154.92048a1.939,1.939,0,0,0,1.16992.46191c.38476,0,.56641-.13281.56641-.34277,0-.23828-.29395-.32227-.67872-.39941-.582-.11231-1.33105-.252-1.33105-1.05762,0-.56738.49707-1.06445,1.38672-1.06445a2.12185,2.12185,0,0,1,1.3584.46191l-.34961.60938a1.43,1.43,0,0,0-1.002-.39258c-.32226,0-.53222.11914-.53222.31543,0,.21.2666.28711.64453.36425.58105.11231,1.3584.26661,1.3584,1.10645,0,.62305-.52442,1.08594-1.46387,1.08594a2.27853,2.27853,0,0,1-1.51269-.52539Z"/><line class="cls-14" x1="108.82565" y1="137.99763" x2="70.52316" y2="137.99763"/><line class="cls-14" x1="89.67441" y1="132.30527" x2="89.67441" y2="137.99758"/><path class="cls-13" d="M178.57473,145.147a2.36438,2.36438,0,0,1,2.45117-2.417,2.15756,2.15756,0,0,1,1.98926,1.1416l-.85449.4209a1.27964,1.27964,0,0,0-1.13477-.67969,1.53755,1.53755,0,0,0,0,3.06739,1.2669,1.2669,0,0,0,1.13477-.67969l.85449.41406a2.16989,2.16989,0,0,1-1.98926,1.14844A2.36416,2.36416,0,0,1,178.57473,145.147Z"/><path class="cls-13" d="M183.59231,145.78376c-.14039-2.303,3.72207-2.296,3.57908.00019C187.31479,148.091,183.45087,148.09812,183.59231,145.78376Zm2.6543,0a.869.869,0,1,0-1.72949.00011A.86895.86895,0,1,0,186.24661,145.78376Z"/><path class="cls-13" d="M190.30422,145.43415a.549.549,0,0,0-.623-.63086.96364.96364,0,0,0-.77051.39942v2.27636H188.021v-3.38281h.88965v.44141a1.54554,1.54554,0,0,1,1.18359-.52539.98379.98379,0,0,1,1.09961,1.07812v2.38867h-.88965Z"/><path class="cls-13" d="M192.42825,146.63825V144.8736h-.56055v-.77734h.56055v-.9248h.89648v.9248h.68652v.77734h-.68652V146.4c0,.21.1123.3711.30762.3711a.48652.48652,0,0,0,.30859-.09766l.18945.67187a1.09936,1.09936,0,0,1-.74316.21778A.84531.84531,0,0,1,192.42825,146.63825Z"/><path class="cls-13" d="M194.74953,143.066a.53223.53223,0,1,1,.53223.5332A.53665.53665,0,0,1,194.74953,143.066Zm.09083,1.03027H195.73v3.38281h-.88964Z"/><path class="cls-13" d="M199.06789,145.43415a.54925.54925,0,0,0-.624-.63086.96515.96515,0,0,0-.77051.39942v2.27636h-.88867v-3.38281h.88867v.44141a1.54888,1.54888,0,0,1,1.1836-.52539.98336.98336,0,0,1,1.09961,1.07812v2.38867h-.88868Z"/><path class="cls-13" d="M203.28176,147.05134a1.58288,1.58288,0,0,1-1.1914.51172.96825.96825,0,0,1-1.0918-1.06446v-2.40234h.88867V146.148a.54369.54369,0,0,0,.624.62305.99606.99606,0,0,0,.77051-.38477v-2.29h.88867v3.38281h-.88867Z"/><path class="cls-13" d="M205.023,145.78376c-.14039-2.303,3.72208-2.296,3.57909.00019C208.74546,148.091,204.88153,148.09812,205.023,145.78376Zm2.6543,0a.86894.86894,0,1,0-1.72948.00011A.86894.86894,0,1,0,207.67727,145.78376Z"/><path class="cls-13" d="M211.72512,147.05134a1.58288,1.58288,0,0,1-1.19141.51172.96824.96824,0,0,1-1.09179-1.06446v-2.40234h.88867V146.148a.54369.54369,0,0,0,.624.62305.99606.99606,0,0,0,.77051-.38477v-2.29h.88867v3.38281h-.88867Z"/><path class="cls-13" d="M213.78762,146.41462a1.94152,1.94152,0,0,0,1.16992.46191c.38477,0,.56739-.13281.56739-.34277,0-.23828-.294-.32226-.67969-.39941-.58106-.11231-1.33008-.252-1.33008-1.05762,0-.56738.49707-1.06445,1.38672-1.06445a2.12185,2.12185,0,0,1,1.3584.46191l-.35059.60938a1.42749,1.42749,0,0,0-1.001-.39258c-.32226,0-.53222.11914-.53222.31543,0,.21.26562.28711.64453.36426.58105.1123,1.3584.2666,1.3584,1.10644,0,.623-.52539,1.08594-1.46387,1.08594a2.27853,2.27853,0,0,1-1.51269-.52539Z"/><path class="cls-13" d="M217.2261,142.8072h.88867v4.67187h-.88867Z"/><path class="cls-13" d="M219.51223,148.06013a.4491.4491,0,0,0,.46875-.24512l.126-.28711-1.37207-3.43164h.95214l.88282,2.35254.88183-2.35254h.96l-1.58984,3.93555a1.2282,1.2282,0,0,1-1.28223.81933,2.39382,2.39382,0,0,1-.44043-.04882l.13282-.79786A.78738.78738,0,0,0,219.51223,148.06013Z"/><path class="cls-13" d="M227.06594,147.05134a1.327,1.327,0,0,1-1.043.51172c-.85449,0-1.499-.64453-1.499-1.77246,0-1.10645.63672-1.77832,1.499-1.77832a1.30251,1.30251,0,0,1,1.043.51757V142.8072h.89649v4.67187h-.89649Zm0-1.86231a.97688.97688,0,0,0-.77051-.38574.99369.99369,0,0,0,0,1.96778.97888.97888,0,0,0,.77051-.38477Z"/><path class="cls-13" d="M230.56594,144.01228a1.696,1.696,0,0,1,1.69531,1.8623v.19629h-2.51464a.9109.9109,0,0,0,.97363.78418,1.38239,1.38239,0,0,0,.90332-.33594l.39258.57422a2.08589,2.08589,0,0,1-1.39356.46973,1.77562,1.77562,0,1,1-.05664-3.55078Zm-.833,1.45605h1.667a.78431.78431,0,0,0-.834-.749A.81277.81277,0,0,0,229.73293,145.46833Z"/><path class="cls-13" d="M233.09328,148.76716v-4.6709h.88965v.42676a1.3056,1.3056,0,0,1,1.04395-.51074c.86816,0,1.49805.64355,1.49805,1.77148s-.62989,1.7793-1.49805,1.7793a1.29252,1.29252,0,0,1-1.04395-.51856v1.72266Zm1.65333-3.96387a.996.996,0,0,0-.76368.38574v1.19727a1.02,1.02,0,0,0,.76368.38477.99369.99369,0,0,0,0-1.96778Z"/><path class="cls-13" d="M237.40188,142.8072h.88965v4.67187h-.88965Z"/><path class="cls-13" d="M239.13625,145.78376c-.14106-2.30275,3.72141-2.29617,3.57909.00019C242.85807,148.09122,238.99414,148.09792,239.13625,145.78376Zm2.6543,0a.86938.86938,0,1,0-1.73046.00011A.86938.86938,0,1,0,241.79055,145.78376Z"/><path class="cls-13" d="M243.77688,148.06013a.44911.44911,0,0,0,.46875-.24512l.126-.28711-1.37208-3.43164h.95215l.88282,2.35254.88183-2.35254h.96l-1.58984,3.93555a1.22821,1.22821,0,0,1-1.28223.81933,2.39382,2.39382,0,0,1-.44043-.04882l.13282-.79786A.78729.78729,0,0,0,243.77688,148.06013Z"/><path class="cls-13" d="M191.41457,154.12849a1.3971,1.3971,0,0,1-1.07129.43457,1.12732,1.12732,0,0,1-1.17675-1.1211,1.07133,1.07133,0,0,1,1.17675-1.07812,1.36479,1.36479,0,0,1,1.07129.41309v-.46973c0-.34277-.29394-.56641-.74218-.56641a1.42409,1.42409,0,0,0-.98731.39844l-.33594-.59473a2.21793,2.21793,0,0,1,1.47754-.53222c.77051,0,1.47754.30761,1.47754,1.28125v2.18554h-.88965Zm0-.88281a.89012.89012,0,0,0-.71386-.29395c-.35059,0-.6377.18945-.6377.51172,0,.31543.28711.49707.6377.49707a.88709.88709,0,0,0,.71386-.29395Z"/><path class="cls-13" d="M195.63528,152.43415a.549.549,0,0,0-.62305-.63086.96364.96364,0,0,0-.77051.39942v2.27636h-.88965v-3.38281h.88965v.44141a1.54558,1.54558,0,0,1,1.1836-.52539.9838.9838,0,0,1,1.09961,1.07812v2.38867h-.88965Z"/><path class="cls-13" d="M199.91946,154.05134a1.32705,1.32705,0,0,1-1.043.51172c-.85449,0-1.499-.64453-1.499-1.77246,0-1.10645.63672-1.77832,1.499-1.77832a1.30253,1.30253,0,0,1,1.043.51757V149.8072h.89648v4.67187h-.89648Zm0-1.86231a.97688.97688,0,0,0-.77051-.38574.99369.99369,0,0,0,0,1.96778.97888.97888,0,0,0,.77051-.38477Z"/><path class="cls-13" d="M203.41164,152.78376c-.14106-2.30275,3.72141-2.29617,3.57909.00019C207.13346,155.09122,203.26953,155.09792,203.41164,152.78376Zm2.6543,0a.86938.86938,0,1,0-1.73046.00011A.86938.86938,0,1,0,206.06594,152.78376Z"/><path class="cls-13" d="M207.84036,149.8072h.88867v1.72265a1.30434,1.30434,0,0,1,1.04394-.51757c.86133,0,1.499.67187,1.499,1.77832,0,1.12793-.64454,1.77246-1.499,1.77246a1.32891,1.32891,0,0,1-1.04394-.51172v.42773h-.88867Zm1.65234,3.96387a.99261.99261,0,0,0,0-1.96778.98146.98146,0,0,0-.76367.39258v1.19727A.992.992,0,0,0,209.4927,153.77107Z"/><path class="cls-13" d="M212.34328,151.8736h-.56054v-.77734h.56054v-.18262a1.09062,1.09062,0,0,1,1.14161-1.17675,1.4405,1.4405,0,0,1,.64453.14062l-.18262.62988a.54676.54676,0,0,0-.28711-.06933c-.252,0-.41992.168-.41992.49023v.168h.68652v.77734h-.68652v2.60547h-.89649Z"/><path class="cls-13" d="M216.88918,154.05134a1.58288,1.58288,0,0,1-1.1914.51172.96825.96825,0,0,1-1.0918-1.06446v-2.40234h.88867V153.148a.54369.54369,0,0,0,.624.62305.996.996,0,0,0,.7705-.38477v-2.29h.88868v3.38281h-.88868Z"/><path class="cls-13" d="M218.95168,153.41462a1.94153,1.94153,0,0,0,1.16993.46191c.38476,0,.56738-.13281.56738-.34277,0-.23828-.29395-.32226-.67969-.39941-.58105-.11231-1.33008-.252-1.33008-1.05762,0-.56738.49707-1.06445,1.38672-1.06445a2.12185,2.12185,0,0,1,1.3584.46191l-.35059.60938a1.42749,1.42749,0,0,0-1.001-.39258c-.32227,0-.53223.11914-.53223.31543,0,.21.26563.28711.64453.36426.58106.1123,1.3584.2666,1.3584,1.10644,0,.623-.52539,1.08594-1.46387,1.08594a2.27853,2.27853,0,0,1-1.51269-.52539Z"/><path class="cls-13" d="M223.95852,151.01228a1.55944,1.55944,0,0,1,1.33789.61621l-.582.53906a.83574.83574,0,0,0-.71387-.36426.98626.98626,0,0,0,0,1.96778.85241.85241,0,0,0,.71387-.36426l.582.54a1.56189,1.56189,0,0,1-1.33789.61621,1.77548,1.77548,0,1,1,0-3.55078Z"/><path class="cls-13" d="M228.11477,154.12849a1.40011,1.40011,0,0,1-1.07129.43457,1.12678,1.12678,0,0,1-1.17676-1.1211,1.07087,1.07087,0,0,1,1.17676-1.07812,1.36621,1.36621,0,0,1,1.07129.41309v-.46973c0-.34277-.29395-.56641-.74219-.56641a1.4281,1.4281,0,0,0-.98828.39844l-.33594-.59473a2.21793,2.21793,0,0,1,1.47754-.53222c.77051,0,1.47852.30761,1.47852,1.28125v2.18554h-.88965Zm0-.88281a.89356.89356,0,0,0-.71484-.29395c-.34961,0-.63672.18945-.63672.51172,0,.31543.28711.49707.63672.49707a.89051.89051,0,0,0,.71484-.29395Z"/><path class="cls-13" d="M230.2261,153.63825V151.8736h-.56055v-.77734h.56055v-.9248h.89648v.9248h.68653v.77734h-.68653V153.4c0,.21.11231.3711.30762.3711a.48652.48652,0,0,0,.30859-.09766l.18946.67187a1.09941,1.09941,0,0,1-.74317.21778A.84531.84531,0,0,1,230.2261,153.63825Z"/><path class="cls-13" d="M234.12942,151.01228a1.696,1.696,0,0,1,1.69531,1.8623v.19629h-2.51465a.91092.91092,0,0,0,.97363.78418,1.38237,1.38237,0,0,0,.90332-.33594l.39258.57422a2.08588,2.08588,0,0,1-1.39355.46973,1.77562,1.77562,0,1,1-.05664-3.55078Zm-.833,1.45605h1.667a.7843.7843,0,0,0-.834-.749A.81276.81276,0,0,0,233.29641,152.46833Z"/><path class="cls-13" d="M198.52493,159.34235c0-.31445-.13965-.53906-.50391-.53906a.8995.8995,0,0,0-.70117.39258v2.2832h-.89649v-2.13672c0-.31445-.13965-.53906-.5039-.53906a.90719.90719,0,0,0-.7002.39942v2.27636h-.88965v-3.38281h.88965v.44141a1.478,1.478,0,0,1,1.10645-.52539.89452.89452,0,0,1,.93847.61621,1.43509,1.43509,0,0,1,1.16309-.61621.90279.90279,0,0,1,.99414,1.02246v2.44433h-.89648Z"/><path class="cls-13" d="M200.37942,157.066a.53223.53223,0,1,1,.53222.5332A.53664.53664,0,0,1,200.37942,157.066Zm.09179,1.03027h.88868v3.38281h-.88868Z"/><path class="cls-13" d="M202.59328,160.63825V158.8736h-.55957v-.77734h.55957v-.9248h.89649v.9248h.68652v.77734h-.68652V160.4c0,.21.1123.3711.30859.3711a.48556.48556,0,0,0,.30762-.09766l.18945.67187a1.09634,1.09634,0,0,1-.74218.21778A.846.846,0,0,1,202.59328,160.63825Z"/><path class="cls-13" d="M204.91457,157.066a.53223.53223,0,1,1,.53223.5332A.53665.53665,0,0,1,204.91457,157.066Zm.0918,1.03027h.88867v3.38281h-.88867Z"/><path class="cls-13" d="M207.28176,161.70271a1.34412,1.34412,0,0,0,1.05762.42089.82693.82693,0,0,0,.93164-.85449v-.34375a1.31951,1.31951,0,0,1-1.04395.53223c-.84668,0-1.49121-.59473-1.49121-1.72266a1.51285,1.51285,0,0,1,1.49121-1.72265,1.30436,1.30436,0,0,1,1.04395.51757v-.43359h.89648v3.15137c0,1.28906-.99414,1.60351-1.82812,1.60351a2.04087,2.04087,0,0,1-1.457-.5039ZM209.271,159.189a.96492.96492,0,0,0-.76367-.38574.93512.93512,0,0,0,0,1.86328.98506.98506,0,0,0,.76367-.38574Z"/><path class="cls-13" d="M213.26809,161.12849a1.39711,1.39711,0,0,1-1.07129.43457A1.12733,1.12733,0,0,1,211.02,160.442a1.07134,1.07134,0,0,1,1.17676-1.07812,1.3648,1.3648,0,0,1,1.07129.41309v-.46973c0-.34277-.29395-.56641-.74219-.56641a1.42407,1.42407,0,0,0-.9873.39844l-.33594-.59473a2.21791,2.21791,0,0,1,1.47754-.53222c.77051,0,1.47754.30761,1.47754,1.28125v2.18554h-.88965Zm0-.88281a.89014.89014,0,0,0-.71387-.29395c-.35058,0-.63769.18945-.63769.51172,0,.31543.28711.49707.63769.49707a.88711.88711,0,0,0,.71387-.29395Z"/><path class="cls-13" d="M215.37942,160.63825V158.8736h-.55957v-.77734h.55957v-.9248h.89648v.9248h.68653v.77734h-.68653V160.4c0,.21.11231.3711.3086.3711a.48555.48555,0,0,0,.30761-.09766l.18946.67187a1.09639,1.09639,0,0,1-.74219.21778A.846.846,0,0,1,215.37942,160.63825Z"/><path class="cls-13" d="M217.70071,157.066a.53223.53223,0,1,1,.53222.5332A.53664.53664,0,0,1,217.70071,157.066Zm.09179,1.03027h.88868v3.38281h-.88868Z"/><path class="cls-13" d="M219.50832,159.78376c-.14038-2.303,3.72208-2.296,3.57909.00019C223.23081,162.091,219.36688,162.09812,219.50832,159.78376Zm2.6543,0a.86894.86894,0,1,0-1.72948.00011A.86894.86894,0,1,0,222.16262,159.78376Z"/><path class="cls-13" d="M226.22024,159.43415a.54926.54926,0,0,0-.624-.63086.96515.96515,0,0,0-.7705.39942v2.27636H223.937v-3.38281h.88868v.44141a1.54886,1.54886,0,0,1,1.18359-.52539.98336.98336,0,0,1,1.09961,1.07812v2.38867h-.88867Z"/><path class="cls-13" d="M228.274,160.41462a1.93906,1.93906,0,0,0,1.16992.46191c.38477,0,.56641-.13281.56641-.34277,0-.23828-.29395-.32226-.67871-.39941-.582-.11231-1.33106-.252-1.33106-1.05762,0-.56738.49707-1.06445,1.38672-1.06445a2.12185,2.12185,0,0,1,1.3584.46191l-.34961.60938a1.43,1.43,0,0,0-1.00195-.39258c-.32227,0-.53223.11914-.53223.31543,0,.21.2666.28711.64453.36426.58106.1123,1.3584.2666,1.3584,1.10644,0,.623-.52441,1.08594-1.46387,1.08594a2.27853,2.27853,0,0,1-1.51269-.52539Z"/><line class="cls-14" x1="231.63539" y1="136.4918" x2="193.33289" y2="136.4918"/><line class="cls-14" x1="212.48414" y1="130.79945" x2="212.48414" y2="136.49175"/><path class="cls-13" d="M358.93313,225.24079l-1.31641,3.36133h-.43457l-1.3164-3.36133v3.36133h-.99414v-4.6709h1.39355l1.13477,2.91309,1.13378-2.91309h1.40137v4.6709h-1.002Z"/><path class="cls-13" d="M360.96243,224.19a.53223.53223,0,1,1,.53222.53223A.53665.53665,0,0,1,360.96243,224.19Zm.09082,1.0293h.88964v3.38281h-.88964Z"/><path class="cls-13" d="M363.1802,227.76228v-1.76563h-.56055v-.77734h.56055v-.92383h.89648v.92383h.68653v.77734h-.68653V227.524c0,.21.11231.37109.30762.37109a.48057.48057,0,0,0,.30859-.09863l.18946.67285a1.1,1.1,0,0,1-.74317.21679A.845.845,0,0,1,363.1802,227.76228Z"/><path class="cls-13" d="M365.50149,224.19a.53223.53223,0,1,1,.53222.53223A.53666.53666,0,0,1,365.50149,224.19Zm.09082,1.0293h.88965v3.38281h-.88965Z"/><path class="cls-13" d="M367.86868,228.82673a1.344,1.344,0,0,0,1.05761.41992.82661.82661,0,0,0,.93067-.85449v-.34277a1.3163,1.3163,0,0,1-1.043.53222c-.84766,0-1.49219-.5957-1.49219-1.72363a1.51352,1.51352,0,0,1,1.49219-1.72266,1.29938,1.29938,0,0,1,1.043.51856v-.43457h.89648v3.15234c0,1.28809-.99414,1.60352-1.82715,1.60352a2.03785,2.03785,0,0,1-1.457-.50391Zm1.98828-2.51465a.96349.96349,0,0,0-.7627-.38476.93459.93459,0,0,0,0,1.8623.98365.98365,0,0,0,.7627-.38477Z"/><path class="cls-13" d="M373.855,228.25251a1.403,1.403,0,0,1-1.07129.43359A1.12657,1.12657,0,0,1,371.607,227.566a1.07107,1.07107,0,0,1,1.17675-1.0791A1.36953,1.36953,0,0,1,373.855,226.9v-.46875c0-.34277-.29394-.56738-.74218-.56738a1.42484,1.42484,0,0,0-.98829.39941l-.33593-.5957a2.21786,2.21786,0,0,1,1.47754-.53223c.7705,0,1.47851.3086,1.47851,1.28223v2.18457H373.855Zm0-.88281a.8905.8905,0,0,0-.71484-.29395c-.34961,0-.63672.18848-.63672.51075,0,.31543.28711.498.63672.498a.89111.89111,0,0,0,.71484-.29492Z"/><path class="cls-13" d="M375.96633,227.76228v-1.76563h-.56055v-.77734h.56055v-.92383h.89649v.92383h.68652v.77734h-.68652V227.524c0,.21.1123.37109.30761.37109a.48062.48062,0,0,0,.3086-.09863l.18945.67285a1.09991,1.09991,0,0,1-.74316.21679A.845.845,0,0,1,375.96633,227.76228Z"/><path class="cls-13" d="M379.86965,225.13532a1.69663,1.69663,0,0,1,1.69434,1.86328v.19629h-2.51367a.911.911,0,0,0,.97363.78418,1.38625,1.38625,0,0,0,.90332-.33593l.3916.57421a2.08171,2.08171,0,0,1-1.39355.46875,1.77561,1.77561,0,1,1-.05567-3.55078Zm-.834,1.457h1.667a.78278.78278,0,0,0-.833-.749A.813.813,0,0,0,379.03567,226.59235Z"/><path class="cls-13" d="M384.13918,223.93122h.88868v1.72266a1.30254,1.30254,0,0,1,1.04394-.51856c.86133,0,1.499.67286,1.499,1.7793,0,1.12793-.64453,1.77148-1.499,1.77148a1.32793,1.32793,0,0,1-1.04394-.51074v.42676h-.88868Zm1.65235,3.96387a.9926.9926,0,0,0,0-1.96777.98344.98344,0,0,0-.76367.3916v1.19824A.99192.99192,0,0,0,385.79153,227.89509Z"/><path class="cls-13" d="M388.23684,226.90778c-.14116-2.30417,3.72149-2.29759,3.57908.0002C391.95856,229.21383,388.09482,229.22053,388.23684,226.90778Zm2.6543,0a.86938.86938,0,1,0-1.73046.00011A.86938.86938,0,1,0,390.89114,226.90778Z"/><path class="cls-13" d="M392.84817,227.76228v-1.76563h-.55957v-.77734h.55957v-.92383h.89648v.92383h.68653v.77734h-.68653V227.524c0,.21.11231.37109.3086.37109a.48489.48489,0,0,0,.30859-.09863l.18848.67285a1.09692,1.09692,0,0,1-.74219.21679A.84576.84576,0,0,1,392.84817,227.76228Z"/><path class="cls-13" d="M395.41555,227.53767a1.93318,1.93318,0,0,0,1.16992.46191c.38477,0,.56641-.13281.56641-.34277,0-.23828-.29395-.32227-.67871-.39942-.58106-.11132-1.33106-.25195-1.33106-1.05761,0-.56739.49707-1.06446,1.38672-1.06446a2.12223,2.12223,0,0,1,1.3584.46289l-.34961.6084a1.42956,1.42956,0,0,0-1.002-.3916c-.32227,0-.53223.11914-.53223.31543,0,.21.2666.28711.64453.36426.58106.11133,1.3584.26562,1.3584,1.10644,0,.62305-.52441,1.085-1.46387,1.085a2.27347,2.27347,0,0,1-1.51269-.52539Z"/><path class="cls-13" d="M402.62649,228.25251a1.403,1.403,0,0,1-1.07129.43359,1.12657,1.12657,0,0,1-1.17676-1.12011,1.07108,1.07108,0,0,1,1.17676-1.0791,1.36955,1.36955,0,0,1,1.07129.41308v-.46875c0-.34277-.29395-.56738-.74219-.56738a1.42481,1.42481,0,0,0-.98828.39941l-.33594-.5957a2.21787,2.21787,0,0,1,1.47754-.53223c.77051,0,1.47852.3086,1.47852,1.28223v2.18457h-.88965Zm0-.88281a.89052.89052,0,0,0-.71485-.29395c-.34961,0-.63671.18848-.63671.51075,0,.31543.2871.498.63671.498a.89114.89114,0,0,0,.71485-.29492Z"/><path class="cls-13" d="M406.84719,226.5572a.54894.54894,0,0,0-.624-.62988.96446.96446,0,0,0-.77051.39843v2.27637H404.564v-3.38281h.88867v.4414a1.5522,1.5522,0,0,1,1.18359-.52539.98364.98364,0,0,1,1.09961,1.07911v2.38769h-.88867Z"/><path class="cls-13" d="M411.13137,228.17536a1.32793,1.32793,0,0,1-1.04394.51074c-.8545,0-1.499-.64355-1.499-1.77148,0-1.10644.6377-1.7793,1.499-1.7793a1.30254,1.30254,0,0,1,1.04394.51856v-1.72266h.89649v4.6709h-.89649Zm0-1.86328a.98036.98036,0,0,0-.77051-.38476.99368.99368,0,0,0,0,1.96777.97833.97833,0,0,0,.77051-.38574Z"/><path class="cls-13" d="M414.84036,225.21931h.88867v.46289a1.44772,1.44772,0,0,1,1.0791-.54v.86914a1.158,1.158,0,0,0-1.0791.35645v2.23437h-.88867Z"/><path class="cls-13" d="M419.06008,225.13532a1.6968,1.6968,0,0,1,1.69531,1.86328v.19629h-2.51464a.91163.91163,0,0,0,.97363.78418,1.38238,1.38238,0,0,0,.90332-.33593l.39258.57421a2.08526,2.08526,0,0,1-1.39356.46875,1.77562,1.77562,0,1,1-.05664-3.55078Zm-.833,1.457h1.667a.78373.78373,0,0,0-.834-.749A.81278.81278,0,0,0,418.22707,226.59235Z"/><path class="cls-13" d="M425.78176,226.46638c0-.31543-.13965-.53906-.5039-.53906a.90145.90145,0,0,0-.70118.3916v2.2832h-.89648v-2.13574c0-.31543-.13965-.53906-.50391-.53906a.90907.90907,0,0,0-.70019.39843v2.27637h-.88965v-3.38281h.88965v.4414a1.478,1.478,0,0,1,1.10644-.52539.89559.89559,0,0,1,.93848.61621,1.43767,1.43767,0,0,1,1.16309-.61621.9028.9028,0,0,1,.99414,1.02246v2.44434h-.89649Z"/><path class="cls-13" d="M427.522,226.90778c-.14049-2.30437,3.72216-2.29739,3.57908.0002C431.24439,229.21363,427.38065,229.22073,427.522,226.90778Zm2.65429,0a.86894.86894,0,1,0-1.72948.00011A.86894.86894,0,1,0,430.17629,226.90778Z"/><path class="cls-13" d="M431.38528,225.21931h.95312l.88184,2.35351.88281-2.35351h.959l-1.35839,3.38281h-.959Z"/><path class="cls-13" d="M437.09817,225.13532a1.6968,1.6968,0,0,1,1.69531,1.86328v.19629h-2.51465a.91164.91164,0,0,0,.97363.78418,1.38236,1.38236,0,0,0,.90332-.33593l.39258.57421a2.08525,2.08525,0,0,1-1.39355.46875,1.77562,1.77562,0,1,1-.05664-3.55078Zm-.833,1.457h1.667a.78372.78372,0,0,0-.834-.749A.81277.81277,0,0,0,436.26516,226.59235Z"/><path class="cls-13" d="M363.05715,235.17536a1.58526,1.58526,0,0,1-1.19043.51074.969.969,0,0,1-1.09277-1.06445v-2.40234h.88965V234.272a.54376.54376,0,0,0,.623.62305.99516.99516,0,0,0,.77051-.38574v-2.29h.88965v3.38281h-.88965Z"/><path class="cls-13" d="M367.28274,233.5572a.54894.54894,0,0,0-.624-.62988.96446.96446,0,0,0-.7705.39843v2.27637h-.88868v-3.38281h.88868v.4414a1.5522,1.5522,0,0,1,1.18359-.52539.98365.98365,0,0,1,1.09961,1.07911v2.38769h-.88867Z"/><path class="cls-13" d="M371.44778,233.29841l-.71485,2.30371h-.95215l-1.02929-3.38281h.92383l.63086,2.27637.74218-2.27637h.792l.74218,2.27637.62989-2.27637h.9248l-1.0293,3.38281h-.94629Z"/><path class="cls-13" d="M376.7886,235.25251a1.4,1.4,0,0,1-1.07129.43359,1.12712,1.12712,0,0,1-1.17676-1.12011,1.07155,1.07155,0,0,1,1.17676-1.0791,1.36815,1.36815,0,0,1,1.07129.41308v-.46875c0-.34277-.29395-.56738-.74219-.56738a1.42078,1.42078,0,0,0-.9873.39941l-.33594-.5957a2.21786,2.21786,0,0,1,1.47754-.53223c.7705,0,1.47754.3086,1.47754,1.28223v2.18457h-.88965Zm0-.88281a.88712.88712,0,0,0-.71387-.29395c-.35059,0-.6377.18848-.6377.51075,0,.31543.28711.498.6377.498a.88774.88774,0,0,0,.71387-.29492Z"/><path class="cls-13" d="M381.0093,233.5572a.54864.54864,0,0,0-.623-.62988.963.963,0,0,0-.7705.39843v2.27637h-.88965v-3.38281h.88965v.4414a1.54886,1.54886,0,0,1,1.18359-.52539.98408.98408,0,0,1,1.09961,1.07911v2.38769h-.88965Z"/><path class="cls-13" d="M383.13332,234.76228v-1.76563h-.56054v-.77734h.56054v-.92383h.89649v.92383h.68652v.77734h-.68652V234.524c0,.21.1123.37109.30762.37109a.48061.48061,0,0,0,.30859-.09863l.18945.67285a1.09991,1.09991,0,0,1-.74316.21679A.845.845,0,0,1,383.13332,234.76228Z"/><path class="cls-13" d="M387.03762,232.13532a1.69663,1.69663,0,0,1,1.69434,1.86328v.19629h-2.51368a.911.911,0,0,0,.97364.78418,1.38627,1.38627,0,0,0,.90332-.33593l.3916.57421a2.08171,2.08171,0,0,1-1.39356.46875,1.77561,1.77561,0,1,1-.05566-3.55078Zm-.834,1.457h1.667a.78278.78278,0,0,0-.833-.749A.813.813,0,0,0,386.20364,233.59235Z"/><path class="cls-13" d="M391.91164,235.17536a1.32793,1.32793,0,0,1-1.04394.51074c-.85449,0-1.499-.64355-1.499-1.77148,0-1.10644.63769-1.7793,1.499-1.7793a1.30254,1.30254,0,0,1,1.04394.51856v-1.72266h.89649v4.6709h-.89649Zm0-1.86328a.98032.98032,0,0,0-.7705-.38476.99368.99368,0,0,0,0,1.96777.97829.97829,0,0,0,.7705-.38574Z"/><path class="cls-13" d="M397.6509,235.25251a1.403,1.403,0,0,1-1.07129.43359,1.12656,1.12656,0,0,1-1.17675-1.12011,1.07107,1.07107,0,0,1,1.17675-1.0791,1.36953,1.36953,0,0,1,1.07129.41308v-.46875c0-.34277-.29394-.56738-.74219-.56738a1.42483,1.42483,0,0,0-.98828.39941l-.33593-.5957a2.21785,2.21785,0,0,1,1.47753-.53223c.77051,0,1.47852.3086,1.47852,1.28223v2.18457h-.88965Zm0-.88281a.8905.8905,0,0,0-.71484-.29395c-.34961,0-.63672.18848-.63672.51075,0,.31543.28711.498.63672.498a.89111.89111,0,0,0,.71484-.29492Z"/><path class="cls-13" d="M401.856,235.17536a1.58594,1.58594,0,0,1-1.19141.51074.96824.96824,0,0,1-1.09179-1.06445v-2.40234h.88867V234.272a.54407.54407,0,0,0,.624.62305.99677.99677,0,0,0,.77051-.38574v-2.29h.88867v3.38281H401.856Z"/><path class="cls-13" d="M404.021,234.76228v-1.76563h-.56055v-.77734h.56055v-.92383h.89648v.92383h.68653v.77734h-.68653V234.524c0,.21.11231.37109.30762.37109a.48057.48057,0,0,0,.30859-.09863l.18946.67285a1.1,1.1,0,0,1-.74317.21679A.845.845,0,0,1,404.021,234.76228Z"/><path class="cls-13" d="M406.17336,233.90778c-.14048-2.30437,3.72217-2.29739,3.57909.0002C409.89576,236.21363,406.032,236.22073,406.17336,233.90778Zm2.6543,0a.86894.86894,0,1,0-1.72948.00011A.86894.86894,0,1,0,408.82766,233.90778Z"/><path class="cls-13" d="M414.79739,233.46638c0-.31543-.14063-.53906-.50489-.53906a.89783.89783,0,0,0-.70019.3916v2.2832h-.89649v-2.13574c0-.31543-.13964-.53906-.5039-.53906a.911.911,0,0,0-.70117.39843v2.27637h-.88868v-3.38281h.88868v.4414a1.48219,1.48219,0,0,1,1.10742-.52539.89557.89557,0,0,1,.93847.61621,1.4343,1.4343,0,0,1,1.16211-.61621.90349.90349,0,0,1,.99512,1.02246v2.44434h-.89648Z"/><path class="cls-13" d="M418.78957,235.25251a1.39994,1.39994,0,0,1-1.07129.43359,1.12711,1.12711,0,0,1-1.17675-1.12011,1.07154,1.07154,0,0,1,1.17675-1.0791,1.36812,1.36812,0,0,1,1.07129.41308v-.46875c0-.34277-.29394-.56738-.74218-.56738a1.42082,1.42082,0,0,0-.98731.39941l-.33594-.5957a2.21789,2.21789,0,0,1,1.47754-.53223c.77051,0,1.47754.3086,1.47754,1.28223v2.18457h-.88965Zm0-.88281a.88709.88709,0,0,0-.71386-.29395c-.35059,0-.6377.18848-.6377.51075,0,.31543.28711.498.6377.498a.8877.8877,0,0,0,.71386-.29492Z"/><path class="cls-13" d="M420.9009,234.76228v-1.76563h-.55957v-.77734h.55957v-.92383h.89649v.92383h.68652v.77734h-.68652V234.524c0,.21.1123.37109.30859.37109a.48487.48487,0,0,0,.30859-.09863l.18848.67285a1.09688,1.09688,0,0,1-.74219.21679A.84576.84576,0,0,1,420.9009,234.76228Z"/><path class="cls-13" d="M423.22219,231.19a.53223.53223,0,1,1,.53223.53223A.53666.53666,0,0,1,423.22219,231.19Zm.0918,1.0293h.88867v3.38281H423.314Z"/><path class="cls-13" d="M425.02981,233.90778c-.14048-2.30437,3.72216-2.29739,3.57908.0002C428.7522,236.21363,424.88846,236.22073,425.02981,233.90778Zm2.6543,0a.86894.86894,0,1,0-1.72949.00011A.86894.86894,0,1,0,427.68411,233.90778Z"/><path class="cls-13" d="M431.74172,233.5572a.54893.54893,0,0,0-.624-.62988.96446.96446,0,0,0-.77051.39843v2.27637h-.88867v-3.38281h.88867v.4414a1.5522,1.5522,0,0,1,1.18359-.52539.98364.98364,0,0,1,1.09961,1.07911v2.38769h-.88867Z"/><line class="cls-14" x1="415.85259" y1="217.61543" x2="377.5501" y2="217.61543"/><line class="cls-14" x1="396.70135" y1="211.92312" x2="396.70135" y2="217.61543"/><path class="cls-13" d="M184.4634,29.26814H186.649a1.50009,1.50009,0,1,1,0,2.99707h-1.19141V33.939h-.99414Zm2.05176.85449h-1.05762v1.28808h1.05762a.64535.64535,0,1,0,0-1.28808Z"/><path class="cls-13" d="M188.95364,30.55622h.88867v.46289a1.44772,1.44772,0,0,1,1.0791-.54v.86914a1.158,1.158,0,0,0-1.0791.35645V33.939h-.88867Z"/><path class="cls-13" d="M191.42532,32.2447c-.14049-2.30438,3.72216-2.29739,3.57908.00019C195.14771,34.55054,191.284,34.55764,191.42532,32.2447Zm2.65429,0a.86894.86894,0,1,0-1.72948.0001A.86894.86894,0,1,0,194.07961,32.2447Z"/><path class="cls-13" d="M197.09036,32.79743,196.313,33.939h-.9873l1.19726-1.73632L195.395,30.55622h.99512l.7002,1.04395.69335-1.04395h.99415l-1.13379,1.64649L198.855,33.939h-.99414Z"/><path class="cls-13" d="M199.98293,34.52107a.4491.4491,0,0,0,.46875-.24512l.126-.28809-1.37207-3.43164h.95215l.88281,2.35352.88184-2.35352h.96l-1.58985,3.93653a1.22934,1.22934,0,0,1-1.28222.81933,2.48072,2.48072,0,0,1-.44043-.04883l.13281-.79882A.76784.76784,0,0,0,199.98293,34.52107Z"/><path class="cls-13" d="M207.2427,33.58943a1.403,1.403,0,0,1-1.07129.43359,1.12658,1.12658,0,0,1-1.17676-1.12012,1.07108,1.07108,0,0,1,1.17676-1.0791,1.36955,1.36955,0,0,1,1.07129.41309v-.46875c0-.34278-.294-.56739-.74219-.56739a1.42482,1.42482,0,0,0-.98828.39942l-.33594-.59571a2.21793,2.21793,0,0,1,1.47754-.53222c.77051,0,1.47852.30859,1.47852,1.28222V33.939h-.88965Zm0-.88282a.89051.89051,0,0,0-.71484-.29394c-.34961,0-.63672.18847-.63672.51074,0,.31543.28711.49805.63672.49805a.89113.89113,0,0,0,.71484-.29493Z"/><path class="cls-13" d="M211.46243,31.89411a.54864.54864,0,0,0-.62305-.62988.96294.96294,0,0,0-.77051.39844V33.939h-.88965V30.55622h.88965v.44141a1.54885,1.54885,0,0,1,1.18359-.52539.98407.98407,0,0,1,1.09961,1.0791V33.939h-.88964Z"/><path class="cls-13" d="M215.74758,33.51228a1.32793,1.32793,0,0,1-1.04394.51074c-.8545,0-1.499-.64356-1.499-1.77149,0-1.10644.6377-1.77929,1.499-1.77929a1.30253,1.30253,0,0,1,1.04394.51855V29.26814h.89649V33.939h-.89649Zm0-1.86328a.98032.98032,0,0,0-.77051-.38477.99368.99368,0,0,0,0,1.96777.97831.97831,0,0,0,.77051-.38574Z"/><path class="cls-13" d="M221.03176,30.47224a1.56054,1.56054,0,0,1,1.33789.61621l-.58105.54a.83627.83627,0,0,0-.71485-.36426.98632.98632,0,0,0,0,1.96777.85537.85537,0,0,0,.71485-.36425l.58105.53906a1.5581,1.5581,0,0,1-1.33789.61621,1.77548,1.77548,0,1,1,0-3.55078Z"/><path class="cls-13" d="M222.83743,32.2447c-.14049-2.30438,3.72216-2.29739,3.57908.00019C226.55982,34.55054,222.69608,34.55764,222.83743,32.2447Zm2.65429,0a.86894.86894,0,1,0-1.72948.0001A.86894.86894,0,1,0,225.49172,32.2447Z"/><path class="cls-13" d="M227.26321,29.26814h.88867V33.939h-.88867Z"/><path class="cls-13" d="M229.19875,29.26814h.88965V33.939h-.88965Z"/><path class="cls-13" d="M232.68313,30.47224a1.6968,1.6968,0,0,1,1.69531,1.86328v.19629h-2.51465a.91164.91164,0,0,0,.97364.78418,1.38239,1.38239,0,0,0,.90332-.33594l.39257.57422a2.08525,2.08525,0,0,1-1.39355.46875,1.77562,1.77562,0,1,1-.05664-3.55078Zm-.833,1.457h1.667a.78371.78371,0,0,0-.834-.749A.81276.81276,0,0,0,231.85012,31.92927Z"/><path class="cls-13" d="M236.80813,30.47224a1.56189,1.56189,0,0,1,1.33789.61621l-.582.54a.83574.83574,0,0,0-.71387-.36426.98625.98625,0,0,0,0,1.96777.85486.85486,0,0,0,.71387-.36425l.582.53906a1.55944,1.55944,0,0,1-1.33789.61621,1.77548,1.77548,0,1,1,0-3.55078Z"/><path class="cls-13" d="M239.21731,33.09919V31.33357h-.55957v-.77735h.55957v-.92383h.89648v.92383h.68653v.77735h-.68653v1.52734c0,.21.11231.37109.3086.37109a.47955.47955,0,0,0,.30761-.09863l.18946.67285a1.09692,1.09692,0,0,1-.74219.2168A.84577.84577,0,0,1,239.21731,33.09919Z"/><path class="cls-13" d="M193.1675,40.09919V38.33357H192.607v-.77735h.56054v-.92383h.89649v.92383h.68652v.77735H194.064v1.52734c0,.21.1123.37109.30762.37109a.48056.48056,0,0,0,.30859-.09863l.18945.67285a1.09991,1.09991,0,0,1-.74316.2168A.845.845,0,0,1,193.1675,40.09919Z"/><path class="cls-13" d="M197.07082,37.47224a1.69681,1.69681,0,0,1,1.69532,1.86328v.19629h-2.51465a.91163.91163,0,0,0,.97363.78418,1.38239,1.38239,0,0,0,.90332-.33594l.39258.57422a2.08526,2.08526,0,0,1-1.39356.46875,1.77562,1.77562,0,1,1-.05664-3.55078Zm-.833,1.457h1.667a.78373.78373,0,0,0-.834-.749A.81276.81276,0,0,0,196.23782,38.92927Z"/><path class="cls-13" d="M199.604,36.26814h.88965V40.939H199.604Z"/><path class="cls-13" d="M203.0884,37.47224a1.6968,1.6968,0,0,1,1.69531,1.86328v.19629h-2.51464a.91163.91163,0,0,0,.97363.78418,1.38239,1.38239,0,0,0,.90332-.33594l.39258.57422a2.08526,2.08526,0,0,1-1.39356.46875,1.77562,1.77562,0,1,1-.05664-3.55078Zm-.833,1.457h1.667a.78373.78373,0,0,0-.834-.749A.81277.81277,0,0,0,202.25539,38.92927Z"/><path class="cls-13" d="M209.81008,38.80329c0-.31543-.13965-.53906-.5039-.53906a.90145.90145,0,0,0-.70118.3916V40.939h-.89648V38.80329c0-.31543-.13965-.53906-.50391-.53906a.909.909,0,0,0-.70019.39844V40.939h-.88965V37.55622h.88965v.44141a1.47794,1.47794,0,0,1,1.10644-.52539.89558.89558,0,0,1,.93848.61621,1.43765,1.43765,0,0,1,1.16309-.61621.9028.9028,0,0,1,.99414,1.02246V40.939h-.89649Z"/><path class="cls-13" d="M213.30227,37.47224a1.69662,1.69662,0,0,1,1.69434,1.86328v.19629h-2.51368a.91063.91063,0,0,0,.97266.78418,1.38693,1.38693,0,0,0,.9043-.33594l.3916.57422a2.08175,2.08175,0,0,1-1.39356.46875,1.77561,1.77561,0,1,1-.05566-3.55078Zm-.834,1.457h1.667a.78278.78278,0,0,0-.833-.749A.81305.81305,0,0,0,212.46828,38.92927Z"/><path class="cls-13" d="M216.01907,40.09919V38.33357h-.55957v-.77735h.55957v-.92383h.89648v.92383h.68652v.77735h-.68652v1.52734c0,.21.11231.37109.30859.37109a.47958.47958,0,0,0,.30762-.09863l.18945.67285a1.09687,1.09687,0,0,1-.74218.2168A.84577.84577,0,0,1,216.01907,40.09919Z"/><path class="cls-13" d="M218.44387,37.55622h.88867v.46289a1.44772,1.44772,0,0,1,1.0791-.54v.86914a1.158,1.158,0,0,0-1.0791.35645V40.939h-.88867Z"/><path class="cls-13" d="M221.63235,41.52107a.44971.44971,0,0,0,.46972-.24512l.126-.28809L220.855,37.55622h.95313l.88183,2.35352.88282-2.35352h.959l-1.58984,3.93653a1.2289,1.2289,0,0,1-1.28125.81933,2.49149,2.49149,0,0,1-.44141-.04883l.13281-.79882A.76785.76785,0,0,0,221.63235,41.52107Z"/><path class="cls-13" d="M226.77,36.52693a.53223.53223,0,1,1,.53223.53222A.53665.53665,0,0,1,226.77,36.52693Zm.0918,1.02929h.88867V40.939h-.88867Z"/><path class="cls-13" d="M231.0884,38.89411a.54863.54863,0,0,0-.623-.62988.96294.96294,0,0,0-.77051.39844V40.939h-.88965V37.55622h.88965v.44141a1.54883,1.54883,0,0,1,1.18359-.52539.98407.98407,0,0,1,1.09961,1.0791V40.939h-.88965Z"/><path class="cls-13" d="M198.11477,44.55622h.88965v.46289a1.44568,1.44568,0,0,1,1.07812-.54v.86914a1.15614,1.15614,0,0,0-1.07812.35645V47.939h-.88965Z"/><path class="cls-13" d="M202.33547,44.47224a1.69662,1.69662,0,0,1,1.69434,1.86328v.19629h-2.51367a.91061.91061,0,0,0,.97265.78418,1.38691,1.38691,0,0,0,.9043-.33594l.3916.57422a2.08171,2.08171,0,0,1-1.39355.46875,1.77561,1.77561,0,1,1-.05567-3.55078Zm-.834,1.457h1.667a.78278.78278,0,0,0-.833-.749A.813.813,0,0,0,201.50149,45.92927Z"/><path class="cls-13" d="M206.90188,47.58943a1.4,1.4,0,0,1-1.07129.43359,1.12713,1.12713,0,0,1-1.17676-1.12012,1.07155,1.07155,0,0,1,1.17676-1.0791,1.36814,1.36814,0,0,1,1.07129.41309v-.46875c0-.34278-.29395-.56739-.74219-.56739a1.42081,1.42081,0,0,0-.9873.39942l-.33594-.59571a2.2179,2.2179,0,0,1,1.47754-.53222c.77051,0,1.47754.30859,1.47754,1.28222V47.939h-.88965Zm0-.88282a.88712.88712,0,0,0-.71387-.29394c-.35058,0-.63769.18847-.63769.51074,0,.31543.28711.49805.63769.49805a.88774.88774,0,0,0,.71387-.29493Z"/><path class="cls-13" d="M208.84036,43.26814h.88867V47.939h-.88867Z"/><path class="cls-13" d="M210.64993,45.86579h1.68164v.75684h-1.68164Z"/><path class="cls-13" d="M213.355,47.09919V45.33357h-.55957v-.77735h.55957v-.92383h.89649v.92383h.68652v.77735h-.68652v1.52734c0,.21.1123.37109.30859.37109a.47961.47961,0,0,0,.30762-.09863l.18945.67285a1.09688,1.09688,0,0,1-.74219.2168A.84577.84577,0,0,1,213.355,47.09919Z"/><path class="cls-13" d="M215.67629,43.52693a.53223.53223,0,1,1,.53223.53222A.53665.53665,0,0,1,215.67629,43.52693Zm.0918,1.02929h.88867V47.939h-.88867Z"/><path class="cls-13" d="M221.90676,45.80329c0-.31543-.13965-.53906-.5039-.53906a.90145.90145,0,0,0-.70118.3916V47.939h-.89648V45.80329c0-.31543-.13965-.53906-.50391-.53906a.909.909,0,0,0-.70019.39844V47.939h-.88965V44.55622h.88965v.44141a1.47794,1.47794,0,0,1,1.10644-.52539.89558.89558,0,0,1,.93848.61621,1.43765,1.43765,0,0,1,1.16309-.61621.9028.9028,0,0,1,.99414,1.02246V47.939h-.89649Z"/><path class="cls-13" d="M225.398,44.47224a1.6968,1.6968,0,0,1,1.69531,1.86328v.19629h-2.51464a.91163.91163,0,0,0,.97363.78418,1.38239,1.38239,0,0,0,.90332-.33594l.39258.57422a2.08526,2.08526,0,0,1-1.39356.46875,1.77562,1.77562,0,1,1-.05664-3.55078Zm-.833,1.457h1.667a.78373.78373,0,0,0-.834-.749A.81277.81277,0,0,0,224.565,45.92927Z"/><line class="cls-14" x1="193.33289" y1="55.74101" x2="231.63539" y2="55.74101"/><line class="cls-14" x1="212.48416" y1="61.43337" x2="212.48416" y2="55.74106"/><path class="cls-10" d="M180.40871,113.6861h4.8086v.81348h-3.89453v2.36621h3.81738v.81348h-3.81738V121.024h-.91407Z"/><path class="cls-10" d="M186.77786,119.3736a2.41554,2.41554,0,0,0,2.02441.96875,1.58455,1.58455,0,0,0,1.69434-1.57324,1.54683,1.54683,0,0,0-1.6836-1.585,2.29852,2.29852,0,0,0-1.69336.69336l-.67187-.23144v-3.96H190.937v.81348h-3.57617v2.55274a2.48593,2.48593,0,0,1,1.7168-.66016,2.248,2.248,0,0,1,2.332,2.34375,2.40241,2.40241,0,0,1-2.60742,2.41992,2.9961,2.9961,0,0,1-2.585-1.17676Z"/><path class="cls-10" d="M195.45657,113.6861h.91308v7.3379h-.91308Z"/><path class="cls-10" d="M201.52883,117.54743c0-.93554-.47265-1.23242-1.1875-1.23242a2.05149,2.05149,0,0,0-1.57324.8252V121.024h-.8252v-5.31348h.8252v.76953a2.63613,2.63613,0,0,1,1.8916-.90137,1.50988,1.50988,0,0,1,1.69434,1.71582v3.7295h-.8252Z"/><path class="cls-10" d="M204.05911,119.91267V116.4361h-.88086v-.72558h.88086v-1.45215h.82519v1.45215h1.07813v.72558H204.8843v3.30079c0,.3955.17578.68164.53906.68164a.796.796,0,0,0,.56055-.21973l.24219.61621a1.34742,1.34742,0,0,1-.99024.34082A1.08681,1.08681,0,0,1,204.05911,119.91267Z"/><path class="cls-10" d="M209.32766,115.57868a2.58051,2.58051,0,0,1,2.55273,2.84864v.209h-4.30175a1.87159,1.87159,0,0,0,1.91406,1.83789,2.32584,2.32584,0,0,0,1.63965-.6709l.39551.53906a2.88943,2.88943,0,0,1-2.11231.81348,2.79194,2.79194,0,0,1-.08789-5.57715Zm-1.749,2.45313h3.4873a1.72244,1.72244,0,0,0-1.749-1.77149A1.77234,1.77234,0,0,0,207.57864,118.03181Z"/><path class="cls-10" d="M213.50735,121.772a2.0291,2.0291,0,0,0,1.72754.72656,1.52184,1.52184,0,0,0,1.70507-1.5957v-.75879a2.21947,2.21947,0,0,1-1.78222.94629c-1.38672,0-2.36524-1.03418-2.36524-2.751,0-1.70508.96778-2.76075,2.36524-2.76075a2.201,2.201,0,0,1,1.78222.93457v-.80273h.8252v5.15918c0,1.76074-1.23242,2.31055-2.53027,2.31055a2.71465,2.71465,0,0,1-2.14551-.792Zm3.43261-4.59863a1.95783,1.95783,0,0,0-1.584-.8584c-1.06738,0-1.706.84766-1.706,2.02442,0,1.166.63867,2.02441,1.706,2.02441a1.96692,1.96692,0,0,0,1.584-.86914Z"/><path class="cls-10" d="M219.30422,115.71052h.8252v.85742a2.25888,2.25888,0,0,1,1.77148-.96777v.84765a1.43286,1.43286,0,0,0-.33008-.0332,1.94547,1.94547,0,0,0-1.4414.84668v3.7627h-.8252Z"/><path class="cls-10" d="M226.146,120.41853a2.296,2.296,0,0,1-1.75977.7373,1.769,1.769,0,0,1-1.85937-1.75976,1.74067,1.74067,0,0,1,1.85937-1.75,2.22107,2.22107,0,0,1,1.75977.72656v-.957c0-.71485-.57129-1.12207-1.3418-1.12207a2.10775,2.10775,0,0,0-1.62793.7373l-.38574-.57226a2.78094,2.78094,0,0,1,2.124-.87989c1.12207,0,2.05664.50586,2.05664,1.793V121.024H226.146Zm0-1.51758a1.77706,1.77706,0,0,0-1.46289-.66016,1.16911,1.16911,0,1,0,0,2.32129,1.77708,1.77708,0,0,0,1.46289-.66015Z"/><path class="cls-10" d="M228.67629,119.91267V116.4361h-.88086v-.72558h.88086v-1.45215h.8252v1.45215h1.07812v.72558h-1.07812v3.30079c0,.3955.17578.68164.53906.68164a.796.796,0,0,0,.56055-.21973l.24218.61621a1.34738,1.34738,0,0,1-.99023.34082A1.08682,1.08682,0,0,1,228.67629,119.91267Z"/><path class="cls-10" d="M231.49172,114.25837a.55569.55569,0,0,1,1.11133,0,.55569.55569,0,1,1-1.11133,0Zm.14356,1.45215h.82519V121.024h-.82519Z"/><path class="cls-10" d="M233.69192,118.36189c-.193-3.62245,5.45267-3.62329,5.25876.00026C239.143,121.99719,233.49972,121.99649,233.69192,118.36189Zm4.38965,0a1.77806,1.77806,0,1,0-3.53123.00022A1.77806,1.77806,0,1,0,238.08157,118.36189Z"/><path class="cls-10" d="M243.76809,117.54743c0-.93554-.47266-1.23242-1.1875-1.23242a2.05147,2.05147,0,0,0-1.57324.8252V121.024h-.8252v-5.31348h.8252v.76953a2.63613,2.63613,0,0,1,1.8916-.90137,1.50987,1.50987,0,0,1,1.69433,1.71582v3.7295h-.82519Z"/><circle class="cls-15" cx="283.79881" cy="88.59178" r="5.84883"/><line class="cls-16" x1="286.46554" y1="85.32962" x2="281.18717" y2="91.84997"/><line class="cls-16" x1="281.08367" y1="85.32962" x2="286.36204" y2="91.84997"/></g></svg>