<svg xmlns="http://www.w3.org/2000/svg" viewBox="0 0 678.79 438.74"><defs><style>.cls-1,.cls-10,.cls-11,.cls-13,.cls-15,.cls-16,.cls-17,.cls-2,.cls-22,.cls-3,.cls-4,.cls-7,.cls-8,.cls-9{fill:none;}.cls-1{stroke:#29ad4a;}.cls-1,.cls-13,.cls-14,.cls-15,.cls-17,.cls-19,.cls-2,.cls-20,.cls-3,.cls-4,.cls-5,.cls-7,.cls-8{stroke-miterlimit:10;}.cls-2,.cls-3,.cls-4{stroke:#f36f4c;}.cls-10,.cls-11,.cls-15,.cls-16,.cls-18,.cls-2,.cls-22,.cls-3,.cls-4,.cls-5,.cls-7,.cls-9{stroke-linecap:round;}.cls-3{stroke-dasharray:2.98 2.98;}.cls-4{stroke-dasharray:2.93 2.93;}.cls-18,.cls-19,.cls-20,.cls-5,.cls-6{fill:#fff;}.cls-10,.cls-11,.cls-17,.cls-20,.cls-5,.cls-9{stroke:#000;}.cls-7{stroke:#343434;}.cls-8{stroke:#c20025;}.cls-10,.cls-11,.cls-16,.cls-18,.cls-22,.cls-9{stroke-linejoin:round;}.cls-9{stroke-width:0.96px;}.cls-10{stroke-dasharray:2.98 2.24;}.cls-12{fill:#343434;}.cls-13,.cls-14{stroke:#010201;}.cls-14{fill:#010201;stroke-width:0.42px;}.cls-15,.cls-16{stroke:#1d9cd3;}.cls-18,.cls-19{stroke:#221f1f;}.cls-21{fill:#c20025;}.cls-22{stroke:#fff;}</style></defs><g id="Layer_2" data-name="Layer 2"><g id="Layer_1-2" data-name="Layer 1"><polyline class="cls-1" points="255.55 51.66 122.8 51.66 122.8 89.64"/><line class="cls-1" x1="445.03" y1="209.22" x2="550.18" y2="209.22"/><path d="M491.17,203.25a2,2,0,0,0,1.58.72c.5,0,.7-.29.7-.54s-.35-.43-.79-.59c-.66-.23-1.47-.53-1.47-1.37A1.64,1.64,0,0,1,493,200a2.47,2.47,0,0,1,1.86.76l-.62.69a1.83,1.83,0,0,0-1.36-.59c-.39,0-.65.23-.65.49s.35.39.79.55c.66.24,1.48.56,1.48,1.37a1.65,1.65,0,0,1-1.83,1.56,2.7,2.7,0,0,1-2.12-.87Z"/><path d="M495.56,203.25a2,2,0,0,0,1.58.72c.5,0,.7-.29.7-.54s-.36-.43-.8-.59c-.65-.23-1.46-.53-1.46-1.37A1.64,1.64,0,0,1,497.4,200a2.48,2.48,0,0,1,1.86.76l-.62.69a1.83,1.83,0,0,0-1.37-.59c-.38,0-.65.23-.65.49s.36.39.8.55c.65.24,1.48.56,1.48,1.37a1.66,1.66,0,0,1-1.84,1.56A2.7,2.7,0,0,1,495,204Z"/><path d="M502.31,200a2.1,2.1,0,0,1,2.29,2.08,2.69,2.69,0,0,1-2.71,2.75,2.11,2.11,0,0,1-2.29-2.09A2.69,2.69,0,0,1,502.31,200Zm-.06.88a1.7,1.7,0,0,0-1.62,1.79A1.24,1.24,0,0,0,502,204a1.7,1.7,0,0,0,1.62-1.8A1.24,1.24,0,0,0,502.25,200.89Z"/><line class="cls-1" x1="445.03" y1="235.12" x2="550.18" y2="235.12"/><path d="M476.18,229h-.78l-.37,1.67h-1l1-4.67h2a1.35,1.35,0,0,1,1.44,1.31,1.62,1.62,0,0,1-1.33,1.63l.64,1.73h-1.1Zm1.28-1.59a.57.57,0,0,0-.59-.56h-1l-.28,1.29h1A.73.73,0,0,0,477.46,227.4Z"/><path d="M480.77,227.19a1.44,1.44,0,0,1,1.52,1.52,2.45,2.45,0,0,1-.07.54h-2.51v.08a.83.83,0,0,0,.92.71,1.53,1.53,0,0,0,.85-.26l.28.61a2.11,2.11,0,0,1-1.19.35c-1.07,0-1.75-.57-1.75-1.52A2,2,0,0,1,480.77,227.19Zm.72,1.39a.69.69,0,0,0-.78-.68,1,1,0,0,0-.91.75h1.69Z"/><path d="M482.92,227.28h.92l.36,2.35,1.42-2.35h1l-2.11,3.38h-1Z"/><path d="M488.46,227.19a1.44,1.44,0,0,1,1.52,1.52,2,2,0,0,1-.07.54H487.4v.08a.83.83,0,0,0,.92.71,1.53,1.53,0,0,0,.86-.26l.28.61a2.16,2.16,0,0,1-1.2.35c-1.06,0-1.75-.57-1.75-1.52A2,2,0,0,1,488.46,227.19Zm.73,1.39a.69.69,0,0,0-.78-.68,1,1,0,0,0-.92.75h1.7Z"/><path d="M491.16,227.28h.89l-.1.44a1.53,1.53,0,0,1,1.19-.52l-.18.88a1.83,1.83,0,0,0-.33,0,1.15,1.15,0,0,0-.84.41l-.49,2.21h-.89Z"/><path d="M493.53,229.54a1.72,1.72,0,0,0,1.19.52c.3,0,.49-.16.49-.35s-.29-.31-.62-.42c-.49-.17-1.1-.38-1.1-1a1.24,1.24,0,0,1,1.4-1.14,2,2,0,0,1,1.43.56l-.44.56a1.43,1.43,0,0,0-1-.44c-.31,0-.49.15-.49.33s.26.27.58.38c.5.15,1.14.36,1.14,1s-.54,1.18-1.46,1.18a2.21,2.21,0,0,1-1.6-.61Z"/><path d="M498.75,227.19a1.44,1.44,0,0,1,1.52,1.52,2,2,0,0,1-.07.54h-2.51v.08a.83.83,0,0,0,.92.71,1.53,1.53,0,0,0,.86-.26l.28.61a2.16,2.16,0,0,1-1.2.35c-1.06,0-1.75-.57-1.75-1.52A2,2,0,0,1,498.75,227.19Zm.72,1.39a.68.68,0,0,0-.77-.68,1,1,0,0,0-.92.75h1.69Z"/><path d="M503.52,226h2a1.3,1.3,0,0,1,1.42,1.29A1.74,1.74,0,0,1,505,229h-1.18l-.37,1.65h-1Zm2.4,1.39a.55.55,0,0,0-.59-.54h-1l-.29,1.29h1A.76.76,0,0,0,505.92,227.38Z"/><path d="M507.73,227.28h.89l-.11.44a1.57,1.57,0,0,1,1.2-.52l-.19.88a1.6,1.6,0,0,0-.33,0,1.19,1.19,0,0,0-.84.41l-.48,2.21H507Z"/><path d="M511.78,227.19a1.51,1.51,0,0,1,1.68,1.54,2,2,0,0,1-2,2,1.5,1.5,0,0,1-1.67-1.53A2,2,0,0,1,511.78,227.19Zm0,.79a1.11,1.11,0,0,0-1,1.18.73.73,0,0,0,.8.79,1.1,1.1,0,0,0,1-1.17A.73.73,0,0,0,511.75,228Z"/><path d="M515.45,229.52l-1,1.14h-1l1.58-1.74-.76-1.64h1l.47,1,.93-1h1l-1.5,1.64.83,1.74h-1Z"/><path d="M518,231.23a.46.46,0,0,0,.42-.23l.21-.32-.6-3.4h.92l.36,2.35,1.41-2.35h1l-2.46,3.93a1.41,1.41,0,0,1-1.31.82,2,2,0,0,1-.57-.08l.29-.77A1.13,1.13,0,0,0,518,231.23Z"/><line class="cls-2" x1="44.29" y1="397.95" x2="45.79" y2="397.95"/><line class="cls-3" x1="48.77" y1="397.95" x2="351.62" y2="397.95"/><polyline class="cls-2" points="353.11 397.95 354.61 397.95 354.61 396.45"/><line class="cls-4" x1="354.61" y1="393.52" x2="354.61" y2="318.74"/><line class="cls-2" x1="354.61" y1="317.27" x2="354.61" y2="315.77"/><line class="cls-1" x1="354.64" y1="133.65" x2="354.64" y2="51.55"/><rect class="cls-5" x="72.48" y="98.16" width="100.69" height="230.25"/><rect x="81.2" y="89.16" width="83.25" height="18"/><path class="cls-6" d="M88.36,99.79V94.56h1.55v5.25c0,.36.23.6.72.6s.73-.24.73-.6V94.56h1.55v5.23a2.29,2.29,0,0,1-4.55,0Z"/><path class="cls-6" d="M93.76,99.56v-.28h1.55v.44a.74.74,0,0,0,.83.73.68.68,0,0,0,.72-.69c0-1.27-3-1-3-3.27a2,2,0,0,1,2.22-2.08,1.94,1.94,0,0,1,2.21,2v.44H96.77V96.3c0-.31-.3-.49-.67-.49a.59.59,0,0,0-.65.6c0,1,3,.79,3,3.21a2.1,2.1,0,0,1-2.31,2.19A2.15,2.15,0,0,1,93.76,99.56Z"/><path class="cls-6" d="M100.85,96v1.55h1.72v1.4h-1.72v1.35H103v1.4H99.3v-7.1H103V96Z"/><path class="cls-6" d="M106.09,99.1h-.74v2.56H103.8v-7.1h2.36a2,2,0,0,1,2.12,1.94v.66a1.86,1.86,0,0,1-.71,1.5l.92,3h-1.62Zm-.74-1.4h.91a.44.44,0,0,0,.47-.47v-.8a.43.43,0,0,0-.46-.47h-.92Z"/><path class="cls-6" d="M109.11,99.56v-.28h1.55v.44a.74.74,0,0,0,.83.73.68.68,0,0,0,.72-.69c0-1.27-3-1-3-3.27a2,2,0,0,1,2.22-2.08,1.94,1.94,0,0,1,2.21,2v.44h-1.55V96.3c0-.31-.3-.49-.67-.49a.59.59,0,0,0-.65.6c0,1,3,.79,3,3.21a2.1,2.1,0,0,1-2.31,2.19A2.15,2.15,0,0,1,109.11,99.56Z"/><path class="cls-6" d="M121.8,98.71h-.6v1.08a1.83,1.83,0,0,1-1.86,1.87h-.75a1.82,1.82,0,0,1-1.87-1.82v-.63a1.83,1.83,0,0,1,.41-1.17,1.73,1.73,0,0,1-.41-1.14v-.52a1.82,1.82,0,0,1,1.87-1.82h1.48v1.35h-1.49c-.18,0-.31.16-.31.4V97c0,.24.13.4.31.4h1.07v-.81h1.55v.81h.6Zm-2.15,0h-1.07c-.18,0-.31.17-.31.43v.77c0,.24.14.4.32.4h.75c.19,0,.31-.16.31-.4Z"/><path class="cls-6" d="M129.08,96.58v3.06a2.05,2.05,0,0,1-2.27,2h-2.3v-7.1h2.29A2.06,2.06,0,0,1,129.08,96.58Zm-1.55,0a.57.57,0,0,0-.62-.6h-.85v4.3h.84a.57.57,0,0,0,.63-.6Z"/><path class="cls-6" d="M131.55,96v1.55h1.71v1.4h-1.71v1.35h2.11v1.4H130v-7.1h3.66V96Z"/><path class="cls-6" d="M139.37,94.56l-1.5,7.1h-2l-1.49-7.1h1.55l1,4.87,1-4.87Z"/><path class="cls-6" d="M140.16,94.56h1.55v7.1h-1.55Z"/><path class="cls-6" d="M142.64,99.79V96.43a2.37,2.37,0,0,1,4.68,0v.89h-1.57v-.91c0-.36-.26-.6-.77-.6s-.79.24-.79.6v3.4c0,.36.27.6.79.6s.77-.24.77-.6V98.9h1.57v.89a2.37,2.37,0,0,1-4.68,0Z"/><path class="cls-6" d="M149.77,96v1.55h1.72v1.4h-1.72v1.35h2.12v1.4h-3.67v-7.1h3.67V96Z"/><path class="cls-6" d="M152.65,99.56v-.28h1.55v.44a.74.74,0,0,0,.83.73.68.68,0,0,0,.72-.69c0-1.27-3-1-3-3.27A2,2,0,0,1,155,94.41a1.94,1.94,0,0,1,2.21,2v.44h-1.55V96.3c0-.31-.3-.49-.67-.49a.59.59,0,0,0-.65.6c0,1,3,.79,3,3.21a2.1,2.1,0,0,1-2.31,2.19A2.15,2.15,0,0,1,152.65,99.56Z"/><path d="M241,69.14h.91v7.34H241Z"/><path d="M243.49,69.14H246a3.67,3.67,0,1,1,0,7.34h-2.51ZM246,75.67A2.86,2.86,0,0,0,246,70h-1.6v5.71Z"/><path d="M254.37,75.87a2.27,2.27,0,0,1-1.76.74,1.77,1.77,0,0,1-1.86-1.76,1.74,1.74,0,0,1,1.86-1.75,2.2,2.2,0,0,1,1.76.73v-1c0-.71-.57-1.12-1.34-1.12a2.1,2.1,0,0,0-1.63.74l-.39-.57a2.79,2.79,0,0,1,2.13-.88c1.12,0,2.06.5,2.06,1.79v3.65h-.83Zm0-1.51a1.78,1.78,0,0,0-1.46-.66,1.17,1.17,0,1,0,0,2.32,1.78,1.78,0,0,0,1.46-.66Z"/><path d="M260.06,75.87a2.29,2.29,0,0,1-1.76.74,1.76,1.76,0,0,1-1.86-1.76,1.74,1.74,0,0,1,1.86-1.75,2.22,2.22,0,0,1,1.76.73v-1c0-.71-.57-1.12-1.35-1.12a2.09,2.09,0,0,0-1.62.74l-.39-.57a2.77,2.77,0,0,1,2.13-.88c1.12,0,2.05.5,2.05,1.79v3.65h-.82Zm0-1.51a1.79,1.79,0,0,0-1.47-.66,1.17,1.17,0,1,0,0,2.32,1.79,1.79,0,0,0,1.47-.66Z"/><path d="M262.55,74.75a3.12,3.12,0,0,0,2.31,1c1.31,0,1.73-.71,1.73-1.27,0-.88-.89-1.12-1.86-1.38-1.18-.31-2.48-.64-2.48-2.08,0-1.21,1.07-2,2.51-2a3.44,3.44,0,0,1,2.61,1l-.55.67a2.79,2.79,0,0,0-2.12-.88c-.88,0-1.51.47-1.51,1.16s.85,1,1.78,1.21c1.2.32,2.57.7,2.57,2.24,0,1.06-.73,2.15-2.71,2.15A3.65,3.65,0,0,1,262,75.45Z"/><path d="M271.52,69.14h3a2.22,2.22,0,1,1,0,4.43h-2v2.91h-.91Zm2.84.82h-1.93v2.79h1.93a1.4,1.4,0,1,0,0-2.79Z"/><path d="M277.83,71.17h.83V72a2.25,2.25,0,0,1,1.77-1v.84a1.61,1.61,0,0,0-.33,0,1.93,1.93,0,0,0-1.44.85v3.76h-.83Z"/><path d="M281,73.82c-.19-3.62,5.46-3.62,5.26,0C286.49,77.45,280.85,77.45,281,73.82Zm4.39,0a1.78,1.78,0,1,0-3.53,0A1.78,1.78,0,1,0,285.43,73.82Z"/><path d="M286.74,71.17h.89l1.77,4.35,1.76-4.35h.91l-2.21,5.31H289Z"/><path d="M292.67,69.71a.56.56,0,0,1,1.11,0,.56.56,0,1,1-1.11,0Zm.14,1.46h.83v5.31h-.83Z"/><path d="M299,75.69a2.24,2.24,0,0,1-1.79.92c-1.39,0-2.37-1-2.37-2.78s1-2.79,2.37-2.79A2.23,2.23,0,0,1,299,72V69.14h.82v7.34H299Zm0-3.06a2,2,0,0,0-1.6-.86c-1.06,0-1.7.88-1.7,2.06s.64,2,1.7,2A2,2,0,0,0,299,75Z"/><path d="M303.7,71a2.58,2.58,0,0,1,2.56,2.84v.21H302a1.87,1.87,0,0,0,1.91,1.84,2.33,2.33,0,0,0,1.64-.67l.4.54a2.9,2.9,0,0,1-2.12.81A2.79,2.79,0,0,1,303.7,71ZM302,73.49h3.48a1.72,1.72,0,0,0-1.75-1.77A1.76,1.76,0,0,0,302,73.49Z"/><path d="M307.48,71.17h.82V72a2.26,2.26,0,0,1,1.77-1v.84a1.55,1.55,0,0,0-.33,0,2,2,0,0,0-1.44.85v3.76h-.82Z"/><path d="M96.78,236l-2.5,6.1h-.37L91.42,236v6.1h-.91v-7.33h1.3l2.28,5.59,2.29-5.59h1.31v7.33h-.91Z"/><path d="M102.58,241.52a2.31,2.31,0,0,1-1.76.74A1.77,1.77,0,0,1,99,240.5a1.74,1.74,0,0,1,1.86-1.75,2.22,2.22,0,0,1,1.76.72v-.95c0-.72-.57-1.13-1.34-1.13a2.11,2.11,0,0,0-1.63.74l-.38-.57a2.75,2.75,0,0,1,2.12-.88c1.12,0,2.06.51,2.06,1.79v3.65h-.83Zm0-1.52a1.77,1.77,0,0,0-1.46-.66,1.17,1.17,0,1,0,0,2.32,1.77,1.77,0,0,0,1.46-.66Z"/><path d="M107.29,236.68a2.3,2.3,0,0,1,1.95.92l-.55.51a1.55,1.55,0,0,0-1.35-.69,2.06,2.06,0,0,0,0,4.1,1.6,1.6,0,0,0,1.35-.69l.55.5a2.28,2.28,0,0,1-1.95.93,2.79,2.79,0,0,1,0-5.58Z"/><path d="M112.07,234.57h.64l-2.6,7.77h-.65Z"/><path d="M117.46,236.21l-1.62,5.91h-1l-2.09-7.33h1l1.63,6.11,1.68-6.11h.76l1.68,6.11,1.62-6.11h1l-2.09,7.33h-1Z"/><path d="M122.89,235.36a.56.56,0,0,1,1.11,0,.56.56,0,1,1-1.11,0Zm.14,1.45h.83v5.31H123Z"/><path d="M129,238.65c0-.94-.47-1.23-1.18-1.23a2.06,2.06,0,0,0-1.58.82v3.88h-.82v-5.31h.82v.77a2.64,2.64,0,0,1,1.89-.9,1.51,1.51,0,0,1,1.7,1.72v3.72H129Z"/><path d="M135.2,241.33a2.25,2.25,0,0,1-1.79.93c-1.39,0-2.37-1.06-2.37-2.79s1-2.79,2.37-2.79a2.23,2.23,0,0,1,1.79.93v-2.82H136v7.33h-.82Zm0-3.06a2,2,0,0,0-1.6-.85c-1.06,0-1.7.88-1.7,2.05s.64,2.05,1.7,2.05a2,2,0,0,0,1.6-.84Z"/><path d="M137.26,239.46c-.2-3.62,5.45-3.62,5.25,0C142.71,243.1,137.06,243.1,137.26,239.46Zm4.39,0a1.78,1.78,0,1,0-3.54,0A1.78,1.78,0,1,0,141.65,239.46Z"/><path d="M147,237.86l-1.39,4.26h-.82l-1.7-5.31h.86l1.3,4.24,1.4-4.24h.7l1.4,4.24,1.29-4.24h.86l-1.69,5.31h-.83Z"/><path d="M151.68,240.83a2.43,2.43,0,0,0,1.75.76c.81,0,1.25-.37,1.25-.88s-.65-.77-1.37-1c-.9-.21-1.92-.45-1.92-1.55,0-.83.71-1.53,2-1.53a2.69,2.69,0,0,1,2,.77L155,238a2.07,2.07,0,0,0-1.58-.67c-.73,0-1.18.33-1.18.8s.61.69,1.3.85c.93.21,2,.47,2,1.65,0,.89-.71,1.61-2.09,1.61a2.83,2.83,0,0,1-2.14-.84Z"/><path d="M2.32,421.08H0v-.81H5.57v.81H3.23v6.53H2.32Z"/><path d="M10.23,424.11c0-.94-.48-1.21-1.2-1.21a2.07,2.07,0,0,0-1.57.82v3.89H6.63v-7.34h.83v2.79a2.63,2.63,0,0,1,1.9-.9,1.5,1.5,0,0,1,1.7,1.69v3.76h-.83Z"/><path d="M12.45,420.84a.56.56,0,0,1,1.11,0,.56.56,0,1,1-1.11,0Zm.14,1.45h.83v5.32h-.83Z"/><path d="M15,422.29h.83v.86a2.24,2.24,0,0,1,1.77-1V423a1.61,1.61,0,0,0-.33,0,1.92,1.92,0,0,0-1.44.84v3.77H15Z"/><path d="M22.33,426.81a2.24,2.24,0,0,1-1.79.93c-1.39,0-2.37-1.06-2.37-2.79s1-2.79,2.37-2.79a2.23,2.23,0,0,1,1.79.93v-2.82h.83v7.34h-.83Zm0-3.06a2,2,0,0,0-1.59-.85c-1.07,0-1.71.88-1.71,2.05s.64,2.05,1.71,2.05a2,2,0,0,0,1.59-.84Z"/><path d="M24.2,424.58h2.64v.73H24.2Z"/><path d="M27.92,420.27h2.95a2.21,2.21,0,1,1,0,4.42h-2v2.92h-.91Zm2.84.81H28.83v2.8h1.93a1.4,1.4,0,1,0,0-2.8Z"/><path d="M37.33,427a2.31,2.31,0,0,1-1.76.74A1.77,1.77,0,0,1,33.72,426a1.73,1.73,0,0,1,1.85-1.75,2.22,2.22,0,0,1,1.76.72V424c0-.72-.57-1.13-1.34-1.13a2.15,2.15,0,0,0-1.63.74L34,423a2.78,2.78,0,0,1,2.12-.88c1.12,0,2.06.51,2.06,1.79v3.66h-.83Zm0-1.52a1.77,1.77,0,0,0-1.46-.66,1.17,1.17,0,1,0,0,2.32,1.77,1.77,0,0,0,1.46-.66Z"/><path d="M39.7,422.29h.82v.86a2.28,2.28,0,0,1,1.78-1V423a1.61,1.61,0,0,0-.33,0,2,2,0,0,0-1.45.84v3.77H39.7Z"/><path d="M43.38,426.49V423H42.5v-.73h.88v-1.45h.83v1.45h1.08V423H44.21v3.3c0,.39.17.68.54.68a.8.8,0,0,0,.56-.22l.24.62a1.39,1.39,0,0,1-1,.34A1.09,1.09,0,0,1,43.38,426.49Z"/><path d="M46.63,429a.77.77,0,0,0,.79-.56l.35-.8-2.22-5.37h.89l1.77,4.36L50,422.29h.91l-2.67,6.39a1.58,1.58,0,0,1-1.56,1.08,2.29,2.29,0,0,1-.6-.08l.13-.74A1.38,1.38,0,0,0,46.63,429Z"/><path d="M12.24,431.27h.92v4.46a2,2,0,0,0,2.08,2.19,1.94,1.94,0,0,0,2.07-2.19v-4.46h.92v4.48a2.72,2.72,0,0,1-3,3,2.72,2.72,0,0,1-3-3Z"/><path d="M19.83,431.27h4.81v.81H20.75v2.37h3.81v.81H20.75v2.53h3.89v.82H19.83Z"/><path d="M26,431.27h3.27a1.85,1.85,0,0,1,2.06,1.87A1.67,1.67,0,0,1,30,434.82a1.84,1.84,0,0,1,1.43,1.8,1.92,1.92,0,0,1-2.12,2H26Zm3.12,3.18a1.14,1.14,0,0,0,1.26-1.18,1.15,1.15,0,0,0-1.26-1.19H26.9v2.37Zm0,3.34a1.21,1.21,0,0,0,1.36-1.26,1.25,1.25,0,0,0-1.36-1.27H26.9v2.53Z"/><path d="M37.41,437H33.69L33,438.61H32L35,431.27h1.13l3,7.34h-1ZM34,436.16h3.18l-1.59-4.08Z"/><path d="M89.86,352.3a2.36,2.36,0,0,1,2.45-2.42,2.15,2.15,0,0,1,2,1.15l-.86.42a1.26,1.26,0,0,0-1.13-.68,1.53,1.53,0,0,0,0,3.06,1.24,1.24,0,0,0,1.13-.68l.86.42a2.18,2.18,0,0,1-2,1.15A2.36,2.36,0,0,1,89.86,352.3Z"/><path d="M94.87,352.94a1.79,1.79,0,1,1,1.79,1.78A1.72,1.72,0,0,1,94.87,352.94Zm2.66,0a.87.87,0,1,0-.87,1A.89.89,0,0,0,97.53,352.94Z"/><path d="M101.59,352.59A.55.55,0,0,0,101,352a1,1,0,0,0-.77.4v2.27H99.3v-3.38h.89v.44a1.55,1.55,0,0,1,1.19-.52,1,1,0,0,1,1.1,1.07v2.39h-.89Z"/><path d="M103.71,353.79V352h-.56v-.78h.56v-.92h.9v.92h.68V352h-.68v1.52c0,.21.11.37.3.37a.48.48,0,0,0,.31-.09l.19.67a1.08,1.08,0,0,1-.74.22A.85.85,0,0,1,103.71,353.79Z"/><path d="M106,350.28a.54.54,0,1,1,.53.54A.54.54,0,0,1,106,350.28Zm.09,1H107v3.38h-.89Z"/><path d="M110.35,352.59a.55.55,0,0,0-.62-.63.93.93,0,0,0-.77.4v2.27h-.89v-3.38H109v.44a1.53,1.53,0,0,1,1.18-.52,1,1,0,0,1,1.1,1.07v2.39h-.89Z"/><path d="M114.56,354.21a1.6,1.6,0,0,1-1.19.51,1,1,0,0,1-1.09-1.07v-2.4h.89v2.05c0,.47.24.62.62.62a1,1,0,0,0,.77-.38v-2.29h.89v3.38h-.89Z"/><path d="M116.31,352.94a1.79,1.79,0,1,1,1.78,1.78A1.71,1.71,0,0,1,116.31,352.94Zm2.65,0a.87.87,0,1,0-.87,1A.89.89,0,0,0,119,352.94Z"/><path d="M123,354.21a1.62,1.62,0,0,1-1.19.51,1,1,0,0,1-1.1-1.07v-2.4h.89v2.05c0,.47.25.62.63.62a1,1,0,0,0,.77-.38v-2.29h.89v3.38H123Z"/><path d="M125.07,353.57a1.93,1.93,0,0,0,1.17.46c.38,0,.57-.13.57-.34s-.3-.33-.68-.4c-.58-.11-1.33-.25-1.33-1.06,0-.57.49-1.06,1.38-1.06a2.15,2.15,0,0,1,1.37.46l-.36.61a1.41,1.41,0,0,0-1-.4c-.32,0-.53.12-.53.32s.26.29.64.36c.58.12,1.36.27,1.36,1.11,0,.62-.52,1.09-1.46,1.09a2.3,2.3,0,0,1-1.52-.53Z"/><path d="M130.27,350h2.19a1.5,1.5,0,1,1,0,3h-1.19v1.67h-1Zm2,.86h-1v1.28h1a.64.64,0,1,0,0-1.28Z"/><path d="M134.52,352.94a1.79,1.79,0,1,1,1.79,1.78A1.72,1.72,0,0,1,134.52,352.94Zm2.66,0a.87.87,0,1,0-.87,1A.89.89,0,0,0,137.18,352.94Z"/><path d="M139,353.57a1.93,1.93,0,0,0,1.17.46c.38,0,.56-.13.56-.34s-.29-.33-.68-.4c-.58-.11-1.33-.25-1.33-1.06,0-.57.5-1.06,1.39-1.06a2.17,2.17,0,0,1,1.37.46l-.36.61a1.43,1.43,0,0,0-1-.4c-.33,0-.54.12-.54.32s.27.29.65.36c.58.12,1.36.27,1.36,1.11,0,.62-.53,1.09-1.47,1.09a2.29,2.29,0,0,1-1.51-.53Z"/><path d="M142.68,353.79V352h-.56v-.78h.56v-.92h.9v.92h.68V352h-.68v1.52c0,.21.11.37.3.37a.48.48,0,0,0,.31-.09l.19.67a1.08,1.08,0,0,1-.74.22A.85.85,0,0,1,142.68,353.79Z"/><path d="M147.36,354.21a1.62,1.62,0,0,1-1.19.51,1,1,0,0,1-1.09-1.07v-2.4H146v2.05c0,.47.24.62.62.62a1,1,0,0,0,.77-.38v-2.29h.89v3.38h-.89Z"/><path d="M149.3,351.25h.89v.46a1.46,1.46,0,0,1,1.08-.54V352a1.42,1.42,0,0,0-.24,0,1.14,1.14,0,0,0-.84.39v2.23h-.89Z"/><path d="M153.52,351.17a1.69,1.69,0,0,1,1.7,1.86v.19H152.7a.92.92,0,0,0,1,.79,1.39,1.39,0,0,0,.9-.34l.39.58a2.09,2.09,0,0,1-1.39.47,1.78,1.78,0,1,1-.06-3.55Zm-.83,1.45h1.67a.79.79,0,0,0-.84-.75A.82.82,0,0,0,152.69,352.62Z"/><path d="M105.92,360.83h-2.08l-.3.8h-1.09l1.81-4.67h1.24l1.8,4.67h-1.08ZM104.1,360h1.55l-.77-2.15Z"/><path d="M108.11,360.57a1.93,1.93,0,0,0,1.17.46c.38,0,.56-.13.56-.34s-.29-.33-.67-.4c-.59-.11-1.34-.25-1.34-1.06,0-.57.5-1.06,1.39-1.06a2.15,2.15,0,0,1,1.37.46l-.36.61a1.41,1.41,0,0,0-1-.4c-.32,0-.53.12-.53.32s.26.29.64.36c.58.12,1.36.27,1.36,1.11,0,.62-.53,1.09-1.46,1.09a2.3,2.3,0,0,1-1.52-.53Z"/><path d="M111.64,360.57a1.93,1.93,0,0,0,1.17.46c.38,0,.57-.13.57-.34s-.3-.33-.68-.4c-.58-.11-1.33-.25-1.33-1.06,0-.57.49-1.06,1.38-1.06a2.15,2.15,0,0,1,1.37.46l-.36.61a1.41,1.41,0,0,0-1-.4c-.32,0-.53.12-.53.32s.26.29.64.36c.58.12,1.36.27,1.36,1.11,0,.62-.52,1.09-1.46,1.09a2.3,2.3,0,0,1-1.52-.53Z"/><path d="M116.61,358.17A1.69,1.69,0,0,1,118.3,360v.19h-2.51a.91.91,0,0,0,1,.79,1.4,1.4,0,0,0,.91-.34l.39.58a2.11,2.11,0,0,1-1.4.47,1.78,1.78,0,0,1,0-3.55Zm-.84,1.45h1.67a.78.78,0,0,0-.83-.75A.83.83,0,0,0,115.77,359.62Z"/><path d="M119.22,360.57a2,2,0,0,0,1.17.46c.39,0,.57-.13.57-.34s-.3-.33-.68-.4c-.58-.11-1.33-.25-1.33-1.06,0-.57.5-1.06,1.39-1.06a2.14,2.14,0,0,1,1.36.46l-.36.61a1.4,1.4,0,0,0-1-.4c-.32,0-.53.12-.53.32s.27.29.64.36c.59.12,1.36.27,1.36,1.11,0,.62-.52,1.09-1.46,1.09a2.25,2.25,0,0,1-1.51-.53Z"/><path d="M122.75,360.57a2,2,0,0,0,1.17.46c.39,0,.57-.13.57-.34s-.29-.33-.68-.4c-.58-.11-1.33-.25-1.33-1.06,0-.57.5-1.06,1.39-1.06a2.12,2.12,0,0,1,1.36.46l-.35.61a1.44,1.44,0,0,0-1-.4c-.32,0-.53.12-.53.32s.27.29.65.36c.58.12,1.35.27,1.35,1.11,0,.62-.52,1.09-1.46,1.09a2.27,2.27,0,0,1-1.51-.53Z"/><path d="M130.38,359.5c0-.32-.14-.54-.5-.54a.92.92,0,0,0-.71.39v2.28h-.89V359.5c0-.32-.14-.54-.51-.54a.93.93,0,0,0-.7.4v2.27h-.89v-3.38h.89v.44a1.49,1.49,0,0,1,1.11-.52.9.9,0,0,1,.94.61,1.41,1.41,0,0,1,1.16-.61.9.9,0,0,1,1,1v2.44h-.9Z"/><path d="M133.87,358.17a1.69,1.69,0,0,1,1.7,1.86v.19h-2.52a.92.92,0,0,0,1,.79,1.4,1.4,0,0,0,.91-.34l.39.58a2.11,2.11,0,0,1-1.39.47,1.78,1.78,0,1,1-.06-3.55Zm-.83,1.45h1.66a.78.78,0,0,0-.83-.75A.82.82,0,0,0,133,359.62Z"/><path d="M138.68,359.59c0-.47-.24-.63-.62-.63a.93.93,0,0,0-.77.4v2.27h-.89v-3.38h.89v.44a1.53,1.53,0,0,1,1.18-.52,1,1,0,0,1,1.1,1.07v2.39h-.89Z"/><path d="M140.8,360.79V359h-.56v-.78h.56v-.92h.9v.92h.69V359h-.69v1.52c0,.21.11.37.31.37a.5.5,0,0,0,.31-.09l.19.67a1.13,1.13,0,0,1-.75.22A.85.85,0,0,1,140.8,360.79Z"/><line class="cls-7" x1="132.94" y1="341.97" x2="112.71" y2="341.97"/><line class="cls-7" x1="122.82" y1="336.28" x2="122.82" y2="341.97"/><line class="cls-1" x1="296.98" y1="51.66" x2="459.96" y2="51.66"/><line class="cls-1" x1="141.78" y1="212.88" x2="264.16" y2="212.88"/><line class="cls-8" x1="141.87" y1="279.29" x2="264.16" y2="279.29"/><path class="cls-9" d="M284.45,62.09H259.77a6.25,6.25,0,0,1,0-12.5h0A9.27,9.27,0,0,1,269,40.3a9.15,9.15,0,0,1,3.81.83,10.8,10.8,0,0,1,20.92,3.81,11,11,0,0,1-.37,2.83,7.81,7.81,0,0,1-4.26,14.32h-1.54"/><path d="M113.9,173.08l-2.5,6.1H111l-2.49-6.1v6.1h-.91v-7.33h1.31l2.27,5.58,2.29-5.58h1.31v7.33h-.91Z"/><path d="M116.07,176.52c-.19-3.62,5.46-3.62,5.26,0C121.53,180.16,115.88,180.16,116.07,176.52Zm4.39,0a1.78,1.78,0,1,0-3.53,0A1.78,1.78,0,1,0,120.46,176.52Z"/><path d="M122.56,171.85h.83v2.82a2.21,2.21,0,0,1,1.79-.93c1.39,0,2.37,1.1,2.37,2.79s-1,2.79-2.37,2.79a2.24,2.24,0,0,1-1.79-.93v.79h-.83Zm2.41,6.73c1.08,0,1.72-.87,1.72-2.05s-.64-2.06-1.72-2.06a2,2,0,0,0-1.58.86v2.41A2,2,0,0,0,125,178.58Z"/><path d="M128.64,172.42a.55.55,0,0,1,.55-.55.56.56,0,0,1,.56.55.57.57,0,0,1-.56.56A.56.56,0,0,1,128.64,172.42Zm.14,1.45h.82v5.31h-.82Z"/><path d="M131.15,171.85H132v7.33h-.82Z"/><path d="M135.82,173.74a2.57,2.57,0,0,1,2.55,2.85v.21h-4.3a1.87,1.87,0,0,0,1.92,1.83,2.29,2.29,0,0,0,1.63-.67l.4.54a2.88,2.88,0,0,1-2.11.82,2.79,2.79,0,0,1-.09-5.58Zm-1.75,2.45h3.49a1.72,1.72,0,0,0-1.75-1.77A1.78,1.78,0,0,0,134.07,176.19Z"/><rect class="cls-5" x="459.87" y="9" width="181.48" height="82.87"/><rect x="505.75" width="89.71" height="18"/><path class="cls-6" d="M514.14,10.63V7.27a2.37,2.37,0,0,1,4.68,0v.89h-1.57V7.25c0-.36-.26-.6-.77-.6s-.79.24-.79.6v3.4c0,.36.26.6.78.6s.78-.24.78-.6V9.74h1.57v.89a2.37,2.37,0,0,1-4.68,0Z"/><path class="cls-6" d="M523.41,11.1v1.4h-3.69V5.4h1.55v5.7Z"/><path class="cls-6" d="M524.14,10.63V7.27a2.38,2.38,0,0,1,4.71,0v3.36a2.07,2.07,0,0,1-2.34,2A2.09,2.09,0,0,1,524.14,10.63Zm3.17,0V7.25c0-.36-.24-.6-.8-.6s-.82.24-.82.6v3.4c0,.36.24.6.81.6S527.31,11,527.31,10.65Z"/><path class="cls-6" d="M529.74,10.63V5.4h1.55v5.25c0,.36.23.6.71.6s.73-.24.73-.6V5.4h1.55v5.23a2.29,2.29,0,0,1-4.54,0Z"/><path class="cls-6" d="M539.8,7.42v3.06a2.05,2.05,0,0,1-2.27,2h-2.3V5.4h2.29A2.06,2.06,0,0,1,539.8,7.42Zm-1.55,0a.57.57,0,0,0-.62-.6h-.85v4.3h.84a.57.57,0,0,0,.63-.6Z"/><path class="cls-6" d="M547.25,7.34v.91a2,2,0,0,1-2.11,1.95h-.82v2.3h-1.55V5.4h2.36A2,2,0,0,1,547.25,7.34Zm-1.55-.07a.44.44,0,0,0-.46-.47h-.92v2h.91a.44.44,0,0,0,.47-.48Z"/><path class="cls-6" d="M550.38,9.94h-.74V12.5h-1.55V5.4h2.36a2,2,0,0,1,2.12,1.94V8a1.86,1.86,0,0,1-.71,1.5l.92,3h-1.62Zm-.74-1.4h.91a.44.44,0,0,0,.47-.47v-.8a.43.43,0,0,0-.46-.47h-.92Z"/><path class="cls-6" d="M553.48,10.63V7.27a2.39,2.39,0,0,1,4.72,0v3.36a2.39,2.39,0,0,1-4.72,0Zm3.17,0V7.25c0-.36-.24-.6-.8-.6s-.82.24-.82.6v3.4c0,.36.24.6.81.6S556.65,11,556.65,10.65Z"/><path class="cls-6" d="M563.83,5.4l-1.5,7.1h-2l-1.49-7.1h1.55l1,4.87,1-4.87Z"/><path class="cls-6" d="M564.62,5.4h1.55v7.1h-1.55Z"/><path class="cls-6" d="M571.72,7.42v3.06a2.05,2.05,0,0,1-2.27,2h-2.3V5.4h2.29A2.06,2.06,0,0,1,571.72,7.42Zm-1.55,0a.57.57,0,0,0-.62-.6h-.85v4.3h.84a.57.57,0,0,0,.63-.6Z"/><path class="cls-6" d="M574.18,6.8V8.35h1.72v1.4h-1.72V11.1h2.12v1.4h-3.66V5.4h3.66V6.8Z"/><path class="cls-6" d="M579.42,9.94h-.74V12.5h-1.55V5.4h2.36a2,2,0,0,1,2.12,1.94V8a1.86,1.86,0,0,1-.71,1.5l.92,3H580.2Zm-.74-1.4h.91a.44.44,0,0,0,.47-.47v-.8a.43.43,0,0,0-.46-.47h-.92Z"/><path class="cls-6" d="M582.45,10.4v-.28H584v.44a.74.74,0,0,0,.83.73.68.68,0,0,0,.72-.69c0-1.27-3-1-3-3.27a2,2,0,0,1,2.22-2.08,1.94,1.94,0,0,1,2.21,2v.44h-1.55V7.14c0-.31-.3-.49-.67-.49a.59.59,0,0,0-.65.6c0,1,3,.79,3,3.21a2.1,2.1,0,0,1-2.31,2.19A2.15,2.15,0,0,1,582.45,10.4Z"/><path d="M489,74h-3.72l-.65,1.63h-1l2.95-7.34h1.13l3,7.34h-1Zm-3.45-.81h3.18l-1.59-4.08Z"/><path d="M495,69.74l-1.62,5.92h-1l-2.09-7.34h1l1.63,6.12,1.68-6.12h.76L497,74.44l1.62-6.12h1l-2.09,7.34h-1Z"/><path d="M500.68,73.93A3.12,3.12,0,0,0,503,75c1.31,0,1.73-.7,1.73-1.27,0-.88-.89-1.12-1.86-1.38-1.18-.31-2.48-.64-2.48-2.08,0-1.21,1.07-2,2.51-2a3.44,3.44,0,0,1,2.61,1l-.55.67a2.79,2.79,0,0,0-2.12-.88c-.88,0-1.51.47-1.51,1.16s.85,1,1.78,1.21c1.2.32,2.57.7,2.57,2.24,0,1.06-.73,2.15-2.71,2.15a3.65,3.65,0,0,1-2.82-1.16Z"/><path d="M492.29,53.54a1.67,1.67,0,0,1-1.27.53,1.3,1.3,0,0,1-1.36-1.29A1.25,1.25,0,0,1,491,51.51a1.64,1.64,0,0,1,1.27.51v-.64c0-.48-.4-.77-1-.77a1.63,1.63,0,0,0-1.17.51l-.31-.5a2.19,2.19,0,0,1,1.59-.63c.85,0,1.56.37,1.56,1.36V54h-.72Zm0-1.08a1.25,1.25,0,0,0-1-.45.78.78,0,1,0,0,1.55,1.24,1.24,0,0,0,1-.44Z"/><path d="M494.11,55.45V50.08h.72v.56A1.57,1.57,0,0,1,496.1,50c1,0,1.74.76,1.74,2s-.72,2-1.74,2a1.58,1.58,0,0,1-1.27-.66v2Zm1.8-4.82a1.36,1.36,0,0,0-1.08.57v1.65a1.36,1.36,0,0,0,1.08.57c.73,0,1.17-.58,1.17-1.4S496.64,50.63,495.91,50.63Z"/><path d="M498.69,55.45V50.08h.72v.56a1.57,1.57,0,0,1,1.27-.65c1,0,1.74.76,1.74,2s-.72,2-1.74,2a1.58,1.58,0,0,1-1.27-.66v2Zm1.8-4.82a1.36,1.36,0,0,0-1.08.57v1.65a1.36,1.36,0,0,0,1.08.57c.73,0,1.17-.58,1.17-1.4S501.22,50.63,500.49,50.63Z"/><rect class="cls-10" x="487.32" y="43.98" width="17.23" height="17.25" rx="3.67"/><path class="cls-11" d="M484.58,58.23h-4.53a5.91,5.91,0,1,1,0-11.82h0a8.81,8.81,0,0,1,8.85-8.78,8.93,8.93,0,0,1,3.66.78A10.37,10.37,0,0,1,512.59,42a10.24,10.24,0,0,1-.35,2.67,7.37,7.37,0,0,1-4.08,13.55h-1.48"/><path d="M542,74h-3.72l-.64,1.63h-1l3-7.34h1.14l3,7.34h-1Zm-3.45-.81h3.18l-1.59-4.08Z"/><path d="M544.25,75l2.93-4h-2.93v-.72h4V71l-3,4h3v.71h-4Z"/><path d="M553.18,74.91a2.62,2.62,0,0,1-1.9.88,1.49,1.49,0,0,1-1.69-1.69V70.35h.82v3.5c0,.93.48,1.21,1.19,1.21a2.05,2.05,0,0,0,1.58-.81v-3.9H554v5.31h-.82Z"/><path d="M555.54,70.35h.83v.86a2.21,2.21,0,0,1,1.77-1v.84a1.61,1.61,0,0,0-.33,0,1.93,1.93,0,0,0-1.44.85v3.76h-.83Z"/><path d="M561.37,70.22a2.57,2.57,0,0,1,2.55,2.84v.21h-4.3a1.87,1.87,0,0,0,1.92,1.84,2.29,2.29,0,0,0,1.63-.67l.4.54a2.87,2.87,0,0,1-2.11.81,2.79,2.79,0,0,1-.09-5.57Zm-1.75,2.45h3.49a1.72,1.72,0,0,0-1.75-1.77A1.78,1.78,0,0,0,559.62,72.67Z"/><path d="M547.94,53.54a1.68,1.68,0,0,1-1.28.53,1.3,1.3,0,0,1-1.35-1.29,1.25,1.25,0,0,1,1.35-1.27,1.65,1.65,0,0,1,1.28.51v-.64c0-.48-.4-.77-1-.77a1.61,1.61,0,0,0-1.17.51l-.31-.5A2.19,2.19,0,0,1,547.1,50c.84,0,1.56.37,1.56,1.36V54h-.72Zm0-1.08a1.25,1.25,0,0,0-1-.45.78.78,0,1,0,0,1.55,1.24,1.24,0,0,0,1-.44Z"/><path d="M549.76,55.45V50.08h.72v.56a1.57,1.57,0,0,1,1.27-.65c1,0,1.73.76,1.73,2s-.71,2-1.73,2a1.57,1.57,0,0,1-1.27-.66v2Zm1.8-4.82a1.34,1.34,0,0,0-1.08.57v1.65a1.34,1.34,0,0,0,1.08.57c.72,0,1.17-.58,1.17-1.4A1.23,1.23,0,0,0,551.56,50.63Z"/><path d="M554.34,55.45V50.08h.72v.56a1.57,1.57,0,0,1,1.27-.65c1,0,1.73.76,1.73,2s-.71,2-1.73,2a1.57,1.57,0,0,1-1.27-.66v2Zm1.8-4.82a1.34,1.34,0,0,0-1.08.57v1.65a1.34,1.34,0,0,0,1.08.57c.72,0,1.17-.58,1.17-1.4A1.23,1.23,0,0,0,556.14,50.63Z"/><rect class="cls-10" x="542.97" y="43.98" width="17.23" height="17.25" rx="3.67"/><path class="cls-11" d="M540.22,58.23H535.7a5.91,5.91,0,1,1,0-11.82h0a8.87,8.87,0,0,1,12.51-8A10.37,10.37,0,0,1,568.24,42a10.24,10.24,0,0,1-.35,2.67,7.37,7.37,0,0,1-4.09,13.55h-1.48"/><path d="M593,68.2a3.47,3.47,0,0,1,2.85,1.38l-.72.45A2.68,2.68,0,0,0,593,69a3,3,0,0,0,0,6,2.88,2.88,0,0,0,2-.79V72.7H592.5v-.81h3.43v2.65A3.83,3.83,0,0,1,593,75.8a3.8,3.8,0,0,1,0-7.6Z"/><path d="M597,73a2.63,2.63,0,1,1,2.63,2.79A2.6,2.6,0,0,1,597,73Zm4.39,0a1.79,1.79,0,1,0-1.76,2.06A1.85,1.85,0,0,0,601.35,73Z"/><path d="M603.14,73a2.63,2.63,0,1,1,2.63,2.79A2.6,2.6,0,0,1,603.14,73Zm4.39,0a1.79,1.79,0,1,0-1.76,2.06A1.85,1.85,0,0,0,607.53,73Z"/><path d="M610,76.41a2,2,0,0,0,1.73.73,1.52,1.52,0,0,0,1.7-1.6v-.76a2.21,2.21,0,0,1-1.78,1c-1.39,0-2.37-1-2.37-2.75s1-2.76,2.37-2.76a2.2,2.2,0,0,1,1.78.93v-.8h.83v5.16c0,1.76-1.23,2.31-2.53,2.31a2.74,2.74,0,0,1-2.15-.79Zm3.43-4.6a2,2,0,0,0-1.58-.86c-1.07,0-1.71.85-1.71,2s.64,2,1.71,2a2,2,0,0,0,1.58-.87Z"/><path d="M615.84,68.32h.82v7.34h-.82Z"/><path d="M620.51,70.22a2.57,2.57,0,0,1,2.55,2.84v.21h-4.3a1.87,1.87,0,0,0,1.92,1.84,2.33,2.33,0,0,0,1.64-.67l.39.54a2.87,2.87,0,0,1-2.11.81,2.79,2.79,0,0,1-.09-5.57Zm-1.75,2.45h3.49a1.72,1.72,0,0,0-1.75-1.77A1.78,1.78,0,0,0,618.76,72.67Z"/><path d="M603.59,53.54a1.68,1.68,0,0,1-1.28.53A1.3,1.3,0,0,1,601,52.78a1.25,1.25,0,0,1,1.35-1.27,1.65,1.65,0,0,1,1.28.51v-.64c0-.48-.4-.77-1-.77a1.59,1.59,0,0,0-1.17.51l-.32-.5a2.23,2.23,0,0,1,1.6-.63c.84,0,1.56.37,1.56,1.36V54h-.72Zm0-1.08a1.25,1.25,0,0,0-1-.45.78.78,0,1,0,0,1.55,1.24,1.24,0,0,0,1-.44Z"/><path d="M605.4,55.45V50.08h.73v.56A1.57,1.57,0,0,1,607.4,50c1,0,1.73.76,1.73,2s-.71,2-1.73,2a1.56,1.56,0,0,1-1.27-.66v2Zm1.81-4.82a1.33,1.33,0,0,0-1.08.57v1.65a1.33,1.33,0,0,0,1.08.57c.72,0,1.16-.58,1.16-1.4S607.93,50.63,607.21,50.63Z"/><path d="M610,55.45V50.08h.73v.56A1.57,1.57,0,0,1,612,50c1,0,1.73.76,1.73,2s-.71,2-1.73,2a1.56,1.56,0,0,1-1.27-.66v2Zm1.81-4.82a1.34,1.34,0,0,0-1.08.57v1.65a1.34,1.34,0,0,0,1.08.57c.72,0,1.17-.58,1.17-1.4A1.23,1.23,0,0,0,611.79,50.63Z"/><rect class="cls-10" x="598.61" y="43.98" width="17.23" height="17.25" rx="3.67"/><path class="cls-11" d="M595.87,58.23h-4.52a5.91,5.91,0,1,1,0-11.82h0a8.87,8.87,0,0,1,12.51-8A10.37,10.37,0,0,1,623.89,42a9.83,9.83,0,0,1-.36,2.67,7.37,7.37,0,0,1-4.08,13.55H618"/><path class="cls-12" d="M194.82,260.56H197a1.5,1.5,0,1,1,0,3h-1.19v1.67h-1Zm2.06.85h-1.06v1.29h1.06a.63.63,0,0,0,.68-.64A.64.64,0,0,0,196.88,261.41Z"/><path class="cls-12" d="M199.08,263.54a1.79,1.79,0,1,1,1.78,1.77A1.72,1.72,0,0,1,199.08,263.54Zm2.65,0a.87.87,0,1,0-1.73,0,.87.87,0,1,0,1.73,0Z"/><path class="cls-12" d="M203.58,264.17a1.93,1.93,0,0,0,1.17.46c.38,0,.57-.14.57-.35s-.3-.32-.68-.39c-.59-.12-1.33-.26-1.33-1.06,0-.57.49-1.07,1.38-1.07a2.15,2.15,0,0,1,1.37.47l-.36.6a1.45,1.45,0,0,0-1-.39c-.32,0-.53.12-.53.32s.26.28.64.36c.58.11,1.36.27,1.36,1.11,0,.61-.52,1.08-1.46,1.08a2.29,2.29,0,0,1-1.52-.52Z"/><path class="cls-12" d="M207.23,264.39v-1.77h-.56v-.77h.56v-.93h.9v.93h.69v.77h-.69v1.53c0,.21.11.37.31.37a.49.49,0,0,0,.31-.1l.18.68a1.09,1.09,0,0,1-.74.21A.85.85,0,0,1,207.23,264.39Z"/><path class="cls-12" d="M211.91,264.8a1.56,1.56,0,0,1-1.19.51,1,1,0,0,1-1.09-1.06v-2.4h.89v2a.54.54,0,0,0,.62.62,1,1,0,0,0,.77-.38v-2.29h.89v3.38h-.89Z"/><path class="cls-12" d="M213.86,261.85h.89v.46a1.42,1.42,0,0,1,1.07-.54v.87a.78.78,0,0,0-.24,0,1.1,1.1,0,0,0-.83.39v2.23h-.89Z"/><path class="cls-12" d="M218.08,261.76a1.7,1.7,0,0,1,1.69,1.87v.19h-2.51a.91.91,0,0,0,1,.79,1.35,1.35,0,0,0,.9-.34l.4.57a2.11,2.11,0,0,1-1.4.47,1.7,1.7,0,0,1-1.8-1.77A1.72,1.72,0,0,1,218.08,261.76Zm-.84,1.46h1.67a.79.79,0,0,0-.83-.75A.81.81,0,0,0,217.24,263.22Z"/><path class="cls-12" d="M222.14,262.9a2.37,2.37,0,0,1,2.45-2.42,2.15,2.15,0,0,1,2,1.14l-.85.42a1.31,1.31,0,0,0-1.14-.68,1.54,1.54,0,0,0,0,3.07,1.27,1.27,0,0,0,1.14-.68l.85.42a2.15,2.15,0,0,1-2,1.14A2.37,2.37,0,0,1,222.14,262.9Z"/><path class="cls-12" d="M229.6,263.17c0-.47-.25-.62-.63-.62a1,1,0,0,0-.77.4v2.28h-.89v-4.67h.89v1.73a1.54,1.54,0,0,1,1.19-.53,1,1,0,0,1,1.1,1.07v2.4h-.89Z"/><path class="cls-12" d="M233.08,261.76a1.7,1.7,0,0,1,1.7,1.87v.19h-2.52a.92.92,0,0,0,1,.79,1.4,1.4,0,0,0,.91-.34l.39.57a2.11,2.11,0,0,1-1.39.47,1.78,1.78,0,1,1-.06-3.55Zm-.83,1.46h1.66a.78.78,0,0,0-.83-.75A.81.81,0,0,0,232.25,263.22Z"/><path class="cls-12" d="M237.21,261.76a1.55,1.55,0,0,1,1.33.61l-.58.55a.81.81,0,0,0-.71-.37,1,1,0,0,0,0,2,.85.85,0,0,0,.71-.36l.58.54a1.55,1.55,0,0,1-1.33.61,1.78,1.78,0,1,1,0-3.55Z"/><path class="cls-12" d="M240.57,263.93l-.4.43v.87h-.89v-4.67h.89v2.79l1.28-1.5h1.09l-1.34,1.53,1.38,1.85h-1.11Z"/><path class="cls-12" d="M197.61,271.42h-2.09l-.29.81h-1.09l1.8-4.67h1.25l1.8,4.67H197.9Zm-1.82-.86h1.55l-.77-2.14Z"/><path class="cls-12" d="M201.12,268.76a1.59,1.59,0,0,1,1.34.61l-.58.55a.84.84,0,0,0-.72-.37,1,1,0,0,0,0,2,.88.88,0,0,0,.72-.36l.58.54a1.59,1.59,0,0,1-1.34.61,1.78,1.78,0,1,1,0-3.55Z"/><path class="cls-12" d="M204.71,268.76a1.56,1.56,0,0,1,1.34.61l-.58.55a.82.82,0,0,0-.71-.37,1,1,0,0,0,0,2,.86.86,0,0,0,.71-.36l.58.54a1.56,1.56,0,0,1-1.34.61,1.78,1.78,0,1,1,0-3.55Z"/><path class="cls-12" d="M208.27,268.76a1.7,1.7,0,0,1,1.69,1.87v.19h-2.51a.91.91,0,0,0,1,.79,1.4,1.4,0,0,0,.91-.34l.39.57a2.11,2.11,0,0,1-1.4.47,1.7,1.7,0,0,1-1.8-1.77A1.72,1.72,0,0,1,208.27,268.76Zm-.84,1.46h1.67a.78.78,0,0,0-.83-.75A.82.82,0,0,0,207.43,270.22Z"/><path class="cls-12" d="M210.88,271.17a1.93,1.93,0,0,0,1.17.46c.38,0,.56-.14.56-.35s-.29-.32-.67-.39c-.59-.12-1.34-.26-1.34-1.06,0-.57.5-1.07,1.39-1.07a2.15,2.15,0,0,1,1.37.47l-.36.6a1.45,1.45,0,0,0-1-.39c-.32,0-.53.12-.53.32s.26.28.64.36c.58.11,1.36.27,1.36,1.11,0,.61-.53,1.08-1.46,1.08a2.29,2.29,0,0,1-1.52-.52Z"/><path class="cls-12" d="M214.41,271.17a1.93,1.93,0,0,0,1.17.46c.38,0,.57-.14.57-.35s-.3-.32-.68-.39c-.58-.12-1.33-.26-1.33-1.06,0-.57.49-1.07,1.38-1.07a2.15,2.15,0,0,1,1.37.47l-.36.6a1.45,1.45,0,0,0-1-.39c-.32,0-.53.12-.53.32s.26.28.64.36c.58.11,1.36.27,1.36,1.11,0,.61-.52,1.08-1.46,1.08a2.29,2.29,0,0,1-1.52-.52Z"/><path class="cls-12" d="M219.61,267.56h1.84a2.34,2.34,0,1,1,0,4.67h-1.84Zm1.84,3.79a1.4,1.4,0,0,0,1.47-1.45,1.37,1.37,0,0,0-1.47-1.47h-.85v2.92Z"/><path class="cls-12" d="M226.36,268.76a1.7,1.7,0,0,1,1.69,1.87v.19h-2.51a.92.92,0,0,0,1,.79,1.4,1.4,0,0,0,.91-.34l.39.57a2.11,2.11,0,0,1-1.39.47,1.78,1.78,0,1,1-.06-3.55Zm-.83,1.46h1.66a.78.78,0,0,0-.83-.75A.81.81,0,0,0,225.53,270.22Z"/><path class="cls-12" d="M231.17,270.19a.56.56,0,0,0-.62-.64,1,1,0,0,0-.77.4v2.28h-.89v-3.38h.89v.44a1.53,1.53,0,0,1,1.18-.53,1,1,0,0,1,1.1,1.08v2.39h-.89Z"/><path class="cls-12" d="M233,267.88a.53.53,0,1,1,.53.53A.53.53,0,0,1,233,267.88Zm.09,1H234v3.38h-.89Z"/><path class="cls-12" d="M236.56,268.76a1.7,1.7,0,0,1,1.7,1.87v.19h-2.52a.92.92,0,0,0,1,.79,1.39,1.39,0,0,0,.9-.34l.39.57a2.09,2.09,0,0,1-1.39.47,1.78,1.78,0,1,1-.06-3.55Zm-.83,1.46h1.67a.79.79,0,0,0-.84-.75A.81.81,0,0,0,235.73,270.22Z"/><path class="cls-12" d="M241.44,271.8a1.34,1.34,0,0,1-1.05.51c-.85,0-1.5-.64-1.5-1.77a1.57,1.57,0,0,1,1.5-1.78,1.33,1.33,0,0,1,1.05.52v-1.72h.89v4.67h-.89Zm0-1.86a1,1,0,0,0-.77-.39,1,1,0,0,0,0,2,1,1,0,0,0,.77-.38Z"/><path class="cls-12" d="M194.82,194.29H197a1.5,1.5,0,1,1,0,3h-1.19V199h-1Zm2.06.86h-1.06v1.28h1.06a.64.64,0,1,0,0-1.28Z"/><path class="cls-12" d="M199.08,197.27a1.79,1.79,0,0,1,3.58,0,1.79,1.79,0,0,1-3.58,0Zm2.65,0a.87.87,0,1,0-.87,1A.89.89,0,0,0,201.73,197.27Z"/><path class="cls-12" d="M203.58,197.9a1.93,1.93,0,0,0,1.17.46c.38,0,.57-.13.57-.34s-.3-.32-.68-.4c-.59-.11-1.33-.25-1.33-1.06,0-.57.49-1.06,1.38-1.06a2.15,2.15,0,0,1,1.37.46l-.36.61a1.41,1.41,0,0,0-1-.39c-.32,0-.53.11-.53.31s.26.29.64.36c.58.12,1.36.27,1.36,1.11,0,.62-.52,1.09-1.46,1.09a2.3,2.3,0,0,1-1.52-.53Z"/><path class="cls-12" d="M207.23,198.12v-1.76h-.56v-.78h.56v-.92h.9v.92h.69v.78h-.69v1.52c0,.21.11.38.31.38a.49.49,0,0,0,.31-.1l.18.67a1.08,1.08,0,0,1-.74.22A.85.85,0,0,1,207.23,198.12Z"/><path class="cls-12" d="M211.91,198.54a1.6,1.6,0,0,1-1.19.51,1,1,0,0,1-1.09-1.07v-2.4h.89v2a.55.55,0,0,0,.62.63,1,1,0,0,0,.77-.39v-2.29h.89V199h-.89Z"/><path class="cls-12" d="M213.86,195.58h.89V196a1.42,1.42,0,0,1,1.07-.54v.87a1.29,1.29,0,0,0-.24,0,1.1,1.1,0,0,0-.83.39V199h-.89Z"/><path class="cls-12" d="M218.08,195.5a1.69,1.69,0,0,1,1.69,1.86v.2h-2.51a.91.91,0,0,0,1,.78,1.35,1.35,0,0,0,.9-.34l.4.58a2.11,2.11,0,0,1-1.4.47,1.78,1.78,0,0,1,0-3.55Zm-.84,1.45h1.67a.79.79,0,0,0-.83-.75A.82.82,0,0,0,217.24,197Z"/><path class="cls-12" d="M222.14,196.63a2.37,2.37,0,0,1,2.45-2.42,2.14,2.14,0,0,1,2,1.15l-.85.42a1.29,1.29,0,0,0-1.14-.68,1.53,1.53,0,0,0,0,3.06,1.27,1.27,0,0,0,1.14-.68l.85.42a2.16,2.16,0,0,1-2,1.15A2.37,2.37,0,0,1,222.14,196.63Z"/><path class="cls-12" d="M229.6,196.9c0-.47-.25-.61-.63-.61a1,1,0,0,0-.77.4V199h-.89v-4.67h.89V196a1.54,1.54,0,0,1,1.19-.52,1,1,0,0,1,1.1,1.06V199h-.89Z"/><path class="cls-12" d="M233.08,195.5a1.69,1.69,0,0,1,1.7,1.86v.2h-2.52a.92.92,0,0,0,1,.78,1.4,1.4,0,0,0,.91-.34l.39.58a2.11,2.11,0,0,1-1.39.47,1.78,1.78,0,1,1-.06-3.55Zm-.83,1.45h1.66a.78.78,0,0,0-.83-.75A.82.82,0,0,0,232.25,197Z"/><path class="cls-12" d="M237.21,195.5a1.55,1.55,0,0,1,1.33.61l-.58.54a.8.8,0,0,0-.71-.36,1,1,0,0,0,0,2,.83.83,0,0,0,.71-.37l.58.54a1.53,1.53,0,0,1-1.33.62,1.78,1.78,0,1,1,0-3.55Z"/><path class="cls-12" d="M240.57,197.66l-.4.43V199h-.89v-4.67h.89v2.8l1.28-1.51h1.09l-1.34,1.53,1.38,1.85h-1.11Z"/><path class="cls-12" d="M193.26,205.16h-2.09l-.29.8h-1.09l1.8-4.67h1.25l1.8,4.67h-1.09Zm-1.82-.86H193l-.77-2.15Z"/><path class="cls-12" d="M196.77,202.5a1.59,1.59,0,0,1,1.34.61l-.58.54a.82.82,0,0,0-.72-.36,1,1,0,0,0,0,2,.85.85,0,0,0,.72-.37l.58.54a1.57,1.57,0,0,1-1.34.62,1.78,1.78,0,1,1,0-3.55Z"/><path class="cls-12" d="M200.37,202.5a1.55,1.55,0,0,1,1.33.61l-.58.54a.8.8,0,0,0-.71-.36,1,1,0,0,0,0,2,.83.83,0,0,0,.71-.37l.58.54a1.53,1.53,0,0,1-1.33.62,1.78,1.78,0,1,1,0-3.55Z"/><path class="cls-12" d="M203.92,202.5a1.69,1.69,0,0,1,1.69,1.86v.2H203.1a.91.91,0,0,0,1,.78A1.4,1.4,0,0,0,205,205l.39.58a2.11,2.11,0,0,1-1.4.47,1.78,1.78,0,0,1-.05-3.55Zm-.84,1.45h1.67a.78.78,0,0,0-.83-.75A.83.83,0,0,0,203.08,204Z"/><path class="cls-12" d="M206.53,204.9a1.93,1.93,0,0,0,1.17.46c.38,0,.57-.13.57-.34s-.3-.32-.68-.4c-.59-.11-1.33-.25-1.33-1.06,0-.57.49-1.06,1.38-1.06A2.15,2.15,0,0,1,209,203l-.36.61a1.41,1.41,0,0,0-1-.39c-.32,0-.53.11-.53.31s.26.29.64.36c.58.12,1.36.27,1.36,1.11,0,.62-.52,1.09-1.46,1.09a2.3,2.3,0,0,1-1.52-.53Z"/><path class="cls-12" d="M210.06,204.9a2,2,0,0,0,1.17.46c.38,0,.57-.13.57-.34s-.3-.32-.68-.4c-.58-.11-1.33-.25-1.33-1.06,0-.57.49-1.06,1.38-1.06a2.15,2.15,0,0,1,1.37.46l-.36.61a1.41,1.41,0,0,0-1-.39c-.32,0-.53.11-.53.31s.26.29.64.36c.58.12,1.36.27,1.36,1.11,0,.62-.52,1.09-1.46,1.09a2.3,2.3,0,0,1-1.52-.53Z"/><path class="cls-12" d="M218.24,205.16h-2.09l-.29.8h-1.1l1.81-4.67h1.25l1.8,4.67h-1.09Zm-1.82-.86H218l-.77-2.15Z"/><path class="cls-12" d="M220.26,207.25v-4.67h.88V203a1.31,1.31,0,0,1,1.05-.51c.87,0,1.5.64,1.5,1.77s-.63,1.78-1.5,1.78a1.32,1.32,0,0,1-1.05-.52v1.72Zm1.65-4a1,1,0,0,0-.77.38v1.2a1,1,0,0,0,.77.39,1,1,0,0,0,0-2Z"/><path class="cls-12" d="M224.56,207.25v-4.67h.89V203a1.3,1.3,0,0,1,1-.51c.87,0,1.5.64,1.5,1.77s-.63,1.78-1.5,1.78a1.28,1.28,0,0,1-1-.52v1.72Zm1.65-4a1,1,0,0,0-.76.38v1.2a1,1,0,0,0,.76.39,1,1,0,0,0,0-2Z"/><path class="cls-12" d="M228.86,202.58h.89V203a1.46,1.46,0,0,1,1.08-.54v.87a1.42,1.42,0,0,0-.24,0,1.14,1.14,0,0,0-.84.39V206h-.89Z"/><path class="cls-12" d="M231.34,204.27a1.79,1.79,0,1,1,1.78,1.78A1.71,1.71,0,0,1,231.34,204.27Zm2.65,0a.87.87,0,1,0-.87,1A.89.89,0,0,0,234,204.27Z"/><path class="cls-12" d="M235.2,202.58h1l.88,2.35.89-2.35h1L237.52,206h-1Z"/><path class="cls-12" d="M240.91,202.5a1.69,1.69,0,0,1,1.7,1.86v.2h-2.52a.92.92,0,0,0,1,.78,1.39,1.39,0,0,0,.9-.34l.39.58a2.09,2.09,0,0,1-1.39.47,1.78,1.78,0,1,1-.06-3.55Zm-.83,1.45h1.67a.8.8,0,0,0-.84-.75A.82.82,0,0,0,240.08,204Z"/><path class="cls-12" d="M245.79,205.53a1.35,1.35,0,0,1-1,.52c-.85,0-1.5-.65-1.5-1.78a1.56,1.56,0,0,1,1.5-1.77,1.32,1.32,0,0,1,1,.51v-1.72h.89V206h-.89Zm0-1.86a1,1,0,0,0-.77-.38,1,1,0,0,0,0,2,1,1,0,0,0,.77-.39Z"/><line class="cls-1" x1="132.93" y1="147.28" x2="264.16" y2="147.28"/><path class="cls-12" d="M194.82,128.69H197a1.5,1.5,0,1,1,0,3h-1.19v1.67h-1Zm2.06.86h-1.06v1.28h1.06a.64.64,0,1,0,0-1.28Z"/><path class="cls-12" d="M199.08,131.67a1.79,1.79,0,0,1,3.58,0,1.79,1.79,0,0,1-3.58,0Zm2.65,0a.87.87,0,1,0-.87,1A.89.89,0,0,0,201.73,131.67Z"/><path class="cls-12" d="M203.58,132.3a1.93,1.93,0,0,0,1.17.46c.38,0,.57-.13.57-.34s-.3-.33-.68-.4c-.59-.11-1.33-.25-1.33-1.06,0-.57.49-1.06,1.38-1.06a2.15,2.15,0,0,1,1.37.46l-.36.61a1.41,1.41,0,0,0-1-.4c-.32,0-.53.12-.53.32s.26.29.64.36c.58.12,1.36.27,1.36,1.11,0,.62-.52,1.09-1.46,1.09a2.3,2.3,0,0,1-1.52-.53Z"/><path class="cls-12" d="M207.23,132.52v-1.76h-.56V130h.56v-.92h.9V130h.69v.78h-.69v1.52c0,.21.11.37.31.37a.5.5,0,0,0,.31-.09l.18.67a1.08,1.08,0,0,1-.74.22A.85.85,0,0,1,207.23,132.52Z"/><path class="cls-12" d="M211.91,132.94a1.6,1.6,0,0,1-1.19.51,1,1,0,0,1-1.09-1.07V130h.89V132a.54.54,0,0,0,.62.62,1,1,0,0,0,.77-.38V130h.89v3.38h-.89Z"/><path class="cls-12" d="M213.86,130h.89v.46a1.42,1.42,0,0,1,1.07-.54v.87a1.29,1.29,0,0,0-.24,0,1.1,1.1,0,0,0-.83.39v2.23h-.89Z"/><path class="cls-12" d="M218.08,129.9a1.69,1.69,0,0,1,1.69,1.86V132h-2.51a.91.91,0,0,0,1,.79,1.35,1.35,0,0,0,.9-.34l.4.58a2.11,2.11,0,0,1-1.4.47,1.78,1.78,0,0,1,0-3.55Zm-.84,1.45h1.67a.79.79,0,0,0-.83-.75A.82.82,0,0,0,217.24,131.35Z"/><path class="cls-12" d="M222.14,131a2.37,2.37,0,0,1,2.45-2.42,2.14,2.14,0,0,1,2,1.15l-.85.42a1.29,1.29,0,0,0-1.14-.68,1.53,1.53,0,0,0,0,3.06,1.27,1.27,0,0,0,1.14-.68l.85.42a2.16,2.16,0,0,1-2,1.15A2.37,2.37,0,0,1,222.14,131Z"/><path class="cls-12" d="M229.6,131.3c0-.47-.25-.61-.63-.61a1,1,0,0,0-.77.4v2.27h-.89v-4.67h.89v1.73a1.54,1.54,0,0,1,1.19-.52,1,1,0,0,1,1.1,1.06v2.4h-.89Z"/><path class="cls-12" d="M233.08,129.9a1.69,1.69,0,0,1,1.7,1.86V132h-2.52a.92.92,0,0,0,1,.79,1.4,1.4,0,0,0,.91-.34l.39.58a2.11,2.11,0,0,1-1.39.47,1.78,1.78,0,1,1-.06-3.55Zm-.83,1.45h1.66a.78.78,0,0,0-.83-.75A.82.82,0,0,0,232.25,131.35Z"/><path class="cls-12" d="M237.21,129.9a1.57,1.57,0,0,1,1.33.6l-.58.55a.8.8,0,0,0-.71-.36,1,1,0,0,0,0,2,.85.85,0,0,0,.71-.36l.58.54a1.56,1.56,0,0,1-1.33.62,1.78,1.78,0,1,1,0-3.55Z"/><path class="cls-12" d="M240.57,132.06l-.4.43v.87h-.89v-4.67h.89v2.8l1.28-1.51h1.09l-1.34,1.53,1.38,1.85h-1.11Z"/><path class="cls-12" d="M193.26,139.56h-2.09l-.29.8h-1.09l1.8-4.67h1.25l1.8,4.67h-1.09Zm-1.82-.86H193l-.77-2.15Z"/><path class="cls-12" d="M196.77,136.9a1.61,1.61,0,0,1,1.34.6l-.58.55a.82.82,0,0,0-.72-.36,1,1,0,0,0,0,2,.87.87,0,0,0,.72-.36l.58.54a1.59,1.59,0,0,1-1.34.62,1.78,1.78,0,1,1,0-3.55Z"/><path class="cls-12" d="M200.37,136.9a1.57,1.57,0,0,1,1.33.6l-.58.55a.8.8,0,0,0-.71-.36,1,1,0,0,0,0,2,.85.85,0,0,0,.71-.36l.58.54a1.56,1.56,0,0,1-1.33.62,1.78,1.78,0,1,1,0-3.55Z"/><path class="cls-12" d="M203.92,136.9a1.69,1.69,0,0,1,1.69,1.86V139H203.1a.91.91,0,0,0,1,.79,1.4,1.4,0,0,0,.91-.34l.39.58a2.11,2.11,0,0,1-1.4.47,1.78,1.78,0,0,1-.05-3.55Zm-.84,1.45h1.67a.78.78,0,0,0-.83-.75A.83.83,0,0,0,203.08,138.35Z"/><path class="cls-12" d="M206.53,139.3a1.93,1.93,0,0,0,1.17.46c.38,0,.57-.13.57-.34s-.3-.33-.68-.4c-.59-.11-1.33-.25-1.33-1.06,0-.57.49-1.06,1.38-1.06a2.15,2.15,0,0,1,1.37.46l-.36.61a1.41,1.41,0,0,0-1-.4c-.32,0-.53.12-.53.32s.26.29.64.36c.58.12,1.36.27,1.36,1.11,0,.62-.52,1.09-1.46,1.09a2.3,2.3,0,0,1-1.52-.53Z"/><path class="cls-12" d="M210.06,139.3a2,2,0,0,0,1.17.46c.38,0,.57-.13.57-.34s-.3-.33-.68-.4c-.58-.11-1.33-.25-1.33-1.06,0-.57.49-1.06,1.38-1.06a2.15,2.15,0,0,1,1.37.46l-.36.61a1.41,1.41,0,0,0-1-.4c-.32,0-.53.12-.53.32s.26.29.64.36c.58.12,1.36.27,1.36,1.11,0,.62-.52,1.09-1.46,1.09a2.3,2.3,0,0,1-1.52-.53Z"/><path class="cls-12" d="M218.24,139.56h-2.09l-.29.8h-1.1l1.81-4.67h1.25l1.8,4.67h-1.09Zm-1.82-.86H218l-.77-2.15Z"/><path class="cls-12" d="M220.26,141.65V137h.88v.43a1.31,1.31,0,0,1,1.05-.51c.87,0,1.5.64,1.5,1.77s-.63,1.78-1.5,1.78a1.32,1.32,0,0,1-1.05-.52v1.72Zm1.65-4a1,1,0,0,0-.77.38v1.2a1,1,0,0,0,.77.38,1,1,0,0,0,0-2Z"/><path class="cls-12" d="M224.56,141.65V137h.89v.43a1.3,1.3,0,0,1,1-.51c.87,0,1.5.64,1.5,1.77s-.63,1.78-1.5,1.78a1.28,1.28,0,0,1-1-.52v1.72Zm1.65-4a1,1,0,0,0-.76.38v1.2a1,1,0,0,0,.76.38,1,1,0,0,0,0-2Z"/><path class="cls-12" d="M228.86,137h.89v.46a1.46,1.46,0,0,1,1.08-.54v.87a1.42,1.42,0,0,0-.24,0,1.14,1.14,0,0,0-.84.39v2.23h-.89Z"/><path class="cls-12" d="M231.34,138.67a1.79,1.79,0,1,1,1.78,1.78A1.71,1.71,0,0,1,231.34,138.67Zm2.65,0a.87.87,0,1,0-.87,1A.89.89,0,0,0,234,138.67Z"/><path class="cls-12" d="M235.2,137h1l.88,2.35.89-2.35h1l-1.36,3.38h-1Z"/><path class="cls-12" d="M240.91,136.9a1.69,1.69,0,0,1,1.7,1.86V139h-2.52a.92.92,0,0,0,1,.79,1.39,1.39,0,0,0,.9-.34l.39.58a2.09,2.09,0,0,1-1.39.47,1.78,1.78,0,1,1-.06-3.55Zm-.83,1.45h1.67a.8.8,0,0,0-.84-.75A.82.82,0,0,0,240.08,138.35Z"/><path class="cls-12" d="M245.79,139.93a1.35,1.35,0,0,1-1,.52c-.85,0-1.5-.65-1.5-1.78a1.56,1.56,0,0,1,1.5-1.77,1.32,1.32,0,0,1,1,.51v-1.72h.89v4.67h-.89Zm0-1.86a1,1,0,0,0-.77-.38,1,1,0,0,0,0,2,1,1,0,0,0,.77-.38Z"/><path d="M383.2,36.41a2.06,2.06,0,0,0,1.49.63c.54,0,.81-.26.81-.53s-.41-.47-.95-.59c-.76-.18-1.74-.39-1.74-1.43,0-.78.67-1.41,1.77-1.41a2.63,2.63,0,0,1,1.82.65l-.55.73a2,2,0,0,0-1.34-.51c-.45,0-.69.2-.69.48s.4.41.93.54c.78.17,1.76.4,1.76,1.44,0,.85-.61,1.5-1.87,1.5a2.68,2.68,0,0,1-2-.74Z"/><path d="M387.26,33.47a.54.54,0,0,1,.54-.53.54.54,0,0,1,0,1.07A.54.54,0,0,1,387.26,33.47Zm.09,1h.89v3.38h-.89Z"/><path d="M391.58,35.78c0-.47-.24-.63-.62-.63a.93.93,0,0,0-.77.4v2.27h-.89V34.44h.89v.44a1.53,1.53,0,0,1,1.18-.52,1,1,0,0,1,1.1,1.08v2.38h-.89Z"/><path d="M393.87,38.05a1.35,1.35,0,0,0,1.06.42.83.83,0,0,0,.93-.86v-.34a1.31,1.31,0,0,1-1.05.53c-.84,0-1.49-.59-1.49-1.72a1.51,1.51,0,0,1,1.49-1.72,1.31,1.31,0,0,1,1.05.51v-.43h.89v3.15c0,1.29-1,1.61-1.82,1.61a2.07,2.07,0,0,1-1.46-.51Zm2-2.52a1,1,0,0,0-.76-.38.93.93,0,0,0,0,1.86,1,1,0,0,0,.76-.38Z"/><path d="M397.81,33.15h.89v4.67h-.89Z"/><path d="M401.29,34.36a1.69,1.69,0,0,1,1.7,1.86v.2h-2.52a.92.92,0,0,0,1,.78,1.39,1.39,0,0,0,.9-.34l.39.58a2.09,2.09,0,0,1-1.39.47,1.78,1.78,0,1,1-.06-3.55Zm-.83,1.45h1.67a.8.8,0,0,0-.84-.75A.82.82,0,0,0,400.46,35.81Z"/><path d="M405.81,36.41a2.06,2.06,0,0,0,1.48.63c.55,0,.81-.26.81-.53s-.4-.47-.94-.59c-.76-.18-1.75-.39-1.75-1.43,0-.78.68-1.41,1.78-1.41a2.65,2.65,0,0,1,1.82.65l-.56.73a2,2,0,0,0-1.33-.51c-.45,0-.69.2-.69.48s.39.41.93.54c.77.17,1.75.4,1.75,1.44,0,.85-.61,1.5-1.87,1.5a2.66,2.66,0,0,1-2-.74Z"/><path d="M409.87,33.47a.53.53,0,0,1,.53-.53.54.54,0,0,1,0,1.07A.54.54,0,0,1,409.87,33.47Zm.09,1h.89v3.38H410Z"/><path d="M412.24,38.05a1.34,1.34,0,0,0,1.05.42.83.83,0,0,0,.94-.86v-.34a1.31,1.31,0,0,1-1.05.53c-.85,0-1.49-.59-1.49-1.72a1.51,1.51,0,0,1,1.49-1.72,1.32,1.32,0,0,1,1.05.51v-.43h.89v3.15c0,1.29-1,1.61-1.83,1.61a2,2,0,0,1-1.45-.51Zm2-2.52a1,1,0,0,0-.77-.38.93.93,0,0,0,0,1.86,1,1,0,0,0,.77-.38Z"/><path d="M418.46,35.78c0-.47-.24-.63-.62-.63a.93.93,0,0,0-.77.4v2.27h-.89V34.44h.89v.44a1.53,1.53,0,0,1,1.18-.52,1,1,0,0,1,1.1,1.08v2.38h-.89Z"/><path d="M420.28,35.75H422v.76h-1.68Z"/><path d="M425.25,33.08a2.42,2.42,0,1,1-2.44,2.41A2.33,2.33,0,0,1,425.25,33.08Zm0,.88a1.54,1.54,0,0,0,0,3.07,1.54,1.54,0,0,0,0-3.07Z"/><path d="M430.89,35.78c0-.47-.24-.63-.62-.63a.93.93,0,0,0-.77.4v2.27h-.89V34.44h.89v.44a1.53,1.53,0,0,1,1.18-.52,1,1,0,0,1,1.1,1.08v2.38h-.89Z"/><path class="cls-12" d="M388,43.41a2.06,2.06,0,0,0,1.49.63c.54,0,.81-.26.81-.53s-.41-.47-1-.59c-.76-.18-1.74-.39-1.74-1.43,0-.78.67-1.41,1.77-1.41a2.63,2.63,0,0,1,1.82.65l-.55.73A2,2,0,0,0,389.3,41c-.45,0-.69.2-.69.48s.4.41.94.54c.77.17,1.75.4,1.75,1.44,0,.85-.61,1.5-1.87,1.5a2.68,2.68,0,0,1-2-.74Z"/><path class="cls-12" d="M395.11,44H393l-.29.8h-1.09l1.8-4.67h1.25l1.8,4.67H395.4Zm-1.82-.86h1.55L394.07,41Z"/><path class="cls-12" d="M401.21,41.46l-1.32,3.36h-.43l-1.32-3.36v3.36h-1V40.15h1.39l1.13,2.92,1.14-2.92h1.4v4.67h-1Z"/><path class="cls-12" d="M403.38,40.15h1V44h2v.87h-3Z"/><path class="cls-12" d="M408.54,40h.65l-1.66,5h-.65Z"/><path class="cls-12" d="M412.32,40.08a2.42,2.42,0,1,1-2.43,2.41A2.34,2.34,0,0,1,412.32,40.08Zm0,.88a1.54,1.54,0,0,0,0,3.07,1.54,1.54,0,0,0,0-3.07Z"/><path class="cls-12" d="M415.7,40.15h1v4.67h-1Z"/><path class="cls-12" d="M417.86,40.15h1.84a2.34,2.34,0,1,1,0,4.67h-1.84ZM419.7,44a1.4,1.4,0,0,0,1.46-1.46A1.36,1.36,0,0,0,419.7,41h-.85V44Z"/><path class="cls-12" d="M422.86,42.49a2.36,2.36,0,0,1,2.45-2.41,2.16,2.16,0,0,1,2,1.14l-.86.42a1.26,1.26,0,0,0-1.13-.68,1.54,1.54,0,0,0,0,3.07,1.26,1.26,0,0,0,1.13-.68l.86.41a2.18,2.18,0,0,1-2,1.15A2.36,2.36,0,0,1,422.86,42.49Z"/><line class="cls-11" x1="18.26" y1="399.83" x2="25.7" y2="399.83"/><line class="cls-11" x1="35.26" y1="399.83" x2="27.82" y2="399.83"/><line class="cls-11" x1="26.76" y1="398.77" x2="26.76" y2="391.08"/><line class="cls-11" x1="26.76" y1="400.88" x2="26.76" y2="408.58"/><ellipse class="cls-11" cx="26.76" cy="399.83" rx="3.19" ry="3.17"/><ellipse class="cls-11" cx="26.76" cy="399.83" rx="5.31" ry="5.28"/><path class="cls-11" d="M34.15,411.2H10.49a5.91,5.91,0,1,1,0-11.82h0a8.87,8.87,0,0,1,12.51-8A10.37,10.37,0,0,1,43,395a10.26,10.26,0,0,1-.36,2.68,7.36,7.36,0,0,1-4.08,13.54H37.11"/><line class="cls-11" x1="120.11" y1="224.05" x2="125.57" y2="224.05"/><path class="cls-11" d="M143.32,224A2.48,2.48,0,0,1,142,226.1H103.71a2.42,2.42,0,0,1-1.39-2.07,2.33,2.33,0,0,1,1.39-2H142V200.11H103.71v19.15"/><polyline class="cls-11" points="118.75 206.77 111.97 210.83 118.75 214.89"/><polyline class="cls-11" points="126.89 214.89 133.68 210.83 126.89 206.77"/><line class="cls-11" x1="124.18" y1="206.77" x2="121.47" y2="214.89"/><path d="M96.78,302.94l-2.5,6.11h-.37l-2.49-6.11v6.11h-.91v-7.34h1.3l2.28,5.59,2.29-5.59h1.31v7.34h-.91Z"/><path d="M102.58,308.44a2.27,2.27,0,0,1-1.76.74A1.77,1.77,0,0,1,99,307.42a1.74,1.74,0,0,1,1.86-1.75,2.19,2.19,0,0,1,1.76.73v-1c0-.72-.57-1.12-1.34-1.12a2.13,2.13,0,0,0-1.63.73l-.38-.57a2.78,2.78,0,0,1,2.12-.88c1.12,0,2.06.51,2.06,1.79v3.66h-.83Zm0-1.52a1.77,1.77,0,0,0-1.46-.66,1.17,1.17,0,1,0,0,2.32,1.74,1.74,0,0,0,1.46-.66Z"/><path d="M107.29,303.6a2.28,2.28,0,0,1,1.95.93l-.55.5a1.57,1.57,0,0,0-1.35-.69,2.06,2.06,0,0,0,0,4.1,1.6,1.6,0,0,0,1.35-.69l.55.5a2.28,2.28,0,0,1-1.95.93,2.79,2.79,0,0,1,0-5.58Z"/><path d="M112.07,301.49h.64l-2.6,7.78h-.65Z"/><path d="M117.46,303.13l-1.62,5.92h-1l-2.09-7.34h1l1.63,6.12,1.68-6.12h.76l1.68,6.12,1.62-6.12h1l-2.09,7.34h-1Z"/><path d="M122.89,302.28a.56.56,0,0,1,1.11,0,.56.56,0,1,1-1.11,0Zm.14,1.45h.83v5.32H123Z"/><path d="M129,305.57c0-.94-.47-1.23-1.18-1.23a2.06,2.06,0,0,0-1.58.82v3.89h-.82v-5.32h.82v.77a2.64,2.64,0,0,1,1.89-.9,1.51,1.51,0,0,1,1.7,1.72v3.73H129Z"/><path d="M135.2,308.25a2.25,2.25,0,0,1-1.79.93c-1.39,0-2.37-1.06-2.37-2.78s1-2.8,2.37-2.8a2.21,2.21,0,0,1,1.79.94v-2.83H136v7.34h-.82Zm0-3.05a2,2,0,0,0-1.6-.86c-1.06,0-1.7.88-1.7,2.06s.64,2,1.7,2a2,2,0,0,0,1.6-.83Z"/><path d="M137.26,306.38c-.2-3.62,5.45-3.62,5.25,0C142.71,310,137.06,310,137.26,306.38Zm4.39,0a1.78,1.78,0,1,0-3.54,0A1.78,1.78,0,1,0,141.65,306.38Z"/><path d="M147,304.78l-1.39,4.27h-.82l-1.7-5.32h.86l1.3,4.24,1.4-4.24h.7l1.4,4.24,1.29-4.24h.86l-1.69,5.32h-.83Z"/><path d="M151.68,307.75a2.39,2.39,0,0,0,1.75.76c.81,0,1.25-.37,1.25-.88s-.65-.77-1.37-.95c-.9-.21-1.92-.45-1.92-1.55,0-.82.71-1.53,2-1.53a2.69,2.69,0,0,1,2,.77l-.39.57a2.07,2.07,0,0,0-1.58-.67c-.73,0-1.18.33-1.18.81s.61.68,1.3.84c.93.21,2,.48,2,1.65,0,.89-.71,1.61-2.09,1.61a2.79,2.79,0,0,1-2.14-.84Z"/><line class="cls-11" x1="120.11" y1="290.98" x2="125.57" y2="290.98"/><path class="cls-11" d="M143.32,290.93A2.46,2.46,0,0,1,142,293H103.71a2.4,2.4,0,0,1-1.39-2.07,2.33,2.33,0,0,1,1.39-2H142V267H103.71v19.15"/><polyline class="cls-11" points="118.75 273.69 111.97 277.75 118.75 281.81"/><polyline class="cls-11" points="126.89 281.81 133.68 277.75 126.89 273.69"/><line class="cls-11" x1="124.18" y1="273.7" x2="121.47" y2="281.81"/><rect class="cls-5" x="550.2" y="177.99" width="128.09" height="87.72"/><rect x="578.46" y="168.99" width="71.58" height="18"/><path class="cls-6" d="M587.46,179.62v-3.36a2.39,2.39,0,0,1,4.72,0v3.36a2.39,2.39,0,0,1-4.72,0Zm3.17,0v-3.4c0-.36-.24-.6-.8-.6s-.82.24-.82.6v3.4c0,.36.24.6.81.6S590.63,180,590.63,179.64Z"/><path class="cls-6" d="M597.67,174.39v7.1h-1.36l-1.85-4v4h-1.34v-7.1h1.34l1.85,4.06v-4.06Z"/><path class="cls-6" d="M598.6,177.59H601v1.3H598.6Z"/><path class="cls-6" d="M606.36,176.33v.91a2,2,0,0,1-2.11,1.95h-.82v2.3h-1.55v-7.1h2.36A2,2,0,0,1,606.36,176.33Zm-1.55-.07a.44.44,0,0,0-.46-.47h-.92v2h.91a.44.44,0,0,0,.47-.48Z"/><path class="cls-6" d="M609.49,178.93h-.74v2.56H607.2v-7.1h2.36a1.94,1.94,0,0,1,2.11,1.94V177a1.85,1.85,0,0,1-.7,1.5l.91,3h-1.61Zm-.74-1.4h.91a.44.44,0,0,0,.47-.47v-.8a.43.43,0,0,0-.46-.47h-.92Z"/><path class="cls-6" d="M614.28,175.79v1.55H616v1.4h-1.72v1.35h2.12v1.4h-3.67v-7.1h3.67v1.4Z"/><path class="cls-6" d="M623,181.49h-1.33v-4.57l-1,4.57h-1.11l-1-4.61v4.61h-1.31v-7.1h1.83l1,4.06,1-4.06H623Z"/><path class="cls-6" d="M624,174.39h1.54v7.1H624Z"/><path class="cls-6" d="M626.43,179.39v-.28H628v.44a.74.74,0,0,0,.83.73.68.68,0,0,0,.72-.69c0-1.27-3-1-3-3.27a2,2,0,0,1,2.22-2.08,1.94,1.94,0,0,1,2.21,2v.44h-1.55v-.54c0-.31-.3-.49-.67-.49a.59.59,0,0,0-.65.6c0,1,3,.79,3,3.21a2.1,2.1,0,0,1-2.31,2.19A2.15,2.15,0,0,1,626.43,179.39Z"/><path class="cls-6" d="M633.52,175.79v1.55h1.72v1.4h-1.72v1.35h2.11v1.4H632v-7.1h3.66v1.4Z"/><path class="cls-6" d="M636.4,179.39v-.28H638v.44a.73.73,0,0,0,.82.73.68.68,0,0,0,.72-.69c0-1.27-3-1-3-3.27a2,2,0,0,1,2.22-2.08,1.94,1.94,0,0,1,2.2,2v.44H639.4v-.54c0-.31-.3-.49-.67-.49a.59.59,0,0,0-.65.6c0,1,3,.79,3,3.21a2.1,2.1,0,0,1-2.3,2.19A2.15,2.15,0,0,1,636.4,179.39Z"/><rect class="cls-13" x="570.97" y="205.19" width="36.63" height="36.63" rx="5.31"/><g id="Group_13232-2" data-name="Group 13232-2"><path id="Path_61042" data-name="Path 61042" class="cls-14" d="M583.27,224.88a3,3,0,0,1-2.4,1,2.32,2.32,0,1,1-.24-4.64h.24a3,3,0,0,1,2.4,1v-1.58a1.76,1.76,0,0,0-1.78-1.74h-.19a2.74,2.74,0,0,0-2.24,1.1l-.27-.27a3,3,0,0,1,2.55-1.18c1.38,0,2.4.71,2.4,2.08v5h-.43v-.87Zm0-2.16a2.81,2.81,0,0,0-2.28-1.06,1.94,1.94,0,0,0-2.08,1.8s0,.09,0,.13a1.93,1.93,0,0,0,1.92,1.93H581a2.74,2.74,0,0,0,2.28-1.06Z"/><path id="Path_61043" data-name="Path 61043" class="cls-14" d="M586.06,228.38v-9.6h.43V220a3.12,3.12,0,0,1,2.52-1.33c1.89,0,3.1,1.45,3.1,3.62s-1.22,3.65-3.1,3.65a3.11,3.11,0,0,1-2.52-1.37v3.85Zm3-9.36a3.05,3.05,0,0,0-2.52,1.38v3.73a3,3,0,0,0,2.52,1.42c1.69,0,2.63-1.46,2.63-3.26S590.7,219,589,219Z"/><path id="Path_61044" data-name="Path 61044" class="cls-14" d="M594.08,228.38v-9.6h.43V220a3.12,3.12,0,0,1,2.52-1.33c1.89,0,3.11,1.45,3.11,3.62s-1.22,3.65-3.11,3.65a3.12,3.12,0,0,1-2.52-1.37v3.85ZM597,219a3.05,3.05,0,0,0-2.52,1.38v3.73a3,3,0,0,0,2.52,1.42c1.69,0,2.63-1.46,2.63-3.26S598.72,219,597,219Z"/></g><rect class="cls-13" x="620.89" y="205.19" width="36.63" height="36.63" rx="5.31"/><g id="Group_13232-2-2" data-name="Group 13232-2"><path id="Path_61042-2" data-name="Path 61042" class="cls-14" d="M633.19,224.88a3,3,0,0,1-2.39,1,2.32,2.32,0,1,1-.24-4.64h.24a3,3,0,0,1,2.39,1v-1.58a1.75,1.75,0,0,0-1.77-1.74h-.19a2.73,2.73,0,0,0-2.24,1.1l-.28-.27a3,3,0,0,1,2.56-1.18c1.37,0,2.4.71,2.4,2.08v5h-.44v-.87Zm0-2.16a2.8,2.8,0,0,0-2.28-1.06,2,2,0,0,0-2.08,1.8v.13a1.91,1.91,0,0,0,1.91,1.93h.17a2.73,2.73,0,0,0,2.28-1.06Z"/><path id="Path_61043-2" data-name="Path 61043" class="cls-14" d="M636,228.38v-9.6h.43V220a3.1,3.1,0,0,1,2.51-1.33c1.89,0,3.11,1.45,3.11,3.62s-1.22,3.65-3.11,3.65a3.09,3.09,0,0,1-2.51-1.37v3.85Zm2.94-9.36a3,3,0,0,0-2.51,1.38v3.73a3,3,0,0,0,2.51,1.42c1.69,0,2.64-1.46,2.64-3.26S640.63,219,638.93,219Z"/><path id="Path_61044-2" data-name="Path 61044" class="cls-14" d="M644,228.38v-9.6h.43V220a3.1,3.1,0,0,1,2.51-1.33c1.89,0,3.11,1.45,3.11,3.62s-1.22,3.65-3.11,3.65a3.09,3.09,0,0,1-2.51-1.37v3.85ZM647,219a3,3,0,0,0-2.51,1.38v3.73a3,3,0,0,0,2.51,1.42c1.7,0,2.64-1.46,2.64-3.26S648.65,219,647,219Z"/></g><g id="mobile-phone"><ellipse cx="114.99" cy="129.31" rx="0.48" ry="0.46"/><path d="M115,128.34a1,1,0,1,0,1,1,1,1,0,0,0-1-1Z"/><line class="cls-11" x1="120.2" y1="161.47" x2="125.42" y2="161.47"/><path class="cls-11" d="M133.24,158.26v3.86a1.3,1.3,0,0,1-1.3,1.29H113.7a1.3,1.3,0,0,1-1.3-1.29V128.69a1.3,1.3,0,0,1,1.3-1.28h18.24a1.29,1.29,0,0,1,1.3,1.28v.67"/><rect class="cls-11" x="112.4" y="131.26" width="20.84" height="28.29" rx="1.29"/></g><rect class="cls-5" x="263.84" y="133.76" width="181.61" height="181.28"/><polyline class="cls-15" points="382.09 200.69 382.09 208.31 327.19 208.31 327.19 200.69"/><line class="cls-16" x1="354.64" y1="221.82" x2="354.64" y2="208.57"/><path d="M342.27,170.72h3.12a1.69,1.69,0,0,1,1.88,1.7,1.5,1.5,0,0,1-1.16,1.52,1.65,1.65,0,0,1,1.29,1.64,1.74,1.74,0,0,1-1.93,1.8h-3.2Zm2.94,2.82a1,1,0,1,0,0-1.95h-1.94v1.95Zm0,3a1,1,0,0,0,1.12-1.05,1,1,0,0,0-1.12-1h-2v2.08Z"/><path d="M348.4,170.72h1v6.66h-1Z"/><path d="M353.81,170.61a3.13,3.13,0,0,1,2.64,1.31l-.81.47a2.29,2.29,0,0,0-1.83-.89,2.56,2.56,0,0,0,0,5.12,2.59,2.59,0,0,0,1.69-.66v-1.2h-2.14v-.88h3.14v2.45a3.55,3.55,0,0,1-2.69,1.18,3.45,3.45,0,1,1,0-6.9Z"/><path d="M357.1,174.57h2.4v.78h-2.4Z"/><path d="M360.29,170.72h1v6.66h-1Z"/><path d="M362.53,170.72h2.8a2,2,0,1,1,0,4.09h-1.8v2.57h-1Zm2.67.87h-1.67v2.34h1.67a1.17,1.17,0,1,0,0-2.34Z"/><path d="M349.42,185.62h-3.26l-.54,1.38h-1.1l2.65-6.66h1.24l2.65,6.66H350Zm-3-.89h2.68l-1.34-3.52Z"/><path d="M351.62,180.34h2.8a2,2,0,1,1,0,4.09h-1.8V187h-1Zm2.67.87h-1.67v2.34h1.67a1.17,1.17,0,1,0,0-2.34Z"/><path d="M363.07,181.71,360.91,187h-.42l-2.15-5.29V187h-1v-6.66h1.43l1.93,4.78,1.94-4.78h1.43V187h-1Z"/><circle class="cls-17" cx="354.64" cy="178.15" r="19.5"/><rect class="cls-5" x="280.64" y="222.38" width="148" height="74.32"/><g id="big-ip-series"><path class="cls-18" d="M355.84,247.62H299.52a1.21,1.21,0,0,0-1.2,1.22V253a1.21,1.21,0,0,0,1.2,1.22h56.32A1.21,1.21,0,0,0,357,253v-4.13A1.21,1.21,0,0,0,355.84,247.62Z"/><path class="cls-18" d="M355.84,256.19H299.52a1.21,1.21,0,0,0-1.2,1.22v7.9a1.21,1.21,0,0,0,1.2,1.21h56.32a1.21,1.21,0,0,0,1.2-1.21v-7.9A1.21,1.21,0,0,0,355.84,256.19Z"/><path class="cls-18" d="M345.82,262.1a.79.79,0,0,1-.79.8H334.94a.79.79,0,0,1-.78-.8v-.74a.78.78,0,0,1,.78-.79H345a.79.79,0,0,1,.79.79Z"/><path class="cls-18" d="M352,263.76a1.86,1.86,0,1,1,1.83-1.86A1.84,1.84,0,0,1,352,263.76Z"/><rect class="cls-19" x="316.11" y="261.17" width="0.93" height="0.94" rx="0.46"/><rect class="cls-19" x="319.45" y="261.17" width="0.93" height="0.94" rx="0.46"/><rect class="cls-19" x="322.79" y="261.17" width="0.93" height="0.94" rx="0.46"/><rect class="cls-19" x="326.13" y="261.17" width="0.93" height="0.94" rx="0.46"/><rect class="cls-19" x="329.47" y="261.17" width="0.93" height="0.94" rx="0.46"/><line class="cls-18" x1="300.12" y1="252.37" x2="355.16" y2="252.37"/></g><path d="M309.31,274.13h2.95a2.22,2.22,0,1,1,0,4.43h-2v2.91h-.91Zm2.84.82h-1.93v2.79h1.93a1.4,1.4,0,1,0,0-2.79Z"/><path d="M319.22,278c0-.93-.48-1.21-1.2-1.21a2.08,2.08,0,0,0-1.57.83v3.88h-.83v-7.34h.83v2.8a2.63,2.63,0,0,1,1.9-.9,1.49,1.49,0,0,1,1.7,1.69v3.75h-.83Z"/><path d="M321.87,282.89a.76.76,0,0,0,.79-.56l.36-.8-2.23-5.37h.9l1.77,4.35,1.76-4.35h.9l-2.66,6.39a1.59,1.59,0,0,1-1.57,1.08,2.89,2.89,0,0,1-.6-.08l.13-.75A1.17,1.17,0,0,0,321.87,282.89Z"/><path d="M326.83,280.17a2.41,2.41,0,0,0,1.75.76c.82,0,1.26-.36,1.26-.88s-.65-.77-1.37-.94c-.9-.21-1.92-.46-1.92-1.56,0-.82.71-1.52,2-1.52a2.73,2.73,0,0,1,2,.76l-.39.58a2,2,0,0,0-1.58-.67c-.73,0-1.18.33-1.18.8s.6.68,1.3.85c.92.21,2,.47,2,1.65,0,.89-.72,1.6-2.09,1.6a2.84,2.84,0,0,1-2.15-.83Z"/><path d="M331.73,274.71a.56.56,0,1,1,1.11,0,.56.56,0,1,1-1.11,0Zm.14,1.45h.83v5.31h-.83Z"/><path d="M336.58,276a2.27,2.27,0,0,1,1.95.92l-.55.51a1.59,1.59,0,0,0-1.36-.7,2.07,2.07,0,0,0,0,4.11,1.61,1.61,0,0,0,1.36-.7l.55.51a2.27,2.27,0,0,1-1.95.92,2.79,2.79,0,0,1,0-5.57Z"/><path d="M342.89,280.87a2.3,2.3,0,0,1-1.76.73,1.77,1.77,0,0,1-1.86-1.76,1.74,1.74,0,0,1,1.86-1.75,2.2,2.2,0,0,1,1.76.73v-1c0-.71-.57-1.12-1.34-1.12a2.11,2.11,0,0,0-1.63.74l-.38-.57a2.75,2.75,0,0,1,2.12-.88c1.12,0,2.06.5,2.06,1.79v3.65h-.83Zm0-1.52a1.78,1.78,0,0,0-1.46-.66,1.17,1.17,0,1,0,0,2.32,1.78,1.78,0,0,0,1.46-.66Z"/><path d="M345.26,274.13h.82v7.34h-.82Z"/><path d="M377.53,274.13h1.05l2.47,6.34,2.48-6.34h1l-3,7.34h-1.13Z"/><path d="M385.24,274.7a.56.56,0,0,1,1.12,0,.56.56,0,1,1-1.12,0Zm.15,1.46h.82v5.31h-.82Z"/><path d="M387.75,276.16h.83V277a2.25,2.25,0,0,1,1.77-1v.84a1.61,1.61,0,0,0-.33,0,1.93,1.93,0,0,0-1.44.85v3.76h-.83Z"/><path d="M391.44,280.36v-3.48h-.88v-.72h.88V274.7h.82v1.46h1.08v.72h-1.08v3.3c0,.4.18.68.54.68a.76.76,0,0,0,.56-.22l.24.62a1.33,1.33,0,0,1-1,.34A1.08,1.08,0,0,1,391.44,280.36Z"/><path d="M398,280.72a2.59,2.59,0,0,1-1.89.88,1.49,1.49,0,0,1-1.69-1.69v-3.75h.82v3.49c0,.94.47,1.21,1.19,1.21a2,2,0,0,0,1.57-.8v-3.9h.83v5.31H398Z"/><path d="M403.67,280.86a2.29,2.29,0,0,1-1.76.74,1.77,1.77,0,0,1-1.86-1.76,1.74,1.74,0,0,1,1.86-1.75,2.22,2.22,0,0,1,1.76.73v-1c0-.71-.57-1.12-1.34-1.12a2.1,2.1,0,0,0-1.63.74l-.39-.58a2.82,2.82,0,0,1,2.13-.88c1.12,0,2.05.51,2.05,1.8v3.65h-.82Zm0-1.51a1.78,1.78,0,0,0-1.46-.66,1.17,1.17,0,1,0,0,2.32,1.78,1.78,0,0,0,1.46-.66Z"/><path d="M406,274.13h.83v7.34H406Z"/><circle class="cls-20" cx="392.56" cy="252.69" r="16.2"/><path d="M382.28,246.54h2.6a1.41,1.41,0,0,1,1.56,1.41,1.25,1.25,0,0,1-1,1.27,1.37,1.37,0,0,1,1.07,1.36,1.45,1.45,0,0,1-1.6,1.5h-2.66Zm2.44,2.35a.81.81,0,1,0,0-1.62h-1.61v1.62Zm0,2.46a.84.84,0,0,0,.93-.88.85.85,0,0,0-.93-.85h-1.65v1.73Z"/><path d="M387.37,246.54h.83v5.54h-.83Z"/><path d="M391.87,246.45a2.59,2.59,0,0,1,2.19,1.09l-.67.39a1.9,1.9,0,0,0-1.52-.74,2.13,2.13,0,0,0,0,4.26,2.11,2.11,0,0,0,1.4-.55v-1H391.5v-.73h2.6v2a3,3,0,0,1-2.23,1,2.87,2.87,0,1,1,0-5.73Z"/><path d="M394.6,249.74h2v.65h-2Z"/><path d="M397.25,246.54h.83v5.54h-.83Z"/><path d="M399.11,246.54h2.33a1.7,1.7,0,1,1,0,3.4h-1.5v2.14h-.83Zm2.22.73h-1.39v1.94h1.39a1,1,0,1,0,0-1.94Z"/><path d="M387.56,254.2h.94l1.77,4.63,1.78-4.63H393l-2.2,5.53h-1Z"/><path d="M393.46,254.2h3.71v.73h-2.88v1.62h2.83v.73h-2.83V259h2.88v.73h-3.71Z"/><circle class="cls-21" cx="263.86" cy="279.22" r="5.85"/><line class="cls-22" x1="266.52" y1="275.96" x2="261.24" y2="282.48"/><line class="cls-22" x1="261.14" y1="275.96" x2="266.42" y2="282.48"/><path d="M286,110.33a2,2,0,0,0,1.49.63c.55,0,.81-.25.81-.52s-.4-.47-.94-.6c-.77-.17-1.75-.38-1.75-1.42,0-.78.67-1.41,1.77-1.41a2.61,2.61,0,0,1,1.83.65l-.56.73a2,2,0,0,0-1.34-.51c-.44,0-.68.19-.68.47s.39.42.93.54c.77.18,1.75.41,1.75,1.44,0,.86-.61,1.5-1.87,1.5a2.64,2.64,0,0,1-2-.74Z"/><path d="M290.09,107.4a.53.53,0,1,1,.53.53A.53.53,0,0,1,290.09,107.4Zm.09,1h.89v3.38h-.89Z"/><path d="M294.41,109.7a.55.55,0,0,0-.63-.63,1,1,0,0,0-.77.4v2.28h-.89v-3.38H293v.44a1.56,1.56,0,0,1,1.19-.53,1,1,0,0,1,1.1,1.08v2.39h-.89Z"/><path d="M296.69,112a1.36,1.36,0,0,0,1.06.42.82.82,0,0,0,.93-.85v-.34a1.32,1.32,0,0,1-1,.53c-.85,0-1.49-.6-1.49-1.73a1.52,1.52,0,0,1,1.49-1.72,1.3,1.3,0,0,1,1,.52v-.43h.9v3.15c0,1.29-1,1.6-1.83,1.6a2.07,2.07,0,0,1-1.46-.5Zm2-2.51a.94.94,0,0,0-.76-.39.94.94,0,0,0,0,1.87,1,1,0,0,0,.76-.39Z"/><path d="M300.63,107.08h.89v4.67h-.89Z"/><path d="M304.12,108.28a1.7,1.7,0,0,1,1.69,1.86v.2H303.3a.9.9,0,0,0,1,.78,1.35,1.35,0,0,0,.9-.33l.4.57a2.11,2.11,0,0,1-1.4.47,1.78,1.78,0,0,1-.05-3.55Zm-.84,1.46H305a.78.78,0,0,0-.83-.75A.82.82,0,0,0,303.28,109.74Z"/><path d="M308.63,110.33a2,2,0,0,0,1.49.63c.54,0,.81-.25.81-.52s-.41-.47-.95-.6c-.76-.17-1.74-.38-1.74-1.42,0-.78.67-1.41,1.77-1.41a2.58,2.58,0,0,1,1.82.65l-.55.73a2,2,0,0,0-1.34-.51c-.45,0-.69.19-.69.47s.4.42.94.54c.77.18,1.75.41,1.75,1.44,0,.86-.61,1.5-1.87,1.5a2.68,2.68,0,0,1-2-.74Z"/><path d="M312.69,107.4a.54.54,0,0,1,.54-.53.53.53,0,1,1,0,1.06A.54.54,0,0,1,312.69,107.4Zm.1,1h.88v3.38h-.88Z"/><path d="M315.06,112a1.35,1.35,0,0,0,1.06.42.82.82,0,0,0,.93-.85v-.34a1.34,1.34,0,0,1-1,.53c-.85,0-1.5-.6-1.5-1.73a1.52,1.52,0,0,1,1.5-1.72,1.31,1.31,0,0,1,1,.52v-.43h.9v3.15c0,1.29-1,1.6-1.83,1.6a2.07,2.07,0,0,1-1.46-.5Zm2-2.51a1,1,0,0,0-.76-.39.94.94,0,0,0,0,1.87,1,1,0,0,0,.76-.39Z"/><path d="M321.29,109.7a.55.55,0,0,0-.63-.63,1,1,0,0,0-.77.4v2.28H319v-3.38h.89v.44a1.56,1.56,0,0,1,1.19-.53,1,1,0,0,1,1.09,1.08v2.39h-.88Z"/><path d="M323.1,109.68h1.68v.75H323.1Z"/><path d="M328.08,107a2.42,2.42,0,1,1-2.44,2.42A2.35,2.35,0,0,1,328.08,107Zm0,.88a1.54,1.54,0,1,0,1.42,1.54A1.41,1.41,0,0,0,328.08,107.88Z"/><path d="M333.72,109.7a.55.55,0,0,0-.63-.63,1,1,0,0,0-.77.4v2.28h-.89v-3.38h.89v.44a1.56,1.56,0,0,1,1.19-.53,1,1,0,0,1,1.09,1.08v2.39h-.88Z"/><path d="M295.75,117.33a2,2,0,0,0,1.48.63c.55,0,.81-.25.81-.52s-.4-.47-.94-.6c-.77-.17-1.75-.38-1.75-1.42,0-.78.67-1.41,1.77-1.41a2.61,2.61,0,0,1,1.83.65l-.56.73a2,2,0,0,0-1.34-.51c-.44,0-.68.19-.68.47s.39.42.93.54c.77.18,1.75.41,1.75,1.44,0,.86-.61,1.5-1.87,1.5a2.64,2.64,0,0,1-2-.74Z"/><path d="M302.87,117.94h-2.09l-.3.81h-1.09l1.81-4.67h1.24l1.8,4.67h-1.08Zm-1.83-.86h1.55l-.77-2.14Z"/><path d="M309,115.39l-1.32,3.36h-.43l-1.32-3.36v3.36h-1v-4.67h1.39l1.14,2.91,1.13-2.91H310v4.67h-1Z"/><path d="M311.14,114.08h1v3.79h2v.88h-3Z"/><path d="M316.3,113.94h.64l-1.66,5h-.64Z"/><path d="M319.94,114a2.42,2.42,0,1,1-2.44,2.42A2.35,2.35,0,0,1,319.94,114Zm0,.88a1.54,1.54,0,1,0,1.42,1.54A1.42,1.42,0,0,0,319.94,114.88Z"/><path d="M323.32,114.08h1v4.67h-1Z"/><path d="M325.47,114.08h1.84a2.34,2.34,0,1,1,0,4.67h-1.84Zm1.84,3.79a1.4,1.4,0,0,0,1.47-1.45,1.37,1.37,0,0,0-1.47-1.47h-.84v2.92Z"/><path d="M330.47,116.42a2.37,2.37,0,0,1,2.45-2.42,2.15,2.15,0,0,1,2,1.14l-.85.42a1.29,1.29,0,0,0-1.14-.68,1.54,1.54,0,0,0,0,3.07,1.27,1.27,0,0,0,1.14-.68l.85.41a2.14,2.14,0,0,1-2,1.15A2.37,2.37,0,0,1,330.47,116.42Z"/><line class="cls-7" x1="341.67" y1="123.07" x2="341.67" y2="102.85"/><line class="cls-7" x1="347.36" y1="112.96" x2="341.67" y2="112.96"/></g></g></svg>