<svg width="42" height="42" viewBox="0 0 42 42" fill="none" xmlns="http://www.w3.org/2000/svg">
<rect opacity="0.05" width="42" height="42" rx="3" fill="#4F73FF"/>
<path fill-rule="evenodd" clip-rule="evenodd" d="M11 10C11 9.44772 11.4477 9 12 9H30C30.5523 9 31 9.44772 31 10V32C31 32.5523 30.5523 33 30 33H12C11.4477 33 11 32.5523 11 32V10ZM21 25H28V27H21V25ZM21 20V22H26V20H21ZM21 15H28V17H21V15ZM19.4142 15L18 13.5858L16 15.5858L15 14.5858L13.5858 16L16 18.4142L19.4142 15ZM19.4142 20L16 23.4142L13.5858 21L15 19.5858L16 20.5858L18 18.5858L19.4142 20ZM19.4142 25L18 23.5858L16 25.5858L15 24.5858L13.5858 26L16 28.4142L19.4142 25Z" fill="#4F73FF"/>
</svg>
