<svg width="42" height="42" viewBox="0 0 42 42" fill="none" xmlns="http://www.w3.org/2000/svg">
<path opacity="0.05" d="M39 0H3C1.34315 0 0 1.34315 0 3V39C0 40.6569 1.34315 42 3 42H39C40.6569 42 42 40.6569 42 39V3C42 1.34315 40.6569 0 39 0Z" fill="#4F73FF"/>
<path d="M29.733 20.6404L20.9999 24.6677L12.2668 20.6404C11.7705 21.7916 11.495 23.5463 11.495 24.8775L20.9999 29.274L30.5048 24.8775C30.5048 23.5463 30.2293 21.7916 29.733 20.6404Z" fill="#4F73FF"/>
<path d="M32.4766 26.7929H34V18.6727L32.4766 19.3752V26.7929Z" fill="#4F73FF"/>
<path d="M21 22.9901L34 16.995L21 11L8 16.995L21 22.9901Z" fill="#4F73FF"/>
</svg>
