<svg xmlns="http://www.w3.org/2000/svg" width="42" height="42" viewBox="0 0 42 42">
    <defs>
        <linearGradient id="prefix__a" x1="49.339%" x2="53.796%" y1="29.674%" y2="111.145%">
            <stop offset="0%" stop-color="#1ACB9A"/>
            <stop offset="100%" stop-color="#189A6B"/>
        </linearGradient>
        <linearGradient id="prefix__b" x1="13.054%" x2="121.508%" y1="38.29%" y2="72.663%">
            <stop offset="0%" stop-color="#1ACB9A"/>
            <stop offset="100%" stop-color="#094434"/>
        </linearGradient>
        <linearGradient id="prefix__c" x1="49.81%" x2="51.092%" y1="29.674%" y2="111.145%">
            <stop offset="0%" stop-color="#1ACB9A"/>
            <stop offset="100%" stop-color="#189A6B"/>
        </linearGradient>
        <linearGradient id="prefix__d" x1="13.054%" x2="121.508%" y1="38.315%" y2="72.614%">
            <stop offset="0%" stop-color="#1ACB9A"/>
            <stop offset="100%" stop-color="#094434"/>
        </linearGradient>
        <linearGradient id="prefix__e" x1="49.685%" x2="51.812%" y1="29.674%" y2="111.145%">
            <stop offset="0%" stop-color="#1ACB9A"/>
            <stop offset="100%" stop-color="#189A6B"/>
        </linearGradient>
        <linearGradient id="prefix__f" x1="13.054%" x2="121.508%" y1="38.487%" y2="72.28%">
            <stop offset="0%" stop-color="#1ACB9A"/>
            <stop offset="100%" stop-color="#094434"/>
        </linearGradient>
    </defs>
    <g fill="none" fill-rule="evenodd">
        <rect width="42" height="42" fill="#F7F8FA" rx="3"/>
        <g>
            <path fill="url(#prefix__a)" d="M17.399 19.937L21.948 22.425 22.081 13.864 17.532 11.376z" transform="translate(6 8) rotate(30 19.74 16.9)"/>
            <path fill="#064C33" d="M21.344 24.672L25.786 22.187 25.92 13.626 21.478 16.111z" transform="translate(6 8) rotate(30 23.632 19.15)"/>
            <path fill="url(#prefix__b)" d="M19.975 13.309L24.6 15.744 28.966 13.306 24.524 10.821z" transform="translate(6 8) scale(1 -1) rotate(-30 -25.101 0)"/>
            <path fill="url(#prefix__c)" d="M12.682 20.57L17.231 23.058 17.525 4.238 12.976 1.75z" transform="translate(6 8) rotate(30 15.104 12.404)"/>
            <path fill="#064C33" d="M16.628 25.305L21.07 22.82 21.364 4.001 16.922 6.485z" transform="translate(6 8) rotate(30 18.996 14.653)"/>
            <path fill="url(#prefix__d)" d="M17.971 4.416L22.597 6.846 26.962 4.412 22.52 1.928z" transform="translate(6 8) scale(1 -1) rotate(-30 6.095 0)"/>
            <path fill="url(#prefix__e)" d="M3.953 20.018L8.502 22.506 8.717 8.723 4.168 6.235z" transform="translate(6 8) rotate(30 6.335 14.37)"/>
            <path fill="#064C33" d="M7.899 24.753L12.341 22.269 12.556 8.485 8.114 10.97z" transform="translate(6 8) rotate(30 10.227 16.62)"/>
            <path fill="url(#prefix__f)" d="M7.901 8.577L12.525 10.97 16.891 8.574 12.449 6.089z" transform="translate(6 8) scale(1 -1) rotate(-30 -19.438 0)"/>
        </g>
    </g>
</svg>
