<?xml version="1.0" encoding="utf-8"?>
<!-- Generator: Adobe Illustrator 24.1.3, SVG Export Plug-In . SVG Version: 6.00 Build 0)  -->
<svg version="1.1" id="Layer_1" xmlns="http://www.w3.org/2000/svg" xmlns:xlink="http://www.w3.org/1999/xlink" x="0px" y="0px"
	 viewBox="0 0 42 42" style="enable-background:new 0 0 42 42;" xml:space="preserve">
<style type="text/css">
	.st0{fill-rule:evenodd;clip-rule:evenodd;fill:#FFFFFF;}
	.st1{fill-rule:evenodd;clip-rule:evenodd;fill:#4432A4;}
	.st2{fill-rule:evenodd;clip-rule:evenodd;fill:#9F91E5;}
	.st3{fill-rule:evenodd;clip-rule:evenodd;fill:#33228B;}
	.st4{fill-rule:evenodd;clip-rule:evenodd;fill:#4C3AAB;}
	.st5{fill-rule:evenodd;clip-rule:evenodd;fill:#B5AAED;}
	.st6{fill-rule:evenodd;clip-rule:evenodd;fill:#6654C2;}
	.st7{fill-rule:evenodd;clip-rule:evenodd;fill:url(#SVGID_1_);}
</style>
<g>
	<path class="st0" d="M3,0h36c1.7,0,3,1.3,3,3v36c0,1.7-1.3,3-3,3H3c-1.7,0-3-1.3-3-3V3C0,1.3,1.3,0,3,0z"/>
	<g>
		<path class="st1" d="M12.1,24.7l1.7,1.5l-1.3,1.5l-1.7-1.5L12.1,24.7z"/>
		<path class="st2" d="M16.9,28.8l1.7,1.5l-1.3,1.5l-1.7-1.5L16.9,28.8z"/>
		<path class="st3" d="M34,16.8c0,0-3.1,14.9-20,12.3c0,0-1.1,0-1.9-1.1c-0.4-0.6-0.2-1.8-0.2-1.8s4.5,0.9,9.2-0.6
			c3.8-1.2,7.6-3.7,10.9-9.9C32,15.8,34,16.8,34,16.8z"/>
		<path class="st3" d="M21.4,7.7c0,0-11.4,8.5-7.2,21.7c0,0,0.4,1.1,1.5,1.7c0.6,0.3,1.4,0,1.4,0s-3.5-12.5,5.7-21.6L21.4,7.7
			L21.4,7.7z"/>
		<path class="st4" d="M14.7,22l2.1-1.8l-0.9-1.1c0,0-2.2,1.5-3.5,3.1L14.7,22L14.7,22z"/>
		<path class="st5" d="M21.5,29.9l-0.3-2.4l1.5-2.4l1.2,0.7C23.9,25.9,22.7,28.3,21.5,29.9"/>
		<path class="st6" d="M14.7,22c0,0,3,3.6,6.5,5.5l0.3,2.4c0,0-5.2-2.2-9.1-7.6L14.7,22L14.7,22z M12.5,13.9c0,0-0.9,1.7-0.6,3.1
			l-1.5,1.5c0,0-1.5-3.6,0.2-6.4L12.5,13.9L12.5,13.9z"/>
		<path class="st4" d="M12.5,13.9l0.4-0.2c0,0-0.1-1.7,0.4-3.3c0,0-1.3,0.3-2.7,1.7L12.5,13.9L12.5,13.9z"/>
		<path class="st6" d="M16.9,13.2c0,0-0.5-0.9-0.1-2.2l-1.2-1.6c0,0-1,2.1,0.1,4.6L16.9,13.2L16.9,13.2z"/>
		<path class="st4" d="M16.8,11c0,0,1.9-0.6,4.5-0.1l2.3-0.7c0,0-3.6-1.9-8.1-0.7L16.8,11z M18,17.5l2-0.1c0,0,3.8-2,5.7-2.3l1.6-2
			C27.3,13.2,23.4,14,18,17.5"/>
		<path class="st6" d="M18,17.5c0,0,2.9,3.8,7.2,5.7l-0.5-2c0,0-2-1-4.7-3.8C20,17.4,18,17.5,18,17.5z"/>
		<path class="st5" d="M25.7,15.1c0,0,0.1,3.2-1,6.1l0.5,2c0,0,2.6-6.7,2.1-10.1C27.3,13.2,25.7,15.1,25.7,15.1z"/>
		<path class="st6" d="M26.6,29.5c0,0,2,0.6,4.2-0.5l1.4,1c0,0-2.6,2.3-6.7,1.2L26.6,29.5z"/>
		<path class="st5" d="M30.8,29c0,0,0.3-0.6,0.7-1.4c0,0,1.6-0.4,2.6-1.4c0,0-0.2,1.6-1.9,3.8"/>
		<path class="st6" d="M29.7,22.9c0,0,1.5,0.5,2.9-0.1l1.8,1.1c0,0-2.2,1.6-5.4,0.6C29,24.6,29.7,22.9,29.7,22.9z"/>
		<path class="st5" d="M32.6,22.9c0,0-0.2-2.4-1.7-4.3l0.4-2.9c0,0,2.7,2.8,3.2,8.4L32.6,22.9L32.6,22.9z"/>
		
			<radialGradient id="SVGID_1_" cx="-279.4317" cy="433.8655" r="0.765" gradientTransform="matrix(-17.3781 22.1599 22.1596 17.3778 -14447.9697 -1334.4374)" gradientUnits="userSpaceOnUse">
			<stop  offset="0" style="stop-color:#A69AE5"/>
			<stop  offset="1" style="stop-color:#7869C4"/>
		</radialGradient>
		<path class="st7" d="M27.6,27.7c4.6,0.7,6.6-1.4,6.6-1.4c-0.5,2-1.9,3.8-1.9,3.8c-2.9,2.3-6.7,1.2-6.7,1.2
			C26.6,29.7,27.6,27.7,27.6,27.7z M34.4,24c-2.8,1.6-5.4,0.5-5.4,0.5c1.9-4,2.2-9,2.2-9C34.1,18.8,34.4,24,34.4,24z M15.9,19.1
			c3.8,4.6,8,6.7,8,6.7c-0.8,1.7-2.4,4-2.4,4c-5.5-2.5-9.1-7.6-9.1-7.6C13.8,20.7,15.9,19.1,15.9,19.1L15.9,19.1z M15.6,9.4
			c4.5-1.2,8.1,0.7,8.1,0.7c-3.8,0.8-8,3.9-8,3.9C14.6,11.5,15.6,9.4,15.6,9.4z M10.6,12.2l0.1-0.1l0.1-0.1c0,0,1.4-1.1,2.5-1.6
			c0,0-1,2.9,0,5.3c0,0-1.8,1.4-2.9,2.8C10.5,18.5,9.2,14.7,10.6,12.2L10.6,12.2z M25.2,23.2C21,21.3,18,17.5,18,17.5
			c4.8-3.2,9.3-4.4,9.3-4.4C27.6,17.3,25.2,23.2,25.2,23.2L25.2,23.2z M31.6,12.7c0.8,0.1,1.9,1.2,1.9,1.2l-1.8-2.7
			c-1-1-1.7-1.3-1.7-1.3c-0.7-0.9-1.7-1.5-1.7-1.5l-3.3-1.5c1.3,0.7,1.6,1.9,1.6,1.9c-6.2-2.4-9.4-1.3-12.8,0.7c-3.5,2-4.8,5-4.8,5
			C7.3,18.1,8.4,21,8.4,21c-1.8,2.4-1,4.7-1,4.7l2.2,3.7c-0.4-0.6-0.5-1.3-0.4-2c0.3-1.6,1.7-3.2,1.7-3.2c4.3,5.9,9.1,7.6,9.1,7.6
			c-2.2,2.4-4.2,2.3-5,2.2c0.8,0.3,1.5,0.6,1.9,0.7c0.4,0.1,1,0.3,1.9,0.5c2.7,0.3,4.9-1.9,4.9-1.9c4.5,1.1,6.7-0.8,6.7-0.8
			c5.9-5.8,5.2-10.6,5.2-10.6C35.6,16.9,31.6,12.7,31.6,12.7L31.6,12.7z"/>
		<path class="st4" d="M12.2,25.8c0,0-1.5,2.8,2,3.4l-1.4,1.6c0,0-1.8,0.5-3.3-1.4s1.3-5.2,1.3-5.2S12.2,25.8,12.2,25.8z"/>
		<path class="st5" d="M21.4,7.6c0,0,2.5,0.3,5,1.3c0,0-0.4-1.3-1.6-2C24.8,6.9,23.2,6.3,21.4,7.6z"/>
		<path class="st4" d="M34,16.1c0,0,0.4-1-0.5-2.3c0,0-1.1-1.1-1.9-1.2C31.6,12.7,32.9,14.1,34,16.1z"/>
		<path class="st5" d="M12.9,30.8c0,0-0.3,1.7,1.8,3c0,0,2.4,1.3,5.3-2c0,0-1.1-0.4-2.5-1.3c0,0-2.1,1-3.3-1.3
			C14.2,29.2,12.9,30.8,12.9,30.8z M22,34.4c0,0,4.5,1.5,8.3-2c0,0-2.2,1.8-6.7,0.8C23.7,33.2,22.5,34.2,22,34.4"/>
		<path class="st4" d="M9.4,13.5c0,0-3.4,5.1-1.8,8.8c0,0,0.3-0.7,0.8-1.4C8.4,20.9,7.1,17.5,9.4,13.5"/>
	</g>
</g>
</svg>
