<?xml version="1.0" encoding="utf-8"?>
<!-- Generator: Adobe Illustrator 24.1.3, SVG Export Plug-In . SVG Version: 6.00 Build 0)  -->
<svg version="1.1" id="Layer_1" xmlns="http://www.w3.org/2000/svg" xmlns:xlink="http://www.w3.org/1999/xlink" x="0px" y="0px"
	 viewBox="0 0 42 42" style="enable-background:new 0 0 42 42;" xml:space="preserve">
<style type="text/css">
	.st0{fill-rule:evenodd;clip-rule:evenodd;fill:#FFFFFF;}
	.st1{fill-rule:evenodd;clip-rule:evenodd;fill:#4C3AAB;}
	.st2{fill-rule:evenodd;clip-rule:evenodd;fill:#B5AAED;}
	.st3{fill-rule:evenodd;clip-rule:evenodd;fill:#9B8EDD;}
	.st4{fill-rule:evenodd;clip-rule:evenodd;fill:url(#Path-25-Copy-860_1_);}
	.st5{fill-rule:evenodd;clip-rule:evenodd;fill:url(#Path-25-Copy-861_1_);}
	.st6{fill-rule:evenodd;clip-rule:evenodd;fill:url(#Path-25-Copy-862_1_);}
	.st7{fill-rule:evenodd;clip-rule:evenodd;fill:url(#Path-25-Copy-854_1_);}
	.st8{fill-rule:evenodd;clip-rule:evenodd;fill:url(#Path-25-Copy-855_1_);}
	.st9{fill-rule:evenodd;clip-rule:evenodd;fill:url(#Path-25-Copy-856_1_);}
	.st10{fill-rule:evenodd;clip-rule:evenodd;fill:url(#Path-25-Copy-848_1_);}
	.st11{fill-rule:evenodd;clip-rule:evenodd;fill:url(#Path-25-Copy-849_1_);}
	.st12{fill-rule:evenodd;clip-rule:evenodd;fill:url(#Path-25-Copy-850_1_);}
	.st13{fill-rule:evenodd;clip-rule:evenodd;fill:url(#Path-25-Copy-829_1_);}
	.st14{fill-rule:evenodd;clip-rule:evenodd;fill:url(#Path-25-Copy-830_1_);}
	.st15{fill-rule:evenodd;clip-rule:evenodd;fill:url(#Path-25-Copy-831_1_);}
	.st16{fill-rule:evenodd;clip-rule:evenodd;fill:url(#Path-15-Copy-2_1_);}
	.st17{fill-rule:evenodd;clip-rule:evenodd;fill:url(#Path-12-Copy-42_1_);}
	.st18{fill-rule:evenodd;clip-rule:evenodd;fill:url(#Path-12-Copy-43_1_);}
	.st19{fill-rule:evenodd;clip-rule:evenodd;fill:url(#Combined-Shape_1_);}
	.st20{fill-rule:evenodd;clip-rule:evenodd;fill:url(#Path-12-Copy-44_1_);}
	.st21{fill-rule:evenodd;clip-rule:evenodd;fill:url(#Path-12-Copy-45_1_);}
</style>
<desc>Created with Sketch.</desc>
<g id="Page-1">
	<g id="product-dropdown-updated" transform="translate(-946.000000, -133.000000)">
		<g id="Group-9" transform="translate(946.000000, 132.000000)">
			<g id="Group-5">
				<path id="Rectangle-Copy-18" class="st0" d="M3,1h36c1.7,0,3,1.3,3,3v36c0,1.7-1.3,3-3,3H3c-1.7,0-3-1.3-3-3V4C0,2.3,1.3,1,3,1z
					"/>
				
					<g id="Group-23" transform="translate(21.500000, 22.000000) rotate(40.000000) translate(-21.500000, -22.000000) translate(7.000000, 6.000000)">
					<g id="Group-2-Copy-25" transform="translate(8.064000, 7.488000)">
						<polygon id="Path-25-Copy-857" class="st1" points="5.9,6.9 5.9,13.3 11.7,9.9 11.7,3.4 						"/>
						<polygon id="Path-25-Copy-858" class="st2" points="5.9,6.9 5.9,13.3 0,9.9 0,3.4 						"/>
						<polygon id="Path-25-Copy-859" class="st3" points="11.7,3.4 5.9,6.9 0,3.4 5.8,0 						"/>
						
							<radialGradient id="Path-25-Copy-860_1_" cx="108.2218" cy="497.3891" r="1.0491" gradientTransform="matrix(5.6838 0.4991 0.1204 -5.6382 -668.7104 2757.4702)" gradientUnits="userSpaceOnUse">
							<stop  offset="0" style="stop-color:#118D9D"/>
							<stop  offset="1" style="stop-color:#0A707D"/>
						</radialGradient>
						<polygon id="Path-25-Copy-860" class="st4" points="5.9,6.9 5.9,13.3 11.7,9.9 11.7,3.4 						"/>
						
							<linearGradient id="Path-25-Copy-861_1_" gradientUnits="userSpaceOnUse" x1="-38.6441" y1="550.6595" x2="-38.9311" y2="549.7882" gradientTransform="matrix(-4.4891 -6.3302 3.7668 -7.5441 -2245.542 3914.1396)">
							<stop  offset="0" style="stop-color:#34D3E7"/>
							<stop  offset="1" style="stop-color:#26B2C4"/>
						</linearGradient>
						<polygon id="Path-25-Copy-861" class="st5" points="5.9,6.9 5.9,13.3 0,9.9 0,3.4 						"/>
						
							<linearGradient id="Path-25-Copy-862_1_" gradientUnits="userSpaceOnUse" x1="-11.4834" y1="521.6916" x2="-12.2938" y2="521.3902" gradientTransform="matrix(-8.9783 -4.4312 7.5337 -5.2808 -4033.1277 2706.302)">
							<stop  offset="0" style="stop-color:#21BBCE"/>
							<stop  offset="1" style="stop-color:#169DAE"/>
						</linearGradient>
						<polygon id="Path-25-Copy-862" class="st6" points="11.7,3.4 5.9,6.9 0,3.4 5.8,0 						"/>
					</g>
					<g id="Group-2-Copy-24" transform="translate(16.704000, 12.672000)">
						<polygon id="Path-25-Copy-851" class="st1" points="5.9,6.9 5.9,13.3 11.7,9.9 11.7,3.4 						"/>
						<polygon id="Path-25-Copy-852" class="st2" points="5.9,6.9 5.9,13.3 0,9.9 0,3.4 						"/>
						<polygon id="Path-25-Copy-853" class="st3" points="11.7,3.4 5.9,6.9 0,3.4 5.8,0 						"/>
						
							<radialGradient id="Path-25-Copy-854_1_" cx="99.5818" cy="492.2051" r="1.0491" gradientTransform="matrix(5.6838 0.4991 0.1204 -5.6382 -618.9786 2732.554)" gradientUnits="userSpaceOnUse">
							<stop  offset="0" style="stop-color:#118D9D"/>
							<stop  offset="1" style="stop-color:#0A707D"/>
						</radialGradient>
						<polygon id="Path-25-Copy-854" class="st7" points="5.9,6.9 5.9,13.3 11.7,9.9 11.7,3.4 						"/>
						
							<linearGradient id="Path-25-Copy-855_1_" gradientUnits="userSpaceOnUse" x1="-47.2841" y1="545.4755" x2="-47.5711" y2="544.6042" gradientTransform="matrix(-4.4891 -6.3302 3.7668 -7.5441 -2264.8008 3820.3381)">
							<stop  offset="0" style="stop-color:#34D3E7"/>
							<stop  offset="1" style="stop-color:#26B2C4"/>
						</linearGradient>
						<polygon id="Path-25-Copy-855" class="st8" points="5.9,6.9 5.9,13.3 0,9.9 0,3.4 						"/>
						
							<linearGradient id="Path-25-Copy-856_1_" gradientUnits="userSpaceOnUse" x1="-20.1234" y1="516.5076" x2="-20.9338" y2="516.2062" gradientTransform="matrix(-8.9783 -4.4312 7.5337 -5.2808 -4071.6453 2640.6409)">
							<stop  offset="0" style="stop-color:#21BBCE"/>
							<stop  offset="1" style="stop-color:#169DAE"/>
						</linearGradient>
						<polygon id="Path-25-Copy-856" class="st9" points="11.7,3.4 5.9,6.9 0,3.4 5.8,0 						"/>
					</g>
					<g id="Group-2-Copy-23" transform="translate(-0.000000, 12.384000)">
						<polygon id="Path-25-Copy-845" class="st1" points="5.9,6.9 5.9,13.3 11.7,9.9 11.7,3.4 						"/>
						<polygon id="Path-25-Copy-846" class="st2" points="5.9,6.9 5.9,13.3 0,9.9 0,3.4 						"/>
						<polygon id="Path-25-Copy-847" class="st3" points="11.7,3.4 5.9,6.9 0,3.4 5.8,0 						"/>
						
							<radialGradient id="Path-25-Copy-848_1_" cx="116.2332" cy="492.5385" r="1.0491" gradientTransform="matrix(5.6838 0.4991 0.1204 -5.6382 -714.0684 2726.1145)" gradientUnits="userSpaceOnUse">
							<stop  offset="0" style="stop-color:#118D9D"/>
							<stop  offset="1" style="stop-color:#0A707D"/>
						</radialGradient>
						<polygon id="Path-25-Copy-848" class="st10" points="5.9,6.9 5.9,13.3 11.7,9.9 11.7,3.4 						"/>
						
							<linearGradient id="Path-25-Copy-849_1_" gradientUnits="userSpaceOnUse" x1="-30.5801" y1="545.7635" x2="-30.8671" y2="544.8922" gradientTransform="matrix(-4.4891 -6.3302 3.7668 -7.5441 -2190.8992 3928.251)">
							<stop  offset="0" style="stop-color:#34D3E7"/>
							<stop  offset="1" style="stop-color:#26B2C4"/>
						</linearGradient>
						<polygon id="Path-25-Copy-849" class="st11" points="5.9,6.9 5.9,13.3 0,9.9 0,3.4 						"/>
						
							<linearGradient id="Path-25-Copy-850_1_" gradientUnits="userSpaceOnUse" x1="-3.4194" y1="516.7956" x2="-4.2298" y2="516.4941" gradientTransform="matrix(-8.9783 -4.4312 7.5337 -5.2808 -3923.842 2716.1797)">
							<stop  offset="0" style="stop-color:#21BBCE"/>
							<stop  offset="1" style="stop-color:#169DAE"/>
						</linearGradient>
						<polygon id="Path-25-Copy-850" class="st12" points="11.7,3.4 5.9,6.9 0,3.4 5.8,0 						"/>
					</g>
					<g id="Group-2-Copy-22" transform="translate(8.640000, 17.568000)">
						<polygon id="Path-25-Copy-826" class="st1" points="5.9,6.9 5.9,13.3 11.7,9.9 11.7,3.4 						"/>
						<polygon id="Path-25-Copy-827" class="st2" points="5.9,6.9 5.9,13.3 0,9.9 0,3.4 						"/>
						<polygon id="Path-25-Copy-828" class="st3" points="11.7,3.4 5.9,6.9 0,3.4 5.8,0 						"/>
						
							<radialGradient id="Path-25-Copy-829_1_" cx="107.6523" cy="487.3235" r="1.0491" gradientTransform="matrix(5.6838 0.4991 0.1204 -5.6382 -664.2871 2700.8533)" gradientUnits="userSpaceOnUse">
							<stop  offset="0" style="stop-color:#118D9D"/>
							<stop  offset="1" style="stop-color:#0A707D"/>
						</radialGradient>
						<polygon id="Path-25-Copy-829" class="st13" points="5.9,6.9 5.9,13.3 11.7,9.9 11.7,3.4 						"/>
						
							<linearGradient id="Path-25-Copy-830_1_" gradientUnits="userSpaceOnUse" x1="-39.2201" y1="540.5795" x2="-39.5071" y2="539.7082" gradientTransform="matrix(-4.4891 -6.3302 3.7668 -7.5441 -2210.1582 3834.4495)">
							<stop  offset="0" style="stop-color:#34D3E7"/>
							<stop  offset="1" style="stop-color:#26B2C4"/>
						</linearGradient>
						<polygon id="Path-25-Copy-830" class="st14" points="5.9,6.9 5.9,13.3 0,9.9 0,3.4 						"/>
						
							<linearGradient id="Path-25-Copy-831_1_" gradientUnits="userSpaceOnUse" x1="-12.0594" y1="511.6116" x2="-12.8698" y2="511.3102" gradientTransform="matrix(-8.9783 -4.4312 7.5337 -5.2808 -3962.3599 2650.5186)">
							<stop  offset="0" style="stop-color:#21BBCE"/>
							<stop  offset="1" style="stop-color:#169DAE"/>
						</linearGradient>
						<polygon id="Path-25-Copy-831" class="st15" points="11.7,3.4 5.9,6.9 0,3.4 5.8,0 						"/>
					</g>
					<g id="Group-22-Copy-2" transform="translate(3.744000, -0.000000)">
						
							<linearGradient id="Path-15-Copy-2_1_" gradientUnits="userSpaceOnUse" x1="183.6196" y1="366.5956" x2="183.5162" y2="365.7243" gradientTransform="matrix(1.6547 -3.8876 -1.3884 -4.633 207.1312 2416.46)">
							<stop  offset="0" style="stop-color:#34D3E7"/>
							<stop  offset="1" style="stop-color:#26B2C4"/>
						</linearGradient>
						<path id="Path-15-Copy-2" class="st16" d="M0.8,3.4l0,4c0.1,0.8,0.8,1.5,2.2,2c0,0-0.1-1.2-0.2-3.5L0.8,3.4z"/>
						
							<radialGradient id="Path-12-Copy-42_1_" cx="135.048" cy="494.4286" r="0.9899" gradientTransform="matrix(4.3915 9.380677e-02 -0.1948 -4.3372 -489.0533 2138.0396)" gradientUnits="userSpaceOnUse">
							<stop  offset="0" style="stop-color:#118D9D"/>
							<stop  offset="1" style="stop-color:#0A707D"/>
						</radialGradient>
						<polygon id="Path-12-Copy-42" class="st17" points="7.4,6.4 7.4,10.4 11.9,7.7 11.9,3.8 						"/>
						
							<linearGradient id="Path-12-Copy-43_1_" gradientUnits="userSpaceOnUse" x1="-86.6211" y1="592.519" x2="-86.8755" y2="591.6478" gradientTransform="matrix(-2.5008 -3.7456 2.0984 -4.4638 -1446.7642 2324.9011)">
							<stop  offset="0" style="stop-color:#34D3E7"/>
							<stop  offset="1" style="stop-color:#26B2C4"/>
						</linearGradient>
						<polygon id="Path-12-Copy-43" class="st18" points="15.2,5.6 15.2,9.6 11.9,7.7 11.9,3.8 						"/>
						
							<radialGradient id="Combined-Shape_1_" cx="63.6832" cy="536.7769" r="1.0092" gradientTransform="matrix(8.8177 9.4104 8.7039 -9.3119 -5223.1812 4401.0776)" gradientUnits="userSpaceOnUse">
							<stop  offset="0" style="stop-color:#21BBCE"/>
							<stop  offset="1" style="stop-color:#169DAE"/>
						</radialGradient>
						<path id="Combined-Shape" class="st19" d="M13.6,0l9.6,5.3L9.3,13.2L0,7.9l2.6-1.5L2.2,6.1C1.8,5.9,1.5,5.6,1.3,5.3L1.2,5.1
							c-0.8-1.3-0.3-3,1-3.8C4.7-0.2,7.7-0.3,10.3,1l0.3,0.1l0.5,0.3L13.6,0z M12,3.8L7.4,6.4l3.1,1.8l4.7-2.6L12,3.8z"/>
						
							<radialGradient id="Path-12-Copy-44_1_" cx="63.7074" cy="504.2016" r="0.8939" gradientTransform="matrix(13.457 -1.6631 -2.5205 -13.1629 426.0899 6752.417)" gradientUnits="userSpaceOnUse">
							<stop  offset="0" style="stop-color:#118D9D"/>
							<stop  offset="1" style="stop-color:#0A707D"/>
						</radialGradient>
						<polygon id="Path-12-Copy-44" class="st20" points="9.3,13.2 9.3,20.3 23.2,12.3 23.2,5.3 						"/>
						
							<linearGradient id="Path-12-Copy-45_1_" gradientUnits="userSpaceOnUse" x1="-10.6568" y1="541.2122" x2="-11.1081" y2="540.3409" gradientTransform="matrix(-7.1287 -8.0159 5.9817 -9.5529 -3310.6223 5093.7744)">
							<stop  offset="0" style="stop-color:#34D3E7"/>
							<stop  offset="1" style="stop-color:#26B2C4"/>
						</linearGradient>
						<polygon id="Path-12-Copy-45" class="st21" points="9.3,13.2 9.3,20.3 0,14.9 0,7.9 						"/>
					</g>
				</g>
			</g>
		</g>
	</g>
</g>
</svg>
