<svg xmlns="http://www.w3.org/2000/svg" viewBox="0 0 533.83716 228.05778"><defs><style>.cls-1{fill:#fff;}.cls-2{fill:#0a5d8e;}.cls-3{fill:none;stroke:#999;stroke-miterlimit:10;}.cls-4{fill:#999;}</style></defs><g id="Layer_1" data-name="Layer 1"><rect class="cls-1" width="533.83716" height="228.05778"/><path class="cls-2" d="M232.44334,161.25129H230.541l-.44141,1.7207h-1.35888l1.89111-8.01562h1.75488l1.8794,8.01562h-1.38135Zm-.93994-4.61914-.668,3.32812h1.32471Z"/><path class="cls-2" d="M239.92869,157.06184V158.137a2.08657,2.08657,0,0,1-2.30957,2.10645h-1.14355V162.972H235.083v-8.01562h2.53613A2.09166,2.09166,0,0,1,239.92869,157.06184Zm-1.38134-.04493c0-.4873-.29444-.7705-.83789-.7705h-1.23389v2.70605h1.22266c.55468,0,.84912-.2832.84912-.76953Z"/><path class="cls-2" d="M245.77244,157.06184V158.137a2.08657,2.08657,0,0,1-2.30957,2.10645h-1.14355V162.972h-1.39258v-8.01562h2.53613A2.09166,2.09166,0,0,1,245.77244,157.06184Zm-1.38134-.04493c0-.4873-.29444-.7705-.83789-.7705h-1.23389v2.70605H243.542c.55468,0,.84912-.2832.84912-.76953Z"/><path class="cls-2" d="M248.94481,160.8548v-3.793a2.565,2.565,0,0,1,5.09472,0v.917h-1.4038v-.92871c0-.59961-.36231-.96192-1.13233-.96192-.79248,0-1.166.36231-1.166.96192v3.82715c0,.60058.37353.96289,1.15478.96289s1.14356-.36231,1.14356-.96289v-.93946h1.4038v.917a2.56361,2.56361,0,0,1-5.09472,0Z"/><path class="cls-2" d="M255.00389,160.86652V157.0843a2.575,2.575,0,0,1,5.11768,0v3.78222a2.57808,2.57808,0,0,1-5.11768,0Zm3.7251.01075v-3.81543c0-.61133-.32862-.97364-1.16651-.97364s-1.166.36231-1.166.97364v3.81543c0,.60058.32812.96289,1.166.96289S258.729,161.47785,258.729,160.87727Z"/><path class="cls-2" d="M266.10106,154.95637V162.972h-1.21143l-2.49072-5.32129V162.972h-1.2002v-8.01562h1.2002l2.49072,5.332v-5.332Z"/><path class="cls-2" d="M271.832,156.24641h-1.834V162.972h-1.39258v-6.72558H266.771v-1.29h5.061Z"/><path class="cls-2" d="M272.51317,154.95637h1.39257V162.972h-1.39257Z"/><path class="cls-2" d="M279.99754,154.95637V162.972h-1.21142l-2.49073-5.32129V162.972H275.0952v-8.01562h1.20019l2.49073,5.332v-5.332Z"/><path class="cls-2" d="M281.064,160.86652v-5.91015h1.39258v5.9209c0,.60058.32812.96289,1.06445.96289.7583,0,1.07519-.36231,1.07519-.96289v-5.9209h1.39258v5.91015a2.47112,2.47112,0,0,1-4.9248,0Z"/><path class="cls-2" d="M286.94188,160.86652V157.0843a2.575,2.575,0,0,1,5.11767,0v3.78222a2.57808,2.57808,0,0,1-5.11767,0Zm3.7251.01075v-3.81543c0-.61133-.32862-.97364-1.16651-.97364s-1.166.36231-1.166.97364v3.81543c0,.60058.32812.96289,1.166.96289S290.667,161.47785,290.667,160.87727Z"/><path class="cls-2" d="M293.01219,160.86652v-5.91015h1.39258v5.9209c0,.60058.32812.96289,1.06445.96289.7583,0,1.0752-.36231,1.0752-.96289v-5.9209H297.937v5.91015a2.47112,2.47112,0,0,1-4.9248,0Z"/><path class="cls-2" d="M298.84471,160.6966v-.31738h1.39258v.47558c0,.67969.48681,1.01856,1.166,1.01856a.9893.9893,0,0,0,1.10987-.99609c0-1.69825-3.50977-1.24512-3.50977-3.82715a2.4017,2.4017,0,0,1,4.78906-.06739v.47559h-1.39257v-.57715c0-.47558-.40772-.793-1.01905-.793a.86836.86836,0,0,0-.98486.88282c0,1.43847,3.50976,1.03027,3.50976,3.7705a2.28572,2.28572,0,0,1-2.5249,2.38868A2.31672,2.31672,0,0,1,298.84471,160.6966Z"/><path class="cls-2" d="M307.248,154.95637h1.39258V162.972H307.248Z"/><path class="cls-2" d="M316.10252,162.972h-1.189v-5.93261l-1.44922,5.93261h-1.00781l-1.44922-5.96679V162.972h-1.17725v-8.01562h1.63037l1.50586,5.37793,1.50586-5.37793h1.63037Z"/><path class="cls-2" d="M322.13914,157.06184V158.137a2.08657,2.08657,0,0,1-2.30957,2.10645H318.686V162.972h-1.39258v-8.01562h2.53613A2.09166,2.09166,0,0,1,322.13914,157.06184Zm-1.38134-.04493c0-.4873-.29444-.7705-.83789-.7705H318.686v2.70605h1.22265c.55469,0,.84913-.2832.84913-.76953Z"/><path class="cls-2" d="M326.77147,162.972,325.73,159.88117h-1.20019V162.972h-1.39258v-8.01562h2.53613a2.08939,2.08939,0,0,1,2.30957,2.09375v.73633a1.96909,1.96909,0,0,1-.917,1.73242l1.166,3.45312Zm-2.2417-4.38183h1.22265c.55469,0,.84913-.27149.84913-.75879v-.82617c0-.48633-.29444-.75879-.83789-.75879h-1.23389Z"/><path class="cls-2" d="M329.06053,160.86652V157.0843a2.575,2.575,0,0,1,5.11768,0v3.78222a2.57808,2.57808,0,0,1-5.11768,0Zm3.7251.01075v-3.81543c0-.61133-.32862-.97364-1.16651-.97364s-1.166.36231-1.166.97364v3.81543c0,.60058.32812.96289,1.166.96289S332.78563,161.47785,332.78563,160.87727Z"/><path class="cls-2" d="M340.24852,154.95637l-1.8457,8.01562h-1.75489l-1.8457-8.01562h1.39258l1.33642,5.95508,1.34717-5.95508Z"/><path class="cls-2" d="M342.44676,156.24641v2.16308h2.13965v1.29h-2.13965V161.681H345.062v1.291h-4.00781v-8.01562H345.062v1.29Z"/><path class="cls-2" d="M352.3325,162.972h-1.189v-5.93261l-1.44922,5.93261h-1.00781l-1.44922-5.96679V162.972H346.06v-8.01562h1.63037l1.50586,5.37793,1.50586-5.37793h1.63037Z"/><path class="cls-2" d="M354.916,156.24641v2.16308h2.13965v1.29H354.916V161.681h2.61523v1.291h-4.00781v-8.01562h4.00781v1.29Z"/><path class="cls-2" d="M363.43162,154.95637V162.972H362.2202l-2.49072-5.32129V162.972h-1.2002v-8.01562h1.2002l2.49072,5.332v-5.332Z"/><path class="cls-2" d="M369.16258,156.24641h-1.834V162.972H365.936v-6.72558h-1.83447v-1.29h5.061Z"/><path class="cls-2" d="M233.54149,167.2552h-1.97022v7.042h-.99609v-7.042H228.605v-.94043h4.93653Z"/><path class="cls-2" d="M237.18846,172.21418h-2.25293l-.56641,2.083h-.97363l2.04932-7.98242h1.25683l2.03809,7.98242h-.98535Zm-2.01514-.95117h1.77735l-.8833-3.74805Z"/><path class="cls-2" d="M243.53074,174.29719l-1.31347-3.31739h-1.49463v3.31739h-.99609v-7.98242h2.34375a2.00279,2.00279,0,0,1,2.27539,2.00488v.65625a1.83246,1.83246,0,0,1-1.14307,1.78906l1.36963,3.53223Zm-1.4038-4.26856c.80371,0,1.22265-.3623,1.22265-1.05273v-.65625c0-.70215-.41894-1.06445-1.21142-1.06445h-1.41553v2.77343Z"/><path class="cls-2" d="M249.51024,169.09992v-.64453c0-.86035-.53174-1.33594-1.46045-1.33594-.93946,0-1.47168.47559-1.47168,1.33594v3.70215a1.27616,1.27616,0,0,0,1.46045,1.33594c.93994,0,1.47168-.48731,1.47168-1.33594v-1.10938h-1.4375v-.94043h2.42285V172.18a2.4652,2.4652,0,0,1-4.91406,0v-3.75879a2.46628,2.46628,0,0,1,4.91406,0v.67871Z"/><path class="cls-2" d="M252.78416,167.2552v2.63769h2.40039v.95117h-2.40039v2.502h2.91016v.95117h-3.90625v-7.98242h3.90625v.94043Z"/><path class="cls-2" d="M261.20946,167.2552h-1.97022v7.042h-.99609v-7.042h-1.97022v-.94043h4.93653Z"/><path class="cls-2" d="M261.539,168.57941h1.019v1.2002h-1.019Zm0,4.51758h1.019v1.2002h-1.019Z"/><path class="cls-2" d="M267.33787,167.2552v2.63769h2.39991v.95117h-2.39991v2.502h2.90967v.95117h-3.90625v-7.98242h3.90625v.94043Z"/><path class="cls-2" d="M276.125,166.31477v7.98242h-.8833l-2.87549-6.001v6.001h-.8833v-7.98242h.8833l2.87549,6.03515v-6.03515Z"/><path class="cls-2" d="M282.34276,166.31477v7.98242h-.99659v-3.45313h-2.77392v3.45313h-.99609v-7.98242h.99609v3.57812h2.77392v-3.57812Z"/><path class="cls-2" d="M287.11131,172.21418h-2.25293l-.5664,2.083h-.97364l2.04932-7.98242h1.25683l2.03809,7.98242h-.98535Zm-2.01514-.95117h1.77735l-.8833-3.74805Z"/><path class="cls-2" d="M294.29149,166.31477v7.98242h-.8833l-2.87549-6.001v6.001h-.8833v-7.98242h.8833l2.87549,6.03515v-6.03515Z"/><path class="cls-2" d="M295.584,172.18v-3.75879a2.46628,2.46628,0,0,1,4.91406,0v.80371h-1.00781v-.76953c0-.86035-.48682-1.33594-1.438-1.33594-.97363,0-1.47168.47559-1.47168,1.33594v3.70215c0,.84863.48682,1.33594,1.46045,1.33594.9624,0,1.44922-.48731,1.44922-1.33594v-.78125H300.498V172.18a2.46627,2.46627,0,0,1-4.91406,0Z"/><path class="cls-2" d="M302.78709,167.2552v2.63769h2.3999v.95117h-2.3999v2.502h2.90967v.95117h-3.90625v-7.98242h3.90625v.94043Z"/><path class="cls-2" d="M309.10643,172.18v-3.75879a2.46628,2.46628,0,0,1,4.91406,0v.80371h-1.00781v-.76953c0-.86035-.48682-1.33594-1.438-1.33594-.97363,0-1.47168.47559-1.47168,1.33594v3.70215c0,.84863.48682,1.33594,1.46045,1.33594.9624,0,1.44922-.48731,1.44922-1.33594v-.78125h1.00781V172.18a2.46627,2.46627,0,0,1-4.91406,0Z"/><path class="cls-2" d="M315.15428,172.18v-5.86523h.99658v5.84277a1.38794,1.38794,0,0,0,2.77393,0v-5.84277h.99609V172.18a2.38641,2.38641,0,0,1-4.7666,0Z"/><path class="cls-2" d="M320.97557,172.16828v-.32812h.99658v.41894c0,.80371.58838,1.25684,1.44922,1.25684a1.24864,1.24864,0,0,0,1.39258-1.26758c0-1.9707-3.66846-1.37012-3.66846-3.95215a2.28162,2.28162,0,0,1,4.55127-.02246v.43066h-.99609v-.50976c0-.65625-.50977-1.0752-1.30225-1.0752a1.09532,1.09532,0,0,0-1.24512,1.12012c0,1.74414,3.65674,1.17773,3.668,3.918a2.42722,2.42722,0,0,1-4.8457.01074Z"/><path class="cls-2" d="M331.16746,167.2552h-1.97021v7.042h-.99609v-7.042h-1.97022v-.94043h4.93652Z"/><path class="cls-2" d="M331.65574,172.18v-3.73633a2.47644,2.47644,0,0,1,4.93653,0V172.18a2.47742,2.47742,0,0,1-4.93653,0Zm3.94043-.02246v-3.69141c0-.86035-.43017-1.34668-1.47216-1.34668-1.04151,0-1.47168.48633-1.47168,1.34668v3.69141c0,.84863.43017,1.33594,1.47168,1.33594C335.166,173.49348,335.59617,173.00617,335.59617,172.15754Z"/><path class="cls-2" d="M343.90819,174.29719h-.86036v-6.46485L341.27,174.29719h-.74707l-1.77783-6.46485v6.46485h-.86035v-7.98242h1.166l1.84571,6.126,1.85693-6.126h1.15479Z"/><path class="cls-2" d="M346.35545,167.2552v2.63769h2.40039v.95117h-2.40039v2.502h2.91016v.95117h-3.90625v-7.98242h3.90625v.94043Z"/><path class="cls-2" d="M354.30516,174.29719l-1.31348-3.31739h-1.49463v3.31739H350.501v-7.98242h2.34375a2.00279,2.00279,0,0,1,2.27539,2.00488v.65625A1.83246,1.83246,0,0,1,353.977,170.765l1.36963,3.53223Zm-1.40381-4.26856c.80371,0,1.22266-.3623,1.22266-1.05273v-.65625c0-.70215-.41895-1.06445-1.21143-1.06445h-1.41553v2.77343Z"/><path class="cls-2" d="M359.84373,167.2552v2.63769h2.40039v.95117h-2.40039v2.502h2.91016v.95117h-3.90625v-7.98242h3.90625v.94043Z"/><path class="cls-2" d="M367.8159,174.29719l-1.59619-3.0459-1.59668,3.0459h-1.064l2.106-4.09864-2.03808-3.88378h1.10937l1.55127,2.95507,1.52832-2.95507h1.08692l-2.07178,3.98535,2.09472,3.99707Z"/><path class="cls-2" d="M374.56541,168.31965v1.12012a1.99816,1.99816,0,0,1-2.26416,2.0039h-1.35888v2.85352h-.9961v-7.98242H372.29A2.00831,2.00831,0,0,1,374.56541,168.31965Zm-.99609,0c0-.70215-.41895-1.06445-1.21143-1.06445h-1.41552v3.249h1.40429c.80371,0,1.22266-.36231,1.22266-1.06445Z"/><path class="cls-2" d="M376.79783,167.2552v2.63769h2.4004v.95117h-2.4004v2.502H379.708v.95117h-3.90625v-7.98242H379.708v.94043Z"/><path class="cls-2" d="M384.74754,174.29719l-1.31347-3.31739h-1.49463v3.31739h-.9961v-7.98242h2.34375a2.00279,2.00279,0,0,1,2.27539,2.00488v.65625a1.83245,1.83245,0,0,1-1.14306,1.78906l1.36963,3.53223Zm-1.40381-4.26856c.80371,0,1.22266-.3623,1.22266-1.05273v-.65625c0-.70215-.41895-1.06445-1.21143-1.06445h-1.41552v2.77343Z"/><path class="cls-2" d="M386.957,166.31477h.9961v7.98242h-.9961Z"/><path class="cls-2" d="M390.3994,167.2552v2.63769h2.40039v.95117H390.3994v2.502h2.91015v.95117H389.4033v-7.98242h3.90625v.94043Z"/><path class="cls-2" d="M399.187,166.31477v7.98242h-.8833l-2.87548-6.001v6.001h-.8833v-7.98242h.8833l2.87548,6.03515v-6.03515Z"/><path class="cls-2" d="M400.47948,172.18v-3.75879a2.46628,2.46628,0,0,1,4.91406,0v.80371h-1.00781v-.76953c0-.86035-.48682-1.33594-1.438-1.33594-.97364,0-1.47168.47559-1.47168,1.33594v3.70215c0,.84863.48681,1.33594,1.46045,1.33594.9624,0,1.44922-.48731,1.44922-1.33594v-.78125h1.00781V172.18a2.46627,2.46627,0,0,1-4.91406,0Z"/><path class="cls-2" d="M407.6826,167.2552v2.63769h2.3999v.95117h-2.3999v2.502h2.90967v.95117H406.686v-7.98242h3.90625v.94043Z"/><path class="cls-2" d="M413.94481,165.88508l-1.6416,8.97851h-.93995l1.64161-8.97851Z"/><path class="cls-2" d="M418.73485,174.29719l-1.31348-3.31739h-1.49463v3.31739h-.99609v-7.98242h2.34375a2.00279,2.00279,0,0,1,2.27539,2.00488v.65625a1.83246,1.83246,0,0,1-1.14307,1.78906l1.36963,3.53223Zm-1.40381-4.26856c.80371,0,1.22265-.3623,1.22265-1.05273v-.65625c0-.70215-.41894-1.06445-1.21142-1.06445h-1.41553v2.77343Z"/><path class="cls-2" d="M421.94041,167.2552v2.63769h2.40039v.95117h-2.40039v2.502h2.91016v.95117h-3.90625v-7.98242h3.90625v.94043Z"/><path class="cls-2" d="M430.81834,168.53449v3.54395a2.17682,2.17682,0,0,1-2.44531,2.21875h-2.28711v-7.98242H428.373A2.17164,2.17164,0,0,1,430.81834,168.53449Zm-.99609.02246c0-.84961-.47559-1.30175-1.39258-1.30175H427.082V173.346h1.34766c.917,0,1.39258-.44141,1.39258-1.291Z"/><path class="cls-2" d="M431.95262,172.18v-5.86523h.99658v5.84277a1.38794,1.38794,0,0,0,2.77393,0v-5.84277h.99609V172.18a2.38641,2.38641,0,0,1-4.7666,0Z"/><path class="cls-2" d="M437.853,172.18v-3.75879a2.46628,2.46628,0,0,1,4.91406,0v.80371h-1.00781v-.76953c0-.86035-.48682-1.33594-1.438-1.33594-.97363,0-1.47168.47559-1.47168,1.33594v3.70215c0,.84863.48682,1.33594,1.46045,1.33594.9624,0,1.44922-.48731,1.44922-1.33594v-.78125h1.00781V172.18a2.46627,2.46627,0,0,1-4.91406,0Z"/><path class="cls-2" d="M445.05565,167.2552v2.63769H447.456v.95117h-2.40039v2.502h2.91015v.95117h-3.90625v-7.98242h3.90625v.94043Z"/><path class="cls-2" d="M452.53026,167.2552v2.875h2.51367v.95117h-2.51367v3.21582h-.9961v-7.98242h3.90625v.94043Z"/><path class="cls-2" d="M460.34422,174.29719l-1.31348-3.31739h-1.49462v3.31739H456.54v-7.98242h2.34375a2.00279,2.00279,0,0,1,2.27539,2.00488v.65625a1.83245,1.83245,0,0,1-1.14306,1.78906l1.36963,3.53223Zm-1.40381-4.26856c.80371,0,1.22266-.3623,1.22266-1.05273v-.65625c0-.70215-.41895-1.06445-1.21143-1.06445h-1.41552v2.77343Z"/><path class="cls-2" d="M462.55369,166.31477h.9961v7.98242h-.9961Z"/><path class="cls-2" d="M464.84129,172.18v-3.75879a2.46628,2.46628,0,0,1,4.91406,0v.80371h-1.00781v-.76953c0-.86035-.48681-1.33594-1.438-1.33594-.97363,0-1.47168.47559-1.47168,1.33594v3.70215c0,.84863.48682,1.33594,1.46045,1.33594.96241,0,1.44922-.48731,1.44922-1.33594v-.78125h1.00781V172.18a2.46627,2.46627,0,0,1-4.91406,0Z"/><path class="cls-2" d="M475.18065,167.2552h-1.97022v7.042h-.99609v-7.042h-1.97022v-.94043h4.93653Z"/><path class="cls-2" d="M475.97459,166.31477h.9961v7.98242h-.9961Z"/><path class="cls-2" d="M478.26219,172.18v-3.73633a2.47643,2.47643,0,0,1,4.93652,0V172.18a2.47741,2.47741,0,0,1-4.93652,0Zm3.94043-.02246v-3.69141c0-.86035-.43018-1.34668-1.47217-1.34668-1.0415,0-1.47168.48633-1.47168,1.34668v3.69141c0,.84863.43018,1.33594,1.47168,1.33594C481.77244,173.49348,482.20262,173.00617,482.20262,172.15754Z"/><path class="cls-2" d="M489.13328,166.31477v7.98242H488.25l-2.87549-6.001v6.001h-.8833v-7.98242h.8833l2.87549,6.03515v-6.03515Z"/><rect class="cls-2" x="37.93503" y="154.88634" width="184.53894" height="19.50532"/><path class="cls-2" d="M190.86082,125.92609h1.39258v8.01563h-1.39258Z"/><path class="cls-2" d="M198.3452,125.92609v8.01563h-1.21143l-2.49072-5.32129v5.32129h-1.2002v-8.01563h1.2002l2.49072,5.332v-5.332Z"/><path class="cls-2" d="M200.92869,127.21613V129.639h2.25293v1.291h-2.25293v3.01172h-1.39257v-8.01563h4.00781v1.29Z"/><path class="cls-2" d="M208.09715,133.94172l-1.0415-3.09082h-1.2002v3.09082h-1.39258v-8.01563H206.999a2.0894,2.0894,0,0,1,2.30957,2.09375v.73633a1.96907,1.96907,0,0,1-.917,1.73242l1.166,3.45313Zm-2.2417-4.38184h1.22266c.55469,0,.84912-.27148.84912-.75879v-.82617c0-.48633-.29443-.75879-.83789-.75879h-1.23389Z"/><path class="cls-2" d="M213.81688,132.221h-1.90235l-.4414,1.7207h-1.35889l1.89111-8.01563h1.75489l1.87939,8.01563h-1.38135Zm-.93994-4.61914-.668,3.32812h1.3247Z"/><path class="cls-2" d="M216.2866,131.66633V131.349h1.39258v.47558c0,.67969.48682,1.01856,1.16651,1.01856a.98912.98912,0,0,0,1.10937-.9961c0-1.69824-3.50976-1.24511-3.50976-3.82715a2.4017,2.4017,0,0,1,4.78906-.06738v.47559h-1.39258v-.57715c0-.47559-.40771-.793-1.019-.793a.86835.86835,0,0,0-.98487.88281c0,1.43848,3.50977,1.03028,3.50977,3.77051a2.28572,2.28572,0,0,1-2.5249,2.38867A2.31672,2.31672,0,0,1,216.2866,131.66633Z"/><path class="cls-2" d="M226.8408,127.21613h-1.834v6.72559h-1.39258v-6.72559h-1.83447v-1.29h5.061Z"/><path class="cls-2" d="M231.15623,133.94172l-1.0415-3.09082h-1.2002v3.09082H227.522v-8.01563h2.53613a2.0894,2.0894,0,0,1,2.30957,2.09375v.73633a1.96908,1.96908,0,0,1-.917,1.73242l1.166,3.45313Zm-2.2417-4.38184h1.22266c.55469,0,.84912-.27148.84912-.75879v-.82617c0-.48633-.29443-.75879-.83789-.75879h-1.23389Z"/><path class="cls-2" d="M233.4453,131.83625v-5.91016h1.39257v5.9209c0,.60059.32813.96289,1.06446.96289.7583,0,1.07519-.3623,1.07519-.96289v-5.9209h1.39258v5.91016a2.47112,2.47112,0,0,1-4.9248,0Z"/><path class="cls-2" d="M239.32323,131.82453v-3.793a2.565,2.565,0,0,1,5.09472,0v.917h-1.40381v-.92871c0-.59961-.3623-.96191-1.13232-.96191-.79248,0-1.166.3623-1.166.96191V131.847c0,.60059.37354.96289,1.15479.96289s1.14355-.3623,1.14355-.96289v-.93945H244.418v.917a2.56361,2.56361,0,0,1-5.09472,0Z"/><path class="cls-2" d="M249.94481,127.21613h-1.834v6.72559h-1.39258v-6.72559h-1.83447v-1.29h5.061Z"/><path class="cls-2" d="M250.50145,131.83625v-5.91016H251.894v5.9209c0,.60059.32812.96289,1.06445.96289.7583,0,1.07519-.3623,1.07519-.96289v-5.9209h1.39258v5.91016a2.47112,2.47112,0,0,1-4.9248,0Z"/><path class="cls-2" d="M260.13817,133.94172l-1.04151-3.09082h-1.20019v3.09082h-1.39258v-8.01563H259.04a2.0894,2.0894,0,0,1,2.30957,2.09375v.73633a1.96906,1.96906,0,0,1-.917,1.73242l1.166,3.45313Zm-2.2417-4.38184h1.22265c.55469,0,.84912-.27148.84912-.75879v-.82617c0-.48633-.29443-.75879-.83789-.75879h-1.23388Z"/><path class="cls-2" d="M263.94432,127.21613v2.16309H266.084v1.29h-2.13965v1.98144h2.61523v1.291h-4.00781v-8.01563h4.00781v1.29Z"/><path class="cls-2" d="M271.249,127.21613v2.16309h2.13965v1.29H271.249v1.98144h2.61523v1.291h-4.00781v-8.01563h4.00781v1.29Z"/><path class="cls-2" d="M278.16844,129.96809l2.06055,3.97363h-1.54l-1.3584-2.61524-1.31348,2.61524h-1.47168l2.01514-4.09863-2.03809-3.917h1.55127l1.34717,2.59278,1.33594-2.59278h1.50586Z"/><path class="cls-2" d="M285.64256,127.21613h-1.834v6.72559H282.416v-6.72559h-1.83447v-1.29h5.061Z"/><path class="cls-2" d="M287.71629,127.21613v2.16309h2.13965v1.29h-2.13965v1.98144h2.61524v1.291h-4.00782v-8.01563h4.00782v1.29Z"/><path class="cls-2" d="M296.23192,125.92609v8.01563h-1.21143l-2.49072-5.32129v5.32129h-1.2002v-8.01563h1.2002l2.49072,5.332v-5.332Z"/><path class="cls-2" d="M297.25291,131.66633V131.349h1.39258v.47558c0,.67969.48682,1.01856,1.166,1.01856a.9893.9893,0,0,0,1.10986-.9961c0-1.69824-3.50977-1.24511-3.50977-3.82715a2.40171,2.40171,0,0,1,4.78907-.06738v.47559h-1.39258v-.57715c0-.47559-.40772-.793-1.019-.793a.86835.86835,0,0,0-.98487.88281c0,1.43848,3.50977,1.03028,3.50977,3.77051a2.28572,2.28572,0,0,1-2.5249,2.38867A2.31672,2.31672,0,0,1,297.25291,131.66633Z"/><path class="cls-2" d="M303.35741,125.92609H304.75v8.01563h-1.39257Z"/><path class="cls-2" d="M310.80809,131.28059v.53222a2.09481,2.09481,0,0,1-2.24219,2.12891h-2.62646v-8.01563h2.43408a2.00423,2.00423,0,0,1,2.25342,1.92481v.55469a1.669,1.669,0,0,1-.668,1.33593A1.7982,1.7982,0,0,1,310.80809,131.28059Zm-3.47608-4.10938V129.22h1.1211a.72146.72146,0,0,0,.78125-.80371v-.53223a.69218.69218,0,0,0-.78125-.71289Zm2.083,4.10938a.74409.74409,0,0,0-.78076-.82618H307.332v2.24219h1.30225a.75871.75871,0,0,0,.78076-.83789Z"/><path class="cls-2" d="M311.79491,125.92609h1.39257v8.01563h-1.39257Z"/><path class="cls-2" d="M318.4077,132.6507v1.291h-4.03076v-8.01563h1.39257v6.72461Z"/><path class="cls-2" d="M319.2241,125.92609h1.39258v8.01563H319.2241Z"/><path class="cls-2" d="M326.34617,127.21613h-1.834v6.72559h-1.39258v-6.72559h-1.83447v-1.29h5.061Z"/><path class="cls-2" d="M330.08446,131.16828v2.77344h-1.39307v-2.79688l-2.06055-5.21875h1.4834l1.29053,3.543,1.291-3.543h1.46045Z"/><path class="cls-2" d="M195.26512,138.22492h-1.97021v7.042h-.9961v-7.042H190.3286v-.94043h4.93652Z"/><path class="cls-2" d="M198.91209,143.18391h-2.25293l-.5664,2.083h-.97364l2.04932-7.98242h1.25684l2.03808,7.98242H199.478Zm-2.01513-.95118h1.77734l-.8833-3.748Z"/><path class="cls-2" d="M205.25438,145.26691l-1.31348-3.31738h-1.49463v3.31738h-.99609v-7.98242h2.34375a2.00279,2.00279,0,0,1,2.27539,2.00489v.65625a1.83246,1.83246,0,0,1-1.14307,1.78906l1.36963,3.53222Zm-1.40381-4.26855c.80371,0,1.22266-.36231,1.22266-1.05273v-.65625c0-.70215-.41895-1.06446-1.21143-1.06446h-1.41553v2.77344Z"/><path class="cls-2" d="M211.23387,140.06965v-.64453c0-.86035-.53174-1.33594-1.46045-1.33594-.93945,0-1.47168.47559-1.47168,1.33594v3.70215a1.27616,1.27616,0,0,0,1.46045,1.33593c.93994,0,1.47168-.4873,1.47168-1.33593v-1.10938h-1.4375v-.94043h2.42285v2.07227a2.4652,2.4652,0,0,1-4.91406,0v-3.75879a2.46628,2.46628,0,0,1,4.91406,0v.67871Z"/><path class="cls-2" d="M214.5078,138.22492v2.6377h2.40039v.95117H214.5078v2.50195H217.418v.95117H213.5117v-7.98242H217.418v.94043Z"/><path class="cls-2" d="M222.93309,138.22492h-1.97022v7.042h-.99609v-7.042h-1.97021v-.94043h4.93652Z"/><path class="cls-2" d="M223.26268,139.54914h1.019v1.2002h-1.019Zm0,4.51758h1.019v1.20019h-1.019Z"/><path class="cls-2" d="M228.06492,137.28449h.99659v7.98242h-.99659Z"/><path class="cls-2" d="M236.53465,145.26691h-.86084v-6.46484l-1.77734,6.46484h-.74707l-1.77783-6.46484v6.46484h-.86036v-7.98242h1.166l1.8457,6.126,1.85694-6.126h1.15478Z"/><path class="cls-2" d="M242.60545,139.28938v1.12011a1.99857,1.99857,0,0,1-2.26465,2.00391h-1.35839v2.85351h-.99659v-7.98242h2.34375A2.00872,2.00872,0,0,1,242.60545,139.28938Zm-.99658,0c0-.70215-.41895-1.06446-1.21143-1.06446h-1.415v3.249h1.4038c.80371,0,1.22266-.36231,1.22266-1.06446Z"/><path class="cls-2" d="M247.64549,145.26691l-1.31348-3.31738h-1.49414v3.31738h-.99658v-7.98242H246.185a2.00321,2.00321,0,0,1,2.27588,2.00489v.65625a1.83285,1.83285,0,0,1-1.14355,1.78906l1.36962,3.53222Zm-1.40381-4.26855c.80371,0,1.22266-.36231,1.22266-1.05273v-.65625c0-.70215-.41895-1.06446-1.21143-1.06446h-1.415v2.77344Z"/><path class="cls-2" d="M249.69627,143.14973V139.4134a2.47644,2.47644,0,0,1,4.93653,0v3.73633a2.47742,2.47742,0,0,1-4.93653,0Zm3.94043-.02246v-3.69141c0-.86035-.43066-1.34668-1.47217-1.34668s-1.47168.48633-1.47168,1.34668v3.69141c0,.84863.43018,1.33593,1.47168,1.33593S253.6367,143.9759,253.6367,143.12727Z"/><path class="cls-2" d="M260.56785,137.27375l-1.98144,7.99316h-1.25684l-1.98144-7.99316h.99658l1.61865,6.50977,1.61914-6.50977Z"/><path class="cls-2" d="M262.539,138.22492v2.6377h2.40039v.95117H262.539v2.50195h2.91015v.95117H261.543v-7.98242h3.90625v.94043Z"/><path class="cls-2" d="M272.78758,140.06965v-.64453c0-.86035-.53174-1.33594-1.46045-1.33594-.93945,0-1.47168.47559-1.47168,1.33594v3.70215a1.27616,1.27616,0,0,0,1.46045,1.33593c.93994,0,1.47168-.4873,1.47168-1.33593v-1.10938h-1.4375v-.94043h2.42285v2.07227a2.4652,2.4652,0,0,1-4.91406,0v-3.75879a2.46628,2.46628,0,0,1,4.91406,0v.67871Z"/><path class="cls-2" d="M278.98289,144.31574v.95117h-3.91748v-7.98242h.9961v7.03125Z"/><path class="cls-2" d="M279.86717,143.14973V139.4134a2.47643,2.47643,0,0,1,4.93652,0v3.73633a2.47741,2.47741,0,0,1-4.93652,0Zm3.94043-.02246v-3.69141c0-.86035-.43066-1.34668-1.47217-1.34668s-1.47168.48633-1.47168,1.34668v3.69141c0,.84863.43018,1.33593,1.47168,1.33593S283.8076,143.9759,283.8076,143.12727Z"/><path class="cls-2" d="M290.73826,142.65168v.59961a1.99966,1.99966,0,0,1-2.208,2.01562h-2.43409v-7.98242h2.18506c1.31348,0,2.208.64551,2.208,1.82324V139.64a1.59375,1.59375,0,0,1-.73584,1.4043A1.75477,1.75477,0,0,1,290.73826,142.65168Zm-3.6455-4.4502V140.682h1.23388c.73584,0,1.17725-.30664,1.17725-1.05371v-.48633c0-.65722-.44141-.94043-1.17725-.94043Zm2.64892,4.47266a1.02415,1.02415,0,0,0-1.166-1.08691h-1.48291v2.76269h1.47168a1.03613,1.03613,0,0,0,1.17724-1.09863Z"/><path class="cls-2" d="M295.13328,143.18391h-2.25293l-.5664,2.083h-.97363l2.04931-7.98242h1.25684l2.03808,7.98242h-.98535Zm-2.01513-.95118h1.77734l-.8833-3.748Z"/><path class="cls-2" d="M301.58885,144.31574v.95117h-3.91748v-7.98242h.99658v7.03125Z"/><path class="cls-2" d="M309.584,139.28938v1.12011a1.99816,1.99816,0,0,1-2.26416,2.00391h-1.35889v2.85351h-.99609v-7.98242h2.34375A2.00831,2.00831,0,0,1,309.584,139.28938Zm-.9961,0c0-.70215-.41894-1.06446-1.21142-1.06446h-1.41553v3.249h1.4043c.80371,0,1.22265-.36231,1.22265-1.06446Z"/><path class="cls-2" d="M311.81639,138.22492v2.6377h2.40039v.95117h-2.40039v2.50195h2.91016v.95117H310.8203v-7.98242h3.90625v.94043Z"/><path class="cls-2" d="M319.7661,145.26691l-1.31348-3.31738H316.958v3.31738h-.99609v-7.98242h2.34375a2.00279,2.00279,0,0,1,2.27539,2.00489v.65625a1.83246,1.83246,0,0,1-1.14307,1.78906l1.36963,3.53222Zm-1.40381-4.26855c.80371,0,1.22265-.36231,1.22265-1.05273v-.65625c0-.70215-.41894-1.06446-1.21142-1.06446H316.958v2.77344Z"/><path class="cls-2" d="M322.97166,138.22492v2.875h2.51367v.95117h-2.51367v3.21582h-.99609v-7.98242h3.90625v.94043Z"/><path class="cls-2" d="M326.82274,143.14973V139.4134a2.47643,2.47643,0,0,1,4.93652,0v3.73633a2.47741,2.47741,0,0,1-4.93652,0Zm3.94043-.02246v-3.69141c0-.86035-.43018-1.34668-1.47217-1.34668-1.04151,0-1.47168.48633-1.47168,1.34668v3.69141c0,.84863.43017,1.33593,1.47168,1.33593C330.333,144.4632,330.76317,143.9759,330.76317,143.12727Z"/><path class="cls-2" d="M336.85594,145.26691l-1.31348-3.31738h-1.49463v3.31738h-.99609v-7.98242h2.34375a2.00279,2.00279,0,0,1,2.27539,2.00489v.65625a1.83247,1.83247,0,0,1-1.14306,1.78906l1.36962,3.53222Zm-1.40381-4.26855c.80371,0,1.22266-.36231,1.22266-1.05273v-.65625c0-.70215-.41895-1.06446-1.21143-1.06446h-1.41553v2.77344Z"/><path class="cls-2" d="M345.08885,145.26691h-.86035v-6.46484l-1.77783,6.46484h-.74707l-1.77784-6.46484v6.46484h-.86035v-7.98242h1.166l1.8457,6.126,1.85694-6.126h1.15478Z"/><path class="cls-2" d="M349.85741,143.18391h-2.25293l-.56641,2.083h-.97363l2.04931-7.98242h1.25684l2.03808,7.98242h-.98535Zm-2.01514-.95118h1.77734l-.8833-3.748Z"/><path class="cls-2" d="M357.03758,137.28449v7.98242h-.8833l-2.87549-6.001v6.001h-.8833v-7.98242h.8833l2.87549,6.03516v-6.03516Z"/><path class="cls-2" d="M358.33006,143.14973v-3.75879a2.46628,2.46628,0,0,1,4.91406,0v.80371h-1.00781v-.76953c0-.86035-.48682-1.33594-1.438-1.33594-.97363,0-1.47168.47559-1.47168,1.33594v3.70215c0,.84863.48682,1.33593,1.46045,1.33593.9624,0,1.44922-.4873,1.44922-1.33593V142.346h1.00781v.80371a2.46627,2.46627,0,0,1-4.91406,0Z"/><path class="cls-2" d="M365.53319,138.22492v2.6377h2.3999v.95117h-2.3999v2.50195h2.90966v.95117H364.5366v-7.98242h3.90625v.94043Z"/><rect class="cls-2" x="37.93503" y="125.85592" width="146.26248" height="19.50532"/><path class="cls-2" d="M153.36668,96.8968h1.39258v8.01562h-1.39258Z"/><path class="cls-2" d="M160.85106,96.8968v8.01562h-1.21143l-2.49072-5.32129v5.32129h-1.2002V96.8968h1.2002l2.49072,5.332v-5.332Z"/><path class="cls-2" d="M163.43455,98.18684v2.42285h2.25293v1.291h-2.25293v3.01172H162.042V96.8968h4.00781v1.29Z"/><path class="cls-2" d="M170.603,104.91242l-1.0415-3.09082h-1.2002v3.09082h-1.39258V96.8968h2.53614a2.0894,2.0894,0,0,1,2.30957,2.09375v.73633a1.9691,1.9691,0,0,1-.917,1.73242l1.166,3.45312Zm-2.2417-4.38183H169.584c.55469,0,.84912-.27149.84912-.75879v-.82617c0-.48633-.29443-.75879-.83789-.75879h-1.23389Z"/><path class="cls-2" d="M176.32274,103.19172h-1.90235l-.4414,1.7207H172.6201l1.89111-8.01562h1.75489l1.87939,8.01562h-1.38135Zm-.93994-4.61914-.668,3.32812h1.3247Z"/><path class="cls-2" d="M178.79246,102.637v-.31738H180.185v.47558c0,.67969.48682,1.01856,1.16651,1.01856a.98913.98913,0,0,0,1.10937-.99609c0-1.69825-3.50976-1.24512-3.50976-3.82715a2.4017,2.4017,0,0,1,4.78906-.06739v.47559h-1.39258V98.8216c0-.47558-.40772-.793-1.019-.793a.86836.86836,0,0,0-.98487.88282c0,1.43847,3.50977,1.03027,3.50977,3.7705a2.28573,2.28573,0,0,1-2.5249,2.38868A2.31672,2.31672,0,0,1,178.79246,102.637Z"/><path class="cls-2" d="M189.34666,98.18684h-1.834v6.72558H186.1201V98.18684h-1.83447v-1.29h5.061Z"/><path class="cls-2" d="M193.66209,104.91242l-1.0415-3.09082h-1.2002v3.09082h-1.39257V96.8968H192.564a2.08939,2.08939,0,0,1,2.30957,2.09375v.73633a1.96911,1.96911,0,0,1-.917,1.73242l1.166,3.45312Zm-2.2417-4.38183H192.643c.55469,0,.84912-.27149.84912-.75879v-.82617c0-.48633-.29443-.75879-.83789-.75879h-1.23389Z"/><path class="cls-2" d="M195.95116,102.807V96.8968h1.39257v5.9209c0,.60058.32813.96289,1.06446.96289.7583,0,1.07519-.36231,1.07519-.96289V96.8968H200.876V102.807a2.47112,2.47112,0,0,1-4.9248,0Z"/><path class="cls-2" d="M201.82908,102.79523v-3.793a2.565,2.565,0,0,1,5.09473,0v.917H205.52v-.92871c0-.59961-.3623-.96192-1.13232-.96192-.79248,0-1.166.36231-1.166.96192v3.82715c0,.60058.37354.96289,1.15479.96289s1.14355-.36231,1.14355-.96289v-.93946h1.40381v.917a2.56362,2.56362,0,0,1-5.09473,0Z"/><path class="cls-2" d="M212.45067,98.18684h-1.834v6.72558H209.2241V98.18684h-1.83447v-1.29h5.061Z"/><path class="cls-2" d="M213.00731,102.807V96.8968h1.39258v5.9209c0,.60058.32812.96289,1.06445.96289.7583,0,1.07519-.36231,1.07519-.96289V96.8968h1.39258V102.807a2.47112,2.47112,0,0,1-4.9248,0Z"/><path class="cls-2" d="M222.644,104.91242l-1.04151-3.09082h-1.20019v3.09082h-1.39258V96.8968h2.53613a2.08939,2.08939,0,0,1,2.30957,2.09375v.73633a1.96909,1.96909,0,0,1-.917,1.73242l1.166,3.45312Zm-2.2417-4.38183H221.625c.55469,0,.84912-.27149.84912-.75879v-.82617c0-.48633-.29443-.75879-.83789-.75879h-1.23388Z"/><path class="cls-2" d="M226.45018,98.18684v2.16308h2.13965v1.29h-2.13965v1.98145h2.61523v1.291H225.0576V96.8968h4.00781v1.29Z"/><path class="cls-2" d="M233.75487,98.18684v2.16308h2.13964v1.29h-2.13964v1.98145h2.61523v1.291h-4.00781V96.8968h4.00781v1.29Z"/><path class="cls-2" d="M242.27049,96.8968v8.01562h-1.21142l-2.49073-5.32129v5.32129h-1.20019V96.8968h1.20019l2.49073,5.332v-5.332Z"/><path class="cls-2" d="M248.51121,96.8968v8.01562h-1.39306V101.64H244.854v3.27246h-1.39258V96.8968H244.854v3.45312h2.26416V96.8968Z"/><path class="cls-2" d="M253.019,103.19172h-1.90235l-.4414,1.7207h-1.35889l1.89111-8.01562h1.75489l1.87939,8.01562h-1.38135Zm-.93995-4.61914-.668,3.32812h1.3247Z"/><path class="cls-2" d="M260.561,96.8968v8.01562h-1.21143l-2.49072-5.32129v5.32129h-1.2002V96.8968h1.2002l2.49072,5.332v-5.332Z"/><path class="cls-2" d="M261.62742,102.79523v-3.793a2.565,2.565,0,0,1,5.09473,0v.917h-1.40381v-.92871c0-.59961-.3623-.96192-1.13232-.96192-.79248,0-1.166.36231-1.166.96192v3.82715c0,.60058.37354.96289,1.15479.96289s1.14355-.36231,1.14355-.96289v-.93946h1.40381v.917a2.56362,2.56362,0,0,1-5.09473,0Z"/><path class="cls-2" d="M269.2036,98.18684v2.16308h2.13964v1.29H269.2036v1.98145h2.61523v1.291H267.811V96.8968h4.00781v1.29Z"/><path class="cls-2" d="M279.08934,104.91242h-1.189V98.9798l-1.44921,5.93262h-1.00782l-1.44922-5.96679v5.96679h-1.17724V96.8968h1.63037l1.50586,5.37793L277.459,96.8968h1.63037Z"/><path class="cls-2" d="M281.67283,98.18684v2.16308h2.13965v1.29h-2.13965v1.98145h2.61524v1.291h-4.00781V96.8968h4.00781v1.29Z"/><path class="cls-2" d="M290.18846,96.8968v8.01562H288.977l-2.49072-5.32129v5.32129h-1.20019V96.8968h1.20019l2.49072,5.332v-5.332Z"/><path class="cls-2" d="M295.91942,98.18684h-1.834v6.72558h-1.39258V98.18684h-1.83447v-1.29h5.061Z"/><path class="cls-2" d="M296.34032,102.637v-.31738h1.39257v.47558c0,.67969.48682,1.01856,1.16651,1.01856a.98912.98912,0,0,0,1.10937-.99609c0-1.69825-3.50976-1.24512-3.50976-3.82715a2.4017,2.4017,0,0,1,4.78906-.06739v.47559h-1.39258V98.8216c0-.47558-.40771-.793-1.019-.793a.86836.86836,0,0,0-.98487.88282c0,1.43847,3.50977,1.03027,3.50977,3.7705a2.28573,2.28573,0,0,1-2.5249,2.38868A2.31672,2.31672,0,0,1,296.34032,102.637Z"/><path class="cls-2" d="M157.771,109.19563h-1.97022v7.042h-.99609v-7.042h-1.97021v-.94043H157.771Z"/><path class="cls-2" d="M161.418,114.15461H159.165l-.5664,2.083H157.625l2.04932-7.98242h1.25684l2.03808,7.98242h-.98535Zm-2.01513-.95117h1.77734l-.8833-3.74805Z"/><path class="cls-2" d="M167.76024,116.23762l-1.31348-3.31739h-1.49463v3.31739H163.956V108.2552h2.34375a2.00279,2.00279,0,0,1,2.27539,2.00488v.65625a1.83246,1.83246,0,0,1-1.14307,1.78906l1.36963,3.53223Zm-1.40381-4.26856c.80371,0,1.22265-.3623,1.22265-1.05273v-.65625c0-.70215-.41894-1.06445-1.21142-1.06445h-1.41553v2.77343Z"/><path class="cls-2" d="M173.73973,111.04035v-.64453c0-.86035-.53174-1.33594-1.46045-1.33594-.93945,0-1.47168.47559-1.47168,1.33594V114.098a1.27616,1.27616,0,0,0,1.46045,1.33594c.93994,0,1.47168-.48731,1.47168-1.33594v-1.10938h-1.4375v-.94043h2.42285v2.07227a2.4652,2.4652,0,0,1-4.91406,0v-3.75879a2.46628,2.46628,0,0,1,4.91406,0v.67871Z"/><path class="cls-2" d="M177.01366,109.19563v2.63769h2.40039v.95117h-2.40039v2.502h2.91015v.95117h-3.90625V108.2552h3.90625v.94043Z"/><path class="cls-2" d="M185.439,109.19563h-1.97022v7.042h-.99609v-7.042h-1.97022v-.94043H185.439Z"/><path class="cls-2" d="M185.76854,110.51984h1.019V111.72h-1.019Zm0,4.51758h1.019v1.2002h-1.019Z"/><path class="cls-2" d="M190.333,114.10871v-.32812h.99658v.41894c0,.80371.58838,1.25684,1.44922,1.25684a1.24864,1.24864,0,0,0,1.39258-1.26758c0-1.9707-3.66846-1.37012-3.66846-3.95215a2.28162,2.28162,0,0,1,4.55127-.02246v.43066h-.99609v-.50976c0-.65625-.50977-1.0752-1.30225-1.0752a1.09531,1.09531,0,0,0-1.24511,1.12012c0,1.74414,3.65673,1.17773,3.668,3.918a2.42722,2.42722,0,0,1-4.8457.01074Z"/><path class="cls-2" d="M196.23338,114.12043v-3.75879a2.46628,2.46628,0,0,1,4.91406,0v.80371h-1.00781v-.76953c0-.86035-.48681-1.33594-1.438-1.33594-.97363,0-1.47168.47559-1.47168,1.33594V114.098c0,.84863.48682,1.33594,1.46045,1.33594.96241,0,1.44922-.48731,1.44922-1.33594v-.78125h1.00781v.80371a2.46627,2.46627,0,0,1-4.91406,0Z"/><path class="cls-2" d="M205.62157,114.15461h-2.25293l-.56641,2.083h-.97363l2.04931-7.98242h1.25684l2.03808,7.98242h-.98535Zm-2.01514-.95117h1.77734l-.8833-3.74805Z"/><path class="cls-2" d="M212.07713,115.28645v.95117h-3.91748V108.2552h.99658v7.03125Z"/><path class="cls-2" d="M216.43748,114.15461h-2.25293l-.5664,2.083h-.97364l2.04932-7.98242h1.25684l2.03808,7.98242h-.98535Zm-2.01513-.95117h1.77734l-.8833-3.74805Z"/><path class="cls-2" d="M223.61766,113.62238v.59961a1.99967,1.99967,0,0,1-2.208,2.01563h-2.43408V108.2552h2.18506c1.31347,0,2.208.6455,2.208,1.82324v.53222a1.59376,1.59376,0,0,1-.73584,1.4043A1.7548,1.7548,0,0,1,223.61766,113.62238Zm-3.646-4.45019v2.48047H221.206c.73584,0,1.17724-.30664,1.17724-1.05371v-.48633c0-.65723-.4414-.94043-1.17724-.94043Zm2.64942,4.47265a1.02416,1.02416,0,0,0-1.166-1.08691h-1.4834v2.7627h1.47217a1.03614,1.03614,0,0,0,1.17725-1.09864Z"/><path class="cls-2" d="M224.831,108.2552h.99609v7.98242H224.831Z"/><path class="cls-2" d="M231.19481,115.28645v.95117h-3.91748V108.2552h.99609v7.03125Z"/><path class="cls-2" d="M232.23778,108.2552h.99658v7.98242h-.99658Z"/><path class="cls-2" d="M238.96385,109.19563h-1.97021v7.042h-.9961v-7.042h-1.97021v-.94043h4.93652Z"/><path class="cls-2" d="M242.32811,113.29426v2.94336h-.99658V113.305l-2.04932-5.06055h1.05322l1.50537,3.81543,1.49463-3.81543h1.04151Z"/><path class="cls-2" d="M251.01414,114.15461h-2.25293l-.5664,2.083h-.97364l2.04932-7.98242h1.25684l2.03808,7.98242h-.98535Zm-2.01513-.95117h1.77734l-.8833-3.74805Z"/><path class="cls-2" d="M258.19432,108.2552v7.98242h-.8833l-2.87549-6.001v6.001h-.8833V108.2552h.8833l2.87549,6.03515V108.2552Z"/><path class="cls-2" d="M264.37791,110.47492v3.544a2.17682,2.17682,0,0,1-2.44531,2.21875h-2.28711V108.2552h2.28711A2.17164,2.17164,0,0,1,264.37791,110.47492Zm-.99609.02246c0-.84961-.47559-1.30175-1.39258-1.30175h-1.34766v6.09082h1.34766c.917,0,1.39258-.44141,1.39258-1.291Z"/><path class="cls-2" d="M267.7661,114.10871v-.32812h.99658v.41894c0,.80371.58838,1.25684,1.44922,1.25684a1.24864,1.24864,0,0,0,1.39258-1.26758c0-1.9707-3.66846-1.37012-3.66846-3.95215a2.28162,2.28162,0,0,1,4.55127-.02246v.43066h-.9961v-.50976c0-.65625-.50976-1.0752-1.30224-1.0752a1.09532,1.09532,0,0,0-1.24512,1.12012c0,1.74414,3.65674,1.17773,3.668,3.918a2.42722,2.42722,0,0,1-4.8457.01074Z"/><path class="cls-2" d="M274.82127,109.19563v2.63769h2.40039v.95117h-2.40039v2.502h2.91016v.95117h-3.90625V108.2552h3.90625v.94043Z"/><path class="cls-2" d="M278.80809,114.12043v-3.75879a2.46628,2.46628,0,0,1,4.91406,0v.80371h-1.00781v-.76953c0-.86035-.48682-1.33594-1.438-1.33594-.97363,0-1.47168.47559-1.47168,1.33594V114.098c0,.84863.48682,1.33594,1.46045,1.33594.9624,0,1.44922-.48731,1.44922-1.33594v-.78125h1.00781v.80371a2.46627,2.46627,0,0,1-4.91406,0Z"/><path class="cls-2" d="M284.85594,114.12043V108.2552h.99658V114.098a1.38794,1.38794,0,0,0,2.77393,0V108.2552h.99609v5.86523a2.38641,2.38641,0,0,1-4.7666,0Z"/><path class="cls-2" d="M294.71922,116.23762l-1.31348-3.31739h-1.49462v3.31739h-.9961V108.2552h2.34375a2.00279,2.00279,0,0,1,2.27539,2.00488v.65625a1.83245,1.83245,0,0,1-1.14306,1.78906l1.36963,3.53223Zm-1.40381-4.26856c.80371,0,1.22266-.3623,1.22266-1.05273v-.65625c0-.70215-.41895-1.06445-1.21143-1.06445h-1.41552v2.77343Z"/><path class="cls-2" d="M296.92869,108.2552h.9961v7.98242h-.9961Z"/><path class="cls-2" d="M303.65477,109.19563h-1.97022v7.042h-.99609v-7.042h-1.97022v-.94043h4.93653Z"/><path class="cls-2" d="M307.019,113.29426v2.94336h-.99659V113.305l-2.04931-5.06055h1.05322l1.50586,3.81543,1.49414-3.81543h1.042Z"/><rect class="cls-2" x="37.93503" y="96.82549" width="108.76838" height="19.50532"/><path class="cls-2" d="M118.52586,74.16047h-1.90234l-.44141,1.7207h-1.35888l1.89111-8.01562h1.75488l1.8794,8.01562h-1.38135Zm-.93994-4.61914-.668,3.32812h1.32471Z"/><path class="cls-2" d="M126.01121,69.971v1.07519a2.08657,2.08657,0,0,1-2.30957,2.10645h-1.14355v2.72851h-1.39258V67.86555h2.53613A2.09166,2.09166,0,0,1,126.01121,69.971Zm-1.38134-.04493c0-.4873-.29444-.7705-.83789-.7705h-1.23389v2.706h1.22265c.55469,0,.84913-.2832.84913-.76953Z"/><path class="cls-2" d="M131.855,69.971v1.07519a2.08657,2.08657,0,0,1-2.30957,2.10645h-1.14355v2.72851h-1.39258V67.86555h2.53613A2.09166,2.09166,0,0,1,131.855,69.971Zm-1.38134-.04493c0-.4873-.29444-.7705-.83789-.7705h-1.23389v2.706h1.22265c.55469,0,.84913-.2832.84913-.76953Z"/><path class="cls-2" d="M135.02733,73.764V69.971a2.565,2.565,0,0,1,5.09472,0v.917h-1.40381V69.9593c0-.59961-.3623-.96192-1.13232-.96192-.79248,0-1.166.36231-1.166.96192v3.82715c0,.60058.37353.96289,1.15478.96289s1.14355-.36231,1.14355-.96289V72.847h1.40381v.917a2.56361,2.56361,0,0,1-5.09472,0Z"/><path class="cls-2" d="M141.08641,73.7757V69.99348a2.575,2.575,0,0,1,5.11767,0V73.7757a2.57808,2.57808,0,0,1-5.11767,0Zm3.7251.01075V69.971c0-.61133-.32862-.97364-1.16651-.97364s-1.166.36231-1.166.97364v3.81543c0,.60058.32812.96289,1.166.96289S144.81151,74.387,144.81151,73.78645Z"/><path class="cls-2" d="M152.18358,67.86555v8.01562h-1.21143l-2.49072-5.32129v5.32129h-1.2002V67.86555h1.2002l2.49072,5.332v-5.332Z"/><path class="cls-2" d="M157.91453,69.15559h-1.834v6.72558H154.688V69.15559H152.8535v-1.29h5.061Z"/><path class="cls-2" d="M158.59569,67.86555h1.39257v8.01562h-1.39257Z"/><path class="cls-2" d="M166.08006,67.86555v8.01562h-1.21142l-2.49073-5.32129v5.32129h-1.20019V67.86555h1.20019l2.49073,5.332v-5.332Z"/><path class="cls-2" d="M167.14647,73.7757V67.86555h1.39258v5.9209c0,.60058.32812.96289,1.06445.96289.7583,0,1.07519-.36231,1.07519-.96289v-5.9209h1.39258V73.7757a2.47112,2.47112,0,0,1-4.9248,0Z"/><path class="cls-2" d="M173.0244,73.7757V69.99348a2.575,2.575,0,0,1,5.11767,0V73.7757a2.57808,2.57808,0,0,1-5.11767,0Zm3.72509.01075V69.971c0-.61133-.32861-.97364-1.1665-.97364s-1.166.36231-1.166.97364v3.81543c0,.60058.32812.96289,1.166.96289S176.74949,74.387,176.74949,73.78645Z"/><path class="cls-2" d="M179.09471,73.7757V67.86555h1.39258v5.9209c0,.60058.32812.96289,1.06445.96289.7583,0,1.0752-.36231,1.0752-.96289v-5.9209h1.39257V73.7757a2.47112,2.47112,0,0,1-4.9248,0Z"/><path class="cls-2" d="M184.92723,73.60578V73.2884h1.39258V73.764c0,.67969.48681,1.01856,1.166,1.01856a.9893.9893,0,0,0,1.10987-.99609c0-1.69825-3.50977-1.24512-3.50977-3.82715a2.4017,2.4017,0,0,1,4.78906-.06739v.47559h-1.39257v-.57715c0-.47558-.40772-.793-1.019-.793a.86835.86835,0,0,0-.98486.88282c0,1.43847,3.50976,1.03027,3.50976,3.7705a2.28573,2.28573,0,0,1-2.5249,2.38868A2.31672,2.31672,0,0,1,184.92723,73.60578Z"/><path class="cls-2" d="M194.72313,69.15559v2.16308h2.13965v1.29h-2.13965v1.98145h2.61523v1.291h-4.00781V67.86555h4.00781v1.29Z"/><path class="cls-2" d="M203.23875,67.86555v8.01562h-1.21142l-2.49073-5.32129v5.32129h-1.20019V67.86555h1.20019l2.49073,5.332v-5.332Z"/><path class="cls-2" d="M209.47948,67.86555v8.01562h-1.39307V72.60871h-2.26416v3.27246h-1.39258V67.86555h1.39258v3.45312h2.26416V67.86555Z"/><path class="cls-2" d="M213.98729,74.16047h-1.90235l-.4414,1.7207h-1.35889l1.89111-8.01562h1.75489L215.81,75.88117h-1.38135Zm-.93994-4.61914-.668,3.32812h1.3247Z"/><path class="cls-2" d="M221.52928,67.86555v8.01562h-1.21143l-2.49072-5.32129v5.32129h-1.20019V67.86555h1.20019l2.49072,5.332v-5.332Z"/><path class="cls-2" d="M222.59569,73.764V69.971a2.565,2.565,0,0,1,5.09472,0v.917H226.2866V69.9593c0-.59961-.3623-.96192-1.13232-.96192-.79248,0-1.166.36231-1.166.96192v3.82715c0,.60058.37354.96289,1.15479.96289s1.14355-.36231,1.14355-.96289V72.847h1.40381v.917a2.56361,2.56361,0,0,1-5.09472,0Z"/><path class="cls-2" d="M230.17186,69.15559v2.16308h2.13965v1.29h-2.13965v1.98145h2.61523v1.291h-4.00781V67.86555h4.00781v1.29Z"/><path class="cls-2" d="M240.0576,75.88117h-1.189V69.94855l-1.44922,5.93262H236.4116l-1.44921-5.96679v5.96679h-1.17725V67.86555h1.63037l1.50586,5.37793,1.50586-5.37793h1.63037Z"/><path class="cls-2" d="M242.6411,69.15559v2.16308h2.13964v1.29H242.6411v1.98145h2.61523v1.291h-4.00781V67.86555h4.00781v1.29Z"/><path class="cls-2" d="M251.15672,67.86555v8.01562H249.9453l-2.49073-5.32129v5.32129h-1.20019V67.86555h1.20019l2.49073,5.332v-5.332Z"/><path class="cls-2" d="M256.88768,69.15559h-1.834v6.72558h-1.39257V69.15559h-1.83448v-1.29h5.061Z"/><path class="cls-2" d="M257.30858,73.60578V73.2884h1.39258V73.764c0,.67969.48681,1.01856,1.1665,1.01856a.98912.98912,0,0,0,1.10937-.99609c0-1.69825-3.50976-1.24512-3.50976-3.82715a2.4017,2.4017,0,0,1,4.78906-.06739v.47559h-1.39258v-.57715c0-.47558-.40771-.793-1.019-.793a.86835.86835,0,0,0-.98486.88282c0,1.43847,3.50976,1.03027,3.50976,3.7705a2.28573,2.28573,0,0,1-2.5249,2.38868A2.31672,2.31672,0,0,1,257.30858,73.60578Z"/><path class="cls-2" d="M119.624,80.16438h-1.97022v7.042h-.99609v-7.042h-1.97022V79.224H119.624Z"/><path class="cls-2" d="M123.271,85.12336h-2.25293l-.56641,2.083H119.478l2.04932-7.98242h1.25683l2.03809,7.98242h-.98535Zm-2.01514-.95117h1.77735l-.8833-3.74805Z"/><path class="cls-2" d="M129.61326,87.20637,128.29979,83.889h-1.49463v3.31739h-.99609V79.224h2.34375a2.00279,2.00279,0,0,1,2.27539,2.00488v.65625a1.83246,1.83246,0,0,1-1.14307,1.78906l1.36963,3.53223Zm-1.4038-4.26856c.80371,0,1.22265-.3623,1.22265-1.05273v-.65625c0-.70215-.41894-1.06445-1.21142-1.06445h-1.41553v2.77343Z"/><path class="cls-2" d="M135.59276,82.0091v-.64453c0-.86035-.53174-1.33594-1.46045-1.33594-.93946,0-1.47168.47559-1.47168,1.33594v3.70215a1.27616,1.27616,0,0,0,1.46045,1.33594c.93994,0,1.47168-.48731,1.47168-1.33594V83.95734h-1.4375v-.94043h2.42285v2.07227a2.4652,2.4652,0,0,1-4.91406,0V81.33039a2.46628,2.46628,0,0,1,4.91406,0v.67871Z"/><path class="cls-2" d="M138.86668,80.16438v2.63769h2.40039v.95117h-2.40039v2.502h2.91016v.95117h-3.90625V79.224h3.90625v.94043Z"/><path class="cls-2" d="M147.292,80.16438h-1.97022v7.042h-.99609v-7.042h-1.97022V79.224H147.292Z"/><path class="cls-2" d="M147.62157,81.48859h1.019v1.2002h-1.019Zm0,4.51758h1.019v1.2002h-1.019Z"/><path class="cls-2" d="M153.42039,80.16438v2.63769h2.39991v.95117h-2.39991v2.502h2.90967v.95117h-3.90625V79.224h3.90625v.94043Z"/><path class="cls-2" d="M161.39207,87.20637l-1.59619-3.0459-1.59619,3.0459h-1.06445l2.10595-4.09864L157.20311,79.224h1.10937l1.55127,2.95507,1.52832-2.95507H162.479l-2.07178,3.98535,2.09473,3.99707Z"/><path class="cls-2" d="M168.14207,81.22883V82.349a1.99857,1.99857,0,0,1-2.26465,2.0039H164.519v2.85352h-.99659V79.224h2.34375A2.00872,2.00872,0,0,1,168.14207,81.22883Zm-.99658,0c0-.70215-.41894-1.06445-1.21142-1.06445h-1.415v3.249h1.4038c.80372,0,1.22266-.36231,1.22266-1.06445Z"/><path class="cls-2" d="M172.14061,85.12336h-2.25293l-.56641,2.083h-.97363L170.397,79.224h1.25683l2.03809,7.98242h-.98535Zm-2.01514-.95117h1.77735l-.88331-3.74805Z"/><path class="cls-2" d="M179.32078,79.224v7.98242h-.8833l-2.87549-6.001v6.001h-.8833V79.224h.8833l2.87549,6.03515V79.224Z"/><path class="cls-2" d="M185.50438,81.44367v3.544a2.17683,2.17683,0,0,1-2.44531,2.21875H180.772V79.224h2.28711A2.17164,2.17164,0,0,1,185.50438,81.44367Zm-.9961.02246c0-.84961-.47558-1.30175-1.39257-1.30175H181.768V86.2552h1.34766c.917,0,1.39257-.44141,1.39257-1.291Z"/><path class="cls-2" d="M188.97166,85.08918V81.33039a2.46628,2.46628,0,0,1,4.91407,0v.80371h-1.00782v-.76953c0-.86035-.48681-1.33594-1.438-1.33594-.97363,0-1.47168.47559-1.47168,1.33594v3.70215c0,.84863.48682,1.33594,1.46045,1.33594.96241,0,1.44922-.48731,1.44922-1.33594v-.78125h1.00782v.80371a2.46628,2.46628,0,0,1-4.91407,0Z"/><path class="cls-2" d="M195.01951,85.08918V79.224h.99659v5.84277a1.38793,1.38793,0,0,0,2.77392,0V79.224h.9961v5.86523a2.38641,2.38641,0,0,1-4.76661,0Z"/><path class="cls-2" d="M200.8408,85.07746v-.32812h.99659v.41894c0,.80371.58837,1.25684,1.44921,1.25684a1.24864,1.24864,0,0,0,1.39258-1.26758c0-1.9707-3.66845-1.37012-3.66845-3.95215a2.28162,2.28162,0,0,1,4.55126-.02246v.43066h-.99609v-.50976c0-.65625-.50976-1.0752-1.30224-1.0752a1.09532,1.09532,0,0,0-1.24512,1.12012c0,1.74414,3.65674,1.17773,3.668,3.918a2.42722,2.42722,0,0,1-4.84571.01074Z"/><path class="cls-2" d="M211.0327,80.16438h-1.97022v7.042h-.99609v-7.042h-1.97022V79.224h4.93653Z"/><path class="cls-2" d="M211.521,85.08918V81.35285a2.47643,2.47643,0,0,1,4.93652,0v3.73633a2.47741,2.47741,0,0,1-4.93652,0Zm3.94043-.02246V81.37531c0-.86035-.43067-1.34668-1.47217-1.34668s-1.47168.48633-1.47168,1.34668v3.69141c0,.84863.43018,1.33594,1.47168,1.33594S215.46141,85.91535,215.46141,85.06672Z"/><path class="cls-2" d="M223.77342,87.20637h-.86084V80.74152l-1.77734,6.46485h-.74707l-1.77784-6.46485v6.46485H217.75V79.224h1.166l1.8457,6.126,1.85694-6.126h1.15478Z"/><path class="cls-2" d="M226.22117,80.16438v2.63769h2.39991v.95117h-2.39991v2.502h2.90967v.95117h-3.90625V79.224h3.90625v.94043Z"/><path class="cls-2" d="M234.17039,87.20637,232.85692,83.889h-1.49414v3.31739h-.99659V79.224h2.34375a2.0032,2.0032,0,0,1,2.27588,2.00488v.65625a1.83284,1.83284,0,0,1-1.14355,1.78906l1.36963,3.53223Zm-1.40381-4.26856c.80372,0,1.22266-.3623,1.22266-1.05273v-.65625c0-.70215-.41894-1.06445-1.21142-1.06445h-1.415v2.77343Z"/><path class="cls-2" d="M236.14207,85.07746v-.32812h.99659v.41894c0,.80371.58837,1.25684,1.44921,1.25684a1.24864,1.24864,0,0,0,1.39258-1.26758c0-1.9707-3.66846-1.37012-3.66846-3.95215a2.28162,2.28162,0,0,1,4.55127-.02246v.43066h-.99609v-.50976c0-.65625-.50976-1.0752-1.30225-1.0752a1.09532,1.09532,0,0,0-1.24511,1.12012c0,1.74414,3.65674,1.17773,3.668,3.918a2.42722,2.42722,0,0,1-4.84571.01074Z"/><rect class="cls-2" x="37.93503" y="67.79507" width="70.62133" height="19.50532"/><path class="cls-2" d="M77.26073,38.83625H78.6533v8.01563H77.26073Z"/><path class="cls-2" d="M84.7451,38.83625v8.01563H83.53367L81.043,41.53059v5.32129H79.84276V38.83625H81.043l2.49072,5.332v-5.332Z"/><path class="cls-2" d="M85.936,38.83625H87.3286v8.01563H85.936Z"/><path class="cls-2" d="M93.05809,40.12629h-1.834v6.72559H89.83153V40.12629H87.99705v-1.29h5.061Z"/><path class="cls-2" d="M93.73924,38.83625h1.39258v8.01563H93.73924Z"/><path class="cls-2" d="M99.62742,45.13117H97.72508l-.44141,1.72071H95.92479l1.89111-8.01563h1.75488l1.8794,8.01563h-1.38135ZM98.68748,40.512l-.668,3.32813h1.32471Z"/><path class="cls-2" d="M106.29783,45.56086v1.291h-4.03076V38.83625h1.39258v6.72461Z"/><path class="cls-2" d="M112.71922,45.13117h-1.90234l-.44141,1.72071h-1.35889l1.89112-8.01563h1.75488l1.8794,8.01563h-1.38135Zm-.93994-4.61914-.668,3.32813H112.436Z"/><path class="cls-2" d="M120.20457,40.94172v1.07519a2.08657,2.08657,0,0,1-2.30957,2.10645h-1.14355v2.72852h-1.39258V38.83625H117.895A2.09166,2.09166,0,0,1,120.20457,40.94172Zm-1.38134-.04492c0-.48731-.29444-.77051-.8379-.77051h-1.23388v2.70605h1.22265c.55469,0,.84913-.2832.84913-.76953Z"/><path class="cls-2" d="M126.04832,40.94172v1.07519a2.08657,2.08657,0,0,1-2.30957,2.10645H122.5952v2.72852h-1.39258V38.83625h2.53613A2.09166,2.09166,0,0,1,126.04832,40.94172ZM124.667,40.8968c0-.48731-.29444-.77051-.8379-.77051H122.5952v2.70605h1.22265c.55469,0,.84913-.2832.84913-.76953Z"/><path class="cls-2" d="M134.28172,41.08918V44.599a2.2398,2.2398,0,0,1-2.49121,2.25293H129.3452V38.83625h2.43408A2.249,2.249,0,0,1,134.28172,41.08918Zm-1.39258-.01172a.88261.88261,0,0,0-1.00781-.95117h-1.14355v5.43457h1.13232c.6792,0,1.019-.35059,1.019-.95117Z"/><path class="cls-2" d="M136.75145,40.12629v2.16309h2.13965v1.29h-2.13965v1.98145h2.61523v1.291h-4.00781V38.83625h4.00781v1.29Z"/><path class="cls-2" d="M145.21043,40.94172v1.07519a2.08657,2.08657,0,0,1-2.30957,2.10645h-1.14355v2.72852h-1.39258V38.83625h2.53613A2.09166,2.09166,0,0,1,145.21043,40.94172Zm-1.38135-.04492c0-.48731-.29443-.77051-.83789-.77051h-1.23388v2.70605H142.98c.55469,0,.84912-.2832.84912-.76953Z"/><path class="cls-2" d="M150.23924,45.56086v1.291h-4.03076V38.83625h1.39258v6.72461Z"/><path class="cls-2" d="M150.93114,44.74641V40.96418a2.575,2.575,0,0,1,5.11767,0v3.78223a2.57808,2.57808,0,0,1-5.11767,0Zm3.72509.01074V40.94172c0-.61133-.32861-.97363-1.1665-.97363s-1.166.3623-1.166.97363v3.81543c0,.60058.32813.96289,1.166.96289S154.65623,45.35773,154.65623,44.75715Z"/><path class="cls-2" d="M159.93407,44.07844v2.77344h-1.39258V44.055l-2.061-5.21875h1.4834l1.29053,3.543,1.291-3.543h1.46045Z"/><path class="cls-2" d="M169.084,46.85188h-1.189V40.91926l-1.44922,5.93262H165.438l-1.44922-5.9668v5.9668h-1.17724V38.83625h1.63037l1.50586,5.37793,1.50586-5.37793H169.084Z"/><path class="cls-2" d="M171.66746,40.12629v2.16309h2.13965v1.29h-2.13965v1.98145h2.61524v1.291h-4.00781V38.83625h4.00781v1.29Z"/><path class="cls-2" d="M180.18309,38.83625v8.01563h-1.21143l-2.49072-5.32129v5.32129h-1.2002V38.83625h1.2002l2.49072,5.332v-5.332Z"/><path class="cls-2" d="M185.91405,40.12629h-1.834v6.72559h-1.39258V40.12629H180.853v-1.29h5.061Z"/><path class="cls-2" d="M81.665,51.13508H79.69481v7.042h-.9961v-7.042H76.7285v-.94043H81.665Z"/><path class="cls-2" d="M85.312,56.09406H83.05907l-.56641,2.083H81.519l2.04931-7.98242h1.25684l2.03808,7.98242h-.98535Zm-2.01513-.95117H85.0742l-.8833-3.748Z"/><path class="cls-2" d="M91.65428,58.17707,90.3408,54.85969H88.84617v3.31738h-.99609V50.19465h2.34375a2.00279,2.00279,0,0,1,2.27539,2.00488v.65625a1.83246,1.83246,0,0,1-1.14306,1.78906l1.36962,3.53223Zm-1.40381-4.26855c.80371,0,1.22266-.36231,1.22266-1.05274v-.65625c0-.70215-.41895-1.06445-1.21143-1.06445H88.84617v2.77344Z"/><path class="cls-2" d="M97.63377,52.9798v-.64453c0-.86035-.53174-1.33593-1.46045-1.33593-.93945,0-1.47168.47558-1.47168,1.33593v3.70215a1.27616,1.27616,0,0,0,1.46045,1.33594c.93994,0,1.47168-.48731,1.47168-1.33594V54.92805h-1.4375v-.94043h2.42285v2.07226a2.4652,2.4652,0,0,1-4.91406,0V52.30109a2.46628,2.46628,0,0,1,4.91406,0v.67871Z"/><path class="cls-2" d="M100.9077,51.13508v2.63769h2.40039V54.724H100.9077v2.502h2.91015v.95117H99.9116V50.19465h3.90625v.94043Z"/><path class="cls-2" d="M109.333,51.13508h-1.97021v7.042h-.9961v-7.042h-1.97021v-.94043H109.333Z"/><path class="cls-2" d="M109.66258,52.4593h1.019v1.20019h-1.019Zm0,4.51758h1.019v1.20019h-1.019Z"/><path class="cls-2" d="M114.30614,56.05988V52.30109a2.46628,2.46628,0,0,1,4.91406,0v.80371h-1.00781v-.76953c0-.86035-.48682-1.33593-1.438-1.33593-.97364,0-1.47168.47558-1.47168,1.33593v3.70215c0,.84863.48681,1.33594,1.46045,1.33594.9624,0,1.44922-.48731,1.44922-1.33594v-.78125h1.00781v.80371a2.46627,2.46627,0,0,1-4.91406,0Z"/><path class="cls-2" d="M120.354,56.05988V50.19465h.99658v5.84277a1.38793,1.38793,0,0,0,2.77392,0V50.19465h.9961v5.86523a2.38641,2.38641,0,0,1-4.7666,0Z"/><path class="cls-2" d="M126.17528,56.04816V55.72h.99658V56.139c0,.80372.58838,1.25684,1.44922,1.25684a1.24864,1.24864,0,0,0,1.39258-1.26758c0-1.9707-3.66846-1.37011-3.66846-3.95215a2.28162,2.28162,0,0,1,4.55127-.02246v.43067h-.9961v-.50977c0-.65625-.50976-1.07519-1.30224-1.07519a1.09532,1.09532,0,0,0-1.24512,1.12011c0,1.74414,3.65674,1.17774,3.668,3.918a2.42722,2.42722,0,0,1-4.8457.01074Z"/><path class="cls-2" d="M136.36717,51.13508H134.397v7.042h-.9961v-7.042h-1.97021v-.94043h4.93652Z"/><path class="cls-2" d="M136.85545,56.05988V52.32355a2.47644,2.47644,0,0,1,4.93653,0v3.73633a2.47742,2.47742,0,0,1-4.93653,0Zm3.94043-.02246V52.346c0-.86036-.43017-1.34668-1.47217-1.34668-1.0415,0-1.47168.48632-1.47168,1.34668v3.6914c0,.84863.43018,1.33594,1.47168,1.33594C140.36571,57.37336,140.79588,56.88605,140.79588,56.03742Z"/><path class="cls-2" d="M149.10789,58.17707h-.86035V51.71223l-1.77783,6.46484h-.74707l-1.77783-6.46484v6.46484h-.86035V50.19465h1.166l1.8457,6.126,1.85694-6.126h1.15478Z"/><path class="cls-2" d="M151.55516,51.13508v2.63769h2.40039V54.724h-2.40039v2.502h2.91016v.95117h-3.90625V50.19465h3.90625v.94043Z"/><path class="cls-2" d="M159.50487,58.17707l-1.31348-3.31738h-1.49463v3.31738h-.99609V50.19465h2.34375a2.0028,2.0028,0,0,1,2.27539,2.00488v.65625a1.83246,1.83246,0,0,1-1.14307,1.78906l1.36963,3.53223Zm-1.40381-4.26855c.80371,0,1.22265-.36231,1.22265-1.05274v-.65625c0-.70215-.41894-1.06445-1.21142-1.06445h-1.41553v2.77344Z"/><path class="cls-2" d="M167.36473,56.09406H165.1118l-.56641,2.083h-.97363l2.04932-7.98242h1.25683l2.03809,7.98242h-.98535Zm-2.01514-.95117h1.77735l-.8833-3.748Z"/><path class="cls-2" d="M169.60838,56.05988V52.30109a2.46628,2.46628,0,0,1,4.91406,0v.80371h-1.00781v-.76953c0-.86035-.48681-1.33593-1.438-1.33593-.97363,0-1.47168.47558-1.47168,1.33593v3.70215c0,.84863.48682,1.33594,1.46045,1.33594.96241,0,1.44922-.48731,1.44922-1.33594v-.78125h1.00781v.80371a2.46627,2.46627,0,0,1-4.91406,0Z"/><path class="cls-2" d="M180.208,59.52473l-2.07226-1.2002h-.01124a2.19515,2.19515,0,0,1-2.46826-2.26465V52.32355a2.47644,2.47644,0,0,1,4.93653,0v3.73633a2.1029,2.1029,0,0,1-1.08692,1.959l1.15479.65625Zm-2.0835-2.15137c1.042,0,1.47217-.48731,1.47217-1.33594V52.346c0-.86036-.43017-1.34668-1.47217-1.34668-1.0415,0-1.47167.48632-1.47167,1.34668v3.6914C176.65282,56.88605,177.083,57.37336,178.12449,57.37336Z"/><path class="cls-2" d="M181.772,56.05988V50.19465h.99658v5.84277a1.38793,1.38793,0,0,0,2.77392,0V50.19465h.9961v5.86523a2.38641,2.38641,0,0,1-4.7666,0Z"/><path class="cls-2" d="M187.831,50.19465h.99658v7.98242H187.831Z"/><path class="cls-2" d="M190.03953,56.04816V55.72h.99659V56.139c0,.80372.58837,1.25684,1.44921,1.25684a1.24864,1.24864,0,0,0,1.39258-1.26758c0-1.9707-3.66845-1.37011-3.66845-3.95215a2.28162,2.28162,0,0,1,4.55127-.02246v.43067h-.9961v-.50977c0-.65625-.50976-1.07519-1.30224-1.07519a1.09532,1.09532,0,0,0-1.24512,1.12011c0,1.74414,3.65674,1.17774,3.668,3.918a2.42722,2.42722,0,0,1-4.84571.01074Z"/><path class="cls-2" d="M196.09862,50.19465h.99658v7.98242h-.99658Z"/><path class="cls-2" d="M202.82469,51.13508h-1.97021v7.042h-.9961v-7.042h-1.97021v-.94043h4.93652Z"/><path class="cls-2" d="M203.61864,50.19465h.99609v7.98242h-.99609Z"/><path class="cls-2" d="M205.90623,56.05988V52.32355a2.47644,2.47644,0,0,1,4.93653,0v3.73633a2.47742,2.47742,0,0,1-4.93653,0Zm3.94043-.02246V52.346c0-.86036-.43017-1.34668-1.47217-1.34668-1.0415,0-1.47167.48632-1.47167,1.34668v3.6914c0,.84863.43017,1.33594,1.47167,1.33594C209.41649,57.37336,209.84666,56.88605,209.84666,56.03742Z"/><path class="cls-2" d="M216.77733,50.19465v7.98242h-.8833l-2.87549-6.001v6.001h-.8833V50.19465h.8833L215.894,56.2298V50.19465Z"/><rect class="cls-2" x="37.93503" y="38.76465" width="32.66253" height="19.50532"/><path class="cls-1" d="M61.61375,50.88508v.95117h-3.272v-.95117h1.13184V44.79426H58.34178v-.94043H60.4702v7.03125Z"/><path class="cls-1" d="M62.59959,50.63605h1.03028v1.2002H62.59959Z"/><path class="cls-1" d="M97.45506,79.85383h3.43018V80.805h-4.4834v-.56641c0-2.47949,3.53271-3.125,3.53271-5.21875v-.3291a1.0573,1.0573,0,0,0-1.20019-1.06347c-.79248,0-1.25684.498-1.25684,1.40332v.43066h-.99658v-.43066a2.18808,2.18808,0,0,1,2.26465-2.3545,2.02929,2.02929,0,0,1,2.18506,2.04883v.35156C100.93065,77.61262,97.55662,78.13313,97.45506,79.85383Z"/><path class="cls-1" d="M101.92869,79.6048H102.959V80.805h-1.03028Z"/><path class="cls-1" d="M138.96434,107.2591v.63477a2.18746,2.18746,0,0,1-4.37012-.05664v-.58887h.9961v.58887a1.0804,1.0804,0,0,0,1.17773,1.166,1.06182,1.06182,0,0,0,1.20019-1.10937v-.62305a.98146.98146,0,0,0-1.09814-1.06445h-.99658v-.93946h.99658a.94554.94554,0,0,0,1.064-1.00781V103.682a1.02079,1.02079,0,0,0-1.166-1.05273,1.08008,1.08008,0,0,0-1.17773,1.166v.56543h-.9961v-.56543a2.05679,2.05679,0,0,1,2.1626-2.11718,2.01069,2.01069,0,0,1,2.17383,2.0039v.58887a1.85628,1.85628,0,0,1-.65674,1.46A1.92221,1.92221,0,0,1,138.96434,107.2591Z"/><path class="cls-1" d="M140.042,108.60676h1.03027V109.807H140.042Z"/><path class="cls-1" d="M176.10741,133.6009v4.98144h-.9961v-1.7998H171.873v-.95117l1.9248-5.23145h1.05323l-1.936,5.23145h2.19629V133.6009Z"/><path class="cls-1" d="M177.2866,137.38215h1.03028v1.20019H177.2866Z"/><path class="cls-1" d="M214.74608,165.222v.90625a2.19094,2.19094,0,0,1-4.38135-.01172v-.80371h.99609v.82617a1.19465,1.19465,0,1,0,2.38916.01172v-.95117a.99121.99121,0,0,0-1.10937-1.08691h-2.02686v-3.96289h3.895v.94043h-2.89844v2.09472h1.04151A1.952,1.952,0,0,1,214.74608,165.222Z"/><path class="cls-1" d="M215.64256,166.932h1.03027v1.2002h-1.03027Z"/><polyline class="cls-3" points="37.735 28.41 37.735 183.993 502.573 183.993"/><path class="cls-4" d="M37.78709,198.01105v-3.25878a1.781,1.781,0,0,1,3.55664,0v.84668H40.23631v-.88282a.6729.6729,0,0,0-1.3418,0v3.33106a.6729.6729,0,0,0,1.3418,0v-.8916h1.10742v.85546a1.781,1.781,0,0,1-3.55664,0Z"/><path class="cls-4" d="M41.97166,198.02961v-1.49512a1.557,1.557,0,1,1,3.10645,0v1.49512a1.557,1.557,0,1,1-3.10645,0Zm2.03516.07129v-1.6377c0-.415-.18945-.60351-.47754-.60351-.29687,0-.48633.18847-.48633.60351v1.6377c0,.41406.18946.60351.47754.60351C43.81737,198.70441,44.00682,198.515,44.00682,198.1009Z"/><path class="cls-4" d="M45.581,198.24543v-.09961h1.03515v.09961a.43891.43891,0,0,0,.459.459.40188.40188,0,0,0,.46-.41406c0-.71094-1.81934-.49512-1.81934-2.02539a1.31832,1.31832,0,0,1,1.39551-1.39551,1.3471,1.3471,0,0,1,1.44043,1.4043v.08984H47.51658V196.265a.37172.37172,0,0,0-.39648-.40527.32758.32758,0,0,0-.36914.35058c0,.69336,1.81934.52246,1.81934,2.06153a1.375,1.375,0,0,1-1.49512,1.42285A1.40143,1.40143,0,0,1,45.581,198.24543Z"/><path class="cls-4" d="M50.46873,195.98566v1.72852c0,.63867.14356.86426.52246.86426h.31446v.99023h-.72852c-.84668,0-1.17969-.45019-1.17969-1.6748v-1.90821h-.59472v-.99023h.59472v-1.30566h1.07129v1.30566h.83692v.99023Z"/><path class="cls-4" d="M53.34862,198.02961v-1.49512a1.557,1.557,0,1,1,3.10644,0v1.49512a1.557,1.557,0,1,1-3.10644,0Zm2.03515.07129v-1.6377c0-.415-.18945-.60351-.47754-.60351-.29687,0-.48632.18847-.48632.60351v1.6377c0,.41406.18945.60351.47753.60351C55.19432,198.70441,55.38377,198.515,55.38377,198.1009Z"/><path class="cls-4" d="M59.19041,195.98566h-.8457v3.583H57.27342v-3.583h-.48633v-.99023h.48633v-.62988c0-1.08106.54-1.72852,1.50293-1.72852h.40527v.99024h-.207c-.49511,0-.62988.21582-.62988.90039v.46777h.8457Z"/><path class="cls-4" d="M61.15233,198.01105v-3.25878a1.781,1.781,0,0,1,3.55664,0v3.25878a1.781,1.781,0,0,1-3.55664,0Zm2.44922.03614v-3.33106c0-.38672-.19825-.62109-.667-.62109-.47656,0-.6748.23437-.6748.62109v3.33106c0,.38672.19824.62109.666.62109C63.4033,198.66828,63.60155,198.43391,63.60155,198.04719Z"/><path class="cls-4" d="M68.50584,196.49836v1.56641c0,1.07226-.48633,1.62988-1.32324,1.62988a1.35523,1.35523,0,0,1-.70215-.19824V201.639H65.40916v-6.64355h.71973l.127.24316a1.39275,1.39275,0,0,1,.92676-.36914C68.01951,194.86945,68.50584,195.42707,68.50584,196.49836Zm-1.07129-.00879c0-.41406-.14355-.62988-.48632-.62988a.46844.46844,0,0,0-.46778.37793v2.08886a.46844.46844,0,0,0,.46778.37793c.34277,0,.48632-.21582.48632-.62988Z"/><path class="cls-4" d="M72.26756,196.49836v1.56641c0,1.07226-.48633,1.62988-1.32324,1.62988a1.35521,1.35521,0,0,1-.70215-.19824V201.639H69.17088v-6.64355h.71973l.127.24316a1.39275,1.39275,0,0,1,.92676-.36914C71.78123,194.86945,72.26756,195.42707,72.26756,196.49836Zm-1.07129-.00879c0-.41406-.14355-.62988-.48633-.62988a.46842.46842,0,0,0-.46777.37793v2.08886a.46842.46842,0,0,0,.46777.37793c.34278,0,.48633-.21582.48633-.62988Z"/><path class="cls-4" d="M75.96678,196.53449v1.07129H73.93162v.60352c0,.40527.18946.59375.48633.59375.2793,0,.46778-.17969.46778-.585v-.10743H75.957a1.44288,1.44288,0,0,1-1.54785,1.584,1.49925,1.49925,0,0,1-1.54883-1.665v-1.49512a1.557,1.557,0,1,1,3.10645,0Zm-1.07129.28809v-.459c0-.41406-.18066-.60351-.47754-.60351s-.48633.18945-.48633.60351v.459Z"/><path class="cls-4" d="M78.7744,194.92316v.94532a.63267.63267,0,0,0-.21582-.03614.86278.86278,0,0,0-.85547.86426v2.87207H76.63182v-4.57324h.71973l.18066.36035a1.69976,1.69976,0,0,1,1.10742-.4414A.65192.65192,0,0,1,78.7744,194.92316Z"/><path class="cls-4" d="M82.23045,194.99543v4.57324h-.71094l-.126-.25195a1.36822,1.36822,0,0,1-.93653.37793c-.83691,0-1.32324-.55762-1.32324-1.62988v-1.56641c0-1.07129.48633-1.62891,1.32324-1.62891a1.36822,1.36822,0,0,1,.93653.37793l.126-.25195ZM81.16893,198.263v-1.96192a.46566.46566,0,0,0-.47754-.4414c-.3418,0-.48633.21582-.48633.62988v1.585c0,.41406.14453.62988.48633.62988A.46566.46566,0,0,0,81.16893,198.263Z"/><path class="cls-4" d="M84.28221,195.98566v1.72852c0,.63867.14355.86426.52246.86426h.31445v.99023h-.72851c-.84668,0-1.17969-.45019-1.17969-1.6748v-1.90821h-.59473v-.99023h.59473v-1.30566h1.07129v1.30566h.83691v.99023Z"/><path class="cls-4" d="M85.5869,193.26691h1.09863v1.14356H85.5869Zm.00879,1.72852H86.667v4.57324H85.59569Z"/><path class="cls-4" d="M87.35936,198.02961v-1.49512a1.557,1.557,0,1,1,3.10644,0v1.49512a1.557,1.557,0,1,1-3.10644,0Zm2.03515.07129v-1.6377c0-.415-.18945-.60351-.47753-.60351-.29688,0-.48633.18847-.48633.60351v1.6377c0,.41406.18945.60351.47754.60351C89.20506,198.70441,89.39451,198.515,89.39451,198.1009Z"/><path class="cls-4" d="M94.22752,196.49836v3.07031H93.15623v-3.0791c0-.41406-.14355-.62988-.46777-.62988a.45607.45607,0,0,0-.48633.37793v3.33105H91.13084v-4.57324h.64844l.1709.2793a1.36274,1.36274,0,0,1,.96289-.40528C93.74119,194.86945,94.22752,195.42707,94.22752,196.49836Z"/><path class="cls-4" d="M94.7578,198.24543v-.09961H95.793v.09961a.43891.43891,0,0,0,.459.459.40107.40107,0,0,0,.459-.41406c0-.71094-1.81836-.49512-1.81836-2.02539a1.31832,1.31832,0,0,1,1.39551-1.39551,1.3471,1.3471,0,0,1,1.44043,1.4043v.08984H96.69334V196.265a.37172.37172,0,0,0-.39648-.40527.32758.32758,0,0,0-.36914.35058c0,.69336,1.81933.52246,1.81933,2.06153a1.375,1.375,0,0,1-1.49511,1.42285A1.40143,1.40143,0,0,1,94.7578,198.24543Z"/><path class="cls-4" d="M99.42967,199.56867l-.43262,1.38672h-.459l.21582-1.38672H98.331v-1.15234h1.09863Z"/><path class="cls-4" d="M101.78709,198.01105v-3.25878a1.781,1.781,0,0,1,3.55664,0v.84668h-1.10742v-.88282a.6729.6729,0,0,0-1.3418,0v3.33106a.6729.6729,0,0,0,1.3418,0v-.8916h1.10742v.85546a1.781,1.781,0,0,1-3.55664,0Z"/><path class="cls-4" d="M109.042,194.99543v4.57324h-.64844l-.1709-.27929a1.36278,1.36278,0,0,1-.96289.40527c-.80176,0-1.26074-.55762-1.26074-1.62988v-3.06934h1.07129v3.0791c0,.41406.126.62988.41406.62988a.45768.45768,0,0,0,.48633-.4414v-3.26758Z"/><path class="cls-4" d="M109.61717,198.24543v-.09961h1.03516v.09961a.43891.43891,0,0,0,.459.459.40108.40108,0,0,0,.459-.41406c0-.71094-1.81836-.49512-1.81836-2.02539a1.31832,1.31832,0,0,1,1.3955-1.39551,1.3471,1.3471,0,0,1,1.44043,1.4043v.08984h-1.03515V196.265a.37172.37172,0,0,0-.39649-.40527.32759.32759,0,0,0-.36914.35058c0,.69336,1.81934.52246,1.81934,2.06153a1.375,1.375,0,0,1-1.49512,1.42285A1.40143,1.40143,0,0,1,109.61717,198.24543Z"/><path class="cls-4" d="M114.50487,195.98566v1.72852c0,.63867.14355.86426.52246.86426h.31445v.99023h-.72852c-.84668,0-1.17968-.45019-1.17968-1.6748v-1.90821h-.59473v-.99023h.59473v-1.30566h1.07129v1.30566h.83691v.99023Z"/><path class="cls-4" d="M115.7285,198.02961v-1.49512a1.557,1.557,0,1,1,3.10644,0v1.49512a1.557,1.557,0,1,1-3.10644,0Zm2.03516.07129v-1.6377c0-.415-.18946-.60351-.47754-.60351-.29688,0-.48633.18847-.48633.60351v1.6377c0,.41406.18945.60351.47754.60351C117.5742,198.70441,117.76366,198.515,117.76366,198.1009Z"/><path class="cls-4" d="M124.415,196.49836v3.07031h-1.07129v-3.0791c0-.41406-.126-.62988-.41406-.62988a.44526.44526,0,0,0-.44043.4414v3.26758H121.418v-3.0791c0-.41406-.127-.62988-.40527-.62988a.44174.44174,0,0,0-.44141.37793v3.33105H119.5v-4.57324h.64844l.1709.2793a1.378,1.378,0,0,1,.96289-.40528,1.1167,1.1167,0,0,1,.93652.43164,1.34764,1.34764,0,0,1,.98145-.43164C123.96483,194.86945,124.415,195.42707,124.415,196.49836Z"/><path class="cls-4" d="M128.13182,196.53449v1.07129h-2.03516v.60352c0,.40527.18946.59375.48633.59375.2793,0,.46777-.17969.46777-.585v-.10743h1.07129a1.44288,1.44288,0,0,1-1.54785,1.584,1.49925,1.49925,0,0,1-1.54883-1.665v-1.49512a1.557,1.557,0,1,1,3.10645,0Zm-1.07129.28809v-.459c0-.41406-.18066-.60351-.47754-.60351s-.48633.18945-.48633.60351v.459Z"/><path class="cls-4" d="M130.93944,194.92316v.94532a.63267.63267,0,0,0-.21582-.03614.86278.86278,0,0,0-.85547.86426v2.87207h-1.07129v-4.57324h.71972l.18067.36035a1.69782,1.69782,0,0,1,1.10742-.4414A.65192.65192,0,0,1,130.93944,194.92316Z"/><path class="cls-4" d="M135.458,195.4632v-.74707a.6729.6729,0,0,0-1.3418,0v3.33106a.6729.6729,0,0,0,1.3418,0v-.85547h-.63965v-1.02637h1.7461v1.8457a1.78047,1.78047,0,0,1-3.55567,0v-3.25878a1.78047,1.78047,0,0,1,3.55567,0v.71093Z"/><path class="cls-4" d="M139.40819,194.92316v.94532a.63267.63267,0,0,0-.21582-.03614.86278.86278,0,0,0-.85547.86426v2.87207h-1.07129v-4.57324h.71972l.18067.36035a1.69782,1.69782,0,0,1,1.10742-.4414A.65192.65192,0,0,1,139.40819,194.92316Z"/><path class="cls-4" d="M139.76658,198.02961v-1.49512a1.557,1.557,0,1,1,3.10645,0v1.49512a1.557,1.557,0,1,1-3.10645,0Zm2.03516.07129v-1.6377c0-.415-.18945-.60351-.47754-.60351-.29687,0-.48633.18847-.48633.60351v1.6377c0,.41406.18946.60351.47754.60351C141.61229,198.70441,141.80174,198.515,141.80174,198.1009Z"/><path class="cls-4" d="M148.39061,194.99543l-1.01758,4.57324h-.93652l-.62989-2.32226-.63867,2.32226h-.92773l-1.01758-4.57324h1.08984l.50391,3.18652.60352-3.18652h.77343l.60352,3.18652.5039-3.18652Z"/><path class="cls-4" d="M150.12694,195.98566v1.72852c0,.63867.14355.86426.52246.86426h.31445v.99023h-.72852c-.84667,0-1.17968-.45019-1.17968-1.6748v-1.90821h-.59473v-.99023h.59473v-1.30566h1.07129v1.30566h.83691v.99023Z"/><path class="cls-4" d="M154.51951,196.49836v3.07031h-1.07128v-3.07031c0-.4043-.15332-.62109-.48633-.62109a.43617.43617,0,0,0-.46778.3789v3.3125h-1.07129V192.637h1.07129v2.43067a1.36266,1.36266,0,0,1,.71094-.19825C154.0244,194.86945,154.51951,195.42707,154.51951,196.49836Z"/><path class="cls-4" d="M156.31053,199.56867l-.43262,1.38672h-.459l.21582-1.38672h-.42285v-1.15234h1.09863Z"/><path class="cls-4" d="M161.7285,194.99543v4.57324h-.71094l-.126-.25195a1.36819,1.36819,0,0,1-.93652.37793c-.83691,0-1.32324-.55762-1.32324-1.62988v-1.56641c0-1.07129.48633-1.62891,1.32324-1.62891a1.36819,1.36819,0,0,1,.93652.37793l.126-.25195ZM160.667,198.263v-1.96192a.46566.46566,0,0,0-.47754-.4414c-.3418,0-.48633.21582-.48633.62988v1.585c0,.41406.14453.62988.48633.62988A.46566.46566,0,0,0,160.667,198.263Z"/><path class="cls-4" d="M165.56248,196.49836v3.07031h-1.07129v-3.0791c0-.41406-.14355-.62988-.46777-.62988a.45607.45607,0,0,0-.48633.37793v3.33105H162.4658v-4.57324h.64844l.1709.2793a1.36274,1.36274,0,0,1,.96289-.40528C165.07616,194.86945,165.56248,195.42707,165.56248,196.49836Z"/><path class="cls-4" d="M169.27928,192.637v6.93164h-.71094l-.126-.25195a1.36823,1.36823,0,0,1-.93653.37793c-.83691,0-1.32324-.55762-1.32324-1.62988v-1.56641c0-1.07129.48633-1.62891,1.32324-1.62891a1.4132,1.4132,0,0,1,.71192.207V192.637Zm-1.06152,5.626v-1.96192a.46566.46566,0,0,0-.47754-.4414c-.3418,0-.48633.21582-.48633.62988v1.585c0,.41406.14453.62988.48633.62988A.46566.46566,0,0,0,168.21776,198.263Z"/><path class="cls-4" d="M171.61912,197.83137v-.27051h1.10743v.40527a.6472.6472,0,0,0,.6748.73828.65919.65919,0,0,0,.64844-.74707c0-1.29687-2.31348-1.17968-2.31348-3.124a1.61464,1.61464,0,0,1,1.68262-1.76465,1.55313,1.55313,0,0,1,1.6748,1.64746v.41407h-1.10742v-.50391a.52505.52505,0,0,0-.56738-.53125c-.333,0-.56641.22461-.56641.65723,0,1.11621,2.31348.98144,2.31348,3.0791a1.77561,1.77561,0,1,1-3.54688,0Z"/><path class="cls-4" d="M178.8828,196.53449v1.07129h-2.03516v.60352c0,.40527.18945.59375.48633.59375.27929,0,.46777-.17969.46777-.585v-.10743H178.873a1.44288,1.44288,0,0,1-1.54785,1.584,1.49925,1.49925,0,0,1-1.54883-1.665v-1.49512a1.557,1.557,0,1,1,3.10645,0Zm-1.07129.28809v-.459c0-.41406-.18067-.60351-.47754-.60351s-.48633.18945-.48633.60351v.459Z"/><path class="cls-4" d="M181.69041,194.92316v.94532a.63263.63263,0,0,0-.21582-.03614.86278.86278,0,0,0-.85547.86426v2.87207h-1.07129v-4.57324h.71973l.18067.36035a1.69976,1.69976,0,0,1,1.10742-.4414A.65177.65177,0,0,1,181.69041,194.92316Z"/><path class="cls-4" d="M185.20018,194.99543l-1.03516,4.57324h-1.30566l-1.03516-4.57324h1.08106l.63867,3.40332.56738-3.40332Z"/><path class="cls-4" d="M185.63182,193.26691h1.09863v1.14356h-1.09863Zm.00879,1.72852h1.07129v4.57324h-1.07129Z"/><path class="cls-4" d="M187.40428,198.02961v-1.49512a1.5317,1.5317,0,1,1,3.05176,0v.30664h-1.07129v-.38769c0-.40528-.18848-.59375-.4502-.59375-.26953,0-.459.18847-.459.60351v1.6377c0,.41406.18945.60351.459.60351.26172,0,.4502-.18945.4502-.59375V197.723H190.456v.30664a1.5317,1.5317,0,1,1-3.05176,0Z"/><path class="cls-4" d="M194.15526,196.53449v1.07129H192.1201v.60352c0,.40527.18945.59375.48633.59375.2793,0,.46777-.17969.46777-.585v-.10743h1.07129a1.44288,1.44288,0,0,1-1.54785,1.584,1.49925,1.49925,0,0,1-1.54883-1.665v-1.49512a1.557,1.557,0,1,1,3.10645,0Zm-1.07129.28809v-.459c0-.41406-.18067-.60351-.47754-.60351s-.48633.18945-.48633.60351v.459Z"/><path class="cls-4" d="M199.94237,194.82453v.97168a1.6176,1.6176,0,0,1-1.75489,1.62109h-.55859v2.15137h-1.10742v-6.374h1.65625A1.62722,1.62722,0,0,1,199.94237,194.82453Zm-1.10743-.03613a.52592.52592,0,0,0-.585-.56738h-.62109v2.16992H198.25a.51957.51957,0,0,0,.585-.5586Z"/><path class="cls-4" d="M203.55174,196.53449v1.07129h-2.03516v.60352c0,.40527.18946.59375.48633.59375.2793,0,.46778-.17969.46778-.585v-.10743H203.542a1.44289,1.44289,0,0,1-1.54786,1.584,1.49924,1.49924,0,0,1-1.54882-1.665v-1.49512a1.557,1.557,0,1,1,3.10644,0Zm-1.07129.28809v-.459c0-.41406-.18066-.60351-.47754-.60351s-.48633.18945-.48633.60351v.459Z"/><path class="cls-4" d="M206.35936,194.92316v.94532a.63267.63267,0,0,0-.21582-.03614.86278.86278,0,0,0-.85547.86426v2.87207h-1.07129v-4.57324h.71973l.18066.36035a1.69782,1.69782,0,0,1,1.10742-.4414A.65187.65187,0,0,1,206.35936,194.92316Z"/><path class="cls-4" d="M208.87889,195.98566h-.8457v3.583H206.9619v-3.583h-.48633v-.99023h.48633v-.62988c0-1.08106.54-1.72852,1.50293-1.72852h.40527v.99024h-.207c-.49512,0-.62988.21582-.62988.90039v.46777h.8457Z"/><path class="cls-4" d="M209.1035,198.02961v-1.49512a1.557,1.557,0,1,1,3.10644,0v1.49512a1.557,1.557,0,1,1-3.10644,0Zm2.03516.07129v-1.6377c0-.415-.18946-.60351-.47754-.60351-.29688,0-.48633.18847-.48633.60351v1.6377c0,.41406.18945.60351.47754.60351C210.9492,198.70441,211.13866,198.515,211.13866,198.1009Z"/><path class="cls-4" d="M215.01756,194.92316v.94532a.63263.63263,0,0,0-.21582-.03614.86278.86278,0,0,0-.85547.86426v2.87207H212.875v-4.57324h.71973l.18066.36035a1.69786,1.69786,0,0,1,1.10743-.4414A.65177.65177,0,0,1,215.01756,194.92316Z"/><path class="cls-4" d="M220.38182,196.49836v3.07031h-1.07129v-3.0791c0-.41406-.126-.62988-.41406-.62988a.44526.44526,0,0,0-.44043.4414v3.26758h-1.07129v-3.0791c0-.41406-.12695-.62988-.40527-.62988a.44173.44173,0,0,0-.44141.37793v3.33105h-1.07129v-4.57324h.64844l.1709.2793a1.378,1.378,0,0,1,.96289-.40528,1.1167,1.1167,0,0,1,.93652.43164,1.34762,1.34762,0,0,1,.98145-.43164C219.93162,194.86945,220.38182,195.42707,220.38182,196.49836Z"/><path class="cls-4" d="M224.08885,194.99543v4.57324h-.71094l-.126-.25195a1.36823,1.36823,0,0,1-.93653.37793c-.83691,0-1.32324-.55762-1.32324-1.62988v-1.56641c0-1.07129.48633-1.62891,1.32324-1.62891a1.36823,1.36823,0,0,1,.93653.37793l.126-.25195Zm-1.06152,3.26758v-1.96192a.46566.46566,0,0,0-.47754-.4414c-.3418,0-.48633.21582-.48633.62988v1.585c0,.41406.14453.62988.48633.62988A.46566.46566,0,0,0,223.02733,198.263Z"/><path class="cls-4" d="M227.92283,196.49836v3.07031h-1.07128v-3.0791c0-.41406-.14356-.62988-.46778-.62988a.45608.45608,0,0,0-.48633.37793v3.33105h-1.07128v-4.57324h.64843l.1709.2793a1.36274,1.36274,0,0,1,.96289-.40528C227.43651,194.86945,227.92283,195.42707,227.92283,196.49836Z"/><path class="cls-4" d="M228.543,198.02961v-1.49512a1.5317,1.5317,0,1,1,3.05176,0v.30664h-1.07129v-.38769c0-.40528-.18848-.59375-.45019-.59375-.26954,0-.459.18847-.459.60351v1.6377c0,.41406.18945.60351.459.60351.26171,0,.45019-.18945.45019-.59375V197.723h1.07129v.30664a1.5317,1.5317,0,1,1-3.05176,0Z"/><path class="cls-4" d="M235.29393,196.53449v1.07129h-2.03516v.60352c0,.40527.18946.59375.48633.59375.2793,0,.46777-.17969.46777-.585v-.10743h1.07129a1.44288,1.44288,0,0,1-1.54785,1.584,1.49925,1.49925,0,0,1-1.54883-1.665v-1.49512a1.557,1.557,0,1,1,3.10645,0Zm-1.07129.28809v-.459c0-.41406-.18066-.60351-.47754-.60351s-.48633.18945-.48633.60351v.459Z"/></g></svg>