<svg xmlns="http://www.w3.org/2000/svg" viewBox="0 0 570 460"><defs><style>.cls-1{fill:#fff;}.cls-10,.cls-11,.cls-12,.cls-13,.cls-14,.cls-16,.cls-18,.cls-19,.cls-2,.cls-20,.cls-21,.cls-22,.cls-23,.cls-3,.cls-4,.cls-5,.cls-6,.cls-7,.cls-8,.cls-9{fill:none;}.cls-2{stroke:#231f20;}.cls-10,.cls-12,.cls-13,.cls-14,.cls-18,.cls-19,.cls-2,.cls-20,.cls-3,.cls-4,.cls-5,.cls-6,.cls-7,.cls-8,.cls-9{stroke-miterlimit:10;}.cls-11,.cls-14,.cls-19,.cls-20,.cls-21,.cls-22,.cls-23,.cls-3{stroke:#000;}.cls-10,.cls-11,.cls-12,.cls-13,.cls-14,.cls-16,.cls-21,.cls-22,.cls-23,.cls-3,.cls-4,.cls-5,.cls-7,.cls-8,.cls-9{stroke-linecap:round;}.cls-10,.cls-12,.cls-4,.cls-5,.cls-7,.cls-8,.cls-9{stroke:#f36f4c;}.cls-5{stroke-dasharray:2.26 2.26;}.cls-6{stroke:#2aaf4a;}.cls-7{stroke-dasharray:2.84 2.84;}.cls-8{stroke-dasharray:2.76 2.76;}.cls-9{stroke-dasharray:3.05 3.05;}.cls-10{stroke-dasharray:2.83 2.83;}.cls-11,.cls-16,.cls-21,.cls-22,.cls-23{stroke-linejoin:round;}.cls-12{stroke-dasharray:2.78 2.78;}.cls-13{stroke:#343434;}.cls-14{stroke-dasharray:3 3;}.cls-15{fill:#010101;}.cls-16{stroke:#009639;}.cls-17{fill:#009639;}.cls-18{stroke:#fff;}.cls-18,.cls-19{stroke-width:0.75px;}.cls-21{stroke-width:0.99px;}.cls-22{stroke-width:0.99px;}.cls-23{stroke-width:1px;}</style></defs><g id="Layer_2" data-name="Layer 2"><g id="Layer_1-2" data-name="Layer 1"><rect class="cls-1" width="570" height="460"/><rect class="cls-2" x="358.35" y="29.06" width="151.32" height="143.76"/><rect class="cls-2" x="194.1" y="29.06" width="151.32" height="143.76"/><rect class="cls-2" x="27.77" y="29.06" width="151.32" height="144.74"/><rect class="cls-3" x="209.01" y="233.22" width="123.05" height="174.18"/><line class="cls-4" x1="269.31" y1="318.85" x2="269.31" y2="319.92"/><line class="cls-5" x1="269.31" y1="322.18" x2="269.31" y2="339.15"/><line class="cls-4" x1="269.31" y1="340.28" x2="269.31" y2="341.35"/><line class="cls-6" x1="454.25" y1="250.48" x2="385.13" y2="250.48"/><line class="cls-6" x1="454.25" y1="389.25" x2="385.13" y2="389.25"/><line class="cls-6" x1="451.25" y1="318.41" x2="385.13" y2="318.41"/><line class="cls-4" x1="191.51" y1="390.7" x2="193.01" y2="390.7"/><line class="cls-7" x1="195.86" y1="390.7" x2="205.81" y2="390.7"/><line class="cls-4" x1="207.23" y1="390.7" x2="208.73" y2="390.7"/><line class="cls-4" x1="174.69" y1="271.88" x2="174.69" y2="273.38"/><line class="cls-8" x1="174.69" y1="276.13" x2="174.69" y2="296.82"/><line class="cls-4" x1="174.69" y1="298.2" x2="174.69" y2="299.7"/><line class="cls-4" x1="174.69" y1="340.64" x2="174.69" y2="342.14"/><line class="cls-8" x1="174.69" y1="344.9" x2="174.69" y2="365.59"/><line class="cls-4" x1="174.69" y1="366.97" x2="174.69" y2="368.47"/><line class="cls-4" x1="367.93" y1="338.66" x2="367.93" y2="340.16"/><line class="cls-9" x1="367.93" y1="343.21" x2="367.93" y2="366.09"/><line class="cls-4" x1="367.93" y1="367.61" x2="367.93" y2="369.11"/><line class="cls-4" x1="367.93" y1="270.73" x2="367.93" y2="272.23"/><line class="cls-10" x1="367.93" y1="275.06" x2="367.93" y2="296.27"/><line class="cls-4" x1="367.93" y1="297.68" x2="367.93" y2="299.18"/><g id="app"><rect class="cls-11" x="27.94" y="375.53" width="37" height="37" rx="7.88"/><path d="M40.29,395.34a2.87,2.87,0,0,1-2.21.92,2.2,2.2,0,0,1-2.32-2.19,2.17,2.17,0,0,1,2.32-2.18,2.82,2.82,0,0,1,2.21.9V391.6c0-.89-.72-1.4-1.68-1.4a2.65,2.65,0,0,0-2,.92l-.48-.71a3.49,3.49,0,0,1,2.66-1.1c1.4,0,2.57.63,2.57,2.24v4.55h-1Zm0-1.89a2.22,2.22,0,0,0-1.83-.82,1.46,1.46,0,1,0,0,2.89,2.22,2.22,0,0,0,1.83-.82Z"/><path d="M43.28,398.62v-9.15h1v1a2.77,2.77,0,0,1,2.24-1.15c1.75,0,3,1.32,3,3.47s-1.21,3.48-3,3.48a2.71,2.71,0,0,1-2.24-1.16v3.52Zm3-8.39a2.46,2.46,0,0,0-2,1v3a2.45,2.45,0,0,0,2,1.07c1.34,0,2.14-1.09,2.14-2.56S47.64,390.23,46.3,390.23Z"/><path d="M51.08,398.62v-9.15h1v1a2.78,2.78,0,0,1,2.24-1.15c1.75,0,3,1.32,3,3.47s-1.22,3.48-3,3.48a2.71,2.71,0,0,1-2.24-1.16v3.52Zm3-8.39a2.46,2.46,0,0,0-2,1v3a2.45,2.45,0,0,0,2,1.07c1.34,0,2.14-1.09,2.14-2.56S55.44,390.23,54.1,390.23Z"/></g><g id="app-2" data-name="app"><rect class="cls-11" x="27.94" y="300.4" width="37" height="37" rx="7.88"/><path d="M40.29,320.21a2.9,2.9,0,0,1-2.21.92,2.21,2.21,0,0,1-2.32-2.2,2.17,2.17,0,0,1,2.32-2.18,2.8,2.8,0,0,1,2.21.91v-1.2c0-.89-.72-1.4-1.68-1.4a2.65,2.65,0,0,0-2,.92l-.48-.71a3.49,3.49,0,0,1,2.66-1.1c1.4,0,2.57.63,2.57,2.24V321h-1Zm0-1.9a2.25,2.25,0,0,0-1.83-.82,1.46,1.46,0,1,0,0,2.9,2.23,2.23,0,0,0,1.83-.83Z"/><path d="M43.28,323.49v-9.15h1v1a2.75,2.75,0,0,1,2.24-1.16c1.75,0,3,1.32,3,3.47s-1.21,3.49-3,3.49A2.72,2.72,0,0,1,44.32,320v3.53Zm3-8.4a2.44,2.44,0,0,0-2,1.06v3a2.48,2.48,0,0,0,2,1.07c1.34,0,2.14-1.1,2.14-2.57S47.64,315.09,46.3,315.09Z"/><path d="M51.08,323.49v-9.15h1v1a2.77,2.77,0,0,1,2.24-1.16c1.75,0,3,1.32,3,3.47s-1.22,3.49-3,3.49A2.72,2.72,0,0,1,52.12,320v3.53Zm3-8.4a2.44,2.44,0,0,0-2,1.06v3a2.48,2.48,0,0,0,2,1.07c1.34,0,2.14-1.1,2.14-2.57S55.44,315.09,54.1,315.09Z"/></g><path d="M20.84,420.79h4.81v.81h-3.9V424h3.82v.81H21.75v2.53h3.9v.82H20.84Z"/><path d="M29.52,422.68a2.28,2.28,0,0,1,1.94.92l-.55.51a1.57,1.57,0,0,0-1.35-.69,2.06,2.06,0,0,0,0,4.1,1.6,1.6,0,0,0,1.35-.69l.55.5a2.26,2.26,0,0,1-1.94.93,2.79,2.79,0,0,1,0-5.58Z"/><path d="M32.42,425.46c-.19-3.62,5.45-3.62,5.26,0C37.87,429.1,32.23,429.1,32.42,425.46Zm4.39,0a1.78,1.78,0,1,0-3.53,0A1.78,1.78,0,1,0,36.81,425.46Z"/><path d="M39.1,426.83a2.43,2.43,0,0,0,1.75.76c.81,0,1.25-.37,1.25-.88s-.65-.77-1.36-.95c-.91-.21-1.93-.45-1.93-1.55,0-.83.72-1.53,2-1.53a2.69,2.69,0,0,1,2,.77l-.38.57a2.11,2.11,0,0,0-1.59-.67c-.72,0-1.18.33-1.18.8s.61.69,1.3.85c.93.21,2,.47,2,1.65,0,.89-.71,1.61-2.09,1.61a2.83,2.83,0,0,1-2.14-.84Z"/><path d="M44.64,429.54a.76.76,0,0,0,.79-.56l.36-.8-2.23-5.37h.89l1.78,4.36L48,422.81h.9l-2.66,6.39a1.59,1.59,0,0,1-1.57,1.08,2.35,2.35,0,0,1-.6-.08l.13-.74A1.38,1.38,0,0,0,44.64,429.54Z"/><path d="M49.82,426.83a2.43,2.43,0,0,0,1.75.76c.82,0,1.26-.37,1.26-.88s-.65-.77-1.37-.95c-.9-.21-1.92-.45-1.92-1.55,0-.83.71-1.53,2-1.53a2.69,2.69,0,0,1,2,.77l-.39.57a2.08,2.08,0,0,0-1.58-.67c-.73,0-1.18.33-1.18.8s.6.69,1.3.85c.92.21,2,.47,2,1.65,0,.89-.72,1.61-2.09,1.61a2.85,2.85,0,0,1-2.15-.84Z"/><path d="M55.25,427v-3.47h-.88v-.73h.88v-1.45h.82v1.45h1.08v.73H56.07v3.3c0,.39.18.68.54.68a.8.8,0,0,0,.56-.22l.24.62a1.37,1.37,0,0,1-1,.34C55.64,428.26,55.25,427.81,55.25,427Z"/><path d="M60.73,422.68a2.58,2.58,0,0,1,2.56,2.85v.21H59a1.88,1.88,0,0,0,1.92,1.84,2.34,2.34,0,0,0,1.64-.68l.39.54a2.86,2.86,0,0,1-2.11.82,2.79,2.79,0,0,1-.09-5.58ZM59,425.13h3.49a1.72,1.72,0,0,0-1.75-1.77A1.78,1.78,0,0,0,59,425.13Z"/><path d="M71.14,424.52c0-.67-.3-1.1-1-1.1a1.86,1.86,0,0,0-1.41.81v3.9h-.82v-3.61c0-.67-.29-1.1-1-1.1a1.86,1.86,0,0,0-1.4.82v3.89h-.82v-5.32h.82v.77a2.31,2.31,0,0,1,1.72-.9,1.37,1.37,0,0,1,1.43,1,2.25,2.25,0,0,1,1.78-1c1,0,1.49.54,1.49,1.61v3.84h-.83Z"/><path d="M41.82,437.5H38.1l-.65,1.63h-1l3-7.34h1.13l3,7.34h-1Zm-3.45-.82h3.18L40,432.6Z"/><path d="M44.51,441.15v-7.34h.83v.79a2.23,2.23,0,0,1,1.79-.92c1.4,0,2.37,1.06,2.37,2.78s-1,2.8-2.37,2.8a2.17,2.17,0,0,1-1.79-.94v2.83Zm2.41-6.73a2,2,0,0,0-1.58.84v2.4a2,2,0,0,0,1.58.86c1.07,0,1.71-.88,1.71-2.06S48,434.42,46.92,434.42Z"/><path d="M50.94,441.15v-7.34h.82v.79a2.26,2.26,0,0,1,1.8-.92c1.39,0,2.36,1.06,2.36,2.78s-1,2.8-2.36,2.8a2.18,2.18,0,0,1-1.8-.94v2.83Zm2.41-6.73a2,2,0,0,0-1.59.84v2.4a2,2,0,0,0,1.59.86c1.07,0,1.7-.88,1.7-2.06S54.42,434.42,53.35,434.42Z"/><path d="M36.91,268.85l-2.5,6.1H34l-2.49-6.1V275h-.91v-7.34H32l2.28,5.59,2.28-5.59h1.31V275h-.91Z"/><path d="M39.31,272.29c-.2-3.62,5.45-3.62,5.25,0C44.76,275.93,39.11,275.93,39.31,272.29Zm4.39,0a1.78,1.78,0,1,0-3.54,0A1.78,1.78,0,1,0,43.7,272.29Z"/><path d="M46,267.61h.82v2.83a2.21,2.21,0,0,1,1.79-.93c1.39,0,2.37,1.1,2.37,2.79s-1,2.78-2.37,2.78a2.24,2.24,0,0,1-1.79-.92V275H46Zm2.41,6.74c1.07,0,1.71-.87,1.71-2.05s-.64-2.06-1.71-2.06a2,2,0,0,0-1.59.86v2.41A2,2,0,0,0,48.43,274.35Z"/><path d="M52.31,268.23a.56.56,0,1,1,1.11,0,.56.56,0,0,1-1.11,0Zm.14,1.41h.83V275h-.83Z"/><path d="M55,267.61h.82V275H55Z"/><path d="M59.93,269.51a2.57,2.57,0,0,1,2.55,2.85v.2h-4.3a1.87,1.87,0,0,0,1.92,1.84,2.29,2.29,0,0,0,1.63-.67l.4.54a2.87,2.87,0,0,1-2.11.81,2.79,2.79,0,0,1-.09-5.57ZM58.18,272h3.49a1.72,1.72,0,0,0-1.75-1.77A1.78,1.78,0,0,0,58.18,272Z"/><path d="M41.82,284.32H38.1L37.45,286h-1l3-7.34h1.13l3,7.34h-1Zm-3.45-.81h3.17L40,279.43Z"/><path d="M44.51,288v-7.34h.83v.79a2.2,2.2,0,0,1,1.79-.92c1.4,0,2.37,1.05,2.37,2.78s-1,2.79-2.37,2.79a2.19,2.19,0,0,1-1.79-.93V288Zm2.41-6.74a2,2,0,0,0-1.58.85v2.4a2,2,0,0,0,1.58.86c1.07,0,1.71-.88,1.71-2.06S48,281.24,46.92,281.24Z"/><path d="M50.94,288v-7.34h.82v.79a2.23,2.23,0,0,1,1.8-.92c1.39,0,2.36,1.05,2.36,2.78s-1,2.79-2.36,2.79a2.19,2.19,0,0,1-1.8-.93V288Zm2.41-6.74a2,2,0,0,0-1.59.85v2.4a2,2,0,0,0,1.59.86c1.06,0,1.7-.88,1.7-2.06S54.41,281.24,53.35,281.24Z"/><path d="M29.52,344.87h2.95a2.22,2.22,0,1,1,0,4.43h-2v2.91h-.92Zm2.84.82H30.44v2.79h1.92a1.4,1.4,0,1,0,0-2.79Z"/><path d="M39.16,351.61a2.31,2.31,0,0,1-1.76.73,1.77,1.77,0,0,1-1.86-1.76,1.74,1.74,0,0,1,1.86-1.75,2.22,2.22,0,0,1,1.76.73v-1c0-.71-.57-1.12-1.34-1.12a2.1,2.1,0,0,0-1.63.74l-.39-.57a2.79,2.79,0,0,1,2.13-.88c1.12,0,2,.5,2,1.79v3.65h-.82Zm0-1.52a1.78,1.78,0,0,0-1.46-.66,1.17,1.17,0,1,0,0,2.32,1.78,1.78,0,0,0,1.46-.66Z"/><path d="M41.74,346.9h.83v.85a2.25,2.25,0,0,1,1.77-1v.84a1.61,1.61,0,0,0-.33,0,1.93,1.93,0,0,0-1.44.85v3.76h-.83Z"/><path d="M45.65,351.1v-3.48h-.88v-.72h.88v-1.46h.82v1.46h1.08v.72H46.47v3.3c0,.4.18.69.54.69a.8.8,0,0,0,.56-.22l.24.61a1.32,1.32,0,0,1-1,.34A1.08,1.08,0,0,1,45.65,351.1Z"/><path d="M52.41,348.73c0-.93-.47-1.23-1.18-1.23a2.07,2.07,0,0,0-1.58.83v3.88h-.82V346.9h.82v.77a2.64,2.64,0,0,1,1.89-.9,1.51,1.51,0,0,1,1.7,1.71v3.73h-.83Z"/><path d="M57.31,346.77a2.58,2.58,0,0,1,2.55,2.84v.21h-4.3a1.87,1.87,0,0,0,1.91,1.84,2.31,2.31,0,0,0,1.64-.67l.4.54a2.87,2.87,0,0,1-2.11.81,2.79,2.79,0,0,1-.09-5.57Zm-1.75,2.45h3.49a1.73,1.73,0,0,0-1.75-1.77A1.76,1.76,0,0,0,55.56,349.22Z"/><path d="M61.3,346.9h.83v.85a2.23,2.23,0,0,1,1.77-1v.84a1.61,1.61,0,0,0-.33,0,1.93,1.93,0,0,0-1.44.85v3.76H61.3Z"/><path d="M41.82,361.58H38.1l-.65,1.63h-1l3-7.34h1.13l3,7.34h-1Zm-3.45-.81h3.17L40,356.69Z"/><path d="M44.51,365.23V357.9h.83v.79a2.2,2.2,0,0,1,1.79-.92c1.4,0,2.37,1.05,2.37,2.78s-1,2.79-2.37,2.79a2.19,2.19,0,0,1-1.79-.93v2.82Zm2.41-6.73a2,2,0,0,0-1.58.85v2.4a2,2,0,0,0,1.58.86c1.07,0,1.71-.88,1.71-2.06S48,358.5,46.92,358.5Z"/><path d="M50.94,365.23V357.9h.82v.79a2.23,2.23,0,0,1,1.8-.92c1.39,0,2.36,1.05,2.36,2.78s-1,2.79-2.36,2.79a2.19,2.19,0,0,1-1.8-.93v2.82Zm2.41-6.73a2,2,0,0,0-1.59.85v2.4a2,2,0,0,0,1.59.86c1.06,0,1.7-.88,1.7-2.06S54.41,358.5,53.35,358.5Z"/><polyline class="cls-6" points="65.22 242.09 101.97 242.09 101.97 311.74 137.34 311.74"/><polyline class="cls-6" points="65.83 395.65 101.6 395.65 101.6 328.9 136.79 328.9"/><line class="cls-6" x1="65.47" y1="320.27" x2="137.81" y2="320.27"/><path class="cls-11" d="M178.47,240.71a10.14,10.14,0,1,0,2.74,1.63h0l-8,12.12-4.32-5.72"/><path class="cls-11" d="M184.38,236l-2,.09h0l-4.86-3.73a4.14,4.14,0,0,0-5.16-.08l-5.24,3.82-2-.09c-3.84-.19-6.84-1.28-6.84,4s.72,13.8.72,13.8-.43,6.39,7,11.8c6.37,4.64,8.78,6.33,8.78,6.33h0s2.46-1.69,8.83-6.33c7.41-5.41,7-11.8,7-11.8s.71-8.54.71-13.8-3-4.17-6.83-4"/><path class="cls-11" d="M178.47,309.47a10.19,10.19,0,1,0,2.74,1.64h0l-8,12.12-4.32-5.73"/><path class="cls-11" d="M184.38,304.74l-2,.08h0l-4.86-3.73a4.11,4.11,0,0,0-5.16-.08l-5.24,3.81-2-.08c-3.84-.19-6.84-1.28-6.84,4s.72,13.79.72,13.79-.43,6.4,7,11.8c6.37,4.65,8.78,6.33,8.78,6.33h0s2.46-1.68,8.83-6.33c7.41-5.4,7-11.8,7-11.8s.71-8.53.71-13.79-3-4.17-6.83-4"/><path class="cls-11" d="M178.47,378.24a10.14,10.14,0,1,0,2.74,1.63h0l-8,12.12-4.32-5.72"/><path class="cls-11" d="M184.38,373.5q-1,.06-2,.09h0l-4.86-3.73a4.14,4.14,0,0,0-5.16-.08l-5.24,3.82-2-.09c-3.84-.19-6.84-1.28-6.84,4s.72,13.8.72,13.8-.43,6.39,7,11.8c6.37,4.64,8.78,6.33,8.78,6.33h0s2.46-1.69,8.83-6.33c7.41-5.41,7-11.8,7-11.8s.71-8.54.71-13.8-3-4.17-6.83-4"/><line class="cls-4" x1="332.36" y1="389.07" x2="333.86" y2="389.07"/><line class="cls-12" x1="336.64" y1="389.07" x2="346.37" y2="389.07"/><line class="cls-4" x1="347.76" y1="389.07" x2="349.26" y2="389.07"/><polygon class="cls-11" points="384.98 397.79 384.98 378.29 368.12 368.54 351.25 378.29 351.25 397.79 368.12 407.54 384.98 397.79"/><polyline class="cls-11" points="356.31 393.85 356.31 382.38 366.65 393.85 366.65 382.38"/><line class="cls-11" x1="376.13" y1="392.45" x2="376.13" y2="383.77"/><line class="cls-11" x1="371.79" y1="388.11" x2="380.47" y2="388.11"/><polygon class="cls-11" points="384.98 328.63 384.98 309.13 368.12 299.38 351.25 309.13 351.25 328.63 368.12 338.38 384.98 328.63"/><polyline class="cls-11" points="356.31 324.69 356.31 313.22 366.65 324.69 366.65 313.22"/><line class="cls-11" x1="376.13" y1="323.29" x2="376.13" y2="314.62"/><line class="cls-11" x1="371.79" y1="318.96" x2="380.47" y2="318.96"/><polygon class="cls-11" points="384.98 259.48 384.98 239.98 368.12 230.23 351.25 239.98 351.25 259.48 368.12 269.23 384.98 259.48"/><polyline class="cls-11" points="356.31 255.53 356.31 244.06 366.65 255.53 366.65 244.06"/><line class="cls-11" x1="376.13" y1="254.14" x2="376.13" y2="245.46"/><line class="cls-11" x1="371.79" y1="249.8" x2="380.47" y2="249.8"/><line class="cls-13" x1="503.7" y1="377.98" x2="503.7" y2="400.08"/><line class="cls-13" x1="498.01" y1="389.03" x2="503.7" y2="389.03"/><path d="M510.6,382.07l-.36.43v1.44h-1v-4.67h1v2.09l1.65-2.09h1.23l-1.86,2.19,2,2.48H512Z"/><path d="M516,383.51a1.58,1.58,0,0,1-1.19.51,1,1,0,0,1-1.1-1.06v-2.4h.89v2.05c0,.47.25.62.63.62a1,1,0,0,0,.77-.38v-2.29h.89v3.38H516Z"/><path d="M518,379.27h.89V381a1.3,1.3,0,0,1,1-.52,1.57,1.57,0,0,1,1.5,1.78c0,1.13-.64,1.77-1.5,1.77a1.32,1.32,0,0,1-1-.51v.43H518Zm1.65,4a1,1,0,0,0,0-2,1,1,0,0,0-.76.4v1.19A1,1,0,0,0,519.62,383.23Z"/><path d="M523.82,380.47a1.7,1.7,0,0,1,1.69,1.87v.19H523a.91.91,0,0,0,1,.79,1.35,1.35,0,0,0,.9-.34l.4.57a2.11,2.11,0,0,1-1.4.47,1.78,1.78,0,0,1,0-3.55Zm-.84,1.46h1.67a.78.78,0,0,0-.83-.75A.82.82,0,0,0,523,381.93Z"/><path d="M526.34,380.56h.89V381a1.46,1.46,0,0,1,1.08-.54v.87a.78.78,0,0,0-.24,0,1.14,1.14,0,0,0-.84.39v2.23h-.89Z"/><path d="M531.3,381.9a.56.56,0,0,0-.63-.64,1,1,0,0,0-.77.4v2.28H529v-3.38h.89V381a1.56,1.56,0,0,1,1.19-.53,1,1,0,0,1,1.1,1.08v2.39h-.89Z"/><path d="M534.78,380.47a1.7,1.7,0,0,1,1.7,1.87v.19H534a.92.92,0,0,0,1,.79,1.4,1.4,0,0,0,.91-.34l.39.57a2.11,2.11,0,0,1-1.39.47,1.78,1.78,0,1,1-.06-3.55Zm-.83,1.46h1.66a.78.78,0,0,0-.83-.75A.81.81,0,0,0,534,381.93Z"/><path d="M537.5,383.1v-1.77h-.56v-.77h.56v-.93h.89v.93h.69v.77h-.69v1.53a.33.33,0,0,0,.31.37.47.47,0,0,0,.31-.1l.19.68a1.09,1.09,0,0,1-.74.21A.84.84,0,0,1,537.5,383.1Z"/><path d="M541.4,380.47a1.7,1.7,0,0,1,1.7,1.87v.19h-2.52a.92.92,0,0,0,1,.79,1.4,1.4,0,0,0,.91-.34l.39.57a2.11,2.11,0,0,1-1.39.47,1.78,1.78,0,1,1-.06-3.55Zm-.83,1.46h1.66a.78.78,0,0,0-.83-.75A.81.81,0,0,0,540.57,381.93Z"/><path d="M544,382.88a1.93,1.93,0,0,0,1.17.46c.38,0,.56-.14.56-.35s-.29-.32-.68-.4c-.58-.11-1.33-.25-1.33-1,0-.57.5-1.07,1.39-1.07a2.17,2.17,0,0,1,1.37.47l-.36.6a1.45,1.45,0,0,0-1-.39c-.32,0-.53.12-.53.32s.26.28.64.36c.58.11,1.36.27,1.36,1.11,0,.61-.53,1.08-1.46,1.08a2.29,2.29,0,0,1-1.52-.52Z"/><path d="M512.22,390.13h-2.09l-.29.81h-1.09l1.8-4.67h1.25l1.8,4.67h-1.09Zm-1.82-.86H512l-.77-2.14Z"/><path d="M514.4,389.88a2,2,0,0,0,1.17.46c.39,0,.57-.14.57-.35s-.29-.32-.68-.4c-.58-.11-1.33-.25-1.33-1,0-.57.5-1.07,1.39-1.07a2.12,2.12,0,0,1,1.36.47l-.35.6a1.47,1.47,0,0,0-1-.39c-.33,0-.54.12-.54.32s.27.28.65.36c.58.11,1.36.27,1.36,1.11,0,.61-.53,1.08-1.47,1.08a2.26,2.26,0,0,1-1.51-.52Z"/><path d="M517.84,392.23v-4.67h.89V388a1.27,1.27,0,0,1,1-.51c.87,0,1.5.65,1.5,1.77s-.63,1.78-1.5,1.78a1.27,1.27,0,0,1-1-.51v1.72Zm1.65-4a1,1,0,0,0-.76.39v1.2a1,1,0,0,0,.76.38,1,1,0,0,0,0-2Z"/><path d="M523.68,387.47a1.7,1.7,0,0,1,1.7,1.87v.19h-2.52a.92.92,0,0,0,1,.79,1.4,1.4,0,0,0,.91-.34l.39.57a2.11,2.11,0,0,1-1.39.47,1.78,1.78,0,1,1-.06-3.55Zm-.83,1.46h1.66a.78.78,0,0,0-.83-.75A.81.81,0,0,0,522.85,388.93Z"/><path d="M528.49,388.9a.56.56,0,0,0-.62-.64,1,1,0,0,0-.77.4v2.28h-.89v-3.38h.89V388a1.53,1.53,0,0,1,1.18-.53,1,1,0,0,1,1.1,1.08v2.39h-.89Z"/><path d="M536.27,387.58,535,390.94h-.44l-1.31-3.36v3.36h-1v-4.67h1.4l1.13,2.91,1.14-2.91h1.4v4.67h-1Z"/><path d="M539.94,387.47a1.7,1.7,0,0,1,1.7,1.87v.19h-2.52a.92.92,0,0,0,1,.79,1.39,1.39,0,0,0,.9-.34l.39.57A2.09,2.09,0,0,1,540,391a1.78,1.78,0,1,1-.06-3.55Zm-.83,1.46h1.67a.8.8,0,0,0-.84-.75A.81.81,0,0,0,539.11,388.93Z"/><path d="M542.55,389.88a2,2,0,0,0,1.17.46c.39,0,.57-.14.57-.35s-.29-.32-.68-.4c-.58-.11-1.33-.25-1.33-1,0-.57.5-1.07,1.39-1.07a2.12,2.12,0,0,1,1.36.47l-.35.6a1.48,1.48,0,0,0-1-.39c-.32,0-.53.12-.53.32s.27.28.65.36c.58.11,1.36.27,1.36,1.11,0,.61-.53,1.08-1.47,1.08a2.25,2.25,0,0,1-1.51-.52Z"/><path d="M548.27,388.88c0-.47-.24-.62-.63-.62a1,1,0,0,0-.77.4v2.28H546v-4.67h.89V388a1.57,1.57,0,0,1,1.19-.53,1,1,0,0,1,1.1,1.07v2.4h-.89Z"/><path d="M512.22,397.13h-2.09l-.29.81h-1.09l1.8-4.67h1.25l1.8,4.67h-1.09Zm-1.82-.86H512l-.77-2.14Z"/><path d="M514.16,397.27l1.52-1.94h-1.52v-.77h2.73v.64l-1.55,2h1.58v.78h-2.76Z"/><path d="M520.08,397.51a1.56,1.56,0,0,1-1.19.51A1,1,0,0,1,517.8,397v-2.4h.89v2.05a.54.54,0,0,0,.62.62,1,1,0,0,0,.77-.38v-2.29H521v3.38h-.89Z"/><path d="M522,394.56h.89V395a1.42,1.42,0,0,1,1.07-.54v.87a.78.78,0,0,0-.24,0,1.11,1.11,0,0,0-.83.39v2.23H522Z"/><path d="M526.25,394.47a1.7,1.7,0,0,1,1.69,1.87v.19h-2.51a.91.91,0,0,0,1,.79,1.35,1.35,0,0,0,.9-.34l.4.57a2.11,2.11,0,0,1-1.4.47,1.78,1.78,0,1,1,0-3.55Zm-.84,1.46h1.67a.79.79,0,0,0-.83-.75A.81.81,0,0,0,525.41,395.93Z"/><line class="cls-13" x1="503.7" y1="240.49" x2="503.7" y2="262.59"/><line class="cls-13" x1="498.01" y1="251.54" x2="503.7" y2="251.54"/><path d="M512.22,253.65h-2.09l-.29.81h-1.09l1.8-4.68h1.25l1.8,4.68h-1.09Zm-1.82-.86H512l-.77-2.14Z"/><path d="M516.79,251.25l-.82,3.21h-1.05l-1.34-4.68h1.11l.82,3.38.89-3.38h.78l.88,3.38.81-3.38H520l-1.33,4.68h-1Z"/><path d="M520.84,253a2.06,2.06,0,0,0,1.48.63c.55,0,.82-.26.82-.52s-.41-.47-.95-.6c-.76-.17-1.74-.38-1.74-1.43,0-.78.67-1.41,1.77-1.41a2.59,2.59,0,0,1,1.82.66l-.55.72a2,2,0,0,0-1.34-.51c-.45,0-.69.2-.69.48s.39.41.93.54c.77.17,1.76.4,1.76,1.44,0,.86-.61,1.5-1.88,1.5a2.66,2.66,0,0,1-2-.74Z"/><g id="app-3" data-name="app"><rect class="cls-11" x="27.94" y="222.68" width="37" height="37" rx="7.88"/><path d="M40.29,242.5a2.89,2.89,0,0,1-2.21.91,2.2,2.2,0,0,1-2.32-2.19A2.17,2.17,0,0,1,38.08,239a2.82,2.82,0,0,1,2.21.9v-1.19c0-.89-.72-1.4-1.68-1.4a2.65,2.65,0,0,0-2,.92l-.48-.71a3.49,3.49,0,0,1,2.66-1.1c1.4,0,2.57.63,2.57,2.24v4.55h-1Zm0-1.9a2.22,2.22,0,0,0-1.83-.82,1.46,1.46,0,1,0,0,2.89,2.22,2.22,0,0,0,1.83-.82Z"/><path d="M43.28,245.77v-9.14h1v1a2.77,2.77,0,0,1,2.24-1.15c1.75,0,3,1.32,3,3.47s-1.21,3.48-3,3.48a2.71,2.71,0,0,1-2.24-1.16v3.52Zm3-8.39a2.44,2.44,0,0,0-2,1.06v3a2.48,2.48,0,0,0,2,1.07c1.34,0,2.14-1.1,2.14-2.57S47.64,237.38,46.3,237.38Z"/><path d="M51.08,245.77v-9.14h1v1a2.78,2.78,0,0,1,2.24-1.15c1.75,0,3,1.32,3,3.47s-1.22,3.48-3,3.48a2.71,2.71,0,0,1-2.24-1.16v3.52Zm3-8.39a2.44,2.44,0,0,0-2,1.06v3a2.48,2.48,0,0,0,2,1.07c1.34,0,2.14-1.1,2.14-2.57S55.44,237.38,54.1,237.38Z"/></g><line class="cls-4" x1="191.51" y1="317.68" x2="193.01" y2="317.68"/><line class="cls-7" x1="195.86" y1="317.68" x2="205.81" y2="317.68"/><line class="cls-4" x1="207.23" y1="317.68" x2="208.73" y2="317.68"/><line class="cls-4" x1="332.45" y1="317.68" x2="333.95" y2="317.68"/><line class="cls-7" x1="336.8" y1="317.68" x2="346.75" y2="317.68"/><line class="cls-4" x1="348.17" y1="317.68" x2="349.67" y2="317.68"/><line class="cls-4" x1="191.51" y1="249.76" x2="193.01" y2="249.76"/><line class="cls-7" x1="195.86" y1="249.76" x2="205.81" y2="249.76"/><line class="cls-4" x1="207.23" y1="249.76" x2="208.73" y2="249.76"/><line class="cls-4" x1="332.45" y1="249.76" x2="333.95" y2="249.76"/><line class="cls-7" x1="336.8" y1="249.76" x2="346.75" y2="249.76"/><line class="cls-4" x1="348.17" y1="249.76" x2="349.67" y2="249.76"/><rect class="cls-14" x="137.2" y="204.91" width="269.4" height="225.42"/><rect class="cls-15" x="193.62" y="195.91" width="156.56" height="18"/><path class="cls-1" d="M209.68,207.16h-1.45l-.29,1.25h-1.5l1.52-7.1h2l1.54,7.1H210Zm-.72-4-.45,2.56h.9Z"/><path class="cls-1" d="M216.78,203.25v.91a1.94,1.94,0,0,1-2.1,2h-.82v2.3h-1.55v-7.1h2.36A1.94,1.94,0,0,1,216.78,203.25Zm-1.54-.07a.44.44,0,0,0-.46-.47h-.92v2h.91a.44.44,0,0,0,.47-.48Z"/><path class="cls-1" d="M217.62,201.31h1.55v7.1h-1.55Z"/><path class="cls-1" d="M222.1,206.31V206h1.55v.44a.74.74,0,0,0,.83.73.68.68,0,0,0,.72-.69c0-1.27-3-1-3-3.27a2,2,0,0,1,2.22-2.08,1.94,1.94,0,0,1,2.21,2v.44h-1.55v-.54c0-.31-.3-.49-.67-.49a.59.59,0,0,0-.65.6c0,1,3,.79,3,3.21a2.1,2.1,0,0,1-2.31,2.19A2.15,2.15,0,0,1,222.1,206.31Z"/><path class="cls-1" d="M229.19,202.71v1.55h1.72v1.4h-1.72V207h2.12v1.4h-3.67v-7.1h3.67v1.4Z"/><path class="cls-1" d="M232.09,206.54v-3.36a2.37,2.37,0,0,1,4.69,0v.89h-1.57v-.91c0-.36-.26-.6-.77-.6s-.8.24-.8.6v3.4c0,.36.27.6.79.6s.78-.24.78-.6v-.91h1.57v.89a2.37,2.37,0,0,1-4.69,0Z"/><path class="cls-1" d="M237.65,206.54v-5.23h1.54v5.25c0,.36.23.6.72.6s.73-.24.73-.6v-5.25h1.55v5.23a2.29,2.29,0,0,1-4.54,0Z"/><path class="cls-1" d="M245.43,205.85h-.74v2.56h-1.55v-7.1h2.36a2,2,0,0,1,2.12,1.94v.66a1.86,1.86,0,0,1-.71,1.5l.92,3h-1.62Zm-.74-1.4h.91a.44.44,0,0,0,.47-.47v-.8a.43.43,0,0,0-.46-.47h-.92Z"/><path class="cls-1" d="M248.67,201.31h1.55v7.1h-1.55Z"/><path class="cls-1" d="M255.45,202.71H254v5.7h-1.54v-5.7H251v-1.4h4.49Z"/><path class="cls-1" d="M259.45,206.06v2.35H257.9v-2.35l-1.82-4.75h1.65l1,2.83.95-2.83h1.63Z"/><path class="cls-1" d="M267,207.16h-1.45l-.29,1.25h-1.51l1.53-7.1h2l1.53,7.1h-1.53Zm-.72-4-.45,2.56h.9Z"/><path class="cls-1" d="M274.22,201.31v7.1h-1.36l-1.85-4v4h-1.35v-7.1H271l1.85,4.06v-4.06Z"/><path class="cls-1" d="M279.77,203.33v3.06a2.05,2.05,0,0,1-2.27,2h-2.29v-7.1h2.28A2.06,2.06,0,0,1,279.77,203.33Zm-1.55,0a.57.57,0,0,0-.62-.6h-.85V207h.84a.57.57,0,0,0,.63-.6Z"/><path class="cls-1" d="M288.53,208.41H287.2v-4.57l-1,4.57h-1.11l-1-4.61v4.61h-1.31v-7.1h1.83l1.05,4.06,1.05-4.06h1.85Z"/><path class="cls-1" d="M292.58,207.16h-1.45l-.29,1.25h-1.51l1.53-7.1h2l1.54,7.1h-1.54Zm-.72-4-.45,2.56h.9Z"/><path class="cls-1" d="M299.77,201.31v7.1h-1.36l-1.85-4v4h-1.35v-7.1h1.35l1.85,4.06v-4.06Z"/><path class="cls-1" d="M303.82,207.16h-1.45l-.29,1.25h-1.51l1.53-7.1h2l1.54,7.1h-1.54Zm-.72-4-.45,2.56h.9Z"/><path class="cls-1" d="M309.4,203.87v-.71c0-.36-.34-.6-.8-.6s-.79.24-.79.6v3.4c0,.36.34.6.79.6s.8-.24.8-.6V206h-.81v-1.4h2.35v2a2.37,2.37,0,0,1-4.68,0v-3.36a2.37,2.37,0,0,1,4.68,0v.69Z"/><path class="cls-1" d="M313.42,202.71v1.55h1.72v1.4h-1.72V207h2.12v1.4h-3.67v-7.1h3.67v1.4Z"/><path class="cls-1" d="M322.16,208.41h-1.33v-4.57l-1,4.57h-1.11l-1-4.61v4.61h-1.32v-7.1h1.84l1.05,4.06,1.05-4.06h1.85Z"/><path class="cls-1" d="M324.7,202.71v1.55h1.72v1.4H324.7V207h2.12v1.4h-3.67v-7.1h3.67v1.4Z"/><path class="cls-1" d="M332.21,201.31v7.1h-1.36l-1.85-4v4h-1.35v-7.1H329l1.85,4.06v-4.06Z"/><path class="cls-1" d="M337.45,202.71H336v5.7h-1.55v-5.7H333v-1.4h4.5Z"/><rect class="cls-15" x="48.03" y="20.87" width="110.79" height="18"/><path class="cls-1" d="M79.26,32.13H77.81l-.29,1.24H76l1.53-7.09h2l1.53,7.09H79.55Zm-.72-4-.45,2.56H79Z"/><path class="cls-1" d="M86.36,28.22v.91a2,2,0,0,1-2.11,1.95h-.82v2.29H81.88V26.28h2.36A2,2,0,0,1,86.36,28.22Zm-1.55-.07a.44.44,0,0,0-.46-.47h-.92v2h.91a.44.44,0,0,0,.47-.48Z"/><path class="cls-1" d="M87.19,26.28h1.55v7.09H87.19Z"/><path class="cls-1" d="M91.67,31.28V31h1.55v.44a.74.74,0,0,0,.83.73.68.68,0,0,0,.72-.69c0-1.27-3-1-3-3.27A2,2,0,0,1,94,26.13a1.94,1.94,0,0,1,2.21,2v.44H94.68V28c0-.31-.3-.49-.67-.49a.59.59,0,0,0-.65.6c0,1,3,.79,3,3.21A2.1,2.1,0,0,1,94,33.52,2.15,2.15,0,0,1,91.67,31.28Z"/><path class="cls-1" d="M98.76,27.68v1.55h1.72v1.4H98.76V32h2.12v1.39H97.21V26.28h3.67v1.4Z"/><path class="cls-1" d="M101.67,31.51V28.15a2.37,2.37,0,0,1,4.68,0V29h-1.56v-.91c0-.36-.26-.6-.77-.6s-.8.24-.8.6v3.4c0,.36.27.6.79.6s.78-.24.78-.6v-.91h1.56v.89a2.37,2.37,0,0,1-4.68,0Z"/><path class="cls-1" d="M107.22,31.51V26.28h1.55v5.25c0,.36.23.6.72.6s.73-.24.73-.6V26.28h1.55v5.23a2.29,2.29,0,0,1-4.55,0Z"/><path class="cls-1" d="M115,30.82h-.74v2.55h-1.55V26.28h2.36a2,2,0,0,1,2.12,1.94v.66a1.86,1.86,0,0,1-.71,1.5l.92,3h-1.62Zm-.74-1.4h.91a.44.44,0,0,0,.47-.47v-.8a.43.43,0,0,0-.46-.47h-.92Z"/><path class="cls-1" d="M118.24,26.28h1.55v7.09h-1.55Z"/><path class="cls-1" d="M125,27.68h-1.47v5.69H122V27.68h-1.48v-1.4H125Z"/><path class="cls-1" d="M129,31v2.34h-1.55V31l-1.82-4.75h1.65l1,2.83,1-2.83h1.63Z"/><rect class="cls-15" x="214.36" y="20.87" width="110.79" height="18"/><path class="cls-1" d="M237.81,32.13h-1.45l-.29,1.24h-1.51l1.53-7.09h2l1.54,7.09H238.1Zm-.72-4-.45,2.56h.9Z"/><path class="cls-1" d="M244.91,28.22v.91a2,2,0,0,1-2.11,1.95H242v2.29h-1.55V26.28h2.36A2,2,0,0,1,244.91,28.22Zm-1.55-.07a.44.44,0,0,0-.46-.47H242v2h.91a.44.44,0,0,0,.47-.48Z"/><path class="cls-1" d="M245.74,26.28h1.55v7.09h-1.55Z"/><path class="cls-1" d="M256.11,33.37h-1.33V28.81l-1,4.56h-1.11l-1-4.6v4.6h-1.32V26.28h1.84l1.05,4.06,1-4.06h1.85Z"/><path class="cls-1" d="M260.16,32.13h-1.45l-.29,1.24h-1.51l1.53-7.09h2L262,33.37h-1.54Zm-.72-4L259,30.73h.9Z"/><path class="cls-1" d="M267.35,26.28v7.09H266l-1.85-4v4h-1.35V26.28h1.35L266,30.34V26.28Z"/><path class="cls-1" d="M271.4,32.13H270l-.29,1.24h-1.51l1.53-7.09h2l1.54,7.09h-1.54Zm-.72-4-.45,2.56h.9Z"/><path class="cls-1" d="M277,28.84v-.71c0-.36-.32-.6-.78-.6s-.8.24-.8.6v3.4c0,.36.34.6.79.6s.79-.24.79-.6v-.6h-.8v-1.4h2.35v2a2.37,2.37,0,0,1-4.68,0V28.15a2.37,2.37,0,0,1,4.68,0v.69Z"/><path class="cls-1" d="M281,27.68v1.55h1.72v1.4H281V32h2.12v1.39h-3.67V26.28h3.67v1.4Z"/><path class="cls-1" d="M289.74,33.37h-1.33V28.81l-1,4.56h-1.11l-1-4.6v4.6H284V26.28h1.84l1,4.06,1.05-4.06h1.85Z"/><path class="cls-1" d="M292.28,27.68v1.55H294v1.4h-1.72V32h2.12v1.39h-3.67V26.28h3.67v1.4Z"/><path class="cls-1" d="M299.79,26.28v7.09h-1.36l-1.85-4v4h-1.35V26.28h1.35l1.85,4.06V26.28Z"/><path class="cls-1" d="M305,27.68h-1.47v5.69H302V27.68h-1.48v-1.4H305Z"/><rect class="cls-15" x="384.61" y="20.87" width="98.81" height="18"/><path class="cls-1" d="M410.36,32.13h-1.45l-.29,1.24h-1.51l1.53-7.09h2l1.54,7.09h-1.54Zm-.72-4-.45,2.56h.9Z"/><path class="cls-1" d="M417.46,28.22v.91a2,2,0,0,1-2.11,1.95h-.82v2.29H413V26.28h2.36A2,2,0,0,1,417.46,28.22Zm-1.55-.07a.44.44,0,0,0-.46-.47h-.92v2h.91a.44.44,0,0,0,.47-.48Z"/><path class="cls-1" d="M418.29,26.28h1.55v7.09h-1.55Z"/><path class="cls-1" d="M425.94,28.84v-.71c0-.36-.33-.6-.79-.6s-.8.24-.8.6v3.4c0,.36.34.6.79.6s.8-.24.8-.6v-.6h-.81v-1.4h2.36v2a2.37,2.37,0,0,1-4.68,0V28.15a2.37,2.37,0,0,1,4.68,0v.69Z"/><path class="cls-1" d="M431.36,32.13h-1.45l-.29,1.24h-1.51l1.53-7.09h2l1.54,7.09h-1.54Zm-.72-4-.45,2.56h.9Z"/><path class="cls-1" d="M437.72,27.68h-1.47v5.69H434.7V27.68h-1.48v-1.4h4.5Z"/><path class="cls-1" d="M440,27.68v1.55h1.72v1.4H440V32h2.12v1.39h-3.66V26.28h3.66v1.4Z"/><path class="cls-1" d="M450.68,26.28l-1.52,7.09h-1.61l-.79-3.85L446,33.37h-1.61l-1.52-7.09h1.61l.79,4.84.92-4.84h1.19l1,4.83.77-4.83Z"/><path class="cls-1" d="M454,32.13h-1.45l-.29,1.24h-1.51l1.53-7.09h2l1.54,7.09h-1.54Zm-.72-4-.45,2.56h.9Z"/><path class="cls-1" d="M459.09,31v2.34h-1.55V31l-1.82-4.75h1.65l1,2.83.95-2.83h1.63Z"/><polygon class="cls-16" points="287.36 280.33 287.36 259.8 269.6 249.53 251.84 259.8 251.84 280.33 269.6 290.6 287.36 280.33"/><polygon class="cls-16" points="275.32 273.38 275.32 266.76 269.6 263.45 263.87 266.76 263.87 273.38 269.6 276.69 275.32 273.38"/><ellipse class="cls-16" cx="269.6" cy="255.45" rx="1.82" ry="1.81"/><line class="cls-16" x1="269.6" y1="263.49" x2="269.6" y2="257.48"/><ellipse class="cls-16" cx="269.6" cy="284.68" rx="1.82" ry="1.81"/><line class="cls-16" x1="269.6" y1="276.64" x2="269.6" y2="282.66"/><ellipse class="cls-16" cx="256.94" cy="262.76" rx="1.82" ry="1.81" transform="matrix(0.5, -0.87, 0.87, 0.5, -99.08, 353.9)"/><line class="cls-16" x1="263.91" y1="266.78" x2="258.69" y2="263.77"/><ellipse class="cls-16" cx="282.26" cy="277.37" rx="1.82" ry="1.81" transform="translate(-99.08 383.13) rotate(-60)"/><line class="cls-16" x1="275.29" y1="273.35" x2="280.5" y2="276.36"/><ellipse class="cls-16" cx="256.94" cy="277.37" rx="1.81" ry="1.82" transform="translate(-104.26 165.63) rotate(-30)"/><line class="cls-16" x1="263.91" y1="273.35" x2="258.69" y2="276.36"/><ellipse class="cls-16" cx="282.26" cy="262.76" rx="1.81" ry="1.82" transform="translate(-93.56 176.33) rotate(-30)"/><line class="cls-16" x1="275.29" y1="266.78" x2="280.5" y2="263.77"/><path class="cls-17" d="M255,297.14v5.92h-.91v-7.34H255l4.23,5.8v-5.8h.91v7.34h-.88Z"/><path class="cls-17" d="M265.22,295.6a3.48,3.48,0,0,1,2.85,1.38l-.72.45a2.71,2.71,0,0,0-2.13-1,3,3,0,0,0,0,6,2.9,2.9,0,0,0,2-.79v-1.5h-2.52v-.81h3.43v2.65a3.81,3.81,0,0,1-2.88,1.26,3.8,3.8,0,0,1,0-7.6Z"/><path class="cls-17" d="M269.48,295.72h.91v7.34h-.91Z"/><path class="cls-17" d="M272.91,297.14v5.92H272v-7.34h.93l4.23,5.8v-5.8h.91v7.34h-.88Z"/><path class="cls-17" d="M282.4,299.94l-2.34,3.12H279l2.86-3.76-2.7-3.58h1.12l2.17,2.94,2.17-2.94h1.11L283,299.29l2.85,3.77h-1.1Z"/><path class="cls-17" d="M246.8,310.4a3.66,3.66,0,0,1,3.74-3.8,3.3,3.3,0,0,1,2.81,1.45l-.77.43a2.49,2.49,0,0,0-2-1.06,3,3,0,0,0,0,6,2.45,2.45,0,0,0,2-1.07l.78.43a3.31,3.31,0,0,1-2.82,1.45A3.66,3.66,0,0,1,246.8,310.4Z"/><path class="cls-17" d="M254.08,311.4c-.19-3.63,5.45-3.62,5.26,0C259.53,315,253.89,315,254.08,311.4Zm4.39,0a1.78,1.78,0,1,0-3.53,0A1.78,1.78,0,1,0,258.47,311.4Z"/><path class="cls-17" d="M264.15,310.58c0-.93-.47-1.23-1.18-1.23a2.07,2.07,0,0,0-1.58.83v3.88h-.82v-5.31h.82v.77a2.66,2.66,0,0,1,1.9-.91,1.51,1.51,0,0,1,1.69,1.72v3.73h-.83Z"/><path class="cls-17" d="M266.68,313v-3.48h-.88v-.72h.88v-1.46h.83v1.46h1.08v.72h-1.08v3.3c0,.4.18.68.54.68a.76.76,0,0,0,.56-.22l.24.62a1.33,1.33,0,0,1-1,.34A1.09,1.09,0,0,1,266.68,313Z"/><path class="cls-17" d="M269.64,308.75h.83v.85a2.25,2.25,0,0,1,1.77-1v.84a1.61,1.61,0,0,0-.33,0,1.93,1.93,0,0,0-1.44.85v3.76h-.83Z"/><path class="cls-17" d="M272.85,311.4c-.19-3.62,5.46-3.63,5.26,0C278.31,315,272.66,315,272.85,311.4Zm4.39,0a1.78,1.78,0,1,0-3.53,0A1.78,1.78,0,1,0,277.24,311.4Z"/><path class="cls-17" d="M279.35,306.72h.82v7.34h-.82Z"/><path class="cls-17" d="M281.71,306.72h.83v7.34h-.83Z"/><path class="cls-17" d="M286.39,308.61a2.59,2.59,0,0,1,2.55,2.85v.21h-4.3a1.87,1.87,0,0,0,1.91,1.84,2.31,2.31,0,0,0,1.64-.67l.4.54a2.9,2.9,0,0,1-2.12.81,2.63,2.63,0,0,1-2.7-2.79A2.66,2.66,0,0,1,286.39,308.61Zm-1.75,2.46h3.48a1.72,1.72,0,0,0-1.75-1.77A1.76,1.76,0,0,0,284.64,311.07Z"/><path class="cls-17" d="M290.16,308.75H291v.85a2.26,2.26,0,0,1,1.77-1v.84a1.55,1.55,0,0,0-.33,0,2,2,0,0,0-1.44.85v3.76h-.82Z"/><path d="M251.15,388.19h2.51a3.67,3.67,0,1,1,0,7.34h-2.51Zm2.51,6.53a2.86,2.86,0,0,0,0-5.71h-1.59v5.71Z"/><path d="M261.24,390.08a2.58,2.58,0,0,1,2.55,2.85v.21h-4.3a1.88,1.88,0,0,0,1.92,1.84,2.33,2.33,0,0,0,1.64-.67l.39.54a2.87,2.87,0,0,1-2.11.81,2.64,2.64,0,0,1-2.71-2.79A2.66,2.66,0,0,1,261.24,390.08Zm-1.75,2.46H263a1.72,1.72,0,0,0-1.75-1.77A1.78,1.78,0,0,0,259.49,392.54Z"/><path d="M264.44,390.22h.89l1.77,4.35,1.76-4.35h.91l-2.21,5.31h-.91Z"/><path d="M274.11,388.07c4.78-.17,4.78,7.76,0,7.59C269.33,395.83,269.33,387.9,274.11,388.07Zm0,.82c-3.55-.16-3.55,6.11,0,6C277.66,395,277.66,388.73,274.11,388.89Z"/><path d="M279.26,397.55v-7.33h.82V391a2.24,2.24,0,0,1,1.8-.93c1.4,0,2.36,1.06,2.36,2.79s-1,2.79-2.36,2.79a2.19,2.19,0,0,1-1.8-.93v2.82Zm2.41-6.73a2,2,0,0,0-1.59.85v2.4a2,2,0,0,0,1.59.85c1.07,0,1.7-.88,1.7-2.05S282.74,390.82,281.67,390.82Z"/><path d="M285.65,394.23a2.39,2.39,0,0,0,1.75.76c.81,0,1.25-.36,1.25-.88s-.65-.77-1.36-.95c-.9-.2-1.93-.45-1.93-1.55,0-.82.72-1.53,2-1.53a2.71,2.71,0,0,1,2,.77l-.38.58a2.05,2.05,0,0,0-1.59-.67c-.72,0-1.17.33-1.17.8s.6.68,1.3.85c.92.2,2,.47,2,1.65,0,.89-.72,1.6-2.09,1.6a2.84,2.84,0,0,1-2.15-.83Z"/><path class="cls-18" d="M267.48,365.52l-.1.1-2.18,2.17a3.94,3.94,0,0,1-3.35,1.15,4,4,0,1,1,3.37-6.83q3.39,3.4,6.79,6.78a5.46,5.46,0,0,0,5.19,1.55A5.63,5.63,0,1,0,272,361c-.73.72-1.45,1.45-2.17,2.17l-.07.07,1.13,1.14a1,1,0,0,1,.1-.11c.71-.72,1.43-1.45,2.15-2.16a3.93,3.93,0,0,1,3.7-1.1,4,4,0,0,1-.5,8,4,4,0,0,1-3.24-1.22c-2.26-2.26-4.51-4.53-6.79-6.77a5.42,5.42,0,0,0-4.93-1.57,5.58,5.58,0,0,0-4.57,6.57,5.36,5.36,0,0,0,3.83,4.33,5.43,5.43,0,0,0,5.65-1.36c.76-.72,1.49-1.48,2.23-2.22l.07-.08Z"/><path class="cls-19" d="M267.48,365.52l1.12,1.12-.07.08c-.74.74-1.47,1.5-2.23,2.22a5.43,5.43,0,0,1-5.65,1.36,5.36,5.36,0,0,1-3.83-4.33,5.58,5.58,0,0,1,4.57-6.57,5.42,5.42,0,0,1,4.93,1.57c2.28,2.24,4.53,4.51,6.79,6.77a4,4,0,0,0,3.24,1.22,4,4,0,0,0,.5-8,3.93,3.93,0,0,0-3.7,1.1c-.72.71-1.44,1.44-2.15,2.16a1,1,0,0,0-.1.11l-1.13-1.14.07-.07c.72-.72,1.44-1.45,2.17-2.17a5.56,5.56,0,0,1,4.55-1.65,5.63,5.63,0,0,1,.64,11.1,5.46,5.46,0,0,1-5.19-1.55q-3.4-3.37-6.79-6.78a4,4,0,1,0-3.37,6.83,3.94,3.94,0,0,0,3.35-1.15l2.18-2.17Z"/><polygon class="cls-11" points="286.04 374.7 286.04 355.2 269.18 345.45 252.32 355.2 252.32 374.7 269.18 384.45 286.04 374.7"/><path d="M452.71,421.8H449l-.65,1.63h-1l2.95-7.34h1.13l3,7.34h-1Zm-3.45-.81h3.18l-1.59-4.08Z"/><path d="M455.22,416.09h2.95a2.21,2.21,0,1,1,0,4.42h-2v2.92h-.91Zm2.84.82h-1.93v2.79h1.93a1.4,1.4,0,1,0,0-2.79Z"/><path d="M461.56,416.09h.92v7.34h-.92Z"/><path d="M467.72,417.51v5.92h-.91v-7.34h.94l4.22,5.8v-5.8h.91v7.34H472Z"/><path d="M474.15,420.77c-.2-3.63,5.45-3.63,5.26,0C479.6,424.4,474,424.4,474.15,420.77Zm4.39,0a1.78,1.78,0,1,0-3.53,0A1.78,1.78,0,1,0,478.54,420.77Z"/><path d="M484.49,422.64a2.25,2.25,0,0,1-1.8.92c-1.38,0-2.36-1.05-2.36-2.78s1-2.8,2.36-2.8a2.24,2.24,0,0,1,1.8.94v-2.83h.82v7.34h-.82Zm0-3.06a2,2,0,0,0-1.6-.86c-1.06,0-1.7.88-1.7,2.06s.64,2,1.7,2a2,2,0,0,0,1.6-.83Z"/><path d="M489.16,418a2.59,2.59,0,0,1,2.56,2.85V421h-4.31a1.88,1.88,0,0,0,1.92,1.84,2.33,2.33,0,0,0,1.64-.67l.39.54a2.86,2.86,0,0,1-2.11.81,2.64,2.64,0,0,1-2.71-2.79A2.67,2.67,0,0,1,489.16,418Zm-1.75,2.46h3.49a1.72,1.72,0,0,0-1.75-1.77A1.78,1.78,0,0,0,487.41,420.44Z"/><path d="M492.9,422.13a2.41,2.41,0,0,0,1.75.76c.82,0,1.26-.36,1.26-.88s-.65-.77-1.37-.94c-.9-.21-1.92-.46-1.92-1.56,0-.82.71-1.53,2-1.53a2.69,2.69,0,0,1,2,.77l-.39.58a2.05,2.05,0,0,0-1.58-.68c-.73,0-1.18.33-1.18.81s.6.68,1.3.85c.92.2,2,.47,2,1.65,0,.89-.72,1.6-2.09,1.6a2.84,2.84,0,0,1-2.15-.83Z"/><circle class="cls-20" cx="460.15" cy="382.16" r="1.56"/><circle class="cls-20" cx="484.8" cy="396.6" r="1.56"/><circle class="cls-20" cx="472.27" cy="404.03" r="1.56"/><rect class="cls-20" x="471.05" y="387.95" width="2.78" height="2.78"/><rect class="cls-20" x="483.45" y="380.79" width="2.78" height="2.78"/><polygon class="cls-20" points="460.19 394.89 458.59 397.64 461.78 397.64 460.19 394.89"/><polygon class="cls-20" points="472.17 373.43 470.58 376.18 473.76 376.18 472.17 373.43"/><polygon class="cls-20" points="463.64 376.32 456.66 376.32 453.17 382.36 456.66 388.39 463.64 388.39 467.13 382.36 463.64 376.32"/><polygon class="cls-20" points="475.85 369.3 468.87 369.3 465.38 375.33 468.87 381.37 475.85 381.37 479.34 375.33 475.85 369.3"/><polygon class="cls-20" points="475.85 397.72 468.87 397.72 465.38 403.76 468.87 409.8 475.85 409.8 479.34 403.76 475.85 397.72"/><polygon class="cls-20" points="475.97 383.56 468.99 383.56 465.5 389.59 468.99 395.63 475.97 395.63 479.46 389.59 475.97 383.56"/><polygon class="cls-20" points="488.18 376.3 481.2 376.3 477.71 382.33 481.2 388.37 488.18 388.37 491.67 382.33 488.18 376.3"/><polygon class="cls-20" points="463.64 390.7 456.66 390.7 453.17 396.73 456.66 402.77 463.64 402.77 467.13 396.73 463.64 390.7"/><polygon class="cls-20" points="488.18 390.67 481.2 390.67 477.71 396.71 481.2 402.75 488.18 402.75 491.67 396.71 488.18 390.67"/><path d="M452.71,282.92H449l-.65,1.63h-1l2.95-7.34h1.13l3,7.34h-1Zm-3.46-.81h3.18L450.85,278Z"/><path d="M455.22,277.21h2.94a2.22,2.22,0,1,1,0,4.43h-2v2.91h-.91Zm2.84.82h-1.93v2.79h1.93a1.4,1.4,0,1,0,0-2.79Z"/><path d="M461.56,277.21h.92v7.34h-.92Z"/><path d="M467.72,278.63v5.92h-.91v-7.34h.93L472,283v-5.8h.91v7.34H472Z"/><path d="M474.15,281.89c-.2-3.62,5.45-3.62,5.25,0C479.6,285.53,474,285.53,474.15,281.89Zm4.39,0a1.78,1.78,0,1,0-3.54,0A1.78,1.78,0,1,0,478.54,281.89Z"/><path d="M484.49,283.76a2.25,2.25,0,0,1-1.8.92c-1.38,0-2.36-1.05-2.36-2.78s1-2.79,2.36-2.79a2.23,2.23,0,0,1,1.8.93v-2.83h.82v7.34h-.82Zm0-3.06a2,2,0,0,0-1.6-.86c-1.07,0-1.7.88-1.7,2.06s.63,2.05,1.7,2.05a2,2,0,0,0,1.6-.84Z"/><path d="M489.16,279.11a2.58,2.58,0,0,1,2.56,2.85v.2h-4.31a1.87,1.87,0,0,0,1.92,1.84,2.33,2.33,0,0,0,1.64-.67l.39.54a2.87,2.87,0,0,1-2.11.81,2.79,2.79,0,0,1-.09-5.57Zm-1.75,2.45h3.49a1.72,1.72,0,0,0-1.75-1.77A1.78,1.78,0,0,0,487.41,281.56Z"/><path d="M492.9,283.25a2.39,2.39,0,0,0,1.75.76c.82,0,1.25-.36,1.25-.88s-.64-.77-1.36-.94c-.9-.21-1.92-.45-1.92-1.55,0-.83.71-1.53,2-1.53a2.65,2.65,0,0,1,2,.77l-.38.57a2,2,0,0,0-1.58-.67c-.73,0-1.18.33-1.18.8s.6.68,1.3.85c.92.21,2,.47,2,1.65,0,.89-.72,1.6-2.09,1.6a2.84,2.84,0,0,1-2.15-.83Z"/><circle class="cls-20" cx="460.14" cy="243.28" r="1.56"/><circle class="cls-20" cx="484.8" cy="257.72" r="1.56"/><circle class="cls-20" cx="472.27" cy="265.15" r="1.56"/><rect class="cls-20" x="471.05" y="249.07" width="2.78" height="2.78"/><rect class="cls-20" x="483.45" y="241.92" width="2.78" height="2.78"/><polygon class="cls-20" points="460.19 256.01 458.59 258.76 461.78 258.76 460.19 256.01"/><polygon class="cls-20" points="472.17 234.55 470.58 237.3 473.76 237.3 472.17 234.55"/><polygon class="cls-20" points="463.64 237.44 456.66 237.44 453.17 243.48 456.66 249.52 463.64 249.52 467.13 243.48 463.64 237.44"/><polygon class="cls-20" points="475.85 230.42 468.87 230.42 465.38 236.46 468.87 242.49 475.85 242.49 479.34 236.46 475.85 230.42"/><polygon class="cls-20" points="475.85 258.84 468.87 258.84 465.38 264.88 468.87 270.92 475.85 270.92 479.34 264.88 475.85 258.84"/><polygon class="cls-20" points="475.97 244.68 468.99 244.68 465.5 250.72 468.99 256.75 475.97 256.75 479.46 250.72 475.97 244.68"/><polygon class="cls-20" points="488.18 237.42 481.2 237.42 477.71 243.46 481.2 249.49 488.18 249.49 491.67 243.46 488.18 237.42"/><polygon class="cls-20" points="463.64 251.82 456.66 251.82 453.17 257.86 456.66 263.89 463.64 263.89 467.13 257.86 463.64 251.82"/><polygon class="cls-20" points="488.18 251.8 481.2 251.8 477.71 257.83 481.2 263.87 488.18 263.87 491.67 257.83 488.18 251.8"/><path class="cls-21" d="M474.17,306.32a5.38,5.38,0,0,1,4.86-.19,6.35,6.35,0,0,1,12.3,2.25,6.52,6.52,0,0,1-.22,1.66,4.6,4.6,0,0,1-2.5,8.44h-3.08"/><path class="cls-22" d="M460.23,322.17h-5.34a3.68,3.68,0,1,1,0-7.36h0a5.49,5.49,0,0,1,5.52-5.47,5.61,5.61,0,0,1,2.28.48,6.46,6.46,0,0,1,12.5,2.25"/><path class="cls-23" d="M478.56,330H463.74a3.69,3.69,0,1,1,0-7.37h0a5.51,5.51,0,0,1,5.55-5.47,5.67,5.67,0,0,1,2.29.49,6.48,6.48,0,0,1,12.34,3.91,4.59,4.59,0,0,1-2.56,8.44h-2.78Z"/><path d="M452.39,337.37l-2.5,6.1h-.37l-2.49-6.1v6.1h-.91v-7.33h1.31l2.28,5.58,2.29-5.58h1.3v7.33h-.91Z"/><path d="M458.46,342.73a2.59,2.59,0,0,1-1.89.88,1.49,1.49,0,0,1-1.69-1.7v-3.75h.82v3.5c0,.93.47,1.21,1.19,1.21a2.05,2.05,0,0,0,1.57-.8v-3.91h.83v5.31h-.83Z"/><path d="M460.83,336.14h.82v7.33h-.82Z"/><path d="M463.36,342.36v-3.47h-.88v-.73h.88v-1.45h.82v1.45h1.08v.73h-1.08v3.3c0,.39.18.68.54.68a.8.8,0,0,0,.56-.22l.24.61a1.33,1.33,0,0,1-1,.35C463.75,343.61,463.36,343.15,463.36,342.36Z"/><path d="M466.17,336.75a.56.56,0,1,1,1.11,0,.56.56,0,0,1-1.11,0Zm.15,1.41h.82v5.31h-.82Z"/><path d="M468.19,340.45h2.64v.72h-2.64Z"/><path d="M471.61,339.81a3.66,3.66,0,0,1,3.74-3.8,3.28,3.28,0,0,1,2.81,1.46l-.77.43a2.46,2.46,0,0,0-2-1.07,3,3,0,0,0,0,6,2.43,2.43,0,0,0,2-1.07l.78.43a3.31,3.31,0,0,1-2.82,1.46A3.66,3.66,0,0,1,471.61,339.81Z"/><path d="M479.2,336.14H480v7.33h-.82Z"/><path d="M481.25,340.81c-.19-3.62,5.46-3.62,5.26,0C486.7,344.45,481.06,344.45,481.25,340.81Zm4.39,0a1.78,1.78,0,1,0-3.53,0A1.78,1.78,0,1,0,485.64,340.81Z"/><path d="M491.33,342.73a2.61,2.61,0,0,1-1.89.88,1.5,1.5,0,0,1-1.7-1.7v-3.75h.83v3.5c0,.93.47,1.21,1.19,1.21a2.05,2.05,0,0,0,1.57-.8v-3.91h.82v5.31h-.82Z"/><path d="M497.55,342.68a2.26,2.26,0,0,1-1.8.93c-1.38,0-2.36-1.06-2.36-2.79s1-2.79,2.36-2.79a2.23,2.23,0,0,1,1.8.93v-2.82h.82v7.33h-.82Zm0-3.06a2,2,0,0,0-1.6-.86c-1.07,0-1.71.88-1.71,2.06s.64,2.05,1.71,2.05a2,2,0,0,0,1.6-.84Z"/><path d="M39.37,56.15a1.19,1.19,0,1,1,1.19,1.18A1.2,1.2,0,0,1,39.37,56.15Z"/><path d="M46.31,57.08a3.12,3.12,0,0,0,2.31,1.05c1.31,0,1.73-.71,1.73-1.27,0-.88-.89-1.12-1.86-1.38C47.31,55.17,46,54.84,46,53.4c0-1.21,1.08-2,2.52-2a3.47,3.47,0,0,1,2.61,1l-.55.67a2.79,2.79,0,0,0-2.12-.88c-.88,0-1.51.47-1.51,1.16s.85,1,1.78,1.21c1.2.32,2.56.7,2.56,2.24,0,1.06-.72,2.15-2.7,2.15a3.65,3.65,0,0,1-2.82-1.16Z"/><path d="M55,53.37a2.27,2.27,0,0,1,2,.92l-.55.51A1.59,1.59,0,0,0,55,54.1a2.07,2.07,0,0,0,0,4.11,1.61,1.61,0,0,0,1.36-.7l.55.51a2.27,2.27,0,0,1-2,.92,2.79,2.79,0,0,1,0-5.57Z"/><path d="M61.67,55.31c0-.93-.49-1.21-1.2-1.21a2.06,2.06,0,0,0-1.57.83v3.88h-.83V51.47h.83v2.8a2.63,2.63,0,0,1,1.9-.9,1.49,1.49,0,0,1,1.69,1.69v3.75h-.82Z"/><path d="M66.45,53.37A2.57,2.57,0,0,1,69,56.21v.21H64.7a1.88,1.88,0,0,0,1.92,1.84,2.33,2.33,0,0,0,1.64-.67l.39.54a2.87,2.87,0,0,1-2.11.81,2.79,2.79,0,0,1-.09-5.57ZM64.7,55.82h3.49a1.72,1.72,0,0,0-1.75-1.77A1.78,1.78,0,0,0,64.7,55.82Z"/><path d="M76.75,55.2c0-.67-.3-1.1-1-1.1a1.87,1.87,0,0,0-1.41.82v3.89h-.82V55.2c0-.67-.29-1.1-1-1.1a1.87,1.87,0,0,0-1.4.83v3.88h-.83V53.5h.83v.77a2.29,2.29,0,0,1,1.72-.9,1.37,1.37,0,0,1,1.43,1,2.21,2.21,0,0,1,1.78-1c1,0,1.48.53,1.48,1.6v3.84h-.82Z"/><path d="M82.54,58.21a2.3,2.3,0,0,1-1.76.73,1.76,1.76,0,0,1-1.85-1.76,1.73,1.73,0,0,1,1.85-1.75,2.19,2.19,0,0,1,1.76.73v-1c0-.71-.57-1.12-1.34-1.12a2.11,2.11,0,0,0-1.63.74l-.38-.57a2.75,2.75,0,0,1,2.12-.88c1.13,0,2.06.5,2.06,1.79v3.65h-.83Zm0-1.52A1.75,1.75,0,0,0,81.08,56a1.17,1.17,0,1,0,0,2.32,1.75,1.75,0,0,0,1.46-.66Z"/><path d="M87.07,53.5H88l1.77,4.35,1.76-4.35h.9l-2.21,5.31h-.9Z"/><path d="M96.57,58.21a2.31,2.31,0,0,1-1.76.73A1.77,1.77,0,0,1,93,57.18a1.74,1.74,0,0,1,1.86-1.75,2.2,2.2,0,0,1,1.76.73v-1c0-.71-.57-1.12-1.34-1.12a2.1,2.1,0,0,0-1.63.74l-.39-.57a2.79,2.79,0,0,1,2.13-.88c1.12,0,2,.5,2,1.79v3.65h-.82Zm0-1.52A1.78,1.78,0,0,0,95.11,56a1.17,1.17,0,1,0,0,2.32,1.78,1.78,0,0,0,1.46-.66Z"/><path d="M99,51.47h.83v7.34H99Z"/><path d="M101.38,52.09a.56.56,0,0,1,.55-.56.57.57,0,0,1,.56.56.56.56,0,0,1-.56.55A.55.55,0,0,1,101.38,52.09Zm.14,1.41h.82v5.31h-.82Z"/><path d="M107.84,58a2.21,2.21,0,0,1-1.79.92c-1.38,0-2.36-1-2.36-2.78s1-2.79,2.36-2.79a2.2,2.2,0,0,1,1.79.93V51.47h.83v7.34h-.83Zm0-3.06a2,2,0,0,0-1.59-.86c-1.07,0-1.71.88-1.71,2.06s.64,2.05,1.71,2.05a2,2,0,0,0,1.59-.84Z"/><path d="M113.64,58.21a2.3,2.3,0,0,1-1.76.73A1.77,1.77,0,0,1,110,57.18a1.74,1.74,0,0,1,1.86-1.75,2.2,2.2,0,0,1,1.76.73v-1c0-.71-.57-1.12-1.34-1.12a2.1,2.1,0,0,0-1.63.74l-.38-.57a2.75,2.75,0,0,1,2.12-.88c1.12,0,2.06.5,2.06,1.79v3.65h-.83Zm0-1.52a1.78,1.78,0,0,0-1.46-.66,1.17,1.17,0,1,0,0,2.32,1.78,1.78,0,0,0,1.46-.66Z"/><path d="M116.28,57.7V54.22h-.88V53.5h.88V52h.83V53.5h1.07v.72h-1.07v3.3c0,.4.17.69.54.69a.8.8,0,0,0,.56-.22l.24.61a1.35,1.35,0,0,1-1,.34A1.09,1.09,0,0,1,116.28,57.7Z"/><path d="M119.21,52.09a.56.56,0,0,1,.55-.56.57.57,0,0,1,.56.56.56.56,0,0,1-.56.55A.55.55,0,0,1,119.21,52.09Zm.14,1.41h.83v5.31h-.83Z"/><path d="M121.52,56.15c-.2-3.62,5.45-3.62,5.26,0C127,59.78,121.32,59.78,121.52,56.15Zm4.39,0a1.78,1.78,0,1,0-3.53,0A1.78,1.78,0,1,0,125.91,56.15Z"/><path d="M131.7,55.33c0-.93-.47-1.23-1.18-1.23a2.07,2.07,0,0,0-1.58.83v3.88h-.82V53.5h.82v.77a2.64,2.64,0,0,1,1.89-.9,1.51,1.51,0,0,1,1.7,1.71v3.73h-.83Z"/><path d="M39.37,75.15a1.19,1.19,0,1,1,1.19,1.18A1.2,1.2,0,0,1,39.37,75.15Z"/><path d="M46.21,70.47h2.95a2.22,2.22,0,1,1,0,4.43h-2v2.91h-.92Zm2.84.82H47.13v2.79h1.92a1.4,1.4,0,1,0,0-2.79Z"/><path d="M52.64,72.5h.82v.86a2.24,2.24,0,0,1,1.77-1v.84a1.61,1.61,0,0,0-.33,0,2,2,0,0,0-1.44.85v3.76h-.82Z"/><path d="M56,75.15c-.2-3.62,5.45-3.62,5.26,0C61.41,78.78,55.77,78.78,56,75.15Zm4.39,0a1.78,1.78,0,1,0-3.53,0A1.78,1.78,0,1,0,60.35,75.15Z"/><path d="M62.72,76.7V73.22h-.88V72.5h.88V71h.83V72.5h1.08v.72H63.55v3.3c0,.4.17.69.54.69a.8.8,0,0,0,.56-.22l.24.61a1.35,1.35,0,0,1-1,.34A1.09,1.09,0,0,1,62.72,76.7Z"/><path d="M65.48,75.15c-.19-3.62,5.46-3.62,5.26,0C70.93,78.78,65.29,78.78,65.48,75.15Zm4.39,0a1.78,1.78,0,1,0-3.53,0A1.78,1.78,0,1,0,69.87,75.15Z"/><path d="M74.43,72.37a2.24,2.24,0,0,1,1.94.92l-.55.51a1.56,1.56,0,0,0-1.35-.7,2.07,2.07,0,0,0,0,4.11,1.58,1.58,0,0,0,1.35-.7l.55.51a2.24,2.24,0,0,1-1.94.92,2.79,2.79,0,0,1,0-5.57Z"/><path d="M77.22,75.15c-.19-3.62,5.45-3.62,5.26,0C82.67,78.78,77,78.78,77.22,75.15Zm4.39,0a1.78,1.78,0,1,0-3.53,0A1.78,1.78,0,1,0,81.61,75.15Z"/><path d="M83.82,70.47h.83v7.34h-.83Z"/><path d="M91.48,72.37a2.24,2.24,0,0,1,1.94.92l-.55.51a1.56,1.56,0,0,0-1.35-.7,2.07,2.07,0,0,0,0,4.11,1.58,1.58,0,0,0,1.35-.7l.55.51a2.24,2.24,0,0,1-1.94.92,2.79,2.79,0,0,1,0-5.57Z"/><path d="M94.27,75.15c-.19-3.62,5.45-3.62,5.26,0C99.72,78.78,94.08,78.78,94.27,75.15Zm4.39,0a1.78,1.78,0,1,0-3.53,0A1.78,1.78,0,1,0,98.66,75.15Z"/><path d="M104.46,74.33c0-.93-.48-1.23-1.19-1.23a2,2,0,0,0-1.57.83v3.88h-.83V72.5h.83v.77a2.63,2.63,0,0,1,1.89-.9,1.51,1.51,0,0,1,1.69,1.71v3.73h-.82Z"/><path d="M107.16,73.22h-.88V72.5h.88v-.41a1.52,1.52,0,0,1,1.54-1.73,1.57,1.57,0,0,1,.81.19l-.21.62a.9.9,0,0,0-.48-.13c-.54,0-.83.38-.83,1v.41h1.08v.72H108v4.59h-.83Z"/><path d="M109.74,75.15c-.2-3.62,5.45-3.62,5.26,0C115.19,78.78,109.54,78.78,109.74,75.15Zm4.39,0a1.78,1.78,0,1,0-3.54,0A1.78,1.78,0,1,0,114.13,75.15Z"/><path d="M116.34,72.5h.82v.86a2.24,2.24,0,0,1,1.77-1v.84a1.61,1.61,0,0,0-.33,0,2,2,0,0,0-1.44.85v3.76h-.82Z"/><path d="M126.38,74.2c0-.67-.3-1.1-1-1.1a1.87,1.87,0,0,0-1.41.82v3.89h-.82V74.2c0-.67-.29-1.1-1-1.1a1.87,1.87,0,0,0-1.4.83v3.88H120V72.5h.82v.77a2.31,2.31,0,0,1,1.72-.9,1.37,1.37,0,0,1,1.43,1,2.21,2.21,0,0,1,1.78-1c1,0,1.49.53,1.49,1.6v3.84h-.83Z"/><path d="M132.18,77.21a2.31,2.31,0,0,1-1.76.73,1.76,1.76,0,0,1-1.86-1.76,1.74,1.74,0,0,1,1.86-1.75,2.22,2.22,0,0,1,1.76.73v-1c0-.71-.58-1.12-1.35-1.12a2.09,2.09,0,0,0-1.62.74l-.39-.57a2.76,2.76,0,0,1,2.12-.88c1.13,0,2.06.5,2.06,1.79v3.65h-.82Zm0-1.52a1.79,1.79,0,0,0-1.47-.66,1.17,1.17,0,1,0,0,2.32,1.79,1.79,0,0,0,1.47-.66Z"/><path d="M138.24,74.33c0-.93-.48-1.23-1.19-1.23a2,2,0,0,0-1.57.83v3.88h-.83V72.5h.83v.77a2.63,2.63,0,0,1,1.89-.9,1.51,1.51,0,0,1,1.69,1.71v3.73h-.82Z"/><path d="M143.06,72.37a2.25,2.25,0,0,1,1.94.92l-.55.51a1.56,1.56,0,0,0-1.35-.7,2.07,2.07,0,0,0,0,4.11,1.58,1.58,0,0,0,1.35-.7L145,77a2.25,2.25,0,0,1-1.94.92,2.79,2.79,0,0,1,0-5.57Z"/><path d="M148.47,72.37A2.58,2.58,0,0,1,151,75.21v.21h-4.3a1.87,1.87,0,0,0,1.91,1.84,2.31,2.31,0,0,0,1.64-.67l.4.54a2.89,2.89,0,0,1-2.11.81,2.79,2.79,0,0,1-.09-5.57Zm-1.75,2.45h3.49a1.73,1.73,0,0,0-1.75-1.77A1.76,1.76,0,0,0,146.72,74.82Z"/><path d="M39.37,94.15a1.19,1.19,0,1,1,1.19,1.18A1.2,1.2,0,0,1,39.37,94.15Z"/><path d="M46.21,89.47h2.95a2.22,2.22,0,1,1,0,4.43h-2v2.91h-.92Zm2.84.82H47.13v2.79h1.92a1.4,1.4,0,1,0,0-2.79Z"/><path d="M52.64,91.5h.82v.86a2.24,2.24,0,0,1,1.77-1v.84a1.61,1.61,0,0,0-.33,0,2,2,0,0,0-1.44.85v3.76h-.82Z"/><path d="M56,94.15c-.2-3.62,5.45-3.62,5.26,0C61.41,97.78,55.77,97.78,56,94.15Zm4.39,0a1.78,1.78,0,1,0-3.53,0A1.78,1.78,0,1,0,60.35,94.15Z"/><path d="M62.72,95.7V92.22h-.88V91.5h.88V90h.83V91.5h1.08v.72H63.55v3.3c0,.4.17.69.54.69a.8.8,0,0,0,.56-.22l.24.61a1.35,1.35,0,0,1-1,.34A1.09,1.09,0,0,1,62.72,95.7Z"/><path d="M68.1,91.37a2.57,2.57,0,0,1,2.55,2.84v.21h-4.3a1.88,1.88,0,0,0,1.92,1.84,2.33,2.33,0,0,0,1.64-.67l.39.54a2.87,2.87,0,0,1-2.11.81,2.79,2.79,0,0,1-.09-5.57Zm-1.75,2.45h3.49a1.72,1.72,0,0,0-1.75-1.77A1.78,1.78,0,0,0,66.35,93.82Z"/><path d="M74.33,91.37a2.27,2.27,0,0,1,2,.92l-.55.51a1.59,1.59,0,0,0-1.36-.7,2.07,2.07,0,0,0,0,4.11,1.61,1.61,0,0,0,1.36-.7l.55.51a2.27,2.27,0,0,1-2,.92,2.79,2.79,0,0,1,0-5.57Z"/><path d="M77.59,95.7V92.22h-.88V91.5h.88V90h.83V91.5H79.5v.72H78.42v3.3c0,.4.18.69.54.69a.8.8,0,0,0,.56-.22l.24.61a1.33,1.33,0,0,1-1,.34A1.09,1.09,0,0,1,77.59,95.7Z"/><path d="M80.52,90.09a.56.56,0,1,1,1.11,0,.56.56,0,0,1-1.11,0Zm.14,1.41h.83v5.31h-.83Z"/><path d="M82.83,94.15c-.19-3.62,5.45-3.62,5.26,0C88.28,97.78,82.64,97.78,82.83,94.15Zm4.39,0a1.78,1.78,0,1,0-3.53,0A1.78,1.78,0,1,0,87.22,94.15Z"/><path d="M93,93.33c0-.93-.48-1.23-1.19-1.23a2,2,0,0,0-1.57.83v3.88h-.83V91.5h.83v.77a2.63,2.63,0,0,1,1.89-.9,1.51,1.51,0,0,1,1.69,1.71v3.73H93Z"/><path d="M101.65,96.21a2.3,2.3,0,0,1-1.76.73A1.77,1.77,0,0,1,98,95.18a1.74,1.74,0,0,1,1.86-1.75,2.2,2.2,0,0,1,1.76.73v-1c0-.71-.57-1.12-1.34-1.12a2.1,2.1,0,0,0-1.63.74l-.38-.57a2.75,2.75,0,0,1,2.12-.88c1.12,0,2.06.5,2.06,1.79v3.65h-.83Zm0-1.52a1.78,1.78,0,0,0-1.46-.66,1.17,1.17,0,1,0,0,2.32,1.78,1.78,0,0,0,1.46-.66Z"/><path d="M104.53,97.56a2,2,0,0,0,1.73.73,1.53,1.53,0,0,0,1.71-1.6v-.76a2.24,2.24,0,0,1-1.79.95c-1.38,0-2.36-1-2.36-2.75s1-2.76,2.36-2.76a2.21,2.21,0,0,1,1.79.93v-.8h.82v5.16c0,1.76-1.23,2.31-2.53,2.31a2.72,2.72,0,0,1-2.14-.79ZM108,93a2,2,0,0,0-1.59-.86c-1.07,0-1.7.85-1.7,2s.63,2,1.7,2a2,2,0,0,0,1.59-.87Z"/><path d="M113.76,96.21a2.3,2.3,0,0,1-1.76.73,1.77,1.77,0,0,1-1.86-1.76A1.74,1.74,0,0,1,112,93.43a2.2,2.2,0,0,1,1.76.73v-1c0-.71-.57-1.12-1.34-1.12a2.11,2.11,0,0,0-1.63.74l-.38-.57a2.75,2.75,0,0,1,2.12-.88c1.12,0,2.06.5,2.06,1.79v3.65h-.83Zm0-1.52A1.78,1.78,0,0,0,112.3,94a1.17,1.17,0,1,0,0,2.32,1.78,1.78,0,0,0,1.46-.66Z"/><path d="M116.09,90.09a.56.56,0,1,1,.55.55A.55.55,0,0,1,116.09,90.09Zm.15,1.41h.82v5.31h-.82Z"/><path d="M122.3,93.33c0-.93-.47-1.23-1.19-1.23a2,2,0,0,0-1.57.83v3.88h-.83V91.5h.83v.77a2.63,2.63,0,0,1,1.89-.9,1.51,1.51,0,0,1,1.69,1.71v3.73h-.82Z"/><path d="M124.74,95.51a2.39,2.39,0,0,0,1.75.76c.81,0,1.25-.36,1.25-.88s-.65-.77-1.36-.94c-.9-.21-1.93-.46-1.93-1.56,0-.82.72-1.52,2-1.52a2.68,2.68,0,0,1,2,.77l-.38.57a2.05,2.05,0,0,0-1.59-.67c-.72,0-1.17.33-1.17.8s.6.68,1.3.85c.92.21,2,.47,2,1.65,0,.89-.72,1.6-2.09,1.6a2.84,2.84,0,0,1-2.15-.83Z"/><path d="M130.05,95.7V92.22h-.88V91.5h.88V90h.83V91.5H132v.72h-1.08v3.3c0,.4.17.69.54.69A.8.8,0,0,0,132,96l.24.61a1.35,1.35,0,0,1-1,.34A1.09,1.09,0,0,1,130.05,95.7Z"/><path d="M44.61,104.5h.89l1.77,4.35L49,104.5h.91l-2.22,5.31h-.9Z"/><path d="M54.38,109.06a2.61,2.61,0,0,1-1.89.88,1.5,1.5,0,0,1-1.7-1.69V104.5h.83V108c0,.93.47,1.21,1.19,1.21a2,2,0,0,0,1.57-.81v-3.9h.82v5.31h-.82Z"/><path d="M56.85,102.47h.83v7.34h-.83Z"/><path d="M62.92,106.33c0-.93-.48-1.23-1.19-1.23a2.07,2.07,0,0,0-1.58.83v3.88h-.82V104.5h.82v.77a2.65,2.65,0,0,1,1.9-.9,1.51,1.51,0,0,1,1.69,1.71v3.73h-.82Z"/><path d="M67.7,104.37a2.57,2.57,0,0,1,2.55,2.84v.21H66a1.88,1.88,0,0,0,1.92,1.84,2.29,2.29,0,0,0,1.63-.67l.4.54a2.87,2.87,0,0,1-2.11.81,2.79,2.79,0,0,1-.09-5.57ZM66,106.82h3.49a1.72,1.72,0,0,0-1.75-1.77A1.78,1.78,0,0,0,66,106.82Z"/><path d="M71.58,104.5h.83v.86a2.23,2.23,0,0,1,1.77-1v.84a1.61,1.61,0,0,0-.33,0,1.93,1.93,0,0,0-1.44.85v3.76h-.83Z"/><path d="M78.54,109.21a2.32,2.32,0,0,1-1.77.73,1.76,1.76,0,0,1-1.85-1.76,1.73,1.73,0,0,1,1.85-1.75,2.23,2.23,0,0,1,1.77.73v-1c0-.71-.58-1.12-1.35-1.12a2.13,2.13,0,0,0-1.63.74l-.38-.57a2.75,2.75,0,0,1,2.12-.88c1.13,0,2.06.5,2.06,1.79v3.65h-.82Zm0-1.52a1.79,1.79,0,0,0-1.47-.66,1.17,1.17,0,1,0,0,2.32,1.79,1.79,0,0,0,1.47-.66Z"/><path d="M81,102.47h.82v2.83a2.22,2.22,0,0,1,1.8-.93c1.38,0,2.36,1.1,2.36,2.79s-1,2.78-2.36,2.78a2.25,2.25,0,0,1-1.8-.92v.79H81Zm2.41,6.74c1.08,0,1.72-.87,1.72-2s-.64-2.06-1.72-2.06a2,2,0,0,0-1.59.86v2.41A2,2,0,0,0,83.42,109.21Z"/><path d="M87.19,103.09a.56.56,0,1,1,1.11,0,.56.56,0,0,1-1.11,0Zm.14,1.41h.83v5.31h-.83Z"/><path d="M89.81,102.47h.83v7.34h-.83Z"/><path d="M92.14,103.09a.56.56,0,1,1,1.11,0,.56.56,0,0,1-1.11,0Zm.15,1.41h.82v5.31h-.82Z"/><path d="M94.93,108.7v-3.48H94v-.72h.89V103h.82v1.46h1.08v.72H95.75v3.3c0,.4.18.69.54.69a.8.8,0,0,0,.56-.22l.24.61a1.33,1.33,0,0,1-1,.34A1.08,1.08,0,0,1,94.93,108.7Z"/><path d="M97.85,103.09a.56.56,0,1,1,1.11,0,.56.56,0,0,1-1.11,0ZM98,104.5h.83v5.31H98Z"/><path d="M102.78,104.37a2.57,2.57,0,0,1,2.55,2.84v.21H101a1.88,1.88,0,0,0,1.91,1.84,2.3,2.3,0,0,0,1.64-.67l.4.54a2.87,2.87,0,0,1-2.11.81,2.79,2.79,0,0,1-.09-5.57ZM101,106.82h3.49a1.72,1.72,0,0,0-1.75-1.77A1.77,1.77,0,0,0,101,106.82Z"/><path d="M106.63,108.51a2.39,2.39,0,0,0,1.75.76c.81,0,1.25-.36,1.25-.88s-.65-.77-1.36-.94c-.9-.21-1.93-.46-1.93-1.56,0-.82.72-1.52,2-1.52a2.68,2.68,0,0,1,2,.77l-.38.57a2.05,2.05,0,0,0-1.59-.67c-.72,0-1.17.33-1.17.8s.6.68,1.29.85c.93.21,2,.47,2,1.65,0,.89-.72,1.6-2.09,1.6a2.84,2.84,0,0,1-2.15-.83Z"/><path d="M39.37,126.15a1.19,1.19,0,1,1,1.19,1.18A1.2,1.2,0,0,1,39.37,126.15Z"/><path d="M46.21,121.47H51v.82H47.13v2.36h3.81v.82H47.13v3.34h-.92Z"/><path d="M52.23,123.5h.82v.86a2.25,2.25,0,0,1,1.78-1v.84a1.61,1.61,0,0,0-.33,0,2,2,0,0,0-1.45.85v3.76h-.82Z"/><path d="M59.18,128.21a2.3,2.3,0,0,1-1.76.73,1.77,1.77,0,0,1-1.86-1.76,1.74,1.74,0,0,1,1.86-1.75,2.2,2.2,0,0,1,1.76.73v-1c0-.71-.57-1.12-1.34-1.12a2.1,2.1,0,0,0-1.63.74l-.38-.57a2.75,2.75,0,0,1,2.12-.88c1.12,0,2.06.5,2.06,1.79v3.65h-.83Zm0-1.52a1.78,1.78,0,0,0-1.46-.66,1.17,1.17,0,1,0,0,2.32,1.78,1.78,0,0,0,1.46-.66Z"/><path d="M65.24,128.06a2.61,2.61,0,0,1-1.89.88,1.49,1.49,0,0,1-1.69-1.69V123.5h.82V127c0,.93.47,1.21,1.19,1.21a2,2,0,0,0,1.57-.81v-3.9h.83v5.31h-.83Z"/><path d="M71.57,128a2.25,2.25,0,0,1-1.8.92c-1.38,0-2.36-1-2.36-2.78s1-2.79,2.36-2.79a2.23,2.23,0,0,1,1.8.93v-2.83h.82v7.34h-.82Zm0-3.06a2,2,0,0,0-1.6-.86c-1.07,0-1.7.88-1.7,2.06s.63,2.05,1.7,2.05a2,2,0,0,0,1.6-.84Z"/><path d="M76.88,130.84V123.5h.83v.79a2.2,2.2,0,0,1,1.79-.92c1.4,0,2.36,1,2.36,2.78s-1,2.79-2.36,2.79a2.16,2.16,0,0,1-1.79-.93v2.83Zm2.41-6.74a2,2,0,0,0-1.58.85v2.4a2,2,0,0,0,1.58.86c1.07,0,1.7-.88,1.7-2.06S80.36,124.1,79.29,124.1Z"/><path d="M83.19,123.5H84v.86a2.23,2.23,0,0,1,1.77-1v.84a1.61,1.61,0,0,0-.33,0,1.93,1.93,0,0,0-1.44.85v3.76h-.83Z"/><path d="M89.13,123.37a2.58,2.58,0,0,1,2.56,2.84v.21H87.38a1.88,1.88,0,0,0,1.92,1.84,2.33,2.33,0,0,0,1.64-.67l.39.54a2.86,2.86,0,0,1-2.11.81,2.79,2.79,0,0,1-.09-5.57Zm-1.75,2.45h3.49a1.72,1.72,0,0,0-1.75-1.77A1.78,1.78,0,0,0,87.38,125.82Z"/><path d="M92.22,123.5h.9l1.77,4.35,1.76-4.35h.9l-2.21,5.31h-.9Z"/><path d="M100.72,123.37a2.58,2.58,0,0,1,2.55,2.84v.21H99a1.87,1.87,0,0,0,1.91,1.84,2.31,2.31,0,0,0,1.64-.67l.4.54a2.9,2.9,0,0,1-2.12.81,2.79,2.79,0,0,1-.08-5.57ZM99,125.82h3.48a1.71,1.71,0,0,0-1.74-1.77A1.76,1.76,0,0,0,99,125.82Z"/><path d="M108.19,125.33c0-.93-.48-1.23-1.19-1.23a2.07,2.07,0,0,0-1.58.83v3.88h-.82V123.5h.82v.77a2.65,2.65,0,0,1,1.9-.9,1.51,1.51,0,0,1,1.69,1.71v3.73h-.82Z"/><path d="M110.83,127.7v-3.48h-.89v-.72h.89V122h.82v1.46h1.08v.72h-1.08v3.3c0,.4.18.69.54.69a.8.8,0,0,0,.56-.22l.24.61a1.33,1.33,0,0,1-1,.34A1.08,1.08,0,0,1,110.83,127.7Z"/><path d="M113.75,122.09a.56.56,0,1,1,1.11,0,.56.56,0,0,1-1.11,0Zm.14,1.41h.83v5.31h-.83Z"/><path d="M116.06,126.15c-.19-3.62,5.45-3.62,5.26,0C121.51,129.78,115.87,129.78,116.06,126.15Zm4.39,0a1.78,1.78,0,1,0-3.53,0A1.78,1.78,0,1,0,120.45,126.15Z"/><path d="M126.25,125.33c0-.93-.48-1.23-1.19-1.23a2,2,0,0,0-1.57.83v3.88h-.83V123.5h.83v.77a2.63,2.63,0,0,1,1.89-.9,1.51,1.51,0,0,1,1.69,1.71v3.73h-.82Z"/><path d="M39.37,145.15a1.19,1.19,0,1,1,1.19,1.18A1.2,1.2,0,0,1,39.37,145.15Z"/><path d="M46.21,140.47h2.51a3.67,3.67,0,1,1,0,7.34H46.21ZM48.72,147a2.86,2.86,0,0,0,0-5.71H47.13V147Z"/><path d="M56.19,142.37a2.57,2.57,0,0,1,2.55,2.84v.21h-4.3a1.88,1.88,0,0,0,1.91,1.84,2.3,2.3,0,0,0,1.64-.67l.4.54a2.87,2.87,0,0,1-2.11.81,2.79,2.79,0,0,1-.09-5.57Zm-1.75,2.45h3.49a1.72,1.72,0,0,0-1.75-1.77A1.77,1.77,0,0,0,54.44,144.82Z"/><path d="M60.3,143.22h-.88v-.72h.88v-.41a1.52,1.52,0,0,1,1.54-1.73,1.57,1.57,0,0,1,.81.19l-.21.62A.9.9,0,0,0,62,141c-.53,0-.83.38-.83,1.05v.41h1.08v.72H61.13v4.59H60.3Z"/><path d="M65.5,142.37a2.58,2.58,0,0,1,2.55,2.84v.21h-4.3a1.87,1.87,0,0,0,1.91,1.84,2.31,2.31,0,0,0,1.64-.67l.4.54a2.9,2.9,0,0,1-2.12.81,2.79,2.79,0,0,1-.08-5.57Zm-1.75,2.45h3.48a1.72,1.72,0,0,0-1.75-1.77A1.76,1.76,0,0,0,63.75,144.82Z"/><path d="M73,144.33c0-.93-.47-1.23-1.18-1.23a2.07,2.07,0,0,0-1.58.83v3.88h-.82V142.5h.82v.77a2.65,2.65,0,0,1,1.9-.9,1.51,1.51,0,0,1,1.69,1.71v3.73H73Z"/><path d="M75.41,146.51a2.39,2.39,0,0,0,1.75.76c.81,0,1.25-.36,1.25-.88s-.65-.77-1.37-.94c-.9-.21-1.92-.46-1.92-1.56,0-.82.71-1.52,2-1.52a2.69,2.69,0,0,1,2,.77l-.39.57A2,2,0,0,0,77.1,143c-.73,0-1.18.33-1.18.8s.61.68,1.3.85c.93.21,2,.47,2,1.65,0,.89-.71,1.6-2.09,1.6a2.82,2.82,0,0,1-2.14-.83Z"/><path d="M82.86,142.37a2.58,2.58,0,0,1,2.56,2.84v.21H81.11A1.88,1.88,0,0,0,83,147.26a2.33,2.33,0,0,0,1.64-.67l.39.54a2.86,2.86,0,0,1-2.11.81,2.79,2.79,0,0,1-.09-5.57Zm-1.75,2.45H84.6a1.72,1.72,0,0,0-1.75-1.77A1.78,1.78,0,0,0,81.11,144.82Z"/><path d="M92.91,147.21a2.31,2.31,0,0,1-1.76.73,1.76,1.76,0,0,1-1.86-1.76,1.74,1.74,0,0,1,1.86-1.75,2.22,2.22,0,0,1,1.76.73v-1c0-.71-.58-1.12-1.35-1.12a2.09,2.09,0,0,0-1.62.74l-.39-.57a2.76,2.76,0,0,1,2.12-.88c1.13,0,2.06.5,2.06,1.79v3.65h-.82Zm0-1.52a1.79,1.79,0,0,0-1.47-.66,1.17,1.17,0,1,0,0,2.32,1.79,1.79,0,0,0,1.47-.66Z"/><path d="M95.79,148.56a2,2,0,0,0,1.73.73,1.52,1.52,0,0,0,1.7-1.6v-.76a2.21,2.21,0,0,1-1.78.95c-1.39,0-2.37-1-2.37-2.75s1-2.76,2.37-2.76a2.21,2.21,0,0,1,1.78.93v-.8h.83v5.16c0,1.76-1.24,2.31-2.53,2.31a2.74,2.74,0,0,1-2.15-.79Zm3.43-4.6a2,2,0,0,0-1.58-.86c-1.07,0-1.71.85-1.71,2s.64,2,1.71,2a2,2,0,0,0,1.58-.87Z"/><path d="M105,147.21a2.31,2.31,0,0,1-1.76.73,1.77,1.77,0,0,1-1.86-1.76,1.74,1.74,0,0,1,1.86-1.75,2.22,2.22,0,0,1,1.76.73v-1c0-.71-.57-1.12-1.34-1.12a2.1,2.1,0,0,0-1.63.74l-.39-.57a2.77,2.77,0,0,1,2.13-.88c1.12,0,2,.5,2,1.79v3.65H105Zm0-1.52a1.79,1.79,0,0,0-1.47-.66,1.17,1.17,0,1,0,0,2.32,1.79,1.79,0,0,0,1.47-.66Z"/><path d="M107.35,141.09a.56.56,0,1,1,1.11,0,.56.56,0,0,1-1.11,0Zm.14,1.41h.83v5.31h-.83Z"/><path d="M113.55,144.33c0-.93-.47-1.23-1.18-1.23a2.07,2.07,0,0,0-1.58.83v3.88H110V142.5h.82v.77a2.64,2.64,0,0,1,1.89-.9,1.51,1.51,0,0,1,1.7,1.71v3.73h-.83Z"/><path d="M116,146.51a2.38,2.38,0,0,0,1.74.76c.82,0,1.26-.36,1.26-.88s-.65-.77-1.37-.94c-.9-.21-1.92-.46-1.92-1.56,0-.82.71-1.52,2-1.52a2.69,2.69,0,0,1,2,.77l-.39.57a2,2,0,0,0-1.58-.67c-.73,0-1.18.33-1.18.8s.61.68,1.3.85c.92.21,2,.47,2,1.65,0,.89-.71,1.6-2.09,1.6a2.82,2.82,0,0,1-2.14-.83Z"/><path d="M121.31,146.7v-3.48h-.88v-.72h.88V141h.82v1.46h1.08v.72h-1.08v3.3c0,.4.18.69.54.69a.8.8,0,0,0,.56-.22l.25.61a1.35,1.35,0,0,1-1,.34A1.08,1.08,0,0,1,121.31,146.7Z"/><path d="M127.25,140.47h2.51a3.67,3.67,0,1,1,0,7.34h-2.51Zm2.51,6.53a2.86,2.86,0,0,0,0-5.71h-1.6V147Z"/><path d="M134.61,145.15c-.2-3.62,5.45-3.62,5.26,0C140.06,148.78,134.41,148.78,134.61,145.15Zm4.39,0a1.78,1.78,0,1,0-3.54,0A1.78,1.78,0,1,0,139,145.15Z"/><path d="M141.34,146.08a3.1,3.1,0,0,0,2.31,1c1.31,0,1.73-.71,1.73-1.27,0-.88-.89-1.12-1.86-1.38-1.18-.31-2.49-.64-2.49-2.08,0-1.21,1.08-2,2.52-2a3.47,3.47,0,0,1,2.61,1l-.55.67a2.79,2.79,0,0,0-2.13-.88c-.88,0-1.5.47-1.5,1.16s.84,1,1.78,1.21c1.2.32,2.56.7,2.56,2.24,0,1.06-.72,2.15-2.7,2.15a3.63,3.63,0,0,1-2.82-1.16Z"/><path d="M156.41,147.81h-1.14c-.22-.2-.51-.47-.81-.77a2.92,2.92,0,0,1-2.11.9,2,2,0,0,1-2.29-2,2.48,2.48,0,0,1,1.63-2.19,3.37,3.37,0,0,1-.57-1.64,1.75,1.75,0,0,1,1.85-1.71,1.47,1.47,0,0,1,1.66,1.44c0,1.1-.94,1.59-1.86,2.07.28.4.6.77.83,1s.59.67.88,1a7.14,7.14,0,0,0,.79-1.68l.71.31a9.12,9.12,0,0,1-1,1.89C155.42,146.88,155.88,147.32,156.41,147.81ZM154,146.53c-.42-.44-.81-.85-1-1.11a14.23,14.23,0,0,1-.92-1.16,1.85,1.85,0,0,0-1.09,1.58,1.4,1.4,0,0,0,1.48,1.42A2.19,2.19,0,0,0,154,146.53Zm-1.55-3.19c.78-.39,1.45-.78,1.45-1.5A.8.8,0,0,0,153,141a1,1,0,0,0-1,1.07A2.66,2.66,0,0,0,152.42,143.34Z"/><path d="M45.4,153.47h.83v2.83a2.21,2.21,0,0,1,1.79-.93c1.39,0,2.37,1.1,2.37,2.79s-1,2.78-2.37,2.78a2.21,2.21,0,0,1-1.79-.92v.79H45.4Zm2.41,6.74c1.08,0,1.72-.87,1.72-2.05s-.64-2.06-1.72-2.06a2,2,0,0,0-1.58.86v2.41A2,2,0,0,0,47.81,160.21Z"/><path d="M55.05,160.21a2.3,2.3,0,0,1-1.76.73,1.77,1.77,0,0,1-1.86-1.76,1.74,1.74,0,0,1,1.86-1.75,2.2,2.2,0,0,1,1.76.73v-1c0-.71-.57-1.12-1.34-1.12a2.1,2.1,0,0,0-1.63.74l-.38-.57a2.75,2.75,0,0,1,2.12-.88c1.12,0,2.06.5,2.06,1.79v3.65h-.83Zm0-1.52a1.78,1.78,0,0,0-1.46-.66,1.17,1.17,0,1,0,0,2.32,1.78,1.78,0,0,0,1.46-.66Z"/><path d="M61.38,160a2.25,2.25,0,0,1-1.8.92c-1.38,0-2.36-1.05-2.36-2.78s1-2.79,2.36-2.79a2.23,2.23,0,0,1,1.8.93v-2.83h.82v7.34h-.82Zm0-3.06a2,2,0,0,0-1.6-.86c-1.07,0-1.7.88-1.7,2.06s.63,2.05,1.7,2.05a2,2,0,0,0,1.6-.84Z"/><path d="M66.72,153.47H70a1.85,1.85,0,0,1,2.06,1.87A1.68,1.68,0,0,1,70.76,157a1.83,1.83,0,0,1,1.43,1.8,1.91,1.91,0,0,1-2.12,2H66.72Zm3.11,3.18a1.14,1.14,0,0,0,1.27-1.17,1.16,1.16,0,0,0-1.27-1.19h-2.2v2.36Zm0,3.35a1.21,1.21,0,0,0,1.36-1.27,1.24,1.24,0,0,0-1.36-1.26H67.63V160Z"/><path d="M77,153.35c4.79-.17,4.79,7.76,0,7.59C72.2,161.12,72.2,153.18,77,153.35Zm0,.82c-3.55-.16-3.55,6.11,0,6C80.54,160.27,80.53,154,77,154.17Z"/><path d="M83.57,154.29H81.25v-.82h5.57v.82H84.49v6.52h-.92Z"/><path d="M87,159.51a2.39,2.39,0,0,0,1.75.76c.81,0,1.25-.36,1.25-.88s-.64-.77-1.36-.94c-.9-.21-1.92-.46-1.92-1.56,0-.82.71-1.52,2-1.52a2.65,2.65,0,0,1,2,.77l-.38.57a2,2,0,0,0-1.58-.67c-.73,0-1.18.33-1.18.8s.6.68,1.3.85c.92.21,2,.47,2,1.65,0,.89-.72,1.6-2.09,1.6a2.84,2.84,0,0,1-2.15-.83Z"/><path d="M205.16,56.15a1.19,1.19,0,1,1,1.18,1.18A1.2,1.2,0,0,1,205.16,56.15Z"/><path d="M211.24,51.47h1l2.48,6.34,2.47-6.34h1.05l-3,7.34h-1.13Z"/><path d="M220.85,53.37a2.58,2.58,0,0,1,2.56,2.84v.21H219.1A1.88,1.88,0,0,0,221,58.26a2.33,2.33,0,0,0,1.64-.67l.39.54a2.86,2.86,0,0,1-2.11.81,2.79,2.79,0,0,1-.09-5.57Zm-1.75,2.45h3.49a1.72,1.72,0,0,0-1.75-1.77A1.78,1.78,0,0,0,219.1,55.82Z"/><path d="M224.74,53.5h.82v.86a2.24,2.24,0,0,1,1.77-1v.84a1.61,1.61,0,0,0-.33,0,2,2,0,0,0-1.44.85v3.76h-.82Z"/><path d="M228.33,57.51a2.41,2.41,0,0,0,1.75.76c.82,0,1.26-.36,1.26-.88s-.65-.77-1.37-.94c-.9-.21-1.92-.46-1.92-1.56,0-.82.71-1.52,2-1.52a2.69,2.69,0,0,1,2,.77l-.39.57A2,2,0,0,0,230,54c-.73,0-1.18.33-1.18.8s.6.68,1.3.85c.92.21,2,.47,2,1.65,0,.89-.72,1.6-2.09,1.6a2.84,2.84,0,0,1-2.15-.83Z"/><path d="M233.34,52.09a.56.56,0,1,1,1.11,0,.56.56,0,0,1-1.11,0Zm.14,1.41h.83v5.31h-.83Z"/><path d="M235.65,56.15c-.2-3.62,5.45-3.62,5.26,0C241.1,59.78,235.45,59.78,235.65,56.15Zm4.39,0a1.78,1.78,0,1,0-3.53,0A1.78,1.78,0,1,0,240,56.15Z"/><path d="M245.83,55.33c0-.93-.47-1.23-1.18-1.23a2.07,2.07,0,0,0-1.58.83v3.88h-.82V53.5h.82v.77a2.64,2.64,0,0,1,1.89-.9,1.51,1.51,0,0,1,1.7,1.71v3.73h-.83Z"/><path d="M248.17,52.09a.56.56,0,0,1,.55-.56.57.57,0,0,1,.56.56.56.56,0,0,1-.56.55A.55.55,0,0,1,248.17,52.09Zm.14,1.41h.82v5.31h-.82Z"/><path d="M254.37,55.33c0-.93-.47-1.23-1.19-1.23a2,2,0,0,0-1.57.83v3.88h-.83V53.5h.83v.77a2.63,2.63,0,0,1,1.89-.9,1.51,1.51,0,0,1,1.7,1.71v3.73h-.83Z"/><path d="M257.25,59.56a2,2,0,0,0,1.73.73,1.52,1.52,0,0,0,1.7-1.6v-.76a2.21,2.21,0,0,1-1.78,1c-1.38,0-2.36-1-2.36-2.75s1-2.76,2.36-2.76a2.18,2.18,0,0,1,1.78.93v-.8h.83v5.16c0,1.76-1.23,2.31-2.53,2.31a2.75,2.75,0,0,1-2.15-.79Zm3.43-4.6a2,2,0,0,0-1.58-.86c-1.07,0-1.71.85-1.71,2s.64,2,1.71,2a2,2,0,0,0,1.58-.87Z"/><path d="M205.16,75.15a1.19,1.19,0,1,1,1.18,1.18A1.2,1.2,0,0,1,205.16,75.15Z"/><path d="M212,70.47H215a2.22,2.22,0,1,1,0,4.43h-2v2.91H212Zm2.84.82h-1.93v2.79h1.93a1.4,1.4,0,1,0,0-2.79Z"/><path d="M222,77.06a2.61,2.61,0,0,1-1.89.88,1.5,1.5,0,0,1-1.7-1.69V72.5h.83V76c0,.93.47,1.21,1.19,1.21A2,2,0,0,0,222,76.4V72.5h.82v5.31H222Z"/><path d="M224.48,70.47h.83V73.3a2.21,2.21,0,0,1,1.79-.93c1.39,0,2.37,1.1,2.37,2.79s-1,2.78-2.37,2.78a2.21,2.21,0,0,1-1.79-.92v.79h-.83Zm2.41,6.74c1.08,0,1.72-.87,1.72-2s-.64-2.06-1.72-2.06a2,2,0,0,0-1.58.86v2.41A2,2,0,0,0,226.89,77.21Z"/><path d="M230.81,70.47h.82v7.34h-.82Z"/><path d="M233.14,71.09a.56.56,0,1,1,1.11,0,.56.56,0,0,1-1.11,0Zm.14,1.41h.83v5.31h-.83Z"/><path d="M235.73,76.51a2.39,2.39,0,0,0,1.75.76c.81,0,1.25-.36,1.25-.88s-.65-.77-1.37-.94c-.9-.21-1.92-.46-1.92-1.56,0-.82.71-1.52,2-1.52a2.69,2.69,0,0,1,2,.77l-.39.57a2,2,0,0,0-1.58-.67c-.73,0-1.18.33-1.18.8s.61.68,1.3.85c.93.21,2,.47,2,1.65,0,.89-.71,1.6-2.09,1.6a2.82,2.82,0,0,1-2.14-.83Z"/><path d="M244.47,74.31c0-.93-.48-1.21-1.2-1.21a2.08,2.08,0,0,0-1.57.83v3.88h-.83V70.47h.83v2.8a2.63,2.63,0,0,1,1.9-.9,1.49,1.49,0,0,1,1.7,1.69v3.75h-.83Z"/><path d="M246.8,71.09a.56.56,0,1,1,1.11,0,.56.56,0,0,1-1.11,0ZM247,72.5h.82v5.31H247Z"/><path d="M253,74.33c0-.93-.48-1.23-1.19-1.23a2,2,0,0,0-1.57.83v3.88h-.83V72.5h.83v.77a2.63,2.63,0,0,1,1.89-.9,1.51,1.51,0,0,1,1.69,1.71v3.73H253Z"/><path d="M255.89,78.56a2,2,0,0,0,1.73.73,1.52,1.52,0,0,0,1.7-1.6v-.76a2.21,2.21,0,0,1-1.78.95c-1.39,0-2.37-1-2.37-2.75s1-2.76,2.37-2.76a2.21,2.21,0,0,1,1.78.93v-.8h.83v5.16c0,1.76-1.24,2.31-2.53,2.31a2.74,2.74,0,0,1-2.15-.79Zm3.43-4.6a2,2,0,0,0-1.58-.86c-1.07,0-1.71.85-1.71,2s.64,2,1.71,2a2,2,0,0,0,1.58-.87Z"/><path d="M205.16,94.15a1.19,1.19,0,1,1,1.18,1.18A1.2,1.2,0,0,1,205.16,94.15Z"/><path d="M212.1,95.08a3.08,3.08,0,0,0,2.31,1c1.31,0,1.72-.71,1.72-1.27,0-.88-.89-1.12-1.85-1.38-1.18-.31-2.49-.64-2.49-2.08,0-1.21,1.08-2,2.52-2a3.47,3.47,0,0,1,2.61,1l-.55.67a2.79,2.79,0,0,0-2.13-.88c-.88,0-1.5.47-1.5,1.16s.84,1,1.78,1.21c1.2.32,2.56.7,2.56,2.24,0,1.06-.73,2.15-2.71,2.15a3.62,3.62,0,0,1-2.81-1.16Z"/><path d="M220.75,91.37a2.27,2.27,0,0,1,1.95.92l-.55.51a1.56,1.56,0,0,0-1.35-.7,2.07,2.07,0,0,0,0,4.11,1.58,1.58,0,0,0,1.35-.7l.55.51a2.27,2.27,0,0,1-1.95.92,2.79,2.79,0,0,1,0-5.57Z"/><path d="M227.45,93.31c0-.93-.48-1.21-1.2-1.21a2.1,2.1,0,0,0-1.57.83v3.88h-.82V89.47h.82v2.8a2.65,2.65,0,0,1,1.9-.9,1.49,1.49,0,0,1,1.7,1.69v3.75h-.83Z"/><path d="M232.24,91.37a2.58,2.58,0,0,1,2.55,2.84v.21h-4.3a1.87,1.87,0,0,0,1.91,1.84,2.31,2.31,0,0,0,1.64-.67l.4.54a2.87,2.87,0,0,1-2.11.81,2.79,2.79,0,0,1-.09-5.57Zm-1.75,2.45H234a1.72,1.72,0,0,0-1.75-1.77A1.76,1.76,0,0,0,230.49,93.82Z"/><path d="M242.53,93.2c0-.67-.29-1.1-1-1.1a1.85,1.85,0,0,0-1.41.82v3.89h-.83V93.2c0-.67-.28-1.1-1-1.1a1.83,1.83,0,0,0-1.39.83v3.88h-.83V91.5H237v.77a2.29,2.29,0,0,1,1.71-.9,1.36,1.36,0,0,1,1.43,1,2.22,2.22,0,0,1,1.78-1c1,0,1.49.53,1.49,1.6v3.84h-.83Z"/><path d="M248.33,96.21a2.3,2.3,0,0,1-1.76.73,1.77,1.77,0,0,1-1.86-1.76,1.74,1.74,0,0,1,1.86-1.75,2.2,2.2,0,0,1,1.76.73v-1c0-.71-.57-1.12-1.34-1.12a2.1,2.1,0,0,0-1.63.74l-.38-.57a2.75,2.75,0,0,1,2.12-.88c1.12,0,2.06.5,2.06,1.79v3.65h-.83Zm0-1.52a1.78,1.78,0,0,0-1.46-.66,1.17,1.17,0,1,0,0,2.32,1.78,1.78,0,0,0,1.46-.66Z"/><path d="M250.77,95.51a2.41,2.41,0,0,0,1.75.76c.82,0,1.26-.36,1.26-.88s-.65-.77-1.37-.94c-.9-.21-1.92-.46-1.92-1.56,0-.82.71-1.52,2-1.52a2.69,2.69,0,0,1,2,.77l-.39.57a2,2,0,0,0-1.58-.67c-.73,0-1.18.33-1.18.8s.6.68,1.3.85c.92.21,2,.47,2,1.65,0,.89-.72,1.6-2.09,1.6a2.84,2.84,0,0,1-2.15-.83Z"/><path d="M257.7,89.25h.65L255.74,97h-.64Z"/><path d="M263,96a2.25,2.25,0,0,1-1.8.92c-1.38,0-2.36-1-2.36-2.78s1-2.79,2.36-2.79a2.23,2.23,0,0,1,1.8.93V89.47h.82v7.34H263ZM263,93a2,2,0,0,0-1.6-.86c-1.07,0-1.7.88-1.7,2.06s.63,2,1.7,2a2,2,0,0,0,1.6-.84Z"/><path d="M267.81,91.37a2.57,2.57,0,0,1,2.55,2.84v.21h-4.3A1.88,1.88,0,0,0,268,96.26a2.33,2.33,0,0,0,1.64-.67l.39.54a2.87,2.87,0,0,1-2.11.81,2.79,2.79,0,0,1-.09-5.57Zm-1.75,2.45h3.49a1.72,1.72,0,0,0-1.75-1.77A1.78,1.78,0,0,0,266.06,93.82Z"/><path d="M271.93,92.22H271V91.5h.89v-.41a1.52,1.52,0,0,1,1.54-1.73,1.55,1.55,0,0,1,.8.19l-.21.63a.8.8,0,0,0-.47-.14c-.54,0-.84.38-.84,1v.41h1.08v.72h-1.08v4.59h-.82Zm2.73-2.13a.56.56,0,1,1,.55.55A.55.55,0,0,1,274.66,90.09Zm.15,1.41h.82v5.31h-.82Z"/><path d="M280.88,93.33c0-.93-.47-1.23-1.19-1.23a2,2,0,0,0-1.57.83v3.88h-.83V91.5h.83v.77a2.63,2.63,0,0,1,1.89-.9,1.51,1.51,0,0,1,1.69,1.71v3.73h-.82Z"/><path d="M283.21,90.09a.56.56,0,1,1,1.11,0,.56.56,0,0,1-1.11,0Zm.14,1.41h.83v5.31h-.83Z"/><path d="M286,95.7V92.22h-.88V91.5H286V90h.83V91.5h1.08v.72h-1.08v3.3c0,.4.18.69.54.69a.8.8,0,0,0,.56-.22l.24.61a1.33,1.33,0,0,1-1,.34A1.09,1.09,0,0,1,286,95.7Z"/><path d="M288.92,90.09a.56.56,0,1,1,1.11,0,.56.56,0,0,1-1.11,0Zm.14,1.41h.83v5.31h-.83Z"/><path d="M291.23,94.15c-.19-3.62,5.45-3.62,5.26,0C296.68,97.78,291,97.78,291.23,94.15Zm4.39,0a1.78,1.78,0,1,0-3.53,0A1.78,1.78,0,1,0,295.62,94.15Z"/><path d="M301.42,93.33c0-.93-.48-1.23-1.19-1.23a2,2,0,0,0-1.57.83v3.88h-.83V91.5h.83v.77a2.63,2.63,0,0,1,1.89-.9,1.51,1.51,0,0,1,1.69,1.71v3.73h-.82Z"/><path d="M205.16,113.15a1.19,1.19,0,1,1,1.18,1.18A1.2,1.2,0,0,1,205.16,113.15Z"/><path d="M218.27,109.71l-2.5,6.1h-.37l-2.49-6.1v6.1H212v-7.34h1.31l2.27,5.59,2.29-5.59h1.31v7.34h-.91Z"/><path d="M220.56,113.15c-.2-3.62,5.45-3.62,5.25,0C226,116.78,220.36,116.78,220.56,113.15Zm4.39,0a1.78,1.78,0,1,0-3.54,0A1.78,1.78,0,1,0,225,113.15Z"/><path d="M230.74,112.33c0-.93-.47-1.23-1.19-1.23a2.06,2.06,0,0,0-1.57.83v3.88h-.82V110.5H228v.77a2.64,2.64,0,0,1,1.89-.9,1.51,1.51,0,0,1,1.7,1.71v3.73h-.83Z"/><path d="M233.07,109.09a.56.56,0,1,1,.55.55A.55.55,0,0,1,233.07,109.09Zm.15,1.41H234v5.31h-.82Z"/><path d="M235.86,114.7v-3.48H235v-.72h.88V109h.82v1.46h1.08v.72h-1.08v3.3c0,.4.18.69.54.69a.8.8,0,0,0,.56-.22l.24.61a1.32,1.32,0,0,1-1,.34A1.08,1.08,0,0,1,235.86,114.7Z"/><path d="M238.62,113.15c-.2-3.62,5.45-3.62,5.26,0C244.07,116.78,238.43,116.78,238.62,113.15Zm4.39,0a1.78,1.78,0,1,0-3.53,0A1.78,1.78,0,1,0,243,113.15Z"/><path d="M245.22,110.5H246v.86a2.24,2.24,0,0,1,1.77-1v.84a1.48,1.48,0,0,0-.33,0,2,2,0,0,0-1.44.85v3.76h-.82Z"/><path d="M248.71,109.09a.56.56,0,0,1,.54-.56.57.57,0,0,1,.57.56.56.56,0,0,1-.57.55A.55.55,0,0,1,248.71,109.09Zm.14,1.41h.82v5.31h-.82Z"/><path d="M254.91,112.33c0-.93-.47-1.23-1.19-1.23a2,2,0,0,0-1.57.83v3.88h-.83V110.5h.83v.77a2.63,2.63,0,0,1,1.89-.9,1.51,1.51,0,0,1,1.69,1.71v3.73h-.82Z"/><path d="M257.79,116.56a2,2,0,0,0,1.73.73,1.52,1.52,0,0,0,1.7-1.6v-.76a2.21,2.21,0,0,1-1.78.95c-1.38,0-2.36-1-2.36-2.75s1-2.76,2.36-2.76a2.2,2.2,0,0,1,1.78.93v-.8h.83v5.16c0,1.76-1.23,2.31-2.53,2.31a2.75,2.75,0,0,1-2.15-.79Zm3.43-4.6a2,2,0,0,0-1.58-.86c-1.07,0-1.71.85-1.71,2s.64,2,1.71,2a2,2,0,0,0,1.58-.87Z"/><path d="M269.86,115.21a2.31,2.31,0,0,1-1.76.73,1.77,1.77,0,0,1-1.86-1.76,1.74,1.74,0,0,1,1.86-1.75,2.22,2.22,0,0,1,1.76.73v-1c0-.71-.57-1.12-1.34-1.12a2.1,2.1,0,0,0-1.63.74l-.39-.57a2.79,2.79,0,0,1,2.13-.88c1.12,0,2.05.5,2.05,1.79v3.65h-.82Zm0-1.52a1.78,1.78,0,0,0-1.46-.66,1.17,1.17,0,1,0,0,2.32,1.78,1.78,0,0,0,1.46-.66Z"/><path d="M275.92,112.33c0-.93-.47-1.23-1.19-1.23a2,2,0,0,0-1.57.83v3.88h-.83V110.5h.83v.77a2.63,2.63,0,0,1,1.89-.9,1.51,1.51,0,0,1,1.69,1.71v3.73h-.82Z"/><path d="M282.24,115a2.21,2.21,0,0,1-1.79.92c-1.39,0-2.36-1-2.36-2.78s1-2.79,2.36-2.79a2.2,2.2,0,0,1,1.79.93v-2.83h.83v7.34h-.83Zm0-3.06a2,2,0,0,0-1.59-.86c-1.07,0-1.71.88-1.71,2.06s.64,2,1.71,2a2,2,0,0,0,1.59-.84Z"/><path d="M215,128a2.24,2.24,0,0,1-1.79.92c-1.39,0-2.37-1-2.37-2.78s1-2.79,2.37-2.79a2.23,2.23,0,0,1,1.79.93v-2.83h.83v7.34H215Zm0-3.06a2,2,0,0,0-1.6-.86c-1.06,0-1.7.88-1.7,2.06s.64,2.05,1.7,2.05a2,2,0,0,0,1.6-.84Z"/><path d="M220.84,128.21a2.31,2.31,0,0,1-1.76.73,1.76,1.76,0,0,1-1.86-1.76,1.74,1.74,0,0,1,1.86-1.75,2.22,2.22,0,0,1,1.76.73v-1c0-.71-.57-1.12-1.35-1.12a2.09,2.09,0,0,0-1.62.74l-.39-.57a2.76,2.76,0,0,1,2.12-.88c1.13,0,2.06.5,2.06,1.79v3.65h-.82Zm0-1.52a1.79,1.79,0,0,0-1.47-.66,1.17,1.17,0,1,0,0,2.32,1.79,1.79,0,0,0,1.47-.66Z"/><path d="M223.28,127.51a2.39,2.39,0,0,0,1.75.76c.81,0,1.25-.36,1.25-.88s-.65-.77-1.36-.94c-.9-.21-1.93-.46-1.93-1.56,0-.82.72-1.52,2-1.52a2.68,2.68,0,0,1,2,.77l-.38.57A2.07,2.07,0,0,0,225,124c-.72,0-1.17.33-1.17.8s.6.68,1.29.85c.93.21,2,.47,2,1.65,0,.89-.71,1.6-2.09,1.6a2.83,2.83,0,0,1-2.14-.83Z"/><path d="M232,125.31c0-.93-.48-1.21-1.2-1.21a2.1,2.1,0,0,0-1.57.83v3.88h-.82v-7.34h.82v2.8a2.65,2.65,0,0,1,1.9-.9,1.49,1.49,0,0,1,1.7,1.69v3.75H232Z"/><path d="M234.5,121.47h.82v2.83a2.22,2.22,0,0,1,1.8-.93c1.38,0,2.36,1.1,2.36,2.79s-1,2.78-2.36,2.78a2.25,2.25,0,0,1-1.8-.92v.79h-.82Zm2.41,6.74c1.08,0,1.71-.87,1.71-2.05s-.63-2.06-1.71-2.06a2,2,0,0,0-1.59.86v2.41A2,2,0,0,0,236.91,128.21Z"/><path d="M240.52,126.15c-.2-3.62,5.45-3.62,5.25,0C246,129.78,240.32,129.78,240.52,126.15Zm4.38,0a1.78,1.78,0,1,0-3.53,0A1.78,1.78,0,1,0,244.9,126.15Z"/><path d="M250.44,128.21a2.31,2.31,0,0,1-1.76.73,1.77,1.77,0,0,1-1.86-1.76,1.74,1.74,0,0,1,1.86-1.75,2.22,2.22,0,0,1,1.76.73v-1c0-.71-.57-1.12-1.34-1.12a2.1,2.1,0,0,0-1.63.74l-.39-.57a2.77,2.77,0,0,1,2.13-.88c1.12,0,2,.5,2,1.79v3.65h-.82Zm0-1.52A1.79,1.79,0,0,0,249,126a1.17,1.17,0,1,0,0,2.32,1.79,1.79,0,0,0,1.47-.66Z"/><path d="M252.91,123.5h.83v.86a2.23,2.23,0,0,1,1.77-1v.84a1.61,1.61,0,0,0-.33,0,1.93,1.93,0,0,0-1.44.85v3.76h-.83Z"/><path d="M260.39,128a2.21,2.21,0,0,1-1.79.92c-1.39,0-2.37-1-2.37-2.78s1-2.79,2.37-2.79a2.23,2.23,0,0,1,1.79.93v-2.83h.83v7.34h-.83Zm0-3.06a2,2,0,0,0-1.59-.86c-1.07,0-1.71.88-1.71,2.06s.64,2.05,1.71,2.05a2,2,0,0,0,1.59-.84Z"/><path d="M262.83,127.51a2.42,2.42,0,0,0,1.75.76c.82,0,1.26-.36,1.26-.88s-.65-.77-1.37-.94c-.9-.21-1.92-.46-1.92-1.56,0-.82.71-1.52,2-1.52a2.69,2.69,0,0,1,2,.77l-.39.57a2,2,0,0,0-1.58-.67c-.73,0-1.18.33-1.18.8s.61.68,1.3.85c.92.21,2,.47,2,1.65,0,.89-.71,1.6-2.09,1.6a2.8,2.8,0,0,1-2.14-.83Z"/><path d="M205.16,145.15a1.19,1.19,0,1,1,1.18,1.18A1.2,1.2,0,0,1,205.16,145.15Z"/><path d="M215.34,140.35c4.78-.17,4.78,7.76,0,7.59C210.56,148.12,210.56,140.18,215.34,140.35Zm0,.82c-3.55-.16-3.55,6.11,0,6C218.89,147.27,218.89,141,215.34,141.17Z"/><path d="M224,144.33c0-.93-.48-1.23-1.19-1.23a2,2,0,0,0-1.57.83v3.88h-.83V142.5h.83v.77a2.63,2.63,0,0,1,1.89-.9,1.51,1.51,0,0,1,1.69,1.71v3.73H224Z"/><path d="M226.44,140.47h.83v2.83a2.2,2.2,0,0,1,1.79-.93c1.39,0,2.36,1.1,2.36,2.79s-1,2.78-2.36,2.78a2.21,2.21,0,0,1-1.79-.92v.79h-.83Zm2.41,6.74c1.08,0,1.72-.87,1.72-2.05s-.64-2.06-1.72-2.06a2,2,0,0,0-1.58.86v2.41A2,2,0,0,0,228.85,147.21Z"/><path d="M232.46,145.15c-.19-3.62,5.45-3.62,5.26,0C237.91,148.78,232.27,148.78,232.46,145.15Zm4.39,0a1.78,1.78,0,1,0-3.53,0A1.78,1.78,0,1,0,236.85,145.15Z"/><path d="M242.38,147.21a2.3,2.3,0,0,1-1.76.73,1.77,1.77,0,0,1-1.86-1.76,1.74,1.74,0,0,1,1.86-1.75,2.2,2.2,0,0,1,1.76.73v-1c0-.71-.57-1.12-1.34-1.12a2.1,2.1,0,0,0-1.63.74l-.38-.57a2.75,2.75,0,0,1,2.12-.88c1.12,0,2.06.5,2.06,1.79v3.65h-.83Zm0-1.52a1.78,1.78,0,0,0-1.46-.66,1.17,1.17,0,1,0,0,2.32,1.78,1.78,0,0,0,1.46-.66Z"/><path d="M244.86,142.5h.82v.86a2.24,2.24,0,0,1,1.77-1v.84a1.61,1.61,0,0,0-.33,0,2,2,0,0,0-1.44.85v3.76h-.82Z"/><path d="M252.34,147a2.25,2.25,0,0,1-1.8.92c-1.38,0-2.36-1.05-2.36-2.78s1-2.79,2.36-2.79a2.23,2.23,0,0,1,1.8.93v-2.83h.82v7.34h-.82Zm0-3.06a2,2,0,0,0-1.6-.86c-1.07,0-1.7.88-1.7,2.06s.63,2.05,1.7,2.05a2,2,0,0,0,1.6-.84Z"/><path d="M254.67,141.09a.56.56,0,1,1,1.11,0,.56.56,0,0,1-1.11,0Zm.14,1.41h.83v5.31h-.83Z"/><path d="M260.87,144.33c0-.93-.47-1.23-1.19-1.23a2,2,0,0,0-1.57.83v3.88h-.82V142.5h.82v.77a2.63,2.63,0,0,1,1.89-.9,1.51,1.51,0,0,1,1.7,1.71v3.73h-.83Z"/><path d="M263.75,148.56a2,2,0,0,0,1.73.73,1.53,1.53,0,0,0,1.71-1.6v-.76a2.24,2.24,0,0,1-1.79.95c-1.38,0-2.36-1-2.36-2.75s1-2.76,2.36-2.76a2.21,2.21,0,0,1,1.79.93v-.8H268v5.16c0,1.76-1.23,2.31-2.53,2.31a2.72,2.72,0,0,1-2.14-.79Zm3.44-4.6a2,2,0,0,0-1.59-.86c-1.07,0-1.7.85-1.7,2s.63,2,1.7,2a2,2,0,0,0,1.59-.87Z"/><path d="M275.82,147.21a2.3,2.3,0,0,1-1.76.73,1.77,1.77,0,0,1-1.86-1.76,1.74,1.74,0,0,1,1.86-1.75,2.2,2.2,0,0,1,1.76.73v-1c0-.71-.57-1.12-1.34-1.12a2.1,2.1,0,0,0-1.63.74l-.38-.57a2.75,2.75,0,0,1,2.12-.88c1.12,0,2.06.5,2.06,1.79v3.65h-.83Zm0-1.52a1.78,1.78,0,0,0-1.46-.66,1.17,1.17,0,1,0,0,2.32,1.78,1.78,0,0,0,1.46-.66Z"/><path d="M281.88,144.33c0-.93-.47-1.23-1.19-1.23a2,2,0,0,0-1.57.83v3.88h-.82V142.5h.82v.77a2.63,2.63,0,0,1,1.89-.9,1.51,1.51,0,0,1,1.7,1.71v3.73h-.83Z"/><path d="M288.21,147a2.25,2.25,0,0,1-1.8.92c-1.38,0-2.36-1.05-2.36-2.78s1-2.79,2.36-2.79a2.23,2.23,0,0,1,1.8.93v-2.83H289v7.34h-.82Zm0-3.06a2,2,0,0,0-1.6-.86c-1.07,0-1.7.88-1.7,2.06s.63,2.05,1.7,2.05a2,2,0,0,0,1.6-.84Z"/><path d="M297.37,147a2.24,2.24,0,0,1-1.79.92c-1.39,0-2.37-1.05-2.37-2.78s1-2.79,2.37-2.79a2.23,2.23,0,0,1,1.79.93v-2.83h.83v7.34h-.83Zm0-3.06a2,2,0,0,0-1.6-.86c-1.06,0-1.7.88-1.7,2.06s.64,2.05,1.7,2.05a2,2,0,0,0,1.6-.84Z"/><path d="M299.54,145.15c-.2-3.62,5.45-3.62,5.26,0C305,148.78,299.34,148.78,299.54,145.15Zm4.39,0a1.78,1.78,0,1,0-3.54,0A1.78,1.78,0,1,0,303.93,145.15Z"/><path d="M308.48,142.37a2.27,2.27,0,0,1,1.95.92l-.55.51a1.59,1.59,0,0,0-1.36-.7,2.07,2.07,0,0,0,0,4.11,1.61,1.61,0,0,0,1.36-.7l.55.51a2.27,2.27,0,0,1-1.95.92,2.79,2.79,0,0,1,0-5.57Z"/><path d="M311.55,146.51a2.39,2.39,0,0,0,1.75.76c.81,0,1.25-.36,1.25-.88s-.65-.77-1.36-.94c-.9-.21-1.93-.46-1.93-1.56,0-.82.72-1.52,2-1.52a2.68,2.68,0,0,1,2,.77l-.38.57a2.07,2.07,0,0,0-1.59-.67c-.72,0-1.18.33-1.18.8s.61.68,1.3.85c.93.21,2,.47,2,1.65,0,.89-.71,1.6-2.09,1.6a2.83,2.83,0,0,1-2.14-.83Z"/><path d="M374.6,56.15a1.19,1.19,0,1,1,1.19,1.18A1.2,1.2,0,0,1,374.6,56.15Z"/><path d="M386.07,57.18h-3.72l-.65,1.63h-1l2.95-7.34h1.13l3,7.34h-1Zm-3.46-.81h3.18l-1.58-4.08Z"/><path d="M392.11,58.06a2.62,2.62,0,0,1-1.9.88,1.49,1.49,0,0,1-1.69-1.69V53.5h.82V57c0,.93.48,1.21,1.19,1.21a2.05,2.05,0,0,0,1.58-.81V53.5h.82v5.31h-.82Z"/><path d="M394.75,57.7V54.22h-.89V53.5h.89V52h.82V53.5h1.08v.72h-1.08v3.3c0,.4.18.69.54.69a.8.8,0,0,0,.56-.22l.24.61a1.33,1.33,0,0,1-1,.34A1.08,1.08,0,0,1,394.75,57.7Z"/><path d="M401.41,55.31c0-.93-.48-1.21-1.2-1.21a2.08,2.08,0,0,0-1.57.83v3.88h-.83V51.47h.83v2.8a2.63,2.63,0,0,1,1.9-.9,1.49,1.49,0,0,1,1.7,1.69v3.75h-.83Z"/><path d="M406.2,53.37a2.58,2.58,0,0,1,2.55,2.84v.21h-4.3a1.87,1.87,0,0,0,1.91,1.84,2.31,2.31,0,0,0,1.64-.67l.4.54a2.9,2.9,0,0,1-2.12.81,2.79,2.79,0,0,1-.08-5.57Zm-1.75,2.45h3.48a1.71,1.71,0,0,0-1.74-1.77A1.76,1.76,0,0,0,404.45,55.82Z"/><path d="M413.67,55.33c0-.93-.48-1.23-1.19-1.23a2.07,2.07,0,0,0-1.58.83v3.88h-.82V53.5h.82v.77a2.65,2.65,0,0,1,1.9-.9,1.51,1.51,0,0,1,1.69,1.71v3.73h-.82Z"/><path d="M416.31,57.7V54.22h-.89V53.5h.89V52h.82V53.5h1.08v.72h-1.08v3.3c0,.4.18.69.54.69a.8.8,0,0,0,.56-.22l.24.61a1.33,1.33,0,0,1-1,.34A1.08,1.08,0,0,1,416.31,57.7Z"/><path d="M419.23,52.09a.56.56,0,1,1,1.11,0,.56.56,0,0,1-1.11,0Zm.14,1.41h.83v5.31h-.83Z"/><path d="M424.19,53.37a2.27,2.27,0,0,1,1.95.92l-.55.51a1.56,1.56,0,0,0-1.35-.7,2.07,2.07,0,0,0,0,4.11,1.58,1.58,0,0,0,1.35-.7l.55.51a2.27,2.27,0,0,1-1.95.92,2.79,2.79,0,0,1,0-5.57Z"/><path d="M430.62,58.21a2.31,2.31,0,0,1-1.76.73A1.76,1.76,0,0,1,427,57.18a1.74,1.74,0,0,1,1.86-1.75,2.22,2.22,0,0,1,1.76.73v-1c0-.71-.58-1.12-1.35-1.12a2.09,2.09,0,0,0-1.62.74l-.39-.57a2.76,2.76,0,0,1,2.12-.88c1.13,0,2.06.5,2.06,1.79v3.65h-.82Zm0-1.52a1.79,1.79,0,0,0-1.47-.66,1.17,1.17,0,1,0,0,2.32,1.79,1.79,0,0,0,1.47-.66Z"/><path d="M433.26,57.7V54.22h-.88V53.5h.88V52h.82V53.5h1.08v.72h-1.08v3.3c0,.4.18.69.54.69a.8.8,0,0,0,.56-.22l.24.61a1.33,1.33,0,0,1-1,.34A1.08,1.08,0,0,1,433.26,57.7Z"/><path d="M436.18,52.09a.56.56,0,1,1,1.11,0,.56.56,0,0,1-1.11,0Zm.14,1.41h.83v5.31h-.83Z"/><path d="M438.49,56.15c-.19-3.62,5.45-3.62,5.26,0C443.94,59.78,438.3,59.78,438.49,56.15Zm4.39,0a1.78,1.78,0,1,0-3.53,0A1.78,1.78,0,1,0,442.88,56.15Z"/><path d="M448.68,55.33c0-.93-.48-1.23-1.19-1.23a2,2,0,0,0-1.57.83v3.88h-.83V53.5h.83v.77a2.63,2.63,0,0,1,1.89-.9,1.51,1.51,0,0,1,1.69,1.71v3.73h-.82Z"/><path d="M457.31,58.21a2.3,2.3,0,0,1-1.76.73,1.77,1.77,0,0,1-1.86-1.76,1.74,1.74,0,0,1,1.86-1.75,2.2,2.2,0,0,1,1.76.73v-1c0-.71-.57-1.12-1.34-1.12a2.11,2.11,0,0,0-1.63.74l-.38-.57a2.75,2.75,0,0,1,2.12-.88c1.12,0,2.06.5,2.06,1.79v3.65h-.83Zm0-1.52a1.78,1.78,0,0,0-1.46-.66,1.17,1.17,0,1,0,0,2.32,1.78,1.78,0,0,0,1.46-.66Z"/><path d="M463.37,55.33c0-.93-.47-1.23-1.18-1.23a2.07,2.07,0,0,0-1.58.83v3.88h-.82V53.5h.82v.77a2.64,2.64,0,0,1,1.89-.9,1.51,1.51,0,0,1,1.7,1.71v3.73h-.83Z"/><path d="M469.7,58a2.24,2.24,0,0,1-1.79.92c-1.39,0-2.37-1-2.37-2.78s1-2.79,2.37-2.79a2.23,2.23,0,0,1,1.79.93V51.47h.82v7.34h-.82Zm0-3.06a2,2,0,0,0-1.6-.86c-1.06,0-1.7.88-1.7,2.06s.64,2.05,1.7,2.05a2,2,0,0,0,1.6-.84Z"/><path d="M384,71.21a2.31,2.31,0,0,1-1.76.73,1.77,1.77,0,0,1-1.86-1.76,1.74,1.74,0,0,1,1.86-1.75,2.2,2.2,0,0,1,1.76.73v-1c0-.71-.57-1.12-1.34-1.12a2.1,2.1,0,0,0-1.63.74l-.39-.57a2.79,2.79,0,0,1,2.13-.88c1.12,0,2,.5,2,1.79v3.65H384Zm0-1.52A1.78,1.78,0,0,0,382.5,69a1.17,1.17,0,1,0,0,2.32,1.78,1.78,0,0,0,1.46-.66Z"/><path d="M390,71.06a2.61,2.61,0,0,1-1.89.88,1.5,1.5,0,0,1-1.7-1.69V66.5h.83V70c0,.93.47,1.21,1.19,1.21A2,2,0,0,0,390,70.4V66.5h.83v5.31H390Z"/><path d="M392.66,70.7V67.22h-.88V66.5h.88V65h.83V66.5h1.07v.72h-1.07v3.3c0,.4.17.69.53.69a.81.81,0,0,0,.57-.22l.24.61a1.35,1.35,0,0,1-1,.34A1.09,1.09,0,0,1,392.66,70.7Z"/><path d="M399.33,68.31c0-.93-.49-1.21-1.2-1.21a2.1,2.1,0,0,0-1.58.83v3.88h-.82V64.47h.82v2.8a2.65,2.65,0,0,1,1.91-.9,1.49,1.49,0,0,1,1.69,1.69v3.75h-.82Z"/><path d="M401.49,69.15c-.19-3.62,5.46-3.62,5.26,0C406.94,72.78,401.3,72.78,401.49,69.15Zm4.39,0a1.78,1.78,0,1,0-3.53,0A1.78,1.78,0,1,0,405.88,69.15Z"/><path d="M408.09,66.5h.83v.86a2.23,2.23,0,0,1,1.77-1v.84a1.61,1.61,0,0,0-.33,0,1.93,1.93,0,0,0-1.44.85v3.76h-.83Z"/><path d="M411.58,65.09a.56.56,0,1,1,1.11,0,.56.56,0,0,1-1.11,0Zm.14,1.41h.83v5.31h-.83Z"/><path d="M413.94,71.17l2.93-4h-2.93V66.5h4v.62l-2.95,4h3v.71h-4.05Z"/><path d="M422.71,71.21a2.3,2.3,0,0,1-1.76.73,1.77,1.77,0,0,1-1.86-1.76A1.74,1.74,0,0,1,421,68.43a2.2,2.2,0,0,1,1.76.73v-1c0-.71-.57-1.12-1.34-1.12a2.11,2.11,0,0,0-1.63.74l-.38-.57a2.75,2.75,0,0,1,2.12-.88c1.12,0,2.06.5,2.06,1.79v3.65h-.83Zm0-1.52a1.78,1.78,0,0,0-1.46-.66,1.17,1.17,0,1,0,0,2.32,1.78,1.78,0,0,0,1.46-.66Z"/><path d="M425.35,70.7V67.22h-.88V66.5h.88V65h.83V66.5h1.08v.72h-1.08v3.3c0,.4.17.69.54.69a.8.8,0,0,0,.56-.22l.24.61a1.35,1.35,0,0,1-1,.34A1.09,1.09,0,0,1,425.35,70.7Z"/><path d="M428.28,65.09a.56.56,0,1,1,1.11,0,.56.56,0,0,1-1.11,0Zm.14,1.41h.83v5.31h-.83Z"/><path d="M430.59,69.15a2.63,2.63,0,1,1,2.63,2.79A2.6,2.6,0,0,1,430.59,69.15Zm4.39,0a1.79,1.79,0,1,0-1.76,2.06A1.85,1.85,0,0,0,435,69.15Z"/><path d="M440.77,68.33c0-.93-.47-1.23-1.18-1.23a2.07,2.07,0,0,0-1.58.83v3.88h-.82V66.5H438v.77a2.64,2.64,0,0,1,1.89-.9,1.51,1.51,0,0,1,1.7,1.71v3.73h-.83Z"/><path d="M373.6,88.15a1.19,1.19,0,1,1,1.19,1.18A1.2,1.2,0,0,1,373.6,88.15Z"/><path d="M382.26,84.29h-2.32v-.82h5.57v.82h-2.34v6.52h-.91Z"/><path d="M385.75,85.5h.82v.86a2.24,2.24,0,0,1,1.77-1v.84a1.48,1.48,0,0,0-.33,0,2,2,0,0,0-1.44.85v3.76h-.82Z"/><path d="M392.7,90.21a2.3,2.3,0,0,1-1.76.73,1.77,1.77,0,0,1-1.86-1.76,1.74,1.74,0,0,1,1.86-1.75,2.2,2.2,0,0,1,1.76.73v-1c0-.71-.57-1.12-1.34-1.12a2.1,2.1,0,0,0-1.63.74l-.38-.57a2.75,2.75,0,0,1,2.12-.88c1.12,0,2.06.5,2.06,1.79v3.65h-.83Zm0-1.52a1.78,1.78,0,0,0-1.46-.66,1.17,1.17,0,1,0,0,2.32,1.78,1.78,0,0,0,1.46-.66Z"/><path d="M395.41,86.22h-.88V85.5h.88v-.41A1.52,1.52,0,0,1,397,83.36a1.55,1.55,0,0,1,.8.19l-.21.62a.89.89,0,0,0-.47-.13c-.54,0-.84.38-.84,1v.41h1.08v.72h-1.08v4.59h-.82Zm3.11,0h-.88V85.5h.88v-.41a1.59,1.59,0,0,1,2.34-1.54l-.21.63a.8.8,0,0,0-.47-.14c-.54,0-.84.38-.84,1v.41h1.08v.72h-1.08v4.59h-.82Zm2.74-2.13a.56.56,0,1,1,1.11,0,.56.56,0,0,1-1.11,0Zm.14,1.41h.83v5.31h-.83Z"/><path d="M406.23,85.37a2.27,2.27,0,0,1,1.95.92l-.55.51a1.59,1.59,0,0,0-1.36-.7,2.07,2.07,0,0,0,0,4.11,1.61,1.61,0,0,0,1.36-.7l.55.51a2.27,2.27,0,0,1-1.95.92,2.79,2.79,0,0,1,0-5.57Z"/><path d="M418.58,87.2c0-.67-.29-1.1-1-1.1a1.84,1.84,0,0,0-1.4.82v3.89h-.83V87.2c0-.67-.28-1.1-1-1.1a1.87,1.87,0,0,0-1.4.83v3.88h-.82V85.5H413v.77a2.31,2.31,0,0,1,1.72-.9,1.36,1.36,0,0,1,1.43,1,2.22,2.22,0,0,1,1.78-1c1,0,1.49.53,1.49,1.6v3.84h-.83Z"/><path d="M424.38,90.21a2.3,2.3,0,0,1-1.76.73,1.77,1.77,0,0,1-1.86-1.76,1.74,1.74,0,0,1,1.86-1.75,2.2,2.2,0,0,1,1.76.73v-1c0-.71-.57-1.12-1.34-1.12a2.1,2.1,0,0,0-1.63.74l-.39-.57a2.79,2.79,0,0,1,2.13-.88c1.12,0,2.06.5,2.06,1.79v3.65h-.83Zm0-1.52a1.78,1.78,0,0,0-1.46-.66,1.17,1.17,0,1,0,0,2.32,1.78,1.78,0,0,0,1.46-.66Z"/><path d="M430.44,87.33c0-.93-.47-1.23-1.19-1.23a2,2,0,0,0-1.57.83v3.88h-.83V85.5h.83v.77a2.63,2.63,0,0,1,1.89-.9,1.51,1.51,0,0,1,1.7,1.71v3.73h-.83Z"/><path d="M436.24,90.21a2.31,2.31,0,0,1-1.76.73,1.77,1.77,0,0,1-1.86-1.76,1.74,1.74,0,0,1,1.86-1.75,2.22,2.22,0,0,1,1.76.73v-1c0-.71-.57-1.12-1.34-1.12a2.1,2.1,0,0,0-1.63.74l-.39-.57a2.77,2.77,0,0,1,2.13-.88c1.12,0,2.05.5,2.05,1.79v3.65h-.82Zm0-1.52a1.79,1.79,0,0,0-1.47-.66,1.17,1.17,0,1,0,0,2.32,1.79,1.79,0,0,0,1.47-.66Z"/><path d="M439.12,91.56a2,2,0,0,0,1.73.73,1.52,1.52,0,0,0,1.7-1.6v-.76a2.21,2.21,0,0,1-1.78.95c-1.39,0-2.37-1-2.37-2.75s1-2.76,2.37-2.76a2.21,2.21,0,0,1,1.78.93v-.8h.83v5.16c0,1.76-1.23,2.31-2.53,2.31a2.74,2.74,0,0,1-2.15-.79Zm3.43-4.6A2,2,0,0,0,441,86.1c-1.07,0-1.71.85-1.71,2s.64,2,1.71,2a2,2,0,0,0,1.58-.87Z"/><path d="M447.34,85.37a2.58,2.58,0,0,1,2.55,2.84v.21h-4.3a1.87,1.87,0,0,0,1.91,1.84,2.31,2.31,0,0,0,1.64-.67l.4.54a2.89,2.89,0,0,1-2.11.81,2.79,2.79,0,0,1-.09-5.57Zm-1.75,2.45h3.48a1.71,1.71,0,0,0-1.74-1.77A1.76,1.76,0,0,0,445.59,87.82Z"/><path d="M457.63,87.2c0-.67-.29-1.1-1-1.1a1.84,1.84,0,0,0-1.4.82v3.89h-.83V87.2c0-.67-.28-1.1-1-1.1a1.87,1.87,0,0,0-1.4.83v3.88h-.82V85.5H452v.77a2.31,2.31,0,0,1,1.72-.9,1.36,1.36,0,0,1,1.43,1,2.22,2.22,0,0,1,1.78-1c1,0,1.49.53,1.49,1.6v3.84h-.83Z"/><path d="M462.42,85.37A2.58,2.58,0,0,1,465,88.21v.21h-4.3a1.87,1.87,0,0,0,1.91,1.84,2.31,2.31,0,0,0,1.64-.67l.4.54a2.87,2.87,0,0,1-2.11.81,2.79,2.79,0,0,1-.09-5.57Zm-1.75,2.45h3.49a1.72,1.72,0,0,0-1.75-1.77A1.76,1.76,0,0,0,460.67,87.82Z"/><path d="M469.89,87.33c0-.93-.48-1.23-1.19-1.23a2,2,0,0,0-1.57.83v3.88h-.83V85.5h.83v.77a2.63,2.63,0,0,1,1.89-.9,1.51,1.51,0,0,1,1.69,1.71v3.73h-.82Z"/><path d="M472.53,89.7V86.22h-.88V85.5h.88V84h.82V85.5h1.08v.72h-1.08v3.3c0,.4.18.69.54.69a.8.8,0,0,0,.56-.22l.24.61a1.33,1.33,0,0,1-1,.34A1.08,1.08,0,0,1,472.53,89.7Z"/><path d="M373.6,107.15a1.19,1.19,0,1,1,1.19,1.18A1.2,1.2,0,0,1,373.6,107.15Z"/><path d="M382.82,106.9h-1.46v2.91h-.91v-7.34h2.95a2.13,2.13,0,0,1,2.29,2.21,2,2,0,0,1-1.9,2.14l2,3h-1.08Zm.46-3.61h-1.92v2.8h1.92a1.4,1.4,0,1,0,0-2.8Z"/><path d="M390.2,109.21a2.3,2.3,0,0,1-1.76.73,1.77,1.77,0,0,1-1.86-1.76,1.74,1.74,0,0,1,1.86-1.75,2.2,2.2,0,0,1,1.76.73v-1c0-.71-.57-1.12-1.34-1.12a2.11,2.11,0,0,0-1.63.74l-.38-.57a2.75,2.75,0,0,1,2.12-.88c1.12,0,2.06.5,2.06,1.79v3.65h-.83Zm0-1.52a1.77,1.77,0,0,0-1.46-.66,1.17,1.17,0,1,0,0,2.32,1.77,1.77,0,0,0,1.46-.66Z"/><path d="M392.84,108.7v-3.48H392v-.72h.88V103h.83v1.46h1.08v.72h-1.08v3.3c0,.4.17.69.54.69a.8.8,0,0,0,.56-.22l.24.61a1.35,1.35,0,0,1-1,.34A1.09,1.09,0,0,1,392.84,108.7Z"/><path d="M398.22,104.37a2.57,2.57,0,0,1,2.55,2.84v.21h-4.3a1.88,1.88,0,0,0,1.92,1.84,2.33,2.33,0,0,0,1.64-.67l.39.54a2.86,2.86,0,0,1-2.11.81,2.79,2.79,0,0,1-.09-5.57Zm-1.75,2.45H400a1.72,1.72,0,0,0-1.75-1.77A1.78,1.78,0,0,0,396.47,106.82Z"/><path d="M401.61,106.79h2.64v.72h-2.64Z"/><path d="M405.4,102.47h.83v7.34h-.83Z"/><path d="M407.74,103.09a.56.56,0,1,1,1.11,0,.56.56,0,0,1-1.11,0Zm.14,1.41h.83v5.31h-.83Z"/><path d="M416.77,106.2c0-.67-.3-1.1-1-1.1a1.87,1.87,0,0,0-1.41.82v3.89h-.82V106.2c0-.67-.29-1.1-1-1.1a1.87,1.87,0,0,0-1.4.83v3.88h-.83V104.5h.83v.77a2.31,2.31,0,0,1,1.72-.9,1.37,1.37,0,0,1,1.43,1,2.21,2.21,0,0,1,1.78-1c1,0,1.48.53,1.48,1.6v3.84h-.82Z"/><path d="M419.1,103.09a.56.56,0,1,1,1.11,0,.56.56,0,0,1-1.11,0Zm.14,1.41h.83v5.31h-.83Z"/><path d="M421.88,108.7v-3.48H421v-.72h.88V103h.83v1.46h1.08v.72h-1.08v3.3c0,.4.17.69.54.69a.8.8,0,0,0,.56-.22l.24.61a1.35,1.35,0,0,1-1,.34A1.09,1.09,0,0,1,421.88,108.7Z"/><path d="M424.81,103.09a.56.56,0,1,1,1.11,0,.56.56,0,0,1-1.11,0Zm.14,1.41h.83v5.31H425Z"/><path d="M431,106.33c0-.93-.47-1.23-1.18-1.23a2.07,2.07,0,0,0-1.58.83v3.88h-.82V104.5h.82v.77a2.65,2.65,0,0,1,1.9-.9,1.51,1.51,0,0,1,1.69,1.71v3.73H431Z"/><path d="M433.9,110.56a2,2,0,0,0,1.72.73,1.53,1.53,0,0,0,1.71-1.6v-.76a2.24,2.24,0,0,1-1.78.95c-1.39,0-2.37-1-2.37-2.75s1-2.76,2.37-2.76a2.21,2.21,0,0,1,1.78.93v-.8h.82v5.16c0,1.76-1.23,2.31-2.53,2.31a2.72,2.72,0,0,1-2.14-.79Zm3.43-4.6a2,2,0,0,0-1.59-.86c-1.06,0-1.7.85-1.7,2s.64,2,1.7,2a2,2,0,0,0,1.59-.87Z"/><path d="M441.58,102.25h.65l-2.6,7.78H439Z"/><path d="M443.22,108.7v-3.48h-.88v-.72h.88V103h.83v1.46h1.08v.72h-1.08v3.3c0,.4.17.69.54.69a.8.8,0,0,0,.56-.22l.24.61a1.35,1.35,0,0,1-1,.34A1.09,1.09,0,0,1,443.22,108.7Z"/><path d="M449.89,106.31c0-.93-.48-1.21-1.2-1.21a2.08,2.08,0,0,0-1.57.83v3.88h-.83v-7.34h.83v2.8a2.63,2.63,0,0,1,1.9-.9,1.49,1.49,0,0,1,1.69,1.69v3.75h-.82Z"/><path d="M452.36,104.5h.83v.86a2.23,2.23,0,0,1,1.77-1v.84a1.61,1.61,0,0,0-.33,0,1.93,1.93,0,0,0-1.44.85v3.76h-.83Z"/><path d="M458.3,104.37a2.58,2.58,0,0,1,2.56,2.84v.21h-4.3a1.86,1.86,0,0,0,1.91,1.84,2.33,2.33,0,0,0,1.64-.67l.39.54a2.86,2.86,0,0,1-2.11.81,2.79,2.79,0,0,1-.09-5.57Zm-1.74,2.45H460a1.72,1.72,0,0,0-1.75-1.77A1.76,1.76,0,0,0,456.56,106.82Z"/><path d="M462.15,108.51a2.42,2.42,0,0,0,1.75.76c.82,0,1.26-.36,1.26-.88s-.65-.77-1.37-.94c-.9-.21-1.92-.46-1.92-1.56,0-.82.71-1.52,2-1.52a2.69,2.69,0,0,1,2,.77l-.39.57a2,2,0,0,0-1.58-.67c-.73,0-1.18.33-1.18.8s.61.68,1.3.85c.92.21,2,.47,2,1.65,0,.89-.71,1.6-2.09,1.6a2.8,2.8,0,0,1-2.14-.83Z"/><path d="M470.9,106.31c0-.93-.49-1.21-1.2-1.21a2.08,2.08,0,0,0-1.57.83v3.88h-.83v-7.34h.83v2.8a2.63,2.63,0,0,1,1.9-.9,1.49,1.49,0,0,1,1.69,1.69v3.75h-.82Z"/><path d="M473.06,107.15c-.19-3.62,5.46-3.62,5.26,0C478.52,110.78,472.87,110.78,473.06,107.15Zm4.39,0a1.78,1.78,0,1,0-3.53,0A1.78,1.78,0,1,0,477.45,107.15Z"/><path d="M479.67,102.47h.82v7.34h-.82Z"/><path d="M486,109a2.21,2.21,0,0,1-1.79.92c-1.39,0-2.37-1-2.37-2.78s1-2.79,2.37-2.79a2.23,2.23,0,0,1,1.79.93v-2.83h.83v7.34H486Zm0-3.06a2,2,0,0,0-1.59-.86c-1.07,0-1.71.88-1.71,2.06s.64,2,1.71,2a2,2,0,0,0,1.59-.84Z"/><path d="M488.32,103.09a.56.56,0,1,1,1.11,0,.56.56,0,0,1-1.11,0Zm.15,1.41h.82v5.31h-.82Z"/><path d="M494.53,106.33c0-.93-.48-1.23-1.19-1.23a2,2,0,0,0-1.57.83v3.88h-.83V104.5h.83v.77a2.63,2.63,0,0,1,1.89-.9,1.51,1.51,0,0,1,1.69,1.71v3.73h-.82Z"/><path d="M497.41,110.56a2,2,0,0,0,1.73.73,1.52,1.52,0,0,0,1.7-1.6v-.76a2.21,2.21,0,0,1-1.78.95c-1.39,0-2.37-1-2.37-2.75s1-2.76,2.37-2.76a2.21,2.21,0,0,1,1.78.93v-.8h.83v5.16c0,1.76-1.24,2.31-2.53,2.31a2.74,2.74,0,0,1-2.15-.79Zm3.43-4.6a2,2,0,0,0-1.58-.86c-1.07,0-1.71.85-1.71,2s.64,2,1.71,2a2,2,0,0,0,1.58-.87Z"/><path d="M373.6,126.15a1.19,1.19,0,1,1,1.19,1.18A1.2,1.2,0,0,1,373.6,126.15Z"/><path d="M385.07,127.18h-3.72l-.65,1.63h-1l2.95-7.34h1.13l3,7.34h-1Zm-3.46-.81h3.18l-1.58-4.08Z"/><path d="M387.65,121.47h.83v7.34h-.83Z"/><path d="M390.13,121.47H391v7.34h-.82Z"/><path d="M392.29,126.15c-.19-3.62,5.46-3.62,5.26,0C397.74,129.78,392.1,129.78,392.29,126.15Zm4.39,0a1.78,1.78,0,1,0-3.53,0A1.78,1.78,0,1,0,396.68,126.15Z"/><path d="M402.11,124.54l-1.39,4.27h-.83l-1.69-5.31h.86l1.3,4.23,1.39-4.23h.71l1.39,4.23,1.3-4.23H406l-1.69,5.31h-.83Z"/><path d="M409.81,121.47h.82v7.34h-.82Z"/><path d="M412.14,122.09a.56.56,0,0,1,.55-.56.57.57,0,0,1,.56.56.56.56,0,0,1-.56.55A.55.55,0,0,1,412.14,122.09Zm.14,1.41h.82v5.31h-.82Z"/><path d="M414.72,127.51a2.41,2.41,0,0,0,1.75.76c.82,0,1.26-.36,1.26-.88s-.65-.77-1.37-.94c-.9-.21-1.92-.46-1.92-1.56,0-.82.71-1.52,2-1.52a2.69,2.69,0,0,1,2,.77l-.39.57a2,2,0,0,0-1.58-.67c-.73,0-1.18.33-1.18.8s.6.68,1.3.85c.92.21,2,.47,2,1.65,0,.89-.72,1.6-2.09,1.6a2.84,2.84,0,0,1-2.15-.83Z"/><path d="M420,127.7v-3.48h-.88v-.72H420V122h.83v1.46h1.08v.72h-1.08v3.3c0,.4.18.69.54.69A.8.8,0,0,0,422,128l.24.61a1.33,1.33,0,0,1-1,.34A1.09,1.09,0,0,1,420,127.7Z"/><path d="M373.6,145.15a1.19,1.19,0,1,1,1.19,1.18A1.2,1.2,0,0,1,373.6,145.15Z"/><path d="M382.82,144.9h-1.46v2.91h-.91v-7.34h2.95a2.13,2.13,0,0,1,2.29,2.21,2,2,0,0,1-1.9,2.14l2,3h-1.08Zm.46-3.61h-1.92v2.8h1.92a1.4,1.4,0,1,0,0-2.8Z"/><path d="M386.46,145.15c-.19-3.62,5.46-3.62,5.26,0C391.91,148.78,386.27,148.78,386.46,145.15Zm4.39,0a1.78,1.78,0,1,0-3.53,0A1.78,1.78,0,1,0,390.85,145.15Z"/><path d="M396.65,147.06a2.61,2.61,0,0,1-1.89.88,1.5,1.5,0,0,1-1.7-1.69V142.5h.83V146c0,.93.47,1.21,1.19,1.21a2,2,0,0,0,1.57-.81v-3.9h.83v5.31h-.83Z"/><path d="M399.29,146.7v-3.48h-.88v-.72h.88V141h.82v1.46h1.08v.72h-1.08v3.3c0,.4.18.69.54.69a.8.8,0,0,0,.56-.22l.25.61a1.35,1.35,0,0,1-1,.34A1.09,1.09,0,0,1,399.29,146.7Z"/><path d="M402.22,141.09a.56.56,0,0,1,.55-.56.57.57,0,0,1,.56.56.56.56,0,0,1-.56.55A.55.55,0,0,1,402.22,141.09Zm.14,1.41h.82v5.31h-.82Z"/><path d="M408.42,144.33c0-.93-.47-1.23-1.19-1.23a2,2,0,0,0-1.57.83v3.88h-.83V142.5h.83v.77a2.63,2.63,0,0,1,1.89-.9,1.51,1.51,0,0,1,1.69,1.71v3.73h-.82Z"/><path d="M411.3,148.56a2,2,0,0,0,1.73.73,1.52,1.52,0,0,0,1.7-1.6v-.76a2.21,2.21,0,0,1-1.78.95c-1.39,0-2.36-1-2.36-2.75s1-2.76,2.36-2.76a2.18,2.18,0,0,1,1.78.93v-.8h.83v5.16c0,1.76-1.23,2.31-2.53,2.31a2.75,2.75,0,0,1-2.15-.79Zm3.43-4.6a2,2,0,0,0-1.58-.86c-1.07,0-1.71.85-1.71,2s.64,2,1.71,2a2,2,0,0,0,1.58-.87Z"/></g></g></svg>