<svg xmlns="http://www.w3.org/2000/svg" xmlns:xlink="http://www.w3.org/1999/xlink" viewBox="0 0 240 163"><defs><style>.cls-1,.cls-5{fill:none;}.cls-2{fill:#fff;}.cls-3{fill:url(#linear-gradient);}.cls-4{clip-path:url(#clip-path);}.cls-5{stroke:#38313d;stroke-linecap:round;stroke-linejoin:round;stroke-width:2px;}</style><linearGradient id="linear-gradient" x1="0.65" y1="81.11" x2="239.65" y2="81.11" gradientUnits="userSpaceOnUse"><stop offset="0" stop-color="#404040"/><stop offset="0.88" stop-color="#6c6c6c"/><stop offset="1" stop-color="#737373"/></linearGradient><clipPath id="clip-path"><rect class="cls-1" x="1.65" y="-1.59" width="239" height="161.52"/></clipPath></defs><title>Access_dark</title><g id="Layer_2" data-name="Layer 2"><path class="cls-2" d="M7,80.06c15.71,14.62,64.13,41.31,83.17,49.41s23.44,7.84,35.28,7.28c16-.76,79.25-31.9,110.88-58.8,3.13-2.67,3.68-9.59,2.24-13.44-1.28-3.45-4.11-8.21-7.28-10.08-24.64-14.56-66.64-40.89-93-52.09C130.86-.82,107.12-.08,99.93,3.62,73.27,17.34,18.45,47.86,6.13,58.91,1.78,62.81,3.4,76.73,7,80.06"/><path class="cls-3" d="M225.46,85.62l-77.19,44.85c-15.25,8.86-40.13,8.85-55.46,0L15.12,85.62C-.22,76.76-.31,62.35,14.94,53.48L92.12,8.63c15.23-8.85,40.12-8.84,55.45,0l77.69,44.85c15.33,8.86,15.43,23.27.2,32.13m14.09-14.76c.57-6.66-3.5-13.45-12.29-18.52L149.57,7.48C133.11-2,106.44-2,90.11,7.47L12.92,52.33C4.77,57.06.71,63.27.72,69.49v-.06L.65,92.57c0,6.28,4.12,12.57,12.4,17.35l77.69,44.85c1,.57,2,1.11,3.08,1.61.35.17.72.31,1.08.47.63.28,1.24.56,1.88.82l.24.08c1.46.57,3,1.07,4.51,1.52l.35.12c.36.1.73.17,1.09.27.86.23,1.73.45,2.61.64l.69.17c.35.07.7.11,1.06.18.74.14,1.48.27,2.23.39.3,0,.59.11.89.15s.66.07,1,.11c.7.09,1.4.17,2.11.24l1,.11c.32,0,.63,0,.94,0,.72.05,1.43.09,2.15.12l1.07.05h.85c.78,0,1.55,0,2.32,0,.39,0,.77,0,1.15,0l.67,0c1,0,1.91-.11,2.86-.19.38,0,.77,0,1.15-.08l.34,0c1.61-.16,3.21-.38,4.79-.66l.24,0c.46-.08.89-.19,1.34-.28.78-.16,1.56-.31,2.33-.5.56-.14,1.1-.3,1.65-.45.72-.19,1.45-.39,2.17-.61l.47-.14c.26-.08.49-.19.75-.28,1.12-.38,2.21-.8,3.28-1.25q.62-.24,1.2-.51a40.72,40.72,0,0,0,4-2l77.18-44.85.51-.3c.39-.24.72-.49,1.1-.73s1-.66,1.49-1,.79-.62,1.18-.93.88-.7,1.28-1c.08-.08.17-.14.25-.21.54-.5,1-1,1.51-1.54.11-.11.19-.22.3-.33.26-.31.54-.62.79-.93.11-.14.19-.3.3-.44a17.06,17.06,0,0,0,1-1.47c.13-.2.3-.4.41-.6s.1-.22.16-.33c.23-.44.42-.87.61-1.31.11-.26.26-.5.35-.76a2.76,2.76,0,0,0,.08-.27,11.91,11.91,0,0,0,.36-1.26c.08-.28.19-.56.25-.84,0-.08,0-.15,0-.23a12.21,12.21,0,0,0,.15-1.34c0-.28.09-.57.1-.85s0-.25,0-.37l.06-23.14a11.54,11.54,0,0,1-.1,1.17"/><g class="cls-4"><path class="cls-5" d="M101,86.68c4.28,1.77,17.57,7.57,26.37,14.84m43.41-6.87c-23-20.33-49.74-29.79-49.74-29.79-2.59-.85-5.41-.91-7.09,0-2.23,1.22-1.57,3.68,1.47,5.5,2.85,1.71,13.5,5.1,28,14.32M150,89.12A120,120,0,0,1,162.3,99.21m14.22-10.63c-5.64-4.41-11.09-8.24-16.22-11.55m-6.94-4.28c-19.23-11.35-32.63-15-32.63-15-6.41-1.49-12.89-1.28-17,.94-6.38,3.46-4.5,10.49,4.19,15.71,0,0,3.73,2,8.11,4.1m7.61,3.51a110.26,110.26,0,0,1,28.44,19.66m-64-44.09c0-.07.07-.13.1-.2a12.44,12.44,0,0,1,5.21-4.9c8.45-4.58,23.08-4,36,.84a217.73,217.73,0,0,1,49.08,26.46M87.16,62c.16,5.36,4.72,11.5,13.21,16.59a56.18,56.18,0,0,0,7.89,3.9s19.36,7.84,32.29,20.07M93.93,82.9l-.75-.44c-19.82-11.89-24.1-27.92-9.56-35.82,7.23-3.92,17.74-5.09,28.92-3.82l.2,0m8.55,1.45a88.25,88.25,0,0,1,10.06,2.86c5.07,1.78,19.91,7.25,43,21.1M68.18,71.32c-8.6-11.71-7.18-23.6,5.64-30.56a40,40,0,0,1,7.69-3.11c1-.29,2-.56,3-.8m8.62-1.32c15.17-1.34,33.48,1.84,49.58,8.9M101.22,94.09a101.34,101.34,0,0,1-15.31-7.46,73,73,0,0,1-12.25-9.07"/></g></g></svg>