<svg id="Layer_1" data-name="Layer 1" xmlns="http://www.w3.org/2000/svg" xmlns:xlink="http://www.w3.org/1999/xlink" viewBox="0 0 240 163"><defs><style>.cls-1,.cls-5{fill:none;}.cls-2{clip-path:url(#clip-path);}.cls-3{fill:#fff;}.cls-4{fill:#00a1e4;}.cls-5{stroke:#00a1e4;stroke-miterlimit:10;stroke-width:2px;}</style><clipPath id="clip-path"><rect class="cls-1" x="0.07" y="0.55" width="239" height="161.52"/></clipPath></defs><title>DNS_blue</title><g class="cls-2"><path class="cls-3" d="M5.39,81.58C21.1,96.2,69.52,122.89,88.56,131s23.45,7.84,35.28,7.28c16-.76,79.25-31.9,110.88-58.8C237.86,76.8,238.4,69.88,237,66c-1.28-3.45-4.11-8.21-7.28-10.08C205,41.39,163,15.06,136.72,3.86,129.29.7,105.54,1.44,98.36,5.14,71.69,18.86,16.87,49.38,4.55,60.43c-4.35,3.9-2.73,17.82.84,21.15"/><path class="cls-4" d="M224.88,85.81l-77.19,44.86c-15.25,8.86-40.13,8.85-55.46,0L14.54,85.81C-.8,77-.89,62.55,14.36,53.68L91.54,8.83C106.77,0,131.66,0,147,8.84l77.69,44.85c15.33,8.86,15.43,23.27.2,32.12M239,71.05c.57-6.66-3.51-13.44-12.3-18.52L149,7.68c-16.46-9.5-43.13-9.5-59.46,0L12.34,52.52C4.19,57.26.13,63.47.14,69.69v-.07L.07,92.77c0,6.28,4.12,12.57,12.41,17.35L90.16,155c1,.57,2,1.1,3.08,1.6.35.17.73.32,1.09.48.62.28,1.23.56,1.87.82a1.69,1.69,0,0,1,.24.08c1.46.56,3,1.07,4.51,1.52.12,0,.23.08.35.12.36.1.73.17,1.09.26.86.23,1.73.45,2.61.64.24.06.46.13.69.17s.71.12,1.06.18c.74.14,1.48.28,2.23.39l.89.16,1,.11c.7.09,1.41.17,2.12.24l1,.11.94.05c.71,0,1.43.08,2.14.11l1.07.06c.29,0,.57,0,.86,0,.77,0,1.54,0,2.31,0h1.15l.68-.05c.95,0,1.9-.11,2.86-.19l1.14-.07.34-.05c1.61-.17,3.21-.39,4.79-.67l.24,0c.46-.08.89-.2,1.35-.29.78-.15,1.56-.31,2.32-.5.56-.13,1.1-.29,1.65-.44.73-.2,1.46-.39,2.17-.62l.47-.13c.26-.09.49-.2.75-.29,1.12-.38,2.21-.79,3.28-1.24.41-.17.81-.33,1.21-.51a44.23,44.23,0,0,0,3.95-2l77.19-44.85c.16-.11.34-.21.51-.31.38-.23.71-.48,1.09-.73s1-.65,1.49-1,.79-.62,1.18-.94.88-.69,1.28-1.05l.25-.21c.54-.5,1-1,1.51-1.53.11-.11.2-.23.3-.34.26-.31.54-.61.79-.93.11-.14.19-.29.3-.43.36-.49.68-1,1-1.47.13-.21.3-.4.41-.61s.1-.22.16-.32c.23-.44.42-.88.61-1.32.11-.25.26-.5.36-.75,0-.09,0-.18.07-.27a11.91,11.91,0,0,0,.36-1.26c.08-.29.19-.56.25-.84,0-.08,0-.16,0-.24a12.06,12.06,0,0,0,.16-1.33c0-.28.08-.57.09-.85s0-.25,0-.37l.06-23.15c0,.39-.06.78-.09,1.17"/><path class="cls-5" d="M60.73,77.16c-.28,2,.86,4,3.44,5.52a13.86,13.86,0,0,0,3.54,1.41M59.5,110.85c0-9.08,2.74-18.16,8.21-26.76a13.86,13.86,0,0,1-3.54-1.41c-2.58-1.5-3.72-3.54-3.44-5.52A171.35,171.35,0,0,0,11.49,82.9m71.88-3.68c.76-2.21-.32-4.61-3.24-6.31a13.27,13.27,0,0,0-2.42-1.08m40.13,9.79A46.87,46.87,0,0,0,112,58a17.56,17.56,0,0,1-12-1.53c-.25-.15-.49-.3-.71-.46-1.44.8-2.86,1.61-4.25,2.46A96.56,96.56,0,0,0,77.71,71.83a13.27,13.27,0,0,1,2.42,1.08c2.92,1.7,4,4.1,3.24,6.31a155.64,155.64,0,0,1,24,5.68A8.59,8.59,0,0,1,109,83.66,16.28,16.28,0,0,1,117.84,81.62ZM77.71,71.83c-4.42-1.48-10.1-1.08-13.79,1.18a6.16,6.16,0,0,0-3.19,4.15m7,6.93c4.23,1.07,9.29.57,12.67-1.5a6.7,6.7,0,0,0,3-3.37m76.17,44.61c-5-10.47-14.42-20.33-28.41-28.48-1.6-.93-3.24-1.81-4.91-2.66-.25.19-.52.37-.81.55a16.74,16.74,0,0,1-10.08,2c-4,11.73-13,23-26.8,32.57m37.69-35.07c3.56-2.71,3.19-6.66-1.06-9.13a15.8,15.8,0,0,0-7.32-1.94M107.36,84.9c-2.69,2.65-2.06,6.16,1.84,8.43a15.28,15.28,0,0,0,6.13,1.86M69.11,21.91a128.93,128.93,0,0,1,11.66,6A93.24,93.24,0,0,1,103,45.39a17.71,17.71,0,0,1,13,1.28,10.4,10.4,0,0,1,1.37,1c2.15-.82,4.34-1.61,6.55-2.35-2.12-2.54-1.48-5.69,2-7.83a15.56,15.56,0,0,1,7.39-2c-.57-10,2.1-20,8.15-29.43M112,58a13.69,13.69,0,0,0,4.22-1.63c3.9-2.39,4.26-6.06,1.13-8.71M103,45.39a13.31,13.31,0,0,0-3.22,1.38c-4.16,2.55-4.29,6.55-.46,9.22m93.74-20a206.82,206.82,0,0,0-48.22,3.78c1.57,2.42.77,5.25-2.45,7.22a15,15,0,0,1-6.28,2c5.1,14,16.87,27.28,35.35,38a143.89,143.89,0,0,0,28,12.33M144.83,39.82a7.91,7.91,0,0,0-2.69-2.46,16.67,16.67,0,0,0-8.83-1.93m-9.4,9.86a8.56,8.56,0,0,0,2.26,1.85A17.07,17.07,0,0,0,136.1,49"/></g></svg>