<svg xmlns="http://www.w3.org/2000/svg" xmlns:xlink="http://www.w3.org/1999/xlink" viewBox="0 0 240 163"><defs><style>.cls-1,.cls-5{fill:none;}.cls-2{clip-path:url(#clip-path);}.cls-3{fill:#fff;stroke:#38313d;stroke-width:0.25px;}.cls-3,.cls-5{stroke-miterlimit:10;}.cls-4{fill:#adb5bd;}.cls-5{stroke:#adb5bd;stroke-width:2px;}</style><clipPath id="clip-path"><rect class="cls-1" x="0.74" y="-0.91" width="239" height="161.52"/></clipPath></defs><title>DNS_dark copy</title><g id="Layer_2" data-name="Layer 2"><g class="cls-2"><path class="cls-3" d="M6.06,80.12c15.71,14.62,64.13,41.31,83.16,49.41s23.45,7.84,35.28,7.28c16-.77,79.26-31.91,110.89-58.8,3.13-2.67,3.67-9.59,2.24-13.45-1.28-3.44-4.11-8.21-7.28-10.08-24.64-14.56-66.65-40.88-93-52.08C130-.76,106.2,0,99,3.68,72.35,17.4,17.54,47.92,5.22,59c-4.36,3.9-2.73,17.82.84,21.15"/><path class="cls-4" d="M225.54,84.35l-77.18,44.86c-15.25,8.85-40.13,8.85-55.47,0L15.21,84.35C-.13,75.49-.23,61.08,15,52.22L92.21,7.37c15.23-8.86,40.11-8.85,55.45,0l77.69,44.85c15.33,8.85,15.43,23.26.19,32.12m14.1-14.76c.57-6.66-3.5-13.45-12.3-18.52L149.66,6.21c-16.46-9.5-43.13-9.5-59.46,0L13,51.06C4.86,55.79.8,62,.81,68.22v-.06L.74,91.31c0,6.27,4.12,12.56,12.4,17.34l77.69,44.86c1,.57,2,1.1,3.07,1.6.36.17.73.31,1.09.47.62.28,1.24.57,1.88.83a1.13,1.13,0,0,1,.24.08c1.46.56,3,1.07,4.5,1.51l.36.13c.35.09.72.16,1.08.26.87.23,1.74.45,2.62.64l.69.17c.35.07.7.12,1,.18.75.14,1.48.27,2.24.39l.88.15c.33.05.67.07,1,.12.7.09,1.4.17,2.11.24l1,.11.94,0c.72.06,1.43.09,2.15.12.36,0,.71,0,1.07.06s.57,0,.85,0c.77,0,1.54,0,2.32,0h1.15l.67-.05c1,0,1.91-.11,2.86-.19l1.15-.07.34-.05c1.61-.17,3.21-.39,4.78-.67l.25,0c.45-.08.89-.2,1.34-.29.78-.16,1.56-.31,2.33-.5.56-.13,1.1-.29,1.64-.44.73-.2,1.46-.39,2.18-.62l.47-.13c.26-.09.49-.2.75-.29,1.12-.38,2.21-.79,3.28-1.24.4-.17.81-.33,1.2-.51,1.37-.62,2.7-1.27,4-2l77.18-44.86.51-.3c.39-.23.72-.49,1.1-.73s1-.65,1.49-1,.79-.63,1.18-.94.88-.7,1.27-1c.08-.08.18-.14.26-.21.54-.5,1-1,1.51-1.53l.29-.34c.27-.31.55-.62.8-.93.11-.14.19-.29.29-.43q.54-.74,1-1.47c.13-.21.29-.4.41-.61s.09-.22.15-.33a14.16,14.16,0,0,0,.62-1.31c.11-.25.26-.5.35-.76l.08-.26c.15-.42.25-.84.36-1.26s.19-.57.24-.85c0-.07,0-.15,0-.23.08-.44.11-.89.15-1.33s.09-.57.1-.86v-.37l.07-23.14c0,.39-.07.78-.1,1.17"/><path class="cls-5" d="M61.4,75.7c-.29,2,.86,4,3.44,5.52a13.71,13.71,0,0,0,3.54,1.41m-8.22,26.76c0-9.08,2.75-18.16,8.22-26.76a13.71,13.71,0,0,1-3.54-1.41c-2.58-1.5-3.73-3.54-3.44-5.52a171.35,171.35,0,0,0-49.24,5.74M84,77.76c.76-2.22-.32-4.61-3.24-6.31a12.63,12.63,0,0,0-2.42-1.08m40.12,9.79a46.91,46.91,0,0,0-5.82-23.65,17.55,17.55,0,0,1-12-1.53,7.89,7.89,0,0,1-.71-.45c-1.44.8-2.87,1.61-4.25,2.46A96.56,96.56,0,0,0,78.38,70.37a12.63,12.63,0,0,1,2.42,1.08c2.92,1.7,4,4.09,3.24,6.31a155.24,155.24,0,0,1,24,5.68,9.06,9.06,0,0,1,1.6-1.25A16.31,16.31,0,0,1,118.5,80.16ZM78.38,70.37c-4.42-1.48-10.1-1.09-13.79,1.17A6.14,6.14,0,0,0,61.4,75.7m7,6.93c4.23,1.07,9.29.57,12.67-1.5a6.74,6.74,0,0,0,3-3.37m76.17,44.61c-5-10.47-14.43-20.34-28.42-28.48-1.59-.93-3.24-1.81-4.91-2.67a8.62,8.62,0,0,1-.8.56,16.75,16.75,0,0,1-10.08,2c-4,11.73-13,23-26.8,32.57m37.68-35.08c3.57-2.71,3.2-6.65-1-9.13a15.84,15.84,0,0,0-7.33-1.93M108,83.44c-2.68,2.65-2,6.16,1.85,8.43A15.23,15.23,0,0,0,116,93.73M69.78,20.45a128.93,128.93,0,0,1,11.66,6,93.24,93.24,0,0,1,22.22,17.51c4.22-1.21,9.43-.8,13,1.28a9.89,9.89,0,0,1,1.38,1c2.15-.83,4.33-1.62,6.55-2.35-2.13-2.54-1.48-5.69,2-7.83A15.56,15.56,0,0,1,134,34c-.57-10,2.09-20,8.15-29.44m-29.45,52a13.62,13.62,0,0,0,4.21-1.62c3.91-2.39,4.26-6.07,1.14-8.71m-14.37-2.25a12.77,12.77,0,0,0-3.22,1.38c-4.17,2.55-4.29,6.55-.46,9.22m93.74-20a206.82,206.82,0,0,0-48.22,3.77c1.57,2.42.77,5.26-2.45,7.23a15.11,15.11,0,0,1-6.28,2c5.1,14,16.87,27.28,35.35,38a144.49,144.49,0,0,0,28,12.33M145.5,38.35a7.94,7.94,0,0,0-2.7-2.45A16.61,16.61,0,0,0,134,34m-9.4,9.86a8.35,8.35,0,0,0,2.25,1.85,17.12,17.12,0,0,0,9.94,1.86"/></g></g></svg>