<svg id="Layer_1" data-name="Layer 1" xmlns="http://www.w3.org/2000/svg" xmlns:xlink="http://www.w3.org/1999/xlink" viewBox="0 0 240 163"><defs><style>.cls-1,.cls-5{fill:none;}.cls-2{clip-path:url(#clip-path);}.cls-3{fill:#fff;}.cls-4{fill:#00a1e4;}.cls-5{stroke:#00a1e4;stroke-miterlimit:10;stroke-width:2px;}</style><clipPath id="clip-path"><rect class="cls-1" x="0.74" y="1.05" width="239" height="161.52"/></clipPath></defs><title>Network_blue</title><g class="cls-2"><path class="cls-3" d="M6.06,82.08c15.71,14.62,64.13,41.31,83.16,49.41s23.45,7.84,35.28,7.28c16-.76,79.26-31.9,110.89-58.8,3.13-2.67,3.67-9.59,2.24-13.44-1.28-3.45-4.11-8.21-7.28-10.08-24.64-14.56-66.65-40.89-93-52.09C130,1.2,106.2,1.94,99,5.64,72.35,19.36,17.54,49.88,5.22,60.93c-4.36,3.9-2.74,17.82.84,21.15"/><path class="cls-4" d="M225.54,86.31l-77.18,44.86c-15.25,8.86-40.13,8.85-55.47,0L15.21,86.31C-.13,77.46-.23,63.05,15,54.18L92.21,9.33c15.23-8.85,40.11-8.85,55.45,0l77.69,44.85c15.33,8.86,15.43,23.27.19,32.12m14.1-14.76c.57-6.66-3.5-13.44-12.3-18.52L149.66,8.18c-16.46-9.5-43.13-9.5-59.46,0L13,53C4.86,57.76.8,64,.81,70.19v-.07L.74,93.27c0,6.28,4.12,12.57,12.4,17.35l77.69,44.85c1,.57,2,1.1,3.07,1.6.36.17.73.32,1.09.48.62.28,1.24.56,1.88.82a2.25,2.25,0,0,1,.24.08q2.19.84,4.5,1.52c.13,0,.24.08.36.12.35.1.72.17,1.08.26.87.23,1.74.45,2.62.64.23.06.45.13.69.17l1,.18c.75.14,1.48.28,2.24.39l.88.16,1,.11c.7.09,1.4.17,2.11.24l1,.11.94.05c.72,0,1.43.08,2.15.11.36,0,.71.05,1.07.06s.57,0,.85,0c.77,0,1.54,0,2.32,0h1.15l.67-.05c1,0,1.91-.11,2.86-.19l1.15-.07.34-.05c1.61-.17,3.21-.39,4.78-.67l.25,0c.45-.08.89-.2,1.34-.29.78-.15,1.56-.31,2.33-.5.55-.13,1.1-.29,1.64-.44.73-.2,1.46-.39,2.18-.62l.47-.13c.26-.09.49-.2.75-.29,1.12-.38,2.21-.79,3.28-1.24.4-.17.81-.33,1.2-.51,1.37-.62,2.7-1.27,4-2l77.18-44.85.51-.31c.39-.23.72-.48,1.1-.73s1-.65,1.49-1,.79-.62,1.18-.94.88-.69,1.27-1.05l.26-.21c.54-.5,1-1,1.51-1.53l.29-.34c.27-.31.55-.61.8-.93.11-.14.19-.29.29-.43.36-.49.69-1,1-1.47.13-.21.29-.4.41-.61s.09-.22.15-.32c.24-.44.43-.88.62-1.32.11-.25.26-.5.35-.75,0-.09,0-.18.08-.27.15-.42.25-.84.36-1.26s.19-.56.24-.84c0-.08,0-.16,0-.24.08-.44.11-.89.15-1.33,0-.28.09-.57.1-.85v-.37l.07-23.15c0,.39-.07.78-.1,1.17"/><path class="cls-5" d="M111,61.45c-4.43,2.53-5.14,6.45-2.21,9.64m0-10.93-18.64-11a16.58,16.58,0,0,1-4.59,1.7m81.87,18a5.23,5.23,0,0,0-1,2.86l-30.75-2.92m31.72.06a9,9,0,0,1,3-2.64c5.49-3.12,14.6-2.92,20.34.46s5.94,8.65.45,11.78-14.59,2.92-20.33-.46c-3-1.77-4.48-4.06-4.43-6.28M119.25,96.34a23.12,23.12,0,0,1,5-.51l-2-20a21.75,21.75,0,0,1-10.75-2.67,11.2,11.2,0,0,1-2.68-2.12L102,73m17.3,23.33A16.38,16.38,0,0,0,114.66,98c-5.49,3.13-5.29,8.4.45,11.78s14.84,3.58,20.33.46,5.29-8.4-.45-11.78a21.86,21.86,0,0,0-10.78-2.66M90.13,49.19c5.49-3.13,5.29-8.4-.45-11.78S74.84,33.83,69.35,37s-5.29,8.4.45,11.78c4.33,2.55,10.57,3.29,15.74,2.16M80.85,76.06a11.67,11.67,0,0,1,2.68,2.12L102,73m6.82-12.85L111,61.45a0,0,0,0,1,0,0c4.44-2.53,11.24-2.88,16.71-1.13l12.62-14.47a17.41,17.41,0,0,1-3.62-1.59M80.85,76.06C75.11,72.68,66,72.48,60.52,75.6S55.23,84,61,87.38,75.81,91,81.3,87.83c4.44-2.52,5.15-6.45,2.23-9.65m56.79-32.34c5.47,1.74,12.27,1.39,16.71-1.13,5.48-3.13,5.29-8.4-.45-11.77s-14.85-3.59-20.33-.46-5.29,8.4.45,11.77M122.2,75.88a19.67,19.67,0,0,0,9.58-2.21c5.49-3.13,5.28-8.4-.46-11.78a17.69,17.69,0,0,0-3.62-1.58m63,6.47c5.74,3.38,5.94,8.65.45,11.77s-14.59,2.93-20.33-.45-5.94-8.65-.45-11.78S184.94,63.4,190.68,66.78Z"/></g></svg>