<?xml version="1.0" encoding="utf-8"?>
<!-- Generator: Adobe Illustrator 22.1.0, SVG Export Plug-In . SVG Version: 6.00 Build 0)  -->
<svg version="1.1" id="Layer_1" xmlns="http://www.w3.org/2000/svg" xmlns:xlink="http://www.w3.org/1999/xlink" x="0px" y="0px"
	 viewBox="0 0 240 163" style="enable-background:new 0 0 240 163;" xml:space="preserve">
<style type="text/css">
	.st0{fill:#FFFFFF;}
	.st1{fill:url(#SVGID_1_);}
	.st2{fill:none;stroke:#38313D;stroke-width:2;stroke-linecap:round;stroke-linejoin:round;}
</style>
<title>TLS_dark</title>
<g id="Layer_2_1_">
	<g>
		<path class="st0" d="M6.3,80.5c15.7,14.6,64.1,41.3,83.2,49.4s23.4,7.9,35.3,7.3c16-0.8,79.3-31.9,110.9-58.8
			c3.1-2.7,3.7-9.6,2.2-13.4c-1.3-3.4-4.1-8.2-7.3-10.1C206,40.3,164,14,137.6,2.8c-7.4-3.2-31.2-2.4-38.4,1.3
			C72.6,17.8,17.8,48.3,5.5,59.4C1.1,63.3,2.7,77.2,6.3,80.5"/>
		
			<linearGradient id="SVGID_1_" gradientUnits="userSpaceOnUse" x1="1" y1="83.7475" x2="240" y2="83.7475" gradientTransform="matrix(1 0 0 -1 0 164)">
			<stop  offset="0" style="stop-color:#404040"/>
			<stop  offset="0.88" style="stop-color:#6C6C6C"/>
			<stop  offset="1" style="stop-color:#737373"/>
		</linearGradient>
		<path class="st1" d="M225.8,84.8l-77.2,44.8c-15.2,8.9-40.1,8.9-55.5,0L15.5,84.8C0.1,75.9,0,61.5,15.3,52.6L92.5,7.8
			c15.2-8.9,40.1-8.9,55.5,0l77.7,44.9C240.9,61.5,241,75.9,225.8,84.8 M239.9,70c0.6-6.7-3.5-13.5-12.3-18.5L149.9,6.6
			c-16.5-9.5-43.1-9.5-59.5,0L13.3,51.5c-8.1,4.7-12.2,11-12.2,17.2v-0.1L1,91.7c0,6.3,4.1,12.6,12.4,17.3l77.7,44.9
			c1,0.6,2,1.1,3.1,1.6c0.4,0.2,0.7,0.3,1.1,0.5c0.6,0.3,1.2,0.6,1.9,0.8l0.2,0.1c1.5,0.6,3,1.1,4.5,1.5l0.4,0.1
			c0.3,0.1,0.7,0.2,1.1,0.3c0.9,0.2,1.7,0.4,2.6,0.6l0.7,0.2c0.3,0.1,0.7,0.1,1,0.2c0.8,0.1,1.5,0.3,2.2,0.4c0.3,0,0.6,0.1,0.9,0.1
			s0.7,0.1,1,0.1c0.7,0.1,1.4,0.2,2.1,0.2c0.3,0,0.7,0.1,1,0.1s0.6,0,0.9,0c0.7,0.1,1.4,0.1,2.2,0.1l1.1,0.1c0.3,0,0.6,0,0.8,0
			c0.8,0,1.5,0,2.3,0c0.4,0,0.8,0,1.2,0c0.2,0,0.4,0,0.7,0c1,0,1.9-0.1,2.9-0.2c0.4,0,0.8,0,1.2-0.1c0.1,0,0.2,0,0.3,0
			c1.6-0.2,3.2-0.4,4.8-0.7h0.2c0.4-0.1,0.9-0.2,1.3-0.3c0.8-0.2,1.6-0.3,2.3-0.5c0.6-0.1,1.1-0.3,1.6-0.4c0.7-0.2,1.5-0.4,2.2-0.6
			l0.5-0.1c0.3-0.1,0.5-0.2,0.8-0.3c1.1-0.4,2.2-0.8,3.3-1.2l1.2-0.5c1.4-0.6,2.7-1.3,4-2l77.2-44.9l0.5-0.3
			c0.4-0.2,0.7-0.5,1.1-0.7s1-0.7,1.5-1s0.8-0.6,1.2-0.9s0.9-0.7,1.3-1c0.1-0.1,0.2-0.1,0.3-0.2c0.5-0.5,1-1,1.5-1.5l0.3-0.3
			c0.3-0.3,0.6-0.6,0.8-0.9c0.1-0.1,0.2-0.3,0.3-0.4c0.4-0.5,0.7-1,1-1.5c0.1-0.2,0.3-0.4,0.4-0.6s0.1-0.2,0.1-0.3
			c0.2-0.4,0.4-0.9,0.6-1.3c0.1-0.2,0.3-0.5,0.4-0.8c0-0.1,0-0.2,0.1-0.3c0.1-0.4,0.2-0.8,0.4-1.3s0.2-0.6,0.2-0.8
			c0-0.1,0-0.2,0-0.2c0.1-0.4,0.1-0.9,0.1-1.3c0-0.3,0.1-0.6,0.1-0.9V92l0.1-23.2C240,69.2,239.9,69.6,239.9,70"/>
		<path class="st2" d="M130.8,48.6L117,40.4c-11.4-6.8-30.1-6.7-41.9,0.4S63,59.1,74.4,66l13.7,8.2 M186,73.2l-56.9,34.2L81,78.5
			l56.9-34.2L186,73.2z"/>
	</g>
</g>
</svg>
