<svg xmlns="http://www.w3.org/2000/svg" viewBox="0 0 550 420"><defs><style>.cls-1,.cls-3{fill:#fff;}.cls-10,.cls-11,.cls-2,.cls-4,.cls-5,.cls-7,.cls-8{fill:none;}.cls-2,.cls-3{stroke:#000;}.cls-11,.cls-2,.cls-3,.cls-4,.cls-5,.cls-7,.cls-8{stroke-linecap:round;}.cls-10,.cls-2,.cls-3,.cls-4,.cls-5,.cls-7,.cls-8{stroke-miterlimit:10;}.cls-4,.cls-8{stroke:#343434;}.cls-5,.cls-7{stroke:#1db14b;}.cls-5,.cls-8{stroke-dasharray:3 3;}.cls-6{fill:#1db14b;}.cls-9{fill:#343434;}.cls-10{stroke:#241f20;}.cls-11{stroke:#231f20;stroke-linejoin:round;}.cls-12{fill:#999;}</style></defs><g id="Layer_2" data-name="Layer 2"><g id="Layer_1-2" data-name="Layer 1"><rect class="cls-1" width="550" height="420"/><rect class="cls-2" x="175.74" y="29.77" width="351.54" height="369.46"/><polygon class="cls-3" points="505.39 326.22 505.39 375.69 247.12 375.69 247.12 309.85 505.39 309.85 505.39 318.79 505.39 326.22"/><polygon class="cls-3" points="505.39 72.79 505.39 122.26 247.12 122.26 247.12 56.42 505.39 56.42 505.39 65.36 505.39 72.79"/><line class="cls-4" x1="333.02" y1="343.77" x2="356.75" y2="343.77"/><polygon class="cls-3" points="219.78 156.69 219.78 349.97 128.82 349.97 128.82 82.93 219.78 82.93 219.78 130.01 219.78 156.69"/><rect x="293.54" y="20.77" width="117.95" height="18"/><path class="cls-1" d="M311.41,33.27l-1.6-3.35v3.35h-1.55v-7.1h1.55v3.16l1.48-3.16H313l-1.58,3.44,1.71,3.66Z"/><path class="cls-1" d="M313.88,31.4V26.17h1.55v5.25c0,.36.23.6.72.6s.73-.24.73-.6V26.17h1.55V31.4a2.29,2.29,0,0,1-4.55,0Z"/><path class="cls-1" d="M323.85,30.89v.41a1.93,1.93,0,0,1-2,2h-2.45v-7.1h2.31a1.85,1.85,0,0,1,2,1.77v.51a1.51,1.51,0,0,1-.53,1.12A1.68,1.68,0,0,1,323.85,30.89Zm-2.92-3.37V29h.84c.23,0,.4-.22.4-.53V28a.42.42,0,0,0-.39-.45Zm1.38,3.35c0-.3-.16-.53-.41-.53h-1v1.58h1c.26,0,.42-.25.42-.55Z"/><path class="cls-1" d="M326.25,27.57v1.55H328v1.4h-1.72v1.35h2.12v1.4H324.7v-7.1h3.67v1.4Z"/><path class="cls-1" d="M331.49,30.71h-.74v2.56H329.2v-7.1h2.36a2,2,0,0,1,2.12,1.94v.66a1.86,1.86,0,0,1-.71,1.5l.92,3h-1.62Zm-.74-1.4h.91a.44.44,0,0,0,.47-.47V28a.43.43,0,0,0-.46-.47h-.92Z"/><path class="cls-1" d="M339.29,26.17v7.1h-1.36l-1.85-4v4h-1.35v-7.1h1.35l1.85,4.06V26.17Z"/><path class="cls-1" d="M341.82,27.57v1.55h1.72v1.4h-1.72v1.35h2.12v1.4h-3.67v-7.1h3.67v1.4Z"/><path class="cls-1" d="M349.09,27.57h-1.47v5.7h-1.55v-5.7h-1.48v-1.4h4.5Z"/><path class="cls-1" d="M351.4,27.57v1.55h1.71v1.4H351.4v1.35h2.11v1.4h-3.66v-7.1h3.66v1.4Z"/><path class="cls-1" d="M354.28,31.17v-.28h1.54v.44a.74.74,0,0,0,.83.73.68.68,0,0,0,.72-.69c0-1.27-3-1-3-3.27A2,2,0,0,1,356.62,26a1.94,1.94,0,0,1,2.21,2v.44h-1.55v-.54c0-.31-.3-.49-.67-.49a.59.59,0,0,0-.65.6c0,1,3,.79,3,3.21a2.1,2.1,0,0,1-2.31,2.19A2.15,2.15,0,0,1,354.28,31.17Z"/><path class="cls-1" d="M361.81,31.4V28a2.37,2.37,0,0,1,4.68,0v.89h-1.57V28c0-.36-.26-.6-.77-.6s-.8.24-.8.6v3.4c0,.36.27.6.79.6s.78-.24.78-.6v-.91h1.57v.89a2.37,2.37,0,0,1-4.68,0Z"/><path class="cls-1" d="M371.08,31.87v1.4h-3.69v-7.1h1.55v5.7Z"/><path class="cls-1" d="M371.81,31.4V26.17h1.55v5.25c0,.36.23.6.72.6s.73-.24.73-.6V26.17h1.54V31.4a2.29,2.29,0,0,1-4.54,0Z"/><path class="cls-1" d="M377.2,31.17v-.28h1.55v.44a.74.74,0,0,0,.83.73.68.68,0,0,0,.72-.69c0-1.27-3-1-3-3.27A2,2,0,0,1,379.55,26a1.94,1.94,0,0,1,2.21,2v.44h-1.55v-.54c0-.31-.3-.49-.67-.49a.59.59,0,0,0-.65.6c0,1,3,.79,3,3.21a2.1,2.1,0,0,1-2.31,2.19A2.15,2.15,0,0,1,377.2,31.17Z"/><path class="cls-1" d="M387,27.57h-1.47v5.7H384v-5.7H382.5v-1.4H387Z"/><path class="cls-1" d="M389.3,27.57v1.55H391v1.4H389.3v1.35h2.12v1.4h-3.67v-7.1h3.67v1.4Z"/><path class="cls-1" d="M394.54,30.71h-.74v2.56h-1.55v-7.1h2.36a2,2,0,0,1,2.12,1.94v.66a1.86,1.86,0,0,1-.71,1.5l.92,3h-1.62Zm-.74-1.4h.91a.44.44,0,0,0,.47-.47V28a.43.43,0,0,0-.46-.47h-.92Z"/><rect x="140.09" y="73.95" width="67.97" height="18"/><path class="cls-1" d="M153.59,80.75v1.8h1.82V84h-1.82v2.5H152v-7.1h3.67v1.4Z"/><path class="cls-1" d="M160.67,83.86v.79a2.13,2.13,0,0,1-4.24,0V84H158v.75c0,.3.2.48.57.48s.57-.18.57-.48v-1c0-.28-.13-.45-.34-.45h-2.16v-4h3.78v1.4h-2.23v1.19h.63A1.82,1.82,0,0,1,160.67,83.86Z"/><path class="cls-1" d="M163.59,84.35v-.28h1.55v.44a.74.74,0,0,0,.83.73.68.68,0,0,0,.72-.69c0-1.27-3-1-3-3.27a2,2,0,0,1,2.22-2.08,1.94,1.94,0,0,1,2.21,2v.44H166.6v-.54c0-.31-.3-.49-.67-.49a.59.59,0,0,0-.65.6c0,1,3,.79,3,3.21a2.1,2.1,0,0,1-2.31,2.19A2.15,2.15,0,0,1,163.59,84.35Z"/><path class="cls-1" d="M170.68,80.75V82.3h1.72v1.4h-1.72v1.35h2.12v1.4h-3.67v-7.1h3.67v1.4Z"/><path class="cls-1" d="M175.92,83.89h-.74v2.56h-1.55v-7.1H176a2,2,0,0,1,2.12,1.94V82a1.86,1.86,0,0,1-.71,1.5l.92,3H176.7Zm-.74-1.4h.91a.44.44,0,0,0,.47-.47v-.8a.43.43,0,0,0-.46-.47h-.92Z"/><path class="cls-1" d="M183.78,79.35l-1.5,7.1h-2l-1.49-7.1h1.55l1,4.87,1-4.87Z"/><path class="cls-1" d="M184.57,79.35h1.55v7.1h-1.55Z"/><path class="cls-1" d="M187,84.58V81.22a2.37,2.37,0,0,1,4.69,0v.89h-1.57V81.2c0-.36-.26-.6-.77-.6s-.8.24-.8.6v3.4c0,.36.27.6.79.6s.78-.24.78-.6v-.91h1.57v.89a2.37,2.37,0,0,1-4.69,0Z"/><path class="cls-1" d="M194.18,80.75V82.3h1.72v1.4h-1.72v1.35h2.12v1.4h-3.67v-7.1h3.67v1.4Z"/><path d="M369.41,88.56c0-.76-.39-1-1-1a1.72,1.72,0,0,0-1.29.68v3.18h-.67v-6h.67v2.29A2.17,2.17,0,0,1,368.7,87a1.23,1.23,0,0,1,1.39,1.39v3.07h-.68Z"/><path d="M371.48,90.52V87.67h-.72v-.59h.72V85.89h.68v1.19H373v.59h-.88v2.7c0,.33.14.56.44.56a.65.65,0,0,0,.46-.18l.19.5a1.06,1.06,0,0,1-.81.28A.88.88,0,0,1,371.48,90.52Z"/><path d="M374,90.52V87.67h-.72v-.59H374V85.89h.67v1.19h.88v.59h-.88v2.7c0,.33.15.56.44.56a.65.65,0,0,0,.46-.18l.2.5a1.06,1.06,0,0,1-.81.28A.88.88,0,0,1,374,90.52Z"/><path d="M376.46,93.08v-6h.67v.65A1.81,1.81,0,0,1,378.6,87c1.14,0,1.94.86,1.94,2.28s-.8,2.28-1.94,2.28a1.8,1.8,0,0,1-1.47-.76v2.31Zm2-5.51a1.63,1.63,0,0,0-1.3.7v2a1.63,1.63,0,0,0,1.3.7c.87,0,1.39-.72,1.39-1.68S379.3,87.57,378.43,87.57Z"/><path d="M383,85.24h.53l-2.13,6.37h-.53Z"/><path d="M383.92,90.83c2.16-1.7,3.33-2.7,3.33-3.73A1.12,1.12,0,0,0,386,86a2,2,0,0,0-1.63.75l-.46-.47a2.58,2.58,0,0,1,2.09-1,1.82,1.82,0,0,1,2,1.77c0,1.22-1.24,2.34-2.91,3.66H388v.67h-4.12Z"/><path d="M308.18,88.64c0-.76-.39-1-1-1a1.69,1.69,0,0,0-1.29.68V91.5h-.67v-6h.67v2.29a2.17,2.17,0,0,1,1.56-.74,1.22,1.22,0,0,1,1.39,1.38V91.5h-.68Z"/><path d="M310.25,90.59V87.75h-.72v-.59h.72V86h.68v1.19h.88v.59h-.88v2.7c0,.32.14.56.44.56a.65.65,0,0,0,.46-.18l.19.5a1.06,1.06,0,0,1-.81.28A.89.89,0,0,1,310.25,90.59Z"/><path d="M312.81,90.59V87.75h-.72v-.59h.72V86h.67v1.19h.88v.59h-.88v2.7c0,.32.15.56.44.56a.65.65,0,0,0,.46-.18l.2.5a1.06,1.06,0,0,1-.81.28C313.13,91.61,312.81,91.24,312.81,90.59Z"/><path d="M315.23,93.16v-6h.67v.64a1.83,1.83,0,0,1,1.47-.75c1.14,0,1.94.86,1.94,2.28s-.8,2.28-1.94,2.28a1.8,1.8,0,0,1-1.47-.76v2.31Zm2-5.51a1.64,1.64,0,0,0-1.3.69v2a1.65,1.65,0,0,0,1.3.7c.87,0,1.39-.72,1.39-1.68S318.07,87.65,317.2,87.65Z"/><path d="M321.76,85.32h.53l-2.13,6.36h-.53Z"/><path d="M322.69,90.91c2.16-1.7,3.33-2.7,3.33-3.74a1.12,1.12,0,0,0-1.25-1.09,2,2,0,0,0-1.63.75l-.46-.48a2.61,2.61,0,0,1,2.09-.94,1.83,1.83,0,0,1,2,1.76c0,1.23-1.25,2.34-2.92,3.67h2.94v.66h-4.12Z"/><path d="M422.72,85.5h2a3,3,0,1,1,0,6h-2Zm2,5.34a2.34,2.34,0,0,0,0-4.67h-1.3v4.67Z"/><path d="M428.43,86a.46.46,0,0,1,.45-.46.47.47,0,0,1,.46.46.46.46,0,0,1-.46.45A.45.45,0,0,1,428.43,86Zm.11,1.16h.68V91.5h-.68Z"/><path d="M432.84,91a1.87,1.87,0,0,1-1.44.6,1.44,1.44,0,0,1-1.52-1.44,1.42,1.42,0,0,1,1.52-1.43,1.84,1.84,0,0,1,1.44.59v-.78c0-.58-.47-.92-1.1-.92a1.7,1.7,0,0,0-1.33.61l-.32-.47a2.27,2.27,0,0,1,1.74-.72c.92,0,1.68.41,1.68,1.46v3h-.67Zm0-1.24a1.46,1.46,0,0,0-1.2-.54,1,1,0,1,0,0,1.9,1.46,1.46,0,0,0,1.2-.54Z"/><path d="M439.66,88.55c0-.55-.24-.9-.8-.9a1.49,1.49,0,0,0-1.15.67V91.5H437v-3c0-.55-.23-.9-.8-.9a1.49,1.49,0,0,0-1.14.68V91.5h-.68V87.16h.68v.63a1.87,1.87,0,0,1,1.4-.74,1.11,1.11,0,0,1,1.17.81,1.82,1.82,0,0,1,1.46-.81c.79,0,1.22.44,1.22,1.31V91.5h-.68Z"/><path d="M443.12,87.05a2.11,2.11,0,0,1,2.09,2.33v.17h-3.52a1.53,1.53,0,0,0,1.57,1.5,1.87,1.87,0,0,0,1.34-.55l.32.45a2.34,2.34,0,0,1-1.72.66,2.28,2.28,0,0,1-.08-4.56Zm-1.43,2h2.86a1.41,1.41,0,0,0-1.43-1.45A1.46,1.46,0,0,0,441.69,89.06Z"/><path d="M446,90.59V87.75h-.72v-.59H446V86h.67v1.19h.88v.59h-.88v2.7c0,.32.14.56.44.56a.65.65,0,0,0,.46-.18l.2.5a1.08,1.08,0,0,1-.81.28C446.31,91.61,446,91.24,446,90.59Z"/><path d="M449.94,87.05A2.11,2.11,0,0,1,452,89.38v.17h-3.52a1.52,1.52,0,0,0,1.56,1.5,1.85,1.85,0,0,0,1.34-.55l.33.45a2.38,2.38,0,0,1-1.73.66,2.28,2.28,0,0,1-.07-4.56Zm-1.43,2h2.85a1.41,1.41,0,0,0-1.43-1.45A1.44,1.44,0,0,0,448.51,89.06Z"/><path d="M452.66,87.16h.68v.7a1.83,1.83,0,0,1,1.45-.79v.69a1.06,1.06,0,0,0-.27,0,1.58,1.58,0,0,0-1.18.69V91.5h-.68Z"/><path d="M369.78,345.44a2.52,2.52,0,0,0,1.89.85c1.07,0,1.41-.57,1.41-1,0-.72-.73-.92-1.52-1.13-1-.26-2-.53-2-1.71,0-1,.89-1.66,2.06-1.66a2.81,2.81,0,0,1,2.14.84l-.45.55a2.29,2.29,0,0,0-1.74-.73c-.72,0-1.23.39-1.23,1s.69.78,1.46,1c1,.26,2.09.57,2.09,1.83,0,.87-.59,1.76-2.21,1.76a3,3,0,0,1-2.31-.95Z"/><path d="M374.88,340.85h.75v6h-.75Z"/><path d="M376.94,340.85h2.41a1.81,1.81,0,1,1,0,3.62h-1.66v2.38h-.75Zm2.32.66h-1.57v2.29h1.57a1.15,1.15,0,1,0,0-2.29Z"/><path d="M306.18,344.07c0-.77-.4-1-1-1a1.72,1.72,0,0,0-1.29.67v3.18h-.67v-6h.67v2.28a2.16,2.16,0,0,1,1.56-.73,1.22,1.22,0,0,1,1.39,1.38v3.07h-.68Z"/><path d="M308.25,346v-2.84h-.72v-.6h.72v-1.19h.67v1.19h.89v.6h-.89v2.7c0,.32.15.56.45.56a.64.64,0,0,0,.45-.18l.2.5a1.1,1.1,0,0,1-.81.28C308.57,347,308.25,346.67,308.25,346Z"/><path d="M310.8,346v-2.84h-.72v-.6h.72v-1.19h.68v1.19h.88v.6h-.88v2.7c0,.32.14.56.44.56a.65.65,0,0,0,.46-.18l.2.5a1.12,1.12,0,0,1-.81.28A.9.9,0,0,1,310.8,346Z"/><path d="M313.23,348.59v-6h.67v.65a1.83,1.83,0,0,1,1.47-.75c1.14,0,1.93.86,1.93,2.27s-.79,2.29-1.93,2.29a1.79,1.79,0,0,1-1.47-.76v2.31Zm2-5.51a1.6,1.6,0,0,0-1.3.69v2a1.62,1.62,0,0,0,1.3.71c.87,0,1.39-.72,1.39-1.69S316.07,343.08,315.2,343.08Z"/><path d="M319.76,340.75h.53l-2.13,6.36h-.53Z"/><path d="M320.69,346.34c2.16-1.7,3.33-2.7,3.33-3.74a1.13,1.13,0,0,0-1.25-1.1,2,2,0,0,0-1.63.76l-.46-.48a2.61,2.61,0,0,1,2.09-.94,1.82,1.82,0,0,1,2,1.76c0,1.23-1.24,2.34-2.91,3.67h2.94v.66h-4.12Z"/><path d="M422.72,340.93h2a3,3,0,1,1,0,6h-2Zm2,5.34a2.34,2.34,0,0,0,0-4.68h-1.3v4.68Z"/><path d="M428.43,341.43a.46.46,0,0,1,.45-.46.47.47,0,0,1,.46.46.46.46,0,0,1-.46.45A.45.45,0,0,1,428.43,341.43Zm.11,1.15h.68v4.35h-.68Z"/><path d="M432.84,346.44a1.91,1.91,0,0,1-1.44.6,1.45,1.45,0,0,1-1.52-1.44,1.42,1.42,0,0,1,1.52-1.43,1.84,1.84,0,0,1,1.44.59V344c0-.59-.47-.92-1.1-.92a1.73,1.73,0,0,0-1.33.6l-.32-.46a2.27,2.27,0,0,1,1.74-.72c.92,0,1.68.41,1.68,1.46v3h-.67Zm0-1.24a1.44,1.44,0,0,0-1.2-.55,1,1,0,1,0,0,1.9,1.46,1.46,0,0,0,1.2-.54Z"/><path d="M439.66,344c0-.55-.24-.9-.8-.9a1.49,1.49,0,0,0-1.15.67v3.18H437V344c0-.55-.23-.9-.8-.9a1.5,1.5,0,0,0-1.14.67v3.18h-.68v-4.35h.68v.63a1.89,1.89,0,0,1,1.4-.73,1.11,1.11,0,0,1,1.17.81,1.82,1.82,0,0,1,1.46-.81c.79,0,1.22.44,1.22,1.31v3.14h-.68Z"/><path d="M443.12,342.48a2.11,2.11,0,0,1,2.09,2.33V345h-3.52a1.53,1.53,0,0,0,1.57,1.5,1.91,1.91,0,0,0,1.34-.55l.32.44a2.31,2.31,0,0,1-1.72.67,2.28,2.28,0,0,1-.08-4.56Zm-1.43,2h2.86a1.41,1.41,0,0,0-1.43-1.45A1.46,1.46,0,0,0,441.69,344.48Z"/><path d="M446,346v-2.84h-.72v-.6H446v-1.19h.67v1.19h.88v.6h-.88v2.7c0,.32.14.56.44.56a.65.65,0,0,0,.46-.18l.2.5a1.12,1.12,0,0,1-.81.28C446.31,347,446,346.67,446,346Z"/><path d="M449.94,342.48a2.11,2.11,0,0,1,2.09,2.33V345h-3.52a1.52,1.52,0,0,0,1.56,1.5,1.89,1.89,0,0,0,1.34-.55l.33.44A2.35,2.35,0,0,1,450,347a2.28,2.28,0,0,1-.07-4.56Zm-1.43,2h2.85a1.41,1.41,0,0,0-1.43-1.45A1.45,1.45,0,0,0,448.51,344.48Z"/><path d="M452.66,342.58h.68v.71a1.84,1.84,0,0,1,1.45-.8v.7a1.06,1.06,0,0,0-.27,0,1.58,1.58,0,0,0-1.18.69v3.08h-.68Z"/><polygon class="cls-3" points="505.39 199.51 505.39 248.98 247.12 248.98 247.12 183.13 505.39 183.13 505.39 192.07 505.39 199.51"/><path d="M463.38,215.28c0-.77-.4-1-1-1a1.69,1.69,0,0,0-1.28.67v3.18h-.68v-6h.68v2.29a2.15,2.15,0,0,1,1.56-.74,1.22,1.22,0,0,1,1.38,1.39v3.07h-.67Z"/><path d="M465.45,217.23v-2.85h-.73v-.59h.73V212.6h.67v1.19H467v.59h-.88v2.71c0,.32.14.55.44.55a.65.65,0,0,0,.46-.18l.2.51a1.12,1.12,0,0,1-.81.28C465.77,218.25,465.45,217.88,465.45,217.23Z"/><path d="M468,217.23v-2.85h-.72v-.59H468V212.6h.68v1.19h.88v.59h-.88v2.71c0,.32.14.55.44.55a.65.65,0,0,0,.46-.18l.19.51a1.1,1.1,0,0,1-.81.28A.89.89,0,0,1,468,217.23Z"/><path d="M470.42,219.79v-6h.68v.65a1.81,1.81,0,0,1,1.46-.76c1.15,0,1.94.87,1.94,2.28s-.79,2.29-1.94,2.29a1.77,1.77,0,0,1-1.46-.77v2.31Zm2-5.5a1.58,1.58,0,0,0-1.29.69v2a1.59,1.59,0,0,0,1.29.7c.88,0,1.4-.72,1.4-1.68S473.27,214.29,472.39,214.29Z"/><path d="M477,212h.53l-2.14,6.37h-.53Z"/><path d="M477.88,217.54c2.16-1.7,3.33-2.7,3.33-3.73a1.12,1.12,0,0,0-1.25-1.1,2,2,0,0,0-1.63.76l-.46-.48a2.63,2.63,0,0,1,2.09-1,1.83,1.83,0,0,1,2,1.77c0,1.22-1.24,2.34-2.92,3.66H482v.67h-4.13Z"/><path d="M399.91,215.28c0-.77-.4-1-1-1a1.7,1.7,0,0,0-1.29.67v3.18H397v-6h.68v2.29a2.17,2.17,0,0,1,1.56-.74,1.22,1.22,0,0,1,1.38,1.39v3.07h-.67Z"/><path d="M402,217.23v-2.85h-.72v-.59H402V212.6h.67v1.19h.89v.59h-.89v2.71c0,.32.15.55.44.55a.65.65,0,0,0,.46-.18l.2.51a1.1,1.1,0,0,1-.81.28C402.3,218.25,402,217.88,402,217.23Z"/><path d="M404.53,217.23v-2.85h-.72v-.59h.72V212.6h.68v1.19h.88v.59h-.88v2.71c0,.32.14.55.44.55a.65.65,0,0,0,.46-.18l.2.51a1.14,1.14,0,0,1-.81.28A.9.9,0,0,1,404.53,217.23Z"/><path d="M407,219.79v-6h.68v.65a1.81,1.81,0,0,1,1.47-.76c1.14,0,1.93.87,1.93,2.28s-.79,2.29-1.93,2.29a1.77,1.77,0,0,1-1.47-.77v2.31Zm2-5.5a1.59,1.59,0,0,0-1.3.69v2a1.6,1.6,0,0,0,1.3.7c.87,0,1.39-.72,1.39-1.68S409.8,214.29,408.93,214.29Z"/><path d="M413.49,212H414l-2.13,6.37h-.53Z"/><path d="M414.42,217.54c2.16-1.7,3.33-2.7,3.33-3.73a1.12,1.12,0,0,0-1.26-1.1,2,2,0,0,0-1.62.76l-.46-.48a2.61,2.61,0,0,1,2.08-1,1.83,1.83,0,0,1,2,1.77c0,1.22-1.24,2.34-2.92,3.66h3v.67h-4.12Z"/><path d="M336.6,215.28c0-.77-.4-1-1-1a1.7,1.7,0,0,0-1.29.67v3.18h-.68v-6h.68v2.29a2.15,2.15,0,0,1,1.56-.74,1.22,1.22,0,0,1,1.38,1.39v3.07h-.67Z"/><path d="M338.67,217.23v-2.85H338v-.59h.72V212.6h.67v1.19h.88v.59h-.88v2.71c0,.32.15.55.44.55a.65.65,0,0,0,.46-.18l.2.51a1.1,1.1,0,0,1-.81.28C339,218.25,338.67,217.88,338.67,217.23Z"/><path d="M341.22,217.23v-2.85h-.72v-.59h.72V212.6h.68v1.19h.88v.59h-.88v2.71c0,.32.14.55.44.55a.65.65,0,0,0,.46-.18l.2.51a1.12,1.12,0,0,1-.81.28A.9.9,0,0,1,341.22,217.23Z"/><path d="M343.64,219.79v-6h.68v.65a1.81,1.81,0,0,1,1.47-.76c1.14,0,1.93.87,1.93,2.28s-.79,2.29-1.93,2.29a1.77,1.77,0,0,1-1.47-.77v2.31Zm2-5.5a1.59,1.59,0,0,0-1.3.69v2a1.6,1.6,0,0,0,1.3.7c.87,0,1.39-.72,1.39-1.68S346.49,214.29,345.62,214.29Z"/><path d="M350.18,212h.53l-2.13,6.37H348Z"/><path d="M351.11,217.54c2.16-1.7,3.33-2.7,3.33-3.73a1.12,1.12,0,0,0-1.26-1.1,2,2,0,0,0-1.63.76l-.45-.48a2.59,2.59,0,0,1,2.08-1,1.83,1.83,0,0,1,2,1.77c0,1.22-1.24,2.34-2.92,3.66h3v.67h-4.12Z"/><path d="M275.73,216.8a2.56,2.56,0,0,0,1.89.86c1.07,0,1.42-.58,1.42-1,0-.72-.73-.91-1.53-1.13-1-.25-2-.52-2-1.7,0-1,.88-1.67,2.06-1.67a2.85,2.85,0,0,1,2.14.84l-.45.55a2.3,2.3,0,0,0-1.74-.72c-.72,0-1.24.39-1.24,1s.7.79,1.46,1c1,.26,2.1.57,2.1,1.83,0,.87-.59,1.77-2.21,1.77a3,3,0,0,1-2.31-1Z"/><path d="M280.83,212.21h.75v6h-.75Z"/><path d="M282.9,212.21h2.41a1.81,1.81,0,1,1,0,3.62h-1.67v2.39h-.74Zm2.32.67h-1.58v2.29h1.58a1.15,1.15,0,1,0,0-2.29Z"/><line class="cls-5" x1="219.78" y1="92.26" x2="292.13" y2="92.26"/><polygon class="cls-6" points="288.82 96.35 288.13 95.62 291.75 92.26 288.13 88.91 288.82 88.17 293.21 92.26 288.82 96.35"/><line class="cls-7" x1="219.78" y1="216.05" x2="258.53" y2="216.05"/><polygon class="cls-6" points="255.22 220.14 254.53 219.41 258.15 216.06 254.53 212.7 255.22 211.97 259.62 216.06 255.22 220.14"/><line class="cls-5" x1="219.78" y1="261.62" x2="469.14" y2="261.62"/><polygon class="cls-6" points="465.82 265.7 465.14 264.97 468.75 261.62 465.14 258.26 465.82 257.53 470.22 261.62 465.82 265.7"/><line class="cls-4" x1="315.69" y1="109.64" x2="471.58" y2="195.35"/><line class="cls-4" x1="281.96" y1="235.92" x2="439.49" y2="323.39"/><line class="cls-4" x1="438.83" y1="109.64" x2="281.96" y2="194.84"/><path class="cls-8" d="M438.91,110"/><line class="cls-8" x1="219.78" y1="171.98" x2="436.4" y2="171.98"/><polygon class="cls-9" points="433.09 176.07 432.41 175.34 436.02 171.98 432.41 168.63 433.09 167.89 437.49 171.98 433.09 176.07"/><line class="cls-8" x1="219.78" y1="298.81" x2="436.8" y2="298.81"/><polygon class="cls-9" points="433.49 302.9 432.81 302.17 436.42 298.82 432.81 295.46 433.49 294.73 437.88 298.82 433.49 302.9"/><line class="cls-4" x1="438.89" y1="298.81" x2="438.89" y2="323.39"/><line class="cls-4" x1="313.56" y1="323.39" x2="408.37" y2="235.92"/><line class="cls-4" x1="377.26" y1="109.64" x2="471.58" y2="194.84"/><line class="cls-4" x1="345.17" y1="194.84" x2="438.83" y2="109.64"/><line class="cls-8" x1="22.72" y1="171.98" x2="120.73" y2="171.98"/><polygon class="cls-9" points="117.42 176.07 116.74 175.34 120.35 171.98 116.74 168.63 117.42 167.89 121.82 171.98 117.42 176.07"/><line class="cls-7" x1="22.72" y1="216.05" x2="120.73" y2="216.05"/><polygon class="cls-6" points="117.42 220.14 116.74 219.41 120.35 216.06 116.74 212.7 117.42 211.97 121.82 216.06 117.42 220.14"/><line class="cls-5" x1="22.72" y1="261.42" x2="120.73" y2="261.42"/><polygon class="cls-6" points="117.42 265.51 116.74 264.78 120.35 261.42 116.74 258.07 117.42 257.33 121.82 261.42 117.42 265.51"/><path class="cls-9" d="M37.57,161.42h1.84a2.34,2.34,0,1,1,0,4.68H37.57Zm1.84,3.8a1.4,1.4,0,0,0,1.46-1.46,1.36,1.36,0,0,0-1.46-1.46h-.85v2.92Z"/><path class="cls-9" d="M42.69,161.75a.54.54,0,0,1,.54-.54.54.54,0,0,1,0,1.07A.54.54,0,0,1,42.69,161.75Zm.1,1h.88v3.39h-.88Z"/><path class="cls-9" d="M46.75,165.75a1.41,1.41,0,0,1-1.07.43,1.13,1.13,0,0,1-1.18-1.12A1.08,1.08,0,0,1,45.68,164a1.36,1.36,0,0,1,1.07.41v-.47c0-.34-.29-.56-.74-.56a1.41,1.41,0,0,0-1,.4l-.34-.6a2.26,2.26,0,0,1,1.48-.53c.77,0,1.48.31,1.48,1.28v2.19h-.89Zm0-.89a.91.91,0,0,0-.71-.29c-.35,0-.64.18-.64.51s.29.5.64.5a.89.89,0,0,0,.71-.3Z"/><path class="cls-9" d="M52.88,164c0-.32-.14-.54-.51-.54a.92.92,0,0,0-.7.39v2.29h-.89V164c0-.32-.14-.54-.51-.54a.91.91,0,0,0-.7.4v2.28h-.89v-3.39h.89v.44a1.49,1.49,0,0,1,1.11-.52.9.9,0,0,1,.94.61,1.44,1.44,0,0,1,1.16-.61.9.9,0,0,1,1,1v2.45h-.89Z"/><path class="cls-9" d="M56.37,162.63a1.69,1.69,0,0,1,1.69,1.86v.2H55.55a.92.92,0,0,0,1,.78,1.39,1.39,0,0,0,.91-.33l.39.57a2.11,2.11,0,0,1-1.4.47,1.78,1.78,0,0,1-.05-3.55Zm-.83,1.46H57.2a.77.77,0,0,0-.83-.75A.81.81,0,0,0,55.54,164.09Z"/><path class="cls-9" d="M59.09,165.25v-1.76h-.56v-.78h.56v-.92H60v.92h.69v.78H60V165c0,.21.11.37.31.37a.49.49,0,0,0,.31-.1l.19.67a1.11,1.11,0,0,1-.75.22A.84.84,0,0,1,59.09,165.25Z"/><path class="cls-9" d="M63,162.63a1.69,1.69,0,0,1,1.69,1.86v.2H62.17a.92.92,0,0,0,1,.78,1.39,1.39,0,0,0,.91-.33l.39.57a2.11,2.11,0,0,1-1.4.47,1.78,1.78,0,0,1,0-3.55Zm-.83,1.46h1.66a.77.77,0,0,0-.83-.75A.81.81,0,0,0,62.16,164.09Z"/><path class="cls-9" d="M65.52,162.71h.88v.46a1.45,1.45,0,0,1,1.08-.53v.86l-.24,0a1.13,1.13,0,0,0-.84.38v2.24h-.88Z"/><path class="cls-9" d="M69.74,164h1.68v.76H69.74Z"/><path class="cls-9" d="M75.1,162.3H73.73v-.88h3.73v.88H76.1v3.8h-1Z"/><path class="cls-9" d="M77.92,163.76a2.37,2.37,0,0,1,2.45-2.41,2.15,2.15,0,0,1,2,1.14l-.85.42a1.29,1.29,0,0,0-1.14-.68,1.54,1.54,0,0,0,0,3.07,1.29,1.29,0,0,0,1.14-.68l.85.41a2.16,2.16,0,0,1-2,1.15A2.37,2.37,0,0,1,77.92,163.76Z"/><path class="cls-9" d="M83.17,161.42h2.19a1.5,1.5,0,1,1,0,3H84.17v1.68h-1Zm2,.86h-1v1.29h1a.65.65,0,1,0,0-1.29Z"/><path class="cls-9" d="M88.66,161.28h.64l-1.66,5H87Z"/><path class="cls-9" d="M90.1,164.68a2.06,2.06,0,0,0,1.48.63c.55,0,.81-.26.81-.52s-.4-.47-.94-.6c-.77-.17-1.75-.38-1.75-1.43,0-.78.68-1.41,1.78-1.41a2.65,2.65,0,0,1,1.82.65l-.56.73a2,2,0,0,0-1.33-.51c-.45,0-.69.2-.69.48s.39.41.93.54c.77.17,1.75.4,1.75,1.44,0,.86-.61,1.5-1.87,1.5a2.64,2.64,0,0,1-2-.74Z"/><path class="cls-9" d="M94,163.76a2.36,2.36,0,0,1,2.45-2.41,2.16,2.16,0,0,1,2,1.14l-.85.42a1.29,1.29,0,0,0-1.14-.68,1.54,1.54,0,0,0,0,3.07,1.29,1.29,0,0,0,1.14-.68l.85.41a2.18,2.18,0,0,1-2,1.15A2.36,2.36,0,0,1,94,163.76Z"/><path class="cls-9" d="M100.4,162.3H99v-.88h3.72v.88H101.4v3.8h-1Z"/><path class="cls-9" d="M103.52,161.42h2.19a1.5,1.5,0,1,1,0,3h-1.19v1.68h-1Zm2,.86h-1v1.29h1a.65.65,0,1,0,0-1.29Z"/><path class="cls-9" d="M49,209.62a2.06,2.06,0,0,0,1.49.63c.55,0,.81-.26.81-.52s-.4-.47-.94-.6c-.77-.17-1.75-.38-1.75-1.43,0-.77.67-1.41,1.77-1.41a2.61,2.61,0,0,1,1.83.66l-.56.72a2,2,0,0,0-1.34-.51c-.44,0-.68.2-.68.48s.39.41.93.54c.77.17,1.75.41,1.75,1.44,0,.86-.61,1.5-1.87,1.5a2.64,2.64,0,0,1-2-.74Z"/><path class="cls-9" d="M53.27,206.37h1V211h-1Z"/><path class="cls-9" d="M55.42,206.37h2.19a1.5,1.5,0,1,1,0,3H56.42V211h-1Zm2,.85h-1v1.29h1a.65.65,0,1,0,0-1.29Z"/><path class="cls-9" d="M61.47,209h1.68v.76H61.47Z"/><path class="cls-9" d="M66.83,207.24H65.47v-.87h3.72v.87H67.84V211h-1Z"/><path class="cls-9" d="M69.66,208.7a2.36,2.36,0,0,1,2.45-2.41,2.16,2.16,0,0,1,2,1.14l-.86.42a1.26,1.26,0,0,0-1.13-.68,1.54,1.54,0,0,0,0,3.07,1.26,1.26,0,0,0,1.13-.68l.86.41a2.18,2.18,0,0,1-2,1.15A2.36,2.36,0,0,1,69.66,208.7Z"/><path class="cls-9" d="M74.91,206.37h2.18a1.5,1.5,0,1,1,0,3H75.9V211h-1Zm2,.85H75.9v1.29H77a.65.65,0,1,0,0-1.29Z"/><path class="cls-9" d="M80.39,206.23H81l-1.66,5h-.65Z"/><path class="cls-9" d="M81.69,206.37h1v2.77a1.08,1.08,0,1,0,2.16,0v-2.77h1v2.8a2.1,2.1,0,0,1-4.18,0Z"/><path class="cls-9" d="M87,206.37h1.85a2.34,2.34,0,1,1,0,4.67H87Zm1.85,3.79a1.4,1.4,0,0,0,1.46-1.46,1.36,1.36,0,0,0-1.46-1.46H88v2.92Z"/><path class="cls-9" d="M92.27,206.37h2.19a1.5,1.5,0,1,1,0,3H93.27V211h-1Zm2,.85h-1v1.29h1a.65.65,0,1,0,0-1.29Z"/><path class="cls-9" d="M53.8,254H51.59v2h-1v-4.67h1v1.84H53.8v-1.84h1V256h-1Z"/><path class="cls-9" d="M56.93,252.2H55.56v-.88h3.73v.88H57.93V256h-1Z"/><path class="cls-9" d="M61.26,252.2H59.89v-.88h3.73v.88H62.26V256h-1Z"/><path class="cls-9" d="M64.38,251.32h2.18a1.5,1.5,0,1,1,0,3H65.37V256h-1Zm2.05.86H65.37v1.29h1.06a.65.65,0,1,0,0-1.29Z"/><path class="cls-9" d="M69.87,251.18h.64l-1.66,4.95h-.64Z"/><path class="cls-9" d="M71,255.21c1.92-1.41,2.48-1.89,2.48-2.46,0-.41-.38-.61-.77-.61a1.68,1.68,0,0,0-1.24.53l-.57-.65a2.36,2.36,0,0,1,1.8-.77,1.58,1.58,0,0,1,1.78,1.5c0,.79-.65,1.49-1.91,2.37h2V256H71Z"/><path class="cls-9" d="M77.06,253.92h1.68v.76H77.06Z"/><path class="cls-9" d="M82.42,252.2H81.05v-.88h3.73v.88H83.42V256h-1Z"/><path class="cls-9" d="M85.24,253.66a2.37,2.37,0,0,1,2.45-2.41,2.15,2.15,0,0,1,2,1.14l-.85.42a1.29,1.29,0,0,0-1.14-.68,1.54,1.54,0,0,0,0,3.07,1.29,1.29,0,0,0,1.14-.68l.85.41a2.16,2.16,0,0,1-2,1.15A2.37,2.37,0,0,1,85.24,253.66Z"/><path class="cls-9" d="M90.49,251.32h2.19a1.5,1.5,0,1,1,0,3H91.49V256h-1Zm2.05.86H91.49v1.29h1.05a.65.65,0,1,0,0-1.29Z"/><path d="M161.75,196.59h3.12a1.69,1.69,0,0,1,1.88,1.7,1.51,1.51,0,0,1-1.16,1.53,1.65,1.65,0,0,1,1.29,1.64,1.74,1.74,0,0,1-1.93,1.79h-3.2Zm2.93,2.83a1,1,0,1,0,0-1.95h-1.93v1.95Zm0,3a1,1,0,0,0,1.12-1,1,1,0,0,0-1.12-1h-2v2.08Z"/><path d="M167.88,196.59h1v6.66h-1Z"/><path d="M173.29,196.48a3.14,3.14,0,0,1,2.64,1.32l-.81.47a2.3,2.3,0,0,0-1.83-.9,2.56,2.56,0,0,0,0,5.12,2.64,2.64,0,0,0,1.69-.65v-1.2h-2.14v-.88H176v2.45a3.58,3.58,0,0,1-2.69,1.17,3.45,3.45,0,1,1,0-6.9Z"/><path d="M176.58,200.45H179v.78h-2.39Z"/><path d="M179.76,196.59h1v6.66h-1Z"/><path d="M182,196.59h2.81a2.05,2.05,0,1,1,0,4.1H183v2.56h-1Zm2.68.88H183v2.34h1.68a1.17,1.17,0,1,0,0-2.34Z"/><circle class="cls-10" cx="174.12" cy="199.79" r="19.5"/><path d="M157.52,232.19a3.11,3.11,0,0,0,2.31,1c1.31,0,1.73-.7,1.73-1.26,0-.88-.89-1.12-1.86-1.39-1.18-.31-2.49-.64-2.49-2.08,0-1.21,1.08-2,2.52-2a3.44,3.44,0,0,1,2.61,1l-.55.67a2.82,2.82,0,0,0-2.12-.88c-.88,0-1.51.47-1.51,1.17s.85,1,1.78,1.21c1.2.32,2.57.69,2.57,2.23,0,1.07-.73,2.16-2.71,2.16a3.65,3.65,0,0,1-2.82-1.17Z"/><path d="M166,228.47a2.58,2.58,0,0,1,2.55,2.85v.21h-4.3a1.87,1.87,0,0,0,1.91,1.84,2.36,2.36,0,0,0,1.64-.67l.4.53a2.9,2.9,0,0,1-2.12.82,2.79,2.79,0,0,1-.08-5.58Zm-1.75,2.45h3.48a1.71,1.71,0,0,0-1.74-1.77A1.77,1.77,0,0,0,164.29,230.92Z"/><path d="M169.81,228.6h.82v.86a2.28,2.28,0,0,1,1.78-1v.85a1.61,1.61,0,0,0-.33,0,2,2,0,0,0-1.45.84v3.77h-.82Z"/><path d="M172.54,228.6h.89L175.2,233,177,228.6h.9l-2.21,5.32h-.9Z"/><path d="M178.47,227.19a.56.56,0,0,1,.55-.56.57.57,0,0,1,.56.56.56.56,0,0,1-.56.55A.55.55,0,0,1,178.47,227.19Zm.14,1.41h.82v5.32h-.82Z"/><path d="M183.32,228.47a2.27,2.27,0,0,1,1.94.92l-.55.51a1.57,1.57,0,0,0-1.35-.69,2.06,2.06,0,0,0,0,4.1,1.6,1.6,0,0,0,1.35-.69l.55.5a2.25,2.25,0,0,1-1.94.93,2.79,2.79,0,0,1,0-5.58Z"/><path d="M188.62,228.47a2.58,2.58,0,0,1,2.55,2.85v.21h-4.3a1.88,1.88,0,0,0,1.91,1.84,2.36,2.36,0,0,0,1.64-.67l.4.53a2.88,2.88,0,0,1-2.11.82,2.79,2.79,0,0,1-.09-5.58Zm-1.75,2.45h3.49a1.72,1.72,0,0,0-1.75-1.77A1.77,1.77,0,0,0,186.87,230.92Z"/><path d="M161.81,237.58h2.95a2.21,2.21,0,1,1,0,4.42h-2v2.92h-.92Zm2.84.81h-1.92v2.8h1.92a1.4,1.4,0,1,0,0-2.8Z"/><path d="M168.13,239.6H169v.86a2.27,2.27,0,0,1,1.77-1v.85a1.61,1.61,0,0,0-.33,0,1.94,1.94,0,0,0-1.44.84v3.77h-.82Z"/><path d="M171.34,242.25c-.2-3.62,5.45-3.62,5.26,0C176.79,245.89,171.15,245.89,171.34,242.25Zm4.39,0a1.78,1.78,0,1,0-3.53,0A1.78,1.78,0,1,0,175.73,242.25Z"/><path d="M179.33,242.74l-1.59,2.18h-1l2-2.73-1.93-2.59h1l1.47,2,1.48-2h1l-1.93,2.59,2,2.73h-1Z"/><path d="M183,246.34a.77.77,0,0,0,.79-.57l.35-.8-2.22-5.37h.89l1.77,4.36,1.76-4.36h.91L184.59,246a1.57,1.57,0,0,1-1.56,1.08,2.82,2.82,0,0,1-.6-.07l.13-.75A1.39,1.39,0,0,0,183,246.34Z"/><line class="cls-4" x1="471.22" y1="261.62" x2="471.58" y2="235.92"/><line class="cls-4" x1="438.49" y1="110.28" x2="438.49" y2="171.89"/><polygon class="cls-11" points="438.83 68.56 422.1 76.62 417.96 94.73 429.55 109.26 448.12 109.26 459.7 94.73 455.57 76.62 438.83 68.56"/><polygon class="cls-11" points="471.58 195.35 454.84 203.41 450.71 221.52 462.29 236.05 480.87 236.05 492.45 221.52 488.31 203.41 471.58 195.35"/><polygon class="cls-11" points="439.49 323.39 422.75 331.45 418.62 349.56 430.2 364.08 448.78 364.08 460.36 349.56 456.23 331.45 439.49 323.39"/><polygon class="cls-11" points="376.23 323.39 359.49 331.45 355.36 349.56 366.94 364.08 385.51 364.08 397.09 349.56 392.96 331.45 376.23 323.39"/><polygon class="cls-11" points="313.56 323.39 296.83 331.45 292.69 349.56 304.28 364.08 322.85 364.08 334.43 349.56 330.3 331.45 313.56 323.39"/><polygon class="cls-11" points="408.37 195.35 391.64 203.41 387.5 221.52 399.08 236.05 417.66 236.05 429.24 221.52 425.11 203.41 408.37 195.35"/><polygon class="cls-11" points="345.17 195.35 328.43 203.41 324.3 221.52 335.88 236.05 354.45 236.05 366.04 221.52 361.9 203.41 345.17 195.35"/><polygon class="cls-11" points="281.96 195.35 265.23 203.41 261.09 221.52 272.67 236.05 291.25 236.05 302.83 221.52 298.7 203.41 281.96 195.35"/><polygon class="cls-11" points="377.26 68.56 360.53 76.62 356.39 94.73 367.98 109.26 386.55 109.26 398.13 94.73 394 76.62 377.26 68.56"/><polygon class="cls-11" points="315.69 68.56 298.96 76.62 294.82 94.73 306.4 109.26 324.98 109.26 336.56 94.73 332.43 76.62 315.69 68.56"/><rect class="cls-12" x="247.52" y="143.35" width="257.16" height="18"/><path class="cls-1" d="M347.54,153.75v-.28h1.55v.44a.74.74,0,0,0,.83.73.68.68,0,0,0,.72-.69c0-1.27-3-1-3-3.27a2,2,0,0,1,2.22-2.08,1.94,1.94,0,0,1,2.21,2V151h-1.55v-.54c0-.31-.3-.49-.67-.49a.59.59,0,0,0-.65.6c0,1,3,.79,3,3.21a2.1,2.1,0,0,1-2.31,2.19A2.15,2.15,0,0,1,347.54,153.75Z"/><path class="cls-1" d="M354.63,150.15v1.55h1.72v1.4h-1.72v1.35h2.12v1.4h-3.67v-7.1h3.67v1.4Z"/><path class="cls-1" d="M359.87,153.29h-.74v2.56h-1.55v-7.1h2.36a1.94,1.94,0,0,1,2.11,1.94v.66a1.85,1.85,0,0,1-.7,1.5l.91,3h-1.61Zm-.74-1.4H360a.44.44,0,0,0,.47-.47v-.8a.43.43,0,0,0-.46-.47h-.92Z"/><path class="cls-1" d="M367.72,148.75l-1.49,7.1h-2l-1.49-7.1h1.55l1,4.87,1-4.87Z"/><path class="cls-1" d="M368.52,148.75h1.55v7.1h-1.55Z"/><path class="cls-1" d="M371,154v-3.36a2.37,2.37,0,0,1,4.69,0v.89h-1.57v-.91c0-.36-.26-.6-.77-.6s-.8.24-.8.6V154c0,.36.27.6.79.6s.78-.24.78-.6v-.91h1.57V154a2.37,2.37,0,0,1-4.69,0Z"/><path class="cls-1" d="M378.13,150.15v1.55h1.71v1.4h-1.71v1.35h2.12v1.4h-3.67v-7.1h3.67v1.4Z"/><path class="cls-1" d="M388.88,155.85h-1.33v-4.57l-1,4.57h-1.1l-1-4.61v4.61H383.1v-7.1h1.84l1.05,4.06,1.05-4.06h1.84Z"/><path class="cls-1" d="M391.43,150.15v1.55h1.71v1.4h-1.71v1.35h2.11v1.4h-3.66v-7.1h3.66v1.4Z"/><path class="cls-1" d="M394.31,153.75v-.28h1.54v.44a.74.74,0,0,0,.83.73.68.68,0,0,0,.72-.69c0-1.27-3-1-3-3.27a2,2,0,0,1,2.21-2.08,1.94,1.94,0,0,1,2.21,2V151h-1.55v-.54c0-.31-.3-.49-.67-.49a.58.58,0,0,0-.64.6c0,1,3,.79,3,3.21a2.1,2.1,0,0,1-2.31,2.19A2.15,2.15,0,0,1,394.31,153.75Z"/><path class="cls-1" d="M404.55,148.75v7.1H403V153.1h-1.6v2.75h-1.55v-7.1h1.55v2.95H403v-2.95Z"/><line class="cls-7" x1="265.61" y1="163.07" x2="265.61" y2="179.97"/><polygon class="cls-6" points="261.52 166.38 262.25 167.06 265.61 163.45 268.97 167.06 269.7 166.38 265.61 161.98 261.52 166.38"/><polygon class="cls-6" points="261.52 176.66 262.25 175.97 265.61 179.59 268.97 175.97 269.7 176.66 265.61 181.05 261.52 176.66"/><line class="cls-7" x1="265.61" y1="125.29" x2="265.61" y2="141.84"/><polygon class="cls-6" points="261.52 128.6 262.25 129.28 265.61 125.67 268.97 129.28 269.7 128.6 265.61 124.2 261.52 128.6"/><polygon class="cls-6" points="261.52 138.53 262.25 137.84 265.61 141.46 268.97 137.84 269.7 138.53 265.61 142.92 261.52 138.53"/><line class="cls-7" x1="487.83" y1="163.07" x2="487.83" y2="179.97"/><polygon class="cls-6" points="483.74 166.38 484.48 167.06 487.83 163.45 491.19 167.06 491.92 166.38 487.83 161.98 483.74 166.38"/><polygon class="cls-6" points="483.74 176.66 484.48 175.97 487.83 179.59 491.19 175.97 491.92 176.66 487.83 181.05 483.74 176.66"/><line class="cls-7" x1="487.83" y1="125.29" x2="487.83" y2="141.84"/><polygon class="cls-6" points="483.74 128.6 484.48 129.28 487.83 125.67 491.19 129.28 491.92 128.6 487.83 124.2 483.74 128.6"/><polygon class="cls-6" points="483.74 138.53 484.48 137.84 487.83 141.46 491.19 137.84 491.92 138.53 487.83 142.92 483.74 138.53"/><rect class="cls-12" x="247.52" y="270.12" width="257.16" height="18"/><path class="cls-1" d="M347.54,280.52v-.28h1.55v.44a.74.74,0,0,0,.83.73.68.68,0,0,0,.72-.69c0-1.27-3-1-3-3.26a2,2,0,0,1,2.22-2.08,1.94,1.94,0,0,1,2.21,2v.44h-1.55v-.54c0-.31-.3-.49-.67-.49a.59.59,0,0,0-.65.6c0,1,3,.79,3,3.2a2.1,2.1,0,0,1-2.31,2.19A2.15,2.15,0,0,1,347.54,280.52Z"/><path class="cls-1" d="M354.63,276.93v1.54h1.72v1.4h-1.72v1.35h2.12v1.4h-3.67v-7.09h3.67v1.4Z"/><path class="cls-1" d="M359.87,280.06h-.74v2.56h-1.55v-7.09h2.36a1.94,1.94,0,0,1,2.11,1.94v.66a1.84,1.84,0,0,1-.7,1.49l.91,3h-1.61Zm-.74-1.39H360a.44.44,0,0,0,.47-.47v-.8a.43.43,0,0,0-.46-.47h-.92Z"/><path class="cls-1" d="M367.72,275.53l-1.49,7.09h-2l-1.49-7.09h1.55l1,4.86,1-4.86Z"/><path class="cls-1" d="M368.52,275.53h1.55v7.09h-1.55Z"/><path class="cls-1" d="M371,280.75V277.4a2.37,2.37,0,0,1,4.69,0v.89h-1.57v-.91c0-.36-.26-.6-.77-.6s-.8.24-.8.6v3.39c0,.36.27.6.79.6s.78-.24.78-.6v-.91h1.57v.89a2.37,2.37,0,0,1-4.69,0Z"/><path class="cls-1" d="M378.13,276.93v1.54h1.71v1.4h-1.71v1.35h2.12v1.4h-3.67v-7.09h3.67v1.4Z"/><path class="cls-1" d="M388.88,282.62h-1.33v-4.56l-1,4.56h-1.1l-1-4.6v4.6H383.1v-7.09h1.84l1.05,4.05,1.05-4.05h1.84Z"/><path class="cls-1" d="M391.43,276.93v1.54h1.71v1.4h-1.71v1.35h2.11v1.4h-3.66v-7.09h3.66v1.4Z"/><path class="cls-1" d="M394.31,280.52v-.28h1.54v.44a.74.74,0,0,0,.83.73.68.68,0,0,0,.72-.69c0-1.27-3-1-3-3.26a2,2,0,0,1,2.21-2.08,1.94,1.94,0,0,1,2.21,2v.44h-1.55v-.54c0-.31-.3-.49-.67-.49a.58.58,0,0,0-.64.6c0,1,3,.79,3,3.2a2.1,2.1,0,0,1-2.31,2.19A2.15,2.15,0,0,1,394.31,280.52Z"/><path class="cls-1" d="M404.55,275.53v7.09H403v-2.75h-1.6v2.75h-1.55v-7.09h1.55v2.94H403v-2.94Z"/><line class="cls-7" x1="265.61" y1="289.84" x2="265.61" y2="306.74"/><polygon class="cls-6" points="261.52 293.15 262.25 293.84 265.61 290.23 268.97 293.84 269.7 293.15 265.61 288.76 261.52 293.15"/><polygon class="cls-6" points="261.52 303.43 262.25 302.75 265.61 306.36 268.97 302.75 269.7 303.43 265.61 307.83 261.52 303.43"/><line class="cls-7" x1="265.61" y1="252.06" x2="265.61" y2="268.61"/><polygon class="cls-6" points="261.52 255.38 262.25 256.06 265.61 252.45 268.97 256.06 269.7 255.38 265.61 250.98 261.52 255.38"/><polygon class="cls-6" points="261.52 265.3 262.25 264.62 265.61 268.23 268.97 264.62 269.7 265.3 265.61 269.7 261.52 265.3"/><line class="cls-7" x1="487.83" y1="289.84" x2="487.83" y2="306.74"/><polygon class="cls-6" points="483.74 293.15 484.48 293.84 487.83 290.23 491.19 293.84 491.92 293.15 487.83 288.76 483.74 293.15"/><polygon class="cls-6" points="483.74 303.43 484.48 302.75 487.83 306.36 491.19 302.75 491.92 303.43 487.83 307.83 483.74 303.43"/><line class="cls-7" x1="487.83" y1="252.06" x2="487.83" y2="268.61"/><polygon class="cls-6" points="483.74 255.38 484.48 256.06 487.83 252.45 491.19 256.06 491.92 255.38 487.83 250.98 483.74 255.38"/><polygon class="cls-6" points="483.74 265.3 484.48 264.62 487.83 268.23 491.19 264.62 491.92 265.3 487.83 269.7 483.74 265.3"/></g></g></svg>