<?xml version="1.0" encoding="utf-8"?>
<!-- Generator: Adobe Illustrator 16.0.0, SVG Export Plug-In . SVG Version: 6.00 Build 0)  -->
<!DOCTYPE svg PUBLIC "-//W3C//DTD SVG 1.1//EN" "http://www.w3.org/Graphics/SVG/1.1/DTD/svg11.dtd">
<svg version="1.1" id="Layer_1" xmlns="http://www.w3.org/2000/svg" xmlns:xlink="http://www.w3.org/1999/xlink" x="0px" y="0px"
	 width="44px" height="44px" viewBox="0 0 44 44" enable-background="new 0 0 44 44" xml:space="preserve">
<path fill="#FFFFFF" d="M28.361,27.01l-5.018-5.018l4.999-4.999c0.372-0.372,0.372-0.973,0-1.345c-0.37-0.37-0.973-0.37-1.344,0
	l-5,5.001l-5-5.001c-0.371-0.37-0.972-0.37-1.343,0.001c-0.371,0.37-0.371,0.971,0,1.343l5,4.999l-5.018,5.018
	c-0.371,0.371-0.371,0.974,0,1.345c0.186,0.187,0.429,0.276,0.672,0.276s0.486-0.092,0.671-0.276L22,23.334l5.02,5.02
	c0.187,0.187,0.429,0.276,0.672,0.276c0.242,0,0.484-0.092,0.672-0.276C28.732,27.982,28.732,27.381,28.361,27.01z"/>
</svg>
