<svg xmlns="http://www.w3.org/2000/svg" viewBox="0 0 510 430"><defs><style>.cls-1,.cls-15,.cls-4{fill:#fff;}.cls-11,.cls-12,.cls-14,.cls-16,.cls-17,.cls-18,.cls-19,.cls-2,.cls-20,.cls-3,.cls-6,.cls-8,.cls-9{fill:none;}.cls-12,.cls-15,.cls-16,.cls-2,.cls-4,.cls-8,.cls-9{stroke:#000;}.cls-12,.cls-14,.cls-16,.cls-2,.cls-20,.cls-4,.cls-8{stroke-linecap:round;}.cls-11,.cls-15,.cls-17,.cls-18,.cls-19,.cls-2,.cls-3,.cls-4,.cls-6,.cls-9{stroke-miterlimit:10;}.cls-3{stroke:#c20025;}.cls-5{fill:#010101;}.cls-6{stroke:#2aaf4a;}.cls-7{fill:#221f1f;}.cls-12,.cls-14,.cls-16,.cls-20,.cls-8{stroke-linejoin:round;}.cls-10{font-size:11px;font-family:ProximaNova-Regular, Proxima Nova;letter-spacing:-0.01em;}.cls-11,.cls-20{stroke:#231f20;}.cls-12{stroke-width:0.75px;}.cls-13{fill:#c20025;}.cls-14{stroke:#fff;}.cls-16{stroke-width:0.96px;}.cls-17{stroke:#2aae4a;}.cls-18{stroke:#be242a;}.cls-19{stroke:#e4002b;}</style></defs><g id="Layer_2" data-name="Layer 2"><g id="Layer_1-2" data-name="Layer 1"><rect class="cls-1" width="510" height="430"/><rect class="cls-2" x="211.26" y="30.67" width="277.65" height="318.19"/><line class="cls-3" x1="118.62" y1="191.21" x2="63.63" y2="191.21"/><line class="cls-3" x1="168.84" y1="204.41" x2="168.84" y2="211.96"/><rect class="cls-4" x="117.81" y="218.42" width="102.62" height="96.48"/><rect class="cls-5" x="293.01" y="21.67" width="113.48" height="18"/><path class="cls-1" d="M308.64,34.17,307,30.82v3.35h-1.55v-7.1H307v3.16l1.48-3.16h1.74l-1.58,3.44,1.71,3.66Z"/><path class="cls-1" d="M311.11,32.3V27.07h1.55v5.25c0,.36.23.6.72.6s.73-.24.73-.6V27.07h1.55V32.3a2.29,2.29,0,0,1-4.55,0Z"/><path class="cls-1" d="M321.08,31.79v.41a1.93,1.93,0,0,1-2,2h-2.45v-7.1h2.31a1.86,1.86,0,0,1,2,1.77v.51a1.52,1.52,0,0,1-.54,1.12A1.68,1.68,0,0,1,321.08,31.79Zm-2.92-3.37V29.9H319c.23,0,.41-.22.41-.53v-.5a.43.43,0,0,0-.4-.45Zm1.38,3.35c0-.3-.16-.53-.41-.53h-1v1.58h1c.26,0,.42-.25.42-.55Z"/><path class="cls-1" d="M323.48,28.47V30h1.72v1.4h-1.72v1.35h2.12v1.4h-3.67v-7.1h3.67v1.4Z"/><path class="cls-1" d="M328.72,31.61H328v2.56h-1.55v-7.1h2.36A2,2,0,0,1,330.91,29v.66a1.86,1.86,0,0,1-.71,1.5l.92,3H329.5Zm-.74-1.4h.91a.44.44,0,0,0,.47-.47v-.8a.43.43,0,0,0-.46-.47H328Z"/><path class="cls-1" d="M336.52,27.07v7.1h-1.36l-1.85-4v4H332v-7.1h1.35l1.85,4.06V27.07Z"/><path class="cls-1" d="M339.05,28.47V30h1.72v1.4h-1.72v1.35h2.12v1.4H337.5v-7.1h3.67v1.4Z"/><path class="cls-1" d="M346.32,28.47h-1.47v5.7H343.3v-5.7h-1.48v-1.4h4.5Z"/><path class="cls-1" d="M348.63,28.47V30h1.71v1.4h-1.71v1.35h2.12v1.4h-3.67v-7.1h3.67v1.4Z"/><path class="cls-1" d="M351.51,32.07v-.28h1.54v.44a.74.74,0,0,0,.83.73.68.68,0,0,0,.72-.69c0-1.27-3-1-3-3.27a2,2,0,0,1,2.21-2.08,1.94,1.94,0,0,1,2.21,2v.44h-1.55v-.54c0-.31-.3-.49-.67-.49a.58.58,0,0,0-.64.6c0,1,3,.79,3,3.21a2.1,2.1,0,0,1-2.31,2.19A2.15,2.15,0,0,1,351.51,32.07Z"/><path class="cls-1" d="M359,32.3V28.94a2.37,2.37,0,0,1,4.68,0v.89h-1.57v-.91c0-.36-.26-.6-.77-.6s-.8.24-.8.6v3.4c0,.36.27.6.79.6s.78-.24.78-.6v-.91h1.57v.89a2.37,2.37,0,0,1-4.68,0Z"/><path class="cls-1" d="M368.31,32.77v1.4h-3.69v-7.1h1.55v5.7Z"/><path class="cls-1" d="M369,32.3V27.07h1.55v5.25c0,.36.23.6.72.6s.73-.24.73-.6V27.07h1.54V32.3a2.29,2.29,0,0,1-4.54,0Z"/><path class="cls-1" d="M374.43,32.07v-.28H376v.44a.74.74,0,0,0,.83.73.68.68,0,0,0,.72-.69c0-1.27-3-1-3-3.27a2,2,0,0,1,2.22-2.08,1.94,1.94,0,0,1,2.21,2v.44h-1.55v-.54c0-.31-.3-.49-.67-.49a.59.59,0,0,0-.65.6c0,1,3,.79,3,3.21a2.1,2.1,0,0,1-2.31,2.19A2.15,2.15,0,0,1,374.43,32.07Z"/><path class="cls-1" d="M384.23,28.47h-1.47v5.7h-1.55v-5.7h-1.48v-1.4h4.5Z"/><path class="cls-1" d="M386.54,28.47V30h1.71v1.4h-1.71v1.35h2.11v1.4H385v-7.1h3.66v1.4Z"/><path class="cls-1" d="M391.77,31.61H391v2.56h-1.55v-7.1h2.36A2,2,0,0,1,394,29v.66a1.86,1.86,0,0,1-.71,1.5l.92,3h-1.62Zm-.74-1.4h.91a.44.44,0,0,0,.47-.47v-.8a.43.43,0,0,0-.46-.47H391Z"/><line class="cls-6" x1="117.89" y1="101.13" x2="59.2" y2="101.13"/><rect class="cls-4" x="238.58" y="58.07" width="233.34" height="110.85"/><rect class="cls-5" x="335.75" y="49.07" width="38.99" height="18"/><path class="cls-1" d="M349.75,54.47v7.1h-1.36l-1.84-4v4H345.2v-7.1h1.35l1.84,4.06V54.47Z"/><path class="cls-1" d="M350.68,59.7V56.34c-.18-2.65,4.89-2.65,4.72,0V59.7C355.58,62.36,350.51,62.34,350.68,59.7Zm3.17,0v-3.4c.13-.8-1.75-.78-1.62,0v3.4C352.1,60.51,354,60.51,353.85,59.72Z"/><path class="cls-1" d="M360.91,56.49v3.06a2.05,2.05,0,0,1-2.27,2h-2.3v-7.1h2.29A2.06,2.06,0,0,1,360.91,56.49Zm-1.55,0a.57.57,0,0,0-.62-.6h-.85v4.3h.84a.57.57,0,0,0,.63-.6Z"/><path class="cls-1" d="M363.37,55.87v1.55h1.72v1.4h-1.72v1.35h2.12v1.4h-3.67v-7.1h3.67v1.4Z"/><rect class="cls-4" x="238.58" y="228.11" width="233.34" height="110.85"/><rect class="cls-5" x="335.75" y="219.11" width="38.99" height="18"/><path class="cls-1" d="M349.75,224.51v7.1h-1.36l-1.84-4v4H345.2v-7.1h1.35l1.84,4.06v-4.06Z"/><path class="cls-1" d="M350.68,229.74v-3.36c-.18-2.65,4.89-2.65,4.72,0v3.36C355.58,232.4,350.5,232.38,350.68,229.74Zm3.17,0v-3.4c.13-.8-1.75-.78-1.62,0v3.4C352.1,230.55,354,230.55,353.85,229.76Z"/><path class="cls-1" d="M360.91,226.53v3.06a2.05,2.05,0,0,1-2.27,2h-2.3v-7.1h2.29A2.06,2.06,0,0,1,360.91,226.53Zm-1.55,0a.57.57,0,0,0-.62-.6h-.85v4.3h.84a.57.57,0,0,0,.63-.6Z"/><path class="cls-1" d="M363.37,225.91v1.55h1.72v1.4h-1.72v1.35h2.12v1.4h-3.67v-7.1h3.67v1.4Z"/><polyline class="cls-3" points="220.42 194.22 420.84 194.22 420.84 190.85"/><polyline class="cls-6" points="220.42 200.76 420.84 200.76 420.84 204.75"/><rect class="cls-4" x="117.81" y="38.25" width="102.62" height="166.06"/><rect class="cls-5" x="132.58" y="29.25" width="72.07" height="18"/><path class="cls-1" d="M145.38,36.05v1.8h1.82v1.4h-1.82v2.5h-1.55v-7.1h3.67v1.4Z"/><path class="cls-1" d="M152.46,39.16V40a2.13,2.13,0,0,1-4.24,0v-.64h1.55v.75c0,.3.2.48.57.48s.57-.18.57-.48v-1c0-.28-.13-.45-.34-.45h-2.16v-4h3.77v1.4H150v1.19h.63A1.83,1.83,0,0,1,152.46,39.16Z"/><path class="cls-1" d="M155.38,39.65v-.28h1.55v.44a.74.74,0,0,0,.83.73.68.68,0,0,0,.72-.69c0-1.27-3-1-3-3.27a2,2,0,0,1,2.22-2.08,1.93,1.93,0,0,1,2.2,2v.44h-1.54v-.54c0-.31-.3-.49-.67-.49a.59.59,0,0,0-.65.6c0,1,3,.79,3,3.21a2.1,2.1,0,0,1-2.31,2.19A2.15,2.15,0,0,1,155.38,39.65Z"/><path class="cls-1" d="M162.47,36.05V37.6h1.72V39h-1.72v1.35h2.12v1.4h-3.67v-7.1h3.67v1.4Z"/><path class="cls-1" d="M167.71,39.19H167v2.56h-1.55v-7.1h2.36a1.94,1.94,0,0,1,2.11,1.94v.66a1.86,1.86,0,0,1-.71,1.5l.92,3h-1.61Zm-.74-1.4h.91a.44.44,0,0,0,.47-.47v-.8a.43.43,0,0,0-.46-.47H167Z"/><path class="cls-1" d="M175.56,34.65l-1.5,7.1h-2l-1.48-7.1h1.55l.95,4.87,1-4.87Z"/><path class="cls-1" d="M176.36,34.65h1.55v7.1h-1.55Z"/><path class="cls-1" d="M178.83,39.88V36.52a2.37,2.37,0,0,1,4.69,0v.89H182V36.5c0-.36-.26-.6-.77-.6s-.8.24-.8.6v3.4c0,.36.27.6.79.6s.78-.24.78-.6V39h1.57v.89a2.37,2.37,0,0,1-4.69,0Z"/><path class="cls-1" d="M186,36.05V37.6h1.71V39H186v1.35h2.11v1.4h-3.66v-7.1h3.66v1.4Z"/><path class="cls-1" d="M188.85,39.65v-.28h1.54v.44a.74.74,0,0,0,.83.73.68.68,0,0,0,.72-.69c0-1.27-3-1-3-3.27a2,2,0,0,1,2.21-2.08,1.94,1.94,0,0,1,2.21,2v.44h-1.55v-.54c0-.31-.3-.49-.67-.49a.58.58,0,0,0-.64.6c0,1,3,.79,3,3.21a2.1,2.1,0,0,1-2.31,2.19A2.15,2.15,0,0,1,188.85,39.65Z"/><path class="cls-7" d="M157.8,102.05h3.26a1.85,1.85,0,0,1,2.06,1.87,1.67,1.67,0,0,1-1.29,1.68,1.82,1.82,0,0,1,1.43,1.8,1.91,1.91,0,0,1-2.12,2H157.8Zm3.11,3.18a1.14,1.14,0,0,0,1.26-1.18,1.15,1.15,0,0,0-1.26-1.19h-2.2v2.37Zm0,3.34a1.22,1.22,0,0,0,1.37-1.27A1.24,1.24,0,0,0,161,106h-2.24v2.53Z"/><path class="cls-7" d="M164.43,102.66a.56.56,0,1,1,1.11,0,.56.56,0,0,1-1.11,0Zm.14,1.41h.83v5.31h-.83Z"/><path class="cls-7" d="M167.34,110.13a2,2,0,0,0,1.73.73,1.53,1.53,0,0,0,1.71-1.6v-.76a2.24,2.24,0,0,1-1.79,1c-1.38,0-2.36-1-2.36-2.75s1-2.76,2.36-2.76a2.21,2.21,0,0,1,1.79.93v-.8h.82v5.16c0,1.76-1.23,2.31-2.53,2.31a2.72,2.72,0,0,1-2.14-.79Zm3.44-4.6a2,2,0,0,0-1.59-.86c-1.07,0-1.7.85-1.7,2s.63,2,1.7,2a2,2,0,0,0,1.59-.87Z"/><path class="cls-7" d="M175.9,102.05h.92v7.33h-.92Z"/><path class="cls-7" d="M178.42,102.05h3a2.21,2.21,0,1,1,0,4.42h-2v2.91h-.91Zm2.84.81h-1.93v2.79h1.93a1.4,1.4,0,1,0,0-2.79Z"/><path class="cls-7" d="M140.78,174.49h4.81v.81H141.7v2.37h3.81v.81H141.7v3.35h-.92Z"/><path class="cls-7" d="M147.15,180.18a2.43,2.43,0,0,0,2,1,1.59,1.59,0,0,0,1.69-1.58,1.54,1.54,0,0,0-1.68-1.58,2.33,2.33,0,0,0-1.7.69l-.67-.23v-4h4.49v.81h-3.58v2.56a2.47,2.47,0,0,1,1.72-.66,2.24,2.24,0,0,1,2.33,2.34,2.4,2.4,0,0,1-2.6,2.42,3,3,0,0,1-2.59-1.18Z"/><path class="cls-7" d="M155.53,178.16a3.66,3.66,0,0,1,3.74-3.79,3.31,3.31,0,0,1,2.82,1.45l-.77.43a2.49,2.49,0,0,0-2-1.07,3,3,0,0,0,0,6,2.47,2.47,0,0,0,2-1.07l.78.43a3.36,3.36,0,0,1-2.83,1.45A3.66,3.66,0,0,1,155.53,178.16Z"/><path class="cls-7" d="M162.81,179.17c-.19-3.63,5.46-3.63,5.26,0C168.26,182.8,162.62,182.8,162.81,179.17Zm4.39,0a1.78,1.78,0,1,0-3.53,0A1.78,1.78,0,1,0,167.2,179.17Z"/><path class="cls-7" d="M172.89,178.35c0-.93-.47-1.23-1.19-1.23a2.07,2.07,0,0,0-1.57.82v3.89h-.83v-5.32h.83v.77a2.63,2.63,0,0,1,1.89-.9,1.52,1.52,0,0,1,1.7,1.72v3.73h-.83Z"/><path class="cls-7" d="M175.42,180.72v-3.48h-.88v-.73h.88v-1.45h.83v1.45h1.07v.73h-1.07v3.3c0,.4.17.68.54.68a.8.8,0,0,0,.56-.22l.24.62a1.35,1.35,0,0,1-1,.34A1.09,1.09,0,0,1,175.42,180.72Z"/><path class="cls-7" d="M181.7,181.22a2.27,2.27,0,0,1-1.76.74,1.77,1.77,0,0,1-1.86-1.76,1.74,1.74,0,0,1,1.86-1.75,2.2,2.2,0,0,1,1.76.73v-1c0-.72-.57-1.12-1.34-1.12a2.13,2.13,0,0,0-1.63.73l-.38-.57a2.78,2.78,0,0,1,2.12-.88c1.12,0,2.06.51,2.06,1.8v3.65h-.83Zm0-1.52a1.78,1.78,0,0,0-1.46-.66,1.17,1.17,0,1,0,0,2.33,1.78,1.78,0,0,0,1.46-.66Z"/><path class="cls-7" d="M183.92,175.11a.56.56,0,1,1,1.12,0,.56.56,0,0,1-1.12,0Zm.15,1.4h.82v5.32h-.82Z"/><path class="cls-7" d="M190,178.35c0-.93-.48-1.23-1.19-1.23a2.05,2.05,0,0,0-1.57.82v3.89h-.83v-5.32h.83v.77a2.63,2.63,0,0,1,1.89-.9,1.51,1.51,0,0,1,1.69,1.72v3.73H190Z"/><path class="cls-7" d="M194.69,176.38a2.59,2.59,0,0,1,2.56,2.85v.21h-4.31a1.88,1.88,0,0,0,1.92,1.84,2.33,2.33,0,0,0,1.64-.67l.39.54a2.9,2.9,0,0,1-2.11.81,2.64,2.64,0,0,1-2.71-2.79A2.66,2.66,0,0,1,194.69,176.38Zm-1.75,2.46h3.49a1.73,1.73,0,0,0-1.75-1.78A1.78,1.78,0,0,0,192.94,178.84Z"/><path class="cls-7" d="M198.46,176.51h.83v.86a2.27,2.27,0,0,1,1.77-1v.85a1.61,1.61,0,0,0-.33,0,2,2,0,0,0-1.44.85v3.76h-.83Z"/><path class="cls-7" d="M132.89,185.49h.91v7.34h-.91Z"/><path class="cls-7" d="M139,189.35c0-.93-.47-1.23-1.19-1.23a2.07,2.07,0,0,0-1.57.82v3.89h-.83v-5.32h.83v.77a2.63,2.63,0,0,1,1.89-.9,1.52,1.52,0,0,1,1.7,1.72v3.73H139Z"/><path class="cls-7" d="M141.73,193.58a2.05,2.05,0,0,0,1.73.72,1.52,1.52,0,0,0,1.71-1.59V192a2.23,2.23,0,0,1-1.79.94c-1.38,0-2.36-1-2.36-2.75s1-2.76,2.36-2.76a2.2,2.2,0,0,1,1.79.94v-.81H146v5.16c0,1.76-1.23,2.31-2.53,2.31a2.72,2.72,0,0,1-2.15-.79Zm3.44-4.6a2,2,0,0,0-1.59-.86c-1.07,0-1.7.85-1.7,2s.63,2,1.7,2a2,2,0,0,0,1.59-.87Z"/><path class="cls-7" d="M147.53,187.51h.83v.86a2.24,2.24,0,0,1,1.77-1v.85a1.61,1.61,0,0,0-.33,0,1.93,1.93,0,0,0-1.44.85v3.76h-.83Z"/><path class="cls-7" d="M153.36,187.38a2.58,2.58,0,0,1,2.55,2.85v.21h-4.3a1.88,1.88,0,0,0,1.92,1.84,2.33,2.33,0,0,0,1.64-.67l.39.54a2.91,2.91,0,0,1-2.11.81,2.63,2.63,0,0,1-2.71-2.79A2.66,2.66,0,0,1,153.36,187.38Zm-1.75,2.46h3.49a1.73,1.73,0,0,0-1.75-1.78A1.78,1.78,0,0,0,151.61,189.84Z"/><path class="cls-7" d="M157.1,191.53a2.39,2.39,0,0,0,1.75.76c.81,0,1.25-.36,1.25-.88s-.64-.77-1.36-.95c-.9-.21-1.93-.45-1.93-1.55,0-.82.72-1.53,2-1.53a2.68,2.68,0,0,1,2,.77l-.38.57a2.09,2.09,0,0,0-1.59-.67c-.72,0-1.17.33-1.17.81s.6.68,1.3.84c.92.21,2,.48,2,1.65,0,.89-.72,1.61-2.09,1.61a2.81,2.81,0,0,1-2.15-.84Z"/><path class="cls-7" d="M162.1,191.53a2.42,2.42,0,0,0,1.75.76c.82,0,1.26-.36,1.26-.88s-.65-.77-1.37-.95c-.9-.21-1.92-.45-1.92-1.55,0-.82.71-1.53,2-1.53a2.69,2.69,0,0,1,2,.77l-.39.57a2.08,2.08,0,0,0-1.58-.67c-.73,0-1.18.33-1.18.81s.61.68,1.3.84c.92.21,2,.48,2,1.65,0,.89-.71,1.61-2.09,1.61a2.77,2.77,0,0,1-2.14-.84Z"/><path class="cls-7" d="M170,191.1a3.12,3.12,0,0,0,2.31,1.05c1.31,0,1.73-.71,1.73-1.27,0-.88-.89-1.12-1.86-1.39-1.18-.3-2.49-.63-2.49-2.08,0-1.21,1.08-2,2.52-2a3.43,3.43,0,0,1,2.61,1l-.55.67a2.82,2.82,0,0,0-2.12-.88c-.88,0-1.51.48-1.51,1.17s.85,1,1.78,1.21c1.2.32,2.57.69,2.57,2.23,0,1.07-.73,2.16-2.71,2.16a3.62,3.62,0,0,1-2.82-1.17Z"/><path class="cls-7" d="M178.52,187.38a2.59,2.59,0,0,1,2.55,2.85v.21h-4.3a1.87,1.87,0,0,0,1.91,1.84,2.31,2.31,0,0,0,1.64-.67l.4.54a2.94,2.94,0,0,1-2.12.81,2.63,2.63,0,0,1-2.7-2.79A2.66,2.66,0,0,1,178.52,187.38Zm-1.75,2.46h3.48a1.72,1.72,0,0,0-1.74-1.78A1.77,1.77,0,0,0,176.77,189.84Z"/><path class="cls-7" d="M182.29,187.51h.82v.86a2.27,2.27,0,0,1,1.77-1v.85a1.48,1.48,0,0,0-.33,0,2,2,0,0,0-1.44.85v3.76h-.82Z"/><path class="cls-7" d="M185,187.51h.89l1.77,4.36,1.76-4.36h.9l-2.21,5.32h-.9Z"/><path class="cls-7" d="M191,186.11a.57.57,0,0,1,.55-.57.57.57,0,0,1,.56.57.56.56,0,0,1-.56.55A.55.55,0,0,1,191,186.11Zm.14,1.4h.82v5.32h-.82Z"/><path class="cls-7" d="M195.8,187.38a2.25,2.25,0,0,1,1.94.93l-.55.5a1.57,1.57,0,0,0-1.35-.69,2.06,2.06,0,0,0,0,4.1,1.6,1.6,0,0,0,1.35-.69l.55.51a2.27,2.27,0,0,1-1.94.92,2.79,2.79,0,0,1,0-5.58Z"/><path class="cls-7" d="M201.1,187.38a2.58,2.58,0,0,1,2.55,2.85v.21h-4.3a1.88,1.88,0,0,0,1.91,1.84,2.3,2.3,0,0,0,1.64-.67l.4.54a2.91,2.91,0,0,1-2.11.81,2.63,2.63,0,0,1-2.71-2.79A2.66,2.66,0,0,1,201.1,187.38Zm-1.75,2.46h3.49a1.73,1.73,0,0,0-1.75-1.78A1.78,1.78,0,0,0,199.35,189.84Z"/><path class="cls-7" d="M204.84,191.53a2.39,2.39,0,0,0,1.75.76c.81,0,1.25-.36,1.25-.88s-.65-.77-1.36-.95c-.9-.21-1.93-.45-1.93-1.55,0-.82.72-1.53,2-1.53a2.68,2.68,0,0,1,2,.77l-.38.57a2.11,2.11,0,0,0-1.59-.67c-.72,0-1.17.33-1.17.81s.6.68,1.29.84c.93.21,2,.48,2,1.65,0,.89-.72,1.61-2.1,1.61a2.8,2.8,0,0,1-2.14-.84Z"/><polygon class="cls-8" points="174.51 153.29 179.88 158.66 185.32 153.23 190.36 148.19 191.1 147.45 171.29 127.65 170.56 128.38 165.52 133.42 160.08 138.86 165.46 144.24 168.97 140.73 178.01 149.78 174.51 153.29"/><polygon class="cls-8" points="178.25 160.3 171.16 153.21 174.59 149.78 168.94 144.13 165.51 147.56 158.44 140.49 150.1 148.84 169.9 168.65 178.25 160.3"/><line class="cls-8" x1="303.55" y1="86" x2="303.55" y2="90.42"/><line class="cls-8" x1="299.1" y1="86" x2="299.1" y2="90.42"/><line class="cls-8" x1="294.66" y1="86" x2="294.66" y2="90.42"/><path d="M270.2,87.48a.73.73,0,0,1,.74.73.74.74,0,0,1-1.48,0,.73.73,0,0,1,.74-.73m0-1a1.74,1.74,0,1,0,1.74,1.73,1.73,1.73,0,0,0-1.74-1.73Z"/><rect class="cls-9" x="266.5" y="84.53" width="41.5" height="7.35" rx="2.95"/><rect class="cls-9" x="251.27" y="74.54" width="71.95" height="78.94"/><line class="cls-2" x1="311.21" y1="111.49" x2="399.08" y2="111.49"/><line class="cls-2" x1="298.18" y1="133.51" x2="399.08" y2="133.51"/><line class="cls-8" x1="303.55" y1="255.77" x2="303.55" y2="260.18"/><line class="cls-8" x1="299.1" y1="255.77" x2="299.1" y2="260.18"/><line class="cls-8" x1="294.66" y1="255.77" x2="294.66" y2="260.18"/><path d="M270.2,257.24a.74.74,0,0,1,.74.74.74.74,0,0,1-1.48,0,.74.74,0,0,1,.74-.74m0-1a1.74,1.74,0,1,0,1.74,1.74,1.74,1.74,0,0,0-1.74-1.74Z"/><rect class="cls-9" x="266.5" y="254.3" width="41.5" height="7.35" rx="2.95"/><rect class="cls-9" x="251.27" y="244.31" width="71.95" height="78.94"/><line class="cls-2" x1="297.18" y1="279.26" x2="398.42" y2="279.26"/><text class="cls-10" transform="translate(159.04 284.55)">Intel<tspan x="-12.46" y="11">SmartNIC</tspan></text><polyline class="cls-9" points="151.38 242.52 187.25 242.52 187.25 269.13 162.92 269.13 162.92 265.95 156.38 265.95 156.38 269.04 151.29 269.04"/><polyline class="cls-9" points="151.38 250.79 157.28 250.79 157.28 258.42 151.39 258.42"/><line class="cls-9" x1="173.14" y1="247.96" x2="173.14" y2="250.23"/><line class="cls-9" x1="176.14" y1="247.96" x2="176.14" y2="250.23"/><line class="cls-9" x1="179.14" y1="247.96" x2="179.14" y2="250.23"/><line class="cls-9" x1="173.13" y1="260.45" x2="173.13" y2="262.72"/><line class="cls-9" x1="176.13" y1="260.45" x2="176.13" y2="262.72"/><line class="cls-9" x1="179.13" y1="260.45" x2="179.13" y2="262.72"/><line class="cls-9" x1="170.95" y1="252.38" x2="168.68" y2="252.38"/><line class="cls-9" x1="170.95" y1="255.37" x2="168.68" y2="255.37"/><line class="cls-9" x1="170.95" y1="258.37" x2="168.68" y2="258.37"/><line class="cls-9" x1="183.48" y1="252.38" x2="181.21" y2="252.38"/><line class="cls-9" x1="183.48" y1="255.37" x2="181.21" y2="255.37"/><line class="cls-9" x1="183.48" y1="258.37" x2="181.21" y2="258.37"/><path class="cls-9" d="M146.77,238.21h3.14a1.78,1.78,0,0,1,1.15.55,2.83,2.83,0,0,1,.28,1.49v33.51"/><rect class="cls-9" x="170.95" y="250.2" width="10.26" height="10.26"/><polygon class="cls-11" points="398.39 266.53 398.39 291.46 419.95 303.93 441.51 291.46 441.51 266.53 419.95 254.06 398.39 266.53"/><path d="M400,307.65h.92V315H400Z"/><path d="M406.09,311.51c0-.93-.48-1.23-1.19-1.23a2.05,2.05,0,0,0-1.57.82V315h-.83v-5.32h.83v.77a2.63,2.63,0,0,1,1.89-.9,1.51,1.51,0,0,1,1.69,1.72V315h-.82Z"/><path d="M408.62,313.88V310.4h-.88v-.73h.88v-1.45h.82v1.45h1.08v.73h-1.08v3.3c0,.4.18.68.54.68a.8.8,0,0,0,.56-.22l.24.62a1.33,1.33,0,0,1-1,.34A1.08,1.08,0,0,1,408.62,313.88Z"/><path d="M413.88,309.54a2.59,2.59,0,0,1,2.56,2.85v.21h-4.3a1.87,1.87,0,0,0,1.91,1.84,2.31,2.31,0,0,0,1.64-.67l.4.54a2.94,2.94,0,0,1-2.12.81,2.63,2.63,0,0,1-2.7-2.79A2.66,2.66,0,0,1,413.88,309.54ZM412.14,312h3.48a1.73,1.73,0,0,0-1.75-1.78A1.77,1.77,0,0,0,412.14,312Z"/><path d="M417.66,307.65h.82V315h-.82Z"/><path d="M428.77,314l.69.75-.64.55-.7-.76c-5.46,3.25-8.23-6.92-2-7C429.47,307.35,430.89,311.84,428.77,314Zm-1.24-.1-1-1.13.64-.54,1,1.11c1.44-1.71.47-5.17-2-5C421.62,308.38,423.39,316.28,427.53,313.93Z"/><path d="M435.3,313.36h-3.72l-.64,1.63h-1l2.95-7.34H434l3,7.34h-1Zm-3.45-.81H435l-1.59-4.09Z"/><path d="M438.89,308.46h-2.32v-.81h5.56v.81H439.8V315h-.91Z"/><path d="M411.44,324.26a3.08,3.08,0,0,0,2.31,1.05c1.31,0,1.72-.71,1.72-1.27,0-.88-.89-1.12-1.85-1.39-1.18-.3-2.49-.63-2.49-2.08,0-1.21,1.08-2,2.52-2a3.46,3.46,0,0,1,2.61,1l-.55.67a2.83,2.83,0,0,0-2.13-.88c-.88,0-1.5.48-1.5,1.17s.84,1,1.78,1.21c1.2.32,2.56.69,2.56,2.23,0,1.07-.72,2.16-2.71,2.16A3.6,3.6,0,0,1,410.9,325Z"/><path d="M416.92,318.65h1l2.48,6.34,2.47-6.34h1L421,326h-1.14Z"/><path d="M424.29,322.32a3.66,3.66,0,0,1,3.74-3.79,3.3,3.3,0,0,1,2.81,1.45l-.77.43a2.49,2.49,0,0,0-2-1.07,3,3,0,0,0,0,6,2.46,2.46,0,0,0,2-1.07l.78.43a3.33,3.33,0,0,1-2.82,1.45A3.66,3.66,0,0,1,424.29,322.32Z"/><rect class="cls-12" x="408.79" y="267.9" width="22.39" height="22.27"/><rect class="cls-12" x="413.01" y="272.1" width="13.95" height="13.88"/><line class="cls-12" x1="431.16" y1="287.95" x2="434.2" y2="287.95"/><line class="cls-12" x1="431.16" y1="284.33" x2="434.2" y2="284.33"/><line class="cls-12" x1="431.16" y1="280.71" x2="434.2" y2="280.71"/><line class="cls-12" x1="431.16" y1="277.1" x2="434.2" y2="277.1"/><line class="cls-12" x1="431.16" y1="273.48" x2="434.2" y2="273.48"/><line class="cls-12" x1="431.16" y1="269.87" x2="434.2" y2="269.87"/><line class="cls-12" x1="405.7" y1="287.95" x2="408.74" y2="287.95"/><line class="cls-12" x1="405.7" y1="284.33" x2="408.74" y2="284.33"/><line class="cls-12" x1="405.7" y1="280.71" x2="408.74" y2="280.71"/><line class="cls-12" x1="405.7" y1="277.1" x2="408.74" y2="277.1"/><line class="cls-12" x1="405.7" y1="273.48" x2="408.74" y2="273.48"/><line class="cls-12" x1="405.7" y1="269.87" x2="408.74" y2="269.87"/><line class="cls-12" x1="429.04" y1="267.77" x2="429.04" y2="264.74"/><line class="cls-12" x1="425.4" y1="267.77" x2="425.4" y2="264.74"/><line class="cls-12" x1="421.77" y1="267.77" x2="421.77" y2="264.74"/><line class="cls-12" x1="418.13" y1="267.77" x2="418.13" y2="264.74"/><line class="cls-12" x1="414.49" y1="267.77" x2="414.49" y2="264.74"/><line class="cls-12" x1="410.86" y1="267.77" x2="410.86" y2="264.74"/><line class="cls-12" x1="429.04" y1="293.24" x2="429.04" y2="290.22"/><line class="cls-12" x1="425.4" y1="293.24" x2="425.4" y2="290.22"/><line class="cls-12" x1="421.77" y1="293.24" x2="421.77" y2="290.22"/><line class="cls-12" x1="418.13" y1="293.24" x2="418.13" y2="290.22"/><line class="cls-12" x1="414.49" y1="293.24" x2="414.49" y2="290.22"/><line class="cls-12" x1="410.86" y1="293.24" x2="410.86" y2="290.22"/><circle class="cls-13" cx="168.86" cy="217.75" r="5.85"/><line class="cls-14" x1="171.53" y1="214.49" x2="166.25" y2="221.01"/><line class="cls-14" x1="166.14" y1="214.49" x2="171.42" y2="221.01"/><path d="M21.09,125.5H22V132h3.41v.82H21.09Z"/><path d="M28.86,127.39a2.59,2.59,0,0,1,2.55,2.85v.21h-4.3A1.87,1.87,0,0,0,29,132.29a2.31,2.31,0,0,0,1.64-.67l.4.54A2.93,2.93,0,0,1,29,133a2.63,2.63,0,0,1-2.71-2.79A2.66,2.66,0,0,1,28.86,127.39Zm-1.75,2.46h3.48a1.72,1.72,0,0,0-1.74-1.78A1.77,1.77,0,0,0,27.11,129.85Z"/><path d="M33.26,133.59a2,2,0,0,0,1.72.72,1.52,1.52,0,0,0,1.71-1.59V132a2.23,2.23,0,0,1-1.78.94c-1.39,0-2.37-1-2.37-2.75s1-2.76,2.37-2.76a2.19,2.19,0,0,1,1.78.94v-.81h.82v5.16c0,1.76-1.23,2.31-2.53,2.31a2.7,2.7,0,0,1-2.14-.79Zm3.43-4.6a2,2,0,0,0-1.58-.86c-1.07,0-1.71.85-1.71,2s.64,2,1.71,2a2,2,0,0,0,1.58-.87Z"/><path d="M39.13,126.12a.56.56,0,1,1,1.11,0,.56.56,0,0,1-1.11,0Zm.14,1.4h.83v5.32h-.83Z"/><path d="M42,131.73v-3.48h-.88v-.73H42v-1.45h.83v1.45h1.08v.73H42.85v3.3c0,.4.17.68.54.68A.8.8,0,0,0,44,132l.24.62a1.35,1.35,0,0,1-1,.34A1.09,1.09,0,0,1,42,131.73Z"/><path d="M45.06,126.12a.56.56,0,1,1,1.11,0,.56.56,0,0,1-1.11,0Zm.14,1.4H46v5.32H45.2Z"/><path d="M54.2,129.23c0-.67-.3-1.1-1-1.1a1.89,1.89,0,0,0-1.41.81v3.9H51v-3.61c0-.67-.29-1.1-1-1.1a1.89,1.89,0,0,0-1.4.82v3.89h-.82v-5.32h.82v.77a2.31,2.31,0,0,1,1.72-.9,1.36,1.36,0,0,1,1.43,1,2.25,2.25,0,0,1,1.78-1c1,0,1.49.54,1.49,1.61v3.84H54.2Z"/><path d="M60.11,132.23a2.29,2.29,0,0,1-1.76.74,1.77,1.77,0,0,1-1.86-1.76,1.74,1.74,0,0,1,1.86-1.75,2.22,2.22,0,0,1,1.76.73v-1c0-.72-.57-1.12-1.34-1.12a2.12,2.12,0,0,0-1.63.73l-.39-.57a2.81,2.81,0,0,1,2.13-.88c1.12,0,2,.51,2,1.8v3.65h-.82Zm0-1.52a1.79,1.79,0,0,0-1.47-.66,1.17,1.17,0,1,0,0,2.33,1.79,1.79,0,0,0,1.47-.66Z"/><path d="M62.86,131.73v-3.48H62v-.73h.88v-1.45h.82v1.45h1.08v.73H63.68v3.3c0,.4.18.68.54.68a.8.8,0,0,0,.56-.22l.24.62a1.31,1.31,0,0,1-1,.34A1.08,1.08,0,0,1,62.86,131.73Z"/><path d="M68.35,127.39a2.59,2.59,0,0,1,2.55,2.85v.21H66.6a1.87,1.87,0,0,0,1.91,1.84,2.31,2.31,0,0,0,1.64-.67l.4.54a2.93,2.93,0,0,1-2.11.81,2.63,2.63,0,0,1-2.71-2.79A2.66,2.66,0,0,1,68.35,127.39Zm-1.75,2.46h3.48a1.72,1.72,0,0,0-1.74-1.78A1.77,1.77,0,0,0,66.6,129.85Z"/><path d="M32.58,136.5h.91V141a2.08,2.08,0,1,0,4.16,0V136.5h.91V141a2.72,2.72,0,0,1-3,3,2.72,2.72,0,0,1-3-3Z"/><path d="M40.32,142.54a2.42,2.42,0,0,0,1.75.76c.82,0,1.26-.36,1.26-.88s-.65-.77-1.37-.95c-.9-.21-1.92-.45-1.92-1.55,0-.82.71-1.53,2-1.53a2.69,2.69,0,0,1,2,.77l-.39.57a2.08,2.08,0,0,0-1.58-.67c-.73,0-1.18.33-1.18.81s.61.68,1.3.84c.92.21,2,.48,2,1.65,0,.89-.71,1.61-2.09,1.61a2.81,2.81,0,0,1-2.15-.84Z"/><path d="M47.89,138.39a2.59,2.59,0,0,1,2.56,2.85v.21H46.14a1.88,1.88,0,0,0,1.92,1.84,2.33,2.33,0,0,0,1.64-.67l.39.54A2.91,2.91,0,0,1,48,144a2.64,2.64,0,0,1-2.71-2.79A2.66,2.66,0,0,1,47.89,138.39Zm-1.75,2.46h3.49a1.73,1.73,0,0,0-1.75-1.78A1.78,1.78,0,0,0,46.14,140.85Z"/><path d="M51.88,138.52h.83v.86a2.26,2.26,0,0,1,1.77-1v.85a1.61,1.61,0,0,0-.33,0,2,2,0,0,0-1.44.84v3.77h-.83Z"/><path d="M55.59,142.54a2.41,2.41,0,0,0,1.75.76c.81,0,1.25-.36,1.25-.88s-.64-.77-1.36-.95c-.9-.21-1.93-.45-1.93-1.55,0-.82.72-1.53,2-1.53a2.65,2.65,0,0,1,2,.77l-.38.57a2.08,2.08,0,0,0-1.58-.67c-.73,0-1.18.33-1.18.81s.6.68,1.3.84c.92.21,2,.48,2,1.65,0,.89-.72,1.61-2.09,1.61a2.81,2.81,0,0,1-2.15-.84Z"/><circle class="cls-15" cx="45.82" cy="102.05" r="18"/><g id="user"><ellipse class="cls-8" cx="45.82" cy="93.94" rx="5.07" ry="5.07"/><path class="cls-8" d="M36.7,113.22v-8.11A6.08,6.08,0,0,1,42.78,99h6.08a6.08,6.08,0,0,1,6.08,6.09v8.11"/></g><circle class="cls-15" cx="45.63" cy="191.21" r="18"/><g id="skull"><path class="cls-8" d="M40.43,202.68v-4.17s-7.58,0-6.36-9.41a11.89,11.89,0,0,1,7.58-9.59,10.23,10.23,0,0,1,8,0,11.9,11.9,0,0,1,7.57,9.59c1.22,9.42-6.37,9.41-6.37,9.41v4.17M40.65,186.82a3.78,3.78,0,0,0,0,7.48,3.78,3.78,0,0,0,0-7.48Zm9.87,0a3.78,3.78,0,0,0,0,7.48,3.78,3.78,0,0,0,0-7.48Zm-7,16.91v-4.17m4.16,0v4.17m-2.12-9.85c-.47,0-1.61,1.66-1.61,2.17a1,1,0,0,0,1,1.08.91.91,0,0,0,.67-.3.87.87,0,0,0,.66.3,1,1,0,0,0,1-1.08C47.23,195.53,46.07,193.88,45.59,193.88Z"/></g><path d="M29.81,216.42l-2.5,6.11h-.37l-2.49-6.11v6.11h-.91v-7.34h1.31l2.27,5.59,2.29-5.59h1.31v7.34h-.91Z"/><path d="M35.83,221.92a2.27,2.27,0,0,1-1.76.74,1.77,1.77,0,0,1-1.86-1.76,1.74,1.74,0,0,1,1.86-1.75,2.19,2.19,0,0,1,1.76.73v-1c0-.72-.57-1.12-1.34-1.12a2.13,2.13,0,0,0-1.63.73l-.38-.57a2.78,2.78,0,0,1,2.12-.88c1.12,0,2.06.51,2.06,1.8v3.65h-.83Zm0-1.52a1.75,1.75,0,0,0-1.46-.66,1.17,1.17,0,1,0,0,2.33,1.75,1.75,0,0,0,1.46-.66Z"/><path d="M38.42,215.19h.82v7.34h-.82Z"/><path d="M40.86,215.81a.56.56,0,1,1,1.11,0,.56.56,0,0,1-1.11,0Zm.14,1.4h.83v5.32H41Z"/><path d="M45.93,217.08a2.28,2.28,0,0,1,2,.93l-.55.5a1.57,1.57,0,0,0-1.35-.69,2.06,2.06,0,0,0,0,4.1,1.6,1.6,0,0,0,1.35-.69l.55.51a2.3,2.3,0,0,1-2,.92,2.79,2.79,0,0,1,0-5.58Z"/><path d="M49,215.81a.56.56,0,1,1,1.11,0,.56.56,0,0,1-1.11,0Zm.14,1.4H50v5.32h-.83Z"/><path d="M51.42,219.87c-.19-3.63,5.45-3.63,5.26,0C56.87,223.5,51.23,223.5,51.42,219.87Zm4.39,0a1.78,1.78,0,1,0-3.53,0A1.78,1.78,0,1,0,55.81,219.87Z"/><path d="M61.72,221.78a2.61,2.61,0,0,1-1.89.88,1.5,1.5,0,0,1-1.7-1.7v-3.75H59v3.5c0,.94.47,1.21,1.18,1.21a2,2,0,0,0,1.58-.8v-3.91h.82v5.32h-.82Z"/><path d="M64.27,221.23A2.39,2.39,0,0,0,66,222c.81,0,1.25-.37,1.25-.88s-.65-.77-1.36-1C65,220,64,219.71,64,218.61c0-.82.72-1.53,2-1.53a2.68,2.68,0,0,1,2,.77l-.38.57a2.09,2.09,0,0,0-1.59-.67c-.72,0-1.17.33-1.17.81s.6.68,1.29.84c.93.21,2,.48,2,1.65,0,.9-.72,1.61-2.09,1.61a2.81,2.81,0,0,1-2.15-.84Z"/><path d="M28.09,231.9H24.37l-.65,1.63h-1l2.95-7.34h1.13l3,7.34h-1Zm-3.45-.81h3.18L26.23,227Z"/><path d="M30.83,232.42v-3.48H30v-.73h.88v-1.45h.82v1.45h1.08v.73H31.65v3.3c0,.4.18.68.54.68a.8.8,0,0,0,.56-.22l.25.62a1.35,1.35,0,0,1-1,.34A1.09,1.09,0,0,1,30.83,232.42Z"/><path d="M34.17,232.42v-3.48h-.88v-.73h.88v-1.45H35v1.45h1.08v.73H35v3.3c0,.4.17.68.54.68a.8.8,0,0,0,.56-.22l.24.62a1.35,1.35,0,0,1-1,.34A1.09,1.09,0,0,1,34.17,232.42Z"/><path d="M40.67,232.92a2.27,2.27,0,0,1-1.76.74,1.77,1.77,0,0,1-1.85-1.76,1.73,1.73,0,0,1,1.85-1.75,2.19,2.19,0,0,1,1.76.73v-1c0-.72-.57-1.12-1.34-1.12a2.11,2.11,0,0,0-1.62.73l-.39-.57a2.78,2.78,0,0,1,2.12-.88c1.12,0,2.06.51,2.06,1.79v3.66h-.83Zm0-1.52a1.77,1.77,0,0,0-1.46-.66,1.17,1.17,0,1,0,0,2.33,1.77,1.77,0,0,0,1.46-.66Z"/><path d="M45.6,228.08a2.28,2.28,0,0,1,1.95.93l-.55.5a1.57,1.57,0,0,0-1.35-.69,2.06,2.06,0,0,0,0,4.1,1.6,1.6,0,0,0,1.35-.69l.55.51a2.3,2.3,0,0,1-1.95.92,2.79,2.79,0,0,1,0-5.58Z"/><path d="M50.52,231.14l-.88.87v1.52h-.83v-7.34h.83V231l2.79-2.83h1l-2.36,2.41,2.37,2.91H52.43Z"/><path d="M56.63,228.08a2.59,2.59,0,0,1,2.56,2.85v.21h-4.3A1.87,1.87,0,0,0,56.8,233a2.31,2.31,0,0,0,1.64-.67l.4.54a2.94,2.94,0,0,1-2.12.81,2.63,2.63,0,0,1-2.7-2.8A2.66,2.66,0,0,1,56.63,228.08Zm-1.74,2.45h3.48a1.72,1.72,0,0,0-1.75-1.77A1.77,1.77,0,0,0,54.89,230.53Z"/><path d="M60.63,228.21h.82v.86a2.27,2.27,0,0,1,1.77-1V229a1.55,1.55,0,0,0-.33,0,2,2,0,0,0-1.44.85v3.76h-.82Z"/><path d="M64.33,232.23a2.42,2.42,0,0,0,1.75.76c.82,0,1.26-.37,1.26-.88s-.65-.77-1.37-1c-.9-.21-1.92-.45-1.92-1.55,0-.82.71-1.53,2-1.53a2.69,2.69,0,0,1,2,.77l-.39.57a2.08,2.08,0,0,0-1.58-.67c-.73,0-1.18.33-1.18.81s.61.68,1.3.84c.92.21,2,.48,2,1.65,0,.9-.71,1.61-2.09,1.61a2.77,2.77,0,0,1-2.14-.84Z"/><path d="M153.65,389.86h2.95a2.21,2.21,0,1,1,0,4.42h-2v2.92h-.91Zm2.84.81h-1.93v2.8h1.93a1.4,1.4,0,1,0,0-2.8Z"/><path d="M163.55,396.45a2.61,2.61,0,0,1-1.89.88,1.5,1.5,0,0,1-1.7-1.69v-3.75h.83v3.49c0,.94.47,1.21,1.19,1.21a2,2,0,0,0,1.57-.8v-3.9h.83v5.31h-.83Z"/><path d="M165.92,389.86h.82v2.83a2.22,2.22,0,0,1,1.79-.94c1.39,0,2.37,1.1,2.37,2.8s-1,2.78-2.37,2.78a2.24,2.24,0,0,1-1.79-.92v.79h-.82Zm2.4,6.73c1.08,0,1.72-.87,1.72-2s-.64-2.06-1.72-2.06a2,2,0,0,0-1.58.86v2.41A2,2,0,0,0,168.32,396.59Z"/><path d="M172.13,389.86H173v7.34h-.83Z"/><path d="M174.35,390.48a.56.56,0,1,1,1.11,0,.56.56,0,0,1-1.11,0Zm.15,1.41h.82v5.31h-.82Z"/><path d="M179.21,391.75a2.27,2.27,0,0,1,1.94.93l-.55.5a1.57,1.57,0,0,0-1.35-.69,2.06,2.06,0,0,0,0,4.1,1.6,1.6,0,0,0,1.35-.69l.55.51a2.27,2.27,0,0,1-1.94.92,2.79,2.79,0,0,1,0-5.58Z"/><path d="M153.62,404.54a3.66,3.66,0,0,1,3.74-3.8,3.3,3.3,0,0,1,2.82,1.45l-.77.43a2.49,2.49,0,0,0-2-1.07,3,3,0,0,0,0,6,2.47,2.47,0,0,0,2-1.07l.78.43a3.35,3.35,0,0,1-2.83,1.45A3.66,3.66,0,0,1,153.62,404.54Z"/><path d="M161.21,400.86H162v7.34h-.83Z"/><path d="M163.27,405.54c-.19-3.63,5.45-3.63,5.26,0C168.72,409.17,163.08,409.17,163.27,405.54Zm4.39,0a1.78,1.78,0,1,0-3.53,0A1.78,1.78,0,1,0,167.66,405.54Z"/><path d="M173.35,407.45a2.61,2.61,0,0,1-1.89.88,1.49,1.49,0,0,1-1.7-1.69v-3.75h.83v3.49c0,.94.47,1.21,1.18,1.21a2,2,0,0,0,1.58-.8v-3.9h.82v5.31h-.82Z"/><path d="M179.56,407.41a2.21,2.21,0,0,1-1.79.92c-1.39,0-2.37-1.05-2.37-2.78s1-2.8,2.37-2.8a2.24,2.24,0,0,1,1.79.94v-2.83h.83v7.34h-.83Zm0-3.06a2,2,0,0,0-1.59-.86c-1.07,0-1.71.88-1.71,2.06s.64,2,1.71,2a2,2,0,0,0,1.59-.83Z"/><path class="cls-16" d="M176.84,380.66H152.15a6.25,6.25,0,0,1,0-12.5h0a9.27,9.27,0,0,1,9.24-9.29,9.15,9.15,0,0,1,3.81.83,10.8,10.8,0,0,1,20.92,3.81,11,11,0,0,1-.37,2.83,7.81,7.81,0,0,1-4.26,14.32h-1.54"/><line class="cls-6" x1="168.77" y1="314.54" x2="168.77" y2="354.4"/><path d="M158.26,71.94h3.13a1.69,1.69,0,0,1,1.88,1.7,1.51,1.51,0,0,1-1.16,1.53,1.66,1.66,0,0,1,1.29,1.65,1.74,1.74,0,0,1-1.93,1.8h-3.21Zm2.94,2.83a1,1,0,1,0,0-2h-1.94v2Zm.05,3a1,1,0,0,0,1.12-1,1,1,0,0,0-1.12-1h-2v2.08Z"/><path d="M164.39,71.94h1v6.68h-1Z"/><path d="M169.81,71.83a3.14,3.14,0,0,1,2.64,1.32l-.81.47a2.3,2.3,0,0,0-1.83-.9,2.57,2.57,0,0,0,0,5.14,2.59,2.59,0,0,0,1.69-.66V76h-2.14v-.88h3.14v2.46a3.55,3.55,0,0,1-2.69,1.18,3.46,3.46,0,1,1,0-6.92Z"/><path d="M173.09,74.8h2.4v.78h-2.4Z"/><path d="M176.28,71.94h1v6.68h-1Z"/><path d="M178.52,71.94h2.81a2.06,2.06,0,1,1,0,4.11h-1.81v2.57h-1Zm2.68.88h-1.68v2.34h1.68a1.17,1.17,0,1,0,0-2.34Z"/><circle class="cls-9" cx="170.64" cy="75.35" r="19.5"/><g id="lock"><rect class="cls-17" x="416.34" y="212.55" width="9" height="7.88"/><path class="cls-17" d="M424.21,212.55V210.3a3.37,3.37,0,1,0-6.74,0v2.25"/></g><g id="lock-2" data-name="lock"><rect class="cls-18" x="416.34" y="180.99" width="9" height="7.88"/><path class="cls-18" d="M423.58,177.65l-.13-.48a3.37,3.37,0,1,0-6.53,1.64l.55,2.18"/></g><line class="cls-6" x1="420.84" y1="222.69" x2="420.84" y2="227.68"/><line class="cls-19" x1="420.84" y1="169.6" x2="420.84" y2="173.58"/><path d="M405.28,120.16v5.92h-.92v-7.34h.94l4.22,5.8v-5.8h.91v7.34h-.88Z"/><path d="M411.7,123.42c-.19-3.62,5.45-3.62,5.26,0C417.15,127.05,411.51,127.05,411.7,123.42Zm4.39,0a1.78,1.78,0,1,0-3.53,0A1.78,1.78,0,1,0,416.09,123.42Z"/><path d="M421.78,122.6c0-.93-.48-1.23-1.19-1.23a2.07,2.07,0,0,0-1.58.83v3.88h-.82v-5.31H419v.77a2.65,2.65,0,0,1,1.9-.9,1.51,1.51,0,0,1,1.69,1.71v3.73h-.82Z"/><path d="M426.45,120.64a2.57,2.57,0,0,1,2.55,2.85v.2h-4.3a1.87,1.87,0,0,0,1.92,1.84,2.29,2.29,0,0,0,1.63-.67l.4.54a2.87,2.87,0,0,1-2.11.81,2.79,2.79,0,0,1-.09-5.57Zm-1.75,2.45h3.49a1.72,1.72,0,0,0-1.75-1.77A1.78,1.78,0,0,0,424.7,123.09Z"/><polygon class="cls-20" points="416.85 102.21 400.11 110.27 395.98 128.38 407.56 142.9 426.13 142.9 437.72 128.38 433.58 110.27 416.85 102.21"/><polygon class="cls-8" points="301.52 101.56 293.86 105.25 291.97 113.54 297.27 120.18 305.77 120.18 311.07 113.54 309.18 105.25 301.52 101.56"/><polygon class="cls-8" points="301.52 105.63 297.04 107.78 295.93 112.64 299.03 116.53 304.01 116.53 307.11 112.64 306 107.78 301.52 105.63"/><polygon class="cls-8" points="274.86 101.56 267.2 105.25 265.31 113.54 270.61 120.18 279.11 120.18 284.41 113.54 282.52 105.25 274.86 101.56"/><polygon class="cls-8" points="274.86 105.63 270.38 107.78 269.27 112.64 272.37 116.53 277.35 116.53 280.45 112.64 279.34 107.78 274.86 105.63"/><polygon class="cls-8" points="288.48 120.84 280.82 124.53 278.93 132.81 284.23 139.46 292.73 139.46 298.03 132.81 296.14 124.53 288.48 120.84"/><polygon class="cls-8" points="288.48 124.9 284 127.06 282.89 131.91 285.99 135.8 290.97 135.8 294.07 131.91 292.96 127.06 288.48 124.9"/><polygon class="cls-8" points="286.7 267.79 279.04 271.48 277.15 279.77 282.45 286.41 290.95 286.41 296.25 279.77 294.36 271.48 286.7 267.79"/><polygon class="cls-8" points="286.7 271.85 282.22 274.01 281.11 278.86 284.21 282.75 289.19 282.75 292.29 278.86 291.18 274.01 286.7 271.85"/><polygon class="cls-8" points="286.7 291.04 279.04 294.73 277.15 303.01 282.45 309.66 290.95 309.66 296.25 303.01 294.36 294.73 286.7 291.04"/><polygon class="cls-8" points="286.7 295.1 282.22 297.26 281.11 302.11 284.21 306 289.19 306 292.29 302.11 291.18 297.26 286.7 295.1"/></g></g></svg>