<svg xmlns="http://www.w3.org/2000/svg" viewBox="0 0 840 500"><defs><style>.cls-1,.cls-18,.cls-3{fill:#fff;}.cls-2{fill:#f1f1f1;}.cls-13,.cls-18,.cls-2,.cls-9{stroke:#000;}.cls-10,.cls-11,.cls-13,.cls-16,.cls-17,.cls-18,.cls-2,.cls-6,.cls-9{stroke-linecap:round;}.cls-10,.cls-11,.cls-14,.cls-16,.cls-17,.cls-18,.cls-19,.cls-2,.cls-3,.cls-4,.cls-6,.cls-9{stroke-miterlimit:10;}.cls-19,.cls-3{stroke:#231f20;}.cls-10,.cls-11,.cls-13,.cls-14,.cls-16,.cls-17,.cls-19,.cls-4,.cls-6,.cls-9{fill:none;}.cls-4{stroke:#1db14b;}.cls-5{fill:#1db14b;}.cls-6{stroke:#343434;stroke-width:1.01px;}.cls-7{fill:#343434;}.cls-8{fill:#010101;}.cls-10,.cls-11,.cls-16,.cls-17{stroke:#999;}.cls-11{stroke-dasharray:3 3;}.cls-12{fill:#999;}.cls-13{stroke-linejoin:round;}.cls-14{stroke:#57ab56;}.cls-15{fill:#57ab56;}.cls-16{stroke-dasharray:2.77 2.77;}.cls-17{stroke-dasharray:2.95 2.95;}.cls-19{stroke-width:0.76px;}</style></defs><g id="Layer_2" data-name="Layer 2"><g id="Layer_1-2" data-name="Layer 1"><rect class="cls-1" width="840" height="500"/><polygon class="cls-2" points="384.87 398.32 23.77 398.32 23.77 32.88 816.23 32.88 816.23 398.32 454.06 398.32 384.87 398.32"/><polyline class="cls-3" points="314.7 381.09 45.58 381.09 45.58 64.09 392.62 64.09 392.62 312.52"/><polyline class="cls-3" points="524.75 381.09 794.42 381.09 794.42 64.09 447.38 64.09 447.38 312.52"/><line class="cls-4" x1="353.84" y1="190.1" x2="357.8" y2="310.33"/><polygon class="cls-5" points="349.86 193.54 350.62 194.2 353.85 190.48 357.33 193.98 358.04 193.27 353.8 189.01 349.86 193.54"/><polygon class="cls-5" points="353.61 307.16 354.32 306.45 357.79 309.95 361.03 306.23 361.78 306.89 357.84 311.42 353.61 307.16"/><line class="cls-6" x1="95.61" y1="189.43" x2="206.57" y2="265.38"/><polygon class="cls-7" points="96.03 194.73 97.02 194.51 95.92 189.65 100.85 188.91 100.7 187.91 94.7 188.81 96.03 194.73"/><polygon class="cls-7" points="201.47 266.9 201.32 265.9 206.25 265.16 205.15 260.31 206.14 260.08 207.47 266 201.47 266.9"/><line class="cls-6" x1="171.08" y1="189.81" x2="137.49" y2="265"/><polygon class="cls-7" points="165.95 191.18 166.34 192.11 170.92 190.17 172.53 194.88 173.49 194.55 171.53 188.81 165.95 191.18"/><polygon class="cls-7" points="135.09 260.26 136.04 259.93 137.65 264.64 142.23 262.7 142.63 263.63 137.04 266 135.09 260.26"/><line class="cls-6" x1="258.62" y1="189.43" x2="145.99" y2="265.39"/><polygon class="cls-7" points="253.54 187.87 253.38 188.87 258.3 189.64 257.17 194.49 258.15 194.72 259.53 188.81 253.54 187.87"/><polygon class="cls-7" points="146.46 260.09 147.44 260.32 146.31 265.17 151.23 265.94 151.07 266.94 145.08 266 146.46 260.09"/><line class="cls-6" x1="341.15" y1="189.4" x2="220.66" y2="265.42"/><polygon class="cls-7" points="336.12 187.69 335.93 188.68 340.82 189.6 339.55 194.42 340.52 194.67 342.07 188.81 336.12 187.69"/><polygon class="cls-7" points="221.28 260.14 222.26 260.39 220.99 265.21 225.88 266.13 225.69 267.12 219.73 266 221.28 260.14"/><line class="cls-6" x1="266.79" y1="189.7" x2="212.61" y2="265.11"/><polygon class="cls-7" points="261.48 190.01 261.68 191 266.56 190.02 267.19 194.96 268.19 194.83 267.43 188.81 261.48 190.01"/><polygon class="cls-7" points="211.2 259.98 212.21 259.86 212.83 264.8 217.71 263.81 217.91 264.8 211.97 266 211.2 259.98"/><rect class="cls-8" x="189.71" y="55.18" width="44.07" height="18"/><path class="cls-1" d="M203.24,60.59v7.09h-1.36l-1.85-4v4h-1.34V60.59H200l1.85,4v-4Z"/><path class="cls-1" d="M204.17,65.81V62.45a2.39,2.39,0,0,1,4.72,0v3.36a2.39,2.39,0,0,1-4.72,0Zm3.17,0v-3.4c0-.36-.24-.6-.8-.6s-.82.24-.82.6v3.4c0,.36.24.6.81.6S207.34,66.19,207.34,65.83Z"/><path class="cls-1" d="M214.39,62.6v3.06a2,2,0,0,1-2.26,2h-2.3V60.59h2.29A2.05,2.05,0,0,1,214.39,62.6Zm-1.54,0a.57.57,0,0,0-.62-.6h-.85v4.3h.84a.57.57,0,0,0,.63-.6Z"/><path class="cls-1" d="M216.86,62v1.55h1.72v1.4h-1.72v1.35H219v1.4h-3.67V60.59H219V62Z"/><path class="cls-1" d="M225,66.28v1.4h-3.3v-1.4h.88V62h-.88V60.59h2.43v5.69Z"/><rect class="cls-9" x="100.89" y="268.05" width="70" height="101.03"/><rect class="cls-9" x="176.54" y="268.05" width="70" height="101.03"/><line class="cls-10" x1="309.74" y1="231.59" x2="308.24" y2="231.59"/><line class="cls-11" x1="305.23" y1="231.59" x2="66.44" y2="231.59"/><line class="cls-10" x1="64.94" y1="231.59" x2="63.44" y2="231.59"/><polygon class="cls-12" points="306.42 227.5 305.74 228.23 309.35 231.59 305.74 234.94 306.42 235.68 310.82 231.59 306.42 227.5"/><polygon class="cls-12" points="66.76 227.5 67.44 228.23 63.83 231.59 67.44 234.94 66.76 235.68 62.36 231.59 66.76 227.5"/><rect class="cls-12" x="117.44" y="222.59" width="140.55" height="18"/><path class="cls-1" d="M170.28,228l-1.52,7.1h-1.61l-.79-3.86-.79,3.86H164l-1.52-7.1h1.61l.79,4.84.92-4.84H167l1,4.83.77-4.83Z"/><path class="cls-1" d="M172.64,229.39v1.55h1.72v1.4h-1.72v1.35h2.12v1.4h-3.67V228h3.67v1.4Z"/><path class="cls-1" d="M175.52,233v-.28h1.55v.44a.74.74,0,0,0,.83.73.68.68,0,0,0,.72-.69c0-1.27-3-1-3-3.27a2,2,0,0,1,2.22-2.08,2,2,0,0,1,2.21,2v.44h-1.55v-.54c0-.31-.3-.49-.67-.49a.59.59,0,0,0-.65.6c0,1,3,.79,3,3.21a2.09,2.09,0,0,1-2.3,2.19A2.15,2.15,0,0,1,175.52,233Z"/><path class="cls-1" d="M185.32,229.39h-1.47v5.7H182.3v-5.7h-1.48V228h4.5Z"/><path class="cls-1" d="M187.94,231.19h2.36v1.3h-2.36Z"/><path class="cls-1" d="M194.81,229.39v1.55h1.72v1.4h-1.72v1.35h2.12v1.4h-3.67V228h3.67v1.4Z"/><path class="cls-1" d="M200.87,233.84h-1.45l-.29,1.25h-1.51l1.53-7.1h2l1.54,7.1h-1.54Zm-.72-4-.45,2.56h.9Z"/><path class="cls-1" d="M203.28,233v-.28h1.55v.44a.74.74,0,0,0,.83.73.68.68,0,0,0,.72-.69c0-1.27-3-1-3-3.27a2,2,0,0,1,2.22-2.08,1.94,1.94,0,0,1,2.21,2v.44h-1.55v-.54c0-.31-.3-.49-.67-.49a.59.59,0,0,0-.65.6c0,1,3,.79,3,3.21a2.1,2.1,0,0,1-2.31,2.19A2.15,2.15,0,0,1,203.28,233Z"/><path class="cls-1" d="M213.08,229.39h-1.47v5.7h-1.55v-5.7h-1.48V228h4.5Z"/><g id="Group_12856" data-name="Group 12856"><g id="Group_12835" data-name="Group 12835"><path id="Path_60589" data-name="Path 60589" class="cls-13" d="M370.59,448.83H347.18a5.9,5.9,0,0,1,0-11.79h0a8.76,8.76,0,0,1,12.35-8,10.24,10.24,0,0,1,19.83,3.63,8.65,8.65,0,0,1-.36,2.67,7.37,7.37,0,0,1-4,13.53Z"/></g></g><path d="M331.78,461.32a3.66,3.66,0,0,1,3.74-3.8,3.28,3.28,0,0,1,2.81,1.46l-.77.42a2.49,2.49,0,0,0-2-1.06,3,3,0,0,0,0,6,2.45,2.45,0,0,0,2-1.07l.78.43a3.31,3.31,0,0,1-2.82,1.45A3.66,3.66,0,0,1,331.78,461.32Z"/><path d="M339.37,457.64h.82V465h-.82Z"/><path d="M341.42,462.32c-.19-3.62,5.45-3.62,5.26,0C346.87,466,341.23,466,341.42,462.32Zm4.39,0a1.78,1.78,0,1,0-3.53,0A1.78,1.78,0,1,0,345.81,462.32Z"/><path d="M351.5,464.23a2.57,2.57,0,0,1-1.89.88,1.49,1.49,0,0,1-1.7-1.69v-3.75h.83v3.5c0,.93.47,1.21,1.19,1.21a2,2,0,0,0,1.57-.81v-3.9h.82V465h-.82Z"/><path d="M357.71,464.19a2.21,2.21,0,0,1-1.79.92c-1.39,0-2.36-1.05-2.36-2.78s1-2.79,2.36-2.79a2.21,2.21,0,0,1,1.79.93v-2.83h.83V465h-.83Zm0-3.06a2,2,0,0,0-1.59-.86c-1.07,0-1.71.88-1.71,2.06s.64,2.05,1.71,2.05a2,2,0,0,0,1.59-.84Z"/><path d="M363.75,459.06V465h-.91v-7.34h.94l4.22,5.8v-5.8h.91V465H368Z"/><path d="M373.81,464.38a2.31,2.31,0,0,1-1.76.73,1.77,1.77,0,0,1-1.86-1.75,1.74,1.74,0,0,1,1.86-1.75,2.24,2.24,0,0,1,1.76.72v-1c0-.71-.57-1.12-1.35-1.12a2.09,2.09,0,0,0-1.62.74l-.39-.57a2.77,2.77,0,0,1,2.13-.88c1.12,0,2.05.5,2.05,1.79V465h-.82Zm0-1.52a1.79,1.79,0,0,0-1.47-.66,1.17,1.17,0,1,0,0,2.32,1.79,1.79,0,0,0,1.47-.66Z"/><path d="M376.34,463.87v-3.48h-.88v-.72h.88v-1.45h.82v1.45h1.08v.72h-1.08v3.3c0,.4.18.69.54.69a.8.8,0,0,0,.56-.22l.24.61a1.33,1.33,0,0,1-1,.34A1.08,1.08,0,0,1,376.34,463.87Z"/><path d="M379.15,458.26a.56.56,0,1,1,1.11,0,.56.56,0,0,1-1.11,0Zm.15,1.41h.82V465h-.82Z"/><path d="M380.87,459.67h.89l1.77,4.35,1.76-4.35h.9L384,465h-.9Z"/><path d="M389.25,459.54a2.57,2.57,0,0,1,2.55,2.85v.21h-4.3a1.87,1.87,0,0,0,1.92,1.83,2.33,2.33,0,0,0,1.64-.67l.39.54a2.87,2.87,0,0,1-2.11.81,2.79,2.79,0,0,1-.09-5.57ZM387.5,462H391a1.72,1.72,0,0,0-1.75-1.77A1.78,1.78,0,0,0,387.5,462Z"/><path d="M348.41,470.67h.89l1.77,4.35,1.76-4.35h.9L351.52,476h-.9Z"/><path d="M356.89,473.07h-1.46V476h-.92v-7.34h2.95a2.14,2.14,0,0,1,2.3,2.22,2,2,0,0,1-1.9,2.13l2,3h-1.08Zm.46-3.61h-1.92v2.8h1.92a1.4,1.4,0,1,0,0-2.8Z"/><path d="M365.71,474.36H362l-.65,1.62h-1l2.95-7.34h1.13l3,7.34h-1Zm-3.45-.82h3.18l-1.59-4.08Z"/><path d="M369.13,470.06V476h-.91v-7.34h.93l4.23,5.8v-5.8h.91V476h-.88Z"/><g id="Group_12856-2" data-name="Group 12856"><g id="Group_12835-2" data-name="Group 12835"><path id="Path_60589-2" data-name="Path 60589" class="cls-13" d="M492.06,448.83H468.65a5.9,5.9,0,0,1,0-11.79h0A8.75,8.75,0,0,1,481,429a10.24,10.24,0,0,1,19.84,3.63,9.3,9.3,0,0,1-.36,2.67,7.37,7.37,0,0,1-4,13.53Z"/></g></g><path d="M454.57,461.32a3.66,3.66,0,0,1,3.74-3.8,3.28,3.28,0,0,1,2.81,1.46l-.77.42a2.49,2.49,0,0,0-2-1.06,3,3,0,0,0,0,6,2.45,2.45,0,0,0,2-1.07l.78.43a3.31,3.31,0,0,1-2.82,1.45A3.66,3.66,0,0,1,454.57,461.32Z"/><path d="M462.16,457.64H463V465h-.82Z"/><path d="M464.21,462.32c-.19-3.62,5.45-3.62,5.26,0C469.66,466,464,466,464.21,462.32Zm4.39,0a1.78,1.78,0,1,0-3.53,0A1.78,1.78,0,1,0,468.6,462.32Z"/><path d="M474.29,464.23a2.57,2.57,0,0,1-1.89.88,1.49,1.49,0,0,1-1.7-1.69v-3.75h.83v3.5c0,.93.47,1.21,1.19,1.21a2,2,0,0,0,1.57-.81v-3.9h.82V465h-.82Z"/><path d="M480.5,464.19a2.21,2.21,0,0,1-1.79.92c-1.39,0-2.36-1.05-2.36-2.78s1-2.79,2.36-2.79a2.2,2.2,0,0,1,1.79.93v-2.83h.83V465h-.83Zm0-3.06a2,2,0,0,0-1.59-.86c-1.07,0-1.71.88-1.71,2.06s.64,2.05,1.71,2.05a2,2,0,0,0,1.59-.84Z"/><path d="M486.54,459.06V465h-.91v-7.34h.93l4.23,5.8v-5.8h.91V465h-.88Z"/><path d="M496.6,464.38a2.31,2.31,0,0,1-1.76.73,1.77,1.77,0,0,1-1.86-1.75,1.74,1.74,0,0,1,1.86-1.75,2.24,2.24,0,0,1,1.76.72v-1c0-.71-.57-1.12-1.35-1.12a2.09,2.09,0,0,0-1.62.74l-.39-.57a2.77,2.77,0,0,1,2.13-.88c1.12,0,2.05.5,2.05,1.79V465h-.82Zm0-1.52a1.79,1.79,0,0,0-1.47-.66,1.17,1.17,0,1,0,0,2.32,1.79,1.79,0,0,0,1.47-.66Z"/><path d="M499.13,463.87v-3.48h-.88v-.72h.88v-1.45H500v1.45H501v.72H500v3.3c0,.4.18.69.54.69a.8.8,0,0,0,.56-.22l.24.61a1.33,1.33,0,0,1-1,.34A1.08,1.08,0,0,1,499.13,463.87Z"/><path d="M501.94,458.26a.56.56,0,1,1,1.11,0,.56.56,0,0,1-1.11,0Zm.15,1.41h.82V465h-.82Z"/><path d="M503.66,459.67h.89l1.77,4.35,1.76-4.35h.9L506.77,465h-.9Z"/><path d="M512,459.54a2.57,2.57,0,0,1,2.55,2.85v.21h-4.3a1.87,1.87,0,0,0,1.92,1.83,2.33,2.33,0,0,0,1.64-.67l.39.54a2.87,2.87,0,0,1-2.11.81,2.79,2.79,0,0,1-.09-5.57ZM510.29,462h3.49a1.72,1.72,0,0,0-1.75-1.77A1.78,1.78,0,0,0,510.29,462Z"/><path d="M477.9,468.64h2.5a3.67,3.67,0,1,1,0,7.34h-2.5Zm2.5,6.53a2.86,2.86,0,0,0,0-5.71h-1.59v5.71Z"/><path d="M485.19,472.32a3.66,3.66,0,0,1,3.74-3.8,3.31,3.31,0,0,1,2.82,1.46l-.77.42a2.51,2.51,0,0,0-2.05-1.06,3,3,0,0,0,0,6,2.47,2.47,0,0,0,2.05-1.07l.78.43a3.34,3.34,0,0,1-2.83,1.45A3.66,3.66,0,0,1,485.19,472.32Z"/><rect class="cls-13" x="199.79" y="275.26" width="23.07" height="23.07" rx="0.72" transform="translate(-75.47 498.13) rotate(-90)"/><path d="M205.54,283.68h-2.28l-.39,1h-.63l1.81-4.5h.7l1.81,4.5h-.62Zm-2.12-.5h2l-1-2.5Z"/><path d="M207,283.88a1.49,1.49,0,0,0,1.08.47c.49,0,.76-.23.76-.54s-.39-.48-.83-.58-1.18-.28-1.18-1c0-.5.44-.93,1.21-.93a1.67,1.67,0,0,1,1.21.47l-.24.35a1.24,1.24,0,0,0-1-.41c-.44,0-.72.2-.72.49s.37.42.8.52,1.22.29,1.22,1c0,.55-.44,1-1.28,1a1.7,1.7,0,0,1-1.32-.52Z"/><path d="M210.13,285.92v-4.5h.51v.48a1.36,1.36,0,0,1,1.1-.56c.86,0,1.45.64,1.45,1.7s-.59,1.72-1.45,1.72a1.32,1.32,0,0,1-1.1-.58v1.74Zm1.48-4.13a1.22,1.22,0,0,0-1,.52v1.47a1.22,1.22,0,0,0,1,.53c.66,0,1-.54,1-1.27S212.27,281.79,211.61,281.79Z"/><path d="M215.36,281.34a1.58,1.58,0,0,1,1.56,1.74v.13h-2.64a1.16,1.16,0,0,0,1.18,1.13,1.41,1.41,0,0,0,1-.41l.25.33a1.81,1.81,0,0,1-1.3.5,1.71,1.71,0,0,1,0-3.42Zm-1.08,1.5h2.14a1,1,0,0,0-1.07-1.08A1.09,1.09,0,0,0,214.28,282.84Z"/><path d="M219.87,282.54c0-.57-.29-.75-.73-.75a1.25,1.25,0,0,0-1,.51v2.38h-.51v-3.26h.51v.47a1.61,1.61,0,0,1,1.16-.55.92.92,0,0,1,1,1.05v2.29h-.51Z"/><path d="M207.94,289.18l-1.53,3.75h-.23l-1.52-3.75v3.75h-.56v-4.5h.8l1.4,3.42,1.4-3.42h.8v4.5h-.56Z"/><path d="M210.89,289.59a1.58,1.58,0,0,1,1.56,1.74v.13h-2.63a1.14,1.14,0,0,0,1.17,1.13,1.41,1.41,0,0,0,1-.41l.25.33a1.8,1.8,0,0,1-1.3.5,1.71,1.71,0,0,1-.05-3.42Zm-1.07,1.5H212a1,1,0,0,0-1.07-1.08A1.07,1.07,0,0,0,209.82,291.09Z"/><path d="M213.18,292.13a1.49,1.49,0,0,0,1.08.47c.5,0,.77-.23.77-.54s-.4-.48-.84-.58-1.18-.28-1.18-1c0-.5.44-.93,1.21-.93a1.65,1.65,0,0,1,1.21.47l-.24.35a1.24,1.24,0,0,0-1-.41c-.44,0-.72.2-.72.49s.37.42.8.52,1.22.29,1.22,1c0,.55-.44,1-1.28,1a1.7,1.7,0,0,1-1.32-.52Z"/><path d="M218.48,290.78c0-.57-.3-.74-.73-.74a1.28,1.28,0,0,0-1,.51v2.38h-.5v-4.5h.5v1.71a1.63,1.63,0,0,1,1.17-.55.92.92,0,0,1,1,1v2.3h-.51Z"/><rect class="cls-13" x="124.32" y="275.26" width="23.07" height="23.07" rx="0.72" transform="translate(-150.94 422.66) rotate(-90)"/><path d="M130.07,283.68h-2.28l-.39,1h-.63l1.81-4.5h.7l1.81,4.5h-.62Zm-2.12-.5h2l-1-2.5Z"/><path d="M131.57,283.88a1.49,1.49,0,0,0,1.08.47c.49,0,.76-.23.76-.54s-.39-.48-.83-.58-1.18-.28-1.18-1c0-.5.44-.93,1.21-.93a1.67,1.67,0,0,1,1.21.47l-.24.35a1.24,1.24,0,0,0-1-.41c-.44,0-.72.2-.72.49s.37.42.8.52,1.22.29,1.22,1c0,.55-.44,1-1.28,1a1.7,1.7,0,0,1-1.32-.52Z"/><path d="M134.66,285.92v-4.5h.51v.48a1.36,1.36,0,0,1,1.1-.56c.86,0,1.45.64,1.45,1.7s-.59,1.72-1.45,1.72a1.33,1.33,0,0,1-1.1-.58v1.74Zm1.48-4.13a1.22,1.22,0,0,0-1,.52v1.47a1.22,1.22,0,0,0,1,.53c.66,0,1.05-.54,1.05-1.27S136.8,281.79,136.14,281.79Z"/><path d="M139.89,281.34a1.58,1.58,0,0,1,1.56,1.74v.13h-2.63a1.14,1.14,0,0,0,1.17,1.13,1.41,1.41,0,0,0,1-.41l.25.33a1.81,1.81,0,0,1-1.3.5,1.71,1.71,0,0,1-.05-3.42Zm-1.07,1.5H141a1,1,0,0,0-1.07-1.08A1.07,1.07,0,0,0,138.82,282.84Z"/><path d="M144.4,282.54c0-.57-.29-.75-.73-.75a1.25,1.25,0,0,0-1,.51v2.38h-.51v-3.26h.51v.47a1.61,1.61,0,0,1,1.16-.55.92.92,0,0,1,1,1.05v2.29h-.51Z"/><path d="M132.47,289.18l-1.53,3.75h-.23l-1.52-3.75v3.75h-.56v-4.5h.8l1.4,3.42,1.4-3.42h.8v4.5h-.56Z"/><path d="M135.42,289.59a1.58,1.58,0,0,1,1.56,1.74v.13h-2.63a1.14,1.14,0,0,0,1.17,1.13,1.46,1.46,0,0,0,1-.41l.24.33a1.8,1.8,0,0,1-1.3.5,1.71,1.71,0,0,1-.05-3.42Zm-1.07,1.5h2.13a1,1,0,0,0-1.07-1.08A1.07,1.07,0,0,0,134.35,291.09Z"/><path d="M137.71,292.13a1.49,1.49,0,0,0,1.08.47c.5,0,.77-.23.77-.54s-.4-.48-.84-.58-1.18-.28-1.18-1c0-.5.44-.93,1.21-.93a1.65,1.65,0,0,1,1.21.47l-.24.35a1.24,1.24,0,0,0-1-.41c-.44,0-.72.2-.72.49s.37.42.8.52,1.22.29,1.22,1c0,.55-.44,1-1.28,1a1.7,1.7,0,0,1-1.32-.52Z"/><path d="M143,290.78c0-.57-.3-.74-.73-.74a1.28,1.28,0,0,0-1,.51v2.38h-.5v-4.5h.5v1.71a1.63,1.63,0,0,1,1.17-.55.92.92,0,0,1,1,1v2.3H143Z"/><rect class="cls-9" x="308.82" y="83.09" width="70" height="100.58"/><rect class="cls-9" x="230.65" y="83.09" width="70" height="100.58"/><rect class="cls-9" x="137.47" y="83.09" width="70" height="100.58"/><rect class="cls-9" x="59.2" y="83.09" width="70" height="100.58"/><rect class="cls-13" x="82.46" y="148.86" width="23.07" height="23.07" rx="0.72" transform="translate(-66.4 254.39) rotate(-90)"/><path d="M88.21,157.27H85.93l-.4,1h-.62l1.81-4.5h.69l1.82,4.5h-.62Zm-2.12-.49h2l-1-2.51Z"/><path d="M89.71,157.48a1.46,1.46,0,0,0,1.07.46c.5,0,.77-.22.77-.54s-.4-.47-.84-.58-1.18-.27-1.18-.95c0-.5.44-.94,1.22-.94a1.61,1.61,0,0,1,1.2.48l-.23.35a1.27,1.27,0,0,0-1-.41c-.45,0-.72.2-.72.49s.37.42.79.52c.57.13,1.22.29,1.22,1,0,.55-.44,1-1.28,1a1.73,1.73,0,0,1-1.31-.51Z"/><path d="M92.8,159.51V155h.51v.48a1.36,1.36,0,0,1,1.1-.57c.85,0,1.45.65,1.45,1.71s-.6,1.71-1.45,1.71a1.33,1.33,0,0,1-1.1-.57v1.73Zm1.48-4.12a1.17,1.17,0,0,0-1,.52v1.47a1.2,1.2,0,0,0,1,.52c.65,0,1-.54,1-1.26S94.93,155.39,94.28,155.39Z"/><path d="M98,154.93a1.58,1.58,0,0,1,1.57,1.75v.13H97a1.15,1.15,0,0,0,1.17,1.13,1.42,1.42,0,0,0,1-.42l.24.33a1.73,1.73,0,0,1-1.29.5,1.61,1.61,0,0,1-1.66-1.71A1.63,1.63,0,0,1,98,154.93ZM97,156.44h2.14A1.06,1.06,0,0,0,98,155.35,1.09,1.09,0,0,0,97,156.44Z"/><path d="M102.54,156.14c0-.57-.29-.75-.73-.75a1.27,1.27,0,0,0-1,.5v2.38h-.5V155h.5v.47a1.63,1.63,0,0,1,1.16-.56.93.93,0,0,1,1,1.06v2.28h-.5Z"/><path d="M90.61,162.78l-1.53,3.74h-.23l-1.53-3.74v3.74h-.56V162h.81L89,165.45,90.37,162h.8v4.5h-.56Z"/><path d="M93.55,163.18a1.58,1.58,0,0,1,1.57,1.75v.13H92.48a1.15,1.15,0,0,0,1.18,1.13,1.4,1.4,0,0,0,1-.42l.24.33a1.73,1.73,0,0,1-1.29.5A1.61,1.61,0,0,1,92,164.89,1.63,1.63,0,0,1,93.55,163.18Zm-1.07,1.51h2.14a1.06,1.06,0,0,0-1.07-1.09A1.09,1.09,0,0,0,92.48,164.69Z"/><path d="M95.85,165.73a1.48,1.48,0,0,0,1.07.46c.5,0,.77-.22.77-.54s-.4-.47-.84-.58-1.18-.27-1.18-.95c0-.5.44-.94,1.22-.94a1.65,1.65,0,0,1,1.21.48l-.24.35a1.26,1.26,0,0,0-1-.41c-.45,0-.72.2-.72.49s.37.42.79.52c.57.13,1.22.29,1.22,1,0,.55-.44,1-1.28,1a1.73,1.73,0,0,1-1.31-.51Z"/><path d="M101.15,164.38c0-.58-.3-.74-.74-.74a1.27,1.27,0,0,0-1,.5v2.38h-.51V162h.51v1.72a1.61,1.61,0,0,1,1.16-.56.92.92,0,0,1,1,1v2.3h-.5Z"/><rect class="cls-13" x="78.65" y="88.09" width="30.77" height="37.86" rx="0.96" transform="translate(-12.99 201.06) rotate(-90)"/><path d="M84.6,107.78h-3L81,109.11H80.2l2.41-6h.93l2.42,6h-.83Zm-2.82-.67h2.6l-1.3-3.34Z"/><path d="M91.78,104.11l-2,5h-.3l-2-5v5h-.75v-6h1.07l1.87,4.58,1.87-4.58h1.07v6h-.75Z"/><path d="M93.84,103.1h3.94v.67H94.59v1.94h3.12v.66H94.59v2.74h-.75Z"/><path d="M98.27,106.63h2.16v.6H98.27Z"/><path d="M101.31,103.1h2.42a1.81,1.81,0,1,1,0,3.62h-1.67v2.39h-.75Zm2.33.67h-1.58v2.29h1.58a1.15,1.15,0,1,0,0-2.29Z"/><path d="M107.41,104.09l-1,1-.45-.46,1.51-1.55h.65v6h-.74Z"/><line class="cls-14" x1="102.52" y1="144.61" x2="102.52" y2="126.78"/><polygon class="cls-15" points="106.61 141.29 105.88 140.61 102.52 144.22 99.17 140.61 98.43 141.29 102.52 145.69 106.61 141.29"/><polygon class="cls-15" points="106.61 130.09 105.88 130.77 102.52 127.16 99.17 130.77 98.43 130.09 102.52 125.69 106.61 130.09"/><line class="cls-14" x1="86.54" y1="126.78" x2="86.54" y2="144.61"/><polygon class="cls-15" points="82.45 130.09 83.18 130.77 86.54 127.16 89.9 130.77 90.63 130.09 86.54 125.69 82.45 130.09"/><polygon class="cls-15" points="82.45 141.29 83.18 140.61 86.54 144.22 89.9 140.61 90.63 141.29 86.54 145.69 82.45 141.29"/><rect class="cls-13" x="121.35" y="322.82" width="30.77" height="37.86" rx="0.96" transform="translate(-205.01 478.48) rotate(-90)"/><path d="M133.13,338.07a1.86,1.86,0,0,1-1.44.61,1.45,1.45,0,0,1-1.52-1.44,1.43,1.43,0,0,1,1.52-1.43,1.79,1.79,0,0,1,1.44.59v-.78c0-.59-.46-.92-1.09-.92a1.75,1.75,0,0,0-1.34.6l-.31-.47a2.29,2.29,0,0,1,1.74-.72c.91,0,1.68.42,1.68,1.47v3h-.68Zm0-1.24a1.45,1.45,0,0,0-1.19-.54,1,1,0,1,0,0,1.9,1.45,1.45,0,0,0,1.19-.54Z"/><path d="M135.07,340.23v-6h.67v.65a1.84,1.84,0,0,1,1.47-.76c1.15,0,1.94.87,1.94,2.28s-.79,2.29-1.94,2.29a1.8,1.8,0,0,1-1.47-.77v2.32Zm2-5.51a1.62,1.62,0,0,0-1.3.69v2a1.63,1.63,0,0,0,1.3.7c.87,0,1.4-.72,1.4-1.68S137.91,334.72,137,334.72Z"/><path d="M140.15,340.23v-6h.67v.65a1.84,1.84,0,0,1,1.47-.76c1.14,0,1.93.87,1.93,2.28s-.79,2.29-1.93,2.29a1.77,1.77,0,0,1-1.47-.77v2.32Zm2-5.51a1.6,1.6,0,0,0-1.3.69v2a1.61,1.61,0,0,0,1.3.7c.87,0,1.39-.72,1.39-1.68S143,334.72,142.12,334.72Z"/><path d="M128.47,343.56h3.93v.67h-3.19v1.94h3.13v.66h-3.13v2.07h3.19v.67h-3.93Z"/><path d="M134.4,344.56l-1,1-.45-.46,1.5-1.55h.66v6h-.75Z"/><path d="M136,347.09h2.16v.6H136Z"/><path d="M139.07,343.56h2.41a1.81,1.81,0,1,1,0,3.62h-1.66v2.39h-.75Zm2.32.67h-1.57v2.29h1.57a1.15,1.15,0,1,0,0-2.29Z"/><path d="M145.16,344.56l-1,1-.45-.46,1.5-1.55h.66v6h-.75Z"/><rect class="cls-13" x="195.46" y="322.82" width="30.77" height="37.86" rx="0.96" transform="translate(-130.91 552.59) rotate(-90)"/><path d="M207.24,338.07a1.88,1.88,0,0,1-1.44.61,1.45,1.45,0,0,1-1.52-1.44,1.42,1.42,0,0,1,1.52-1.43,1.8,1.8,0,0,1,1.44.59v-.78c0-.59-.47-.92-1.1-.92a1.73,1.73,0,0,0-1.33.6l-.32-.47a2.31,2.31,0,0,1,1.74-.72c.92,0,1.68.42,1.68,1.47v3h-.67Zm0-1.24a1.46,1.46,0,0,0-1.2-.54,1,1,0,1,0,0,1.9,1.46,1.46,0,0,0,1.2-.54Z"/><path d="M209.17,340.23v-6h.68v.65a1.81,1.81,0,0,1,1.47-.76c1.14,0,1.93.87,1.93,2.28s-.79,2.29-1.93,2.29a1.77,1.77,0,0,1-1.47-.77v2.32Zm2-5.51a1.58,1.58,0,0,0-1.29.69v2a1.59,1.59,0,0,0,1.29.7c.88,0,1.4-.72,1.4-1.68S212,334.72,211.14,334.72Z"/><path d="M214.25,340.23v-6h.67v.65a1.84,1.84,0,0,1,1.47-.76c1.14,0,1.94.87,1.94,2.28s-.8,2.29-1.94,2.29a1.79,1.79,0,0,1-1.47-.77v2.32Zm2-5.51a1.62,1.62,0,0,0-1.3.69v2a1.63,1.63,0,0,0,1.3.7c.87,0,1.4-.72,1.4-1.68S217.09,334.72,216.22,334.72Z"/><path d="M201.45,343.56h3.93v.67H202.2v1.94h3.12v.66H202.2v2.07h3.18v.67h-3.93Z"/><path d="M206.27,349c2.16-1.71,3.33-2.71,3.33-3.74a1.12,1.12,0,0,0-1.26-1.1,2,2,0,0,0-1.63.76l-.45-.48a2.58,2.58,0,0,1,2.08-.94,1.82,1.82,0,0,1,2,1.76c0,1.22-1.24,2.34-2.92,3.66h2.95v.67h-4.12Z"/><path d="M211.25,347.09h2.16v.6h-2.16Z"/><path d="M214.29,343.56h2.41a1.81,1.81,0,1,1,0,3.62H215v2.39h-.75Zm2.33.67H215v2.29h1.58a1.15,1.15,0,1,0,0-2.29Z"/><path d="M220.39,344.56l-1,1-.45-.46,1.51-1.55h.65v6h-.74Z"/><rect class="cls-13" x="160.72" y="148.86" width="23.07" height="23.07" rx="0.72" transform="translate(11.87 332.66) rotate(-90)"/><path d="M166.47,157.27h-2.28l-.39,1h-.62l1.8-4.5h.7l1.81,4.5h-.62Zm-2.11-.49h1.95l-1-2.51Z"/><path d="M168,157.48a1.49,1.49,0,0,0,1.08.46c.5,0,.77-.22.77-.54s-.4-.47-.84-.58-1.18-.27-1.18-.95c0-.5.44-.94,1.21-.94a1.61,1.61,0,0,1,1.21.48l-.24.35a1.24,1.24,0,0,0-1-.41c-.44,0-.72.2-.72.49s.37.42.8.52,1.22.29,1.22,1c0,.55-.44,1-1.28,1a1.73,1.73,0,0,1-1.32-.51Z"/><path d="M171.07,159.51V155h.5v.48a1.37,1.37,0,0,1,1.1-.57c.86,0,1.45.65,1.45,1.71s-.59,1.71-1.45,1.71a1.35,1.35,0,0,1-1.1-.57v1.73Zm1.47-4.12a1.2,1.2,0,0,0-1,.52v1.47a1.23,1.23,0,0,0,1,.52c.66,0,1.05-.54,1.05-1.26S173.2,155.39,172.54,155.39Z"/><path d="M176.29,154.93a1.58,1.58,0,0,1,1.56,1.75v.13h-2.63a1.15,1.15,0,0,0,1.17,1.13,1.42,1.42,0,0,0,1-.42l.24.33a1.76,1.76,0,0,1-1.3.5,1.62,1.62,0,0,1-1.66-1.71A1.64,1.64,0,0,1,176.29,154.93Zm-1.07,1.51h2.13a1.05,1.05,0,0,0-1.07-1.09A1.08,1.08,0,0,0,175.22,156.44Z"/><path d="M180.8,156.14c0-.57-.29-.75-.72-.75a1.27,1.27,0,0,0-1,.5v2.38h-.5V155h.5v.47a1.63,1.63,0,0,1,1.16-.56.93.93,0,0,1,1,1.06v2.28h-.51Z"/><path d="M168.87,162.78l-1.53,3.74h-.22l-1.53-3.74v3.74H165V162h.8l1.4,3.43,1.4-3.43h.8v4.5h-.56Z"/><path d="M171.82,163.18a1.58,1.58,0,0,1,1.57,1.75v.13h-2.64a1.15,1.15,0,0,0,1.17,1.13,1.42,1.42,0,0,0,1-.42l.24.33a1.74,1.74,0,0,1-1.3.5,1.61,1.61,0,0,1-1.65-1.71A1.63,1.63,0,0,1,171.82,163.18Zm-1.07,1.51h2.14a1.06,1.06,0,0,0-1.08-1.09A1.09,1.09,0,0,0,170.75,164.69Z"/><path d="M174.12,165.73a1.45,1.45,0,0,0,1.07.46c.5,0,.77-.22.77-.54s-.4-.47-.84-.58-1.18-.27-1.18-.95c0-.5.44-.94,1.22-.94a1.61,1.61,0,0,1,1.2.48l-.23.35a1.27,1.27,0,0,0-1-.41c-.45,0-.73.2-.73.49s.37.42.8.52,1.22.29,1.22,1c0,.55-.44,1-1.28,1a1.75,1.75,0,0,1-1.32-.51Z"/><path d="M179.41,164.38c0-.58-.29-.74-.73-.74a1.31,1.31,0,0,0-1,.5v2.38h-.5V162h.5v1.72a1.64,1.64,0,0,1,1.17-.56.92.92,0,0,1,1,1v2.3h-.51Z"/><rect class="cls-13" x="156.92" y="88.09" width="30.77" height="37.86" rx="0.96" transform="translate(65.28 279.33) rotate(-90)"/><path d="M161.75,107.78h-3l-.54,1.33h-.82l2.41-6h.93l2.42,6h-.83Zm-2.83-.67h2.6l-1.29-3.34Z"/><path d="M168.93,104.11l-2,5h-.31l-2-5v5h-.75v-6h1.07l1.87,4.58,1.87-4.58h1.07v6h-.75Z"/><path d="M171,103.1h3.93v.67h-3.18v1.94h3.12v.66h-3.12v2.74H171Z"/><path d="M175.42,106.63h2.16v.6h-2.16Z"/><path d="M178.46,103.1h2.41a1.81,1.81,0,1,1,0,3.62h-1.66v2.39h-.75Zm2.32.67h-1.57v2.29h1.57a1.15,1.15,0,1,0,0-2.29Z"/><path d="M183.44,108.51c2.16-1.7,3.33-2.7,3.33-3.73a1.12,1.12,0,0,0-1.25-1.1,2,2,0,0,0-1.63.76l-.46-.48a2.61,2.61,0,0,1,2.09-.95,1.82,1.82,0,0,1,2,1.77c0,1.22-1.24,2.34-2.91,3.66h2.94v.67h-4.12Z"/><line class="cls-14" x1="180.79" y1="144.61" x2="180.79" y2="126.78"/><polygon class="cls-15" points="184.88 141.29 184.15 140.61 180.79 144.22 177.43 140.61 176.7 141.29 180.79 145.69 184.88 141.29"/><polygon class="cls-15" points="184.88 130.09 184.15 130.77 180.79 127.16 177.43 130.77 176.7 130.09 180.79 125.69 184.88 130.09"/><line class="cls-14" x1="164.81" y1="126.78" x2="164.81" y2="144.61"/><polygon class="cls-15" points="160.72 130.09 161.45 130.77 164.81 127.16 168.16 130.77 168.9 130.09 164.81 125.69 160.72 130.09"/><polygon class="cls-15" points="160.72 141.29 161.45 140.61 164.81 144.22 168.16 140.61 168.9 141.29 164.81 145.69 160.72 141.29"/><rect class="cls-13" x="253.91" y="148.86" width="23.07" height="23.07" rx="0.72" transform="translate(105.05 425.84) rotate(-90)"/><path d="M259.66,157.27h-2.28l-.4,1h-.62l1.81-4.5h.69l1.81,4.5h-.62Zm-2.12-.49h1.95l-1-2.51Z"/><path d="M261.16,157.48a1.45,1.45,0,0,0,1.07.46c.5,0,.77-.22.77-.54s-.4-.47-.84-.58-1.18-.27-1.18-.95c0-.5.44-.94,1.22-.94a1.61,1.61,0,0,1,1.2.48l-.23.35a1.27,1.27,0,0,0-1-.41c-.45,0-.73.2-.73.49s.38.42.8.52c.57.13,1.22.29,1.22,1,0,.55-.44,1-1.28,1a1.75,1.75,0,0,1-1.32-.51Z"/><path d="M264.25,159.51V155h.5v.48a1.39,1.39,0,0,1,1.1-.57c.86,0,1.45.65,1.45,1.71s-.59,1.71-1.45,1.71a1.36,1.36,0,0,1-1.1-.57v1.73Zm1.48-4.12a1.21,1.21,0,0,0-1,.52v1.47a1.23,1.23,0,0,0,1,.52c.65,0,1-.54,1-1.26S266.38,155.39,265.73,155.39Z"/><path d="M269.47,154.93a1.58,1.58,0,0,1,1.57,1.75v.13H268.4a1.15,1.15,0,0,0,1.17,1.13,1.42,1.42,0,0,0,1-.42l.24.33a1.73,1.73,0,0,1-1.29.5,1.61,1.61,0,0,1-1.66-1.71A1.63,1.63,0,0,1,269.47,154.93Zm-1.07,1.51h2.14a1.06,1.06,0,0,0-1.08-1.09A1.09,1.09,0,0,0,268.4,156.44Z"/><path d="M274,156.14c0-.57-.29-.75-.73-.75a1.27,1.27,0,0,0-1,.5v2.38h-.5V155h.5v.47a1.63,1.63,0,0,1,1.16-.56.93.93,0,0,1,1,1.06v2.28H274Z"/><path d="M262.06,162.78l-1.53,3.74h-.23l-1.53-3.74v3.74h-.56V162H259l1.39,3.43,1.41-3.43h.8v4.5h-.56Z"/><path d="M265,163.18a1.58,1.58,0,0,1,1.57,1.75v.13h-2.64a1.15,1.15,0,0,0,1.17,1.13,1.41,1.41,0,0,0,1-.42l.24.33a1.73,1.73,0,0,1-1.29.5,1.61,1.61,0,0,1-1.66-1.71A1.63,1.63,0,0,1,265,163.18Zm-1.07,1.51h2.14A1.06,1.06,0,0,0,265,163.6,1.09,1.09,0,0,0,263.93,164.69Z"/><path d="M267.3,165.73a1.46,1.46,0,0,0,1.07.46c.5,0,.77-.22.77-.54s-.4-.47-.84-.58-1.18-.27-1.18-.95c0-.5.44-.94,1.22-.94a1.61,1.61,0,0,1,1.2.48l-.23.35a1.26,1.26,0,0,0-1-.41c-.45,0-.72.2-.72.49s.37.42.79.52,1.22.29,1.22,1c0,.55-.44,1-1.28,1a1.73,1.73,0,0,1-1.31-.51Z"/><path d="M272.6,164.38c0-.58-.3-.74-.74-.74a1.27,1.27,0,0,0-1,.5v2.38h-.51V162h.51v1.72a1.61,1.61,0,0,1,1.16-.56.92.92,0,0,1,1,1v2.3h-.5Z"/><rect class="cls-13" x="250.1" y="88.09" width="30.77" height="37.86" rx="0.96" transform="translate(158.46 372.51) rotate(-90)"/><path d="M252.68,107.7a2.52,2.52,0,0,0,1.89.85c1.07,0,1.41-.58,1.41-1,0-.72-.73-.91-1.52-1.13-1-.25-2-.52-2-1.7,0-1,.89-1.67,2.07-1.67a2.83,2.83,0,0,1,2.13.84l-.45.55a2.32,2.32,0,0,0-1.74-.72c-.72,0-1.23.39-1.23.95s.69.79,1.46,1c1,.27,2.09.57,2.09,1.83,0,.88-.59,1.77-2.21,1.77a3,3,0,0,1-2.3-1Z"/><path d="M262.91,104.11l-2,5h-.31l-2-5v5h-.75v-6h1.07l1.86,4.58,1.88-4.58h1.07v6h-.75Z"/><path d="M265,103.1h3.93v.67h-3.18v1.94h3.12v.66h-3.12v2.74H265Z"/><path d="M269.4,106.63h2.16v.6H269.4Z"/><path d="M272.44,103.1h2.41a1.81,1.81,0,1,1,0,3.62h-1.66v2.39h-.75Zm2.32.67h-1.57v2.29h1.57a1.15,1.15,0,1,0,0-2.29Z"/><path d="M278.53,104.09l-1,1-.45-.46,1.5-1.55h.66v6h-.75Z"/><line class="cls-14" x1="273.97" y1="144.61" x2="273.97" y2="126.78"/><polygon class="cls-15" points="278.06 141.29 277.33 140.61 273.97 144.22 270.62 140.61 269.88 141.29 273.97 145.69 278.06 141.29"/><polygon class="cls-15" points="278.06 130.09 277.33 130.77 273.97 127.16 270.62 130.77 269.88 130.09 273.97 125.69 278.06 130.09"/><line class="cls-14" x1="257.99" y1="126.78" x2="257.99" y2="144.61"/><polygon class="cls-15" points="253.9 130.09 254.63 130.77 257.99 127.16 261.35 130.77 262.08 130.09 257.99 125.69 253.9 130.09"/><polygon class="cls-15" points="253.9 141.29 254.63 140.61 257.99 144.22 261.35 140.61 262.08 141.29 257.99 145.69 253.9 141.29"/><rect class="cls-13" x="332.08" y="148.86" width="23.07" height="23.07" rx="0.72" transform="translate(183.22 504.01) rotate(-90)"/><path d="M337.83,157.27h-2.28l-.4,1h-.62l1.81-4.5H337l1.82,4.5h-.62Zm-2.12-.49h2l-1-2.51Z"/><path d="M339.33,157.48a1.46,1.46,0,0,0,1.07.46c.5,0,.77-.22.77-.54s-.4-.47-.84-.58-1.18-.27-1.18-.95c0-.5.44-.94,1.22-.94a1.61,1.61,0,0,1,1.2.48l-.23.35a1.27,1.27,0,0,0-1-.41c-.45,0-.72.2-.72.49s.37.42.79.52,1.22.29,1.22,1c0,.55-.44,1-1.28,1a1.73,1.73,0,0,1-1.31-.51Z"/><path d="M342.42,159.51V155h.51v.48a1.36,1.36,0,0,1,1.1-.57c.85,0,1.45.65,1.45,1.71s-.6,1.71-1.45,1.71a1.33,1.33,0,0,1-1.1-.57v1.73Zm1.48-4.12a1.17,1.17,0,0,0-1,.52v1.47a1.2,1.2,0,0,0,1,.52c.65,0,1-.54,1-1.26S344.55,155.39,343.9,155.39Z"/><path d="M347.64,154.93a1.58,1.58,0,0,1,1.57,1.75v.13h-2.64a1.15,1.15,0,0,0,1.17,1.13,1.41,1.41,0,0,0,1-.42l.24.33a1.73,1.73,0,0,1-1.29.5,1.61,1.61,0,0,1-1.66-1.71A1.63,1.63,0,0,1,347.64,154.93Zm-1.07,1.51h2.14a1.06,1.06,0,0,0-1.07-1.09A1.09,1.09,0,0,0,346.57,156.44Z"/><path d="M352.16,156.14c0-.57-.29-.75-.73-.75a1.27,1.27,0,0,0-1,.5v2.38H350V155h.5v.47a1.63,1.63,0,0,1,1.16-.56.93.93,0,0,1,1,1.06v2.28h-.5Z"/><path d="M340.23,162.78l-1.53,3.74h-.23l-1.53-3.74v3.74h-.56V162h.81l1.39,3.43L340,162h.8v4.5h-.56Z"/><path d="M343.17,163.18a1.58,1.58,0,0,1,1.57,1.75v.13H342.1a1.15,1.15,0,0,0,1.18,1.13,1.4,1.4,0,0,0,1-.42l.24.33a1.73,1.73,0,0,1-1.29.5,1.61,1.61,0,0,1-1.66-1.71A1.63,1.63,0,0,1,343.17,163.18Zm-1.07,1.51h2.14a1.06,1.06,0,0,0-1.07-1.09A1.09,1.09,0,0,0,342.1,164.69Z"/><path d="M345.47,165.73a1.48,1.48,0,0,0,1.07.46c.5,0,.77-.22.77-.54s-.4-.47-.84-.58-1.18-.27-1.18-.95c0-.5.44-.94,1.22-.94a1.65,1.65,0,0,1,1.21.48l-.24.35a1.26,1.26,0,0,0-1-.41c-.45,0-.72.2-.72.49s.37.42.79.52c.57.13,1.22.29,1.22,1,0,.55-.43,1-1.28,1a1.73,1.73,0,0,1-1.31-.51Z"/><path d="M350.77,164.38c0-.58-.3-.74-.74-.74a1.27,1.27,0,0,0-1,.5v2.38h-.51V162h.51v1.72a1.61,1.61,0,0,1,1.16-.56.92.92,0,0,1,1,1v2.3h-.5Z"/><rect class="cls-13" x="328.27" y="88.09" width="30.77" height="37.86" rx="0.96" transform="translate(236.63 450.68) rotate(-90)"/><path d="M331.87,104.26v4.85h-.75v-6h.77l3.45,4.75V103.1h.75v6h-.72Z"/><path d="M339.35,106.72h-1.2v2.39h-.75v-6h2.42a1.75,1.75,0,0,1,1.88,1.81,1.66,1.66,0,0,1-1.56,1.75l1.62,2.45h-.88Zm.38-3h-1.58v2.3h1.58a1.15,1.15,0,1,0,0-2.3Z"/><path d="M342.78,103.1h3.94v.67h-3.19v1.94h3.13v.66h-3.13v2.74h-.75Z"/><path d="M347.21,106.63h2.16v.6h-2.16Z"/><path d="M350.26,103.1h2.41a1.81,1.81,0,1,1,0,3.62H351v2.39h-.74Zm2.32.67H351v2.29h1.58a1.15,1.15,0,1,0,0-2.29Z"/><path d="M356.35,104.09l-1,1-.45-.46,1.51-1.55h.66v6h-.75Z"/><line class="cls-14" x1="352.14" y1="144.61" x2="352.14" y2="126.78"/><polygon class="cls-15" points="356.23 141.29 355.5 140.61 352.14 144.22 348.79 140.61 348.05 141.29 352.14 145.69 356.23 141.29"/><polygon class="cls-15" points="356.23 130.09 355.5 130.77 352.14 127.16 348.79 130.77 348.05 130.09 352.14 125.69 356.23 130.09"/><line class="cls-14" x1="336.16" y1="126.78" x2="336.16" y2="144.61"/><polygon class="cls-15" points="332.07 130.09 332.8 130.77 336.16 127.16 339.52 130.77 340.25 130.09 336.16 125.69 332.07 130.09"/><polygon class="cls-15" points="332.07 141.29 332.8 140.61 336.16 144.22 339.52 140.61 340.25 141.29 336.16 145.69 332.07 141.29"/><line class="cls-14" x1="144.09" y1="321.54" x2="144.09" y2="303.71"/><polygon class="cls-15" points="148.18 318.22 147.45 317.54 144.09 321.15 140.73 317.54 140 318.22 144.09 322.62 148.18 318.22"/><polygon class="cls-15" points="148.18 307.02 147.45 307.7 144.09 304.09 140.73 307.7 140 307.02 144.09 302.62 148.18 307.02"/><line class="cls-14" x1="128.11" y1="303.71" x2="128.11" y2="321.54"/><polygon class="cls-15" points="124.02 307.02 124.75 307.7 128.1 304.09 131.46 307.7 132.19 307.02 128.1 302.62 124.02 307.02"/><polygon class="cls-15" points="124.02 318.22 124.75 317.54 128.1 321.15 131.46 317.54 132.19 318.22 128.1 322.62 124.02 318.22"/><line class="cls-14" x1="219.1" y1="321.54" x2="219.1" y2="303.71"/><polygon class="cls-15" points="223.19 318.22 222.46 317.54 219.1 321.15 215.74 317.54 215.01 318.22 219.1 322.62 223.19 318.22"/><polygon class="cls-15" points="223.19 307.02 222.46 307.7 219.1 304.09 215.74 307.7 215.01 307.02 219.1 302.62 223.19 307.02"/><line class="cls-14" x1="203.12" y1="303.71" x2="203.12" y2="321.54"/><polygon class="cls-15" points="199.03 307.02 199.76 307.7 203.12 304.09 206.47 307.7 207.21 307.02 203.12 302.62 199.03 307.02"/><polygon class="cls-15" points="199.03 318.22 199.76 317.54 203.12 321.15 206.47 317.54 207.21 318.22 203.12 322.62 199.03 318.22"/><rect class="cls-8" x="389.28" y="23.89" width="61" height="18"/><path class="cls-1" d="M399.26,34.52V31.16a2.37,2.37,0,0,1,4.68,0v.89h-1.57v-.91c0-.36-.25-.6-.76-.6s-.8.24-.8.6v3.4c0,.36.27.6.79.6s.77-.24.77-.6v-.91h1.57v.89a2.37,2.37,0,0,1-4.68,0Z"/><path class="cls-1" d="M408.53,35v1.4h-3.69v-7.1h1.55V35Z"/><path class="cls-1" d="M409.26,34.52V29.29h1.55v5.25c0,.36.23.6.72.6s.73-.24.73-.6V29.29h1.54v5.23a2.29,2.29,0,0,1-4.54,0Z"/><path class="cls-1" d="M414.65,34.29V34h1.55v.44a.74.74,0,0,0,.83.73.68.68,0,0,0,.72-.69c0-1.27-3-1-3-3.27A2,2,0,0,1,417,29.14a1.94,1.94,0,0,1,2.21,2v.44h-1.55V31c0-.31-.3-.49-.67-.49a.59.59,0,0,0-.65.6c0,1,3,.79,3,3.21A2.1,2.1,0,0,1,417,36.54,2.15,2.15,0,0,1,414.65,34.29Z"/><path class="cls-1" d="M424.45,30.69H423v5.7h-1.55v-5.7H420v-1.4h4.5Z"/><path class="cls-1" d="M426.75,30.69v1.55h1.72v1.4h-1.72V35h2.12v1.4H425.2v-7.1h3.67v1.4Z"/><path class="cls-1" d="M432,33.83h-.74v2.56H429.7v-7.1h2.36a2,2,0,0,1,2.12,1.94v.66a1.86,1.86,0,0,1-.71,1.5l.92,3h-1.62Zm-.74-1.4h.91a.44.44,0,0,0,.47-.47v-.8a.43.43,0,0,0-.46-.47h-.92Z"/><path class="cls-1" d="M440.45,35v1.4h-3.3V35H438v-4.3h-.88v-1.4h2.43V35Z"/><line class="cls-4" x1="486.14" y1="190.1" x2="479.59" y2="311.06"/><polygon class="cls-5" points="481.87 193.18 482.57 193.91 486.12 190.48 489.27 194.27 490.04 193.63 486.19 189.01 481.87 193.18"/><polygon class="cls-5" points="475.68 307.53 476.45 306.89 479.61 310.68 483.15 307.25 483.85 307.97 479.53 312.14 475.68 307.53"/><line class="cls-6" x1="744.84" y1="189.81" x2="710.76" y2="263.6"/><polygon class="cls-7" points="739.69 191.11 740.07 192.05 744.68 190.16 746.22 194.89 747.18 194.57 745.3 188.81 739.69 191.11"/><polygon class="cls-7" points="708.41 258.83 709.37 258.51 710.92 263.25 715.53 261.36 715.91 262.29 710.3 264.59 708.41 258.83"/><line class="cls-6" x1="668.92" y1="189.81" x2="702.51" y2="265"/><polygon class="cls-7" points="666.51 194.55 667.47 194.88 669.07 190.17 673.66 192.11 674.05 191.18 668.47 188.81 666.51 194.55"/><polygon class="cls-7" points="697.37 263.63 697.77 262.7 702.35 264.65 703.96 259.93 704.91 260.26 702.95 266 697.37 263.63"/><line class="cls-6" x1="498.94" y1="189.22" x2="683.84" y2="262.62"/><polygon class="cls-7" points="500.53 194.29 501.44 193.86 499.3 189.36 503.94 187.56 503.57 186.61 497.92 188.81 500.53 194.29"/><polygon class="cls-7" points="679.21 265.22 678.84 264.28 683.48 262.48 681.34 257.98 682.25 257.55 684.86 263.02 679.21 265.22"/><line class="cls-6" x1="573.21" y1="189.7" x2="627.39" y2="265.11"/><polygon class="cls-7" points="571.81 194.83 572.81 194.96 573.44 190.02 578.32 191 578.52 190.01 572.57 188.81 571.81 194.83"/><polygon class="cls-7" points="622.09 264.8 622.29 263.81 627.17 264.8 627.79 259.86 628.79 259.98 628.03 266 622.09 264.8"/><rect class="cls-8" x="606.22" y="55.18" width="44.07" height="18"/><path class="cls-1" d="M619.2,60.59v7.09h-1.35l-1.85-4v4h-1.35V60.59H616l1.85,4v-4Z"/><path class="cls-1" d="M620.13,65.81V62.45c-.18-2.64,4.9-2.65,4.72,0v3.36C625,68.47,620,68.45,620.13,65.81Zm3.17,0v-3.4c.13-.8-1.75-.78-1.62,0v3.4C621.55,66.62,623.43,66.62,623.3,65.83Z"/><path class="cls-1" d="M630.36,62.6v3.06a2.05,2.05,0,0,1-2.27,2h-2.3V60.59h2.29A2.06,2.06,0,0,1,630.36,62.6Zm-1.55,0a.57.57,0,0,0-.62-.6h-.85v4.3h.84a.57.57,0,0,0,.63-.6Z"/><path class="cls-1" d="M632.82,62v1.55h1.72v1.4h-1.72v1.35h2.12v1.4h-3.67V60.59h3.67V62Z"/><path class="cls-1" d="M639.42,66.28H642v1.4h-4.2V66.9c0-2.07,2.72-3,2.72-4.38v-.2a.48.48,0,0,0-.55-.49c-.33,0-.56.25-.56.7v.38h-1.55V62.6a2.06,2.06,0,0,1,2.11-2.16,2,2,0,0,1,2.1,1.92v.25C642,64.6,639.61,65.29,639.42,66.28Z"/><rect class="cls-9" x="669.11" y="268.05" width="70" height="101.03"/><rect class="cls-9" x="593.46" y="268.05" width="70" height="101.03"/><line class="cls-10" x1="530.26" y1="231.59" x2="531.76" y2="231.59"/><line class="cls-11" x1="534.77" y1="231.59" x2="773.56" y2="231.59"/><line class="cls-10" x1="775.06" y1="231.59" x2="776.56" y2="231.59"/><polygon class="cls-12" points="533.58 235.68 534.26 234.94 530.65 231.59 534.26 228.23 533.58 227.5 529.18 231.59 533.58 235.68"/><polygon class="cls-12" points="773.24 235.68 772.56 234.94 776.17 231.59 772.56 228.23 773.24 227.5 777.64 231.59 773.24 235.68"/><line class="cls-10" x1="420.09" y1="329.76" x2="420.09" y2="328.26"/><line class="cls-16" x1="420.09" y1="325.49" x2="420.09" y2="299.13"/><line class="cls-10" x1="420.09" y1="297.74" x2="420.09" y2="296.24"/><polygon class="cls-12" points="424.18 326.45 423.45 325.77 420.1 329.38 416.74 325.77 416 326.45 420.1 330.85 424.18 326.45"/><polygon class="cls-12" points="424.18 299.56 423.45 300.24 420.1 296.63 416.74 300.24 416 299.56 420.1 295.16 424.18 299.56"/><line class="cls-10" x1="420.09" y1="408.75" x2="420.09" y2="407.25"/><line class="cls-17" x1="420.09" y1="404.3" x2="420.09" y2="334.91"/><line class="cls-10" x1="420.09" y1="333.43" x2="420.09" y2="331.93"/><polygon class="cls-12" points="424.18 405.43 423.45 404.75 420.1 408.36 416.74 404.75 416 405.43 420.1 409.83 424.18 405.43"/><polygon class="cls-12" points="424.18 335.25 423.45 335.93 420.1 332.31 416.74 335.93 416 335.25 420.1 330.85 424.18 335.25"/><rect class="cls-12" x="411.09" y="310.6" width="18" height="84.31"/><path class="cls-1" d="M423.69,326.89h-7.1v-1.36l4-1.84h-4v-1.35h7.1v1.35l-4.06,1.84h4.06Z"/><path class="cls-1" d="M418.46,327.82h3.36c2.65-.18,2.65,4.89,0,4.72h-3.36C415.81,332.72,415.82,327.65,418.46,327.82Zm0,3.17h3.4c.8.12.78-1.75,0-1.62h-3.4C417.65,329.24,417.65,331.12,418.44,331Z"/><path class="cls-1" d="M419.15,335.77V335h-2.56v-1.55h7.1v2.36a2,2,0,0,1-1.94,2.12h-.66a1.86,1.86,0,0,1-1.5-.71l-3,.92v-1.62Zm1.4-.74v.91a.44.44,0,0,0,.47.47h.8a.43.43,0,0,0,.47-.46V335Z"/><path class="cls-1" d="M422.29,343.2v-1.47h-5.7v-1.54h5.7v-1.48h1.4v4.49Z"/><path class="cls-1" d="M423.69,348.67h-7.1v-1.55h2.75v-1.61h-2.75V344h7.1v1.55h-2.95v1.61h2.95Z"/><path class="cls-1" d="M420.49,351.63V354h-1.3v-2.36Z"/><path class="cls-1" d="M418.69,356.85H419v1.55h-.44a.74.74,0,0,0-.73.83.68.68,0,0,0,.69.72c1.27,0,1-3,3.27-3a2,2,0,0,1,2.08,2.22,1.94,1.94,0,0,1-2,2.21h-.44v-1.55H422c.31,0,.49-.3.49-.67a.59.59,0,0,0-.6-.65c-1,0-.79,3-3.21,3a2.1,2.1,0,0,1-2.18-2.31A2.15,2.15,0,0,1,418.69,356.85Z"/><path class="cls-1" d="M418.46,362.36h3.36c2.65-.19,2.65,4.89,0,4.71h-3.36C415.81,367.25,415.82,362.18,418.46,362.36Zm0,3.16h3.4c.8.13.78-1.75,0-1.61h-3.4C417.65,363.78,417.65,365.65,418.44,365.52Z"/><path class="cls-1" d="M418.46,368h5.23v1.55h-5.25c-.36,0-.6.23-.6.72s.24.73.6.73h5.25v1.55h-5.23a2.29,2.29,0,0,1,0-4.55Z"/><path class="cls-1" d="M422.29,377.71v-1.47h-5.7v-1.55h5.7v-1.47h1.4v4.49Z"/><path class="cls-1" d="M423.69,383.18h-7.1v-1.55h2.75V380h-2.75v-1.55h7.1V380h-2.95v1.61h2.95Z"/><rect class="cls-13" x="617.79" y="275.26" width="23.07" height="23.07" rx="0.72" transform="translate(342.52 916.12) rotate(-90)"/><path d="M623.53,283.68h-2.28l-.39,1h-.62l1.8-4.5h.7l1.81,4.5h-.62Zm-2.11-.5h2l-1-2.5Z"/><path d="M625,283.88a1.49,1.49,0,0,0,1.08.47c.5,0,.77-.23.77-.54s-.4-.48-.84-.58-1.18-.28-1.18-1c0-.5.44-.93,1.21-.93a1.65,1.65,0,0,1,1.21.47l-.24.35a1.24,1.24,0,0,0-1-.41c-.44,0-.72.2-.72.49s.37.42.8.52,1.22.29,1.22,1c0,.55-.44,1-1.28,1a1.7,1.7,0,0,1-1.32-.52Z"/><path d="M628.13,285.92v-4.5h.5v.48a1.36,1.36,0,0,1,1.1-.56c.86,0,1.45.64,1.45,1.7s-.59,1.72-1.45,1.72a1.34,1.34,0,0,1-1.1-.58v1.74Zm1.47-4.13a1.23,1.23,0,0,0-1,.52v1.47a1.24,1.24,0,0,0,1,.53c.66,0,1-.54,1-1.27S630.26,281.79,629.6,281.79Z"/><path d="M633.35,281.34a1.58,1.58,0,0,1,1.56,1.74v.13h-2.63a1.14,1.14,0,0,0,1.17,1.13,1.46,1.46,0,0,0,1-.41l.24.33a1.8,1.8,0,0,1-1.3.5,1.71,1.71,0,0,1,0-3.42Zm-1.07,1.5h2.13a1,1,0,0,0-1.07-1.08A1.07,1.07,0,0,0,632.28,282.84Z"/><path d="M637.86,282.54c0-.57-.29-.75-.72-.75a1.25,1.25,0,0,0-1,.51v2.38h-.5v-3.26h.5v.47a1.62,1.62,0,0,1,1.16-.55.92.92,0,0,1,1,1.05v2.29h-.51Z"/><path d="M625.94,289.18l-1.53,3.75h-.23l-1.53-3.75v3.75h-.56v-4.5h.8l1.4,3.42,1.4-3.42h.8v4.5h-.55Z"/><path d="M628.88,289.59a1.58,1.58,0,0,1,1.57,1.74v.13h-2.64a1.14,1.14,0,0,0,1.17,1.13,1.46,1.46,0,0,0,1-.41l.24.33a1.77,1.77,0,0,1-1.29.5,1.71,1.71,0,0,1-.06-3.42Zm-1.07,1.5H630a1.06,1.06,0,0,0-1.08-1.08A1.08,1.08,0,0,0,627.81,291.09Z"/><path d="M631.18,292.13a1.45,1.45,0,0,0,1.07.47c.5,0,.77-.23.77-.54s-.4-.48-.84-.58-1.18-.28-1.18-1c0-.5.44-.93,1.22-.93a1.64,1.64,0,0,1,1.2.47l-.23.35a1.27,1.27,0,0,0-1-.41c-.45,0-.73.2-.73.49s.38.42.8.52c.57.13,1.22.29,1.22,1,0,.55-.44,1-1.28,1a1.72,1.72,0,0,1-1.32-.52Z"/><path d="M636.47,290.78c0-.57-.29-.74-.73-.74a1.28,1.28,0,0,0-1,.51v2.38h-.5v-4.5h.5v1.71a1.63,1.63,0,0,1,1.17-.55.92.92,0,0,1,1,1v2.3h-.51Z"/><rect class="cls-13" x="690.52" y="275.26" width="23.07" height="23.07" rx="0.72" transform="translate(415.26 988.86) rotate(-90)"/><path d="M696.27,283.68H694l-.4,1H693l1.81-4.5h.7l1.81,4.5h-.62Zm-2.12-.5h2l-1-2.5Z"/><path d="M697.77,283.88a1.49,1.49,0,0,0,1.07.47c.5,0,.77-.23.77-.54s-.39-.48-.83-.58-1.18-.28-1.18-1c0-.5.44-.93,1.21-.93a1.67,1.67,0,0,1,1.21.47l-.24.35a1.24,1.24,0,0,0-1-.41c-.44,0-.72.2-.72.49s.37.42.8.52,1.22.29,1.22,1c0,.55-.44,1-1.28,1a1.7,1.7,0,0,1-1.32-.52Z"/><path d="M700.86,285.92v-4.5h.51v.48a1.36,1.36,0,0,1,1.1-.56c.86,0,1.45.64,1.45,1.7s-.59,1.72-1.45,1.72a1.32,1.32,0,0,1-1.1-.58v1.74Zm1.48-4.13a1.2,1.2,0,0,0-1,.52v1.47a1.21,1.21,0,0,0,1,.53c.65,0,1-.54,1-1.27S703,281.79,702.34,281.79Z"/><path d="M706.09,281.34a1.58,1.58,0,0,1,1.56,1.74v.13H705a1.16,1.16,0,0,0,1.18,1.13,1.41,1.41,0,0,0,1-.41l.25.33a1.81,1.81,0,0,1-1.3.5,1.71,1.71,0,0,1,0-3.42Zm-1.08,1.5h2.14a1,1,0,0,0-1.07-1.08A1.09,1.09,0,0,0,705,282.84Z"/><path d="M710.6,282.54c0-.57-.29-.75-.73-.75a1.25,1.25,0,0,0-1,.51v2.38h-.51v-3.26h.51v.47a1.61,1.61,0,0,1,1.16-.55.92.92,0,0,1,1,1.05v2.29h-.51Z"/><path d="M698.67,289.18l-1.53,3.75h-.23l-1.52-3.75v3.75h-.56v-4.5h.8l1.4,3.42,1.4-3.42h.8v4.5h-.56Z"/><path d="M701.62,289.59a1.58,1.58,0,0,1,1.56,1.74v.13h-2.63a1.14,1.14,0,0,0,1.17,1.13,1.41,1.41,0,0,0,1-.41l.25.33a1.81,1.81,0,0,1-1.3.5,1.71,1.71,0,0,1,0-3.42Zm-1.07,1.5h2.13a1,1,0,0,0-1.07-1.08A1.07,1.07,0,0,0,700.55,291.09Z"/><path d="M703.91,292.13a1.49,1.49,0,0,0,1.08.47c.5,0,.77-.23.77-.54s-.4-.48-.84-.58-1.18-.28-1.18-1c0-.5.44-.93,1.21-.93a1.65,1.65,0,0,1,1.21.47l-.24.35a1.24,1.24,0,0,0-1-.41c-.44,0-.72.2-.72.49s.37.42.8.52,1.22.29,1.22,1c0,.55-.44,1-1.28,1a1.7,1.7,0,0,1-1.32-.52Z"/><path d="M709.21,290.78c0-.57-.3-.74-.73-.74a1.27,1.27,0,0,0-1,.51v2.38H707v-4.5h.5v1.71a1.63,1.63,0,0,1,1.17-.55.92.92,0,0,1,1,1v2.3h-.51Z"/><rect class="cls-9" x="461.18" y="83.09" width="70" height="100.58"/><rect class="cls-9" x="539.35" y="83.09" width="70" height="100.58"/><rect class="cls-9" x="632.53" y="83.09" width="70" height="100.58"/><rect class="cls-9" x="710.8" y="83.09" width="70" height="100.58"/><rect class="cls-13" x="734.06" y="148.86" width="23.07" height="23.07" rx="0.72" transform="translate(585.2 905.99) rotate(-90)"/><path d="M739.81,157.27h-2.28l-.4,1h-.62l1.81-4.5H739l1.82,4.5h-.62Zm-2.12-.49h1.95l-1-2.51Z"/><path d="M741.31,157.48a1.46,1.46,0,0,0,1.07.46c.5,0,.77-.22.77-.54s-.4-.47-.84-.58-1.18-.27-1.18-.95c0-.5.44-.94,1.22-.94a1.61,1.61,0,0,1,1.2.48l-.23.35a1.26,1.26,0,0,0-1-.41c-.45,0-.72.2-.72.49s.37.42.79.52c.57.13,1.22.29,1.22,1,0,.55-.44,1-1.28,1a1.73,1.73,0,0,1-1.31-.51Z"/><path d="M744.4,159.51V155h.51v.48a1.36,1.36,0,0,1,1.1-.57c.85,0,1.45.65,1.45,1.71s-.6,1.71-1.45,1.71a1.33,1.33,0,0,1-1.1-.57v1.73Zm1.48-4.12a1.17,1.17,0,0,0-1,.52v1.47a1.2,1.2,0,0,0,1,.52c.65,0,1-.54,1-1.26S746.53,155.39,745.88,155.39Z"/><path d="M749.62,154.93a1.58,1.58,0,0,1,1.57,1.75v.13h-2.64a1.15,1.15,0,0,0,1.17,1.13,1.41,1.41,0,0,0,1-.42l.24.33a1.73,1.73,0,0,1-1.29.5,1.61,1.61,0,0,1-1.66-1.71A1.63,1.63,0,0,1,749.62,154.93Zm-1.07,1.51h2.14a1.06,1.06,0,0,0-1.07-1.09A1.09,1.09,0,0,0,748.55,156.44Z"/><path d="M754.14,156.14c0-.57-.29-.75-.73-.75a1.23,1.23,0,0,0-1,.5v2.38h-.51V155h.51v.47a1.59,1.59,0,0,1,1.16-.56.93.93,0,0,1,1,1.06v2.28h-.5Z"/><path d="M742.21,162.78l-1.53,3.74h-.23l-1.53-3.74v3.74h-.55V162h.8l1.39,3.43L742,162h.8v4.5h-.56Z"/><path d="M745.15,163.18a1.58,1.58,0,0,1,1.57,1.75v.13h-2.64a1.15,1.15,0,0,0,1.18,1.13,1.4,1.4,0,0,0,1-.42l.24.33a1.73,1.73,0,0,1-1.29.5,1.61,1.61,0,0,1-1.66-1.71A1.63,1.63,0,0,1,745.15,163.18Zm-1.07,1.51h2.14a1.06,1.06,0,0,0-1.07-1.09A1.09,1.09,0,0,0,744.08,164.69Z"/><path d="M747.45,165.73a1.48,1.48,0,0,0,1.07.46c.5,0,.77-.22.77-.54s-.4-.47-.84-.58-1.17-.27-1.17-.95c0-.5.43-.94,1.21-.94a1.65,1.65,0,0,1,1.21.48l-.24.35a1.26,1.26,0,0,0-1-.41c-.45,0-.72.2-.72.49s.37.42.79.52c.57.13,1.22.29,1.22,1,0,.55-.43,1-1.28,1a1.73,1.73,0,0,1-1.31-.51Z"/><path d="M752.75,164.38c0-.58-.3-.74-.74-.74a1.27,1.27,0,0,0-1,.5v2.38h-.51V162h.51v1.72a1.61,1.61,0,0,1,1.16-.56.91.91,0,0,1,1,1v2.3h-.5Z"/><rect class="cls-13" x="730.25" y="88.09" width="30.77" height="37.86" rx="0.96" transform="translate(638.61 852.66) rotate(-90)"/><path d="M737.78,108.61a1.88,1.88,0,0,1-1.44.61,1.45,1.45,0,0,1-1.52-1.44,1.42,1.42,0,0,1,1.52-1.44,1.81,1.81,0,0,1,1.44.6v-.78c0-.59-.47-.92-1.1-.92a1.73,1.73,0,0,0-1.33.6l-.32-.47a2.31,2.31,0,0,1,1.74-.72c.92,0,1.68.42,1.68,1.47v3h-.67Zm0-1.24a1.46,1.46,0,0,0-1.2-.54,1,1,0,1,0,0,1.9,1.46,1.46,0,0,0,1.2-.54Z"/><path d="M739.71,110.76v-6h.68v.65a1.81,1.81,0,0,1,1.46-.76c1.15,0,1.94.87,1.94,2.28s-.79,2.29-1.94,2.29a1.77,1.77,0,0,1-1.46-.77v2.31Zm2-5.51a1.59,1.59,0,0,0-1.29.7v2a1.59,1.59,0,0,0,1.29.7c.88,0,1.4-.72,1.4-1.68S742.56,105.25,741.68,105.25Z"/><path d="M744.79,110.76v-6h.67v.65a1.84,1.84,0,0,1,1.47-.76c1.14,0,1.94.87,1.94,2.28s-.8,2.29-1.94,2.29a1.79,1.79,0,0,1-1.47-.77v2.31Zm2-5.51a1.63,1.63,0,0,0-1.3.7v2a1.63,1.63,0,0,0,1.3.7c.87,0,1.39-.72,1.39-1.68S747.63,105.25,746.76,105.25Z"/><path d="M752.87,104.26v4.85h-.75v-6h.77l3.45,4.75V103.1h.75v6h-.72Z"/><line class="cls-14" x1="754.12" y1="144.61" x2="754.12" y2="126.78"/><polygon class="cls-15" points="758.21 141.29 757.48 140.61 754.12 144.22 750.76 140.61 750.03 141.29 754.12 145.69 758.21 141.29"/><polygon class="cls-15" points="758.21 130.09 757.48 130.77 754.12 127.16 750.76 130.77 750.03 130.09 754.12 125.69 758.21 130.09"/><line class="cls-14" x1="738.14" y1="126.78" x2="738.14" y2="144.61"/><polygon class="cls-15" points="734.05 130.09 734.78 130.77 738.14 127.16 741.5 130.77 742.23 130.09 738.14 125.69 734.05 130.09"/><polygon class="cls-15" points="734.05 141.29 734.78 140.61 738.14 144.22 741.5 140.61 742.23 141.29 738.14 145.69 734.05 141.29"/><rect class="cls-13" x="687.55" y="322.82" width="30.77" height="37.86" rx="0.96" transform="translate(361.19 1044.68) rotate(-90)"/><path d="M699.33,338.06a1.89,1.89,0,0,1-1.44.6,1.44,1.44,0,0,1-1.52-1.44,1.42,1.42,0,0,1,1.52-1.43,1.82,1.82,0,0,1,1.44.59v-.78c0-.58-.46-.92-1.09-.92a1.72,1.72,0,0,0-1.34.61l-.31-.47a2.26,2.26,0,0,1,1.74-.72c.91,0,1.68.41,1.68,1.46v3h-.68Zm0-1.24a1.45,1.45,0,0,0-1.19-.54,1,1,0,1,0,0,1.9,1.48,1.48,0,0,0,1.19-.54Z"/><path d="M701.27,340.21v-6h.67v.65a1.83,1.83,0,0,1,1.47-.75c1.14,0,1.94.86,1.94,2.27s-.8,2.29-1.94,2.29a1.8,1.8,0,0,1-1.47-.76v2.31Zm2-5.51a1.64,1.64,0,0,0-1.3.69v2a1.65,1.65,0,0,0,1.3.7c.87,0,1.39-.72,1.39-1.69S704.11,334.7,703.24,334.7Z"/><path d="M706.34,340.21v-6H707v.65a1.8,1.8,0,0,1,1.47-.75c1.14,0,1.93.86,1.93,2.27s-.79,2.29-1.93,2.29a1.79,1.79,0,0,1-1.47-.76v2.31Zm2-5.51a1.61,1.61,0,0,0-1.3.69v2a1.62,1.62,0,0,0,1.3.7c.87,0,1.39-.72,1.39-1.69S709.19,334.7,708.32,334.7Z"/><path d="M693.54,343.55h3.94v.66h-3.19v1.94h3.13v.67h-3.13v2.07h3.19v.66h-3.94Z"/><path d="M698.36,349c2.16-1.7,3.33-2.7,3.33-3.74a1.13,1.13,0,0,0-1.25-1.1,2,2,0,0,0-1.63.76l-.46-.48a2.61,2.61,0,0,1,2.09-.94,1.83,1.83,0,0,1,2,1.76c0,1.23-1.25,2.34-2.92,3.67h2.94v.66h-4.12Z"/><path d="M703.35,347.08h2.16v.59h-2.16Z"/><path d="M706.39,343.55h2.41a1.81,1.81,0,1,1,0,3.62h-1.67v2.38h-.74Zm2.32.66h-1.58v2.29h1.58a1.15,1.15,0,1,0,0-2.29Z"/><path d="M712.48,344.54l-1,1-.45-.46,1.5-1.55h.66v6h-.75Z"/><rect class="cls-13" x="613.45" y="322.82" width="30.77" height="37.86" rx="0.96" transform="translate(287.08 970.58) rotate(-90)"/><path d="M621.6,341.56a3,3,0,0,1,3.06-3.11,2.73,2.73,0,0,1,2.31,1.19l-.63.35a2.06,2.06,0,0,0-1.68-.87,2.45,2.45,0,0,0,0,4.88,2,2,0,0,0,1.68-.87l.64.35a2.76,2.76,0,0,1-2.32,1.19A3,3,0,0,1,621.6,341.56Z"/><path d="M629.33,339.22h-1.9v-.67H632v.67h-1.91v5.34h-.74Z"/><path d="M632.93,343.14a2.53,2.53,0,0,0,1.89.86c1.08,0,1.42-.58,1.42-1,0-.72-.73-.91-1.52-1.13-1-.25-2-.52-2-1.7,0-1,.88-1.67,2.06-1.67a2.85,2.85,0,0,1,2.14.84l-.45.55a2.32,2.32,0,0,0-1.74-.72c-.72,0-1.24.39-1.24.95s.7.79,1.46,1c1,.27,2.1.57,2.1,1.83,0,.87-.59,1.77-2.21,1.77a3,3,0,0,1-2.31-1Z"/><rect class="cls-13" x="655.79" y="148.86" width="23.07" height="23.07" rx="0.72" transform="translate(506.93 827.72) rotate(-90)"/><path d="M661.54,157.27h-2.28l-.4,1h-.62l1.81-4.5h.69l1.82,4.5h-.62Zm-2.12-.49h2l-1-2.51Z"/><path d="M663,157.48a1.48,1.48,0,0,0,1.07.46c.5,0,.77-.22.77-.54s-.4-.47-.84-.58-1.17-.27-1.17-.95c0-.5.43-.94,1.21-.94a1.65,1.65,0,0,1,1.21.48l-.24.35a1.26,1.26,0,0,0-1-.41c-.45,0-.72.2-.72.49s.37.42.79.52c.57.13,1.22.29,1.22,1,0,.55-.43,1-1.28,1a1.73,1.73,0,0,1-1.31-.51Z"/><path d="M666.13,159.51V155h.51v.48a1.36,1.36,0,0,1,1.1-.57c.85,0,1.45.65,1.45,1.71s-.6,1.71-1.45,1.71a1.33,1.33,0,0,1-1.1-.57v1.73Zm1.48-4.12a1.17,1.17,0,0,0-1,.52v1.47a1.2,1.2,0,0,0,1,.52c.65,0,1-.54,1-1.26S668.26,155.39,667.61,155.39Z"/><path d="M671.35,154.93a1.58,1.58,0,0,1,1.57,1.75v.13h-2.64a1.15,1.15,0,0,0,1.18,1.13,1.4,1.4,0,0,0,1-.42l.24.33a1.73,1.73,0,0,1-1.29.5,1.61,1.61,0,0,1-1.66-1.71A1.63,1.63,0,0,1,671.35,154.93Zm-1.07,1.51h2.14a1.06,1.06,0,0,0-1.07-1.09A1.09,1.09,0,0,0,670.28,156.44Z"/><path d="M675.87,156.14c0-.57-.29-.75-.73-.75a1.25,1.25,0,0,0-1,.5v2.38h-.51V155h.51v.47a1.61,1.61,0,0,1,1.16-.56.93.93,0,0,1,1,1.06v2.28h-.5Z"/><path d="M663.94,162.78l-1.53,3.74h-.23l-1.52-3.74v3.74h-.56V162h.8l1.39,3.43L663.7,162h.8v4.5h-.56Z"/><path d="M666.89,163.18a1.58,1.58,0,0,1,1.56,1.75v.13h-2.64a1.16,1.16,0,0,0,1.18,1.13,1.38,1.38,0,0,0,1-.42l.25.33a1.77,1.77,0,0,1-1.3.5,1.62,1.62,0,0,1-1.66-1.71A1.63,1.63,0,0,1,666.89,163.18Zm-1.08,1.51H668a1.05,1.05,0,0,0-1.07-1.09A1.09,1.09,0,0,0,665.81,164.69Z"/><path d="M669.18,165.73a1.48,1.48,0,0,0,1.07.46c.5,0,.77-.22.77-.54s-.4-.47-.83-.58-1.18-.27-1.18-.95c0-.5.44-.94,1.21-.94a1.65,1.65,0,0,1,1.21.48l-.24.35a1.24,1.24,0,0,0-1-.41c-.44,0-.72.2-.72.49s.37.42.79.52c.57.13,1.23.29,1.23,1,0,.55-.44,1-1.29,1a1.73,1.73,0,0,1-1.31-.51Z"/><path d="M674.48,164.38c0-.58-.3-.74-.74-.74a1.27,1.27,0,0,0-1,.5v2.38h-.51V162h.51v1.72a1.62,1.62,0,0,1,1.17-.56.91.91,0,0,1,1,1v2.3h-.5Z"/><rect class="cls-13" x="651.98" y="88.09" width="30.77" height="37.86" rx="0.96" transform="translate(560.34 774.39) rotate(-90)"/><path d="M660.38,103.1h.74v6h-.74Z"/><path d="M665.28,103a2.88,2.88,0,0,1,2.34,1.13l-.6.37a2.21,2.21,0,0,0-1.74-.83,2.45,2.45,0,0,0,0,4.89,2.39,2.39,0,0,0,1.62-.65v-1.22h-2.07V106h2.81v2.17a3.14,3.14,0,0,1-2.36,1,3.12,3.12,0,0,1,0-6.23Z"/><path d="M668.33,106.63h2.16v.6h-2.16Z"/><path d="M671.16,108.51c2.16-1.7,3.33-2.7,3.33-3.73a1.12,1.12,0,0,0-1.25-1.1,2,2,0,0,0-1.63.76l-.46-.48a2.61,2.61,0,0,1,2.09-.95,1.83,1.83,0,0,1,2,1.77c0,1.22-1.25,2.34-2.92,3.66h2.94v.67h-4.12Z"/><line class="cls-14" x1="675.85" y1="144.61" x2="675.85" y2="126.78"/><polygon class="cls-15" points="679.95 141.29 679.21 140.61 675.86 144.22 672.5 140.61 671.77 141.29 675.86 145.69 679.95 141.29"/><polygon class="cls-15" points="679.95 130.09 679.21 130.77 675.86 127.16 672.5 130.77 671.77 130.09 675.86 125.69 679.95 130.09"/><line class="cls-14" x1="659.87" y1="126.78" x2="659.87" y2="144.61"/><polygon class="cls-15" points="655.78 130.09 656.51 130.77 659.87 127.16 663.23 130.77 663.96 130.09 659.87 125.69 655.78 130.09"/><polygon class="cls-15" points="655.78 141.29 656.51 140.61 659.87 144.22 663.23 140.61 663.96 141.29 659.87 145.69 655.78 141.29"/><rect class="cls-13" x="562.61" y="148.86" width="23.07" height="23.07" rx="0.72" transform="translate(413.75 734.54) rotate(-90)"/><path d="M568.36,157.27h-2.28l-.4,1h-.62l1.81-4.5h.69l1.82,4.5h-.62Zm-2.12-.49h2l-1-2.51Z"/><path d="M569.86,157.48a1.46,1.46,0,0,0,1.07.46c.5,0,.77-.22.77-.54s-.4-.47-.84-.58-1.18-.27-1.18-.95c0-.5.44-.94,1.22-.94a1.61,1.61,0,0,1,1.2.48l-.23.35a1.26,1.26,0,0,0-1-.41c-.45,0-.72.2-.72.49s.37.42.79.52,1.22.29,1.22,1c0,.55-.44,1-1.28,1a1.73,1.73,0,0,1-1.31-.51Z"/><path d="M573,159.51V155h.51v.48a1.36,1.36,0,0,1,1.1-.57c.85,0,1.45.65,1.45,1.71s-.6,1.71-1.45,1.71a1.33,1.33,0,0,1-1.1-.57v1.73Zm1.48-4.12a1.17,1.17,0,0,0-1,.52v1.47a1.2,1.2,0,0,0,1,.52c.65,0,1-.54,1-1.26S575.08,155.39,574.43,155.39Z"/><path d="M578.17,154.93a1.58,1.58,0,0,1,1.57,1.75v.13H577.1a1.15,1.15,0,0,0,1.17,1.13,1.41,1.41,0,0,0,1-.42l.24.33a1.73,1.73,0,0,1-1.29.5,1.61,1.61,0,0,1-1.66-1.71A1.63,1.63,0,0,1,578.17,154.93Zm-1.07,1.51h2.14a1.06,1.06,0,0,0-1.07-1.09A1.09,1.09,0,0,0,577.1,156.44Z"/><path d="M582.69,156.14c0-.57-.29-.75-.73-.75a1.27,1.27,0,0,0-1,.5v2.38h-.5V155h.5v.47a1.64,1.64,0,0,1,1.17-.56.93.93,0,0,1,1,1.06v2.28h-.5Z"/><path d="M570.76,162.78l-1.53,3.74H569l-1.53-3.74v3.74h-.56V162h.81l1.39,3.43,1.41-3.43h.8v4.5h-.56Z"/><path d="M573.7,163.18a1.58,1.58,0,0,1,1.57,1.75v.13h-2.64a1.15,1.15,0,0,0,1.18,1.13,1.4,1.4,0,0,0,1-.42l.24.33a1.73,1.73,0,0,1-1.29.5,1.61,1.61,0,0,1-1.66-1.71A1.63,1.63,0,0,1,573.7,163.18Zm-1.07,1.51h2.14a1.06,1.06,0,0,0-1.07-1.09A1.09,1.09,0,0,0,572.63,164.69Z"/><path d="M576,165.73a1.48,1.48,0,0,0,1.07.46c.5,0,.77-.22.77-.54s-.4-.47-.84-.58-1.17-.27-1.17-.95c0-.5.43-.94,1.21-.94a1.65,1.65,0,0,1,1.21.48L578,164a1.26,1.26,0,0,0-1-.41c-.45,0-.72.2-.72.49s.37.42.79.52,1.22.29,1.22,1c0,.55-.43,1-1.28,1a1.73,1.73,0,0,1-1.31-.51Z"/><path d="M581.3,164.38c0-.58-.3-.74-.74-.74a1.27,1.27,0,0,0-1,.5v2.38h-.51V162h.51v1.72a1.61,1.61,0,0,1,1.16-.56.91.91,0,0,1,1,1v2.3h-.5Z"/><rect class="cls-13" x="558.8" y="88.09" width="30.77" height="37.86" rx="0.96" transform="translate(467.16 681.21) rotate(-90)"/><path d="M568.32,103.1h.74v6h-.74Z"/><path d="M573.22,103a2.86,2.86,0,0,1,2.33,1.13l-.59.37a2.21,2.21,0,0,0-1.74-.83,2.45,2.45,0,0,0,0,4.89,2.34,2.34,0,0,0,1.61-.65v-1.22h-2.06V106h2.81v2.17a3.14,3.14,0,0,1-2.36,1,3.12,3.12,0,0,1,0-6.23Z"/><path d="M576.27,106.63h2.16v.6h-2.16Z"/><path d="M580.21,104.09l-1,1-.45-.46,1.5-1.55H581v6h-.75Z"/><line class="cls-14" x1="582.67" y1="144.61" x2="582.67" y2="126.78"/><polygon class="cls-15" points="586.76 141.29 586.03 140.61 582.67 144.22 579.32 140.61 578.58 141.29 582.67 145.69 586.76 141.29"/><polygon class="cls-15" points="586.76 130.09 586.03 130.77 582.67 127.16 579.32 130.77 578.58 130.09 582.67 125.69 586.76 130.09"/><line class="cls-14" x1="566.69" y1="126.78" x2="566.69" y2="144.61"/><polygon class="cls-15" points="562.6 130.09 563.33 130.77 566.69 127.16 570.05 130.77 570.78 130.09 566.69 125.69 562.6 130.09"/><polygon class="cls-15" points="562.6 141.29 563.33 140.61 566.69 144.22 570.05 140.61 570.78 141.29 566.69 145.69 562.6 141.29"/><rect class="cls-13" x="484.44" y="148.86" width="23.07" height="23.07" rx="0.72" transform="translate(335.58 656.37) rotate(-90)"/><path d="M490.19,157.27h-2.28l-.4,1h-.62l1.81-4.5h.69l1.81,4.5h-.62Zm-2.12-.49H490l-1-2.51Z"/><path d="M491.69,157.48a1.45,1.45,0,0,0,1.07.46c.5,0,.77-.22.77-.54s-.4-.47-.84-.58-1.18-.27-1.18-.95c0-.5.44-.94,1.22-.94a1.61,1.61,0,0,1,1.2.48l-.23.35a1.27,1.27,0,0,0-1-.41c-.45,0-.73.2-.73.49s.37.42.8.52,1.22.29,1.22,1c0,.55-.44,1-1.28,1a1.75,1.75,0,0,1-1.32-.51Z"/><path d="M494.78,159.51V155h.5v.48a1.37,1.37,0,0,1,1.1-.57c.86,0,1.45.65,1.45,1.71s-.59,1.71-1.45,1.71a1.36,1.36,0,0,1-1.1-.57v1.73Zm1.47-4.12a1.2,1.2,0,0,0-1,.52v1.47a1.23,1.23,0,0,0,1,.52c.66,0,1.05-.54,1.05-1.26S496.91,155.39,496.25,155.39Z"/><path d="M500,154.93a1.58,1.58,0,0,1,1.57,1.75v.13h-2.64a1.15,1.15,0,0,0,1.17,1.13,1.42,1.42,0,0,0,1-.42l.24.33a1.73,1.73,0,0,1-1.29.5,1.61,1.61,0,0,1-1.66-1.71A1.63,1.63,0,0,1,500,154.93Zm-1.07,1.51h2.14a1.06,1.06,0,0,0-1.08-1.09A1.09,1.09,0,0,0,498.93,156.44Z"/><path d="M504.52,156.14c0-.57-.29-.75-.73-.75a1.27,1.27,0,0,0-1,.5v2.38h-.5V155h.5v.47a1.63,1.63,0,0,1,1.16-.56.93.93,0,0,1,1,1.06v2.28h-.5Z"/><path d="M492.59,162.78l-1.53,3.74h-.23l-1.53-3.74v3.74h-.56V162h.81l1.39,3.43,1.4-3.43h.81v4.5h-.56Z"/><path d="M495.53,163.18a1.58,1.58,0,0,1,1.57,1.75v.13h-2.64a1.15,1.15,0,0,0,1.17,1.13,1.42,1.42,0,0,0,1-.42l.24.33a1.73,1.73,0,0,1-1.29.5,1.61,1.61,0,0,1-1.66-1.71A1.63,1.63,0,0,1,495.53,163.18Zm-1.07,1.51h2.14a1.06,1.06,0,0,0-1.07-1.09A1.09,1.09,0,0,0,494.46,164.69Z"/><path d="M497.83,165.73a1.46,1.46,0,0,0,1.07.46c.5,0,.77-.22.77-.54s-.4-.47-.84-.58-1.18-.27-1.18-.95c0-.5.44-.94,1.22-.94a1.61,1.61,0,0,1,1.2.48l-.23.35a1.27,1.27,0,0,0-1-.41c-.45,0-.72.2-.72.49s.37.42.79.52,1.22.29,1.22,1c0,.55-.44,1-1.28,1a1.73,1.73,0,0,1-1.31-.51Z"/><path d="M503.12,164.38c0-.58-.29-.74-.73-.74a1.27,1.27,0,0,0-1,.5v2.38h-.51V162h.51v1.72a1.61,1.61,0,0,1,1.16-.56.92.92,0,0,1,1,1v2.3h-.51Z"/><rect class="cls-13" x="480.63" y="88.09" width="30.77" height="37.86" rx="0.96" transform="translate(388.99 603.04) rotate(-90)"/><path d="M490.49,107.78h-3l-.54,1.33h-.82l2.41-6h.93l2.42,6H491Zm-2.83-.67h2.6L489,103.77Z"/><path d="M497.67,104.11l-2,5h-.31l-2-5v5h-.75v-6h1.07l1.86,4.58,1.88-4.58h1.07v6h-.75Z"/><path d="M499.3,106.63h2.16v.6H499.3Z"/><path d="M502.12,108.51c2.16-1.7,3.33-2.7,3.33-3.73a1.12,1.12,0,0,0-1.25-1.1,2,2,0,0,0-1.63.76l-.45-.48a2.59,2.59,0,0,1,2.08-.95,1.83,1.83,0,0,1,2,1.77c0,1.22-1.24,2.34-2.92,3.66h2.95v.67h-4.13Z"/><line class="cls-14" x1="504.5" y1="144.61" x2="504.5" y2="126.78"/><polygon class="cls-15" points="508.59 141.29 507.86 140.61 504.5 144.22 501.14 140.61 500.41 141.29 504.5 145.69 508.59 141.29"/><polygon class="cls-15" points="508.59 130.09 507.86 130.77 504.5 127.16 501.14 130.77 500.41 130.09 504.5 125.69 508.59 130.09"/><line class="cls-14" x1="488.52" y1="126.78" x2="488.52" y2="144.61"/><polygon class="cls-15" points="484.43 130.09 485.16 130.77 488.52 127.16 491.88 130.77 492.61 130.09 488.52 125.69 484.43 130.09"/><polygon class="cls-15" points="484.43 141.29 485.16 140.61 488.52 144.22 491.88 140.61 492.61 141.29 488.52 145.69 484.43 141.29"/><line class="cls-14" x1="695.91" y1="321.54" x2="695.91" y2="303.71"/><polygon class="cls-15" points="700 318.22 699.27 317.54 695.91 321.15 692.55 317.54 691.82 318.22 695.91 322.62 700 318.22"/><polygon class="cls-15" points="700 307.02 699.27 307.7 695.91 304.09 692.55 307.7 691.82 307.02 695.91 302.62 700 307.02"/><line class="cls-14" x1="711.89" y1="303.71" x2="711.89" y2="321.54"/><polygon class="cls-15" points="707.8 307.02 708.54 307.7 711.89 304.09 715.25 307.7 715.98 307.02 711.89 302.62 707.8 307.02"/><polygon class="cls-15" points="707.8 318.22 708.54 317.54 711.89 321.15 715.25 317.54 715.98 318.22 711.89 322.62 707.8 318.22"/><line class="cls-14" x1="620.9" y1="321.54" x2="620.9" y2="303.71"/><polygon class="cls-15" points="624.99 318.22 624.26 317.54 620.9 321.15 617.54 317.54 616.81 318.22 620.9 322.62 624.99 318.22"/><polygon class="cls-15" points="624.99 307.02 624.26 307.7 620.9 304.09 617.54 307.7 616.81 307.02 620.9 302.62 624.99 307.02"/><line class="cls-14" x1="636.88" y1="303.71" x2="636.88" y2="321.54"/><polygon class="cls-15" points="632.79 307.02 633.52 307.7 636.88 304.09 640.24 307.7 640.97 307.02 636.88 302.62 632.79 307.02"/><polygon class="cls-15" points="632.79 318.22 633.52 317.54 636.88 321.15 640.24 317.54 640.97 318.22 636.88 322.62 632.79 318.22"/><line class="cls-4" x1="251.37" y1="298.84" x2="348.96" y2="311.28"/><polygon class="cls-5" points="254.14 303.32 254.91 302.68 251.75 298.89 255.75 296.02 255.17 295.2 250.29 298.7 254.14 303.32"/><polygon class="cls-5" points="345.15 314.92 344.57 314.11 348.57 311.23 345.42 307.44 346.19 306.81 350.03 311.42 345.15 314.92"/><line class="cls-4" x1="490.27" y1="311.22" x2="563.74" y2="191.29"/><polygon class="cls-5" points="495.48 310.53 495.22 309.56 490.47 310.89 489.49 306.06 488.51 306.26 489.7 312.14 495.48 310.53"/><polygon class="cls-5" points="565.5 196.25 564.52 196.45 563.54 191.61 558.79 192.94 558.52 191.98 564.31 190.36 565.5 196.25"/><rect class="cls-18" x="315.07" y="315.52" width="87.46" height="73.41"/><path d="M349.17,339.11h2.37A1.29,1.29,0,0,1,353,340.4a1.14,1.14,0,0,1-.88,1.15,1.25,1.25,0,0,1,1,1.24,1.33,1.33,0,0,1-1.47,1.37h-2.43Zm2.23,2.14a.72.72,0,0,0,.79-.73.72.72,0,0,0-.79-.75h-1.47v1.48Zm0,2.24a.76.76,0,0,0,.85-.79.77.77,0,0,0-.85-.78h-1.51v1.57Z"/><path d="M353.82,339.11h.76v5.05h-.76Z"/><path d="M357.92,339a2.38,2.38,0,0,1,2,1l-.61.36a1.74,1.74,0,0,0-1.39-.68,1.94,1.94,0,0,0,0,3.88,1.94,1.94,0,0,0,1.28-.5v-.91h-1.62v-.66H360v1.85a2.69,2.69,0,0,1-2,.9,2.62,2.62,0,1,1,0-5.23Z"/><path d="M360.41,342h1.82v.59h-1.82Z"/><path d="M362.82,339.11h.76v5.05h-.76Z"/><path d="M364.52,339.11h2.13a1.55,1.55,0,1,1,0,3.1h-1.37v2h-.76Zm2,.66h-1.27v1.78h1.27a.89.89,0,1,0,0-1.78Z"/><circle class="cls-19" cx="358.55" cy="341.53" r="14.77"/><path d="M346,366.07a2.32,2.32,0,0,0,1.75.79c1,0,1.3-.53,1.3-.95,0-.67-.67-.85-1.41-1.05s-1.88-.49-1.88-1.58c0-.92.82-1.54,1.91-1.54a2.56,2.56,0,0,1,2,.78l-.41.5a2.12,2.12,0,0,0-1.61-.66c-.67,0-1.14.36-1.14.88s.64.72,1.35.92c.91.24,1.94.52,1.94,1.69,0,.81-.55,1.63-2.05,1.63a2.76,2.76,0,0,1-2.13-.88Z"/><path d="M352.42,363.26a2,2,0,0,1,1.94,2.15v.16H351.1a1.41,1.41,0,0,0,1.45,1.39,1.77,1.77,0,0,0,1.24-.5l.3.4a2.19,2.19,0,0,1-1.6.62,2.11,2.11,0,0,1-.07-4.22Zm-1.32,1.85h2.64a1.3,1.3,0,0,0-1.32-1.34A1.35,1.35,0,0,0,351.1,365.11Z"/><path d="M355.28,363.36h.63V364a1.69,1.69,0,0,1,1.34-.74v.64l-.25,0a1.48,1.48,0,0,0-1.09.64v2.85h-.63Z"/><path d="M357.35,363.36H358l1.34,3.3,1.34-3.3h.68l-1.67,4H359Z"/><path d="M361.84,362.29a.42.42,0,1,1,.84,0,.42.42,0,1,1-.84,0Zm.11,1.07h.62v4H362Z"/><path d="M365.51,363.26a1.73,1.73,0,0,1,1.48.7l-.42.38a1.19,1.19,0,0,0-1-.53,1.56,1.56,0,0,0,0,3.11,1.21,1.21,0,0,0,1-.52l.42.38a1.73,1.73,0,0,1-1.48.7,2.11,2.11,0,0,1,0-4.22Z"/><path d="M369.53,363.26a2,2,0,0,1,1.93,2.15v.16H368.2a1.42,1.42,0,0,0,1.45,1.39,1.8,1.8,0,0,0,1.25-.5l.3.4a2.2,2.2,0,0,1-1.6.62,2.11,2.11,0,0,1-.07-4.22Zm-1.33,1.85h2.65a1.31,1.31,0,0,0-1.33-1.34A1.35,1.35,0,0,0,368.2,365.11Z"/><path d="M349.23,370.16h2.23a1.67,1.67,0,1,1,0,3.34h-1.54v2.21h-.69Zm2.15.61h-1.46v2.12h1.46a1.06,1.06,0,1,0,0-2.12Z"/><path d="M354,371.69h.62v.65a1.7,1.7,0,0,1,1.34-.73v.64a.85.85,0,0,0-.25,0,1.5,1.5,0,0,0-1.09.64v2.85H354Z"/><path d="M356.44,373.7c-.15-2.75,4.13-2.75,4,0C360.57,376.45,356.29,376.45,356.44,373.7Zm3.32,0a1.34,1.34,0,1,0-2.67,0A1.34,1.34,0,1,0,359.76,373.7Z"/><path d="M362.5,374.06l-1.21,1.65h-.72l1.55-2.06-1.46-2h.72l1.12,1.53,1.11-1.53h.73l-1.46,2,1.55,2.06h-.72Z"/><path d="M365.28,376.79a.57.57,0,0,0,.6-.43l.27-.61-1.69-4.06h.68l1.34,3.3,1.33-3.3h.69l-2,4.84a1.2,1.2,0,0,1-1.18.82,2.22,2.22,0,0,1-.46-.06l.1-.57A1,1,0,0,0,365.28,376.79Z"/><rect class="cls-18" x="437.33" y="315.52" width="87.46" height="73.41"/><path d="M471.44,339.11h2.37a1.28,1.28,0,0,1,1.42,1.29,1.14,1.14,0,0,1-.88,1.15,1.25,1.25,0,0,1,1,1.24,1.32,1.32,0,0,1-1.46,1.37h-2.43Zm2.22,2.14a.72.72,0,0,0,.79-.73.72.72,0,0,0-.79-.75h-1.47v1.48Zm0,2.24a.76.76,0,0,0,.85-.79.77.77,0,0,0-.85-.78h-1.51v1.57Z"/><path d="M476.08,339.11h.76v5.05h-.76Z"/><path d="M480.18,339a2.38,2.38,0,0,1,2,1l-.61.36a1.74,1.74,0,0,0-1.39-.68,1.94,1.94,0,0,0,0,3.88,1.94,1.94,0,0,0,1.28-.5v-.91h-1.62v-.66h2.38v1.85a2.68,2.68,0,0,1-2,.9,2.62,2.62,0,0,1,0-5.23Z"/><path d="M482.67,342h1.82v.59h-1.82Z"/><path d="M485.08,339.11h.76v5.05h-.76Z"/><path d="M486.78,339.11h2.13a1.55,1.55,0,1,1,0,3.1h-1.37v2h-.76Zm2,.66h-1.27v1.78h1.27a.89.89,0,1,0,0-1.78Z"/><circle class="cls-19" cx="480.81" cy="341.53" r="14.77"/><path d="M468.24,366.07a2.32,2.32,0,0,0,1.75.79c1,0,1.3-.53,1.3-.95,0-.67-.67-.85-1.4-1.05-.89-.24-1.89-.49-1.89-1.58,0-.92.82-1.54,1.91-1.54a2.6,2.6,0,0,1,2,.78l-.42.5a2.12,2.12,0,0,0-1.61-.66c-.66,0-1.14.36-1.14.88s.64.72,1.35.92c.91.24,1.94.52,1.94,1.69,0,.81-.55,1.63-2.05,1.63a2.78,2.78,0,0,1-2.13-.88Z"/><path d="M474.69,363.26a2,2,0,0,1,1.93,2.15v.16h-3.26a1.42,1.42,0,0,0,1.45,1.39,1.75,1.75,0,0,0,1.24-.5l.3.4a2.19,2.19,0,0,1-1.6.62,2.11,2.11,0,0,1-.06-4.22Zm-1.33,1.85H476a1.3,1.3,0,0,0-1.32-1.34A1.35,1.35,0,0,0,473.36,365.11Z"/><path d="M477.54,363.36h.63V364a1.69,1.69,0,0,1,1.34-.74v.64l-.25,0a1.48,1.48,0,0,0-1.09.64v2.85h-.63Z"/><path d="M479.61,363.36h.67l1.35,3.3,1.33-3.3h.68l-1.67,4h-.69Z"/><path d="M484.1,362.29a.42.42,0,1,1,.84,0,.42.42,0,1,1-.84,0Zm.11,1.07h.62v4h-.62Z"/><path d="M487.78,363.26a1.72,1.72,0,0,1,1.47.7l-.42.38a1.17,1.17,0,0,0-1-.53,1.56,1.56,0,0,0,0,3.11,1.18,1.18,0,0,0,1-.52l.42.38a1.72,1.72,0,0,1-1.47.7,2.11,2.11,0,0,1,0-4.22Z"/><path d="M491.79,363.26a2,2,0,0,1,1.93,2.15v.16h-3.25a1.41,1.41,0,0,0,1.45,1.39,1.79,1.79,0,0,0,1.24-.5l.3.4a2.19,2.19,0,0,1-1.6.62,2.11,2.11,0,0,1-.07-4.22Zm-1.32,1.85h2.64a1.31,1.31,0,0,0-1.33-1.34A1.34,1.34,0,0,0,490.47,365.11Z"/><path d="M471.49,370.16h2.23a1.67,1.67,0,1,1,0,3.34h-1.54v2.21h-.69Zm2.15.61h-1.46v2.12h1.46a1.06,1.06,0,1,0,0-2.12Z"/><path d="M476.27,371.69h.63v.65a1.68,1.68,0,0,1,1.34-.73v.64a1,1,0,0,0-.25,0,1.46,1.46,0,0,0-1.09.64v2.85h-.63Z"/><path d="M478.7,373.7c-.14-2.75,4.13-2.75,4,0C482.83,376.45,478.56,376.45,478.7,373.7Zm3.33,0a1.35,1.35,0,1,0-2.68,0A1.35,1.35,0,1,0,482,373.7Z"/><path d="M484.76,374.06l-1.21,1.65h-.72l1.55-2.06-1.46-2h.72l1.12,1.53,1.12-1.53h.72l-1.46,2,1.55,2.06H486Z"/><path d="M487.54,376.79a.57.57,0,0,0,.6-.43l.27-.61-1.68-4.06h.67l1.34,3.3,1.34-3.3h.68l-2,4.84a1.2,1.2,0,0,1-1.18.82,2.32,2.32,0,0,1-.46-.06l.1-.57A1,1,0,0,0,487.54,376.79Z"/><line class="cls-6" x1="660.94" y1="190.24" x2="634.65" y2="264.81"/><polygon class="cls-7" points="655.93 192.03 656.4 192.92 660.81 190.61 662.79 195.17 663.72 194.77 661.3 189.21 655.93 192.03"/><polygon class="cls-7" points="631.87 260.29 632.8 259.88 634.78 264.45 639.19 262.14 639.66 263.03 634.29 265.85 631.87 260.29"/><rect class="cls-12" x="582" y="222.59" width="140.55" height="18"/><path class="cls-1" d="M634.83,228l-1.51,7.1h-1.61l-.79-3.86-.79,3.86h-1.61L627,228h1.61l.79,4.84.92-4.84h1.19l1,4.83.76-4.83Z"/><path class="cls-1" d="M637.2,229.39v1.55h1.71v1.4H637.2v1.35h2.11v1.4h-3.66V228h3.66v1.4Z"/><path class="cls-1" d="M640.08,233v-.28h1.54v.44a.74.74,0,0,0,.83.73.68.68,0,0,0,.72-.69c0-1.27-3-1-3-3.27a2,2,0,0,1,2.21-2.08,1.94,1.94,0,0,1,2.21,2v.44h-1.55v-.54c0-.31-.3-.49-.67-.49a.59.59,0,0,0-.65.6c0,1,3,.79,3,3.21a2.1,2.1,0,0,1-2.31,2.19A2.15,2.15,0,0,1,640.08,233Z"/><path class="cls-1" d="M649.87,229.39h-1.46v5.7h-1.55v-5.7h-1.48V228h4.49Z"/><path class="cls-1" d="M652.5,231.19h2.36v1.3H652.5Z"/><path class="cls-1" d="M659.37,229.39v1.55h1.72v1.4h-1.72v1.35h2.12v1.4h-3.67V228h3.67v1.4Z"/><path class="cls-1" d="M665.43,233.84H664l-.29,1.25h-1.51l1.53-7.1h2l1.54,7.1h-1.54Zm-.72-4-.45,2.56h.9Z"/><path class="cls-1" d="M667.84,233v-.28h1.55v.44a.74.74,0,0,0,.83.73.68.68,0,0,0,.72-.69c0-1.27-3-1-3-3.27a2,2,0,0,1,2.22-2.08,1.94,1.94,0,0,1,2.21,2v.44h-1.55v-.54c0-.31-.3-.49-.67-.49a.59.59,0,0,0-.65.6c0,1,3,.79,3,3.21a2.1,2.1,0,0,1-2.31,2.19A2.15,2.15,0,0,1,667.84,233Z"/><path class="cls-1" d="M677.64,229.39h-1.47v5.7h-1.55v-5.7h-1.48V228h4.5Z"/><line class="cls-4" x1="358.02" y1="392.05" x2="358.02" y2="419.3"/><polygon class="cls-5" points="353.93 395.36 354.66 396.05 358.02 392.43 361.38 396.05 362.11 395.36 358.02 390.96 353.93 395.36"/><polygon class="cls-5" points="353.93 415.99 354.66 415.31 358.02 418.92 361.38 415.31 362.11 415.99 358.02 420.39 353.93 415.99"/><line class="cls-4" x1="480.62" y1="392.05" x2="480.62" y2="419.3"/><polygon class="cls-5" points="476.53 395.36 477.26 396.05 480.62 392.43 483.97 396.05 484.71 395.36 480.62 390.96 476.53 395.36"/><polygon class="cls-5" points="476.53 415.99 477.26 415.31 480.62 418.92 483.97 415.31 484.71 415.99 480.62 420.39 476.53 415.99"/></g></g></svg>