<?xml version="1.0" encoding="utf-8"?>
<!-- Generator: Adobe Illustrator 25.2.3, SVG Export Plug-In . SVG Version: 6.00 Build 0)  -->
<svg version="1.1" id="Layer_1" xmlns="http://www.w3.org/2000/svg" xmlns:xlink="http://www.w3.org/1999/xlink" x="0px" y="0px"
	 viewBox="0 0 560.57 440.4" style="enable-background:new 0 0 560.57 440.4;" xml:space="preserve">
<style type="text/css">
	.st0{fill:none;stroke:#231F20;stroke-miterlimit:10;}
	.st1{fill:none;stroke:#000000;stroke-linecap:round;stroke-miterlimit:10;}
	.st2{fill:none;stroke:#F36F4C;stroke-linecap:round;stroke-miterlimit:10;}
	.st3{fill:none;stroke:#F36F4C;stroke-linecap:round;stroke-miterlimit:10;stroke-dasharray:2.2616,2.2616;}
	.st4{fill:none;stroke:#2AAF4A;stroke-miterlimit:10;}
	.st5{fill:none;stroke:#F36F4C;stroke-linecap:round;stroke-miterlimit:10;stroke-dasharray:2.8443,2.8443;}
	.st6{fill:none;stroke:#F36F4C;stroke-linecap:round;stroke-miterlimit:10;stroke-dasharray:2.7587,2.7587;}
	.st7{fill:none;stroke:#F36F4C;stroke-linecap:round;stroke-miterlimit:10;stroke-dasharray:3.0501,3.0501;}
	.st8{fill:none;stroke:#F36F4C;stroke-linecap:round;stroke-miterlimit:10;stroke-dasharray:2.8277,2.8277;}
	.st9{fill:none;stroke:#000000;stroke-linecap:round;stroke-linejoin:round;stroke-miterlimit:10;}
	.st10{fill:none;}
	.st11{fill:none;stroke:#F36F4C;stroke-linecap:round;stroke-miterlimit:10;stroke-dasharray:2.7805,2.7805;}
	.st12{fill:none;stroke:#343434;stroke-linecap:round;stroke-miterlimit:10;}
	.st13{font-family:'ProximaNova-Bold';}
	.st14{font-size:7px;}
	.st15{fill:none;stroke:#000000;stroke-linecap:round;stroke-miterlimit:10;stroke-dasharray:3,3;}
	.st16{fill:#010101;}
	.st17{fill:#FFFFFF;}
	.st18{font-family:'NeusaNextStd-CondensedBold';}
	.st19{font-size:10px;}
	.st20{fill:none;stroke:#009639;stroke-linecap:round;stroke-linejoin:round;stroke-miterlimit:10;}
	.st21{fill:#009639;}
	.st22{font-family:'ProximaNova-Regular';}
	.st23{font-size:11px;}
	.st24{fill:none;stroke:#FFFFFF;stroke-width:0.75;stroke-miterlimit:10;}
	.st25{fill:none;stroke:#000000;stroke-width:0.75;stroke-miterlimit:10;}
	.st26{fill:none;stroke:#000000;stroke-miterlimit:10;}
	.st27{fill:none;stroke:#000000;stroke-width:0.9866;stroke-linecap:round;stroke-linejoin:round;stroke-miterlimit:10;}
	.st28{fill:none;stroke:#000000;stroke-width:0.9946;stroke-linecap:round;stroke-linejoin:round;stroke-miterlimit:10;}
	.st29{fill:none;stroke:#000000;stroke-width:0.9971;stroke-linecap:round;stroke-linejoin:round;stroke-miterlimit:10;}
</style>
<rect x="356.39" y="15.59" class="st0" width="151.32" height="143.76"/>
<rect x="192.14" y="15.59" class="st0" width="151.32" height="143.76"/>
<rect x="25.81" y="15.59" class="st0" width="151.32" height="144.74"/>
<g>
	<rect x="207.05" y="219.75" class="st1" width="123.05" height="174.18"/>
</g>
<g>
	<g>
		<line class="st2" x1="267.35" y1="305.38" x2="267.35" y2="306.45"/>
		<line class="st3" x1="267.35" y1="308.71" x2="267.35" y2="325.68"/>
		<line class="st2" x1="267.35" y1="326.81" x2="267.35" y2="327.88"/>
	</g>
</g>
<line class="st4" x1="452.29" y1="237.01" x2="383.17" y2="237.01"/>
<line class="st4" x1="452.29" y1="375.77" x2="383.17" y2="375.77"/>
<line class="st4" x1="449.29" y1="304.94" x2="383.17" y2="304.94"/>
<g>
	<g>
		<line class="st2" x1="189.55" y1="377.23" x2="191.05" y2="377.23"/>
		<line class="st5" x1="193.9" y1="377.23" x2="203.85" y2="377.23"/>
		<line class="st2" x1="205.27" y1="377.23" x2="206.77" y2="377.23"/>
	</g>
</g>
<g>
	<g>
		<line class="st2" x1="172.73" y1="258.4" x2="172.73" y2="259.9"/>
		<line class="st6" x1="172.73" y1="262.66" x2="172.73" y2="283.35"/>
		<line class="st2" x1="172.73" y1="284.73" x2="172.73" y2="286.23"/>
	</g>
</g>
<g>
	<g>
		<line class="st2" x1="172.73" y1="327.17" x2="172.73" y2="328.67"/>
		<line class="st6" x1="172.73" y1="331.43" x2="172.73" y2="352.12"/>
		<line class="st2" x1="172.73" y1="353.5" x2="172.73" y2="355"/>
	</g>
</g>
<g>
	<g>
		<line class="st2" x1="365.97" y1="325.19" x2="365.97" y2="326.69"/>
		<line class="st7" x1="365.97" y1="329.74" x2="365.97" y2="352.62"/>
		<line class="st2" x1="365.97" y1="354.14" x2="365.97" y2="355.64"/>
	</g>
</g>
<g>
	<g>
		<line class="st2" x1="365.97" y1="257.26" x2="365.97" y2="258.76"/>
		<line class="st8" x1="365.97" y1="261.59" x2="365.97" y2="282.8"/>
		<line class="st2" x1="365.97" y1="284.21" x2="365.97" y2="285.71"/>
	</g>
</g>
<g id="app_8_">
	<path class="st9" d="M55.1,362.06H33.86c-4.35,0-7.88,3.53-7.88,7.88v21.24c0,4.35,3.53,7.88,7.88,7.88H55.1
		c4.35,0,7.88-3.53,7.88-7.88v-21.24C62.98,365.59,59.45,362.06,55.1,362.06z"/>
	<g>
		<path d="M38.33,381.87c-0.55,0.6-1.31,0.92-2.2,0.92c-1.13,0-2.33-0.75-2.33-2.19c0-1.48,1.2-2.18,2.33-2.18
			c0.91,0,1.67,0.29,2.2,0.91v-1.19c0-0.89-0.72-1.4-1.68-1.4c-0.8,0-1.45,0.29-2.04,0.92l-0.48-0.71c0.72-0.74,1.57-1.1,2.66-1.1
			c1.41,0,2.58,0.63,2.58,2.24v4.55h-1.03V381.87z M38.33,379.98c-0.4-0.55-1.1-0.82-1.83-0.82c-0.97,0-1.64,0.6-1.64,1.45
			c0,0.84,0.67,1.44,1.64,1.44c0.73,0,1.43-0.27,1.83-0.82V379.98z"/>
		<path d="M41.32,385.15V376h1.03v0.99c0.48-0.67,1.31-1.15,2.25-1.15c1.75,0,2.96,1.32,2.96,3.47c0,2.14-1.21,3.48-2.96,3.48
			c-0.91,0-1.71-0.43-2.25-1.17v3.52H41.32z M44.34,376.76c-0.81,0-1.63,0.48-1.98,1.06v2.99c0.36,0.58,1.17,1.07,1.98,1.07
			c1.34,0,2.14-1.1,2.14-2.56S45.68,376.76,44.34,376.76z"/>
		<path d="M49.12,385.15V376h1.03v0.99c0.48-0.67,1.31-1.15,2.25-1.15c1.75,0,2.96,1.32,2.96,3.47c0,2.14-1.21,3.48-2.96,3.48
			c-0.91,0-1.71-0.43-2.25-1.17v3.52H49.12z M52.14,376.76c-0.81,0-1.63,0.48-1.98,1.06v2.99c0.36,0.58,1.17,1.07,1.98,1.07
			c1.34,0,2.14-1.1,2.14-2.56S53.48,376.76,52.14,376.76z"/>
	</g>
</g>
<g id="app_1_">
	<path class="st9" d="M55.1,286.92H33.86c-4.35,0-7.88,3.53-7.88,7.88v21.24c0,4.35,3.53,7.88,7.88,7.88H55.1
		c4.35,0,7.88-3.53,7.88-7.88v-21.24C62.98,290.45,59.45,286.92,55.1,286.92z"/>
	<g>
		<path d="M38.33,306.74c-0.55,0.6-1.31,0.92-2.2,0.92c-1.13,0-2.33-0.75-2.33-2.19c0-1.48,1.2-2.18,2.33-2.18
			c0.91,0,1.67,0.29,2.2,0.91v-1.19c0-0.89-0.72-1.4-1.68-1.4c-0.8,0-1.45,0.29-2.04,0.92l-0.48-0.71c0.72-0.74,1.57-1.1,2.66-1.1
			c1.41,0,2.58,0.63,2.58,2.24v4.55h-1.03V306.74z M38.33,304.84c-0.4-0.55-1.1-0.82-1.83-0.82c-0.97,0-1.64,0.6-1.64,1.45
			c0,0.84,0.67,1.44,1.64,1.44c0.73,0,1.43-0.27,1.83-0.82V304.84z"/>
		<path d="M41.32,310.01v-9.15h1.03v0.99c0.48-0.67,1.31-1.15,2.25-1.15c1.75,0,2.96,1.32,2.96,3.47c0,2.14-1.21,3.48-2.96,3.48
			c-0.91,0-1.71-0.43-2.25-1.17v3.52H41.32z M44.34,301.62c-0.81,0-1.63,0.48-1.98,1.06v2.99c0.36,0.58,1.17,1.07,1.98,1.07
			c1.34,0,2.14-1.1,2.14-2.56S45.68,301.62,44.34,301.62z"/>
		<path d="M49.12,310.01v-9.15h1.03v0.99c0.48-0.67,1.31-1.15,2.25-1.15c1.75,0,2.96,1.32,2.96,3.47c0,2.14-1.21,3.48-2.96,3.48
			c-0.91,0-1.71-0.43-2.25-1.17v3.52H49.12z M52.14,301.62c-0.81,0-1.63,0.48-1.98,1.06v2.99c0.36,0.58,1.17,1.07,1.98,1.07
			c1.34,0,2.14-1.1,2.14-2.56S53.48,301.62,52.14,301.62z"/>
	</g>
</g>
<polyline class="st4" points="63.26,228.62 100.01,228.62 100.01,298.27 135.38,298.27 "/>
<polyline class="st4" points="63.87,382.18 99.64,382.18 99.64,315.43 134.83,315.43 "/>
<line class="st4" x1="63.51" y1="306.8" x2="135.85" y2="306.8"/>
<rect y="152.21" class="st10" width="608.61" height="332.61"/>
<g>
	<g>
		<path class="st9" d="M176.52,227.24c-1.17-0.47-2.46-0.73-3.8-0.73c-5.62,0-10.18,4.54-10.18,10.15c0,5.61,4.56,10.15,10.18,10.15
			c5.62,0,10.18-4.54,10.18-10.15c0-3.13-1.42-5.92-3.65-7.78l0,0l-8.02,12.12l-4.32-5.72"/>
	</g>
	<path class="st9" d="M182.42,222.5c-0.68,0.03-1.36,0.06-2.03,0.09l0-0.01l-4.86-3.73c-1.61-1.23-3.54-1.26-5.16-0.08l-5.23,3.82
		c-0.68-0.02-1.35-0.05-2.03-0.09c-3.84-0.19-6.84-1.28-6.84,3.98c0,5.26,0.71,13.79,0.71,13.79s-0.43,6.4,6.98,11.8
		c6.37,4.65,8.78,6.33,8.78,6.33l0,0c0,0,2.46-1.68,8.83-6.33c7.41-5.4,6.98-11.8,6.98-11.8s0.71-8.53,0.71-13.79
		C189.25,221.22,186.26,222.31,182.42,222.5"/>
</g>
<g>
	<g>
		<path class="st9" d="M176.52,296c-1.17-0.47-2.46-0.73-3.8-0.73c-5.62,0-10.18,4.54-10.18,10.15c0,5.61,4.56,10.15,10.18,10.15
			c5.62,0,10.18-4.54,10.18-10.15c0-3.13-1.42-5.92-3.65-7.78l0,0l-8.02,12.12l-4.32-5.72"/>
	</g>
	<path class="st9" d="M182.42,291.27c-0.68,0.03-1.36,0.06-2.03,0.09l0-0.01l-4.86-3.73c-1.61-1.23-3.54-1.26-5.16-0.08l-5.23,3.82
		c-0.68-0.02-1.35-0.05-2.03-0.09c-3.84-0.19-6.84-1.28-6.84,3.98c0,5.26,0.71,13.79,0.71,13.79s-0.43,6.4,6.98,11.8
		c6.37,4.65,8.78,6.33,8.78,6.33l0,0c0,0,2.46-1.68,8.83-6.33c7.41-5.4,6.98-11.8,6.98-11.8s0.71-8.53,0.71-13.79
		C189.25,289.99,186.26,291.08,182.42,291.27"/>
</g>
<g>
	<g>
		<path class="st9" d="M176.52,364.77c-1.17-0.47-2.46-0.73-3.8-0.73c-5.62,0-10.18,4.54-10.18,10.15c0,5.61,4.56,10.15,10.18,10.15
			c5.62,0,10.18-4.54,10.18-10.15c0-3.13-1.42-5.92-3.65-7.78l0,0l-8.02,12.12l-4.32-5.72"/>
	</g>
	<path class="st9" d="M182.42,360.03c-0.68,0.03-1.36,0.06-2.03,0.09l0-0.01l-4.86-3.73c-1.61-1.23-3.54-1.26-5.16-0.08l-5.23,3.82
		c-0.68-0.02-1.35-0.05-2.03-0.09c-3.84-0.19-6.84-1.28-6.84,3.98c0,5.26,0.71,13.79,0.71,13.79s-0.43,6.4,6.98,11.8
		c6.37,4.65,8.78,6.33,8.78,6.33l0,0c0,0,2.46-1.68,8.83-6.33c7.41-5.4,6.98-11.8,6.98-11.8s0.71-8.53,0.71-13.79
		C189.25,358.75,186.26,359.84,182.42,360.03"/>
</g>
<g>
	<g>
		<line class="st2" x1="330.4" y1="375.6" x2="331.9" y2="375.6"/>
		<line class="st11" x1="334.68" y1="375.6" x2="344.41" y2="375.6"/>
		<line class="st2" x1="345.8" y1="375.6" x2="347.3" y2="375.6"/>
	</g>
</g>
<g>
	<polygon class="st9" points="383.02,384.32 383.02,364.82 366.16,355.07 349.29,364.82 349.29,384.32 366.16,394.07 	"/>
	<polyline class="st9" points="354.35,380.38 354.35,368.91 364.7,380.38 364.7,368.91 	"/>
	<line class="st9" x1="374.17" y1="378.98" x2="374.17" y2="370.3"/>
	<line class="st9" x1="369.83" y1="374.64" x2="378.51" y2="374.64"/>
</g>
<g>
	<polygon class="st9" points="383.02,315.16 383.02,295.66 366.16,285.91 349.29,295.66 349.29,315.16 366.16,324.91 	"/>
	<polyline class="st9" points="354.35,311.22 354.35,299.75 364.7,311.22 364.7,299.75 	"/>
	<line class="st9" x1="374.17" y1="309.82" x2="374.17" y2="301.15"/>
	<line class="st9" x1="369.83" y1="305.49" x2="378.51" y2="305.49"/>
</g>
<g>
	<polygon class="st9" points="383.02,246.01 383.02,226.51 366.16,216.76 349.29,226.51 349.29,246.01 366.16,255.76 	"/>
	<polyline class="st9" points="354.35,242.06 354.35,230.59 364.7,242.06 364.7,230.59 	"/>
	<line class="st9" x1="374.17" y1="240.67" x2="374.17" y2="231.99"/>
	<line class="st9" x1="369.83" y1="236.33" x2="378.51" y2="236.33"/>
</g>
<g>
	<line class="st12" x1="501.74" y1="364.51" x2="501.74" y2="386.61"/>
	<line class="st12" x1="496.05" y1="375.56" x2="501.74" y2="375.56"/>
</g>
<rect x="506.79" y="364.63" class="st10" width="40.94" height="21.85"/>
<text transform="matrix(1 0 0 1 506.7857 370.4655)"><tspan x="0" y="0" class="st13 st14">Kubernetes </tspan><tspan x="0" y="7" class="st13 st14">Aspen Mesh </tspan><tspan x="0" y="14" class="st13 st14">Azure</tspan></text>
<g>
	<line class="st12" x1="501.74" y1="227.02" x2="501.74" y2="249.12"/>
	<line class="st12" x1="496.05" y1="238.07" x2="501.74" y2="238.07"/>
</g>
<rect x="506.79" y="235.15" class="st10" width="15.67" height="7.85"/>
<text transform="matrix(1 0 0 1 506.7857 240.9822)" class="st13 st14">AWS</text>
<g id="app_2_">
	<path class="st9" d="M55.1,209.21H33.86c-4.35,0-7.88,3.53-7.88,7.88v21.24c0,4.35,3.53,7.88,7.88,7.88H55.1
		c4.35,0,7.88-3.53,7.88-7.88v-21.24C62.98,212.74,59.45,209.21,55.1,209.21z"/>
	<g>
		<path d="M38.33,229.02c-0.55,0.6-1.31,0.92-2.2,0.92c-1.13,0-2.33-0.75-2.33-2.19c0-1.48,1.2-2.18,2.33-2.18
			c0.91,0,1.67,0.29,2.2,0.91v-1.19c0-0.89-0.72-1.4-1.68-1.4c-0.8,0-1.45,0.29-2.04,0.92l-0.48-0.71c0.72-0.74,1.57-1.1,2.66-1.1
			c1.41,0,2.58,0.63,2.58,2.24v4.55h-1.03V229.02z M38.33,227.13c-0.4-0.55-1.1-0.82-1.83-0.82c-0.97,0-1.64,0.6-1.64,1.45
			c0,0.84,0.67,1.44,1.64,1.44c0.73,0,1.43-0.27,1.83-0.82V227.13z"/>
		<path d="M41.32,232.3v-9.15h1.03v0.99c0.48-0.67,1.31-1.15,2.25-1.15c1.75,0,2.96,1.32,2.96,3.47c0,2.14-1.21,3.48-2.96,3.48
			c-0.91,0-1.71-0.43-2.25-1.17v3.52H41.32z M44.34,223.91c-0.81,0-1.63,0.48-1.98,1.06v2.99c0.36,0.58,1.17,1.07,1.98,1.07
			c1.34,0,2.14-1.1,2.14-2.56C46.48,224.99,45.68,223.91,44.34,223.91z"/>
		<path d="M49.12,232.3v-9.15h1.03v0.99c0.48-0.67,1.31-1.15,2.25-1.15c1.75,0,2.96,1.32,2.96,3.47c0,2.14-1.21,3.48-2.96,3.48
			c-0.91,0-1.71-0.43-2.25-1.17v3.52H49.12z M52.14,223.91c-0.81,0-1.63,0.48-1.98,1.06v2.99c0.36,0.58,1.17,1.07,1.98,1.07
			c1.34,0,2.14-1.1,2.14-2.56C54.28,224.99,53.48,223.91,52.14,223.91z"/>
	</g>
</g>
<g>
	<g>
		<line class="st2" x1="189.55" y1="304.21" x2="191.05" y2="304.21"/>
		<line class="st5" x1="193.9" y1="304.21" x2="203.85" y2="304.21"/>
		<line class="st2" x1="205.27" y1="304.21" x2="206.77" y2="304.21"/>
	</g>
</g>
<g>
	<g>
		<line class="st2" x1="330.49" y1="304.21" x2="331.99" y2="304.21"/>
		<line class="st5" x1="334.84" y1="304.21" x2="344.79" y2="304.21"/>
		<line class="st2" x1="346.21" y1="304.21" x2="347.71" y2="304.21"/>
	</g>
</g>
<g>
	<g>
		<line class="st2" x1="189.55" y1="236.29" x2="191.05" y2="236.29"/>
		<line class="st5" x1="193.9" y1="236.29" x2="203.85" y2="236.29"/>
		<line class="st2" x1="205.27" y1="236.29" x2="206.77" y2="236.29"/>
	</g>
</g>
<g>
	<g>
		<line class="st2" x1="330.49" y1="236.29" x2="331.99" y2="236.29"/>
		<line class="st5" x1="334.84" y1="236.29" x2="344.79" y2="236.29"/>
		<line class="st2" x1="346.21" y1="236.29" x2="347.71" y2="236.29"/>
	</g>
</g>
<rect x="135.24" y="191.43" class="st15" width="269.4" height="225.42"/>
<rect x="191.66" y="182.43" class="st16" width="156.56" height="18"/>
<text transform="matrix(1 0 0 1 199.9557 194.9349)" class="st17 st18 st19">API-Sicherheit und -Verwaltung</text>
<rect x="46.07" y="7.4" class="st16" width="110.79" height="18"/>
<text transform="matrix(1 0 0 1 70.3906 19.9039)" class="st17 st18 st19">API-Sicherheit</text>
<rect x="212.4" y="7.4" class="st16" width="110.79" height="18"/>
<text transform="matrix(1 0 0 1 232.5916 19.9039)" class="st17 st18 st19">API-Verwaltung</text>
<rect x="382.65" y="7.4" class="st16" width="98.81" height="18"/>
<text transform="matrix(1 0 0 1 404.2858 19.9039)" class="st17 st18 st19">API-Gateway</text>
<g>
	<polygon class="st20" points="285.4,266.86 285.4,246.33 267.64,236.06 249.88,246.33 249.88,266.86 267.64,277.13 	"/>
	<polygon class="st20" points="273.36,259.9 273.36,253.29 267.64,249.98 261.91,253.29 261.91,259.9 267.64,263.21 	"/>
	<g>
		<g>
			<ellipse class="st20" cx="267.64" cy="241.98" rx="1.82" ry="1.81"/>
			<line class="st20" x1="267.64" y1="250.02" x2="267.64" y2="244"/>
		</g>
		<g>
			<ellipse class="st20" cx="267.64" cy="271.21" rx="1.82" ry="1.81"/>
			<line class="st20" x1="267.64" y1="263.17" x2="267.64" y2="269.19"/>
		</g>
	</g>
	<g>
		<g>
			
				<ellipse transform="matrix(0.5 -0.866 0.866 0.5 -88.3984 345.4642)" class="st20" cx="254.98" cy="249.29" rx="1.82" ry="1.81"/>
			<line class="st20" x1="261.95" y1="253.31" x2="256.74" y2="250.3"/>
		</g>
		<g>
			<ellipse transform="matrix(0.5 -0.866 0.866 0.5 -88.3984 374.6947)" class="st20" cx="280.3" cy="263.9" rx="1.82" ry="1.81"/>
			<line class="st20" x1="273.33" y1="259.88" x2="278.54" y2="262.89"/>
		</g>
	</g>
	<g>
		<g>
			<ellipse transform="matrix(0.866 -0.5 0.5 0.866 -97.7902 162.847)" class="st20" cx="254.98" cy="263.9" rx="1.81" ry="1.82"/>
			<line class="st20" x1="261.95" y1="259.88" x2="256.74" y2="262.89"/>
		</g>
		<g>
			<ellipse transform="matrix(0.866 -0.5 0.5 0.866 -87.0911 173.5461)" class="st20" cx="280.3" cy="249.29" rx="1.81" ry="1.82"/>
			<line class="st20" x1="273.33" y1="253.31" x2="278.54" y2="250.3"/>
		</g>
	</g>
</g>
<g>
	<rect x="235.25" y="282.25" class="st10" width="64.77" height="21.27"/>
	<text transform="matrix(1 0 0 1 251.2491 289.5893)"><tspan x="0" y="0" class="st21 st22 st23">NGINX </tspan><tspan x="-6.97" y="11" class="st21 st22 st23">Controller</tspan></text>
</g>
<g>
	<g>
		<path class="st24" d="M265.52,352.05c-0.03,0.03-0.07,0.06-0.1,0.1c-0.73,0.72-1.45,1.46-2.18,2.17
			c-0.93,0.91-2.05,1.31-3.35,1.15c-2.51-0.29-4.12-2.82-3.35-5.24c0.92-2.88,4.57-3.74,6.72-1.59c2.26,2.26,4.51,4.53,6.79,6.78
			c1.45,1.43,3.2,1.96,5.19,1.55c2.95-0.61,4.85-3.44,4.37-6.43c-0.4-2.49-2.49-4.45-5-4.66c-1.77-0.15-3.29,0.4-4.56,1.65
			c-0.73,0.72-1.45,1.44-2.17,2.16c-0.03,0.03-0.06,0.06-0.07,0.08c0.38,0.38,0.75,0.75,1.13,1.14c0.02-0.03,0.05-0.08,0.09-0.11
			c0.72-0.72,1.43-1.45,2.16-2.15c1.04-1.01,2.28-1.4,3.7-1.1c2.14,0.45,3.48,2.44,3.14,4.62c-0.28,1.78-1.85,3.23-3.65,3.34
			c-1.26,0.08-2.34-0.33-3.24-1.22c-2.26-2.26-4.51-4.53-6.79-6.77c-1.37-1.35-3.04-1.88-4.93-1.56c-3.09,0.51-5.17,3.48-4.57,6.57
			c0.42,2.17,1.73,3.66,3.83,4.32c2.12,0.67,4.03,0.18,5.64-1.35c0.76-0.72,1.49-1.48,2.24-2.23c0.03-0.03,0.05-0.06,0.07-0.07
			C266.26,352.79,265.9,352.42,265.52,352.05z"/>
		<path class="st25" d="M265.52,352.05c0.37,0.38,0.74,0.74,1.12,1.12c-0.02,0.02-0.04,0.05-0.07,0.07
			c-0.74,0.74-1.47,1.51-2.24,2.23c-1.62,1.53-3.53,2.02-5.64,1.35c-2.11-0.66-3.41-2.15-3.83-4.32c-0.6-3.09,1.48-6.06,4.57-6.57
			c1.9-0.31,3.56,0.21,4.93,1.56c2.27,2.25,4.53,4.51,6.79,6.77c0.9,0.9,1.98,1.3,3.24,1.22c1.79-0.12,3.37-1.56,3.65-3.34
			c0.34-2.17-1-4.17-3.14-4.62c-1.42-0.3-2.66,0.09-3.7,1.1c-0.73,0.71-1.44,1.44-2.16,2.15c-0.04,0.04-0.07,0.08-0.09,0.11
			c-0.39-0.39-0.76-0.76-1.13-1.14c0.01-0.01,0.04-0.05,0.07-0.08c0.72-0.72,1.44-1.45,2.17-2.16c1.26-1.25,2.79-1.8,4.56-1.65
			c2.51,0.22,4.6,2.18,5,4.66c0.49,2.99-1.42,5.82-4.37,6.43c-1.99,0.41-3.75-0.12-5.19-1.55c-2.27-2.25-4.53-4.51-6.79-6.78
			c-2.15-2.15-5.79-1.29-6.72,1.59c-0.77,2.41,0.84,4.94,3.35,5.24c1.3,0.15,2.42-0.24,3.35-1.15c0.73-0.72,1.45-1.45,2.18-2.17
			C265.46,352.11,265.49,352.08,265.52,352.05z"/>
	</g>
</g>
<polygon class="st9" points="284.08,361.23 284.08,341.73 267.22,331.98 250.36,341.73 250.36,361.23 267.22,370.98 "/>
<g>
	<g>
		<rect x="428.27" y="400.79" class="st10" width="81.98" height="12.16"/>
		<text transform="matrix(1 0 0 1 442.7203 409.9537)" class="st22 st23">API-Knoten</text>
	</g>
</g>
<g>
	<ellipse class="st26" cx="458.19" cy="368.69" rx="1.56" ry="1.55"/>
	<ellipse class="st26" cx="482.84" cy="383.13" rx="1.56" ry="1.55"/>
	<ellipse class="st26" cx="470.31" cy="390.56" rx="1.56" ry="1.55"/>
	<rect x="469.09" y="374.48" class="st26" width="2.78" height="2.78"/>
	<rect x="481.49" y="367.32" class="st26" width="2.78" height="2.78"/>
	<polygon class="st26" points="458.23,381.42 456.63,384.17 459.82,384.17 	"/>
	<polygon class="st26" points="470.21,359.96 468.62,362.71 471.8,362.71 	"/>
	<g>
		<polygon class="st26" points="461.68,362.85 454.7,362.85 451.21,368.89 454.7,374.92 461.68,374.92 465.17,368.89 		"/>
		<polygon class="st26" points="473.89,355.83 466.91,355.83 463.42,361.86 466.91,367.9 473.89,367.9 477.38,361.86 		"/>
		<polygon class="st26" points="473.89,384.25 466.91,384.25 463.42,390.29 466.91,396.33 473.89,396.33 477.38,390.29 		"/>
		<polygon class="st26" points="474.01,370.09 467.03,370.09 463.54,376.12 467.03,382.16 474.01,382.16 477.5,376.12 		"/>
		<polygon class="st26" points="486.22,362.83 479.24,362.83 475.75,368.86 479.24,374.9 486.22,374.9 489.71,368.86 		"/>
		<polygon class="st26" points="461.68,377.23 454.7,377.23 451.21,383.26 454.7,389.3 461.68,389.3 465.17,383.26 		"/>
		<polygon class="st26" points="486.22,377.2 479.24,377.2 475.75,383.24 479.24,389.28 486.22,389.28 489.71,383.24 		"/>
	</g>
</g>
<g>
	<g>
		<rect x="441.82" y="261.91" class="st10" width="53.34" height="12.16"/>
		<text transform="matrix(1 0 0 1 441.9437 271.0762)" class="st22 st23">API-Knoten</text>
	</g>
</g>
<g>
	<ellipse class="st26" cx="458.19" cy="229.81" rx="1.56" ry="1.55"/>
	<ellipse class="st26" cx="482.84" cy="244.25" rx="1.56" ry="1.55"/>
	<ellipse class="st26" cx="470.31" cy="251.68" rx="1.56" ry="1.55"/>
	<rect x="469.09" y="235.6" class="st26" width="2.78" height="2.78"/>
	<rect x="481.49" y="228.45" class="st26" width="2.78" height="2.78"/>
	<polygon class="st26" points="458.23,242.54 456.63,245.29 459.82,245.29 	"/>
	<polygon class="st26" points="470.21,221.08 468.62,223.83 471.8,223.83 	"/>
	<g>
		<polygon class="st26" points="461.68,223.97 454.7,223.97 451.21,230.01 454.7,236.05 461.68,236.05 465.17,230.01 		"/>
		<polygon class="st26" points="473.89,216.95 466.91,216.95 463.42,222.98 466.91,229.02 473.89,229.02 477.38,222.98 		"/>
		<polygon class="st26" points="473.89,245.37 466.91,245.37 463.42,251.41 466.91,257.45 473.89,257.45 477.38,251.41 		"/>
		<polygon class="st26" points="474.01,231.21 467.03,231.21 463.54,237.24 467.03,243.28 474.01,243.28 477.5,237.24 		"/>
		<polygon class="st26" points="486.22,223.95 479.24,223.95 475.75,229.98 479.24,236.02 486.22,236.02 489.71,229.98 		"/>
		<polygon class="st26" points="461.68,238.35 454.7,238.35 451.21,244.39 454.7,250.42 461.68,250.42 465.17,244.39 		"/>
		<polygon class="st26" points="486.22,238.33 479.24,238.33 475.75,244.36 479.24,250.4 486.22,250.4 489.71,244.36 		"/>
	</g>
</g>
<g>
	<g>
		<path class="st27" d="M472.21,292.85c0.78-0.43,1.67-0.68,2.62-0.68c0.8,0,1.56,0.17,2.24,0.49c0.9-2.43,3.23-4.15,5.95-4.15
			c3.51,0,6.35,2.87,6.35,6.4c0,0.58-0.08,1.14-0.22,1.67c1.24,0.82,2.06,2.23,2.06,3.84c0,2.54-2.04,4.6-4.56,4.6h-0.91h-2.24h0.08
			"/>
	</g>
	<g>
		<path class="st28" d="M458.28,308.7h-5.35c-2.05,0-3.71-1.65-3.71-3.68c0-2.03,1.65-3.67,3.7-3.68c0,0,0,0,0,0
			c0-3.02,2.47-5.47,5.52-5.47c0.81,0,1.58,0.18,2.28,0.49c0.92-2.43,3.28-4.15,6.05-4.15c3.57,0,6.46,2.87,6.46,6.4"/>
	</g>
	<g>
		<path class="st29" d="M476.6,316.51h-14.83c-2.06,0-3.73-1.65-3.73-3.68c0-2.03,1.66-3.67,3.72-3.68c0,0,0,0,0,0
			c0-3.02,2.48-5.47,5.55-5.47c0.82,0,1.59,0.17,2.29,0.49c0.92-2.43,3.3-4.15,6.08-4.15c3.58,0,6.49,2.87,6.49,6.4
			c0,0.58-0.08,1.14-0.22,1.67c1.27,0.82,2.1,2.23,2.1,3.84c0,2.54-2.09,4.6-4.66,4.6h-0.93H476.6z"/>
	</g>
</g>
<g>
	<g>
		<rect x="441.82" y="320.83" class="st10" width="55.31" height="12.16"/>
		<text transform="matrix(1 0 0 1 442.5038 329.9966)" class="st22 st23">Multi-Cloud</text>
	</g>
</g>
<rect x="42.62" y="38" class="st10" width="117.69" height="124.78"/>
<text transform="matrix(1 0 0 1 36.6185 44.6738)"><tspan x="0" y="0" class="st22 st19">• Schema-Validierung</tspan><tspan x="0" y="17" class="st22 st19">• Protokoll-Konformität</tspan><tspan x="0" y="34" class="st22 st19">• Schutz vor </tspan><tspan x="6" y="51" class="st22 st19">Sicherheitslücken</tspan><tspan x="0" y="68" class="st22 st19">• Betrugsprävention</tspan><tspan x="0" y="85" class="st22 st19">• Verteidigung gegen DoS </tspan><tspan x="6" y="102" class="st22 st19">und böse BOTs</tspan></text>
<g>
	<rect x="211.9" y="38" class="st10" width="118.78" height="122.32"/>
	<text transform="matrix(1 0 0 1 205.9044 44.6738)"><tspan x="0" y="0" class="st22 st19">• Versionierung</tspan><tspan x="0" y="17" class="st22 st19">• Veröffentlichung</tspan><tspan x="0" y="34" class="st22 st19">• Schemata/Definition</tspan><tspan x="0" y="51" class="st22 st19">• Überwachung und </tspan><tspan x="6" y="68" class="st22 st19">Dashboards</tspan><tspan x="0" y="85" class="st22 st19">• Onboarding und </tspan><tspan x="6" y="102" class="st22 st19">Dokumente</tspan></text>
</g>
<g>
	<rect x="377.85" y="38" class="st10" width="128.9" height="124.78"/>
	<text transform="matrix(1 0 0 1 371.8524 44.6738)"><tspan x="0" y="0" class="st22 st19">• Authentifizierung und </tspan><tspan x="6" y="17" class="st22 st19">Autorisierung</tspan><tspan x="0" y="34" class="st22 st19">• Traffic Management</tspan><tspan x="0" y="51" class="st22 st19">• Übertragungsbegrenzung/ </tspan><tspan x="6" y="68" class="st22 st19">Schwellenwertbildung</tspan><tspan x="0" y="85" class="st22 st19">• Zulassungsliste</tspan><tspan x="0" y="102" class="st22 st19">• Routing</tspan></text>
</g>
<g>
	<rect x="27.82" y="252.31" class="st10" width="33.32" height="23.16"/>
	<text transform="matrix(1 0 0 1 27.8753 261.4759)"><tspan x="0" y="0" class="st22 st23">Mobile </tspan><tspan x="6.56" y="11" class="st22 st23">App</tspan></text>
</g>
<g>
	<rect x="9.7" y="329.57" class="st10" width="66.32" height="23.16"/>
	<text transform="matrix(1 0 0 1 23.3272 338.7341)"><tspan x="0" y="0" class="st22 st23">Partner- </tspan><tspan x="9.49" y="11" class="st22 st23">App</tspan></text>
</g>
<rect x="12.02" y="405.49" class="st10" width="59.5" height="23.16"/>
<text transform="matrix(1 0 0 1 12.4786 414.6495)"><tspan x="0" y="0" class="st22 st23">Ökosystem-</tspan><tspan x="19.25" y="11" class="st22 st23">App</tspan></text>
<g>
	<rect x="245.4" y="372.89" class="st10" width="42.71" height="12.16"/>
	<text transform="matrix(1 0 0 1 246.9184 382.0536)" class="st22 st23">DevOps</text>
</g>
</svg>
