<svg id="Layer_1" data-name="Layer 1" xmlns="http://www.w3.org/2000/svg" viewBox="0 0 401.80597 248.25166"><defs><style>.cls-1,.cls-10,.cls-12,.cls-13,.cls-14,.cls-15,.cls-2,.cls-3,.cls-4,.cls-7,.cls-9{fill:none;}.cls-1{stroke:#2bae4a;}.cls-1,.cls-12,.cls-13,.cls-14,.cls-15,.cls-2,.cls-3,.cls-4,.cls-7,.cls-9{stroke-linecap:round;}.cls-1,.cls-10,.cls-13,.cls-3,.cls-4,.cls-7{stroke-miterlimit:10;}.cls-13,.cls-2,.cls-3,.cls-9{stroke:#29abe2;}.cls-2{stroke-miterlimit:10;}.cls-2,.cls-3,.cls-9{stroke-dasharray:1.48283 2.96566;}.cls-10,.cls-15,.cls-4{stroke:#010101;}.cls-5{fill:#231f20;}.cls-6{fill:#343434;}.cls-7{stroke:#999;}.cls-8{fill:#999;}.cls-9{stroke-miterlimit:10;}.cls-11{fill:#010101;}.cls-12,.cls-14{stroke:#000;}.cls-12,.cls-14,.cls-15{stroke-linejoin:round;}.cls-13{stroke-dasharray:1.5 3;}.cls-14{stroke-width:0.75px;}.cls-16{fill:#211e1f;}</style></defs><polyline class="cls-1" points="306.718 163.131 284.461 163.131 216.993 95.663 206.784 95.663"/><polyline class="cls-1" points="206.851 163.131 217.03 163.131 284.498 95.663 299.363 95.663"/><circle class="cls-2" cx="284.82766" cy="166.211" r="7.09033"/><circle class="cls-3" cx="284.82767" cy="93.3764" r="7.09039"/><line class="cls-4" x1="325.64651" y1="105.14614" x2="325.64651" y2="148.63712"/><line class="cls-1" x1="188.37511" y1="108.88608" x2="188.37511" y2="149.37486"/><line class="cls-4" x1="59.42195" y1="108.88608" x2="59.42195" y2="149.37486"/><path class="cls-5" d="M43.61455,44.73211h4.80859v.81348H44.52861V47.9118H48.345v.81347H44.52861V52.07h-.91406Z"/><path class="cls-5" d="M49.98369,50.41961a2.41554,2.41554,0,0,0,2.02441.96875,1.58457,1.58457,0,0,0,1.69055-1.471q.00354-.05106.00379-.10228a1.54683,1.54683,0,0,0-1.68359-1.585,2.297,2.297,0,0,0-1.69336.69336l-.67188-.23145v-3.96h4.48828v.81348H50.5667v2.55273a2.48529,2.48529,0,0,1,1.71582-.66016,2.24819,2.24819,0,0,1,2.33342,2.1596q.00357.092-.00042.18415a2.40293,2.40293,0,0,1-2.37706,2.42852q-.11532.00125-.23037-.00859a2.99612,2.99612,0,0,1-2.585-1.17676Z"/><path class="cls-5" d="M58.761,50.34246a3.10317,3.10317,0,0,0,2.31055,1.0459c1.30859,0,1.72656-.7041,1.72656-1.26562,0-.87989-.89062-1.12208-1.85937-1.38575-1.17578-.30859-2.48633-.63867-2.48633-2.08008,0-1.21,1.07812-2.03515,2.51953-2.03515a3.44641,3.44641,0,0,1,2.60742,1.02344l-.5498.67089a2.80462,2.80462,0,0,0-2.123-.87988c-.87988,0-1.50683.47266-1.50683,1.166,0,.7373.84667.957,1.78125,1.21,1.19921.31933,2.56445.69336,2.56445,2.2334,0,1.06738-.72656,2.15625-2.707,2.15625a3.637,3.637,0,0,1-2.81641-1.166Z"/><path class="cls-5" d="M65.097,50.34246a3.10317,3.10317,0,0,0,2.31055,1.0459c1.30859,0,1.72656-.7041,1.72656-1.26562,0-.87989-.89062-1.12208-1.85937-1.38575-1.17579-.30859-2.48633-.63867-2.48633-2.08008,0-1.21,1.07812-2.03515,2.51954-2.03515a3.44643,3.44643,0,0,1,2.60742,1.02344l-.5498.67089a2.80461,2.80461,0,0,0-2.12305-.87988c-.87988,0-1.50684.47266-1.50684,1.166,0,.7373.84668.957,1.78125,1.21,1.19922.31933,2.56446.69336,2.56446,2.2334,0,1.06738-.72657,2.15625-2.707,2.15625a3.637,3.637,0,0,1-2.8164-1.166Z"/><path class="cls-5" d="M71.3333,44.73211h.91406v6.52344h3.41016V52.07H71.3333Z"/><path class="cls-5" d="M33.886,55.611c4.7811-.17034,4.78209,7.7613-.00023,7.59079C29.10293,63.37436,29.10382,55.4379,33.886,55.611Zm0,.81445c-3.55235-.15573-3.55457,6.111.00015,5.96288,3.55085.14549,3.54867-6.11642-.00015-5.96286Z"/><path class="cls-5" d="M38.81377,57.75652h.82617V58.614a2.257,2.257,0,0,1,1.77051-.96778v.84668a1.4873,1.4873,0,0,0-.33007-.03222,1.9418,1.9418,0,0,0-1.44043.84668V63.07h-.82618Z"/><path class="cls-5" d="M44.67705,57.62469a2.273,2.273,0,0,1,1.94726.92383l-.55078.50586A1.5738,1.5738,0,0,0,44.721,58.361a2.06432,2.06432,0,0,0,0,4.10351,1.60115,1.60115,0,0,0,1.35254-.69238l.55078.50586a2.273,2.273,0,0,1-1.94726.92383,2.79212,2.79212,0,0,1,0-5.57715Z"/><path class="cls-5" d="M51.26689,59.572c0-.93554-.48437-1.21093-1.19922-1.21093a2.09123,2.09123,0,0,0-1.57421.82519V63.07h-.82422V55.73211h.82422v2.794a2.64538,2.64538,0,0,1,1.90429-.90137,1.494,1.494,0,0,1,1.69336,1.69336V63.07h-.82422Z"/><path class="cls-5" d="M55.94072,57.62469A2.58051,2.58051,0,0,1,58.5074,60.219q-.00069.12744-.01394.25436v.209H54.1917a1.87222,1.87222,0,0,0,1.90575,1.83806l.00831-.00017a2.32415,2.32415,0,0,0,1.63965-.6709l.39648.53906a2.8933,2.8933,0,0,1-2.11328.81348,2.79194,2.79194,0,0,1-.08789-5.57715Zm-1.749,2.45312H57.679a1.72243,1.72243,0,0,0-1.67246-1.771q-.03827-.0011-.07654-.00049a1.77234,1.77234,0,0,0-1.7383,1.77148Z"/><path class="cls-5" d="M59.681,61.77215a2.41,2.41,0,0,0,1.749.75879c.81348,0,1.2539-.36328,1.2539-.87988,0-.583-.64941-.77051-1.36425-.94629-.90235-.209-1.92578-.45118-1.92578-1.55176,0-.82422.71582-1.52832,1.98046-1.52832a2.69017,2.69017,0,0,1,1.96973.76953l-.38476.57227a2.07225,2.07225,0,0,0-1.585-.6709c-.72558,0-1.17675.33007-1.17675.80273,0,.51758.60449.68262,1.29785.84766.9248.209,1.99219.47265,1.99219,1.64941,0,.8916-.71485,1.60645-2.09082,1.60645a2.82611,2.82611,0,0,1-2.14551-.83594Z"/><path class="cls-5" d="M64.8831,61.95867V58.48211h-.87988v-.72559h.87988V56.30438h.82521v1.45214h1.07811v.72559H65.7083v3.30078c0,.39551.17578.68164.53906.68164a.7942.7942,0,0,0,.56055-.21972l.24218.61621a1.34737,1.34737,0,0,1-.99024.34082,1.08686,1.08686,0,0,1-1.17675-1.24317Z"/><path class="cls-5" d="M67.84209,57.75652h.82518V58.614a2.25893,2.25893,0,0,1,1.7715-.96778v.84668a1.49342,1.49342,0,0,0-.33008-.03222,1.94548,1.94548,0,0,0-1.44141.84668V63.07h-.82519Z"/><path class="cls-5" d="M74.68486,62.46453a2.29811,2.29811,0,0,1-1.76074.73731A1.7687,1.7687,0,0,1,71.068,61.5251q-.00211-.04147-.00227-.083a1.7404,1.7404,0,0,1,1.72671-1.754q.0659-.00051.13169.004a2.2245,2.2245,0,0,1,1.76074.72656v-.957c0-.71484-.57226-1.12207-1.34277-1.12207a2.10769,2.10769,0,0,0-1.62793.73731l-.38478-.57227a2.77883,2.77883,0,0,1,2.123-.87988c1.12208,0,2.05665.50586,2.05665,1.793V63.07h-.82422Zm0-1.51758A1.77962,1.77962,0,0,0,73.222,60.2868a1.16922,1.16922,0,1,0,0,2.32129,1.77963,1.77963,0,0,0,1.46289-.66016Z"/><path class="cls-5" d="M77.21416,61.95867V58.48211H76.3333v-.72559h.88086V56.30438h.82422v1.45214H79.1165v.72559H78.03838v3.30078c0,.39551.17578.68164.53907.68164a.79667.79667,0,0,0,.56152-.21972l.24121.61621a1.34647,1.34647,0,0,1-.98925.34082,1.08682,1.08682,0,0,1-1.17677-1.24317Z"/><path class="cls-5" d="M79.86455,60.40789a2.63424,2.63424,0,1,1,2.6289,2.79395A2.60655,2.60655,0,0,1,79.858,60.62455Q79.85675,60.51613,79.86455,60.40789Zm4.38965,0a1.78665,1.78665,0,1,0-1.76075,2.05664,1.84755,1.84755,0,0,0,1.77128-1.92081Q84.262,60.47564,84.2542,60.40789Z"/><path class="cls-5" d="M86.35478,57.75652H87.18V58.614a2.25857,2.25857,0,0,1,1.77051-.96778v.84668a1.48141,1.48141,0,0,0-.33008-.03222,1.94184,1.94184,0,0,0-1.44043.84668V63.07h-.8252Z"/><line class="cls-1" x1="208.52971" y1="89.6528" x2="298.56192" y2="89.6528"/><line class="cls-1" x1="79.02356" y1="89.6528" x2="168.6573" y2="89.6528"/><line class="cls-1" x1="208.52971" y1="169.14165" x2="298.5097" y2="169.14165"/><line class="cls-1" x1="79.09007" y1="169.14165" x2="168.6573" y2="169.14165"/><path class="cls-5" d="M43.61455,195.6413h4.80859v.81445H44.52861V198.821H48.345v.81445H44.52861v3.34375h-.91406Z"/><path class="cls-5" d="M49.98369,201.3288a2.413,2.413,0,0,0,2.02441.96875,1.58381,1.58381,0,0,0,1.69049-1.46941q.0036-.05134.00385-.10286a1.54763,1.54763,0,0,0-1.68359-1.58594,2.297,2.297,0,0,0-1.69336.69336l-.67188-.23047V195.6413h4.48828v.81445H50.5667v2.55273a2.48519,2.48519,0,0,1,1.71582-.66015,2.24818,2.24818,0,0,1,2.33342,2.15959q.00357.09205-.00042.18416a2.40293,2.40293,0,0,1-2.37707,2.42851q-.11532.00123-.23035-.00859a2.99427,2.99427,0,0,1-2.585-1.17773Z"/><path class="cls-5" d="M58.761,201.25262a3.10253,3.10253,0,0,0,2.31055,1.04493c1.30859,0,1.72656-.70313,1.72656-1.26563,0-.8789-.89062-1.12109-1.85937-1.38476-1.17578-.3086-2.48633-.63868-2.48633-2.08008,0-1.21094,1.07812-2.03516,2.51953-2.03516a3.44287,3.44287,0,0,1,2.60742,1.02344l-.5498.66992a2.80376,2.80376,0,0,0-2.123-.87891c-.87988,0-1.50683.47266-1.50683,1.166,0,.73633.84667.957,1.78125,1.209,1.19921.32032,2.56445.69336,2.56445,2.23438,0,1.06641-.72656,2.15625-2.707,2.15625a3.637,3.637,0,0,1-2.81641-1.166Z"/><path class="cls-5" d="M65.097,201.25262a3.10259,3.10259,0,0,0,2.31055,1.04493c1.30859,0,1.72656-.70313,1.72656-1.26563,0-.8789-.89062-1.12109-1.85937-1.38476-1.17579-.3086-2.48633-.63868-2.48633-2.08008,0-1.21094,1.07812-2.03516,2.51954-2.03516a3.4429,3.4429,0,0,1,2.60742,1.02344l-.5498.66992a2.80378,2.80378,0,0,0-2.12305-.87891c-.87988,0-1.50684.47266-1.50684,1.166,0,.73633.84668.957,1.78125,1.209,1.19922.32032,2.56446.69336,2.56446,2.23438,0,1.06641-.72657,2.15625-2.707,2.15625a3.63707,3.63707,0,0,1-2.8164-1.166Z"/><path class="cls-5" d="M71.3333,195.6413h.91406v6.52343h3.41016v.81446H71.3333Z"/><path class="cls-5" d="M33.886,206.5202c4.78059-.16983,4.78251,7.76152-.00023,7.59177C29.10251,214.28377,29.10432,206.3476,33.886,206.5202Zm0,.81446c-3.55162-.15534-3.5553,6.11137.00015,5.96287C37.4377,213.44339,37.43409,207.18147,33.886,207.33466Z"/><path class="cls-5" d="M38.81377,208.66669h.82617v.85742a2.25807,2.25807,0,0,1,1.77051-.96875v.84766a1.4829,1.4829,0,0,0-.33007-.03321,1.94,1.94,0,0,0-1.44043.84766v3.76172h-.82618Z"/><path class="cls-5" d="M44.67705,208.53387a2.2754,2.2754,0,0,1,1.94726.92383l-.55078.50586a1.57381,1.57381,0,0,0-1.35254-.69336,2.06432,2.06432,0,0,0,0,4.10352,1.6002,1.6002,0,0,0,1.35254-.69141l.55078.50585a2.27537,2.27537,0,0,1-1.94726.92382,2.79263,2.79263,0,0,1,0-5.57812Z"/><path class="cls-5" d="M51.26689,210.48112c0-.93554-.48437-1.21093-1.19922-1.21093a2.089,2.089,0,0,0-1.57421.82617v3.88281h-.82422v-7.33789h.82422v2.79492a2.64607,2.64607,0,0,1,1.90429-.90234,1.494,1.494,0,0,1,1.69336,1.69336v3.752h-.82422Z"/><path class="cls-5" d="M55.94072,208.53387a2.58084,2.58084,0,0,1,2.56674,2.59485q-.00069.12765-.014.25476v.209H54.1917a1.87221,1.87221,0,0,0,1.90575,1.83806l.00831-.00017a2.32093,2.32093,0,0,0,1.63965-.67187l.39648.53906a2.894,2.894,0,0,1-2.11328.81445,2.79245,2.79245,0,0,1-.08789-5.57812Zm-1.749,2.45313H57.679a1.723,1.723,0,0,0-1.67362-1.771q-.03768-.00106-.07538-.00048a1.77234,1.77234,0,0,0-1.7383,1.77148Z"/><path class="cls-5" d="M59.681,212.68231a2.40936,2.40936,0,0,0,1.749.75781c.81348,0,1.2539-.36328,1.2539-.8789,0-.584-.64941-.77149-1.36425-.94727-.90235-.209-1.92578-.45118-1.92578-1.55079,0-.82421.71582-1.5293,1.98046-1.5293a2.694,2.694,0,0,1,1.96973.76953l-.38476.57227a2.07176,2.07176,0,0,0-1.585-.66993c-.72558,0-1.17675.33008-1.17675.80274,0,.51758.60449.68164,1.29785.84765.9248.209,1.99219.47266,1.99219,1.64844,0,.89258-.71485,1.60742-2.09082,1.60742a2.82606,2.82606,0,0,1-2.14551-.83593Z"/><path class="cls-5" d="M64.8831,212.86784v-3.47656h-.87988v-.72461h.87988v-1.45312h.82521v1.45312h1.07811v.72461H65.7083v3.30078c0,.39649.17578.68164.53906.68164a.79373.79373,0,0,0,.56055-.21875l.24218.61524a1.34351,1.34351,0,0,1-.99024.34179,1.08715,1.08715,0,0,1-1.17675-1.24414Z"/><path class="cls-5" d="M67.84209,208.66669h.82518v.85742a2.25994,2.25994,0,0,1,1.7715-.96875v.84766a1.4885,1.4885,0,0,0-.33008-.03321,1.94366,1.94366,0,0,0-1.44141.84766v3.76172h-.82519Z"/><path class="cls-5" d="M74.68486,213.3737a2.29886,2.29886,0,0,1-1.76074.73828,1.76931,1.76931,0,0,1-1.85617-1.678q-.00207-.04087-.00223-.0818a1.73981,1.73981,0,0,1,1.72549-1.754q.06651-.00053.13291.004a2.2214,2.2214,0,0,1,1.76074.72656v-.957c0-.71484-.57226-1.12305-1.34277-1.12305a2.10548,2.10548,0,0,0-1.62793.73828l-.38478-.57226a2.77625,2.77625,0,0,1,2.123-.88086c1.12208,0,2.05665.50586,2.05665,1.793v3.65234h-.82422Zm0-1.51758A1.78242,1.78242,0,0,0,73.222,211.196a1.16965,1.16965,0,1,0,0,2.32226,1.7824,1.7824,0,0,0,1.46289-.66015Z"/><path class="cls-5" d="M77.21416,212.86784v-3.47656H76.3333v-.72461h.88086v-1.45312h.82422v1.45312H79.1165v.72461H78.03838v3.30078c0,.39649.17578.68164.53907.68164a.79615.79615,0,0,0,.56152-.21875l.24121.61524a1.34253,1.34253,0,0,1-.98925.34179,1.08715,1.08715,0,0,1-1.17677-1.24414Z"/><path class="cls-5" d="M79.86455,211.31706a2.6343,2.6343,0,1,1,2.6289,2.79492,2.60709,2.60709,0,0,1-2.63553-2.57832Q79.85672,211.42527,79.86455,211.31706Zm4.38965,0a1.78665,1.78665,0,1,0-1.76075,2.05664,1.84756,1.84756,0,0,0,1.77128-1.92082Q84.262,211.38481,84.2542,211.31706Z"/><path class="cls-5" d="M86.35478,208.66669H87.18v.85742a2.25962,2.25962,0,0,1,1.77051-.96875v.84766a1.47593,1.47593,0,0,0-.33008-.03321,1.94005,1.94005,0,0,0-1.44043.84766v3.76172h-.8252Z"/><path d="M119.26689,76.43133a1.09366,1.09366,0,0,1-.707-.93848c0-.91064.97266-1.2959,1.8418-1.2959.88867,0,1.82031.37842,1.82031,1.19776a1.322,1.322,0,0,1-1.21094,1.22558,1.28028,1.28028,0,0,1,.77735,1.05762c0,.85449-.92481,1.34473-1.91992,1.34473-.98047,0-1.89747-.37793-1.89747-1.25342C117.971,77.16668,118.44072,76.64129,119.26689,76.43133Zm.78418.52539c-.57422.02783-1.02246.27978-1.02246.6582,0,.36426.36426.55323.88281.55323.44728,0,.86817-.231.86817-.58838C120.77959,77.27166,120.42217,77.0407,120.05107,76.95672Zm.28711-1.898c-.40625,0-.77734.20313-.77734.54589,0,.27344.35643.4834.67285.55372.5459-.03516.917-.25245.917-.58838,0-.29438-.35743-.51118-.81251-.51118Z"/><path d="M124.94658,74.197c1.01563,0,1.67383.67237,1.67383,1.877,0,1.51318-.93164,2.94873-2.31055,2.94873a1.656,1.656,0,0,1-1.68848-1.88379C122.62138,75.62566,123.5667,74.197,124.94658,74.197Zm-.09766.88282c-.77734,0-1.21875,1.20459-1.21875,2.10791,0,.55322.22364.95263.76954.95263.77735,0,1.21875-1.20459,1.21875-2.11523,0-.55327-.22364-.94536-.76954-.94536Z"/><path d="M126.87822,78.01434c1.97559-1.12061,2.99805-1.73731,2.99805-2.38868,0-.34277-.35059-.55322-.84082-.55322a1.7552,1.7552,0,0,0-1.1631.42041l-.41992-.71435a2.60631,2.60631,0,0,1,1.65331-.58155c.96,0,1.81348.46924,1.81348,1.35889,0,.92432-.97266,1.72315-2.48633,2.50732h1.94727l-.18946.87548h-3.5156Z"/><path d="M131.87041,77.881a.51772.51772,0,0,1,.51173.52366v.00173a.62213.62213,0,0,1-.61719.61621.52267.52267,0,0,1-.51758-.52539A.62785.62785,0,0,1,131.87041,77.881Z"/><path d="M134.53252,75.549l-.94629.791-.44043-.5952,1.79883-1.47754h.86914l-1.0293,4.67138h-.99512Z"/><path d="M138.969,75.55584h.89649l-1.03613,4.67139h-.89649l.38477-1.709a1.27534,1.27534,0,0,1-1.01563.5044,1.24713,1.24713,0,0,1-1.28906-1.40088,1.97778,1.97778,0,0,1,1.78711-2.1499,1.278,1.278,0,0,1,1.07812.53222Zm-1.27441,2.67529a1.006,1.006,0,0,0,.77734-.39892l.25879-1.17675a.93611.93611,0,0,0-.792-.39209,1.09229,1.09229,0,0,0-.99415,1.17627.73631.73631,0,0,0,.67887.78958q.03555.00267.0712.00191Z"/><path d="M110.62724,85.05633l.37793-1.73h-.56054l.17578-.7705h.56055l.20312-.92432h.89648l-.20312.92432h.68555l-.18165.7705h-.68653l-.32225,1.47071a.97193.97193,0,0,0-.01465.14013c0,.18213.10547.29394.33008.29394a.46235.46235,0,0,0,.2451-.06981l.03418.71434a1.03671,1.03671,0,0,1-.55957.147c-.60253,0-1.00878-.231-1.00878-.73536A1.10949,1.10949,0,0,1,110.62724,85.05633Z"/><path d="M115.92705,82.55584h.89647l-.75,3.38281h-.89647l.09765-.42041a1.27534,1.27534,0,0,1-1.01563.5044,1.24688,1.24688,0,0,1-1.28809-1.40087,1.977,1.977,0,0,1,1.78614-2.14991,1.27549,1.27549,0,0,1,1.07812.53222Zm-1.27539,2.67529a1.00447,1.00447,0,0,0,.77734-.39892l.25977-1.17675a.93613.93613,0,0,0-.792-.39209,1.09162,1.09162,0,0,0-.99414,1.17627.73558.73558,0,0,0,.67736.78952Q114.61575,85.23189,114.65166,85.23113Z"/><path d="M117.44463,86.12762a1.3594,1.3594,0,0,0,1.09961.456c.41308,0,.80566-.18945.959-.876l.07031-.30811a1.33452,1.33452,0,0,1-1.03613.51123,1.21565,1.21565,0,0,1-1.2744-1.37305,1.90588,1.90588,0,0,1,1.73281-2.06449l.01719-.00142a1.41619,1.41619,0,0,1,1.09375.53222l.09764-.44824h.8965l-.70118,3.15186a1.78411,1.78411,0,0,1-1.84179,1.60351,2.12489,2.12489,0,0,1-1.63867-.58789Zm2.51465-2.44435a.93917.93917,0,0,0-.82715-.41992,1.01232,1.01232,0,0,0-.948,1.07281l.00264.03364a.7157.7157,0,0,0,.77051.74952,1.04464,1.04464,0,0,0,.76367-.38527Z"/><path d="M121.722,86.12762a1.35942,1.35942,0,0,0,1.09961.456c.41309,0,.80566-.18945.959-.876l.07032-.30811a1.33456,1.33456,0,0,1-1.03614.51123,1.21571,1.21571,0,0,1-1.27441-1.37305,1.90589,1.90589,0,0,1,1.73282-2.06449l.01718-.00142a1.41612,1.41612,0,0,1,1.09375.53222l.09766-.44824h.89648l-.70118,3.15186a1.78411,1.78411,0,0,1-1.84179,1.60351,2.12492,2.12492,0,0,1-1.63868-.58789Zm2.51465-2.44435a.93916.93916,0,0,0-.82715-.41992,1.01231,1.01231,0,0,0-.94795,1.07282l.00264.03363a.71569.71569,0,0,0,.77051.74952,1.04467,1.04467,0,0,0,.76367-.38527Z"/><path d="M127.76494,82.47186a1.43875,1.43875,0,0,1,1.51953,1.51269,2.255,2.255,0,0,1-.06934.54639h-2.51464v.084a.83058.83058,0,0,0,.9248.7002,1.518,1.518,0,0,0,.85449-.252l.2793.60938a2.198,2.198,0,0,1-1.19727.3501c-1.06446,0-1.75-.57422-1.75-1.51953a1.97632,1.97632,0,0,1,1.92051-2.03059Zm.72168,1.38671a.69115.69115,0,0,0-.77735-.67919.96412.96412,0,0,0-.917.749h1.69435Z"/><path d="M133.11064,81.26727h.89649L132.97,85.93865h-.89648l.09765-.42041a1.27532,1.27532,0,0,1-1.01562.5044,1.24694,1.24694,0,0,1-1.28809-1.40087,1.977,1.977,0,0,1,1.78613-2.14991,1.27553,1.27553,0,0,1,1.07813.53222Zm-1.5625,3.96386a1.00455,1.00455,0,0,0,.77735-.39892l.25976-1.17675a.93612.93612,0,0,0-.792-.39209,1.09163,1.09163,0,0,0-.99414,1.17627.7356.7356,0,0,0,.67736.78952Q131.51224,85.23189,131.54814,85.23113Z"/><path d="M136.81181,81.26727h.88965l-1.0293,4.67138h-.88964Z"/><path d="M138.47978,82.55584h.89063l-.75,3.38281h-.88965Zm.72168-1.562a.45983.45983,0,0,1,.47627.44277l.00029.0128a.60126.60126,0,0,1-.59307.60934l-.00263,0a.4546.4546,0,0,1-.4751-.43311q-.00053-.01122-.00048-.02246a.60568.60568,0,0,1,.59472-.60938Z"/><path d="M142.42314,83.92156a1.18047,1.18047,0,0,0,.03516-.22412c0-.31494-.25293-.43408-.51953-.43408a1.25753,1.25753,0,0,0-.85352.39209l-.50391,2.2832h-.89062l.75-3.38281h.88965l-.09863.44141a1.60992,1.60992,0,0,1,1.12792-.52539c.65137,0,1.05762.34326,1.05762.86815a2.15521,2.15521,0,0,1-.03515.27344l-.51758,2.32519h-.89063Z"/><path d="M145.52275,84.61492l-.52539.45508-.18945.86865h-.88965l1.03027-4.67138h.88869l-.60938,2.73828,1.56836-1.4497h1.1348l-1.67969,1.53369.97266,1.84912H146.1458Z"/><path d="M105.48271,174.27216h.99414l-.833,3.79589h1.96778l-.18848.875h-2.9707Z"/><path d="M108.9124,175.56024h.88965l-.75,3.38281h-.88867Zm.72168-1.56152a.46.46,0,0,1,.47629.44311l.00027.012a.60094.60094,0,0,1-.5924.60934l-.0033,0a.45532.45532,0,0,1-.47607-.43361l-.00049-.02145a.60553.60553,0,0,1,.5957-.60941Z"/><path d="M112.85478,176.92645a1.11112,1.11112,0,0,0,.03516-.22461c0-.31445-.25195-.43359-.51758-.43359a1.26624,1.26624,0,0,0-.85547.3916l-.5039,2.2832h-.88868l.749-3.38281h.88965l-.09765.44141a1.60768,1.60768,0,0,1,1.127-.52539c.65137,0,1.05762.34375,1.05762.86816a1.98105,1.98105,0,0,1-.03515.27344l-.51855,2.32519h-.88867Z"/><path d="M115.95439,177.61981l-.52539.45506-.18847.86817h-.88965l1.02929-4.6709h.88965l-.60937,2.73828,1.56933-1.45019h1.13478l-1.68165,1.53416.97364,1.84863h-1.0791Z"/><path d="M93.83721,182.56024h.89648l-.75,3.38281h-.89648l.09765-.41992a1.27626,1.27626,0,0,1-1.01562.50391,1.24653,1.24653,0,0,1-1.28809-1.40039,1.9775,1.9775,0,0,1,1.78613-2.15039,1.27663,1.27663,0,0,1,1.07813.53222Zm-1.2754,2.67578a1.00346,1.00346,0,0,0,.77735-.39941l.25976-1.17676a.937.937,0,0,0-.792-.3916,1.09117,1.09117,0,0,0-.99414,1.17578.736.736,0,0,0,.67774.79q.03558.00271.07129.002Z"/><path d="M95.35478,186.13251a1.36194,1.36194,0,0,0,1.09961.45508c.4131,0,.80567-.18946.959-.875l.07031-.3086a1.33357,1.33357,0,0,1-1.03613.51171,1.21609,1.21609,0,0,1-1.27442-1.373,1.90634,1.90634,0,0,1,1.7332-2.065l.0168-.00139a1.41608,1.41608,0,0,1,1.09375.53222l.09766-.44824H99.011l-.70117,3.15235a1.785,1.785,0,0,1-1.8418,1.60351,2.12555,2.12555,0,0,1-1.63867-.58887Zm2.51465-2.44434a.938.938,0,0,0-.82715-.41992,1.0123,1.0123,0,0,0-.948,1.07281l.00264.03363a.71536.71536,0,0,0,.77051.749,1.04588,1.04588,0,0,0,.76367-.38477Z"/><path d="M99.63213,186.13251a1.36187,1.36187,0,0,0,1.09961.45508c.41308,0,.80566-.18946.959-.875l.07031-.3086a1.33355,1.33355,0,0,1-1.03613.51171,1.21608,1.21608,0,0,1-1.2744-1.373,1.90633,1.90633,0,0,1,1.7332-2.065l.0168-.00139a1.41615,1.41615,0,0,1,1.09375.53222l.09764-.44824h.8965l-.70118,3.15235a1.78493,1.78493,0,0,1-1.84179,1.60351,2.12554,2.12554,0,0,1-1.63867-.58887Zm2.51465-2.44434a.938.938,0,0,0-.82715-.41992,1.01231,1.01231,0,0,0-.948,1.0728l.00264.03364a.71536.71536,0,0,0,.77051.749,1.04588,1.04588,0,0,0,.76367-.38477Z"/><path d="M104.35869,182.56024h.88965l-.10547.44824a1.54015,1.54015,0,0,1,1.19824-.52539l-.18945.88282a1.41016,1.41016,0,0,0-.3291-.042,1.1916,1.1916,0,0,0-.84082.40625l-.48243,2.21289h-.89062Z"/><path d="M108.41338,182.47626a1.43858,1.43858,0,0,1,1.51953,1.51269,2.20667,2.20667,0,0,1-.07031.54688h-2.51368v.084a.83018.83018,0,0,0,.92383.70019,1.51906,1.51906,0,0,0,.85547-.25195l.2793.60937a2.204,2.204,0,0,1-1.19728.34961c-1.06445,0-1.751-.57421-1.751-1.51953a1.97651,1.97651,0,0,1,1.92086-2.03062Zm.72071,1.38672a.691.691,0,0,0-.77735-.67871.965.965,0,0,0-.917.749h1.69435Z"/><path d="M110.6956,186.13251a1.36457,1.36457,0,0,0,1.09961.45508c.4131,0,.80567-.18946.96-.875l.07032-.3086a1.33706,1.33706,0,0,1-1.03711.51171,1.21632,1.21632,0,0,1-1.27539-1.373,1.90783,1.90783,0,0,1,1.73635-2.06512l.0156-.00128a1.40925,1.40925,0,0,1,1.0918.53222l.09863-.44824h.89648l-.70019,3.15235a1.78551,1.78551,0,0,1-1.84179,1.60351,2.12642,2.12642,0,0,1-1.63965-.58887Zm2.51465-2.44434a.93632.93632,0,0,0-.82617-.41992,1.0117,1.0117,0,0,0-.948,1.07158l.00274.03486a.7145.7145,0,0,0,.76953.749,1.04244,1.04244,0,0,0,.76367-.38477Z"/><path d="M117.74736,182.56024h.89649l-.75,3.38281h-.89649l.09863-.41992a1.27624,1.27624,0,0,1-1.01561.50391,1.24608,1.24608,0,0,1-1.2881-1.40039,1.97744,1.97744,0,0,1,1.78516-2.15039,1.2772,1.2772,0,0,1,1.0791.53222ZM116.472,185.236a1.00538,1.00538,0,0,0,.77832-.39941l.25879-1.17676a.93387.93387,0,0,0-.791-.3916,1.0905,1.0905,0,0,0-.99414,1.17578.73581.73581,0,0,0,.67728.79Q116.43656,185.23668,116.472,185.236Z"/><path d="M119.34306,185.0612l.37891-1.73047h-.56055l.17482-.77049h.56054l.20312-.92383h.89648l-.20312.92383h.68652l-.18164.77049h-.6875l-.32226,1.47071a1.14277,1.14277,0,0,0-.01367.14062c0,.18164.10546.29395.33007.29395a.45844.45844,0,0,0,.24414-.07031l.03516.71484a1.04032,1.04032,0,0,1-.56055.14648c-.60156,0-1.00781-.23047-1.00781-.73535A1.095,1.095,0,0,1,119.34306,185.0612Z"/><path d="M122.32842,182.56024h.88964l-.75,3.38281h-.88867Zm.72168-1.56152a.46.46,0,0,1,.47629.44311l.00027.012a.60094.60094,0,0,1-.59239.60934l-.00331,0a.45533.45533,0,0,1-.47607-.43361l-.0005-.02145a.60554.60554,0,0,1,.59571-.60941Z"/><path d="M125.58721,182.47626a1.5124,1.5124,0,0,1,1.68164,1.541,1.98094,1.98094,0,0,1-1.95181,2.00964l-.01011.00012a1.50034,1.50034,0,0,1-1.67383-1.5332,1.98186,1.98186,0,0,1,1.94563-2.01743Zm-.02735.792a1.101,1.101,0,0,0-1.00976,1.17579.72988.72988,0,0,0,.792.792,1.09635,1.09635,0,0,0,1.001-1.17675.7258.7258,0,0,0-.78324-.79107Z"/><path d="M130.44463,183.92645a1.18573,1.18573,0,0,0,.03515-.22461c0-.31445-.25195-.43359-.51855-.43359a1.26162,1.26162,0,0,0-.85449.3916l-.50391,2.2832h-.88965l.749-3.38281h.89063l-.09863.44141a1.60992,1.60992,0,0,1,1.12793-.52539c.65039,0,1.05664.34375,1.05664.86816a1.9826,1.9826,0,0,1-.03516.27344l-.51758,2.32519h-.88965Z"/><path class="cls-6" d="M334.41129,122.58074v3.13672h-.99512v-4.6709h1.02344l2.16406,3.02539v-3.02539h.99414v4.6709h-.959Z"/><path class="cls-6" d="M338.51089,124.02313a1.78959,1.78959,0,1,1,1.80082,1.77829c-.00489,0-.0098,0-.01468,0a1.71381,1.71381,0,0,1-1.78583-1.63861Q338.50819,124.093,338.51089,124.02313Zm2.6543,0a.87235.87235,0,1,0-.86816.9873.8929.8929,0,0,0,.873-.91237Q341.16919,124.06052,341.16519,124.02313Z"/><path class="cls-6" d="M345.22281,123.67254a.54865.54865,0,0,0-.623-.62988.96711.96711,0,0,0-.77148.3994v2.27539h-.88867v-3.38281h.88867v.44141a1.55212,1.55212,0,0,1,1.18359-.5254.98361.98361,0,0,1,1.09961,1.07911v2.38769h-.88867Z"/><path class="cls-6" d="M347.03922,123.6452h1.68066v.75586h-1.68066Z"/><path class="cls-6" d="M349.74429,124.87762V123.112h-.56054v-.77734h.56054v-.92383h.89649v.92383h.68554v.77734h-.68554v1.52735c0,.21.11133.37109.30761.37109a.48869.48869,0,0,0,.3086-.09765l.18848.67188a1.0969,1.0969,0,0,1-.74219.2168.845.845,0,0,1-.959-.92385Z"/><path class="cls-6" d="M354.17984,125.36785a1.39581,1.39581,0,0,1-1.07031.4336,1.12678,1.12678,0,0,1-1.17661-1.07461l-.00113-.0455a1.07192,1.07192,0,0,1,1.17774-1.07911,1.36451,1.36451,0,0,1,1.07031.41407v-.46973c0-.34277-.293-.56738-.74219-.56738a1.42421,1.42421,0,0,0-.9873.3994l-.33594-.59472a2.21383,2.21383,0,0,1,1.47754-.53321c.77051,0,1.47852.30861,1.47852,1.28223v2.18457h-.89063Zm0-.88281a.89019.89019,0,0,0-.71387-.29395c-.35058,0-.63769.18847-.63769.51075,0,.31639.28711.498.63769.498a.8847.8847,0,0,0,.71387-.29493Z"/><path class="cls-6" d="M356.4689,125.94207a1.3466,1.3466,0,0,0,1.05762.41992.8264.8264,0,0,0,.93066-.85351v-.34375a1.31624,1.31624,0,0,1-1.043.53222c-.84765,0-1.49218-.59472-1.49218-1.72363a1.514,1.514,0,0,1,1.49218-1.72266,1.30214,1.30214,0,0,1,1.043.51857v-.43457h.89649V125.487c0,1.28907-.99414,1.60352-1.82715,1.60352a2.04081,2.04081,0,0,1-1.457-.5039Zm1.98828-2.51367a.96149.96149,0,0,0-.76269-.38574.93459.93459,0,0,0,0,1.86229.98363.98363,0,0,0,.76269-.38475Z"/><path class="cls-6" d="M360.76382,125.94207a1.34319,1.34319,0,0,0,1.05665.41992.82679.82679,0,0,0,.93164-.85351v-.34375a1.31625,1.31625,0,0,1-1.043.53222c-.84766,0-1.49219-.59472-1.49219-1.72363a1.51355,1.51355,0,0,1,1.49219-1.72266,1.30351,1.30351,0,0,1,1.043.51857v-.43457h.89648V125.487c0,1.28907-.99414,1.60352-1.82812,1.60352a2.04085,2.04085,0,0,1-1.457-.5039Zm1.98829-2.51367a.962.962,0,0,0-.76368-.38574.93468.93468,0,0,0,0,1.86229.98406.98406,0,0,0,.76368-.38475Z"/><path class="cls-6" d="M366.25211,122.25066a1.69736,1.69736,0,0,1,1.69531,1.86329v.19629h-2.51465a.91162.91162,0,0,0,.97363.78417,1.38622,1.38622,0,0,0,.90332-.33593l.3916.57422a2.08086,2.08086,0,0,1-1.39257.46875,1.77562,1.77562,0,0,1-.05664-3.55079Zm-.834,1.457h1.668a.78438.78438,0,0,0-.81738-.74989l-.01663.00089a.81447.81447,0,0,0-.834.749Z"/><path class="cls-6" d="M371.12613,125.2907a1.32792,1.32792,0,0,1-1.04395.51075c-.85351,0-1.498-.64356-1.498-1.77149,0-1.10644.63672-1.7793,1.498-1.7793a1.30533,1.30533,0,0,1,1.04395.51857v-1.72266h.89648v4.6709h-.89648Zm0-1.86229a.97834.97834,0,0,0-.77051-.38575.99368.99368,0,0,0,0,1.96778.98036.98036,0,0,0,.77051-.38478Z"/><path class="cls-6" d="M333.39566,130.04655h.88965v4.6709h-.88965Z"/><path class="cls-6" d="M335.2482,130.30534a.53223.53223,0,1,1,.53223.53321A.53223.53223,0,0,1,335.2482,130.30534Zm.0918,1.0293h.88867v3.38281H335.34Z"/><path class="cls-6" d="M339.56656,132.67255a.54865.54865,0,0,0-.623-.62989.96713.96713,0,0,0-.77148.39942v2.27539h-.88867v-3.38281h.88867v.4414a1.55218,1.55218,0,0,1,1.18359-.5254.98364.98364,0,0,1,1.09961,1.07911v2.3877h-.88867Z"/><path class="cls-6" d="M342.80484,133.41473l-.40625.43457v.86817H341.509v-4.6709h.88965v2.79395l1.28125-1.50586h1.09277l-1.33789,1.53418,1.37989,1.84863h-1.11328Z"/><path class="cls-6" d="M347.382,132.112h-.55957v-.77734h.55957V131.153a1.09059,1.09059,0,0,1,1.1416-1.17676,1.441,1.441,0,0,1,.64453.13965l-.18164.63086a.55162.55162,0,0,0-.28711-.07031c-.252,0-.4209.168-.4209.49023v.168h.68653v.77734h-.68653v2.60547H347.382Z"/><path class="cls-6" d="M349.44742,133.02313a1.78909,1.78909,0,1,1,1.79983,1.77829c-.00491,0-.00979,0-.01468,0a1.713,1.713,0,0,1-1.78488-1.63795Q349.44467,133.09335,349.44742,133.02313Zm2.6543,0a.87278.87278,0,1,0-.86915.98731.893.893,0,0,0,.874-.91165Q352.10572,133.06088,352.10172,133.02313Z"/><path class="cls-6" d="M353.87125,131.33466h.88867v.46289a1.45,1.45,0,0,1,1.0791-.53907v.86817a1.14718,1.14718,0,0,0-.24512-.02051,1.13137,1.13137,0,0,0-.834.377v2.23437h-.88867Z"/><path class="cls-6" d="M361.54507,132.75652H359.339v1.96093h-.99512v-4.6709h.99512v1.835h2.206v-1.835h1.002v4.6709h-1.002Z"/><path class="cls-6" d="M366.67007,133.91277h-2.08789l-.293.80468h-1.09375l1.80762-4.6709h1.24707l1.79981,4.6709H366.964Zm-1.82128-.86132h1.54785l-.76953-2.14355Z"/><line class="cls-7" x1="123.08059" y1="202.40916" x2="255.17091" y2="202.40916"/><polygon class="cls-8" points="126.394 206.499 127.076 205.767 123.464 202.41 127.076 199.053 126.394 198.32 121.996 202.41 126.394 206.499"/><path d="M161.41924,205.91277H160.053l.19628-.875h3.72558l-.18847.875h-1.36621l-.833,3.79589h-1.002Z"/><path d="M164.0208,206.32587h.88867l-.10547.44824a1.54156,1.54156,0,0,1,1.19824-.52539l-.18847.88281a1.42223,1.42223,0,0,0-.33008-.042,1.18945,1.18945,0,0,0-.83985.40625l-.48339,2.21289h-.88965Z"/><path d="M169.06865,206.32587h.89648l-.749,3.38281h-.89648l.09765-.41992a1.2762,1.2762,0,0,1-1.01562.5039,1.24666,1.24666,0,0,1-1.28906-1.40039,1.97824,1.97824,0,0,1,1.7871-2.15039,1.2792,1.2792,0,0,1,1.07813.53223Zm-1.27441,2.67578a1.005,1.005,0,0,0,.77734-.39942l.25879-1.17675a.937.937,0,0,0-.792-.39161,1.09183,1.09183,0,0,0-.99414,1.17579.73674.73674,0,0,0,.67923.79q.03534.00266.07079.00192Z"/><path d="M171.056,207.1032h-.56055l.168-.77735h.56055l.043-.18164a1.29363,1.29363,0,0,1,1.26758-1.17676,1.36336,1.36336,0,0,1,.74218.18946l-.30859.60156a.54843.54843,0,0,0-.32227-.09082c-.27343,0-.41992.168-.49023.47656l-.042.18164h.69336l-.1748.77735h-.68653l-.57421,2.60546H170.475Zm2.291,0h-.56055l.168-.77735h.56055l.041-.18164a1.29573,1.29573,0,0,1,1.26756-1.17676,1.36443,1.36443,0,0,1,.74317.18946l-.30762.60156a.55056.55056,0,0,0-.32227-.09082c-.27343,0-.42088.168-.49023.47656l-.043.18164h.69336l-.17481.77735h-.68652l-.57422,2.60546h-.89648Zm2.26172-.77735h.88867l-.748,3.38281h-.89063Zm.7207-1.56152a.45884.45884,0,0,1,.47623.44076l.00033.0143a.601.601,0,0,1-.59242.60935l-.00328,0a.45509.45509,0,0,1-.47513-.43412l-.00045-.021a.60535.60535,0,0,1,.59469-.60935Z"/><path d="M178.90556,206.24188a1.5001,1.5001,0,0,1,1.373.665l-.665.51171a.8.8,0,0,0-.708-.38476,1.09647,1.09647,0,0,0-1.067,1.1252l.00252.05058a.7766.7766,0,0,0,.84765.792.93986.93986,0,0,0,.707-.33594l.48438.59473a1.7511,1.7511,0,0,1-1.28223.53222,1.50762,1.50762,0,0,1-1.65918-1.541,1.9694,1.9694,0,0,1,1.92864-2.00934Z"/><path d="M182.97978,206.32587h.88965l-.10547.44824a1.54016,1.54016,0,0,1,1.19826-.52539l-.18945.88281a1.41071,1.41071,0,0,0-.32911-.042,1.19163,1.19163,0,0,0-.84082.40625l-.48242,2.21289h-.89062Z"/><path d="M187.03447,206.24188a1.43876,1.43876,0,0,1,1.51953,1.5127,2.20559,2.20559,0,0,1-.07031.54687H185.97v.084a.83017.83017,0,0,0,.92383.7002,1.51907,1.51907,0,0,0,.85545-.252l.2793.60937a2.20391,2.20391,0,0,1-1.19727.34961c-1.06445,0-1.751-.57422-1.751-1.51953a1.9765,1.9765,0,0,1,1.9209-2.03058Zm.7207,1.38671a.69111.69111,0,0,0-.77734-.67872.965.965,0,0,0-.917.749h1.69434Z"/><path d="M189.344,208.82684l.37793-1.73047h-.56054l.17579-.7705h.56055l.20313-.92383h.89648l-.20313.92383h.68555l-.18164.7705h-.68652l-.32227,1.47071a.98163.98163,0,0,0-.01463.14062c0,.18164.10545.294.33006.294a.46229.46229,0,0,0,.24512-.07031l.03418.71484a1.0368,1.0368,0,0,1-.55957.14648c-.60254,0-1.00879-.23047-1.00879-.73535A1.105,1.105,0,0,1,189.344,208.82684Z"/><path d="M192.73759,208.364a1.11965,1.11965,0,0,0-.02734.20312c0,.3086.252.43457.56738.43457a1.25194,1.25194,0,0,0,.80567-.39941l.5039-2.27637h.88964l-.749,3.38281h-.89062l.09863-.4414a1.60617,1.60617,0,0,1-1.12793.52539c-.65039,0-1.05664-.34277-1.05664-.86816a2.00981,2.00981,0,0,1,.03418-.27344l.51172-2.3252h.89648Z"/><path d="M196.54716,206.32587h.88964l-.10546.44824a1.53951,1.53951,0,0,1,1.19727-.52539l-.18848.88281a1.41055,1.41055,0,0,0-.3291-.042,1.1916,1.1916,0,0,0-.84082.40625l-.4834,2.21289h-.88867Z"/><path d="M201.18486,207.69206a1.18575,1.18575,0,0,0,.03516-.22461c0-.31445-.252-.43359-.51953-.43359a1.25921,1.25921,0,0,0-.85352.3916l-.50391,2.2832h-.89062l.75-3.38281h.88965l-.09864.44141a1.612,1.612,0,0,1,1.12792-.52539c.65137,0,1.05762.34375,1.05762.86816a2.14441,2.14441,0,0,1-.03516.27344l-.51758,2.32519h-.89062Z"/><path d="M203.04814,208.59538a1.73485,1.73485,0,0,0,1.19043.51856c.30176,0,.49024-.16114.49024-.35744,0-.20312-.28711-.30859-.62305-.41992-.4834-.16113-1.09277-.37891-1.09277-.95313a1.23273,1.23273,0,0,1,1.31022-1.15q.04227.00276.08431.00841a1.986,1.986,0,0,1,1.42773.55371l-.44141.55957a1.40982,1.40982,0,0,0-1.001-.43359c-.31543,0-.49024.14648-.49024.3291,0,.16113.252.26563.58106.37793.498.1543,1.13476.37109,1.13476.98047,0,.64453-.53906,1.18359-1.46386,1.18359a2.20856,2.20856,0,0,1-1.59668-.60937Z"/><path d="M208.221,206.32587h.92481l.35742,2.35351,1.41406-2.35351h.98047l-2.10742,3.38281h-.96Z"/><path d="M212.50127,206.32587h.88867l-.749,3.38281h-.88965Zm.7207-1.56153a.45944.45944,0,0,1,.47626.442l.0003.01311a.60094.60094,0,0,1-.59242.60934l-.00328,0a.45591.45591,0,0,1-.47609-.43481l-.00047-.02027a.60552.60552,0,0,1,.59573-.60936Z"/><path d="M216.77959,206.32587h.89648l-.749,3.38281h-.89649l.09766-.41992a1.27622,1.27622,0,0,1-1.01562.5039,1.24672,1.24672,0,0,1-1.28907-1.40039,1.97825,1.97825,0,0,1,1.78711-2.15039,1.27922,1.27922,0,0,1,1.07813.53223Zm-1.27442,2.67578a1.005,1.005,0,0,0,.77735-.39942l.25879-1.17675a.937.937,0,0,0-.792-.39161,1.09183,1.09183,0,0,0-.99414,1.17579.73673.73673,0,0,0,.67923.79q.03534.00266.07078.00192Z"/><path d="M164.23076,213.24188a1.5111,1.5111,0,0,1,1.68066,1.541,1.98073,1.98073,0,0,1-1.95141,2.00965l-.00952.00012a1.50081,1.50081,0,0,1-1.67383-1.5332,1.98183,1.98183,0,0,1,1.9456-2.01743Zm-.02832.792a1.10078,1.10078,0,0,0-1.00781,1.17578.72912.72912,0,0,0,.791.792,1.09645,1.09645,0,0,0,1.002-1.17676.72727.72727,0,0,0-.78519-.791Z"/><path d="M167.51982,215.364a1.04517,1.04517,0,0,0-.02832.20312c0,.3086.252.43457.56836.43457a1.24951,1.24951,0,0,0,.80469-.39941l.5039-2.27637h.89063l-.75,3.38281h-.88965l.09863-.4414a1.60808,1.60808,0,0,1-1.12793.52539c-.65136,0-1.05761-.34277-1.05761-.86816a2.01731,2.01731,0,0,1,.03515-.27344l.51172-2.3252h.89649Z"/><path d="M170.9622,215.82684l.37891-1.73047h-.56055l.17481-.7705h.56054l.20313-.92383h.89648l-.20312.92383h.68652l-.18164.7705h-.6875l-.32226,1.47071a1.1389,1.1389,0,0,0-.01368.14062c0,.18164.10546.294.33007.294a.45846.45846,0,0,0,.24414-.07031l.03515.71484a1.04028,1.04028,0,0,1-.56054.14648c-.60157,0-1.00782-.23047-1.00782-.73535A1.09368,1.09368,0,0,1,170.9622,215.82684Z"/><path d="M174.0872,216.70866h-.88868l1.02929-4.67089h.88868l-.377,1.709a1.28539,1.28539,0,0,1,1.02149-.50489,1.24935,1.24935,0,0,1,1.28222,1.40137,1.98616,1.98616,0,0,1-1.77832,2.14941,1.2599,1.2599,0,0,1-1.0791-.53222Zm1.27539-2.6748a1.02114,1.02114,0,0,0-.77734.40625l-.25976,1.17578a.93016.93016,0,0,0,.791.38574,1.08756,1.08756,0,0,0,.99548-1.17242l-.00037-.00434a.73569.73569,0,0,0-.67814-.78906q-.03537-.00267-.07087-.00194Z"/><path d="M179.595,213.24188a1.51241,1.51241,0,0,1,1.68164,1.541,1.98094,1.98094,0,0,1-1.95181,2.00965l-.0101.00012a1.5004,1.5004,0,0,1-1.67382-1.5332,1.98185,1.98185,0,0,1,1.94561-2.01743Zm-.02734.792a1.101,1.101,0,0,0-1.00977,1.17578.72988.72988,0,0,0,.792.792,1.09635,1.09635,0,0,0,1.001-1.17676.72583.72583,0,0,0-.78324-.791Z"/><path d="M182.88408,215.364a1.11877,1.11877,0,0,0-.02734.20312c0,.3086.25195.43457.5664.43457a1.25194,1.25194,0,0,0,.80567-.39941l.50488-2.27637h.88867l-.749,3.38281h-.88965l.09766-.4414a1.60391,1.60391,0,0,1-1.127.52539c-.65137,0-1.05762-.34277-1.05762-.86816a2.00981,2.00981,0,0,1,.03418-.27344l.5117-2.3252h.89649Z"/><path d="M188.67509,214.69206a1.18575,1.18575,0,0,0,.03516-.22461c0-.31445-.25195-.43359-.51855-.43359a1.26158,1.26158,0,0,0-.8545.3916l-.5039,2.2832h-.88965l.749-3.38281h.89063l-.09864.44141a1.61,1.61,0,0,1,1.12793-.52539c.65039,0,1.05664.34375,1.05664.86816a1.98105,1.98105,0,0,1-.03515.27344l-.51758,2.32519h-.88965Z"/><path d="M193.52861,212.03777h.89648l-1.03613,4.67089h-.89648l.09863-.41992a1.27623,1.27623,0,0,1-1.01562.50391,1.24632,1.24632,0,0,1-1.28907-1.40039,1.97817,1.97817,0,0,1,1.78614-2.15039,1.27974,1.27974,0,0,1,1.0791.53222Zm-1.56152,3.96386a1.007,1.007,0,0,0,.77832-.39941l.25781-1.17676a.93386.93386,0,0,0-.791-.3916,1.09117,1.09117,0,0,0-.99416,1.17578.73654.73654,0,0,0,.67881.79Q191.93191,216.00234,191.96709,216.00163Z"/><path d="M196.7542,212.03777h1.08593l.50391,3.59277,2.08008-3.59277h1.18359l-2.8291,4.67089H197.5247Z"/><path d="M202.2083,212.03777h.99414l-.834,3.79589h1.96875l-.18945.875H201.178Z"/><path d="M208.31767,215.903h-2.08789l-.46875.80566h-1.1416l2.83691-4.67089h1.2461l.77051,4.67089h-1.03614Zm-1.625-.86133h1.54688l-.30762-2.14941Z"/><path d="M211.78252,213.39616l-.72852,3.3125h-.99414l1.0293-4.67089h1.02343l1.45606,3.20019.708-3.20019h.99414l-1.02929,4.67089h-.96Z"/><line class="cls-7" x1="121.99612" y1="55.53014" x2="254.08646" y2="55.53014"/><polygon class="cls-8" points="250.773 59.62 250.091 58.888 253.703 55.531 250.091 52.174 250.773 51.441 255.171 55.531 250.773 59.62"/><path d="M149.34209,41.75359h-1.36621l.19726-.87548h3.72461l-.18848.87548h-1.36622l-.833,3.7959h-1.001Z"/><path d="M151.94365,42.16668h.88965l-.10547.44824a1.53952,1.53952,0,0,1,1.19726-.52539l-.18847.88281a1.37772,1.37772,0,0,0-.3291-.04248,1.19345,1.19345,0,0,0-.84082.40625l-.4834,2.21337h-.88867Z"/><path d="M156.9915,42.16668h.89649l-.749,3.38281h-.89648l.09863-.42041a1.27534,1.27534,0,0,1-1.01562.5044,1.24668,1.24668,0,0,1-1.28907-1.40088,1.97772,1.97772,0,0,1,1.78614-2.1499,1.27853,1.27853,0,0,1,1.0791.53222ZM155.71709,44.842a1.008,1.008,0,0,0,.77832-.39892l.25781-1.17676a.933.933,0,0,0-.791-.39209,1.09164,1.09164,0,0,0-.99416,1.17627.73611.73611,0,0,0,.67847.78955Q155.68173,44.84272,155.71709,44.842Z"/><path d="M158.97978,42.944h-.56054l.168-.77734h.56055l.042-.18213a1.29475,1.29475,0,0,1,1.26758-1.17676,1.36538,1.36538,0,0,1,.74218.18946l-.30761.602a.545.545,0,0,0-.32227-.09082c-.27344,0-.41992.168-.49023.47607l-.043.18213h.69336l-.17382.77734h-.6875l-.57421,2.60547h-.89649Zm2.29,0h-.56055l.168-.77734h.56054l.042-.18213a1.29475,1.29475,0,0,1,1.26758-1.17676,1.3632,1.3632,0,0,1,.74219.18946l-.3086.602a.54194.54194,0,0,0-.32129-.09082c-.27343,0-.42089.168-.49023.47607l-.042.18213h.69336l-.17578.77734h-.68555l-.57421,2.60547h-.89649Zm2.26269-.77734h.88867l-.749,3.38281h-.88965Zm.7207-1.562a.45983.45983,0,0,1,.47628.44276l.00029.01281a.60127.60127,0,0,1-.59307.60934l-.00264,0a.456.456,0,0,1-.4761-.435l-.00046-.0206a.60586.60586,0,0,1,.59575-.60936Z"/><path d="M166.82939,42.0827a1.50123,1.50123,0,0,1,1.37305.665l-.666.51171a.79875.79875,0,0,0-.707-.38525,1.096,1.096,0,0,0-1.067,1.1242q.00066.02607.00259.05207a.77623.77623,0,0,0,.84766.7915.93824.93824,0,0,0,.707-.33593l.4834.59521a1.75119,1.75119,0,0,1-1.28223.53223,1.50819,1.50819,0,0,1-1.65918-1.541,1.97021,1.97021,0,0,1,1.9303-2.00934Z"/><path d="M170.4622,45.73846a1.3606,1.3606,0,0,0,1.0996.45556c.41211,0,.80469-.18945.959-.87548l.07031-.30811a1.3365,1.3365,0,0,1-1.03711.51123,1.21562,1.21562,0,0,1-1.27441-1.373,1.90663,1.90663,0,0,1,1.7344-2.06454l.0166-.00137a1.41267,1.41267,0,0,1,1.09278.53222l.09863-.44824h.89648l-.70118,3.15186a1.78452,1.78452,0,0,1-1.8418,1.60351,2.12388,2.12388,0,0,1-1.63869-.58838Zm2.51368-2.44434a.93631.93631,0,0,0-.82618-.41992,1.01231,1.01231,0,0,0-.94795,1.07281l.00264.03364a.71531.71531,0,0,0,.76953.74951,1.04124,1.04124,0,0,0,.76369-.38526Z"/><path d="M176.50029,42.0827a1.511,1.511,0,0,1,1.68066,1.54052,1.98117,1.98117,0,0,1-1.95176,2.01015l-.00919.00011a1.50092,1.50092,0,0,1-1.67383-1.53369,1.98142,1.98142,0,0,1,1.94524-2.017Zm-.02832.7915a1.10093,1.10093,0,0,0-1.00781,1.17627.72876.72876,0,0,0,.791.7915,1.09627,1.09627,0,0,0,1.002-1.17627.72736.72736,0,0,0-.78516-.7915Z"/><path d="M180.722,42.0827a1.43867,1.43867,0,0,1,1.51953,1.51269,2.25553,2.25553,0,0,1-.06933.54639h-2.51465v.084a.83057.83057,0,0,0,.9248.7002,1.518,1.518,0,0,0,.85449-.252l.2793.60938a2.19789,2.19789,0,0,1-1.19726.3501c-1.06446,0-1.75-.57422-1.75-1.51953a1.97631,1.97631,0,0,1,1.9205-2.03059Zm.72168,1.38671a.69114.69114,0,0,0-.77734-.67919.96411.96411,0,0,0-.917.749h1.69433Z"/><path d="M183.03642,44.43572a1.7349,1.7349,0,0,0,1.19043.51856c.30176,0,.49024-.16113.49024-.35742,0-.20313-.28711-.30811-.62305-.41993-.4834-.16113-1.09277-.37841-1.09277-.95263a1.23243,1.23243,0,0,1,1.30964-1.15007q.04257.00276.08489.00847a1.9877,1.9877,0,0,1,1.42773.55321l-.4414.56006a1.41006,1.41006,0,0,0-1.001-.43408c-.31543,0-.49024.147-.49024.32911,0,.16112.252.26611.58106.37841.49805.1538,1.13476.3711,1.13476.98046,0,.64454-.53906,1.18361-1.46386,1.18361a2.20861,2.20861,0,0,1-1.59668-.60938Z"/><path d="M188.32158,44.66717l.37793-1.73h-.55957l.17383-.77051h.56054l.20313-.92432h.89648l-.20312.92432h.6875l-.18262.77051h-.68652l-.32227,1.4707a.97426.97426,0,0,0-.01367.14014c0,.18213.10547.29394.3291.29394a.46518.46518,0,0,0,.24512-.06982l.03515.71435a1.04032,1.04032,0,0,1-.56054.147c-.60254,0-1.00879-.231-1.00879-.73535A1.04661,1.04661,0,0,1,188.32158,44.66717Z"/><path d="M192.60088,42.0827a1.51187,1.51187,0,0,1,1.68164,1.54052,1.98118,1.98118,0,0,1-1.95177,2.01015l-.00917.00011a1.50094,1.50094,0,0,1-1.67383-1.53369,1.98125,1.98125,0,0,1,1.94487-2.017Zm-.02735.7915a1.101,1.101,0,0,0-1.00879,1.17627.729.729,0,0,0,.792.7915,1.09619,1.09619,0,0,0,1.001-1.17627.72662.72662,0,0,0-.78423-.7915Z"/><path d="M199.43486,40.801a2.07781,2.07781,0,0,1,2.07227,1.32373l-.959.32226a1.17832,1.17832,0,0,0-1.16309-.76367,1.71039,1.71039,0,0,0-1.6322,1.78515l.00036.00785a1.236,1.236,0,0,0,1.19375,1.27686q.06134.00207.12266-.002a1.47731,1.47731,0,0,0,1.09961-.53955l.76367.52539a2.41675,2.41675,0,0,1-1.91894.89648,2.11892,2.11892,0,0,1-2.29035-1.93236q-.00684-.08076-.00751-.16187a2.66854,2.66854,0,0,1,2.59734-2.73788Q199.37414,40.79984,199.43486,40.801Z"/><path d="M202.22392,42.16668h.88965l-.749,3.38281H201.474Zm.72071-1.562a.45921.45921,0,0,1,.47624.44154l.00032.014a.60128.60128,0,0,1-.5931.60934l-.0026,0a.45517.45517,0,0,1-.47513-.4343q-.00048-.01062-.00046-.02127A.60568.60568,0,0,1,202.94463,40.60468Z"/><path d="M203.80986,44.43572a1.73743,1.73743,0,0,0,1.19141.51856c.30078,0,.49023-.16113.49023-.35742,0-.20313-.28711-.30811-.623-.41993-.48438-.16113-1.09375-.37841-1.09375-.95263a1.23245,1.23245,0,0,1,1.30965-1.15007q.04257.00276.08488.00847a1.9918,1.9918,0,0,1,1.42871.55321l-.4414.56006a1.412,1.412,0,0,0-1.001-.43408c-.31641,0-.49024.147-.49024.32911,0,.16112.252.26611.58008.37841.49805.1538,1.13477.3711,1.13477.98046,0,.64454-.53906,1.18361-1.46289,1.18361a2.211,2.211,0,0,1-1.59766-.60938Z"/><path d="M209.04619,42.0827a1.50235,1.50235,0,0,1,1.37305.665l-.666.51171a.801.801,0,0,0-.707-.38525,1.096,1.096,0,0,0-1.067,1.1242q.00066.02607.00259.05207a.77569.77569,0,0,0,.84766.7915.93821.93821,0,0,0,.707-.33593l.48244.59521a1.74881,1.74881,0,0,1-1.28125.53223,1.50889,1.50889,0,0,1-1.66016-1.541,1.971,1.971,0,0,1,1.93187-2.00936Z"/><path d="M212.65556,42.0827a1.51188,1.51188,0,0,1,1.68166,1.54052,1.98117,1.98117,0,0,1-1.95177,2.01015l-.00917.00011a1.50092,1.50092,0,0,1-1.67383-1.53369,1.98125,1.98125,0,0,1,1.94486-2.017Zm-.02734.7915a1.101,1.101,0,0,0-1.00879,1.17627.729.729,0,0,0,.792.7915,1.0962,1.0962,0,0,0,1.001-1.17627.72663.72663,0,0,0-.78423-.7915Z"/><path d="M217.57646,40.87811h3.30567l-.19629.85449h-2.30371l-.2168,1.01514h2.25391l-.18848.85449h-2.2627l-.42674,1.94726h-.99512Z"/><path d="M222.63994,41.75359H221.2747l.19532-.87548h3.72656l-.18945.87548h-1.36524l-.834,3.7959H221.806Z"/><path d="M229.7415,42.88787a2.693,2.693,0,0,1-3.02637,2.66162h-1.835l1.02929-4.67138h1.80664a2.0034,2.0034,0,0,1,2.02533,1.98123Q229.74156,42.87361,229.7415,42.88787Zm-1.03711.063a1.14986,1.14986,0,0,0-1.1011-1.19662q-.03781-.00156-.07566-.00065h-.8125l-.64355,2.92041h.82617a1.70057,1.70057,0,0,0,1.80351-1.591q.00415-.066.00313-.13213Z"/><path d="M158.95439,49.16668h.92481l.35644,2.353,1.416-2.353h.98047l-2.10937,3.38281h-.959Z"/><path d="M163.23369,49.16668h.89062l-.75,3.38281h-.88963Zm.72168-1.562a.45982.45982,0,0,1,.47627.44276l.00029.01281a.60126.60126,0,0,1-.59306.60934l-.00264,0a.45459.45459,0,0,1-.4751-.43313q-.00052-.01121-.00049-.02244A.60569.60569,0,0,1,163.95537,47.60468Z"/><path d="M167.513,49.16668h.89648l-.749,3.38281H166.764l.09863-.42041a1.27537,1.27537,0,0,1-1.01562.5044A1.24668,1.24668,0,0,1,164.558,51.2326a1.97772,1.97772,0,0,1,1.78614-2.1499,1.27853,1.27853,0,0,1,1.0791.53222ZM166.23857,51.842a1.00792,1.00792,0,0,0,.77832-.39892l.25781-1.17676a.933.933,0,0,0-.791-.39209,1.09163,1.09163,0,0,0-.99414,1.17627.7361.7361,0,0,0,.67845.78955Q166.20322,51.84272,166.23857,51.842Z"/><path d="M171.222,49.16668h.88965l-.749,3.38281H170.472Zm.7207-1.562a.45922.45922,0,0,1,.47625.44156l.00032.014a.60128.60128,0,0,1-.5931.60934l-.00261,0a.45518.45518,0,0,1-.47513-.4343q-.00048-.01062-.00045-.02127a.60569.60569,0,0,1,.59469-.60938Z"/><path d="M175.16533,50.5324a1.18139,1.18139,0,0,0,.03516-.22412c0-.31494-.252-.43408-.51954-.43408a1.25738,1.25738,0,0,0-.85351.39209l-.50391,2.2832h-.89062l.75-3.38281h.88965l-.09864.44141a1.61,1.61,0,0,1,1.12793-.52539c.65137,0,1.05762.34326,1.05762.86816a2.15184,2.15184,0,0,1-.03516.27344l-.51756,2.32519h-.89062Z"/><path d="M177.55009,52.54949h-.88964l1.03027-4.67138h.88867l-.37793,1.709a1.28812,1.28812,0,0,1,1.02246-.50439,1.24879,1.24879,0,0,1,1.28125,1.40087,1.9857,1.9857,0,0,1-1.77929,2.14991,1.26181,1.26181,0,0,1-1.07813-.53223Zm1.27442-2.67529a1.02108,1.02108,0,0,0-.77735.40625l-.25878,1.17627a.92848.92848,0,0,0,.791.38525,1.087,1.087,0,0,0,.99447-1.17224l-.00033-.004a.73613.73613,0,0,0-.67847-.78956Q178.85985,49.87349,178.82451,49.8742Z"/><path d="M183.05791,49.0827a1.51154,1.51154,0,0,1,1.68066,1.54052,1.98136,1.98136,0,0,1-1.95215,2.01014l-.00976.00012a1.50086,1.50086,0,0,1-1.67383-1.53369,1.9816,1.9816,0,0,1,1.94563-2.01694Zm-.02832.7915a1.101,1.101,0,0,0-1.00879,1.17627.72922.72922,0,0,0,.791.7915,1.09627,1.09627,0,0,0,1.002-1.17627.72662.72662,0,0,0-.78421-.7915Z"/><path d="M186.347,51.20477a1.11325,1.11325,0,0,0-.02832.20312c0,.30811.252.43408.56738.43408a1.25133,1.25133,0,0,0,.80469-.39892l.50488-2.27637h.88965l-.75,3.38281h-.88867l.09766-.4414a1.60778,1.60778,0,0,1-1.127.52539c-.65235,0-1.0586-.34326-1.0586-.86817a1.995,1.995,0,0,1,.03516-.27343l.5117-2.3252h.89649Z"/><path d="M192.138,50.5324a1.18059,1.18059,0,0,0,.03516-.22412c0-.31494-.252-.43408-.51953-.43408a1.25739,1.25739,0,0,0-.85352.39209l-.50391,2.2832h-.89062l.75-3.38281h.88965l-.09864.44141a1.61,1.61,0,0,1,1.12793-.52539c.65137,0,1.05762.34326,1.05762.86816a2.15365,2.15365,0,0,1-.03516.27344l-.51757,2.32519h-.89063Z"/><path d="M196.9915,47.87811h.89649l-1.03711,4.67138h-.89649l.09766-.42041a1.27537,1.27537,0,0,1-1.01563.5044,1.24689,1.24689,0,0,1-1.28808-1.40088,1.977,1.977,0,0,1,1.78613-2.1499,1.27546,1.27546,0,0,1,1.07812.53222ZM195.429,51.842a1.00452,1.00452,0,0,0,.77734-.39892l.25977-1.17676a.93614.93614,0,0,0-.792-.39209A1.09163,1.09163,0,0,0,194.68,51.0505a.73559.73559,0,0,0,.67736.78952Q195.39308,51.84277,195.429,51.842Z"/><path d="M200.21611,47.87811h1.08594l.5039,3.59277,2.08007-3.59277h1.18359l-2.82812,4.67138h-1.25391Z"/><path d="M205.67021,47.87811h.99414l-.833,3.79589h1.96777l-.18847.87549H204.64Z"/><path d="M211.77959,51.74383h-2.08692l-.46875.80566h-1.14256l2.83691-4.67138h1.24707l.76954,4.67138h-1.03614Zm-1.625-.86133h1.54785l-.3086-2.1499Z"/><path d="M215.24541,49.2365l-.72852,3.313h-.99414l1.0293-4.67138h1.02246l1.45605,3.20068.708-3.20068h.99511L217.7034,52.5495h-.96Z"/><polyline class="cls-1" points="78.114 163.131 92.005 163.131 159.474 95.663 169.683 95.663"/><polyline class="cls-1" points="169.615 163.131 159.437 163.131 91.969 95.663 77.904 95.663"/><circle class="cls-9" cx="91.63918" cy="166.211" r="7.0904" transform="translate(-79.38515 248.51845) rotate(-86.82992)"/><circle class="cls-3" cx="91.63918" cy="93.3764" r="7.09038"/><circle class="cls-10" cx="59.42195" cy="89.39249" r="19.3911"/><path class="cls-11" d="M48.74541,90.94988a2.79866,2.79866,0,0,0,2.08887.93555c1.07421,0,1.45312-.54785,1.45312-1.02539,0-.69629-.75684-.89551-1.60254-1.11426-1.06445-.27832-2.29785-.58691-2.29785-1.93945,0-1.09473.96484-1.89112,2.34766-1.89112a3.24876,3.24876,0,0,1,2.418.92627l-.57714.73536a2.58786,2.58786,0,0,0-1.91993-.77539c-.73632,0-1.24414.37792-1.24414.93457,0,.59764.7168.78613,1.542.9951,1.085.28908,2.34863.627,2.34863,2.04,0,1.03418-.7168,1.999-2.50684,1.999A3.396,3.396,0,0,1,48.178,91.71551Z"/><path class="cls-11" d="M54.36357,90.94988a2.79866,2.79866,0,0,0,2.08887.93555c1.07519,0,1.45312-.54785,1.45312-1.02539,0-.69629-.75682-.89551-1.60253-1.11426-1.06446-.27832-2.29786-.58691-2.29786-1.93945,0-1.09473.96485-1.89112,2.34766-1.89112a3.24882,3.24882,0,0,1,2.418.92627l-.57715.73536a2.58933,2.58933,0,0,0-1.91991-.77539c-.73633,0-1.24415.37792-1.24415.93457,0,.59764.71679.78613,1.543.9951,1.084.28908,2.34765.627,2.34765,2.04,0,1.03418-.71679,1.999-2.50781,1.999a3.39526,3.39526,0,0,1-2.61621-1.05469Z"/><path class="cls-11" d="M59.82256,86.01482h.99511v5.76026h3.01368v.876H59.82256Z"/><path class="cls-11" d="M67.42217,85.90545c4.38468-.16021,4.386,7.0253-.00023,6.86472C63.03585,92.93061,63.03711,85.74467,67.42217,85.90545Zm0,.88623c-3.05642-.13057-3.05847,5.2173.00012,5.09374C70.47263,92.00433,70.47066,86.66535,67.42217,86.79168Z"/><circle class="cls-10" cx="59.42195" cy="168.88133" r="19.3911"/><path class="cls-11" d="M48.74541,170.43816a2.79858,2.79858,0,0,0,2.08887.93554c1.07421,0,1.45312-.54785,1.45312-1.02539,0-.69629-.75684-.89551-1.60254-1.11426-1.06445-.27832-2.29785-.58691-2.29785-1.93945,0-1.09473.96484-1.89062,2.34766-1.89062a3.25032,3.25032,0,0,1,2.418.92578l-.57714.73535a2.58794,2.58794,0,0,0-1.91993-.77539c-.73632,0-1.24414.37793-1.24414.93457,0,.59766.7168.78613,1.542.99512,1.085.28906,2.34863.627,2.34863,2.04,0,1.03418-.7168,1.999-2.50684,1.999a3.39586,3.39586,0,0,1-2.61718-1.05469Z"/><path class="cls-11" d="M54.36357,170.43816a2.79858,2.79858,0,0,0,2.08887.93554c1.07519,0,1.45312-.54785,1.45312-1.02539,0-.69629-.75682-.89551-1.60253-1.11426-1.06446-.27832-2.29786-.58691-2.29786-1.93945,0-1.09473.96485-1.89062,2.34766-1.89062a3.2504,3.2504,0,0,1,2.418.92578l-.57715.73535a2.58941,2.58941,0,0,0-1.91991-.77539c-.73633,0-1.24415.37793-1.24415.93457,0,.59766.71679.78613,1.543.99512,1.084.28906,2.34765.627,2.34765,2.04,0,1.03418-.71679,1.999-2.50781,1.999a3.39519,3.39519,0,0,1-2.61621-1.05469Z"/><path class="cls-11" d="M59.82256,165.50359h.99511v5.75976h3.01368v.876H59.82256Z"/><path class="cls-11" d="M67.42217,165.39423c4.38487-.16043,4.38586,7.02481-.00023,6.86424C63.036,172.41888,63.03691,165.23322,67.42217,165.39423Zm0,.88574c-3.05642-.13057-3.05847,5.21731.00012,5.09373,3.05034.11891,3.04837-5.22007-.00012-5.0937Z"/><path class="cls-12" d="M198.78883,95.99368h-5.69947a3.35007,3.35007,0,0,1-2.84975-1.90487L186.44,85.51692a3.35017,3.35017,0,0,0-2.84974-1.90487H175.041"/><path class="cls-12" d="M187.38988,92.184,186.44,94.08881a3.35013,3.35013,0,0,1-2.84974,1.90487H175.041"/><path class="cls-12" d="M198.78883,83.61205h-5.69947a3.3501,3.3501,0,0,0-2.84975,1.90487l-.94991,1.90486"/><polyline class="cls-12" points="198.789 80.755 201.639 83.612 198.789 86.469"/><polyline class="cls-12" points="199 92.854 201.639 95.5 199 98.145"/><circle class="cls-12" cx="188.33978" cy="89.45011" r="19.5"/><path class="cls-12" d="M198.78883,175.39337h-5.69947a3.35014,3.35014,0,0,1-2.84975-1.90486l-3.79965-8.5719a3.35021,3.35021,0,0,0-2.84975-1.90488H175.041"/><path class="cls-12" d="M187.38988,171.58363l-.94991,1.90488a3.35016,3.35016,0,0,1-2.84974,1.90486H175.041"/><path class="cls-12" d="M198.78883,163.01173h-5.69947a3.3501,3.3501,0,0,0-2.84975,1.90488l-.94991,1.90488"/><polyline class="cls-12" points="198.789 160.154 201.639 163.012 198.789 165.869"/><polyline class="cls-12" points="199 172.254 201.639 174.9 199 177.545"/><circle class="cls-12" cx="188.33978" cy="168.84979" r="19.5"/><line class="cls-13" x1="96.83843" y1="172.05003" x2="102.28784" y2="177.26756"/><path class="cls-12" d="M314.0018,166.69565q-.5826.02913-1.162.05017l-.00174-.00435-2.77743-2.14828a2.34617,2.34617,0,0,0-2.94962-.04479l-2.99133,2.19742q-.57875-.02142-1.162-.05017c-2.19528-.1099-3.90753-.73667-3.90753,2.29187s.407,7.9397.407,7.9397-.24423,3.68335,3.989,6.79376c3.64114,2.67538,5.01956,3.64375,5.01956,3.64375h0s1.40649-.96837,5.04764-3.64375c4.23315-3.11041,3.98895-6.79376,3.98895-6.79376s.407-4.91115.407-7.9397-1.71228-2.40177-3.90753-2.29187"/><path class="cls-14" d="M310.62912,169.422a5.84689,5.84689,0,1,0,1.56155.94049l.001-.00022-4.58288,6.97753-2.46677-3.29488"/><path class="cls-15" d="M319.865,168.111h-2.021a5.44959,5.44959,0,0,1,.06537.87659c0,2.31641-.23767,5.72681-.34961,7.20605.889-.12951,1.80408-.24511,2.76117-.33252a61.33684,61.33684,0,0,1-.45764-7.605C319.86328,168.20729,319.86493,168.15981,319.865,168.111Z"/><path class="cls-15" d="M320.32092,175.8611c-.95709.0874-1.87213.203-2.76117.33252-.03442.45483-.05743.73364-.05743.73364a7.45858,7.45858,0,0,1-1.69757,4.5686,14.53825,14.53825,0,0,0,5.73273,5.62769c.1549.03516.30889.07275.46521.10413a19.67844,19.67844,0,0,0,2.49682.33191C322.60477,186.10329,321.0542,181.68654,320.32092,175.8611Z"/><path class="cls-15" d="M331.36566,160.36061a60.79746,60.79746,0,0,1,.4975,7.75037h7.50018a27.91748,27.91748,0,0,0-1.41272-8.799A45.58357,45.58357,0,0,1,331.36566,160.36061Z"/><path class="cls-15" d="M331.40582,175.86086q-.86517-.07875-1.76111-.134c-1.22375-.074-2.48632-.115-3.78064-.115-1.92773,0-3.78607.08851-5.54315.24926.73328,5.82544,2.28388,10.24219,4.17859,11.69849.45123.03174.90515.05383,1.36456.05383.45417,0,.90265-.02209,1.34821-.05481l.01727-.01184C329.1228,186.08864,330.67212,181.67763,331.40582,175.86086Z"/><path class="cls-15" d="M338.0097,176.92018a45.31365,45.31365,0,0,0-6.60388-1.05932c-.7337,5.81677-2.283,10.22778-4.17627,11.68591l-.01727.01184a20.04741,20.04741,0,0,0,2.96094-.44544C333.61588,185.39845,336.43756,181.69374,338.0097,176.92018Z"/><path class="cls-15" d="M331.86478,168.25612a61.19205,61.19205,0,0,1-.459,7.60474,45.31365,45.31365,0,0,1,6.60388,1.05932,27.94968,27.94968,0,0,0,1.35608-8.71545c0-.03162-.00232-.06226-.00244-.09375H331.8631C331.86328,168.15968,331.86478,168.20729,331.86478,168.25612Z"/><path class="cls-15" d="M312.83984,166.74586q.57871-.0216,1.162-.05029c1.95038-.09753,3.5163-.5968,3.84216,1.41541h2.021a60.41474,60.41474,0,0,1,.49976-7.744,45.5054,45.5054,0,0,1-6.5835-1.04809,27.419,27.419,0,0,0-1.34589,7.11108l.40265.31153Z"/><path class="cls-15" d="M331.86316,168.111a60.7973,60.7973,0,0,0-.4975-7.75036c-.35113.03173-.70477.06152-1.06372.08741-1.42779.1023-2.90875.162-4.43787.162-1.32238,0-2.61291-.04151-3.86138-.11866q-.83232-.05145-1.63788-.12439a60.41474,60.41474,0,0,0-.49976,7.744Z"/><path class="cls-15" d="M331.86316,168.111H319.865c-.00012.04883-.00177.09632-.00177.14514a61.33506,61.33506,0,0,0,.45764,7.605c1.75708-.16077,3.61542-.24927,5.54315-.24927,1.29432,0,2.55689.041,3.78064.115q.8964.05423,1.76111.134a61.19194,61.19194,0,0,0,.459-7.60474C331.86478,168.20729,331.86328,168.15968,331.86316,168.111Z"/><path class="cls-15" d="M330.83911,157.1675l.00458-.00586-.00458.00586c.20477,1.001.37909,2.07324.52655,3.19311a45.58524,45.58524,0,0,0,6.585-1.04858,23.66467,23.66467,0,0,0-.89282-2.27735c-1.78821-3.91308-4.49231-6.82727-7.65478-8.0946a19.70241,19.70241,0,0,0-2.70289-.31043,2.68869,2.68869,0,0,1,.32721.18C328.6088,149.83681,329.968,152.90981,330.83911,157.1675Z"/><path class="cls-15" d="M320.97723,156.7776c-.24047,1.11547-.44452,2.32056-.61242,3.58936q.80511.07269,1.63788.12439c1.24847.07715,2.539.11865,3.86138.11865,1.52912,0,3.01008-.05969,4.43787-.162.35895-.02588.71259-.05567,1.06372-.08742-.14746-1.11987-.32178-2.19214-.52655-3.19311-.87109-4.2577-2.23028-7.33069-3.81177-8.35779a2.68869,2.68869,0,0,0-.32721-.18c-.27734-.0122-.5556-.02124-.83606-.02124-.2846,0-.56573.01416-.84735.02625C323.35272,149.4153,321.90985,152.4518,320.97723,156.7776Z"/><path class="cls-15" d="M314.86871,156.642a23.62928,23.62928,0,0,0-1.0874,2.67688,45.50562,45.50562,0,0,0,6.5835,1.04809c.1679-1.26879.372-2.47387.61242-3.58935.93262-4.32581,2.37549-7.36231,4.03949-8.143a19.47575,19.47575,0,0,0-2.67035.29383C319.28757,150.15163,316.65958,152.923,314.86871,156.642Z"/><path class="cls-15" d="M315.80475,181.49586a10.97386,10.97386,0,0,1-1.945,1.95032,19.41183,19.41183,0,0,0,7.67774,3.67737A14.53825,14.53825,0,0,1,315.80475,181.49586Z"/><path class="cls-15" d="M339.36334,168.111c.00012.0315.00244.06214.00244.09375a27.94949,27.94949,0,0,1-1.35608,8.71546,23.17372,23.17372,0,0,1,4.0232,1.33619l.01489-.00171-.01489.00171q.19121.08716.37231.17626a19.36566,19.36566,0,0,0,2.96131-10.32166Z"/><path class="cls-15" d="M338.0097,176.92018c-1.57214,4.77356-4.39379,8.47829-7.83648,10.193.0426-.00964.08618-.0166.12872-.02648a19.54576,19.54576,0,0,0,12.10327-8.65407q-.18132-.089-.37231-.17626A23.17368,23.17368,0,0,0,338.0097,176.92018Z"/><path class="cls-15" d="M337.0578,157.03468l.0105-.00586-.0105.00586a23.66467,23.66467,0,0,1,.89282,2.27735,22.16783,22.16783,0,0,0,4.45911-1.529q-.18342-.29334-.37683-.57983a19.51146,19.51146,0,0,0-12.38819-8.22132c-.08-.01574-.16143-.027-.24169-.04175C332.56549,150.20741,335.26959,153.1216,337.0578,157.03468Z"/><path class="cls-15" d="M339.36334,168.111h6.00318a19.41023,19.41023,0,0,0-2.95679-10.328,22.16783,22.16783,0,0,1-4.45911,1.529A27.91747,27.91747,0,0,1,339.36334,168.111Z"/><path class="cls-15" d="M310.06067,164.59315l2.37475,1.8368a27.41913,27.41913,0,0,1,1.34589-7.11109,22.18026,22.18026,0,0,1-4.44678-1.52514,19.41317,19.41317,0,0,0-2.69506,7.10107l.47161-.34643A2.34631,2.34631,0,0,1,310.06067,164.59315Z"/><path class="cls-15" d="M314.86871,156.642c1.7909-3.719,4.41889-6.49036,7.47766-7.71352a19.50934,19.50934,0,0,0-12.36444,7.89112c-.226.31738-.44006.64331-.6474.97412a22.18026,22.18026,0,0,0,4.44678,1.52514A23.62973,23.62973,0,0,1,314.86871,156.642Z"/><path class="cls-16" d="M300.76575,197.44373a3.66386,3.66386,0,0,1,3.52749-3.79531q.10684-.00388.21372-.00157a3.3,3.3,0,0,1,2.8164,1.45316l-.7705.42773a2.49272,2.49272,0,0,0-2.0459-1.06641,2.98767,2.98767,0,0,0,0,5.96289,2.46294,2.46294,0,0,0,2.0459-1.0664l.78027.42773a3.336,3.336,0,0,1-2.82617,1.45313,3.66337,3.66337,0,0,1-3.74274-3.58222Q300.76188,197.55011,300.76575,197.44373Z"/><path class="cls-16" d="M308.213,194.34019a.55569.55569,0,1,1,0,.00841Zm.14356,1.45313h.82422v5.3125h-.82422Z"/><path class="cls-16" d="M310.68762,199.809a2.41118,2.41118,0,0,0,1.749.75781c.81446,0,1.25391-.36328,1.25391-.87891,0-.584-.64844-.77148-1.36328-.94726-.90234-.209-1.92578-.45118-1.92578-1.55078,0-.82422.71484-1.5293,1.98047-1.5293a2.69165,2.69165,0,0,1,1.96875.76953l-.38477.57227a2.06944,2.06944,0,0,0-1.584-.66993c-.72657,0-1.17774.33008-1.17774.80274,0,.51758.60547.68164,1.29883.84765.92383.209,1.99121.47266,1.99121,1.64844,0,.89256-.71484,1.60742-2.09082,1.60742a2.82389,2.82389,0,0,1-2.14453-.83593Z"/><path class="cls-16" d="M318.06946,195.66051a2.278,2.278,0,0,1,1.94726.92383l-.55078.50585a1.57426,1.57426,0,0,0-1.35351-.69335,2.06432,2.06432,0,0,0,0,4.10351,1.6007,1.6007,0,0,0,1.35351-.69141l.55078.50586a2.278,2.278,0,0,1-1.94726.92383,2.79259,2.79259,0,0,1,0-5.57812Z"/><path class="cls-16" d="M320.753,198.44373a2.63383,2.63383,0,1,1,2.62891,2.79492,2.60708,2.60708,0,0,1-2.63553-2.57836Q320.74517,198.55192,320.753,198.44373Zm4.38867,0a1.78621,1.78621,0,1,0-1.75976,2.05664,1.84746,1.84746,0,0,0,1.77035-1.92145q-.00279-.06777-.01053-.13519Z"/><path class="cls-16" d="M333.99719,195.18787l-1.61719,5.918h-.99023L329.299,193.768h1.0127l1.62793,6.11719,1.68261-6.11719h.75977l1.68359,6.11719,1.61719-6.11719h1.01172l-2.08985,7.3379h-.99023Z"/><path class="cls-16" d="M339.7052,199.37926a3.10261,3.10261,0,0,0,2.31055,1.04492c1.30957,0,1.72754-.70313,1.72754-1.26563,0-.8789-.89161-1.12109-1.85938-1.38476-1.17773-.3086-2.48633-.63867-2.48633-2.08006,0-1.21094,1.07813-2.03516,2.51953-2.03516a3.44894,3.44894,0,0,1,2.60743,1.02344l-.55079.66992a2.80518,2.80518,0,0,0-2.123-.87891c-.88086,0-1.50781.47266-1.50781,1.166,0,.73633.84765.957,1.7832,1.209,1.19922.32031,2.5625.69336,2.5625,2.23438,0,1.0664-.72559,2.15625-2.70606,2.15625a3.634,3.634,0,0,1-2.8164-1.166Z"/><path class="cls-16" d="M350.45325,199.47887H346.7345l-.64942,1.62695h-1.01172l2.94825-7.33789h1.13379l2.959,7.33789h-1.01172Zm-3.4541-.81446h3.17871l-1.584-4.082Z"/><path class="cls-12" d="M314.0018,83.99981q-.5826.02916-1.162.05017l-.00174-.00434-2.77743-2.14829a2.3462,2.3462,0,0,0-2.94962-.04478L304.11969,84.05q-.57875-.02141-1.162-.05017c-2.19528-.10988-3.90753-.73667-3.90753,2.29188s.407,7.93969.407,7.93969-.24423,3.68335,3.989,6.79375c3.64114,2.67539,5.01956,3.64376,5.01956,3.64376h0s1.40649-.96837,5.04764-3.64376c4.23315-3.1104,3.98895-6.79375,3.98895-6.79375s.407-4.91115.407-7.93969S316.197,83.89,314.00177,83.99983"/><path class="cls-14" d="M310.62912,86.72618a5.84689,5.84689,0,1,0,1.56155.94049l.001-.00023L307.6088,94.644l-2.4668-3.29489"/><path class="cls-15" d="M319.865,85.41515h-2.021a5.4493,5.4493,0,0,1,.06537.87658c0,2.31641-.23767,5.72681-.34961,7.20607.889-.12952,1.80408-.24512,2.76117-.33252a61.33728,61.33728,0,0,1-.45764-7.605C319.86328,85.51146,319.86493,85.464,319.865,85.41515Z"/><path class="cls-15" d="M320.32092,93.16527c-.95709.0874-1.87213.203-2.76117.33252-.03442.45482-.05743.73364-.05743.73364A7.4587,7.4587,0,0,1,315.80475,98.8a14.53841,14.53841,0,0,0,5.73273,5.6277c.1549.03515.30889.07274.46521.10413a19.68023,19.68023,0,0,0,2.49682.3319C322.60477,103.40746,321.0542,98.99071,320.32092,93.16527Z"/><path class="cls-15" d="M331.36566,77.66478a60.79746,60.79746,0,0,1,.4975,7.75037h7.50018a27.91708,27.91708,0,0,0-1.41272-8.79895A45.589,45.589,0,0,1,331.36566,77.66478Z"/><path class="cls-15" d="M331.40582,93.165q-.86517-.07872-1.76111-.134c-1.22375-.074-2.48632-.115-3.78064-.115-1.92773,0-3.78607.0885-5.54315.24927.73328,5.82544,2.28388,10.24219,4.17859,11.69848.45123.03173.90515.05384,1.36456.05384.45417,0,.90265-.02211,1.34821-.05481l.01727-.01184C329.1228,103.39281,330.67212,98.9818,331.40582,93.165Z"/><path class="cls-15" d="M338.0097,94.22435a45.315,45.315,0,0,0-6.60388-1.05933c-.7337,5.81678-2.283,10.22779-4.17627,11.68592l-.01727.01185a20.05008,20.05008,0,0,0,2.96094-.44545C333.61588,102.70262,336.43756,98.99791,338.0097,94.22435Z"/><path class="cls-15" d="M331.86478,85.56029a61.19189,61.19189,0,0,1-.459,7.60473,45.315,45.315,0,0,1,6.60388,1.05933,27.94977,27.94977,0,0,0,1.35608-8.71545c0-.03162-.00232-.06227-.00244-.09375H331.8631C331.86328,85.46385,331.86478,85.51146,331.86478,85.56029Z"/><path class="cls-15" d="M312.83984,84.05q.57871-.02158,1.162-.05029c1.95038-.09753,3.5163-.5968,3.84216,1.41541h2.021a60.41423,60.41423,0,0,1,.49976-7.744,45.5068,45.5068,0,0,1-6.5835-1.0481,27.41913,27.41913,0,0,0-1.34589,7.11109l.40265.31152Z"/><path class="cls-15" d="M331.86316,85.41515a60.79746,60.79746,0,0,0-.4975-7.75037c-.35113.03174-.70477.06152-1.06372.0874-1.42779.1023-2.90875.162-4.43787.162-1.32238,0-2.61291-.04149-3.86138-.11865q-.83232-.05145-1.63788-.12439a60.41451,60.41451,0,0,0-.49976,7.744Z"/><path class="cls-15" d="M331.86316,85.41515H319.865c-.00012.04882-.00177.09632-.00177.14515a61.33518,61.33518,0,0,0,.45764,7.605c1.75708-.16077,3.61542-.24927,5.54315-.24927,1.29432,0,2.55689.041,3.78064.115q.8964.0542,1.76111.134a61.19178,61.19178,0,0,0,.459-7.60473C331.86478,85.51146,331.86328,85.46385,331.86316,85.41515Z"/><path class="cls-15" d="M330.83911,74.47167l.00458-.00586-.00458.00586c.20477,1.001.37909,2.07324.52655,3.19311a45.58866,45.58866,0,0,0,6.585-1.04858,23.66672,23.66672,0,0,0-.89282-2.27735c-1.78821-3.91308-4.49231-6.82727-7.65478-8.09459a19.70243,19.70243,0,0,0-2.70289-.31044,2.69182,2.69182,0,0,1,.32721.18006C328.6088,67.141,329.968,70.214,330.83911,74.47167Z"/><path class="cls-15" d="M320.97723,74.08177c-.24047,1.11548-.44452,2.32056-.61242,3.58936q.80511.0727,1.63788.12439c1.24847.07715,2.539.11866,3.86138.11866,1.52912,0,3.01008-.0597,4.43787-.162.35895-.02587.71259-.05565,1.06372-.0874-.14746-1.11987-.32178-2.19214-.52655-3.19311-.87109-4.25769-2.23028-7.33068-3.81177-8.35778a2.68911,2.68911,0,0,0-.32721-.18006c-.27734-.0122-.5556-.02125-.83606-.02125-.2846,0-.56573.01416-.84735.02626C323.35272,66.71947,321.90985,69.756,320.97723,74.08177Z"/><path class="cls-15" d="M314.86871,73.94615a23.6356,23.6356,0,0,0-1.0874,2.67688,45.50427,45.50427,0,0,0,6.5835,1.0481c.1679-1.26879.372-2.47387.61242-3.58936.93262-4.3258,2.37549-7.3623,4.03949-8.14293a19.4773,19.4773,0,0,0-2.67035.29382C319.28757,67.4558,316.65958,70.22716,314.86871,73.94615Z"/><path class="cls-15" d="M315.80475,98.8a10.97253,10.97253,0,0,1-1.945,1.95032,19.412,19.412,0,0,0,7.67774,3.67737A14.53832,14.53832,0,0,1,315.80475,98.8Z"/><path class="cls-15" d="M339.36334,85.41515c.00012.03149.00244.06214.00244.09375a27.95031,27.95031,0,0,1-1.35608,8.71545,23.172,23.172,0,0,1,4.0232,1.33618l.01489-.00171-.01489.00171q.19121.08715.37231.17627a19.36563,19.36563,0,0,0,2.96131-10.32165Z"/><path class="cls-15" d="M338.0097,94.22435c-1.57214,4.77356-4.39379,8.47827-7.83648,10.193.0426-.00964.08618-.0166.12872-.02649a19.54578,19.54578,0,0,0,12.10327-8.654q-.18132-.089-.37231-.17627A23.173,23.173,0,0,0,338.0097,94.22435Z"/><path class="cls-15" d="M337.0578,74.33885l.0105-.00586-.0105.00586a23.66672,23.66672,0,0,1,.89282,2.27735,22.168,22.168,0,0,0,4.45911-1.52906q-.18342-.29333-.37683-.57982A19.51142,19.51142,0,0,0,329.64471,66.286c-.08-.01574-.16143-.027-.24169-.04174C332.56549,67.51158,335.26959,70.42577,337.0578,74.33885Z"/><path class="cls-15" d="M339.36334,85.41515h6.00318a19.4105,19.4105,0,0,0-2.95679-10.328,22.168,22.168,0,0,1-4.45911,1.52906A27.918,27.918,0,0,1,339.36334,85.41515Z"/><path class="cls-15" d="M310.06067,81.89732l2.37475,1.8368a27.41935,27.41935,0,0,1,1.34589-7.11112,22.17963,22.17963,0,0,1-4.44678-1.52514,19.41311,19.41311,0,0,0-2.69506,7.10107l.47161-.34644A2.34633,2.34633,0,0,1,310.06067,81.89732Z"/><path class="cls-15" d="M314.86871,73.94615c1.7909-3.719,4.41889-6.49035,7.47766-7.7135a19.50941,19.50941,0,0,0-12.36444,7.89111c-.226.31739-.44006.64332-.6474.97413a22.18017,22.18017,0,0,0,4.44678,1.52511A23.63439,23.63439,0,0,1,314.86871,73.94615Z"/><path class="cls-16" d="M300.76575,56.11168a3.663,3.663,0,0,1,3.52676-3.79434q.10721-.00392.21445-.00155a3.30164,3.30164,0,0,1,2.8164,1.45214l-.7705.42871a2.49017,2.49017,0,0,0-2.0459-1.0664,2.98767,2.98767,0,0,0,0,5.96289,2.46371,2.46371,0,0,0,2.0459-1.06738l.78027.42871a3.33523,3.33523,0,0,1-2.82617,1.45215,3.66278,3.66278,0,0,1-3.74274-3.581Q300.76184,56.21864,300.76575,56.11168Z"/><path class="cls-16" d="M308.213,53.00914a.55568.55568,0,1,1,0,.00841Zm.14356,1.45215h.82422v5.31348h-.82422Z"/><path class="cls-16" d="M310.68762,58.47692a2.41179,2.41179,0,0,0,1.749.75879c.81446,0,1.25391-.36328,1.25391-.87989,0-.583-.64844-.7705-1.36328-.94628-.90234-.209-1.92578-.45118-1.92578-1.55176,0-.82422.71484-1.52832,1.98047-1.52832a2.68781,2.68781,0,0,1,1.96875.76953l-.38477.57226a2.06993,2.06993,0,0,0-1.584-.67089c-.72657,0-1.17774.33007-1.17774.80273,0,.51758.60547.68262,1.29883.84766.92383.209,1.99121.47265,1.99121,1.64941,0,.8916-.71484,1.60645-2.09082,1.60645a2.82393,2.82393,0,0,1-2.14453-.83594Z"/><path class="cls-16" d="M318.06946,54.32946a2.2756,2.2756,0,0,1,1.94726.92383l-.55078.50585a1.57429,1.57429,0,0,0-1.35351-.69335,2.06432,2.06432,0,0,0,0,4.10351,1.60168,1.60168,0,0,0,1.35351-.69238l.55078.50586a2.27559,2.27559,0,0,1-1.94726.92382,2.79207,2.79207,0,0,1,0-5.57714Z"/><path class="cls-16" d="M320.753,57.11266a2.63378,2.63378,0,1,1,2.62891,2.794,2.60655,2.60655,0,0,1-2.6355-2.57729Q320.74515,57.22092,320.753,57.11266Zm4.38867,0A1.78621,1.78621,0,1,0,323.382,59.1693a1.84742,1.84742,0,0,0,1.77023-1.92152q-.00274-.06773-.0105-.13512Z"/><path class="cls-16" d="M333.99719,53.85582,332.38,59.77477h-.99023L329.299,52.43688h1.0127l1.62793,6.11719,1.68261-6.11719h.75977l1.68359,6.11719,1.61719-6.11719h1.01172l-2.08985,7.33789h-.99023Z"/><path class="cls-16" d="M339.7052,58.04723a3.10317,3.10317,0,0,0,2.31055,1.0459c1.30957,0,1.72754-.7041,1.72754-1.26563,0-.87988-.89161-1.12207-1.85938-1.38574-1.17773-.30859-2.48633-.63867-2.48633-2.08008,0-1.21,1.07813-2.03515,2.51953-2.03515A3.45252,3.45252,0,0,1,344.52454,53.35l-.55079.67089a2.806,2.806,0,0,0-2.123-.87988c-.88086,0-1.50781.47266-1.50781,1.166,0,.7373.84765.957,1.7832,1.21,1.19922.31933,2.5625.69336,2.5625,2.2334,0,1.06738-.72559,2.15625-2.70606,2.15625a3.63067,3.63067,0,0,1-2.8164-1.166Z"/><path class="cls-16" d="M350.45325,58.14684H346.7345l-.64942,1.62793h-1.01172l2.94825-7.33789h1.13379l2.959,7.33789h-1.01172Zm-3.4541-.81445h3.17871l-1.584-4.082Z"/></svg>