<svg xmlns="http://www.w3.org/2000/svg" viewBox="0 0 912.48 510.5"><defs><style>.cls-1,.cls-31,.cls-34,.cls-37,.cls-39,.cls-40,.cls-42{fill:none;}.cls-1,.cls-34{stroke:#2aae4a;}.cls-1,.cls-31,.cls-34,.cls-35,.cls-37,.cls-39,.cls-41,.cls-42,.cls-43{stroke-linecap:round;}.cls-1,.cls-31,.cls-34,.cls-35,.cls-37,.cls-40,.cls-43,.cls-44{stroke-miterlimit:10;}.cls-2{font-size:9px;font-family:ProximaNova-Bold, Proxima Nova;font-weight:700;letter-spacing:0.02em;}.cls-2,.cls-36{fill:#343434;}.cls-3{letter-spacing:0.02em;}.cls-4{letter-spacing:0.03em;}.cls-5{letter-spacing:0.05em;}.cls-6{letter-spacing:0.05em;}.cls-7{letter-spacing:0em;}.cls-8{letter-spacing:0.02em;}.cls-9{letter-spacing:0.01em;}.cls-10{letter-spacing:0.02em;}.cls-11{letter-spacing:0.01em;}.cls-12{letter-spacing:0.02em;}.cls-13{letter-spacing:0.01em;}.cls-14{letter-spacing:0em;}.cls-15{letter-spacing:0.03em;}.cls-16{letter-spacing:0.02em;}.cls-17{letter-spacing:0.02em;}.cls-18{letter-spacing:0.02em;}.cls-19{letter-spacing:0.02em;}.cls-20{letter-spacing:0.05em;}.cls-21{letter-spacing:0.02em;}.cls-22{letter-spacing:0.01em;}.cls-23{letter-spacing:0.02em;}.cls-24{letter-spacing:0.02em;}.cls-25{letter-spacing:0.01em;}.cls-26{letter-spacing:0.02em;}.cls-27{letter-spacing:0.02em;}.cls-28{letter-spacing:0.04em;}.cls-29{letter-spacing:0.02em;}.cls-30{letter-spacing:0.02em;}.cls-31{stroke:#999;stroke-dasharray:3 3;}.cls-32{fill:#f1f1f1;}.cls-33,.cls-35,.cls-41,.cls-43{fill:#fff;}.cls-34,.cls-35{stroke-width:0.8px;}.cls-35,.cls-39,.cls-40,.cls-41,.cls-42,.cls-43,.cls-44{stroke:#000;}.cls-37{stroke:#231f20;}.cls-38,.cls-45{fill:#221f1f;}.cls-39,.cls-41,.cls-42{stroke-linejoin:round;}.cls-41{stroke-width:0.75px;}.cls-42{stroke-width:0.96px;}.cls-44{stroke-width:0.5px;}.cls-45{font-size:11px;font-family:ProximaNova-Regular, Proxima Nova;letter-spacing:-0.06em;}.cls-46{letter-spacing:-0.01em;}</style></defs><g id="Layer_2" data-name="Layer 2"><g id="Layer_1-2" data-name="Layer 1"><line class="cls-1" x1="457.35" y1="453.32" x2="457.35" y2="470.12"/><line class="cls-1" x1="618.22" y1="470.48" x2="294.77" y2="470.48"/><text class="cls-2" transform="translate(408.71 482.28)">E<tspan class="cls-3" x="5.46" y="0">a</tspan><tspan class="cls-4" x="10.5" y="0">s</tspan><tspan class="cls-5" x="15.02" y="0">t</tspan><tspan class="cls-6" x="18.47" y="0">/</tspan><tspan class="cls-7" x="21.88" y="0">W</tspan><tspan class="cls-8" x="30.12" y="0">e</tspan><tspan class="cls-4" x="35.25" y="0">s</tspan><tspan class="cls-9" x="39.77" y="0" xml:space="preserve">t  </tspan><tspan class="cls-10" x="47.69" y="0">B</tspan><tspan class="cls-11" x="53.88" y="0">l</tspan><tspan class="cls-12" x="56.29" y="0">u</tspan><tspan class="cls-13" x="61.67" y="0">e</tspan><tspan class="cls-14" x="66.76" y="0">/</tspan><tspan class="cls-15" x="69.7" y="0">G</tspan><tspan class="cls-16" x="76.43" y="0">r</tspan><tspan class="cls-17" x="79.81" y="0">e</tspan><tspan class="cls-18" x="84.98" y="0">e</tspan><tspan class="cls-9" x="90.13" y="0">n</tspan><tspan class="cls-19"><tspan x="4.67" y="11">S</tspan><tspan class="cls-18" x="10.27" y="11">e</tspan><tspan class="cls-20" x="15.42" y="11">r</tspan><tspan class="cls-21" x="19.08" y="11">v</tspan><tspan class="cls-11" x="23.91" y="11">i</tspan><tspan class="cls-22" x="26.33" y="11">c</tspan><tspan class="cls-9" x="30.87" y="11">e </tspan><tspan class="cls-23" x="38.33" y="11">A</tspan><tspan class="cls-24" x="44.71" y="11">r</tspan><tspan class="cls-25" x="48.09" y="11">c</tspan><tspan class="cls-26" x="52.71" y="11">h</tspan><tspan class="cls-27" x="58.07" y="11">it</tspan><tspan class="cls-17" x="63.71" y="11">e</tspan><tspan class="cls-28" x="68.88" y="11">c</tspan><tspan class="cls-29" x="73.71" y="11">t</tspan><tspan class="cls-30" x="76.95" y="11">u</tspan><tspan class="cls-16" x="82.31" y="11">r</tspan><tspan class="cls-9" x="85.69" y="11">e</tspan></tspan></text><rect class="cls-31" x="605.76" y="195.69" width="306.22" height="314.32"/><rect class="cls-32" x="617.74" y="296.96" width="282.25" height="186.89"/><rect x="722.3" y="474.85" width="72.04" height="18"/><path class="cls-33" d="M736.71,485.48v-3.36a2.39,2.39,0,0,1,4.72,0v3.36a2.39,2.39,0,0,1-4.72,0Zm3.17,0v-3.4c0-.36-.24-.6-.8-.6s-.82.24-.82.6v3.4c0,.36.24.6.81.6S739.88,485.86,739.88,485.5Z"/><path class="cls-33" d="M746.84,482.19v.91a2,2,0,0,1-2.11,1.95h-.82v2.3h-1.55v-7.1h2.36A2,2,0,0,1,746.84,482.19Zm-1.55-.07a.44.44,0,0,0-.46-.47h-.92v2h.91a.44.44,0,0,0,.47-.48Z"/><path class="cls-33" d="M749.23,481.65v1.55H751v1.4h-1.72V486h2.12v1.4h-3.67v-7.1h3.67v1.4Z"/><path class="cls-33" d="M756.74,480.25v7.1h-1.36l-1.85-4v4h-1.35v-7.1h1.35l1.85,4.06v-4.06Z"/><path class="cls-33" d="M757.62,485.25V485h1.55v.44a.74.74,0,0,0,.83.73.68.68,0,0,0,.72-.69c0-1.27-3-1-3-3.27A2,2,0,0,1,760,480.1a1.94,1.94,0,0,1,2.21,2v.44h-1.55V482c0-.31-.3-.49-.67-.49a.59.59,0,0,0-.65.6c0,1,3,.79,3,3.21a2.09,2.09,0,0,1-2.3,2.19A2.15,2.15,0,0,1,757.62,485.25Z"/><path class="cls-33" d="M767.87,480.25v7.1h-1.55V484.6h-1.61v2.75h-1.55v-7.1h1.55v2.95h1.61v-2.95Z"/><path class="cls-33" d="M768.86,480.25h1.55v7.1h-1.55Z"/><path class="cls-33" d="M772.94,481.65v1.8h1.82v1.4h-1.82v2.5h-1.55v-7.1h3.67v1.4Z"/><path class="cls-33" d="M780.2,481.65h-1.47v5.7h-1.55v-5.7H775.7v-1.4h4.5Z"/><rect x="729.06" y="186.14" width="58.52" height="18"/><path class="cls-33" d="M748.74,197.39h-1.45l-.29,1.25h-1.51l1.53-7.09h2l1.54,7.09H749Zm-.72-4-.45,2.56h.9Z"/><path class="cls-33" d="M755.64,197.24v1.4h-4.41v-1.48l2.63-4.22h-2.45v-1.39h4.17V193L753,197.24Z"/><path class="cls-33" d="M756.39,196.77v-5.22h1.55v5.24c0,.36.23.6.72.6s.73-.24.73-.6v-5.24h1.54v5.22a2.29,2.29,0,0,1-4.54,0Z"/><path class="cls-33" d="M764.17,196.08h-.74v2.56h-1.55v-7.09h2.36a1.94,1.94,0,0,1,2.12,1.93v.66a1.86,1.86,0,0,1-.71,1.5l.92,3H765Zm-.74-1.4h.91a.44.44,0,0,0,.47-.47v-.8a.43.43,0,0,0-.46-.47h-.92Z"/><path class="cls-33" d="M769,192.94v1.55h1.72v1.4H769v1.35h2.12v1.4h-3.67v-7.09h3.67v1.39Z"/><rect class="cls-31" x="318.7" y="195.69" width="273.61" height="256.29"/><rect x="411.48" y="185.54" width="88.05" height="19.19"/><path class="cls-33" d="M426.17,191h1.55V198h-1.55Z"/><path class="cls-33" d="M433.25,191V198h-1.36l-1.84-4v4H428.7V191h1.35l1.84,4.06V191Z"/><path class="cls-33" d="M438.5,192.35H437V198h-1.55v-5.69H434V191h4.5Z"/><path class="cls-33" d="M440.81,192.35v1.55h1.72v1.4h-1.72v1.34h2.12V198h-3.67V191h3.67v1.4Z"/><path class="cls-33" d="M446.05,195.49h-.74V198h-1.55V191h2.36a2,2,0,0,1,2.12,1.94v.66a1.86,1.86,0,0,1-.71,1.5l.92,3h-1.62Zm-.74-1.4h.91a.44.44,0,0,0,.47-.47v-.8a.43.43,0,0,0-.46-.47h-.92Z"/><path class="cls-33" d="M453.84,191V198h-1.36l-1.84-4v4h-1.35V191h1.35l1.84,4.06V191Z"/><path class="cls-33" d="M457.89,196.79h-1.45l-.29,1.25h-1.51l1.53-7.09h2l1.54,7.09h-1.54Zm-.72-3.95-.45,2.56h.9Z"/><path class="cls-33" d="M464.2,196.64V198h-3.69V191h1.55v5.69Z"/><path class="cls-33" d="M469.93,196.79h-1.45l-.29,1.25h-1.51l1.53-7.09h2l1.54,7.09h-1.54Zm-.72-3.95-.45,2.56h.9Z"/><path class="cls-33" d="M477,192.89v.91a1.94,1.94,0,0,1-2.11,1.94h-.82V198h-1.54V191h2.35A2,2,0,0,1,477,192.89Zm-1.55-.07a.44.44,0,0,0-.46-.47h-.92v2H475a.44.44,0,0,0,.47-.48Z"/><path class="cls-33" d="M477.87,191h1.55V198h-1.55Z"/><path class="cls-33" d="M480.29,195.94v-.28h1.54v.44a.74.74,0,0,0,.83.73.68.68,0,0,0,.72-.69c0-1.26-3-1-3-3.26a2,2,0,0,1,2.21-2.08,1.94,1.94,0,0,1,2.21,2v.44h-1.55v-.54c0-.31-.3-.49-.67-.49a.59.59,0,0,0-.65.6c0,1,3,.79,3,3.2a2.1,2.1,0,0,1-2.31,2.19A2.15,2.15,0,0,1,480.29,195.94Z"/><line class="cls-34" x1="760.71" y1="314.39" x2="760.71" y2="322.56"/><polyline class="cls-1" points="825.73 330.92 825.73 322.93 694.96 322.93 694.96 331.28"/><rect class="cls-31" x="0.5" y="195.69" width="306.22" height="314.32"/><rect class="cls-32" x="12.49" y="296.96" width="282.25" height="186.89"/><rect x="117.05" y="474.85" width="72.04" height="18"/><path class="cls-33" d="M131.46,485.48v-3.36a2.38,2.38,0,0,1,4.71,0v3.36a2.38,2.38,0,0,1-4.71,0Zm3.17,0v-3.4c0-.36-.24-.6-.8-.6s-.82.24-.82.6v3.4c0,.36.24.6.81.6S134.63,485.86,134.63,485.5Z"/><path class="cls-33" d="M141.59,482.19v.91a2,2,0,0,1-2.11,1.95h-.82v2.3h-1.55v-7.1h2.36A2,2,0,0,1,141.59,482.19Zm-1.55-.07a.44.44,0,0,0-.46-.47h-.92v2h.91a.44.44,0,0,0,.47-.48Z"/><path class="cls-33" d="M144,481.65v1.55h1.72v1.4H144V486h2.12v1.4h-3.67v-7.1h3.67v1.4Z"/><path class="cls-33" d="M151.48,480.25v7.1h-1.36l-1.85-4v4h-1.34v-7.1h1.34l1.85,4.06v-4.06Z"/><path class="cls-33" d="M152.36,485.25V485h1.55v.44a.74.74,0,0,0,.83.73.68.68,0,0,0,.72-.69c0-1.27-3-1-3-3.27a2,2,0,0,1,2.22-2.08,1.94,1.94,0,0,1,2.21,2v.44h-1.55V482c0-.31-.3-.49-.67-.49a.59.59,0,0,0-.65.6c0,1,3,.79,3,3.21a2.1,2.1,0,0,1-2.31,2.19A2.15,2.15,0,0,1,152.36,485.25Z"/><path class="cls-33" d="M162.61,480.25v7.1h-1.55V484.6h-1.61v2.75h-1.54v-7.1h1.54v2.95h1.61v-2.95Z"/><path class="cls-33" d="M163.6,480.25h1.55v7.1H163.6Z"/><path class="cls-33" d="M167.68,481.65v1.8h1.82v1.4h-1.82v2.5h-1.55v-7.1h3.67v1.4Z"/><path class="cls-33" d="M174.94,481.65h-1.47v5.7h-1.55v-5.7h-1.48v-1.4h4.5Z"/><rect x="123.8" y="186.14" width="58.52" height="18"/><path class="cls-33" d="M147.16,197.39h-1.45l-.29,1.25h-1.51l1.53-7.09h2l1.54,7.09h-1.54Zm-.72-4L146,196h.9Z"/><path class="cls-33" d="M156.85,191.55l-1.52,7.09h-1.61l-.79-3.86-.79,3.86h-1.61L149,191.55h1.61l.79,4.83.92-4.83h1.19l1,4.82.77-4.82Z"/><path class="cls-33" d="M157.4,196.54v-.28h1.54v.44a.74.74,0,0,0,.83.73.68.68,0,0,0,.72-.69c0-1.27-3-1-3-3.27a2,2,0,0,1,2.21-2.07,1.93,1.93,0,0,1,2.21,2v.44H160.4v-.54c0-.31-.3-.49-.67-.49a.59.59,0,0,0-.65.6c0,1,3,.79,3,3.21a2.1,2.1,0,0,1-2.31,2.19A2.15,2.15,0,0,1,157.4,196.54Z"/><line class="cls-1" x1="155.45" y1="314.39" x2="155.45" y2="322.56"/><polyline class="cls-1" points="220.47 330.92 220.47 322.93 89.7 322.93 89.7 331.28"/><line class="cls-1" x1="457.35" y1="314.39" x2="457.35" y2="322.56"/><polyline class="cls-1" points="522.37 330.92 522.37 322.93 391.6 322.93 391.6 331.28"/><rect class="cls-35" x="333.58" y="338.32" width="116" height="90.31"/><rect x="359.04" y="329.32" width="65.09" height="18"/><path class="cls-33" d="M375.13,339.44v.41a1.93,1.93,0,0,1-2,2h-2.45v-7.1H373a1.86,1.86,0,0,1,2,1.77V337a1.51,1.51,0,0,1-.53,1.12A1.68,1.68,0,0,1,375.13,339.44Zm-2.93-3.37v1.48H373c.23,0,.41-.22.41-.53v-.5a.43.43,0,0,0-.4-.45Zm1.38,3.35c0-.3-.16-.53-.41-.53h-1v1.58h1c.26,0,.42-.25.42-.55Z"/><path class="cls-33" d="M379.67,340.42v1.4H376v-7.1h1.55v5.7Z"/><path class="cls-33" d="M380.39,340v-5.23h1.55V340c0,.36.23.6.72.6s.73-.24.73-.6v-5.25h1.55V340a2.29,2.29,0,0,1-4.55,0Z"/><path class="cls-33" d="M387.44,336.12v1.55h1.72v1.4h-1.72v1.35h2.12v1.4h-3.67v-7.1h3.67v1.4Z"/><path class="cls-33" d="M397,334.72v7.1h-1.36l-1.85-4v4h-1.35v-7.1h1.35l1.85,4.06v-4.06Z"/><path class="cls-33" d="M397.9,340v-3.36a2.38,2.38,0,0,1,4.71,0V340a2.07,2.07,0,0,1-2.34,2A2.09,2.09,0,0,1,397.9,340Zm3.17,0v-3.4c0-.36-.24-.6-.8-.6s-.82.24-.82.6V340c0,.36.24.6.81.6S401.07,340.33,401.07,340Z"/><path class="cls-33" d="M408.11,336.74v3.06a2,2,0,0,1-2.26,2h-2.3v-7.1h2.29A2.05,2.05,0,0,1,408.11,336.74Zm-1.54,0a.57.57,0,0,0-.62-.6h-.85v4.3h.84a.57.57,0,0,0,.63-.6Z"/><path class="cls-33" d="M410.58,336.12v1.55h1.72v1.4h-1.72v1.35h2.12v1.4H409v-7.1h3.67v1.4Z"/><rect class="cls-35" x="461.43" y="338.32" width="116" height="90.31"/><rect x="483.41" y="329.32" width="72.04" height="18"/><path class="cls-33" d="M498.62,337.28v-.71c0-.36-.33-.6-.79-.6s-.8.24-.8.6V340c0,.36.34.6.79.6s.8-.24.8-.6v-.6h-.81V338h2.36v2a2.37,2.37,0,0,1-4.69,0v-3.36a2.37,2.37,0,0,1,4.69,0v.69Z"/><path class="cls-33" d="M503.38,339.26h-.74v2.56h-1.55v-7.1h2.36a2,2,0,0,1,2.12,1.94v.66a1.86,1.86,0,0,1-.71,1.5l.92,3h-1.62Zm-.74-1.4h.91a.44.44,0,0,0,.47-.47v-.8a.43.43,0,0,0-.46-.47h-.92Z"/><path class="cls-33" d="M508.17,336.12v1.55h1.72v1.4h-1.72v1.35h2.12v1.4h-3.67v-7.1h3.67v1.4Z"/><path class="cls-33" d="M512.67,336.12v1.55h1.72v1.4h-1.72v1.35h2.12v1.4h-3.67v-7.1h3.67v1.4Z"/><path class="cls-33" d="M520.18,334.72v7.1h-1.36l-1.85-4v4h-1.35v-7.1H517l1.85,4.06v-4.06Z"/><path class="cls-33" d="M527.77,334.72v7.1h-1.36l-1.85-4v4h-1.35v-7.1h1.35l1.85,4.06v-4.06Z"/><path class="cls-33" d="M528.7,340v-3.36a2.38,2.38,0,0,1,4.71,0V340a2.38,2.38,0,0,1-4.71,0Zm3.16,0v-3.4c0-.36-.24-.6-.79-.6s-.82.24-.82.6V340c0,.36.24.6.81.6S531.86,340.33,531.86,340Z"/><path class="cls-33" d="M538.91,336.74v3.06a2,2,0,0,1-2.26,2h-2.3v-7.1h2.29A2.05,2.05,0,0,1,538.91,336.74Zm-1.54,0a.57.57,0,0,0-.62-.6h-.85v4.3h.84a.57.57,0,0,0,.63-.6Z"/><path class="cls-33" d="M541.38,336.12v1.55h1.72v1.4h-1.72v1.35h2.12v1.4h-3.67v-7.1h3.67v1.4Z"/><path class="cls-36" d="M381.14,416.76h-2.69l-.38,1h-1.4l2.32-6h1.6l2.32,6h-1.4Zm-2.35-1.11h2l-1-2.75Z"/><path class="cls-36" d="M385.57,413.34a2,2,0,0,1,1.72.78l-.75.71a1,1,0,0,0-.91-.47,1.16,1.16,0,0,0-1.18,1.26,1.17,1.17,0,0,0,1.18,1.27,1.08,1.08,0,0,0,.91-.47l.75.69a2,2,0,0,1-1.72.79,2.28,2.28,0,1,1,0-4.56Z"/><path class="cls-36" d="M388.6,416.72v-2.27h-.72v-1h.72v-1.19h1.16v1.19h.88v1h-.88v2c0,.27.14.48.39.48a.67.67,0,0,0,.4-.13l.24.87a1.43,1.43,0,0,1-1,.27A1.09,1.09,0,0,1,388.6,416.72Z"/><path class="cls-36" d="M391.52,412.21a.69.69,0,1,1,.68.68A.69.69,0,0,1,391.52,412.21Zm.11,1.24h1.15v4.35h-1.15Z"/><path class="cls-36" d="M393.5,413.45h1.23l1.13,3,1.14-3h1.23l-1.75,4.35h-1.23Z"/><path class="cls-36" d="M400.77,413.34a2.18,2.18,0,0,1,2.18,2.39V416h-3.23a1.17,1.17,0,0,0,1.25,1,1.77,1.77,0,0,0,1.16-.44l.51.74a2.72,2.72,0,0,1-1.8.6,2.28,2.28,0,1,1-.07-4.56Zm-1.07,1.87h2.14a1,1,0,0,0-1.07-1A1,1,0,0,0,399.7,415.21Z"/><line class="cls-37" x1="421.3" y1="407.5" x2="360.41" y2="407.5"/><line class="cls-37" x1="390.6" y1="402.6" x2="390.6" y2="407.5"/><polyline class="cls-1" points="705.76 227.03 705.76 124.74 477.37 124.74"/><polyline class="cls-1" points="206.13 227.03 206.13 124.74 437.42 124.74"/><path class="cls-36" d="M269.87,113.19H273a1.55,1.55,0,0,1,1.73,1.53,1.33,1.33,0,0,1-1,1.37,1.46,1.46,0,0,1,1.15,1.48,1.59,1.59,0,0,1-1.75,1.62h-3.26Zm2.88,2.41a.66.66,0,1,0,0-1.32h-1.6v1.32Zm.05,2.5a.69.69,0,0,0,.77-.71.7.7,0,0,0-.77-.7h-1.65v1.41Z"/><path class="cls-36" d="M276,113.19h1.15v6H276Z"/><path class="cls-36" d="M281.38,118.64a2.05,2.05,0,0,1-1.53.66,1.25,1.25,0,0,1-1.41-1.37v-3.09h1.15v2.64a.7.7,0,0,0,.8.8,1.29,1.29,0,0,0,1-.49v-3h1.14v4.35h-1.14Z"/><path class="cls-36" d="M285.8,114.73a2.19,2.19,0,0,1,2.18,2.4v.25h-3.24a1.19,1.19,0,0,0,1.26,1,1.79,1.79,0,0,0,1.16-.43l.5.73a2.68,2.68,0,0,1-1.79.61,2.29,2.29,0,0,1-.07-4.57Zm-1.07,1.88h2.14a1,1,0,0,0-1.07-1A1,1,0,0,0,284.73,116.61Z"/><path class="cls-36" d="M291.31,113.19h1.28v6h-1.28Z"/><path class="cls-36" d="M296.88,116.56a.71.71,0,0,0-.81-.81,1.24,1.24,0,0,0-1,.51v2.93h-1.14v-4.35h1.14v.57a2,2,0,0,1,1.53-.68,1.27,1.27,0,0,1,1.41,1.39v3.07h-1.14Z"/><path class="cls-36" d="M299.55,115.84h-.72v-1h.72v-.23A1.4,1.4,0,0,1,301,113.1a1.78,1.78,0,0,1,.82.18l-.23.81a.64.64,0,0,0-.37-.09c-.32,0-.54.21-.54.63v.21h.88v1h-.88v3.35h-1.15Z"/><path class="cls-36" d="M302.39,114.84h1.14v.6a1.83,1.83,0,0,1,1.38-.7v1.12a1.23,1.23,0,0,0-.31,0,1.45,1.45,0,0,0-1.07.5v2.87h-1.14Z"/><path class="cls-36" d="M308.38,118.74a1.81,1.81,0,0,1-1.38.56,1.45,1.45,0,0,1-1.51-1.44,1.38,1.38,0,0,1,1.51-1.39,1.76,1.76,0,0,1,1.38.53v-.6c0-.44-.38-.73-.95-.73a1.84,1.84,0,0,0-1.27.51l-.44-.76a2.87,2.87,0,0,1,1.9-.69c1,0,1.9.4,1.9,1.65v2.81h-1.14Zm0-1.13a1.12,1.12,0,0,0-.92-.38c-.45,0-.82.23-.82.65s.37.64.82.64a1.15,1.15,0,0,0,.92-.37Z"/><path class="cls-36" d="M310.93,117.82a2.48,2.48,0,0,0,1.5.6c.5,0,.73-.18.73-.45s-.38-.41-.87-.51c-.75-.14-1.71-.32-1.71-1.36,0-.73.64-1.37,1.78-1.37a2.8,2.8,0,0,1,1.76.6l-.46.78a1.84,1.84,0,0,0-1.29-.5c-.41,0-.68.15-.68.4s.34.37.82.47c.75.14,1.75.34,1.75,1.42,0,.79-.67,1.4-1.88,1.4a2.86,2.86,0,0,1-1.94-.68Z"/><path class="cls-36" d="M315.56,118.11v-2.27h-.72v-1h.72v-1.19h1.15v1.19h.88v1h-.88v2c0,.27.14.48.4.48a.56.56,0,0,0,.39-.13l.25.87a1.46,1.46,0,0,1-1,.28A1.09,1.09,0,0,1,315.56,118.11Z"/><path class="cls-36" d="M318.6,114.84h1.14v.6a1.87,1.87,0,0,1,1.39-.7v1.12a1.32,1.32,0,0,0-.32,0,1.47,1.47,0,0,0-1.07.5v2.87H318.6Z"/><path class="cls-36" d="M324.89,118.64a2,2,0,0,1-1.53.66,1.24,1.24,0,0,1-1.4-1.37v-3.09h1.14v2.64a.7.7,0,0,0,.8.8,1.27,1.27,0,0,0,1-.49v-3H326v4.35h-1.15Z"/><path class="cls-36" d="M329.37,114.73a2,2,0,0,1,1.72.79l-.75.7a1,1,0,0,0-.92-.47,1.27,1.27,0,0,0,0,2.53,1.1,1.1,0,0,0,.92-.47l.75.7a2,2,0,0,1-1.72.79,2.29,2.29,0,1,1,0-4.57Z"/><path class="cls-36" d="M332.4,118.11v-2.27h-.72v-1h.72v-1.19h1.15v1.19h.88v1h-.88v2c0,.27.15.48.4.48a.56.56,0,0,0,.39-.13l.25.87a1.44,1.44,0,0,1-1,.28A1.09,1.09,0,0,1,332.4,118.11Z"/><path class="cls-36" d="M338.35,118.64a2.05,2.05,0,0,1-1.53.66,1.25,1.25,0,0,1-1.41-1.37v-3.09h1.14v2.64c0,.6.32.8.81.8a1.29,1.29,0,0,0,1-.49v-3h1.14v4.35h-1.14Z"/><path class="cls-36" d="M340.77,114.84h1.14v.6a1.87,1.87,0,0,1,1.39-.7v1.12a1.3,1.3,0,0,0-.31,0,1.48,1.48,0,0,0-1.08.5v2.87h-1.14Z"/><path class="cls-36" d="M346.12,114.73a2.19,2.19,0,0,1,2.18,2.4v.25h-3.23a1.17,1.17,0,0,0,1.25,1,1.77,1.77,0,0,0,1.16-.43l.51.73a2.72,2.72,0,0,1-1.8.61,2.29,2.29,0,0,1-.07-4.57Zm-1.07,1.88h2.14a1,1,0,0,0-1.07-1A1,1,0,0,0,345.05,116.61Z"/><path class="cls-36" d="M351.41,117a6.24,6.24,0,0,1,1.43-4l.72.54a6.58,6.58,0,0,0-.91,3.44,6.46,6.46,0,0,0,.91,3.42l-.72.56A6.22,6.22,0,0,1,351.41,117Z"/><path class="cls-36" d="M358.32,118.15h-2.68l-.38,1h-1.41l2.33-6h1.6l2.31,6H358.7Zm-2.34-1.1h2l-1-2.76Z"/><path class="cls-36" d="M362.76,114.73a2,2,0,0,1,1.72.79l-.75.7a1,1,0,0,0-.92-.47,1.27,1.27,0,0,0,0,2.53,1.1,1.1,0,0,0,.92-.47l.75.7a2,2,0,0,1-1.72.79,2.29,2.29,0,1,1,0-4.57Z"/><path class="cls-36" d="M365.79,118.11v-2.27h-.72v-1h.72v-1.19h1.15v1.19h.88v1h-.88v2c0,.27.14.48.4.48a.56.56,0,0,0,.39-.13l.25.87a1.46,1.46,0,0,1-1,.28A1.09,1.09,0,0,1,365.79,118.11Z"/><path class="cls-36" d="M368.7,113.6a.69.69,0,0,1,.69-.68.68.68,0,1,1,0,1.36A.69.69,0,0,1,368.7,113.6Zm.12,1.24H370v4.35h-1.14Z"/><path class="cls-36" d="M370.69,114.84h1.22l1.14,3,1.13-3h1.23l-1.74,4.35h-1.24Z"/><path class="cls-36" d="M378,114.73a2.18,2.18,0,0,1,2.17,2.4v.25H376.9a1.18,1.18,0,0,0,1.25,1,1.79,1.79,0,0,0,1.17-.43l.5.73a2.7,2.7,0,0,1-1.79.61,2.29,2.29,0,0,1-.07-4.57Zm-1.08,1.88H379a1,1,0,0,0-1.07-1A1.05,1.05,0,0,0,376.88,116.61Z"/><path class="cls-36" d="M380.52,113.56l.72-.54a6.22,6.22,0,0,1,0,8l-.72-.56a6.37,6.37,0,0,0,.92-3.42A6.49,6.49,0,0,0,380.52,113.56Z"/><path class="cls-36" d="M552,113.09a2.81,2.81,0,0,1,2.49,1.31l-1.06.58a1.71,1.71,0,0,0-1.43-.76,2,2,0,0,0,0,3.94,2,2,0,0,0,1.3-.46V117h-1.6v-1.1h2.86v2.29a3.32,3.32,0,0,1-2.56,1.14,3.11,3.11,0,1,1,0-6.22Z"/><path class="cls-36" d="M555.83,114.84H557v.6a1.84,1.84,0,0,1,1.39-.7v1.12a1.39,1.39,0,0,0-.32,0,1.45,1.45,0,0,0-1.07.5v2.87h-1.14Z"/><path class="cls-36" d="M561.18,114.73a2.19,2.19,0,0,1,2.18,2.4v.25h-3.24a1.19,1.19,0,0,0,1.26,1,1.79,1.79,0,0,0,1.16-.43l.5.73a2.7,2.7,0,0,1-1.79.61,2.29,2.29,0,0,1-.07-4.57Zm-1.07,1.88h2.14a1,1,0,0,0-1.07-1A1,1,0,0,0,560.11,116.61Z"/><path class="cls-36" d="M566.35,114.73a2.19,2.19,0,0,1,2.18,2.4v.25H565.3a1.17,1.17,0,0,0,1.25,1,1.77,1.77,0,0,0,1.16-.43l.51.73a2.7,2.7,0,0,1-1.79.61,2.29,2.29,0,1,1-.08-4.57Zm-1.07,1.88h2.15a1,1,0,0,0-1.08-1A1,1,0,0,0,565.28,116.61Z"/><path class="cls-36" d="M572.46,116.56a.7.7,0,0,0-.8-.81,1.24,1.24,0,0,0-1,.51v2.93h-1.14v-4.35h1.14v.57a2,2,0,0,1,1.52-.68,1.27,1.27,0,0,1,1.42,1.39v3.07h-1.15Z"/><path class="cls-36" d="M577.25,113.19h1.28v6h-1.28Z"/><path class="cls-36" d="M582.81,116.56a.7.7,0,0,0-.8-.81,1.24,1.24,0,0,0-1,.51v2.93h-1.14v-4.35H581v.57a2,2,0,0,1,1.52-.68,1.27,1.27,0,0,1,1.42,1.39v3.07h-1.15Z"/><path class="cls-36" d="M585.49,115.84h-.72v-1h.72v-.23A1.39,1.39,0,0,1,587,113.1a1.82,1.82,0,0,1,.83.18l-.23.81a.66.66,0,0,0-.37-.09c-.33,0-.54.21-.54.63v.21h.88v1h-.88v3.35h-1.15Z"/><path class="cls-36" d="M588.32,114.84h1.15v.6a1.83,1.83,0,0,1,1.38-.7v1.12a1.3,1.3,0,0,0-.31,0,1.44,1.44,0,0,0-1.07.5v2.87h-1.15Z"/><path class="cls-36" d="M594.32,118.74a1.81,1.81,0,0,1-1.38.56,1.45,1.45,0,0,1-1.51-1.44,1.38,1.38,0,0,1,1.51-1.39,1.76,1.76,0,0,1,1.38.53v-.6c0-.44-.38-.73-1-.73a1.84,1.84,0,0,0-1.27.51l-.43-.76a2.86,2.86,0,0,1,1.9-.69c1,0,1.9.4,1.9,1.65v2.81h-1.14Zm0-1.13a1.12,1.12,0,0,0-.92-.38c-.45,0-.82.23-.82.65s.37.64.82.64a1.15,1.15,0,0,0,.92-.37Z"/><path class="cls-36" d="M596.87,117.82a2.45,2.45,0,0,0,1.5.6c.5,0,.73-.18.73-.45s-.38-.41-.87-.51c-.75-.14-1.71-.32-1.71-1.36,0-.73.64-1.37,1.78-1.37a2.77,2.77,0,0,1,1.75.6l-.46.78a1.81,1.81,0,0,0-1.28-.5c-.42,0-.69.15-.69.4s.35.37.83.47c.75.14,1.75.34,1.75,1.42,0,.79-.68,1.4-1.88,1.4a2.9,2.9,0,0,1-2-.68Z"/><path class="cls-36" d="M601.49,118.11v-2.27h-.72v-1h.72v-1.19h1.16v1.19h.88v1h-.88v2c0,.27.14.48.39.48a.59.59,0,0,0,.4-.13l.24.87a1.41,1.41,0,0,1-.95.28A1.1,1.1,0,0,1,601.49,118.11Z"/><path class="cls-36" d="M604.54,114.84h1.14v.6a1.87,1.87,0,0,1,1.39-.7v1.12a1.32,1.32,0,0,0-.32,0,1.45,1.45,0,0,0-1.07.5v2.87h-1.14Z"/><path class="cls-36" d="M610.83,118.64a2.05,2.05,0,0,1-1.53.66,1.24,1.24,0,0,1-1.4-1.37v-3.09H609v2.64a.7.7,0,0,0,.8.8,1.29,1.29,0,0,0,1-.49v-3H612v4.35h-1.14Z"/><path class="cls-36" d="M615.3,114.73a2,2,0,0,1,1.72.79l-.74.7a1.06,1.06,0,0,0-.92-.47,1.27,1.27,0,0,0,0,2.53,1.11,1.11,0,0,0,.92-.47l.74.7a2,2,0,0,1-1.72.79,2.29,2.29,0,1,1,0-4.57Z"/><path class="cls-36" d="M618.34,118.11v-2.27h-.72v-1h.72v-1.19h1.15v1.19h.88v1h-.88v2c0,.27.14.48.39.48a.59.59,0,0,0,.4-.13l.24.87a1.41,1.41,0,0,1-.95.28A1.09,1.09,0,0,1,618.34,118.11Z"/><path class="cls-36" d="M624.28,118.64a2,2,0,0,1-1.53.66,1.24,1.24,0,0,1-1.4-1.37v-3.09h1.14v2.64a.7.7,0,0,0,.8.8,1.27,1.27,0,0,0,1-.49v-3h1.15v4.35h-1.15Z"/><path class="cls-36" d="M626.71,114.84h1.14v.6a1.87,1.87,0,0,1,1.39-.7v1.12a1.32,1.32,0,0,0-.32,0,1.45,1.45,0,0,0-1.07.5v2.87h-1.14Z"/><path class="cls-36" d="M632.06,114.73a2.19,2.19,0,0,1,2.18,2.4v.25H631a1.17,1.17,0,0,0,1.25,1,1.79,1.79,0,0,0,1.16-.43l.5.73a2.68,2.68,0,0,1-1.79.61,2.29,2.29,0,0,1-.07-4.57ZM631,116.61h2.14a1,1,0,0,0-1.07-1A1,1,0,0,0,631,116.61Z"/><line class="cls-1" x1="458.31" y1="86.46" x2="458.31" y2="104.86"/><path class="cls-38" d="M420,151.76h4.81v.82H421v2.36h3.81v.82H421v3.34H420Z"/><path class="cls-38" d="M426.35,157.45a2.4,2.4,0,0,0,2,1,1.59,1.59,0,0,0,1.7-1.57,1.56,1.56,0,0,0-1.69-1.59,2.29,2.29,0,0,0-1.69.69l-.67-.23v-4h4.49v.82h-3.58v2.55a2.49,2.49,0,0,1,1.72-.66,2.25,2.25,0,0,1,2.33,2.34,2.4,2.4,0,0,1-2.61,2.42,3,3,0,0,1-2.58-1.17Z"/><path class="cls-38" d="M438.39,151.64a3.48,3.48,0,0,1,2.85,1.38l-.72.45a2.71,2.71,0,0,0-2.13-1,3,3,0,0,0,0,6,2.9,2.9,0,0,0,2-.79v-1.5h-2.52v-.81h3.44V158a3.84,3.84,0,0,1-2.89,1.26,3.8,3.8,0,0,1,0-7.6Z"/><path class="cls-38" d="M442.56,151.76h.83v7.34h-.83Z"/><path class="cls-38" d="M444.56,156.44c-.19-3.62,5.46-3.62,5.26,0C450,160.07,444.37,160.07,444.56,156.44Zm4.39,0a1.78,1.78,0,1,0-3.53,0A1.78,1.78,0,1,0,449,156.44Z"/><path class="cls-38" d="M451,151.76h.82v2.83a2.22,2.22,0,0,1,1.8-.93c1.38,0,2.36,1.1,2.36,2.79s-1,2.78-2.36,2.78a2.25,2.25,0,0,1-1.8-.92v.79H451Zm2.41,6.74c1.08,0,1.71-.87,1.71-2.05s-.63-2.06-1.71-2.06a2,2,0,0,0-1.59.86v2.41A2,2,0,0,0,453.41,158.5Z"/><path class="cls-38" d="M460.48,158.5a2.3,2.3,0,0,1-1.76.73,1.77,1.77,0,0,1-1.86-1.76,1.74,1.74,0,0,1,1.86-1.75,2.2,2.2,0,0,1,1.76.73v-1c0-.71-.57-1.12-1.34-1.12a2.1,2.1,0,0,0-1.63.74l-.38-.57a2.75,2.75,0,0,1,2.12-.88c1.12,0,2.06.5,2.06,1.79v3.65h-.83Zm0-1.52a1.78,1.78,0,0,0-1.46-.66,1.17,1.17,0,1,0,0,2.32,1.78,1.78,0,0,0,1.46-.66Z"/><path class="cls-38" d="M462.79,151.76h.83v7.34h-.83Z"/><path class="cls-38" d="M467.91,157.37a3.08,3.08,0,0,0,2.31,1c1.31,0,1.72-.7,1.72-1.27,0-.88-.89-1.12-1.86-1.38-1.17-.31-2.48-.64-2.48-2.08,0-1.21,1.08-2,2.52-2a3.43,3.43,0,0,1,2.6,1l-.55.67a2.79,2.79,0,0,0-2.12-.88c-.88,0-1.51.47-1.51,1.16s.85,1,1.79,1.21c1.2.32,2.56.7,2.56,2.24,0,1.06-.73,2.15-2.71,2.15a3.62,3.62,0,0,1-2.81-1.16Z"/><path class="cls-38" d="M476.36,153.66a2.58,2.58,0,0,1,2.56,2.84v.21h-4.3a1.86,1.86,0,0,0,1.91,1.84,2.31,2.31,0,0,0,1.64-.67l.4.54a2.9,2.9,0,0,1-2.12.81,2.79,2.79,0,0,1-.09-5.57Zm-1.74,2.45h3.48a1.72,1.72,0,0,0-1.75-1.77A1.76,1.76,0,0,0,474.62,156.11Z"/><path class="cls-38" d="M480.08,153.79h.83v.86a2.23,2.23,0,0,1,1.77-1v.85a1.11,1.11,0,0,0-.33,0,1.93,1.93,0,0,0-1.44.85v3.76h-.83Z"/><path class="cls-38" d="M482.76,153.79h.89l1.77,4.35,1.76-4.35h.9l-2.21,5.31H485Z"/><path class="cls-38" d="M491.08,153.66a2.58,2.58,0,0,1,2.56,2.84v.21h-4.31a1.87,1.87,0,0,0,1.92,1.84,2.33,2.33,0,0,0,1.64-.67l.39.54a2.86,2.86,0,0,1-2.11.81,2.79,2.79,0,0,1-.09-5.57Zm-1.75,2.45h3.49a1.72,1.72,0,0,0-1.75-1.77A1.78,1.78,0,0,0,489.33,156.11Z"/><path class="cls-38" d="M494.8,153.79h.83v.86a2.21,2.21,0,0,1,1.77-1v.85a1.11,1.11,0,0,0-.33,0,1.93,1.93,0,0,0-1.44.85v3.76h-.83Z"/><path class="cls-38" d="M423.33,162.76h.92v6.53h3.41v.81h-4.33Z"/><path class="cls-38" d="M428.21,167.44c-.2-3.62,5.45-3.62,5.26,0C433.66,171.07,428,171.07,428.21,167.44Zm4.39,0a1.78,1.78,0,1,0-3.54,0A1.78,1.78,0,1,0,432.6,167.44Z"/><path class="cls-38" d="M438,169.5a2.3,2.3,0,0,1-1.76.73,1.77,1.77,0,0,1-1.86-1.76,1.74,1.74,0,0,1,1.86-1.75,2.19,2.19,0,0,1,1.76.73v-1c0-.71-.57-1.12-1.34-1.12a2.11,2.11,0,0,0-1.63.74l-.38-.57a2.75,2.75,0,0,1,2.12-.88c1.12,0,2.06.5,2.06,1.79v3.65H438Zm0-1.52a1.77,1.77,0,0,0-1.46-.66,1.17,1.17,0,1,0,0,2.32A1.77,1.77,0,0,0,438,169Z"/><path class="cls-38" d="M444.12,169.31a2.21,2.21,0,0,1-1.79.92c-1.39,0-2.36-1-2.36-2.78s1-2.79,2.36-2.79a2.2,2.2,0,0,1,1.79.93v-2.83H445v7.34h-.83Zm0-3.06a2,2,0,0,0-1.59-.86c-1.07,0-1.71.88-1.71,2.06s.64,2.05,1.71,2.05a2,2,0,0,0,1.59-.84Z"/><path class="cls-38" d="M449.14,162.76h3.27a1.85,1.85,0,0,1,2,1.87,1.67,1.67,0,0,1-1.28,1.69,1.83,1.83,0,0,1,1.43,1.8,1.91,1.91,0,0,1-2.13,2h-3.34Zm3.11,3.18a1.14,1.14,0,0,0,1.27-1.17,1.16,1.16,0,0,0-1.27-1.19h-2.2v2.36Zm.05,3.35a1.21,1.21,0,0,0,1.36-1.27,1.24,1.24,0,0,0-1.36-1.26h-2.25v2.53Z"/><path class="cls-38" d="M459.18,169.5a2.3,2.3,0,0,1-1.76.73,1.77,1.77,0,0,1-1.86-1.76,1.74,1.74,0,0,1,1.86-1.75,2.2,2.2,0,0,1,1.76.73v-1c0-.71-.57-1.12-1.34-1.12a2.11,2.11,0,0,0-1.63.74l-.38-.57a2.75,2.75,0,0,1,2.12-.88c1.12,0,2.06.5,2.06,1.79v3.65h-.83Zm0-1.52a1.78,1.78,0,0,0-1.46-.66,1.17,1.17,0,1,0,0,2.32,1.78,1.78,0,0,0,1.46-.66Z"/><path class="cls-38" d="M461.49,162.76h.83v7.34h-.83Z"/><path class="cls-38" d="M467.13,169.5a2.34,2.34,0,0,1-1.77.73,1.76,1.76,0,0,1-1.85-1.76,1.73,1.73,0,0,1,1.85-1.75,2.23,2.23,0,0,1,1.77.73v-1c0-.71-.58-1.12-1.35-1.12a2.11,2.11,0,0,0-1.63.74l-.38-.57a2.75,2.75,0,0,1,2.12-.88c1.12,0,2.06.5,2.06,1.79v3.65h-.82Zm0-1.52a1.8,1.8,0,0,0-1.47-.66,1.17,1.17,0,1,0,0,2.32,1.8,1.8,0,0,0,1.47-.66Z"/><path class="cls-38" d="M473,166.62c0-.93-.47-1.23-1.19-1.23a2,2,0,0,0-1.57.83v3.88h-.83v-5.31h.83v.77a2.63,2.63,0,0,1,1.89-.9,1.51,1.51,0,0,1,1.7,1.71v3.73H473Z"/><path class="cls-38" d="M477.67,164.66a2.27,2.27,0,0,1,1.95.92l-.55.51a1.56,1.56,0,0,0-1.35-.7,2.07,2.07,0,0,0,0,4.11,1.58,1.58,0,0,0,1.35-.7l.55.51a2.27,2.27,0,0,1-1.95.92,2.79,2.79,0,0,1,0-5.57Z"/><path class="cls-38" d="M480.47,163.38a.56.56,0,1,1,1.11,0,.56.56,0,0,1-1.11,0Zm.14,1.41h.83v5.31h-.83Z"/><path class="cls-38" d="M486.51,166.62c0-.93-.48-1.23-1.19-1.23a2,2,0,0,0-1.57.83v3.88h-.83v-5.31h.83v.77a2.63,2.63,0,0,1,1.89-.9,1.51,1.51,0,0,1,1.69,1.71v3.73h-.82Z"/><path class="cls-38" d="M489.22,170.85a2,2,0,0,0,1.73.73,1.53,1.53,0,0,0,1.71-1.6v-.76a2.24,2.24,0,0,1-1.79.95c-1.38,0-2.36-1-2.36-2.75s1-2.76,2.36-2.76a2.21,2.21,0,0,1,1.79.93v-.8h.82V170c0,1.76-1.23,2.31-2.53,2.31a2.75,2.75,0,0,1-2.15-.79Zm3.44-4.6a2,2,0,0,0-1.59-.86c-1.07,0-1.7.85-1.7,2s.63,2,1.7,2a2,2,0,0,0,1.59-.87Z"/><polyline class="cls-39" points="469 120.22 472.56 124.35 469 128.47"/><ellipse class="cls-39" cx="460.09" cy="124.34" rx="5.34" ry="5.31"/><ellipse class="cls-39" cx="447.03" cy="124.34" rx="2.97" ry="2.95"/><line class="cls-39" x1="450" y1="124.34" x2="454.75" y2="124.34"/><line class="cls-39" x1="465.43" y1="124.34" x2="472.12" y2="124.34"/><polyline class="cls-39" points="458.38 112.89 463.46 110.86 466.25 115.53"/><line class="cls-39" x1="460.67" y1="119.04" x2="463.35" y2="111.18"/><polyline class="cls-39" points="458.39 135.83 463.48 137.86 466.27 133.19"/><line class="cls-39" x1="460.68" y1="129.67" x2="463.39" y2="137.55"/><ellipse class="cls-39" cx="447.03" cy="124.34" rx="2.97" ry="2.95"/><circle class="cls-40" cx="458.31" cy="124.36" r="19.5"/><path class="cls-41" d="M444.94,137.94v-.06H442v0a11.23,11.23,0,0,0,.52,3.41,17.61,17.61,0,0,1,2.58-.42A25,25,0,0,1,444.94,137.94Z"/><path class="cls-41" d="M445.12,140.91a17.61,17.61,0,0,0-2.58.42,6.65,6.65,0,0,0,3.06,4l.18,0a6.12,6.12,0,0,0,1,.13C446,144.91,445.41,143.19,445.12,140.91Z"/><path class="cls-41" d="M449.43,134.86a23.74,23.74,0,0,1,.19,3h2.93a10.72,10.72,0,0,0-.55-3.43A18.72,18.72,0,0,1,449.43,134.86Z"/><path class="cls-41" d="M449.45,140.91l-.69,0c-.48,0-1,0-1.48,0q-1.12,0-2.16.09c.29,2.28.89,4,1.63,4.57a4.7,4.7,0,0,0,.53,0,4.61,4.61,0,0,0,.53,0h0C448.56,144.91,449.16,143.19,449.45,140.91Z"/><path class="cls-41" d="M447.82,145.48h0a9,9,0,0,0,1.16-.17,6.64,6.64,0,0,0,3-4,17.24,17.24,0,0,0-2.57-.42C449.16,143.19,448.56,144.91,447.82,145.48Z"/><path class="cls-41" d="M449.63,137.94a25,25,0,0,1-.18,3,17.24,17.24,0,0,1,2.57.42,10.93,10.93,0,0,0,.53-3.41v0h-2.93Z"/><path class="cls-41" d="M445.14,134.86a18.72,18.72,0,0,1-2.57-.41,10.72,10.72,0,0,0-.55,3.43h2.92A25.65,25.65,0,0,1,445.14,134.86Z"/><path class="cls-41" d="M447.28,135c-.51,0-1,0-1.5,0l-.64,0a25.65,25.65,0,0,0-.2,3h4.68a23.74,23.74,0,0,0-.19-3l-.41,0Q448.18,135,447.28,135Z"/><path class="cls-41" d="M444.94,137.94a25,25,0,0,0,.18,3q1-.09,2.16-.09c.51,0,1,0,1.48,0l.69,0a25,25,0,0,0,.18-3v-.06h-4.68Z"/><path class="cls-41" d="M449.23,133.61h0c.07.39.14.81.2,1.25a18.72,18.72,0,0,0,2.57-.41,7.84,7.84,0,0,0-.35-.89,5.94,5.94,0,0,0-3-3.17,8.87,8.87,0,0,0-1.05-.12l.13.07C448.35,130.74,448.89,132,449.23,133.61Z"/><path class="cls-41" d="M445.38,133.46a13.12,13.12,0,0,0-.24,1.4l.64,0c.48,0,1,0,1.5,0s1.18,0,1.74-.06l.41,0c-.06-.44-.13-.86-.2-1.25-.34-1.66-.88-2.87-1.49-3.27l-.13-.07H447C446.3,130.58,445.74,131.77,445.38,133.46Z"/><path class="cls-41" d="M445.38,133.46c.36-1.69.92-2.88,1.57-3.19a8.94,8.94,0,0,0-1,.12,5.88,5.88,0,0,0-2.92,3,8.21,8.21,0,0,0-.42,1,18.72,18.72,0,0,0,2.57.41A13.12,13.12,0,0,1,445.38,133.46Z"/><path class="cls-41" d="M445.6,145.31a6.65,6.65,0,0,1-3.06-4,9.52,9.52,0,0,0-1.45.47l-.26.12A7.6,7.6,0,0,0,445.6,145.31Z"/><path class="cls-41" d="M452.55,137.88v0a10.93,10.93,0,0,1-.53,3.41,8.74,8.74,0,0,1,1.57.52h0l.15.07a7.59,7.59,0,0,0,1.15-4Z"/><path class="cls-41" d="M452,141.33a6.64,6.64,0,0,1-3,4h0a7.61,7.61,0,0,0,4.72-3.38l-.15-.07A8.74,8.74,0,0,0,452,141.33Z"/><path class="cls-41" d="M448.76,130.41l-.1,0a5.94,5.94,0,0,1,3,3.17h0a7.84,7.84,0,0,1,.35.89,8.54,8.54,0,0,0,1.74-.6l-.15-.23A7.65,7.65,0,0,0,448.76,130.41Z"/><path class="cls-41" d="M452.55,137.88h2.34a7.58,7.58,0,0,0-1.15-4,8.54,8.54,0,0,1-1.74.6A10.72,10.72,0,0,1,452.55,137.88Z"/><path class="cls-41" d="M442.57,134.45a9,9,0,0,1-1.74-.6,7.59,7.59,0,0,0-1.16,4H442A10.72,10.72,0,0,1,442.57,134.45Z"/><path class="cls-41" d="M442.54,141.33a11.23,11.23,0,0,1-.52-3.41v0h-2.35a7.6,7.6,0,0,0,1.16,4l.26-.12A9.52,9.52,0,0,1,442.54,141.33Z"/><path class="cls-41" d="M443,133.4a5.88,5.88,0,0,1,2.92-3,7.59,7.59,0,0,0-4.82,3.08c-.09.13-.18.25-.26.38a9,9,0,0,0,1.74.6A8.21,8.21,0,0,1,443,133.4Z"/><polyline class="cls-1" points="636.48 393.67 626.85 393.67 626.85 271.07 544.12 271.07"/><polyline class="cls-1" points="276.04 393.67 285.67 393.67 285.67 271.07 368.4 271.07"/><polygon class="cls-39" points="385.88 386.31 385.88 372.35 373.81 365.37 361.73 372.35 361.73 386.31 373.81 393.3 385.88 386.31"/><polyline class="cls-39" points="365.36 383.49 365.36 375.28 372.76 383.49 372.76 375.28"/><line class="cls-39" x1="379.55" y1="382.49" x2="379.55" y2="376.28"/><line class="cls-39" x1="376.44" y1="379.39" x2="382.65" y2="379.39"/><polygon class="cls-39" points="421.44 386.31 421.44 372.35 409.36 365.37 397.29 372.35 397.29 386.31 409.36 393.3 421.44 386.31"/><polyline class="cls-39" points="400.91 383.49 400.91 375.28 408.32 383.49 408.32 375.28"/><line class="cls-39" x1="415.1" y1="382.49" x2="415.1" y2="376.28"/><line class="cls-39" x1="411.99" y1="379.39" x2="418.21" y2="379.39"/><rect class="cls-42" x="351.78" y="359.59" width="79.62" height="39.49"/><polygon class="cls-39" points="513.73 386.31 513.73 372.35 501.65 365.37 489.58 372.35 489.58 386.31 501.65 393.3 513.73 386.31"/><polyline class="cls-39" points="493.2 383.49 493.2 375.28 500.61 383.49 500.61 375.28"/><line class="cls-39" x1="507.39" y1="382.49" x2="507.39" y2="376.28"/><line class="cls-39" x1="504.29" y1="379.39" x2="510.5" y2="379.39"/><polygon class="cls-39" points="549.28 386.31 549.28 372.35 537.21 365.37 525.13 372.35 525.13 386.31 537.21 393.3 549.28 386.31"/><polyline class="cls-39" points="528.76 383.49 528.76 375.28 536.16 383.49 536.16 375.28"/><line class="cls-39" x1="542.95" y1="382.49" x2="542.95" y2="376.28"/><line class="cls-39" x1="539.84" y1="379.39" x2="546.05" y2="379.39"/><rect class="cls-42" x="479.62" y="359.59" width="79.62" height="39.49"/><rect class="cls-43" x="405.38" y="0.5" width="105.86" height="90.53"/><path class="cls-38" d="M437.64,65.93h-3.72l-.65,1.63h-1l2.94-7.34h1.14l3,7.34h-1Zm-3.46-.82h3.18L435.78,61Z"/><path class="cls-38" d="M440.05,69.58V62.24h.83V63a2.21,2.21,0,0,1,1.79-.93c1.4,0,2.37,1.06,2.37,2.79s-1,2.79-2.37,2.79a2.17,2.17,0,0,1-1.79-.94v2.83Zm2.41-6.73a1.94,1.94,0,0,0-1.58.85v2.39a2,2,0,0,0,1.58.86c1.07,0,1.71-.88,1.71-2S443.53,62.85,442.46,62.85Z"/><path class="cls-38" d="M446.2,69.58V62.24H447V63a2.21,2.21,0,0,1,1.79-.93c1.4,0,2.37,1.06,2.37,2.79s-1,2.79-2.37,2.79a2.16,2.16,0,0,1-1.79-.94v2.83Zm2.41-6.73a1.93,1.93,0,0,0-1.58.85v2.39a1.94,1.94,0,0,0,1.58.86c1.07,0,1.71-.88,1.71-2S449.68,62.85,448.61,62.85Z"/><path class="cls-38" d="M452.35,60.22h.83v7.34h-.83Z"/><path class="cls-38" d="M454.52,60.84a.56.56,0,1,1,1.11,0,.56.56,0,0,1-1.11,0Zm.14,1.4h.83v5.32h-.83Z"/><path class="cls-38" d="M459.31,62.11a2.28,2.28,0,0,1,1.95.93l-.55.5a1.57,1.57,0,0,0-1.35-.69,2.06,2.06,0,0,0,0,4.1,1.6,1.6,0,0,0,1.35-.69l.55.51a2.3,2.3,0,0,1-1.95.92,2.79,2.79,0,0,1,0-5.58Z"/><path class="cls-38" d="M465.57,67a2.27,2.27,0,0,1-1.76.74A1.77,1.77,0,0,1,462,65.93a1.74,1.74,0,0,1,1.86-1.75,2.19,2.19,0,0,1,1.76.73V64c0-.72-.57-1.12-1.34-1.12a2.13,2.13,0,0,0-1.63.73l-.38-.57a2.78,2.78,0,0,1,2.12-.88c1.12,0,2.06.51,2.06,1.79v3.66h-.83Zm0-1.52a1.77,1.77,0,0,0-1.46-.66,1.17,1.17,0,1,0,0,2.33,1.77,1.77,0,0,0,1.46-.66Z"/><path class="cls-38" d="M468.05,66.45V63h-.88v-.73h.88V60.79h.82v1.45H470V63h-1.08v3.3c0,.4.18.68.54.68a.8.8,0,0,0,.56-.22l.25.62a1.35,1.35,0,0,1-1,.34A1.08,1.08,0,0,1,468.05,66.45Z"/><path class="cls-38" d="M470.81,60.84a.56.56,0,1,1,1.11,0,.56.56,0,0,1-1.11,0Zm.14,1.4h.83v5.32H471Z"/><path class="cls-38" d="M473,64.9c-.19-3.63,5.46-3.63,5.26,0C478.41,68.53,472.76,68.53,473,64.9Zm4.39,0a1.78,1.78,0,1,0-3.53,0A1.78,1.78,0,1,0,477.34,64.9Z"/><path class="cls-38" d="M483,64.08c0-.93-.48-1.23-1.19-1.23a2,2,0,0,0-1.57.82v3.89h-.83V62.24h.83V63a2.61,2.61,0,0,1,1.89-.9,1.51,1.51,0,0,1,1.69,1.72v3.73H483Z"/><path class="cls-38" d="M432.06,72.64v5.92h-.92V71.22h.94L436.3,77v-5.8h.92v7.34h-.88Z"/><path class="cls-38" d="M442.06,78a2.29,2.29,0,0,1-1.76.74,1.77,1.77,0,0,1-1.86-1.76,1.74,1.74,0,0,1,1.86-1.75,2.22,2.22,0,0,1,1.76.73V75c0-.72-.58-1.12-1.35-1.12a2.11,2.11,0,0,0-1.62.73L438.7,74a2.8,2.8,0,0,1,2.12-.88c1.13,0,2.06.51,2.06,1.79v3.66h-.82Zm0-1.52a1.79,1.79,0,0,0-1.47-.66,1.17,1.17,0,1,0,0,2.33,1.79,1.79,0,0,0,1.47-.66Z"/><path class="cls-38" d="M450.78,75c0-.67-.3-1.1-1-1.1a1.86,1.86,0,0,0-1.41.81v3.9h-.82V75c0-.67-.29-1.1-1-1.1a1.86,1.86,0,0,0-1.4.82v3.89h-.82V73.24h.82V74a2.31,2.31,0,0,1,1.72-.9,1.37,1.37,0,0,1,1.43,1,2.23,2.23,0,0,1,1.78-1c1,0,1.48.54,1.48,1.61v3.84h-.82Z"/><path class="cls-38" d="M455.4,73.11A2.58,2.58,0,0,1,458,76v.21h-4.3A1.88,1.88,0,0,0,455.56,78a2.3,2.3,0,0,0,1.64-.67l.4.54a2.91,2.91,0,0,1-2.11.81,2.63,2.63,0,0,1-2.71-2.79A2.66,2.66,0,0,1,455.4,73.11Zm-1.75,2.46h3.49a1.73,1.73,0,0,0-1.75-1.78A1.78,1.78,0,0,0,453.65,75.57Z"/><path class="cls-38" d="M459.08,77.26a2.42,2.42,0,0,0,1.75.76c.82,0,1.26-.37,1.26-.88s-.65-.77-1.37-1c-.9-.21-1.92-.45-1.92-1.55,0-.82.71-1.53,2-1.53a2.69,2.69,0,0,1,2,.77l-.39.57a2.08,2.08,0,0,0-1.58-.67c-.73,0-1.18.33-1.18.81s.61.68,1.3.84c.92.21,2,.48,2,1.65,0,.89-.71,1.61-2.09,1.61a2.77,2.77,0,0,1-2.14-.84Z"/><path class="cls-38" d="M464.07,80.58V73.24h.82V74a2.24,2.24,0,0,1,1.79-.93c1.4,0,2.37,1.06,2.37,2.79s-1,2.79-2.37,2.79a2.17,2.17,0,0,1-1.79-.94v2.83Zm2.41-6.73a2,2,0,0,0-1.59.85v2.39a2,2,0,0,0,1.59.86c1.06,0,1.7-.88,1.7-2S467.54,73.85,466.48,73.85Z"/><path class="cls-38" d="M473.54,78a2.29,2.29,0,0,1-1.76.74,1.77,1.77,0,0,1-1.86-1.76,1.74,1.74,0,0,1,1.86-1.75,2.22,2.22,0,0,1,1.76.73V75c0-.72-.57-1.12-1.34-1.12a2.12,2.12,0,0,0-1.63.73l-.39-.57a2.82,2.82,0,0,1,2.13-.88c1.12,0,2.05.51,2.05,1.79v3.66h-.82Zm0-1.52a1.78,1.78,0,0,0-1.46-.66,1.17,1.17,0,1,0,0,2.33,1.78,1.78,0,0,0,1.46-.66Z"/><path class="cls-38" d="M478.19,73.11a2.28,2.28,0,0,1,1.95.93l-.55.5a1.58,1.58,0,0,0-1.36-.69,2.06,2.06,0,0,0,0,4.1,1.6,1.6,0,0,0,1.36-.69l.55.51a2.3,2.3,0,0,1-1.95.92,2.79,2.79,0,0,1,0-5.58Z"/><path class="cls-38" d="M483.44,73.11A2.59,2.59,0,0,1,486,76v.21h-4.3A1.88,1.88,0,0,0,483.6,78a2.31,2.31,0,0,0,1.64-.67l.4.54a2.91,2.91,0,0,1-2.11.81,2.63,2.63,0,0,1-2.71-2.79A2.66,2.66,0,0,1,483.44,73.11Zm-1.75,2.46h3.49a1.73,1.73,0,0,0-1.75-1.78A1.77,1.77,0,0,0,481.69,75.57Z"/><rect class="cls-40" x="440.02" y="14.41" width="37" height="37" rx="6.26"/><g id="Group_13232-2" data-name="Group 13232-2"><path id="Path_61042" data-name="Path 61042" class="cls-44" d="M452.45,34.3a3.06,3.06,0,0,1-2.42,1,2.34,2.34,0,1,1-.24-4.68H450a3,3,0,0,1,2.42,1V30.09a1.78,1.78,0,0,0-1.8-1.76h-.19a2.75,2.75,0,0,0-2.26,1.11l-.28-.27A3.06,3.06,0,0,1,450.5,28c1.39,0,2.43.72,2.43,2.11v5.08h-.44V34.3Zm0-2.19a2.85,2.85,0,0,0-2.31-1.06,2,2,0,0,0-2.1,1.82V33A1.94,1.94,0,0,0,450,35h.17a2.8,2.8,0,0,0,2.31-1.08Z"/><path id="Path_61043" data-name="Path 61043" class="cls-44" d="M455.27,37.83V28.14h.44v1.19A3.16,3.16,0,0,1,458.25,28c1.9,0,3.13,1.47,3.13,3.66s-1.23,3.69-3.13,3.69a3.15,3.15,0,0,1-2.55-1.39v3.9Zm3-9.45a3.09,3.09,0,0,0-2.55,1.39v3.77A3,3,0,0,0,458.25,35c1.7,0,2.66-1.47,2.66-3.29S460,28.38,458.25,28.38Z"/><path id="Path_61044" data-name="Path 61044" class="cls-44" d="M463.37,37.83V28.14h.44v1.19A3.16,3.16,0,0,1,466.35,28c1.91,0,3.14,1.47,3.14,3.66s-1.23,3.69-3.14,3.69a3.14,3.14,0,0,1-2.54-1.39v3.9Zm3-9.45a3.06,3.06,0,0,0-2.54,1.39v3.77A3,3,0,0,0,466.35,35c1.71,0,2.66-1.47,2.66-3.29S468.06,28.38,466.35,28.38Z"/></g><rect class="cls-43" x="670.43" y="227.76" width="176.87" height="86.09"/><polyline class="cls-39" points="739.43 256.98 744.18 262.49 739.43 267.99"/><ellipse class="cls-39" cx="727.55" cy="262.48" rx="7.12" ry="7.07"/><ellipse class="cls-39" cx="710.14" cy="262.48" rx="3.96" ry="3.93"/><line class="cls-39" x1="714.09" y1="262.48" x2="720.43" y2="262.48"/><line class="cls-39" x1="734.68" y1="262.48" x2="743.59" y2="262.48"/><polyline class="cls-39" points="725.27 247.21 732.05 244.5 735.77 250.73"/><line class="cls-39" x1="728.32" y1="255.41" x2="731.91" y2="244.94"/><polyline class="cls-39" points="725.29 277.8 732.07 280.5 735.79 274.27"/><line class="cls-39" x1="728.34" y1="269.59" x2="731.96" y2="280.1"/><ellipse class="cls-39" cx="710.14" cy="262.48" rx="3.96" ry="3.93"/><path class="cls-38" d="M714.47,288.05h.91v6.52h3.41v.82h-4.32Z"/><path class="cls-38" d="M719.34,292.73c-.19-3.63,5.45-3.63,5.26,0C724.79,296.36,719.15,296.36,719.34,292.73Zm4.39,0a1.78,1.78,0,1,0-3.53,0A1.78,1.78,0,1,0,723.73,292.73Z"/><path class="cls-38" d="M729.1,294.78a2.29,2.29,0,0,1-1.76.74,1.77,1.77,0,0,1-1.86-1.76,1.74,1.74,0,0,1,1.86-1.75,2.2,2.2,0,0,1,1.76.73v-1c0-.72-.57-1.12-1.34-1.12a2.12,2.12,0,0,0-1.63.73l-.39-.57a2.82,2.82,0,0,1,2.13-.88c1.12,0,2.06.51,2.06,1.8v3.65h-.83Zm0-1.52a1.78,1.78,0,0,0-1.46-.66,1.17,1.17,0,1,0,0,2.33,1.78,1.78,0,0,0,1.46-.66Z"/><path class="cls-38" d="M735.26,294.6a2.27,2.27,0,0,1-1.79.92c-1.39,0-2.37-1.06-2.37-2.78s1-2.8,2.37-2.8a2.21,2.21,0,0,1,1.79.94v-2.83h.83v7.34h-.83Zm0-3.06a2,2,0,0,0-1.6-.86c-1.06,0-1.7.88-1.7,2.06s.64,2,1.7,2a2,2,0,0,0,1.6-.83Z"/><path class="cls-38" d="M703.11,299.05h3.26a1.85,1.85,0,0,1,2.06,1.87,1.66,1.66,0,0,1-1.29,1.68,1.83,1.83,0,0,1,1.43,1.81,1.91,1.91,0,0,1-2.12,2h-3.34Zm3.11,3.18a1.14,1.14,0,0,0,1.27-1.18,1.16,1.16,0,0,0-1.27-1.19H704v2.37Zm0,3.34a1.21,1.21,0,0,0,1.37-1.26,1.25,1.25,0,0,0-1.37-1.27H704v2.53Z"/><path class="cls-38" d="M713.15,305.78a2.29,2.29,0,0,1-1.76.74,1.77,1.77,0,0,1-1.86-1.76,1.74,1.74,0,0,1,1.86-1.75,2.2,2.2,0,0,1,1.76.73v-1c0-.72-.57-1.12-1.34-1.12a2.12,2.12,0,0,0-1.63.73l-.39-.57a2.82,2.82,0,0,1,2.13-.88c1.12,0,2.05.51,2.05,1.8v3.65h-.82Zm0-1.52a1.78,1.78,0,0,0-1.46-.66,1.17,1.17,0,1,0,0,2.33,1.78,1.78,0,0,0,1.46-.66Z"/><path class="cls-38" d="M715.46,299.05h.82v7.34h-.82Z"/><path class="cls-38" d="M721.09,305.78a2.27,2.27,0,0,1-1.76.74,1.77,1.77,0,0,1-1.86-1.76,1.74,1.74,0,0,1,1.86-1.75,2.2,2.2,0,0,1,1.76.73v-1c0-.72-.57-1.12-1.34-1.12a2.12,2.12,0,0,0-1.63.73l-.38-.57a2.78,2.78,0,0,1,2.12-.88c1.12,0,2.06.51,2.06,1.8v3.65h-.83Zm0-1.52a1.78,1.78,0,0,0-1.46-.66,1.17,1.17,0,1,0,0,2.33,1.78,1.78,0,0,0,1.46-.66Z"/><path class="cls-38" d="M727,302.91c0-.93-.48-1.23-1.19-1.23a2.05,2.05,0,0,0-1.57.82v3.89h-.83v-5.32h.83v.77a2.63,2.63,0,0,1,1.89-.9,1.51,1.51,0,0,1,1.69,1.72v3.73H727Z"/><path class="cls-38" d="M731.64,300.94a2.28,2.28,0,0,1,2,.93l-.55.5a1.59,1.59,0,0,0-1.36-.69,2.06,2.06,0,0,0,0,4.1,1.62,1.62,0,0,0,1.36-.69l.55.51a2.3,2.3,0,0,1-2,.92,2.79,2.79,0,0,1,0-5.58Z"/><path class="cls-38" d="M734.43,299.67a.56.56,0,1,1,1.12,0,.56.56,0,0,1-1.12,0Zm.15,1.4h.82v5.32h-.82Z"/><path class="cls-38" d="M740.47,302.91c0-.93-.47-1.23-1.18-1.23a2.09,2.09,0,0,0-1.58.82v3.89h-.82v-5.32h.82v.77a2.64,2.64,0,0,1,1.89-.9,1.51,1.51,0,0,1,1.7,1.72v3.73h-.83Z"/><path class="cls-38" d="M743.19,307.14a2.05,2.05,0,0,0,1.73.72,1.52,1.52,0,0,0,1.7-1.59v-.76a2.2,2.2,0,0,1-1.78.94c-1.39,0-2.37-1-2.37-2.75s1-2.76,2.37-2.76a2.18,2.18,0,0,1,1.78.94v-.81h.83v5.16c0,1.76-1.23,2.31-2.53,2.31a2.7,2.7,0,0,1-2.15-.79Zm3.43-4.6a2,2,0,0,0-1.58-.86c-1.07,0-1.71.85-1.71,2s.64,2,1.71,2a2,2,0,0,0,1.58-.87Z"/><path class="cls-39" d="M796.1,250.62a10.15,10.15,0,1,0,6.38,9.42,10.11,10.11,0,0,0-3.65-7.78h0l-8,12.12-4.32-5.73"/><path class="cls-39" d="M802,245.89l-2,.09h0l-4.86-3.73a4.12,4.12,0,0,0-5.16-.08L784.71,246l-2-.09c-3.84-.19-6.83-1.28-6.83,4s.71,13.79.71,13.79-.43,6.4,7,11.8c6.37,4.65,8.78,6.33,8.78,6.33h0s2.46-1.68,8.83-6.33c7.41-5.4,7-11.8,7-11.8s.72-8.53.72-13.79-3-4.17-6.84-4"/><path class="cls-38" d="M786.19,289.48l-1.61,5.92h-1l-2.1-7.33h1l1.63,6.11,1.68-6.11h.76l1.68,6.11,1.62-6.11h1l-2.09,7.33h-1Z"/><path class="cls-38" d="M795.85,293.78h-3.72l-.65,1.62h-1l2.95-7.33h1.13l3,7.33h-1ZM792.4,293h3.18L794,288.88Z"/><path class="cls-38" d="M798.3,288.07h4.81v.81h-3.89v2.37H803v.81h-3.81v3.34h-.92Z"/><rect x="721.05" y="219.3" width="74.55" height="18"/><path class="cls-33" d="M735.08,226.1v1.8h1.82v1.4h-1.82v2.5h-1.55v-7.1h3.67v1.4Z"/><path class="cls-33" d="M742.16,229.21V230a2.13,2.13,0,0,1-4.24,0v-.64h1.55v.75c0,.3.2.48.57.48s.57-.18.57-.48v-1c0-.28-.13-.45-.34-.45h-2.16v-4h3.78v1.4h-2.23v1.19h.63A1.82,1.82,0,0,1,742.16,229.21Z"/><path class="cls-33" d="M745.08,229.7v-.28h1.55v.44a.74.74,0,0,0,.83.73.68.68,0,0,0,.72-.69c0-1.27-3-1-3-3.27a2,2,0,0,1,2.22-2.08,1.94,1.94,0,0,1,2.21,2V227h-1.55v-.54c0-.31-.3-.49-.67-.49a.59.59,0,0,0-.65.6c0,1,3,.79,3,3.21a2.1,2.1,0,0,1-2.31,2.19A2.15,2.15,0,0,1,745.08,229.7Z"/><path class="cls-33" d="M752.17,226.1v1.55h1.72v1.4h-1.72v1.35h2.12v1.4h-3.67v-7.1h3.67v1.4Z"/><path class="cls-33" d="M757.41,229.24h-.74v2.56h-1.55v-7.1h2.36a2,2,0,0,1,2.12,1.94v.66a1.86,1.86,0,0,1-.71,1.5l.92,3h-1.62Zm-.74-1.4h.91a.44.44,0,0,0,.47-.47v-.8a.43.43,0,0,0-.46-.47h-.92Z"/><path class="cls-33" d="M765.27,224.7l-1.5,7.1h-2l-1.49-7.1h1.55l1,4.87,1-4.87Z"/><path class="cls-33" d="M766.06,224.7h1.55v7.1h-1.55Z"/><path class="cls-33" d="M768.53,229.93v-3.36a2.37,2.37,0,0,1,4.69,0v.89h-1.57v-.91c0-.36-.26-.6-.77-.6s-.8.24-.8.6V230c0,.36.27.6.79.6s.78-.24.78-.6V229h1.57v.89a2.37,2.37,0,0,1-4.69,0Z"/><path class="cls-33" d="M775.67,226.1v1.55h1.72v1.4h-1.72v1.35h2.12v1.4h-3.67v-7.1h3.67v1.4Z"/><path class="cls-33" d="M778.55,229.7v-.28h1.55v.44a.74.74,0,0,0,.83.73.68.68,0,0,0,.72-.69c0-1.27-3-1-3-3.27a2,2,0,0,1,2.22-2.08,1.94,1.94,0,0,1,2.21,2V227h-1.55v-.54c0-.31-.3-.49-.67-.49a.59.59,0,0,0-.65.6c0,1,3,.79,3,3.21A2.1,2.1,0,0,1,780.9,232,2.15,2.15,0,0,1,778.55,229.7Z"/><rect class="cls-43" x="367.07" y="227.76" width="176.87" height="86.09"/><polyline class="cls-39" points="436.07 256.98 440.82 262.49 436.07 267.99"/><path class="cls-39" d="M431.32,262.48c.13,9.18-14.39,9.18-14.25,0C416.93,253.3,431.45,253.3,431.32,262.48Z"/><path class="cls-39" d="M410.73,262.48c.08,5.1-8,5.1-7.91,0C402.74,257.38,410.81,257.38,410.73,262.48Z"/><line class="cls-39" x1="410.73" y1="262.48" x2="417.07" y2="262.48"/><line class="cls-39" x1="431.32" y1="262.48" x2="440.23" y2="262.48"/><polyline class="cls-39" points="421.91 247.21 428.69 244.5 432.41 250.73"/><line class="cls-39" x1="424.96" y1="255.41" x2="428.55" y2="244.94"/><polyline class="cls-39" points="421.93 277.8 428.71 280.5 432.43 274.27"/><line class="cls-39" x1="424.98" y1="269.59" x2="428.6" y2="280.1"/><path class="cls-39" d="M410.73,262.48c.08,5.1-8,5.1-7.91,0C402.74,257.38,410.81,257.38,410.73,262.48Z"/><path class="cls-38" d="M411.11,288.05H412v6.52h3.41v.82h-4.32Z"/><path class="cls-38" d="M416,292.73c-.19-3.63,5.46-3.63,5.26,0C421.43,296.36,415.79,296.36,416,292.73Zm4.39,0a1.78,1.78,0,1,0-3.53,0A1.78,1.78,0,1,0,420.37,292.73Z"/><path class="cls-38" d="M425.74,294.78a2.27,2.27,0,0,1-1.76.74,1.77,1.77,0,0,1-1.86-1.76A1.74,1.74,0,0,1,424,292a2.2,2.2,0,0,1,1.76.73v-1c0-.72-.57-1.12-1.34-1.12a2.12,2.12,0,0,0-1.63.73l-.39-.57a2.82,2.82,0,0,1,2.13-.88c1.12,0,2.06.51,2.06,1.8v3.65h-.83Zm0-1.52a1.78,1.78,0,0,0-1.46-.66,1.17,1.17,0,1,0,0,2.33,1.78,1.78,0,0,0,1.46-.66Z"/><path class="cls-38" d="M431.9,294.6a2.27,2.27,0,0,1-1.79.92c-1.39,0-2.37-1.06-2.37-2.78s1-2.8,2.37-2.8a2.21,2.21,0,0,1,1.79.94v-2.83h.83v7.34h-.83Zm0-3.06a2,2,0,0,0-1.6-.86c-1.06,0-1.7.88-1.7,2.06s.64,2,1.7,2a2,2,0,0,0,1.6-.83Z"/><path class="cls-38" d="M399.75,299.05H403a1.85,1.85,0,0,1,2.06,1.87,1.66,1.66,0,0,1-1.29,1.68,1.83,1.83,0,0,1,1.43,1.81,1.91,1.91,0,0,1-2.12,2h-3.34Zm3.11,3.18a1.14,1.14,0,0,0,1.27-1.18,1.16,1.16,0,0,0-1.27-1.19h-2.2v2.37Zm0,3.34a1.21,1.21,0,0,0,1.37-1.26A1.25,1.25,0,0,0,402.9,303h-2.24v2.53Z"/><path class="cls-38" d="M409.79,305.78a2.27,2.27,0,0,1-1.76.74,1.77,1.77,0,0,1-1.86-1.76A1.74,1.74,0,0,1,408,303a2.2,2.2,0,0,1,1.76.73v-1c0-.72-.57-1.12-1.34-1.12a2.12,2.12,0,0,0-1.63.73l-.39-.57a2.82,2.82,0,0,1,2.13-.88c1.12,0,2.06.51,2.06,1.8v3.65h-.83Zm0-1.52a1.78,1.78,0,0,0-1.46-.66,1.17,1.17,0,1,0,0,2.33,1.78,1.78,0,0,0,1.46-.66Z"/><path class="cls-38" d="M412.1,299.05h.83v7.34h-.83Z"/><path class="cls-38" d="M417.73,305.78a2.27,2.27,0,0,1-1.76.74,1.77,1.77,0,0,1-1.86-1.76A1.74,1.74,0,0,1,416,303a2.2,2.2,0,0,1,1.76.73v-1c0-.72-.57-1.12-1.34-1.12a2.13,2.13,0,0,0-1.63.73l-.38-.57a2.78,2.78,0,0,1,2.12-.88c1.12,0,2.06.51,2.06,1.8v3.65h-.83Zm0-1.52a1.78,1.78,0,0,0-1.46-.66,1.17,1.17,0,1,0,0,2.33,1.78,1.78,0,0,0,1.46-.66Z"/><path class="cls-38" d="M423.63,302.91c0-.93-.47-1.23-1.19-1.23a2.07,2.07,0,0,0-1.57.82v3.89H420v-5.32h.83v.77a2.63,2.63,0,0,1,1.89-.9,1.51,1.51,0,0,1,1.69,1.72v3.73h-.82Z"/><path class="cls-38" d="M428.28,300.94a2.28,2.28,0,0,1,2,.93l-.55.5a1.58,1.58,0,0,0-1.36-.69,2.06,2.06,0,0,0,0,4.1,1.6,1.6,0,0,0,1.36-.69l.55.51a2.3,2.3,0,0,1-2,.92,2.79,2.79,0,0,1,0-5.58Z"/><path class="cls-38" d="M431.07,299.67a.56.56,0,1,1,1.12,0,.56.56,0,0,1-1.12,0Zm.15,1.4H432v5.32h-.82Z"/><path class="cls-38" d="M437.11,302.91c0-.93-.47-1.23-1.18-1.23a2.09,2.09,0,0,0-1.58.82v3.89h-.82v-5.32h.82v.77a2.64,2.64,0,0,1,1.89-.9,1.51,1.51,0,0,1,1.7,1.72v3.73h-.83Z"/><path class="cls-38" d="M439.83,307.14a2.05,2.05,0,0,0,1.73.72,1.52,1.52,0,0,0,1.7-1.59v-.76a2.2,2.2,0,0,1-1.78.94c-1.39,0-2.36-1-2.36-2.75s1-2.76,2.36-2.76a2.18,2.18,0,0,1,1.78.94v-.81h.83v5.16c0,1.76-1.23,2.31-2.53,2.31a2.72,2.72,0,0,1-2.15-.79Zm3.43-4.6a2,2,0,0,0-1.58-.86c-1.07,0-1.71.85-1.71,2s.64,2,1.71,2a2,2,0,0,0,1.58-.87Z"/><rect x="419.3" y="219.3" width="71.32" height="18"/><path class="cls-33" d="M436.09,224.7v7.1h-1.36l-1.85-4v4h-1.35v-7.1h1.35l1.85,4.06V224.7Z"/><path class="cls-33" d="M440.15,227.26v-.71c0-.36-.33-.6-.79-.6s-.79.24-.79.6V230c0,.36.34.6.78.6s.8-.24.8-.6v-.6h-.81V228h2.36v2a2.37,2.37,0,0,1-4.68,0v-3.36a2.37,2.37,0,0,1,4.68,0v.69Z"/><path class="cls-33" d="M442.63,224.7h1.55v7.1h-1.55Z"/><path class="cls-33" d="M449.72,224.7v7.1h-1.36l-1.85-4v4h-1.35v-7.1h1.35l1.85,4.06V224.7Z"/><path class="cls-33" d="M454.09,228.32l1.78,3.48h-1.74l-1-1.92-.92,1.92h-1.65l1.71-3.6-1.78-3.5h1.73l1,2,1-2h1.68Z"/><path class="cls-33" d="M463.19,226.64v.91a2,2,0,0,1-2.11,1.95h-.82v2.3h-1.55v-7.1h2.36A2,2,0,0,1,463.19,226.64Zm-1.55-.07a.44.44,0,0,0-.46-.47h-.92v2h.91a.44.44,0,0,0,.47-.48Z"/><path class="cls-33" d="M467.71,230.4v1.4H464v-7.1h1.55v5.7Z"/><path class="cls-33" d="M468.44,229.93V224.7H470V230c0,.36.23.6.72.6s.73-.24.73-.6V224.7H473v5.23a2.29,2.29,0,0,1-4.55,0Z"/><path class="cls-33" d="M473.83,229.7v-.28h1.55v.44a.74.74,0,0,0,.83.73.68.68,0,0,0,.72-.69c0-1.27-3-1-3-3.27a2,2,0,0,1,2.22-2.08,1.94,1.94,0,0,1,2.21,2V227h-1.55v-.54c0-.31-.3-.49-.67-.49a.59.59,0,0,0-.65.6c0,1,3,.79,3,3.21a2.1,2.1,0,0,1-2.31,2.19A2.15,2.15,0,0,1,473.83,229.7Z"/><path class="cls-39" d="M492.74,250.62c-15-5.45-19.8,19-3.8,19.57,9.3.33,13.75-12.34,6.53-17.93h0l-8,12.12-4.31-5.73"/><path class="cls-39" d="M498.64,245.89l-2,.09h0c-7.37-6.29-7.85-5.81-15.25,0-4,.2-9-2.32-8.87,3.89,0,5.26.71,13.79.71,13.79s-.43,6.4,7,11.8c6.37,4.65,8.78,6.33,8.78,6.33h0c4.15-2.59,17.23-11.45,15.81-18.13,0,0,.72-8.53.72-13.79s-3-4.17-6.84-4"/><path class="cls-38" d="M482.83,289.48l-1.61,5.92h-1l-2.08-7.33h1l1.63,6.11,1.68-6.11h.76l1.68,6.11,1.62-6.11h1l-2.09,7.33h-1Z"/><path class="cls-38" d="M492.49,293.78h-3.72l-.65,1.62h-1l2.95-7.33h1.13l3,7.33h-1ZM489,293h3.18l-1.59-4.08Z"/><path class="cls-38" d="M494.94,288.07h4.81v.81h-3.89v2.37h3.81v.81h-3.81v3.34h-.92Z"/><rect class="cls-43" x="65.17" y="227.76" width="176.87" height="86.09"/><polyline class="cls-39" points="134.17 256.98 138.92 262.49 134.17 267.99"/><ellipse class="cls-39" cx="122.29" cy="262.48" rx="7.12" ry="7.07"/><ellipse class="cls-39" cx="104.88" cy="262.48" rx="3.96" ry="3.93"/><line class="cls-39" x1="108.84" y1="262.48" x2="115.17" y2="262.48"/><line class="cls-39" x1="129.42" y1="262.48" x2="138.33" y2="262.48"/><polyline class="cls-39" points="120.01 247.21 126.79 244.5 130.51 250.73"/><line class="cls-39" x1="123.06" y1="255.41" x2="126.65" y2="244.94"/><polyline class="cls-39" points="120.03 277.8 126.81 280.5 130.53 274.27"/><line class="cls-39" x1="123.09" y1="269.59" x2="126.7" y2="280.1"/><ellipse class="cls-39" cx="104.88" cy="262.48" rx="3.96" ry="3.93"/><path class="cls-38" d="M109.21,288.05h.92v6.52h3.41v.82h-4.33Z"/><path class="cls-38" d="M114.09,292.73c-.2-3.63,5.45-3.63,5.25,0C119.54,296.36,113.89,296.36,114.09,292.73Zm4.38,0a1.78,1.78,0,1,0-3.53,0A1.78,1.78,0,1,0,118.47,292.73Z"/><path class="cls-38" d="M123.84,294.78a2.27,2.27,0,0,1-1.76.74,1.77,1.77,0,0,1-1.86-1.76,1.74,1.74,0,0,1,1.86-1.75,2.2,2.2,0,0,1,1.76.73v-1c0-.72-.57-1.12-1.34-1.12a2.13,2.13,0,0,0-1.63.73l-.38-.57a2.78,2.78,0,0,1,2.12-.88c1.12,0,2.06.51,2.06,1.8v3.65h-.83Zm0-1.52a1.78,1.78,0,0,0-1.46-.66,1.17,1.17,0,1,0,0,2.33,1.78,1.78,0,0,0,1.46-.66Z"/><path class="cls-38" d="M130,294.6a2.24,2.24,0,0,1-1.79.92c-1.39,0-2.37-1.06-2.37-2.78s1-2.8,2.37-2.8a2.21,2.21,0,0,1,1.79.94v-2.83h.83v7.34H130Zm0-3.06a2,2,0,0,0-1.59-.86c-1.07,0-1.71.88-1.71,2.06s.64,2,1.71,2A2,2,0,0,0,130,294Z"/><path class="cls-38" d="M97.85,299.05h3.27a1.85,1.85,0,0,1,2,1.87,1.66,1.66,0,0,1-1.28,1.68,1.84,1.84,0,0,1,1.43,1.81,1.91,1.91,0,0,1-2.13,2H97.85Zm3.11,3.18a1.14,1.14,0,0,0,1.27-1.18,1.16,1.16,0,0,0-1.27-1.19h-2.2v2.37Zm.05,3.34a1.21,1.21,0,0,0,1.36-1.26A1.25,1.25,0,0,0,101,303H98.76v2.53Z"/><path class="cls-38" d="M107.89,305.78a2.27,2.27,0,0,1-1.76.74,1.77,1.77,0,0,1-1.86-1.76,1.74,1.74,0,0,1,1.86-1.75,2.2,2.2,0,0,1,1.76.73v-1c0-.72-.57-1.12-1.34-1.12a2.13,2.13,0,0,0-1.63.73l-.38-.57a2.78,2.78,0,0,1,2.12-.88c1.12,0,2.06.51,2.06,1.8v3.65h-.83Zm0-1.52a1.78,1.78,0,0,0-1.46-.66,1.17,1.17,0,1,0,0,2.33,1.78,1.78,0,0,0,1.46-.66Z"/><path class="cls-38" d="M110.2,299.05H111v7.34h-.83Z"/><path class="cls-38" d="M115.83,305.78a2.27,2.27,0,0,1-1.76.74,1.76,1.76,0,0,1-1.85-1.76,1.73,1.73,0,0,1,1.85-1.75,2.19,2.19,0,0,1,1.76.73v-1c0-.72-.57-1.12-1.34-1.12a2.13,2.13,0,0,0-1.63.73l-.38-.57a2.78,2.78,0,0,1,2.12-.88c1.12,0,2.06.51,2.06,1.8v3.65h-.83Zm0-1.52a1.77,1.77,0,0,0-1.46-.66,1.17,1.17,0,1,0,0,2.33,1.77,1.77,0,0,0,1.46-.66Z"/><path class="cls-38" d="M121.73,302.91c0-.93-.47-1.23-1.19-1.23a2.07,2.07,0,0,0-1.57.82v3.89h-.83v-5.32H119v.77a2.63,2.63,0,0,1,1.89-.9,1.52,1.52,0,0,1,1.7,1.72v3.73h-.83Z"/><path class="cls-38" d="M126.38,300.94a2.28,2.28,0,0,1,2,.93l-.55.5a1.57,1.57,0,0,0-1.35-.69,2.06,2.06,0,0,0,0,4.1,1.6,1.6,0,0,0,1.35-.69l.55.51a2.3,2.3,0,0,1-2,.92,2.79,2.79,0,0,1,0-5.58Z"/><path class="cls-38" d="M129.18,299.67a.57.57,0,0,1,.55-.57.57.57,0,0,1,.56.57.56.56,0,0,1-.56.55A.55.55,0,0,1,129.18,299.67Zm.14,1.4h.83v5.32h-.83Z"/><path class="cls-38" d="M135.22,302.91c0-.93-.48-1.23-1.19-1.23a2.05,2.05,0,0,0-1.57.82v3.89h-.83v-5.32h.83v.77a2.63,2.63,0,0,1,1.89-.9,1.51,1.51,0,0,1,1.69,1.72v3.73h-.82Z"/><path class="cls-38" d="M137.93,307.14a2.05,2.05,0,0,0,1.73.72,1.52,1.52,0,0,0,1.71-1.59v-.76a2.23,2.23,0,0,1-1.79.94c-1.38,0-2.36-1-2.36-2.75s1-2.76,2.36-2.76a2.2,2.2,0,0,1,1.79.94v-.81h.82v5.16c0,1.76-1.23,2.31-2.53,2.31a2.72,2.72,0,0,1-2.15-.79Zm3.44-4.6a2,2,0,0,0-1.59-.86c-1.07,0-1.7.85-1.7,2s.63,2,1.7,2a2,2,0,0,0,1.59-.87Z"/><rect x="115.79" y="219.3" width="74.55" height="18"/><path class="cls-33" d="M129.83,226.1v1.8h1.82v1.4h-1.82v2.5h-1.55v-7.1H132v1.4Z"/><path class="cls-33" d="M136.9,229.21V230a2.13,2.13,0,0,1-4.24,0v-.64h1.55v.75c0,.3.2.48.57.48s.57-.18.57-.48v-1c0-.28-.13-.45-.34-.45h-2.16v-4h3.78v1.4H134.4v1.19H135A1.82,1.82,0,0,1,136.9,229.21Z"/><path class="cls-33" d="M139.82,229.7v-.28h1.55v.44a.74.74,0,0,0,.83.73.68.68,0,0,0,.72-.69c0-1.27-3-1-3-3.27a2,2,0,0,1,2.22-2.08,1.94,1.94,0,0,1,2.21,2V227h-1.55v-.54c0-.31-.3-.49-.67-.49a.59.59,0,0,0-.65.6c0,1,3,.79,3,3.21a2.1,2.1,0,0,1-2.31,2.19A2.15,2.15,0,0,1,139.82,229.7Z"/><path class="cls-33" d="M146.91,226.1v1.55h1.72v1.4h-1.72v1.35H149v1.4h-3.67v-7.1H149v1.4Z"/><path class="cls-33" d="M152.15,229.24h-.74v2.56h-1.55v-7.1h2.36a2,2,0,0,1,2.12,1.94v.66a1.86,1.86,0,0,1-.71,1.5l.92,3h-1.62Zm-.74-1.4h.91a.44.44,0,0,0,.47-.47v-.8a.43.43,0,0,0-.46-.47h-.92Z"/><path class="cls-33" d="M160,224.7l-1.5,7.1h-2L155,224.7h1.55l1,4.87,1-4.87Z"/><path class="cls-33" d="M160.81,224.7h1.54v7.1h-1.54Z"/><path class="cls-33" d="M163.28,229.93v-3.36a2.37,2.37,0,0,1,4.69,0v.89H166.4v-.91c0-.36-.26-.6-.77-.6s-.8.24-.8.6V230c0,.36.27.6.79.6s.78-.24.78-.6V229H168v.89a2.37,2.37,0,0,1-4.69,0Z"/><path class="cls-33" d="M170.41,226.1v1.55h1.72v1.4h-1.72v1.35h2.12v1.4h-3.67v-7.1h3.67v1.4Z"/><path class="cls-33" d="M173.29,229.7v-.28h1.55v.44a.74.74,0,0,0,.83.73.68.68,0,0,0,.72-.69c0-1.27-3-1-3-3.27a2,2,0,0,1,2.22-2.08,1.94,1.94,0,0,1,2.21,2V227H176.3v-.54c0-.31-.3-.49-.67-.49a.59.59,0,0,0-.65.6c0,1,3,.79,3,3.21a2.1,2.1,0,0,1-2.31,2.19A2.15,2.15,0,0,1,173.29,229.7Z"/><path class="cls-39" d="M190.84,250.62a10.15,10.15,0,1,0,6.38,9.42,10.11,10.11,0,0,0-3.65-7.78h0l-8,12.12-4.31-5.73"/><path class="cls-39" d="M196.74,245.89l-2,.09h0l-4.86-3.73a4.12,4.12,0,0,0-5.16-.08L179.45,246l-2-.09c-3.85-.19-6.84-1.28-6.84,4s.71,13.79.71,13.79-.43,6.4,7,11.8c6.37,4.65,8.78,6.33,8.78,6.33h0s2.46-1.68,8.84-6.33c7.4-5.4,7-11.8,7-11.8s.71-8.53.71-13.79-3-4.17-6.84-4"/><text class="cls-45" transform="translate(176.08 295.4)">W<tspan class="cls-46" x="9.03" y="0">AF</tspan></text><rect class="cls-35" x="636.94" y="338.32" width="116" height="127.85"/><rect x="662.4" y="329.32" width="65.09" height="18"/><path class="cls-33" d="M678.49,339.44v.41a1.93,1.93,0,0,1-2,2H674v-7.1h2.31a1.86,1.86,0,0,1,2,1.77V337a1.51,1.51,0,0,1-.53,1.12A1.68,1.68,0,0,1,678.49,339.44Zm-2.93-3.37v1.48h.84c.23,0,.41-.22.41-.53v-.5a.43.43,0,0,0-.4-.45Zm1.38,3.35c0-.3-.16-.53-.41-.53h-1v1.58h1c.26,0,.42-.25.42-.55Z"/><path class="cls-33" d="M683,340.42v1.4h-3.69v-7.1h1.55v5.7Z"/><path class="cls-33" d="M683.75,340v-5.23h1.55V340c0,.36.23.6.72.6s.73-.24.73-.6v-5.25h1.55V340a2.29,2.29,0,0,1-4.55,0Z"/><path class="cls-33" d="M690.8,336.12v1.55h1.72v1.4H690.8v1.35h2.12v1.4h-3.67v-7.1h3.67v1.4Z"/><path class="cls-33" d="M700.33,334.72v7.1H699l-1.85-4v4h-1.35v-7.1h1.35l1.85,4.06v-4.06Z"/><path class="cls-33" d="M701.26,340v-3.36a2.38,2.38,0,0,1,4.71,0V340a2.38,2.38,0,0,1-4.71,0Zm3.17,0v-3.4c0-.36-.25-.6-.8-.6s-.82.24-.82.6V340c0,.36.24.6.81.6S704.43,340.33,704.43,340Z"/><path class="cls-33" d="M711.48,336.74v3.06a2.05,2.05,0,0,1-2.27,2h-2.3v-7.1h2.29A2.06,2.06,0,0,1,711.48,336.74Zm-1.55,0a.57.57,0,0,0-.62-.6h-.85v4.3h.84a.57.57,0,0,0,.63-.6Z"/><path class="cls-33" d="M714,336.12v1.55h1.72v1.4H714v1.35h2.11v1.4H712.4v-7.1h3.66v1.4Z"/><rect class="cls-35" x="764.79" y="338.32" width="116" height="127.85"/><rect x="786.77" y="329.32" width="72.04" height="18"/><path class="cls-33" d="M802,337.28v-.71c0-.36-.33-.6-.79-.6s-.8.24-.8.6V340c0,.36.34.6.79.6s.8-.24.8-.6v-.6h-.81V338h2.36v2a2.37,2.37,0,0,1-4.69,0v-3.36a2.37,2.37,0,0,1,4.69,0v.69Z"/><path class="cls-33" d="M806.74,339.26H806v2.56h-1.55v-7.1h2.36a2,2,0,0,1,2.12,1.94v.66a1.86,1.86,0,0,1-.71,1.5l.92,3h-1.62Zm-.74-1.4h.91a.44.44,0,0,0,.47-.47v-.8a.43.43,0,0,0-.46-.47H806Z"/><path class="cls-33" d="M811.53,336.12v1.55h1.72v1.4h-1.72v1.35h2.12v1.4H810v-7.1h3.67v1.4Z"/><path class="cls-33" d="M816,336.12v1.55h1.72v1.4H816v1.35h2.12v1.4h-3.67v-7.1h3.67v1.4Z"/><path class="cls-33" d="M823.54,334.72v7.1h-1.36l-1.85-4v4H819v-7.1h1.35l1.85,4.06v-4.06Z"/><path class="cls-33" d="M831.13,334.72v7.1h-1.36l-1.85-4v4h-1.35v-7.1h1.35l1.85,4.06v-4.06Z"/><path class="cls-33" d="M832.06,340v-3.36a2.38,2.38,0,0,1,4.71,0V340a2.38,2.38,0,0,1-4.71,0Zm3.16,0v-3.4c0-.36-.24-.6-.79-.6s-.82.24-.82.6V340c0,.36.23.6.81.6S835.22,340.33,835.22,340Z"/><path class="cls-33" d="M842.28,336.74v3.06a2.05,2.05,0,0,1-2.27,2h-2.3v-7.1H840A2.06,2.06,0,0,1,842.28,336.74Zm-1.55,0a.57.57,0,0,0-.62-.6h-.85v4.3h.84a.57.57,0,0,0,.63-.6Z"/><path class="cls-33" d="M844.75,336.12v1.55h1.71v1.4h-1.71v1.35h2.11v1.4H843.2v-7.1h3.66v1.4Z"/><path class="cls-36" d="M813.94,460.34h-2.68l-.38,1h-1.4l2.32-6h1.6l2.31,6h-1.39Zm-2.34-1.11h2l-1-2.76Z"/><path class="cls-36" d="M818.38,456.92a2,2,0,0,1,1.72.78l-.75.7a1,1,0,0,0-.92-.47,1.27,1.27,0,0,0,0,2.53,1.11,1.11,0,0,0,.92-.46l.75.69a2,2,0,0,1-1.72.79,2.28,2.28,0,1,1,0-4.56Z"/><path class="cls-36" d="M821.41,460.29V458h-.72v-1h.72v-1.18h1.15V457h.88v1h-.88v2a.42.42,0,0,0,.4.47.62.62,0,0,0,.39-.12l.25.86a1.44,1.44,0,0,1-1,.28A1.08,1.08,0,0,1,821.41,460.29Z"/><path class="cls-36" d="M824.32,455.78a.69.69,0,0,1,.69-.68.67.67,0,0,1,.68.68.68.68,0,0,1-.68.69A.7.7,0,0,1,824.32,455.78Zm.12,1.24h1.14v4.35h-1.14Z"/><path class="cls-36" d="M826.31,457h1.22l1.14,3,1.13-3H831l-1.75,4.35h-1.24Z"/><path class="cls-36" d="M833.58,456.92a2.18,2.18,0,0,1,2.18,2.39v.25h-3.24a1.19,1.19,0,0,0,1.26,1,1.79,1.79,0,0,0,1.16-.43l.5.74a2.72,2.72,0,0,1-1.79.6,2.28,2.28,0,1,1-.07-4.56Zm-1.07,1.87h2.14a1,1,0,0,0-1.07-1A1,1,0,0,0,832.51,458.79Z"/><line class="cls-37" x1="853.23" y1="451.08" x2="792.35" y2="451.08"/><line class="cls-37" x1="822.53" y1="446.17" x2="822.53" y2="451.07"/><line class="cls-1" x1="824.08" y1="393.03" x2="824.08" y2="399.7"/><polygon class="cls-39" points="817.09 379.89 817.09 365.92 805.01 358.94 792.94 365.92 792.94 379.89 805.01 386.87 817.09 379.89"/><polyline class="cls-39" points="796.56 377.06 796.56 368.85 803.97 377.06 803.97 368.85"/><line class="cls-39" x1="810.75" y1="376.06" x2="810.75" y2="369.85"/><line class="cls-39" x1="807.65" y1="372.96" x2="813.86" y2="372.96"/><polygon class="cls-39" points="852.64 379.89 852.64 365.92 840.57 358.94 828.5 365.92 828.5 379.89 840.57 386.87 852.64 379.89"/><polyline class="cls-39" points="832.12 377.06 832.12 368.85 839.52 377.06 839.52 368.85"/><line class="cls-39" x1="846.31" y1="376.06" x2="846.31" y2="369.85"/><line class="cls-39" x1="843.2" y1="372.96" x2="849.41" y2="372.96"/><rect class="cls-42" x="782.98" y="353.16" width="79.62" height="39.49"/><polygon class="cls-39" points="817.09 426.27 817.09 412.31 805.01 405.33 792.94 412.31 792.94 426.27 805.01 433.25 817.09 426.27"/><polyline class="cls-39" points="796.56 423.45 796.56 415.24 803.97 423.45 803.97 415.24"/><line class="cls-39" x1="810.75" y1="422.45" x2="810.75" y2="416.24"/><line class="cls-39" x1="807.65" y1="419.34" x2="813.86" y2="419.34"/><polygon class="cls-39" points="852.64 426.27 852.64 412.31 840.57 405.33 828.5 412.31 828.5 426.27 840.57 433.25 852.64 426.27"/><polyline class="cls-39" points="832.12 423.45 832.12 415.24 839.52 423.45 839.52 415.24"/><line class="cls-39" x1="846.31" y1="422.45" x2="846.31" y2="416.24"/><line class="cls-39" x1="843.2" y1="419.34" x2="849.41" y2="419.34"/><rect class="cls-42" x="782.98" y="399.55" width="79.62" height="39.49"/><line class="cls-1" x1="696.23" y1="393.03" x2="696.23" y2="399.7"/><polygon class="cls-39" points="689.24 379.89 689.24 365.92 677.17 358.94 665.09 365.92 665.09 379.89 677.17 386.87 689.24 379.89"/><polyline class="cls-39" points="668.72 377.06 668.72 368.85 676.12 377.06 676.12 368.85"/><line class="cls-39" x1="682.91" y1="376.06" x2="682.91" y2="369.85"/><line class="cls-39" x1="679.8" y1="372.96" x2="686.01" y2="372.96"/><polygon class="cls-39" points="724.8 379.89 724.8 365.92 712.72 358.94 700.65 365.92 700.65 379.89 712.72 386.87 724.8 379.89"/><polyline class="cls-39" points="704.27 377.06 704.27 368.85 711.68 377.06 711.68 368.85"/><line class="cls-39" x1="718.46" y1="376.06" x2="718.46" y2="369.85"/><line class="cls-39" x1="715.35" y1="372.96" x2="721.57" y2="372.96"/><rect class="cls-42" x="655.14" y="353.16" width="79.62" height="39.49"/><polygon class="cls-39" points="689.24 426.27 689.24 412.31 677.17 405.33 665.09 412.31 665.09 426.27 677.17 433.25 689.24 426.27"/><polyline class="cls-39" points="668.72 423.45 668.72 415.24 676.12 423.45 676.12 415.24"/><line class="cls-39" x1="682.91" y1="422.45" x2="682.91" y2="416.24"/><line class="cls-39" x1="679.8" y1="419.34" x2="686.01" y2="419.34"/><polygon class="cls-39" points="724.8 426.27 724.8 412.31 712.72 405.33 700.65 412.31 700.65 426.27 712.72 433.25 724.8 426.27"/><polyline class="cls-39" points="704.27 423.45 704.27 415.24 711.68 423.45 711.68 415.24"/><line class="cls-39" x1="718.46" y1="422.45" x2="718.46" y2="416.24"/><line class="cls-39" x1="715.35" y1="419.34" x2="721.57" y2="419.34"/><rect class="cls-42" x="655.14" y="399.55" width="79.62" height="39.49"/><rect class="cls-35" x="31.69" y="338.32" width="116" height="127.85"/><rect x="57.14" y="329.32" width="65.09" height="18"/><path class="cls-33" d="M73.24,339.44v.41a1.93,1.93,0,0,1-2,2H68.76v-7.1h2.31a1.86,1.86,0,0,1,2,1.77V337a1.51,1.51,0,0,1-.53,1.12A1.68,1.68,0,0,1,73.24,339.44Zm-2.93-3.37v1.48h.84c.23,0,.41-.22.41-.53v-.5a.43.43,0,0,0-.4-.45Zm1.38,3.35c0-.3-.16-.53-.41-.53h-1v1.58h1c.26,0,.42-.25.42-.55Z"/><path class="cls-33" d="M77.77,340.42v1.4H74.08v-7.1h1.55v5.7Z"/><path class="cls-33" d="M78.5,340v-5.23h1.55V340c0,.36.23.6.72.6s.73-.24.73-.6v-5.25h1.55V340a2.29,2.29,0,0,1-4.55,0Z"/><path class="cls-33" d="M85.54,336.12v1.55h1.72v1.4H85.54v1.35h2.12v1.4H84v-7.1h3.67v1.4Z"/><path class="cls-33" d="M95.07,334.72v7.1H93.71l-1.85-4v4H90.51v-7.1h1.35l1.85,4.06v-4.06Z"/><path class="cls-33" d="M96,340v-3.36a2.39,2.39,0,0,1,4.72,0V340A2.39,2.39,0,0,1,96,340Zm3.17,0v-3.4c0-.36-.24-.6-.8-.6s-.82.24-.82.6V340c0,.36.24.6.81.6S99.17,340.33,99.17,340Z"/><path class="cls-33" d="M106.22,336.74v3.06a2.05,2.05,0,0,1-2.27,2h-2.29v-7.1H104A2.06,2.06,0,0,1,106.22,336.74Zm-1.55,0a.57.57,0,0,0-.62-.6h-.84v4.3H104a.57.57,0,0,0,.63-.6Z"/><path class="cls-33" d="M108.69,336.12v1.55h1.72v1.4h-1.72v1.35h2.12v1.4h-3.67v-7.1h3.67v1.4Z"/><rect class="cls-35" x="159.53" y="338.32" width="116" height="127.85"/><rect x="181.51" y="329.32" width="72.04" height="18"/><path class="cls-33" d="M196.72,337.28v-.71c0-.36-.33-.6-.79-.6s-.8.24-.8.6V340c0,.36.34.6.79.6s.8-.24.8-.6v-.6h-.81V338h2.36v2a2.37,2.37,0,0,1-4.69,0v-3.36a2.37,2.37,0,0,1,4.69,0v.69Z"/><path class="cls-33" d="M201.48,339.26h-.74v2.56H199.2v-7.1h2.35a2,2,0,0,1,2.12,1.94v.66a1.86,1.86,0,0,1-.71,1.5l.92,3h-1.62Zm-.74-1.4h.91a.44.44,0,0,0,.47-.47v-.8a.43.43,0,0,0-.46-.47h-.92Z"/><path class="cls-33" d="M206.27,336.12v1.55H208v1.4h-1.72v1.35h2.12v1.4h-3.67v-7.1h3.67v1.4Z"/><path class="cls-33" d="M210.77,336.12v1.55h1.72v1.4h-1.72v1.35h2.12v1.4h-3.67v-7.1h3.67v1.4Z"/><path class="cls-33" d="M218.28,334.72v7.1h-1.36l-1.85-4v4h-1.35v-7.1h1.35l1.85,4.06v-4.06Z"/><path class="cls-33" d="M225.87,334.72v7.1h-1.36l-1.85-4v4h-1.35v-7.1h1.35l1.85,4.06v-4.06Z"/><path class="cls-33" d="M226.8,340v-3.36a2.39,2.39,0,0,1,4.72,0V340a2.39,2.39,0,0,1-4.72,0Zm3.17,0v-3.4c0-.36-.24-.6-.8-.6s-.82.24-.82.6V340c0,.36.24.6.81.6S230,340.33,230,340Z"/><path class="cls-33" d="M237,336.74v3.06a2.05,2.05,0,0,1-2.27,2h-2.3v-7.1h2.29A2.06,2.06,0,0,1,237,336.74Zm-1.55,0a.57.57,0,0,0-.62-.6H234v4.3h.84a.57.57,0,0,0,.63-.6Z"/><path class="cls-33" d="M239.49,336.12v1.55h1.72v1.4h-1.72v1.35h2.12v1.4h-3.67v-7.1h3.67v1.4Z"/><path class="cls-36" d="M208.68,460.34H206l-.38,1h-1.4l2.32-6h1.6l2.32,6h-1.4Zm-2.34-1.11h2l-1-2.76Z"/><path class="cls-36" d="M213.12,456.92a2,2,0,0,1,1.72.78l-.75.7a1,1,0,0,0-.91-.47,1.27,1.27,0,0,0,0,2.53,1.09,1.09,0,0,0,.91-.46l.75.69a2,2,0,0,1-1.72.79,2.28,2.28,0,1,1,0-4.56Z"/><path class="cls-36" d="M216.15,460.29V458h-.72v-1h.72v-1.18h1.15V457h.89v1h-.89v2a.42.42,0,0,0,.4.47.68.68,0,0,0,.4-.12l.24.86a1.43,1.43,0,0,1-1,.28A1.09,1.09,0,0,1,216.15,460.29Z"/><path class="cls-36" d="M219.07,455.78a.68.68,0,1,1,.68.69A.69.69,0,0,1,219.07,455.78Zm.11,1.24h1.15v4.35h-1.15Z"/><path class="cls-36" d="M221.05,457h1.23l1.13,3,1.13-3h1.24L224,461.37H222.8Z"/><path class="cls-36" d="M228.32,456.92a2.18,2.18,0,0,1,2.18,2.39v.25h-3.23a1.17,1.17,0,0,0,1.25,1,1.79,1.79,0,0,0,1.16-.43l.5.74a2.72,2.72,0,0,1-1.79.6,2.28,2.28,0,1,1-.07-4.56Zm-1.07,1.87h2.14a1,1,0,0,0-1.07-1A1,1,0,0,0,227.25,458.79Z"/><line class="cls-37" x1="247.98" y1="451.08" x2="187.09" y2="451.08"/><line class="cls-37" x1="217.28" y1="446.17" x2="217.28" y2="451.07"/><line class="cls-1" x1="218.82" y1="393.03" x2="218.82" y2="399.7"/><polygon class="cls-39" points="211.83 379.89 211.83 365.92 199.76 358.94 187.68 365.92 187.68 379.89 199.76 386.87 211.83 379.89"/><polyline class="cls-39" points="191.3 377.06 191.3 368.85 198.71 377.06 198.71 368.85"/><line class="cls-39" x1="205.49" y1="376.06" x2="205.49" y2="369.85"/><line class="cls-39" x1="202.39" y1="372.96" x2="208.6" y2="372.96"/><polygon class="cls-39" points="247.38 379.89 247.38 365.92 235.31 358.94 223.24 365.92 223.24 379.89 235.31 386.87 247.38 379.89"/><polyline class="cls-39" points="226.86 377.06 226.86 368.85 234.27 377.06 234.27 368.85"/><line class="cls-39" x1="241.05" y1="376.06" x2="241.05" y2="369.85"/><line class="cls-39" x1="237.94" y1="372.96" x2="244.16" y2="372.96"/><rect class="cls-42" x="177.73" y="353.16" width="79.62" height="39.49"/><polygon class="cls-39" points="211.83 426.27 211.83 412.31 199.76 405.33 187.68 412.31 187.68 426.27 199.76 433.25 211.83 426.27"/><polyline class="cls-39" points="191.3 423.45 191.3 415.24 198.71 423.45 198.71 415.24"/><line class="cls-39" x1="205.49" y1="422.45" x2="205.49" y2="416.24"/><line class="cls-39" x1="202.39" y1="419.34" x2="208.6" y2="419.34"/><polygon class="cls-39" points="247.38 426.27 247.38 412.31 235.31 405.33 223.24 412.31 223.24 426.27 235.31 433.25 247.38 426.27"/><polyline class="cls-39" points="226.86 423.45 226.86 415.24 234.27 423.45 234.27 415.24"/><line class="cls-39" x1="241.05" y1="422.45" x2="241.05" y2="416.24"/><line class="cls-39" x1="237.94" y1="419.34" x2="244.16" y2="419.34"/><rect class="cls-42" x="177.73" y="399.55" width="79.62" height="39.49"/><line class="cls-1" x1="90.98" y1="393.03" x2="90.98" y2="399.7"/><polygon class="cls-39" points="83.98 379.89 83.98 365.92 71.91 358.94 59.84 365.92 59.84 379.89 71.91 386.87 83.98 379.89"/><polyline class="cls-39" points="63.46 377.06 63.46 368.85 70.86 377.06 70.86 368.85"/><line class="cls-39" x1="77.65" y1="376.06" x2="77.65" y2="369.85"/><line class="cls-39" x1="74.54" y1="372.96" x2="80.75" y2="372.96"/><polygon class="cls-39" points="119.54 379.89 119.54 365.92 107.47 358.94 95.39 365.92 95.39 379.89 107.47 386.87 119.54 379.89"/><polyline class="cls-39" points="99.01 377.06 99.01 368.85 106.42 377.06 106.42 368.85"/><line class="cls-39" x1="113.2" y1="376.06" x2="113.2" y2="369.85"/><line class="cls-39" x1="110.1" y1="372.96" x2="116.31" y2="372.96"/><rect class="cls-42" x="49.88" y="353.16" width="79.62" height="39.49"/><polygon class="cls-39" points="83.98 426.27 83.98 412.31 71.91 405.33 59.84 412.31 59.84 426.27 71.91 433.25 83.98 426.27"/><polyline class="cls-39" points="63.46 423.45 63.46 415.24 70.86 423.45 70.86 415.24"/><line class="cls-39" x1="77.65" y1="422.45" x2="77.65" y2="416.24"/><line class="cls-39" x1="74.54" y1="419.34" x2="80.75" y2="419.34"/><polygon class="cls-39" points="119.54 426.27 119.54 412.31 107.47 405.33 95.39 412.31 95.39 426.27 107.47 433.25 119.54 426.27"/><polyline class="cls-39" points="99.01 423.45 99.01 415.24 106.42 423.45 106.42 415.24"/><line class="cls-39" x1="113.2" y1="422.45" x2="113.2" y2="416.24"/><line class="cls-39" x1="110.1" y1="419.34" x2="116.31" y2="419.34"/><rect class="cls-42" x="49.88" y="399.55" width="79.62" height="39.49"/></g></g></svg>