<svg xmlns="http://www.w3.org/2000/svg" viewBox="0 0 448.93 368.77"><defs><style>.cls-1,.cls-9{fill:#fff;}.cls-2{fill:#f1f1f1;}.cls-2,.cls-7,.cls-9{stroke:#000;}.cls-2,.cls-3,.cls-8,.cls-9{stroke-miterlimit:10;}.cls-3,.cls-4,.cls-6,.cls-7,.cls-8{fill:none;}.cls-3{stroke:#2bad4a;}.cls-4{stroke:#2aa9e0;}.cls-4,.cls-7,.cls-8{stroke-linecap:round;}.cls-4,.cls-7{stroke-linejoin:round;}.cls-5{fill:#231f1f;}.cls-8{stroke:#343434;}.cls-10{fill:#010101;}.cls-11{fill:#999;}</style></defs><g id="Layer_2" data-name="Layer 2"><g id="Layer_1-2" data-name="Layer 1"><rect class="cls-1" width="448.93" height="368.77"/><polygon class="cls-2" points="432.5 269.64 17.11 271.38 17.11 121.42 432.5 119.68 432.5 269.64"/><line class="cls-3" x1="120.17" y1="33.22" x2="46.16" y2="33.22"/><line class="cls-3" x1="210.7" y1="33.22" x2="146.62" y2="33.22"/><line class="cls-3" x1="310.56" y1="33.22" x2="238.64" y2="33.22"/><line class="cls-3" x1="391.51" y1="33.22" x2="319.6" y2="33.22"/><line class="cls-4" x1="224.81" y1="114.58" x2="224.81" y2="86.84"/><path class="cls-5" d="M392.89,62.88h-1.17v2.34H391V59.34h2.36c2.27-.19,2.43,3.41.32,3.48l1.59,2.4h-.87Zm.37-2.89h-1.54v2.25h1.54A1.13,1.13,0,1,0,393.26,60Z"/><path class="cls-5" d="M397.82,60.85a2.12,2.12,0,0,1,2.05,2.46h-3.45a1.64,1.64,0,0,0,2.85.93l.32.43C396.53,67.51,393.7,61.22,397.82,60.85Zm-1.4,2h2.8C399.35,61,396.35,61,396.42,62.82Z"/><path class="cls-5" d="M402.73,60.85a1.84,1.84,0,0,1,1.56.74l-.44.41c-3.29-2.72-3.29,4.89,0,2.18l.44.4C401.43,67.65,398.57,61.05,402.73,60.85Z"/><path class="cls-5" d="M404.88,63.08c-.16-2.9,4.37-2.9,4.21,0C409.25,66,404.72,66,404.88,63.08Zm3.52,0a1.43,1.43,0,1,0-2.83,0A1.43,1.43,0,1,0,408.4,63.08Z"/><path class="cls-5" d="M409.45,61h.71l1.42,3.49L413,61h.72l-1.77,4.26h-.72Z"/><path class="cls-5" d="M416.17,60.85a2.12,2.12,0,0,1,2,2.46h-3.45a1.64,1.64,0,0,0,2.85.93l.32.43C414.87,67.51,412,61.22,416.17,60.85Zm-1.41,2h2.8C417.7,61,414.69,61,414.76,62.82Z"/><path class="cls-5" d="M419.19,61h.66v.69a1.83,1.83,0,0,1,1.42-.78v.68c-2-.41-1.31,2.63-1.42,3.67h-.66Z"/><path class="cls-5" d="M301,62.88h-1.18v2.34h-.73V59.34h2.37c2.27-.19,2.42,3.41.31,3.48l1.59,2.4h-.86Zm.37-2.89h-1.55v2.25h1.55A1.13,1.13,0,1,0,301.39,60Z"/><path class="cls-5" d="M306,60.85a2.12,2.12,0,0,1,2,2.46h-3.45a1.64,1.64,0,0,0,2.85.93l.32.43C304.65,67.51,301.82,61.22,306,60.85Zm-1.41,2h2.8C307.48,61,304.47,61,304.54,62.82Z"/><path class="cls-5" d="M308.94,64.18c.4.65,2.41,1,2.41-.1-.19-1.14-2.73-.48-2.63-2-.12-1.38,2.48-1.55,3.16-.61l-.31.46c-.35-.6-2.19-.84-2.21.11.26,1.06,2.74.42,2.64,2,.11,1.46-2.59,1.67-3.4.61Z"/><path class="cls-5" d="M313,66.84V61h.66v.63c4.32-3.64,4.3,6.65,0,3v2.26Zm1.93-5.4a1.58,1.58,0,0,0-1.27.68v1.93C315.61,66.6,317.74,61.69,314.91,61.44Z"/><path class="cls-5" d="M317.71,63.08c-.16-2.9,4.37-2.9,4.22,0C322.08,66,317.56,66,317.71,63.08Zm3.52,0a1.43,1.43,0,1,0-2.83,0A1.43,1.43,0,1,0,321.23,63.08Z"/><path class="cls-5" d="M325.79,62.43c.06-1.43-1.73-1.09-2.22-.32v3.11h-.66V61h.66v.62c3.12-2.52,3,1.56,2.88,3.64h-.66Z"/><path class="cls-5" d="M330.77,64.58c-4.31,3.65-4.3-6.63,0-3V59.34h.66v5.88h-.66Zm0-2.45c-3.41-3.15-3.43,5.05,0,1.93Z"/><path class="cls-5" d="M212.73,59.34c6.75-1.09,6.75,7,0,5.88Zm2,5.23c3.88-.44,2.41-5.51-1.28-4.58v4.58Z"/><path class="cls-5" d="M220.64,60.85a2.12,2.12,0,0,1,2,2.46h-3.44a1.64,1.64,0,0,0,2.85.93l.31.43C219.34,67.51,216.51,61.22,220.64,60.85Zm-1.4,2H222C222.17,61,219.16,61,219.24,62.82Z"/><path class="cls-5" d="M223.8,64.33V61.54h-.71V61h.71V59.8h.66V61h.86v.58h-.86c.17.51-.58,4.06.88,3l.19.49C225,65.59,223.68,65.34,223.8,64.33Z"/><path class="cls-5" d="M228,60.85a2.13,2.13,0,0,1,2,2.46h-3.45a1.64,1.64,0,0,0,2.85.93l.31.43C226.72,67.51,223.9,61.22,228,60.85Zm-1.4,2h2.79C229.55,61,226.54,61,226.62,62.82Z"/><path class="cls-5" d="M232.92,60.85a1.82,1.82,0,0,1,1.56.74L234,62c-3.29-2.72-3.29,4.89,0,2.18l.44.4C231.62,67.65,228.76,61.05,232.92,60.85Z"/><path class="cls-5" d="M235.45,64.33V61.54h-.7V61h.7V59.8h.66V61H237v.58h-.87c.18.51-.57,4.06.89,3l.19.49C236.64,65.59,235.33,65.34,235.45,64.33Z"/><path class="cls-5" d="M121.17,59.34h2.36a1.77,1.77,0,1,1,0,3.54H121.9v2.34h-.73Zm2.27.65H121.9v2.24h1.54A1.12,1.12,0,1,0,123.44,60Z"/><path class="cls-5" d="M126.23,61h.66v.69a1.81,1.81,0,0,1,1.42-.78v.68c-2-.41-1.31,2.63-1.42,3.67h-.66Z"/><path class="cls-5" d="M128.8,63.08c-.15-2.9,4.37-2.9,4.22,0C133.17,66,128.65,66,128.8,63.08Zm3.52,0a1.43,1.43,0,1,0-2.83,0A1.43,1.43,0,1,0,132.32,63.08Z"/><path class="cls-5" d="M134.14,64.33V61.54h-.71V61h.71V59.8h.66V61h.86v.58h-.86c.17.51-.57,4.06.88,3l.19.49C135.32,65.59,134,65.34,134.14,64.33Z"/><path class="cls-5" d="M138.36,60.85a2.12,2.12,0,0,1,2,2.46H137a1.64,1.64,0,0,0,2.85.93l.31.43C137.07,67.51,134.24,61.22,138.36,60.85Zm-1.4,2h2.79C139.89,61,136.88,61,137,62.82Z"/><path class="cls-5" d="M143.26,60.85a1.85,1.85,0,0,1,1.57.74l-.45.41c-3.29-2.72-3.29,4.89,0,2.18l.45.4C142,67.65,139.11,61.05,143.26,60.85Z"/><path class="cls-5" d="M145.79,64.33V61.54h-.7V61h.7V59.8h.67V61h.86v.58h-.86c.17.51-.58,4.06.88,3l.19.49C147,65.59,145.67,65.34,145.79,64.33Z"/><path class="cls-5" d="M30.22,59.34H31v5.88h-.74Z"/><path class="cls-5" d="M35.3,64.58c-4.3,3.65-4.3-6.63,0-3V59.34H36v5.88H35.3Zm0-2.45c-3.41-3.15-3.43,5.05,0,1.93Z"/><path class="cls-5" d="M39.05,60.85a2.12,2.12,0,0,1,2.05,2.46H37.65a1.64,1.64,0,0,0,2.85.93l.31.43C37.76,67.51,34.93,61.22,39.05,60.85Zm-1.4,2h2.79C40.58,61,37.57,61,37.65,62.82Z"/><path class="cls-5" d="M45,62.43c.06-1.43-1.72-1.09-2.21-.32v3.11h-.67V61h.67v.62c3.12-2.52,3,1.56,2.87,3.64H45Z"/><path class="cls-5" d="M47,64.33V61.54h-.71V61H47V59.8h.66V61h.86v.58h-.86c.17.51-.57,4.06.88,3l.19.49C48.16,65.59,46.86,65.34,47,64.33Z"/><path class="cls-5" d="M49.23,59.83a.45.45,0,0,1,.9,0A.45.45,0,0,1,49.23,59.83ZM49.35,61H50v4.26h-.66Z"/><path class="cls-5" d="M51.43,61.54h-.7V61h.7c-.19-1.22.84-2.11,1.88-1.56l-.17.49c-.71-.39-1.17.33-1,1.07H53v.58h-.87v3.68h-.66Z"/><path class="cls-5" d="M53.88,66.36c.53.09.74-.71.92-1.1L53,61h.71l1.42,3.49L56.56,61h.73c-.81,1-1.74,6.84-3.88,5.93l.11-.6A1.15,1.15,0,0,0,53.88,66.36Z"/><circle class="cls-6" cx="406.05" cy="33.22" r="26.21"/><polyline class="cls-7" points="424.09 29.56 420.48 33.22 416.87 29.56"/><polyline class="cls-7" points="388.01 36.88 391.62 33.22 395.23 36.88"/><path class="cls-7" d="M420.27,35.66a14.42,14.42,0,0,1-28.66-2.44"/><path class="cls-7" d="M391.81,30.78a14.42,14.42,0,0,1,28.66,2.44"/><ellipse class="cls-7" cx="406.05" cy="33.22" rx="5.14" ry="5.13"/><path class="cls-7" d="M406.89,23.54l.51,2.55.13,0a7,7,0,0,1,1,.27l1.65-2"/><path class="cls-7" d="M407.4,26.09l-.51-2.55a9.77,9.77,0,0,0-1.71,0l-.44,2.54"/><path class="cls-7" d="M411.62,25.25l-.83,2.46a7.59,7.59,0,0,1,.75.75l2.42-.91"/><path class="cls-7" d="M410.79,27.71l.83-2.46a8.71,8.71,0,0,0-1.49-.85l-1.65,2"/><path class="cls-7" d="M403.6,26.38l-1.74-1.93a8.74,8.74,0,0,0-1.47.87l.9,2.41"/><path class="cls-7" d="M401.86,24.45l1.74,1.93a7.35,7.35,0,0,1,1.14-.3l.44-2.54"/><path class="cls-7" d="M411.57,38l2.47.83a10.74,10.74,0,0,0,.85-1.48l-2-1.65"/><path class="cls-7" d="M398.07,27.65l2.47.83a8.85,8.85,0,0,1,.75-.75l-.9-2.41"/><path class="cls-7" d="M412.89,30.76,414.83,29a10.44,10.44,0,0,0-.87-1.48l-2.42.91"/><path class="cls-7" d="M415.75,34.05l-2.56.52a.59.59,0,0,1,0,.13,7.41,7.41,0,0,1-.27.95l2,1.65"/><path class="cls-7" d="M413.19,34.57l2.56-.52a8.88,8.88,0,0,0,0-1.71l-2.54-.44"/><path class="cls-7" d="M414.83,29l-1.94,1.73a6.4,6.4,0,0,1,.31,1.14l2.54.44"/><path class="cls-7" d="M408.52,40.06,410.26,42a10,10,0,0,0,1.47-.88l-.91-2.4"/><path class="cls-7" d="M405.19,42.9l-.51-2.55-.11,0a7.71,7.71,0,0,1-1-.27L402,42"/><path class="cls-7" d="M404.68,40.35l.51,2.55a9.88,9.88,0,0,0,1.72,0l.44-2.53"/><path class="cls-7" d="M410.26,42l-1.74-1.93a7.75,7.75,0,0,1-1.17.31l-.44,2.53"/><path class="cls-7" d="M414,38.78,411.57,38a9,9,0,0,1-.75.76l.91,2.4"/><path class="cls-7" d="M401.3,38.72l-.83,2.46A9.85,9.85,0,0,0,402,42l1.65-2"/><path class="cls-7" d="M396.36,32.37l2.55-.51s0-.08,0-.12a7.56,7.56,0,0,1,.27-1l-2-1.65"/><path class="cls-7" d="M400.54,28.48l-2.47-.83a10.74,10.74,0,0,0-.85,1.48l2,1.65"/><path class="cls-7" d="M398.91,31.86l-2.55.51a9.78,9.78,0,0,0,0,1.71l2.54.44"/><path class="cls-7" d="M399.2,35.67l-1.94,1.73a9.8,9.8,0,0,0,.87,1.47l2.42-.9"/><path class="cls-7" d="M400.47,41.18l.83-2.46a6.64,6.64,0,0,1-.75-.75l-2.42.9"/><path class="cls-7" d="M397.26,37.4l1.94-1.73a8.85,8.85,0,0,1-.31-1.15l-2.54-.44"/><circle class="cls-6" cx="42.88" cy="34.22" r="26.21"/><path class="cls-7" d="M44.18,35.52l2,2a1.47,1.47,0,0,1,2.12,0L58.48,47.7a1.51,1.51,0,0,1,0,2.12h0a1.51,1.51,0,0,1-2.12,0L46.18,39.64"/><circle class="cls-7" cx="36.96" cy="28.3" r="10.11"/><circle class="cls-7" cx="36.96" cy="28.3" r="7.22"/><circle class="cls-6" cx="133.67" cy="34.22" r="26.21"/><path class="cls-7" d="M136.69,25.47a8.16,8.16,0,1,0,2.19,1.31h0l-6.43,9.72L129,31.91"/><path class="cls-7" d="M141.42,21.68l-1.63.07h0l-3.9-3a3.31,3.31,0,0,0-4.14-.06l-4.19,3.06-1.63-.07c-3.08-.16-5.48-1-5.48,3.19s.57,11.05.57,11.05-.34,5.13,5.59,9.46c5.11,3.73,7,5.08,7,5.08h0s2-1.35,7.09-5.08c5.93-4.33,5.59-9.46,5.59-9.46s.57-6.84.57-11-2.4-3.35-5.48-3.19"/><circle class="cls-6" cx="315.26" cy="34.22" r="26.21"/><path class="cls-7" d="M324.62,48.65l-6.69-6.8-3-4.29c-3.38-1.37-4.33-3.19-4.33-3.19l1.9-1.9-5.63-5.59a27.23,27.23,0,0,0-3-1.25l-3-4.26,1.57-1.58,4.26,3a28.44,28.44,0,0,0,1.25,3l5.59,5.62,1.9-1.9s1.82.95,3.19,4.33l4.3,3,6.8,6.69Z"/><path class="cls-7" d="M309.66,35.25l-7.92,8A3.14,3.14,0,0,0,304,48.58a3.1,3.1,0,0,0,2.21-.92l8.39-8.44"/><path class="cls-7" d="M320.18,33.55l1.79-1.8A6.05,6.05,0,0,0,329.25,28a6.12,6.12,0,0,0,.35-2.21L325.27,28l-.08,0-2.64-1.7.21-3,4.4-2.32a5.91,5.91,0,0,0-1.55-.83,6,6,0,0,0-8,7l-1.43,1.43"/><circle class="cls-7" cx="304.43" cy="45.02" r="1.22"/><line class="cls-8" x1="241.09" y1="328.79" x2="208.45" y2="328.79"/><line class="cls-8" x1="224.77" y1="324.22" x2="224.77" y2="328.79"/><path d="M187.1,337.67c-.2-2.82,4-3.72,5.08-1.46l-1,.48a1.59,1.59,0,0,0-2.93,1c-.11,1.68,2.2,2.41,2.93,1l1,.48C191.12,341.38,186.91,340.49,187.1,337.67Z"/><path d="M192.75,338.4c-.16-2.64,4.26-2.63,4.1,0C197,341,192.59,341,192.75,338.4Zm3,0a1,1,0,1,0-2,0A1,1,0,1,0,195.79,338.4Z"/><path d="M202.53,337.89c.07-.85-1.12-.69-1.38-.17v2.61h-1c0-.85.41-4.4-1.38-2.6v2.6h-1v-3.86h1v.5c.33-.63,2.13-.93,2.34.1,2.75-2.43,2.56,1.49,2.46,3.26h-1Z"/><path d="M204.67,341.81v-5.34h1V337c3.77-3,3.75,5.91,0,2.89v2Zm1.89-4.54a1.16,1.16,0,0,0-.87.44v1.37C207.1,340.77,208.54,337.43,206.56,337.27Z"/><path d="M209.51,335h1v5.34h-1Z"/><path d="M211.54,335.36a.61.61,0,0,1,1.21,0A.61.61,0,0,1,211.54,335.36Zm.1,1.11h1v3.86h-1Z"/><path d="M216.08,339.93c-3.29,2.3-3.36-3.82,0-1.54.32-1.26-1.2-1.53-2-.73l-.38-.68c3.2-2,3.65.71,3.38,3.35h-1Zm0-1c-2-1.45-2,1.94,0,.49Z"/><path d="M220.82,338c.05-1-1.27-.81-1.6-.26v2.6h-1v-3.86h1v.5c2.9-2.16,2.71,1.48,2.61,3.36h-1Z"/><path d="M224.76,336.37a1.79,1.79,0,0,1,1.53.7l-.67.62c-2.38-2-2.4,3.41,0,1.42l.67.62C223.65,342.6,220.66,336.58,224.76,336.37Z"/><path d="M228.73,336.37a2,2,0,0,1,1.93,2.35h-2.87c.05,1,1.52,1.16,2.14.52l.45.65C227.48,342.34,224.79,336.73,228.73,336.37Zm-1,1.66h1.91C229.75,337,227.75,336.93,227.77,338Z"/><path d="M233.82,339.37v-2h-.64v-.88h.64v-1.06h1v1.06h.79v.88h-.79c.11.44-.39,2.75.71,2.06l.21.77C235.17,340.69,233.68,340.44,233.82,339.37Z"/><path d="M239.12,338c0-1-1.27-.8-1.6-.25v2.6h-1V335h1v2c2.92-2.16,2.71,1.47,2.62,3.36h-1Z"/><path d="M241.25,336.47h1V337a1.69,1.69,0,0,1,1.24-.61v1a1.31,1.31,0,0,0-1.24.41v2.55h-1Z"/><path d="M244,338.4c-.16-2.64,4.26-2.63,4.09,0C248.24,341,243.82,341,244,338.4Zm3,0a1,1,0,1,0-2,0A1,1,0,1,0,247,338.4Z"/><path d="M251.55,339.85c-2.86,2.13-2.73-1.52-2.61-3.38h1c0,1.07-.39,4.34,1.59,2.61v-2.61h1v3.86h-1Z"/><path d="M254.09,340.59c.77.86,2.55.61,2.28-.89-3.73,3.05-3.76-5.74,0-2.74v-.49h1c.12,2.87.43,7.12-3.75,4.86Zm2.28-2.88c-2.38-2-2.39,3.29,0,1.25Z"/><path d="M261.13,338c.05-1-1.27-.8-1.6-.25v2.6h-1V335h1v2c2.91-2.16,2.71,1.47,2.61,3.36h-1Z"/><path d="M190.47,346.71c.07-.85-1.12-.69-1.38-.17v2.61h-1c0-.85.41-4.4-1.38-2.6v2.6h-1v-3.87h1v.51c.33-.63,2.13-.93,2.34.1,2.75-2.43,2.56,1.49,2.46,3.26h-1Z"/><path d="M194.94,348.75c-3.29,2.3-3.35-3.82,0-1.54.33-1.26-1.2-1.53-2-.73l-.38-.68c3.2-1.95,3.65.71,3.38,3.35h-1Zm0-1c-1.95-1.45-2,1.94,0,.48Z"/><path d="M197.27,348.19v-2h-.64v-.89h.64v-1h1v1h.79v.89h-.79c.11.44-.39,2.75.71,2.06l.21.77C198.62,349.51,197.13,349.26,197.27,348.19Z"/><path d="M202.53,348.66c-2.86,2.14-2.73-1.51-2.61-3.38h1c0,1.08-.39,4.35,1.59,2.62v-2.62h1v3.87h-1Z"/><path d="M204.66,345.28h1v.53a1.66,1.66,0,0,1,1.23-.62v1a1.3,1.3,0,0,0-1.23.41v2.55h-1Z"/><path d="M209.39,345.19a2,2,0,0,1,1.94,2.35h-2.87c0,.95,1.52,1.16,2.14.52l.45.65C208.15,351.16,205.46,345.55,209.39,345.19Zm-.95,1.66h1.91C210.42,345.78,208.42,345.75,208.44,346.85Z"/><path d="M216.09,345.19a1.81,1.81,0,0,1,1.53.69l-.67.63c-2.38-2-2.39,3.41,0,1.42l.67.61C215,351.42,212,345.4,216.09,345.19Z"/><path d="M218.87,349.82c.43,0,.56-.29.68-.61L218,345.28h1.09l1,2.69,1-2.69h1.09c-.81,1.19-1.46,6.3-3.79,5.39l.16-.92A.83.83,0,0,0,218.87,349.82Z"/><path d="M222.81,343.81h1v2c3.76-3,3.76,5.9,0,2.88v.49h-1Zm1.89,4.53c2-.14.53-3.51-.88-1.8v1.37A1.14,1.14,0,0,0,224.7,348.34Z"/><path d="M229.41,345.19a2,2,0,0,1,1.94,2.35h-2.88c.05.95,1.52,1.16,2.15.52l.45.65C228.17,351.16,225.47,345.55,229.41,345.19Zm-1,1.66h1.91C230.43,345.78,228.43,345.75,228.45,346.85Z"/><path d="M232.21,345.28h1v.53a1.7,1.7,0,0,1,1.24-.62v1a1.32,1.32,0,0,0-1.24.41v2.55h-1Z"/><path d="M235.37,347.94c.32.37,1.87.9,2,.13-.34-.81-2.38-.24-2.3-1.67-.1-1.34,2.37-1.52,3.15-.68l-.41.69c-.24-.36-1.64-.76-1.75-.09.39.76,2.37.24,2.29,1.69.09,1.44-2.58,1.55-3.4.64Z"/><path d="M241,345.19a2,2,0,0,1,1.94,2.35H240c0,.95,1.52,1.16,2.15.52l.45.65C239.72,351.16,237,345.55,241,345.19Zm-1,1.66h1.91C242,345.78,240,345.75,240,346.85Z"/><path d="M245.59,345.19a1.81,1.81,0,0,1,1.53.69l-.67.63c-2.39-2-2.4,3.41,0,1.42l.67.61C244.48,351.42,241.49,345.39,245.59,345.19Z"/><path d="M250.46,348.66c-2.87,2.14-2.73-1.51-2.62-3.38h1c0,1.08-.39,4.35,1.6,2.62v-2.62h1v3.87h-1Z"/><path d="M252.59,345.28h1v.53a1.66,1.66,0,0,1,1.23-.62v1a1.29,1.29,0,0,0-1.23.41v2.55h-1Z"/><path d="M255.44,344.18a.61.61,0,0,1,1.22,0A.61.61,0,0,1,255.44,344.18Zm.11,1.1h1v3.87h-1Z"/><path d="M257.89,348.19v-2h-.64v-.89h.64v-1h1v1h.79v.89h-.79c.11.44-.39,2.75.71,2.06l.21.77C259.24,349.5,257.75,349.26,257.89,348.19Z"/><path d="M261.05,349.82c.43,0,.55-.29.68-.61l-1.57-3.93h1.09l1,2.69,1-2.69h1.09c-.81,1.19-1.46,6.3-3.79,5.39l.15-.92A.93.93,0,0,0,261.05,349.82Z"/><circle class="cls-6" cx="224.47" cy="34.22" r="26.21"/><polyline class="cls-7" points="210.7 33.45 218.77 33.45 222.09 26.2 225.89 41.05 230.16 33.38 238.32 33.38"/><path class="cls-7" d="M238.32,33.37a10.91,10.91,0,0,0-.72-10.44c-2.53-3.58-9.63-4.85-13.13,2.17-3.94-7-10.61-5.82-13.14-2.24a10.51,10.51,0,0,0-1.26,8.84"/><path class="cls-7" d="M210.67,33.45a16.41,16.41,0,0,0,2.68,4.23,129.79,129.79,0,0,0,11.12,10.77,124.05,124.05,0,0,0,11.11-10.69A16.82,16.82,0,0,0,237.52,35"/><polygon class="cls-9" points="420.91 170.84 28.71 172.58 28.71 142.34 420.91 140.59 420.91 170.84"/><rect class="cls-10" x="175.15" y="134.21" width="101.52" height="14.43"/><path class="cls-1" d="M190.88,143.23h-1.17l-.23,1h-1.21l1.23-5.69h1.61l1.23,5.69h-1.23Zm-.58-3.17-.36,2.05h.72Z"/><path class="cls-1" d="M196.57,140.1v.73a1.56,1.56,0,0,1-1.69,1.56h-.66v1.84H193v-5.69h1.89A1.57,1.57,0,0,1,196.57,140.1Zm-1.24-.06a.36.36,0,0,0-.37-.38h-.74v1.61H195a.36.36,0,0,0,.38-.39Z"/><path class="cls-1" d="M200.83,140.1v.73a1.56,1.56,0,0,1-1.69,1.56h-.66v1.84h-1.24v-5.69h1.89A1.57,1.57,0,0,1,200.83,140.1Zm-1.24-.06a.36.36,0,0,0-.37-.38h-.74v1.61h.73a.36.36,0,0,0,.38-.39Z"/><path class="cls-1" d="M204.46,143.11v1.12h-3v-5.69h1.24v4.57Z"/><path class="cls-1" d="M205.08,138.54h1.24v5.69h-1.24Z"/><path class="cls-1" d="M207.06,142.73V140a1.9,1.9,0,0,1,3.76,0v.71h-1.26V140c0-.29-.21-.49-.62-.49s-.64.2-.64.49v2.72c0,.29.22.48.63.48s.63-.19.63-.48V142h1.26v.71a1.9,1.9,0,0,1-3.76,0Z"/><path class="cls-1" d="M213.92,143.23h-1.16l-.24,1h-1.21l1.23-5.69h1.61l1.23,5.69h-1.23Zm-.58-3.17-.36,2.05h.72Z"/><path class="cls-1" d="M219,139.66h-1.17v4.57h-1.25v-4.57h-1.18v-1.12H219Z"/><path class="cls-1" d="M219.62,138.54h1.24v5.69h-1.24Z"/><path class="cls-1" d="M221.6,142.73V140a1.92,1.92,0,0,1,3.79,0v2.69a1.92,1.92,0,0,1-3.79,0Zm2.54,0V140c0-.29-.19-.49-.64-.49s-.65.2-.65.49v2.72c0,.29.19.48.64.48S224.14,143,224.14,142.75Z"/><path class="cls-1" d="M229.79,138.54v5.69H228.7L227.22,141v3.24h-1.09v-5.69h1.09l1.48,3.26v-3.26Z"/><path class="cls-1" d="M232.14,142.55v-.23h1.24v.36c0,.41.32.58.67.58a.54.54,0,0,0,.57-.55c0-1-2.38-.78-2.38-2.62a1.61,1.61,0,0,1,1.78-1.67,1.56,1.56,0,0,1,1.77,1.6v.35h-1.24v-.43c0-.25-.24-.4-.54-.4a.47.47,0,0,0-.52.49c0,.81,2.38.63,2.38,2.57a1.68,1.68,0,0,1-1.85,1.75A1.72,1.72,0,0,1,232.14,142.55Z"/><path class="cls-1" d="M237.82,139.66v1.25h1.38V142h-1.38v1.08h1.7v1.12h-2.94v-5.69h2.94v1.12Z"/><path class="cls-1" d="M240.15,142.73V140a1.9,1.9,0,0,1,3.76,0v.71h-1.26V140c0-.29-.21-.49-.62-.49s-.64.2-.64.49v2.72c0,.29.22.48.64.48s.62-.19.62-.48V142h1.26v.71a1.9,1.9,0,0,1-3.76,0Z"/><path class="cls-1" d="M244.6,142.73v-4.19h1.24v4.21c0,.29.19.48.58.48s.58-.19.58-.48v-4.21h1.25v4.19a1.84,1.84,0,0,1-3.65,0Z"/><path class="cls-1" d="M250.84,142.18h-.59v2H249v-5.69h1.89a1.57,1.57,0,0,1,1.7,1.56v.53a1.49,1.49,0,0,1-.57,1.2l.74,2.4h-1.3Zm-.59-1.12H251a.36.36,0,0,0,.38-.38V140a.35.35,0,0,0-.37-.38h-.74Z"/><path class="cls-1" d="M253.44,138.54h1.24v5.69h-1.24Z"/><path class="cls-1" d="M258.88,139.66H257.7v4.57h-1.24v-4.57h-1.19v-1.12h3.61Z"/><path class="cls-1" d="M262.08,142.35v1.88h-1.24v-1.88l-1.46-3.81h1.32l.77,2.27.76-2.27h1.31Z"/><polygon class="cls-9" points="420.91 213.87 28.71 215.62 28.71 185.38 420.91 183.63 420.91 213.87"/><rect class="cls-10" x="175.15" y="176.52" width="101.52" height="14.43"/><path class="cls-1" d="M191.58,185.54h-1.16l-.23,1H189l1.22-5.69h1.61l1.24,5.69h-1.24Zm-.58-3.18-.36,2h.72Z"/><path class="cls-1" d="M197.27,182.4v.73a1.55,1.55,0,0,1-1.69,1.56h-.65v1.85h-1.25v-5.69h1.89A1.56,1.56,0,0,1,197.27,182.4Zm-1.24-.05a.35.35,0,0,0-.37-.38h-.73v1.6h.72a.35.35,0,0,0,.38-.38Z"/><path class="cls-1" d="M201.53,182.4v.73a1.55,1.55,0,0,1-1.69,1.56h-.65v1.85h-1.25v-5.69h1.89A1.56,1.56,0,0,1,201.53,182.4Zm-1.24-.05a.35.35,0,0,0-.37-.38h-.73v1.6h.72a.35.35,0,0,0,.38-.38Z"/><path class="cls-1" d="M205.16,185.42v1.12h-3v-5.69h1.25v4.57Z"/><path class="cls-1" d="M205.78,180.85H207v5.69h-1.24Z"/><path class="cls-1" d="M207.76,185v-2.69a1.9,1.9,0,0,1,3.76,0v.71h-1.26v-.73c0-.29-.21-.48-.61-.48s-.65.19-.65.48v2.72c0,.29.22.49.64.49s.62-.2.62-.49v-.72h1.26V185a1.9,1.9,0,0,1-3.76,0Z"/><path class="cls-1" d="M214.62,185.54h-1.16l-.23,1H212l1.22-5.69h1.61l1.24,5.69h-1.24Zm-.58-3.18-.36,2h.72Z"/><path class="cls-1" d="M219.72,182h-1.18v4.57H217.3V182h-1.19v-1.12h3.61Z"/><path class="cls-1" d="M220.33,180.85h1.24v5.69h-1.24Z"/><path class="cls-1" d="M222.31,185v-2.69a1.91,1.91,0,0,1,3.78,0V185a1.91,1.91,0,0,1-3.78,0Zm2.54,0v-2.72c0-.29-.2-.48-.64-.48s-.66.19-.66.48v2.72c0,.29.19.49.65.49S224.85,185.34,224.85,185.05Z"/><path class="cls-1" d="M230.49,180.85v5.69H229.4l-1.48-3.24v3.24h-1.08v-5.69h1.08l1.48,3.25v-3.25Z"/><path class="cls-1" d="M236.58,182.47v2.45a1.64,1.64,0,0,1-1.81,1.62h-1.85v-5.69h1.84A1.65,1.65,0,0,1,236.58,182.47Zm-1.24,0a.45.45,0,0,0-.49-.48h-.69v3.45h.68a.46.46,0,0,0,.5-.49Z"/><path class="cls-1" d="M238.56,182v1.24h1.38v1.12h-1.38v1.09h1.7v1.12h-2.94v-5.69h2.94V182Z"/><path class="cls-1" d="M243.88,185.42v1.12h-2.95v-5.69h1.24v4.57Z"/><path class="cls-1" d="M244.5,180.85h1.25v5.69H244.5Z"/><path class="cls-1" d="M250.39,180.85l-1.2,5.69h-1.62l-1.2-5.69h1.25l.77,3.9.77-3.9Z"/><path class="cls-1" d="M252.27,182v1.24h1.38v1.12h-1.38v1.09H254v1.12H251v-5.69H254V182Z"/><path class="cls-1" d="M256.47,184.49h-.6v2h-1.24v-5.69h1.89a1.56,1.56,0,0,1,1.7,1.55v.53a1.45,1.45,0,0,1-.57,1.2l.74,2.41h-1.3Zm-.6-1.13h.73A.34.34,0,0,0,257,183v-.64a.34.34,0,0,0-.37-.38h-.74Z"/><path class="cls-1" d="M261.38,184.65v1.89h-1.25v-1.89l-1.45-3.8H260l.77,2.27.76-2.27h1.3Z"/><polygon class="cls-9" points="420.91 256.91 28.71 258.66 28.71 228.41 420.91 226.67 420.91 256.91"/><rect class="cls-10" x="175.15" y="220.35" width="101.52" height="14.43"/><path class="cls-1" d="M190.13,229.37H189l-.24,1h-1.21l1.23-5.69h1.61l1.23,5.69h-1.23Zm-.58-3.17-.36,2.05h.72Z"/><path class="cls-1" d="M195.82,226.24V227a1.55,1.55,0,0,1-1.69,1.56h-.66v1.84h-1.24v-5.69h1.89A1.56,1.56,0,0,1,195.82,226.24Zm-1.24-.06a.35.35,0,0,0-.37-.38h-.74v1.61h.73a.36.36,0,0,0,.38-.39Z"/><path class="cls-1" d="M200.08,226.24V227a1.56,1.56,0,0,1-1.69,1.56h-.66v1.84h-1.24v-5.69h1.89A1.56,1.56,0,0,1,200.08,226.24Zm-1.24-.06a.35.35,0,0,0-.37-.38h-.74v1.61h.73a.36.36,0,0,0,.38-.39Z"/><path class="cls-1" d="M203.71,229.25v1.12h-3v-5.69H202v4.57Z"/><path class="cls-1" d="M204.33,224.68h1.24v5.69h-1.24Z"/><path class="cls-1" d="M206.31,228.87v-2.69a1.9,1.9,0,0,1,3.76,0v.71h-1.26v-.73c0-.28-.21-.48-.62-.48s-.64.2-.64.48v2.73c0,.29.22.48.64.48s.62-.19.62-.48v-.73h1.26v.71a1.9,1.9,0,0,1-3.76,0Z"/><path class="cls-1" d="M213.17,229.37H212l-.23,1h-1.21l1.22-5.69h1.61l1.24,5.69H213.4Zm-.58-3.17-.36,2.05H213Z"/><path class="cls-1" d="M218.27,225.8h-1.18v4.57h-1.24V225.8h-1.19v-1.12h3.61Z"/><path class="cls-1" d="M218.87,224.68h1.25v5.69h-1.25Z"/><path class="cls-1" d="M220.86,228.87v-2.69a1.91,1.91,0,0,1,3.78,0v2.69a1.91,1.91,0,0,1-3.78,0Zm2.54,0v-2.73c0-.28-.2-.48-.64-.48s-.66.2-.66.48v2.73c0,.29.19.48.65.48S223.4,229.18,223.4,228.89Z"/><path class="cls-1" d="M229,224.68v5.69H228l-1.48-3.24v3.24h-1.08v-5.69h1.08l1.48,3.25v-3.25Z"/><path class="cls-1" d="M235.28,224.68l-1.2,5.69h-1.62l-1.2-5.69h1.25l.76,3.9.78-3.9Z"/><path class="cls-1" d="M235.92,224.68h1.24v5.69h-1.24Z"/><path class="cls-1" d="M237.85,228.69v-.23h1.24v.36c0,.41.32.58.67.58a.55.55,0,0,0,.58-.55c0-1-2.38-.78-2.38-2.62a1.6,1.6,0,0,1,1.77-1.67,1.56,1.56,0,0,1,1.78,1.6v.35h-1.25v-.43c0-.25-.24-.4-.53-.4a.47.47,0,0,0-.52.48c0,.82,2.38.64,2.38,2.58a1.69,1.69,0,0,1-1.86,1.75A1.72,1.72,0,0,1,237.85,228.69Z"/><path class="cls-1" d="M242.29,224.68h1.24v5.69h-1.24Z"/><path class="cls-1" d="M247.9,228.46v.33a1.54,1.54,0,0,1-1.62,1.58h-2v-5.69h1.86a1.49,1.49,0,0,1,1.63,1.42v.41a1.22,1.22,0,0,1-.42.9A1.33,1.33,0,0,1,247.9,228.46Zm-2.34-2.7V227h.67c.18,0,.33-.18.33-.43v-.4a.35.35,0,0,0-.32-.36Zm1.1,2.69c0-.24-.13-.43-.33-.43h-.77v1.27h.77c.2,0,.33-.2.33-.44Z"/><path class="cls-1" d="M248.58,224.68h1.25v5.69h-1.25Z"/><path class="cls-1" d="M253.57,229.25v1.12h-3v-5.69h1.24v4.57Z"/><path class="cls-1" d="M254.19,224.68h1.24v5.69h-1.24Z"/><path class="cls-1" d="M259.63,225.8h-1.18v4.57h-1.24V225.8H256v-1.12h3.61Z"/><path class="cls-1" d="M262.83,228.49v1.88h-1.25v-1.88l-1.45-3.81h1.32l.77,2.27.76-2.27h1.3Z"/><rect x="195.76" y="111.95" width="60.28" height="14.43"/><path class="cls-1" d="M207.28,117.4v1.45h1.45V120h-1.45v2H206v-5.69H209v1.12Z"/><path class="cls-1" d="M213,119.9v.63a1.71,1.71,0,0,1-3.4,0V120h1.24v.6c0,.24.16.38.46.38s.46-.14.46-.38v-.81c0-.23-.11-.36-.28-.36H209.7v-3.17h3v1.12h-1.79v1h.51A1.46,1.46,0,0,1,213,119.9Z"/><path class="cls-1" d="M215.29,120.29v-.23h1.24v.36a.59.59,0,0,0,.67.58.54.54,0,0,0,.57-.55c0-1-2.38-.78-2.38-2.62a1.61,1.61,0,0,1,1.78-1.67,1.55,1.55,0,0,1,1.77,1.6v.35H217.7v-.43c0-.25-.24-.4-.53-.4a.48.48,0,0,0-.53.48c0,.82,2.38.64,2.38,2.58a1.68,1.68,0,0,1-1.85,1.75A1.72,1.72,0,0,1,215.29,120.29Z"/><path class="cls-1" d="M221,117.4v1.25h1.38v1.12H221v1.08h1.7V122h-2.94v-5.69h2.94v1.12Z"/><path class="cls-1" d="M225.17,119.92h-.59v2h-1.24v-5.69h1.89a1.56,1.56,0,0,1,1.7,1.56v.53a1.51,1.51,0,0,1-.57,1.2l.74,2.4h-1.3Zm-.59-1.12h.73a.36.36,0,0,0,.38-.38v-.64a.35.35,0,0,0-.37-.38h-.74Z"/><path class="cls-1" d="M231.47,116.28l-1.2,5.69h-1.62l-1.19-5.69h1.24l.77,3.9.78-3.9Z"/><path class="cls-1" d="M232.11,116.28h1.24V122h-1.24Z"/><path class="cls-1" d="M234.09,120.47v-2.69a1.9,1.9,0,0,1,3.76,0v.71h-1.26v-.73c0-.28-.21-.48-.62-.48s-.64.2-.64.48v2.73c0,.29.22.48.64.48s.62-.19.62-.48v-.73h1.26v.71a1.9,1.9,0,0,1-3.76,0Z"/><path class="cls-1" d="M239.81,117.4v1.25h1.38v1.12h-1.38v1.08h1.7V122h-2.94v-5.69h2.94v1.12Z"/><path class="cls-1" d="M242.12,120.29v-.23h1.24v.36a.59.59,0,0,0,.67.58.54.54,0,0,0,.57-.55c0-1-2.38-.78-2.38-2.62a1.61,1.61,0,0,1,1.78-1.67,1.55,1.55,0,0,1,1.77,1.6v.35h-1.24v-.43c0-.25-.24-.4-.53-.4a.48.48,0,0,0-.53.48c0,.82,2.38.64,2.38,2.58a1.68,1.68,0,0,1-1.85,1.75A1.72,1.72,0,0,1,242.12,120.29Z"/><line class="cls-7" x1="224.47" y1="270.78" x2="224.47" y2="286.17"/><polyline class="cls-4" points="432.5 79.17 432.5 86.84 17.11 86.84 17.11 79.17"/><rect class="cls-11" x="160.89" y="79.51" width="127.83" height="14.43"/><path class="cls-1" d="M176.88,88V85.34a1.9,1.9,0,0,1,3.75,0v.71h-1.25v-.73c0-.29-.21-.48-.62-.48s-.64.19-.64.48V88c0,.29.21.48.63.48s.63-.19.63-.48v-.72h1.25V88a1.9,1.9,0,0,1-3.75,0Z"/><path class="cls-1" d="M183.76,87.64v1.89h-1.24V87.64l-1.46-3.8h1.32l.77,2.27.76-2.27h1.31Z"/><path class="cls-1" d="M189.45,87.62V88a1.55,1.55,0,0,1-1.63,1.58h-2V83.84h1.85a1.49,1.49,0,0,1,1.63,1.42v.4a1.22,1.22,0,0,1-.42.9A1.38,1.38,0,0,1,189.45,87.62Zm-2.35-2.7v1.19h.67c.19,0,.33-.18.33-.43v-.4a.34.34,0,0,0-.32-.36Zm1.1,2.68c0-.24-.12-.42-.32-.42h-.78v1.27h.77c.21,0,.33-.21.33-.45Z"/><path class="cls-1" d="M191.37,85V86.2h1.38v1.12h-1.38V88.4h1.7v1.13h-2.95V83.84h2.95V85Z"/><path class="cls-1" d="M195.56,87.48H195v2h-1.24V83.84h1.89a1.56,1.56,0,0,1,1.7,1.55v.53a1.48,1.48,0,0,1-.57,1.2l.74,2.41h-1.3ZM195,86.35h.73a.35.35,0,0,0,.38-.37v-.64a.35.35,0,0,0-.37-.38H195Z"/><path class="cls-1" d="M198,87.84v-.22h1.24V88a.59.59,0,0,0,.66.59.54.54,0,0,0,.58-.56c0-1-2.38-.77-2.38-2.62a1.6,1.6,0,0,1,1.78-1.66,1.55,1.55,0,0,1,1.77,1.59v.35H200.4v-.43c0-.25-.24-.39-.54-.39a.47.47,0,0,0-.52.48c0,.82,2.38.63,2.38,2.57a1.69,1.69,0,0,1-1.85,1.76A1.73,1.73,0,0,1,198,87.84Z"/><path class="cls-1" d="M203.67,85V86.2h1.38v1.12h-1.38V88.4h1.7v1.13h-2.94V83.84h2.94V85Z"/><path class="cls-1" d="M206,88V85.34a1.9,1.9,0,0,1,3.76,0v.71H208.5v-.73c0-.29-.21-.48-.62-.48s-.64.19-.64.48V88c0,.29.22.48.63.48s.63-.19.63-.48v-.72h1.26V88A1.9,1.9,0,0,1,206,88Z"/><path class="cls-1" d="M210.45,88V83.84h1.24V88c0,.29.18.48.58.48s.58-.19.58-.48v-4.2h1.24V88a1.83,1.83,0,0,1-3.64,0Z"/><path class="cls-1" d="M216.69,87.48h-.59v2h-1.24V83.84h1.89a1.55,1.55,0,0,1,1.69,1.55v.53a1.47,1.47,0,0,1-.56,1.2l.73,2.41h-1.3Zm-.59-1.13h.73a.34.34,0,0,0,.37-.37v-.64a.34.34,0,0,0-.37-.38h-.73Z"/><path class="cls-1" d="M219.29,83.84h1.24v5.69h-1.24Z"/><path class="cls-1" d="M224.73,85h-1.18v4.57h-1.24V85h-1.19V83.84h3.61Z"/><path class="cls-1" d="M227.93,87.64v1.89h-1.25V87.64l-1.45-3.8h1.32l.77,2.27.76-2.27h1.3Z"/><path class="cls-1" d="M232.86,85V86.4h1.46v1.12h-1.46v2h-1.25V83.84h2.95V85Z"/><path class="cls-1" d="M237.05,87.48h-.59v2h-1.25V83.84h1.89a1.56,1.56,0,0,1,1.7,1.55v.53a1.45,1.45,0,0,1-.57,1.2l.74,2.41h-1.3Zm-.59-1.13h.72a.34.34,0,0,0,.38-.37v-.64a.34.34,0,0,0-.37-.38h-.73Z"/><path class="cls-1" d="M242.14,88.52H241l-.23,1h-1.21l1.22-5.69h1.61l1.24,5.69h-1.24Zm-.57-3.17-.36,2.05h.72Z"/><path class="cls-1" d="M248.89,89.53h-1.07V85.87L247,89.53h-.89l-.82-3.7v3.7h-1.05V83.84h1.47l.84,3.25.84-3.25h1.49Z"/><path class="cls-1" d="M250.92,85V86.2h1.38v1.12h-1.38V88.4h1.7v1.13h-2.94V83.84h2.94V85Z"/><path class="cls-1" d="M259.46,83.84l-1.22,5.69H257l-.63-3.1-.63,3.1H254.4l-1.22-5.69h1.29l.63,3.88.74-3.88h1l.78,3.87.62-3.87Z"/><path class="cls-1" d="M260,88V85.34a1.91,1.91,0,0,1,3.78,0V88A1.91,1.91,0,0,1,260,88Zm2.54,0V85.32c0-.29-.19-.48-.64-.48s-.66.19-.66.48V88c0,.29.19.48.65.48S262.51,88.33,262.51,88Z"/><path class="cls-1" d="M266.33,87.48h-.59v2H264.5V83.84h1.89a1.56,1.56,0,0,1,1.7,1.55v.53a1.48,1.48,0,0,1-.57,1.2l.74,2.41H267Zm-.59-1.13h.73a.35.35,0,0,0,.38-.37v-.64a.35.35,0,0,0-.37-.38h-.74Z"/><path class="cls-1" d="M271.45,89.53l-1.28-2.69v2.69h-1.24V83.84h1.24v2.53l1.19-2.53h1.39l-1.26,2.75,1.37,2.94Z"/><path class="cls-3" d="M231.79,288a15.61,15.61,0,1,0,2.71,1.82h0l-12.64,18.51-6.51-9.12"/><path d="M62.53,161.22a1,1,0,0,1,1.91,0A1,1,0,0,1,62.53,161.22Z"/><path d="M71.39,158.61l-1.29,4.75h-.8l-1.67-5.88h.81l1.31,4.9,1.34-4.9h.61l1.35,4.9,1.3-4.9h.81l-1.68,5.88h-.79Z"/><path d="M77.54,159a2.12,2.12,0,0,1,2,2.45H76.14a1.64,1.64,0,0,0,2.85.94l.31.43C76.25,165.65,73.42,159.36,77.54,159Zm-1.4,2h2.79C79.07,159.17,76.06,159.13,76.14,161Z"/><path d="M80.74,157.48h.66v2.26c4.3-3.65,4.31,6.63,0,3v.64h-.66Zm1.93,5.39c2.85-.24.7-5.16-1.27-2.6v1.93A1.57,1.57,0,0,0,82.67,162.87Z"/><path d="M92,162.05H89l-.52,1.31h-.81L90,157.48H91l2.38,5.88h-.82Zm-2.77-.65h2.55l-1.27-3.27Z"/><path d="M94.15,165V159.1h.67v.63c4.31-3.64,4.29,6.65,0,3V165Zm1.94-5.4a1.56,1.56,0,0,0-1.27.68v1.93C96.78,164.74,98.91,159.83,96.09,159.58Z"/><path d="M99.3,165V159.1H100v.63c4.31-3.64,4.29,6.65,0,3V165Zm1.94-5.4a1.55,1.55,0,0,0-1.27.68v1.93C101.93,164.74,104.06,159.83,101.24,159.58Z"/><path d="M106.84,157.48h3.86v.65h-3.12V160h3.06v.65h-3.06v2.68h-.74Z"/><path d="M111.64,158a.45.45,0,0,1,.89,0A.45.45,0,0,1,111.64,158Zm.11,1.13h.67v4.26h-.67Z"/><path d="M113.83,159.1h.66v.69a1.81,1.81,0,0,1,1.42-.78v.68c-2-.41-1.31,2.63-1.42,3.67h-.66Z"/><path d="M118.68,159a2.11,2.11,0,0,1,2,2.45h-3.44a1.63,1.63,0,0,0,2.84.94l.32.43C117.38,165.65,114.55,159.36,118.68,159Zm-1.4,2h2.79C120.21,159.17,117.2,159.13,117.28,161Z"/><path d="M124.45,159.94l-1.11,3.42h-.66l-1.36-4.26H122l1,3.39,1.12-3.39h.57l1.12,3.39,1-3.39h.68l-1.35,4.26h-.67Z"/><path d="M131.1,162.87c-3.75,2.7-3.74-4.33,0-1.64.41-1.58-1.35-2.24-2.38-1.07l-.31-.46c3.45-2.34,3.55,1.1,3.35,3.66h-.66Zm0-1.21c-2.86-2.26-2.86,3.06,0,.8Z"/><path d="M133.17,157.48h.67v5.88h-.67Z"/><path d="M135.25,157.48h.66v5.88h-.66Z"/><path d="M144.38,161.22a1,1,0,0,1,1.91,0A1,1,0,0,1,144.38,161.22Z"/><path d="M150.12,162c1.51,2.11,5.39-.37,1.75-1.28-4.5-.91-.34-5.13,2.12-2.48l-.45.54c-.65-.86-2.83-1.1-2.91.23.33,1.45,3.63.66,3.49,2.76.28,1.91-3.5,2.24-4.43.79Z"/><path d="M157.12,159a2.11,2.11,0,0,1,2,2.45h-3.45a1.64,1.64,0,0,0,2.85.94l.32.43C155.83,165.65,153,159.36,157.12,159Zm-1.4,2h2.8C158.65,159.17,155.64,159.13,155.72,161Z"/><path d="M162.2,159a1.85,1.85,0,0,1,1.57.74l-.45.41c-3.28-2.72-3.29,4.89,0,2.18l.45.4C160.91,165.79,158.05,159.19,162.2,159Z"/><path d="M167.65,162.76c-3.22,2.46-3-1.56-2.87-3.66h.66c0,1.59-.41,5.41,2.21,3.13V159.1h.67v4.26h-.67Z"/><path d="M169.73,159.1h.66v.69a1.8,1.8,0,0,1,1.42-.78v.68c-2-.41-1.31,2.63-1.42,3.67h-.66Z"/><path d="M174.58,159a2.11,2.11,0,0,1,2,2.45h-3.45a1.64,1.64,0,0,0,2.85.94l.32.43C173.28,165.65,170.45,159.36,174.58,159Zm-1.41,2H176C176.11,159.17,173.1,159.13,173.17,161Z"/><path d="M183.87,162.05h-3l-.52,1.31h-.81l2.36-5.88h.91l2.37,5.88h-.81Zm-2.77-.65h2.55l-1.27-3.27Z"/><path d="M187.91,159a1.83,1.83,0,0,1,1.56.74l-.44.41c-3.29-2.72-3.29,4.89,0,2.18l.44.4C186.61,165.79,183.75,159.19,187.91,159Z"/><path d="M192.36,159a1.82,1.82,0,0,1,1.56.74l-.44.41c-3.29-2.72-3.29,4.89,0,2.18l.44.4C191.06,165.79,188.2,159.19,192.36,159Z"/><path d="M196.79,159a2.12,2.12,0,0,1,2.05,2.45h-3.45a1.64,1.64,0,0,0,2.85.94l.31.43C195.49,165.65,192.67,159.36,196.79,159Zm-1.4,2h2.79C198.32,159.17,195.31,159.13,195.39,161Z"/><path d="M200,162.32c.4.65,2.41,1,2.41-.1-.19-1.15-2.73-.48-2.64-2-.11-1.38,2.49-1.55,3.17-.61l-.31.46c-.35-.6-2.19-.84-2.21.1.26,1.07,2.74.43,2.63,2,.12,1.45-2.58,1.67-3.39.61Z"/><path d="M204.15,162.32c.4.65,2.41,1,2.41-.1-.19-1.15-2.73-.48-2.64-2-.11-1.38,2.49-1.55,3.17-.61l-.31.46c-.35-.6-2.2-.84-2.21.1.26,1.07,2.74.43,2.63,2,.11,1.45-2.58,1.67-3.39.61Z"/><path d="M215.43,161.22a1,1,0,0,1,1.9,0A1,1,0,0,1,215.43,161.22Z"/><path d="M221.09,157.48c6.75-1.09,6.75,7,0,5.88Zm2,5.23c3.88-.44,2.41-5.51-1.28-4.58v4.58Z"/><path d="M229.18,159a2.11,2.11,0,0,1,2,2.45h-3.45a1.64,1.64,0,0,0,2.85.94l.32.43C227.88,165.65,225.05,159.36,229.18,159Zm-1.41,2h2.8C230.71,159.17,227.7,159.13,227.77,161Z"/><path d="M235.25,160.57c.06-1.43-1.72-1.09-2.21-.32v3.11h-.66V159.1H233v.62c3.12-2.51,3,1.56,2.87,3.64h-.66Z"/><path d="M237.21,158a.45.45,0,0,1,.89,0A.45.45,0,0,1,237.21,158Zm.12,1.13H238v4.26h-.66Z"/><path d="M242.06,162.87c-3.75,2.7-3.74-4.33,0-1.64.41-1.58-1.36-2.24-2.38-1.07l-.31-.46c3.45-2.34,3.55,1.1,3.35,3.66h-.66Zm0-1.21c-2.86-2.26-2.86,3.06,0,.8Z"/><path d="M244.13,157.48h.66v5.88h-.66Z"/><path d="M248.32,161.22c-.15-2.9,4.37-2.9,4.22,0C252.69,164.14,248.17,164.14,248.32,161.22Zm3.52,0a1.42,1.42,0,1,0-2.83,0A1.42,1.42,0,1,0,251.84,161.22Z"/><path d="M253.89,159.68h-.71v-.58h.71c-.2-1.22.83-2.11,1.87-1.56l-.16.49c-.72-.39-1.18.33-1,1.07h.86v.58h-.86v3.68h-.66Z"/><path d="M258.75,162c1.51,2.11,5.39-.37,1.75-1.28-4.5-.91-.34-5.13,2.12-2.48l-.44.54c-1.47-1.86-4.83.46-1.49,1.2,4.74,1,.26,5.51-2.37,2.58Z"/><path d="M265.76,159a2.11,2.11,0,0,1,2,2.45h-3.45a1.64,1.64,0,0,0,2.85.94l.32.43C264.46,165.65,261.63,159.36,265.76,159Zm-1.41,2h2.8C267.28,159.17,264.28,159.13,264.35,161Z"/><path d="M269,159.1h.66v.69A1.81,1.81,0,0,1,271,159v.68c-2-.41-1.31,2.63-1.42,3.67H269Z"/><path d="M271.32,159.1H272l1.42,3.49,1.42-3.49h.72l-1.77,4.26h-.73Z"/><path d="M276.25,158a.45.45,0,0,1,.89,0A.45.45,0,0,1,276.25,158Zm.11,1.13H277v4.26h-.66Z"/><path d="M280.31,159a1.85,1.85,0,0,1,1.57.74l-.45.41c-3.28-2.72-3.29,4.89,0,2.18l.45.4C279,165.79,276.16,159.19,280.31,159Z"/><path d="M284.74,159a2.12,2.12,0,0,1,2.05,2.45h-3.45a1.64,1.64,0,0,0,2.85.94l.31.43C283.45,165.65,280.62,159.36,284.74,159Zm-1.4,2h2.79C286.27,159.17,283.26,159.13,283.34,161Z"/><path d="M295,161.22a1,1,0,0,1,1.91,0A1,1,0,0,1,295,161.22Z"/><path d="M304.37,162.05h-3l-.52,1.31h-.81l2.36-5.88h.91l2.37,5.88h-.81Zm-2.77-.65h2.55l-1.27-3.27Z"/><path d="M309.41,160.57c0-1.43-1.73-1.09-2.22-.32v3.11h-.66V159.1h.66v.62c3.12-2.51,3,1.56,2.88,3.64h-.66Z"/><path d="M311.61,162.47v-2.79h-.71v-.58h.71v-1.17h.66v1.17h.87v.58h-.87c.17.51-.57,4.06.88,3l.2.49C312.79,163.73,311.49,163.48,311.61,162.47Z"/><path d="M314,158a.45.45,0,0,1,.89,0A.45.45,0,0,1,314,158Zm.12,1.13h.66v4.26h-.66Z"/><path d="M315.83,160.93H318v.58h-2.12Z"/><path d="M319,157.48h3.85v.65h-3.12V160h3.06v.65h-3.06v2.68H319Z"/><path d="M323.9,159.1h.66v.69A1.83,1.83,0,0,1,326,159v.68c-2-.41-1.31,2.63-1.42,3.67h-.66Z"/><path d="M329.56,162.87c-3.74,2.7-3.74-4.33,0-1.64.42-1.58-1.35-2.24-2.38-1.07l-.31-.46c3.45-2.34,3.55,1.1,3.35,3.66h-.66Zm0-1.21c-2.86-2.26-2.86,3.06,0,.8Z"/><path d="M334.51,162.76c-3.22,2.46-3-1.56-2.87-3.66h.66c0,1.59-.41,5.41,2.21,3.13V159.1h.66v4.26h-.66Z"/><path d="M339.67,162.72c-4.31,3.65-4.3-6.63,0-3v-2.26h.66v5.88h-.66Zm0-2.45c-3.41-3.15-3.44,5,0,1.93Z"/><path d="M348.85,163.36h-.92l-.64-.62c-2.09,2.32-5.35-1.27-2.22-2.67-2.38-4.43,5.65-2.4.86.13a18.86,18.86,0,0,0,1.38,1.62,5.65,5.65,0,0,0,.62-1.34l.57.25a7.22,7.22,0,0,1-.8,1.52C348.06,162.61,348.43,163,348.85,163.36Zm-2-1a15.58,15.58,0,0,1-1.54-1.83C343.25,161.58,345.46,164.06,346.89,162.34Zm-1.24-2.56c1-.29,1.78-1.71.46-1.87C345.13,157.94,345.15,159.09,345.65,159.78Z"/><path d="M355.94,162.05h-3l-.52,1.31h-.81l2.36-5.88h.91l2.37,5.88h-.81Zm-2.77-.65h2.55l-1.27-3.27Z"/><path d="M361,160.57c.06-1.43-1.72-1.09-2.21-.32v3.11h-.66V159.1h.66v.62c3.12-2.51,3,1.56,2.88,3.64H361Z"/><path d="M363.18,162.47v-2.79h-.71v-.58h.71v-1.17h.66v1.17h.86v.58h-.86c.17.51-.57,4.06.88,3l.2.49C364.36,163.73,363.06,163.48,363.18,162.47Z"/><path d="M365.61,158a.45.45,0,0,1,.89,0A.45.45,0,0,1,365.61,158Zm.12,1.13h.66v4.26h-.66Z"/><path d="M367.4,160.93h2.12v.58H367.4Z"/><path d="M370.56,157.48h2.62c1.86-.17,2.21,2.5.62,2.84a1.55,1.55,0,0,1-.56,3h-2.68Zm2.5,2.55a1,1,0,1,0,0-1.9h-1.76V160Zm0,2.68a1,1,0,1,0,0-2h-1.8v2Z"/><path d="M375.92,161.22c-.16-2.9,4.37-2.9,4.22,0C380.29,164.14,375.77,164.14,375.92,161.22Zm3.52,0a1.42,1.42,0,1,0-2.83,0A1.42,1.42,0,1,0,379.44,161.22Z"/><path d="M381.43,162.47v-2.79h-.7v-.58h.7v-1.17h.66v1.17H383v.58h-.87c.18.51-.57,4.06.88,3l.2.49C382.62,163.73,381.31,163.48,381.43,162.47Z"/><path d="M80.57,204.26a1,1,0,0,1,1.9,0A1,1,0,0,1,80.57,204.26Z"/><path d="M86.23,200.51H87v5.23h2.73v.66H86.23Z"/><path d="M90.35,204.26c-.15-2.9,4.37-2.9,4.22,0C94.72,207.18,90.2,207.18,90.35,204.26Zm3.52,0a1.43,1.43,0,1,0-2.83,0A1.43,1.43,0,1,0,93.87,204.26Z"/><path d="M98.4,205.91c-3.75,2.7-3.75-4.34,0-1.64C98.81,202.69,97,202,96,203.2l-.3-.46c3.45-2.34,3.54,1.1,3.35,3.66H98.4Zm0-1.22c-2.86-2.25-2.86,3.06,0,.81Z"/><path d="M103.55,205.76c-4.3,3.64-4.29-6.63,0-3v-2.27h.67v5.89h-.67Zm0-2.45c-3.4-3.15-3.43,5,0,1.93Z"/><path d="M108,200.51h2.62c1.86-.16,2.21,2.5.61,2.85a1.55,1.55,0,0,1-.55,3H108Zm2.49,2.55a1,1,0,1,0,0-1.89h-1.76v1.89Zm0,2.68a1,1,0,1,0,0-2h-1.8v2Z"/><path d="M116.29,205.91c-3.75,2.7-3.74-4.34,0-1.64.41-1.58-1.36-2.24-2.38-1.07l-.31-.46c3.45-2.34,3.55,1.1,3.35,3.66h-.66Zm0-1.22c-2.86-2.25-2.86,3.06,0,.81Z"/><path d="M118.36,200.51H119v5.89h-.66Z"/><path d="M123.1,205.91c-3.75,2.7-3.75-4.34,0-1.64.41-1.58-1.36-2.24-2.39-1.07l-.3-.46c3.45-2.34,3.54,1.1,3.35,3.66h-.66Zm0-1.22c-2.86-2.25-2.86,3.06,0,.81Z"/><path d="M128,203.61c.06-1.43-1.72-1.09-2.21-.33v3.12h-.66v-4.26h.66v.61c3.12-2.51,3,1.57,2.87,3.65H128Z"/><path d="M132,202a1.82,1.82,0,0,1,1.56.74l-.44.41c-3.28-2.72-3.29,4.89,0,2.18l.44.4C130.69,208.83,127.84,202.23,132,202Z"/><path d="M136.42,202a2.12,2.12,0,0,1,2.05,2.45H135a1.64,1.64,0,0,0,2.85.94l.31.43C135.12,208.69,132.3,202.4,136.42,202Zm-1.4,2h2.79C138,202.21,134.94,202.17,135,204Z"/><path d="M139.62,202.14h.66v.68a1.82,1.82,0,0,1,1.42-.77v.68c-2-.41-1.31,2.63-1.42,3.67h-.66Z"/><path d="M149.68,204.26a1,1,0,0,1,1.91,0A1,1,0,0,1,149.68,204.26Z"/><path d="M155.34,200.51h.74v5.89h-.74Z"/><path d="M160.39,203.61c.06-1.43-1.73-1.09-2.22-.33v3.12h-.66v-4.26h.66v.61c3.13-2.51,3,1.57,2.88,3.65h-.66Z"/><path d="M162.79,207a1.55,1.55,0,0,0,2.75-1.31c-4.28,3.68-4.31-6.56,0-2.91v-.64h.66c0,2.75.7,8-3.75,5.35Zm2.75-3.69c-3.42-3.16-3.4,5,0,1.86Z"/><path d="M167.61,202.14h.66v.68a1.8,1.8,0,0,1,1.42-.77v.68c-2-.41-1.31,2.63-1.42,3.67h-.66Z"/><path d="M172.46,202a2.12,2.12,0,0,1,2,2.45h-3.45a1.64,1.64,0,0,0,2.85.94l.31.43C171.16,208.69,168.34,202.4,172.46,202Zm-1.4,2h2.79C174,202.21,171,202.17,171.06,204Z"/><path d="M175.63,205.36c.4.64,2.41,1,2.41-.1-.19-1.15-2.73-.48-2.64-2-.11-1.38,2.49-1.56,3.17-.61l-.31.46c-.35-.61-2.19-.84-2.21.1.26,1.07,2.74.43,2.64,2,.11,1.46-2.59,1.68-3.4.62Z"/><path d="M179.82,205.36c.4.64,2.41,1,2.41-.1-.19-1.15-2.73-.48-2.64-2-.11-1.38,2.49-1.56,3.17-.61l-.31.46c-.35-.61-2.2-.84-2.21.1.26,1.07,2.74.43,2.63,2,.11,1.46-2.58,1.68-3.39.62Z"/><path d="M186.19,203.46c-.17-2.89,3.82-4.11,5.26-1.88l-.62.34a2.19,2.19,0,0,0-3.88,1.54c-.13,2.18,2.71,3.25,3.88,1.53l.62.35C190,207.57,186,206.35,186.19,203.46Z"/><path d="M192.2,204.26c-.15-2.9,4.37-2.9,4.22,0C196.57,207.18,192.05,207.18,192.2,204.26Zm3.52,0a1.43,1.43,0,1,0-2.83,0A1.43,1.43,0,1,0,195.72,204.26Z"/><path d="M200.46,203.61c.06-1.43-1.73-1.09-2.22-.33v3.12h-.66v-4.26h.66v.61c3.13-2.51,3,1.57,2.88,3.65h-.66Z"/><path d="M202.66,205.51v-2.79H202v-.58h.7V201h.66v1.17h.87v.58h-.87c.18.51-.57,4.06.89,3l.19.5C203.85,206.76,202.54,206.52,202.66,205.51Z"/><path d="M205.21,202.14h.66v.68a1.82,1.82,0,0,1,1.42-.77v.68c-2-.41-1.31,2.63-1.42,3.67h-.66Z"/><path d="M208,204.26c-.15-2.9,4.37-2.9,4.22,0C212.33,207.18,207.81,207.18,208,204.26Zm3.52,0a1.43,1.43,0,1,0-2.83,0A1.43,1.43,0,1,0,211.48,204.26Z"/><path d="M213.34,200.51H214v5.89h-.66Z"/><path d="M215.41,200.51h.66v5.89h-.66Z"/><path d="M219.34,202a2.11,2.11,0,0,1,2,2.45h-3.45a1.64,1.64,0,0,0,2.85.94l.32.43C218,208.69,215.21,202.4,219.34,202Zm-1.41,2h2.8C220.87,202.21,217.86,202.17,217.93,204Z"/><path d="M222.54,202.14h.66v.68a1.8,1.8,0,0,1,1.42-.77v.68c-2-.41-1.31,2.63-1.42,3.67h-.66Z"/><path d="M232.6,204.26a1,1,0,0,1,1.9,0A1,1,0,0,1,232.6,204.26Z"/><path d="M242,205.09h-3l-.52,1.31h-.81l2.37-5.89h.9l2.38,5.89h-.81Zm-2.76-.65h2.54l-1.27-3.27Z"/><path d="M244.15,200.51h2.36a1.78,1.78,0,1,1,0,3.55h-1.63v2.34h-.73Zm2.28.66h-1.55v2.24h1.55A1.12,1.12,0,1,0,246.43,201.17Z"/><path d="M249.42,200.51h.73v5.89h-.73Z"/><path d="M256.76,200.42a2.83,2.83,0,0,1,2.29,1.1l-.59.36c-4.88-3.82-5.34,6.65-.12,3.34V204h-2v-.65h2.75v2.13C254.79,209.61,250.86,200.85,256.76,200.42Z"/><path d="M263,205.91c-3.75,2.7-3.74-4.34,0-1.64.41-1.58-1.36-2.24-2.38-1.07l-.31-.46c3.45-2.34,3.54,1.1,3.35,3.66H263Zm0-1.22c-2.86-2.25-2.86,3.06,0,.81Z"/><path d="M265.19,205.51v-2.79h-.7v-.58h.7V201h.66v1.17h.87v.58h-.87c.18.51-.57,4.06.88,3l.2.5C266.38,206.76,265.07,206.52,265.19,205.51Z"/><path d="M269.59,202a2.12,2.12,0,0,1,2.05,2.45h-3.45a1.64,1.64,0,0,0,2.85.94l.32.43C268.3,208.69,265.47,202.4,269.59,202Zm-1.4,2H271C271.12,202.21,268.11,202.17,268.19,204Z"/><path d="M275.37,203l-1.11,3.43h-.66l-1.36-4.26h.69l1,3.39,1.12-3.39h.56l1.12,3.39,1-3.39h.69l-1.36,4.26h-.66Z"/><path d="M282,205.91c-3.75,2.7-3.74-4.34,0-1.64.41-1.58-1.36-2.24-2.38-1.07l-.31-.46c3.45-2.34,3.54,1.1,3.35,3.66H282Zm0-1.22c-2.86-2.25-2.86,3.06,0,.81Z"/><path d="M284.32,207.53c.53.1.73-.7.92-1.09l-1.79-4.3h.72l1.42,3.49,1.41-3.49h.72c-.8,1-1.73,6.84-3.87,5.92l.11-.6A.86.86,0,0,0,284.32,207.53Z"/><path d="M295.56,204.26a1,1,0,0,1,1.91,0A1,1,0,0,1,295.56,204.26Z"/><path d="M304.93,205.09h-3l-.52,1.31h-.82l2.37-5.89h.91l2.37,5.89h-.81Zm-2.77-.65h2.55l-1.27-3.27Z"/><path d="M307.09,208v-5.88h.66v.63c4.31-3.64,4.29,6.65,0,3V208Zm1.93-5.4a1.58,1.58,0,0,0-1.27.68v1.92C309.71,207.78,311.85,202.87,309,202.62Z"/><path d="M312.24,208v-5.88h.66v.63c4.31-3.64,4.29,6.65,0,3V208Zm1.93-5.4a1.58,1.58,0,0,0-1.27.68v1.92C314.86,207.78,317,202.87,314.17,202.62Z"/><path d="M318.81,200.34h.53l-2.09,6.23h-.53Z"/><path d="M323.31,201.65,322,206.4h-.8l-1.67-5.89h.81l1.3,4.91,1.35-4.91h.61l1.35,4.91,1.3-4.91h.81l-1.68,5.89h-.79Z"/><path d="M329.46,202a2.11,2.11,0,0,1,2,2.45h-3.44a1.63,1.63,0,0,0,2.84.94l.32.43C328.16,208.69,325.33,202.4,329.46,202Zm-1.4,2h2.79C331,202.21,328,202.17,328.06,204Z"/><path d="M332.66,200.51h.66v2.27c4.29-3.65,4.31,6.62,0,3v.64h-.66Zm1.93,5.4c2.85-.24.7-5.16-1.27-2.6v1.93A1.57,1.57,0,0,0,334.59,205.91Z"/><path d="M340.29,205c1.5,2.11,5.39-.37,1.74-1.29-4.49-.9-.34-5.12,2.12-2.47l-.44.53c-1.47-1.86-4.83.46-1.48,1.2,4.73,1,.25,5.52-2.38,2.59Z"/><path d="M347.29,202a2.12,2.12,0,0,1,2,2.45h-3.45a1.64,1.64,0,0,0,2.85.94l.31.43C346,208.69,343.17,202.4,347.29,202Zm-1.4,2h2.79C348.82,202.21,345.81,202.17,345.89,204Z"/><path d="M350.49,202.14h.66v.68a1.82,1.82,0,0,1,1.42-.77v.68c-2-.41-1.31,2.63-1.42,3.67h-.66Z"/><path d="M352.85,202.14h.72l1.42,3.49,1.41-3.49h.72l-1.77,4.26h-.72Z"/><path d="M359.75,202a2.11,2.11,0,0,1,2,2.45h-3.44a1.64,1.64,0,0,0,2.85.94l.31.43C358.45,208.69,355.63,202.4,359.75,202Zm-1.4,2h2.79C361.28,202.21,358.27,202.17,358.35,204Z"/><path d="M363,202.14h.66v.68a1.8,1.8,0,0,1,1.42-.77v.68c-2-.41-1.31,2.63-1.42,3.67H363Z"/><path d="M90.08,247.3a1,1,0,0,1,1.9,0A1,1,0,0,1,90.08,247.3Z"/><path d="M99.91,246.74H96.47v2.69h-.73v-5.88h.73v2.53h3.44v-2.53h.73v5.88h-.73Z"/><path d="M102,244.05a.45.45,0,0,1,.89,0A.45.45,0,0,1,102,244.05Zm.12,1.12h.66v4.26h-.66Z"/><path d="M104.48,250a1.55,1.55,0,0,0,2.75-1.3c-4.28,3.68-4.31-6.57,0-2.91v-.65h.66c0,2.76.7,8-3.75,5.36Zm2.75-3.68c-3.42-3.16-3.4,5,0,1.86Z"/><path d="M112.18,246.63c0-1.42-1.72-1.07-2.22-.31v3.11h-.66v-5.88H110v2.24c3.22-2.49,3,1.53,2.88,3.64h-.66Z"/><path d="M113.86,247H116v.58h-2.11Z"/><path d="M117.09,248.05c1.51,2.11,5.39-.37,1.75-1.29-4.5-.9-.34-5.12,2.12-2.48l-.44.54c-.66-.86-2.84-1.09-2.91.23.32,1.46,3.62.67,3.48,2.76.28,1.92-3.5,2.24-4.43.8Z"/><path d="M122.24,251.06v-5.89h.67v.64c4.31-3.65,4.29,6.64,0,3v2.27Zm1.94-5.4a1.56,1.56,0,0,0-1.27.68v1.92C124.87,250.82,127,245.91,124.18,245.66Z"/><path d="M129.25,245.07a2.11,2.11,0,0,1,2,2.45h-3.45a1.64,1.64,0,0,0,2.85.94l.32.43C128,251.72,125.12,245.44,129.25,245.07Zm-1.41,2h2.8C130.78,245.25,127.77,245.21,127.84,247Z"/><path d="M134.3,245.07a2.11,2.11,0,0,1,2,2.45H132.9a1.64,1.64,0,0,0,2.85.94l.31.43C133,251.72,130.18,245.44,134.3,245.07Zm-1.4,2h2.79C135.83,245.25,132.82,245.21,132.9,247Z"/><path d="M140.59,248.8c-4.31,3.64-4.3-6.63,0-3v-2.27h.66v5.88h-.66Zm0-2.45c-3.41-3.15-3.44,5,0,1.93Z"/><path d="M145.05,243.55h.73v5.23h2.73v.65h-3.46Z"/><path d="M149.17,247.3c-.15-2.9,4.38-2.9,4.22,0C153.54,250.21,149,250.21,149.17,247.3Zm3.52,0a1.43,1.43,0,1,0-2.83,0A1.43,1.43,0,1,0,152.69,247.3Z"/><path d="M154.88,250a1.55,1.55,0,0,0,2.75-1.3c-4.27,3.68-4.3-6.57,0-2.91v-.65h.66c0,2.76.7,8-3.75,5.36Zm2.75-3.68c-3.41-3.16-3.4,5,0,1.86Z"/><path d="M160,250a1.55,1.55,0,0,0,2.75-1.3c-4.27,3.68-4.3-6.57,0-2.91v-.65h.66c0,2.76.7,8-3.75,5.36Zm2.75-3.68c-3.41-3.16-3.4,5,0,1.86Z"/><path d="M164.74,244.05a.45.45,0,0,1,.89,0A.45.45,0,0,1,164.74,244.05Zm.11,1.12h.67v4.26h-.67Z"/><path d="M169.8,246.65c.06-1.43-1.72-1.09-2.21-.33v3.11h-.66v-4.26h.66v.62c3.12-2.51,3,1.57,2.87,3.64h-.66Z"/><path d="M172.2,250a1.55,1.55,0,0,0,2.75-1.3c-4.27,3.68-4.3-6.57,0-2.91v-.65h.66c0,2.76.7,8-3.75,5.36Zm2.75-3.68c-3.41-3.16-3.4,5,0,1.86Z"/><path d="M184.09,247.3a1,1,0,0,1,1.9,0A1,1,0,0,1,184.09,247.3Z"/><path d="M191.65,247.1h-1.17v2.33h-.73v-5.88h2.36c2.27-.19,2.43,3.42.32,3.49l1.59,2.39h-.87Zm.37-2.9h-1.54v2.25H192A1.13,1.13,0,1,0,192,244.2Z"/><path d="M196.76,245.07a2.11,2.11,0,0,1,2,2.45h-3.44a1.63,1.63,0,0,0,2.84.94l.32.43C195.46,251.72,192.63,245.44,196.76,245.07Zm-1.4,2h2.79C198.29,245.25,195.28,245.21,195.36,247Z"/><path d="M200,251.06v-5.89h.66v.64c4.31-3.65,4.29,6.64,0,3v2.27Zm1.93-5.4a1.58,1.58,0,0,0-1.27.68v1.92C202.58,250.82,204.72,245.91,201.89,245.66Z"/><path d="M204.86,247.3c-.15-2.9,4.37-2.9,4.22,0C209.23,250.21,204.71,250.21,204.86,247.3Zm3.52,0a1.43,1.43,0,1,0-2.83,0A1.43,1.43,0,1,0,208.38,247.3Z"/><path d="M210.24,245.17h.66v.69a1.82,1.82,0,0,1,1.42-.77v.68c-2-.42-1.31,2.63-1.42,3.66h-.66Z"/><path d="M213.37,248.54v-2.78h-.7v-.59h.7V244H214v1.16h.87v.59H214c.17.51-.57,4.05.88,3l.2.5C214.55,249.8,213.25,249.55,213.37,248.54Z"/><path d="M215.8,244.05a.45.45,0,0,1,.9,0A.45.45,0,0,1,215.8,244.05Zm.12,1.12h.66v4.26h-.66Z"/><path d="M220.87,246.65c.06-1.43-1.73-1.1-2.22-.33v3.11H218v-4.26h.66v.62c3.12-2.51,3,1.57,2.88,3.64h-.66Z"/><path d="M223.27,250a1.55,1.55,0,0,0,2.75-1.3c-4.28,3.68-4.31-6.57,0-2.91v-.65h.66c0,2.76.7,8-3.75,5.36Zm2.75-3.68c-3.42-3.16-3.4,5,0,1.86Z"/><path d="M235.2,249.43h-.92a8.45,8.45,0,0,1-.64-.61c-2.1,2.31-5.35-1.28-2.23-2.68-2.37-4.42,5.66-2.39.87.14a20.78,20.78,0,0,0,1.37,1.62,5.52,5.52,0,0,0,.63-1.34l.57.25a7.65,7.65,0,0,1-.8,1.51C234.4,248.68,234.77,249,235.2,249.43Zm-2-1a14.74,14.74,0,0,1-1.54-1.82C229.6,247.66,231.81,250.13,233.24,248.41ZM232,245.85c1-.29,1.77-1.7.46-1.87C231.48,244,231.5,245.17,232,245.85Z"/><path d="M242.29,248.13h-3l-.52,1.3H238l2.37-5.88h.91l2.37,5.88h-.81Zm-2.77-.65h2.55l-1.27-3.28Z"/><path d="M247.32,246.65c.06-1.43-1.72-1.1-2.21-.33v3.11h-.66v-4.26h.66v.62c3.12-2.51,3,1.57,2.87,3.64h-.66Z"/><path d="M252.06,249c-3.75,2.7-3.74-4.34,0-1.64.41-1.58-1.36-2.25-2.38-1.08l-.31-.46c3.45-2.33,3.54,1.11,3.35,3.66h-.66Zm0-1.22c-2.86-2.26-2.86,3.06,0,.8Z"/><path d="M254.13,243.55h.66v5.88h-.66Z"/><path d="M256.43,250.57c.53.09.73-.71.92-1.09l-1.78-4.31h.71l1.42,3.5,1.41-3.5h.72c-.8,1-1.73,6.85-3.87,5.93l.11-.6A.89.89,0,0,0,256.43,250.57Z"/><path d="M260.74,248.54v-2.78H260v-.59h.7V244h.66v1.16h.87v.59h-.87c.18.51-.57,4.05.89,3l.19.5C261.93,249.8,260.62,249.55,260.74,248.54Z"/><path d="M263.18,244.05a.45.45,0,0,1,.89,0A.45.45,0,0,1,263.18,244.05Zm.11,1.12H264v4.26h-.66Z"/><path d="M267.24,245.07a1.82,1.82,0,0,1,1.56.74l-.44.41c-3.29-2.73-3.29,4.89,0,2.17l.44.41C265.94,251.86,263.08,245.26,267.24,245.07Z"/><path d="M269.79,248.39c.4.65,2.4,1,2.41-.09-.19-1.15-2.73-.48-2.64-2-.12-1.38,2.48-1.55,3.17-.6l-.31.45c-.35-.6-2.2-.83-2.22.11.27,1.07,2.75.43,2.64,2,.11,1.46-2.58,1.67-3.39.62Z"/><path d="M281.07,247.3a1,1,0,0,1,1.9,0A1,1,0,0,1,281.07,247.3Z"/><path d="M286.73,243.55c6.75-1.09,6.75,7,0,5.88Zm2,5.23c3.88-.44,2.41-5.51-1.28-4.58v4.58Z"/><path d="M295.63,249c-3.75,2.7-3.74-4.34,0-1.64.41-1.58-1.36-2.25-2.38-1.08l-.31-.46c3.45-2.33,3.55,1.11,3.35,3.66h-.66Zm0-1.22c-2.86-2.26-2.86,3.06,0,.8Z"/><path d="M297.83,248.54v-2.78h-.7v-.59h.7V244h.66v1.16h.87v.59h-.87c.18.51-.57,4.05.88,3l.2.5C299,249.8,297.71,249.55,297.83,248.54Z"/><path d="M303,249c-3.74,2.7-3.74-4.34,0-1.64.42-1.58-1.35-2.25-2.38-1.08l-.31-.46c3.45-2.33,3.55,1.11,3.36,3.66H303Zm0-1.22c-2.85-2.26-2.86,3.06,0,.8Z"/><path d="M311.21,248.13h-3l-.52,1.3h-.81l2.36-5.88h.91l2.37,5.88h-.81Zm-2.77-.65H311l-1.27-3.28Z"/><path d="M313.7,250a1.55,1.55,0,0,0,2.75-1.3c-4.28,3.68-4.31-6.57,0-2.91v-.65h.66c0,2.76.7,8-3.75,5.36Zm2.75-3.68c-3.42-3.16-3.4,5,0,1.86Z"/><path d="M318.85,250a1.55,1.55,0,0,0,2.75-1.3c-4.28,3.68-4.31-6.57,0-2.91v-.65h.66c0,2.76.7,8-3.75,5.36Zm2.75-3.68c-3.42-3.16-3.4,5,0,1.86Z"/><path d="M323.67,245.17h.66v.69a1.8,1.8,0,0,1,1.42-.77v.68c-2-.42-1.31,2.63-1.42,3.66h-.66Z"/><path d="M328.52,245.07a2.12,2.12,0,0,1,2.05,2.45h-3.45a1.64,1.64,0,0,0,2.85.94l.31.43C327.22,251.72,324.4,245.44,328.52,245.07Zm-1.4,2h2.79C330.05,245.25,327,245.21,327.12,247Z"/><path d="M332.05,250a1.55,1.55,0,0,0,2.75-1.3c-4.28,3.68-4.31-6.57,0-2.91v-.65h.66c0,2.76.7,8-3.75,5.36Zm2.75-3.68c-3.42-3.16-3.4,5,0,1.86Z"/><path d="M339.53,249c-3.74,2.7-3.74-4.34,0-1.64.41-1.58-1.35-2.25-2.38-1.08l-.31-.46c3.45-2.33,3.55,1.11,3.35,3.66h-.66Zm0-1.22c-2.86-2.26-2.86,3.06,0,.8Z"/><path d="M341.74,248.54v-2.78H341v-.59h.71V244h.66v1.16h.86v.59h-.86c.17.51-.57,4.05.88,3l.19.5C342.92,249.8,341.62,249.55,341.74,248.54Z"/><path d="M344.17,244.05a.45.45,0,0,1,.89,0A.45.45,0,0,1,344.17,244.05Zm.12,1.12H345v4.26h-.66Z"/><path d="M346.11,247.3c-.15-2.9,4.37-2.9,4.22,0C350.48,250.21,346,250.21,346.11,247.3Zm3.52,0a1.43,1.43,0,1,0-2.83,0A1.43,1.43,0,1,0,349.63,247.3Z"/><path d="M354.37,246.65c.05-1.43-1.73-1.1-2.22-.33v3.11h-.66v-4.26h.66v.62c3.12-2.51,3,1.57,2.88,3.64h-.66Z"/></g></g></svg>