<svg xmlns="http://www.w3.org/2000/svg" viewBox="0 0 751.37 244.86"><defs><style>.cls-1,.cls-15,.cls-2{fill:#fff;}.cls-1,.cls-10,.cls-11,.cls-15,.cls-4,.cls-5{stroke:#000;}.cls-1,.cls-10,.cls-14,.cls-15,.cls-4,.cls-7,.cls-8{stroke-linecap:round;}.cls-1,.cls-11,.cls-14,.cls-5,.cls-7,.cls-8{stroke-miterlimit:10;}.cls-3{fill:#221f1f;}.cls-10,.cls-11,.cls-14,.cls-4,.cls-5,.cls-7,.cls-8{fill:none;}.cls-10,.cls-15,.cls-4{stroke-linejoin:round;}.cls-6{fill:#010101;}.cls-7{stroke:#343434;}.cls-8{stroke:#999;}.cls-9{fill:#999;}.cls-10,.cls-11{stroke-width:0.75px;}.cls-12{fill:#231f20;}.cls-13{fill:#343434;}.cls-14{stroke:#1db14b;}.cls-15{stroke-width:1.03px;}</style></defs><g id="Layer_2" data-name="Layer 2"><g id="Layer_1-2" data-name="Layer 1"><polyline class="cls-1" points="261.87 27.34 261.87 179.55 59.52 179.55 59.52 18.69 245.2 18.69"/><rect x="125.52" y="9.69" width="61.35" height="18"/><path class="cls-2" d="M139.54,16.49v1.8h1.82v1.4h-1.82v2.5H138v-7.1h3.67v1.4Z"/><path class="cls-2" d="M145.2,20.94h-1.45l-.29,1.25H142l1.52-7.1h2l1.54,7.1h-1.54Zm-.72-4L144,19.54h.9Z"/><path class="cls-2" d="M150.12,19.63h-.74v2.56h-1.55v-7.1h2.36A1.94,1.94,0,0,1,152.3,17v.66a1.85,1.85,0,0,1-.7,1.5l.92,3H150.9Zm-.74-1.4h.91a.44.44,0,0,0,.47-.47V17a.43.43,0,0,0-.46-.47h-.92Z"/><path class="cls-2" d="M156.93,16.49V18h1.72v1.4h-1.72v1.35h2.12v1.4h-3.67v-7.1h3.67v1.4Z"/><path class="cls-2" d="M164.44,17.11v3.06a2.05,2.05,0,0,1-2.26,2h-2.3v-7.1h2.29A2.06,2.06,0,0,1,164.44,17.11Zm-1.55,0a.56.56,0,0,0-.61-.6h-.85v4.3h.84a.56.56,0,0,0,.62-.6Z"/><path class="cls-2" d="M168.45,17.65v-.71c0-.36-.33-.6-.79-.6s-.8.24-.8.6v3.4c0,.36.34.6.79.6s.8-.24.8-.6v-.6h-.82v-1.4H170v2a2.37,2.37,0,0,1-4.68,0V17A2.37,2.37,0,0,1,170,17v.69Z"/><path class="cls-2" d="M172.47,16.49V18h1.72v1.4h-1.72v1.35h2.12v1.4h-3.67v-7.1h3.67v1.4Z"/><polyline class="cls-1" points="508.91 28.74 508.91 169.19 320.2 169.19 320.2 19.28 492.2 19.28"/><rect x="393.01" y="9.69" width="47.91" height="18"/><path class="cls-2" d="M409,16.49V18h1.72v1.4H409v1.35h2.12v1.4h-3.67v-7.1h3.67v1.4Z"/><path class="cls-2" d="M416.52,17.11v3.06a2.05,2.05,0,0,1-2.27,2H412v-7.1h2.29A2.06,2.06,0,0,1,416.52,17.11Zm-1.55,0a.57.57,0,0,0-.62-.6h-.85v4.3h.84a.57.57,0,0,0,.63-.6Z"/><path class="cls-2" d="M420.52,17.65v-.71c0-.36-.33-.6-.79-.6s-.8.24-.8.6v3.4c0,.36.34.6.79.6s.8-.24.8-.6v-.6h-.81v-1.4h2.36v2a2.37,2.37,0,0,1-4.69,0V17a2.37,2.37,0,0,1,4.69,0v.69Z"/><path class="cls-2" d="M424.55,16.49V18h1.71v1.4h-1.71v1.35h2.11v1.4H423v-7.1h3.66v1.4Z"/><polyline class="cls-1" points="726.32 27.74 726.32 169.74 565.32 169.74 565.32 18.69 710.2 18.69"/><rect x="589.77" y="9.69" width="114.1" height="18"/><path class="cls-2" d="M606.94,19.6v.79a2.13,2.13,0,0,1-4.24,0v-.64h1.55v.75c0,.3.2.48.57.48s.57-.18.57-.48v-1c0-.28-.13-.45-.34-.45h-2.16V15.09h3.78v1.4h-2.23v1.19h.63A1.82,1.82,0,0,1,606.94,19.6Z"/><path class="cls-2" d="M611,17.65v-.71c0-.36-.33-.6-.79-.6s-.8.24-.8.6v3.4c0,.36.34.6.79.6s.8-.24.8-.6v-.6h-.81v-1.4h2.36v2a2.37,2.37,0,0,1-4.69,0V17a2.37,2.37,0,0,1,4.69,0v.69Z"/><path class="cls-2" d="M615.41,20.32V17a2.37,2.37,0,0,1,4.69,0v.89h-1.57v-.91c0-.36-.26-.6-.77-.6s-.8.24-.8.6v3.4c0,.36.27.6.79.6s.78-.24.78-.6v-.91h1.57v.89a2.37,2.37,0,0,1-4.69,0Z"/><path class="cls-2" d="M621,20.32V17a2.39,2.39,0,0,1,4.72,0v3.36a2.39,2.39,0,0,1-4.72,0Zm3.17,0v-3.4c0-.36-.24-.6-.8-.6s-.82.24-.82.6v3.4c0,.36.24.6.81.6S624.13,20.7,624.13,20.34Z"/><path class="cls-2" d="M628.9,19.63h-.74v2.56h-1.55v-7.1H629A2,2,0,0,1,631.09,17v.66a1.86,1.86,0,0,1-.71,1.5l.92,3h-1.62Zm-.74-1.4h.91a.44.44,0,0,0,.47-.47V17a.43.43,0,0,0-.46-.47h-.92Z"/><path class="cls-2" d="M633.69,16.49V18h1.72v1.4h-1.72v1.35h2.12v1.4h-3.67v-7.1h3.67v1.4Z"/><path class="cls-2" d="M643.23,17.11v3.06a2.05,2.05,0,0,1-2.27,2h-2.3v-7.1H641A2.06,2.06,0,0,1,643.23,17.11Zm-1.55,0a.57.57,0,0,0-.62-.6h-.85v4.3h.84a.57.57,0,0,0,.63-.6Z"/><path class="cls-2" d="M647.08,20.94h-1.45l-.29,1.25h-1.51l1.53-7.1h2l1.54,7.1h-1.54Zm-.72-4-.45,2.56h.9Z"/><path class="cls-2" d="M653.43,16.49H652v5.7h-1.55v-5.7h-1.48v-1.4h4.49Z"/><path class="cls-2" d="M656.73,20.94h-1.45L655,22.19h-1.51l1.53-7.1h2l1.54,7.1H657ZM656,17l-.45,2.56h.9Z"/><path class="cls-2" d="M661.26,20.32V17A2.37,2.37,0,0,1,666,17v.89h-1.57v-.91c0-.36-.26-.6-.77-.6s-.8.24-.8.6v3.4c0,.36.27.6.79.6s.78-.24.78-.6v-.91H666v.89a2.37,2.37,0,0,1-4.69,0Z"/><path class="cls-2" d="M668.4,16.49V18h1.72v1.4H668.4v1.35h2.12v1.4h-3.67v-7.1h3.67v1.4Z"/><path class="cls-2" d="M675.91,15.09v7.1h-1.36l-1.85-4v4h-1.35v-7.1h1.35l1.85,4.06V15.09Z"/><path class="cls-2" d="M681.15,16.49h-1.47v5.7h-1.55v-5.7h-1.47v-1.4h4.49Z"/><path class="cls-2" d="M683.46,16.49V18h1.72v1.4h-1.72v1.35h2.12v1.4h-3.67v-7.1h3.67v1.4Z"/><path class="cls-2" d="M688.7,19.63H688v2.56h-1.55v-7.1h2.36A2,2,0,0,1,690.89,17v.66a1.86,1.86,0,0,1-.71,1.5l.92,3h-1.62Zm-.74-1.4h.91a.44.44,0,0,0,.47-.47V17a.43.43,0,0,0-.46-.47H688Z"/><path class="cls-3" d="M77.66,149.48H76.2v2.91h-.91v-7.33h2.95a2.13,2.13,0,0,1,2.3,2.21,2,2,0,0,1-1.91,2.13l2,3H79.53Zm.46-3.61H76.2v2.8h1.92a1.4,1.4,0,1,0,0-2.8Z"/><path class="cls-3" d="M84.93,151.79a2.3,2.3,0,0,1-1.76.73,1.76,1.76,0,0,1-1.85-1.75A1.73,1.73,0,0,1,83.17,149a2.22,2.22,0,0,1,1.76.72v-1c0-.71-.57-1.12-1.34-1.12a2.13,2.13,0,0,0-1.63.74l-.38-.57A2.75,2.75,0,0,1,83.7,147c1.12,0,2.06.5,2.06,1.79v3.65h-.83Zm0-1.52a1.77,1.77,0,0,0-1.46-.66,1.17,1.17,0,1,0,0,2.32,1.77,1.77,0,0,0,1.46-.66Z"/><path class="cls-3" d="M91.15,151.6a2.24,2.24,0,0,1-1.79.92c-1.39,0-2.37-1.05-2.37-2.78S88,147,89.36,147a2.23,2.23,0,0,1,1.79.93v-2.82H92v7.33h-.82Zm0-3.06a2,2,0,0,0-1.6-.86c-1.06,0-1.7.88-1.7,2.06s.64,2,1.7,2a2,2,0,0,0,1.6-.84Z"/><path class="cls-3" d="M93.37,145.63a.56.56,0,0,1,1.11,0,.56.56,0,1,1-1.11,0Zm.14,1.45h.83v5.31h-.83Z"/><path class="cls-3" d="M95.57,149.73c-.19-3.62,5.45-3.62,5.26,0C101,153.37,95.38,153.37,95.57,149.73Zm4.39,0a1.78,1.78,0,1,0-3.53,0A1.78,1.78,0,1,0,100,149.73Z"/><path class="cls-3" d="M109.44,150.77h-3.72l-.64,1.62h-1l3-7.33h1.13l3,7.33h-1ZM106,150h3.18l-1.59-4.08Z"/><path class="cls-3" d="M114.26,147a2.27,2.27,0,0,1,1.95.92l-.55.51a1.59,1.59,0,0,0-1.36-.7,2.07,2.07,0,0,0,0,4.11,1.63,1.63,0,0,0,1.36-.69l.55.5a2.27,2.27,0,0,1-1.95.92,2.79,2.79,0,0,1,0-5.57Z"/><path class="cls-3" d="M119.6,147a2.27,2.27,0,0,1,1.94.92l-.55.51a1.56,1.56,0,0,0-1.35-.7,2.07,2.07,0,0,0,0,4.11,1.6,1.6,0,0,0,1.35-.69l.55.5a2.27,2.27,0,0,1-1.94.92,2.79,2.79,0,0,1,0-5.57Z"/><path class="cls-3" d="M124.9,147a2.58,2.58,0,0,1,2.55,2.85V150h-4.3a1.86,1.86,0,0,0,1.91,1.83,2.31,2.31,0,0,0,1.64-.67l.4.54a2.9,2.9,0,0,1-2.12.81,2.79,2.79,0,0,1-.08-5.57Zm-1.75,2.45h3.48a1.71,1.71,0,0,0-1.74-1.77A1.77,1.77,0,0,0,123.15,149.4Z"/><path class="cls-3" d="M128.64,151.1a2.42,2.42,0,0,0,1.75.75c.81,0,1.25-.36,1.25-.88s-.65-.77-1.36-.94c-.91-.21-1.93-.45-1.93-1.55,0-.83.72-1.53,2-1.53a2.69,2.69,0,0,1,2,.77l-.38.57a2.07,2.07,0,0,0-1.59-.67c-.73,0-1.18.33-1.18.8s.61.68,1.3.85c.93.21,2,.47,2,1.65,0,.89-.71,1.6-2.09,1.6a2.82,2.82,0,0,1-2.14-.83Z"/><path class="cls-3" d="M133.64,151.1a2.42,2.42,0,0,0,1.75.75c.82,0,1.25-.36,1.25-.88s-.64-.77-1.36-.94c-.9-.21-1.92-.45-1.92-1.55,0-.83.71-1.53,2-1.53a2.65,2.65,0,0,1,2,.77l-.38.57a2,2,0,0,0-1.58-.67c-.73,0-1.18.33-1.18.8s.6.68,1.3.85c.92.21,2,.47,2,1.65,0,.89-.72,1.6-2.09,1.6a2.84,2.84,0,0,1-2.15-.83Z"/><path class="cls-3" d="M87.87,157.47v5.92H87v-7.33h.94l4.22,5.79v-5.79H93v7.33h-.89Z"/><path class="cls-3" d="M96.91,158a2.58,2.58,0,0,1,2.55,2.85V161h-4.3a1.86,1.86,0,0,0,1.91,1.83,2.31,2.31,0,0,0,1.64-.67l.4.54a2.87,2.87,0,0,1-2.11.81,2.79,2.79,0,0,1-.09-5.57Zm-1.75,2.45h3.49a1.73,1.73,0,0,0-1.75-1.77A1.77,1.77,0,0,0,95.16,160.4Z"/><path class="cls-3" d="M100.85,162.28v-3.47H100v-.73h.89v-1.45h.82v1.45h1.08v.73h-1.08v3.3c0,.39.18.68.54.68a.8.8,0,0,0,.56-.22l.24.61a1.33,1.33,0,0,1-1,.34A1.08,1.08,0,0,1,100.85,162.28Z"/><path class="cls-3" d="M107,159.12l-1.39,4.27h-.83l-1.69-5.31H104l1.3,4.23,1.39-4.23h.71l1.4,4.23,1.29-4.23h.86l-1.69,5.31h-.83Z"/><path class="cls-3" d="M111.46,160.73c-.19-3.62,5.45-3.62,5.26,0C116.91,164.37,111.27,164.37,111.46,160.73Zm4.39,0a1.78,1.78,0,1,0-3.53,0A1.78,1.78,0,1,0,115.85,160.73Z"/><path class="cls-3" d="M118,158.08h.83v.86a2.24,2.24,0,0,1,1.77-1v.85a1.11,1.11,0,0,0-.33,0,1.93,1.93,0,0,0-1.44.85v3.76H118Z"/><path class="cls-3" d="M123.17,161l-.88.86v1.52h-.82v-7.33h.82v4.85l2.8-2.83h1l-2.35,2.41,2.37,2.9h-1.06Z"/><path class="cls-3" d="M6.27,124l-2.5,6.1H3.4L.91,124v6.1H0v-7.33H1.31l2.28,5.58,2.29-5.58h1.3v7.33H6.27Z"/><path class="cls-3" d="M8.45,127.42c-.19-3.62,5.45-3.62,5.26,0C13.9,131.06,8.26,131.06,8.45,127.42Zm4.39,0a1.78,1.78,0,1,0-3.53,0A1.78,1.78,0,1,0,12.84,127.42Z"/><path class="cls-3" d="M14.94,122.75h.82v2.82a2.22,2.22,0,0,1,1.8-.93c1.38,0,2.36,1.1,2.36,2.79s-1,2.79-2.36,2.79a2.26,2.26,0,0,1-1.8-.93v.79h-.82Zm2.41,6.73c1.08,0,1.71-.87,1.71-2s-.63-2.05-1.71-2.05a2,2,0,0,0-1.59.85v2.41A2,2,0,0,0,17.35,129.48Z"/><path class="cls-3" d="M21,123.32a.56.56,0,0,1,1.11,0,.56.56,0,1,1-1.11,0Zm.14,1.45H22v5.31h-.83Z"/><path class="cls-3" d="M23.52,122.75h.82v7.33h-.82Z"/><path class="cls-3" d="M28.19,124.64a2.58,2.58,0,0,1,2.56,2.85v.21h-4.3a1.86,1.86,0,0,0,1.91,1.83,2.33,2.33,0,0,0,1.64-.67l.39.54a2.86,2.86,0,0,1-2.11.82,2.79,2.79,0,0,1-.09-5.58Zm-1.74,2.45h3.48a1.72,1.72,0,0,0-1.75-1.77A1.77,1.77,0,0,0,26.45,127.09Z"/><path class="cls-4" d="M100.4,108.54l-1.34-1.85a3.77,3.77,0,0,1,.07-4.69l1.27-1.66"/><path class="cls-4" d="M97.7,110.7l-2.91-4a3.77,3.77,0,0,1,.07-4.7l2.84-3.71"/><path class="cls-4" d="M94.43,112.33l-4.2-5.78a3.77,3.77,0,0,1,.07-4.69l4.13-5.39"/><path class="cls-4" d="M112,100.26l1.34,1.84a3.77,3.77,0,0,1-.07,4.7L112,108.45"/><path class="cls-4" d="M114.69,98.09l2.91,4a3.75,3.75,0,0,1-.07,4.69l-2.84,3.72"/><path class="cls-4" d="M118,96.47l4.19,5.77a3.77,3.77,0,0,1-.07,4.7L118,112.33"/><path class="cls-4" d="M115.39,133.47l-7.22-25.73a3.87,3.87,0,1,0-4,0L97,133.47h15.77"/><line class="cls-4" x1="100.94" y1="128.22" x2="111.45" y2="128.22"/><line class="cls-4" x1="102.26" y1="122.9" x2="110.14" y2="122.9"/><line class="cls-4" x1="103.57" y1="117.61" x2="108.82" y2="117.61"/><polyline class="cls-4" points="106.89 79.47 120.95 79.47 120.95 64.15 108.3 58.92"/><polygon class="cls-4" points="91.45 40.47 91.45 79.47 101.27 79.47 104.08 79.47 104.08 57.18 108.3 58.92 108.3 40.47 91.45 40.47"/><line class="cls-4" x1="99.85" y1="44.65" x2="99.85" y2="76.68"/><line class="cls-4" x1="95.65" y1="44.65" x2="95.65" y2="76.68"/><line class="cls-4" x1="104.08" y1="44.65" x2="104.08" y2="54.4"/><line class="cls-4" x1="108.3" y1="62.75" x2="108.3" y2="76.68"/><line class="cls-4" x1="112.51" y1="64.15" x2="112.51" y2="76.68"/><line class="cls-4" x1="116.73" y1="65.54" x2="116.73" y2="76.68"/><circle class="cls-5" cx="213.66" cy="62.15" r="19.5"/><path d="M208.64,58.76h4.48v.88h-3.48v2h3.41v.88h-3.41v3h-1Z"/><path d="M214.41,63.82a2.23,2.23,0,0,0,1.82.84,1.33,1.33,0,0,0,1.45-1.3,1.29,1.29,0,0,0-1.43-1.31,2.05,2.05,0,0,0-1.5.6l-.72-.23V58.76h4.22v.88H215v2.13a2.21,2.21,0,0,1,1.53-.59,2.05,2.05,0,0,1,2.13,2.14,2.23,2.23,0,0,1-2.45,2.23,2.89,2.89,0,0,1-2.42-1Z"/><rect class="cls-5" x="191.16" y="136.68" width="45" height="7.97" rx="1.6"/><line class="cls-4" x1="231.34" y1="138.27" x2="231.34" y2="143.05"/><line class="cls-4" x1="226.52" y1="138.27" x2="226.52" y2="143.05"/><line class="cls-4" x1="221.7" y1="138.27" x2="221.7" y2="143.05"/><path class="cls-6" d="M195.18,139.87a.79.79,0,0,1,.8.79.8.8,0,1,1-1.6,0,.79.79,0,0,1,.8-.79m0-1.09a1.88,1.88,0,1,0,1.89,1.88,1.89,1.89,0,0,0-1.89-1.88"/><rect class="cls-5" x="191.16" y="125.91" width="45" height="7.97" rx="1.6"/><line class="cls-4" x1="231.34" y1="127.5" x2="231.34" y2="132.28"/><line class="cls-4" x1="226.52" y1="127.5" x2="226.52" y2="132.28"/><line class="cls-4" x1="221.7" y1="127.5" x2="221.7" y2="132.28"/><path class="cls-6" d="M195.18,129.09a.8.8,0,1,1-.8.8.8.8,0,0,1,.8-.8m0-1.08a1.88,1.88,0,1,0,1.89,1.88,1.89,1.89,0,0,0-1.89-1.88"/><rect class="cls-5" x="191.16" y="115.13" width="45" height="7.97" rx="1.6"/><line class="cls-4" x1="231.34" y1="116.73" x2="231.34" y2="121.51"/><line class="cls-4" x1="226.52" y1="116.73" x2="226.52" y2="121.51"/><line class="cls-4" x1="221.7" y1="116.73" x2="221.7" y2="121.51"/><path class="cls-6" d="M195.18,118.32a.8.8,0,1,1-.8.8.8.8,0,0,1,.8-.8m0-1.08a1.88,1.88,0,1,0,1.89,1.88,1.89,1.89,0,0,0-1.89-1.88"/><path d="M206.56,161.3h.95l.88,2.35.89-2.35h1l-1.36,3.38h-1Z"/><path d="M210.87,160h1.84a2.34,2.34,0,1,1,0,4.67h-1.84Zm1.84,3.8a1.4,1.4,0,0,0,1.47-1.46,1.37,1.37,0,0,0-1.47-1.46h-.84v2.92Z"/><path d="M216.09,160h1v2.77a1.08,1.08,0,1,0,2.16,0V160h1v2.8a2.09,2.09,0,0,1-4.18,0Z"/><line class="cls-7" x1="223.78" y1="156.03" x2="203.55" y2="156.03"/><line class="cls-7" x1="213.66" y1="150.34" x2="213.66" y2="156.03"/><line class="cls-8" x1="173.11" y1="129.74" x2="145.28" y2="129.74"/><polygon class="cls-9" points="169.8 125.65 169.12 126.38 172.73 129.74 169.12 133.09 169.8 133.82 174.2 129.74 169.8 125.65"/><polygon class="cls-9" points="148.59 125.65 149.28 126.38 145.66 129.74 149.28 133.09 148.59 133.82 144.2 129.74 148.59 125.65"/><line class="cls-8" x1="531.11" y1="103.74" x2="512.28" y2="103.74"/><polygon class="cls-9" points="527.8 99.65 527.12 100.38 530.73 103.74 527.12 107.09 527.8 107.83 532.2 103.74 527.8 99.65"/><polygon class="cls-9" points="515.59 99.65 516.28 100.38 512.66 103.74 516.28 107.09 515.59 107.83 511.2 103.74 515.59 99.65"/><line class="cls-10" x1="533.46" y1="90.04" x2="560.84" y2="90.03"/><line class="cls-10" x1="533.48" y1="95.76" x2="560.84" y2="95.76"/><line class="cls-10" x1="533.48" y1="101.47" x2="560.84" y2="101.47"/><line class="cls-10" x1="533.48" y1="107.19" x2="560.84" y2="107.19"/><line class="cls-10" x1="541.46" y1="90.04" x2="541.46" y2="95.59"/><line class="cls-10" x1="552.86" y1="90.04" x2="552.86" y2="95.59"/><line class="cls-10" x1="541.46" y1="101.47" x2="541.46" y2="107.19"/><line class="cls-10" x1="552.86" y1="101.47" x2="552.86" y2="107.19"/><line class="cls-10" x1="558.56" y1="95.76" x2="558.56" y2="101.47"/><line class="cls-10" x1="535.76" y1="95.76" x2="535.76" y2="101.47"/><line class="cls-10" x1="547.16" y1="95.76" x2="547.16" y2="101.47"/><line class="cls-10" x1="533.48" y1="112.91" x2="560.84" y2="112.91"/><line class="cls-10" x1="558.56" y1="107.35" x2="558.56" y2="112.91"/><line class="cls-10" x1="535.76" y1="107.35" x2="535.76" y2="112.91"/><line class="cls-10" x1="547.16" y1="107.35" x2="547.16" y2="112.91"/><line class="cls-8" x1="285.11" y1="103.74" x2="266.28" y2="103.74"/><polygon class="cls-9" points="281.8 99.65 281.12 100.38 284.73 103.74 281.12 107.09 281.8 107.83 286.2 103.74 281.8 99.65"/><polygon class="cls-9" points="269.59 99.65 270.28 100.38 266.67 103.74 270.28 107.09 269.59 107.83 265.2 103.74 269.59 99.65"/><line class="cls-10" x1="287.46" y1="90.04" x2="314.84" y2="90.03"/><line class="cls-10" x1="287.48" y1="95.76" x2="314.84" y2="95.76"/><line class="cls-10" x1="287.48" y1="101.47" x2="314.84" y2="101.47"/><line class="cls-10" x1="287.48" y1="107.19" x2="314.84" y2="107.19"/><line class="cls-10" x1="295.46" y1="90.04" x2="295.46" y2="95.59"/><line class="cls-10" x1="306.86" y1="90.04" x2="306.86" y2="95.59"/><line class="cls-10" x1="295.46" y1="101.47" x2="295.46" y2="107.19"/><line class="cls-10" x1="306.86" y1="101.47" x2="306.86" y2="107.19"/><line class="cls-10" x1="312.56" y1="95.76" x2="312.56" y2="101.47"/><line class="cls-10" x1="289.76" y1="95.76" x2="289.76" y2="101.47"/><line class="cls-10" x1="301.16" y1="95.76" x2="301.16" y2="101.47"/><line class="cls-10" x1="287.48" y1="112.91" x2="314.84" y2="112.91"/><line class="cls-10" x1="312.56" y1="107.35" x2="312.56" y2="112.91"/><line class="cls-10" x1="289.76" y1="107.35" x2="289.76" y2="112.91"/><line class="cls-10" x1="301.16" y1="107.35" x2="301.16" y2="112.91"/><path d="M334.51,90.26a2.06,2.06,0,0,0,1.49.63c.54,0,.81-.26.81-.52s-.41-.47-.95-.6c-.76-.18-1.74-.39-1.74-1.43,0-.78.67-1.41,1.77-1.41a2.63,2.63,0,0,1,1.82.65l-.55.73a2,2,0,0,0-1.34-.51c-.45,0-.69.2-.69.48s.4.41.94.54c.77.17,1.75.4,1.75,1.44,0,.85-.61,1.5-1.87,1.5a2.68,2.68,0,0,1-2-.74Z"/><path d="M340.21,88.21a1.69,1.69,0,0,1,1.7,1.86v.2h-2.52a.92.92,0,0,0,1,.78,1.39,1.39,0,0,0,.9-.33l.39.57a2.09,2.09,0,0,1-1.39.47,1.78,1.78,0,1,1-.06-3.55Zm-.83,1.45h1.67a.78.78,0,0,0-.84-.74A.81.81,0,0,0,339.38,89.66Z"/><path d="M342.74,88.29h.89v.46a1.46,1.46,0,0,1,1.08-.54v.87l-.25,0a1.12,1.12,0,0,0-.83.38v2.23h-.89Z"/><path d="M345.15,88.29h1l.89,2.36.88-2.36h1l-1.36,3.38h-1Z"/><path d="M349.36,87.33a.53.53,0,1,1,.53.53A.54.54,0,0,1,349.36,87.33Zm.09,1h.89v3.38h-.89Z"/><path d="M353,88.21a1.59,1.59,0,0,1,1.34.61l-.59.54A.82.82,0,0,0,353,89a1,1,0,0,0,0,2,.83.83,0,0,0,.71-.37l.59.54a1.57,1.57,0,0,1-1.34.62,1.78,1.78,0,1,1,0-3.55Z"/><path d="M356.51,88.21a1.69,1.69,0,0,1,1.7,1.86v.2h-2.52a.92.92,0,0,0,1,.78,1.39,1.39,0,0,0,.9-.33l.39.57a2.11,2.11,0,0,1-1.39.47,1.78,1.78,0,1,1-.06-3.55Zm-.83,1.45h1.66a.77.77,0,0,0-.83-.74A.81.81,0,0,0,355.68,89.66Z"/><path d="M360.8,87H363a1.5,1.5,0,1,1,0,3H361.8v1.67h-1Zm2.05.86H361.8v1.29h1.05a.65.65,0,1,0,0-1.29Z"/><path d="M365.29,88.29h.89v.46a1.46,1.46,0,0,1,1.08-.54v.87l-.25,0a1.12,1.12,0,0,0-.83.38v2.23h-.89Z"/><path d="M367.76,90a1.79,1.79,0,1,1,1.79,1.78A1.72,1.72,0,0,1,367.76,90Zm2.66,0a.87.87,0,1,0-.87,1A.89.89,0,0,0,370.42,90Z"/><path d="M373.43,90.53l-.78,1.14h-1l1.2-1.73-1.13-1.65h1l.7,1,.69-1h1L374,89.94l1.21,1.73h-1Z"/><path d="M376.32,92.26a.45.45,0,0,0,.47-.25l.13-.29-1.38-3.43h1l.88,2.36.88-2.36h1l-1.59,3.94a1.23,1.23,0,0,1-1.28.82,2.2,2.2,0,0,1-.44,0l.13-.8A.71.71,0,0,0,376.32,92.26Z"/><line class="cls-7" x1="367.24" y1="83.02" x2="347.02" y2="83.02"/><line class="cls-7" x1="357.13" y1="77.33" x2="357.13" y2="83.02"/><circle class="cls-5" cx="357.13" cy="52.84" r="19.5"/><path d="M352.11,49.45h4.48v.88h-3.48v2h3.41v.88h-3.41v3h-1Z"/><path d="M357.88,54.51a2.23,2.23,0,0,0,1.82.84,1.33,1.33,0,0,0,1.45-1.3,1.29,1.29,0,0,0-1.43-1.31,2.05,2.05,0,0,0-1.5.6l-.72-.23V49.45h4.21v.88H358.5v2.13a2.21,2.21,0,0,1,1.53-.59A2,2,0,0,1,362.15,54a2.22,2.22,0,0,1-2.44,2.23,2.89,2.89,0,0,1-2.42-1.05Z"/><path d="M335.63,154a2.06,2.06,0,0,0,1.49.63c.55,0,.81-.26.81-.53s-.4-.47-.94-.59c-.77-.18-1.75-.39-1.75-1.43,0-.78.67-1.41,1.77-1.41a2.57,2.57,0,0,1,1.82.65l-.55.73a2,2,0,0,0-1.34-.51c-.44,0-.68.19-.68.47s.39.42.93.54c.77.18,1.75.41,1.75,1.45,0,.85-.61,1.5-1.87,1.5a2.69,2.69,0,0,1-2-.75Z"/><path d="M341.34,151.9a1.7,1.7,0,0,1,1.69,1.87V154h-2.51a.91.91,0,0,0,1,.79,1.35,1.35,0,0,0,.9-.34l.4.58a2.17,2.17,0,0,1-1.4.47,1.78,1.78,0,1,1-.05-3.56Zm-.84,1.46h1.67a.79.79,0,0,0-.83-.75A.81.81,0,0,0,340.5,153.36Z"/><path d="M343.86,152h.89v.46a1.46,1.46,0,0,1,1.08-.54v.87a1.42,1.42,0,0,0-.25,0,1.13,1.13,0,0,0-.83.39v2.23h-.89Z"/><path d="M346.27,152h1l.88,2.35L349,152h1l-1.36,3.38h-1Z"/><path d="M350.48,151a.54.54,0,0,1,1.07,0,.54.54,0,0,1-1.07,0Zm.09,1h.89v3.38h-.89Z"/><path d="M354.08,151.9a1.59,1.59,0,0,1,1.34.61l-.58.55a.82.82,0,0,0-.72-.36,1,1,0,0,0,0,2,.87.87,0,0,0,.72-.36l.58.54a1.56,1.56,0,0,1-1.34.62,1.78,1.78,0,1,1,0-3.56Z"/><path d="M357.63,151.9a1.7,1.7,0,0,1,1.7,1.87V154h-2.51a.9.9,0,0,0,1,.79,1.37,1.37,0,0,0,.9-.34l.39.58a2.12,2.12,0,0,1-1.39.47,1.78,1.78,0,0,1-.06-3.56Zm-.83,1.46h1.67a.79.79,0,0,0-.84-.75A.81.81,0,0,0,356.8,153.36Z"/><path d="M366,152l-1.32,3.36h-.43L362.92,152v3.36h-1V150.7h1.39l1.13,2.91,1.14-2.91H367v4.67h-1Z"/><path d="M369.66,151.9a1.7,1.7,0,0,1,1.69,1.87V154h-2.51a.91.91,0,0,0,1,.79,1.37,1.37,0,0,0,.9-.34l.4.58a2.17,2.17,0,0,1-1.4.47,1.78,1.78,0,1,1,0-3.56Zm-.84,1.46h1.67a.79.79,0,0,0-.83-.75A.81.81,0,0,0,368.82,153.36Z"/><path d="M372.27,154.31a1.93,1.93,0,0,0,1.17.46c.38,0,.56-.13.56-.34s-.29-.33-.68-.4c-.58-.12-1.33-.26-1.33-1.06,0-.57.5-1.07,1.39-1.07a2.17,2.17,0,0,1,1.37.47l-.36.61a1.43,1.43,0,0,0-1-.4c-.33,0-.54.12-.54.32s.27.29.65.36c.58.12,1.36.27,1.36,1.11,0,.62-.53,1.09-1.47,1.09a2.29,2.29,0,0,1-1.51-.53Z"/><path d="M378,153.31c0-.47-.25-.61-.63-.61a1,1,0,0,0-.78.4v2.27h-.88V150.7h.88v1.73a1.58,1.58,0,0,1,1.2-.53,1,1,0,0,1,1.1,1.07v2.4H378Z"/><line class="cls-7" x1="367.24" y1="146.72" x2="347.02" y2="146.72"/><line class="cls-7" x1="357.13" y1="141.03" x2="357.13" y2="146.72"/><circle class="cls-5" cx="357.13" cy="116.54" r="19.5"/><path d="M352.11,113.15h4.48V114h-3.48V116h3.41v.88h-3.41v3h-1Z"/><path d="M357.88,118.2a2.23,2.23,0,0,0,1.82.84,1.33,1.33,0,0,0,1.45-1.3,1.29,1.29,0,0,0-1.43-1.31,2.05,2.05,0,0,0-1.5.6l-.72-.23v-3.65h4.21V114H358.5v2.12a2.21,2.21,0,0,1,1.53-.59,2,2,0,0,1,2.12,2.14,2.22,2.22,0,0,1-2.44,2.23,2.89,2.89,0,0,1-2.42-1.05Z"/><rect class="cls-11" x="467.58" y="95.69" width="33.75" height="5.98" rx="1.2"/><line class="cls-10" x1="497.71" y1="96.89" x2="497.71" y2="100.48"/><line class="cls-10" x1="494.1" y1="96.89" x2="494.1" y2="100.48"/><line class="cls-10" x1="490.48" y1="96.89" x2="490.48" y2="100.48"/><path class="cls-6" d="M470.59,98.08a.6.6,0,1,1-.6.6.6.6,0,0,1,.6-.6m0-.81A1.41,1.41,0,1,0,472,98.68a1.41,1.41,0,0,0-1.42-1.41"/><rect class="cls-11" x="467.58" y="87.61" width="33.75" height="5.98" rx="1.2"/><line class="cls-10" x1="497.71" y1="88.81" x2="497.71" y2="92.4"/><line class="cls-10" x1="494.1" y1="88.81" x2="494.1" y2="92.4"/><line class="cls-10" x1="490.48" y1="88.81" x2="490.48" y2="92.4"/><path class="cls-6" d="M470.59,90a.6.6,0,0,1,.61.59.61.61,0,0,1-1.21,0,.59.59,0,0,1,.6-.59m0-.82A1.42,1.42,0,1,0,472,90.6a1.41,1.41,0,0,0-1.42-1.41"/><rect class="cls-11" x="467.58" y="79.54" width="33.75" height="5.98" rx="1.2"/><line class="cls-10" x1="497.71" y1="80.73" x2="497.71" y2="84.32"/><line class="cls-10" x1="494.1" y1="80.73" x2="494.1" y2="84.32"/><line class="cls-10" x1="490.48" y1="80.73" x2="490.48" y2="84.32"/><path class="cls-6" d="M470.59,81.93a.6.6,0,0,1,.61.6.61.61,0,0,1-1.21,0,.6.6,0,0,1,.6-.6m0-.82A1.42,1.42,0,1,0,472,82.53a1.42,1.42,0,0,0-1.42-1.42"/><rect class="cls-11" x="430.58" y="95.69" width="33.75" height="5.98" rx="1.2"/><line class="cls-10" x1="460.71" y1="96.89" x2="460.71" y2="100.48"/><line class="cls-10" x1="457.1" y1="96.89" x2="457.1" y2="100.48"/><line class="cls-10" x1="453.48" y1="96.89" x2="453.48" y2="100.48"/><path class="cls-6" d="M433.59,98.08a.6.6,0,1,1-.6.6.6.6,0,0,1,.6-.6m0-.81A1.41,1.41,0,1,0,435,98.68a1.41,1.41,0,0,0-1.42-1.41"/><rect class="cls-11" x="430.58" y="87.61" width="33.75" height="5.98" rx="1.2"/><line class="cls-10" x1="460.71" y1="88.81" x2="460.71" y2="92.4"/><line class="cls-10" x1="457.1" y1="88.81" x2="457.1" y2="92.4"/><line class="cls-10" x1="453.48" y1="88.81" x2="453.48" y2="92.4"/><path class="cls-6" d="M433.59,90a.6.6,0,0,1,.61.59.61.61,0,0,1-1.21,0,.59.59,0,0,1,.6-.59m0-.82A1.42,1.42,0,1,0,435,90.6a1.41,1.41,0,0,0-1.42-1.41"/><rect class="cls-11" x="430.58" y="79.54" width="33.75" height="5.98" rx="1.2"/><line class="cls-10" x1="460.71" y1="80.73" x2="460.71" y2="84.32"/><line class="cls-10" x1="457.1" y1="80.73" x2="457.1" y2="84.32"/><line class="cls-10" x1="453.48" y1="80.73" x2="453.48" y2="84.32"/><path class="cls-6" d="M433.59,81.93a.6.6,0,0,1,.61.6.61.61,0,0,1-1.21,0,.6.6,0,0,1,.6-.6m0-.82A1.42,1.42,0,1,0,435,82.53a1.42,1.42,0,0,0-1.42-1.42"/><rect class="cls-11" x="393.58" y="95.69" width="33.75" height="5.98" rx="1.2"/><line class="cls-10" x1="423.71" y1="96.89" x2="423.71" y2="100.48"/><line class="cls-10" x1="420.1" y1="96.89" x2="420.1" y2="100.48"/><line class="cls-10" x1="416.48" y1="96.89" x2="416.48" y2="100.48"/><path class="cls-6" d="M396.59,98.08a.6.6,0,1,1-.6.6.6.6,0,0,1,.6-.6m0-.81A1.41,1.41,0,1,0,398,98.68a1.41,1.41,0,0,0-1.42-1.41"/><rect class="cls-11" x="393.58" y="87.61" width="33.75" height="5.98" rx="1.2"/><line class="cls-10" x1="423.71" y1="88.81" x2="423.71" y2="92.4"/><line class="cls-10" x1="420.1" y1="88.81" x2="420.1" y2="92.4"/><line class="cls-10" x1="416.48" y1="88.81" x2="416.48" y2="92.4"/><path class="cls-6" d="M396.59,90a.6.6,0,0,1,.61.59.61.61,0,0,1-1.21,0,.59.59,0,0,1,.6-.59m0-.82A1.42,1.42,0,1,0,398,90.6a1.41,1.41,0,0,0-1.42-1.41"/><rect class="cls-11" x="393.58" y="79.54" width="33.75" height="5.98" rx="1.2"/><line class="cls-10" x1="423.71" y1="80.73" x2="423.71" y2="84.32"/><line class="cls-10" x1="420.1" y1="80.73" x2="420.1" y2="84.32"/><line class="cls-10" x1="416.48" y1="80.73" x2="416.48" y2="84.32"/><path class="cls-6" d="M396.59,81.93a.6.6,0,0,1,.61.6.61.61,0,0,1-1.21,0,.6.6,0,0,1,.6-.6m0-.82A1.42,1.42,0,1,0,398,82.53a1.42,1.42,0,0,0-1.42-1.42"/><path d="M595.08,143.56a2.06,2.06,0,0,0,1.49.63c.54,0,.81-.26.81-.53s-.41-.47-.94-.6c-.77-.17-1.75-.38-1.75-1.42,0-.78.67-1.41,1.77-1.41a2.57,2.57,0,0,1,1.82.65l-.55.73a2,2,0,0,0-1.34-.51c-.44,0-.68.19-.68.47s.39.42.93.54c.77.18,1.75.41,1.75,1.45,0,.85-.61,1.49-1.87,1.49a2.68,2.68,0,0,1-2-.74Z"/><path d="M600.79,141.5a1.7,1.7,0,0,1,1.69,1.87v.19H600a.91.91,0,0,0,1,.79,1.39,1.39,0,0,0,.9-.34l.39.57a2.07,2.07,0,0,1-1.39.47,1.78,1.78,0,1,1-.05-3.55ZM600,143h1.67a.79.79,0,0,0-.83-.75A.81.81,0,0,0,600,143Z"/><path d="M603.31,141.59h.89v.46a1.46,1.46,0,0,1,1.08-.54v.87a.85.85,0,0,0-.25,0,1.13,1.13,0,0,0-.83.39V145h-.89Z"/><path d="M605.72,141.59h1l.88,2.35.88-2.35h1L608,145h-1Z"/><path d="M609.93,140.62a.54.54,0,0,1,.53-.53.53.53,0,0,1,0,1.06A.54.54,0,0,1,609.93,140.62Zm.09,1h.89V145H610Z"/><path d="M613.53,141.5a1.59,1.59,0,0,1,1.34.61l-.58.55a.83.83,0,0,0-.72-.37,1,1,0,0,0,0,2,.87.87,0,0,0,.72-.36l.58.54a1.59,1.59,0,0,1-1.34.61,1.78,1.78,0,1,1,0-3.55Z"/><path d="M617.08,141.5a1.7,1.7,0,0,1,1.7,1.87v.19h-2.52a.92.92,0,0,0,1,.79,1.39,1.39,0,0,0,.9-.34l.39.57a2.07,2.07,0,0,1-1.39.47,1.78,1.78,0,1,1-.06-3.55Zm-.83,1.46h1.67a.79.79,0,0,0-.84-.75A.81.81,0,0,0,616.25,143Z"/><path d="M621.38,140.3h2.18a1.5,1.5,0,1,1,0,3h-1.19V145h-1Zm2,.85h-1.06v1.29h1.06a.63.63,0,0,0,.68-.64A.64.64,0,0,0,623.43,141.15Z"/><path d="M625.87,141.59h.88v.46a1.46,1.46,0,0,1,1.08-.54v.87a.78.78,0,0,0-.24,0,1.14,1.14,0,0,0-.84.39V145h-.88Z"/><path d="M628.34,143.27a1.79,1.79,0,1,1,1.78,1.78A1.71,1.71,0,0,1,628.34,143.27Zm2.65,0a.87.87,0,1,0-.87,1A.89.89,0,0,0,631,143.27Z"/><path d="M634,143.83l-.78,1.14h-1l1.19-1.74-1.12-1.64h1l.7,1,.7-1h1l-1.14,1.64,1.22,1.74h-1Z"/><path d="M636.89,145.55a.45.45,0,0,0,.47-.24l.13-.29-1.37-3.43h1l.88,2.35.88-2.35h1l-1.59,3.93a1.22,1.22,0,0,1-1.28.82,2.28,2.28,0,0,1-.44-.05l.13-.79A.92.92,0,0,0,636.89,145.55Z"/><line class="cls-7" x1="627.82" y1="136.32" x2="607.59" y2="136.32"/><line class="cls-7" x1="617.7" y1="130.63" x2="617.7" y2="136.32"/><circle class="cls-5" cx="617.7" cy="106.14" r="19.5"/><path d="M612.68,102.74h4.48v.88h-3.48v1.95h3.41v.88h-3.41v3h-1Z"/><path d="M618.45,107.8a2.23,2.23,0,0,0,1.82.84,1.33,1.33,0,0,0,1.45-1.3,1.29,1.29,0,0,0-1.43-1.31,2.05,2.05,0,0,0-1.5.6l-.72-.23v-3.66h4.22v.88h-3.22v2.13a2.21,2.21,0,0,1,1.53-.59,2.05,2.05,0,0,1,2.13,2.14,2.23,2.23,0,0,1-2.45,2.23,2.89,2.89,0,0,1-2.42-1Z"/><path d="M654.21,143.56a2.06,2.06,0,0,0,1.48.63c.55,0,.81-.26.81-.53s-.4-.47-.94-.6c-.77-.17-1.75-.38-1.75-1.42,0-.78.68-1.41,1.78-1.41a2.58,2.58,0,0,1,1.82.65l-.56.73a2,2,0,0,0-1.33-.51c-.45,0-.69.19-.69.47s.39.42.93.54c.77.18,1.75.41,1.75,1.45,0,.85-.61,1.49-1.87,1.49a2.66,2.66,0,0,1-2-.74Z"/><path d="M659.91,141.5a1.7,1.7,0,0,1,1.69,1.87v.19h-2.51a.91.91,0,0,0,1,.79A1.4,1.4,0,0,0,661,144l.39.57a2.11,2.11,0,0,1-1.4.47,1.78,1.78,0,0,1-.05-3.55Zm-.83,1.46h1.66a.78.78,0,0,0-.83-.75A.81.81,0,0,0,659.08,143Z"/><path d="M662.44,141.59h.88v.46a1.46,1.46,0,0,1,1.08-.54v.87a.78.78,0,0,0-.24,0,1.14,1.14,0,0,0-.84.39V145h-.88Z"/><path d="M664.85,141.59h.95l.88,2.35.88-2.35h1L667.17,145h-1Z"/><path d="M669.05,140.62a.54.54,0,0,1,.54-.53.53.53,0,0,1,0,1.06A.54.54,0,0,1,669.05,140.62Zm.09,1H670V145h-.89Z"/><path d="M672.65,141.5a1.56,1.56,0,0,1,1.34.61l-.58.55a.82.82,0,0,0-.71-.37,1,1,0,0,0,0,2,.86.86,0,0,0,.71-.36l.58.54a1.56,1.56,0,0,1-1.34.61,1.78,1.78,0,1,1,0-3.55Z"/><path d="M676.21,141.5a1.7,1.7,0,0,1,1.69,1.87v.19h-2.51a.91.91,0,0,0,1,.79,1.4,1.4,0,0,0,.91-.34l.39.57a2.11,2.11,0,0,1-1.4.47,1.78,1.78,0,0,1,0-3.55Zm-.84,1.46H677a.78.78,0,0,0-.83-.75A.82.82,0,0,0,675.37,143Z"/><path d="M684.56,141.61,683.24,145h-.43l-1.32-3.36V145h-1V140.3h1.39l1.14,2.91,1.13-2.91h1.4V145h-1Z"/><path d="M688.23,141.5a1.7,1.7,0,0,1,1.69,1.87v.19h-2.51a.91.91,0,0,0,1,.79,1.4,1.4,0,0,0,.91-.34l.39.57a2.11,2.11,0,0,1-1.4.47,1.78,1.78,0,0,1,0-3.55Zm-.84,1.46h1.67a.78.78,0,0,0-.83-.75A.82.82,0,0,0,687.39,143Z"/><path d="M690.84,143.91a1.93,1.93,0,0,0,1.17.46c.38,0,.57-.14.57-.35s-.3-.32-.68-.39c-.59-.12-1.33-.26-1.33-1.06,0-.57.49-1.07,1.38-1.07a2.15,2.15,0,0,1,1.37.47l-.36.6a1.45,1.45,0,0,0-1-.39c-.32,0-.53.12-.53.32s.26.28.64.36c.58.11,1.36.27,1.36,1.11,0,.61-.53,1.08-1.46,1.08a2.29,2.29,0,0,1-1.52-.52Z"/><path d="M696.56,142.91c0-.47-.25-.62-.63-.62a1,1,0,0,0-.77.4V145h-.89V140.3h.89V142a1.56,1.56,0,0,1,1.19-.53,1,1,0,0,1,1.1,1.07V145h-.89Z"/><line class="cls-7" x1="685.82" y1="136.32" x2="665.59" y2="136.32"/><line class="cls-7" x1="675.7" y1="130.63" x2="675.7" y2="136.32"/><circle class="cls-5" cx="675.7" cy="106.14" r="19.5"/><path d="M670.68,102.74h4.48v.88h-3.48v1.95h3.41v.88h-3.41v3h-1Z"/><path d="M676.45,107.8a2.23,2.23,0,0,0,1.82.84,1.33,1.33,0,0,0,1.45-1.3,1.29,1.29,0,0,0-1.43-1.31,2.05,2.05,0,0,0-1.5.6l-.72-.23v-3.66h4.22v.88h-3.22v2.13a2.21,2.21,0,0,1,1.53-.59,2.05,2.05,0,0,1,2.13,2.14,2.23,2.23,0,0,1-2.45,2.23,2.89,2.89,0,0,1-2.42-1Z"/><path class="cls-12" d="M8,76.26a.52.52,0,1,1,.54-.52A.52.52,0,0,1,8,76.26Z"/><path d="M8,75.73l0,0H8m0-1a1,1,0,1,0,1,1,1,1,0,0,0-1-1Z"/><line class="cls-4" x1="13.47" y1="109.7" x2="18.98" y2="109.7"/><path class="cls-4" d="M27.24,106.31v4.07a1.37,1.37,0,0,1-1.37,1.36H6.62a1.37,1.37,0,0,1-1.38-1.36V75.09a1.37,1.37,0,0,1,1.38-1.35H25.87a1.37,1.37,0,0,1,1.37,1.35v.71"/><rect class="cls-4" x="5.24" y="77.81" width="22" height="29.86" rx="2.73"/><path d="M136.35,195.17c-.54,0-.68-.44-.8-.79s-.14-.44-.32-.44-.38.63-.43,1.23l-.61-.07c.07-.83.27-1.71,1-1.71.55,0,.7.44.81.8s.15.44.31.44.4-.62.44-1.25l.61.07C137.33,194.29,137.14,195.17,136.35,195.17Z"/><path d="M139.22,194.67l-.78.79-.56-.6,1.47-1.48h.87v4.68h-1Z"/><path d="M143.1,193.31c1.33,0,1.93,1.21,1.93,2.41s-.6,2.42-1.93,2.42-1.93-1.21-1.93-2.42S141.76,193.31,143.1,193.31Zm0,.89c-.67,0-.92.66-.92,1.52s.25,1.54.92,1.54.92-.67.92-1.54S143.77,194.2,143.1,194.2Z"/><path d="M147.69,193.31c1.33,0,1.94,1.21,1.94,2.41s-.61,2.42-1.94,2.42-1.93-1.21-1.93-2.42S146.36,193.31,147.69,193.31Zm0,.89c-.67,0-.92.66-.92,1.52s.25,1.54.92,1.54.92-.67.92-1.54S148.36,194.2,147.69,194.2Z"/><path d="M150.37,198.7a1.17,1.17,0,0,0,.53-.65l-.13,0a.48.48,0,0,1-.48-.51.56.56,0,0,1,.55-.56.65.65,0,0,1,.63.71,1.63,1.63,0,0,1-.72,1.31Z"/><path d="M154.06,193.31c1.33,0,1.94,1.21,1.94,2.41s-.61,2.42-1.94,2.42-1.93-1.21-1.93-2.42S152.72,193.31,154.06,193.31Zm0,.89c-.67,0-.92.66-.92,1.52s.25,1.54.92,1.54.92-.67.92-1.54S154.73,194.2,154.06,194.2Z"/><path d="M158.66,193.31c1.33,0,1.93,1.21,1.93,2.41s-.6,2.42-1.93,2.42-1.94-1.21-1.94-2.42S157.32,193.31,158.66,193.31Zm0,.89c-.68,0-.93.66-.93,1.52s.25,1.54.93,1.54.91-.67.91-1.54S159.32,194.2,158.66,194.2Z"/><path d="M163.25,193.31c1.33,0,1.93,1.21,1.93,2.41s-.6,2.42-1.93,2.42-1.93-1.21-1.93-2.42S161.91,193.31,163.25,193.31Zm0,.89c-.67,0-.92.66-.92,1.52s.25,1.54.92,1.54.92-.67.92-1.54S163.92,194.2,163.25,194.2Z"/><path d="M167.71,197.39h-.61V196h-1.26v-.55h1.26v-1.37h.61v1.37H169V196h-1.25Z"/><path d="M171.78,196.64a2.06,2.06,0,0,0,1.49.63c.54,0,.81-.26.81-.52s-.41-.47-.94-.6c-.77-.17-1.75-.38-1.75-1.43,0-.78.67-1.41,1.77-1.41A2.57,2.57,0,0,1,175,194l-.55.72a2,2,0,0,0-1.34-.51c-.44,0-.68.2-.68.48s.39.41.93.54c.77.17,1.75.41,1.75,1.44,0,.86-.61,1.5-1.87,1.5a2.68,2.68,0,0,1-2-.74Z"/><path d="M175.85,193.71a.53.53,0,1,1,.53.53A.54.54,0,0,1,175.85,193.71Zm.09,1h.89v3.39h-.89Z"/><path d="M178.06,197.22v-1.77h-.56v-.78h.56v-.92h.9v.92h.69v.78H179V197c0,.21.11.37.31.37a.49.49,0,0,0,.31-.1l.19.67a1.11,1.11,0,0,1-.75.22A.85.85,0,0,1,178.06,197.22Z"/><path d="M182,194.59a1.7,1.7,0,0,1,1.7,1.86v.2h-2.52a.91.91,0,0,0,1,.78,1.39,1.39,0,0,0,.91-.33l.39.57a2.11,2.11,0,0,1-1.39.47,1.78,1.78,0,1,1-.06-3.55Zm-.83,1.46h1.66a.77.77,0,0,0-.83-.75A.81.81,0,0,0,181.14,196.05Z"/><path d="M184.58,197a1.93,1.93,0,0,0,1.17.46c.38,0,.57-.13.57-.34s-.3-.32-.68-.4c-.59-.11-1.33-.25-1.33-1.06,0-.56.49-1.06,1.38-1.06a2.15,2.15,0,0,1,1.37.46l-.36.61a1.41,1.41,0,0,0-1-.39c-.32,0-.53.12-.53.31s.26.29.64.37c.58.11,1.36.26,1.36,1.1,0,.62-.52,1.09-1.46,1.09a2.3,2.3,0,0,1-1.52-.53Z"/><line class="cls-7" x1="170.81" y1="189.4" x2="150.58" y2="189.4"/><line class="cls-7" x1="160.7" y1="183.71" x2="160.7" y2="189.4"/><path d="M391.13,182.86c-.54,0-.68-.44-.8-.79s-.14-.44-.32-.44-.38.63-.43,1.23l-.61-.07c.07-.83.26-1.71,1-1.71.55,0,.69.44.81.8s.14.44.31.44.39-.62.44-1.25l.6.08C392.11,182,391.92,182.86,391.13,182.86Z"/><path d="M394,182.36l-.78.79-.56-.6,1.47-1.48H395v4.68h-1Z"/><path d="M397.88,181c1.33,0,1.93,1.21,1.93,2.41s-.6,2.42-1.93,2.42-1.93-1.21-1.93-2.42S396.54,181,397.88,181Zm0,.89c-.67,0-.93.66-.93,1.52s.26,1.54.93,1.54.92-.67.92-1.54S398.54,181.89,397.88,181.89Z"/><path d="M402.47,181c1.33,0,1.93,1.21,1.93,2.41s-.6,2.42-1.93,2.42-1.93-1.21-1.93-2.42S401.13,181,402.47,181Zm0,.89c-.67,0-.92.66-.92,1.52s.25,1.54.92,1.54.92-.67.92-1.54S403.14,181.89,402.47,181.89Z"/><path d="M406.93,185.08h-.61v-1.42h-1.26v-.55h1.26v-1.37h.61v1.37h1.26v.55h-1.26Z"/><path d="M411,184.33a2.08,2.08,0,0,0,1.49.63c.55,0,.81-.26.81-.52s-.4-.47-.94-.6c-.77-.17-1.75-.38-1.75-1.43,0-.77.68-1.41,1.77-1.41a2.61,2.61,0,0,1,1.83.66l-.56.72a2,2,0,0,0-1.34-.51c-.44,0-.68.2-.68.48s.39.41.93.54c.77.17,1.75.41,1.75,1.44,0,.86-.61,1.5-1.87,1.5a2.64,2.64,0,0,1-2-.74Z"/><path d="M415.07,181.4a.53.53,0,1,1,.53.53A.54.54,0,0,1,415.07,181.4Zm.09,1h.89v3.39h-.89Z"/><path d="M417.29,184.91v-1.77h-.56v-.78h.56v-.92h.89v.92h.69v.78h-.69v1.53c0,.21.11.37.31.37a.49.49,0,0,0,.31-.1l.19.67a1.1,1.1,0,0,1-.74.22A.84.84,0,0,1,417.29,184.91Z"/><path d="M421.19,182.28a1.7,1.7,0,0,1,1.7,1.86v.2h-2.52a.91.91,0,0,0,1,.78,1.39,1.39,0,0,0,.9-.33l.39.57a2.09,2.09,0,0,1-1.39.47,1.78,1.78,0,1,1-.06-3.55Zm-.83,1.46H422a.79.79,0,0,0-.84-.75A.81.81,0,0,0,420.36,183.74Z"/><path d="M423.8,184.68a2,2,0,0,0,1.17.46c.39,0,.57-.13.57-.34s-.3-.32-.68-.4c-.58-.11-1.33-.25-1.33-1.06,0-.56.49-1.06,1.38-1.06a2.21,2.21,0,0,1,1.37.46l-.36.61a1.41,1.41,0,0,0-1-.39c-.32,0-.53.12-.53.31s.27.29.64.37c.58.11,1.36.26,1.36,1.1,0,.62-.52,1.09-1.46,1.09a2.3,2.3,0,0,1-1.51-.52Z"/><line class="cls-7" x1="417.81" y1="177.09" x2="397.58" y2="177.09"/><line class="cls-7" x1="407.7" y1="171.4" x2="407.7" y2="177.09"/><path d="M633.43,182.86c-.54,0-.69-.44-.8-.79s-.15-.44-.33-.44-.38.63-.43,1.23l-.61-.07c.07-.83.27-1.71,1-1.71.55,0,.7.44.81.8s.15.44.32.44.39-.62.44-1.25l.6.08C634.4,182,634.22,182.86,633.43,182.86Z"/><path d="M636.29,182.36l-.77.79-.57-.6,1.47-1.48h.87v4.68h-1Z"/><path d="M640.17,181c1.33,0,1.94,1.21,1.94,2.41s-.61,2.42-1.94,2.42-1.93-1.21-1.93-2.42S638.83,181,640.17,181Zm0,.89c-.67,0-.92.66-.92,1.52s.25,1.54.92,1.54.92-.67.92-1.54S640.84,181.89,640.17,181.89Z"/><path d="M645,184.33a2.06,2.06,0,0,0,1.48.63c.55,0,.82-.26.82-.52s-.41-.47-1-.6c-.76-.17-1.74-.38-1.74-1.43,0-.77.67-1.41,1.77-1.41a2.59,2.59,0,0,1,1.82.66l-.55.72a2,2,0,0,0-1.34-.51c-.45,0-.69.2-.69.48s.4.41.93.54c.78.17,1.76.41,1.76,1.44,0,.86-.61,1.5-1.87,1.5a2.67,2.67,0,0,1-2-.74Z"/><path d="M649,181.4a.54.54,0,1,1,1.07,0,.54.54,0,0,1-1.07,0Zm.09,1H650v3.39h-.89Z"/><path d="M651.24,184.91v-1.77h-.56v-.78h.56v-.92h.9v.92h.68v.78h-.68v1.53c0,.21.11.37.31.37a.46.46,0,0,0,.3-.1l.19.67a1.08,1.08,0,0,1-.74.22A.85.85,0,0,1,651.24,184.91Z"/><path d="M655.15,182.28a1.7,1.7,0,0,1,1.69,1.86v.2h-2.51a.9.9,0,0,0,1,.78,1.35,1.35,0,0,0,.9-.33l.4.57a2.11,2.11,0,0,1-1.4.47,1.78,1.78,0,1,1-.05-3.55Zm-.84,1.46H656a.78.78,0,0,0-.83-.75A.81.81,0,0,0,654.31,183.74Z"/><path d="M657.75,184.68a2,2,0,0,0,1.17.46c.39,0,.57-.13.57-.34s-.29-.32-.68-.4c-.58-.11-1.33-.25-1.33-1.06,0-.56.5-1.06,1.39-1.06a2.18,2.18,0,0,1,1.36.46l-.35.61a1.43,1.43,0,0,0-1-.39c-.33,0-.54.12-.54.31s.27.29.65.37c.58.11,1.36.26,1.36,1.1,0,.62-.53,1.09-1.47,1.09a2.32,2.32,0,0,1-1.51-.52Z"/><line class="cls-7" x1="655.93" y1="177.09" x2="635.71" y2="177.09"/><line class="cls-7" x1="645.82" y1="171.4" x2="645.82" y2="177.09"/><path class="cls-4" d="M533,201.51s0-.09,0-.13h-6.76v.08a25.18,25.18,0,0,0,1.22,7.85,40.26,40.26,0,0,1,5.95-1A54.26,54.26,0,0,1,533,201.51Z"/><path class="cls-4" d="M533.39,208.35a40.26,40.26,0,0,0-5.95,1c1.42,4.29,3.95,7.63,7,9.18l.42.09a16.47,16.47,0,0,0,2.25.3C535.44,217.57,534.05,213.6,533.39,208.35Z"/><path class="cls-4" d="M543.33,194.4a54.19,54.19,0,0,1,.44,7h6.75a24.72,24.72,0,0,0-1.27-7.92A41.78,41.78,0,0,1,543.33,194.4Z"/><path class="cls-4" d="M543.36,208.35c-.52,0-1-.09-1.58-.12-1.1-.07-2.24-.1-3.41-.1-1.73,0-3.4.08-5,.22.66,5.25,2.05,9.22,3.76,10.53.4,0,.81.05,1.22.05s.82,0,1.22-.05h0C541.31,217.56,542.7,213.59,543.36,208.35Z"/><path class="cls-4" d="M539.6,218.87h0a17.76,17.76,0,0,0,2.66-.4c3.1-1.54,5.64-4.88,7.06-9.17a40.7,40.7,0,0,0-5.95-1C542.7,213.59,541.31,217.56,539.6,218.87Z"/><path class="cls-4" d="M543.78,201.51a54.14,54.14,0,0,1-.42,6.84,40.7,40.7,0,0,1,5.95,1,25.18,25.18,0,0,0,1.22-7.85s0-.05,0-.08h-6.75S543.78,201.46,543.78,201.51Z"/><path class="cls-4" d="M533.43,194.41a40.26,40.26,0,0,1-5.93-.95,25,25,0,0,0-1.28,7.92H533A52.23,52.23,0,0,1,533.43,194.41Z"/><path class="cls-4" d="M538.37,194.63c-1.19,0-2.35,0-3.47-.11l-1.47-.11a52.23,52.23,0,0,0-.45,7h10.79a54.19,54.19,0,0,0-.44-7l-1,.08C541.08,194.57,539.75,194.63,538.37,194.63Z"/><path class="cls-4" d="M533,201.51a54.26,54.26,0,0,0,.42,6.84c1.58-.14,3.25-.22,5-.22,1.17,0,2.31,0,3.41.1.54,0,1.06.07,1.58.12a54.14,54.14,0,0,0,.42-6.84s0-.09,0-.13H533S533,201.46,533,201.51Z"/><path class="cls-4" d="M542.85,191.53h0c.19.9.34,1.86.48,2.87a41.78,41.78,0,0,0,5.92-.94,20.78,20.78,0,0,0-.8-2.05c-1.61-3.52-4-6.15-6.89-7.29a19.42,19.42,0,0,0-2.43-.28,2.19,2.19,0,0,1,.29.17C540.84,184.93,542.07,187.7,542.85,191.53Z"/><path class="cls-4" d="M534,191.18c-.22,1-.4,2.09-.55,3.23l1.47.11c1.12.07,2.28.11,3.47.11,1.38,0,2.71-.06,4-.15l1-.08c-.14-1-.29-2-.48-2.87-.78-3.83-2-6.6-3.43-7.52a2.19,2.19,0,0,0-.29-.17l-.76,0-.76,0C536.11,184.55,534.82,187.28,534,191.18Z"/><path class="cls-4" d="M534,191.18c.84-3.9,2.13-6.63,3.63-7.33a17.27,17.27,0,0,0-2.4.26,13.48,13.48,0,0,0-6.73,6.95,21.49,21.49,0,0,0-1,2.4,40.26,40.26,0,0,0,5.93.95C533.58,193.27,533.76,192.18,534,191.18Z"/><path class="cls-4" d="M534.48,218.49c-3.09-1.55-5.62-4.89-7-9.18a21.42,21.42,0,0,0-3.36,1.09l-.59.28A17.61,17.61,0,0,0,534.48,218.49Z"/><path class="cls-4" d="M550.52,201.38s0,.05,0,.08a25.18,25.18,0,0,1-1.22,7.85,20.45,20.45,0,0,1,3.62,1.2h0l.33.16a17.45,17.45,0,0,0,2.67-9.29Z"/><path class="cls-4" d="M549.31,209.31c-1.42,4.29-4,7.63-7.06,9.17l.12,0a17.61,17.61,0,0,0,10.89-7.79l-.33-.16A20.45,20.45,0,0,0,549.31,209.31Z"/><path class="cls-4" d="M541.78,184.16l-.22,0c2.85,1.14,5.28,3.77,6.89,7.29h0a20.78,20.78,0,0,1,.8,2.05,20.37,20.37,0,0,0,4-1.38l-.34-.52A17.58,17.58,0,0,0,541.78,184.16Z"/><path class="cls-4" d="M550.52,201.38h5.41a17.54,17.54,0,0,0-2.66-9.3,20.37,20.37,0,0,1-4,1.38A24.72,24.72,0,0,1,550.52,201.38Z"/><path class="cls-4" d="M527.5,193.46a19.34,19.34,0,0,1-4-1.37,17.43,17.43,0,0,0-2.68,9.29h5.4A25,25,0,0,1,527.5,193.46Z"/><path class="cls-4" d="M527.44,209.31a25.18,25.18,0,0,1-1.22-7.85v-.08h-5.4a17.48,17.48,0,0,0,2.67,9.3l.59-.28A21.42,21.42,0,0,1,527.44,209.31Z"/><path class="cls-4" d="M528.48,191.06a13.48,13.48,0,0,1,6.73-6.95,17.57,17.57,0,0,0-11.13,7.11c-.2.28-.4.57-.58.87a19.34,19.34,0,0,0,4,1.37A21.49,21.49,0,0,1,528.48,191.06Z"/><polyline class="cls-7" points="608.59 169.74 608.59 201.74 557.28 201.74"/><polygon class="cls-13" points="560.59 197.65 561.28 198.38 557.66 201.74 561.28 205.09 560.59 205.82 556.2 201.74 560.59 197.65"/><polyline class="cls-7" points="470.38 168.74 470.38 201.74 519.11 201.74"/><polygon class="cls-13" points="515.8 205.83 515.12 205.09 518.73 201.74 515.12 198.38 515.8 197.65 520.2 201.74 515.8 205.83"/><path d="M65.22,217.41l-1.32,3.36h-.43l-1.32-3.36v3.36h-1V216.1h1.39L63.69,219l1.13-2.92h1.4v4.67h-1Z"/><path d="M67.4,216.1h3.3V217H68.39v1h2.26v.86H68.39v1.08H70.7v.86H67.4Z"/><path d="M71.47,218.44A2.36,2.36,0,0,1,73.92,216a2.16,2.16,0,0,1,2,1.14l-.86.42a1.26,1.26,0,0,0-1.13-.68,1.54,1.54,0,0,0,0,3.07,1.26,1.26,0,0,0,1.13-.68l.86.41a2.18,2.18,0,0,1-2,1.15A2.36,2.36,0,0,1,71.47,218.44Z"/><path d="M77.07,217.34a.57.57,0,1,1-.57.57A.58.58,0,0,1,77.07,217.34Zm0,2.38a.57.57,0,1,1-.57.56A.57.57,0,0,1,77.07,219.72Z"/><path d="M84.39,217.41l-1.32,3.36h-.44l-1.31-3.36v3.36h-1V216.1h1.4L82.85,219,84,216.1h1.4v4.67h-1Z"/><path d="M88.78,220.35a1.56,1.56,0,0,1-1.19.51,1,1,0,0,1-1.09-1.07v-2.4h.89v2.05c0,.47.24.63.62.63a1,1,0,0,0,.77-.39v-2.29h.89v3.38h-.89Z"/><path d="M90.72,216.1h.89v4.67h-.89Z"/><path d="M92.89,219.94v-1.77h-.56v-.78h.56v-.92h.9v.92h.69v.78h-.69v1.53c0,.21.11.37.31.37a.49.49,0,0,0,.31-.1l.19.67a1.11,1.11,0,0,1-.75.22A.85.85,0,0,1,92.89,219.94Z"/><path d="M95.22,216.43a.53.53,0,1,1,.53.53A.54.54,0,0,1,95.22,216.43Zm.09,1h.89v3.38h-.89Z"/><path d="M97.25,222.06v-4.67h.89v.43a1.31,1.31,0,0,1,1-.51c.86,0,1.49.64,1.49,1.77s-.63,1.78-1.49,1.78a1.32,1.32,0,0,1-1-.52v1.72Zm1.66-4a1,1,0,0,0-.77.38v1.2a1,1,0,0,0,.77.39,1,1,0,0,0,0-2Z"/><path d="M101.56,216.1h.89v4.67h-.89Z"/><path d="M105.05,217.31a1.69,1.69,0,0,1,1.69,1.86v.2h-2.51a.91.91,0,0,0,1,.78,1.35,1.35,0,0,0,.9-.33l.4.57a2.11,2.11,0,0,1-1.4.47,1.78,1.78,0,1,1,0-3.55Zm-.84,1.46h1.67a.78.78,0,0,0-.83-.75A.81.81,0,0,0,104.21,218.77Z"/><path d="M107.52,218.7h1.68v.76h-1.68Z"/><path d="M113.14,220h-2.09l-.29.8h-1.1l1.81-4.67h1.25l1.8,4.67h-1.09Zm-1.82-.86h1.55L112.1,217Z"/><path d="M116.65,217.31a1.59,1.59,0,0,1,1.34.61l-.59.54a.82.82,0,0,0-.71-.36,1,1,0,0,0,0,2,.83.83,0,0,0,.71-.37l.59.54a1.57,1.57,0,0,1-1.34.62,1.78,1.78,0,1,1,0-3.55Z"/><path d="M120.24,217.31a1.56,1.56,0,0,1,1.34.61l-.58.54a.84.84,0,0,0-.71-.36,1,1,0,0,0,0,2,.85.85,0,0,0,.71-.37l.58.54a1.54,1.54,0,0,1-1.34.62,1.78,1.78,0,1,1,0-3.55Z"/><path d="M123.8,217.31a1.69,1.69,0,0,1,1.69,1.86v.2H123a.91.91,0,0,0,1,.78,1.39,1.39,0,0,0,.91-.33l.39.57a2.11,2.11,0,0,1-1.4.47,1.78,1.78,0,0,1,0-3.55Zm-.84,1.46h1.67a.78.78,0,0,0-.83-.75A.82.82,0,0,0,123,218.77Z"/><path d="M126.41,219.71a1.93,1.93,0,0,0,1.17.46c.38,0,.56-.13.56-.34s-.29-.32-.68-.4c-.58-.11-1.33-.25-1.33-1.06,0-.56.5-1.06,1.39-1.06a2.15,2.15,0,0,1,1.37.46l-.36.61a1.41,1.41,0,0,0-1-.39c-.32,0-.53.12-.53.31s.26.29.64.37c.58.11,1.36.26,1.36,1.1,0,.62-.53,1.09-1.46,1.09a2.3,2.3,0,0,1-1.52-.53Z"/><path d="M129.94,219.71a1.93,1.93,0,0,0,1.17.46c.38,0,.57-.13.57-.34s-.3-.32-.68-.4c-.58-.11-1.33-.25-1.33-1.06,0-.56.49-1.06,1.38-1.06a2.15,2.15,0,0,1,1.37.46l-.36.61a1.41,1.41,0,0,0-1-.39c-.32,0-.53.12-.53.31s.26.29.64.37c.58.11,1.36.26,1.36,1.1,0,.62-.52,1.09-1.46,1.09a2.3,2.3,0,0,1-1.52-.53Z"/><path d="M133.22,218.7h1.68v.76h-1.68Z"/><path d="M135.92,216.1h3.31V217h-2.31v1h2.26v.86h-2.26v1.08h2.31v.86h-3.31Z"/><path d="M142.54,220.34a1.28,1.28,0,0,1-1,.52c-.85,0-1.5-.65-1.5-1.77s.64-1.78,1.5-1.78a1.27,1.27,0,0,1,1,.52V216.1h.9v4.67h-.9Zm0-1.86a1,1,0,0,0-.77-.38,1,1,0,0,0,0,2,1,1,0,0,0,.77-.39Z"/><path d="M144.85,221a1.35,1.35,0,0,0,1.06.42.83.83,0,0,0,.93-.86v-.34a1.31,1.31,0,0,1-1.05.53c-.84,0-1.49-.59-1.49-1.72a1.51,1.51,0,0,1,1.49-1.72,1.3,1.3,0,0,1,1.05.52v-.44h.89v3.15c0,1.29-1,1.61-1.82,1.61a2,2,0,0,1-1.46-.51Zm2-2.52a1,1,0,0,0-.77-.38.93.93,0,0,0,0,1.86,1,1,0,0,0,.77-.38Z"/><path d="M150.34,217.31a1.69,1.69,0,0,1,1.69,1.86v.2h-2.51a.92.92,0,0,0,1,.78,1.39,1.39,0,0,0,.91-.33l.39.57a2.11,2.11,0,0,1-1.4.47,1.78,1.78,0,0,1,0-3.55Zm-.83,1.46h1.66a.77.77,0,0,0-.83-.75A.81.81,0,0,0,149.51,218.77Z"/><path d="M154.4,218.44a2.37,2.37,0,0,1,2.46-2.41,2.16,2.16,0,0,1,2,1.14l-.86.42a1.27,1.27,0,0,0-1.13-.68,1.54,1.54,0,0,0,0,3.07,1.27,1.27,0,0,0,1.13-.68l.86.41a2.18,2.18,0,0,1-2,1.15A2.37,2.37,0,0,1,154.4,218.44Z"/><path d="M159.42,219.08a1.79,1.79,0,1,1,1.79,1.78A1.72,1.72,0,0,1,159.42,219.08Zm2.66,0a.87.87,0,1,0-.87,1A.9.9,0,0,0,162.08,219.08Z"/><path d="M168,218.64c0-.32-.14-.54-.5-.54a.92.92,0,0,0-.7.39v2.28h-.9v-2.13c0-.32-.14-.54-.5-.54a.9.9,0,0,0-.7.4v2.27h-.89v-3.38h.89v.44a1.49,1.49,0,0,1,1.11-.52.91.91,0,0,1,.94.61,1.44,1.44,0,0,1,1.16-.61.9.9,0,0,1,1,1v2.44H168Z"/><path d="M170,222.06v-4.67h.88v.43a1.32,1.32,0,0,1,1.05-.51c.87,0,1.5.64,1.5,1.77s-.63,1.78-1.5,1.78a1.32,1.32,0,0,1-1.05-.52v1.72Zm1.65-4a1,1,0,0,0-.77.38v1.2a1,1,0,0,0,.77.39,1,1,0,0,0,0-2Z"/><path d="M176.57,220.35a1.56,1.56,0,0,1-1.19.51,1,1,0,0,1-1.09-1.07v-2.4h.89v2.05c0,.47.24.63.62.63a1,1,0,0,0,.77-.39v-2.29h.89v3.38h-.89Z"/><path d="M178.74,219.94v-1.77h-.56v-.78h.56v-.92h.89v.92h.69v.78h-.69v1.53a.33.33,0,0,0,.31.37.47.47,0,0,0,.31-.1l.19.67a1.08,1.08,0,0,1-.74.22A.84.84,0,0,1,178.74,219.94Z"/><path d="M182.64,217.31a1.69,1.69,0,0,1,1.7,1.86v.2h-2.52a.92.92,0,0,0,1,.78,1.39,1.39,0,0,0,.91-.33l.39.57a2.09,2.09,0,0,1-1.39.47,1.78,1.78,0,1,1-.06-3.55Zm-.83,1.46h1.66a.77.77,0,0,0-.83-.75A.81.81,0,0,0,181.81,218.77Z"/><path d="M60.65,225.39h1l.88,2.36.88-2.36h1L63,228.77H62Z"/><path d="M65,224.1h1.84a2.34,2.34,0,1,1,0,4.67H65Zm1.84,3.8a1.4,1.4,0,0,0,1.47-1.46A1.37,1.37,0,0,0,66.81,225H66v2.92Z"/><path d="M70.19,224.1h1v2.78a1.08,1.08,0,1,0,2.15,0V224.1h1v2.8a2.09,2.09,0,0,1-4.17,0Z"/><path d="M75.87,225.34a.57.57,0,1,1-.56.57A.58.58,0,0,1,75.87,225.34Zm0,2.38a.57.57,0,1,1-.56.56A.57.57,0,0,1,75.87,227.72Z"/><path d="M78.63,224.1h1.14l1.29,3.6,1.29-3.6h1.13l-1.8,4.67H80.44Z"/><path d="M84.06,224.43a.54.54,0,0,1,.53-.54.54.54,0,1,1-.53.54Zm.09,1H85v3.38h-.89Z"/><path d="M86.1,225.39H87v.47a1.43,1.43,0,0,1,1.08-.55v.87l-.24,0a1.13,1.13,0,0,0-.84.38v2.23H86.1Z"/><path d="M89.12,227.94v-1.77h-.56v-.78h.56v-.92H90v.92h.69v.78H90v1.53c0,.21.11.37.31.37a.47.47,0,0,0,.31-.1l.19.67a1.08,1.08,0,0,1-.74.22A.84.84,0,0,1,89.12,227.94Z"/><path d="M93.8,228.35a1.58,1.58,0,0,1-1.19.51,1,1,0,0,1-1.09-1.07v-2.4h.88v2.05a.55.55,0,0,0,.63.63,1,1,0,0,0,.77-.39v-2.29h.89v3.38H93.8Z"/><path d="M97.79,228.43a1.41,1.41,0,0,1-1.07.43,1.13,1.13,0,0,1-1.18-1.12,1.08,1.08,0,0,1,1.18-1.08,1.38,1.38,0,0,1,1.07.41v-.47c0-.34-.3-.56-.74-.56a1.41,1.41,0,0,0-1,.4l-.34-.6a2.26,2.26,0,0,1,1.48-.53c.77,0,1.48.31,1.48,1.28v2.18h-.89Zm0-.89a.92.92,0,0,0-.72-.29c-.35,0-.63.18-.63.51s.28.5.63.5a.89.89,0,0,0,.72-.3Z"/><path d="M99.73,224.1h.89v4.67h-.89Z"/><path d="M103.45,224.1h1.84a2.34,2.34,0,1,1,0,4.67h-1.84Zm1.84,3.8a1.4,1.4,0,0,0,1.47-1.46,1.37,1.37,0,0,0-1.47-1.46h-.84v2.92Z"/><path d="M108.58,224.43a.53.53,0,1,1,.53.53A.54.54,0,0,1,108.58,224.43Zm.09,1h.89v3.38h-.89Z"/><path d="M110.73,227.71a1.93,1.93,0,0,0,1.17.46c.38,0,.56-.13.56-.34s-.29-.32-.67-.4c-.59-.11-1.34-.25-1.34-1.06,0-.56.5-1.06,1.39-1.06a2.15,2.15,0,0,1,1.37.46l-.36.61a1.41,1.41,0,0,0-1-.39c-.32,0-.53.12-.53.31s.26.29.64.37c.58.11,1.36.26,1.36,1.1,0,.62-.53,1.09-1.47,1.09a2.29,2.29,0,0,1-1.51-.53Z"/><path d="M114.38,227.94v-1.77h-.56v-.78h.56v-.92h.9v.92H116v.78h-.68v1.53c0,.21.11.37.31.37a.46.46,0,0,0,.3-.1l.19.67a1.08,1.08,0,0,1-.74.22A.85.85,0,0,1,114.38,227.94Z"/><path d="M116.8,225.39h.89v.47a1.43,1.43,0,0,1,1.08-.55v.87l-.24,0a1.13,1.13,0,0,0-.84.38v2.23h-.89Z"/><path d="M119.38,224.43a.54.54,0,1,1,1.07,0,.54.54,0,0,1-1.07,0Zm.09,1h.89v3.38h-.89Z"/><path d="M121.42,224.1h.89v1.73a1.27,1.27,0,0,1,1-.52c.86,0,1.5.67,1.5,1.78s-.64,1.77-1.5,1.77a1.28,1.28,0,0,1-1-.52v.43h-.89Zm1.65,4a1,1,0,0,0,0-2,1,1,0,0,0-.76.39v1.2A1,1,0,0,0,123.07,228.07Z"/><path d="M128,228.35a1.58,1.58,0,0,1-1.19.51,1,1,0,0,1-1.09-1.07v-2.4h.88v2.05a.55.55,0,0,0,.63.63,1,1,0,0,0,.77-.39v-2.29h.89v3.38H128Z"/><path d="M130.15,227.94v-1.77h-.56v-.78h.56v-.92h.9v.92h.69v.78h-.69v1.53c0,.21.11.37.31.37a.49.49,0,0,0,.31-.1l.19.67a1.13,1.13,0,0,1-.75.22A.85.85,0,0,1,130.15,227.94Z"/><path d="M134.06,225.31a1.69,1.69,0,0,1,1.69,1.86v.2h-2.51a.91.91,0,0,0,1,.78,1.35,1.35,0,0,0,.9-.33l.4.57a2.11,2.11,0,0,1-1.4.47,1.78,1.78,0,0,1-.05-3.55Zm-.84,1.46h1.67a.78.78,0,0,0-.83-.75A.82.82,0,0,0,133.22,226.77Z"/><path d="M138.93,228.34a1.31,1.31,0,0,1-1,.52c-.86,0-1.5-.65-1.5-1.77s.64-1.78,1.5-1.78a1.28,1.28,0,0,1,1,.52V224.1h.9v4.67h-.9Zm0-1.86a1,1,0,0,0-.77-.38,1,1,0,0,0,0,2,1,1,0,0,0,.77-.39Z"/><path d="M142.66,224.1h1v2.78a1.08,1.08,0,1,0,2.16,0V224.1h1v2.8a2.09,2.09,0,0,1-4.17,0Z"/><path d="M150.21,226.73a.55.55,0,0,0-.63-.63,1,1,0,0,0-.77.4v2.27h-.89v-3.38h.89v.44a1.55,1.55,0,0,1,1.18-.52,1,1,0,0,1,1.1,1.08v2.38h-.88Z"/><path d="M152,224.43a.54.54,0,0,1,.54-.54.54.54,0,0,1,0,1.07A.54.54,0,0,1,152,224.43Zm.09,1H153v3.38h-.89Z"/><path d="M154.26,227.94v-1.77h-.56v-.78h.56v-.92h.9v.92h.68v.78h-.68v1.53c0,.21.11.37.3.37a.47.47,0,0,0,.31-.1l.19.67a1.08,1.08,0,0,1-.74.22A.85.85,0,0,1,154.26,227.94Z"/><path d="M60.65,233.39h1l.88,2.36.88-2.36h1L63,236.77H62Z"/><path d="M64.78,234.44A2.36,2.36,0,0,1,67.23,232a2.14,2.14,0,0,1,2,1.14l-.85.42a1.28,1.28,0,0,0-1.13-.68,1.54,1.54,0,0,0,0,3.07,1.28,1.28,0,0,0,1.13-.68l.85.41a2.15,2.15,0,0,1-2,1.15A2.36,2.36,0,0,1,64.78,234.44Z"/><path d="M70,232.1h1v2.78a1.08,1.08,0,1,0,2.16,0V232.1h1v2.8a2.09,2.09,0,0,1-4.18,0Z"/><path d="M75.66,233.34a.57.57,0,1,1-.57.57A.58.58,0,0,1,75.66,233.34Zm0,2.38a.57.57,0,1,1-.57.56A.57.57,0,0,1,75.66,235.72Z"/><path d="M78.42,232.1h1.13l1.3,3.6,1.29-3.6h1.13l-1.8,4.67H80.22Z"/><path d="M83.85,232.43a.53.53,0,1,1,.53.53A.54.54,0,0,1,83.85,232.43Zm.09,1h.89v3.38h-.89Z"/><path d="M85.88,233.39h.89v.47a1.43,1.43,0,0,1,1.08-.55v.87l-.25,0a1.12,1.12,0,0,0-.83.38v2.23h-.89Z"/><path d="M88.9,235.94v-1.77h-.56v-.78h.56v-.92h.9v.92h.69v.78H89.8v1.53c0,.21.11.37.31.37a.49.49,0,0,0,.31-.1l.18.67a1.08,1.08,0,0,1-.74.22A.85.85,0,0,1,88.9,235.94Z"/><path d="M93.58,236.35a1.56,1.56,0,0,1-1.19.51,1,1,0,0,1-1.09-1.07v-2.4h.89v2.05a.55.55,0,0,0,.62.63,1,1,0,0,0,.77-.39v-2.29h.89v3.38h-.89Z"/><path d="M97.57,236.43a1.41,1.41,0,0,1-1.07.43,1.12,1.12,0,0,1-1.17-1.12,1.07,1.07,0,0,1,1.17-1.08,1.36,1.36,0,0,1,1.07.41v-.47c0-.34-.29-.56-.74-.56a1.43,1.43,0,0,0-1,.4l-.33-.6a2.22,2.22,0,0,1,1.48-.53c.77,0,1.47.31,1.47,1.28v2.18h-.89Zm0-.89a.88.88,0,0,0-.71-.29c-.35,0-.64.18-.64.51s.29.5.64.5a.86.86,0,0,0,.71-.3Z"/><path d="M99.51,232.1h.89v4.67h-.89Z"/><path d="M103,234.44a2.37,2.37,0,0,1,2.45-2.41,2.15,2.15,0,0,1,2,1.14l-.85.42a1.29,1.29,0,0,0-1.14-.68,1.54,1.54,0,0,0,0,3.07,1.29,1.29,0,0,0,1.14-.68l.85.41a2.16,2.16,0,0,1-2,1.15A2.37,2.37,0,0,1,103,234.44Z"/><path d="M109.78,233.31a1.69,1.69,0,0,1,1.7,1.86v.2H109a.92.92,0,0,0,1,.78,1.39,1.39,0,0,0,.9-.33l.39.57a2.11,2.11,0,0,1-1.39.47,1.78,1.78,0,1,1-.06-3.55Zm-.83,1.46h1.66a.77.77,0,0,0-.83-.75A.81.81,0,0,0,109,234.77Z"/><path d="M114.59,234.73c0-.47-.24-.63-.62-.63a1,1,0,0,0-.77.4v2.27h-.89v-3.38h.89v.44a1.53,1.53,0,0,1,1.18-.52,1,1,0,0,1,1.1,1.08v2.38h-.89Z"/><path d="M116.71,235.94v-1.77h-.56v-.78h.56v-.92h.9v.92h.69v.78h-.69v1.53c0,.21.11.37.31.37a.49.49,0,0,0,.31-.1l.19.67a1.13,1.13,0,0,1-.75.22A.85.85,0,0,1,116.71,235.94Z"/><path d="M119.14,233.39H120v.47a1.43,1.43,0,0,1,1.08-.55v.87l-.25,0a1.12,1.12,0,0,0-.83.38v2.23h-.89Z"/><path d="M123.86,236.43a1.42,1.42,0,0,1-1.07.43,1.13,1.13,0,0,1-1.18-1.12,1.08,1.08,0,0,1,1.18-1.08,1.39,1.39,0,0,1,1.07.41v-.47c0-.34-.3-.56-.75-.56a1.38,1.38,0,0,0-1,.4l-.34-.6a2.24,2.24,0,0,1,1.48-.53c.77,0,1.48.31,1.48,1.28v2.18h-.89Zm0-.89a.92.92,0,0,0-.72-.29c-.35,0-.64.18-.64.51s.29.5.64.5a.89.89,0,0,0,.72-.3Z"/><path d="M125.79,232.1h.89v4.67h-.89Z"/><path d="M129.52,232.1h1v2.78a1.08,1.08,0,1,0,2.15,0V232.1h1v2.8a2.09,2.09,0,0,1-4.17,0Z"/><path d="M137.06,234.73c0-.47-.24-.63-.62-.63a1,1,0,0,0-.77.4v2.27h-.89v-3.38h.89v.44a1.53,1.53,0,0,1,1.18-.52,1,1,0,0,1,1.1,1.08v2.38h-.89Z"/><path d="M138.9,232.43a.54.54,0,0,1,.53-.54.54.54,0,1,1-.53.54Zm.09,1h.89v3.38H139Z"/><path d="M141.12,235.94v-1.77h-.56v-.78h.56v-.92H142v.92h.69v.78H142v1.53c0,.21.11.37.31.37a.47.47,0,0,0,.31-.1l.19.67a1.08,1.08,0,0,1-.74.22A.84.84,0,0,1,141.12,235.94Z"/><path d="M61.16,240.1h1v2.78a1.08,1.08,0,1,0,2.15,0V240.1h1v2.8a2.09,2.09,0,0,1-4.17,0Z"/><path d="M66.49,240.1h2.19a1.5,1.5,0,1,1,0,3H67.49v1.67h-1Zm2.05.86H67.49v1.29h1.05a.65.65,0,1,0,0-1.29Z"/><path d="M71,240.1h3.3V241H72v1h2.27v.86H72v1.94H71Z"/><path d="M75.59,241.34a.57.57,0,1,1-.57.57A.58.58,0,0,1,75.59,241.34Zm0,2.38a.57.57,0,1,1-.57.56A.57.57,0,0,1,75.59,243.72Z"/><path d="M78.84,240.1h1v2.78a1.08,1.08,0,1,0,2.16,0V240.1h1v2.8a2.09,2.09,0,0,1-4.18,0Z"/><path d="M84.19,243.71a1.93,1.93,0,0,0,1.17.46c.38,0,.56-.13.56-.34s-.29-.32-.68-.4c-.58-.11-1.33-.25-1.33-1.06,0-.56.5-1.06,1.39-1.06a2.15,2.15,0,0,1,1.37.46l-.36.61a1.41,1.41,0,0,0-1-.39c-.33,0-.53.12-.53.31s.26.29.64.37c.58.11,1.36.26,1.36,1.1,0,.62-.53,1.09-1.47,1.09a2.29,2.29,0,0,1-1.51-.53Z"/><path d="M89.15,241.31a1.69,1.69,0,0,1,1.7,1.86v.2H88.34a.9.9,0,0,0,1,.78,1.37,1.37,0,0,0,.9-.33l.39.57a2.07,2.07,0,0,1-1.39.47,1.78,1.78,0,1,1-.06-3.55Zm-.83,1.46H90a.78.78,0,0,0-.84-.75A.81.81,0,0,0,88.32,242.77Z"/><path d="M91.68,241.39h.89v.47a1.43,1.43,0,0,1,1.08-.55v.87l-.25,0a1.11,1.11,0,0,0-.83.38v2.23h-.89Z"/><path d="M96.15,240.1h2.19a1.5,1.5,0,1,1,0,3H97.15v1.67h-1Zm2,.86h-1v1.29h1a.65.65,0,1,0,0-1.29Z"/><path d="M100.64,240.1h.89v4.67h-.89Z"/><path d="M104.62,244.43a1.41,1.41,0,0,1-1.07.43,1.12,1.12,0,0,1-1.17-1.12,1.07,1.07,0,0,1,1.17-1.08,1.36,1.36,0,0,1,1.07.41v-.47c0-.34-.29-.56-.74-.56a1.43,1.43,0,0,0-1,.4l-.33-.6a2.22,2.22,0,0,1,1.48-.53c.77,0,1.47.31,1.47,1.28v2.18h-.89Zm0-.89a.88.88,0,0,0-.71-.29c-.35,0-.64.18-.64.51s.29.5.64.5a.86.86,0,0,0,.71-.3Z"/><path d="M108.84,242.73c0-.47-.24-.63-.62-.63a1,1,0,0,0-.77.4v2.27h-.89v-3.38h.89v.44a1.55,1.55,0,0,1,1.18-.52,1,1,0,0,1,1.1,1.08v2.38h-.89Z"/><path d="M112.33,241.31a1.69,1.69,0,0,1,1.69,1.86v.2h-2.51a.91.91,0,0,0,1,.78,1.35,1.35,0,0,0,.9-.33l.4.57a2.11,2.11,0,0,1-1.4.47,1.78,1.78,0,0,1,0-3.55Zm-.84,1.46h1.67a.77.77,0,0,0-.83-.75A.82.82,0,0,0,111.49,242.77Z"/><path d="M116.62,240.1h3.3V241h-2.31v1h2.26v.86h-2.26v1.94h-1Z"/><path d="M123,244.35a1.56,1.56,0,0,1-1.19.51,1,1,0,0,1-1.09-1.07v-2.4h.89v2.05c0,.47.24.63.62.63a1,1,0,0,0,.77-.39v-2.29h.89v3.38H123Z"/><path d="M127.2,242.73a.55.55,0,0,0-.62-.63,1,1,0,0,0-.78.4v2.27h-.88v-3.38h.88v.44a1.57,1.57,0,0,1,1.19-.52,1,1,0,0,1,1.1,1.08v2.38h-.89Z"/><path d="M130.72,241.31a1.56,1.56,0,0,1,1.34.61l-.58.54a.84.84,0,0,0-.71-.36,1,1,0,0,0,0,2,.85.85,0,0,0,.71-.37l.58.54a1.54,1.54,0,0,1-1.34.62,1.78,1.78,0,1,1,0-3.55Z"/><path d="M133.13,243.94v-1.77h-.56v-.78h.56v-.92h.9v.92h.68v.78H134v1.53c0,.21.11.37.31.37a.44.44,0,0,0,.3-.1l.19.67a1.08,1.08,0,0,1-.74.22A.85.85,0,0,1,133.13,243.94Z"/><path d="M135.45,240.43a.54.54,0,0,1,.54-.54.54.54,0,0,1,0,1.07A.54.54,0,0,1,135.45,240.43Zm.09,1h.89v3.38h-.89Z"/><path d="M137.26,243.08a1.79,1.79,0,1,1,1.79,1.78A1.71,1.71,0,0,1,137.26,243.08Zm2.66,0a.9.9,0,0,0-.87-1,1,1,0,0,0,0,2A.9.9,0,0,0,139.92,243.08Z"/><path d="M144,242.73c0-.47-.24-.63-.62-.63a1,1,0,0,0-.77.4v2.27h-.89v-3.38h.89v.44a1.53,1.53,0,0,1,1.18-.52,1,1,0,0,1,1.1,1.08v2.38H144Z"/><line class="cls-14" x1="28.12" y1="94.19" x2="58.09" y2="94.19"/><line class="cls-4" x1="632.78" y1="43.48" x2="632.78" y2="46.21"/><line class="cls-4" x1="628.6" y1="43.48" x2="628.6" y2="46.21"/><line class="cls-4" x1="624.42" y1="43.48" x2="624.42" y2="46.21"/><path d="M601.44,44.14a.71.71,0,1,1-.7.71.7.7,0,0,1,.7-.71m0-1a1.71,1.71,0,1,0,1.69,1.71,1.71,1.71,0,0,0-1.69-1.71Z"/><rect class="cls-5" x="597.96" y="42.08" width="39" height="5.54" rx="1.4"/><line class="cls-4" x1="632.78" y1="50.85" x2="632.78" y2="53.57"/><line class="cls-4" x1="628.6" y1="50.85" x2="628.6" y2="53.57"/><line class="cls-4" x1="624.42" y1="50.85" x2="624.42" y2="53.57"/><path d="M601.44,51.51a.7.7,0,1,1-.7.7.69.69,0,0,1,.7-.7m0-1a1.7,1.7,0,1,0,1.69,1.7,1.7,1.7,0,0,0-1.69-1.7Z"/><rect class="cls-5" x="597.96" y="49.44" width="39" height="5.54" rx="1.4"/><line class="cls-4" x1="632.78" y1="58.21" x2="632.78" y2="60.94"/><line class="cls-4" x1="628.6" y1="58.21" x2="628.6" y2="60.94"/><line class="cls-4" x1="624.42" y1="58.21" x2="624.42" y2="60.94"/><path d="M601.44,58.87a.71.71,0,1,1-.7.71.7.7,0,0,1,.7-.71m0-1a1.71,1.71,0,1,0,1.69,1.71,1.71,1.71,0,0,0-1.69-1.71Z"/><rect class="cls-5" x="597.96" y="56.81" width="39" height="5.54" rx="1.4"/><line class="cls-4" x1="632.78" y1="65.58" x2="632.78" y2="68.31"/><line class="cls-4" x1="628.6" y1="65.58" x2="628.6" y2="68.31"/><line class="cls-4" x1="624.42" y1="65.58" x2="624.42" y2="68.31"/><path d="M601.44,66.24a.7.7,0,1,1-.7.7.69.69,0,0,1,.7-.7m0-1a1.7,1.7,0,1,0,1.69,1.7,1.7,1.7,0,0,0-1.69-1.7Z"/><rect class="cls-5" x="597.96" y="64.17" width="39" height="5.54" rx="1.4"/><line class="cls-4" x1="632.78" y1="72.94" x2="632.78" y2="75.67"/><line class="cls-4" x1="628.6" y1="72.94" x2="628.6" y2="75.67"/><line class="cls-4" x1="624.42" y1="72.94" x2="624.42" y2="75.67"/><path d="M601.44,73.6a.71.71,0,1,1-.7.71.7.7,0,0,1,.7-.71m0-1a1.71,1.71,0,1,0,1.69,1.71,1.71,1.71,0,0,0-1.69-1.71Z"/><rect class="cls-5" x="597.96" y="71.54" width="39" height="5.54" rx="1.4"/><line class="cls-4" x1="689.78" y1="43.48" x2="689.78" y2="46.21"/><line class="cls-4" x1="685.6" y1="43.48" x2="685.6" y2="46.21"/><line class="cls-4" x1="681.42" y1="43.48" x2="681.42" y2="46.21"/><path d="M658.44,44.14a.71.71,0,1,1-.7.71.7.7,0,0,1,.7-.71m0-1a1.71,1.71,0,1,0,1.69,1.71,1.71,1.71,0,0,0-1.69-1.71Z"/><rect class="cls-5" x="654.96" y="42.08" width="39" height="5.54" rx="1.4"/><line class="cls-4" x1="689.78" y1="50.85" x2="689.78" y2="53.57"/><line class="cls-4" x1="685.6" y1="50.85" x2="685.6" y2="53.57"/><line class="cls-4" x1="681.42" y1="50.85" x2="681.42" y2="53.57"/><path d="M658.44,51.51a.7.7,0,1,1-.7.7.69.69,0,0,1,.7-.7m0-1a1.7,1.7,0,1,0,1.69,1.7,1.7,1.7,0,0,0-1.69-1.7Z"/><rect class="cls-5" x="654.96" y="49.44" width="39" height="5.54" rx="1.4"/><line class="cls-4" x1="689.78" y1="58.21" x2="689.78" y2="60.94"/><line class="cls-4" x1="685.6" y1="58.21" x2="685.6" y2="60.94"/><line class="cls-4" x1="681.42" y1="58.21" x2="681.42" y2="60.94"/><path d="M658.44,58.87a.71.71,0,1,1-.7.71.7.7,0,0,1,.7-.71m0-1a1.71,1.71,0,1,0,1.69,1.71,1.71,1.71,0,0,0-1.69-1.71Z"/><rect class="cls-5" x="654.96" y="56.81" width="39" height="5.54" rx="1.4"/><line class="cls-4" x1="689.78" y1="65.58" x2="689.78" y2="68.31"/><line class="cls-4" x1="685.6" y1="65.58" x2="685.6" y2="68.31"/><line class="cls-4" x1="681.42" y1="65.58" x2="681.42" y2="68.31"/><path d="M658.44,66.24a.7.7,0,1,1-.7.7.69.69,0,0,1,.7-.7m0-1a1.7,1.7,0,1,0,1.69,1.7,1.7,1.7,0,0,0-1.69-1.7Z"/><rect class="cls-5" x="654.96" y="64.17" width="39" height="5.54" rx="1.4"/><line class="cls-4" x1="689.78" y1="72.94" x2="689.78" y2="75.67"/><line class="cls-4" x1="685.6" y1="72.94" x2="685.6" y2="75.67"/><line class="cls-4" x1="681.42" y1="72.94" x2="681.42" y2="75.67"/><path d="M658.44,73.6a.71.71,0,1,1-.7.71.7.7,0,0,1,.7-.71m0-1a1.71,1.71,0,1,0,1.69,1.71,1.71,1.71,0,0,0-1.69-1.71Z"/><rect class="cls-5" x="654.96" y="71.54" width="39" height="5.54" rx="1.4"/><path class="cls-15" d="M274.53,27.51H250.86a6,6,0,0,1,0-12h0a8.91,8.91,0,0,1,8.86-9,8.74,8.74,0,0,1,3.65.8A10.34,10.34,0,0,1,283.4,11a10.62,10.62,0,0,1-.35,2.72A7.53,7.53,0,0,1,279,27.51h-1.48"/><path class="cls-15" d="M521.57,28.11H497.9a6,6,0,0,1,0-12h0a8.9,8.9,0,0,1,8.86-8.95,8.76,8.76,0,0,1,3.65.79,10.35,10.35,0,0,1,20.06,3.68,10.7,10.7,0,0,1-.36,2.73A7.53,7.53,0,0,1,526,28.11h-1.48"/><path class="cls-15" d="M739,27.51H715.31a6,6,0,0,1,0-12h0a8.91,8.91,0,0,1,8.86-9,8.74,8.74,0,0,1,3.65.8A10.34,10.34,0,0,1,747.85,11a10.2,10.2,0,0,1-.36,2.72,7.53,7.53,0,0,1-4.08,13.8h-1.48"/><path d="M404.79,118.64h.95l.88,2.36.89-2.36h1L407.11,122h-1Z"/><path d="M408.91,119.69a2.36,2.36,0,0,1,2.45-2.41,2.16,2.16,0,0,1,2,1.14l-.85.42a1.29,1.29,0,0,0-1.14-.68,1.54,1.54,0,0,0,0,3.07,1.29,1.29,0,0,0,1.14-.68l.85.41a2.18,2.18,0,0,1-2,1.15A2.36,2.36,0,0,1,408.91,119.69Z"/><path d="M414.11,117.35h1v2.78a1.08,1.08,0,1,0,2.15,0v-2.78h1v2.8a2.09,2.09,0,0,1-4.17,0Z"/><line class="cls-7" x1="421.91" y1="112.06" x2="401.69" y2="112.06"/><line class="cls-7" x1="411.8" y1="106.37" x2="411.8" y2="112.06"/><path d="M440.56,117.35h1v2.78a1.08,1.08,0,1,0,2.16,0v-2.78h1v2.8a2.09,2.09,0,0,1-4.17,0Z"/><path d="M445.89,117.35h2.19a1.5,1.5,0,1,1,0,3h-1.2V122h-1Zm2.05.86h-1.06v1.29h1.06a.65.65,0,1,0,0-1.29Z"/><path d="M450.41,117.35h3.31v.86h-2.31v1h2.26v.86h-2.26V122h-1Z"/><line class="cls-7" x1="457.17" y1="112.06" x2="436.94" y2="112.06"/><line class="cls-7" x1="447.06" y1="106.37" x2="447.06" y2="112.06"/><path d="M481.13,118.66,479.81,122h-.43l-1.32-3.37V122h-1v-4.68h1.39l1.13,2.92,1.14-2.92h1.4V122h-1Z"/><path d="M483.3,117.35h3.31v.86H484.3v1h2.26v.86H484.3v1.08h2.31V122H483.3Z"/><path d="M487.38,119.69a2.36,2.36,0,0,1,2.45-2.41,2.16,2.16,0,0,1,2,1.14l-.86.42a1.26,1.26,0,0,0-1.13-.68,1.54,1.54,0,0,0,0,3.07,1.26,1.26,0,0,0,1.13-.68l.86.41a2.18,2.18,0,0,1-2,1.15A2.36,2.36,0,0,1,487.38,119.69Z"/><line class="cls-7" x1="494.42" y1="112.06" x2="474.2" y2="112.06"/><line class="cls-7" x1="484.31" y1="106.37" x2="484.31" y2="112.06"/></g></g></svg>