<?xml version="1.0" encoding="utf-8"?>
<!-- Generator: Adobe Illustrator 23.0.6, SVG Export Plug-In . SVG Version: 6.00 Build 0)  -->
<svg version="1.1" id="Layer_1" xmlns="http://www.w3.org/2000/svg" xmlns:xlink="http://www.w3.org/1999/xlink" x="0px" y="0px"
	 viewBox="0 0 466.9 84.8" style="enable-background:new 0 0 466.9 84.8;" xml:space="preserve">
<style type="text/css">
	.st0{fill:#221F72;}
	.st1{fill:#808285;}
</style>
<g>
	<path class="st0" d="M115.2,63.1c0-1.1-0.4-2.1-1.2-2.9L84.2,10.1V6.3h-5.5v3.5l-20.5,34l-20.5-34V6.3h-5.4v3.7L2.4,60.2
		c-0.7,0.9-1.2,1.9-1.2,2.9h9.8c0,0-1.3-2.5,5.1-5c0,0,1.5-4.5,1.5-4.5s-6.1,1.1-10.9,3.4L30,17.9l-13.1,40l2.6-1l12.8-39.5v33.9
		c-3.2,0.4-6.8,0.9-10.8,1.6l-1.1,3.8c0,0,18.8-3.8,28.2-3.5l-0.8-3c0,0-3.6-0.1-10,0.5V16.8l11.7,36.2l2.2-0.1L40.3,18l16.8,27.7
		L54.5,50c-1,0-2,0.1-3.1,0.1l0.9,2.9c0,0,6.1-0.4,11.6,0.1c0,0,1-3,1-3s-1.1,0-3-0.1l-2.6-4.3L76.1,18L64.7,53.1l2.3,0.1l11.7-36.3
		v33.9c-6.5-0.6-10-0.5-10-0.5l-0.8,3c9.5-0.3,28.3,3.5,28.3,3.5L95,52.9c-4-0.7-7.6-1.2-10.8-1.6V17.4L97,56.9l2.6,0.9l-13.1-40
		l23.2,39.2c-4.8-2.3-10.9-3.4-10.9-3.4s1.5,4.5,1.5,4.5c6.3,2.5,5.1,5,5.1,5H115.2L115.2,63.1z M59.7,49.9c-0.9,0-1.9,0-3,0
		l1.5-2.5L59.7,49.9L59.7,49.9z"/>
	<polygon class="st1" points="294.5,83.1 294.5,75.5 290.3,75.5 290.3,73.9 300.9,73.9 300.9,75.5 296.6,75.5 296.6,83.1 
		294.5,83.1 	"/>
	<polygon class="st1" points="304.3,83.1 304.3,73.9 313.6,73.9 313.6,75.5 306.4,75.5 306.4,77.5 310.6,77.5 310.6,79.1 
		306.4,79.1 306.4,81.4 313.7,81.4 313.7,83.1 304.3,83.1 	"/>
	<path class="st1" d="M320.4,75.5v5.9h5.7v-2l2.1,0.4V81c0,1.7-0.6,2.2-2.3,2.2h-5.5c-1.7,0-2.3-0.4-2.3-2.2v-4.9
		c0-1.7,0.5-2.2,2.3-2.2h5.5c1.7,0,2.3,0.4,2.3,2.2V77l-2.1,0.3v-1.8H320.4L320.4,75.5z"/>
	<polygon class="st1" points="342.3,83.1 342.3,79.2 335.6,79.2 335.6,83.1 333.5,83.1 333.5,73.9 335.6,73.9 335.6,77.5 
		342.3,77.5 342.3,73.9 344.4,73.9 344.4,83.1 342.3,83.1 	"/>
	<path class="st1" d="M349.9,73.9h1.5l6.4,5.4c0.4,0.3,0.7,0.6,1,1c-0.1-0.8-0.1-1.3-0.1-1.6v-4.9h1.9v9.3h-1.5l-6.7-5.7
		c-0.3-0.2-0.5-0.5-0.8-0.8c0.1,0.7,0.1,1.2,0.1,1.5v5h-1.9V73.9L349.9,73.9z"/>
	<path class="st1" d="M367.6,73.9h6.7c1.7,0,2.3,0.4,2.3,2.2V81c0,1.7-0.6,2.2-2.3,2.2h-6.7c-1.7,0-2.3-0.4-2.3-2.2v-4.9
		C365.3,74.3,365.8,73.9,367.6,73.9 M374.5,75.5h-7v5.9h7V75.5L374.5,75.5z"/>
	<polygon class="st1" points="381.9,83.1 381.9,73.9 384,73.9 384,81.4 390.9,81.4 390.9,83.1 381.9,83.1 	"/>
	<path class="st1" d="M396.5,73.9h6.7c1.7,0,2.3,0.4,2.3,2.2V81c0,1.7-0.5,2.2-2.3,2.2h-6.7c-1.7,0-2.3-0.4-2.3-2.2v-4.9
		C394.3,74.3,394.8,73.9,396.5,73.9 M403.4,75.5h-7v5.9h7V75.5L403.4,75.5z"/>
	<path class="st1" d="M412.8,75.5v5.9h6.7v-2.1h-3.5v-1.6h5.6V81c0,1.7-0.5,2.2-2.3,2.2h-6.3c-1.7,0-2.3-0.4-2.3-2.2v-4.9
		c0-1.7,0.5-2.2,2.3-2.2h6.3c1.7,0,2.3,0.4,2.3,2.1v0.2l-2.1,0.4v-1H412.8L412.8,75.5z"/>
	<polygon class="st1" points="426.8,73.9 428.9,73.9 428.9,83.1 426.8,83.1 426.8,73.9 	"/>
	<polygon class="st1" points="434,83.1 434,73.9 443.3,73.9 443.3,75.5 436.1,75.5 436.1,77.5 440.3,77.5 440.3,79.1 436.1,79.1 
		436.1,81.4 443.4,81.4 443.4,83.1 434,83.1 	"/>
	<path class="st1" d="M450.1,75.5v2h5.7c1.7,0,2.3,0.4,2.3,2.2V81c0,1.7-0.6,2.2-2.3,2.2h-5.7c-1.7,0-2.3-0.4-2.3-2.2v-0.3l1.9-0.4
		v1.1h6.5v-2.1h-5.7c-1.7,0-2.3-0.4-2.3-2.2v-1c0-1.7,0.6-2.2,2.3-2.2h5.2c1.6,0,2.3,0.4,2.3,2v0.2l-1.9,0.5v-1.1H450.1L450.1,75.5z
		"/>
	<path class="st0" d="M176.6,62.9V60c7-0.6,7.3-1.2,7.2-9.7l-0.2-34.4h-0.4l-20.5,46.4h-2.2l-18.8-45.5h-0.3l-1.2,23.6
		c-0.4,7.3-0.4,11.3-0.1,14.4c0.3,3.9,2.1,4.7,8.1,5.3v2.9H127V60c5.1-0.4,6.8-1.8,7.4-5.2c0.5-2.8,1.2-7.1,1.8-16.3l1.3-17.7
		c0.7-10.4,0.1-11.4-7.7-12.1V6h17.1l18.4,40.3L184,6h17v2.8c-7.4,0.7-7.9,1.2-7.7,9.1l0.9,32.4c0.2,8.5,0.5,9,7.8,9.7v2.9H176.6
		L176.6,62.9z"/>
	<path class="st0" d="M236.4,54.8c-5.4,7.4-12.1,9.2-15.5,9.2c-11.5,0-18-8.7-18-18.7c0-6.5,2.6-11.9,6.3-15.6
		c3.8-3.9,8.8-6.3,13.4-6.3h0.1c7.9,0,14.1,6.7,14.1,13.8c0,1.8-0.5,2.7-2.4,3.1c-1.5,0.2-12.5,1.1-22,1.4
		c0.3,10.3,6.2,15.2,12.5,15.2c3.5,0,6.9-1.2,10-4L236.4,54.8L236.4,54.8z M220.7,26.7c-3.7,0-7.1,3.9-7.9,10.9
		c4.1,0,8-0.1,12.2-0.3c1.4,0,2-0.4,2-1.8C227.1,31.1,224.7,26.7,220.7,26.7L220.7,26.7L220.7,26.7z"/>
	<path class="st0" d="M238.2,62.9v-2.6c5.4-0.7,6.1-1.1,6.1-6.8V15c0-5.5-0.4-5.7-5.7-6.3V6.4c5-0.5,11.3-1.8,15.5-3.1v50.2
		c0,5.9,0.6,6.3,6.2,6.8v2.6H238.2L238.2,62.9z"/>
	<path class="st0" d="M264.3,62.9v-2.6c5.4-0.7,6.1-1.1,6.1-6.8V15c0-5.5-0.4-7.9-5.7-8.5V4.2c5-0.5,11.3-1.8,15.5-3.1v52.4
		c0,5.9,0.6,6.3,6.2,6.8v2.6H264.3L264.3,62.9z"/>
	<path class="st0" d="M316.6,64c-2.1,0-3.9-0.8-5-1.8c-1.3-1.1-1.9-2.3-2.2-3.5c-3.5,2.3-7.8,5.3-9.8,5.3c-7.1,0-11.6-5.6-11.6-11
		c0-4.5,2.2-6.7,7-8.5c5.3-1.8,12.1-4,14.1-5.7v-2.3c0-5.8-2.4-9-6.2-9c-1.4,0-2.5,0.5-3.4,1.6c-1,1.2-1.8,3.2-2.6,6
		c-0.5,2-1.7,2.6-3.3,2.6c-2.1,0-4.9-1.9-4.9-4.1c0-1.5,1.1-2.5,2.9-3.9c3.1-2.1,9.2-5.3,14.3-6.2c3.3,0,6,0.8,8.2,2.5
		c3.7,2.7,4.5,6.4,4.5,11.2v15.1c0,4,1.4,5.2,2.9,5.2c1.1,0,2.2-0.3,3.1-0.8l0.9,2.6L316.6,64L316.6,64z M309,42
		c-1.7,0.9-4.2,2.1-6.1,3.1c-3,1.4-4.6,3.1-4.6,6.1c0,4.7,3.4,6.7,5.7,6.7c1.7,0,3.5-0.8,5-2V42L309,42z"/>
	<path class="st0" d="M353,62.9v-2.6c4.3-0.5,4.8-1,4.8-7.1V38.4c0-6.2-2.7-8.8-6.9-8.8c-2.8,0-5.3,1.4-7.8,3.3v20.9
		c0,5.6,0.5,6,4.7,6.5v2.6h-20.7v-2.6c5.7-0.7,6.2-0.9,6.2-6.7V35.4c0-5.3-0.4-5.7-5-6.6v-2.3c4.7-0.7,10-1.8,14.8-3.4v6.7
		c1.8-1.2,3.7-2.6,5.7-3.9c2.6-1.7,4.6-2.5,7.1-2.5c7.1,0,11.6,5.1,11.6,13.8v16.7c0,5.6,0.5,5.9,5.4,6.5v2.6H353L353,62.9z"/>
	<path class="st0" d="M393.8,23.3c11.9,0,19.9,9.1,19.9,19.6c0,14.1-10.4,21-20.3,21c-13.4,0-20.5-9.8-20.5-19.4
		C372.9,30.3,384.3,23.3,393.8,23.3L393.8,23.3L393.8,23.3z M392.4,26.6c-4.3,0-8.3,5-8.3,14.9c0,10.9,4,19.3,10.3,19.3
		c4.2,0,8.1-2.8,8.1-15.4C402.5,33.9,398.9,26.6,392.4,26.6L392.4,26.6L392.4,26.6z"/>
	<path class="st0" d="M435.6,62.9v-2.6c3.5-0.5,4-1.3,2.5-3.9l-5.4-8.6c-1.8,2.6-3.6,5.6-5,8.1c-1.6,2.7-1.2,3.7,2.8,4.4v2.6h-16.8
		v-2.6c5.1-0.8,6.5-1.8,9.8-5.6c2.3-2.6,4.6-6,7.3-9.5l-7.8-12.4c-2.7-4.2-3.7-5-8.5-5.7v-2.6h19.9V27c-3.3,0.6-3.8,1.4-2.3,3.5
		l4.6,7.3c1.9-2.6,3.4-5.2,4.6-7.3c1.4-2.3,0.9-2.9-2.8-3.5v-2.6H455V27c-5.1,0.7-6.1,1.1-9.3,4.5c-2,2.1-4,5-7.1,9.1l8.7,13.3
		c3,4.6,4.8,5.8,9.3,6.4v2.6H435.6L435.6,62.9z"/>
	<path class="st0" d="M461.8,24.6c2.1,0,3.8,1.5,3.8,3.5c0,2-1.7,3.5-3.8,3.5c-2.1,0-3.8-1.5-3.8-3.5
		C458,26.1,459.7,24.6,461.8,24.6L461.8,24.6L461.8,24.6z M461.8,25.2c-1.7,0-3,1.3-3,2.9c0,1.6,1.3,2.9,3,2.9c1.7,0,3-1.3,3-2.8
		C464.8,26.5,463.5,25.2,461.8,25.2L461.8,25.2L461.8,25.2z M461.1,29.9h-0.7v-3.6c0.4-0.1,0.8-0.1,1.3-0.1c0.7,0,1,0.1,1.2,0.3
		c0.2,0.1,0.4,0.4,0.4,0.8c0,0.5-0.4,0.7-0.8,0.9v0c0.4,0.1,0.5,0.4,0.7,0.9c0.1,0.5,0.2,0.8,0.3,0.9h-0.7c-0.1-0.1-0.2-0.5-0.3-0.9
		c-0.1-0.4-0.4-0.6-0.9-0.6h-0.5V29.9L461.1,29.9z M461.1,27.9h0.5c0.5,0,1-0.1,1-0.6c0-0.4-0.2-0.6-1-0.6c-0.3,0-0.4,0-0.6,0V27.9
		L461.1,27.9z"/>
</g>
</svg>
