<?xml version="1.0" encoding="utf-8"?>
<!-- Generator: Adobe Illustrator 21.0.0, SVG Export Plug-In . SVG Version: 6.00 Build 0)  -->
<svg version="1.1" id="Icons" xmlns="http://www.w3.org/2000/svg" xmlns:xlink="http://www.w3.org/1999/xlink" x="0px" y="0px"
	 viewBox="0 0 128 128" style="enable-background:new 0 0 128 128;" xml:space="preserve">
<style type="text/css">
	.st0{fill:none;stroke:#FFFFFF;stroke-linecap:round;stroke-linejoin:round;stroke-miterlimit:10;}
	.st1{fill:#FFFFFF;}
</style>
<g>
	<g id="XMLID_1580_">
		<line id="XMLID_1585_" class="st0" x1="56" y1="94" x2="72" y2="94"/>
	</g>
	<path id="XMLID_18_" class="st0" d="M124,93.9c0,4.2-4,6.1-4,6.1L8.5,100L8,100c0,0-4-1.8-4-6c0-4.2,4-6,4-6h112V24H8v56"/>
</g>
<g>
	<path class="st1" d="M20.5,42.6h4.8v22.9h-1v-22h-3.8V42.6z"/>
	<path class="st1" d="M46.8,47.7v12.7c0,3.5-1.6,5.1-5.1,5.1H36c-3.5,0-5.1-1.6-5.1-5.1V47.7c0-3.5,1.6-5.1,5.1-5.1h5.7
		C45.2,42.6,46.8,44.2,46.8,47.7z M45.8,47.7c0-3-1.1-4.2-4.1-4.2H36c-3,0-4.1,1.2-4.1,4.2v12.7c0,3,1.1,4.2,4.1,4.2h5.7
		c3,0,4.1-1.2,4.1-4.2V47.7z"/>
	<path class="st1" d="M68.1,47.7v12.7c0,3.5-1.6,5.1-5.1,5.1h-5.7c-3.5,0-5.1-1.6-5.1-5.1V47.7c0-3.5,1.6-5.1,5.1-5.1H63
		C66.5,42.6,68.1,44.2,68.1,47.7z M67.1,47.7c0-3-1.1-4.2-4.1-4.2h-5.7c-3,0-4.1,1.2-4.1,4.2v12.7c0,3,1.1,4.2,4.1,4.2H63
		c3,0,4.1-1.2,4.1-4.2V47.7z"/>
	<path class="st1" d="M89.4,47.7v12.7c0,3.5-1.6,5.1-5.1,5.1h-5.7c-3.5,0-5.1-1.6-5.1-5.1V47.7c0-3.5,1.6-5.1,5.1-5.1h5.7
		C87.8,42.6,89.4,44.2,89.4,47.7z M88.5,47.7c0-3-1.1-4.2-4.1-4.2h-5.7c-3,0-4.1,1.2-4.1,4.2v12.7c0,3,1.1,4.2,4.1,4.2h5.7
		c3,0,4.1-1.2,4.1-4.2V47.7z"/>
	<path class="st1" d="M109.9,57h-7.2v7.2h-1V57h-7.2v-0.9h7.2V49h1v7.2h7.2V57z"/>
</g>
</svg>
