<svg xmlns="http://www.w3.org/2000/svg" viewBox="0 0 505.57 320.96"><defs><style>.cls-1,.cls-10,.cls-2,.cls-4,.cls-6,.cls-7,.cls-9{fill:none;}.cls-1,.cls-10{stroke:#000;}.cls-1,.cls-2,.cls-4,.cls-6,.cls-7,.cls-9{stroke-linecap:round;}.cls-1,.cls-10,.cls-2,.cls-4,.cls-6,.cls-7{stroke-miterlimit:10;}.cls-2,.cls-7{stroke:#343434;}.cls-3{fill:#fff;}.cls-4,.cls-6{stroke:#1db14b;}.cls-4,.cls-7{stroke-dasharray:3 3;}.cls-5{fill:#1db14b;}.cls-8{fill:#343434;}.cls-9{stroke:#231f20;stroke-linejoin:round;}</style></defs><g id="Layer_2" data-name="Layer 2"><g id="Layer_1-2" data-name="Layer 1"><polygon class="cls-1" points="483.18 49.56 483.18 99.03 224.91 99.03 224.91 33.18 483.18 33.18 483.18 42.12 483.18 49.56"/><polygon class="cls-1" points="483.18 252.95 483.18 302.42 224.91 302.42 224.91 236.57 483.18 236.57 483.18 245.51 483.18 252.95"/><line class="cls-2" x1="310.81" y1="270.5" x2="334.53" y2="270.5"/><polygon class="cls-1" points="153.52 9 153.52 49.68 197.57 49.68 197.57 81.76 197.57 108.44 197.57 285.92 153.52 285.92 153.52 320.46 505.07 320.46 505.07 9 153.52 9"/><polygon class="cls-1" points="153.52 49.68 106.6 49.68 106.6 285.92 153.52 285.92 197.57 285.92 197.57 108.44 197.57 81.76 197.57 49.68 153.52 49.68"/><rect x="271.32" width="117.95" height="18"/><path class="cls-3" d="M289.19,12.5l-1.6-3.35V12.5H286V5.4h1.55V8.56l1.48-3.16h1.74l-1.58,3.44,1.71,3.66Z"/><path class="cls-3" d="M291.66,10.63V5.4h1.55v5.25c0,.36.23.6.72.6s.73-.24.73-.6V5.4h1.55v5.23a2.29,2.29,0,0,1-4.55,0Z"/><path class="cls-3" d="M301.64,10.12v.41a1.93,1.93,0,0,1-2,2h-2.45V5.4h2.31a1.86,1.86,0,0,1,2,1.77v.51A1.51,1.51,0,0,1,301,8.8,1.68,1.68,0,0,1,301.64,10.12Zm-2.93-3.37V8.23h.84c.23,0,.41-.22.41-.53V7.2a.43.43,0,0,0-.4-.45Zm1.38,3.35c0-.3-.16-.53-.41-.53h-1v1.58h1c.26,0,.42-.25.42-.55Z"/><path class="cls-3" d="M304,6.8V8.35h1.72v1.4H304V11.1h2.12v1.4h-3.67V5.4h3.67V6.8Z"/><path class="cls-3" d="M309.27,9.94h-.74V12.5H307V5.4h2.36a2,2,0,0,1,2.12,1.94V8a1.86,1.86,0,0,1-.71,1.5l.92,3h-1.62Zm-.74-1.4h.91a.44.44,0,0,0,.47-.47v-.8a.43.43,0,0,0-.46-.47h-.92Z"/><path class="cls-3" d="M317.07,5.4v7.1h-1.36l-1.85-4v4h-1.35V5.4h1.35l1.85,4.06V5.4Z"/><path class="cls-3" d="M319.61,6.8V8.35h1.71v1.4h-1.71V11.1h2.11v1.4h-3.66V5.4h3.66V6.8Z"/><path class="cls-3" d="M326.87,6.8H325.4v5.7h-1.55V6.8h-1.48V5.4h4.5Z"/><path class="cls-3" d="M329.18,6.8V8.35h1.72v1.4h-1.72V11.1h2.12v1.4h-3.67V5.4h3.67V6.8Z"/><path class="cls-3" d="M332.06,10.4v-.28h1.55v.44a.74.74,0,0,0,.83.73.68.68,0,0,0,.72-.69c0-1.27-3-1-3-3.27a2,2,0,0,1,2.22-2.08,1.94,1.94,0,0,1,2.21,2v.44h-1.55V7.14c0-.31-.3-.49-.67-.49a.59.59,0,0,0-.65.6c0,1,3,.79,3,3.21a2.1,2.1,0,0,1-2.31,2.19A2.15,2.15,0,0,1,332.06,10.4Z"/><path class="cls-3" d="M339.59,10.63V7.27a2.37,2.37,0,0,1,4.69,0v.89h-1.57V7.25c0-.36-.26-.6-.77-.6s-.8.24-.8.6v3.4c0,.36.27.6.79.6s.78-.24.78-.6V9.74h1.57v.89a2.37,2.37,0,0,1-4.69,0Z"/><path class="cls-3" d="M348.86,11.1v1.4h-3.68V5.4h1.54v5.7Z"/><path class="cls-3" d="M349.59,10.63V5.4h1.55v5.25c0,.36.23.6.72.6s.73-.24.73-.6V5.4h1.55v5.23a2.29,2.29,0,0,1-4.55,0Z"/><path class="cls-3" d="M355,10.4v-.28h1.54v.44a.74.74,0,0,0,.83.73.68.68,0,0,0,.72-.69c0-1.27-3-1-3-3.27a2,2,0,0,1,2.22-2.08,1.94,1.94,0,0,1,2.21,2v.44H358V7.14c0-.31-.3-.49-.67-.49a.59.59,0,0,0-.65.6c0,1,3,.79,3,3.21a2.1,2.1,0,0,1-2.31,2.19A2.15,2.15,0,0,1,355,10.4Z"/><path class="cls-3" d="M364.78,6.8h-1.46v5.7h-1.55V6.8h-1.48V5.4h4.49Z"/><path class="cls-3" d="M367.09,6.8V8.35h1.72v1.4h-1.72V11.1h2.12v1.4h-3.67V5.4h3.67V6.8Z"/><path class="cls-3" d="M372.33,9.94h-.74V12.5H370V5.4h2.36a2,2,0,0,1,2.12,1.94V8a1.86,1.86,0,0,1-.71,1.5l.92,3h-1.62Zm-.74-1.4h.91a.44.44,0,0,0,.47-.47v-.8a.43.43,0,0,0-.46-.47h-.92Z"/><rect x="117.88" y="40.71" width="67.97" height="18"/><path class="cls-3" d="M131.38,47.51v1.8h1.82v1.4h-1.82v2.5h-1.55v-7.1h3.66v1.4Z"/><path class="cls-3" d="M138.45,50.62v.79a2.13,2.13,0,0,1-4.24,0v-.64h1.55v.75c0,.3.2.48.57.48s.57-.18.57-.48v-1c0-.28-.13-.45-.34-.45H134.4v-4h3.78v1.4H136V48.7h.63A1.82,1.82,0,0,1,138.45,50.62Z"/><path class="cls-3" d="M141.37,51.11v-.28h1.55v.44a.74.74,0,0,0,.83.73.68.68,0,0,0,.72-.69c0-1.27-3-1-3-3.27A2,2,0,0,1,143.72,46a1.94,1.94,0,0,1,2.21,2v.44h-1.55v-.54c0-.31-.3-.49-.67-.49a.59.59,0,0,0-.65.6c0,1,3,.79,3,3.21a2.1,2.1,0,0,1-2.31,2.18A2.15,2.15,0,0,1,141.37,51.11Z"/><path class="cls-3" d="M148.46,47.51v1.55h1.72v1.4h-1.72v1.35h2.12v1.4h-3.67v-7.1h3.67v1.4Z"/><path class="cls-3" d="M153.7,50.65H153v2.56h-1.55v-7.1h2.36a2,2,0,0,1,2.12,1.94v.66a1.86,1.86,0,0,1-.71,1.5l.92,3h-1.62Zm-.74-1.4h.91a.44.44,0,0,0,.47-.47V48a.43.43,0,0,0-.46-.47H153Z"/><path class="cls-3" d="M161.56,46.11l-1.5,7.1h-2l-1.49-7.1h1.55l1,4.87,1-4.87Z"/><path class="cls-3" d="M162.36,46.11h1.54v7.1h-1.54Z"/><path class="cls-3" d="M164.83,51.34V48a2.37,2.37,0,0,1,4.68,0v.89H168V48c0-.36-.26-.6-.77-.6s-.8.24-.8.6v3.4c0,.36.27.6.79.6s.78-.24.78-.6v-.91h1.56v.89a2.37,2.37,0,0,1-4.68,0Z"/><path class="cls-3" d="M172,47.51v1.55h1.72v1.4H172v1.35h2.12v1.4h-3.67v-7.1h3.67v1.4Z"/><path d="M347.2,65.33c0-.77-.4-1-1-1a1.69,1.69,0,0,0-1.28.67v3.18h-.68v-6h.68v2.29a2.15,2.15,0,0,1,1.55-.74,1.23,1.23,0,0,1,1.39,1.39v3.07h-.67Z"/><path d="M349.26,67.28V64.43h-.72v-.59h.72V62.65h.68v1.19h.88v.59h-.88v2.71c0,.32.14.55.44.55a.65.65,0,0,0,.46-.18l.2.51a1.12,1.12,0,0,1-.81.28A.9.9,0,0,1,349.26,67.28Z"/><path d="M351.82,67.28V64.43h-.72v-.59h.72V62.65h.67v1.19h.89v.59h-.89v2.71c0,.32.15.55.45.55a.65.65,0,0,0,.46-.18l.19.51a1.1,1.1,0,0,1-.81.28C352.14,68.3,351.82,67.93,351.82,67.28Z"/><path d="M354.24,69.85v-6h.68v.65a1.81,1.81,0,0,1,1.46-.76c1.15,0,1.94.87,1.94,2.28s-.79,2.29-1.94,2.29a1.77,1.77,0,0,1-1.46-.77v2.32Zm2-5.51a1.58,1.58,0,0,0-1.29.69v2a1.59,1.59,0,0,0,1.29.7c.88,0,1.4-.72,1.4-1.68S357.09,64.34,356.21,64.34Z"/><path d="M360.78,62h.53l-2.14,6.37h-.53Z"/><path d="M361.7,67.6c2.16-1.71,3.33-2.71,3.33-3.74a1.12,1.12,0,0,0-1.25-1.1,2,2,0,0,0-1.63.76l-.46-.48a2.63,2.63,0,0,1,2.09-.95,1.83,1.83,0,0,1,2,1.77c0,1.22-1.24,2.34-2.92,3.66h2.94v.67H361.7Z"/><path d="M286,65.4c0-.76-.4-1-1-1a1.7,1.7,0,0,0-1.28.68v3.18H283v-6h.68v2.29a2.15,2.15,0,0,1,1.55-.74,1.23,1.23,0,0,1,1.39,1.39v3.07H286Z"/><path d="M288,67.36V64.51h-.72v-.59H288V62.73h.68v1.19h.88v.59h-.88v2.7c0,.33.14.56.44.56a.65.65,0,0,0,.46-.18l.2.51a1.12,1.12,0,0,1-.81.28A.9.9,0,0,1,288,67.36Z"/><path d="M290.59,67.36V64.51h-.72v-.59h.72V62.73h.68v1.19h.88v.59h-.88v2.7c0,.33.14.56.44.56a.65.65,0,0,0,.46-.18l.19.51a1.1,1.1,0,0,1-.81.28C290.91,68.38,290.59,68,290.59,67.36Z"/><path d="M293,69.92v-6h.68v.65a1.81,1.81,0,0,1,1.46-.76c1.15,0,1.94.87,1.94,2.28s-.79,2.29-1.94,2.29a1.77,1.77,0,0,1-1.46-.77v2.31Zm2-5.51a1.59,1.59,0,0,0-1.29.7v2a1.59,1.59,0,0,0,1.29.7c.88,0,1.4-.72,1.4-1.68S295.86,64.41,295,64.41Z"/><path d="M299.55,62.08h.53l-2.14,6.37h-.53Z"/><path d="M300.47,67.67c2.16-1.7,3.33-2.7,3.33-3.73a1.12,1.12,0,0,0-1.25-1.1,2,2,0,0,0-1.63.76l-.46-.48a2.63,2.63,0,0,1,2.09-.95,1.83,1.83,0,0,1,2,1.77c0,1.22-1.24,2.34-2.92,3.66h3v.67h-4.13Z"/><path d="M400.5,62.26h2.06a3,3,0,1,1,0,6H400.5Zm2.06,5.34a2.34,2.34,0,0,0,0-4.67h-1.31V67.6Z"/><path d="M406.21,62.77a.46.46,0,1,1,.91,0,.46.46,0,0,1-.91,0Zm.12,1.15H407v4.35h-.67Z"/><path d="M410.62,67.77a1.86,1.86,0,0,1-1.44.61,1.45,1.45,0,0,1-1.52-1.44,1.42,1.42,0,0,1,1.52-1.44,1.8,1.8,0,0,1,1.44.6v-.79c0-.58-.47-.91-1.1-.91a1.74,1.74,0,0,0-1.33.6l-.31-.47a2.27,2.27,0,0,1,1.73-.72c.92,0,1.69.42,1.69,1.47v3h-.68Zm0-1.24a1.46,1.46,0,0,0-1.2-.54,1,1,0,1,0,0,1.9,1.46,1.46,0,0,0,1.2-.54Z"/><path d="M417.44,65.31c0-.54-.24-.9-.8-.9a1.54,1.54,0,0,0-1.15.67v3.19h-.67v-3c0-.54-.24-.9-.81-.9a1.52,1.52,0,0,0-1.14.68v3.18h-.67V63.92h.67v.63a1.89,1.89,0,0,1,1.41-.74,1.12,1.12,0,0,1,1.17.81,1.83,1.83,0,0,1,1.45-.81c.8,0,1.22.44,1.22,1.32v3.14h-.68Z"/><path d="M420.91,63.81A2.12,2.12,0,0,1,423,66.14v.17h-3.52A1.53,1.53,0,0,0,421,67.82a1.89,1.89,0,0,0,1.34-.55l.33.44a2.38,2.38,0,0,1-1.73.67,2.15,2.15,0,0,1-2.21-2.29A2.18,2.18,0,0,1,420.91,63.81Zm-1.43,2h2.85a1.41,1.41,0,0,0-1.43-1.45A1.44,1.44,0,0,0,419.48,65.82Z"/><path d="M423.77,67.36V64.51h-.72v-.59h.72V62.73h.67v1.19h.89v.59h-.89v2.7c0,.33.15.56.45.56a.64.64,0,0,0,.45-.18l.2.51a1.1,1.1,0,0,1-.81.28C424.09,68.38,423.77,68,423.77,67.36Z"/><path d="M427.72,63.81a2.11,2.11,0,0,1,2.09,2.33v.17h-3.52a1.54,1.54,0,0,0,1.57,1.51,1.91,1.91,0,0,0,1.34-.55l.32.44a2.38,2.38,0,0,1-1.73.67,2.29,2.29,0,0,1-.07-4.57Zm-1.43,2h2.85a1.41,1.41,0,0,0-1.43-1.45A1.44,1.44,0,0,0,426.29,65.82Z"/><path d="M430.45,63.92h.67v.7a1.85,1.85,0,0,1,1.45-.79v.69l-.27,0a1.6,1.6,0,0,0-1.18.69v3.08h-.67Z"/><path d="M347.56,272.17a2.54,2.54,0,0,0,1.89.85c1.07,0,1.41-.57,1.41-1,0-.72-.73-.92-1.52-1.14-1-.25-2-.52-2-1.7,0-1,.88-1.66,2.06-1.66a2.81,2.81,0,0,1,2.13.83l-.45.55a2.31,2.31,0,0,0-1.73-.72c-.73,0-1.24.39-1.24,1s.7.78,1.46,1c1,.26,2.1.56,2.1,1.82,0,.88-.6,1.77-2.22,1.77a3,3,0,0,1-2.3-1Z"/><path d="M352.66,267.58h.75v6h-.75Z"/><path d="M354.72,267.58h2.42a1.81,1.81,0,1,1,0,3.61h-1.67v2.39h-.75Zm2.33.66h-1.58v2.29h1.58a1.15,1.15,0,1,0,0-2.29Z"/><path d="M284,270.8c0-.77-.39-1-1-1a1.69,1.69,0,0,0-1.28.67v3.18H281v-6h.68v2.29a2.13,2.13,0,0,1,1.55-.74,1.23,1.23,0,0,1,1.39,1.39v3.07H284Z"/><path d="M286,272.75v-2.84h-.72v-.6H286v-1.19h.68v1.19h.88v.6h-.88v2.7c0,.32.14.55.44.55a.65.65,0,0,0,.46-.18l.2.51a1.12,1.12,0,0,1-.81.28A.9.9,0,0,1,286,272.75Z"/><path d="M288.59,272.75v-2.84h-.72v-.6h.72v-1.19h.67v1.19h.89v.6h-.89v2.7c0,.32.15.55.44.55a.65.65,0,0,0,.46-.18l.2.51a1.1,1.1,0,0,1-.81.28C288.91,273.77,288.59,273.4,288.59,272.75Z"/><path d="M291,275.32v-6h.67V270a1.84,1.84,0,0,1,1.47-.76c1.15,0,1.94.87,1.94,2.28s-.79,2.29-1.94,2.29a1.8,1.8,0,0,1-1.47-.77v2.32Zm2-5.51a1.62,1.62,0,0,0-1.3.69v2a1.63,1.63,0,0,0,1.3.7c.87,0,1.4-.72,1.4-1.68S293.85,269.81,293,269.81Z"/><path d="M297.54,267.48h.53l-2.13,6.36h-.53Z"/><path d="M298.47,273.07c2.16-1.71,3.33-2.71,3.33-3.74a1.12,1.12,0,0,0-1.25-1.1,2,2,0,0,0-1.63.76l-.46-.48a2.61,2.61,0,0,1,2.09-.95,1.83,1.83,0,0,1,2,1.77c0,1.22-1.25,2.34-2.92,3.66h2.94v.67h-4.12Z"/><path d="M400.5,267.65h2.06a3,3,0,1,1,0,6H400.5Zm2.06,5.34a2.34,2.34,0,0,0,0-4.67h-1.31V273Z"/><path d="M406.21,268.16a.46.46,0,1,1,.91,0,.46.46,0,0,1-.91,0Zm.12,1.15H407v4.35h-.67Z"/><path d="M410.62,273.16a1.86,1.86,0,0,1-1.44.61,1.45,1.45,0,0,1-1.52-1.44,1.42,1.42,0,0,1,1.52-1.43,1.79,1.79,0,0,1,1.44.59v-.78c0-.59-.47-.92-1.1-.92a1.74,1.74,0,0,0-1.33.6l-.31-.47a2.27,2.27,0,0,1,1.73-.72c.92,0,1.69.42,1.69,1.47v3h-.68Zm0-1.24a1.46,1.46,0,0,0-1.2-.54,1,1,0,1,0,0,1.9,1.46,1.46,0,0,0,1.2-.54Z"/><path d="M417.44,270.71c0-.55-.24-.9-.8-.9a1.52,1.52,0,0,0-1.15.66v3.19h-.67v-3c0-.55-.24-.9-.81-.9a1.5,1.5,0,0,0-1.14.67v3.18h-.67v-4.35h.67v.63a1.89,1.89,0,0,1,1.41-.74,1.12,1.12,0,0,1,1.17.81,1.83,1.83,0,0,1,1.45-.81c.8,0,1.22.44,1.22,1.32v3.14h-.68Z"/><path d="M420.91,269.2a2.12,2.12,0,0,1,2.09,2.33v.18h-3.52a1.53,1.53,0,0,0,1.56,1.5,1.89,1.89,0,0,0,1.34-.55l.33.44a2.38,2.38,0,0,1-1.73.67,2.15,2.15,0,0,1-2.21-2.29A2.18,2.18,0,0,1,420.91,269.2Zm-1.43,2h2.85a1.41,1.41,0,0,0-1.43-1.45A1.44,1.44,0,0,0,419.48,271.21Z"/><path d="M423.77,272.75v-2.84h-.72v-.6h.72v-1.19h.67v1.19h.89v.6h-.89v2.7c0,.32.15.55.45.55a.64.64,0,0,0,.45-.18l.2.51a1.1,1.1,0,0,1-.81.28C424.09,273.77,423.77,273.4,423.77,272.75Z"/><path d="M427.72,269.2a2.11,2.11,0,0,1,2.09,2.33v.18h-3.52a1.53,1.53,0,0,0,1.57,1.5,1.91,1.91,0,0,0,1.34-.55l.32.44a2.38,2.38,0,0,1-1.73.67,2.29,2.29,0,0,1-.07-4.57Zm-1.43,2h2.85a1.41,1.41,0,0,0-1.43-1.45A1.44,1.44,0,0,0,426.29,271.21Z"/><path d="M430.45,269.31h.67v.7a1.85,1.85,0,0,1,1.45-.79v.69l-.27,0a1.6,1.6,0,0,0-1.18.69v3.08h-.67Z"/><polygon class="cls-1" points="483.18 151.25 483.18 200.72 224.91 200.72 224.91 134.88 483.18 134.88 483.18 143.82 483.18 151.25"/><path d="M441.16,167c0-.76-.4-1-1-1a1.69,1.69,0,0,0-1.29.68v3.17h-.67v-6h.67v2.29a2.17,2.17,0,0,1,1.56-.74,1.22,1.22,0,0,1,1.39,1.38v3.07h-.68Z"/><path d="M443.23,169v-2.85h-.72v-.59h.72v-1.19h.67v1.19h.89v.59h-.89v2.7c0,.32.15.56.45.56a.64.64,0,0,0,.45-.18l.2.5a1.06,1.06,0,0,1-.81.28A.88.88,0,0,1,443.23,169Z"/><path d="M445.78,169v-2.85h-.72v-.59h.72v-1.19h.68v1.19h.88v.59h-.88v2.7c0,.32.14.56.44.56a.65.65,0,0,0,.46-.18l.2.5a1.08,1.08,0,0,1-.81.28A.89.89,0,0,1,445.78,169Z"/><path d="M448.21,171.54v-6h.67v.64a1.83,1.83,0,0,1,1.47-.75c1.14,0,1.93.86,1.93,2.28s-.79,2.28-1.93,2.28a1.79,1.79,0,0,1-1.47-.76v2.31Zm2-5.51a1.63,1.63,0,0,0-1.3.69v2a1.64,1.64,0,0,0,1.3.7c.87,0,1.39-.72,1.39-1.68S451.05,166,450.18,166Z"/><path d="M454.74,163.7h.53l-2.13,6.36h-.53Z"/><path d="M455.67,169.29c2.16-1.7,3.33-2.7,3.33-3.74a1.12,1.12,0,0,0-1.25-1.09,2,2,0,0,0-1.63.75l-.46-.48a2.61,2.61,0,0,1,2.09-.94,1.82,1.82,0,0,1,2,1.76c0,1.23-1.24,2.34-2.91,3.67h2.94v.66h-4.12Z"/><path d="M377.69,167c0-.76-.39-1-1-1a1.69,1.69,0,0,0-1.29.68v3.17h-.67v-6h.67v2.29a2.17,2.17,0,0,1,1.56-.74,1.22,1.22,0,0,1,1.39,1.38v3.07h-.68Z"/><path d="M379.76,169v-2.85H379v-.59h.72v-1.19h.68v1.19h.88v.59h-.88v2.7c0,.32.14.56.44.56a.65.65,0,0,0,.46-.18l.19.5a1.06,1.06,0,0,1-.81.28A.88.88,0,0,1,379.76,169Z"/><path d="M382.32,169v-2.85h-.72v-.59h.72v-1.19H383v1.19h.88v.59H383v2.7c0,.32.15.56.44.56a.65.65,0,0,0,.46-.18l.2.5a1.06,1.06,0,0,1-.81.28A.88.88,0,0,1,382.32,169Z"/><path d="M384.74,171.54v-6h.67v.64a1.83,1.83,0,0,1,1.47-.75c1.14,0,1.94.86,1.94,2.28S388,170,386.88,170a1.8,1.8,0,0,1-1.47-.76v2.31Zm2-5.51a1.64,1.64,0,0,0-1.3.69v2a1.65,1.65,0,0,0,1.3.7c.87,0,1.39-.72,1.39-1.68S387.58,166,386.71,166Z"/><path d="M391.27,163.7h.53l-2.13,6.36h-.53Z"/><path d="M392.2,169.29c2.16-1.7,3.33-2.7,3.33-3.74a1.12,1.12,0,0,0-1.25-1.09,2,2,0,0,0-1.63.75l-.46-.48a2.61,2.61,0,0,1,2.09-.94,1.83,1.83,0,0,1,2,1.76c0,1.23-1.25,2.34-2.92,3.67h2.94v.66H392.2Z"/><path d="M314.38,167c0-.76-.39-1-1-1a1.69,1.69,0,0,0-1.29.68v3.17h-.67v-6h.67v2.29a2.17,2.17,0,0,1,1.56-.74,1.22,1.22,0,0,1,1.39,1.38v3.07h-.68Z"/><path d="M316.45,169v-2.85h-.72v-.59h.72v-1.19h.68v1.19H318v.59h-.88v2.7c0,.32.14.56.44.56a.65.65,0,0,0,.46-.18l.2.5a1.1,1.1,0,0,1-.82.28A.89.89,0,0,1,316.45,169Z"/><path d="M319,169v-2.85h-.72v-.59H319v-1.19h.67v1.19h.88v.59h-.88v2.7c0,.32.15.56.44.56a.65.65,0,0,0,.46-.18l.2.5a1.06,1.06,0,0,1-.81.28A.88.88,0,0,1,319,169Z"/><path d="M321.43,171.54v-6h.67v.64a1.83,1.83,0,0,1,1.47-.75c1.14,0,1.94.86,1.94,2.28s-.8,2.28-1.94,2.28a1.8,1.8,0,0,1-1.47-.76v2.31Zm2-5.51a1.64,1.64,0,0,0-1.3.69v2a1.65,1.65,0,0,0,1.3.7c.87,0,1.39-.72,1.39-1.68S324.27,166,323.4,166Z"/><path d="M328,163.7h.53l-2.13,6.36h-.53Z"/><path d="M328.89,169.29c2.16-1.7,3.33-2.7,3.33-3.74a1.12,1.12,0,0,0-1.25-1.09,2,2,0,0,0-1.63.75l-.46-.48a2.61,2.61,0,0,1,2.09-.94,1.83,1.83,0,0,1,2,1.76c0,1.23-1.25,2.34-2.92,3.67H333v.66h-4.12Z"/><path d="M253.52,168.55a2.52,2.52,0,0,0,1.89.85c1.07,0,1.41-.57,1.41-1,0-.72-.73-.92-1.52-1.13-1-.26-2-.53-2-1.71,0-1,.89-1.66,2.07-1.66a2.81,2.81,0,0,1,2.13.84l-.45.54a2.32,2.32,0,0,0-1.74-.72c-.72,0-1.23.39-1.23,1s.69.78,1.46,1c1,.26,2.09.57,2.09,1.83,0,.87-.59,1.76-2.21,1.76a3,3,0,0,1-2.31-.95Z"/><path d="M258.62,164h.75v6h-.75Z"/><path d="M260.68,164h2.41a1.81,1.81,0,1,1,0,3.62h-1.66V170h-.75Zm2.32.66h-1.57v2.29H263a1.15,1.15,0,1,0,0-2.29Z"/><line class="cls-4" x1="197.57" y1="69.03" x2="269.91" y2="69.03"/><polygon class="cls-5" points="266.6 73.12 265.92 72.39 269.53 69.03 265.92 65.67 266.6 64.94 271 69.03 266.6 73.12"/><line class="cls-6" x1="197.57" y1="167.8" x2="236.31" y2="167.8"/><polygon class="cls-5" points="233 171.89 232.32 171.16 235.93 167.8 232.32 164.44 233 163.71 237.4 167.8 233 171.89"/><line class="cls-4" x1="197.57" y1="213.36" x2="446.92" y2="213.36"/><polygon class="cls-5" points="443.61 217.45 442.93 216.72 446.54 213.36 442.93 210 443.61 209.27 448.01 213.36 443.61 217.45"/><line class="cls-2" x1="293.48" y1="86.41" x2="449.36" y2="147.1"/><line class="cls-2" x1="259.75" y1="187.66" x2="417.27" y2="250.11"/><line class="cls-2" x1="416.62" y1="86.41" x2="259.75" y2="146.59"/><path class="cls-7" d="M416.7,86.72"/><line class="cls-7" x1="197.57" y1="110.74" x2="414.19" y2="110.74"/><polygon class="cls-8" points="410.87 114.83 410.19 114.1 413.8 110.74 410.19 107.38 410.87 106.65 415.27 110.74 410.87 114.83"/><line class="cls-7" x1="197.57" y1="224.54" x2="414.58" y2="224.54"/><polygon class="cls-8" points="411.27 228.63 410.59 227.9 414.2 224.54 410.59 221.18 411.27 220.45 415.67 224.54 411.27 228.63"/><line class="cls-2" x1="416.67" y1="224.54" x2="416.67" y2="250.11"/><line class="cls-2" x1="291.35" y1="250.11" x2="386.16" y2="187.66"/><line class="cls-2" x1="355.05" y1="86.41" x2="449.36" y2="146.59"/><line class="cls-2" x1="322.95" y1="146.59" x2="416.62" y2="86.41"/><line class="cls-7" x1="0.5" y1="111.82" x2="98.52" y2="111.82"/><polygon class="cls-8" points="95.2 115.91 94.52 115.18 98.13 111.82 94.52 108.47 95.2 107.73 99.6 111.82 95.2 115.91"/><line class="cls-6" x1="0.5" y1="167.8" x2="98.52" y2="167.8"/><polygon class="cls-5" points="95.2 171.89 94.52 171.16 98.13 167.8 94.52 164.44 95.2 163.71 99.6 167.8 95.2 171.89"/><line class="cls-4" x1="0.5" y1="213.17" x2="98.52" y2="213.17"/><polygon class="cls-5" points="95.2 217.26 94.52 216.53 98.13 213.17 94.52 209.81 95.2 209.08 99.6 213.17 95.2 217.26"/><path class="cls-8" d="M10.63,100.27h2.1a2.67,2.67,0,1,1,0,5.33h-2.1Zm2.1,4.33a1.59,1.59,0,0,0,1.67-1.66,1.56,1.56,0,0,0-1.67-1.67h-1v3.33Z"/><path class="cls-8" d="M16.45,100.64a.62.62,0,0,1,.61-.61.61.61,0,1,1,0,1.21A.62.62,0,0,1,16.45,100.64Zm.11,1.1h1v3.86h-1Z"/><path class="cls-8" d="M21.05,105.2a1.6,1.6,0,0,1-1.22.5,1.28,1.28,0,0,1-1.34-1.28,1.21,1.21,0,0,1,1.34-1.23,1.55,1.55,0,0,1,1.22.47v-.54c0-.39-.33-.65-.84-.65a1.65,1.65,0,0,0-1.13.46l-.38-.68a2.49,2.49,0,0,1,1.68-.61c.88,0,1.69.36,1.69,1.47v2.49h-1Zm0-1a1,1,0,0,0-.81-.33c-.4,0-.73.21-.73.58s.33.57.73.57a1,1,0,0,0,.81-.34Z"/><path class="cls-8" d="M28,103.16c0-.36-.16-.61-.58-.61a1,1,0,0,0-.8.44v2.61h-1v-2.44c0-.36-.16-.61-.58-.61a1,1,0,0,0-.8.45v2.6h-1v-3.86h1v.5a1.7,1.7,0,0,1,1.27-.6,1,1,0,0,1,1.07.71,1.63,1.63,0,0,1,1.32-.71,1,1,0,0,1,1.14,1.17v2.79H28Z"/><path class="cls-8" d="M32,101.64a1.94,1.94,0,0,1,1.93,2.13V104H31.05a1,1,0,0,0,1.11.9,1.56,1.56,0,0,0,1-.38l.45.65a2.41,2.41,0,0,1-1.59.54,2,2,0,0,1-.06-4.06Zm-1,1.67h1.91a.9.9,0,0,0-.95-.86A.93.93,0,0,0,31,103.31Z"/><path class="cls-8" d="M35.06,104.64v-2h-.64v-.89h.64v-1.06h1v1.06h.79v.89h-.79v1.74c0,.24.13.42.36.42a.54.54,0,0,0,.35-.11l.21.77a1.26,1.26,0,0,1-.84.25A1,1,0,0,1,35.06,104.64Z"/><path class="cls-8" d="M39.49,101.64a1.94,1.94,0,0,1,1.93,2.13V104H38.55a1,1,0,0,0,1.11.9,1.56,1.56,0,0,0,1-.38l.45.65a2.41,2.41,0,0,1-1.59.54,2,2,0,0,1-.06-4.06Zm-1,1.67h1.91a.9.9,0,0,0-.95-.86A.93.93,0,0,0,38.53,103.31Z"/><path class="cls-8" d="M42.34,101.74h1v.53a1.63,1.63,0,0,1,1.23-.62v1a1.84,1.84,0,0,0-.28,0,1.26,1.26,0,0,0-1,.44v2.55h-1Z"/><path class="cls-8" d="M47.16,103.23h1.92v.87H47.16Z"/><path class="cls-8" d="M53.29,101.27H51.73v-1H56v1H54.44v4.33H53.29Z"/><path class="cls-8" d="M56.48,102.94a2.7,2.7,0,0,1,2.8-2.76,2.45,2.45,0,0,1,2.27,1.3l-1,.48a1.48,1.48,0,0,0-1.3-.77,1.75,1.75,0,0,0,0,3.5,1.47,1.47,0,0,0,1.3-.78l1,.48a2.47,2.47,0,0,1-2.27,1.31A2.7,2.7,0,0,1,56.48,102.94Z"/><path class="cls-8" d="M62.45,100.27h2.49a1.71,1.71,0,1,1,0,3.42H63.58v1.91H62.45Zm2.34,1H63.58v1.47h1.21a.72.72,0,0,0,.78-.73A.73.73,0,0,0,64.79,101.24Z"/><path class="cls-8" d="M68.68,100.11h.74l-1.9,5.65h-.73Z"/><path class="cls-8" d="M70.29,104a2.33,2.33,0,0,0,1.69.72c.63,0,.93-.3.93-.6s-.46-.54-1.08-.68c-.87-.2-2-.44-2-1.64,0-.88.77-1.6,2-1.6a3,3,0,0,1,2.08.74l-.63.83a2.27,2.27,0,0,0-1.53-.58c-.51,0-.78.22-.78.54s.45.47,1.06.62c.88.2,2,.46,2,1.65,0,1-.69,1.71-2.13,1.71a3.08,3.08,0,0,1-2.26-.85Z"/><path class="cls-8" d="M74.75,102.94a2.7,2.7,0,0,1,2.8-2.76,2.48,2.48,0,0,1,2.27,1.3l-1,.48a1.45,1.45,0,0,0-1.29-.77,1.75,1.75,0,0,0,0,3.5,1.44,1.44,0,0,0,1.29-.78l1,.48a2.48,2.48,0,0,1-2.27,1.31A2.7,2.7,0,0,1,74.75,102.94Z"/><path class="cls-8" d="M82,101.27H80.44v-1H84.7v1H83.14v4.33H82Z"/><path class="cls-8" d="M85.53,100.27H88a1.71,1.71,0,1,1,0,3.42H86.67v1.91H85.53Zm2.35,1H86.67v1.47h1.21a.72.72,0,0,0,.78-.73A.74.74,0,0,0,87.88,101.24Z"/><path class="cls-8" d="M23.65,160.83a2.29,2.29,0,0,0,1.69.72c.62,0,.93-.29.93-.6s-.47-.53-1.08-.68c-.87-.2-2-.44-2-1.63,0-.89.77-1.6,2-1.6a3,3,0,0,1,2.08.74l-.63.83a2.27,2.27,0,0,0-1.53-.58c-.51,0-.78.22-.78.54s.45.47,1.06.62c.88.2,2,.46,2,1.64,0,1-.7,1.71-2.14,1.71A3.05,3.05,0,0,1,23,161.7Z"/><path class="cls-8" d="M28.44,157.12h1.13v5.33H28.44Z"/><path class="cls-8" d="M30.87,157.12h2.5a1.71,1.71,0,1,1,0,3.42H32v1.91H30.87Zm2.34,1H32v1.47h1.2a.73.73,0,0,0,.79-.73A.74.74,0,0,0,33.21,158.09Z"/><path class="cls-8" d="M37.78,160.08H39.7v.86H37.78Z"/><path class="cls-8" d="M43.91,158.11H42.35v-1h4.26v1H45.05v4.34H43.91Z"/><path class="cls-8" d="M47.1,159.79A2.7,2.7,0,0,1,49.9,157a2.45,2.45,0,0,1,2.27,1.3l-1,.48a1.48,1.48,0,0,0-1.3-.78,1.76,1.76,0,0,0,0,3.51,1.47,1.47,0,0,0,1.3-.78l1,.47a2.45,2.45,0,0,1-2.27,1.31A2.7,2.7,0,0,1,47.1,159.79Z"/><path class="cls-8" d="M53.07,157.12h2.49a1.71,1.71,0,1,1,0,3.42H54.2v1.91H53.07Zm2.34,1H54.2v1.47h1.21a.72.72,0,0,0,.78-.73A.73.73,0,0,0,55.41,158.09Z"/><path class="cls-8" d="M59.3,157H60l-1.9,5.65h-.73Z"/><path class="cls-8" d="M60.75,157.12H61.9v3.16a1.23,1.23,0,1,0,2.46,0v-3.16h1.15v3.19a2.39,2.39,0,0,1-4.76,0Z"/><path class="cls-8" d="M66.81,157.12h2.11a2.67,2.67,0,1,1,0,5.33H66.81Zm2.11,4.33a1.6,1.6,0,0,0,1.67-1.66,1.57,1.57,0,0,0-1.67-1.68H68v3.34Z"/><path class="cls-8" d="M72.78,157.12h2.49a1.71,1.71,0,1,1,0,3.42H73.91v1.91H72.78Zm2.34,1H73.91v1.47h1.21a.72.72,0,0,0,.78-.73A.73.73,0,0,0,75.12,158.09Z"/><path class="cls-8" d="M29.06,205.17H26.54v2.24H25.41v-5.34h1.13v2.1h2.52v-2.1h1.15v5.34H29.06Z"/><path class="cls-8" d="M32.6,203.07H31v-1H35.3v1H33.75v4.34H32.6Z"/><path class="cls-8" d="M37.52,203.07H36v-1h4.26v1H38.67v4.34H37.52Z"/><path class="cls-8" d="M41.06,202.07h2.49a1.71,1.71,0,1,1,0,3.42H42.19v1.92H41.06Zm2.34,1H42.19v1.47H43.4a.74.74,0,1,0,0-1.47Z"/><path class="cls-8" d="M47.29,201.91H48l-1.89,5.66h-.74Z"/><path class="cls-8" d="M48.6,206.51c2.18-1.61,2.82-2.16,2.82-2.81,0-.47-.42-.7-.87-.7a1.88,1.88,0,0,0-1.42.62l-.65-.76a2.75,2.75,0,0,1,2.06-.87,1.81,1.81,0,0,1,2,1.71c0,.91-.75,1.7-2.18,2.71h2.22v1h-4Z"/><path class="cls-8" d="M55.47,205h1.92v.86H55.47Z"/><path class="cls-8" d="M61.6,203.07H60v-1h4.25v1H62.74v4.34H61.6Z"/><path class="cls-8" d="M64.79,204.74a2.7,2.7,0,0,1,2.8-2.76,2.44,2.44,0,0,1,2.27,1.31l-1,.48a1.48,1.48,0,0,0-1.3-.78,1.75,1.75,0,0,0,0,3.5,1.46,1.46,0,0,0,1.3-.77l1,.47a2.47,2.47,0,0,1-2.27,1.31A2.7,2.7,0,0,1,64.79,204.74Z"/><path class="cls-8" d="M70.76,202.07h2.49a1.71,1.71,0,1,1,0,3.42H71.89v1.92H70.76Zm2.34,1H71.89v1.47H73.1a.74.74,0,1,0,0-1.47Z"/><path d="M135.31,183.93a3.08,3.08,0,0,0,2.31,1c1.31,0,1.72-.7,1.72-1.27,0-.88-.89-1.12-1.86-1.38-1.17-.31-2.48-.64-2.48-2.08,0-1.21,1.08-2,2.52-2a3.43,3.43,0,0,1,2.6,1l-.55.67a2.77,2.77,0,0,0-2.12-.88c-.88,0-1.51.47-1.51,1.16s.85,1,1.79,1.21c1.2.32,2.56.7,2.56,2.24,0,1.06-.73,2.15-2.71,2.15a3.62,3.62,0,0,1-2.81-1.16Z"/><path d="M143.82,180.22a2.57,2.57,0,0,1,2.55,2.84v.21h-4.3a1.87,1.87,0,0,0,1.92,1.84,2.29,2.29,0,0,0,1.63-.67l.4.54a2.87,2.87,0,0,1-2.11.81,2.79,2.79,0,0,1-.09-5.57Zm-1.75,2.45h3.49a1.72,1.72,0,0,0-1.75-1.77A1.77,1.77,0,0,0,142.07,182.67Z"/><path d="M147.59,180.35h.83v.86a2.23,2.23,0,0,1,1.77-1v.85a1.11,1.11,0,0,0-.33,0,1.93,1.93,0,0,0-1.44.85v3.76h-.83Z"/><path d="M150.32,180.35h.89L153,184.7l1.76-4.35h.91l-2.22,5.31h-.9Z"/><path d="M156.25,178.94a.56.56,0,1,1,1.11,0,.56.56,0,0,1-1.11,0Zm.14,1.41h.83v5.31h-.83Z"/><path d="M161.1,180.22a2.27,2.27,0,0,1,2,.92l-.55.51a1.56,1.56,0,0,0-1.35-.7,2.07,2.07,0,0,0,0,4.11,1.58,1.58,0,0,0,1.35-.7l.55.51a2.27,2.27,0,0,1-2,.92,2.79,2.79,0,0,1,0-5.57Z"/><path d="M166.4,180.22a2.57,2.57,0,0,1,2.55,2.84v.21h-4.3a1.87,1.87,0,0,0,1.92,1.84,2.33,2.33,0,0,0,1.64-.67l.39.54a2.87,2.87,0,0,1-2.11.81,2.79,2.79,0,0,1-.09-5.57Zm-1.75,2.45h3.49a1.72,1.72,0,0,0-1.75-1.77A1.78,1.78,0,0,0,164.65,182.67Z"/><path d="M139.6,189.32h2.94a2.22,2.22,0,1,1,0,4.43h-2v2.91h-.91Zm2.83.82h-1.92v2.79h1.92a1.4,1.4,0,1,0,0-2.79Z"/><path d="M145.91,191.35h.83v.86a2.21,2.21,0,0,1,1.77-1v.85a1.11,1.11,0,0,0-.33,0,1.93,1.93,0,0,0-1.44.85v3.76h-.83Z"/><path d="M149.12,194a2.63,2.63,0,1,1,2.63,2.79A2.6,2.6,0,0,1,149.12,194Zm4.39,0a1.79,1.79,0,1,0-1.76,2.06A1.85,1.85,0,0,0,153.51,194Z"/><path d="M157.12,194.48l-1.6,2.18h-.94l2-2.73-1.92-2.58h1l1.47,2,1.47-2h1l-1.92,2.58,2,2.73h-1Z"/><path d="M160.79,198.08a.75.75,0,0,0,.79-.56l.36-.8-2.23-5.37h.9l1.77,4.35,1.76-4.35h.9l-2.66,6.39a1.58,1.58,0,0,1-1.56,1.08,2.9,2.9,0,0,1-.61-.08l.13-.75A1.17,1.17,0,0,0,160.79,198.08Z"/><line class="cls-2" x1="449.01" y1="213.36" x2="449.36" y2="187.66"/><line class="cls-2" x1="416.27" y1="87.05" x2="416.27" y2="110.93"/><polygon class="cls-9" points="416.62 45.33 399.88 53.39 395.75 71.5 407.33 86.02 425.9 86.02 437.49 71.5 433.35 53.39 416.62 45.33"/><polygon class="cls-9" points="449.36 147.1 432.63 155.16 428.49 173.27 440.07 187.79 458.65 187.79 470.23 173.27 466.1 155.16 449.36 147.1"/><polygon class="cls-9" points="417.27 250.11 400.54 258.17 396.4 276.28 407.99 290.81 426.56 290.81 438.14 276.28 434.01 258.17 417.27 250.11"/><polygon class="cls-9" points="354.01 250.11 337.27 258.17 333.14 276.28 344.72 290.81 363.3 290.81 374.88 276.28 370.75 258.17 354.01 250.11"/><polygon class="cls-9" points="291.35 250.11 274.61 258.17 270.48 276.28 282.06 290.81 300.64 290.81 312.22 276.28 308.08 258.17 291.35 250.11"/><polygon class="cls-9" points="386.16 147.1 369.42 155.16 365.29 173.27 376.87 187.79 395.44 187.79 407.03 173.27 402.89 155.16 386.16 147.1"/><polygon class="cls-9" points="322.95 147.1 306.21 155.16 302.08 173.27 313.66 187.79 332.24 187.79 343.82 173.27 339.69 155.16 322.95 147.1"/><polygon class="cls-9" points="259.75 147.1 243.01 155.16 238.88 173.27 250.46 187.79 269.03 187.79 280.62 173.27 276.48 155.16 259.75 147.1"/><polygon class="cls-9" points="355.05 45.33 338.31 53.39 334.18 71.5 345.76 86.02 364.33 86.02 375.92 71.5 371.78 53.39 355.05 45.33"/><polygon class="cls-9" points="293.48 45.33 276.74 53.39 272.61 71.5 284.19 86.02 302.76 86.02 314.35 71.5 310.21 53.39 293.48 45.33"/><path d="M139.53,144.13h3.13a1.69,1.69,0,0,1,1.87,1.49c0,.07,0,.14,0,.21a1.52,1.52,0,0,1-1.16,1.53,1.65,1.65,0,0,1,1.29,1.64,1.74,1.74,0,0,1-1.68,1.8,1,1,0,0,1-.25,0h-3.21Zm2.94,2.83a1,1,0,0,0,.12-2h-2.06v2Zm.05,3a1,1,0,0,0,1.11-.88,1.06,1.06,0,0,0-1-1.21h-2.11v2.08Z"/><path d="M145.66,144.13h1v6.66h-1Z"/><path d="M151.08,144a3.12,3.12,0,0,1,2.63,1.32l-.8.47a2.32,2.32,0,0,0-1.83-.9,2.57,2.57,0,0,0,0,5.13,2.65,2.65,0,0,0,1.69-.66v-1.2h-2.14v-.88h3.14v2.45a3.55,3.55,0,0,1-2.69,1.17,3.45,3.45,0,0,1,0-6.9Z"/><path d="M154.36,148h2.4v.78h-2.4Z"/><path d="M157.55,144.13h1v6.66h-1Z"/><path d="M159.79,144.13h2.81a2.05,2.05,0,0,1,.15,4.1h-2v2.56h-1Zm2.68.88h-1.68v2.34h1.68a1.17,1.17,0,0,0,.11-2.34Z"/><path d="M144.06,158.3a2.82,2.82,0,0,0,2.1.94c1.08,0,1.46-.55,1.46-1,0-.7-.76-.9-1.61-1.12-1.07-.28-2.31-.59-2.31-2,0-1.1,1-1.9,2.36-1.9a3.26,3.26,0,0,1,2.43.93l-.58.74a2.61,2.61,0,0,0-1.93-.78c-.74,0-1.25.38-1.25.94s.72.79,1.55,1c1.09.29,2.36.63,2.36,2.05,0,1-.72,2-2.52,2a3.4,3.4,0,0,1-2.63-1.06Z"/><path d="M149.55,153.34h2.81a2.05,2.05,0,0,1,.16,4.1h-2V160h-1Zm2.68.88h-1.68v2.34h1.68a1.17,1.17,0,0,0,1.23-1.11,1.19,1.19,0,0,0-1.11-1.23Z"/><path d="M156.9,157.11l-.63.71V160h-1v-6.67h1v3.31l2.79-3.31h1.24l-2.75,3.16,3,3.51h-1.24Z"/><circle class="cls-10" cx="151.9" cy="151.53" r="19.5"/></g></g></svg>