<svg id="Layer_1" data-name="Layer 1" xmlns="http://www.w3.org/2000/svg" viewBox="0 0 98 97.99"><defs><style>.cls-1{fill:#231f20;}</style></defs><title>newsroom-globe</title><path class="cls-1" d="M94.06,25.31h0c-.31-.49-.63-1-1-1.45A49.37,49.37,0,0,0,62,3.19l-.37-.06-.24,0h0a49.93,49.93,0,0,0-6.79-.78c-1.32-.06-2.66-.06-4,0h-.25a49.37,49.37,0,0,0-6.71.74A48.8,48.8,0,0,0,12.58,22.88c-.52.74-1.05,1.54-1.62,2.45h0a48.86,48.86,0,0,0,0,51.88A49.26,49.26,0,0,0,41.62,99h0l.3.07.87.19a49.64,49.64,0,0,0,6.27.83h0c1.31.09,2.4.13,3.43.13s2.11,0,3.39-.13A50.35,50.35,0,0,0,63.31,99h0l.32-.07A49.42,49.42,0,0,0,94.05,77.19a49,49,0,0,0,0-51.88Zm-9.41,29.2c0,.54-.06,1.08-.09,1.62l-.06,1c0,.62-.12,1.24-.18,1.86,0,.25,0,.49-.08.74-.1.86-.21,1.71-.34,2.55l-.12.68q-.15.93-.33,1.86c-.06.31-.13.63-.2.94-.1.52-.21,1-.33,1.55-.08.35-.17.69-.26,1s-.24,1-.38,1.44-.2.69-.3,1-.19.61-.28.92l-.26-.06q-1.44-.33-2.94-.63L78,71c-1.05-.2-2.11-.39-3.2-.57h-.09c-1.09-.18-2.21-.33-3.34-.48l-.45-.06q-1.67-.21-3.39-.39l-.3,0c.09-.72.15-1.46.23-2.19,0-.55.12-1.09.17-1.65.09-1.07.17-2.16.25-3.26,0-.4.06-.8.09-1.21.09-1.51.15-3,.2-4.56,0-.36,0-.73,0-1.1,0-1.06,0-2.13,0-3.21H84.7c0,.39,0,.78,0,1.17S84.67,54.14,84.65,54.51ZM56.12,68.76h-1.8c-1.3,0-2.61,0-3.91,0-.71,0-1.41,0-2.12.07-1.18,0-2.36.06-3.52.12-.78,0-1.55.1-2.32.15s-1.82.1-2.72.18L39.49,67c-.05-.54-.11-1.06-.16-1.6-.1-1.11-.18-2.24-.26-3.36,0-.36,0-.7-.08-1.06-.08-1.49-.15-3-.2-4.51,0-.39,0-.79,0-1.19,0-1,0-2,0-3.07H66.25c0,1.06,0,2.11,0,3.15,0,.37,0,.74,0,1.1-.05,1.52-.11,3-.2,4.52,0,.33,0,.65-.07,1-.08,1.15-.16,2.31-.27,3.44,0,.52-.1,1-.15,1.54-.08.76-.16,1.52-.25,2.27-1.14-.1-2.28-.18-3.39-.25Q59,68.84,56.12,68.76ZM34.06,69.85l-.52.07c-1.11.14-2.2.3-3.27.47l-.12,0c-1.09.17-2.15.37-3.19.57l-.5.09q-1.49.3-2.91.63a2.8,2.8,0,0,0-.28.06c-.09-.31-.19-.62-.28-.93l-.3-1c-.13-.48-.26-1-.38-1.47-.09-.33-.17-.65-.25-1-.13-.54-.24-1.08-.35-1.62-.06-.3-.13-.59-.19-.88-.14-.71-.26-1.43-.37-2.14,0-.13,0-.26-.07-.4-.13-.85-.25-1.71-.35-2.58,0-.24-.05-.48-.07-.72q-.11-.94-.18-1.89l-.06-1c0-.55-.07-1.11-.1-1.67l0-1.07c0-.38,0-.76,0-1.15H36.72c0,1.07,0,2.12.05,3.17,0,.38,0,.77,0,1.14.05,1.54.12,3.06.21,4.57,0,.38,0,.76.08,1.14.08,1.12.15,2.23.25,3.33.05.56.12,1.1.17,1.66.08.72.14,1.46.23,2.17l-.34,0C36.26,69.58,35.15,69.71,34.06,69.85ZM20.34,48.11c0-.52.06-1,.1-1.57,0-.36,0-.71.07-1.07,0-.57.11-1.13.17-1.69,0-.31.06-.62.1-.92q.15-1.19.33-2.34l0-.24c.14-.85.29-1.7.46-2.54l.18-.81c.12-.56.25-1.13.38-1.69.08-.33.17-.64.25-1,.13-.5.27-1,.41-1.5.09-.34.2-.67.3-1l.3-1c.63.15,1.28.28,1.92.41l1.18.25c1.19.23,2.41.45,3.66.65l.12,0c1.29.2,2.62.39,4,.55.43.06.87.1,1.31.15.75.09,1.48.18,2.25.25-.1.79-.18,1.59-.26,2.38,0,.5-.11,1-.16,1.49q-.19,2-.33,4.08c0,.15,0,.3,0,.45-.1,1.52-.17,3-.22,4.6,0,.5,0,1,0,1.52,0,.88-.06,1.76-.06,2.64H20.28c0-.33,0-.66,0-1S20.32,48.49,20.34,48.11ZM47.82,33.72c.5,0,1,0,1.5,0,1.06,0,2.11,0,3.17,0h.34l3-.06c.76,0,1.52,0,2.29,0,1.78-.06,3.56-.16,5.36-.29l1.66-.13c.1.77.19,1.56.27,2.34.06.51.12,1,.17,1.53.14,1.45.26,2.92.35,4.4v0c.09,1.52.16,3.05.22,4.59l0,1.4c0,.89,0,1.78,0,2.68H38.74c0-.86,0-1.72,0-2.58,0-.5,0-1,0-1.52,0-1.53.12-3,.22-4.55a1.8,1.8,0,0,1,0-.22c.09-1.43.2-2.84.34-4.24.05-.51.11-1,.16-1.51.09-.79.18-1.58.27-2.35l3.09.22C44.54,33.6,46.18,33.67,47.82,33.72Zm22.9-1c1.34-.17,2.67-.36,4-.56l.19,0c1.22-.19,2.42-.41,3.58-.63l1.22-.26,1.89-.4c.1.3.19.61.29.92s.21.7.32,1l.39,1.47c.08.33.17.66.26,1,.13.56.25,1.12.37,1.69.06.27.13.54.18.81.17.84.33,1.69.46,2.55,0,0,0,.07,0,.1.13.82.24,1.65.34,2.48,0,.28.06.56.09.84.07.59.13,1.18.18,1.78,0,.33.05.67.07,1,0,.54.07,1.09.1,1.63,0,.37,0,.73,0,1.1s0,.69,0,1H68.25c0-.93,0-1.85-.06-2.77,0-.46,0-.92,0-1.37-.06-1.56-.13-3.12-.23-4.65,0-.05,0-.1,0-.16-.1-1.47-.21-2.92-.35-4.36,0-.48-.11-.95-.16-1.42-.08-.82-.16-1.64-.26-2.44l2.25-.26Zm16,17.57c0-.36,0-.71,0-1.07s0-.76,0-1.14c0-.56-.07-1.12-.1-1.68,0-.34,0-.69-.08-1,0-.63-.11-1.25-.18-1.88,0-.27,0-.54-.09-.8-.1-.89-.23-1.77-.37-2.65,0-.15-.06-.31-.08-.46-.12-.72-.25-1.44-.39-2.15-.06-.3-.13-.6-.2-.9-.12-.57-.24-1.13-.37-1.69-.08-.33-.17-.65-.26-1-.13-.53-.27-1.05-.42-1.57-.09-.33-.19-.66-.29-1s-.18-.62-.28-.93l.18,0c.78-.2,1.53-.41,2.26-.63l.41-.12c.71-.21,1.41-.43,2.08-.66l.12,0c.68-.24,1.34-.48,2-.73l.39-.15c.61-.25,1.2-.5,1.76-.75l.13-.06a46.94,46.94,0,0,1,6.65,23.13ZM91.45,25l.3.44,0,0c-.55.25-1.13.49-1.73.72l-.37.15c-.6.23-1.22.45-1.86.67l-.31.1c-.6.2-1.22.4-1.85.58l-.35.11c-.69.2-1.41.39-2.14.58l-.23.06-.08-.21q-.37-1.07-.78-2.07c0-.12-.09-.24-.14-.36-.25-.62-.51-1.23-.77-1.82l-.09-.2a.85.85,0,0,0-.12-.28l0,0c0-.08-.08-.16-.11-.24-.32-.68-.65-1.34-1-2l-.33-.63c-.33-.62-.67-1.22-1-1.82-.08-.12-.14-.24-.22-.36-.41-.7-.84-1.37-1.29-2l-.33-.49c-.36-.51-.72-1-1.09-1.5l-.37-.5c-.47-.61-.95-1.2-1.45-1.77l-.16-.18c-.45-.51-.9-1-1.37-1.47-.15-.16-.29-.31-.44-.45-.43-.43-.86-.84-1.31-1.23l-.31-.29C69.55,8,69,7.55,68.46,7.13L68.32,7A47.34,47.34,0,0,1,91.45,25ZM60.91,5l.66.29.68.31c.24.11.47.23.7.35l.66.34.7.41.63.37c.24.15.47.31.7.47s.41.26.6.4.48.36.72.54l.56.41.71.59.53.45.7.64c.17.16.35.31.51.47s.47.48.71.72.32.31.47.48.48.53.72.8l.42.46c.25.29.48.59.72.88l.39.47.72,1,.34.45.75,1.1.27.39c.29.45.58.91.86,1.37l.12.19a50.45,50.45,0,0,1,2.67,5.07h0c.28.62.56,1.28.83,1.95l.15.36c.26.65.52,1.33.76,2l0,.12-1.69.38L78,29.5c-1,.19-2,.36-3,.53-.23,0-.46.09-.7.12-1.26.2-2.56.39-3.87.55l-1.17.13-2.36.25c0-.23-.07-.46-.1-.69s-.07-.49-.11-.72c-.06-.44-.13-.86-.2-1.28,0-.21-.07-.43-.1-.64-.08-.5-.17-1-.26-1.48l-.06-.34c-.1-.57-.21-1.12-.32-1.66a.7.7,0,0,0,0-.14h0a.9.9,0,0,0,0-.16c-.13-.61-.26-1.21-.39-1.79l-.09-.38c-.11-.48-.23-1-.34-1.43,0-.2-.1-.39-.16-.59l-.3-1.15L64.23,18c-.11-.36-.21-.72-.32-1.08-.06-.19-.11-.38-.17-.57-.12-.4-.25-.78-.38-1.16,0-.13-.08-.27-.13-.4-.17-.5-.34-1-.52-1.45L62.56,13l-.39-1-.21-.5-.36-.81-.23-.5L61,9.38c-.07-.15-.15-.3-.23-.45s-.28-.53-.43-.79l-.17-.31c-.2-.35-.41-.68-.62-1l-.18-.26c-.15-.23-.3-.45-.46-.66l-.24-.32-.42-.53L58,4.77l-.17-.2C58.85,4.69,59.88,4.85,60.91,5ZM54.27,4.3a3.92,3.92,0,0,1,.53.29c3.57,2.32,6.83,9.58,9,19.93.11.55.22,1.12.33,1.7,0,.2.07.42.11.62L64.4,28l.12.75c.06.37.12.75.17,1.13l.12.81c0,.19,0,.38.08.57l-1.55.13a153,153,0,0,1-20.3.1c-1-.06-2-.14-2.95-.22,0-.24.07-.47.1-.71s.09-.6.14-.9.13-.88.21-1.31c0-.27.08-.54.13-.8.08-.48.17-.94.25-1.41l.12-.63c.13-.66.26-1.31.4-1.95s.28-1.3.43-1.92c.05-.19.1-.38.14-.57l.33-1.28c0-.22.12-.43.18-.64q.15-.57.3-1.11l.21-.69c.1-.33.2-.66.3-1s.15-.45.22-.67.21-.62.31-.91.16-.42.23-.63.21-.58.32-.85.17-.41.25-.61.21-.52.32-.77.18-.39.26-.58l.33-.71.27-.54.33-.64.28-.5c.11-.19.22-.39.34-.58s.19-.3.29-.45.22-.35.34-.52l.3-.41.34-.45.31-.36c.12-.13.23-.27.35-.39s.21-.21.32-.31l.34-.32.33-.26.35-.26.33-.2a2.69,2.69,0,0,1,.29-.16h0C51.89,4.26,53.09,4.25,54.27,4.3ZM47,4.78l-.23.27c-.17.2-.33.4-.49.62l-.18.23c-.22.3-.44.61-.65.93l-.14.23c-.17.26-.33.53-.5.82l-.21.37-.43.8c-.06.13-.13.25-.19.38-.19.37-.37.75-.55,1.15l0,.09c-.19.43-.38.88-.57,1.34,0,.14-.11.28-.17.42l-.39,1-.18.49c-.14.38-.27.77-.41,1.17l-.12.38q-.26.8-.51,1.62c0,.12-.07.25-.11.38-.12.44-.25.88-.37,1.34-.05.19-.11.38-.16.58-.11.42-.22.85-.32,1.28,0,.19-.09.37-.14.56-.15.62-.29,1.25-.43,1.89s-.27,1.31-.4,2c0,.25-.09.5-.14.75l-.24,1.33-.15.87-.21,1.31c0,.3-.08.6-.13.9s-.08.53-.12.81l-2.41-.26-1.11-.12c-1.32-.17-2.61-.35-3.88-.55L30,30.05c-1-.17-2-.34-3-.53l-1.25-.27-1.66-.36c.18-.51.36-1,.55-1.5.13-.33.25-.67.39-1,.41-1,.84-2,1.3-2.93.27-.56.55-1.12.84-1.67l.21-.39c.22-.4.44-.81.67-1.21.12-.22.25-.42.38-.64l.54-.9.45-.68c.17-.27.34-.54.52-.8s.33-.46.49-.69.34-.49.52-.73.36-.47.55-.7.33-.44.49-.64.39-.47.59-.69l.49-.59.62-.67c.16-.18.33-.37.5-.54l.63-.63.52-.51c.21-.2.44-.4.66-.59s.34-.32.52-.47l.68-.56.52-.43.69-.51.55-.4.7-.46L40.22,7l.69-.4.6-.35.68-.35.63-.32.66-.29c.21-.09.42-.19.64-.27,1-.18,2-.33,3.05-.44A1.9,1.9,0,0,0,47,4.78ZM36.74,7s0,0-.05,0c-.54.41-1.06.84-1.58,1.29l-.42.37c-.4.36-.79.73-1.18,1.11l-.42.41c-.5.51-1,1-1.46,1.56l-.18.2c-.42.49-.83,1-1.24,1.5L29.8,14c-.36.47-.72,1-1.07,1.45l-.29.4c-.43.63-.84,1.27-1.25,1.92l-.3.49c-.31.53-.63,1.06-.93,1.61l-.33.59q-.57,1.07-1.11,2.16c-.48,1-.93,2-1.36,3.08-.14.34-.26.7-.4,1-.22.57-.45,1.13-.66,1.71l-.2-.05c-.74-.19-1.46-.39-2.16-.59l-.32-.1c-.64-.19-1.27-.39-1.88-.59L17.25,27c-.64-.22-1.26-.45-1.86-.68L15,26.18c-.6-.24-1.18-.48-1.73-.72l0,0c.33-.5.64-1,1-1.4A46.91,46.91,0,0,1,36.74,7ZM12.19,27.15l.12.05c.56.26,1.16.51,1.77.76l.38.14c.64.25,1.3.5,2,.73l.08,0c.68.23,1.38.46,2.1.67l.41.12q1.08.33,2.25.63l.17,0-.27.91c-.1.35-.21.69-.31,1s-.27,1-.41,1.52c-.09.34-.18.68-.26,1-.13.55-.25,1.1-.37,1.64-.07.32-.14.63-.2.94-.14.69-.27,1.39-.38,2.08,0,.18-.07.36-.1.54-.14.87-.26,1.75-.37,2.63l-.09.83c-.06.62-.13,1.23-.18,1.86,0,.34-.05.7-.08,1.05,0,.55-.07,1.11-.1,1.66,0,.38,0,.76,0,1.14s0,.71,0,1.07H5.5A46.64,46.64,0,0,1,12.19,27.15Zm6.07,25.1c0,.42,0,.82,0,1.23l0,1.09c0,.59.07,1.18.1,1.76l.06,1c.06.76.14,1.51.22,2.26,0,.14,0,.27,0,.41q.15,1.32.36,2.64c0,.25.08.5.13.76.1.61.2,1.23.32,1.84.06.33.14.65.21,1,.11.53.22,1.06.34,1.59.08.35.18.7.26,1s.25,1,.39,1.47.21.73.31,1.1.17.57.25.86l-.92.26-.95.26c-.5.14-1,.29-1.46.44l-.85.27L15.65,74l-.67.24c-.69.26-1.35.52-2,.8l-.84.37A46.75,46.75,0,0,1,5.5,52.25Zm-5,24.86.55-.26c.61-.26,1.25-.52,1.92-.77l.64-.22,1.44-.51.82-.25L20,74.67,21,74.4l1-.25.36,1c.06.15.11.31.17.46.24.65.5,1.29.76,1.93l.18.43c.21.49.43,1,.66,1.47.08.19.17.38.26.56.23.5.48,1,.73,1.49.05.11.11.22.17.33.3.59.62,1.17.94,1.74.08.14.17.28.25.43.25.43.51.86.77,1.28.11.16.21.32.31.48.31.48.62,1,.94,1.42l.12.18c.36.52.74,1,1.11,1.52l.31.39c.29.38.59.74.88,1.1.12.13.23.27.34.4.39.46.79.9,1.19,1.33l0,0c.41.44.83.86,1.25,1.27l.36.34,1,.89.35.31.2.18A47.43,47.43,0,0,1,13.24,77.11ZM43.18,97.33l-.8-.18-.19-.05c-.32-.16-.64-.34-1-.52l-.48-.26a28.69,28.69,0,0,1-2.86-1.93l-.42-.34c-.32-.26-.65-.51-1-.78l-.5-.46c-.28-.25-.57-.5-.84-.76l-.53-.53c-.26-.26-.52-.52-.77-.79l-.53-.58c-.24-.27-.49-.54-.73-.82l-.52-.64c-.23-.28-.46-.56-.68-.85l-.52-.69-.64-.89c-.17-.24-.34-.49-.5-.74s-.41-.6-.61-.91l-.48-.79c-.19-.31-.39-.63-.57-.95s-.31-.55-.47-.83-.35-.65-.53-1-.3-.58-.44-.88-.33-.66-.49-1-.29-.61-.43-.92l-.45-1c-.14-.32-.27-.65-.4-1s-.28-.69-.41-1l-.38-1c-.06-.18-.12-.36-.19-.54l.24-.06C25.06,73.4,26,73.2,27,73l.57-.11c1-.18,2-.36,3-.53l.3-.05c1-.15,2-.3,3.06-.43l.47-.07c1.06-.13,2.15-.25,3.24-.36l.36,0c.05.38.1.75.16,1.13l.12.84c.11.76.23,1.5.36,2.23l0,.2c.14.8.28,1.58.43,2.35.05.22.09.45.14.67.11.54.22,1.07.34,1.6,0,.26.11.51.17.77.11.48.23,1,.34,1.43.07.25.13.5.19.75l.39,1.43c.05.2.11.41.17.61.18.65.37,1.27.57,1.88v.06c.21.63.42,1.24.63,1.84l.18.47c.16.42.31.84.48,1.24.07.19.15.38.23.56.15.36.3.71.46,1.06l.24.53c.17.35.33.68.5,1,.07.15.15.3.22.44.23.43.46.84.7,1.23,0,0,0,0,0,.08.25.41.51.8.77,1.17l.23.31c.13.19.27.38.4.55C45.35,97.72,44.25,97.54,43.18,97.33Zm6.35.82-.34-.3c-.12-.11-.24-.22-.35-.34a5,5,0,0,1-.43-.48l-.35-.39-.43-.58-.33-.46c-.14-.21-.28-.45-.43-.68s-.2-.32-.3-.5-.3-.53-.45-.81-.18-.33-.27-.51-.33-.67-.49-1c-.07-.15-.14-.29-.21-.45-.23-.51-.45-1-.67-1.59-.06-.14-.11-.3-.17-.44-.16-.42-.32-.84-.47-1.28-.08-.23-.16-.48-.25-.73s-.25-.73-.37-1.11L43,85.63q-.16-.54-.33-1.11c-.09-.3-.17-.62-.25-.93l-.3-1.13-.24-1c-.09-.38-.19-.76-.27-1.16s-.16-.7-.23-1.06-.17-.79-.25-1.2-.14-.74-.21-1.11-.16-.83-.23-1.24-.13-.78-.2-1.16-.13-.85-.2-1.29-.12-.79-.17-1.2-.08-.52-.11-.78l2.61-.19,2.31-.15c1.14-.06,2.29-.08,3.44-.11.71,0,1.41-.06,2.12-.07,1.28,0,2.58,0,3.87,0h1.76c1.88,0,3.76.12,5.64.24,1.07.06,2.17.15,3.26.25,0,.25-.07.5-.1.75l-.18,1.25c-.07.41-.13.82-.2,1.22s-.13.82-.2,1.22-.15.78-.22,1.17-.15.8-.22,1.19l-.24,1.12-.24,1.13c-.09.38-.17.74-.26,1.1s-.17.71-.26,1.06-.19.73-.28,1.08l-.27,1c-.1.37-.21.72-.32,1.08s-.17.58-.26.87-.25.75-.37,1.12l-.24.71c-.16.44-.32.86-.48,1.28,0,.14-.1.29-.16.43a31.55,31.55,0,0,1-2.11,4.42l-.1.18c-.21.35-.42.69-.63,1-.07.1-.14.18-.2.28-.19.26-.37.51-.56.74s-.18.21-.27.32-.33.38-.5.55a3.49,3.49,0,0,1-.35.32c-.12.11-.24.23-.36.32A38.45,38.45,0,0,1,49.53,98.15Zm9.35-.84c.08-.12.16-.23.25-.34.25-.37.5-.75.75-1.16a2.53,2.53,0,0,1,.13-.22c.2-.35.41-.71.61-1.08l.26-.51c.15-.3.31-.61.46-.93l.27-.59c.14-.32.29-.65.43-1s.17-.41.25-.62c.15-.37.3-.76.45-1.16.07-.18.14-.36.2-.54.21-.59.42-1.19.62-1.81a1.87,1.87,0,0,1,.07-.22c.17-.56.35-1.13.52-1.71l.18-.67c.13-.45.25-.91.38-1.38.06-.25.12-.51.19-.77.11-.46.23-.93.34-1.41.06-.26.12-.52.17-.78.12-.52.23-1,.34-1.59,0-.23.09-.45.14-.67.15-.77.29-1.55.43-2.35l0-.16c.12-.74.25-1.5.36-2.27l.12-.82c0-.38.11-.75.16-1.14l.37,0q1.65.17,3.24.36l.42.06c1.07.14,2.13.29,3.16.45l.21,0c1,.17,2.08.35,3.08.54L78,73c1,.19,1.92.39,2.85.61l.23,0-.21.59-.34.93-.45,1.12c-.12.3-.24.6-.37.9l-.48,1.08c-.13.29-.26.58-.4.87l-.51,1c-.15.28-.29.56-.43.84s-.36.67-.55,1l-.45.81c-.19.33-.39.65-.58,1l-.48.77c-.2.31-.4.62-.61.92s-.33.5-.5.73-.43.6-.65.89-.33.47-.51.69-.45.57-.69.85-.34.43-.52.64-.48.55-.73.82l-.52.58c-.26.28-.53.54-.79.8l-.51.51c-.29.28-.59.54-.88.8s-.31.29-.47.42c-.35.3-.71.59-1.06.87l-.32.25a28.05,28.05,0,0,1-2.89,1.94l-.28.16c-.38.21-.76.42-1.15.62-1.41.31-2.84.57-4.26.76C58.62,97.67,58.75,97.48,58.88,97.31Zm10.5-2.24.19-.17.39-.34c.32-.28.63-.56,1-.86l.39-.36c.41-.41.83-.82,1.23-1.25l.08-.09c.39-.4.76-.83,1.13-1.25l.37-.44c.28-.34.57-.69.84-1,.12-.14.23-.28.34-.43.37-.49.74-1,1.1-1.49l.18-.26c.3-.44.59-.88.88-1.33l.33-.53c.25-.4.5-.81.74-1.22l.28-.48q.48-.84.93-1.71l.2-.39c.24-.47.48-.94.7-1.42.1-.2.19-.4.28-.6.22-.47.43-1,.64-1.43.06-.16.13-.31.19-.46.27-.63.52-1.27.76-1.92.06-.15.11-.31.17-.46l.36-1,1.13.3,1,.27c.56.16,1.08.33,1.61.49l.82.26c.62.21,1.22.43,1.8.65l.43.15c.68.27,1.33.54,1.95.82A47.55,47.55,0,0,1,69.38,95.07Zm23.44-19.7,0,0-.07,0h0l0,0-.07,0c-.57-.26-1.18-.51-1.81-.76l-.15-.06c-.63-.25-1.28-.49-2-.72l-.27-.09q-1-.34-2.07-.66l-.33-.1c-.71-.21-1.44-.41-2.2-.61l-.12,0c.09-.29.16-.58.25-.87s.21-.72.31-1.09.26-1,.39-1.46.18-.71.26-1.07.23-1,.34-1.56c.07-.33.15-.66.21-1,.12-.6.22-1.2.32-1.8.05-.27.1-.53.14-.8.13-.88.25-1.75.36-2.64,0-.14,0-.28,0-.43.08-.74.15-1.49.21-2.24,0-.31,0-.63.06-.94,0-.58.08-1.17.1-1.76,0-.36,0-.73,0-1.09s0-.82,0-1.23H99.48A46.92,46.92,0,0,1,92.82,75.37Z" transform="translate(-3.49 -2.26)"/></svg>