<?xml version="1.0" encoding="utf-8"?>
<!-- Generator: Adobe Illustrator 25.2.3, SVG Export Plug-In . SVG Version: 6.00 Build 0)  -->
<svg version="1.1" id="Layer_1" xmlns="http://www.w3.org/2000/svg" xmlns:xlink="http://www.w3.org/1999/xlink" x="0px" y="0px"
	 viewBox="0 0 909 565.28" style="enable-background:new 0 0 909 565.28;" xml:space="preserve">
<style type="text/css">
	.st0{fill:none;stroke:#1DB14B;stroke-linecap:round;stroke-miterlimit:10;}
	.st1{fill:#FFFFFF;stroke:#231F20;stroke-linecap:round;stroke-miterlimit:10;}
	.st2{fill:#FFFFFF;stroke:#000000;stroke-linecap:round;stroke-miterlimit:10;}
	.st3{fill:#1DB14B;}
	.st4{fill:none;stroke:#000000;stroke-linecap:round;stroke-linejoin:round;stroke-miterlimit:10;}
	.st5{fill:none;}
	.st6{fill:#221F1F;}
	.st7{font-family:'NotoSansCJKjp-Regular-90ms-RKSJ-H';}
	.st8{font-size:11px;}
	.st9{fill:none;stroke:#000000;stroke-miterlimit:10;}
	.st10{stroke:#000000;stroke-width:0.5;stroke-miterlimit:10;}
	.st11{fill:#231F20;}
	.st12{fill:#FFFFFF;}
	.st13{font-family:'NotoSansCJKjp-Black-90ms-RKSJ-H';}
	.st14{font-size:8px;}
	.st15{fill:#FFFFFF;stroke:#1DB14B;stroke-linecap:round;stroke-miterlimit:10;}
	.st16{fill:none;stroke:#231F20;stroke-linecap:round;stroke-miterlimit:10;}
	.st17{font-family:'NotoSansCJKjp-Medium-90ms-RKSJ-H';}
	.st18{font-size:10px;}
	.st19{stroke:#000000;stroke-width:0.25;stroke-miterlimit:10;}
	.st20{fill:#343434;}
	.st21{font-family:'NotoSansCJKjp-Bold-90ms-RKSJ-H';}
	.st22{font-size:7px;}
	.st23{fill:#010101;}
	.st24{font-size:9px;}
	.st25{fill:none;stroke:#000000;stroke-width:0.75;stroke-linecap:round;stroke-linejoin:round;stroke-miterlimit:10;}
</style>
<line class="st0" x1="669.9" y1="76.86" x2="669.9" y2="90.21"/>
<rect x="10.45" y="237.96" class="st1" width="421.09" height="303.66"/>
<rect x="441.86" y="237.93" class="st2" width="456.69" height="303.7"/>
<g>
	<g>
		<polyline class="st0" points="324.15,499.74 324.15,517.27 708.66,517.27 708.66,492.82 		"/>
		<g>
			<polygon class="st3" points="712.75,496.14 712.01,496.82 708.66,493.21 705.3,496.82 704.57,496.14 708.66,491.74 			"/>
		</g>
	</g>
</g>
<g id="Group_11423_1_" transform="translate(0.25 0.25)">
	<path id="Path_60436_1_" class="st4" d="M278.59,19.35h-2.39c-3.54-0.02-6.44,2.84-6.46,6.39c0,0.04,0,0.08,0,0.12v5.94"/>
	<ellipse id="Ellipse_32_1_" class="st4" cx="278.54" cy="14.03" rx="5.31" ry="5.32"/>
	<path id="Path_60437_1_" class="st4" d="M299.89,19.35h2.39c3.54-0.02,6.44,2.84,6.46,6.39c0,0.04,0,0.08,0,0.12v5.94"/>
	<ellipse id="Ellipse_33_1_" class="st4" cx="299.94" cy="14.03" rx="5.31" ry="5.32"/>
	<path id="Path_60438_1_" class="st4" d="M289.47,31.75h-2.92c-4.34-0.03-7.89,3.47-7.92,7.82c0,0.05,0,0.1,0,0.15v7.98"/>
	<path id="Path_60439_1_" class="st4" d="M289.73,31.75h2.92c4.34-0.03,7.89,3.47,7.92,7.82c0,0.05,0,0.1,0,0.15v7.98"/>
	<ellipse id="Ellipse_34_2_" class="st4" cx="289.2" cy="24.66" rx="7.08" ry="7.09"/>
</g>
<g>
	<rect x="255.6" y="59.05" class="st5" width="64.77" height="18.8"/>
	<text transform="matrix(1 0 0 1 260.8191 67.8092)" class="st6 st7 st8">北米ユーザ</text>
</g>
<g id="Group_11423_2_" transform="translate(0.25 0.25)">
	<path id="Path_60436_2_" class="st4" d="M367.32,19.35h-2.39c-3.54-0.02-6.44,2.84-6.46,6.39c0,0.04,0,0.08,0,0.12v5.94"/>
	<ellipse id="Ellipse_32_2_" class="st4" cx="367.28" cy="14.03" rx="5.31" ry="5.32"/>
	<path id="Path_60437_2_" class="st4" d="M388.63,19.35h2.39c3.54-0.02,6.44,2.84,6.46,6.39c0,0.04,0,0.08,0,0.12v5.94"/>
	<ellipse id="Ellipse_33_2_" class="st4" cx="388.67" cy="14.03" rx="5.31" ry="5.32"/>
	<path id="Path_60438_2_" class="st4" d="M378.2,31.75h-2.92c-4.34-0.03-7.89,3.47-7.92,7.82c0,0.05,0,0.1,0,0.15v7.98"/>
	<path id="Path_60439_2_" class="st4" d="M378.47,31.75h2.92c4.34-0.03,7.89,3.47,7.92,7.82c0,0.05,0,0.1,0,0.15v7.98"/>
	<ellipse id="Ellipse_34_1_" class="st4" cx="377.94" cy="24.66" rx="7.08" ry="7.09"/>
</g>
<g>
	<rect x="330.84" y="59.05" class="st5" width="88.8" height="21.17"/>
	<text transform="matrix(1 0 0 1 340.1548 67.8092)" class="st6 st7 st8">APACユーザー</text>
</g>
<g id="Group_11423_4_" transform="translate(0.25 0.25)">
	<path id="Path_60436_4_" class="st4" d="M659.3,19.35h-2.39c-3.54-0.02-6.44,2.84-6.46,6.39c0,0.04,0,0.08,0,0.12v5.94"/>
	<ellipse id="Ellipse_32_4_" class="st4" cx="659.25" cy="14.03" rx="5.31" ry="5.32"/>
	<path id="Path_60437_4_" class="st4" d="M680.61,19.35h2.39c3.54-0.02,6.44,2.84,6.46,6.39c0,0.04,0,0.08,0,0.12v5.94"/>
	<ellipse id="Ellipse_33_4_" class="st4" cx="680.65" cy="14.03" rx="5.31" ry="5.32"/>
	<path id="Path_60438_4_" class="st4" d="M670.18,31.75h-2.92c-4.34-0.03-7.89,3.47-7.92,7.82c0,0.05,0,0.1,0,0.15v7.98"/>
	<path id="Path_60439_4_" class="st4" d="M670.45,31.75h2.92c4.34-0.03,7.89,3.47,7.92,7.82c0,0.05,0,0.1,0,0.15v7.98"/>
	<ellipse id="Ellipse_34_4_" class="st4" cx="669.91" cy="24.66" rx="7.08" ry="7.09"/>
</g>
<g>
	<rect x="637.82" y="59.55" class="st5" width="64.77" height="18.8"/>
	<text transform="matrix(1 0 0 1 653.8672 68.3092)" class="st6 st7 st8">お客様</text>
</g>
<g id="Group_11423_3_" transform="translate(0.25 0.25)">
	<path id="Path_60436_3_" class="st4" d="M189.85,19.35h-2.39c-3.54-0.02-6.44,2.84-6.46,6.39c0,0.04,0,0.08,0,0.12v5.94"/>
	<ellipse id="Ellipse_32_3_" class="st4" cx="189.81" cy="14.03" rx="5.31" ry="5.32"/>
	<path id="Path_60437_3_" class="st4" d="M211.16,19.35h2.39c3.54-0.02,6.44,2.84,6.46,6.39c0,0.04,0,0.08,0,0.12v5.94"/>
	<ellipse id="Ellipse_33_3_" class="st4" cx="211.2" cy="14.03" rx="5.31" ry="5.32"/>
	<path id="Path_60438_3_" class="st4" d="M200.73,31.75h-2.92c-4.34-0.03-7.89,3.47-7.92,7.82c0,0.05,0,0.1,0,0.15v7.98"/>
	<path id="Path_60439_3_" class="st4" d="M201,31.75h2.92c4.34-0.03,7.89,3.47,7.92,7.82c0,0.05,0,0.1,0,0.15v7.98"/>
	<ellipse id="Ellipse_34_3_" class="st4" cx="200.47" cy="24.66" rx="7.08" ry="7.09"/>
</g>
<g>
	<rect x="168.37" y="59.05" class="st5" width="64.77" height="18.8"/>
	<text transform="matrix(1 0 0 1 171.9666 67.8092)" class="st6 st7 st8">EUユーザー</text>
</g>
<g>
	<g>
		<path class="st9" d="M301.73,127.9h-24.49c-3.44,0-6.26-2.82-6.26-6.26V97.16c0-3.44,2.82-6.26,6.26-6.26h24.49
			c3.44,0,6.26,2.82,6.26,6.26v24.49C307.99,125.09,305.17,127.9,301.73,127.9z"/>
	</g>
	<g id="Group_13232-2_19_" transform="translate(11.219 19.18)">
		<path id="Path_61042_19_" class="st10" d="M272.2,91.61c-0.61,0.69-1.5,1.07-2.42,1.03c-1.29,0.07-2.4-0.93-2.46-2.22
			s0.93-2.4,2.22-2.46c0.08,0,0.16,0,0.24,0c0.92-0.04,1.81,0.34,2.42,1.03V87.4c-0.01-0.98-0.81-1.77-1.8-1.76
			c-0.06,0-0.13,0-0.19,0.01c-0.89-0.02-1.73,0.4-2.26,1.11l-0.28-0.28c0.61-0.8,1.58-1.25,2.58-1.19c1.39,0,2.42,0.72,2.42,2.11
			v5.08h-0.44v-0.87H272.2z M272.2,89.43c-0.56-0.7-1.41-1.09-2.3-1.07c-1.08-0.08-2.02,0.74-2.1,1.82c0,0.04,0,0.08,0,0.12
			c-0.01,1.07,0.86,1.95,1.93,1.95c0.06,0,0.11,0,0.17-0.01c0.9,0.03,1.75-0.37,2.3-1.08V89.43z"/>
		<path id="Path_61043_19_" class="st10" d="M275.02,95.15v-9.69h0.44v1.19c0.58-0.83,1.53-1.33,2.54-1.34
			c1.91,0,3.14,1.47,3.14,3.65c0,2.22-1.23,3.69-3.14,3.69c-1.02-0.02-1.97-0.54-2.54-1.39v3.89L275.02,95.15z M277.99,85.7
			c-1.03,0.01-1.98,0.53-2.54,1.39v3.77c0.55,0.88,1.51,1.42,2.54,1.43c1.71,0,2.66-1.47,2.66-3.3
			C280.66,87.13,279.7,85.7,277.99,85.7z"/>
		<path id="Path_61044_19_" class="st10" d="M283.12,95.15v-9.69h0.44v1.19c0.58-0.83,1.53-1.33,2.54-1.34
			c1.91,0,3.14,1.47,3.14,3.65c0,2.22-1.23,3.69-3.14,3.69c-1.02-0.02-1.97-0.54-2.54-1.39v3.89L283.12,95.15z M286.1,85.7
			c-1.03,0.01-1.98,0.53-2.54,1.39v3.77c0.55,0.88,1.51,1.42,2.54,1.43c1.71,0,2.66-1.47,2.66-3.3
			C288.76,87.13,287.81,85.7,286.1,85.7z"/>
	</g>
</g>
<g>
	<rect x="257.1" y="130.9" class="st5" width="64.77" height="21.01"/>
	<text transform="matrix(1 0 0 1 262.3191 139.6579)"><tspan x="0" y="0" class="st6 st7 st8">アプリケー</tspan><tspan x="7.58" y="11" class="st6 st7 st8">ションA</tspan></text>
</g>
<g>
	<g>
		<path class="st9" d="M682.44,127.9h-24.49c-3.44,0-6.26-2.82-6.26-6.26V97.16c0-3.44,2.82-6.26,6.26-6.26h24.49
			c3.44,0,6.26,2.82,6.26,6.26v24.49C688.7,125.09,685.89,127.9,682.44,127.9z"/>
	</g>
	<g id="Group_13232-2_1_" transform="translate(11.219 19.18)">
		<path id="Path_61042_1_" class="st10" d="M652.91,91.61c-0.61,0.69-1.5,1.07-2.42,1.03c-1.29,0.07-2.4-0.93-2.46-2.22
			c-0.07-1.29,0.93-2.4,2.22-2.46c0.08,0,0.16,0,0.24,0c0.92-0.04,1.81,0.34,2.42,1.03V87.4c-0.01-0.98-0.81-1.77-1.8-1.76
			c-0.06,0-0.13,0-0.19,0.01c-0.89-0.02-1.73,0.4-2.26,1.11l-0.28-0.28c0.61-0.8,1.58-1.25,2.58-1.19c1.39,0,2.42,0.72,2.42,2.11
			v5.08h-0.44v-0.87H652.91z M652.91,89.43c-0.56-0.7-1.41-1.09-2.3-1.07c-1.08-0.08-2.02,0.74-2.1,1.82c0,0.04,0,0.08,0,0.12
			c-0.01,1.07,0.86,1.95,1.93,1.95c0.06,0,0.11,0,0.17-0.01c0.9,0.03,1.75-0.37,2.3-1.08V89.43z"/>
		<path id="Path_61043_1_" class="st10" d="M655.73,95.15v-9.69h0.44v1.19c0.58-0.83,1.53-1.33,2.54-1.34
			c1.91,0,3.14,1.47,3.14,3.65c0,2.22-1.23,3.69-3.14,3.69c-1.02-0.02-1.97-0.54-2.54-1.39v3.89L655.73,95.15z M658.71,85.7
			c-1.03,0.01-1.98,0.53-2.54,1.39v3.77c0.55,0.88,1.51,1.42,2.54,1.43c1.71,0,2.66-1.47,2.66-3.3
			C661.37,87.13,660.42,85.7,658.71,85.7z"/>
		<path id="Path_61044_1_" class="st10" d="M663.83,95.15v-9.69h0.44v1.19c0.58-0.83,1.53-1.33,2.54-1.34
			c1.91,0,3.14,1.47,3.14,3.65c0,2.22-1.23,3.69-3.14,3.69c-1.02-0.02-1.97-0.54-2.54-1.39v3.89L663.83,95.15z M666.81,85.7
			c-1.03,0.01-1.98,0.53-2.54,1.39v3.77c0.55,0.88,1.51,1.42,2.54,1.43c1.71,0,2.66-1.47,2.66-3.3
			C669.47,87.13,668.52,85.7,666.81,85.7z"/>
	</g>
</g>
<g>
	<rect x="637.82" y="130.75" class="st5" width="64.77" height="31.21"/>
	<text transform="matrix(1 0 0 1 643.0322 139.5075)"><tspan x="0" y="0" class="st6 st7 st8">アプリケー</tspan><tspan x="7.3" y="11" class="st6 st7 st8">ションB</tspan></text>
</g>
<rect x="149.92" y="532.15" class="st11" width="142.17" height="18"/>
<text transform="matrix(1 0 0 1 155.8494 544.1325)" class="st12 st13 st14">パブリック クラウド ベンダA：欧州</text>
<line class="st15" x1="186.43" y1="289.15" x2="293.54" y2="289.15"/>
<rect x="481.44" y="251.15" class="st16" width="138.26" height="96"/>
<rect x="527.68" y="273.29" class="st5" width="40.84" height="11.09"/>
<text transform="matrix(1 0 0 1 533.7747 282.0876)" class="st17 st18">BIG-IP</text>
<circle class="st9" cx="548.29" cy="278.15" r="19.5"/>
<g>
	<path class="st19" d="M491.3,308.67c0-0.27,0.23-0.49,0.49-0.49c0.27,0,0.49,0.22,0.49,0.49c0,0.27-0.22,0.49-0.49,0.49
		C491.53,309.17,491.3,308.95,491.3,308.67z M491.47,310.15h0.64v5.95h-0.64V310.15z"/>
	<path class="st19" d="M497.11,312.71h-1.81v3.4h-0.7v-8.22h3.07c1.42,0,2.5,0.9,2.5,2.4c0,1.49-1.06,2.32-2.28,2.37l2.38,3.45
		h-0.85L497.11,312.71z M497.61,308.53h-2.31v3.54h2.31c1.09,0,1.82-0.74,1.82-1.78C499.43,309.25,498.69,308.53,497.61,308.53z"/>
	<path class="st19" d="M505.14,315.23c-0.49,0.54-1.28,1.02-2.15,1.02c-1.22,0-1.87-0.57-1.87-1.91v-4.19h0.64v4.04
		c0,1.16,0.58,1.48,1.44,1.48c0.76,0,1.54-0.46,1.94-0.99v-4.54h0.64v5.95h-0.64V315.23z"/>
	<path class="st19" d="M507.4,307.89h0.64v8.22h-0.64V307.89z"/>
	<path class="st19" d="M512.18,310.01c1.81,0,2.81,1.44,2.81,3.16v0.17h-4.98c0.06,1.29,0.92,2.37,2.33,2.37
		c0.75,0,1.44-0.28,1.95-0.83l0.33,0.42c-0.59,0.62-1.34,0.96-2.33,0.96c-1.74,0-2.98-1.29-2.98-3.13
		C509.3,311.4,510.52,310.01,512.18,310.01z M510.01,312.83h4.33c-0.01-1.01-0.68-2.27-2.17-2.27
		C510.76,310.56,510.06,311.79,510.01,312.83z"/>
	<path class="st19" d="M516.12,314.84c0.38,0.48,1.08,0.88,1.92,0.88c1,0,1.59-0.49,1.59-1.18c0-0.76-0.81-0.99-1.66-1.21
		c-1-0.25-2.1-0.51-2.1-1.66c0-0.91,0.78-1.65,2.12-1.65c1.02,0,1.7,0.39,2.13,0.88l-0.36,0.46c-0.35-0.47-0.99-0.79-1.78-0.79
		c-0.92,0-1.49,0.46-1.49,1.07c0,0.68,0.76,0.86,1.59,1.07c1.02,0.26,2.17,0.54,2.17,1.81c0,0.96-0.74,1.75-2.23,1.75
		c-0.96,0-1.7-0.28-2.29-0.94L516.12,314.84z"/>
</g>
<g>
	<rect x="488.12" y="320.85" class="st5" width="35.29" height="30.3"/>
	<text transform="matrix(1 0 0 1 488.1301 326.4393)"><tspan x="0" y="0" class="st20 st21 st22">スクリプト</tspan><tspan x="10.6" y="8" class="st20 st21 st22">言語</tspan></text>
</g>
<g>
	<rect x="578.74" y="320.85" class="st5" width="35.29" height="30.3"/>
	<text transform="matrix(1 0 0 1 582.2809 326.4393)"><tspan x="0" y="0" class="st20 st21 st22">カスタム </tspan><tspan x="-0.83" y="8" class="st20 st21 st22">ヘルス チ</tspan><tspan x="3.54" y="16" class="st20 st21 st22">ェック</tspan></text>
</g>
<g>
	<rect x="531.04" y="320.85" class="st5" width="47.36" height="30.3"/>
	<text transform="matrix(1 0 0 1 534.4032 326.4393)"><tspan x="0" y="0" class="st20 st21 st22">Node.jsスク</tspan><tspan x="2.68" y="8" class="st20 st21 st22">リプト言語</tspan></text>
</g>
<g>
	<path class="st19" d="M532.44,308.67c0-0.27,0.23-0.49,0.49-0.49c0.27,0,0.49,0.22,0.49,0.49c0,0.27-0.22,0.49-0.49,0.49
		C532.67,309.17,532.44,308.95,532.44,308.67z M532.61,310.15h0.64v5.95h-0.64V310.15z"/>
	<path class="st19" d="M538.25,312.71h-1.81v3.4h-0.7v-8.22h3.07c1.42,0,2.5,0.9,2.5,2.4c0,1.49-1.06,2.32-2.28,2.37l2.38,3.45
		h-0.85L538.25,312.71z M538.74,308.53h-2.31v3.54h2.31c1.09,0,1.82-0.74,1.82-1.78C540.57,309.25,539.83,308.53,538.74,308.53z"/>
	<path class="st19" d="M546.28,315.23c-0.49,0.54-1.28,1.02-2.15,1.02c-1.22,0-1.87-0.57-1.87-1.91v-4.19h0.64v4.04
		c0,1.16,0.58,1.48,1.44,1.48c0.76,0,1.54-0.46,1.94-0.99v-4.54h0.64v5.95h-0.64V315.23z"/>
	<path class="st19" d="M548.53,307.89h0.64v8.22h-0.64V307.89z"/>
	<path class="st19" d="M553.31,310.01c1.81,0,2.81,1.44,2.81,3.16v0.17h-4.98c0.06,1.29,0.92,2.37,2.33,2.37
		c0.75,0,1.44-0.28,1.95-0.83l0.33,0.42c-0.59,0.62-1.34,0.96-2.33,0.96c-1.74,0-2.98-1.29-2.98-3.13
		C550.44,311.4,551.66,310.01,553.31,310.01z M551.14,312.83h4.33c-0.01-1.01-0.68-2.27-2.17-2.27
		C551.89,310.56,551.19,311.79,551.14,312.83z"/>
	<path class="st19" d="M557.25,314.84c0.38,0.48,1.08,0.88,1.92,0.88c1,0,1.59-0.49,1.59-1.18c0-0.76-0.81-0.99-1.66-1.21
		c-1-0.25-2.1-0.51-2.1-1.66c0-0.91,0.78-1.65,2.12-1.65c1.02,0,1.7,0.39,2.13,0.88l-0.36,0.46c-0.35-0.47-0.99-0.79-1.78-0.79
		c-0.92,0-1.49,0.46-1.49,1.07c0,0.68,0.76,0.86,1.59,1.07c1.02,0.26,2.17,0.54,2.17,1.81c0,0.96-0.74,1.75-2.23,1.75
		c-0.96,0-1.7-0.28-2.29-0.94L557.25,314.84z"/>
</g>
<g>
	<rect x="558.8" y="307.81" class="st5" width="22.72" height="9.29"/>
	<text transform="matrix(1 0 0 1 564.1067 316.569)" class="st6 st7 st8">LX</text>
</g>
<rect x="48.17" y="251.15" class="st16" width="138.26" height="96"/>
<rect x="94.83" y="273.29" class="st5" width="40.47" height="24.33"/>
<text transform="matrix(1 0 0 1 100.7415 282.0876)" class="st17 st18">BIG-IP</text>
<circle class="st9" cx="115.02" cy="278.15" r="19.5"/>
<g>
	<path class="st19" d="M58.02,308.67c0-0.27,0.23-0.49,0.49-0.49c0.27,0,0.49,0.22,0.49,0.49c0,0.27-0.22,0.49-0.49,0.49
		C58.26,309.17,58.02,308.95,58.02,308.67z M58.2,310.15h0.64v5.95H58.2V310.15z"/>
	<path class="st19" d="M63.84,312.71h-1.81v3.4h-0.7v-8.22h3.07c1.42,0,2.5,0.9,2.5,2.4c0,1.49-1.06,2.32-2.28,2.37l2.38,3.45h-0.85
		L63.84,312.71z M64.33,308.53h-2.31v3.54h2.31c1.09,0,1.82-0.74,1.82-1.78C66.15,309.25,65.41,308.53,64.33,308.53z"/>
	<path class="st19" d="M71.87,315.23c-0.49,0.54-1.28,1.02-2.15,1.02c-1.22,0-1.87-0.57-1.87-1.91v-4.19h0.64v4.04
		c0,1.16,0.58,1.48,1.44,1.48c0.76,0,1.54-0.46,1.94-0.99v-4.54h0.64v5.95h-0.64V315.23z"/>
	<path class="st19" d="M74.12,307.89h0.64v8.22h-0.64V307.89z"/>
	<path class="st19" d="M78.9,310.01c1.81,0,2.81,1.44,2.81,3.16v0.17h-4.98c0.06,1.29,0.92,2.37,2.33,2.37
		c0.75,0,1.44-0.28,1.95-0.83l0.33,0.42c-0.59,0.62-1.34,0.96-2.33,0.96c-1.74,0-2.98-1.29-2.98-3.13
		C76.03,311.4,77.25,310.01,78.9,310.01z M76.73,312.83h4.33c-0.01-1.01-0.68-2.27-2.17-2.27
		C77.48,310.56,76.78,311.79,76.73,312.83z"/>
	<path class="st19" d="M82.84,314.84c0.38,0.48,1.08,0.88,1.92,0.88c1,0,1.59-0.49,1.59-1.18c0-0.76-0.81-0.99-1.66-1.21
		c-1-0.25-2.1-0.51-2.1-1.66c0-0.91,0.78-1.65,2.12-1.65c1.02,0,1.7,0.39,2.13,0.88l-0.36,0.46c-0.35-0.47-0.99-0.79-1.78-0.79
		c-0.92,0-1.49,0.46-1.49,1.07c0,0.68,0.76,0.86,1.59,1.07c1.02,0.26,2.17,0.54,2.17,1.81c0,0.96-0.74,1.75-2.23,1.75
		c-0.96,0-1.7-0.28-2.29-0.94L82.84,314.84z"/>
</g>
<g>
	<rect x="55.85" y="320.85" class="st5" width="33.31" height="26.3"/>
	<text transform="matrix(1 0 0 1 58.3983 326.4393)"><tspan x="0" y="0" class="st20 st21 st22">スクリプ</tspan><tspan x="3.54" y="8" class="st20 st21 st22">ト言語</tspan></text>
</g>
<g>
	<rect x="144.24" y="320.85" class="st5" width="34.51" height="26.3"/>
	<text transform="matrix(1 0 0 1 147.3908 326.4393)"><tspan x="0" y="0" class="st20 st21 st22">カスタム </tspan><tspan x="-0.83" y="8" class="st20 st21 st22">ヘルス チ</tspan><tspan x="3.54" y="16" class="st20 st21 st22">ェック</tspan></text>
</g>
<g>
	<rect x="98.28" y="320.85" class="st5" width="41.93" height="21.05"/>
	<text transform="matrix(1 0 0 1 98.9199 326.4393)"><tspan x="0" y="0" class="st20 st21 st22">Node.jsスク</tspan><tspan x="2.68" y="8" class="st20 st21 st22">リプト言語</tspan></text>
</g>
<g>
	<path class="st19" d="M99.16,308.67c0-0.27,0.23-0.49,0.49-0.49c0.27,0,0.49,0.22,0.49,0.49c0,0.27-0.22,0.49-0.49,0.49
		C99.39,309.17,99.16,308.95,99.16,308.67z M99.33,310.15h0.64v5.95h-0.64V310.15z"/>
	<path class="st19" d="M104.97,312.71h-1.81v3.4h-0.7v-8.22h3.07c1.42,0,2.5,0.9,2.5,2.4c0,1.49-1.06,2.32-2.28,2.37l2.38,3.45
		h-0.85L104.97,312.71z M105.46,308.53h-2.31v3.54h2.31c1.09,0,1.82-0.74,1.82-1.78C107.29,309.25,106.55,308.53,105.46,308.53z"/>
	<path class="st19" d="M113,315.23c-0.49,0.54-1.28,1.02-2.15,1.02c-1.22,0-1.87-0.57-1.87-1.91v-4.19h0.64v4.04
		c0,1.16,0.58,1.48,1.44,1.48c0.76,0,1.54-0.46,1.94-0.99v-4.54h0.64v5.95H113V315.23z"/>
	<path class="st19" d="M115.26,307.89h0.64v8.22h-0.64V307.89z"/>
	<path class="st19" d="M120.04,310.01c1.81,0,2.81,1.44,2.81,3.16v0.17h-4.98c0.06,1.29,0.92,2.37,2.33,2.37
		c0.75,0,1.44-0.28,1.95-0.83l0.33,0.42c-0.59,0.62-1.34,0.96-2.33,0.96c-1.74,0-2.98-1.29-2.98-3.13
		C117.16,311.4,118.38,310.01,120.04,310.01z M117.87,312.83h4.33c-0.01-1.01-0.68-2.27-2.17-2.27
		C118.62,310.56,117.91,311.79,117.87,312.83z"/>
	<path class="st19" d="M123.98,314.84c0.38,0.48,1.08,0.88,1.92,0.88c1,0,1.59-0.49,1.59-1.18c0-0.76-0.81-0.99-1.66-1.21
		c-1-0.25-2.1-0.51-2.1-1.66c0-0.91,0.78-1.65,2.12-1.65c1.02,0,1.7,0.39,2.13,0.88l-0.36,0.46c-0.35-0.47-0.99-0.79-1.78-0.79
		c-0.92,0-1.49,0.46-1.49,1.07c0,0.68,0.76,0.86,1.59,1.07c1.02,0.26,2.17,0.54,2.17,1.81c0,0.96-0.74,1.75-2.23,1.75
		c-0.96,0-1.7-0.28-2.29-0.94L123.98,314.84z"/>
</g>
<g>
	<rect x="125.03" y="307.31" class="st5" width="22.72" height="9.29"/>
	<text transform="matrix(1 0 0 1 130.3311 316.069)" class="st6 st7 st8">LX</text>
</g>
<rect x="624.75" y="251.15" class="st16" width="90.91" height="96"/>
<g>
	<g>
		<rect x="628.58" y="319.85" class="st5" width="42.48" height="27.3"/>
		<text transform="matrix(1 0 0 1 628.6464 325.4393)"><tspan x="0" y="0" class="st20 st21 st22">引数に基づく</tspan><tspan x="0" y="8" class="st20 st21 st22">トラフィック </tspan><tspan x="0" y="16" class="st20 st21 st22">ルーティング</tspan></text>
	</g>
</g>
<g>
	<rect x="655.98" y="374.14" class="st16" width="116.55" height="114.08"/>
</g>
<line class="st0" x1="669.9" y1="152.23" x2="669.9" y2="250.65"/>
<rect x="659.88" y="363.3" class="st11" width="108.74" height="18"/>
<text transform="matrix(1 0 0 1 685.0743 375.2821)" class="st12 st13 st14">NGINX API管理</text>
<g>
	<g>
		<polyline class="st0" points="836.57,507.53 836.57,517.27 719.61,517.27 719.61,492.82 		"/>
		<g>
			<polygon class="st3" points="723.7,496.14 722.97,496.82 719.61,493.21 716.25,496.82 715.52,496.14 719.61,491.74 			"/>
		</g>
	</g>
</g>
<g>
	<polyline class="st0" points="715.66,299.15 834.87,299.15 834.87,299.15 834.87,320.1 	"/>
</g>
<rect x="578.74" y="532.15" class="st11" width="182.92" height="18"/>
<text transform="matrix(1 0 0 1 604.9104 544.1325)" class="st12 st13 st14">パブリック クラウド ベンダB：北米</text>
<line class="st0" x1="289.49" y1="76.86" x2="289.49" y2="90.11"/>
<polyline class="st0" points="378.19,76.86 378.19,109.14 308.64,109.14 "/>
<polyline class="st0" points="200.98,76.86 200.98,109.14 270.14,109.14 "/>
<line class="st0" x1="289.27" y1="152.23" x2="289.27" y2="162.96"/>
<polyline class="st0" points="120.97,258.65 120.97,210.78 289.68,210.78 289.68,201.96 "/>
<polyline class="st0" points="269.95,182.46 110.83,182.46 110.83,259.3 "/>
<polyline class="st0" points="308.72,182.46 547.75,182.46 547.75,259.3 "/>
<rect x="274.41" y="173.39" class="st5" width="30.15" height="20.31"/>
<text transform="matrix(1 0 0 1 275.1654 182.1907)"><tspan x="0" y="0" class="st17 st18">BIG-IP </tspan><tspan x="4.37" y="9.22" class="st17 st18">DNS</tspan></text>
<circle class="st9" cx="289.49" cy="182.46" r="19.5"/>
<line class="st0" x1="550.58" y1="347.15" x2="550.58" y2="391.64"/>
<g>
	<rect x="555" y="355.88" class="st5" width="66.24" height="27.14"/>
	<text transform="matrix(1 0 0 1 555.0037 361.4643)"><tspan x="0" y="0" class="st20 st21 st22">アプリケーションの</tspan><tspan x="0" y="8" class="st20 st21 st22">ライブ応答のカスタ</tspan><tspan x="0" y="16" class="st20 st21 st22">ム サービス チェッ</tspan></text>
</g>
<g>
	<rect x="331.46" y="337.59" class="st5" width="66.24" height="27.14"/>
	<text transform="matrix(1 0 0 1 331.4573 343.1709)"><tspan x="0" y="0" class="st20 st21 st22">アプリケーションの</tspan><tspan x="0" y="8" class="st20 st21 st22">ライブ応答のカスタ</tspan><tspan x="0" y="16" class="st20 st21 st22">ム サービス チェッ</tspan></text>
</g>
<g>
	<polygon class="st4" points="707.48,294.66 707.48,275.16 690.61,265.41 673.75,275.16 673.75,294.66 690.61,304.41 	"/>
	<polyline class="st4" points="678.81,290.72 678.81,279.25 689.15,290.72 689.15,279.25 	"/>
	<line class="st4" x1="698.63" y1="289.32" x2="698.63" y2="280.64"/>
	<line class="st4" x1="694.29" y1="284.98" x2="702.97" y2="284.98"/>
</g>
<g>
	<polygon class="st4" points="666.68,294.66 666.68,275.16 649.82,265.41 632.96,275.16 632.96,294.66 649.82,304.41 	"/>
	<polyline class="st4" points="638.02,290.72 638.02,279.25 648.36,290.72 648.36,279.25 	"/>
	<line class="st4" x1="657.84" y1="289.32" x2="657.84" y2="280.64"/>
	<line class="st4" x1="653.5" y1="284.98" x2="662.18" y2="284.98"/>
</g>
<rect x="238.5" y="216.84" class="st5" width="95.52" height="8.41"/>
<text transform="matrix(1 0 0 1 243.2538 223.0017)" class="st20 st21 st22">GeoIPデータ センタの選択</text>
<rect x="125.28" y="221.41" class="st5" width="19.62" height="8.41"/>
<text transform="matrix(1 0 0 1 125.8667 227.5743)" class="st20 st21 st22">APAC</text>
<rect x="330.18" y="374.78" class="st5" width="19.62" height="8.41"/>
<text transform="matrix(1 0 0 1 330.7656 380.9384)" class="st20 st21 st22">APAC</text>
<rect x="551.34" y="190.35" class="st5" width="17.16" height="15.16"/>
<text transform="matrix(1 0 0 1 552.8829 196.5063)" class="st20 st21 st22">北米</text>
<rect x="113.71" y="190.25" class="st5" width="41.53" height="16.56"/>
<text transform="matrix(1 0 0 1 113.7136 196.4072)" class="st20 st21 st22">EU</text>
<rect x="119.34" y="374.2" class="st5" width="33.9" height="12.01"/>
<text transform="matrix(1 0 0 1 119.3442 380.3614)" class="st20 st21 st22">EU</text>
<line class="st0" x1="326.62" y1="323.37" x2="326.62" y2="392.56"/>
<polyline class="st0" points="319.54,323.37 319.54,363.14 115.21,363.14 115.21,391.47 "/>
<rect x="294.54" y="267.52" class="st16" width="77.57" height="55.63"/>
<g>
	<path class="st19" d="M317.67,277.03c0-0.27,0.23-0.49,0.49-0.49c0.27,0,0.49,0.22,0.49,0.49c0,0.27-0.22,0.49-0.49,0.49
		C317.91,277.52,317.67,277.3,317.67,277.03z M317.85,278.51h0.64v5.95h-0.64V278.51z"/>
	<path class="st19" d="M323.49,281.06h-1.81v3.4h-0.7v-8.22h3.07c1.42,0,2.5,0.9,2.5,2.4c0,1.49-1.06,2.32-2.28,2.37l2.38,3.45
		h-0.85L323.49,281.06z M323.98,276.88h-2.31v3.54h2.31c1.09,0,1.82-0.74,1.82-1.78C325.8,277.61,325.06,276.88,323.98,276.88z"/>
	<path class="st19" d="M331.52,283.59c-0.49,0.54-1.28,1.02-2.15,1.02c-1.22,0-1.87-0.57-1.87-1.91v-4.19h0.64v4.04
		c0,1.16,0.58,1.48,1.44,1.48c0.76,0,1.54-0.46,1.94-0.99v-4.54h0.64v5.95h-0.64V283.59z"/>
	<path class="st19" d="M333.77,276.24h0.64v8.22h-0.64V276.24z"/>
	<path class="st19" d="M338.55,278.36c1.81,0,2.81,1.44,2.81,3.16v0.17h-4.98c0.06,1.29,0.92,2.37,2.33,2.37
		c0.75,0,1.44-0.28,1.95-0.83l0.33,0.42c-0.59,0.62-1.34,0.96-2.33,0.96c-1.74,0-2.98-1.29-2.98-3.13
		C335.68,279.75,336.9,278.36,338.55,278.36z M336.38,281.18h4.33c-0.01-1.01-0.68-2.27-2.17-2.27
		C337.13,278.91,336.43,280.15,336.38,281.18z"/>
	<path class="st19" d="M342.49,283.19c0.38,0.48,1.08,0.88,1.92,0.88c1,0,1.59-0.49,1.59-1.18c0-0.76-0.81-0.99-1.66-1.21
		c-1-0.25-2.1-0.51-2.1-1.66c0-0.91,0.78-1.65,2.12-1.65c1.02,0,1.7,0.39,2.13,0.88l-0.36,0.46c-0.35-0.47-0.99-0.79-1.78-0.79
		c-0.92,0-1.49,0.46-1.49,1.07c0,0.68,0.76,0.86,1.59,1.07c1.02,0.26,2.17,0.54,2.17,1.81c0,0.96-0.74,1.75-2.23,1.75
		c-0.96,0-1.7-0.28-2.29-0.94L342.49,283.19z"/>
</g>
<g>
	<rect x="299.18" y="289.21" class="st5" width="69.36" height="35.36"/>
	<text transform="matrix(1 0 0 1 299.1758 294.7929)"><tspan x="0" y="0" class="st20 st21 st22">欧州ユーザーのカス</tspan><tspan x="0" y="8" class="st20 st21 st22">タム トラフィックを</tspan><tspan x="0" y="16" class="st20 st21 st22">EU準拠アプリケーシ</tspan><tspan x="0" y="24" class="st20 st21 st22">ョン プールに転送</tspan></text>
</g>
<rect x="224.62" y="400.95" class="st16" width="199.05" height="98.66"/>
<rect x="17.77" y="400.95" class="st16" width="199.05" height="98.85"/>
<rect x="85.11" y="391.95" class="st11" width="64.37" height="18"/>
<text transform="matrix(1 0 0 1 89.4922 403.9292)" class="st12 st13 st14">プールA：V1.5</text>
<g>
	<g>
		<path class="st9" d="M74.88,438.15h-41.8c-0.88,0-1.6,0.72-1.6,1.6v4.77c0,0.88,0.72,1.6,1.6,1.6h41.8c0.88,0,1.6-0.72,1.6-1.6
			v-4.77C76.48,438.87,75.76,438.15,74.88,438.15z"/>
		<line class="st4" x1="71.66" y1="439.74" x2="71.66" y2="444.53"/>
		<line class="st4" x1="66.83" y1="439.74" x2="66.83" y2="444.53"/>
		<line class="st4" x1="62.01" y1="439.74" x2="62.01" y2="444.53"/>
		<path class="st23" d="M35.49,441.34c0.44,0,0.8,0.36,0.8,0.8c0,0.44-0.36,0.8-0.8,0.8c-0.44,0-0.8-0.36-0.8-0.8
			C34.69,441.69,35.05,441.34,35.49,441.34 M35.49,440.25c-1.04,0-1.89,0.84-1.89,1.88c0,1.04,0.85,1.88,1.89,1.88
			c1.04,0,1.89-0.84,1.89-1.88C37.38,441.1,36.54,440.25,35.49,440.25"/>
	</g>
	<g>
		<path class="st9" d="M74.88,427.38h-41.8c-0.88,0-1.6,0.72-1.6,1.6v4.77c0,0.88,0.72,1.6,1.6,1.6h41.8c0.88,0,1.6-0.72,1.6-1.6
			v-4.77C76.48,428.09,75.76,427.38,74.88,427.38z"/>
		<line class="st4" x1="71.66" y1="428.97" x2="71.66" y2="433.76"/>
		<line class="st4" x1="66.83" y1="428.97" x2="66.83" y2="433.76"/>
		<line class="st4" x1="62.01" y1="428.97" x2="62.01" y2="433.76"/>
		<path class="st23" d="M35.49,430.57c0.44,0,0.8,0.36,0.8,0.8c0,0.44-0.36,0.8-0.8,0.8c-0.44,0-0.8-0.36-0.8-0.8
			C34.69,430.92,35.05,430.57,35.49,430.57 M35.49,429.48c-1.04,0-1.89,0.84-1.89,1.88c0,1.04,0.85,1.88,1.89,1.88
			c1.04,0,1.89-0.84,1.89-1.88C37.38,430.33,36.54,429.48,35.49,429.48"/>
	</g>
	<g>
		<path class="st9" d="M74.88,416.61h-41.8c-0.88,0-1.6,0.72-1.6,1.6v4.77c0,0.88,0.72,1.6,1.6,1.6h41.8c0.88,0,1.6-0.72,1.6-1.6
			v-4.77C76.48,417.32,75.76,416.61,74.88,416.61z"/>
		<line class="st4" x1="71.66" y1="418.2" x2="71.66" y2="422.98"/>
		<line class="st4" x1="66.83" y1="418.2" x2="66.83" y2="422.98"/>
		<line class="st4" x1="62.01" y1="418.2" x2="62.01" y2="422.98"/>
		<path class="st23" d="M35.49,419.79c0.44,0,0.8,0.36,0.8,0.8c0,0.44-0.36,0.8-0.8,0.8c-0.44,0-0.8-0.36-0.8-0.8
			C34.69,420.15,35.05,419.79,35.49,419.79 M35.49,418.71c-1.04,0-1.89,0.84-1.89,1.88c0,1.04,0.85,1.88,1.89,1.88
			c1.04,0,1.89-0.84,1.89-1.88C37.38,419.56,36.54,418.71,35.49,418.71"/>
	</g>
</g>
<g>
	<rect x="27.32" y="450.57" class="st5" width="53.32" height="43.33"/>
	<text transform="matrix(1 0 0 1 31.7468 457.7384)"><tspan x="0" y="0" class="st6 st7 st24">アプリケー</tspan><tspan x="-0.94" y="10" class="st6 st7 st24">ション サー</tspan><tspan x="13.3" y="20" class="st6 st7 st24">バー</tspan><tspan x="2.3" y="30" class="st6 st7 st24">（10ms）</tspan></text>
</g>
<g>
	<g>
		<path class="st9" d="M138.2,447.78H96.4c-0.88,0-1.6,0.72-1.6,1.6v4.77c0,0.88,0.72,1.6,1.6,1.6h41.8c0.88,0,1.6-0.72,1.6-1.6
			v-4.77C139.8,448.49,139.08,447.78,138.2,447.78z"/>
		<line class="st4" x1="134.98" y1="449.37" x2="134.98" y2="454.16"/>
		<line class="st4" x1="130.16" y1="449.37" x2="130.16" y2="454.16"/>
		<line class="st4" x1="125.34" y1="449.37" x2="125.34" y2="454.16"/>
		<path class="st23" d="M98.82,450.97c0.44,0,0.8,0.36,0.8,0.8c0,0.44-0.36,0.8-0.8,0.8c-0.44,0-0.8-0.36-0.8-0.8
			C98.01,451.32,98.37,450.97,98.82,450.97 M98.82,449.88c-1.04,0-1.89,0.84-1.89,1.88c0,1.04,0.85,1.88,1.89,1.88
			c1.04,0,1.89-0.84,1.89-1.88C100.71,450.73,99.86,449.88,98.82,449.88"/>
	</g>
	<g>
		<path class="st9" d="M138.2,437.01H96.4c-0.88,0-1.6,0.72-1.6,1.6v4.77c0,0.88,0.72,1.6,1.6,1.6h41.8c0.88,0,1.6-0.72,1.6-1.6
			v-4.77C139.8,437.72,139.08,437.01,138.2,437.01z"/>
		<line class="st4" x1="134.98" y1="438.6" x2="134.98" y2="443.38"/>
		<line class="st4" x1="130.16" y1="438.6" x2="130.16" y2="443.38"/>
		<line class="st4" x1="125.34" y1="438.6" x2="125.34" y2="443.38"/>
		<path class="st23" d="M98.82,440.19c0.44,0,0.8,0.36,0.8,0.8c0,0.44-0.36,0.8-0.8,0.8c-0.44,0-0.8-0.36-0.8-0.8
			C98.01,440.55,98.37,440.19,98.82,440.19 M98.82,439.11c-1.04,0-1.89,0.84-1.89,1.88c0,1.04,0.85,1.88,1.89,1.88
			c1.04,0,1.89-0.84,1.89-1.88C100.71,439.95,99.86,439.11,98.82,439.11"/>
	</g>
	<g>
		<path class="st9" d="M138.2,426.23H96.4c-0.88,0-1.6,0.72-1.6,1.6v4.77c0,0.88,0.72,1.6,1.6,1.6h41.8c0.88,0,1.6-0.72,1.6-1.6
			v-4.77C139.8,426.95,139.08,426.23,138.2,426.23z"/>
		<line class="st4" x1="134.98" y1="427.83" x2="134.98" y2="432.61"/>
		<line class="st4" x1="130.16" y1="427.83" x2="130.16" y2="432.61"/>
		<line class="st4" x1="125.34" y1="427.83" x2="125.34" y2="432.61"/>
		<path class="st23" d="M98.82,429.42c0.44,0,0.8,0.36,0.8,0.8c0,0.44-0.36,0.8-0.8,0.8c-0.44,0-0.8-0.36-0.8-0.8
			C98.01,429.78,98.37,429.42,98.82,429.42 M98.82,428.34c-1.04,0-1.89,0.84-1.89,1.88c0,1.04,0.85,1.88,1.89,1.88
			c1.04,0,1.89-0.84,1.89-1.88C100.71,429.18,99.86,428.34,98.82,428.34"/>
	</g>
</g>
<g>
	<rect x="90.64" y="460.2" class="st5" width="53.32" height="46.21"/>
	<text transform="matrix(1 0 0 1 95.0706 467.3676)"><tspan x="0" y="0" class="st6 st7 st24">アプリケー</tspan><tspan x="-0.94" y="10" class="st6 st7 st24">ション サー</tspan><tspan x="13.3" y="20" class="st6 st7 st24">バー</tspan><tspan x="2.3" y="30" class="st6 st7 st24">（20ms）</tspan></text>
</g>
<g>
	<g>
		<path class="st9" d="M201.52,456.78h-41.8c-0.88,0-1.6,0.72-1.6,1.6v4.77c0,0.88,0.72,1.6,1.6,1.6h41.8c0.88,0,1.6-0.72,1.6-1.6
			v-4.77C203.12,457.49,202.41,456.78,201.52,456.78z"/>
		<line class="st4" x1="198.3" y1="458.37" x2="198.3" y2="463.16"/>
		<line class="st4" x1="193.48" y1="458.37" x2="193.48" y2="463.16"/>
		<line class="st4" x1="188.66" y1="458.37" x2="188.66" y2="463.16"/>
		<path class="st23" d="M162.14,459.97c0.44,0,0.8,0.36,0.8,0.8c0,0.44-0.36,0.8-0.8,0.8c-0.44,0-0.8-0.36-0.8-0.8
			C161.34,460.32,161.7,459.97,162.14,459.97 M162.14,458.88c-1.04,0-1.89,0.84-1.89,1.88c0,1.04,0.85,1.88,1.89,1.88
			c1.04,0,1.89-0.84,1.89-1.88C164.03,459.73,163.18,458.88,162.14,458.88"/>
	</g>
	<g>
		<path class="st9" d="M201.52,446.01h-41.8c-0.88,0-1.6,0.72-1.6,1.6v4.77c0,0.88,0.72,1.6,1.6,1.6h41.8c0.88,0,1.6-0.72,1.6-1.6
			v-4.77C203.12,446.72,202.41,446.01,201.52,446.01z"/>
		<line class="st4" x1="198.3" y1="447.6" x2="198.3" y2="452.38"/>
		<line class="st4" x1="193.48" y1="447.6" x2="193.48" y2="452.38"/>
		<line class="st4" x1="188.66" y1="447.6" x2="188.66" y2="452.38"/>
		<path class="st23" d="M162.14,449.19c0.44,0,0.8,0.36,0.8,0.8c0,0.44-0.36,0.8-0.8,0.8c-0.44,0-0.8-0.36-0.8-0.8
			C161.34,449.55,161.7,449.19,162.14,449.19 M162.14,448.11c-1.04,0-1.89,0.84-1.89,1.88c0,1.04,0.85,1.88,1.89,1.88
			c1.04,0,1.89-0.84,1.89-1.88C164.03,448.95,163.18,448.11,162.14,448.11"/>
	</g>
	<g>
		<path class="st9" d="M201.52,435.23h-41.8c-0.88,0-1.6,0.72-1.6,1.6v4.77c0,0.88,0.72,1.6,1.6,1.6h41.8c0.88,0,1.6-0.72,1.6-1.6
			v-4.77C203.12,435.95,202.41,435.23,201.52,435.23z"/>
		<line class="st4" x1="198.3" y1="436.83" x2="198.3" y2="441.61"/>
		<line class="st4" x1="193.48" y1="436.83" x2="193.48" y2="441.61"/>
		<line class="st4" x1="188.66" y1="436.83" x2="188.66" y2="441.61"/>
		<path class="st23" d="M162.14,438.42c0.44,0,0.8,0.36,0.8,0.8c0,0.44-0.36,0.8-0.8,0.8c-0.44,0-0.8-0.36-0.8-0.8
			C161.34,438.78,161.7,438.42,162.14,438.42 M162.14,437.34c-1.04,0-1.89,0.84-1.89,1.88c0,1.04,0.85,1.88,1.89,1.88
			c1.04,0,1.89-0.84,1.89-1.88C164.03,438.18,163.18,437.34,162.14,437.34"/>
	</g>
</g>
<g>
	<rect x="153.96" y="469.2" class="st5" width="53.32" height="51.8"/>
	<text transform="matrix(1 0 0 1 158.3931 476.3673)"><tspan x="0" y="0" class="st6 st7 st24">アプリケー</tspan><tspan x="-0.94" y="10" class="st6 st7 st24">ション サー</tspan><tspan x="13.3" y="20" class="st6 st7 st24">バー</tspan><tspan x="2.3" y="30" class="st6 st7 st24">（25ms）</tspan></text>
</g>
<rect x="224.62" y="400.95" class="st16" width="199.05" height="98.85"/>
<g>
	<g>
		<path class="st9" d="M281.72,438.15h-41.8c-0.88,0-1.6,0.72-1.6,1.6v4.77c0,0.88,0.72,1.6,1.6,1.6h41.8c0.88,0,1.6-0.72,1.6-1.6
			v-4.77C283.33,438.87,282.61,438.15,281.72,438.15z"/>
		<line class="st4" x1="278.5" y1="439.74" x2="278.5" y2="444.53"/>
		<line class="st4" x1="273.68" y1="439.74" x2="273.68" y2="444.53"/>
		<line class="st4" x1="268.86" y1="439.74" x2="268.86" y2="444.53"/>
		<path class="st23" d="M242.34,441.34c0.44,0,0.8,0.36,0.8,0.8c0,0.44-0.36,0.8-0.8,0.8c-0.44,0-0.8-0.36-0.8-0.8
			C241.54,441.69,241.9,441.34,242.34,441.34 M242.34,440.25c-1.04,0-1.89,0.84-1.89,1.88c0,1.04,0.85,1.88,1.89,1.88
			c1.04,0,1.89-0.84,1.89-1.88C244.23,441.1,243.38,440.25,242.34,440.25"/>
	</g>
	<g>
		<path class="st9" d="M281.72,427.38h-41.8c-0.88,0-1.6,0.72-1.6,1.6v4.77c0,0.88,0.72,1.6,1.6,1.6h41.8c0.88,0,1.6-0.72,1.6-1.6
			v-4.77C283.33,428.09,282.61,427.38,281.72,427.38z"/>
		<line class="st4" x1="278.5" y1="428.97" x2="278.5" y2="433.76"/>
		<line class="st4" x1="273.68" y1="428.97" x2="273.68" y2="433.76"/>
		<line class="st4" x1="268.86" y1="428.97" x2="268.86" y2="433.76"/>
		<path class="st23" d="M242.34,430.57c0.44,0,0.8,0.36,0.8,0.8c0,0.44-0.36,0.8-0.8,0.8c-0.44,0-0.8-0.36-0.8-0.8
			C241.54,430.92,241.9,430.57,242.34,430.57 M242.34,429.48c-1.04,0-1.89,0.84-1.89,1.88c0,1.04,0.85,1.88,1.89,1.88
			c1.04,0,1.89-0.84,1.89-1.88C244.23,430.33,243.38,429.48,242.34,429.48"/>
	</g>
	<g>
		<path class="st9" d="M281.72,416.61h-41.8c-0.88,0-1.6,0.72-1.6,1.6v4.77c0,0.88,0.72,1.6,1.6,1.6h41.8c0.88,0,1.6-0.72,1.6-1.6
			v-4.77C283.33,417.32,282.61,416.61,281.72,416.61z"/>
		<line class="st4" x1="278.5" y1="418.2" x2="278.5" y2="422.98"/>
		<line class="st4" x1="273.68" y1="418.2" x2="273.68" y2="422.98"/>
		<line class="st4" x1="268.86" y1="418.2" x2="268.86" y2="422.98"/>
		<path class="st23" d="M242.34,419.79c0.44,0,0.8,0.36,0.8,0.8c0,0.44-0.36,0.8-0.8,0.8c-0.44,0-0.8-0.36-0.8-0.8
			C241.54,420.15,241.9,419.79,242.34,419.79 M242.34,418.71c-1.04,0-1.89,0.84-1.89,1.88c0,1.04,0.85,1.88,1.89,1.88
			c1.04,0,1.89-0.84,1.89-1.88C244.23,419.56,243.38,418.71,242.34,418.71"/>
	</g>
</g>
<g>
	<rect x="234.16" y="450.57" class="st5" width="53.32" height="49.93"/>
	<text transform="matrix(1 0 0 1 238.5952 457.7384)"><tspan x="0" y="0" class="st6 st7 st24">アプリケー</tspan><tspan x="-0.94" y="10" class="st6 st7 st24">ション サー</tspan><tspan x="13.3" y="20" class="st6 st7 st24">バー</tspan><tspan x="2.3" y="30" class="st6 st7 st24">（10ms）</tspan></text>
</g>
<g>
	<g>
		<path class="st9" d="M345.05,456.78h-41.8c-0.88,0-1.6,0.72-1.6,1.6v4.77c0,0.88,0.72,1.6,1.6,1.6h41.8c0.88,0,1.6-0.72,1.6-1.6
			v-4.77C346.65,457.49,345.93,456.78,345.05,456.78z"/>
		<line class="st4" x1="341.83" y1="458.37" x2="341.83" y2="463.16"/>
		<line class="st4" x1="337.01" y1="458.37" x2="337.01" y2="463.16"/>
		<line class="st4" x1="332.18" y1="458.37" x2="332.18" y2="463.16"/>
		<path class="st23" d="M305.67,459.97c0.44,0,0.8,0.36,0.8,0.8c0,0.44-0.36,0.8-0.8,0.8c-0.44,0-0.8-0.36-0.8-0.8
			C304.86,460.32,305.22,459.97,305.67,459.97 M305.67,458.88c-1.04,0-1.89,0.84-1.89,1.88c0,1.04,0.85,1.88,1.89,1.88
			c1.04,0,1.89-0.84,1.89-1.88C307.55,459.73,306.71,458.88,305.67,458.88"/>
	</g>
	<g>
		<path class="st9" d="M345.05,446.01h-41.8c-0.88,0-1.6,0.72-1.6,1.6v4.77c0,0.88,0.72,1.6,1.6,1.6h41.8c0.88,0,1.6-0.72,1.6-1.6
			v-4.77C346.65,446.72,345.93,446.01,345.05,446.01z"/>
		<line class="st4" x1="341.83" y1="447.6" x2="341.83" y2="452.38"/>
		<line class="st4" x1="337.01" y1="447.6" x2="337.01" y2="452.38"/>
		<line class="st4" x1="332.18" y1="447.6" x2="332.18" y2="452.38"/>
		<path class="st23" d="M305.67,449.19c0.44,0,0.8,0.36,0.8,0.8c0,0.44-0.36,0.8-0.8,0.8c-0.44,0-0.8-0.36-0.8-0.8
			C304.86,449.55,305.22,449.19,305.67,449.19 M305.67,448.11c-1.04,0-1.89,0.84-1.89,1.88c0,1.04,0.85,1.88,1.89,1.88
			c1.04,0,1.89-0.84,1.89-1.88C307.55,448.95,306.71,448.11,305.67,448.11"/>
	</g>
	<g>
		<path class="st9" d="M345.05,435.23h-41.8c-0.88,0-1.6,0.72-1.6,1.6v4.77c0,0.88,0.72,1.6,1.6,1.6h41.8c0.88,0,1.6-0.72,1.6-1.6
			v-4.77C346.65,435.95,345.93,435.23,345.05,435.23z"/>
		<line class="st4" x1="341.83" y1="436.83" x2="341.83" y2="441.61"/>
		<line class="st4" x1="337.01" y1="436.83" x2="337.01" y2="441.61"/>
		<line class="st4" x1="332.18" y1="436.83" x2="332.18" y2="441.61"/>
		<path class="st23" d="M305.67,438.42c0.44,0,0.8,0.36,0.8,0.8c0,0.44-0.36,0.8-0.8,0.8c-0.44,0-0.8-0.36-0.8-0.8
			C304.86,438.78,305.22,438.42,305.67,438.42 M305.67,437.34c-1.04,0-1.89,0.84-1.89,1.88c0,1.04,0.85,1.88,1.89,1.88
			c1.04,0,1.89-0.84,1.89-1.88C307.55,438.18,306.71,437.34,305.67,437.34"/>
	</g>
</g>
<g>
	<rect x="297.49" y="469.2" class="st5" width="53.32" height="44.07"/>
	<text transform="matrix(1 0 0 1 301.9177 476.3676)"><tspan x="0" y="0" class="st6 st7 st24">アプリケー</tspan><tspan x="-0.94" y="10" class="st6 st7 st24">ション サー</tspan><tspan x="13.3" y="20" class="st6 st7 st24">バー</tspan><tspan x="2.3" y="30" class="st6 st7 st24">（25ms）</tspan></text>
</g>
<g>
	<g>
		<path class="st9" d="M408.37,456.78h-41.8c-0.88,0-1.6,0.72-1.6,1.6v4.77c0,0.88,0.72,1.6,1.6,1.6h41.8c0.88,0,1.6-0.72,1.6-1.6
			v-4.77C409.97,457.49,409.25,456.78,408.37,456.78z"/>
		<line class="st4" x1="405.15" y1="458.37" x2="405.15" y2="463.16"/>
		<line class="st4" x1="400.33" y1="458.37" x2="400.33" y2="463.16"/>
		<line class="st4" x1="395.51" y1="458.37" x2="395.51" y2="463.16"/>
		<path class="st23" d="M368.99,459.97c0.44,0,0.8,0.36,0.8,0.8c0,0.44-0.36,0.8-0.8,0.8c-0.44,0-0.8-0.36-0.8-0.8
			C368.19,460.32,368.55,459.97,368.99,459.97 M368.99,458.88c-1.04,0-1.89,0.84-1.89,1.88c0,1.04,0.85,1.88,1.89,1.88
			c1.04,0,1.89-0.84,1.89-1.88C370.88,459.73,370.03,458.88,368.99,458.88"/>
	</g>
	<g>
		<path class="st9" d="M408.37,446.01h-41.8c-0.88,0-1.6,0.72-1.6,1.6v4.77c0,0.88,0.72,1.6,1.6,1.6h41.8c0.88,0,1.6-0.72,1.6-1.6
			v-4.77C409.97,446.72,409.25,446.01,408.37,446.01z"/>
		<line class="st4" x1="405.15" y1="447.6" x2="405.15" y2="452.38"/>
		<line class="st4" x1="400.33" y1="447.6" x2="400.33" y2="452.38"/>
		<line class="st4" x1="395.51" y1="447.6" x2="395.51" y2="452.38"/>
		<path class="st23" d="M368.99,449.19c0.44,0,0.8,0.36,0.8,0.8c0,0.44-0.36,0.8-0.8,0.8c-0.44,0-0.8-0.36-0.8-0.8
			C368.19,449.55,368.55,449.19,368.99,449.19 M368.99,448.11c-1.04,0-1.89,0.84-1.89,1.88c0,1.04,0.85,1.88,1.89,1.88
			c1.04,0,1.89-0.84,1.89-1.88C370.88,448.95,370.03,448.11,368.99,448.11"/>
	</g>
	<g>
		<path class="st9" d="M408.37,435.23h-41.8c-0.88,0-1.6,0.72-1.6,1.6v4.77c0,0.88,0.72,1.6,1.6,1.6h41.8c0.88,0,1.6-0.72,1.6-1.6
			v-4.77C409.97,435.95,409.25,435.23,408.37,435.23z"/>
		<line class="st4" x1="405.15" y1="436.83" x2="405.15" y2="441.61"/>
		<line class="st4" x1="400.33" y1="436.83" x2="400.33" y2="441.61"/>
		<line class="st4" x1="395.51" y1="436.83" x2="395.51" y2="441.61"/>
		<path class="st23" d="M368.99,438.42c0.44,0,0.8,0.36,0.8,0.8c0,0.44-0.36,0.8-0.8,0.8c-0.44,0-0.8-0.36-0.8-0.8
			C368.19,438.78,368.55,438.42,368.99,438.42 M368.99,437.34c-1.04,0-1.89,0.84-1.89,1.88c0,1.04,0.85,1.88,1.89,1.88
			c1.04,0,1.89-0.84,1.89-1.88C370.88,438.18,370.03,437.34,368.99,437.34"/>
	</g>
</g>
<g>
	<rect x="360.81" y="469.2" class="st5" width="53.32" height="44.07"/>
	<text transform="matrix(1 0 0 1 365.2412 476.3673)"><tspan x="0" y="0" class="st6 st7 st24">アプリケー</tspan><tspan x="-0.94" y="10" class="st6 st7 st24">ション サー</tspan><tspan x="13.3" y="20" class="st6 st7 st24">バー</tspan><tspan x="2.3" y="30" class="st6 st7 st24">（25ms）</tspan></text>
</g>
<rect x="451.05" y="400.95" class="st16" width="199.05" height="98.85"/>
<g>
	<g>
		<path class="st9" d="M508.15,438.15h-41.8c-0.88,0-1.6,0.72-1.6,1.6v4.77c0,0.88,0.72,1.6,1.6,1.6h41.8c0.88,0,1.6-0.72,1.6-1.6
			v-4.77C509.75,438.87,509.04,438.15,508.15,438.15z"/>
		<line class="st4" x1="504.93" y1="439.74" x2="504.93" y2="444.53"/>
		<line class="st4" x1="500.11" y1="439.74" x2="500.11" y2="444.53"/>
		<line class="st4" x1="495.29" y1="439.74" x2="495.29" y2="444.53"/>
		<path class="st23" d="M468.77,441.34c0.44,0,0.8,0.36,0.8,0.8c0,0.44-0.36,0.8-0.8,0.8c-0.44,0-0.8-0.36-0.8-0.8
			C467.97,441.69,468.33,441.34,468.77,441.34 M468.77,440.25c-1.04,0-1.89,0.84-1.89,1.88c0,1.04,0.85,1.88,1.89,1.88
			c1.04,0,1.89-0.84,1.89-1.88C470.66,441.1,469.81,440.25,468.77,440.25"/>
	</g>
	<g>
		<path class="st9" d="M508.15,427.38h-41.8c-0.88,0-1.6,0.72-1.6,1.6v4.77c0,0.88,0.72,1.6,1.6,1.6h41.8c0.88,0,1.6-0.72,1.6-1.6
			v-4.77C509.75,428.09,509.04,427.38,508.15,427.38z"/>
		<line class="st4" x1="504.93" y1="428.97" x2="504.93" y2="433.76"/>
		<line class="st4" x1="500.11" y1="428.97" x2="500.11" y2="433.76"/>
		<line class="st4" x1="495.29" y1="428.97" x2="495.29" y2="433.76"/>
		<path class="st23" d="M468.77,430.57c0.44,0,0.8,0.36,0.8,0.8c0,0.44-0.36,0.8-0.8,0.8c-0.44,0-0.8-0.36-0.8-0.8
			C467.97,430.92,468.33,430.57,468.77,430.57 M468.77,429.48c-1.04,0-1.89,0.84-1.89,1.88c0,1.04,0.85,1.88,1.89,1.88
			c1.04,0,1.89-0.84,1.89-1.88C470.66,430.33,469.81,429.48,468.77,429.48"/>
	</g>
	<g>
		<path class="st9" d="M508.15,416.61h-41.8c-0.88,0-1.6,0.72-1.6,1.6v4.77c0,0.88,0.72,1.6,1.6,1.6h41.8c0.88,0,1.6-0.72,1.6-1.6
			v-4.77C509.75,417.32,509.04,416.61,508.15,416.61z"/>
		<line class="st4" x1="504.93" y1="418.2" x2="504.93" y2="422.98"/>
		<line class="st4" x1="500.11" y1="418.2" x2="500.11" y2="422.98"/>
		<line class="st4" x1="495.29" y1="418.2" x2="495.29" y2="422.98"/>
		<path class="st23" d="M468.77,419.79c0.44,0,0.8,0.36,0.8,0.8c0,0.44-0.36,0.8-0.8,0.8c-0.44,0-0.8-0.36-0.8-0.8
			C467.97,420.15,468.33,419.79,468.77,419.79 M468.77,418.71c-1.04,0-1.89,0.84-1.89,1.88c0,1.04,0.85,1.88,1.89,1.88
			c1.04,0,1.89-0.84,1.89-1.88C470.66,419.56,469.81,418.71,468.77,418.71"/>
	</g>
</g>
<g>
	<rect x="460.59" y="450.57" class="st5" width="53.32" height="49.93"/>
	<text transform="matrix(1 0 0 1 465.0234 457.7384)"><tspan x="0" y="0" class="st6 st7 st24">アプリケー</tspan><tspan x="-0.94" y="10" class="st6 st7 st24">ション サー</tspan><tspan x="13.3" y="20" class="st6 st7 st24">バー</tspan><tspan x="2.3" y="30" class="st6 st7 st24">（10ms）</tspan></text>
</g>
<g>
	<g>
		<path class="st9" d="M571.48,456.78h-41.8c-0.88,0-1.6,0.72-1.6,1.6v4.77c0,0.88,0.72,1.6,1.6,1.6h41.8c0.88,0,1.6-0.72,1.6-1.6
			v-4.77C573.08,457.49,572.36,456.78,571.48,456.78z"/>
		<line class="st4" x1="568.26" y1="458.37" x2="568.26" y2="463.16"/>
		<line class="st4" x1="563.43" y1="458.37" x2="563.43" y2="463.16"/>
		<line class="st4" x1="558.61" y1="458.37" x2="558.61" y2="463.16"/>
		<path class="st23" d="M532.09,459.97c0.44,0,0.8,0.36,0.8,0.8c0,0.44-0.36,0.8-0.8,0.8c-0.44,0-0.8-0.36-0.8-0.8
			C531.29,460.32,531.65,459.97,532.09,459.97 M532.09,458.88c-1.04,0-1.89,0.84-1.89,1.88c0,1.04,0.85,1.88,1.89,1.88
			c1.04,0,1.89-0.84,1.89-1.88C533.98,459.73,533.14,458.88,532.09,458.88"/>
	</g>
	<g>
		<path class="st9" d="M571.48,446.01h-41.8c-0.88,0-1.6,0.72-1.6,1.6v4.77c0,0.88,0.72,1.6,1.6,1.6h41.8c0.88,0,1.6-0.72,1.6-1.6
			v-4.77C573.08,446.72,572.36,446.01,571.48,446.01z"/>
		<line class="st4" x1="568.26" y1="447.6" x2="568.26" y2="452.38"/>
		<line class="st4" x1="563.43" y1="447.6" x2="563.43" y2="452.38"/>
		<line class="st4" x1="558.61" y1="447.6" x2="558.61" y2="452.38"/>
		<path class="st23" d="M532.09,449.19c0.44,0,0.8,0.36,0.8,0.8c0,0.44-0.36,0.8-0.8,0.8c-0.44,0-0.8-0.36-0.8-0.8
			C531.29,449.55,531.65,449.19,532.09,449.19 M532.09,448.11c-1.04,0-1.89,0.84-1.89,1.88c0,1.04,0.85,1.88,1.89,1.88
			c1.04,0,1.89-0.84,1.89-1.88C533.98,448.95,533.14,448.11,532.09,448.11"/>
	</g>
	<g>
		<path class="st9" d="M571.48,435.23h-41.8c-0.88,0-1.6,0.72-1.6,1.6v4.77c0,0.88,0.72,1.6,1.6,1.6h41.8c0.88,0,1.6-0.72,1.6-1.6
			v-4.77C573.08,435.95,572.36,435.23,571.48,435.23z"/>
		<line class="st4" x1="568.26" y1="436.83" x2="568.26" y2="441.61"/>
		<line class="st4" x1="563.43" y1="436.83" x2="563.43" y2="441.61"/>
		<line class="st4" x1="558.61" y1="436.83" x2="558.61" y2="441.61"/>
		<path class="st23" d="M532.09,438.42c0.44,0,0.8,0.36,0.8,0.8c0,0.44-0.36,0.8-0.8,0.8c-0.44,0-0.8-0.36-0.8-0.8
			C531.29,438.78,531.65,438.42,532.09,438.42 M532.09,437.34c-1.04,0-1.89,0.84-1.89,1.88c0,1.04,0.85,1.88,1.89,1.88
			c1.04,0,1.89-0.84,1.89-1.88C533.98,438.18,533.14,437.34,532.09,437.34"/>
	</g>
</g>
<g>
	<rect x="523.91" y="469.2" class="st5" width="53.32" height="51.8"/>
	<text transform="matrix(1 0 0 1 528.3469 476.3676)"><tspan x="0" y="0" class="st6 st7 st24">アプリケー</tspan><tspan x="-0.94" y="10" class="st6 st7 st24">ション サー</tspan><tspan x="13.3" y="20" class="st6 st7 st24">バー</tspan><tspan x="2.3" y="30" class="st6 st7 st24">（25ms）</tspan></text>
</g>
<g>
	<g>
		<path class="st9" d="M634.8,456.78H593c-0.88,0-1.6,0.72-1.6,1.6v4.77c0,0.88,0.72,1.6,1.6,1.6h41.8c0.88,0,1.6-0.72,1.6-1.6
			v-4.77C636.4,457.49,635.68,456.78,634.8,456.78z"/>
		<line class="st4" x1="631.58" y1="458.37" x2="631.58" y2="463.16"/>
		<line class="st4" x1="626.76" y1="458.37" x2="626.76" y2="463.16"/>
		<line class="st4" x1="621.94" y1="458.37" x2="621.94" y2="463.16"/>
		<path class="st23" d="M595.42,459.97c0.44,0,0.8,0.36,0.8,0.8c0,0.44-0.36,0.8-0.8,0.8c-0.44,0-0.8-0.36-0.8-0.8
			C594.61,460.32,594.97,459.97,595.42,459.97 M595.42,458.88c-1.04,0-1.89,0.84-1.89,1.88c0,1.04,0.85,1.88,1.89,1.88
			c1.04,0,1.89-0.84,1.89-1.88C597.3,459.73,596.46,458.88,595.42,458.88"/>
	</g>
	<g>
		<path class="st9" d="M634.8,446.01H593c-0.88,0-1.6,0.72-1.6,1.6v4.77c0,0.88,0.72,1.6,1.6,1.6h41.8c0.88,0,1.6-0.72,1.6-1.6
			v-4.77C636.4,446.72,635.68,446.01,634.8,446.01z"/>
		<line class="st4" x1="631.58" y1="447.6" x2="631.58" y2="452.38"/>
		<line class="st4" x1="626.76" y1="447.6" x2="626.76" y2="452.38"/>
		<line class="st4" x1="621.94" y1="447.6" x2="621.94" y2="452.38"/>
		<path class="st23" d="M595.42,449.19c0.44,0,0.8,0.36,0.8,0.8c0,0.44-0.36,0.8-0.8,0.8c-0.44,0-0.8-0.36-0.8-0.8
			C594.61,449.55,594.97,449.19,595.42,449.19 M595.42,448.11c-1.04,0-1.89,0.84-1.89,1.88c0,1.04,0.85,1.88,1.89,1.88
			c1.04,0,1.89-0.84,1.89-1.88C597.3,448.95,596.46,448.11,595.42,448.11"/>
	</g>
	<g>
		<path class="st9" d="M634.8,435.23H593c-0.88,0-1.6,0.72-1.6,1.6v4.77c0,0.88,0.72,1.6,1.6,1.6h41.8c0.88,0,1.6-0.72,1.6-1.6
			v-4.77C636.4,435.95,635.68,435.23,634.8,435.23z"/>
		<line class="st4" x1="631.58" y1="436.83" x2="631.58" y2="441.61"/>
		<line class="st4" x1="626.76" y1="436.83" x2="626.76" y2="441.61"/>
		<line class="st4" x1="621.94" y1="436.83" x2="621.94" y2="441.61"/>
		<path class="st23" d="M595.42,438.42c0.44,0,0.8,0.36,0.8,0.8c0,0.44-0.36,0.8-0.8,0.8c-0.44,0-0.8-0.36-0.8-0.8
			C594.61,438.78,594.97,438.42,595.42,438.42 M595.42,437.34c-1.04,0-1.89,0.84-1.89,1.88c0,1.04,0.85,1.88,1.89,1.88
			c1.04,0,1.89-0.84,1.89-1.88C597.3,438.18,596.46,437.34,595.42,437.34"/>
	</g>
</g>
<g>
	<rect x="587.24" y="469.2" class="st5" width="53.32" height="58.95"/>
	<text transform="matrix(1 0 0 1 591.6694 476.3673)"><tspan x="0" y="0" class="st6 st7 st24">アプリケー</tspan><tspan x="-0.94" y="10" class="st6 st7 st24">ション サー</tspan><tspan x="13.3" y="20" class="st6 st7 st24">バー</tspan><tspan x="2.3" y="30" class="st6 st7 st24">（25ms）</tspan></text>
</g>
<line class="st0" x1="708.22" y1="414.74" x2="720.93" y2="414.74"/>
<line class="st0" x1="708.22" y1="460.87" x2="720.93" y2="460.87"/>
<line class="st0" x1="691.33" y1="440.75" x2="691.33" y2="433.96"/>
<line class="st0" x1="738.18" y1="440.97" x2="738.18" y2="434.17"/>
<g>
	<polygon class="st4" points="755.07,423.9 755.07,404.4 738.21,394.65 721.34,404.4 721.34,423.9 738.21,433.65 	"/>
	<polyline class="st4" points="726.4,419.96 726.4,408.49 736.74,419.96 736.74,408.49 	"/>
	<line class="st4" x1="746.22" y1="418.56" x2="746.22" y2="409.89"/>
	<line class="st4" x1="741.88" y1="414.22" x2="750.56" y2="414.22"/>
</g>
<g>
	<polygon class="st4" points="707.94,423.9 707.94,404.4 691.07,394.65 674.21,404.4 674.21,423.9 691.07,433.65 	"/>
	<polyline class="st4" points="679.27,419.96 679.27,408.49 689.61,419.96 689.61,408.49 	"/>
	<line class="st4" x1="699.09" y1="418.56" x2="699.09" y2="409.89"/>
	<line class="st4" x1="694.75" y1="414.22" x2="703.43" y2="414.22"/>
</g>
<g>
	<polygon class="st4" points="755.07,470.22 755.07,450.72 738.21,440.97 721.34,450.72 721.34,470.22 738.21,479.97 	"/>
	<polyline class="st4" points="726.4,466.27 726.4,454.8 736.74,466.27 736.74,454.8 	"/>
	<line class="st4" x1="746.22" y1="464.88" x2="746.22" y2="456.2"/>
	<line class="st4" x1="741.88" y1="460.54" x2="750.56" y2="460.54"/>
</g>
<g>
	<polygon class="st4" points="707.94,470.22 707.94,450.72 691.07,440.97 674.21,450.72 674.21,470.22 691.07,479.97 	"/>
	<polyline class="st4" points="679.27,466.27 679.27,454.8 689.61,466.27 689.61,454.8 	"/>
	<line class="st4" x1="699.09" y1="464.88" x2="699.09" y2="456.2"/>
	<line class="st4" x1="694.75" y1="460.54" x2="703.43" y2="460.54"/>
</g>
<g>
	<rect x="813.69" y="385.94" class="st5" width="43.88" height="37.49"/>
	<text transform="matrix(1 0 0 1 819.3501 394.6927)"><tspan x="0" y="0" class="st7 st8">NGINX </tspan><tspan x="5.48" y="12" class="st7 st8">Plus</tspan></text>
</g>
<g>
	<polygon class="st4" points="854.57,370.1 854.57,349.86 837.07,339.74 819.57,349.86 819.57,370.1 837.07,380.21 	"/>
	<polyline class="st4" points="824.82,366 824.82,354.1 835.56,366 835.56,354.1 	"/>
	<line class="st4" x1="845.39" y1="364.56" x2="845.39" y2="355.55"/>
	<line class="st4" x1="840.89" y1="360.05" x2="849.89" y2="360.05"/>
</g>
<g>
	<rect x="779.41" y="320.86" class="st16" width="114.45" height="186.51"/>
</g>
<rect x="784.38" y="311.97" class="st11" width="104.47" height="18"/>
<text transform="matrix(1 0 0 1 792.8689 323.9474)" class="st12 st13 st14">Kubernetesクラスタ</text>
<g>
	<rect x="804.69" y="460.42" class="st5" width="64.77" height="37.49"/>
	<text transform="matrix(1 0 0 1 820.7974 469.1764)"><tspan x="0" y="0" class="st7 st8">NGINX </tspan><tspan x="-1.79" y="12" class="st7 st8">Ingress </tspan><tspan x="-9.29" y="24" class="st7 st8">Controller</tspan></text>
</g>
<polygon class="st4" points="854.57,446.09 854.57,425.85 837.07,415.73 819.57,425.85 819.57,446.09 837.07,456.21 "/>
<g>
	<path id="XMLID_278_" class="st25" d="M848.56,443.51h-6.27c-1.37,0-2.46-0.9-3.13-2.09l-4.18-9.43c-0.67-1.2-1.76-2.09-3.13-2.09
		h-9.4"/>
	<path id="XMLID_277_" class="st25" d="M836.03,439.32l-1.04,2.09c-0.67,1.2-1.76,2.09-3.13,2.09h-9.4"/>
	<path id="XMLID_276_" class="st25" d="M848.56,429.89h-6.27c-1.37,0-2.46,0.9-3.13,2.09l-1.04,2.09"/>
	<polyline id="XMLID_275_" class="st25" points="848.56,426.75 851.7,429.89 848.56,433.04 	"/>
	<polyline id="XMLID_274_" class="st25" points="848.79,440.06 851.7,442.97 848.79,445.88 	"/>
</g>
<rect x="516.11" y="391.64" class="st11" width="68.94" height="18"/>
<text transform="matrix(1 0 0 1 522.7688 403.6149)" class="st12 st13 st14">プールA：V2.0</text>
<rect x="289.68" y="391.95" class="st11" width="68.94" height="18"/>
<text transform="matrix(1 0 0 1 296.2006 403.9292)" class="st12 st13 st14">プールB：V2.0</text>
<g>
	<g>
		<rect x="677.61" y="319.85" class="st5" width="29.87" height="22.05"/>
		<text transform="matrix(1 0 0 1 678.437 325.4393)"><tspan x="0" y="0" class="st20 st21 st22">アクティ</tspan><tspan x="2.71" y="8" class="st20 st21 st22">ブ ヘル</tspan><tspan x="2.71" y="16" class="st20 st21 st22">ス チェ</tspan></text>
	</g>
</g>
</svg>
