<?xml version="1.0" standalone="no"?>
<!DOCTYPE svg PUBLIC "-//W3C//DTD SVG 20010904//EN"
 "http://www.w3.org/TR/2001/REC-SVG-20010904/DTD/svg10.dtd">
<svg version="1.0" xmlns="http://www.w3.org/2000/svg"
 width="243.000000pt" height="243.000000pt" viewBox="0 0 243.000000 243.000000"
 preserveAspectRatio="xMidYMid meet">
<metadata>
Created by potrace 1.11, written by Peter Selinger 2001-2013
</metadata>
<g transform="translate(0.000000,243.000000) scale(0.100000,-0.100000)"
fill="#000000" stroke="none">
<path d="M1123 2391 c-23 -11 -55 -38 -72 -61 -134 -185 111 -411 282 -260 99
88 90 235 -21 310 -47 33 -132 38 -189 11z"/>
<path d="M114 2384 c-142 -70 -140 -273 4 -336 76 -34 170 -11 220 53 73 93
35 240 -74 285 -44 18 -111 17 -150 -2z"/>
<path d="M2138 2380 c-83 -44 -120 -139 -87 -226 53 -139 224 -165 321 -49 23
27 40 103 33 144 -21 118 -161 187 -267 131z"/>
<path d="M650 2128 c-84 -24 -136 -123 -109 -207 40 -125 199 -158 284 -58 88
102 28 254 -107 271 -18 2 -49 0 -68 -6z"/>
<path d="M1669 2130 c-101 -29 -149 -148 -97 -242 64 -114 237 -109 293 8 61
129 -59 273 -196 234z"/>
<path d="M1166 1888 c-140 -30 -190 -206 -87 -309 148 -148 384 25 292 214
-36 73 -121 113 -205 95z"/>
<path d="M143 1859 c-67 -19 -120 -104 -107 -174 15 -83 86 -139 167 -132 51
4 88 26 121 71 30 39 29 133 0 173 -41 54 -116 80 -181 62z"/>
<path d="M2174 1859 c-40 -11 -91 -63 -100 -103 -28 -114 36 -201 147 -201
101 0 168 72 156 171 -11 99 -104 160 -203 133z"/>
<path d="M640 1609 c-124 -52 -128 -236 -6 -290 110 -48 219 25 220 147 1 57
-17 90 -66 127 -31 23 -111 32 -148 16z"/>
<path d="M1634 1595 c-113 -67 -93 -241 31 -282 104 -35 207 42 207 154 0 119
-134 191 -238 128z"/>
<path d="M1129 1357 c-92 -46 -125 -170 -66 -255 63 -90 189 -102 268 -26 33
31 50 76 51 132 1 121 -140 205 -253 149z"/>
<path d="M137 1326 c-78 -42 -101 -120 -61 -199 19 -35 84 -66 131 -61 97 9
154 119 103 201 -37 62 -117 89 -173 59z"/>
<path d="M2185 1333 c-96 -25 -131 -159 -59 -231 39 -39 124 -48 170 -18 129
85 40 287 -111 249z"/>
<path d="M633 1074 c-36 -18 -72 -83 -69 -124 7 -97 100 -156 190 -121 87 35
108 157 37 225 -38 36 -109 45 -158 20z"/>
<path d="M1648 1075 c-62 -34 -87 -129 -48 -192 70 -115 250 -63 250 72 0 102
-112 168 -202 120z"/>
<path d="M1133 839 c-78 -38 -110 -132 -75 -212 67 -152 294 -120 310 43 6 63
-2 91 -34 130 -51 60 -128 75 -201 39z"/>
<path d="M122 785 c-102 -85 -15 -246 109 -203 92 32 104 169 19 213 -44 23
-94 19 -128 -10z"/>
<path d="M2175 801 c-91 -38 -89 -177 3 -214 74 -30 148 13 159 90 12 91 -76
159 -162 124z"/>
<path d="M670 559 c-67 -14 -106 -97 -76 -161 42 -88 169 -90 210 -3 44 92
-32 185 -134 164z"/>
<path d="M1683 558 c-17 -5 -43 -23 -58 -40 -23 -28 -27 -39 -22 -81 6 -72 40
-102 113 -102 50 0 58 3 85 33 41 46 41 108 -1 156 -32 36 -68 47 -117 34z"/>
<path d="M1122 313 c-138 -90 -55 -302 110 -280 146 20 179 222 47 289 -51 26
-107 23 -157 -9z"/>
</g>
</svg>
