<svg id="Layer_1" data-name="Layer 1" xmlns="http://www.w3.org/2000/svg" xmlns:xlink="http://www.w3.org/1999/xlink" viewBox="0 0 612 186.00321"><defs><style>.cls-1,.cls-12,.cls-13,.cls-14,.cls-17,.cls-18,.cls-2,.cls-9{fill:none;}.cls-2{stroke:#999;}.cls-12,.cls-13,.cls-14,.cls-17,.cls-18,.cls-2,.cls-9{stroke-linecap:round;}.cls-12,.cls-13,.cls-14,.cls-2{stroke-miterlimit:10;}.cls-3{fill:#999;}.cls-4{fill:#1e9cd3;}.cls-5{fill:#2bae4a;}.cls-6{fill:#f36f4c;}.cls-7{fill:#231f20;}.cls-8{clip-path:url(#clip-path);}.cls-17,.cls-9{stroke:#000;}.cls-17,.cls-18,.cls-9{stroke-linejoin:round;}.cls-10{fill:#343434;}.cls-11{fill:#4e4e50;}.cls-12{stroke:#2bae4a;}.cls-13{stroke:#1e9cd3;}.cls-14{stroke:#f36f4c;}.cls-15{fill:#fff;}.cls-16{clip-path:url(#clip-path-3);}.cls-17{stroke-width:0.9985px;}.cls-18{stroke:#010101;}</style><clipPath id="clip-path"><rect class="cls-1" x="129.74674" y="56.31255" width="50" height="50"/></clipPath><clipPath id="clip-path-3"><rect class="cls-1" x="336.69603" y="56.46793" width="50" height="50"/></clipPath></defs><line class="cls-2" x1="83.91158" y1="81.27456" x2="129.5649" y2="81.27456"/><polygon class="cls-3" points="126.251 85.364 125.569 84.632 129.181 81.276 125.569 77.918 126.251 77.186 130.649 81.276 126.251 85.364"/><path class="cls-4" d="M174.31563,81.77474h-1.5a.5.5,0,0,1,0-1h1.5a.5.5,0,0,1,0,1Z"/><path class="cls-5" d="M354.54805,81.77474h-3.00391a.5.5,0,0,1,0-1h3.00391a.5.5,0,0,1,0,1Z"/><path class="cls-6" d="M348.54024,81.77474h-3.00391a.5.5,0,0,1,0-1h3.00391a.5.5,0,0,1,0,1Z"/><path class="cls-5" d="M342.53243,81.77474h-3.00391a.5.5,0,0,1,0-1h3.00391a.5.5,0,0,1,0,1Z"/><path class="cls-4" d="M336.52461,81.77474h-3.0039a.5.5,0,0,1,0-1h3.0039a.5.5,0,0,1,0,1Z"/><path class="cls-6" d="M330.5168,81.77474h-3.00391a.5.5,0,0,1,0-1h3.00391a.5.5,0,0,1,0,1Z"/><path class="cls-5" d="M324.509,81.77474h-3.00391a.5.5,0,0,1,0-1H324.509a.5.5,0,0,1,0,1Z"/><path class="cls-4" d="M318.50118,81.77474h-3.00391a.5.5,0,0,1,0-1h3.00391a.5.5,0,0,1,0,1Z"/><path class="cls-6" d="M312.49336,81.77474h-3.0039a.5.5,0,0,1,0-1h3.0039a.5.5,0,0,1,0,1Z"/><path class="cls-6" d="M306.48653,81.77474h-3.00391a.5.5,0,0,1,0-1h3.00391a.5.5,0,0,1,0,1Z"/><path class="cls-5" d="M300.47871,81.77474h-3.0039a.5.5,0,0,1,0-1h3.0039a.5.5,0,0,1,0,1Z"/><path class="cls-4" d="M294.4709,81.77474H291.467a.5.5,0,0,1,0-1h3.0039a.5.5,0,0,1,0,1Z"/><path class="cls-5" d="M288.46309,81.77474h-3.00391a.5.5,0,0,1,0-1h3.00391a.5.5,0,0,1,0,1Z"/><path class="cls-6" d="M282.45528,81.77474h-3.00391a.5.5,0,0,1,0-1h3.00391a.5.5,0,0,1,0,1Z"/><path class="cls-5" d="M276.44746,81.77474h-3.0039a.5.5,0,0,1,0-1h3.0039a.5.5,0,0,1,0,1Z"/><path class="cls-6" d="M270.43965,81.77474h-3.0039a.5.5,0,0,1,0-1h3.0039a.5.5,0,0,1,0,1Z"/><path class="cls-5" d="M264.43184,81.77474h-3.00391a.5.5,0,0,1,0-1h3.00391a.5.5,0,0,1,0,1Z"/><path class="cls-5" d="M258.424,81.77474h-3.00391a.5.5,0,0,1,0-1H258.424a.5.5,0,0,1,0,1Z"/><path class="cls-4" d="M252.41621,81.77474h-3.0039a.5.5,0,0,1,0-1h3.0039a.5.5,0,0,1,0,1Z"/><path class="cls-6" d="M246.4084,81.77474h-3.0039a.5.5,0,0,1,0-1h3.0039a.5.5,0,0,1,0,1Z"/><path class="cls-6" d="M240.40059,81.77474h-3.00391a.5.5,0,0,1,0-1h3.00391a.5.5,0,0,1,0,1Z"/><path class="cls-5" d="M234.39278,81.77474h-3.00391a.5.5,0,0,1,0-1h3.00391a.5.5,0,0,1,0,1Z"/><path class="cls-6" d="M228.385,81.77474h-3.0039a.5.5,0,0,1,0-1h3.0039a.5.5,0,0,1,0,1Z"/><path class="cls-5" d="M222.37715,81.77474h-3.0039a.5.5,0,0,1,0-1h3.0039a.5.5,0,0,1,0,1Z"/><path class="cls-4" d="M216.37032,81.77474h-3.00391a.5.5,0,0,1,0-1h3.00391a.5.5,0,0,1,0,1Z"/><path class="cls-6" d="M210.3625,81.77474h-3.0039a.5.5,0,0,1,0-1h3.0039a.5.5,0,0,1,0,1Z"/><path class="cls-5" d="M204.35469,81.77474h-3.00391a.5.5,0,0,1,0-1h3.00391a.5.5,0,0,1,0,1Z"/><path class="cls-6" d="M198.34688,81.77474H195.343a.5.5,0,0,1,0-1h3.00391a.5.5,0,0,1,0,1Z"/><path class="cls-5" d="M192.33907,81.77474h-3.00391a.5.5,0,0,1,0-1h3.00391a.5.5,0,0,1,0,1Z"/><path class="cls-4" d="M186.33125,81.77474h-3.0039a.5.5,0,0,1,0-1h3.0039a.5.5,0,0,1,0,1Z"/><path class="cls-5" d="M180.32344,81.77474h-3.00391a.5.5,0,0,1,0-1h3.00391a.5.5,0,0,1,0,1Z"/><path class="cls-4" d="M359.052,81.77474h-1.5a.5.5,0,0,1,0-1h1.5a.5.5,0,0,1,0,1Z"/><path class="cls-4" d="M174.31563,85.84993h-1.5a.5.5,0,0,1,0-1h1.5a.5.5,0,0,1,0,1Z"/><path class="cls-6" d="M354.54805,85.84993h-3.00391a.5.5,0,0,1,0-1h3.00391a.5.5,0,0,1,0,1Z"/><path class="cls-5" d="M348.54024,85.84993h-3.00391a.5.5,0,0,1,0-1h3.00391a.5.5,0,0,1,0,1Z"/><path class="cls-4" d="M342.53243,85.84993h-3.00391a.5.5,0,0,1,0-1h3.00391a.5.5,0,0,1,0,1Z"/><path class="cls-5" d="M336.52461,85.84993h-3.0039a.5.5,0,0,1,0-1h3.0039a.5.5,0,0,1,0,1Z"/><path class="cls-4" d="M330.5168,85.84993h-3.00391a.5.5,0,0,1,0-1h3.00391a.5.5,0,0,1,0,1Z"/><path class="cls-4" d="M324.509,85.84993h-3.00391a.5.5,0,0,1,0-1H324.509a.5.5,0,0,1,0,1Z"/><path class="cls-6" d="M318.50118,85.84993h-3.00391a.5.5,0,0,1,0-1h3.00391a.5.5,0,0,1,0,1Z"/><path class="cls-4" d="M312.49336,85.84993h-3.0039a.5.5,0,0,1,0-1h3.0039a.5.5,0,0,1,0,1Z"/><path class="cls-4" d="M306.48653,85.84993h-3.00391a.5.5,0,0,1,0-1h3.00391a.5.5,0,0,1,0,1Z"/><path class="cls-6" d="M300.47871,85.84993h-3.0039a.5.5,0,0,1,0-1h3.0039a.5.5,0,0,1,0,1Z"/><path class="cls-4" d="M294.4709,85.84993H291.467a.5.5,0,0,1,0-1h3.0039a.5.5,0,0,1,0,1Z"/><path class="cls-6" d="M288.46309,85.84993h-3.00391a.5.5,0,0,1,0-1h3.00391a.5.5,0,0,1,0,1Z"/><path class="cls-5" d="M282.45528,85.84993h-3.00391a.5.5,0,0,1,0-1h3.00391a.5.5,0,0,1,0,1Z"/><path class="cls-4" d="M276.44746,85.84993h-3.0039a.5.5,0,0,1,0-1h3.0039a.5.5,0,0,1,0,1Z"/><path class="cls-5" d="M270.43965,85.84993h-3.0039a.5.5,0,0,1,0-1h3.0039a.5.5,0,0,1,0,1Z"/><path class="cls-6" d="M264.43184,85.84993h-3.00391a.5.5,0,0,1,0-1h3.00391a.5.5,0,0,1,0,1Z"/><path class="cls-4" d="M258.424,85.84993h-3.00391a.5.5,0,0,1,0-1H258.424a.5.5,0,0,1,0,1Z"/><path class="cls-4" d="M252.41621,85.84993h-3.0039a.5.5,0,0,1,0-1h3.0039a.5.5,0,0,1,0,1Z"/><path class="cls-5" d="M246.4084,85.84993h-3.0039a.5.5,0,0,1,0-1h3.0039a.5.5,0,0,1,0,1Z"/><path class="cls-4" d="M240.40059,85.84993h-3.00391a.5.5,0,0,1,0-1h3.00391a.5.5,0,0,1,0,1Z"/><path class="cls-6" d="M234.39278,85.84993h-3.00391a.5.5,0,0,1,0-1h3.00391a.5.5,0,0,1,0,1Z"/><path class="cls-4" d="M228.385,85.84993h-3.0039a.5.5,0,0,1,0-1h3.0039a.5.5,0,0,1,0,1Z"/><path class="cls-4" d="M222.37715,85.84993h-3.0039a.5.5,0,0,1,0-1h3.0039a.5.5,0,0,1,0,1Z"/><path class="cls-5" d="M216.37032,85.84993h-3.00391a.5.5,0,0,1,0-1h3.00391a.5.5,0,0,1,0,1Z"/><path class="cls-4" d="M210.3625,85.84993h-3.0039a.5.5,0,0,1,0-1h3.0039a.5.5,0,0,1,0,1Z"/><path class="cls-6" d="M204.35469,85.84993h-3.00391a.5.5,0,0,1,0-1h3.00391a.5.5,0,0,1,0,1Z"/><path class="cls-4" d="M198.34688,85.84993H195.343a.5.5,0,0,1,0-1h3.00391a.5.5,0,0,1,0,1Z"/><path class="cls-4" d="M192.33907,85.84993h-3.00391a.5.5,0,0,1,0-1h3.00391a.5.5,0,0,1,0,1Z"/><path class="cls-5" d="M186.33125,85.84993h-3.0039a.5.5,0,0,1,0-1h3.0039a.5.5,0,0,1,0,1Z"/><path class="cls-4" d="M180.32344,85.84993h-3.00391a.5.5,0,0,1,0-1h3.00391a.5.5,0,0,1,0,1Z"/><path class="cls-4" d="M359.052,85.84993h-1.5a.5.5,0,0,1,0-1h1.5a.5.5,0,0,1,0,1Z"/><path class="cls-4" d="M174.31563,77.70247h-1.5a.5.5,0,0,1,0-1h1.5a.5.5,0,0,1,0,1Z"/><path class="cls-4" d="M354.54805,77.70247h-3.00391a.5.5,0,0,1,0-1h3.00391a.5.5,0,0,1,0,1Z"/><path class="cls-4" d="M348.54024,77.70247h-3.00391a.5.5,0,0,1,0-1h3.00391a.5.5,0,0,1,0,1Z"/><path class="cls-6" d="M342.53243,77.70247h-3.00391a.5.5,0,0,1,0-1h3.00391a.5.5,0,0,1,0,1Z"/><path class="cls-6" d="M336.52461,77.70247h-3.0039a.5.5,0,0,1,0-1h3.0039a.5.5,0,0,1,0,1Z"/><path class="cls-5" d="M330.5168,77.70247h-3.00391a.5.5,0,0,1,0-1h3.00391a.5.5,0,0,1,0,1Z"/><path class="cls-4" d="M324.509,77.70247h-3.00391a.5.5,0,0,1,0-1H324.509a.5.5,0,0,1,0,1Z"/><path class="cls-5" d="M318.50118,77.70247h-3.00391a.5.5,0,0,1,0-1h3.00391a.5.5,0,0,1,0,1Z"/><path class="cls-4" d="M312.49336,77.70247h-3.0039a.5.5,0,0,1,0-1h3.0039a.5.5,0,0,1,0,1Z"/><path class="cls-5" d="M306.48653,77.70247h-3.00391a.5.5,0,0,1,0-1h3.00391a.5.5,0,0,1,0,1Z"/><path class="cls-4" d="M300.47871,77.70247h-3.0039a.5.5,0,0,1,0-1h3.0039a.5.5,0,0,1,0,1Z"/><path class="cls-5" d="M294.4709,77.70247H291.467a.5.5,0,0,1,0-1h3.0039a.5.5,0,0,1,0,1Z"/><path class="cls-4" d="M288.46309,77.70247h-3.00391a.5.5,0,0,1,0-1h3.00391a.5.5,0,0,1,0,1Z"/><path class="cls-4" d="M282.45528,77.70247h-3.00391a.5.5,0,0,1,0-1h3.00391a.5.5,0,0,1,0,1Z"/><path class="cls-6" d="M276.44746,77.70247h-3.0039a.5.5,0,0,1,0-1h3.0039a.5.5,0,0,1,0,1Z"/><path class="cls-4" d="M270.43965,77.70247h-3.0039a.5.5,0,0,1,0-1h3.0039a.5.5,0,0,1,0,1Z"/><path class="cls-4" d="M264.43184,77.70247h-3.00391a.5.5,0,0,1,0-1h3.00391a.5.5,0,0,1,0,1Z"/><path class="cls-6" d="M258.424,77.70247h-3.00391a.5.5,0,0,1,0-1H258.424a.5.5,0,0,1,0,1Z"/><path class="cls-5" d="M252.41621,77.70247h-3.0039a.5.5,0,0,1,0-1h3.0039a.5.5,0,1,1,0,1Z"/><path class="cls-4" d="M246.4084,77.70247h-3.0039a.5.5,0,0,1,0-1h3.0039a.5.5,0,0,1,0,1Z"/><path class="cls-5" d="M240.40059,77.70247h-3.00391a.5.5,0,0,1,0-1h3.00391a.5.5,0,1,1,0,1Z"/><path class="cls-4" d="M234.39278,77.70247h-3.00391a.5.5,0,0,1,0-1h3.00391a.5.5,0,0,1,0,1Z"/><path class="cls-5" d="M228.385,77.70247h-3.0039a.5.5,0,0,1,0-1h3.0039a.5.5,0,1,1,0,1Z"/><path class="cls-4" d="M222.37715,77.70247h-3.0039a.5.5,0,0,1,0-1h3.0039a.5.5,0,0,1,0,1Z"/><path class="cls-6" d="M216.37032,77.70247h-3.00391a.5.5,0,0,1,0-1h3.00391a.5.5,0,0,1,0,1Z"/><path class="cls-5" d="M210.3625,77.70247h-3.0039a.5.5,0,1,1,0-1h3.0039a.5.5,0,0,1,0,1Z"/><path class="cls-4" d="M204.35469,77.70247h-3.00391a.5.5,0,0,1,0-1h3.00391a.5.5,0,0,1,0,1Z"/><path class="cls-5" d="M198.34688,77.70247H195.343a.5.5,0,1,1,0-1h3.00391a.5.5,0,0,1,0,1Z"/><path class="cls-4" d="M192.33907,77.70247h-3.00391a.5.5,0,0,1,0-1h3.00391a.5.5,0,0,1,0,1Z"/><path class="cls-6" d="M186.33125,77.70247h-3.0039a.5.5,0,1,1,0-1h3.0039a.5.5,0,0,1,0,1Z"/><path class="cls-4" d="M180.32344,77.70247h-3.00391a.5.5,0,0,1,0-1h3.00391a.5.5,0,0,1,0,1Z"/><path class="cls-4" d="M359.052,77.70247h-1.5a.5.5,0,0,1,0-1h1.5a.5.5,0,0,1,0,1Z"/><path class="cls-7" d="M136.91621,110.16536a3.66281,3.66281,0,0,1,3.74024-3.79589,3.299,3.299,0,0,1,2.8164,1.45214l-.76953.42872a2.49194,2.49194,0,0,0-2.04687-1.06641,2.98774,2.98774,0,0,0,0,5.96289,2.4655,2.4655,0,0,0,2.04687-1.06738l.78028.42871a3.33576,3.33576,0,0,1-2.82715,1.45215A3.66257,3.66257,0,0,1,136.91621,110.16536Z"/><path class="cls-7" d="M144.19844,111.16634a2.63424,2.63424,0,1,1,2.62891,2.79395A2.60656,2.60656,0,0,1,144.19844,111.16634Zm4.38965,0a1.78664,1.78664,0,1,0-1.76074,2.05664A1.84756,1.84756,0,0,0,148.58809,111.16634Z"/><path class="cls-7" d="M154.27461,110.35189c0-.93555-.47363-1.23242-1.18847-1.23242a2.05311,2.05311,0,0,0-1.57325.82519v3.88379h-.82519V108.515h.82519v.76954a2.6384,2.6384,0,0,1,1.89258-.90137,1.50988,1.50988,0,0,1,1.69434,1.71582v3.72949h-.8252Z"/><path class="cls-7" d="M156.80391,112.71712v-3.47656H155.924V108.515h.87988v-1.45214h.82519V108.515h1.07813v.72559H157.6291v3.30078c0,.39551.17579.68164.53907.68164a.79668.79668,0,0,0,.56152-.21972l.24121.61621a1.34648,1.34648,0,0,1-.98926.34082A1.0875,1.0875,0,0,1,156.80391,112.71712Z"/><path class="cls-7" d="M162.07344,108.38314a2.58051,2.58051,0,0,1,2.55274,2.84863v.209h-4.30176a1.87159,1.87159,0,0,0,1.91406,1.83789,2.32584,2.32584,0,0,0,1.63965-.6709l.39551.53906a2.88946,2.88946,0,0,1-2.11231.81348,2.79194,2.79194,0,0,1-.08789-5.57715Zm-1.749,2.45312h3.4873a1.72243,1.72243,0,0,0-1.749-1.77148A1.77234,1.77234,0,0,0,160.32442,110.83626Z"/><path class="cls-7" d="M167.342,111.64974l-1.59473,2.17871H164.801l2.03516-2.72852-1.92481-2.585h.957l1.47364,2.02442,1.4746-2.02442h.957l-1.92481,2.585,2.0459,2.72852h-.957Z"/><path class="cls-7" d="M170.89473,112.71712v-3.47656h-.88086V108.515h.88086v-1.45214h.8252V108.515h1.07812v.72559h-1.07812v3.30078c0,.39551.17578.68164.53906.68164a.796.796,0,0,0,.56054-.21972l.24219.61621a1.3474,1.3474,0,0,1-.99023.34082A1.08682,1.08682,0,0,1,170.89473,112.71712Z"/><path class="cls-7" d="M139.19844,117.49056h4.80762v.81348h-3.89453v2.36621h3.81738v.81347h-3.81738V124.014h3.89453v.81445h-4.80762Z"/><path class="cls-7" d="M148.90059,121.35189c0-.93555-.47266-1.23242-1.1875-1.23242a2.05147,2.05147,0,0,0-1.57324.82519v3.88379h-.8252V119.515h.8252v.76954a2.63609,2.63609,0,0,1,1.8916-.90137,1.50987,1.50987,0,0,1,1.69433,1.71582v3.72949h-.82519Z"/><path class="cls-7" d="M151.67207,125.5765a2.02911,2.02911,0,0,0,1.72754.72656,1.52185,1.52185,0,0,0,1.70508-1.5957v-.75879a2.21951,2.21951,0,0,1-1.78223.94629c-1.38671,0-2.36523-1.03418-2.36523-2.751,0-1.70508.96777-2.76074,2.36523-2.76074a2.201,2.201,0,0,1,1.78223.93457V119.515h.8252v5.15918c0,1.76075-1.23243,2.31055-2.53028,2.31055a2.71467,2.71467,0,0,1-2.14551-.792Zm3.43262-4.59864a1.95783,1.95783,0,0,0-1.584-.85839c-1.06739,0-1.70606.84765-1.70606,2.02441,0,1.166.63867,2.02441,1.70606,2.02441a1.96691,1.96691,0,0,0,1.584-.86914Z"/><path class="cls-7" d="M157.32637,118.06283a.55569.55569,0,0,1,1.11133,0,.55569.55569,0,1,1-1.11133,0Zm.14258,1.45214h.82519v5.31348H157.469Z"/><path class="cls-7" d="M163.4211,121.35189c0-.93555-.47364-1.23242-1.18848-1.23242a2.05309,2.05309,0,0,0-1.57324.82519v3.88379h-.8252V119.515h.8252v.76954a2.63836,2.63836,0,0,1,1.89258-.90137,1.50987,1.50987,0,0,1,1.69433,1.71582v3.72949h-.82519Z"/><path class="cls-7" d="M168.0959,119.38314a2.58051,2.58051,0,0,1,2.55274,2.84863v.209h-4.30176a1.87159,1.87159,0,0,0,1.91406,1.83789,2.32584,2.32584,0,0,0,1.63965-.6709l.39551.53906a2.88946,2.88946,0,0,1-2.11231.81348,2.79194,2.79194,0,0,1-.08789-5.57715Zm-1.749,2.45312h3.4873a1.72243,1.72243,0,0,0-1.749-1.77148A1.77234,1.77234,0,0,0,166.34688,121.83626Z"/><g id="gear-with-circular-arrows"><g class="cls-8"><polyline class="cls-9" points="177.247 76.75 172.747 81.313 168.247 76.75"/><polyline class="cls-9" points="132.247 85.875 136.747 81.313 141.247 85.875"/><g class="cls-8"><path class="cls-9" d="M172.48744,84.3543a17.9845,17.9845,0,0,1-35.7515-3.0415"/><path class="cls-9" d="M136.985,78.2708a17.98423,17.98423,0,0,1,35.751,3.0415"/><path class="cls-9" d="M148.46719,80.00955a6.41181,6.41181,0,1,1,4.972,7.574A6.4121,6.4121,0,0,1,148.46719,80.00955Z"/><path class="cls-9" d="M155.79164,69.23395l.645,3.178c.0525.01.105.018.1575.029a9.06068,9.06068,0,0,1,1.1885.334l2.059-2.468"/><path class="cls-9" d="M156.43644,72.4119l-.645-3.178a12.0815,12.0815,0,0,0-2.135.0005l-.55,3.16551"/><path class="cls-9" d="M161.69449,71.36625l-1.0315,3.076a9.03993,9.03993,0,0,1,.9375.9345l3.0085-1.1335"/><path class="cls-9" d="M160.66324,74.44245l1.0315-3.076a12.10321,12.10321,0,0,0-1.8535-1.0595l-2.0585,2.468"/><path class="cls-9" d="M151.68764,72.7808l-2.166-2.412a12.22491,12.22491,0,0,0-1.839,1.084l1.1305,3.006"/><path class="cls-9" d="M149.52189,70.3687l2.166,2.412a9.097,9.097,0,0,1,1.4185-.381l.55-3.1655"/><path class="cls-9" d="M161.62859,87.21805l3.0805,1.0285a12.039,12.039,0,0,0,1.059-1.8515l-2.4715-2.055"/><path class="cls-9" d="M144.79824,74.35965l3.0785,1.034a9.02935,9.02935,0,0,1,.9365-.9345l-1.1305-3.006"/><path class="cls-9" d="M163.28434,78.24565l2.412-2.1665a12.17212,12.17212,0,0,0-1.0875-1.836l-3.0085,1.134"/><path class="cls-9" d="M166.84049,82.34965l-3.1815.646c-.01.054-.018.108-.0295.1625a9.14251,9.14251,0,0,1-.333,1.182l2.4715,2.055"/><path class="cls-9" d="M163.65909,82.9954l3.1815-.646a12.05246,12.05246,0,0,0-.0015-2.1325l-3.1695-.547"/><path class="cls-9" d="M165.69644,76.07915l-2.412,2.1665a9.0104,9.0104,0,0,1,.385,1.424l3.17.547"/><path class="cls-9" d="M157.82194,89.8382l2.1705,2.408a12.22652,12.22652,0,0,0,1.8375-1.087l-1.1365-3.004"/><path class="cls-9" d="M153.67864,93.38945l-.6385-3.1795c-.0475-.009-.094-.016-.141-.0255a9.21493,9.21493,0,0,1-1.205-.3395l-2.0635,2.463"/><path class="cls-9" d="M153.03994,90.21l.6385,3.1795a12.13806,12.13806,0,0,0,2.1355.003l.5555-3.164"/><path class="cls-9" d="M159.99234,92.24615l-2.1705-2.408a9.00072,9.00072,0,0,1-1.4525.39l-.5555,3.1645"/><path class="cls-9" d="M164.70914,88.24665l-3.0805-1.0285a9.094,9.094,0,0,1-.9355.937l1.137,3.004"/><path class="cls-9" d="M148.817,88.1712l-1.037,3.0735a12.02807,12.02807,0,0,0,1.8505,1.0635l2.0635-2.4635"/><path class="cls-9" d="M142.65469,80.25225l3.183-.6395c.009-.0485.016-.097.026-.1455a9.11929,9.11929,0,0,1,.339-1.1985l-2.4675-2.06"/><path class="cls-9" d="M147.87664,75.39385l-3.0785-1.034a12.01044,12.01044,0,0,0-1.063,1.849l2.4675,2.06"/><path class="cls-9" d="M145.83754,79.6126l-3.183.6395a12.061,12.061,0,0,0-.002,2.133l3.1685.553"/><path class="cls-9" d="M146.20279,84.3631l-2.4165,2.162a12.17307,12.17307,0,0,0,1.085,1.8375l3.01-1.1275"/><path class="cls-9" d="M147.77994,91.2449l1.037-3.0735a9.13877,9.13877,0,0,1-.9355-.9365l-3.01,1.1275"/><path class="cls-9" d="M143.78654,86.5252l2.4165-2.162a8.94617,8.94617,0,0,1-.382-1.425l-3.1685-.553"/></g></g></g><path d="M93.09,66.17513c3.44-.059,2.62151,5.00616-.4201,4.83293C89.22206,71.06985,90.03545,65.99972,93.09,66.17513Zm-.06347.88281c-1.72654-.12972-2.36324,3.09888-.30067,3.06743C94.44574,70.25305,95.09228,67.03231,93.02657,67.05794Z"/><path d="M96.89864,69.57943a1.09753,1.09753,0,0,0-.02735.20312c0,.30762.252.4336.56641.4336a1.25547,1.25547,0,0,0,.80566-.39844l.50489-2.27637h.88867l-.749,3.38281h-.88964l.09765-.4414a1.60769,1.60769,0,0,1-1.12695.52539c-.65137,0-1.05762-.34375-1.05762-.86817a1.9732,1.9732,0,0,1,.03418-.27343l.51172-2.3252h.89648Z"/><path d="M100.342,70.04134l.377-1.72949h-.55957l.1748-.77051h.56055l.20312-.9248h.89649l-.20313.9248h.68653l-.18262.77051h-.68555l-.32226,1.4707a.84758.84758,0,0,0-.01465.13965c0,.18262.10547.29395.3291.29395a.46619.46619,0,0,0,.24609-.06934l.03418.71387a1.03686,1.03686,0,0,1-.55957.14746c-.60351,0-1.00976-.23145-1.00976-.73535A1.06086,1.06086,0,0,1,100.342,70.04134Z"/><path d="M103.467,70.92415h-.88965l1.03027-4.67187h.88867l-.37793,1.709a1.28906,1.28906,0,0,1,1.02246-.5039,1.24837,1.24837,0,0,1,1.28125,1.40039,1.98582,1.98582,0,0,1-1.77832,2.15039,1.26236,1.26236,0,0,1-1.0791-.53223Zm1.27441-2.67578a1.02109,1.02109,0,0,0-.77734.40625l-.25879,1.17676a.9294.9294,0,0,0,.791.38477,1.08657,1.08657,0,0,0,.99414-1.17579A.73652.73652,0,0,0,104.74141,68.24837Z"/><path d="M108.97481,67.45736a1.51142,1.51142,0,0,1,1.68066,1.54,1.98177,1.98177,0,0,1-1.96191,2.01074,1.501,1.501,0,0,1-1.67383-1.53418A1.98119,1.98119,0,0,1,108.97481,67.45736Zm-.02832.791a1.10119,1.10119,0,0,0-1.00879,1.17676.72887.72887,0,0,0,.791.791,1.09611,1.09611,0,0,0,1.002-1.17579A.72677.72677,0,0,0,108.94649,68.24837Z"/><path d="M112.26387,69.57943a1.02505,1.02505,0,0,0-.02832.20312c0,.30762.25195.4336.56738.4336a1.253,1.253,0,0,0,.80469-.39844l.50488-2.27637h.88965l-.75,3.38281h-.88867l.09766-.4414a1.60966,1.60966,0,0,1-1.127.52539c-.65234,0-1.05859-.34375-1.05859-.86817a1.97751,1.97751,0,0,1,.03516-.27343l.51171-2.3252h.89649Z"/><path d="M118.05489,68.90658a1.17527,1.17527,0,0,0,.03515-.22364c0-.31543-.25293-.43457-.51953-.43457a1.25572,1.25572,0,0,0-.85351.39258l-.50391,2.2832h-.89063l.75-3.38281h.88965l-.09863.44141a1.60806,1.60806,0,0,1,1.12793-.52539c.65137,0,1.05762.34277,1.05762.86816a2.16521,2.16521,0,0,1-.03516.27344l-.51758,2.32519h-.89062Z"/><path d="M122.9084,66.25228h.89649l-1.03711,4.67187h-.89649l.09766-.42089a1.27446,1.27446,0,0,1-1.01563.50488,1.24732,1.24732,0,0,1-1.28808-1.40137,1.97658,1.97658,0,0,1,1.78613-2.14941,1.27427,1.27427,0,0,1,1.07813.53222Zm-1.5625,3.96387a1.00552,1.00552,0,0,0,.77735-.39844L122.383,68.641a.93526.93526,0,0,0-.792-.39258,1.09209,1.09209,0,0,0-.99414,1.17676A.73518.73518,0,0,0,121.3459,70.21615Z"/><path d="M97.44551,77.04134l.37891-1.72949h-.56055l.17481-.77051h.56054l.20313-.9248h.89648l-.20312.9248h.68652l-.18164.77051h-.6875l-.32227,1.4707a1.1264,1.1264,0,0,0-.01367.13965c0,.18262.10547.29395.33008.29395a.46153.46153,0,0,0,.24414-.06934l.03516.71387a1.04045,1.04045,0,0,1-.56055.14746c-.60156,0-1.00781-.23145-1.00781-.73535A1.10167,1.10167,0,0,1,97.44551,77.04134Z"/><path d="M100.43086,74.54134h.88965l-.10547.44824a1.53952,1.53952,0,0,1,1.19727-.52539l-.18848.88282a1.3468,1.3468,0,0,0-.3291-.043,1.19539,1.19539,0,0,0-.84082.40625l-.4834,2.21386h-.88867Z"/><path d="M105.47871,74.54134h.89649l-.749,3.38281h-.89649l.09863-.42089a1.27444,1.27444,0,0,1-1.01562.50488,1.24706,1.24706,0,0,1-1.28906-1.40137,1.97726,1.97726,0,0,1,1.78613-2.14941,1.2773,1.2773,0,0,1,1.0791.53222Zm-1.27441,2.67481a1.009,1.009,0,0,0,.77832-.39844l.25781-1.17676a.9321.9321,0,0,0-.791-.39258,1.09209,1.09209,0,0,0-.99414,1.17676A.7357.7357,0,0,0,104.2043,77.21615Z"/><path d="M107.467,75.31868h-.56055l.168-.77734h.56054l.042-.18262a1.29512,1.29512,0,0,1,1.26757-1.17675,1.36962,1.36962,0,0,1,.74219.18945l-.30762.60254a.54154.54154,0,0,0-.32226-.09082c-.27344,0-.41992.168-.49024.47558l-.043.18262h.69336l-.17383.77734h-.6875l-.57422,2.60547H106.885Zm2.29,0h-.56054l.168-.77734h.56054l.042-.18262a1.29512,1.29512,0,0,1,1.26757-1.17675,1.36744,1.36744,0,0,1,.74219.18945l-.30762.60254a.54356.54356,0,0,0-.32226-.09082c-.27344,0-.4209.168-.49024.47558l-.042.18262h.69336l-.17578.77734h-.68555l-.57422,2.60547H109.176Zm2.2627-.77734h.88867l-.749,3.38281h-.88965Zm.7207-1.5625a.46022.46022,0,0,1,.47657.45606.60159.60159,0,0,1-.59571.60937.45553.45553,0,0,1-.47656-.456A.60621.60621,0,0,1,112.74043,72.97884Z"/><path d="M115.3166,74.45736a1.50121,1.50121,0,0,1,1.37305.665l-.666.51171a.79914.79914,0,0,0-.707-.38574,1.09617,1.09617,0,0,0-1.06445,1.17676.77582.77582,0,0,0,.84766.791.93659.93659,0,0,0,.707-.33594l.4834.5957a1.75308,1.75308,0,0,1-1.28223.53223,1.50814,1.50814,0,0,1-1.65918-1.541A1.97022,1.97022,0,0,1,115.3166,74.45736Z"/><path class="cls-10" d="M193.78243,99.87044h-1.36622v-.875h3.72559v.875h-1.3584v3.7959h-1.001Z"/><path class="cls-10" d="M196.33516,100.28353h.88965v.46289a1.44568,1.44568,0,0,1,1.07812-.54v.86914a1.15614,1.15614,0,0,0-1.07812.35645v2.23437h-.88965Z"/><path class="cls-10" d="M200.91328,103.31673a1.40293,1.40293,0,0,1-1.07128.4336,1.12658,1.12658,0,0,1-1.17676-1.12012,1.07108,1.07108,0,0,1,1.17676-1.0791,1.36951,1.36951,0,0,1,1.07128.41308v-.46875c0-.34277-.29394-.56738-.74218-.56738a1.4248,1.4248,0,0,0-.98828.39941l-.33594-.5957a2.21786,2.21786,0,0,1,1.47754-.53223c.77051,0,1.47851.3086,1.47851,1.28223v2.18457h-.88965Zm0-.88281a.8905.8905,0,0,0-.71484-.29395c-.34961,0-.63672.18848-.63672.51075,0,.31543.28711.498.63672.498a.89111.89111,0,0,0,.71484-.29492Z"/><path class="cls-10" d="M202.90547,101.06087h-.56054v-.77734h.56054v-.18164a1.09062,1.09062,0,0,1,1.1416-1.17676,1.44078,1.44078,0,0,1,.64453.13965l-.18261.63086a.547.547,0,0,0-.28711-.07031c-.25195,0-.41992.168-.41992.49023v.168h.68652v.77734H203.802v2.60547h-.89649Zm2.29,0H204.635v-.77734h.56055v-.18164a1.09062,1.09062,0,0,1,1.1416-1.17676,1.44078,1.44078,0,0,1,.64453.13965l-.18261.64453a.49821.49821,0,0,0-.28711-.084c-.252,0-.41992.168-.41992.47656v.18164h.68652v.77734H206.092v2.60547h-.89649Zm2.00293-1.80664a.53223.53223,0,1,1,.53223.53223A.53665.53665,0,0,1,207.19844,99.25423Zm.09082,1.0293h.88965v3.38281h-.88965Z"/><path class="cls-10" d="M210.67891,100.19954a1.56187,1.56187,0,0,1,1.33789.61622l-.582.54a.83575.83575,0,0,0-.71387-.36425.98625.98625,0,0,0,0,1.96777.85487.85487,0,0,0,.71387-.36426l.582.53906a1.55945,1.55945,0,0,1-1.33789.61622,1.77548,1.77548,0,1,1,0-3.55079Z"/><path class="cls-10" d="M214.04512,101.33431a2.36416,2.36416,0,0,1,2.45117-2.416,2.15583,2.15583,0,0,1,1.98926,1.14161l-.85449.41992a1.2815,1.2815,0,0,0-1.13477-.67969,1.53807,1.53807,0,0,0,0,3.06836,1.26869,1.26869,0,0,0,1.13477-.67969l.85449.41309a2.1699,2.1699,0,0,1-1.98926,1.14844A2.36416,2.36416,0,0,1,214.04512,101.33431Z"/><path class="cls-10" d="M219.07637,98.99544h.88965v4.6709h-.88965Z"/><path class="cls-10" d="M222.91817,103.31673a1.4,1.4,0,0,1-1.07129.4336,1.12713,1.12713,0,0,1-1.17676-1.12012,1.07155,1.07155,0,0,1,1.17676-1.0791,1.36815,1.36815,0,0,1,1.07129.41308v-.46875c0-.34277-.29395-.56738-.74219-.56738a1.42078,1.42078,0,0,0-.9873.39941l-.33594-.5957a2.21786,2.21786,0,0,1,1.47754-.53223c.7705,0,1.47754.3086,1.47754,1.28223v2.18457h-.88965Zm0-.88281a.88712.88712,0,0,0-.71387-.29395c-.35059,0-.6377.18848-.6377.51075,0,.31543.28711.498.6377.498a.88774.88774,0,0,0,.71387-.29492Z"/><path class="cls-10" d="M224.81953,102.60189a1.93321,1.93321,0,0,0,1.16993.46191c.38476,0,.5664-.13281.5664-.34277,0-.23828-.29394-.32227-.67871-.39942-.582-.11132-1.33105-.252-1.33105-1.05761,0-.56739.49707-1.06446,1.38672-1.06446a2.12222,2.12222,0,0,1,1.35839.46289l-.34961.6084a1.42955,1.42955,0,0,0-1.00195-.3916c-.32226,0-.53222.11914-.53222.31543,0,.21.2666.28711.64453.36426.58105.11133,1.35839.26562,1.35839,1.10644,0,.623-.52441,1.085-1.46386,1.085a2.2735,2.2735,0,0,1-1.5127-.5254Z"/><path class="cls-10" d="M228.21016,102.60189a1.93563,1.93563,0,0,0,1.16992.46191c.38477,0,.56738-.13281.56738-.34277,0-.23828-.29394-.32227-.67968-.39942-.58106-.11132-1.33008-.252-1.33008-1.05761,0-.56739.49707-1.06446,1.38672-1.06446a2.12225,2.12225,0,0,1,1.3584.46289l-.35059.6084a1.42707,1.42707,0,0,0-1.001-.3916c-.32226,0-.53222.11914-.53222.31543,0,.21.26562.28711.64453.36426.58105.11133,1.3584.26562,1.3584,1.10644,0,.623-.52539,1.085-1.46387,1.085a2.27352,2.27352,0,0,1-1.5127-.5254Z"/><path class="cls-10" d="M231.40254,99.25423a.53223.53223,0,1,1,.53223.53223A.53665.53665,0,0,1,231.40254,99.25423Zm.09082,1.0293h.88965v3.38281h-.88965Z"/><path class="cls-10" d="M233.51192,101.06087h-.55957v-.77734h.55957v-.18164a1.09062,1.09062,0,0,1,1.1416-1.17676,1.4377,1.4377,0,0,1,.64453.13965l-.18164.64453a.50053.50053,0,0,0-.28711-.084c-.25195,0-.4209.168-.4209.47656v.18164h.68653v.77734h-.68653v2.60547h-.89648Zm2.0039-1.80664a.53223.53223,0,1,1,.53223.53223A.53665.53665,0,0,1,235.51582,99.25423Zm.09082,1.0293h.88965v3.38281h-.88965Z"/><path class="cls-10" d="M238.98653,100.19954a1.56187,1.56187,0,0,1,1.33789.61622l-.582.54a.83576.83576,0,0,0-.71387-.36425.98625.98625,0,0,0,0,1.96777.85488.85488,0,0,0,.71387-.36426l.582.53906a1.55945,1.55945,0,0,1-1.33789.61622,1.77548,1.77548,0,1,1,0-3.55079Z"/><path class="cls-10" d="M243.00215,103.31673a1.4,1.4,0,0,1-1.07129.4336,1.12713,1.12713,0,0,1-1.17676-1.12012,1.07155,1.07155,0,0,1,1.17676-1.0791,1.36814,1.36814,0,0,1,1.07129.41308v-.46875c0-.34277-.29394-.56738-.74219-.56738a1.42081,1.42081,0,0,0-.9873.39941l-.33594-.5957a2.21787,2.21787,0,0,1,1.47754-.53223c.77051,0,1.47754.3086,1.47754,1.28223v2.18457h-.88965Zm0-.88281a.88711.88711,0,0,0-.71387-.29395c-.35058,0-.63769.18848-.63769.51075,0,.31543.28711.498.63769.498a.88772.88772,0,0,0,.71387-.29492Z"/><path class="cls-10" d="M244.97383,102.8265v-1.76563h-.55957v-.77734h.55957V99.3597h.89649v.92383h.68652v.77734h-.68652v1.52735c0,.21.1123.37109.30859.37109a.47966.47966,0,0,0,.30762-.09863l.18945.67285a1.09688,1.09688,0,0,1-.74219.2168A.84577.84577,0,0,1,244.97383,102.8265Z"/><path class="cls-10" d="M247.15547,99.25423a.53223.53223,0,1,1,.53223.53223A.53665.53665,0,0,1,247.15547,99.25423Zm.09082,1.0293h.88965v3.38281h-.88965Z"/><path class="cls-10" d="M248.82246,101.972a1.78959,1.78959,0,1,1,1.78614,1.77832A1.71381,1.71381,0,0,1,248.82246,101.972Zm2.6543,0a.87235.87235,0,1,0-.86816.9873A.89231.89231,0,0,0,251.47676,101.972Z"/><path class="cls-10" d="M255.39473,101.62142a.54894.54894,0,0,0-.624-.62988.96446.96446,0,0,0-.77051.39843v2.27637h-.88867v-3.38281h.88867v.4414a1.5522,1.5522,0,0,1,1.18359-.52539.98364.98364,0,0,1,1.09961,1.07911v2.38769h-.88867Z"/><path class="cls-10" d="M260.84688,103.31673a1.403,1.403,0,0,1-1.07129.4336,1.12658,1.12658,0,0,1-1.17676-1.12012,1.07108,1.07108,0,0,1,1.17676-1.0791,1.36955,1.36955,0,0,1,1.07129.41308v-.46875c0-.34277-.29395-.56738-.74219-.56738a1.42481,1.42481,0,0,0-.98828.39941l-.33594-.5957a2.21787,2.21787,0,0,1,1.47754-.53223c.77051,0,1.47852.3086,1.47852,1.28223v2.18457h-.88965Zm0-.88281a.89052.89052,0,0,0-.71485-.29395c-.3496,0-.63671.18848-.63671.51075,0,.31543.28711.498.63671.498a.89114.89114,0,0,0,.71485-.29492Z"/><path class="cls-10" d="M264.927,101.62142a.54864.54864,0,0,0-.62305-.62988.963.963,0,0,0-.77051.39843v2.27637h-.88965v-3.38281h.88965v.4414a1.54889,1.54889,0,0,1,1.1836-.52539.98408.98408,0,0,1,1.0996,1.07911v2.38769H264.927Z"/><path class="cls-10" d="M269.07149,103.23958a1.32608,1.32608,0,0,1-1.043.51075c-.85449,0-1.499-.64356-1.499-1.77149,0-1.10644.63671-1.7793,1.499-1.7793a1.30073,1.30073,0,0,1,1.043.51856V98.99544h.89648v4.6709h-.89648Zm0-1.86328a.97887.97887,0,0,0-.77051-.38476.99368.99368,0,0,0,0,1.96777.97685.97685,0,0,0,.77051-.38574Z"/><path class="cls-10" d="M272.5002,104.9554v-4.67187h.88965v.42773a1.30651,1.30651,0,0,1,1.04394-.51172c.86817,0,1.49805.64454,1.49805,1.77247,0,1.127-.62988,1.77832-1.49805,1.77832a1.29426,1.29426,0,0,1-1.04394-.51758v1.72265Zm1.65332-3.96386a.99808.99808,0,0,0-.76367.38476v1.19727a1.01766,1.01766,0,0,0,.76367.38574.99368.99368,0,0,0,0-1.96777Z"/><path class="cls-10" d="M276.66426,100.28353h.88965v.46289a1.44568,1.44568,0,0,1,1.07812-.54v.86914a1.15614,1.15614,0,0,0-1.07812.35645v2.23437h-.88965Z"/><path class="cls-10" d="M280.74434,100.19954a1.69681,1.69681,0,0,1,1.69531,1.86329v.19628H279.925a.91164.91164,0,0,0,.97364.78418,1.38238,1.38238,0,0,0,.90332-.33593l.39257.57422a2.08525,2.08525,0,0,1-1.39355.46875,1.77562,1.77562,0,1,1-.05664-3.55079Zm-.833,1.457h1.667a.78372.78372,0,0,0-.834-.749A.81277.81277,0,0,0,279.91133,101.65658Z"/><path class="cls-10" d="M283.33907,101.06087h-.56055v-.77734h.56055v-.18164a1.09062,1.09062,0,0,1,1.1416-1.17676,1.44081,1.44081,0,0,1,.64453.13965l-.18262.64453a.49819.49819,0,0,0-.28711-.084c-.25195,0-.41992.168-.41992.47656v.18164h.68652v.77734h-.68652v2.60547h-.89648Zm2.00293-1.80664a.53223.53223,0,1,1,.53222.53223A.53664.53664,0,0,1,285.342,99.25423Zm.09082,1.0293h.88964v3.38281h-.88964Z"/><path class="cls-10" d="M287.24434,98.99544h.88965v4.6709h-.88965Z"/><path class="cls-10" d="M289.27364,102.8265v-1.76563h-.56055v-.77734h.56055V99.3597h.89648v.92383h.68652v.77734h-.68652v1.52735c0,.21.11231.37109.30762.37109a.48059.48059,0,0,0,.30859-.09863l.18945.67285a1.09989,1.09989,0,0,1-.74316.2168A.845.845,0,0,1,289.27364,102.8265Z"/><path class="cls-10" d="M293.03731,100.19954a1.69662,1.69662,0,0,1,1.69433,1.86329v.19628H292.218a.91063.91063,0,0,0,.97266.78418,1.38238,1.38238,0,0,0,.90332-.33593l.39258.57422a2.08175,2.08175,0,0,1-1.39356.46875,1.77562,1.77562,0,1,1-.05566-3.55079Zm-.834,1.457h1.667a.78342.78342,0,0,0-.833-.749A.81306.81306,0,0,0,292.20332,101.65658Z"/><path class="cls-10" d="M295.42305,100.28353h.88965v.46289a1.444,1.444,0,0,1,1.07812-.54v.86914a1.15614,1.15614,0,0,0-1.07812.35645v2.23437h-.88965Z"/><path class="cls-10" d="M297.86153,99.25423a.53223.53223,0,1,1,.53222.53223A.53664.53664,0,0,1,297.86153,99.25423Zm.09082,1.0293h.88965v3.38281h-.88965Z"/><path class="cls-10" d="M302.03926,101.62142a.54864.54864,0,0,0-.62305-.62988.96145.96145,0,0,0-.7705.39843v2.27637h-.88965v-3.38281h.88965v.4414a1.54886,1.54886,0,0,1,1.18359-.52539.98408.98408,0,0,1,1.09961,1.07911v2.38769h-.88965Z"/><path class="cls-10" d="M304.1877,103.891a1.3453,1.3453,0,0,0,1.05762.41992.82735.82735,0,0,0,.93164-.85449v-.34277a1.31955,1.31955,0,0,1-1.04395.53222c-.84766,0-1.49121-.5957-1.49121-1.72363a1.51286,1.51286,0,0,1,1.49121-1.72266,1.30256,1.30256,0,0,1,1.04395.51856v-.43457h.89648v3.15234c0,1.28809-.99512,1.60352-1.82812,1.60352a2.03935,2.03935,0,0,1-1.457-.50391Zm1.98926-2.51465a.96687.96687,0,0,0-.76368-.38476.93459.93459,0,0,0,0,1.8623.98718.98718,0,0,0,.76368-.38476Z"/><path class="cls-10" d="M192.66817,113.972a.83353.83353,0,1,1,.834.82617A.83106.83106,0,0,1,192.66817,113.972Z"/><path class="cls-10" d="M202.42793,114.25228a2.048,2.048,0,0,0,1.48438.62988c.5459,0,.8125-.25879.8125-.52539,0-.34961-.40625-.46875-.94531-.59473-.76368-.17578-1.74415-.38574-1.74415-1.42968,0-.77735.67188-1.40723,1.77149-1.40723a2.59513,2.59513,0,0,1,1.82129.65137l-.55274.72851a1.99348,1.99348,0,0,0-1.33789-.51172c-.44824,0-.68652.19629-.68652.47657,0,.31543.39258.41308.93164.53906.77051.1748,1.751.40625,1.751,1.44336,0,.85449-.60938,1.49805-1.87012,1.49805a2.69217,2.69217,0,0,1-1.98242-.74219Z"/><path class="cls-10" d="M206.23848,113.972a1.78959,1.78959,0,1,1,1.78613,1.77832A1.71324,1.71324,0,0,1,206.23848,113.972Zm2.6543,0a.87278.87278,0,1,0-.86817.9873A.89289.89289,0,0,0,208.89278,113.972Z"/><path class="cls-10" d="M212.8,115.23958a1.58591,1.58591,0,0,1-1.1914.51075.96825.96825,0,0,1-1.0918-1.06446v-2.40234h.88867v2.05273a.54407.54407,0,0,0,.624.62305.99674.99674,0,0,0,.7705-.38574v-2.29h.88868v3.38281H212.8Z"/><path class="cls-10" d="M214.60176,112.28353h.88867v.46289a1.44772,1.44772,0,0,1,1.0791-.54v.86914a1.158,1.158,0,0,0-1.0791.35645v2.23437h-.88867Z"/><path class="cls-10" d="M218.72969,112.19954a1.56187,1.56187,0,0,1,1.33789.61622l-.582.54a.83575.83575,0,0,0-.71387-.36425.98625.98625,0,0,0,0,1.96777.85487.85487,0,0,0,.71387-.36426l.582.53906a1.55945,1.55945,0,0,1-1.33789.61622,1.77548,1.77548,0,1,1,0-3.55079Z"/><path class="cls-10" d="M222.14278,112.19954a1.69662,1.69662,0,0,1,1.69433,1.86329v.19628h-2.51367a.91062.91062,0,0,0,.97266.78418,1.38687,1.38687,0,0,0,.90429-.33593l.39161.57422a2.08175,2.08175,0,0,1-1.39356.46875,1.77562,1.77562,0,1,1-.05566-3.55079Zm-.834,1.457h1.667a.78277.78277,0,0,0-.833-.749A.81305.81305,0,0,0,221.30879,113.65658Z"/><path class="cls-10" d="M228.16328,115.31673a1.40293,1.40293,0,0,1-1.07128.4336,1.12658,1.12658,0,0,1-1.17676-1.12012,1.07108,1.07108,0,0,1,1.17676-1.0791,1.36951,1.36951,0,0,1,1.07128.41308v-.46875c0-.34277-.29394-.56738-.74218-.56738a1.4248,1.4248,0,0,0-.98828.39941l-.33594-.5957a2.21786,2.21786,0,0,1,1.47754-.53223c.77051,0,1.47851.3086,1.47851,1.28223v2.18457h-.88965Zm0-.88281a.8905.8905,0,0,0-.71484-.29395c-.34961,0-.63672.18848-.63672.51075,0,.31543.28711.498.63672.498a.89111.89111,0,0,0,.71484-.29492Z"/><path class="cls-10" d="M232.30782,115.23958a1.328,1.328,0,0,1-1.04395.51075c-.85449,0-1.499-.64356-1.499-1.77149,0-1.10644.63769-1.7793,1.499-1.7793a1.30257,1.30257,0,0,1,1.04395.51856v-1.72266h.89648v4.6709h-.89648Zm0-1.86328a.98036.98036,0,0,0-.77051-.38476.99368.99368,0,0,0,0,1.96777.97833.97833,0,0,0,.77051-.38574Z"/><path class="cls-10" d="M236.469,115.23958a1.32608,1.32608,0,0,1-1.043.51075c-.85449,0-1.499-.64356-1.499-1.77149,0-1.10644.63672-1.7793,1.499-1.7793a1.30073,1.30073,0,0,1,1.043.51856v-1.72266h.89648v4.6709H236.469Zm0-1.86328a.97887.97887,0,0,0-.77051-.38476.99368.99368,0,0,0,0,1.96777.97685.97685,0,0,0,.77051-.38574Z"/><path class="cls-10" d="M238.27852,112.28353h.88867v.46289a1.44772,1.44772,0,0,1,1.0791-.54v.86914a1.158,1.158,0,0,0-1.0791.35645v2.23437h-.88867Z"/><path class="cls-10" d="M242.3586,112.19954a1.69681,1.69681,0,0,1,1.69531,1.86329v.19628h-2.51465a.91164.91164,0,0,0,.97363.78418,1.38236,1.38236,0,0,0,.90332-.33593l.39258.57422a2.08525,2.08525,0,0,1-1.39355.46875,1.77562,1.77562,0,1,1-.05664-3.55079Zm-.833,1.457h1.667a.78372.78372,0,0,0-.834-.749A.81277.81277,0,0,0,241.52559,113.65658Z"/><path class="cls-10" d="M244.8293,114.60189a1.93318,1.93318,0,0,0,1.16992.46191c.38477,0,.56641-.13281.56641-.34277,0-.23828-.29395-.32227-.67871-.39942-.582-.11132-1.33106-.252-1.33106-1.05761,0-.56739.49707-1.06446,1.38672-1.06446a2.12223,2.12223,0,0,1,1.3584.46289l-.34961.6084a1.42956,1.42956,0,0,0-1.00195-.3916c-.32227,0-.53223.11914-.53223.31543,0,.21.2666.28711.64453.36426.58106.11133,1.3584.26562,1.3584,1.10644,0,.623-.52441,1.085-1.46387,1.085a2.27347,2.27347,0,0,1-1.51269-.5254Z"/><path class="cls-10" d="M248.21993,114.60189a1.9356,1.9356,0,0,0,1.16992.46191c.38476,0,.56738-.13281.56738-.34277,0-.23828-.294-.32227-.67969-.39942-.581-.11132-1.33008-.252-1.33008-1.05761,0-.56739.49707-1.06446,1.38672-1.06446a2.12223,2.12223,0,0,1,1.3584.46289l-.35058.6084a1.42709,1.42709,0,0,0-1.001-.3916c-.32227,0-.53223.11914-.53223.31543,0,.21.26563.28711.64453.36426.58106.11133,1.3584.26562,1.3584,1.10644,0,.623-.52539,1.085-1.46387,1.085a2.27347,2.27347,0,0,1-1.51269-.5254Z"/><path class="cls-10" d="M192.66817,124.972a.83353.83353,0,1,1,.834.82617A.83106.83106,0,0,1,192.66817,124.972Z"/><path class="cls-10" d="M202.20332,121.99544h1.8418a2.33963,2.33963,0,1,1,0,4.6709h-1.8418Zm1.8418,3.7959a1.39867,1.39867,0,0,0,1.46387-1.457,1.36708,1.36708,0,0,0-1.46387-1.46387h-.84766v2.9209Z"/><path class="cls-10" d="M208.8127,123.19954a1.69681,1.69681,0,0,1,1.69531,1.86329v.19628h-2.51465a.91164.91164,0,0,0,.97364.78418,1.38238,1.38238,0,0,0,.90332-.33593l.39257.57422a2.08525,2.08525,0,0,1-1.39355.46875,1.77562,1.77562,0,1,1-.05664-3.55079Zm-.833,1.457h1.667a.78372.78372,0,0,0-.834-.749A.81277.81277,0,0,0,207.97969,124.65658Z"/><path class="cls-10" d="M211.2834,125.60189a1.93321,1.93321,0,0,0,1.16992.46191c.38477,0,.56641-.13281.56641-.34277,0-.23828-.294-.32227-.67871-.39942-.582-.11132-1.33106-.252-1.33106-1.05761,0-.56739.49707-1.06446,1.38672-1.06446a2.12223,2.12223,0,0,1,1.3584.46289l-.34961.6084a1.42956,1.42956,0,0,0-1.002-.3916c-.32227,0-.53223.11914-.53223.31543,0,.21.2666.28711.64453.36426.58106.11133,1.3584.26562,1.3584,1.10644,0,.623-.52441,1.085-1.46387,1.085a2.27347,2.27347,0,0,1-1.51269-.5254Z"/><path class="cls-10" d="M214.79317,125.8265v-1.76563h-.55957v-.77734h.55957v-.92383h.89648v.92383h.68653v.77734h-.68653v1.52735c0,.21.11231.37109.3086.37109a.47963.47963,0,0,0,.30761-.09863l.18946.67285a1.09692,1.09692,0,0,1-.74219.2168A.84577.84577,0,0,1,214.79317,125.8265Z"/><path class="cls-10" d="M216.97481,122.25423a.53223.53223,0,1,1,.53222.53223A.53665.53665,0,0,1,216.97481,122.25423Zm.09082,1.0293h.88965v3.38281h-.88965Z"/><path class="cls-10" d="M221.15352,124.62142a.54894.54894,0,0,0-.624-.62988.96446.96446,0,0,0-.77051.39843v2.27637h-.88867v-3.38281h.88867v.4414a1.5522,1.5522,0,0,1,1.18359-.52539.98364.98364,0,0,1,1.09961,1.07911v2.38769h-.88867Z"/><path class="cls-10" d="M224.99239,126.31673a1.4,1.4,0,0,1-1.07129.4336,1.12712,1.12712,0,0,1-1.17676-1.12012,1.07154,1.07154,0,0,1,1.17676-1.0791,1.36815,1.36815,0,0,1,1.07129.41308v-.46875c0-.34277-.29395-.56738-.74219-.56738a1.42082,1.42082,0,0,0-.98731.39941l-.33593-.5957a2.21786,2.21786,0,0,1,1.47754-.53223c.7705,0,1.47753.3086,1.47753,1.28223v2.18457h-.88964Zm0-.88281a.88712.88712,0,0,0-.71387-.29395c-.35059,0-.6377.18848-.6377.51075,0,.31543.28711.498.6377.498a.88774.88774,0,0,0,.71387-.29492Z"/><path class="cls-10" d="M226.96407,125.8265v-1.76563h-.56055v-.77734h.56055v-.92383h.89648v.92383h.68652v.77734h-.68652v1.52735c0,.21.1123.37109.30762.37109a.48059.48059,0,0,0,.30859-.09863l.18945.67285a1.09989,1.09989,0,0,1-.74316.2168A.845.845,0,0,1,226.96407,125.8265Z"/><path class="cls-10" d="M229.14571,122.25423a.53223.53223,0,1,1,.53222.53223A.53664.53664,0,0,1,229.14571,122.25423Zm.09082,1.0293h.88965v3.38281h-.88965Z"/><path class="cls-10" d="M230.8127,124.972a1.78959,1.78959,0,1,1,1.78613,1.77832A1.7138,1.7138,0,0,1,230.8127,124.972Zm2.6543,0a.87236.87236,0,1,0-.86817.9873A.89231.89231,0,0,0,233.467,124.972Z"/><path class="cls-10" d="M237.384,124.62142a.54864.54864,0,0,0-.62305-.62988.963.963,0,0,0-.77051.39843v2.27637h-.88965v-3.38281h.88965v.4414a1.5489,1.5489,0,0,1,1.1836-.52539.98408.98408,0,0,1,1.09961,1.07911v2.38769H237.384Z"/><path class="cls-10" d="M242.83711,126.31673a1.403,1.403,0,0,1-1.07129.4336,1.12657,1.12657,0,0,1-1.17675-1.12012,1.07107,1.07107,0,0,1,1.17675-1.0791,1.36953,1.36953,0,0,1,1.07129.41308v-.46875c0-.34277-.29394-.56738-.74218-.56738a1.42484,1.42484,0,0,0-.98829.39941l-.33593-.5957a2.21786,2.21786,0,0,1,1.47754-.53223c.7705,0,1.47851.3086,1.47851,1.28223v2.18457h-.88965Zm0-.88281a.8905.8905,0,0,0-.71484-.29395c-.34961,0-.63672.18848-.63672.51075,0,.31543.28711.498.63672.498a.89111.89111,0,0,0,.71484-.29492Z"/><path class="cls-10" d="M246.98164,126.23958a1.326,1.326,0,0,1-1.043.51075c-.8545,0-1.499-.64356-1.499-1.77149,0-1.10644.63672-1.7793,1.499-1.7793a1.30071,1.30071,0,0,1,1.043.51856v-1.72266h.89649v4.6709h-.89649Zm0-1.86328a.97885.97885,0,0,0-.7705-.38476.99368.99368,0,0,0,0,1.96777.97683.97683,0,0,0,.7705-.38574Z"/><path class="cls-10" d="M251.14278,126.23958a1.32608,1.32608,0,0,1-1.043.51075c-.85449,0-1.499-.64356-1.499-1.77149,0-1.10644.63672-1.7793,1.499-1.7793a1.30073,1.30073,0,0,1,1.043.51856v-1.72266h.89648v4.6709h-.89648Zm0-1.86328a.97887.97887,0,0,0-.77051-.38476.99368.99368,0,0,0,0,1.96777.97685.97685,0,0,0,.77051-.38574Z"/><path class="cls-10" d="M252.95235,123.28353h.88867v.46289a1.44772,1.44772,0,0,1,1.0791-.54v.86914a1.158,1.158,0,0,0-1.0791.35645v2.23437h-.88867Z"/><path class="cls-10" d="M257.03243,123.19954a1.69681,1.69681,0,0,1,1.69531,1.86329v.19628h-2.51465a.91163.91163,0,0,0,.97363.78418,1.38236,1.38236,0,0,0,.90332-.33593l.39258.57422a2.08525,2.08525,0,0,1-1.39355.46875,1.77562,1.77562,0,1,1-.05664-3.55079Zm-.833,1.457h1.667a.78372.78372,0,0,0-.834-.749A.81277.81277,0,0,0,256.19942,124.65658Z"/><path class="cls-10" d="M259.50313,125.60189a1.93318,1.93318,0,0,0,1.16992.46191c.38477,0,.56641-.13281.56641-.34277,0-.23828-.29395-.32227-.67871-.39942-.582-.11132-1.33106-.252-1.33106-1.05761,0-.56739.49707-1.06446,1.38672-1.06446a2.12223,2.12223,0,0,1,1.3584.46289l-.34961.6084a1.42958,1.42958,0,0,0-1.002-.3916c-.32227,0-.53223.11914-.53223.31543,0,.21.2666.28711.64453.36426.58105.11133,1.3584.26562,1.3584,1.10644,0,.623-.52442,1.085-1.46387,1.085a2.27347,2.27347,0,0,1-1.51269-.5254Z"/><path class="cls-10" d="M262.89375,125.60189a1.93563,1.93563,0,0,0,1.16993.46191c.38476,0,.56738-.13281.56738-.34277,0-.23828-.29395-.32227-.67969-.39942-.58105-.11132-1.33008-.252-1.33008-1.05761,0-.56739.49707-1.06446,1.38672-1.06446a2.12223,2.12223,0,0,1,1.3584.46289l-.35059.6084a1.427,1.427,0,0,0-1.001-.3916c-.32227,0-.53223.11914-.53223.31543,0,.21.26563.28711.64453.36426.58106.11133,1.3584.26562,1.3584,1.10644,0,.623-.52539,1.085-1.46387,1.085a2.27347,2.27347,0,0,1-1.51269-.5254Z"/><path class="cls-10" d="M192.66817,135.972a.83353.83353,0,1,1,.834.82617A.83106.83106,0,0,1,192.66817,135.972Z"/><path class="cls-10" d="M202.20332,132.99544h1.8418a2.33963,2.33963,0,1,1,0,4.6709h-1.8418Zm1.8418,3.7959a1.39867,1.39867,0,0,0,1.46387-1.457,1.36708,1.36708,0,0,0-1.46387-1.46387h-.84766v2.9209Z"/><path class="cls-10" d="M208.8127,134.19954a1.69681,1.69681,0,0,1,1.69531,1.86329v.19628h-2.51465a.91164.91164,0,0,0,.97364.78418,1.38238,1.38238,0,0,0,.90332-.33593l.39257.57422a2.08525,2.08525,0,0,1-1.39355.46875,1.77562,1.77562,0,1,1-.05664-3.55079Zm-.833,1.457h1.667a.78372.78372,0,0,0-.834-.749A.81277.81277,0,0,0,207.97969,135.65658Z"/><path class="cls-10" d="M211.2834,136.60189a1.93321,1.93321,0,0,0,1.16992.46191c.38477,0,.56641-.13281.56641-.34277,0-.23828-.294-.32227-.67871-.39942-.582-.11132-1.33106-.25195-1.33106-1.05761,0-.56739.49707-1.06446,1.38672-1.06446a2.12223,2.12223,0,0,1,1.3584.46289l-.34961.6084a1.42956,1.42956,0,0,0-1.002-.3916c-.32227,0-.53223.11914-.53223.31543,0,.21.2666.28711.64453.36426.58106.11133,1.3584.26562,1.3584,1.10644,0,.62305-.52441,1.085-1.46387,1.085a2.27347,2.27347,0,0,1-1.51269-.5254Z"/><path class="cls-10" d="M214.79317,136.8265v-1.76563h-.55957v-.77734h.55957v-.92383h.89648v.92383h.68653v.77734h-.68653v1.52735c0,.21.11231.37109.3086.37109a.47963.47963,0,0,0,.30761-.09863l.18946.67285a1.09692,1.09692,0,0,1-.74219.2168A.84577.84577,0,0,1,214.79317,136.8265Z"/><path class="cls-10" d="M216.97481,133.25423a.53223.53223,0,1,1,.53222.53223A.53665.53665,0,0,1,216.97481,133.25423Zm.09082,1.0293h.88965v3.38281h-.88965Z"/><path class="cls-10" d="M221.15352,135.62142a.54894.54894,0,0,0-.624-.62988.96446.96446,0,0,0-.77051.39843v2.27637h-.88867v-3.38281h.88867v.4414a1.5522,1.5522,0,0,1,1.18359-.52539.98364.98364,0,0,1,1.09961,1.07911v2.38769h-.88867Z"/><path class="cls-10" d="M224.99239,137.31673a1.4,1.4,0,0,1-1.07129.4336,1.12712,1.12712,0,0,1-1.17676-1.12012,1.07154,1.07154,0,0,1,1.17676-1.0791,1.36815,1.36815,0,0,1,1.07129.41308v-.46875c0-.34277-.29395-.56738-.74219-.56738a1.42082,1.42082,0,0,0-.98731.39941l-.33593-.5957a2.21786,2.21786,0,0,1,1.47754-.53223c.7705,0,1.47753.3086,1.47753,1.28223v2.18457h-.88964Zm0-.88281a.88712.88712,0,0,0-.71387-.29395c-.35059,0-.6377.18848-.6377.51075,0,.31543.28711.498.6377.498a.88774.88774,0,0,0,.71387-.29492Z"/><path class="cls-10" d="M226.96407,136.8265v-1.76563h-.56055v-.77734h.56055v-.92383h.89648v.92383h.68652v.77734h-.68652v1.52735c0,.21.1123.37109.30762.37109a.48059.48059,0,0,0,.30859-.09863l.18945.67285a1.09989,1.09989,0,0,1-.74316.2168A.845.845,0,0,1,226.96407,136.8265Z"/><path class="cls-10" d="M229.14571,133.25423a.53223.53223,0,1,1,.53222.53223A.53664.53664,0,0,1,229.14571,133.25423Zm.09082,1.0293h.88965v3.38281h-.88965Z"/><path class="cls-10" d="M230.8127,135.972a1.78959,1.78959,0,1,1,1.78613,1.77832A1.7138,1.7138,0,0,1,230.8127,135.972Zm2.6543,0a.87236.87236,0,1,0-.86817.9873A.89231.89231,0,0,0,233.467,135.972Z"/><path class="cls-10" d="M237.384,135.62142a.54864.54864,0,0,0-.62305-.62988.963.963,0,0,0-.77051.39843v2.27637h-.88965v-3.38281h.88965v.4414a1.5489,1.5489,0,0,1,1.1836-.52539.98408.98408,0,0,1,1.09961,1.07911v2.38769H237.384Z"/><path class="cls-10" d="M240.80586,138.9554v-4.67187h.88965v.42773a1.30652,1.30652,0,0,1,1.04395-.51172c.86816,0,1.498.64454,1.498,1.77247,0,1.12695-.62988,1.77832-1.498,1.77832a1.29428,1.29428,0,0,1-1.04395-.51758v1.72265Zm1.65332-3.96386a.99808.99808,0,0,0-.76367.38476v1.19727a1.01766,1.01766,0,0,0,.76367.38574.99368.99368,0,0,0,0-1.96777Z"/><path class="cls-10" d="M244.76,135.972a1.78959,1.78959,0,1,1,1.78614,1.77832A1.71325,1.71325,0,0,1,244.76,135.972Zm2.6543,0a.87278.87278,0,1,0-.86816.9873A.89289.89289,0,0,0,247.41426,135.972Z"/><path class="cls-10" d="M249.04805,134.28353h.88965v.46289a1.44568,1.44568,0,0,1,1.07812-.54v.86914a1.15614,1.15614,0,0,0-1.07812.35645v2.23437h-.88965Z"/><path class="cls-10" d="M251.92989,136.8265v-1.76563h-.55957v-.77734h.55957v-.92383h.89648v.92383h.68652v.77734h-.68652v1.52735c0,.21.11231.37109.30859.37109a.47964.47964,0,0,0,.30762-.09863l.18945.67285a1.09687,1.09687,0,0,1-.74218.2168A.84577.84577,0,0,1,251.92989,136.8265Z"/><path class="cls-10" d="M192.66817,146.972a.83353.83353,0,1,1,.834.82617A.83106.83106,0,0,1,192.66817,146.972Z"/><path class="cls-10" d="M202.20332,143.99544h1.8418a2.33963,2.33963,0,1,1,0,4.6709h-1.8418Zm1.8418,3.7959a1.39867,1.39867,0,0,0,1.46387-1.457,1.36708,1.36708,0,0,0-1.46387-1.46387h-.84766v2.9209Z"/><path class="cls-10" d="M207.06172,146.972a1.78959,1.78959,0,1,1,1.78613,1.77832A1.7138,1.7138,0,0,1,207.06172,146.972Zm2.6543,0a.87235.87235,0,1,0-.86817.9873A.89231.89231,0,0,0,209.716,146.972Z"/><path class="cls-10" d="M215.5461,146.5306c0-.31543-.14063-.53906-.50489-.53906a.89785.89785,0,0,0-.70019.3916v2.2832h-.89649V146.5306c0-.31543-.13964-.53906-.5039-.53906a.911.911,0,0,0-.70117.39843v2.27637h-.88868v-3.38281h.88868v.4414a1.48219,1.48219,0,0,1,1.10742-.52539.89633.89633,0,0,1,.93847.61622,1.43428,1.43428,0,0,1,1.16211-.61622.90349.90349,0,0,1,.99512,1.02247v2.44433h-.89648Z"/><path class="cls-10" d="M219.39864,148.31673a1.403,1.403,0,0,1-1.07129.4336,1.12658,1.12658,0,0,1-1.17676-1.12012,1.07108,1.07108,0,0,1,1.17676-1.0791,1.36955,1.36955,0,0,1,1.07129.41308v-.46875c0-.34277-.29395-.56738-.74219-.56738a1.4248,1.4248,0,0,0-.98828.39941l-.33594-.5957a2.21787,2.21787,0,0,1,1.47754-.53223c.77051,0,1.47851.3086,1.47851,1.28223v2.18457h-.88964Zm0-.88281a.89052.89052,0,0,0-.71485-.29395c-.34961,0-.63672.18848-.63672.51075,0,.31543.28711.498.63672.498a.89114.89114,0,0,0,.71485-.29492Z"/><path class="cls-10" d="M221.09688,144.25423a.53223.53223,0,1,1,.53222.53223A.53665.53665,0,0,1,221.09688,144.25423Zm.09082,1.0293h.88965v3.38281h-.88965Z"/><path class="cls-10" d="M225.27461,146.62142a.54863.54863,0,0,0-.623-.62988.963.963,0,0,0-.77051.39843v2.27637h-.88965v-3.38281h.88965v.4414a1.54886,1.54886,0,0,1,1.18359-.52539.98408.98408,0,0,1,1.09961,1.07911v2.38769h-.88965Z"/><path class="cls-10" d="M230.97969,146.62142a.54894.54894,0,0,0-.624-.62988.96446.96446,0,0,0-.77051.39843v2.27637h-.88867v-3.38281h.88867v.4414a1.5522,1.5522,0,0,1,1.18359-.52539.98364.98364,0,0,1,1.09961,1.07911v2.38769h-.88867Z"/><path class="cls-10" d="M234.81953,148.31673a1.40293,1.40293,0,0,1-1.07128.4336,1.12658,1.12658,0,0,1-1.17676-1.12012,1.07108,1.07108,0,0,1,1.17676-1.0791,1.36951,1.36951,0,0,1,1.07128.41308v-.46875c0-.34277-.29394-.56738-.74218-.56738a1.4248,1.4248,0,0,0-.98828.39941l-.33594-.5957a2.21786,2.21786,0,0,1,1.47754-.53223c.77051,0,1.47851.3086,1.47851,1.28223v2.18457h-.88965Zm0-.88281a.8905.8905,0,0,0-.71484-.29395c-.34961,0-.63672.18848-.63672.51075,0,.31543.28711.498.63672.498a.89111.89111,0,0,0,.71484-.29492Z"/><path class="cls-10" d="M240.81172,146.5306c0-.31543-.13965-.53906-.5039-.53906a.90145.90145,0,0,0-.70118.3916v2.2832h-.89648V146.5306c0-.31543-.13965-.53906-.50391-.53906a.90907.90907,0,0,0-.70019.39843v2.27637h-.88965v-3.38281h.88965v.4414a1.478,1.478,0,0,1,1.10644-.52539.89559.89559,0,0,1,.93848.61622,1.43766,1.43766,0,0,1,1.16309-.61622.90281.90281,0,0,1,.99414,1.02247v2.44433h-.89649Z"/><path class="cls-10" d="M244.16328,145.19954a1.69662,1.69662,0,0,1,1.69434,1.86329v.19628H243.344a.91062.91062,0,0,0,.97265.78418,1.3869,1.3869,0,0,0,.9043-.33593l.3916.57422a2.08171,2.08171,0,0,1-1.39355.46875,1.77562,1.77562,0,1,1-.05567-3.55079Zm-.834,1.457h1.667a.78278.78278,0,0,0-.833-.749A.813.813,0,0,0,243.3293,146.65658Z"/><path class="cls-10" d="M273.1584,113.972a.833.833,0,1,1,.833.82617A.83064.83064,0,0,1,273.1584,113.972Z"/><path class="cls-10" d="M282.69356,110.99544h.99414v4.67188h-.99414Z"/><path class="cls-10" d="M284.71016,110.99544h2.18457a1.5006,1.5006,0,1,1,0,2.998h-1.18945v1.67383h-.99512Zm2.05176.85449h-1.05664V113.139h1.05664a.64582.64582,0,1,0,0-1.28907Z"/><path class="cls-10" d="M291.03926,115.891a1.34067,1.34067,0,0,0,1.05664.4209.82692.82692,0,0,0,.93164-.85449v-.34375a1.31769,1.31769,0,0,1-1.043.53222c-.84765,0-1.49218-.59472-1.49218-1.72265a1.513,1.513,0,0,1,1.49218-1.72266,1.30254,1.30254,0,0,1,1.043.51758v-.43359h.89649v3.15136c0,1.28906-.99414,1.60352-1.82813,1.60352a2.04085,2.04085,0,0,1-1.457-.50391Zm1.98828-2.51367a.962.962,0,0,0-.76367-.38574.93522.93522,0,0,0,0,1.86328.982.982,0,0,0,.76367-.38574Z"/><path class="cls-10" d="M296.38789,112.20052a1.69526,1.69526,0,0,1,1.69434,1.86231v.19628h-2.51367a.90989.90989,0,0,0,.97265.78418,1.383,1.383,0,0,0,.9043-.33593l.39258.57422a2.08673,2.08673,0,0,1-1.39453.46972,1.77561,1.77561,0,1,1-.05567-3.55078Zm-.833,1.45606h1.666a.78273.78273,0,0,0-.833-.749A.81136.81136,0,0,0,295.55489,113.65658Z"/><path class="cls-10" d="M298.5793,113.972a1.78958,1.78958,0,1,1,1.78613,1.77929A1.71357,1.71357,0,0,1,298.5793,113.972Zm2.6543,0a.87236.87236,0,1,0-.86817.9873A.89289.89289,0,0,0,301.2336,113.972Z"/><path class="cls-10" d="M303.22285,115.891a1.34484,1.34484,0,0,0,1.0586.4209.8266.8266,0,0,0,.93066-.85449v-.34375a1.31811,1.31811,0,0,1-1.04394.53222c-.84668,0-1.49121-.59472-1.49121-1.72265a1.51335,1.51335,0,0,1,1.49121-1.72266,1.303,1.303,0,0,1,1.04394.51758v-.43359h.89649v3.15136c0,1.28906-.99414,1.60352-1.82715,1.60352a2.0378,2.0378,0,0,1-1.457-.50391Zm1.98926-2.51367a.96442.96442,0,0,0-.76269-.38574.935.935,0,0,0,0,1.86328.98463.98463,0,0,0,.76269-.38574Z"/><path class="cls-10" d="M307.02168,112.28451h.88867v.46191a1.44805,1.44805,0,0,1,1.07813-.53906v.86816a1.198,1.198,0,0,0-.24414-.02051,1.12892,1.12892,0,0,0-.834.37793v2.23438h-.88867Z"/><path class="cls-10" d="M311.59883,115.31673a1.39859,1.39859,0,0,1-1.07129.43457,1.12733,1.12733,0,0,1-1.17676-1.12109,1.07134,1.07134,0,0,1,1.17676-1.07813,1.3648,1.3648,0,0,1,1.07129.41309v-.46973c0-.34277-.29394-.5664-.74219-.5664a1.42412,1.42412,0,0,0-.9873.39843l-.33594-.59472a2.21537,2.21537,0,0,1,1.47656-.53223c.77149,0,1.47852.30762,1.47852,1.28125v2.18555h-.88965Zm0-.88183a.88907.88907,0,0,0-.71387-.29493c-.35058,0-.63769.18946-.63769.51172,0,.31543.28711.49707.63769.49707a.88844.88844,0,0,0,.71387-.29394Z"/><path class="cls-10" d="M313.39473,116.9554v-4.67089h.88965v.42675a1.30558,1.30558,0,0,1,1.04394-.51074c.86817,0,1.498.64356,1.498,1.77149s-.62988,1.77929-1.498,1.77929a1.29253,1.29253,0,0,1-1.04394-.51855v1.72265Zm1.65332-3.96386a.99593.99593,0,0,0-.76367.38574v1.19726a1.01994,1.01994,0,0,0,.76367.38477.99368.99368,0,0,0,0-1.96777Z"/><path class="cls-10" d="M319.84981,113.60775c0-.46875-.2461-.61621-.63086-.61621a.98516.98516,0,0,0-.77051.39941v2.27637h-.88965v-4.67188h.88965v1.73047a1.56486,1.56486,0,0,1,1.19043-.52539.97411.97411,0,0,1,1.09961,1.06445v2.40235h-.88867Z"/><path class="cls-10" d="M321.89473,116.24837a.44972.44972,0,0,0,.46973-.24511l.126-.28711-1.373-3.43164h.95312l.88281,2.35253.88184-2.35253h.96l-1.58984,3.93554a1.22891,1.22891,0,0,1-1.28223.81934,2.39385,2.39385,0,0,1-.44043-.04883l.13281-.79785A.75776.75776,0,0,0,321.89473,116.24837Z"/><path class="cls-10" d="M273.1584,124.972a.833.833,0,1,1,.833.82617A.83064.83064,0,0,1,273.1584,124.972Z"/><path class="cls-10" d="M282.69356,121.99544h2.18457a1.5006,1.5006,0,1,1,0,2.998H283.6877v1.67383h-.99414Zm2.05078.85449H283.6877V124.139h1.05664a.64588.64588,0,1,0,0-1.28907Z"/><path class="cls-10" d="M287.04024,123.28451h.88965v.46191a1.448,1.448,0,0,1,1.07812-.53906v.86816a1.20182,1.20182,0,0,0-.24512-.02051,1.1267,1.1267,0,0,0-.833.37793v2.23438h-.88965Z"/><path class="cls-10" d="M289.37227,124.972a1.78958,1.78958,0,1,1,1.78613,1.77929A1.71357,1.71357,0,0,1,289.37227,124.972Zm2.6543,0a.87236.87236,0,1,0-.86817.9873A.89289.89289,0,0,0,292.02657,124.972Z"/><path class="cls-10" d="M293.844,125.8265v-1.76465h-.56055v-.77734h.56055v-.92481h.89648v.92481h.68653v.77734h-.68653v1.52637c0,.21.11231.37109.3086.37109a.49089.49089,0,0,0,.30859-.09766l.18848.67188a1.09947,1.09947,0,0,1-.74317.21777A.84531.84531,0,0,1,293.844,125.8265Z"/><path class="cls-10" d="M295.85664,124.972a1.78958,1.78958,0,1,1,1.78614,1.77929A1.71358,1.71358,0,0,1,295.85664,124.972Zm2.6543,0a.87235.87235,0,1,0-.86816.9873A.89289.89289,0,0,0,298.51094,124.972Z"/><path class="cls-10" d="M301.73262,123.20052a1.55944,1.55944,0,0,1,1.33789.61621l-.582.53906a.83454.83454,0,0,0-.71387-.36425.98632.98632,0,0,0,0,1.96777.85114.85114,0,0,0,.71387-.36426l.582.54a1.56189,1.56189,0,0,1-1.33789.61621,1.77548,1.77548,0,1,1,0-3.55078Z"/><path class="cls-10" d="M303.39864,124.972a1.78958,1.78958,0,1,1,1.78613,1.77929A1.713,1.713,0,0,1,303.39864,124.972Zm2.65429,0a.87278.87278,0,1,0-.86816.9873A.89231.89231,0,0,0,306.05293,124.972Z"/><path class="cls-10" d="M307.68379,121.99544h.88867v4.67188h-.88867Z"/><path class="cls-10" d="M273.1584,135.972a.833.833,0,1,1,.833.82617A.83064.83064,0,0,1,273.1584,135.972Z"/><path class="cls-10" d="M282.69356,132.99544h1.00781v2.77344a1.07882,1.07882,0,1,0,2.15723,0v-2.77344h1.00879v2.80176a2.09167,2.09167,0,0,1-4.17383.00684Z"/><path class="cls-10" d="M289.60957,135.99349h-.72851v1.67383h-.99414v-4.67188h2.18554a1.4545,1.4545,0,0,1,1.56836,1.50586,1.34041,1.34041,0,0,1-1.02148,1.38672l1.0498,1.7793h-1.1416Zm.31641-2.14356h-1.04492V135.139H289.926a.64667.64667,0,1,0,0-1.28907Z"/><path class="cls-10" d="M292.47481,132.99544h.99414v3.7959h1.97461v.876h-2.96875Z"/><path class="cls-10" d="M299.343,134.20052a1.5581,1.5581,0,0,1,1.33789.61621l-.58105.53906a.8375.8375,0,0,0-.71485-.36425.98625.98625,0,0,0,0,1.96777.8542.8542,0,0,0,.71485-.36426l.58105.54a1.56054,1.56054,0,0,1-1.33789.61621,1.77548,1.77548,0,1,1,0-3.55078Z"/><path class="cls-10" d="M303.35957,137.31673a1.40079,1.40079,0,0,1-1.07226.43457,1.12652,1.12652,0,0,1-1.17578-1.12109,1.07056,1.07056,0,0,1,1.17578-1.07813,1.367,1.367,0,0,1,1.07226.41309v-.46973c0-.34277-.29492-.5664-.74218-.5664a1.4247,1.4247,0,0,0-.98829.39843l-.33593-.59472a2.21786,2.21786,0,0,1,1.47754-.53223c.7705,0,1.47754.30762,1.47754,1.28125v2.18555h-.88868Zm0-.88183a.89112.89112,0,0,0-.71484-.29493c-.34961,0-.63672.18946-.63672.51172,0,.31543.28711.49707.63672.49707a.89049.89049,0,0,0,.71484-.29394Z"/><path class="cls-10" d="M305.33028,136.8265v-1.76465h-.56055v-.77734h.56055v-.92481h.89648v.92481h.68652v.77734h-.68652v1.52637c0,.21.11231.37109.30859.37109a.49092.49092,0,0,0,.3086-.09766l.18848.67188a1.09947,1.09947,0,0,1-.74317.21777A.8453.8453,0,0,1,305.33028,136.8265Z"/><path class="cls-10" d="M309.094,134.20052a1.69651,1.69651,0,0,1,1.69531,1.86231v.19628h-2.51465a.91091.91091,0,0,0,.97364.78418,1.38627,1.38627,0,0,0,.90332-.33593l.3916.57422a2.08152,2.08152,0,0,1-1.39258.46972,1.77562,1.77562,0,1,1-.05664-3.55078Zm-.834,1.45606h1.668a.785.785,0,0,0-.834-.749A.81446.81446,0,0,0,308.26,135.65658Z"/><path class="cls-10" d="M311.83223,137.891a1.34067,1.34067,0,0,0,1.05664.4209.82693.82693,0,0,0,.93164-.85449v-.34375a1.31769,1.31769,0,0,1-1.043.53222c-.84765,0-1.49219-.59472-1.49219-1.72265a1.513,1.513,0,0,1,1.49219-1.72266,1.30254,1.30254,0,0,1,1.043.51758v-.43359h.89649v3.15136c0,1.28906-.99415,1.60352-1.82813,1.60352a2.04085,2.04085,0,0,1-1.457-.50391Zm1.98828-2.51367a.962.962,0,0,0-.76367-.38574.93522.93522,0,0,0,0,1.86328.982.982,0,0,0,.76367-.38574Z"/><path class="cls-10" d="M315.42989,135.972a1.78958,1.78958,0,1,1,1.78613,1.77929A1.713,1.713,0,0,1,315.42989,135.972Zm2.65429,0a.87278.87278,0,1,0-.86816.9873A.89231.89231,0,0,0,318.08418,135.972Z"/><path class="cls-10" d="M319.715,134.28451h.88867v.46191a1.45008,1.45008,0,0,1,1.07911-.53906v.86816a1.21524,1.21524,0,0,0-.24512-.02051,1.13223,1.13223,0,0,0-.834.37793v2.23438H319.715Z"/><path class="cls-10" d="M322.76387,138.24837a.44972.44972,0,0,0,.46973-.24511l.126-.28711-1.373-3.43164h.95312l.88281,2.35253.88184-2.35253h.96L324.07442,138.22a1.22891,1.22891,0,0,1-1.28223.81934,2.39385,2.39385,0,0,1-.44043-.04883l.13281-.79785A.7578.7578,0,0,0,322.76387,138.24837Z"/><path class="cls-10" d="M273.1584,146.972a.833.833,0,1,1,.833.82617A.83064.83064,0,0,1,273.1584,146.972Z"/><path class="cls-10" d="M282.69356,143.99544h.99414v4.67188h-.99414Z"/><path class="cls-10" d="M284.71016,143.99544h2.18457a1.5006,1.5006,0,1,1,0,2.99805h-1.18945v1.67383h-.99512Zm2.05176.85449h-1.05664V146.139h1.05664a.64582.64582,0,1,0,0-1.28907Z"/><path class="cls-10" d="M289.1086,143.99544h.99511v4.67188h-.99511Z"/><path class="cls-10" d="M294.23262,145.20052a1.5581,1.5581,0,0,1,1.33789.61621l-.58105.53906a.83576.83576,0,0,0-.71387-.36425.98625.98625,0,0,0,0,1.96777.85243.85243,0,0,0,.71387-.36426l.58105.54a1.56054,1.56054,0,0,1-1.33789.61621,1.77548,1.77548,0,1,1,0-3.55078Z"/><path class="cls-10" d="M298.24922,148.31673a1.39859,1.39859,0,0,1-1.07129.43457,1.12732,1.12732,0,0,1-1.17675-1.12109,1.07134,1.07134,0,0,1,1.17675-1.07813,1.36479,1.36479,0,0,1,1.07129.41309v-.46973c0-.34277-.29394-.5664-.74219-.5664a1.42412,1.42412,0,0,0-.9873.39843l-.33594-.59472a2.21537,2.21537,0,0,1,1.47656-.53223c.77149,0,1.47852.30762,1.47852,1.28125v2.18555h-.88965Zm0-.88183a.88907.88907,0,0,0-.71387-.29493c-.35058,0-.63769.18946-.63769.51172,0,.31543.28711.49707.63769.49707a.88844.88844,0,0,0,.71387-.29394Z"/><path class="cls-10" d="M300.2209,147.8265v-1.76465h-.56055v-.77734h.56055v-.92481h.89649v.92481h.68652v.77734h-.68652v1.52637c0,.21.1123.37109.30859.37109a.49089.49089,0,0,0,.30859-.09766l.18848.67188a1.09944,1.09944,0,0,1-.74316.21777A.84531.84531,0,0,1,300.2209,147.8265Z"/><path class="cls-10" d="M303.98457,145.20052a1.69651,1.69651,0,0,1,1.69532,1.86231v.19628h-2.51465a.91089.91089,0,0,0,.97363.78418,1.38625,1.38625,0,0,0,.90332-.33593l.3916.57422a2.08148,2.08148,0,0,1-1.39258.46972,1.77562,1.77562,0,1,1-.05664-3.55078Zm-.834,1.45606h1.668a.785.785,0,0,0-.834-.749A.81445.81445,0,0,0,303.15059,146.65658Z"/><path class="cls-10" d="M306.72285,148.891a1.34071,1.34071,0,0,0,1.05665.4209.82693.82693,0,0,0,.93164-.85449v-.34375a1.31771,1.31771,0,0,1-1.043.53222c-.84766,0-1.49219-.59472-1.49219-1.72265a1.513,1.513,0,0,1,1.49219-1.72266,1.30254,1.30254,0,0,1,1.043.51758v-.43359h.89648v3.15136c0,1.28906-.99414,1.60352-1.82812,1.60352a2.04086,2.04086,0,0,1-1.457-.50391Zm1.98829-2.51367a.962.962,0,0,0-.76368-.38574.93522.93522,0,0,0,0,1.86328.982.982,0,0,0,.76368-.38574Z"/><path class="cls-10" d="M310.32051,146.972a1.78958,1.78958,0,1,1,1.78613,1.77929A1.713,1.713,0,0,1,310.32051,146.972Zm2.6543,0a.87278.87278,0,1,0-.86817.9873A.89231.89231,0,0,0,312.97481,146.972Z"/><path class="cls-10" d="M314.60567,145.28451h.88867v.46191a1.45006,1.45006,0,0,1,1.0791-.53906v.86816a1.21518,1.21518,0,0,0-.24512-.02051,1.13222,1.13222,0,0,0-.834.37793v2.23438h-.88867Z"/><path class="cls-10" d="M317.6545,149.24837a.44911.44911,0,0,0,.46875-.24511l.127-.28711-1.37305-3.43164h.95313l.88183,2.35253.88184-2.35253h.96L318.96407,149.22a1.22821,1.22821,0,0,1-1.28223.81934,2.403,2.403,0,0,1-.44043-.04883l.13281-.79785A.76681.76681,0,0,0,317.6545,149.24837Z"/><path class="cls-11" d="M183.13133,153.01613h-1.1094c-1.6992,0-2.5137-.8379-2.5137-2.8574v-29.2988c0-2.4863-.3437-3.1748-1.4746-3.1748v-1.1328c1.1309,0,1.4746-.6924,1.4746-3.1768V98.88823c0-2.0215.8145-2.8574,2.5137-2.8574h1.1094v1.1308h-.7403c-1.0332,0-1.5507.4688-1.5507,1.75v15.251c0,1.8955-.6192,2.6592-1.5762,2.9317v.0488c.957.2695,1.5762,1.0342,1.5762,2.9287v30.0644c0,1.2784.5175,1.7461,1.5507,1.7461h.7403Z"/><path class="cls-7" d="M345.08516,112.10091a3.10315,3.10315,0,0,0,2.31055,1.0459c1.30957,0,1.72754-.7041,1.72754-1.26563,0-.87988-.89161-1.12207-1.85938-1.38574-1.17773-.30859-2.48633-.63867-2.48633-2.08008,0-1.21,1.07813-2.03515,2.51953-2.03515a3.45252,3.45252,0,0,1,2.60743,1.02344l-.55079.67089a2.806,2.806,0,0,0-2.123-.87988c-.88086,0-1.50782.47266-1.50782,1.166,0,.7373.84766.957,1.78321,1.21,1.19922.31933,2.5625.69336,2.5625,2.2334,0,1.06738-.72559,2.15625-2.70606,2.15625a3.634,3.634,0,0,1-2.8164-1.166Z"/><path class="cls-7" d="M353.59981,108.38314a2.581,2.581,0,0,1,2.55273,2.84863v.209h-4.30273a1.87282,1.87282,0,0,0,1.91406,1.83789,2.32814,2.32814,0,0,0,1.64063-.6709l.3955.53906a2.88943,2.88943,0,0,1-2.1123.81348,2.79189,2.79189,0,0,1-.08789-5.57715Zm-1.75,2.45312h3.48828a1.72329,1.72329,0,0,0-1.75-1.77148A1.7737,1.7737,0,0,0,351.84981,110.83626Z"/><path class="cls-7" d="M357.37129,108.515h.82617v.85743a2.25711,2.25711,0,0,1,1.77051-.96778v.84668a1.48745,1.48745,0,0,0-.33008-.03222,1.94186,1.94186,0,0,0-1.44043.84668v3.76269h-.82617Z"/><path class="cls-7" d="M360.09981,108.515h.89062l1.77149,4.35645,1.75976-4.35645h.90235l-2.21094,5.31348h-.90234Z"/><path class="cls-7" d="M366.02852,107.06283a.55569.55569,0,0,1,1.11133,0,.55569.55569,0,1,1-1.11133,0Zm.14355,1.45214h.82422v5.31348h-.82422Z"/><path class="cls-7" d="M370.88008,108.38314a2.27432,2.27432,0,0,1,1.94727.92383l-.54981.50586a1.57545,1.57545,0,0,0-1.35351-.69336,2.0642,2.0642,0,0,0,0,4.10351,1.60285,1.60285,0,0,0,1.35351-.69238l.54981.50586a2.27432,2.27432,0,0,1-1.94727.92383,2.79212,2.79212,0,0,1,0-5.57715Z"/><path class="cls-7" d="M376.18184,108.38314a2.581,2.581,0,0,1,2.55273,2.84863v.209h-4.30273a1.87283,1.87283,0,0,0,1.91406,1.83789,2.32814,2.32814,0,0,0,1.64063-.6709l.3955.53906a2.88943,2.88943,0,0,1-2.1123.81348,2.79189,2.79189,0,0,1-.08789-5.57715Zm-1.75,2.45312h3.48828a1.72329,1.72329,0,0,0-1.75-1.77148A1.7737,1.7737,0,0,0,374.43184,110.83626Z"/><path class="cls-7" d="M348.54512,121.16536a3.66225,3.66225,0,0,1,3.74023-3.79589,3.29906,3.29906,0,0,1,2.81641,1.45214l-.76953.42872a2.492,2.492,0,0,0-2.04688-1.06641,2.98767,2.98767,0,0,0,0,5.96289,2.46552,2.46552,0,0,0,2.04688-1.06738l.78027.42871a3.337,3.337,0,0,1-2.82715,1.45215A3.662,3.662,0,0,1,348.54512,121.16536Z"/><path class="cls-7" d="M359.73262,121.3304c0-.93554-.48437-1.21093-1.19922-1.21093a2.08925,2.08925,0,0,0-1.57324.82519v3.88379h-.8252v-7.33789h.8252v2.79395a2.64309,2.64309,0,0,1,1.90332-.90137,1.49357,1.49357,0,0,1,1.69336,1.69336v3.752h-.82422Z"/><path class="cls-7" d="M365.41817,124.223a2.296,2.296,0,0,1-1.75977.73731,1.769,1.769,0,0,1-1.85937-1.75977,1.74067,1.74067,0,0,1,1.85937-1.75,2.21842,2.21842,0,0,1,1.75977.72656v-.957c0-.71484-.57129-1.12207-1.3418-1.12207a2.10914,2.10914,0,0,0-1.62793.73731l-.38574-.57227a2.78092,2.78092,0,0,1,2.124-.87988c1.12207,0,2.05762.50586,2.05762,1.793v3.65234h-.82617Zm0-1.51758a1.77578,1.77578,0,0,0-1.46289-.66015,1.169,1.169,0,1,0,0,2.32129,1.77579,1.77579,0,0,0,1.46289-.66016Z"/><path class="cls-7" d="M367.64082,118.06283a.55569.55569,0,0,1,1.11133,0,.55569.55569,0,1,1-1.11133,0Zm.14258,1.45214h.8252v5.31348h-.8252Z"/><path class="cls-7" d="M373.73457,121.35189c0-.93555-.47265-1.23242-1.1875-1.23242a2.05148,2.05148,0,0,0-1.57324.82519v3.88379h-.82519V119.515h.82519v.76954a2.638,2.638,0,0,1,1.8916-.90137,1.51056,1.51056,0,0,1,1.69532,1.71582v3.72949h-.82618Z"/><polyline class="cls-12" points="377.055 69.152 395.576 50.631 518.66 50.631 531.939 63.91"/><polygon class="cls-5" points="526.704 64.459 526.74 63.459 531.667 63.639 531.487 58.711 532.487 58.676 532.705 64.677 526.704 64.459"/><path d="M414.33614,35.57161h2.26855a1.14791,1.14791,0,0,1,1.26758,1.12061,1.23446,1.23446,0,0,1-1.06445,1.21875.9479.9479,0,0,1,.67285.94531,1.4257,1.4257,0,0,1-1.625,1.38672h-2.54981Zm1.63183,2.72413h-1.24023l-.23828,1.09961h1.28222a.64578.64578,0,0,0,.71387-.623A.47122.47122,0,0,0,415.968,38.29574Zm.35645-1.877h-1.17578l-.23145,1.02979h1.25391a.567.567,0,0,0,.63672-.58838A.45482.45482,0,0,0,416.32442,36.41878Z"/><path d="M421.21407,36.86019h.89648l-.75,3.38281h-.89648l.09863-.42041a1.27535,1.27535,0,0,1-1.01563.5044,1.24715,1.24715,0,0,1-1.28906-1.40088,1.97773,1.97773,0,0,1,1.78613-2.14991,1.27854,1.27854,0,0,1,1.07911.53223Zm-1.27539,2.67529a1.008,1.008,0,0,0,.77832-.39892l.25878-1.17676a.93614.93614,0,0,0-.792-.39209,1.09163,1.09163,0,0,0-.99414,1.17627A.73611.73611,0,0,0,419.93868,39.53548Z"/><path d="M425.16328,38.22591a1.17964,1.17964,0,0,0,.03516-.22412c0-.31494-.252-.43408-.51855-.43408a1.2599,1.2599,0,0,0-.8545.39209l-.5039,2.2832h-.88965l.749-3.38281h.88965l-.09766.44141a1.60579,1.60579,0,0,1,1.127-.5254c.65137,0,1.05762.34327,1.05762.86817a1.98992,1.98992,0,0,1-.03516.27344l-.51758,2.32519H424.715Z"/><path d="M428.26289,38.91927l-.52539.45508-.18945.86865h-.88965l1.03028-4.67139h.88867L427.968,38.3099l1.56934-1.44971h1.13476l-1.68066,1.53369.97266,1.84912h-1.07813Z"/><path d="M433.03926,35.43148h.67285l-2.75976,4.95166h-.665Z"/><path d="M436.8752,38.28206h-2.207l-.4336,1.96094h-.99511l1.03027-4.67139h.99414l-.39941,1.835h2.19922l.40625-1.835h1.002L437.4416,40.243h-1.001Z"/><path d="M440.6125,36.7762a1.43867,1.43867,0,0,1,1.51953,1.5127,2.25555,2.25555,0,0,1-.06933.54639h-2.51465v.084a.83058.83058,0,0,0,.9248.7002,1.51814,1.51814,0,0,0,.8545-.252l.27929.60938a2.20038,2.20038,0,0,1-1.19726.3501c-1.06445,0-1.751-.57422-1.751-1.51954A1.9765,1.9765,0,0,1,440.6125,36.7762Zm.72168,1.38672a.69114.69114,0,0,0-.77734-.6792.96615.96615,0,0,0-.918.749h1.69531Z"/><path d="M445.67012,36.86019h.89648l-.749,3.38281h-.89648l.09765-.42041a1.27533,1.27533,0,0,1-1.01562.5044,1.24646,1.24646,0,0,1-1.28809-1.40088,1.97706,1.97706,0,0,1,1.78614-2.14991,1.27547,1.27547,0,0,1,1.07812.53223Zm-1.27441,2.67529a1.0045,1.0045,0,0,0,.77734-.39892l.25879-1.17676a.933.933,0,0,0-.791-.39209,1.09163,1.09163,0,0,0-.99414,1.17627A.73558.73558,0,0,0,444.39571,39.53548Z"/><path d="M447.91817,35.57161h.88867l-1.0293,4.67139h-.88965Z"/><path d="M449.218,39.36068l.37793-1.73h-.56055l.17481-.77051h.56055l.20312-.92432h.89649l-.20313.92432h.68652l-.18164.77051h-.68652l-.32227,1.4707a.97532.97532,0,0,0-.01464.14014c0,.18213.10546.29394.33007.29394a.46244.46244,0,0,0,.24512-.06982l.03418.71435a1.03684,1.03684,0,0,1-.55957.147c-.60254,0-1.00879-.231-1.00879-.73536A1.04683,1.04683,0,0,1,449.218,39.36068Z"/><path d="M454.18477,38.21175a1.22387,1.22387,0,0,0,.03516-.21c0-.31494-.252-.43408-.55372-.43408a1.22511,1.22511,0,0,0-.81933.39892L452.343,40.243h-.88965l1.0293-4.67139h.88965l-.37793,1.73a1.60574,1.60574,0,0,1,1.12695-.5254c.65137,0,1.05762.34327,1.05762.86817a1.8565,1.8565,0,0,1-.03516.27344L454.633,40.243h-.88965Z"/><path d="M457.77559,36.7762a1.50124,1.50124,0,0,1,1.373.665l-.666.51172a.79988.79988,0,0,0-.707-.38525,1.096,1.096,0,0,0-1.06445,1.17627.77568.77568,0,0,0,.84765.7915.9382.9382,0,0,0,.707-.33594l.4834.59522a1.75119,1.75119,0,0,1-1.28222.53223,1.50814,1.50814,0,0,1-1.65918-1.541A1.97023,1.97023,0,0,1,457.77559,36.7762Z"/><path d="M462.40352,36.86019H463.3l-.75,3.38281h-.89648l.09863-.42041a1.27533,1.27533,0,0,1-1.01562.5044,1.24715,1.24715,0,0,1-1.28907-1.40088,1.97773,1.97773,0,0,1,1.78614-2.14991,1.27853,1.27853,0,0,1,1.0791.53223Zm-1.27539,2.67529a1.008,1.008,0,0,0,.77832-.39892l.25879-1.17676a.93614.93614,0,0,0-.792-.39209,1.09163,1.09163,0,0,0-.99415,1.17627A.73611.73611,0,0,0,461.12813,39.53548Z"/><path d="M464.37032,36.86019H465.26l-.10546.44824a1.538,1.538,0,0,1,1.19726-.52539l-.18848.88281a1.386,1.386,0,0,0-.3291-.04248,1.19356,1.19356,0,0,0-.84082.40625L464.51,40.243h-.88964Z"/><path d="M468.425,36.7762a1.43867,1.43867,0,0,1,1.51953,1.5127,2.20212,2.20212,0,0,1-.07031.54639h-2.51465v.084a.83127.83127,0,0,0,.92481.7002,1.51581,1.51581,0,0,0,.85449-.252l.28027.60938a2.20038,2.20038,0,0,1-1.19726.3501c-1.06543,0-1.751-.57422-1.751-1.51954A1.9765,1.9765,0,0,1,468.425,36.7762Zm.72071,1.38672a.69115.69115,0,0,0-.77735-.6792.965.965,0,0,0-.917.749h1.69434Z"/><path d="M472.51875,39.36068l.37793-1.73h-.55957l.17481-.77051h.56054l.20313-.92432h.89648l-.20312.92432h.68652l-.18262.77051h-.68652l-.32226,1.4707a.97192.97192,0,0,0-.01368.14014c0,.18213.10547.29394.32911.29394a.4624.4624,0,0,0,.24511-.06982l.03516.71435a1.04041,1.04041,0,0,1-.56055.147c-.60254,0-1.00879-.231-1.00879-.73536A1.10991,1.10991,0,0,1,472.51875,39.36068Z"/><path d="M475.5041,36.86019h.88965l-.10547.44824a1.54162,1.54162,0,0,1,1.19825-.52539l-.18946.88281a1.37025,1.37025,0,0,0-.3291-.04248,1.19356,1.19356,0,0,0-.84082.40625l-.48242,2.21338h-.88965Z"/><path d="M480.552,36.86019h.89648l-.749,3.38281h-.89649l.09766-.42041a1.27535,1.27535,0,0,1-1.01563.5044,1.24646,1.24646,0,0,1-1.28808-1.40088A1.977,1.977,0,0,1,479.383,36.7762a1.2755,1.2755,0,0,1,1.07813.53223Zm-1.27442,2.67529a1.00452,1.00452,0,0,0,.77735-.39892l.25879-1.17676a.933.933,0,0,0-.791-.39209,1.09162,1.09162,0,0,0-.99414,1.17627A.73558.73558,0,0,0,479.27754,39.53548Z"/><path d="M482.53926,37.63753h-.55957l.168-.77734h.56055l.042-.18213a1.294,1.294,0,0,1,1.26758-1.17676,1.36533,1.36533,0,0,1,.74218.18946l-.30859.60205a.545.545,0,0,0-.32227-.09082c-.27246,0-.41992.168-.49023.47607l-.042.18213h.69336l-.17481.77734h-.68652l-.57422,2.60547h-.89648Zm2.291,0h-.56055l.168-.77734h.56055l.042-.18213a1.29473,1.29473,0,0,1,1.26758-1.17676,1.36535,1.36535,0,0,1,.74218.18946l-.30761.60205a.54707.54707,0,0,0-.32227-.09082c-.27344,0-.4209.168-.49023.47607l-.042.18213h.69336l-.17578.77734H485.719l-.57422,2.60547h-.89648Zm2.26172-.77734h.88964l-.749,3.38281H486.343Zm.72168-1.562a.459.459,0,0,1,.47558.45556.60049.60049,0,0,1-.59473.60938.45544.45544,0,0,1-.47656-.45557A.60587.60587,0,0,1,487.81368,35.29818Z"/><path d="M490.38985,36.7762a1.50121,1.50121,0,0,1,1.373.665l-.666.51172a.79989.79989,0,0,0-.707-.38525,1.096,1.096,0,0,0-1.06446,1.17627.77569.77569,0,0,0,.84766.7915.9382.9382,0,0,0,.707-.33594l.4834.59522a1.75119,1.75119,0,0,1-1.28223.53223,1.50814,1.50814,0,0,1-1.65918-1.541A1.97023,1.97023,0,0,1,490.38985,36.7762Z"/><path d="M409.2502,48.53158h-.88965l1.03711-4.67139h.88965l-.09863.42041a1.2881,1.2881,0,0,1,1.02246-.5044,1.249,1.249,0,0,1,1.28222,1.40088,1.98639,1.98639,0,0,1-1.77929,2.14991,1.25935,1.25935,0,0,1-1.07813-.53223Zm1.56152-3.96387a1.02425,1.02425,0,0,0-.77734.40625l-.25879,1.17627a.93107.93107,0,0,0,.791.38525,1.0871,1.0871,0,0,0,.99512-1.17627A.73631.73631,0,0,0,410.81172,44.56771Z"/><path d="M416.03145,43.86019h.89648l-.749,3.38281h-.89648l.09765-.42041a1.27533,1.27533,0,0,1-1.01562.5044,1.24646,1.24646,0,0,1-1.28809-1.40088,1.977,1.977,0,0,1,1.78613-2.14991,1.27548,1.27548,0,0,1,1.07813.53223ZM414.757,46.53548a1.00452,1.00452,0,0,0,.77735-.39892l.25879-1.17676a.933.933,0,0,0-.791-.39209A1.09163,1.09163,0,0,0,414.008,45.744.73558.73558,0,0,0,414.757,46.53548Z"/><path d="M417.61055,46.12923a1.73486,1.73486,0,0,0,1.19043.51856c.30078,0,.49023-.16114.49023-.35743,0-.20312-.28711-.3081-.623-.41992-.4834-.16113-1.09278-.37842-1.09278-.95263A1.23208,1.23208,0,0,1,418.969,43.7762a1.99182,1.99182,0,0,1,1.42871.55323l-.44141.56006a1.41,1.41,0,0,0-1.001-.43409c-.31543,0-.49024.147-.49024.32911,0,.16113.252.26611.58106.37841.49707.15381,1.13476.3711,1.13476.98047,0,.64453-.53906,1.1836-1.46386,1.1836a2.20861,2.20861,0,0,1-1.59668-.60938Z"/><path d="M421.15254,46.12923a1.73486,1.73486,0,0,0,1.19043.51856c.30078,0,.49024-.16114.49024-.35743,0-.20312-.28711-.3081-.62305-.41992-.4834-.16113-1.09277-.37842-1.09277-.95263a1.23207,1.23207,0,0,1,1.39355-1.14161,1.99182,1.99182,0,0,1,1.42871.55323l-.4414.56006a1.41,1.41,0,0,0-1.001-.43409c-.31543,0-.49024.147-.49024.32911,0,.16113.252.26611.58106.37841.49707.15381,1.13476.3711,1.13476.98047,0,.64453-.53906,1.1836-1.46386,1.1836a2.20863,2.20863,0,0,1-1.59668-.60938Z"/><path d="M426.37422,43.7762a1.43867,1.43867,0,0,1,1.51953,1.5127,2.20212,2.20212,0,0,1-.07031.54639h-2.51465v.084a.83127.83127,0,0,0,.92481.7002,1.51581,1.51581,0,0,0,.85449-.252l.28027.60938a2.20038,2.20038,0,0,1-1.19726.3501c-1.06543,0-1.751-.57422-1.751-1.51954A1.9765,1.9765,0,0,1,426.37422,43.7762Zm.72071,1.38672a.69115.69115,0,0,0-.77735-.6792.965.965,0,0,0-.917.749h1.69434Z"/><path d="M428.6877,46.12923a1.73482,1.73482,0,0,0,1.19043.51856c.30078,0,.49023-.16114.49023-.35743,0-.20312-.28711-.3081-.623-.41992-.4834-.16113-1.09278-.37842-1.09278-.95263a1.23208,1.23208,0,0,1,1.39356-1.14161,1.99182,1.99182,0,0,1,1.42871.55323l-.44141.56006a1.41,1.41,0,0,0-1.001-.43409c-.31543,0-.49024.147-.49024.32911,0,.16113.252.26611.58106.37841.49707.15381,1.13476.3711,1.13476.98047,0,.64453-.53906,1.1836-1.46387,1.1836a2.20863,2.20863,0,0,1-1.59668-.60938Z"/><path d="M436.35371,44.9388,435.135,47.243h-.95214l-.28028-3.38281h.88965l.13281,2.27637,1.24707-2.27637h.791l.23144,2.27637,1.14161-2.27637h.95214L437.509,47.243h-.94531Z"/><path d="M439.91621,43.86019h.88965l-.749,3.38281h-.88965Zm.72168-1.562a.45983.45983,0,0,1,.47657.45556.60127.60127,0,0,1-.59571.60938.45544.45544,0,0,1-.47656-.45557A.60587.60587,0,0,1,440.63789,42.29818Z"/><path d="M441.4875,46.36068l.37793-1.73h-.56054l.1748-.77051h.56055l.20312-.92432h.89649l-.20313.92432h.68653l-.18165.77051h-.68652l-.32226,1.4707a.97392.97392,0,0,0-.01465.14014c0,.18213.10547.29394.33008.29394a.4624.4624,0,0,0,.24511-.06982l.03418.71435a1.03684,1.03684,0,0,1-.55957.147c-.60254,0-1.00879-.231-1.00879-.73536A1.04683,1.04683,0,0,1,441.4875,46.36068Z"/><path d="M446.4543,45.21175a1.22387,1.22387,0,0,0,.03516-.21c0-.31494-.252-.43408-.55371-.43408a1.22511,1.22511,0,0,0-.81934.39892L444.6125,47.243h-.88965l1.0293-4.67139h.88965l-.37793,1.73a1.60576,1.60576,0,0,1,1.127-.5254c.65137,0,1.05762.34327,1.05762.86817a1.8565,1.8565,0,0,1-.03516.27344l-.51074,2.32519h-.88965Z"/><path d="M450.02754,43.7762a1.51153,1.51153,0,0,1,1.68067,1.54053,1.98117,1.98117,0,0,1-1.96094,2.01026,1.50093,1.50093,0,0,1-1.67383-1.5337A1.98143,1.98143,0,0,1,450.02754,43.7762Zm-.02832.79151a1.101,1.101,0,0,0-1.00879,1.17627.72951.72951,0,0,0,.792.7915,1.09618,1.09618,0,0,0,1.001-1.17627A.72663.72663,0,0,0,449.99922,44.56771Z"/><path d="M453.31368,45.89827a1.11371,1.11371,0,0,0-.02833.20313c0,.30811.252.43408.56739.43408a1.25368,1.25368,0,0,0,.80566-.39892l.50391-2.27637h.88965l-.749,3.38281h-.88965l.09766-.4414a1.60578,1.60578,0,0,1-1.127.52539c-.65137,0-1.05762-.34327-1.05762-.86817a1.99193,1.99193,0,0,1,.03418-.27344l.51172-2.32519h.89648Z"/><path d="M456.75606,46.36068l.37793-1.73h-.55957l.1748-.77051h.56055l.20312-.92432h.89649l-.20313.92432h.68653l-.18262.77051h-.68652l-.32227,1.4707a.9719.9719,0,0,0-.01367.14014c0,.18213.10547.29394.3291.29394a.46244.46244,0,0,0,.24512-.06982l.03515.71435a1.0404,1.0404,0,0,1-.56054.147c-.60254,0-1.00879-.231-1.00879-.73536A1.10923,1.10923,0,0,1,456.75606,46.36068Z"/><path d="M464.03731,42.57161h.89648L463.89766,47.243h-.89648l.09765-.42041a1.27533,1.27533,0,0,1-1.01562.5044,1.24646,1.24646,0,0,1-1.28809-1.40088,1.977,1.977,0,0,1,1.78613-2.14991,1.27548,1.27548,0,0,1,1.07813.53223Zm-1.56153,3.96387a1.00452,1.00452,0,0,0,.77735-.39892l.25879-1.17676a.933.933,0,0,0-.791-.39209,1.09163,1.09163,0,0,0-.99414,1.17627A.73558.73558,0,0,0,462.47578,46.53548Z"/><path d="M467.03926,43.7762a1.43867,1.43867,0,0,1,1.51953,1.5127,2.20212,2.20212,0,0,1-.07031.54639h-2.51465v.084a.83127.83127,0,0,0,.92481.7002,1.51581,1.51581,0,0,0,.85449-.252l.28027.60938a2.20038,2.20038,0,0,1-1.19726.3501c-1.06543,0-1.751-.57422-1.751-1.51954A1.9765,1.9765,0,0,1,467.03926,43.7762Zm.7207,1.38672a.69114.69114,0,0,0-.77734-.6792.965.965,0,0,0-.917.749H467.76Z"/><path d="M471.11739,43.7762a1.50121,1.50121,0,0,1,1.373.665l-.666.51172a.79989.79989,0,0,0-.707-.38525,1.096,1.096,0,0,0-1.06446,1.17627.77569.77569,0,0,0,.84766.7915.9382.9382,0,0,0,.707-.33594l.4834.59522a1.75119,1.75119,0,0,1-1.28223.53223,1.50814,1.50814,0,0,1-1.65918-1.541A1.97023,1.97023,0,0,1,471.11739,43.7762Z"/><path d="M473.43282,43.86019h.88964l-.10546.44824a1.54158,1.54158,0,0,1,1.19824-.52539l-.18946.88281a1.37025,1.37025,0,0,0-.3291-.04248,1.19356,1.19356,0,0,0-.84082.40625l-.48242,2.21338h-.88965Z"/><path d="M475.78535,47.81722a.45546.45546,0,0,0,.41993-.23828l.21093-.31494-.60253-3.40381h.9248l.35645,2.353,1.415-2.353h.98047l-2.46484,3.936a1.4116,1.4116,0,0,1-1.31055.81934,1.80969,1.80969,0,0,1-.5664-.084l.29394-.77051A.94462.94462,0,0,0,475.78535,47.81722Z"/><path d="M479.94649,48.53158h-.88965l1.03711-4.67139h.88965l-.09864.42041a1.28813,1.28813,0,0,1,1.02247-.5044,1.249,1.249,0,0,1,1.28222,1.40088,1.98639,1.98639,0,0,1-1.7793,2.14991,1.25935,1.25935,0,0,1-1.07812-.53223Zm1.56152-3.96387a1.02425,1.02425,0,0,0-.77734.40625l-.25879,1.17627a.93107.93107,0,0,0,.791.38525,1.0871,1.0871,0,0,0,.99512-1.17627A.73631.73631,0,0,0,481.508,44.56771Z"/><path d="M483.99629,46.36068l.37793-1.73h-.55957l.17481-.77051H484.55l.20313-.92432h.89648l-.20312.92432h.68652l-.18262.77051h-.68652l-.32227,1.4707a.97331.97331,0,0,0-.01367.14014c0,.18213.10547.29394.3291.29394a.46244.46244,0,0,0,.24512-.06982l.03516.71435a1.04041,1.04041,0,0,1-.56055.147c-.60254,0-1.00879-.231-1.00879-.73536A1.10923,1.10923,0,0,1,483.99629,46.36068Z"/><path d="M486.98164,43.86019h.88965l-.75,3.38281h-.88965Zm.72071-1.562a.45982.45982,0,0,1,.47656.45556.60127.60127,0,0,1-.5957.60938.45518.45518,0,0,1-.47559-.45557A.6057.6057,0,0,1,487.70235,42.29818Z"/><path d="M490.23946,43.7762a1.51185,1.51185,0,0,1,1.68164,1.54053,1.98136,1.98136,0,0,1-1.96192,2.01026,1.50094,1.50094,0,0,1-1.67383-1.5337A1.98143,1.98143,0,0,1,490.23946,43.7762Zm-.02735.79151a1.101,1.101,0,0,0-1.00879,1.17627.72877.72877,0,0,0,.791.7915,1.09626,1.09626,0,0,0,1.00195-1.17627A.72663.72663,0,0,0,490.21211,44.56771Z"/><path d="M495.09785,45.22591a1.17964,1.17964,0,0,0,.03516-.22412c0-.31494-.252-.43408-.51855-.43408a1.2599,1.2599,0,0,0-.8545.39209l-.5039,2.2832h-.88965l.749-3.38281h.88965l-.09765.44141a1.60574,1.60574,0,0,1,1.127-.5254c.65137,0,1.05762.34327,1.05762.86817a1.98992,1.98992,0,0,1-.03516.27344l-.51758,2.32519h-.88965Z"/><line class="cls-13" x1="381.19771" y1="81.27456" x2="526.57588" y2="81.27456"/><polygon class="cls-4" points="523.262 85.364 522.58 84.632 526.192 81.276 522.58 77.918 523.262 77.186 527.66 81.276 523.262 85.364"/><path d="M433.80977,68.92513h-2.20606l-.43457,1.96094H430.175l1.0293-4.6709h.99414l-.39844,1.835h2.19922l.40625-1.835h1.001l-1.0293,4.6709H433.3752Z"/><path d="M437.28828,67.09017h-1.36621l.19629-.875H439.844l-.18848.875h-1.36621l-.833,3.7959h-1.002Z"/><path d="M441.57246,67.09017h-1.36621l.19629-.875h3.72559l-.18848.875h-1.36621l-.833,3.7959h-1.002Z"/><path d="M444.842,66.21517h2.0166a1.30181,1.30181,0,0,1,1.42187,1.29492,1.74476,1.74476,0,0,1-1.93262,1.72363H445.1711l-.36426,1.65235h-.99512Zm2.39453,1.39355a.53929.53929,0,0,0-.58789-.53906h-1.002l-.28027,1.28809h1.03027A.75485.75485,0,0,0,447.23653,67.60872Z"/><path d="M450.42793,66.07454h.67285L448.341,71.02669h-.665Z"/><path d="M454.26387,68.92513h-2.207l-.43359,1.96094h-.99512l1.03027-4.6709h.99414l-.39941,1.835h2.19922l.40625-1.835h1.00195l-1.03027,4.6709h-1.001Z"/><path d="M457.74239,67.09017h-1.36621l.19628-.875h3.72559l-.18848.875h-1.36621l-.833,3.7959h-1.002Z"/><path d="M462.02559,67.09017h-1.36524l.19629-.875h3.72559l-.18945.875h-1.36524l-.834,3.7959h-1.001Z"/><path d="M465.29512,66.21517h2.01758a1.301,1.301,0,0,1,1.4209,1.29492,1.74418,1.74418,0,0,1-1.93262,1.72363h-1.17676L465.26,70.88607h-.99414Zm2.39551,1.39355a.54013.54013,0,0,0-.58887-.53906h-1.001l-.28027,1.28809h1.0293A.7557.7557,0,0,0,467.69063,67.60872Z"/><path d="M469.30391,69.38021a2.01214,2.01214,0,0,0,1.583.72168c.49707,0,.70019-.28711.70019-.53906,0-.28028-.35742-.42774-.79883-.58887-.65136-.23047-1.46289-.53906-1.46289-1.37207a1.63869,1.63869,0,0,1,1.82032-1.457,2.44828,2.44828,0,0,1,1.85644.75586l-.61621.69336a1.847,1.847,0,0,0-1.36621-.59473c-.38477,0-.65137.23144-.65137.49023,0,.252.35742.39942.79883.56055.65137.23047,1.47754.5459,1.47754,1.3584a1.65169,1.65169,0,0,1-1.835,1.56152,2.69448,2.69448,0,0,1-2.11524-.86816Z"/><path d="M473.73262,69.82845a.51774.51774,0,0,1,.51172.52539.62191.62191,0,0,1-.61621.61621.5235.5235,0,0,1-.51856-.52539A.62786.62786,0,0,1,473.73262,69.82845Zm.51856-2.374a.51334.51334,0,0,1,.51855.51855.62332.62332,0,0,1-.623.61621.51774.51774,0,0,1-.51172-.52539A.62052.62052,0,0,1,474.25118,67.45443Z"/><path d="M430.60176,73.138a2.07853,2.07853,0,0,1,2.07324,1.32324l-.96.32227a1.17706,1.17706,0,0,0-1.16211-.76367,1.70976,1.70976,0,0,0-1.63183,1.793,1.23585,1.23585,0,0,0,1.3164,1.27539,1.4778,1.4778,0,0,0,1.09961-.54l.76367.52539a2.41524,2.41524,0,0,1-1.91894.89648A2.1183,2.1183,0,0,1,427.884,75.8763,2.66744,2.66744,0,0,1,430.60176,73.138Z"/><path d="M433.3918,74.50326h.88965l-.75,3.38281h-.88965Zm.7207-1.56153a.45944.45944,0,0,1,.47657.45508.60093.60093,0,0,1-.59571.60937.45507.45507,0,0,1-.47558-.45507A.60536.60536,0,0,1,434.1125,72.94173Z"/><path d="M434.97871,76.77279a1.73486,1.73486,0,0,0,1.19043.51855c.30079,0,.49024-.16113.49024-.35742,0-.20313-.28711-.30859-.623-.41992-.4834-.16114-1.09277-.37891-1.09277-.95313a1.23235,1.23235,0,0,1,1.39355-1.1416,1.9901,1.9901,0,0,1,1.42871.55371l-.4414.55957a1.40979,1.40979,0,0,0-1.001-.43359c-.31543,0-.49023.14648-.49023.3291,0,.16113.25195.26562.58105.37793.49707.1543,1.13477.37109,1.13477.98047,0,.64453-.53907,1.18359-1.46387,1.18359a2.20862,2.20862,0,0,1-1.59668-.60937Z"/><path d="M440.21309,74.41927a1.50122,1.50122,0,0,1,1.373.665l-.665.51172a.80114.80114,0,0,0-.708-.38477,1.09647,1.09647,0,0,0-1.06445,1.17578.77656.77656,0,0,0,.84765.792.93988.93988,0,0,0,.707-.33594l.4834.59473a1.74864,1.74864,0,0,1-1.28125.53222,1.50844,1.50844,0,0,1-1.66015-1.541A1.97023,1.97023,0,0,1,440.21309,74.41927Z"/><path d="M443.82344,74.41927a1.51195,1.51195,0,0,1,1.68164,1.541,1.98093,1.98093,0,0,1-1.96191,2.00976,1.50083,1.50083,0,0,1-1.67383-1.5332A1.98184,1.98184,0,0,1,443.82344,74.41927Zm-.02734.792a1.10087,1.10087,0,0,0-1.00879,1.17578.72914.72914,0,0,0,.791.792,1.09643,1.09643,0,0,0,1.002-1.17676A.72649.72649,0,0,0,443.7961,75.21126Z"/><path d="M445.758,78.47493a1.45787,1.45787,0,0,0,.68652-.58886h-.07714a.41938.41938,0,0,1-.42676-.45508.62862.62862,0,0,1,.61621-.60254.53293.53293,0,0,1,.5459.57422,1.74267,1.74267,0,0,1-1.0293,1.40137Z"/><path d="M454.55293,75.22493a2.69291,2.69291,0,0,1-3.02636,2.66114h-1.835l1.03028-4.6709h1.80664A2.00287,2.00287,0,0,1,454.55293,75.22493Zm-1.03711.0625a1.15011,1.15011,0,0,0-1.17675-1.19726h-.8125l-.64356,2.9209h.82617A1.701,1.701,0,0,0,453.51582,75.28743Z"/><path d="M455.90157,73.21517h.99414l-.833,3.7959h1.96777l-.18847.875h-2.96973Z"/><path d="M459.61153,73.21517h2.01757a1.301,1.301,0,0,1,1.4209,1.29492,1.74418,1.74418,0,0,1-1.93261,1.72363h-1.17676l-.36426,1.65235h-.99414Zm2.3955,1.39355a.54013.54013,0,0,0-.58886-.53906h-1.001l-.28027,1.28809h1.02929A.7557.7557,0,0,0,462.007,74.60872Z"/><path d="M462.674,78.47493a1.45787,1.45787,0,0,0,.68652-.58886h-.07715a.41958.41958,0,0,1-.42773-.45508.62931.62931,0,0,1,.61621-.60254.53365.53365,0,0,1,.54687.57422,1.74193,1.74193,0,0,1-1.03027,1.40137Z"/><path d="M467.63789,73.21517h.99414l-1.02929,4.6709h-.99512Z"/><path d="M469.758,73.21517h2.0166a1.30181,1.30181,0,0,1,1.42188,1.29492,1.74476,1.74476,0,0,1-1.93262,1.72363h-1.17676l-.36426,1.65235h-.99511Zm2.39453,1.39355a.53929.53929,0,0,0-.58789-.53906H470.5627l-.28027,1.28809h1.03027A.75484.75484,0,0,0,472.15254,74.60872Z"/><path d="M473.7668,76.38021a2.01156,2.01156,0,0,0,1.582.72168c.498,0,.70117-.28711.70117-.53906,0-.28028-.35742-.42774-.79882-.58887-.65137-.23047-1.46387-.53906-1.46387-1.37207a1.63907,1.63907,0,0,1,1.82129-1.457,2.44611,2.44611,0,0,1,1.85547.75586l-.61622.69336a1.84487,1.84487,0,0,0-1.36523-.59473c-.38574,0-.65137.23144-.65137.49023,0,.252.35645.39942.79785.56055.65137.23047,1.47852.5459,1.47852,1.3584a1.652,1.652,0,0,1-1.83594,1.56152,2.69225,2.69225,0,0,1-2.11425-.86816Z"/><polyline class="cls-14" points="377.301 93.642 395.576 111.918 518.66 111.918 531.879 98.699"/><polygon class="cls-6" points="532.428 103.934 531.428 103.899 531.608 98.971 526.68 99.151 526.645 98.151 532.646 97.933 532.428 103.934"/><path d="M429.88789,100.724H427.801l-.46973.80566h-1.1416l2.83692-4.67187h1.24609l.77051,4.67187H430.007Zm-1.625-.86133h1.54786l-.3086-2.15039Z"/><path d="M432.66328,96.85775h.88868l-1.0293,4.67187H431.633Z"/><path d="M434.61348,96.85775h.88867l-1.0293,4.67187h-.88964Z"/><path d="M439.36641,98.06283a1.51174,1.51174,0,0,1,1.68164,1.54,1.98177,1.98177,0,0,1-1.96191,2.01075,1.501,1.501,0,0,1-1.67383-1.53418A1.981,1.981,0,0,1,439.36641,98.06283Zm-.02734.791a1.10119,1.10119,0,0,0-1.00879,1.17676.7284.7284,0,0,0,.791.791,1.0961,1.0961,0,0,0,1.002-1.17578A.72677.72677,0,0,0,439.33907,98.85384Z"/><path d="M441.84981,100.64681l.37793-1.72949h-.55957l.1748-.77051h.56055l.20312-.9248h.89649l-.20313.9248h.68653l-.18262.77051h-.68652l-.32227,1.4707a.96535.96535,0,0,0-.01367.13965c0,.18262.10547.29394.3291.29394a.46259.46259,0,0,0,.24512-.06933l.03515.71387a1.04042,1.04042,0,0,1-.56054.14746c-.60254,0-1.00879-.23145-1.00879-.73535A1.11328,1.11328,0,0,1,441.84981,100.64681Z"/><path d="M446.81758,99.49837a1.22387,1.22387,0,0,0,.03516-.21c0-.31543-.252-.43457-.55371-.43457a1.2235,1.2235,0,0,0-.81934.39942l-.50391,2.27636h-.88964l1.02929-4.67187h.88965l-.37793,1.73047a1.60381,1.60381,0,0,1,1.127-.52539c.65137,0,1.05762.34277,1.05762.86816a1.85779,1.85779,0,0,1-.03515.27344l-.51075,2.32519h-.88964Z"/><path d="M450.39473,98.06283a1.43866,1.43866,0,0,1,1.51953,1.51269,2.19825,2.19825,0,0,1-.07031.5459H449.3293v.084a.83127.83127,0,0,0,.9248.7002,1.51589,1.51589,0,0,0,.8545-.252l.28027.60937a2.19668,2.19668,0,0,1-1.19727.35059c-1.06542,0-1.751-.57422-1.751-1.51953A1.9765,1.9765,0,0,1,450.39473,98.06283Zm.7207,1.38671a.69121.69121,0,0,0-.77734-.67968.965.965,0,0,0-.917.749h1.69433Z"/><path d="M453.08809,98.14681h.88965l-.10547.44824a1.5416,1.5416,0,0,1,1.19824-.52539l-.18945.88281a1.33986,1.33986,0,0,0-.3291-.043,1.19539,1.19539,0,0,0-.84082.40625l-.48243,2.21386h-.88964Z"/><path d="M457.16914,100.64681l.37793-1.72949h-.55957l.17481-.77051h.56054l.20313-.9248h.89648l-.20312.9248h.68652l-.18261.77051h-.68653l-.32226,1.4707a.96537.96537,0,0,0-.01368.13965c0,.18262.10547.29394.32911.29394a.46255.46255,0,0,0,.24511-.06933l.03516.71387a1.04043,1.04043,0,0,1-.56055.14746c-.60254,0-1.00879-.23145-1.00879-.73535A1.114,1.114,0,0,1,457.16914,100.64681Z"/><path d="M460.1545,98.14681h.88964l-.10546.44824a1.54158,1.54158,0,0,1,1.19824-.52539l-.18946.88281a1.33979,1.33979,0,0,0-.3291-.043,1.19543,1.19543,0,0,0-.84082.40625l-.48242,2.21386h-.88965Z"/><path d="M465.20235,98.14681h.89648l-.749,3.38281h-.89649l.09766-.4209a1.27444,1.27444,0,0,1-1.01563.50489,1.24686,1.24686,0,0,1-1.28808-1.40137,1.97658,1.97658,0,0,1,1.78613-2.14941,1.27427,1.27427,0,0,1,1.07813.53222Zm-1.27442,2.6748a1.00549,1.00549,0,0,0,.77735-.39843l.25879-1.17676a.93213.93213,0,0,0-.791-.39258,1.0921,1.0921,0,0,0-.99414,1.17676A.73517.73517,0,0,0,463.92793,100.82161Z"/><path d="M467.18965,98.92415h-.55957l.168-.77734h.56055l.042-.18262a1.29444,1.29444,0,0,1,1.26758-1.17676,1.3696,1.3696,0,0,1,.74218.18946l-.30859.60254a.54154.54154,0,0,0-.32226-.09082c-.27247,0-.41993.168-.49024.47558l-.042.18262h.69336l-.17481.77734h-.68652l-.57422,2.60547h-.89648Zm2.291,0h-.56055l.168-.77734h.56055l.042-.18262a1.29513,1.29513,0,0,1,1.26758-1.17676,1.3696,1.3696,0,0,1,.74218.18946l-.30761.60254a.54359.54359,0,0,0-.32227-.09082c-.27344,0-.4209.168-.49023.47558l-.042.18262h.69336l-.17578.77734h-.68652l-.57422,2.60547h-.89648Zm2.26172-.77734h.88964l-.749,3.38281h-.88965Zm.72168-1.5625a.45935.45935,0,0,1,.47558.45605.60081.60081,0,0,1-.59472.60938.45554.45554,0,0,1-.47657-.45606A.6062.6062,0,0,1,472.46407,96.58431Z"/><path d="M475.04024,98.06283a1.50121,1.50121,0,0,1,1.373.665l-.666.51172a.80029.80029,0,0,0-.707-.38574,1.09618,1.09618,0,0,0-1.06446,1.17676.77531.77531,0,0,0,.84766.791.93658.93658,0,0,0,.707-.33593l.4834.5957a1.753,1.753,0,0,1-1.28223.53223,1.50814,1.50814,0,0,1-1.65918-1.541A1.97023,1.97023,0,0,1,475.04024,98.06283Z"/><path d="M477.22578,100.472a.51692.51692,0,0,1,.51075.52539.62128.62128,0,0,1-.61621.61621.52267.52267,0,0,1-.51758-.52539A.62786.62786,0,0,1,477.22578,100.472Zm.51856-2.374a.51171.51171,0,0,1,.51758.51758.62268.62268,0,0,1-.623.61621.5163.5163,0,0,1-.51074-.52539A.61968.61968,0,0,1,477.74434,98.098Z"/><path d="M434.11055,107.02376a2.01458,2.01458,0,0,0,1.582.72168c.498,0,.70117-.28808.70117-.54,0-.28027-.35742-.42675-.79882-.58789-.65137-.23144-1.46387-.53906-1.46387-1.373a1.6397,1.6397,0,0,1,1.82129-1.457,2.4433,2.4433,0,0,1,1.85547.75684l-.61622.69336a1.84228,1.84228,0,0,0-1.36523-.5957c-.38574,0-.65137.23144-.65137.49023,0,.25293.35645.39942.79785.56055.65137.23144,1.47852.54687,1.47852,1.3584a1.65215,1.65215,0,0,1-1.83594,1.5625,2.69549,2.69549,0,0,1-2.11425-.86817Z"/><path d="M441.33028,105.32161l-1.52051,3.208h-1.05762l-.30762-4.67187h1.08594l.07617,3.376,1.63184-3.376h.77832l.13965,3.376,1.56152-3.376h1.1416l-2.36035,4.67187H441.4416Z"/><path d="M447.43672,103.7806a2.05763,2.05763,0,0,1,1.92676,1.13476l-.918.39258a1.22906,1.22906,0,0,0-1.14844-.64453,1.71862,1.71862,0,0,0-1.63183,1.793,1.23917,1.23917,0,0,0,1.3164,1.27441,1.42032,1.42032,0,0,0,.94532-.35742l.11914-.56738H446.8l.19532-.85352h2.23437l-.40625,1.80664a2.43955,2.43955,0,0,1-1.89746.8545,2.118,2.118,0,0,1-2.29785-2.09473A2.69555,2.69555,0,0,1,447.43672,103.7806Z"/><path d="M449.45918,109.11751a1.456,1.456,0,0,0,.68653-.58789h-.07715a.41958.41958,0,0,1-.42774-.45508.6293.6293,0,0,1,.61621-.60253.53365.53365,0,0,1,.54688.57421,1.74053,1.74053,0,0,1-1.03027,1.40039Z"/><path d="M456.33516,103.7806a2.0757,2.0757,0,0,1,2.07227,1.32422l-.959.32226a1.17835,1.17835,0,0,0-1.16309-.76367,1.71039,1.71039,0,0,0-1.63183,1.793,1.2359,1.2359,0,0,0,1.31738,1.27441,1.48,1.48,0,0,0,1.09961-.53906l.7627.52539a2.41829,2.41829,0,0,1-1.91895.89649,2.11817,2.11817,0,0,1-2.29687-2.09473A2.668,2.668,0,0,1,456.33516,103.7806Z"/><path d="M459.12422,105.14681h.88965l-.749,3.38281h-.88965Zm.72168-1.5625a.46021.46021,0,0,1,.47656.45605.60158.60158,0,0,1-.5957.60938.45554.45554,0,0,1-.47656-.45606A.6062.6062,0,0,1,459.8459,103.58431Z"/><path d="M460.71114,107.41536a1.73478,1.73478,0,0,0,1.19043.51856c.30078,0,.49023-.16113.49023-.35742,0-.20313-.28711-.30762-.623-.41992-.4834-.16114-1.09277-.37793-1.09277-.95215a1.23178,1.23178,0,0,1,1.39355-1.1416,1.99359,1.99359,0,0,1,1.42872.55273l-.44141.56055a1.41029,1.41029,0,0,0-1.001-.43457c-.31543,0-.49023.14746-.49023.3291,0,.16113.252.2666.58105.3789.49707.15332,1.13477.3711,1.13477.98047,0,.64453-.53906,1.1836-1.46387,1.1836a2.20859,2.20859,0,0,1-1.59668-.60938Z"/><path d="M465.94649,105.06283a1.50121,1.50121,0,0,1,1.373.665l-.666.51172a.80029.80029,0,0,0-.707-.38574,1.09618,1.09618,0,0,0-1.06446,1.17676.77531.77531,0,0,0,.84766.791.93658.93658,0,0,0,.707-.33593l.4834.5957a1.753,1.753,0,0,1-1.28223.53223,1.50814,1.50814,0,0,1-1.65918-1.541A1.97023,1.97023,0,0,1,465.94649,105.06283Z"/><path d="M469.55684,105.06283a1.51142,1.51142,0,0,1,1.68066,1.54,1.98158,1.98158,0,0,1-1.96093,2.01075,1.501,1.501,0,0,1-1.67383-1.53418A1.981,1.981,0,0,1,469.55684,105.06283Zm-.02832.791a1.10119,1.10119,0,0,0-1.00879,1.17676.72914.72914,0,0,0,.792.791,1.096,1.096,0,0,0,1.001-1.17578A.72677.72677,0,0,0,469.52852,105.85384Z"/><circle class="cls-15" cx="361.69603" cy="81.46793" r="19.52046"/><g id="shapes-three-interlocked-within-circle"><g class="cls-16"><polygon class="cls-17" points="361.764 75.524 349.877 82.84 349.877 89.241 355.363 91.984 367.251 84.669 367.228 78.885 361.764 75.524"/><polygon class="cls-17" points="356.278 84.668 368.166 91.984 373.652 89.24 373.652 82.839 367.228 78.885 367.251 71.752 361.742 68.277 356.187 71.844 356.278 84.668"/><g class="cls-16"><circle class="cls-17" cx="361.69603" cy="81.46793" r="19.5"/></g></g></g><path class="cls-9" d="M60.88955,72.515H57.73178a8.50474,8.50474,0,0,0-8.54468,8.596v8.59149"/><path class="cls-9" d="M88.1871,95.95247v-7.029a8.4463,8.4463,0,0,0-8.4751-8.596H73.32689a8.50474,8.50474,0,0,0-8.54468,8.596v7.029"/><circle class="cls-9" cx="60.87511" cy="65.48372" r="7.03201"/><circle class="cls-9" cx="76.50351" cy="73.29622" r="7.03201"/><path class="cls-18" d="M550.93583,81.4198c0-.04889.00165-.09641.00176-.14524h-7.50145c-.00009.03138-.00126.06235-.00126.09376a28.004,28.004,0,0,0,1.3552,8.72026,45.11384,45.11384,0,0,1,6.60336-1.06391A61.33593,61.33593,0,0,1,550.93583,81.4198Z"/><path class="cls-18" d="M551.39344,89.02467a45.11384,45.11384,0,0,0-6.60336,1.06391c1.56916,4.77123,4.38357,8.48009,7.81991,10.19859.15493.03512.30889.07273.46519.10413a19.70071,19.70071,0,0,0,2.49685.332C553.67733,99.26685,552.12671,94.85015,551.39344,89.02467Z"/><path class="cls-18" d="M562.43816,73.52417a60.78476,60.78476,0,0,1,.49751,7.75039h7.50021a27.91725,27.91725,0,0,0-1.41274-8.799A45.57032,45.57032,0,0,1,562.43816,73.52417Z"/><path class="cls-18" d="M562.47833,89.02438q-.86511-.07873-1.7611-.134c-1.22376-.074-2.48634-.11487-3.78065-.11487-1.92774,0-3.78606.08846-5.54314.24917.73327,5.82548,2.28389,10.24218,4.17859,11.6986.45125.03175.90518.05375,1.36455.05375.45419,0,.90269-.02212,1.34824-.0549l.01726-.01174C560.19531,99.25227,561.74465,94.8412,562.47833,89.02438Z"/><path class="cls-18" d="M558.30208,100.71038l-.01726.01174a20.01815,20.01815,0,0,0,2.96094-.44532c3.44261-1.71472,6.2643-5.41948,7.83644-10.193a45.32128,45.32128,0,0,0-6.60387-1.05942C561.74465,94.8412,560.19531,99.25227,558.30208,100.71038Z"/><path class="cls-18" d="M562.93734,81.4198a61.19177,61.19177,0,0,1-.459,7.60458,45.32128,45.32128,0,0,1,6.60387,1.05942,27.95064,27.95064,0,0,0,1.35609-8.71548c0-.03154-.00232-.06224-.00241-.09376h-7.50021C562.93578,81.32334,562.93734,81.37093,562.93734,81.4198Z"/><path class="cls-18" d="M551.4373,73.5306a45.50937,45.50937,0,0,1-6.58344-1.04818,27.7943,27.7943,0,0,0-1.41772,8.79214h7.50145A60.42581,60.42581,0,0,1,551.4373,73.5306Z"/><path class="cls-18" d="M556.93658,73.77361c-1.32239,0-2.61287-.0415-3.8614-.11869q-.83228-.05143-1.63788-.12432a60.42581,60.42581,0,0,0-.49971,7.744h11.99808a60.78476,60.78476,0,0,0-.49751-7.75039c-.35111.03173-.70473.06162-1.06373.08738C559.94667,73.71394,558.46571,73.77361,556.93658,73.77361Z"/><path class="cls-18" d="M550.93583,81.4198a61.33593,61.33593,0,0,0,.45761,7.60487c1.75708-.16071,3.6154-.24917,5.54314-.24917,1.29431,0,2.55689.04086,3.78065.11487q.89642.05422,1.7611.134a61.19177,61.19177,0,0,0,.459-7.60458c0-.04887-.00156-.09646-.00167-.14524H550.93759C550.93748,81.32339,550.93583,81.37091,550.93583,81.4198Z"/><path class="cls-18" d="M561.91161,70.33107l.00461-.00581-.00461.00581c.20479,1.001.37908,2.07332.52655,3.1931a45.57032,45.57032,0,0,0,6.585-1.04862,23.67609,23.67609,0,0,0-.89275-2.27722c-1.78825-3.91314-4.49238-6.82731-7.65487-8.09463a19.687,19.687,0,0,0-2.70284-.31035,2.69608,2.69608,0,0,1,.32718.18C559.68132,63.00044,561.04054,66.07343,561.91161,70.33107Z"/><path class="cls-18" d="M552.04978,69.94119c-.2405,1.11551-.44452,2.32065-.61248,3.58941q.80512.07266,1.63788.12432c1.24853.07719,2.539.11869,3.8614.11869,1.52913,0,3.01009-.05967,4.43785-.16206.359-.02576.71262-.05565,1.06373-.08738-.14747-1.11978-.32176-2.19214-.52655-3.1931-.87107-4.25764-2.23029-7.33063-3.81175-8.35773a2.69608,2.69608,0,0,0-.32718-.18c-.27739-.01223-.55563-.02125-.8361-.02125-.28462,0-.56573.01406-.84733.02617C554.42523,62.57888,552.98238,65.61538,552.04978,69.94119Z"/><path class="cls-18" d="M552.04978,69.94119c.9326-4.32581,2.37545-7.36231,4.03947-8.14292a19.49929,19.49929,0,0,0-2.67036.29376c-3.05875,1.22318-5.68673,3.99453-7.47764,7.71358a23.6124,23.6124,0,0,0-1.08739,2.67681,45.50937,45.50937,0,0,0,6.58344,1.04818C551.60526,72.26184,551.80928,71.0567,552.04978,69.94119Z"/><path class="cls-18" d="M552.61,100.28717c-3.43634-1.7185-6.25075-5.42736-7.81991-10.19859a24.03492,24.03492,0,0,0-3.73564,1.21343c-.22973.09924-.44738.20129-.65782.30482A19.52652,19.52652,0,0,0,552.61,100.28717Z"/><path class="cls-18" d="M570.43588,81.27456c.00009.03152.00241.06222.00241.09376a27.95064,27.95064,0,0,1-1.35609,8.71548A23.16217,23.16217,0,0,1,573.10539,91.42l.01495-.00176-.01495.00176q.19122.087.37239.17628A19.3662,19.3662,0,0,0,576.439,81.27456Z"/><path class="cls-18" d="M569.0822,90.0838c-1.57214,4.77352-4.39383,8.47828-7.83644,10.193.0426-.00966.08616-.0166.12867-.02651a19.54677,19.54677,0,0,0,12.10335-8.654q-.18146-.08917-.37239-.17628A23.16217,23.16217,0,0,0,569.0822,90.0838Z"/><path class="cls-18" d="M560.71723,62.14546c-.07994-.01571-.16143-.027-.24171-.04176,3.16249,1.26732,5.86662,4.18149,7.65487,8.09463l.01034-.00584-.01034.00584a23.67609,23.67609,0,0,1,.89275,2.27722,22.1744,22.1744,0,0,0,4.45913-1.52891q-.18352-.29339-.37688-.57986A19.51073,19.51073,0,0,0,560.71723,62.14546Z"/><path class="cls-18" d="M570.43588,81.27456H576.439a19.40972,19.40972,0,0,0-2.95677-10.32792,22.1744,22.1744,0,0,1-4.45913,1.52891A27.91725,27.91725,0,0,1,570.43588,81.27456Z"/><path class="cls-18" d="M544.85386,72.48242a22.184,22.184,0,0,1-4.44678-1.52509,19.35788,19.35788,0,0,0-2.97295,10.31723h6.002A27.7943,27.7943,0,0,1,544.85386,72.48242Z"/><path class="cls-18" d="M544.79008,90.08858a28.004,28.004,0,0,1-1.3552-8.72026c0-.03141.00117-.06238.00126-.09376h-6.002a19.40113,19.40113,0,0,0,2.96249,10.33227c.21044-.10353.42809-.20558.65782-.30482A24.03492,24.03492,0,0,1,544.79008,90.08858Z"/><path class="cls-18" d="M545.94125,69.80561c1.79091-3.719,4.41889-6.4904,7.47764-7.71358a19.50937,19.50937,0,0,0-12.36445,7.89124c-.226.31724-.44006.6433-.64736.97406a22.184,22.184,0,0,0,4.44678,1.52509A23.6124,23.6124,0,0,1,545.94125,69.80561Z"/></svg>