<svg id="Layer_1" data-name="Layer 1" xmlns="http://www.w3.org/2000/svg" xmlns:xlink="http://www.w3.org/1999/xlink" viewBox="0 0 438.25037 248.62328"><defs><style>.cls-1,.cls-10,.cls-12,.cls-15,.cls-16,.cls-17,.cls-5,.cls-7,.cls-9{fill:none;}.cls-2,.cls-3,.cls-8{fill:#fff;}.cls-16,.cls-2,.cls-7{stroke:#000;}.cls-12,.cls-15,.cls-16,.cls-17,.cls-2,.cls-5,.cls-7{stroke-linecap:round;}.cls-10,.cls-11,.cls-12,.cls-15,.cls-2,.cls-5,.cls-8,.cls-9{stroke-miterlimit:10;}.cls-4{fill:#010101;}.cls-5,.cls-8,.cls-9{stroke:#2bae4a;}.cls-6{clip-path:url(#clip-path);}.cls-16,.cls-17,.cls-7{stroke-linejoin:round;}.cls-10,.cls-11{stroke:#020202;}.cls-11{fill:#020202;stroke-width:0.4239px;}.cls-12{stroke:#999;}.cls-13{fill:#999;}.cls-14{fill:#211e1f;}.cls-15{stroke:#e4002b;}.cls-16{stroke-width:0.75px;}.cls-17{stroke:#010101;}.cls-18{clip-path:url(#clip-path-3);}</style><clipPath id="clip-path"><rect class="cls-1" x="52.12579" y="114.4899" width="50" height="50"/></clipPath><clipPath id="clip-path-3"><rect class="cls-1" x="194.24095" y="114.4899" width="50" height="50"/></clipPath></defs><rect class="cls-2" x="226.38839" y="32.28679" width="182.91763" height="189.12367"/><rect class="cls-2" x="29.44202" y="32.28679" width="182.91763" height="189.12367"/><rect class="cls-3" x="197.03052" y="115.73173" width="45.66358" height="91.58609"/><rect class="cls-4" x="237.20946" y="23.28679" width="161.27549" height="18"/><path class="cls-3" d="M245.17273,30.08979v1.54883h1.71875V33.038h-1.71875v1.34912h2.11816v1.39942h-3.668v-7.0962h3.668v1.39942Z"/><path class="cls-3" d="M251.56628,32.30854l1.7793,3.478h-1.73926l-.97949-1.91895-.919,1.91895h-1.64941l1.709-3.59815-1.77929-3.498h1.72949l1.01953,1.98877.999-1.98877h1.67969Z"/><path class="cls-3" d="M258.52722,30.08979h-1.46875v5.69678h-1.54981V30.08979h-1.47851V28.69037h4.49707Z"/><path class="cls-3" d="M260.83581,30.08979v1.54883h1.71875V33.038h-1.71875v1.34912H262.955v1.39942h-3.668v-7.0962h3.668v1.39942Z"/><path class="cls-3" d="M266.07409,33.228h-.73925v2.5586H263.785v-7.0962h2.35938a1.94612,1.94612,0,0,1,2.11816,1.939V31.289a1.85432,1.85432,0,0,1-.709,1.499l.91894,2.99854h-1.61914Zm-.73925-1.39941h.90918a.43552.43552,0,0,0,.46972-.46973v-.79932a.43289.43289,0,0,0-.46-.46972h-.91894Z"/><path class="cls-3" d="M273.872,28.69037v7.0962h-1.35938l-1.84863-4.0376v4.0376h-1.34961v-7.0962h1.34961l1.84863,4.05811V28.69037Z"/><path class="cls-3" d="M277.91491,34.53705H276.4657l-.28907,1.24952h-1.50976l1.52929-7.0962H278.205l1.53907,7.0962H278.205Zm-.71875-3.95752-.45019,2.5586h.89941Z"/><path class="cls-3" d="M284.22839,34.38715v1.39942h-3.68848v-7.0962h1.54981v5.69678Z"/><path class="cls-3" d="M291.5282,28.69037v7.0962h-1.35938l-1.84961-4.0376v4.0376h-1.34863v-7.0962h1.34863l1.84961,4.05811V28.69037Z"/><path class="cls-3" d="M294.06433,30.08979v1.54883h1.71875V33.038h-1.71875v1.34912h2.11816v1.39942h-3.668v-7.0962h3.668v1.39942Z"/><path class="cls-3" d="M301.33093,30.08979H299.8612v5.69678h-1.54882V30.08979h-1.4795V28.69037h4.49805Z"/><path class="cls-3" d="M309.79089,28.69037l-1.51953,7.0962H306.662l-.78907-3.85792-.79,3.85792h-1.60937l-1.51856-7.0962h1.6084l.79,4.83741.91992-4.83741h1.18848l.96973,4.82764.76953-4.82764Z"/><path class="cls-3" d="M310.42077,33.91742V30.55951a2.38749,2.38749,0,0,1,4.71778,0v3.35791a2.38749,2.38749,0,0,1-4.71778,0Zm3.16895.02v-3.398c0-.35986-.24023-.5996-.79981-.5996-.58007,0-.81933.23974-.81933.5996v3.398c0,.35987.23926.59961.80957.59961C313.34949,34.53705,313.58972,34.29731,313.58972,33.93744Z"/><path class="cls-3" d="M318.36023,33.228H317.621v2.5586h-1.54981v-7.0962h2.35938a1.94611,1.94611,0,0,1,2.11816,1.939V31.289a1.85432,1.85432,0,0,1-.709,1.499l.91894,2.99854h-1.61914Zm-.73926-1.39941h.90918a.43553.43553,0,0,0,.46973-.46973v-.79932a.4329.4329,0,0,0-.46-.46972H317.621Z"/><path class="cls-3" d="M324.7489,35.78657l-1.59863-3.34815v3.34815h-1.54981v-7.0962h1.54981v3.15821l1.47851-3.15821H326.368l-1.5791,3.438,1.709,3.65821Z"/><path class="cls-3" d="M329.36023,34.937V29.58a1.93376,1.93376,0,0,1,2.15918-1.98877v1.34912c-.38965,0-.66016.18995-.66016.56983v5.49658c0,.39014.27051.58008.66016.58008V36.936A1.93627,1.93627,0,0,1,329.36023,34.937Z"/><path class="cls-3" d="M332.2987,28.69037h1.54883v7.0962H332.2987Z"/><path class="cls-3" d="M339.38171,28.69037v7.0962h-1.35937L336.1737,31.749v4.0376h-1.34961v-7.0962h1.34961l1.84864,4.05811V28.69037Z"/><path class="cls-3" d="M344.62781,30.08979h-1.46875v5.69678h-1.54981V30.08979h-1.47851V28.69037h4.49707Z"/><path class="cls-3" d="M346.9364,30.08979v1.54883h1.71875V33.038H346.9364v1.34912h2.11816v1.39942h-3.668v-7.0962h3.668v1.39942Z"/><path class="cls-3" d="M352.17468,33.228h-.74023v2.5586h-1.54883v-7.0962h2.3584a1.947,1.947,0,0,1,2.11914,1.939V31.289a1.8523,1.8523,0,0,1-.71,1.499l.91992,2.99854H352.954Zm-.74023-1.39941h.91015a.436.436,0,0,0,.46973-.46973v-.79932a.43338.43338,0,0,0-.46-.46972h-.91992Z"/><path class="cls-3" d="M359.97253,28.69037v7.0962h-1.35937l-1.84961-4.0376v4.0376h-1.34864v-7.0962h1.34864l1.84961,4.05811V28.69037Z"/><path class="cls-3" d="M362.50866,30.08979v1.54883h1.71875V33.038h-1.71875v1.34912h2.11915v1.39942h-3.668v-7.0962h3.668v1.39942Z"/><path class="cls-3" d="M369.77527,30.08979h-1.46875v5.69678h-1.54981V30.08979H365.2782V28.69037h4.49707Z"/><path class="cls-3" d="M374.02722,30.08979v1.54883H375.746V33.038h-1.71875v1.34912h2.11816v1.39942h-3.668v-7.0962h3.668v1.39942Z"/><path class="cls-3" d="M381.29284,30.08979h-1.46875v5.69678h-1.5498V30.08979h-1.47852V28.69037h4.49707Z"/><path class="cls-3" d="M382.00574,33.91742V30.55951a2.36986,2.36986,0,0,1,4.6875,0v.88965H385.1239v-.90967c0-.35986-.25977-.5996-.76953-.5996-.53028,0-.79981.23974-.79981.5996v3.398c0,.35987.26953.59961.79.59961.51953,0,.7793-.23974.7793-.59961v-.90918h1.56934v.88916a2.36986,2.36986,0,0,1-4.6875,0Z"/><path class="cls-3" d="M387.58581,34.32758h1.499v1.459h-1.499Z"/><path class="cls-3" d="M389.87976,35.58686c.37988,0,.64941-.18994.64941-.58008V29.5102c0-.37988-.26953-.56983-.64941-.56983V27.59125A1.92979,1.92979,0,0,1,392.0282,29.58V34.937a1.93233,1.93233,0,0,1-2.14844,1.999Z"/><rect class="cls-4" x="61.68157" y="23.28679" width="118.43853" height="18"/><path class="cls-3" d="M70.47937,28.69037h1.5498v7.0962h-1.5498Z"/><path class="cls-3" d="M77.56335,28.69037v7.0962H76.204L74.35437,31.749v4.0376H73.00574v-7.0962h1.34863L76.204,32.74848V28.69037Z"/><path class="cls-3" d="M82.80945,30.08979H81.3407v5.69678H79.79089V30.08979H78.31238V28.69037h4.49707Z"/><path class="cls-3" d="M85.118,30.08979v1.54883h1.71875V33.038H85.118v1.34912H87.2362v1.39942h-3.668v-7.0962h3.668v1.39942Z"/><path class="cls-3" d="M90.35632,33.228h-.73926v2.5586h-1.5498v-7.0962h2.35937a1.94612,1.94612,0,0,1,2.11817,1.939V31.289a1.8543,1.8543,0,0,1-.709,1.499l.919,2.99854H91.13562Zm-.73926-1.39941h.90918a.43553.43553,0,0,0,.46973-.46973v-.79932a.43289.43289,0,0,0-.46-.46972h-.919Z"/><path class="cls-3" d="M98.15417,28.69037v7.0962H96.7948L94.94519,31.749v4.0376H93.59656v-7.0962h1.34863l1.84961,4.05811V28.69037Z"/><path class="cls-3" d="M102.19812,34.53705H100.7489l-.29,1.24952H98.95007l1.5293-7.0962h2.00879l1.53906,7.0962h-1.53906Zm-.71973-3.95752-.44922,2.5586h.89942Z"/><path class="cls-3" d="M108.51062,34.38715v1.39942h-3.68848v-7.0962H106.372v5.69678Z"/><path class="cls-3" d="M115.81042,28.69037v7.0962h-1.35937l-1.84961-4.0376v4.0376h-1.34863v-7.0962h1.34863l1.84961,4.05811V28.69037Z"/><path class="cls-3" d="M118.34656,30.08979v1.54883h1.71875V33.038h-1.71875v1.34912h2.11816v1.39942h-3.668v-7.0962h3.668v1.39942Z"/><path class="cls-3" d="M125.61316,30.08979h-1.46973v5.69678H122.5946V30.08979h-1.47949V28.69037h4.498Z"/><path class="cls-3" d="M134.07312,28.69037l-1.51953,7.0962h-1.60938l-.78906-3.85792-.79,3.85792h-1.60937l-1.51856-7.0962h1.6084l.79,4.83741.91992-4.83741H130.744l.96972,4.82764.76953-4.82764Z"/><path class="cls-3" d="M134.703,33.91742V30.55951a2.38749,2.38749,0,0,1,4.71777,0v3.35791a2.38748,2.38748,0,0,1-4.71777,0Zm3.16895.02v-3.398c0-.35986-.24024-.5996-.79981-.5996-.58008,0-.81933.23974-.81933.5996v3.398c0,.35987.23925.59961.80957.59961C137.63171,34.53705,137.872,34.29731,137.872,33.93744Z"/><path class="cls-3" d="M142.64343,33.228h-.74023v2.5586h-1.54883v-7.0962h2.3584a1.947,1.947,0,0,1,2.11914,1.939V31.289a1.8523,1.8523,0,0,1-.71,1.499l.91992,2.99854h-1.61914Zm-.74023-1.39941h.91015a.436.436,0,0,0,.46973-.46973v-.79932a.43338.43338,0,0,0-.46-.46972h-.91992Z"/><path class="cls-3" d="M149.03113,35.78657l-1.59864-3.34815v3.34815h-1.5498v-7.0962h1.5498v3.15821l1.47852-3.15821h1.73926l-1.57911,3.438,1.709,3.65821Z"/><path class="cls-3" d="M154.32214,28.34076,152.913,36.28608h-1.459l1.40918-7.94532Z"/><path class="cls-3" d="M159.67663,30.70942v3.0581a2.05356,2.05356,0,0,1-2.26855,2.01905h-2.29883v-7.0962h2.28906A2.06209,2.06209,0,0,1,159.67663,30.70942Zm-1.54882-.02a.56745.56745,0,0,0-.62012-.59961h-.84961v4.29736h.83984a.57042.57042,0,0,0,.62989-.59961Z"/><path class="cls-3" d="M166.38074,35.78657h-1.32911V31.21918l-1.00976,4.56739h-1.10938L161.913,31.17914v4.60743h-1.31933v-7.0962h1.83886l1.04981,4.05811,1.0498-4.05811h1.84864Z"/><path class="cls-3" d="M171.58972,34.38715v1.39942h-4.40723v-1.479l2.62793-4.21777h-2.44824V28.69037h4.168v1.4795l-2.6084,4.21728Z"/><line class="cls-5" x1="236.10133" y1="139.48989" x2="343.29569" y2="139.48989"/><path d="M256.80359,131.46332h3.30664l-.19727.8545h-2.30371l-.2168,1.01562h2.25489l-.18946.85449h-2.26172l-.23828,1.08594h2.30469l-.18262.86133h-3.30566Z"/><path d="M262.77917,134.11762a1.10241,1.10241,0,0,0,.03516-.22363c0-.31543-.25293-.43457-.51856-.43457a1.25572,1.25572,0,0,0-.85351.39257l-.50488,2.28321h-.88965l.75-3.38281h.88867l-.09766.4414a1.60578,1.60578,0,0,1,1.127-.52539c.65234,0,1.05859.34277,1.05859.86817a2.16323,2.16323,0,0,1-.03516.27343l-.51855,2.3252h-.88965Z"/><path d="M266.36609,132.6684a1.50119,1.50119,0,0,1,1.373.665l-.666.51172a.79914.79914,0,0,0-.707-.38574,1.09618,1.09618,0,0,0-1.06446,1.17675.77582.77582,0,0,0,.84766.791.93659.93659,0,0,0,.707-.33594l.4834.59571a1.75308,1.75308,0,0,1-1.28223.53222,1.50814,1.50814,0,0,1-1.65918-1.541A1.97023,1.97023,0,0,1,266.36609,132.6684Z"/><path d="M268.68249,132.75239h.88867l-.10546.44824a1.54155,1.54155,0,0,1,1.19824-.52539l-.18848.88183a1.42149,1.42149,0,0,0-.33008-.042,1.19326,1.19326,0,0,0-.83984.40625l-.4834,2.21387h-.88965Z"/><path d="M271.03406,136.70942a.45636.45636,0,0,0,.41992-.23828l.21093-.31543-.60253-3.40332h.9248l.35742,2.35253,1.41406-2.35253h.98047l-2.46484,3.93554a1.41067,1.41067,0,0,1-1.31055.81934,1.79555,1.79555,0,0,1-.5664-.084l.29394-.7705A.94765.94765,0,0,0,271.03406,136.70942Z"/><path d="M275.19616,137.42328h-.88964l1.03613-4.67089h.89062l-.09863.41992a1.289,1.289,0,0,1,1.02246-.50391,1.24838,1.24838,0,0,1,1.28125,1.40039,1.98587,1.98587,0,0,1-1.77929,2.15039,1.26183,1.26183,0,0,1-1.07813-.53222Zm1.56153-3.96386a1.02109,1.02109,0,0,0-.77735.40625l-.25878,1.17675a.92937.92937,0,0,0,.791.38477,1.08656,1.08656,0,0,0,.99414-1.17578A.73652.73652,0,0,0,276.75769,133.45942Z"/><path d="M279.245,135.25239l.37891-1.7295h-.56055l.17481-.7705h.56054l.20313-.92481h.89648l-.20312.92481h.68652l-.18164.7705h-.6875l-.32226,1.47071a1.12627,1.12627,0,0,0-.01368.13964c0,.18262.10547.29395.33008.29395a.45872.45872,0,0,0,.24414-.06934l.03516.71387a1.04043,1.04043,0,0,1-.56055.14746c-.60156,0-1.00781-.23144-1.00781-.73535A1.10219,1.10219,0,0,1,279.245,135.25239Z"/><path d="M283.52917,132.6684a1.43866,1.43866,0,0,1,1.51953,1.5127,2.25094,2.25094,0,0,1-.06933.54589h-2.51563v.084a.83168.83168,0,0,0,.92578.70019,1.515,1.515,0,0,0,.85352-.25195l.28027.60938a2.19666,2.19666,0,0,1-1.19726.35058c-1.06543,0-1.751-.57422-1.751-1.51953A1.9765,1.9765,0,0,1,283.52917,132.6684Zm.72168,1.38672a.69122.69122,0,0,0-.77734-.67969.96615.96615,0,0,0-.918.749h1.69531Z"/><path d="M288.8739,131.46332h.89648l-1.03613,4.67188h-.89648l.09863-.4209a1.27446,1.27446,0,0,1-1.01563.50488,1.24706,1.24706,0,0,1-1.28906-1.40136,1.97726,1.97726,0,0,1,1.78613-2.14942,1.27728,1.27728,0,0,1,1.07911.53223Zm-1.56152,3.96387a1.009,1.009,0,0,0,.77832-.39844l.25781-1.17676a.93215.93215,0,0,0-.791-.39257,1.09209,1.09209,0,0,0-.99414,1.17675A.73571.73571,0,0,0,287.31238,135.42719Z"/><path d="M293.47937,132.3393h-1.36524l.19629-.876H296.036l-.18945.876h-1.36524l-.834,3.7959h-1.001Z"/><path d="M296.08093,132.75239h.89063l-.10547.44824a1.538,1.538,0,0,1,1.19726-.52539l-.18945.88183a1.40069,1.40069,0,0,0-.32813-.042,1.19761,1.19761,0,0,0-.84179.40625l-.48242,2.21387h-.88965Z"/><path d="M301.12976,132.75239h.89648l-.75,3.38281h-.89648l.09863-.4209a1.27444,1.27444,0,0,1-1.01562.50488,1.24685,1.24685,0,0,1-1.28809-1.40136,1.97651,1.97651,0,0,1,1.78516-2.14942,1.27477,1.27477,0,0,1,1.0791.53223Zm-1.27539,2.6748a1.00743,1.00743,0,0,0,.77832-.39844l.25879-1.17676a.93215.93215,0,0,0-.791-.39257,1.09143,1.09143,0,0,0-.99414,1.17675A.735.735,0,0,0,299.85437,135.42719Z"/><path d="M303.11706,133.52973h-.55957l.168-.77734h.56055l.041-.18262a1.29514,1.29514,0,0,1,1.26758-1.17676,1.36753,1.36753,0,0,1,.74219.18945l-.30762.60254a.54161.54161,0,0,0-.32226-.09082c-.27246,0-.41992.168-.49024.47559l-.042.18262h.69336l-.1748.77734h-.68653l-.57422,2.60547H302.536Zm2.29,0h-.56054l.168-.77734h.56055l.043-.18262a1.29444,1.29444,0,0,1,1.26758-1.17676,1.36973,1.36973,0,0,1,.74219.18945l-.3086.60254a.54161.54161,0,0,0-.32226-.09082c-.27344,0-.41993.168-.49024.47559l-.041.18262h.69336l-.17579.77734h-.68652l-.57422,2.60547h-.89648Zm2.2627-.77734h.88965l-.75,3.38281h-.88868Zm.72168-1.5625a.46.46,0,0,1,.47558.45605.60081.60081,0,0,1-.59472.60938.455.455,0,0,1-.47657-.45606A.6062.6062,0,0,1,308.39148,131.18989Z"/><path d="M310.96765,132.6684a1.50236,1.50236,0,0,1,1.37305.665l-.666.51172a.80142.80142,0,0,0-.707-.38574,1.09617,1.09617,0,0,0-1.06445,1.17675.77532.77532,0,0,0,.84765.791.93659.93659,0,0,0,.707-.33594l.48243.59571a1.75067,1.75067,0,0,1-1.28125.53222,1.50894,1.50894,0,0,1-1.66016-1.541A1.971,1.971,0,0,1,310.96765,132.6684Z"/><line class="cls-5" x1="96.40012" y1="139.48989" x2="202.68406" y2="139.48989"/><path d="M127.10339,131.46332h3.30567l-.19629.8545h-2.30469l-.2168,1.01562h2.25488l-.18847.85449H127.495l-.23828,1.08594h2.30469l-.18262.86133h-3.30566Z"/><path d="M133.078,134.11762a1.10241,1.10241,0,0,0,.03516-.22363c0-.31543-.252-.43457-.51856-.43457a1.25572,1.25572,0,0,0-.85351.39257l-.50489,2.28321h-.88964l.75-3.38281h.88964l-.09863.4414a1.6081,1.6081,0,0,1,1.12793-.52539c.65137,0,1.05762.34277,1.05762.86817a2.16507,2.16507,0,0,1-.03516.27343l-.51855,2.3252h-.88965Z"/><path d="M136.66491,132.6684a1.50121,1.50121,0,0,1,1.37305.665l-.665.51172a.8019.8019,0,0,0-.708-.38574,1.09677,1.09677,0,0,0-1.06445,1.17675.77582.77582,0,0,0,.84766.791.93659.93659,0,0,0,.707-.33594l.4834.59571a1.75245,1.75245,0,0,1-1.28125.53222,1.50845,1.50845,0,0,1-1.66016-1.541A1.97023,1.97023,0,0,1,136.66491,132.6684Z"/><path d="M138.98132,132.75239h.88965l-.10547.44824a1.538,1.538,0,0,1,1.19727-.52539l-.18848.88183a1.4193,1.4193,0,0,0-.3291-.042,1.19543,1.19543,0,0,0-.84082.40625l-.4834,2.21387h-.88965Z"/><path d="M141.33386,136.70942a.4583.4583,0,0,0,.41992-.23828l.21-.31543-.60254-3.40332h.92481l.35742,2.35253,1.415-2.35253h.98047l-2.46582,3.93554a1.40938,1.40938,0,0,1-1.30957.81934,1.8019,1.8019,0,0,1-.56739-.084l.29395-.7705A.94943.94943,0,0,0,141.33386,136.70942Z"/><path d="M145.495,137.42328h-.88965l1.03711-4.67089h.88965l-.09863.41992a1.289,1.289,0,0,1,1.02246-.50391,1.24859,1.24859,0,0,1,1.28223,1.40039,1.98656,1.98656,0,0,1-1.7793,2.15039,1.25936,1.25936,0,0,1-1.07812-.53222Zm1.56153-3.96386a1.02427,1.02427,0,0,0-.77735.40625l-.25879,1.17675a.932.932,0,0,0,.791.38477,1.08664,1.08664,0,0,0,.99512-1.17578A.73673.73673,0,0,0,147.05652,133.45942Z"/><path d="M149.5448,135.25239l.37793-1.7295h-.56055l.17481-.7705h.56054l.20313-.92481h.89648l-.20312.92481h.68652l-.18164.7705h-.68652l-.32227,1.47071a.96725.96725,0,0,0-.01465.13964c0,.18262.10547.29395.33008.29395a.46252.46252,0,0,0,.24512-.06934l.03418.71387a1.03691,1.03691,0,0,1-.55957.14746c-.60254,0-1.00879-.23144-1.00879-.73535A1.05,1.05,0,0,1,149.5448,135.25239Z"/><path d="M153.828,132.6684a1.43866,1.43866,0,0,1,1.51953,1.5127,2.25094,2.25094,0,0,1-.06933.54589h-2.51465v.084a.83057.83057,0,0,0,.9248.70019,1.51815,1.51815,0,0,0,.85449-.25195l.2793.60938a2.19666,2.19666,0,0,1-1.19726.35058c-1.06446,0-1.751-.57422-1.751-1.51953A1.9765,1.9765,0,0,1,153.828,132.6684Zm.72168,1.38672a.69122.69122,0,0,0-.77734-.67969.96614.96614,0,0,0-.918.749h1.69531Z"/><path d="M159.1737,131.46332h.89649l-1.03711,4.67188h-.89649l.09864-.4209a1.27446,1.27446,0,0,1-1.01563.50488,1.24754,1.24754,0,0,1-1.28906-1.40136,1.97726,1.97726,0,0,1,1.78613-2.14942,1.27728,1.27728,0,0,1,1.0791.53223Zm-1.5625,3.96387a1.00894,1.00894,0,0,0,.77832-.39844l.25879-1.17676a.93528.93528,0,0,0-.792-.39257,1.09209,1.09209,0,0,0-.99414,1.17675A.73571.73571,0,0,0,157.6112,135.42719Z"/><path d="M163.77917,132.3393H162.413l.19629-.876h3.72559l-.18848.876h-1.36621l-.833,3.7959h-1.00195Z"/><path d="M166.38074,132.75239h.88964l-.10547.44824a1.538,1.538,0,0,1,1.19727-.52539l-.18848.88183a1.41922,1.41922,0,0,0-.3291-.042,1.19547,1.19547,0,0,0-.84082.40625l-.4834,2.21387h-.88964Z"/><path d="M171.42859,132.75239h.89648l-.749,3.38281h-.89649l.09766-.4209a1.27446,1.27446,0,0,1-1.01563.50488,1.24685,1.24685,0,0,1-1.28808-1.40136,1.97658,1.97658,0,0,1,1.78613-2.14942,1.27425,1.27425,0,0,1,1.07813.53223Zm-1.27442,2.6748a1.0055,1.0055,0,0,0,.77735-.39844l.25879-1.17676a.93215.93215,0,0,0-.791-.39257,1.09209,1.09209,0,0,0-.99414,1.17675A.73518.73518,0,0,0,170.15417,135.42719Z"/><path d="M173.41589,133.52973h-.55957l.168-.77734h.56055l.042-.18262a1.29444,1.29444,0,0,1,1.26758-1.17676,1.36967,1.36967,0,0,1,.74218.18945l-.30859.60254a.54161.54161,0,0,0-.32226-.09082c-.27247,0-.41993.168-.49024.47559l-.042.18262h.69336l-.17481.77734h-.68652l-.57422,2.60547h-.89648Zm2.291,0h-.56055l.168-.77734h.56055l.042-.18262a1.29513,1.29513,0,0,1,1.26758-1.17676,1.36967,1.36967,0,0,1,.74218.18945l-.30761.60254a.54366.54366,0,0,0-.32227-.09082c-.27344,0-.4209.168-.49023.47559l-.042.18262h.69336l-.17578.77734h-.68652l-.57422,2.60547h-.89648Zm2.26172-.77734h.88964l-.749,3.38281h-.88965Zm.72168-1.5625a.45935.45935,0,0,1,.47558.45605.60082.60082,0,0,1-.59473.60938.45554.45554,0,0,1-.47656-.45606A.6062.6062,0,0,1,178.69031,131.18989Z"/><path d="M181.26648,132.6684a1.50119,1.50119,0,0,1,1.373.665l-.666.51172a.80029.80029,0,0,0-.707-.38574,1.09618,1.09618,0,0,0-1.06446,1.17675.77532.77532,0,0,0,.84766.791.93659.93659,0,0,0,.707-.33594l.4834.59571a1.75308,1.75308,0,0,1-1.28223.53222,1.50814,1.50814,0,0,1-1.65918-1.541A1.97023,1.97023,0,0,1,181.26648,132.6684Z"/><path d="M162.47245,66.10205a2.69218,2.69218,0,0,1-3.02539,2.66211h-1.835l1.0293-4.67187H160.448A2.0029,2.0029,0,0,1,162.47245,66.10205Zm-1.03613.06348a1.14957,1.14957,0,0,0-1.17676-1.19726h-.8125l-.64453,2.91992h.82617A1.70051,1.70051,0,0,0,161.43632,66.16553Z"/><path d="M164.92558,65.29737a1.43866,1.43866,0,0,1,1.51953,1.51269,2.251,2.251,0,0,1-.06934.5459h-2.51465v.084a.83059.83059,0,0,0,.92481.7002,1.5182,1.5182,0,0,0,.85449-.252l.2793.60937a2.1967,2.1967,0,0,1-1.19727.35059c-1.06445,0-1.751-.57422-1.751-1.51953A1.9765,1.9765,0,0,1,164.92558,65.29737Zm.72168,1.38672a.69122.69122,0,0,0-.77735-.67969.96615.96615,0,0,0-.918.749h1.69532Z"/><path d="M169.0037,65.29737a1.50122,1.50122,0,0,1,1.373.665l-.665.51171a.80191.80191,0,0,0-.708-.38574,1.09677,1.09677,0,0,0-1.06445,1.17676.77582.77582,0,0,0,.84766.791.9366.9366,0,0,0,.707-.33594l.48339.5957a1.75238,1.75238,0,0,1-1.28125.53223,1.50844,1.50844,0,0,1-1.66015-1.541A1.97022,1.97022,0,0,1,169.0037,65.29737Z"/><path d="M171.32011,65.38135h.88965l-.10547.44824a1.538,1.538,0,0,1,1.19726-.52539l-.18847.88282a1.35449,1.35449,0,0,0-.3291-.043,1.19539,1.19539,0,0,0-.84082.40625l-.4834,2.21386h-.88965Z"/><path d="M173.67265,69.33838a.45828.45828,0,0,0,.41992-.23828l.21-.31543L173.7,65.38135h.92481l.35742,2.35254,1.415-2.35254h.98047l-2.46582,3.93555a1.40937,1.40937,0,0,1-1.30958.81933,1.80184,1.80184,0,0,1-.56738-.084l.29395-.77051A.94921.94921,0,0,0,173.67265,69.33838Z"/><path d="M177.83378,70.05225h-.88965l1.03711-4.6709h.88965l-.09863.41992a1.28906,1.28906,0,0,1,1.02246-.5039,1.24858,1.24858,0,0,1,1.28222,1.40039,1.98656,1.98656,0,0,1-1.77929,2.15039,1.25936,1.25936,0,0,1-1.07813-.53223Zm1.56152-3.96387a1.02428,1.02428,0,0,0-.77734.40625l-.25879,1.17676a.932.932,0,0,0,.791.38477,1.08665,1.08665,0,0,0,.99511-1.17579A.73673.73673,0,0,0,179.3953,66.08838Z"/><path d="M181.88358,67.88135l.37793-1.72949H181.701l.1748-.77051h.56055l.20312-.9248h.89649l-.20313.9248h.68653l-.18164.77051h-.68653l-.32226,1.4707a.96739.96739,0,0,0-.01465.13965c0,.18262.10547.294.33008.294a.46246.46246,0,0,0,.24511-.06934l.03418.71387a1.03686,1.03686,0,0,1-.55957.14746c-.60254,0-1.00879-.23145-1.00879-.73535A1.05075,1.05075,0,0,1,181.88358,67.88135Z"/><path d="M186.16679,65.29737a1.43866,1.43866,0,0,1,1.51953,1.51269,2.251,2.251,0,0,1-.06934.5459h-2.51465v.084a.83059.83059,0,0,0,.92481.7002,1.5182,1.5182,0,0,0,.85449-.252l.2793.60937a2.1967,2.1967,0,0,1-1.19727.35059c-1.06445,0-1.751-.57422-1.751-1.51953A1.9765,1.9765,0,0,1,186.16679,65.29737Zm.72168,1.38672a.69122.69122,0,0,0-.77735-.67969.96613.96613,0,0,0-.918.749h1.69531Z"/><path d="M191.51249,64.09229h.89649l-1.03711,4.67187h-.89649l.09863-.42089a1.27443,1.27443,0,0,1-1.01562.50488,1.24754,1.24754,0,0,1-1.28906-1.40137,1.97726,1.97726,0,0,1,1.78613-2.14941,1.2773,1.2773,0,0,1,1.0791.53222ZM189.95,68.05616a1.009,1.009,0,0,0,.77832-.39844l.25879-1.17676a.93526.93526,0,0,0-.792-.39258,1.09209,1.09209,0,0,0-.99414,1.17676A.7357.7357,0,0,0,189.95,68.05616Z"/><path d="M166.448,71.96827H165.0828l.19629-.876h3.72559l-.18945.876H167.45l-.834,3.79589h-1.001Z"/><path d="M169.0496,72.38135h.88965l-.10547.44824a1.54161,1.54161,0,0,1,1.19824-.52539l-.18945.88282a1.33917,1.33917,0,0,0-.3291-.043,1.19539,1.19539,0,0,0-.84082.40625l-.48242,2.21386h-.88965Z"/><path d="M174.09843,72.38135h.89648l-.75,3.38281h-.89648l.09863-.42089a1.27444,1.27444,0,0,1-1.01562.50488,1.24755,1.24755,0,0,1-1.28907-1.40137,1.97726,1.97726,0,0,1,1.78614-2.14941,1.2773,1.2773,0,0,1,1.0791.53222ZM172.823,75.05616a1.009,1.009,0,0,0,.77832-.39844l.25879-1.17676a.93526.93526,0,0,0-.792-.39258,1.0921,1.0921,0,0,0-.99415,1.17676A.73571.73571,0,0,0,172.823,75.05616Z"/><path d="M176.08573,73.15869h-.56054l.168-.77734h.56054l.042-.18262a1.29513,1.29513,0,0,1,1.26758-1.17675,1.36744,1.36744,0,0,1,.74219.18945l-.30762.60254a.54154.54154,0,0,0-.32226-.09082c-.27344,0-.41992.168-.49024.47558l-.042.18262h.69336l-.1748.77734h-.68653l-.57422,2.60547h-.89648Zm2.29,0h-.56054l.168-.77734h.56055l.042-.18262a1.29584,1.29584,0,0,1,1.26758-1.17675,1.373,1.373,0,0,1,.74317.18945l-.3086.60254a.54154.54154,0,0,0-.32226-.09082c-.27344,0-.41993.168-.49024.47558l-.042.18262h.69336l-.17481.77734h-.68652l-.57422,2.60547h-.89648Zm2.2627-.77734h.88867l-.749,3.38281h-.88965Zm.7207-1.5625a.46022.46022,0,0,1,.47656.45606.60158.60158,0,0,1-.5957.60937.45527.45527,0,0,1-.47559-.45605A.606.606,0,0,1,181.35917,70.81885Z"/><path d="M183.93534,72.29737a1.50122,1.50122,0,0,1,1.37305.665l-.665.51171a.8019.8019,0,0,0-.708-.38574,1.09677,1.09677,0,0,0-1.06445,1.17676.77582.77582,0,0,0,.84766.791.93659.93659,0,0,0,.707-.33594l.4834.5957a1.75241,1.75241,0,0,1-1.28125.53223,1.50845,1.50845,0,0,1-1.66016-1.541A1.97022,1.97022,0,0,1,183.93534,72.29737Z"/><path d="M60.329,160.00629H61.243v7.33789H60.329Z"/><path d="M66.40222,163.86762c0-.93555-.47363-1.23242-1.18848-1.23242a2.0511,2.0511,0,0,0-1.57226.82519v3.88379h-.82617v-5.31347h.82617v.76953a2.63422,2.63422,0,0,1,1.8916-.90137,1.50987,1.50987,0,0,1,1.69433,1.71582v3.72949h-.82519Z"/><path d="M68.93152,166.23285v-3.47656h-.87989v-.72558h.87989v-1.45215h.82519v1.45215h1.07813v.72558H69.75671v3.30078c0,.39551.17578.68164.53906.68164a.79418.79418,0,0,0,.56055-.21972l.24219.61621a1.34742,1.34742,0,0,1-.99024.34082A1.08681,1.08681,0,0,1,68.93152,166.23285Z"/><path d="M74.20007,161.89887a2.58,2.58,0,0,1,2.55274,2.84863v.209H72.452a1.87159,1.87159,0,0,0,1.91407,1.83789,2.32183,2.32183,0,0,0,1.63867-.6709l.39648.53906a2.88939,2.88939,0,0,1-2.1123.81348,2.792,2.792,0,0,1-.08887-5.57715ZM72.452,164.352h3.48633a1.72158,1.72158,0,0,0-1.748-1.77148A1.77167,1.77167,0,0,0,72.452,164.352Z"/><path d="M77.97351,162.03071h.82519v.85742a2.25859,2.25859,0,0,1,1.77051-.96778v.84668a1.48129,1.48129,0,0,0-.33008-.03222,1.94187,1.94187,0,0,0-1.44043.84668v3.76269h-.82519Z"/><path d="M85.08,163.86762c0-.93555-.47363-1.23242-1.18847-1.23242a2.05112,2.05112,0,0,0-1.57227.82519v3.88379H81.493v-5.31347h.82617v.76953a2.63424,2.63424,0,0,1,1.8916-.90137,1.50988,1.50988,0,0,1,1.69434,1.71582v3.72949H85.08Z"/><path d="M90.76648,166.73871a2.296,2.296,0,0,1-1.75977.73731,1.769,1.769,0,0,1-1.85937-1.75977,1.74067,1.74067,0,0,1,1.85937-1.75,2.22108,2.22108,0,0,1,1.75977.72657v-.957c0-.71484-.57227-1.12207-1.3418-1.12207a2.10969,2.10969,0,0,0-1.62891.73731l-.38476-.57227a2.77884,2.77884,0,0,1,2.123-.87988c1.123,0,2.05761.50586,2.05761,1.793v3.65234h-.82519Zm0-1.51757a1.77708,1.77708,0,0,0-1.46289-.66016,1.16911,1.16911,0,1,0,0,2.32129,1.77708,1.77708,0,0,0,1.46289-.66016Z"/><path d="M93.13171,160.00629h.82422v7.33789h-.82422Z"/><path d="M64.02527,174.6811a3.663,3.663,0,0,1,3.74121-3.7959,3.30158,3.30158,0,0,1,2.8164,1.45215l-.7705.42871a2.49017,2.49017,0,0,0-2.0459-1.06641,2.98767,2.98767,0,0,0,0,5.96289,2.46373,2.46373,0,0,0,2.0459-1.06738l.78027.42871a3.33523,3.33523,0,0,1-2.82617,1.45215A3.66278,3.66278,0,0,1,64.02527,174.6811Z"/><path d="M71.61609,171.00629h.82422v7.33789h-.82422Z"/><path d="M73.83679,171.57856a.55569.55569,0,0,1,1.11133,0,.55569.55569,0,1,1-1.11133,0Zm.14355,1.45215h.8252v5.31347h-.8252Z"/><path d="M78.65515,172.89887a2.58,2.58,0,0,1,2.55273,2.84863v.209H76.9071a1.87159,1.87159,0,0,0,1.91406,1.83789,2.32185,2.32185,0,0,0,1.63868-.6709l.39648.53906a2.88939,2.88939,0,0,1-2.1123.81348,2.792,2.792,0,0,1-.08887-5.57715ZM76.9071,175.352h3.48633a1.72159,1.72159,0,0,0-1.748-1.77148A1.77166,1.77166,0,0,0,76.9071,175.352Z"/><path d="M86.01452,174.86762c0-.93555-.47265-1.23242-1.1875-1.23242a2.05148,2.05148,0,0,0-1.57324.82519v3.88379h-.82519v-5.31347h.82519v.76953a2.638,2.638,0,0,1,1.8916-.90137,1.51057,1.51057,0,0,1,1.69532,1.71582v3.72949h-.82618Z"/><path d="M88.5448,177.23285v-3.47656h-.87989v-.72558h.87989v-1.45215H89.37v1.45215h1.07813v.72558H89.37v3.30078c0,.39551.17578.68164.53907.68164a.79417.79417,0,0,0,.56054-.21972l.24219.61621a1.3474,1.3474,0,0,1-.99023.34082A1.08682,1.08682,0,0,1,88.5448,177.23285Z"/><path d="M343.85925,164.00629h4.80762v.81348h-3.89453V167.186h3.81738v.81348h-3.81738v2.53027h3.89453v.81445h-4.80762Z"/><path d="M351.82312,169.16547l-1.59473,2.17871h-.94629l2.03516-2.72851-1.92481-2.585h.957l1.47363,2.02441,1.47461-2.02441h.957l-1.92481,2.585,2.0459,2.72851h-.957Z"/><path d="M355.37585,170.23285v-3.47656H354.495v-.72558h.88086v-1.45215h.8252v1.45215h1.07812v.72558h-1.07812v3.30078c0,.39551.17578.68164.53906.68164a.796.796,0,0,0,.56055-.21972l.24218.61621a1.34738,1.34738,0,0,1-.99023.34082A1.08682,1.08682,0,0,1,355.37585,170.23285Z"/><path d="M360.64441,165.89887a2.58051,2.58051,0,0,1,2.55273,2.84863v.209h-4.30176a1.87283,1.87283,0,0,0,1.91407,1.83789,2.32411,2.32411,0,0,0,1.63964-.6709l.39649.53906a2.88942,2.88942,0,0,1-2.11231.81348,2.79193,2.79193,0,0,1-.08886-5.57715Zm-1.749,2.45312h3.48731a1.72243,1.72243,0,0,0-1.749-1.77148A1.773,1.773,0,0,0,358.89538,168.352Z"/><path d="M364.41784,166.03071h.8252v.85742a2.25857,2.25857,0,0,1,1.77051-.96778v.84668a1.48142,1.48142,0,0,0-.33008-.03222,1.94187,1.94187,0,0,0-1.44043.84668v3.76269h-.8252Z"/><path d="M371.52429,167.86762c0-.93555-.47363-1.23242-1.18848-1.23242a2.05309,2.05309,0,0,0-1.57324.82519v3.88379h-.82519v-5.31347h.82519v.76953a2.63838,2.63838,0,0,1,1.89258-.90137,1.50988,1.50988,0,0,1,1.69434,1.71582v3.72949h-.8252Z"/><path d="M377.21081,170.73871a2.29811,2.29811,0,0,1-1.76074.73731,1.7687,1.7687,0,0,1-1.8584-1.75977,1.7404,1.7404,0,0,1,1.8584-1.75,2.22178,2.22178,0,0,1,1.76074.72657v-.957c0-.71484-.57226-1.12207-1.34277-1.12207a2.10912,2.10912,0,0,0-1.62793.73731l-.38477-.57227a2.77887,2.77887,0,0,1,2.123-.87988c1.12207,0,2.05762.50586,2.05762,1.793v3.65234h-.8252Zm0-1.51757a1.77834,1.77834,0,0,0-1.46289-.66016,1.16911,1.16911,0,1,0,0,2.32129,1.77834,1.77834,0,0,0,1.46289-.66016Z"/><path d="M379.57507,164.00629h.8252v7.33789h-.8252Z"/><path d="M343.08972,179.42914h-1.46289v2.915h-.91406v-7.33789H343.662a2.13718,2.13718,0,0,1,2.29882,2.21094,2.02808,2.02808,0,0,1-1.90332,2.13476l1.98047,2.99219h-1.07812Zm.46191-3.60937h-1.9248v2.80566h1.9248a1.40406,1.40406,0,1,0,0-2.80566Z"/><path d="M349.23816,176.89887a2.58051,2.58051,0,0,1,2.55273,2.84863v.209h-4.30176a1.87283,1.87283,0,0,0,1.91407,1.83789,2.32411,2.32411,0,0,0,1.63964-.6709l.39649.53906a2.88942,2.88942,0,0,1-2.11231.81348,2.79193,2.79193,0,0,1-.08886-5.57715Zm-1.749,2.45312h3.48731a1.72243,1.72243,0,0,0-1.749-1.77148A1.773,1.773,0,0,0,347.48913,179.352Z"/><path d="M352.97741,181.04633a2.41236,2.41236,0,0,0,1.75.75879c.81348,0,1.25391-.36328,1.25391-.87988,0-.583-.64941-.77051-1.36426-.94629-.90234-.209-1.92578-.45117-1.92578-1.55176,0-.82422.71582-1.52832,1.98047-1.52832a2.69192,2.69192,0,0,1,1.96973.76953l-.38477.57227a2.07221,2.07221,0,0,0-1.585-.6709c-.72559,0-1.17676.33008-1.17676.80273,0,.51758.6045.68262,1.29785.84766.92481.209,1.99122.47266,1.99122,1.64941,0,.8916-.71485,1.60645-2.08985,1.60645a2.8261,2.8261,0,0,1-2.14551-.83594Z"/><path d="M357.70788,179.68207a2.63424,2.63424,0,1,1,2.62891,2.79395A2.60656,2.60656,0,0,1,357.70788,179.68207Zm4.38965,0a1.78663,1.78663,0,1,0-1.76074,2.05664A1.84756,1.84756,0,0,0,362.09753,179.68207Z"/><path d="M367.78406,181.59614a2.59858,2.59858,0,0,1-1.89161.87988,1.49456,1.49456,0,0,1-1.69433-1.69434v-3.751h.82519v3.498c0,.93555.47266,1.21,1.1875,1.21a2.03253,2.03253,0,0,0,1.57325-.80273v-3.90527h.82519v5.31347h-.82519Z"/><path d="M370.14929,177.03071h.8252v.85742a2.25857,2.25857,0,0,1,1.7705-.96778v.84668a1.48129,1.48129,0,0,0-.33008-.03222,1.94187,1.94187,0,0,0-1.44042.84668v3.76269h-.8252Z"/><path d="M376.01159,176.89887a2.273,2.273,0,0,1,1.94727.92383l-.5498.50586a1.57546,1.57546,0,0,0-1.35352-.69336,2.06432,2.06432,0,0,0,0,4.10351,1.60287,1.60287,0,0,0,1.35352-.69238l.5498.50586a2.273,2.273,0,0,1-1.94727.92383,2.79213,2.79213,0,0,1,0-5.57715Z"/><path d="M381.31335,176.89887a2.58051,2.58051,0,0,1,2.55274,2.84863v.209h-4.30176a1.87283,1.87283,0,0,0,1.91406,1.83789,2.32413,2.32413,0,0,0,1.63965-.6709l.39648.53906a2.88939,2.88939,0,0,1-2.1123.81348,2.79193,2.79193,0,0,1-.08887-5.57715Zm-1.749,2.45312h3.4873a1.72243,1.72243,0,0,0-1.749-1.77148A1.773,1.773,0,0,0,379.56433,179.352Z"/><path d="M185.12976,164.00629h4.80859v.81348h-3.89453V167.186h3.81738v.81348h-3.81738v3.34472h-.91406Z"/><path d="M191.4989,169.69379a2.41557,2.41557,0,0,0,2.02441.96875,1.58456,1.58456,0,0,0,1.69434-1.57324,1.54683,1.54683,0,0,0-1.68359-1.585,2.29846,2.29846,0,0,0-1.69336.69336l-.67188-.23145v-3.96h4.48926v.81348h-3.57617v2.55273a2.48594,2.48594,0,0,1,1.71679-.66015,2.248,2.248,0,0,1,2.332,2.34375,2.40242,2.40242,0,0,1-2.60743,2.41992,2.99611,2.99611,0,0,1-2.585-1.17676Z"/><path d="M200.17761,164.00629h2.50879a3.67009,3.67009,0,1,1,0,7.33789h-2.50879Zm2.50879,6.52344a2.85524,2.85524,0,0,0,0-5.71h-1.5957v5.71Z"/><path d="M210.0448,165.89887a2.58051,2.58051,0,0,1,2.55273,2.84863v.209h-4.30176a1.87283,1.87283,0,0,0,1.91407,1.83789,2.32413,2.32413,0,0,0,1.63965-.6709l.39648.53906a2.8894,2.8894,0,0,1-2.11231.81348,2.79193,2.79193,0,0,1-.08886-5.57715Zm-1.749,2.45312h3.48731a1.72243,1.72243,0,0,0-1.749-1.77148A1.773,1.773,0,0,0,208.29577,168.352Z"/><path d="M216.161,165.89887a2.273,2.273,0,0,1,1.94726.92383l-.5498.50586a1.57545,1.57545,0,0,0-1.35352-.69336,2.06432,2.06432,0,0,0,0,4.10351,1.60286,1.60286,0,0,0,1.35352-.69238l.5498.50586a2.273,2.273,0,0,1-1.94726.92383,2.79212,2.79212,0,0,1,0-5.57715Z"/><path d="M219.15222,166.03071h.82519v.85742a2.25893,2.25893,0,0,1,1.77149-.96778v.84668a1.49365,1.49365,0,0,0-.33008-.03222,1.94549,1.94549,0,0,0-1.44141.84668v3.76269h-.82519Z"/><path d="M222.95886,172.76313a.765.765,0,0,0,.792-.56055l.35156-.80371-2.22167-5.36816h.89062l1.77148,4.35644,1.75977-4.35644h.90234l-2.66211,6.3916a1.57937,1.57937,0,0,1-1.5625,1.07812,2.67312,2.67312,0,0,1-.60449-.07715l.13184-.748A1.27007,1.27007,0,0,0,222.95886,172.76313Z"/><path d="M227.953,173.3686v-7.33789h.8252v.792a2.22006,2.22006,0,0,1,1.793-.92383c1.39747,0,2.36524,1.05566,2.36524,2.7832,0,1.71582-.96777,2.79395-2.36524,2.79395a2.1762,2.1762,0,0,1-1.793-.93457v2.82715Zm2.40918-6.7334a1.96464,1.96464,0,0,0-1.584.84765v2.39844a1.9729,1.9729,0,0,0,1.584.85742c1.06738,0,1.70508-.87988,1.70508-2.05664C232.06726,167.50434,231.42956,166.6352,230.36218,166.6352Z"/><path d="M234.32116,170.23285v-3.47656h-.87988v-.72558h.87988v-1.45215h.8252v1.45215h1.07813v.72558h-1.07813v3.30078c0,.39551.17578.68164.53906.68164a.79671.79671,0,0,0,.56153-.21972l.24121.61621a1.3465,1.3465,0,0,1-.98926.34082A1.08751,1.08751,0,0,1,234.32116,170.23285Z"/><path d="M237.13757,164.57856a.55569.55569,0,0,1,1.11133,0,.55569.55569,0,1,1-1.11133,0Zm.14258,1.45215h.82519v5.31347h-.82519Z"/><path d="M239.33777,168.68207a2.63424,2.63424,0,1,1,2.6289,2.79395A2.60656,2.60656,0,0,1,239.33777,168.68207Zm4.38964,0a1.78663,1.78663,0,1,0-1.76074,2.05664A1.84756,1.84756,0,0,0,243.72741,168.68207Z"/><path d="M249.41394,167.86762c0-.93555-.47266-1.23242-1.1875-1.23242a2.05145,2.05145,0,0,0-1.57324.82519v3.88379h-.8252v-5.31347h.8252v.76953a2.63609,2.63609,0,0,1,1.8916-.90137,1.50987,1.50987,0,0,1,1.69433,1.71582v3.72949h-.82519Z"/><path d="M253.56042,163.78657h.64942l-2.60743,7.77734H250.953Z"/><path d="M173.24988,175.00629h4.80859v.81348h-3.89453V178.186h3.81738v.81348h-3.81738v2.53027h3.89453v.81445h-4.80859Z"/><path d="M182.953,178.86762c0-.93555-.47363-1.23242-1.18848-1.23242a2.0531,2.0531,0,0,0-1.57324.82519v3.88379h-.82519v-5.31347h.82519v.76953a2.6384,2.6384,0,0,1,1.89258-.90137,1.50988,1.50988,0,0,1,1.69434,1.71582v3.72949h-.8252Z"/><path d="M187.66,176.89887a2.273,2.273,0,0,1,1.94727.92383l-.54981.50586a1.57545,1.57545,0,0,0-1.35351-.69336,2.06432,2.06432,0,0,0,0,4.10351,1.60285,1.60285,0,0,0,1.35351-.69238l.54981.50586a2.273,2.273,0,0,1-1.94727.92383,2.79212,2.79212,0,0,1,0-5.57715Z"/><path d="M190.65222,177.03071h.82519v.85742a2.2586,2.2586,0,0,1,1.77051-.96778v.84668a1.48129,1.48129,0,0,0-.33008-.03222,1.94191,1.94191,0,0,0-1.44043.84668v3.76269h-.82519Z"/><path d="M194.45788,183.76313a.76366.76366,0,0,0,.792-.56055l.35253-.80371-2.22265-5.36816h.8916l1.77051,4.35644,1.76074-4.35644h.90234l-2.66308,6.3916a1.57743,1.57743,0,0,1-1.56153,1.07812,2.68173,2.68173,0,0,1-.60546-.07715l.13183-.748A1.27432,1.27432,0,0,0,194.45788,183.76313Z"/><path d="M199.452,184.3686v-7.33789h.8252v.792a2.22008,2.22008,0,0,1,1.793-.92383c1.39746,0,2.36523,1.05566,2.36523,2.7832,0,1.71582-.96777,2.79395-2.36523,2.79395a2.17621,2.17621,0,0,1-1.793-.93457v2.82715Zm2.40918-6.7334a1.96464,1.96464,0,0,0-1.584.84765v2.39844a1.9729,1.9729,0,0,0,1.584.85742c1.06739,0,1.70508-.87988,1.70508-2.05664C203.56628,178.50434,202.92859,177.6352,201.8612,177.6352Z"/><path d="M205.82019,181.23285v-3.47656h-.87988v-.72558h.87988v-1.45215h.82519v1.45215h1.07813v.72558h-1.07813v3.30078c0,.39551.17578.68164.53907.68164a.79668.79668,0,0,0,.56152-.21972l.24121.61621a1.34648,1.34648,0,0,1-.98926.34082A1.0875,1.0875,0,0,1,205.82019,181.23285Z"/><path d="M208.63659,175.57856a.55569.55569,0,0,1,1.11133,0,.55569.55569,0,1,1-1.11133,0Zm.14258,1.45215h.8252v5.31347h-.8252Z"/><path d="M210.83679,179.68207a2.63424,2.63424,0,1,1,2.62891,2.79395A2.60656,2.60656,0,0,1,210.83679,179.68207Zm4.38965,0a1.78664,1.78664,0,1,0-1.76074,2.05664A1.84756,1.84756,0,0,0,215.22644,179.68207Z"/><path d="M220.913,178.86762c0-.93555-.47363-1.23242-1.18847-1.23242a2.05311,2.05311,0,0,0-1.57325.82519v3.88379h-.82519v-5.31347h.82519v.76953a2.6384,2.6384,0,0,1,1.89258-.90137,1.50988,1.50988,0,0,1,1.69434,1.71582v3.72949h-.8252Z"/><path d="M226.038,175.00629h4.8086v.81348H226.952V178.186h3.81739v.81348H226.952v3.34472H226.038Z"/><path d="M235.5321,181.59614a2.60078,2.60078,0,0,1-1.89258.87988,1.49456,1.49456,0,0,1-1.69433-1.69434v-3.751h.82519v3.498c0,.93555.47364,1.21,1.18848,1.21a2.03565,2.03565,0,0,0,1.57324-.80273v-3.90527h.8252v5.31347h-.8252Z"/><path d="M241.4823,178.86762c0-.93555-.47266-1.23242-1.1875-1.23242a2.05145,2.05145,0,0,0-1.57324.82519v3.88379h-.8252v-5.31347h.8252v.76953a2.63607,2.63607,0,0,1,1.8916-.90137,1.50987,1.50987,0,0,1,1.69433,1.71582v3.72949h-.82519Z"/><path d="M246.19031,176.89887a2.273,2.273,0,0,1,1.94726.92383l-.5498.50586a1.57546,1.57546,0,0,0-1.35352-.69336,2.06432,2.06432,0,0,0,0,4.10351,1.60287,1.60287,0,0,0,1.35352-.69238l.5498.50586a2.273,2.273,0,0,1-1.94726.92383,2.79212,2.79212,0,0,1,0-5.57715Z"/><path d="M249.34753,181.23285v-3.47656h-.88086v-.72558h.88086v-1.45215h.8252v1.45215h1.07812v.72558h-1.07812v3.30078c0,.39551.17578.68164.53906.68164a.796.796,0,0,0,.56055-.21972l.24218.61621a1.3474,1.3474,0,0,1-.99023.34082A1.08682,1.08682,0,0,1,249.34753,181.23285Z"/><path d="M252.163,175.57856a.55569.55569,0,0,1,1.11133,0,.55569.55569,0,1,1-1.11133,0Zm.14356,1.45215h.82519v5.31347h-.82519Z"/><path d="M254.36316,179.68207a2.63424,2.63424,0,1,1,2.6289,2.79395A2.60656,2.60656,0,0,1,254.36316,179.68207Zm4.38965,0a1.78664,1.78664,0,1,0-1.76075,2.05664A1.84757,1.84757,0,0,0,258.75281,179.68207Z"/><path d="M264.43933,178.86762c0-.93555-.47266-1.23242-1.1875-1.23242a2.05145,2.05145,0,0,0-1.57324.82519v3.88379h-.8252v-5.31347h.8252v.76953a2.63609,2.63609,0,0,1,1.8916-.90137,1.50987,1.50987,0,0,1,1.69433,1.71582v3.72949h-.82519Z"/><g id="laptop"><g class="cls-6"><line class="cls-7" x1="74.41094" y1="150.4377" x2="79.87644" y2="150.4377"/><g class="cls-6"><path class="cls-7" d="M97.62579,150.3884a2.47811,2.47811,0,0,1-1.3605,2.0955l-38.089.006-.167-.0115a2.40211,2.40211,0,0,1-1.3835-2.0625,2.34233,2.34233,0,0,1,1.3835-2.0365h38.256V126.4899h-38.256v19.1535"/></g></g></g><g id="lock"><rect class="cls-8" x="102.90083" y="135.72573" width="9" height="7.87622"/><path class="cls-9" d="M110.77109,135.72573v-2.24952a3.37026,3.37026,0,1,0-6.74051,0v2.24952"/></g><g id="lock-2" data-name="lock"><rect class="cls-8" x="327.1075" y="135.72573" width="9" height="7.87622"/><path class="cls-9" d="M334.97775,135.72573v-2.24952a3.37025,3.37025,0,1,0-6.7405,0v2.24952"/></g><rect class="cls-10" x="343.80506" y="126.21528" width="30.54997" height="30.54997" rx="5.30511"/><g id="Group_13232-2" data-name="Group 13232-2"><path id="Path_61042" data-name="Path 61042" class="cls-11" d="M354.06435,142.63946a2.51619,2.51619,0,0,1-2.00059.8528,1.93755,1.93755,0,1,1,0-3.87006,2.51618,2.51618,0,0,1,2.00059.85279v-1.31166a1.468,1.468,0,0,0-1.63879-1.44276,2.264,2.264,0,0,0-1.86948.91835l-.22943-.22943a2.5155,2.5155,0,0,1,2.13042-.98453c1.14779,0,2.00059.59059,2.00059,1.73837v4.19783h-.36054v-.7217Zm0-1.80393a2.34793,2.34793,0,0,0-1.90226-.88243,1.62366,1.62366,0,0,0-1.73436,1.50484q-.00363.05115-.004.10244a1.60476,1.60476,0,0,0,1.59664,1.61283q.071.00034.14174-.00556a2.3044,2.3044,0,0,0,1.90226-.88936Z"/><path id="Path_61043" data-name="Path 61043" class="cls-11" d="M356.39269,145.55587V137.551h.36053v.9839a2.5899,2.5899,0,0,1,2.09766-1.11c1.57576,0,2.59117,1.21333,2.59117,3.01726,0,1.83671-1.01667,3.05-2.59117,3.05a2.6,2.6,0,0,1-2.09892-1.14778V145.559Zm2.45819-7.80316a2.53382,2.53382,0,0,0-2.09892,1.14779v3.11559a2.5143,2.5143,0,0,0,2.09892,1.18056c1.41,0,2.19723-1.21334,2.19723-2.72229C361.05,138.9339,360.26275,137.75271,358.85088,137.75271Z"/><path id="Path_61044" data-name="Path 61044" class="cls-11" d="M363.08336,145.55587V137.551h.36054v.9839a2.58988,2.58988,0,0,1,2.09765-1.11c1.57576,0,2.59118,1.21333,2.59118,3.01726,0,1.83671-1.01668,3.05-2.59118,3.05a2.6,2.6,0,0,1-2.09891-1.14778V145.559Zm2.45819-7.80316a2.5338,2.5338,0,0,0-2.09891,1.14779v3.11559a2.51428,2.51428,0,0,0,2.09891,1.18056c1.41,0,2.19724-1.21334,2.19724-2.72229C367.74068,138.9339,366.95343,137.75271,365.54155,137.75271Z"/></g><path class="cls-10" d="M349.87073,126.21528v-.899a5.18181,5.18181,0,0,1,5.16662-5.16663h20.21671a5.18181,5.18181,0,0,1,5.16663,5.16663v20.2167a5.18181,5.18181,0,0,1-5.16663,5.16663h-.899"/><line class="cls-12" x1="125.16416" y1="194.36982" x2="313.47596" y2="194.36982"/><polygon class="cls-13" points="310.162 198.46 309.48 197.727 313.092 194.371 309.48 191.013 310.162 190.281 314.56 194.371 310.162 198.46"/><path d="M186.036,196.92133c3.43926-.05844,2.62242,5.005-.42108,4.83195C182.16762,201.81441,182.98238,196.74507,186.036,196.92133Zm-.06348.88184c-1.72683-.12918-2.36324,3.10029-.30067,3.0684C187.39141,200.99884,188.0364,197.77727,185.97253,197.80317Z"/><path d="M189.8446,200.32465a1.1262,1.1262,0,0,0-.02832.20313c0,.30859.252.43457.56738.43457a1.2519,1.2519,0,0,0,.80567-.39942l.50391-2.27636h.88964l-.749,3.38281h-.88965l.09766-.44141a1.60381,1.60381,0,0,1-1.127.52539c-.65136,0-1.05761-.34277-1.05761-.86816a2.01065,2.01065,0,0,1,.03418-.27344l.51172-2.32519h.89648Z"/><path d="M193.287,200.78754l.37792-1.73047h-.55957l.17481-.7705h.56055l.20312-.92383h.89649l-.20313.92383h.68652l-.18261.7705h-.68653l-.32226,1.47071a.9786.9786,0,0,0-.01367.14062c0,.18164.10546.29395.3291.29395a.46217.46217,0,0,0,.24511-.07032l.03516.71485a1.04039,1.04039,0,0,1-.56055.14648c-.60254,0-1.00879-.23047-1.00879-.73535A1.1054,1.1054,0,0,1,193.287,200.78754Z"/><path d="M196.413,201.66938h-.88965l1.0293-4.6709h.88965l-.37793,1.709a1.28721,1.28721,0,0,1,1.02246-.50488A1.24919,1.24919,0,0,1,199.368,199.604a1.98547,1.98547,0,0,1-1.77832,2.14941,1.25879,1.25879,0,0,1-1.0791-.53222Zm1.27442-2.67481a1.02112,1.02112,0,0,0-.77735.40625l-.25976,1.17578a.93077.93077,0,0,0,.792.38575,1.08749,1.08749,0,0,0,.99414-1.17676A.73571.73571,0,0,0,197.68738,198.99457Z"/><path d="M201.9198,198.20258a1.51195,1.51195,0,0,1,1.68164,1.541,1.98094,1.98094,0,0,1-1.96192,2.00976,1.50083,1.50083,0,0,1-1.67382-1.5332A1.98184,1.98184,0,0,1,201.9198,198.20258Zm-.02735.792a1.10087,1.10087,0,0,0-1.00879,1.17578.72868.72868,0,0,0,.791.792,1.09643,1.09643,0,0,0,1.00195-1.17676A.72649.72649,0,0,0,201.89245,198.99457Z"/><path d="M205.20886,200.32465a1.12068,1.12068,0,0,0-.02734.20313c0,.30859.25195.43457.56738.43457a1.24951,1.24951,0,0,0,.80469-.39942l.50488-2.27636h.88965l-.75,3.38281h-.88965l.09863-.44141a1.60806,1.60806,0,0,1-1.12793.52539c-.65136,0-1.05761-.34277-1.05761-.86816a2.0177,2.0177,0,0,1,.03515-.27344l.51172-2.32519h.89648Z"/><path d="M210.99988,199.65278a1.11275,1.11275,0,0,0,.03515-.22461c0-.31446-.25195-.4336-.51855-.4336a1.25925,1.25925,0,0,0-.85352.3916l-.50488,2.28321h-.88965l.75-3.38281h.88965l-.09863.4414a1.612,1.612,0,0,1,1.12793-.52539c.65136,0,1.05761.34375,1.05761.86816a2.14249,2.14249,0,0,1-.03515.27344l-.51856,2.3252h-.88965Z"/><path d="M215.85339,196.99848h.89649l-1.03614,4.6709h-.89648l.09765-.41992a1.27625,1.27625,0,0,1-1.01562.5039,1.24605,1.24605,0,0,1-1.28809-1.40039,1.9775,1.9775,0,0,1,1.78614-2.15039,1.27667,1.27667,0,0,1,1.07812.53223Zm-1.56152,3.96387a1.00347,1.00347,0,0,0,.77734-.39942l.25879-1.17676a.93385.93385,0,0,0-.791-.3916,1.09117,1.09117,0,0,0-.99415,1.17578A.736.736,0,0,0,214.29187,200.96235Z"/><path d="M221.48913,196.92133a2.07627,2.07627,0,0,1,2.07227,1.32324l-.959.32227a1.17832,1.17832,0,0,0-1.16308-.76367,1.71039,1.71039,0,0,0-1.63184,1.793,1.23666,1.23666,0,0,0,1.31739,1.27539,1.47772,1.47772,0,0,0,1.09961-.54l.76269.52539a2.41525,2.41525,0,0,1-1.91894.89648,2.118,2.118,0,0,1-2.29688-2.09375A2.66744,2.66744,0,0,1,221.48913,196.92133Z"/><path d="M225.60241,198.20258a1.51163,1.51163,0,0,1,1.68067,1.541,1.98074,1.98074,0,0,1-1.96094,2.00976,1.50083,1.50083,0,0,1-1.67383-1.5332A1.98184,1.98184,0,0,1,225.60241,198.20258Zm-.02832.792a1.10087,1.10087,0,0,0-1.00878,1.17578.72942.72942,0,0,0,.792.792,1.09635,1.09635,0,0,0,1.001-1.17676A.72649.72649,0,0,0,225.57409,198.99457Z"/><path d="M230.45886,199.65278a1.18559,1.18559,0,0,0,.03516-.22461c0-.31446-.252-.4336-.51856-.4336a1.26168,1.26168,0,0,0-.85449.3916l-.50391,2.28321h-.88965l.749-3.38281h.88965l-.09766.4414a1.60771,1.60771,0,0,1,1.12695-.52539c.65137,0,1.05762.34375,1.05762.86816a1.98005,1.98005,0,0,1-.03516.27344l-.51757,2.3252h-.88965Z"/><path d="M234.66687,199.65278a1.112,1.112,0,0,0,.03515-.22461c0-.31446-.25195-.4336-.51855-.4336a1.25927,1.25927,0,0,0-.85352.3916l-.50488,2.28321h-.88965l.75-3.38281h.88965l-.09863.4414a1.612,1.612,0,0,1,1.12793-.52539c.65137,0,1.05762.34375,1.05762.86816a2.14261,2.14261,0,0,1-.03516.27344l-.51856,2.3252h-.88964Z"/><path d="M238.24011,198.20258a1.43866,1.43866,0,0,1,1.51953,1.5127,2.25984,2.25984,0,0,1-.06933.54687h-2.51465v.084a.83058.83058,0,0,0,.9248.70019,1.51815,1.51815,0,0,0,.85449-.252l.2793.60937a2.204,2.204,0,0,1-1.19726.34961c-1.06446,0-1.751-.57422-1.751-1.51953A1.9765,1.9765,0,0,1,238.24011,198.20258Zm.72168,1.38672a.69106.69106,0,0,0-.77734-.67871.96614.96614,0,0,0-.918.749h1.69531Z"/><path d="M242.31824,198.20258a1.49969,1.49969,0,0,1,1.373.666l-.665.51074a.80111.80111,0,0,0-.708-.38477,1.09648,1.09648,0,0,0-1.06446,1.17578.77656.77656,0,0,0,.84766.792.93988.93988,0,0,0,.707-.33594l.4834.59473a1.74867,1.74867,0,0,1-1.28125.53222,1.50824,1.50824,0,0,1-1.66016-1.54A1.97046,1.97046,0,0,1,242.31824,198.20258Z"/><path d="M244.35534,200.78754l.37793-1.73047h-.55957l.17481-.7705h.56055l.20312-.92383h.89648l-.20312.92383h.68652l-.18261.7705h-.68653l-.32226,1.47071a.9786.9786,0,0,0-.01367.14062c0,.18164.10546.29395.3291.29395a.46217.46217,0,0,0,.24511-.07032l.03516.71485a1.04039,1.04039,0,0,1-.56055.14648c-.60254,0-1.00879-.23047-1.00879-.73535A1.106,1.106,0,0,1,244.35534,200.78754Z"/><path d="M247.3407,198.28657h.88964l-.749,3.38281h-.88965Zm.72168-1.56153a.45943.45943,0,0,1,.47656.45508.60093.60093,0,0,1-.5957.60937.45534.45534,0,0,1-.47657-.45507A.60554.60554,0,0,1,248.06238,196.725Z"/><path d="M250.59949,198.20258a1.51163,1.51163,0,0,1,1.68066,1.541,1.98074,1.98074,0,0,1-1.96094,2.00976,1.50083,1.50083,0,0,1-1.67383-1.5332A1.98185,1.98185,0,0,1,250.59949,198.20258Zm-.02833.792a1.10087,1.10087,0,0,0-1.00878,1.17578.72942.72942,0,0,0,.792.792,1.09635,1.09635,0,0,0,1.001-1.17676A.72649.72649,0,0,0,250.57116,198.99457Z"/><path d="M255.45691,199.65278a1.18559,1.18559,0,0,0,.03515-.22461c0-.31446-.252-.4336-.51855-.4336a1.26168,1.26168,0,0,0-.85449.3916l-.50391,2.28321h-.88965l.749-3.38281h.88964l-.09765.4414a1.60769,1.60769,0,0,1,1.12695-.52539c.65137,0,1.05762.34375,1.05762.86816a1.98005,1.98005,0,0,1-.03516.27344l-.51758,2.3252h-.88965Z"/><path class="cls-14" d="M94.24015,102.2712a3.66358,3.66358,0,0,1,3.74121-3.79589,3.29906,3.29906,0,0,1,2.8164,1.45214l-.77051.42871a2.48876,2.48876,0,0,0-2.04589-1.0664,2.98774,2.98774,0,0,0,0,5.96289,2.46236,2.46236,0,0,0,2.04589-1.06738l.78125.42871a3.33576,3.33576,0,0,1-2.82714,1.45215A3.66334,3.66334,0,0,1,94.24015,102.2712Z"/><path class="cls-14" d="M101.68741,99.16866a.55569.55569,0,0,1,1.11133,0,.55569.55569,0,1,1-1.11133,0Zm.14356,1.45215h.82519v5.31348H101.831Z"/><path class="cls-14" d="M104.162,104.63644a2.41236,2.41236,0,0,0,1.75.75879c.81445,0,1.25391-.36328,1.25391-.87989,0-.583-.64844-.7705-1.36426-.94628-.90137-.209-1.92481-.45118-1.92481-1.55176,0-.82422.71485-1.52832,1.98047-1.52832a2.68945,2.68945,0,0,1,1.96875.76953l-.38476.57226a2.07162,2.07162,0,0,0-1.584-.67089c-.72656,0-1.17773.33007-1.17773.80273,0,.51758.60547.68262,1.29883.84766.92382.209,1.99023.47265,1.99023,1.64941,0,.8916-.71484,1.60645-2.08984,1.60645a2.82392,2.82392,0,0,1-2.14453-.83594Z"/><path class="cls-14" d="M111.54386,100.489a2.27426,2.27426,0,0,1,1.94726.92383l-.5498.50585a1.57548,1.57548,0,0,0-1.35352-.69335,2.0642,2.0642,0,0,0,0,4.10351,1.60289,1.60289,0,0,0,1.35352-.69238l.5498.50586a2.27429,2.27429,0,0,1-1.94726.92383,2.79212,2.79212,0,0,1,0-5.57715Z"/><path class="cls-14" d="M114.22745,103.27218a2.63424,2.63424,0,1,1,2.62988,2.79395A2.60733,2.60733,0,0,1,114.22745,103.27218Zm4.38965,0a1.78622,1.78622,0,1,0-1.75977,2.05664A1.84743,1.84743,0,0,0,118.6171,103.27218Z"/><path class="cls-14" d="M127.47159,100.01534l-1.61719,5.919h-.99023l-2.09082-7.33789H123.786l1.62793,6.11719,1.6836-6.11719h.75976l1.68262,6.11719,1.61719-6.11719h1.01269l-2.09082,7.33789h-.99023Z"/><path class="cls-14" d="M133.1796,104.20675a3.10485,3.10485,0,0,0,2.31055,1.0459c1.30957,0,1.72753-.7041,1.72753-1.26563,0-.87988-.8916-1.12207-1.85937-1.38574-1.17676-.30859-2.48633-.63867-2.48633-2.08008,0-1.21,1.07813-2.03515,2.51953-2.03515a3.4495,3.4495,0,0,1,2.60742,1.02343l-.5498.6709a2.80748,2.80748,0,0,0-2.12305-.87988c-.88086,0-1.50781.47266-1.50781,1.166,0,.7373.84766.957,1.78223,1.21,1.19922.31933,2.56347.69336,2.56347,2.2334,0,1.06738-.72656,2.15625-2.707,2.15625a3.63365,3.63365,0,0,1-2.8164-1.166Z"/><path class="cls-14" d="M143.92765,104.30636H140.2089l-.64844,1.62793h-1.01172L141.496,98.5964h1.13379l2.96,7.33789h-1.01269Zm-3.45411-.81445h3.17871l-1.584-4.082Z"/><polyline class="cls-15" points="207.019 120.249 159.854 73.084 141.838 73.084"/><path class="cls-7" d="M111.47754,71.66788q-.58257.02916-1.162.05017l-.00175-.00434-2.77743-2.14829a2.34619,2.34619,0,0,0-2.9496-.04478l-2.99135,2.19741q-.57873-.02142-1.162-.05017c-2.19528-.10988-3.90754-.73667-3.90754,2.29187s.407,7.9397.407,7.9397-.24422,3.68335,3.98894,6.79375c3.64113,2.67538,5.01955,3.64375,5.01955,3.64375h0s1.40649-.96837,5.04763-3.64375c4.23315-3.1104,3.98893-6.79375,3.98893-6.79375s.407-4.91115.407-7.9397-1.71226-2.40175-3.90753-2.29187"/><path class="cls-16" d="M108.10485,74.39425a5.84712,5.84712,0,1,0,3.64794,5.42171,5.83894,5.83894,0,0,0-2.08638-4.48122l.00106-.00023L105.08456,82.312l-2.46678-3.29489"/><path class="cls-17" d="M117.34078,73.08321h-2.021a5.44921,5.44921,0,0,1,.06536.87659c0,2.31641-.23767,5.72681-.3496,7.20606.889-.12952,1.80407-.24512,2.76116-.33252a61.34055,61.34055,0,0,1-.45764-7.605C117.339,73.17953,117.34066,73.132,117.34078,73.08321Z"/><path class="cls-17" d="M117.79665,80.83334c-.95709.0874-1.87213.203-2.76116.33252-.03443.45483-.05744.73364-.05744.73364a7.45864,7.45864,0,0,1-1.69757,4.5686,14.53833,14.53833,0,0,0,5.73273,5.62769c.1549.03515.3089.07275.46521.10412a19.67858,19.67858,0,0,0,2.49682.33191C120.08053,91.07552,118.52993,86.65878,117.79665,80.83334Z"/><path class="cls-17" d="M128.84139,65.33285a60.79045,60.79045,0,0,1,.4975,7.75036h7.50018a27.9174,27.9174,0,0,0-1.41272-8.79895A45.58706,45.58706,0,0,1,128.84139,65.33285Z"/><path class="cls-17" d="M128.88155,80.83309q-.86517-.07873-1.7611-.134c-1.22376-.074-2.48633-.115-3.78064-.115-1.92774,0-3.78608.0885-5.54316.24927.73328,5.82544,2.28388,10.24218,4.17859,11.69848.45124.03174.90515.05384,1.36457.05384.45416,0,.90265-.0221,1.3482-.05481l.01727-.01184C126.59853,91.06088,128.14785,86.64987,128.88155,80.83309Z"/><path class="cls-17" d="M135.48544,81.89242a45.31494,45.31494,0,0,0-6.60389-1.05933c-.7337,5.81678-2.283,10.22779-4.17627,11.68592l-.01727.01184a20.05013,20.05013,0,0,0,2.96094-.44544C131.09164,90.37069,133.91329,86.666,135.48544,81.89242Z"/><path class="cls-17" d="M129.34054,73.22836a61.19151,61.19151,0,0,1-.459,7.60473,45.31494,45.31494,0,0,1,6.60389,1.05933,27.95084,27.95084,0,0,0,1.35608-8.71546c0-.03161-.00232-.06225-.00245-.09375h-7.50018C129.339,73.13192,129.34054,73.17953,129.34054,73.22836Z"/><path class="cls-17" d="M110.31558,71.7181q.5787-.0216,1.162-.05029c1.95038-.09753,3.5163-.5968,3.84217,1.4154h2.021a60.41707,60.41707,0,0,1,.49976-7.744,45.50533,45.50533,0,0,1-6.5835-1.0481,27.41816,27.41816,0,0,0-1.34588,7.11108l.40265.31153Z"/><path class="cls-17" d="M129.33889,73.08321a60.79045,60.79045,0,0,0-.4975-7.75036c-.35113.03174-.70477.06152-1.06372.0874-1.42779.1023-2.90875.162-4.43786.162-1.32239,0-2.61292-.04151-3.86139-.11865q-.8323-.05146-1.63788-.12439a60.41707,60.41707,0,0,0-.49976,7.744Z"/><path class="cls-17" d="M129.33889,73.08321H117.34078c-.00012.04883-.00177.09632-.00177.14515a61.34055,61.34055,0,0,0,.45764,7.605c1.75708-.16077,3.61542-.24927,5.54316-.24927,1.29431,0,2.55688.041,3.78064.115q.89639.05419,1.7611.134a61.19151,61.19151,0,0,0,.459-7.60473C129.34054,73.17953,129.339,73.13192,129.33889,73.08321Z"/><path class="cls-17" d="M128.31484,62.13973l.00458-.00586-.00458.00586c.20478,1.001.37909,2.07325.52655,3.19312a45.58706,45.58706,0,0,0,6.585-1.04859,23.66542,23.66542,0,0,0-.89282-2.27734c-1.78821-3.91309-4.49231-6.82727-7.65478-8.0946a19.70247,19.70247,0,0,0-2.70288-.31043,2.69014,2.69014,0,0,1,.32721.18006C126.08456,54.809,127.44375,57.882,128.31484,62.13973Z"/><path class="cls-17" d="M118.453,61.74984c-.24048,1.11548-.44452,2.32056-.61243,3.58936q.80511.07269,1.63788.12439c1.24847.07714,2.539.11865,3.86139.11865,1.52911,0,3.01007-.05969,4.43786-.162.35895-.02588.71259-.05566,1.06372-.0874-.14746-1.11987-.32177-2.19214-.52655-3.19312-.87109-4.25769-2.23028-7.33069-3.81176-8.35778a2.69014,2.69014,0,0,0-.32721-.18006c-.27735-.01221-.55561-.02124-.83606-.02124-.28461,0-.56574.01416-.84735.02625C120.82845,54.38754,119.38558,57.424,118.453,61.74984Z"/><path class="cls-17" d="M112.34445,61.61422A23.62994,23.62994,0,0,0,111.257,64.2911a45.50533,45.50533,0,0,0,6.5835,1.0481c.16791-1.2688.37195-2.47388.61243-3.58936.93261-4.3258,2.37548-7.3623,4.03949-8.14294a19.478,19.478,0,0,0-2.67035.29382C116.76333,55.12386,114.13534,57.89523,112.34445,61.61422Z"/><path class="cls-17" d="M113.28048,86.4681a10.9738,10.9738,0,0,1-1.945,1.95032,19.41192,19.41192,0,0,0,7.67774,3.67737A14.53833,14.53833,0,0,1,113.28048,86.4681Z"/><path class="cls-17" d="M136.83907,73.08321c.00013.0315.00245.06214.00245.09375a27.95084,27.95084,0,0,1-1.35608,8.71546,23.17252,23.17252,0,0,1,4.02319,1.33618l.01489-.00171-.01489.00171q.19116.08716.37231.17627a19.36553,19.36553,0,0,0,2.96131-10.32166Z"/><path class="cls-17" d="M135.48544,81.89242c-1.57215,4.77356-4.3938,8.47827-7.83649,10.193.0426-.00964.08618-.0166.12872-.02649a19.54574,19.54574,0,0,0,12.10327-8.654q-.18128-.089-.37231-.17627A23.17252,23.17252,0,0,0,135.48544,81.89242Z"/><path class="cls-17" d="M134.53353,62.00692l.0105-.00586-.0105.00586a23.66542,23.66542,0,0,1,.89282,2.27734,22.16737,22.16737,0,0,0,4.45911-1.52905q-.18346-.29332-.37683-.57983a19.51151,19.51151,0,0,0-12.38818-8.22132c-.08-.01574-.16144-.027-.2417-.04174C130.04122,55.17965,132.74532,58.09383,134.53353,62.00692Z"/><path class="cls-17" d="M136.83907,73.08321h6.00318a19.41025,19.41025,0,0,0-2.95679-10.328,22.16737,22.16737,0,0,1-4.45911,1.52905A27.9174,27.9174,0,0,1,136.83907,73.08321Z"/><path class="cls-17" d="M107.5364,69.56539l2.37476,1.83679A27.41816,27.41816,0,0,1,111.257,64.2911a22.17972,22.17972,0,0,1-4.44677-1.52515A19.413,19.413,0,0,0,104.1152,69.867l.47162-.34644A2.34631,2.34631,0,0,1,107.5364,69.56539Z"/><path class="cls-17" d="M112.34445,61.61422c1.79089-3.719,4.41888-6.49036,7.47766-7.7135a19.50932,19.50932,0,0,0-12.36444,7.89111c-.226.31739-.44007.64331-.6474.97412A22.17972,22.17972,0,0,0,111.257,64.2911,23.62994,23.62994,0,0,1,112.34445,61.61422Z"/><g id="magnifying-glass-and-data-line"><g class="cls-18"><polyline class="cls-7" points="217.007 132.257 214.277 127.034 209.147 137.319 206.365 131.901 203.122 131.901"/><polyline class="cls-7" points="224.638 136.538 222.003 141.818 218.329 134.786"/><polyline class="cls-7" points="235.41 131.955 226.925 131.955 225.937 133.936"/><polyline class="cls-7" points="235.491 147.695 235.491 120.49 202.991 120.49 202.991 125.088 235.293 125.088"/><line class="cls-7" x1="226.48314" y1="148.0793" x2="235.47914" y2="148.0793"/><polyline class="cls-7" points="202.991 127.4 202.991 148.079 210.228 148.079"/><g class="cls-18"><path class="cls-7" d="M225.554,148.84055l1.581,2.112a1.38241,1.38241,0,0,1,1.962.2885l3.8545,5.0325a1.38017,1.38017,0,0,1-.291,1.943,1.41169,1.41169,0,0,1-1.962-.2885l-3.855-5.0325"/><path class="cls-7" d="M210.49445,139.85615a9.46506,9.46506,0,1,1,7.9735,10.651A9.45357,9.45357,0,0,1,210.49445,139.85615Zm8.371,8.001a6.69855,6.69855,0,1,0-5.696-7.608A6.75188,6.75188,0,0,0,218.86545,147.85715Z"/></g></g></g></svg>