<svg id="Layer_1" data-name="Layer 1" xmlns="http://www.w3.org/2000/svg" xmlns:xlink="http://www.w3.org/1999/xlink" viewBox="0 0 612 233.78723"><defs><style>.cls-1,.cls-11,.cls-12,.cls-3,.cls-4,.cls-5,.cls-7,.cls-8{fill:none;}.cls-2{fill:#231f20;}.cls-3{stroke:#29abe2;}.cls-11,.cls-12,.cls-3,.cls-7,.cls-8{stroke-linecap:round;stroke-linejoin:round;}.cls-4{stroke:#27b14b;}.cls-4,.cls-5,.cls-9{stroke-miterlimit:10;}.cls-5,.cls-7,.cls-8,.cls-9{stroke:#010101;}.cls-6,.cls-9{fill:#010101;}.cls-8,.cls-9{stroke-width:0.675px;}.cls-10{clip-path:url(#clip-path);}.cls-11,.cls-12{stroke:#000;}.cls-12{stroke-width:0.75px;}</style><clipPath id="clip-path"><rect class="cls-1" x="116.71926" y="32.01696" width="50" height="50"/></clipPath></defs><path class="cls-2" d="M257.27981,193.3622a3.10313,3.10313,0,0,0,2.31055,1.0459c1.30957,0,1.72754-.7041,1.72754-1.26562,0-.87989-.8916-1.12207-1.85938-1.38575-1.17675-.30859-2.48633-.63867-2.48633-2.08007,0-1.21,1.07813-2.03516,2.51954-2.03516a3.44947,3.44947,0,0,1,2.60742,1.02344l-.55078.6709a2.80458,2.80458,0,0,0-2.123-.87989c-.87988,0-1.50684.47266-1.50684,1.166,0,.7373.84668.957,1.78223,1.21,1.19922.31934,2.56348.69336,2.56348,2.2334,0,1.06738-.72657,2.15625-2.707,2.15625a3.637,3.637,0,0,1-2.81641-1.166Z"/><path class="cls-2" d="M263.61575,193.3622a3.10311,3.10311,0,0,0,2.31055,1.0459c1.30957,0,1.72754-.7041,1.72754-1.26562,0-.87989-.89161-1.12207-1.85938-1.38575-1.17676-.30859-2.48633-.63867-2.48633-2.08007,0-1.21,1.07813-2.03516,2.51953-2.03516a3.44951,3.44951,0,0,1,2.60743,1.02344l-.55079.6709a2.80455,2.80455,0,0,0-2.123-.87989c-.87989,0-1.50684.47266-1.50684,1.166,0,.7373.84668.957,1.78223,1.21,1.19922.31934,2.56347.69336,2.56347,2.2334,0,1.06738-.72656,2.15625-2.707,2.15625a3.637,3.637,0,0,1-2.8164-1.166Z"/><path class="cls-2" d="M269.85208,187.75185h.91406v6.52344h3.41016v.81445h-4.32422Z"/><path class="cls-2" d="M281.42532,187.63076c4.77968-.17026,4.78067,7.76121-.00024,7.5908C276.6408,195.39419,276.64169,187.45755,281.42532,187.63076Zm0,.81445c-3.55235-.15573-3.55458,6.111.00015,5.96288C284.97593,194.55334,284.97378,188.29187,281.42532,188.44521Z"/><path class="cls-2" d="M286.35305,189.77627h.8252v.85742a2.25857,2.25857,0,0,1,1.77051-.96778v.84668a1.48142,1.48142,0,0,0-.33008-.03222,1.94187,1.94187,0,0,0-1.44043.84668v3.76269h-.8252Z"/><path class="cls-2" d="M292.21536,189.64443a2.273,2.273,0,0,1,1.94726.92383l-.5498.50586a1.57545,1.57545,0,0,0-1.35352-.69336,2.06432,2.06432,0,0,0,0,4.10351,1.60286,1.60286,0,0,0,1.35352-.69238l.5498.50586a2.273,2.273,0,0,1-1.94726.92383,2.79212,2.79212,0,0,1,0-5.57715Z"/><path class="cls-2" d="M298.8052,191.5917c0-.93555-.48437-1.21094-1.19922-1.21094a2.08758,2.08758,0,0,0-1.57324.82519v3.88379h-.82519v-7.33789h.82519v2.794a2.64125,2.64125,0,0,1,1.90332-.90137,1.494,1.494,0,0,1,1.69336,1.69336v3.75195h-.82422Z"/><path class="cls-2" d="M303.479,189.64443a2.58051,2.58051,0,0,1,2.55274,2.84863v.209H301.73a1.87282,1.87282,0,0,0,1.91406,1.83789,2.32413,2.32413,0,0,0,1.63965-.6709l.39648.53906a2.88939,2.88939,0,0,1-2.1123.81348,2.79193,2.79193,0,0,1-.08887-5.57715Zm-1.749,2.45313h3.4873a1.72243,1.72243,0,0,0-1.749-1.77149A1.773,1.773,0,0,0,301.73,192.09756Z"/><path class="cls-2" d="M307.21829,193.79189a2.41236,2.41236,0,0,0,1.75.75879c.81348,0,1.2539-.36328,1.2539-.87988,0-.583-.64941-.77051-1.36425-.94629-.90235-.209-1.92578-.45117-1.92578-1.55176,0-.82422.71582-1.52832,1.98046-1.52832a2.69191,2.69191,0,0,1,1.96973.76953l-.38476.57227a2.07225,2.07225,0,0,0-1.585-.6709c-.72558,0-1.17675.33008-1.17675.80273,0,.51758.60449.68262,1.29785.84766.9248.209,1.99121.47266,1.99121,1.64941,0,.8916-.71484,1.60645-2.08984,1.60645a2.82607,2.82607,0,0,1-2.14551-.83594Z"/><path class="cls-2" d="M312.42141,193.97841v-3.47656h-.87988v-.72558h.87988v-1.45215h.8252v1.45215h1.07812v.72558h-1.07812v3.30078c0,.39551.17578.68164.53906.68164a.79667.79667,0,0,0,.56152-.21972l.24122.61621a1.3465,1.3465,0,0,1-.98926.34082A1.08751,1.08751,0,0,1,312.42141,193.97841Z"/><path class="cls-2" d="M315.3804,189.77627h.82519v.85742a2.25891,2.25891,0,0,1,1.77149-.96778v.84668a1.49365,1.49365,0,0,0-.33008-.03222,1.94549,1.94549,0,0,0-1.44141.84668v3.76269h-.82519Z"/><path class="cls-2" d="M322.22317,194.48427a2.29811,2.29811,0,0,1-1.76074.73731,1.7687,1.7687,0,0,1-1.8584-1.75977,1.7404,1.7404,0,0,1,1.8584-1.75,2.22178,2.22178,0,0,1,1.76074.72657v-.957c0-.71484-.57226-1.12207-1.34277-1.12207a2.10912,2.10912,0,0,0-1.62793.73731l-.38477-.57227a2.77887,2.77887,0,0,1,2.123-.87988c1.12207,0,2.05762.50586,2.05762,1.793v3.65234h-.8252Zm0-1.51757a1.77834,1.77834,0,0,0-1.46289-.66016,1.16911,1.16911,0,1,0,0,2.32129,1.77834,1.77834,0,0,0,1.46289-.66016Z"/><path class="cls-2" d="M324.75247,193.97841v-3.47656h-.88086v-.72558h.88086v-1.45215h.82519v1.45215h1.07813v.72558h-1.07813v3.30078c0,.39551.17578.68164.53907.68164a.796.796,0,0,0,.56054-.21972l.24219.61621a1.3474,1.3474,0,0,1-.99023.34082A1.08682,1.08682,0,0,1,324.75247,193.97841Z"/><path class="cls-2" d="M327.40286,192.42763a2.63424,2.63424,0,1,1,2.62988,2.79395A2.60732,2.60732,0,0,1,327.40286,192.42763Zm4.38965,0a1.78622,1.78622,0,1,0-1.75977,2.05664A1.84743,1.84743,0,0,0,331.79251,192.42763Z"/><path class="cls-2" d="M333.89309,189.77627h.8252v.85742a2.25889,2.25889,0,0,1,1.77148-.96778v.84668a1.49365,1.49365,0,0,0-.33008-.03222,1.94549,1.94549,0,0,0-1.4414.84668v3.76269h-.8252Z"/><path class="cls-2" d="M43.63821,181.75185h.91406v4.4668a2.08189,2.08189,0,1,0,4.15821,0v-4.4668h.91308v4.47754a2.71676,2.71676,0,0,1-2.99219,2.99219,2.71912,2.71912,0,0,1-2.99316-2.98145Z"/><path class="cls-2" d="M51.16262,187.79189a2.41236,2.41236,0,0,0,1.75.75879c.81348,0,1.25391-.36328,1.25391-.87988,0-.583-.64941-.77051-1.36426-.94629-.90234-.209-1.92578-.45117-1.92578-1.55176,0-.82422.71582-1.52832,1.98047-1.52832a2.69192,2.69192,0,0,1,1.96973.76953l-.38477.57227a2.07221,2.07221,0,0,0-1.585-.6709c-.72559,0-1.17676.33008-1.17676.80273,0,.51758.60449.68262,1.29785.84766.92481.209,1.99122.47266,1.99122,1.64941,0,.8916-.71485,1.60645-2.08985,1.60645a2.8261,2.8261,0,0,1-2.14551-.83594Z"/><path class="cls-2" d="M58.51028,183.64443a2.58051,2.58051,0,0,1,2.55274,2.84863v.209H56.76126a1.87282,1.87282,0,0,0,1.91406,1.83789,2.32413,2.32413,0,0,0,1.63965-.6709l.39648.53906a2.88939,2.88939,0,0,1-2.1123.81348,2.79193,2.79193,0,0,1-.08887-5.57715Zm-1.749,2.45313h3.4873a1.72243,1.72243,0,0,0-1.749-1.77149A1.773,1.773,0,0,0,56.76126,186.09756Z"/><path class="cls-2" d="M62.28372,183.77627h.82519v.85742a2.25859,2.25859,0,0,1,1.77051-.96778v.84668a1.48129,1.48129,0,0,0-.33008-.03222,1.94187,1.94187,0,0,0-1.44043.84668v3.76269h-.82519Z"/><path class="cls-2" d="M65.77005,187.79189a2.41234,2.41234,0,0,0,1.75.75879c.81347,0,1.2539-.36328,1.2539-.87988,0-.583-.64941-.77051-1.36426-.94629-.90234-.209-1.92578-.45117-1.92578-1.55176,0-.82422.71582-1.52832,1.98047-1.52832a2.69191,2.69191,0,0,1,1.96973.76953l-.38477.57227a2.07221,2.07221,0,0,0-1.585-.6709c-.72558,0-1.17676.33008-1.17676.80273,0,.51758.6045.68262,1.29786.84766.9248.209,1.99121.47266,1.99121,1.64941,0,.8916-.71485,1.60645-2.08985,1.60645a2.82606,2.82606,0,0,1-2.1455-.83594Z"/><polyline class="cls-3" points="488.438 106.032 488.438 113.644 104.321 113.644 104.321 106.032"/><line class="cls-3" x1="296.37982" y1="127.15522" x2="296.37982" y2="113.64436"/><line class="cls-4" x1="195.46605" y1="153.47438" x2="79.77959" y2="153.47438"/><g id="lock"><rect class="cls-4" x="195.46605" y="149.73443" width="9" height="7.87622" transform="translate(399.9321 307.34508) rotate(-180)"/><path class="cls-4" d="M196.5958,149.73443v-2.24951a3.37025,3.37025,0,1,1,6.7405,0v2.24951"/></g><line class="cls-4" x1="270.39345" y1="153.47438" x2="204.72869" y2="153.47438"/><line class="cls-4" x1="323.1542" y1="153.47438" x2="388.29359" y2="153.47438"/><line class="cls-4" x1="506.19986" y1="153.47438" x2="523.08755" y2="153.47438"/><line class="cls-4" x1="397.29359" y1="153.47438" x2="467.07548" y2="153.47438"/><g id="lock-2" data-name="lock"><rect class="cls-4" x="388.29359" y="149.73443" width="9" height="7.87622"/><path class="cls-4" d="M396.16384,149.73443v-2.24951a3.37025,3.37025,0,1,0-6.7405,0v2.24951"/></g><circle class="cls-5" cx="296.37982" cy="153.69061" r="26.325"/><path class="cls-6" d="M281.88626,155.80459a3.79343,3.79343,0,0,0,2.835,1.26953c1.459,0,1.97168-.74219,1.97168-1.39063,0-.94531-1.02637-1.21582-2.17383-1.51269-1.44531-.37793-3.11914-.79688-3.11914-2.63282,0-1.48535,1.30957-2.5664,3.18652-2.5664a4.41673,4.41673,0,0,1,3.28125,1.25586l-.7832,1a3.51163,3.51163,0,0,0-2.60547-1.05371c-1,0-1.68848.51367-1.68848,1.26953,0,.81055.97266,1.0664,2.09278,1.35058,1.47265.39161,3.1875.85059,3.1875,2.76758,0,1.40528-.97266,2.71485-3.40332,2.71485a4.61219,4.61219,0,0,1-3.55176-1.43164Z"/><path class="cls-6" d="M289.51321,155.80459a3.79343,3.79343,0,0,0,2.835,1.26953c1.459,0,1.97168-.74219,1.97168-1.39063,0-.94531-1.02637-1.21582-2.17383-1.51269-1.44531-.37793-3.11914-.79688-3.11914-2.63282,0-1.48535,1.30957-2.5664,3.18653-2.5664a4.41674,4.41674,0,0,1,3.28125,1.25586l-.78321,1a3.51162,3.51162,0,0,0-2.60547-1.05371c-1,0-1.68847.51367-1.68847,1.26953,0,.81055.97265,1.0664,2.09277,1.35058,1.47266.39161,3.1875.85059,3.1875,2.76758,0,1.40528-.97266,2.71485-3.40332,2.71485a4.6122,4.6122,0,0,1-3.55176-1.43164Z"/><path class="cls-6" d="M296.92434,149.10732h1.35059v7.81836h4.0918v1.18848h-5.44239Z"/><path class="cls-6" d="M307.23977,148.95888c5.9539-.2174,5.95322,9.53485-.0003,9.31736C301.288,158.49316,301.28723,148.74108,307.23977,148.95888Zm0,1.20118c-4.14821-.17619-4.15063,7.082.00017,6.914C311.38153,157.23587,311.37919,149.98949,307.23977,150.16006Z"/><path class="cls-7" d="M48.85173,141.53767h-4.263a11.4814,11.4814,0,0,0-11.53531,11.60462V164.7408"/><path class="cls-7" d="M85.70343,173.1783v-9.48914A11.4025,11.4025,0,0,0,74.262,152.08455h-8.6199a11.48139,11.48139,0,0,0-11.53531,11.60461v9.48914"/><circle class="cls-7" cx="48.83224" cy="132.04548" r="9.49425"/><circle class="cls-7" cx="69.93058" cy="142.59236" r="9.49425"/><path class="cls-2" d="M121.09329,83.00381v5.91894h-.91406V81.58486h.93554l4.22461,5.79785V81.58486h.91406v7.33789h-.88085Z"/><path class="cls-2" d="M130.13528,83.47744a2.58051,2.58051,0,0,1,2.55274,2.84863v.209h-4.30176a1.8722,1.8722,0,0,0,1.91406,1.83789,2.32584,2.32584,0,0,0,1.63965-.6709l.39551.53906a2.88556,2.88556,0,0,1-2.11133.81348,2.79193,2.79193,0,0,1-.08887-5.57715Zm-1.749,2.45312h3.4873a1.72243,1.72243,0,0,0-1.749-1.77148A1.773,1.773,0,0,0,128.38626,85.93056Z"/><path class="cls-2" d="M135.40384,86.744l-1.59571,2.17871h-.94531l2.03516-2.72852-1.92579-2.585h.957l1.47461,2.02442,1.4746-2.02442h.957l-1.92579,2.585,2.04688,2.72852h-.957Z"/><path class="cls-2" d="M138.95657,87.81142V84.33486h-.88086v-.72559h.88086V82.15713h.8252v1.45214h1.07812v.72559h-1.07812v3.30078c0,.39551.17578.68164.53906.68164a.7985.7985,0,0,0,.56152-.21972l.24121.61621a1.34648,1.34648,0,0,1-.98926.34082A1.0875,1.0875,0,0,1,138.95657,87.81142Z"/><path class="cls-2" d="M141.42044,85.89736h2.63965V86.623h-2.63965Z"/><path class="cls-2" d="M148.61477,81.46377a3.49754,3.49754,0,0,1,2.84961,1.375l-.72656.45117a2.70336,2.70336,0,0,0-2.12305-1.01172,2.99132,2.99132,0,0,0,0,5.97363,2.89393,2.89393,0,0,0,1.96875-.792V85.96377H148.065v-.81446h3.43262v2.65137a3.82288,3.82288,0,0,1-2.88282,1.26465,3.80088,3.80088,0,0,1,0-7.60156Z"/><path class="cls-2" d="M155.148,83.47744a2.5805,2.5805,0,0,1,2.55273,2.84863v.209H153.399A1.87221,1.87221,0,0,0,155.313,88.373a2.32412,2.32412,0,0,0,1.63964-.6709l.39649.53906a2.89335,2.89335,0,0,1-2.11328.81348,2.79194,2.79194,0,0,1-.08789-5.57715Zm-1.749,2.45312h3.48731a1.72244,1.72244,0,0,0-1.749-1.77148A1.77234,1.77234,0,0,0,153.399,85.93056Z"/><path class="cls-2" d="M162.50735,85.44619c0-.93555-.47266-1.23242-1.1875-1.23242a2.05347,2.05347,0,0,0-1.57422.82519v3.88379h-.82422V83.60927h.82422v.76954a2.64025,2.64025,0,0,1,1.89258-.90137,1.50988,1.50988,0,0,1,1.69434,1.71582v3.72949h-.8252Z"/><path class="cls-2" d="M124.398,92.58486h4.80859v.81348H125.312v2.36621h3.8164V96.578H125.312v3.34473H124.398Z"/><path class="cls-2" d="M130.16165,93.15713a.55569.55569,0,0,1,1.11133,0,.55569.55569,0,1,1-1.11133,0Zm.14355,1.45214h.8252v5.31348h-.8252Z"/><path class="cls-2" d="M132.66946,94.60927h.82617v.85743a2.25709,2.25709,0,0,1,1.77051-.96778v.84668a1.48745,1.48745,0,0,0-.33008-.03222,1.94184,1.94184,0,0,0-1.44043.84668v3.76269h-.82617Z"/><path class="cls-2" d="M138.49954,94.47744a2.58,2.58,0,0,1,2.55273,2.84863v.209h-4.30078a1.87159,1.87159,0,0,0,1.91406,1.83789,2.32185,2.32185,0,0,0,1.63868-.6709l.39648.53906a2.88943,2.88943,0,0,1-2.1123.81348,2.792,2.792,0,0,1-.08887-5.57715Zm-1.74805,2.45312h3.48633a1.72159,1.72159,0,0,0-1.74805-1.77148A1.77166,1.77166,0,0,0,136.75149,96.93056Z"/><path class="cls-2" d="M145.48587,95.6542l-1.38672,4.26855h-.8252l-1.69433-5.31348h.8584l1.29785,4.23536,1.39746-4.23536h.7041l1.39648,4.23536,1.29883-4.23536h.8584l-1.69434,5.31348h-.82519Z"/><path class="cls-2" d="M153.55911,99.31728a2.29811,2.29811,0,0,1-1.76074.73731,1.76952,1.76952,0,0,1-1.85938-1.75977,1.74119,1.74119,0,0,1,1.85938-1.75,2.22181,2.22181,0,0,1,1.76074.72656v-.957c0-.71484-.57129-1.12207-1.34277-1.12207a2.10719,2.10719,0,0,0-1.627.73731l-.38574-.57227a2.78093,2.78093,0,0,1,2.124-.87988c1.1211,0,2.05664.50586,2.05664,1.793v3.65234h-.82519Zm0-1.51758a1.77834,1.77834,0,0,0-1.46289-.66015,1.16911,1.16911,0,1,0,0,2.32129,1.77835,1.77835,0,0,0,1.46289-.66016Z"/><path class="cls-2" d="M155.92337,92.58486h.82519v7.33789h-.82519Z"/><path class="cls-2" d="M158.2886,92.58486h.8252v7.33789h-.8252Z"/><path class="cls-7" d="M205.05213,56.24047l2.25052,2.25052a1.64678,1.64678,0,0,1,2.37792,0L221.103,69.91344a1.68143,1.68143,0,0,1,0,2.37792h0a1.68143,1.68143,0,0,1-2.37792,0L207.30265,60.8689"/><circle class="cls-7" cx="196.9452" cy="48.13354" r="11.3497"/><circle class="cls-7" cx="196.9452" cy="48.13354" r="8.10693"/><path class="cls-2" d="M182.94876,83.00381v5.91894h-.91309V81.58486h.93555l4.22461,5.79785V81.58486h.91308v7.33789h-.88086Z"/><path class="cls-2" d="M191.99173,83.47744a2.58105,2.58105,0,0,1,2.55273,2.84863v.209h-4.30273a1.87281,1.87281,0,0,0,1.91406,1.83789,2.3281,2.3281,0,0,0,1.64062-.6709l.39551.53906a2.88943,2.88943,0,0,1-2.1123.81348,2.79189,2.79189,0,0,1-.08789-5.57715Zm-1.75,2.45312H193.73a1.72329,1.72329,0,0,0-1.75-1.77148A1.77369,1.77369,0,0,0,190.24173,85.93056Z"/><path class="cls-2" d="M197.2593,86.744l-1.59472,2.17871h-.94629l2.03515-2.72852-1.9248-2.585h.957l1.47363,2.02442,1.47461-2.02442h.957l-1.9248,2.585,2.0459,2.72852h-.957Z"/><path class="cls-2" d="M200.812,87.81142V84.33486h-.87988v-.72559h.87988V82.15713h.82617v1.45214h1.07813v.72559h-1.07813v3.30078c0,.39551.17578.68164.53906.68164a.796.796,0,0,0,.56055-.21972l.24219.61621a1.34742,1.34742,0,0,1-.99024.34082A1.0875,1.0875,0,0,1,200.812,87.81142Z"/><path class="cls-2" d="M203.27688,85.89736h2.63965V86.623h-2.63965Z"/><path class="cls-2" d="M210.47024,81.46377a3.49754,3.49754,0,0,1,2.84961,1.375l-.72558.45117a2.70685,2.70685,0,0,0-2.124-1.01172,2.99138,2.99138,0,0,0,0,5.97363,2.89666,2.89666,0,0,0,1.96973-.792V85.96377h-2.51856v-.81446h3.43164v2.65137a3.82284,3.82284,0,0,1-2.88281,1.26465,3.80088,3.80088,0,0,1,0-7.60156Z"/><path class="cls-2" d="M217.00344,83.47744a2.58,2.58,0,0,1,2.55274,2.84863v.209H215.2554a1.87159,1.87159,0,0,0,1.91406,1.83789,2.32183,2.32183,0,0,0,1.63867-.6709l.39649.53906a2.88946,2.88946,0,0,1-2.11231.81348,2.792,2.792,0,0,1-.08887-5.57715Zm-1.748,2.45312h3.48633a1.72159,1.72159,0,0,0-1.748-1.77148A1.77166,1.77166,0,0,0,215.2554,85.93056Z"/><path class="cls-2" d="M224.36282,85.44619c0-.93555-.47266-1.23242-1.1875-1.23242a2.05147,2.05147,0,0,0-1.57324.82519v3.88379h-.8252V83.60927h.8252v.76954a2.63794,2.63794,0,0,1,1.8916-.90137,1.51056,1.51056,0,0,1,1.69531,1.71582v3.72949h-.82617Z"/><path class="cls-2" d="M196.79739,92.58486h.91309v7.33789h-.91309Z"/><path class="cls-2" d="M199.31594,92.58486h2.94922a2.21309,2.21309,0,1,1,0,4.42285H200.23v2.915h-.91407Zm2.83887.81348H200.23v2.79492h1.9248a1.399,1.399,0,1,0,0-2.79492Z"/><path class="cls-2" d="M205.76223,98.19521a3.10317,3.10317,0,0,0,2.31055,1.0459c1.30957,0,1.72754-.7041,1.72754-1.26563,0-.87988-.8916-1.12207-1.85938-1.38574-1.17773-.30859-2.48632-.63867-2.48632-2.08008,0-1.21,1.07812-2.03515,2.51953-2.03515a3.45251,3.45251,0,0,1,2.60742,1.02344l-.55078.67089a2.80606,2.80606,0,0,0-2.12305-.87988c-.88086,0-1.50781.47266-1.50781,1.166,0,.7373.84766.957,1.7832,1.21,1.19922.31933,2.5625.69336,2.5625,2.2334,0,1.06738-.72558,2.15625-2.70605,2.15625a3.634,3.634,0,0,1-2.81641-1.166Z"/><path class="cls-2" d="M382.64114,81.58486h.91309v4.4668a2.08188,2.08188,0,1,0,4.1582,0v-4.4668h.91406V86.0624a2.99269,2.99269,0,0,1-5.98535.01074Z"/><path class="cls-2" d="M392.96048,85.79873l-2.34375,3.124H389.5054l2.86133-3.76269-2.69629-3.5752h1.11133l2.17871,2.9375,2.167-2.9375h1.11035l-2.68359,3.56445,2.84961,3.77344h-1.10059Z"/><path class="cls-2" d="M370.92141,93.81728l-2.49609,6.10547h-.375L365.564,93.81728v6.10547h-.91308V92.58486h1.30957l2.27734,5.58887,2.28809-5.58887h1.30957v7.33789h-.91407Z"/><path class="cls-2" d="M373.09915,97.26064a2.63424,2.63424,0,1,1,2.6289,2.794A2.60656,2.60656,0,0,1,373.09915,97.26064Zm4.38965,0a1.78664,1.78664,0,1,0-1.76075,2.05664A1.84757,1.84757,0,0,0,377.4888,97.26064Z"/><path class="cls-2" d="M383.17532,96.44619c0-.93555-.47266-1.23242-1.1875-1.23242a2.05346,2.05346,0,0,0-1.57422.82519v3.88379h-.82422V94.60927h.82422v.76954a2.64025,2.64025,0,0,1,1.89258-.90137,1.50988,1.50988,0,0,1,1.69434,1.71582v3.72949h-.8252Z"/><path class="cls-2" d="M385.397,93.15713a.55569.55569,0,0,1,1.11133,0,.55569.55569,0,1,1-1.11133,0Zm.14355,1.45214h.82422v5.31348h-.82422Z"/><path class="cls-2" d="M388.06985,98.81142V95.33486H387.19v-.72559h.87988V93.15713h.82617v1.45214h1.07813v.72559H388.896v3.30078c0,.39551.17578.68164.53907.68164a.796.796,0,0,0,.56054-.21972l.24219.61621a1.3474,1.3474,0,0,1-.99023.34082A1.08751,1.08751,0,0,1,388.06985,98.81142Z"/><path class="cls-2" d="M390.72122,97.26064a2.63424,2.63424,0,1,1,2.62988,2.794A2.60732,2.60732,0,0,1,390.72122,97.26064Zm4.38965,0a1.78622,1.78622,0,1,0-1.75977,2.05664A1.84743,1.84743,0,0,0,395.11087,97.26064Z"/><path class="cls-2" d="M397.21048,94.60927h.82617v.85743a2.25708,2.25708,0,0,1,1.77051-.96778v.84668a1.48758,1.48758,0,0,0-.33008-.03222,1.94184,1.94184,0,0,0-1.44043.84668v3.76269h-.82617Z"/><path class="cls-2" d="M400.58743,93.15713a.55569.55569,0,0,1,1.11133,0,.55569.55569,0,1,1-1.11133,0Zm.14355,1.45214h.8252v5.31348h-.8252Z"/><path class="cls-2" d="M406.68313,96.44619c0-.93555-.47363-1.23242-1.18847-1.23242a2.05311,2.05311,0,0,0-1.57325.82519v3.88379h-.82519V94.60927h.82519v.76954a2.63653,2.63653,0,0,1,1.89258-.90137,1.50919,1.50919,0,0,1,1.69336,1.71582v3.72949h-.82422Z"/><path class="cls-2" d="M409.45462,100.6708a2.026,2.026,0,0,0,1.72656.72656,1.52186,1.52186,0,0,0,1.70508-1.5957v-.75879a2.21952,2.21952,0,0,1-1.78223.94629c-1.38574,0-2.36523-1.03418-2.36523-2.751,0-1.70508.96777-2.76074,2.36523-2.76074a2.19962,2.19962,0,0,1,1.78223.93457v-.80274h.82519v5.15918c0,1.76075-1.23144,2.31055-2.53027,2.31055a2.71592,2.71592,0,0,1-2.14551-.792Zm3.43164-4.59864a1.95785,1.95785,0,0,0-1.584-.85839c-1.06738,0-1.70508.84765-1.70508,2.02441,0,1.166.6377,2.02441,1.70508,2.02441a1.96693,1.96693,0,0,0,1.584-.86914Z"/><path class="cls-7" d="M450.65061,66.58188h10.64192a6.36242,6.36242,0,0,0,6.37781-6.34692V43.13076a6.36242,6.36242,0,0,0-6.37781-6.34691H444.10508a6.36242,6.36242,0,0,0-6.37781,6.34691V57.843"/><ellipse class="cls-5" cx="442.62699" cy="64.56719" rx="8.25499" ry="8.215"/><g id="Group_12831" data-name="Group 12831"><rect id="Rectangle_9394" data-name="Rectangle 9394" class="cls-8" x="439.17549" y="63.32799" width="6.88639" height="6.00051"/><path id="Path_60586" data-name="Path 60586" class="cls-8" d="M445.20521,63.328V61.623a2.57,2.57,0,0,0-5.14-.00218V63.328"/></g><path class="cls-1" d="M443.45737,47.11768c1.39331,0,1.46411-1.98493,1.46411-2.38294,0-.39654-.0708-2.37475-1.46411-2.37475-1.40137,0-1.47241,1.97821-1.47241,2.37475C441.985,45.13275,442.056,47.11768,443.45737,47.11768Z"/><path class="cls-1" d="M447.96079,56.24805a1.37925,1.37925,0,0,0-1.29395,1.15448,8.22092,8.22092,0,0,1,2.615,2.31952,4.7112,4.7112,0,0,0,.14283-1.09924C449.42466,58.22626,449.3541,56.24805,447.96079,56.24805Z"/><path class="cls-1" d="M462.2999,53.94257c1.39356,0,1.46387-1.98493,1.46387-2.38294,0-.39654-.07031-2.37506-1.46387-2.37506-1.40137,0-1.47217,1.97852-1.47217,2.37506C460.82773,51.95764,460.89853,53.94257,462.2999,53.94257Z"/><path class="cls-1" d="M450.6268,47.11768c1.39356,0,1.46412-1.98493,1.46412-2.38294,0-.39654-.07056-2.37475-1.46412-2.37475-1.40136,0-1.47216,1.97821-1.47216,2.37475C449.15464,45.13275,449.22544,47.11768,450.6268,47.11768Z"/><path class="cls-1" d="M455.13,49.18457c-1.40112,0-1.47217,1.97852-1.47217,2.37506,0,.398.07105,2.38294,1.47217,2.38294,1.39355,0,1.46435-1.98493,1.46435-2.38294C456.59433,51.16309,456.52353,49.18457,455.13,49.18457Z"/><path class="cls-1" d="M457.79673,47.11768c1.39331,0,1.46386-1.98493,1.46386-2.38294,0-.39654-.07055-2.37475-1.46386-2.37475-1.40137,0-1.47242,1.97821-1.47242,2.37475C456.32431,45.13275,456.39536,47.11768,457.79673,47.11768Z"/><path class="cls-1" d="M445.70908,53.94257c1.39331,0,1.46387-1.98493,1.46387-2.38294,0-.39654-.07056-2.37506-1.46387-2.37506-1.40137,0-1.47217,1.97852-1.47217,2.37506C444.23691,51.95764,444.30771,53.94257,445.70908,53.94257Z"/><path class="cls-1" d="M457.38193,56.24805c-1.40137,0-1.47217,1.97821-1.47217,2.37476,0,.398.0708,2.38293,1.47217,2.38293,1.39331,0,1.46387-1.98492,1.46387-2.38293C458.8458,58.22626,458.77524,56.24805,457.38193,56.24805Z"/><path class="cls-6" d="M443.45737,47.71741c1.4541,0,2.105-1.49786,2.105-2.98267,0-1.48071-.65088-2.97485-2.105-2.97485-1.45972,0-2.113,1.49414-2.113,2.97485C441.34433,46.21955,441.99765,47.71741,443.45737,47.71741Zm0-5.35742c1.39331,0,1.46411,1.97821,1.46411,2.37475,0,.398-.0708,2.38294-1.46411,2.38294-1.40137,0-1.47241-1.98493-1.47241-2.38294C441.985,44.3382,442.056,42.36,443.45737,42.36Z"/><polygon class="cls-6" points="447.01 42.852 447.01 47.62 447.627 47.62 447.627 41.841 447.127 41.841 445.911 43.143 446.338 43.589 447.01 42.852"/><path class="cls-6" d="M450.6268,47.71741c1.45411,0,2.105-1.49786,2.105-2.98267,0-1.48071-.65088-2.97485-2.105-2.97485-1.45971,0-2.113,1.49414-2.113,2.97485C448.51377,46.21955,449.16709,47.71741,450.6268,47.71741Zm0-5.35742c1.39356,0,1.46412,1.97821,1.46412,2.37475,0,.398-.07056,2.38294-1.46412,2.38294-1.40136,0-1.47216-1.98493-1.47216-2.38294C449.15464,44.3382,449.22544,42.36,450.6268,42.36Z"/><polygon class="cls-6" points="454.18 42.852 454.18 47.62 454.796 47.62 454.796 41.841 454.297 41.841 453.08 43.143 453.507 43.589 454.18 42.852"/><path class="cls-6" d="M457.79673,47.71741c1.4541,0,2.10473-1.49786,2.10473-2.98267,0-1.48071-.65063-2.97485-2.10473-2.97485-1.46,0-2.11328,1.49414-2.11328,2.97485C455.68345,46.21955,456.33677,47.71741,457.79673,47.71741Zm0-5.35742c1.39331,0,1.46386,1.97821,1.46386,2.37475,0,.398-.07055,2.38294-1.46386,2.38294-1.40137,0-1.47242-1.98493-1.47242-2.38294C456.32431,44.3382,456.39536,42.36,457.79673,42.36Z"/><polygon class="cls-6" points="461.349 42.852 461.349 47.62 461.966 47.62 461.966 41.841 461.466 41.841 460.25 43.143 460.677 43.589 461.349 42.852"/><polygon class="cls-6" points="463.601 42.852 463.601 47.62 464.217 47.62 464.217 41.841 463.718 41.841 462.502 43.143 462.929 43.589 463.601 42.852"/><polygon class="cls-6" points="442.092 49.677 442.092 54.445 442.709 54.445 442.709 48.666 442.209 48.666 440.993 49.968 441.42 50.414 442.092 49.677"/><path class="cls-6" d="M443.5958,51.55963c0,1.48481.65332,2.98267,2.11328,2.98267,1.4541,0,2.10474-1.49786,2.10474-2.98267,0-1.48077-.65064-2.97485-2.10474-2.97485C444.24912,48.58478,443.5958,50.07886,443.5958,51.55963Zm2.11328-2.37506c1.39331,0,1.46387,1.97852,1.46387,2.37506,0,.398-.07056,2.38294-1.46387,2.38294-1.40137,0-1.47217-1.98493-1.47217-2.38294C444.23691,51.16309,444.30771,49.18457,445.70908,49.18457Z"/><polygon class="cls-6" points="449.262 49.677 449.262 54.445 449.878 54.445 449.878 48.666 449.379 48.666 448.162 49.968 448.589 50.414 449.262 49.677"/><polygon class="cls-6" points="450.414 49.968 450.841 50.414 451.513 49.677 451.513 54.445 452.13 54.445 452.13 48.666 451.63 48.666 450.414 49.968"/><path class="cls-6" d="M457.235,51.55963c0-1.48077-.65088-2.97485-2.105-2.97485-1.45947,0-2.113,1.49408-2.113,2.97485,0,1.48481.65357,2.98267,2.113,2.98267C456.58408,54.5423,457.235,53.04444,457.235,51.55963Zm-2.105,2.38294c-1.40112,0-1.47217-1.98493-1.47217-2.38294,0-.39654.07105-2.37506,1.47217-2.37506,1.39355,0,1.46435,1.97852,1.46435,2.37506C456.59433,51.95764,456.52353,53.94257,455.13,53.94257Z"/><polygon class="cls-6" points="459.3 54.445 459.3 48.666 458.8 48.666 457.584 49.968 458.011 50.414 458.683 49.677 458.683 54.445 459.3 54.445"/><path class="cls-6" d="M462.2999,54.5423c1.4541,0,2.105-1.49786,2.105-2.98267,0-1.48077-.65088-2.97485-2.105-2.97485-1.46,0-2.11328,1.49408-2.11328,2.97485C460.18662,53.04444,460.83994,54.5423,462.2999,54.5423Zm0-5.35773c1.39356,0,1.46387,1.97852,1.46387,2.37506,0,.398-.07031,2.38294-1.46387,2.38294-1.40137,0-1.47217-1.98493-1.47217-2.38294C460.82773,51.16309,460.89853,49.18457,462.2999,49.18457Z"/><path class="cls-6" d="M442.70859,56.354v-.62458h-.49927l-.65356.69892A8.21107,8.21107,0,0,1,442.70859,56.354Z"/><path class="cls-6" d="M444.9603,56.69385v-.96442H444.461l-.66845.71491c.17187.02453.34326.04431.51562.08C444.53061,56.57038,444.74619,56.63117,444.9603,56.69385Z"/><path class="cls-6" d="M447.96079,56.24805c1.39331,0,1.46387,1.97821,1.46387,2.37476a4.7112,4.7112,0,0,1-.14283,1.09924q.22926.3121.42823.64392a4.234,4.234,0,0,0,.35547-1.74316c0-1.48078-.65088-2.97486-2.10474-2.97486a1.97411,1.97411,0,0,0-1.8584,1.47449c.19165.08844.38208.17828.56445.28009A1.37925,1.37925,0,0,1,447.96079,56.24805Z"/><polygon class="cls-6" points="450.414 57.031 450.841 57.477 451.513 56.741 451.513 61.508 452.13 61.508 452.13 55.729 451.63 55.729 450.414 57.031"/><polygon class="cls-6" points="452.666 57.031 453.093 57.477 453.765 56.741 453.765 61.508 454.381 61.508 454.381 55.729 453.882 55.729 452.666 57.031"/><path class="cls-6" d="M457.38193,55.648c-1.46,0-2.11328,1.49408-2.11328,2.97486,0,1.4848.65332,2.983,2.11328,2.983,1.4541,0,2.10474-1.49817,2.10474-2.983C459.48667,57.142,458.836,55.648,457.38193,55.648Zm0,5.35779c-1.40137,0-1.47217-1.98492-1.47217-2.38293,0-.39655.0708-2.37476,1.47217-2.37476,1.39331,0,1.46387,1.97821,1.46387,2.37476C458.8458,59.02082,458.77524,61.00574,457.38193,61.00574Z"/><polygon class="cls-6" points="459.835 57.031 460.262 57.477 460.935 56.741 460.935 61.508 461.551 61.508 461.551 55.729 461.052 55.729 459.835 57.031"/><polygon class="cls-6" points="462.087 57.031 462.514 57.477 463.186 56.741 463.186 61.508 463.803 61.508 463.803 55.729 463.304 55.729 462.087 57.031"/><path class="cls-2" d="M428.68509,81.58486h2.50878a3.67009,3.67009,0,1,1,0,7.33789h-2.50878Zm2.50878,6.52344a2.85524,2.85524,0,0,0,0-5.71h-1.5957v5.71Z"/><path class="cls-2" d="M439.565,88.31728a2.29811,2.29811,0,0,1-1.76074.73731,1.76952,1.76952,0,0,1-1.85938-1.75977,1.74119,1.74119,0,0,1,1.85938-1.75,2.22181,2.22181,0,0,1,1.76074.72656v-.957c0-.71484-.57227-1.12207-1.34278-1.12207a2.10912,2.10912,0,0,0-1.62792.73731l-.38477-.57227a2.77884,2.77884,0,0,1,2.12305-.87988c1.12207,0,2.05761.50586,2.05761,1.793v3.65234H439.565Zm0-1.51758a1.77834,1.77834,0,0,0-1.46289-.66015,1.16911,1.16911,0,1,0,0,2.32129,1.77835,1.77835,0,0,0,1.46289-.66016Z"/><path class="cls-2" d="M442.09427,87.81142V84.33486h-.88086v-.72559h.88086V82.15713h.82519v1.45214h1.07813v.72559h-1.07813v3.30078c0,.39551.17578.68164.53906.68164a.796.796,0,0,0,.56055-.21972l.24219.61621a1.34742,1.34742,0,0,1-.99024.34082A1.08682,1.08682,0,0,1,442.09427,87.81142Z"/><path class="cls-2" d="M448.37552,88.31728a2.29813,2.29813,0,0,1-1.76075.73731,1.76952,1.76952,0,0,1-1.85937-1.75977,1.74118,1.74118,0,0,1,1.85937-1.75,2.22183,2.22183,0,0,1,1.76075.72656v-.957c0-.71484-.57227-1.12207-1.34278-1.12207a2.10914,2.10914,0,0,0-1.62793.73731l-.38476-.57227a2.7788,2.7788,0,0,1,2.123-.87988c1.12207,0,2.05762.50586,2.05762,1.793v3.65234h-.82519Zm0-1.51758a1.77836,1.77836,0,0,0-1.4629-.66015,1.16911,1.16911,0,1,0,0,2.32129,1.77837,1.77837,0,0,0,1.4629-.66016Z"/><path class="cls-2" d="M453.50052,81.58486h.91406V88.1083h3.41015v.81445h-4.32421Z"/><path class="cls-2" d="M458.42825,86.26064a2.63424,2.63424,0,1,1,2.62988,2.794A2.60732,2.60732,0,0,1,458.42825,86.26064Zm4.38965,0a1.78622,1.78622,0,1,0-1.75977,2.05664A1.84743,1.84743,0,0,0,462.8179,86.26064Z"/><path class="cls-2" d="M464.88528,87.6249a2.41236,2.41236,0,0,0,1.75.75879c.81348,0,1.25391-.36328,1.25391-.87988,0-.583-.64942-.77051-1.36426-.94629-.90234-.209-1.92578-.45118-1.92578-1.55176,0-.82422.71582-1.52832,1.98047-1.52832a2.69188,2.69188,0,0,1,1.96972.76953l-.38476.57226a2.07227,2.07227,0,0,0-1.585-.67089c-.72559,0-1.17676.33007-1.17676.80273,0,.51758.60449.68262,1.29785.84766.92481.209,1.99121.47265,1.99121,1.64941,0,.8916-.71484,1.60645-2.08984,1.60645a2.82612,2.82612,0,0,1-2.14551-.83594Z"/><path class="cls-2" d="M469.89016,87.6249a2.41236,2.41236,0,0,0,1.75.75879c.81348,0,1.25391-.36328,1.25391-.87988,0-.583-.64941-.77051-1.36426-.94629-.90234-.209-1.92578-.45118-1.92578-1.55176,0-.82422.71582-1.52832,1.98047-1.52832a2.69192,2.69192,0,0,1,1.96973.76953l-.38477.57226a2.07226,2.07226,0,0,0-1.585-.67089c-.72559,0-1.17676.33007-1.17676.80273,0,.51758.60449.68262,1.29785.84766.92481.209,1.99121.47265,1.99121,1.64941,0,.8916-.71484,1.60645-2.08984,1.60645a2.82613,2.82613,0,0,1-2.14551-.83594Z"/><path class="cls-2" d="M426.3804,92.58486h2.94922a2.21309,2.21309,0,1,1,0,4.42285h-2.03516v2.915h-.91406Zm2.83887.81348h-1.92481v2.79492h1.92481a1.39892,1.39892,0,1,0,0-2.79492Z"/><path class="cls-2" d="M432.69485,94.60927h.8252v.85743a2.25889,2.25889,0,0,1,1.77148-.96778v.84668a1.49365,1.49365,0,0,0-.33008-.03222,1.94542,1.94542,0,0,0-1.4414.84668v3.76269h-.8252Z"/><path class="cls-2" d="M438.52493,94.47744a2.5805,2.5805,0,0,1,2.55273,2.84863v.209h-4.30175A1.87159,1.87159,0,0,0,438.69,99.373a2.32584,2.32584,0,0,0,1.63965-.6709l.3955.53906a2.88943,2.88943,0,0,1-2.1123.81348,2.79194,2.79194,0,0,1-.08789-5.57715Zm-1.749,2.45312h3.4873a1.72243,1.72243,0,0,0-1.749-1.77148A1.77234,1.77234,0,0,0,436.77591,96.93056Z"/><path class="cls-2" d="M441.5054,94.60927h.8916l1.77051,4.35645,1.76074-4.35645h.90234l-2.21191,5.31348h-.90234Z"/><path class="cls-2" d="M449.88723,94.47744A2.58051,2.58051,0,0,1,452.44,97.32607v.209h-4.30176a1.87283,1.87283,0,0,0,1.91406,1.83789,2.32413,2.32413,0,0,0,1.63965-.6709l.39649.53906a2.88946,2.88946,0,0,1-2.11231.81348,2.79193,2.79193,0,0,1-.08887-5.57715Zm-1.749,2.45312h3.48731a1.72245,1.72245,0,0,0-1.749-1.77148A1.773,1.773,0,0,0,448.13821,96.93056Z"/><path class="cls-2" d="M457.24661,96.44619c0-.93555-.47266-1.23242-1.1875-1.23242a2.05145,2.05145,0,0,0-1.57324.82519v3.88379h-.8252V94.60927h.8252v.76954a2.63609,2.63609,0,0,1,1.8916-.90137,1.50987,1.50987,0,0,1,1.69433,1.71582v3.72949h-.82519Z"/><path class="cls-2" d="M459.77591,98.81142V95.33486H458.896v-.72559h.87989V93.15713h.82519v1.45214h1.07813v.72559H460.6011v3.30078c0,.39551.17578.68164.53906.68164a.79669.79669,0,0,0,.56153-.21972l.24121.61621a1.3465,1.3465,0,0,1-.98926.34082A1.0875,1.0875,0,0,1,459.77591,98.81142Z"/><path class="cls-2" d="M462.59231,93.15713a.55569.55569,0,0,1,1.11133,0,.55569.55569,0,1,1-1.11133,0Zm.14258,1.45214h.8252v5.31348h-.8252Z"/><path class="cls-2" d="M464.79251,97.26064a2.63424,2.63424,0,1,1,2.6289,2.794A2.60656,2.60656,0,0,1,464.79251,97.26064Zm4.38965,0a1.78664,1.78664,0,1,0-1.76075,2.05664A1.84757,1.84757,0,0,0,469.18216,97.26064Z"/><path class="cls-2" d="M474.86868,96.44619c0-.93555-.47363-1.23242-1.18848-1.23242a2.05309,2.05309,0,0,0-1.57324.82519v3.88379h-.82519V94.60927h.82519v.76954a2.63838,2.63838,0,0,1,1.89258-.90137,1.50987,1.50987,0,0,1,1.69433,1.71582v3.72949h-.82519Z"/><path class="cls-2" d="M252.47805,82.81728,249.981,88.92275h-.374l-2.48633-6.10547v6.10547h-.91308V81.58486h1.30957l2.27734,5.58887,2.28809-5.58887h1.30859v7.33789h-.91309Z"/><path class="cls-2" d="M258.28567,88.31728a2.296,2.296,0,0,1-1.75976.73731,1.769,1.769,0,0,1-1.85938-1.75977,1.74067,1.74067,0,0,1,1.85938-1.75,2.2211,2.2211,0,0,1,1.75976.72656v-.957c0-.71484-.57129-1.12207-1.3418-1.12207a2.10773,2.10773,0,0,0-1.62793.73731l-.38574-.57227a2.781,2.781,0,0,1,2.124-.87988c1.12207,0,2.05664.50586,2.05664,1.793v3.65234h-.8252Zm0-1.51758a1.77706,1.77706,0,0,0-1.46289-.66015,1.16911,1.16911,0,1,0,0,2.32129,1.77706,1.77706,0,0,0,1.46289-.66016Z"/><path class="cls-2" d="M260.64993,81.58486h.82519v7.33789h-.82519Z"/><path class="cls-2" d="M266.22805,84.6542l-1.38671,4.26855h-.8252l-1.69434-5.31348h.8584l1.29883,4.23536,1.39649-4.23536h.7041l1.39746,4.23536,1.29785-4.23536h.8584L268.439,88.92275h-.82519Z"/><path class="cls-2" d="M274.3013,88.31728a2.296,2.296,0,0,1-1.75977.73731,1.769,1.769,0,0,1-1.85937-1.75977,1.74067,1.74067,0,0,1,1.85937-1.75,2.22111,2.22111,0,0,1,1.75977.72656v-.957c0-.71484-.57129-1.12207-1.3418-1.12207a2.10771,2.10771,0,0,0-1.62793.73731l-.38574-.57227a2.78092,2.78092,0,0,1,2.124-.87988c1.12207,0,2.05664.50586,2.05664,1.793v3.65234h-.82519Zm0-1.51758a1.77707,1.77707,0,0,0-1.46289-.66015,1.16911,1.16911,0,1,0,0,2.32129,1.77708,1.77708,0,0,0,1.46289-.66016Z"/><path class="cls-2" d="M276.66653,83.60927h.8252v.85743a2.25857,2.25857,0,0,1,1.7705-.96778v.84668a1.48126,1.48126,0,0,0-.33007-.03222,1.94184,1.94184,0,0,0-1.44043.84668v3.76269h-.8252Z"/><path class="cls-2" d="M282.49563,83.47744a2.58051,2.58051,0,0,1,2.55274,2.84863v.209h-4.30176a1.87283,1.87283,0,0,0,1.91406,1.83789,2.32413,2.32413,0,0,0,1.63965-.6709l.39648.53906a2.88943,2.88943,0,0,1-2.1123.81348,2.79193,2.79193,0,0,1-.08887-5.57715Zm-1.749,2.45312h3.4873a1.72243,1.72243,0,0,0-1.749-1.77148A1.773,1.773,0,0,0,280.74661,85.93056Z"/><path class="cls-2" d="M242.148,92.58486h2.94921a2.21309,2.21309,0,1,1,0,4.42285H243.062v2.915H242.148Zm2.83886.81348H243.062v2.79492h1.9248a1.39892,1.39892,0,1,0,0-2.79492Z"/><path class="cls-2" d="M248.46243,94.60927h.82519v.85743a2.25893,2.25893,0,0,1,1.77149-.96778v.84668a1.49365,1.49365,0,0,0-.33008-.03222,1.94546,1.94546,0,0,0-1.44141.84668v3.76269h-.82519Z"/><path class="cls-2" d="M251.67434,97.26064a2.63424,2.63424,0,1,1,2.62891,2.794A2.60656,2.60656,0,0,1,251.67434,97.26064Zm4.38965,0a1.78663,1.78663,0,1,0-1.76074,2.05664A1.84756,1.84756,0,0,0,256.064,97.26064Z"/><path class="cls-2" d="M258.32962,98.81142V95.33486h-.88086v-.72559h.88086V93.15713h.82519v1.45214h1.07813v.72559h-1.07813v3.30078c0,.39551.17578.68164.53906.68164a.796.796,0,0,0,.56055-.21972l.24219.61621a1.34742,1.34742,0,0,1-.99024.34082A1.08682,1.08682,0,0,1,258.32962,98.81142Z"/><path class="cls-2" d="M263.59817,94.47744a2.58051,2.58051,0,0,1,2.55274,2.84863v.209h-4.30176a1.87282,1.87282,0,0,0,1.91406,1.83789,2.32413,2.32413,0,0,0,1.63965-.6709l.39648.53906a2.88943,2.88943,0,0,1-2.1123.81348,2.79193,2.79193,0,0,1-.08887-5.57715Zm-1.749,2.45312h3.4873a1.72243,1.72243,0,0,0-1.749-1.77148A1.773,1.773,0,0,0,261.84915,96.93056Z"/><path class="cls-2" d="M269.71438,94.47744a2.273,2.273,0,0,1,1.94727.92383l-.54981.50586a1.57545,1.57545,0,0,0-1.35351-.69336,2.06432,2.06432,0,0,0,0,4.10351,1.60285,1.60285,0,0,0,1.35351-.69238l.54981.50586a2.273,2.273,0,0,1-1.94727.92383,2.79213,2.79213,0,0,1,0-5.57715Z"/><path class="cls-2" d="M272.87063,98.81142V95.33486h-.87988v-.72559h.87988V93.15713h.8252v1.45214H274.774v.72559h-1.07812v3.30078c0,.39551.17578.68164.53906.68164a.79667.79667,0,0,0,.56152-.21972l.24121.61621a1.34646,1.34646,0,0,1-.98925.34082A1.08751,1.08751,0,0,1,272.87063,98.81142Z"/><path class="cls-2" d="M275.687,93.15713a.55569.55569,0,0,1,1.11133,0,.55569.55569,0,1,1-1.11133,0Zm.14258,1.45214h.82519v5.31348h-.82519Z"/><path class="cls-2" d="M277.88723,97.26064a2.63424,2.63424,0,1,1,2.62891,2.794A2.60656,2.60656,0,0,1,277.88723,97.26064Zm4.38965,0a1.78663,1.78663,0,1,0-1.76074,2.05664A1.84756,1.84756,0,0,0,282.27688,97.26064Z"/><path class="cls-2" d="M287.96341,96.44619c0-.93555-.47364-1.23242-1.18848-1.23242a2.05309,2.05309,0,0,0-1.57324.82519v3.88379h-.8252V94.60927h.8252v.76954a2.63836,2.63836,0,0,1,1.89258-.90137,1.50987,1.50987,0,0,1,1.69433,1.71582v3.72949h-.82519Z"/><path class="cls-7" d="M268.76136,46.83807a8.95228,8.95228,0,1,0,2.40455,1.43761l.00163-.00035L264.11061,58.941l-3.79844-5.03649"/><path class="cls-7" d="M273.95475,42.67061q-.89706.04456-1.78925.07669l-.00269-.00664L267.886,39.45683a3.63347,3.63347,0,0,0-4.54192-.06845l-4.60618,3.35892q-.89115-.03274-1.78924-.07669c-3.38036-.168-6.017-1.12606-6.017,3.5033s.62677,12.13644.62677,12.13644-.37606,5.63029,6.14231,10.38478c5.60676,4.08953,7.7293,5.56976,7.7293,5.56976h0s2.16577-1.48023,7.77253-5.56976c6.51837-4.75449,6.14231-10.38478,6.14231-10.38478s.62678-7.50708.62678-12.13644-2.63661-3.67127-6.017-3.5033"/><path class="cls-2" d="M299.46145,87.19521a3.10317,3.10317,0,0,0,2.31055,1.0459c1.30957,0,1.72754-.7041,1.72754-1.26563,0-.87988-.8916-1.12207-1.85938-1.38574-1.17773-.30859-2.48632-.63867-2.48632-2.08008,0-1.21,1.07812-2.03515,2.51953-2.03515a3.45251,3.45251,0,0,1,2.60742,1.02344l-.55078.67089a2.80608,2.80608,0,0,0-2.123-.87988c-.88086,0-1.50781.47266-1.50781,1.166,0,.7373.84765.957,1.7832,1.21,1.19922.31933,2.5625.69336,2.5625,2.2334,0,1.06738-.72558,2.15625-2.706,2.15625a3.634,3.634,0,0,1-2.81641-1.166Z"/><path class="cls-2" d="M307.9761,83.47744a2.58106,2.58106,0,0,1,2.55274,2.84863v.209H306.2261a1.87283,1.87283,0,0,0,1.91406,1.83789,2.32814,2.32814,0,0,0,1.64063-.6709l.39551.53906a2.88946,2.88946,0,0,1-2.11231.81348,2.79189,2.79189,0,0,1-.08789-5.57715Zm-1.75,2.45312h3.48828a1.72329,1.72329,0,0,0-1.75-1.77148A1.7737,1.7737,0,0,0,306.2261,85.93056Z"/><path class="cls-2" d="M314.09134,83.47744a2.273,2.273,0,0,1,1.94726.92383l-.55078.50586a1.57379,1.57379,0,0,0-1.35254-.69336,2.06432,2.06432,0,0,0,0,4.10351,1.60116,1.60116,0,0,0,1.35254-.69238l.55078.50586a2.273,2.273,0,0,1-1.94726.92383,2.79212,2.79212,0,0,1,0-5.57715Z"/><path class="cls-2" d="M320.66946,88.1747a2.599,2.599,0,0,1-1.89258.87989,1.49388,1.49388,0,0,1-1.69336-1.69434v-3.751h.82422v3.49805c0,.93555.47363,1.21,1.18848,1.21a2.03409,2.03409,0,0,0,1.57324-.80273V83.60927h.8252v5.31348h-.8252Z"/><path class="cls-2" d="M323.03469,83.60927h.82422v.85743a2.2604,2.2604,0,0,1,1.77149-.96778v.84668a1.48752,1.48752,0,0,0-.33008-.03222,1.94546,1.94546,0,0,0-1.44141.84668v3.76269h-.82422Z"/><path class="cls-2" d="M328.86477,83.47744a2.58106,2.58106,0,0,1,2.55274,2.84863v.209h-4.30274a1.87283,1.87283,0,0,0,1.91407,1.83789,2.32812,2.32812,0,0,0,1.64062-.6709l.39551.53906a2.88946,2.88946,0,0,1-2.11231.81348,2.79189,2.79189,0,0,1-.08789-5.57715Zm-1.75,2.45312h3.48828a1.72328,1.72328,0,0,0-1.75-1.77148A1.7737,1.7737,0,0,0,327.11477,85.93056Z"/><path class="cls-2" d="M339.39114,83.00381,337.774,88.92275h-.99023l-2.09082-7.33789h1.01269l1.62793,6.11719,1.6836-6.11719h.75976l1.68262,6.11719,1.61719-6.11719h1.01269l-2.09082,7.33789h-.99023Z"/><path class="cls-2" d="M346.83743,83.47744a2.58,2.58,0,0,1,2.55273,2.84863v.209h-4.30078a1.87159,1.87159,0,0,0,1.91406,1.83789,2.32185,2.32185,0,0,0,1.63868-.6709l.39648.53906a2.88943,2.88943,0,0,1-2.1123.81348,2.792,2.792,0,0,1-.08887-5.57715Zm-1.748,2.45312h3.48633a1.72159,1.72159,0,0,0-1.74805-1.77148A1.77166,1.77166,0,0,0,345.08938,85.93056Z"/><path class="cls-2" d="M350.61087,81.58486h.82422V84.412a2.207,2.207,0,0,1,1.793-.93457c1.38672,0,2.36524,1.09961,2.36524,2.79394,0,1.72754-.97852,2.78321-2.36524,2.78321a2.237,2.237,0,0,1-1.793-.92383v.792h-.82422Zm2.4082,6.73242c1.07812,0,1.7168-.86914,1.7168-2.0459s-.63868-2.05761-1.7168-2.05761a1.97666,1.97666,0,0,0-1.584.85839v2.40918A1.95769,1.95769,0,0,0,353.01907,88.31728Z"/><path class="cls-2" d="M310.80813,92.46377a3.49754,3.49754,0,0,1,2.84961,1.375l-.72558.45117a2.70685,2.70685,0,0,0-2.124-1.01172,2.99138,2.99138,0,0,0,0,5.97363,2.89666,2.89666,0,0,0,1.96973-.792V96.96377H310.2593v-.81446h3.43164v2.65137a3.82284,3.82284,0,0,1-2.88281,1.26465,3.80088,3.80088,0,0,1,0-7.60156Z"/><path class="cls-2" d="M318.355,99.31728a2.29811,2.29811,0,0,1-1.76074.73731,1.76871,1.76871,0,0,1-1.8584-1.75977,1.74039,1.74039,0,0,1,1.8584-1.75,2.22453,2.22453,0,0,1,1.76074.72656v-.957c0-.71484-.57227-1.12207-1.34278-1.12207a2.10773,2.10773,0,0,0-1.62793.73731l-.38476-.57227a2.77881,2.77881,0,0,1,2.123-.87988c1.12207,0,2.05664.50586,2.05664,1.793v3.65234H318.355Zm0-1.51758a1.77963,1.77963,0,0,0-1.46289-.66015,1.16922,1.16922,0,1,0,0,2.32129,1.77964,1.77964,0,0,0,1.46289-.66016Z"/><path class="cls-2" d="M320.8843,98.81142V95.33486h-.88086v-.72559h.88086V93.15713h.82422v1.45214h1.07813v.72559h-1.07813v3.30078c0,.39551.17578.68164.53907.68164a.79668.79668,0,0,0,.56152-.21972l.24121.61621a1.34648,1.34648,0,0,1-.98926.34082A1.08682,1.08682,0,0,1,320.8843,98.81142Z"/><path class="cls-2" d="M326.15286,94.47744a2.5805,2.5805,0,0,1,2.55273,2.84863v.209h-4.30175A1.8722,1.8722,0,0,0,326.3179,99.373a2.32584,2.32584,0,0,0,1.63965-.6709l.3955.53906a2.88552,2.88552,0,0,1-2.11132.81348,2.79193,2.79193,0,0,1-.08887-5.57715Zm-1.749,2.45312h3.4873a1.72243,1.72243,0,0,0-1.749-1.77148A1.773,1.773,0,0,0,324.40384,96.93056Z"/><path class="cls-2" d="M333.13821,95.6542l-1.38672,4.26855h-.82422L329.232,94.60927h.85938l1.29687,4.23536,1.39844-4.23536h.70312l1.39746,4.23536,1.29786-4.23536h.85937l-1.69531,5.31348h-.82422Z"/><path class="cls-2" d="M341.21243,99.31728a2.29811,2.29811,0,0,1-1.76074.73731,1.76871,1.76871,0,0,1-1.8584-1.75977,1.74039,1.74039,0,0,1,1.8584-1.75,2.22453,2.22453,0,0,1,1.76074.72656v-.957c0-.71484-.57227-1.12207-1.34277-1.12207a2.1077,2.1077,0,0,0-1.62793.73731l-.38477-.57227a2.77884,2.77884,0,0,1,2.123-.87988c1.12207,0,2.05664.50586,2.05664,1.793v3.65234h-.82422Zm0-1.51758a1.77963,1.77963,0,0,0-1.46289-.66015,1.16922,1.16922,0,1,0,0,2.32129,1.77964,1.77964,0,0,0,1.46289-.66016Z"/><path class="cls-2" d="M343.86282,101.3417a.76327.76327,0,0,0,.791-.56055l.35253-.80371-2.22168-5.36817h.89063l1.77148,4.35645,1.75977-4.35645h.90234l-2.66211,6.39161a1.57939,1.57939,0,0,1-1.5625,1.07812,2.68891,2.68891,0,0,1-.60546-.07715l.13281-.748A1.27007,1.27007,0,0,0,343.86282,101.3417Z"/><rect class="cls-7" x="315.86793" y="52.98325" width="22.88" height="20.0231"/><path class="cls-7" d="M335.87586,52.98325V47.26449a8.56794,8.56794,0,1,0-17.13587,0v5.71876"/><rect class="cls-5" x="523.08755" y="130.82791" width="41.67539" height="41.67539" rx="8.44757"/><g id="Group_13232-2" data-name="Group 13232-2"><path id="Path_61042" data-name="Path 61042" class="cls-9" d="M537.083,153.23331a3.4325,3.4325,0,0,1-2.72914,1.16336,2.64315,2.64315,0,1,1,0-5.27943,3.4325,3.4325,0,0,1,2.72914,1.16337v-1.78933a2.00255,2.00255,0,0,0-2.23559-1.96818,3.08854,3.08854,0,0,0-2.5503,1.25279l-.313-.313a3.43162,3.43162,0,0,1,2.90627-1.34308c1.56577,0,2.72914.80568,2.72914,2.37145v5.72655h-.49183v-.98452Zm0-2.46087a3.20289,3.20289,0,0,0-2.595-1.20378,2.215,2.215,0,0,0-2.366,2.05286q-.00494.06976-.00547.13974a2.18916,2.18916,0,0,0,2.17809,2.20017q.0968.00048.19335-.00758a3.14359,3.14359,0,0,0,2.595-1.21323Z"/><path id="Path_61043" data-name="Path 61043" class="cls-9" d="M540.25923,157.2118v-10.92h.49183V147.634a3.53313,3.53313,0,0,1,2.86156-1.51418c2.14961,0,3.53481,1.6552,3.53481,4.11607,0,2.50558-1.38692,4.16077-3.53481,4.16077a3.54683,3.54683,0,0,1-2.86328-1.56577v4.3852Zm3.35339-10.64485a3.45656,3.45656,0,0,0-2.86328,1.56577v4.2502a3.42994,3.42994,0,0,0,2.86328,1.61049c1.92347,0,2.99741-1.6552,2.99741-3.71366C546.61261,148.17829,545.53867,146.567,543.61262,146.567Z"/><path id="Path_61044" data-name="Path 61044" class="cls-9" d="M549.38646,157.2118v-10.92h.49183V147.634a3.53311,3.53311,0,0,1,2.86156-1.51418c2.1496,0,3.53481,1.6552,3.53481,4.11607,0,2.50558-1.38693,4.16077-3.53481,4.16077a3.54681,3.54681,0,0,1-2.86328-1.56577v4.3852Zm3.35339-10.64485a3.45656,3.45656,0,0,0-2.86328,1.56577v4.2502a3.42993,3.42993,0,0,0,2.86328,1.61049c1.92346,0,2.99741-1.6552,2.99741-3.71366C555.73984,148.17829,554.66589,146.567,552.73985,146.567Z"/></g><path class="cls-5" d="M531.36216,130.82791v-1.22645a7.06888,7.06888,0,0,1,7.04816-7.04816h27.57906a7.06889,7.06889,0,0,1,7.04817,7.04816v27.57906a7.06889,7.06889,0,0,1-7.04817,7.04816h-1.22644"/><path class="cls-2" d="M524.52981,187.46181h-3.71875l-.64941,1.62793h-1.01172l2.94824-7.33789H523.231l2.96,7.33789h-1.01269Zm-3.45508-.81445h3.17969l-1.584-4.082Z"/><path class="cls-2" d="M527.00344,191.11416v-7.33789h.8252v.792a2.22008,2.22008,0,0,1,1.793-.92383c1.39746,0,2.36621,1.05566,2.36621,2.7832,0,1.71582-.96875,2.79395-2.36621,2.79395a2.17751,2.17751,0,0,1-1.793-.93457v2.82715Zm2.40918-6.7334a1.96609,1.96609,0,0,0-1.584.84765v2.39844a1.97437,1.97437,0,0,0,1.584.85742c1.06739,0,1.70606-.87988,1.70606-2.05664C531.11868,185.2499,530.48,184.38076,529.41262,184.38076Z"/><path class="cls-2" d="M533.20755,191.11416v-7.33789h.82519v.792a2.22008,2.22008,0,0,1,1.793-.92383c1.39746,0,2.36523,1.05566,2.36523,2.7832,0,1.71582-.96777,2.79395-2.36523,2.79395a2.17621,2.17621,0,0,1-1.793-.93457v2.82715Zm2.40918-6.7334a1.96464,1.96464,0,0,0-1.584.84765v2.39844a1.97291,1.97291,0,0,0,1.584.85742c1.06738,0,1.70507-.87988,1.70507-2.05664C537.3218,185.2499,536.68411,184.38076,535.61673,184.38076Z"/><path class="cls-2" d="M539.41165,181.75185h.82519v7.33789h-.82519Z"/><path class="cls-2" d="M541.63333,182.32412a.55569.55569,0,0,1,1.11133,0,.55569.55569,0,1,1-1.11133,0Zm.14355,1.45215h.8252v5.31347h-.8252Z"/><path class="cls-2" d="M546.48489,183.64443a2.273,2.273,0,0,1,1.94727.92383l-.54981.50586a1.57545,1.57545,0,0,0-1.35351-.69336,2.06432,2.06432,0,0,0,0,4.10351,1.60285,1.60285,0,0,0,1.35351-.69238l.54981.50586a2.273,2.273,0,0,1-1.94727.92383,2.79212,2.79212,0,0,1,0-5.57715Z"/><path class="cls-2" d="M552.79837,188.48427a2.296,2.296,0,0,1-1.75977.73731,1.769,1.769,0,0,1-1.85937-1.75977,1.74067,1.74067,0,0,1,1.85937-1.75,2.22108,2.22108,0,0,1,1.75977.72657v-.957c0-.71484-.57129-1.12207-1.3418-1.12207a2.10771,2.10771,0,0,0-1.62793.73731l-.38574-.57227a2.781,2.781,0,0,1,2.124-.87988c1.12207,0,2.05664.50586,2.05664,1.793v3.65234h-.82519Zm0-1.51757a1.77708,1.77708,0,0,0-1.46289-.66016,1.16911,1.16911,0,1,0,0,2.32129,1.77708,1.77708,0,0,0,1.46289-.66016Z"/><path class="cls-2" d="M555.32864,187.97841v-3.47656h-.88086v-.72558h.88086v-1.45215h.8252v1.45215H557.232v.72558h-1.07812v3.30078c0,.39551.17578.68164.53906.68164a.796.796,0,0,0,.56054-.21972l.24219.61621a1.3474,1.3474,0,0,1-.99023.34082A1.08682,1.08682,0,0,1,555.32864,187.97841Z"/><path class="cls-2" d="M558.14407,182.32412a.55569.55569,0,0,1,1.11133,0,.55569.55569,0,1,1-1.11133,0Zm.14355,1.45215h.8252v5.31347h-.8252Z"/><path class="cls-2" d="M560.34427,186.42763a2.63424,2.63424,0,1,1,2.6289,2.79395A2.60655,2.60655,0,0,1,560.34427,186.42763Zm4.38964,0a1.78663,1.78663,0,1,0-1.76074,2.05664A1.84756,1.84756,0,0,0,564.73391,186.42763Z"/><path class="cls-2" d="M570.42044,185.61318c0-.93555-.47266-1.23242-1.1875-1.23242a2.05149,2.05149,0,0,0-1.57325.82519v3.88379h-.82519v-5.31347h.82519v.76953a2.63611,2.63611,0,0,1,1.89161-.90137,1.50988,1.50988,0,0,1,1.69433,1.71582v3.72949h-.82519Z"/><path class="cls-2" d="M572.75247,187.79189a2.41,2.41,0,0,0,1.749.75879c.81445,0,1.25391-.36328,1.25391-.87988,0-.583-.64844-.77051-1.36426-.94629-.90137-.209-1.9248-.45117-1.9248-1.55176,0-.82422.71484-1.52832,1.98046-1.52832a2.68777,2.68777,0,0,1,1.96875.76953l-.38476.57227a2.07159,2.07159,0,0,0-1.584-.6709c-.72656,0-1.17773.33008-1.17773.80273,0,.51758.60547.68262,1.29883.84766.92383.209,1.99121.47266,1.99121,1.64941,0,.8916-.71484,1.60645-2.09082,1.60645a2.82388,2.82388,0,0,1-2.14453-.83594Z"/><path class="cls-2" d="M469.12552,179.161h.91308v7.33789h-.91308Z"/><path class="cls-2" d="M475.19876,183.02236c0-.93555-.47364-1.23242-1.18848-1.23242a2.05309,2.05309,0,0,0-1.57324.82519v3.88379h-.8252v-5.31347h.8252v.76953a2.63651,2.63651,0,0,1,1.89258-.90137,1.5092,1.5092,0,0,1,1.69336,1.71582v3.72949h-.82422Z"/><path class="cls-2" d="M477.72805,185.38759V181.911h-.88086v-.72558h.88086V179.7333h.82422v1.45215h1.07813v.72558h-1.07813v3.30078c0,.39551.17578.68164.53907.68164a.79668.79668,0,0,0,.56152-.21972l.24121.61621a1.34648,1.34648,0,0,1-.98926.34082A1.08682,1.08682,0,0,1,477.72805,185.38759Z"/><path class="cls-2" d="M482.99661,181.05361a2.58051,2.58051,0,0,1,2.55273,2.84863v.209h-4.30175a1.8722,1.8722,0,0,0,1.91406,1.83789,2.32584,2.32584,0,0,0,1.63965-.6709l.3955.53906a2.88548,2.88548,0,0,1-2.11132.81348,2.79193,2.79193,0,0,1-.08887-5.57715Zm-1.749,2.45312h3.4873a1.72243,1.72243,0,0,0-1.749-1.77148A1.773,1.773,0,0,0,481.24759,183.50673Z"/><path class="cls-2" d="M486.76907,181.18545h.82617v.85742a2.25709,2.25709,0,0,1,1.77051-.96778v.84668a1.48745,1.48745,0,0,0-.33008-.03222,1.94187,1.94187,0,0,0-1.44043.84668v3.76269h-.82617Z"/><path class="cls-2" d="M493.87649,183.02236c0-.93555-.47363-1.23242-1.18847-1.23242a2.05311,2.05311,0,0,0-1.57325.82519v3.88379h-.82519v-5.31347h.82519v.76953a2.63653,2.63653,0,0,1,1.89258-.90137,1.50919,1.50919,0,0,1,1.69336,1.71582v3.72949h-.82422Z"/><path class="cls-2" d="M498.55032,181.05361a2.5805,2.5805,0,0,1,2.55273,2.84863v.209H496.8013a1.8722,1.8722,0,0,0,1.91406,1.83789,2.32413,2.32413,0,0,0,1.63965-.6709l.39648.53906a2.89331,2.89331,0,0,1-2.11328.81348,2.79194,2.79194,0,0,1-.08789-5.57715Zm-1.749,2.45312h3.4873a1.72243,1.72243,0,0,0-1.749-1.77148A1.77234,1.77234,0,0,0,496.8013,183.50673Z"/><path class="cls-2" d="M502.48782,185.38759V181.911h-.87988v-.72558h.87988V179.7333h.82617v1.45215h1.07813v.72558H503.314v3.30078c0,.39551.17578.68164.53906.68164a.796.796,0,0,0,.56055-.21972l.24219.61621a1.34742,1.34742,0,0,1-.99024.34082A1.0875,1.0875,0,0,1,502.48782,185.38759Z"/><path class="cls-7" d="M480.49766,153.61962c0-.04889.00165-.09642.00176-.14524H472.998c-.00009.03138-.00126.06235-.00126.09376a28.004,28.004,0,0,0,1.3552,8.72026,45.11384,45.11384,0,0,1,6.60336-1.06391A61.33593,61.33593,0,0,1,480.49766,153.61962Z"/><path class="cls-7" d="M480.95527,161.22449a45.11384,45.11384,0,0,0-6.60336,1.06391c1.56916,4.77123,4.38357,8.48009,7.81991,10.19859.15493.03511.30889.07272.46519.10413a19.70252,19.70252,0,0,0,2.49685.332C483.23916,171.46666,481.68854,167.05,480.95527,161.22449Z"/><path class="cls-7" d="M492,145.724a60.78476,60.78476,0,0,1,.49751,7.75039h7.50021a27.91725,27.91725,0,0,0-1.41274-8.799A45.5717,45.5717,0,0,1,492,145.724Z"/><path class="cls-7" d="M492.04016,161.22419q-.86511-.07874-1.7611-.134c-1.22376-.074-2.48634-.11487-3.78064-.11487-1.92775,0-3.78607.08845-5.54315.24917.73327,5.82548,2.28389,10.24217,4.17859,11.6986.45125.03175.90518.05374,1.36456.05374.45418,0,.90268-.02211,1.34823-.05489l.01726-.01174C489.75714,171.45208,491.30648,167.041,492.04016,161.22419Z"/><path class="cls-7" d="M487.86391,172.9102l-.01726.01174a20.01815,20.01815,0,0,0,2.96094-.44532c3.44261-1.71473,6.2643-5.41948,7.83644-10.193a45.32257,45.32257,0,0,0-6.60387-1.05943C491.30648,167.041,489.75714,171.45208,487.86391,172.9102Z"/><path class="cls-7" d="M492.49917,153.61962a61.19149,61.19149,0,0,1-.459,7.60457,45.32257,45.32257,0,0,1,6.60387,1.05943,27.95068,27.95068,0,0,0,1.35609-8.71548c0-.03154-.00232-.06224-.00241-.09376H492.4975C492.49761,153.52316,492.49917,153.57075,492.49917,153.61962Z"/><path class="cls-7" d="M480.99913,145.73042a45.51075,45.51075,0,0,1-6.58344-1.04818,27.79425,27.79425,0,0,0-1.41772,8.79214h7.50145A60.42569,60.42569,0,0,1,480.99913,145.73042Z"/><path class="cls-7" d="M486.49842,145.97343c-1.3224,0-2.61288-.0415-3.86141-.11869q-.83227-.05143-1.63788-.12432a60.42569,60.42569,0,0,0-.49971,7.744H492.4975A60.78476,60.78476,0,0,0,492,145.724c-.35111.03173-.70473.06162-1.06373.08737C489.5085,145.91376,488.02754,145.97343,486.49842,145.97343Z"/><path class="cls-7" d="M480.49766,153.61962a61.33593,61.33593,0,0,0,.45761,7.60487c1.75708-.16072,3.6154-.24917,5.54315-.24917,1.2943,0,2.55688.04086,3.78064.11487q.89643.05421,1.7611.134a61.19149,61.19149,0,0,0,.459-7.60457c0-.04887-.00156-.09646-.00167-.14524H480.49942C480.49931,153.5232,480.49766,153.57073,480.49766,153.61962Z"/><path class="cls-7" d="M491.47345,142.53089l.0046-.00581-.0046.00581c.20478,1.001.37907,2.07331.52654,3.1931a45.5717,45.5717,0,0,0,6.585-1.04862,23.67609,23.67609,0,0,0-.89275-2.27722c-1.78825-3.91314-4.49238-6.82731-7.65487-8.09463a19.68529,19.68529,0,0,0-2.70284-.31036,2.69754,2.69754,0,0,1,.32718.18C489.24315,135.20025,490.60237,138.27324,491.47345,142.53089Z"/><path class="cls-7" d="M481.61161,142.141c-.2405,1.1155-.44452,2.32065-.61248,3.58941q.80513.07266,1.63788.12432c1.24853.07719,2.539.11869,3.86141.11869,1.52912,0,3.01008-.05967,4.43784-.16207.359-.02575.71262-.05564,1.06373-.08737-.14747-1.11979-.32176-2.19214-.52654-3.1931-.87108-4.25765-2.2303-7.33064-3.81176-8.35773a2.69754,2.69754,0,0,0-.32718-.18c-.27739-.01222-.55563-.02124-.83609-.02124-.28463,0-.56573.01406-.84734.02616C483.98706,134.77869,482.54421,137.81519,481.61161,142.141Z"/><path class="cls-7" d="M481.61161,142.141c.9326-4.32582,2.37545-7.36232,4.03947-8.14293a19.50085,19.50085,0,0,0-2.67036.29377c-3.05875,1.22318-5.68673,3.99453-7.47764,7.71358a23.6124,23.6124,0,0,0-1.08739,2.67681,45.51075,45.51075,0,0,0,6.58344,1.04818C481.16709,144.46166,481.37111,143.25651,481.61161,142.141Z"/><path class="cls-7" d="M482.17182,172.487c-3.43634-1.7185-6.25075-5.42736-7.81991-10.19859a24.03386,24.03386,0,0,0-3.73564,1.21343c-.22973.09924-.44738.20128-.65782.30482A19.52654,19.52654,0,0,0,482.17182,172.487Z"/><path class="cls-7" d="M499.99771,153.47438c.00009.03152.00241.06222.00241.09376a27.95068,27.95068,0,0,1-1.35609,8.71548,23.16217,23.16217,0,0,1,4.02319,1.33622l.01495-.00177-.01495.00177q.19122.087.3724.17628a19.36628,19.36628,0,0,0,2.96125-10.32174Z"/><path class="cls-7" d="M498.644,162.28362c-1.57214,4.77352-4.39383,8.47827-7.83644,10.193.0426-.00966.08616-.0166.12867-.02651a19.54685,19.54685,0,0,0,12.10336-8.654q-.18147-.08917-.3724-.17628A23.16217,23.16217,0,0,0,498.644,162.28362Z"/><path class="cls-7" d="M490.27906,134.34527c-.07994-.0157-.16143-.027-.24171-.04175,3.16249,1.26732,5.86662,4.18149,7.65487,8.09463l.01034-.00584-.01034.00584a23.67609,23.67609,0,0,1,.89275,2.27722,22.17374,22.17374,0,0,0,4.45913-1.52892q-.18353-.29337-.37688-.57985A19.51075,19.51075,0,0,0,490.27906,134.34527Z"/><path class="cls-7" d="M499.99771,153.47438h6.00316a19.40978,19.40978,0,0,0-2.95677-10.32793,22.17374,22.17374,0,0,1-4.45913,1.52892A27.91725,27.91725,0,0,1,499.99771,153.47438Z"/><path class="cls-7" d="M474.41569,144.68224a22.18392,22.18392,0,0,1-4.44678-1.5251,19.35794,19.35794,0,0,0-2.97295,10.31724h6.002A27.79425,27.79425,0,0,1,474.41569,144.68224Z"/><path class="cls-7" d="M474.35191,162.2884a28.004,28.004,0,0,1-1.3552-8.72026c0-.03141.00117-.06238.00126-.09376h-6.002a19.40113,19.40113,0,0,0,2.96249,10.33227c.21044-.10354.42809-.20558.65782-.30482A24.03386,24.03386,0,0,1,474.35191,162.2884Z"/><path class="cls-7" d="M475.50308,142.00543c1.79091-3.719,4.41889-6.4904,7.47764-7.71358a19.5094,19.5094,0,0,0-12.36445,7.89123c-.226.31725-.44006.64331-.64736.97406a22.18392,22.18392,0,0,0,4.44678,1.5251A23.6124,23.6124,0,0,1,475.50308,142.00543Z"/><polyline class="cls-7" points="386.93 49.334 384.2 44.111 379.07 54.396 376.288 48.978 373.044 48.978"/><polyline class="cls-7" points="394.561 53.615 391.927 58.895 388.252 51.863"/><polyline class="cls-7" points="405.334 49.032 396.848 49.032 395.86 51.013"/><polyline class="cls-7" points="405.414 64.772 405.414 37.567 372.914 37.567 372.914 42.165 405.217 42.165"/><line class="cls-7" x1="396.4062" y1="65.15649" x2="405.40233" y2="65.15649"/><polyline class="cls-7" points="372.914 44.477 372.914 65.156 380.151 65.156"/><path class="cls-7" d="M395.477,65.91785l1.58113,2.11194a1.38253,1.38253,0,0,1,1.9619.28847l3.85475,5.03257a1.38027,1.38027,0,0,1-.29127,1.943h0a1.41142,1.41142,0,0,1-1.9619-.28846l-3.85475-5.03257"/><path class="cls-7" d="M380.41739,56.93328a9.46512,9.46512,0,1,1,7.97384,10.65084A9.45345,9.45345,0,0,1,380.41739,56.93328Zm8.371,8.00112a6.69859,6.69859,0,1,0-5.6956-7.60774A6.75247,6.75247,0,0,0,388.78843,64.9344Z"/><g id="firewall-with-shield-and-checkmark"><g class="cls-10"><line class="cls-11" x1="128.27786" y1="41.27916" x2="161.71935" y2="41.26766"/><line class="cls-11" x1="128.29886" y1="48.27916" x2="161.71935" y2="48.27916"/><line class="cls-11" x1="140.64066" y1="55.27966" x2="161.71916" y2="55.27966"/><line class="cls-11" x1="140.23441" y1="62.28016" x2="161.7194" y2="62.28016"/><line class="cls-11" x1="138.04786" y1="41.27916" x2="138.04786" y2="48.07916"/><line class="cls-11" x1="151.9722" y1="41.27916" x2="151.9722" y2="48.07916"/><line class="cls-11" x1="151.9722" y1="55.27966" x2="151.9722" y2="62.28016"/><line class="cls-11" x1="158.93461" y1="48.27916" x2="158.93461" y2="55.27966"/><line class="cls-11" x1="131.08546" y1="48.27916" x2="131.08546" y2="50.45166"/><line class="cls-11" x1="145.00931" y1="48.27916" x2="145.00931" y2="55.27966"/><line class="cls-11" x1="137.33351" y1="69.28016" x2="161.719" y2="69.28016"/><line class="cls-11" x1="158.93461" y1="62.48036" x2="158.93461" y2="69.28036"/><line class="cls-11" x1="145.00931" y1="62.48036" x2="145.00931" y2="69.28036"/><g class="cls-10"><path class="cls-11" d="M136.67091,53.09851q-.58275.0285-1.162.05l-.00151-.0045-2.778-2.148a2.34529,2.34529,0,0,0-2.949-.045l-2.992,2.1975c-.3855-.0145-.7735-.031-1.1615-.05-2.1955-.11-3.9075-.737-3.9075,2.2915,0,3.029.407,7.94.407,7.94s-.2445,3.683,3.989,6.7935c3.641,2.6755,5.0195,3.644,5.0195,3.644s1.4065-.9685,5.0475-3.644c4.233-3.1105,3.989-6.7935,3.989-6.7935s.407-4.911.407-7.94c0-3.0285-1.712-2.4015-3.9075-2.2915"/><path class="cls-12" d="M133.29835,55.82456a5.84725,5.84725,0,1,0,1.5615.9405h.001l-4.583,6.9775-2.467-3.295"/></g></g></g></svg>