<svg enable-background="new 0 0 1009.7 933.3" viewBox="0 0 1009.7 933.3" xmlns="http://www.w3.org/2000/svg"><circle cx="471" cy="466" fill="#e21d38" r="464"/><path d="m460.3 511.7c227.8 18.8 315.6 81.5 311.4 167.2-4.2 46-48.1 89.9-104.5 94-66.9 4.2-98.2-23-117-52.2-16.7-27.2-35.5-54.3-54.3-83.6-4.2-8.4-12.5-2.1-18.8 2.1-14.6 12.5-27.2 27.2-39.7 39.7-8.4 8.4-6.3 14.6-4.2 20.9 12.5 29.3 25.1 58.5 37.6 85.7 20.9 12.5 114.9 29.3 183.9 23 48.1-4.2 106.6-23 156.7-58.5 48.1-37.6 83.6-87.8 89.9-169.3 2.1-50.2-6.3-102.4-50.2-150.5-43.9-48-119.1-87.8-271.7-98.2 8.4-25.1 14.6-48.1 23-71.1 92 4.2 173.5 10.4 242.4 18.8 6.3-27.2 8.4-52.2 14.6-77.3l-18.8-23c-35.5-4.2-69-12.5-106.6-16.7-48.1-6.3-98.2-10.4-152.6-12.5-35.4 100.3-77.2 227.8-121.1 361.5m-60.6-390.8c-16.7 0-39.7 4.2-77.3 12.5-81.5 23-181.8 79.4-192.3 173.5-2.1 14.6-2.1 31.3-4.2 46-23 2.1-43.9 4.2-64.8 6.3-2.1 18.8-2.1 35.5-4.2 54.3 20.9-2.1 41.8-2.1 64.8-4.2-4.2 98.2 0 196.5 8.4 288.4 2.1 14.6 2.1 27.2 2.1 35.5-2.1 8.4-16.7 12.5-37.6 12.5l27.2 33.4c79.4 14.6 179.7 25.1 286.3 27.2 0-10.4 0-20.9 0-31.3-62.7-4.2-92-12.5-96.1-25.1-4.2-10.4-4.2-25.1-6.3-39.7-4.2-96.1-6.3-200.6-4.2-307.2 35.5 0 71.1 0 106.6-2.1 18.8-8.4 35.5-16.7 52.2-25.1 0-12.5 0-25.1 0-35.5-54.3 0-106.6 2.1-158.8 2.1 2.1-43.9 4.2-85.7 6.3-125.4 2.1-27.2 20.9-46 37.6-46 29.3-2.1 56.4 10.4 83.6 23 14.6 6.3 29.3 14.6 43.9 20.9 6.3 2.1 14.6 4.2 20.9-2.1 8.4-10.4 16.7-20.9 25.1-29.3 4.2-6.3 2.1-10.4 0-12.5-18.8-14.6-35.5-27.2-54.3-41.8-10.4-8.4-29.3-8.4-46-8.4-6.4-2-12.6.1-18.9.1" fill="#fff"/><g fill="#e21d38"><text font-family="'ArialMT'" font-size="45.978" transform="translate(951.5449 769.9863)">R</text><path d="m966.9 788.6c-19.2 0-34.8-15.6-34.8-34.8s15.6-34.8 34.8-34.8 34.8 15.6 34.8 34.8c0 19.1-15.6 34.8-34.8 34.8zm0-64c-16.1 0-29.1 13.1-29.1 29.1 0 16.1 13.1 29.1 29.1 29.1s29.1-13.1 29.1-29.1-13.1-29.1-29.1-29.1z"/></g></svg>