<svg id="Layer_1" data-name="Layer 1" xmlns="http://www.w3.org/2000/svg" viewBox="0 0 321.50286 180.89235"><defs><style>.cls-1,.cls-3{fill:#fff;}.cls-1{stroke:#000;}.cls-1,.cls-12,.cls-14,.cls-15,.cls-17,.cls-19,.cls-4,.cls-6,.cls-7,.cls-8,.cls-9{stroke-linecap:round;}.cls-1,.cls-5,.cls-6,.cls-7,.cls-8,.cls-9{stroke-miterlimit:10;}.cls-2{fill:#010101;}.cls-12,.cls-14,.cls-15,.cls-17,.cls-19,.cls-4,.cls-6,.cls-7,.cls-8,.cls-9{fill:none;}.cls-4,.cls-5{stroke:#999;}.cls-12,.cls-14,.cls-15,.cls-17,.cls-19,.cls-4{stroke-linejoin:round;}.cls-15,.cls-6,.cls-7,.cls-8,.cls-9{stroke:#1d9cd3;}.cls-7{stroke-dasharray:2.96911 2.96911;}.cls-8{stroke-dasharray:3.54539 3.54539;}.cls-9{stroke-dasharray:3.16959 3.16959;}.cls-10{fill:#1d9cd3;}.cls-11{fill:#e4002b;}.cls-12{stroke:#e4002b;}.cls-13{fill:#0c5c8d;}.cls-14{stroke:#0c5c8d;}.cls-16{fill:#2bae4a;}.cls-17{stroke:#2bae4a;}.cls-18{fill:#8b5ba5;}.cls-19{stroke:#8b5ba5;}.cls-20{fill:#999;}</style></defs><rect class="cls-1" x="34.22424" y="42.1908" width="256.52005" height="105.07895"/><rect class="cls-2" x="100.96092" y="33.1908" width="123.04668" height="18"/><path class="cls-3" d="M111.86745,39.99372h-1.46973v5.69677h-1.54883V39.99372H107.3694V38.5943h4.49805Z"/><path class="cls-3" d="M114.17506,39.99372v1.54883h1.71875V42.942h-1.71875v1.34912h2.11914v1.39941h-3.668V38.5943h3.668v1.39942Z"/><path class="cls-3" d="M121.68288,38.5943v7.09619H120.3235l-1.84961-4.03759v4.03759h-1.34863V38.5943h1.34863l1.84961,4.05811V38.5943Z"/><path class="cls-3" d="M125.72584,44.441h-1.44921l-.28907,1.24951H122.4778l1.52929-7.09619h2.00879l1.53907,7.09619h-1.53907Zm-.71875-3.95752-.45019,2.5586h.89941Z"/><path class="cls-3" d="M132.90846,38.5943v7.09619h-1.35937l-1.84961-4.03759v4.03759h-1.34864V38.5943h1.34864l1.84961,4.05811V38.5943Z"/><path class="cls-3" d="M138.15455,39.99372H136.6858v5.69677H135.136V39.99372h-1.47852V38.5943h4.49707Z"/><path class="cls-3" d="M146.64381,45.69049h-1.3291V41.12311L144.305,45.69049h-1.10938L142.176,41.08307v4.60742H140.8567V38.5943h1.83887l1.04981,4.05811,1.0498-4.05811h1.84863Z"/><path class="cls-3" d="M150.69264,44.441h-1.44922l-.28906,1.24951h-1.50977l1.5293-7.09619h2.00879l1.53906,7.09619h-1.53906Zm-.71875-3.95752-.45019,2.5586h.89941Z"/><path class="cls-3" d="M157.88014,38.5943v7.09619h-1.35937l-1.84864-4.03759v4.03759h-1.34961V38.5943h1.34961l1.84864,4.05811V38.5943Z"/><path class="cls-3" d="M161.929,44.441h-1.44922l-.28906,1.24951h-1.50977l1.5293-7.09619H162.219l1.53906,7.09619H162.219Zm-.71875-3.95752-.4502,2.5586h.89942Z"/><path class="cls-3" d="M167.50612,41.1529v-.70948c0-.35986-.3291-.59961-.78907-.59961s-.7998.23975-.7998.59961v3.39795c0,.35987.33984.59961.79.59961.46973,0,.79883-.23974.79883-.59961v-.59961h-.80957V41.84284h2.35937v1.97851a2.36986,2.36986,0,0,1-4.6875,0V40.46344a2.36986,2.36986,0,0,1,4.6875,0v.68946Z"/><path class="cls-3" d="M171.53151,39.99372v1.54883h1.71875V42.942h-1.71875v1.34912h2.11914v1.39941h-3.668V38.5943h3.668v1.39942Z"/><path class="cls-3" d="M180.26784,45.69049h-1.32911V41.12311L177.929,45.69049h-1.10938l-1.01953-4.60742v4.60742h-1.31933V38.5943h1.83886l1.04981,4.05811,1.0498-4.05811h1.84864Z"/><path class="cls-3" d="M182.8108,39.99372v1.54883h1.71875V42.942H182.8108v1.34912H184.929v1.39941h-3.668V38.5943h3.668v1.39942Z"/><path class="cls-3" d="M190.31764,38.5943v7.09619h-1.35937l-1.84961-4.03759v4.03759H185.76V38.5943h1.34864l1.84961,4.05811V38.5943Z"/><path class="cls-3" d="M195.56373,39.99372H194.094v5.69677h-1.54883V39.99372h-1.47949V38.5943h4.498Z"/><path class="cls-3" d="M200.555,43.1319h-.74024v2.55859h-1.54883V38.5943h2.3584a1.947,1.947,0,0,1,2.11914,1.939v.65967a1.8523,1.8523,0,0,1-.71,1.499l.91992,2.99853h-1.61914Zm-.74024-1.39941h.91016a.436.436,0,0,0,.46972-.46973v-.79932a.43337.43337,0,0,0-.46-.46972h-.91992Z"/><path class="cls-3" d="M203.65651,43.82135V40.46344a2.38749,2.38749,0,0,1,4.71777,0v3.35791a2.38748,2.38748,0,0,1-4.71777,0Zm3.16894.02V40.44342c0-.35986-.24023-.59961-.7998-.59961-.58008,0-.81934.23975-.81934.59961v3.39795c0,.35987.23926.59961.80957.59961C206.58522,44.441,206.82545,44.20124,206.82545,43.84137Z"/><path class="cls-3" d="M212.99538,44.29108v1.39941h-3.6875V38.5943h1.54882v5.69678Z"/><path class="cls-3" d="M215.31862,39.99372v1.54883h1.71875V42.942h-1.71875v1.34912h2.11914v1.39941h-3.668V38.5943h3.668v1.39942Z"/><path class="cls-4" d="M229.99341,119.49851H193.71378a.89814.89814,0,0,0-.88879.90178v5.84956a.89835.89835,0,0,0,.88879.90184h36.27963a.89863.89863,0,0,0,.88855-.90184v-5.84956A.89842.89842,0,0,0,229.99341,119.49851Z"/><path class="cls-4" d="M209.82675,109.61263H193.71326a.89813.89813,0,0,0-.88879.90178V116.364a.89834.89834,0,0,0,.88879.90183h16.11349a.89862.89862,0,0,0,.88854-.90183v-5.84957A.89841.89841,0,0,0,209.82675,109.61263Z"/><path class="cls-4" d="M209.82675,99.72675H193.71326a.89814.89814,0,0,0-.88879.90179v5.84956a.89834.89834,0,0,0,.88879.90184h16.11349a.89863.89863,0,0,0,.88854-.90184v-5.84956A.89842.89842,0,0,0,209.82675,99.72675Z"/><path class="cls-4" d="M209.82675,89.84088H193.71326a.89813.89813,0,0,0-.88879.90178v5.84956a.89834.89834,0,0,0,.88879.90184h16.11349a.89863.89863,0,0,0,.88854-.90184V90.74266A.89841.89841,0,0,0,209.82675,89.84088Z"/><path class="cls-4" d="M209.82675,79.955H193.71326a.89813.89813,0,0,0-.88879.90178v5.84957a.89834.89834,0,0,0,.88879.90183h16.11349a.89862.89862,0,0,0,.88854-.90183V80.85678A.89841.89841,0,0,0,209.82675,79.955Z"/><path class="cls-4" d="M229.99394,109.61263H213.88045a.89814.89814,0,0,0-.8888.90178V116.364a.89835.89835,0,0,0,.8888.90183h16.11349a.89862.89862,0,0,0,.88854-.90183v-5.84957A.89841.89841,0,0,0,229.99394,109.61263Z"/><path class="cls-4" d="M229.99394,99.72675H213.88045a.89815.89815,0,0,0-.8888.90179v5.84956a.89835.89835,0,0,0,.8888.90184h16.11349a.89863.89863,0,0,0,.88854-.90184v-5.84956A.89842.89842,0,0,0,229.99394,99.72675Z"/><path class="cls-4" d="M229.99394,89.84088H213.88045a.89814.89814,0,0,0-.8888.90178v5.84956a.89835.89835,0,0,0,.8888.90184h16.11349a.89863.89863,0,0,0,.88854-.90184V90.74266A.89841.89841,0,0,0,229.99394,89.84088Z"/><path class="cls-4" d="M229.99394,79.955H213.88045a.89814.89814,0,0,0-.8888.90178v5.84957a.89835.89835,0,0,0,.8888.90183h16.11349a.89862.89862,0,0,0,.88854-.90183V80.85678A.89841.89841,0,0,0,229.99394,79.955Z"/><rect class="cls-5" x="195.68162" y="123.04811" width="0.68856" height="0.69867" rx="0.34428"/><rect class="cls-5" x="198.15516" y="123.04811" width="0.68856" height="0.69867" rx="0.34428"/><rect class="cls-5" x="224.86322" y="123.04811" width="0.68856" height="0.69867" rx="0.34428"/><rect class="cls-5" x="227.33676" y="123.04811" width="0.68856" height="0.69867" rx="0.34428"/><path class="cls-4" d="M270.52414,119.49851H234.24451a.89814.89814,0,0,0-.88879.90178v5.84956a.89835.89835,0,0,0,.88879.90184h36.27963a.89863.89863,0,0,0,.88855-.90184v-5.84956A.89842.89842,0,0,0,270.52414,119.49851Z"/><path class="cls-4" d="M250.35748,109.61263H234.244a.89813.89813,0,0,0-.88879.90178V116.364a.89834.89834,0,0,0,.88879.90183h16.11349a.89862.89862,0,0,0,.88854-.90183v-5.84957A.89841.89841,0,0,0,250.35748,109.61263Z"/><path class="cls-4" d="M250.35748,99.72675H234.244a.89814.89814,0,0,0-.88879.90179v5.84956a.89834.89834,0,0,0,.88879.90184h16.11349a.89862.89862,0,0,0,.88854-.90184v-5.84956A.89842.89842,0,0,0,250.35748,99.72675Z"/><path class="cls-4" d="M250.35748,89.84088H234.244a.89813.89813,0,0,0-.88879.90178v5.84956a.89834.89834,0,0,0,.88879.90184h16.11349a.89862.89862,0,0,0,.88854-.90184V90.74266A.89841.89841,0,0,0,250.35748,89.84088Z"/><path class="cls-4" d="M250.35748,79.955H234.244a.89813.89813,0,0,0-.88879.90178v5.84957a.89834.89834,0,0,0,.88879.90183h16.11349a.89862.89862,0,0,0,.88854-.90183V80.85678A.89841.89841,0,0,0,250.35748,79.955Z"/><path class="cls-4" d="M270.52467,109.61263H254.41118a.89814.89814,0,0,0-.8888.90178V116.364a.89835.89835,0,0,0,.8888.90183h16.11349a.89862.89862,0,0,0,.88854-.90183v-5.84957A.89841.89841,0,0,0,270.52467,109.61263Z"/><path class="cls-4" d="M270.52467,99.72675H254.41118a.89815.89815,0,0,0-.8888.90179v5.84956a.89835.89835,0,0,0,.8888.90184h16.11349a.89863.89863,0,0,0,.88854-.90184v-5.84956A.89842.89842,0,0,0,270.52467,99.72675Z"/><path class="cls-4" d="M270.52467,89.84088H254.41118a.89814.89814,0,0,0-.8888.90178v5.84956a.89835.89835,0,0,0,.8888.90184h16.11349a.89863.89863,0,0,0,.88854-.90184V90.74266A.89841.89841,0,0,0,270.52467,89.84088Z"/><path class="cls-4" d="M270.52467,79.955H254.41118a.89814.89814,0,0,0-.8888.90178v5.84957a.89835.89835,0,0,0,.8888.90183h16.11349a.89862.89862,0,0,0,.88854-.90183V80.85678A.89841.89841,0,0,0,270.52467,79.955Z"/><path class="cls-4" d="M270.52339,70.03683H193.71326a.89813.89813,0,0,0-.88879.90178v5.84956a.89834.89834,0,0,0,.88879.90184h76.81013a.89862.89862,0,0,0,.88854-.90184V70.93861A.89841.89841,0,0,0,270.52339,70.03683Z"/><rect class="cls-5" x="236.21235" y="123.04811" width="0.68856" height="0.69867" rx="0.34428"/><rect class="cls-5" x="238.68589" y="123.04811" width="0.68856" height="0.69867" rx="0.34428"/><rect class="cls-5" x="265.39395" y="123.04811" width="0.68856" height="0.69867" rx="0.34428"/><rect class="cls-5" x="267.86749" y="123.04811" width="0.68856" height="0.69867" rx="0.34428"/><polyline class="cls-6" points="210.388 108.544 211.888 108.544 211.888 107.044"/><line class="cls-7" x1="211.88765" y1="104.07428" x2="211.88765" y2="81.80622"/><polyline class="cls-6" points="211.888 80.322 211.888 78.822 210.388 78.822"/><line class="cls-8" x1="206.8423" y1="78.82184" x2="194.43342" y2="78.82184"/><polyline class="cls-6" points="192.661 78.822 191.161 78.822 191.161 80.322"/><line class="cls-7" x1="191.16072" y1="83.29059" x2="191.16072" y2="105.55915"/><polyline class="cls-6" points="191.161 107.044 191.161 108.544 192.661 108.544"/><line class="cls-8" x1="196.20613" y1="108.54352" x2="208.61494" y2="108.54352"/><line class="cls-6" x1="159.24702" y1="93.71442" x2="160.74702" y2="93.71442"/><line class="cls-9" x1="163.91664" y1="93.71442" x2="187.68855" y2="93.71442"/><line class="cls-6" x1="189.27339" y1="93.71442" x2="190.77339" y2="93.71442"/><circle class="cls-10" cx="159.32222" cy="93.71442" r="1.50391"/><path class="cls-11" d="M72.49342,106.4422H75.137v.68311H73.28932v.812h1.80859v.68311H73.28932v1.55688h-.7959Z"/><path class="cls-11" d="M76.12526,109.147a1.3655,1.3655,0,0,0,.99707.40307c.44238,0,.69433-.252.69433-.56006,0-.34155-.24609-.571-.67187-.571a1.07758,1.07758,0,0,0-.78418.30786l-.55469-.15112V106.4422h2.56543v.68311H76.58424v.9353a1.28975,1.28975,0,0,1,.84082-.3081,1.16266,1.16266,0,0,1,1.19824,1.2041c0,.78955-.59375,1.28784-1.49511,1.28784a1.86449,1.86449,0,0,1-1.43946-.55981Z"/><path class="cls-11" d="M64.5901,112.0423h1.748a1.1996,1.1996,0,1,1,0,2.39673H65.386v1.33838h-.7959Zm1.6416.68311H65.386v1.03051h.8457a.51628.51628,0,1,0,0-1.03051Z"/><path class="cls-11" d="M68.15065,112.0423h.71191v3.73511h-.71191Z"/><path class="cls-11" d="M71.304,115.49738a1.11812,1.11812,0,0,1-.85645.34717.90136.90136,0,0,1-.9414-.896.85672.85672,0,0,1,.9414-.8623,1.09213,1.09213,0,0,1,.85645.33032v-.37525c0-.27441-.23535-.45361-.59375-.45361a1.13667,1.13667,0,0,0-.78906.31934l-.26856-.47608a1.7731,1.7731,0,0,1,1.18164-.42553c.61524,0,1.18164.24633,1.18164,1.0249v1.74707H71.304Zm0-.70557a.71125.71125,0,0,0-.57129-.2351c-.2793,0-.50977.15112-.50977.40869,0,.25195.23047.3977.50977.3977a.71066.71066,0,0,0,.57129-.23535Z"/><path class="cls-11" d="M72.96315,115.10553v-1.41137h-.44824v-.62159h.44824v-.73925H73.68v.73925h.54882v.62159H73.68v1.22094c0,.168.08886.29663.24609.29663a.38656.38656,0,0,0,.24609-.07836l.15137.53759a.87831.87831,0,0,1-.59375.17359A.67564.67564,0,0,1,72.96315,115.10553Z"/><path class="cls-11" d="M75.07252,113.69416h-.44824v-.62159h.44824v-.1455a.87193.87193,0,0,1,.91309-.94092,1.15,1.15,0,0,1,.51465.11206l-.14551.50391a.43719.43719,0,0,0-.22949-.05591c-.20215,0-.33594.13452-.33594.39209v.13427h.54883v.62159h-.54883v2.08325h-.7168Z"/><path class="cls-11" d="M76.69166,114.42218a1.43118,1.43118,0,1,1,1.42872,1.42237A1.3704,1.3704,0,0,1,76.69166,114.42218Zm2.12305,0a.69793.69793,0,1,0-.69433.78955A.71387.71387,0,0,0,78.81471,114.42218Z"/><path class="cls-11" d="M80.1985,113.07257h.71191v.36963a1.15562,1.15562,0,0,1,.86231-.43115v.69434a.94945.94945,0,0,0-.19629-.01685.89977.89977,0,0,0-.666.30249v1.78638H80.1985Z"/><path class="cls-11" d="M85.65748,114.0694c0-.252-.1123-.43115-.40332-.43115a.71709.71709,0,0,0-.55957.31347v1.82569H83.9778v-1.708c0-.252-.11231-.43115-.40332-.43115a.72414.72414,0,0,0-.55957.31909v1.82007H82.303v-2.70484h.71192v.35279a1.18062,1.18062,0,0,1,.88476-.41992.71523.71523,0,0,1,.75.49267,1.14922,1.14922,0,0,1,.92969-.49267.722.722,0,0,1,.79492.81762v1.95435h-.7168Z"/><path class="cls-12" d="M88.643,103.44319H62.26745a1.68683,1.68683,0,0,0-1.45482,1.83946v11.93192a1.68727,1.68727,0,0,0,1.45482,1.83956H88.643a1.68786,1.68786,0,0,0,1.45442-1.83956V105.28265A1.68742,1.68742,0,0,0,88.643,103.44319Z"/><path class="cls-13" d="M68.31569,124.69367h1.96582a.96633.96633,0,0,1,1.07519.9519.82991.82991,0,0,1-.64355.85694.905.905,0,0,1,.7168.91821.98371.98371,0,0,1-1.08692,1.00806H68.31569Zm1.792,1.50073a.41239.41239,0,1,0,0-.82324h-.99609v.82324Zm.02832,1.55689a.42887.42887,0,0,0,.48145-.44263.43643.43643,0,0,0-.48145-.43677H69.11159v.8794Z"/><path class="cls-13" d="M72.16139,124.69367h.71191v3.73511h-.71191Z"/><path class="cls-13" d="M75.31471,128.14875a1.11815,1.11815,0,0,1-.85644.34716.90056.90056,0,0,1-.94043-.896.856.856,0,0,1,.94043-.86231,1.09209,1.09209,0,0,1,.85644.33033v-.37525c0-.27441-.23535-.45361-.59375-.45361a1.13668,1.13668,0,0,0-.78906.31933l-.26856-.47607a1.77311,1.77311,0,0,1,1.18164-.42554c.61524,0,1.18067.24634,1.18067,1.02491v1.74707h-.71094Zm0-.70557a.71125.71125,0,0,0-.57129-.23511c-.27931,0-.50879.15113-.50879.40869,0,.252.22948.39771.50879.39771a.71066.71066,0,0,0,.57129-.23535Z"/><path class="cls-13" d="M78.7112,128.08722a1.06105,1.06105,0,0,1-.834.40869c-.68359,0-1.19922-.51513-1.19922-1.41674,0-.88477.50977-1.42237,1.19922-1.42237a1.04074,1.04074,0,0,1,.834.41431v-1.37744H79.428v3.73511H78.7112Zm0-1.48974a.7816.7816,0,0,0-.61622-.30786.79468.79468,0,0,0,0,1.57348.7816.7816,0,0,0,.61622-.30786Z"/><path class="cls-13" d="M81.47877,125.6568a1.35633,1.35633,0,0,1,1.35547,1.4895v.157H80.8235a.729.729,0,0,0,.77832.62719,1.10755,1.10755,0,0,0,.72266-.26879l.31347.459a1.66574,1.66574,0,0,1-1.11425.37524,1.41974,1.41974,0,1,1-.04493-2.83911Zm-.666,1.1648h1.332a.62579.62579,0,0,0-.666-.59912A.64929.64929,0,0,0,80.81276,126.8216Z"/><path class="cls-14" d="M88.643,121.289H62.26745a1.35992,1.35992,0,0,0-1.45482,1.22736v7.96145a1.36021,1.36021,0,0,0,1.45482,1.22743H88.643a1.3606,1.3606,0,0,0,1.45442-1.22743v-7.96145A1.36031,1.36031,0,0,0,88.643,121.289Z"/><path class="cls-10" d="M65.85866,94.69391H64.76588v-.7h2.9795v.7H66.65944v3.03516h-.80078Z"/><path class="cls-10" d="M69.19948,94.9571A1.35633,1.35633,0,0,1,70.555,96.4466v.157H68.5442a.729.729,0,0,0,.77832.6272,1.10749,1.10749,0,0,0,.72266-.2688l.31348.459a1.66579,1.66579,0,0,1-1.11426.37525,1.41974,1.41974,0,1,1-.04492-2.83911Zm-.666,1.16479h1.332a.62578.62578,0,0,0-.666-.59912A.64929.64929,0,0,0,68.53346,96.12189Z"/><path class="cls-10" d="M73.01491,96.09381a.43906.43906,0,0,0-.499-.5039.76928.76928,0,0,0-.61523.31909v1.82007h-.71192V95.02423h.71192V95.377a1.23753,1.23753,0,0,1,.94629-.41992.78682.78682,0,0,1,.8789.8623v1.90967h-.71093Z"/><path class="cls-10" d="M76.16725,97.449a1.11812,1.11812,0,0,1-.85645.34717.90136.90136,0,0,1-.9414-.896.85672.85672,0,0,1,.9414-.8623,1.09213,1.09213,0,0,1,.85645.33032V95.993c0-.27441-.23535-.45361-.59375-.45361a1.13667,1.13667,0,0,0-.78906.31934l-.26856-.47608a1.7731,1.7731,0,0,1,1.18164-.42553c.61524,0,1.18164.24633,1.18164,1.0249v1.74707h-.71191Zm0-.70557a.71125.71125,0,0,0-.57129-.2351c-.2793,0-.50976.15112-.50976.40869,0,.25195.23046.3977.50976.3977a.71066.71066,0,0,0,.57129-.23535Z"/><path class="cls-10" d="M79.513,96.09381a.43906.43906,0,0,0-.499-.5039.76924.76924,0,0,0-.61523.31909v1.82007h-.71192V95.02423h.71192V95.377a1.23753,1.23753,0,0,1,.94628-.41992.78682.78682,0,0,1,.87891.8623v1.90967H79.513Z"/><path class="cls-10" d="M81.18092,97.05719V95.64582h-.44824v-.62159h.44824V94.285h.7168v.73925h.54883v.62159h-.54883v1.22094c0,.168.08887.29663.24609.29663a.38659.38659,0,0,0,.2461-.07836l.15136.53759a.87829.87829,0,0,1-.59375.17359A.67565.67565,0,0,1,81.18092,97.05719Z"/><path class="cls-10" d="M85.14479,95.01862l-.61524.63281-.4541-.47607,1.17578-1.1814h.69434v3.73511h-.80078Z"/><path class="cls-15" d="M88.643,90.75163H62.26745A1.35992,1.35992,0,0,0,60.81263,91.979v7.96146a1.36021,1.36021,0,0,0,1.45482,1.22742H88.643a1.3606,1.3606,0,0,0,1.45442-1.22742V91.979A1.36031,1.36031,0,0,0,88.643,90.75163Z"/><path class="cls-16" d="M65.33034,82.0799H64.23756v-.7h2.97949v.7H66.13112v3.03515h-.80078Z"/><path class="cls-16" d="M68.67116,82.34308a1.35633,1.35633,0,0,1,1.35547,1.4895v.157H68.01588a.729.729,0,0,0,.77832.62719,1.10753,1.10753,0,0,0,.72266-.26879l.31348.459a1.66578,1.66578,0,0,1-1.11426.37524,1.41973,1.41973,0,1,1-.04492-2.83911Zm-.666,1.1648h1.332a.62578.62578,0,0,0-.666-.59912A.64929.64929,0,0,0,68.00514,83.50788Z"/><path class="cls-16" d="M72.48659,83.4798a.43907.43907,0,0,0-.499-.50391.76925.76925,0,0,0-.61523.3191v1.82006h-.71192V82.41022h.71192V82.763a1.23753,1.23753,0,0,1,.94629-.41992.78683.78683,0,0,1,.8789.86231v1.90966h-.71093Z"/><path class="cls-16" d="M75.63893,84.835a1.11815,1.11815,0,0,1-.85645.34716.9004.9004,0,0,1-.94043-.896.856.856,0,0,1,.94043-.86231,1.0921,1.0921,0,0,1,.85645.33033V83.379c0-.27441-.23535-.45361-.59375-.45361a1.13666,1.13666,0,0,0-.78906.31933l-.26856-.47607a1.77311,1.77311,0,0,1,1.18164-.42554c.61524,0,1.18067.24634,1.18067,1.02466v1.74731h-.71094Zm0-.70557a.71125.71125,0,0,0-.57129-.23511c-.2793,0-.50879.15112-.50879.40869,0,.252.22949.39771.50879.39771a.71141.71141,0,0,0,.57129-.23535Z"/><path class="cls-16" d="M78.98463,83.4798a.43907.43907,0,0,0-.499-.50391.76922.76922,0,0,0-.61523.3191v1.82006h-.71192V82.41022h.71192V82.763a1.23753,1.23753,0,0,1,.94628-.41992.78683.78683,0,0,1,.87891.86231v1.90966h-.71094Z"/><path class="cls-16" d="M80.6526,84.44294V83.0318h-.44824v-.62158h.44824V81.671h.7168v.73926h.54883v.62158H81.3694v1.221c0,.168.08887.29663.24609.29663a.38653.38653,0,0,0,.2461-.07837l.15136.5376a.87835.87835,0,0,1-.59375.17358A.67571.67571,0,0,1,80.6526,84.44294Z"/><path class="cls-16" d="M83.74928,84.48786c1.52832-1.12549,1.97656-1.512,1.97656-1.97119,0-.32471-.29687-.48731-.61035-.48731a1.33274,1.33274,0,0,0-.99707.4314l-.4541-.52661a1.90424,1.90424,0,0,1,1.43945-.61035,1.2672,1.2672,0,0,1,1.42774,1.19287c0,.63842-.52637,1.19287-1.52832,1.89843h1.55664v.7H83.74928Z"/><path class="cls-17" d="M88.643,78.13776H62.26745a1.35992,1.35992,0,0,0-1.45482,1.22736v7.96145A1.36021,1.36021,0,0,0,62.26745,88.554H88.643a1.3606,1.3606,0,0,0,1.45442-1.22743V79.36512A1.36031,1.36031,0,0,0,88.643,78.13776Z"/><path class="cls-18" d="M65.33815,69.46589H64.24538v-.7h2.97949v.7H66.13893V72.501h-.80078Z"/><path class="cls-18" d="M68.679,69.72907a1.35633,1.35633,0,0,1,1.35547,1.4895v.157H68.0237a.729.729,0,0,0,.77832.6272,1.10748,1.10748,0,0,0,.72265-.2688l.31348.459a1.66583,1.66583,0,0,1-1.11426.37524,1.41973,1.41973,0,1,1-.04492-2.83911Zm-.666,1.16479h1.332a.62579.62579,0,0,0-.666-.59912A.6493.6493,0,0,0,68.013,70.89386Z"/><path class="cls-18" d="M72.4944,70.86579a.43906.43906,0,0,0-.499-.50391.76928.76928,0,0,0-.61524.31909V72.501h-.71191V69.79621h.71191V70.149a1.23755,1.23755,0,0,1,.94629-.41992.78683.78683,0,0,1,.87891.8623V72.501H72.4944Z"/><path class="cls-18" d="M75.64674,72.221a1.1181,1.1181,0,0,1-.85644.34717.90057.90057,0,0,1-.94043-.896.856.856,0,0,1,.94043-.8623,1.09211,1.09211,0,0,1,.85644.33032V70.765c0-.27442-.23535-.45362-.59375-.45362a1.13669,1.13669,0,0,0-.78906.31934l-.26855-.47607a1.77307,1.77307,0,0,1,1.18164-.42554c.61523,0,1.18066.24634,1.18066,1.0249V72.501h-.71094Zm0-.70556a.71124.71124,0,0,0-.57129-.23511c-.27929,0-.50879.15112-.50879.40869,0,.25195.2295.3977.50879.3977a.71061.71061,0,0,0,.57129-.23535Z"/><path class="cls-18" d="M78.99245,70.86579a.43907.43907,0,0,0-.499-.50391.76924.76924,0,0,0-.61523.31909V72.501h-.71192V69.79621h.71192V70.149a1.23753,1.23753,0,0,1,.94629-.41992.78683.78683,0,0,1,.8789.8623V72.501h-.71093Z"/><path class="cls-18" d="M80.66041,71.82917V70.41779h-.44824v-.62158h.44824V69.057h.7168v.73926H81.926v.62158h-.54883v1.221c0,.168.08887.29663.24609.29663a.38656.38656,0,0,0,.2461-.07837l.15137.5376a.87839.87839,0,0,1-.59375.17358A.67565.67565,0,0,1,80.66041,71.82917Z"/><path class="cls-18" d="M85.42018,71.72834H83.63307v-.6272l1.48438-2.33521H86.2151v2.26221h.48145v.7002H86.2151v.7727h-.79492Zm-1.00879-.7002h1.00879V69.4715Z"/><path class="cls-19" d="M88.643,65.52389H62.26745a1.35991,1.35991,0,0,0-1.45482,1.22735V74.7127a1.36022,1.36022,0,0,0,1.45482,1.22743H88.643a1.36061,1.36061,0,0,0,1.45442-1.22743V66.75124A1.36031,1.36031,0,0,0,88.643,65.52389Z"/><path class="cls-11" d="M104.07448,106.4422H106.718v.68311h-1.84765v.812H106.679v.68311h-1.80859v1.55688h-.7959Z"/><path class="cls-11" d="M107.70631,109.147a1.36549,1.36549,0,0,0,.99707.40307c.44239,0,.69434-.252.69434-.56006,0-.34155-.24609-.571-.67188-.571a1.07761,1.07761,0,0,0-.78418.30786l-.55468-.15112V106.4422h2.56543v.68311H108.1653v.9353a1.28973,1.28973,0,0,1,.84082-.3081,1.16267,1.16267,0,0,1,1.19824,1.2041c0,.78955-.59375,1.28784-1.49512,1.28784a1.86445,1.86445,0,0,1-1.43945-.55981Z"/><path class="cls-11" d="M96.17116,112.0423h1.748a1.1996,1.1996,0,1,1,0,2.39673h-.95215v1.33838h-.79589Zm1.6416.68311h-.84571v1.03051h.84571a.51628.51628,0,1,0,0-1.03051Z"/><path class="cls-11" d="M99.7317,112.0423h.71192v3.73511H99.7317Z"/><path class="cls-11" d="M102.885,115.49738a1.1181,1.1181,0,0,1-.85644.34717.90057.90057,0,0,1-.94043-.896.856.856,0,0,1,.94043-.8623,1.09211,1.09211,0,0,1,.85644.33032v-.37525c0-.27441-.23535-.45361-.59375-.45361a1.13669,1.13669,0,0,0-.78906.31934l-.26855-.47608a1.77308,1.77308,0,0,1,1.18164-.42553c.61523,0,1.18066.24633,1.18066,1.0249v1.74707H102.885Zm0-.70557a.71122.71122,0,0,0-.57129-.2351c-.27929,0-.50878.15112-.50878.40869,0,.25195.22949.3977.50878.3977a.71063.71063,0,0,0,.57129-.23535Z"/><path class="cls-11" d="M104.5442,115.10553v-1.41137H104.096v-.62159h.44824v-.73925h.7168v.73925h.54883v.62159H105.261v1.22094c0,.168.08887.29663.24609.29663a.38661.38661,0,0,0,.2461-.07836l.15136.53759a.87829.87829,0,0,1-.59375.17359A.67565.67565,0,0,1,104.5442,115.10553Z"/><path class="cls-11" d="M106.65358,113.69416h-.44824v-.62159h.44824v-.1455a.87193.87193,0,0,1,.91308-.94092,1.15,1.15,0,0,1,.51465.11206l-.14551.50391a.43716.43716,0,0,0-.22949-.05591c-.20215,0-.33593.13452-.33593.39209v.13427h.54882v.62159h-.54882v2.08325h-.7168Z"/><path class="cls-11" d="M108.2737,114.42218a1.43068,1.43068,0,1,1,1.42773,1.42237A1.36958,1.36958,0,0,1,108.2737,114.42218Zm2.12207,0a.69793.69793,0,1,0-.69434.78955A.71388.71388,0,0,0,110.39577,114.42218Z"/><path class="cls-11" d="M111.77955,113.07257h.71192v.36963a1.15727,1.15727,0,0,1,.8623-.43115v.69434a.94939.94939,0,0,0-.19629-.01685.89975.89975,0,0,0-.666.30249v1.78638h-.71192Z"/><path class="cls-11" d="M117.23854,114.0694c0-.252-.11231-.43115-.40332-.43115a.71707.71707,0,0,0-.55957.31347v1.82569h-.7168v-1.708c0-.252-.1123-.43115-.40332-.43115a.72415.72415,0,0,0-.55957.31909v1.82007h-.71191v-2.70484h.71191v.35279a1.18066,1.18066,0,0,1,.88477-.41992.71524.71524,0,0,1,.75.49267,1.14918,1.14918,0,0,1,.92968-.49267.722.722,0,0,1,.79493.81762v1.95435h-.7168Z"/><path class="cls-12" d="M120.22409,103.44319H93.84858a1.68683,1.68683,0,0,0-1.45483,1.83946v11.93192a1.68727,1.68727,0,0,0,1.45483,1.83956h26.37551a1.68787,1.68787,0,0,0,1.45442-1.83956V105.28265A1.68743,1.68743,0,0,0,120.22409,103.44319Z"/><path class="cls-13" d="M99.89674,124.69367h1.96582a.96579.96579,0,0,1,1.0752.9519.82992.82992,0,0,1-.64356.85694.905.905,0,0,1,.7168.91821.98371.98371,0,0,1-1.08691,1.00806H99.89674Zm1.792,1.50073a.41239.41239,0,1,0,0-.82324h-.99609v.82324Zm.02832,1.55689a.42887.42887,0,0,0,.48145-.44263.43643.43643,0,0,0-.48145-.43677h-1.02441v.8794Z"/><path class="cls-13" d="M103.74245,124.69367h.71191v3.73511h-.71191Z"/><path class="cls-13" d="M106.89577,128.14875a1.11815,1.11815,0,0,1-.85645.34716.90137.90137,0,0,1-.94141-.896.85674.85674,0,0,1,.94141-.86231,1.09211,1.09211,0,0,1,.85645.33033v-.37525c0-.27441-.23536-.45361-.59375-.45361a1.1367,1.1367,0,0,0-.78907.31933l-.26855-.47607a1.77311,1.77311,0,0,1,1.18164-.42554c.61523,0,1.18164.24634,1.18164,1.02491v1.74707h-.71191Zm0-.70557a.71125.71125,0,0,0-.57129-.23511c-.2793,0-.50977.15113-.50977.40869,0,.252.23047.39771.50977.39771a.71066.71066,0,0,0,.57129-.23535Z"/><path class="cls-13" d="M110.29225,128.08722a1.061,1.061,0,0,1-.834.40869c-.6836,0-1.19825-.51513-1.19825-1.41674,0-.88477.50879-1.42237,1.19825-1.42237a1.04072,1.04072,0,0,1,.834.41431v-1.37744h.7168v3.73511h-.7168Zm0-1.48974a.78159.78159,0,0,0-.61621-.30786.79468.79468,0,0,0,0,1.57348.78159.78159,0,0,0,.61621-.30786Z"/><path class="cls-13" d="M113.05983,125.6568a1.35633,1.35633,0,0,1,1.35547,1.4895v.157h-2.01075a.729.729,0,0,0,.77833.62719,1.10753,1.10753,0,0,0,.72265-.26879l.31348.459a1.66578,1.66578,0,0,1-1.11426.37524,1.41973,1.41973,0,1,1-.04492-2.83911Zm-.666,1.1648h1.332a.62578.62578,0,0,0-.666-.59912A.6493.6493,0,0,0,112.39381,126.8216Z"/><path class="cls-14" d="M120.22409,121.289H93.84858a1.35993,1.35993,0,0,0-1.45483,1.22736v7.96145a1.36022,1.36022,0,0,0,1.45483,1.22743h26.37551a1.36061,1.36061,0,0,0,1.45442-1.22743v-7.96145A1.36031,1.36031,0,0,0,120.22409,121.289Z"/><path class="cls-20" d="M96.94752,94.69391H95.85475v-.7h2.97949v.7H97.7483v3.03516h-.80078Z"/><path class="cls-20" d="M100.28834,94.9571a1.35633,1.35633,0,0,1,1.35547,1.4895v.157H99.63307a.729.729,0,0,0,.77832.6272,1.10751,1.10751,0,0,0,.72266-.2688l.31347.459a1.66574,1.66574,0,0,1-1.11425.37525,1.41973,1.41973,0,1,1-.04493-2.83911Zm-.666,1.16479h1.332a.62579.62579,0,0,0-.666-.59912A.64929.64929,0,0,0,99.62233,96.12189Z"/><path class="cls-20" d="M104.10377,96.09381a.43906.43906,0,0,0-.499-.5039.76924.76924,0,0,0-.61523.31909v1.82007h-.71192V95.02423h.71192V95.377a1.23753,1.23753,0,0,1,.94628-.41992.78682.78682,0,0,1,.87891.8623v1.90967h-.71094Z"/><path class="cls-20" d="M107.25612,97.449a1.11812,1.11812,0,0,1-.85645.34717.90057.90057,0,0,1-.94043-.896.856.856,0,0,1,.94043-.8623,1.09213,1.09213,0,0,1,.85645.33032V95.993c0-.27441-.23535-.45361-.59375-.45361a1.13672,1.13672,0,0,0-.78907.31934l-.26855-.47608a1.7731,1.7731,0,0,1,1.18164-.42553c.61524,0,1.18066.24633,1.18066,1.0249v1.74707h-.71093Zm0-.70557a.71125.71125,0,0,0-.57129-.2351c-.2793,0-.50879.15112-.50879.40869,0,.25195.22949.3977.50879.3977a.71066.71066,0,0,0,.57129-.23535Z"/><path class="cls-20" d="M110.60182,96.09381a.43906.43906,0,0,0-.499-.5039.76928.76928,0,0,0-.61524.31909v1.82007h-.71191V95.02423h.71191V95.377a1.23755,1.23755,0,0,1,.94629-.41992.78682.78682,0,0,1,.87891.8623v1.90967h-.71094Z"/><path class="cls-20" d="M112.26979,97.05719V95.64582h-.44824v-.62159h.44824V94.285h.7168v.73925h.54882v.62159h-.54882v1.22094c0,.168.08886.29663.24609.29663a.38658.38658,0,0,0,.24609-.07836l.15137.53759a.87829.87829,0,0,1-.59375.17359A.67564.67564,0,0,1,112.26979,97.05719Z"/><path class="cls-20" d="M115.62916,96.67633a1.487,1.487,0,0,0,1.03028.42554c.4541,0,.706-.196.706-.48169,0-.30224-.22949-.44238-.751-.44238-.15625,0-.40821,0-.46485.00561v-.69433c.06738.00561.31934.00561.46485.00561.415,0,.68945-.13452.68945-.4143,0-.29688-.30274-.448-.69434-.448a1.35184,1.35184,0,0,0-.95215.39184l-.39257-.49267a1.84063,1.84063,0,0,1,1.42871-.59375c.873,0,1.41113.39209,1.41113,1.01367a.91661.91661,0,0,1-.81836.85132.9374.9374,0,0,1,.874.896c0,.64379-.57714,1.09741-1.47265,1.09741a1.86552,1.86552,0,0,1-1.47266-.59912Z"/><path class="cls-4" d="M120.22409,90.75163H93.84858A1.35993,1.35993,0,0,0,92.39375,91.979v7.96146a1.36022,1.36022,0,0,0,1.45483,1.22742h26.37551a1.36061,1.36061,0,0,0,1.45442-1.22742V91.979A1.36032,1.36032,0,0,0,120.22409,90.75163Z"/><path class="cls-20" d="M96.94752,82.0799H95.85475v-.7h2.97949v.7H97.7483v3.03515h-.80078Z"/><path class="cls-20" d="M100.28834,82.34308a1.35633,1.35633,0,0,1,1.35547,1.4895v.157H99.63307a.729.729,0,0,0,.77832.62719,1.10755,1.10755,0,0,0,.72266-.26879l.31347.459a1.66574,1.66574,0,0,1-1.11425.37524,1.41973,1.41973,0,1,1-.04493-2.83911Zm-.666,1.1648h1.332a.62579.62579,0,0,0-.666-.59912A.64929.64929,0,0,0,99.62233,83.50788Z"/><path class="cls-20" d="M104.10377,83.4798a.43907.43907,0,0,0-.499-.50391.76922.76922,0,0,0-.61523.3191v1.82006h-.71192V82.41022h.71192V82.763a1.23753,1.23753,0,0,1,.94628-.41992.78683.78683,0,0,1,.87891.86231v1.90966h-.71094Z"/><path class="cls-20" d="M107.25612,84.835a1.11815,1.11815,0,0,1-.85645.34716.9004.9004,0,0,1-.94043-.896.856.856,0,0,1,.94043-.86231,1.0921,1.0921,0,0,1,.85645.33033V83.379c0-.27441-.23535-.45361-.59375-.45361a1.1367,1.1367,0,0,0-.78907.31933l-.26855-.47607a1.77311,1.77311,0,0,1,1.18164-.42554c.61524,0,1.18066.24634,1.18066,1.02466v1.74731h-.71093Zm0-.70557a.71125.71125,0,0,0-.57129-.23511c-.2793,0-.50879.15112-.50879.40869,0,.252.22949.39771.50879.39771a.71141.71141,0,0,0,.57129-.23535Z"/><path class="cls-20" d="M110.60182,83.4798a.43907.43907,0,0,0-.499-.50391.76926.76926,0,0,0-.61524.3191v1.82006h-.71191V82.41022h.71191V82.763a1.23755,1.23755,0,0,1,.94629-.41992.78683.78683,0,0,1,.87891.86231v1.90966h-.71094Z"/><path class="cls-20" d="M112.26979,84.44294V83.0318h-.44824v-.62158h.44824V81.671h.7168v.73926h.54882v.62158h-.54882v1.221c0,.168.08886.29663.24609.29663a.38652.38652,0,0,0,.24609-.07837l.15137.5376a.87835.87835,0,0,1-.59375.17358A.6757.6757,0,0,1,112.26979,84.44294Z"/><path class="cls-20" d="M115.62916,84.06232a1.487,1.487,0,0,0,1.03028.42554c.4541,0,.706-.196.706-.48169,0-.30225-.22949-.44238-.751-.44238-.15625,0-.40821,0-.46485.00561v-.69434c.06738.00562.31934.00562.46485.00562.415,0,.68945-.13452.68945-.41431,0-.29687-.30274-.448-.69434-.448a1.35184,1.35184,0,0,0-.95215.39184l-.39257-.49267a1.83979,1.83979,0,0,1,1.42871-.59375c.873,0,1.41113.39209,1.41113,1.01367a.91615.91615,0,0,1-.81836.85107.93779.93779,0,0,1,.874.896c0,.644-.57714,1.09765-1.47265,1.09765a1.86548,1.86548,0,0,1-1.47266-.59912Z"/><path class="cls-4" d="M120.22409,78.13776H93.84858a1.35993,1.35993,0,0,0-1.45483,1.22736v7.96145A1.36022,1.36022,0,0,0,93.84858,88.554h26.37551a1.36061,1.36061,0,0,0,1.45442-1.22743V79.36512A1.36032,1.36032,0,0,0,120.22409,78.13776Z"/><path class="cls-18" d="M96.9192,69.46589H95.82643v-.7h2.97949v.7H97.72V72.501H96.9192Z"/><path class="cls-18" d="M100.26,69.72907a1.35633,1.35633,0,0,1,1.35547,1.4895v.157H99.60475a.729.729,0,0,0,.77832.6272,1.10751,1.10751,0,0,0,.72266-.2688l.31347.459a1.66579,1.66579,0,0,1-1.11425.37524,1.41974,1.41974,0,1,1-.04493-2.83911Zm-.666,1.16479h1.332a.62579.62579,0,0,0-.666-.59912A.64929.64929,0,0,0,99.594,70.89386Z"/><path class="cls-18" d="M104.07545,70.86579a.43906.43906,0,0,0-.499-.50391.76924.76924,0,0,0-.61523.31909V72.501h-.71192V69.79621h.71192V70.149a1.23753,1.23753,0,0,1,.94628-.41992.78683.78683,0,0,1,.87891.8623V72.501h-.71094Z"/><path class="cls-18" d="M107.2278,72.221a1.11812,1.11812,0,0,1-.85645.34717.90136.90136,0,0,1-.9414-.896.85672.85672,0,0,1,.9414-.8623,1.09213,1.09213,0,0,1,.85645.33032V70.765c0-.27442-.23535-.45362-.59375-.45362a1.13672,1.13672,0,0,0-.78907.31934l-.26855-.47607a1.77311,1.77311,0,0,1,1.18164-.42554c.61523,0,1.18164.24634,1.18164,1.0249V72.501h-.71191Zm0-.70556a.71125.71125,0,0,0-.57129-.23511c-.2793,0-.50977.15112-.50977.40869,0,.25195.23047.3977.50977.3977a.71063.71063,0,0,0,.57129-.23535Z"/><path class="cls-18" d="M110.5735,70.86579a.43906.43906,0,0,0-.499-.50391.76928.76928,0,0,0-.61524.31909V72.501h-.71191V69.79621h.71191V70.149a1.23755,1.23755,0,0,1,.94629-.41992.78683.78683,0,0,1,.87891.8623V72.501h-.71094Z"/><path class="cls-18" d="M112.24147,71.82917V70.41779h-.44824v-.62158h.44824V69.057h.7168v.73926h.54882v.62158h-.54882v1.221c0,.168.08886.29663.24609.29663a.38655.38655,0,0,0,.24609-.07837l.15137.5376a.87835.87835,0,0,1-.59375.17358A.67564.67564,0,0,1,112.24147,71.82917Z"/><path class="cls-18" d="M117.00123,71.72834h-1.78712v-.6272l1.48439-2.33521h1.09766v2.26221h.48144v.7002h-.48144v.7727h-.79493Zm-1.00878-.7002h1.00878V69.4715Z"/><path class="cls-19" d="M120.22409,65.52389H93.84858a1.35992,1.35992,0,0,0-1.45483,1.22735V74.7127a1.36023,1.36023,0,0,0,1.45483,1.22743h26.37551a1.36061,1.36061,0,0,0,1.45442-1.22743V66.75124A1.36031,1.36031,0,0,0,120.22409,65.52389Z"/><path class="cls-11" d="M135.65553,106.4422h2.64356v.68311h-1.84766v.812H138.26v.68311h-1.80859v1.55688h-.7959Z"/><path class="cls-11" d="M139.28737,109.147a1.3655,1.3655,0,0,0,.99707.40307c.44238,0,.69433-.252.69433-.56006,0-.34155-.24609-.571-.67187-.571a1.07758,1.07758,0,0,0-.78418.30786l-.55469-.15112V106.4422h2.56543v.68311h-1.78711v.9353a1.28975,1.28975,0,0,1,.84082-.3081,1.16267,1.16267,0,0,1,1.19824,1.2041c0,.78955-.59375,1.28784-1.49511,1.28784a1.86449,1.86449,0,0,1-1.43946-.55981Z"/><path class="cls-11" d="M127.75221,112.0423h1.748a1.1996,1.1996,0,1,1,0,2.39673h-.95215v1.33838h-.7959Zm1.6416.68311h-.8457v1.03051h.8457a.51628.51628,0,1,0,0-1.03051Z"/><path class="cls-11" d="M131.31276,112.0423h.71191v3.73511h-.71191Z"/><path class="cls-11" d="M134.46608,115.49738a1.11812,1.11812,0,0,1-.85645.34717.90136.90136,0,0,1-.9414-.896.85672.85672,0,0,1,.9414-.8623,1.09213,1.09213,0,0,1,.85645.33032v-.37525c0-.27441-.23535-.45361-.59375-.45361a1.13667,1.13667,0,0,0-.78906.31934l-.26856-.47608a1.7731,1.7731,0,0,1,1.18164-.42553c.61524,0,1.18164.24633,1.18164,1.0249v1.74707h-.71191Zm0-.70557a.71125.71125,0,0,0-.57129-.2351c-.2793,0-.50977.15112-.50977.40869,0,.25195.23047.3977.50977.3977a.71066.71066,0,0,0,.57129-.23535Z"/><path class="cls-11" d="M136.12526,115.10553v-1.41137H135.677v-.62159h.44824v-.73925h.71679v.73925h.54883v.62159h-.54883v1.22094c0,.168.08887.29663.2461.29663a.38656.38656,0,0,0,.24609-.07836l.15137.53759a.87833.87833,0,0,1-.59375.17359A.67564.67564,0,0,1,136.12526,115.10553Z"/><path class="cls-11" d="M138.23463,113.69416h-.44824v-.62159h.44824v-.1455a.87193.87193,0,0,1,.91309-.94092,1.15,1.15,0,0,1,.51465.11206l-.14551.50391a.43719.43719,0,0,0-.22949-.05591c-.20215,0-.33594.13452-.33594.39209v.13427h.54883v.62159h-.54883v2.08325h-.7168Z"/><path class="cls-11" d="M139.85377,114.42218a1.43118,1.43118,0,1,1,1.42871,1.42237A1.3704,1.3704,0,0,1,139.85377,114.42218Zm2.12305,0a.69793.69793,0,1,0-.69434.78955A.71387.71387,0,0,0,141.97682,114.42218Z"/><path class="cls-11" d="M143.36061,113.07257h.71191v.36963a1.15562,1.15562,0,0,1,.86231-.43115v.69434a.94945.94945,0,0,0-.19629-.01685.89977.89977,0,0,0-.666.30249v1.78638h-.71191Z"/><path class="cls-11" d="M148.81959,114.0694c0-.252-.1123-.43115-.40332-.43115a.71709.71709,0,0,0-.55957.31347v1.82569h-.71679v-1.708c0-.252-.11231-.43115-.40332-.43115a.72412.72412,0,0,0-.55957.31909v1.82007h-.71192v-2.70484h.71192v.35279a1.18062,1.18062,0,0,1,.88476-.41992.71523.71523,0,0,1,.75.49267,1.14922,1.14922,0,0,1,.92969-.49267.722.722,0,0,1,.79492.81762v1.95435h-.7168Z"/><path class="cls-12" d="M151.80522,103.44319H125.42971a1.68683,1.68683,0,0,0-1.45483,1.83946v11.93192a1.68727,1.68727,0,0,0,1.45483,1.83956h26.37551a1.68786,1.68786,0,0,0,1.45441-1.83956V105.28265A1.68742,1.68742,0,0,0,151.80522,103.44319Z"/><path class="cls-13" d="M131.4778,124.69367h1.96582a.96633.96633,0,0,1,1.07519.9519.82991.82991,0,0,1-.64355.85694.905.905,0,0,1,.71679.91821.98371.98371,0,0,1-1.08691,1.00806H131.4778Zm1.792,1.50073a.41239.41239,0,1,0,0-.82324h-.99609v.82324Zm.02832,1.55689a.42887.42887,0,0,0,.48144-.44263.43642.43642,0,0,0-.48144-.43677H132.2737v.8794Z"/><path class="cls-13" d="M135.3235,124.69367h.71191v3.73511h-.71191Z"/><path class="cls-13" d="M138.47682,128.14875a1.11815,1.11815,0,0,1-.85644.34716.90056.90056,0,0,1-.94043-.896.856.856,0,0,1,.94043-.86231,1.09209,1.09209,0,0,1,.85644.33033v-.37525c0-.27441-.23535-.45361-.59375-.45361a1.13666,1.13666,0,0,0-.78906.31933l-.26856-.47607a1.77311,1.77311,0,0,1,1.18164-.42554c.61524,0,1.18067.24634,1.18067,1.02491v1.74707h-.71094Zm0-.70557a.71125.71125,0,0,0-.57129-.23511c-.2793,0-.50879.15113-.50879.40869,0,.252.22949.39771.50879.39771a.71066.71066,0,0,0,.57129-.23535Z"/><path class="cls-13" d="M141.8733,128.08722a1.061,1.061,0,0,1-.834.40869c-.68359,0-1.19922-.51513-1.19922-1.41674,0-.88477.50977-1.42237,1.19922-1.42237a1.04071,1.04071,0,0,1,.834.41431v-1.37744h.7168v3.73511h-.7168Zm0-1.48974a.78158.78158,0,0,0-.61621-.30786.79468.79468,0,0,0,0,1.57348.78158.78158,0,0,0,.61621-.30786Z"/><path class="cls-13" d="M144.64088,125.6568a1.35633,1.35633,0,0,1,1.35547,1.4895v.157h-2.01074a.729.729,0,0,0,.77832.62719,1.10755,1.10755,0,0,0,.72266-.26879l.31347.459a1.66575,1.66575,0,0,1-1.11426.37524,1.41974,1.41974,0,1,1-.04492-2.83911Zm-.666,1.1648h1.332a.62579.62579,0,0,0-.666-.59912A.64929.64929,0,0,0,143.97487,126.8216Z"/><path class="cls-14" d="M151.80522,121.289H125.42971a1.35992,1.35992,0,0,0-1.45483,1.22736v7.96145a1.36021,1.36021,0,0,0,1.45483,1.22743h26.37551a1.3606,1.3606,0,0,0,1.45441-1.22743v-7.96145A1.3603,1.3603,0,0,0,151.80522,121.289Z"/><path class="cls-20" d="M128.52858,94.69391H127.4358v-.7h2.9795v.7h-1.08594v3.03516h-.80078Z"/><path class="cls-20" d="M131.8694,94.9571a1.35633,1.35633,0,0,1,1.35547,1.4895v.157h-2.01076a.729.729,0,0,0,.77834.6272,1.10748,1.10748,0,0,0,.72265-.2688l.31348.459a1.66579,1.66579,0,0,1-1.11426.37525,1.41974,1.41974,0,1,1-.04492-2.83911Zm-.666,1.16479h1.332a.62578.62578,0,0,0-.666-.59912A.6493.6493,0,0,0,131.20338,96.12189Z"/><path class="cls-20" d="M135.68483,96.09381a.43906.43906,0,0,0-.499-.5039.76928.76928,0,0,0-.61523.31909v1.82007h-.71191V95.02423h.71191V95.377a1.23755,1.23755,0,0,1,.94629-.41992.78683.78683,0,0,1,.87891.8623v1.90967h-.71094Z"/><path class="cls-20" d="M138.83717,97.449a1.1181,1.1181,0,0,1-.85644.34717.90137.90137,0,0,1-.94141-.896.85673.85673,0,0,1,.94141-.8623,1.09213,1.09213,0,0,1,.85644.33032V95.993c0-.27441-.23535-.45361-.59375-.45361a1.13669,1.13669,0,0,0-.78906.31934l-.26856-.47608a1.77311,1.77311,0,0,1,1.18165-.42553c.61523,0,1.18164.24633,1.18164,1.0249v1.74707h-.71192Zm0-.70557a.71123.71123,0,0,0-.57129-.2351c-.27929,0-.50976.15112-.50976.40869,0,.25195.23047.3977.50976.3977a.71064.71064,0,0,0,.57129-.23535Z"/><path class="cls-20" d="M142.18288,96.09381a.43906.43906,0,0,0-.499-.5039.76924.76924,0,0,0-.61523.31909v1.82007h-.71192V95.02423h.71192V95.377a1.23753,1.23753,0,0,1,.94629-.41992.78682.78682,0,0,1,.8789.8623v1.90967h-.71093Z"/><path class="cls-20" d="M143.85084,97.05719V95.64582h-.44824v-.62159h.44824V94.285h.7168v.73925h.54883v.62159h-.54883v1.22094c0,.168.08887.29663.24609.29663a.38657.38657,0,0,0,.2461-.07836l.15137.53759a.87833.87833,0,0,1-.59375.17359A.67565.67565,0,0,1,143.85084,97.05719Z"/><path class="cls-20" d="M147.21022,96.67633a1.487,1.487,0,0,0,1.03027.42554c.4541,0,.70606-.196.70606-.48169,0-.30224-.2295-.44238-.751-.44238-.15625,0-.4082,0-.46484.00561v-.69433c.06738.00561.31933.00561.46484.00561.415,0,.68945-.13452.68945-.4143,0-.29688-.30273-.448-.69433-.448a1.3518,1.3518,0,0,0-.95215.39184l-.39258-.49267a1.84067,1.84067,0,0,1,1.42871-.59375c.87305,0,1.41113.39209,1.41113,1.01367a.91661.91661,0,0,1-.81835.85132.9374.9374,0,0,1,.874.896c0,.64379-.57715,1.09741-1.47266,1.09741a1.867,1.867,0,0,1-1.47265-.59912Z"/><path class="cls-4" d="M151.80522,90.75163H125.42971a1.35993,1.35993,0,0,0-1.45483,1.22736v7.96146a1.36021,1.36021,0,0,0,1.45483,1.22742h26.37551a1.3606,1.3606,0,0,0,1.45441-1.22742V91.979A1.36031,1.36031,0,0,0,151.80522,90.75163Z"/><path class="cls-20" d="M128.52858,82.0799H127.4358v-.7h2.9795v.7h-1.08594v3.03515h-.80078Z"/><path class="cls-20" d="M131.8694,82.34308a1.35633,1.35633,0,0,1,1.35547,1.4895v.157h-2.01076a.729.729,0,0,0,.77834.62719,1.10753,1.10753,0,0,0,.72265-.26879l.31348.459a1.66578,1.66578,0,0,1-1.11426.37524,1.41974,1.41974,0,1,1-.04492-2.83911Zm-.666,1.1648h1.332a.62578.62578,0,0,0-.666-.59912A.6493.6493,0,0,0,131.20338,83.50788Z"/><path class="cls-20" d="M135.68483,83.4798a.43907.43907,0,0,0-.499-.50391.76925.76925,0,0,0-.61523.3191v1.82006h-.71191V82.41022h.71191V82.763a1.23755,1.23755,0,0,1,.94629-.41992.78684.78684,0,0,1,.87891.86231v1.90966h-.71094Z"/><path class="cls-20" d="M138.83717,84.835a1.11813,1.11813,0,0,1-.85644.34716.90121.90121,0,0,1-.94141-.896.85674.85674,0,0,1,.94141-.86231,1.09211,1.09211,0,0,1,.85644.33033V83.379c0-.27441-.23535-.45361-.59375-.45361a1.13668,1.13668,0,0,0-.78906.31933l-.26856-.47607a1.77312,1.77312,0,0,1,1.18165-.42554c.61523,0,1.18164.24634,1.18164,1.02466v1.74731h-.71192Zm0-.70557a.71124.71124,0,0,0-.57129-.23511c-.27929,0-.50976.15112-.50976.40869,0,.252.23047.39771.50976.39771a.71139.71139,0,0,0,.57129-.23535Z"/><path class="cls-20" d="M142.18288,83.4798a.43907.43907,0,0,0-.499-.50391.76922.76922,0,0,0-.61523.3191v1.82006h-.71192V82.41022h.71192V82.763a1.23753,1.23753,0,0,1,.94629-.41992.78683.78683,0,0,1,.8789.86231v1.90966h-.71093Z"/><path class="cls-20" d="M143.85084,84.44294V83.0318h-.44824v-.62158h.44824V81.671h.7168v.73926h.54883v.62158h-.54883v1.221c0,.168.08887.29663.24609.29663a.38651.38651,0,0,0,.2461-.07837l.15137.5376a.87839.87839,0,0,1-.59375.17358A.67571.67571,0,0,1,143.85084,84.44294Z"/><path class="cls-20" d="M147.21022,84.06232a1.487,1.487,0,0,0,1.03027.42554c.4541,0,.70606-.196.70606-.48169,0-.30225-.2295-.44238-.751-.44238-.15625,0-.4082,0-.46484.00561v-.69434c.06738.00562.31933.00562.46484.00562.415,0,.68945-.13452.68945-.41431,0-.29687-.30273-.448-.69433-.448a1.3518,1.3518,0,0,0-.95215.39184l-.39258-.49267a1.83983,1.83983,0,0,1,1.42871-.59375c.87305,0,1.41113.39209,1.41113,1.01367a.91615.91615,0,0,1-.81835.85107.93779.93779,0,0,1,.874.896c0,.644-.57715,1.09765-1.47266,1.09765a1.867,1.867,0,0,1-1.47265-.59912Z"/><path class="cls-4" d="M151.80522,78.13776H125.42971a1.35993,1.35993,0,0,0-1.45483,1.22736v7.96145a1.36021,1.36021,0,0,0,1.45483,1.22743h26.37551a1.3606,1.3606,0,0,0,1.45441-1.22743V79.36512A1.36031,1.36031,0,0,0,151.80522,78.13776Z"/><path class="cls-18" d="M128.50026,69.46589h-1.09278v-.7h2.9795v.7H129.301V72.501h-.80078Z"/><path class="cls-18" d="M131.84108,69.72907a1.35633,1.35633,0,0,1,1.35547,1.4895v.157H131.1858a.729.729,0,0,0,.77831.6272,1.1075,1.1075,0,0,0,.72267-.2688l.31348.459a1.66583,1.66583,0,0,1-1.11426.37524,1.41973,1.41973,0,1,1-.04492-2.83911Zm-.666,1.16479h1.332a.62579.62579,0,0,0-.666-.59912A.6493.6493,0,0,0,131.17506,70.89386Z"/><path class="cls-18" d="M135.65651,70.86579a.43907.43907,0,0,0-.499-.50391.76928.76928,0,0,0-.61523.31909V72.501h-.71191V69.79621h.71191V70.149a1.23755,1.23755,0,0,1,.94629-.41992.78683.78683,0,0,1,.87891.8623V72.501h-.71094Z"/><path class="cls-18" d="M138.80885,72.221a1.1181,1.1181,0,0,1-.85644.34717.90057.90057,0,0,1-.94043-.896.856.856,0,0,1,.94043-.8623,1.09212,1.09212,0,0,1,.85644.33032V70.765c0-.27442-.23535-.45362-.59375-.45362a1.13669,1.13669,0,0,0-.78906.31934l-.26856-.47607a1.7731,1.7731,0,0,1,1.18163-.42554c.61525,0,1.18068.24634,1.18068,1.0249V72.501h-.71094Zm0-.70556a.71125.71125,0,0,0-.57129-.23511c-.27929,0-.50879.15112-.50879.40869,0,.25195.2295.3977.50879.3977a.71063.71063,0,0,0,.57129-.23535Z"/><path class="cls-18" d="M142.15455,70.86579a.43906.43906,0,0,0-.499-.50391.76924.76924,0,0,0-.61523.31909V72.501h-.71192V69.79621h.71192V70.149a1.23753,1.23753,0,0,1,.94629-.41992.78683.78683,0,0,1,.8789.8623V72.501h-.71094Z"/><path class="cls-18" d="M143.82252,71.82917V70.41779h-.44824v-.62158h.44824V69.057h.7168v.73926h.54883v.62158h-.54883v1.221c0,.168.08887.29663.24609.29663a.38656.38656,0,0,0,.2461-.07837l.15137.5376a.87841.87841,0,0,1-.59377.17358A.67564.67564,0,0,1,143.82252,71.82917Z"/><path class="cls-18" d="M148.58229,71.72834h-1.78711v-.6272l1.48437-2.33521h1.09766v2.26221h.48145v.7002h-.48145v.7727h-.79492Zm-1.00879-.7002h1.00879V69.4715Z"/><path class="cls-19" d="M151.80522,65.52389H125.42971a1.35992,1.35992,0,0,0-1.45483,1.22735V74.7127a1.36022,1.36022,0,0,0,1.45483,1.22743h26.37551a1.3606,1.3606,0,0,0,1.45441-1.22743V66.75124A1.3603,1.3603,0,0,0,151.80522,65.52389Z"/></svg>