<svg id="Layer_1" data-name="Layer 1" xmlns="http://www.w3.org/2000/svg" viewBox="0 0 438.29847 197.09178"><defs><style>.cls-1,.cls-2{fill:#fff;}.cls-1{stroke:#000;stroke-miterlimit:10;}.cls-1,.cls-3,.cls-7{stroke-linecap:round;}.cls-3,.cls-7{fill:none;stroke-linejoin:round;}.cls-3{stroke:#f36f4c;}.cls-4{fill:#f36f4c;}.cls-5{fill:#999;}.cls-6{fill:#c20025;}.cls-7{stroke:#fff;}</style></defs><rect class="cls-1" x="78.51303" y="39.22843" width="134.33092" height="125.87325"/><rect x="102.50511" y="30.22843" width="86.34676" height="18"/><path class="cls-2" d="M108.71326,40.85977v-3.3584a2.36994,2.36994,0,0,1,4.6875,0V38.391h-1.56933v-.90918c0-.36035-.25977-.59961-.76953-.59961-.52979,0-.79932.23926-.79932.59961V40.8793c0,.36036.26953.59961.78955.59961.51953,0,.7793-.23925.7793-.59961v-.90918h1.56933v.88965a2.36994,2.36994,0,0,1-4.6875,0Z"/><path class="cls-2" d="M118.26405,39.47012v3.25879h-1.499V39.45059c0-.38965-.21-.59961-.5-.59961a.45861.45861,0,0,0-.47949.46973v3.4082H114.286V35.03262h1.49951v2.64844a1.91819,1.91819,0,0,1,.83936-.19922C117.63416,37.48184,118.26405,38.13126,118.26405,39.47012Z"/><path class="cls-2" d="M123.12733,37.63126v5.09765h-.98926l-.18994-.2705a1.80471,1.80471,0,0,1-1.16944.41992c-1.02929,0-1.65918-.63965-1.65918-1.94824V39.42032c0-1.29883.62989-1.93848,1.65918-1.93848a1.7803,1.7803,0,0,1,1.16944.40918l.18994-.25976Zm-1.499,3.418v-1.749a.46248.46248,0,0,0-.50976-.46972c-.31983,0-.5.21-.5.58007v1.5293c0,.36914.18017.58984.5.58984A.47576.47576,0,0,0,121.6283,41.04923Z"/><path class="cls-2" d="M123.90614,41.19962V41.0795h1.45947v.12012a.40806.40806,0,0,0,.4497.35937c.25,0,.39991-.11914.39991-.30957,0-.61914-2.19922-.33008-2.19922-2.08887a1.81178,1.81178,0,0,1,3.6084-.05957v.09961h-1.45948V39.101a.31965.31965,0,0,0-.34961-.2998c-.21972,0-.33984.11914-.33984.26953,0,.59961,2.2085.35938,2.2085,2.12891a1.70434,1.70434,0,0,1-1.88867,1.67871A1.72182,1.72182,0,0,1,123.90614,41.19962Z"/><path class="cls-2" d="M128.36512,41.19962V41.0795h1.45947v.12012a.40806.40806,0,0,0,.44971.35937c.25,0,.3999-.11914.3999-.30957,0-.61914-2.19922-.33008-2.19922-2.08887a1.81178,1.81178,0,0,1,3.6084-.05957v.09961h-1.45947V39.101a.31966.31966,0,0,0-.34961-.2998c-.21973,0-.33984.11914-.33984.26953,0,.59961,2.20849.35938,2.20849,2.12891a1.70434,1.70434,0,0,1-1.88867,1.67871A1.72182,1.72182,0,0,1,128.36512,41.19962Z"/><path class="cls-2" d="M132.94764,35.63223h1.499v1.46h-1.499Zm0,1.999h1.499v5.09765h-1.499Z"/><path class="cls-2" d="M135.24061,41.19962V41.0795h1.45947v.12012a.40806.40806,0,0,0,.44971.35937c.25,0,.3999-.11914.3999-.30957,0-.61914-2.19922-.33008-2.19922-2.08887a1.81178,1.81178,0,0,1,3.6084-.05957v.09961H137.4994V39.101a.31966.31966,0,0,0-.34961-.2998c-.21973,0-.33985.11914-.33985.26953,0,.59961,2.209.35938,2.209,2.12891a1.90235,1.90235,0,0,1-3.77832,0Z"/><path class="cls-2" d="M146.3285,37.57169v.90918a1.94591,1.94591,0,0,1-2.10889,1.94922h-.81933v2.29882H141.851V35.63223h2.35889A1.95241,1.95241,0,0,1,146.3285,37.57169Zm-1.54883-.07032a.43856.43856,0,0,0-.46-.46972h-.91943v1.999h.90966a.44331.44331,0,0,0,.46973-.47949Z"/><path class="cls-2" d="M151.07069,37.63126v5.09765h-.98926l-.18994-.2705a1.80471,1.80471,0,0,1-1.16944.41992c-1.02929,0-1.65918-.63965-1.65918-1.94824V39.42032c0-1.29883.62989-1.93848,1.65918-1.93848a1.7803,1.7803,0,0,1,1.16944.40918l.18994-.25976Zm-1.499,3.418v-1.749a.46248.46248,0,0,0-.50976-.46972c-.31983,0-.5.21-.5.58007v1.5293c0,.36914.18017.58984.5.58984A.47576.47576,0,0,0,149.57166,41.04923Z"/><path class="cls-2" d="M154.78016,37.54141v1.28907a1.05957,1.05957,0,0,0-.37988-.06934.8669.8669,0,0,0-.86914.90918v3.05859h-1.49952V37.63126h.98975l.25977.37011a2.164,2.164,0,0,1,1.29931-.46972A1.30363,1.30363,0,0,1,154.78016,37.54141Z"/><path class="cls-2" d="M158.46424,41.3793v1.34961h-.91943c-1.06934,0-1.55908-.61035-1.55908-1.96875V38.98087h-.66993V37.63126h.66993V36.20255h1.499v1.42871h.94971v1.34961h-.94971v1.51855c0,.58984.18994.87988.55957.87988Z"/><path class="cls-2" d="M159.2577,35.63223h1.499v1.46h-1.499Zm0,1.999h1.499v5.09765h-1.499Z"/><path class="cls-2" d="M164.58973,41.3793v1.34961h-.91943c-1.06934,0-1.55909-.61035-1.55909-1.96875V38.98087h-.66992V37.63126h.66992V36.20255h1.499v1.42871h.9497v1.34961h-.9497v1.51855c0,.58984.18994.87988.55957.87988Z"/><path class="cls-2" d="M165.38319,35.63223h1.499v1.46h-1.499Zm0,1.999h1.499v5.09765h-1.499Z"/><path class="cls-2" d="M167.77576,40.8793V39.47012a1.99905,1.99905,0,0,1,3.99805,0V40.8793a1.999,1.999,0,1,1-3.99805,0Zm2.49854.07032V39.40079c0-.37988-.18994-.57031-.49951-.57031-.31006,0-.5.19043-.5.57031v1.54883c0,.38964.18994.58007.48974.58007C170.07459,41.52969,170.2743,41.33926,170.2743,40.94962Z"/><path class="cls-2" d="M176.62244,39.47012v3.25879h-1.499V39.44083c0-.39063-.18994-.61035-.48975-.61035a.47248.47248,0,0,0-.48974.46972v3.42871h-1.49951V37.63126h.90966l.23975.29a1.81125,1.81125,0,0,1,1.18945-.43946C175.99256,37.48184,176.62244,38.13126,176.62244,39.47012Z"/><path class="cls-2" d="M182.79285,41.3295v1.39941H179.495V41.3295h.8794V37.03165h-.8794V35.63223h2.42823V41.3295Z"/><rect class="cls-1" x="221.79452" y="39.22843" width="134.33092" height="125.87325"/><rect x="243.83874" y="30.22843" width="90.2425" height="18"/><path class="cls-2" d="M251.44959,40.8588V37.50137a2.36977,2.36977,0,0,1,4.6875,0V38.391h-1.56933v-.91015c0-.35938-.25977-.59961-.76953-.59961-.52979,0-.79932.24023-.79932.59961V40.8793c0,.35938.26953.59961.78955.59961.51953,0,.7793-.24023.7793-.59961v-.90918h1.56933v.88868a2.36977,2.36977,0,0,1-4.6875,0Z"/><path class="cls-2" d="M261.00037,39.47012v3.25782h-1.499V39.44962c0-.38965-.21-.59961-.5-.59961a.4586.4586,0,0,0-.47949.46972v3.40821h-1.49951V35.03262h1.49951v2.64844a1.91929,1.91929,0,0,1,.83935-.20019C260.37049,37.48087,261.00037,38.13028,261.00037,39.47012Z"/><path class="cls-2" d="M265.86365,37.63126v5.09668h-.98925l-.18994-.26953a1.81006,1.81006,0,0,1-1.16944.41992c-1.02929,0-1.65918-.63965-1.65918-1.94922V39.42032c0-1.29981.62989-1.93945,1.65918-1.93945a1.776,1.776,0,0,1,1.16944.41015l.18994-.25976Zm-1.499,3.418v-1.749a.46248.46248,0,0,0-.50976-.46972c-.31983,0-.5.21-.5.5791v1.52929c0,.37012.18017.58985.5.58985A.475.475,0,0,0,264.36463,41.04923Z"/><path class="cls-2" d="M266.64246,41.19864V41.0795h1.45948v.11914a.40809.40809,0,0,0,.4497.36035c.25,0,.39991-.12012.39991-.30957,0-.62012-2.19922-.33008-2.19922-2.08887a1.81174,1.81174,0,0,1,3.6084-.06054v.10058h-1.45948V39.1a.32028.32028,0,0,0-.34961-.29981c-.21972,0-.33984.12012-.33984.26953,0,.60059,2.2085.36036,2.2085,2.12891a1.70452,1.70452,0,0,1-1.88868,1.67969A1.72253,1.72253,0,0,1,266.64246,41.19864Z"/><path class="cls-2" d="M271.10145,41.19864V41.0795h1.46v.11914a.40762.40762,0,0,0,.44922.36035c.25,0,.40039-.12012.40039-.30957,0-.62012-2.19922-.33008-2.19922-2.08887A1.81174,1.81174,0,0,1,274.8202,39.1v.10058h-1.46V39.1a.32.32,0,0,0-.34961-.29981c-.21973,0-.33985.12012-.33985.26953,0,.60059,2.209.36036,2.209,2.12891a1.70452,1.70452,0,0,1-1.88867,1.67969A1.72269,1.72269,0,0,1,271.10145,41.19864Z"/><path class="cls-2" d="M275.68446,35.63223h1.499v1.459h-1.499Zm0,1.999h1.499v5.09668h-1.499Z"/><path class="cls-2" d="M277.97742,41.19864V41.0795h1.459v.11914a.40856.40856,0,0,0,.45019.36035c.25,0,.39942-.12012.39942-.30957,0-.62012-2.19922-.33008-2.19922-2.08887A1.81174,1.81174,0,0,1,281.6952,39.1v.10058h-1.459V39.1a.32055.32055,0,0,0-.34961-.29981c-.21972,0-.33984.12012-.33984.26953,0,.60059,2.209.36036,2.209,2.12891a1.90222,1.90222,0,0,1-3.77832,0Z"/><path class="cls-2" d="M289.06531,37.57071v.91016a1.94558,1.94558,0,0,1-2.10937,1.94824h-.81934v2.29883h-1.54882V35.63223h2.35839A1.95265,1.95265,0,0,1,289.06531,37.57071Zm-1.54882-.06934a.43831.43831,0,0,0-.46-.46972h-.91993v1.999h.91016a.44433.44433,0,0,0,.46973-.48047Z"/><path class="cls-2" d="M293.8075,37.63126v5.09668h-.98926l-.19043-.26953a1.80872,1.80872,0,0,1-1.16894.41992c-1.0293,0-1.65918-.63965-1.65918-1.94922V39.42032c0-1.29981.62988-1.93945,1.65918-1.93945a1.77378,1.77378,0,0,1,1.16894.41015l.19043-.25976Zm-1.499,3.418v-1.749a.46273.46273,0,0,0-.50977-.46972c-.32031,0-.5.21-.5.5791v1.52929c0,.37012.17969.58985.5.58985A.47527.47527,0,0,0,292.30848,41.04923Z"/><path class="cls-2" d="M297.51649,37.54141v1.28907a1.0616,1.0616,0,0,0-.37989-.07032.86776.86776,0,0,0-.86914.91016v3.05762h-1.499V37.63126h.98926l.25976.36914a2.16537,2.16537,0,0,1,1.29981-.46973A1.18011,1.18011,0,0,1,297.51649,37.54141Z"/><path class="cls-2" d="M301.20106,41.3793v1.34864h-.91992c-1.06934,0-1.5586-.60938-1.5586-1.96875v-1.7793h-.66992V37.63126h.66992V36.20157h1.499v1.42969h.94922v1.34863h-.94922v1.51953c0,.58984.18946.87988.55958.87988Z"/><path class="cls-2" d="M301.994,35.63223h1.499v1.459h-1.499Zm0,1.999h1.499v5.09668h-1.499Z"/><path class="cls-2" d="M307.32606,41.3793v1.34864h-.91895c-1.06933,0-1.55957-.60938-1.55957-1.96875v-1.7793h-.66992V37.63126h.66992V36.20157h1.499v1.42969h.9502v1.34863h-.9502v1.51953c0,.58984.19043.87988.55958.87988Z"/><path class="cls-2" d="M308.12,35.63223h1.499v1.459H308.12Zm0,1.999h1.499v5.09668H308.12Z"/><path class="cls-2" d="M310.51258,40.8793V39.47012a1.999,1.999,0,0,1,3.998,0V40.8793a1.999,1.999,0,1,1-3.998,0Zm2.498.07032V39.39981c0-.37988-.18946-.56933-.499-.56933-.31054,0-.5.18945-.5.56933v1.54981c0,.38964.18946.5791.48926.5791C312.81141,41.52872,313.01063,41.33926,313.01063,40.94962Z"/><path class="cls-2" d="M319.35926,39.47012v3.25782h-1.499V39.43985c0-.38965-.19043-.60937-.49024-.60937a.47208.47208,0,0,0-.48926.46972v3.42774h-1.5V37.63126h.91016l.23926.29a1.80812,1.80812,0,0,1,1.18945-.44043C318.72938,37.48087,319.35926,38.13028,319.35926,39.47012Z"/><path class="cls-2" d="M323.96082,41.32852h2.52832v1.39942H322.2909v-.7793c0-2.06934,2.71875-3.03809,2.71875-4.37793v-.19922a.48455.48455,0,0,0-.5498-.49023c-.32911,0-.55957.25-.55957.70019v.37891h-1.54883v-.30957a2.05812,2.05812,0,0,1,2.1084-2.169,1.95649,1.95649,0,0,1,2.09961,1.92969v.249C326.55946,39.64981,324.15028,40.33926,323.96082,41.32852Z"/><line class="cls-3" x1="90.19061" y1="73.76895" x2="33.67326" y2="73.76895"/><polygon class="cls-4" points="36.987 69.679 37.669 70.412 34.057 73.768 37.669 77.125 36.987 77.858 32.589 73.768 36.987 69.679"/><line class="cls-3" x1="90.19061" y1="87.61807" x2="33.67326" y2="87.61807"/><polygon class="cls-4" points="36.987 83.528 37.669 84.261 34.057 87.617 37.669 90.975 36.987 91.707 32.589 87.617 36.987 83.528"/><line class="cls-3" x1="177.43743" y1="73.76895" x2="133.00458" y2="73.76895"/><polygon class="cls-4" points="174.124 69.679 173.442 70.412 177.054 73.768 173.442 77.125 174.124 77.858 178.522 73.768 174.124 69.679"/><polygon class="cls-4" points="136.318 69.679 137 70.412 133.388 73.768 137 77.125 136.318 77.858 131.92 73.768 136.318 69.679"/><line class="cls-3" x1="177.68034" y1="124.80924" x2="132.76168" y2="88.30203"/><polygon class="cls-4" points="177.688 119.546 176.697 119.684 177.383 124.566 172.463 124.894 172.53 125.892 178.523 125.492 177.688 119.546"/><polygon class="cls-4" points="137.912 87.218 137.98 88.217 133.06 88.543 133.745 93.427 132.754 93.565 131.921 87.617 137.912 87.218"/><path class="cls-4" d="M41.29334,82.36221C43.20545,80.954,43.766,80.4711,43.766,79.89639c0-.40576-.37158-.60888-.76367-.60888a1.66514,1.66514,0,0,0-1.24659.53906l-.56738-.6582a2.37887,2.37887,0,0,1,1.79981-.76368,1.58585,1.58585,0,0,1,1.78613,1.4917c0,.79883-.6582,1.49219-1.91211,2.37452h1.94727v.87548H41.29334Z"/><path class="cls-4" d="M47.17811,82.00479l-.77783,1.1416H45.413l1.19776-1.73681-1.12793-1.646h.99462l.70069,1.04346.69336-1.04346h.99414l-1.13428,1.646,1.21143,1.73681h-.99463Z"/><path class="cls-4" d="M52.28748,79.75675l-.77.791-.56738-.59521,1.4707-1.47754h.86866v4.67138h-1.002Z"/><path class="cls-4" d="M56.1742,78.40469c1.33057,0,1.93262,1.20459,1.93262,2.40967,0,1.20459-.602,2.416-1.93262,2.416-1.33789,0-1.9331-1.21143-1.9331-2.416C54.2411,79.60928,54.83631,78.40469,56.1742,78.40469Zm0,.88282c-.67236,0-.9248.665-.9248,1.52685,0,.86133.25244,1.53369.9248,1.53369.665,0,.91748-.67236.91748-1.53369C57.09168,79.95255,56.83924,79.28751,56.1742,79.28751Z"/><path class="cls-4" d="M60.76649,78.40469c1.33056,0,1.93261,1.20459,1.93261,2.40967,0,1.20459-.602,2.416-1.93261,2.416-1.33789,0-1.93311-1.21143-1.93311-2.416C58.83338,79.60928,59.4286,78.40469,60.76649,78.40469Zm0,.88282c-.67237,0-.92481.665-.92481,1.52685,0,.86133.25244,1.53369.92481,1.53369.665,0,.91748-.67236.91748-1.53369C61.684,79.95255,61.43153,79.28751,60.76649,79.28751Z"/><path class="cls-4" d="M65.88026,78.39786a2.189,2.189,0,0,1,1.9331,1.02246l-.82666.44824a1.3257,1.3257,0,0,0-1.10644-.58838,1.53561,1.53561,0,0,0,0,3.06787,1.57734,1.57734,0,0,0,1.0083-.35742v-.56738H65.642v-.854h2.227v1.78564a2.5925,2.5925,0,0,1-1.98877.88232,2.42057,2.42057,0,1,1,0-4.83935Z"/><path class="cls-4" d="M68.88465,78.475h.88916v1.72265a1.30276,1.30276,0,0,1,1.044-.51806c.86132,0,1.49853.67236,1.49853,1.77881,0,1.12744-.64453,1.772-1.49853,1.772a1.32772,1.32772,0,0,1-1.044-.51123v.42724h-.88916Zm1.65283,3.96386a.9926.9926,0,0,0,0-1.96777.98247.98247,0,0,0-.76367.39209v1.19775A.99192.99192,0,0,0,70.53748,82.43887Z"/><rect class="cls-1" x="90.3317" y="64.17534" width="38.42817" height="33.03634"/><path d="M101.44422,77.24991a3.10317,3.10317,0,0,0,2.31055,1.0459c1.30957,0,1.72754-.7041,1.72754-1.26563,0-.87988-.8916-1.12207-1.85938-1.38574-1.17676-.30859-2.48633-.63867-2.48633-2.08008,0-1.21,1.07813-2.03515,2.51954-2.03515a3.4495,3.4495,0,0,1,2.60742,1.02343l-.55078.6709a2.80458,2.80458,0,0,0-2.123-.87988c-.87988,0-1.50684.47266-1.50684,1.166,0,.7373.84668.957,1.78223,1.21,1.19922.31933,2.56348.69336,2.56348,2.23339,0,1.06739-.72657,2.15625-2.707,2.15625a3.637,3.637,0,0,1-2.8164-1.166Z"/><path d="M107.64832,71.63956h.8252v7.33789h-.8252Z"/><path d="M109.705,76.31534a2.63424,2.63424,0,1,1,2.62989,2.79394A2.60733,2.60733,0,0,1,109.705,76.31534Zm4.38965,0a1.78622,1.78622,0,1,0-1.75976,2.05664A1.84743,1.84743,0,0,0,114.09461,76.31534Z"/><path d="M116.36024,77.86612V74.38956h-.87989V73.664h.87989V72.21182h.82519V73.664h1.07813v.72559h-1.07813v3.30078c0,.39551.17578.68164.53906.68164a.79665.79665,0,0,0,.56153-.21973l.24121.61621a1.34646,1.34646,0,0,1-.98926.34082A1.0875,1.0875,0,0,1,116.36024,77.86612Z"/><path d="M109.63953,83.84952l-1.17675,1.24316-.55079-.56054,1.8379-1.89258h.80273v7.33789h-.91309Z"/><rect class="cls-5" x="181.72116" y="63.61677" width="71.14795" height="30.60535"/><path class="cls-2" d="M202.66346,74.01846v-.28027h1.54883v.43994a.73523.73523,0,0,0,.82959.72949.67694.67694,0,0,0,.71972-.68945c0-1.26953-2.96826-.96973-2.96826-3.26807a1.99764,1.99764,0,0,1,2.21875-2.0791,1.9405,1.9405,0,0,1,2.2085,1.98877v.43994h-1.54883v-.53955c0-.31006-.2998-.48974-.66992-.48974a.58473.58473,0,0,0-.64942.59961c0,1.01953,2.96827.78955,2.96827,3.208a2.10122,2.10122,0,0,1-2.3086,2.189A2.15258,2.15258,0,0,1,202.66346,74.01846Z"/><path class="cls-2" d="M212.04383,71.01993v5.707a1.76521,1.76521,0,0,1-1.939,1.83887,1.72686,1.72686,0,0,1-1.9292-1.71924h1.49951a.3776.3776,0,0,0,.40967.37012.42428.42428,0,0,0,.45947-.41993v-.72949a1.637,1.637,0,0,1-.79932.19971c-.97949,0-1.59912-.64941-1.59912-1.999v-3.248h1.499V74.308c0,.38965.14991.60987.42969.60987a.47106.47106,0,0,0,.46973-.48v-3.418Z"/><path class="cls-2" d="M212.81922,74.5878v-.11963h1.45947v.11963a.40808.40808,0,0,0,.44971.35986c.25,0,.3999-.11963.3999-.30957,0-.61963-2.19922-.33008-2.19922-2.08886a1.81176,1.81176,0,0,1,3.6084-.06006v.10009H215.078v-.10009a.32.32,0,0,0-.34961-.29981c-.21973,0-.33984.11963-.33984.26953,0,.6001,2.209.35987,2.209,2.12891a1.70484,1.70484,0,0,1-1.88916,1.6792A1.72217,1.72217,0,0,1,212.81922,74.5878Z"/><path class="cls-2" d="M220.28846,74.768V76.1171H219.369c-1.06934,0-1.55909-.60987-1.55909-1.96875v-1.7793H217.14V71.01993h.66992v-1.4292h1.499v1.4292h.9497v1.34912h-.9497v1.519c0,.58985.18994.87989.55957.87989Z"/><path class="cls-2" d="M224.91688,72.769v1.23926h-2.44873v.44971c0,.42968.22021.60986.5.60986a.43574.43574,0,0,0,.4497-.42969V74.498h1.499a1.75067,1.75067,0,0,1-1.959,1.769,1.86313,1.86313,0,0,1-1.98877-2.00879V72.8588a1.84986,1.84986,0,0,1,1.979-1.98877A1.82882,1.82882,0,0,1,224.91688,72.769Zm-1.50928.21V72.599c0-.35986-.16992-.52978-.44971-.52978-.2998,0-.48974.20019-.48974.5996v.31006Z"/><path class="cls-2" d="M231.90467,72.8588v3.2583h-1.499V72.79874c0-.36963-.16016-.57959-.40967-.57959a.43459.43459,0,0,0-.3999.48974V76.1171h-1.499V72.79874c0-.36963-.16015-.57959-.41015-.57959a.42713.42713,0,0,0-.39942.46972V76.1171H225.788V71.01993h.90967l.23.27978A1.70554,1.70554,0,0,1,228.037,70.87a1.46174,1.46174,0,0,1,1.15918.46972,1.67053,1.67053,0,0,1,1.14942-.46972C231.32508,70.87,231.90467,71.51944,231.90467,72.8588Z"/><path class="cls-2" d="M194.55457,86.248V82.89005a2.36986,2.36986,0,0,1,4.6875,0v.88964h-1.56933V82.87c0-.35987-.25977-.59961-.76953-.59961-.52979,0-.79932.23974-.79932.59961V86.268c0,.35986.26953.59961.78955.59961.51953,0,.7793-.23975.7793-.59961V85.3588h1.56933V86.248a2.36986,2.36986,0,0,1-4.6875,0Z"/><path class="cls-2" d="M200.06287,86.268V84.8588a1.99905,1.99905,0,0,1,3.99805,0V86.268a1.999,1.999,0,0,1-3.99805,0Zm2.49854.07031V84.789c0-.37988-.18994-.56982-.49951-.56982-.31006,0-.5.18994-.5.56982v1.54932c0,.38965.18994.57959.48974.57959C202.3617,86.91788,202.56141,86.72794,202.56141,86.33829Z"/><path class="cls-2" d="M208.90858,84.8588v3.2583h-1.499V84.829c0-.39014-.18994-.60986-.48974-.60986a.47248.47248,0,0,0-.48975.46972V88.1171h-1.49951V83.01993h.90967l.23974.29a1.8093,1.8093,0,0,1,1.18946-.43994C208.27869,82.87,208.90858,83.51944,208.90858,84.8588Z"/><path class="cls-2" d="M212.69617,86.768V88.1171h-.91943c-1.06934,0-1.55908-.60987-1.55908-1.96875v-1.7793h-.66992V83.01993h.66992v-1.4292h1.499v1.4292h.94971v1.34912h-.94971v1.519c0,.58985.18994.87989.55957.87989Z"/><path class="cls-2" d="M216.21766,82.93009v1.28906a1.06056,1.06056,0,0,0-.37988-.06983.86733.86733,0,0,0-.86914.90967V88.1171h-1.49952V83.01993h.98975l.25977.36963a2.164,2.164,0,0,1,1.29931-.46973A1.24077,1.24077,0,0,1,216.21766,82.93009Z"/><path class="cls-2" d="M216.87977,86.268V84.8588a1.999,1.999,0,0,1,3.998,0V86.268a1.999,1.999,0,0,1-3.998,0Zm2.49853.07031V84.789c0-.37988-.18994-.56982-.49951-.56982-.31006,0-.5.18994-.5.56982v1.54932c0,.38965.18994.57959.48975.57959C219.1786,86.91788,219.3783,86.72794,219.3783,86.33829Z"/><path class="cls-2" d="M223.27674,80.4213v7.6958h-1.499V80.4213Z"/><path class="cls-2" d="M225.765,80.4213v7.6958h-1.499V80.4213Z"/><path class="cls-2" d="M230.60633,84.769v1.23926H228.1576v.44971c0,.42968.22021.60986.5.60986a.43575.43575,0,0,0,.44971-.42969V86.498h1.499a1.75066,1.75066,0,0,1-1.959,1.769,1.86313,1.86313,0,0,1-1.98877-2.00879V84.8588a1.84985,1.84985,0,0,1,1.979-1.98877A1.82882,1.82882,0,0,1,230.60633,84.769Zm-1.50928.21V84.599c0-.35986-.16992-.52978-.4497-.52978-.29981,0-.48975.20019-.48975.5996v.31006Z"/><path class="cls-2" d="M234.22546,82.93009v1.28906a1.06043,1.06043,0,0,0-.37987-.06983.86733.86733,0,0,0-.86914.90967V88.1171h-1.49951V83.01993h.98974l.25977.36963a2.164,2.164,0,0,1,1.29931-.46973A1.24058,1.24058,0,0,1,234.22546,82.93009Z"/><path class="cls-2" d="M240.18543,86.71768V88.1171h-3.29785V86.71768h.8794V82.42032h-.8794V81.02091h2.42822v5.69677Z"/><path class="cls-4" d="M152.00281,78.92081V82.0585h-.99462V77.38712h1.02246l2.16406,3.02539V77.38712h.99463V82.0585h-.95947Z"/><path class="cls-4" d="M156.10242,80.36368a1.78959,1.78959,0,1,1,1.78614,1.77881A1.71341,1.71341,0,0,1,156.10242,80.36368Zm2.6543,0a.87257.87257,0,1,0-.86816.9873A.8926.8926,0,0,0,158.75672,80.36368Z"/><path class="cls-4" d="M142.64539,84.38712h.99414V89.0585h-.99414Z"/><path class="cls-4" d="M147.02772,87.01358a.549.549,0,0,0-.62354-.63037.96406.96406,0,0,0-.77051.39893V89.0585h-.88916V85.67569h.88916v.44141a1.54888,1.54888,0,0,1,1.1836-.52539.98372.98372,0,0,1,1.09961,1.07861V89.0585h-.88916Z"/><path class="cls-4" d="M148.84364,86.98526h1.68115v.75635h-1.68115Z"/><path class="cls-4" d="M151.54578,84.38712h2.458a1.20832,1.20832,0,0,1,1.34473,1.19043,1.03821,1.03821,0,0,1-.80518,1.07177,1.13214,1.13214,0,0,1,.89649,1.14844,1.23038,1.23038,0,0,1-1.35889,1.26074h-2.53516Zm2.24121,1.877a.51578.51578,0,1,0,0-1.02979h-1.24707v1.02979Zm.03467,1.94678a.53658.53658,0,0,0,.60254-.55323.546.546,0,0,0-.60254-.54638h-1.28174v1.09961Z"/><path class="cls-4" d="M158.41834,88.70841a1.40005,1.40005,0,0,1-1.07129.43408,1.12694,1.12694,0,0,1-1.17675-1.12061,1.0712,1.0712,0,0,1,1.17675-1.07861,1.36719,1.36719,0,0,1,1.07129.41308v-.46923c0-.34278-.29394-.5669-.74219-.5669a1.42444,1.42444,0,0,0-.98779.39893l-.33594-.59522a2.21793,2.21793,0,0,1,1.47754-.53222c.77051,0,1.478.3081,1.478,1.28173V89.0585h-.88965Zm0-.88233a.8891.8891,0,0,0-.71435-.29443c-.3501,0-.63721.189-.63721.51123,0,.31543.28711.49756.63721.49756a.8891.8891,0,0,0,.71435-.29444Z"/><path class="cls-4" d="M162.63905,87.01358a.549.549,0,0,0-.62354-.63037.964.964,0,0,0-.77051.39893V89.0585h-.88916V85.67569h.88916v.44141a1.54887,1.54887,0,0,1,1.1836-.52539.98372.98372,0,0,1,1.09961,1.07861V89.0585h-.88916Z"/><path class="cls-4" d="M166.92323,88.63126a1.32679,1.32679,0,0,1-1.04346.51123c-.85449,0-1.499-.64453-1.499-1.772,0-1.10644.63721-1.7788,1.499-1.7788a1.30255,1.30255,0,0,1,1.04346.51806V84.38712h.89648V89.0585h-.89648Zm0-1.8628a.9786.9786,0,0,0-.77051-.38525.99368.99368,0,0,0,0,1.96777.9786.9786,0,0,0,.77051-.38525Z"/><path class="cls-4" d="M150.23865,92.69669l-1.31689,3.36181h-.43408l-1.3169-3.36181V96.0585h-.99414V91.38712h1.39356l1.13476,2.91357,1.13428-2.91357h1.40088V96.0585h-1.00147Z"/><path class="cls-4" d="M152.71229,96.28262a1.344,1.344,0,0,0,1.05761.42041.82677.82677,0,0,0,.93116-.85449v-.34326a1.31721,1.31721,0,0,1-1.04346.53223c-.84717,0-1.4917-.59522-1.4917-1.72315a1.51318,1.51318,0,0,1,1.4917-1.72265,1.30186,1.30186,0,0,1,1.04346.51806v-.43408h.89648v3.15186c0,1.28857-.99414,1.60351-1.82764,1.60351a2.03936,2.03936,0,0,1-1.457-.5039Zm1.98877-2.51416a.9642.9642,0,0,0-.76319-.38525.93486.93486,0,0,0,0,1.86279.98438.98438,0,0,0,.76319-.38525Z"/><path class="cls-4" d="M160.84559,93.92227c0-.31494-.14014-.53906-.5044-.53906a.89868.89868,0,0,0-.70068.39209v2.2832H158.744V93.92227c0-.31494-.13965-.53906-.50391-.53906a.90906.90906,0,0,0-.70068.39893V96.0585h-.88916V92.67569h.88916v.44141a1.48,1.48,0,0,1,1.10693-.52539.89506.89506,0,0,1,.93848.61621,1.43466,1.43466,0,0,1,1.16259-.61621.90314.90314,0,0,1,.99463,1.02246V96.0585h-.89648Z"/><path class="cls-4" d="M162.97791,95.21817V93.453h-.56006v-.77734h.56006v-.92432h.89649v.92432h.68652V93.453h-.68652v1.52686c0,.21.1123.37109.3081.37109a.4857.4857,0,0,0,.3086-.09814l.189.67236a1.09815,1.09815,0,0,1-.74267.21729A.84554.84554,0,0,1,162.97791,95.21817Z"/><path class="cls-4" d="M276.65516,78.92081V82.0585H275.661V77.38712h1.02246l2.16406,3.02539V77.38712h.99414V82.0585h-.959Z"/><path class="cls-4" d="M280.75477,80.36368a1.78958,1.78958,0,1,1,1.78613,1.77881A1.71368,1.71368,0,0,1,280.75477,80.36368Zm2.65429,0a.87235.87235,0,1,0-.86816.9873A.89231.89231,0,0,0,283.40906,80.36368Z"/><path class="cls-4" d="M267.29774,84.38712h.99414V89.0585h-.99414Z"/><path class="cls-4" d="M271.68055,87.01358a.54909.54909,0,0,0-.624-.63037.964.964,0,0,0-.77051.39893V89.0585h-.88916V85.67569h.88916v.44141a1.54884,1.54884,0,0,1,1.18359-.52539.9835.9835,0,0,1,1.09961,1.07861V89.0585h-.88867Z"/><path class="cls-4" d="M273.496,86.98526h1.68164v.75635H273.496Z"/><path class="cls-4" d="M276.19813,84.38712h2.458a1.20832,1.20832,0,0,1,1.34472,1.19043,1.03831,1.03831,0,0,1-.80469,1.07177,1.13214,1.13214,0,0,1,.89649,1.14844,1.23079,1.23079,0,0,1-1.35938,1.26074h-2.53515Zm2.24121,1.877a.51578.51578,0,1,0,0-1.02979h-1.24707v1.02979Zm.03515,1.94678a.53682.53682,0,0,0,.60254-.55323.546.546,0,0,0-.60254-.54638h-1.28222v1.09961Z"/><path class="cls-4" d="M283.07117,88.70841a1.40155,1.40155,0,0,1-1.07128.43408,1.12668,1.12668,0,0,1-1.17676-1.12061,1.071,1.071,0,0,1,1.17676-1.07861,1.36788,1.36788,0,0,1,1.07128.41308v-.46923c0-.34278-.29394-.5669-.74218-.5669a1.42642,1.42642,0,0,0-.98828.39893l-.33594-.59522a2.2179,2.2179,0,0,1,1.47754-.53222c.7705,0,1.47851.3081,1.47851,1.28173V89.0585h-.88965Zm0-.88233a.8908.8908,0,0,0-.71484-.29443c-.34961,0-.63672.189-.63672.51123,0,.31543.28711.49756.63672.49756a.89081.89081,0,0,0,.71484-.29444Z"/><path class="cls-4" d="M287.29188,87.01358a.5491.5491,0,0,0-.624-.63037.96478.96478,0,0,0-.7705.39893V89.0585h-.88868V85.67569h.88868v.44141a1.55051,1.55051,0,0,1,1.18359-.52539.9835.9835,0,0,1,1.09961,1.07861V89.0585h-.88867Z"/><path class="cls-4" d="M291.57606,88.63126a1.32844,1.32844,0,0,1-1.04395.51123c-.85449,0-1.499-.64453-1.499-1.772,0-1.10644.63769-1.7788,1.499-1.7788a1.30343,1.30343,0,0,1,1.04395.51806V84.38712h.89648V89.0585h-.89648Zm0-1.8628a.97934.97934,0,0,0-.77051-.38525.99368.99368,0,0,0,0,1.96777.97934.97934,0,0,0,.77051-.38525Z"/><path class="cls-4" d="M274.89149,92.69669,273.5741,96.0585h-.43359l-1.31738-3.36181V96.0585H270.829V91.38712h1.39355l1.13477,2.91357,1.13476-2.91357h1.40039V96.0585h-1.001Z"/><path class="cls-4" d="M277.36512,96.28262a1.34269,1.34269,0,0,0,1.05762.42041.8266.8266,0,0,0,.93066-.85449v-.34326a1.31626,1.31626,0,0,1-1.043.53223c-.84765,0-1.49219-.59522-1.49219-1.72315a1.51352,1.51352,0,0,1,1.49219-1.72265,1.30027,1.30027,0,0,1,1.043.51806v-.43408h.89649v3.15186c0,1.28857-.99415,1.60351-1.82715,1.60351a2.03784,2.03784,0,0,1-1.457-.5039Zm1.98828-2.51416a.96249.96249,0,0,0-.76269-.38525.93485.93485,0,0,0,0,1.86279.9826.9826,0,0,0,.76269-.38525Z"/><path class="cls-4" d="M285.49793,93.92227c0-.31494-.13965-.53906-.5039-.53906a.90049.90049,0,0,0-.70118.39209v2.2832h-.89648V93.92227c0-.31494-.13965-.53906-.50391-.53906a.90811.90811,0,0,0-.70019.39893V96.0585h-.88965V92.67569h.88965v.44141a1.47794,1.47794,0,0,1,1.10644-.52539.89506.89506,0,0,1,.93848.61621,1.43637,1.43637,0,0,1,1.16309-.61621.9028.9028,0,0,1,.99414,1.02246V96.0585h-.89649Z"/><path class="cls-4" d="M287.63074,95.21817V93.453h-.56054v-.77734h.56054v-.92432h.89649v.92432h.68652V93.453h-.68652v1.52686c0,.21.1123.37109.30762.37109a.4835.4835,0,0,0,.30859-.09814l.18945.67236a1.09967,1.09967,0,0,1-.74316.21729A.84518.84518,0,0,1,287.63074,95.21817Z"/><line class="cls-3" x1="344.90379" y1="73.76895" x2="401.42115" y2="73.76895"/><polygon class="cls-4" points="398.108 77.859 397.426 77.126 401.037 73.77 397.426 70.413 398.108 69.68 402.506 73.77 398.108 77.859"/><line class="cls-3" x1="344.90379" y1="87.61807" x2="401.42115" y2="87.61807"/><polygon class="cls-4" points="398.108 91.708 397.426 90.975 401.037 87.619 397.426 84.262 398.108 83.529 402.506 87.619 398.108 91.708"/><line class="cls-3" x1="257.65696" y1="73.76895" x2="302.08982" y2="73.76895"/><polygon class="cls-4" points="260.97 77.859 261.653 77.126 258.041 73.77 261.653 70.413 260.97 69.68 256.572 73.77 260.97 77.859"/><polygon class="cls-4" points="298.776 77.859 298.094 77.126 301.706 73.77 298.094 70.413 298.776 69.68 303.174 73.77 298.776 77.859"/><line class="cls-3" x1="257.41407" y1="124.80924" x2="302.33271" y2="88.30203"/><polygon class="cls-4" points="262.565 125.893 262.632 124.895 257.713 124.568 258.398 119.684 257.407 119.546 256.573 125.494 262.565 125.893"/><polygon class="cls-4" points="302.341 93.566 301.35 93.428 302.035 88.545 297.115 88.217 297.183 87.219 303.175 87.619 302.341 93.566"/><path class="cls-4" d="M362.87684,82.36221c1.91211-1.4082,2.47265-1.89111,2.47265-2.46582,0-.40576-.37207-.60888-.76367-.60888a1.667,1.667,0,0,0-1.24707.53906l-.56738-.6582a2.37887,2.37887,0,0,1,1.7998-.76368,1.58559,1.58559,0,0,1,1.78614,1.4917c0,.79883-.65821,1.49219-1.91211,2.37452h1.94726v.87548h-3.51562Z"/><path class="cls-4" d="M368.7616,82.00479l-.77832,1.1416h-.9873l1.19824-1.73681-1.12793-1.646h.99414l.70117,1.04346.69336-1.04346h.99414l-1.13476,1.646,1.21191,1.73681h-.99511Z"/><path class="cls-4" d="M373.871,79.75675l-.77052.791-.56737-.59521,1.4707-1.47754h.86914v4.67138h-1.002Z"/><path class="cls-4" d="M377.7577,78.40469c1.33008,0,1.93261,1.20459,1.93261,2.40967,0,1.20459-.60253,2.416-1.93261,2.416-1.33789,0-1.9336-1.21143-1.9336-2.416C375.8241,79.60928,376.41981,78.40469,377.7577,78.40469Zm0,.88282c-.67285,0-.92481.665-.92481,1.52685,0,.86133.252,1.53369.92481,1.53369.665,0,.917-.67236.917-1.53369C378.67469,79.95255,378.42274,79.28751,377.7577,79.28751Z"/><path class="cls-4" d="M382.34949,78.40469c1.33106,0,1.93262,1.20459,1.93262,2.40967,0,1.20459-.60156,2.416-1.93262,2.416-1.33789,0-1.93261-1.21143-1.93261-2.416C380.41688,79.60928,381.0116,78.40469,382.34949,78.40469Zm0,.88282c-.67187,0-.9248.665-.9248,1.52685,0,.86133.25293,1.53369.9248,1.53369.665,0,.918-.67236.918-1.53369C383.26746,79.95255,383.01453,79.28751,382.34949,79.28751Z"/><path class="cls-4" d="M387.46375,78.39786a2.18871,2.18871,0,0,1,1.93262,1.02246l-.82617.44824a1.32639,1.32639,0,0,0-1.10645-.58838,1.53561,1.53561,0,0,0,0,3.06787,1.57691,1.57691,0,0,0,1.00781-.35742v-.56738h-1.2461v-.854H389.452v1.78564a2.59141,2.59141,0,0,1-1.98828.88232,2.42057,2.42057,0,1,1,0-4.83935Z"/><path class="cls-4" d="M390.46766,78.475h.88965v1.72265a1.30207,1.30207,0,0,1,1.04394-.51806c.86133,0,1.498.67236,1.498,1.77881,0,1.12744-.64453,1.772-1.498,1.772a1.327,1.327,0,0,1-1.04394-.51123v.42724h-.88965Zm1.65332,3.96386a.9926.9926,0,0,0,0-1.96777.98247.98247,0,0,0-.76367.39209v1.19775A.99192.99192,0,0,0,392.121,82.43887Z"/><rect class="cls-1" x="306.33454" y="64.17534" width="38.42817" height="33.03634"/><path d="M317.44715,77.24991a3.10317,3.10317,0,0,0,2.31055,1.0459c1.30859,0,1.72656-.7041,1.72656-1.26563,0-.87988-.89062-1.12207-1.85937-1.38574-1.17676-.30859-2.48633-.63867-2.48633-2.08008,0-1.21,1.07812-2.03515,2.51953-2.03515a3.4495,3.4495,0,0,1,2.60742,1.02343l-.5498.6709a2.806,2.806,0,0,0-2.123-.87988c-.88086,0-1.50781.47266-1.50781,1.166,0,.7373.84765.957,1.78222,1.21,1.19922.31933,2.56348.69336,2.56348,2.23339,0,1.06739-.72559,2.15625-2.70606,2.15625a3.634,3.634,0,0,1-2.8164-1.166Z"/><path d="M323.65125,71.63956h.8252v7.33789h-.8252Z"/><path d="M325.70789,76.31534a2.63424,2.63424,0,1,1,2.62891,2.79394A2.60656,2.60656,0,0,1,325.70789,76.31534Zm4.38965,0A1.78664,1.78664,0,1,0,328.3368,78.372,1.84756,1.84756,0,0,0,330.09754,76.31534Z"/><path d="M332.36317,77.86612V74.38956h-.88086V73.664h.88086V72.21182h.82519V73.664h1.07813v.72559h-1.07813v3.30078c0,.39551.17578.68164.53906.68164a.796.796,0,0,0,.56055-.21973l.24219.61621a1.34738,1.34738,0,0,1-.99024.34082A1.08681,1.08681,0,0,1,332.36317,77.86612Z"/><path d="M323.34266,88.32706a2.54713,2.54713,0,0,0,2.0459.96875c1.06738,0,1.71679-.52832,1.71679-1.376,0-.91308-.748-1.29785-1.82617-1.29785-.30859,0-.64941,0-.75976.01074v-.83594c.12109.01075.46289.01075.75976.01075.92383,0,1.70508-.36231,1.70508-1.21,0-.81446-.748-1.25391-1.63965-1.25391a2.48493,2.48493,0,0,0-1.93555.89062l-.50683-.57128a3.17944,3.17944,0,0,1,2.50879-1.13379c1.4082,0,2.48633.71484,2.48633,1.958a1.788,1.788,0,0,1-1.584,1.70606A1.84518,1.84518,0,0,1,328.0077,87.997c0,1.22168-.97949,2.1123-2.59668,2.1123a3.09468,3.09468,0,0,1-2.60742-1.21Z"/><path class="cls-4" d="M270.45106,65.9755l-.77.791-.56739-.59521,1.47071-1.47754h.86865v4.67138h-1.002Z"/><path class="cls-4" d="M274.33778,64.62344c1.33007,0,1.93261,1.20459,1.93261,2.40967,0,1.20459-.60254,2.416-1.93261,2.416-1.33789,0-1.9336-1.21143-1.9336-2.416C272.40418,65.828,272.99989,64.62344,274.33778,64.62344Zm0,.88282c-.67286,0-.92481.665-.92481,1.52685,0,.86133.252,1.53369.92481,1.53369.665,0,.917-.67236.917-1.53369C275.25477,66.1713,275.00281,65.50626,274.33778,65.50626Z"/><path class="cls-4" d="M278.92957,64.62344c1.33106,0,1.93262,1.20459,1.93262,2.40967,0,1.20459-.60156,2.416-1.93262,2.416-1.33789,0-1.93261-1.21143-1.93261-2.416C276.997,65.828,277.59168,64.62344,278.92957,64.62344Zm0,.88282c-.67187,0-.9248.665-.9248,1.52685,0,.86133.25293,1.53369.9248,1.53369.665,0,.918-.67236.918-1.53369C279.84754,66.1713,279.59461,65.50626,278.92957,65.50626Z"/><path class="cls-4" d="M284.04383,64.61661a2.18871,2.18871,0,0,1,1.93262,1.02246l-.82617.44824a1.32641,1.32641,0,0,0-1.10645-.58838,1.53561,1.53561,0,0,0,0,3.06787,1.57691,1.57691,0,0,0,1.00781-.35742V67.642h-1.24609v-.854h2.22656v1.78564a2.59141,2.59141,0,0,1-1.98828.88232,2.42057,2.42057,0,1,1,0-4.83935Z"/><path class="cls-4" d="M287.04774,64.69376h.88965v1.72265a1.30207,1.30207,0,0,1,1.04394-.51806c.86133,0,1.498.67236,1.498,1.77881,0,1.12744-.64453,1.772-1.498,1.772a1.327,1.327,0,0,1-1.04394-.51123v.42724h-.88965Zm1.65332,3.96386a.9926.9926,0,0,0,0-1.96777.98247.98247,0,0,0-.76367.39209v1.19775A.99192.99192,0,0,0,288.70106,68.65762Z"/><path class="cls-4" d="M146.0702,65.9755l-.77.791-.56738-.59521,1.4707-1.47754h.86865v4.67138H146.0702Z"/><path class="cls-4" d="M149.95692,64.62344c1.33056,0,1.93261,1.20459,1.93261,2.40967,0,1.20459-.60205,2.416-1.93261,2.416-1.33789,0-1.93311-1.21143-1.93311-2.416C148.02381,65.828,148.619,64.62344,149.95692,64.62344Zm0,.88282c-.67237,0-.92481.665-.92481,1.52685,0,.86133.25244,1.53369.92481,1.53369.665,0,.91748-.67236.91748-1.53369C150.8744,66.1713,150.622,65.50626,149.95692,65.50626Z"/><path class="cls-4" d="M154.5492,64.62344c1.33057,0,1.93262,1.20459,1.93262,2.40967,0,1.20459-.602,2.416-1.93262,2.416-1.33789,0-1.9331-1.21143-1.9331-2.416C152.6161,65.828,153.21131,64.62344,154.5492,64.62344Zm0,.88282c-.67236,0-.9248.665-.9248,1.52685,0,.86133.25244,1.53369.9248,1.53369.665,0,.91748-.67236.91748-1.53369C155.46668,66.1713,155.21424,65.50626,154.5492,65.50626Z"/><path class="cls-4" d="M159.663,64.61661a2.189,2.189,0,0,1,1.93311,1.02246l-.82666.44824a1.32572,1.32572,0,0,0-1.10645-.58838,1.53561,1.53561,0,0,0,0,3.06787,1.57729,1.57729,0,0,0,1.0083-.35742V67.642h-1.24658v-.854h2.227v1.78564a2.59247,2.59247,0,0,1-1.98877.88232,2.42057,2.42057,0,1,1,0-4.83935Z"/><path class="cls-4" d="M162.66737,64.69376h.88916v1.72265a1.30275,1.30275,0,0,1,1.04394-.51806c.86133,0,1.49854.67236,1.49854,1.77881,0,1.12744-.64453,1.772-1.49854,1.772a1.3277,1.3277,0,0,1-1.04394-.51123v.42724h-.88916Zm1.65283,3.96386a.9926.9926,0,0,0,0-1.96777.98247.98247,0,0,0-.76367.39209v1.19775A.99192.99192,0,0,0,164.3202,68.65762Z"/><line class="cls-3" x1="90.19061" y1="125.4932" x2="33.67326" y2="125.4932"/><polygon class="cls-4" points="36.987 121.403 37.669 122.136 34.057 125.492 37.669 128.85 36.987 129.582 32.589 125.492 36.987 121.403"/><line class="cls-3" x1="90.19061" y1="139.34232" x2="33.67326" y2="139.34232"/><polygon class="cls-4" points="36.987 135.252 37.669 135.985 34.057 139.341 37.669 142.699 36.987 143.431 32.589 139.341 36.987 135.252"/><line class="cls-3" x1="177.68034" y1="88.30203" x2="132.76168" y2="124.80924"/><polygon class="cls-4" points="172.53 87.218 172.462 88.217 177.382 88.543 176.697 93.427 177.688 93.565 178.521 87.617 172.53 87.218"/><polygon class="cls-4" points="132.754 119.546 133.745 119.684 133.059 124.566 137.979 124.894 137.912 125.892 131.919 125.492 132.754 119.546"/><line class="cls-3" x1="177.43743" y1="139.34232" x2="133.00458" y2="139.34232"/><polygon class="cls-4" points="174.124 135.252 173.442 135.985 177.054 139.341 173.442 142.699 174.124 143.431 178.522 139.341 174.124 135.252"/><polygon class="cls-4" points="136.318 135.252 137 135.985 133.388 139.341 137 142.699 136.318 143.431 131.92 139.341 136.318 135.252"/><path class="cls-4" d="M41.29334,134.08634c1.91211-1.40821,2.47266-1.89063,2.47266-2.46583,0-.40527-.37158-.60839-.76367-.60839a1.66514,1.66514,0,0,0-1.24659.53906l-.56738-.6582a2.37887,2.37887,0,0,1,1.79981-.76368,1.58579,1.58579,0,0,1,1.78613,1.49121c0,.79883-.6582,1.49219-1.91211,2.375h1.94727v.875H41.29334Z"/><path class="cls-4" d="M47.17811,133.72891l-.77783,1.1416H45.413l1.19776-1.73632L45.4828,131.4877h.99462l.70069,1.044.69336-1.044h.99414l-1.13428,1.64649,1.21143,1.73632h-.99463Z"/><path class="cls-4" d="M52.28748,131.48087l-.77.791-.56738-.59472,1.4707-1.47754h.86866v4.67089h-1.002Z"/><path class="cls-4" d="M56.1742,130.1293c1.33057,0,1.93262,1.20411,1.93262,2.40918s-.602,2.416-1.93262,2.416c-1.33789,0-1.9331-1.21094-1.9331-2.416S54.83631,130.1293,56.1742,130.1293Zm0,.88282c-.67236,0-.9248.665-.9248,1.52636s.25244,1.53418.9248,1.53418c.665,0,.91748-.67285.91748-1.53418S56.83924,131.01212,56.1742,131.01212Z"/><path class="cls-4" d="M60.76649,130.1293c1.33056,0,1.93261,1.20411,1.93261,2.40918s-.602,2.416-1.93261,2.416c-1.33789,0-1.93311-1.21094-1.93311-2.416S59.4286,130.1293,60.76649,130.1293Zm0,.88282c-.67237,0-.92481.665-.92481,1.52636s.25244,1.53418.92481,1.53418c.665,0,.91748-.67285.91748-1.53418S61.43153,131.01212,60.76649,131.01212Z"/><path class="cls-4" d="M65.88026,130.12247a2.18794,2.18794,0,0,1,1.9331,1.02246l-.82666.44824a1.32609,1.32609,0,0,0-1.10644-.58887,1.53587,1.53587,0,0,0,0,3.06836,1.58008,1.58008,0,0,0,1.0083-.35742v-.56738H65.642v-.85449h2.227v1.78613a2.59214,2.59214,0,0,1-1.98877.88184,2.42033,2.42033,0,1,1,0-4.83887Z"/><path class="cls-4" d="M68.88465,130.19962h.88916v1.72265a1.30185,1.30185,0,0,1,1.044-.51855c.86132,0,1.49853.67285,1.49853,1.77929,0,1.127-.64453,1.77149-1.49853,1.77149a1.32724,1.32724,0,0,1-1.044-.51074v.42675h-.88916Zm1.65283,3.96386a.9926.9926,0,0,0,0-1.96777.98347.98347,0,0,0-.76367.3916v1.19824A.99192.99192,0,0,0,70.53748,134.16348Z"/><rect class="cls-1" x="90.3317" y="115.89958" width="38.42817" height="33.03634"/><path d="M101.44422,128.974a3.10317,3.10317,0,0,0,2.31055,1.0459c1.30957,0,1.72754-.7041,1.72754-1.26563,0-.87988-.8916-1.12207-1.85938-1.38574-1.17676-.30859-2.48633-.63867-2.48633-2.08008,0-1.21,1.07813-2.03515,2.51954-2.03515a3.4495,3.4495,0,0,1,2.60742,1.02343l-.55078.6709a2.80458,2.80458,0,0,0-2.123-.87988c-.87988,0-1.50684.47266-1.50684,1.166,0,.7373.84668.957,1.78223,1.21,1.19922.31933,2.56348.69336,2.56348,2.2334,0,1.06738-.72657,2.15625-2.707,2.15625a3.637,3.637,0,0,1-2.8164-1.166Z"/><path d="M107.64832,123.36368h.8252v7.33789h-.8252Z"/><path d="M109.705,128.03946a2.63424,2.63424,0,1,1,2.62989,2.79395A2.60733,2.60733,0,0,1,109.705,128.03946Zm4.38965,0a1.78622,1.78622,0,1,0-1.75976,2.05664A1.84743,1.84743,0,0,0,114.09461,128.03946Z"/><path d="M116.36024,129.59024v-3.47656h-.87989v-.72559h.87989v-1.45215h.82519v1.45215h1.07813v.72559h-1.07813v3.30078c0,.39551.17578.68164.53906.68164a.79665.79665,0,0,0,.56153-.21973l.24121.61622a1.3465,1.3465,0,0,1-.98926.34082A1.0875,1.0875,0,0,1,116.36024,129.59024Z"/><path d="M106.90614,140.975c2.63964-2.0791,4.07031-3.29981,4.07031-4.56543a1.37229,1.37229,0,0,0-1.5293-1.3418,2.45377,2.45377,0,0,0-1.99121.92383l-.56152-.583a3.17927,3.17927,0,0,1,2.55273-1.15527,2.233,2.233,0,0,1,2.46387,2.15625c0,1.49609-1.51758,2.86035-3.56446,4.47754h3.59766v.81445h-5.03808Z"/><rect class="cls-5" x="181.72116" y="115.34102" width="71.14795" height="30.60535"/><path class="cls-2" d="M202.66346,125.74259v-.28028h1.54883v.43994a.73524.73524,0,0,0,.82959.7295.677.677,0,0,0,.71972-.68946c0-1.26953-2.96826-.96972-2.96826-3.26806a1.99764,1.99764,0,0,1,2.21875-2.07911,1.94051,1.94051,0,0,1,2.2085,1.98877v.44h-1.54883v-.53956c0-.31005-.2998-.48974-.66992-.48974a.58473.58473,0,0,0-.64942.59961c0,1.01953,2.96827.78955,2.96827,3.208a2.10122,2.10122,0,0,1-2.3086,2.189A2.15258,2.15258,0,0,1,202.66346,125.74259Z"/><path class="cls-2" d="M212.04383,122.74405v5.707a1.76521,1.76521,0,0,1-1.939,1.83887,1.72686,1.72686,0,0,1-1.9292-1.71924h1.49951a.3776.3776,0,0,0,.40967.37012.42428.42428,0,0,0,.45947-.41992v-.7295a1.637,1.637,0,0,1-.79932.19971c-.97949,0-1.59912-.64941-1.59912-1.999v-3.248h1.499v3.28809c0,.38964.14991.60986.42969.60986a.47106.47106,0,0,0,.46973-.48v-3.418Z"/><path class="cls-2" d="M212.81922,126.31192v-.11963h1.45947v.11963a.40808.40808,0,0,0,.44971.35986c.25,0,.3999-.11962.3999-.30957,0-.61962-2.19922-.33007-2.19922-2.08886a1.81176,1.81176,0,0,1,3.6084-.06006v.1001H215.078v-.1001a.32.32,0,0,0-.34961-.29981c-.21973,0-.33984.11963-.33984.26953,0,.6001,2.209.35987,2.209,2.12891a1.70484,1.70484,0,0,1-1.88916,1.6792A1.72217,1.72217,0,0,1,212.81922,126.31192Z"/><path class="cls-2" d="M220.28846,126.4921v1.34912H219.369c-1.06934,0-1.55909-.60987-1.55909-1.96875v-1.7793H217.14v-1.34912h.66992v-1.4292h1.499v1.4292h.9497v1.34912h-.9497v1.519c0,.58985.18994.87989.55957.87989Z"/><path class="cls-2" d="M224.91688,124.49307v1.23926h-2.44873v.44971c0,.42969.22021.60986.5.60986a.43574.43574,0,0,0,.4497-.42969v-.14013h1.499a1.75067,1.75067,0,0,1-1.959,1.769,1.86313,1.86313,0,0,1-1.98877-2.00879v-1.39941a1.84986,1.84986,0,0,1,1.979-1.98877A1.82882,1.82882,0,0,1,224.91688,124.49307Zm-1.50928.21v-.37988c0-.35986-.16992-.52978-.44971-.52978-.2998,0-.48974.20019-.48974.59961v.31005Z"/><path class="cls-2" d="M231.90467,124.58292v3.2583h-1.499v-3.31836c0-.36963-.16016-.57959-.40967-.57959a.43459.43459,0,0,0-.3999.48974v3.40821h-1.499v-3.31836c0-.36963-.16015-.57959-.41015-.57959a.42714.42714,0,0,0-.39942.46973v3.42822H225.788v-5.09717h.90967l.23.27979a1.7055,1.7055,0,0,1,1.10937-.42969,1.46177,1.46177,0,0,1,1.15918.46972,1.67053,1.67053,0,0,1,1.14942-.46972C231.32508,122.59415,231.90467,123.24356,231.90467,124.58292Z"/><path class="cls-2" d="M194.00965,137.97208v-3.35791a2.36986,2.36986,0,0,1,4.6875,0v.88965h-1.56934v-.90967c0-.35987-.25976-.59961-.76953-.59961-.52978,0-.79931.23974-.79931.59961v3.39795c0,.35986.26953.59961.78955.59961.51953,0,.77929-.23975.77929-.59961v-.90918h1.56934v.88916a2.36986,2.36986,0,0,1-4.6875,0Z"/><path class="cls-2" d="M199.518,137.9921v-1.40918a1.99905,1.99905,0,0,1,3.998,0v1.40918a1.999,1.999,0,0,1-3.998,0Zm2.49854.07031v-1.54932c0-.37988-.18994-.56982-.49951-.56982-.31006,0-.5.18994-.5.56982v1.54932c0,.38965.18994.57959.48974.57959C201.81678,138.642,202.01649,138.45206,202.01649,138.06241Z"/><path class="cls-2" d="M208.36365,136.58292v3.2583h-1.499v-3.28809c0-.39013-.18994-.60986-.48974-.60986a.47248.47248,0,0,0-.48975.46973v3.42822h-1.49951V134.744h.90967l.23974.29a1.8093,1.8093,0,0,1,1.18945-.43994C207.73377,134.59415,208.36365,135.24356,208.36365,136.58292Z"/><path class="cls-2" d="M212.15125,138.4921v1.34912h-.91943c-1.06934,0-1.55908-.60987-1.55908-1.96875v-1.7793h-.66993V134.744h.66993v-1.4292h1.499v1.4292h.94971v1.34912h-.94971v1.519c0,.58985.18994.87989.55957.87989Z"/><path class="cls-2" d="M215.67274,134.65421v1.28906a1.06061,1.06061,0,0,0-.37989-.06983.86734.86734,0,0,0-.86914.90967v3.05811H212.9242V134.744h.98975l.25976.36963a2.164,2.164,0,0,1,1.29932-.46973A1.24083,1.24083,0,0,1,215.67274,134.65421Z"/><path class="cls-2" d="M216.33485,137.9921v-1.40918a1.999,1.999,0,0,1,3.998,0v1.40918a1.999,1.999,0,0,1-3.998,0Zm2.49853.07031v-1.54932c0-.37988-.18994-.56982-.49951-.56982-.31006,0-.5.18994-.5.56982v1.54932c0,.38965.18994.57959.48975.57959C218.63367,138.642,218.83338,138.45206,218.83338,138.06241Z"/><path class="cls-2" d="M222.73182,132.14542v7.6958h-1.499v-7.6958Z"/><path class="cls-2" d="M225.2201,132.14542v7.6958h-1.499v-7.6958Z"/><path class="cls-2" d="M230.06141,136.49307v1.23926h-2.44873v.44971c0,.42969.22021.60986.5.60986a.43575.43575,0,0,0,.44971-.42969v-.14013h1.499a1.75067,1.75067,0,0,1-1.959,1.769,1.86313,1.86313,0,0,1-1.98877-2.00879v-1.39941a1.84986,1.84986,0,0,1,1.979-1.98877A1.82882,1.82882,0,0,1,230.06141,136.49307Zm-1.50928.21v-.37988c0-.35986-.16992-.52978-.44971-.52978-.2998,0-.48974.20019-.48974.59961v.31005Z"/><path class="cls-2" d="M233.68055,134.65421v1.28906a1.06056,1.06056,0,0,0-.37988-.06983.86733.86733,0,0,0-.86914.90967v3.05811H230.932V134.744h.98975l.25977.36963a2.164,2.164,0,0,1,1.29931-.46973A1.24077,1.24077,0,0,1,233.68055,134.65421Z"/><path class="cls-2" d="M238.07166,138.4418H240.6v1.39942h-4.19775v-.77979c0-2.06884,2.71875-3.03808,2.71875-4.37744v-.19971a.48469.48469,0,0,0-.54981-.48974c-.32959,0-.55957.24951-.55957.69971v.37939h-1.54931v-.30957a2.05822,2.05822,0,0,1,2.10888-2.16895,1.95556,1.95556,0,0,1,2.09864,1.9292v.24952C240.66981,136.76309,238.2616,137.45255,238.07166,138.4418Z"/><path class="cls-4" d="M145.7992,145.07266l-.77.791-.56738-.59473,1.4707-1.47754h.86865v4.6709H145.7992Z"/><path class="cls-4" d="M149.68592,143.7211c1.33057,0,1.93262,1.2041,1.93262,2.40918s-.602,2.416-1.93262,2.416c-1.33789,0-1.93311-1.21094-1.93311-2.416S148.348,143.7211,149.68592,143.7211Zm0,.88281c-.67236,0-.9248.665-.9248,1.52637s.25244,1.53418.9248,1.53418c.665,0,.91748-.67285.91748-1.53418S150.351,144.60391,149.68592,144.60391Z"/><path class="cls-4" d="M154.27821,143.7211c1.33056,0,1.93261,1.2041,1.93261,2.40918s-.60205,2.416-1.93261,2.416c-1.3379,0-1.93311-1.21094-1.93311-2.416S152.94031,143.7211,154.27821,143.7211Zm0,.88281c-.67237,0-.92481.665-.92481,1.52637s.25244,1.53418.92481,1.53418c.665,0,.91748-.67285.91748-1.53418S154.94324,144.60391,154.27821,144.60391Z"/><path class="cls-4" d="M159.392,143.71426a2.18793,2.18793,0,0,1,1.9331,1.02247l-.82666.44824a1.32609,1.32609,0,0,0-1.10644-.58887,1.53587,1.53587,0,0,0,0,3.06836,1.58008,1.58008,0,0,0,1.0083-.35742v-.56738h-1.24659v-.8545h2.227v1.78614a2.59213,2.59213,0,0,1-1.98876.88183,2.42033,2.42033,0,1,1,0-4.83887Z"/><path class="cls-4" d="M162.39637,143.79141h.88916v1.72266a1.30186,1.30186,0,0,1,1.04395-.51856c.86132,0,1.49853.67286,1.49853,1.7793,0,1.12695-.64453,1.77149-1.49853,1.77149a1.32722,1.32722,0,0,1-1.04395-.51075v.42676h-.88916Zm1.65283,3.96387a.9926.9926,0,0,0,0-1.96777.98347.98347,0,0,0-.76367.3916v1.19824A.99192.99192,0,0,0,164.0492,147.75528Z"/><line class="cls-3" x1="344.90379" y1="125.4932" x2="401.42115" y2="125.4932"/><polygon class="cls-4" points="398.108 129.583 397.426 128.851 401.037 125.494 397.426 122.137 398.108 121.404 402.506 125.494 398.108 129.583"/><line class="cls-3" x1="344.90379" y1="139.34232" x2="401.42115" y2="139.34232"/><polygon class="cls-4" points="398.108 143.432 397.426 142.7 401.037 139.343 397.426 135.986 398.108 135.253 402.506 139.343 398.108 143.432"/><line class="cls-3" x1="257.41395" y1="88.28946" x2="302.33283" y2="124.80911"/><polygon class="cls-4" points="257.405 93.553 258.396 93.415 257.711 88.532 262.632 88.206 262.564 87.207 256.572 87.606 257.405 93.553"/><polygon class="cls-4" points="297.182 125.892 297.115 124.894 302.034 124.568 301.35 119.684 302.341 119.546 303.174 125.494 297.182 125.892"/><line class="cls-3" x1="257.65696" y1="139.34232" x2="302.08982" y2="139.34232"/><polygon class="cls-4" points="260.97 143.432 261.653 142.7 258.041 139.343 261.653 135.986 260.97 135.253 256.572 139.343 260.97 143.432"/><polygon class="cls-4" points="298.776 143.432 298.094 142.7 301.706 139.343 298.094 135.986 298.776 135.253 303.174 139.343 298.776 143.432"/><path class="cls-4" d="M362.87684,134.08634c1.91211-1.40821,2.47265-1.89063,2.47265-2.46583,0-.40527-.37207-.60839-.76367-.60839a1.667,1.667,0,0,0-1.24707.53906l-.56738-.6582a2.37887,2.37887,0,0,1,1.7998-.76368,1.58554,1.58554,0,0,1,1.78614,1.49121c0,.79883-.65821,1.49219-1.91211,2.375h1.94726v.875h-3.51562Z"/><path class="cls-4" d="M368.7616,133.72891l-.77832,1.1416h-.9873l1.19824-1.73632-1.12793-1.64649h.99414l.70117,1.044.69336-1.044h.99414l-1.13476,1.64649,1.21191,1.73632h-.99511Z"/><path class="cls-4" d="M373.871,131.48087l-.77052.791-.56737-.59472,1.4707-1.47754h.86914v4.67089h-1.002Z"/><path class="cls-4" d="M377.7577,130.1293c1.33008,0,1.93261,1.20411,1.93261,2.40918s-.60253,2.416-1.93261,2.416c-1.33789,0-1.9336-1.21094-1.9336-2.416S376.41981,130.1293,377.7577,130.1293Zm0,.88282c-.67285,0-.92481.665-.92481,1.52636s.252,1.53418.92481,1.53418c.665,0,.917-.67285.917-1.53418S378.42274,131.01212,377.7577,131.01212Z"/><path class="cls-4" d="M382.34949,130.1293c1.33106,0,1.93262,1.20411,1.93262,2.40918s-.60156,2.416-1.93262,2.416c-1.33789,0-1.93261-1.21094-1.93261-2.416S381.0116,130.1293,382.34949,130.1293Zm0,.88282c-.67187,0-.9248.665-.9248,1.52636s.25293,1.53418.9248,1.53418c.665,0,.918-.67285.918-1.53418S383.01453,131.01212,382.34949,131.01212Z"/><path class="cls-4" d="M387.46375,130.12247a2.18768,2.18768,0,0,1,1.93262,1.02246l-.82617.44824a1.32678,1.32678,0,0,0-1.10645-.58887,1.53587,1.53587,0,0,0,0,3.06836,1.57966,1.57966,0,0,0,1.00781-.35742v-.56738h-1.2461v-.85449H389.452v1.78613a2.59105,2.59105,0,0,1-1.98828.88184,2.42033,2.42033,0,1,1,0-4.83887Z"/><path class="cls-4" d="M390.46766,130.19962h.88965v1.72265a1.30117,1.30117,0,0,1,1.04394-.51855c.86133,0,1.498.67285,1.498,1.77929,0,1.127-.64453,1.77149-1.498,1.77149a1.32651,1.32651,0,0,1-1.04394-.51074v.42675h-.88965Zm1.65332,3.96386a.9926.9926,0,0,0,0-1.96777.98347.98347,0,0,0-.76367.3916v1.19824A.99192.99192,0,0,0,392.121,134.16348Z"/><rect class="cls-1" x="306.33454" y="115.89958" width="38.42817" height="33.03634"/><path d="M317.44715,128.974a3.10317,3.10317,0,0,0,2.31055,1.0459c1.30859,0,1.72656-.7041,1.72656-1.26563,0-.87988-.89062-1.12207-1.85937-1.38574-1.17676-.30859-2.48633-.63867-2.48633-2.08008,0-1.21,1.07812-2.03515,2.51953-2.03515a3.4495,3.4495,0,0,1,2.60742,1.02343l-.5498.6709a2.806,2.806,0,0,0-2.123-.87988c-.88086,0-1.50781.47266-1.50781,1.166,0,.7373.84765.957,1.78222,1.21,1.19922.31933,2.56348.69336,2.56348,2.2334,0,1.06738-.72559,2.15625-2.70606,2.15625a3.634,3.634,0,0,1-2.8164-1.166Z"/><path d="M323.65125,123.36368h.8252v7.33789h-.8252Z"/><path d="M325.70789,128.03946a2.63424,2.63424,0,1,1,2.62891,2.79395A2.60656,2.60656,0,0,1,325.70789,128.03946Zm4.38965,0a1.78664,1.78664,0,1,0-1.76074,2.05664A1.84756,1.84756,0,0,0,330.09754,128.03946Z"/><path d="M332.36317,129.59024v-3.47656h-.88086v-.72559h.88086v-1.45215h.82519v1.45215h1.07813v.72559h-1.07813v3.30078c0,.39551.17578.68164.53906.68164a.796.796,0,0,0,.56055-.21973l.24219.61622a1.34742,1.34742,0,0,1-.99024.34082A1.08682,1.08682,0,0,1,332.36317,129.59024Z"/><path d="M326.31824,139.84219h-3.4873v-.75878l3.14648-4.71973h1.25391v4.67578h1.03418v.80273h-1.03418v1.85938h-.91309Zm-2.57421-.80273h2.57421v-3.8291Z"/><path class="cls-4" d="M270.45106,145.07266l-.77.791-.56739-.59473,1.47071-1.47754h.86865v4.6709h-1.002Z"/><path class="cls-4" d="M274.33778,143.7211c1.33007,0,1.93261,1.2041,1.93261,2.40918s-.60254,2.416-1.93261,2.416c-1.33789,0-1.9336-1.21094-1.9336-2.416S272.99989,143.7211,274.33778,143.7211Zm0,.88281c-.67286,0-.92481.665-.92481,1.52637s.252,1.53418.92481,1.53418c.665,0,.917-.67285.917-1.53418S275.00281,144.60391,274.33778,144.60391Z"/><path class="cls-4" d="M278.92957,143.7211c1.33106,0,1.93262,1.2041,1.93262,2.40918s-.60156,2.416-1.93262,2.416c-1.33789,0-1.93261-1.21094-1.93261-2.416S277.59168,143.7211,278.92957,143.7211Zm0,.88281c-.67187,0-.9248.665-.9248,1.52637s.25293,1.53418.9248,1.53418c.665,0,.918-.67285.918-1.53418S279.59461,144.60391,278.92957,144.60391Z"/><path class="cls-4" d="M284.04383,143.71426a2.18767,2.18767,0,0,1,1.93262,1.02247l-.82617.44824a1.32679,1.32679,0,0,0-1.10645-.58887,1.53587,1.53587,0,0,0,0,3.06836,1.57966,1.57966,0,0,0,1.00781-.35742v-.56738h-1.24609v-.8545h2.22656v1.78614a2.59108,2.59108,0,0,1-1.98828.88183,2.42033,2.42033,0,1,1,0-4.83887Z"/><path class="cls-4" d="M287.04774,143.79141h.88965v1.72266a1.30118,1.30118,0,0,1,1.04394-.51856c.86133,0,1.498.67286,1.498,1.7793,0,1.12695-.64453,1.77149-1.498,1.77149a1.32648,1.32648,0,0,1-1.04394-.51075v.42676h-.88965Zm1.65332,3.96387a.9926.9926,0,0,0,0-1.96777.98347.98347,0,0,0-.76367.3916v1.19824A.99192.99192,0,0,0,288.70106,147.75528Z"/><circle class="cls-6" cx="78.51303" cy="139.38555" r="5.84883"/><line class="cls-7" x1="81.17976" y1="136.12339" x2="75.90138" y2="142.64374"/><line class="cls-7" x1="75.79789" y1="136.12339" x2="81.07626" y2="142.64374"/><circle class="cls-6" cx="78.51303" cy="125.49322" r="5.84883"/><line class="cls-7" x1="81.17976" y1="122.23106" x2="75.90138" y2="128.7514"/><line class="cls-7" x1="75.79789" y1="122.23106" x2="81.07626" y2="128.7514"/><circle class="cls-6" cx="78.51303" cy="87.63967" r="5.84883"/><line class="cls-7" x1="81.17976" y1="84.37751" x2="75.90138" y2="90.89786"/><line class="cls-7" x1="75.79789" y1="84.37751" x2="81.07626" y2="90.89786"/><circle class="cls-6" cx="78.51303" cy="73.74734" r="5.84883"/><line class="cls-7" x1="81.17976" y1="70.48518" x2="75.90138" y2="77.00552"/><line class="cls-7" x1="75.79789" y1="70.48518" x2="81.07626" y2="77.00552"/><circle class="cls-6" cx="356.12545" cy="139.38555" r="5.84883"/><line class="cls-7" x1="358.79218" y1="136.12339" x2="353.5138" y2="142.64374"/><line class="cls-7" x1="353.4103" y1="136.12339" x2="358.68868" y2="142.64374"/><circle class="cls-6" cx="356.12545" cy="125.49322" r="5.84883"/><line class="cls-7" x1="358.79218" y1="122.23106" x2="353.5138" y2="128.7514"/><line class="cls-7" x1="353.4103" y1="122.23106" x2="358.68868" y2="128.7514"/><circle class="cls-6" cx="356.12545" cy="87.63967" r="5.84883"/><line class="cls-7" x1="358.79218" y1="84.37751" x2="353.5138" y2="90.89786"/><line class="cls-7" x1="353.4103" y1="84.37751" x2="358.68868" y2="90.89786"/><circle class="cls-6" cx="356.12545" cy="73.74734" r="5.84883"/><line class="cls-7" x1="358.79218" y1="70.48518" x2="353.5138" y2="77.00552"/><line class="cls-7" x1="353.4103" y1="70.48518" x2="358.68868" y2="77.00552"/></svg>