<svg id="Layer_1" data-name="Layer 1" xmlns="http://www.w3.org/2000/svg" viewBox="0 0 300 300"><defs><style>.cls-1{fill:#00953b;}.cls-2,.cls-3{fill:none;stroke:#00953b;stroke-linecap:round;stroke-miterlimit:10;}.cls-2{stroke-width:16px;}.cls-3{stroke-width:12px;}</style></defs><title>icons-PMS355</title><path class="cls-1" d="M194.44556,39.45632a57.90375,57.90375,0,1,1-57.90381,57.90375,57.96938,57.96938,0,0,1,57.90381-57.90375m0-12a69.90375,69.90375,0,1,0,69.90381,69.90375,69.90383,69.90383,0,0,0-69.90381-69.90375Z"/><line class="cls-2" x1="194.44556" y1="27.45639" x2="194.44556" y2="19.99999"/><line class="cls-2" x1="194.44556" y1="174.72028" x2="194.44556" y2="167.26388"/><line class="cls-2" x1="159.49366" y1="36.82172" x2="155.76546" y2="30.36429"/><line class="cls-2" x1="233.12565" y1="164.35597" x2="229.39745" y2="157.89854"/><line class="cls-2" x1="133.90712" y1="62.40829" x2="127.44969" y2="58.68009"/><line class="cls-2" x1="261.44143" y1="136.04018" x2="254.98399" y2="132.31198"/><line class="cls-2" x1="124.54181" y1="97.36016" x2="117.08541" y2="97.36016"/><line class="cls-2" x1="271.80571" y1="97.36011" x2="264.34931" y2="97.36011"/><line class="cls-2" x1="133.90715" y1="132.31203" x2="127.44972" y2="136.04024"/><line class="cls-2" x1="261.44139" y1="58.68003" x2="254.98396" y2="62.40823"/><line class="cls-2" x1="159.4937" y1="157.89857" x2="155.76551" y2="164.356"/><line class="cls-2" x1="233.12561" y1="30.36427" x2="229.39741" y2="36.8217"/><line class="cls-2" x1="194.44559" y1="167.26388" x2="194.44559" y2="174.72028"/><line class="cls-2" x1="194.44553" y1="19.99999" x2="194.44553" y2="27.45639"/><path class="cls-1" d="M84.27271,167.1274a40.32185,40.32185,0,1,1-.00147,0h.00147m-.00245-12a52.4354,52.4354,0,1,0,50.60865,38.87149A52.5154,52.5154,0,0,0,84.27026,155.1274Z"/><line class="cls-2" x1="70.66811" y1="156.92689" x2="69.22071" y2="151.52514"/><line class="cls-2" x1="99.25413" y1="263.61139" x2="97.80674" y2="258.20964"/><line class="cls-2" x1="47.16535" y1="170.49622" x2="43.211" y2="166.54187"/><line class="cls-2" x1="125.26385" y1="248.59467" x2="121.3095" y2="244.64032"/><line class="cls-2" x1="33.59604" y1="193.99897" x2="28.19429" y2="192.55158"/><line class="cls-2" x1="140.28055" y1="222.58495" x2="134.87881" y2="221.13756"/><line class="cls-2" x1="33.59605" y1="221.1376" x2="28.19431" y2="222.585"/><line class="cls-2" x1="140.28054" y1="192.55154" x2="134.8788" y2="193.99893"/><line class="cls-2" x1="47.16538" y1="244.64034" x2="43.21103" y2="248.5947"/><line class="cls-2" x1="125.26382" y1="166.54184" x2="121.30947" y2="170.49619"/><line class="cls-2" x1="70.66812" y1="258.20965" x2="69.22073" y2="263.6114"/><line class="cls-2" x1="99.25412" y1="151.52514" x2="97.80672" y2="156.92689"/><line class="cls-2" x1="97.80676" y1="258.20964" x2="99.25416" y2="263.61138"/><line class="cls-2" x1="69.22069" y1="151.52515" x2="70.66809" y2="156.9269"/><path class="cls-1" d="M204.6709,197.1575l-.00025,9h.001a30.43859,30.43859,0,0,1,26.29321,15.167,30.33125,30.33125,0,0,1-26.22192,45.48786,30.32744,30.32744,0,0,1-.07275-60.65483l.00073-9m-.00122,0a39.32571,39.32571,0,1,0,34.08935,19.667,39.148,39.148,0,0,0-34.08935-19.667Z"/><line class="cls-3" x1="185.04587" y1="202.43207" x2="182.94876" y2="198.79976"/><line class="cls-3" x1="226.46384" y1="274.1701" x2="224.36673" y2="270.53779"/><line class="cls-3" x1="170.65343" y1="216.82451" x2="167.02113" y2="214.7274"/><line class="cls-3" x1="242.39148" y1="258.24246" x2="238.75917" y2="256.14535"/><line class="cls-3" x1="165.38544" y1="236.48495" x2="161.19122" y2="236.48495"/><line class="cls-3" x1="248.22138" y1="236.48491" x2="244.02716" y2="236.48491"/><line class="cls-3" x1="170.65345" y1="256.14537" x2="167.02114" y2="258.24249"/><line class="cls-3" x1="242.39146" y1="214.72738" x2="238.75916" y2="216.82449"/><line class="cls-3" x1="185.04589" y1="270.5378" x2="182.94878" y2="274.17011"/><line class="cls-3" x1="226.46383" y1="198.79975" x2="224.36672" y2="202.43206"/><line class="cls-3" x1="204.70631" y1="275.80579" x2="204.70632" y2="280.00001"/><line class="cls-3" x1="204.70629" y1="192.96985" x2="204.70629" y2="197.16407"/><line class="cls-3" x1="224.36674" y1="270.53779" x2="226.46386" y2="274.17009"/><line class="cls-3" x1="182.94874" y1="198.79977" x2="185.04586" y2="202.43208"/></svg>