<svg id="Layer_1" data-name="Layer 1" xmlns="http://www.w3.org/2000/svg" viewBox="0 0 627.8963 261.17663"><defs><style>.cls-1,.cls-10,.cls-11,.cls-12,.cls-13,.cls-14,.cls-6,.cls-8,.cls-9{fill:none;}.cls-1,.cls-11,.cls-12,.cls-6{stroke:#f36f4c;stroke-linejoin:round;}.cls-1,.cls-10,.cls-11,.cls-12,.cls-13,.cls-14,.cls-3,.cls-6,.cls-8,.cls-9{stroke-linecap:round;}.cls-1{stroke-dasharray:3 3;}.cls-2{fill:#f36f4c;}.cls-3,.cls-5{fill:#fff;}.cls-3{stroke:#000;}.cls-10,.cls-13,.cls-14,.cls-3,.cls-8,.cls-9{stroke-miterlimit:10;}.cls-4{fill:#999;}.cls-7{fill:#1d9cd3;}.cls-10,.cls-13,.cls-14,.cls-8,.cls-9{stroke:#1d9cd3;}.cls-9{stroke-dasharray:2.6391 2.6391;}.cls-10{stroke-dasharray:2.9906 2.9906;}.cls-11{stroke-dasharray:3.01131 3.01131;}.cls-12{stroke-dasharray:3.47719 3.47719;}.cls-13{stroke-dasharray:2.91831 2.91831;}.cls-14{stroke-dasharray:3.04631 3.04631;}</style></defs><polyline class="cls-1" points="198.978 49.586 198.978 127.868 219.364 127.868"/><path d="M208.98743,68.20805a2.36427,2.36427,0,0,1,2.45117-2.4165,2.15558,2.15558,0,0,1,1.98926,1.1416l-.85449.42041a1.2794,1.2794,0,0,0-1.13477-.67969,1.53781,1.53781,0,0,0,0,3.06787,1.26665,1.26665,0,0,0,1.13477-.67969l.85449.41358a2.16878,2.16878,0,0,1-1.98926,1.14844A2.36416,2.36416,0,0,1,208.98743,68.20805Z"/><path d="M216.44153,68.481c0-.46924-.24512-.61621-.62988-.61621a.98322.98322,0,0,0-.77051.39892v2.27637h-.88965V65.86869h.88965v1.73a1.5632,1.5632,0,0,1,1.19043-.52539.97411.97411,0,0,1,1.09961,1.06446v2.40234h-.88965Z"/><path d="M220.422,70.19a1.40225,1.40225,0,0,1-1.07227.43409,1.12722,1.12722,0,0,1-1.17675-1.12061,1.07144,1.07144,0,0,1,1.17675-1.07861,1.37006,1.37006,0,0,1,1.07227.41308v-.46924c0-.34277-.29492-.56689-.74316-.56689a1.42414,1.42414,0,0,0-.98731.39893l-.33594-.59522a2.21789,2.21789,0,0,1,1.47754-.53223c.77051,0,1.47852.30811,1.47852,1.28174v2.18506H220.422Zm0-.88232a.89082.89082,0,0,0-.71484-.29443c-.34961,0-.6377.189-.6377.51123,0,.31543.28809.49755.6377.49755a.89082.89082,0,0,0,.71484-.29443Z"/><path d="M222.46106,69.47563a1.93617,1.93617,0,0,0,1.16992.46191c.38477,0,.56739-.13281.56739-.34277,0-.23828-.29493-.32227-.67969-.39942-.58106-.1123-1.33106-.252-1.33106-1.05761,0-.56739.498-1.06446,1.38672-1.06446a2.12485,2.12485,0,0,1,1.35938.46241l-.35059.60888a1.42729,1.42729,0,0,0-1.001-.39209c-.32227,0-.53223.11914-.53223.31543,0,.21.26562.28711.64355.36426.582.11182,1.35938.26611,1.35938,1.10645,0,.623-.52539,1.08545-1.46387,1.08545a2.27476,2.27476,0,0,1-1.51269-.5254Z"/><path d="M225.99231,69.47563a1.93617,1.93617,0,0,0,1.16992.46191c.38477,0,.56739-.13281.56739-.34277,0-.23828-.29493-.32227-.67969-.39942-.58106-.1123-1.33106-.252-1.33106-1.05761,0-.56739.498-1.06446,1.38672-1.06446a2.12485,2.12485,0,0,1,1.35938.46241l-.35059.60888a1.42729,1.42729,0,0,0-1.001-.39209c-.32227,0-.53223.11914-.53223.31543,0,.21.26562.28711.64355.36426.582.11182,1.35938.26611,1.35938,1.10645,0,.623-.52539,1.08545-1.46387,1.08545a2.27476,2.27476,0,0,1-1.51269-.5254Z"/><path d="M229.32532,66.12748a.53223.53223,0,1,1,.53223.53272A.53665.53665,0,0,1,229.32532,66.12748Zm.09082,1.02979h.88965v3.38281h-.88965Z"/><path d="M231.47473,69.47563a1.93615,1.93615,0,0,0,1.16993.46191c.38476,0,.56738-.13281.56738-.34277,0-.23828-.29492-.32227-.67969-.39942-.58105-.1123-1.33105-.252-1.33105-1.05761,0-.56739.498-1.06446,1.38671-1.06446a2.12485,2.12485,0,0,1,1.35938.46241l-.35059.60888a1.42729,1.42729,0,0,0-1.001-.39209c-.32227,0-.53223.11914-.53223.31543,0,.21.26563.28711.64356.36426.582.11182,1.35937.26611,1.35937,1.10645,0,.623-.52539,1.08545-1.46387,1.08545a2.27478,2.27478,0,0,1-1.51269-.5254Z"/><path d="M205.02551,72.86869h2.18555a1.50032,1.50032,0,1,1,0,2.99756h-1.19043v1.67383h-.99512Zm2.05274.8545h-1.05762v1.28857h1.05762a.64558.64558,0,1,0,0-1.28857Z"/><path d="M211.55969,77.19a1.40221,1.40221,0,0,1-1.07226.43409,1.12642,1.12642,0,0,1-1.17578-1.12061,1.07066,1.07066,0,0,1,1.17578-1.07861,1.37,1.37,0,0,1,1.07226.41308v-.46924c0-.34277-.29492-.56689-.74316-.56689a1.42414,1.42414,0,0,0-.9873.39893l-.33594-.59522a2.21786,2.21786,0,0,1,1.47754-.53223c.77051,0,1.47754.30811,1.47754,1.28174v2.18506h-.88868Zm0-.88232a.8908.8908,0,0,0-.71484-.29443c-.34961,0-.63672.189-.63672.51123,0,.31543.28711.49755.63672.49755a.8908.8908,0,0,0,.71484-.29443Z"/><path d="M213.49622,74.15727h.88965v.4624a1.44685,1.44685,0,0,1,1.07812-.53955v.86865a1.1636,1.1636,0,0,0-.24512-.021,1.12666,1.12666,0,0,0-.833.37793v2.23437h-.88965Z"/><path d="M216.5177,76.69975V74.93461h-.56054v-.77734h.56054V73.233h.89649v.92432h.68652v.77734h-.68652v1.52686c0,.21.1123.37109.30859.37109a.48263.48263,0,0,0,.30762-.09814l.18945.67236a1.09666,1.09666,0,0,1-.74219.21729A.84549.84549,0,0,1,216.5177,76.69975Z"/><path d="M218.84,73.12748a.53223.53223,0,1,1,.53222.53272A.53665.53665,0,0,1,218.84,73.12748Zm.09082,1.02979h.88965v3.38281h-.88965Z"/><path d="M221.05676,76.69975V74.93461h-.56054v-.77734h.56054V73.233h.89649v.92432h.68652v.77734h-.68652v1.52686c0,.21.1123.37109.30859.37109a.48261.48261,0,0,0,.30762-.09814l.18945.67236a1.09663,1.09663,0,0,1-.74218.21729A.84549.84549,0,0,1,221.05676,76.69975Z"/><path d="M223.37805,73.12748a.53223.53223,0,1,1,.53223.53272A.53665.53665,0,0,1,223.37805,73.12748Zm.09082,1.02979h.88965v3.38281h-.88965Z"/><path d="M225.18469,75.84526a1.78909,1.78909,0,1,1,1.78516,1.77881A1.71288,1.71288,0,0,1,225.18469,75.84526Zm2.6543,0a.87278.87278,0,1,0-.86914.9873A.893.893,0,0,0,227.839,75.84526Z"/><path d="M231.89563,75.49516a.54879.54879,0,0,0-.623-.63037.9618.9618,0,0,0-.77051.39892v2.27637h-.88965V74.15727h.88965v.4414a1.54722,1.54722,0,0,1,1.18359-.52539.98394.98394,0,0,1,1.09961,1.07862v2.38818h-.88965Z"/><path d="M233.712,75.46684h1.68066v.75635H233.712Z"/><path d="M237.005,74.15043l-.77051.791-.56738-.59522,1.4707-1.47754h.86816v4.67139h-1.001Z"/><path d="M213.48841,81.15043l-.77051.791-.56739-.59522,1.47071-1.47754h.86816v4.67139h-1.001Z"/><path d="M216.11829,83.48246a.56739.56739,0,1,1-.56738.56739A.57392.57392,0,0,1,216.11829,83.48246Z"/><path d="M218.256,81.15043l-.7705.791-.56739-.59522,1.47071-1.47754h.86816v4.67139h-1.001Z"/><path d="M220.88587,83.48246a.56739.56739,0,1,1-.56739.56739A.57392.57392,0,0,1,220.88587,83.48246Z"/><path d="M223.02356,81.15043l-.77051.791-.56738-.59522,1.4707-1.47754h.86817v4.67139h-1.001Z"/><path d="M225.65344,83.48246a.56739.56739,0,1,1-.56738.56739A.57392.57392,0,0,1,225.65344,83.48246Z"/><path d="M229.19055,83.57377h-2.23437V82.7891l1.85644-2.92041h1.373v2.82959h.60156v.87549h-.60156v.96631h-.99512Zm-1.26074-.87549h1.26074V80.751Z"/><path class="cls-2" d="M259.77307,199.79448h.99512v4.67089h-.99512Z"/><path class="cls-2" d="M264.15589,202.42045a.54864.54864,0,0,0-.623-.62988.96145.96145,0,0,0-.77051.39844v2.27636h-.88965v-3.38281h.88965v.44141a1.54885,1.54885,0,0,1,1.18359-.52539.98407.98407,0,0,1,1.09961,1.0791v2.38769h-.88964Z"/><path class="cls-2" d="M265.97229,202.39213H267.653v.75684h-1.68067Z"/><path class="cls-2" d="M268.67249,199.79448h2.459a1.20832,1.20832,0,0,1,1.34473,1.19042,1.03756,1.03756,0,0,1-.80567,1.07129,1.13252,1.13252,0,0,1,.89649,1.14844,1.23048,1.23048,0,0,1-1.3584,1.26074h-2.53613Zm2.24121,1.87695a.51606.51606,0,1,0,0-1.03028h-1.2461v1.03028Zm.03515,1.94629a.53671.53671,0,0,0,.60254-.55274.54639.54639,0,0,0-.60254-.54687H269.6676v1.09961Z"/><path class="cls-2" d="M275.54651,204.11576a1.40363,1.40363,0,0,1-1.07226.4336,1.12632,1.12632,0,0,1-1.17579-1.12012,1.07077,1.07077,0,0,1,1.17579-1.0791,1.3717,1.3717,0,0,1,1.07226.41309v-.46875c0-.34278-.29492-.56739-.74316-.56739a1.42251,1.42251,0,0,0-.98731.39942l-.33594-.59571a2.21793,2.21793,0,0,1,1.47754-.53222c.77051,0,1.47754.30859,1.47754,1.28222v2.18457h-.88867Zm0-.88281a.89049.89049,0,0,0-.71484-.29394c-.34961,0-.63672.18847-.63672.51074,0,.31543.28711.49805.63672.49805a.89112.89112,0,0,0,.71484-.29493Z"/><path class="cls-2" d="M279.76624,202.42045a.54864.54864,0,0,0-.623-.62988.96145.96145,0,0,0-.77051.39844v2.27636H277.483v-3.38281h.88965v.44141a1.54887,1.54887,0,0,1,1.1836-.52539.98408.98408,0,0,1,1.09961,1.0791v2.38769h-.88965Z"/><path class="cls-2" d="M284.05042,204.03862a1.328,1.328,0,0,1-1.04395.51074c-.85449,0-1.499-.64453-1.499-1.77149,0-1.10644.63769-1.77929,1.499-1.77929a1.30253,1.30253,0,0,1,1.04395.51855v-1.72265h.89648v4.67089h-.89648Zm0-1.86329a.98036.98036,0,0,0-.77051-.38476.99368.99368,0,0,0,0,1.96777.97833.97833,0,0,0,.77051-.38574Z"/><path class="cls-2" d="M255.09046,208.10405l-1.31641,3.36132h-.43457l-1.31641-3.36132v3.36132H251.028v-4.67089h1.39453l1.13379,2.91308,1.13476-2.91308h1.40137v4.67089h-1.00195Z"/><path class="cls-2" d="M259.25647,211.11576a1.40363,1.40363,0,0,1-1.07226.4336,1.12712,1.12712,0,0,1-1.17676-1.12012,1.07154,1.07154,0,0,1,1.17676-1.0791,1.3717,1.3717,0,0,1,1.07226.41309v-.46875c0-.34278-.29492-.56739-.74316-.56739a1.42251,1.42251,0,0,0-.98731.39942l-.33593-.59571a2.21789,2.21789,0,0,1,1.47753-.53222c.77051,0,1.47852.30859,1.47852,1.28222v2.18457h-.88965Zm0-.88281a.89049.89049,0,0,0-.71484-.29394c-.34961,0-.6377.18847-.6377.51074,0,.31543.28809.49805.6377.49805a.89112.89112,0,0,0,.71484-.29493Z"/><path class="cls-2" d="M263.4762,209.42045a.54864.54864,0,0,0-.623-.62988.96146.96146,0,0,0-.77051.39844v2.27636H261.193v-3.38281h.88964v.44141a1.54887,1.54887,0,0,1,1.1836-.52539.98408.98408,0,0,1,1.09961,1.0791v2.38769h-.88965Z"/><path class="cls-2" d="M267.45667,211.11576a1.40365,1.40365,0,0,1-1.07227.4336,1.12632,1.12632,0,0,1-1.17578-1.12012,1.07077,1.07077,0,0,1,1.17578-1.0791,1.37172,1.37172,0,0,1,1.07227.41309v-.46875c0-.34278-.29492-.56739-.74317-.56739a1.42248,1.42248,0,0,0-.9873.39942l-.33594-.59571a2.21791,2.21791,0,0,1,1.47754-.53222c.77051,0,1.47754.30859,1.47754,1.28222v2.18457h-.88867Zm0-.88281a.89051.89051,0,0,0-.71485-.29394c-.34961,0-.63672.18847-.63672.51074,0,.31543.28711.49805.63672.49805a.89114.89114,0,0,0,.71485-.29493Z"/><path class="cls-2" d="M269.74475,211.69a1.34532,1.34532,0,0,0,1.05762.41992.82735.82735,0,0,0,.93164-.85449v-.34277a1.31951,1.31951,0,0,1-1.04394.53223c-.84766,0-1.49122-.59571-1.49122-1.72364a1.51285,1.51285,0,0,1,1.49122-1.72265,1.30253,1.30253,0,0,1,1.04394.51855v-.43457h.89649v3.15234c0,1.28809-.99512,1.60352-1.82813,1.60352a2.03933,2.03933,0,0,1-1.457-.50391Zm1.98926-2.51465a.96686.96686,0,0,0-.76367-.38476.93459.93459,0,0,0,0,1.8623.98717.98717,0,0,0,.76367-.38476Z"/><path class="cls-2" d="M275.233,207.99858a1.69681,1.69681,0,0,1,1.69532,1.86328v.19629H274.4137a.9123.9123,0,0,0,.97363.78418,1.38239,1.38239,0,0,0,.90332-.33594l.39258.57422a2.08171,2.08171,0,0,1-1.39356.46875,1.77562,1.77562,0,1,1-.05664-3.55078Zm-.833,1.457h1.667a.78373.78373,0,0,0-.834-.749A.81276.81276,0,0,0,274.4,209.45561Z"/><path class="cls-2" d="M281.95667,209.32963c0-.31543-.14063-.53906-.50489-.53906a.89947.89947,0,0,0-.70019.3916v2.2832h-.89649v-2.13574c0-.31543-.13964-.53906-.5039-.53906a.90743.90743,0,0,0-.7002.39844v2.27636h-.88965v-3.38281h.88965v.44141a1.478,1.478,0,0,1,1.10645-.52539.89556.89556,0,0,1,.93847.61621,1.43722,1.43722,0,0,1,1.16211-.61621.90307.90307,0,0,1,.99512,1.02246v2.44433h-.89648Z"/><path class="cls-2" d="M285.44788,207.99858a1.6968,1.6968,0,0,1,1.69531,1.86328v.19629h-2.51465a.9123.9123,0,0,0,.97363.78418,1.38242,1.38242,0,0,0,.90333-.33594l.39257.57422a2.08171,2.08171,0,0,1-1.39355.46875,1.77562,1.77562,0,1,1-.05664-3.55078Zm-.833,1.457h1.667a.78372.78372,0,0,0-.834-.749A.81277.81277,0,0,0,284.61487,209.45561Z"/><path class="cls-2" d="M290.25842,209.42045a.54863.54863,0,0,0-.623-.62988.96143.96143,0,0,0-.77051.39844v2.27636h-.88965v-3.38281h.88965v.44141a1.54885,1.54885,0,0,1,1.18359-.52539.98407.98407,0,0,1,1.09961,1.0791v2.38769h-.88965Z"/><path class="cls-2" d="M292.38245,210.62553V208.8599h-.56055v-.77734h.56055v-.92383h.89648v.92383h.68653v.77734h-.68653v1.52735c0,.21.11231.37109.3086.37109a.47961.47961,0,0,0,.30761-.09863l.18946.67285a1.09692,1.09692,0,0,1-.74219.2168A.84535.84535,0,0,1,292.38245,210.62553Z"/><path class="cls-2" d="M271.57581,32.14994a2.41659,2.41659,0,1,1-2.437,2.417A2.3474,2.3474,0,0,1,271.57581,32.14994Zm0,.88282a1.53809,1.53809,0,1,0,1.42187,1.53418A1.41267,1.41267,0,0,0,271.57581,33.03276Z"/><path class="cls-2" d="M277.20569,36.47123a1.58252,1.58252,0,0,1-1.19092.51172.96861.96861,0,0,1-1.09228-1.06445V33.51615h.88916v2.05176a.54353.54353,0,0,0,.62353.623.99528.99528,0,0,0,.77051-.38477v-2.29h.88916V36.899h-.88916Z"/><path class="cls-2" d="M279.37512,36.05815V34.2935h-.56v-.77735h.56v-.9248h.89649v.9248h.68652v.77735h-.68652v1.52637c0,.21.1123.37109.3081.37109a.48874.48874,0,0,0,.3086-.09766l.189.67188a1.09792,1.09792,0,0,1-.74267.21777A.84567.84567,0,0,1,279.37512,36.05815Z"/><path class="cls-2" d="M281.504,34.82573h1.68115v.75585H281.504Z"/><path class="cls-2" d="M283.97571,35.20365a1.78933,1.78933,0,1,1,1.78613,1.7793A1.71328,1.71328,0,0,1,283.97571,35.20365Zm2.6543,0a.87257.87257,0,1,0-.86817.98731A.89259.89259,0,0,0,286.63,35.20365Z"/><path class="cls-2" d="M288.59925,34.2935h-.56055v-.77735h.56055v-.18261a1.09012,1.09012,0,0,1,1.1416-1.17676,1.4329,1.4329,0,0,1,.64355.14062l-.18164.62989a.54667.54667,0,0,0-.28711-.06934c-.252,0-.41992.168-.41992.49024v.168h.68555v.77735h-.68555V36.899h-.89648Z"/><path class="cls-2" d="M290.6305,34.82573h1.68066v.75585H290.6305Z"/><path class="cls-2" d="M293.33069,32.22709h2.459a1.20832,1.20832,0,0,1,1.34473,1.19043,1.0387,1.0387,0,0,1-.80566,1.07227,1.13175,1.13175,0,0,1,.89648,1.14844,1.23048,1.23048,0,0,1-1.3584,1.26074h-2.53613Zm2.24121,1.877a.5156.5156,0,1,0,0-1.0293h-1.24609v1.0293Zm.03516,1.94726a.53692.53692,0,0,0,.60254-.55371.5457.5457,0,0,0-.60254-.5459h-1.28125v1.09961Z"/><path class="cls-2" d="M300.20374,36.54838a1.40082,1.40082,0,0,1-1.07227.43457,1.12733,1.12733,0,0,1-1.17676-1.12109,1.07134,1.07134,0,0,1,1.17676-1.07813,1.3684,1.3684,0,0,1,1.07227.41309v-.46973c0-.34277-.29492-.5664-.74317-.5664a1.42583,1.42583,0,0,0-.9873.39843l-.33594-.59472a2.21787,2.21787,0,0,1,1.47754-.53223c.77051,0,1.47852.30762,1.47852,1.28125V36.899h-.88965Zm0-.88183a.89114.89114,0,0,0-.71485-.29493c-.34961,0-.63769.18946-.63769.51172,0,.31543.28808.49707.63769.49707a.89051.89051,0,0,0,.71485-.29394Z"/><path class="cls-2" d="M304.42444,34.85405a.549.549,0,0,0-.623-.63086.96215.96215,0,0,0-.7705.39941V36.899h-.88965V33.51615h.88965v.44141a1.54557,1.54557,0,0,1,1.18359-.52539.9838.9838,0,0,1,1.09961,1.07813V36.899h-.88965Z"/><path class="cls-2" d="M308.70862,36.47123a1.32893,1.32893,0,0,1-1.04395.51172c-.85449,0-1.499-.64453-1.499-1.77246,0-1.10644.6377-1.77832,1.499-1.77832a1.30435,1.30435,0,0,1,1.04395.51758V32.22709h.89648V36.899h-.89648Zm0-1.8623a.97833.97833,0,0,0-.77051-.38574.99368.99368,0,0,0,0,1.96777.98033.98033,0,0,0,.77051-.38477Z"/><path class="cls-2" d="M316.49964,33.53666,315.18323,36.899h-.43457l-1.31641-3.36231V36.899h-.99511V32.22709h1.39453l1.13379,2.91406,1.13476-2.91406h1.40137V36.899h-1.002Z"/><path class="cls-2" d="M320.66565,36.54838a1.40079,1.40079,0,0,1-1.07226.43457,1.12653,1.12653,0,0,1-1.17579-1.12109,1.07057,1.07057,0,0,1,1.17579-1.07813,1.36838,1.36838,0,0,1,1.07226.41309v-.46973c0-.34277-.29492-.5664-.74316-.5664a1.42586,1.42586,0,0,0-.98731.39843l-.33593-.59472a2.21785,2.21785,0,0,1,1.47753-.53223c.77051,0,1.47754.30762,1.47754,1.28125V36.899h-.88867Zm0-.88183a.89112.89112,0,0,0-.71484-.29493c-.34961,0-.63672.18946-.63672.51172,0,.31543.28711.49707.63672.49707a.89049.89049,0,0,0,.71484-.29394Z"/><path class="cls-2" d="M324.88635,34.85405a.54894.54894,0,0,0-.623-.63086.96216.96216,0,0,0-.77051.39941V36.899h-.88965V33.51615h.88965v.44141a1.54559,1.54559,0,0,1,1.18359-.52539A.9838.9838,0,0,1,325.776,34.5103V36.899h-.88965Z"/><path class="cls-2" d="M328.86585,36.54838a1.40082,1.40082,0,0,1-1.07227.43457,1.12733,1.12733,0,0,1-1.17676-1.12109,1.07134,1.07134,0,0,1,1.17676-1.07813,1.3684,1.3684,0,0,1,1.07227.41309v-.46973c0-.34277-.29493-.5664-.74317-.5664a1.42583,1.42583,0,0,0-.9873.39843l-.33594-.59472a2.21787,2.21787,0,0,1,1.47754-.53223c.77051,0,1.47852.30762,1.47852,1.28125V36.899h-.88965Zm0-.88183a.89114.89114,0,0,0-.71485-.29493c-.34961,0-.63769.18946-.63769.51172,0,.31543.28808.49707.63769.49707a.89051.89051,0,0,0,.71485-.29394Z"/><path class="cls-2" d="M331.15393,37.1226a1.34277,1.34277,0,0,0,1.05762.4209.82735.82735,0,0,0,.93164-.85449v-.34375a1.31953,1.31953,0,0,1-1.04394.53222c-.84766,0-1.49219-.59472-1.49219-1.72265a1.51352,1.51352,0,0,1,1.49219-1.72266,1.30435,1.30435,0,0,1,1.04394.51758v-.4336h.89648v3.15137c0,1.28906-.99511,1.60352-1.82812,1.60352a2.03933,2.03933,0,0,1-1.457-.50391Zm1.98926-2.51367a.96489.96489,0,0,0-.76367-.38574.93512.93512,0,0,0,0,1.86328.98506.98506,0,0,0,.76367-.38574Z"/><path class="cls-2" d="M336.64319,33.43217a1.696,1.696,0,0,1,1.69531,1.86231v.19628h-2.51465a.91157.91157,0,0,0,.97364.78418,1.38238,1.38238,0,0,0,.90332-.33593l.39258.57422a2.08242,2.08242,0,0,1-1.39356.46972,1.77562,1.77562,0,1,1-.05664-3.55078Zm-.833,1.45606h1.667a.7843.7843,0,0,0-.834-.749A.81277.81277,0,0,0,335.81018,34.88823Z"/><path class="cls-2" d="M343.36585,34.76225c0-.31445-.14063-.53906-.50489-.53906a.89759.89759,0,0,0-.70019.39257V36.899h-.89649V34.76225c0-.31445-.13964-.53906-.5039-.53906a.90559.90559,0,0,0-.7002.39941V36.899h-.88965V33.51615h.88965v.44141a1.478,1.478,0,0,1,1.10645-.52539.89452.89452,0,0,1,.93847.61621,1.43468,1.43468,0,0,1,1.16211-.61621.90307.90307,0,0,1,.99512,1.02246V36.899h-.89648Z"/><path class="cls-2" d="M346.85706,33.43217a1.696,1.696,0,0,1,1.69531,1.86231v.19628h-2.51465a.91156.91156,0,0,0,.97363.78418,1.38236,1.38236,0,0,0,.90332-.33593l.39258.57422a2.08238,2.08238,0,0,1-1.39355.46972,1.77562,1.77562,0,1,1-.05664-3.55078Zm-.833,1.45606h1.667a.78431.78431,0,0,0-.834-.749A.81277.81277,0,0,0,346.02405,34.88823Z"/><path class="cls-2" d="M351.6676,34.85405a.54894.54894,0,0,0-.623-.63086.96216.96216,0,0,0-.77051.39941V36.899h-.88965V33.51615h.88965v.44141a1.54559,1.54559,0,0,1,1.18359-.52539.9838.9838,0,0,1,1.09961,1.07813V36.899h-.88965Z"/><path class="cls-2" d="M353.79163,36.05815V34.2935h-.56055v-.77735h.56055v-.9248h.89648v.9248h.68653v.77735h-.68653v1.52637c0,.21.11231.37109.3086.37109a.48553.48553,0,0,0,.30761-.09766l.18946.67188a1.09645,1.09645,0,0,1-.74219.21777A.84562.84562,0,0,1,353.79163,36.05815Z"/><path class="cls-2" d="M286.58509,42.19682a4.87833,4.87833,0,0,1,1.10693-3.0957l.55957.41992a5.10075,5.10075,0,0,0-.707,2.67578,5.0125,5.0125,0,0,0,.707,2.66113l-.55957.43457A4.86415,4.86415,0,0,1,286.58509,42.19682Z"/><path class="cls-2" d="M289.02893,39.22709h.99512V43.899h-.99512Z"/><path class="cls-2" d="M293.41175,41.85405a.549.549,0,0,0-.623-.63086.96216.96216,0,0,0-.77051.39941V43.899h-.88965V40.51615h.88965v.44141a1.54559,1.54559,0,0,1,1.18359-.52539.9838.9838,0,0,1,1.09961,1.07813V43.899h-.88964Z"/><path class="cls-2" d="M295.4635,42.83451a1.93909,1.93909,0,0,0,1.16992.46192c.38477,0,.56739-.13281.56739-.34278,0-.23828-.29492-.32226-.67969-.39941-.58105-.1123-1.33105-.252-1.33105-1.05762,0-.56738.498-1.06445,1.38671-1.06445a2.12471,2.12471,0,0,1,1.35938.46191l-.35059.60938a1.42749,1.42749,0,0,0-1.001-.39258c-.32227,0-.53223.11914-.53223.31543,0,.21.26563.28711.64355.36426.582.1123,1.35938.2666,1.35938,1.10644,0,.623-.52539,1.08594-1.46387,1.08594a2.27482,2.27482,0,0,1-1.51269-.52539Z"/><path class="cls-2" d="M298.79553,39.48588a.53223.53223,0,1,1,.53223.5332A.53666.53666,0,0,1,298.79553,39.48588Zm.09082,1.03027h.88965V43.899h-.88965Z"/><path class="cls-2" d="M303.17053,43.47123a1.32891,1.32891,0,0,1-1.04394.51172c-.85449,0-1.49805-.64453-1.49805-1.77246,0-1.10644.63672-1.77832,1.49805-1.77832a1.30435,1.30435,0,0,1,1.04394.51758V39.22709h.89649V43.899h-.89649Zm0-1.8623a.97829.97829,0,0,0-.7705-.38574.99368.99368,0,0,0,0,1.96777.9803.9803,0,0,0,.7705-.38477Z"/><path class="cls-2" d="M306.66858,40.43217a1.696,1.696,0,0,1,1.69531,1.86231v.19628h-2.51464a.91156.91156,0,0,0,.97363.78418,1.38238,1.38238,0,0,0,.90332-.33593l.39258.57422a2.08242,2.08242,0,0,1-1.39356.46972,1.77562,1.77562,0,1,1-.05664-3.55078Zm-.833,1.45606h1.667a.78432.78432,0,0,0-.834-.749A.81278.81278,0,0,0,305.83557,41.88823Z"/><path class="cls-2" d="M310.735,41.56694a2.36439,2.36439,0,0,1,2.45117-2.417,2.15643,2.15643,0,0,1,1.98926,1.14161l-.8545.42089a1.27847,1.27847,0,0,0-1.13476-.67968,1.53755,1.53755,0,0,0,0,3.06738,1.26575,1.26575,0,0,0,1.13476-.67969l.8545.41406a2.16877,2.16877,0,0,1-1.98926,1.14844A2.36416,2.36416,0,0,1,310.735,41.56694Z"/><path class="cls-2" d="M318.18909,41.8394c0-.46875-.24512-.61621-.62988-.61621a.98359.98359,0,0,0-.77051.39941V43.899h-.88965V39.22709h.88965v1.73047a1.56153,1.56153,0,0,1,1.19043-.52539.97411.97411,0,0,1,1.09961,1.06445V43.899h-.88965Z"/><path class="cls-2" d="M322.16956,43.54838a1.40082,1.40082,0,0,1-1.07227.43457,1.12652,1.12652,0,0,1-1.17578-1.12109,1.07056,1.07056,0,0,1,1.17578-1.07813,1.3684,1.3684,0,0,1,1.07227.41309v-.46973c0-.34277-.29492-.5664-.74317-.5664a1.42583,1.42583,0,0,0-.9873.39843l-.33594-.59472a2.21787,2.21787,0,0,1,1.47754-.53223c.77051,0,1.47754.30762,1.47754,1.28125V43.899h-.88867Zm0-.88183a.89114.89114,0,0,0-.71485-.29493c-.34961,0-.63671.18946-.63671.51172,0,.31543.2871.49707.63671.49707a.89051.89051,0,0,0,.71485-.29394Z"/><path class="cls-2" d="M324.20862,42.83451a1.93907,1.93907,0,0,0,1.16992.46192c.38477,0,.56738-.13281.56738-.34278,0-.23828-.29492-.32226-.67968-.39941-.58106-.1123-1.33106-.252-1.33106-1.05762,0-.56738.498-1.06445,1.38672-1.06445a2.12473,2.12473,0,0,1,1.35938.46191l-.35059.60938a1.42749,1.42749,0,0,0-1.001-.39258c-.32226,0-.5332.11914-.5332.31543,0,.21.2666.28711.64453.36426.582.1123,1.35938.2666,1.35938,1.10644,0,.623-.52539,1.08594-1.46387,1.08594a2.27485,2.27485,0,0,1-1.5127-.52539Z"/><path class="cls-2" d="M327.73987,42.83451a1.93907,1.93907,0,0,0,1.16992.46192c.38477,0,.56738-.13281.56738-.34278,0-.23828-.29492-.32226-.67968-.39941-.58106-.1123-1.33106-.252-1.33106-1.05762,0-.56738.498-1.06445,1.38672-1.06445a2.12473,2.12473,0,0,1,1.35938.46191l-.35059.60938a1.42749,1.42749,0,0,0-1.001-.39258c-.32226,0-.5332.11914-.5332.31543,0,.21.2666.28711.64453.36426.582.1123,1.35938.2666,1.35938,1.10644,0,.623-.52539,1.08594-1.46387,1.08594a2.27485,2.27485,0,0,1-1.5127-.52539Z"/><path class="cls-2" d="M331.07288,39.48588a.53223.53223,0,1,1,.53222.5332A.53666.53666,0,0,1,331.07288,39.48588Zm.09082,1.03027h.88965V43.899h-.88965Z"/><path class="cls-2" d="M333.22229,42.83451a1.93909,1.93909,0,0,0,1.16992.46192c.38477,0,.56739-.13281.56739-.34278,0-.23828-.29493-.32226-.67969-.39941-.58106-.1123-1.33106-.252-1.33106-1.05762,0-.56738.49805-1.06445,1.38672-1.06445a2.12471,2.12471,0,0,1,1.35938.46191l-.35059.60938a1.42749,1.42749,0,0,0-1.001-.39258c-.32227,0-.53321.11914-.53321.31543,0,.21.2666.28711.64453.36426.582.1123,1.35938.2666,1.35938,1.10644,0,.623-.52539,1.08594-1.46387,1.08594a2.2748,2.2748,0,0,1-1.51269-.52539Z"/><path class="cls-2" d="M336.18323,39.521l.56055-.41992a4.83792,4.83792,0,0,1,0,6.1914l-.56055-.43457a4.9474,4.9474,0,0,0,.71387-2.66113A5.03408,5.03408,0,0,0,336.18323,39.521Z"/><rect class="cls-3" x="220.51629" y="89.65235" width="162.98019" height="93.05873"/><line class="cls-1" x1="335.14537" y1="124.19388" x2="315.08927" y2="124.19388"/><line class="cls-1" x1="140.05936" y1="202.76551" x2="140.05936" y2="49.58587"/><line class="cls-1" x1="249.26107" y1="109.47096" x2="249.26107" y2="49.58588"/><rect class="cls-4" x="106.43099" y="110.43592" width="67.25674" height="37.78956"/><path class="cls-5" d="M125.42688,120.837v-.28028h1.54883v.43994a.73524.73524,0,0,0,.82959.7295.677.677,0,0,0,.71973-.68946c0-1.26953-2.96827-.96972-2.96827-3.26806a1.99764,1.99764,0,0,1,2.21875-2.07911,1.94051,1.94051,0,0,1,2.2085,1.98877v.44h-1.54883v-.53956c0-.31-.2998-.48974-.66992-.48974a.58472.58472,0,0,0-.64941.59961c0,1.01953,2.96826.78955,2.96826,3.208a2.10122,2.10122,0,0,1-2.3086,2.189A2.15258,2.15258,0,0,1,125.42688,120.837Z"/><path class="cls-5" d="M134.80725,117.83842v5.707a1.76521,1.76521,0,0,1-1.939,1.83887,1.72686,1.72686,0,0,1-1.9292-1.71924h1.49951a.37786.37786,0,0,0,.40967.37012.42428.42428,0,0,0,.45947-.41992v-.7295a1.637,1.637,0,0,1-.79932.19971c-.97949,0-1.59912-.64941-1.59912-1.999v-3.24805h1.499v3.28809c0,.38964.1499.60986.42968.60986a.471.471,0,0,0,.46973-.48v-3.418Z"/><path class="cls-5" d="M135.58264,121.40629v-.11963h1.45948v.11963a.40807.40807,0,0,0,.4497.35986c.25,0,.39991-.11962.39991-.30957,0-.61962-2.19922-.33007-2.19922-2.08886a1.81176,1.81176,0,0,1,3.6084-.06006v.1001h-1.45948v-.1001a.32.32,0,0,0-.34961-.29981c-.21972,0-.33984.11963-.33984.26954,0,.60009,2.2085.35986,2.2085,2.1289a1.70443,1.70443,0,0,1-1.88868,1.6792A1.72217,1.72217,0,0,1,135.58264,121.40629Z"/><path class="cls-5" d="M143.05188,121.58647v1.34912h-.91943c-1.06934,0-1.55908-.60986-1.55908-1.96875v-1.7793h-.66993v-1.34912h.66993v-1.4292h1.499v1.4292h.94971v1.34912h-.94971v1.519c0,.58985.18994.87989.55957.87989Z"/><path class="cls-5" d="M147.6803,119.58744v1.23926h-2.44873v.44971c0,.42969.22021.60986.5.60986a.43575.43575,0,0,0,.44971-.42969v-.14013h1.499a1.75066,1.75066,0,0,1-1.959,1.769,1.86313,1.86313,0,0,1-1.98877-2.00879v-1.39941a1.84986,1.84986,0,0,1,1.979-1.98877A1.82882,1.82882,0,0,1,147.6803,119.58744Zm-1.50928.21v-.37988c0-.35986-.16992-.52978-.4497-.52978-.29981,0-.48975.20019-.48975.59961v.31Z"/><path class="cls-5" d="M154.66809,119.67729v3.2583h-1.499v-3.31836c0-.36963-.16016-.57959-.40967-.57959a.43459.43459,0,0,0-.3999.48975v3.4082h-1.499v-3.31836c0-.36963-.16016-.57959-.41016-.57959a.42713.42713,0,0,0-.39941.46973v3.42822h-1.49952v-5.09717h.90967l.23.27979a1.7055,1.7055,0,0,1,1.10938-.42969,1.46179,1.46179,0,0,1,1.15918.46972,1.67049,1.67049,0,0,1,1.14941-.46972C154.0885,117.68852,154.66809,118.33793,154.66809,119.67729Z"/><path class="cls-5" d="M116.77307,133.06645v-3.35791a2.36986,2.36986,0,0,1,4.6875,0v.88965h-1.56933v-.90967c0-.35987-.25977-.59961-.76953-.59961-.52979,0-.79932.23974-.79932.59961v3.39795c0,.35986.26953.59961.78955.59961.51953,0,.7793-.23975.7793-.59961v-.90918h1.56933v.88916a2.36986,2.36986,0,0,1-4.6875,0Z"/><path class="cls-5" d="M122.28089,133.08647v-1.40918a1.999,1.999,0,0,1,3.998,0v1.40918a1.999,1.999,0,0,1-3.998,0Zm2.49853.07031v-1.54932c0-.37988-.18994-.56982-.49951-.56982-.31006,0-.5.18994-.5.56982v1.54932c0,.38965.18994.57959.48975.57959C124.57971,133.73637,124.77942,133.54643,124.77942,133.15678Z"/><path class="cls-5" d="M131.12659,131.67729v3.2583h-1.499V131.6475c0-.38965-.18995-.60986-.48975-.60986a.47249.47249,0,0,0-.48975.46973v3.42822h-1.49951v-5.09717h.90967l.23975.29a1.80926,1.80926,0,0,1,1.18945-.43994C130.49671,129.68852,131.12659,130.33793,131.12659,131.67729Z"/><path class="cls-5" d="M134.91419,133.58647v1.34912h-.91944c-1.06933,0-1.55908-.60986-1.55908-1.96875v-1.7793h-.66992v-1.34912h.66992v-1.4292h1.499v1.4292h.94971v1.34912h-.94971v1.519c0,.58985.19.87989.55957.87989Z"/><path class="cls-5" d="M138.43567,129.74858v1.28906a1.0605,1.0605,0,0,0-.37988-.06982.86733.86733,0,0,0-.86914.90966v3.05811h-1.49951v-5.09717h.98974l.25977.36963a2.164,2.164,0,0,1,1.29931-.46973A1.24077,1.24077,0,0,1,138.43567,129.74858Z"/><path class="cls-5" d="M139.09778,133.08647v-1.40918a1.99905,1.99905,0,0,1,3.99805,0v1.40918a1.999,1.999,0,0,1-3.99805,0Zm2.49854.07031v-1.54932c0-.37988-.18995-.56982-.49952-.56982-.31,0-.5.18994-.5.56982v1.54932c0,.38965.19.57959.48975.57959C141.39661,133.73637,141.59632,133.54643,141.59632,133.15678Z"/><path class="cls-5" d="M145.49475,127.23979v7.6958h-1.499v-7.6958Z"/><path class="cls-5" d="M147.983,127.23979v7.6958h-1.499v-7.6958Z"/><path class="cls-5" d="M152.82434,131.58744v1.23926h-2.44873v.44971c0,.42969.22022.60986.5.60986a.43575.43575,0,0,0,.44971-.42969v-.14013h1.499a1.75066,1.75066,0,0,1-1.959,1.769,1.86313,1.86313,0,0,1-1.98877-2.00879v-1.39941a1.84986,1.84986,0,0,1,1.979-1.98877A1.82882,1.82882,0,0,1,152.82434,131.58744Zm-1.50927.21v-.37988c0-.35986-.16993-.52978-.44971-.52978-.29981,0-.48975.20019-.48975.59961v.31005Z"/><path class="cls-5" d="M156.44348,129.74858v1.28906a1.0605,1.0605,0,0,0-.37988-.06982.86733.86733,0,0,0-.86914.90966v3.05811H153.695v-5.09717h.98974l.25977.36963a2.164,2.164,0,0,1,1.29932-.46973A1.24071,1.24071,0,0,1,156.44348,129.74858Z"/><path class="cls-5" d="M160.8346,133.53617h2.52832v1.39942h-4.19776v-.77979c0-2.06884,2.71875-3.03808,2.71875-4.37744v-.19971a.48468.48468,0,0,0-.5498-.48974c-.32959,0-.55957.25-.55957.69971v.37939h-1.54932v-.30957a2.05823,2.05823,0,0,1,2.10889-2.16895,1.95555,1.95555,0,0,1,2.09863,1.9292v.24952C163.43274,131.85746,161.02454,132.54692,160.8346,133.53617Z"/><line class="cls-1" x1="295.43686" y1="109.47096" x2="295.43686" y2="49.58588"/><line class="cls-6" x1="249.26106" y1="201.68095" x2="249.26106" y2="174.43974"/><polygon class="cls-2" points="253.351 198.367 252.618 197.685 249.262 201.297 245.905 197.685 245.172 198.367 249.262 202.765 253.351 198.367"/><line class="cls-6" x1="295.43686" y1="201.68095" x2="295.43686" y2="174.43974"/><polygon class="cls-2" points="299.527 198.367 298.794 197.685 295.438 201.297 292.08 197.685 291.348 198.367 295.438 202.765 299.527 198.367"/><path d="M131.983,140.29936l-.7705.791-.56739-.59472,1.47071-1.47754h.86816v4.6709h-1.001Z"/><path d="M134.61292,142.63139a.56738.56738,0,1,1-.56739.56738A.57424.57424,0,0,1,134.61292,142.63139Z"/><path d="M136.75061,140.29936l-.77051.791-.56738-.59472,1.4707-1.47754h.86817v4.6709h-1.001Z"/><path d="M139.3805,142.63139a.56738.56738,0,1,1-.56739.56738A.57424.57424,0,0,1,139.3805,142.63139Z"/><path d="M141.51819,140.29936l-.77051.791-.56738-.59472,1.4707-1.47754h.86817v4.6709h-1.001Z"/><path d="M144.14807,142.63139a.56738.56738,0,1,1-.56738.56738A.57424.57424,0,0,1,144.14807,142.63139Z"/><path d="M145.67835,142.90483c1.91211-1.40821,2.47265-1.89063,2.47265-2.46582,0-.40528-.37109-.6084-.76367-.6084a1.667,1.667,0,0,0-1.24707.53906l-.56641-.6582a2.37886,2.37886,0,0,1,1.79981-.76367,1.586,1.586,0,0,1,1.78613,1.49121c0,.79882-.65918,1.49218-1.91211,2.375H149.194v.875h-3.51562Z"/><line class="cls-1" x1="66.50421" y1="202.76551" x2="66.50421" y2="49.58587"/><rect class="cls-4" x="32.87583" y="110.43592" width="67.25674" height="37.78956"/><path class="cls-5" d="M51.87219,120.837v-.28028H53.421v.43994a.73484.73484,0,0,0,.8291.7295.677.677,0,0,0,.71973-.68946c0-1.26953-2.96777-.96972-2.96777-3.26806a1.99763,1.99763,0,0,1,2.21875-2.07911,1.94011,1.94011,0,0,1,2.208,1.98877v.44H54.88v-.53956c0-.31-.29981-.48974-.66992-.48974a.58473.58473,0,0,0-.64942.59961c0,1.01953,2.96875.78955,2.96875,3.208a2.10121,2.10121,0,0,1-2.30859,2.189A2.15258,2.15258,0,0,1,51.87219,120.837Z"/><path class="cls-5" d="M61.25208,117.83842v5.707a1.76506,1.76506,0,0,1-1.93848,1.83887,1.72728,1.72728,0,0,1-1.92969-1.71924h1.5a.37771.37771,0,0,0,.40918.37012.42468.42468,0,0,0,.46-.41992v-.7295a1.63881,1.63881,0,0,1-.7998.19971c-.97949,0-1.59863-.64941-1.59863-1.999v-3.24805h1.499v3.28809c0,.38964.14941.60986.42969.60986a.47134.47134,0,0,0,.46972-.48v-3.418Z"/><path class="cls-5" d="M62.02747,121.40629v-.11963h1.46v.11963a.40761.40761,0,0,0,.44922.35986c.25,0,.40039-.11962.40039-.30957,0-.61962-2.19922-.33007-2.19922-2.08886a1.81176,1.81176,0,0,1,3.6084-.06006v.1001h-1.46v-.1001a.31969.31969,0,0,0-.34961-.29981c-.21973,0-.33985.11963-.33985.26954,0,.60009,2.209.35986,2.209,2.1289a1.70442,1.70442,0,0,1-1.88867,1.6792A1.72234,1.72234,0,0,1,62.02747,121.40629Z"/><path class="cls-5" d="M69.49719,121.58647v1.34912h-.91992c-1.06933,0-1.55859-.60986-1.55859-1.96875v-1.7793h-.66992v-1.34912h.66992v-1.4292h1.499v1.4292h.94922v1.34912H68.5177v1.519c0,.58985.18946.87989.55957.87989Z"/><path class="cls-5" d="M74.12512,119.58744v1.23926H71.67688v.44971c0,.42969.21973.60986.5.60986a.43534.43534,0,0,0,.44922-.42969v-.14013h1.499a1.75066,1.75066,0,0,1-1.959,1.769,1.863,1.863,0,0,1-1.98828-2.00879v-1.39941a1.84972,1.84972,0,0,1,1.97851-1.98877A1.82882,1.82882,0,0,1,74.12512,119.58744Zm-1.50878.21v-.37988c0-.35986-.16993-.52978-.4502-.52978-.2998,0-.48926.20019-.48926.59961v.31Z"/><path class="cls-5" d="M81.11341,119.67729v3.2583h-1.499v-3.31836c0-.36963-.16015-.57959-.41015-.57959a.43427.43427,0,0,0-.39942.48975v3.4082h-1.499v-3.31836c0-.36963-.16016-.57959-.41016-.57959a.42684.42684,0,0,0-.39941.46973v3.42822h-1.5v-5.09717h.91015l.2295.27979a1.70641,1.70641,0,0,1,1.10937-.42969,1.46041,1.46041,0,0,1,1.15918.46972,1.67053,1.67053,0,0,1,1.14942-.46972C80.53333,117.68852,81.11341,118.33793,81.11341,119.67729Z"/><path class="cls-5" d="M43.76282,133.06645v-3.35791a2.07786,2.07786,0,0,1,2.33887-2.019,2.08651,2.08651,0,0,1,2.34863,2.019v.88965H46.881v-.90967c0-.35987-.25976-.59961-.76953-.59961-.52929,0-.79883.23974-.79883.59961v3.39795c0,.35986.26954.59961.78907.59961s.77929-.23975.77929-.59961v-.90918h1.56934v.88916a2.07735,2.07735,0,0,1-2.33887,2.019A2.08651,2.08651,0,0,1,43.76282,133.06645Z"/><path class="cls-5" d="M49.27063,133.08647v-1.40918a1.99905,1.99905,0,0,1,3.99805,0v1.40918a1.999,1.999,0,0,1-3.99805,0Zm2.499.07031v-1.54932c0-.37988-.19043-.56982-.5-.56982s-.5.18994-.5.56982v1.54932c0,.38965.19043.57959.49023.57959C51.56946,133.73637,51.76966,133.54643,51.76966,133.15678Z"/><path class="cls-5" d="M58.11634,131.67729v3.2583h-1.499V131.6475c0-.38965-.18945-.60986-.48926-.60986a.47289.47289,0,0,0-.49023.46973v3.42822h-1.499v-5.09717H55.048l.24023.29a1.80836,1.80836,0,0,1,1.18945-.43994C57.48645,129.68852,58.11634,130.33793,58.11634,131.67729Z"/><path class="cls-5" d="M61.90442,133.58647v1.34912H60.9845c-1.06934,0-1.55859-.60986-1.55859-1.96875v-1.7793H58.756v-1.34912h.66993v-1.4292h1.499v1.4292h.94922v1.34912h-.94922v1.519c0,.58985.18945.87989.55957.87989Z"/><path class="cls-5" d="M65.42591,129.74858v1.28906a1.06059,1.06059,0,0,0-.37989-.06982.86733.86733,0,0,0-.86914.90966v3.05811h-1.5v-5.09717h.99024l.25976.36963a2.16267,2.16267,0,0,1,1.29883-.46973A1.247,1.247,0,0,1,65.42591,129.74858Z"/><path class="cls-5" d="M66.088,133.08647v-1.40918a1.99905,1.99905,0,0,1,3.99805,0v1.40918a1.999,1.999,0,0,1-3.99805,0Zm2.49805.07031v-1.54932c0-.37988-.18945-.56982-.499-.56982-.31055,0-.5.18994-.5.56982v1.54932c0,.38965.18945.57959.48926.57959C68.38684,133.73637,68.58606,133.54643,68.58606,133.15678Z"/><path class="cls-5" d="M72.4845,127.23979v7.6958h-1.499v-7.6958Z"/><path class="cls-5" d="M74.97278,127.23979v7.6958h-1.499v-7.6958Z"/><path class="cls-5" d="M79.81458,131.58744v1.23926H77.36536v.44971c0,.42969.2207.60986.5.60986a.43615.43615,0,0,0,.45019-.42969v-.14013h1.499a1.75067,1.75067,0,0,1-1.959,1.769,1.86325,1.86325,0,0,1-1.98925-2.00879v-1.39941a1.85,1.85,0,0,1,1.97949-1.98877A1.82882,1.82882,0,0,1,79.81458,131.58744Zm-1.50977.21v-.37988c0-.35986-.16992-.52978-.44922-.52978-.2998,0-.49023.20019-.49023.59961v.31005Z"/><path class="cls-5" d="M83.43372,129.74858v1.28906a1.06054,1.06054,0,0,0-.37988-.06982.86733.86733,0,0,0-.86915.90966v3.05811h-1.5v-5.09717h.99024l.25976.36963a2.16267,2.16267,0,0,1,1.29883-.46973A1.247,1.247,0,0,1,83.43372,129.74858Z"/><path class="cls-5" d="M89.39368,133.53617v1.39942H86.09583v-1.39942h.8789v-4.29736h-.8789V127.8394h2.42773v5.69677Z"/><path d="M59.32923,140.29936l-.77051.791-.56738-.59472,1.4707-1.47754h.86816v4.6709h-1.001Z"/><path d="M61.95911,142.63139a.56738.56738,0,1,1-.56738.56738A.57424.57424,0,0,1,61.95911,142.63139Z"/><path d="M64.0968,140.29936l-.7705.791-.56739-.59472,1.47071-1.47754h.86816v4.6709h-1.001Z"/><path d="M66.72669,142.63139a.56738.56738,0,1,1-.56739.56738A.57424.57424,0,0,1,66.72669,142.63139Z"/><path d="M68.86438,140.29936l-.77051.791-.56738-.59472,1.4707-1.47754h.86817v4.6709h-1.001Z"/><path d="M71.49426,142.63139a.56738.56738,0,1,1-.56738.56738A.57424.57424,0,0,1,71.49426,142.63139Z"/><path d="M73.632,140.29936l-.77051.791-.56738-.59472,1.4707-1.47754h.86817v4.6709H73.632Z"/><path class="cls-7" d="M85.96448,159.2349h3.30566v.8545h-2.311v1.01465h2.26221v.85449H86.95911v1.94726h-.99463Z"/><path class="cls-7" d="M90.05188,159.2349H90.941v4.6709h-.88916Z"/><path class="cls-7" d="M91.78528,162.21147a1.78959,1.78959,0,1,1,1.78613,1.77832A1.71352,1.71352,0,0,1,91.78528,162.21147Zm2.6543,0a.87257.87257,0,1,0-.86817.9873A.8926.8926,0,0,0,94.43958,162.21147Z"/><path class="cls-7" d="M98.24036,163.55619a1.40147,1.40147,0,0,1-1.07129.4336,1.12685,1.12685,0,0,1-1.17676-1.12012,1.07131,1.07131,0,0,1,1.17676-1.0791,1.36884,1.36884,0,0,1,1.07129.41308v-.46875c0-.34277-.29395-.56738-.74219-.56738a1.42277,1.42277,0,0,0-.98779.39942l-.33594-.59571A2.21791,2.21791,0,0,1,97.652,160.439c.77051,0,1.478.30859,1.478,1.28222v2.18457h-.88965Zm0-.88281a.88881.88881,0,0,0-.71436-.29394c-.35009,0-.6372.18847-.6372.51074,0,.31543.28711.49805.6372.49805a.88943.88943,0,0,0,.71436-.29493Z"/><path class="cls-7" d="M100.35217,163.066v-1.76563h-.56005V160.523h.56005v-.92383h.89649v.92383h.68652v.77734h-.68652v1.52735c0,.21.1123.37109.3081.37109a.48274.48274,0,0,0,.3086-.09863l.189.67285a1.09839,1.09839,0,0,1-.74267.2168A.84541.84541,0,0,1,100.35217,163.066Z"/><path class="cls-7" d="M102.67346,159.49369a.53223.53223,0,1,1,.53223.53223A.53665.53665,0,0,1,102.67346,159.49369Zm.09131,1.0293h.88916v3.38281h-.88916Z"/><path class="cls-7" d="M106.99182,161.86088a.54878.54878,0,0,0-.62353-.62988.96369.96369,0,0,0-.77051.39844v2.27636h-.88916V160.523h.88916v.44141a1.55051,1.55051,0,0,1,1.18359-.52539.98385.98385,0,0,1,1.09961,1.0791v2.38769h-.88916Z"/><path class="cls-7" d="M109.27991,164.13041a1.3453,1.3453,0,0,0,1.05762.41992.82677.82677,0,0,0,.93115-.85449v-.34277a1.31718,1.31718,0,0,1-1.04346.53223c-.84717,0-1.4917-.59571-1.4917-1.72364a1.51318,1.51318,0,0,1,1.4917-1.72265,1.301,1.301,0,0,1,1.04346.51855V160.523h.89648v3.15234c0,1.28809-.99414,1.60352-1.82763,1.60352a2.03931,2.03931,0,0,1-1.457-.50391Zm1.98877-2.51465a.96516.96516,0,0,0-.76318-.38476.93459.93459,0,0,0,0,1.8623.98541.98541,0,0,0,.76318-.38476Z"/><path class="cls-7" d="M114.99866,159.2349h.99463v4.6709h-.99463Z"/><path class="cls-7" d="M117.15589,159.2349h2.18505a1.50012,1.50012,0,1,1,0,2.99708h-1.19043v1.67382h-.99462Zm2.05175.8545h-1.05713v1.28808h1.05713a.64535.64535,0,1,0,0-1.28808Z"/><path class="cls-7" d="M95.24378,167.51615l-.77.791-.56739-.59473,1.47071-1.47754h.86865v4.6709H95.24378Z"/><path class="cls-7" d="M97.87415,169.84819a.56738.56738,0,1,1-.56739.56738A.57457.57457,0,0,1,97.87415,169.84819Z"/><path class="cls-7" d="M100.01135,167.51615l-.77.791-.56739-.59473,1.47071-1.47754h.86865v4.6709h-1.002Z"/><path class="cls-7" d="M102.64173,169.84819a.56738.56738,0,1,1-.56739.56738A.57457.57457,0,0,1,102.64173,169.84819Z"/><path class="cls-7" d="M104.77893,167.51615l-.77.791-.56738-.59473,1.4707-1.47754h.86866v4.6709h-1.002Z"/><path class="cls-7" d="M107.40979,169.84819a.56738.56738,0,1,1-.56738.56738A.57456.57456,0,0,1,107.40979,169.84819Z"/><path class="cls-7" d="M109.28333,169.5894a1.86173,1.86173,0,0,0,1.28906.53222c.56689,0,.88232-.24511.88232-.60254,0-.37793-.28711-.55273-.93847-.55273-.19629,0-.51123,0-.58155.00684v-.86914c.084.00781.39942.00781.58155.00781.51806,0,.86133-.168.86133-.51856,0-.37109-.37793-.56054-.86866-.56054a1.69039,1.69039,0,0,0-1.19043.49023l-.49023-.61621a2.30083,2.30083,0,0,1,1.78613-.74219c1.09229,0,1.76465.49024,1.76465,1.26758a1.14561,1.14561,0,0,1-1.02246,1.06445,1.17218,1.17218,0,0,1,1.09277,1.1211c0,.80468-.72168,1.37207-1.84228,1.37207a2.33524,2.33524,0,0,1-1.8418-.749Z"/><polyline class="cls-8" points="146.588 176.116 148.088 176.116 148.088 174.616"/><line class="cls-9" x1="148.08786" y1="171.97734" x2="148.08786" y2="157.4622"/><polyline class="cls-8" points="148.088 156.143 148.088 154.643 146.588 154.643"/><line class="cls-10" x1="143.59726" y1="154.64262" x2="61.3558" y2="154.64262"/><polyline class="cls-8" points="59.861 154.643 58.361 154.643 58.361 156.143"/><line class="cls-9" x1="58.3605" y1="158.78178" x2="58.3605" y2="173.29692"/><polyline class="cls-8" points="58.361 174.616 58.361 176.116 59.861 176.116"/><line class="cls-10" x1="62.8511" y1="176.1165" x2="145.09256" y2="176.1165"/><rect x="258.83301" y="80.65235" width="86.34676" height="18"/><path class="cls-5" d="M265.04114,91.28373v-3.3584a2.36994,2.36994,0,0,1,4.6875,0V88.815H268.1593V87.9058c0-.36035-.25976-.59961-.76953-.59961-.52978,0-.79931.23926-.79931.59961v3.39746c0,.36036.26953.59961.78955.59961.51953,0,.77929-.23925.77929-.59961v-.90918h1.56934v.88965a2.36994,2.36994,0,0,1-4.6875,0Z"/><path class="cls-5" d="M274.59192,89.89408v3.25879h-1.499V89.87455c0-.38965-.21-.59961-.5-.59961a.45861.45861,0,0,0-.47949.46973v3.4082h-1.49952V85.45658h1.49952V88.105a1.91815,1.91815,0,0,1,.83935-.19922C273.962,87.9058,274.59192,88.55522,274.59192,89.89408Z"/><path class="cls-5" d="M279.4552,88.05522v5.09765h-.98926l-.18994-.2705a1.8047,1.8047,0,0,1-1.16943.41992c-1.0293,0-1.65918-.63965-1.65918-1.94824V89.84428c0-1.29883.62988-1.93848,1.65918-1.93848a1.78027,1.78027,0,0,1,1.16943.40918l.18994-.25976Zm-1.499,3.418v-1.749a.46249.46249,0,0,0-.50977-.46972c-.31982,0-.5.21-.5.58007v1.5293c0,.36914.18018.58984.5.58984A.47577.47577,0,0,0,277.95618,91.47319Z"/><path class="cls-5" d="M280.234,91.62358v-.12012h1.45947v.12012a.40806.40806,0,0,0,.44971.35937c.25,0,.3999-.11914.3999-.30957,0-.61914-2.19922-.33008-2.19922-2.08887a1.81178,1.81178,0,0,1,3.6084-.05957v.09961H282.4928v-.09961a.31966.31966,0,0,0-.34961-.2998c-.21973,0-.33984.11914-.33984.26953,0,.59961,2.20849.35938,2.20849,2.12891a1.70434,1.70434,0,0,1-1.88867,1.67871A1.72182,1.72182,0,0,1,280.234,91.62358Z"/><path class="cls-5" d="M284.693,91.62358v-.12012h1.45947v.12012a.40806.40806,0,0,0,.4497.35937c.25,0,.39991-.11914.39991-.30957,0-.61914-2.19922-.33008-2.19922-2.08887a1.81178,1.81178,0,0,1,3.6084-.05957v.09961h-1.45948v-.09961a.31965.31965,0,0,0-.34961-.2998c-.21972,0-.33984.11914-.33984.26953,0,.59961,2.2085.35938,2.2085,2.12891a1.70434,1.70434,0,0,1-1.88867,1.67871A1.72182,1.72182,0,0,1,284.693,91.62358Z"/><path class="cls-5" d="M289.27551,86.05619h1.499v1.46h-1.499Zm0,1.999h1.499v5.09765h-1.499Z"/><path class="cls-5" d="M291.56848,91.62358v-.12012H293.028v.12012a.40806.40806,0,0,0,.4497.35937c.25,0,.39991-.11914.39991-.30957,0-.61914-2.19922-.33008-2.19922-2.08887a1.81178,1.81178,0,0,1,3.6084-.05957v.09961h-1.45948v-.09961a.31966.31966,0,0,0-.34961-.2998c-.21972,0-.33984.11914-.33984.26953,0,.59961,2.209.35938,2.209,2.12891a1.90235,1.90235,0,0,1-3.77832,0Z"/><path class="cls-5" d="M302.65637,87.99565v.90918a1.9459,1.9459,0,0,1-2.10888,1.94922h-.81934v2.29882h-1.54931V86.05619h2.35888A1.95241,1.95241,0,0,1,302.65637,87.99565Zm-1.54882-.07032a.43856.43856,0,0,0-.46-.46972h-.91944v1.999h.90967a.44331.44331,0,0,0,.46973-.47949Z"/><path class="cls-5" d="M307.39856,88.05522v5.09765h-.98926l-.18994-.2705a1.8047,1.8047,0,0,1-1.16943.41992c-1.0293,0-1.65918-.63965-1.65918-1.94824V89.84428c0-1.29883.62988-1.93848,1.65918-1.93848a1.78027,1.78027,0,0,1,1.16943.40918l.18994-.25976Zm-1.499,3.418v-1.749a.46249.46249,0,0,0-.50977-.46972c-.31982,0-.5.21-.5.58007v1.5293c0,.36914.18018.58984.5.58984A.47577.47577,0,0,0,305.89954,91.47319Z"/><path class="cls-5" d="M311.108,87.96537v1.28907a1.05954,1.05954,0,0,0-.37988-.06934.86691.86691,0,0,0-.86914.90918v3.05859H308.3595V88.05522h.98975l.25976.37011a2.164,2.164,0,0,1,1.29932-.46972A1.3035,1.3035,0,0,1,311.108,87.96537Z"/><path class="cls-5" d="M314.79212,91.80326v1.34961h-.91944c-1.06933,0-1.55908-.61035-1.55908-1.96875V89.40483h-.66992V88.05522h.66992V86.62651h1.499v1.42871h.94971v1.34961h-.94971v1.51855c0,.58985.19.87988.55957.87988Z"/><path class="cls-5" d="M315.58557,86.05619h1.499v1.46h-1.499Zm0,1.999h1.499v5.09765h-1.499Z"/><path class="cls-5" d="M320.9176,91.80326v1.34961h-.91943c-1.06933,0-1.55908-.61035-1.55908-1.96875V89.40483h-.66992V88.05522h.66992V86.62651h1.499v1.42871h.94971v1.34961h-.94971v1.51855c0,.58985.18994.87988.55957.87988Z"/><path class="cls-5" d="M321.71106,86.05619h1.499v1.46h-1.499Zm0,1.999h1.499v5.09765h-1.499Z"/><path class="cls-5" d="M324.10364,91.30326V89.89408a1.99905,1.99905,0,0,1,3.99805,0v1.40918a1.999,1.999,0,1,1-3.99805,0Zm2.49853.07032V89.82475c0-.37988-.18994-.57031-.49951-.57031-.31006,0-.5.19043-.5.57031v1.54883c0,.38965.18994.58007.48975.58007C326.40247,91.95365,326.60217,91.76323,326.60217,91.37358Z"/><path class="cls-5" d="M332.95032,89.89408v3.25879h-1.499V89.86479c0-.39063-.19-.61035-.48975-.61035a.47249.47249,0,0,0-.48975.46972v3.42871h-1.49951V88.05522h.90967l.23975.29a1.81123,1.81123,0,0,1,1.18945-.43946C332.32044,87.9058,332.95032,88.55522,332.95032,89.89408Z"/><path class="cls-5" d="M339.12073,91.75346v1.39941h-3.29785V91.75346h.87939V87.45561h-.87939V86.05619h2.42822v5.69727Z"/><line class="cls-1" x1="335.14537" y1="153.21624" x2="315.08927" y2="153.21624"/><line class="cls-6" x1="335.14537" y1="128.19388" x2="315.08927" y2="128.19388"/><line class="cls-6" x1="335.14537" y1="157.21624" x2="315.08927" y2="157.21624"/><rect class="cls-3" x="335.14537" y="143.12791" width="39.43253" height="24.17667"/><path d="M342.01966,149.81987h-1.36524v-.875H344.38v.875h-1.3584v3.79589h-1.002Z"/><path d="M346.22766,150.149a1.69681,1.69681,0,0,1,1.69532,1.86328v.19629h-2.51465a.91229.91229,0,0,0,.97363.78418,1.38239,1.38239,0,0,0,.90332-.33594l.39258.57422a2.08173,2.08173,0,0,1-1.39356.46875,1.77562,1.77562,0,1,1-.05664-3.55078Zm-.833,1.457h1.667a.78373.78373,0,0,0-.834-.749A.81276.81276,0,0,0,345.39466,151.606Z"/><path d="M351.03821,151.57084a.54864.54864,0,0,0-.623-.62988.96143.96143,0,0,0-.7705.39844v2.27636H348.755v-3.38281h.88965v.44141a1.54883,1.54883,0,0,1,1.18359-.52539.98407.98407,0,0,1,1.09961,1.0791v2.38769h-.88965Z"/><path d="M355.0177,153.26615a1.40363,1.40363,0,0,1-1.07226.4336,1.12712,1.12712,0,0,1-1.17676-1.12012,1.07154,1.07154,0,0,1,1.17676-1.0791,1.3717,1.3717,0,0,1,1.07226.41309v-.46875c0-.34278-.29492-.56739-.74316-.56739a1.42255,1.42255,0,0,0-.98731.39942l-.33593-.59571a2.2179,2.2179,0,0,1,1.47754-.53222c.7705,0,1.47851.30859,1.47851,1.28222v2.18457h-.88965Zm0-.88281a.89049.89049,0,0,0-.71484-.29394c-.34961,0-.6377.18847-.6377.51074,0,.31543.28809.498.6377.498a.89112.89112,0,0,0,.71484-.29493Z"/><path d="M359.23841,151.57084a.54864.54864,0,0,0-.623-.62988.96145.96145,0,0,0-.77051.39844v2.27636h-.88965v-3.38281h.88965v.44141a1.54885,1.54885,0,0,1,1.18359-.52539.98407.98407,0,0,1,1.09961,1.0791v2.38769h-.88964Z"/><path d="M361.36145,152.77592V151.0103h-.56054v-.77735h.56054v-.92383h.89649v.92383h.68652v.77735h-.68652v1.52734c0,.21.1123.37109.30859.37109a.47966.47966,0,0,0,.30762-.09863l.18945.67285a1.09688,1.09688,0,0,1-.74219.2168A.84535.84535,0,0,1,361.36145,152.77592Z"/><path d="M365.37219,152.83158c1.91211-1.4082,2.47266-1.89062,2.47266-2.46582,0-.40527-.3711-.60839-.76367-.60839a1.667,1.667,0,0,0-1.24707.53906l-.56738-.6582a2.38235,2.38235,0,0,1,1.80078-.76368,1.58516,1.58516,0,0,1,1.78515,1.49121c0,.79883-.6582,1.49219-1.91113,2.375h1.94629v.875h-3.51563Z"/><path d="M347.13294,158.17045l-.77051.791-.56738-.59571,1.4707-1.47753h.86816v4.67187h-1.001Z"/><path d="M349.76282,160.50248a.56739.56739,0,1,1-.56738.56739A.5736.5736,0,0,1,349.76282,160.50248Z"/><path d="M351.90051,158.17045l-.7705.791-.56739-.59571,1.47071-1.47753h.86816v4.67187h-1.001Z"/><path d="M354.5304,160.50248a.56739.56739,0,1,1-.56739.56739A.5736.5736,0,0,1,354.5304,160.50248Z"/><path d="M356.66809,158.17045l-.7705.791-.56739-.59571,1.47071-1.47753h.86816v4.67187h-1.001Z"/><path d="M359.298,160.50248a.56739.56739,0,1,1-.56739.56739A.5736.5736,0,0,1,359.298,160.50248Z"/><path d="M362.715,157.7642h-2.35352v-.876h3.50879v.69335l-1.73633,3.97852h-1.09277Z"/><rect class="cls-3" x="275.78453" y="106.00915" width="39.30475" height="68.43057"/><path d="M282.66028,125.64408h3.26758a1.851,1.851,0,0,1,2.05762,1.87012,1.669,1.669,0,0,1-1.2876,1.6836,1.83154,1.83154,0,0,1,1.43017,1.80371,1.91238,1.91238,0,0,1-2.123,1.98047h-3.34473Zm3.11377,3.17969a1.14045,1.14045,0,0,0,1.26514-1.17773,1.15356,1.15356,0,0,0-1.26514-1.18848h-2.2002v2.36621Zm.04395,3.34375a1.21347,1.21347,0,0,0,1.36425-1.26465,1.24693,1.24693,0,0,0-1.36425-1.26562h-2.24415v2.53027Z"/><path d="M289.43665,125.64408h.82519v7.3379h-.82519Z"/><path d="M295.12366,132.37651a2.29707,2.29707,0,0,1-1.76025.7373,1.76883,1.76883,0,0,1-1.85889-1.75976,1.74053,1.74053,0,0,1,1.85889-1.75,2.22142,2.22142,0,0,1,1.76025.72656v-.957c0-.71485-.57178-1.12207-1.34229-1.12207a2.10846,2.10846,0,0,0-1.62793.7373l-.38525-.57226a2.7799,2.7799,0,0,1,2.12354-.87989c1.12207,0,2.05712.50586,2.05712,1.793V132.982h-.82519Zm0-1.51758a1.77771,1.77771,0,0,0-1.46289-.66016,1.16911,1.16911,0,1,0,0,2.32129,1.77771,1.77771,0,0,0,1.46289-.66016Z"/><path d="M301.339,132.19a2.23724,2.23724,0,0,1-1.79346.92383c-1.38623,0-2.36523-1.05566-2.36523-2.7832,0-1.69434.96826-2.794,2.36523-2.794a2.2215,2.2215,0,0,1,1.79346.93457v-2.82715h.8252v7.3379h-.8252Zm0-3.05859a1.99586,1.99586,0,0,0-1.59521-.8584c-1.06739,0-1.70557.88086-1.70557,2.05762s.63818,2.0459,1.70557,2.0459a1.977,1.977,0,0,0,1.59521-.83594Z"/><path d="M306.0138,127.53666a2.58051,2.58051,0,0,1,2.55273,2.84864v.209h-4.30176a1.87221,1.87221,0,0,0,1.91407,1.83789,2.325,2.325,0,0,0,1.63964-.6709l.396.53906a2.8894,2.8894,0,0,1-2.11231.81348,2.79193,2.79193,0,0,1-.08837-5.57715Zm-1.749,2.45313h3.48731a1.72245,1.72245,0,0,0-1.749-1.77149A1.77269,1.77269,0,0,0,304.26477,129.98979Z"/><path d="M292.797,143.25541c2.64014-2.0791,4.07031-3.2998,4.07031-4.56543a1.372,1.372,0,0,0-1.5293-1.34179,2.45449,2.45449,0,0,0-1.99121.92382l-.561-.583a3.17759,3.17759,0,0,1,2.55224-1.15528,2.23317,2.23317,0,0,1,2.46436,2.15625c0,1.4961-1.51807,2.86035-3.56445,4.47754h3.59765v.81446H292.797Z"/><rect class="cls-3" x="335.14537" y="114.10554" width="39.43253" height="24.17667"/><path d="M342.68176,120.7974H341.316v-.875h3.72608v.875h-1.35938v3.7959h-1.001Z"/><path d="M346.88977,121.12651a1.69681,1.69681,0,0,1,1.69532,1.86328v.19629h-2.51465a.9123.9123,0,0,0,.97363.78418,1.38239,1.38239,0,0,0,.90332-.33594l.39258.57422a2.08175,2.08175,0,0,1-1.39356.46875,1.77562,1.77562,0,1,1-.05664-3.55078Zm-.833,1.457h1.667a.78372.78372,0,0,0-.834-.749A.81277.81277,0,0,0,346.05676,122.58354Z"/><path d="M351.70032,122.54838a.54864.54864,0,0,0-.623-.62988.96146.96146,0,0,0-.77051.39844v2.27636h-.88964v-3.38281h.88964v.44141a1.54887,1.54887,0,0,1,1.1836-.52539.98407.98407,0,0,1,1.09961,1.0791v2.38769h-.88965Z"/><path d="M355.67981,124.24369a1.40366,1.40366,0,0,1-1.07226.4336,1.12712,1.12712,0,0,1-1.17676-1.12012,1.07154,1.07154,0,0,1,1.17676-1.0791,1.37173,1.37173,0,0,1,1.07226.41308v-.46875c0-.34277-.29492-.56738-.74316-.56738a1.42251,1.42251,0,0,0-.98731.39942l-.33593-.59571a2.21789,2.21789,0,0,1,1.47753-.53222c.77051,0,1.47852.30859,1.47852,1.28222v2.18457h-.88965Zm0-.88281a.89049.89049,0,0,0-.71484-.29394c-.34961,0-.6377.18847-.6377.51074,0,.31543.28809.498.6377.498a.89112.89112,0,0,0,.71484-.29493Z"/><path d="M359.90051,122.54838a.54863.54863,0,0,0-.623-.62988.96143.96143,0,0,0-.77051.39844v2.27636h-.88965v-3.38281h.88965v.44141a1.54883,1.54883,0,0,1,1.18359-.52539.98407.98407,0,0,1,1.09961,1.0791v2.38769h-.88965Z"/><path d="M362.02356,123.75346v-1.76563H361.463v-.77734h.56055v-.92383h.89649v.92383h.68652v.77734h-.68652v1.52735c0,.21.1123.37109.30859.37109a.47966.47966,0,0,0,.30762-.09863l.18945.67285a1.09688,1.09688,0,0,1-.74219.2168A.84535.84535,0,0,1,362.02356,123.75346Z"/><path d="M367.12024,121.20365l-.77051.791-.56738-.59473,1.4707-1.47754h.86817v4.6709h-1.001Z"/><path d="M346.85364,129.148l-.77051.791-.56738-.59571,1.4707-1.47754h.86817v4.67188h-1.001Z"/><path d="M349.48352,131.48a.56739.56739,0,1,1-.56738.56738A.5736.5736,0,0,1,349.48352,131.48Z"/><path d="M351.62122,129.148l-.77051.791-.56738-.59571,1.4707-1.47754h.86816v4.67188h-1.001Z"/><path d="M354.2511,131.48a.56739.56739,0,1,1-.56738.56738A.57359.57359,0,0,1,354.2511,131.48Z"/><path d="M356.3888,129.148l-.77051.791-.56738-.59571,1.4707-1.47754h.86816v4.67188h-1.001Z"/><path d="M359.01868,131.48a.56739.56739,0,1,1-.56738.56738A.57359.57359,0,0,1,359.01868,131.48Z"/><path d="M362.44446,127.79545a2.10811,2.10811,0,0,1,1.37988.4834l-.44824.75a1.22688,1.22688,0,0,0-2.10059.98047.438.438,0,0,0,.00684.09766,1.51282,1.51282,0,0,1,1.19727-.59473,1.472,1.472,0,0,1,1.58984,1.50488,1.64064,1.64064,0,0,1-1.78613,1.60449c-1.42188,0-2.0166-1.09277-2.0166-2.40918A2.15759,2.15759,0,0,1,362.44446,127.79545Zm-.25195,2.543a1.19644,1.19644,0,0,0-.91016.44824.95354.95354,0,0,0,.95215.9668.75119.75119,0,0,0,.82617-.69434C363.06067,130.55522,362.64759,130.33842,362.19251,130.33842Z"/><rect class="cls-3" x="229.60874" y="106.00915" width="39.30475" height="68.43057"/><path d="M236.4845,125.64408h3.26758a1.851,1.851,0,0,1,2.05761,1.87012,1.669,1.669,0,0,1-1.28759,1.6836,1.83154,1.83154,0,0,1,1.43017,1.80371,1.91238,1.91238,0,0,1-2.123,1.98047H236.4845Zm3.11377,3.17969a1.14045,1.14045,0,0,0,1.26514-1.17773,1.15356,1.15356,0,0,0-1.26514-1.18848h-2.2002v2.36621Zm.04394,3.34375a1.21348,1.21348,0,0,0,1.36426-1.26465,1.24693,1.24693,0,0,0-1.36426-1.26562h-2.24414v2.53027Z"/><path d="M243.26087,125.64408h.82519v7.3379h-.82519Z"/><path d="M248.94788,132.37651a2.29708,2.29708,0,0,1-1.76026.7373,1.76883,1.76883,0,0,1-1.85888-1.75976,1.74053,1.74053,0,0,1,1.85888-1.75,2.22143,2.22143,0,0,1,1.76026.72656v-.957c0-.71485-.57178-1.12207-1.34229-1.12207a2.10846,2.10846,0,0,0-1.62793.7373l-.38525-.57226a2.77987,2.77987,0,0,1,2.12353-.87989c1.12207,0,2.05713.50586,2.05713,1.793V132.982h-.82519Zm0-1.51758a1.77771,1.77771,0,0,0-1.46289-.66016,1.16911,1.16911,0,1,0,0,2.32129,1.77771,1.77771,0,0,0,1.46289-.66016Z"/><path d="M255.16321,132.19a2.23725,2.23725,0,0,1-1.79346.92383c-1.38623,0-2.36523-1.05566-2.36523-2.7832,0-1.69434.96826-2.794,2.36523-2.794a2.2215,2.2215,0,0,1,1.79346.93457v-2.82715h.8252v7.3379h-.8252Zm0-3.05859a1.99586,1.99586,0,0,0-1.59521-.8584c-1.06739,0-1.70557.88086-1.70557,2.05762s.63818,2.0459,1.70557,2.0459a1.977,1.977,0,0,0,1.59521-.83594Z"/><path d="M259.838,127.53666a2.58051,2.58051,0,0,1,2.55274,2.84864v.209H258.089a1.87221,1.87221,0,0,0,1.91406,1.83789,2.325,2.325,0,0,0,1.63965-.6709l.396.53906a2.88942,2.88942,0,0,1-2.11231.81348,2.79193,2.79193,0,0,1-.08838-5.57715Zm-1.749,2.45313h3.48731a1.72245,1.72245,0,0,0-1.749-1.77149A1.77269,1.77269,0,0,0,258.089,129.98979Z"/><path d="M249.3551,137.85405l-1.17724,1.24316-.55029-.56055,1.8374-1.89258h.80322v7.3379h-.91309Z"/><line class="cls-6" x1="407.0499" y1="49.58598" x2="407.0499" y2="51.08598"/><line class="cls-11" x1="407.0499" y1="54.09721" x2="407.0499" y2="124.86283"/><polyline class="cls-6" points="407.05 126.368 407.05 127.868 408.55 127.868"/><line class="cls-12" x1="412.0271" y1="127.86845" x2="424.19727" y2="127.86845"/><line class="cls-6" x1="425.93588" y1="127.86845" x2="427.43588" y2="127.86845"/><path d="M417.05872,68.20805a2.36427,2.36427,0,0,1,2.45117-2.4165,2.15556,2.15556,0,0,1,1.98926,1.1416l-.85449.42041a1.27941,1.27941,0,0,0-1.13477-.67969,1.53781,1.53781,0,0,0,0,3.06787,1.26666,1.26666,0,0,0,1.13477-.67969l.85449.41358a2.16878,2.16878,0,0,1-1.98926,1.14844A2.36416,2.36416,0,0,1,417.05872,68.20805Z"/><path d="M424.51282,68.481c0-.46924-.24512-.61621-.62988-.61621a.98322.98322,0,0,0-.77051.39892v2.27637h-.88965V65.86869h.88965v1.73a1.5632,1.5632,0,0,1,1.19043-.52539.97411.97411,0,0,1,1.09961,1.06446v2.40234h-.88965Z"/><path d="M428.49329,70.19a1.40225,1.40225,0,0,1-1.07227.43409,1.12723,1.12723,0,0,1-1.17676-1.12061,1.07145,1.07145,0,0,1,1.17676-1.07861,1.37007,1.37007,0,0,1,1.07227.41308v-.46924c0-.34277-.29492-.56689-.74317-.56689a1.42414,1.42414,0,0,0-.9873.39893l-.33594-.59522a2.21787,2.21787,0,0,1,1.47754-.53223c.77051,0,1.47852.30811,1.47852,1.28174v2.18506h-.88965Zm0-.88232a.89082.89082,0,0,0-.71485-.29443c-.3496,0-.63769.189-.63769.51123,0,.31543.28809.49755.63769.49755a.89082.89082,0,0,0,.71485-.29443Z"/><path d="M430.53235,69.47563a1.93615,1.93615,0,0,0,1.16992.46191c.38477,0,.56739-.13281.56739-.34277,0-.23828-.29493-.32227-.67969-.39942-.58106-.1123-1.33106-.252-1.33106-1.05761,0-.56739.498-1.06446,1.38672-1.06446a2.12485,2.12485,0,0,1,1.35938.46241l-.35059.60888a1.42729,1.42729,0,0,0-1.001-.39209c-.32226,0-.53222.11914-.53222.31543,0,.21.26562.28711.64355.36426.582.11182,1.35938.26611,1.35938,1.10645,0,.623-.5254,1.08545-1.46387,1.08545a2.27476,2.27476,0,0,1-1.51269-.5254Z"/><path d="M434.0636,69.47563a1.93615,1.93615,0,0,0,1.16992.46191c.38477,0,.56739-.13281.56739-.34277,0-.23828-.29493-.32227-.67969-.39942-.58106-.1123-1.33106-.252-1.33106-1.05761,0-.56739.498-1.06446,1.38672-1.06446a2.12485,2.12485,0,0,1,1.35938.46241l-.35059.60888a1.42729,1.42729,0,0,0-1.001-.39209c-.32226,0-.53222.11914-.53222.31543,0,.21.26562.28711.64355.36426.582.11182,1.35938.26611,1.35938,1.10645,0,.623-.52539,1.08545-1.46387,1.08545a2.27476,2.27476,0,0,1-1.51269-.5254Z"/><path d="M437.39661,66.12748a.53223.53223,0,1,1,.53223.53272A.53665.53665,0,0,1,437.39661,66.12748Zm.09082,1.02979h.88965v3.38281h-.88965Z"/><path d="M439.546,69.47563a1.93617,1.93617,0,0,0,1.16992.46191c.38477,0,.56739-.13281.56739-.34277,0-.23828-.29492-.32227-.67969-.39942-.58105-.1123-1.33105-.252-1.33105-1.05761,0-.56739.498-1.06446,1.38671-1.06446a2.12485,2.12485,0,0,1,1.35938.46241l-.35059.60888a1.42729,1.42729,0,0,0-1.001-.39209c-.32227,0-.53223.11914-.53223.31543,0,.21.26562.28711.64355.36426.582.11182,1.35938.26611,1.35938,1.10645,0,.623-.52539,1.08545-1.46387,1.08545a2.27478,2.27478,0,0,1-1.51269-.5254Z"/><path d="M412.39466,72.86869h2.18554a1.50032,1.50032,0,1,1,0,2.99756h-1.19043v1.67383h-.99511Zm2.05273.8545h-1.05762v1.28857h1.05762a.64558.64558,0,1,0,0-1.28857Z"/><path d="M418.92884,77.19a1.40225,1.40225,0,0,1-1.07227.43409,1.12723,1.12723,0,0,1-1.17676-1.12061,1.07145,1.07145,0,0,1,1.17676-1.07861,1.37007,1.37007,0,0,1,1.07227.41308v-.46924c0-.34277-.29493-.56689-.74317-.56689a1.42414,1.42414,0,0,0-.9873.39893l-.33594-.59522a2.21786,2.21786,0,0,1,1.47754-.53223c.77051,0,1.47851.30811,1.47851,1.28174v2.18506h-.88964Zm0-.88232a.89084.89084,0,0,0-.71485-.29443c-.34961,0-.63769.189-.63769.51123,0,.31543.28808.49755.63769.49755a.89084.89084,0,0,0,.71485-.29443Z"/><path d="M420.86536,74.15727h.88965v.4624a1.44518,1.44518,0,0,1,1.07812-.53955v.86865a1.1636,1.1636,0,0,0-.24512-.021,1.12666,1.12666,0,0,0-.833.37793v2.23437h-.88965Z"/><path d="M423.88684,76.69975V74.93461h-.56054v-.77734h.56054V73.233h.89649v.92432h.68652v.77734h-.68652v1.52686c0,.21.1123.37109.30859.37109a.48263.48263,0,0,0,.30762-.09814l.18945.67236a1.09664,1.09664,0,0,1-.74219.21729A.84549.84549,0,0,1,423.88684,76.69975Z"/><path d="M426.20911,73.12748a.53223.53223,0,1,1,.53223.53272A.53665.53665,0,0,1,426.20911,73.12748Zm.09082,1.02979h.88965v3.38281h-.88965Z"/><path d="M428.42591,76.69975V74.93461h-.56055v-.77734h.56055V73.233h.89648v.92432h.68652v.77734h-.68652v1.52686c0,.21.1123.37109.30859.37109a.48261.48261,0,0,0,.30762-.09814l.18945.67236a1.09663,1.09663,0,0,1-.74218.21729A.84549.84549,0,0,1,428.42591,76.69975Z"/><path d="M430.74719,73.12748a.53223.53223,0,1,1,.53223.53272A.53665.53665,0,0,1,430.74719,73.12748Zm.09082,1.02979h.88965v3.38281H430.838Z"/><path d="M432.55286,75.84526a1.78958,1.78958,0,1,1,1.78613,1.77881A1.71368,1.71368,0,0,1,432.55286,75.84526Zm2.65527,0a.87278.87278,0,1,0-.86914.9873A.893.893,0,0,0,435.20813,75.84526Z"/><path d="M439.26477,75.49516a.54879.54879,0,0,0-.623-.63037.9618.9618,0,0,0-.77051.39892v2.27637h-.88965V74.15727h.88965v.4414a1.54722,1.54722,0,0,1,1.18359-.52539.98394.98394,0,0,1,1.09961,1.07862v2.38818h-.88965Z"/><path d="M441.08118,75.46684h1.68066v.75635h-1.68066Z"/><path d="M443.37024,76.7559c1.91211-1.4082,2.47266-1.89111,2.47266-2.46582,0-.40576-.3711-.60889-.76367-.60889a1.667,1.667,0,0,0-1.24707.53907l-.56641-.65821a2.37886,2.37886,0,0,1,1.7998-.76367,1.58612,1.58612,0,0,1,1.78614,1.4917c0,.79883-.65918,1.49219-1.91211,2.37451h1.94629v.87549h-3.51563Z"/><path d="M421.52356,81.15043l-.77051.791-.56738-.59522,1.4707-1.47754h.86817v4.67139h-1.001Z"/><path d="M424.15344,83.48246a.56739.56739,0,1,1-.56738.56739A.57392.57392,0,0,1,424.15344,83.48246Z"/><path d="M426.29114,81.15043l-.77051.791-.56738-.59522,1.4707-1.47754h.86817v4.67139h-1.001Z"/><path d="M428.921,83.48246a.56739.56739,0,1,1-.56738.56739A.57392.57392,0,0,1,428.921,83.48246Z"/><path d="M431.05872,81.15043l-.77051.791-.56738-.59522,1.4707-1.47754h.86816v4.67139h-1.001Z"/><path d="M433.6886,83.48246a.56739.56739,0,1,1-.56738.56739A.57392.57392,0,0,1,433.6886,83.48246Z"/><path d="M435.70032,83.25151a1.7051,1.7051,0,0,0,1.24609.50439c.55371,0,.86914-.31543.86914-.70068,0-.42725-.30859-.71436-.84082-.71436a1.34749,1.34749,0,0,0-.98047.38526l-.69335-.189V79.86869h3.208v.8545h-2.23437v1.16943a1.60839,1.60839,0,0,1,1.05078-.38525,1.454,1.454,0,0,1,1.49805,1.50586c0,.98779-.74219,1.61084-1.86914,1.61084a2.333,2.333,0,0,1-1.80079-.7002Z"/><path class="cls-2" d="M467.84485,199.79448H468.84v4.67089h-.99512Z"/><path class="cls-2" d="M472.22766,202.42045a.54863.54863,0,0,0-.623-.62988.96143.96143,0,0,0-.77051.39844v2.27636h-.88965v-3.38281h.88965v.44141a1.54885,1.54885,0,0,1,1.18359-.52539.98407.98407,0,0,1,1.09961,1.0791v2.38769h-.88965Z"/><path class="cls-2" d="M474.04407,202.39213h1.68066v.75684h-1.68066Z"/><path class="cls-2" d="M476.74426,199.79448h2.459a1.20832,1.20832,0,0,1,1.34473,1.19042,1.03756,1.03756,0,0,1-.80567,1.07129,1.13252,1.13252,0,0,1,.89649,1.14844,1.23048,1.23048,0,0,1-1.3584,1.26074h-2.53614Zm2.24122,1.87695a.51606.51606,0,1,0,0-1.03028h-1.2461v1.03028Zm.03515,1.94629a.53671.53671,0,0,0,.60254-.55274.54639.54639,0,0,0-.60254-.54687h-1.28125v1.09961Z"/><path class="cls-2" d="M483.61829,204.11576a1.40365,1.40365,0,0,1-1.07227.4336,1.12632,1.12632,0,0,1-1.17578-1.12012,1.07077,1.07077,0,0,1,1.17578-1.0791,1.37172,1.37172,0,0,1,1.07227.41309v-.46875c0-.34278-.29492-.56739-.74317-.56739a1.42248,1.42248,0,0,0-.9873.39942l-.33594-.59571a2.21791,2.21791,0,0,1,1.47754-.53222c.77051,0,1.47754.30859,1.47754,1.28222v2.18457h-.88867Zm0-.88281a.89051.89051,0,0,0-.71485-.29394c-.3496,0-.63671.18847-.63671.51074,0,.31543.28711.49805.63671.49805a.89114.89114,0,0,0,.71485-.29493Z"/><path class="cls-2" d="M487.838,202.42045a.54863.54863,0,0,0-.623-.62988.96143.96143,0,0,0-.77051.39844v2.27636h-.88965v-3.38281h.88965v.44141a1.54885,1.54885,0,0,1,1.18359-.52539.98407.98407,0,0,1,1.09961,1.0791v2.38769H487.838Z"/><path class="cls-2" d="M492.12219,204.03862a1.32793,1.32793,0,0,1-1.04394.51074c-.8545,0-1.499-.64453-1.499-1.77149,0-1.10644.63769-1.77929,1.499-1.77929a1.30253,1.30253,0,0,1,1.04394.51855v-1.72265h.89649v4.67089h-.89649Zm0-1.86329a.98032.98032,0,0,0-.7705-.38476.99368.99368,0,0,0,0,1.96777.97829.97829,0,0,0,.7705-.38574Z"/><path class="cls-2" d="M463.16223,208.10405l-1.3164,3.36132h-.43457l-1.31641-3.36132v3.36132h-.99512v-4.67089h1.39453l1.13379,2.91308,1.13477-2.91308h1.40137v4.67089h-1.002Z"/><path class="cls-2" d="M467.32825,211.11576a1.40365,1.40365,0,0,1-1.07227.4336,1.12712,1.12712,0,0,1-1.17675-1.12012,1.07154,1.07154,0,0,1,1.17675-1.0791,1.37171,1.37171,0,0,1,1.07227.41309v-.46875c0-.34278-.29492-.56739-.74316-.56739a1.42249,1.42249,0,0,0-.98731.39942l-.33594-.59571a2.21793,2.21793,0,0,1,1.47754-.53222c.77051,0,1.47852.30859,1.47852,1.28222v2.18457h-.88965Zm0-.88281a.89051.89051,0,0,0-.71484-.29394c-.34961,0-.6377.18847-.6377.51074,0,.31543.28809.49805.6377.49805a.89113.89113,0,0,0,.71484-.29493Z"/><path class="cls-2" d="M471.548,209.42045a.54864.54864,0,0,0-.623-.62988.96145.96145,0,0,0-.77051.39844v2.27636h-.88965v-3.38281h.88965v.44141a1.54885,1.54885,0,0,1,1.18359-.52539.98407.98407,0,0,1,1.09961,1.0791v2.38769H471.548Z"/><path class="cls-2" d="M475.52844,211.11576a1.40361,1.40361,0,0,1-1.07226.4336,1.12632,1.12632,0,0,1-1.17578-1.12012,1.07077,1.07077,0,0,1,1.17578-1.0791,1.37169,1.37169,0,0,1,1.07226.41309v-.46875c0-.34278-.29492-.56739-.74316-.56739a1.42248,1.42248,0,0,0-.9873.39942l-.33594-.59571a2.2179,2.2179,0,0,1,1.47754-.53222c.77051,0,1.47754.30859,1.47754,1.28222v2.18457h-.88868Zm0-.88281a.89049.89049,0,0,0-.71484-.29394c-.34961,0-.63672.18847-.63672.51074,0,.31543.28711.49805.63672.49805a.89112.89112,0,0,0,.71484-.29493Z"/><path class="cls-2" d="M477.81653,211.69a1.3453,1.3453,0,0,0,1.05762.41992.82735.82735,0,0,0,.93164-.85449v-.34277a1.31951,1.31951,0,0,1-1.04395.53223c-.84765,0-1.49121-.59571-1.49121-1.72364a1.51285,1.51285,0,0,1,1.49121-1.72265,1.30254,1.30254,0,0,1,1.04395.51855v-.43457h.89648v3.15234c0,1.28809-.99511,1.60352-1.82812,1.60352a2.03931,2.03931,0,0,1-1.457-.50391Zm1.98926-2.51465a.96686.96686,0,0,0-.76367-.38476.93459.93459,0,0,0,0,1.8623.98717.98717,0,0,0,.76367-.38476Z"/><path class="cls-2" d="M483.30481,207.99858a1.6968,1.6968,0,0,1,1.69531,1.86328v.19629h-2.51464a.9123.9123,0,0,0,.97363.78418,1.38239,1.38239,0,0,0,.90332-.33594l.39258.57422a2.08175,2.08175,0,0,1-1.39356.46875,1.77562,1.77562,0,1,1-.05664-3.55078Zm-.833,1.457h1.667a.78373.78373,0,0,0-.834-.749A.81278.81278,0,0,0,482.4718,209.45561Z"/><path class="cls-2" d="M490.02844,209.32963c0-.31543-.14062-.53906-.50488-.53906a.89945.89945,0,0,0-.70019.3916v2.2832h-.89649v-2.13574c0-.31543-.13965-.53906-.5039-.53906a.90741.90741,0,0,0-.7002.39844v2.27636h-.88965v-3.38281h.88965v.44141a1.478,1.478,0,0,1,1.10645-.52539.89556.89556,0,0,1,.93847.61621,1.4372,1.4372,0,0,1,1.16211-.61621.90307.90307,0,0,1,.99512,1.02246v2.44433h-.89649Z"/><path class="cls-2" d="M493.51966,207.99858a1.6968,1.6968,0,0,1,1.69531,1.86328v.19629h-2.51465a.9123.9123,0,0,0,.97363.78418,1.38237,1.38237,0,0,0,.90332-.33594l.39258.57422a2.08171,2.08171,0,0,1-1.39355.46875,1.77562,1.77562,0,1,1-.05664-3.55078Zm-.833,1.457h1.667a.78372.78372,0,0,0-.834-.749A.81277.81277,0,0,0,492.68665,209.45561Z"/><path class="cls-2" d="M498.3302,209.42045a.54863.54863,0,0,0-.623-.62988.96143.96143,0,0,0-.77051.39844v2.27636H496.047v-3.38281h.88965v.44141a1.54883,1.54883,0,0,1,1.18359-.52539.98407.98407,0,0,1,1.09961,1.0791v2.38769h-.88965Z"/><path class="cls-2" d="M500.45423,210.62553V208.8599h-.56055v-.77734h.56055v-.92383h.89648v.92383h.68652v.77734h-.68652v1.52735c0,.21.1123.37109.30859.37109a.47964.47964,0,0,0,.30762-.09863l.18945.67285a1.09687,1.09687,0,0,1-.74218.2168A.84535.84535,0,0,1,500.45423,210.62553Z"/><path d="M392.92346,206.79448h3.30567v.85449h-2.31055v1.01465h2.26172v.85449h-2.26172v1.08594h2.31055v.86132h-3.30567Z"/><path d="M398.506,210.32377l-.77734,1.1416h-.98779l1.19775-1.73632-1.12744-1.64649h.99463l.70019,1.04395.69336-1.04395h.99512l-1.13477,1.64649,1.21192,1.73632h-.99512Z"/><path d="M401.16223,210.62553V208.8599h-.56054v-.77734h.56054v-.92383h.89649v.92383h.68652v.77734h-.68652v1.52735c0,.21.1123.37109.30859.37109a.47966.47966,0,0,0,.30762-.09863l.18945.67285a1.09688,1.09688,0,0,1-.74219.2168A.84535.84535,0,0,1,401.16223,210.62553Z"/><path d="M404.99524,207.99858a1.6968,1.6968,0,0,1,1.69531,1.86328v.19629h-2.51464a.9123.9123,0,0,0,.97363.78418,1.38239,1.38239,0,0,0,.90332-.33594l.39258.57422a2.08175,2.08175,0,0,1-1.39356.46875,1.77562,1.77562,0,1,1-.05664-3.55078Zm-.833,1.457h1.667a.78373.78373,0,0,0-.834-.749A.81278.81278,0,0,0,404.16223,209.45561Z"/><path d="M407.45227,208.08256h.88965v.46289a1.44568,1.44568,0,0,1,1.07813-.54v.86914a1.15616,1.15616,0,0,0-1.07813.35645v2.23437h-.88965Z"/><path d="M412.33509,209.42045a.54864.54864,0,0,0-.623-.62988.96143.96143,0,0,0-.77051.39844v2.27636h-.88965v-3.38281h.88965v.44141a1.54885,1.54885,0,0,1,1.18359-.52539.98407.98407,0,0,1,1.09961,1.0791v2.38769h-.88964Z"/><path d="M416.24524,211.11576a1.40363,1.40363,0,0,1-1.07226.4336,1.12712,1.12712,0,0,1-1.17676-1.12012,1.07154,1.07154,0,0,1,1.17676-1.0791,1.3717,1.3717,0,0,1,1.07226.41309v-.46875c0-.34278-.29492-.56739-.74316-.56739a1.42251,1.42251,0,0,0-.98731.39942l-.33593-.59571a2.21789,2.21789,0,0,1,1.47753-.53222c.77051,0,1.47852.30859,1.47852,1.28222v2.18457h-.88965Zm0-.88281a.89049.89049,0,0,0-.71484-.29394c-.34961,0-.6377.18847-.6377.51074,0,.31543.28809.49805.6377.49805a.89112.89112,0,0,0,.71484-.29493Z"/><path d="M418.11341,206.79448h.88964v4.67089h-.88964Z"/><path d="M393.58557,213.79448h.99512v4.67089h-.99512Z"/><path d="M397.89856,216.42045a.54864.54864,0,0,0-.623-.62988.96166.96166,0,0,0-.771.39844v2.27636h-.88965v-3.38281h.88965v.44141a1.55,1.55,0,0,1,1.18408-.52539.98407.98407,0,0,1,1.09961,1.0791v2.38769h-.88965Z"/><path d="M399.64466,216.39213h1.68066v.75684h-1.68066Z"/><path d="M402.27551,213.79448h2.459a1.20886,1.20886,0,0,1,1.34473,1.19042,1.03756,1.03756,0,0,1-.80567,1.07129,1.13252,1.13252,0,0,1,.89649,1.14844,1.23048,1.23048,0,0,1-1.3584,1.26074h-2.53614Zm2.24122,1.87695a.51606.51606,0,1,0,0-1.03028h-1.2461v1.03028Zm.03515,1.94629a.53671.53671,0,0,0,.60254-.55274.54639.54639,0,0,0-.60254-.54687h-1.28125v1.09961Z"/><path d="M409.07923,218.11576a1.40365,1.40365,0,0,1-1.07227.4336,1.12713,1.12713,0,0,1-1.17676-1.12012,1.07155,1.07155,0,0,1,1.17676-1.0791,1.37172,1.37172,0,0,1,1.07227.41309v-.46875c0-.34278-.29493-.56739-.74317-.56739a1.42253,1.42253,0,0,0-.98731.39942l-.33593-.59571a2.21791,2.21791,0,0,1,1.47754-.53222c.77051,0,1.47851.30859,1.47851,1.28222v2.18457h-.88964Zm0-.88281a.89053.89053,0,0,0-.71485-.29394c-.34961,0-.63769.18847-.63769.51074,0,.31543.28808.49805.63769.49805a.89116.89116,0,0,0,.71485-.29493Z"/><path d="M413.22962,216.42045a.54864.54864,0,0,0-.62305-.62988.96145.96145,0,0,0-.77051.39844v2.27636h-.88965v-3.38281h.88965v.44141a1.54885,1.54885,0,0,1,1.1836-.52539.98407.98407,0,0,1,1.0996,1.0791v2.38769h-.88964Z"/><path d="M417.44348,218.03862a1.32793,1.32793,0,0,1-1.04394.51074c-.85449,0-1.499-.64453-1.499-1.77149,0-1.10644.6377-1.77929,1.499-1.77929a1.30253,1.30253,0,0,1,1.04394.51855v-1.72265H418.34v4.67089h-.89649Zm0-1.86329a.98034.98034,0,0,0-.7705-.38476.99368.99368,0,0,0,0,1.96777.97831.97831,0,0,0,.7705-.38574Z"/><path d="M390.11682,220.79448h.99512v4.67089h-.99512Z"/><path d="M394.42932,223.42045a.54863.54863,0,0,0-.623-.62988.96143.96143,0,0,0-.77051.39844v2.27636h-.88965v-3.38281h.88965v.44141a1.54885,1.54885,0,0,1,1.18359-.52539.98407.98407,0,0,1,1.09961,1.0791v2.38769h-.88965Z"/><path d="M396.483,224.62553V222.8599h-.56054v-.77734h.56054v-.92383h.897v.92383h.68652v.77734H397.38v1.52735c0,.21.1123.37109.30859.37109a.47966.47966,0,0,0,.30762-.09863l.18945.67285a1.09688,1.09688,0,0,1-.74219.2168A.84551.84551,0,0,1,396.483,224.62553Z"/><path d="M400.31751,221.99858a1.6968,1.6968,0,0,1,1.69531,1.86328v.19629h-2.51465a.9123.9123,0,0,0,.97363.78418,1.38237,1.38237,0,0,0,.90332-.33594l.39258.57422a2.08171,2.08171,0,0,1-1.39355.46875,1.77562,1.77562,0,1,1-.05664-3.55078Zm-.833,1.457h1.667a.78372.78372,0,0,0-.834-.749A.81277.81277,0,0,0,399.4845,223.45561Z"/><path d="M402.77454,222.08256h.88965v.46289a1.44568,1.44568,0,0,1,1.07812-.54v.86914a1.15614,1.15614,0,0,0-1.07812.35645v2.23437h-.88965Z"/><path d="M405.73743,222.8599h-.56055v-.77734h.56055v-.18164a1.09012,1.09012,0,0,1,1.1416-1.17676,1.43346,1.43346,0,0,1,.64356.13965l-.18165.63086a.547.547,0,0,0-.2871-.07031c-.252,0-.41993.168-.41993.49023v.168h.68555v.77734h-.68555v2.60547h-.89648Z"/><path d="M409.97669,225.11576a1.40365,1.40365,0,0,1-1.07227.4336,1.12632,1.12632,0,0,1-1.17578-1.12012,1.07077,1.07077,0,0,1,1.17578-1.0791,1.37172,1.37172,0,0,1,1.07227.41309v-.46875c0-.34278-.29493-.56739-.74317-.56739a1.42248,1.42248,0,0,0-.9873.39942l-.33594-.59571a2.21791,2.21791,0,0,1,1.47754-.53222c.77051,0,1.47754.30859,1.47754,1.28222v2.18457h-.88867Zm0-.88281a.89051.89051,0,0,0-.71485-.29394c-.34961,0-.63672.18847-.63672.51074,0,.31543.28711.49805.63672.49805a.89114.89114,0,0,0,.71485-.29493Z"/><path d="M413.42005,221.99858a1.5592,1.5592,0,0,1,1.33789.61621l-.58106.54a.83574.83574,0,0,0-.71387-.36426.98625.98625,0,0,0,0,1.96777.85484.85484,0,0,0,.71387-.36426l.58106.53907a1.55679,1.55679,0,0,1-1.33789.61621,1.77548,1.77548,0,1,1,0-3.55078Z"/><path d="M416.90344,221.99858a1.6968,1.6968,0,0,1,1.69531,1.86328v.19629h-2.51464a.9123.9123,0,0,0,.97363.78418,1.38239,1.38239,0,0,0,.90332-.33594l.39258.57422a2.08171,2.08171,0,0,1-1.39355.46875,1.77562,1.77562,0,1,1-.05665-3.55078Zm-.833,1.457h1.667a.78373.78373,0,0,0-.834-.749A.81276.81276,0,0,0,416.07044,223.45561Z"/><path d="M419.44348,224.40092a1.93315,1.93315,0,0,0,1.16993.46191c.38476,0,.56738-.13281.56738-.34277,0-.23828-.29492-.32226-.67969-.39941-.58105-.11231-1.33105-.252-1.33105-1.05762,0-.56738.498-1.06445,1.38671-1.06445a2.12509,2.12509,0,0,1,1.35938.46289l-.35059.6084a1.427,1.427,0,0,0-1.001-.39161c-.32227,0-.53321.11914-.53321.31543,0,.21.26661.28711.64454.36426.582.11133,1.35937.26563,1.35937,1.10645,0,.623-.52539,1.085-1.46387,1.085a2.27482,2.27482,0,0,1-1.51269-.52539Z"/><path d="M90.03919,206.79448h3.30566v.85449H91.0343v1.01465H93.296v.85449H91.0343v1.08594h2.31055v.86132H90.03919Z"/><path d="M95.62122,210.32377l-.77735,1.1416h-.9873l1.19727-1.73632-1.127-1.64649H94.921l.7002,1.04395.69336-1.04395h.99511l-1.13476,1.64649,1.21191,1.73632h-.99511Z"/><path d="M98.27747,210.62553V208.8599h-.56055v-.77734h.56055v-.92383H99.174v.92383h.68653v.77734H99.174v1.52735c0,.21.11231.37109.3086.37109a.47961.47961,0,0,0,.30761-.09863l.18946.67285a1.09692,1.09692,0,0,1-.74219.2168A.84535.84535,0,0,1,98.27747,210.62553Z"/><path d="M102.11048,207.99858a1.6968,1.6968,0,0,1,1.69531,1.86328v.19629h-2.51465a.9123.9123,0,0,0,.97363.78418,1.38237,1.38237,0,0,0,.90332-.33594l.39258.57422a2.08171,2.08171,0,0,1-1.39355.46875,1.77562,1.77562,0,1,1-.05664-3.55078Zm-.833,1.457h1.667a.78372.78372,0,0,0-.834-.749A.81277.81277,0,0,0,101.27747,209.45561Z"/><path d="M104.56751,208.08256h.88965v.46289a1.444,1.444,0,0,1,1.07812-.54v.86914a1.15614,1.15614,0,0,0-1.07812.35645v2.23437h-.88965Z"/><path d="M109.45032,209.42045a.54864.54864,0,0,0-.62305-.62988.96146.96146,0,0,0-.77051.39844v2.27636h-.88964v-3.38281h.88964v.44141a1.54887,1.54887,0,0,1,1.1836-.52539.98407.98407,0,0,1,1.09961,1.0791v2.38769h-.88965Z"/><path d="M113.36048,211.11576a1.40365,1.40365,0,0,1-1.07227.4336,1.12632,1.12632,0,0,1-1.17578-1.12012,1.07077,1.07077,0,0,1,1.17578-1.0791,1.37172,1.37172,0,0,1,1.07227.41309v-.46875c0-.34278-.29493-.56739-.74317-.56739a1.42248,1.42248,0,0,0-.9873.39942l-.33594-.59571a2.21791,2.21791,0,0,1,1.47754-.53222c.77051,0,1.47754.30859,1.47754,1.28222v2.18457h-.88867Zm0-.88281a.89053.89053,0,0,0-.71485-.29394c-.34961,0-.63672.18847-.63672.51074,0,.31543.28711.49805.63672.49805a.89116.89116,0,0,0,.71485-.29493Z"/><path d="M115.22864,206.79448h.88965v4.67089h-.88965Z"/><path d="M85.52063,213.71733c3.19707-.12379,3.19712,4.95611-.00019,4.832C82.33315,218.67275,82.3331,213.59363,85.52063,213.71733Zm0,.88183c-1.86283-.07176-1.86416,3.13566.00008,3.06836C87.39239,217.73375,87.39111,214.52822,85.52063,214.59916Z"/><path d="M91.0802,218.03862a1.5853,1.5853,0,0,1-1.19043.51074A.96855.96855,0,0,1,88.797,217.4849v-2.40234h.88965v2.05274a.54375.54375,0,0,0,.623.623.99675.99675,0,0,0,.77051-.38574v-2.29h.88965v3.38281H91.0802Z"/><path d="M93.17981,217.62553V215.8599h-.56055v-.77734h.56055v-.92383h.89649v.92383h.68652v.77734H94.0763v1.52735c0,.21.1123.37109.30859.37109a.47966.47966,0,0,0,.30762-.09863l.18945.67285a1.09688,1.09688,0,0,1-.74219.2168A.84535.84535,0,0,1,93.17981,217.62553Z"/><path d="M95.23841,216.39213h1.68066v.75684H95.23841Z"/><path d="M97.63977,216.771a1.78959,1.78959,0,1,1,1.78614,1.77832A1.7138,1.7138,0,0,1,97.63977,216.771Zm2.65528,0a.87278.87278,0,1,0-.86914.9873A.893.893,0,0,0,100.29505,216.771Z"/><path d="M102.19348,215.8599h-.56054v-.77734h.56054v-.18164a1.09013,1.09013,0,0,1,1.14161-1.17676,1.43342,1.43342,0,0,1,.64355.13965l-.18164.63086a.547.547,0,0,0-.28711-.07031c-.25195,0-.41992.168-.41992.49023v.168h.68554v.77734H103.09v2.60547h-.89649Z"/><path d="M104.15344,216.39213h1.68067v.75684h-1.68067Z"/><path d="M106.7843,213.79448h2.459a1.20885,1.20885,0,0,1,1.34472,1.19042,1.03755,1.03755,0,0,1-.80566,1.07129,1.13252,1.13252,0,0,1,.89649,1.14844,1.23048,1.23048,0,0,1-1.3584,1.26074H106.7843Zm2.24121,1.87695a.51606.51606,0,1,0,0-1.03028h-1.24609v1.03028Zm.03516,1.94629a.53671.53671,0,0,0,.60254-.55274.54639.54639,0,0,0-.60254-.54687h-1.28125v1.09961Z"/><path d="M113.588,218.11576a1.40361,1.40361,0,0,1-1.07226.4336,1.12713,1.12713,0,0,1-1.17676-1.12012,1.07155,1.07155,0,0,1,1.17676-1.0791,1.37169,1.37169,0,0,1,1.07226.41309v-.46875c0-.34278-.29492-.56739-.74316-.56739a1.42248,1.42248,0,0,0-.9873.39942l-.33594-.59571a2.2179,2.2179,0,0,1,1.47754-.53222c.77051,0,1.47851.30859,1.47851,1.28222v2.18457H113.588Zm0-.88281a.89049.89049,0,0,0-.71484-.29394c-.34961,0-.63769.18847-.63769.51074,0,.31543.28808.49805.63769.49805a.89112.89112,0,0,0,.71484-.29493Z"/><path d="M117.73841,216.42045a.54864.54864,0,0,0-.62305-.62988.96145.96145,0,0,0-.77051.39844v2.27636h-.88965v-3.38281h.88965v.44141a1.54885,1.54885,0,0,1,1.18359-.52539.98407.98407,0,0,1,1.09961,1.0791v2.38769h-.88964Z"/><path d="M121.95227,218.03862a1.32793,1.32793,0,0,1-1.04394.51074c-.85449,0-1.499-.64453-1.499-1.77149,0-1.10644.6377-1.77929,1.499-1.77929a1.30253,1.30253,0,0,1,1.04394.51855v-1.72265h.89649v4.67089h-.89649Zm0-1.86329a.98033.98033,0,0,0-.77051-.38476.99368.99368,0,0,0,0,1.96777.9783.9783,0,0,0,.77051-.38574Z"/><path d="M87.23157,220.79448h.99512v4.67089h-.99512Z"/><path d="M91.54407,223.42045a.54864.54864,0,0,0-.62305-.62988.96146.96146,0,0,0-.77051.39844v2.27636h-.88964v-3.38281h.88964v.44141a1.54887,1.54887,0,0,1,1.1836-.52539.98407.98407,0,0,1,1.09961,1.0791v2.38769h-.88965Z"/><path d="M93.59778,224.62553V222.8599h-.56055v-.77734h.56055v-.92383h.89648v.92383h.68653v.77734h-.68653v1.52735c0,.21.11231.37109.3086.37109a.47966.47966,0,0,0,.30762-.09863l.18945.67285a1.09688,1.09688,0,0,1-.74219.2168A.84535.84535,0,0,1,93.59778,224.62553Z"/><path d="M97.43176,221.99858a1.69681,1.69681,0,0,1,1.69532,1.86328v.19629H96.61243a.9123.9123,0,0,0,.97363.78418,1.38237,1.38237,0,0,0,.90332-.33594l.39258.57422a2.08171,2.08171,0,0,1-1.39355.46875,1.77562,1.77562,0,1,1-.05665-3.55078Zm-.833,1.457h1.667a.78373.78373,0,0,0-.834-.749A.81276.81276,0,0,0,96.59876,223.45561Z"/><path d="M99.8888,222.08256h.88964v.46289a1.44572,1.44572,0,0,1,1.07813-.54v.86914a1.15616,1.15616,0,0,0-1.07813.35645v2.23437H99.8888Z"/><path d="M102.85169,222.8599h-.56055v-.77734h.56055v-.18164a1.09012,1.09012,0,0,1,1.1416-1.17676,1.43339,1.43339,0,0,1,.64355.13965l-.18164.63086a.547.547,0,0,0-.28711-.07031c-.252,0-.41992.168-.41992.49023v.168h.68555v.77734h-.68555v2.60547h-.89648Z"/><path d="M107.09094,225.11576a1.40361,1.40361,0,0,1-1.07226.4336,1.12632,1.12632,0,0,1-1.17578-1.12012,1.07077,1.07077,0,0,1,1.17578-1.0791,1.37169,1.37169,0,0,1,1.07226.41309v-.46875c0-.34278-.29492-.56739-.74316-.56739a1.42248,1.42248,0,0,0-.9873.39942l-.33594-.59571a2.2179,2.2179,0,0,1,1.47754-.53222c.77051,0,1.47754.30859,1.47754,1.28222v2.18457h-.88868Zm0-.88281a.89049.89049,0,0,0-.71484-.29394c-.34961,0-.63672.18847-.63672.51074,0,.31543.28711.49805.63672.49805a.89112.89112,0,0,0,.71484-.29493Z"/><path d="M110.5343,221.99858a1.55917,1.55917,0,0,1,1.33789.61621l-.58105.54a.83574.83574,0,0,0-.71387-.36426.98625.98625,0,0,0,0,1.96777.85484.85484,0,0,0,.71387-.36426l.58105.53907a1.55676,1.55676,0,0,1-1.33789.61621,1.77548,1.77548,0,1,1,0-3.55078Z"/><path d="M114.0177,221.99858a1.6968,1.6968,0,0,1,1.69531,1.86328v.19629h-2.51464a.9123.9123,0,0,0,.97363.78418,1.38239,1.38239,0,0,0,.90332-.33594l.39258.57422a2.08175,2.08175,0,0,1-1.39356.46875,1.77562,1.77562,0,1,1-.05664-3.55078Zm-.833,1.457h1.667a.78373.78373,0,0,0-.834-.749A.81278.81278,0,0,0,113.18469,223.45561Z"/><path d="M116.55774,224.40092a1.93312,1.93312,0,0,0,1.16992.46191c.38477,0,.56739-.13281.56739-.34277,0-.23828-.29493-.32226-.67969-.39941-.58106-.11231-1.33106-.252-1.33106-1.05762,0-.56738.498-1.06445,1.38672-1.06445a2.12509,2.12509,0,0,1,1.35938.46289l-.35059.6084a1.427,1.427,0,0,0-1.001-.39161c-.32227,0-.53321.11914-.53321.31543,0,.21.2666.28711.64453.36426.582.11133,1.35938.26563,1.35938,1.10645,0,.623-.52539,1.085-1.46387,1.085a2.2748,2.2748,0,0,1-1.51269-.52539Z"/><rect class="cls-3" x="428.58771" y="89.65235" width="162.98019" height="93.05873"/><line class="cls-1" x1="543.21678" y1="124.19388" x2="523.16069" y2="124.19388"/><line class="cls-1" x1="457.33249" y1="109.47096" x2="457.33249" y2="49.58588"/><line class="cls-1" x1="503.50828" y1="109.47096" x2="503.50828" y2="49.58588"/><line class="cls-6" x1="457.33249" y1="201.68095" x2="457.33249" y2="174.43974"/><polygon class="cls-2" points="461.422 198.367 460.69 197.685 457.333 201.297 453.976 197.685 453.244 198.367 457.333 202.765 461.422 198.367"/><line class="cls-6" x1="503.50827" y1="201.68095" x2="503.50827" y2="174.43974"/><polygon class="cls-2" points="507.598 198.367 506.866 197.685 503.509 201.297 500.152 197.685 499.419 198.367 503.509 202.765 507.598 198.367"/><rect x="464.29791" y="80.65235" width="91.55978" height="18"/><path class="cls-5" d="M472.56751,91.28373v-3.3584a2.36994,2.36994,0,0,1,4.6875,0V88.815h-1.56934V87.9058c0-.36035-.25976-.59961-.76953-.59961-.5293,0-.79883.23926-.79883.59961v3.39746c0,.36036.26953.59961.78906.59961s.7793-.23925.7793-.59961v-.90918H477.255v.88965a2.36994,2.36994,0,0,1-4.6875,0Z"/><path class="cls-5" d="M482.11829,89.89408v3.25879h-1.499V89.87455c0-.38965-.21-.59961-.5-.59961a.45861.45861,0,0,0-.47949.46973v3.4082h-1.499V85.45658h1.499V88.105a1.91866,1.91866,0,0,1,.83985-.19922C481.48841,87.9058,482.11829,88.55522,482.11829,89.89408Z"/><path class="cls-5" d="M486.98157,88.05522v5.09765h-.98926l-.18945-.2705a1.806,1.806,0,0,1-1.16992.41992c-1.0293,0-1.65919-.63965-1.65919-1.94824V89.84428c0-1.29883.62989-1.93848,1.65919-1.93848a1.78247,1.78247,0,0,1,1.16992.40918l.18945-.25976Zm-1.499,3.418v-1.749a.46224.46224,0,0,0-.50977-.46972c-.31934,0-.5.21-.5.58007v1.5293c0,.36914.18066.58984.5.58984A.47551.47551,0,0,0,485.48255,91.47319Z"/><path class="cls-5" d="M487.76087,91.62358v-.12012h1.459v.12012a.40854.40854,0,0,0,.4502.35937c.25,0,.39941-.11914.39941-.30957,0-.61914-2.19922-.33008-2.19922-2.08887a1.81178,1.81178,0,0,1,3.6084-.05957v.09961h-1.459v-.09961a.31994.31994,0,0,0-.34961-.2998c-.21973,0-.33985.11914-.33985.26953,0,.59961,2.208.35938,2.208,2.12891a1.70434,1.70434,0,0,1-1.88867,1.67871A1.72166,1.72166,0,0,1,487.76087,91.62358Z"/><path class="cls-5" d="M492.21985,91.62358v-.12012h1.459v.12012a.40853.40853,0,0,0,.45019.35937c.25,0,.39941-.11914.39941-.30957,0-.61914-2.19921-.33008-2.19921-2.08887a1.81178,1.81178,0,0,1,3.60839-.05957v.09961h-1.459v-.09961a.31994.31994,0,0,0-.34961-.2998c-.21973,0-.33984.11914-.33984.26953,0,.59961,2.208.35938,2.208,2.12891a1.70434,1.70434,0,0,1-1.88867,1.67871A1.72166,1.72166,0,0,1,492.21985,91.62358Z"/><path class="cls-5" d="M496.80188,86.05619h1.499v1.46h-1.499Zm0,1.999h1.499v5.09765h-1.499Z"/><path class="cls-5" d="M499.09485,91.62358v-.12012h1.46v.12012a.40759.40759,0,0,0,.44922.35937c.25,0,.40039-.11914.40039-.30957,0-.61914-2.19922-.33008-2.19922-2.08887a1.81178,1.81178,0,0,1,3.6084-.05957v.09961h-1.46v-.09961a.31938.31938,0,0,0-.34961-.2998c-.21973,0-.33984.11914-.33984.26953,0,.59961,2.209.35938,2.209,2.12891a1.70434,1.70434,0,0,1-1.88867,1.67871A1.722,1.722,0,0,1,499.09485,91.62358Z"/><path class="cls-5" d="M510.18274,87.99565v.90918a1.94549,1.94549,0,0,1-2.1084,1.94922H507.255v2.29882H505.7052V86.05619h2.35938A1.952,1.952,0,0,1,510.18274,87.99565Zm-1.54883-.07032a.4383.4383,0,0,0-.46-.46972H507.255v1.999h.90918a.44306.44306,0,0,0,.46972-.47949Z"/><path class="cls-5" d="M514.92493,88.05522v5.09765h-.98926l-.18945-.2705a1.806,1.806,0,0,1-1.16992.41992c-1.0293,0-1.65918-.63965-1.65918-1.94824V89.84428c0-1.29883.62988-1.93848,1.65918-1.93848a1.78247,1.78247,0,0,1,1.16992.40918l.18945-.25976Zm-1.499,3.418v-1.749a.46224.46224,0,0,0-.50977-.46972c-.31934,0-.5.21-.5.58007v1.5293c0,.36914.18066.58984.5.58984A.47551.47551,0,0,0,513.42591,91.47319Z"/><path class="cls-5" d="M518.63489,87.96537v1.28907a1.05957,1.05957,0,0,0-.37988-.06934.86691.86691,0,0,0-.86914.90918v3.05859h-1.5V88.05522h.99023l.25977.37011a2.16261,2.16261,0,0,1,1.29882-.46972A1.31016,1.31016,0,0,1,518.63489,87.96537Z"/><path class="cls-5" d="M522.31848,91.80326v1.34961h-.91894c-1.06934,0-1.55957-.61035-1.55957-1.96875V89.40483H519.17V88.05522H519.84V86.62651h1.499v1.42871h.9502v1.34961h-.9502v1.51855c0,.58985.19043.87988.55957.87988Z"/><path class="cls-5" d="M523.11243,86.05619h1.499v1.46h-1.499Zm0,1.999h1.499v5.09765h-1.499Z"/><path class="cls-5" d="M528.44446,91.80326v1.34961h-.91992c-1.06934,0-1.5586-.61035-1.5586-1.96875V89.40483H525.296V88.05522h.66992V86.62651h1.499v1.42871h.94922v1.34961H527.465v1.51855c0,.58985.18945.87988.55957.87988Z"/><path class="cls-5" d="M529.23743,86.05619h1.499v1.46h-1.499Zm0,1.999h1.499v5.09765h-1.499Z"/><path class="cls-5" d="M531.63,91.30326V89.89408a1.999,1.999,0,0,1,3.998,0v1.40918a1.999,1.999,0,1,1-3.998,0Zm2.499.07032V89.82475c0-.37988-.19043-.57031-.5-.57031s-.5.19043-.5.57031v1.54883c0,.38965.19043.58007.49023.58007C533.92884,91.95365,534.129,91.76323,534.129,91.37358Z"/><path class="cls-5" d="M540.47669,89.89408v3.25879h-1.499V89.86479c0-.39063-.18945-.61035-.48925-.61035a.47289.47289,0,0,0-.49024.46972v3.42871h-1.499V88.05522h.90918l.24023.29a1.81035,1.81035,0,0,1,1.18945-.43946C539.8468,87.9058,540.47669,88.55522,540.47669,89.89408Z"/><path class="cls-5" d="M545.07825,91.75346h2.52832v1.39941H543.4093V92.3726c0-2.06836,2.71875-3.03809,2.71875-4.377v-.2002a.48482.48482,0,0,0-.5498-.48926c-.33008,0-.55957.249-.55957.69922v.37989h-1.54981v-.30957a2.05834,2.05834,0,0,1,2.10938-2.16895,1.95546,1.95546,0,0,1,2.09863,1.92871v.25C547.67688,90.07475,545.26868,90.7642,545.07825,91.75346Z"/><line class="cls-1" x1="543.21678" y1="153.21624" x2="523.16069" y2="153.21624"/><line class="cls-6" x1="543.21678" y1="128.19388" x2="523.16069" y2="128.19388"/><line class="cls-6" x1="543.21678" y1="157.21624" x2="523.16069" y2="157.21624"/><rect class="cls-3" x="543.21678" y="143.12791" width="39.43253" height="24.17667"/><path d="M550.10169,149.81987h-1.36524v-.875H552.462v.875h-1.3584v3.79589h-1.002Z"/><path d="M554.30969,150.149a1.69681,1.69681,0,0,1,1.69532,1.86328v.19629h-2.51465a.91229.91229,0,0,0,.97363.78418,1.38239,1.38239,0,0,0,.90332-.33594l.39258.57422a2.08171,2.08171,0,0,1-1.39355.46875,1.77562,1.77562,0,1,1-.05665-3.55078Zm-.833,1.457h1.667a.78373.78373,0,0,0-.834-.749A.81276.81276,0,0,0,553.47669,151.606Z"/><path d="M559.12024,151.57084a.54864.54864,0,0,0-.623-.62988.96143.96143,0,0,0-.7705.39844v2.27636H556.837v-3.38281h.88965v.44141a1.54883,1.54883,0,0,1,1.18359-.52539.98407.98407,0,0,1,1.09961,1.0791v2.38769h-.88965Z"/><path d="M563.09973,153.26615a1.40363,1.40363,0,0,1-1.07226.4336,1.12632,1.12632,0,0,1-1.17578-1.12012,1.07077,1.07077,0,0,1,1.17578-1.0791,1.3717,1.3717,0,0,1,1.07226.41309v-.46875c0-.34278-.29492-.56739-.74316-.56739a1.42255,1.42255,0,0,0-.98731.39942l-.33593-.59571a2.2179,2.2179,0,0,1,1.47754-.53222c.7705,0,1.47754.30859,1.47754,1.28222v2.18457h-.88868Zm0-.88281a.89049.89049,0,0,0-.71484-.29394c-.34961,0-.63672.18847-.63672.51074,0,.31543.28711.498.63672.498a.89112.89112,0,0,0,.71484-.29493Z"/><path d="M567.32044,151.57084a.54864.54864,0,0,0-.623-.62988.96145.96145,0,0,0-.77051.39844v2.27636h-.88965v-3.38281h.88965v.44141a1.54885,1.54885,0,0,1,1.1836-.52539.98408.98408,0,0,1,1.09961,1.0791v2.38769h-.88965Z"/><path d="M569.44348,152.77592V151.0103h-.56054v-.77735h.56054v-.92383H570.34v.92383h.68652v.77735H570.34v1.52734c0,.21.1123.37109.30859.37109a.47966.47966,0,0,0,.30762-.09863l.18945.67285a1.09688,1.09688,0,0,1-.74219.2168A.84535.84535,0,0,1,569.44348,152.77592Z"/><path d="M575.5343,152.64994h-2.23437v-.78515l1.85644-2.91992h1.373v2.8291h.60156v.876h-.60156v.96582h-.99512Zm-1.26074-.876h1.26074V149.8267Z"/><path d="M554.89075,158.17045l-.77051.791-.56738-.59571,1.4707-1.47753h.86817v4.67187h-1.001Z"/><path d="M557.52063,160.50248a.56739.56739,0,1,1-.56738.56739A.57359.57359,0,0,1,557.52063,160.50248Z"/><path d="M559.65833,158.17045l-.77051.791-.56738-.59571,1.4707-1.47753h.86816v4.67187h-1.001Z"/><path d="M562.28821,160.50248a.56739.56739,0,1,1-.56738.56739A.5736.5736,0,0,1,562.28821,160.50248Z"/><path d="M564.42591,158.17045l-.77051.791-.56739-.59571,1.47071-1.47753h.86816v4.67187h-1.001Z"/><path d="M567.05579,160.50248a.56739.56739,0,1,1-.56738.56739A.5736.5736,0,0,1,567.05579,160.50248Z"/><path d="M569.04407,160.41166a1.26544,1.26544,0,0,0,.93164.35645,1.22062,1.22062,0,0,0,1.16992-1.34473v-.09765a1.54542,1.54542,0,0,1-1.20508.60253,1.48418,1.48418,0,0,1-1.59668-1.51269,1.6467,1.6467,0,0,1,1.793-1.60449c1.415,0,2.00977,1.09277,2.00977,2.417a2.15,2.15,0,0,1-2.1709,2.40918,2.038,2.038,0,0,1-1.37207-.4834Zm1.13477-2.73926a.75348.75348,0,0,0-.81934.70118c0,.49707.41309.71386.86133.71386a1.1744,1.1744,0,0,0,.91113-.43457A.95594.95594,0,0,0,570.17884,157.6724Z"/><rect class="cls-3" x="483.85594" y="106.00915" width="39.30475" height="68.43057"/><path d="M490.73157,125.64408h3.26758a1.851,1.851,0,0,1,2.05761,1.87012,1.66911,1.66911,0,0,1-1.2871,1.6836,1.83113,1.83113,0,0,1,1.42968,1.80371,1.91214,1.91214,0,0,1-2.123,1.98047h-3.34473Zm3.11426,3.17969a1.14,1.14,0,0,0,1.26465-1.17773,1.15316,1.15316,0,0,0-1.26465-1.18848h-2.2002v2.36621Zm.04394,3.34375a1.21371,1.21371,0,0,0,1.36426-1.26465,1.2472,1.2472,0,0,0-1.36426-1.26562h-2.24414v2.53027Z"/><path d="M497.50794,125.64408h.82519v7.3379h-.82519Z"/><path d="M503.19544,132.37651a2.29816,2.29816,0,0,1-1.76075.7373,1.7687,1.7687,0,0,1-1.85839-1.75976,1.74039,1.74039,0,0,1,1.85839-1.75,2.22178,2.22178,0,0,1,1.76075.72656v-.957c0-.71485-.57227-1.12207-1.34278-1.12207a2.10917,2.10917,0,0,0-1.62793.7373l-.38476-.57226a2.77881,2.77881,0,0,1,2.123-.87989c1.12208,0,2.05762.50586,2.05762,1.793V132.982h-.82519Zm0-1.51758a1.77836,1.77836,0,0,0-1.46289-.66016,1.16911,1.16911,0,1,0,0,2.32129,1.77836,1.77836,0,0,0,1.46289-.66016Z"/><path d="M509.41028,132.19a2.2356,2.2356,0,0,1-1.793.92383c-1.38672,0-2.36523-1.05566-2.36523-2.7832,0-1.69434.96777-2.794,2.36523-2.794a2.2206,2.2206,0,0,1,1.793.93457v-2.82715h.8252v7.3379h-.8252Zm0-3.05859a1.99419,1.99419,0,0,0-1.59473-.8584c-1.06738,0-1.706.88086-1.706,2.05762s.63867,2.0459,1.706,2.0459a1.97537,1.97537,0,0,0,1.59473-.83594Z"/><path d="M514.08509,127.53666a2.58051,2.58051,0,0,1,2.55273,2.84864v.209h-4.30176a1.87283,1.87283,0,0,0,1.91406,1.83789,2.32413,2.32413,0,0,0,1.63965-.6709l.39649.53906a2.88942,2.88942,0,0,1-2.11231.81348,2.79193,2.79193,0,0,1-.08886-5.57715Zm-1.749,2.45313h3.48731a1.72245,1.72245,0,0,0-1.749-1.77149A1.773,1.773,0,0,0,512.33606,129.98979Z"/><path d="M504.27844,142.1226h-3.4873v-.75879l3.14648-4.71973h1.25489v4.67579h1.0332v.80273h-1.0332V143.982h-.91407Zm-2.57421-.80273h2.57421v-3.82911Z"/><rect class="cls-3" x="543.21678" y="114.10554" width="39.43253" height="24.17667"/><path d="M550.13684,120.7974h-1.36523v-.875h3.72558v.875H551.1388v3.7959h-1.002Z"/><path d="M554.34485,121.12651a1.6968,1.6968,0,0,1,1.69531,1.86328v.19629h-2.51465a.91232.91232,0,0,0,.97364.78418,1.38239,1.38239,0,0,0,.90332-.33594l.39258.57422a2.08175,2.08175,0,0,1-1.39356.46875,1.77562,1.77562,0,1,1-.05664-3.55078Zm-.833,1.457h1.667a.78373.78373,0,0,0-.834-.749A.81278.81278,0,0,0,553.51184,122.58354Z"/><path d="M559.1554,122.54838a.54864.54864,0,0,0-.62305-.62988.96145.96145,0,0,0-.77051.39844v2.27636h-.88965v-3.38281h.88965v.44141a1.54887,1.54887,0,0,1,1.1836-.52539.98408.98408,0,0,1,1.09961,1.0791v2.38769h-.88965Z"/><path d="M563.13489,124.24369a1.40368,1.40368,0,0,1-1.07227.4336,1.12632,1.12632,0,0,1-1.17578-1.12012,1.07077,1.07077,0,0,1,1.17578-1.0791,1.37174,1.37174,0,0,1,1.07227.41308v-.46875c0-.34277-.29492-.56738-.74316-.56738a1.42249,1.42249,0,0,0-.98731.39942l-.33594-.59571a2.21793,2.21793,0,0,1,1.47754-.53222c.77051,0,1.47754.30859,1.47754,1.28222v2.18457h-.88867Zm0-.88281a.89049.89049,0,0,0-.71484-.29394c-.34961,0-.63672.18847-.63672.51074,0,.31543.28711.498.63672.498a.89112.89112,0,0,0,.71484-.29493Z"/><path d="M567.35559,122.54838a.54863.54863,0,0,0-.623-.62988.96143.96143,0,0,0-.77051.39844v2.27636h-.88965v-3.38281h.88965v.44141a1.54885,1.54885,0,0,1,1.18359-.52539.98407.98407,0,0,1,1.09961,1.0791v2.38769h-.88965Z"/><path d="M569.47864,123.75346v-1.76563h-.56055v-.77734h.56055v-.92383h.89648v.92383h.68653v.77734h-.68653v1.52735c0,.21.11231.37109.3086.37109a.47966.47966,0,0,0,.30762-.09863l.18945.67285a1.0969,1.0969,0,0,1-.74219.2168A.84535.84535,0,0,1,569.47864,123.75346Z"/><path d="M573.81848,123.2769a1.86267,1.86267,0,0,0,1.28907.53222c.56738,0,.88183-.24511.88183-.60254,0-.37793-.28711-.55273-.93847-.55273-.19532,0-.51075,0-.58106.00684v-.86914c.084.00781.39941.00781.58106.00781.51855,0,.8623-.168.8623-.51856,0-.37109-.37891-.56054-.86914-.56054a1.69036,1.69036,0,0,0-1.19043.49023l-.49023-.61621a2.30082,2.30082,0,0,1,1.78613-.74219c1.09277,0,1.76465.49024,1.76465,1.26758a1.14561,1.14561,0,0,1-1.02246,1.06445,1.17181,1.17181,0,0,1,1.09277,1.1211c0,.80468-.72168,1.37207-1.8418,1.37207a2.33823,2.33823,0,0,1-1.84277-.749Z"/><path d="M554.86634,129.148l-.77051.791-.56739-.59571,1.47071-1.47754h.86816v4.67188h-1.001Z"/><path d="M557.49622,131.48a.56739.56739,0,1,1-.56738.56738A.57359.57359,0,0,1,557.49622,131.48Z"/><path d="M559.63391,129.148l-.7705.791-.56739-.59571,1.47071-1.47754h.86816v4.67188h-1.001Z"/><path d="M562.2638,131.48a.56739.56739,0,1,1-.56739.56738A.57359.57359,0,0,1,562.2638,131.48Z"/><path d="M564.40149,129.148l-.77051.791-.56738-.59571,1.4707-1.47754h.86817v4.67188h-1.001Z"/><path d="M567.03137,131.48a.56739.56739,0,1,1-.56738.56738A.57358.57358,0,0,1,567.03137,131.48Z"/><path d="M569.41809,130.12846a1.16945,1.16945,0,0,1-.9248-1.09961c0-.876.93164-1.2334,1.7998-1.2334.86133,0,1.79981.35742,1.79981,1.2334a1.176,1.176,0,0,1-.93164,1.09961,1.34634,1.34634,0,0,1,1.00879,1.19727c0,.86816-.89649,1.29589-1.877,1.29589s-1.87695-.41992-1.87695-1.29589A1.33915,1.33915,0,0,1,569.41809,130.12846Zm.875.44043c-.29394.03516-.86816.23144-.86816.63769,0,.34375.37793.56055.86816.56055.47657,0,.86817-.2168.86817-.56055C571.16126,130.80033,570.5802,130.60405,570.29309,130.56889Zm0-1.919c-.46191,0-.791.20313-.791.53223,0,.36426.5039.52539.791.56738.28711-.042.78418-.20312.78418-.56738C571.07727,128.85307,570.74817,128.64994,570.29309,128.64994Z"/><rect class="cls-3" x="437.68015" y="106.00915" width="39.30475" height="68.43057"/><path d="M444.55579,125.64408h3.26758a1.851,1.851,0,0,1,2.05761,1.87012,1.66911,1.66911,0,0,1-1.28711,1.6836,1.83114,1.83114,0,0,1,1.42969,1.80371,1.91214,1.91214,0,0,1-2.123,1.98047h-3.34472Zm3.11426,3.17969a1.14,1.14,0,0,0,1.26464-1.17773,1.15315,1.15315,0,0,0-1.26464-1.18848h-2.2002v2.36621Zm.04394,3.34375a1.21371,1.21371,0,0,0,1.36426-1.26465,1.2472,1.2472,0,0,0-1.36426-1.26562h-2.24414v2.53027Z"/><path d="M451.33216,125.64408h.82519v7.3379h-.82519Z"/><path d="M457.01966,132.37651a2.29816,2.29816,0,0,1-1.76075.7373,1.7687,1.7687,0,0,1-1.8584-1.75976,1.7404,1.7404,0,0,1,1.8584-1.75,2.22179,2.22179,0,0,1,1.76075.72656v-.957c0-.71485-.57227-1.12207-1.34278-1.12207a2.10917,2.10917,0,0,0-1.62793.7373l-.38476-.57226a2.77881,2.77881,0,0,1,2.123-.87989c1.12207,0,2.05762.50586,2.05762,1.793V132.982h-.82519Zm0-1.51758a1.77837,1.77837,0,0,0-1.4629-.66016,1.16911,1.16911,0,1,0,0,2.32129,1.77837,1.77837,0,0,0,1.4629-.66016Z"/><path d="M463.2345,132.19a2.2356,2.2356,0,0,1-1.793.92383c-1.38672,0-2.36523-1.05566-2.36523-2.7832,0-1.69434.96777-2.794,2.36523-2.794a2.22062,2.22062,0,0,1,1.793.93457v-2.82715h.82519v7.3379h-.82519Zm0-3.05859a1.99421,1.99421,0,0,0-1.59473-.8584c-1.06738,0-1.70605.88086-1.70605,2.05762s.63867,2.0459,1.70605,2.0459a1.97539,1.97539,0,0,0,1.59473-.83594Z"/><path d="M467.9093,127.53666a2.58051,2.58051,0,0,1,2.55274,2.84864v.209h-4.30176a1.87283,1.87283,0,0,0,1.91406,1.83789,2.32413,2.32413,0,0,0,1.63965-.6709l.39649.53906a2.88942,2.88942,0,0,1-2.11231.81348,2.79193,2.79193,0,0,1-.08887-5.57715Zm-1.749,2.45313h3.48731a1.72245,1.72245,0,0,0-1.749-1.77149A1.773,1.773,0,0,0,466.16028,129.98979Z"/><path d="M455.12708,142.33158a2.54711,2.54711,0,0,0,2.0459.96875c1.06738,0,1.71679-.52832,1.71679-1.376,0-.91309-.748-1.29785-1.82617-1.29785-.30859,0-.64941,0-.75976.01074v-.83594c.12109.01074.46289.01074.75976.01074.92383,0,1.70508-.3623,1.70508-1.21,0-.81445-.74805-1.2539-1.63965-1.2539a2.4849,2.4849,0,0,0-1.93555.89062l-.50683-.57129a3.17946,3.17946,0,0,1,2.50879-1.13379c1.4082,0,2.48632.71485,2.48632,1.958a1.788,1.788,0,0,1-1.584,1.70606,1.84517,1.84517,0,0,1,1.69434,1.80371c0,1.22168-.9795,2.1123-2.59668,2.1123a3.09472,3.09472,0,0,1-2.60743-1.21Z"/><polyline class="cls-8" points="578.536 164.071 580.036 164.071 580.036 162.571"/><line class="cls-13" x1="580.03559" y1="159.65263" x2="580.03559" y2="149.43852"/><polyline class="cls-8" points="580.036 147.979 580.036 146.479 578.536 146.479"/><line class="cls-14" x1="575.48929" y1="146.47929" x2="436.88202" y2="146.47929"/><polyline class="cls-8" points="435.359 146.479 433.859 146.479 433.859 147.979"/><line class="cls-13" x1="433.85889" y1="150.89775" x2="433.85889" y2="161.11186"/><polyline class="cls-8" points="433.859 162.571 433.859 164.071 435.359 164.071"/><line class="cls-14" x1="438.40518" y1="164.07084" x2="577.01242" y2="164.07084"/><line class="cls-1" x1="591.5679" y1="49.58587" x2="32.87583" y2="49.58587"/></svg>