<?xml version="1.0" encoding="UTF-8"?>
<svg width="2300px" height="2608px" viewBox="0 0 2300 2608" version="1.1" xmlns="http://www.w3.org/2000/svg" xmlns:xlink="http://www.w3.org/1999/xlink">
    <title>1D474565-1FEB-4B52-8E76-4DF45FD79B40</title>
    <defs>
        <path d="M1210.39324,0.387266949 L1211.59347,1.58911017 L1163.99406,49.2298093 L1303.06244,86.6516949 L1355.20501,34.4633263 L1356.40524,35.6645975 L1304.95366,87.1608051 L1375.83754,106.234703 L1375.96385,106.708347 L1434.86543,326.503792 L1488.41398,272.966568 L1489.61364,274.167839 L1435.37353,328.397225 L1471.30613,462.48197 C1474.67649,461.995169 1478.2246,463.008814 1480.8131,465.598411 C1485.16822,469.957881 1485.16707,477.049386 1480.81252,481.40714 C1476.4574,485.76661 1469.37204,485.767754 1465.01692,481.408284 C1460.66123,477.049386 1460.66009,469.955593 1465.01521,465.596695 C1466.35261,464.258136 1467.9592,463.38178 1469.65324,462.865805 L1469.65324,462.865805 L1433.98812,329.782119 L1330.82491,432.924407 L1347.66414,495.901907 C1350.0766,496.058644 1352.44677,497.017373 1354.29055,498.862754 C1358.32104,502.896737 1358.32104,509.437945 1354.29055,513.471928 C1351.10479,516.659873 1346.37246,517.287394 1342.53115,515.436864 L1342.53115,515.436864 L1241.66324,616.392267 L1260.18222,685.219386 L1365.10862,580.201398 C1363.60891,578.164958 1362.86762,575.753835 1362.91906,573.334703 C1362.6853,570.198242 1363.71464,566.985127 1366.10596,564.592309 C1370.45993,560.233983 1377.54701,560.235127 1381.9027,564.594597 C1383.79563,566.489174 1384.81469,568.903157 1385.06216,571.381208 C1385.7663,574.93125 1384.75182,578.758157 1382.00843,581.503919 C1377.84764,585.667754 1371.22751,585.817055 1366.83181,582.043347 L1366.83181,582.043347 L1260.93779,688.029216 L1277.93305,751.192627 C1280.87647,750.934068 1283.90562,751.884788 1286.15977,754.140318 C1290.20112,758.185742 1290.20112,764.744682 1286.15977,768.789534 C1282.52879,772.423093 1276.88713,772.764025 1272.84465,769.870678 L1272.84465,769.870678 L1179.84281,862.952606 C1181.38596,865.112606 1181.98608,867.713072 1181.67116,870.239174 L1181.67116,870.239174 L1317.33489,906.710911 L1423.0363,800.917818 C1419.49905,796.197966 1419.82826,789.478856 1424.11537,785.188602 C1428.81227,780.486483 1436.4543,780.486483 1441.15178,785.18803 C1445.84982,789.890148 1445.84982,797.538242 1441.15178,802.239788 C1436.86524,806.530042 1430.15195,806.860106 1425.43619,803.319788 L1425.43619,803.319788 L1318.34708,910.502352 L1244.50893,890.651059 L1085.22295,1050.07462 L1102.03818,1112.88394 C1105.14506,1112.44805 1108.40854,1113.38847 1110.797,1115.78015 C1114.83949,1119.825 1114.83949,1126.38394 1110.797,1130.42936 C1106.75508,1134.47422 1100.2024,1134.47479 1096.16048,1130.42936 C1094.00635,1128.27337 1093.03702,1125.40519 1093.17876,1122.58163 L1093.17876,1122.58163 L1029.86662,1105.47953 L818.132309,1317.3975 L888.053145,1336.36443 L994.031753,1230.2939 C990.494503,1225.57405 990.823709,1218.85494 995.110245,1214.56468 C999.808289,1209.86256 1007.44975,1209.86256 1012.1478,1214.56468 C1016.84584,1219.2668 1016.84527,1226.91489 1012.1478,1231.61701 C1007.86069,1235.90727 1001.14797,1236.23619 996.432213,1232.69644 L996.432213,1232.69644 L889.061339,1340.16044 L888.113728,1339.90246 L751.5544,1302.85869 C751.053732,1303.98102 750.370173,1305.04214 749.450568,1305.96254 C745.820729,1309.5961 740.179076,1309.93761 736.136015,1307.04369 L736.136015,1307.04369 L643.427952,1399.83273 C646.319363,1403.87873 645.978155,1409.5247 642.348316,1413.15826 C638.305827,1417.20369 631.75257,1417.20369 627.711224,1413.15826 C625.596532,1411.04231 624.617488,1408.23992 624.714649,1405.46841 L624.714649,1405.46841 L497.358799,1370.97191 C496.854131,1372.19663 496.11056,1373.3447 495.116655,1374.34004 C491.486245,1377.9736 485.844591,1378.31453 481.80153,1375.42061 L481.80153,1375.42061 L389.175769,1468.12729 C392.044891,1472.171 391.695109,1477.80095 388.073272,1481.42593 C384.031354,1485.47078 377.478097,1485.47078 373.436751,1481.42593 C371.166601,1479.15381 370.218991,1476.094 370.498473,1473.12686 L370.498473,1473.12686 L96.7614116,1399.71489 C96.2613157,1400.81549 95.5909014,1401.85773 94.6861565,1402.76326 C90.6448101,1406.80811 84.0915535,1406.80811 80.0496356,1402.76326 C76.0077177,1398.71784 76.0077177,1392.1589 80.0496356,1388.11405 C80.9503797,1387.21195 81.9882931,1386.54381 83.0827886,1386.04386 L83.0827886,1386.04386 L46.2631569,1249.20133 L10.0344956,1113.87928 C7.55916379,1113.75744 5.1169812,1112.78612 3.22633295,1110.89441 C-0.815013425,1106.84841 -0.815584964,1100.29004 3.22633295,1096.24405 C6.19775988,1093.27061 10.5208746,1092.50294 14.2112965,1093.90157 L14.2112965,1093.90157 L215.608201,892.329979 C214.21079,888.636928 214.977794,884.308919 217.949221,881.335487 C218.525332,880.758305 219.162025,880.287521 219.825581,879.875085 L219.825581,879.875085 L181.986325,739.805148 L289.272041,632.425233 C285.735934,627.705381 286.064568,620.986843 290.351105,616.696017 C295.048577,611.99447 302.690614,611.99447 307.388657,616.696017 C312.08613,621.398136 312.08613,629.046229 307.388657,633.748347 C303.10155,638.038602 296.388262,638.367521 291.673072,634.827775 L291.673072,634.827775 L185.773909,740.81822 L204.803843,811.255614 L363.88692,652.034555 L324.306187,505.484619 L377.343214,452.401589 L360.335953,388.721631 C357.403962,388.96875 354.390813,388.016314 352.147526,385.771081 C348.105608,381.725657 348.10618,375.166716 352.147526,371.121864 C355.769935,367.496314 361.39387,367.146229 365.434645,370.017839 L365.434645,370.017839 L458.438765,276.933051 C455.547353,272.887055 455.88799,267.240508 459.5184,263.606377 C463.560318,259.560953 470.113575,259.560953 474.155493,263.606377 C476.478224,265.931123 477.42069,269.081886 477.073767,272.112521 L477.073767,272.112521 L540.488213,289.115085 L592.178124,237.380339 L572.62066,163.974089 L679.285685,55.906589 C675.743863,51.1867373 676.070783,44.4630508 680.359605,40.1705085 C685.057077,35.4689619 692.699114,35.4689619 697.397158,40.1705085 C702.09463,44.8726271 702.09463,52.5207203 697.397158,57.222839 C693.112336,61.5108051 686.403621,61.8425847 681.68786,58.3079873 L681.68786,58.3079873 L576.399099,164.978008 L594.951799,234.604831 L647.198389,182.312924 L719.668857,201.655678 L825.908086,95.3243008 C822.347975,90.6027331 822.668608,83.8658898 826.963717,79.5664831 C831.661189,74.8649364 839.303226,74.8649364 844.00127,79.5664831 C848.698742,84.2680297 848.698742,91.9166949 844.00127,96.6188136 C839.722735,100.899915 833.028308,101.237415 828.31369,97.7216949 L828.31369,97.7216949 L722.764308,203.362627 L741.691366,273.902415 L900.324641,115.131547 C896.555919,110.732606 896.703947,104.105593 900.864173,99.9417585 C903.744154,97.0592797 907.806647,96.119428 911.498213,97.0398305 C913.83066,97.3590254 916.084806,98.3726695 917.874292,100.163708 C922.229985,104.522606 922.229985,111.615254 917.875435,115.973581 C915.076613,118.774258 911.155861,119.751292 907.550598,118.952161 C905.688527,118.746801 903.880752,118.095254 902.293019,116.959767 L902.293019,116.959767 L742.494377,276.896441 L759.195293,339.140021 C761.589467,338.473602 764.151101,338.682966 766.42125,339.776695 L766.42125,339.776695 L966.568201,139.456144 C964.719847,135.611504 965.346252,130.873919 968.531435,127.685975 C972.561922,123.651992 979.097461,123.651992 983.128519,127.685975 C984.945439,129.505042 985.898193,131.836653 986.077085,134.215169 L986.077085,134.215169 L1057.57194,153.341123 L1107.56895,103.301314 L966.802532,65.4052119 C966.266429,66.9365466 965.425125,68.3826483 964.203748,69.6045127 C961.222033,72.5893856 956.970932,73.4788983 953.180491,72.3754449 C951.032651,71.9755932 948.979685,70.9539407 947.321653,69.2950424 C942.955102,64.9252754 942.955102,57.81375 947.321653,53.4439831 C950.648577,50.1141737 955.560947,49.3396398 959.645159,51.0849153 C961.31005,51.6066102 962.887495,52.4761017 964.203748,53.7934958 C966.909981,56.5015042 967.928462,60.2637712 967.272336,63.770339 L967.272336,63.770339 L1108.95493,101.913559 L1161.75477,49.0684958 L1162.10112,48.7212712 L1210.39324,0.387266949 Z M1043.17946,905.976419 L788.579785,1160.7975 L776.710652,1172.85426 L703.386306,1153.64364 L603.901515,1253.2153 C606.793498,1257.26186 606.45229,1262.90784 602.821308,1266.5414 C598.779962,1270.58682 592.226705,1270.58682 588.184787,1266.5414 C584.142869,1262.49597 584.142869,1255.93703 588.184787,1251.89218 C589.066671,1251.00896 590.081722,1250.3557 591.150499,1249.85746 L591.150499,1249.85746 L574.6942,1188.23797 L360.477695,1402.27989 L343.193237,1337.55655 C339.981193,1338.12172 336.555965,1337.17843 334.075489,1334.69523 C331.800196,1332.41797 330.852585,1329.34729 331.138926,1326.37386 L331.138926,1326.37386 L203.918531,1292.33956 C203.413291,1293.54254 202.682865,1294.67288 201.704392,1295.6522 C198.07341,1299.28691 192.430614,1299.62669 188.387553,1296.73163 L188.387553,1296.73163 L95.764649,1389.43487 C97.2489336,1391.51021 97.8559072,1393.99284 97.6232911,1396.42742 L97.6232911,1396.42742 L371.354066,1469.83939 C371.854162,1468.7325 372.528005,1467.68511 373.43618,1466.77614 C377.075735,1463.13343 382.735677,1462.80165 386.780453,1465.7196 L386.780453,1465.7196 L479.401642,1373.01807 C476.508516,1368.9715 476.849152,1363.32439 480.479563,1359.69025 C484.521481,1355.64483 491.074737,1355.64483 495.116655,1359.69025 C497.299931,1361.876 498.262401,1364.79108 498.086939,1367.65068 L498.086939,1367.65068 L625.379919,1402.13002 C625.884016,1400.81148 626.649877,1399.57131 627.711224,1398.50905 C631.342206,1394.87434 636.985002,1394.53398 641.028063,1397.42962 L641.028063,1397.42962 L733.735554,1304.64172 C730.842428,1300.59515 731.182493,1294.94803 734.814047,1291.31333 C738.445029,1287.67919 744.087254,1287.33826 748.130886,1290.2339 L748.130886,1290.2339 L948.100088,1090.09125 C945.207534,1086.04411 945.54817,1080.39699 949.179152,1076.76343 C953.220499,1072.71744 959.773755,1072.71744 963.815673,1076.76343 C966.048101,1078.99722 967.001427,1081.99525 966.768239,1084.91663 L966.768239,1084.91663 L1030.74565,1102.19778 L1081.94461,1050.95441 L1062.17739,977.115699 L1043.17946,905.976419 Z M482.402217,1094.35233 L430.782605,1146.01672 L447.757288,1209.41809 C450.80873,1209.0457 453.990483,1209.98784 456.332075,1212.33146 C460.373993,1216.37689 460.373993,1222.93583 456.332075,1226.98125 C452.701093,1230.61538 447.058868,1230.95574 443.016379,1228.06125 L443.016379,1228.06125 L349.790502,1321.36742 C352.683057,1325.41398 352.34242,1331.0611 348.71201,1334.69523 C347.581507,1335.82729 346.245823,1336.60811 344.831837,1337.10636 L344.831837,1337.10636 L361.359007,1398.99528 L574.188389,1186.34225 L557.237138,1122.86879 C554.157691,1123.27265 550.934216,1122.33222 548.568619,1119.964 C546.210453,1117.60379 545.270272,1114.39125 545.664062,1111.31828 L545.664062,1111.31828 L482.402217,1094.35233 Z M243.190061,961.855551 L29.9806061,1175.25051 L49.5414998,1248.3204 L86.3651323,1385.17551 C88.8015995,1384.93869 91.2860759,1385.54561 93.3641887,1387.03233 L93.3641887,1387.03233 L185.987664,1294.32909 C183.096252,1290.28252 183.437461,1284.63655 187.067871,1281.00299 C188.200088,1279.86979 189.536916,1279.08896 190.952616,1278.59072 L190.952616,1278.59072 L174.145965,1214.57212 L387.796076,1000.73612 L243.190061,961.855551 Z M495.951101,894.889831 L176.03547,1215.08294 L192.58893,1278.14167 C195.799831,1277.5765 199.224488,1278.52036 201.704392,1281.00299 C203.903671,1283.2036 204.863283,1286.14614 204.669532,1289.02576 L204.669532,1289.02576 L332.001949,1323.09038 C332.502044,1321.99093 333.171887,1320.94983 334.075489,1320.04602 C335.185988,1318.93398 336.493096,1318.15773 337.879076,1317.6572 L337.879076,1317.6572 L320.798086,1253.69409 L427.502547,1146.89708 L410.477568,1083.3035 C407.507856,1083.58837 404.443268,1082.64051 402.169118,1080.36439 C398.1272,1076.31896 398.1272,1069.76002 402.169118,1065.7146 C406.211036,1061.66975 412.763721,1061.66975 416.805639,1065.7146 C419.079789,1067.99129 420.027399,1071.05854 419.742773,1074.03025 L419.742773,1074.03025 L483.2801,1091.07114 L587.701837,986.558263 L526.158608,970.052797 C525.667085,971.066441 525.042965,972.03375 524.202232,972.87464 C520.160315,976.920636 513.607629,976.920636 509.56514,972.875212 C505.523794,968.829788 505.523794,962.270847 509.565712,958.225424 C510.406444,957.383962 511.371201,956.759873 512.383966,956.268496 L512.383966,956.268496 L495.951101,894.889831 Z M428.010073,1148.79222 L322.692163,1254.20091 L339.513675,1317.19157 C342.216479,1316.69447 345.062739,1317.29911 347.390042,1318.96487 L347.390042,1318.96487 L440.615919,1225.65871 C437.724507,1221.61214 438.064572,1215.96559 441.695554,1212.33203 C442.531715,1211.49458 443.491899,1210.87335 444.498949,1210.38311 L444.498949,1210.38311 L428.010073,1148.79222 Z M965.966943,1088.21784 C965.463989,1089.37506 964.760997,1090.4665 963.815673,1091.41208 C960.185263,1095.04621 954.54361,1095.38714 950.50112,1092.49379 L950.50112,1092.49379 L750.531346,1292.63701 C752.001343,1294.69462 752.609459,1297.15093 752.393418,1299.56492 L752.393418,1299.56492 L816.243947,1316.88496 L1027.97655,1104.96871 L965.966943,1088.21784 Z M896.550775,866.111377 L844.724837,918.156737 L683.821983,1079.19915 L577.46616,1185.46875 L594.422555,1248.96165 C596.883598,1248.70367 599.400652,1249.30831 601.501055,1250.81218 L601.501055,1250.81218 L908.712535,943.334237 C905.821124,939.287669 906.161761,933.640551 909.792171,930.006992 C910.74664,929.051695 911.847994,928.340657 913.016218,927.836695 L913.016218,927.836695 L896.550775,866.111377 Z M1009.74734,1216.96722 C1006.37355,1213.59108 1000.88392,1213.59108 997.511277,1216.96722 C994.137488,1220.34337 994.137488,1225.83833 997.511277,1229.21447 C1000.88392,1232.59061 1006.37355,1232.59061 1009.74734,1229.21447 C1013.12056,1225.83775 1013.12056,1220.34337 1009.74734,1216.96722 Z M805.004649,771.470085 L645.37061,931.243157 L662.341293,994.633665 C665.380161,994.275 668.544196,995.21714 670.875501,997.551038 C674.917418,1001.59646 674.917418,1008.1554 670.875501,1012.20025 C666.833011,1016.24625 660.280898,1016.24625 656.238408,1012.20025 C654.031128,1009.99106 653.07323,1007.03536 653.277269,1004.14544 L653.277269,1004.14544 L589.595343,987.066229 L485.173606,1091.57854 L546.649965,1108.06627 C547.137488,1107.07894 547.747319,1106.13623 548.568619,1105.31479 C552.610537,1101.26936 559.163794,1101.26936 563.20514,1105.31479 C567.247058,1109.36021 567.247058,1115.91915 563.20514,1119.964 C562.39127,1120.77858 561.457948,1121.38436 560.481761,1121.87059 L560.481761,1121.87059 L576.959778,1183.57246 L682.621181,1077.99845 L843.524035,916.95661 L896.04382,864.212797 L876.684108,791.637712 L805.004649,771.470085 Z M524.669179,493.514809 L419.891373,598.383496 L439.800905,672.747331 L339.180468,773.455042 C342.073023,777.501038 341.732386,783.148157 338.101404,786.782288 C337.134361,787.750169 336.018147,788.471504 334.832206,788.97661 L334.832206,788.97661 L368.814722,916.232987 C371.81244,915.918369 374.917606,916.863369 377.21519,919.162945 C381.257108,923.208369 381.256536,929.767309 377.21519,933.812161 C373.173272,937.858157 366.620015,937.858157 362.578097,933.812161 C360.321093,931.553199 359.371768,928.514555 359.635247,925.563432 L359.635247,925.563432 L235.091366,891.77625 C234.607273,893.311589 233.802547,894.767415 232.586314,895.984703 C228.544396,900.030699 221.991139,900.030699 217.949221,895.984703 C217.745182,895.780487 217.597154,895.544809 217.413119,895.328008 L217.413119,895.328008 L17.206728,1095.70805 C17.423341,1095.89167 17.6588147,1096.0404 17.8628539,1096.24462 C21.9053433,1100.29004 21.9047718,1106.84841 17.8634254,1110.89441 C16.5894668,1112.1689 15.0560299,1112.99492 13.4402915,1113.46627 L13.4402915,1113.46627 L29.4730802,1173.35536 L242.68425,959.959831 L243.157484,960.08625 L389.182628,999.348941 L442.743755,945.740784 L403.337913,799.16625 L403.684837,798.819597 L564.482528,637.673072 L616.712543,585.465826 L554.860683,568.878559 C554.362301,569.966568 553.698746,570.998517 552.803717,571.894322 C548.761799,575.939746 542.209114,575.939746 538.166624,571.894322 C534.125278,567.848898 534.124707,561.289958 538.166624,557.244534 C539.062225,556.348729 540.092708,555.684597 541.179774,555.185784 L541.179774,555.185784 L524.669179,493.514809 Z M1258.16926,690.800148 L1152.07806,796.983369 L1151.60425,796.856949 L1004.96985,757.231017 L899.322163,863.327288 L916.32028,927.048432 C919.226552,926.825911 922.20598,927.78178 924.428692,930.006992 C928.471181,934.051843 928.471181,940.610784 924.428692,944.656208 C920.798282,948.290339 915.156628,948.631271 911.113567,945.73678 L911.113567,945.73678 L704.776287,1152.25246 L776.190552,1170.96311 L787.374983,1159.60081 L1042.67365,904.080699 L1025.58695,840.096992 C1022.58923,840.410466 1019.48521,839.465466 1017.18762,837.166462 C1013.14628,833.12161 1013.14628,826.562097 1017.18762,822.516674 C1021.23011,818.47125 1027.7828,818.47125 1031.82471,822.516674 C1034.076,824.769915 1035.02647,827.799979 1034.76985,830.744237 L1034.76985,830.744237 L1161.91937,864.928983 C1162.42404,863.731716 1163.15161,862.605381 1164.12608,861.630064 C1167.75764,857.99536 1173.39986,857.654428 1177.44235,860.550064 L1177.44235,860.550064 L1270.44418,767.467564 C1267.55106,763.421568 1267.8917,757.774449 1271.52268,754.140318 C1272.44743,753.214195 1273.51392,752.52661 1274.64156,752.024936 L1274.64156,752.024936 L1258.16926,690.800148 Z M418.880322,1077.31659 C418.380798,1078.41661 417.710384,1079.45943 416.805639,1080.36439 C415.901465,1081.26934 414.860123,1081.93977 413.761055,1082.4403 L413.761055,1082.4403 L430.275079,1144.12214 L480.509283,1093.84494 L418.880322,1077.31659 Z M1082.45214,1052.84898 L1032.63573,1102.70803 L1093.87376,1119.24896 C1094.37957,1117.98648 1095.13914,1116.80237 1096.16048,1115.78015 C1096.95092,1114.98903 1097.85509,1114.39926 1098.79984,1113.91761 L1098.79984,1113.91761 L1082.45214,1052.84898 Z M1033.94169,834.038581 C1033.43988,835.170064 1032.75175,836.238623 1031.82471,837.16589 C1030.9434,838.047966 1029.92949,838.702373 1028.86129,839.19947 L1028.86129,839.19947 L1065.45573,976.237055 L1084.71657,1048.18004 L1242.61656,890.142521 L1180.69783,873.496335 C1180.20917,874.495678 1179.59305,875.448686 1178.7626,876.27928 C1174.72126,880.324703 1168.168,880.324703 1164.12608,876.27928 C1161.92395,874.075233 1160.96491,871.127542 1161.16266,868.244492 L1161.16266,868.244492 L1033.94169,834.038581 Z M642.597507,934.018093 L592.36616,984.292436 L654.041415,1000.8328 C654.544941,999.642394 655.268508,998.52178 656.238408,997.551038 C657.085999,996.703284 658.059329,996.074619 659.080667,995.582097 L659.080667,995.582097 L642.597507,934.018093 Z M712.692662,677.960847 L498.723633,892.115466 L515.641162,955.310911 C518.688032,954.943093 521.863498,955.884661 524.202232,958.225424 C526.540967,960.565614 527.481718,963.743263 527.114219,966.793347 L527.114219,966.793347 L590.473226,983.785042 L642.090552,932.122945 L625.057,868.501335 C622.082716,868.791356 619.010698,867.844068 616.731975,865.564513 C612.690629,861.518517 612.690629,854.960148 616.731975,850.914725 C620.370959,847.272585 626.03033,846.940233 630.074534,849.856462 L630.074534,849.856462 L731.528274,748.315297 L712.692662,677.960847 Z M618.606621,585.973792 L565.682758,638.874915 L405.231991,799.673644 L444.130307,944.35303 L495.443575,892.995254 L478.385447,829.279831 C475.392301,829.589873 472.293422,828.644301 469.999839,826.348729 C465.957921,822.303305 465.957921,815.744364 469.999839,811.698941 C473.622248,808.073962 479.246755,807.723877 483.288101,810.596631 L483.288101,810.596631 L683.463629,610.245191 C681.904473,608.062309 681.304929,605.429809 681.642708,602.87911 L681.642708,602.87911 L618.606621,585.973792 Z M733.859578,750.786483 L632.46985,852.264153 C635.340687,856.308432 634.990905,861.93839 631.369068,865.563941 C630.468895,866.464322 629.433268,867.131886 628.340487,867.631271 L628.340487,867.631271 L644.863084,929.348581 L804.337092,769.735106 L733.859578,750.786483 Z M417.119413,601.158432 L205.314799,813.146758 L222.992474,878.58 C226.33883,877.826059 229.981243,878.728157 232.586314,881.335487 C234.538117,883.289555 235.525735,885.83053 235.592033,888.390953 L235.592033,888.390953 L360.473122,922.269661 C360.97379,921.146758 361.657349,920.083919 362.578097,919.162945 C363.459409,918.280869 364.47389,917.627034 365.541523,917.129364 L365.541523,917.129364 L331.526429,789.744852 C328.634446,789.953072 325.675593,788.994915 323.464883,786.782288 C319.422965,782.737436 319.422965,776.177924 323.464883,772.133072 C327.095293,768.498941 332.737518,768.157436 336.780008,771.0525 L336.780008,771.0525 L436.01275,671.733686 L417.119413,601.158432 Z M685.864089,612.647161 L485.693705,812.994025 C488.607979,817.042309 488.275915,822.706017 484.636931,826.348729 C483.752762,827.233665 482.734852,827.889216 481.663218,828.386886 L481.663218,828.386886 L498.216107,890.220318 L712.185708,676.065699 L695.544802,613.906208 C692.360763,615.118347 688.720065,614.692182 685.864089,612.647161 L685.864089,612.647161 Z M931.712374,737.433496 L879.622957,789.481144 L898.815781,861.42928 L1003.08206,756.720763 L931.712374,737.433496 Z M1438.75189,787.590572 C1435.37867,784.214428 1429.88847,784.214428 1426.51526,787.590572 C1423.14204,790.966716 1423.14204,796.461674 1426.51526,799.837818 C1429.88847,803.213962 1435.37867,803.213962 1438.75189,799.837818 C1442.12453,796.461674 1442.12453,790.966716 1438.75189,787.590572 Z M1238.89528,619.162627 L1141.74465,716.397521 C1143.59357,720.242161 1142.9666,724.980318 1139.78084,728.168263 C1135.75093,732.202818 1129.21539,732.202246 1125.18433,728.167691 C1123.33826,726.320021 1122.37979,723.94322 1122.22491,721.525233 L1122.22491,721.525233 L984.650526,684.538093 L934.543203,734.60536 L1152.09749,793.397288 L1257.41311,687.99089 L1238.89528,619.162627 Z M821.72214,774.409195 L876.175439,789.729407 L875.979973,788.997203 L821.72214,774.409195 Z M860.613026,718.220593 L879.116575,787.58428 L929.820583,736.922097 L860.613026,718.220593 Z M787.365838,697.233814 L735.244987,749.399873 L875.474162,787.101483 L856.308773,715.252309 L787.365838,697.233814 Z M764.739214,625.868581 L714.077499,676.574237 L732.913111,746.928686 L783.515386,696.282521 L764.739214,625.868581 Z M848.650161,647.974831 C848.318669,648.44161 847.971174,648.900381 847.552808,649.318538 C846.227982,650.645085 844.622532,651.491123 842.933636,651.945318 L842.933636,651.945318 L859.5814,714.351356 L860.014626,714.464619 L932.65084,734.094534 L982.75702,684.028983 L848.650161,647.974831 Z M1053.92038,159.398962 L842.259221,371.243708 L876.296605,515.121102 L927.697319,464.899386 L928.88326,466.114958 L876.752121,517.049428 L893.663936,588.53536 L963.987706,608.181864 L1072.43307,499.643008 L1073.6333,500.84428 L965.864066,608.706419 L1102.0599,646.75697 C1102.57828,645.074047 1103.45045,643.478072 1104.7787,642.148665 C1108.92864,637.995127 1115.53277,637.848114 1119.91703,641.609809 L1119.91703,641.609809 L1219.46755,541.972945 L1220.66778,543.174216 L1121.11669,642.811081 C1124.87513,647.198581 1124.72653,653.806144 1120.57602,657.959682 C1116.2209,662.318581 1109.13554,662.319725 1104.77985,657.960826 C1102.18392,655.362648 1101.17173,651.795445 1101.66954,648.412436 L1101.66954,648.412436 L1038.47513,630.75661 L990.199018,678.993941 L1124.02925,714.974873 C1124.37275,714.480636 1124.74482,713.999555 1125.18433,713.558517 C1128.36951,710.371144 1133.10185,709.743051 1136.94316,711.593581 L1136.94316,711.593581 L1337.73023,510.63178 C1335.88245,506.787712 1336.50885,502.050699 1339.69404,498.862754 C1340.13641,498.42 1340.61993,498.04589 1341.11659,497.699809 L1341.11659,497.699809 L1267.81111,223.540551 C1265.42722,223.366653 1263.08792,222.411928 1261.26528,220.58714 C1259.45236,218.77322 1258.50075,216.448475 1258.31843,214.076822 L1258.31843,214.076822 L1197.07297,197.692627 L1142.74598,252.067309 L1141.54575,250.866038 L1195.1789,197.186377 L1053.92038,159.398962 Z M834.213107,650.345911 L788.75639,695.842055 L855.805247,713.364597 L839.508408,652.272521 C837.633763,652.137521 835.802555,651.503136 834.213107,650.345911 L834.213107,650.345911 Z M798.495972,499.516017 L748.13603,549.837267 L786.412512,693.382881 L831.824077,647.931928 C828.994964,643.901949 829.356747,638.312034 832.956866,634.709364 C833.376947,634.288347 833.83875,633.937119 834.308554,633.604195 L834.308554,633.604195 L798.495972,499.516017 Z M964.487231,610.084449 L915.660153,658.954449 L988.305512,678.485403 L1036.5982,630.232055 L964.487231,610.084449 Z M745.23776,552.733475 L700.006229,597.930445 C703.152547,601.993602 702.907357,607.8375 699.180357,611.567733 C698.545378,612.203263 697.834384,612.702648 697.095386,613.137966 L697.095386,613.137966 L713.570545,674.679089 L764.233402,623.972288 L745.23776,552.733475 Z M1119.37693,643.351081 C1115.68251,639.653453 1109.67278,639.653453 1105.97951,643.349936 C1102.28623,647.046419 1102.28623,653.061928 1105.98065,656.759555 C1109.67221,660.454322 1115.68251,660.454894 1119.37579,656.758411 C1123.06907,653.061928 1123.06907,647.046419 1119.37693,643.351081 Z M875.33585,518.433178 L823.979716,568.610847 L840.840092,631.740508 C843.282275,631.878941 845.687307,632.842818 847.552808,634.709364 C849.421738,636.580487 850.385923,638.993326 850.521377,641.442203 L850.521377,641.442203 L913.767791,658.445339 L962.610871,609.560466 L892.243663,589.900233 L875.33585,518.433178 Z M377.849597,454.297881 L326.200265,505.991441 L365.270614,650.649661 L416.612459,599.263284 L396.957833,525.847309 L377.849597,454.297881 Z M304.988197,619.098559 C301.614979,615.722415 296.124783,615.722415 292.751565,619.098559 C289.378347,622.475275 289.378347,627.969661 292.751565,631.345233 C296.124783,634.721949 301.614979,634.721949 304.987626,631.345233 C308.361415,627.969661 308.361415,622.474703 304.988197,619.098559 Z M673.402842,531.200975 L621.380867,583.2 L682.645758,599.629958 C683.131565,598.658072 683.733395,597.728517 684.543264,596.917945 C686.145857,595.313962 688.146241,594.372966 690.226068,594.041186 L690.226068,594.041186 L673.402842,531.200975 Z M725.587135,479.039492 L674.788251,529.816081 L691.942397,593.891886 C694.437733,593.911335 696.91135,594.850614 698.870012,596.665106 L698.870012,596.665106 L744.731949,550.837754 L725.587135,479.039492 Z M647.707058,184.206356 L595.457039,236.501123 L612.490591,300.429343 C615.336279,300.264597 618.232835,301.230763 620.406394,303.406208 C624.447741,307.451059 624.447741,314.01 620.405823,318.055424 C616.364476,322.100847 609.81122,322.100847 605.769302,318.055424 C603.39799,315.682055 602.458381,312.447203 602.869317,309.35822 L602.869317,309.35822 L539.609758,292.397415 L380.621557,451.522945 L400.236747,524.970953 L419.383847,596.488919 L524.161653,491.620233 L507.155535,428.096441 C504.156103,428.411631 501.049221,427.466631 498.751066,425.166483 C494.70972,421.121059 494.709148,414.562119 498.751066,410.516695 C502.792984,406.471843 509.346241,406.471271 513.388159,410.516695 C515.638876,412.769364 516.588773,415.797712 516.333295,418.740826 L516.333295,418.740826 L579.918631,435.814894 L685.802934,329.839322 L686.148143,329.493242 L738.918834,276.67678 L719.230487,203.297415 L647.707058,184.206356 Z M579.040748,439.096653 L527.441711,490.740445 L544.458688,554.309428 C547.43926,554.012542 550.520422,554.959831 552.803717,557.244534 C555.087012,559.529809 556.032908,562.613644 555.736851,565.596801 L555.736851,565.596801 L619.487361,582.692606 L672.895888,529.30697 L656.349858,467.50214 C652.938918,468.03928 649.32794,467.025636 646.706295,464.401144 C644.5013,462.194809 643.422236,459.288877 643.449099,456.390953 L643.449099,456.390953 L579.040748,439.096653 Z M1380.80763,566.854131 C1377.10464,563.14678 1371.07605,563.145636 1367.37077,566.854131 C1365.58071,568.646314 1364.6754,570.983072 1364.61596,573.336992 C1364.80514,575.47697 1365.67387,577.568326 1367.30676,579.203199 C1370.9989,582.897966 1377.00919,582.898538 1380.70247,579.202055 C1382.75143,577.150742 1383.62074,574.390106 1383.39613,571.704407 C1383.0412,569.925953 1382.18218,568.229301 1380.80763,566.854131 Z M857.024338,441.031843 L804.044465,493.971864 L823.476763,566.728284 L874.879762,516.504852 L857.024338,441.031843 Z M729.370146,479.462225 L747.63079,547.942119 L797.779835,497.831377 L729.370146,479.462225 Z M664.279379,461.984301 C663.793571,462.842924 663.232321,463.668941 662.501895,464.4 C661.199359,465.703665 659.640775,466.568581 657.995316,467.092564 L657.995316,467.092564 L674.281297,527.922076 L724.161147,478.063602 L664.279379,461.984301 Z M739.722988,279.670805 L689.499643,329.937712 L728.360238,475.673644 L797.054553,494.119449 L761.043076,359.288199 C758.716344,359.080551 756.442766,358.133263 754.661281,356.350233 C750.631366,352.31625 750.631366,345.775614 754.661281,341.741059 C755.099651,341.302881 755.578028,340.933919 756.068408,340.591271 L756.068408,340.591271 L739.722988,279.670805 Z M984.356755,140.790127 C983.997257,141.318114 983.596038,141.826653 983.128519,142.295148 C979.943337,145.482521 975.21043,146.110614 971.369122,144.260657 L971.369122,144.260657 L771.222171,344.58178 C773.069954,348.425847 772.442977,353.16286 769.257794,356.350233 C768.754841,356.854195 768.212451,357.294661 767.640341,357.672775 L767.640341,357.672775 L803.538082,492.077288 L856.564822,439.089788 L840.388577,370.713432 L1052.0263,158.89214 L984.356755,140.790127 Z M515.505136,422.036314 C515.003326,423.167797 514.315194,424.238072 513.388159,425.165911 C512.508562,426.046271 511.495796,426.698962 510.430449,427.196059 L510.430449,427.196059 L526.934185,488.845869 L577.147814,438.588114 L515.505136,422.036314 Z M1479.61229,466.800254 C1475.91787,463.102627 1469.90929,463.101483 1466.21601,466.797966 C1462.52273,470.493877 1462.52273,476.509958 1466.21715,480.207585 C1469.90929,483.902352 1475.91901,483.902352 1479.61229,480.205869 C1483.30557,476.509386 1483.30443,470.495021 1479.61229,466.800254 Z M686.308746,331.735614 L581.812137,436.32286 L644.036068,453.031398 C644.563026,451.410826 645.421477,449.875487 646.706295,448.590127 C651.060272,444.231801 658.146203,444.231801 662.501895,448.591271 C665.266997,451.358771 666.260901,455.226292 665.514473,458.798644 L665.514473,458.798644 L724.406908,474.612521 L686.308746,331.735614 Z M476.139302,275.379407 C475.646064,276.413644 475.011657,277.398686 474.155493,278.255593 C470.524511,281.889725 464.882286,282.230657 460.839225,279.336165 L460.839225,279.336165 L367.840249,372.415233 C370.755666,376.464089 370.424173,382.128369 366.784618,385.771081 C365.850153,386.706356 364.772804,387.400805 363.632014,387.903623 L363.632014,387.903623 L380.115746,449.627225 L537.716252,291.889449 L476.139302,275.379407 Z M1162.60808,50.6169915 L1110.84615,102.423242 L1322.66848,159.449301 L1322.79365,159.919513 L1359.38581,295.299915 C1362.89506,294.636356 1366.66378,295.657436 1369.37401,298.370021 C1373.7297,302.729492 1373.72856,309.820424 1369.37287,314.179894 C1365.01775,318.538792 1357.93296,318.539936 1353.57727,314.181038 C1349.22215,309.821568 1349.221,302.728347 1353.57613,298.368877 C1354.79293,297.151017 1356.23206,296.310127 1357.75693,295.772987 L1357.75693,295.772987 L1321.28308,160.835911 L1109.46074,103.810424 L1059.46601,153.847945 L1260.02219,207.50072 C1260.38454,206.965869 1260.79205,206.45161 1261.26528,205.977966 C1265.29577,201.943983 1271.83074,201.943983 1275.8618,205.977966 C1279.89285,210.012521 1279.89228,216.553157 1275.8618,220.58714 C1275.39942,221.050487 1274.8959,221.446335 1274.37465,221.803284 L1274.37465,221.803284 L1330.31795,431.029831 L1433.48059,327.888686 L1374.45156,107.620742 L1162.60808,50.6169915 Z M1368.17435,299.571292 C1364.47993,295.873665 1358.46906,295.873665 1354.77636,299.570148 C1351.08308,303.266631 1351.0825,309.28214 1354.77693,312.979767 C1358.46906,316.675106 1364.47993,316.674534 1368.17321,312.978623 C1371.86649,309.28214 1371.86649,303.266631 1368.17435,299.571292 Z M592.683936,239.276631 L542.381147,289.623051 L603.875224,306.110784 C604.36046,305.141186 604.961147,304.214492 605.769302,303.406208 C606.772351,302.401716 607.932002,301.649492 609.167668,301.143814 L609.167668,301.143814 L592.683936,239.276631 Z M911.176437,98.7067373 C908.367326,98.3492161 905.431335,99.2089831 903.278922,101.363835 C899.585643,105.060318 899.585643,111.075826 903.278922,114.771737 C904.588316,116.082267 906.193195,116.904852 907.878661,117.285826 C910.604327,117.54553 913.418009,116.67661 915.500694,114.591547 C919.205976,110.883623 919.205976,104.851525 915.500694,101.14303 C914.263314,99.9045763 912.758454,99.1180297 911.176437,98.7067373 Z M841.600809,81.9690254 C838.22702,78.5928814 832.737395,78.5928814 829.363606,81.9690254 C825.990959,85.3451695 825.990959,90.8401271 829.363606,94.2162712 C832.737395,97.5924153 838.22702,97.5924153 841.600809,94.2162712 C844.974028,90.8401271 844.974028,85.3451695 841.600809,81.9690254 Z M959.007323,52.6597246 C955.780418,51.7004237 952.149436,52.4503602 949.607234,54.9947669 C945.913955,58.69125 945.915098,64.7056144 949.608377,68.4020975 C950.733736,69.5284322 952.083709,70.2692161 953.507982,70.7091102 C956.480552,71.2565466 959.66402,70.3899153 961.958174,68.0937712 C965.663456,64.3852754 965.663456,58.353178 961.958174,54.6458263 C961.085435,53.7717585 960.077242,53.121928 959.007323,52.6597246 Z M694.996697,42.5730508 C691.622908,39.1969068 686.133283,39.1969068 682.760065,42.5730508 C679.386847,45.9491949 679.386847,51.4441525 682.760065,54.8202966 C686.133283,58.1964407 691.622908,58.1964407 694.996697,54.8202966 C698.369344,51.4441525 698.369344,45.9491949 694.996697,42.5730508 Z" id="path-1"></path>
        <linearGradient x1="15.2417814%" y1="84.5770437%" x2="91.1315457%" y2="8.54934151%" id="linearGradient-3">
            <stop stop-color="#0066D4" offset="0%"></stop>
            <stop stop-color="#3FF0FF" offset="100%"></stop>
        </linearGradient>
        <polygon id="path-4" points="7.15678178e-05 0.0578795258 1794.91927 0.0578795258 1794.91927 1785 7.15678178e-05 1785"></polygon>
    </defs>
    <g id="Page-1" stroke="none" stroke-width="1" fill="none" fill-rule="evenodd" opacity="0.18">
        <g id="Aspen-Mesh-Game---Introduction-Page" transform="translate(221.000000, 356.000000)">
            <g id="Group-7" transform="translate(1.000000, 83.000000)">
                <g id="Group-7-Copy" transform="translate(928.000000, 865.000000) rotate(-285.000000) translate(-928.000000, -865.000000) translate(-182.000000, -28.000000)">
                    <g id="Group-3" transform="translate(729.991041, 160.883542)">
                        <mask id="mask-2" fill="white">
                            <use xlink:href="#path-1"></use>
                        </mask>
                        <g id="Clip-2"></g>
                        <path d="M997.511277,1229.21447 C994.137488,1225.83833 994.137488,1220.34337 997.511277,1216.96722 C1000.88392,1213.59108 1006.37355,1213.59108 1009.74734,1216.96722 C1013.12056,1220.34337 1013.12056,1225.83775 1009.74734,1229.21447 C1006.37355,1232.59061 1000.88392,1232.59061 997.511277,1229.21447 L997.511277,1229.21447 Z M1084.71657,1048.18004 L1065.45573,976.237055 L1028.86129,839.19947 C1029.92949,838.702373 1030.9434,838.047966 1031.82471,837.16589 C1032.75175,836.238623 1033.43988,835.170064 1033.94169,834.038581 L1161.16266,868.244492 C1160.96491,871.127542 1161.92395,874.075233 1164.12608,876.27928 C1168.168,880.324703 1174.72126,880.324703 1178.7626,876.27928 C1179.59305,875.448686 1180.20917,874.495678 1180.69783,873.496335 L1242.61656,890.142521 L1084.71657,1048.18004 Z M1030.74565,1102.19778 L966.768239,1084.91663 C967.001427,1081.99525 966.048101,1078.99722 963.815673,1076.76343 C959.773755,1072.71744 953.220499,1072.71744 949.179152,1076.76343 C945.54817,1080.39699 945.207534,1086.04411 948.100088,1090.09125 L748.130886,1290.2339 C744.087254,1287.33826 738.445029,1287.67919 734.814047,1291.31333 C731.182493,1294.94803 730.842428,1300.59515 733.735554,1304.64172 L641.028063,1397.42962 C636.985002,1394.53398 631.342206,1394.87434 627.711224,1398.50905 C626.649877,1399.57131 625.884016,1400.81148 625.379919,1402.13002 L498.086939,1367.65068 C498.262401,1364.79108 497.299931,1361.876 495.116655,1359.69025 C491.074737,1355.64483 484.521481,1355.64483 480.479563,1359.69025 C476.849152,1363.32439 476.508516,1368.9715 479.401642,1373.01807 L386.780453,1465.7196 C382.735677,1462.80165 377.075735,1463.13343 373.43618,1466.77614 C372.528005,1467.68511 371.854162,1468.7325 371.354066,1469.83939 L97.6232911,1396.42742 C97.8559072,1393.99284 97.2489336,1391.51021 95.764649,1389.43487 L188.387553,1296.73163 C192.430614,1299.62669 198.07341,1299.28691 201.704392,1295.6522 C202.682865,1294.67288 203.413291,1293.54254 203.918531,1292.33956 L331.138926,1326.37386 C330.852585,1329.34729 331.800196,1332.41797 334.075489,1334.69523 C336.555965,1337.17843 339.981193,1338.12172 343.193237,1337.55655 L360.477695,1402.27989 L574.6942,1188.23797 L591.150499,1249.85746 C590.081722,1250.3557 589.066671,1251.00896 588.184787,1251.89218 C584.142869,1255.93703 584.142869,1262.49597 588.184787,1266.5414 C592.226705,1270.58682 598.779962,1270.58682 602.821308,1266.5414 C606.45229,1262.90784 606.793498,1257.26186 603.901515,1253.2153 L703.386306,1153.64364 L776.710652,1172.85426 L788.579785,1160.7975 L1043.17946,905.976419 L1062.17739,977.115699 L1081.94461,1050.95441 L1030.74565,1102.19778 Z M816.243947,1316.88496 L752.393418,1299.56492 C752.609459,1297.15093 752.001343,1294.69462 750.531346,1292.63701 L950.50112,1092.49379 C954.54361,1095.38714 960.185263,1095.04621 963.815673,1091.41208 C964.760997,1090.4665 965.463989,1089.37506 965.966943,1088.21784 L1027.97655,1104.96871 L816.243947,1316.88496 Z M418.880322,1077.31659 L480.509283,1093.84494 L430.275079,1144.12214 L413.761055,1082.4403 C414.860123,1081.93977 415.901465,1081.26934 416.805639,1080.36439 C417.710384,1079.45943 418.380798,1078.41661 418.880322,1077.31659 L418.880322,1077.31659 Z M192.58893,1278.14167 L176.03547,1215.08294 L495.951101,894.889831 L512.383966,956.268496 C511.371201,956.759873 510.406444,957.383962 509.565712,958.225424 C505.523794,962.270847 505.523794,968.829788 509.56514,972.875212 C513.607629,976.920636 520.160315,976.920636 524.202232,972.87464 C525.042965,972.03375 525.667085,971.066441 526.158608,970.052797 L587.701837,986.558263 L483.2801,1091.07114 L419.742773,1074.03025 C420.027399,1071.05854 419.079789,1067.99129 416.805639,1065.7146 C412.763721,1061.66975 406.211036,1061.66975 402.169118,1065.7146 C398.1272,1069.76002 398.1272,1076.31896 402.169118,1080.36439 C404.443268,1082.64051 407.507856,1083.58837 410.477568,1083.3035 L427.502547,1146.89708 L320.798086,1253.69409 L337.879076,1317.6572 C336.493096,1318.15773 335.185988,1318.93398 334.075489,1320.04602 C333.171887,1320.94983 332.502044,1321.99093 332.001949,1323.09038 L204.669532,1289.02576 C204.863283,1286.14614 203.903671,1283.2036 201.704392,1281.00299 C199.224488,1278.52036 195.799831,1277.5765 192.58893,1278.14167 L192.58893,1278.14167 Z M93.3641887,1387.03233 C91.2860759,1385.54561 88.8015995,1384.93869 86.3651323,1385.17551 L49.5414998,1248.3204 L29.9806061,1175.25051 L243.190061,961.855551 L387.796076,1000.73612 L174.145965,1214.57212 L190.952616,1278.59072 C189.536916,1279.08896 188.200088,1279.86979 187.067871,1281.00299 C183.437461,1284.63655 183.096252,1290.28252 185.987664,1294.32909 L93.3641887,1387.03233 Z M242.68425,959.959831 L29.4730802,1173.35536 L13.4402915,1113.46627 C15.0560299,1112.99492 16.5894668,1112.1689 17.8634254,1110.89441 C21.9047718,1106.84841 21.9053433,1100.29004 17.8628539,1096.24462 C17.6588147,1096.0404 17.423341,1095.89167 17.206728,1095.70805 L217.413119,895.328008 C217.597154,895.544809 217.745182,895.780487 217.949221,895.984703 C221.991139,900.030699 228.544396,900.030699 232.586314,895.984703 C233.802547,894.767415 234.607273,893.311589 235.091366,891.77625 L359.635247,925.563432 C359.371768,928.514555 360.321093,931.553199 362.578097,933.812161 C366.620015,937.858157 373.173272,937.858157 377.21519,933.812161 C381.256536,929.767309 381.257108,923.208369 377.21519,919.162945 C374.917606,916.863369 371.81244,915.918369 368.814722,916.232987 L334.832206,788.97661 C336.018147,788.471504 337.134361,787.750169 338.101404,786.782288 C341.732386,783.148157 342.073023,777.501038 339.180468,773.455042 L439.800905,672.747331 L419.891373,598.383496 L524.669179,493.514809 L541.179774,555.185784 C540.092708,555.684597 539.062225,556.348729 538.166624,557.244534 C534.124707,561.289958 534.125278,567.848898 538.166624,571.894322 C542.209114,575.939746 548.761799,575.939746 552.803717,571.894322 C553.698746,570.998517 554.362301,569.966568 554.860683,568.878559 L616.712543,585.465826 L564.482528,637.673072 L403.684837,798.819597 L403.337913,799.16625 L442.743755,945.740784 L389.182628,999.348941 L243.157484,960.08625 L242.68425,959.959831 Z M222.992474,878.58 L205.314799,813.146758 L417.119413,601.158432 L436.01275,671.733686 L336.780008,771.0525 C332.737518,768.157436 327.095293,768.498941 323.464883,772.133072 C319.422965,776.177924 319.422965,782.737436 323.464883,786.782288 C325.675593,788.994915 328.634446,789.953072 331.526429,789.744852 L365.541523,917.129364 C364.47389,917.627034 363.459409,918.280869 362.578097,919.162945 C361.657349,920.083919 360.97379,921.146758 360.473122,922.269661 L235.592033,888.390953 C235.525735,885.83053 234.538117,883.289555 232.586314,881.335487 C229.981243,878.728157 226.33883,877.826059 222.992474,878.58 L222.992474,878.58 Z M903.278922,101.363835 C905.431335,99.2089831 908.367326,98.3492161 911.176437,98.7067373 C912.758454,99.1180297 914.263314,99.9045763 915.500694,101.14303 C919.205976,104.851525 919.205976,110.883623 915.500694,114.591547 C913.418009,116.67661 910.604327,117.54553 907.878661,117.285826 C906.193195,116.904852 904.588316,116.082267 903.278922,114.771737 C899.585643,111.075826 899.585643,105.060318 903.278922,101.363835 L903.278922,101.363835 Z M657.995316,467.092564 C659.640775,466.568581 661.199359,465.703665 662.501895,464.4 C663.232321,463.668941 663.793571,462.842924 664.279379,461.984301 L724.161147,478.063602 L674.281297,527.922076 L657.995316,467.092564 Z M643.449099,456.390953 C643.422236,459.288877 644.5013,462.194809 646.706295,464.401144 C649.32794,467.025636 652.938918,468.03928 656.349858,467.50214 L672.895888,529.30697 L619.487361,582.692606 L555.736851,565.596801 C556.032908,562.613644 555.087012,559.529809 552.803717,557.244534 C550.520422,554.959831 547.43926,554.012542 544.458688,554.309428 L527.441711,490.740445 L579.040748,439.096653 L643.449099,456.390953 Z M644.036068,453.031398 L581.812137,436.32286 L686.308746,331.735614 L724.406908,474.612521 L665.514473,458.798644 C666.260901,455.226292 665.266997,451.358771 662.501895,448.591271 C658.146203,444.231801 651.060272,444.231801 646.706295,448.590127 C645.421477,449.875487 644.563026,451.410826 644.036068,453.031398 L644.036068,453.031398 Z M756.068408,340.591271 C755.578028,340.933919 755.099651,341.302881 754.661281,341.741059 C750.631366,345.775614 750.631366,352.31625 754.661281,356.350233 C756.442766,358.133263 758.716344,359.080551 761.043076,359.288199 L797.054553,494.119449 L728.360238,475.673644 L689.499643,329.937712 L739.722988,279.670805 L756.068408,340.591271 Z M971.369122,144.260657 C975.21043,146.110614 979.943337,145.482521 983.128519,142.295148 C983.596038,141.826653 983.997257,141.318114 984.356755,140.790127 L1052.0263,158.89214 L840.388577,370.713432 L856.564822,439.089788 L803.538082,492.077288 L767.640341,357.672775 C768.212451,357.294661 768.754841,356.854195 769.257794,356.350233 C772.442977,353.16286 773.069954,348.425847 771.222171,344.58178 L971.369122,144.260657 Z M1105.97951,643.349936 C1109.67278,639.653453 1115.68251,639.653453 1119.37693,643.351081 C1123.06907,647.046419 1123.06907,653.061928 1119.37579,656.758411 C1115.68251,660.454894 1109.67221,660.454322 1105.98065,656.759555 C1102.28623,653.061928 1102.28623,647.046419 1105.97951,643.349936 L1105.97951,643.349936 Z M1053.92038,159.398962 L1195.1789,197.186377 L1141.54575,250.866038 L1142.74598,252.067309 L1197.07297,197.692627 L1258.31843,214.076822 C1258.50075,216.448475 1259.45236,218.77322 1261.26528,220.58714 C1263.08792,222.411928 1265.42722,223.366653 1267.81111,223.540551 L1341.11659,497.699809 C1340.61993,498.04589 1340.13641,498.42 1339.69404,498.862754 C1336.50885,502.050699 1335.88245,506.787712 1337.73023,510.63178 L1136.94316,711.593581 C1133.10185,709.743051 1128.36951,710.371144 1125.18433,713.558517 C1124.74482,713.999555 1124.37275,714.480636 1124.02925,714.974873 L990.199018,678.993941 L1038.47513,630.75661 L1101.66954,648.412436 C1101.17173,651.795445 1102.18392,655.362648 1104.77985,657.960826 C1109.13554,662.319725 1116.2209,662.318581 1120.57602,657.959682 C1124.72653,653.806144 1124.87513,647.198581 1121.11669,642.811081 L1220.66778,543.174216 L1219.46755,541.972945 L1119.91703,641.609809 C1115.53277,637.848114 1108.92864,637.995127 1104.7787,642.148665 C1103.45045,643.478072 1102.57828,645.074047 1102.0599,646.75697 L965.864066,608.706419 L1073.6333,500.84428 L1072.43307,499.643008 L963.987706,608.181864 L893.663936,588.53536 L876.752121,517.049428 L928.88326,466.114958 L927.697319,464.899386 L876.296605,515.121102 L842.259221,371.243708 L1053.92038,159.398962 Z M1354.77636,299.570148 C1358.46906,295.873665 1364.47993,295.873665 1368.17435,299.571292 C1371.86649,303.266631 1371.86649,309.28214 1368.17321,312.978623 C1364.47993,316.674534 1358.46906,316.675106 1354.77693,312.979767 C1351.0825,309.28214 1351.08308,303.266631 1354.77636,299.570148 L1354.77636,299.570148 Z M1109.46074,103.810424 L1321.28308,160.835911 L1357.75693,295.772987 C1356.23206,296.310127 1354.79293,297.151017 1353.57613,298.368877 C1349.221,302.728347 1349.22215,309.821568 1353.57727,314.181038 C1357.93296,318.539936 1365.01775,318.538792 1369.37287,314.179894 C1373.72856,309.820424 1373.7297,302.729492 1369.37401,298.370021 C1366.66378,295.657436 1362.89506,294.636356 1359.38581,295.299915 L1322.79365,159.919513 L1322.66848,159.449301 L1110.84615,102.423242 L1162.60808,50.6169915 L1374.45156,107.620742 L1433.48059,327.888686 L1330.31795,431.029831 L1274.37465,221.803284 C1274.8959,221.446335 1275.39942,221.050487 1275.8618,220.58714 C1279.89228,216.553157 1279.89285,210.012521 1275.8618,205.977966 C1271.83074,201.943983 1265.29577,201.943983 1261.26528,205.977966 C1260.79205,206.45161 1260.38454,206.965869 1260.02219,207.50072 L1059.46601,153.847945 L1109.46074,103.810424 Z M879.622957,789.481144 L931.712374,737.433496 L1003.08206,756.720763 L898.815781,861.42928 L879.622957,789.481144 Z M560.481761,1121.87059 C561.457948,1121.38436 562.39127,1120.77858 563.20514,1119.964 C567.247058,1115.91915 567.247058,1109.36021 563.20514,1105.31479 C559.163794,1101.26936 552.610537,1101.26936 548.568619,1105.31479 C547.747319,1106.13623 547.137488,1107.07894 546.649965,1108.06627 L485.173606,1091.57854 L589.595343,987.066229 L653.277269,1004.14544 C653.07323,1007.03536 654.031128,1009.99106 656.238408,1012.20025 C660.280898,1016.24625 666.833011,1016.24625 670.875501,1012.20025 C674.917418,1008.1554 674.917418,1001.59646 670.875501,997.551038 C668.544196,995.21714 665.380161,994.275 662.341293,994.633665 L645.37061,931.243157 L805.004649,771.470085 L876.684108,791.637712 L896.04382,864.212797 L843.524035,916.95661 L682.621181,1077.99845 L576.959778,1183.57246 L560.481761,1121.87059 Z M428.010073,1148.79222 L444.498949,1210.38311 C443.491899,1210.87335 442.531715,1211.49458 441.695554,1212.33203 C438.064572,1215.96559 437.724507,1221.61214 440.615919,1225.65871 L347.390042,1318.96487 C345.062739,1317.29911 342.216479,1316.69447 339.513675,1317.19157 L322.692163,1254.20091 L428.010073,1148.79222 Z M654.041415,1000.8328 L592.36616,984.292436 L642.597507,934.018093 L659.080667,995.582097 C658.059329,996.074619 657.085999,996.703284 656.238408,997.551038 C655.268508,998.52178 654.544941,999.642394 654.041415,1000.8328 L654.041415,1000.8328 Z M735.244987,749.399873 L787.365838,697.233814 L856.308773,715.252309 L875.474162,787.101483 L735.244987,749.399873 Z M628.340487,867.631271 C629.433268,867.131886 630.468895,866.464322 631.369068,865.563941 C634.990905,861.93839 635.340687,856.308432 632.46985,852.264153 L733.859578,750.786483 L804.337092,769.735106 L644.863084,929.348581 L628.340487,867.631271 Z M712.692662,677.960847 L731.528274,748.315297 L630.074534,849.856462 C626.03033,846.940233 620.370959,847.272585 616.731975,850.914725 C612.690629,854.960148 612.690629,861.518517 616.731975,865.564513 C619.010698,867.844068 622.082716,868.791356 625.057,868.501335 L642.090552,932.122945 L590.473226,983.785042 L527.114219,966.793347 C527.481718,963.743263 526.540967,960.565614 524.202232,958.225424 C521.863498,955.884661 518.688032,954.943093 515.641162,955.310911 L498.723633,892.115466 L712.692662,677.960847 Z M783.515386,696.282521 L732.913111,746.928686 L714.077499,676.574237 L764.739214,625.868581 L783.515386,696.282521 Z M913.767791,658.445339 L850.521377,641.442203 C850.385923,638.993326 849.421738,636.580487 847.552808,634.709364 C845.687307,632.842818 843.282275,631.878941 840.840092,631.740508 L823.979716,568.610847 L875.33585,518.433178 L892.243663,589.900233 L962.610871,609.560466 L913.767791,658.445339 Z M855.805247,713.364597 L788.75639,695.842055 L834.213107,650.345911 C835.802555,651.503136 837.633763,652.137521 839.508408,652.272521 L855.805247,713.364597 Z M876.175439,789.729407 L821.72214,774.409195 L875.979973,788.997203 L876.175439,789.729407 Z M860.613026,718.220593 L929.820583,736.922097 L879.116575,787.58428 L860.613026,718.220593 Z M915.660153,658.954449 L964.487231,610.084449 L1036.5982,630.232055 L988.305512,678.485403 L915.660153,658.954449 Z M982.75702,684.028983 L932.65084,734.094534 L860.014626,714.464619 L859.5814,714.351356 L842.933636,651.945318 C844.622532,651.491123 846.227982,650.645085 847.552808,649.318538 C847.971174,648.900381 848.318669,648.44161 848.650161,647.974831 L982.75702,684.028983 Z M804.044465,493.971864 L857.024338,441.031843 L874.879762,516.504852 L823.476763,566.728284 L804.044465,493.971864 Z M748.13603,549.837267 L798.495972,499.516017 L834.308554,633.604195 C833.83875,633.937119 833.376947,634.288347 832.956866,634.709364 C829.356747,638.312034 828.994964,643.901949 831.824077,647.931928 L786.412512,693.382881 L748.13603,549.837267 Z M697.095386,613.137966 C697.834384,612.702648 698.545378,612.203263 699.180357,611.567733 C702.907357,607.8375 703.152547,601.993602 700.006229,597.930445 L745.23776,552.733475 L764.233402,623.972288 L713.570545,674.679089 L697.095386,613.137966 Z M481.663218,828.386886 C482.734852,827.889216 483.752762,827.233665 484.636931,826.348729 C488.275915,822.706017 488.607979,817.042309 485.693705,812.994025 L685.864089,612.647161 C688.720065,614.692182 692.360763,615.118347 695.544802,613.906208 L712.185708,676.065699 L498.216107,890.220318 L481.663218,828.386886 Z M681.642708,602.87911 C681.304929,605.429809 681.904473,608.062309 683.463629,610.245191 L483.288101,810.596631 C479.246755,807.723877 473.622248,808.073962 469.999839,811.698941 C465.957921,815.744364 465.957921,822.303305 469.999839,826.348729 C472.293422,828.644301 475.392301,829.589873 478.385447,829.279831 L495.443575,892.995254 L444.130307,944.35303 L405.231991,799.673644 L565.682758,638.874915 L618.606621,585.973792 L681.642708,602.87911 Z M690.226068,594.041186 C688.146241,594.372966 686.145857,595.313962 684.543264,596.917945 C683.733395,597.728517 683.131565,598.658072 682.645758,599.629958 L621.380867,583.2 L673.402842,531.200975 L690.226068,594.041186 Z M729.370146,479.462225 L797.779835,497.831377 L747.63079,547.942119 L729.370146,479.462225 Z M744.731949,550.837754 L698.870012,596.665106 C696.91135,594.850614 694.437733,593.911335 691.942397,593.891886 L674.788251,529.816081 L725.587135,479.039492 L744.731949,550.837754 Z M349.790502,1321.36742 L443.016379,1228.06125 C447.058868,1230.95574 452.701093,1230.61538 456.332075,1226.98125 C460.373993,1222.93583 460.373993,1216.37689 456.332075,1212.33146 C453.990483,1209.98784 450.80873,1209.0457 447.757288,1209.41809 L430.782605,1146.01672 L482.402217,1094.35233 L545.664062,1111.31828 C545.270272,1114.39125 546.210453,1117.60379 548.568619,1119.964 C550.934216,1122.33222 554.157691,1123.27265 557.237138,1122.86879 L574.188389,1186.34225 L361.359007,1398.99528 L344.831837,1337.10636 C346.245823,1336.60811 347.581507,1335.82729 348.71201,1334.69523 C352.34242,1331.0611 352.683057,1325.41398 349.790502,1321.36742 L349.790502,1321.36742 Z M1125.18433,728.167691 C1129.21539,732.202246 1135.75093,732.202818 1139.78084,728.168263 C1142.9666,724.980318 1143.59357,720.242161 1141.74465,716.397521 L1238.89528,619.162627 L1257.41311,687.99089 L1152.09749,793.397288 L934.543203,734.60536 L984.650526,684.538093 L1122.22491,721.525233 C1122.37979,723.94322 1123.33826,726.320021 1125.18433,728.167691 L1125.18433,728.167691 Z M896.550775,866.111377 L913.016218,927.836695 C911.847994,928.340657 910.74664,929.051695 909.792171,930.006992 C906.161761,933.640551 905.821124,939.287669 908.712535,943.334237 L601.501055,1250.81218 C599.400652,1249.30831 596.883598,1248.70367 594.422555,1248.96165 L577.46616,1185.46875 L683.821983,1079.19915 L844.724837,918.156737 L896.550775,866.111377 Z M1151.60425,796.856949 L1152.07806,796.983369 L1258.16926,690.800148 L1274.64156,752.024936 C1273.51392,752.52661 1272.44743,753.214195 1271.52268,754.140318 C1267.8917,757.774449 1267.55106,763.421568 1270.44418,767.467564 L1177.44235,860.550064 C1173.39986,857.654428 1167.75764,857.99536 1164.12608,861.630064 C1163.15161,862.605381 1162.42404,863.731716 1161.91937,864.928983 L1034.76985,830.744237 C1035.02647,827.799979 1034.076,824.769915 1031.82471,822.516674 C1027.7828,818.47125 1021.23011,818.47125 1017.18762,822.516674 C1013.14628,826.562097 1013.14628,833.12161 1017.18762,837.166462 C1019.48521,839.465466 1022.58923,840.410466 1025.58695,840.096992 L1042.67365,904.080699 L787.374983,1159.60081 L776.190552,1170.96311 L704.776287,1152.25246 L911.113567,945.73678 C915.156628,948.631271 920.798282,948.290339 924.428692,944.656208 C928.471181,940.610784 928.471181,934.051843 924.428692,930.006992 C922.20598,927.78178 919.226552,926.825911 916.32028,927.048432 L899.322163,863.327288 L1004.96985,757.231017 L1151.60425,796.856949 Z M1364.61596,573.336992 C1364.6754,570.983072 1365.58071,568.646314 1367.37077,566.854131 C1371.07605,563.145636 1377.10464,563.14678 1380.80763,566.854131 C1382.18218,568.229301 1383.0412,569.925953 1383.39613,571.704407 C1383.62074,574.390106 1382.75143,577.150742 1380.70247,579.202055 C1377.00919,582.898538 1370.9989,582.897966 1367.30676,579.203199 C1365.67387,577.568326 1364.80514,575.47697 1364.61596,573.336992 L1364.61596,573.336992 Z M686.148143,329.493242 L685.802934,329.839322 L579.918631,435.814894 L516.333295,418.740826 C516.588773,415.797712 515.638876,412.769364 513.388159,410.516695 C509.346241,406.471271 502.792984,406.471843 498.751066,410.516695 C494.709148,414.562119 494.70972,421.121059 498.751066,425.166483 C501.049221,427.466631 504.156103,428.411631 507.155535,428.096441 L524.161653,491.620233 L419.383847,596.488919 L400.236747,524.970953 L380.621557,451.522945 L539.609758,292.397415 L602.869317,309.35822 C602.458381,312.447203 603.39799,315.682055 605.769302,318.055424 C609.81122,322.100847 616.364476,322.100847 620.405823,318.055424 C624.447741,314.01 624.447741,307.451059 620.406394,303.406208 C618.232835,301.230763 615.336279,300.264597 612.490591,300.429343 L595.457039,236.501123 L647.707058,184.206356 L719.230487,203.297415 L738.918834,276.67678 L686.148143,329.493242 Z M526.934185,488.845869 L510.430449,427.196059 C511.495796,426.698962 512.508562,426.046271 513.388159,425.165911 C514.315194,424.238072 515.003326,423.167797 515.505136,422.036314 L577.147814,438.588114 L526.934185,488.845869 Z M365.270614,650.649661 L326.200265,505.991441 L377.849597,454.297881 L396.957833,525.847309 L416.612459,599.263284 L365.270614,650.649661 Z M592.683936,239.276631 L609.167668,301.143814 C607.932002,301.649492 606.772351,302.401716 605.769302,303.406208 C604.961147,304.214492 604.36046,305.141186 603.875224,306.110784 L542.381147,289.623051 L592.683936,239.276631 Z M829.363606,81.9690254 C832.737395,78.5928814 838.22702,78.5928814 841.600809,81.9690254 C844.974028,85.3451695 844.974028,90.8401271 841.600809,94.2162712 C838.22702,97.5924153 832.737395,97.5924153 829.363606,94.2162712 C825.990959,90.8401271 825.990959,85.3451695 829.363606,81.9690254 L829.363606,81.9690254 Z M292.751565,619.098559 C296.124783,615.722415 301.614979,615.722415 304.988197,619.098559 C308.361415,622.474703 308.361415,627.969661 304.987626,631.345233 C301.614979,634.721949 296.124783,634.721949 292.751565,631.345233 C289.378347,627.969661 289.378347,622.475275 292.751565,619.098559 L292.751565,619.098559 Z M380.115746,449.627225 L363.632014,387.903623 C364.772804,387.400805 365.850153,386.706356 366.784618,385.771081 C370.424173,382.128369 370.755666,376.464089 367.840249,372.415233 L460.839225,279.336165 C464.882286,282.230657 470.524511,281.889725 474.155493,278.255593 C475.011657,277.398686 475.646064,276.413644 476.139302,275.379407 L537.716252,291.889449 L380.115746,449.627225 Z M682.760065,42.5730508 C686.133283,39.1969068 691.622908,39.1969068 694.996697,42.5730508 C698.369344,45.9491949 698.369344,51.4441525 694.996697,54.8202966 C691.622908,58.1964407 686.133283,58.1964407 682.760065,54.8202966 C679.386847,51.4441525 679.386847,45.9491949 682.760065,42.5730508 L682.760065,42.5730508 Z M953.507982,70.7091102 C952.083709,70.2692161 950.733736,69.5284322 949.608377,68.4020975 C945.915098,64.7056144 945.913955,58.69125 949.607234,54.9947669 C952.149436,52.4503602 955.780418,51.7004237 959.007323,52.6597246 C960.077242,53.121928 961.085435,53.7717585 961.958174,54.6458263 C965.663456,58.353178 965.663456,64.3852754 961.958174,68.0937712 C959.66402,70.3899153 956.480552,71.2565466 953.507982,70.7091102 L953.507982,70.7091102 Z M1479.61229,466.800254 C1483.30443,470.495021 1483.30557,476.509386 1479.61229,480.205869 C1475.91901,483.902352 1469.90929,483.902352 1466.21715,480.207585 C1462.52273,476.509958 1462.52273,470.493877 1466.21601,466.797966 C1469.90929,463.101483 1475.91787,463.102627 1479.61229,466.800254 L1479.61229,466.800254 Z M1082.45214,1052.84898 L1098.79984,1113.91761 C1097.85509,1114.39926 1096.95092,1114.98903 1096.16048,1115.78015 C1095.13914,1116.80237 1094.37957,1117.98648 1093.87376,1119.24896 L1032.63573,1102.70803 L1082.45214,1052.84898 Z M1426.51526,787.590572 C1429.88847,784.214428 1435.37867,784.214428 1438.75189,787.590572 C1442.12453,790.966716 1442.12453,796.461674 1438.75189,799.837818 C1435.37867,803.213962 1429.88847,803.213962 1426.51526,799.837818 C1423.14204,796.461674 1423.14204,790.966716 1426.51526,787.590572 L1426.51526,787.590572 Z M1012.1478,1214.56468 C1007.44975,1209.86256 999.808289,1209.86256 995.110245,1214.56468 C990.823709,1218.85494 990.494503,1225.57405 994.031753,1230.2939 L888.053145,1336.36443 L818.132309,1317.3975 L1029.86662,1105.47953 L1093.17876,1122.58163 C1093.03702,1125.40519 1094.00635,1128.27337 1096.16048,1130.42936 C1100.2024,1134.47479 1106.75508,1134.47422 1110.797,1130.42936 C1114.83949,1126.38394 1114.83949,1119.825 1110.797,1115.78015 C1108.40854,1113.38847 1105.14506,1112.44805 1102.03818,1112.88394 L1085.22295,1050.07462 L1244.50893,890.651059 L1318.34708,910.502352 L1425.43619,803.319788 C1430.15195,806.860106 1436.86524,806.530042 1441.15178,802.239788 C1445.84982,797.538242 1445.84982,789.890148 1441.15178,785.18803 C1436.4543,780.486483 1428.81227,780.486483 1424.11537,785.188602 C1419.82826,789.478856 1419.49905,796.197966 1423.0363,800.917818 L1317.33489,906.710911 L1181.67116,870.239174 C1181.98608,867.713072 1181.38596,865.112606 1179.84281,862.952606 L1272.84465,769.870678 C1276.88713,772.764025 1282.52879,772.423093 1286.15977,768.789534 C1290.20112,764.744682 1290.20112,758.185742 1286.15977,754.140318 C1283.90562,751.884788 1280.87647,750.934068 1277.93305,751.192627 L1260.93779,688.029216 L1366.83181,582.043347 C1371.22751,585.817055 1377.84764,585.667754 1382.00843,581.503919 C1384.75182,578.758157 1385.7663,574.93125 1385.06216,571.381208 C1384.81469,568.903157 1383.79563,566.489174 1381.9027,564.594597 C1377.54701,560.235127 1370.45993,560.233983 1366.10596,564.592309 C1363.71464,566.985127 1362.6853,570.198242 1362.91906,573.334703 C1362.86762,575.753835 1363.60891,578.164958 1365.10862,580.201398 L1260.18222,685.219386 L1241.66324,616.392267 L1342.53115,515.436864 C1346.37246,517.287394 1351.10479,516.659873 1354.29055,513.471928 C1358.32104,509.437945 1358.32104,502.896737 1354.29055,498.862754 C1352.44677,497.017373 1350.0766,496.058644 1347.66414,495.901907 L1330.82491,432.924407 L1433.98812,329.782119 L1469.65324,462.865805 C1467.9592,463.38178 1466.35261,464.258136 1465.01521,465.596695 C1460.66009,469.955593 1460.66123,477.049386 1465.01692,481.408284 C1469.37204,485.767754 1476.4574,485.76661 1480.81252,481.40714 C1485.16707,477.049386 1485.16822,469.957881 1480.8131,465.598411 C1478.2246,463.008814 1474.67649,461.995169 1471.30613,462.48197 L1435.37353,328.397225 L1489.61364,274.167839 L1488.41398,272.966568 L1434.86543,326.503792 L1375.96385,106.708347 L1375.83754,106.234703 L1304.95366,87.1608051 L1356.40524,35.6645975 L1355.20501,34.4633263 L1303.06244,86.6516949 L1163.99406,49.2298093 L1211.59347,1.58911017 L1210.39324,0.387266949 L1162.10112,48.7212712 L1161.75477,49.0684958 L1108.95493,101.913559 L967.272336,63.770339 C967.928462,60.2637712 966.909981,56.5015042 964.203748,53.7934958 C962.887495,52.4761017 961.31005,51.6066102 959.645159,51.0849153 C955.560947,49.3396398 950.648577,50.1141737 947.321653,53.4439831 C942.955102,57.81375 942.955102,64.9252754 947.321653,69.2950424 C948.979685,70.9539407 951.032651,71.9755932 953.180491,72.3754449 C956.970932,73.4788983 961.222033,72.5893856 964.203748,69.6045127 C965.425125,68.3826483 966.266429,66.9365466 966.802532,65.4052119 L1107.56895,103.301314 L1057.57194,153.341123 L986.077085,134.215169 C985.898193,131.836653 984.945439,129.505042 983.128519,127.685975 C979.097461,123.651992 972.561922,123.651992 968.531435,127.685975 C965.346252,130.873919 964.719847,135.611504 966.568201,139.456144 L766.42125,339.776695 C764.151101,338.682966 761.589467,338.473602 759.195293,339.140021 L742.494377,276.896441 L902.293019,116.959767 C903.880752,118.095254 905.688527,118.746801 907.550598,118.952161 C911.155861,119.751292 915.076613,118.774258 917.875435,115.973581 C922.229985,111.615254 922.229985,104.522606 917.874292,100.163708 C916.084806,98.3726695 913.83066,97.3590254 911.498213,97.0398305 C907.806647,96.119428 903.744154,97.0592797 900.864173,99.9417585 C896.703947,104.105593 896.555919,110.732606 900.324641,115.131547 L741.691366,273.902415 L722.764308,203.362627 L828.31369,97.7216949 C833.028308,101.237415 839.722735,100.899915 844.00127,96.6188136 C848.698742,91.9166949 848.698742,84.2680297 844.00127,79.5664831 C839.303226,74.8649364 831.661189,74.8649364 826.963717,79.5664831 C822.668608,83.8658898 822.347975,90.6027331 825.908086,95.3243008 L719.668857,201.655678 L647.198389,182.312924 L594.951799,234.604831 L576.399099,164.978008 L681.68786,58.3079873 C686.403621,61.8425847 693.112336,61.5108051 697.397158,57.222839 C702.09463,52.5207203 702.09463,44.8726271 697.397158,40.1705085 C692.699114,35.4689619 685.057077,35.4689619 680.359605,40.1705085 C676.070783,44.4630508 675.743863,51.1867373 679.285685,55.906589 L572.62066,163.974089 L592.178124,237.380339 L540.488213,289.115085 L477.073767,272.112521 C477.42069,269.081886 476.478224,265.931123 474.155493,263.606377 C470.113575,259.560953 463.560318,259.560953 459.5184,263.606377 C455.88799,267.240508 455.547353,272.887055 458.438765,276.933051 L365.434645,370.017839 C361.39387,367.146229 355.769935,367.496314 352.147526,371.121864 C348.10618,375.166716 348.105608,381.725657 352.147526,385.771081 C354.390813,388.016314 357.403962,388.96875 360.335953,388.721631 L377.343214,452.401589 L324.306187,505.484619 L363.88692,652.034555 L204.803843,811.255614 L185.773909,740.81822 L291.673072,634.827775 C296.388262,638.367521 303.10155,638.038602 307.388657,633.748347 C312.08613,629.046229 312.08613,621.398136 307.388657,616.696017 C302.690614,611.99447 295.048577,611.99447 290.351105,616.696017 C286.064568,620.986843 285.735934,627.705381 289.272041,632.425233 L181.986325,739.805148 L219.825581,879.875085 C219.162025,880.287521 218.525332,880.758305 217.949221,881.335487 C214.977794,884.308919 214.21079,888.636928 215.608201,892.329979 L14.2112965,1093.90157 C10.5208746,1092.50294 6.19775988,1093.27061 3.22633295,1096.24405 C-0.815584964,1100.29004 -0.815013425,1106.84841 3.22633295,1110.89441 C5.1169812,1112.78612 7.55916379,1113.75744 10.0344956,1113.87928 L46.2631569,1249.20133 L83.0827886,1386.04386 C81.9882931,1386.54381 80.9503797,1387.21195 80.0496356,1388.11405 C76.0077177,1392.1589 76.0077177,1398.71784 80.0496356,1402.76326 C84.0915535,1406.80811 90.6448101,1406.80811 94.6861565,1402.76326 C95.5909014,1401.85773 96.2613157,1400.81549 96.7614116,1399.71489 L370.498473,1473.12686 C370.218991,1476.094 371.166601,1479.15381 373.436751,1481.42593 C377.478097,1485.47078 384.031354,1485.47078 388.073272,1481.42593 C391.695109,1477.80095 392.044891,1472.171 389.175769,1468.12729 L481.80153,1375.42061 C485.844591,1378.31453 491.486245,1377.9736 495.116655,1374.34004 C496.11056,1373.3447 496.854131,1372.19663 497.358799,1370.97191 L624.714649,1405.46841 C624.617488,1408.23992 625.596532,1411.04231 627.711224,1413.15826 C631.75257,1417.20369 638.305827,1417.20369 642.348316,1413.15826 C645.978155,1409.5247 646.319363,1403.87873 643.427952,1399.83273 L736.136015,1307.04369 C740.179076,1309.93761 745.820729,1309.5961 749.450568,1305.96254 C750.370173,1305.04214 751.053732,1303.98102 751.5544,1302.85869 L888.113728,1339.90246 L889.061339,1340.16044 L996.432213,1232.69644 C1001.14797,1236.23619 1007.86069,1235.90727 1012.1478,1231.61701 C1016.84527,1226.91489 1016.84584,1219.2668 1012.1478,1214.56468 L1012.1478,1214.56468 Z" id="Fill-1" fill="url(#linearGradient-3)" mask="url(#mask-2)"></path>
                    </g>
                    <g id="Group-6" transform="translate(0.467322, 0.691529)">
                        <mask id="mask-5" fill="white">
                            <use xlink:href="#path-4"></use>
                        </mask>
                        <g id="Clip-5"></g>
                        <path d="M1201.87932,1478.00814 C1197.81409,1473.94742 1197.81409,1467.33875 1201.87932,1463.27803 C1205.94456,1459.21788 1212.56058,1459.21788 1216.62581,1463.27803 C1220.69047,1467.33875 1220.69047,1473.94685 1216.62523,1478.00814 C1212.56058,1482.06886 1205.94456,1482.06886 1201.87932,1478.00814 L1201.87932,1478.00814 Z M1306.97128,1260.27245 L1283.76052,1173.74428 L1239.66021,1008.92432 C1240.94734,1008.32608 1242.16977,1007.53968 1243.23131,1006.47874 C1244.34839,1005.36347 1245.17804,1004.07777 1245.78268,1002.71772 L1399.09801,1043.85736 C1398.86039,1047.32556 1400.01583,1050.87039 1402.66968,1053.52187 C1407.54109,1058.3873 1415.43795,1058.3873 1420.30935,1053.52187 C1421.30906,1052.5227 1422.05168,1051.37655 1422.64085,1050.17435 L1497.2596,1070.19541 L1306.97128,1260.27245 Z M1241.93101,1325.24108 L1164.83075,1304.4565 C1165.11246,1300.94254 1163.96331,1297.33708 1161.27339,1294.65015 C1156.40256,1289.78415 1148.50513,1289.78415 1143.63429,1294.64958 C1139.25816,1299.02085 1138.8482,1305.81312 1142.33399,1310.67969 L901.347656,1551.39846 C896.475676,1547.9154 889.675289,1548.3249 885.299726,1552.69618 C880.92359,1557.06745 880.513632,1563.85972 883.999997,1568.72686 L772.276563,1680.32625 C767.404584,1676.84318 760.604196,1677.25326 756.228633,1681.62454 C754.948944,1682.90223 754.026537,1684.39326 753.419616,1685.97923 L600.016683,1644.51015 C600.22796,1641.07055 599.067938,1637.5646 596.436416,1634.93601 C591.566155,1630.07058 583.668727,1630.07058 578.797893,1634.93601 C574.42233,1639.30614 574.012372,1646.0984 577.498164,1650.96555 L465.87951,1762.46084 C461.005241,1758.95147 454.184241,1759.3501 449.798372,1763.7311 C448.703622,1764.82521 447.891148,1766.0846 447.288807,1767.41606 L117.411895,1679.12119 C117.693026,1676.1929 116.960711,1673.20741 115.172582,1670.71093 L226.793526,1559.21277 C231.666078,1562.69584 238.465893,1562.28576 242.841456,1557.91506 C244.020946,1556.73688 244.901555,1555.37682 245.509622,1553.93098 L398.825525,1594.86473 C398.480266,1598.44159 399.621394,1602.13398 402.363421,1604.87297 C405.35337,1607.8596 409.481011,1608.99431 413.352142,1608.31485 L434.181585,1686.15996 L692.337512,1428.72418 L712.16897,1502.83685 C710.880692,1503.4351 709.657687,1504.2215 708.594429,1505.28301 C703.723595,1510.14843 703.723595,1518.03709 708.594429,1522.90252 C713.465836,1527.76795 721.363263,1527.76795 726.233525,1522.90252 C730.609088,1518.53181 731.020191,1511.74126 727.534971,1506.87469 L847.425512,1387.11669 L935.79047,1410.22218 L950.093214,1395.72084 L1256.91568,1089.23903 L1279.81038,1174.80121 L1303.63092,1263.60911 L1241.93101,1325.24108 Z M983.432118,1583.4524 L906.484734,1562.62091 C906.745252,1559.71779 906.012365,1556.76319 904.240268,1554.28844 L1145.22718,1313.56909 C1150.09916,1317.0493 1156.89783,1316.63922 1161.27282,1312.26909 C1162.41223,1311.13151 1163.25905,1309.81893 1163.8654,1308.42742 L1238.59409,1328.5743 L983.432118,1583.4524 Z M504.563335,1295.31531 L578.833392,1315.19452 L518.295801,1375.6649 L498.393917,1301.47845 C499.718839,1300.87677 500.973907,1300.06978 502.063504,1298.98139 C503.1531,1297.893 503.961566,1296.63933 504.563335,1295.31531 L504.563335,1295.31531 Z M231.856171,1536.85423 L211.907909,1461.01203 L597.442418,1075.905 L617.246392,1149.72771 C616.025678,1150.31851 614.862793,1151.06889 613.849348,1152.08064 C608.978514,1156.94663 608.978514,1164.83472 613.849348,1169.70072 C618.720182,1174.56557 626.617609,1174.56557 631.488443,1169.70072 C632.501888,1168.6884 633.25367,1167.52566 633.845705,1166.30573 L708.013273,1186.15807 L582.172608,1311.85844 L505.602545,1291.36325 C505.945514,1287.78868 504.803813,1284.09915 502.063504,1281.36188 C497.19267,1276.49645 489.295242,1276.49645 484.424408,1281.36188 C479.553574,1286.2273 479.553574,1294.11596 484.424408,1298.98139 C487.164718,1301.71866 490.858352,1302.85909 494.436901,1302.5165 L514.954295,1379.00269 L386.363587,1507.45063 L406.947971,1584.38121 C405.277791,1584.98346 403.702085,1585.91685 402.363421,1587.25403 C401.27497,1588.34127 400.467649,1589.5938 399.865308,1590.91554 L246.414852,1549.94518 C246.648459,1546.48213 245.492445,1542.94302 242.842029,1540.29555 C239.852652,1537.31006 235.726156,1536.17535 231.856171,1536.85423 L231.856171,1536.85423 Z M112.279397,1667.82153 C109.775558,1666.03252 106.780456,1665.30331 103.844901,1665.58813 L59.4686077,1500.9878 L35.8948469,1413.10414 L292.83693,1156.44677 L467.103088,1203.21022 L209.630807,1460.39721 L229.88482,1537.39471 C228.178568,1537.99409 226.567362,1538.9332 225.202933,1540.29555 C220.827943,1544.66625 220.416839,1551.4568 223.900914,1556.32337 L112.279397,1667.82153 Z M292.227145,1154.16647 L35.2839171,1410.82499 L15.9620447,1338.79415 C17.9087751,1338.2268 19.7570239,1337.23335 21.2920781,1335.70057 C26.1629123,1330.83515 26.1629123,1322.94649 21.2920781,1318.08106 C21.045874,1317.83513 20.7618804,1317.65669 20.501362,1317.43535 L261.772265,1076.43175 C261.993848,1076.69255 262.17249,1076.9768 262.418694,1077.22216 C267.289528,1082.08759 275.186955,1082.08759 280.057789,1077.22216 C281.523563,1075.75802 282.493493,1074.00676 283.076939,1072.15999 L433.166423,1112.79691 C432.84922,1116.34632 433.993211,1120.00154 436.712907,1122.71822 C441.583742,1127.58421 449.481169,1127.58421 454.352003,1122.71822 C459.222837,1117.85279 459.222837,1109.96413 454.352003,1105.0987 C451.583638,1102.33284 447.841907,1101.19641 444.229005,1101.57446 L403.276094,948.519145 C404.705223,947.911753 406.050185,947.044704 407.215933,945.880251 C411.591496,941.509546 412.001455,934.717852 408.516234,929.851282 L529.775212,808.726936 L505.781759,719.287054 L632.051278,593.157731 L651.948581,667.331601 C650.638545,667.931558 649.396073,668.730547 648.317356,669.808067 C643.446522,674.673493 643.446522,682.562152 648.317356,687.427578 C653.18819,692.293004 661.085617,692.293004 665.955879,687.427578 C667.035169,686.350058 667.835046,685.108966 668.436242,683.799813 L742.973689,703.75052 L680.031313,766.541798 L486.251472,960.358139 L485.832925,960.775649 L533.32227,1137.06513 L468.774413,1201.54075 L292.797423,1154.31918 L292.227145,1154.16647 Z M268.495928,1056.28831 L247.192399,977.58988 L502.441399,722.624278 L525.210129,807.507577 L405.623622,926.961881 C400.75107,923.480531 393.9524,923.890034 389.576837,928.260739 C384.706003,933.126737 384.706003,941.015396 389.576837,945.880822 C392.241568,948.542022 395.80752,949.693894 399.291595,949.443387 L440.284585,1102.65369 C438.997453,1103.25194 437.775021,1104.03777 436.712907,1105.0987 C435.603844,1106.20711 434.779919,1107.48481 434.17586,1108.83571 L283.680426,1068.08841 C283.599694,1065.0097 282.41047,1061.95272 280.057789,1059.60265 C276.918973,1056.46675 272.529096,1055.38237 268.495928,1056.28831 L268.495928,1056.28831 Z M1088.31852,121.504796 C1090.91282,118.913943 1094.45129,117.87989 1097.83631,118.309983 C1099.74296,118.804132 1101.55686,119.750108 1103.04783,121.239991 C1107.51271,125.699345 1107.51271,132.954876 1103.04783,137.41423 C1100.53769,139.922152 1097.14694,140.967072 1093.86269,140.655369 C1091.8318,140.19668 1089.89652,139.207809 1088.31852,137.631564 C1083.86795,133.185936 1083.86795,125.950996 1088.31852,121.504796 L1088.31852,121.504796 Z M792.724676,561.378897 C794.707478,560.748628 796.585501,559.708283 798.155482,558.140045 C799.034946,557.261558 799.712293,556.268112 800.296885,555.235202 L872.461611,574.573942 L812.350582,634.540448 L792.724676,561.378897 Z M775.194941,548.508137 C775.162305,551.99292 776.462606,555.488568 779.119321,558.141761 C782.279895,561.298254 786.630265,562.517042 790.740729,561.87133 L810.680974,636.206486 L746.317485,700.415012 L669.490912,679.85291 C669.848195,676.265752 668.70764,672.556773 665.955879,669.808067 C663.204691,667.059933 659.491589,665.920645 655.899871,666.27753 L635.392211,589.821079 L697.575362,527.706968 L775.194941,548.508137 Z M775.90149,544.467437 L700.914577,524.37146 L826.845136,398.58072 L872.757628,570.423431 L801.785561,551.40383 C802.685638,547.106904 801.487826,542.45538 798.155482,539.126736 C792.906753,533.883834 784.366904,533.883834 779.119321,539.125592 C777.571097,540.671524 776.536467,542.517721 775.90149,544.467437 L775.90149,544.467437 Z M910.913545,409.231811 C910.322656,409.644174 909.74608,410.087993 909.218172,410.614743 C904.360507,415.467014 904.360507,423.33394 909.218172,428.186212 C911.364729,430.329813 914.105038,431.469674 916.908903,431.719036 L960.306105,593.885228 L877.521965,571.699983 L830.690501,396.418817 L891.214923,335.961021 L910.913545,409.231811 Z M1170.37607,173.098788 C1175.00471,175.323604 1180.70863,174.568653 1184.54655,170.734993 C1185.11053,170.17164 1185.59435,169.559672 1186.02721,168.924256 L1267.5769,190.695994 L1012.52887,445.460276 L1032.02366,527.699533 L968.119938,591.428208 L924.859579,429.776183 C925.548378,429.321497 926.20225,428.791888 926.8086,428.186212 C930.647094,424.351979 931.402311,418.654964 929.175595,414.031465 L1170.37607,173.098788 Z M1332.59598,773.369523 C1337.04712,768.923895 1344.2901,768.923323 1348.74239,773.371239 C1353.19124,777.815151 1353.19124,785.050664 1348.74124,789.496292 C1344.2901,793.94192 1337.04655,793.94192 1332.59712,789.497436 C1328.14541,785.050664 1328.14541,777.815151 1332.59598,773.369523 L1332.59598,773.369523 Z M1269.85915,191.305674 L1440.09157,236.753684 L1375.45783,301.316236 L1376.90413,302.760936 L1442.3744,237.363363 L1516.18182,257.068139 C1516.40169,259.921508 1517.54911,262.717112 1519.73346,264.899033 C1521.9304,267.094108 1524.74915,268.241976 1527.62287,268.451303 L1615.96321,598.191305 C1615.36545,598.607099 1614.78257,599.05721 1614.24894,599.590251 C1610.41044,603.424483 1609.65523,609.121499 1611.88252,613.745569 L1369.91079,855.448067 C1365.28215,853.223251 1359.57881,853.978202 1355.74088,857.811862 C1355.21011,858.342043 1354.76294,858.920839 1354.3484,859.515076 L1193.06751,816.240408 L1251.24669,758.223046 L1327.40279,779.458312 C1326.80216,783.527609 1328.0223,787.817099 1331.15081,790.942136 C1336.40012,796.185037 1344.93825,796.183894 1350.18698,790.940992 C1355.18778,785.945738 1355.36814,777.998741 1350.83856,772.721524 L1470.80869,652.884597 L1469.36238,651.439897 L1349.39225,771.276824 C1344.10917,766.752269 1336.15048,766.928996 1331.14967,771.924251 C1329.54877,773.523373 1328.49696,775.443349 1327.87286,777.467417 L1163.7423,731.702556 L1293.61556,601.97292 L1292.16926,600.528791 L1161.48066,731.072287 L1076.73204,707.441769 L1056.35149,621.463793 L1119.17592,560.203004 L1117.74621,558.741146 L1055.80182,619.144608 L1014.78364,446.09798 L1269.85915,191.305674 Z M1632.4251,359.894091 C1636.87567,355.448463 1644.11866,355.448463 1648.57094,359.895806 C1653.02037,364.340291 1653.02037,371.575231 1648.5698,376.020859 C1644.11866,380.467059 1636.87567,380.467059 1632.42625,376.022575 C1627.97396,371.575231 1627.97396,364.340291 1632.4251,359.894091 L1632.4251,359.894091 Z M1336.79118,124.447958 L1592.06194,193.034052 L1636.01682,355.327213 C1634.18002,355.972924 1632.44514,356.984672 1630.97822,358.44939 C1625.7295,363.692292 1625.73121,372.224374 1630.97994,377.467276 C1636.22867,382.710177 1644.7668,382.708461 1650.0161,377.46556 C1655.26483,372.222658 1655.26598,363.694007 1650.01725,358.451106 C1646.75075,355.188234 1642.20914,353.960295 1637.98016,354.758141 L1593.8827,191.931939 L1593.73097,191.366298 L1338.46193,122.77906 L1400.84033,60.4704925 L1656.13628,129.03085 L1727.27325,393.953789 L1602.95046,518.005284 L1535.53118,266.361463 C1536.15985,265.931942 1536.7662,265.456095 1537.32389,264.899033 C1542.18098,260.046761 1542.18155,252.180408 1537.32389,247.328136 C1532.46622,242.475864 1524.59112,242.475864 1519.73346,247.328136 C1519.16318,247.89778 1518.67249,248.516039 1518.23562,249.159462 L1276.54274,184.630082 L1336.79118,124.447958 Z M1059.81094,949.125965 L1122.58441,886.526856 L1208.59325,909.724421 L1082.94039,1035.661 L1059.81094,949.125965 Z M675.209719,1348.90248 C676.386346,1348.31682 677.510869,1347.58875 678.491678,1346.60903 C683.362512,1341.74361 683.362512,1333.85495 678.491678,1328.98952 C673.620844,1324.1241 665.723416,1324.1241 660.852582,1328.98952 C659.863185,1329.97839 659.128008,1331.11139 658.540553,1332.29929 L584.45429,1312.46926 L710.294383,1186.76832 L787.038506,1207.3104 C786.792874,1210.78603 787.947171,1214.34116 790.607321,1216.99893 C795.478155,1221.86436 803.375582,1221.86436 808.246416,1216.99893 C813.11725,1212.13293 813.11725,1204.24485 808.246416,1199.37885 C805.436254,1196.57238 801.624097,1195.43824 797.961954,1195.87004 L777.509833,1119.62807 L969.887455,927.464038 L1056.26961,951.720821 L1079.6006,1039.00909 L1016.30781,1102.44551 L822.40201,1296.13546 L695.067515,1423.11353 L675.209719,1348.90248 Z M515.565797,1381.28127 L535.436762,1455.35849 C534.223491,1455.94872 533.066332,1456.69566 532.058612,1457.70283 C527.683049,1462.07354 527.272518,1468.86466 530.757166,1473.73123 L418.409633,1585.95403 C415.604624,1583.94998 412.17437,1583.22362 408.917604,1583.82129 L388.645842,1508.06031 L515.565797,1381.28127 Z M787.959195,1203.32632 L713.634171,1183.43281 L774.1689,1122.96586 L794.032421,1197.01105 C792.8014,1197.603 791.628209,1198.35909 790.607321,1199.37885 C789.43871,1200.54673 788.566689,1201.89478 787.959195,1203.32632 L787.959195,1203.32632 Z M885.819045,900.919526 L948.630303,838.177434 L1031.71447,859.849656 L1054.81185,946.264017 L885.819045,900.919526 Z M756.986713,1043.12014 C758.303619,1042.51904 759.552389,1041.71662 760.63626,1040.63395 C765.001517,1036.27354 765.422927,1029.50187 761.963472,1024.63758 L884.149437,902.58728 L969.083569,925.37763 L776.898903,1117.34892 L756.986713,1043.12014 Z M858.64097,814.997027 L881.339274,899.614949 L759.076585,1021.74132 C754.202888,1018.23423 747.383033,1018.63401 742.997737,1023.01444 C738.126903,1027.87987 738.126903,1035.76853 742.997737,1040.63395 C745.743199,1043.3758 749.445423,1044.51623 753.029697,1044.16678 L773.557397,1120.68671 L711.353061,1182.82199 L634.998284,1162.38514 C635.440879,1158.71734 634.306622,1154.89569 631.488443,1152.08121 C628.670265,1149.26559 624.843222,1148.13316 621.171344,1148.57526 L600.783351,1072.56778 L858.64097,814.997027 Z M943.990214,837.03357 L883.008882,897.947195 L860.310005,813.329273 L921.362907,752.344156 L943.990214,837.03357 Z M1100.95967,791.526079 L1024.74002,771.074932 C1024.57684,768.129482 1023.41567,765.227498 1021.16262,762.977517 C1018.91414,760.73154 1016.01581,759.573378 1013.07338,759.406374 L992.754094,683.478959 L1054.64466,623.128115 L1075.02006,709.083786 L1159.82078,732.730318 L1100.95967,791.526079 Z M1031.10755,857.578514 L950.306209,836.503389 L1005.08663,781.78436 C1007.00244,783.175299 1009.20912,783.938256 1011.46847,784.101257 L1031.10755,857.578514 Z M1055.65639,949.425086 L990.034397,930.99915 L1055.42107,948.54431 L1055.65639,949.425086 Z M1036.90193,863.418512 L1120.30445,885.912029 L1059.20116,946.845672 L1036.90193,863.418512 Z M1103.24021,792.137474 L1162.08243,733.360587 L1248.9839,757.592205 L1190.78582,815.627868 L1103.24021,792.137474 Z M1184.09938,822.296024 L1123.71581,882.510749 L1036.18107,858.901965 L1035.65832,858.765273 L1015.59611,783.707767 C1017.63102,783.161572 1019.56573,782.144105 1021.16262,780.548987 C1021.66648,780.045686 1022.08617,779.4932 1022.48525,778.931563 L1184.09938,822.296024 Z M968.730295,593.707357 L1032.57733,530.035303 L1054.095,620.80893 L992.147745,681.214108 L968.730295,593.707357 Z M901.353954,660.899081 L962.043848,600.375513 L1005.20229,761.648347 C1004.63602,762.0487 1004.07948,762.471358 1003.57219,762.978089 C999.234416,767.310475 998.798692,774.032964 1002.20833,778.880661 L947.481732,833.545928 L901.353954,660.899081 Z M839.844142,737.033535 C840.734485,736.509073 841.591619,735.908544 842.356569,735.143871 C846.848364,730.657636 847.144381,723.629163 843.352265,718.742575 L897.86129,664.382147 L920.753695,750.063291 L859.699075,811.050696 L839.844142,737.033535 Z M580.224159,995.919731 C581.5153,995.320919 582.742313,994.532224 583.807289,993.468431 C588.193158,989.087431 588.593383,982.275148 585.080679,977.40629 L826.309785,736.442157 C829.750917,738.902037 834.139077,739.41506 837.975281,737.956633 L858.029467,812.717878 L600.172421,1070.2892 L580.224159,995.919731 Z M821.221947,724.6941 C820.815424,727.761372 821.537432,730.92816 823.4166,733.553328 L582.182341,974.522609 C577.312652,971.068139 570.53345,971.487937 566.168766,975.848347 C561.297359,980.713773 561.297359,988.602433 566.168193,993.468431 C568.93255,996.229147 572.666837,997.36672 576.274014,996.99382 L596.830915,1073.62643 L534.993022,1135.39623 L488.11518,961.385329 L681.477046,767.98707 L745.256517,704.361343 L821.221947,724.6941 Z M831.565957,714.064171 C829.059828,714.463379 826.649317,715.595233 824.718046,717.52436 C823.741818,718.499504 823.016375,719.617059 822.431211,720.786088 L748.59974,701.025835 L811.292477,638.484491 L831.565957,714.064171 Z M878.739244,576.256566 L961.180416,598.34973 L900.745314,658.61936 L878.739244,576.256566 Z M897.252078,662.102426 L841.983255,717.220092 C839.622558,715.038171 836.641198,713.908033 833.634644,713.884584 L812.962085,636.819025 L874.179887,575.747546 L897.252078,662.102426 Z M421.302246,1588.84343 L533.649778,1476.62063 C538.52233,1480.10255 545.321573,1479.69248 549.697136,1475.32235 C554.567397,1470.45692 554.56797,1462.56826 549.697136,1457.70283 C546.874949,1454.88321 543.041035,1453.75078 539.364005,1454.19861 L518.907303,1377.94348 L581.115075,1315.80534 L657.351903,1336.21074 C656.877817,1339.90656 658.010356,1343.76996 660.852582,1346.60903 C663.70397,1349.45725 667.58827,1350.58911 671.299081,1350.10239 L691.727155,1426.44446 L435.243699,1682.20905 L415.326356,1607.77324 C417.030317,1607.17385 418.640378,1606.23417 420.002517,1604.87297 C424.37808,1600.50283 424.788038,1593.71114 421.302246,1588.84343 L421.302246,1588.84343 Z M1355.74088,875.383331 C1360.59855,880.235031 1368.47365,880.235603 1373.33188,875.383331 C1377.17038,871.549099 1377.92559,865.850368 1375.69773,861.226297 L1492.77525,744.27877 L1515.09165,827.06079 L1388.17456,953.83697 L1125.99577,883.125576 L1186.38106,822.907992 L1352.17436,867.392868 C1352.36044,870.301715 1353.51531,873.160231 1355.74088,875.383331 L1355.74088,875.383331 Z M1080.21039,1041.29167 L1100.0533,1115.53132 C1098.64535,1116.13699 1097.31871,1116.99203 1096.16842,1118.14104 C1091.79286,1122.51175 1091.38233,1129.30344 1094.86812,1134.17001 L724.642359,1503.98472 C722.111037,1502.17627 719.077573,1501.4482 716.112244,1501.75876 L695.677872,1425.39382 L823.848316,1297.58016 L1017.75527,1103.8885 L1080.21039,1041.29167 Z M1387.58023,957.997203 L1388.15051,958.149909 L1516.00261,830.439765 L1535.85353,904.076591 C1534.49368,904.680552 1533.20941,905.507566 1532.09462,906.620545 C1527.71849,910.991822 1527.30853,917.784087 1530.79489,922.650086 L1418.71704,1034.6035 C1413.84563,1031.12101 1407.04582,1031.53108 1402.66968,1035.90179 C1401.49478,1037.07539 1400.61817,1038.42973 1400.01068,1039.86985 L1246.78009,998.754799 C1247.08985,995.213967 1245.94471,991.569616 1243.23131,988.85923 C1238.36105,983.994376 1230.46363,983.993804 1225.59279,988.85923 C1220.72196,993.724656 1220.72196,1001.61389 1225.59279,1006.47931 C1228.36058,1009.2446 1232.10174,1010.38103 1235.71407,1010.00356 L1256.30533,1086.95874 L948.641182,1394.28129 L935.162936,1407.9476 L849.100845,1385.44322 L1097.76074,1137.05998 C1102.63329,1140.54134 1109.43196,1140.13126 1113.80752,1135.76113 C1118.67835,1130.89513 1118.67835,1123.00704 1113.80752,1118.14104 C1111.12848,1115.46497 1107.5379,1114.31596 1104.03551,1114.58305 L1083.55075,1037.94358 L1210.86864,910.338104 L1387.58023,957.997203 Z M1644.28356,689.16282 C1644.35513,686.331756 1645.4453,683.521282 1647.6033,681.365098 C1652.06819,676.905172 1659.33293,676.906888 1663.79609,681.365098 C1665.45196,683.019698 1666.48773,685.05978 1666.91544,687.199377 C1667.18627,690.42965 1666.13789,693.750287 1663.66898,696.216459 C1659.21784,700.662658 1651.97486,700.662087 1647.52601,696.218174 C1645.55752,694.251872 1644.51086,691.736515 1644.28356,689.16282 L1644.28356,689.16282 Z M826.65218,395.88406 L826.235351,396.299855 L698.633467,523.760065 L622.005576,503.224844 C622.313617,499.685156 621.168482,496.042521 618.456228,493.333278 C613.585394,488.467852 605.687967,488.467852 600.817132,493.333278 C595.946298,498.199277 595.946298,506.087364 600.817132,510.95279 C603.586643,513.719225 607.330663,514.856798 610.945284,514.477035 L631.439775,590.879153 L505.170829,717.008477 L482.095775,630.991609 L458.457887,542.652697 L650.056244,351.267067 L726.291354,371.66674 C725.796083,375.381439 726.928049,379.272865 729.785735,382.127378 C734.656569,386.992804 742.553997,386.992804 747.424831,382.126806 C752.295665,377.26138 752.295665,369.373293 747.425404,364.507867 C744.805906,361.891849 741.31496,360.729683 737.886424,360.927572 L717.358724,284.039312 L780.325721,221.142226 L866.519502,244.104155 L890.246711,332.359565 L826.65218,395.88406 Z M634.780708,587.542501 L614.891421,513.394368 C616.176263,512.796699 617.395833,512.012008 618.456228,510.95279 C619.573308,509.836378 620.402959,508.549531 621.008163,507.188333 L695.294252,527.096145 L634.780708,587.542501 Z M439.957649,782.148681 L392.873683,608.164084 L455.116954,545.989921 L478.144485,632.04568 L501.830469,720.345129 L439.957649,782.148681 Z M714.016646,287.377679 L733.881313,361.787186 C732.392064,362.39515 730.994998,363.299946 729.785735,364.507867 C728.81237,365.480151 728.088072,366.594847 727.50348,367.761016 L653.396032,347.930416 L714.016646,287.377679 Z M999.243577,98.178546 C1003.30824,94.1178283 1009.92426,94.1178283 1013.98949,98.178546 C1018.05472,102.238692 1018.05472,108.847939 1013.98949,112.908085 C1009.92483,116.968802 1003.30824,116.968802 999.243005,112.908085 C995.178346,108.847939 995.178346,102.238692 999.243577,98.178546 L999.243577,98.178546 Z M352.563766,744.202131 C356.628997,740.141414 363.24559,740.140842 367.310249,744.202131 C371.37548,748.262277 371.37548,754.870952 367.310249,758.93167 C363.245018,762.992388 356.628997,762.992388 352.563766,758.93167 C348.499107,754.870952 348.499107,748.262277 352.563766,744.202131 L352.563766,744.202131 Z M457.84753,540.372404 L437.982863,466.136193 C439.357598,465.531088 440.656182,464.695496 441.78185,463.571077 C446.168292,459.189506 446.567372,452.376651 443.054668,447.507793 L555.129086,335.557809 C560.001065,339.039731 566.80088,338.629656 571.176443,334.258951 C572.208211,333.22833 572.973161,332.043858 573.567486,330.799334 L647.774561,350.656244 L457.84753,540.372404 Z M822.568627,50.7956895 C826.633858,46.7349718 833.249879,46.7349718 837.31511,50.7956895 C841.379769,54.8564072 841.379769,61.4650823 837.31511,65.5258001 C833.249879,69.5859459 826.633858,69.5865178 822.568627,65.5258001 C818.503396,61.4650823 818.503396,54.8564072 822.568627,50.7956895 L822.568627,50.7956895 Z M1148.85096,84.6357664 C1147.1344,84.1061573 1145.50716,83.2156591 1144.15132,81.8613239 C1139.70018,77.4156959 1139.69904,70.1818991 1144.1496,65.7356991 C1147.21399,62.6752906 1151.58955,61.7733537 1155.47843,62.9275127 C1156.76728,63.4828587 1157.98284,64.2646898 1159.03465,65.3153291 C1163.49953,69.7752554 1163.49953,77.0302137 1159.03465,81.49014 C1156.26972,84.252 1152.43294,85.2940602 1148.85096,84.6357664 L1148.85096,84.6357664 Z M1782.86729,561.027159 C1787.31614,565.471643 1787.31786,572.70544 1782.86729,577.151068 C1778.41615,581.596696 1771.17316,581.596696 1766.72374,577.152783 C1762.27145,572.70544 1762.27145,565.469927 1766.72202,561.024299 C1771.17316,556.578099 1778.41443,556.579815 1782.86729,561.027159 L1782.86729,561.027159 Z M1304.24299,1265.88711 L1323.94448,1339.33634 C1322.80564,1339.91571 1321.71547,1340.62491 1320.76329,1341.5766 C1319.53227,1342.80626 1318.61673,1344.23094 1318.00809,1345.74885 L1244.20926,1325.85476 L1304.24299,1265.88711 Z M1718.87883,946.852535 C1722.94349,942.791817 1729.56008,942.791817 1733.62531,946.852535 C1737.68997,950.913253 1737.68997,957.521928 1733.62531,961.582646 C1729.56008,965.642791 1722.94349,965.642791 1718.87883,961.582646 C1714.8136,957.521928 1714.8136,950.913253 1718.87883,946.852535 L1718.87883,946.852535 Z M1219.51842,1460.38806 C1213.85687,1454.73394 1204.64769,1454.73394 1198.98671,1460.38863 C1193.821,1465.5486 1193.42422,1473.63 1197.68641,1479.307 L1069.97059,1606.88045 L985.708075,1584.06837 L1240.87233,1329.18798 L1317.17043,1349.75809 C1316.99923,1353.15365 1318.1667,1356.6024 1320.76329,1359.19611 C1325.63412,1364.06211 1333.53155,1364.06154 1338.40239,1359.19611 C1343.27322,1354.33069 1343.27379,1346.44203 1338.40239,1341.5766 C1335.52352,1338.70093 1331.59055,1337.56965 1327.8471,1338.09354 L1307.58278,1262.55103 L1499.54014,1070.8068 L1588.52404,1094.68268 L1717.57853,965.770904 C1723.26184,970.027795 1731.35165,969.63259 1736.51735,964.472046 C1742.1789,958.817354 1742.1789,949.618399 1736.51735,943.963134 C1730.85638,938.30787 1721.6472,938.30787 1715.98622,943.963134 C1710.82051,949.123677 1710.42372,957.204506 1714.68534,962.880931 L1587.30333,1090.12266 L1423.81404,1046.25776 C1424.19308,1043.21909 1423.46993,1040.09062 1421.61023,1037.4929 L1533.68751,925.540058 C1538.55949,929.020265 1545.35873,928.61019 1549.73429,924.240057 C1554.60513,919.374631 1554.60513,911.485971 1549.73429,906.620545 C1547.0186,903.907872 1543.36791,902.765151 1539.81971,903.076282 L1519.33896,827.107117 L1646.95344,699.634325 C1652.25084,704.172606 1660.22842,703.993591 1665.2424,698.985182 C1668.54841,695.682846 1669.77141,691.079937 1668.92286,686.810464 C1668.62456,683.830126 1667.3964,680.926426 1665.11529,678.647849 C1659.86656,673.404948 1651.32499,673.403804 1646.07798,678.644989 C1643.19682,681.522952 1641.95607,685.387497 1642.23834,689.159389 C1642.17536,692.069379 1643.06971,694.969075 1644.87731,697.41866 L1518.428,823.728142 L1496.11046,740.946694 L1617.66774,619.524371 C1622.29752,621.750331 1628.00087,620.99538 1631.83937,617.161148 C1636.69703,612.308876 1636.69703,604.44195 1631.83937,599.589679 C1629.6178,597.370582 1626.76126,596.217567 1623.85434,596.028258 L1603.56082,520.283862 L1727.88475,396.231223 L1770.86512,556.294993 C1768.82335,556.916111 1766.88692,557.970182 1765.27572,559.579599 C1760.02699,564.8225 1760.0287,573.354011 1765.27743,578.596912 C1770.52616,583.839813 1779.06429,583.838669 1784.31359,578.595768 C1789.56061,573.354011 1789.56232,564.82536 1784.31359,559.582458 C1781.19482,556.467716 1776.91888,555.248357 1772.85709,555.834015 L1729.55378,394.565757 L1794.91927,329.342051 L1793.47353,327.897351 L1728.94228,392.287751 L1657.95819,127.933312 L1657.80589,127.363096 L1572.38336,104.422328 L1634.38787,42.4866604 L1632.94213,41.0419599 L1570.10396,103.810361 L1402.51051,58.8021666 L1459.87321,1.50257994 L1458.42691,0.0578795258 L1400.2294,58.1901993 L1399.812,58.6077097 L1336.18254,122.166521 L1165.43882,76.2907055 C1166.22896,72.0727065 1165.00138,67.5481519 1161.7406,64.2909987 C1160.15402,62.7061749 1158.25309,61.6601112 1156.24682,61.0338456 C1151.32502,58.933711 1145.40525,59.8653883 1141.39555,63.8706286 C1136.13423,69.1261125 1136.13423,77.6793566 1141.39555,82.9348404 C1143.39381,84.9303114 1145.86788,86.1593935 1148.45646,86.6398164 C1153.02383,87.9672707 1158.14717,86.8966139 1161.7406,83.3071682 C1163.2121,81.8378747 1164.22612,80.0986293 1164.87255,78.2564361 L1334.51179,123.835419 L1274.25991,184.020403 L1188.10048,161.016151 C1187.88519,158.155919 1186.73662,155.351736 1184.54655,153.163524 C1179.68889,148.311824 1171.81322,148.311824 1166.95612,153.163524 C1163.11763,156.998328 1162.36184,162.695915 1164.59027,167.319986 L923.39037,408.252091 C920.654069,406.936648 917.567356,406.684426 914.682187,407.486274 L894.555856,332.624369 L1087.13044,140.263024 C1089.04454,141.629369 1091.22316,142.412344 1093.46762,142.659419 C1097.81169,143.619693 1102.5371,142.445517 1105.90952,139.076837 C1111.1571,133.835079 1111.1571,125.304712 1105.90837,120.061811 C1103.75208,117.907343 1101.03582,116.689128 1098.22452,116.304789 C1093.77624,115.197529 1088.87964,116.328238 1085.4093,119.794719 C1080.39533,124.803128 1080.21726,132.773573 1084.75887,138.063945 L893.587644,329.022913 L870.778262,244.182509 L997.97763,117.124368 C1003.65865,121.353234 1011.72727,120.947162 1016.8821,115.797485 C1022.54365,110.142793 1022.54365,100.943838 1016.8821,95.2891451 C1011.22112,89.6338808 1002.01194,89.6338808 996.350392,95.2885732 C991.173807,100.459411 990.787896,108.563117 995.078147,114.241258 L867.04741,242.129845 L779.712501,218.864792 L716.749512,281.758447 L694.391885,198.016153 L821.276914,69.7209218 C826.959077,73.971521 835.044306,73.5728843 840.207722,68.4152009 C845.869273,62.7605085 845.869273,53.5609811 840.207722,47.9062887 C834.546745,42.2510244 825.336992,42.2510244 819.676014,47.9062887 C814.507445,53.0691195 814.113518,61.1550952 818.382011,66.8320929 L689.837681,196.808232 L713.407434,285.096242 L651.114922,347.320164 L574.693155,326.870733 C575.111129,323.225238 573.975155,319.435616 571.176443,316.63944 C566.305037,311.774586 558.408182,311.774586 553.537348,316.63944 C549.162357,321.010145 548.751826,327.801838 552.236474,332.668408 L440.155758,444.624683 C435.285496,441.170786 428.508011,441.591728 424.142754,445.951566 C419.272493,450.816992 419.272493,458.705651 424.142754,463.571077 C426.846419,466.271169 430.477644,467.416748 434.01096,467.119344 L454.506596,543.710199 L390.590855,607.554977 L438.289759,783.814719 L246.576888,975.315307 L223.643831,890.597868 L351.264037,763.119929 C356.946772,767.376819 365.037155,766.981614 370.202861,761.821071 C375.864411,756.166378 375.864411,746.967423 370.202861,741.312159 C364.541884,735.656894 355.332703,735.656894 349.671153,741.312159 C344.505447,746.47213 344.10923,754.55353 348.371424,760.230528 L219.078748,889.379081 L264.680337,1057.84625 C263.879887,1058.34211 263.113219,1058.9089 262.418694,1059.60265 C258.837855,1063.17894 257.91373,1068.38353 259.597652,1072.82572 L16.8907496,1315.26258 C12.4441882,1313.58053 7.23382137,1314.5042 3.65298246,1318.08106 C-1.21785167,1322.94649 -1.21727911,1330.83515 3.65298246,1335.70057 C5.93122967,1337.97629 8.87480064,1339.1436 11.8578788,1339.29059 L55.5173174,1502.04702 L99.8890303,1666.63191 C98.5704067,1667.23358 97.3193461,1668.03715 96.2337576,1669.12153 C91.3629234,1673.98696 91.3629234,1681.87561 96.2337576,1686.74104 C101.105164,1691.60647 109.002019,1691.60647 113.872853,1686.74104 C114.963022,1685.65265 115.770915,1684.39783 116.373257,1683.07438 L446.257612,1771.3704 C445.921515,1774.93811 447.063215,1778.6185 449.798944,1781.35119 C454.669206,1786.21661 462.566633,1786.21661 467.437467,1781.35119 C471.802152,1776.99135 472.223561,1770.22025 468.765825,1765.35596 L580.391349,1653.85495 C585.262756,1657.3363 592.061426,1656.92565 596.436416,1652.55494 C597.634801,1651.35903 598.530869,1649.97725 599.139509,1648.50452 L752.617448,1689.99419 C752.500072,1693.32855 753.680134,1696.69838 756.228633,1699.24348 C761.099467,1704.1089 768.996322,1704.1089 773.867156,1699.24348 C778.242147,1694.87391 778.653823,1688.08279 775.169175,1683.21622 L886.893182,1571.61626 C891.765161,1575.09647 898.563258,1574.68582 902.938821,1570.31569 C904.047313,1569.20843 904.870093,1567.93245 905.474152,1566.58269 L1070.04387,1611.1362 L1071.185,1611.44675 L1200.57902,1482.1964 C1206.26233,1486.45386 1214.35271,1486.05751 1219.51842,1480.89754 C1225.1794,1475.24228 1225.17997,1466.04332 1219.51842,1460.38806 L1219.51842,1460.38806 Z" id="Fill-4" fill="#1F6EA3" mask="url(#mask-5)"></path>
                    </g>
                </g>
            </g>
        </g>
    </g>
</svg>