<svg width="30" height="30" viewBox="0 0 30 30" fill="none" xmlns="http://www.w3.org/2000/svg">
<g id="Check">
<g id="Group 177">
<path id="Path" d="M26.8476 2.2976L14.1515 15.6045L10.2516 10.3363C10.0581 10.0517 9.7201 9.89317 9.37092 9.92324C9.02174 9.95331 8.71754 10.1672 8.57843 10.4804C8.43932 10.7936 8.48766 11.1558 8.70436 11.424L13.2855 17.6157C13.453 17.8419 13.716 17.9829 14.0018 18H14.0592C14.3269 17.9968 14.581 17.8844 14.7595 17.6901L28.2452 3.56198C28.4772 3.3184 28.5581 2.97284 28.4575 2.65545C28.3568 2.33807 28.0898 2.09708 27.7571 2.02327C27.4244 1.94945 27.0765 2.05403 26.8444 2.2976H26.8476Z" fill="#3DB552"/>
<path id="Path_2" d="M26.1728 11.6983C25.6821 11.797 25.3641 12.2746 25.4623 12.7654C25.6106 13.5029 25.6855 14.2533 25.6861 15.0055C25.6861 21.183 20.6779 26.1909 14.5001 26.1909C8.32229 26.1909 3.31417 21.183 3.31417 15.0055C3.31382 11.0661 5.38597 7.41687 8.76934 5.3986C12.1527 3.38034 16.3484 3.29061 19.815 5.1624C20.2557 5.40282 20.808 5.2404 21.0484 4.79963C21.2889 4.35885 21.1264 3.80663 20.6856 3.56621C15.5405 0.782929 9.16986 1.77888 5.11979 5.99972C1.06972 10.2206 0.337832 16.6265 3.33151 21.6521C6.32518 26.6776 12.307 29.0846 17.9474 27.5335C23.5878 25.9823 27.4973 20.8551 27.5 15.0055C27.4991 14.1335 27.412 13.2636 27.24 12.4087C27.1413 11.918 26.6636 11.6 26.1728 11.6983Z" fill="#3DB552"/>
</g>
</g>
</svg>
