<?xml version="1.0" encoding="utf-8"?>
<!-- Generator: Adobe Illustrator 24.1.2, SVG Export Plug-In . SVG Version: 6.00 Build 0)  -->
<svg version="1.1" id="Layer_1" xmlns="http://www.w3.org/2000/svg" xmlns:xlink="http://www.w3.org/1999/xlink" x="0px" y="0px"
	 viewBox="0 0 200 60" style="enable-background:new 0 0 200 60;" xml:space="preserve">
<style type="text/css">
	.st0{fill-rule:evenodd;clip-rule:evenodd;fill:#BBBCBE;}
	.st1{fill-rule:evenodd;clip-rule:evenodd;fill:#212121;}
</style>
<g id="Page-1">
	<g id="Quote" transform="translate(-571.000000, -196.000000)">
		<g id="Group-20-Copy" transform="translate(101.000000, 135.000000)">
			<g id="softbank-c" transform="translate(470.000000, 61.000000)">
				<path id="Fill-1" class="st0" d="M0,24.8h39.7V15H0V24.8z M0,44.4h39.7v-9.8H0V44.4z"/>
				<path id="Fill-2" class="st1" d="M154.6,33.6v7.1c-1,1-2.3,2.1-4.3,2.1c-1.2,0-2.1-0.4-2.7-1c-0.6-0.6-0.8-1.4-0.8-2.5
					c0-1.8,1.1-2.9,2.6-3.8C150.9,34.6,152.8,34.1,154.6,33.6L154.6,33.6z M124.3,29.8h4.9c3.3,0,5.5,0.6,6.9,1.7
					c1.4,1.1,2.2,2.6,2.2,4.4c0,2.1-0.6,3.6-1.6,4.6c-1.4,1.4-3.2,2-6,2h-4.9c-1.2,0-1.5-0.3-1.5-2V29.8z M81.8,26.7
					c1.7,0,3,0.5,4,1.7c1.1,1.4,1.6,3.4,1.6,6.5c0,3.2-0.7,5.2-1.7,6.5c-0.9,1-2.1,1.7-3.8,1.7c-1.7,0-3-0.7-3.9-1.7
					c-1-1.3-1.6-3.3-1.6-6.5c0-3.1,0.6-5.1,1.6-6.5C79,27.2,80.2,26.7,81.8,26.7L81.8,26.7z M165.8,25.4c-1.3,1-2.7,1.4-4.4,1.7V28
					c2.1,0,2.3,0.2,2.3,2.6v9.7c0,2.4-0.2,2.6-2.3,2.6v1h7v-1c-1.9,0-1.9-0.2-1.9-2.6v-9.6c1.6-2.2,3.4-3.8,5.1-3.8
					c1.1,0,1.8,0.3,2.3,0.8c0.8,0.8,0.9,2,0.9,3.6v8.9c0,2.4-0.1,2.6-2,2.6v1h6.7v-1c-1.8,0-1.9-0.3-1.9-2.6v-9.2
					c0-2.1-0.5-3.5-1.4-4.4c-0.9-0.8-2.1-1.3-3.8-1.3c-2.2,0-4.2,1.3-5.8,3.3h-0.1l-0.1-3.1L165.8,25.4z M151.2,25.4
					c-2.1,0-3.5,0.5-4.5,1.1c-1.3,0.8-2.1,1.8-2.1,2.8c0,0.6,0.4,1.2,1.1,1.2c0.8,0,1.2-0.4,1.4-1c0.4-0.9,0.7-1.6,1.2-2
					c0.7-0.6,1.5-0.9,2.7-0.9c1.3,0,2.2,0.4,2.8,1.2c0.5,0.7,0.7,1.9,0.7,2.8v1.7l-2.3,0.5c-2.5,0.6-4.6,1.4-5.9,2.3
					c-1.7,1.2-2.5,2.6-2.5,4.4c0,1.5,0.6,2.6,1.6,3.4c1,0.8,2.4,1.2,3.7,1.2c2.6,0,4.2-0.9,5.5-2.2h0.1c0.4,1.3,1.2,2,2.6,2
					c1,0,1.7-0.2,2.4-0.5l-0.2-1c-0.3,0.2-0.7,0.3-1,0.3c-0.8,0-1.2-0.8-1.2-2.6V31c0-1.8-0.3-2.8-1.3-4
					C155,25.9,153.6,25.4,151.2,25.4L151.2,25.4z M81.9,25.4c-2.5,0-4.4,0.7-6,2.2c-1.6,1.6-2.4,4.1-2.4,7.2c0,3.6,0.9,6,2.5,7.5
					c1.6,1.4,3.5,2,5.9,2c2.5,0,4.4-0.6,6-2c1.5-1.5,2.5-3.8,2.5-7.4c0-3.1-0.9-5.6-2.5-7.1C86.3,26.2,84.6,25.4,81.9,25.4
					L81.9,25.4z M109.9,20.9c-0.5,4.2-2.2,5.2-4.7,5.4v0.9h3v13.1c0,3.1,1.9,4.1,3.9,4.1c1.6,0,2.9-0.5,3.9-1.4l-0.6-0.9
					c-0.8,0.6-1.5,1-2.5,1c-1.4,0-1.9-1-1.9-2.9V27.2h4.2v-1.3h-4.2v-5H109.9z M125.5,17.1h3.8c2.8,0,4.6,0.6,5.7,1.5
					c0.9,0.7,1.5,2.3,1.5,3.7c0,1.9-0.6,3.3-1.8,4.3c-1.4,1.2-3.7,1.7-6.4,1.7h-4v-9.8C124.3,17.4,124.4,17.1,125.5,17.1L125.5,17.1
					z M186.4,16.2c-1.5,0.9-2.8,1.4-4.8,1.7v0.8c2.1,0,2.4,0.3,2.4,2.6v18.9c0,2.3-0.1,2.6-2.4,2.6v1h7.4v-1c-2.2,0-2.2-0.3-2.2-2.6
					V36l2.2-2.3l6.5,10.1h4.6v-1c-1.2,0-2.1-0.1-3-1.5l-6.1-9.2l4.2-4.1c0.9-0.9,1.5-1.2,2.7-1.2v-1h-5.9v1c1.9,0,1.7,0.7,0.6,1.7
					l-5.7,5.6h-0.1V16.4L186.4,16.2z M101.6,16.2c-1.8,0-3.1,0.7-4,1.6c-1.3,1.4-1.9,3.2-1.9,5.6v2.5h-2.9v1.3h2.9v13
					c0,2.4-0.2,2.7-3,2.7v1h8.9v-1c-3,0-3.1-0.2-3.1-2.6V27.2h5v-1.3h-5v-2.3c0-2.8,0.5-4.3,1.3-5.3c0.6-0.6,1.1-0.9,1.9-0.9
					c1.2,0,1.7,0.8,2.2,1.7c0.4,0.9,0.8,1.7,1.8,1.7c0.7,0,1.1-0.4,1.1-1.2c0-0.7-0.6-1.7-1.7-2.5C104.2,16.7,103.3,16.2,101.6,16.2
					L101.6,16.2z M118.1,15.5v1.2c3,0,3.2,0.2,3.2,3.1v19.9c0,2.8-0.2,3-3.2,3v1.1h12.9c4.1,0,6.4-1,8-2.5c1.6-1.5,2.2-3.5,2.2-5.5
					c0-2.2-1.1-3.8-2.5-4.9c-1.7-1.3-4-2-6.6-2.1v-0.1c2.5-0.4,4.2-1.2,5.4-2.3c1.5-1.3,1.9-3.1,1.9-4.6c0-2-1-3.6-2.5-4.7
					c-2.1-1.4-4.5-1.8-8.1-1.8H118.1z M61.3,15c-3.1,0-5.2,0.8-6.7,1.9c-1.7,1.3-2.4,3-2.4,4.7c0,1.5,0.5,2.8,1.2,3.8
					c1.2,1.6,4.5,3.4,6.9,4.7c2.3,1.2,4.5,2.1,5.8,3.6c0.8,1,1.3,2,1.3,3.6c0,1.8-0.8,3.2-2,4.1c-1.2,1-3,1.5-4.8,1.5
					c-4.2,0-6.4-1.2-7.7-6.2l-1.4,0.4c0.5,1.8,1,3.5,1.3,5.9c2.3,0.8,5.1,1.4,7.4,1.4c3.5,0,6.2-1,7.8-2.6c1.5-1.4,2.2-3.2,2.2-5.3
					c0-2-0.9-3.8-1.7-4.7c-1.7-2-4-2.9-7.1-4.5c-2.5-1.3-4.1-2.2-5.1-3.2c-0.8-0.7-1.3-2-1.3-3.2c0-1.2,0.5-2.3,1.4-3.1
					c1.1-1,2.7-1.5,4.7-1.5c4.7,0,5.5,1.4,6.4,5.6l1.4-0.4c-0.4-1.8-0.7-3.9-1-5.6C66,15.3,63.9,15,61.3,15L61.3,15z"/>
			</g>
		</g>
	</g>
</g>
</svg>
