<svg viewBox="0 0 24 24" xmlns="http://www.w3.org/2000/svg">
	<path d="m23.7 22.7-6.5-6.5c.7-.8 1.2-1.7 1.7-2.7 1-2.4 1-5.1-.1-7.5-1-2.4-2.9-4.3-5.4-5.3-2.4-1-5.1-1-7.5.1-2.4 1-4.3 2.9-5.3 5.4-1 2.4-1 5.1.1 7.5 1 2.4 2.9 4.3 5.4 5.3 1.2.5 2.4.7 3.7.7s2.6-.3 3.8-.8c.9-.4 1.8-.9 2.6-1.6l6.5 6.5c.1.1.3.2.5.2s.4-.1.5-.2c.3-.3.3-.8 0-1.1zm-10.6-5.2c-2 .9-4.3.9-6.4.1s-3.7-2.4-4.5-4.5c-.9-2-.9-4.3-.1-6.4s2.4-3.7 4.5-4.5c1-.4 2.1-.7 3.3-.7 1.1 0 2.1.2 3.1.6 2.1.8 3.7 2.4 4.5 4.5.9 2 .9 4.3.1 6.4-.4 1-1 2-1.8 2.8-.9.6-1.7 1.2-2.7 1.7z" fill="#e30f37"/>
</svg>
