<svg xmlns="http://www.w3.org/2000/svg" viewBox="0 0 680 250"><defs><style>.cls-1{fill:#fff;}.cls-10,.cls-11,.cls-12,.cls-16,.cls-2,.cls-3,.cls-4,.cls-5,.cls-7,.cls-8{fill:none;}.cls-2{stroke:#f36f4c;stroke-dasharray:3 3;}.cls-11,.cls-2,.cls-3,.cls-4,.cls-5,.cls-7,.cls-9{stroke-miterlimit:10;}.cls-16,.cls-3{stroke:#2cb04a;}.cls-4{stroke:#2aaf4a;}.cls-10,.cls-11,.cls-12,.cls-5,.cls-8,.cls-9{stroke:#000;}.cls-10,.cls-12,.cls-16,.cls-5,.cls-7,.cls-8{stroke-linecap:round;}.cls-6{fill:#010101;}.cls-7{stroke:#343434;}.cls-10,.cls-12,.cls-16,.cls-8{stroke-linejoin:round;}.cls-10{stroke-width:0.75px;}.cls-12{stroke-dasharray:2.98 2.24;}.cls-13{font-size:12px;font-family:ProximaNova-Regular, Proxima Nova;letter-spacing:-0.05em;}.cls-14{letter-spacing:-0.09em;}.cls-15{letter-spacing:-0.05em;}</style></defs><g id="Layer_2" data-name="Layer 2"><g id="Layer_1-2" data-name="Layer 1"><rect class="cls-1" width="680" height="250"/><line class="cls-2" x1="536.26" y1="75.75" x2="493.43" y2="75.75"/><line class="cls-3" x1="161.56" y1="75.75" x2="85.76" y2="75.75"/><line class="cls-3" x1="248.92" y1="75.75" x2="169.38" y2="75.75"/><line class="cls-4" x1="371.52" y1="125.46" x2="371.52" y2="161.78"/><polyline class="cls-4" points="465.51 125.46 465.51 161.78 582.25 161.78"/><rect class="cls-5" x="536.3" y="24.47" width="130.06" height="101.35"/><rect class="cls-6" x="543.29" y="15.47" width="116.06" height="18"/><path class="cls-1" d="M556.54,26.72h-1.45L554.8,28h-1.51l1.53-7.1h2l1.54,7.1h-1.54Zm-.72-4-.45,2.56h.9Z"/><path class="cls-1" d="M563.64,22.81v.91a2,2,0,0,1-2.11,2h-.82V28h-1.55v-7.1h2.36A2,2,0,0,1,563.64,22.81Zm-1.55-.07a.44.44,0,0,0-.46-.47h-.92v2h.91a.44.44,0,0,0,.47-.48Z"/><path class="cls-1" d="M569,22.81v.91a2,2,0,0,1-2.11,2H566V28h-1.55v-7.1h2.35A2,2,0,0,1,569,22.81Zm-1.55-.07a.44.44,0,0,0-.46-.47H566v2h.91a.44.44,0,0,0,.46-.48Z"/><path class="cls-1" d="M573.48,26.57V28h-3.69v-7.1h1.55v5.7Z"/><path class="cls-1" d="M574.25,20.87h1.55V28h-1.55Z"/><path class="cls-1" d="M576.73,26.1V22.74a2.37,2.37,0,0,1,4.68,0v.89h-1.57v-.91c0-.36-.26-.6-.77-.6s-.8.24-.8.6v3.4c0,.36.27.6.79.6s.78-.24.78-.6v-.91h1.57v.89a2.37,2.37,0,0,1-4.68,0Z"/><path class="cls-1" d="M585.28,26.72h-1.45L583.54,28H582l1.53-7.1h2l1.54,7.1h-1.54Zm-.72-4-.45,2.56h.9Z"/><path class="cls-1" d="M591.64,22.27h-1.47V28h-1.55v-5.7h-1.48v-1.4h4.5Z"/><path class="cls-1" d="M592.4,20.87h1.54V28H592.4Z"/><path class="cls-1" d="M594.87,26.1V22.74a2.38,2.38,0,0,1,4.71,0V26.1a2.07,2.07,0,0,1-2.34,2A2.09,2.09,0,0,1,594.87,26.1Zm3.17,0v-3.4c0-.36-.24-.6-.8-.6s-.82.24-.82.6v3.4c0,.36.24.6.81.6S598,26.48,598,26.12Z"/><path class="cls-1" d="M605.08,20.87V28h-1.36l-1.85-4v4h-1.35v-7.1h1.35l1.85,4.06V20.87Z"/><path class="cls-1" d="M606,25.87v-.28h1.55V26a.74.74,0,0,0,.83.73.68.68,0,0,0,.72-.69c0-1.27-3-1-3-3.27a2,2,0,0,1,2.22-2.08,1.94,1.94,0,0,1,2.21,2v.44H609v-.54c0-.31-.3-.49-.67-.49a.59.59,0,0,0-.65.6c0,1,3,.79,3,3.21a2.1,2.1,0,0,1-2.31,2.19A2.15,2.15,0,0,1,606,25.87Z"/><path class="cls-1" d="M616.54,26.72h-1.45L614.8,28h-1.51l1.53-7.1h2l1.54,7.1h-1.54Zm-.72-4-.45,2.56h.9Z"/><path class="cls-1" d="M623.73,20.87V28h-1.36l-1.85-4v4h-1.35v-7.1h1.35l1.85,4.06V20.87Z"/><path class="cls-1" d="M629.28,22.89V26A2.05,2.05,0,0,1,627,28h-2.3v-7.1H627A2.06,2.06,0,0,1,629.28,22.89Zm-1.55,0a.57.57,0,0,0-.62-.6h-.85v4.3h.84a.57.57,0,0,0,.63-.6Z"/><path class="cls-1" d="M635.24,26.72h-1.45L633.5,28H632l1.53-7.1h2l1.54,7.1h-1.54Zm-.72-4-.45,2.56h.9Z"/><path class="cls-1" d="M642.34,22.81v.91a2,2,0,0,1-2.11,2h-.82V28h-1.54v-7.1h2.35A2,2,0,0,1,642.34,22.81Zm-1.55-.07a.44.44,0,0,0-.46-.47h-.92v2h.91a.44.44,0,0,0,.47-.48Z"/><path class="cls-1" d="M643.18,20.87h1.55V28h-1.55Z"/><path class="cls-1" d="M645.53,26.44v-.12H647v.12a.41.41,0,0,0,.45.36c.25,0,.4-.12.4-.31,0-.62-2.2-.33-2.2-2.09a1.81,1.81,0,0,1,3.61-.06v.1h-1.46v-.1a.32.32,0,0,0-.35-.3c-.22,0-.34.12-.34.27,0,.6,2.21.36,2.21,2.13a1.71,1.71,0,0,1-1.89,1.68A1.72,1.72,0,0,1,645.53,26.44Z"/><path d="M137.75,18.1h2.19a1.5,1.5,0,1,1,0,3h-1.19v1.67h-1Zm2.05.86h-1.05v1.28h1.05a.64.64,0,1,0,0-1.28Z"/><path d="M142.24,19.39h.89v.46a1.46,1.46,0,0,1,1.08-.54v.87a1.42,1.42,0,0,0-.25,0,1.13,1.13,0,0,0-.83.39v2.23h-.89Z"/><path d="M144.71,21.08a1.79,1.79,0,1,1,1.79,1.78A1.72,1.72,0,0,1,144.71,21.08Zm2.66,0a.87.87,0,1,0-.87,1A.89.89,0,0,0,147.37,21.08Z"/><path d="M150.38,21.63l-.78,1.14h-1l1.2-1.73-1.13-1.65h1l.7,1,.69-1h1L150.93,21l1.21,1.73h-1Z"/><path d="M153.27,23.35a.45.45,0,0,0,.47-.24l.13-.29-1.38-3.43h1l.88,2.35.88-2.35h1l-1.59,3.94a1.22,1.22,0,0,1-1.28.81,3.27,3.27,0,0,1-.44,0l.13-.8A.92.92,0,0,0,153.27,23.35Z"/><path d="M160.53,22.42a1.38,1.38,0,0,1-1.07.44,1.13,1.13,0,0,1-1.18-1.12,1.07,1.07,0,0,1,1.18-1.08,1.36,1.36,0,0,1,1.07.41V20.6c0-.34-.29-.57-.74-.57a1.45,1.45,0,0,0-1,.4l-.34-.59a2.21,2.21,0,0,1,1.48-.53c.77,0,1.48.3,1.48,1.28v2.18h-.89Zm0-.88a.88.88,0,0,0-.71-.29c-.35,0-.64.18-.64.51s.29.49.64.49a.88.88,0,0,0,.71-.29Z"/><path d="M164.75,20.73c0-.47-.24-.63-.62-.63a.93.93,0,0,0-.77.4v2.27h-.89V19.39h.89v.44a1.53,1.53,0,0,1,1.18-.52,1,1,0,0,1,1.1,1.07v2.39h-.89Z"/><path d="M169,22.34a1.31,1.31,0,0,1-1,.52c-.85,0-1.5-.65-1.5-1.78a1.56,1.56,0,0,1,1.5-1.77,1.29,1.29,0,0,1,1,.51V18.1h.9v4.67H169Zm0-1.86a1,1,0,0,0-.77-.38,1,1,0,0,0,0,2,1,1,0,0,0,.77-.38Z"/><path d="M174.32,19.31a1.59,1.59,0,0,1,1.34.61l-.58.54a.83.83,0,0,0-.72-.36,1,1,0,0,0,0,2,.85.85,0,0,0,.72-.36l.58.54a1.57,1.57,0,0,1-1.34.62,1.78,1.78,0,1,1,0-3.55Z"/><path d="M176.12,21.08a1.79,1.79,0,1,1,1.79,1.78A1.71,1.71,0,0,1,176.12,21.08Zm2.66,0a.89.89,0,0,0-.87-1,1,1,0,0,0,0,2A.89.89,0,0,0,178.78,21.08Z"/><path d="M180.55,18.1h.89v4.67h-.89Z"/><path d="M182.48,18.1h.89v4.67h-.89Z"/><path d="M186,19.31a1.69,1.69,0,0,1,1.69,1.86v.19h-2.51a.91.91,0,0,0,1,.79,1.4,1.4,0,0,0,.91-.34l.39.58a2.11,2.11,0,0,1-1.4.47,1.78,1.78,0,0,1-.05-3.55Zm-.84,1.45h1.67A.78.78,0,0,0,186,20,.83.83,0,0,0,185.13,20.76Z"/><path d="M190.09,19.31a1.56,1.56,0,0,1,1.34.61l-.58.54a.82.82,0,0,0-.72-.36,1,1,0,0,0,0,2,.84.84,0,0,0,.72-.36l.58.54a1.54,1.54,0,0,1-1.34.62,1.78,1.78,0,1,1,0-3.55Z"/><path d="M192.5,21.93V20.17h-.56v-.78h.56v-.92h.9v.92h.68v.78h-.68v1.52c0,.21.11.37.31.37A.44.44,0,0,0,194,22l.19.67a1.08,1.08,0,0,1-.74.22A.85.85,0,0,1,192.5,21.93Z"/><path d="M146.45,28.93V27.17h-.56v-.78h.56v-.92h.9v.92H148v.78h-.69v1.52c0,.21.11.37.31.37A.5.5,0,0,0,148,29l.19.67a1.13,1.13,0,0,1-.75.22A.85.85,0,0,1,146.45,28.93Z"/><path d="M150.36,26.31a1.69,1.69,0,0,1,1.69,1.86v.19h-2.51a.91.91,0,0,0,1,.79,1.35,1.35,0,0,0,.9-.34l.4.58a2.11,2.11,0,0,1-1.4.47,1.78,1.78,0,0,1,0-3.55Zm-.84,1.45h1.67a.78.78,0,0,0-.83-.75A.83.83,0,0,0,149.52,27.76Z"/><path d="M152.89,25.1h.89v4.67h-.89Z"/><path d="M156.37,26.31a1.69,1.69,0,0,1,1.7,1.86v.19h-2.51a.9.9,0,0,0,1,.79,1.37,1.37,0,0,0,.9-.34l.39.58a2.07,2.07,0,0,1-1.39.47,1.78,1.78,0,1,1-.06-3.55Zm-.83,1.45h1.67a.79.79,0,0,0-.84-.75A.82.82,0,0,0,155.54,27.76Z"/><path d="M163.1,27.64c0-.32-.14-.54-.51-.54a.92.92,0,0,0-.7.39v2.28H161V27.64c0-.32-.13-.54-.5-.54a.9.9,0,0,0-.7.4v2.27h-.89V26.39h.89v.44a1.49,1.49,0,0,1,1.11-.52.91.91,0,0,1,.94.61,1.41,1.41,0,0,1,1.16-.61.9.9,0,0,1,1,1v2.44h-.89Z"/><path d="M166.59,26.31a1.69,1.69,0,0,1,1.69,1.86v.19h-2.51a.91.91,0,0,0,1,.79,1.4,1.4,0,0,0,.91-.34l.39.58a2.11,2.11,0,0,1-1.4.47,1.78,1.78,0,0,1,0-3.55Zm-.84,1.45h1.67a.78.78,0,0,0-.83-.75A.83.83,0,0,0,165.75,27.76Z"/><path d="M169.31,28.93V27.17h-.56v-.78h.56v-.92h.89v.92h.69v.78h-.69v1.52c0,.21.11.37.31.37a.5.5,0,0,0,.31-.09l.19.67a1.11,1.11,0,0,1-.75.22A.84.84,0,0,1,169.31,28.93Z"/><path d="M171.73,26.39h.89v.46a1.46,1.46,0,0,1,1.08-.54v.87a1.56,1.56,0,0,0-.25,0,1.13,1.13,0,0,0-.83.39v2.23h-.89Z"/><path d="M174.92,30.35a.46.46,0,0,0,.47-.24l.12-.29-1.37-3.43h1l.89,2.35.88-2.35h1l-1.59,3.94a1.22,1.22,0,0,1-1.28.81l-.44,0,.13-.8A.87.87,0,0,0,174.92,30.35Z"/><path d="M180.06,25.42a.53.53,0,1,1,.53.54A.53.53,0,0,1,180.06,25.42Zm.09,1H181v3.38h-.89Z"/><path d="M184.37,27.73c0-.47-.24-.63-.62-.63a1,1,0,0,0-.77.4v2.27h-.89V26.39H183v.44a1.55,1.55,0,0,1,1.18-.52,1,1,0,0,1,1.1,1.07v2.39h-.89Z"/><path d="M151.4,33.39h.89v.46a1.46,1.46,0,0,1,1.08-.54v.87a1.42,1.42,0,0,0-.25,0,1.13,1.13,0,0,0-.83.39v2.23h-.89Z"/><path d="M155.62,33.31a1.69,1.69,0,0,1,1.7,1.86v.19H154.8a.92.92,0,0,0,1,.79,1.39,1.39,0,0,0,.9-.34l.39.58a2.09,2.09,0,0,1-1.39.47,1.78,1.78,0,1,1-.06-3.55Zm-.83,1.45h1.66a.78.78,0,0,0-.83-.75A.82.82,0,0,0,154.79,34.76Z"/><path d="M160.19,36.42a1.38,1.38,0,0,1-1.07.44,1.13,1.13,0,0,1-1.18-1.12,1.07,1.07,0,0,1,1.18-1.08,1.38,1.38,0,0,1,1.07.41V34.6c0-.34-.3-.57-.74-.57a1.45,1.45,0,0,0-1,.4l-.34-.59a2.21,2.21,0,0,1,1.48-.53c.77,0,1.48.3,1.48,1.28v2.18h-.89Zm0-.88a.89.89,0,0,0-.72-.29c-.35,0-.63.18-.63.51s.28.49.63.49a.89.89,0,0,0,.72-.29Z"/><path d="M162.13,32.1H163v4.67h-.89Z"/><path d="M163.94,34.7h1.68v.76h-1.68Z"/><path d="M166.64,35.93V34.17h-.56v-.78h.56v-.92h.9v.92h.68v.78h-.68v1.52c0,.21.11.37.31.37a.44.44,0,0,0,.3-.09l.19.67a1.08,1.08,0,0,1-.74.22A.85.85,0,0,1,166.64,35.93Z"/><path d="M169,32.42a.54.54,0,1,1,.53.54A.54.54,0,0,1,169,32.42Zm.09,1h.89v3.38h-.89Z"/><path d="M175.19,34.64c0-.32-.14-.54-.5-.54a.88.88,0,0,0-.7.39v2.28h-.9V34.64c0-.32-.14-.54-.5-.54a.9.9,0,0,0-.7.4v2.27H171V33.39h.89v.44a1.49,1.49,0,0,1,1.1-.52.89.89,0,0,1,.94.61,1.44,1.44,0,0,1,1.16-.61.9.9,0,0,1,1,1v2.44h-.9Z"/><path d="M178.68,33.31a1.69,1.69,0,0,1,1.7,1.86v.19h-2.52a.92.92,0,0,0,1,.79,1.39,1.39,0,0,0,.9-.34l.39.58a2.07,2.07,0,0,1-1.39.47,1.78,1.78,0,1,1-.06-3.55Zm-.83,1.45h1.67a.79.79,0,0,0-.84-.75A.82.82,0,0,0,177.85,34.76Z"/><path d="M562.8,197.5h1.84a2.34,2.34,0,1,1,0,4.68H562.8Zm1.84,3.8a1.4,1.4,0,0,0,1.46-1.46,1.36,1.36,0,0,0-1.46-1.46h-.85v2.92Z"/><path d="M570.3,201.75a1.56,1.56,0,0,1-1.19.51A1,1,0,0,1,568,201.2v-2.41h.89v2.06a.54.54,0,0,0,.62.62,1,1,0,0,0,.77-.39v-2.29h.89v3.39h-.89Z"/><path d="M572.24,198.79h.89v.47a1.43,1.43,0,0,1,1.08-.54v.86l-.24,0a1.16,1.16,0,0,0-.84.38v2.24h-.89Z"/><path d="M577,201.83a1.41,1.41,0,0,1-1.07.43,1.13,1.13,0,0,1-1.18-1.12,1.08,1.08,0,0,1,1.18-1.08,1.36,1.36,0,0,1,1.07.41V200c0-.34-.29-.56-.74-.56a1.43,1.43,0,0,0-1,.4l-.33-.6a2.22,2.22,0,0,1,1.47-.53c.77,0,1.48.31,1.48,1.28v2.19H577Zm0-.89a.9.9,0,0,0-.71-.29c-.35,0-.64.18-.64.51s.29.5.64.5a.87.87,0,0,0,.71-.3Z"/><path d="M578.9,197.5h.89v1.73a1.27,1.27,0,0,1,1-.52c.86,0,1.5.67,1.5,1.78s-.64,1.77-1.5,1.77a1.3,1.3,0,0,1-1-.52v.44h-.89Zm1.65,4a1,1,0,0,0,0-2,1,1,0,0,0-.76.39v1.2A1,1,0,0,0,580.55,201.47Z"/><path d="M583.2,197.5h.89v4.68h-.89Z"/><path d="M586.69,198.71a1.69,1.69,0,0,1,1.69,1.86v.2h-2.51a.9.9,0,0,0,1,.78,1.39,1.39,0,0,0,.91-.33l.39.57a2.11,2.11,0,0,1-1.4.47,1.78,1.78,0,0,1,0-3.55Zm-.83,1.46h1.66a.77.77,0,0,0-.83-.75A.81.81,0,0,0,585.86,200.17Z"/><path d="M593.28,201.74a1.28,1.28,0,0,1-1,.52c-.85,0-1.5-.64-1.5-1.77s.64-1.78,1.5-1.78a1.27,1.27,0,0,1,1,.52V197.5h.9v4.68h-.9Zm0-1.85a1,1,0,0,0-.77-.39,1,1,0,0,0,0,2,1,1,0,0,0,.77-.39Z"/><path d="M596.78,198.71a1.7,1.7,0,0,1,1.7,1.86v.2H596a.91.91,0,0,0,1,.78,1.39,1.39,0,0,0,.9-.33l.39.57a2.09,2.09,0,0,1-1.39.47,1.78,1.78,0,1,1-.06-3.55Zm-.83,1.46h1.67a.78.78,0,0,0-.84-.75A.81.81,0,0,0,596,200.17Z"/><path d="M598.76,198.79h1l.88,2.36.88-2.36h1l-1.36,3.39h-1Z"/><path d="M603,197.83a.54.54,0,1,1,1.07,0,.54.54,0,0,1-1.07,0Zm.09,1h.89v3.39h-.89Z"/><path d="M606.56,198.71a1.56,1.56,0,0,1,1.34.61l-.58.54a.84.84,0,0,0-.71-.36,1,1,0,0,0,0,2,.85.85,0,0,0,.71-.37l.58.54a1.54,1.54,0,0,1-1.34.62,1.78,1.78,0,1,1,0-3.55Z"/><path d="M610.12,198.71a1.7,1.7,0,0,1,1.69,1.86v.2H609.3a.9.9,0,0,0,1,.78,1.35,1.35,0,0,0,.9-.33l.4.57a2.11,2.11,0,0,1-1.4.47,1.78,1.78,0,1,1,0-3.55Zm-.84,1.46H611a.78.78,0,0,0-.83-.75A.81.81,0,0,0,609.28,200.17Z"/><path d="M612.53,202.82a1.15,1.15,0,0,0,.54-.65l-.13,0a.48.48,0,0,1-.48-.51.56.56,0,0,1,.55-.56.65.65,0,0,1,.63.71,1.66,1.66,0,0,1-.72,1.31Z"/><path d="M618.58,200.13c0-.47-.24-.63-.62-.63a1,1,0,0,0-.77.4v2.28h-.89v-3.39h.89v.44a1.56,1.56,0,0,1,1.18-.52,1,1,0,0,1,1.1,1.08v2.39h-.89Z"/><path d="M622.06,198.71a1.7,1.7,0,0,1,1.7,1.86v.2h-2.52a.91.91,0,0,0,1,.78,1.39,1.39,0,0,0,.9-.33l.39.57a2.07,2.07,0,0,1-1.39.47,1.78,1.78,0,1,1-.06-3.55Zm-.83,1.46h1.67a.78.78,0,0,0-.84-.75A.81.81,0,0,0,621.23,200.17Z"/><path d="M624.78,201.34v-1.77h-.56v-.78h.56v-.92h.9v.92h.68v.78h-.68v1.53c0,.21.11.37.31.37a.46.46,0,0,0,.3-.1l.19.67a1.08,1.08,0,0,1-.74.22A.85.85,0,0,1,624.78,201.34Z"/><path d="M629.55,199.87l-.71,2.31h-1l-1-3.39h.92l.63,2.28.74-2.28h.8l.74,2.28.63-2.28h.92l-1,3.39h-.94Z"/><path d="M632.62,200.48a1.79,1.79,0,1,1,1.78,1.78A1.71,1.71,0,0,1,632.62,200.48Zm2.65,0a.87.87,0,1,0-.87,1A.89.89,0,0,0,635.27,200.48Z"/><path d="M637,198.79h.89v.47a1.43,1.43,0,0,1,1.08-.54v.86l-.24,0a1.16,1.16,0,0,0-.84.38v2.24H637Z"/><path d="M641,200.87l-.41.44v.87h-.89V197.5h.89v2.8l1.29-1.51H643l-1.34,1.54,1.38,1.85h-1.11Z"/><path d="M643.65,202.82a1.23,1.23,0,0,0,.54-.65l-.13,0a.48.48,0,0,1-.48-.51.56.56,0,0,1,.54-.56.66.66,0,0,1,.64.71,1.64,1.64,0,0,1-.73,1.31Z"/><path d="M562.32,205.71a1.69,1.69,0,0,1,1.69,1.86v.2H561.5a.9.9,0,0,0,1,.78,1.39,1.39,0,0,0,.91-.33l.39.57a2.11,2.11,0,0,1-1.4.47,1.78,1.78,0,0,1,0-3.55Zm-.84,1.46h1.67a.77.77,0,0,0-.83-.75A.82.82,0,0,0,561.48,207.17Z"/><path d="M567.13,207.13a.55.55,0,0,0-.63-.63,1,1,0,0,0-.77.4v2.28h-.89v-3.39h.89v.44a1.59,1.59,0,0,1,1.19-.52,1,1,0,0,1,1.1,1.08v2.39h-.89Z"/><path d="M568.54,205.79h1l.88,2.36.88-2.36h1l-1.36,3.39h-1Z"/><path d="M572.74,204.83a.54.54,0,1,1,1.07,0,.54.54,0,0,1-1.07,0Zm.09,1h.89v3.39h-.89Z"/><path d="M574.78,205.79h.89v.47a1.39,1.39,0,0,1,1.07-.54v.86l-.24,0a1.14,1.14,0,0,0-.83.38v2.24h-.89Z"/><path d="M577.25,207.48a1.79,1.79,0,1,1,1.79,1.78A1.72,1.72,0,0,1,577.25,207.48Zm2.66,0a.87.87,0,1,0-.87,1A.9.9,0,0,0,579.91,207.48Z"/><path d="M584,207.13c0-.47-.24-.63-.62-.63a1,1,0,0,0-.77.4v2.28h-.89v-3.39h.89v.44a1.58,1.58,0,0,1,1.18-.52,1,1,0,0,1,1.1,1.08v2.39H584Z"/><path d="M590.1,207a.47.47,0,0,0-.51-.54.92.92,0,0,0-.7.39v2.29H588V207a.47.47,0,0,0-.51-.54.93.93,0,0,0-.7.4v2.28h-.89v-3.39h.89v.44a1.49,1.49,0,0,1,1.11-.52.9.9,0,0,1,.94.62,1.42,1.42,0,0,1,1.16-.62.91.91,0,0,1,1,1v2.45h-.9Z"/><path d="M593.59,205.71a1.69,1.69,0,0,1,1.69,1.86v.2h-2.51a.91.91,0,0,0,1,.78,1.39,1.39,0,0,0,.91-.33l.39.57a2.11,2.11,0,0,1-1.39.47,1.78,1.78,0,1,1-.06-3.55Zm-.83,1.46h1.66a.77.77,0,0,0-.83-.75A.81.81,0,0,0,592.76,207.17Z"/><path d="M598.4,207.13a.55.55,0,0,0-.62-.63,1,1,0,0,0-.77.4v2.28h-.89v-3.39H597v.44a1.56,1.56,0,0,1,1.18-.52,1,1,0,0,1,1.1,1.08v2.39h-.89Z"/><path d="M600.52,208.34v-1.77H600v-.78h.56v-.92h.9v.92h.69v.78h-.69v1.53c0,.21.11.37.31.37a.49.49,0,0,0,.31-.1l.19.67a1.13,1.13,0,0,1-.75.22A.85.85,0,0,1,600.52,208.34Z"/><path d="M605,208.83a1.41,1.41,0,0,1-1.07.43,1.13,1.13,0,0,1-1.18-1.12,1.08,1.08,0,0,1,1.18-1.08,1.36,1.36,0,0,1,1.07.41V207c0-.34-.29-.56-.74-.56a1.41,1.41,0,0,0-1,.4l-.34-.6a2.26,2.26,0,0,1,1.48-.53c.77,0,1.48.31,1.48,1.28v2.19H605Zm0-.89a.91.91,0,0,0-.71-.29c-.35,0-.64.18-.64.51s.29.5.64.5a.89.89,0,0,0,.71-.3Z"/><path d="M606.9,204.5h.89v4.68h-.89Z"/><path d="M608.82,209.82a1.23,1.23,0,0,0,.54-.65l-.13,0a.48.48,0,0,1-.48-.51.56.56,0,0,1,.55-.56.65.65,0,0,1,.63.71,1.64,1.64,0,0,1-.73,1.31Z"/><path d="M612.59,204.5h.89v1.73a1.27,1.27,0,0,1,1-.52c.86,0,1.5.67,1.5,1.78s-.65,1.77-1.5,1.77a1.28,1.28,0,0,1-1-.52v.44h-.89Zm1.65,4a1,1,0,0,0,0-2,1,1,0,0,0-.76.39v1.2A1,1,0,0,0,614.24,208.47Z"/><path d="M618.43,205.71a1.7,1.7,0,0,1,1.7,1.86v.2h-2.52a.91.91,0,0,0,1,.78,1.37,1.37,0,0,0,.9-.33l.39.57a2.07,2.07,0,0,1-1.39.47,1.78,1.78,0,1,1-.06-3.55Zm-.83,1.46h1.67a.78.78,0,0,0-.84-.75A.81.81,0,0,0,617.6,207.17Z"/><path d="M623.25,207.12c0-.47-.24-.62-.63-.62a1,1,0,0,0-.77.4v2.28H621V204.5h.89v1.73a1.6,1.6,0,0,1,1.19-.52,1,1,0,0,1,1.1,1.06v2.41h-.89Z"/><path d="M627.23,208.83a1.41,1.41,0,0,1-1.07.43,1.13,1.13,0,0,1-1.18-1.12,1.08,1.08,0,0,1,1.18-1.08,1.36,1.36,0,0,1,1.07.41V207c0-.34-.29-.56-.74-.56a1.41,1.41,0,0,0-1,.4l-.34-.6a2.26,2.26,0,0,1,1.48-.53c.77,0,1.48.31,1.48,1.28v2.19h-.89Zm0-.89a.91.91,0,0,0-.71-.29c-.35,0-.64.18-.64.51s.29.5.64.5a.89.89,0,0,0,.71-.3Z"/><path d="M628.61,205.79h.95l.88,2.36.88-2.36h1l-1.36,3.39h-1Z"/><path d="M632.81,204.83a.54.54,0,0,1,.54-.54.54.54,0,0,1,0,1.07A.54.54,0,0,1,632.81,204.83Zm.09,1h.89v3.39h-.89Z"/><path d="M634.62,207.48a1.79,1.79,0,1,1,1.79,1.78A1.71,1.71,0,0,1,634.62,207.48Zm2.66,0a.88.88,0,1,0-.87,1A.9.9,0,0,0,637.28,207.48Z"/><path d="M639.05,205.79h.89v.47a1.43,1.43,0,0,1,1.08-.54v.86l-.25,0a1.14,1.14,0,0,0-.83.38v2.24h-.89Z"/><path d="M643.77,208.83a1.44,1.44,0,0,1-1.08.43,1.12,1.12,0,0,1-1.17-1.12,1.07,1.07,0,0,1,1.17-1.08,1.4,1.4,0,0,1,1.08.41V207c0-.34-.3-.56-.75-.56a1.43,1.43,0,0,0-1,.4l-.33-.6a2.22,2.22,0,0,1,1.48-.53c.77,0,1.47.31,1.47,1.28v2.19h-.88Zm0-.89a.92.92,0,0,0-.72-.29c-.35,0-.64.18-.64.51s.29.5.64.5a.89.89,0,0,0,.72-.3Z"/><path d="M645.7,204.5h.89v4.68h-.89Z"/><path d="M575.75,215.34v-1.77h-.56v-.78h.56v-.92h.9v.92h.69v.78h-.69v1.53c0,.21.11.37.31.37a.49.49,0,0,0,.31-.1l.19.67a1.11,1.11,0,0,1-.75.22A.85.85,0,0,1,575.75,215.34Z"/><path d="M579.66,212.71a1.69,1.69,0,0,1,1.69,1.86v.2h-2.51a.9.9,0,0,0,1,.78,1.39,1.39,0,0,0,.91-.33l.39.57a2.11,2.11,0,0,1-1.4.47,1.78,1.78,0,0,1-.05-3.55Zm-.84,1.46h1.67a.77.77,0,0,0-.83-.75A.83.83,0,0,0,578.82,214.17Z"/><path d="M582.19,211.5h.89v4.68h-.89Z"/><path d="M585.68,212.71a1.7,1.7,0,0,1,1.69,1.86v.2h-2.51a.9.9,0,0,0,1,.78,1.35,1.35,0,0,0,.9-.33l.4.57a2.11,2.11,0,0,1-1.4.47,1.78,1.78,0,1,1-.05-3.55Zm-.84,1.46h1.67a.78.78,0,0,0-.83-.75A.81.81,0,0,0,584.84,214.17Z"/><path d="M592.4,214a.47.47,0,0,0-.51-.54.92.92,0,0,0-.7.39v2.29h-.89V214a.47.47,0,0,0-.51-.54.9.9,0,0,0-.7.4v2.28h-.89v-3.39h.89v.44a1.49,1.49,0,0,1,1.11-.52.9.9,0,0,1,.94.62,1.42,1.42,0,0,1,1.16-.62.9.9,0,0,1,1,1v2.45h-.89Z"/><path d="M595.89,212.71a1.69,1.69,0,0,1,1.69,1.86v.2h-2.51a.91.91,0,0,0,1,.78,1.39,1.39,0,0,0,.91-.33l.39.57a2.11,2.11,0,0,1-1.4.47,1.78,1.78,0,0,1-.05-3.55Zm-.83,1.46h1.66a.77.77,0,0,0-.83-.75A.81.81,0,0,0,595.06,214.17Z"/><path d="M598.61,215.34v-1.77h-.56v-.78h.56v-.92h.89v.92h.69v.78h-.69v1.53c0,.21.11.37.31.37a.49.49,0,0,0,.31-.1l.19.67a1.08,1.08,0,0,1-.74.22A.84.84,0,0,1,598.61,215.34Z"/><path d="M601,212.79h.89v.47a1.43,1.43,0,0,1,1.08-.54v.86l-.25,0a1.16,1.16,0,0,0-.83.38v2.24H601Z"/><path d="M604.22,216.76a.45.45,0,0,0,.47-.25l.13-.28-1.38-3.44h1l.88,2.36.88-2.36h1l-1.59,3.94a1.23,1.23,0,0,1-1.28.82,2.2,2.2,0,0,1-.44-.05l.13-.8A.71.71,0,0,0,604.22,216.76Z"/><path d="M609.54,215.11a1.93,1.93,0,0,0,1.17.46c.38,0,.57-.13.57-.34s-.3-.32-.68-.4c-.58-.11-1.33-.25-1.33-1.06,0-.56.49-1.06,1.38-1.06a2.15,2.15,0,0,1,1.37.46l-.36.61a1.41,1.41,0,0,0-1-.39c-.32,0-.53.12-.53.31s.26.29.64.37c.58.11,1.36.26,1.36,1.1,0,.62-.52,1.09-1.46,1.09a2.3,2.3,0,0,1-1.52-.53Z"/><path d="M612.87,211.83a.54.54,0,1,1,1.07,0,.54.54,0,0,1-1.07,0Zm.09,1h.89v3.39H613Z"/><path d="M615.24,216.4a1.35,1.35,0,0,0,1.06.42.83.83,0,0,0,.93-.85v-.35a1.31,1.31,0,0,1-1.05.53c-.84,0-1.49-.59-1.49-1.72a1.52,1.52,0,0,1,1.49-1.72,1.3,1.3,0,0,1,1.05.52v-.44h.89v3.15c0,1.29-1,1.61-1.82,1.61a2,2,0,0,1-1.46-.51Zm2-2.51a1,1,0,0,0-.77-.39.93.93,0,0,0,0,1.86,1,1,0,0,0,.77-.38Z"/><path d="M621.46,214.13c0-.47-.24-.63-.62-.63a1,1,0,0,0-.77.4v2.28h-.89v-3.39h.89v.44a1.56,1.56,0,0,1,1.18-.52,1,1,0,0,1,1.1,1.08v2.39h-.89Z"/><path d="M625.44,215.83a1.41,1.41,0,0,1-1.08.43,1.12,1.12,0,0,1-1.17-1.12,1.07,1.07,0,0,1,1.17-1.08,1.4,1.4,0,0,1,1.08.41V214c0-.34-.3-.56-.75-.56a1.38,1.38,0,0,0-1,.4l-.34-.6a2.24,2.24,0,0,1,1.48-.53c.77,0,1.48.31,1.48,1.28v2.19h-.89Zm0-.89a.92.92,0,0,0-.72-.29c-.35,0-.64.18-.64.51s.29.5.64.5a.89.89,0,0,0,.72-.3Z"/><path d="M627.37,211.5h.89v4.68h-.89Z"/><path d="M629.43,215.11a1.93,1.93,0,0,0,1.17.46c.38,0,.57-.13.57-.34s-.3-.32-.68-.4c-.58-.11-1.33-.25-1.33-1.06,0-.56.49-1.06,1.38-1.06a2.15,2.15,0,0,1,1.37.46l-.36.61a1.41,1.41,0,0,0-1-.39c-.32,0-.53.12-.53.31s.26.29.64.37c.58.11,1.36.26,1.36,1.1,0,.62-.52,1.09-1.46,1.09a2.3,2.3,0,0,1-1.52-.53Z"/><line class="cls-7" x1="622.13" y1="191.52" x2="581.24" y2="191.52"/><line class="cls-7" x1="601.68" y1="185.83" x2="601.68" y2="191.52"/><path d="M331.58,224.57l-1.32,3.37h-.44l-1.31-3.37v3.37h-1v-4.67h1.4l1.13,2.91,1.14-2.91h1.4v4.67h-1Z"/><path d="M335.74,227.59a1.41,1.41,0,0,1-1.07.43,1.13,1.13,0,0,1-1.18-1.12,1.08,1.08,0,0,1,1.18-1.08,1.36,1.36,0,0,1,1.07.41v-.46c0-.35-.29-.57-.74-.57a1.41,1.41,0,0,0-1,.4l-.34-.6a2.26,2.26,0,0,1,1.48-.53c.77,0,1.48.31,1.48,1.28v2.19h-.89Zm0-.89a.91.91,0,0,0-.71-.29c-.35,0-.64.18-.64.51s.29.5.64.5a.89.89,0,0,0,.71-.3Z"/><path d="M339.25,224.47a1.56,1.56,0,0,1,1.34.61l-.58.54a.84.84,0,0,0-.71-.36,1,1,0,0,0,0,2,.85.85,0,0,0,.71-.37l.58.54a1.54,1.54,0,0,1-1.34.62,1.78,1.78,0,1,1,0-3.55Z"/><path d="M343.62,225.88c0-.47-.25-.62-.63-.62a1,1,0,0,0-.77.4v2.28h-.89v-4.67h.89V225a1.57,1.57,0,0,1,1.19-.52,1,1,0,0,1,1.1,1.06v2.41h-.89Z"/><path d="M345.46,223.59a.54.54,0,0,1,.54-.54.54.54,0,0,1,0,1.07A.54.54,0,0,1,345.46,223.59Zm.09,1h.89v3.39h-.89Z"/><path d="M349.78,225.89c0-.47-.24-.63-.62-.63a1,1,0,0,0-.77.4v2.28h-.89v-3.39h.89V225a1.58,1.58,0,0,1,1.18-.52,1,1,0,0,1,1.1,1.08v2.39h-.89Z"/><path d="M353.26,224.47a1.7,1.7,0,0,1,1.7,1.86v.2h-2.52a.91.91,0,0,0,1,.78,1.39,1.39,0,0,0,.9-.33l.39.57a2.07,2.07,0,0,1-1.39.47,1.78,1.78,0,1,1-.06-3.55Zm-.83,1.46h1.67a.78.78,0,0,0-.84-.75A.81.81,0,0,0,352.43,225.93Z"/><path d="M357.53,223.27h.89v4.67h-.89Z"/><path d="M361,224.47a1.69,1.69,0,0,1,1.69,1.86v.2H360.2a.9.9,0,0,0,1,.78,1.39,1.39,0,0,0,.91-.33l.39.57a2.11,2.11,0,0,1-1.4.47,1.78,1.78,0,0,1-.05-3.55Zm-.84,1.46h1.67a.77.77,0,0,0-.83-.75A.83.83,0,0,0,360.18,225.93Z"/><path d="M365.58,227.59a1.41,1.41,0,0,1-1.07.43,1.12,1.12,0,0,1-1.17-1.12,1.07,1.07,0,0,1,1.17-1.08,1.36,1.36,0,0,1,1.07.41v-.46c0-.35-.29-.57-.74-.57a1.38,1.38,0,0,0-1,.4l-.34-.6a2.22,2.22,0,0,1,1.48-.53c.77,0,1.47.31,1.47,1.28v2.19h-.89Zm0-.89a.88.88,0,0,0-.71-.29c-.35,0-.64.18-.64.51s.29.5.64.5a.86.86,0,0,0,.71-.3Z"/><path d="M367.52,224.55h.89V225a1.43,1.43,0,0,1,1.08-.54v.87a.85.85,0,0,0-.25,0,1.12,1.12,0,0,0-.83.38v2.24h-.89Z"/><path d="M372.48,225.89a.55.55,0,0,0-.63-.63,1,1,0,0,0-.77.4v2.28h-.89v-3.39h.89V225a1.59,1.59,0,0,1,1.19-.52,1,1,0,0,1,1.09,1.08v2.39h-.88Z"/><path d="M374.31,223.59a.54.54,0,0,1,.54-.54.54.54,0,0,1,0,1.07A.54.54,0,0,1,374.31,223.59Zm.09,1h.89v3.39h-.89Z"/><path d="M378.63,225.89c0-.47-.24-.63-.62-.63a1,1,0,0,0-.77.4v2.28h-.89v-3.39h.89V225a1.58,1.58,0,0,1,1.18-.52,1,1,0,0,1,1.1,1.08v2.39h-.89Z"/><path d="M380.92,228.16a1.35,1.35,0,0,0,1.06.42.82.82,0,0,0,.93-.85v-.35a1.32,1.32,0,0,1-1,.54c-.85,0-1.5-.6-1.5-1.73a1.52,1.52,0,0,1,1.5-1.72,1.28,1.28,0,0,1,1,.52v-.44h.9v3.15c0,1.29-1,1.61-1.83,1.61a2,2,0,0,1-1.46-.51Zm2-2.51a1,1,0,0,0-.76-.39.93.93,0,0,0,0,1.86,1,1,0,0,0,.76-.38Z"/><path d="M386.79,227.1v-1.77h-.56v-.78h.56v-.92h.9v.92h.69v.78h-.69v1.53c0,.21.11.37.31.37a.49.49,0,0,0,.31-.1l.18.67a1.08,1.08,0,0,1-.74.22A.85.85,0,0,1,386.79,227.1Z"/><path d="M389.22,224.55h.89V225a1.43,1.43,0,0,1,1.08-.54v.87a.9.9,0,0,0-.25,0,1.11,1.11,0,0,0-.83.38v2.24h-.89Z"/><path d="M393.94,227.59a1.44,1.44,0,0,1-1.08.43,1.12,1.12,0,0,1-1.17-1.12,1.07,1.07,0,0,1,1.17-1.08,1.4,1.4,0,0,1,1.08.41v-.46c0-.35-.3-.57-.75-.57a1.43,1.43,0,0,0-1,.4l-.33-.6a2.22,2.22,0,0,1,1.48-.53c.77,0,1.47.31,1.47,1.28v2.19h-.88Zm0-.89a.92.92,0,0,0-.72-.29c-.35,0-.64.18-.64.51s.29.5.64.5a.89.89,0,0,0,.72-.3Z"/><path d="M395.77,223.59a.54.54,0,0,1,.54-.54.54.54,0,0,1,0,1.07A.54.54,0,0,1,395.77,223.59Zm.09,1h.89v3.39h-.89Z"/><path d="M400.09,225.89c0-.47-.24-.63-.62-.63a1,1,0,0,0-.77.4v2.28h-.89v-3.39h.89V225a1.56,1.56,0,0,1,1.18-.52,1,1,0,0,1,1.1,1.08v2.39h-.89Z"/><path d="M403.57,224.47a1.7,1.7,0,0,1,1.7,1.86v.2h-2.52a.91.91,0,0,0,1,.78,1.39,1.39,0,0,0,.9-.33l.39.57a2.07,2.07,0,0,1-1.39.47,1.78,1.78,0,1,1-.06-3.55Zm-.83,1.46h1.67a.78.78,0,0,0-.84-.75A.81.81,0,0,0,402.74,225.93Z"/><path d="M408.45,227.5a1.32,1.32,0,0,1-1.05.52c-.85,0-1.5-.64-1.5-1.77s.64-1.78,1.5-1.78a1.3,1.3,0,0,1,1.05.52v-1.72h.89v4.67h-.89Zm0-1.85a1,1,0,0,0-.77-.39,1,1,0,0,0,0,2,1,1,0,0,0,.77-.39Z"/><path d="M336.15,233.24a1.79,1.79,0,1,1,1.78,1.78A1.71,1.71,0,0,1,336.15,233.24Zm2.65,0a.87.87,0,1,0-.87,1A.89.89,0,0,0,338.8,233.24Z"/><path d="M342.86,232.89c0-.47-.24-.63-.62-.63a1,1,0,0,0-.77.4v2.28h-.89v-3.39h.89V232a1.56,1.56,0,0,1,1.18-.52,1,1,0,0,1,1.1,1.08v2.39h-.89Z"/><path d="M346.56,231.55h.89V232a1.43,1.43,0,0,1,1.08-.54v.87a.85.85,0,0,0-.25,0,1.12,1.12,0,0,0-.83.38v2.24h-.89Z"/><path d="M350.78,231.47a1.7,1.7,0,0,1,1.7,1.86v.2H350a.91.91,0,0,0,1,.78,1.39,1.39,0,0,0,.9-.33l.39.57a2.09,2.09,0,0,1-1.39.47,1.78,1.78,0,1,1-.06-3.55Zm-.83,1.46h1.67a.79.79,0,0,0-.84-.75A.81.81,0,0,0,350,232.93Z"/><path d="M355.35,234.59a1.41,1.41,0,0,1-1.07.43,1.13,1.13,0,0,1-1.18-1.12,1.08,1.08,0,0,1,1.18-1.08,1.36,1.36,0,0,1,1.07.41v-.46c0-.35-.29-.57-.74-.57a1.41,1.41,0,0,0-1,.4l-.34-.6a2.26,2.26,0,0,1,1.48-.53c.77,0,1.48.31,1.48,1.28v2.19h-.89Zm0-.89a.92.92,0,0,0-.72-.29c-.35,0-.63.18-.63.51s.28.5.63.5a.89.89,0,0,0,.72-.3Z"/><path d="M357.29,230.27h.89v4.67h-.89Z"/><path d="M359.1,232.86h1.68v.76H359.1Z"/><path d="M363.91,232.63l-.72,2.31h-.95l-1-3.39h.93l.63,2.28.74-2.28h.79l.74,2.28.63-2.28h.93l-1,3.39h-.95Z"/><path d="M367,233.24a1.79,1.79,0,1,1,1.79,1.78A1.71,1.71,0,0,1,367,233.24Zm2.65,0a.87.87,0,1,0-.86,1A.89.89,0,0,0,369.62,233.24Z"/><path d="M371.4,231.55h.89V232a1.43,1.43,0,0,1,1.08-.54v.87a.9.9,0,0,0-.25,0,1.12,1.12,0,0,0-.83.38v2.24h-.89Z"/><path d="M374.07,230.27H375v4.67h-.89Z"/><path d="M378.36,234.5a1.28,1.28,0,0,1-1,.52c-.85,0-1.5-.64-1.5-1.77s.64-1.78,1.5-1.78a1.27,1.27,0,0,1,1,.52v-1.72h.9v4.67h-.9Zm0-1.85a.93.93,0,0,0-.77-.39,1,1,0,0,0,0,2,.93.93,0,0,0,.77-.39Z"/><path d="M382.25,234.1v-1.77h-.56v-.78h.56v-.92h.9v.92h.68v.78h-.68v1.53c0,.21.11.37.3.37a.47.47,0,0,0,.31-.1l.19.67a1.08,1.08,0,0,1-.74.22A.85.85,0,0,1,382.25,234.1Z"/><path d="M384.67,231.55h.89V232a1.43,1.43,0,0,1,1.08-.54v.87a.83.83,0,0,0-.24,0,1.13,1.13,0,0,0-.84.38v2.24h-.89Z"/><path d="M389.39,234.59a1.41,1.41,0,0,1-1.07.43,1.13,1.13,0,0,1-1.18-1.12,1.08,1.08,0,0,1,1.18-1.08,1.36,1.36,0,0,1,1.07.41v-.46c0-.35-.29-.57-.74-.57a1.41,1.41,0,0,0-1,.4l-.34-.6a2.26,2.26,0,0,1,1.48-.53c.77,0,1.48.31,1.48,1.28v2.19h-.89Zm0-.89a.91.91,0,0,0-.71-.29c-.35,0-.64.18-.64.51s.29.5.64.5a.89.89,0,0,0,.71-.3Z"/><path d="M391.52,232.33H391v-.78h.56v-.18a1.1,1.1,0,0,1,1.15-1.18,1.48,1.48,0,0,1,.64.14l-.18.63a.65.65,0,0,0-.29-.07c-.25,0-.42.17-.42.5v.16h.69v.78h-.69v2.61h-.9Zm2.29,0h-.56v-.78h.56v-.18a1.1,1.1,0,0,1,1.15-1.18,1.48,1.48,0,0,1,.64.14l-.18.65a.5.5,0,0,0-.29-.09c-.25,0-.42.17-.42.48v.18h.69v.78h-.69v2.61h-.9Zm2-1.74a.53.53,0,1,1,.53.53A.54.54,0,0,1,395.82,230.59Zm.09,1h.89v3.39h-.89Z"/><path d="M399.44,231.47a1.55,1.55,0,0,1,1.33.61l-.58.54a.82.82,0,0,0-.71-.36,1,1,0,0,0,0,2,.83.83,0,0,0,.71-.37l.58.54a1.53,1.53,0,0,1-1.33.62,1.78,1.78,0,1,1,0-3.55Z"/><line class="cls-7" x1="390.83" y1="217.28" x2="349.94" y2="217.28"/><line class="cls-7" x1="370.38" y1="211.59" x2="370.38" y2="217.28"/><path d="M124.74,113.59a2.36,2.36,0,0,1,2.45-2.41,2.16,2.16,0,0,1,2,1.14l-.86.42a1.26,1.26,0,0,0-1.13-.68,1.54,1.54,0,0,0,0,3.07,1.26,1.26,0,0,0,1.13-.68l.86.41a2.18,2.18,0,0,1-2,1.15A2.36,2.36,0,0,1,124.74,113.59Z"/><path d="M129.76,114.23a1.79,1.79,0,1,1,1.78,1.78A1.71,1.71,0,0,1,129.76,114.23Zm2.65,0a.87.87,0,1,0-.87,1A.89.89,0,0,0,132.41,114.23Z"/><path d="M136.47,113.88a.55.55,0,0,0-.63-.63,1,1,0,0,0-.77.4v2.27h-.89v-3.38h.89V113a1.55,1.55,0,0,1,1.19-.52,1,1,0,0,1,1.1,1.08v2.38h-.89Z"/><path d="M138.59,115.08v-1.76H138v-.78h.56v-.92h.9v.92h.68v.78h-.68v1.53c0,.21.11.37.31.37a.46.46,0,0,0,.3-.1l.19.67a1.08,1.08,0,0,1-.74.22A.85.85,0,0,1,138.59,115.08Z"/><path d="M140.91,111.57a.54.54,0,1,1,.53.54A.54.54,0,0,1,140.91,111.57Zm.09,1h.89v3.38H141Z"/><path d="M145.23,113.88c0-.47-.24-.63-.62-.63a.93.93,0,0,0-.77.4v2.27H143v-3.38h.89V113a1.53,1.53,0,0,1,1.18-.52,1,1,0,0,1,1.1,1.08v2.38h-.89Z"/><path d="M149.44,115.5a1.56,1.56,0,0,1-1.19.51,1,1,0,0,1-1.09-1.07v-2.4h.89v2a.55.55,0,0,0,.62.63,1,1,0,0,0,.77-.39v-2.29h.89v3.38h-.89Z"/><path d="M151.19,114.23A1.79,1.79,0,1,1,153,116,1.71,1.71,0,0,1,151.19,114.23Zm2.65,0a.87.87,0,1,0-.87,1A.89.89,0,0,0,153.84,114.23Z"/><path d="M157.89,115.5a1.58,1.58,0,0,1-1.19.51,1,1,0,0,1-1.1-1.07v-2.4h.89v2a.55.55,0,0,0,.63.63,1,1,0,0,0,.77-.39v-2.29h.89v3.38h-.89Z"/><path d="M160,114.86a2,2,0,0,0,1.17.46c.39,0,.57-.13.57-.34s-.3-.32-.68-.4c-.58-.11-1.33-.25-1.33-1.06,0-.57.49-1.06,1.38-1.06a2.15,2.15,0,0,1,1.37.46l-.36.61a1.41,1.41,0,0,0-1-.39c-.32,0-.53.12-.53.31s.27.29.64.37c.58.11,1.36.26,1.36,1.1,0,.62-.52,1.09-1.46,1.09a2.25,2.25,0,0,1-1.51-.53Z"/><path d="M163.39,111.25h.89v4.67h-.89Z"/><path d="M165.67,116.51a.45.45,0,0,0,.47-.25l.13-.29-1.37-3.43h.95l.88,2.35.88-2.35h1L167,116.48a1.24,1.24,0,0,1-1.28.82,2.28,2.28,0,0,1-.44,0l.13-.8A.94.94,0,0,0,165.67,116.51Z"/><path d="M173.23,115.49a1.31,1.31,0,0,1-1,.52c-.86,0-1.5-.65-1.5-1.77s.63-1.78,1.5-1.78a1.3,1.3,0,0,1,1,.52v-1.73h.9v4.67h-.9Zm0-1.86a1,1,0,0,0-.77-.38,1,1,0,0,0,0,2,1,1,0,0,0,.77-.39Z"/><path d="M176.73,112.46a1.69,1.69,0,0,1,1.69,1.86v.2h-2.51a.92.92,0,0,0,1,.78,1.4,1.4,0,0,0,.91-.34l.39.58a2.11,2.11,0,0,1-1.39.47,1.78,1.78,0,1,1-.06-3.55Zm-.83,1.45h1.66a.78.78,0,0,0-.83-.75A.82.82,0,0,0,175.9,113.91Z"/><path d="M179.26,117.21v-4.67h.89V113a1.29,1.29,0,0,1,1-.51c.87,0,1.5.64,1.5,1.77s-.63,1.78-1.5,1.78a1.28,1.28,0,0,1-1-.52v1.72Zm1.65-4a1,1,0,0,0-.76.38v1.2a1,1,0,0,0,.76.39,1,1,0,0,0,0-2Z"/><path d="M183.57,111.25h.88v4.67h-.88Z"/><path d="M185.3,114.23a1.79,1.79,0,1,1,1.79,1.78A1.71,1.71,0,0,1,185.3,114.23Zm2.65,0a.87.87,0,1,0-1.73,0,.87.87,0,1,0,1.73,0Z"/><path d="M189.94,116.51a.46.46,0,0,0,.47-.25l.12-.29-1.37-3.43h1l.89,2.35.88-2.35h1l-1.59,3.94a1.24,1.24,0,0,1-1.28.82,2.2,2.2,0,0,1-.44,0l.13-.8A.94.94,0,0,0,189.94,116.51Z"/><path d="M197.2,115.57a1.38,1.38,0,0,1-1.07.44,1.13,1.13,0,0,1-1.18-1.12,1.08,1.08,0,0,1,1.18-1.08,1.36,1.36,0,0,1,1.07.41v-.47c0-.34-.3-.56-.74-.56a1.44,1.44,0,0,0-1,.39l-.34-.59a2.26,2.26,0,0,1,1.48-.53c.77,0,1.48.31,1.48,1.28v2.18h-.89Zm0-.88a.91.91,0,0,0-.71-.29c-.35,0-.64.18-.64.51s.29.5.64.5a.89.89,0,0,0,.71-.3Z"/><path d="M201.42,113.88a.55.55,0,0,0-.62-.63.93.93,0,0,0-.77.4v2.27h-.89v-3.38H200V113a1.53,1.53,0,0,1,1.18-.52,1,1,0,0,1,1.1,1.08v2.38h-.89Z"/><path d="M205.7,115.49a1.28,1.28,0,0,1-1,.52c-.85,0-1.5-.65-1.5-1.77s.64-1.78,1.5-1.78a1.27,1.27,0,0,1,1,.52v-1.73h.9v4.67h-.9Zm0-1.86a1,1,0,0,0-.77-.38,1,1,0,0,0,0,2,.93.93,0,0,0,.77-.39Z"/><path d="M130,121.23A1.79,1.79,0,1,1,131.8,123,1.72,1.72,0,0,1,130,121.23Zm2.66,0a.87.87,0,1,0-.87,1A.89.89,0,0,0,132.67,121.23Z"/><path d="M134.44,118.25h.89V120a1.3,1.3,0,0,1,1-.52c.87,0,1.5.67,1.5,1.78s-.64,1.77-1.5,1.77a1.31,1.31,0,0,1-1-.52v.43h-.89Zm1.65,4a1,1,0,0,0,0-2,1,1,0,0,0-.76.39v1.2A1,1,0,0,0,136.09,122.22Z"/><path d="M138.94,120.32h-.56v-.78h.56v-.18a1.09,1.09,0,0,1,1.15-1.18,1.48,1.48,0,0,1,.64.14l-.18.63a.54.54,0,0,0-.29-.07c-.25,0-.42.17-.42.49v.17h.69v.78h-.69v2.6h-.9Z"/><path d="M143.49,122.5a1.58,1.58,0,0,1-1.19.51,1,1,0,0,1-1.09-1.07v-2.4h.89v2c0,.47.24.63.62.63a1,1,0,0,0,.77-.39v-2.29h.89v3.38h-.89Z"/><path d="M145.55,121.86a2,2,0,0,0,1.17.46c.39,0,.57-.13.57-.34s-.29-.32-.68-.4c-.58-.11-1.33-.25-1.33-1.06,0-.57.5-1.06,1.39-1.06a2.12,2.12,0,0,1,1.36.46l-.35.61a1.44,1.44,0,0,0-1-.39c-.32,0-.53.12-.53.31s.27.29.65.37c.58.11,1.35.26,1.35,1.1,0,.62-.52,1.09-1.46,1.09a2.27,2.27,0,0,1-1.51-.53Z"/><path d="M150.56,119.46a1.59,1.59,0,0,1,1.34.61l-.58.54a.82.82,0,0,0-.72-.36,1,1,0,0,0,0,2,.85.85,0,0,0,.72-.37l.58.54a1.57,1.57,0,0,1-1.34.62,1.78,1.78,0,1,1,0-3.55Z"/><path d="M154.72,122.57a1.38,1.38,0,0,1-1.08.44,1.13,1.13,0,0,1-1.17-1.12,1.07,1.07,0,0,1,1.17-1.08,1.4,1.4,0,0,1,1.08.41v-.47c0-.34-.3-.56-.75-.56a1.42,1.42,0,0,0-1,.39l-.34-.59a2.24,2.24,0,0,1,1.48-.53c.77,0,1.48.31,1.48,1.28v2.18h-.89Zm0-.88a.92.92,0,0,0-.72-.29c-.35,0-.64.18-.64.51s.29.5.64.5a.89.89,0,0,0,.72-.3Z"/><path d="M156.83,122.08v-1.76h-.56v-.78h.56v-.92h.89v.92h.69v.78h-.69v1.53a.33.33,0,0,0,.31.37.47.47,0,0,0,.31-.1l.19.67a1.08,1.08,0,0,1-.74.22A.84.84,0,0,1,156.83,122.08Z"/><path d="M160.73,119.46a1.69,1.69,0,0,1,1.7,1.86v.2h-2.52a.92.92,0,0,0,1,.78,1.39,1.39,0,0,0,.9-.34l.39.58a2.11,2.11,0,0,1-1.39.47,1.78,1.78,0,1,1-.06-3.55Zm-.83,1.45h1.66a.78.78,0,0,0-.83-.75A.82.82,0,0,0,159.9,120.91Z"/><path d="M169.2,120.79c0-.32-.14-.54-.51-.54a.92.92,0,0,0-.7.39v2.28h-.9v-2.13c0-.32-.14-.54-.5-.54a.9.9,0,0,0-.7.4v2.27H165v-3.38h.89V120a1.49,1.49,0,0,1,1.11-.52.91.91,0,0,1,.94.61,1.44,1.44,0,0,1,1.16-.61.9.9,0,0,1,1,1v2.44h-.89Z"/><path d="M171.05,118.57a.54.54,0,0,1,.53-.53.54.54,0,0,1,0,1.07A.54.54,0,0,1,171.05,118.57Zm.09,1H172v3.38h-.89Z"/><path d="M173.26,122.08v-1.76h-.56v-.78h.56v-.92h.9v.92h.69v.78h-.69v1.53c0,.21.11.37.31.37a.49.49,0,0,0,.31-.1l.19.67a1.11,1.11,0,0,1-.75.22A.85.85,0,0,1,173.26,122.08Z"/><path d="M175.59,118.57a.53.53,0,1,1,.53.54A.53.53,0,0,1,175.59,118.57Zm.09,1h.89v3.38h-.89Z"/><path d="M178,123.15a1.36,1.36,0,0,0,1.06.42.83.83,0,0,0,.93-.86v-.34a1.29,1.29,0,0,1-1,.53c-.85,0-1.49-.59-1.49-1.72s.63-1.72,1.49-1.72a1.28,1.28,0,0,1,1,.52v-.44h.9v3.15c0,1.29-1,1.61-1.83,1.61a2.07,2.07,0,0,1-1.46-.51Zm2-2.52a1,1,0,0,0-.76-.38.93.93,0,0,0,0,1.86,1,1,0,0,0,.76-.38Z"/><path d="M183.94,122.57a1.38,1.38,0,0,1-1.07.44,1.13,1.13,0,0,1-1.18-1.12,1.08,1.08,0,0,1,1.18-1.08,1.36,1.36,0,0,1,1.07.41v-.47c0-.34-.29-.56-.74-.56a1.44,1.44,0,0,0-1,.39l-.34-.59a2.26,2.26,0,0,1,1.48-.53c.77,0,1.48.31,1.48,1.28v2.18h-.89Zm0-.88a.92.92,0,0,0-.72-.29c-.35,0-.63.18-.63.51s.28.5.63.5a.89.89,0,0,0,.72-.3Z"/><path d="M186.05,122.08v-1.76h-.56v-.78h.56v-.92h.9v.92h.68v.78H187v1.53c0,.21.11.37.31.37a.46.46,0,0,0,.3-.1l.19.67a1.08,1.08,0,0,1-.74.22A.85.85,0,0,1,186.05,122.08Z"/><path d="M188.37,118.57a.54.54,0,1,1,.53.54A.54.54,0,0,1,188.37,118.57Zm.09,1h.89v3.38h-.89Z"/><path d="M190.18,121.23A1.79,1.79,0,1,1,192,123,1.71,1.71,0,0,1,190.18,121.23Zm2.65,0a.87.87,0,1,0-.87,1A.89.89,0,0,0,192.83,121.23Z"/><path d="M196.89,120.88c0-.47-.24-.63-.62-.63a.93.93,0,0,0-.77.4v2.27h-.89v-3.38h.89V120a1.53,1.53,0,0,1,1.18-.52,1,1,0,0,1,1.1,1.08v2.38h-.89Z"/><path d="M198.94,121.86a2,2,0,0,0,1.17.46c.39,0,.57-.13.57-.34s-.29-.32-.68-.4c-.58-.11-1.33-.25-1.33-1.06,0-.57.5-1.06,1.39-1.06a2.12,2.12,0,0,1,1.36.46l-.35.61a1.43,1.43,0,0,0-1-.39c-.33,0-.54.12-.54.31s.27.29.65.37c.58.11,1.36.26,1.36,1.1,0,.62-.53,1.09-1.47,1.09a2.27,2.27,0,0,1-1.51-.53Z"/><line class="cls-7" x1="186.22" y1="105.27" x2="145.32" y2="105.27"/><line class="cls-7" x1="165.77" y1="99.58" x2="165.77" y2="105.27"/><line class="cls-7" x1="145.32" y1="44.44" x2="186.22" y2="44.44"/><line class="cls-7" x1="165.77" y1="50.13" x2="165.77" y2="44.44"/><rect class="cls-5" x="249.15" y="24.47" width="244.5" height="101.35"/><path class="cls-8" d="M318.79,72.58H277.07a.9.9,0,0,0-.89.9v3.06a.89.89,0,0,0,.89.9h41.72a.89.89,0,0,0,.89-.9V73.48A.9.9,0,0,0,318.79,72.58Z"/><path class="cls-8" d="M318.79,78.93H277.07a.89.89,0,0,0-.89.9v5.85a.9.9,0,0,0,.89.9h41.72a.9.9,0,0,0,.89-.9V79.83A.89.89,0,0,0,318.79,78.93Z"/><path class="cls-8" d="M311.36,83.31a.59.59,0,0,1-.58.59h-7.47a.59.59,0,0,1-.58-.59v-.55a.58.58,0,0,1,.58-.59h7.47a.58.58,0,0,1,.58.59Z"/><path class="cls-8" d="M316,84.53a1.38,1.38,0,1,1,1.36-1.38A1.36,1.36,0,0,1,316,84.53Z"/><rect class="cls-9" x="289.36" y="82.61" width="0.69" height="0.7" rx="0.34"/><rect class="cls-9" x="291.83" y="82.61" width="0.69" height="0.7" rx="0.34"/><rect class="cls-9" x="294.3" y="82.61" width="0.69" height="0.7" rx="0.34"/><rect class="cls-9" x="296.78" y="82.61" width="0.69" height="0.7" rx="0.34"/><rect class="cls-9" x="299.25" y="82.61" width="0.69" height="0.7" rx="0.34"/><line class="cls-10" x1="277.51" y1="76.1" x2="318.28" y2="76.1"/><line class="cls-8" x1="353.52" y1="51.76" x2="356.25" y2="51.76"/><line class="cls-8" x1="353.52" y1="55.94" x2="356.25" y2="55.94"/><line class="cls-8" x1="353.52" y1="60.12" x2="356.25" y2="60.12"/><path d="M354.89,82.4a.7.7,0,0,1,0,1.4.7.7,0,1,1,0-1.4m0-1a1.7,1.7,0,1,0,1.7,1.7,1.71,1.71,0,0,0-1.7-1.7Z"/><rect class="cls-11" x="335.39" y="64.31" width="39" height="5.54" rx="1.4" transform="translate(287.81 421.97) rotate(-90)"/><line class="cls-8" x1="360.89" y1="51.76" x2="363.62" y2="51.76"/><line class="cls-8" x1="360.89" y1="55.94" x2="363.62" y2="55.94"/><line class="cls-8" x1="360.89" y1="60.12" x2="363.62" y2="60.12"/><path d="M362.25,82.4a.7.7,0,1,1-.7.7.7.7,0,0,1,.7-.7m0-1a1.7,1.7,0,1,0,1.7,1.7,1.7,1.7,0,0,0-1.7-1.7Z"/><rect class="cls-11" x="342.75" y="64.31" width="39" height="5.54" rx="1.4" transform="translate(295.17 429.33) rotate(-90)"/><line class="cls-8" x1="368.25" y1="51.76" x2="370.98" y2="51.76"/><line class="cls-8" x1="368.25" y1="55.94" x2="370.98" y2="55.94"/><line class="cls-8" x1="368.25" y1="60.12" x2="370.98" y2="60.12"/><path d="M369.62,82.4a.7.7,0,0,1,0,1.4.7.7,0,1,1,0-1.4m0-1a1.7,1.7,0,1,0,1.7,1.7,1.71,1.71,0,0,0-1.7-1.7Z"/><rect class="cls-11" x="350.12" y="64.31" width="39" height="5.54" rx="1.4" transform="translate(302.54 436.7) rotate(-90)"/><line class="cls-8" x1="375.62" y1="51.76" x2="378.35" y2="51.76"/><line class="cls-8" x1="375.62" y1="55.94" x2="378.35" y2="55.94"/><line class="cls-8" x1="375.62" y1="60.12" x2="378.35" y2="60.12"/><path d="M377,82.4a.7.7,0,1,1-.7.7.7.7,0,0,1,.7-.7m0-1a1.7,1.7,0,1,0,1.7,1.7,1.7,1.7,0,0,0-1.7-1.7Z"/><rect class="cls-11" x="357.48" y="64.31" width="39" height="5.54" rx="1.4" transform="translate(309.9 444.06) rotate(-90)"/><line class="cls-8" x1="382.98" y1="51.76" x2="385.71" y2="51.76"/><line class="cls-8" x1="382.98" y1="55.94" x2="385.71" y2="55.94"/><line class="cls-8" x1="382.98" y1="60.12" x2="385.71" y2="60.12"/><path d="M384.35,82.4a.7.7,0,0,1,0,1.4.7.7,0,1,1,0-1.4m0-1a1.7,1.7,0,1,0,1.7,1.7,1.71,1.71,0,0,0-1.7-1.7Z"/><rect class="cls-11" x="364.85" y="64.31" width="39" height="5.54" rx="1.4" transform="translate(317.27 451.43) rotate(-90)"/><rect class="cls-6" x="319.66" y="15.43" width="103.48" height="18"/><path class="cls-1" d="M333.67,22.24V24h1.82v1.4h-1.82v2.49h-1.55V20.84h3.67v1.4Z"/><path class="cls-1" d="M340.74,25.35v.79a2.13,2.13,0,0,1-4.24,0V25.5h1.55v.75c0,.3.2.48.57.48s.57-.18.57-.48v-1c0-.28-.13-.45-.34-.45h-2.16V20.84h3.78v1.4h-2.23v1.19h.63A1.82,1.82,0,0,1,340.74,25.35Z"/><path class="cls-1" d="M346.75,26.69H345.3L345,27.93H343.5L345,20.84h2l1.54,7.09H347Zm-.72-4-.45,2.56h.9Z"/><path class="cls-1" d="M353.11,22.24h-1.47v5.69h-1.55V22.24h-1.48v-1.4h4.5Z"/><path class="cls-1" d="M353.82,26.06V22.71a2.39,2.39,0,0,1,4.72,0v3.35a2.39,2.39,0,0,1-4.72,0Zm3.17,0v-3.4c0-.36-.24-.6-.8-.6s-.82.24-.82.6v3.4c0,.35.24.6.81.6S357,26.44,357,26.09Z"/><path class="cls-1" d="M366,22.78v.91a2,2,0,0,1-2.11,1.95h-.82v2.29h-1.55V20.84h2.36A2,2,0,0,1,366,22.78Zm-1.55-.07a.44.44,0,0,0-.46-.47h-.92v2H364a.44.44,0,0,0,.47-.48Z"/><path class="cls-1" d="M369.11,25.38h-.74v2.55h-1.55V20.84h2.36a2,2,0,0,1,2.12,1.94v.66a1.86,1.86,0,0,1-.71,1.5l.92,3h-1.62Zm-.74-1.4h.91a.44.44,0,0,0,.47-.47v-.8a.43.43,0,0,0-.46-.47h-.92Z"/><path class="cls-1" d="M372.22,26.06V22.71a2.38,2.38,0,0,1,4.71,0v3.35a2.38,2.38,0,0,1-4.71,0Zm3.16,0v-3.4c0-.36-.24-.6-.8-.6s-.81.24-.81.6v3.4c0,.35.23.6.8.6S375.38,26.44,375.38,26.09Z"/><path class="cls-1" d="M382.14,22.24h-1.47v5.69h-1.55V22.24h-1.48v-1.4h4.5Z"/><path class="cls-1" d="M384.45,22.24v1.55h1.72v1.4h-1.72v1.34h2.12v1.4H382.9V20.84h3.67v1.4Z"/><path class="cls-1" d="M387.35,26.06V22.71a2.37,2.37,0,0,1,4.69,0v.89h-1.57v-.91c0-.36-.26-.6-.77-.6s-.8.24-.8.6v3.4c0,.35.27.6.79.6s.78-.25.78-.6v-.91H392v.88a2.37,2.37,0,0,1-4.69,0Z"/><path class="cls-1" d="M397.24,22.24h-1.47v5.69h-1.54V22.24h-1.48v-1.4h4.49Z"/><path class="cls-1" d="M398,20.84h1.55v7.09H398Z"/><path class="cls-1" d="M400.47,26.06V22.71a2.39,2.39,0,0,1,4.72,0v3.35a2.39,2.39,0,0,1-4.72,0Zm3.17,0v-3.4c0-.36-.24-.6-.8-.6s-.82.24-.82.6v3.4c0,.35.24.6.81.6S403.64,26.44,403.64,26.09Z"/><path class="cls-1" d="M410.68,20.84v7.09h-1.36l-1.84-4v4h-1.35V20.84h1.35l1.84,4.06V20.84Z"/><path class="cls-8" d="M454.05,86.58H429.81a6.14,6.14,0,0,1,0-12.27h0a9.09,9.09,0,0,1,9.07-9.12,9,9,0,0,1,3.73.81,10.62,10.62,0,0,1,20.18,6.52,7.66,7.66,0,0,1-4.18,14.06h-1.51"/><path class="cls-10" d="M449.89,70.9a4.19,4.19,0,0,0-1.55-.29,4.13,4.13,0,1,0,2.66,1h0l-3.26,4.93L446,74.17"/><path class="cls-10" d="M452.29,69l-.83,0h0l-2-1.52a1.68,1.68,0,0,0-2.1,0L445.25,69l-.82,0c-1.56-.08-2.78-.52-2.78,1.62s.29,5.61.29,5.61-.18,2.6,2.84,4.79c2.59,1.89,3.57,2.58,3.57,2.58h0s1-.69,3.59-2.58c3-2.19,2.84-4.79,2.84-4.79s.29-3.47.29-5.61-1.22-1.7-2.78-1.62"/><path d="M268.57,94.74c4.78-.17,4.78,7.76,0,7.59C263.78,102.5,263.78,94.57,268.57,94.74Zm0,.81c-3.55-.15-3.56,6.12,0,6C272.12,101.66,272.12,95.4,268.57,95.55Z"/><path d="M277.3,98.72c0-.93-.47-1.23-1.19-1.23a2.07,2.07,0,0,0-1.57.82v3.89h-.82V96.89h.82v.76a2.66,2.66,0,0,1,1.89-.9,1.52,1.52,0,0,1,1.7,1.72v3.73h-.83Z"/><path d="M282.87,94.86h2.95a2.21,2.21,0,1,1,0,4.42h-2v2.92h-.91Zm2.84.81h-1.93v2.8h1.93a1.4,1.4,0,1,0,0-2.8Z"/><path d="M289.4,96.89h.83v.85a2.24,2.24,0,0,1,1.77-1v.85a1.61,1.61,0,0,0-.33,0,1.93,1.93,0,0,0-1.44.85v3.76h-.83Z"/><path d="M295.45,96.75A2.58,2.58,0,0,1,298,99.6v.21h-4.3a1.88,1.88,0,0,0,1.92,1.84,2.33,2.33,0,0,0,1.64-.67l.39.54a2.91,2.91,0,0,1-2.11.81,2.64,2.64,0,0,1-2.71-2.79A2.66,2.66,0,0,1,295.45,96.75Zm-1.75,2.46h3.49a1.72,1.72,0,0,0-1.75-1.77A1.78,1.78,0,0,0,293.7,99.21Z"/><path d="M305.86,98.59c0-.67-.3-1.1-1-1.1a1.89,1.89,0,0,0-1.41.81v3.9h-.82V98.59c0-.67-.29-1.1-1-1.1a1.87,1.87,0,0,0-1.4.82v3.89h-.83V96.89h.83v.76a2.29,2.29,0,0,1,1.72-.9,1.37,1.37,0,0,1,1.43,1,2.23,2.23,0,0,1,1.78-1c1,0,1.48.54,1.48,1.61v3.84h-.82Z"/><path d="M308.3,95.43a.56.56,0,0,1,1.11,0,.56.56,0,1,1-1.11,0Zm.14,1.46h.83v5.31h-.83Z"/><path d="M311,100.9a2.42,2.42,0,0,0,1.75.76c.82,0,1.26-.36,1.26-.88s-.65-.77-1.37-1c-.9-.21-1.92-.45-1.92-1.55,0-.82.71-1.53,2-1.53a2.69,2.69,0,0,1,2,.77l-.39.58a2.05,2.05,0,0,0-1.58-.68c-.73,0-1.18.33-1.18.81s.61.68,1.3.84c.92.21,2,.48,2,1.65,0,.9-.71,1.61-2.09,1.61a2.81,2.81,0,0,1-2.15-.84Z"/><path d="M318.56,96.75a2.58,2.58,0,0,1,2.55,2.85v.21h-4.3a1.88,1.88,0,0,0,1.92,1.84,2.33,2.33,0,0,0,1.64-.67l.39.54a2.91,2.91,0,0,1-2.11.81,2.64,2.64,0,0,1-2.71-2.79A2.66,2.66,0,0,1,318.56,96.75Zm-1.75,2.46h3.49a1.72,1.72,0,0,0-1.75-1.77A1.78,1.78,0,0,0,316.81,99.21Z"/><path d="M322.52,100.9a2.39,2.39,0,0,0,1.75.76c.81,0,1.25-.36,1.25-.88s-.64-.77-1.36-1c-.9-.21-1.93-.45-1.93-1.55,0-.82.72-1.53,2-1.53a2.65,2.65,0,0,1,2,.77l-.38.58a2.05,2.05,0,0,0-1.58-.68c-.73,0-1.18.33-1.18.81s.6.68,1.3.84c.92.21,2,.48,2,1.65,0,.9-.72,1.61-2.09,1.61a2.81,2.81,0,0,1-2.15-.84Z"/><path d="M354.28,96.09l-2.5,6.11h-.37l-2.49-6.11v6.11H348V94.86h1.31l2.27,5.59,2.29-5.59h1.31v7.34h-.91Z"/><path d="M360.3,101.59a2.27,2.27,0,0,1-1.76.74,1.76,1.76,0,0,1-1.85-1.76,1.73,1.73,0,0,1,1.85-1.75,2.19,2.19,0,0,1,1.76.73v-1c0-.71-.57-1.12-1.34-1.12a2.11,2.11,0,0,0-1.63.74l-.38-.58a2.78,2.78,0,0,1,2.12-.88c1.12,0,2.06.51,2.06,1.8v3.65h-.83Zm0-1.51a1.77,1.77,0,0,0-1.46-.66,1.17,1.17,0,1,0,0,2.32,1.77,1.77,0,0,0,1.46-.66Z"/><path d="M366.48,98.72c0-.93-.48-1.23-1.19-1.23a2.09,2.09,0,0,0-1.58.82v3.89h-.82V96.89h.82v.76a2.69,2.69,0,0,1,1.9-.9,1.51,1.51,0,0,1,1.69,1.72v3.73h-.82Z"/><path d="M372.38,101.59a2.27,2.27,0,0,1-1.76.74,1.77,1.77,0,0,1-1.86-1.76,1.74,1.74,0,0,1,1.86-1.75,2.2,2.2,0,0,1,1.76.73v-1c0-.71-.57-1.12-1.34-1.12a2.11,2.11,0,0,0-1.63.74l-.38-.58a2.78,2.78,0,0,1,2.12-.88c1.12,0,2.06.51,2.06,1.8v3.65h-.83Zm0-1.51a1.78,1.78,0,0,0-1.46-.66,1.17,1.17,0,1,0,0,2.32,1.78,1.78,0,0,0,1.46-.66Z"/><path d="M375.37,103a2,2,0,0,0,1.73.72,1.52,1.52,0,0,0,1.71-1.59v-.76a2.24,2.24,0,0,1-1.78,1c-1.39,0-2.37-1-2.37-2.76s1-2.76,2.37-2.76a2.19,2.19,0,0,1,1.78.94v-.8h.82V102c0,1.77-1.23,2.31-2.53,2.31a2.68,2.68,0,0,1-2.14-.79Zm3.44-4.6a2,2,0,0,0-1.59-.86c-1.06,0-1.7.85-1.7,2s.64,2,1.7,2a2,2,0,0,0,1.59-.87Z"/><path d="M383.7,96.75a2.58,2.58,0,0,1,2.55,2.85v.21H382a1.88,1.88,0,0,0,1.92,1.84,2.29,2.29,0,0,0,1.63-.67l.4.54a2.91,2.91,0,0,1-2.11.81,2.64,2.64,0,0,1-2.71-2.79A2.66,2.66,0,0,1,383.7,96.75ZM382,99.21h3.49a1.72,1.72,0,0,0-1.75-1.77A1.78,1.78,0,0,0,382,99.21Z"/><path d="M391.54,101.41a2.21,2.21,0,0,1-1.79.92c-1.39,0-2.36-1.06-2.36-2.78s1-2.8,2.36-2.8a2.18,2.18,0,0,1,1.79.94V94.86h.83v7.34h-.83Zm0-3.06a2,2,0,0,0-1.59-.86c-1.07,0-1.71.88-1.71,2.06s.64,2,1.71,2a2,2,0,0,0,1.59-.83Z"/><path d="M352.91,111.47a3.12,3.12,0,0,0,2.31,1c1.31,0,1.73-.71,1.73-1.27,0-.88-.89-1.12-1.86-1.38-1.18-.31-2.49-.64-2.49-2.08,0-1.21,1.08-2,2.52-2a3.44,3.44,0,0,1,2.61,1l-.55.67a2.82,2.82,0,0,0-2.12-.88c-.88,0-1.51.48-1.51,1.17s.85,1,1.78,1.21c1.2.32,2.57.69,2.57,2.23,0,1.07-.73,2.16-2.71,2.16a3.62,3.62,0,0,1-2.82-1.17Z"/><path d="M361.65,107.75a2.59,2.59,0,0,1,2.55,2.85v.21h-4.3a1.87,1.87,0,0,0,1.91,1.84,2.31,2.31,0,0,0,1.64-.67l.4.54a2.94,2.94,0,0,1-2.12.81,2.63,2.63,0,0,1-2.7-2.79A2.66,2.66,0,0,1,361.65,107.75Zm-1.75,2.46h3.48a1.72,1.72,0,0,0-1.75-1.77A1.76,1.76,0,0,0,359.9,110.21Z"/><path d="M365.64,107.89h.82v.85a2.28,2.28,0,0,1,1.78-1v.85a1.65,1.65,0,0,0-.34,0,2,2,0,0,0-1.44.85v3.76h-.82Z"/><path d="M368.59,107.89h.89l1.77,4.35,1.76-4.35h.9l-2.21,5.31h-.9Z"/><path d="M374.74,106.43a.55.55,0,0,1,.55-.55.56.56,0,0,1,.56.55.57.57,0,0,1-.56.56A.56.56,0,0,1,374.74,106.43Zm.14,1.46h.82v5.31h-.82Z"/><path d="M379.81,107.75a2.26,2.26,0,0,1,1.94.93l-.55.5a1.57,1.57,0,0,0-1.35-.69,2.06,2.06,0,0,0,0,4.1,1.6,1.6,0,0,0,1.35-.69l.55.51a2.25,2.25,0,0,1-1.94.92,2.79,2.79,0,0,1,0-5.58Z"/><path d="M385.33,107.75a2.59,2.59,0,0,1,2.55,2.85v.21h-4.3a1.88,1.88,0,0,0,1.91,1.84,2.31,2.31,0,0,0,1.64-.67l.4.54a2.91,2.91,0,0,1-2.11.81,2.63,2.63,0,0,1-2.71-2.79A2.66,2.66,0,0,1,385.33,107.75Zm-1.75,2.46h3.49a1.72,1.72,0,0,0-1.75-1.77A1.76,1.76,0,0,0,383.58,110.21Z"/><line class="cls-8" x1="618.59" y1="76.24" x2="618.59" y2="80.66"/><line class="cls-8" x1="614.14" y1="76.24" x2="614.14" y2="80.66"/><line class="cls-8" x1="609.7" y1="76.24" x2="609.7" y2="80.66"/><line class="cls-8" x1="618.59" y1="67.42" x2="618.59" y2="71.83"/><line class="cls-8" x1="614.14" y1="67.42" x2="614.14" y2="71.83"/><line class="cls-8" x1="609.7" y1="67.42" x2="609.7" y2="71.83"/><line class="cls-8" x1="618.59" y1="58.6" x2="618.59" y2="63.01"/><line class="cls-8" x1="614.14" y1="58.6" x2="614.14" y2="63.01"/><line class="cls-8" x1="609.7" y1="58.6" x2="609.7" y2="63.01"/><path d="M585.24,60.07a.74.74,0,1,1-.74.73.74.74,0,0,1,.74-.73m0-1A1.74,1.74,0,1,0,587,60.8a1.74,1.74,0,0,0-1.74-1.73Z"/><path d="M585.24,68.89a.74.74,0,1,1-.74.74.74.74,0,0,1,.74-.74m0-1A1.74,1.74,0,1,0,587,69.63a1.74,1.74,0,0,0-1.74-1.74Z"/><path d="M585.24,77.72a.73.73,0,0,1,.74.73.74.74,0,1,1-1.48,0,.73.73,0,0,1,.74-.73m0-1A1.74,1.74,0,1,0,587,78.45a1.73,1.73,0,0,0-1.74-1.73Z"/><path class="cls-11" d="M608.48,82.13h13.08A1.48,1.48,0,0,0,623,80.65V76.29a1.52,1.52,0,0,0-1.52-1.52H583a1.48,1.48,0,0,0-1.47,1.48v4.4A1.47,1.47,0,0,0,583,82.13h6"/><rect class="cls-11" x="581.54" y="65.95" width="41.5" height="7.35" rx="1.48"/><rect class="cls-11" x="581.54" y="57.13" width="41.5" height="7.35" rx="1.48"/><path d="M595.19,88.86a1.67,1.67,0,0,1-1.28.52,1.29,1.29,0,0,1-1.35-1.29,1.26,1.26,0,0,1,1.35-1.27,1.62,1.62,0,0,1,1.28.52v-.65c0-.48-.4-.77-1-.77a1.61,1.61,0,0,0-1.17.51l-.31-.49a2.16,2.16,0,0,1,1.59-.64c.84,0,1.56.37,1.56,1.36v2.62h-.72Zm0-1.09a1.24,1.24,0,0,0-1-.44.78.78,0,1,0,0,1.54,1.24,1.24,0,0,0,1-.44Z"/><path d="M597,90.77V85.4h.72V86A1.57,1.57,0,0,1,599,85.3c1,0,1.73.76,1.73,2s-.71,2-1.73,2a1.53,1.53,0,0,1-1.27-.66v2Zm1.8-4.83a1.34,1.34,0,0,0-1.08.57v1.65a1.35,1.35,0,0,0,1.08.58c.72,0,1.17-.59,1.17-1.4S599.53,85.94,598.81,85.94Z"/><path d="M601.59,90.77V85.4h.72V86a1.57,1.57,0,0,1,1.27-.65c1,0,1.73.76,1.73,2s-.71,2-1.73,2a1.54,1.54,0,0,1-1.27-.66v2Zm1.8-4.83a1.34,1.34,0,0,0-1.08.57v1.65a1.35,1.35,0,0,0,1.08.58c.72,0,1.17-.59,1.17-1.4S604.11,85.94,603.39,85.94Z"/><rect class="cls-12" x="590.22" y="79.29" width="17.23" height="17.25" rx="3.67"/><rect class="cls-8" x="356.66" y="167.42" width="29.85" height="29.69"/><rect class="cls-8" x="362.29" y="173.02" width="18.61" height="18.5"/><line class="cls-8" x1="386.49" y1="194.15" x2="390.54" y2="194.15"/><line class="cls-8" x1="386.49" y1="189.33" x2="390.54" y2="189.33"/><line class="cls-8" x1="386.49" y1="184.51" x2="390.54" y2="184.51"/><line class="cls-8" x1="386.49" y1="179.69" x2="390.54" y2="179.69"/><line class="cls-8" x1="386.49" y1="174.86" x2="390.54" y2="174.86"/><line class="cls-8" x1="386.49" y1="170.04" x2="390.54" y2="170.04"/><line class="cls-8" x1="352.54" y1="194.15" x2="356.6" y2="194.15"/><line class="cls-8" x1="352.54" y1="189.33" x2="356.6" y2="189.33"/><line class="cls-8" x1="352.54" y1="184.51" x2="356.6" y2="184.51"/><line class="cls-8" x1="352.54" y1="179.69" x2="356.6" y2="179.69"/><line class="cls-8" x1="352.54" y1="174.86" x2="356.6" y2="174.86"/><line class="cls-8" x1="352.54" y1="170.04" x2="356.6" y2="170.04"/><line class="cls-8" x1="383.66" y1="167.24" x2="383.66" y2="163.21"/><line class="cls-8" x1="378.82" y1="167.24" x2="378.82" y2="163.21"/><line class="cls-8" x1="373.97" y1="167.24" x2="373.97" y2="163.21"/><line class="cls-8" x1="369.12" y1="167.24" x2="369.12" y2="163.21"/><line class="cls-8" x1="364.27" y1="167.24" x2="364.27" y2="163.21"/><line class="cls-8" x1="359.42" y1="167.24" x2="359.42" y2="163.21"/><line class="cls-8" x1="383.66" y1="201.21" x2="383.66" y2="197.18"/><line class="cls-8" x1="378.82" y1="201.21" x2="378.82" y2="197.18"/><line class="cls-8" x1="373.97" y1="201.21" x2="373.97" y2="197.18"/><line class="cls-8" x1="369.12" y1="201.21" x2="369.12" y2="197.18"/><line class="cls-8" x1="364.27" y1="201.21" x2="364.27" y2="197.18"/><line class="cls-8" x1="359.42" y1="201.21" x2="359.42" y2="197.18"/><text class="cls-13" transform="translate(365.01 186.43)">A.<tspan class="cls-14" x="9.46" y="0">I</tspan><tspan class="cls-15" x="11.24" y="0">.</tspan></text><polyline class="cls-8" points="582.2 150.51 582.2 174.87 620.2 174.87 620.2 142.37 582.2 142.37 582.2 147.78 617.49 147.78"/><path class="cls-8" d="M605.44,158.79l2.94,2.93a1.36,1.36,0,0,1,1-.39,1.31,1.31,0,0,1,.68.19l4.09-7.15a1.3,1.3,0,0,1-.49-.47"/><path class="cls-8" d="M598,163.28l-3.63-1.45a1.34,1.34,0,0,1-2,.61l-3.92,5.88a1.31,1.31,0,0,1,.4.44"/><path class="cls-8" d="M598,163.28l.66.26a1.32,1.32,0,0,1,1.66-.79l.37-1.09"/><path class="cls-8" d="M605.44,158.79l-1.92-1.92a1.35,1.35,0,0,1-.95.39,1.32,1.32,0,0,1-.44-.08l-1.49,4.48"/><path class="cls-8" d="M594.32,161.83a1.44,1.44,0,0,0,.1-.5,1.35,1.35,0,1,0-2.11,1.11"/><path class="cls-8" d="M588.39,168.32a1.37,1.37,0,0,0-.74-.22,1.37,1.37,0,1,0,1.14.66"/><path class="cls-8" d="M598.61,163.54a1.33,1.33,0,0,0-.09.49,1.34,1.34,0,1,0,1.75-1.28"/><path class="cls-8" d="M603.52,156.87a1.35,1.35,0,1,0-1.39.31"/><path class="cls-8" d="M608.38,161.72a1.37,1.37,0,0,0-.39,1,1.34,1.34,0,1,0,2.68,0,1.32,1.32,0,0,0-.66-1.16"/><path class="cls-8" d="M614.1,154.37a1.26,1.26,0,0,0,.66.18,1.35,1.35,0,1,0-1.34-1.35,1.38,1.38,0,0,0,.19.7"/><g id="Group_12831" data-name="Group 12831"><rect id="Rectangle_9394" data-name="Rectangle 9394" class="cls-16" x="161.94" y="73.23" width="7.65" height="6.67"/><path id="Path_60586" data-name="Path 60586" class="cls-16" d="M168.64,73.23V71.34a2.86,2.86,0,0,0-5.71,0h0v1.89"/></g><path d="M17.62,120.92h1.13l1.3,3.59,1.29-3.59h1.13l-1.8,4.67H19.42Z"/><path d="M23.05,121.24a.53.53,0,1,1,.53.53A.54.54,0,0,1,23.05,121.24Zm.09,1H24v3.39h-.89Z"/><path d="M25.2,124.52a1.93,1.93,0,0,0,1.17.46c.38,0,.56-.13.56-.34s-.29-.32-.68-.4c-.58-.11-1.33-.25-1.33-1.06,0-.56.5-1.06,1.39-1.06a2.23,2.23,0,0,1,1.37.46l-.36.61a1.43,1.43,0,0,0-1-.39c-.33,0-.54.12-.54.31s.27.29.65.37c.58.11,1.36.26,1.36,1.11,0,.61-.53,1.08-1.47,1.08a2.24,2.24,0,0,1-1.51-.53Z"/><path d="M28.53,121.24a.53.53,0,1,1,.53.53A.54.54,0,0,1,28.53,121.24Zm.09,1h.89v3.39h-.89Z"/><path d="M30.75,124.75V123h-.56v-.78h.56v-.92h.89v.92h.69V123h-.69v1.53c0,.21.11.37.31.37a.49.49,0,0,0,.31-.1l.19.67a1.11,1.11,0,0,1-.75.22A.84.84,0,0,1,30.75,124.75Z"/><path d="M32.9,123.89a1.79,1.79,0,1,1,1.79,1.78A1.71,1.71,0,0,1,32.9,123.89Zm2.65,0a.87.87,0,1,0-.86,1A.89.89,0,0,0,35.55,123.89Z"/><path d="M37.33,122.2h.89v.47a1.43,1.43,0,0,1,1.08-.54V123a.9.9,0,0,0-.25,0,1.14,1.14,0,0,0-.83.38v2.24h-.89Z"/><path d="M41.87,124.52A2,2,0,0,0,43,125c.39,0,.57-.13.57-.34s-.3-.32-.68-.4c-.58-.11-1.33-.25-1.33-1.06,0-.56.5-1.06,1.39-1.06a2.2,2.2,0,0,1,1.36.46l-.36.61a1.41,1.41,0,0,0-1-.39c-.32,0-.53.12-.53.31s.27.29.64.37c.59.11,1.36.26,1.36,1.11,0,.61-.52,1.08-1.46,1.08a2.2,2.2,0,0,1-1.51-.53Z"/><path d="M46.84,122.12A1.69,1.69,0,0,1,48.53,124v.2H46a.91.91,0,0,0,1,.78,1.39,1.39,0,0,0,.91-.33l.39.57a2.11,2.11,0,0,1-1.39.47,1.78,1.78,0,1,1-.06-3.55ZM46,123.58h1.66a.77.77,0,0,0-.83-.75A.81.81,0,0,0,46,123.58Z"/><path d="M51.65,123.54a.55.55,0,0,0-.63-.63,1,1,0,0,0-.77.4v2.28h-.89V122.2h.89v.44a1.59,1.59,0,0,1,1.19-.52,1,1,0,0,1,1.1,1.08v2.39h-.89Z"/><path d="M55.93,125.15a1.32,1.32,0,0,1-1,.52c-.85,0-1.5-.64-1.5-1.77s.64-1.78,1.5-1.78a1.3,1.3,0,0,1,1,.52v-1.72h.89v4.67h-.89Zm0-1.85a1,1,0,0,0-.77-.39,1,1,0,0,0,0,2,1,1,0,0,0,.77-.39Z"/><path d="M58,124.52a1.93,1.93,0,0,0,1.17.46c.38,0,.56-.13.56-.34s-.29-.32-.67-.4c-.59-.11-1.34-.25-1.34-1.06,0-.56.5-1.06,1.39-1.06a2.21,2.21,0,0,1,1.37.46l-.36.61a1.41,1.41,0,0,0-1-.39c-.32,0-.53.12-.53.31s.26.29.64.37c.58.11,1.36.26,1.36,1.11,0,.61-.53,1.08-1.46,1.08a2.25,2.25,0,0,1-1.52-.53Z"/><path d="M63.18,122.2h.89v.47a1.43,1.43,0,0,1,1.08-.54V123a.9.9,0,0,0-.25,0,1.14,1.14,0,0,0-.83.38v2.24h-.89Z"/><path d="M67.4,122.12A1.69,1.69,0,0,1,69.09,124v.2H66.58a.9.9,0,0,0,1,.78,1.39,1.39,0,0,0,.91-.33l.39.57a2.11,2.11,0,0,1-1.4.47,1.78,1.78,0,0,1,0-3.55Zm-.84,1.46h1.67a.77.77,0,0,0-.83-.75A.82.82,0,0,0,66.56,123.58Z"/><path d="M72.26,126.88v-1.73a1.27,1.27,0,0,1-1,.52c-.86,0-1.49-.65-1.49-1.78s.63-1.77,1.49-1.77a1.29,1.29,0,0,1,1,.51v-.43h.9v4.68Zm0-3.58a1,1,0,0,0-.76-.39,1,1,0,0,0,0,2,1,1,0,0,0,.76-.39Z"/><path d="M76.49,125.16a1.56,1.56,0,0,1-1.19.51,1,1,0,0,1-1.09-1.06V122.2h.89v2.06a.54.54,0,0,0,.62.62,1,1,0,0,0,.77-.39V122.2h.89v3.39h-.89Z"/><path d="M80,122.12A1.69,1.69,0,0,1,81.68,124v.2H79.17a.9.9,0,0,0,1,.78,1.35,1.35,0,0,0,.9-.33l.4.57a2.11,2.11,0,0,1-1.4.47,1.78,1.78,0,0,1-.05-3.55Zm-.84,1.46h1.67a.77.77,0,0,0-.83-.75A.82.82,0,0,0,79.15,123.58Z"/><path d="M82.6,124.52a1.93,1.93,0,0,0,1.17.46c.38,0,.56-.13.56-.34s-.29-.32-.68-.4c-.58-.11-1.33-.25-1.33-1.06,0-.56.5-1.06,1.39-1.06a2.23,2.23,0,0,1,1.37.46l-.36.61a1.41,1.41,0,0,0-1-.39c-.32,0-.53.12-.53.31s.26.29.64.37c.58.11,1.36.26,1.36,1.11,0,.61-.53,1.08-1.46,1.08a2.25,2.25,0,0,1-1.52-.53Z"/><path d="M86.25,124.75V123h-.56v-.78h.56v-.92h.9v.92h.68V123h-.68v1.53c0,.21.11.37.31.37a.44.44,0,0,0,.3-.1l.19.67a1.08,1.08,0,0,1-.74.22A.85.85,0,0,1,86.25,124.75Z"/><path d="M30.74,131.75V130h-.56v-.78h.56v-.92h.9v.92h.68V130h-.68v1.53c0,.21.11.37.31.37a.44.44,0,0,0,.3-.1l.19.67a1.08,1.08,0,0,1-.74.22A.85.85,0,0,1,30.74,131.75Z"/><path d="M32.89,130.89a1.79,1.79,0,1,1,1.79,1.78A1.72,1.72,0,0,1,32.89,130.89Zm2.66,0a.87.87,0,1,0-.87,1A.9.9,0,0,0,35.55,130.89Z"/><path d="M41.09,132.24a1.41,1.41,0,0,1-1.07.43,1.13,1.13,0,0,1-1.18-1.12A1.08,1.08,0,0,1,40,130.47a1.36,1.36,0,0,1,1.07.41v-.46c0-.35-.29-.57-.74-.57a1.43,1.43,0,0,0-1,.4l-.33-.6a2.22,2.22,0,0,1,1.47-.53c.77,0,1.48.31,1.48,1.28v2.19h-.89Zm0-.89a.91.91,0,0,0-.71-.29c-.35,0-.64.18-.64.51s.29.5.64.5a.89.89,0,0,0,.71-.3Z"/><path d="M43,133.88V129.2h.89v.43a1.3,1.3,0,0,1,1-.51c.87,0,1.5.64,1.5,1.77s-.63,1.78-1.5,1.78a1.28,1.28,0,0,1-1-.52v1.73Zm1.65-4a1,1,0,0,0-.76.39v1.19a1,1,0,0,0,.76.39,1,1,0,0,0,0-2Z"/><path d="M47.33,133.88V129.2h.89v.43a1.31,1.31,0,0,1,1.05-.51c.86,0,1.5.64,1.5,1.77s-.64,1.78-1.5,1.78a1.32,1.32,0,0,1-1.05-.52v1.73Zm1.66-4a1,1,0,0,0-.77.39v1.19a1,1,0,0,0,.77.39,1,1,0,0,0,0-2Z"/><path d="M51.64,127.92h.89v4.67h-.89Z"/><path d="M53.49,128.24a.54.54,0,0,1,.53-.54.54.54,0,0,1,0,1.07A.54.54,0,0,1,53.49,128.24Zm.09,1h.89v3.39h-.89Z"/><path d="M57.09,129.12a1.59,1.59,0,0,1,1.34.61l-.58.55a.83.83,0,0,0-.72-.37,1,1,0,0,0,0,2,.87.87,0,0,0,.72-.36l.58.53a1.57,1.57,0,0,1-1.34.62,1.78,1.78,0,1,1,0-3.55Z"/><path d="M61.25,132.24a1.41,1.41,0,0,1-1.07.43A1.13,1.13,0,0,1,59,131.55a1.08,1.08,0,0,1,1.18-1.08,1.39,1.39,0,0,1,1.07.41v-.46c0-.35-.3-.57-.75-.57a1.38,1.38,0,0,0-1,.4l-.34-.6a2.24,2.24,0,0,1,1.48-.53c.77,0,1.48.31,1.48,1.28v2.19h-.89Zm0-.89a.92.92,0,0,0-.72-.29c-.35,0-.63.18-.63.51s.28.5.63.5a.89.89,0,0,0,.72-.3Z"/><path d="M63.36,131.75V130H62.8v-.78h.56v-.92h.89v.92h.69V130h-.69v1.53a.33.33,0,0,0,.31.37.47.47,0,0,0,.31-.1l.19.67a1.08,1.08,0,0,1-.74.22A.84.84,0,0,1,63.36,131.75Z"/><path d="M65.68,128.24a.54.54,0,0,1,.53-.54.54.54,0,1,1-.53.54Zm.09,1h.89v3.39h-.89Z"/><path d="M67.49,130.89a1.79,1.79,0,1,1,1.78,1.78A1.71,1.71,0,0,1,67.49,130.89Zm2.65,0a.87.87,0,1,0-.87,1A.89.89,0,0,0,70.14,130.89Z"/><path d="M74.2,130.54a.55.55,0,0,0-.63-.63,1,1,0,0,0-.77.4v2.28h-.88V129.2h.88v.44a1.59,1.59,0,0,1,1.19-.52,1,1,0,0,1,1.1,1.08v2.39H74.2Z"/><line class="cls-7" x1="73.27" y1="114.93" x2="32.38" y2="114.93"/><line class="cls-7" x1="52.83" y1="109.24" x2="52.83" y2="114.93"/><g id="mobile-phone"><ellipse cx="68.01" cy="59.23" rx="0.48" ry="0.46"/><path d="M68,58.26a1,1,0,1,0,1,1,1,1,0,0,0-1-1Z"/><line class="cls-8" x1="73.22" y1="91.39" x2="78.44" y2="91.39"/><path class="cls-8" d="M86.26,88.18V92A1.3,1.3,0,0,1,85,93.33H66.72A1.3,1.3,0,0,1,65.42,92V58.61a1.3,1.3,0,0,1,1.3-1.28H85a1.29,1.29,0,0,1,1.3,1.28v.67"/><rect class="cls-8" x="65.42" y="61.18" width="20.84" height="28.29" rx="1.29"/></g><g id="Group_12831-2" data-name="Group 12831"><rect id="Rectangle_9394-2" data-name="Rectangle 9394" class="cls-10" x="72.02" y="73.81" width="7.65" height="6.67"/><path id="Path_60586-2" data-name="Path 60586" class="cls-10" d="M78.72,73.81v-1.9a2.86,2.86,0,0,0-5.71,0h0v1.9"/></g><g id="monitor"><polyline class="cls-8" points="58.77 89.15 58.77 90.76 13.77 90.76 13.77 85.94 58.77 85.94 58.77 60.22 13.77 60.22 13.77 82.72"/><line class="cls-8" x1="36.28" y1="90.92" x2="36.28" y2="93.97"/><line class="cls-8" x1="26.62" y1="93.97" x2="45.91" y2="93.97"/><circle cx="36.28" cy="88.35" r="1.01"/></g><g id="Group_12831-3" data-name="Group 12831"><rect id="Rectangle_9394-3" data-name="Rectangle 9394" class="cls-10" x="32.44" y="72.56" width="7.65" height="6.67"/><path id="Path_60586-3" data-name="Path 60586" class="cls-10" d="M39.14,72.56V70.67a2.86,2.86,0,0,0-5.71,0h0v1.89"/></g><path d="M415.76,94.86h.92v7.34h-.92Z"/><path d="M422.06,98.72c0-.93-.48-1.23-1.19-1.23a2.09,2.09,0,0,0-1.58.82v3.89h-.82V96.89h.82v.76a2.69,2.69,0,0,1,1.9-.9,1.51,1.51,0,0,1,1.69,1.72v3.73h-.82Z"/><path d="M427.75,101.09V97.61h-.88v-.72h.88V95.43h.83v1.46h1.08v.72h-1.08v3.3c0,.4.17.68.54.68a.8.8,0,0,0,.56-.22l.24.62a1.35,1.35,0,0,1-1,.34A1.09,1.09,0,0,1,427.75,101.09Z"/><path d="M434.53,98.7c0-.93-.49-1.21-1.2-1.21a2.1,2.1,0,0,0-1.57.82v3.89h-.83V94.86h.83v2.79a2.67,2.67,0,0,1,1.9-.9,1.49,1.49,0,0,1,1.69,1.7v3.75h-.82Z"/><path d="M439.42,96.75A2.59,2.59,0,0,1,442,99.6v.21h-4.31a1.88,1.88,0,0,0,1.92,1.84,2.33,2.33,0,0,0,1.64-.67l.39.54a2.9,2.9,0,0,1-2.11.81,2.63,2.63,0,0,1-2.7-2.79A2.66,2.66,0,0,1,439.42,96.75Zm-1.75,2.46h3.49a1.72,1.72,0,0,0-1.75-1.77A1.78,1.78,0,0,0,437.67,99.21Z"/><path d="M446.1,98.54a3.66,3.66,0,0,1,3.74-3.8,3.33,3.33,0,0,1,2.82,1.45l-.77.43a2.49,2.49,0,0,0-2.05-1.07,3,3,0,0,0,0,6,2.47,2.47,0,0,0,2.05-1.07l.78.43a3.36,3.36,0,0,1-2.83,1.45A3.66,3.66,0,0,1,446.1,98.54Z"/><path d="M453.91,94.86h.83v7.34h-.83Z"/><path d="M456.19,99.54c-.2-3.63,5.45-3.63,5.25,0C461.64,103.17,456,103.17,456.19,99.54Zm4.39,0a1.78,1.78,0,1,0-3.54,0A1.78,1.78,0,1,0,460.58,99.54Z"/><path d="M466.48,101.45a2.59,2.59,0,0,1-1.89.88,1.49,1.49,0,0,1-1.69-1.69V96.89h.82v3.49c0,.94.47,1.21,1.19,1.21a2,2,0,0,0,1.57-.8v-3.9h.83v5.31h-.83Z"/><path d="M472.92,101.41a2.25,2.25,0,0,1-1.8.92c-1.38,0-2.36-1.06-2.36-2.78s1-2.8,2.36-2.8a2.21,2.21,0,0,1,1.8.94V94.86h.82v7.34h-.82Zm0-3.06a2,2,0,0,0-1.6-.86c-1.06,0-1.7.88-1.7,2.06s.64,2,1.7,2a2,2,0,0,0,1.6-.83Z"/></g></g></svg>