<svg id="Layer_1" data-name="Layer 1" xmlns="http://www.w3.org/2000/svg" viewBox="0 0 64.97 55.8"><defs><style>.cls-1{fill:#f36f4c;}</style></defs><g id="Group_11188" data-name="Group 11188"><path id="Path_60457" data-name="Path 60457" class="cls-1" d="M527.05,285.73h-63.3a.84.84,0,0,1-.84-.83V244.32a.84.84,0,0,1,1.67,0v39.8h61.63V231.6H464.58V239h57.94a.85.85,0,0,1,.84.84.84.84,0,0,1-.84.83H463.75a.84.84,0,0,1-.84-.83v-9a.84.84,0,0,1,.84-.83h63.3a.83.83,0,0,1,.83.83h0V284.9A.83.83,0,0,1,527.05,285.73Z" transform="translate(-462.91 -229.93)"/><g id="Group_11187" data-name="Group 11187"><path id="Path_60458" data-name="Path 60458" class="cls-1" d="M507.36,263.84a.83.83,0,0,1-.59-.25l-4.9-4.89a.83.83,0,1,1,1.17-1.18h0l4.39,4.37a3.09,3.09,0,0,1,2.27-.29L515.8,251a2.9,2.9,0,0,1-.45-.58.83.83,0,0,1,.31-1.13.82.82,0,0,1,1.12.28,1.46,1.46,0,0,0,.52.5.84.84,0,0,1,.31,1.14l-6.82,11.9a.83.83,0,0,1-1.14.3h0a1.36,1.36,0,0,0-1.69.21.87.87,0,0,1-.59.24Z" transform="translate(-462.91 -229.93)"/><path id="Path_60459" data-name="Path 60459" class="cls-1" d="M474.72,275.55a.81.81,0,0,1-.71-.4,1.45,1.45,0,0,0-.43-.46.83.83,0,0,1-.23-1.15l6.55-9.8a.82.82,0,0,1,1.15-.23h0a1.3,1.3,0,0,0,.79.25,1.4,1.4,0,0,0,1.3-.89.83.83,0,0,1,1.08-.47h0l6,2.42a.83.83,0,0,1-.62,1.54l-5.37-2.14a3,3,0,0,1-3.41,1l-5.74,8.6a3.19,3.19,0,0,1,.3.42.85.85,0,0,1-.29,1.15.92.92,0,0,1-.43.11Z" transform="translate(-462.91 -229.93)"/><path id="Path_60460" data-name="Path 60460" class="cls-1" d="M491.08,266.87a.81.81,0,0,1-.31-.06l-1.11-.44a.85.85,0,0,1-.44-1.1.83.83,0,0,1,1.06-.45l.43.17a3,3,0,0,1,2.58-1.22l.38-1.13a.83.83,0,1,1,1.59.48s0,0,0,.05l-.6,1.81a.83.83,0,0,1-1.05.53,1.56,1.56,0,0,0-.43-.08,1.41,1.41,0,0,0-1.3.9.83.83,0,0,1-.78.53Z" transform="translate(-462.91 -229.93)"/><path id="Path_60461" data-name="Path 60461" class="cls-1" d="M494.46,263.74a.84.84,0,0,1-.84-.83.86.86,0,0,1,.05-.27l2.49-7.46a.83.83,0,0,1,1-.53h0a1.35,1.35,0,0,0,1.45-.33.88.88,0,0,1,.59-.25h0a.83.83,0,0,1,.59.25l3.2,3.2a.83.83,0,0,1-1.17,1.19h0L499.18,256a3.07,3.07,0,0,1-1.68.39l-2.26,6.76A.83.83,0,0,1,494.46,263.74Z" transform="translate(-462.91 -229.93)"/><path id="Path_60462" data-name="Path 60462" class="cls-1" d="M480.59,265a.87.87,0,0,1-.47-.15,3.08,3.08,0,1,1,4.58-1.4.83.83,0,0,1-1.54-.62,1.61,1.61,0,0,0,.1-.53,1.4,1.4,0,1,0-2.8.05,1.39,1.39,0,0,0,.6,1.13.83.83,0,0,1-.47,1.51Z" transform="translate(-462.91 -229.93)"/><path id="Path_60463" data-name="Path 60463" class="cls-1" d="M472.82,279a3.09,3.09,0,0,1,0-6.18,3.06,3.06,0,0,1,1.7.52,1.64,1.64,0,0,0,.93,1,3.09,3.09,0,0,1-2.63,4.68Zm0-4.51a1.44,1.44,0,1,0,1.4,1.46,1.39,1.39,0,0,0-.2-.77.42.42,0,0,0-.37-.46h-.06a1.42,1.42,0,0,0-.77-.23Z" transform="translate(-462.91 -229.93)"/><path id="Path_60464" data-name="Path 60464" class="cls-1" d="M493.16,269.94a3.07,3.07,0,0,1-2.85-4.21.83.83,0,0,1,1.1-.42.84.84,0,0,1,.45,1,1.37,1.37,0,0,0-.1.52,1.39,1.39,0,0,0,1.41,1.39,1.4,1.4,0,0,0,.42-2.73.84.84,0,0,1-.53-1.05.82.82,0,0,1,1.05-.53h0a3.08,3.08,0,0,1-.95,6Z" transform="translate(-462.91 -229.93)"/><path id="Path_60465" data-name="Path 60465" class="cls-1" d="M497,256.28a.87.87,0,0,1-.28,0,3.06,3.06,0,1,1,3.91-1.88,3.26,3.26,0,0,1-.73,1.16.84.84,0,0,1-1.18,0,.83.83,0,0,1,0-1.18,1.41,1.41,0,1,0-2,0,1.36,1.36,0,0,0,.54.35.83.83,0,0,1,.51,1.06.84.84,0,0,1-.78.56Z" transform="translate(-462.91 -229.93)"/><path id="Path_60466" data-name="Path 60466" class="cls-1" d="M508.94,267.69a3.1,3.1,0,0,1-2.17-5.28.83.83,0,0,1,1.18,1.18,1.41,1.41,0,1,0,2,2,1.42,1.42,0,0,0,0-2,1.33,1.33,0,0,0-.3-.23.84.84,0,0,1,.85-1.44h0a3.09,3.09,0,0,1-1.56,5.74Z" transform="translate(-462.91 -229.93)"/><path id="Path_60467" data-name="Path 60467" class="cls-1" d="M518,251.9a3,3,0,0,1-1.51-.41,1.62,1.62,0,0,0-1.11-1.09,3.06,3.06,0,1,1,4.19,1.07,3.09,3.09,0,0,1-1.57.43Zm-1.08-2a.92.92,0,0,1,.4.11,1.27,1.27,0,0,0,.68.19,1.44,1.44,0,1,0-1.4-1.47,1.4,1.4,0,0,0,.2.78.69.69,0,0,1,.12.39Z" transform="translate(-462.91 -229.93)"/></g></g></svg>