<svg id="Layer_1" data-name="Layer 1" xmlns="http://www.w3.org/2000/svg" viewBox="0 0 300 300"><defs><style>.cls-1{fill:none;stroke:#00953b;stroke-miterlimit:10;stroke-width:12px;}.cls-2{fill:#00953b;}</style></defs><title>icons-PMS355</title><path class="cls-1" d="M260.87167,33.47966H39.07935c-7.48013,0-13.59859,6.53672-13.59859,14.591V197.85183c0,8.06374,6.11846,14.591,13.59859,14.591H260.87167c7.52911,0,13.64757-6.52722,13.64757-14.591V48.07062c0-8.05424-6.11846-14.591-13.64757-14.591Z"/><path class="cls-2" d="M150,78.658a44.30289,44.30289,0,1,0,44.30281,44.30292A44.24727,44.24727,0,0,0,150,78.658Zm25.29626,46.48206-35.21055,27.63809c-1.52686,1.19857-2.77627.591-2.77627-1.35017V94.49379c0-1.94117,1.24941-2.54875,2.77627-1.35018l35.21055,27.638A2.64565,2.64565,0,0,1,175.29626,125.14005Z"/><path class="cls-2" d="M204.46879,250.93729H188.93442a15.60488,15.60488,0,0,1-15.583-15.58335V212.02776H126.65031v23.32618a15.56357,15.56357,0,0,1-15.53466,15.58335H95.5329a7.79153,7.79153,0,1,0,0,15.583H204.46879a7.79153,7.79153,0,1,0,0-15.583Z"/></svg>