<svg id="Layer_1" data-name="Layer 1" xmlns="http://www.w3.org/2000/svg" viewBox="0 0 300 300"><defs><style>.cls-1{fill:#009639;}</style></defs><path class="cls-1" d="M265.17,96.21a8.8,8.8,0,0,0-2.9-6.53A16,16,0,0,0,256,86.09l-98.2-31.87a26.27,26.27,0,0,0-15.48,0L44.07,86.09a15.87,15.87,0,0,0-6.34,3.6,8.79,8.79,0,0,0-2.91,6.47v63.69a8.83,8.83,0,0,0,2.9,6.53l.13.12A16,16,0,0,0,44,170l1.19.39V179L35.12,219.2a3.81,3.81,0,0,0-.12,1c0,.36.16,9,14.13,9s14.12-8.61,14.12-9a3.81,3.81,0,0,0-.12-1L53,179v-6.14l18.17,5.89v32.8a4.17,4.17,0,0,0,.17,1.16C71.79,214.1,82.53,246,151.25,246s79.46-31.85,79.89-33.21a3.83,3.83,0,0,0,.17-1.16V178l24.62-8a15.7,15.7,0,0,0,6.34-3.6,8.77,8.77,0,0,0,2.91-6.46ZM55.29,220c-.56.53-2.27,1.36-6.16,1.36S43.52,220.5,43,220l6.17-24.5Zm168.23-9.13c-1.61,3.64-14.36,27.32-72.27,27.32S80.53,214.37,79,210.85V181.31l63.27,20.53a25.66,25.66,0,0,0,15.48,0l65.79-21.35ZM257.39,160c0,.1-.11.39-.55.82a8.51,8.51,0,0,1-3.29,1.76L155.3,194.45a18.33,18.33,0,0,1-10.63,0L77.45,172.63a3.85,3.85,0,0,0-2.37-.83l-.12,0-14.27-4.63,81.8-32a20.51,20.51,0,0,0,7.51,1.37c7.61,0,13.79-3.8,13.79-8.5s-6.18-8.5-13.79-8.5-13.79,3.81-13.79,8.5a5,5,0,0,0,.15,1.16L49,163.39l-2.57-.83a8.56,8.56,0,0,1-3.27-1.76l-.07-.07a1.34,1.34,0,0,1-.48-.81V96.09a1.58,1.58,0,0,1,.54-.82,8.64,8.64,0,0,1,3.29-1.77L144.7,61.62a18.21,18.21,0,0,1,10.62,0l98.25,31.89a8.43,8.43,0,0,1,3.26,1.76c.44.42.56.73.56.89Z"/></svg>