<svg id="Layer_1" data-name="Layer 1" xmlns="http://www.w3.org/2000/svg" viewBox="0 0 69.17 69.17"><defs><style>.cls-1{fill:#f36f4c;}</style></defs><g id="Group_11183" data-name="Group 11183"><circle id="Ellipse_4" data-name="Ellipse 4" class="cls-1" cx="34.59" cy="34.59" r="4.26"/><path id="Path_60448" data-name="Path 60448" class="cls-1" d="M412.45,272.28a.86.86,0,0,1-.86-.87.92.92,0,0,1,.11-.43l14.67-25.56a.87.87,0,0,1,1.18-.32.86.86,0,0,1,.32,1.18L413.2,271.84A.86.86,0,0,1,412.45,272.28Z" transform="translate(-377.87 -236.83)"/><path id="Path_60449" data-name="Path 60449" class="cls-1" d="M412.45,306A34.59,34.59,0,1,1,447,271.41,34.58,34.58,0,0,1,412.45,306Zm0-67.44a32.86,32.86,0,1,0,32.86,32.85h0a32.89,32.89,0,0,0-32.86-32.85Z" transform="translate(-377.87 -236.83)"/><path id="Path_60450" data-name="Path 60450" class="cls-1" d="M437.56,272.28a.87.87,0,0,1-.87-.87h0a24.08,24.08,0,0,0-1.43-8.23.87.87,0,0,1,1.63-.59,25.78,25.78,0,0,1,1.53,8.82A.86.86,0,0,1,437.56,272.28Zm-50.21,0a.87.87,0,0,1-.87-.87h0a26,26,0,0,1,26-26,25.72,25.72,0,0,1,16,5.53.86.86,0,1,1-1.06,1.36h0a24,24,0,0,0-15-5.16,24.28,24.28,0,0,0-24.24,24.24A.86.86,0,0,1,387.35,272.28Zm47-12.34a.86.86,0,0,1-.75-.44,24.71,24.71,0,0,0-3-4.23.86.86,0,1,1,1.24-1.2l.05.05a25.78,25.78,0,0,1,3.24,4.53.87.87,0,0,1-.32,1.18.92.92,0,0,1-.43.11Z" transform="translate(-377.87 -236.83)"/></g></svg>