<svg id="Layer_1" data-name="Layer 1" xmlns="http://www.w3.org/2000/svg" viewBox="0 0 61.46 70.09"><defs><style>.cls-1{fill:#f36f4c;}</style></defs><g id="Group_11185" data-name="Group 11185"><g id="Group_11184" data-name="Group 11184"><path id="Path_60451" data-name="Path 60451" class="cls-1" d="M478.64,283.46a8.69,8.69,0,1,1,0-17.38,8.49,8.49,0,0,1,3.23.63.63.63,0,0,1,.36.82.64.64,0,0,1-.83.35h0a7.43,7.43,0,1,0,2.53,1.68l-5.95,9a.64.64,0,0,1-.51.28.64.64,0,0,1-.53-.25l-3.42-4.54a.63.63,0,1,1,1-.76l2.88,3.82,5.85-8.84a.63.63,0,0,1,.86-.23l.11.08a8.69,8.69,0,0,1-5.61,15.34Z" transform="translate(-464.72 -222.79)"/></g><path id="Path_60452" data-name="Path 60452" class="cls-1" d="M478.66,292.88a.84.84,0,0,1-.49-.15s-2-1.38-7-5c-5.87-4.29-5.91-9.35-5.88-10s-.57-7-.57-11a4.41,4.41,0,0,1,1.08-3.4c1-.94,2.49-.82,4.05-.69.38,0,.78.07,1.18.09l1.31.06,3.92-2.86a4.1,4.1,0,0,1,5.1.08l3.63,2.78,1.29-.06h0l1.18-.08c1.56-.14,3-.26,4,.68a4.38,4.38,0,0,1,1.08,3.41c0,4-.51,10.31-.56,11s0,5.75-5.89,10c-5,3.65-7,5-7,5A.92.92,0,0,1,478.66,292.88ZM468.29,264.2a2,2,0,0,0-1.33.33,3.09,3.09,0,0,0-.53,2.17c0,4.09.55,10.81.56,10.88v.12c0,.19-.2,4.7,5.19,8.63,3.61,2.64,5.63,4.08,6.47,4.68.86-.6,2.89-2,6.5-4.68,5.39-3.93,5.2-8.44,5.2-8.63a.24.24,0,0,1,0-.12c0-.07.56-6.79.56-10.88a3,3,0,0,0-.54-2.17c-.47-.43-1.53-.34-2.76-.24-.4,0-.81.07-1.24.09l-1.62.07a.8.8,0,0,1-.6-.23l-3.8-2.91a2.43,2.43,0,0,0-3.08-.05l-4.16,3a.83.83,0,0,1-.53.16l-1.62-.07c-.43,0-.84-.06-1.24-.09S468.72,264.2,468.29,264.2Z" transform="translate(-464.72 -222.79)"/></g><path id="Path_60453" data-name="Path 60453" class="cls-1" d="M513.36,280.4H491a.85.85,0,1,1-.06-1.69h22.44a11.11,11.11,0,0,0,11.13-11.07v-32.1a11.11,11.11,0,0,0-11.13-11.06H481.11A11.1,11.1,0,0,0,470,235.54v27.85a.85.85,0,0,1-1.69,0V235.54a12.8,12.8,0,0,1,12.82-12.75h32.25a12.79,12.79,0,0,1,12.81,12.75v32.1A12.79,12.79,0,0,1,513.36,280.4Z" transform="translate(-464.72 -222.79)"/><g id="Group_11186" data-name="Group 11186"><path id="Path_60454" data-name="Path 60454" class="cls-1" d="M487.79,253.68a4.35,4.35,0,0,1-3.34,1.38,3.34,3.34,0,0,1-3.51-3.16.76.76,0,0,1,0-.15,3.29,3.29,0,0,1,3.27-3.31h.25a4.22,4.22,0,0,1,3.34,1.37V248c0-1.35-1.09-2.12-2.55-2.12a4,4,0,0,0-3.08,1.39l-.73-1.08a5.31,5.31,0,0,1,4-1.66c2.13,0,3.9,1,3.9,3.38v6.88h-1.56Zm0-2.86a3.39,3.39,0,0,0-2.77-1.25,2.2,2.2,0,1,0-.48,4.38,3.84,3.84,0,0,0,.48,0,3.42,3.42,0,0,0,2.77-1.25Z" transform="translate(-464.72 -222.79)"/><path id="Path_60455" data-name="Path 60455" class="cls-1" d="M492.31,258.63V244.81h1.56v1.49a4.2,4.2,0,0,1,3.4-1.74c2.64,0,4.48,2,4.48,5.24s-1.84,5.27-4.48,5.27a4.16,4.16,0,0,1-3.4-1.77v5.33ZM496.87,246a3.7,3.7,0,0,0-3,1.59v4.52a3.73,3.73,0,0,0,3,1.62c2,0,3.23-1.66,3.23-3.88s-1.21-3.86-3.23-3.86Z" transform="translate(-464.72 -222.79)"/><path id="Path_60456" data-name="Path 60456" class="cls-1" d="M504.1,258.63V244.81h1.56v1.49a4.2,4.2,0,0,1,3.4-1.74c2.64,0,4.48,2,4.48,5.24s-1.84,5.27-4.48,5.27a4.16,4.16,0,0,1-3.4-1.77v5.33ZM508.66,246a3.7,3.7,0,0,0-3,1.59v4.52a3.73,3.73,0,0,0,3,1.62c2,0,3.23-1.66,3.23-3.88s-1.21-3.86-3.23-3.86Z" transform="translate(-464.72 -222.79)"/></g></svg>