<svg id="Layer_1" data-name="Layer 1" xmlns="http://www.w3.org/2000/svg" viewBox="0 0 62.13 67.97"><defs><style>.cls-1{fill:#f36f4c;}</style></defs><g id="Group_11181" data-name="Group 11181"><path id="Path_60419" data-name="Path 60419" class="cls-1" d="M380.6,333.29a8.31,8.31,0,0,1-8.32-8.32,8.84,8.84,0,0,1,.18-1.7h0a8.29,8.29,0,1,1,8.14,10Zm-6.9-9.76a7,7,0,1,0,13.76,2.89h0a7,7,0,1,0-13.76-2.89Z" transform="translate(-365.44 -272.19)"/><g id="Group_11180" data-name="Group 11180"><path id="Path_60420" data-name="Path 60420" class="cls-1" d="M384.21,315.35a.52.52,0,0,1-.21,0,10.66,10.66,0,0,0-1.34-.37l-.18,0a.62.62,0,0,1-.5-.49l-.77-3.82a.64.64,0,0,1,.53-.72.63.63,0,0,1,.71.47l.69,3.4.86.24,2.19-2.63a.61.61,0,0,1,.88-.08.63.63,0,0,1,.09.89h0l-2.46,3A.65.65,0,0,1,384.21,315.35Z" transform="translate(-365.44 -272.19)"/><path id="Path_60421" data-name="Path 60421" class="cls-1" d="M382.6,314.92a.65.65,0,0,1-.62-.51l-.67-3.35c-.5,0-1,0-1.49,0l-.58,3.32a.62.62,0,0,1-.72.51.63.63,0,0,1-.52-.73l.66-3.8a.64.64,0,0,1,.56-.52,14.88,14.88,0,0,1,2.67,0,.65.65,0,0,1,.56.5l.77,3.82a.63.63,0,0,1-.49.74Z" transform="translate(-365.44 -272.19)"/><path id="Path_60422" data-name="Path 60422" class="cls-1" d="M388.77,318.47a.67.67,0,0,1-.48-.21,10.51,10.51,0,0,0-1.05-1.06.63.63,0,0,1-.19-.68l1.23-3.69a.63.63,0,0,1,.8-.4.63.63,0,0,1,.4.8l-1.1,3.3a7.66,7.66,0,0,1,.57.57l3.19-1.21a.64.64,0,0,1,.47,1.18h0L389,318.43A.45.45,0,0,1,388.77,318.47Z" transform="translate(-365.44 -272.19)"/><path id="Path_60423" data-name="Path 60423" class="cls-1" d="M387.65,317.35a.63.63,0,0,1-.63-.63.69.69,0,0,1,0-.2l1.08-3.23a13.94,13.94,0,0,0-1.29-.75l-2.15,2.58a.63.63,0,0,1-1-.8l2.46-3a.63.63,0,0,1,.75-.17,14.23,14.23,0,0,1,2.31,1.32.64.64,0,0,1,.24.72l-1.23,3.69A.63.63,0,0,1,387.65,317.35Z" transform="translate(-365.44 -272.19)"/><path id="Path_60424" data-name="Path 60424" class="cls-1" d="M373.49,317.37a.63.63,0,0,1-.59-.41l-1.35-3.61a.62.62,0,0,1,.22-.73,15.27,15.27,0,0,1,2.3-1.36.63.63,0,0,1,.74.15l2.59,2.9a.63.63,0,1,1-.94.84l-2.27-2.54a14.87,14.87,0,0,0-1.28.76l1.18,3.15a.63.63,0,0,1-.38.81.52.52,0,0,1-.21,0Z" transform="translate(-365.44 -272.19)"/><path id="Path_60425" data-name="Path 60425" class="cls-1" d="M376.93,315.36a.64.64,0,0,1-.47-.21l-2.59-2.9a.63.63,0,0,1,.05-.89.62.62,0,0,1,.89.05l2.31,2.58c.31-.1.63-.18.95-.26l.59-3.37a.63.63,0,1,1,1.24.21h0l-.66,3.8a.63.63,0,0,1-.5.52,9.68,9.68,0,0,0-1.6.43A.78.78,0,0,1,376.93,315.36Z" transform="translate(-365.44 -272.19)"/><path id="Path_60426" data-name="Path 60426" class="cls-1" d="M392.48,333.92l-.2,0-3.68-1.23a.63.63,0,0,1-.4-.8.63.63,0,0,1,.8-.4l3.23,1.08c.27-.42.51-.86.74-1.3l-2.58-2.15a.63.63,0,0,1-.08-.89.62.62,0,0,1,.89-.08l2.95,2.46a.63.63,0,0,1,.17.75,14.76,14.76,0,0,1-1.32,2.32A.63.63,0,0,1,392.48,333.92Z" transform="translate(-365.44 -272.19)"/><path id="Path_60427" data-name="Path 60427" class="cls-1" d="M372.37,318.5l-.2,0-3.68-1.24a.63.63,0,1,1,.4-1.2h0l3.29,1.11a7.66,7.66,0,0,1,.57-.57l-1.2-3.21a.63.63,0,1,1,1.17-.45h0l1.35,3.61a.64.64,0,0,1-.18.7,10.41,10.41,0,0,0-1,1A.69.69,0,0,1,372.37,318.5Z" transform="translate(-365.44 -272.19)"/><path id="Path_60428" data-name="Path 60428" class="cls-1" d="M390.78,321.92a.63.63,0,0,1-.63-.63.64.64,0,0,1,.21-.47l2.53-2.28c-.23-.44-.49-.88-.76-1.29L389,318.43a.62.62,0,0,1-.81-.36.64.64,0,0,1,.37-.82l3.59-1.36a.63.63,0,0,1,.74.23,14.29,14.29,0,0,1,1.35,2.3.61.61,0,0,1-.14.74l-2.88,2.6A.67.67,0,0,1,390.78,321.92Z" transform="translate(-365.44 -272.19)"/><path id="Path_60429" data-name="Path 60429" class="cls-1" d="M393.75,331.7a.67.67,0,0,1-.4-.14l-3-2.47a.64.64,0,0,1-.19-.7,10.07,10.07,0,0,0,.37-1.33l0-.19a.63.63,0,0,1,.49-.5l3.8-.77a.64.64,0,0,1,.75.49.63.63,0,0,1-.5.74l-3.39.7c-.06.28-.14.57-.23.87l2.62,2.19a.63.63,0,0,1-.4,1.11Z" transform="translate(-365.44 -272.19)"/><path id="Path_60430" data-name="Path 60430" class="cls-1" d="M391.23,327.62a.63.63,0,0,1-.13-1.25l3.34-.68q0-.75,0-1.5l-3.3-.57a.63.63,0,1,1,.21-1.25h0l3.79.66a.63.63,0,0,1,.52.57,14.88,14.88,0,0,1,0,2.67.64.64,0,0,1-.5.56l-3.8.78Z" transform="translate(-365.44 -272.19)"/><path id="Path_60431" data-name="Path 60431" class="cls-1" d="M395,324.29h-.11l-3.79-.66a.64.64,0,0,1-.51-.51,10.07,10.07,0,0,0-.43-1.61.62.62,0,0,1,.17-.68l2.88-2.6a.63.63,0,0,1,.85.94l-2.58,2.32c.1.32.19.64.26,1l3.37.58a.64.64,0,0,1-.11,1.26Z" transform="translate(-365.44 -272.19)"/><path id="Path_60432" data-name="Path 60432" class="cls-1" d="M386.85,338.73a.64.64,0,0,1-.47-.21l-2.6-2.89a.64.64,0,0,1,.05-.9.63.63,0,0,1,.89,0h0l2.28,2.53a12.68,12.68,0,0,0,1.28-.76l-1.18-3.14a.63.63,0,1,1,1.18-.45l1.36,3.61a.62.62,0,0,1-.23.73,14.7,14.7,0,0,1-2.29,1.36A.64.64,0,0,1,386.85,338.73Z" transform="translate(-365.44 -272.19)"/><path id="Path_60433" data-name="Path 60433" class="cls-1" d="M379.3,340.1a.61.61,0,0,1-.61-.51l-.69-3.41c-.28-.06-.57-.14-.86-.23L375,338.57a.63.63,0,0,1-1-.81l2.47-2.95a.62.62,0,0,1,.7-.19,10.39,10.39,0,0,0,1.35.38l.16,0a.63.63,0,0,1,.5.5l.77,3.82a.64.64,0,0,1-.5.74h-.13Z" transform="translate(-365.44 -272.19)"/><path id="Path_60434" data-name="Path 60434" class="cls-1" d="M380.61,340.16c-.46,0-.91,0-1.36-.06a.63.63,0,0,1-.56-.5l-.77-3.82a.63.63,0,0,1,1.24-.25h0l.67,3.35c.5,0,1,0,1.49,0l.58-3.32a.63.63,0,1,1,1.24.22h0l-.66,3.8a.63.63,0,0,1-.57.52C381.48,340.14,381,340.16,380.61,340.16Z" transform="translate(-365.44 -272.19)"/><path id="Path_60435" data-name="Path 60435" class="cls-1" d="M381.86,340.1h-.11a.63.63,0,0,1-.52-.73l.67-3.8a.63.63,0,0,1,.51-.51,10.33,10.33,0,0,0,1.63-.44.62.62,0,0,1,.68.17l2.6,2.89a.63.63,0,0,1-.94.84h0l-2.32-2.58c-.32.1-.66.2-1,.27l-.59,3.38A.62.62,0,0,1,381.86,340.1Z" transform="translate(-365.44 -272.19)"/><path id="Path_60436" data-name="Path 60436" class="cls-1" d="M389,337.42a.64.64,0,0,1-.59-.41l-1.35-3.6a.62.62,0,0,1,.17-.7,10.61,10.61,0,0,0,1.06-1.06.62.62,0,0,1,.68-.19l3.68,1.23a.63.63,0,0,1,.4.8.63.63,0,0,1-.8.4l-3.29-1.1a7.8,7.8,0,0,1-.57.58l1.21,3.2a.64.64,0,0,1-.37.81.57.57,0,0,1-.22,0Z" transform="translate(-365.44 -272.19)"/><path id="Path_60437" data-name="Path 60437" class="cls-1" d="M374.47,338.8a.66.66,0,0,1-.27-.06,16.07,16.07,0,0,1-2.31-1.33.65.65,0,0,1-.23-.72L372.9,333a.63.63,0,1,1,1.2.4L373,336.64a13.84,13.84,0,0,0,1.29.74l2.15-2.58a.64.64,0,0,1,.89-.08.62.62,0,0,1,.08.89h0l-2.46,3A.65.65,0,0,1,374.47,338.8Z" transform="translate(-365.44 -272.19)"/><path id="Path_60438" data-name="Path 60438" class="cls-1" d="M366.13,324.33a.63.63,0,0,1-.12-1.25l3.39-.69q.11-.43.24-.87l-2.62-2.2a.63.63,0,1,1,.81-1l2.95,2.47a.62.62,0,0,1,.19.69,9.49,9.49,0,0,0-.38,1.36l0,.17a.64.64,0,0,1-.5.5l-3.8.76Z" transform="translate(-365.44 -272.19)"/><path id="Path_60439" data-name="Path 60439" class="cls-1" d="M370.37,322a.73.73,0,0,1-.4-.15l-3-2.48a.63.63,0,0,1-.16-.74,14.76,14.76,0,0,1,1.32-2.32.64.64,0,0,1,.72-.24l3.68,1.24a.63.63,0,0,1,.4.8.63.63,0,0,1-.8.4L369,317.38a12.81,12.81,0,0,0-.74,1.3l2.55,2.15a.62.62,0,0,1,.08.89.65.65,0,0,1-.48.23Z" transform="translate(-365.44 -272.19)"/><path id="Path_60440" data-name="Path 60440" class="cls-1" d="M369.92,327.55h-.11l-3.79-.66a.64.64,0,0,1-.52-.57,14.88,14.88,0,0,1,0-2.67.63.63,0,0,1,.5-.56l3.8-.77a.64.64,0,0,1,.75.49.65.65,0,0,1-.5.75l-3.33.67a12.51,12.51,0,0,0,0,1.5l3.3.58a.63.63,0,0,1-.11,1.25Z" transform="translate(-365.44 -272.19)"/><path id="Path_60441" data-name="Path 60441" class="cls-1" d="M368.78,334.06a.6.6,0,0,1-.51-.26,16.16,16.16,0,0,1-1.36-2.3.63.63,0,0,1,.15-.74l2.89-2.6a.62.62,0,0,1,.89.08.63.63,0,0,1,0,.86l-2.53,2.27a11.8,11.8,0,0,0,.76,1.29l3.13-1.18a.64.64,0,0,1,.45,1.19L369,334A.54.54,0,0,1,368.78,334.06Z" transform="translate(-365.44 -272.19)"/><path id="Path_60442" data-name="Path 60442" class="cls-1" d="M372.26,337.52a.64.64,0,0,1-.64-.63.45.45,0,0,1,0-.2l1.1-3.3-.57-.57L369,334a.64.64,0,0,1-.81-.37.63.63,0,0,1,.37-.81l3.6-1.36a.64.64,0,0,1,.7.18,9.55,9.55,0,0,0,1.05,1.06.64.64,0,0,1,.18.68l-1.24,3.69A.61.61,0,0,1,372.26,337.52Z" transform="translate(-365.44 -272.19)"/><path id="Path_60443" data-name="Path 60443" class="cls-1" d="M367.48,331.86a.63.63,0,0,1-.42-1.1l2.58-2.32c-.1-.32-.18-.64-.26-1l-3.36-.59a.63.63,0,0,1,.22-1.25l3.78.67a.65.65,0,0,1,.52.51,10.07,10.07,0,0,0,.43,1.61.64.64,0,0,1-.18.68l-2.88,2.6A.67.67,0,0,1,367.48,331.86Z" transform="translate(-365.44 -272.19)"/></g></g><path id="Path_60444" data-name="Path 60444" class="cls-1" d="M414.81,329.61H395.87a.85.85,0,0,1-.06-1.69h19a11.06,11.06,0,0,0,11.08-11v-32a11.06,11.06,0,0,0-11.08-11H382.66a11.06,11.06,0,0,0-11.09,11v25.23a.84.84,0,0,1-1.68,0V284.9a12.74,12.74,0,0,1,12.77-12.71h32.15a12.76,12.76,0,0,1,12.77,12.71v32A12.77,12.77,0,0,1,414.81,329.61Z" transform="translate(-365.44 -272.19)"/><g id="Group_11182" data-name="Group 11182"><path id="Path_60445" data-name="Path 60445" class="cls-1" d="M389.31,303a4.33,4.33,0,0,1-3.32,1.39,3.35,3.35,0,0,1-3.5-3.16.76.76,0,0,0,0-.15,3.29,3.29,0,0,1,3.27-3.29H386a4.16,4.16,0,0,1,3.32,1.36v-1.8c0-1.34-1.07-2.11-2.53-2.11a4,4,0,0,0-3.07,1.39l-.73-1.08a5.28,5.28,0,0,1,4-1.65c2.12,0,3.88.95,3.88,3.37v6.86h-1.56Zm0-2.85a3.34,3.34,0,0,0-2.76-1.24,2.2,2.2,0,0,0-.6,4.36,2,2,0,0,0,.6,0,3.34,3.34,0,0,0,2.76-1.24Z" transform="translate(-365.44 -272.19)"/><path id="Path_60446" data-name="Path 60446" class="cls-1" d="M393.82,307.91V294.13h1.56v1.49a4.2,4.2,0,0,1,3.38-1.74c2.64,0,4.47,2,4.47,5.23s-1.83,5.25-4.47,5.25a4.14,4.14,0,0,1-3.38-1.76v5.31Zm4.55-12.64a3.68,3.68,0,0,0-3,1.59v4.5a3.75,3.75,0,0,0,3,1.61c2,0,3.22-1.65,3.22-3.86s-1.21-3.84-3.22-3.84Z" transform="translate(-365.44 -272.19)"/><path id="Path_60447" data-name="Path 60447" class="cls-1" d="M405.57,307.91V294.13h1.56v1.49a4.2,4.2,0,0,1,3.38-1.74c2.64,0,4.47,2,4.47,5.23s-1.83,5.25-4.47,5.25a4.14,4.14,0,0,1-3.38-1.76v5.31Zm4.55-12.64a3.68,3.68,0,0,0-3,1.59v4.5a3.75,3.75,0,0,0,3,1.61c2,0,3.22-1.65,3.22-3.86s-1.21-3.84-3.22-3.84Z" transform="translate(-365.44 -272.19)"/></g></svg>