<svg id="Layer_1" data-name="Layer 1" xmlns="http://www.w3.org/2000/svg" viewBox="0 0 352.12303 326.38636"><defs><style>.cls-1,.cls-2,.cls-3,.cls-4,.cls-5,.cls-7,.cls-8,.cls-9{fill:none;}.cls-1,.cls-5{stroke:#2aad4a;}.cls-1,.cls-4,.cls-5,.cls-7,.cls-8,.cls-9{stroke-miterlimit:10;}.cls-2,.cls-3,.cls-4,.cls-7,.cls-8,.cls-9{stroke:#010101;}.cls-2,.cls-3,.cls-5,.cls-8,.cls-9{stroke-linecap:round;}.cls-2,.cls-3{stroke-linejoin:round;}.cls-3,.cls-7,.cls-8{stroke-width:0.75px;}.cls-6{fill:#010101;}</style></defs><line class="cls-1" x1="114.21253" y1="166.64711" x2="79.91708" y2="166.64711"/><line class="cls-1" x1="278.45387" y1="166.64711" x2="244.79491" y2="166.64711"/><line class="cls-1" x1="179.18547" y1="231.84324" x2="179.18547" y2="258.99284"/><line class="cls-1" x1="179.18547" y1="66.25674" x2="179.18547" y2="101.46"/><path class="cls-2" d="M184.41944,274.58635c-.08525-1.555-.23433-4.64415-5.34713-4.66559-4.02643-.04238-5.07043,2.258-5.02756,3.85592.02144,1.66173.25577,3.21676,5.07043,4.04787,5.11281.87349,5.85867,2.51378,5.73054,4.60177-.1067,1.72555-1.12926,3.93869-5.68816,3.93869-4.64415-.01895-5.64528-3.23571-5.64528-5.409"/><line class="cls-2" x1="179.13662" y1="268.36573" x2="179.13662" y2="288.81696"/><circle class="cls-2" cx="179.18547" cy="278.59135" r="19.5"/><line class="cls-2" x1="164.039" y1="52.24317" x2="175.92268" y2="40.42474"/><polyline class="cls-2" points="179.092 48.304 179.092 37.273 168 37.273"/><line class="cls-2" x1="159.18547" y1="66.20287" x2="199.18547" y2="66.20287"/><polyline class="cls-2" points="161.86 64.645 161.86 59.838 171.399 59.838 171.399 64.645"/><polyline class="cls-2" points="174.367 64.626 174.367 54.835 183.876 54.835 183.876 64.626"/><polyline class="cls-2" points="186.704 64.626 186.704 35.203 196.213 35.203 196.213 64.626"/><polyline class="cls-2" points="68.189 177.665 79.887 177.665 79.887 158.242"/><polyline class="cls-2" points="41.387 152.679 41.387 149.897 79.887 149.897 79.887 155.46 41.387 155.46 41.387 177.665 53.511 177.665"/><line class="cls-2" x1="44.1367" y1="152.67858" x2="46.8867" y2="152.67858"/><line class="cls-2" x1="49.6367" y1="152.67858" x2="52.3867" y2="152.67858"/><line class="cls-2" x1="55.1367" y1="152.67858" x2="57.8867" y2="152.67858"/><ellipse class="cls-2" cx="77.1367" cy="152.67858" rx="1.20313" ry="1.2169"/><path class="cls-3" d="M63.1214,164.32415a6.07414,6.07414,0,0,0-2.29581-.44795,6.17921,6.17921,0,1,0,3.94594,1.44769l.00112-.00024-4.84283,7.41705-2.60668-3.50244"/><path class="cls-2" d="M66.68537,161.42605q-.61562.031-1.22787.05333l-.00185-.00462-2.93494-2.28361a2.46789,2.46789,0,0,0-3.11689-.0476l-3.161,2.33583q-.61155-.02277-1.22787-.05333c-2.31977-.1168-4.12915-.78307-4.12915,2.43624s.43012,8.43983.43012,8.43983-.25807,3.91537,4.21517,7.22171c3.84764,2.84391,5.30424,3.87328,5.30424,3.87328h0s1.48626-1.02937,5.3339-3.87328c4.47324-3.30634,4.21517-7.22171,4.21517-7.22171s.43012-5.22051.43012-8.43983-1.80938-2.553-4.12915-2.43624"/><polyline class="cls-2" points="306.077 178.494 316.984 178.494 316.984 159.19"/><polyline class="cls-2" points="278.484 153.661 278.484 150.897 316.984 150.897 316.984 156.426 278.484 156.426 278.484 178.494 289.392 178.494"/><line class="cls-2" x1="281.23425" y1="153.66148" x2="283.98425" y2="153.66148"/><line class="cls-2" x1="286.73425" y1="153.66148" x2="289.48425" y2="153.66148"/><line class="cls-2" x1="292.23425" y1="153.66148" x2="294.98425" y2="153.66148"/><ellipse class="cls-2" cx="314.23425" cy="153.66148" rx="1.20313" ry="1.20942"/><circle class="cls-3" cx="293.70138" cy="167.44409" r="1"/><path class="cls-3" d="M304.95371,176.1844l-.16849-.59941L298.743,169.6144a4.07277,4.07277,0,1,0-2.33412,2.69313l.80208.81016.87953-.09.58944.584.15707,1.11693.73581.15621.42365.41971.17895.75861,1.16679.58314.443.43891.26009.83048,2.60062-.29543L297.911,170.948"/><ellipse class="cls-4" cx="297.73425" cy="171.43727" rx="10.90283" ry="10.95983"/><line class="cls-1" x1="133.24267" y1="212.58991" x2="108.45478" y2="237.3778"/><line class="cls-5" x1="250.93818" y1="94.8944" x2="225.57835" y2="120.25423"/><line class="cls-1" x1="225.12828" y1="212.58991" x2="247.18253" y2="234.64416"/><line class="cls-1" x1="106.37289" y1="93.83452" x2="132.79259" y2="120.25423"/><g id="laptop"><line class="cls-2" x1="195.07802" y1="153.34953" x2="201.07637" y2="153.34953"/><path class="cls-2" d="M220.55763,153.29523a2.71945,2.71945,0,0,1-1.49327,2.30028l-41.80507.0064-.18338-.0128a2.63576,2.63576,0,0,1-1.51828-2.26384,2.57035,2.57035,0,0,1,1.51828-2.23452h41.98845V127.06533H177.07591v21.02224"/></g><g id="mobile-phone"><ellipse class="cls-6" cx="140.40296" cy="137.2509" rx="0.47705" ry="0.46436"/><path class="cls-6" d="M140.403,136.28654a.96436.96436,0,1,0,.977.9643.9707.9707,0,0,0-.977-.9643Z"/><line class="cls-2" x1="145.61076" y1="169.41734" x2="150.82863" y2="169.41734"/><path class="cls-2" d="M158.65543,166.20667v3.85715a1.29806,1.29806,0,0,1-1.30264,1.28571H139.116a1.29806,1.29806,0,0,1-1.30263-1.28571V136.63525a1.29806,1.29806,0,0,1,1.30263-1.28572h18.23684a1.29807,1.29807,0,0,1,1.30264,1.28572v.67129"/><rect class="cls-2" x="137.81332" y="139.20667" width="20.84211" height="28.28571" rx="1.29415"/></g><g id="monitor"><polyline class="cls-2" points="210.915 201.407 210.915 203.015 165.915 203.015 165.915 198.193 210.915 198.193 210.915 172.479 165.915 172.479 165.915 194.979"/><line class="cls-2" x1="188.43327" y1="203.17357" x2="188.43327" y2="206.22888"/><line class="cls-2" x1="178.77191" y1="206.22888" x2="198.05763" y2="206.22888"/><circle class="cls-6" cx="188.43327" cy="200.60388" r="1.00929"/></g><circle class="cls-2" cx="179.18547" cy="166.64711" r="65.08072"/><path class="cls-2" d="M250.66934,94.70718l-3.13734-.00045a1.50273,1.50273,0,0,1-1.5053-1.49126l.00288-21.04055a1.50274,1.50274,0,0,1,1.50567-1.4909l32.11794.0039a1.50273,1.50273,0,0,1,1.5053,1.49126l-.00065,4.8907"/><line class="cls-7" x1="246.06076" y1="75.92633" x2="281.11989" y2="75.92633"/><line class="cls-7" x1="246.06076" y1="81.37647" x2="252.48916" y2="81.37647"/><path class="cls-4" d="M253.89463,78.65936H286.027a1.49824,1.49824,0,0,1,1.49824,1.49824v21.02619a1.49828,1.49828,0,0,1-1.49828,1.49828H253.89459a1.49824,1.49824,0,0,1-1.49824-1.49824V80.15764A1.49828,1.49828,0,0,1,253.89463,78.65936Z"/><rect class="cls-8" x="255.08613" y="85.3303" width="7.10402" height="5.30941" rx="0.34699"/><ellipse class="cls-8" cx="281.26537" cy="84.73805" rx="2.83416" ry="2.80704"/><line class="cls-3" x1="255.13244" y1="94.69982" x2="284.60146" y2="94.69982"/><line class="cls-3" x1="255.13244" y1="97.55108" x2="273.82966" y2="97.55108"/><line class="cls-8" x1="255.15144" y1="86.79215" x2="262.14723" y2="86.79215"/><line class="cls-8" x1="255.15144" y1="88.01849" x2="262.14723" y2="88.01849"/><line class="cls-8" x1="255.15144" y1="89.24484" x2="262.14723" y2="89.24484"/><polyline class="cls-2" points="70.844 238.394 70.844 262.61 108.344 262.61 108.344 230.302 70.844 230.302 70.844 235.687 105.666 235.687"/><rect class="cls-2" x="81.55853" y="227.61019" height="5.38462"/><rect class="cls-2" x="97.62996" y="227.61019" height="5.38462"/><rect class="cls-2" x="76.20139" y="241.07173" width="26.78571" height="16.15385"/><line class="cls-2" x1="81.55853" y1="241.07173" x2="81.55853" y2="257.22558"/><line class="cls-2" x1="86.91568" y1="241.07173" x2="86.91568" y2="257.22558"/><line class="cls-2" x1="92.27282" y1="241.07173" x2="92.27282" y2="257.22558"/><line class="cls-2" x1="97.62996" y1="241.07173" x2="97.62996" y2="257.22558"/><line class="cls-2" x1="76.20139" y1="246.45634" x2="102.98711" y2="246.45634"/><line class="cls-2" x1="76.20139" y1="251.84096" x2="102.98711" y2="251.84096"/><path class="cls-3" d="M267.13507,230.01623c-.02241-.40833-.06158-1.21948-1.40515-1.22511-1.05808-.01113-1.33243.59292-1.32116,1.0125.00563.43635.06721.84467,1.33243,1.06291,1.34357.22937,1.53957.66008,1.50589,1.20836-.028.4531-.29675,1.03423-1.49475,1.03423a1.33408,1.33408,0,0,1-1.48349-1.4203"/><line class="cls-3" x1="265.74682" y1="228.13584" x2="265.74682" y2="233.75297"/><rect class="cls-4" x="244.0267" y="262.24812" width="43.5" height="2.98707" rx="0.23948"/><rect class="cls-4" x="248.9742" y="240.41206" width="5.24073" height="16.65589" rx="0.2649"/><rect class="cls-4" x="256.06527" y="240.41206" width="5.24073" height="16.65589" rx="0.2649"/><rect class="cls-4" x="263.15633" y="240.41206" width="5.24073" height="16.65589" rx="0.2649"/><rect class="cls-4" x="270.2474" y="240.41206" width="5.24073" height="16.65589" rx="0.2649"/><rect class="cls-4" x="277.33847" y="240.41206" width="5.24073" height="16.65589" rx="0.2649"/><rect class="cls-4" x="246.25816" y="236.96389" width="39.03707" height="2.00117" rx="0.26869"/><rect class="cls-4" x="246.25816" y="258.45116" width="39.03707" height="2.00117" rx="0.26869"/><polygon class="cls-2" points="246.289 235.099 285.264 235.099 265.642 226.235 246.289 235.099"/><rect class="cls-2" x="70.85762" y="68.07241" width="35.47326" height="35.51495" rx="3.00919"/><line class="cls-2" x1="88.59356" y1="78.43093" x2="88.59466" y2="79.64947"/><line class="cls-2" x1="93.71605" y1="80.61099" x2="92.8562" y2="81.47341"/><line class="cls-2" x1="95.90285" y1="85.73553" x2="94.68574" y2="85.73664"/><line class="cls-2" x1="81.29753" y1="85.74881" x2="82.51464" y2="85.7477"/><line class="cls-2" x1="83.47503" y1="80.6203" x2="84.33644" y2="81.48115"/><line class="cls-2" x1="88.59356" y1="78.43093" x2="88.59466" y2="79.64947"/><line class="cls-2" x1="93.71605" y1="80.61099" x2="92.8562" y2="81.47341"/><line class="cls-2" x1="83.47503" y1="80.6203" x2="84.33644" y2="81.48115"/><line class="cls-2" x1="88.59494" y1="93.22883" x2="88.59383" y2="92.01029"/><line class="cls-2" x1="83.47245" y1="91.04878" x2="84.33229" y2="90.18636"/><line class="cls-2" x1="93.71347" y1="91.03946" x2="92.85206" y2="90.17861"/><ellipse class="cls-2" cx="88.59425" cy="85.82988" rx="4.18056" ry="4.18548"/><ellipse class="cls-2" cx="88.59425" cy="85.82988" rx="7.39026" ry="7.39895"/><path class="cls-9" d="M101.49034,81.37878a1.07635,1.07635,0,0,1-1.07668-1.076l-.00208-2.28544a1.07633,1.07633,0,0,1,1.07473-1.07794l.40235-.00037-.0013-1.4284a3.00916,3.00916,0,0,0-3.01014-3.00823l-20.59011.01872a3.00919,3.00919,0,0,0-3.00468,3.01371l.0187,20.61426a3.00919,3.00919,0,0,0,3.01015,3.00823l20.5901-.01872a3.0092,3.0092,0,0,0,3.00468-3.0137l-.00129-1.4284-.40235.00036a1.07635,1.07635,0,0,1-1.07668-1.076l-.00207-2.28544a1.07632,1.07632,0,0,1,1.07472-1.07794l.40235-.00037-.008-8.87873Z"/><path class="cls-9" d="M101.89269,81.37842l.40235-.00037a1.07635,1.07635,0,0,0,1.07472-1.07794l-.00207-2.28544a1.07632,1.07632,0,0,0-1.07668-1.076l-.40235.00036"/><path class="cls-9" d="M101.90477,94.69652l.40235-.00037a1.07635,1.07635,0,0,0,1.07472-1.07794l-.00207-2.28544a1.07632,1.07632,0,0,0-1.07668-1.076l-.40235.00036"/><path class="cls-9" d="M73.83118,103.58735h29.561a0,0,0,0,1,0,0V105.068a1.47892,1.47892,0,0,1-1.47892,1.47892H75.3101a1.47892,1.47892,0,0,1-1.47892-1.47892v-1.48066A0,0,0,0,1,73.83118,103.58735Z"/></svg>