<svg id="Layer_1" data-name="Layer 1" xmlns="http://www.w3.org/2000/svg" viewBox="0 0 481.46706 307.46317"><defs><style>.cls-1,.cls-2,.cls-6{fill:#fff;}.cls-1,.cls-12,.cls-13{stroke:#000;stroke-linejoin:round;}.cls-1,.cls-10,.cls-12,.cls-13,.cls-4,.cls-5{stroke-linecap:round;}.cls-3{fill:#010101;}.cls-10,.cls-12,.cls-13,.cls-4,.cls-5,.cls-7,.cls-8{fill:none;}.cls-4,.cls-6,.cls-7{stroke:#2bae4a;}.cls-10,.cls-4,.cls-5,.cls-6,.cls-7,.cls-8,.cls-9{stroke-miterlimit:10;}.cls-5{stroke:#e4002b;}.cls-8,.cls-9{stroke:#020202;}.cls-9{fill:#020202;stroke-width:0.4239px;}.cls-10{stroke:#999;}.cls-11{fill:#999;}.cls-13{stroke-width:0.75px;}</style></defs><rect class="cls-1" x="246.11122" y="62.59069" width="182.91763" height="189.12367"/><rect class="cls-1" x="56.16485" y="62.59069" width="182.91763" height="189.12367"/><rect class="cls-2" x="219.75335" y="146.03562" width="45.66358" height="91.58609"/><rect class="cls-3" x="256.93229" y="53.59069" width="161.27549" height="18"/><path class="cls-2" d="M264.895,60.39368v1.54883h1.71875v1.39942H264.895v1.34912h2.11816v1.39941h-3.668V58.99427h3.668v1.39941Z"/><path class="cls-2" d="M271.28858,62.61243l1.7793,3.478h-1.73926l-.97949-1.91894-.91895,1.91894h-1.64941l1.709-3.59814-1.7793-3.498H269.44l1.01953,1.98877.999-1.98877h1.67968Z"/><path class="cls-2" d="M278.24952,60.39368h-1.46875v5.69678H275.231V60.39368h-1.47852V58.99427h4.49707Z"/><path class="cls-2" d="M280.55811,60.39368v1.54883h1.71875v1.39942h-1.71875v1.34912h2.11915v1.39941h-3.668V58.99427h3.668v1.39941Z"/><path class="cls-2" d="M285.7964,63.53187h-.73926v2.55859h-1.54981V58.99427h2.35938a1.94611,1.94611,0,0,1,2.11816,1.939v.65967a1.85434,1.85434,0,0,1-.709,1.499l.91894,2.99853h-1.61914Zm-.73926-1.39942h.90918a.43551.43551,0,0,0,.46972-.46972v-.79932a.43289.43289,0,0,0-.46-.46973h-.91894Z"/><path class="cls-2" d="M293.59425,58.99427v7.09619h-1.35938l-1.84863-4.0376v4.0376h-1.34961V58.99427h1.34961l1.84863,4.05811V58.99427Z"/><path class="cls-2" d="M297.63722,64.841H296.188l-.28907,1.24951h-1.50976l1.5293-7.09619h2.00879l1.53906,7.09619h-1.53906Zm-.71875-3.95752-.4502,2.55859h.89941Z"/><path class="cls-2" d="M303.95069,64.69105v1.39941h-3.68847V58.99427h1.5498v5.69678Z"/><path class="cls-2" d="M311.2505,58.99427v7.09619h-1.35938l-1.84961-4.0376v4.0376h-1.34863V58.99427h1.34863l1.84961,4.05811V58.99427Z"/><path class="cls-2" d="M313.78663,60.39368v1.54883h1.71875v1.39942h-1.71875v1.34912h2.11816v1.39941h-3.668V58.99427h3.668v1.39941Z"/><path class="cls-2" d="M321.05323,60.39368h-1.46972v5.69678h-1.54883V60.39368h-1.4795V58.99427h4.498Z"/><path class="cls-2" d="M329.51319,58.99427l-1.51953,7.09619h-1.60937l-.78907-3.85791-.79,3.85791h-1.60937l-1.51855-7.09619h1.60839l.79,4.8374.91992-4.8374h1.18848l.96973,4.82764.76953-4.82764Z"/><path class="cls-2" d="M330.14308,64.22132V60.86341a2.38749,2.38749,0,0,1,4.71777,0v3.35791a2.38748,2.38748,0,0,1-4.71777,0Zm3.16894.02V60.84339c0-.35986-.24023-.59961-.7998-.59961-.58008,0-.81934.23975-.81934.59961v3.39795c0,.35986.23926.59961.80957.59961C333.07179,64.841,333.312,64.6012,333.312,64.24134Z"/><path class="cls-2" d="M338.08253,63.53187h-.73926v2.55859h-1.5498V58.99427h2.35937a1.94612,1.94612,0,0,1,2.11817,1.939v.65967a1.85434,1.85434,0,0,1-.709,1.499l.91895,2.99853h-1.61914Zm-.73926-1.39942h.90918a.43552.43552,0,0,0,.46973-.46972v-.79932a.4329.4329,0,0,0-.46-.46973h-.91895Z"/><path class="cls-2" d="M344.4712,66.09046l-1.59863-3.34814v3.34814h-1.54981V58.99427h1.54981v3.1582l1.47851-3.1582h1.73926l-1.5791,3.438,1.709,3.6582Z"/><path class="cls-2" d="M349.08253,65.24085V59.88392a1.93376,1.93376,0,0,1,2.15918-1.98877v1.34912c-.38965,0-.66016.18994-.66016.56982v5.49659c0,.39013.27051.58007.66016.58007v1.34913A1.93627,1.93627,0,0,1,349.08253,65.24085Z"/><path class="cls-2" d="M352.021,58.99427h1.54882v7.09619H352.021Z"/><path class="cls-2" d="M359.104,58.99427v7.09619h-1.35937l-1.84863-4.0376v4.0376H354.5464V58.99427H355.896l1.84863,4.05811V58.99427Z"/><path class="cls-2" d="M364.35011,60.39368h-1.46875v5.69678h-1.54981V60.39368H359.853V58.99427h4.49707Z"/><path class="cls-2" d="M366.6587,60.39368v1.54883h1.71875v1.39942H366.6587v1.34912h2.11816v1.39941h-3.668V58.99427h3.668v1.39941Z"/><path class="cls-2" d="M371.897,63.53187h-.74023v2.55859h-1.54883V58.99427h2.3584a1.947,1.947,0,0,1,2.11914,1.939v.65967a1.85232,1.85232,0,0,1-.71,1.499l.91992,2.99853h-1.61914Zm-.74023-1.39942h.91015a.436.436,0,0,0,.46973-.46972v-.79932a.43338.43338,0,0,0-.46-.46973h-.91992Z"/><path class="cls-2" d="M379.69483,58.99427v7.09619h-1.35937l-1.84961-4.0376v4.0376h-1.34863V58.99427h1.34863l1.84961,4.05811V58.99427Z"/><path class="cls-2" d="M382.231,60.39368v1.54883h1.71875v1.39942H382.231v1.34912h2.11914v1.39941h-3.668V58.99427h3.668v1.39941Z"/><path class="cls-2" d="M389.49757,60.39368h-1.46875v5.69678H386.479V60.39368H385.0005V58.99427h4.49707Z"/><path class="cls-2" d="M393.74952,60.39368v1.54883h1.71875v1.39942h-1.71875v1.34912h2.11816v1.39941h-3.668V58.99427h3.668v1.39941Z"/><path class="cls-2" d="M401.01515,60.39368H399.5464v5.69678h-1.54981V60.39368h-1.47851V58.99427h4.49707Z"/><path class="cls-2" d="M401.728,64.22132V60.86341a2.36986,2.36986,0,0,1,4.6875,0v.88965H404.8462v-.90967c0-.35986-.25977-.59961-.76953-.59961-.53027,0-.79981.23975-.79981.59961v3.39795c0,.35986.26954.59961.79.59961.51953,0,.7793-.23975.7793-.59961v-.90918h1.56934v.88916a2.36986,2.36986,0,0,1-4.6875,0Z"/><path class="cls-2" d="M407.30811,64.63148h1.499v1.459h-1.499Z"/><path class="cls-2" d="M409.60206,65.89075c.37988,0,.64941-.18994.64941-.58007V59.81409c0-.37988-.26953-.56982-.64941-.56982V57.89515a1.92979,1.92979,0,0,1,2.14844,1.98877v5.35693a1.93233,1.93233,0,0,1-2.14844,1.999Z"/><rect class="cls-3" x="88.4044" y="53.59069" width="118.43853" height="18"/><path class="cls-2" d="M97.20167,58.99427h1.5498v7.09619h-1.5498Z"/><path class="cls-2" d="M104.28565,58.99427v7.09619h-1.35937l-1.84961-4.0376v4.0376H99.728V58.99427h1.34863l1.84961,4.05811V58.99427Z"/><path class="cls-2" d="M109.53175,60.39368H108.063v5.69678h-1.54981V60.39368h-1.47851V58.99427h4.49707Z"/><path class="cls-2" d="M111.84034,60.39368v1.54883h1.71875v1.39942h-1.71875v1.34912h2.11817v1.39941h-3.668V58.99427h3.668v1.39941Z"/><path class="cls-2" d="M117.07862,63.53187h-.73926v2.55859h-1.5498V58.99427h2.35937a1.94612,1.94612,0,0,1,2.11817,1.939v.65967a1.85432,1.85432,0,0,1-.709,1.499l.91895,2.99853h-1.61914Zm-.73926-1.39942h.90918a.43552.43552,0,0,0,.46973-.46972v-.79932a.4329.4329,0,0,0-.46-.46973h-.91895Z"/><path class="cls-2" d="M124.87647,58.99427v7.09619H123.5171l-1.84961-4.0376v4.0376h-1.34863V58.99427h1.34863l1.84961,4.05811V58.99427Z"/><path class="cls-2" d="M128.92042,64.841H127.4712l-.29,1.24951h-1.50879l1.5293-7.09619h2.00879l1.53906,7.09619h-1.53906Zm-.71973-3.95752-.44922,2.55859h.89942Z"/><path class="cls-2" d="M135.23292,64.69105v1.39941h-3.68848V58.99427h1.54981v5.69678Z"/><path class="cls-2" d="M142.53272,58.99427v7.09619h-1.35937l-1.84961-4.0376v4.0376h-1.34863V58.99427h1.34863l1.84961,4.05811V58.99427Z"/><path class="cls-2" d="M145.06886,60.39368v1.54883h1.71875v1.39942h-1.71875v1.34912H147.187v1.39941h-3.668V58.99427h3.668v1.39941Z"/><path class="cls-2" d="M152.33546,60.39368h-1.46973v5.69678H149.3169V60.39368h-1.47949V58.99427h4.49805Z"/><path class="cls-2" d="M160.79542,58.99427l-1.51953,7.09619h-1.60938l-.78906-3.85791-.79,3.85791H154.478l-1.51856-7.09619h1.6084l.79,4.8374.91992-4.8374h1.18848l.96972,4.82764.76954-4.82764Z"/><path class="cls-2" d="M161.4253,64.22132V60.86341a2.38749,2.38749,0,0,1,4.71778,0v3.35791a2.38749,2.38749,0,0,1-4.71778,0Zm3.16895.02V60.84339c0-.35986-.24024-.59961-.79981-.59961-.58008,0-.81933.23975-.81933.59961v3.39795c0,.35986.23925.59961.80957.59961C164.354,64.841,164.59425,64.6012,164.59425,64.24134Z"/><path class="cls-2" d="M169.36573,63.53187h-.74023v2.55859h-1.54883V58.99427h2.3584a1.947,1.947,0,0,1,2.11914,1.939v.65967a1.85232,1.85232,0,0,1-.71,1.499l.91992,2.99853H170.145Zm-.74023-1.39942h.91015a.436.436,0,0,0,.46973-.46972v-.79932a.43338.43338,0,0,0-.46-.46973h-.91992Z"/><path class="cls-2" d="M175.75343,66.09046l-1.59864-3.34814v3.34814H172.605V58.99427h1.5498v3.1582l1.47852-3.1582h1.73926l-1.5791,3.438,1.709,3.6582Z"/><path class="cls-2" d="M181.04444,58.64466,179.63526,66.59h-1.459l1.40918-7.94531Z"/><path class="cls-2" d="M186.39893,61.01331v3.05811a2.05356,2.05356,0,0,1-2.26855,2.019h-2.29883V58.99427h2.28906A2.06208,2.06208,0,0,1,186.39893,61.01331Zm-1.54882-.02a.56745.56745,0,0,0-.62012-.59961h-.84961v4.29737h.83984a.57042.57042,0,0,0,.62989-.59961Z"/><path class="cls-2" d="M193.103,66.09046h-1.32911V61.52308l-1.00976,4.56738h-1.10938L188.63526,61.483v4.60742h-1.31933V58.99427h1.83886l1.04981,4.05811,1.0498-4.05811H193.103Z"/><path class="cls-2" d="M198.312,64.69105v1.39941h-4.40723v-1.479l2.62793-4.21778h-2.44824V58.99427h4.168v1.47949l-2.6084,4.21729Z"/><path d="M144.56886,125.76234h2.94922a2.21309,2.21309,0,1,1,0,4.42285h-2.03516v2.915h-.91406Zm2.83886.81347h-1.9248v2.79492h1.9248a1.399,1.399,0,1,0,0-2.79492Z"/><path d="M153.98683,132.49476a2.29816,2.29816,0,0,1-1.76075.7373,1.76951,1.76951,0,0,1-1.85937-1.75976,1.74118,1.74118,0,0,1,1.85937-1.75,2.2245,2.2245,0,0,1,1.76075.72656v-.957c0-.71485-.57227-1.12207-1.34278-1.12207a2.10775,2.10775,0,0,0-1.62793.7373l-.38476-.57226a2.77881,2.77881,0,0,1,2.123-.87989c1.12207,0,2.05664.50586,2.05664,1.793v3.65235h-.82421Zm0-1.51758a1.77965,1.77965,0,0,0-1.4629-.66016,1.16922,1.16922,0,1,0,0,2.32129,1.77964,1.77964,0,0,0,1.4629-.66015Z"/><path d="M156.35011,125.76234h.82617v7.33789h-.82617Z"/><path d="M158.40772,130.43812a2.63424,2.63424,0,1,1,2.62989,2.79394A2.60734,2.60734,0,0,1,158.40772,130.43812Zm4.38965,0a1.78622,1.78622,0,1,0-1.75976,2.05664A1.84743,1.84743,0,0,0,162.79737,130.43812Z"/><path d="M172.27979,131.4723H168.561l-.64843,1.62793h-1.0127l2.94824-7.33789H170.981l2.96,7.33789h-1.0127Zm-3.45507-.81446h3.17968l-1.584-4.082Z"/><path d="M174.75343,125.76234h.82519v7.33789h-.82519Z"/><path d="M177.2837,131.9889v-3.47656h-.88086v-.72559h.88086V126.3346h.8252v1.45215H179.187v.72559H178.1089v3.30078c0,.39551.17578.68164.53906.68164a.79847.79847,0,0,0,.56152-.21973l.24121.61621a1.34648,1.34648,0,0,1-.98926.34082A1.0875,1.0875,0,0,1,177.2837,131.9889Z"/><path d="M179.93409,130.43812a2.6347,2.6347,0,1,1,2.62988,2.79394A2.60733,2.60733,0,0,1,179.93409,130.43812Zm4.39063,0a1.78664,1.78664,0,1,0-1.76075,2.05664A1.84757,1.84757,0,0,0,184.32472,130.43812Z"/><path d="M150.94972,138.18128v5.919h-.91407v-7.33789h.93555l4.22461,5.79785v-5.79785h.91406v7.33789H155.229Z"/><path d="M161.19093,136.64124a3.50035,3.50035,0,0,1,2.84961,1.375l-.72559.45117a2.70978,2.70978,0,0,0-2.124-1.01171,2.99132,2.99132,0,0,0,0,5.97363,2.90074,2.90074,0,0,0,1.96972-.792v-1.4961h-2.51953v-.81445h3.43262v2.65137a3.82441,3.82441,0,0,1-2.88281,1.26465,3.80088,3.80088,0,0,1,0-7.60157Z"/><path d="M165.44679,136.76234h4.80761v.81347h-3.89453V139.942h3.81836v.81348h-3.81836v3.34473h-.91308Z"/><path d="M175.38038,138.18128l-1.61719,5.919H172.773l-2.09082-7.33789h1.01269l1.62793,6.11718,1.6836-6.11718h.75976l1.68262,6.11718,1.61719-6.11718h1.01269l-2.09082,7.33789h-.99023Z"/><line class="cls-4" x1="258.82416" y1="169.79379" x2="366.01852" y2="169.79379"/><path d="M279.52589,161.76722h3.30664l-.19727.85449h-2.30371l-.21679,1.01563h2.25488l-.18946.85449h-2.26171l-.23829,1.08594h2.30469l-.18261.86132h-3.30567Z"/><path d="M285.50147,164.42152a1.10239,1.10239,0,0,0,.03516-.22364c0-.31543-.25293-.43457-.51855-.43457a1.25573,1.25573,0,0,0-.85352.39258l-.50488,2.2832H282.77l.75-3.38281h.88867l-.09766.44141a1.60574,1.60574,0,0,1,1.127-.52539c.65234,0,1.05859.34277,1.05859.86816a2.16315,2.16315,0,0,1-.03516.27344l-.51855,2.32519h-.88965Z"/><path d="M289.08839,162.9723a1.50119,1.50119,0,0,1,1.373.665l-.666.51172a.79912.79912,0,0,0-.707-.38575,1.09619,1.09619,0,0,0-1.06446,1.17676.77582.77582,0,0,0,.84766.791.93659.93659,0,0,0,.707-.33594l.4834.5957a1.753,1.753,0,0,1-1.28223.53223,1.50814,1.50814,0,0,1-1.65918-1.541A1.97023,1.97023,0,0,1,289.08839,162.9723Z"/><path d="M291.40479,163.05628h.88868l-.10547.44824a1.5416,1.5416,0,0,1,1.19824-.52539l-.18848.88184a1.42141,1.42141,0,0,0-.33008-.042,1.19324,1.19324,0,0,0-.83984.40625l-.4834,2.21386h-.88965Z"/><path d="M293.75636,167.01331a.45635.45635,0,0,0,.41992-.23828l.21094-.31543-.60254-3.40332h.9248l.35742,2.35254,1.41407-2.35254h.98046l-2.46484,3.93555a1.41066,1.41066,0,0,1-1.31055.81933,1.79555,1.79555,0,0,1-.5664-.084l.29394-.77051A.94743.94743,0,0,0,293.75636,167.01331Z"/><path d="M297.91847,167.72718h-.88965l1.03613-4.6709h.89063l-.09864.41992a1.28906,1.28906,0,0,1,1.02246-.5039,1.24837,1.24837,0,0,1,1.28125,1.40039,1.98587,1.98587,0,0,1-1.77929,2.15039,1.26181,1.26181,0,0,1-1.07813-.53223Zm1.56152-3.96387a1.02109,1.02109,0,0,0-.77734.40625l-.25879,1.17676a.9294.9294,0,0,0,.791.38477,1.08657,1.08657,0,0,0,.99414-1.17578A.73653.73653,0,0,0,299.48,163.76331Z"/><path d="M301.96729,165.55628l.37891-1.72949h-.56055l.17481-.77051h.56055l.20312-.9248h.89648l-.20312.9248h.68652l-.18164.77051h-.6875l-.32226,1.4707a1.12642,1.12642,0,0,0-.01368.13965c0,.18262.10547.29395.33008.29395a.45872.45872,0,0,0,.24414-.06934l.03516.71387a1.04043,1.04043,0,0,1-.56055.14746c-.60156,0-1.00781-.23145-1.00781-.73535A1.10234,1.10234,0,0,1,301.96729,165.55628Z"/><path d="M306.25147,162.9723A1.43867,1.43867,0,0,1,307.771,164.485a2.251,2.251,0,0,1-.06934.5459H305.186v.084a.83169.83169,0,0,0,.92579.70019,1.515,1.515,0,0,0,.85351-.25195l.28027.60937a2.19667,2.19667,0,0,1-1.19726.35059c-1.06543,0-1.751-.57422-1.751-1.51953A1.9765,1.9765,0,0,1,306.25147,162.9723Zm.72168,1.38672a.69122.69122,0,0,0-.77734-.67969.96615.96615,0,0,0-.918.749h1.69531Z"/><path d="M311.5962,161.76722h.89648l-1.03613,4.67187h-.89648l.09863-.42089a1.27444,1.27444,0,0,1-1.01562.50488,1.24707,1.24707,0,0,1-1.28907-1.40137,1.97726,1.97726,0,0,1,1.78614-2.14941,1.2773,1.2773,0,0,1,1.0791.53222Zm-1.56152,3.96387a1.009,1.009,0,0,0,.77832-.39844l.25781-1.17676a.9321.9321,0,0,0-.791-.39258,1.0921,1.0921,0,0,0-.99414,1.17676A.73571.73571,0,0,0,310.03468,165.73109Z"/><path d="M316.20167,162.6432h-1.36524l.19629-.876h3.72559l-.18945.876h-1.36524l-.834,3.79589h-1.001Z"/><path d="M318.80323,163.05628h.89063l-.10547.44824a1.538,1.538,0,0,1,1.19726-.52539l-.18945.88184a1.40066,1.40066,0,0,0-.32812-.042,1.19758,1.19758,0,0,0-.8418.40625l-.48242,2.21386h-.88965Z"/><path d="M323.85206,163.05628h.89648l-.75,3.38281h-.89648l.09863-.42089a1.27444,1.27444,0,0,1-1.01562.50488,1.24685,1.24685,0,0,1-1.28809-1.40137,1.97651,1.97651,0,0,1,1.78516-2.14941,1.27479,1.27479,0,0,1,1.0791.53222Zm-1.27539,2.67481a1.00742,1.00742,0,0,0,.77832-.39844l.25879-1.17676a.93213.93213,0,0,0-.791-.39258,1.09143,1.09143,0,0,0-.99414,1.17676A.735.735,0,0,0,322.57667,165.73109Z"/><path d="M325.83936,163.83363h-.55957l.168-.77735h.56055l.041-.18262a1.29512,1.29512,0,0,1,1.26757-1.17675,1.36744,1.36744,0,0,1,.74219.18945l-.30762.60254a.54154.54154,0,0,0-.32226-.09082c-.27246,0-.41992.168-.49024.47558l-.042.18262h.69336l-.1748.77735H326.729l-.57422,2.60546h-.89648Zm2.29,0h-.56054l.168-.77735h.56054l.043-.18262a1.29443,1.29443,0,0,1,1.26758-1.17675,1.36964,1.36964,0,0,1,.74219.18945l-.3086.60254a.54154.54154,0,0,0-.32226-.09082c-.27344,0-.41992.168-.49024.47558l-.041.18262h.69336l-.17578.77735h-.68653l-.57422,2.60546h-.89648Zm2.2627-.77735h.88965l-.75,3.38281h-.88867Zm.72168-1.5625a.46.46,0,0,1,.47558.45606.6008.6008,0,0,1-.59472.60937.455.455,0,0,1-.47656-.45605A.6062.6062,0,0,1,331.11378,161.49378Z"/><path d="M333.69,162.9723a1.50234,1.50234,0,0,1,1.373.665l-.666.51172a.8014.8014,0,0,0-.707-.38575,1.09618,1.09618,0,0,0-1.06445,1.17676.77532.77532,0,0,0,.84765.791.93657.93657,0,0,0,.707-.33594l.48243.5957a1.75063,1.75063,0,0,1-1.28125.53223,1.50894,1.50894,0,0,1-1.66016-1.541A1.971,1.971,0,0,1,333.69,162.9723Z"/><line class="cls-4" x1="119.12295" y1="169.79379" x2="225.40689" y2="169.79379"/><path d="M149.82569,161.76722h3.30567l-.19629.85449h-2.30469l-.2168,1.01563h2.25489l-.18848.85449h-2.2627l-.23828,1.08594h2.30469l-.18262.86132h-3.30566Z"/><path d="M155.8003,164.42152a1.10239,1.10239,0,0,0,.03516-.22364c0-.31543-.252-.43457-.51856-.43457a1.25572,1.25572,0,0,0-.85351.39258l-.50488,2.2832h-.88965l.75-3.38281h.88965l-.09864.44141a1.60806,1.60806,0,0,1,1.12793-.52539c.65137,0,1.05762.34277,1.05762.86816a2.165,2.165,0,0,1-.03516.27344l-.51855,2.32519h-.88965Z"/><path d="M159.38722,162.9723a1.50119,1.50119,0,0,1,1.373.665l-.665.51172a.80188.80188,0,0,0-.708-.38575,1.09678,1.09678,0,0,0-1.06446,1.17676.77582.77582,0,0,0,.84766.791.93659.93659,0,0,0,.707-.33594l.4834.5957a1.75238,1.75238,0,0,1-1.28125.53223,1.50845,1.50845,0,0,1-1.66016-1.541A1.97022,1.97022,0,0,1,159.38722,162.9723Z"/><path d="M161.70362,163.05628h.88965l-.10547.44824a1.538,1.538,0,0,1,1.19727-.52539l-.18848.88184a1.4193,1.4193,0,0,0-.3291-.042,1.19539,1.19539,0,0,0-.84082.40625l-.4834,2.21386h-.88965Z"/><path d="M164.05616,167.01331a.45828.45828,0,0,0,.41992-.23828l.21-.31543-.60253-3.40332h.9248l.35742,2.35254,1.415-2.35254h.98047l-2.46582,3.93555a1.40935,1.40935,0,0,1-1.30957.81933,1.80179,1.80179,0,0,1-.56738-.084l.29394-.77051A.94921.94921,0,0,0,164.05616,167.01331Z"/><path d="M168.21729,167.72718h-.88964l1.03711-4.6709h.88964l-.09863.41992a1.28906,1.28906,0,0,1,1.02246-.5039,1.24859,1.24859,0,0,1,1.28223,1.40039,1.98657,1.98657,0,0,1-1.7793,2.15039,1.25935,1.25935,0,0,1-1.07812-.53223Zm1.56153-3.96387a1.0243,1.0243,0,0,0-.77735.40625l-.25879,1.17676a.932.932,0,0,0,.791.38477,1.08664,1.08664,0,0,0,.99512-1.17578A.73674.73674,0,0,0,169.77882,163.76331Z"/><path d="M172.2671,165.55628l.37793-1.72949h-.56055l.17481-.77051h.56054l.20313-.9248h.89648l-.20312.9248h.68652l-.18164.77051h-.68652l-.32227,1.4707a.9688.9688,0,0,0-.01465.13965c0,.18262.10547.29395.33008.29395a.46249.46249,0,0,0,.24512-.06934l.03418.71387a1.03689,1.03689,0,0,1-.55957.14746c-.60254,0-1.00879-.23145-1.00879-.73535A1.05014,1.05014,0,0,1,172.2671,165.55628Z"/><path d="M176.5503,162.9723a1.43866,1.43866,0,0,1,1.51953,1.51269,2.251,2.251,0,0,1-.06933.5459h-2.51465v.084a.83058.83058,0,0,0,.9248.70019,1.51821,1.51821,0,0,0,.8545-.25195l.27929.60937a2.19667,2.19667,0,0,1-1.19726.35059c-1.06446,0-1.751-.57422-1.751-1.51953A1.9765,1.9765,0,0,1,176.5503,162.9723Zm.72168,1.38672a.69122.69122,0,0,0-.77734-.67969.96615.96615,0,0,0-.918.749H177.272Z"/><path d="M181.896,161.76722h.89648l-1.03711,4.67187h-.89648l.09863-.42089a1.27446,1.27446,0,0,1-1.01563.50488,1.24754,1.24754,0,0,1-1.28906-1.40137,1.97726,1.97726,0,0,1,1.78613-2.14941,1.2773,1.2773,0,0,1,1.07911.53222Zm-1.5625,3.96387a1.009,1.009,0,0,0,.77832-.39844l.25878-1.17676a.93526.93526,0,0,0-.792-.39258,1.0921,1.0921,0,0,0-.99414,1.17676A.73571.73571,0,0,0,180.33351,165.73109Z"/><path d="M186.50147,162.6432h-1.36621l.19629-.876h3.72559l-.18848.876h-1.36621l-.833,3.79589h-1.002Z"/><path d="M189.103,163.05628h.88964l-.10546.44824a1.538,1.538,0,0,1,1.19726-.52539l-.18847.88184a1.41941,1.41941,0,0,0-.32911-.042,1.19543,1.19543,0,0,0-.84082.40625l-.4834,2.21386H188.353Z"/><path d="M194.15089,163.05628h.89648l-.749,3.38281h-.89649l.09766-.42089a1.27444,1.27444,0,0,1-1.01562.50488,1.24685,1.24685,0,0,1-1.28809-1.40137,1.97658,1.97658,0,0,1,1.78613-2.14941,1.27427,1.27427,0,0,1,1.07813.53222Zm-1.27442,2.67481a1.0055,1.0055,0,0,0,.77735-.39844l.25879-1.17676a.93213.93213,0,0,0-.791-.39258,1.0921,1.0921,0,0,0-.99414,1.17676A.73518.73518,0,0,0,192.87647,165.73109Z"/><path d="M196.13819,163.83363h-.55957l.168-.77735h.56055l.042-.18262a1.29443,1.29443,0,0,1,1.26758-1.17675,1.36964,1.36964,0,0,1,.74219.18945l-.3086.60254a.54154.54154,0,0,0-.32226-.09082c-.27246,0-.41993.168-.49024.47558l-.042.18262h.69336l-.17481.77735h-.68652l-.57422,2.60546h-.89648Zm2.291,0h-.56055l.168-.77735h.56055l.042-.18262a1.29512,1.29512,0,0,1,1.26758-1.17675,1.36959,1.36959,0,0,1,.74218.18945l-.30761.60254a.54359.54359,0,0,0-.32227-.09082c-.27344,0-.4209.168-.49023.47558l-.042.18262h.69335l-.17578.77735h-.68652l-.57422,2.60546h-.89648Zm2.26172-.77735h.88965l-.749,3.38281h-.88965Zm.72168-1.5625a.45936.45936,0,0,1,.47558.45606.60081.60081,0,0,1-.59472.60937.45553.45553,0,0,1-.47657-.45605A.60621.60621,0,0,1,201.41261,161.49378Z"/><path d="M203.98878,162.9723a1.50122,1.50122,0,0,1,1.37305.665l-.666.51172a.80026.80026,0,0,0-.707-.38575,1.09618,1.09618,0,0,0-1.06445,1.17676.77532.77532,0,0,0,.84765.791.93659.93659,0,0,0,.707-.33594l.4834.5957a1.753,1.753,0,0,1-1.28223.53223,1.50813,1.50813,0,0,1-1.65917-1.541A1.97022,1.97022,0,0,1,203.98878,162.9723Z"/><polyline class="cls-5" points="182.08 112.937 231.948 112.937 231.948 150.728"/><path d="M197.16944,99.901a2.69218,2.69218,0,0,1-3.02539,2.66211h-1.835l1.0293-4.67188H195.145A2.0029,2.0029,0,0,1,197.16944,99.901Zm-1.03613.06347a1.14957,1.14957,0,0,0-1.17676-1.19726h-.8125l-.64453,2.91992h.82617A1.70051,1.70051,0,0,0,196.13331,99.96448Z"/><path d="M199.62257,99.09632a1.43866,1.43866,0,0,1,1.51953,1.5127,2.25088,2.25088,0,0,1-.06934.54589h-2.51465v.084a.83058.83058,0,0,0,.92481.70019,1.5182,1.5182,0,0,0,.85449-.25195l.2793.60938a2.19669,2.19669,0,0,1-1.19727.35058c-1.06445,0-1.751-.57422-1.751-1.51953A1.9765,1.9765,0,0,1,199.62257,99.09632Zm.72168,1.38672a.69122.69122,0,0,0-.77735-.67969.96615.96615,0,0,0-.918.749h1.69532Z"/><path d="M203.70069,99.09632a1.50122,1.50122,0,0,1,1.373.665l-.665.51172a.8019.8019,0,0,0-.708-.38574,1.09677,1.09677,0,0,0-1.06445,1.17675.77582.77582,0,0,0,.84766.791.93659.93659,0,0,0,.707-.33594l.4834.59571a1.75245,1.75245,0,0,1-1.28125.53222,1.50845,1.50845,0,0,1-1.66016-1.541A1.97023,1.97023,0,0,1,203.70069,99.09632Z"/><path d="M206.0171,99.18031h.88965l-.10547.44824a1.538,1.538,0,0,1,1.19726-.52539l-.18847.88281a1.35449,1.35449,0,0,0-.3291-.043,1.19543,1.19543,0,0,0-.84082.40625l-.4834,2.21387h-.88965Z"/><path d="M208.36964,103.13734a.4583.4583,0,0,0,.41992-.23828l.21-.31543-.60254-3.40332h.92481l.35742,2.35253,1.415-2.35253h.98047l-2.46582,3.93554a1.40938,1.40938,0,0,1-1.30957.81934,1.8019,1.8019,0,0,1-.56739-.084l.29395-.7705A.94943.94943,0,0,0,208.36964,103.13734Z"/><path d="M212.53077,103.8512h-.88965l1.03711-4.67089h.88965l-.09863.41992a1.289,1.289,0,0,1,1.02246-.50391,1.24859,1.24859,0,0,1,1.28222,1.40039,1.98655,1.98655,0,0,1-1.77929,2.15039,1.25938,1.25938,0,0,1-1.07813-.53222Zm1.56152-3.96386a1.02425,1.02425,0,0,0-.77734.40625l-.25879,1.17675a.932.932,0,0,0,.791.38477,1.08664,1.08664,0,0,0,.99511-1.17578A.73673.73673,0,0,0,214.09229,99.88734Z"/><path d="M216.58058,101.68031l.37793-1.7295H216.398l.1748-.7705h.56055l.20312-.92481h.89649l-.20313.92481h.68653l-.18164.7705h-.68653l-.32226,1.47071a.96725.96725,0,0,0-.01465.13964c0,.18262.10547.29395.33008.29395a.46246.46246,0,0,0,.24511-.06934l.03418.71387a1.03686,1.03686,0,0,1-.55957.14746c-.60253,0-1.00878-.23144-1.00878-.73535A1.05,1.05,0,0,1,216.58058,101.68031Z"/><path d="M220.86378,99.09632a1.43866,1.43866,0,0,1,1.51953,1.5127,2.25088,2.25088,0,0,1-.06934.54589h-2.51464v.084a.83057.83057,0,0,0,.9248.70019,1.51818,1.51818,0,0,0,.85449-.25195l.2793.60938a2.19667,2.19667,0,0,1-1.19727.35058c-1.06445,0-1.751-.57422-1.751-1.51953A1.9765,1.9765,0,0,1,220.86378,99.09632Zm.72168,1.38672a.69122.69122,0,0,0-.77735-.67969.96613.96613,0,0,0-.918.749h1.69531Z"/><path d="M226.20948,97.89124h.89649l-1.03711,4.67188h-.89649l.09864-.4209a1.27446,1.27446,0,0,1-1.01563.50488,1.24754,1.24754,0,0,1-1.28906-1.40137,1.97726,1.97726,0,0,1,1.78613-2.14941,1.27728,1.27728,0,0,1,1.0791.53223Zm-1.5625,3.96387a1.009,1.009,0,0,0,.77832-.39844l.25879-1.17676a.93528.93528,0,0,0-.792-.39257,1.09208,1.09208,0,0,0-.99414,1.17675A.7357.7357,0,0,0,224.647,101.85511Z"/><path d="M201.145,105.76722h-1.36524l.19629-.876h3.72559l-.18945.876H202.147l-.834,3.7959h-1.001Z"/><path d="M203.74659,106.18031h.88965l-.10547.44824a1.54158,1.54158,0,0,1,1.19824-.52539l-.18945.88281a1.33917,1.33917,0,0,0-.3291-.043,1.19543,1.19543,0,0,0-.84082.40625l-.48242,2.21387h-.88965Z"/><path d="M208.79542,106.18031h.89648l-.75,3.38281h-.89648l.09863-.4209a1.27444,1.27444,0,0,1-1.01562.50488,1.24755,1.24755,0,0,1-1.28907-1.40137,1.97726,1.97726,0,0,1,1.78614-2.14941,1.27728,1.27728,0,0,1,1.0791.53223Zm-1.27539,2.6748a1.009,1.009,0,0,0,.77832-.39844l.25879-1.17676a.93528.93528,0,0,0-.792-.39257,1.09208,1.09208,0,0,0-.99414,1.17675A.7357.7357,0,0,0,207.52,108.85511Z"/><path d="M210.78272,106.95765h-.56054l.168-.77734h.56054l.042-.18262a1.29514,1.29514,0,0,1,1.26758-1.17676,1.36744,1.36744,0,0,1,.74219.18945l-.30762.60254a.54161.54161,0,0,0-.32226-.09082c-.27344,0-.41992.168-.49024.47559l-.042.18262h.69336l-.1748.77734h-.68653l-.57422,2.60547h-.89648Zm2.29,0h-.56054l.168-.77734h.56055l.042-.18262a1.29584,1.29584,0,0,1,1.26758-1.17676,1.373,1.373,0,0,1,.74317.18945l-.3086.60254a.54161.54161,0,0,0-.32226-.09082c-.27344,0-.41993.168-.49024.47559l-.042.18262h.69336l-.17481.77734h-.68652l-.57422,2.60547h-.89648Zm2.2627-.77734h.88867l-.749,3.38281h-.88965Zm.7207-1.5625a.46021.46021,0,0,1,.47656.456.60158.60158,0,0,1-.5957.60937.45527.45527,0,0,1-.47559-.456A.606.606,0,0,1,216.05616,104.61781Z"/><path d="M218.63233,106.09632a1.50122,1.50122,0,0,1,1.37305.665l-.665.51172a.8019.8019,0,0,0-.708-.38574,1.09677,1.09677,0,0,0-1.06445,1.17675.77582.77582,0,0,0,.84766.791.93659.93659,0,0,0,.707-.33594l.4834.59571a1.75245,1.75245,0,0,1-1.28125.53222,1.50845,1.50845,0,0,1-1.66016-1.541A1.97023,1.97023,0,0,1,218.63233,106.09632Z"/><path d="M83.05128,190.31019h.91308v7.33789h-.91308Z"/><path d="M89.12354,194.17152c0-.93555-.47265-1.23243-1.1875-1.23243a2.05345,2.05345,0,0,0-1.57421.8252v3.88379h-.82422V192.3346h.82422v.76953a2.64026,2.64026,0,0,1,1.89257-.90136,1.50988,1.50988,0,0,1,1.69434,1.71582v3.72949h-.8252Z"/><path d="M91.65284,196.53675v-3.47656H90.772v-.72559h.88086v-1.45215h.8252v1.45215h1.07812v.72559H92.478V196.361c0,.39551.17578.68164.53906.68164a.79847.79847,0,0,0,.56152-.21973l.24121.61621a1.34643,1.34643,0,0,1-.98925.34082A1.0875,1.0875,0,0,1,91.65284,196.53675Z"/><path d="M96.92237,192.20277a2.58106,2.58106,0,0,1,2.55274,2.84863v.209H95.17237a1.87282,1.87282,0,0,0,1.91406,1.83789,2.32813,2.32813,0,0,0,1.64063-.67089l.39551.53906a2.88945,2.88945,0,0,1-2.11231.81347,2.79189,2.79189,0,0,1-.08789-5.57714Zm-1.75,2.45312h3.48828a1.72329,1.72329,0,0,0-1.75-1.77148A1.7737,1.7737,0,0,0,95.17237,194.65589Z"/><path d="M100.69483,192.3346h.8252v.85742a2.25891,2.25891,0,0,1,1.77148-.96777v.84668a1.4936,1.4936,0,0,0-.33008-.03223,1.94549,1.94549,0,0,0-1.4414.84668v3.7627h-.8252Z"/><path d="M107.80128,194.17152c0-.93555-.47266-1.23243-1.1875-1.23243a2.05347,2.05347,0,0,0-1.57422.8252v3.88379h-.82422V192.3346h.82422v.76953a2.64028,2.64028,0,0,1,1.89258-.90136,1.50987,1.50987,0,0,1,1.69433,1.71582v3.72949h-.82519Z"/><path d="M113.4878,197.04261a2.29813,2.29813,0,0,1-1.76074.7373,1.7687,1.7687,0,0,1-1.8584-1.75976,1.74039,1.74039,0,0,1,1.8584-1.75,2.22177,2.22177,0,0,1,1.76074.72656v-.957c0-.71484-.57129-1.12207-1.34277-1.12207a2.10718,2.10718,0,0,0-1.627.7373l-.38575-.57226a2.781,2.781,0,0,1,2.124-.87988c1.12109,0,2.05664.50586,2.05664,1.793v3.65235h-.8252Zm0-1.51758a1.77833,1.77833,0,0,0-1.46289-.66015,1.16911,1.16911,0,1,0,0,2.32128,1.77833,1.77833,0,0,0,1.46289-.66015Z"/><path d="M115.85206,190.31019h.82617v7.33789h-.82617Z"/><path d="M86.74659,204.985a3.66281,3.66281,0,0,1,3.74024-3.7959,3.2965,3.2965,0,0,1,2.8164,1.45215l-.76953.42871a2.4906,2.4906,0,0,0-2.04687-1.0664,2.98774,2.98774,0,0,0,0,5.96289,2.46418,2.46418,0,0,0,2.04687-1.06738l.78125.42871a3.33756,3.33756,0,0,1-2.82812,1.45214A3.66256,3.66256,0,0,1,86.74659,204.985Z"/><path d="M94.33643,201.31019h.82618v7.33789h-.82618Z"/><path d="M96.55909,201.88245a.55569.55569,0,0,1,1.11133,0,.55569.55569,0,1,1-1.11133,0Zm.14258,1.45215h.82519v5.31348h-.82519Z"/><path d="M101.37745,203.20277a2.581,2.581,0,0,1,2.55273,2.84863v.209H99.62745a1.87282,1.87282,0,0,0,1.91406,1.83789,2.32813,2.32813,0,0,0,1.64063-.67089l.39551.53906a2.88945,2.88945,0,0,1-2.11231.81347,2.79189,2.79189,0,0,1-.08789-5.57714Zm-1.75,2.45312h3.48828a1.72329,1.72329,0,0,0-1.75-1.77148A1.7737,1.7737,0,0,0,99.62745,205.65589Z"/><path d="M108.73683,205.17152c0-.93555-.47364-1.23243-1.18848-1.23243a2.05308,2.05308,0,0,0-1.57324.8252v3.88379h-.8252V203.3346h.8252v.76953a2.63654,2.63654,0,0,1,1.89257-.90136,1.50919,1.50919,0,0,1,1.69336,1.71582v3.72949h-.82421Z"/><path d="M111.26612,207.53675v-3.47656h-.88086v-.72559h.88086v-1.45215h.8252v1.45215h1.07812v.72559h-1.07812V207.361c0,.39551.17578.68164.53906.68164a.79843.79843,0,0,0,.56152-.21973l.24121.61621a1.34641,1.34641,0,0,1-.98925.34082A1.0875,1.0875,0,0,1,111.26612,207.53675Z"/><path d="M366.58058,194.31019h4.80859v.81347h-3.89453v2.36622h3.8164v.81347h-3.8164v2.53028h3.89453v.81445h-4.80859Z"/><path d="M374.54542,199.46937l-1.5957,2.17871h-.94629l2.03613-2.72852-1.92578-2.585h.957l1.47461,2.02442,1.47363-2.02442h.957l-1.9248,2.585,2.0459,2.72852h-.957Z"/><path d="M378.09718,200.53675v-3.47656h-.87989v-.72559h.87989v-1.45215h.82519v1.45215h1.07813v.72559h-1.07813V200.361c0,.39551.17578.68164.53906.68164a.79414.79414,0,0,0,.56055-.21973l.24219.61621a1.34738,1.34738,0,0,1-.99024.34082A1.08681,1.08681,0,0,1,378.09718,200.53675Z"/><path d="M383.36573,196.20277a2.58,2.58,0,0,1,2.55274,2.84863v.209h-4.30079a1.87159,1.87159,0,0,0,1.91407,1.83789,2.32182,2.32182,0,0,0,1.63867-.67089l.39648.53906a2.88942,2.88942,0,0,1-2.1123.81347,2.792,2.792,0,0,1-.08887-5.57714Zm-1.748,2.45312H385.104a1.72158,1.72158,0,0,0-1.748-1.77148A1.77167,1.77167,0,0,0,381.61768,198.65589Z"/><path d="M387.13917,196.3346h.82519v.85742a2.25862,2.25862,0,0,1,1.77051-.96777v.84668a1.48125,1.48125,0,0,0-.33008-.03223,1.94189,1.94189,0,0,0-1.44043.84668v3.7627h-.82519Z"/><path d="M394.24561,198.17152c0-.93555-.47363-1.23243-1.18847-1.23243a2.05112,2.05112,0,0,0-1.57227.8252v3.88379h-.82617V196.3346h.82617v.76953a2.63427,2.63427,0,0,1,1.8916-.90136,1.50988,1.50988,0,0,1,1.69434,1.71582v3.72949h-.8252Z"/><path d="M399.93214,201.04261a2.296,2.296,0,0,1-1.75977.7373,1.769,1.769,0,0,1-1.85937-1.75976,1.74067,1.74067,0,0,1,1.85937-1.75,2.22107,2.22107,0,0,1,1.75977.72656v-.957c0-.71484-.57227-1.12207-1.3418-1.12207a2.10972,2.10972,0,0,0-1.62891.7373l-.38476-.57226a2.77882,2.77882,0,0,1,2.12305-.87988c1.123,0,2.05761.50586,2.05761,1.793v3.65235h-.82519Zm0-1.51758a1.77706,1.77706,0,0,0-1.46289-.66015,1.16911,1.16911,0,1,0,0,2.32128,1.77706,1.77706,0,0,0,1.46289-.66015Z"/><path d="M402.29737,194.31019h.82422v7.33789h-.82422Z"/><path d="M365.811,209.733h-1.46289v2.915h-.91406v-7.33789h2.94922a2.13718,2.13718,0,0,1,2.29883,2.21094,2.028,2.028,0,0,1-1.90235,2.13476l1.98047,2.99219h-1.0791Zm.46192-3.60938h-1.92481v2.80567H366.273a1.40411,1.40411,0,1,0,0-2.80567Z"/><path d="M371.95948,207.20277a2.58,2.58,0,0,1,2.55274,2.84863v.209h-4.30079a1.87159,1.87159,0,0,0,1.91407,1.83789,2.32182,2.32182,0,0,0,1.63867-.67089l.39648.53906a2.88942,2.88942,0,0,1-2.1123.81347,2.792,2.792,0,0,1-.08887-5.57714Zm-1.748,2.45312h3.48633a1.72158,1.72158,0,0,0-1.748-1.77148A1.77167,1.77167,0,0,0,370.21143,209.65589Z"/><path d="M375.69972,211.35023a2.41,2.41,0,0,0,1.749.75879c.81348,0,1.25391-.36329,1.25391-.87989,0-.583-.64942-.7705-1.36426-.94629-.90235-.209-1.92578-.45117-1.92578-1.55175,0-.82422.71582-1.52832,1.98047-1.52832a2.6902,2.6902,0,0,1,1.96972.76953l-.38476.57226a2.07228,2.07228,0,0,0-1.585-.6709c-.72559,0-1.17676.33008-1.17676.80274,0,.51758.60449.68262,1.29785.84766.9248.209,1.99219.47265,1.99219,1.64941,0,.8916-.71485,1.60644-2.09082,1.60644A2.82611,2.82611,0,0,1,375.27,211.944Z"/><path d="M380.42921,209.986a2.63424,2.63424,0,1,1,2.62988,2.79394A2.60732,2.60732,0,0,1,380.42921,209.986Zm4.38965,0a1.78622,1.78622,0,1,0-1.75977,2.05664A1.84744,1.84744,0,0,0,384.81886,209.986Z"/><path d="M390.50636,211.9a2.60256,2.60256,0,0,1-1.89258.87988,1.49456,1.49456,0,0,1-1.69434-1.69433v-3.751h.8252v3.49805c0,.93555.47265,1.21,1.1875,1.21a2.0361,2.0361,0,0,0,1.57422-.80273V207.3346h.82422v5.31348h-.82422Z"/><path d="M392.87061,207.3346h.8252v.85742a2.25891,2.25891,0,0,1,1.77148-.96777v.84668a1.49357,1.49357,0,0,0-.33007-.03223,1.94549,1.94549,0,0,0-1.44141.84668v3.7627h-.8252Z"/><path d="M398.73292,207.20277a2.27173,2.27173,0,0,1,1.94726.92382l-.5498.50586a1.575,1.575,0,0,0-1.35254-.69336,2.0642,2.0642,0,0,0,0,4.10352,1.60239,1.60239,0,0,0,1.35254-.69238l.5498.50586a2.27173,2.27173,0,0,1-1.94726.92382,2.79217,2.79217,0,0,1,0-5.57714Z"/><path d="M404.03565,207.20277a2.58106,2.58106,0,0,1,2.55274,2.84863v.209h-4.30274a1.87282,1.87282,0,0,0,1.91407,1.83789,2.32811,2.32811,0,0,0,1.64062-.67089l.39551.53906a2.88945,2.88945,0,0,1-2.11231.81347,2.79189,2.79189,0,0,1-.08789-5.57714Zm-1.75,2.45312h3.48828a1.72328,1.72328,0,0,0-1.75-1.77148A1.77371,1.77371,0,0,0,402.28565,209.65589Z"/><path d="M207.85206,194.31019h4.80762v.81347h-3.89453v2.36622h3.81738v.81347h-3.81738v3.34473h-.91309Z"/><path d="M214.2212,199.99769a2.41374,2.41374,0,0,0,2.02344.96875A1.58485,1.58485,0,0,0,217.94,199.3932a1.54684,1.54684,0,0,0-1.68359-1.585,2.29915,2.29915,0,0,0-1.69434.69336l-.6709-.23144v-3.96h4.48828v.81347h-3.57617v2.55274a2.48786,2.48786,0,0,1,1.7168-.66016,2.248,2.248,0,0,1,2.332,2.34375,2.4024,2.4024,0,0,1-2.60742,2.41992,2.99734,2.99734,0,0,1-2.585-1.17675Z"/><path d="M222.89893,194.31019h2.50879a3.67011,3.67011,0,1,1,0,7.33789h-2.50879Zm2.50879,6.52344a2.85525,2.85525,0,0,0,0-5.71H223.813v5.71Z"/><path d="M232.76612,196.20277a2.58,2.58,0,0,1,2.55274,2.84863v.209h-4.30078a1.87158,1.87158,0,0,0,1.91406,1.83789,2.32182,2.32182,0,0,0,1.63867-.67089l.39648.53906a2.88942,2.88942,0,0,1-2.1123.81347,2.792,2.792,0,0,1-.08887-5.57714Zm-1.748,2.45312h3.48632a1.72158,1.72158,0,0,0-1.748-1.77148A1.77166,1.77166,0,0,0,231.01808,198.65589Z"/><path d="M238.88331,196.20277a2.2756,2.2756,0,0,1,1.94727.92382l-.55079.50586a1.57431,1.57431,0,0,0-1.35351-.69336,2.06432,2.06432,0,0,0,0,4.10352,1.60167,1.60167,0,0,0,1.35351-.69238l.55079.50586a2.2756,2.2756,0,0,1-1.94727.92382,2.79207,2.79207,0,0,1,0-5.57714Z"/><path d="M241.87354,196.3346h.82618v.85742a2.25709,2.25709,0,0,1,1.7705-.96777v.84668a1.48738,1.48738,0,0,0-.33007-.03223,1.94187,1.94187,0,0,0-1.44043.84668v3.7627h-.82618Z"/><path d="M245.68018,203.067a.76364.76364,0,0,0,.792-.56054l.35254-.80371-2.22266-5.36817h.89062l1.77149,4.35645,1.75976-4.35645h.90235l-2.66211,6.3916a1.5778,1.5778,0,0,1-1.5625,1.07813,2.67312,2.67312,0,0,1-.60449-.07715l.13183-.74805A1.26989,1.26989,0,0,0,245.68018,203.067Z"/><path d="M250.67433,203.67249V196.3346h.82519v.792a2.22007,2.22007,0,0,1,1.793-.92382c1.39746,0,2.36523,1.05566,2.36523,2.7832,0,1.71582-.96777,2.79394-2.36523,2.79394a2.17751,2.17751,0,0,1-1.793-.93457v2.82715Zm2.40918-6.7334a1.96465,1.96465,0,0,0-1.584.84766v2.39844a1.97293,1.97293,0,0,0,1.584.85742c1.06738,0,1.70605-.87988,1.70605-2.05664C254.78956,197.80823,254.15089,196.93909,253.08351,196.93909Z"/><path d="M257.04347,200.53675v-3.47656h-.88086v-.72559h.88086v-1.45215h.82421v1.45215h1.07813v.72559h-1.07813V200.361c0,.39551.17579.68164.53907.68164a.79665.79665,0,0,0,.56152-.21973l.24121.61621a1.34644,1.34644,0,0,1-.98926.34082A1.08681,1.08681,0,0,1,257.04347,200.53675Z"/><path d="M259.8589,194.88245a.55568.55568,0,0,1,1.11132,0,.55568.55568,0,1,1-1.11132,0Zm.14355,1.45215h.82422v5.31348h-.82422Z"/><path d="M262.05909,198.986a2.63424,2.63424,0,1,1,2.62891,2.79394A2.60656,2.60656,0,0,1,262.05909,198.986Zm4.38965,0a1.78664,1.78664,0,1,0-1.76074,2.05664A1.84756,1.84756,0,0,0,266.44874,198.986Z"/><path d="M272.13526,198.17152c0-.93555-.47265-1.23243-1.1875-1.23243a2.05149,2.05149,0,0,0-1.57324.8252v3.88379h-.82519V196.3346h.82519v.76953a2.638,2.638,0,0,1,1.8916-.90136,1.51056,1.51056,0,0,1,1.69531,1.71582v3.72949h-.82617Z"/><path d="M276.28175,194.09046h.64941l-2.60742,7.77735h-.64941Z"/><path d="M195.9712,205.31019h4.80859v.81347h-3.89453v2.36622h3.81739v.81347h-3.81739v2.53028h3.89453v.81445H195.9712Z"/><path d="M205.67433,209.17152c0-.93555-.47266-1.23243-1.1875-1.23243a2.05345,2.05345,0,0,0-1.57422.8252v3.88379h-.82422V207.3346h.82422v.76953a2.64026,2.64026,0,0,1,1.89257-.90136,1.50988,1.50988,0,0,1,1.69434,1.71582v3.72949h-.82519Z"/><path d="M210.38136,207.20277a2.27173,2.27173,0,0,1,1.94726.92382l-.5498.50586a1.575,1.575,0,0,0-1.35254-.69336,2.0642,2.0642,0,0,0,0,4.10352,1.6024,1.6024,0,0,0,1.35254-.69238l.5498.50586a2.27173,2.27173,0,0,1-1.94726.92382,2.79217,2.79217,0,0,1,0-5.57714Z"/><path d="M213.37354,207.3346h.8252v.85742a2.25859,2.25859,0,0,1,1.77051-.96777v.84668a1.48137,1.48137,0,0,0-.33008-.03223,1.94187,1.94187,0,0,0-1.44043.84668v3.7627h-.8252Z"/><path d="M217.18018,214.067a.76324.76324,0,0,0,.791-.56054l.35254-.80371-2.22168-5.36817h.89062l1.77149,4.35645,1.75976-4.35645h.90235l-2.66211,6.3916a1.5794,1.5794,0,0,1-1.5625,1.07813,2.68908,2.68908,0,0,1-.60547-.07715l.13281-.74805A1.26989,1.26989,0,0,0,217.18018,214.067Z"/><path d="M222.17335,214.67249V207.3346h.82519v.792a2.22009,2.22009,0,0,1,1.793-.92382c1.39746,0,2.36524,1.05566,2.36524,2.7832,0,1.71582-.96778,2.79394-2.36524,2.79394a2.17623,2.17623,0,0,1-1.793-.93457v2.82715Zm2.40918-6.7334a1.96611,1.96611,0,0,0-1.584.84766v2.39844a1.97441,1.97441,0,0,0,1.584.85742c1.06738,0,1.70508-.87988,1.70508-2.05664C226.28761,208.80823,225.64991,207.93909,224.58253,207.93909Z"/><path d="M228.54151,211.53675v-3.47656h-.87988v-.72559h.87988v-1.45215h.82617v1.45215h1.07813v.72559h-1.07813V211.361c0,.39551.17579.68164.53907.68164a.79593.79593,0,0,0,.56054-.21973l.24219.61621a1.34735,1.34735,0,0,1-.99023.34082A1.0875,1.0875,0,0,1,228.54151,211.53675Z"/><path d="M231.35792,205.88245a.55569.55569,0,0,1,1.11133,0,.55569.55569,0,1,1-1.11133,0Zm.14258,1.45215h.82617v5.31348h-.82617Z"/><path d="M233.55811,209.986a2.63424,2.63424,0,1,1,2.62989,2.79394A2.60733,2.60733,0,0,1,233.55811,209.986Zm4.38965,0a1.78622,1.78622,0,1,0-1.75976,2.05664A1.84743,1.84743,0,0,0,237.94776,209.986Z"/><path d="M243.63429,209.17152c0-.93555-.47364-1.23243-1.18848-1.23243a2.05112,2.05112,0,0,0-1.57227.8252v3.88379h-.82617V207.3346h.82617v.76953a2.63428,2.63428,0,0,1,1.89161-.90136,1.50987,1.50987,0,0,1,1.69433,1.71582v3.72949h-.82519Z"/><path d="M248.76026,205.31019h4.80762v.81347h-3.89453v2.36622h3.81738v.81347h-3.81738v3.34473h-.91309Z"/><path d="M258.25343,211.9a2.60032,2.60032,0,0,1-1.8916.87988,1.49525,1.49525,0,0,1-1.69532-1.69433v-3.751h.82617v3.49805c0,.93555.47266,1.21,1.1875,1.21a2.03411,2.03411,0,0,0,1.57325-.80273V207.3346h.82519v5.31348h-.82519Z"/><path d="M264.20362,209.17152c0-.93555-.47265-1.23243-1.1875-1.23243a2.05149,2.05149,0,0,0-1.57324.8252v3.88379h-.8252V207.3346h.8252v.76953a2.638,2.638,0,0,1,1.8916-.90136,1.51056,1.51056,0,0,1,1.69531,1.71582v3.72949h-.82617Z"/><path d="M268.91261,207.20277a2.27557,2.27557,0,0,1,1.94726.92382l-.55078.50586a1.57431,1.57431,0,0,0-1.35351-.69336,2.06432,2.06432,0,0,0,0,4.10352,1.60167,1.60167,0,0,0,1.35351-.69238l.55078.50586a2.27557,2.27557,0,0,1-1.94726.92382,2.79207,2.79207,0,0,1,0-5.57714Z"/><path d="M272.06886,211.53675v-3.47656H271.188v-.72559h.88086v-1.45215h.82519v1.45215h1.07813v.72559h-1.07813V211.361c0,.39551.17578.68164.53906.68164a.79847.79847,0,0,0,.56153-.21973l.24121.61621a1.34646,1.34646,0,0,1-.98926.34082A1.0875,1.0875,0,0,1,272.06886,211.53675Z"/><path d="M274.88526,205.88245a.55569.55569,0,0,1,1.11133,0,.55569.55569,0,1,1-1.11133,0Zm.14258,1.45215h.8252v5.31348h-.8252Z"/><path d="M277.08448,209.986a2.63424,2.63424,0,1,1,2.62891,2.79394A2.60656,2.60656,0,0,1,277.08448,209.986Zm4.38965,0a1.78664,1.78664,0,1,0-1.76074,2.05664A1.84756,1.84756,0,0,0,281.47413,209.986Z"/><path d="M287.16065,209.17152c0-.93555-.47265-1.23243-1.1875-1.23243a2.05149,2.05149,0,0,0-1.57324.8252v3.88379h-.82519V207.3346h.82519v.76953a2.638,2.638,0,0,1,1.8916-.90136,1.51056,1.51056,0,0,1,1.69532,1.71582v3.72949h-.82618Z"/><g id="lock"><rect class="cls-6" x="125.62367" y="166.02962" width="9" height="7.87622"/><path class="cls-7" d="M133.49392,166.02962v-2.24951a3.37025,3.37025,0,1,0-6.7405,0v2.24951"/></g><g id="lock-2" data-name="lock"><rect class="cls-6" x="349.83033" y="166.02962" width="9" height="7.87622"/><path class="cls-7" d="M357.70059,166.02962v-2.24951a3.37026,3.37026,0,1,0-6.74051,0v2.24951"/></g><rect class="cls-8" x="366.52789" y="156.51917" width="30.54997" height="30.54997" rx="5.30511"/><g id="Group_13232-2" data-name="Group 13232-2"><path id="Path_61042" data-name="Path 61042" class="cls-9" d="M376.78718,172.94336a2.51619,2.51619,0,0,1-2.00058.8528,1.93756,1.93756,0,1,1,0-3.87007,2.51617,2.51617,0,0,1,2.00058.8528v-1.31166a1.468,1.468,0,0,0-1.63879-1.44277,2.26406,2.26406,0,0,0-1.86948.91836l-.22943-.22943a2.51554,2.51554,0,0,1,2.13043-.98454c1.14778,0,2.00058.5906,2.00058,1.73838v4.19782H376.82v-.72169Zm0-1.80393a2.34784,2.34784,0,0,0-1.90226-.88243,1.62366,1.62366,0,0,0-1.73436,1.50484q-.00363.05113-.004.10243a1.60476,1.60476,0,0,0,1.59664,1.61283q.07095.00036.14173-.00555a2.30438,2.30438,0,0,0,1.90226-.88936Z"/><path id="Path_61043" data-name="Path 61043" class="cls-9" d="M379.11552,175.85977v-8.00486h.36054v.98391a2.58992,2.58992,0,0,1,2.09765-1.11c1.57576,0,2.59118,1.21334,2.59118,3.01727,0,1.8367-1.01668,3.05-2.59118,3.05a2.6,2.6,0,0,1-2.09891-1.14779v3.21455Zm2.45819-7.80316a2.53382,2.53382,0,0,0-2.09891,1.14778V172.32a2.51425,2.51425,0,0,0,2.09891,1.18056c1.41,0,2.19724-1.21333,2.19724-2.72228C383.77284,169.2378,382.98559,168.05661,381.57371,168.05661Z"/><path id="Path_61044" data-name="Path 61044" class="cls-9" d="M385.8062,175.85977v-8.00486h.36053v.98391a2.58993,2.58993,0,0,1,2.09765-1.11c1.57576,0,2.59118,1.21334,2.59118,3.01727,0,1.8367-1.01668,3.05-2.59118,3.05a2.6,2.6,0,0,1-2.09891-1.14779v3.21455Zm2.45818-7.80316a2.53383,2.53383,0,0,0-2.09891,1.14778V172.32a2.51427,2.51427,0,0,0,2.09891,1.18056c1.41,0,2.19724-1.21333,2.19724-2.72228C390.46351,169.2378,389.67626,168.05661,388.26438,168.05661Z"/></g><path class="cls-8" d="M372.59356,156.51917v-.899a5.18182,5.18182,0,0,1,5.16663-5.16663H397.9769a5.18183,5.18183,0,0,1,5.16663,5.16663v20.21671a5.18182,5.18182,0,0,1-5.16663,5.16663h-.899"/><line class="cls-10" x1="147.88699" y1="224.67371" x2="336.19879" y2="224.67371"/><polygon class="cls-11" points="332.885 228.764 332.203 228.031 335.815 224.675 332.203 221.317 332.885 220.585 337.283 224.675 332.885 228.764"/><path d="M208.75831,227.22523c3.43926-.05844,2.62242,5.005-.42108,4.83195C204.88992,232.1183,205.70468,227.049,208.75831,227.22523Zm-.06348.88183c-1.72683-.12918-2.36324,3.1003-.30066,3.06841C210.11371,231.30274,210.7587,228.08117,208.69483,228.10706Z"/><path d="M212.5669,230.62855a1.12609,1.12609,0,0,0-.02832.20312c0,.3086.252.43457.56739.43457a1.25192,1.25192,0,0,0,.80566-.39941l.50391-2.27637h.88964l-.749,3.38281h-.88965l.09766-.4414a1.60385,1.60385,0,0,1-1.12695.52539c-.65137,0-1.05762-.34278-1.05762-.86817a2.01051,2.01051,0,0,1,.03418-.27343l.51172-2.3252h.89648Z"/><path d="M216.00929,231.09144l.37793-1.73047h-.55957l.1748-.77051h.56055l.20312-.92383h.89649l-.20313.92383h.68653l-.18262.77051h-.68653l-.32226,1.4707a.97874.97874,0,0,0-.01367.14063c0,.18164.10547.29394.3291.29394a.46224.46224,0,0,0,.24512-.07031l.03515.71484a1.04038,1.04038,0,0,1-.56054.14649c-.60254,0-1.00879-.23047-1.00879-.73535A1.1052,1.1052,0,0,1,216.00929,231.09144Z"/><path d="M219.13526,231.97327h-.88965l1.0293-4.67089h.88965l-.37793,1.709a1.28721,1.28721,0,0,1,1.02246-.50488,1.24918,1.24918,0,0,1,1.28125,1.40136,1.98548,1.98548,0,0,1-1.77832,2.14942,1.25877,1.25877,0,0,1-1.0791-.53223Zm1.27442-2.6748a1.02109,1.02109,0,0,0-.77735.40625l-.25976,1.17578a.93076.93076,0,0,0,.792.38574,1.08749,1.08749,0,0,0,.99414-1.17676A.7357.7357,0,0,0,220.40968,229.29847Z"/><path d="M224.6421,228.50648a1.51194,1.51194,0,0,1,1.68164,1.541,1.98094,1.98094,0,0,1-1.96191,2.00977,1.50083,1.50083,0,0,1-1.67383-1.5332A1.98184,1.98184,0,0,1,224.6421,228.50648Zm-.02734.792a1.10087,1.10087,0,0,0-1.00879,1.17578.72867.72867,0,0,0,.791.792,1.09643,1.09643,0,0,0,1.00195-1.17676A.72648.72648,0,0,0,224.61476,229.29847Z"/><path d="M227.93116,230.62855a1.12058,1.12058,0,0,0-.02734.20312c0,.3086.25195.43457.56738.43457a1.24952,1.24952,0,0,0,.80469-.39941l.50488-2.27637h.88965l-.75,3.38281h-.88965l.09863-.4414a1.6081,1.6081,0,0,1-1.12793.52539c-.65136,0-1.05761-.34278-1.05761-.86817a2.01756,2.01756,0,0,1,.03515-.27343l.51172-2.3252h.89649Z"/><path d="M233.72218,229.95667a1.11182,1.11182,0,0,0,.03515-.22461c0-.31445-.25195-.43359-.51855-.43359a1.25923,1.25923,0,0,0-.85352.3916l-.50488,2.2832h-.88965l.75-3.38281h.88965l-.09863.44141a1.612,1.612,0,0,1,1.12793-.52539c.65136,0,1.05761.34375,1.05761.86816a2.14272,2.14272,0,0,1-.03515.27344l-.51856,2.32519h-.88965Z"/><path d="M238.57569,227.30238h.89649l-1.03614,4.67089h-.89648l.09766-.41992a1.27626,1.27626,0,0,1-1.01563.50391,1.24605,1.24605,0,0,1-1.28808-1.40039,1.9775,1.9775,0,0,1,1.78613-2.15039,1.27669,1.27669,0,0,1,1.07812.53222Zm-1.56152,3.96386a1.00349,1.00349,0,0,0,.77734-.39941l.25879-1.17676a.93385.93385,0,0,0-.791-.3916,1.09115,1.09115,0,0,0-.99414,1.17578A.736.736,0,0,0,237.01417,231.26624Z"/><path d="M244.21143,227.22523a2.07627,2.07627,0,0,1,2.07227,1.32324l-.959.32226a1.17835,1.17835,0,0,0-1.16309-.76367,1.71039,1.71039,0,0,0-1.63184,1.793,1.23666,1.23666,0,0,0,1.31739,1.27539,1.47772,1.47772,0,0,0,1.09961-.54l.76269.52539a2.41525,2.41525,0,0,1-1.91894.89649,2.118,2.118,0,0,1-2.29688-2.09375A2.66744,2.66744,0,0,1,244.21143,227.22523Z"/><path d="M248.32472,228.50648a1.51162,1.51162,0,0,1,1.68066,1.541,1.98075,1.98075,0,0,1-1.96094,2.00977,1.50083,1.50083,0,0,1-1.67383-1.5332A1.98185,1.98185,0,0,1,248.32472,228.50648Zm-.02832.792a1.10087,1.10087,0,0,0-1.00879,1.17578.72941.72941,0,0,0,.792.792,1.09635,1.09635,0,0,0,1.001-1.17676A.72649.72649,0,0,0,248.2964,229.29847Z"/><path d="M253.18116,229.95667a1.18534,1.18534,0,0,0,.03516-.22461c0-.31445-.252-.43359-.51856-.43359a1.26166,1.26166,0,0,0-.85449.3916l-.50391,2.2832h-.88964l.749-3.38281h.88965l-.09766.44141a1.60771,1.60771,0,0,1,1.12695-.52539c.65137,0,1.05762.34375,1.05762.86816a1.98168,1.98168,0,0,1-.03515.27344l-.51758,2.32519h-.88965Z"/><path d="M257.38917,229.95667a1.11182,1.11182,0,0,0,.03516-.22461c0-.31445-.252-.43359-.51856-.43359a1.25918,1.25918,0,0,0-.85351.3916l-.50489,2.2832h-.88965l.75-3.38281h.88965l-.09863.44141a1.612,1.612,0,0,1,1.12793-.52539c.65137,0,1.05762.34375,1.05762.86816a2.14284,2.14284,0,0,1-.03516.27344l-.51855,2.32519h-.88965Z"/><path d="M260.96241,228.50648a1.43866,1.43866,0,0,1,1.51953,1.51269,2.26,2.26,0,0,1-.06933.54688H259.898v.084a.83058.83058,0,0,0,.9248.7002,1.51814,1.51814,0,0,0,.8545-.252l.27929.60938a2.20411,2.20411,0,0,1-1.19726.34961c-1.06446,0-1.751-.57422-1.751-1.51953A1.9765,1.9765,0,0,1,260.96241,228.50648Zm.72168,1.38672a.69107.69107,0,0,0-.77734-.67872.96614.96614,0,0,0-.918.749h1.69531Z"/><path d="M265.04054,228.50648a1.49969,1.49969,0,0,1,1.373.666l-.665.51074a.8011.8011,0,0,0-.708-.38476,1.09648,1.09648,0,0,0-1.06446,1.17578.77656.77656,0,0,0,.84766.792.93987.93987,0,0,0,.707-.33593l.4834.59472a1.74864,1.74864,0,0,1-1.28125.53223,1.50824,1.50824,0,0,1-1.66016-1.54A1.97046,1.97046,0,0,1,265.04054,228.50648Z"/><path d="M267.07765,231.09144l.37793-1.73047H266.896l.1748-.77051h.56055l.20312-.92383h.89649l-.20313.92383h.68652l-.18261.77051h-.68653l-.32226,1.4707a.97874.97874,0,0,0-.01367.14063c0,.18164.10547.29394.3291.29394a.46224.46224,0,0,0,.24512-.07031l.03515.71484a1.04039,1.04039,0,0,1-.56055.14649c-.60253,0-1.00878-.23047-1.00878-.73535A1.1052,1.1052,0,0,1,267.07765,231.09144Z"/><path d="M270.063,228.59046h.88965l-.749,3.38281H269.314Zm.72168-1.56152a.45943.45943,0,0,1,.47656.45508.60094.60094,0,0,1-.5957.60937.45534.45534,0,0,1-.47657-.45508A.60554.60554,0,0,1,270.78468,227.02894Z"/><path d="M273.32179,228.50648a1.51162,1.51162,0,0,1,1.68066,1.541,1.98075,1.98075,0,0,1-1.96094,2.00977,1.50083,1.50083,0,0,1-1.67383-1.5332A1.98185,1.98185,0,0,1,273.32179,228.50648Zm-.02832.792a1.10087,1.10087,0,0,0-1.00879,1.17578.72941.72941,0,0,0,.792.792,1.09635,1.09635,0,0,0,1.001-1.17676A.72649.72649,0,0,0,273.29347,229.29847Z"/><path d="M278.17921,229.95667a1.18534,1.18534,0,0,0,.03515-.22461c0-.31445-.252-.43359-.51855-.43359a1.26164,1.26164,0,0,0-.85449.3916l-.50391,2.2832h-.88965l.749-3.38281h.88964l-.09765.44141a1.60769,1.60769,0,0,1,1.12695-.52539c.65137,0,1.05762.34375,1.05762.86816a1.98025,1.98025,0,0,1-.03516.27344l-.51758,2.32519H277.731Z"/><line class="cls-12" x1="151.31013" y1="88.48441" x2="184.75154" y2="88.47272"/><line class="cls-12" x1="151.33119" y1="95.48473" x2="184.75154" y2="95.48473"/><line class="cls-12" x1="163.67269" y1="102.48504" x2="184.75154" y2="102.48504"/><line class="cls-12" x1="163.26656" y1="109.48535" x2="184.75154" y2="109.48535"/><line class="cls-12" x1="161.08003" y1="88.48441" x2="161.08003" y2="95.28434"/><line class="cls-12" x1="175.00445" y1="88.48441" x2="175.00445" y2="95.28434"/><line class="cls-12" x1="175.00445" y1="102.48504" x2="175.00445" y2="109.48535"/><line class="cls-12" x1="181.96666" y1="95.48473" x2="181.96666" y2="102.48504"/><line class="cls-12" x1="154.11782" y1="95.48473" x2="154.11782" y2="97.65694"/><line class="cls-12" x1="168.04136" y1="95.48473" x2="168.04136" y2="102.48504"/><line class="cls-12" x1="160.36564" y1="116.48567" x2="184.75154" y2="116.48567"/><line class="cls-12" x1="181.96666" y1="109.68574" x2="181.96666" y2="116.48567"/><line class="cls-12" x1="168.04136" y1="109.68574" x2="168.04136" y2="116.48567"/><path class="cls-12" d="M159.70314,100.30365q-.58257.02916-1.162.05017l-.00175-.00434L155.762,98.20119a2.3462,2.3462,0,0,0-2.94961-.04478l-2.99134,2.19741q-.57873-.02142-1.162-.05017c-2.19527-.10988-3.90754-.73667-3.90754,2.29187s.407,7.9397.407,7.9397-.24422,3.68335,3.98894,6.79375c3.64113,2.67538,5.01955,3.64375,5.01955,3.64375h0s1.40649-.96837,5.04763-3.64375c4.23316-3.1104,3.98894-6.79375,3.98894-6.79375s.407-4.91115.407-7.9397-1.71226-2.40175-3.90753-2.29187"/><path class="cls-13" d="M156.33045,103.03a5.84711,5.84711,0,1,0,3.64795,5.42171,5.839,5.839,0,0,0-2.08638-4.48122l.001-.00023-4.5829,6.97753-2.46678-3.29489"/><line class="cls-12" x1="97.24095" y1="181.03389" x2="102.70611" y2="181.03389"/><path class="cls-12" d="M120.45571,180.98442a2.47773,2.47773,0,0,1-1.36054,2.09581l-38.08906.00583-.16708-.01166a2.40148,2.40148,0,0,1-1.38332-2.06261,2.34187,2.34187,0,0,1,1.38332-2.0359h38.25614V157.08606H80.839v19.1536"/><polyline class="cls-12" points="239.72 162.569 236.99 157.346 231.859 167.631 229.078 162.213 225.834 162.213"/><polyline class="cls-12" points="247.351 166.851 244.717 172.131 241.041 165.099"/><polyline class="cls-12" points="258.123 162.268 249.638 162.268 248.649 164.249"/><polyline class="cls-12" points="258.204 178.007 258.204 150.803 225.704 150.803 225.704 155.401 258.006 155.401"/><line class="cls-12" x1="249.19575" y1="178.39197" x2="258.19188" y2="178.39197"/><polyline class="cls-12" points="225.704 157.712 225.704 178.392 232.941 178.392"/><path class="cls-12" d="M248.26658,179.15333l1.58113,2.11195a1.38252,1.38252,0,0,1,1.96189.28846l3.85475,5.03257a1.38027,1.38027,0,0,1-.29126,1.943h0a1.41143,1.41143,0,0,1-1.9619-.28847l-3.85475-5.03257"/><path class="cls-12" d="M233.20694,170.16876a9.46512,9.46512,0,1,1,7.97384,10.65084A9.45343,9.45343,0,0,1,233.20694,170.16876Zm8.371,8.00112a6.69859,6.69859,0,1,0-5.6956-7.60774A6.75246,6.75246,0,0,0,241.578,178.16988Z"/></svg>