<svg id="Layer_1" data-name="Layer 1" xmlns="http://www.w3.org/2000/svg" xmlns:xlink="http://www.w3.org/1999/xlink" viewBox="0 0 651.40572 220.53822"><defs><style>.cls-1,.cls-11,.cls-13,.cls-5,.cls-8{fill:none;}.cls-2,.cls-4{fill:#fff;}.cls-11,.cls-2,.cls-8{stroke:#000;}.cls-11,.cls-2,.cls-5,.cls-8{stroke-linecap:round;}.cls-13,.cls-2,.cls-5{stroke-miterlimit:10;}.cls-3{fill:#010101;}.cls-5{stroke:#2bae4a;}.cls-6{fill:#2bae4a;}.cls-7{clip-path:url(#clip-path);}.cls-11,.cls-8{stroke-linejoin:round;}.cls-9{clip-path:url(#clip-path-3);}.cls-10{clip-path:url(#clip-path-5);}.cls-11{stroke-width:0.75px;}.cls-12{fill:#231f20;}.cls-13{stroke:#010101;}.cls-14{clip-path:url(#clip-path-7);}.cls-15{clip-path:url(#clip-path-9);}.cls-16{clip-path:url(#clip-path-11);}.cls-17{clip-path:url(#clip-path-13);}.cls-18{clip-path:url(#clip-path-15);}.cls-19{clip-path:url(#clip-path-17);}</style><clipPath id="clip-path"><rect class="cls-1" x="154.88451" y="111.6419" width="50" height="50"/></clipPath><clipPath id="clip-path-3"><rect class="cls-1" x="33.10088" y="112.49227" width="50" height="50"/></clipPath><clipPath id="clip-path-5"><rect class="cls-1" x="93.53347" y="60.20565" width="50" height="50"/></clipPath><clipPath id="clip-path-7"><rect class="cls-1" x="363.23868" y="111.6419" width="50" height="50"/></clipPath><clipPath id="clip-path-9"><rect class="cls-1" x="241.45505" y="112.49227" width="50" height="50"/></clipPath><clipPath id="clip-path-11"><rect class="cls-1" x="301.88763" y="60.20565" width="50" height="50"/></clipPath><clipPath id="clip-path-13"><rect class="cls-1" x="571.59285" y="111.6419" width="50" height="50"/></clipPath><clipPath id="clip-path-15"><rect class="cls-1" x="449.80922" y="112.49227" width="50" height="50"/></clipPath><clipPath id="clip-path-17"><rect class="cls-1" x="510.2418" y="60.20565" width="50" height="50"/></clipPath></defs><rect class="cls-2" x="23.73083" y="33.18897" width="190.52373" height="167.07711"/><rect class="cls-3" x="92.70465" y="24.18897" width="52.5761" height="18"/><path class="cls-4" d="M106.14922,35.2896V36.689h-3.68847V29.59283h1.5498V35.2896Z"/><path class="cls-4" d="M111.16485,31.93169a1.75487,1.75487,0,0,1-.42969,1.16944,1.753,1.753,0,0,1,.42969,1.16943v.61963a2.13632,2.13632,0,0,1-4.25781-.02v-.46h1.5498V34.94c0,.30957.21973.49952.5791.49952.35059,0,.58008-.16993.58008-.4795v-.72949c0-.27-.15039-.43994-.5-.43994h-1.0293V32.41119h1.0293c.34961,0,.5-.17969.5-.43946v-.65967c0-.2998-.21973-.46972-.56933-.46972-.36036,0-.58985.18994-.58985.49951v.59961H106.907v-.52979a2.1368,2.1368,0,0,1,4.25781-.02978Z"/><path class="cls-4" d="M119.9754,36.689h-1.33008V32.12163L117.63555,36.689h-1.10937l-1.01953-4.60742V36.689h-1.31836V29.59283h1.83789l1.05078,4.0581,1.04883-4.0581h1.84961Z"/><path class="cls-4" d="M120.909,34.81988V31.462a2.38692,2.38692,0,0,1,4.7168,0v3.35791a2.38692,2.38692,0,0,1-4.7168,0Zm3.168.02V31.442c0-.35987-.24024-.59961-.79883-.59961-.58008,0-.82031.23974-.82031.59961v3.398c0,.35986.24023.59961.81054.59961C123.83672,35.43951,124.077,35.19976,124.077,34.8399Z"/><path class="cls-4" d="M131.12774,31.61187V34.67a2.05388,2.05388,0,0,1-2.26953,2.01905h-2.29883V29.59283h2.28906A2.06242,2.06242,0,0,1,131.12774,31.61187Zm-1.54883-.02a.56745.56745,0,0,0-.62012-.59961h-.8496V35.2896h.83886a.57072.57072,0,0,0,.63086-.59961Z"/><path class="cls-4" d="M133.59454,30.99224v1.54883h1.71875v1.39941h-1.71875V35.2896h2.11816V36.689h-3.668V29.59283h3.668v1.39941Z"/><line class="cls-5" x1="121.5335" y1="114.16631" x2="121.5335" y2="97.58428"/><polygon class="cls-6" points="125.623 110.853 124.891 110.171 121.534 113.782 118.177 110.171 117.445 110.853 121.534 115.251 125.623 110.853"/><line class="cls-5" x1="115.5335" y1="117.25082" x2="115.5335" y2="101.66878"/><polygon class="cls-6" points="119.623 104.982 118.891 105.664 115.534 102.053 112.177 105.664 111.445 104.982 115.534 100.584 119.623 104.982"/><line class="cls-5" x1="77.56001" y1="136.6419" x2="99.14237" y2="136.6419"/><line class="cls-5" x1="138.18133" y1="136.6419" x2="159.76369" y2="136.6419"/><g id="globe"><g class="cls-7"><g class="cls-7"><path class="cls-8" d="M173.88351,136.78715c0-.049.002-.0965.002-.1455H166.384c0,.0315-.001.0625-.001.094a28.00655,28.00655,0,0,0,1.355,8.72,45.218,45.218,0,0,1,6.6035-1.064A61.275,61.275,0,0,1,173.88351,136.78715Z"/><path class="cls-8" d="M174.34156,144.3919a45.15053,45.15053,0,0,0-6.6035,1.064c1.5695,4.771,4.384,8.48,7.82,10.1985.1545.035.309.073.465.104a19.61915,19.61915,0,0,0,2.4965.332C176.62506,154.6339,175.07456,150.2174,174.34156,144.3919Z"/><path class="cls-8" d="M185.386,128.8914a60.742,60.742,0,0,1,.4975,7.7505h7.5005a27.91667,27.91667,0,0,0-1.413-8.799A45.50289,45.50289,0,0,1,185.386,128.8914Z"/><path class="cls-8" d="M185.426,144.39165q-.86475-.07875-1.7605-.134c-1.224-.074-2.4865-.115-3.781-.115-1.9275,0-3.786.0885-5.543.249.733,5.826,2.2835,10.2425,4.178,11.699.452.0315.9055.0535,1.365.0535.454,0,.903-.022,1.348-.0545l.0175-.012C183.14351,154.61965,184.69251,150.20865,185.426,144.39165Z"/><path class="cls-8" d="M181.25021,156.0777l-.0175.0115a19.98649,19.98649,0,0,0,2.961-.445c3.4425-1.7145,6.264-5.4195,7.8365-10.193a45.30143,45.30143,0,0,0-6.604-1.0595C184.69271,150.2087,183.14321,154.6197,181.25021,156.0777Z"/><path class="cls-8" d="M185.88551,136.78715a61.14317,61.14317,0,0,1-.4595,7.6045,45.2903,45.2903,0,0,1,6.604,1.0595,27.95113,27.95113,0,0,0,1.356-8.7155c0-.0315-.002-.0625-.002-.094h-7.5005C185.88351,136.69065,185.88551,136.73815,185.88551,136.78715Z"/><path class="cls-8" d="M174.385,128.898a45.41547,45.41547,0,0,1-6.583-1.0485,27.80615,27.80615,0,0,0-1.418,8.7925h7.5015A60.48893,60.48893,0,0,1,174.385,128.898Z"/><path class="cls-8" d="M179.88451,129.1409c-1.3225,0-2.613-.0415-3.8615-.1185q-.83175-.05175-1.638-.1245a60.495,60.495,0,0,0-.4995,7.744h11.998a60.742,60.742,0,0,0-.4975-7.7505c-.351.0315-.7045.062-1.0635.0875C182.895,129.0814,181.414,129.1409,179.88451,129.1409Z"/><path class="cls-8" d="M173.88351,136.78715a61.275,61.275,0,0,0,.458,7.6045c1.757-.1605,3.615-.249,5.543-.249,1.2945,0,2.557.041,3.7805.115q.897.054,1.761.134a61.14317,61.14317,0,0,0,.4595-7.6045c0-.049-.002-.0965-.002-.1455h-11.998C173.88551,136.69065,173.88351,136.73815,173.88351,136.78715Z"/><path class="cls-8" d="M184.85961,125.6983l.0045-.0055-.0045.0055c.2045,1.001.379,2.0735.5265,3.193a45.52534,45.52534,0,0,0,6.585-1.0485,23.653,23.653,0,0,0-.8925-2.277c-1.7885-3.913-4.4925-6.8275-7.655-8.095a19.69592,19.69592,0,0,0-2.703-.31,2.74574,2.74574,0,0,1,.327.18C182.62911,118.3678,183.98861,121.4408,184.85961,125.6983Z"/><path class="cls-8" d="M174.99781,125.30865c-.2405,1.1155-.445,2.3205-.613,3.5895q.80625.072,1.6385.124c1.2485.0775,2.539.119,3.861.119,1.5295,0,3.0105-.06,4.438-.1625.359-.0255.7125-.0555,1.0635-.087-.1475-1.12-.3215-2.1925-.526-3.1935-.8715-4.2575-2.2305-7.3305-3.812-8.3575a2.713,2.713,0,0,0-.3275-.18c-.277-.012-.5555-.021-.836-.021-.2845,0-.5655.014-.847.026C177.37331,117.94615,175.93031,120.98265,174.99781,125.30865Z"/><path class="cls-8" d="M174.99781,125.30865c.9325-4.326,2.3755-7.3625,4.0395-8.143a19.5311,19.5311,0,0,0-2.6705.2935c-3.059,1.2235-5.687,3.995-7.4775,7.714a23.55855,23.55855,0,0,0-1.0875,2.6765,45.57564,45.57564,0,0,0,6.583,1.0485C174.55281,127.62915,174.75731,126.42415,174.99781,125.30865Z"/><path class="cls-8" d="M175.55786,155.6546c-3.436-1.7185-6.2505-5.4275-7.82-10.1985a24.06618,24.06618,0,0,0-3.7355,1.213c-.2295.0995-.4475.2015-.658.305A19.52814,19.52814,0,0,0,175.55786,155.6546Z"/><path class="cls-8" d="M193.384,136.6419c0,.0315.002.0625.002.0935a27.95668,27.95668,0,0,1-1.356,8.716,23.1324,23.1324,0,0,1,4.0235,1.336l.0145-.0015-.0145.0015c.1275.058.2515.1165.372.1765a19.36669,19.36669,0,0,0,2.9615-10.322Z"/><path class="cls-8" d="M192.03,145.45125c-1.5725,4.7735-4.3935,8.4785-7.8365,10.193.0425-.0095.0865-.0165.129-.0265a19.54619,19.54619,0,0,0,12.103-8.654q-.18075-.08925-.372-.1765A23.21715,23.21715,0,0,0,192.03,145.45125Z"/><path class="cls-8" d="M183.66526,117.51275c-.08-.0155-.1615-.027-.2415-.0415,3.1625,1.267,5.8665,4.1815,7.6545,8.0945l.0105-.006-.0105.006a23.57411,23.57411,0,0,1,.8925,2.277,22.17986,22.17986,0,0,0,4.4595-1.5285q-.18375-.294-.377-.58A19.51057,19.51057,0,0,0,183.66526,117.51275Z"/><path class="cls-8" d="M193.384,136.6419h6.003a19.4103,19.4103,0,0,0-2.9565-10.328,22.1782,22.1782,0,0,1-4.4595,1.529A27.93093,27.93093,0,0,1,193.384,136.6419Z"/><path class="cls-8" d="M167.802,127.84965a22.17187,22.17187,0,0,1-4.447-1.525,19.35912,19.35912,0,0,0-2.973,10.317h6.002A27.803,27.803,0,0,1,167.802,127.84965Z"/><path class="cls-8" d="M167.738,145.45585a28.00655,28.00655,0,0,1-1.355-8.72c0-.0315.001-.0625.001-.094h-6.002a19.40453,19.40453,0,0,0,2.9625,10.3325c.2105-.1035.428-.206.6575-.305A24.08871,24.08871,0,0,1,167.738,145.45585Z"/><path class="cls-8" d="M168.88941,125.1729c1.7905-3.719,4.4185-6.49,7.4775-7.7135a19.51028,19.51028,0,0,0-12.3645,7.891c-.226.3175-.44.6435-.647.9745a22.22924,22.22924,0,0,0,4.4465,1.525A23.56674,23.56674,0,0,1,168.88941,125.1729Z"/></g></g></g><path d="M94.72442,57.96783a3.663,3.663,0,0,1,3.74121-3.7959,3.30162,3.30162,0,0,1,2.81641,1.45215l-.77051.42871a2.49017,2.49017,0,0,0-2.0459-1.06641,2.98767,2.98767,0,0,0,0,5.96289,2.46373,2.46373,0,0,0,2.0459-1.06738l.78027.42871a3.33522,3.33522,0,0,1-2.82617,1.45215A3.66278,3.66278,0,0,1,94.72442,57.96783Z"/><path d="M102.17169,54.86529a.55568.55568,0,0,1,1.11132,0,.55568.55568,0,1,1-1.11132,0Zm.14355,1.45215h.82422v5.31347h-.82422Z"/><path d="M104.64629,60.33306a2.4118,2.4118,0,0,0,1.749.75879c.81445,0,1.2539-.36328,1.2539-.87988,0-.583-.64843-.77051-1.36328-.94629-.90234-.209-1.92578-.45117-1.92578-1.55176,0-.82422.71485-1.52832,1.98047-1.52832a2.68778,2.68778,0,0,1,1.96875.76953l-.38477.57227a2.07,2.07,0,0,0-1.584-.6709c-.72656,0-1.17773.33008-1.17773.80273,0,.51758.60546.68262,1.29882.84766.92383.209,1.99122.47265,1.99122,1.64941,0,.8916-.71485,1.60645-2.09083,1.60645a2.8239,2.8239,0,0,1-2.14453-.83594Z"/><path d="M112.02813,56.1856a2.27561,2.27561,0,0,1,1.94727.92383l-.55079.50586a1.57429,1.57429,0,0,0-1.35351-.69336,2.06432,2.06432,0,0,0,0,4.10351,1.60164,1.60164,0,0,0,1.35351-.69238l.55079.50586a2.27561,2.27561,0,0,1-1.94727.92383,2.79207,2.79207,0,0,1,0-5.57715Z"/><path d="M114.71172,58.9688a2.63378,2.63378,0,1,1,2.62891,2.79395A2.60656,2.60656,0,0,1,114.71172,58.9688Zm4.38868,0a1.78622,1.78622,0,1,0-1.75977,2.05664A1.84743,1.84743,0,0,0,119.1004,58.9688Z"/><path d="M123.96172,54.293h4.8086v.81348h-3.89453v2.36621h3.8164v.81348h-3.8164v3.34472h-.91407Z"/><path d="M131.71758,55.1065h-2.32226V54.293h5.56738v.81348h-2.333v6.52441h-.91211Z"/><path d="M136.06133,54.293h2.50977a3.67009,3.67009,0,1,1,0,7.33789h-2.50977Zm2.50977,6.52344a2.85524,2.85524,0,0,0,0-5.71h-1.5957v5.71Z"/><path d="M41.30352,158.00884h.91406v7.33789h-.91406Z"/><path d="M47.37676,161.87017c0-.93555-.47363-1.23242-1.18847-1.23242a2.05112,2.05112,0,0,0-1.57227.82519v3.88379h-.82617v-5.31347H44.616v.76953a2.63424,2.63424,0,0,1,1.8916-.90137,1.50988,1.50988,0,0,1,1.69434,1.71582v3.72949h-.8252Z"/><path d="M49.90606,164.2354v-3.47656h-.87988v-.72558h.87988v-1.45215h.8252v1.45215h1.07812v.72558H50.73126v3.30078c0,.39551.17578.68164.53906.68164a.79415.79415,0,0,0,.56054-.21972l.24219.61621a1.3474,1.3474,0,0,1-.99023.34082A1.08682,1.08682,0,0,1,49.90606,164.2354Z"/><path d="M55.17461,159.90142A2.58,2.58,0,0,1,57.72735,162.75v.209H53.42657a1.87159,1.87159,0,0,0,1.91406,1.83789,2.32183,2.32183,0,0,0,1.63867-.6709l.39649.53906a2.88942,2.88942,0,0,1-2.11231.81348,2.792,2.792,0,0,1-.08887-5.57715Zm-1.748,2.45312H56.9129a1.72159,1.72159,0,0,0-1.748-1.77148A1.77166,1.77166,0,0,0,53.42657,162.35454Z"/><path d="M58.94805,160.03326h.8252v.85742a2.25857,2.25857,0,0,1,1.77051-.96778v.84668a1.48142,1.48142,0,0,0-.33008-.03222,1.94187,1.94187,0,0,0-1.44043.84668v3.76269h-.8252Z"/><path d="M66.0545,161.87017c0-.93555-.47364-1.23242-1.18848-1.23242a2.05108,2.05108,0,0,0-1.57226.82519v3.88379h-.82618v-5.31347h.82618v.76953a2.63421,2.63421,0,0,1,1.8916-.90137,1.50987,1.50987,0,0,1,1.69433,1.71582v3.72949H66.0545Z"/><path d="M71.741,164.74126a2.296,2.296,0,0,1-1.75976.73731,1.769,1.769,0,0,1-1.85938-1.75977,1.74068,1.74068,0,0,1,1.85938-1.75,2.2211,2.2211,0,0,1,1.75976.72656v-.957c0-.71484-.57226-1.12207-1.3418-1.12207a2.10966,2.10966,0,0,0-1.6289.73731l-.38477-.57227a2.77887,2.77887,0,0,1,2.12305-.87988c1.123,0,2.05762.50586,2.05762,1.793v3.65234H71.741Zm0-1.51757a1.77706,1.77706,0,0,0-1.46289-.66016,1.16911,1.16911,0,1,0,0,2.32129,1.77706,1.77706,0,0,0,1.46289-.66016Z"/><path d="M74.10626,158.00884h.82421v7.33789h-.82421Z"/><path d="M45.00079,172.68365a3.66224,3.66224,0,0,1,3.74023-3.7959,3.299,3.299,0,0,1,2.81641,1.45215l-.76953.42871A2.492,2.492,0,0,0,48.741,169.7022a2.98767,2.98767,0,0,0,0,5.96289,2.46553,2.46553,0,0,0,2.04688-1.06738l.78027.42871a3.337,3.337,0,0,1-2.82715,1.45215A3.662,3.662,0,0,1,45.00079,172.68365Z"/><path d="M52.59063,169.00884h.8252v7.33789h-.8252Z"/><path d="M54.81231,169.58111a.55569.55569,0,0,1,1.11133,0,.55569.55569,0,1,1-1.11133,0Zm.14355,1.45215h.82422v5.31347h-.82422Z"/><path d="M59.63067,170.90142A2.58051,2.58051,0,0,1,62.1834,173.75v.209H57.88165a1.8722,1.8722,0,0,0,1.91406,1.83789,2.32584,2.32584,0,0,0,1.63965-.6709l.3955.53906a2.88548,2.88548,0,0,1-2.11132.81348,2.79193,2.79193,0,0,1-.08887-5.57715Zm-1.749,2.45312H61.369a1.72243,1.72243,0,0,0-1.749-1.77148A1.773,1.773,0,0,0,57.88165,173.35454Z"/><path d="M66.99,172.87017c0-.93555-.47363-1.23242-1.18847-1.23242a2.05112,2.05112,0,0,0-1.57227.82519v3.88379h-.82617v-5.31347h.82617v.76953a2.63424,2.63424,0,0,1,1.8916-.90137,1.50988,1.50988,0,0,1,1.69434,1.71582v3.72949H66.99Z"/><path d="M69.52032,175.2354v-3.47656h-.88086v-.72558h.88086v-1.45215h.82422v1.45215h1.07812v.72558H70.34454v3.30078c0,.39551.17578.68164.53906.68164a.79668.79668,0,0,0,.56152-.21972l.24121.61621a1.34647,1.34647,0,0,1-.98925.34082A1.08682,1.08682,0,0,1,69.52032,175.2354Z"/><g id="laptop"><g class="cls-9"><line class="cls-8" x1="55.38604" y1="148.44007" x2="60.85153" y2="148.44007"/><g class="cls-9"><path class="cls-8" d="M78.60088,148.39077a2.47811,2.47811,0,0,1-1.3605,2.0955l-38.089.006-.167-.0115a2.40211,2.40211,0,0,1-1.3835-2.0625,2.34233,2.34233,0,0,1,1.3835-2.0365h38.256v-21.8895h-38.256v19.1535"/></g></g></g><g id="firewall-with-shield-and-checkmark"><g class="cls-10"><line class="cls-8" x1="105.09207" y1="69.46785" x2="138.53357" y2="69.45635"/><line class="cls-8" x1="105.11307" y1="76.46785" x2="138.53357" y2="76.46785"/><line class="cls-8" x1="117.45487" y1="83.46835" x2="138.53337" y2="83.46835"/><line class="cls-8" x1="117.04862" y1="90.46885" x2="138.53362" y2="90.46885"/><line class="cls-8" x1="114.86207" y1="69.46785" x2="114.86207" y2="76.26785"/><line class="cls-8" x1="128.78642" y1="69.46785" x2="128.78642" y2="76.26785"/><line class="cls-8" x1="128.78642" y1="83.46835" x2="128.78642" y2="90.46885"/><line class="cls-8" x1="135.74882" y1="76.46785" x2="135.74882" y2="83.46835"/><line class="cls-8" x1="107.89967" y1="76.46785" x2="107.89967" y2="78.64035"/><line class="cls-8" x1="121.82352" y1="76.46785" x2="121.82352" y2="83.46835"/><line class="cls-8" x1="114.14772" y1="97.46885" x2="138.53322" y2="97.46885"/><line class="cls-8" x1="135.74882" y1="90.66905" x2="135.74882" y2="97.46905"/><line class="cls-8" x1="121.82352" y1="90.66905" x2="121.82352" y2="97.46905"/><g class="cls-10"><path class="cls-8" d="M113.48512,81.2872q-.58275.0285-1.162.05l-.0015-.0045-2.778-2.148a2.3453,2.3453,0,0,0-2.949-.045l-2.992,2.1975c-.3855-.0145-.7735-.031-1.1615-.05-2.1955-.11-3.9075-.737-3.9075,2.2915,0,3.029.407,7.94.407,7.94s-.2445,3.683,3.989,6.7935c3.641,2.6755,5.0195,3.644,5.0195,3.644s1.4065-.9685,5.0475-3.644c4.233-3.1105,3.989-6.7935,3.989-6.7935s.407-4.911.407-7.94c0-3.0285-1.712-2.4015-3.9075-2.2915"/><path class="cls-11" d="M110.11257,84.01325a5.84725,5.84725,0,1,0,1.5615.9405h.001l-4.583,6.9775-2.467-3.295"/></g></g></g><path class="cls-12" d="M102.72637,163.43853H107.534v.81348h-3.89453v2.36621h3.81836v.81347h-3.81836v3.34473h-.91309Z"/><path class="cls-12" d="M109.09551,169.126a2.41559,2.41559,0,0,0,2.02442.96875,1.58456,1.58456,0,0,0,1.69433-1.57324,1.54683,1.54683,0,0,0-1.68359-1.585,2.30065,2.30065,0,0,0-1.69434.69336l-.67089-.23145v-3.96h4.48925v.81348h-3.57617v2.55273a2.48405,2.48405,0,0,1,1.7168-.66016,2.248,2.248,0,0,1,2.332,2.34375,2.40241,2.40241,0,0,1-2.60742,2.41993,2.99924,2.99924,0,0,1-2.58594-1.17676Z"/><path class="cls-12" d="M117.87286,169.04888a3.10313,3.10313,0,0,0,2.31054,1.0459c1.30957,0,1.72754-.7041,1.72754-1.26563,0-.87988-.8916-1.12207-1.85937-1.38574-1.17774-.30859-2.48633-.63867-2.48633-2.08008,0-1.21,1.07812-2.03515,2.51953-2.03515a3.45253,3.45253,0,0,1,2.60742,1.02343l-.55078.6709a2.806,2.806,0,0,0-2.123-.87988c-.88085,0-1.50781.47266-1.50781,1.166,0,.7373.84766.957,1.78321,1.21,1.19921.31933,2.5625.69336,2.5625,2.2334,0,1.06738-.72559,2.15625-2.70606,2.15625a3.634,3.634,0,0,1-2.81641-1.166Z"/><path class="cls-12" d="M124.20879,169.04888a3.10317,3.10317,0,0,0,2.31055,1.0459c1.30957,0,1.72754-.7041,1.72754-1.26563,0-.87988-.8916-1.12207-1.85937-1.38574-1.17774-.30859-2.48633-.63867-2.48633-2.08008,0-1.21,1.07812-2.03515,2.51953-2.03515a3.45254,3.45254,0,0,1,2.60742,1.02343l-.55078.6709a2.806,2.806,0,0,0-2.12305-.87988c-.88086,0-1.50781.47266-1.50781,1.166,0,.7373.84766.957,1.7832,1.21,1.19922.31933,2.5625.69336,2.5625,2.2334,0,1.06738-.72558,2.15625-2.70605,2.15625a3.634,3.634,0,0,1-2.81641-1.166Z"/><path class="cls-12" d="M130.4461,163.43853h.91309V169.962h3.41015v.81445H130.4461Z"/><path class="cls-12" d="M92.99883,174.31744c4.77859-.17039,4.77958,7.76134-.00023,7.59079C88.21322,182.08073,88.21411,174.14436,92.99883,174.31744Zm0,.81445c-3.55235-.15573-3.55457,6.111.00015,5.96287C96.54945,181.24,96.5473,174.97854,92.99883,175.13189Z"/><path class="cls-12" d="M97.92657,176.46294h.82422v.85742a2.26039,2.26039,0,0,1,1.77148-.96777v.84668a1.48741,1.48741,0,0,0-.33008-.03223,1.94545,1.94545,0,0,0-1.4414.84668v3.7627h-.82422Z"/><path class="cls-12" d="M103.78887,176.33111a2.27428,2.27428,0,0,1,1.94727.92383l-.54981.50585a1.57546,1.57546,0,0,0-1.35351-.69335,2.0642,2.0642,0,0,0,0,4.10351,1.60288,1.60288,0,0,0,1.35351-.69238l.54981.50586a2.27431,2.27431,0,0,1-1.94727.92383,2.79213,2.79213,0,0,1,0-5.57715Z"/><path class="cls-12" d="M110.37774,178.27837c0-.93554-.48438-1.21093-1.19922-1.21093a2.08722,2.08722,0,0,0-1.57226.82519v3.88379h-.82618v-7.33789h.82618v2.79394a2.639,2.639,0,0,1,1.90234-.90136,1.49426,1.49426,0,0,1,1.69434,1.69336v3.75195h-.8252Z"/><path class="cls-12" d="M115.05254,176.33111a2.58051,2.58051,0,0,1,2.55274,2.84863v.209h-4.30176a1.8722,1.8722,0,0,0,1.91406,1.83789,2.32581,2.32581,0,0,0,1.63965-.67089l.39551.53906a2.88554,2.88554,0,0,1-2.11133.81348,2.79193,2.79193,0,0,1-.08887-5.57715Zm-1.749,2.45312h3.48731a1.72245,1.72245,0,0,0-1.749-1.77148A1.773,1.773,0,0,0,113.30352,178.78423Z"/><path class="cls-12" d="M118.7918,180.47857a2.41236,2.41236,0,0,0,1.75.75879c.81446,0,1.25391-.36328,1.25391-.87989,0-.583-.64844-.7705-1.36426-.94628-.90137-.209-1.9248-.45118-1.9248-1.55176,0-.82422.71484-1.52832,1.98046-1.52832a2.68945,2.68945,0,0,1,1.96875.76953l-.38476.57226a2.0716,2.0716,0,0,0-1.584-.67089c-.72656,0-1.17773.33007-1.17773.80273,0,.51758.60547.68262,1.29883.84766.92383.209,1.99023.47265,1.99023,1.64941,0,.8916-.71484,1.60645-2.08984,1.60645a2.82392,2.82392,0,0,1-2.14453-.83594Z"/><path class="cls-12" d="M123.99493,180.66509v-3.47656h-.88086v-.72559h.88086v-1.45215h.82519v1.45215h1.07813v.72559h-1.07813v3.30078c0,.39551.17578.68164.53907.68164a.79847.79847,0,0,0,.56152-.21973l.24121.61622a1.34648,1.34648,0,0,1-.98926.34082A1.0875,1.0875,0,0,1,123.99493,180.66509Z"/><path class="cls-12" d="M126.95391,176.46294h.8252v.85742a2.25858,2.25858,0,0,1,1.7705-.96777v.84668a1.48121,1.48121,0,0,0-.33007-.03223,1.94187,1.94187,0,0,0-1.44043.84668v3.7627h-.8252Z"/><path class="cls-12" d="M133.79571,181.171a2.296,2.296,0,0,1-1.75977.73731,1.769,1.769,0,0,1-1.85937-1.75977,1.74067,1.74067,0,0,1,1.85937-1.75,2.2184,2.2184,0,0,1,1.75977.72656v-.957c0-.71484-.57129-1.12207-1.3418-1.12207a2.10914,2.10914,0,0,0-1.62793.73731l-.38574-.57227a2.78093,2.78093,0,0,1,2.124-.87988c1.12207,0,2.05762.50586,2.05762,1.793v3.65234h-.82617Zm0-1.51758a1.77578,1.77578,0,0,0-1.46289-.66015,1.169,1.169,0,1,0,0,2.32129,1.77579,1.77579,0,0,0,1.46289-.66016Z"/><path class="cls-12" d="M136.325,180.66509v-3.47656h-.87989v-.72559h.87989v-1.45215h.82617v1.45215h1.07812v.72559h-1.07812v3.30078c0,.39551.17578.68164.53906.68164a.796.796,0,0,0,.56055-.21973l.24218.61622a1.3474,1.3474,0,0,1-.99023.34082A1.0875,1.0875,0,0,1,136.325,180.66509Z"/><path class="cls-12" d="M138.97637,179.11431a2.63424,2.63424,0,1,1,2.62989,2.794A2.60733,2.60733,0,0,1,138.97637,179.11431Zm4.38965,0a1.78622,1.78622,0,1,0-1.75976,2.05664A1.84743,1.84743,0,0,0,143.366,179.11431Z"/><path class="cls-12" d="M145.46661,176.46294h.82519v.85742a2.25891,2.25891,0,0,1,1.77149-.96777v.84668a1.49367,1.49367,0,0,0-.33008-.03223,1.94549,1.94549,0,0,0-1.44141.84668v3.7627h-.82519Z"/><circle class="cls-13" cx="118.53347" cy="136.6419" r="19.3911"/><path class="cls-3" d="M107.85723,138.19927a2.79864,2.79864,0,0,0,2.08887.93555c1.07422,0,1.45312-.54785,1.45312-1.02539,0-.69629-.75683-.89551-1.60253-1.11426-1.06446-.27832-2.29786-.58691-2.29786-1.93945,0-1.09473.96485-1.89063,2.34766-1.89063a3.25042,3.25042,0,0,1,2.418.92578l-.57715.73535a2.5879,2.5879,0,0,0-1.91992-.77539c-.73633,0-1.24414.37793-1.24414.93457,0,.59766.71679.78614,1.542.99512,1.085.28906,2.34863.62695,2.34863,2.04,0,1.03418-.71679,1.999-2.50683,1.999a3.396,3.396,0,0,1-2.61719-1.05468Z"/><path class="cls-3" d="M113.4754,138.19927a2.79862,2.79862,0,0,0,2.08886.93555c1.0752,0,1.45313-.54785,1.45313-1.02539,0-.69629-.75684-.89551-1.60254-1.11426-1.06445-.27832-2.29785-.58691-2.29785-1.93945,0-1.09473.96484-1.89063,2.34765-1.89063a3.2504,3.2504,0,0,1,2.418.92578l-.57715.73535a2.58939,2.58939,0,0,0-1.91992-.77539c-.73633,0-1.24414.37793-1.24414.93457,0,.59766.7168.78614,1.543.99512,1.084.28906,2.34766.62695,2.34766,2.04,0,1.03418-.7168,1.999-2.50782,1.999a3.39523,3.39523,0,0,1-2.61621-1.05468Z"/><path class="cls-3" d="M118.93536,133.2647h.99511v5.75977h3.01368v.876h-4.00879Z"/><path class="cls-3" d="M126.534,133.15533c4.38487-.16043,4.38587,7.02481-.00022,6.86423C122.14785,140.18,122.14874,132.99433,126.534,133.15533Zm0,.88574c-3.05642-.13057-3.05847,5.2173.00013,5.09374C129.58446,139.25372,129.58248,133.91474,126.534,134.04107Z"/><rect class="cls-2" x="232.085" y="33.18897" width="190.52373" height="167.07711"/><rect class="cls-3" x="301.05881" y="24.18897" width="52.5761" height="18"/><path class="cls-4" d="M314.5711,35.2896V36.689h-3.6875V29.59283h1.54883V35.2896Z"/><path class="cls-4" d="M316.99493,35.2896h2.52734V36.689H315.325v-.77979c0-2.06885,2.71875-3.03808,2.71875-4.37744v-.19971a.48492.48492,0,0,0-.54981-.48974c-.3291,0-.55957.25-.55957.6997v.3794h-1.54883v-.30957a2.05757,2.05757,0,0,1,2.1084-2.16895,1.95555,1.95555,0,0,1,2.09863,1.9292v.24951C319.59258,33.61089,317.18438,34.30035,316.99493,35.2896Z"/><path class="cls-4" d="M328.26251,36.689h-1.33008V32.12163L325.92364,36.689h-1.10938l-1.01953-4.60742V36.689H322.4754V29.59283h1.83886l1.04981,4.0581,1.04883-4.0581h1.84961Z"/><path class="cls-4" d="M329.1961,34.81988V31.462a2.38748,2.38748,0,0,1,4.71777,0v3.35791a2.38748,2.38748,0,0,1-4.71777,0Zm3.16894.02V31.442c0-.35987-.24023-.59961-.7998-.59961-.58008,0-.81934.23974-.81934.59961v3.398c0,.35986.23926.59961.80957.59961C332.12481,35.43951,332.365,35.19976,332.365,34.8399Z"/><path class="cls-4" d="M339.41485,31.61187V34.67a2.05356,2.05356,0,0,1-2.26856,2.01905h-2.29882V29.59283h2.28906A2.06209,2.06209,0,0,1,339.41485,31.61187Zm-1.54883-.02a.56716.56716,0,0,0-.61914-.59961h-.84961V35.2896h.83887A.57041.57041,0,0,0,337.866,34.69Z"/><path class="cls-4" d="M341.88165,30.99224v1.54883h1.71875v1.39941h-1.71875V35.2896h2.11816V36.689h-3.668V29.59283h3.668v1.39941Z"/><line class="cls-5" x1="326.88775" y1="114.16631" x2="326.88775" y2="101.66878"/><polygon class="cls-6" points="330.978 110.853 330.245 110.171 326.889 113.782 323.531 110.171 322.799 110.853 326.889 115.251 330.978 110.853"/><polygon class="cls-6" points="330.978 104.982 330.245 105.664 326.889 102.053 323.531 105.664 322.799 104.982 326.889 100.584 330.978 104.982"/><line class="cls-5" x1="285.91418" y1="136.6419" x2="307.49654" y2="136.6419"/><line class="cls-5" x1="346.53549" y1="136.6419" x2="368.11786" y2="136.6419"/><g id="globe-2" data-name="globe"><g class="cls-14"><g class="cls-14"><path class="cls-8" d="M382.23768,136.78715c0-.049.002-.0965.002-.1455h-7.5015c0,.0315-.001.0625-.001.094a28.00655,28.00655,0,0,0,1.355,8.72,45.218,45.218,0,0,1,6.6035-1.064A61.275,61.275,0,0,1,382.23768,136.78715Z"/><path class="cls-8" d="M382.69573,144.3919a45.15053,45.15053,0,0,0-6.6035,1.064c1.5695,4.771,4.384,8.48,7.82,10.1985.1545.035.309.073.465.104a19.61915,19.61915,0,0,0,2.4965.332C384.97923,154.6339,383.42873,150.2174,382.69573,144.3919Z"/><path class="cls-8" d="M393.74013,128.8914a60.742,60.742,0,0,1,.4975,7.7505h7.5005a27.91667,27.91667,0,0,0-1.413-8.799A45.50289,45.50289,0,0,1,393.74013,128.8914Z"/><path class="cls-8" d="M393.78018,144.39165q-.86475-.07875-1.7605-.134c-1.224-.074-2.4865-.115-3.781-.115-1.9275,0-3.786.0885-5.543.249.733,5.826,2.2835,10.2425,4.178,11.699.452.0315.9055.0535,1.365.0535.454,0,.903-.022,1.348-.0545l.0175-.012C391.49768,154.61965,393.04668,150.20865,393.78018,144.39165Z"/><path class="cls-8" d="M389.60438,156.0777l-.0175.0115a19.98649,19.98649,0,0,0,2.961-.445c3.4425-1.7145,6.264-5.4195,7.8365-10.193a45.30143,45.30143,0,0,0-6.604-1.0595C393.04688,150.2087,391.49738,154.6197,389.60438,156.0777Z"/><path class="cls-8" d="M394.23968,136.78715a61.14317,61.14317,0,0,1-.4595,7.6045,45.2903,45.2903,0,0,1,6.604,1.0595,27.95113,27.95113,0,0,0,1.356-8.7155c0-.0315-.002-.0625-.002-.094h-7.5005C394.23768,136.69065,394.23968,136.73815,394.23968,136.78715Z"/><path class="cls-8" d="M382.73918,128.898a45.41547,45.41547,0,0,1-6.583-1.0485,27.80615,27.80615,0,0,0-1.418,8.7925h7.5015A60.48893,60.48893,0,0,1,382.73918,128.898Z"/><path class="cls-8" d="M388.23868,129.1409c-1.3225,0-2.613-.0415-3.8615-.1185q-.83175-.05175-1.638-.1245a60.495,60.495,0,0,0-.4995,7.744h11.998a60.742,60.742,0,0,0-.4975-7.7505c-.351.0315-.7045.062-1.0635.0875C391.24918,129.0814,389.76818,129.1409,388.23868,129.1409Z"/><path class="cls-8" d="M382.23768,136.78715a61.275,61.275,0,0,0,.458,7.6045c1.757-.1605,3.615-.249,5.543-.249,1.2945,0,2.557.041,3.7805.115q.897.054,1.761.134a61.14317,61.14317,0,0,0,.4595-7.6045c0-.049-.002-.0965-.002-.1455h-11.998C382.23968,136.69065,382.23768,136.73815,382.23768,136.78715Z"/><path class="cls-8" d="M393.21378,125.6983l.0045-.0055-.0045.0055c.2045,1.001.379,2.0735.5265,3.193a45.52534,45.52534,0,0,0,6.585-1.0485,23.653,23.653,0,0,0-.8925-2.277c-1.7885-3.913-4.4925-6.8275-7.655-8.095a19.69592,19.69592,0,0,0-2.703-.31,2.74574,2.74574,0,0,1,.327.18C390.98328,118.3678,392.34278,121.4408,393.21378,125.6983Z"/><path class="cls-8" d="M383.352,125.30865c-.2405,1.1155-.445,2.3205-.613,3.5895q.80625.072,1.6385.124c1.2485.0775,2.539.119,3.861.119,1.5295,0,3.0105-.06,4.438-.1625.359-.0255.7125-.0555,1.0635-.087-.1475-1.12-.3215-2.1925-.526-3.1935-.8715-4.2575-2.2305-7.3305-3.812-8.3575a2.713,2.713,0,0,0-.3275-.18c-.277-.012-.5555-.021-.836-.021-.2845,0-.5655.014-.847.026C385.72748,117.94615,384.28448,120.98265,383.352,125.30865Z"/><path class="cls-8" d="M383.352,125.30865c.9325-4.326,2.3755-7.3625,4.0395-8.143a19.5311,19.5311,0,0,0-2.6705.2935c-3.059,1.2235-5.687,3.995-7.4775,7.714a23.55855,23.55855,0,0,0-1.0875,2.6765,45.57564,45.57564,0,0,0,6.583,1.0485C382.907,127.62915,383.11148,126.42415,383.352,125.30865Z"/><path class="cls-8" d="M383.912,155.6546c-3.436-1.7185-6.2505-5.4275-7.82-10.1985a24.06618,24.06618,0,0,0-3.7355,1.213c-.2295.0995-.4475.2015-.658.305A19.52814,19.52814,0,0,0,383.912,155.6546Z"/><path class="cls-8" d="M401.73818,136.6419c0,.0315.002.0625.002.0935a27.95668,27.95668,0,0,1-1.356,8.716,23.1324,23.1324,0,0,1,4.0235,1.336l.0145-.0015-.0145.0015c.1275.058.2515.1165.372.1765a19.36669,19.36669,0,0,0,2.9615-10.322Z"/><path class="cls-8" d="M400.38418,145.45125c-1.5725,4.7735-4.3935,8.4785-7.8365,10.193.0425-.0095.0865-.0165.129-.0265a19.54619,19.54619,0,0,0,12.103-8.654q-.18075-.08925-.372-.1765A23.21715,23.21715,0,0,0,400.38418,145.45125Z"/><path class="cls-8" d="M392.01943,117.51275c-.08-.0155-.1615-.027-.2415-.0415,3.1625,1.267,5.8665,4.1815,7.6545,8.0945l.0105-.006-.0105.006a23.57411,23.57411,0,0,1,.8925,2.277,22.17986,22.17986,0,0,0,4.4595-1.5285q-.18375-.294-.377-.58A19.51057,19.51057,0,0,0,392.01943,117.51275Z"/><path class="cls-8" d="M401.73818,136.6419h6.003a19.4103,19.4103,0,0,0-2.9565-10.328,22.1782,22.1782,0,0,1-4.4595,1.529A27.93093,27.93093,0,0,1,401.73818,136.6419Z"/><path class="cls-8" d="M376.15618,127.84965a22.17187,22.17187,0,0,1-4.447-1.525,19.35912,19.35912,0,0,0-2.973,10.317h6.002A27.803,27.803,0,0,1,376.15618,127.84965Z"/><path class="cls-8" d="M376.09218,145.45585a28.00655,28.00655,0,0,1-1.355-8.72c0-.0315.001-.0625.001-.094h-6.002a19.40453,19.40453,0,0,0,2.9625,10.3325c.2105-.1035.428-.206.6575-.305A24.08871,24.08871,0,0,1,376.09218,145.45585Z"/><path class="cls-8" d="M377.24358,125.1729c1.7905-3.719,4.4185-6.49,7.4775-7.7135a19.51028,19.51028,0,0,0-12.3645,7.891c-.226.3175-.44.6435-.647.9745a22.22924,22.22924,0,0,0,4.4465,1.525A23.56674,23.56674,0,0,1,377.24358,125.1729Z"/></g></g></g><path d="M303.07891,57.96783a3.66225,3.66225,0,0,1,3.74024-3.7959,3.299,3.299,0,0,1,2.8164,1.45215l-.76953.42871a2.492,2.492,0,0,0-2.04687-1.06641,2.98767,2.98767,0,0,0,0,5.96289,2.4655,2.4655,0,0,0,2.04687-1.06738l.78027.42871a3.337,3.337,0,0,1-2.82714,1.45215A3.662,3.662,0,0,1,303.07891,57.96783Z"/><path d="M310.52618,54.86529a.55569.55569,0,0,1,1.11133,0,.55569.55569,0,1,1-1.11133,0Zm.14258,1.45215h.82519v5.31347h-.82519Z"/><path d="M313.00079,60.33306a2.41,2.41,0,0,0,1.749.75879c.81348,0,1.25391-.36328,1.25391-.87988,0-.583-.64942-.77051-1.36426-.94629-.90235-.209-1.92578-.45117-1.92578-1.55176,0-.82422.71582-1.52832,1.98047-1.52832a2.6902,2.6902,0,0,1,1.96972.76953l-.38476.57227a2.07224,2.07224,0,0,0-1.585-.6709c-.72559,0-1.17676.33008-1.17676.80273,0,.51758.60449.68262,1.29785.84766.9248.209,1.99219.47265,1.99219,1.64941,0,.8916-.71485,1.60645-2.09082,1.60645a2.82608,2.82608,0,0,1-2.14551-.83594Z"/><path d="M320.38165,56.1856a2.273,2.273,0,0,1,1.94726.92383l-.55078.50586a1.57379,1.57379,0,0,0-1.35254-.69336,2.06432,2.06432,0,0,0,0,4.10351,1.60116,1.60116,0,0,0,1.35254-.69238l.55078.50586a2.273,2.273,0,0,1-1.94726.92383,2.79212,2.79212,0,0,1,0-5.57715Z"/><path d="M323.06524,58.9688a2.63424,2.63424,0,1,1,2.62891,2.79395A2.60656,2.60656,0,0,1,323.06524,58.9688Zm4.38965,0a1.78664,1.78664,0,1,0-1.76074,2.05664A1.84756,1.84756,0,0,0,327.45489,58.9688Z"/><path d="M332.31524,54.293h4.80859v.81348H333.2293v2.36621h3.81739v.81348H333.2293v3.34472h-.91406Z"/><path d="M340.0711,55.1065h-2.32129V54.293h5.56738v.81348h-2.333v6.52441h-.91309Z"/><path d="M344.41583,54.293h2.50878a3.67009,3.67009,0,1,1,0,7.33789h-2.50878Zm2.50878,6.52344a2.85524,2.85524,0,0,0,0-5.71h-1.5957v5.71Z"/><path d="M249.658,158.00884h.91309v7.33789H249.658Z"/><path d="M255.73126,161.87017c0-.93555-.47364-1.23242-1.18848-1.23242a2.05307,2.05307,0,0,0-1.57324.82519v3.88379h-.8252v-5.31347h.8252v.76953a2.63651,2.63651,0,0,1,1.89257-.90137,1.50919,1.50919,0,0,1,1.69336,1.71582v3.72949h-.82421Z"/><path d="M258.26055,164.2354v-3.47656h-.88086v-.72558h.88086v-1.45215h.82422v1.45215h1.07813v.72558h-1.07813v3.30078c0,.39551.17578.68164.53906.68164a.79669.79669,0,0,0,.56153-.21972l.24121.61621a1.3465,1.3465,0,0,1-.98926.34082A1.08682,1.08682,0,0,1,258.26055,164.2354Z"/><path d="M263.52911,159.90142a2.58051,2.58051,0,0,1,2.55273,2.84863v.209h-4.30176a1.87221,1.87221,0,0,0,1.91407,1.83789,2.32582,2.32582,0,0,0,1.63964-.6709l.39551.53906a2.8855,2.8855,0,0,1-2.11133.81348,2.79193,2.79193,0,0,1-.08886-5.57715Zm-1.749,2.45312h3.48731a1.72243,1.72243,0,0,0-1.749-1.77148A1.773,1.773,0,0,0,261.78008,162.35454Z"/><path d="M267.30157,160.03326h.82617v.85742a2.25708,2.25708,0,0,1,1.77051-.96778v.84668a1.48752,1.48752,0,0,0-.33008-.03222,1.94187,1.94187,0,0,0-1.44043.84668v3.76269h-.82617Z"/><path d="M274.409,161.87017c0-.93555-.47363-1.23242-1.18848-1.23242a2.05309,2.05309,0,0,0-1.57324.82519v3.88379h-.82519v-5.31347h.82519v.76953a2.63651,2.63651,0,0,1,1.89258-.90137,1.50919,1.50919,0,0,1,1.69336,1.71582v3.72949H274.409Z"/><path d="M280.09454,164.74126a2.296,2.296,0,0,1-1.75977.73731,1.769,1.769,0,0,1-1.85937-1.75977,1.74067,1.74067,0,0,1,1.85937-1.75,2.21842,2.21842,0,0,1,1.75977.72656v-.957c0-.71484-.57129-1.12207-1.3418-1.12207a2.10912,2.10912,0,0,0-1.62793.73731l-.38574-.57227a2.781,2.781,0,0,1,2.124-.87988c1.12207,0,2.05762.50586,2.05762,1.793v3.65234h-.82617Zm0-1.51757a1.77579,1.77579,0,0,0-1.46289-.66016,1.169,1.169,0,1,0,0,2.32129,1.77579,1.77579,0,0,0,1.46289-.66016Z"/><path d="M282.45977,158.00884h.8252v7.33789h-.8252Z"/><path d="M253.3543,172.68365a3.66281,3.66281,0,0,1,3.74024-3.7959,3.29648,3.29648,0,0,1,2.8164,1.45215l-.76953.42871a2.49061,2.49061,0,0,0-2.04687-1.06641,2.98774,2.98774,0,0,0,0,5.96289,2.46418,2.46418,0,0,0,2.04687-1.06738l.78125.42871a3.33754,3.33754,0,0,1-2.82812,1.45215A3.66257,3.66257,0,0,1,253.3543,172.68365Z"/><path d="M260.94415,169.00884h.82617v7.33789h-.82617Z"/><path d="M263.1668,169.58111a.55569.55569,0,0,1,1.11133,0,.55569.55569,0,1,1-1.11133,0Zm.14258,1.45215h.8252v5.31347h-.8252Z"/><path d="M267.98516,170.90142A2.58106,2.58106,0,0,1,270.5379,173.75v.209h-4.30274a1.87283,1.87283,0,0,0,1.91406,1.83789,2.32814,2.32814,0,0,0,1.64063-.6709l.39551.53906a2.88942,2.88942,0,0,1-2.11231.81348,2.79189,2.79189,0,0,1-.08789-5.57715Zm-1.75,2.45312h3.48828a1.72329,1.72329,0,0,0-1.75-1.77148A1.7737,1.7737,0,0,0,266.23516,173.35454Z"/><path d="M275.34454,172.87017c0-.93555-.47364-1.23242-1.18848-1.23242a2.05309,2.05309,0,0,0-1.57324.82519v3.88379h-.8252v-5.31347h.8252v.76953a2.63651,2.63651,0,0,1,1.89258-.90137,1.5092,1.5092,0,0,1,1.69336,1.71582v3.72949h-.82422Z"/><path d="M277.87383,175.2354v-3.47656H276.993v-.72558h.88086v-1.45215h.8252v1.45215h1.07812v.72558H278.699v3.30078c0,.39551.17578.68164.53906.68164a.79847.79847,0,0,0,.56152-.21972l.24122.61621a1.3465,1.3465,0,0,1-.98926.34082A1.08751,1.08751,0,0,1,277.87383,175.2354Z"/><g id="laptop-2" data-name="laptop"><g class="cls-15"><line class="cls-8" x1="263.7402" y1="148.44007" x2="269.2057" y2="148.44007"/><g class="cls-15"><path class="cls-8" d="M286.95505,148.39077a2.47811,2.47811,0,0,1-1.3605,2.0955l-38.089.006-.167-.0115a2.40211,2.40211,0,0,1-1.3835-2.0625,2.34233,2.34233,0,0,1,1.3835-2.0365h38.256v-21.8895h-38.256v19.1535"/></g></g></g><g id="firewall-with-shield-and-checkmark-2" data-name="firewall-with-shield-and-checkmark"><g class="cls-16"><line class="cls-8" x1="313.44623" y1="69.46785" x2="346.88773" y2="69.45635"/><line class="cls-8" x1="313.46723" y1="76.46785" x2="346.88773" y2="76.46785"/><line class="cls-8" x1="325.80903" y1="83.46835" x2="346.88753" y2="83.46835"/><line class="cls-8" x1="325.40278" y1="90.46885" x2="346.88778" y2="90.46885"/><line class="cls-8" x1="323.21623" y1="69.46785" x2="323.21623" y2="76.26785"/><line class="cls-8" x1="337.14058" y1="69.46785" x2="337.14058" y2="76.26785"/><line class="cls-8" x1="337.14058" y1="83.46835" x2="337.14058" y2="90.46885"/><line class="cls-8" x1="344.10298" y1="76.46785" x2="344.10298" y2="83.46835"/><line class="cls-8" x1="316.25383" y1="76.46785" x2="316.25383" y2="78.64035"/><line class="cls-8" x1="330.17768" y1="76.46785" x2="330.17768" y2="83.46835"/><line class="cls-8" x1="322.50188" y1="97.46885" x2="346.88738" y2="97.46885"/><line class="cls-8" x1="344.10298" y1="90.66905" x2="344.10298" y2="97.46905"/><line class="cls-8" x1="330.17768" y1="90.66905" x2="330.17768" y2="97.46905"/><g class="cls-16"><path class="cls-8" d="M321.83928,81.2872q-.58275.0285-1.162.05l-.0015-.0045-2.778-2.148a2.3453,2.3453,0,0,0-2.949-.045l-2.992,2.1975c-.3855-.0145-.7735-.031-1.1615-.05-2.1955-.11-3.9075-.737-3.9075,2.2915,0,3.029.407,7.94.407,7.94s-.2445,3.683,3.989,6.7935c3.641,2.6755,5.0195,3.644,5.0195,3.644s1.4065-.9685,5.0475-3.644c4.233-3.1105,3.989-6.7935,3.989-6.7935s.407-4.911.407-7.94c0-3.0285-1.712-2.4015-3.9075-2.2915"/><path class="cls-11" d="M318.46673,84.01325a5.84725,5.84725,0,1,0,1.5615.9405h.001l-4.583,6.9775-2.467-3.295"/></g></g></g><path class="cls-12" d="M311.08086,163.43853h4.80762v.81348H311.994v2.36621h3.81738v.81347H311.994v3.34473h-.91309Z"/><path class="cls-12" d="M317.45,169.126a2.41372,2.41372,0,0,0,2.02343.96875,1.58485,1.58485,0,0,0,1.69532-1.57324,1.54683,1.54683,0,0,0-1.6836-1.585,2.29909,2.29909,0,0,0-1.69433.69336l-.6709-.23145v-3.96h4.48828v.81348H318.032v2.55273a2.48785,2.48785,0,0,1,1.71679-.66016,2.248,2.248,0,0,1,2.332,2.34375,2.40241,2.40241,0,0,1-2.60742,2.41993,2.99737,2.99737,0,0,1-2.585-1.17676Z"/><path class="cls-12" d="M326.22735,169.04888a3.10144,3.10144,0,0,0,2.31055,1.0459c1.30859,0,1.72656-.7041,1.72656-1.26563,0-.87988-.89063-1.12207-1.85938-1.38574-1.17675-.30859-2.48632-.63867-2.48632-2.08008,0-1.21,1.07812-2.03515,2.51953-2.03515a3.4495,3.4495,0,0,1,2.60742,1.02343l-.55078.6709a2.80311,2.80311,0,0,0-2.12305-.87988c-.87988,0-1.50684.47266-1.50684,1.166,0,.7373.84668.957,1.78223,1.21,1.19922.31933,2.56348.69336,2.56348,2.2334,0,1.06738-.72559,2.15625-2.70606,2.15625a3.634,3.634,0,0,1-2.8164-1.166Z"/><path class="cls-12" d="M332.56329,169.04888a3.10143,3.10143,0,0,0,2.31054,1.0459c1.3086,0,1.72657-.7041,1.72657-1.26563,0-.87988-.89063-1.12207-1.85938-1.38574-1.17676-.30859-2.48633-.63867-2.48633-2.08008,0-1.21,1.07813-2.03515,2.51953-2.03515a3.44952,3.44952,0,0,1,2.60743,1.02343l-.55079.6709a2.80308,2.80308,0,0,0-2.123-.87988c-.87988,0-1.50684.47266-1.50684,1.166,0,.7373.84668.957,1.78223,1.21,1.19922.31933,2.56348.69336,2.56348,2.2334,0,1.06738-.72559,2.15625-2.70606,2.15625a3.634,3.634,0,0,1-2.81641-1.166Z"/><path class="cls-12" d="M338.79961,163.43853h.91407V169.962h3.41015v.81445h-4.32422Z"/><path class="cls-12" d="M301.35235,174.31744c4.78-.17047,4.781,7.76143-.00024,7.59079C296.56816,182.08065,296.569,174.14444,301.35235,174.31744Zm0,.81445c-3.55235-.15573-3.55458,6.111.00015,5.96287C304.903,181.24,304.90081,174.97854,301.35235,175.13189Z"/><path class="cls-12" d="M306.28008,176.46294h.8252v.85742a2.25859,2.25859,0,0,1,1.77051-.96777v.84668a1.48137,1.48137,0,0,0-.33008-.03223,1.94187,1.94187,0,0,0-1.44043.84668v3.7627h-.8252Z"/><path class="cls-12" d="M312.14336,176.33111a2.27556,2.27556,0,0,1,1.94727.92383l-.55078.50585a1.57432,1.57432,0,0,0-1.35352-.69335,2.06432,2.06432,0,0,0,0,4.10351,1.60169,1.60169,0,0,0,1.35352-.69238l.55078.50586a2.27558,2.27558,0,0,1-1.94727.92383,2.79207,2.79207,0,0,1,0-5.57715Z"/><path class="cls-12" d="M318.73223,178.27837c0-.93554-.48437-1.21093-1.19922-1.21093a2.08925,2.08925,0,0,0-1.57324.82519v3.88379h-.82519v-7.33789h.82519v2.79394a2.64126,2.64126,0,0,1,1.90332-.90136,1.49465,1.49465,0,0,1,1.69434,1.69336v3.75195h-.8252Z"/><path class="cls-12" d="M323.407,176.33111a2.581,2.581,0,0,1,2.55273,2.84863v.209H321.657a1.87281,1.87281,0,0,0,1.91406,1.83789,2.32809,2.32809,0,0,0,1.64062-.67089l.39551.53906a2.88943,2.88943,0,0,1-2.1123.81348,2.79189,2.79189,0,0,1-.08789-5.57715Zm-1.75,2.45312h3.48828a1.72329,1.72329,0,0,0-1.75-1.77148A1.7737,1.7737,0,0,0,321.657,178.78423Z"/><path class="cls-12" d="M327.14629,180.47857a2.4118,2.4118,0,0,0,1.749.75879c.81445,0,1.2539-.36328,1.2539-.87989,0-.583-.64843-.7705-1.36328-.94628-.90234-.209-1.92578-.45118-1.92578-1.55176,0-.82422.71485-1.52832,1.98047-1.52832a2.68778,2.68778,0,0,1,1.96875.76953l-.38477.57226a2.07,2.07,0,0,0-1.584-.67089c-.72656,0-1.17773.33007-1.17773.80273,0,.51758.60546.68262,1.29882.84766.92383.209,1.99122.47265,1.99122,1.64941,0,.8916-.71485,1.60645-2.09083,1.60645a2.82393,2.82393,0,0,1-2.14453-.83594Z"/><path class="cls-12" d="M332.34844,180.66509v-3.47656h-.87988v-.72559h.87988v-1.45215h.82617v1.45215h1.07813v.72559h-1.07813v3.30078c0,.39551.17579.68164.53907.68164a.79593.79593,0,0,0,.56054-.21973l.24219.61622a1.3474,1.3474,0,0,1-.99023.34082A1.08751,1.08751,0,0,1,332.34844,180.66509Z"/><path class="cls-12" d="M335.30743,176.46294h.82617v.85742a2.25709,2.25709,0,0,1,1.77051-.96777v.84668a1.48753,1.48753,0,0,0-.33008-.03223,1.94187,1.94187,0,0,0-1.44043.84668v3.7627h-.82617Z"/><path class="cls-12" d="M342.1502,181.171a2.29811,2.29811,0,0,1-1.76074.73731,1.76871,1.76871,0,0,1-1.8584-1.75977,1.74039,1.74039,0,0,1,1.8584-1.75,2.22181,2.22181,0,0,1,1.76074.72656v-.957c0-.71484-.57129-1.12207-1.34277-1.12207a2.10719,2.10719,0,0,0-1.627.73731l-.38574-.57227a2.78094,2.78094,0,0,1,2.124-.87988c1.12109,0,2.05664.50586,2.05664,1.793v3.65234h-.8252Zm0-1.51758a1.77834,1.77834,0,0,0-1.46289-.66015,1.16911,1.16911,0,1,0,0,2.32129,1.77835,1.77835,0,0,0,1.46289-.66016Z"/><path class="cls-12" d="M344.6795,180.66509v-3.47656h-.87989v-.72559h.87989v-1.45215h.82519v1.45215h1.07813v.72559h-1.07813v3.30078c0,.39551.17578.68164.53907.68164a.79413.79413,0,0,0,.56054-.21973l.24219.61622a1.3474,1.3474,0,0,1-.99023.34082A1.08682,1.08682,0,0,1,344.6795,180.66509Z"/><path class="cls-12" d="M347.33086,179.11431a2.63378,2.63378,0,1,1,2.62891,2.794A2.60656,2.60656,0,0,1,347.33086,179.11431Zm4.38868,0a1.78622,1.78622,0,1,0-1.75977,2.05664A1.84743,1.84743,0,0,0,351.71954,179.11431Z"/><path class="cls-12" d="M353.8211,176.46294h.82422v.85742a2.2604,2.2604,0,0,1,1.77148-.96777v.84668a1.48741,1.48741,0,0,0-.33008-.03223,1.94547,1.94547,0,0,0-1.4414.84668v3.7627h-.82422Z"/><circle class="cls-13" cx="326.88763" cy="136.6419" r="19.3911"/><path class="cls-3" d="M316.21172,138.19927a2.79866,2.79866,0,0,0,2.08887.93555c1.07422,0,1.45313-.54785,1.45313-1.02539,0-.69629-.75684-.89551-1.60254-1.11426-1.06446-.27832-2.29785-.58691-2.29785-1.93945,0-1.09473.96484-1.89063,2.34765-1.89063a3.2504,3.2504,0,0,1,2.418.92578l-.57715.73535a2.58788,2.58788,0,0,0-1.91992-.77539c-.73633,0-1.24414.37793-1.24414.93457,0,.59766.7168.78614,1.542.99512,1.085.28906,2.34863.62695,2.34863,2.04,0,1.03418-.71679,1.999-2.50683,1.999a3.396,3.396,0,0,1-2.61719-1.05468Z"/><path class="cls-3" d="M321.82989,138.19927a2.79863,2.79863,0,0,0,2.08887.93555c1.07519,0,1.45312-.54785,1.45312-1.02539,0-.69629-.75684-.89551-1.60254-1.11426-1.06445-.27832-2.29785-.58691-2.29785-1.93945,0-1.09473.96484-1.89063,2.34766-1.89063a3.25038,3.25038,0,0,1,2.418.92578l-.57714.73535a2.58942,2.58942,0,0,0-1.91993-.77539c-.73632,0-1.24414.37793-1.24414.93457,0,.59766.7168.78614,1.543.99512,1.084.28906,2.34766.62695,2.34766,2.04,0,1.03418-.7168,1.999-2.50781,1.999a3.3952,3.3952,0,0,1-2.61621-1.05468Z"/><path class="cls-3" d="M327.28985,133.2647h.99512v5.75977h3.01367v.876h-4.00879Z"/><path class="cls-3" d="M334.88848,133.15533c4.38488-.16043,4.38587,7.02481-.00022,6.86423C330.50234,140.18,330.50323,132.99433,334.88848,133.15533Zm0,.88574c-3.05641-.13057-3.05847,5.2173.00013,5.09374C337.939,139.25372,337.937,133.91474,334.88848,134.04107Z"/><rect class="cls-2" x="440.43917" y="33.18897" width="190.52373" height="167.07711"/><rect class="cls-3" x="507.66748" y="24.18897" width="56.0671" height="18"/><path class="cls-4" d="M520.48321,30.99224h-1.46973V36.689h-1.5498V30.99224h-1.47852V29.59283h4.49805Z"/><path class="cls-4" d="M523.77422,35.43951H522.325l-.28907,1.24951h-1.50976l1.52929-7.09619h2.00977L525.6043,36.689h-1.53906Zm-.71875-3.95752-.44921,2.55859h.89843Z"/><path class="cls-4" d="M530.87676,31.53179v.90967a1.94565,1.94565,0,0,1-2.1084,1.94873h-.82031V36.689h-1.54883V29.59283h2.35938A1.95243,1.95243,0,0,1,530.87676,31.53179Zm-1.54882-.06982a.43857.43857,0,0,0-.46-.46973h-.91992v1.999h.91016a.44394.44394,0,0,0,.46973-.48Z"/><path class="cls-4" d="M539.51641,36.689h-1.33008V32.12163L537.17754,36.689h-1.10937l-1.01953-4.60742V36.689H533.7293V29.59283h1.83887l1.0498,4.0581,1.04883-4.0581h1.84961Z"/><path class="cls-4" d="M540.45,34.81988V31.462a2.38748,2.38748,0,0,1,4.71777,0v3.35791a2.38748,2.38748,0,0,1-4.71777,0Zm3.16894.02V31.442c0-.35987-.24023-.59961-.7998-.59961-.58008,0-.81934.23974-.81934.59961v3.398c0,.35986.23926.59961.80957.59961C543.37872,35.43951,543.619,35.19976,543.619,34.8399Z"/><path class="cls-4" d="M550.66876,31.61187V34.67A2.05357,2.05357,0,0,1,548.4002,36.689h-2.29883V29.59283h2.28907A2.06209,2.06209,0,0,1,550.66876,31.61187Zm-1.54883-.02a.56716.56716,0,0,0-.61914-.59961h-.84961V35.2896H548.49a.57041.57041,0,0,0,.62989-.59961Z"/><path class="cls-4" d="M553.13555,30.99224v1.54883h1.71875v1.39941h-1.71875V35.2896h2.11817V36.689h-3.668V29.59283h3.668v1.39941Z"/><line class="cls-5" x1="535.24175" y1="117.25082" x2="535.24175" y2="101.66878"/><polygon class="cls-6" points="539.332 104.982 538.599 105.664 535.243 102.053 531.885 105.664 531.153 104.982 535.243 100.584 539.332 104.982"/><line class="cls-5" x1="494.26834" y1="136.6419" x2="515.8507" y2="136.6419"/><line class="cls-5" x1="554.88966" y1="136.6419" x2="576.47202" y2="136.6419"/><g id="globe-3" data-name="globe"><g class="cls-17"><g class="cls-17"><path class="cls-8" d="M590.59185,136.78715c0-.049.002-.0965.002-.1455h-7.5015c0,.0315-.001.0625-.001.094a28.00655,28.00655,0,0,0,1.355,8.72,45.218,45.218,0,0,1,6.6035-1.064A61.275,61.275,0,0,1,590.59185,136.78715Z"/><path class="cls-8" d="M591.0499,144.3919a45.15053,45.15053,0,0,0-6.6035,1.064c1.5695,4.771,4.384,8.48,7.82,10.1985.1545.035.309.073.465.104a19.61915,19.61915,0,0,0,2.4965.332C593.3334,154.6339,591.7829,150.2174,591.0499,144.3919Z"/><path class="cls-8" d="M602.0943,128.8914a60.7438,60.7438,0,0,1,.4975,7.7505h7.50049a27.91667,27.91667,0,0,0-1.413-8.799A45.50289,45.50289,0,0,1,602.0943,128.8914Z"/><path class="cls-8" d="M602.13435,144.39165q-.86477-.07875-1.7605-.134c-1.224-.074-2.48651-.115-3.781-.115-1.9275,0-3.786.0885-5.543.249.733,5.826,2.2835,10.2425,4.178,11.699.452.0315.9055.0535,1.365.0535.454,0,.903-.022,1.348-.0545l.0175-.012C599.85185,154.61965,601.40085,150.20865,602.13435,144.39165Z"/><path class="cls-8" d="M597.95855,156.0777l-.01751.0115a19.98629,19.98629,0,0,0,2.961-.445c3.4425-1.7145,6.264-5.4195,7.8365-10.193a45.30143,45.30143,0,0,0-6.604-1.0595C601.40105,150.2087,599.85155,154.6197,597.95855,156.0777Z"/><path class="cls-8" d="M602.59385,136.78715a61.14309,61.14309,0,0,1-.45951,7.6045,45.29007,45.29007,0,0,1,6.604,1.0595,27.95113,27.95113,0,0,0,1.356-8.7155c0-.0315-.002-.0625-.002-.094h-7.50049C602.59185,136.69065,602.59385,136.73815,602.59385,136.78715Z"/><path class="cls-8" d="M591.09335,128.898a45.41547,45.41547,0,0,1-6.583-1.0485,27.80615,27.80615,0,0,0-1.418,8.7925h7.5015A60.48893,60.48893,0,0,1,591.09335,128.898Z"/><path class="cls-8" d="M596.59285,129.1409c-1.3225,0-2.613-.0415-3.86151-.1185q-.83174-.05175-1.638-.1245a60.495,60.495,0,0,0-.4995,7.744h11.998a60.742,60.742,0,0,0-.4975-7.7505c-.351.0315-.7045.062-1.0635.0875C599.60335,129.0814,598.12235,129.1409,596.59285,129.1409Z"/><path class="cls-8" d="M590.59185,136.78715a61.275,61.275,0,0,0,.458,7.6045c1.757-.1605,3.615-.249,5.543-.249,1.2945,0,2.557.041,3.7805.115q.897.054,1.761.134a61.14317,61.14317,0,0,0,.4595-7.6045c0-.049-.002-.0965-.002-.1455h-11.998C590.59385,136.69065,590.59185,136.73815,590.59185,136.78715Z"/><path class="cls-8" d="M601.568,125.6983l.0045-.0055-.0045.0055c.20449,1.001.379,2.0735.52649,3.193a45.52512,45.52512,0,0,0,6.585-1.0485,23.653,23.653,0,0,0-.89249-2.277c-1.78851-3.913-4.4925-6.8275-7.655-8.095a19.6961,19.6961,0,0,0-2.703-.31,2.74574,2.74574,0,0,1,.327.18C599.33744,118.3678,600.697,121.4408,601.568,125.6983Z"/><path class="cls-8" d="M591.70615,125.30865c-.2405,1.1155-.445,2.3205-.613,3.5895q.80625.072,1.6385.124c1.2485.0775,2.539.119,3.861.119,1.5295,0,3.0105-.06,4.438-.1625.359-.0255.7125-.0555,1.0635-.087-.1475-1.12-.3215-2.1925-.526-3.1935-.8715-4.2575-2.2305-7.3305-3.812-8.3575a2.713,2.713,0,0,0-.3275-.18c-.277-.012-.5555-.021-.836-.021-.2845,0-.5655.014-.847.026C594.08165,117.94615,592.63865,120.98265,591.70615,125.30865Z"/><path class="cls-8" d="M591.70615,125.30865c.9325-4.326,2.3755-7.3625,4.0395-8.143a19.5311,19.5311,0,0,0-2.6705.2935c-3.059,1.2235-5.687,3.995-7.4775,7.714a23.55855,23.55855,0,0,0-1.0875,2.6765,45.57564,45.57564,0,0,0,6.583,1.0485C591.26115,127.62915,591.46565,126.42415,591.70615,125.30865Z"/><path class="cls-8" d="M592.2662,155.6546c-3.436-1.7185-6.2505-5.4275-7.82-10.1985a24.06618,24.06618,0,0,0-3.7355,1.213c-.2295.0995-.4475.2015-.658.305A19.52814,19.52814,0,0,0,592.2662,155.6546Z"/><path class="cls-8" d="M610.09235,136.6419c0,.0315.002.0625.002.0935a27.957,27.957,0,0,1-1.356,8.716,23.1324,23.1324,0,0,1,4.0235,1.336l.01449-.0015-.01449.0015c.12749.058.25149.1165.372.1765a19.36669,19.36669,0,0,0,2.9615-10.322Z"/><path class="cls-8" d="M608.73835,145.45125c-1.57251,4.7735-4.3935,8.4785-7.8365,10.193.0425-.0095.0865-.0165.129-.0265a19.54621,19.54621,0,0,0,12.103-8.654q-.18077-.08925-.372-.1765A23.21715,23.21715,0,0,0,608.73835,145.45125Z"/><path class="cls-8" d="M600.3736,117.51275c-.08-.0155-.1615-.027-.2415-.0415,3.1625,1.267,5.8665,4.1815,7.65449,8.0945l.01051-.006-.01051.006a23.57415,23.57415,0,0,1,.89251,2.277,22.1803,22.1803,0,0,0,4.4595-1.5285q-.18376-.294-.377-.58A19.51053,19.51053,0,0,0,600.3736,117.51275Z"/><path class="cls-8" d="M610.09235,136.6419h6.003a19.41031,19.41031,0,0,0-2.95651-10.328,22.17776,22.17776,0,0,1-4.4595,1.529A27.93093,27.93093,0,0,1,610.09235,136.6419Z"/><path class="cls-8" d="M584.51035,127.84965a22.17187,22.17187,0,0,1-4.447-1.525,19.35912,19.35912,0,0,0-2.973,10.317h6.002A27.803,27.803,0,0,1,584.51035,127.84965Z"/><path class="cls-8" d="M584.44635,145.45585a28.00655,28.00655,0,0,1-1.355-8.72c0-.0315.001-.0625.001-.094h-6.002a19.40453,19.40453,0,0,0,2.9625,10.3325c.2105-.1035.428-.206.6575-.305A24.08871,24.08871,0,0,1,584.44635,145.45585Z"/><path class="cls-8" d="M585.59775,125.1729c1.7905-3.719,4.4185-6.49,7.4775-7.7135a19.51026,19.51026,0,0,0-12.3645,7.891c-.226.3175-.44.6435-.647.9745a22.22924,22.22924,0,0,0,4.4465,1.525A23.56674,23.56674,0,0,1,585.59775,125.1729Z"/></g></g></g><path d="M511.43243,57.96783a3.66281,3.66281,0,0,1,3.74023-3.7959,3.2965,3.2965,0,0,1,2.81641,1.45215l-.76953.42871a2.49063,2.49063,0,0,0-2.04688-1.06641,2.98774,2.98774,0,0,0,0,5.96289,2.4642,2.4642,0,0,0,2.04688-1.06738l.78125.42871a3.33886,3.33886,0,0,1-2.82813,1.45215A3.66256,3.66256,0,0,1,511.43243,57.96783Z"/><path d="M518.87969,54.86529a.55569.55569,0,0,1,1.11133,0,.55569.55569,0,1,1-1.11133,0Zm.14258,1.45215h.82617v5.31347h-.82617Z"/><path d="M521.3543,60.33306a2.4106,2.4106,0,0,0,1.75.75879c.81348,0,1.25391-.36328,1.25391-.87988,0-.583-.64942-.77051-1.36524-.94629-.90136-.209-1.9248-.45117-1.9248-1.55176,0-.82422.71582-1.52832,1.98047-1.52832a2.69188,2.69188,0,0,1,1.96972.76953l-.38476.57227a2.07378,2.07378,0,0,0-1.585-.6709c-.72559,0-1.17676.33008-1.17676.80273,0,.51758.60449.68262,1.29785.84766.92481.209,1.99121.47265,1.99121,1.64941,0,.8916-.71484,1.60645-2.08984,1.60645a2.82608,2.82608,0,0,1-2.14551-.83594Z"/><path d="M528.73516,56.1856a2.27175,2.27175,0,0,1,1.94727.92383l-.54981.50586a1.575,1.575,0,0,0-1.35254-.69336,2.0642,2.0642,0,0,0,0,4.10351,1.60237,1.60237,0,0,0,1.35254-.69238l.54981.50586a2.27175,2.27175,0,0,1-1.94727.92383,2.79218,2.79218,0,0,1,0-5.57715Z"/><path d="M531.41876,58.9688a2.6347,2.6347,0,1,1,2.62988,2.79395A2.60732,2.60732,0,0,1,531.41876,58.9688Zm4.39062,0a1.78664,1.78664,0,1,0-1.76074,2.05664A1.84756,1.84756,0,0,0,535.80938,58.9688Z"/><path d="M540.66973,54.293h4.80762v.81348h-3.89453v2.36621h3.81836v.81348h-3.81836v3.34472h-.91309Z"/><path d="M548.42461,55.1065H546.1043V54.293h5.56641v.81348h-2.332v6.52441h-.91407Z"/><path d="M552.77032,54.293h2.50781a3.67011,3.67011,0,1,1,0,7.33789h-2.50781Zm2.50781,6.52344a2.85524,2.85524,0,0,0,0-5.71H553.6834v5.71Z"/><path d="M458.01251,158.00884h.91308v7.33789h-.91308Z"/><path d="M464.08477,161.87017c0-.93555-.47266-1.23242-1.1875-1.23242a2.05347,2.05347,0,0,0-1.57422.82519v3.88379h-.82422v-5.31347h.82422v.76953a2.64025,2.64025,0,0,1,1.89258-.90137,1.50988,1.50988,0,0,1,1.69434,1.71582v3.72949h-.8252Z"/><path d="M466.61407,164.2354v-3.47656h-.88086v-.72558h.88086v-1.45215h.82519v1.45215h1.07813v.72558h-1.07813v3.30078c0,.39551.17578.68164.53907.68164a.7985.7985,0,0,0,.56152-.21972l.24121.61621a1.34648,1.34648,0,0,1-.98926.34082A1.0875,1.0875,0,0,1,466.61407,164.2354Z"/><path d="M471.8836,159.90142a2.58105,2.58105,0,0,1,2.55273,2.84863v.209H470.1336a1.87283,1.87283,0,0,0,1.91406,1.83789,2.32814,2.32814,0,0,0,1.64063-.6709l.3955.53906a2.88939,2.88939,0,0,1-2.1123.81348,2.79189,2.79189,0,0,1-.08789-5.57715Zm-1.75,2.45312h3.48828a1.72329,1.72329,0,0,0-1.75-1.77148A1.7737,1.7737,0,0,0,470.1336,162.35454Z"/><path d="M475.65606,160.03326h.8252v.85742a2.25889,2.25889,0,0,1,1.77148-.96778v.84668a1.49365,1.49365,0,0,0-.33008-.03222,1.94545,1.94545,0,0,0-1.4414.84668v3.76269h-.8252Z"/><path d="M482.76251,161.87017c0-.93555-.47266-1.23242-1.1875-1.23242a2.05344,2.05344,0,0,0-1.57422.82519v3.88379h-.82422v-5.31347h.82422v.76953a2.64023,2.64023,0,0,1,1.89257-.90137,1.50988,1.50988,0,0,1,1.69434,1.71582v3.72949h-.82519Z"/><path d="M488.449,164.74126a2.29811,2.29811,0,0,1-1.76074.73731,1.76951,1.76951,0,0,1-1.85938-1.75977,1.74119,1.74119,0,0,1,1.85938-1.75,2.22181,2.22181,0,0,1,1.76074.72656v-.957c0-.71484-.57129-1.12207-1.34277-1.12207a2.10719,2.10719,0,0,0-1.627.73731l-.38574-.57227a2.781,2.781,0,0,1,2.124-.87988c1.1211,0,2.05664.50586,2.05664,1.793v3.65234H488.449Zm0-1.51757a1.77835,1.77835,0,0,0-1.46289-.66016,1.16911,1.16911,0,1,0,0,2.32129,1.77835,1.77835,0,0,0,1.46289-.66016Z"/><path d="M490.81329,158.00884h.82617v7.33789h-.82617Z"/><path d="M461.70782,172.68365a3.66359,3.66359,0,0,1,3.74121-3.7959,3.29906,3.29906,0,0,1,2.81641,1.45215l-.77051.42871a2.4888,2.4888,0,0,0-2.0459-1.06641,2.98774,2.98774,0,0,0,0,5.96289,2.46239,2.46239,0,0,0,2.0459-1.06738l.78125.42871a3.33576,3.33576,0,0,1-2.82715,1.45215A3.66335,3.66335,0,0,1,461.70782,172.68365Z"/><path d="M469.29864,169.00884h.82519v7.33789h-.82519Z"/><path d="M471.52032,169.58111a.55569.55569,0,0,1,1.11133,0,.55569.55569,0,1,1-1.11133,0Zm.14258,1.45215h.82617v5.31347h-.82617Z"/><path d="M476.33868,170.90142a2.58051,2.58051,0,0,1,2.55273,2.84863v.209h-4.30176a1.87221,1.87221,0,0,0,1.91407,1.83789,2.32409,2.32409,0,0,0,1.63964-.6709l.39649.53906a2.89331,2.89331,0,0,1-2.11328.81348,2.79194,2.79194,0,0,1-.08789-5.57715Zm-1.749,2.45312H478.077a1.72243,1.72243,0,0,0-1.749-1.77148A1.77235,1.77235,0,0,0,474.58965,173.35454Z"/><path d="M483.69805,172.87017c0-.93555-.47265-1.23242-1.1875-1.23242a2.05347,2.05347,0,0,0-1.57422.82519v3.88379h-.82422v-5.31347h.82422v.76953a2.64025,2.64025,0,0,1,1.89258-.90137,1.50988,1.50988,0,0,1,1.69434,1.71582v3.72949h-.8252Z"/><path d="M486.22735,175.2354v-3.47656h-.87988v-.72558h.87988v-1.45215h.82617v1.45215h1.07813v.72558h-1.07813v3.30078c0,.39551.17578.68164.53906.68164a.796.796,0,0,0,.56055-.21972l.24219.61621a1.34742,1.34742,0,0,1-.99024.34082A1.0875,1.0875,0,0,1,486.22735,175.2354Z"/><g id="laptop-3" data-name="laptop"><g class="cls-18"><line class="cls-8" x1="472.09437" y1="148.44007" x2="477.55987" y2="148.44007"/><g class="cls-18"><path class="cls-8" d="M495.30922,148.39077a2.47811,2.47811,0,0,1-1.3605,2.0955l-38.089.006-.167-.0115a2.40211,2.40211,0,0,1-1.3835-2.0625,2.34233,2.34233,0,0,1,1.3835-2.0365h38.256v-21.8895h-38.256v19.1535"/></g></g></g><g id="firewall-with-shield-and-checkmark-3" data-name="firewall-with-shield-and-checkmark"><g class="cls-19"><line class="cls-8" x1="521.8004" y1="69.46785" x2="555.2419" y2="69.45635"/><line class="cls-8" x1="521.8214" y1="76.46785" x2="555.2419" y2="76.46785"/><line class="cls-8" x1="534.1632" y1="83.46835" x2="555.2417" y2="83.46835"/><line class="cls-8" x1="533.75695" y1="90.46885" x2="555.24195" y2="90.46885"/><line class="cls-8" x1="531.5704" y1="69.46785" x2="531.5704" y2="76.26785"/><line class="cls-8" x1="545.49475" y1="69.46785" x2="545.49475" y2="76.26785"/><line class="cls-8" x1="545.49475" y1="83.46835" x2="545.49475" y2="90.46885"/><line class="cls-8" x1="552.45715" y1="76.46785" x2="552.45715" y2="83.46835"/><line class="cls-8" x1="524.608" y1="76.46785" x2="524.608" y2="78.64035"/><line class="cls-8" x1="538.53185" y1="76.46785" x2="538.53185" y2="83.46835"/><line class="cls-8" x1="530.85605" y1="97.46885" x2="555.24155" y2="97.46885"/><line class="cls-8" x1="552.45715" y1="90.66905" x2="552.45715" y2="97.46905"/><line class="cls-8" x1="538.53185" y1="90.66905" x2="538.53185" y2="97.46905"/><g class="cls-19"><path class="cls-8" d="M530.19345,81.2872q-.58275.0285-1.162.05l-.0015-.0045-2.778-2.148a2.3453,2.3453,0,0,0-2.949-.045l-2.992,2.1975c-.3855-.0145-.7735-.031-1.1615-.05-2.1955-.11-3.9075-.737-3.9075,2.2915,0,3.029.407,7.94.407,7.94s-.2445,3.683,3.989,6.7935c3.641,2.6755,5.0195,3.644,5.0195,3.644s1.4065-.9685,5.0475-3.644c4.233-3.1105,3.989-6.7935,3.989-6.7935s.407-4.911.407-7.94c0-3.0285-1.712-2.4015-3.9075-2.2915"/><path class="cls-11" d="M526.8209,84.01325a5.84725,5.84725,0,1,0,1.5615.9405h.001l-4.583,6.9775-2.467-3.295"/></g></g></g><path class="cls-12" d="M519.43438,163.43853H524.243v.81348h-3.89453v2.36621h3.81641v.81347h-3.81641v3.34473h-.91406Z"/><path class="cls-12" d="M525.80352,169.126a2.41559,2.41559,0,0,0,2.02442.96875,1.58456,1.58456,0,0,0,1.69433-1.57324,1.54683,1.54683,0,0,0-1.68359-1.585,2.297,2.297,0,0,0-1.69336.69336l-.67188-.23145v-3.96h4.48828v.81348h-3.57519v2.55273a2.48525,2.48525,0,0,1,1.71582-.66016,2.24819,2.24819,0,0,1,2.333,2.34375,2.40293,2.40293,0,0,1-2.60742,2.41993,2.99614,2.99614,0,0,1-2.585-1.17676Z"/><path class="cls-12" d="M534.58086,169.04888a3.10317,3.10317,0,0,0,2.31055,1.0459c1.3086,0,1.72656-.7041,1.72656-1.26563,0-.87988-.89062-1.12207-1.85937-1.38574-1.17578-.30859-2.48633-.63867-2.48633-2.08008,0-1.21,1.07813-2.03515,2.51953-2.03515a3.44646,3.44646,0,0,1,2.60742,1.02343l-.5498.6709a2.80458,2.80458,0,0,0-2.12305-.87988c-.87988,0-1.50683.47266-1.50683,1.166,0,.7373.84668.957,1.78125,1.21,1.19922.31933,2.56445.69336,2.56445,2.2334,0,1.06738-.72656,2.15625-2.707,2.15625a3.637,3.637,0,0,1-2.81641-1.166Z"/><path class="cls-12" d="M540.9168,169.04888a3.10317,3.10317,0,0,0,2.31055,1.0459c1.30859,0,1.72656-.7041,1.72656-1.26563,0-.87988-.89062-1.12207-1.85937-1.38574-1.17578-.30859-2.48633-.63867-2.48633-2.08008,0-1.21,1.07812-2.03515,2.51953-2.03515a3.44646,3.44646,0,0,1,2.60742,1.02343l-.5498.6709a2.80458,2.80458,0,0,0-2.123-.87988c-.87988,0-1.50684.47266-1.50684,1.166,0,.7373.84668.957,1.78125,1.21,1.19922.31933,2.56446.69336,2.56446,2.2334,0,1.06738-.72657,2.15625-2.707,2.15625a3.637,3.637,0,0,1-2.81641-1.166Z"/><path class="cls-12" d="M547.15313,163.43853h.91406V169.962h3.41016v.81445h-4.32422Z"/><path class="cls-12" d="M509.70586,174.31744c4.7811-.17034,4.78209,7.7613-.00023,7.59079C504.92276,182.08078,504.92365,174.14431,509.70586,174.31744Zm0,.81445c-3.55235-.15573-3.55457,6.111.00015,5.96287C513.2568,181.24024,513.25466,174.97833,509.70586,175.13189Z"/><path class="cls-12" d="M514.6336,176.46294h.82617v.85742a2.25711,2.25711,0,0,1,1.77051-.96777v.84668a1.48741,1.48741,0,0,0-.33008-.03223,1.94187,1.94187,0,0,0-1.44043.84668v3.7627h-.82617Z"/><path class="cls-12" d="M520.49688,176.33111a2.273,2.273,0,0,1,1.94727.92383l-.55079.50585a1.5738,1.5738,0,0,0-1.35253-.69335,2.06432,2.06432,0,0,0,0,4.10351,1.60118,1.60118,0,0,0,1.35253-.69238l.55079.50586a2.273,2.273,0,0,1-1.94727.92383,2.79212,2.79212,0,0,1,0-5.57715Z"/><path class="cls-12" d="M527.08672,178.27837c0-.93554-.48437-1.21093-1.19921-1.21093a2.09123,2.09123,0,0,0-1.57422.82519v3.88379h-.82422v-7.33789h.82422v2.79394a2.64539,2.64539,0,0,1,1.90429-.90136,1.494,1.494,0,0,1,1.69336,1.69336v3.75195h-.82422Z"/><path class="cls-12" d="M531.76055,176.33111a2.58051,2.58051,0,0,1,2.55274,2.84863v.209h-4.30176a1.8722,1.8722,0,0,0,1.91406,1.83789,2.32412,2.32412,0,0,0,1.63965-.67089l.39648.53906a2.89333,2.89333,0,0,1-2.11328.81348,2.79194,2.79194,0,0,1-.08789-5.57715Zm-1.749,2.45312h3.4873a1.72243,1.72243,0,0,0-1.749-1.77148A1.77234,1.77234,0,0,0,530.01153,178.78423Z"/><path class="cls-12" d="M535.50079,180.47857a2.41,2.41,0,0,0,1.749.75879c.81348,0,1.25391-.36328,1.25391-.87989,0-.583-.64942-.7705-1.36426-.94628-.90235-.209-1.92578-.45118-1.92578-1.55176,0-.82422.71582-1.52832,1.98047-1.52832a2.6902,2.6902,0,0,1,1.96972.76953l-.38476.57226a2.07227,2.07227,0,0,0-1.585-.67089c-.72559,0-1.17676.33007-1.17676.80273,0,.51758.60449.68262,1.29785.84766.9248.209,1.99219.47265,1.99219,1.64941,0,.8916-.71485,1.60645-2.09082,1.60645a2.82612,2.82612,0,0,1-2.14551-.83594Z"/><path class="cls-12" d="M540.70294,180.66509v-3.47656h-.87989v-.72559h.87989v-1.45215h.82519v1.45215h1.07813v.72559h-1.07813v3.30078c0,.39551.17578.68164.53906.68164a.79416.79416,0,0,0,.56055-.21973l.24219.61622a1.34742,1.34742,0,0,1-.99024.34082A1.08682,1.08682,0,0,1,540.70294,180.66509Z"/><path class="cls-12" d="M543.66192,176.46294h.82519v.85742a2.25894,2.25894,0,0,1,1.77149-.96777v.84668a1.4936,1.4936,0,0,0-.33008-.03223,1.94549,1.94549,0,0,0-1.44141.84668v3.7627h-.82519Z"/><path class="cls-12" d="M550.50469,181.171a2.29811,2.29811,0,0,1-1.76074.73731,1.76871,1.76871,0,0,1-1.8584-1.75977,1.74039,1.74039,0,0,1,1.8584-1.75,2.2245,2.2245,0,0,1,1.76074.72656v-.957c0-.71484-.57226-1.12207-1.34277-1.12207a2.10771,2.10771,0,0,0-1.62793.73731l-.38477-.57227a2.77884,2.77884,0,0,1,2.12305-.87988c1.12207,0,2.05664.50586,2.05664,1.793v3.65234h-.82422Zm0-1.51758a1.77962,1.77962,0,0,0-1.46289-.66015,1.16922,1.16922,0,1,0,0,2.32129,1.77963,1.77963,0,0,0,1.46289-.66016Z"/><path class="cls-12" d="M553.034,180.66509v-3.47656h-.88086v-.72559h.88086v-1.45215h.82422v1.45215h1.07812v.72559h-1.07812v3.30078c0,.39551.17578.68164.53906.68164a.79663.79663,0,0,0,.56152-.21973l.24122.61622a1.3465,1.3465,0,0,1-.98926.34082A1.08682,1.08682,0,0,1,553.034,180.66509Z"/><path class="cls-12" d="M555.68438,179.11431a2.63424,2.63424,0,1,1,2.62891,2.794A2.60656,2.60656,0,0,1,555.68438,179.11431Zm4.38965,0a1.78664,1.78664,0,1,0-1.76074,2.05664A1.84756,1.84756,0,0,0,560.074,179.11431Z"/><path class="cls-12" d="M562.17461,176.46294h.8252v.85742a2.25859,2.25859,0,0,1,1.77051-.96777v.84668a1.48131,1.48131,0,0,0-.33008-.03223,1.94187,1.94187,0,0,0-1.44043.84668v3.7627h-.8252Z"/><circle class="cls-13" cx="535.2418" cy="136.6419" r="19.3911"/><path class="cls-3" d="M524.56524,138.19927a2.79864,2.79864,0,0,0,2.08887.93555c1.07422,0,1.45312-.54785,1.45312-1.02539,0-.69629-.75683-.89551-1.60254-1.11426-1.06445-.27832-2.29785-.58691-2.29785-1.93945,0-1.09473.96485-1.89063,2.34766-1.89063a3.25042,3.25042,0,0,1,2.418.92578l-.57715.73535a2.5879,2.5879,0,0,0-1.91992-.77539c-.73633,0-1.24414.37793-1.24414.93457,0,.59766.71679.78614,1.542.99512,1.085.28906,2.34863.62695,2.34863,2.04,0,1.03418-.7168,1.999-2.50684,1.999a3.39593,3.39593,0,0,1-2.61718-1.05468Z"/><path class="cls-3" d="M530.1834,138.19927a2.79866,2.79866,0,0,0,2.08887.93555c1.0752,0,1.45313-.54785,1.45313-1.02539,0-.69629-.75684-.89551-1.60254-1.11426-1.06446-.27832-2.29785-.58691-2.29785-1.93945,0-1.09473.96484-1.89063,2.34765-1.89063a3.2504,3.2504,0,0,1,2.418.92578l-.57715.73535a2.58939,2.58939,0,0,0-1.91992-.77539c-.73633,0-1.24414.37793-1.24414.93457,0,.59766.7168.78614,1.543.99512,1.084.28906,2.34765.62695,2.34765,2.04,0,1.03418-.71679,1.999-2.50781,1.999a3.39522,3.39522,0,0,1-2.61621-1.05468Z"/><path class="cls-3" d="M535.64336,133.2647h.99512v5.75977h3.01367v.876h-4.00879Z"/><path class="cls-3" d="M543.242,133.15533c4.38487-.16043,4.38587,7.02481-.00023,6.86423C538.85586,140.18,538.85675,132.99433,543.242,133.15533Zm0,.88574c-3.05642-.13057-3.05847,5.2173.00012,5.09374C546.29247,139.25372,546.29049,133.91474,543.242,134.04107Z"/></svg>