<svg id="Layer_1" data-name="Layer 1" xmlns="http://www.w3.org/2000/svg" viewBox="0 0 508.80016 216.36888"><defs><style>.cls-1,.cls-10,.cls-13,.cls-14,.cls-15,.cls-16,.cls-2,.cls-3,.cls-4,.cls-6,.cls-7{fill:none;}.cls-1{stroke:#29ad4a;}.cls-1,.cls-11,.cls-14,.cls-16,.cls-17,.cls-2,.cls-4,.cls-5,.cls-6,.cls-7,.cls-8{stroke-miterlimit:10;}.cls-2,.cls-5,.cls-6{stroke:#2cb04a;}.cls-10,.cls-11,.cls-13,.cls-14,.cls-15,.cls-2,.cls-3{stroke-linecap:round;}.cls-11,.cls-16,.cls-17,.cls-3{stroke:#000;}.cls-10,.cls-13,.cls-15,.cls-3{stroke-linejoin:round;}.cls-4{stroke:#be262a;}.cls-11,.cls-17,.cls-5{fill:#fff;}.cls-10,.cls-7,.cls-8{stroke:#010101;}.cls-8,.cls-9{fill:#010101;}.cls-8{stroke-width:0.4239px;}.cls-12{fill:#be262a;}.cls-13{stroke:#fff;}.cls-14,.cls-15{stroke:#1e9cd3;}.cls-14{stroke-width:1.06436px;}</style></defs><polyline class="cls-1" points="184.074 106.794 124.417 106.794 107.485 89.862"/><line class="cls-2" x1="214.31203" y1="106.63488" x2="241.50638" y2="106.63488"/><rect class="cls-3" x="184.18455" y="101.33378" width="29.85406" height="29.6906"/><rect class="cls-3" x="189.80844" y="106.92689" width="18.60627" height="18.50439"/><line class="cls-3" x1="214.01369" y1="128.06038" x2="218.06546" y2="128.06038"/><line class="cls-3" x1="214.01369" y1="123.23902" x2="218.06546" y2="123.23902"/><line class="cls-3" x1="214.01369" y1="118.41765" x2="218.06546" y2="118.41765"/><line class="cls-3" x1="214.01369" y1="113.59629" x2="218.06546" y2="113.59629"/><line class="cls-3" x1="214.01369" y1="108.77493" x2="218.06546" y2="108.77493"/><line class="cls-3" x1="214.01369" y1="103.95356" x2="218.06546" y2="103.95356"/><line class="cls-3" x1="180.06546" y1="128.06038" x2="184.11723" y2="128.06038"/><line class="cls-3" x1="180.06546" y1="123.23902" x2="184.11723" y2="123.23902"/><line class="cls-3" x1="180.06546" y1="118.41765" x2="184.11723" y2="118.41765"/><line class="cls-3" x1="180.06546" y1="113.59629" x2="184.11723" y2="113.59629"/><line class="cls-3" x1="180.06546" y1="108.77493" x2="184.11723" y2="108.77493"/><line class="cls-3" x1="180.06546" y1="103.95356" x2="184.11723" y2="103.95356"/><line class="cls-3" x1="211.18523" y1="101.15461" x2="211.18523" y2="97.12502"/><line class="cls-3" x1="206.33732" y1="101.15461" x2="206.33732" y2="97.12502"/><line class="cls-3" x1="201.48941" y1="101.15461" x2="201.48941" y2="97.12502"/><line class="cls-3" x1="196.64151" y1="101.15461" x2="196.64151" y2="97.12502"/><line class="cls-3" x1="191.7936" y1="101.15461" x2="191.7936" y2="97.12502"/><line class="cls-3" x1="186.9457" y1="101.15461" x2="186.9457" y2="97.12502"/><line class="cls-3" x1="211.18523" y1="135.12502" x2="211.18523" y2="131.09544"/><line class="cls-3" x1="206.33732" y1="135.12502" x2="206.33732" y2="131.09544"/><line class="cls-3" x1="201.48941" y1="135.12502" x2="201.48941" y2="131.09544"/><line class="cls-3" x1="196.64151" y1="135.12502" x2="196.64151" y2="131.09544"/><line class="cls-3" x1="191.7936" y1="135.12502" x2="191.7936" y2="131.09544"/><line class="cls-3" x1="186.9457" y1="135.12502" x2="186.9457" y2="131.09544"/><polyline class="cls-4" points="184.425 121.91 124.417 121.91 109.604 136.724"/><line class="cls-2" x1="328.52542" y1="106.63488" x2="403.71978" y2="106.63488"/><g id="lock"><rect class="cls-5" x="383.53159" y="102.87071" width="9" height="7.87622"/><path class="cls-6" d="M391.40184,102.87071V100.6212a3.37025,3.37025,0,1,0-6.7405,0v2.24951"/></g><rect class="cls-7" x="404.22915" y="93.36026" width="30.54997" height="30.54997" rx="5.30511"/><g id="Group_13232-2" data-name="Group 13232-2"><path id="Path_61042" data-name="Path 61042" class="cls-8" d="M414.48844,109.78445a2.51622,2.51622,0,0,1-2.00059.8528,1.93756,1.93756,0,1,1,0-3.87007,2.51619,2.51619,0,0,1,2.00059.8528v-1.31166a1.468,1.468,0,0,0-1.63879-1.44277,2.26406,2.26406,0,0,0-1.86948.91836l-.22943-.22943a2.51552,2.51552,0,0,1,2.13042-.98454c1.14779,0,2.00059.5906,2.00059,1.73838v4.19782h-.36054v-.72169Zm0-1.80393a2.34787,2.34787,0,0,0-1.90226-.88243,1.62366,1.62366,0,0,0-1.73436,1.50484q-.00363.05114-.004.10243a1.60476,1.60476,0,0,0,1.59664,1.61283q.071.00036.14174-.00555a2.3044,2.3044,0,0,0,1.90226-.88936Z"/><path id="Path_61043" data-name="Path 61043" class="cls-8" d="M416.81678,112.70086V104.696h.36053v.98391a2.58994,2.58994,0,0,1,2.09766-1.11c1.57576,0,2.59118,1.21334,2.59118,3.01727,0,1.8367-1.01668,3.05-2.59118,3.05a2.6,2.6,0,0,1-2.09892-1.14779V112.704Zm2.45819-7.80316a2.53385,2.53385,0,0,0-2.09892,1.14778v3.11559a2.51428,2.51428,0,0,0,2.09892,1.18056c1.41,0,2.19724-1.21333,2.19724-2.72228C421.4741,106.07889,420.68685,104.8977,419.275,104.8977Z"/><path id="Path_61044" data-name="Path 61044" class="cls-8" d="M423.50746,112.70086V104.696h.36053v.98391a2.58992,2.58992,0,0,1,2.09765-1.11c1.57576,0,2.59118,1.21334,2.59118,3.01727,0,1.8367-1.01668,3.05-2.59118,3.05a2.6,2.6,0,0,1-2.09891-1.14779V112.704Zm2.45818-7.80316a2.53382,2.53382,0,0,0-2.09891,1.14778v3.11559a2.51426,2.51426,0,0,0,2.09891,1.18056c1.41,0,2.19724-1.21333,2.19724-2.72228C428.16477,106.07889,427.37752,104.8977,425.96564,104.8977Z"/></g><path class="cls-7" d="M410.29482,93.36026v-.899a5.18182,5.18182,0,0,1,5.16663-5.16663h20.2167a5.18182,5.18182,0,0,1,5.16663,5.16663v20.21671a5.18181,5.18181,0,0,1-5.16663,5.16663h-.899"/><path class="cls-9" d="M76.12036,176.076H72.40161l-.64844,1.62793h-1.0127l2.94824-7.33789h1.13282l2.96,7.33789h-1.0127Zm-3.45508-.81445H75.845l-1.584-4.082Z"/><path class="cls-9" d="M78.85864,176.59256V173.116h-.88086v-.72558h.88086v-1.45215h.82422v1.45215H80.761v.72558H79.68286v3.30078c0,.39551.17578.68164.53906.68164a.79668.79668,0,0,0,.56152-.21972l.24121.61621a1.34648,1.34648,0,0,1-.98926.34082A1.08681,1.08681,0,0,1,78.85864,176.59256Z"/><path class="cls-9" d="M82.20239,176.59256V173.116H81.3225v-.72558h.87989v-1.45215h.82617v1.45215h1.07812v.72558H83.02856v3.30078c0,.39551.17578.68164.53906.68164a.796.796,0,0,0,.56055-.21972l.24219.61621a1.34742,1.34742,0,0,1-.99024.34082A1.0875,1.0875,0,0,1,82.20239,176.59256Z"/><path class="cls-9" d="M88.70336,177.09842a2.29811,2.29811,0,0,1-1.76074.73731,1.7687,1.7687,0,0,1-1.8584-1.75977,1.7404,1.7404,0,0,1,1.8584-1.75,2.22178,2.22178,0,0,1,1.76074.72657v-.957c0-.71484-.57129-1.12207-1.34277-1.12207a2.10716,2.10716,0,0,0-1.627.73731l-.38575-.57227a2.781,2.781,0,0,1,2.124-.87988c1.12109,0,2.05664.50586,2.05664,1.793v3.65234h-.8252Zm0-1.51757a1.77834,1.77834,0,0,0-1.46289-.66016,1.16911,1.16911,0,1,0,0,2.32129,1.77834,1.77834,0,0,0,1.46289-.66016Z"/><path class="cls-9" d="M93.6311,172.25858a2.27429,2.27429,0,0,1,1.94726.92383l-.5498.50586a1.57546,1.57546,0,0,0-1.35352-.69336,2.0642,2.0642,0,0,0,0,4.10351,1.60287,1.60287,0,0,0,1.35352-.69238l.5498.50586a2.27429,2.27429,0,0,1-1.94726.92383,2.79212,2.79212,0,0,1,0-5.57715Z"/><path class="cls-9" d="M98.54809,175.3162l-.87988.86914v1.51855H96.843V170.366h.8252v4.85156l2.79394-2.82714h1.04492l-2.35351,2.40918,2.36523,2.90429h-1.05664Z"/><path class="cls-9" d="M104.66332,172.25858a2.58,2.58,0,0,1,2.55274,2.84863v.209h-4.30078a1.87159,1.87159,0,0,0,1.91406,1.83789,2.32183,2.32183,0,0,0,1.63867-.6709l.39649.53906a2.88942,2.88942,0,0,1-2.11231.81348,2.792,2.792,0,0,1-.08887-5.57715Zm-1.748,2.45313h3.48633a1.72159,1.72159,0,0,0-1.74805-1.77149A1.77167,1.77167,0,0,0,102.91528,174.71171Z"/><path class="cls-9" d="M108.65649,172.39042h.82519v.85742a2.25891,2.25891,0,0,1,1.77149-.96778v.84668a1.49365,1.49365,0,0,0-.33008-.03222,1.94549,1.94549,0,0,0-1.44141.84668v3.76269h-.82519Z"/><path class="cls-9" d="M112.36254,176.406a2.41236,2.41236,0,0,0,1.75.75879c.81446,0,1.25391-.36328,1.25391-.87988,0-.583-.64844-.77051-1.36426-.94629-.90137-.209-1.9248-.45117-1.9248-1.55176,0-.82422.71484-1.52832,1.98047-1.52832a2.68948,2.68948,0,0,1,1.96875.76953l-.38477.57227a2.07157,2.07157,0,0,0-1.584-.6709c-.72657,0-1.17774.33008-1.17774.80273,0,.51758.60547.68262,1.29883.84766.92383.209,1.99023.47266,1.99023,1.64941,0,.8916-.71484,1.60645-2.08984,1.60645a2.82388,2.82388,0,0,1-2.14453-.83594Z"/><path class="cls-10" d="M85.66283,163.76708v-6.41667s-11.66214.0157-9.79776-14.48533c1.08712-8.45561,6.96017-12.75331,11.66813-14.74583a15.69872,15.69872,0,0,1,12.27217.00173c4.70363,1.9932,10.56924,6.29094,11.65605,14.7441,1.86438,14.501-9.80571,14.48533-9.80571,14.48533v6.41667M85.99638,139.36579c-2.76142,0-5,2.57437-5,5.75s2.23858,5.75,5,5.75,5-2.57436,5-5.75S88.75781,139.36579,85.99638,139.36579Zm15.18052,0c-2.76142,0-5,2.57437-5,5.75s2.23858,5.75,5,5.75,5-2.57436,5-5.75S103.93833,139.36579,101.1769,139.36579ZM90.46069,165.37125v-6.41667m6.39716,0v6.41667m-3.25707-15.14188c-.73505,0-2.482,2.54042-2.482,3.3398a1.57577,1.57577,0,0,0,1.47482,1.6602,1.38848,1.38848,0,0,0,1.02518-.46986,1.38848,1.38848,0,0,0,1.02518.46986,1.57577,1.57577,0,0,0,1.47482-1.6602C96.11877,152.75591,94.33584,150.22937,93.60078,150.22937Z"/><rect class="cls-11" x="240.85804" y="41.57767" width="100.8179" height="133.96705"/><circle class="cls-12" cx="184.14735" cy="121.88577" r="5.84883"/><line class="cls-13" x1="186.81408" y1="118.62361" x2="181.53571" y2="125.14395"/><line class="cls-13" x1="181.43221" y1="118.62361" x2="186.71058" y2="125.14395"/><polyline class="cls-14" points="321.069 102.965 321.069 110.577 261.465 110.577 261.465 102.965"/><line class="cls-15" x1="291.26699" y1="125.08783" x2="291.26699" y2="110.83905"/><path d="M277.87426,146.49784a3.663,3.663,0,0,1,3.74121-3.7959,3.299,3.299,0,0,1,2.81641,1.45215l-.77051.42871a2.4888,2.4888,0,0,0-2.0459-1.06641,2.98767,2.98767,0,0,0,0,5.96289,2.46239,2.46239,0,0,0,2.0459-1.06738l.78125.42871a3.337,3.337,0,0,1-2.82715,1.45215A3.66278,3.66278,0,0,1,277.87426,146.49784Z"/><path d="M288.842,142.70194c4.78-.17047,4.781,7.76143-.00024,7.5908C284.05784,150.46515,284.05873,142.529,288.842,142.70194Zm0,.81445c-3.55236-.15573-3.55458,6.111.00015,5.96288C292.393,149.62474,292.39083,143.36283,288.842,143.51639Z"/><path d="M295.32055,143.63651h-2.32129V142.823h5.56738v.81348h-2.333v6.52441h-.91309Z"/><path d="M299.73168,148.43338a3.10313,3.10313,0,0,0,2.31055,1.0459c1.30957,0,1.72754-.7041,1.72754-1.26562,0-.87988-.8916-1.12207-1.85938-1.38574-1.17675-.3086-2.48632-.63868-2.48632-2.08008,0-1.21,1.07812-2.03516,2.51953-2.03516a3.4495,3.4495,0,0,1,2.60742,1.02344l-.55078.6709a2.80458,2.80458,0,0,0-2.12305-.87989c-.87988,0-1.50683.47266-1.50683,1.166,0,.73731.84668.957,1.78222,1.21,1.19922.31934,2.56348.69336,2.56348,2.2334,0,1.06738-.72656,2.15625-2.707,2.15625a3.637,3.637,0,0,1-2.81641-1.166Z"/><path d="M276.75805,159.43338a3.10313,3.10313,0,0,0,2.31055,1.0459c1.30957,0,1.72754-.7041,1.72754-1.26562,0-.87988-.8916-1.12207-1.85938-1.38574-1.17676-.3086-2.48633-.63868-2.48633-2.08008,0-1.21,1.07813-2.03516,2.51953-2.03516a3.44951,3.44951,0,0,1,2.60743,1.02344l-.55078.6709a2.80458,2.80458,0,0,0-2.123-.87989c-.87988,0-1.50684.47266-1.50684,1.166,0,.73731.84668.957,1.78223,1.21,1.19922.31934,2.56348.69336,2.56348,2.2334,0,1.06738-.72657,2.15625-2.707,2.15625a3.637,3.637,0,0,1-2.8164-1.166Z"/><path d="M285.2727,155.71561a2.58051,2.58051,0,0,1,2.55273,2.84863v.209h-4.30175a1.87159,1.87159,0,0,0,1.91406,1.83789,2.32584,2.32584,0,0,0,1.63965-.6709l.3955.53906a2.88939,2.88939,0,0,1-2.1123.81348,2.79194,2.79194,0,0,1-.08789-5.57715Zm-1.749,2.45313h3.4873a1.72243,1.72243,0,0,0-1.749-1.77149A1.77234,1.77234,0,0,0,283.52368,158.16874Z"/><path d="M289.04516,155.84745h.8252v.85742a2.25856,2.25856,0,0,1,1.7705-.96777v.84668a1.48062,1.48062,0,0,0-.33007-.03223,1.94187,1.94187,0,0,0-1.44043.84668v3.76269h-.8252Z"/><path d="M291.7727,155.84745h.8916l1.77051,4.35644,1.76074-4.35644h.90234l-2.21191,5.31347h-.90234Z"/><path d="M300.15551,155.71561a2.58051,2.58051,0,0,1,2.55274,2.84863v.209h-4.30176a1.87159,1.87159,0,0,0,1.91406,1.83789,2.32584,2.32584,0,0,0,1.63965-.6709l.39551.53906a2.88942,2.88942,0,0,1-2.11231.81348,2.79194,2.79194,0,0,1-.08789-5.57715Zm-1.749,2.45313h3.4873a1.72243,1.72243,0,0,0-1.749-1.77149A1.77234,1.77234,0,0,0,298.40649,158.16874Z"/><path d="M303.928,155.84745h.8252v.85742a2.25888,2.25888,0,0,1,1.77148-.96777v.84668a1.493,1.493,0,0,0-.33008-.03223,1.94547,1.94547,0,0,0-1.4414.84668v3.76269h-.8252Z"/><path d="M189.84789,142.823h.91309v7.33789h-.91309Z"/><path d="M195.92114,146.68436c0-.93555-.47364-1.23242-1.18848-1.23242a2.05309,2.05309,0,0,0-1.57324.82519v3.88379h-.8252v-5.31347h.8252v.76953a2.63655,2.63655,0,0,1,1.89258-.90137,1.5092,1.5092,0,0,1,1.69336,1.71582v3.72949h-.82422Z"/><path d="M198.45043,149.0496V145.573h-.88086v-.72558h.88086V143.3953h.82422v1.45215h1.07813v.72558h-1.07813v3.30078c0,.39551.17578.68165.53906.68165a.7967.7967,0,0,0,.56153-.21973l.24121.61621a1.3465,1.3465,0,0,1-.98926.34082A1.08682,1.08682,0,0,1,198.45043,149.0496Z"/><path d="M203.719,144.71561a2.58051,2.58051,0,0,1,2.55273,2.84863v.209H201.97a1.87221,1.87221,0,0,0,1.91407,1.83789,2.32584,2.32584,0,0,0,1.63965-.6709l.3955.53906a2.88548,2.88548,0,0,1-2.11132.81348,2.79193,2.79193,0,0,1-.08887-5.57715Zm-1.749,2.45313h3.48731a1.72243,1.72243,0,0,0-1.749-1.77149A1.773,1.773,0,0,0,201.97,147.16874Z"/><path d="M207.49145,142.823h.82617v7.33789h-.82617Z"/><path d="M177.48364,159.43338a3.1048,3.1048,0,0,0,2.31054,1.0459c1.30957,0,1.72754-.7041,1.72754-1.26562,0-.87988-.8916-1.12207-1.85937-1.38574-1.17676-.3086-2.48633-.63868-2.48633-2.08008,0-1.21,1.07812-2.03516,2.51953-2.03516a3.4495,3.4495,0,0,1,2.60742,1.02344l-.5498.6709a2.80748,2.80748,0,0,0-2.12305-.87989c-.88086,0-1.50781.47266-1.50781,1.166,0,.73731.84765.957,1.78223,1.21,1.19921.31934,2.56347.69336,2.56347,2.2334,0,1.06738-.72656,2.15625-2.707,2.15625a3.637,3.637,0,0,1-2.81641-1.166Z"/><path d="M190.10278,157.55253c0-.6709-.29785-1.10059-.98047-1.10059a1.862,1.862,0,0,0-1.4082.81445v3.89453h-.82422v-3.60839c0-.6709-.28614-1.10059-.9795-1.10059a1.85879,1.85879,0,0,0-1.39746.82519v3.88379h-.82422v-5.31347h.82422v.76953a2.29962,2.29962,0,0,1,1.7168-.90137,1.36316,1.36316,0,0,1,1.42969.98926,2.237,2.237,0,0,1,1.7832-.98926c.9668,0,1.48438.53906,1.48438,1.60547v3.83984h-.82422Z"/><path d="M195.78832,160.55546a2.296,2.296,0,0,1-1.75976.7373,1.769,1.769,0,0,1-1.85938-1.75977,1.74068,1.74068,0,0,1,1.85938-1.75,2.22107,2.22107,0,0,1,1.75976.72657v-.957c0-.71485-.57226-1.12207-1.34179-1.12207a2.10967,2.10967,0,0,0-1.62891.7373l-.38476-.57227a2.77884,2.77884,0,0,1,2.123-.87988c1.123,0,2.05762.50586,2.05762,1.793v3.65234h-.8252Zm0-1.51758a1.77706,1.77706,0,0,0-1.46289-.66016,1.16911,1.16911,0,1,0,0,2.32129,1.77706,1.77706,0,0,0,1.46289-.66016Z"/><path d="M198.15356,155.84745h.82422v.85742a2.26036,2.26036,0,0,1,1.77148-.96777v.84668a1.48681,1.48681,0,0,0-.33008-.03223,1.94545,1.94545,0,0,0-1.4414.84668v3.76269h-.82422Z"/><path d="M201.83813,160.0496V156.573h-.87988v-.72558h.87988V154.3953h.82519v1.45215h1.07813v.72558h-1.07813v3.30078c0,.39551.17579.68165.53907.68165a.79416.79416,0,0,0,.56054-.21973l.24219.61621a1.3474,1.3474,0,0,1-.99023.34082A1.08682,1.08682,0,0,1,201.83813,160.0496Z"/><path d="M205.7434,155.242v5.91894h-.91406V153.823h.93555l4.22461,5.79785V153.823h.91406v7.33789h-.88086Z"/><path d="M212.50707,153.823h.91407v7.33789h-.91407Z"/><path d="M214.72973,157.49784a3.66281,3.66281,0,0,1,3.74023-3.7959,3.29648,3.29648,0,0,1,2.81641,1.45215l-.76953.42871a2.49061,2.49061,0,0,0-2.04688-1.06641,2.98774,2.98774,0,0,0,0,5.96289,2.46418,2.46418,0,0,0,2.04688-1.06738l.78125.42871a3.33884,3.33884,0,0,1-2.82813,1.45215A3.66256,3.66256,0,0,1,214.72973,157.49784Z"/><path class="cls-16" d="M270.36749,125.34991h41.799a1.60046,1.60046,0,0,1,1.60046,1.60046V131.722a1.601,1.601,0,0,1-1.601,1.601H270.368a1.601,1.601,0,0,1-1.601-1.601V126.9504A1.6005,1.6005,0,0,1,270.36749,125.34991Z"/><line class="cls-3" x1="308.94577" y1="126.94465" x2="308.94577" y2="131.72824"/><line class="cls-3" x1="304.124" y1="126.94465" x2="304.124" y2="131.72824"/><line class="cls-3" x1="299.30268" y1="126.94465" x2="299.30268" y2="131.72824"/><path class="cls-9" d="M272.78455,128.53889a.79729.79729,0,1,1-.803.79754.80052.80052,0,0,1,.803-.79754m0-1.08434a1.88162,1.88162,0,1,0,1.88783,1.88188,1.88685,1.88685,0,0,0-1.88783-1.88188"/><circle class="cls-17" cx="291.26699" cy="78.91195" r="19.1716"/><path d="M279.10082,71.63065h3.0752a1.66177,1.66177,0,0,1,1.84766,1.67041,1.48306,1.48306,0,0,1-1.13965,1.50342,1.62022,1.62022,0,0,1,1.26758,1.61182,1.71352,1.71352,0,0,1-1.89649,1.76855h-3.1543Zm2.88868,2.78076a.96.96,0,1,0,0-1.916h-1.90625v1.916Zm.04882,2.90869a.98486.98486,0,0,0,1.10059-1.03173,1,1,0,0,0-1.10059-1.01221h-1.95507V77.3201Z"/><path d="M285.12719,71.63065h.98242v6.5542h-.98242Z"/><path d="M290.45532,71.52225a3.08116,3.08116,0,0,1,2.59375,1.29737l-.7959.46191a2.25955,2.25955,0,0,0-1.79785-.88477,2.52415,2.52415,0,0,0,0,5.041,2.54148,2.54148,0,0,0,1.66015-.64844v-1.1792h-2.10254V74.7454h3.085v2.40771a3.48568,3.48568,0,0,1-2.64257,1.15967,3.39527,3.39527,0,1,1,0-6.79053Z"/><path d="M293.6809,75.42362h2.3584v.7666h-2.3584Z"/><path d="M296.81664,71.63065h.98243v6.5542h-.98243Z"/><path d="M299.01977,71.63065h2.76074a2.01587,2.01587,0,1,1,0,4.02881h-1.77832v2.52539h-.98242Zm2.63281.86475h-1.65039v2.29931h1.65039a1.15111,1.15111,0,1,0,0-2.29931Z"/><path d="M285.34789,80.6912H286.468l2.09375,5.48291,2.10254-5.48291h1.12012l-2.60352,6.5542h-1.22851Z"/><path d="M292.32836,80.6912h4.40235v.86474h-3.41992v1.916h3.35058v.86475h-3.35058v2.04394h3.41992v.86475h-4.40235Z"/><path d="M68.93579,34.907h.91308v6.52344H73.259v.81445H68.93579Z"/><path d="M76.70239,36.7996a2.581,2.581,0,0,1,2.55273,2.84863v.209H74.95239a1.87281,1.87281,0,0,0,1.91406,1.83789,2.32809,2.32809,0,0,0,1.64062-.67089l.39551.53906a2.88942,2.88942,0,0,1-2.1123.81347,2.79189,2.79189,0,0,1-.08789-5.57714Zm-1.75,2.45312h3.48828a1.72329,1.72329,0,0,0-1.75-1.77148A1.7737,1.7737,0,0,0,74.95239,39.25272Z"/><path d="M81.10278,42.993a2.026,2.026,0,0,0,1.72656.72656,1.52186,1.52186,0,0,0,1.70508-1.59571V41.365a2.21951,2.21951,0,0,1-1.78223.94628c-1.38574,0-2.36523-1.03418-2.36523-2.751,0-1.70508.96777-2.76074,2.36523-2.76074a2.19962,2.19962,0,0,1,1.78223.93457v-.80274h.82519v5.15918c0,1.76074-1.23144,2.31055-2.53027,2.31055a2.71592,2.71592,0,0,1-2.14551-.792Zm3.43164-4.59864a1.95784,1.95784,0,0,0-1.584-.8584c-1.06738,0-1.70507.84766-1.70507,2.02442,0,1.166.63769,2.02441,1.70507,2.02441a1.96691,1.96691,0,0,0,1.584-.86914Z"/><path d="M86.97582,35.47928a.55569.55569,0,0,1,1.11133,0,.55569.55569,0,1,1-1.11133,0Zm.14258,1.45215h.82617v5.31348H87.1184Z"/><path d="M89.8684,41.13358V37.657h-.87988v-.72559h.87988V35.47928h.82617v1.45215H91.7727V37.657H90.69457V40.9578c0,.39551.17579.68164.53907.68164a.79593.79593,0,0,0,.56054-.21973l.24219.61621a1.34735,1.34735,0,0,1-.99023.34082A1.0875,1.0875,0,0,1,89.8684,41.13358Z"/><path d="M92.90454,35.47928a.55568.55568,0,0,1,1.11132,0,.55568.55568,0,1,1-1.11132,0Zm.14355,1.45215h.82422v5.31348h-.82422Z"/><path d="M102.04711,38.63651c0-.6709-.29785-1.10059-.97949-1.10059a1.86041,1.86041,0,0,0-1.4082.81446v3.89453h-.8252v-3.6084c0-.6709-.28613-1.10059-.97949-1.10059a1.85363,1.85363,0,0,0-1.39648.8252v3.88379h-.8252V36.93143h.8252V37.701A2.29771,2.29771,0,0,1,98.175,36.7996a1.36392,1.36392,0,0,1,1.42969.98925,2.23666,2.23666,0,0,1,1.78223-.98925c.96777,0,1.48535.53906,1.48535,1.60546v3.83985h-.8252Z"/><path d="M107.95336,41.63944a2.29813,2.29813,0,0,1-1.76074.7373,1.7695,1.7695,0,0,1-1.85937-1.75976,1.74118,1.74118,0,0,1,1.85937-1.75,2.22177,2.22177,0,0,1,1.76074.72656v-.957c0-.71484-.57129-1.12207-1.34277-1.12207a2.10718,2.10718,0,0,0-1.627.7373l-.38575-.57226a2.781,2.781,0,0,1,2.124-.87988c1.12109,0,2.05664.50586,2.05664,1.793v3.65235h-.8252Zm0-1.51758a1.77833,1.77833,0,0,0-1.46289-.66015,1.16911,1.16911,0,1,0,0,2.32128,1.77833,1.77833,0,0,0,1.46289-.66015Z"/><path d="M110.70239,41.13358V37.657h-.87989v-.72559h.87989V35.47928h.82617v1.45215h1.07812V37.657h-1.07812V40.9578c0,.39551.17578.68164.53906.68164a.796.796,0,0,0,.56055-.21973l.24219.61621a1.34738,1.34738,0,0,1-.99024.34082A1.0875,1.0875,0,0,1,110.70239,41.13358Z"/><path d="M116.19262,36.7996a2.58106,2.58106,0,0,1,2.55274,2.84863v.209h-4.30274a1.87282,1.87282,0,0,0,1.91406,1.83789,2.32813,2.32813,0,0,0,1.64063-.67089l.39551.53906a2.88945,2.88945,0,0,1-2.11231.81347,2.79189,2.79189,0,0,1-.08789-5.57714Zm-1.75,2.45312h3.48828a1.72329,1.72329,0,0,0-1.75-1.77148A1.7737,1.7737,0,0,0,114.44262,39.25272Z"/><path d="M80.425,45.907h.91407v4.46679a2.08188,2.08188,0,1,0,4.1582,0V45.907h.91211v4.47754a2.9922,2.9922,0,0,1-5.98438.01074Z"/><path d="M88.16918,51.94706a2.41062,2.41062,0,0,0,1.75.75879c.81348,0,1.25391-.36329,1.25391-.87989,0-.583-.64941-.7705-1.36523-.94629-.90137-.209-1.92481-.45117-1.92481-1.55175,0-.82422.71582-1.52832,1.98047-1.52832a2.69192,2.69192,0,0,1,1.96973.76953l-.38477.57226a2.07381,2.07381,0,0,0-1.585-.6709c-.72559,0-1.17676.33008-1.17676.80274,0,.51758.60449.68262,1.29785.84765.92481.209,1.99121.47266,1.99121,1.64942,0,.8916-.71484,1.60644-2.08984,1.60644a2.82613,2.82613,0,0,1-2.14551-.83593Z"/><path d="M95.73754,47.7996a2.58051,2.58051,0,0,1,2.55274,2.84863v.209H93.98852a1.8722,1.8722,0,0,0,1.91406,1.83789,2.32412,2.32412,0,0,0,1.63965-.67089l.39648.53906a2.89332,2.89332,0,0,1-2.11328.81347,2.79194,2.79194,0,0,1-.08789-5.57714Zm-1.749,2.45312h3.4873a1.72243,1.72243,0,0,0-1.749-1.77148A1.77234,1.77234,0,0,0,93.98852,50.25272Z"/><path d="M99.72973,47.93143h.82617v.85742a2.25711,2.25711,0,0,1,1.77051-.96777v.84668a1.48741,1.48741,0,0,0-.33008-.03223,1.94187,1.94187,0,0,0-1.44043.84668v3.7627h-.82617Z"/><path d="M103.43676,51.94706a2.4106,2.4106,0,0,0,1.75.75879c.81348,0,1.25391-.36329,1.25391-.87989,0-.583-.64942-.7705-1.36524-.94629-.90136-.209-1.9248-.45117-1.9248-1.55175,0-.82422.71582-1.52832,1.98047-1.52832a2.69188,2.69188,0,0,1,1.96972.76953l-.38476.57226a2.07383,2.07383,0,0,0-1.585-.6709c-.72559,0-1.17676.33008-1.17676.80274,0,.51758.60449.68262,1.29785.84765.92481.209,1.99121.47266,1.99121,1.64942,0,.8916-.71484,1.60644-2.08984,1.60644a2.82611,2.82611,0,0,1-2.14551-.83593Z"/><circle class="cls-17" cx="93.66318" cy="80.35547" r="18"/><g id="user"><ellipse class="cls-3" cx="93.66318" cy="72.25169" rx="5.06687" ry="5.07356"/><path class="cls-3" d="M84.54282,91.53122v-8.1177a6.08426,6.08426,0,0,1,6.08024-6.08827H96.7033a6.08425,6.08425,0,0,1,6.08024,6.08827v8.1177"/></g></svg>