<svg xmlns="http://www.w3.org/2000/svg" viewBox="0 0 650 370"><defs><style>.cls-1,.cls-3{fill:#fff;}.cls-2{fill:#f1f1f1;}.cls-2,.cls-6{stroke:#231f20;}.cls-2,.cls-4,.cls-6,.cls-9{stroke-linecap:round;}.cls-10,.cls-2,.cls-3,.cls-6{stroke-miterlimit:10;}.cls-3{stroke:#999;}.cls-10,.cls-4,.cls-6,.cls-9{fill:none;}.cls-4,.cls-9{stroke:#000;stroke-linejoin:round;}.cls-5{fill:#211e1f;}.cls-7{fill:#010101;}.cls-8{fill:#999;}.cls-9{stroke-width:0.96px;}.cls-10{stroke:#241f20;stroke-dasharray:3 3;}</style></defs><g id="Layer_2" data-name="Layer 2"><g id="Layer_1-2" data-name="Layer 1"><rect class="cls-1" width="650" height="370"/><rect class="cls-2" x="24.4" y="150.25" width="128.45" height="197.09"/><rect class="cls-2" x="166.49" y="150.25" width="128.45" height="197.09"/><rect class="cls-2" x="308.58" y="150.25" width="128.45" height="197.09"/><polyline class="cls-3" points="53.75 223.65 38.86 223.65 38.86 170.79 138.39 170.79 138.39 223.65 123.36 223.65"/><polyline class="cls-3" points="54.09 327.1 38.86 327.1 38.86 244.08 138.39 244.08 138.39 327.1 123.25 327.1"/><polyline class="cls-3" points="195.84 223.65 180.95 223.65 180.95 170.79 280.48 170.79 280.48 223.65 265.45 223.65"/><polyline class="cls-3" points="196.18 327.1 180.95 327.1 180.95 244.08 280.48 244.08 280.48 327.1 265.35 327.1"/><polyline class="cls-3" points="337.93 223.65 323.04 223.65 323.04 170.79 422.57 170.79 422.57 223.65 407.54 223.65"/><polyline class="cls-3" points="338.27 327.1 323.04 327.1 323.04 244.08 422.57 244.08 422.57 327.1 407.44 327.1"/><rect class="cls-4" x="47.43" y="52.54" width="82.56" height="22.32"/><path class="cls-5" d="M77.85,60.23h2.41a1.81,1.81,0,1,1,0,3.62H78.59v2.39h-.74Zm2.32.67H78.59v2.28h1.58a1.14,1.14,0,1,0,0-2.28Z"/><path class="cls-5" d="M83,60.23h.75v6H83Z"/><path class="cls-5" d="M85.1,60.23h.75v5.34h2.79v.67H85.1Z"/><path class="cls-5" d="M92,60.13c3.91-.14,3.91,6.35,0,6.21C88.12,66.49,88.12,60,92,60.13Zm0,.67c-2.91-.13-2.91,5,0,4.88C94.94,65.8,94.94,60.67,92,60.8Z"/><path class="cls-5" d="M97.33,60.9h-1.9v-.67H100v.67H98.08v5.34h-.75Z"/><rect class="cls-4" x="51.35" y="182.98" width="74.55" height="22.32"/><path class="cls-5" d="M74.81,190.67h3.93v.66H75.56v1.94h3.12v.66H75.56V196h3.18v.66H74.81Z"/><path class="cls-5" d="M80.59,191.83v4.84h-.75v-6h.77l3.45,4.74v-4.74h.75v6h-.72Z"/><path class="cls-5" d="M85.5,190.67h.86l2,5.18,2-5.18h.85l-2.42,6h-.93Z"/><path class="cls-5" d="M94.51,190.57c3.91-.14,3.91,6.35,0,6.21C90.6,196.92,90.6,190.43,94.51,190.57Zm0,.66c-2.91-.12-2.91,5,0,4.88C97.42,196.23,97.42,191.11,94.51,191.23Z"/><path class="cls-5" d="M100,194.13l-2.37-3.46h.87l1.86,2.79,1.87-2.79h.87l-2.36,3.46v2.54H100Z"/><rect class="cls-4" x="140.43" y="52.54" width="82.56" height="22.32"/><path class="cls-5" d="M169.36,60.13a2.86,2.86,0,0,1,2.33,1.13l-.59.37a2.21,2.21,0,0,0-1.74-.83,2.45,2.45,0,0,0,0,4.89A2.36,2.36,0,0,0,171,65V63.81h-2.06v-.66h2.81v2.17a3.14,3.14,0,0,1-2.36,1,3.11,3.11,0,0,1,0-6.22Z"/><path class="cls-5" d="M176.6,64.9h-3L173,66.24h-.83l2.42-6h.92l2.42,6h-.82Zm-2.83-.66h2.6l-1.3-3.34Z"/><path class="cls-5" d="M178.65,60.23h.74v5.34h2.79v.67h-3.53Z"/><path class="cls-5" d="M183.15,60.23h.74v5.34h2.79v.67h-3.53Z"/><path class="cls-5" d="M187.65,60.23h3.93v.67h-3.19v1.93h3.13v.67h-3.13v2.07h3.19v.67h-3.93Z"/><path class="cls-5" d="M194.42,63.7l-2.36-3.47h.87L194.79,63l1.87-2.79h.87l-2.36,3.47v2.54h-.75Z"/><rect class="cls-4" x="233.43" y="52.54" width="82.56" height="22.32"/><path class="cls-5" d="M258.09,63.24a3,3,0,0,1,3.06-3.11,2.73,2.73,0,0,1,2.31,1.19l-.63.35a2.06,2.06,0,0,0-1.68-.87,2.45,2.45,0,0,0,0,4.88,2,2,0,0,0,1.68-.88l.64.36a2.75,2.75,0,0,1-2.32,1.18A3,3,0,0,1,258.09,63.24Z"/><path class="cls-5" d="M264.33,60.23h.75v6h-.75Z"/><path class="cls-5" d="M267.88,60.9H266v-.67h4.55v.67h-1.91v5.34h-.74Z"/><path class="cls-5" d="M274.61,64.9h-3L271,66.24h-.82l2.41-6h.93l2.42,6h-.83Zm-2.83-.66h2.6l-1.29-3.34Z"/><path class="cls-5" d="M276.66,60.23h2a3,3,0,1,1,0,6h-2Zm2,5.34a2.34,2.34,0,0,0,0-4.67h-1.3v4.67Z"/><path class="cls-5" d="M282.87,60.23h3.93v.67h-3.18v1.93h3.12v.67h-3.12v2.07h3.18v.67h-3.93Z"/><path class="cls-5" d="M287.9,60.23h.75v5.34h2.79v.67H287.9Z"/><rect class="cls-4" x="326.43" y="52.54" width="82.56" height="22.32"/><path class="cls-5" d="M360.78,61.24l-2,5h-.3l-2-5v5h-.74v-6h1.07l1.86,4.57,1.87-4.57h1.07v6h-.74Z"/><path class="cls-5" d="M362.84,60.23h.74v6h-.74Z"/><path class="cls-5" d="M367.13,63.68l-1.92,2.56h-.91l2.34-3.08-2.2-2.93h.91l1.78,2.41,1.77-2.41h.91l-2.19,2.92L370,66.24h-.9Z"/><path class="cls-5" d="M370.68,60.23h3.93v.67h-3.19v1.93h3.13v.67h-3.13v2.07h3.19v.67h-3.93Z"/><path class="cls-5" d="M377.65,63.85h-1.2v2.39h-.74v-6h2.41A1.75,1.75,0,0,1,380,62a1.66,1.66,0,0,1-1.56,1.75l1.62,2.45h-.88Zm.38-3h-1.58v2.29H378a1.15,1.15,0,1,0,0-2.29Z"/><rect class="cls-4" x="47.57" y="83.38" width="175.42" height="22.32"/><path class="cls-5" d="M70.37,91.07h2.41a1.81,1.81,0,1,1,0,3.62H71.12v2.39h-.75Zm2.32.67H71.12V94h1.57a1.15,1.15,0,1,0,0-2.29Z"/><path class="cls-5" d="M78.3,91c3.91-.13,3.91,6.36,0,6.22C74.38,97.33,74.38,90.83,78.3,91Zm0,.67c-2.91-.13-2.91,5,0,4.88C81.2,96.64,81.2,91.52,78.3,91.64Z"/><path class="cls-5" d="M82.36,91.07h.74v5.34h2.79v.67H82.36Z"/><path class="cls-5" d="M86.86,91.07h.74v6h-.74Z"/><path class="cls-5" d="M88.67,94.08A3,3,0,0,1,91.73,91,2.73,2.73,0,0,1,94,92.16l-.63.35a2,2,0,0,0-1.68-.87,2.45,2.45,0,0,0,0,4.88,2,2,0,0,0,1.68-.87l.64.35a2.76,2.76,0,0,1-2.32,1.19A3,3,0,0,1,88.67,94.08Z"/><path class="cls-5" d="M96.51,94.54l-2.36-3.47H95l1.86,2.79,1.87-2.79h.87l-2.36,3.47v2.54h-.75Z"/><path class="cls-5" d="M106.32,95.75h-3l-.53,1.33h-.83l2.41-6h.93l2.42,6h-.83Zm-2.82-.67h2.6l-1.3-3.34Z"/><path class="cls-5" d="M109.12,92.23v4.85h-.75v-6h.77l3.46,4.75V91.07h.74v6h-.72Z"/><path class="cls-5" d="M114.66,91.07h2a3,3,0,1,1,0,6h-2Zm2,5.34a2.34,2.34,0,0,0,0-4.67H115.4v4.67Z"/><path class="cls-5" d="M126.88,95.75h-3l-.54,1.33h-.82l2.41-6h.93l2.42,6h-.83Zm-2.83-.67h2.6l-1.29-3.34Z"/><path class="cls-5" d="M129.68,92.23v4.85h-.75v-6h.76l3.46,4.75V91.07h.75v6h-.72Z"/><path class="cls-5" d="M139,95.75h-3l-.53,1.33h-.83l2.41-6h.93l2.42,6h-.83Zm-2.82-.67h2.6l-1.3-3.34Z"/><path class="cls-5" d="M141,91.07h.75v5.34h2.79v.67H141Z"/><path class="cls-5" d="M146.18,94.54l-2.37-3.47h.88l1.86,2.79,1.87-2.79h.87l-2.36,3.47v2.54h-.75Z"/><path class="cls-5" d="M151.47,91.74h-1.9v-.67h4.55v.67h-1.91v5.34h-.74Z"/><path class="cls-5" d="M155,91.07h.75v6H155Z"/><path class="cls-5" d="M156.84,94.08A3,3,0,0,1,159.9,91a2.69,2.69,0,0,1,2.3,1.19l-.63.35a2,2,0,0,0-1.67-.87,2.44,2.44,0,0,0,0,4.88,2,2,0,0,0,1.67-.87l.64.35a2.73,2.73,0,0,1-2.31,1.19A3,3,0,0,1,156.84,94.08Z"/><path class="cls-5" d="M163.16,95.67a2.52,2.52,0,0,0,1.89.85c1.07,0,1.41-.58,1.41-1,0-.72-.73-.91-1.52-1.13-1-.25-2-.52-2-1.7,0-1,.89-1.67,2.07-1.67a2.84,2.84,0,0,1,2.13.84l-.45.55a2.28,2.28,0,0,0-1.74-.72c-.72,0-1.23.39-1.23.95s.69.79,1.46,1c1,.27,2.09.57,2.09,1.83,0,.87-.59,1.77-2.21,1.77a3,3,0,0,1-2.31-1Z"/><path class="cls-5" d="M170.49,91.07h3.93v.67h-3.18v1.93h3.12v.67h-3.12v2.07h3.18v.67h-3.93Z"/><path class="cls-5" d="M176.27,92.23v4.85h-.75v-6h.77l3.45,4.75V91.07h.75v6h-.72Z"/><path class="cls-5" d="M184.65,91A2.86,2.86,0,0,1,187,92.1l-.59.37a2.21,2.21,0,0,0-1.74-.83,2.45,2.45,0,0,0,0,4.89,2.36,2.36,0,0,0,1.61-.65V94.66H184.2V94H187v2.17a3.14,3.14,0,0,1-2.36,1,3.12,3.12,0,0,1,0-6.23Z"/><path class="cls-5" d="M188.13,91.07h.75v6h-.75Z"/><path class="cls-5" d="M190.94,92.23v4.85h-.75v-6H191l3.45,4.75V91.07h.75v6h-.72Z"/><path class="cls-5" d="M196.47,91.07h3.94v.67h-3.19v1.93h3.12v.67h-3.12v2.07h3.19v.67h-3.94Z"/><rect class="cls-4" x="233.43" y="83.38" width="82.56" height="22.32"/><path class="cls-5" d="M249.1,91.07h2.05a3,3,0,1,1,0,6H249.1Zm2.05,5.34a2.34,2.34,0,0,0,0-4.67h-1.31v4.67Z"/><path class="cls-5" d="M258.75,95.75h-3l-.53,1.33h-.83l2.41-6h.93l2.42,6h-.82Zm-2.82-.67h2.6l-1.3-3.34Z"/><path class="cls-5" d="M260.76,95.67a2.54,2.54,0,0,0,1.89.85c1.07,0,1.41-.58,1.41-1,0-.72-.72-.91-1.52-1.13-1-.25-2-.52-2-1.7,0-1,.88-1.67,2.06-1.67a2.81,2.81,0,0,1,2.13.84l-.45.55a2.28,2.28,0,0,0-1.74-.72c-.72,0-1.23.39-1.23.95s.7.79,1.46,1c1,.27,2.1.57,2.1,1.83,0,.87-.6,1.77-2.22,1.77a3,3,0,0,1-2.3-1Z"/><path class="cls-5" d="M270.12,94.32h-3.51v2.76h-.75v-6h.75v2.59h3.51V91.07h.75v6h-.75Z"/><path class="cls-5" d="M272.18,91.07h2.67a1.52,1.52,0,0,1,1.69,1.53A1.37,1.37,0,0,1,275.49,94a1.51,1.51,0,0,1,1.17,1.48,1.57,1.57,0,0,1-1.74,1.62h-2.74Zm2.55,2.6a.93.93,0,0,0,1-1,.94.94,0,0,0-1-1h-1.8v1.93Zm0,2.74a1,1,0,0,0,1.12-1,1,1,0,0,0-1.12-1h-1.83v2.07Z"/><path class="cls-5" d="M280.49,91a3.11,3.11,0,1,1-3,3.11A2.94,2.94,0,0,1,280.49,91Zm0,.67a2.45,2.45,0,1,0,2.2,2.44A2.22,2.22,0,0,0,280.49,91.64Z"/><path class="cls-5" d="M288,95.75H285l-.53,1.33h-.83l2.41-6h.93l2.42,6h-.82Zm-2.83-.67h2.6l-1.3-3.34Z"/><path class="cls-5" d="M292,94.69h-1.2v2.39h-.74v-6h2.41a1.75,1.75,0,0,1,1.88,1.81,1.66,1.66,0,0,1-1.56,1.75l1.62,2.45h-.88Zm.38-3h-1.58V94h1.58a1.15,1.15,0,1,0,0-2.3Z"/><path class="cls-5" d="M295.43,91.07h2.05a3,3,0,1,1,0,6h-2.05Zm2.05,5.34a2.34,2.34,0,0,0,0-4.67h-1.31v4.67Z"/><rect class="cls-4" x="326.43" y="83.38" width="82.56" height="22.32"/><path class="cls-5" d="M359.09,94.69h-1.2v2.39h-.75v-6h2.42a1.75,1.75,0,0,1,1.88,1.81,1.66,1.66,0,0,1-1.56,1.75l1.62,2.45h-.88Zm.38-3h-1.58V94h1.58a1.15,1.15,0,1,0,0-2.3Z"/><path class="cls-5" d="M362.53,91.07h2.67a1.51,1.51,0,0,1,1.68,1.53A1.36,1.36,0,0,1,365.83,94,1.5,1.5,0,0,1,367,95.46a1.57,1.57,0,0,1-1.74,1.62h-2.73Zm2.54,2.6a.93.93,0,0,0,1-1,.94.94,0,0,0-1-1h-1.8v1.93Zm0,2.74a1,1,0,0,0,1.12-1,1,1,0,0,0-1.12-1h-1.84v2.07Z"/><path class="cls-5" d="M371.88,95.75h-3l-.54,1.33h-.82l2.41-6h.93l2.42,6h-.83Zm-2.83-.67h2.6l-1.29-3.34Z"/><path class="cls-5" d="M373.35,94.08A3,3,0,0,1,376.41,91a2.73,2.73,0,0,1,2.31,1.19l-.63.35a2,2,0,0,0-1.68-.87,2.45,2.45,0,0,0,0,4.88,2,2,0,0,0,1.68-.87l.64.35a2.76,2.76,0,0,1-2.32,1.19A3,3,0,0,1,373.35,94.08Z"/><rect class="cls-6" x="24.64" y="30.76" width="413.15" height="96.43"/><rect class="cls-7" x="190.51" y="21.76" width="90.6" height="18"/><path class="cls-1" d="M203.89,32.39V29a2.37,2.37,0,0,1,4.69,0v.89H207V29c0-.36-.26-.6-.77-.6s-.8.24-.8.6v3.4c0,.36.27.6.79.6s.78-.24.78-.6V31.5h1.57v.89a2.37,2.37,0,0,1-4.69,0Z"/><path class="cls-1" d="M209.44,32.39V29c-.18-2.65,4.89-2.65,4.72,0v3.36C214.33,35.05,209.26,35,209.44,32.39Zm3.17,0V29c.12-.8-1.75-.78-1.62,0v3.4C210.86,33.2,212.73,33.2,212.61,32.41Z"/><path class="cls-1" d="M219.65,27.16v7.1h-1.36l-1.85-4v4h-1.35v-7.1h1.35l1.85,4.06V27.16Z"/><path class="cls-1" d="M224.89,28.56h-1.47v5.7h-1.55v-5.7h-1.48v-1.4h4.5Z"/><path class="cls-1" d="M227.94,31.7h-.74v2.56h-1.55v-7.1H228a2,2,0,0,1,2.12,1.94v.66a1.86,1.86,0,0,1-.71,1.5l.92,3h-1.62Zm-.74-1.4h.91a.44.44,0,0,0,.47-.47V29a.43.43,0,0,0-.46-.47h-.92Z"/><path class="cls-1" d="M231,32.39V29c-.18-2.65,4.89-2.65,4.72,0v3.36C235.94,35.05,230.86,35,231,32.39Zm3.17,0V29c.12-.8-1.75-.78-1.62,0v3.4C232.46,33.2,234.34,33.2,234.21,32.41Z"/><path class="cls-1" d="M240.38,32.86v1.4h-3.69v-7.1h1.55v5.7Z"/><path class="cls-1" d="M247.6,29.1V30A2,2,0,0,1,245.49,32h-.82v2.3h-1.55v-7.1h2.36A2,2,0,0,1,247.6,29.1ZM246.05,29a.44.44,0,0,0-.46-.47h-.92v2h.91a.44.44,0,0,0,.47-.48Z"/><path class="cls-1" d="M252.12,32.86v1.4h-3.68v-7.1H250v5.7Z"/><path class="cls-1" d="M256,33h-1.45l-.29,1.25h-1.51l1.53-7.1h2l1.54,7.1H256.3Zm-.72-4-.45,2.56h.9Z"/><path class="cls-1" d="M263.19,27.16v7.1h-1.35l-1.85-4v4h-1.35v-7.1H260l1.85,4.06V27.16Z"/><path class="cls-1" d="M265.73,28.56v1.55h1.72v1.4h-1.72v1.35h2.12v1.4h-3.67v-7.1h3.67v1.4Z"/><rect class="cls-7" x="54.81" y="141.25" width="67.64" height="18"/><path class="cls-1" d="M68.52,151.66v-.28h1.55v.44c0,.51.4.72.83.72a.68.68,0,0,0,.72-.68c0-1.27-3-1-3-3.27a2,2,0,0,1,2.22-2.08,1.94,1.94,0,0,1,2.21,2v.44H71.53v-.54c0-.31-.3-.49-.67-.49a.59.59,0,0,0-.65.6c0,1,3,.79,3,3.21a2.1,2.1,0,0,1-2.31,2.18A2.15,2.15,0,0,1,68.52,151.66Z"/><path class="cls-1" d="M75.61,148.06v1.55h1.72V151H75.61v1.34h2.12v1.4H74.06v-7.09h3.67v1.4Z"/><path class="cls-1" d="M80.85,151.2h-.74v2.55H78.56v-7.09h2.36A2,2,0,0,1,83,148.6v.66a1.86,1.86,0,0,1-.71,1.5l.92,3H81.63Zm-.74-1.4H81a.44.44,0,0,0,.47-.47v-.8a.43.43,0,0,0-.46-.47h-.92Z"/><path class="cls-1" d="M88.71,146.66l-1.5,7.09h-2l-1.49-7.09h1.55l1,4.87,1-4.87Z"/><path class="cls-1" d="M89.5,146.66h1.55v7.09H89.5Z"/><path class="cls-1" d="M92,151.89v-3.36a2.37,2.37,0,0,1,4.69,0v.89H95.09v-.91c0-.36-.26-.6-.77-.6s-.8.24-.8.6v3.4c0,.36.27.59.79.59s.78-.23.78-.59V151h1.57v.89a2.37,2.37,0,0,1-4.69,0Z"/><path class="cls-1" d="M99.11,148.06v1.55h1.72V151H99.11v1.34h2.12v1.4H97.56v-7.09h3.67v1.4Z"/><path class="cls-1" d="M107.07,152.5h-1.45l-.29,1.25h-1.51l1.53-7.09h2l1.54,7.09h-1.54Zm-.72-3.95-.45,2.56h.9Z"/><rect class="cls-7" x="196.9" y="141.25" width="67.64" height="18"/><path class="cls-1" d="M210.73,151.66v-.28h1.55v.44c0,.51.4.72.83.72a.68.68,0,0,0,.72-.68c0-1.27-3-1-3-3.27a2,2,0,0,1,2.22-2.08,1.94,1.94,0,0,1,2.21,2v.44h-1.55v-.54c0-.31-.3-.49-.67-.49a.59.59,0,0,0-.65.6c0,1,3,.79,3,3.21a2.1,2.1,0,0,1-2.31,2.18A2.15,2.15,0,0,1,210.73,151.66Z"/><path class="cls-1" d="M217.82,148.06v1.55h1.72V151h-1.72v1.34h2.12v1.4h-3.67v-7.09h3.67v1.4Z"/><path class="cls-1" d="M223.06,151.2h-.74v2.55h-1.55v-7.09h2.36a2,2,0,0,1,2.12,1.94v.66a1.86,1.86,0,0,1-.71,1.5l.92,3h-1.62Zm-.74-1.4h.91a.44.44,0,0,0,.47-.47v-.8a.43.43,0,0,0-.46-.47h-.92Z"/><path class="cls-1" d="M230.92,146.66l-1.5,7.09h-2l-1.49-7.09h1.55l1,4.87,1-4.87Z"/><path class="cls-1" d="M231.71,146.66h1.55v7.09h-1.55Z"/><path class="cls-1" d="M234.18,151.89v-3.36a2.37,2.37,0,0,1,4.69,0v.89H237.3v-.91c0-.36-.26-.6-.77-.6s-.8.24-.8.6v3.4c0,.36.27.59.79.59s.78-.23.78-.59V151h1.57v.89a2.37,2.37,0,0,1-4.69,0Z"/><path class="cls-1" d="M241.32,148.06v1.55H243V151h-1.72v1.34h2.12v1.4h-3.67v-7.09h3.67v1.4Z"/><path class="cls-1" d="M250.77,151.38v.41a1.93,1.93,0,0,1-2,2h-2.45v-7.09h2.31a1.86,1.86,0,0,1,2,1.77v.51a1.51,1.51,0,0,1-.53,1.12A1.68,1.68,0,0,1,250.77,151.38ZM247.84,148v1.48h.84c.23,0,.41-.22.41-.53v-.5a.43.43,0,0,0-.4-.45Zm1.38,3.35c0-.3-.16-.53-.41-.53h-1v1.58h1c.26,0,.42-.25.42-.55Z"/><rect class="cls-7" x="338.99" y="141.25" width="67.64" height="18"/><path class="cls-1" d="M352.7,151.66v-.28h1.55v.44c0,.51.4.72.83.72a.68.68,0,0,0,.72-.68c0-1.27-3-1-3-3.27a2,2,0,0,1,2.22-2.08,1.94,1.94,0,0,1,2.21,2v.44h-1.55v-.54c0-.31-.3-.49-.67-.49a.59.59,0,0,0-.65.6c0,1,3,.79,3,3.21a2.1,2.1,0,0,1-2.31,2.18A2.15,2.15,0,0,1,352.7,151.66Z"/><path class="cls-1" d="M359.79,148.06v1.55h1.72V151h-1.72v1.34h2.12v1.4h-3.67v-7.09h3.67v1.4Z"/><path class="cls-1" d="M365,151.2h-.74v2.55h-1.55v-7.09h2.36a2,2,0,0,1,2.12,1.94v.66a1.86,1.86,0,0,1-.71,1.5l.92,3h-1.62Zm-.74-1.4h.91a.44.44,0,0,0,.47-.47v-.8a.43.43,0,0,0-.46-.47h-.92Z"/><path class="cls-1" d="M372.89,146.66l-1.5,7.09h-2l-1.49-7.09h1.55l1,4.87,1-4.87Z"/><path class="cls-1" d="M373.68,146.66h1.55v7.09h-1.55Z"/><path class="cls-1" d="M376.16,151.89v-3.36a2.37,2.37,0,0,1,4.68,0v.89h-1.57v-.91c0-.36-.26-.6-.77-.6s-.79.24-.79.6v3.4c0,.36.26.59.78.59s.78-.23.78-.59V151h1.57v.89a2.37,2.37,0,0,1-4.68,0Z"/><path class="cls-1" d="M383.29,148.06v1.55H385V151h-1.72v1.34h2.12v1.4h-3.67v-7.09h3.67v1.4Z"/><path class="cls-1" d="M388.19,151.89v-3.36a2.37,2.37,0,0,1,4.69,0v.89h-1.57v-.91c0-.36-.26-.6-.77-.6s-.8.24-.8.6v3.4c0,.36.27.59.79.59s.78-.23.78-.59V151h1.57v.89a2.37,2.37,0,0,1-4.69,0Z"/><rect class="cls-8" x="53.97" y="214.29" width="69.3" height="18"/><path class="cls-1" d="M66.59,224.92v-3.36a2.37,2.37,0,0,1,4.69,0v.89H69.71v-.91c0-.36-.26-.6-.77-.6s-.8.24-.8.6v3.4c0,.36.27.6.79.6s.78-.24.78-.6V224h1.57v.89a2.37,2.37,0,0,1-4.69,0Z"/><path class="cls-1" d="M72.14,224.92v-3.36c-.18-2.65,4.89-2.65,4.72,0v3.36C77,227.58,72,227.56,72.14,224.92Zm3.17,0v-3.4c.12-.8-1.75-.78-1.62,0v3.4C73.56,225.73,75.43,225.73,75.31,224.94Z"/><path class="cls-1" d="M82.35,219.69v7.1H81l-1.85-4v4H77.79v-7.1h1.35L81,223.75v-4.06Z"/><path class="cls-1" d="M87.59,221.09H86.12v5.7H84.57v-5.7H83.09v-1.4h4.5Z"/><path class="cls-1" d="M90.88,225.54H89.43l-.29,1.25h-1.5l1.52-7.1h2l1.54,7.1H91.17Zm-.72-4-.45,2.56h.9Z"/><path class="cls-1" d="M93.51,219.69h1.55v7.1H93.51Z"/><path class="cls-1" d="M100.59,219.69v7.1H99.23l-1.85-4v4H96v-7.1h1.35l1.85,4.06v-4.06Z"/><path class="cls-1" d="M103.13,221.09v1.55h1.72V224h-1.72v1.35h2.12v1.4h-3.67v-7.1h3.67v1.4Z"/><path class="cls-1" d="M108.37,224.23h-.74v2.56h-1.55v-7.1h2.36a2,2,0,0,1,2.12,1.94v.66a1.86,1.86,0,0,1-.71,1.5l.92,3h-1.62Zm-.74-1.4h.91a.44.44,0,0,0,.47-.47v-.8a.43.43,0,0,0-.46-.47h-.92Z"/><rect class="cls-4" x="51.35" y="256.27" width="74.55" height="22.32"/><path class="cls-5" d="M79.24,264h3.94v.66H80v1.94h3.12v.67H80V270h-.75Z"/><path class="cls-5" d="M84.07,264h.68v6h-.68Z"/><path class="cls-5" d="M88.73,269.47a1.91,1.91,0,0,1-1.44.6,1.44,1.44,0,0,1-1.52-1.44,1.42,1.42,0,0,1,1.52-1.43,1.84,1.84,0,0,1,1.44.59V267c0-.59-.47-.92-1.1-.92a1.7,1.7,0,0,0-1.33.61l-.32-.47a2.27,2.27,0,0,1,1.74-.72c.92,0,1.68.41,1.68,1.46v3h-.67Zm0-1.24a1.46,1.46,0,0,0-1.2-.54,1,1,0,1,0,0,1.89,1.46,1.46,0,0,0,1.2-.54Z"/><path class="cls-5" d="M90.64,268.9a2,2,0,0,0,1.43.62c.66,0,1-.3,1-.72s-.53-.63-1.11-.77c-.74-.17-1.58-.37-1.58-1.27,0-.68.59-1.25,1.62-1.25a2.2,2.2,0,0,1,1.61.63l-.31.46a1.71,1.71,0,0,0-1.3-.54c-.59,0-1,.27-1,.65s.49.56,1.06.7c.76.17,1.63.38,1.63,1.35,0,.73-.58,1.31-1.71,1.31a2.37,2.37,0,0,1-1.76-.68Z"/><path class="cls-5" d="M96.15,268l-.72.71V270h-.67v-6h.67v4l2.29-2.32h.85l-1.92,2L98.58,270h-.86Z"/><rect class="cls-4" x="51.35" y="285.16" width="74.55" height="22.32"/><path class="cls-5" d="M75.84,292.85h2.42a1.81,1.81,0,1,1,0,3.62H76.59v2.39h-.75Zm2.33.67H76.59v2.28h1.58a1.14,1.14,0,1,0,0-2.28Z"/><path class="cls-5" d="M81.24,300a.62.62,0,0,0,.65-.46l.29-.66-1.82-4.39h.73l1.45,3.56L84,294.51h.74l-2.18,5.23a1.29,1.29,0,0,1-1.28.88,2.53,2.53,0,0,1-.49-.06l.11-.62A.9.9,0,0,0,81.24,300Z"/><path class="cls-5" d="M85.46,298V295.1h-.72v-.59h.72v-1.19h.68v1.19H87v.59h-.88v2.7c0,.33.14.56.44.56a.65.65,0,0,0,.46-.18l.2.5a1.08,1.08,0,0,1-.81.28A.89.89,0,0,1,85.46,298Z"/><path class="cls-5" d="M90.83,296c0-.76-.4-1-1-1a1.72,1.72,0,0,0-1.29.68v3.18h-.67v-6h.67v2.29a2.17,2.17,0,0,1,1.56-.74,1.22,1.22,0,0,1,1.38,1.39v3.07h-.67Z"/><path class="cls-5" d="M92.51,296.68c-.16-3,4.46-3,4.31,0C97,299.65,92.35,299.65,92.51,296.68Zm3.59,0a1.46,1.46,0,1,0-2.89,0A1.46,1.46,0,1,0,96.1,296.68Z"/><path class="cls-5" d="M100.76,296c0-.76-.39-1-1-1a1.67,1.67,0,0,0-1.28.68v3.18h-.68v-4.35h.68v.63a2.14,2.14,0,0,1,1.54-.74,1.24,1.24,0,0,1,1.39,1.4v3.06h-.67Z"/><rect class="cls-8" x="53.97" y="317.73" width="69.3" height="18"/><path class="cls-1" d="M66.59,328.36V325a2.37,2.37,0,0,1,4.69,0v.89H69.71V325c0-.36-.26-.6-.77-.6s-.8.24-.8.6v3.4c0,.36.27.6.79.6s.78-.24.78-.6v-.91h1.57v.89a2.37,2.37,0,0,1-4.69,0Z"/><path class="cls-1" d="M72.14,328.36V325c-.18-2.64,4.89-2.65,4.72,0v3.36C77,331,72,331,72.14,328.36Zm3.17,0V325c.12-.8-1.75-.78-1.62,0v3.4C73.56,329.17,75.43,329.17,75.31,328.38Z"/><path class="cls-1" d="M82.35,323.13v7.1H81l-1.85-4v4H77.79v-7.1h1.35L81,327.19v-4.06Z"/><path class="cls-1" d="M87.59,324.53H86.12v5.7H84.57v-5.7H83.09v-1.4h4.5Z"/><path class="cls-1" d="M90.88,329H89.43l-.29,1.25h-1.5l1.52-7.1h2l1.54,7.1H91.17Zm-.72-4-.45,2.56h.9Z"/><path class="cls-1" d="M93.51,323.13h1.55v7.1H93.51Z"/><path class="cls-1" d="M100.59,323.13v7.1H99.23l-1.85-4v4H96v-7.1h1.35l1.85,4.06v-4.06Z"/><path class="cls-1" d="M103.13,324.53v1.55h1.72v1.4h-1.72v1.35h2.12v1.4h-3.67v-7.1h3.67v1.4Z"/><path class="cls-1" d="M108.37,327.67h-.74v2.56h-1.55v-7.1h2.36a2,2,0,0,1,2.12,1.94v.66a1.86,1.86,0,0,1-.71,1.5l.92,3h-1.62Zm-.74-1.4h.91a.44.44,0,0,0,.47-.47V325a.43.43,0,0,0-.46-.47h-.92Z"/><rect class="cls-4" x="193.44" y="182.98" width="74.55" height="22.32"/><path class="cls-5" d="M216.9,190.67h3.94v.66h-3.19v1.94h3.12v.66h-3.12V196h3.19v.66H216.9Z"/><path class="cls-5" d="M222.68,191.83v4.84h-.75v-6h.77l3.45,4.74v-4.74h.75v6h-.72Z"/><path class="cls-5" d="M227.59,190.67h.86l2,5.18,2-5.18h.85l-2.42,6H230Z"/><path class="cls-5" d="M236.6,190.57c3.92-.14,3.91,6.35,0,6.21C232.69,196.92,232.69,190.43,236.6,190.57Zm0,.66c-2.9-.12-2.91,5,0,4.88C239.51,196.23,239.51,191.11,236.6,191.23Z"/><path class="cls-5" d="M242.05,194.13l-2.37-3.46h.87l1.87,2.79,1.86-2.79h.87l-2.36,3.46v2.54h-.74Z"/><rect class="cls-8" x="196.07" y="214.29" width="69.3" height="18"/><path class="cls-1" d="M208.68,224.92v-3.36a2.37,2.37,0,0,1,4.69,0v.89H211.8v-.91c0-.36-.26-.6-.77-.6s-.8.24-.8.6v3.4c0,.36.27.6.79.6s.78-.24.78-.6V224h1.57v.89a2.37,2.37,0,0,1-4.69,0Z"/><path class="cls-1" d="M214.23,224.92v-3.36c-.18-2.65,4.89-2.65,4.72,0v3.36C219.13,227.58,214.05,227.56,214.23,224.92Zm3.17,0v-3.4c.12-.8-1.75-.78-1.62,0v3.4C215.65,225.73,217.53,225.73,217.4,224.94Z"/><path class="cls-1" d="M224.44,219.69v7.1h-1.36l-1.85-4v4h-1.35v-7.1h1.35l1.85,4.06v-4.06Z"/><path class="cls-1" d="M229.68,221.09h-1.47v5.7h-1.55v-5.7h-1.47v-1.4h4.49Z"/><path class="cls-1" d="M233,225.54h-1.44l-.29,1.25h-1.51l1.53-7.1h2l1.54,7.1h-1.54Zm-.71-4-.45,2.56h.9Z"/><path class="cls-1" d="M235.6,219.69h1.55v7.1H235.6Z"/><path class="cls-1" d="M242.68,219.69v7.1h-1.36l-1.84-4v4h-1.35v-7.1h1.35l1.84,4.06v-4.06Z"/><path class="cls-1" d="M245.22,221.09v1.55h1.72V224h-1.72v1.35h2.12v1.4h-3.67v-7.1h3.67v1.4Z"/><path class="cls-1" d="M250.46,224.23h-.74v2.56h-1.55v-7.1h2.36a2,2,0,0,1,2.12,1.94v.66a1.86,1.86,0,0,1-.71,1.5l.92,3h-1.62Zm-.74-1.4h.91a.44.44,0,0,0,.47-.47v-.8a.43.43,0,0,0-.46-.47h-.92Z"/><rect class="cls-4" x="193.44" y="256.27" width="74.55" height="22.32"/><path class="cls-5" d="M199.48,267.1c0-.77-.39-1-1-1a1.71,1.71,0,0,0-1.29.68V270h-.67v-6h.67v2.29a2.13,2.13,0,0,1,1.56-.74,1.22,1.22,0,0,1,1.39,1.38V270h-.68Z"/><path class="cls-5" d="M201.55,269.05v-2.84h-.72v-.6h.72v-1.18h.68v1.18h.88v.6h-.88v2.7c0,.32.14.56.44.56a.65.65,0,0,0,.46-.18l.2.5a1.14,1.14,0,0,1-.81.28A.9.9,0,0,1,201.55,269.05Z"/><path class="cls-5" d="M204.11,269.05v-2.84h-.72v-.6h.72v-1.18h.67v1.18h.89v.6h-.89v2.7c0,.32.15.56.44.56a.65.65,0,0,0,.46-.18l.2.5a1.1,1.1,0,0,1-.81.28C204.43,270.07,204.11,269.7,204.11,269.05Z"/><path class="cls-5" d="M206.53,271.62v-6h.67v.65a1.83,1.83,0,0,1,1.47-.75c1.15,0,1.94.86,1.94,2.27s-.79,2.29-1.94,2.29a1.82,1.82,0,0,1-1.47-.76v2.31Zm2-5.51a1.62,1.62,0,0,0-1.3.69v2a1.65,1.65,0,0,0,1.3.7c.87,0,1.4-.72,1.4-1.69S209.37,266.11,208.5,266.11Z"/><path class="cls-5" d="M211.58,268.9a2,2,0,0,0,1.43.62c.67,0,1-.3,1-.72s-.54-.63-1.12-.77c-.74-.17-1.58-.37-1.58-1.27,0-.68.59-1.25,1.62-1.25a2.24,2.24,0,0,1,1.62.63l-.32.46a1.71,1.71,0,0,0-1.3-.54c-.59,0-1,.27-1,.65s.5.56,1.06.7c.76.17,1.63.38,1.63,1.35,0,.73-.58,1.31-1.71,1.31a2.33,2.33,0,0,1-1.75-.68Z"/><path class="cls-5" d="M216.06,269.06a.5.5,0,0,1,.49.5.49.49,0,0,1-.49.49.5.5,0,0,1-.5-.49A.51.51,0,0,1,216.06,269.06Z"/><path class="cls-5" d="M219.53,265.51a1.87,1.87,0,0,1,1.6.75l-.45.42a1.29,1.29,0,0,0-1.11-.57,1.69,1.69,0,0,0,0,3.36,1.31,1.31,0,0,0,1.11-.57l.45.41a1.86,1.86,0,0,1-1.6.76,2.28,2.28,0,0,1,0-4.56Z"/><path class="cls-5" d="M222,265.61h.68v.71a1.84,1.84,0,0,1,1.45-.8v.7a1.12,1.12,0,0,0-.27,0,1.58,1.58,0,0,0-1.18.69V270H222Z"/><path class="cls-5" d="M226.75,265.51a2.11,2.11,0,0,1,2.09,2.33V268h-3.52a1.53,1.53,0,0,0,1.57,1.5,1.91,1.91,0,0,0,1.34-.55l.32.44a2.32,2.32,0,0,1-1.73.67,2.28,2.28,0,0,1-.07-4.56Zm-1.43,2h2.85a1.41,1.41,0,0,0-1.43-1.45A1.46,1.46,0,0,0,225.32,267.51Z"/><path class="cls-5" d="M232.56,269.47a1.91,1.91,0,0,1-1.44.6,1.44,1.44,0,0,1-1.52-1.44,1.42,1.42,0,0,1,1.52-1.43,1.84,1.84,0,0,1,1.44.59V267c0-.59-.47-.92-1.1-.92a1.7,1.7,0,0,0-1.33.61l-.32-.47a2.27,2.27,0,0,1,1.74-.72c.92,0,1.68.41,1.68,1.46v3h-.67Zm0-1.24a1.46,1.46,0,0,0-1.2-.54,1,1,0,1,0,0,1.89,1.46,1.46,0,0,0,1.2-.54Z"/><path class="cls-5" d="M234.63,269.05v-2.84h-.72v-.6h.72v-1.18h.67v1.18h.88v.6h-.88v2.7c0,.32.15.56.44.56a.65.65,0,0,0,.46-.18l.2.5a1.1,1.1,0,0,1-.81.28C235,270.07,234.63,269.7,234.63,269.05Z"/><path class="cls-5" d="M238.94,265.51a2.11,2.11,0,0,1,2.09,2.33V268h-3.52a1.52,1.52,0,0,0,1.56,1.5,1.89,1.89,0,0,0,1.34-.55l.33.44a2.34,2.34,0,0,1-1.73.67,2.28,2.28,0,0,1-.07-4.56Zm-1.43,2h2.85a1.41,1.41,0,0,0-1.43-1.45A1.45,1.45,0,0,0,237.51,267.51Z"/><path class="cls-5" d="M242,268.9a2,2,0,0,0,1.43.62c.66,0,1-.3,1-.72s-.54-.63-1.12-.77c-.74-.17-1.58-.37-1.58-1.27,0-.68.59-1.25,1.62-1.25a2.24,2.24,0,0,1,1.62.63l-.32.46a1.71,1.71,0,0,0-1.3-.54c-.59,0-1,.27-1,.65s.5.56,1.06.7c.76.17,1.63.38,1.63,1.35,0,.73-.58,1.31-1.71,1.31a2.33,2.33,0,0,1-1.75-.68Z"/><path class="cls-5" d="M248,265.51a2.11,2.11,0,0,1,2.09,2.33V268h-3.52a1.53,1.53,0,0,0,1.57,1.5,1.93,1.93,0,0,0,1.34-.55l.32.44a2.34,2.34,0,0,1-1.73.67,2.28,2.28,0,0,1-.07-4.56Zm-1.43,2h2.85a1.41,1.41,0,0,0-1.43-1.45A1.45,1.45,0,0,0,246.58,267.51Z"/><path class="cls-5" d="M251.1,265.61h.67v.71a1.86,1.86,0,0,1,1.45-.8v.7a1.06,1.06,0,0,0-.27,0,1.6,1.6,0,0,0-1.18.69V270h-.67Z"/><path class="cls-5" d="M253.33,265.61h.73l1.45,3.57,1.44-3.57h.74L255.88,270h-.74Z"/><path class="cls-5" d="M260.19,265.51a2.11,2.11,0,0,1,2.09,2.33V268h-3.53a1.54,1.54,0,0,0,1.57,1.5,1.89,1.89,0,0,0,1.34-.55l.33.44a2.35,2.35,0,0,1-1.73.67,2.28,2.28,0,0,1-.07-4.56Zm-1.44,2h2.86a1.41,1.41,0,0,0-1.43-1.45A1.46,1.46,0,0,0,258.75,267.51Z"/><path class="cls-5" d="M263.27,265.61H264v.71a1.84,1.84,0,0,1,1.45-.8v.7a1.06,1.06,0,0,0-.27,0,1.58,1.58,0,0,0-1.18.69V270h-.68Z"/><rect class="cls-4" x="193.44" y="285.16" width="74.55" height="22.32"/><path class="cls-5" d="M217.27,294v4.85h-.75v-6h.76l3.46,4.74v-4.74h.75v6h-.72Z"/><path class="cls-5" d="M222.52,296.68c-.16-3,4.46-3,4.31,0C227,299.65,222.36,299.65,222.52,296.68Zm3.59,0a1.46,1.46,0,1,0-2.89,0A1.46,1.46,0,1,0,226.11,296.68Z"/><path class="cls-5" d="M231,298.21a1.82,1.82,0,0,1-1.47.75c-1.13,0-1.93-.86-1.93-2.27s.79-2.29,1.93-2.29a1.83,1.83,0,0,1,1.47.76v-2.31h.68v6H231Zm0-2.51a1.64,1.64,0,0,0-1.3-.7c-.88,0-1.4.72-1.4,1.69s.52,1.67,1.4,1.67a1.62,1.62,0,0,0,1.3-.68Z"/><path class="cls-5" d="M234.81,294.4a2.12,2.12,0,0,1,2.09,2.33v.17h-3.52a1.53,1.53,0,0,0,1.56,1.51,1.89,1.89,0,0,0,1.34-.55l.33.44a2.38,2.38,0,0,1-1.73.66,2.15,2.15,0,0,1-2.22-2.28A2.18,2.18,0,0,1,234.81,294.4Zm-1.43,2h2.85A1.41,1.41,0,0,0,234.8,295,1.44,1.44,0,0,0,233.38,296.41Z"/><path class="cls-5" d="M238.19,298a.5.5,0,0,1,.5.49.51.51,0,0,1-.5.5.5.5,0,0,1-.49-.5A.49.49,0,0,1,238.19,298Z"/><path class="cls-5" d="M240.84,299.28a1.18,1.18,0,0,1-1.27,1.34,1.77,1.77,0,0,1-.49-.06l.09-.57a.86.86,0,0,0,.32.05c.4,0,.68-.21.68-.76v-4.77h.67Zm-.79-5.93a.46.46,0,1,1,.45.45A.45.45,0,0,1,240.05,293.35Z"/><path class="cls-5" d="M242.08,297.79a2,2,0,0,0,1.43.62c.66,0,1-.29,1-.72s-.54-.63-1.12-.77c-.74-.17-1.58-.37-1.58-1.27,0-.67.59-1.25,1.62-1.25a2.24,2.24,0,0,1,1.62.63l-.32.47a1.68,1.68,0,0,0-1.3-.55c-.59,0-1,.27-1,.66s.5.55,1.06.69c.76.17,1.63.39,1.63,1.35,0,.73-.58,1.31-1.71,1.31a2.29,2.29,0,0,1-1.75-.68Z"/><rect class="cls-8" x="196.07" y="317.73" width="69.3" height="18"/><path class="cls-1" d="M208.68,328.36V325a2.37,2.37,0,0,1,4.69,0v.89H211.8V325c0-.36-.26-.6-.77-.6s-.8.24-.8.6v3.4c0,.36.27.6.79.6s.78-.24.78-.6v-.91h1.57v.89a2.37,2.37,0,0,1-4.69,0Z"/><path class="cls-1" d="M214.23,328.36V325a2.39,2.39,0,0,1,4.72,0v3.36a2.39,2.39,0,0,1-4.72,0Zm3.17,0V325c.12-.8-1.75-.78-1.62,0v3.4C215.65,329.17,217.53,329.17,217.4,328.38Z"/><path class="cls-1" d="M224.44,323.13v7.1h-1.36l-1.85-4v4h-1.35v-7.1h1.35l1.85,4.06v-4.06Z"/><path class="cls-1" d="M229.68,324.53h-1.47v5.7h-1.55v-5.7h-1.47v-1.4h4.49Z"/><path class="cls-1" d="M233,329h-1.44l-.29,1.25h-1.51l1.53-7.1h2l1.54,7.1h-1.54Zm-.71-4-.45,2.56h.9Z"/><path class="cls-1" d="M235.6,323.13h1.55v7.1H235.6Z"/><path class="cls-1" d="M242.68,323.13v7.1h-1.36l-1.84-4v4h-1.35v-7.1h1.35l1.84,4.06v-4.06Z"/><path class="cls-1" d="M245.22,324.53v1.55h1.72v1.4h-1.72v1.35h2.12v1.4h-3.67v-7.1h3.67v1.4Z"/><path class="cls-1" d="M250.46,327.67h-.74v2.56h-1.55v-7.1h2.36a2,2,0,0,1,2.12,1.94v.66a1.86,1.86,0,0,1-.71,1.5l.92,3h-1.62Zm-.74-1.4h.91a.44.44,0,0,0,.47-.47V325a.43.43,0,0,0-.46-.47h-.92Z"/><rect class="cls-4" x="335.53" y="182.98" width="74.55" height="22.32"/><path class="cls-5" d="M359,190.67h3.94v.66h-3.19v1.94h3.12v.66h-3.12V196h3.19v.66H359Z"/><path class="cls-5" d="M364.77,191.83v4.84H364v-6h.77l3.46,4.74v-4.74H369v6h-.72Z"/><path class="cls-5" d="M369.68,190.67h.86l2,5.18,2-5.18h.86l-2.43,6h-.92Z"/><path class="cls-5" d="M378.69,190.57c3.92-.14,3.92,6.35,0,6.21C374.78,196.92,374.78,190.43,378.69,190.57Zm0,.66c-2.9-.12-2.9,5,0,4.88C381.6,196.23,381.6,191.11,378.69,191.23Z"/><path class="cls-5" d="M384.14,194.13l-2.37-3.46h.87l1.87,2.79,1.86-2.79h.88l-2.36,3.46v2.54h-.75Z"/><rect class="cls-4" x="452.49" y="177.17" width="82.56" height="30.49"/><path class="cls-5" d="M476.7,183.85h.75v6h-.75Z"/><path class="cls-5" d="M479.51,185v4.84h-.75v-6h.77L483,188.6v-4.75h.75v6H483Z"/><path class="cls-5" d="M487.89,183.76a2.85,2.85,0,0,1,2.33,1.12l-.59.37a2.21,2.21,0,0,0-1.74-.83,2.45,2.45,0,0,0,0,4.89,2.36,2.36,0,0,0,1.61-.65v-1.22h-2.06v-.67h2.81v2.17a3.14,3.14,0,0,1-2.36,1,3.11,3.11,0,0,1,0-6.22Z"/><path class="cls-5" d="M493.32,187.47h-1.2v2.39h-.75v-6h2.41a1.76,1.76,0,0,1,1.89,1.81,1.66,1.66,0,0,1-1.56,1.75l1.62,2.45h-.88Zm.37-2.95h-1.57v2.3h1.57a1.15,1.15,0,1,0,0-2.3Z"/><path class="cls-5" d="M496.75,183.85h3.94v.67H497.5v1.94h3.12v.66H497.5v2.07h3.19v.67h-3.94Z"/><path class="cls-5" d="M501.86,188.45a2.56,2.56,0,0,0,1.89.85c1.08,0,1.42-.58,1.42-1,0-.72-.73-.92-1.52-1.14-1-.25-2-.52-2-1.7,0-1,.89-1.67,2.06-1.67a2.85,2.85,0,0,1,2.14.84l-.45.55a2.32,2.32,0,0,0-1.74-.72c-.72,0-1.23.39-1.23.95s.69.79,1.45,1c1,.27,2.1.57,2.1,1.83,0,.88-.59,1.77-2.21,1.77a3,3,0,0,1-2.31-1Z"/><path class="cls-5" d="M507.05,188.45a2.52,2.52,0,0,0,1.89.85c1.07,0,1.41-.58,1.41-1,0-.72-.73-.92-1.52-1.14-1-.25-2-.52-2-1.7,0-1,.88-1.67,2.06-1.67a2.81,2.81,0,0,1,2.13.84l-.45.55a2.32,2.32,0,0,0-1.74-.72c-.72,0-1.23.39-1.23.95s.69.79,1.46,1c1,.27,2.1.57,2.1,1.83,0,.88-.6,1.77-2.22,1.77a3,3,0,0,1-2.3-1Z"/><path class="cls-5" d="M477.35,194.76a2.85,2.85,0,0,1,2.33,1.12l-.59.37a2.21,2.21,0,0,0-1.74-.83,2.45,2.45,0,0,0,0,4.89,2.36,2.36,0,0,0,1.61-.65v-1.22H476.9v-.67h2.81v2.17a3.14,3.14,0,0,1-2.36,1,3.11,3.11,0,0,1,0-6.22Z"/><path class="cls-5" d="M484.59,199.53h-3l-.53,1.33h-.83l2.42-6h.92l2.43,6h-.83Zm-2.83-.67h2.6l-1.29-3.34Z"/><path class="cls-5" d="M487.52,195.52h-1.9v-.67h4.55v.67h-1.9v5.34h-.75Z"/><path class="cls-5" d="M491.07,194.85H495v.67h-3.19v1.94H495v.66h-3.13v2.07H495v.67h-3.94Z"/><path class="cls-5" d="M499.37,196l-1.32,4.84h-.81l-1.71-6h.83l1.33,5,1.38-5h.62l1.38,5,1.32-5h.83l-1.71,6h-.81Z"/><path class="cls-5" d="M507.32,199.53h-3l-.53,1.33h-.83l2.41-6h.93l2.42,6h-.83Zm-2.83-.67h2.6l-1.29-3.34Z"/><path class="cls-5" d="M510.55,198.32l-2.37-3.47h.88l1.86,2.8,1.86-2.8h.88l-2.36,3.47v2.54h-.75Z"/><rect class="cls-4" x="542.66" y="177.17" width="82.56" height="30.49"/><path class="cls-5" d="M568.52,183.85h3.94v.67h-3.19v1.94h3.13v.66h-3.13v2.07h3.19v.67h-3.94Z"/><path class="cls-5" d="M576.4,183.76a2.85,2.85,0,0,1,2.33,1.12l-.59.37a2.21,2.21,0,0,0-1.74-.83,2.45,2.45,0,0,0,0,4.89,2.36,2.36,0,0,0,1.61-.65v-1.22H576v-.67h2.81v2.17a3.14,3.14,0,0,1-2.36,1,3.11,3.11,0,0,1,0-6.22Z"/><path class="cls-5" d="M581.83,187.47h-1.2v2.39h-.75v-6h2.41a1.76,1.76,0,0,1,1.89,1.81,1.66,1.66,0,0,1-1.56,1.75l1.62,2.45h-.88Zm.38-2.95h-1.58v2.3h1.58a1.15,1.15,0,1,0,0-2.3Z"/><path class="cls-5" d="M585.26,183.85h3.94v.67H586v1.94h3.13v.66H586v2.07h3.19v.67h-3.94Z"/><path class="cls-5" d="M590.38,188.45a2.52,2.52,0,0,0,1.89.85c1.07,0,1.41-.58,1.41-1,0-.72-.73-.92-1.52-1.14-1-.25-2-.52-2-1.7,0-1,.88-1.67,2.06-1.67a2.83,2.83,0,0,1,2.13.84l-.45.55a2.32,2.32,0,0,0-1.74-.72c-.72,0-1.23.39-1.23.95s.69.79,1.46,1c1,.27,2.1.57,2.1,1.83,0,.88-.6,1.77-2.22,1.77a3,3,0,0,1-2.3-1Z"/><path class="cls-5" d="M595.56,188.45a2.54,2.54,0,0,0,1.89.85c1.07,0,1.41-.58,1.41-1,0-.72-.73-.92-1.52-1.14-1-.25-2-.52-2-1.7,0-1,.88-1.67,2.06-1.67a2.81,2.81,0,0,1,2.13.84l-.45.55a2.31,2.31,0,0,0-1.73-.72c-.72,0-1.24.39-1.24.95s.7.79,1.46,1c1,.27,2.1.57,2.1,1.83,0,.88-.6,1.77-2.22,1.77a3,3,0,0,1-2.3-1Z"/><path class="cls-5" d="M567.52,194.76a2.85,2.85,0,0,1,2.33,1.12l-.6.37a2.18,2.18,0,0,0-1.73-.83,2.45,2.45,0,0,0,0,4.89,2.36,2.36,0,0,0,1.61-.65v-1.22h-2.06v-.67h2.81v2.17a3.14,3.14,0,0,1-2.36,1,3.11,3.11,0,0,1,0-6.22Z"/><path class="cls-5" d="M574.75,199.53h-3l-.53,1.33h-.83l2.41-6h.93l2.42,6h-.82Zm-2.82-.67h2.6l-1.3-3.34Z"/><path class="cls-5" d="M577.69,195.52h-1.9v-.67h4.55v.67h-1.91v5.34h-.74Z"/><path class="cls-5" d="M581.24,194.85h3.94v.67H582v1.94h3.12v.66H582v2.07h3.19v.67h-3.94Z"/><path class="cls-5" d="M589.54,196l-1.32,4.84h-.81l-1.71-6h.82l1.34,5,1.37-5h.63l1.37,5,1.33-5h.82l-1.71,6h-.81Z"/><path class="cls-5" d="M597.49,199.53h-3l-.53,1.33h-.82l2.41-6h.92l2.43,6H598Zm-2.83-.67h2.6L596,195.52Z"/><path class="cls-5" d="M600.72,198.32l-2.37-3.47h.87l1.87,2.8,1.86-2.8h.87l-2.36,3.47v2.54h-.74Z"/><rect class="cls-8" x="338.16" y="214.29" width="69.3" height="18"/><path class="cls-1" d="M350.77,224.92v-3.36a2.37,2.37,0,0,1,4.69,0v.89h-1.57v-.91c0-.36-.26-.6-.77-.6s-.8.24-.8.6v3.4c0,.36.27.6.79.6s.78-.24.78-.6V224h1.57v.89a2.37,2.37,0,0,1-4.69,0Z"/><path class="cls-1" d="M356.32,224.92v-3.36c-.18-2.64,4.89-2.65,4.72,0v3.36C361.22,227.58,356.14,227.56,356.32,224.92Zm3.17,0v-3.4c.12-.8-1.75-.78-1.62,0v3.4C357.74,225.73,359.62,225.73,359.49,224.94Z"/><path class="cls-1" d="M366.53,219.69v7.1h-1.36l-1.85-4v4H362v-7.1h1.35l1.85,4.06v-4.06Z"/><path class="cls-1" d="M371.77,221.09h-1.46v5.7h-1.55v-5.7h-1.48v-1.4h4.49Z"/><path class="cls-1" d="M375.07,225.54h-1.45l-.29,1.25h-1.51l1.53-7.1h2l1.54,7.1h-1.54Zm-.72-4-.45,2.56h.9Z"/><path class="cls-1" d="M377.69,219.69h1.55v7.1h-1.55Z"/><path class="cls-1" d="M384.78,219.69v7.1h-1.36l-1.85-4v4h-1.35v-7.1h1.35l1.85,4.06v-4.06Z"/><path class="cls-1" d="M387.31,221.09v1.55H389V224h-1.72v1.35h2.12v1.4h-3.67v-7.1h3.67v1.4Z"/><path class="cls-1" d="M392.55,224.23h-.74v2.56h-1.55v-7.1h2.36a2,2,0,0,1,2.12,1.94v.66a1.86,1.86,0,0,1-.71,1.5l.92,3h-1.62Zm-.74-1.4h.91a.44.44,0,0,0,.47-.47v-.8a.43.43,0,0,0-.46-.47h-.92Z"/><rect class="cls-4" x="335.53" y="256.27" width="74.55" height="22.32"/><path class="cls-5" d="M361,268.55a2.52,2.52,0,0,0,1.89.85c1.07,0,1.41-.57,1.41-1,0-.72-.73-.92-1.52-1.13-1-.26-2-.53-2-1.71,0-1,.89-1.66,2.07-1.66a2.81,2.81,0,0,1,2.13.84l-.45.54a2.32,2.32,0,0,0-1.74-.72c-.72,0-1.23.39-1.23,1s.69.78,1.46,1c1,.26,2.09.57,2.09,1.83,0,.87-.59,1.76-2.21,1.76a3,3,0,0,1-2.31-.95Z"/><path class="cls-5" d="M366.11,271.62v-6h.68v.65a1.8,1.8,0,0,1,1.46-.75c1.15,0,1.94.86,1.94,2.27s-.79,2.29-1.94,2.29a1.78,1.78,0,0,1-1.46-.76v2.31Zm2-5.51a1.58,1.58,0,0,0-1.29.69v2a1.62,1.62,0,0,0,1.29.7c.88,0,1.4-.72,1.4-1.69S369,266.11,368.08,266.11Z"/><path class="cls-5" d="M371.19,265.61h.67v.71a1.86,1.86,0,0,1,1.45-.8v.7a1.06,1.06,0,0,0-.27,0,1.6,1.6,0,0,0-1.18.69V270h-.67Z"/><path class="cls-5" d="M374,264.46a.46.46,0,1,1,.91,0,.46.46,0,0,1-.91,0Zm.12,1.15h.67V270h-.67Z"/><path class="cls-5" d="M378.94,267.12c0-.77-.39-1-1-1a1.64,1.64,0,0,0-1.28.68V270H376v-4.35h.68v.64a2.11,2.11,0,0,1,1.55-.74,1.23,1.23,0,0,1,1.38,1.4v3h-.67Z"/><path class="cls-5" d="M381.2,270.58a1.68,1.68,0,0,0,1.42.59,1.24,1.24,0,0,0,1.39-1.31v-.62a1.81,1.81,0,0,1-1.46.78,2,2,0,0,1-1.93-2.25c0-1.4.79-2.26,1.93-2.26a1.78,1.78,0,0,1,1.46.76v-.66h.68v4.23c0,1.44-1,1.89-2.07,1.89a2.25,2.25,0,0,1-1.76-.65Zm2.81-3.77a1.58,1.58,0,0,0-1.29-.7c-.88,0-1.4.69-1.4,1.66s.52,1.65,1.4,1.65a1.59,1.59,0,0,0,1.29-.71Z"/><rect class="cls-4" x="335.53" y="285.16" width="74.55" height="22.32"/><path class="cls-5" d="M364.34,297.7a1.44,1.44,0,0,0,1.14.6,1.16,1.16,0,0,0,1.2-1.26v-4.19h.75v4.2a1.76,1.76,0,0,1-1.91,1.91,1.89,1.89,0,0,1-1.56-.69Z"/><path class="cls-5" d="M371.44,298.36a1.87,1.87,0,0,1-1.44.6,1.45,1.45,0,0,1-1.53-1.44,1.43,1.43,0,0,1,1.53-1.43,1.81,1.81,0,0,1,1.44.6v-.79c0-.58-.47-.92-1.1-.92a1.7,1.7,0,0,0-1.33.61l-.32-.47a2.27,2.27,0,0,1,1.74-.72c.92,0,1.68.41,1.68,1.47v3h-.67Zm0-1.24a1.47,1.47,0,0,0-1.2-.54,1,1,0,1,0,0,1.9,1.47,1.47,0,0,0,1.2-.54Z"/><path class="cls-5" d="M372.72,294.51h.73l1.45,3.56,1.44-3.56h.74l-1.81,4.35h-.74Z"/><path class="cls-5" d="M380.41,298.36a1.87,1.87,0,0,1-1.44.6,1.44,1.44,0,0,1-1.52-1.44,1.42,1.42,0,0,1,1.52-1.43,1.81,1.81,0,0,1,1.44.6v-.79c0-.58-.47-.92-1.1-.92a1.72,1.72,0,0,0-1.33.61l-.32-.47a2.27,2.27,0,0,1,1.74-.72c.92,0,1.68.41,1.68,1.47v3h-.67Zm0-1.24a1.46,1.46,0,0,0-1.2-.54,1,1,0,1,0,0,1.9,1.46,1.46,0,0,0,1.2-.54Z"/><rect class="cls-8" x="338.16" y="317.73" width="69.3" height="18"/><path class="cls-1" d="M350.77,328.36V325a2.37,2.37,0,0,1,4.69,0v.89h-1.57V325c0-.36-.26-.6-.77-.6s-.8.24-.8.6v3.4c0,.36.27.6.79.6s.78-.24.78-.6v-.91h1.57v.89a2.37,2.37,0,0,1-4.69,0Z"/><path class="cls-1" d="M356.32,328.36V325a2.39,2.39,0,0,1,4.72,0v3.36a2.39,2.39,0,0,1-4.72,0Zm3.17,0V325c.12-.8-1.75-.78-1.62,0v3.4C357.74,329.17,359.62,329.17,359.49,328.38Z"/><path class="cls-1" d="M366.53,323.13v7.1h-1.36l-1.85-4v4H362v-7.1h1.35l1.85,4.06v-4.06Z"/><path class="cls-1" d="M371.77,324.53h-1.46v5.7h-1.55v-5.7h-1.48v-1.4h4.49Z"/><path class="cls-1" d="M375.07,329h-1.45l-.29,1.25h-1.51l1.53-7.1h2l1.54,7.1h-1.54Zm-.72-4-.45,2.56h.9Z"/><path class="cls-1" d="M377.69,323.13h1.55v7.1h-1.55Z"/><path class="cls-1" d="M384.78,323.13v7.1h-1.36l-1.85-4v4h-1.35v-7.1h1.35l1.85,4.06v-4.06Z"/><path class="cls-1" d="M387.31,324.53v1.55H389v1.4h-1.72v1.35h2.12v1.4h-3.67v-7.1h3.67v1.4Z"/><path class="cls-1" d="M392.55,327.67h-.74v2.56h-1.55v-7.1h2.36a2,2,0,0,1,2.12,1.94v.66a1.86,1.86,0,0,1-.71,1.5l.92,3h-1.62Zm-.74-1.4h.91a.44.44,0,0,0,.47-.47V325a.43.43,0,0,0-.46-.47h-.92Z"/><path class="cls-9" d="M546.5,262.77H521.81a6.25,6.25,0,0,1,0-12.5h0a9.24,9.24,0,0,1,13.05-8.47,10.8,10.8,0,0,1,20.93,3.82,11,11,0,0,1-.38,2.83,7.81,7.81,0,0,1-4.25,14.32h-1.55"/><line class="cls-10" x1="437.34" y1="193.86" x2="452.78" y2="193.86"/><line class="cls-10" x1="538.86" y1="208.02" x2="538.86" y2="236.63"/></g></g></svg>