<svg xmlns="http://www.w3.org/2000/svg" viewBox="0 0 160 260"><defs><style>.cls-1{fill:#fff;}.cls-2{fill:#221f1f;}.cls-3,.cls-4,.cls-5,.cls-6{fill:none;}.cls-3{stroke:#989898;stroke-miterlimit:10;stroke-width:18px;}.cls-4{stroke:#1db14b;}.cls-4,.cls-5{stroke-linecap:round;stroke-linejoin:round;}.cls-5{stroke:#000;}</style></defs><g id="Layer_2" data-name="Layer 2"><g id="Layer_1-2" data-name="Layer 1"><rect class="cls-1" width="160" height="260"/><path class="cls-2" d="M53.68,175.28c-.22-3.61,4.76-5.13,6.56-2.35l-.77.43c-1.47-2.13-5-.81-4.84,1.92-.16,2.71,3.37,4.05,4.84,1.91l.78.43C58.42,180.4,53.48,178.88,53.68,175.28Z"/><path class="cls-2" d="M61,176.28c-.19-3.62,5.45-3.63,5.26,0C66.41,179.91,60.77,179.91,61,176.28Zm4.39,0a1.78,1.78,0,1,0-3.53,0A1.78,1.78,0,1,0,65.35,176.28Z"/><path class="cls-2" d="M71,175.46c.07-1.78-2.15-1.36-2.76-.4v3.88h-.83v-5.31h.83v.77c3.89-3.14,3.76,1.95,3.58,4.54H71Z"/><path class="cls-2" d="M73.57,177.83v-3.48h-.88v-.72h.88v-1.46h.82v1.46h1.08v.72H74.39c.22.64-.71,5.06,1.1,3.76l.25.62C75.05,179.4,73.42,179.09,73.57,177.83Z"/><path class="cls-2" d="M76.38,172.22a.56.56,0,0,1,1.12,0A.56.56,0,0,1,76.38,172.22Zm.15,1.41h.82v5.31h-.82Z"/><path class="cls-2" d="M82.48,175.46c.07-1.78-2.15-1.36-2.76-.4v3.88h-.83v-5.31h.83v.77c3.89-3.14,3.76,1.95,3.58,4.54h-.82Z"/><path class="cls-2" d="M88.43,178.19c-4,3.07-3.71-1.94-3.59-4.56h.83c0,2-.51,6.75,2.76,3.9v-3.9h.83v5.31h-.83Z"/><path class="cls-2" d="M90.49,176.28c-.2-3.63,5.45-3.62,5.26,0C95.94,179.91,90.29,179.91,90.49,176.28Zm4.39,0a1.78,1.78,0,1,0-3.54,0A1.78,1.78,0,1,0,94.88,176.28Z"/><path class="cls-2" d="M100.56,178.19c-4,3.07-3.7-1.94-3.58-4.56h.82c0,2-.51,6.75,2.76,3.9v-3.9h.83v5.31h-.83Z"/><path class="cls-2" d="M102.89,177.64c.5.81,3,1.2,3-.12-.24-1.43-3.41-.6-3.29-2.5-.15-1.72,3.1-1.93,4-.76l-.39.58c-.44-.76-2.74-1.05-2.76.13.33,1.33,3.42.53,3.29,2.5.14,1.81-3.22,2.08-4.23.77Z"/><path class="cls-2" d="M56.31,186.28c-.21-3.61,4.77-5.13,6.56-2.35l-.77.43c-1.47-2.13-5-.81-4.84,1.92-.16,2.71,3.38,4.05,4.84,1.91l.78.43C61.05,191.4,56.11,189.88,56.31,186.28Z"/><path class="cls-2" d="M63.91,184.63h.82v.85a2.26,2.26,0,0,1,1.77-1v.84c-2.51-.51-1.63,3.29-1.77,4.58h-.82Z"/><path class="cls-2" d="M69.73,184.49c1.7,0,2.64,1.42,2.56,3.06H68c0,1.78,2.39,2.44,3.55,1.17l.4.54C68.12,192.79,64.59,185,69.73,184.49ZM68,187h3.48C71.64,184.72,67.89,184.66,68,187Z"/><path class="cls-2" d="M77.36,189.15c-5.37,4.54-5.36-8.28,0-3.72V182.6h.82v7.34h-.82Zm0-3.06c-4.25-3.93-4.29,6.29,0,2.41Z"/><path class="cls-2" d="M82,184.49a2.65,2.65,0,0,1,2.56,3.06H80.28c0,1.78,2.4,2.44,3.56,1.17l.39.54C80.42,192.8,76.89,185,82,184.49ZM80.28,187h3.49C83.94,184.72,80.19,184.66,80.28,187Z"/><path class="cls-2" d="M89.39,186.46c.07-1.78-2.15-1.36-2.76-.4v3.88h-.82v-5.31h.82v.77c3.89-3.14,3.76,1.95,3.59,4.54h-.83Z"/><path class="cls-2" d="M91.92,188.83v-3.48H91v-.72h.88v-1.46h.83v1.46h1.08v.72H92.75c.21.64-.72,5.06,1.1,3.76l.24.62C93.4,190.4,91.77,190.09,91.92,188.83Z"/><path class="cls-2" d="M94.74,183.22a.56.56,0,0,1,1.11,0A.56.56,0,0,1,94.74,183.22Zm.14,1.41h.83v5.31h-.83Z"/><path class="cls-2" d="M100.57,189.33c-4.68,3.37-4.67-5.4,0-2,.51-2-1.69-2.8-3-1.34l-.39-.58c4.31-2.91,4.43,1.38,4.18,4.57h-.82Zm0-1.51c-3.57-2.82-3.57,3.81,0,1Z"/><path class="cls-2" d="M102.93,182.6h.83v7.34h-.83Z"/><path class="cls-2" d="M56.86,193.6h3a2.21,2.21,0,1,1,0,4.42h-2v2.92h-.92Zm2.84.82H57.78v2.79H59.7A1.4,1.4,0,1,0,59.7,194.42Z"/><path class="cls-2" d="M63.18,195.63H64v.85a2.27,2.27,0,0,1,1.78-1v.84c-2.52-.51-1.64,3.29-1.78,4.58h-.82Z"/><path class="cls-2" d="M66.39,198.28c-.19-3.63,5.45-3.62,5.26,0C71.84,201.91,66.2,201.91,66.39,198.28Zm4.39,0a1.78,1.78,0,1,0-3.53,0A1.78,1.78,0,1,0,70.78,198.28Z"/><path class="cls-2" d="M73.05,199.83v-3.48h-.88v-.72h.88v-1.46h.82v1.46H75v.72H73.87c.22.64-.71,5.06,1.1,3.76l.24.62C74.52,201.4,72.9,201.09,73.05,199.83Z"/><path class="cls-2" d="M78.31,195.49c1.7,0,2.64,1.42,2.56,3.06h-4.3c0,1.78,2.39,2.44,3.55,1.17l.4.54C76.7,203.79,73.17,196,78.31,195.49ZM76.57,198h3.48C80.22,195.72,76.47,195.66,76.57,198Z"/><path class="cls-2" d="M84.43,195.49a2.28,2.28,0,0,1,1.95.93l-.55.5c-4.1-3.39-4.11,6.11,0,2.72l.55.51C82.81,204,79.24,195.74,84.43,195.49Z"/><path class="cls-2" d="M87.59,199.83v-3.48h-.88v-.72h.88v-1.46h.82v1.46h1.08v.72H88.41c.22.64-.71,5.06,1.1,3.76l.24.62C89.06,201.4,87.44,201.09,87.59,199.83Z"/><path class="cls-2" d="M90.4,194.22a.56.56,0,0,1,1.11,0A.56.56,0,0,1,90.4,194.22Zm.15,1.41h.82v5.31h-.82Z"/><path class="cls-2" d="M92.6,198.28c-.19-3.63,5.46-3.62,5.26,0C98.05,201.91,92.41,201.91,92.6,198.28Zm4.39,0a1.78,1.78,0,1,0-3.53,0A1.78,1.78,0,1,0,97,198.28Z"/><path class="cls-2" d="M102.68,197.46c.07-1.78-2.15-1.36-2.76-.4v3.88h-.83v-5.31h.83v.77c3.89-3.14,3.76,1.95,3.59,4.54h-.83Z"/><path class="cls-3" d="M119.08,146.24A54.67,54.67,0,1,1,80,129.79"/><path class="cls-1" d="M51.15,232.84l-2.5-1.62-1,.74-1.31-.84,5.78-4.22,1.5,1-1.45,7L50.88,234Zm-1.52-2.45,1.86,1.2.73-3.17Z"/><path class="cls-1" d="M57.06,229.9l2.4,1.06a3.34,3.34,0,1,1-2.7,6.1L54.36,236Zm.21,6a2,2,0,0,0,2.75-1A2,2,0,0,0,59,232.1l-1.1-.49-1.69,3.82Z"/><path class="cls-1" d="M66.77,239.31l-2.88-.79-.7,1-1.51-.41,4.25-5.75,1.72.47.72,7.11-1.5-.41Zm-2.18-1.87,2.13.58-.26-3.24Z"/><path class="cls-1" d="M71.56,234.72l3.1.37a2.14,2.14,0,1,1-.51,4.25l-1.69-.21-.29,2.38-1.41-.17Zm2.76,1.56-1.49-.18-.23,1.82,1.5.18a.92.92,0,1,0,.22-1.82Z"/><path class="cls-1" d="M80.16,236.62l-2,0,0-1.25,5.32-.09,0,1.25-1.94,0,.08,5.42-1.43,0Z"/><path class="cls-1" d="M89.65,240.08l-3,.43-.25,1.2-1.55.22,1.59-7,1.77-.26,3.5,6.23-1.53.22Zm-2.76-.85,2.19-.31-1.53-2.87Z"/><path class="cls-1" d="M93.46,234.86l-1.88.52-.34-1.2,5.12-1.44.34,1.2-1.87.53,1.47,5.21-1.37.39Z"/><path class="cls-1" d="M98.05,232.06l1.32-.53,2.47,6.19-1.32.53Z"/><path class="cls-1" d="M104.15,229.11a3.45,3.45,0,1,1-1.39,4.7A3.36,3.36,0,0,1,104.15,229.11Zm.61,1.11a2.2,2.2,0,0,0,2.1,3.84,2.19,2.19,0,0,0-2.1-3.84Z"/><path class="cls-1" d="M111.2,227.36l2.77,3.52-1.12.88-4.12-5.25,1.15-.9,5.1,1.49-2.67-3.4,1.12-.88,4.12,5.25-1.08.85Z"/><path class="cls-3" d="M41.79,114.18A54.67,54.67,0,1,1,80,129.74"/><path class="cls-1" d="M44.14,140.31l1.67,4.87-.48.4-4.53-2.45,3.1,3.67-1.08.91-4.31-5.09L40,141.34,44,143.47l-1.45-4.22L44,138l4.3,5.09-1.09.92Z"/><path class="cls-1" d="M49.46,134.31a3.45,3.45,0,1,1-1.23,4.75A3.36,3.36,0,0,1,49.46,134.31Zm.64,1.09a2.19,2.19,0,1,0,2.87.84A2,2,0,0,0,50.1,135.4Z"/><path class="cls-1" d="M57.33,132.83,59,137l-1.32.53-2.49-6.19,1.35-.55L61,133.64l-1.61-4,1.32-.53,2.49,6.19L62,135.8Z"/><path class="cls-1" d="M63.83,128.16,68.41,127l.29,1.18-3.2.8.35,1.41,3.13-.78.3,1.18-3.14.78.38,1.5,3.2-.79.29,1.19-4.58,1.14Z"/><path class="cls-1" d="M73,127.56l-1.94.23-.15-1.24,5.29-.63.15,1.24-1.93.23.64,5.38-1.41.17Z"/><path class="cls-1" d="M78.79,125.84l1.42,0,.14,6.66-1.42,0Z"/><path class="cls-1" d="M82.8,131.35l2.79-4.51-3.14.25-.1-1.24,5-.41.09,1.13-2.78,4.53,3.21-.27.1,1.25-5.06.42Z"/><path class="cls-1" d="M94.7,129.54l-2.9.69-.15,1.21-1.52.36,1-7.09,1.73-.41,4,5.91-1.51.35Zm-2.82-.6,2.15-.51-1.77-2.72Z"/><path class="cls-1" d="M98,124l-1.81.71-.46-1.17,5-1.92.46,1.16-1.81.71,2,5-1.34.52Z"/><path class="cls-1" d="M102.29,120.76l1.27-.65,3.07,5.92-1.26.66Z"/><path class="cls-1" d="M108.07,117.22a3.45,3.45,0,1,1-.9,4.81A3.34,3.34,0,0,1,108.07,117.22Zm.71,1a2.2,2.2,0,1,0,2.92.65A2,2,0,0,0,108.78,118.25Z"/><path class="cls-1" d="M114.88,114.73l3.13,3.2-1,1-4.67-4.77,1-1,5.23.92-3-3.08,1-1,4.67,4.77-1,1Z"/><polygon class="cls-1" points="115.19 76.54 120.64 73.8 130.87 94.11 150.24 86.34 152.51 92.01 127.94 101.85 115.19 76.54"/><polygon class="cls-1" points="97.66 44.26 97.64 38.16 120.38 38.08 122.09 17.27 128.17 17.77 126 44.15 97.66 44.26"/><polygon class="cls-1" points="144.03 225.69 138.4 228.01 129.74 206.98 109.83 213.24 108 207.42 133.25 199.48 144.03 225.69"/><polygon class="cls-1" points="9.86 217.6 10.29 211.52 32.98 213.14 36.24 192.53 42.26 193.48 38.13 219.62 9.86 217.6"/><polygon class="cls-1" points="15.97 143.84 21.6 141.51 30.29 162.53 50.19 156.24 52.03 162.05 26.79 170.03 15.97 143.84"/><path class="cls-1" d="M65,20.58l-1.89.49-.31-1.21,5.14-1.34.32,1.21-1.88.49,1.37,5.24-1.38.36Z"/><path class="cls-1" d="M75.73,21.33l-3.13.34.3,2.78-1.41.15L70.78,18l1.41-.16.28,2.61,3.13-.34-.28-2.6,1.42-.15L77.45,24,76,24.12Z"/><path class="cls-1" d="M80,17.29l4.71.19,0,1.22-3.3-.14,0,1.45,3.22.13,0,1.22-3.22-.13-.07,1.55,3.3.13,0,1.23L79.73,24Z"/><path class="cls-1" d="M87.67,17.8l4.65.8-.2,1.21-3.25-.56-.25,1.43,3.18.54-.2,1.21-3.19-.55-.47,2.74-1.4-.24Z"/><path class="cls-1" d="M96.22,21l-1.86-.58.38-1.19,5.07,1.59L99.44,22l-1.85-.58L96,26.56l-1.37-.43Z"/><polygon class="cls-1" points="48.87 58.38 42.78 58.38 42.77 35.64 21.98 33.86 22.5 27.78 48.87 30.04 48.87 58.38"/><path class="cls-4" d="M87.9,63.4l-1.52.07h0l-3.63-2.82a3.06,3.06,0,0,0-3.85-.06L75,63.47l-1.52-.07c-2.87-.14-5.11-1-5.11,3s.53,10.42.53,10.42-.31,4.84,5.22,8.92c4.75,3.51,6.55,4.78,6.55,4.78h0s1.84-1.27,6.6-4.78c5.53-4.08,5.21-8.92,5.21-8.92S93,70.38,93,66.41s-2.23-3.15-5.1-3"/><polyline class="cls-5" points="115.18 66.77 108.38 73.89 101.34 67.01"/><polyline class="cls-5" points="46.18 81.96 52.99 74.85 60.03 81.72"/><path class="cls-5" d="M108.06,78.56A27.68,27.68,0,0,1,53,74.85"/><path class="cls-5" d="M53.28,70.18a27.68,27.68,0,0,1,55.08,3.71"/><path class="cls-6" d="M119.08,146.24A54.67,54.67,0,1,1,80,129.79"/><path class="cls-6" d="M41.79,114.18A54.67,54.67,0,1,1,80,129.74"/></g></g></svg>