<?xml version="1.0" encoding="utf-8"?>
<!-- Generator: Adobe Illustrator 23.0.4, SVG Export Plug-In . SVG Version: 6.00 Build 0)  -->
<svg version="1.1" id="Layer_1" xmlns="http://www.w3.org/2000/svg" xmlns:xlink="http://www.w3.org/1999/xlink" x="0px" y="0px"
	 viewBox="0 0 149.3 106.4" style="enable-background:new 0 0 149.3 106.4;" xml:space="preserve">
<style type="text/css">
	.st0{fill:#405862;}
	.st1{fill:#39607A;}
	.st2{fill:#B8232F;}
	.st3{fill:#1E3E59;}
	.st4{fill:#A5BBC3;}
</style>
<g>
	<g>
		<path class="st0" d="M1.5,78h0.6c0.3,0,0.4,0.1,0.4,0.3v8.6c0,0.2-0.1,0.3-0.4,0.3H1.5c-0.2,0-0.3-0.1-0.3-0.3v-8.6
			C1.2,78,1.3,78,1.5,78z"/>
		<path class="st0" d="M14,81.4v2.4c0,2.1-1.4,3.5-3.8,3.5H7.4c-0.2,0-0.3-0.1-0.3-0.3v-8.6C7,78,7.1,78,7.4,78h2.9
			C12.7,78,14,79.3,14,81.4z M10.2,79.1H8.3v7h1.9c1.6,0,2.5-0.8,2.5-2.3v-2.4C12.8,80,11.9,79.1,10.2,79.1z"/>
		<path class="st0" d="M24.2,78.3v0.5c0,0.2-0.1,0.3-0.3,0.3h-4.3V82h3.7c0.3,0,0.3,0.1,0.3,0.4v0.5c0,0.3-0.1,0.3-0.3,0.3h-3.7v3
			h4.5c0.3,0,0.3,0.1,0.3,0.3v0.5c0,0.2-0.1,0.3-0.3,0.3h-5.4c-0.2,0-0.3-0.1-0.3-0.3v-8.6c0-0.2,0.1-0.3,0.3-0.3h5.3
			C24.2,78,24.2,78,24.2,78.3z"/>
		<path class="st0" d="M35.6,78.3v8.6c0,0.2-0.1,0.3-0.3,0.3h-0.6c-0.2,0-0.3,0-0.4-0.2l-3.7-5.4c-0.5-0.8-0.9-1.8-1.1-2h-0.1
			c0,0.2,0.2,1.4,0.2,2.4v4.9c0,0.2-0.1,0.3-0.4,0.3h-0.5c-0.2,0-0.3-0.1-0.3-0.3v-8.6c0-0.2,0.1-0.3,0.3-0.3h0.6
			c0.2,0,0.3,0.1,0.3,0.2l3.7,5.4c0.6,0.9,1,1.9,1.1,2.1h0.1c0-0.3-0.2-1.4-0.2-2.5v-4.8c0-0.2,0.1-0.3,0.3-0.3h0.5
			C35.5,78,35.6,78,35.6,78.3z"/>
		<path class="st0" d="M46.3,78.3v0.5c0,0.2-0.1,0.3-0.3,0.3h-2.5v7.8c0,0.2-0.1,0.3-0.3,0.3h-0.6c-0.3,0-0.3-0.1-0.3-0.3v-7.8h-2.5
			c-0.3,0-0.3-0.1-0.3-0.3v-0.5c0-0.2,0.1-0.3,0.3-0.3H46C46.2,78,46.3,78,46.3,78.3z"/>
		<path class="st0" d="M50.4,78H51c0.3,0,0.4,0.1,0.4,0.3v8.6c0,0.2-0.1,0.3-0.4,0.3h-0.6c-0.2,0-0.3-0.1-0.3-0.3v-8.6
			C50.1,78,50.2,78,50.4,78z"/>
		<path class="st0" d="M62,78.3v0.5c0,0.2-0.1,0.3-0.3,0.3h-2.5v7.8c0,0.2-0.1,0.3-0.3,0.3h-0.6c-0.3,0-0.3-0.1-0.3-0.3v-7.8h-2.5
			c-0.3,0-0.3-0.1-0.3-0.3v-0.5c0-0.2,0.1-0.3,0.3-0.3h6.2C61.9,78,62,78,62,78.3z"/>
		<path class="st0" d="M73,78.3l-3.3,5.2v3.4c0,0.2-0.1,0.3-0.3,0.3h-0.6c-0.3,0-0.3-0.1-0.3-0.3v-3.4L65,78.3
			C64.9,78.1,65,78,65.2,78h0.7c0.4,0,0.5,0,0.7,0.3l2.4,4l2.4-4c0.2-0.3,0.3-0.3,0.7-0.3h0.7C73,78,73.1,78.1,73,78.3z"/>
		<path class="st0" d="M88.9,81.4v2.4c0,2.1-1.4,3.5-3.8,3.5h-2.9c-0.2,0-0.3-0.1-0.3-0.3v-8.6c0-0.2,0.1-0.3,0.3-0.3h2.9
			C87.6,78,88.9,79.3,88.9,81.4z M85.1,79.1h-1.9v7h1.9c1.6,0,2.5-0.8,2.5-2.3v-2.4C87.7,80,86.8,79.1,85.1,79.1z"/>
		<path class="st0" d="M99.2,78.3v0.5c0,0.2-0.1,0.3-0.3,0.3h-4.3V82h3.7c0.3,0,0.3,0.1,0.3,0.4v0.5c0,0.3-0.1,0.3-0.3,0.3h-3.7v3
			H99c0.3,0,0.3,0.1,0.3,0.3v0.5c0,0.2-0.1,0.3-0.3,0.3h-5.4c-0.2,0-0.3-0.1-0.3-0.3v-8.6c0-0.2,0.1-0.3,0.3-0.3h5.3
			C99.1,78,99.2,78,99.2,78.3z"/>
		<path class="st0" d="M109.3,78.3v0.5c0,0.2-0.1,0.3-0.3,0.3h-4.3v3h3.7c0.3,0,0.3,0.1,0.3,0.3v0.5c0,0.3-0.1,0.3-0.3,0.3h-3.7v3.7
			c0,0.2-0.1,0.3-0.4,0.3h-0.6c-0.2,0-0.3-0.1-0.3-0.3v-8.6c0-0.2,0.1-0.3,0.3-0.3h5.3C109.3,78,109.3,78,109.3,78.3z"/>
		<path class="st0" d="M113.7,78h0.6c0.3,0,0.4,0.1,0.4,0.3v8.6c0,0.2-0.1,0.3-0.4,0.3h-0.6c-0.2,0-0.3-0.1-0.3-0.3v-8.6
			C113.3,78,113.4,78,113.7,78z"/>
		<path class="st0" d="M126.3,78.3v8.6c0,0.2-0.1,0.3-0.3,0.3h-0.6c-0.2,0-0.3,0-0.4-0.2l-3.7-5.4c-0.5-0.8-0.9-1.8-1.1-2h-0.1
			c0,0.2,0.2,1.4,0.2,2.4v4.9c0,0.2-0.1,0.3-0.4,0.3h-0.5c-0.2,0-0.3-0.1-0.3-0.3v-8.6c0-0.2,0.1-0.3,0.3-0.3h0.6
			c0.2,0,0.3,0.1,0.3,0.2l3.7,5.4c0.6,0.9,1,1.9,1.1,2.1h0.1c0-0.3-0.2-1.4-0.2-2.5v-4.8c0-0.2,0.1-0.3,0.3-0.3h0.5
			C126.2,78,126.3,78,126.3,78.3z"/>
		<path class="st0" d="M136.8,78.3v0.5c0,0.2-0.1,0.3-0.3,0.3h-4.3V82h3.7c0.3,0,0.3,0.1,0.3,0.4v0.5c0,0.3-0.1,0.3-0.3,0.3h-3.7v3
			h4.5c0.3,0,0.3,0.1,0.3,0.3v0.5c0,0.2-0.1,0.3-0.3,0.3h-5.4c-0.2,0-0.3-0.1-0.3-0.3v-8.6c0-0.2,0.1-0.3,0.3-0.3h5.3
			C136.8,78,136.8,78,136.8,78.3z"/>
		<path class="st0" d="M148.1,81.4v2.4c0,2.1-1.4,3.5-3.8,3.5h-2.9c-0.2,0-0.3-0.1-0.3-0.3v-8.6c0-0.2,0.1-0.3,0.3-0.3h2.9
			C146.7,78,148.1,79.3,148.1,81.4z M144.3,79.1h-1.9v7h1.9c1.6,0,2.5-0.8,2.5-2.3v-2.4C146.8,80,145.9,79.1,144.3,79.1z"/>
		<path class="st0" d="M23.6,98.8c1.2,0,1.9,0.5,2.3,1.4c0.1,0.2,0,0.2-0.1,0.3l-0.4,0.2c-0.2,0.1-0.2,0-0.3-0.1
			c-0.3-0.6-0.7-0.9-1.5-0.9c-1,0-1.5,0.3-1.5,1c0,0.8,0.8,0.9,1.7,1c1.1,0.1,2.2,0.4,2.2,1.8c0,1.2-0.9,1.9-2.5,1.9
			c-1.3,0-2-0.5-2.4-1.5c-0.1-0.2,0-0.2,0.2-0.3l0.4-0.1c0.2-0.1,0.2,0,0.3,0.1c0.3,0.7,0.8,1,1.6,1c1.1,0,1.6-0.3,1.6-1.1
			c0-0.8-0.7-0.9-1.6-1c-1.1-0.1-2.4-0.3-2.4-1.8C21.3,99.6,22.1,98.8,23.6,98.8z"/>
		<path class="st0" d="M32.9,99.2v0.3c0,0.2-0.1,0.2-0.2,0.2h-2.9v1.9h2.5c0.2,0,0.2,0.1,0.2,0.2v0.3c0,0.2-0.1,0.2-0.2,0.2h-2.5v2
			h3.1c0.2,0,0.2,0.1,0.2,0.2v0.3c0,0.2-0.1,0.2-0.2,0.2h-3.7c-0.2,0-0.2-0.1-0.2-0.2v-5.9c0-0.2,0.1-0.2,0.2-0.2h3.6
			C32.9,98.9,32.9,99,32.9,99.2z"/>
		<path class="st0" d="M38.1,98.8c1.3,0,2.1,0.5,2.4,1.5c0.1,0.2,0,0.2-0.2,0.3l-0.4,0.1c-0.2,0.1-0.2,0-0.3-0.1
			c-0.2-0.7-0.7-1-1.6-1c-1.1,0-1.6,0.5-1.6,1.5v2c0,0.9,0.6,1.5,1.6,1.5c0.9,0,1.4-0.3,1.6-1c0.1-0.2,0.1-0.2,0.3-0.2l0.4,0.1
			c0.2,0.1,0.2,0.1,0.2,0.3c-0.3,1-1.1,1.5-2.4,1.5c-1.6,0-2.5-0.9-2.5-2.3v-2C35.6,99.7,36.4,98.8,38.1,98.8z"/>
		<path class="st0" d="M45.6,104.6c1.1,0,1.6-0.6,1.6-1.5v-3.9c0-0.2,0.1-0.2,0.2-0.2h0.4c0.2,0,0.2,0.1,0.2,0.2v3.9
			c0,1.4-0.8,2.3-2.4,2.3c-1.6,0-2.4-0.9-2.4-2.3v-3.9c0-0.2,0.1-0.2,0.2-0.2h0.4c0.2,0,0.2,0.1,0.2,0.2v3.9
			C44,104,44.5,104.6,45.6,104.6z"/>
		<path class="st0" d="M55.8,100.8c0,1-0.5,1.6-1.3,1.8c0.2,0.1,0.3,0.3,0.4,0.5l1,1.9c0.1,0.1,0.1,0.2-0.1,0.2h-0.4
			c-0.3,0-0.4,0-0.5-0.2l-0.8-1.6c-0.3-0.5-0.5-0.7-1.2-0.7h-1v2.3c0,0.2-0.1,0.2-0.2,0.2h-0.4c-0.2,0-0.2-0.1-0.2-0.2v-5.9
			c0-0.2,0.1-0.2,0.2-0.2h2.5C55,98.9,55.8,99.6,55.8,100.8z M53.8,99.7H52v2.2h1.8c0.7,0,1.1-0.4,1.1-1.1
			C54.9,100.1,54.5,99.7,53.8,99.7z"/>
		<path class="st0" d="M58.9,98.9h0.4c0.2,0,0.2,0.1,0.2,0.2v5.9c0,0.2-0.1,0.2-0.2,0.2h-0.4c-0.2,0-0.2-0.1-0.2-0.2v-5.9
			C58.6,99,58.7,98.9,58.9,98.9z"/>
		<path class="st0" d="M66.8,99.2v0.3c0,0.2-0.1,0.2-0.2,0.2h-1.7v5.3c0,0.2-0.1,0.2-0.2,0.2h-0.4c-0.2,0-0.2-0.1-0.2-0.2v-5.3h-1.7
			c-0.2,0-0.2-0.1-0.2-0.2v-0.3c0-0.2,0.1-0.2,0.2-0.2h4.2C66.7,98.9,66.8,99,66.8,99.2z"/>
		<path class="st0" d="M74.2,99.2l-2.3,3.6v2.3c0,0.2-0.1,0.2-0.2,0.2h-0.4c-0.2,0-0.2-0.1-0.2-0.2v-2.3l-2.3-3.5
			c-0.1-0.1,0-0.2,0.1-0.2h0.5c0.3,0,0.3,0,0.5,0.2l1.6,2.7l1.7-2.7c0.1-0.2,0.2-0.2,0.5-0.2h0.4C74.2,98.9,74.3,99,74.2,99.2z"/>
		<path class="st0" d="M84.9,105.3h-0.3c-0.3,0-0.4,0-0.4-0.2l-0.6-1.5h-2.6l-0.6,1.5c-0.1,0.2-0.1,0.2-0.4,0.2h-0.3
			c-0.2,0-0.2-0.1-0.2-0.2l2.3-5.9c0.1-0.2,0.1-0.2,0.3-0.2h0.4c0.2,0,0.2,0,0.3,0.2L85,105C85.1,105.2,85.1,105.3,84.9,105.3z
			 M82.3,99.7L82.3,99.7c-0.1,0-0.1,0.4-0.2,0.8l-0.9,2.4h2.2l-0.9-2.3C82.3,100.1,82.3,99.7,82.3,99.7z"/>
		<path class="st0" d="M88.4,99.2v5.3h2.8c0.2,0,0.2,0.1,0.2,0.2v0.3c0,0.2-0.1,0.2-0.2,0.2h-3.4c-0.2,0-0.2-0.1-0.2-0.2v-5.9
			c0-0.2,0.1-0.2,0.2-0.2h0.4C88.4,98.9,88.4,99,88.4,99.2z"/>
		<path class="st0" d="M94.9,99.2v5.3h2.8c0.2,0,0.2,0.1,0.2,0.2v0.3c0,0.2-0.1,0.2-0.2,0.2h-3.4c-0.2,0-0.2-0.1-0.2-0.2v-5.9
			c0-0.2,0.1-0.2,0.2-0.2h0.4C94.8,98.9,94.9,99,94.9,99.2z"/>
		<path class="st0" d="M100.7,98.9h0.4c0.2,0,0.2,0.1,0.2,0.2v5.9c0,0.2-0.1,0.2-0.2,0.2h-0.4c-0.2,0-0.2-0.1-0.2-0.2v-5.9
			C100.5,99,100.6,98.9,100.7,98.9z"/>
		<path class="st0" d="M109.3,105.3H109c-0.3,0-0.4,0-0.4-0.2l-0.6-1.5h-2.6l-0.6,1.5c-0.1,0.2-0.1,0.2-0.4,0.2h-0.3
			c-0.2,0-0.2-0.1-0.2-0.2l2.3-5.9c0.1-0.2,0.1-0.2,0.3-0.2h0.4c0.2,0,0.2,0,0.3,0.2l2.3,5.9C109.5,105.2,109.5,105.3,109.3,105.3z
			 M106.7,99.7L106.7,99.7c-0.1,0-0.1,0.4-0.2,0.8l-0.9,2.4h2.2l-0.9-2.3C106.7,100.1,106.7,99.7,106.7,99.7z"/>
		<path class="st0" d="M116.9,99.2v5.9c0,0.2-0.1,0.2-0.2,0.2h-0.4c-0.1,0-0.2,0-0.2-0.1l-2.5-3.7c-0.4-0.6-0.6-1.2-0.7-1.4h0
			c0,0.2,0.2,0.9,0.2,1.7v3.3c0,0.2-0.1,0.2-0.2,0.2h-0.4c-0.2,0-0.2-0.1-0.2-0.2v-5.9c0-0.2,0.1-0.2,0.2-0.2h0.4
			c0.1,0,0.2,0,0.2,0.1l2.5,3.6c0.4,0.6,0.7,1.3,0.8,1.4h0c0-0.2-0.1-0.9-0.1-1.7v-3.2c0-0.2,0.1-0.2,0.2-0.2h0.4
			C116.8,98.9,116.9,99,116.9,99.2z"/>
		<path class="st0" d="M122.3,98.8c1.3,0,2.1,0.5,2.4,1.5c0.1,0.2,0,0.2-0.2,0.3l-0.4,0.1c-0.2,0.1-0.2,0-0.3-0.1
			c-0.2-0.7-0.7-1-1.6-1c-1.1,0-1.6,0.5-1.6,1.5v2c0,0.9,0.6,1.5,1.6,1.5c0.9,0,1.4-0.3,1.6-1c0.1-0.2,0.1-0.2,0.3-0.2l0.4,0.1
			c0.2,0.1,0.2,0.1,0.2,0.3c-0.3,1-1.1,1.5-2.4,1.5c-1.6,0-2.5-0.9-2.5-2.3v-2C119.8,99.7,120.7,98.8,122.3,98.8z"/>
		<path class="st0" d="M131.5,99.2v0.3c0,0.2-0.1,0.2-0.2,0.2h-2.9v1.9h2.5c0.2,0,0.2,0.1,0.2,0.2v0.3c0,0.2-0.1,0.2-0.2,0.2h-2.5v2
			h3.1c0.2,0,0.2,0.1,0.2,0.2v0.3c0,0.2-0.1,0.2-0.2,0.2h-3.7c-0.2,0-0.2-0.1-0.2-0.2v-5.9c0-0.2,0.1-0.2,0.2-0.2h3.6
			C131.4,98.9,131.5,99,131.5,99.2z"/>
	</g>
	<g>
		<g>
			<path class="st1" d="M81.7,60.5c1.1-1.2,2.4-2.3,3.8-3.3s2.8-1.9,4.3-2.6c-0.7,1.8-1.4,3.7-2,5.7C85.7,60.3,83.7,60.4,81.7,60.5z
				"/>
			<path class="st1" d="M99.5,46.2c0.3-1.6,0.7-3.2,1.3-4.8c0.6-1.6,1.3-3.1,2.1-4.5c0.4,1.9,0.9,3.9,1.5,5.8
				C102.7,43.8,101.1,45,99.5,46.2z"/>
			<path class="st1" d="M57.6,6.3c1.6-0.4,3.2-0.9,4.7-1.6s3-1.5,4.4-2.4c-1.9-0.3-3.9-0.7-5.9-1.1C59.8,2.9,58.7,4.7,57.6,6.3z"/>
			<path class="st1" d="M45,38.4c0.9,1.4,1.7,2.8,2.4,4.4c0.7,1.5,1.2,3.1,1.7,4.7c-1.6-1.1-3.4-2.1-5.1-3.1
				C44.4,42.3,44.8,40.3,45,38.4z"/>
			<path class="st1" d="M103.5,24c-0.9-1.4-1.7-2.8-2.4-4.4c-0.7-1.5-1.2-3.1-1.7-4.7c1.6,1.1,3.4,2.1,5.1,3.1
				C104.1,20,103.8,22,103.5,24z"/>
			<path class="st1" d="M45.1,25.1c1.7-2.9,2.9-6,3.6-9.3c-1.6,1.2-3.2,2.3-5,3.4C44.3,21.2,44.8,23.1,45.1,25.1z"/>
			<path class="st1" d="M88.4,7C85.1,6.3,82,5,79.2,3.3C81.1,2.9,83,2.5,85,2C86.1,3.7,87.3,5.4,88.4,7z"/>
			<path class="st1" d="M58.7,56c3.3,0.6,6.4,1.8,9.3,3.5c-1.9,0.4-3.9,0.9-5.8,1.4C61,59.2,59.9,57.6,58.7,56z"/>
		</g>
		<circle class="st2" cx="74.1" cy="31" r="4.1"/>
		<g>
			<path class="st3" d="M86.4,47.8c0.4-1,0.9-2,1.5-3c0.6-1,1.3-1.9,2-2.7c0,1.3,0.1,2.7,0.2,4.1C88.8,46.7,87.6,47.2,86.4,47.8z"/>
			<path class="st3" d="M93.9,34.4c-0.2-1.1-0.4-2.2-0.4-3.3c-0.1-1.1,0-2.3,0.1-3.4c0.8,1.1,1.6,2.2,2.4,3.2
				C95.2,32.1,94.5,33.3,93.9,34.4z"/>
			<path class="st3" d="M57.4,20.4c0.9-0.7,1.7-1.4,2.5-2.2c0.8-0.8,1.5-1.7,2.1-2.6c-1.3,0.3-2.6,0.6-4,0.9
				C57.9,17.7,57.7,19.1,57.4,20.4z"/>
			<path class="st3" d="M57.9,43.7c0.9,0.6,1.8,1.3,2.6,2.1s1.6,1.6,2.3,2.5c-1.3-0.2-2.6-0.5-4-0.6C58.5,46.3,58.2,44.9,57.9,43.7z
				"/>
			<path class="st3" d="M90.6,19.5c-0.9-0.6-1.8-1.3-2.6-2.1c-0.8-0.8-1.6-1.6-2.3-2.5c1.3,0.2,2.6,0.5,4,0.6
				C90,16.9,90.2,18.3,90.6,19.5z"/>
			<path class="st3" d="M54.5,35.3c0.3-2.2,0.3-4.5-0.2-6.7c-0.7,1.1-1.4,2.3-2.2,3.4C53,33.1,53.8,34.2,54.5,35.3z"/>
			<path class="st3" d="M76.8,12.8c-2.2,0.4-4.5,0.5-6.7,0.1c1.1-0.7,2.2-1.5,3.3-2.3C74.5,11.4,75.7,12.2,76.8,12.8z"/>
			<path class="st3" d="M70.9,51.1c2.2-0.4,4.5-0.5,6.7-0.2c-1.1,0.7-2.2,1.5-3.3,2.4C73.2,52.5,72.1,51.8,70.9,51.1z"/>
		</g>
		<g>
			<path class="st4" d="M83.4,37.9c0-0.6,0.1-1.3,0.2-1.9c0.1-0.6,0.3-1.3,0.5-1.8c0.3,0.7,0.6,1.4,0.9,2.1
				C84.4,36.8,83.9,37.4,83.4,37.9z"/>
			<path class="st4" d="M85.5,29.5c-0.3-0.5-0.7-1.1-0.9-1.7c-0.3-0.6-0.5-1.2-0.6-1.8c0.6,0.4,1.3,0.8,2,1.2
				C85.8,28,85.6,28.7,85.5,29.5z"/>
			<path class="st4" d="M63.7,27.5c0.3-0.5,0.6-1.1,0.9-1.7c0.2-0.6,0.4-1.2,0.6-1.8c-0.6,0.4-1.3,0.8-1.9,1.3
				C63.4,26,63.6,26.8,63.7,27.5z"/>
			<path class="st4" d="M67.6,40c0.6,0.1,1.2,0.3,1.8,0.6c0.6,0.2,1.2,0.5,1.7,0.9c-0.7,0.1-1.5,0.3-2.3,0.5
				C68.5,41.2,68,40.6,67.6,40z"/>
			<path class="st4" d="M81,22c-0.6-0.1-1.2-0.3-1.8-0.6c-0.6-0.2-1.2-0.5-1.7-0.9c0.7-0.1,1.5-0.3,2.3-0.5
				C80.1,20.8,80.5,21.4,81,22z"/>
			<path class="st4" d="M64.4,35.9c-0.3-1.2-0.8-2.4-1.4-3.5c-0.1,0.7-0.3,1.5-0.5,2.3C63.2,35.1,63.8,35.5,64.4,35.9z"/>
			<path class="st4" d="M72.6,19.9c-1.1,0.7-2.3,1.1-3.5,1.4c0.4-0.6,0.9-1.2,1.3-1.9C71.1,19.6,71.8,19.8,72.6,19.9z"/>
			<path class="st4" d="M75.8,41.9c1.1-0.7,2.3-1.2,3.5-1.5c-0.4,0.6-0.8,1.3-1.2,1.9C77.3,42.1,76.6,42,75.8,41.9z"/>
		</g>
	</g>
</g>
</svg>
