<?xml version="1.0" encoding="utf-8"?>
<!-- Generator: Adobe Illustrator 22.1.0, SVG Export Plug-In . SVG Version: 6.00 Build 0)  -->
<svg version="1.1" id="Layer_1" xmlns="http://www.w3.org/2000/svg" xmlns:xlink="http://www.w3.org/1999/xlink" x="0px" y="0px"
	 viewBox="0 0 80.5 17.8" style="enable-background:new 0 0 80.5 17.8;" xml:space="preserve">
<style type="text/css">
	.st0{fill:#666666;}
	.st1{fill:#F25022;}
	.st2{fill:#7FBA00;}
	.st3{fill:#00A4EF;}
	.st4{fill:#FFB900;}
</style>
<g>
	<path class="st0" d="M28.7,10.2l-0.5,1.3l0,0c-0.1-0.3-0.2-0.8-0.5-1.3l-2.5-6.4h-2.5V14h1.6V7.8c0-0.4,0-0.9,0-1.4
		c0-0.3,0-0.5,0-0.6l0,0c0.1,0.4,0.2,0.7,0.2,0.9l3.1,7.4h1.1l3-7.5c0.1-0.2,0.1-0.5,0.2-0.8l0,0c0,0.7-0.1,1.4-0.1,1.8v6.5h1.9V3.8
		h-2.4L28.7,10.2z"/>
	<rect x="35.4" y="6.7" class="st0" width="1.7" height="7.3"/>
	<path class="st0" d="M36.3,3.6c-0.3,0-0.5,0.1-0.7,0.3c-0.2,0.2-0.3,0.4-0.3,0.7s0.1,0.5,0.3,0.7s0.4,0.3,0.7,0.3s0.5-0.1,0.7-0.3
		s0.3-0.4,0.3-0.7S37.2,4.1,37,3.9C36.8,3.7,36.6,3.6,36.3,3.6z"/>
	<path class="st0" d="M43.2,6.6c-0.3-0.1-0.7-0.1-1-0.1c-0.8,0-1.5,0.2-2.1,0.5S39,7.8,38.7,8.4c-0.3,0.6-0.5,1.3-0.5,2.1
		c0,0.7,0.2,1.3,0.5,1.9s0.7,1,1.3,1.3c0.5,0.3,1.2,0.5,1.9,0.5c0.8,0,1.5-0.2,2.1-0.5l0,0v-1.6l-0.1,0.1c-0.3,0.2-0.5,0.3-0.8,0.4
		s-0.6,0.2-0.8,0.2c-0.7,0-1.2-0.2-1.6-0.6c-0.4-0.4-0.6-1-0.6-1.7s0.2-1.3,0.6-1.8C41.1,8.3,41.6,8,42.3,8c0.6,0,1.1,0.2,1.6,0.6
		L44,8.7V7l0,0C43.8,6.8,43.5,6.7,43.2,6.6z"/>
	<path class="st0" d="M48.8,6.6c-0.4,0-0.8,0.1-1.1,0.4c-0.3,0.2-0.5,0.6-0.7,1l0,0V6.7h-1.7V14H47v-3.7c0-0.6,0.1-1.2,0.4-1.5
		c0.3-0.4,0.7-0.6,1.1-0.6c0.2,0,0.3,0,0.5,0.1c0.2,0,0.3,0.1,0.4,0.2l0.1,0.1V6.9l0,0C49.3,6.6,49.1,6.6,48.8,6.6z"/>
	<path class="st0" d="M53.5,6.5c-1.2,0-2.2,0.4-2.8,1s-1,1.7-1,2.9c0,1.1,0.3,2.1,1,2.7c0.7,0.7,1.6,1,2.7,1c1.2,0,2.1-0.4,2.8-1.1
		s1-1.7,1-2.8c0-1.2-0.3-2.1-1-2.7S54.6,6.5,53.5,6.5z M54.8,12.1c-0.3,0.4-0.8,0.6-1.4,0.6s-1.1-0.2-1.5-0.6s-0.5-1-0.5-1.8
		s0.2-1.4,0.5-1.8s0.8-0.6,1.5-0.6c0.6,0,1.1,0.2,1.4,0.6s0.5,1,0.5,1.8S55.1,11.7,54.8,12.1z"/>
	<path class="st0" d="M60.9,9.7c-0.5-0.2-0.9-0.4-1-0.5s-0.2-0.3-0.2-0.6c0-0.2,0.1-0.4,0.3-0.5c0.2-0.1,0.4-0.2,0.7-0.2
		c0.3,0,0.6,0,0.9,0.1c0.3,0.1,0.6,0.2,0.8,0.4h0.1V6.8l0,0c-0.2-0.1-0.5-0.2-0.8-0.2c-0.3-0.1-0.6-0.1-0.9-0.1
		c-0.8,0-1.5,0.2-2,0.6S58,8.1,58,8.7c0,0.3,0.1,0.6,0.2,0.9s0.3,0.5,0.5,0.7s0.6,0.4,1.1,0.6c0.4,0.2,0.7,0.3,0.9,0.4
		c0.2,0.1,0.3,0.2,0.4,0.3c0.1,0.1,0.1,0.2,0.1,0.4c0,0.5-0.4,0.7-1.1,0.7c-0.3,0-0.6-0.1-0.9-0.2s-0.7-0.3-1-0.5l-0.1-0.1v1.7l0,0
		c0.2,0.1,0.6,0.2,0.9,0.3s0.7,0.1,1,0.1c0.9,0,1.6-0.2,2.1-0.6s0.8-1,0.8-1.7c0-0.5-0.1-0.9-0.4-1.3C62,10.3,61.6,10,60.9,9.7z"/>
	<path class="st0" d="M67.3,6.5c-1.2,0-2.2,0.4-2.8,1c-0.7,0.7-1,1.7-1,2.9c0,1.1,0.3,2.1,1,2.7c0.7,0.7,1.6,1,2.7,1
		c1.2,0,2.1-0.4,2.8-1.1c0.7-0.7,1-1.7,1-2.8c0-1.2-0.3-2.1-1-2.7C69.4,6.9,68.5,6.5,67.3,6.5z M68.7,12.1c-0.3,0.4-0.8,0.6-1.4,0.6
		s-1.1-0.2-1.5-0.6s-0.5-1-0.5-1.8s0.2-1.4,0.5-1.8s0.8-0.6,1.5-0.6c0.6,0,1.1,0.2,1.4,0.6s0.5,1,0.5,1.8S69,11.7,68.7,12.1z"/>
	<path class="st0" d="M80.1,8.1V6.7h-1.7V4.5h-0.1l-1.6,0.6l0,0v1.6h-2.6V5.8c0-0.4,0.1-0.8,0.3-1c0.2-0.2,0.5-0.3,0.8-0.3
		c0.2,0,0.5,0.1,0.8,0.2h0.1V3.2l0,0c-0.2-0.1-0.6-0.1-1-0.1c-0.5,0-1,0.1-1.4,0.3S73,3.9,72.8,4.3c-0.2,0.4-0.3,0.9-0.3,1.4v1h-1.2
		v1.4h1.2V14h1.7V8.1h2.5v3.7c0,1.5,0.7,2.3,2.2,2.3c0.2,0,0.5,0,0.7-0.1c0.3-0.1,0.4-0.1,0.5-0.2l0,0v-1.4H80
		c-0.1,0.1-0.2,0.1-0.3,0.2c-0.1,0-0.3,0.1-0.3,0.1c-0.3,0-0.6-0.1-0.7-0.3c-0.2-0.2-0.2-0.5-0.2-0.9V8.1H80.1z"/>
	<rect x="0.7" y="0.4" class="st1" width="8" height="8"/>
	<rect x="9.7" y="0.4" class="st2" width="8" height="8"/>
	<rect x="0.7" y="9.4" class="st3" width="8" height="8"/>
	<rect x="9.7" y="9.4" class="st4" width="8" height="8"/>
</g>
</svg>
