<?xml version="1.0" encoding="utf-8"?>
<!-- Generator: Adobe Illustrator 23.0.4, SVG Export Plug-In . SVG Version: 6.00 Build 0)  -->
<svg version="1.1" id="Layer_1" xmlns="http://www.w3.org/2000/svg" xmlns:xlink="http://www.w3.org/1999/xlink" x="0px" y="0px"
	 viewBox="0 0 267.5 77.1" style="enable-background:new 0 0 267.5 77.1;" xml:space="preserve">
<style type="text/css">
	.st0{fill:#737373;}
	.st1{fill:#F25022;}
	.st2{fill:#7FBA00;}
	.st3{fill:#00A4EF;}
	.st4{fill:#FFB900;}
</style>
<title>azure-stacked-color</title>
<g id="Azure_s">
	<path class="st0" d="M110.1,44.2l11.4,30.3h-5.8l-2.7-7.6h-11.9l-2.6,7.5h-5.8l11.4-30.3L110.1,44.2z M107,49.9l-4.5,12.8h9.1
		l-4.5-12.8L107,49.9z"/>
	<path class="st0" d="M124.1,52.8h17.4v2l-11.4,15.6h11.5v4.1h-18.2v-2.4l11.2-15.2h-10.4V52.8z"/>
	<path class="st0" d="M163.3,52.8v21.7h-5.1v-2.9h-0.1c-0.7,1-1.6,1.8-2.7,2.3c-1.2,0.6-2.5,0.9-3.8,0.8c-2.1,0.1-4.2-0.6-5.8-2.2
		c-1.3-1.4-2-3.6-2-6.7V52.8h5.2v12.6c-0.1,1.5,0.3,2.9,1.1,4.1c0.8,1,2,1.5,3.3,1.4c1.3,0.1,2.6-0.5,3.5-1.5c0.9-1.1,1.4-2.6,1.3-4
		V52.8H163.3z"/>
	<path class="st0" d="M178.7,52.5c0.4,0,0.7,0,1.1,0.1c0.3,0,0.6,0.1,0.8,0.2v5.2c-0.4-0.2-0.8-0.4-1.2-0.6
		c-0.6-0.2-1.2-0.3-1.9-0.3c-1.2,0-2.4,0.6-3.2,1.6c-1,1.4-1.4,3.2-1.3,4.9v11H168V52.8h5.1v3.4h0.1c0.4-1.1,1.2-2.1,2.1-2.8
		C176.3,52.8,177.5,52.4,178.7,52.5z"/>
	<path class="st0" d="M199.1,69.1v4.2c-1,0.6-2.2,1.1-3.3,1.3c-1.4,0.3-2.9,0.5-4.4,0.5c-2.9,0.2-5.7-0.9-7.7-2.9
		c-1.8-2-2.8-4.7-2.8-8.2c-0.1-3,0.9-6,2.9-8.3c1.9-2.1,4.6-3.3,7.5-3.3c2.6-0.1,5.2,0.9,7,2.8c1.7,1.8,2.5,4.4,2.5,7.6v2.5h-14.9
		c0.2,2.2,0.9,3.7,2.1,4.6c1.3,0.9,2.9,1.4,4.6,1.3c1.2,0,2.4-0.2,3.5-0.6C197.1,70.2,198.1,69.7,199.1,69.1z M195.8,61.5
		c0.1-1.4-0.3-2.8-1.2-3.9c-0.9-0.9-2.1-1.4-3.3-1.3c-1.2,0-2.4,0.5-3.3,1.3c-1.1,1-1.7,2.4-1.9,3.9H195.8z"/>
</g>
<g id="MS-logotype">
	<path class="st0" d="M127.4,2.6v30.3h-5.3V9.1h-0.1l-9.4,23.8h-3.5L99.5,9.1h-0.1v23.8h-4.9V2.6h7.6l8.7,22.4h0.2l9.2-22.5
		L127.4,2.6z M131.8,5.9c0-0.8,0.3-1.6,0.9-2.1c1.2-1.2,3.2-1.2,4.4,0c0.6,0.5,0.9,1.3,0.9,2.1c0,0.8-0.3,1.6-0.9,2.1
		c-0.6,0.6-1.4,0.9-2.2,0.8c-0.8,0-1.6-0.3-2.2-0.9C132.1,7.4,131.8,6.6,131.8,5.9z M137.4,11.1v21.7h-5.1V11.1L137.4,11.1z
		 M153,29.1c0.9,0,1.7-0.2,2.5-0.5c0.9-0.3,1.8-0.8,2.5-1.4V32c-0.9,0.5-1.8,0.8-2.8,1.1c-1.1,0.2-2.3,0.4-3.4,0.4
		c-5.7,0.3-10.6-4.1-10.8-9.8c0-0.3,0-0.6,0-1c-0.1-3.2,1-6.2,3.1-8.6c2-2.3,4.9-3.4,8.7-3.4c1,0,2,0.1,2.9,0.4
		c0.8,0.2,1.6,0.5,2.3,0.9v4.9c-0.7-0.5-1.6-1-2.4-1.3c-0.8-0.3-1.7-0.5-2.5-0.5c-1.8-0.1-3.6,0.7-4.9,2c-1.3,1.5-2,3.4-1.9,5.3
		c-0.1,1.9,0.5,3.7,1.8,5.1C149.4,28.6,151.2,29.3,153,29.1L153,29.1z M172.6,10.8c0.4,0,0.7,0,1.1,0.1c0.3,0,0.6,0.1,0.8,0.2v5.2
		c-0.4-0.2-0.8-0.4-1.2-0.6c-0.6-0.2-1.2-0.3-1.9-0.3c-1.2,0-2.4,0.6-3.2,1.6c-1,1.4-1.4,3.2-1.3,4.9v11h-5.1V11.1h5.1v3.4h0.1
		c0.4-1.1,1.2-2.1,2.1-2.8C170.2,11.1,171.4,10.8,172.6,10.8L172.6,10.8z M174.8,22.3c-0.2-3.1,0.9-6.2,3.1-8.5
		c2-2.1,4.8-3.2,8.4-3.1c3-0.2,5.9,0.9,8,3c2,2.2,3,5.2,2.9,8.2c0.2,3.1-0.9,6.1-3.1,8.4c-2.2,2.2-5.2,3.3-8.3,3.1
		c-3,0.1-5.9-0.9-8-3C175.8,28.2,174.7,25.3,174.8,22.3L174.8,22.3z M180.1,22.1c-0.1,1.9,0.4,3.7,1.5,5.2c1.1,1.2,2.8,1.9,4.4,1.8
		c1.6,0.1,3.2-0.6,4.2-1.8c1.1-1.6,1.6-3.4,1.5-5.3c0.1-1.9-0.4-3.8-1.5-5.3c-1.1-1.2-2.7-1.8-4.3-1.7c-1.7-0.1-3.3,0.6-4.4,1.9
		C180.5,18.4,180,20.3,180.1,22.1L180.1,22.1z M204.7,16.8c0,0.6,0.2,1.3,0.7,1.7c0.9,0.7,2,1.2,3.1,1.6c1.6,0.6,3.1,1.5,4.3,2.8
		c0.8,1.1,1.3,2.4,1.2,3.7c0.1,1.9-0.8,3.8-2.4,4.9c-1.9,1.3-4.1,2-6.4,1.9c-1,0-2-0.1-3-0.3c-1-0.2-1.9-0.5-2.8-0.8v-5
		c0.9,0.6,1.9,1.2,3,1.5c0.9,0.4,1.9,0.6,2.9,0.6c0.9,0.1,1.8-0.1,2.6-0.5c0.6-0.3,0.9-1,0.8-1.6c0-0.7-0.3-1.4-0.9-1.8
		c-1-0.7-2.1-1.3-3.2-1.7c-1.5-0.5-2.9-1.5-4-2.7c-0.8-1.1-1.2-2.4-1.2-3.8c0-1.9,0.8-3.7,2.3-4.8c1.7-1.3,3.9-2,6.1-1.9
		c0.9,0,1.7,0.1,2.6,0.3c0.8,0.1,1.6,0.4,2.4,0.6v4.9c-0.7-0.5-1.5-0.9-2.4-1.2c-0.9-0.3-1.8-0.5-2.7-0.5c-0.8,0-1.6,0.2-2.3,0.6
		C205,15.6,204.7,16.2,204.7,16.8L204.7,16.8z M216.2,22.3c-0.2-3.1,0.9-6.2,3.1-8.5c2-2.1,4.8-3.1,8.4-3.1c3-0.2,5.9,0.9,8,3
		c2,2.2,3,5.2,2.9,8.2c0.2,3.1-0.9,6.1-3.1,8.4c-2.2,2.2-5.2,3.3-8.3,3.1c-3,0.1-5.9-0.9-8-3C217.2,28.2,216.1,25.3,216.2,22.3
		L216.2,22.3z M221.6,22.1c-0.1,1.9,0.4,3.7,1.5,5.2c1.1,1.2,2.7,1.9,4.4,1.8c1.6,0.1,3.2-0.6,4.2-1.8c1.1-1.6,1.6-3.4,1.5-5.3
		c0.1-1.9-0.4-3.8-1.5-5.3c-1.1-1.2-2.6-1.8-4.2-1.7c-1.7-0.1-3.3,0.6-4.4,1.9C222,18.4,221.5,20.3,221.6,22.1L221.6,22.1z
		 M255.6,15.3H248v17.6h-5.2V15.3h-3.6v-4.2h3.6v-3C242.7,6,243.5,4,245,2.5c1.5-1.5,3.6-2.3,5.7-2.2c0.6,0,1.1,0,1.6,0.1
		c0.4,0.1,0.9,0.2,1.3,0.3v4.4c-0.3-0.1-0.6-0.3-0.9-0.4c-0.5-0.1-1-0.2-1.5-0.2c-0.9-0.1-1.8,0.3-2.5,1c-0.6,0.9-1,1.9-0.9,3v2.6
		h7.6V6.3l5.1-1.6v6.4h5.2v4.2h-5.2v10.2c-0.1,1,0.2,2,0.7,2.8c0.6,0.6,1.4,0.9,2.3,0.8c0.4,0,0.7-0.1,1.1-0.2
		c0.4-0.1,0.7-0.3,1.1-0.5v4.2c-0.5,0.2-1.1,0.4-1.6,0.5c-0.7,0.2-1.5,0.2-2.2,0.2c-1.8,0.1-3.6-0.5-4.9-1.7
		c-1.2-1.5-1.8-3.3-1.6-5.2L255.6,15.3z"/>
</g>
<g id="MS-symbol">
	<rect x="1" y="2.6" class="st1" width="34.2" height="34.2"/>
	<rect x="38.8" y="2.6" class="st2" width="34.2" height="34.2"/>
	<rect x="1" y="40.3" class="st3" width="34.2" height="34.2"/>
	<rect x="38.8" y="40.3" class="st4" width="34.2" height="34.2"/>
	<rect x="1" y="2.6" class="st1" width="34.2" height="34.2"/>
	<rect x="38.8" y="2.6" class="st2" width="34.2" height="34.2"/>
	<rect x="1" y="40.3" class="st3" width="34.2" height="34.2"/>
	<rect x="38.8" y="40.3" class="st4" width="34.2" height="34.2"/>
</g>
</svg>
