<?xml version="1.0" encoding="utf-8"?>
<!-- Generator: Adobe Illustrator 22.1.0, SVG Export Plug-In . SVG Version: 6.00 Build 0)  -->
<svg version="1.1" id="Layer_1" xmlns="http://www.w3.org/2000/svg" xmlns:xlink="http://www.w3.org/1999/xlink" x="0px" y="0px"
	 viewBox="0 0 512 79" style="enable-background:new 0 0 512 79;" xml:space="preserve">
<style type="text/css">
	.st0{fill:#005BAA;}
</style>
<g id="XMLID_32_">
	<polygon id="XMLID_48_" class="st0" points="59.5,74.5 38.6,74.5 38.6,5.7 74.8,5.7 116.3,57.1 116.3,5.7 137.3,5.7 137.3,74.5 
		101.8,74.5 59.5,22.3 	"/>
	<g id="XMLID_44_">
		<path id="XMLID_45_" class="st0" d="M217.7,50.5c0,4-0.4,5.3-1.5,6.2c-1.1,1-2.8,1.2-7.6,1.2h-34c-4.8,0-6.5-0.3-7.6-1.2
			c-1-1-1.5-2.2-1.5-6.2v-21c0-4.1,0.5-5.2,1.5-6.2c1.2-1,2.9-1.3,7.6-1.3h34c4.8,0,6.5,0.2,7.6,1.3c1.1,0.9,1.5,2.1,1.5,6.2V50.5z
			 M232.8,10.7c-4.5-4.7-11-6.1-23.4-6.1h-35.8c-12.5,0-18.9,1.4-23.4,6.1c-2.8,3.2-4.6,6.4-4.6,16v26.5c0,9.6,1.8,12.9,4.6,16
			c4.5,4.7,10.9,6.2,23.4,6.2h35.8c12.4,0,18.9-1.4,23.4-6.2c2.9-3.1,4.6-6.4,4.6-16V26.7C237.5,17.2,235.7,13.9,232.8,10.7"/>
	</g>
	<path id="XMLID_41_" class="st0" d="M267.9,74.5H246V5.7h21.9V74.5z M304.9,5.7h28.8l-38.9,32.2l44,36.6h-30.9l-39.9-35.9
		L304.9,5.7z"/>
	<rect id="XMLID_38_" x="342.7" y="5.7" class="st0" width="21.9" height="68.8"/>
	<path id="XMLID_33_" class="st0" d="M448,74.5l-6.5-12h-42.3l-6.4,12h-24.1l38.7-68.8h27.2l38.7,68.8H448z M406.8,47.6H434
		l-13.6-24.9L406.8,47.6z"/>
</g>
</svg>
