<svg xmlns="http://www.w3.org/2000/svg" viewBox="0 0 774 266.27"><defs><style>.cls-1,.cls-2,.cls-4{fill:#fff;}.cls-1,.cls-4{stroke:#000;}.cls-1,.cls-3,.cls-4{stroke-linecap:round;stroke-miterlimit:10;}.cls-3{fill:none;stroke:#489bce;}.cls-4{stroke-width:1.16px;}</style></defs><g id="Layer_2" data-name="Layer 2"><rect class="cls-1" x="15.59" y="32.27" width="158.69" height="117.99"/><rect x="66.98" y="23.27" width="55.91" height="18"/><path class="cls-2" d="M81.43,28.67l-1.5,7.1h-2l-1.49-7.1H78l1,4.87,1-4.87Z"/><path class="cls-2" d="M82.22,28.67h1.55v7.1H82.22Z"/><path class="cls-2" d="M84.64,33.67v-.28h1.55v.44a.74.74,0,0,0,.83.73.68.68,0,0,0,.72-.69c0-1.27-3-1-3-3.27A2,2,0,0,1,87,28.52a1.94,1.94,0,0,1,2.2,2V31H87.65v-.54c0-.31-.3-.49-.67-.49a.59.59,0,0,0-.65.6c0,1,3,.79,3,3.21A2.09,2.09,0,0,1,87,35.92,2.15,2.15,0,0,1,84.64,33.67Z"/><path class="cls-2" d="M90.17,28.67h1.55v7.1H90.17Z"/><path class="cls-2" d="M97,30.07H95.49v5.7H93.94v-5.7H92.46v-1.4H97Z"/><path class="cls-2" d="M97.67,33.9V30.54a2.39,2.39,0,0,1,4.72,0V33.9a2.39,2.39,0,0,1-4.72,0Zm3.17,0v-3.4c0-.36-.24-.6-.8-.6s-.82.24-.82.6v3.4c0,.36.24.6.81.6S100.84,34.28,100.84,33.92Z"/><path class="cls-2" d="M105.61,33.21h-.74v2.56h-1.55v-7.1h2.36a2,2,0,0,1,2.12,1.94v.66a1.86,1.86,0,0,1-.71,1.5l.92,3h-1.62Zm-.74-1.4h.91a.44.44,0,0,0,.47-.47v-.8a.43.43,0,0,0-.46-.47h-.92Z"/><path class="cls-2" d="M108.63,33.67v-.28h1.55v.44a.74.74,0,0,0,.83.73.68.68,0,0,0,.72-.69c0-1.27-3-1-3-3.27A2,2,0,0,1,111,28.52a1.94,1.94,0,0,1,2.21,2V31h-1.55v-.54c0-.31-.3-.49-.67-.49a.59.59,0,0,0-.65.6c0,1,3,.79,3,3.21A2.1,2.1,0,0,1,111,35.92,2.15,2.15,0,0,1,108.63,33.67Z"/><rect class="cls-1" x="190.13" y="32.27" width="158.69" height="117.99"/><rect x="241.52" y="23.27" width="55.91" height="18"/><path class="cls-2" d="M250.91,28.67h1.55v7.1h-1.55Z"/><path class="cls-2" d="M258,28.67v7.1h-1.36l-1.85-4v4h-1.35v-7.1h1.35l1.85,4.06V28.67Z"/><path class="cls-2" d="M263.24,30.07h-1.47v5.7h-1.55v-5.7h-1.48v-1.4h4.5Z"/><path class="cls-2" d="M265.55,30.07v1.55h1.72V33h-1.72v1.35h2.12v1.4H264v-7.1h3.67v1.4Z"/><path class="cls-2" d="M270.79,33.21h-.74v2.56H268.5v-7.1h2.36A1.94,1.94,0,0,1,273,30.61v.66a1.86,1.86,0,0,1-.71,1.5l.92,3h-1.62Zm-.74-1.4H271a.43.43,0,0,0,.46-.47v-.8a.43.43,0,0,0-.45-.47h-.92Z"/><path class="cls-2" d="M278.58,28.67v7.1h-1.36l-1.85-4v4H274v-7.1h1.34l1.85,4.06V28.67Z"/><path class="cls-2" d="M281.12,30.07v1.55h1.72V33h-1.72v1.35h2.12v1.4h-3.67v-7.1h3.67v1.4Z"/><path class="cls-2" d="M288.39,30.07h-1.47v5.7h-1.55v-5.7h-1.48v-1.4h4.5Z"/><polyline class="cls-3" points="174.28 161.48 174.28 169.09 15.59 169.09 15.59 161.48"/><path d="M32.73,188l-.89.9-.65-.67,1.68-1.69h1v5.33H32.73Z"/><path d="M35.69,190.68a.65.65,0,1,1-.64.65A.66.66,0,0,1,35.69,190.68Z"/><path d="M39.45,186.56h1.16v3.16a1.23,1.23,0,1,0,2.46,0v-3.16h1.15v3.2A2.1,2.1,0,0,1,41.84,192a2.1,2.1,0,0,1-2.39-2.23Z"/><path d="M45.53,190.68a2.21,2.21,0,0,0,1.33.52c.44,0,.65-.15.65-.39s-.34-.37-.78-.45c-.66-.13-1.51-.29-1.51-1.21,0-.65.56-1.22,1.58-1.22a2.52,2.52,0,0,1,1.56.53l-.41.7a1.61,1.61,0,0,0-1.14-.45c-.37,0-.61.14-.61.36s.3.33.73.42c.67.12,1.56.3,1.56,1.26,0,.7-.6,1.24-1.68,1.24a2.6,2.6,0,0,1-1.72-.6Z"/><path d="M51.17,187.93a1.94,1.94,0,0,1,1.93,2.13v.22H50.23a1,1,0,0,0,1.11.9,1.6,1.6,0,0,0,1-.38l.44.65a2.41,2.41,0,0,1-1.59.54,2,2,0,0,1-.06-4.06Zm-1,1.67h1.9a.89.89,0,0,0-.95-.86A.93.93,0,0,0,50.22,189.6Z"/><path d="M54,188h1v.53a1.63,1.63,0,0,1,1.23-.62v1a1.84,1.84,0,0,0-.28,0,1.26,1.26,0,0,0-1,.44v2.55H54Z"/><path d="M61.43,191.49a1.62,1.62,0,0,1-1.23.5,1.29,1.29,0,0,1-1.34-1.28,1.22,1.22,0,0,1,1.34-1.23,1.58,1.58,0,0,1,1.23.47v-.54c0-.39-.34-.64-.85-.64a1.64,1.64,0,0,0-1.13.45l-.38-.68a2.57,2.57,0,0,1,1.69-.61c.88,0,1.68.36,1.68,1.47v2.49h-1Zm0-1a1,1,0,0,0-.82-.33c-.4,0-.73.21-.73.58s.33.57.73.57a1,1,0,0,0,.82-.34Z"/><path d="M63.61,193.36V188h1v.49a1.48,1.48,0,0,1,1.19-.59c1,0,1.71.74,1.71,2s-.72,2-1.71,2a1.46,1.46,0,0,1-1.19-.59v2Zm1.89-4.52a1.11,1.11,0,0,0-.87.44v1.36a1.14,1.14,0,0,0,.87.44,1.13,1.13,0,0,0,0-2.24Z"/><path d="M68.5,193.36V188h1v.49a1.49,1.49,0,0,1,1.19-.59c1,0,1.71.74,1.71,2s-.72,2-1.71,2a1.48,1.48,0,0,1-1.19-.59v2Zm1.88-4.52a1.14,1.14,0,0,0-.87.44v1.36a1.18,1.18,0,0,0,.87.44,1.13,1.13,0,0,0,0-2.24Z"/><path d="M73.38,188h1v.53a1.63,1.63,0,0,1,1.23-.62v1a1.84,1.84,0,0,0-.28,0,1.26,1.26,0,0,0-.95.44v2.55h-1Z"/><path d="M76.17,190a2,2,0,1,1,2,2A2,2,0,0,1,76.17,190Zm3,0a1,1,0,1,0-1,1.12A1,1,0,0,0,79.2,190Z"/><path d="M83.51,191.49a1.58,1.58,0,0,1-1.22.5A1.29,1.29,0,0,1,81,190.71a1.22,1.22,0,0,1,1.34-1.23,1.55,1.55,0,0,1,1.22.47v-.54c0-.39-.33-.64-.84-.64a1.64,1.64,0,0,0-1.13.45l-.38-.68a2.56,2.56,0,0,1,1.68-.61c.88,0,1.69.36,1.69,1.47v2.49h-1Zm0-1a1,1,0,0,0-.81-.33c-.4,0-.73.21-.73.58s.33.57.73.57a1,1,0,0,0,.81-.34Z"/><path d="M87.5,187.93a1.78,1.78,0,0,1,1.52.7l-.66.62a.92.92,0,0,0-.81-.41,1.12,1.12,0,0,0,0,2.24,1,1,0,0,0,.81-.41l.66.61a1.76,1.76,0,0,1-1.52.71,2,2,0,1,1,0-4.06Z"/><path d="M92.45,189.54c0-.54-.28-.7-.72-.7a1.14,1.14,0,0,0-.88.45v2.6h-1v-5.33h1v2a1.82,1.82,0,0,1,1.36-.6,1.11,1.11,0,0,1,1.25,1.22v2.74h-1Z"/><path d="M96.4,187.93a1.94,1.94,0,0,1,1.93,2.13v.22H95.46a1,1,0,0,0,1.11.9,1.56,1.56,0,0,0,1-.38l.45.65a2.41,2.41,0,0,1-1.59.54,2,2,0,0,1-.06-4.06Zm-1,1.67h1.91a.9.9,0,0,0-.95-.86A.93.93,0,0,0,95.44,189.6Z"/><path d="M101.93,191.4a1.51,1.51,0,0,1-1.19.59c-1,0-1.71-.74-1.71-2s.73-2,1.71-2a1.46,1.46,0,0,1,1.19.6v-2h1v5.33h-1Zm0-2.12a1.09,1.09,0,0,0-.88-.44,1.13,1.13,0,0,0,0,2.24,1.09,1.09,0,0,0,.88-.44Z"/><path d="M108.75,189.26l-.82,2.63h-1.09L105.67,188h1l.72,2.6.85-2.6h.91l.84,2.6.72-2.6h1.06l-1.18,3.86h-1.08Z"/><path d="M114.22,187.93a1.94,1.94,0,0,1,1.93,2.13v.22h-2.87a1,1,0,0,0,1.11.9,1.56,1.56,0,0,0,1-.38l.45.65a2.41,2.41,0,0,1-1.59.54,2,2,0,0,1-.06-4.06Zm-1,1.67h1.91a.9.9,0,0,0-1-.86A.93.93,0,0,0,113.26,189.6Z"/><path d="M117.07,186.56h1v2a1.46,1.46,0,0,1,1.19-.6c1,0,1.71.77,1.71,2s-.74,2-1.71,2a1.49,1.49,0,0,1-1.19-.59v.49h-1Zm1.89,4.52a1.13,1.13,0,0,0,0-2.24,1.09,1.09,0,0,0-.87.45v1.36A1.1,1.1,0,0,0,119,191.08Z"/><path d="M123.72,190a2,2,0,1,1,2,2A2,2,0,0,1,123.72,190Zm3,0a1,1,0,1,0-1,1.12A1,1,0,0,0,126.75,190Z"/><path d="M128.75,188h1v.53a1.63,1.63,0,0,1,1.23-.62v1a1.84,1.84,0,0,0-.28,0,1.3,1.3,0,0,0-1,.44v2.55h-1Z"/><path d="M138.62,189.45c0-.36-.16-.61-.57-.61a1,1,0,0,0-.8.45v2.6h-1v-2.44c0-.36-.16-.61-.57-.61a1,1,0,0,0-.8.45v2.6h-1V188h1v.5a1.69,1.69,0,0,1,1.26-.6,1,1,0,0,1,1.07.71,1.67,1.67,0,0,1,1.33-.71,1,1,0,0,1,1.14,1.17v2.79h-1Z"/><path d="M140.58,190a2,2,0,1,1,2,2A2,2,0,0,1,140.58,190Zm3,0a1,1,0,1,0-1,1.12A1,1,0,0,0,143.61,190Z"/><path d="M145.61,186.56h1v2a1.49,1.49,0,0,1,1.19-.6c1,0,1.71.77,1.71,2s-.73,2-1.71,2a1.52,1.52,0,0,1-1.19-.59v.49h-1Zm1.88,4.52a1.13,1.13,0,0,0,0-2.24,1.12,1.12,0,0,0-.87.45v1.36A1.13,1.13,0,0,0,147.49,191.08Z"/><path d="M150.36,186.93a.61.61,0,0,1,.61-.61.61.61,0,1,1-.61.61Zm.11,1.1h1v3.86h-1Z"/><path d="M152.65,186.56h1v5.33h-1Z"/><path d="M156.6,187.93a1.94,1.94,0,0,1,1.93,2.13v.22h-2.87a1.05,1.05,0,0,0,1.12.9,1.6,1.6,0,0,0,1-.38l.44.65a2.41,2.41,0,0,1-1.59.54,2,2,0,0,1-.06-4.06Zm-.95,1.67h1.9a.89.89,0,0,0-1-.86A.93.93,0,0,0,155.65,189.6Z"/><path d="M76.83,200.49a1.6,1.6,0,0,1-1.22.5,1.29,1.29,0,0,1-1.34-1.28,1.22,1.22,0,0,1,1.34-1.23,1.55,1.55,0,0,1,1.22.47v-.54c0-.39-.33-.64-.84-.64a1.64,1.64,0,0,0-1.13.45l-.38-.68a2.54,2.54,0,0,1,1.68-.61c.88,0,1.69.36,1.69,1.47v2.49h-1Zm0-1a1,1,0,0,0-.81-.33c-.4,0-.73.21-.73.58s.33.57.73.57a1,1,0,0,0,.81-.34Z"/><path d="M79,202.36V197h1v.49a1.49,1.49,0,0,1,1.19-.59c1,0,1.72.74,1.72,2s-.72,2-1.72,2A1.48,1.48,0,0,1,80,200.4v2Zm1.88-4.52a1.14,1.14,0,0,0-.87.44v1.36a1.18,1.18,0,0,0,.87.44,1.13,1.13,0,0,0,0-2.24Z"/><path d="M83.9,202.36V197h1v.49a1.48,1.48,0,0,1,1.19-.59c1,0,1.71.74,1.71,2s-.72,2-1.71,2a1.46,1.46,0,0,1-1.19-.59v2Zm1.89-4.52a1.13,1.13,0,0,0-.87.44v1.36a1.16,1.16,0,0,0,.87.44,1.13,1.13,0,0,0,0-2.24Z"/><path d="M88.8,195.56h1v5.33h-1Z"/><path d="M90.88,195.93a.61.61,0,0,1,.61-.61.61.61,0,0,1,0,1.21A.61.61,0,0,1,90.88,195.93ZM91,197h1v3.86H91Z"/><path d="M95,196.93a1.78,1.78,0,0,1,1.52.7l-.66.62a.92.92,0,0,0-.81-.41,1.12,1.12,0,0,0,0,2.24,1,1,0,0,0,.81-.41l.66.61A1.76,1.76,0,0,1,95,201a2,2,0,1,1,0-4.06Z"/><path d="M99.67,200.49a1.6,1.6,0,0,1-1.22.5,1.29,1.29,0,0,1-1.34-1.28,1.22,1.22,0,0,1,1.34-1.23,1.55,1.55,0,0,1,1.22.47v-.54c0-.39-.33-.64-.84-.64a1.64,1.64,0,0,0-1.13.45l-.38-.68a2.54,2.54,0,0,1,1.68-.61c.88,0,1.69.36,1.69,1.47v2.49h-1Zm0-1a1,1,0,0,0-.81-.33c-.4,0-.73.21-.73.58s.33.57.73.57a1,1,0,0,0,.81-.34Z"/><path d="M102.05,199.93v-2h-.63V197h.63V196h1V197h.78v.89h-.78v1.74c0,.24.13.42.35.42a.52.52,0,0,0,.35-.11l.22.77a1.24,1.24,0,0,1-.85.25A1,1,0,0,1,102.05,199.93Z"/><path d="M104.68,195.93a.61.61,0,1,1,1.21,0,.61.61,0,0,1-1.21,0Zm.1,1.1h1v3.86h-1Z"/><path d="M106.71,199a2,2,0,1,1,2,2A2,2,0,0,1,106.71,199Zm3,0a1,1,0,1,0-1,1.12A1,1,0,0,0,109.74,199Z"/><path d="M114.34,198.56c0-.54-.28-.72-.71-.72a1.1,1.1,0,0,0-.88.45v2.6h-1V197h1v.5a1.79,1.79,0,0,1,1.35-.6,1.13,1.13,0,0,1,1.26,1.24v2.72h-1Z"/><line class="cls-3" x1="94.94" y1="169.09" x2="94.94" y2="176.7"/><polyline class="cls-3" points="348.82 161.48 348.82 169.09 190.13 169.09 190.13 161.48"/><path d="M193.28,191c2.18-1.61,2.82-2.16,2.82-2.82,0-.46-.42-.69-.87-.69a1.91,1.91,0,0,0-1.42.61l-.65-.75a2.72,2.72,0,0,1,2.06-.87,1.8,1.8,0,0,1,2,1.7c0,.91-.75,1.7-2.18,2.71h2.22v1h-4Z"/><path d="M199.07,190.68a.65.65,0,1,1-.65.65A.65.65,0,0,1,199.07,190.68Z"/><path d="M202.83,186.56H204v3.16a1.23,1.23,0,1,0,2.46,0v-3.16h1.15v3.2a2.39,2.39,0,0,1-4.76,0Z"/><path d="M208.9,190.68a2.21,2.21,0,0,0,1.33.52c.44,0,.65-.15.65-.39s-.33-.37-.77-.45c-.67-.13-1.52-.29-1.52-1.21,0-.65.56-1.22,1.58-1.22a2.5,2.5,0,0,1,1.56.53l-.41.7a1.61,1.61,0,0,0-1.14-.45c-.37,0-.61.14-.61.36s.3.33.74.42c.66.12,1.55.3,1.55,1.26,0,.7-.6,1.24-1.67,1.24a2.63,2.63,0,0,1-1.73-.6Z"/><path d="M214.54,187.93a2,2,0,0,1,1.94,2.13v.22h-2.87a1,1,0,0,0,1.11.9,1.58,1.58,0,0,0,1-.38l.45.65a2.46,2.46,0,0,1-1.6.54,2,2,0,0,1-2.06-2A2,2,0,0,1,214.54,187.93Zm-.95,1.67h1.9a.89.89,0,0,0-1-.86A.93.93,0,0,0,213.59,189.6Z"/><path d="M217.39,188h1v.53a1.63,1.63,0,0,1,1.23-.62v1a1.84,1.84,0,0,0-.28,0,1.28,1.28,0,0,0-1,.44v2.55h-1Z"/><path d="M223,189.56c0-.54-.28-.72-.71-.72a1.09,1.09,0,0,0-.88.45v2.6h-1V188h1v.5a1.77,1.77,0,0,1,1.35-.6,1.13,1.13,0,0,1,1.25,1.24v2.72h-1Z"/><path d="M227.53,191.49a1.6,1.6,0,0,1-1.22.5,1.28,1.28,0,0,1-1.34-1.28,1.21,1.21,0,0,1,1.34-1.23,1.55,1.55,0,0,1,1.22.47v-.54c0-.39-.33-.64-.85-.64a1.61,1.61,0,0,0-1.12.45l-.39-.68a2.58,2.58,0,0,1,1.69-.61c.88,0,1.69.36,1.69,1.47v2.49h-1Zm0-1a1,1,0,0,0-.81-.33c-.4,0-.73.21-.73.58s.33.57.73.57a1,1,0,0,0,.81-.34Z"/><path d="M234.5,189.45c0-.36-.16-.61-.57-.61a1,1,0,0,0-.8.45v2.6h-1v-2.44c0-.36-.16-.61-.58-.61a1,1,0,0,0-.8.45v2.6h-1V188h1v.5a1.69,1.69,0,0,1,1.26-.6,1,1,0,0,1,1.08.71,1.63,1.63,0,0,1,1.32-.71,1,1,0,0,1,1.14,1.17v2.79h-1Z"/><path d="M238.46,187.93a1.94,1.94,0,0,1,1.94,2.13v.22h-2.87a1,1,0,0,0,1.11.9,1.58,1.58,0,0,0,1-.38l.45.65a2.41,2.41,0,0,1-1.59.54,2,2,0,0,1-.07-4.06Zm-1,1.67h1.91a.9.9,0,0,0-1-.86A.93.93,0,0,0,237.51,189.6Z"/><path d="M243.24,186.93a.61.61,0,1,1,.61.6A.61.61,0,0,1,243.24,186.93Zm.11,1.1h1v3.86h-1Z"/><path d="M245.67,190.68a2.21,2.21,0,0,0,1.33.52c.44,0,.65-.15.65-.39s-.34-.37-.78-.45c-.66-.13-1.52-.29-1.52-1.21,0-.65.57-1.22,1.59-1.22a2.52,2.52,0,0,1,1.56.53l-.41.7a1.61,1.61,0,0,0-1.14-.45c-.37,0-.61.14-.61.36s.3.33.73.42c.67.12,1.55.3,1.55,1.26,0,.7-.6,1.24-1.67,1.24a2.6,2.6,0,0,1-1.72-.6Z"/><path d="M253.34,187.93a1.94,1.94,0,0,1,1.93,2.13v.22H252.4a1,1,0,0,0,1.11.9,1.56,1.56,0,0,0,1-.38l.45.65a2.41,2.41,0,0,1-1.59.54,2,2,0,0,1-.06-4.06Zm-1,1.67h1.91a.9.9,0,0,0-.95-.86A.93.93,0,0,0,252.38,189.6Z"/><path d="M258.8,189.56c0-.54-.28-.72-.71-.72a1.1,1.1,0,0,0-.88.45v2.6h-1V188h1v.5a1.79,1.79,0,0,1,1.35-.6,1.12,1.12,0,0,1,1.25,1.24v2.72h-1Z"/><path d="M261.2,190.93v-2h-.64V188h.64V187h1V188H263v.89h-.78v1.74c0,.24.13.42.35.42a.52.52,0,0,0,.35-.11l.22.77a1.24,1.24,0,0,1-.85.25A1,1,0,0,1,261.2,190.93Z"/><path d="M265.62,187.93a2,2,0,0,1,1.94,2.13v.22h-2.87a1,1,0,0,0,1.11.9,1.58,1.58,0,0,0,1-.38l.45.65a2.45,2.45,0,0,1-1.59.54,2,2,0,1,1-.07-4.06Zm-.95,1.67h1.9a.89.89,0,0,0-.95-.86A.93.93,0,0,0,264.67,189.6Z"/><path d="M268.48,188h1v.53a1.63,1.63,0,0,1,1.23-.62v1a1.7,1.7,0,0,0-.28,0,1.3,1.3,0,0,0-.95.44v2.55h-1Z"/><path d="M273.26,187.93a1.94,1.94,0,0,1,1.94,2.13v.22h-2.87a1,1,0,0,0,1.11.9,1.58,1.58,0,0,0,1-.38l.45.65a2.41,2.41,0,0,1-1.59.54,2,2,0,0,1-.07-4.06Zm-.95,1.67h1.91a.9.9,0,0,0-1-.86A.93.93,0,0,0,272.31,189.6Z"/><path d="M278.8,191.4a1.51,1.51,0,0,1-1.19.59c-1,0-1.71-.74-1.71-2s.73-2,1.71-2a1.47,1.47,0,0,1,1.19.6v-2h1v5.33h-1Zm0-2.12a1.1,1.1,0,0,0-.88-.44,1.13,1.13,0,0,0,0,2.24,1.1,1.1,0,0,0,.88-.44Z"/><path d="M282.79,190a2,2,0,1,1,2,2A2,2,0,0,1,282.79,190Zm3,0a1,1,0,1,0-1,1.12A1,1,0,0,0,285.82,190Z"/><path d="M287.82,188h1v.53a1.63,1.63,0,0,1,1.23-.62v1a1.84,1.84,0,0,0-.28,0,1.26,1.26,0,0,0-1,.44v2.55h-1Z"/><path d="M292.91,193.36V188h1v.49a1.49,1.49,0,0,1,1.19-.59c1,0,1.72.74,1.72,2s-.72,2-1.72,2a1.49,1.49,0,0,1-1.19-.59v2Zm1.89-4.52a1.15,1.15,0,0,0-.88.44v1.36a1.18,1.18,0,0,0,.88.44,1.13,1.13,0,0,0,0-2.24Z"/><path d="M297.79,188h1v.53a1.63,1.63,0,0,1,1.23-.62v1a1.84,1.84,0,0,0-.28,0,1.28,1.28,0,0,0-.95.44v2.55h-1Z"/><path d="M302.58,187.93a2,2,0,0,1,1.94,2.13v.22h-2.87a1,1,0,0,0,1.11.9,1.58,1.58,0,0,0,1-.38l.45.65a2.45,2.45,0,0,1-1.59.54,2,2,0,1,1-.07-4.06Zm-.95,1.67h1.9a.89.89,0,0,0-.95-.86A.93.93,0,0,0,301.63,189.6Z"/><path d="M305.38,189.53h1.92v.86h-1.92Z"/><path d="M308.32,193.36V188h1v.49a1.46,1.46,0,0,1,1.19-.59c1,0,1.71.74,1.71,2s-.72,2-1.71,2a1.46,1.46,0,0,1-1.19-.59v2Zm1.89-4.52a1.11,1.11,0,0,0-.87.44v1.36a1.14,1.14,0,0,0,.87.44,1.13,1.13,0,0,0,0-2.24Z"/><path d="M313,190a2,2,0,1,1,2,2A2,2,0,0,1,313,190Zm3,0a1,1,0,1,0-1,1.12A1,1,0,0,0,316,190Z"/><path d="M318,193.36V188h1v.49a1.48,1.48,0,0,1,1.19-.59c1,0,1.71.74,1.71,2s-.72,2-1.71,2a1.46,1.46,0,0,1-1.19-.59v2Zm1.89-4.52a1.13,1.13,0,0,0-.87.44v1.36a1.16,1.16,0,0,0,.87.44,1.13,1.13,0,0,0,0-2.24Z"/><path d="M325.47,191.4a1.77,1.77,0,0,1-1.35.59,1.11,1.11,0,0,1-1.25-1.22V188h1v2.34c0,.54.28.71.72.71a1.09,1.09,0,0,0,.87-.44V188h1v3.86h-1Z"/><path d="M327.66,186.56h1v5.33h-1Z"/><path d="M332.18,191.49a1.62,1.62,0,0,1-1.23.5,1.29,1.29,0,0,1-1.34-1.28,1.22,1.22,0,0,1,1.34-1.23,1.58,1.58,0,0,1,1.23.47v-.54c0-.39-.34-.64-.85-.64a1.64,1.64,0,0,0-1.13.45l-.38-.68a2.57,2.57,0,0,1,1.69-.61c.88,0,1.68.36,1.68,1.47v2.49h-1Zm0-1a1,1,0,0,0-.82-.33c-.4,0-.73.21-.73.58s.33.57.73.57a1,1,0,0,0,.82-.34Z"/><path d="M334.56,190.93v-2h-.64V188h.64V187h1V188h.79v.89h-.79v1.74c0,.24.13.42.35.42a.55.55,0,0,0,.36-.11l.21.77a1.22,1.22,0,0,1-.85.25A1,1,0,0,1,334.56,190.93Z"/><path d="M339,187.93a1.94,1.94,0,0,1,1.93,2.13v.22h-2.87a1,1,0,0,0,1.11.9,1.58,1.58,0,0,0,1-.38l.45.65a2.41,2.41,0,0,1-1.59.54,2,2,0,0,1-.06-4.06Zm-1,1.67h1.91a.9.9,0,0,0-.95-.86A.93.93,0,0,0,338,189.6Z"/><path d="M344.52,191.4a1.51,1.51,0,0,1-1.19.59c-1,0-1.71-.74-1.71-2s.73-2,1.71-2a1.46,1.46,0,0,1,1.19.6v-2h1v5.33h-1Zm0-2.12a1.09,1.09,0,0,0-.88-.44,1.13,1.13,0,0,0,0,2.24,1.09,1.09,0,0,0,.88-.44Z"/><path d="M195.54,199a5.56,5.56,0,0,1,1.26-3.53l.64.47a5.88,5.88,0,0,0-.81,3.06,5.76,5.76,0,0,0,.81,3l-.64.49A5.56,5.56,0,0,1,195.54,199Z"/><path d="M200.69,200.4a1.79,1.79,0,0,1-1.36.59,1.11,1.11,0,0,1-1.25-1.22V197h1v2.34c0,.54.28.71.71.71a1.13,1.13,0,0,0,.88-.44V197h1v3.86h-1Z"/><path d="M203,199.68a2.21,2.21,0,0,0,1.33.52c.44,0,.65-.15.65-.39s-.33-.37-.77-.45c-.67-.13-1.52-.29-1.52-1.21,0-.65.56-1.22,1.58-1.22a2.48,2.48,0,0,1,1.56.53l-.41.7a1.61,1.61,0,0,0-1.14-.45c-.37,0-.61.14-.61.36s.3.33.74.42c.66.12,1.55.3,1.55,1.26,0,.7-.6,1.24-1.67,1.24a2.63,2.63,0,0,1-1.73-.6Z"/><path d="M208.66,196.93a2,2,0,0,1,1.94,2.13v.22h-2.87a1,1,0,0,0,1.11.9,1.58,1.58,0,0,0,1-.38l.45.65a2.46,2.46,0,0,1-1.6.54,2,2,0,0,1-2.06-2A2,2,0,0,1,208.66,196.93Zm-.95,1.67h1.9a.89.89,0,0,0-1-.86A.93.93,0,0,0,207.71,198.6Z"/><path d="M211.51,197h1v.53a1.63,1.63,0,0,1,1.23-.62v1a1.84,1.84,0,0,0-.28,0,1.28,1.28,0,0,0-.95.44v2.55h-1Z"/><path d="M217.14,198.56c0-.54-.28-.72-.71-.72a1.09,1.09,0,0,0-.88.45v2.6h-1V197h1v.5a1.77,1.77,0,0,1,1.35-.6,1.13,1.13,0,0,1,1.25,1.24v2.72h-1Z"/><path d="M221.65,200.49a1.6,1.6,0,0,1-1.22.5,1.28,1.28,0,0,1-1.34-1.28,1.21,1.21,0,0,1,1.34-1.23,1.55,1.55,0,0,1,1.22.47v-.54c0-.39-.33-.64-.85-.64a1.63,1.63,0,0,0-1.12.45l-.39-.68a2.58,2.58,0,0,1,1.69-.61c.88,0,1.69.36,1.69,1.47v2.49h-1Zm0-1a1,1,0,0,0-.81-.33c-.4,0-.73.21-.73.58s.33.57.73.57a1,1,0,0,0,.81-.34Z"/><path d="M228.62,198.45c0-.36-.15-.61-.57-.61a1,1,0,0,0-.8.45v2.6h-1v-2.44c0-.36-.16-.61-.58-.61a1,1,0,0,0-.8.45v2.6h-1V197h1v.5a1.69,1.69,0,0,1,1.26-.6,1,1,0,0,1,1.08.71,1.63,1.63,0,0,1,1.32-.71,1,1,0,0,1,1.14,1.17v2.79h-1Z"/><path d="M232.58,196.93a1.94,1.94,0,0,1,1.94,2.13v.22h-2.87a1,1,0,0,0,1.11.9,1.58,1.58,0,0,0,1-.38l.45.65a2.41,2.41,0,0,1-1.59.54,2,2,0,0,1-.07-4.06Zm-1,1.67h1.91a.9.9,0,0,0-1-.86A.93.93,0,0,0,231.63,198.6Z"/><path d="M240.07,198.56c0-.54-.28-.72-.71-.72a1.1,1.1,0,0,0-.88.45v2.6h-1V197h1v.5a1.79,1.79,0,0,1,1.35-.6,1.13,1.13,0,0,1,1.26,1.24v2.72h-1Z"/><path d="M242,199a2,2,0,1,1,2,2A2,2,0,0,1,242,199Zm3,0a1,1,0,1,0-1,1.12A1,1,0,0,0,245.05,199Z"/><path d="M247.26,199.93v-2h-.64V197h.64V196h1V197h.78v.89h-.78v1.74c0,.24.13.42.35.42A.52.52,0,0,0,249,200l.22.77a1.22,1.22,0,0,1-.85.25A1,1,0,0,1,247.26,199.93Z"/><path d="M254.29,200.49a1.62,1.62,0,0,1-1.22.5,1.29,1.29,0,0,1-1.35-1.28,1.22,1.22,0,0,1,1.35-1.23,1.57,1.57,0,0,1,1.22.47v-.54c0-.39-.34-.64-.85-.64a1.66,1.66,0,0,0-1.13.45l-.38-.68a2.57,2.57,0,0,1,1.69-.61c.88,0,1.68.36,1.68,1.47v2.49h-1Zm0-1a1,1,0,0,0-.82-.33c-.4,0-.72.21-.72.58s.32.57.72.57a1,1,0,0,0,.82-.34Z"/><path d="M260,199.4l-.46.5v1h-1v-5.33h1v3.19L261,197h1.25l-1.53,1.75,1.58,2.11H261Z"/><path d="M265.61,198.56c0-.54-.28-.72-.71-.72a1.1,1.1,0,0,0-.88.45v2.6h-1V197h1v.5a1.79,1.79,0,0,1,1.35-.6,1.12,1.12,0,0,1,1.25,1.24v2.72h-1Z"/><path d="M267.56,199a2,2,0,1,1,2,2A2,2,0,0,1,267.56,199Zm3,0a1,1,0,1,0-1,1.12A1,1,0,0,0,270.59,199Z"/><path d="M275.11,198.26l-.82,2.63h-1.08L272,197h1.06l.72,2.6.84-2.6h.91l.84,2.6.72-2.6h1.06L277,200.89h-1.08Z"/><path d="M278.89,195.56h1v5.33h-1Z"/><path d="M282.84,196.93a2,2,0,0,1,1.94,2.13v.22h-2.87a1,1,0,0,0,1.11.9,1.58,1.58,0,0,0,1-.38l.45.65a2.43,2.43,0,0,1-1.59.54,2,2,0,1,1-.07-4.06Zm-.95,1.67h1.9a.89.89,0,0,0-1-.86A.93.93,0,0,0,281.89,198.6Z"/><path d="M288.38,200.4a1.52,1.52,0,0,1-1.19.59c-1,0-1.71-.74-1.71-2s.72-2,1.71-2a1.49,1.49,0,0,1,1.19.6v-2h1v5.33h-1Zm0-2.12a1.1,1.1,0,0,0-.88-.44,1.13,1.13,0,0,0,0,2.24,1.1,1.1,0,0,0,.88-.44Z"/><path d="M291,201.15a1.55,1.55,0,0,0,1.21.48.94.94,0,0,0,1.06-1v-.39a1.51,1.51,0,0,1-1.19.61c-1,0-1.7-.68-1.7-2a1.73,1.73,0,0,1,1.7-2,1.46,1.46,0,0,1,1.19.6V197h1v3.6c0,1.47-1.14,1.83-2.09,1.83a2.3,2.3,0,0,1-1.66-.58Zm2.27-2.87a1.07,1.07,0,0,0-.87-.44,1.06,1.06,0,0,0,0,2.12,1.1,1.1,0,0,0,.87-.44Z"/><path d="M297.22,196.93a1.94,1.94,0,0,1,1.93,2.13v.22h-2.87a1.05,1.05,0,0,0,1.12.9,1.58,1.58,0,0,0,1-.38l.45.65a2.46,2.46,0,0,1-1.6.54,2,2,0,0,1-2.06-2A2,2,0,0,1,297.22,196.93Zm-1,1.67h1.9a.89.89,0,0,0-.95-.86A.93.93,0,0,0,296.27,198.6Z"/><path d="M303.85,196.93a2,2,0,0,1,1.94,2.13v.22h-2.87a1,1,0,0,0,1.11.9,1.58,1.58,0,0,0,1-.38l.45.65a2.43,2.43,0,0,1-1.59.54,2,2,0,1,1-.07-4.06Zm-1,1.67h1.9a.89.89,0,0,0-.95-.86A.93.93,0,0,0,302.9,198.6Z"/><path d="M306.72,195.56h1v5.33h-1Z"/><path d="M310.66,196.93a2,2,0,0,1,1.94,2.13v.22h-2.87a1,1,0,0,0,1.11.9,1.58,1.58,0,0,0,1-.38l.45.65a2.43,2.43,0,0,1-1.59.54,2,2,0,1,1-.07-4.06Zm-1,1.67h1.9a.89.89,0,0,0-.95-.86A.93.93,0,0,0,309.71,198.6Z"/><path d="M318.31,198.45c0-.36-.16-.61-.58-.61a1,1,0,0,0-.8.45v2.6h-1v-2.44c0-.36-.16-.61-.58-.61a1.07,1.07,0,0,0-.8.45v2.6h-1V197h1v.5a1.72,1.72,0,0,1,1.27-.6,1,1,0,0,1,1.07.71,1.64,1.64,0,0,1,1.33-.71,1,1,0,0,1,1.13,1.17v2.79h-1Z"/><path d="M322.27,196.93a1.94,1.94,0,0,1,1.93,2.13v.22h-2.87a1,1,0,0,0,1.11.9,1.56,1.56,0,0,0,1-.38l.45.65a2.41,2.41,0,0,1-1.59.54,2,2,0,0,1-.06-4.06Zm-.95,1.67h1.9a.89.89,0,0,0-1-.86A.92.92,0,0,0,321.32,198.6Z"/><path d="M327.73,198.56c0-.54-.28-.72-.71-.72a1.1,1.1,0,0,0-.88.45v2.6h-1V197h1v.5a1.79,1.79,0,0,1,1.35-.6,1.12,1.12,0,0,1,1.25,1.24v2.72h-1Z"/><path d="M330.13,199.93v-2h-.64V197h.64V196h1V197h.78v.89h-.78v1.74c0,.24.13.42.35.42a.52.52,0,0,0,.35-.11l.22.77a1.24,1.24,0,0,1-.85.25A1,1,0,0,1,330.13,199.93Z"/><path d="M334.59,199a2,2,0,1,1,2,2A2,2,0,0,1,334.59,199Zm3,0a1,1,0,1,0-1,1.12A1,1,0,0,0,337.62,199Z"/><path d="M342.22,198.56c0-.54-.28-.72-.71-.72a1.1,1.1,0,0,0-.88.45v2.6h-1V197h1v.5a1.79,1.79,0,0,1,1.35-.6,1.13,1.13,0,0,1,1.26,1.24v2.72h-1Z"/><path d="M255.22,204.93a.61.61,0,0,1,.61-.61.61.61,0,0,1,0,1.21A.61.61,0,0,1,255.22,204.93Zm.1,1.1h1v3.86h-1Z"/><path d="M257.72,208.93v-2h-.64V206h.64V205h1V206h.79v.89h-.79v1.74c0,.24.13.42.35.42a.55.55,0,0,0,.36-.11l.21.77a1.22,1.22,0,0,1-.85.25A1,1,0,0,1,257.72,208.93Z"/><path d="M260.62,208.68a2.24,2.24,0,0,0,1.34.52c.44,0,.64-.15.64-.39s-.33-.37-.77-.45c-.67-.13-1.52-.29-1.52-1.21,0-.65.57-1.22,1.58-1.22a2.48,2.48,0,0,1,1.56.53l-.41.7a1.61,1.61,0,0,0-1.14-.45c-.37,0-.61.14-.61.36s.31.33.74.42c.66.12,1.55.3,1.55,1.26,0,.7-.6,1.24-1.67,1.24a2.65,2.65,0,0,1-1.73-.6Z"/><path d="M266.29,208a2,2,0,1,1,2,2A2,2,0,0,1,266.29,208Zm3,0a1,1,0,1,0-1,1.12A1,1,0,0,0,269.32,208Z"/><path d="M273.84,207.26l-.81,2.63h-1.09L270.76,206h1.06l.72,2.6.85-2.6h.9l.85,2.6.72-2.6h1.05l-1.17,3.86h-1.08Z"/><path d="M280.24,207.56a.63.63,0,0,0-.72-.72,1.1,1.1,0,0,0-.88.45v2.6h-1V206h1v.5a1.8,1.8,0,0,1,1.36-.6,1.13,1.13,0,0,1,1.25,1.24v2.72h-1Z"/><path d="M281.9,204.89l.64-.47a5.51,5.51,0,0,1,0,7.06l-.64-.49a5.67,5.67,0,0,0,.81-3A5.79,5.79,0,0,0,281.9,204.89Z"/><path d="M208.33,226.39a2.17,2.17,0,0,0,1.48.61c.64,0,1-.28,1-.69s-.32-.63-1.07-.63h-.66v-1h.66c.59,0,1-.19,1-.59s-.44-.64-1-.64a2,2,0,0,0-1.36.56l-.55-.7a2.6,2.6,0,0,1,2-.85c1.25,0,2,.56,2,1.45a1.3,1.3,0,0,1-1.17,1.21,1.34,1.34,0,0,1,1.25,1.28c0,.92-.82,1.57-2.1,1.57a2.67,2.67,0,0,1-2.11-.86Z"/><path d="M213.52,226.68a.65.65,0,1,1-.65.65A.66.66,0,0,1,213.52,226.68Z"/><path d="M217.28,222.56h1.15v3.16a1.23,1.23,0,1,0,2.46,0v-3.16H222v3.2a2.39,2.39,0,0,1-4.76,0Z"/><path d="M223.35,226.68a2.24,2.24,0,0,0,1.34.52c.44,0,.64-.15.64-.39s-.33-.37-.77-.45c-.66-.13-1.52-.29-1.52-1.21,0-.65.57-1.22,1.58-1.22a2.48,2.48,0,0,1,1.56.53l-.41.7a1.61,1.61,0,0,0-1.14-.45c-.37,0-.61.14-.61.36s.31.33.74.42c.66.12,1.55.3,1.55,1.26,0,.7-.6,1.24-1.67,1.24a2.65,2.65,0,0,1-1.73-.6Z"/><path d="M229,223.93a1.94,1.94,0,0,1,1.94,2.13v.22h-2.87a1,1,0,0,0,1.11.9,1.58,1.58,0,0,0,1-.38l.45.65a2.43,2.43,0,0,1-1.59.54,2,2,0,1,1-.07-4.06Zm-1,1.67H230a.9.9,0,0,0-1-.86A.93.93,0,0,0,228,225.6Z"/><path d="M231.85,224h1v.53a1.63,1.63,0,0,1,1.23-.62v1a1.84,1.84,0,0,0-.28,0,1.3,1.3,0,0,0-.95.44v2.55h-1Z"/><path d="M238.68,223.93a1.94,1.94,0,0,1,1.94,2.13v.22h-2.87a1,1,0,0,0,1.11.9,1.58,1.58,0,0,0,1-.38l.45.65a2.41,2.41,0,0,1-1.59.54,2,2,0,0,1-.07-4.06Zm-1,1.67h1.91a.9.9,0,0,0-1-.86A.93.93,0,0,0,237.73,225.6Z"/><path d="M244.15,225.56a.63.63,0,0,0-.72-.72,1.1,1.1,0,0,0-.88.45v2.6h-1V224h1v.5a1.8,1.8,0,0,1,1.36-.6,1.13,1.13,0,0,1,1.25,1.24v2.72h-1Z"/><path d="M246.54,226.93v-2h-.64V224h.64V223h1V224h.78v.89h-.78v1.74c0,.24.12.42.35.42a.54.54,0,0,0,.35-.11l.22.77a1.26,1.26,0,0,1-.85.25A1,1,0,0,1,246.54,226.93Z"/><path d="M251,223.93a1.94,1.94,0,0,1,1.93,2.13v.22H250a1,1,0,0,0,1.11.9,1.6,1.6,0,0,0,1-.38l.44.65A2.41,2.41,0,0,1,251,228a2,2,0,0,1-.06-4.06ZM250,225.6h1.9a.89.89,0,0,0-.95-.86A.93.93,0,0,0,250,225.6Z"/><path d="M253.82,224h1v.53a1.63,1.63,0,0,1,1.23-.62v1a1.84,1.84,0,0,0-.28,0,1.3,1.3,0,0,0-.95.44v2.55h-1Z"/><path d="M257,226.68a2.21,2.21,0,0,0,1.33.52c.44,0,.65-.15.65-.39s-.33-.37-.77-.45c-.67-.13-1.52-.29-1.52-1.21,0-.65.56-1.22,1.58-1.22a2.48,2.48,0,0,1,1.56.53l-.41.7a1.61,1.61,0,0,0-1.14-.45c-.37,0-.61.14-.61.36s.3.33.74.42c.66.12,1.55.3,1.55,1.26,0,.7-.6,1.24-1.67,1.24a2.63,2.63,0,0,1-1.73-.6Z"/><path d="M263,229.36V224h1v.49a1.5,1.5,0,0,1,1.2-.59c1,0,1.71.74,1.71,2s-.72,2-1.71,2a1.49,1.49,0,0,1-1.2-.59v2Zm1.89-4.52a1.15,1.15,0,0,0-.88.44v1.36a1.18,1.18,0,0,0,.88.44,1.13,1.13,0,0,0,0-2.24Z"/><path d="M270.14,227.49a1.6,1.6,0,0,1-1.22.5,1.29,1.29,0,0,1-1.35-1.28,1.22,1.22,0,0,1,1.35-1.23,1.57,1.57,0,0,1,1.22.47v-.54c0-.39-.34-.64-.85-.64a1.61,1.61,0,0,0-1.12.45l-.39-.68a2.57,2.57,0,0,1,1.69-.61c.88,0,1.69.36,1.69,1.47v2.49h-1Zm0-1a1,1,0,0,0-.82-.33c-.4,0-.72.21-.72.58s.32.57.72.57a1,1,0,0,0,.82-.34Z"/><path d="M272.44,226.68a2.24,2.24,0,0,0,1.34.52c.44,0,.64-.15.64-.39s-.33-.37-.77-.45c-.67-.13-1.52-.29-1.52-1.21,0-.65.57-1.22,1.58-1.22a2.48,2.48,0,0,1,1.56.53l-.41.7a1.61,1.61,0,0,0-1.14-.45c-.37,0-.61.14-.61.36s.31.33.74.42c.66.12,1.55.3,1.55,1.26,0,.7-.6,1.24-1.67,1.24a2.65,2.65,0,0,1-1.73-.6Z"/><path d="M276.44,226.68a2.24,2.24,0,0,0,1.34.52c.44,0,.65-.15.65-.39s-.34-.37-.78-.45c-.66-.13-1.52-.29-1.52-1.21,0-.65.57-1.22,1.58-1.22a2.48,2.48,0,0,1,1.56.53l-.4.7a1.66,1.66,0,0,0-1.15-.45c-.37,0-.61.14-.61.36s.31.33.74.42c.66.12,1.55.3,1.55,1.26,0,.7-.6,1.24-1.67,1.24a2.65,2.65,0,0,1-1.73-.6Z"/><path d="M283,225.26l-.82,2.63h-1.08L279.87,224h1.06l.72,2.6.84-2.6h.91l.84,2.6L285,224H286l-1.18,3.86h-1.07Z"/><path d="M286.42,226a2,2,0,1,1,2,2A2,2,0,0,1,286.42,226Zm3,0a1,1,0,1,0-1,1.12A1,1,0,0,0,289.45,226Z"/><path d="M291.45,224h1v.53a1.63,1.63,0,0,1,1.23-.62v1a1.84,1.84,0,0,0-.28,0,1.3,1.3,0,0,0-1,.44v2.55h-1Z"/><path d="M297.16,227.4A1.51,1.51,0,0,1,296,228c-1,0-1.71-.74-1.71-2s.72-2,1.71-2a1.47,1.47,0,0,1,1.19.6v-2h1v5.33h-1Zm0-2.12a1.1,1.1,0,0,0-.88-.44,1.13,1.13,0,0,0,0,2.24,1.1,1.1,0,0,0,.88-.44Z"/><path d="M301.15,226a2,2,0,1,1,2,2A2,2,0,0,1,301.15,226Zm3,0a1,1,0,1,0-1,1.12A1,1,0,0,0,304.18,226Z"/><path d="M306.18,224h1v.53a1.63,1.63,0,0,1,1.23-.62v1a2,2,0,0,0-.28,0,1.26,1.26,0,0,0-.95.44v2.55h-1Z"/><path d="M311.27,229.36V224h1v.49a1.49,1.49,0,0,1,1.19-.59c1,0,1.72.74,1.72,2s-.72,2-1.72,2a1.48,1.48,0,0,1-1.19-.59v2Zm1.88-4.52a1.14,1.14,0,0,0-.87.44v1.36a1.18,1.18,0,0,0,.87.44,1.13,1.13,0,0,0,0-2.24Z"/><path d="M316,222.93a.61.61,0,1,1,1.21,0,.61.61,0,0,1-1.21,0Zm.1,1.1h1v3.86h-1Z"/><path d="M320.93,225.56c0-.54-.28-.72-.71-.72a1.1,1.1,0,0,0-.88.45v2.6h-1V224h1v.5a1.79,1.79,0,0,1,1.35-.6,1.13,1.13,0,0,1,1.26,1.24v2.72h-1Z"/><path d="M325,226a5.56,5.56,0,0,1,1.26-3.53l.64.47a6,6,0,0,0-.8,3.06,5.85,5.85,0,0,0,.8,3l-.64.49A5.56,5.56,0,0,1,325,226Z"/><path d="M329.85,227.49a1.6,1.6,0,0,1-1.22.5,1.29,1.29,0,0,1-1.35-1.28,1.22,1.22,0,0,1,1.35-1.23,1.57,1.57,0,0,1,1.22.47v-.54c0-.39-.34-.64-.85-.64a1.61,1.61,0,0,0-1.12.45l-.39-.68a2.57,2.57,0,0,1,1.69-.61c.88,0,1.69.36,1.69,1.47v2.49h-1Zm0-1a1,1,0,0,0-.82-.33c-.4,0-.72.21-.72.58s.32.57.72.57a1,1,0,0,0,.82-.34Z"/><path d="M213.83,232.93a1.78,1.78,0,0,1,1.52.7l-.66.62a.93.93,0,0,0-.82-.41,1.12,1.12,0,0,0,0,2.24,1,1,0,0,0,.82-.41l.66.61a1.76,1.76,0,0,1-1.52.71,2,2,0,1,1,0-4.06Z"/><path d="M215.85,235a2,2,0,1,1,2,2A2,2,0,0,1,215.85,235Zm3,0a1,1,0,1,0-1,1.12A1,1,0,0,0,218.88,235Z"/><path d="M225.67,234.45c0-.36-.16-.61-.58-.61a1,1,0,0,0-.8.45v2.6h-1v-2.44c0-.36-.16-.61-.58-.61a1.07,1.07,0,0,0-.8.45v2.6h-1V233h1v.5a1.72,1.72,0,0,1,1.27-.6,1,1,0,0,1,1.07.71,1.64,1.64,0,0,1,1.33-.71,1,1,0,0,1,1.13,1.17v2.79h-1Z"/><path d="M227.87,238.36V233h1v.49a1.5,1.5,0,0,1,1.2-.59c1,0,1.71.74,1.71,2s-.72,2-1.71,2a1.49,1.49,0,0,1-1.2-.59v2Zm1.89-4.52a1.15,1.15,0,0,0-.88.44v1.36a1.18,1.18,0,0,0,.88.44,1.13,1.13,0,0,0,0-2.24Z"/><path d="M232.76,231.56h1v5.33h-1Z"/><path d="M234.84,231.93a.61.61,0,0,1,.61-.61.61.61,0,1,1-.61.61ZM235,233h1v3.86h-1Z"/><path d="M239.44,236.49a1.6,1.6,0,0,1-1.22.5,1.28,1.28,0,0,1-1.34-1.28,1.21,1.21,0,0,1,1.34-1.23,1.55,1.55,0,0,1,1.22.47v-.54c0-.39-.33-.64-.84-.64a1.64,1.64,0,0,0-1.13.45l-.39-.68a2.58,2.58,0,0,1,1.69-.61c.88,0,1.69.36,1.69,1.47v2.49h-1Zm0-1a1,1,0,0,0-.81-.33c-.4,0-.73.21-.73.58s.33.57.73.57a1,1,0,0,0,.81-.34Z"/><path d="M244.23,234.56c0-.54-.28-.72-.71-.72a1.1,1.1,0,0,0-.88.45v2.6h-1V233h1v.5a1.79,1.79,0,0,1,1.35-.6,1.13,1.13,0,0,1,1.26,1.24v2.72h-1Z"/><path d="M246.63,235.93v-2H246V233h.64V232h1V233h.79v.89h-.79v1.74c0,.24.13.42.35.42a.55.55,0,0,0,.36-.11l.21.77a1.22,1.22,0,0,1-.85.25A1,1,0,0,1,246.63,235.93Z"/><path d="M252.82,235.4l-.46.5v1h-1v-5.33h1v3.19l1.46-1.72h1.25l-1.53,1.75,1.57,2.11h-1.27Z"/><path d="M258.43,234.56c0-.54-.28-.72-.71-.72a1.1,1.1,0,0,0-.88.45v2.6h-1V233h1v.5a1.79,1.79,0,0,1,1.35-.6,1.12,1.12,0,0,1,1.25,1.24v2.72h-1Z"/><path d="M260.38,235a2,2,0,1,1,2,2A2,2,0,0,1,260.38,235Zm3,0a1,1,0,1,0-1,1.12A1,1,0,0,0,263.41,235Z"/><path d="M267.93,234.26l-.82,2.63H266L264.85,233h1l.72,2.6.85-2.6h.91l.84,2.6.72-2.6H271l-1.18,3.86h-1.08Z"/><path d="M271.71,231.56h1v5.33h-1Z"/><path d="M275.66,232.93a2,2,0,0,1,1.94,2.13v.22h-2.87a1,1,0,0,0,1.11.9,1.58,1.58,0,0,0,1-.38l.45.65a2.46,2.46,0,0,1-1.6.54,2,2,0,0,1-2.06-2A2,2,0,0,1,275.66,232.93Zm-1,1.67h1.9a.89.89,0,0,0-.95-.86A.93.93,0,0,0,274.71,234.6Z"/><path d="M281.2,236.4A1.52,1.52,0,0,1,280,237c-1,0-1.72-.74-1.72-2a1.79,1.79,0,0,1,1.72-2,1.49,1.49,0,0,1,1.19.6v-2h1v5.33h-1Zm0-2.12a1.1,1.1,0,0,0-.88-.44,1.13,1.13,0,0,0,0,2.24,1.1,1.1,0,0,0,.88-.44Z"/><path d="M283.8,237.15a1.55,1.55,0,0,0,1.21.48.94.94,0,0,0,1.06-1v-.39a1.51,1.51,0,0,1-1.19.61c-1,0-1.7-.68-1.7-2s.72-2,1.7-2a1.47,1.47,0,0,1,1.19.6V233h1v3.6c0,1.47-1.14,1.83-2.09,1.83a2.29,2.29,0,0,1-1.66-.58Zm2.27-2.87a1.08,1.08,0,0,0-.87-.44,1.06,1.06,0,0,0,0,2.12,1.11,1.11,0,0,0,.87-.44Z"/><path d="M290,232.93a1.94,1.94,0,0,1,1.93,2.13v.22H289.1a1.05,1.05,0,0,0,1.12.9,1.58,1.58,0,0,0,1-.38l.44.65a2.41,2.41,0,0,1-1.59.54,2,2,0,0,1-.06-4.06Zm-1,1.67H291a.89.89,0,0,0-.95-.86A.93.93,0,0,0,289.09,234.6Z"/><path d="M296.67,232.93a2,2,0,0,1,1.94,2.13v.22h-2.87a1,1,0,0,0,1.11.9,1.58,1.58,0,0,0,1-.38l.45.65a2.45,2.45,0,0,1-1.59.54,2,2,0,1,1-.07-4.06Zm-.95,1.67h1.9a.89.89,0,0,0-.95-.86A.93.93,0,0,0,295.72,234.6Z"/><path d="M299.54,231.56h1v5.33h-1Z"/><path d="M303.48,232.93a2,2,0,0,1,1.94,2.13v.22h-2.87a1,1,0,0,0,1.11.9,1.58,1.58,0,0,0,1-.38l.45.65a2.43,2.43,0,0,1-1.59.54,2,2,0,1,1-.07-4.06Zm-1,1.67h1.9a.89.89,0,0,0-.95-.86A.93.93,0,0,0,302.53,234.6Z"/><path d="M311.13,234.45c0-.36-.16-.61-.58-.61a1,1,0,0,0-.8.45v2.6h-1v-2.44c0-.36-.16-.61-.58-.61a1,1,0,0,0-.8.45v2.6h-1V233h1v.5a1.7,1.7,0,0,1,1.27-.6,1,1,0,0,1,1.07.71,1.63,1.63,0,0,1,1.32-.71,1,1,0,0,1,1.14,1.17v2.79h-1Z"/><path d="M315.09,232.93a1.94,1.94,0,0,1,1.93,2.13v.22h-2.87a1,1,0,0,0,1.11.9,1.56,1.56,0,0,0,1-.38l.45.65a2.41,2.41,0,0,1-1.59.54,2,2,0,0,1-.06-4.06Zm-1,1.67H316a.9.9,0,0,0-1-.86A.93.93,0,0,0,314.13,234.6Z"/><path d="M320.55,234.56c0-.54-.28-.72-.71-.72a1.1,1.1,0,0,0-.88.45v2.6h-1V233h1v.5a1.79,1.79,0,0,1,1.35-.6,1.12,1.12,0,0,1,1.25,1.24v2.72h-1Z"/><path d="M322.94,235.93v-2h-.64V233h.64V232h1V233h.78v.89H324v1.74c0,.24.13.42.35.42a.52.52,0,0,0,.35-.11l.22.77a1.24,1.24,0,0,1-.85.25A1,1,0,0,1,322.94,235.93Z"/><path d="M325.19,231.89l.64-.47a5.51,5.51,0,0,1,0,7.06l-.64-.49a5.68,5.68,0,0,0,.82-3A5.8,5.8,0,0,0,325.19,231.89Z"/><line class="cls-3" x1="269.48" y1="169.09" x2="269.48" y2="176.7"/><rect class="cls-4" x="427.76" y="32.27" width="213.78" height="117.99"/><rect x="470.87" y="16.55" width="127.56" height="31.43"/><path class="cls-2" d="M513.34,24V27a2.05,2.05,0,0,1-2.27,2h-2.3V22h2.29A2.06,2.06,0,0,1,513.34,24Zm-1.55,0a.56.56,0,0,0-.62-.59h-.85v4.29h.84a.57.57,0,0,0,.63-.6Z"/><path class="cls-2" d="M515.8,23.36V24.9h1.72v1.4H515.8v1.35h2.12v1.4h-3.67V22h3.67v1.4Z"/><path class="cls-2" d="M520.3,23.36V24.9H522v1.4H520.3v1.35h2.12v1.4h-3.67V22h3.67v1.4Z"/><path class="cls-2" d="M527.73,23.89v.91a2,2,0,0,1-2.11,1.95h-.82v2.3h-1.55V22h2.36A2,2,0,0,1,527.73,23.89Zm-1.55-.07a.43.43,0,0,0-.46-.46h-.92v2h.91a.44.44,0,0,0,.47-.48Z"/><path class="cls-2" d="M530.48,27v-.28H532v.44a.74.74,0,0,0,.83.73.68.68,0,0,0,.72-.69c0-1.27-3-1-3-3.27a2,2,0,0,1,2.22-2.07,1.94,1.94,0,0,1,2.21,2v.44h-1.55v-.54c0-.31-.3-.48-.67-.48a.58.58,0,0,0-.65.59c0,1,3,.79,3,3.21a2.1,2.1,0,0,1-2.31,2.19A2.15,2.15,0,0,1,530.48,27Z"/><path class="cls-2" d="M537.57,23.36V24.9h1.72v1.4h-1.72v1.35h2.12v1.4H536V22h3.67v1.4Z"/><path class="cls-2" d="M540.47,27.18V23.82a2.37,2.37,0,0,1,4.69,0v.89h-1.57V23.8c0-.36-.26-.59-.77-.59s-.8.23-.8.59v3.4c0,.36.27.6.79.6s.78-.24.78-.6v-.91h1.57v.89a2.37,2.37,0,0,1-4.69,0Z"/><path class="cls-2" d="M546,27.18V22h1.55V27.2c0,.36.23.6.72.6s.73-.24.73-.6V22h1.55v5.22a2.29,2.29,0,0,1-4.55,0Z"/><path class="cls-2" d="M553.81,26.49h-.74v2.56h-1.55V22h2.36A2,2,0,0,1,556,23.89v.66a1.86,1.86,0,0,1-.71,1.5l.92,3h-1.62Zm-.74-1.4H554a.44.44,0,0,0,.47-.47v-.8a.43.43,0,0,0-.46-.46h-.92Z"/><path class="cls-2" d="M558.6,23.36V24.9h1.72v1.4H558.6v1.35h2.12v1.4h-3.67V22h3.67v1.4Z"/><path class="cls-2" d="M477.88,39.18V35.82a2.37,2.37,0,0,1,4.69,0v.89H481V35.8c0-.36-.26-.59-.77-.59s-.8.23-.8.59v3.4c0,.36.27.6.79.6s.78-.24.78-.6v-.91h1.57v.89a2.37,2.37,0,0,1-4.69,0Z"/><path class="cls-2" d="M483.43,39.18V34H485V39.2c0,.36.23.6.72.6s.73-.24.73-.6V34H488v5.22a2.29,2.29,0,0,1-4.55,0Z"/><path class="cls-2" d="M488.83,39v-.28h1.54v.44a.74.74,0,0,0,.83.73.68.68,0,0,0,.72-.69c0-1.27-3-1-3-3.27a2,2,0,0,1,2.21-2.07,1.94,1.94,0,0,1,2.21,2v.44h-1.55v-.54c0-.31-.3-.48-.67-.48a.58.58,0,0,0-.64.59c0,1,3,.79,3,3.21a2.1,2.1,0,0,1-2.31,2.19A2.15,2.15,0,0,1,488.83,39Z"/><path class="cls-2" d="M498.63,35.36h-1.47v5.69h-1.55V35.36h-1.48V34h4.5Z"/><path class="cls-2" d="M499.34,39.18V35.82a2.38,2.38,0,0,1,4.71,0v3.36a2.07,2.07,0,0,1-2.34,2A2.09,2.09,0,0,1,499.34,39.18Zm3.17,0V35.8c0-.36-.24-.59-.8-.59s-.82.23-.82.59v3.4c0,.36.24.6.81.6S502.51,39.56,502.51,39.2Z"/><path class="cls-2" d="M510.78,41.05h-1.33V36.48l-1,4.57h-1.11l-1-4.61v4.61H505V34h1.84l1.05,4,1.05-4h1.85Z"/><path class="cls-2" d="M513.32,35.36V36.9H515v1.4h-1.72v1.35h2.12v1.4h-3.67V34h3.67v1.4Z"/><path class="cls-2" d="M518.56,38.49h-.74v2.56h-1.55V34h2.36a2,2,0,0,1,2.12,1.93v.66a1.86,1.86,0,0,1-.71,1.5l.92,3h-1.62Zm-.74-1.4h.91a.44.44,0,0,0,.47-.47v-.8a.43.43,0,0,0-.46-.46h-.92Z"/><path class="cls-2" d="M526.81,39.8h-1.45l-.29,1.25h-1.51L525.09,34h2l1.54,7.09H527.1Zm-.72-4-.45,2.56h.9Z"/><path class="cls-2" d="M529.24,39.18V34h1.55V39.2c0,.36.23.6.72.6s.73-.24.73-.6V34h1.55v5.22a2.29,2.29,0,0,1-4.55,0Z"/><path class="cls-2" d="M539,35.36h-1.47v5.69H536V35.36h-1.48V34H539Z"/><path class="cls-2" d="M544.47,34v7.09h-1.55V38.3h-1.6v2.75h-1.55V34h1.55V36.9h1.6V34Z"/><path class="cls-2" d="M547,35.36V36.9h1.72v1.4H547v1.35h2.11v1.4h-3.66V34h3.66v1.4Z"/><path class="cls-2" d="M554.52,34v7.09h-1.36l-1.85-4v4H550V34h1.34l1.85,4V34Z"/><path class="cls-2" d="M559.77,35.36H558.3v5.69h-1.55V35.36h-1.48V34h4.5Z"/><path class="cls-2" d="M560.53,34h1.55v7.09h-1.55Z"/><path class="cls-2" d="M563,39.18V35.82a2.37,2.37,0,0,1,4.69,0v.89h-1.57V35.8c0-.36-.26-.59-.77-.59s-.8.23-.8.59v3.4c0,.36.27.6.79.6s.78-.24.78-.6v-.91h1.57v.89a2.37,2.37,0,0,1-4.69,0Z"/><path class="cls-2" d="M571.56,39.8h-1.45l-.29,1.25h-1.51L569.84,34h2l1.53,7.09h-1.53Zm-.72-4-.45,2.56h.9Z"/><path class="cls-2" d="M577.91,35.36h-1.47v5.69h-1.55V35.36h-1.48V34h4.5Z"/><path class="cls-2" d="M578.67,34h1.55v7.09h-1.55Z"/><path class="cls-2" d="M581.14,39.18V35.82a2.39,2.39,0,0,1,4.72,0v3.36a2.39,2.39,0,0,1-4.72,0Zm3.17,0V35.8c0-.36-.24-.59-.8-.59s-.82.23-.82.59v3.4c0,.36.24.6.81.6S584.31,39.56,584.31,39.2Z"/><path class="cls-2" d="M591.35,34v7.09H590l-1.85-4v4h-1.35V34h1.35L590,38V34Z"/><polyline class="cls-3" points="641.54 161.48 641.54 169.09 364.59 169.09 364.59 161.48"/><path d="M414.85,190.79H412.3v-.9l2.12-3.33H416v3.23h.69v1H416v1.1h-1.14Zm-1.44-1h1.44v-2.22Z"/><path d="M420,191.49a1.62,1.62,0,0,1-1.23.5,1.29,1.29,0,0,1-1.34-1.28,1.22,1.22,0,0,1,1.34-1.23A1.59,1.59,0,0,1,420,190v-.54c0-.39-.34-.64-.85-.64a1.64,1.64,0,0,0-1.13.45l-.38-.68a2.56,2.56,0,0,1,1.68-.61c.88,0,1.69.36,1.69,1.47v2.49h-1Zm0-1a1,1,0,0,0-.82-.33c-.4,0-.73.21-.73.58s.33.57.73.57A1,1,0,0,0,420,191Z"/><path d="M422.68,190.68a.65.65,0,0,1,0,1.3.65.65,0,0,1,0-1.3Z"/><path d="M426.7,190.28a2.33,2.33,0,0,0,1.69.72c.63,0,.93-.3.93-.6s-.46-.54-1.08-.68c-.87-.2-2-.44-2-1.63,0-.89.77-1.61,2-1.61a3,3,0,0,1,2.08.74l-.63.83a2.27,2.27,0,0,0-1.53-.58c-.51,0-.78.22-.78.54s.45.48,1.06.62c.88.2,2,.46,2,1.65,0,1-.69,1.71-2.13,1.71a3.06,3.06,0,0,1-2.26-.85Z"/><path d="M434,189.54c0-.54-.28-.7-.72-.7a1.14,1.14,0,0,0-.88.45v2.6h-1v-5.33h1v2a1.82,1.82,0,0,1,1.36-.6,1.12,1.12,0,0,1,1.26,1.22v2.74h-1Z"/><path d="M438.56,191.49a1.62,1.62,0,0,1-1.23.5,1.29,1.29,0,0,1-1.34-1.28,1.22,1.22,0,0,1,1.34-1.23,1.58,1.58,0,0,1,1.23.47v-.54c0-.39-.34-.64-.85-.64a1.64,1.64,0,0,0-1.13.45l-.38-.68a2.57,2.57,0,0,1,1.69-.61c.88,0,1.68.36,1.68,1.47v2.49h-1Zm0-1a1,1,0,0,0-.82-.33c-.4,0-.73.21-.73.58s.33.57.73.57a1,1,0,0,0,.82-.34Z"/><path d="M440.74,193.36V188h1v.49a1.48,1.48,0,0,1,1.19-.59c1,0,1.71.74,1.71,2s-.72,2-1.71,2a1.46,1.46,0,0,1-1.19-.59v2Zm1.89-4.52a1.11,1.11,0,0,0-.87.44v1.36a1.14,1.14,0,0,0,.87.44,1.13,1.13,0,0,0,0-2.24Z"/><path d="M447.39,187.93a1.94,1.94,0,0,1,1.93,2.13v.22h-2.87a1,1,0,0,0,1.11.9,1.58,1.58,0,0,0,1-.38l.45.65a2.41,2.41,0,0,1-1.59.54,2,2,0,0,1-.06-4.06Zm-1,1.67h1.91a.9.9,0,0,0-.95-.86A.93.93,0,0,0,446.43,189.6Z"/><path d="M452.27,193.36V188h1v.49a1.49,1.49,0,0,1,1.19-.59c1,0,1.71.74,1.71,2s-.72,2-1.71,2a1.48,1.48,0,0,1-1.19-.59v2Zm1.88-4.52a1.14,1.14,0,0,0-.87.44v1.36a1.18,1.18,0,0,0,.87.44,1.13,1.13,0,0,0,0-2.24Z"/><path d="M458.91,187.93a2,2,0,0,1,1.94,2.13v.22H458a1,1,0,0,0,1.11.9,1.58,1.58,0,0,0,1-.38l.45.65A2.45,2.45,0,0,1,459,192a2,2,0,1,1-.07-4.06Zm-1,1.67h1.9a.89.89,0,0,0-.95-.86A.93.93,0,0,0,458,189.6Z"/><path d="M461.77,188h1v.53a1.63,1.63,0,0,1,1.23-.62v1a1.84,1.84,0,0,0-.28,0,1.3,1.3,0,0,0-1,.44v2.55h-1Z"/><path d="M465.2,188.92h-.64V188h.64v-.21a1.25,1.25,0,0,1,1.31-1.34,1.58,1.58,0,0,1,.73.16l-.21.72a.57.57,0,0,0-.32-.08c-.29,0-.48.19-.48.56V188H467v.89h-.78v3h-1Z"/><path d="M467.53,190a2,2,0,1,1,2,2A2,2,0,0,1,467.53,190Zm3,0a1,1,0,1,0-1,1.12A1,1,0,0,0,470.56,190Z"/><path d="M472.55,188h1v.53a1.63,1.63,0,0,1,1.23-.62v1a1.84,1.84,0,0,0-.28,0,1.26,1.26,0,0,0-.95.44v2.55h-1Z"/><path d="M480.36,189.45c0-.36-.16-.61-.58-.61a1,1,0,0,0-.8.45v2.6h-1v-2.44c0-.36-.16-.61-.58-.61a1.07,1.07,0,0,0-.8.45v2.6h-1V188h1v.5a1.72,1.72,0,0,1,1.27-.6,1,1,0,0,1,1.07.71,1.64,1.64,0,0,1,1.33-.71,1,1,0,0,1,1.13,1.17v2.79h-1Z"/><path d="M482.69,190.68a2.21,2.21,0,0,0,1.33.52c.44,0,.65-.15.65-.39s-.34-.37-.78-.45c-.66-.13-1.52-.29-1.52-1.21,0-.65.57-1.22,1.59-1.22a2.52,2.52,0,0,1,1.56.53l-.41.7a1.62,1.62,0,0,0-1.15-.45c-.36,0-.6.14-.6.36s.3.33.73.42c.67.12,1.55.3,1.55,1.26,0,.7-.6,1.24-1.67,1.24a2.6,2.6,0,0,1-1.72-.6Z"/><path d="M488.61,188h1v.53a1.63,1.63,0,0,1,1.23-.62v1a1.84,1.84,0,0,0-.28,0,1.3,1.3,0,0,0-.95.44v2.55h-1Z"/><path d="M494.23,191.4a1.79,1.79,0,0,1-1.36.59,1.11,1.11,0,0,1-1.25-1.22V188h1v2.34c0,.54.28.71.71.71a1.13,1.13,0,0,0,.88-.44V188h1v3.86h-1Z"/><path d="M499,189.56a.63.63,0,0,0-.72-.72,1.1,1.1,0,0,0-.88.45v2.6h-1V188h1v.5a1.8,1.8,0,0,1,1.36-.6,1.13,1.13,0,0,1,1.25,1.24v2.72h-1Z"/><path d="M501.42,190.93v-2h-.64V188h.64V187h1V188h.79v.89h-.79v1.74c0,.24.13.42.36.42a.54.54,0,0,0,.35-.11l.21.77a1.21,1.21,0,0,1-.84.25A1,1,0,0,1,501.42,190.93Z"/><path d="M504,186.93a.61.61,0,0,1,.61-.61.61.61,0,1,1-.61.61Zm.11,1.1h1v3.86h-1Z"/><path d="M511.12,189.45c0-.36-.16-.61-.57-.61a1,1,0,0,0-.8.45v2.6h-1v-2.44c0-.36-.16-.61-.57-.61a1,1,0,0,0-.8.45v2.6h-1V188h1v.5a1.69,1.69,0,0,1,1.26-.6,1,1,0,0,1,1.07.71,1.67,1.67,0,0,1,1.33-.71,1,1,0,0,1,1.14,1.17v2.79h-1Z"/><path d="M515.08,187.93a2,2,0,0,1,1.94,2.13v.22h-2.87a1,1,0,0,0,1.11.9,1.58,1.58,0,0,0,1-.38l.45.65a2.43,2.43,0,0,1-1.59.54,2,2,0,1,1-.07-4.06Zm-1,1.67H516a.89.89,0,0,0-.95-.86A.93.93,0,0,0,514.13,189.6Z"/><path d="M520,193.36V188h1v.49a1.48,1.48,0,0,1,1.19-.59c1,0,1.71.74,1.71,2s-.72,2-1.71,2a1.46,1.46,0,0,1-1.19-.59v2Zm1.89-4.52a1.13,1.13,0,0,0-.87.44v1.36a1.16,1.16,0,0,0,.87.44,1.13,1.13,0,0,0,0-2.24Z"/><path d="M524.61,190a2,2,0,1,1,2,2A2,2,0,0,1,524.61,190Zm3,0a1,1,0,1,0-1,1.12A1,1,0,0,0,527.64,190Z"/><path d="M529.72,190.68a2.24,2.24,0,0,0,1.33.52c.44,0,.65-.15.65-.39s-.33-.37-.77-.45c-.67-.13-1.52-.29-1.52-1.21,0-.65.57-1.22,1.58-1.22a2.48,2.48,0,0,1,1.56.53l-.41.7a1.61,1.61,0,0,0-1.14-.45c-.37,0-.61.14-.61.36s.31.33.74.42c.66.12,1.55.3,1.55,1.26,0,.7-.6,1.24-1.67,1.24a2.65,2.65,0,0,1-1.73-.6Z"/><path d="M533.72,190.68a2.24,2.24,0,0,0,1.34.52c.44,0,.65-.15.65-.39s-.34-.37-.78-.45c-.66-.13-1.52-.29-1.52-1.21,0-.65.57-1.22,1.58-1.22a2.48,2.48,0,0,1,1.56.53l-.4.7a1.66,1.66,0,0,0-1.15-.45c-.37,0-.61.14-.61.36s.31.33.74.42c.66.12,1.55.3,1.55,1.26,0,.7-.6,1.24-1.67,1.24a2.65,2.65,0,0,1-1.73-.6Z"/><path d="M539.36,187.93a1.94,1.94,0,0,1,1.94,2.13v.22h-2.87a1,1,0,0,0,1.11.9,1.58,1.58,0,0,0,1-.38l.45.65a2.41,2.41,0,0,1-1.59.54,2,2,0,0,1-.07-4.06Zm-1,1.67h1.91a.9.9,0,0,0-1-.86A.93.93,0,0,0,538.41,189.6Z"/><path d="M542.32,190.68a2.24,2.24,0,0,0,1.34.52c.44,0,.64-.15.64-.39s-.33-.37-.77-.45c-.67-.13-1.52-.29-1.52-1.21,0-.65.57-1.22,1.58-1.22a2.48,2.48,0,0,1,1.56.53l-.41.7a1.61,1.61,0,0,0-1.14-.45c-.37,0-.61.14-.61.36s.31.33.74.42c.66.12,1.55.3,1.55,1.26,0,.7-.6,1.24-1.67,1.24a2.65,2.65,0,0,1-1.73-.6Z"/><path d="M546.32,190.68a2.24,2.24,0,0,0,1.34.52c.44,0,.65-.15.65-.39s-.34-.37-.78-.45c-.66-.13-1.52-.29-1.52-1.21,0-.65.57-1.22,1.58-1.22a2.48,2.48,0,0,1,1.56.53l-.4.7a1.66,1.66,0,0,0-1.15-.45c-.36,0-.6.14-.6.36s.3.33.73.42c.66.12,1.55.3,1.55,1.26,0,.7-.6,1.24-1.67,1.24a2.65,2.65,0,0,1-1.73-.6Z"/><path d="M550.1,186.93a.61.61,0,0,1,.61-.61.61.61,0,0,1,0,1.21A.61.61,0,0,1,550.1,186.93Zm.1,1.1h1v3.86h-1Z"/><path d="M552.13,190a2,2,0,1,1,2,2A2,2,0,0,1,552.13,190Zm3,0a1,1,0,1,0-1,1.12A1,1,0,0,0,555.16,190Z"/><path d="M559.76,189.56c0-.54-.27-.72-.71-.72a1.1,1.1,0,0,0-.88.45v2.6h-1V188h1v.5a1.8,1.8,0,0,1,1.36-.6,1.13,1.13,0,0,1,1.25,1.24v2.72h-1Z"/><path d="M565.75,187.93a1.94,1.94,0,0,1,1.93,2.13v.22h-2.87a1,1,0,0,0,1.11.9,1.6,1.6,0,0,0,1-.38l.44.65a2.41,2.41,0,0,1-1.59.54,2,2,0,0,1-.06-4.06Zm-1,1.67h1.9a.89.89,0,0,0-1-.86A.92.92,0,0,0,564.8,189.6Z"/><path d="M568.61,186.56h1v5.33h-1Z"/><path d="M572.56,187.93a1.94,1.94,0,0,1,1.93,2.13v.22h-2.87a1.05,1.05,0,0,0,1.12.9,1.58,1.58,0,0,0,1-.38l.44.65a2.41,2.41,0,0,1-1.59.54,2,2,0,0,1-.06-4.06Zm-.95,1.67h1.9a.89.89,0,0,0-1-.86A.93.93,0,0,0,571.61,189.6Z"/><path d="M580.2,189.45c0-.36-.16-.61-.57-.61a1,1,0,0,0-.8.45v2.6h-1v-2.44c0-.36-.16-.61-.58-.61a1,1,0,0,0-.8.45v2.6h-1V188h1v.5a1.69,1.69,0,0,1,1.26-.6,1,1,0,0,1,1.08.71,1.63,1.63,0,0,1,1.32-.71,1,1,0,0,1,1.14,1.17v2.79h-1Z"/><path d="M584.16,187.93a1.94,1.94,0,0,1,1.94,2.13v.22h-2.87a1,1,0,0,0,1.11.9,1.58,1.58,0,0,0,1-.38l.45.65a2.41,2.41,0,0,1-1.59.54,2,2,0,0,1-.07-4.06Zm-.95,1.67h1.91a.9.9,0,0,0-1-.86A.93.93,0,0,0,583.21,189.6Z"/><path d="M589.63,189.56a.63.63,0,0,0-.72-.72,1.1,1.1,0,0,0-.88.45v2.6h-1V188h1v.5a1.8,1.8,0,0,1,1.36-.6,1.13,1.13,0,0,1,1.25,1.24v2.72h-1Z"/><path d="M592,190.93v-2h-.64V188H592V187h1V188h.78v.89h-.78v1.74c0,.24.12.42.35.42a.54.54,0,0,0,.35-.11l.22.77a1.26,1.26,0,0,1-.85.25A1,1,0,0,1,592,190.93Z"/><path d="M429.81,197h1.09l1,2.69,1-2.69H434l-1.55,3.86h-1.1Z"/><path d="M436.31,196.93a1.94,1.94,0,0,1,1.93,2.13v.22h-2.87a1,1,0,0,0,1.11.9,1.58,1.58,0,0,0,1-.38l.45.65a2.41,2.41,0,0,1-1.59.54,2,2,0,0,1-.06-4.06Zm-1,1.67h1.91a.9.9,0,0,0-.95-.86A.93.93,0,0,0,435.35,198.6Z"/><path d="M439.16,197h1v.53a1.63,1.63,0,0,1,1.23-.62v1a1.84,1.84,0,0,0-.28,0,1.26,1.26,0,0,0-.95.44v2.55h-1Z"/><path d="M442.07,195.93a.61.61,0,0,1,.61-.61.61.61,0,1,1-.61.61Zm.11,1.1h1v3.86h-1Z"/><path d="M444.61,197.92H444V197h.64v-.21a1.25,1.25,0,0,1,1.31-1.34,1.58,1.58,0,0,1,.73.16l-.21.73a.61.61,0,0,0-.32-.09c-.29,0-.48.19-.48.54V197h.78v.89h-.78v3h-1Zm2.29-2a.61.61,0,0,1,.61-.61.61.61,0,0,1,0,1.21A.61.61,0,0,1,446.9,195.93Zm.1,1.1h1v3.86h-1Z"/><path d="M451,196.93a1.82,1.82,0,0,1,1.53.7l-.66.62a1,1,0,0,0-.82-.41,1.12,1.12,0,0,0,0,2.24,1,1,0,0,0,.82-.41l.66.61A1.8,1.8,0,0,1,451,201a2,2,0,1,1,0-4.06Z"/><path d="M455.71,200.49a1.6,1.6,0,0,1-1.22.5,1.29,1.29,0,0,1-1.35-1.28,1.22,1.22,0,0,1,1.35-1.23,1.57,1.57,0,0,1,1.22.47v-.54c0-.39-.34-.64-.85-.64a1.66,1.66,0,0,0-1.13.45l-.38-.68a2.57,2.57,0,0,1,1.69-.61c.88,0,1.68.36,1.68,1.47v2.49h-1Zm0-1a1,1,0,0,0-.82-.33c-.4,0-.72.21-.72.58s.32.57.72.57a1,1,0,0,0,.82-.34Z"/><path d="M458.09,199.93v-2h-.64V197h.64V196h1V197h.79v.89h-.79v1.74c0,.24.13.42.36.42a.54.54,0,0,0,.35-.11l.21.77a1.21,1.21,0,0,1-.84.25A1,1,0,0,1,458.09,199.93Z"/><path d="M460.71,195.93a.61.61,0,1,1,.61.6A.61.61,0,0,1,460.71,195.93Zm.1,1.1h1v3.86h-1Z"/><path d="M462.74,199a2,2,0,1,1,2,2A2,2,0,0,1,462.74,199Zm3,0a1,1,0,1,0-1,1.12A1,1,0,0,0,465.77,199Z"/><path d="M470.38,198.56a.63.63,0,0,0-.72-.72,1.1,1.1,0,0,0-.88.45v2.6h-1V197h1v.5a1.8,1.8,0,0,1,1.36-.6,1.13,1.13,0,0,1,1.25,1.24v2.72h-1Z"/><path d="M474.81,199.93v-2h-.64V197h.64V196h1V197h.79v.89h-.79v1.74c0,.24.13.42.35.42a.55.55,0,0,0,.36-.11l.21.77a1.22,1.22,0,0,1-.85.25A1,1,0,0,1,474.81,199.93Z"/><path d="M480.16,198.54c0-.54-.28-.7-.72-.7a1.14,1.14,0,0,0-.88.45v2.6h-1v-5.33h1v2a1.82,1.82,0,0,1,1.36-.6,1.12,1.12,0,0,1,1.26,1.22v2.74h-1Z"/><path d="M482.35,197h1v.53a1.63,1.63,0,0,1,1.23-.62v1a1.7,1.7,0,0,0-.28,0,1.3,1.3,0,0,0-.95.44v2.55h-1Z"/><path d="M485.14,199a2,2,0,1,1,2,2A2,2,0,0,1,485.14,199Zm3,0a1,1,0,1,0-1,1.12A1,1,0,0,0,488.17,199Z"/><path d="M492.76,200.4a1.79,1.79,0,0,1-1.36.59,1.1,1.1,0,0,1-1.24-1.22V197h1v2.34c0,.54.28.71.71.71a1.11,1.11,0,0,0,.88-.44V197h1v3.86h-1Z"/><path d="M495.36,201.15a1.55,1.55,0,0,0,1.21.48,1,1,0,0,0,1.06-1v-.39a1.53,1.53,0,0,1-1.19.61c-1,0-1.71-.68-1.71-2a1.73,1.73,0,0,1,1.71-2,1.47,1.47,0,0,1,1.19.6V197h1v3.6c0,1.47-1.13,1.83-2.08,1.83a2.33,2.33,0,0,1-1.67-.58Zm2.27-2.87a1.1,1.1,0,0,0-.87-.44,1.06,1.06,0,0,0,0,2.12,1.13,1.13,0,0,0,.87-.44Z"/><path d="M502.44,198.54c0-.54-.28-.7-.72-.7a1.14,1.14,0,0,0-.88.45v2.6h-1v-5.33h1v2a1.82,1.82,0,0,1,1.36-.6,1.12,1.12,0,0,1,1.26,1.22v2.74h-1Z"/><path d="M506.67,202.36V197h1v.49a1.49,1.49,0,0,1,1.19-.59c1,0,1.71.74,1.71,2s-.72,2-1.71,2a1.46,1.46,0,0,1-1.19-.59v2Zm1.89-4.52a1.13,1.13,0,0,0-.87.44v1.36a1.16,1.16,0,0,0,.87.44,1.13,1.13,0,0,0,0-2.24Z"/><path d="M513.85,200.49a1.6,1.6,0,0,1-1.22.5,1.29,1.29,0,0,1-1.34-1.28,1.22,1.22,0,0,1,1.34-1.23,1.55,1.55,0,0,1,1.22.47v-.54c0-.39-.33-.64-.84-.64a1.64,1.64,0,0,0-1.13.45l-.38-.68a2.54,2.54,0,0,1,1.68-.61c.88,0,1.69.36,1.69,1.47v2.49h-1Zm0-1a1,1,0,0,0-.81-.33c-.4,0-.73.21-.73.58s.33.57.73.57a1,1,0,0,0,.81-.34Z"/><path d="M516.15,199.68a2.24,2.24,0,0,0,1.34.52c.44,0,.65-.15.65-.39s-.34-.37-.78-.45c-.66-.13-1.52-.29-1.52-1.21,0-.65.57-1.22,1.59-1.22a2.52,2.52,0,0,1,1.56.53l-.41.7a1.62,1.62,0,0,0-1.15-.45c-.36,0-.6.14-.6.36s.3.33.73.42c.67.12,1.55.3,1.55,1.26,0,.7-.6,1.24-1.67,1.24a2.6,2.6,0,0,1-1.72-.6Z"/><path d="M520.16,199.68a2.21,2.21,0,0,0,1.33.52c.44,0,.65-.15.65-.39s-.34-.37-.78-.45c-.66-.13-1.51-.29-1.51-1.21,0-.65.56-1.22,1.58-1.22a2.52,2.52,0,0,1,1.56.53l-.41.7a1.61,1.61,0,0,0-1.14-.45c-.37,0-.61.14-.61.36s.3.33.74.42c.66.12,1.55.3,1.55,1.26,0,.7-.6,1.24-1.67,1.24a2.63,2.63,0,0,1-1.73-.6Z"/><path d="M523.93,195.93a.61.61,0,0,1,.61-.61.61.61,0,1,1-.61.61ZM524,197h1v3.86h-1Z"/><path d="M525.73,197h1.09l1,2.69,1-2.69h1.1l-1.55,3.86h-1.1Z"/><path d="M532.22,196.93a2,2,0,0,1,1.94,2.13v.22h-2.87a1,1,0,0,0,1.11.9,1.58,1.58,0,0,0,1-.38l.45.65a2.45,2.45,0,0,1-1.59.54,2,2,0,1,1-.07-4.06Zm-1,1.67h1.9a.89.89,0,0,0-.95-.86A.93.93,0,0,0,531.27,198.6Z"/><path d="M537.1,195.56h1v2a1.46,1.46,0,0,1,1.19-.6c1,0,1.71.77,1.71,2s-.74,2-1.71,2a1.49,1.49,0,0,1-1.19-.59v.49h-1Zm1.89,4.52a1.13,1.13,0,0,0,0-2.24,1.11,1.11,0,0,0-.87.45v1.36A1.12,1.12,0,0,0,539,200.08Z"/><path d="M541.86,195.93a.61.61,0,1,1,.61.6A.61.61,0,0,1,541.86,195.93Zm.1,1.1h1v3.86h-1Z"/><path d="M543.89,199a2,2,0,1,1,2,2A2,2,0,0,1,543.89,199Zm3,0a1,1,0,1,0-1,1.12A1,1,0,0,0,546.92,199Z"/><path d="M553.71,198.45c0-.36-.16-.61-.58-.61a1,1,0,0,0-.8.45v2.6h-1v-2.44c0-.36-.16-.61-.58-.61a1.07,1.07,0,0,0-.8.45v2.6h-1V197h1v.5a1.72,1.72,0,0,1,1.27-.6,1,1,0,0,1,1.07.71,1.65,1.65,0,0,1,1.33-.71,1,1,0,0,1,1.13,1.17v2.79h-1Z"/><path d="M557.67,196.93a2,2,0,0,1,1.94,2.13v.22h-2.87a1,1,0,0,0,1.11.9,1.58,1.58,0,0,0,1-.38l.45.65a2.43,2.43,0,0,1-1.59.54,2,2,0,1,1-.07-4.06Zm-.95,1.67h1.9a.89.89,0,0,0-1-.86A.93.93,0,0,0,556.72,198.6Z"/><path d="M560.75,199.93v-2h-.64V197h.64V196h1V197h.78v.89h-.78v1.74c0,.24.13.42.35.42a.5.5,0,0,0,.35-.11l.22.77a1.22,1.22,0,0,1-.85.25A1,1,0,0,1,560.75,199.93Z"/><path d="M563.49,197h1v.53a1.63,1.63,0,0,1,1.23-.62v1a1.84,1.84,0,0,0-.28,0,1.3,1.3,0,0,0-1,.44v2.55h-1Z"/><path d="M566.4,195.93a.61.61,0,0,1,.61-.61.61.61,0,0,1,0,1.21A.61.61,0,0,1,566.4,195.93Zm.1,1.1h1v3.86h-1Z"/><path d="M570.48,196.93a1.82,1.82,0,0,1,1.53.7l-.67.62a.92.92,0,0,0-.81-.41,1.12,1.12,0,0,0,0,2.24,1,1,0,0,0,.81-.41l.67.61a1.8,1.8,0,0,1-1.53.71,2,2,0,1,1,0-4.06Z"/><path d="M573.06,199.68a2.21,2.21,0,0,0,1.33.52c.44,0,.65-.15.65-.39s-.33-.37-.77-.45c-.67-.13-1.52-.29-1.52-1.21,0-.65.56-1.22,1.58-1.22a2.48,2.48,0,0,1,1.56.53l-.41.7a1.61,1.61,0,0,0-1.14-.45c-.37,0-.61.14-.61.36s.3.33.74.42c.66.12,1.55.3,1.55,1.26,0,.7-.6,1.24-1.67,1.24a2.63,2.63,0,0,1-1.73-.6Z"/><path d="M414.64,217.79h-2.55v-.9l2.12-3.33h1.57v3.23h.69v1h-.69v1.1h-1.14Zm-1.43-1h1.43v-2.22Z"/><path d="M417.43,213.56h1v2a1.49,1.49,0,0,1,1.2-.6c1,0,1.71.77,1.71,2s-.74,2-1.71,2a1.53,1.53,0,0,1-1.2-.59v.49h-1Zm1.89,4.52a1.13,1.13,0,0,0,0-2.24,1.13,1.13,0,0,0-.88.45v1.36A1.14,1.14,0,0,0,419.32,218.08Z"/><path d="M422.76,217.68a.65.65,0,1,1,0,1.3.65.65,0,0,1,0-1.3Z"/><path d="M426.78,217.28a2.33,2.33,0,0,0,1.69.72c.63,0,.93-.3.93-.6s-.46-.54-1.08-.68c-.87-.2-2-.44-2-1.63,0-.89.77-1.61,2-1.61a3,3,0,0,1,2.08.74l-.63.83a2.27,2.27,0,0,0-1.53-.58c-.51,0-.78.22-.78.54s.45.48,1.06.62c.88.2,2,.46,2,1.65,0,1-.69,1.71-2.13,1.71a3.06,3.06,0,0,1-2.26-.85Z"/><path d="M434.12,216.54c0-.54-.28-.7-.72-.7a1.14,1.14,0,0,0-.88.45v2.6h-1v-5.33h1v2a1.82,1.82,0,0,1,1.36-.6,1.12,1.12,0,0,1,1.26,1.22v2.74h-1Z"/><path d="M438.64,218.49a1.62,1.62,0,0,1-1.23.5,1.29,1.29,0,0,1-1.34-1.28,1.22,1.22,0,0,1,1.34-1.23,1.58,1.58,0,0,1,1.23.47v-.54c0-.39-.34-.64-.85-.64a1.64,1.64,0,0,0-1.13.45l-.38-.68a2.57,2.57,0,0,1,1.69-.61c.88,0,1.68.36,1.68,1.47v2.49h-1Zm0-1a1,1,0,0,0-.82-.33c-.4,0-.73.21-.73.58s.33.57.73.57a1,1,0,0,0,.82-.34Z"/><path d="M440.82,220.36V215h1v.49a1.48,1.48,0,0,1,1.19-.59c1,0,1.71.74,1.71,2s-.72,2-1.71,2a1.46,1.46,0,0,1-1.19-.59v2Zm1.89-4.52a1.11,1.11,0,0,0-.87.44v1.36a1.14,1.14,0,0,0,.87.44,1.13,1.13,0,0,0,0-2.24Z"/><path d="M447.47,214.93a1.94,1.94,0,0,1,1.93,2.13v.22h-2.87a1,1,0,0,0,1.11.9,1.56,1.56,0,0,0,1-.38l.45.65a2.41,2.41,0,0,1-1.59.54,2,2,0,0,1-.06-4.06Zm-1,1.67h1.91a.9.9,0,0,0-.95-.86A.93.93,0,0,0,446.51,216.6Z"/><path d="M452.35,220.36V215h1v.49a1.49,1.49,0,0,1,1.19-.59c1,0,1.71.74,1.71,2s-.71,2-1.71,2a1.48,1.48,0,0,1-1.19-.59v2Zm1.88-4.52a1.14,1.14,0,0,0-.87.44v1.36a1.18,1.18,0,0,0,.87.44,1.13,1.13,0,0,0,0-2.24Z"/><path d="M459,214.93a2,2,0,0,1,1.94,2.13v.22h-2.87a1,1,0,0,0,1.11.9,1.58,1.58,0,0,0,1-.38l.45.65a2.43,2.43,0,0,1-1.59.54,2,2,0,1,1-.07-4.06ZM458,216.6h1.9a.89.89,0,0,0-.95-.86A.93.93,0,0,0,458,216.6Z"/><path d="M461.85,215h1v.53a1.63,1.63,0,0,1,1.23-.62v1a1.7,1.7,0,0,0-.28,0,1.3,1.3,0,0,0-.95.44v2.55h-1Z"/><path d="M465.28,215.92h-.64V215h.64v-.21a1.25,1.25,0,0,1,1.31-1.34,1.58,1.58,0,0,1,.73.16l-.21.72a.55.55,0,0,0-.32-.08c-.29,0-.48.19-.48.56V215h.78v.89h-.78v3h-1Z"/><path d="M467.61,217a2,2,0,1,1,2,2A2,2,0,0,1,467.61,217Zm3,0a1,1,0,1,0-1,1.12A1,1,0,0,0,470.64,217Z"/><path d="M472.63,215h1v.53a1.63,1.63,0,0,1,1.23-.62v1a1.84,1.84,0,0,0-.28,0,1.26,1.26,0,0,0-1,.44v2.55h-1Z"/><path d="M480.44,216.45c0-.36-.16-.61-.58-.61a1,1,0,0,0-.8.45v2.6h-1v-2.44c0-.36-.16-.61-.58-.61a1.07,1.07,0,0,0-.8.45v2.6h-1V215h1v.5a1.72,1.72,0,0,1,1.27-.6,1,1,0,0,1,1.07.71,1.64,1.64,0,0,1,1.33-.71,1,1,0,0,1,1.13,1.17v2.79h-1Z"/><path d="M482.77,217.68a2.21,2.21,0,0,0,1.33.52c.44,0,.65-.15.65-.39s-.34-.37-.78-.45c-.66-.13-1.52-.29-1.52-1.21,0-.65.57-1.22,1.59-1.22a2.52,2.52,0,0,1,1.56.53l-.41.7a1.62,1.62,0,0,0-1.15-.45c-.36,0-.6.14-.6.36s.3.33.73.42c.67.12,1.55.3,1.55,1.26,0,.7-.6,1.24-1.67,1.24a2.6,2.6,0,0,1-1.72-.6Z"/><path d="M488.69,215h1v.53a1.63,1.63,0,0,1,1.23-.62v1a1.84,1.84,0,0,0-.28,0,1.3,1.3,0,0,0-.95.44v2.55h-1Z"/><path d="M494.31,218.4A1.79,1.79,0,0,1,493,219a1.11,1.11,0,0,1-1.25-1.22V215h1v2.34c0,.54.28.71.71.71a1.13,1.13,0,0,0,.88-.44V215h1v3.86h-1Z"/><path d="M499.11,216.56a.63.63,0,0,0-.72-.72,1.1,1.1,0,0,0-.88.45v2.6h-1V215h1v.5a1.8,1.8,0,0,1,1.36-.6,1.13,1.13,0,0,1,1.25,1.24v2.72h-1Z"/><path d="M501.5,217.93v-2h-.64V215h.64V214h1V215h.78v.89h-.78v1.74c0,.24.12.42.35.42a.54.54,0,0,0,.35-.11l.21.77a1.21,1.21,0,0,1-.84.25A1,1,0,0,1,501.5,217.93Z"/><path d="M504.12,213.93a.61.61,0,0,1,.61-.61.61.61,0,1,1-.61.61Zm.11,1.1h1v3.86h-1Z"/><path d="M511.2,216.45c0-.36-.16-.61-.57-.61a1,1,0,0,0-.8.45v2.6h-1v-2.44c0-.36-.16-.61-.57-.61a1,1,0,0,0-.8.45v2.6h-1V215h1v.5a1.69,1.69,0,0,1,1.26-.6,1,1,0,0,1,1.07.71,1.67,1.67,0,0,1,1.33-.71,1,1,0,0,1,1.14,1.17v2.79h-1Z"/><path d="M515.16,214.93a2,2,0,0,1,1.94,2.13v.22h-2.87a1,1,0,0,0,1.11.9,1.58,1.58,0,0,0,1-.38l.45.65a2.43,2.43,0,0,1-1.59.54,2,2,0,1,1-.07-4.06Zm-.95,1.67h1.9a.89.89,0,0,0-1-.86A.93.93,0,0,0,514.21,216.6Z"/><path d="M519.94,213.93a.61.61,0,0,1,.61-.61.61.61,0,0,1,0,1.21A.61.61,0,0,1,519.94,213.93Zm.1,1.1h1v3.86h-1Z"/><path d="M524.84,216.56a.63.63,0,0,0-.72-.72,1.08,1.08,0,0,0-.87.45v2.6h-1V215h1v.5a1.77,1.77,0,0,1,1.35-.6,1.13,1.13,0,0,1,1.25,1.24v2.72h-1Z"/><path d="M528.78,214.93a1.94,1.94,0,0,1,1.94,2.13v.22h-2.87a1,1,0,0,0,1.11.9,1.58,1.58,0,0,0,1-.38l.45.65a2.41,2.41,0,0,1-1.59.54,2,2,0,0,1-.07-4.06Zm-.95,1.67h1.91a.9.9,0,0,0-1-.86A.93.93,0,0,0,527.83,216.6Z"/><path d="M534.25,216.54c0-.54-.28-.7-.72-.7a1.14,1.14,0,0,0-.88.45v2.6h-1v-5.33h1v2a1.82,1.82,0,0,1,1.36-.6,1.12,1.12,0,0,1,1.26,1.22v2.74h-1Z"/><path d="M538.2,214.93a2,2,0,0,1,1.94,2.13v.22h-2.87a1,1,0,0,0,1.11.9,1.58,1.58,0,0,0,1-.38l.45.65a2.43,2.43,0,0,1-1.59.54,2,2,0,1,1-.07-4.06Zm-1,1.67h1.9a.89.89,0,0,0-.95-.86A.93.93,0,0,0,537.25,216.6Z"/><path d="M541.06,215h1v.53a1.63,1.63,0,0,1,1.23-.62v1a1.7,1.7,0,0,0-.28,0,1.3,1.3,0,0,0-.95.44v2.55h-1Z"/><path d="M545.84,214.93a1.94,1.94,0,0,1,1.94,2.13v.22h-2.87a1,1,0,0,0,1.11.9,1.58,1.58,0,0,0,1-.38l.45.65a2.41,2.41,0,0,1-1.59.54,2,2,0,0,1-.07-4.06Zm-1,1.67h1.91a.9.9,0,0,0-1-.86A.93.93,0,0,0,544.89,216.6Z"/><path d="M551.31,216.56a.63.63,0,0,0-.72-.72,1.08,1.08,0,0,0-.87.45v2.6h-1V215h1v.5a1.76,1.76,0,0,1,1.35-.6,1.13,1.13,0,0,1,1.25,1.24v2.72h-1Z"/><path d="M555.3,214.93a1.82,1.82,0,0,1,1.53.7l-.66.62a1,1,0,0,0-.82-.41,1.12,1.12,0,0,0,0,2.24,1,1,0,0,0,.82-.41l.66.61a1.8,1.8,0,0,1-1.53.71,2,2,0,1,1,0-4.06Z"/><path d="M559.33,214.93a1.94,1.94,0,0,1,1.93,2.13v.22h-2.87a1,1,0,0,0,1.11.9,1.56,1.56,0,0,0,1-.38l.45.65a2.41,2.41,0,0,1-1.59.54,2,2,0,0,1-.06-4.06Zm-1,1.67h1.91a.9.9,0,0,0-.95-.86A.93.93,0,0,0,558.37,216.6Z"/><path d="M566,214.93a1.94,1.94,0,0,1,1.93,2.13v.22H565a1,1,0,0,0,1.11.9,1.6,1.6,0,0,0,1-.38l.44.65A2.41,2.41,0,0,1,566,219a2,2,0,0,1-.06-4.06Zm-1,1.67h1.9a.89.89,0,0,0-.95-.86A.92.92,0,0,0,565,216.6Z"/><path d="M568.82,213.56h1v5.33h-1Z"/><path d="M572.77,214.93a1.94,1.94,0,0,1,1.93,2.13v.22h-2.87a1,1,0,0,0,1.11.9,1.6,1.6,0,0,0,1-.38l.44.65a2.41,2.41,0,0,1-1.59.54,2,2,0,0,1-.06-4.06Zm-.95,1.67h1.9a.89.89,0,0,0-1-.86A.92.92,0,0,0,571.82,216.6Z"/><path d="M580.41,216.45c0-.36-.16-.61-.57-.61a1,1,0,0,0-.8.45v2.6h-1v-2.44c0-.36-.16-.61-.57-.61a1,1,0,0,0-.8.45v2.6h-1V215h1v.5a1.69,1.69,0,0,1,1.26-.6,1,1,0,0,1,1.07.71,1.67,1.67,0,0,1,1.33-.71,1,1,0,0,1,1.14,1.17v2.79h-1Z"/><path d="M584.37,214.93a2,2,0,0,1,1.94,2.13v.22h-2.87a1,1,0,0,0,1.11.9,1.58,1.58,0,0,0,1-.38l.45.65a2.43,2.43,0,0,1-1.59.54,2,2,0,1,1-.07-4.06Zm-1,1.67h1.9a.89.89,0,0,0-1-.86A.93.93,0,0,0,583.42,216.6Z"/><path d="M589.84,216.56a.63.63,0,0,0-.72-.72,1.1,1.1,0,0,0-.88.45v2.6h-1V215h1v.5a1.8,1.8,0,0,1,1.36-.6,1.13,1.13,0,0,1,1.25,1.24v2.72h-1Z"/><path d="M592.23,217.93v-2h-.64V215h.64V214h1V215H594v.89h-.78v1.74c0,.24.12.42.35.42A.54.54,0,0,0,594,218l.21.77a1.21,1.21,0,0,1-.84.25A1,1,0,0,1,592.23,217.93Z"/><path d="M424.14,224h1.09l1,2.69,1-2.69h1.1l-1.55,3.86h-1.1Z"/><path d="M430.63,223.93a2,2,0,0,1,1.94,2.13v.22H429.7a1,1,0,0,0,1.11.9,1.58,1.58,0,0,0,1-.38l.45.65a2.43,2.43,0,0,1-1.59.54,2,2,0,1,1-.07-4.06Zm-.95,1.67h1.9a.89.89,0,0,0-.95-.86A.93.93,0,0,0,429.68,225.6Z"/><path d="M433.49,224h1v.53a1.63,1.63,0,0,1,1.23-.62v1a1.7,1.7,0,0,0-.28,0,1.3,1.3,0,0,0-.95.44v2.55h-1Z"/><path d="M436.4,222.93a.61.61,0,1,1,.61.6A.61.61,0,0,1,436.4,222.93Zm.1,1.1h1v3.86h-1Z"/><path d="M438.94,224.92h-.64V224h.64v-.21a1.24,1.24,0,0,1,1.3-1.34,1.62,1.62,0,0,1,.74.16l-.21.73a.62.62,0,0,0-.33-.09c-.29,0-.48.19-.48.54V224h.79v.89H440v3h-1Zm2.28-2a.61.61,0,0,1,.61-.61.61.61,0,1,1-.61.61Zm.11,1.1h1v3.86h-1Z"/><path d="M445.32,223.93a1.82,1.82,0,0,1,1.53.7l-.67.62a.92.92,0,0,0-.81-.41,1.12,1.12,0,0,0,0,2.24,1,1,0,0,0,.81-.41l.67.61a1.8,1.8,0,0,1-1.53.71,2,2,0,1,1,0-4.06Z"/><path d="M450,227.49a1.62,1.62,0,0,1-1.23.5,1.29,1.29,0,0,1-1.34-1.28,1.22,1.22,0,0,1,1.34-1.23A1.59,1.59,0,0,1,450,226v-.54c0-.39-.34-.64-.85-.64a1.64,1.64,0,0,0-1.13.45l-.38-.68a2.56,2.56,0,0,1,1.68-.61c.88,0,1.69.36,1.69,1.47v2.49h-1Zm0-1a1,1,0,0,0-.82-.33c-.4,0-.73.21-.73.58s.33.57.73.57A1,1,0,0,0,450,227Z"/><path d="M452.42,226.93v-2h-.64V224h.64V223h1V224h.78v.89h-.78v1.74c0,.24.13.42.35.42a.52.52,0,0,0,.35-.11l.22.77a1.22,1.22,0,0,1-.85.25A1,1,0,0,1,452.42,226.93Z"/><path d="M455,222.93a.61.61,0,1,1,1.21,0,.61.61,0,0,1-1.21,0Zm.1,1.1h1v3.86h-1Z"/><path d="M457.07,226a2,2,0,1,1,2,2A2,2,0,0,1,457.07,226Zm3,0a1,1,0,1,0-1,1.12A1,1,0,0,0,460.1,226Z"/><path d="M464.7,225.56c0-.54-.28-.72-.71-.72a1.1,1.1,0,0,0-.88.45v2.6h-1V224h1v.5a1.79,1.79,0,0,1,1.35-.6,1.13,1.13,0,0,1,1.26,1.24v2.72h-1Z"/><path d="M469.13,226.93v-2h-.63V224h.63V223h1V224h.78v.89h-.78v1.74c0,.24.13.42.35.42a.52.52,0,0,0,.35-.11l.22.77a1.24,1.24,0,0,1-.85.25A1,1,0,0,1,469.13,226.93Z"/><path d="M474.49,225.54c0-.54-.28-.7-.72-.7a1.12,1.12,0,0,0-.88.45v2.6h-1v-5.33h1v2a1.82,1.82,0,0,1,1.36-.6,1.11,1.11,0,0,1,1.25,1.22v2.74h-1Z"/><path d="M476.67,224h1v.53a1.63,1.63,0,0,1,1.23-.62v1a1.84,1.84,0,0,0-.28,0,1.28,1.28,0,0,0-.95.44v2.55h-1Z"/><path d="M479.47,226a2,2,0,1,1,2,2A2,2,0,0,1,479.47,226Zm3,0a1,1,0,1,0-1,1.12A1,1,0,0,0,482.5,226Z"/><path d="M487.09,227.4a1.81,1.81,0,0,1-1.36.59,1.11,1.11,0,0,1-1.25-1.22V224h1v2.34c0,.54.28.71.71.71a1.13,1.13,0,0,0,.88-.44V224h1v3.86h-1Z"/><path d="M489.68,228.15a1.56,1.56,0,0,0,1.21.48,1,1,0,0,0,1.07-1v-.39a1.53,1.53,0,0,1-1.2.61c-1,0-1.7-.68-1.7-2a1.73,1.73,0,0,1,1.7-2,1.49,1.49,0,0,1,1.2.6V224h1v3.6c0,1.47-1.14,1.83-2.09,1.83a2.32,2.32,0,0,1-1.66-.58Zm2.28-2.87a1.1,1.1,0,0,0-.88-.44,1.06,1.06,0,0,0,0,2.12,1.13,1.13,0,0,0,.88-.44Z"/><path d="M496.77,225.54c0-.54-.28-.7-.72-.7a1.12,1.12,0,0,0-.88.45v2.6h-1v-5.33h1v2a1.82,1.82,0,0,1,1.36-.6,1.12,1.12,0,0,1,1.25,1.22v2.74h-1Z"/><path d="M501,222.56h1v2a1.46,1.46,0,0,1,1.19-.6c1,0,1.71.77,1.71,2s-.74,2-1.71,2a1.49,1.49,0,0,1-1.19-.59v.49h-1Zm1.89,4.52a1.13,1.13,0,0,0,0-2.24,1.09,1.09,0,0,0-.87.45v1.36A1.1,1.1,0,0,0,502.89,227.08Z"/><path d="M507.65,223.93a1.94,1.94,0,0,1,1.93,2.13v.22h-2.87a1,1,0,0,0,1.11.9,1.6,1.6,0,0,0,1-.38l.44.65a2.41,2.41,0,0,1-1.59.54,2,2,0,0,1-.06-4.06Zm-.95,1.67h1.9a.89.89,0,0,0-1-.86A.93.93,0,0,0,506.7,225.6Z"/><path d="M513.12,225.54c0-.54-.28-.7-.72-.7a1.14,1.14,0,0,0-.88.45v2.6h-1v-5.33h1v2a1.82,1.82,0,0,1,1.36-.6,1.11,1.11,0,0,1,1.25,1.22v2.74h-1Z"/><path d="M517.63,227.49a1.58,1.58,0,0,1-1.22.5,1.29,1.29,0,0,1-1.34-1.28,1.22,1.22,0,0,1,1.34-1.23,1.55,1.55,0,0,1,1.22.47v-.54c0-.39-.33-.64-.84-.64a1.64,1.64,0,0,0-1.13.45l-.38-.68a2.56,2.56,0,0,1,1.68-.61c.88,0,1.69.36,1.69,1.47v2.49h-1Zm0-1a1,1,0,0,0-.81-.33c-.4,0-.73.21-.73.58s.33.57.73.57a1,1,0,0,0,.81-.34Z"/><path d="M519.17,224h1.09l1,2.69,1-2.69h1.09l-1.55,3.86h-1.1Z"/><path d="M524,222.93a.61.61,0,0,1,.61-.61.61.61,0,0,1,0,1.21A.61.61,0,0,1,524,222.93Zm.1,1.1h1v3.86h-1Z"/><path d="M526,226a2,2,0,1,1,2,2A2,2,0,0,1,526,226Zm3,0a1,1,0,1,0-1,1.12A1,1,0,0,0,529,226Z"/><path d="M531,224h1v.53a1.63,1.63,0,0,1,1.23-.62v1a1.7,1.7,0,0,0-.28,0,1.3,1.3,0,0,0-1,.44v2.55h-1Z"/><path d="M536.36,227.49a1.6,1.6,0,0,1-1.22.5,1.28,1.28,0,0,1-1.34-1.28,1.21,1.21,0,0,1,1.34-1.23,1.55,1.55,0,0,1,1.22.47v-.54c0-.39-.33-.64-.84-.64a1.64,1.64,0,0,0-1.13.45l-.39-.68a2.58,2.58,0,0,1,1.69-.61c.88,0,1.69.36,1.69,1.47v2.49h-1Zm0-1a1,1,0,0,0-.81-.33c-.4,0-.73.21-.73.58s.33.57.73.57a1,1,0,0,0,.81-.34Z"/><path d="M538.54,222.56h1v5.33h-1Z"/><path d="M542.78,222.56h1v2a1.49,1.49,0,0,1,1.19-.6c1,0,1.71.77,1.71,2s-.73,2-1.71,2a1.52,1.52,0,0,1-1.19-.59v.49h-1Zm1.88,4.52a1.13,1.13,0,0,0,0-2.24,1.12,1.12,0,0,0-.87.45v1.36A1.13,1.13,0,0,0,544.66,227.08Z"/><path d="M547.53,222.93a.61.61,0,0,1,.61-.61.61.61,0,1,1-.61.61Zm.11,1.1h1v3.86h-1Z"/><path d="M549.57,226a2,2,0,1,1,2,2A2,2,0,0,1,549.57,226Zm3,0a1,1,0,1,0-1,1.12A1,1,0,0,0,552.6,226Z"/><path d="M559.38,225.45c0-.36-.16-.61-.57-.61a1,1,0,0,0-.8.45v2.6h-1v-2.44c0-.36-.16-.61-.57-.61a1,1,0,0,0-.8.45v2.6h-1V224h1v.5a1.69,1.69,0,0,1,1.26-.6,1,1,0,0,1,1.07.71,1.67,1.67,0,0,1,1.33-.71,1,1,0,0,1,1.14,1.17v2.79h-1Z"/><path d="M563.35,223.93a1.94,1.94,0,0,1,1.93,2.13v.22h-2.87a1,1,0,0,0,1.11.9,1.56,1.56,0,0,0,1-.38l.45.65a2.41,2.41,0,0,1-1.59.54,2,2,0,0,1-.06-4.06Zm-1,1.67h1.9a.89.89,0,0,0-.95-.86A.92.92,0,0,0,562.4,225.6Z"/><path d="M566.42,226.93v-2h-.64V224h.64V223h1V224h.78v.89h-.78v1.74c0,.24.12.42.35.42a.54.54,0,0,0,.35-.11l.21.77a1.21,1.21,0,0,1-.84.25A1,1,0,0,1,566.42,226.93Z"/><path d="M569.16,224h1v.53a1.67,1.67,0,0,1,1.24-.62v1a2,2,0,0,0-.28,0,1.3,1.3,0,0,0-1,.44v2.55h-1Z"/><path d="M572.07,222.93a.61.61,0,0,1,.61-.61.61.61,0,1,1-.61.61Zm.11,1.1h1v3.86h-1Z"/><path d="M576.15,223.93a1.82,1.82,0,0,1,1.53.7l-.66.62a1,1,0,0,0-.82-.41,1.12,1.12,0,0,0,0,2.24,1,1,0,0,0,.82-.41l.66.61a1.8,1.8,0,0,1-1.53.71,2,2,0,1,1,0-4.06Z"/><path d="M578.73,226.68a2.24,2.24,0,0,0,1.34.52c.44,0,.64-.15.64-.39s-.33-.37-.77-.45c-.66-.13-1.52-.29-1.52-1.21,0-.65.57-1.22,1.58-1.22a2.48,2.48,0,0,1,1.56.53l-.41.7a1.61,1.61,0,0,0-1.14-.45c-.37,0-.61.14-.61.36s.31.33.74.42c.66.12,1.55.3,1.55,1.26,0,.7-.6,1.24-1.67,1.24a2.65,2.65,0,0,1-1.73-.6Z"/><line class="cls-3" x1="503.06" y1="169.09" x2="503.06" y2="176.7"/><polyline class="cls-3" points="756.19 161.48 756.19 169.09 657.39 169.09 657.39 161.48"/><path d="M675.11,190.42a1.93,1.93,0,0,0,1.42.58c.63,0,1-.36,1-.8s-.36-.82-1-.82a1.55,1.55,0,0,0-1.12.44l-.8-.22v-3h3.67v1h-2.55v1.34a1.83,1.83,0,0,1,1.2-.45,1.67,1.67,0,0,1,1.71,1.73c0,1.13-.85,1.84-2.14,1.84a2.66,2.66,0,0,1-2-.8Z"/><path d="M680.19,190.68a.65.65,0,1,1-.65.65A.66.66,0,0,1,680.19,190.68Z"/><path d="M684,186.56h1.15v3.16a1.23,1.23,0,1,0,2.46,0v-3.16h1.15v3.2a2.39,2.39,0,0,1-4.76,0Z"/><path d="M690,190.68a2.24,2.24,0,0,0,1.34.52c.44,0,.64-.15.64-.39s-.33-.37-.77-.45c-.67-.13-1.52-.29-1.52-1.21,0-.65.57-1.22,1.58-1.22a2.48,2.48,0,0,1,1.56.53l-.41.7a1.61,1.61,0,0,0-1.14-.45c-.37,0-.61.14-.61.36s.31.33.74.42c.66.12,1.55.3,1.55,1.26,0,.7-.6,1.24-1.67,1.24a2.65,2.65,0,0,1-1.73-.6Z"/><path d="M695.66,187.93a2,2,0,0,1,1.94,2.13v.22h-2.87a1,1,0,0,0,1.11.9,1.58,1.58,0,0,0,1-.38l.45.65a2.43,2.43,0,0,1-1.59.54,2,2,0,1,1-.07-4.06Zm-.95,1.67h1.9a.89.89,0,0,0-1-.86A.93.93,0,0,0,694.71,189.6Z"/><path d="M698.52,188h1v.53a1.63,1.63,0,0,1,1.23-.62v1a1.84,1.84,0,0,0-.28,0,1.3,1.3,0,0,0-1,.44v2.55h-1Z"/><path d="M703.5,186.93a.61.61,0,0,1,.61-.61.61.61,0,0,1,0,1.21A.61.61,0,0,1,703.5,186.93Zm.1,1.1h1v3.86h-1Z"/><path d="M705.92,190.68a2.24,2.24,0,0,0,1.34.52c.44,0,.65-.15.65-.39s-.34-.37-.78-.45c-.66-.13-1.52-.29-1.52-1.21,0-.65.57-1.22,1.59-1.22a2.47,2.47,0,0,1,1.55.53l-.4.7a1.66,1.66,0,0,0-1.15-.45c-.37,0-.6.14-.6.36s.3.33.73.42c.66.12,1.55.3,1.55,1.26,0,.7-.6,1.24-1.67,1.24a2.65,2.65,0,0,1-1.73-.6Z"/><path d="M711.29,188h1.09l1,2.69,1-2.69h1.1l-1.55,3.86h-1.1Z"/><path d="M717.78,187.93a1.94,1.94,0,0,1,1.94,2.13v.22h-2.87a1,1,0,0,0,1.11.9,1.58,1.58,0,0,0,1-.38l.45.65a2.41,2.41,0,0,1-1.59.54,2,2,0,1,1-.07-4.06Zm-.95,1.67h1.91a.9.9,0,0,0-1-.86A.93.93,0,0,0,716.83,189.6Z"/><path d="M720.64,188h1v.53a1.67,1.67,0,0,1,1.24-.62v1a2,2,0,0,0-.28,0,1.3,1.3,0,0,0-1,.44v2.55h-1Z"/><path d="M723.55,186.93a.61.61,0,0,1,.61-.61.61.61,0,1,1-.61.61Zm.11,1.1h1v3.86h-1Z"/><path d="M726.09,188.92h-.64V188h.64v-.21a1.24,1.24,0,0,1,1.3-1.34,1.59,1.59,0,0,1,.74.16l-.21.73a.62.62,0,0,0-.33-.09.48.48,0,0,0-.48.54V188h.79v.89h-.79v3h-1Zm2.29-2a.61.61,0,0,1,.61-.61.61.61,0,0,1,0,1.21A.61.61,0,0,1,728.38,186.93Zm.1,1.1h1v3.86h-1Z"/><path d="M732.42,187.93a2,2,0,0,1,1.94,2.13v.22h-2.87a1,1,0,0,0,1.11.9,1.58,1.58,0,0,0,1-.38l.45.65a2.41,2.41,0,0,1-1.59.54,2,2,0,1,1-.07-4.06Zm-.95,1.67h1.9a.89.89,0,0,0-1-.86A.93.93,0,0,0,731.47,189.6Z"/><path d="M738,191.4a1.51,1.51,0,0,1-1.19.59c-1,0-1.71-.74-1.71-2s.72-2,1.71-2a1.47,1.47,0,0,1,1.19.6v-2h1v5.33h-1Zm0-2.12a1.1,1.1,0,0,0-.88-.44,1.13,1.13,0,0,0,0,2.24,1.1,1.1,0,0,0,.88-.44Z"/><line class="cls-3" x1="706.79" y1="169.09" x2="706.79" y2="176.7"/></g><g id="Layer_1" data-name="Layer 1"><g id="device-phone"><g id="Isolation_Mode" data-name="Isolation Mode"><path d="M96.27,110.94h-4a.5.5,0,0,0-.5.5.5.5,0,0,0,.5.5h4a.5.5,0,0,0,.5-.5A.5.5,0,0,0,96.27,110.94Z"/><path d="M84.27,114h20a1.5,1.5,0,0,0,1.5-1.5v-38a1.5,1.5,0,0,0-1.5-1.5h-20a1.5,1.5,0,0,0-1.5,1.5v38.05A1.5,1.5,0,0,0,84.27,114Zm20-1h-20a.5.5,0,0,1-.5-.5v-2.62a1.39,1.39,0,0,0,.5.1h20a1.39,1.39,0,0,0,.5-.1v2.62A.5.5,0,0,1,104.27,113Zm.5-4.52a.5.5,0,0,1-.5.5h-20a.51.51,0,0,1-.5-.5v-30a.5.5,0,0,1,.5-.5h20a.5.5,0,0,1,.5.5ZM84.27,73.91h20a.5.5,0,0,1,.5.5V77a1.39,1.39,0,0,0-.5-.09h-20a1.39,1.39,0,0,0-.5.09V74.41A.51.51,0,0,1,84.27,73.91Z"/><circle cx="86.27" cy="75.44" r="1"/></g></g><g id="device-computer"><g id="Isolation_Mode-2" data-name="Isolation Mode"><circle cx="136.33" cy="124.44" r="1"/><path d="M156.3,98.94h-40a.51.51,0,0,0-.35.15.47.47,0,0,0-.15.35l.06,22.87a.28.28,0,0,0,0,.13.35.35,0,0,0,0,.14v3.86a.5.5,0,0,0,.5.5H135.8v2h-8.44a.5.5,0,0,0-.5.5.5.5,0,0,0,.5.5h18a.5.5,0,0,0,.5-.5.5.5,0,0,0-.5-.5H136.8v-2h19.5a.5.5,0,0,0,.5-.5v-27A.5.5,0,0,0,156.3,98.94Zm-.5,1v22h-39l-.06-22Zm-39,26v-3h39v3Z"/></g></g><g id="user"><g id="Isolation_Mode-3" data-name="Isolation Mode"><path d="M31.78,115.63h.11a.49.49,0,0,0,.48-.39l3.31-14.53a5.27,5.27,0,0,1,2.32-3,28.87,28.87,0,0,1,9.29-3.32,7.55,7.55,0,0,0,9.18,0,29,29,0,0,1,9.3,3.32,5.27,5.27,0,0,1,2.32,3l3.31,14.57a.5.5,0,0,0,.49.39H72a.5.5,0,0,0,.38-.6l-3.32-14.6a6.28,6.28,0,0,0-2.76-3.58,29,29,0,0,0-8.8-3.29,14.67,14.67,0,0,0,4.33-10.81c0-6.43-3.62-10.11-9.94-10.11S42,76.32,42,82.75a14.66,14.66,0,0,0,4.32,10.81,28.91,28.91,0,0,0-8.8,3.29,6.31,6.31,0,0,0-2.77,3.61L31.4,115A.5.5,0,0,0,31.78,115.63ZM43,82.75c0-7.93,5.6-9.11,8.94-9.11s8.94,1.18,8.94,9.11c0,4.47-1.82,8.57-4.73,10.69l0,0a6.61,6.61,0,0,1-8.36,0h0C44.77,91.33,43,87.23,43,82.75Z"/></g></g><g id="device-laptop"><g id="Isolation_Mode-4" data-name="Isolation Mode"><path d="M140.33,83.41h-6a.5.5,0,0,0-.5.5.5.5,0,0,0,.5.5h6a.5.5,0,0,0,.5-.5A.51.51,0,0,0,140.33,83.41Z"/><path d="M157.83,81.66V59.91a.51.51,0,0,0-.5-.5h-40a.5.5,0,0,0-.5.5V81.66a2.81,2.81,0,0,0-1,2.25,2.74,2.74,0,0,0,1.26,2.44.48.48,0,0,0,.24.06h40a.53.53,0,0,0,.24-.06,2.76,2.76,0,0,0,1.26-2.44A2.81,2.81,0,0,0,157.83,81.66Zm-1-21.25v21h-39v-21Zm.34,25H117.48a2.06,2.06,0,0,1,0-3h39.69a2,2,0,0,1,0,3Z"/></g></g><g id="user-2" data-name="user"><g id="Isolation_Mode-5" data-name="Isolation Mode"><path d="M686.68,116l.11,0a.51.51,0,0,0,.49-.39l3.3-14.54a5.31,5.31,0,0,1,2.33-3,29,29,0,0,1,9.28-3.31,7.55,7.55,0,0,0,9.18,0,29.4,29.4,0,0,1,9.3,3.31,5.32,5.32,0,0,1,2.32,3l3.31,14.57a.5.5,0,0,0,.49.39l.11,0a.5.5,0,0,0,.38-.6L724,100.84a6.3,6.3,0,0,0-2.76-3.59A29.67,29.67,0,0,0,712.4,94a14.63,14.63,0,0,0,4.33-10.81c0-6.42-3.62-10.1-9.94-10.1s-9.93,3.68-9.93,10.1A14.63,14.63,0,0,0,701.19,94a29.66,29.66,0,0,0-8.81,3.29,6.33,6.33,0,0,0-2.77,3.62l-3.31,14.56A.5.5,0,0,0,686.68,116Zm11.18-32.88c0-7.92,5.6-9.1,8.93-9.1s8.94,1.18,8.94,9.1c0,4.48-1.81,8.57-4.73,10.69l0,0a6.61,6.61,0,0,1-8.35,0h0C699.68,91.74,697.86,87.64,697.86,83.15Z"/></g></g><g id="cloud"><g id="Isolation_Mode-6" data-name="Isolation Mode"><path d="M252.9,90.73a11.48,11.48,0,0,0-21.73-7.08,10,10,0,0,0-3.6-.67,9.86,9.86,0,0,0-9.88,9.31,6.74,6.74,0,0,0,.51,13.47H248a8.28,8.28,0,0,0,4.9-15Zm-4.9,14H218.2a5.75,5.75,0,1,1,0-11.49.51.51,0,0,0,.5-.5,8.89,8.89,0,0,1,12.55-8,.55.55,0,0,0,.4,0,.47.47,0,0,0,.27-.28,10.5,10.5,0,0,1,20.3,3.63,10.27,10.27,0,0,1-.36,2.7.51.51,0,0,0,.21.55,7.24,7.24,0,0,1,3.33,6.09A7.35,7.35,0,0,1,248,104.76Z"/></g></g><g id="security-password"><g id="af14f1d7-4352-4ddc-82aa-0de69876a4ad"><path d="M286.89,81v3.49a2.06,2.06,0,0,1-.12.78,1.51,1.51,0,0,1-.35.58,1.58,1.58,0,0,1-.56.36,2.14,2.14,0,0,1-.75.12,2.18,2.18,0,0,1-.72-.12,1.51,1.51,0,0,1-.54-.36,1.58,1.58,0,0,1-.36-.58,2.31,2.31,0,0,1-.12-.78V81h1v3.49a1.4,1.4,0,0,0,.19.77.61.61,0,0,0,.53.26.69.69,0,0,0,.57-.26,1.24,1.24,0,0,0,.2-.77V81Z"/><path d="M291,84.88a.58.58,0,0,0-.05-.26.53.53,0,0,0-.16-.23,1.49,1.49,0,0,0-.31-.2A2.6,2.6,0,0,0,290,84a4,4,0,0,1-.66-.24,2.28,2.28,0,0,1-.55-.34,1.56,1.56,0,0,1-.38-.46,1.25,1.25,0,0,1-.14-.61,1.42,1.42,0,0,1,.14-.6,1.33,1.33,0,0,1,.39-.46,1.91,1.91,0,0,1,.59-.29,2.65,2.65,0,0,1,.74-.11,2.15,2.15,0,0,1,.75.13,1.63,1.63,0,0,1,.59.33,1.55,1.55,0,0,1,.52,1.16h-1a.87.87,0,0,0-.06-.32.78.78,0,0,0-.17-.26,1,1,0,0,0-.27-.17,1.32,1.32,0,0,0-.39-.06,1.49,1.49,0,0,0-.36,0,.87.87,0,0,0-.27.14.56.56,0,0,0-.16.21.58.58,0,0,0-.06.26.53.53,0,0,0,.08.27.7.7,0,0,0,.21.21,2.21,2.21,0,0,0,.34.18l.46.14a4.77,4.77,0,0,1,.66.26,1.86,1.86,0,0,1,.52.36,1.32,1.32,0,0,1,.34.47,1.37,1.37,0,0,1,.13.59,1.44,1.44,0,0,1-.14.62,1.57,1.57,0,0,1-.39.46,2,2,0,0,1-.58.28,3,3,0,0,1-1.23,0,2.43,2.43,0,0,1-.48-.14,1.76,1.76,0,0,1-.42-.24,1.5,1.5,0,0,1-.56-.75,1.59,1.59,0,0,1-.08-.53h1a1,1,0,0,0,.08.41.83.83,0,0,0,.21.28,1,1,0,0,0,.33.16,1.84,1.84,0,0,0,.41,0,1.49,1.49,0,0,0,.36,0,.84.84,0,0,0,.27-.13.53.53,0,0,0,.16-.2A.47.47,0,0,0,291,84.88Z"/><path d="M296.39,84h-2.16v1.48h2.52v.82h-3.54V81h3.53v.83h-2.51v1.33h2.16Z"/><path d="M299.82,84.29h-.77v2h-1V81h1.76a3,3,0,0,1,.79.11,1.69,1.69,0,0,1,.6.3,1.33,1.33,0,0,1,.39.49,1.82,1.82,0,0,1,.07,1.2,1.35,1.35,0,0,1-.49.71,2.22,2.22,0,0,1-.39.23l1.13,2.17v0h-1.09Zm-.77-.83h.75a.92.92,0,0,0,.66-.21.81.81,0,0,0,.24-.6.84.84,0,0,0-.23-.62.92.92,0,0,0-.67-.22h-.75Z"/><path d="M306.39,86.25h-1l-1.47-3.39v3.39h-1V81h1l1.45,3.38V81h1Z"/><path d="M310.38,85.15h-1.57l-.31,1.1h-1.07L309.15,81h.92l1.69,5.26h-1.07Zm-1.32-.86h1.09l-.54-1.93Z"/><path d="M313.93,81l.49,2,.57-2h1.26v5.26h-.93V84.7l0-2.47-.69,2.28h-.5l-.62-2.18,0,2.36v1.56h-.93V81Z"/><path d="M320.8,84h-2.16v1.48h2.52v.82h-3.54V81h3.53v.83h-2.51v1.33h2.16Z"/></g><g id="ee78d261-ace3-4076-b9de-9e171a9dc3f1"><path d="M327.09,76.76h-49.3a.61.61,0,0,0-.61.62V89.7a.61.61,0,0,0,.61.62h49.3a.61.61,0,0,0,.62-.62V77.38A.62.62,0,0,0,327.09,76.76Zm-.61,12.33H278.41V78h48.07Z"/><path d="M327.09,92.2h-49.3a.61.61,0,0,0-.61.62v12.33a.61.61,0,0,0,.61.61h49.3a.61.61,0,0,0,.62-.61V92.82A.62.62,0,0,0,327.09,92.2Zm-.61,12.33H278.41V93.44h48.07Z"/><polygon points="283.07 100.7 284.61 99.73 284.52 101.54 285.57 101.54 285.48 99.73 287 100.7 287.53 99.81 285.93 98.98 287.53 98.16 287 97.25 285.48 98.22 285.57 96.41 284.52 96.41 284.61 98.22 283.07 97.25 282.56 98.16 284.16 98.98 282.56 99.81 283.07 100.7"/><polygon points="288.87 100.7 290.41 99.73 290.32 101.54 291.37 101.54 291.28 99.73 292.8 100.7 293.33 99.81 291.73 98.98 293.33 98.16 292.8 97.25 291.28 98.22 291.37 96.41 290.32 96.41 290.41 98.22 288.87 97.25 288.36 98.16 289.96 98.98 288.36 99.81 288.87 100.7"/><polygon points="294.67 100.7 296.21 99.73 296.12 101.54 297.17 101.54 297.08 99.73 298.6 100.7 299.13 99.81 297.53 98.98 299.13 98.16 298.6 97.25 297.08 98.22 297.17 96.41 296.12 96.41 296.21 98.22 294.67 97.25 294.16 98.16 295.76 98.98 294.16 99.81 294.67 100.7"/><polygon points="300.47 100.7 302.01 99.73 301.92 101.54 302.96 101.54 302.88 99.73 304.4 100.7 304.93 99.81 303.33 98.98 304.93 98.16 304.4 97.25 302.88 98.22 302.96 96.41 301.92 96.41 302.01 98.22 300.47 97.25 299.96 98.16 301.56 98.98 299.96 99.81 300.47 100.7"/><polygon points="306.27 100.7 307.81 99.73 307.72 101.54 308.76 101.54 308.68 99.73 310.2 100.7 310.73 99.81 309.13 98.98 310.73 98.16 310.2 97.25 308.68 98.22 308.76 96.41 307.72 96.41 307.81 98.22 306.27 97.25 305.76 98.16 307.36 98.98 305.76 99.81 306.27 100.7"/><polygon points="312.07 100.7 313.61 99.73 313.52 101.54 314.56 101.54 314.48 99.73 316 100.7 316.53 99.81 314.93 98.98 316.53 98.16 316 97.25 314.48 98.22 314.56 96.41 313.52 96.41 313.61 98.22 312.07 97.25 311.56 98.16 313.16 98.98 311.56 99.81 312.07 100.7"/><polygon points="317.87 100.7 319.4 99.73 319.32 101.54 320.36 101.54 320.28 99.73 321.8 100.7 322.33 99.81 320.73 98.98 322.33 98.16 321.8 97.25 320.28 98.22 320.36 96.41 319.32 96.41 319.4 98.22 317.87 97.25 317.36 98.16 318.96 98.98 317.36 99.81 317.87 100.7"/></g></g><g id="hw-server-stack"><g id="Isolation_Mode-7" data-name="Isolation Mode"><path d="M487.06,105.06a.5.5,0,0,0,.5-.5v-3a.5.5,0,0,0-1,0v3A.5.5,0,0,0,487.06,105.06Z"/><path d="M483.06,105.06a.5.5,0,0,0,.5-.5v-3a.5.5,0,0,0-1,0v3A.5.5,0,0,0,483.06,105.06Z"/><path d="M479.06,105.06a.5.5,0,0,0,.5-.5v-3a.5.5,0,0,0-1,0v3A.5.5,0,0,0,479.06,105.06Z"/><path d="M456.06,105.06a2,2,0,1,0-2-2A2,2,0,0,0,456.06,105.06Zm0-3a1,1,0,1,1-1,1A1,1,0,0,1,456.06,102.06Z"/><path d="M452.45,107.56h37.22a1.89,1.89,0,0,0,1.89-1.88v-5.19a2,2,0,0,0-.63-1.42,1.87,1.87,0,0,0,.63-1.39V92.49a2,2,0,0,0-.63-1.42,1.87,1.87,0,0,0,.63-1.39V84.49a1.93,1.93,0,0,0-1.92-1.93H452.45a1.89,1.89,0,0,0-1.89,1.89v5.23a1.84,1.84,0,0,0,.62,1.38,1.88,1.88,0,0,0-.62,1.39v5.23a1.84,1.84,0,0,0,.62,1.38,1.88,1.88,0,0,0-.62,1.39v5.23A1.89,1.89,0,0,0,452.45,107.56Zm-.89-17.88V84.45a.89.89,0,0,1,.89-.89h37.19a.93.93,0,0,1,.92.93v5.19a.88.88,0,0,1-.89.88H452.45A.88.88,0,0,1,451.56,89.68Zm0,8V92.45a.89.89,0,0,1,.89-.89h37.19a.93.93,0,0,1,.92.93v5.19a.88.88,0,0,1-.89.88H452.45A.88.88,0,0,1,451.56,97.68Zm38.08,1.88a.93.93,0,0,1,.92.93v5.19a.88.88,0,0,1-.89.88H452.45a.88.88,0,0,1-.89-.88v-5.23a.89.89,0,0,1,.89-.89Z"/><path d="M487.06,93.07a.5.5,0,0,0-.5.5v3a.5.5,0,1,0,1,0v-3A.5.5,0,0,0,487.06,93.07Z"/><path d="M483.06,93.07a.5.5,0,0,0-.5.5v3a.5.5,0,1,0,1,0v-3A.5.5,0,0,0,483.06,93.07Z"/><path d="M479.06,93.07a.5.5,0,0,0-.5.5v3a.5.5,0,1,0,1,0v-3A.5.5,0,0,0,479.06,93.07Z"/><path d="M456.06,93.06a2,2,0,1,0,2,2A2,2,0,0,0,456.06,93.06Zm0,3a1,1,0,1,1,1-1A1,1,0,0,1,456.06,96.06Z"/><path d="M487.06,85.07a.5.5,0,0,0-.5.5v3a.5.5,0,1,0,1,0v-3A.5.5,0,0,0,487.06,85.07Z"/><path d="M483.06,85.07a.5.5,0,0,0-.5.5v3a.5.5,0,1,0,1,0v-3A.5.5,0,0,0,483.06,85.07Z"/><path d="M479.06,85.07a.5.5,0,0,0-.5.5v3a.5.5,0,1,0,1,0v-3A.5.5,0,0,0,479.06,85.07Z"/><path d="M456.06,85.06a2,2,0,1,0,2,2A2,2,0,0,0,456.06,85.06Zm0,3a1,1,0,1,1,1-1A1,1,0,0,1,456.06,88.06Z"/></g></g><path d="M446.64,124.57,445.17,130h-.9l-1.9-6.66h.92l1.48,5.55,1.53-5.55H447l1.53,5.55,1.47-5.55h.92L449,130h-.9Z"/><path d="M453.61,125a2.35,2.35,0,0,1,2.32,2.59v.19H452a1.7,1.7,0,0,0,1.74,1.67,2.11,2.11,0,0,0,1.49-.61l.36.49a2.62,2.62,0,0,1-1.92.74,2.54,2.54,0,0,1-.08-5.07ZM452,127.23h3.17a1.57,1.57,0,0,0-1.59-1.61A1.61,1.61,0,0,0,452,127.23Z"/><path d="M457.24,123.29H458v2.56a2,2,0,0,1,1.63-.85,2.25,2.25,0,0,1,2.15,2.54c0,1.57-.89,2.53-2.15,2.53a2,2,0,0,1-1.63-.84V130h-.75Zm2.19,6.11c1,0,1.56-.79,1.56-1.86s-.58-1.87-1.56-1.87a1.79,1.79,0,0,0-1.44.78v2.19A1.78,1.78,0,0,0,459.43,129.4Z"/><path d="M471.14,130h-1c-.2-.18-.46-.43-.73-.7a2.69,2.69,0,0,1-1.93.82,1.85,1.85,0,0,1-2.07-1.86,2.25,2.25,0,0,1,1.47-2,3.09,3.09,0,0,1-.51-1.49,1.58,1.58,0,0,1,1.68-1.55,1.34,1.34,0,0,1,1.51,1.31c0,1-.86,1.44-1.7,1.88a11.15,11.15,0,0,0,.77.95l.79.89a6.68,6.68,0,0,0,.72-1.52l.64.28a8.64,8.64,0,0,1-.9,1.72C470.24,129.1,470.66,129.5,471.14,130Zm-2.21-1.16c-.38-.4-.74-.78-.93-1s-.56-.68-.82-1.06a1.67,1.67,0,0,0-1,1.44,1.27,1.27,0,0,0,1.34,1.29A2,2,0,0,0,468.93,128.79Zm-1.42-2.9c.71-.36,1.32-.71,1.32-1.37a.72.72,0,0,0-.78-.75.93.93,0,0,0-.94,1A2.48,2.48,0,0,0,467.51,125.89Z"/><path d="M480.79,126.67c0-.61-.27-1-.89-1a1.69,1.69,0,0,0-1.28.74V130h-.75v-3.28c0-.61-.26-1-.89-1a1.69,1.69,0,0,0-1.27.75V130H475v-4.83h.75v.7a2.09,2.09,0,0,1,1.56-.82,1.24,1.24,0,0,1,1.3.9,2,2,0,0,1,1.62-.9c.88,0,1.35.49,1.35,1.46V130h-.75Z"/><path d="M482.86,127.53c-.17-3.29,5-3.29,4.78,0C487.81,130.84,482.69,130.84,482.86,127.53Zm4,0a1.62,1.62,0,1,0-3.21,0A1.62,1.62,0,1,0,486.85,127.53Z"/><path d="M489,123.29h.75v2.56a2,2,0,0,1,1.63-.85,2.25,2.25,0,0,1,2.15,2.54c0,1.57-.89,2.53-2.15,2.53a2,2,0,0,1-1.63-.84V130H489Zm2.19,6.11c1,0,1.56-.79,1.56-1.86s-.58-1.87-1.56-1.87a1.79,1.79,0,0,0-1.44.78v2.19A1.78,1.78,0,0,0,491.15,129.4Z"/><path d="M494.68,123.8a.51.51,0,0,1,1,0,.51.51,0,1,1-1,0Zm.13,1.32h.75V130h-.75Z"/><path d="M497.16,123.29h.75V130h-.75Z"/><path d="M501.61,125a2.35,2.35,0,0,1,2.32,2.59v.19H500a1.7,1.7,0,0,0,1.74,1.67,2.11,2.11,0,0,0,1.49-.61l.36.49a2.62,2.62,0,0,1-1.92.74,2.54,2.54,0,0,1-.08-5.07ZM500,127.23h3.17a1.57,1.57,0,0,0-1.59-1.61A1.61,1.61,0,0,0,500,127.23Z"/><path d="M452.44,139.47h-3.37l-.59,1.48h-.92l2.68-6.66h1L454,141H453Zm-3.13-.74h2.89L450.76,135Z"/><path d="M454.93,134.29h2.68a1.94,1.94,0,0,1,2.08,2,2,2,0,0,1-2.08,2h-1.85V141h-.83Zm2.58.73h-1.75v2.54h1.75a1.27,1.27,0,1,0,0-2.54Z"/><path d="M460.9,134.29h.83V141h-.83Z"/><path d="M466.16,139.38a2.82,2.82,0,0,0,2.1,1c1.19,0,1.57-.64,1.57-1.15,0-.8-.81-1-1.69-1.26-1.07-.28-2.26-.58-2.26-1.89,0-1.1,1-1.85,2.29-1.85a3.1,3.1,0,0,1,2.36.93l-.49.61a2.55,2.55,0,0,0-1.93-.8c-.8,0-1.37.43-1.37,1.06s.77.87,1.62,1.1c1.09.29,2.32.63,2.32,2,0,1-.65,2-2.45,2a3.3,3.3,0,0,1-2.56-1.06Z"/><path d="M474.1,136a2.34,2.34,0,0,1,2.31,2.59v.19h-3.9a1.7,1.7,0,0,0,1.74,1.67,2.11,2.11,0,0,0,1.49-.61l.35.49a2.58,2.58,0,0,1-1.91.74,2.54,2.54,0,0,1-.08-5.07Zm-1.59,2.23h3.17a1.57,1.57,0,0,0-1.59-1.61A1.61,1.61,0,0,0,472.51,138.23Z"/><path d="M477.73,136.12h.75v.78a2.05,2.05,0,0,1,1.61-.88v.77a1.32,1.32,0,0,0-.3,0,1.77,1.77,0,0,0-1.31.77V141h-.75Z"/><path d="M480.41,136.12h.81l1.61,4,1.6-4h.81l-2,4.83h-.82Z"/><path d="M488.23,136a2.34,2.34,0,0,1,2.31,2.59v.19h-3.9a1.7,1.7,0,0,0,1.73,1.67,2.11,2.11,0,0,0,1.49-.61l.36.49a2.62,2.62,0,0,1-1.91.74,2.54,2.54,0,0,1-.08-5.07Zm-1.59,2.23h3.16a1.56,1.56,0,0,0-1.58-1.61A1.61,1.61,0,0,0,486.64,138.23Z"/><path d="M491.86,136.12h.75v.78a2.05,2.05,0,0,1,1.61-.88v.77a1.32,1.32,0,0,0-.3,0,1.77,1.77,0,0,0-1.31.77V141h-.75Z"/><path d="M495.23,139.77a2.19,2.19,0,0,0,1.59.69c.73,0,1.13-.33,1.13-.8s-.59-.7-1.23-.86c-.82-.19-1.75-.41-1.75-1.41,0-.75.65-1.39,1.8-1.39a2.44,2.44,0,0,1,1.78.7l-.35.52a1.86,1.86,0,0,0-1.43-.61c-.66,0-1.07.3-1.07.73s.55.62,1.18.77c.83.19,1.8.43,1.8,1.5,0,.81-.65,1.46-1.9,1.46a2.56,2.56,0,0,1-1.94-.76Z"/><path d="M538.83,128.47h-3.37l-.59,1.48H534l2.67-6.66h1l2.69,6.66h-.92Zm-3.13-.74h2.88L537.14,124Z"/><path d="M544.42,129.27a2.36,2.36,0,0,1-1.72.8,1.36,1.36,0,0,1-1.53-1.54v-3.41h.75v3.18c0,.85.42,1.1,1.07,1.1a1.85,1.85,0,0,0,1.43-.73v-3.55h.75V130h-.75Z"/><path d="M546.93,128.94v-3.16h-.8v-.66h.8V123.8h.74v1.32h1v.66h-1v3c0,.36.17.62.49.62a.72.72,0,0,0,.51-.2l.22.56a1.23,1.23,0,0,1-.9.31A1,1,0,0,1,546.93,128.94Z"/><path d="M553.08,126.77c0-.85-.44-1.1-1.09-1.1a1.9,1.9,0,0,0-1.43.75V130h-.74v-6.66h.74v2.53a2.4,2.4,0,0,1,1.73-.82,1.36,1.36,0,0,1,1.54,1.54V130h-.75Z"/><path d="M555.26,130.91a1.48,1.48,0,0,0,.64-.93l-.13,0a.48.48,0,0,1-.48-.51.54.54,0,0,1,.53-.54.68.68,0,0,1,.63.76,1.93,1.93,0,0,1-.82,1.51Z"/><path d="M564.74,128.47h-3.38l-.58,1.48h-.92l2.67-6.66h1l2.69,6.66h-.92Zm-3.14-.74h2.89L563.05,124Z"/><path d="M567.2,131.79v-6.67H568v.72a2,2,0,0,1,1.62-.84c1.27,0,2.15,1,2.15,2.53s-.88,2.54-2.15,2.54a2,2,0,0,1-1.62-.85v2.57Zm2.18-6.12a1.75,1.75,0,0,0-1.43.77v2.18a1.76,1.76,0,0,0,1.43.78c1,0,1.55-.8,1.55-1.87S570.35,125.67,569.38,125.67Z"/><path d="M573,131.79v-6.67h.75v.72a2,2,0,0,1,1.63-.84c1.27,0,2.15,1,2.15,2.53s-.88,2.54-2.15,2.54a2,2,0,0,1-1.63-.85v2.57Zm2.19-6.12a1.79,1.79,0,0,0-1.44.77v2.18a1.79,1.79,0,0,0,1.44.78c1,0,1.55-.8,1.55-1.87S576.19,125.67,575.22,125.67Z"/><path d="M581.67,128.38a2.82,2.82,0,0,0,2.1,1c1.19,0,1.57-.64,1.57-1.15,0-.8-.81-1-1.69-1.26-1.07-.28-2.25-.58-2.25-1.89,0-1.1,1-1.85,2.28-1.85a3.14,3.14,0,0,1,2.37.93l-.5.61a2.55,2.55,0,0,0-1.93-.8c-.8,0-1.37.43-1.37,1.06s.77.87,1.62,1.1c1.09.29,2.33.63,2.33,2,0,1-.66,2-2.46,2a3.28,3.28,0,0,1-2.55-1.06Z"/><path d="M589.61,125a2.35,2.35,0,0,1,2.32,2.59v.19H588a1.69,1.69,0,0,0,1.73,1.67,2.11,2.11,0,0,0,1.49-.61l.36.49a2.62,2.62,0,0,1-1.92.74,2.54,2.54,0,0,1-.08-5.07ZM588,127.23h3.16a1.57,1.57,0,0,0-1.59-1.61A1.6,1.6,0,0,0,588,127.23Z"/><path d="M593.25,125.12H594v.78a2.05,2.05,0,0,1,1.61-.88v.77a1.32,1.32,0,0,0-.3,0,1.77,1.77,0,0,0-1.31.77V130h-.74Z"/><path d="M595.93,125.12h.81l1.6,4,1.6-4h.82l-2,4.83h-.82Z"/><path d="M603.74,125a2.35,2.35,0,0,1,2.32,2.59v.19h-3.91a1.7,1.7,0,0,0,1.74,1.67,2.11,2.11,0,0,0,1.49-.61l.36.49a2.62,2.62,0,0,1-1.92.74,2.54,2.54,0,0,1-.08-5.07Zm-1.59,2.23h3.17a1.57,1.57,0,0,0-1.59-1.61A1.61,1.61,0,0,0,602.15,127.23Z"/><path d="M607.37,125.12h.75v.78a2.05,2.05,0,0,1,1.61-.88v.77a1.32,1.32,0,0,0-.3,0,1.77,1.77,0,0,0-1.31.77V130h-.75Z"/><path d="M610.74,128.77a2.19,2.19,0,0,0,1.59.69c.74,0,1.14-.33,1.14-.8s-.59-.7-1.24-.86c-.82-.19-1.75-.41-1.75-1.41,0-.75.65-1.39,1.8-1.39a2.44,2.44,0,0,1,1.79.7l-.35.52a1.88,1.88,0,0,0-1.44-.61c-.66,0-1.07.3-1.07.73s.55.62,1.18.77c.84.19,1.81.43,1.81,1.5,0,.81-.65,1.46-1.9,1.46a2.57,2.57,0,0,1-1.95-.76Z"/><path d="M615.34,130.91A1.49,1.49,0,0,0,616,130l-.14,0a.48.48,0,0,1-.48-.51.54.54,0,0,1,.53-.54.68.68,0,0,1,.63.76,1.93,1.93,0,0,1-.82,1.51Z"/><path d="M544.71,134.29h4.36V135h-3.54v2.15H549v.74h-3.47v3h-.82Z"/><path d="M550.28,136.12H551v.78a2,2,0,0,1,1.6-.88v.77a1.32,1.32,0,0,0-.3,0,1.75,1.75,0,0,0-1.3.77V141h-.75Z"/><path d="M556.69,140.4a2.09,2.09,0,0,1-1.6.67,1.61,1.61,0,0,1-1.68-1.6,1.58,1.58,0,0,1,1.68-1.59,2,2,0,0,1,1.6.66v-.87c0-.65-.52-1-1.22-1a1.88,1.88,0,0,0-1.47.67l-.35-.52a2.51,2.51,0,0,1,1.92-.8c1,0,1.87.46,1.87,1.63V141h-.75Zm0-1.38a1.62,1.62,0,0,0-1.33-.6,1.06,1.06,0,1,0,0,2.11,1.62,1.62,0,0,0,1.33-.6Z"/><path d="M562.3,140.27a2.36,2.36,0,0,1-1.72.8,1.35,1.35,0,0,1-1.53-1.54v-3.41h.74v3.18c0,.85.43,1.1,1.08,1.1a1.85,1.85,0,0,0,1.43-.73v-3.55h.75V141h-.75Z"/><path d="M568.15,140.23a2,2,0,0,1-1.63.84c-1.26,0-2.14-1-2.14-2.53s.87-2.54,2.14-2.54a2,2,0,0,1,1.63.85v-2.56h.75V141h-.75Zm0-2.78a1.81,1.81,0,0,0-1.45-.78c-1,0-1.55.8-1.55,1.87s.58,1.86,1.55,1.86a1.8,1.8,0,0,0,1.45-.76Z"/><path d="M573.31,139.38a2.78,2.78,0,0,0,2.09,1c1.19,0,1.57-.64,1.57-1.15,0-.8-.81-1-1.69-1.26-1.07-.28-2.25-.58-2.25-1.89,0-1.1,1-1.85,2.28-1.85a3.14,3.14,0,0,1,2.37.93l-.5.61a2.55,2.55,0,0,0-1.93-.8c-.8,0-1.37.43-1.37,1.06s.77.87,1.62,1.1c1.09.29,2.33.63,2.33,2,0,1-.66,2-2.46,2a3.28,3.28,0,0,1-2.55-1.06Z"/><path d="M579.34,142.24a.69.69,0,0,0,.72-.51l.32-.73-2-4.88h.8l1.61,4,1.6-4h.82l-2.42,5.81a1.44,1.44,0,0,1-1.42,1,2.42,2.42,0,0,1-.54-.07l.12-.68A1.14,1.14,0,0,0,579.34,142.24Z"/><path d="M584.06,139.77a2.16,2.16,0,0,0,1.58.69c.74,0,1.14-.33,1.14-.8s-.59-.7-1.24-.86c-.81-.19-1.74-.41-1.74-1.41,0-.75.65-1.39,1.79-1.39a2.44,2.44,0,0,1,1.79.7l-.35.52a1.88,1.88,0,0,0-1.44-.61c-.65,0-1.06.3-1.06.73s.54.62,1.17.77c.84.19,1.81.43,1.81,1.5,0,.81-.65,1.46-1.9,1.46a2.53,2.53,0,0,1-1.94-.76Z"/><path d="M589,139.94v-3.16h-.8v-.66h.8V134.8h.75v1.32h1v.66h-1v3c0,.36.16.62.49.62a.72.72,0,0,0,.51-.2l.21.56a1.2,1.2,0,0,1-.89.31A1,1,0,0,1,589,139.94Z"/><path d="M594,136a2.35,2.35,0,0,1,2.32,2.59v.19h-3.9a1.69,1.69,0,0,0,1.73,1.67,2.11,2.11,0,0,0,1.49-.61l.36.49a2.62,2.62,0,0,1-1.92.74A2.54,2.54,0,0,1,594,136Zm-1.58,2.23h3.16a1.57,1.57,0,0,0-1.59-1.61A1.6,1.6,0,0,0,592.39,138.23Z"/><path d="M603.43,137.67c0-.61-.27-1-.89-1a1.69,1.69,0,0,0-1.28.74V141h-.75v-3.28c0-.61-.26-1-.89-1a1.69,1.69,0,0,0-1.27.75V141h-.74v-4.83h.74v.7a2.09,2.09,0,0,1,1.56-.82,1.24,1.24,0,0,1,1.3.9,2,2,0,0,1,1.62-.9c.88,0,1.35.49,1.35,1.46V141h-.75Z"/><path d="M605.76,139.77a2.16,2.16,0,0,0,1.58.69c.74,0,1.14-.33,1.14-.8s-.59-.7-1.24-.86c-.81-.19-1.74-.41-1.74-1.41,0-.75.65-1.39,1.79-1.39a2.44,2.44,0,0,1,1.79.7l-.35.52a1.88,1.88,0,0,0-1.44-.61c-.66,0-1.06.3-1.06.73s.55.62,1.17.77c.84.19,1.81.43,1.81,1.5,0,.81-.65,1.46-1.9,1.46a2.56,2.56,0,0,1-1.94-.76Z"/><g id="security-fingerprint"><g id="eaa1140b-9aa0-4bb1-a209-2474de7568fb"><path d="M539.93,108.88H540a.49.49,0,0,0,.49-.43,48.6,48.6,0,0,0,.08-10.58.49.49,0,0,0-.54-.45.5.5,0,0,0-.46.54,47.84,47.84,0,0,1-.07,10.36.5.5,0,0,0,.43.56Z"/><path d="M562.1,106.54h0a.5.5,0,0,0,.5-.48,78.08,78.08,0,0,0-1-15.65.5.5,0,0,0-.59-.39.49.49,0,0,0-.39.55,77.55,77.55,0,0,1,1,15.44.51.51,0,0,0,.48.53Z"/><path d="M550.19,79.83a11.7,11.7,0,0,0-2.29.23,11.41,11.41,0,0,0-7.25,4.88A11.25,11.25,0,0,0,539,93.46s.09.45.2,1.17a.51.51,0,0,0,.5.43h.07a.51.51,0,0,0,.42-.57c-.11-.75-.2-1.19-.2-1.21a10.26,10.26,0,0,1,1.53-7.77,10.44,10.44,0,0,1,18.39,1.89.5.5,0,0,0,.92-.37A11.53,11.53,0,0,0,550.19,79.83Z"/><path d="M537.71,83.69a.49.49,0,0,0,.69-.14h0a14.08,14.08,0,0,1,19.48-4l.52.35a.48.48,0,0,0,.69-.11.51.51,0,0,0-.11-.7,15,15,0,0,0-8.79-2.85,15.24,15.24,0,0,0-3,.3,15,15,0,0,0-9.6,6.5.5.5,0,0,0,.13.69Z"/><path d="M564,88.4a74.56,74.56,0,0,1,1.13,8.8.49.49,0,0,0,.5.46h0a.49.49,0,0,0,.47-.53h0A76.5,76.5,0,0,0,565,88.2a15.06,15.06,0,0,0-3.37-6.79.5.5,0,0,0-.71-.07.5.5,0,0,0-.07.7l0,0A14,14,0,0,1,564,88.4Z"/><path d="M536.18,103.16a.5.5,0,0,0,.5.5.5.5,0,0,0,.5-.5,55.67,55.67,0,0,0-.8-9.2,13.78,13.78,0,0,1,.55-7.47.5.5,0,0,0-.28-.65.49.49,0,0,0-.65.27v0a14.77,14.77,0,0,0-.59,8A54.45,54.45,0,0,1,536.18,103.16Z"/><path d="M545.16,86a.5.5,0,0,0-.71,0h0a7.77,7.77,0,0,0-1.9,6.79c0,.1,1.94,10,.16,18.37a.5.5,0,0,0,.39.59l.1,0a.5.5,0,0,0,.49-.4c1.82-8.54-.08-18.37-.16-18.78a6.8,6.8,0,0,1,1.66-5.91.49.49,0,0,0,0-.7Z"/><path d="M558,111.06h.06a.48.48,0,0,0,.5-.43,60.18,60.18,0,0,0,.47-7.59.5.5,0,0,0-.5-.5.5.5,0,0,0-.5.5,59.88,59.88,0,0,1-.46,7.46A.5.5,0,0,0,558,111.06Z"/><path d="M558,99.66a.5.5,0,0,0,.5.48h0a.5.5,0,0,0,.48-.52h0a70.81,70.81,0,0,0-1.15-10,7.74,7.74,0,0,0-9.14-6,6.66,6.66,0,0,0-1.23.36.5.5,0,0,0-.31.63.5.5,0,0,0,.64.31h0a6.78,6.78,0,0,1,8.74,3.92,6.19,6.19,0,0,1,.3,1A68.72,68.72,0,0,1,558,99.66Z"/><path d="M546.08,112.83a.5.5,0,0,0,.43.56h.07a.49.49,0,0,0,.49-.43c0-.08,0-.17,0-.25A46.51,46.51,0,0,0,548,99.56a.5.5,0,0,0-.53-.47.52.52,0,0,0-.47.53,45.59,45.59,0,0,1-.87,12.87Z"/><path d="M553.94,113.31h.1a.5.5,0,0,0,.49-.4c2.09-10.75-.19-22-.29-22.52A4.15,4.15,0,0,0,546.73,89a4.09,4.09,0,0,0-.6,3.1s.33,1.66.61,4.23a.5.5,0,0,0,1-.09v0c-.29-2.6-.63-4.3-.63-4.32a3.13,3.13,0,0,1,2.45-3.69h0a3.14,3.14,0,0,1,3.71,2.43c.1.47,2.33,11.58.28,22.13A.51.51,0,0,0,553.94,113.31Z"/><path d="M551.75,104.11a66.63,66.63,0,0,0-1.08-13,.5.5,0,0,0-1,.2,65.19,65.19,0,0,1,1.06,12.78.52.52,0,0,0,.49.51h0A.5.5,0,0,0,551.75,104.11Z"/><path d="M550.59,107.45a41.26,41.26,0,0,1-.9,5.86.5.5,0,0,0,.38.6l.11,0a.51.51,0,0,0,.49-.39,40.56,40.56,0,0,0,.91-6,.5.5,0,0,0-.45-.54.52.52,0,0,0-.55.46h0Z"/></g></g><g id="security-lock-dials"><g id="f6515f95-3e13-4b40-a90e-79b4fa473174"><path d="M585.43,113.06h26a.5.5,0,0,0,.5-.5V89.81a.5.5,0,0,0-.5-.5h-2.77v-6a10.24,10.24,0,1,0-20.47,0v6h-2.76a.5.5,0,0,0-.5.5v22.75A.5.5,0,0,0,585.43,113.06Zm3.76-29.75a9.24,9.24,0,1,1,18.47,0v6H589.19Zm-3.26,7h25v21.75h-25Z"/><path d="M593.29,102.9V93.08a.5.5,0,0,0-.5-.5.51.51,0,0,0-.5.5v9.82a2.58,2.58,0,0,0,0,5.08v1.6a.5.5,0,0,0,.5.5.5.5,0,0,0,.5-.5V108a2.58,2.58,0,0,0,0-5.08Zm-.47,4.13h-.06a1.62,1.62,0,1,1,1.65-1.59A1.63,1.63,0,0,1,592.82,107Z"/><path d="M598.93,98.79V93.08a.51.51,0,0,0-.5-.5.5.5,0,0,0-.5.5v5.71a2.58,2.58,0,0,0,0,5.08v5.71a.5.5,0,0,0,.5.5.5.5,0,0,0,.5-.5v-5.71a2.58,2.58,0,0,0,0-5.08Zm-.5,4.13a1.59,1.59,0,1,1,1.61-1.59,1.59,1.59,0,0,1-1.61,1.59Z"/><path d="M604.56,94.62V93.08a.5.5,0,0,0-.5-.5.51.51,0,0,0-.5.5v1.54a2.58,2.58,0,0,0,0,5.07v9.89a.5.5,0,0,0,.5.5.5.5,0,0,0,.5-.5V99.69a2.58,2.58,0,0,0,0-5.07Zm-.5,4.12a1.59,1.59,0,1,1,1.62-1.58A1.59,1.59,0,0,1,604.06,98.74Z"/></g></g><g id="service-shape"><g id="ef5ba710-87bc-49a4-9326-a84296319eeb"><path d="M388.25,74.44a20.5,20.5,0,1,0,20.5,20.5A20.5,20.5,0,0,0,388.25,74.44Zm0,40a19.5,19.5,0,1,1,19.5-19.5A19.5,19.5,0,0,1,388.25,114.44Z"/><path d="M380.6,94.94a2.43,2.43,0,0,0-.57-.37,5.6,5.6,0,0,0-.68-.26,4.56,4.56,0,0,1-.44-.14,2.25,2.25,0,0,1-.38-.19,1,1,0,0,1-.27-.26.6.6,0,0,1-.1-.35.77.77,0,0,1,.28-.59,1.14,1.14,0,0,1,.31-.16,1.74,1.74,0,0,1,.39-.05,1.31,1.31,0,0,1,.44.07.91.91,0,0,1,.32.2,1.1,1.1,0,0,1,.2.31,2.46,2.46,0,0,1,.09.39h.93a1.63,1.63,0,0,0-.16-.71,1.68,1.68,0,0,0-.42-.54,1.94,1.94,0,0,0-.62-.36,2.54,2.54,0,0,0-.77-.13,2.65,2.65,0,0,0-.74.11,2,2,0,0,0-.61.32,1.55,1.55,0,0,0-.43.49,1.42,1.42,0,0,0,0,1.31,1.75,1.75,0,0,0,.42.48,2.17,2.17,0,0,0,.58.36,6.42,6.42,0,0,0,.66.24,4.09,4.09,0,0,1,.46.16,1.36,1.36,0,0,1,.37.21.78.78,0,0,1,.24.27.64.64,0,0,1,.08.36.56.56,0,0,1-.08.33.72.72,0,0,1-.21.25,1,1,0,0,1-.32.15,1.74,1.74,0,0,1-.39,0,1.49,1.49,0,0,1-.47-.07,1,1,0,0,1-.36-.19.8.8,0,0,1-.25-.32,1.16,1.16,0,0,1-.12-.45h-.93a1.61,1.61,0,0,0,.09.54,1.42,1.42,0,0,0,.23.44,1.71,1.71,0,0,0,.36.35,1.73,1.73,0,0,0,.44.25,2,2,0,0,0,.49.15,1.84,1.84,0,0,0,.52,0,2.32,2.32,0,0,0,.74-.1,1.81,1.81,0,0,0,.63-.29,1.65,1.65,0,0,0,.43-.48,1.48,1.48,0,0,0,0-1.32A1.51,1.51,0,0,0,380.6,94.94Z"/><path d="M385.15,93.67a1.12,1.12,0,0,0-.47-.3,1.8,1.8,0,0,0-.6-.1,1.51,1.51,0,0,0-.7.17,1.59,1.59,0,0,0-.54.49V91.57h-.93v6h.93V94.5a1.07,1.07,0,0,1,.39-.34,1.22,1.22,0,0,1,.9-.07.65.65,0,0,1,.27.17.81.81,0,0,1,.17.28,1.52,1.52,0,0,1,.06.42v2.61h.93V95a2.51,2.51,0,0,0-.1-.77A1.48,1.48,0,0,0,385.15,93.67Z"/><path d="M390,96.6V94.72a1.51,1.51,0,0,0-.13-.63,1.39,1.39,0,0,0-.37-.46,1.71,1.71,0,0,0-.56-.27,2.69,2.69,0,0,0-.7-.09,2,2,0,0,0-.73.11,1.71,1.71,0,0,0-.55.29,1.2,1.2,0,0,0-.33.41,1,1,0,0,0-.12.48h.93a.64.64,0,0,1,.05-.23.49.49,0,0,1,.14-.18.68.68,0,0,1,.24-.12,1.13,1.13,0,0,1,.32,0,1,1,0,0,1,.64.2.66.66,0,0,1,.23.54V95h-.68a2.53,2.53,0,0,0-1.45.36,1.2,1.2,0,0,0-.51,1,1.18,1.18,0,0,0,.41.9,1.33,1.33,0,0,0,.46.27,2.05,2.05,0,0,0,.61.1,2.33,2.33,0,0,0,.37,0,1.73,1.73,0,0,0,.32-.11,1.58,1.58,0,0,0,.5-.34c0,.08,0,.15,0,.22a1.07,1.07,0,0,0,.07.19h1v-.07a1.42,1.42,0,0,1-.12-.4A2.92,2.92,0,0,1,390,96.6Zm-.93-.22a.9.9,0,0,1-.15.19,1.12,1.12,0,0,1-.22.16.85.85,0,0,1-.28.12,1.33,1.33,0,0,1-.34.05,1.26,1.26,0,0,1-.33-.05.71.71,0,0,1-.22-.13.43.43,0,0,1-.13-.19.64.64,0,0,1,0-.24.57.57,0,0,1,.27-.52,1.55,1.55,0,0,1,.84-.19h.6Z"/><path d="M394.4,93.86a1.44,1.44,0,0,0-1.23-.59,1.43,1.43,0,0,0-.65.13,1.38,1.38,0,0,0-.49.37l0-.42h-.85V99.2h.93v-2a1.29,1.29,0,0,0,.47.33,1.41,1.41,0,0,0,.64.12,1.56,1.56,0,0,0,.7-.16,1.6,1.6,0,0,0,.52-.45,2.49,2.49,0,0,0,.32-.68,3.56,3.56,0,0,0,.11-.86v-.08a3.79,3.79,0,0,0-.11-.88A2.23,2.23,0,0,0,394.4,93.86Zm-.5,1.64a2.48,2.48,0,0,1-.06.54,1.44,1.44,0,0,1-.17.45,1,1,0,0,1-.31.3.85.85,0,0,1-.44.11.9.9,0,0,1-.53-.14,1.07,1.07,0,0,1-.32-.35V94.52a1.07,1.07,0,0,1,.32-.35,1,1,0,0,1,.52-.14,1,1,0,0,1,.44.11.89.89,0,0,1,.31.3,1.28,1.28,0,0,1,.18.44,2.48,2.48,0,0,1,.06.54Z"/><path d="M399,93.86a1.66,1.66,0,0,0-.58-.44,2.09,2.09,0,0,0-.82-.15,2,2,0,0,0-.76.15,1.94,1.94,0,0,0-.63.44,2.06,2.06,0,0,0-.43.69,2.28,2.28,0,0,0-.16.9v.16a2,2,0,0,0,.15.81,1.85,1.85,0,0,0,.43.64,1.8,1.8,0,0,0,.66.43,2.25,2.25,0,0,0,.85.16,2.32,2.32,0,0,0,.59-.07,2.15,2.15,0,0,0,.48-.18,1.92,1.92,0,0,0,.38-.25,2.55,2.55,0,0,0,.26-.3l-.51-.47a1.3,1.3,0,0,1-.49.38,1.34,1.34,0,0,1-.65.14,1.09,1.09,0,0,1-.47-.08,1.15,1.15,0,0,1-.37-.25,1.19,1.19,0,0,1-.26-.36,1.73,1.73,0,0,1-.12-.46h2.93v-.39a2.38,2.38,0,0,0-.12-.84A1.71,1.71,0,0,0,399,93.86Zm-.44,1.2h-2a1.64,1.64,0,0,1,.13-.43,1,1,0,0,1,.23-.33.69.69,0,0,1,.3-.2.86.86,0,0,1,.36-.07.9.9,0,0,1,.42.08.77.77,0,0,1,.29.22.87.87,0,0,1,.18.31,1.44,1.44,0,0,1,.07.36Z"/></g></g></g></svg>