<svg xmlns="http://www.w3.org/2000/svg" viewBox="0 0 989.15672 408.42328"><defs><style>.cls-1,.cls-14,.cls-3{fill:#fff;}.cls-10,.cls-12,.cls-15,.cls-2,.cls-4,.cls-7,.cls-8,.cls-9{fill:none;}.cls-15,.cls-2,.cls-3{stroke:#38313d;}.cls-10,.cls-14,.cls-15,.cls-2,.cls-4,.cls-7,.cls-8,.cls-9{stroke-linecap:round;stroke-linejoin:round;}.cls-12,.cls-3{stroke-miterlimit:10;}.cls-12,.cls-14,.cls-4{stroke:#e4002b;}.cls-13,.cls-5{fill:#38313d;}.cls-6{fill:#109cd3;}.cls-10,.cls-7,.cls-8,.cls-9{stroke:#109cd3;}.cls-8{stroke-dasharray:6.11 3.05;}.cls-9{stroke-dasharray:6.31 3.16;}.cls-10{stroke-dasharray:6 3;}.cls-11{fill:#e4002b;}.cls-13{isolation:isolate;font-size:33px;font-family:ProximaNova-Light, Proxima Nova;font-weight:300;letter-spacing:-0.00903em;}.cls-15{stroke-dasharray:6 6;}</style></defs><title>Asset 1</title><g id="Layer_2" data-name="Layer 2"><g id="Layer_1-2" data-name="Layer 1"><rect class="cls-1" width="989.15672" height="408.42328" rx="4"/><g id="Hybrid_Deployment_with_Automated_Signaling" data-name="Hybrid Deployment with Automated Signaling"><rect class="cls-1" x="432.47187" y="22.93324" width="532.94" height="360.98001" rx="4"/><rect class="cls-2" x="432.47187" y="22.93324" width="532.94" height="360.98001" rx="4"/><circle class="cls-3" cx="529.15187" cy="218.67325" r="55.02001"/><circle class="cls-3" cx="225.23186" cy="77.95324" r="55.02"/><line id="_Path_" data-name=" Path " class="cls-4" x1="234.69185" y1="177.01324" x2="234.69185" y2="144.83324"/><polyline id="_Path_2" data-name=" Path 2" class="cls-4" points="240.692 150.523 234.692 144.523 228.692 150.523"/><polyline id="_Path_3" data-name=" Path 3" class="cls-4" points="234.692 247.813 234.692 311.443 105.202 311.443"/><path class="cls-5" d="M35.40186,112.78324h1.41v10.08h5.27v1.26h-6.68Z"/><path class="cls-5" d="M47.19186,115.70324c2.48,0,3.94,1.94,3.94,4.41v.32h-6.64a2.89,2.89,0,0,0,2.9375,2.84171l.0625-.00171a3.61,3.61,0,0,0,2.53-1l.61.83a4.43,4.43,0,0,1-3.26,1.26,4.32,4.32,0,0,1-.14-8.62Zm-2.7,3.79h5.39a2.67,2.67,0,0,0-2.609-2.72963q-.05049-.00114-.101-.00037A2.74,2.74,0,0,0,44.49186,119.49324Z"/><path class="cls-5" d="M53.82186,125.27324a3.14,3.14,0,0,0,2.67,1.16,2.35,2.35,0,0,0,2.63-2.47v-1.17a3.42,3.42,0,0,1-2.72,1.43c-2.14,0-3.65-1.6-3.65-4.25s1.49-4.27,3.65-4.27a3.39,3.39,0,0,1,2.75,1.45v-1.24h1.25v8c0,2.72-1.9,3.57-3.91,3.57a4.22,4.22,0,0,1-3.32-1.22Zm5.3-7.1a3,3,0,0,0-2.44-1.33c-1.65,0-2.64,1.31-2.64,3.13s1,3.13,2.64,3.13a3,3,0,0,0,2.44-1.34Z"/><path class="cls-5" d="M62.73186,113.73325a.86.86,0,0,1,.85-.86.88.88,0,0,1,.87.86.86.86,0,0,1-.86989.85h-.00011A.85.85,0,0,1,62.73186,113.73325Zm.22,2.18h1.27v8.21h-1.27Z"/><path class="cls-5" d="M67.03186,122.43324v-5.4h-1.36v-1.12h1.36v-2.25h1.28v2.25h1.66v1.12h-1.66v5.1c0,.61.27,1,.83,1a1.22,1.22,0,0,0,.87-.34l.37,1a2.06,2.06,0,0,1-1.53.53,1.68,1.68,0,0,1-1.82-1.89Z"/><path class="cls-5" d="M71.55186,113.73325a.86.86,0,1,1,.86.86A.86.86,0,0,1,71.55186,113.73325Zm.22,2.18h1.28v8.21h-1.28Z"/><path class="cls-5" d="M85.51186,118.54324c0-1-.46-1.7-1.51-1.7a2.89,2.89,0,0,0-2.18,1.26v6h-1.28v-5.56c0-1-.44-1.7-1.51-1.7a2.9,2.9,0,0,0-2.16,1.28v6h-1.27v-8.21h1.27v1.19a3.55,3.55,0,0,1,2.65-1.4,2.1,2.1,0,0,1,2.21,1.53,3.49,3.49,0,0,1,2.76-1.53c1.49,0,2.29.84,2.29,2.49v5.93h-1.27Z"/><path class="cls-5" d="M94.47186,123.18324a3.55,3.55,0,0,1-2.72,1.14,2.73,2.73,0,0,1-2.86642-2.58639q-.00344-.06677-.00359-.13361a2.68,2.68,0,0,1,2.65312-2.70662q.10854-.00108.21689.00662a3.46,3.46,0,0,1,2.72,1.12v-1.48c0-1.1-.89-1.73-2.08-1.73a3.26,3.26,0,0,0-2.51,1.14l-.6-.89a4.34,4.34,0,0,1,3.28-1.36c1.74,0,3.18.79,3.18,2.77v5.65h-1.27Zm0-2.34a2.76,2.76,0,0,0-2.26-1,1.8,1.8,0,1,0,0,3.58,2.76,2.76,0,0,0,2.26-1Z"/><path class="cls-5" d="M98.55186,122.43324v-5.4h-1.36v-1.12h1.36v-2.25h1.27v2.25h1.67v1.12h-1.67v5.1c0,.61.28,1,.84,1a1.21,1.21,0,0,0,.86-.34l.38,1a2.08,2.08,0,0,1-1.53.53,1.68,1.68,0,0,1-1.82-1.89Z"/><path class="cls-5" d="M106.86186,115.70324c2.48,0,3.94,1.94,3.94,4.41v.32h-6.64a2.89,2.89,0,0,0,2.9375,2.84171l.0625-.00171a3.61,3.61,0,0,0,2.53-1l.61.83a4.43,4.43,0,0,1-3.26,1.26,4.32,4.32,0,0,1-.14-8.62Zm-2.7,3.79h5.39a2.67,2.67,0,0,0-2.609-2.72963q-.05048-.00114-.101-.00037A2.74,2.74,0,0,0,104.16186,119.49324Z"/><path class="cls-5" d="M52.69186,129.78324h1.41v6.9c0,2.08,1.12,3.38,3.21,3.38s3.22-1.3,3.22-3.38v-6.9h1.41v6.92c0,2.82-1.55,4.62-4.63,4.62s-4.62-1.82-4.62-4.6Z"/><path class="cls-5" d="M64.49186,139.11324a3.70993,3.70993,0,0,0,2.7,1.18c1.26,0,1.94-.57,1.94-1.36s-1-1.19-2.11-1.47c-1.39-.32-3-.69-3-2.39,0-1.28,1.1-2.37,3.06-2.37a4.16,4.16,0,0,1,3,1.19l-.6.89a3.17,3.17,0,0,0-2.44-1c-1.13,0-1.82.51-1.82,1.24s.93,1.06,2,1.31c1.43.32,3.08.73,3.08,2.55,0,1.38-1.11,2.48-3.23,2.48a4.37,4.37,0,0,1-3.31-1.29Z"/><path class="cls-5" d="M76.01186,132.70324c2.49,0,4,1.94,4,4.41v.32h-6.7a2.89,2.89,0,0,0,2.93749,2.84171l.06251-.00171a3.6,3.6,0,0,0,2.53-1l.61.83a4.43,4.43,0,0,1-3.26,1.26,4.32,4.32,0,0,1-.14-8.62Zm-2.7,3.79h5.39a2.66,2.66,0,0,0-2.58876-2.72938q-.0556-.00149-.11124-.00062A2.74,2.74,0,0,0,73.31186,136.49324Z"/><path class="cls-5" d="M82.02186,132.91325h1.27v1.32a3.51,3.51,0,0,1,2.74-1.49v1.31a1.99991,1.99991,0,0,0-.51-.05,3,3,0,0,0-2.23,1.3v5.82h-1.27Z"/><path class="cls-5" d="M87.57186,139.11324a3.75,3.75,0,0,0,2.71,1.18c1.26,0,1.93-.57,1.93-1.36s-1-1.19-2.1-1.47c-1.4-.32-3-.69-3-2.39,0-1.28,1.11-2.37,3.06-2.37a4.19,4.19,0,0,1,3,1.19l-.6.89a3.17,3.17,0,0,0-2.45-1c-1.12,0-1.82.51-1.82,1.24s.94,1.06,2,1.31c1.43.32,3.08.73,3.08,2.55,0,1.38-1.11,2.48-3.23,2.48a4.38,4.38,0,0,1-3.32-1.29Z"/><path class="cls-5" d="M482.18186,283.63326h3.88a5.67,5.67,0,0,1,.00891,11.34h-3.88891Zm3.88,10.08a4.41,4.41,0,1,0,0-8.82h-2.47v8.82Z"/><path class="cls-5" d="M494.08185,283.63326h3.88a5.67,5.67,0,0,1,.00891,11.34h-3.88892Zm3.88,10.08a4.41,4.41,0,0,0,0-8.82h-2.47v8.82Z"/><path class="cls-5" d="M505.46186,290.85326a4.07,4.07,0,1,1,4.06,4.32,4,4,0,0,1-4.0722-3.92645Q505.446,291.04983,505.46186,290.85326Zm6.78,0a2.75587,2.75587,0,1,0-5.47259-.17722q.00353.08875.0126.17722c0,1.69,1,3.18,2.74,3.18S512.24185,292.54323,512.24185,290.85326Z"/><path class="cls-5" d="M515.86185,292.30324a4.80005,4.80005,0,0,0,3.57,1.61c2,0,2.67-1.08,2.67-2,0-1.36-1.38-1.74-2.87-2.14-1.82-.48-3.85-1-3.85-3.22,0-1.87,1.67-3.14,3.9-3.14a5.32,5.32,0,0,1,4,1.58l-.84,1a4.33,4.33,0,0,0-3.29-1.36c-1.36,0-2.32.73-2.32,1.8s1.3,1.48,2.75,1.87c1.85.49,4,1.07,4,3.45,0,1.65-1.12,3.33-4.18,3.33a5.62,5.62,0,0,1-4.35-1.8Z"/><path class="cls-5" d="M538.09186,289.77324h-6.63v5.2h-1.41v-11.34h1.41v4.88h6.63v-4.88h1.42v11.34h-1.42Z"/><path class="cls-5" d="M542.55188,297.16325a1.18,1.18,0,0,0,1.22-.87l.55-1.24-3.44-8.29h1.38l2.74,6.73,2.72-6.73h1.39l-4.11,9.87a2.46,2.46,0,0,1-2.42,1.67,3.9987,3.9987,0,0,1-.93-.12l.2-1.16A1.86,1.86,0,0,0,542.55188,297.16325Z"/><path class="cls-5" d="M550.40186,283.63326h1.27v4.37a3.43,3.43,0,0,1,2.77-1.45c2.14,0,3.66,1.7,3.66,4.32s-1.52,4.3-3.66,4.3a3.43989,3.43989,0,0,1-2.77-1.43v1.23h-1.27Zm3.72,10.4c1.67,0,2.65-1.34,2.65-3.16s-1-3.18-2.65-3.18a3,3,0,0,0-2.45,1.33v3.72a3,3,0,0,0,2.49,1.29Z"/><path class="cls-5" d="M560.21186,286.76323h1.28v1.32a3.49,3.49,0,0,1,2.73-1.49v1.31a1.87985,1.87985,0,0,0-.51-.06,3,3,0,0,0-2.22,1.31v5.82h-1.28Z"/><path class="cls-5" d="M565.60187,284.58324a.86.86,0,0,1,1.72-.01v.01a.86.86,0,0,1-1.72,0Zm.22,2.18h1.28v8.21h-1.28Z"/><path class="cls-5" d="M575.60187,293.74324a3.46013,3.46013,0,0,1-2.77,1.43c-2.15,0-3.66-1.63-3.66-4.3s1.5-4.32,3.66-4.32a3.45994,3.45994,0,0,1,2.77,1.45v-4.37h1.27v11.34h-1.27Zm0-4.72a3.08011,3.08011,0,0,0-2.47-1.33c-1.65,0-2.63,1.36-2.63,3.18s1,3.16,2.63,3.16a3.07,3.07,0,0,0,2.47-1.29Z"/><path class="cls-5" d="M495.74185,300.63326h3.88a5.67,5.67,0,0,1,.00891,11.34h-3.88892Zm3.88,10.08a4.41,4.41,0,0,0,0-8.82h-2.47v8.82Z"/><path class="cls-5" d="M511.16187,303.55324c2.48,0,3.94,1.94,3.94,4.41v.32h-6.64a2.89,2.89,0,0,0,2.939,2.84021l.01105-.00021a3.62015,3.62015,0,0,0,2.54-1l.61.83a4.46007,4.46007,0,0,1-3.27,1.26,4.32,4.32,0,0,1-.13-8.62Zm-2.7,3.79h5.38a2.65,2.65,0,0,0-2.56827-2.72928q-.06587-.002-.13174-.00073A2.73,2.73,0,0,0,508.46186,307.34325Z"/><path class="cls-5" d="M517.52185,304.88326h-1.36v-1.12h1.36v-.63c0-1.7.95-2.67,2.38-2.67a2.33006,2.33006,0,0,1,1.24.29l-.33.95a1.39,1.39,0,0,0-.73-.19c-.83,0-1.29.58-1.29,1.62v.63h1.67v1.12h-1.67v7.09h-1.27Z"/><path class="cls-5" d="M525.54187,303.55324c2.48,0,3.94,1.94,3.94,4.41v.32h-6.64a2.89,2.89,0,0,0,2.939,2.84021l.011-.00021a3.62012,3.62012,0,0,0,2.54-1l.61.83a4.45,4.45,0,0,1-3.26,1.26,4.31056,4.31056,0,1,1-.14-8.62Zm-2.7,3.79h5.39a2.67,2.67,0,0,0-2.609-2.72965q-.05049-.00114-.101-.00036A2.74,2.74,0,0,0,522.84186,307.34325Z"/><path class="cls-5" d="M537.08185,306.60326c0-1.45-.73-1.91-1.83-1.91a3.13006,3.13006,0,0,0-2.43,1.28v6h-1.28v-8.21h1.28v1.19a4.06,4.06,0,0,1,2.92-1.4,2.33,2.33,0,0,1,2.62,2.65v5.77h-1.28Z"/><path class="cls-5" d="M546.86188,310.74324a3.43989,3.43989,0,0,1-2.77,1.43c-2.15,0-3.66-1.63-3.66-4.3s1.5-4.32,3.66-4.32a3.45994,3.45994,0,0,1,2.77,1.45v-4.37h1.27v11.34h-1.27Zm0-4.72a3.08011,3.08011,0,0,0-2.47-1.33c-1.65,0-2.63,1.36-2.63,3.18s1,3.16,2.63,3.16a3.07,3.07,0,0,0,2.47-1.29Z"/><path class="cls-5" d="M554.25183,303.55324c2.48,0,3.95,1.94,3.95,4.41v.32h-6.65a2.89,2.89,0,0,0,2.9375,2.8417l.0625-.0017a3.61008,3.61008,0,0,0,2.53-1l.61.83a4.42994,4.42994,0,0,1-3.26,1.26,4.32,4.32,0,0,1-.14-8.62Zm-2.7,3.79h5.39a2.66,2.66,0,0,0-2.58875-2.7294q-.05566-.00147-.11127-.00061a2.74,2.74,0,0,0-2.68994,2.73Z"/><path class="cls-5" d="M560.25183,303.76323h1.28v1.32a3.49,3.49,0,0,1,2.73-1.49v1.31a1.87976,1.87976,0,0,0-.51-.06,3,3,0,0,0-2.22,1.31v5.82h-1.28Z"/><path class="cls-5" d="M448.08185,34.95324h3.88a5.51,5.51,0,0,1,5.80426,5.19912q.0129.23521.00573.47088a5.49,5.49,0,0,1-5.30755,5.66657q-.25122.00822-.50244-.00657h-3.88Zm3.88,10.08a4.18,4.18,0,0,0,4.35281-3.99972q.00866-.20508-.00281-.41028a4.15,4.15,0,0,0-4.35-4.42h-2.47v8.83Z"/><path class="cls-5" d="M465.07187,45.35324a3.55,3.55,0,0,1-2.67,1.14,2.74,2.74,0,0,1-2.87647-2.59636q-.00315-.06177-.00354-.12364a2.69,2.69,0,0,1,2.66315-2.71659q.1085-.00108.21686.00659a3.44,3.44,0,0,1,2.72,1.13v-1.48c0-1.11-.89-1.74-2.08-1.74a3.26,3.26,0,0,0-2.51,1.14l-.6-.88a4.29,4.29,0,0,1,3.28-1.36c1.74,0,3.18.78,3.18,2.77v5.64h-1.27Zm0-2.35a2.76,2.76,0,0,0-2.27-1,1.81,1.81,0,1,0,0,3.59,2.76,2.76,0,0,0,2.27-1Z"/><path class="cls-5" d="M469.15186,44.57324v-5.37h-1.36v-1.13h1.36v-2.24h1.25v2.24h1.67v1.13h-1.67v5.09c0,.62.27,1.06.83,1.06a1.22,1.22,0,0,0,.87-.34l.38,1a2.1,2.1,0,0,1-1.54.53,1.68,1.68,0,0,1-1.79-1.97Z"/><path class="cls-5" d="M479.02185,45.35324a3.54,3.54,0,0,1-2.72,1.14A2.74,2.74,0,0,1,473.4065,43.918q-.00426-.07229-.00464-.14472a2.69,2.69,0,0,1,2.66385-2.71591q.10312-.001.20614.00591a3.42,3.42,0,0,1,2.72,1.13v-1.48c0-1.11-.88-1.74-2.07-1.74a3.27006,3.27006,0,0,0-2.52,1.14l-.59-.88a4.29,4.29,0,0,1,3.28-1.36c1.73,0,3.18.78,3.18,2.77v5.64h-1.28Zm0-2.35a2.75,2.75,0,0,0-2.26-1,1.81,1.81,0,1,0,0,3.59,2.75,2.75,0,0,0,2.26-1Z"/><path class="cls-5" d="M486.83185,40.62324a5.65,5.65,0,0,1,5.43445-5.85762q.17271-.00648.34555-.00238a5.11,5.11,0,0,1,4.35,2.24l-1.19.67a3.83,3.83,0,0,0-3.16-1.65,4.34,4.34,0,0,0-4.32779,4.35218q.00036.124.00778.24782a4.35,4.35,0,0,0,4.08216,4.60228q.11879.00711.23785.00772a3.81,3.81,0,0,0,3.16-1.65l1.2.66a5.13,5.13,0,0,1-4.36,2.25,5.66,5.66,0,0,1-5.78262-5.53466Q486.8256,40.79091,486.83185,40.62324Z"/><path class="cls-5" d="M502.30185,37.87324c2.48,0,3.94,1.94,3.94,4.4v.32h-6.65a2.9,2.9,0,0,0,2.95767,2.84116l.04233-.00116a3.57,3.57,0,0,0,2.53-1l.62.83a4.51,4.51,0,0,1-3.34,1.23,4.07,4.07,0,0,1-4.18607-3.95051q-.00536-.18478.00608-.36949a4.11,4.11,0,0,1,3.91552-4.29568Q502.21956,37.87375,502.30185,37.87324Zm-2.71,3.79h5.39A2.67,2.67,0,0,0,502.383,38.924q-.05053-.00134-.10111-.00075A2.75,2.75,0,0,0,499.59186,41.66324Z"/><path class="cls-5" d="M513.84186,40.91324c0-1.44-.73-1.9-1.84-1.9a3.18,3.18,0,0,0-2.43,1.27v6h-1.27v-8.21h1.27v1.19a4.08,4.08,0,0,1,2.93-1.39,2.33,2.33,0,0,1,2.61,2.65v5.76h-1.27Z"/><path class="cls-5" d="M517.92185,44.57324v-5.37h-1.36v-1.13h1.36v-2.24h1.27v2.24h1.67v1.13h-1.67v5.09c0,.62.28,1.06.84,1.06a1.21,1.21,0,0,0,.86-.34l.38,1a2.06,2.06,0,0,1-1.53.53,1.68,1.68,0,0,1-1.82-1.97Z"/><path class="cls-5" d="M526.23184,37.87324c2.48,0,3.95,1.94,3.95,4.4v.32h-6.65a2.89,2.89,0,0,0,2.9375,2.84172l.0625-.00172a3.6,3.6,0,0,0,2.53-1l.61.83a4.47,4.47,0,0,1-3.27,1.23,4.07,4.07,0,0,1-4.18607-3.95051q-.00536-.18478.00608-.36949a4.1,4.1,0,0,1,3.89419-4.296Q526.17393,37.87445,526.23184,37.87324Zm-2.7,3.79h5.39a2.67,2.67,0,0,0-2.59876-2.73939q-.05562-.00146-.11123-.00061a2.74,2.74,0,0,0-2.68,2.74Z"/><path class="cls-5" d="M532.23184,38.07324h1.28v1.36a3.47008,3.47008,0,0,1,2.73-1.5v1.31a2.44037,2.44037,0,0,0-.51-.05,3.00008,3.00008,0,0,0-2.22,1.24v5.81h-1.28Z"/><path class="cls-5" d="M680.66187,261.88324v9.14h-1.41v-11.34h1.44l6.53,9v-9h1.41v11.34h-1.36Z"/><path class="cls-5" d="M694.80188,262.61324c2.48,0,4,1.93,4,4.4v.32h-6.7a2.89,2.89,0,0,0,2.9375,2.8417l.0625-.00171a3.57,3.57,0,0,0,2.53-1l.61.84a4.46012,4.46012,0,0,1-3.26,1.25,4.31,4.31,0,0,1-.14-8.61Zm-2.7,3.82h5.39a2.66,2.66,0,0,0-2.57831-2.73927q-.06583-.002-.13172-.00073A2.74,2.74,0,0,0,692.10187,266.43324Z"/><path class="cls-5" d="M701.06183,269.30324v-5.37h-1.36v-1.12h1.36v-2.24h1.27v2.24h1.67v1.12h-1.67v5.1c0,.61.28,1.06.84,1.06a1.26007,1.26007,0,0,0,.86-.34l.38,1a2.1,2.1,0,0,1-1.53.52,1.67992,1.67992,0,0,1-1.82-1.97Z"/><path class="cls-5" d="M710.76184,264.43324l-2.14,6.6h-1.22l-2.62-8.21h1.33l2,6.54,2.16-6.54h1.09l2.16,6.54,2-6.54h1.33l-2.62,8.21h-1.27Z"/><path class="cls-5" d="M717.80188,266.91324a4.07,4.07,0,1,1,4.07,4.31,4,4,0,0,1-4.08124-3.91706Q717.78663,267.10955,717.80188,266.91324Zm6.79,0c0-1.67-1-3.16-2.72-3.16a2.884,2.884,0,0,0-2.74,3.16c0,1.67,1,3.18,2.74,3.18S724.59186,268.59325,724.59186,266.91324Z"/><path class="cls-5" d="M728.00183,262.81325h1.28v1.33a3.47,3.47,0,0,1,2.73-1.5v1.31a2.43971,2.43971,0,0,0-.51-.05,3.00009,3.00009,0,0,0-2.22,1.31v5.81h-1.28Z"/><path class="cls-5" d="M736.25183,267.33324l-1.36,1.34v2.35h-1.28v-11.34h1.28v7.5l4.31-4.37h1.62l-3.64,3.72,3.66,4.49h-1.63995Z"/><path class="cls-5" d="M661.50183,276.68324h1.41v11.34h-1.41Z"/><path class="cls-5" d="M671.05188,282.65324c0-1.45-.73-1.9-1.83-1.9a3.15,3.15,0,0,0-2.43,1.27v6h-1.28v-8.21h1.28v1.19a4.05,4.05,0,0,1,2.92-1.39,2.33,2.33,0,0,1,2.62,2.65v5.76h-1.28Z"/><path class="cls-5" d="M675.24189,280.93324h-1.36v-1.12h1.36v-.63c0-1.7.95-2.67,2.38-2.67a2.41993,2.41993,0,0,1,1.24.29l-.33.95a1.39007,1.39007,0,0,0-.73-.18c-.83,0-1.29.57-1.29,1.61v.63h1.67v1.12h-1.67v7.09h-1.27Z"/><path class="cls-5" d="M679.69184,279.81325h1.27v1.33a3.51,3.51,0,0,1,2.74-1.5v1.31a2.43944,2.43944,0,0,0-.51,0,3,3,0,0,0-2.23,1.31v5.81h-1.27Z"/><path class="cls-5" d="M690.40186,287.09325a3.57,3.57,0,0,1-2.72,1.13,2.73,2.73,0,0,1-2.8664-2.58639q-.00348-.06675-.0036-.13361a2.69,2.69,0,0,1,2.67389-2.706q.09814-.0006.19611.006a3.43,3.43,0,0,1,2.72,1.12v-1.49c0-1.11-.88-1.74-2.07-1.74a3.27,3.27,0,0,0-2.52,1.14l-.59-.88a4.29,4.29,0,0,1,3.28-1.36c1.73,0,3.18.78,3.18,2.77v5.64h-1.28Zm0-2.35a2.75,2.75,0,0,0-2.26-1,1.81,1.81,0,1,0,0,3.59,2.75,2.75,0,0,0,2.26-1Z"/><path class="cls-5" d="M694.21186,286.01323a3.71,3.71,0,0,0,2.7,1.18c1.26,0,1.94-.56,1.94-1.36s-1-1.19-2.11-1.46c-1.4-.33-3-.7-3-2.4,0-1.28,1.11-2.36,3.07-2.36a4.14,4.14,0,0,1,3,1.19l-.6.88a3.20021,3.20021,0,0,0-2.44-1c-1.13,0-1.83.51-1.83,1.24s.94,1.06,2,1.31c1.43.33,3.08.73,3.08,2.55,0,1.38-1.11,2.48-3.23,2.48a4.37006,4.37006,0,0,1-3.32-1.29Z"/><path class="cls-5" d="M702.40186,286.30324v-5.37h-1.36v-1.12h1.36v-2.24h1.27v2.24h1.73v1.12h-1.67v5.1c0,.61.28,1.06.84,1.06a1.26009,1.26009,0,0,0,.86-.34l.38.95a2.12009,2.12009,0,0,1-1.53.52,1.67993,1.67993,0,0,1-1.88-1.92Z"/><path class="cls-5" d="M707.16187,279.81325h1.24v1.33a3.47,3.47,0,0,1,2.73-1.5v1.31a2.43944,2.43944,0,0,0-.51,0,3,3,0,0,0-2.22,1.31v5.81h-1.28Z"/><path class="cls-5" d="M718.31183,286.86324a4.00006,4.00006,0,0,1-2.92,1.36,2.3101,2.3101,0,0,1-2.62-2.61v-5.8h1.28v5.41c0,1.44.73,1.87,1.83,1.87a3.12,3.12,0,0,0,2.43-1.25v-6h1.28v8.21h-1.28Z"/><path class="cls-5" d="M725.76184,279.61324a3.53994,3.53994,0,0,1,3,1.42l-.85.79a2.42994,2.42994,0,0,0-2.09-1.07,3.19,3.19,0,0,0,0,6.34,2.47,2.47,0,0,0,2.09-1.08l.85.79a3.54,3.54,0,0,1-3,1.42,4.31,4.31,0,0,1,0-8.61Z"/><path class="cls-5" d="M730.81183,286.30324v-5.37h-1.36v-1.12h1.36v-2.24h1.27v2.24h1.67v1.12h-1.67v5.1c0,.61.27,1.06.84,1.06a1.26007,1.26007,0,0,0,.86-.34l.38.95a2.13,2.13,0,0,1-1.53.52,1.68,1.68,0,0,1-1.82-1.92Z"/><path class="cls-5" d="M741.09186,286.86324a4.00008,4.00008,0,0,1-2.92,1.36,2.31007,2.31007,0,0,1-2.62-2.61v-5.8h1.28v5.41c0,1.44.73,1.87,1.83,1.87a3.11,3.11,0,0,0,2.43-1.25v-6h1.30994v8.21h-1.28Z"/><path class="cls-5" d="M744.92188,279.81325h1.27v1.33a3.51,3.51,0,0,1,2.74-1.5v1.31a2.51237,2.51237,0,0,0-.51,0,3,3,0,0,0-2.23,1.31v5.81h-1.27Z"/><path class="cls-5" d="M754.10187,279.61324c2.48,0,3.94,1.93,3.94,4.4v.32h-6.64a2.9,2.9,0,0,0,2.9577,2.84115l.0423-.00116a3.53991,3.53991,0,0,0,2.53-1l.62.84a4.48988,4.48988,0,0,1-3.27,1.25,4.31,4.31,0,0,1-.13-8.61Zm-2.7,3.82h5.39a2.65,2.65,0,0,0-2.558-2.73895q-.07095-.00243-.142-.001A2.75,2.75,0,0,0,751.40186,283.43324Z"/><path class="cls-2" d="M52.85186,187.64325h-8.08a21.77,21.77,0,0,0-21.871,21.66855q-.00078.16573.001.33145v22"/><path class="cls-2" d="M122.72186,247.64325v-18c0-12.11-9.3-22-21.69-22h-16.35a21.77,21.77,0,0,0-21.871,21.66855q-.00076.16573.001.33145v18"/><circle class="cls-2" cx="52.81186" cy="169.64325" r="18"/><circle class="cls-2" cx="92.81186" cy="189.64325" r="18"/><line id="_Path_4" data-name=" Path 4" class="cls-2" x1="278.75186" y1="217.66324" x2="459.65186" y2="217.66324"/><polyline id="_Path_5" data-name=" Path 5" class="cls-2" points="453.962 223.663 459.962 217.663 453.962 211.663"/><line id="_Path_6" data-name=" Path 6" class="cls-2" x1="137.20186" y1="217.66324" x2="177.05185" y2="217.66324"/><polyline id="_Path_7" data-name=" Path 7" class="cls-2" points="142.182 211.663 136.182 217.663 142.182 223.663"/><line id="_Path_8" data-name=" Path 8" class="cls-2" x1="598.87183" y1="217.66324" x2="840.29187" y2="217.66324"/><polyline id="_Path_9" data-name=" Path 9" class="cls-2" points="834.602 223.663 840.602 217.663 834.602 211.663"/><polyline id="_Path_10" data-name=" Path 10" class="cls-2" points="834.602 328.323 840.602 322.323 834.602 316.323"/><polyline id="_Path_11" data-name=" Path 11" class="cls-2" points="840.292 113.003 818.422 113.003 818.422 322.323 840.292 322.323"/><polyline id="_Path_12" data-name=" Path 12" class="cls-2" points="834.602 119.003 840.602 113.003 834.602 107.003"/><polyline id="_Path_13" data-name=" Path 13" class="cls-2" points="603.852 211.663 597.852 217.663 603.852 223.663"/><path class="cls-5" d="M181.40186,83.63324a7.06994,7.06994,0,0,0,5.41,2.52c3.56,0,4.58-2,4.58-3.46,0-2.44-2.32-3.12-4.76-3.77-2.73-.75-5.65-1.53-5.65-4.73,0-2.83,2.55-4.63,5.7-4.63a7.45006,7.45006,0,0,1,5.88,2.45l-1,1.09a6.21,6.21,0,0,0-5-2.18c-2.31,0-4.05,1.32-4.05,3.19,0,2.06,2.15,2.65,4.52,3.28,2.81.8,5.88,1.69,5.88,5.2,0,2.24-1.49,4.91-6.17,4.91a8,8,0,0,1-6.34-2.75Z"/><path class="cls-5" d="M195.15186,71.43324a1.06,1.06,0,0,1,1-1,1.04,1.04,0,1,1,0,2.08A1.06,1.06,0,0,1,195.15186,71.43324Zm.36,3.17h1.35v12.59h-1.35Z"/><path class="cls-5" d="M200.11187,69.85324h1.36v17.34h-1.36Z"/><path class="cls-5" d="M202.79186,74.63324h1.51l4.58,11,4.52-11h1.53l-5.3,12.56h-1.53Z"/><path class="cls-5" d="M221.59186,74.32324c3.82,0,5.93,3,5.93,6.66v.36h-10.51a4.89,4.89,0,0,0,4.77866,4.99886q.07065.00159.14134.00114a5.51,5.51,0,0,0,4.11-1.74l.7.89a6.49,6.49,0,0,1-4.92,2c-3.66,0-6.29-2.73-6.29-6.6C215.53186,77.26324,218.11187,74.32324,221.59186,74.32324Zm-4.58,6h9.13a4.61,4.61,0,0,0-4.43678-4.77694q-.0716-.00264-.14322-.00306c-2.96-.05-4.44,2.55-4.55,4.73Z"/><path class="cls-5" d="M230.04186,74.63324h1.36v2.16a5.42,5.42,0,0,1,4.24-2.42v1.48a3.00013,3.00013,0,0,0-.68-.05,4.8,4.8,0,0,0-3.56,2.24v9.15h-1.35Z"/><path class="cls-5" d="M237.32186,69.85324h1.35v17.34h-1.35Z"/><path class="cls-5" d="M241.56186,71.43324a1.06,1.06,0,0,1,1-1,1.04,1.04,0,1,1,0,2.08A1.06,1.06,0,0,1,241.56186,71.43324Zm.36,3.17h1.35v12.59h-1.35Z"/><path class="cls-5" d="M255.00186,78.69324c0-2.42-1.22-3.15-3-3.15a5.4,5.4,0,0,0-4.09,2.16v9.49h-1.35v-12.56h1.35v1.9a6.39,6.39,0,0,1,4.49-2.21c2.55,0,3.95,1.25,3.95,4.08v8.79h-1.35Z"/><path class="cls-5" d="M264.93186,74.32324c3.82,0,5.93,3,5.93,6.66v.36h-10.46a4.91,4.91,0,0,0,4.81917,4.99919q.0504.00092.10083.00081a5.51,5.51,0,0,0,4.08-1.75l.7.89a6.47,6.47,0,0,1-4.91,2c-3.67,0-6.3-2.73-6.3-6.6C258.87186,77.26324,261.45186,74.32324,264.93186,74.32324Zm-4.58,6h9.13a4.6,4.6,0,0,0-4.4164-4.77655q-.07675-.003-.15361-.00345c-2.97-.05-4.45,2.55-4.51,4.73Z"/><circle class="cls-3" cx="747.99189" cy="218.67325" r="33.07"/><polyline id="_Path_14" data-name=" Path 14" class="cls-2" points="766.732 210.543 772.942 217.793 766.732 225.033"/><circle class="cls-2" cx="751.21186" cy="217.78325" r="9.31"/><circle class="cls-2" cx="728.45185" cy="217.78325" r="5.16999"/><line class="cls-2" x1="733.62183" y1="217.78325" x2="741.90186" y2="217.78325"/><line class="cls-2" x1="760.53186" y1="217.78325" x2="770.87183" y2="217.78325"/><polyline id="_Path_15" data-name=" Path 15" class="cls-2" points="748.232 197.683 757.092 194.123 761.952 202.313"/><line class="cls-2" x1="752.22187" y1="208.48325" x2="756.42188" y2="196.08324"/><polyline id="_Path_16" data-name=" Path 16" class="cls-2" points="748.262 237.943 757.122 241.503 761.982 233.303"/><line class="cls-2" x1="752.25183" y1="227.14325" x2="756.44184" y2="239.54324"/><circle class="cls-2" cx="728.45185" cy="217.78325" r="5.16999"/><circle class="cls-3" cx="671.01184" cy="218.67325" r="33.07"/><g id="_Group_" data-name=" Group "><line id="_Path_17" data-name=" Path 17" class="cls-2" x1="649.51184" y1="200.77324" x2="692.51184" y2="200.76324"/><line id="_Path_18" data-name=" Path 18" class="cls-2" x1="649.54187" y1="209.72324" x2="692.51184" y2="209.72324"/><line id="_Path_19" data-name=" Path 19" class="cls-2" x1="649.54187" y1="218.68324" x2="692.51184" y2="218.68324"/><line id="_Path_20" data-name=" Path 20" class="cls-2" x1="649.54187" y1="227.63324" x2="692.51184" y2="227.63324"/><line id="_Path_21" data-name=" Path 21" class="cls-2" x1="662.07184" y1="200.77324" x2="662.07184" y2="209.47324"/><line id="_Path_22" data-name=" Path 22" class="cls-2" x1="679.97187" y1="200.77324" x2="679.97187" y2="209.47324"/><line id="_Path_23" data-name=" Path 23" class="cls-2" x1="662.07184" y1="218.68324" x2="662.07184" y2="227.63324"/><line id="_Path_24" data-name=" Path 24" class="cls-2" x1="679.97187" y1="218.68324" x2="679.97187" y2="227.63324"/><line id="_Path_25" data-name=" Path 25" class="cls-2" x1="688.92188" y1="209.72324" x2="688.92188" y2="218.68324"/><line id="_Path_26" data-name=" Path 26" class="cls-2" x1="653.12183" y1="209.72324" x2="653.12183" y2="218.68324"/><line id="_Path_27" data-name=" Path 27" class="cls-2" x1="671.02185" y1="209.72324" x2="671.02185" y2="218.68324"/><line id="_Path_28" data-name=" Path 28" class="cls-2" x1="649.54187" y1="236.58324" x2="692.51184" y2="236.58324"/><line id="_Path_29" data-name=" Path 29" class="cls-2" x1="688.92188" y1="227.88324" x2="688.92188" y2="236.58324"/><line id="_Path_30" data-name=" Path 30" class="cls-2" x1="653.12183" y1="227.88324" x2="653.12183" y2="236.58324"/><line id="_Path_31" data-name=" Path 31" class="cls-2" x1="671.02185" y1="227.88324" x2="671.02185" y2="236.58324"/></g><path class="cls-2" d="M249.23186,247.66324h-64a16.12,16.12,0,0,1-.07-32.23h0a24,24,0,0,1,33.83-21.83,28,28,0,0,1,53.28,17.14,20.11,20.11,0,0,1-11,36.92h-4"/><path class="cls-6" d="M304.94187,93.61324h-3v-1h7.09v1h-3v8.31h-1.17Z"/><path class="cls-6" d="M315.15186,97.43324c0-1.19-.62-1.54-1.53-1.54a2.68,2.68,0,0,0-2,1.05v4.95h-1.05v-9.31h1.05v3.55a3.36,3.36,0,0,1,2.42-1.14,1.9,1.9,0,0,1,2.16,2.15v4.78h-1.05Z"/><path class="cls-6" d="M318.30185,95.15324h1.1v1.1a2.87007,2.87007,0,0,1,2.25-1.24v1.08a1.71,1.71,0,0,0-.42,0,2.47,2.47,0,0,0-1.83,1.04v4.79h-1.1Z"/><path class="cls-6" d="M325.86185,94.99324c2.05,0,3.25,1.59,3.25,3.62v.27h-5.48a2.39,2.39,0,0,0,2.439,2.34l.001,0a3.00005,3.00005,0,0,0,2.09-.86l.5.69a3.68,3.68,0,0,1-2.69,1,3.55043,3.55043,0,0,1-.11-7.1h0Zm-2.23,3.12h4.44a2.19,2.19,0,0,0-2.11865-2.25909q-.05067-.00162-.10135-.00091a2.26,2.26,0,0,0-2.22,2.26Z"/><path class="cls-6" d="M330.76184,100.27324a3.09,3.09,0,0,0,2.23,1c1,0,1.59-.46,1.59-1.12s-.83-1-1.74-1.2c-1.14-.27-2.45-.58-2.45-2,0-1,.91-1.94,2.53-1.94a3.39,3.39,0,0,1,2.5,1l-.49.72a2.62,2.62,0,0,0-2-.85c-.93,0-1.5.42-1.5,1s.77.87,1.65,1.08c1.18.27,2.53.6,2.53,2.1,0,1.14-.91,2-2.66,2a3.61,3.61,0,0,1-2.73-1.07Z"/><path class="cls-6" d="M341.89185,97.43324c0-1.19-.62-1.54-1.53-1.54a2.68,2.68,0,0,0-2,1.05v4.95h-1v-9.31h1v3.55a3.36,3.36,0,0,1,2.42-1.14,1.9,1.9,0,0,1,2.16,2.15v4.78h-1.05Z"/><path class="cls-6" d="M344.65186,98.53324a3.35,3.35,0,1,1,3.34,3.56,3.31,3.31,0,0,1-3.34924-3.2703Q344.64092,98.678,344.65186,98.53324Zm5.58,0a2.27,2.27,0,1,0-2.24,2.62,2.35,2.35,0,0,0,2.25388-2.44233Q350.24216,98.62184,350.23184,98.53324Z"/><path class="cls-6" d="M353.05185,92.58324h1.05v9.34h-1.05Z"/><path class="cls-6" d="M361.10187,100.91325a2.85,2.85,0,0,1-2.29,1.18c-1.76,0-3-1.35-3-3.55s1.23-3.55,3-3.55a2.83,2.83,0,0,1,2.29,1.19v-3.6h1.05v9.34h-1.05Zm0-3.89a2.54,2.54,0,0,0-2-1.1c-1.36,0-2.17,1.12-2.17,2.62s.81,2.61,2.17,2.61a2.52,2.52,0,0,0,2-1.07Z"/><path class="cls-6" d="M363.61185,98.07324h3.37v.92h-3.37Z"/><path class="cls-6" d="M368.40186,92.58324h1.06v3.6a2.77,2.77,0,0,1,2.28-1.19c1.76,0,3,1.4,3,3.55s-1.25,3.55-3,3.55a2.83,2.83,0,0,1-2.28-1.18v1h-1.06Zm3.07,8.57c1.38,0,2.19-1.11,2.19-2.61s-.81-2.62-2.19-2.62a2.51,2.51,0,0,0-2,1.1v3.06a2.48,2.48,0,0,0,2.04,1.07Z"/><path class="cls-6" d="M380.73184,101.15324a3,3,0,0,1-2.25.94,2.25,2.25,0,0,1-2.35729-2.13732q-.00252-.0513-.00269-.10268a2.21,2.21,0,0,1,2.18475-2.235q.08766-.001.17523.005a2.84,2.84,0,0,1,2.25.92v-1.22c0-.91-.73-1.42-1.71-1.42a2.71,2.71,0,0,0-2.08.93l-.49-.72a3.54,3.54,0,0,1,2.71-1.12c1.43,0,2.61.64,2.61,2.28v4.65h-1Zm0-1.93a2.29,2.29,0,0,0-1.87-.84,1.5,1.5,0,0,0,0,3h0a2.29,2.29,0,0,0,1.87-.84Z"/><path class="cls-6" d="M383.83185,100.27324a3.09,3.09,0,0,0,2.23,1c1,0,1.6-.46,1.6-1.12s-.83-1-1.74-1.2c-1.15-.27-2.45-.58-2.45-2,0-1,.91-1.94,2.52-1.94a3.42,3.42,0,0,1,2.51,1l-.5.72a2.61,2.61,0,0,0-2-.85c-.93,0-1.5.42-1.5,1s.77.87,1.65,1.08c1.18.27,2.54.6,2.54,2.1,0,1.14-.91,2-2.67,2a3.61,3.61,0,0,1-2.73-1.07Z"/><path class="cls-6" d="M393.32187,94.99324c2.05,0,3.25,1.59,3.25,3.62v.27h-5.47a2.38,2.38,0,0,0,2.41916,2.3402l.01083-.0002a3.00005,3.00005,0,0,0,2.09-.86l.51.69a3.71006,3.71006,0,0,1-2.69,1,3.55051,3.55051,0,0,1-.12-7.1Zm-2.22,3.12h4.44a2.2,2.2,0,0,0-2.13894-2.25939q-.04555-.00124-.09107-.00061A2.25,2.25,0,0,0,391.10187,98.11324Z"/><path class="cls-6" d="M403.17185,100.91325a2.85,2.85,0,0,1-2.29,1.18c-1.76,0-3-1.35-3-3.55s1.23-3.55,3-3.55a2.83,2.83,0,0,1,2.29,1.19v-3.6h1.05v9.34h-1.05Zm0-3.89a2.54,2.54,0,0,0-2-1.1c-1.36,0-2.18,1.12-2.18,2.62s.82,2.61,2.18,2.61a2.52,2.52,0,0,0,2-1.07Z"/><path class="cls-6" d="M296.48184,115.15324a3,3,0,0,1-2.24.94,2.25,2.25,0,0,1-2.36679-2.1268q-.003-.05655-.0032-.1132a2.22,2.22,0,0,1,2.20486-2.235q.08263-.00057.16513.005a2.81,2.81,0,0,1,2.24.92v-1.22c0-.91-.73-1.42-1.71-1.42a2.69,2.69,0,0,0-2.07.93l-.49-.72a3.53,3.53,0,0,1,2.7-1.12c1.43,0,2.62.64,2.62,2.28v4.65h-1.05Zm0-1.93a2.26,2.26,0,0,0-1.86-.84,1.5,1.5,0,0,0,0,3,2.26,2.26,0,0,0,1.86-.84Z"/><path class="cls-6" d="M304.20185,114.97324a3.34,3.34,0,0,1-2.41,1.12,1.91,1.91,0,0,1-2.16-2.16v-4.78h1v4.46c0,1.19.6,1.54,1.51,1.54a2.63,2.63,0,0,0,2-1v-5h1.05v6.77h-.99Z"/><path class="cls-6" d="M307.55185,114.50324v-4.42h-1.15v-.93h1.12v-1.85h1.05v1.85h1.38v.93h-1.35v4.2c0,.5.23.87.69.87a1,1,0,0,0,.71-.28l.31.78a1.67005,1.67005,0,0,1-1.26.44,1.39,1.39,0,0,1-1.5-1.59Z"/><path class="cls-6" d="M311.07187,112.53324a3.3201,3.3201,0,1,1-.00863.25874Q311.06251,112.66249,311.07187,112.53324Zm5.59,0a2.28,2.28,0,1,0-2.26,2.62,2.36,2.36,0,0,0,2.273-2.4439Q316.67166,112.62108,316.66187,112.53324Z"/><path class="cls-6" d="M327.63187,111.32324c0-.85-.37-1.4-1.24-1.4a2.39,2.39,0,0,0-1.8,1v5h-1.05v-4.6c0-.85-.36-1.4-1.24-1.4a2.37,2.37,0,0,0-1.78,1.05v4.95h-1.05v-6.77h1.05v1a2.93008,2.93008,0,0,1,2.18-1.14,1.73,1.73,0,0,1,1.82,1.26,2.84,2.84,0,0,1,2.27-1.26c1.24,0,1.89.68,1.89,2v4.89h-1Z"/><path class="cls-6" d="M335.01184,115.15324a3,3,0,0,1-2.24.94,2.25,2.25,0,0,1-2.36679-2.1268q-.003-.05655-.0032-.11321a2.22,2.22,0,0,1,2.20486-2.235q.08263-.00056.16513.005a2.84,2.84,0,0,1,2.24.92v-1.22c0-.91-.73-1.42-1.71-1.42a2.69,2.69,0,0,0-2.07.93l-.49-.72a3.53006,3.53006,0,0,1,2.7-1.12c1.43,0,2.62.64,2.62,2.28v4.65h-1.05Zm0-1.93a2.27,2.27,0,0,0-1.86-.84,1.5,1.5,0,0,0,0,3,2.27,2.27,0,0,0,1.86-.84Z"/><path class="cls-6" d="M338.40186,114.50324v-4.42h-1.12v-.93h1.12v-1.85h1v1.85h1.37v.93h-1.37v4.2c0,.5.22.87.68.87a1,1,0,0,0,.72-.28l.31.78a1.7,1.7,0,0,1-1.26.44,1.38995,1.38995,0,0,1-1.45-1.59Z"/><path class="cls-6" d="M345.22187,108.99324c2,0,3.25,1.59,3.25,3.62v.27h-5.48a2.38,2.38,0,0,0,2.41,2.34,2.92992,2.92992,0,0,0,2.09-.86l.51.69a3.71,3.71,0,0,1-2.69,1,3.55043,3.55043,0,0,1-.11-7.1h0Zm-2.23,3.12h4.41a2.2,2.2,0,0,0-2.139-2.25939q-.04554-.00124-.09106-.00061A2.25,2.25,0,0,0,342.99185,112.11324Z"/><path class="cls-6" d="M355.06186,114.91325a2.85,2.85,0,0,1-2.29,1.18c-1.76,0-3-1.35-3-3.55s1.24-3.55,3-3.55a2.83,2.83,0,0,1,2.29,1.19v-3.6h1v9.34h-1Zm0-3.89a2.54,2.54,0,0,0-2-1.1c-1.36,0-2.17,1.12-2.17,2.62s.81,2.61,2.17,2.61a2.52,2.52,0,0,0,2-1.07Z"/><path class="cls-6" d="M361.78186,114.27324a3.07,3.07,0,0,0,2.22,1c1,0,1.6-.46,1.6-1.12s-.83-1-1.74-1.2c-1.15-.27-2.45-.58-2.45-2,0-1,.91-1.94,2.52-1.94a3.42,3.42,0,0,1,2.51,1l-.49.72a2.64,2.64,0,0,0-2-.85c-.92,0-1.5.42-1.5,1s.77.87,1.66,1.08c1.17.27,2.53.6,2.53,2.1,0,1.14-.91,2-2.66,2a3.59,3.59,0,0,1-2.73-1.07Z"/><path class="cls-6" d="M368.15186,107.36324a.71.71,0,1,1,.71966.70021q-.01482.00021-.02966-.00021A.7.7,0,0,1,368.15186,107.36324Zm.18,1.79h1.07v6.77h-1.05Z"/><path class="cls-6" d="M372.00186,116.87325a2.58,2.58,0,0,0,2.19.93,1.94006,1.94006,0,0,0,2.18-2v-1a2.84,2.84,0,0,1-2.27,1.2c-1.77,0-3-1.31-3-3.5s1.23-3.51,3-3.51a2.79,2.79,0,0,1,2.3,1.19v-1h1v6.57c0,2.24-1.57,2.94-3.23,2.94a3.48,3.48,0,0,1-2.73-1Zm4.4-5.85a2.51,2.51,0,0,0-2-1.1c-1.36,0-2.17,1.08-2.17,2.58s.81,2.58,2.17,2.58a2.52,2.52,0,0,0,2-1.11Z"/><path class="cls-6" d="M384.08185,111.49324c0-1.19-.6-1.57-1.51-1.57a2.65,2.65,0,0,0-2,1.05v4.95h-1.05v-6.77h1.05v1a3.36,3.36,0,0,1,2.41-1.14,1.92,1.92,0,0,1,2.16,2.18v4.75h-1.05Z"/><path class="cls-6" d="M391.46186,115.15324a3,3,0,0,1-2.24.94,2.25,2.25,0,0,1-2.3668-2.1268q-.003-.05655-.0032-.1132a2.22,2.22,0,0,1,2.20487-2.235q.08262-.00057.16513.005a2.84,2.84,0,0,1,2.24.92v-1.22c0-.91-.73-1.42-1.71-1.42a2.72,2.72,0,0,0-2.08.93l-.49-.72a3.54,3.54,0,0,1,2.71-1.12c1.43,0,2.62.64,2.62,2.28v4.65h-1.05Zm0-1.93a2.27,2.27,0,0,0-1.87-.84,1.5,1.5,0,0,0,0,3,2.27,2.27,0,0,0,1.87-.84Z"/><path class="cls-6" d="M394.60187,106.58324h1.06v9.34h-1.06Z"/><path class="cls-6" d="M397.57187,107.36324a.71.71,0,1,1,.71988.7q-.00993.00014-.01987,0a.7.7,0,0,1-.7-.7Zm.18,1.79h1.06v6.77h-1.06Z"/><path class="cls-6" d="M405.47187,111.49324c0-1.19-.6-1.57-1.51-1.57a2.65,2.65,0,0,0-2,1.05v4.95h-1.06v-6.77h1.05v1a3.36,3.36,0,0,1,2.45-1.16,1.92,1.92,0,0,1,2.16,2.18v4.75h-1.05Z"/><path class="cls-6" d="M409.14185,116.87325a2.59,2.59,0,0,0,2.2.93,1.94,1.94,0,0,0,2.17-2v-1a2.84,2.84,0,0,1-2.27,1.2c-1.77,0-3-1.31-3-3.5s1.23-3.51,3-3.51a2.79,2.79,0,0,1,2.27,1.19v-1h1.05v6.57c0,2.24-1.57,2.94-3.22,2.94a3.48006,3.48006,0,0,1-2.74-1Zm4.37-5.85a2.51,2.51,0,0,0-2-1.1c-1.36,0-2.17,1.08-2.17,2.58s.81,2.58,2.17,2.58a2.52,2.52,0,0,0,2-1.11Z"/><path class="cls-6" d="M292.40186,124.08324h-1.12v-.93h1.12v-.52a1.93,1.93,0,0,1,2-2.2,2,2,0,0,1,1,.23l-.27.79a1.14,1.14,0,0,0-.6-.16c-.69,0-1.07.48-1.07,1.33v.52h1.38v.93h-1.38v5.84h-1.06Z"/><path class="cls-6" d="M295.69187,126.53324a3.31985,3.31985,0,1,1-.00849.27893Q295.68177,126.6726,295.69187,126.53324Zm5.59,0a2.28,2.28,0,1,0-2.24,2.62,2.36,2.36,0,0,0,2.25226-2.463Q301.29061,126.61155,301.28186,126.53324Z"/><path class="cls-6" d="M304.09186,123.15324h1.05v1.1a2.87007,2.87007,0,0,1,2.26-1.24v1.08a1.81883,1.81883,0,0,0-.42,0,2.47,2.47,0,0,0-1.84,1.08v4.79h-1.05Z"/><path class="cls-6" d="M311.31186,123.15324h1.14l2.25,5.55,2.24-5.55h1.15l-2.81,6.77h-1.15Z"/><path class="cls-6" d="M318.79187,126.53324a3.32,3.32,0,1,1-.00848.27893Q318.78179,126.6726,318.79187,126.53324Zm5.59,0a2.28,2.28,0,1,0-2.24,2.62,2.36,2.36,0,0,0,2.273-2.44393q-.00321-.08825-.013-.17607Z"/><path class="cls-6" d="M327.19187,120.58324h1v9.34h-1Z"/><path class="cls-6" d="M334.91187,128.97324a3.36,3.36,0,0,1-2.41,1.12,1.91,1.91,0,0,1-2.16-2.16v-4.78h1.06v4.46c0,1.19.6,1.54,1.51,1.54a2.63,2.63,0,0,0,2-1v-5h1.05v6.77h-1.05Z"/><path class="cls-6" d="M346.22187,125.32324c0-.85-.38-1.4-1.25-1.4a2.37,2.37,0,0,0-1.79,1v5h-1v-4.6c0-.85-.37-1.4-1.25-1.4a2.39005,2.39005,0,0,0-1.78,1.05v4.95h-1.05v-6.77h1.05v1a2.9301,2.9301,0,0,1,2.19-1.14,1.74,1.74,0,0,1,1.82,1.26,2.84,2.84,0,0,1,2.27-1.26c1.23,0,1.89.68,1.89,2v4.89h-1.05Z"/><path class="cls-6" d="M352.31186,122.99324c2,0,3.25,1.59,3.25,3.62v.27h-5.48a2.38,2.38,0,0,0,2.41916,2.3402l.01083-.0002a2.93,2.93,0,0,0,2.09-.86l.51.69a3.71006,3.71006,0,0,1-2.69,1,3.55043,3.55043,0,0,1-.11-7.1Zm-2.23,3.12h4.44a2.2,2.2,0,0,0-2.13894-2.25939q-.04555-.00124-.09107-.00061A2.25,2.25,0,0,0,350.08185,126.11324Z"/><path class="cls-6" d="M357.46186,128.50324v-4.42h-1.12v-.93h1.12v-1.85h1.05v1.85h1.37v.93h-1.37v4.2c0,.5.22.87.68.87a1,1,0,0,0,.72-.28l.31.78a1.71,1.71,0,0,1-1.27.44C357.96186,130.09325,357.46186,129.51324,357.46186,128.50324Z"/><path class="cls-6" d="M361.40186,123.15324h1v1.1a2.87007,2.87007,0,0,1,2.26-1.24v1.08a1.75959,1.75959,0,0,0-.42,0,2.47,2.47,0,0,0-1.84,1.04v4.79h-1Z"/><path class="cls-6" d="M365.80185,121.36324a.71.71,0,1,1,.71988.7q-.00993.00014-.01987,0a.7.7,0,0,1-.7-.7Zm.18,1.79h1.05v6.77h-1.05Z"/><path class="cls-6" d="M372.11185,122.99324a2.88,2.88,0,0,1,2.48,1.17l-.7.65a2,2,0,0,0-1.72-.89,2.63,2.63,0,0,0,0,5.23,2,2,0,0,0,1.72-.88l.7.64a2.88,2.88,0,0,1-2.48,1.18,3.55,3.55,0,0,1,0-7.1Z"/><path class="cls-6" d="M383.90186,129.15324a3,3,0,0,1-2.24.94,2.25,2.25,0,0,1-2.36679-2.1268q-.003-.05655-.00321-.1132a2.22,2.22,0,0,1,2.20487-2.235q.08262-.00057.16513.005a2.81,2.81,0,0,1,2.24.92v-1.22c0-.91-.73-1.42-1.71-1.42a2.69,2.69,0,0,0-2.07.93l-.49-.72a3.54,3.54,0,0,1,2.71-1.12c1.42,0,2.61.64,2.61,2.28v4.65h-1.05Zm0-1.93a2.26,2.26,0,0,0-1.86-.84,1.5,1.5,0,0,0,0,3,2.26,2.26,0,0,0,1.86-.84Z"/><path class="cls-6" d="M387.26184,128.50324v-4.42h-1.12v-.93h1.12v-1.85h1.05v1.85h1.37v.93h-1.37v4.2c0,.5.23.87.69.87a1,1,0,0,0,.71-.28l.31.78a1.68,1.68,0,0,1-1.26.44,1.39,1.39,0,0,1-1.5-1.59Z"/><path class="cls-6" d="M391.40186,128.50324v-4.42h-1.12v-.93h1.12v-1.85h1v1.85h1.37v.93h-1.37v4.2c0,.5.22.87.68.87a1,1,0,0,0,.72-.28l.31.78a1.7,1.7,0,0,1-1.26.44,1.38995,1.38995,0,0,1-1.45-1.59Z"/><path class="cls-6" d="M399.51184,129.15324a3,3,0,0,1-2.24.94,2.25,2.25,0,0,1-2.3573-2.13732q-.00251-.0513-.00268-.10268a2.21,2.21,0,0,1,2.18475-2.235q.08766-.001.17523.005a2.81,2.81,0,0,1,2.24.92v-1.22c0-.91-.72-1.42-1.7-1.42a2.71008,2.71008,0,0,0-2.08.93l-.49-.72a3.53006,3.53006,0,0,1,2.7-1.12c1.43,0,2.62.64,2.62,2.28v4.65h-1.05Zm0-1.93a2.26,2.26,0,0,0-1.86-.84,1.5,1.5,0,0,0,0,3h0a2.26,2.26,0,0,0,1.86-.84Z"/><path class="cls-6" d="M405.65186,122.99324a2.87,2.87,0,0,1,2.47,1.17l-.7.65a2,2,0,0,0-1.72-.89,2.63,2.63,0,0,0,0,5.23,2,2,0,0,0,1.72-.88l.7.64a2.88,2.88,0,0,1-2.47,1.18,3.55,3.55,0,0,1,0-7.1Z"/><path class="cls-6" d="M411.76184,126.88324l-1.12,1.11v1.93h-1.05v-9.34h1.05v6.17l3.56-3.6h1.33l-3,3.07,3,3.7h-1.33Z"/><path class="cls-6" d="M332.56186,139.32324c0-.85-.38-1.4-1.25-1.4a2.37,2.37,0,0,0-1.79,1v5h-1.05v-4.6c0-.85-.37-1.4-1.25-1.4a2.37,2.37,0,0,0-1.78,1.05v4.95h-1.04v-6.77h1v1a2.93006,2.93006,0,0,1,2.18-1.14,1.75,1.75,0,0,1,1.83,1.26,2.81,2.81,0,0,1,2.27-1.26c1.23,0,1.89.68,1.89,2v4.89h-1Z"/><path class="cls-6" d="M335.52185,135.36324a.71.71,0,1,1,.71988.7q-.00993.00014-.01986,0a.7.7,0,0,1-.7-.7Zm.18,1.79h1.05v6.77h-1.05Z"/><path class="cls-6" d="M339.06186,142.50324v-4.42h-1.12v-.93h1.12v-1.85h1v1.85h1.37v.93h-1.37v4.2c0,.5.23.87.69.87a1,1,0,0,0,.71-.28l.31.78a1.7,1.7,0,0,1-1.26.44,1.39,1.39,0,0,1-1.45-1.59Z"/><path class="cls-6" d="M342.78186,135.36324a.71.71,0,0,1,1.42,0h0a.71.71,0,1,1-1.42,0Zm.19,1.79h1.05v6.77h-1.05Z"/><path class="cls-6" d="M346.63187,144.87325a2.6,2.6,0,0,0,2.2.93,1.94008,1.94008,0,0,0,2.17-2v-1a2.83,2.83,0,0,1-2.26,1.2c-1.77,0-3-1.31-3-3.5s1.24-3.51,3-3.51a2.76006,2.76006,0,0,1,2.26,1.19v-1h1.06v6.57c0,2.24-1.57,2.94-3.23,2.94a3.46008,3.46008,0,0,1-2.73-1Zm4.37-5.85a2.48,2.48,0,0,0-2-1.1c-1.36,0-2.17,1.08-2.17,2.58s.81,2.58,2.17,2.58a2.48,2.48,0,0,0,2-1.11Z"/><path class="cls-6" d="M358.40186,143.15324a3,3,0,0,1-2.24.94,2.25,2.25,0,0,1-2.36679-2.1268q-.003-.05655-.00321-.1132a2.22,2.22,0,0,1,2.20487-2.235q.08262-.00057.16513.005a2.81,2.81,0,0,1,2.24.92v-1.22c0-.91-.73-1.42-1.71-1.42a2.69,2.69,0,0,0-2.07.93l-.49-.72a3.53,3.53,0,0,1,2.7-1.12c1.43,0,2.62.64,2.62,2.28v4.65h-1Zm0-1.93a2.26,2.26,0,0,0-1.86-.84,1.5,1.5,0,0,0,0,3,2.26,2.26,0,0,0,1.86-.84Z"/><path class="cls-6" d="M361.74185,142.50324v-4.42h-1.12v-.93h1.12v-1.85h1.05v1.85h1.37v.93h-1.37v4.2c0,.5.22.87.69.87a1,1,0,0,0,.71-.28l.31.78a1.7,1.7,0,0,1-1.26.44,1.39,1.39,0,0,1-1.5-1.59Z"/><path class="cls-6" d="M365.46186,135.36324a.71.71,0,0,1,1.42,0h0a.71.71,0,1,1-1.42,0Zm.19,1.79h1.05v6.77h-1.05Z"/><path class="cls-6" d="M368.40186,140.53324a3.36,3.36,0,1,1,3.35,3.56,3.32,3.32,0,0,1-3.35849-3.28107Q368.39178,140.6726,368.40186,140.53324Zm5.59,0a2.27,2.27,0,1,0-2.24,2.62,2.36,2.36,0,0,0,2.25226-2.463Q374.0006,140.61154,373.99185,140.53324Z"/><path class="cls-6" d="M381.40186,139.49324c0-1.19-.6-1.57-1.51-1.57a2.65,2.65,0,0,0-2,1.05v4.95h-1.09v-6.77h1.05v1a3.36,3.36,0,0,1,2.41-1.14,1.92,1.92,0,0,1,2.16,2.18v4.75h-1Z"/><line class="cls-7" x1="281.94187" y1="78.58324" x2="284.94187" y2="78.58324"/><line class="cls-8" x1="288.00186" y1="78.58324" x2="524.62186" y2="78.58324"/><polyline class="cls-7" points="526.152 78.583 529.152 78.583 529.152 81.583"/><line class="cls-9" x1="529.15186" y1="84.74324" x2="529.15186" y2="158.90324"/><line class="cls-7" x1="529.15186" y1="160.48325" x2="529.15186" y2="163.48325"/><line id="_Path_32" data-name=" Path 32" class="cls-10" x1="215.78186" y1="192.21324" x2="215.78186" y2="137.83324"/><polyline id="_Path_33" data-name=" Path 33" class="cls-7" points="221.782 143.523 215.782 137.523 209.782 143.523"/><path class="cls-11" d="M59.40186,339.85326h3.88a5.67,5.67,0,1,1,.47644,11.33q-.23811.01-.47644,0h-3.88Zm3.88,10.08a4.42,4.42,0,0,0,0-8.83h-2.48v8.83Z"/><path class="cls-11" d="M71.29186,339.85326h3.88a5.67,5.67,0,1,1,.47644,11.33q-.23811.01-.47644,0h-3.88Zm3.88,10.08a4.42,4.42,0,0,0,0-8.83h-2.47v8.83Z"/><path class="cls-11" d="M82.67186,347.07326a4.07,4.07,0,1,1,4.06,4.36,4,4,0,0,1-4.06-4.36Zm6.78,0a2.75588,2.75588,0,1,0-5.47262-.17725q.00357.08882.01262.17725c0,1.68,1,3.18,2.74,3.18S89.45186,348.75325,89.45186,347.07326Z"/><path class="cls-11" d="M93.07186,348.52324a4.8,4.8,0,0,0,3.57,1.61c2,0,2.67-1.09,2.67-1.95,0-1.36-1.38-1.74-2.87-2.15-1.82-.47-3.85-1-3.85-3.21,0-1.87,1.67-3.14,3.9-3.14a5.29,5.29,0,0,1,4,1.58l-.84,1a4.36,4.36,0,0,0-3.25-1.33c-1.36,0-2.32.74-2.32,1.81s1.3,1.47,2.75,1.87c1.85.49,4,1.07,4,3.45,0,1.65-1.12,3.33-4.18,3.33a5.6199,5.6199,0,0,1-4.35-1.8Z"/><path class="cls-11" d="M53.40186,365.67323h-5.77l-1,2.51h-1.57l4.56-11.33h1.78l4.57,11.33h-1.57Zm-5.36-1.24h4.91l-2.45-6.31Z"/><path class="cls-11" d="M57.40186,366.43324v-5.37h-1.32v-1.13h1.32v-2.2h1.27v2.24h1.73v1.13h-1.69v5.1c0,.61.28,1.05.84,1.05a1.21,1.21,0,0,0,.86-.34l.38.95a2.09,2.09,0,0,1-1.53.53,1.68,1.68,0,0,1-1.86-1.96Z"/><path class="cls-11" d="M62.40186,366.43324v-5.37h-1.32v-1.13h1.32v-2.2h1.27v2.24h1.73v1.13h-1.69v5.1c0,.61.27,1.05.83,1.05a1.22007,1.22007,0,0,0,.87-.34l.38.95a2.1,2.1,0,0,1-1.54.53,1.68,1.68,0,0,1-1.85-1.96Z"/><path class="cls-11" d="M72.31186,367.25325a3.54,3.54,0,0,1-2.72,1.18,2.74,2.74,0,0,1-2.867-2.60687q-.00268-.05653-.003-.11313a2.68,2.68,0,0,1,2.6531-2.70663q.10854-.00111.2169.00662a3.41,3.41,0,0,1,2.72,1.12v-1.48c0-1.11-.88-1.73-2.07-1.73a3.26,3.26,0,0,0-2.52,1.13l-.59-.88a4.29006,4.29006,0,0,1,3.27-1.4c1.73,0,3.18.78,3.18,2.77v5.64h-1.27Zm0-2.35a2.75,2.75,0,0,0-2.26-1,1.81,1.81,0,1,0,0,3.59,2.75,2.75,0,0,0,2.26-1Z"/><path class="cls-11" d="M79.76186,359.77324a3.52,3.52,0,0,1,3,1.43l-.85.78a2.43,2.43,0,0,0-2.09-1.07,3.19,3.19,0,0,0,0,6.34,2.48,2.48,0,0,0,2.09-1.07l.85.78a3.52,3.52,0,0,1-3,1.43,4.32,4.32,0,0,1,0-8.62Z"/><path class="cls-11" d="M87.19186,364.50325l-1.36,1.34v2.34h-1.28v-11.33h1.28v7.49l4.32-4.37h1.61l-3.64,3.73,3.66,4.48h-1.63Z"/><path class="cls-11" d="M96.47186,359.77324c2.48,0,3.94,1.94,3.94,4.4v.33h-6.64a2.9,2.9,0,0,0,2.95,2.84,3.62011,3.62011,0,0,0,2.54-1l.61.83a4.45007,4.45007,0,0,1-3.26,1.26,4.31056,4.31056,0,1,1-.14-8.62Zm-2.7,3.79h5.39a2.67,2.67,0,0,0-2.59877-2.73938q-.0556-.00147-.11123-.00061A2.74,2.74,0,0,0,93.77186,363.56325Z"/><path class="cls-11" d="M102.47186,359.97325h1.28v1.33a3.47007,3.47007,0,0,1,2.73-1.5v1.31a2.44013,2.44013,0,0,0-.51-.05,2.99994,2.99994,0,0,0-2.22,1.31v5.81h-1.28Z"/><path class="cls-11" d="M108.03186,366.18324a3.7,3.7,0,0,0,2.7,1.17c1.26,0,1.94-.56,1.94-1.36s-1-1.19-2.11-1.46c-1.39-.32-3-.7-3-2.4,0-1.27,1.1-2.36,3.06-2.36a4.16,4.16,0,0,1,3,1.19l-.6.88a3.20006,3.20006,0,0,0-2.44-1c-1.12,0-1.82.51-1.82,1.24s.93,1.05,2,1.31c1.43.32,3.08.73,3.08,2.55,0,1.37-1.1,2.48-3.23,2.48a4.36993,4.36993,0,0,1-3.21-1.32Z"/><circle class="cls-12" cx="79.81186" cy="310.99324" r="24.54001" transform="translate(-234.47855 376.63063) rotate(-87.40279)"/><path class="cls-4" d="M73.12186,325.93324v-5.44s-9.9,0-8.32-12.26c.92-7.16,5.91-10.8,9.91-12.49a13.40989,13.40989,0,0,1,10.42,0c4,1.68,9,5.32,9.9,12.48,1.58,12.28-8.33,12.26-8.33,12.26v5.44m-13.3-20.66c-2.36,0-4.27,2.18-4.27,4.88s1.91,4.87,4.27,4.87a4.6,4.6,0,0,0,4.28-4.87C77.68186,307.43324,75.77186,305.26323,73.40186,305.26323Zm12.9,0c-2.37,0-4.28,2.18-4.28,4.88a4.6,4.6,0,0,0,4.28,4.87c2.36,0,4.27-2.18,4.27-4.87S88.66186,305.26323,86.30186,305.26323Zm-9.1,22v-5.43m5.43,0v5.43m-2.77-12.83c-.64,0-2.18,2.22-2.18,2.92a1.38,1.38,0,0,0,1.3,1.45,1.24007,1.24007,0,0,0,.9-.41,1.23,1.23,0,0,0,.9.41,1.38,1.38,0,0,0,1.29-1.45C82.07186,316.60326,80.51186,314.43324,79.86186,314.43324Z"/><path class="cls-2" d="M875.20184,69.36324h46.76a20.45,20.45,0,0,1,20.45,20.45v46.76a20.45,20.45,0,0,1-20.45,20.45h-46.76a20.45,20.45,0,0,1-20.45-20.45v-46.76a20.45,20.45,0,0,1,20.45-20.45Z"/><text class="cls-13" transform="translate(871.44184 118.09325)">app</text><path class="cls-2" d="M875.20183,174.03325h46.76a20.45,20.45,0,0,1,20.45,20.45v46.76a20.45,20.45,0,0,1-20.45,20.45h-46.76a20.45,20.45,0,0,1-20.45-20.45v-46.76A20.45,20.45,0,0,1,875.20183,174.03325Z"/><text class="cls-13" transform="translate(871.44184 222.75325)">app</text><rect class="cls-2" x="854.75183" y="278.69325" width="87.66003" height="87.66" rx="20.45001"/><text class="cls-13" transform="translate(871.44184 327.41325)">app</text><circle class="cls-14" cx="234.69185" cy="131.91325" r="8.68"/><line class="cls-4" x1="238.66185" y1="127.10324" x2="230.87186" y2="136.72324"/><line class="cls-4" x1="230.72187" y1="127.10324" x2="238.50186" y2="136.72324"/><path class="cls-5" d="M503.81186,209.24324h6a9.34,9.34,0,0,1,.61121,18.67q-.30552.01-.61121,0h-6Zm6,17.22c4.92,0,7.75-3.5,7.75-7.87s-2.8-7.9-7.75-7.9h-4.41v15.74Z"/><path class="cls-5" d="M535.59186,219.04324h-11.84v8.87h-1.6v-18.67h1.6v8.34h11.84v-8.34h1.62v18.67h-1.62Z"/><path class="cls-5" d="M540.80188,209.24324h6a9.34,9.34,0,1,1,.61121,18.67q-.30552.01-.61121,0h-6Zm6,17.22c4.93,0,7.76-3.5,7.76-7.87s-2.8-7.9-7.76-7.9h-4.4v15.74Z"/><rect class="cls-15" x="623.41187" y="171.04324" width="172.16998" height="131.36" rx="4"/></g></g></g></svg>