<?xml version="1.0" encoding="utf-8"?>
<!-- Generator: Adobe Illustrator 25.3.1, SVG Export Plug-In . SVG Version: 6.00 Build 0)  -->
<svg version="1.1" id="Layer_1" xmlns="http://www.w3.org/2000/svg" xmlns:xlink="http://www.w3.org/1999/xlink" x="0px" y="0px"
	 viewBox="0 0 300 75.9" style="enable-background:new 0 0 300 75.9;" xml:space="preserve">
<style type="text/css">
	.st0{fill:#054ADA;}
	.st1{fill:#FF8800;}
</style>
<g>
	<path id="hrefs" class="st0" d="M265.9,66H282v-8h-8.1v-8.1l-8.1,0v-8h-8.1V25.8l8.1-0.1v-8l24.2,0v8h-16.1v8.1h8.1v8.1l8,0V50h8.1
		V66h-8.1l-0.1,8.1h-24.1V66z M257.8,58h8v8h-8V58z M290.1,25.8l8,0v8l-8,0V25.8z M228.6,25.8h-8.1v-8.1h8.1v-8l8.1-0.1v-8l24.2-0.1
		v8l-16.1,0.1v8.1h8.1v8.1h-8.1v48.3h-16.1V25.8z M214.1,49.9V25.8h-8v-8.1h-32.2v8.1h-8.1V66h8.1v8.1H206V66h-24.2V49.9H214.1z
		 M181.9,25.8H198v16.1h-16.1L181.9,25.8z M214.1,66H206V58h8.1V66z M118.5,17.7h16.1v8.1h8.1v-8.1h16.1v16.1h-24.2v40.3h-16.1V17.7
		z M60.6,1.6h16.1v16.1h24.2v8.1h8.1v48.3H92.8V25.8H76.7v48.3H60.6V1.6z"/>
	<path id="a" class="st1" d="M9.9,41.9h24.2V25.8H9.9v-8.1h32.2v8.1h8.1v48.3H9.9V66H1.9V49.9h8.1V41.9z M18,49.9V66h16.1V49.9
		L18,49.9z M1.9,25.8h8.1v8.1H1.9V25.8z"/>
</g>
</svg>
