<svg id="Layer_1" data-name="Layer 1" xmlns="http://www.w3.org/2000/svg" viewBox="0 0 353.72463 106.01412"><defs><style>.cls-1,.cls-5,.cls-7{fill:none;}.cls-1{stroke:#2cb04a;}.cls-1,.cls-4,.cls-7{stroke-miterlimit:10;}.cls-2{fill:#2cb04a;}.cls-3{fill:#343434;}.cls-4{fill:#fff;stroke:#231f20;stroke-width:1.0654px;}.cls-4,.cls-5{stroke-linecap:round;}.cls-5,.cls-7{stroke:#010101;}.cls-5{stroke-linejoin:round;}.cls-6{fill:#010101;}</style></defs><line class="cls-1" x1="91.52908" y1="59.72339" x2="275.64303" y2="59.72339"/><polygon class="cls-2" points="94.843 63.813 95.525 63.081 91.913 59.724 95.525 56.367 94.843 55.635 90.445 59.724 94.843 63.813"/><line class="cls-1" x1="77.6835" y1="79.12194" x2="263.70858" y2="79.12194"/><polygon class="cls-2" points="260.395 83.212 259.713 82.479 263.325 79.123 259.713 75.765 260.395 75.033 264.793 79.123 260.395 83.212"/><line class="cls-1" x1="78.3231" y1="40.95433" x2="263.7086" y2="40.95433"/><polygon class="cls-2" points="260.395 45.044 259.713 44.312 263.325 40.955 259.713 37.598 260.395 36.865 264.793 40.955 260.395 45.044"/><path class="cls-3" d="M170.35875,34.60371a2.01309,2.01309,0,0,0,1.582.72168c.49805,0,.70117-.2876.70117-.53955,0-.28027-.35742-.42725-.79883-.58838-.65136-.231-1.46289-.53906-1.46289-1.37256a1.63839,1.63839,0,0,1,1.82032-1.457,2.44321,2.44321,0,0,1,1.85547.75635l-.61524.69336a1.84721,1.84721,0,0,0-1.36621-.59522c-.38574,0-.65137.23145-.65137.49024,0,.25244.35742.39941.79883.56054.65039.231,1.47754.54639,1.47754,1.3584a1.65174,1.65174,0,0,1-1.835,1.562,2.6961,2.6961,0,0,1-2.11524-.86816Z"/><path class="cls-3" d="M175.76305,34.19746l-1.19141-2.75928h1.0791l.749,1.877,1.5625-1.877h1.19042l-2.3955,2.75928-.41992,1.91211h-.99415Z"/><path class="cls-3" d="M180.44273,32.79658l-.72851,3.313h-.99414l1.02929-4.67139h1.02247l1.45605,3.20069.708-3.20069h.99512l-1.03028,4.67139h-.96Z"/><path class="cls-3" d="M162.25816,53.37275a2.01365,2.01365,0,0,0,1.583.72168c.49707,0,.7002-.28759.7002-.53955,0-.28027-.35743-.42724-.79883-.58838-.65137-.23095-1.46387-.53906-1.46387-1.37256a1.64,1.64,0,0,1,1.82129-1.457,2.44842,2.44842,0,0,1,1.85645.75635l-.61719.69336a1.842,1.842,0,0,0-1.36524-.59521c-.38476,0-.65136.23144-.65136.49023,0,.25244.35644.39941.79785.56055.65234.231,1.47851.54638,1.47851,1.3584a1.65209,1.65209,0,0,1-1.83593,1.562,2.69388,2.69388,0,0,1-2.11426-.86817Z"/><path class="cls-3" d="M167.66246,52.9665,166.472,50.20723h1.07813l.75,1.877,1.56152-1.877h1.19043l-2.39453,2.75927-.4209,1.91211h-.99512Z"/><path class="cls-3" d="M172.34215,51.56562l-.72852,3.313h-.99511l1.03027-4.67138h1.02246l1.457,3.20068.707-3.20068h.99414l-1.02929,4.67138h-.959Z"/><path class="cls-3" d="M180.85484,54.073h-2.08691l-.46973.80566h-1.14062l2.83594-4.67138h1.24609l.77148,4.67138H180.974Zm-1.625-.86133h1.54785l-.30761-2.1499Z"/><path class="cls-3" d="M185.39781,50.13008a2.076,2.076,0,0,1,2.07227,1.32373l-.959.32226a1.17708,1.17708,0,0,0-1.16211-.76367,1.71053,1.71053,0,0,0-1.63281,1.793,1.23628,1.23628,0,0,0,1.31738,1.2749,1.47889,1.47889,0,0,0,1.09961-.53955l.7627.52539a2.41369,2.41369,0,0,1-1.918.89649A2.11839,2.11839,0,0,1,182.68,52.86836,2.66774,2.66774,0,0,1,185.39781,50.13008Z"/><path class="cls-3" d="M189.27086,52.9665l-.48242.47657-.32227,1.43554H187.472l1.0293-4.67138h.99414l-.44141,2.00293,2.03906-2.00293h1.28125l-2.33984,2.19189,1.43555,2.47949h-1.16895Z"/><path class="cls-3" d="M172.89977,73.47139h-2.08692l-.46973.80566H169.2025l2.83594-4.67139h1.24609l.77149,4.67139h-1.03711Zm-1.625-.86133h1.54785l-.30762-2.1499Z"/><path class="cls-3" d="M177.44273,69.52851a2.07645,2.07645,0,0,1,2.07325,1.32374l-.96.32226a1.17709,1.17709,0,0,0-1.16211-.76367,1.70976,1.70976,0,0,0-1.63184,1.793,1.23575,1.23575,0,0,0,1.31738,1.2749,1.48051,1.48051,0,0,0,1.09961-.53955l.7627.52539a2.41677,2.41677,0,0,1-1.91895.89648,2.11754,2.11754,0,0,1-2.29687-2.09423A2.667,2.667,0,0,1,177.44273,69.52851Z"/><path class="cls-3" d="M181.31676,72.36494l-.4834.47656-.32227,1.43555H179.517l1.0293-4.67139h.99414L181.1,71.60859l2.03809-2.00293h1.28125l-2.33887,2.1919,1.43555,2.47949h-1.169Z"/><rect class="cls-4" x="11.56207" y="12.25084" width="70.9217" height="82.2424"/><rect class="cls-4" x="271.01626" y="12.25084" width="70.9217" height="82.2424"/><line class="cls-5" x1="44.30817" y1="64.1586" x2="49.77333" y2="64.1586"/><path class="cls-5" d="M67.52292,64.10913a2.47772,2.47772,0,0,1-1.36053,2.0958l-38.08906.00584-.16709-.01167a2.40148,2.40148,0,0,1-1.38332-2.06261,2.34188,2.34188,0,0,1,1.38332-2.0359H66.16239V40.21077H27.90624V59.36436"/><path class="cls-6" d="M33.37242,77.27217a3.663,3.663,0,0,1,3.74121-3.7959A3.299,3.299,0,0,1,39.93,74.92842l-.77051.42871a2.4888,2.4888,0,0,0-2.0459-1.06641,2.98767,2.98767,0,0,0,0,5.96289,2.46239,2.46239,0,0,0,2.0459-1.06738l.78125.42871a3.337,3.337,0,0,1-2.82715,1.45215A3.66278,3.66278,0,0,1,33.37242,77.27217Z"/><path class="cls-6" d="M41.183,73.59736h.82519v7.33789H41.183Z"/><path class="cls-6" d="M43.62535,74.16963a.55569.55569,0,0,1,1.11133,0,.55569.55569,0,1,1-1.11133,0Zm.14258,1.45215h.82519v5.31347h-.82519Z"/><path class="cls-6" d="M48.66344,75.48994a2.58051,2.58051,0,0,1,2.55273,2.84863v.209H46.91441a1.87159,1.87159,0,0,0,1.91407,1.83789,2.32582,2.32582,0,0,0,1.63964-.6709l.39551.53906a2.88939,2.88939,0,0,1-2.1123.81348,2.79194,2.79194,0,0,1-.08789-5.57715Zm-1.749,2.45313h3.48731a1.72244,1.72244,0,0,0-1.749-1.77149A1.77235,1.77235,0,0,0,46.91441,77.94307Z"/><path class="cls-6" d="M56.24254,77.45869c0-.93555-.47363-1.23242-1.18848-1.23242a2.05309,2.05309,0,0,0-1.57324.82519v3.88379h-.8252V75.62178h.8252v.76953a2.63838,2.63838,0,0,1,1.89258-.90137,1.50987,1.50987,0,0,1,1.69433,1.71582v3.72949h-.82519Z"/><path class="cls-6" d="M58.99156,79.82392V76.34736h-.87988v-.72558h.87988V74.16963h.8252v1.45215h1.07812v.72558H59.81676v3.30078c0,.39551.17578.68164.53906.68164a.79667.79667,0,0,0,.56152-.21972l.24121.61621a1.34647,1.34647,0,0,1-.98925.34082A1.08751,1.08751,0,0,1,58.99156,79.82392Z"/><line class="cls-5" x1="322.78069" y1="59.82842" x2="322.78069" y2="64.24018"/><line class="cls-5" x1="318.33426" y1="59.82842" x2="318.33426" y2="64.24018"/><line class="cls-5" x1="313.88783" y1="59.82842" x2="313.88783" y2="64.24018"/><line class="cls-5" x1="322.78069" y1="51.00489" x2="322.78069" y2="55.41665"/><line class="cls-5" x1="318.33426" y1="51.00489" x2="318.33426" y2="55.41665"/><line class="cls-5" x1="313.88783" y1="51.00489" x2="313.88783" y2="55.41665"/><line class="cls-5" x1="322.78069" y1="42.18136" x2="322.78069" y2="46.59312"/><line class="cls-5" x1="318.33426" y1="42.18136" x2="318.33426" y2="46.59312"/><line class="cls-5" x1="313.88783" y1="42.18136" x2="313.88783" y2="46.59312"/><path class="cls-6" d="M289.43246,43.65194a.73532.73532,0,1,1-.741.7353.7382.7382,0,0,1,.741-.7353m0-1a1.7353,1.7353,0,1,0,1.74109,1.7353,1.74013,1.74013,0,0,0-1.74109-1.7353Z"/><path class="cls-6" d="M289.43246,52.47548a.73531.73531,0,1,1-.741.73529.7382.7382,0,0,1,.741-.73529m0-1a1.7353,1.7353,0,1,0,1.74109,1.73529,1.74013,1.74013,0,0,0-1.74109-1.73529Z"/><path class="cls-6" d="M289.43246,61.299a.73531.73531,0,1,1-.741.73529.7382.7382,0,0,1,.741-.73529m0-1a1.7353,1.7353,0,1,0,1.74109,1.73529,1.74013,1.74013,0,0,0-1.74109-1.73529Z"/><path class="cls-7" d="M287.20347,58.35783h38.50819a1.51545,1.51545,0,0,1,1.51545,1.51545v4.36113a1.47635,1.47635,0,0,1-1.47635,1.47635H287.20347a1.47635,1.47635,0,0,1-1.47635-1.47635V59.83418A1.47635,1.47635,0,0,1,287.20347,58.35783Z"/><rect class="cls-7" x="285.72711" y="49.5343" width="41.5" height="7.35294" rx="1.47635"/><rect class="cls-7" x="285.72711" y="40.71077" width="41.5" height="7.35294" rx="1.47635"/><path class="cls-6" d="M291.41832,79.20771a3.10311,3.10311,0,0,0,2.31055,1.0459c1.30957,0,1.72754-.7041,1.72754-1.26562,0-.87989-.89161-1.12207-1.85938-1.38574-1.17676-.3086-2.48633-.63868-2.48633-2.08008,0-1.21,1.07813-2.03516,2.51953-2.03516a3.44951,3.44951,0,0,1,2.60743,1.02344l-.55079.6709a2.80455,2.80455,0,0,0-2.123-.87989c-.87989,0-1.50684.47266-1.50684,1.166,0,.7373.84668.957,1.78223,1.21,1.19922.31934,2.56347.69336,2.56347,2.2334,0,1.06738-.72656,2.15625-2.707,2.15625a3.63367,3.63367,0,0,1-2.8164-1.166Z"/><path class="cls-6" d="M300.15269,75.48994a2.58051,2.58051,0,0,1,2.55274,2.84863v.209h-4.30176a1.87159,1.87159,0,0,0,1.91406,1.83789,2.32582,2.32582,0,0,0,1.63965-.6709l.39551.53906a2.88939,2.88939,0,0,1-2.1123.81348,2.79194,2.79194,0,0,1-.0879-5.57715Zm-1.749,2.45313H301.891a1.72245,1.72245,0,0,0-1.749-1.77149A1.77235,1.77235,0,0,0,298.40367,77.94307Z"/><path class="cls-6" d="M304.14586,75.62178h.82519v.85742a2.2586,2.2586,0,0,1,1.77051-.96778v.84766a1.42115,1.42115,0,0,0-.33008-.0332,1.94189,1.94189,0,0,0-1.44043.84668v3.76269h-.82519Z"/><path class="cls-6" d="M307.09312,75.62178h.89161l1.7705,4.35644,1.76075-4.35644h.90234l-2.21191,5.31347h-.90235Z"/><path class="cls-6" d="M315.69469,75.48994a2.58051,2.58051,0,0,1,2.55273,2.84863v.209h-4.30176a1.87283,1.87283,0,0,0,1.91407,1.83789,2.32411,2.32411,0,0,0,1.63964-.6709l.39649.53906a2.88942,2.88942,0,0,1-2.11231.81348,2.79193,2.79193,0,0,1-.08886-5.57715Zm-1.749,2.45313H317.433a1.72244,1.72244,0,0,0-1.749-1.77149A1.773,1.773,0,0,0,313.94566,77.94307Z"/><path class="cls-6" d="M319.68785,75.62178h.8252v.85742a2.25857,2.25857,0,0,1,1.7705-.96778v.84766a1.42112,1.42112,0,0,0-.33007-.0332,1.94187,1.94187,0,0,0-1.44043.84668v3.76269h-.8252Z"/><path class="cls-6" d="M24.71031,34.47187V27.134h.8252v.792a2.22,2.22,0,0,1,1.793-.92383c1.39746,0,2.36523,1.05566,2.36523,2.7832,0,1.71582-.96777,2.794-2.36523,2.794a2.17751,2.17751,0,0,1-1.793-.93457v2.82714Zm2.40918-6.73339a1.96607,1.96607,0,0,0-1.584.84765v2.39844a1.97438,1.97438,0,0,0,1.584.85742c1.06738,0,1.70606-.87988,1.70606-2.05664C28.82555,28.60762,28.18687,27.73848,27.11949,27.73848Z"/><path class="cls-6" d="M30.82652,29.78535a2.63364,2.63364,0,1,1,5.25879,0,2.63424,2.63424,0,1,1-5.25879,0Zm4.38965,0a1.78537,1.78537,0,1,0-3.53223,0,1.78664,1.78664,0,1,0,3.53223,0Z"/><path class="cls-6" d="M37.53648,27.134h.8252v.85743a2.25889,2.25889,0,0,1,1.77148-.96778v.84766a1.43282,1.43282,0,0,0-.33007-.0332,1.94548,1.94548,0,0,0-1.44141.84667v3.7627h-.8252Z"/><path class="cls-6" d="M41.44176,31.33613V27.85957H40.5609V27.134h.88086V25.68184H42.267V27.134h1.07813v.72559H42.267v3.30078c0,.39551.17578.68164.53907.68164a.796.796,0,0,0,.56054-.21973l.24219.61622a1.3474,1.3474,0,0,1-.99023.34082A1.08682,1.08682,0,0,1,41.44176,31.33613Z"/><path class="cls-6" d="M48.12926,31.00605a1.89358,1.89358,0,0,0,1.57324.74805c1.48535,0,2.06836-1.48535,2.06836-2.87109a2.51473,2.51473,0,0,0-.01172-.29688,2.63089,2.63089,0,0,1-2.06836,1.14356,2.2265,2.2265,0,0,1-2.40918-2.34278,2.41181,2.41181,0,0,1,2.56348-2.39843c2.05761,0,2.83886,1.793,2.83886,3.79589,0,1.9795-.9248,3.78418-2.98144,3.78418a2.55176,2.55176,0,0,1-2.03516-.87988ZM49.889,25.80293a1.59911,1.59911,0,0,0-1.68261,1.55078,1.519,1.519,0,0,0,1.69336,1.584,2.19615,2.19615,0,0,0,1.82714-1.08886C51.64977,26.93574,51.16539,25.80293,49.889,25.80293Z"/><path class="cls-6" d="M53.94859,31.7209c2.63965-2.0791,4.07032-3.29981,4.07032-4.56543a1.37229,1.37229,0,0,0-1.5293-1.3418,2.45377,2.45377,0,0,0-1.99121.92383l-.56153-.583a3.1793,3.1793,0,0,1,2.55274-1.15527,2.233,2.233,0,0,1,2.46387,2.15625c0,1.49609-1.51758,2.86035-3.56446,4.47754h3.59766v.81445H53.94859Z"/><path class="cls-6" d="M61.89,26.31953l-1.17676,1.24316-.55078-.56054,1.83789-1.89258h.80274v7.33789H61.89Z"/><path class="cls-6" d="M66.09215,28.66328a1.928,1.928,0,0,1-1.62891-1.76074c0-1.32031,1.28809-1.90332,2.50879-1.90332,1.21,0,2.51953.583,2.51953,1.90332a1.93866,1.93866,0,0,1-1.63965,1.76074,2.17619,2.17619,0,0,1,1.75,1.92481c0,1.24316-1.18847,1.99121-2.62988,1.99121-1.45215,0-2.62891-.73731-2.62891-1.99121A2.17517,2.17517,0,0,1,66.09215,28.66328Zm.87988.40625c-.45117.05566-1.71582.46289-1.71582,1.41992,0,.792.80273,1.27637,1.71582,1.27637.90234,0,1.70508-.48438,1.70508-1.27637C68.67711,29.53242,67.4232,29.12519,66.972,29.06953Zm0-3.25586c-.89062,0-1.59473.45117-1.59473,1.21,0,.8916,1.1543,1.18848,1.59473,1.26563.45117-.07715,1.5957-.374,1.5957-1.26563C68.56773,26.26484,67.85191,25.81367,66.972,25.81367Z"/><path class="cls-6" d="M289.25719,34.47285V27.135h.82519v.792a2.22008,2.22008,0,0,1,1.793-.92383c1.39746,0,2.36524,1.05567,2.36524,2.78321,0,1.71582-.96778,2.79394-2.36524,2.79394a2.17753,2.17753,0,0,1-1.793-.93457v2.82715Zm2.40918-6.7334a1.96609,1.96609,0,0,0-1.584.84766v2.39844a1.97441,1.97441,0,0,0,1.584.85742c1.06738,0,1.70605-.87988,1.70605-2.05664C293.37242,28.60859,292.73375,27.73945,291.66637,27.73945Z"/><path class="cls-6" d="M295.3734,29.78633a2.63365,2.63365,0,1,1,5.25879,0,2.63424,2.63424,0,1,1-5.25879,0Zm4.38965,0a1.78537,1.78537,0,1,0-3.53223,0,1.78664,1.78664,0,1,0,3.53223,0Z"/><path class="cls-6" d="M302.08336,27.135h.82519v.85742a2.25894,2.25894,0,0,1,1.77149-.96777v.84668a1.493,1.493,0,0,0-.33008-.03223,1.94549,1.94549,0,0,0-1.44141.84668v3.7627h-.82519Z"/><path class="cls-6" d="M305.98863,31.33711V27.86055h-.88086V27.135h.88086V25.68281h.8252V27.135H307.892v.72559h-1.07812v3.30078c0,.39551.17578.68164.53906.68164a.796.796,0,0,0,.56055-.21973l.24218.61621a1.34738,1.34738,0,0,1-.99023.34082A1.08682,1.08682,0,0,1,305.98863,31.33711Z"/><path class="cls-6" d="M313.6107,28.66426a1.92893,1.92893,0,0,1-1.62793-1.76075c0-1.32031,1.28711-1.90332,2.50879-1.90332,1.21,0,2.51856.583,2.51856,1.90332a1.93959,1.93959,0,0,1-1.63868,1.76075,2.17517,2.17517,0,0,1,1.749,1.9248c0,1.24317-1.18848,1.99121-2.62891,1.99121-1.45312,0-2.62988-.7373-2.62988-1.99121A2.17517,2.17517,0,0,1,313.6107,28.66426Zm.88086.40625c-.45117.05566-1.71679.46289-1.71679,1.41992,0,.792.80273,1.27637,1.71679,1.27637.90137,0,1.70508-.48438,1.70508-1.27637C316.19664,29.5334,314.94176,29.12617,314.49156,29.07051Zm0-3.25586c-.8916,0-1.5957.45117-1.5957,1.21,0,.8916,1.15527,1.18848,1.5957,1.26562.4502-.07714,1.59473-.374,1.59473-1.26562C316.08629,26.26582,315.37144,25.81465,314.49156,25.81465Z"/><path class="cls-6" d="M321.15758,25.00019c3.78688.04988,3.78228,7.51945.00013,7.58009C317.37108,32.52291,317.36658,25.0473,321.15758,25.00019Zm0,.81446c-2.55072-.02194-2.54428,5.97054-.00014,5.95215C323.7019,31.78551,323.70826,25.793,321.15758,25.81465Z"/></svg>