<svg id="Layer_1" data-name="Layer 1" xmlns="http://www.w3.org/2000/svg" viewBox="0 0 397.79064 130.51716"><defs><style>.cls-1{fill:#fff;stroke:#231f20;}.cls-1,.cls-2{stroke-linecap:round;}.cls-1,.cls-4,.cls-5{stroke-miterlimit:10;}.cls-2,.cls-4,.cls-5{fill:none;}.cls-2,.cls-4{stroke:#010101;}.cls-2{stroke-linejoin:round;}.cls-3{fill:#010101;}.cls-5{stroke:#e41e2d;}.cls-6{fill:#e41e2d;}.cls-7{fill:#e6e6e6;}.cls-8{fill:#000101;}</style></defs><rect class="cls-1" x="314.7041" y="35.76319" width="70.9217" height="81.94933"/><line class="cls-2" x1="366.46853" y1="73.55307" x2="366.46853" y2="77.96484"/><line class="cls-2" x1="362.0221" y1="73.55307" x2="362.0221" y2="77.96484"/><line class="cls-2" x1="357.57567" y1="73.55307" x2="357.57567" y2="77.96484"/><line class="cls-2" x1="366.46853" y1="64.72954" x2="366.46853" y2="69.14131"/><line class="cls-2" x1="362.0221" y1="64.72954" x2="362.0221" y2="69.14131"/><line class="cls-2" x1="357.57567" y1="64.72954" x2="357.57567" y2="69.14131"/><line class="cls-2" x1="366.46853" y1="55.90601" x2="366.46853" y2="60.31778"/><line class="cls-2" x1="362.0221" y1="55.90601" x2="362.0221" y2="60.31778"/><line class="cls-2" x1="357.57567" y1="55.90601" x2="357.57567" y2="60.31778"/><path class="cls-3" d="M333.1203,57.37659a.73531.73531,0,1,1-.74109.73529.73821.73821,0,0,1,.74109-.73529m0-1a1.7353,1.7353,0,1,0,1.74109,1.73529,1.74013,1.74013,0,0,0-1.74109-1.73529Z"/><path class="cls-3" d="M333.1203,66.20014a.73531.73531,0,1,1-.74109.73529.73821.73821,0,0,1,.74109-.73529m0-1a1.7353,1.7353,0,1,0,1.74109,1.73529,1.74013,1.74013,0,0,0-1.74109-1.73529Z"/><path class="cls-3" d="M333.1203,75.02368a.73531.73531,0,1,1-.74109.73529.73818.73818,0,0,1,.74109-.73529m0-1a1.7353,1.7353,0,1,0,1.74109,1.73529,1.74014,1.74014,0,0,0-1.74109-1.73529Z"/><path class="cls-4" d="M330.89131,72.08248H369.3995a1.51545,1.51545,0,0,1,1.51545,1.51545v4.36113a1.47635,1.47635,0,0,1-1.47635,1.47635H330.89131a1.47635,1.47635,0,0,1-1.47635-1.47635V73.55884A1.47635,1.47635,0,0,1,330.89131,72.08248Z"/><rect class="cls-4" x="329.41495" y="63.25895" width="41.5" height="7.35294" rx="1.47635"/><rect class="cls-4" x="329.41495" y="54.43542" width="41.5" height="7.35294" rx="1.47635"/><path class="cls-3" d="M342.64882,91.29431h-4.291v3.36621h-.91309V87.32263h.91309v3.15722h4.291V87.32263h.91309v7.33789h-.91309Z"/><path class="cls-3" d="M347.20156,88.1361h-2.32129v-.81347h5.56738v.81347h-2.333v6.52442h-.91308Z"/><path class="cls-3" d="M353.58242,88.1361h-2.32129v-.81347h5.5664v.81347h-2.332v6.52442h-.91308Z"/><path class="cls-3" d="M358.14687,87.32263h2.94824a2.21312,2.21312,0,1,1,0,4.42285H359.06v2.915h-.91309Zm2.83887.81347H359.06V90.931h1.92578a1.39892,1.39892,0,1,0,0-2.79492Z"/><path class="cls-3" d="M335.10683,103.933a3.10317,3.10317,0,0,0,2.31055,1.0459c1.30957,0,1.72754-.70411,1.72754-1.26563,0-.87988-.89161-1.12207-1.85938-1.38574-1.17676-.3086-2.48633-.63867-2.48633-2.08008,0-1.21,1.07813-2.03516,2.51953-2.03516a3.44953,3.44953,0,0,1,2.60743,1.02344l-.55078.6709a2.80458,2.80458,0,0,0-2.123-.87988c-.87988,0-1.50684.47265-1.50684,1.166,0,.73731.84668.957,1.78223,1.21,1.19922.31934,2.56348.69336,2.56348,2.2334,0,1.06738-.72657,2.15625-2.707,2.15625a3.6337,3.6337,0,0,1-2.8164-1.166Z"/><path class="cls-3" d="M343.84121,100.2152a2.58051,2.58051,0,0,1,2.55273,2.84864v.209h-4.30176a1.87159,1.87159,0,0,0,1.91406,1.83789,2.32582,2.32582,0,0,0,1.63965-.6709l.39551.53907a2.88942,2.88942,0,0,1-2.1123.81347,2.79194,2.79194,0,0,1-.08789-5.57715Zm-1.749,2.45313h3.48731a1.72245,1.72245,0,0,0-1.749-1.77149A1.77235,1.77235,0,0,0,342.09218,102.66833Z"/><path class="cls-3" d="M347.83437,100.347h.82519v.85742a2.25859,2.25859,0,0,1,1.77051-.96777v.84765a1.42115,1.42115,0,0,0-.33008-.0332,1.94191,1.94191,0,0,0-1.44043.84668v3.7627h-.82519Z"/><path class="cls-3" d="M350.78164,100.347h.8916l1.7705,4.35644,1.76075-4.35644h.90234l-2.21191,5.31348h-.90235Z"/><path class="cls-3" d="M359.38417,100.2152a2.58051,2.58051,0,0,1,2.55274,2.84864v.209h-4.30176a1.87159,1.87159,0,0,0,1.91406,1.83789,2.32582,2.32582,0,0,0,1.63965-.6709l.39551.53907a2.88943,2.88943,0,0,1-2.11231.81347,2.79194,2.79194,0,0,1-.08789-5.57715Zm-1.749,2.45313h3.48731a1.72245,1.72245,0,0,0-1.749-1.77149A1.77235,1.77235,0,0,0,357.63515,102.66833Z"/><path class="cls-3" d="M363.37636,100.347h.8252v.85742a2.25888,2.25888,0,0,1,1.77148-.96777v.84765a1.43286,1.43286,0,0,0-.33008-.0332,1.94545,1.94545,0,0,0-1.4414.84668v3.7627h-.8252Z"/><line class="cls-5" x1="64.94922" y1="44.63117" x2="304.68414" y2="44.63117"/><polygon class="cls-6" points="301.371 48.721 300.689 47.989 304.3 44.632 300.689 41.275 301.371 40.542 305.769 44.632 301.371 48.721"/><rect class="cls-7" x="99.91726" y="10.94979" width="163.61747" height="42.68136"/><path class="cls-8" d="M107.15371,20.60681v2.85156h-.90332V16.349h2.30468a3.09019,3.09019,0,0,1,.90528.15137,2.287,2.287,0,0,1,.75.41016,1.93121,1.93121,0,0,1,.50976.66406,2.27764,2.27764,0,0,1,0,1.81445,1.92949,1.92949,0,0,1-.50976.66113,2.2517,2.2517,0,0,1-.75.41016,2.935,2.935,0,0,1-.90528.14649Zm0-.74219h1.40136a1.76029,1.76029,0,0,0,.57617-.09961,1.38439,1.38439,0,0,0,.459-.27149,1.23542,1.23542,0,0,0,.30469-.42675,1.42383,1.42383,0,0,0,.11035-.57422,1.47457,1.47457,0,0,0-.11035-.58106,1.2854,1.2854,0,0,0-.30274-.43945,1.33625,1.33625,0,0,0-.459-.27832,1.77716,1.77716,0,0,0-.57813-.10254h-1.40136Z"/><path class="cls-8" d="M117.01406,20.31384a5.44435,5.44435,0,0,1-.06543.76953,4.22689,4.22689,0,0,1-.18848.749,3.2508,3.2508,0,0,1-.32422.67383,2.39832,2.39832,0,0,1-.47168.54687,2.10412,2.10412,0,0,1-.627.36914,2.41973,2.41973,0,0,1-1.58691,0,2.10906,2.10906,0,0,1-.62793-.36914,2.46925,2.46925,0,0,1-.47364-.54882,3.39224,3.39224,0,0,1-.3291-.67676,4.23741,4.23741,0,0,1-.19336-.74707,5.24865,5.24865,0,0,1-.06836-.7666v-.81055a5.43343,5.43343,0,0,1,.06641-.76856,4.02025,4.02025,0,0,1,.19043-.75,3.45758,3.45758,0,0,1,.32715-.67578,2.44433,2.44433,0,0,1,.4707-.55175,2.05392,2.05392,0,0,1,.62793-.3711,2.21068,2.21068,0,0,1,.793-.13476,2.23465,2.23465,0,0,1,.7959.13476,2.061,2.061,0,0,1,.62988.36817,2.3931,2.3931,0,0,1,.47168.5498,3.51411,3.51411,0,0,1,.32715.67578,4.17852,4.17852,0,0,1,.19043.752,5.49589,5.49589,0,0,1,.06543.77148Zm-.89356-.82032c-.00293-.16894-.01465-.3457-.03418-.52929a3.73622,3.73622,0,0,0-.09961-.54688,2.97045,2.97045,0,0,0-.18847-.51758,1.68158,1.68158,0,0,0-.293-.43457,1.294,1.294,0,0,0-.415-.29785,1.31978,1.31978,0,0,0-.55664-.11035,1.2977,1.2977,0,0,0-.55176.11231,1.3439,1.3439,0,0,0-.415.30078,1.68158,1.68158,0,0,0-.293.43457,2.89033,2.89033,0,0,0-.1875.51757,3.74549,3.74549,0,0,0-.10254.54688c-.02148.18359-.0332.3584-.03711.52441v.82032c.00391.166.01563.34179.03711.52734a3.63859,3.63859,0,0,0,.1045.5498,3.14047,3.14047,0,0,0,.19043.51954,1.69835,1.69835,0,0,0,.293.4375,1.34121,1.34121,0,0,0,.415.2998,1.29639,1.29639,0,0,0,.55664.11231,1.27617,1.27617,0,0,0,.97461-.41211,1.72608,1.72608,0,0,0,.28809-.43457,3.16282,3.16282,0,0,0,.18555-.51758,3.6224,3.6224,0,0,0,.09765-.54981c.01758-.18554.02832-.3623.03125-.53222Z"/><path class="cls-8" d="M122.22792,21.66149a.97643.97643,0,0,0-.14941-.55176,1.31992,1.31992,0,0,0-.38281-.37792,2.49182,2.49182,0,0,0-.51563-.25684c-.18652-.06836-.36718-.12988-.53906-.18555a7.92374,7.92374,0,0,1-.76465-.293,3.3206,3.3206,0,0,1-.708-.41992,2.13863,2.13863,0,0,1-.52246-.58789,1.53178,1.53178,0,0,1-.20215-.79883,1.65293,1.65293,0,0,1,.20215-.82031,1.97813,1.97813,0,0,1,.53028-.61035,2.36792,2.36792,0,0,1,.74218-.37793,2.76831,2.76831,0,0,1,.835-.12988,2.63739,2.63739,0,0,1,.89356.15429,2.47624,2.47624,0,0,1,.76172.43164,2.129,2.129,0,0,1,.53222.67383,2.03521,2.03521,0,0,1,.21.88379H122.223a1.997,1.997,0,0,0-.15137-.55859,1.40521,1.40521,0,0,0-.29785-.43262,1.31018,1.31018,0,0,0-.44238-.28027,1.564,1.564,0,0,0-.57813-.10059,1.77042,1.77042,0,0,0-.50585.07324,1.36557,1.36557,0,0,0-.43946.21973,1.11993,1.11993,0,0,0-.30761.36133,1.04674,1.04674,0,0,0-.11426.498.89281.89281,0,0,0,.15625.52051,1.34518,1.34518,0,0,0,.38281.3584,2.55061,2.55061,0,0,0,.50293.24414q.271.09814.51074.1709c.17578.05566.35254.11816.53223.18848a4.3804,4.3804,0,0,1,.51758.24121,3.41087,3.41087,0,0,1,.46386.30761,2.08286,2.08286,0,0,1,.376.38868,1.72752,1.72752,0,0,1,.3418,1.05664,1.5989,1.5989,0,0,1-.21289.835,1.91161,1.91161,0,0,1-.54883.59375,2.50618,2.50618,0,0,1-.76172.35644,3.14644,3.14644,0,0,1-.84961.11914,3.00074,3.00074,0,0,1-.92773-.14648,2.67208,2.67208,0,0,1-.81348-.42188,2.22188,2.22188,0,0,1-.583-.67382,1.92111,1.92111,0,0,1-.23926-.90625h.92286a1.70567,1.70567,0,0,0,.18066.58886,1.42971,1.42971,0,0,0,.35156.43457,1.49016,1.49016,0,0,0,.49512.26856,2.01438,2.01438,0,0,0,.61328.08984,2.07539,2.07539,0,0,0,.51953-.06543,1.41047,1.41047,0,0,0,.457-.20508,1.13829,1.13829,0,0,0,.32715-.35156A.97488.97488,0,0,0,122.22792,21.66149Z"/><path class="cls-8" d="M129.40273,17.12048h-2.19727v6.33789h-.8789V17.12048h-2.19727V16.349h5.27344Z"/><path class="cls-8" d="M141.268,23.45837h-.85449V20.17223h-2.915v3.28614h-.84961V16.349h.84961v3.05664h2.915V16.349h.85449Z"/><path class="cls-8" d="M147.78359,17.12048h-2.19727v6.33789h-.8789V17.12048h-2.19727V16.349h5.27344Z"/><path class="cls-8" d="M154.12831,17.12048h-2.19726v6.33789h-.87891V17.12048h-2.19726V16.349h5.27343Z"/><path class="cls-8" d="M156.392,20.60681v2.85156h-.90332V16.349h2.30468a3.09666,3.09666,0,0,1,.90625.15137,2.29211,2.29211,0,0,1,.749.41016,1.9458,1.9458,0,0,1,.51074.66406,2.28857,2.28857,0,0,1,0,1.81445,1.94414,1.94414,0,0,1-.51074.66113,2.25656,2.25656,0,0,1-.749.41016,2.9411,2.9411,0,0,1-.90625.14649Zm0-.74219h1.40136a1.75584,1.75584,0,0,0,.57618-.09961,1.37465,1.37465,0,0,0,.459-.27149,1.22505,1.22505,0,0,0,.30566-.42675,1.42367,1.42367,0,0,0,.10938-.57422,1.4743,1.4743,0,0,0-.10938-.58106,1.299,1.299,0,0,0-.30273-.43945,1.355,1.355,0,0,0-.459-.27832,1.78313,1.78313,0,0,0-.57911-.10254H156.392Z"/><path class="cls-8" d="M164.33632,23.45837H163.433v-5.957l-1.86035.708v-.82519l2.69043-1.03516h.07324Z"/><path class="cls-8" d="M167.59316,22.87243A.78459.78459,0,0,1,167.64,22.599a.64809.64809,0,0,1,.13379-.22168.60921.60921,0,0,1,.21973-.14941.82429.82429,0,0,1,.30762-.05371.84761.84761,0,0,1,.31054.05371.63769.63769,0,0,1,.22461.14941.655.655,0,0,1,.13672.22168.80759.80759,0,0,1,.0459.27344.77236.77236,0,0,1-.0459.2666.62488.62488,0,0,1-.13672.2168.61447.61447,0,0,1-.22461.14453.87018.87018,0,0,1-.31054.05078.84634.84634,0,0,1-.30762-.05078.587.587,0,0,1-.21973-.14453.61809.61809,0,0,1-.13379-.2168A.75041.75041,0,0,1,167.59316,22.87243Z"/><path class="cls-8" d="M173.392,23.45837h-.90332v-5.957l-1.86036.708v-.82519l2.69043-1.03516h.07325Z"/><path class="cls-8" d="M187.268,21.3197a3.08243,3.08243,0,0,1-.2539.90625,2.35273,2.35273,0,0,1-.49512.708,2.1798,2.1798,0,0,1-.72266.459,2.54667,2.54667,0,0,1-.93066.16308,2.42086,2.42086,0,0,1-.79785-.124,2.19,2.19,0,0,1-.63965-.34473,2.2572,2.2572,0,0,1-.4834-.51757,3.07347,3.07347,0,0,1-.33691-.64942,3.8665,3.8665,0,0,1-.2002-.7373,5.07472,5.07472,0,0,1-.07129-.78125v-.99121a5.08567,5.08567,0,0,1,.07129-.78125,3.88636,3.88636,0,0,1,.2002-.73731,3.13693,3.13693,0,0,1,.33691-.65137,2.25112,2.25112,0,0,1,.4834-.5205,2.19617,2.19617,0,0,1,.63672-.34375,2.42177,2.42177,0,0,1,.80078-.125,2.59525,2.59525,0,0,1,.95215.16406,2.07068,2.07068,0,0,1,.72265.46387,2.29324,2.29324,0,0,1,.48633.71972,3.24515,3.24515,0,0,1,.24121.92774h-.90332a2.6268,2.6268,0,0,0-.15136-.60059,1.642,1.642,0,0,0-.28809-.48828,1.268,1.268,0,0,0-.44141-.3291,1.46962,1.46962,0,0,0-.61816-.12012,1.4323,1.4323,0,0,0-.56836.10547,1.29024,1.29024,0,0,0-.4248.28516,1.62537,1.62537,0,0,0-.29786.41992,2.75569,2.75569,0,0,0-.19336.50781,3.5723,3.5723,0,0,0-.10449.54981,4.75908,4.75908,0,0,0-.03222.54394v1.001a4.789,4.789,0,0,0,.03222.54492,3.64224,3.64224,0,0,0,.10449.55176,2.82986,2.82986,0,0,0,.19043.50976,1.59533,1.59533,0,0,0,.29786.42285,1.34564,1.34564,0,0,0,.4248.28809,1.45117,1.45117,0,0,0,.57129.10449,1.55289,1.55289,0,0,0,.61816-.1123,1.2315,1.2315,0,0,0,.44141-.31446,1.55611,1.55611,0,0,0,.28809-.47851,2.59734,2.59734,0,0,0,.15136-.59863Z"/><path class="cls-8" d="M191.04238,20.558h-1.4209v2.90039H188.723V16.349h2.085a3.5,3.5,0,0,1,.9375.1416,2.25019,2.25019,0,0,1,.76856.39551,1.83575,1.83575,0,0,1,.51758.66211,2.15729,2.15729,0,0,1,.18847.93457,1.8888,1.8888,0,0,1-.376,1.15723,2.03945,2.03945,0,0,1-.41993.415,2.65676,2.65676,0,0,1-.53711.30761l1.50879,3.03711-.00488.0586h-.95215Zm-1.4209-.74219h1.21094a1.89284,1.89284,0,0,0,.57129-.09473,1.42793,1.42793,0,0,0,.4707-.26172,1.217,1.217,0,0,0,.32031-.417,1.31494,1.31494,0,0,0,.11719-.56933,1.48976,1.48976,0,0,0-.11231-.59766,1.20051,1.20051,0,0,0-.3125-.42969,1.32822,1.32822,0,0,0-.47656-.26172,2.10014,2.10014,0,0,0-.60254-.09277h-1.18652Z"/><path class="cls-8" d="M195.724,22.69177h3.47656v.7666H194.8207V16.349h.90332Z"/><path class="cls-8" d="M204.5873,20.31872h-2.959v3.13965h-.91308V16.349h4.36523v.77149h-3.45215v2.43164h2.959Z"/><path class="cls-8" d="M110.62539,35.45837h-.8545V32.17223h-2.915v3.28614h-.84961V28.349h.84961v3.05664h2.915V28.349h.8545Z"/><path class="cls-8" d="M117.00722,32.31384a5.447,5.447,0,0,1-.06641.76953,4.22335,4.22335,0,0,1-.1875.749,3.30419,3.30419,0,0,1-.32519.67383,2.41892,2.41892,0,0,1-.4707.54687,2.10931,2.10931,0,0,1-.62793.36914,2.41976,2.41976,0,0,1-1.58692,0,2.10412,2.10412,0,0,1-.62695-.36914,2.41974,2.41974,0,0,1-.47363-.54882,3.395,3.395,0,0,1-.33008-.67676,4.23451,4.23451,0,0,1-.19238-.74707,4.99074,4.99074,0,0,1-.06836-.7666v-.81055a5.43075,5.43075,0,0,1,.06543-.76856,4.17824,4.17824,0,0,1,.19043-.75,3.51407,3.51407,0,0,1,.32714-.67578,2.42411,2.42411,0,0,1,.47168-.55175,2.04909,2.04909,0,0,1,.627-.3711,2.41191,2.41191,0,0,1,1.58984,0,2.08429,2.08429,0,0,1,.62988.36817,2.41335,2.41335,0,0,1,.47071.5498,3.45815,3.45815,0,0,1,.32715.67578,4.02044,4.02044,0,0,1,.19042.752,5.499,5.499,0,0,1,.06641.77148Zm-.89355-.82032c-.00391-.16894-.01465-.3457-.03418-.52929a3.61429,3.61429,0,0,0-.10059-.54688,2.88917,2.88917,0,0,0-.1875-.51758,1.68133,1.68133,0,0,0-.293-.43457,1.30475,1.30475,0,0,0-.415-.29785,1.326,1.326,0,0,0-.55664-.11035,1.29146,1.29146,0,0,0-.55176.11231,1.33241,1.33241,0,0,0-.415.30078,1.68133,1.68133,0,0,0-.293.43457,2.96926,2.96926,0,0,0-.18848.51757,4.0259,4.0259,0,0,0-.10254.54688c-.02051.18359-.0332.3584-.03613.52441v.82032c.00293.166.01562.34179.03613.52734a3.76688,3.76688,0,0,0,.10547.5498,3.14137,3.14137,0,0,0,.19043.51954,1.69812,1.69812,0,0,0,.293.4375,1.3298,1.3298,0,0,0,.415.2998,1.29023,1.29023,0,0,0,.55664.11231,1.276,1.276,0,0,0,.97363-.41211,1.67545,1.67545,0,0,0,.28809-.43457,2.98984,2.98984,0,0,0,.18554-.51758,3.39518,3.39518,0,0,0,.09766-.54981c.01855-.18554.02832-.3623.03223-.53222Z"/><path class="cls-8" d="M122.22109,33.66149a.97643.97643,0,0,0-.14942-.55176,1.31992,1.31992,0,0,0-.38281-.37792,2.49174,2.49174,0,0,0-.51562-.25684c-.18653-.06836-.36719-.12988-.53907-.18555a7.92358,7.92358,0,0,1-.76464-.293,3.3206,3.3206,0,0,1-.708-.41992,2.13847,2.13847,0,0,1-.52246-.58789,1.53169,1.53169,0,0,1-.20215-.79883,1.65283,1.65283,0,0,1,.20215-.82031,1.978,1.978,0,0,1,.53027-.61035,2.36786,2.36786,0,0,1,.74219-.37793,2.76831,2.76831,0,0,1,.835-.12988,2.63737,2.63737,0,0,1,.89355.15429,2.47612,2.47612,0,0,1,.76172.43164,2.12905,2.12905,0,0,1,.53223.67383,2.03534,2.03534,0,0,1,.21.88379h-.92773a1.997,1.997,0,0,0-.15137-.55859,1.40555,1.40555,0,0,0-.29785-.43262,1.31032,1.31032,0,0,0-.44239-.28027,1.564,1.564,0,0,0-.57812-.10059,1.77053,1.77053,0,0,0-.50586.07324,1.36552,1.36552,0,0,0-.43945.21973,1.12008,1.12008,0,0,0-.30762.36133,1.04685,1.04685,0,0,0-.11426.498.89288.89288,0,0,0,.15625.52051,1.34545,1.34545,0,0,0,.38281.3584,2.55088,2.55088,0,0,0,.50293.24414q.271.09814.51075.1709c.17578.05566.35253.11816.53222.18848a4.3804,4.3804,0,0,1,.51758.24121,3.411,3.411,0,0,1,.46387.30761,2.08281,2.08281,0,0,1,.376.38868,1.72752,1.72752,0,0,1,.3418,1.05664,1.5989,1.5989,0,0,1-.21289.835,1.91149,1.91149,0,0,1-.54883.59375,2.50607,2.50607,0,0,1-.76172.35644,3.14639,3.14639,0,0,1-.84961.11914,3.00079,3.00079,0,0,1-.92773-.14648,2.67219,2.67219,0,0,1-.81348-.42188,2.22185,2.22185,0,0,1-.583-.67382,1.92087,1.92087,0,0,1-.23926-.90625h.92285a1.7061,1.7061,0,0,0,.18066.58886,1.42959,1.42959,0,0,0,.35157.43457,1.49,1.49,0,0,0,.49511.26856,2.01438,2.01438,0,0,0,.61328.08984A2.07541,2.07541,0,0,0,121.31,34.724a1.41057,1.41057,0,0,0,.457-.20508,1.13853,1.13853,0,0,0,.32715-.35156A.975.975,0,0,0,122.22109,33.66149Z"/><path class="cls-8" d="M129.39589,29.12048h-2.19726v6.33789h-.87891V29.12048h-2.19726V28.349h5.27343Z"/><path class="cls-8" d="M130.59121,30.59509a.78459.78459,0,0,1,.04687-.27344.64784.64784,0,0,1,.13379-.22168.609.609,0,0,1,.21973-.14941.82427.82427,0,0,1,.30761-.05372.84762.84762,0,0,1,.31055.05372.63764.63764,0,0,1,.22461.14941.65494.65494,0,0,1,.13672.22168.80759.80759,0,0,1,.0459.27344.77241.77241,0,0,1-.0459.2666.62483.62483,0,0,1-.13672.21679.61457.61457,0,0,1-.22461.14454.8702.8702,0,0,1-.31055.05078.84632.84632,0,0,1-.30761-.05078.587.587,0,0,1-.21973-.14454.6179.6179,0,0,1-.13379-.21679A.75045.75045,0,0,1,130.59121,30.59509Zm0,4.27734a.78459.78459,0,0,1,.04687-.27344.64793.64793,0,0,1,.13379-.22168.60913.60913,0,0,1,.21973-.14941.82428.82428,0,0,1,.30761-.05371.84763.84763,0,0,1,.31055.05371.63778.63778,0,0,1,.22461.14941.655.655,0,0,1,.13672.22168.80759.80759,0,0,1,.0459.27344.77236.77236,0,0,1-.0459.2666.62488.62488,0,0,1-.13672.2168.61455.61455,0,0,1-.22461.14453.8702.8702,0,0,1-.31055.05078.84632.84632,0,0,1-.30761-.05078.587.587,0,0,1-.21973-.14453.61794.61794,0,0,1-.13379-.2168A.75041.75041,0,0,1,130.59121,34.87243Z"/><path class="cls-8" d="M143.10585,34.00329l1.67969-5.6543h.96192l-2.24122,7.10938h-.78613L140.474,28.349h.96679Z"/><path class="cls-8" d="M147.08437,28.349h4.29687v.78614h-1.7041v5.542h1.7041v.78125h-4.29687v-.78125h1.665v-5.542h-1.665Z"/><path class="cls-8" d="M157.433,33.3197a3.08243,3.08243,0,0,1-.2539.90625,2.35273,2.35273,0,0,1-.49512.708,2.1798,2.1798,0,0,1-.72266.459,2.54667,2.54667,0,0,1-.93066.16308,2.42082,2.42082,0,0,1-.79785-.124,2.19,2.19,0,0,1-.63965-.34473,2.2572,2.2572,0,0,1-.4834-.51757,3.07347,3.07347,0,0,1-.33691-.64942,3.8665,3.8665,0,0,1-.2002-.7373,5.07472,5.07472,0,0,1-.07129-.78125v-.99121a5.08567,5.08567,0,0,1,.07129-.78125,3.88636,3.88636,0,0,1,.2002-.73731,3.13693,3.13693,0,0,1,.33691-.65137,2.25112,2.25112,0,0,1,.4834-.5205,2.19617,2.19617,0,0,1,.63672-.34375,2.42177,2.42177,0,0,1,.80078-.125,2.59525,2.59525,0,0,1,.95215.16406,2.07068,2.07068,0,0,1,.72265.46387,2.29324,2.29324,0,0,1,.48633.71972,3.24515,3.24515,0,0,1,.24121.92774h-.90332a2.62629,2.62629,0,0,0-.15137-.60059,1.64174,1.64174,0,0,0-.28808-.48828,1.268,1.268,0,0,0-.44141-.3291,1.46962,1.46962,0,0,0-.61816-.12012,1.43227,1.43227,0,0,0-.56836.10547,1.29039,1.29039,0,0,0-.42481.28516,1.62534,1.62534,0,0,0-.29785.41992,2.755,2.755,0,0,0-.19336.50781,3.5723,3.5723,0,0,0-.10449.54981,4.75914,4.75914,0,0,0-.03223.54394v1.001a4.789,4.789,0,0,0,.03223.54492,3.64224,3.64224,0,0,0,.10449.55176,2.82986,2.82986,0,0,0,.19043.50976,1.59552,1.59552,0,0,0,.29785.42285,1.34579,1.34579,0,0,0,.42481.28809,1.45117,1.45117,0,0,0,.57129.10449,1.55289,1.55289,0,0,0,.61816-.1123,1.2315,1.2315,0,0,0,.44141-.31446,1.5559,1.5559,0,0,0,.28808-.47851,2.59684,2.59684,0,0,0,.15137-.59863Z"/><path class="cls-8" d="M163.67324,29.12048H161.476v6.33789h-.87891V29.12048H158.3998V28.349h5.27344Z"/><path class="cls-8" d="M164.99453,28.349h4.29687v.78614h-1.7041v5.542h1.7041v.78125h-4.29687v-.78125h1.665v-5.542h-1.665Z"/><path class="cls-8" d="M171.91933,28.349l1.15723,3.55469,1.25-3.55469h1.123v7.10938h-.8789V32.62145l.07324-2.96875-1.31348,3.82813h-.51757l-1.20606-3.72559.07324,2.86621v2.83692h-.8789V28.349Z"/><path class="cls-8" d="M177.8871,34.87243a.78459.78459,0,0,1,.04688-.27344.64777.64777,0,0,1,.13379-.22168.60909.60909,0,0,1,.21972-.14941.82433.82433,0,0,1,.30762-.05371.84767.84767,0,0,1,.31055.05371.63778.63778,0,0,1,.22461.14941.655.655,0,0,1,.13672.22168.80759.80759,0,0,1,.0459.27344.77236.77236,0,0,1-.0459.2666.62488.62488,0,0,1-.13672.2168.61455.61455,0,0,1-.22461.14453.87024.87024,0,0,1-.31055.05078.84637.84637,0,0,1-.30762-.05078.58692.58692,0,0,1-.21972-.14453.6178.6178,0,0,1-.13379-.2168A.75042.75042,0,0,1,177.8871,34.87243Z"/><path class="cls-8" d="M186.12636,33.3197a3.11254,3.11254,0,0,1-.2539.90625,2.33813,2.33813,0,0,1-.4961.708,2.16983,2.16983,0,0,1-.72265.459,2.54144,2.54144,0,0,1-.92969.16308,2.42684,2.42684,0,0,1-.79883-.124,2.20253,2.20253,0,0,1-.63965-.34473,2.30087,2.30087,0,0,1-.4834-.51757,3.16737,3.16737,0,0,1-.33691-.64942,3.94,3.94,0,0,1-.2002-.7373,4.955,4.955,0,0,1-.07031-.78125v-.99121a4.96527,4.96527,0,0,1,.07031-.78125,3.96063,3.96063,0,0,1,.2002-.73731,3.23444,3.23444,0,0,1,.33691-.65137,2.29439,2.29439,0,0,1,.4834-.5205,2.20176,2.20176,0,0,1,.6377-.34375,2.4135,2.4135,0,0,1,.80078-.125,2.60263,2.60263,0,0,1,.95215.16406,2.0888,2.0888,0,0,1,.72265.46387,2.30736,2.30736,0,0,1,.48535.71972,3.24566,3.24566,0,0,1,.24219.92774H185.223a2.67855,2.67855,0,0,0-.15137-.60059,1.68407,1.68407,0,0,0-.28808-.48828,1.27175,1.27175,0,0,0-.44238-.3291,1.465,1.465,0,0,0-.61719-.12012,1.44059,1.44059,0,0,0-.56934.10547,1.31089,1.31089,0,0,0-.4248.28516,1.67309,1.67309,0,0,0-.29785.41992,2.82347,2.82347,0,0,0-.19239.50781,3.694,3.694,0,0,0-.10547.54981,4.98717,4.98717,0,0,0-.03125.54394v1.001a5.01871,5.01871,0,0,0,.03125.54492,3.76837,3.76837,0,0,0,.10547.55176,2.82986,2.82986,0,0,0,.19043.50976,1.57344,1.57344,0,0,0,.29785.42285,1.324,1.324,0,0,0,.42481.28809,1.4444,1.4444,0,0,0,.57129.10449,1.548,1.548,0,0,0,.61719-.1123,1.23527,1.23527,0,0,0,.44238-.31446,1.59474,1.59474,0,0,0,.28808-.47851,2.64822,2.64822,0,0,0,.15137-.59863Z"/><path class="cls-8" d="M192.29042,32.31384a5.44435,5.44435,0,0,1-.06543.76953,4.226,4.226,0,0,1-.18847.749,3.25131,3.25131,0,0,1-.32422.67383,2.39856,2.39856,0,0,1-.47168.54687,2.10412,2.10412,0,0,1-.62695.36914,2.41976,2.41976,0,0,1-1.58692,0,2.10918,2.10918,0,0,1-.62793-.36914,2.46946,2.46946,0,0,1-.47363-.54882,3.39224,3.39224,0,0,1-.3291-.67676,4.23654,4.23654,0,0,1-.19336-.74707,5.24865,5.24865,0,0,1-.06836-.7666v-.81055a5.43343,5.43343,0,0,1,.06641-.76856,4.01947,4.01947,0,0,1,.19043-.75,3.45755,3.45755,0,0,1,.32714-.67578,2.44462,2.44462,0,0,1,.47071-.55175,2.05381,2.05381,0,0,1,.62793-.3711,2.21068,2.21068,0,0,1,.793-.13476,2.2346,2.2346,0,0,1,.79589.13476,2.061,2.061,0,0,1,.62989.36817,2.39335,2.39335,0,0,1,.47168.5498,3.51407,3.51407,0,0,1,.32714.67578,4.17768,4.17768,0,0,1,.19043.752,5.49589,5.49589,0,0,1,.06543.77148Zm-.89355-.82032c-.00293-.16894-.01465-.3457-.03418-.52929a3.73622,3.73622,0,0,0-.09961-.54688,2.96966,2.96966,0,0,0-.18848-.51758,1.68155,1.68155,0,0,0-.293-.43457,1.29408,1.29408,0,0,0-.415-.29785A1.31978,1.31978,0,0,0,189.81,29.057a1.29766,1.29766,0,0,0-.55176.11231,1.3439,1.3439,0,0,0-.415.30078,1.68133,1.68133,0,0,0-.293.43457,2.88879,2.88879,0,0,0-.1875.51757,3.74549,3.74549,0,0,0-.10254.54688c-.02148.18359-.0332.3584-.03711.52441v.82032c.00391.166.01563.34179.03711.52734a3.63856,3.63856,0,0,0,.10449.5498,3.14228,3.14228,0,0,0,.19043.51954,1.69838,1.69838,0,0,0,.293.4375,1.34121,1.34121,0,0,0,.415.2998,1.29635,1.29635,0,0,0,.55664.11231,1.27617,1.27617,0,0,0,.97461-.41211,1.72635,1.72635,0,0,0,.28809-.43457,3.16186,3.16186,0,0,0,.18554-.51758,3.62243,3.62243,0,0,0,.09766-.54981c.01758-.18554.02832-.3623.03125-.53222Z"/><path class="cls-8" d="M194.8539,28.349l1.15723,3.55469,1.25-3.55469h1.123v7.10938h-.8789V32.62145l.07324-2.96875L196.265,33.48083h-.51757l-1.20606-3.72559.07324,2.86621v2.83692h-.8789V28.349Z"/><path class="cls-8" d="M210.66933,33.3197a3.11224,3.11224,0,0,1-.25391.90625,2.33793,2.33793,0,0,1-.49609.708,2.16988,2.16988,0,0,1-.72266.459,2.54139,2.54139,0,0,1-.92968.16308,2.42684,2.42684,0,0,1-.79883-.124,2.20253,2.20253,0,0,1-.63965-.34473,2.30064,2.30064,0,0,1-.4834-.51757,3.16737,3.16737,0,0,1-.33691-.64942,3.94,3.94,0,0,1-.2002-.7373,4.955,4.955,0,0,1-.07031-.78125v-.99121a4.96527,4.96527,0,0,1,.07031-.78125,3.96063,3.96063,0,0,1,.2002-.73731,3.23444,3.23444,0,0,1,.33691-.65137,2.29416,2.29416,0,0,1,.4834-.5205,2.20163,2.20163,0,0,1,.6377-.34375,2.4135,2.4135,0,0,1,.80078-.125,2.60263,2.60263,0,0,1,.95215.16406,2.0888,2.0888,0,0,1,.72265.46387,2.30736,2.30736,0,0,1,.48535.71972,3.24566,3.24566,0,0,1,.24219.92774H209.766a2.67855,2.67855,0,0,0-.15137-.60059,1.68429,1.68429,0,0,0-.28808-.48828,1.2717,1.2717,0,0,0-.44239-.3291,1.465,1.465,0,0,0-.61718-.12012,1.44059,1.44059,0,0,0-.56934.10547,1.31089,1.31089,0,0,0-.4248.28516,1.67338,1.67338,0,0,0-.29786.41992,2.82419,2.82419,0,0,0-.19238.50781,3.694,3.694,0,0,0-.10547.54981,4.98717,4.98717,0,0,0-.03125.54394v1.001a5.01871,5.01871,0,0,0,.03125.54492,3.76837,3.76837,0,0,0,.10547.55176,2.82986,2.82986,0,0,0,.19043.50976,1.57344,1.57344,0,0,0,.29785.42285,1.324,1.324,0,0,0,.42481.28809,1.4444,1.4444,0,0,0,.57129.10449,1.54792,1.54792,0,0,0,.61718-.1123,1.23522,1.23522,0,0,0,.44239-.31446,1.595,1.595,0,0,0,.28808-.47851,2.64822,2.64822,0,0,0,.15137-.59863Z"/><path class="cls-8" d="M214.44277,32.558h-1.4209v2.90039h-.89844V28.349h2.085a3.5,3.5,0,0,1,.9375.1416,2.2548,2.2548,0,0,1,.76953.39551,1.84619,1.84619,0,0,1,.51758.66211,2.17157,2.17157,0,0,1,.1875.93457,1.87261,1.87261,0,0,1-.376,1.15723,2.01544,2.01544,0,0,1-.41993.415,2.63058,2.63058,0,0,1-.53711.30761l1.50879,3.03711-.00488.0586h-.95215Zm-1.4209-.74219h1.21094a1.88264,1.88264,0,0,0,.57129-.09473,1.43276,1.43276,0,0,0,.47168-.26172,1.22652,1.22652,0,0,0,.31933-.417,1.31494,1.31494,0,0,0,.11719-.56933,1.47315,1.47315,0,0,0-.11231-.59766,1.17775,1.17775,0,0,0-.3125-.42969,1.32382,1.32382,0,0,0-.47558-.26172,2.10706,2.10706,0,0,0-.60352-.09277h-1.18652Z"/><path class="cls-8" d="M219.12539,34.69177H222.602v.7666h-4.37989V28.349h.90333Z"/><path class="cls-8" d="M227.98769,32.31872h-2.959v3.13965h-.91309V28.349h4.36523v.77149h-3.45214v2.43164h2.959Z"/><path class="cls-8" d="M110.77187,45.3197a3.11224,3.11224,0,0,1-.25391.90625,2.33793,2.33793,0,0,1-.49609.708,2.17,2.17,0,0,1-.72266.459,2.54139,2.54139,0,0,1-.92968.16308,2.42684,2.42684,0,0,1-.79883-.124,2.20253,2.20253,0,0,1-.63965-.34473,2.30064,2.30064,0,0,1-.4834-.51757,3.16737,3.16737,0,0,1-.33691-.64942,3.94,3.94,0,0,1-.2002-.7373,4.955,4.955,0,0,1-.07031-.78125v-.99121a4.96527,4.96527,0,0,1,.07031-.78125,3.96063,3.96063,0,0,1,.2002-.73731,3.23444,3.23444,0,0,1,.33691-.65137,2.29416,2.29416,0,0,1,.4834-.5205,2.2017,2.2017,0,0,1,.63769-.34375,2.4136,2.4136,0,0,1,.80079-.125,2.60254,2.60254,0,0,1,.95214.16406,2.08875,2.08875,0,0,1,.72266.46387,2.30736,2.30736,0,0,1,.48535.71972,3.24566,3.24566,0,0,1,.24219.92774h-.90332a2.67855,2.67855,0,0,0-.15137-.60059,1.68429,1.68429,0,0,0-.28808-.48828,1.2717,1.2717,0,0,0-.44239-.3291,1.465,1.465,0,0,0-.61718-.12012,1.44059,1.44059,0,0,0-.56934.10547,1.31089,1.31089,0,0,0-.4248.28516,1.67338,1.67338,0,0,0-.29786.41992,2.82419,2.82419,0,0,0-.19238.50781,3.694,3.694,0,0,0-.10547.54981,4.98466,4.98466,0,0,0-.03125.54394v1.001a5.01619,5.01619,0,0,0,.03125.54492,3.76837,3.76837,0,0,0,.10547.55176,2.82986,2.82986,0,0,0,.19043.50976,1.57344,1.57344,0,0,0,.29785.42285,1.324,1.324,0,0,0,.42481.28809,1.4444,1.4444,0,0,0,.57129.10449,1.54792,1.54792,0,0,0,.61718-.1123,1.23522,1.23522,0,0,0,.44239-.31446,1.595,1.595,0,0,0,.28808-.47851,2.64822,2.64822,0,0,0,.15137-.59863Z"/><path class="cls-8" d="M116.93593,44.31384a5.44435,5.44435,0,0,1-.06543.76953,4.226,4.226,0,0,1-.18847.749,3.25181,3.25181,0,0,1-.32422.67383,2.39881,2.39881,0,0,1-.47168.54687,2.104,2.104,0,0,1-.627.36914,2.41973,2.41973,0,0,1-1.58691,0,2.10918,2.10918,0,0,1-.62793-.36914,2.46946,2.46946,0,0,1-.47363-.54882,3.3917,3.3917,0,0,1-.3291-.67676,4.23654,4.23654,0,0,1-.19336-.74707,5.24589,5.24589,0,0,1-.06836-.7666v-.81055a5.4334,5.4334,0,0,1,.0664-.76856,4.021,4.021,0,0,1,.19043-.75,3.45815,3.45815,0,0,1,.32715-.67578,2.44458,2.44458,0,0,1,.4707-.55175,2.054,2.054,0,0,1,.62793-.3711,2.21072,2.21072,0,0,1,.793-.13476,2.23462,2.23462,0,0,1,.7959.13476,2.061,2.061,0,0,1,.62988.36817,2.39286,2.39286,0,0,1,.47168.5498,3.51352,3.51352,0,0,1,.32715.67578,4.17768,4.17768,0,0,1,.19043.752,5.49589,5.49589,0,0,1,.06543.77148Zm-.89355-.82032c-.00293-.16894-.01465-.3457-.03418-.52929a3.73755,3.73755,0,0,0-.09961-.54688,2.96966,2.96966,0,0,0-.18848-.51758,1.68133,1.68133,0,0,0-.293-.43457,1.29386,1.29386,0,0,0-.415-.29785,1.31975,1.31975,0,0,0-.55664-.11035,1.29765,1.29765,0,0,0-.55175.11231,1.34379,1.34379,0,0,0-.415.30078,1.68133,1.68133,0,0,0-.293.43457,2.88879,2.88879,0,0,0-.1875.51757,3.74549,3.74549,0,0,0-.10254.54688c-.02149.18359-.0332.3584-.03711.52441v.82032c.00391.166.01562.34179.03711.52734a3.63856,3.63856,0,0,0,.10449.5498,3.14228,3.14228,0,0,0,.19043.51954,1.69838,1.69838,0,0,0,.293.4375,1.34121,1.34121,0,0,0,.415.2998,1.29632,1.29632,0,0,0,.55664.11231,1.27617,1.27617,0,0,0,.97461-.41211,1.72605,1.72605,0,0,0,.28808-.43457,3.161,3.161,0,0,0,.18555-.51758,3.62243,3.62243,0,0,0,.09766-.54981c.01758-.18554.02832-.3623.03125-.53222Z"/><path class="cls-8" d="M122.976,47.45837h-.918l-2.75879-5.3125-.01465,5.3125h-.91308V40.349h.918l2.75879,5.30274.01465-5.30274h.91308Z"/><path class="cls-8" d="M129.49746,41.12048h-2.19727v6.33789h-.87891V41.12048H124.224V40.349h5.27344Z"/><path class="cls-8" d="M134.71425,44.17223H131.7455v2.51954h3.46192v.7666h-4.36524V40.349h4.32129v.77149h-3.418v2.28515h2.96875Z"/><path class="cls-8" d="M141.25722,47.45837h-.918l-2.75879-5.3125-.01465,5.3125h-.91308V40.349h.918l2.75879,5.30274.01465-5.30274h.91308Z"/><path class="cls-8" d="M147.77773,41.12048h-2.19727v6.33789h-.8789V41.12048h-2.19727V40.349h5.27344Z"/><path class="cls-8" d="M151.87929,44.71911h-3.73535v-.74219h3.73535Z"/><path class="cls-8" d="M154.65273,46.69177h3.47656v.7666h-4.37988V40.349h.90332Z"/><path class="cls-8" d="M163.49453,44.17223h-2.96875v2.51954h3.46191v.7666h-4.36523V40.349h4.32128v.77149h-3.418v2.28515h2.96875Z"/><path class="cls-8" d="M170.03749,47.45837h-.918l-2.75879-5.3125-.01465,5.3125H165.433V40.349h.918l2.75879,5.30274.01465-5.30274h.91308Z"/><path class="cls-8" d="M176.41445,46.52575a2.84971,2.84971,0,0,1-1.03028.78125,3.07386,3.07386,0,0,1-1.27441.249,2.51495,2.51495,0,0,1-.80859-.13379,2.35443,2.35443,0,0,1-.66114-.35644,2.54171,2.54171,0,0,1-.51269-.53516,3.36746,3.36746,0,0,1-.36914-.666,3.936,3.936,0,0,1-.22461-.752,4.512,4.512,0,0,1-.08008-.79394v-.8252a5.09461,5.09461,0,0,1,.07031-.78808,3.94266,3.94266,0,0,1,.20313-.75488,3.36033,3.36033,0,0,1,.34179-.6709,2.27307,2.27307,0,0,1,1.1377-.89649,2.34814,2.34814,0,0,1,.81055-.13183,2.6515,2.6515,0,0,1,.918.15429,2.15057,2.15057,0,0,1,1.23535,1.12793,2.62973,2.62973,0,0,1,.23437.90039h-.89355a2.5861,2.5861,0,0,0-.166-.56836,1.44019,1.44019,0,0,0-.2959-.44726,1.30842,1.30842,0,0,0-.43652-.29,1.5339,1.5339,0,0,0-.59082-.10547,1.4029,1.4029,0,0,0-.57129.11035,1.41931,1.41931,0,0,0-.43457.29492,1.60888,1.60888,0,0,0-.30762.43262,2.99559,2.99559,0,0,0-.20019.51953,3.49123,3.49123,0,0,0-.11231.55664,4.44429,4.44429,0,0,0-.03418.54688v.835a4.40829,4.40829,0,0,0,.0459.55469,3.48907,3.48907,0,0,0,.12988.55859,2.7553,2.7553,0,0,0,.22461.51758,1.82477,1.82477,0,0,0,.32911.42969,1.45465,1.45465,0,0,0,1.02343.41015,2.92979,2.92979,0,0,0,.3877-.01465,1.951,1.951,0,0,0,.39355-.07812,1.6239,1.6239,0,0,0,.35645-.1582.9238.9238,0,0,0,.27832-.26172l.00976-1.59668h-1.44531v-.76172h2.30469Z"/><path class="cls-8" d="M182.66738,41.12048h-2.19727v6.33789h-.8789V41.12048h-2.19727V40.349h5.27344Z"/><path class="cls-8" d="M188.5248,47.45837h-.85449V44.17223h-2.915v3.28614h-.84961V40.349h.84961v3.05664h2.915V40.349h.85449Z"/><path class="cls-8" d="M190.976,42.59509a.78459.78459,0,0,1,.04688-.27344.64768.64768,0,0,1,.13379-.22168.609.609,0,0,1,.21972-.14941.82429.82429,0,0,1,.30762-.05372.84766.84766,0,0,1,.31055.05372.63773.63773,0,0,1,.22461.14941.65491.65491,0,0,1,.13671.22168.80735.80735,0,0,1,.0459.27344.77217.77217,0,0,1-.0459.2666.62481.62481,0,0,1-.13671.21679.61465.61465,0,0,1-.22461.14454.87024.87024,0,0,1-.31055.05078.84634.84634,0,0,1-.30762-.05078.58694.58694,0,0,1-.21972-.14454.61776.61776,0,0,1-.13379-.21679A.75046.75046,0,0,1,190.976,42.59509Zm0,4.27734a.78459.78459,0,0,1,.04688-.27344.64777.64777,0,0,1,.13379-.22168.60909.60909,0,0,1,.21972-.14941.82429.82429,0,0,1,.30762-.05371.84767.84767,0,0,1,.31055.05371.63787.63787,0,0,1,.22461.14941.655.655,0,0,1,.13671.22168.80735.80735,0,0,1,.0459.27344.77213.77213,0,0,1-.0459.2666.62485.62485,0,0,1-.13671.2168.61463.61463,0,0,1-.22461.14453.87024.87024,0,0,1-.31055.05078.84634.84634,0,0,1-.30762-.05078.58692.58692,0,0,1-.21972-.14453.6178.6178,0,0,1-.13379-.2168A.75042.75042,0,0,1,190.976,46.87243Z"/><path class="cls-8" d="M204.2914,47.45837h-.90332v-5.957l-1.86035.708v-.82519l2.69043-1.03516h.07324Z"/><path class="cls-8" d="M211.25917,44.73864a4.21593,4.21593,0,0,1-.15625,1.2041,2.50532,2.50532,0,0,1-.44921.88379,1.8829,1.8829,0,0,1-.71778.544,2.62946,2.62946,0,0,1-1.94043,0,1.92375,1.92375,0,0,1-.72558-.544,2.49859,2.49859,0,0,1-.45606-.88379,4.14383,4.14383,0,0,1-.15918-1.2041v-1.665a4.24418,4.24418,0,0,1,.15625-1.20312,2.5159,2.5159,0,0,1,.45215-.88672,1.91347,1.91347,0,0,1,.72266-.54883,2.59889,2.59889,0,0,1,1.94336,0,1.92863,1.92863,0,0,1,.72265.54883,2.51456,2.51456,0,0,1,.45117.88672,4.20892,4.20892,0,0,1,.15625,1.20312Zm-3.69628-.18066,2.76855-2.124a1.868,1.868,0,0,0-.41211-1.07617,1.2369,1.2369,0,0,0-.96484-.36914,1.1975,1.1975,0,0,0-1.05176.48145,2.42017,2.42017,0,0,0-.33984,1.40332Zm2.78808-1.25977-2.76367,2.11426a1.80224,1.80224,0,0,0,.4248,1.0498,1.24826,1.24826,0,0,0,.95215.36133,1.18551,1.18551,0,0,0,1.05274-.48828,2.481,2.481,0,0,0,.334-1.40625Z"/><path class="cls-8" d="M217.37343,44.73864a4.21628,4.21628,0,0,1-.15625,1.2041,2.50517,2.50517,0,0,1-.44922.88379,1.88286,1.88286,0,0,1-.71777.544,2.62946,2.62946,0,0,1-1.94043,0,1.92371,1.92371,0,0,1-.72559-.544,2.49874,2.49874,0,0,1-.45605-.88379,4.14349,4.14349,0,0,1-.15918-1.2041v-1.665a4.24382,4.24382,0,0,1,.15625-1.20312,2.5159,2.5159,0,0,1,.45215-.88672,1.91352,1.91352,0,0,1,.72265-.54883,2.59889,2.59889,0,0,1,1.94336,0,1.92874,1.92874,0,0,1,.72266.54883,2.51456,2.51456,0,0,1,.45117.88672,4.20927,4.20927,0,0,1,.15625,1.20312Zm-3.69629-.18066,2.76856-2.124a1.86806,1.86806,0,0,0-.41211-1.07617,1.23691,1.23691,0,0,0-.96485-.36914,1.19749,1.19749,0,0,0-1.05175.48145,2.42009,2.42009,0,0,0-.33985,1.40332Zm2.78809-1.25977-2.76367,2.11426a1.80224,1.80224,0,0,0,.4248,1.0498,1.24826,1.24826,0,0,0,.95215.36133,1.18548,1.18548,0,0,0,1.05273-.48828,2.48093,2.48093,0,0,0,.334-1.40625Z"/><path class="cls-8" d="M223.48769,44.73864a4.25089,4.25089,0,0,1-.15625,1.2041,2.52164,2.52164,0,0,1-.44922.88379,1.88286,1.88286,0,0,1-.71777.544,2.632,2.632,0,0,1-1.94141,0,1.92044,1.92044,0,0,1-.72461-.544,2.5001,2.5001,0,0,1-.457-.88379,4.17876,4.17876,0,0,1-.1582-1.2041v-1.665a4.20927,4.20927,0,0,1,.15625-1.20312,2.51456,2.51456,0,0,1,.45117-.88672,1.92874,1.92874,0,0,1,.72266-.54883,2.5989,2.5989,0,0,1,1.94336,0,1.91352,1.91352,0,0,1,.72265.54883,2.5159,2.5159,0,0,1,.45215.88672,4.24382,4.24382,0,0,1,.15625,1.20312ZM219.7914,44.558,222.56,42.434a1.86834,1.86834,0,0,0-.41309-1.07617,1.23332,1.23332,0,0,0-.96387-.36914,1.19931,1.19931,0,0,0-1.05273.48145,2.42806,2.42806,0,0,0-.33887,1.40332Zm2.78809-1.25977-2.76368,2.11426a1.78968,1.78968,0,0,0,.42481,1.0498,1.24535,1.24535,0,0,0,.95215.36133,1.18262,1.18262,0,0,0,1.05176-.48828,2.47269,2.47269,0,0,0,.335-1.40625Z"/><path class="cls-8" d="M235.83144,45.3197a3.11224,3.11224,0,0,1-.25391.90625,2.33793,2.33793,0,0,1-.49609.708,2.17,2.17,0,0,1-.72266.459,2.54139,2.54139,0,0,1-.92968.16308,2.42684,2.42684,0,0,1-.79883-.124,2.20253,2.20253,0,0,1-.63965-.34473,2.30064,2.30064,0,0,1-.4834-.51757,3.16737,3.16737,0,0,1-.33691-.64942,3.94,3.94,0,0,1-.2002-.7373,4.955,4.955,0,0,1-.07031-.78125v-.99121a4.96527,4.96527,0,0,1,.07031-.78125,3.96063,3.96063,0,0,1,.2002-.73731,3.23444,3.23444,0,0,1,.33691-.65137,2.29416,2.29416,0,0,1,.4834-.5205,2.2017,2.2017,0,0,1,.63769-.34375,2.4136,2.4136,0,0,1,.80079-.125,2.60254,2.60254,0,0,1,.95214.16406,2.08875,2.08875,0,0,1,.72266.46387,2.30736,2.30736,0,0,1,.48535.71972,3.24566,3.24566,0,0,1,.24219.92774h-.90332a2.67855,2.67855,0,0,0-.15137-.60059,1.68429,1.68429,0,0,0-.28808-.48828,1.2717,1.2717,0,0,0-.44239-.3291,1.465,1.465,0,0,0-.61718-.12012,1.44059,1.44059,0,0,0-.56934.10547,1.31089,1.31089,0,0,0-.4248.28516,1.67338,1.67338,0,0,0-.29786.41992,2.82419,2.82419,0,0,0-.19238.50781,3.694,3.694,0,0,0-.10547.54981,4.98466,4.98466,0,0,0-.03125.54394v1.001a5.01619,5.01619,0,0,0,.03125.54492,3.76837,3.76837,0,0,0,.10547.55176,2.82986,2.82986,0,0,0,.19043.50976,1.57344,1.57344,0,0,0,.29785.42285,1.324,1.324,0,0,0,.42481.28809,1.4444,1.4444,0,0,0,.57129.10449,1.54792,1.54792,0,0,0,.61718-.1123,1.23522,1.23522,0,0,0,.44239-.31446,1.595,1.595,0,0,0,.28808-.47851,2.64822,2.64822,0,0,0,.15137-.59863Z"/><path class="cls-8" d="M239.60488,44.558H238.184v2.90039h-.89844V40.349h2.085a3.5,3.5,0,0,1,.9375.1416,2.2548,2.2548,0,0,1,.76953.39551,1.84619,1.84619,0,0,1,.51758.66211,2.17157,2.17157,0,0,1,.1875.93457,1.87261,1.87261,0,0,1-.376,1.15723,2.01544,2.01544,0,0,1-.41993.415,2.63058,2.63058,0,0,1-.53711.30761l1.50879,3.03711-.00488.0586h-.95215Zm-1.4209-.74219h1.21094a1.88274,1.88274,0,0,0,.57129-.09473,1.43276,1.43276,0,0,0,.47168-.26172,1.22652,1.22652,0,0,0,.31933-.417,1.31494,1.31494,0,0,0,.11719-.56933,1.47315,1.47315,0,0,0-.11231-.59766,1.17775,1.17775,0,0,0-.3125-.42969,1.32382,1.32382,0,0,0-.47558-.26172,2.10706,2.10706,0,0,0-.60352-.09277H238.184Z"/><path class="cls-8" d="M244.28652,46.69177h3.47656v.7666H243.3832V40.349h.90332Z"/><path class="cls-8" d="M253.1498,44.31872h-2.959v3.13965h-.91308V40.349H253.643v.77149h-3.45215v2.43164h2.959Z"/><line class="cls-5" x1="64.94922" y1="66.32221" x2="304.68414" y2="66.32221"/><polygon class="cls-6" points="301.371 70.412 300.689 69.68 304.3 66.323 300.689 62.966 301.371 62.233 305.769 66.323 301.371 70.412"/><rect class="cls-7" x="99.91726" y="57.32219" width="89.90342" height="18"/><path class="cls-8" d="M107.515,69.83239V65.24645H106.06v-.69726H107.515v-.3711a2.46508,2.46508,0,0,1,.14844-.8916,1.70475,1.70475,0,0,1,1.07227-1.03222,2.58487,2.58487,0,0,1,.84961-.13282,3.5736,3.5736,0,0,1,.62695.05469q.30615.05274.62793.13672l-.10742.74609a3.62681,3.62681,0,0,0-.4668-.11914,3.00135,3.00135,0,0,0-.56836-.05078,1.13373,1.13373,0,0,0-1.27441,1.28906v.3711h2.03613v.69726h-2.03613v4.58594Z"/><path class="cls-8" d="M112.18984,64.54919H114.89v4.502h1.72364v.78125h-4.42383v-.78125h1.79687v-3.7168h-1.79687Zm1.67969-1.38672a.558.558,0,0,1,.13378-.37891.61326.61326,0,0,1,.81348,0,.55072.55072,0,0,1,.13672.37891.515.515,0,0,1-.13672.36523.63791.63791,0,0,1-.81348,0A.52151.52151,0,0,1,113.86953,63.16247Z"/><path class="cls-8" d="M120.32265,69.93005a2.67735,2.67735,0,0,1-1.02246-.19141,2.3224,2.3224,0,0,1-.79883-.53125,2.45691,2.45691,0,0,1-.51758-.81055,2.76553,2.76553,0,0,1-.18554-1.02148v-.20508a3.02289,3.02289,0,0,1,.20507-1.14453,2.6278,2.6278,0,0,1,.54493-.85449,2.34733,2.34733,0,0,1,.77148-.53418,2.21781,2.21781,0,0,1,.88574-.18555,2.35935,2.35935,0,0,1,.999.19727,1.96425,1.96425,0,0,1,.71.54687,2.32125,2.32125,0,0,1,.42285.82227,3.63021,3.63021,0,0,1,.13867,1.02539v.40625h-3.77441a2.0694,2.0694,0,0,0,.13965.67773,1.75324,1.75324,0,0,0,.34179.55469,1.57,1.57,0,0,0,.51953.373,1.59767,1.59767,0,0,0,.669.13672,1.82734,1.82734,0,0,0,.85937-.19532,1.85707,1.85707,0,0,0,.625-.51757l.55176.42968a2.08436,2.08436,0,0,1-.3291.38379,2.28474,2.28474,0,0,1-.457.3252,2.56,2.56,0,0,1-.58594.22656A2.82445,2.82445,0,0,1,120.32265,69.93005Zm-.11719-4.73633a1.3349,1.3349,0,0,0-.957.39258,1.67679,1.67679,0,0,0-.3291.47363,2.24834,2.24834,0,0,0-.18848.64746h2.8418V66.639a2.03947,2.03947,0,0,0-.09961-.52344,1.459,1.459,0,0,0-.25195-.46289,1.25153,1.25153,0,0,0-.417-.332A1.31081,1.31081,0,0,0,120.20546,65.19372Z"/><path class="cls-8" d="M124.06191,62.33239h2.70019v6.71875h1.72364v.78125h-4.42383v-.78125h1.79687V63.11755h-1.79687Z"/><path class="cls-8" d="M129.70546,67.14684a3.78882,3.78882,0,0,1,.14844-1.08691,2.61345,2.61345,0,0,1,.42481-.85254,1.98516,1.98516,0,0,1,.667-.55664,1.89388,1.89388,0,0,1,.874-.19922,2.00972,2.00972,0,0,1,.82715.1582,1.73279,1.73279,0,0,1,.61328.46094V62.33239h.90332v7.5h-.83008l-.03906-.55664a1.73478,1.73478,0,0,1-.62988.48828,2.05859,2.05859,0,0,1-.85449.166,1.82744,1.82744,0,0,1-.86719-.20508,1.98538,1.98538,0,0,1-.66113-.56641,2.72461,2.72461,0,0,1-.42481-.85254,3.54976,3.54976,0,0,1-.15137-1.05761Zm.90332.10157a3.11156,3.11156,0,0,0,.083.73242,1.90564,1.90564,0,0,0,.25586.61133,1.29039,1.29039,0,0,0,.44238.417,1.27456,1.27456,0,0,0,.64453.15332,1.52194,1.52194,0,0,0,.415-.05274,1.22838,1.22838,0,0,0,.60547-.39355,1.66925,1.66925,0,0,0,.20508-.30957V65.95544a1.52761,1.52761,0,0,0-.47363-.53028,1.27432,1.27432,0,0,0-.74219-.208,1.2926,1.2926,0,0,0-.65234.15625,1.31386,1.31386,0,0,0-.44434.42285,1.91847,1.91847,0,0,0-.25586.61523,3.1546,3.1546,0,0,0-.083.73535Z"/><path class="cls-8" d="M139.39589,67.99059h-2.373l-.57129,1.8418h-.90332l2.29492-7.10937H138.6l2.25586,7.10937h-.89843Zm-2.1289-.78515h1.88965l-.9375-3.08594Z"/><path class="cls-8" d="M146.25624,66.0238h-4.36035v-.78711h4.36035Zm0,2.02539h-4.36035v-.78125h4.36035Z"/><path class="cls-8" d="M152.5541,67.24841a3.90166,3.90166,0,0,1-.13672,1.05761,2.62535,2.62535,0,0,1-.40039.85254,1.83392,1.83392,0,0,1-1.543.77149,1.9951,1.9951,0,0,1-.88086-.18164,1.79025,1.79025,0,0,1-.6377-.51758l-.04394.60156h-.83008v-7.5h.90332v2.7832a1.74176,1.74176,0,0,1,.625-.49414,2.01261,2.01261,0,0,1,.85449-.16992,1.9478,1.9478,0,0,1,.89844.19922,1.8623,1.8623,0,0,1,.6543.55664,2.56,2.56,0,0,1,.40039.85254,4.05441,4.05441,0,0,1,.13672,1.08691Zm-.90332-.10157a3.50861,3.50861,0,0,0-.0752-.73535,1.90253,1.90253,0,0,0-.24219-.61523,1.24242,1.24242,0,0,0-.43457-.42285,1.29623,1.29623,0,0,0-.65918-.15625,1.45906,1.45906,0,0,0-.42968.06152,1.2082,1.2082,0,0,0-.34864.1709,1.37353,1.37353,0,0,0-.27343.25879,1.6103,1.6103,0,0,0-.20313.32519v2.3086a1.77293,1.77293,0,0,0,.208.32519,1.39519,1.39519,0,0,0,.27539.26074,1.23119,1.23119,0,0,0,.35156.17383,1.428,1.428,0,0,0,.42969.06055,1.20366,1.20366,0,0,0,1.07226-.57031,1.94171,1.94171,0,0,0,.249-.61133,3.21949,3.21949,0,0,0,.08008-.73242Z"/><path class="cls-8" d="M154.0248,67.141a3.29977,3.29977,0,0,1,.166-1.06152,2.55671,2.55671,0,0,1,.47657-.85254,2.22327,2.22327,0,0,1,.7539-.56836,2.335,2.335,0,0,1,1.001-.207,2.36133,2.36133,0,0,1,1.00879.207,2.22514,2.22514,0,0,1,.75684.56836,2.5547,2.5547,0,0,1,.47558.85254,3.27314,3.27314,0,0,1,.166,1.06152v.10743a3.26287,3.26287,0,0,1-.166,1.06054,2.55985,2.55985,0,0,1-.47558.84961,2.197,2.197,0,0,1-.75489.56641,2.36043,2.36043,0,0,1-1.001.20508,2.389,2.389,0,0,1-1.00782-.20508,2.186,2.186,0,0,1-.75683-.56641,2.56191,2.56191,0,0,1-.47657-.84961,3.28937,3.28937,0,0,1-.166-1.06054Zm.90332.10743a2.93908,2.93908,0,0,0,.09277.74511,1.92768,1.92768,0,0,0,.28125.62207,1.38389,1.38389,0,0,0,.47071.42579,1.35345,1.35345,0,0,0,.65918.15625,1.32652,1.32652,0,0,0,.65234-.15625,1.40522,1.40522,0,0,0,.46875-.42579,1.926,1.926,0,0,0,.28027-.62207,2.89559,2.89559,0,0,0,.09278-.74511V67.141a2.83021,2.83021,0,0,0-.09473-.73925,1.97313,1.97313,0,0,0-.2832-.62207,1.42148,1.42148,0,0,0-.46875-.42774,1.31742,1.31742,0,0,0-.65723-.1582,1.30357,1.30357,0,0,0-.6543.1582,1.41217,1.41217,0,0,0-.46582.42774,1.92778,1.92778,0,0,0-.28125.62207,2.91543,2.91543,0,0,0-.09277.73925Z"/><path class="cls-8" d="M160.28847,67.14684a3.86092,3.86092,0,0,1,.14453-1.08691,2.56427,2.56427,0,0,1,.417-.85254,1.96592,1.96592,0,0,1,.66407-.55664,1.92035,1.92035,0,0,1,.88379-.19922,1.98555,1.98555,0,0,1,.85742.17285,1.72962,1.72962,0,0,1,.62695.501l.044-.57617h.82031v5.16992a2.47254,2.47254,0,0,1-.16309.92773,1.9095,1.9095,0,0,1-1.165,1.11914,2.68439,2.68439,0,0,1-.9082.14649,2.71188,2.71188,0,0,1-.46875-.04688,2.91588,2.91588,0,0,1-.53418-.15136,2.41829,2.41829,0,0,1-.52246-.28028,1.7465,1.7465,0,0,1-.43262-.43554l.46875-.541a2.37494,2.37494,0,0,0,.3418.33887,1.738,1.738,0,0,0,.35645.22168,1.65215,1.65215,0,0,0,.36132.12012,1.82141,1.82141,0,0,0,.36133.03613,1.71934,1.71934,0,0,0,.58106-.0918,1.21356,1.21356,0,0,0,.44238-.27148,1.16766,1.16766,0,0,0,.28027-.44141,1.7308,1.7308,0,0,0,.09766-.60547V69.309a1.76644,1.76644,0,0,1-.62207.46192,2.03172,2.03172,0,0,1-.833.15918,1.85218,1.85218,0,0,1-.874-.20508,1.96656,1.96656,0,0,1-.66114-.56641,2.69271,2.69271,0,0,1-.418-.85254,3.68125,3.68125,0,0,1-.14649-1.05761Zm.90332.10157a3.21884,3.21884,0,0,0,.08106.73242,1.86037,1.86037,0,0,0,.2539.61133,1.227,1.227,0,0,0,1.08594.57031,1.4589,1.4589,0,0,0,.42285-.05566,1.21811,1.21811,0,0,0,.33692-.15918,1.30936,1.30936,0,0,0,.26562-.24415,1.69342,1.69342,0,0,0,.20508-.3125V65.96911a1.68167,1.68167,0,0,0-.20508-.30273,1.27272,1.27272,0,0,0-.60547-.39258,1.41629,1.41629,0,0,0-.41015-.05664,1.28886,1.28886,0,0,0-.65137.15625,1.3051,1.3051,0,0,0-.44434.42285,1.87312,1.87312,0,0,0-.2539.61523,3.26363,3.26363,0,0,0-.08106.73535Z"/><path class="cls-8" d="M170.059,69.10388a1.88566,1.88566,0,0,1-.65918.60839,1.85956,1.85956,0,0,1-.91309.21778,2.06626,2.06626,0,0,1-.75195-.12989,1.444,1.444,0,0,1-.57617-.40332,1.87039,1.87039,0,0,1-.36914-.69531,3.49587,3.49587,0,0,1-.12891-1.01367V64.54919h.90332v3.14844a3.08313,3.08313,0,0,0,.06836.71289,1.10957,1.10957,0,0,0,.20508.45214.73291.73291,0,0,0,.334.23731,1.415,1.415,0,0,0,.457.06836,1.5902,1.5902,0,0,0,.89063-.22461,1.36939,1.36939,0,0,0,.50586-.60547V64.54919h.9082v5.2832h-.82031Z"/><path class="cls-8" d="M176.19179,68.43005a.59975.59975,0,0,0-.27832-.52735,1.735,1.735,0,0,0-.40039-.19726,4.24972,4.24972,0,0,0-.62012-.16406,6.21069,6.21069,0,0,1-.82812-.22461,2.73016,2.73016,0,0,1-.63965-.31446,1.38633,1.38633,0,0,1-.41211-.42968,1.10134,1.10134,0,0,1-.14648-.57422,1.24036,1.24036,0,0,1,.15136-.60254,1.54335,1.54335,0,0,1,.42481-.49121,2.15238,2.15238,0,0,1,.65137-.332,2.71626,2.71626,0,0,1,.833-.1211,2.82956,2.82956,0,0,1,.87891.12695,2.00073,2.00073,0,0,1,.66406.35157,1.58252,1.58252,0,0,1,.42188.52441,1.43342,1.43342,0,0,1,.14941.64746h-.90332a.698.698,0,0,0-.08789-.335.96556.96556,0,0,0-.24414-.29,1.24211,1.24211,0,0,0-.37891-.20508,1.48052,1.48052,0,0,0-.5-.07812,1.82842,1.82842,0,0,0-.50586.0625,1.14043,1.14043,0,0,0-.36132.17187.73109.73109,0,0,0-.2168.24805.632.632,0,0,0-.07324.293.6409.6409,0,0,0,.05859.2793.567.567,0,0,0,.20215.21875,1.52342,1.52342,0,0,0,.38574.17578,5.3329,5.3329,0,0,0,.61328.15234,7.12043,7.12043,0,0,1,.874.23633,2.59833,2.59833,0,0,1,.64941.32227,1.3404,1.3404,0,0,1,.40234.4375,1.15968,1.15968,0,0,1,.13965.57617,1.29126,1.29126,0,0,1-.15918.63867,1.49665,1.49665,0,0,1-.4414.49414,2.137,2.137,0,0,1-.67872.31641,3.14226,3.14226,0,0,1-.86425.11328,2.94657,2.94657,0,0,1-.957-.14453,2.28022,2.28022,0,0,1-.71094-.38086,1.64932,1.64932,0,0,1-.44434-.54883,1.45887,1.45887,0,0,1-.15332-.65039h.90332a.935.935,0,0,0,.14844.46875,1.05468,1.05468,0,0,0,.32227.30859,1.36479,1.36479,0,0,0,.42773.166,2.2908,2.2908,0,0,0,.46387.04883,1.67339,1.67339,0,0,0,.90332-.21094A.64855.64855,0,0,0,176.19179,68.43005Z"/><line class="cls-5" x1="64.94922" y1="88.01325" x2="304.68414" y2="88.01325"/><polygon class="cls-6" points="301.371 92.103 300.689 91.371 304.3 88.014 300.689 84.657 301.371 83.924 305.769 88.014 301.371 92.103"/><rect class="cls-7" x="99.91726" y="79.01323" width="89.90342" height="18"/><path class="cls-8" d="M105.84023,89.70056a1.80992,1.80992,0,0,1,.09766-.60547,1.99054,1.99054,0,0,1,.27343-.51953,2.86925,2.86925,0,0,1,.41992-.459,5.92336,5.92336,0,0,1,.542-.42773,5.47355,5.47355,0,0,1-.52051-.83985,1.86646,1.86646,0,0,1-.19238-.82519,2.01318,2.01318,0,0,1,.124-.73438,1.44256,1.44256,0,0,1,.35449-.53711,1.50787,1.50787,0,0,1,.55176-.33008,2.201,2.201,0,0,1,.72266-.1123,1.58557,1.58557,0,0,1,.62988.12207,1.45247,1.45247,0,0,1,.48047.33008,1.47743,1.47743,0,0,1,.30566.48047,1.57192,1.57192,0,0,1,.10742.57617,1.38931,1.38931,0,0,1-.07617.47168,1.53661,1.53661,0,0,1-.21.39746,2.18554,2.18554,0,0,1-.31934.35156c-.124.11133-.25781.21973-.40039.32715l-.459.39063,1.499,1.96777a3.04849,3.04849,0,0,0,.26856-.68359,3.3448,3.3448,0,0,0,.10254-.80079h.81543a3.63865,3.63865,0,0,1-.17871,1.16016,3.10709,3.10709,0,0,1-.51954.96387l.88379,1.15722h-1.0791l-.40527-.53711a2.69308,2.69308,0,0,1-.7959.47168,2.58842,2.58842,0,0,1-.91309.16309,2.54027,2.54027,0,0,1-.874-.1416,1.89848,1.89848,0,0,1-.66406-.39551,1.74118,1.74118,0,0,1-.42285-.60742A1.98967,1.98967,0,0,1,105.84023,89.70056Zm2.10937,1.18652a1.80514,1.80514,0,0,0,.66895-.12695,2.1403,2.1403,0,0,0,.60059-.36133L107.642,88.29431l-.13672.11718a2.63291,2.63291,0,0,0-.39551.39063,1.89232,1.89232,0,0,0-.23242.35937,1.3216,1.3216,0,0,0-.10742.30762,1.28644,1.28644,0,0,0-.02637.23145,1.32949,1.32949,0,0,0,.07812.46386,1.06575,1.06575,0,0,0,.2295.376,1.05266,1.05266,0,0,0,.376.25391A1.34556,1.34556,0,0,0,107.9496,90.88708Zm-.58105-4.873a1.40645,1.40645,0,0,0,.12207.55957,3.41673,3.41673,0,0,0,.3418.60254l.57129-.4541a1.28367,1.28367,0,0,0,.249-.21484.93881.93881,0,0,0,.22656-.459,1.24227,1.24227,0,0,0,.02246-.22949.8861.8861,0,0,0-.04687-.28516.69632.69632,0,0,0-.13672-.24414.71588.71588,0,0,0-.2168-.1709.61711.61711,0,0,0-.28808-.0664.8314.8314,0,0,0-.36914.07812.77586.77586,0,0,0-.26368.21.91836.91836,0,0,0-.1582.30567A1.22523,1.22523,0,0,0,107.36855,86.014Z"/><path class="cls-8" d="M113.20742,91.52184v-4.585h-1.45508v-.69824h1.45508v-.37109a2.44184,2.44184,0,0,1,.14941-.89063,1.74226,1.74226,0,0,1,.41992-.64258,1.773,1.773,0,0,1,.65137-.39062,2.58532,2.58532,0,0,1,.84961-.13184,3.69043,3.69043,0,0,1,.62793.05371q.30468.05421.627.13672l-.10742.74707a3.60867,3.60867,0,0,0-.46582-.11914,3.00974,3.00974,0,0,0-.56934-.05176,1.32154,1.32154,0,0,0-.9541.32227,1.30743,1.30743,0,0,0-.32031.9668v.37109h2.03613v.69824h-2.03613v4.585Z"/><path class="cls-8" d="M117.88222,86.23864h2.7002v4.50195h1.72363v.78125h-4.42383v-.78125h1.79688V87.02477h-1.79688Zm1.67969-1.38672a.55317.55317,0,0,1,.13476-.37793.612.612,0,0,1,.8125,0,.54536.54536,0,0,1,.13672.37793.51312.51312,0,0,1-.13672.36621.63655.63655,0,0,1-.8125,0A.52024.52024,0,0,1,119.56191,84.85192Z"/><path class="cls-8" d="M126.016,91.6195a2.68567,2.68567,0,0,1-1.02344-.19043,2.3069,2.3069,0,0,1-.79785-.53223,2.41614,2.41614,0,0,1-.51758-.81054,2.74059,2.74059,0,0,1-.18554-1.02051v-.20508a3.02289,3.02289,0,0,1,.20507-1.14453,2.63146,2.63146,0,0,1,.544-.85449,2.37541,2.37541,0,0,1,.77148-.53516,2.23917,2.23917,0,0,1,.88672-.18555,2.35151,2.35151,0,0,1,.99805.19825,1.957,1.957,0,0,1,.71094.54687,2.3356,2.3356,0,0,1,.42187.82227,3.62949,3.62949,0,0,1,.13965,1.02539V89.139h-3.77441a2.06932,2.06932,0,0,0,.13867.67871,1.77107,1.77107,0,0,0,.3418.55469,1.58592,1.58592,0,0,0,1.18945.50977,1.8301,1.8301,0,0,0,.85937-.19532,1.86661,1.86661,0,0,0,.625-.51757l.55176.42968a2.09107,2.09107,0,0,1-.33008.38379,2.26265,2.26265,0,0,1-.456.32422,2.59634,2.59634,0,0,1-.58594.22754A2.8366,2.8366,0,0,1,126.016,91.6195Zm-.11719-4.73633a1.34117,1.34117,0,0,0-.957.39356,1.65176,1.65176,0,0,0-.33008.47363,2.24157,2.24157,0,0,0-.1875.64648h2.8418v-.06836a1.99368,1.99368,0,0,0-.10059-.52246,1.4614,1.4614,0,0,0-.251-.46386,1.26757,1.26757,0,0,0-.418-.332A1.31917,1.31917,0,0,0,125.89882,86.88317Z"/><path class="cls-8" d="M129.75429,84.02184h2.7002v6.71875h1.72363v.78125h-4.42383v-.78125h1.79688V84.808h-1.79688Z"/><path class="cls-8" d="M135.39785,88.8363a3.74758,3.74758,0,0,1,.14941-1.08594,2.57564,2.57564,0,0,1,.4248-.85254,1.98189,1.98189,0,0,1,.666-.55664,1.89726,1.89726,0,0,1,.874-.2002,1.99847,1.99847,0,0,1,.82813.15918,1.72937,1.72937,0,0,1,.6123.46094V84.02184h.90332v7.5h-.83007l-.03907-.55664a1.72415,1.72415,0,0,1-.62988.48828,2.04,2.04,0,0,1-.85449.166,1.82629,1.82629,0,0,1-.86621-.20508,1.98707,1.98707,0,0,1-.66211-.5664,2.751,2.751,0,0,1-.42481-.85157,3.58164,3.58164,0,0,1-.15136-1.05761Zm.90332.10254a3.164,3.164,0,0,0,.083.73242,1.90136,1.90136,0,0,0,.25684.61035,1.22494,1.22494,0,0,0,1.08594.57129,1.4744,1.4744,0,0,0,.415-.05371,1.20432,1.20432,0,0,0,.33691-.15332,1.25512,1.25512,0,0,0,.26856-.23926,1.64553,1.64553,0,0,0,.20507-.31055V87.64489a1.51485,1.51485,0,0,0-.47363-.5293,1.263,1.263,0,0,0-.74219-.208,1.23592,1.23592,0,0,0-1.0957.5791,1.91968,1.91968,0,0,0-.25684.61523,3.19951,3.19951,0,0,0-.083.73438Z"/><path class="cls-8" d="M141.70644,91.52184V84.41247h2.11426a3.57266,3.57266,0,0,1,.85937.11523,2.32883,2.32883,0,0,1,.74707.33887A1.64931,1.64931,0,0,1,146.14,86.307a1.51978,1.51978,0,0,1-.09082.50781,1.434,1.434,0,0,1-.23437.41309,1.62366,1.62366,0,0,1-.34863.31933,2.49746,2.49746,0,0,1-.42481.23438,1.9652,1.9652,0,0,1,.51953.2373,1.66485,1.66485,0,0,1,.40821.3711,1.69724,1.69724,0,0,1,.26562.49023,1.78891,1.78891,0,0,1,.0957.59082A1.86658,1.86658,0,0,1,146.14,90.35a1.91252,1.91252,0,0,1-.52246.63769,2.39135,2.39135,0,0,1-.75488.39258,2.94263,2.94263,0,0,1-.88086.1416Zm.9082-4.07714h1.25977a1.80576,1.80576,0,0,0,.498-.08008,1.423,1.423,0,0,0,.43457-.21973,1.13031,1.13031,0,0,0,.30761-.35449.98443.98443,0,0,0,.11719-.48828,1.04067,1.04067,0,0,0-.11523-.50781.98319.98319,0,0,0-.30762-.34375,1.3448,1.3448,0,0,0-.44434-.19825A2.31647,2.31647,0,0,0,143.85,85.184h-1.23535Zm0,.752v2.55859h1.3916a1.69132,1.69132,0,0,0,.53711-.09472,1.4967,1.4967,0,0,0,.44922-.252,1.17077,1.17077,0,0,0,.42481-.92773,1.2531,1.2531,0,0,0-.10059-.53711,1.14037,1.14037,0,0,0-.29-.39746,1.30575,1.30575,0,0,0-.43457-.252,1.8002,1.8002,0,0,0-.53711-.09766Z"/><path class="cls-8" d="M152.17226,87.71325h-4.36035v-.78613h4.36035Zm0,2.02637h-4.36035v-.78125h4.36035Z"/><path class="cls-8" d="M158.47011,88.93884a3.90127,3.90127,0,0,1-.13672,1.05761,2.61062,2.61062,0,0,1-.40039.85157,1.83391,1.83391,0,0,1-1.543.77148,1.99519,1.99519,0,0,1-.88086-.18066,1.79022,1.79022,0,0,1-.63769-.51758l-.04395.60058h-.83007v-7.5h.90332v2.78321a1.739,1.739,0,0,1,.625-.49317,2.0125,2.0125,0,0,1,.85449-.1709,1.94806,1.94806,0,0,1,.89844.2002,1.86226,1.86226,0,0,1,.65429.55664,2.56,2.56,0,0,1,.40039.85254,4.04668,4.04668,0,0,1,.13672,1.08594Zm-.90332-.10254a3.49991,3.49991,0,0,0-.07519-.73438,1.90275,1.90275,0,0,0-.24219-.61523,1.234,1.234,0,0,0-.43457-.42285,1.29625,1.29625,0,0,0-.65918-.15625,1.42753,1.42753,0,0,0-.42969.06152,1.20827,1.20827,0,0,0-.34863.1709,1.3464,1.3464,0,0,0-.27344.25879,1.60292,1.60292,0,0,0-.20312.32422v2.30957a1.80723,1.80723,0,0,0,.208.32519,1.39574,1.39574,0,0,0,.27539.26074,1.23124,1.23124,0,0,0,.35157.17383,1.45962,1.45962,0,0,0,.42968.06055,1.2017,1.2017,0,0,0,1.07227-.57129,1.93622,1.93622,0,0,0,.249-.61035,3.21949,3.21949,0,0,0,.08008-.73242Z"/><path class="cls-8" d="M159.94081,88.83141a3.29977,3.29977,0,0,1,.166-1.06152,2.55669,2.55669,0,0,1,.47656-.85254,2.21094,2.21094,0,0,1,.75391-.56836,2.33519,2.33519,0,0,1,1.001-.208,2.36152,2.36152,0,0,1,1.00878.208,2.21262,2.21262,0,0,1,.75684.56836,2.55455,2.55455,0,0,1,.47559.85254,3.27341,3.27341,0,0,1,.166,1.06152v.10743a3.253,3.253,0,0,1-.166,1.05957,2.54058,2.54058,0,0,1-.47559.84961,2.18486,2.18486,0,0,1-.75488.5664,2.36044,2.36044,0,0,1-1.001.20508,2.38893,2.38893,0,0,1-1.00781-.20508,2.17414,2.17414,0,0,1-.75684-.5664,2.54273,2.54273,0,0,1-.47656-.84961,3.27915,3.27915,0,0,1-.166-1.05957Zm.90333.10743a2.94463,2.94463,0,0,0,.09277.74511,1.92747,1.92747,0,0,0,.28125.62207,1.37119,1.37119,0,0,0,.4707.42481,1.34268,1.34268,0,0,0,.65918.15625,1.316,1.316,0,0,0,.65235-.15625,1.392,1.392,0,0,0,.46875-.42481,1.926,1.926,0,0,0,.28027-.62207,2.901,2.901,0,0,0,.09277-.74511v-.10743a2.83063,2.83063,0,0,0-.09472-.73925,1.97864,1.97864,0,0,0-.28321-.62305,1.42885,1.42885,0,0,0-.46875-.42676,1.30764,1.30764,0,0,0-.65722-.15918,1.29392,1.29392,0,0,0-.6543.15918,1.41954,1.41954,0,0,0-.46582.42676,1.93292,1.93292,0,0,0-.28125.62305,2.91543,2.91543,0,0,0-.09277.73925Z"/><path class="cls-8" d="M166.20449,88.8363a3.854,3.854,0,0,1,.14453-1.08594,2.56408,2.56408,0,0,1,.417-.85254,1.966,1.966,0,0,1,.66406-.55664,1.9208,1.9208,0,0,1,.88379-.2002,1.9855,1.9855,0,0,1,.85742.17383,1.72715,1.72715,0,0,1,.627.5l.04394-.57617h.82031v5.1709a2.47254,2.47254,0,0,1-.16308.92773,1.91151,1.91151,0,0,1-1.165,1.11817,2.68468,2.68468,0,0,1-.9082.14648,2.801,2.801,0,0,1-.46875-.0459,2.91566,2.91566,0,0,1-.53418-.15136,2.46647,2.46647,0,0,1-.52246-.28125,1.74245,1.74245,0,0,1-.43262-.43457l.46875-.542a2.33445,2.33445,0,0,0,.3418.33985,1.73767,1.73767,0,0,0,.35644.22168,1.65148,1.65148,0,0,0,.36133.12011,1.82061,1.82061,0,0,0,.36133.03614,1.69494,1.69494,0,0,0,.58105-.09278,1.21153,1.21153,0,0,0,.44238-.2705,1.1717,1.1717,0,0,0,.28028-.44239,1.727,1.727,0,0,0,.09765-.60547v-.4541a1.76644,1.76644,0,0,1-.62207.46192,2.04785,2.04785,0,0,1-.833.1582,1.85222,1.85222,0,0,1-.874-.20508,1.95568,1.95568,0,0,1-.66113-.5664,2.67747,2.67747,0,0,1-.418-.85157,3.68125,3.68125,0,0,1-.14648-1.05761Zm.90332.10254a3.21885,3.21885,0,0,0,.08105.73242,1.855,1.855,0,0,0,.25391.61035,1.22491,1.22491,0,0,0,1.08594.57129,1.49293,1.49293,0,0,0,.42285-.05567,1.21775,1.21775,0,0,0,.33691-.15917,1.30968,1.30968,0,0,0,.26563-.24415,1.69338,1.69338,0,0,0,.20507-.3125V87.65954a1.68163,1.68163,0,0,0-.20507-.30273,1.26774,1.26774,0,0,0-.26856-.23633,1.23815,1.23815,0,0,0-.33691-.15625,1.38359,1.38359,0,0,0-.41016-.05664,1.23589,1.23589,0,0,0-1.0957.5791,1.87313,1.87313,0,0,0-.25391.61523,3.25494,3.25494,0,0,0-.08105.73438Z"/><path class="cls-8" d="M175.974,90.79431a1.81144,1.81144,0,0,1-1.57227.82519,2.09107,2.09107,0,0,1-.75195-.12891,1.45071,1.45071,0,0,1-.57617-.40332,1.86934,1.86934,0,0,1-.36817-.69531,3.465,3.465,0,0,1-.12988-1.01367V86.23864h.90332v3.14942a3.13826,3.13826,0,0,0,.06836.71289,1.13589,1.13589,0,0,0,.20508.45214.73138.73138,0,0,0,.335.23633,1.3868,1.3868,0,0,0,.45605.06836,1.58567,1.58567,0,0,0,.89161-.22461,1.362,1.362,0,0,0,.50488-.60547V86.23864h.9082v5.2832h-.82031Z"/><path class="cls-8" d="M182.10781,90.12048a.59975.59975,0,0,0-.27832-.52735,1.69721,1.69721,0,0,0-.40039-.19726,4.24972,4.24972,0,0,0-.62012-.16406,6.21085,6.21085,0,0,1-.82813-.22461,2.73027,2.73027,0,0,1-.63964-.31446,1.38621,1.38621,0,0,1-.41211-.42968,1.10379,1.10379,0,0,1-.14649-.57422,1.24037,1.24037,0,0,1,.15137-.60254,1.533,1.533,0,0,1,.4248-.49121,2.15249,2.15249,0,0,1,.65137-.332,2.71592,2.71592,0,0,1,.833-.12208,2.85856,2.85856,0,0,1,.8789.127,2.03693,2.03693,0,0,1,.66407.35156,1.59561,1.59561,0,0,1,.42187.52539,1.43232,1.43232,0,0,1,.14942.64649h-.90332a.69713.69713,0,0,0-.08789-.334.969.969,0,0,0-.24415-.291,1.285,1.285,0,0,0-.3789-.20508,1.505,1.505,0,0,0-.5-.07813,1.82631,1.82631,0,0,0-.50586.06348,1.161,1.161,0,0,0-.36133.1709.74316.74316,0,0,0-.2168.249.65356.65356,0,0,0-.01464.57129.56244.56244,0,0,0,.20214.21973,1.52334,1.52334,0,0,0,.38575.17578,5.35335,5.35335,0,0,0,.61328.15136,7.11281,7.11281,0,0,1,.874.23731,2.5338,2.5338,0,0,1,.64942.32227,1.33761,1.33761,0,0,1,.40234.43652,1.16242,1.16242,0,0,1,.13965.57617,1.29507,1.29507,0,0,1-.15918.63965,1.49351,1.49351,0,0,1-.44141.49316,2.13814,2.13814,0,0,1-.67871.31739,3.14306,3.14306,0,0,1-.86426.1123,2.94745,2.94745,0,0,1-.957-.14355,2.32135,2.32135,0,0,1-.71094-.38086,1.64292,1.64292,0,0,1-.44433-.54981,1.45174,1.45174,0,0,1-.15332-.64941h.90332a.93487.93487,0,0,0,.14844.46875,1.05138,1.05138,0,0,0,.32226.30761,1.34163,1.34163,0,0,0,.42774.166,2.22281,2.22281,0,0,0,.46386.04883,1.67373,1.67373,0,0,0,.90332-.21A.64856.64856,0,0,0,182.10781,90.12048Z"/><line class="cls-5" x1="64.94922" y1="109.70429" x2="304.68414" y2="109.70429"/><polygon class="cls-6" points="301.371 113.794 300.689 113.062 304.3 109.705 300.689 106.348 301.371 105.615 305.769 109.705 301.371 113.794"/><rect class="cls-7" x="99.91726" y="100.70427" width="89.90342" height="18"/><path class="cls-8" d="M105.84023,111.392a1.81,1.81,0,0,1,.09766-.60547,1.9907,1.9907,0,0,1,.27343-.51953,2.86962,2.86962,0,0,1,.41992-.459,5.92513,5.92513,0,0,1,.542-.42774,5.47349,5.47349,0,0,1-.52051-.83984,1.8665,1.8665,0,0,1-.19238-.8252,2.01316,2.01316,0,0,1,.124-.73437,1.44248,1.44248,0,0,1,.35449-.53711,1.50773,1.50773,0,0,1,.55176-.33008,2.20068,2.20068,0,0,1,.72266-.1123,1.5854,1.5854,0,0,1,.62988.12207,1.45244,1.45244,0,0,1,.48047.33007,1.47754,1.47754,0,0,1,.30566.48047,1.572,1.572,0,0,1,.10742.57618,1.38935,1.38935,0,0,1-.07617.47168,1.53661,1.53661,0,0,1-.21.39746,2.18554,2.18554,0,0,1-.31934.35156c-.124.11133-.25781.21973-.40039.32715l-.459.39062,1.499,1.96778a3.04838,3.04838,0,0,0,.26856-.6836,3.34471,3.34471,0,0,0,.10254-.80078h.81543a3.63874,3.63874,0,0,1-.17871,1.16016,3.107,3.107,0,0,1-.51954.96386l.88379,1.15723h-1.0791l-.40527-.53711a2.69308,2.69308,0,0,1-.7959.47168,2.58842,2.58842,0,0,1-.91309.16309,2.54051,2.54051,0,0,1-.874-.1416,1.89848,1.89848,0,0,1-.66406-.39551,1.74127,1.74127,0,0,1-.42285-.60742A1.98972,1.98972,0,0,1,105.84023,111.392Zm2.10937,1.18652a1.80514,1.80514,0,0,0,.66895-.12695,2.14007,2.14007,0,0,0,.60059-.36133l-1.57715-2.10449-.13672.11719a2.63335,2.63335,0,0,0-.39551.39062,1.89237,1.89237,0,0,0-.23242.35938,1.32128,1.32128,0,0,0-.10742.30762,1.28644,1.28644,0,0,0-.02637.23144,1.32951,1.32951,0,0,0,.07812.46387,1.06593,1.06593,0,0,0,.2295.376,1.05251,1.05251,0,0,0,.376.2539A1.34556,1.34556,0,0,0,107.9496,112.57848Zm-.58105-4.873a1.40645,1.40645,0,0,0,.12207.55957,3.41673,3.41673,0,0,0,.3418.60254l.57129-.4541a1.28336,1.28336,0,0,0,.249-.21485.93872.93872,0,0,0,.22656-.459,1.24235,1.24235,0,0,0,.02246-.22949.88605.88605,0,0,0-.04687-.28516.69623.69623,0,0,0-.13672-.24414.71588.71588,0,0,0-.2168-.1709.617.617,0,0,0-.28808-.06641.8314.8314,0,0,0-.36914.07813.77574.77574,0,0,0-.26368.21.91831.91831,0,0,0-.1582.30566A1.22534,1.22534,0,0,0,107.36855,107.70544Z"/><path class="cls-8" d="M113.20742,113.21325v-4.585h-1.45508v-.69824h1.45508v-.3711a2.44175,2.44175,0,0,1,.14941-.89062,1.74217,1.74217,0,0,1,.41992-.64258,1.773,1.773,0,0,1,.65137-.39062,2.58506,2.58506,0,0,1,.84961-.13184,3.68941,3.68941,0,0,1,.62793.05371q.30468.0542.627.13672l-.10742.74707a3.60867,3.60867,0,0,0-.46582-.11914,3.00974,3.00974,0,0,0-.56934-.05176,1.32154,1.32154,0,0,0-.9541.32227,1.30743,1.30743,0,0,0-.32031.96679v.3711h2.03613v.69824h-2.03613v4.585Z"/><path class="cls-8" d="M117.88222,107.93005h2.7002v4.502h1.72363v.78125h-4.42383V112.432h1.79688v-3.71582h-1.79688Zm1.67969-1.38672a.55316.55316,0,0,1,.13476-.37793.61195.61195,0,0,1,.8125,0,.54534.54534,0,0,1,.13672.37793.51315.51315,0,0,1-.13672.36621.63659.63659,0,0,1-.8125,0A.52028.52028,0,0,1,119.56191,106.54333Z"/><path class="cls-8" d="M126.016,113.31091a2.68567,2.68567,0,0,1-1.02344-.19043,2.307,2.307,0,0,1-.79785-.53223,2.41628,2.41628,0,0,1-.51758-.81055,2.74054,2.74054,0,0,1-.18554-1.0205v-.20508a3.02289,3.02289,0,0,1,.20507-1.14453,2.6315,2.6315,0,0,1,.544-.8545,2.37538,2.37538,0,0,1,.77148-.53515,2.23917,2.23917,0,0,1,.88672-.18555,2.35166,2.35166,0,0,1,.99805.19824,1.95718,1.95718,0,0,1,.71094.54688,2.33555,2.33555,0,0,1,.42187.82226,3.62959,3.62959,0,0,1,.13965,1.02539v.40528h-3.77441a2.06938,2.06938,0,0,0,.13867.67871,1.7713,1.7713,0,0,0,.3418.55469,1.586,1.586,0,0,0,1.18945.50976,1.83009,1.83009,0,0,0,.85937-.19531,1.86652,1.86652,0,0,0,.625-.51758l.55176.42969a2.09107,2.09107,0,0,1-.33008.38379,2.26265,2.26265,0,0,1-.456.32422,2.59681,2.59681,0,0,1-.58594.22754A2.8366,2.8366,0,0,1,126.016,113.31091Zm-.11719-4.73633a1.3411,1.3411,0,0,0-.957.39355,1.65181,1.65181,0,0,0-.33008.47364,2.24157,2.24157,0,0,0-.1875.64648h2.8418v-.06836a1.9936,1.9936,0,0,0-.10059-.52246,1.46145,1.46145,0,0,0-.251-.46387,1.26757,1.26757,0,0,0-.418-.332A1.31931,1.31931,0,0,0,125.89882,108.57458Z"/><path class="cls-8" d="M129.75429,105.71325h2.7002V112.432h1.72363v.78125h-4.42383V112.432h1.79688v-5.93262h-1.79688Z"/><path class="cls-8" d="M135.39785,110.5277a3.74751,3.74751,0,0,1,.14941-1.08593,2.57555,2.57555,0,0,1,.4248-.85254,1.98177,1.98177,0,0,1,.666-.55664,1.89713,1.89713,0,0,1,.874-.2002,1.99847,1.99847,0,0,1,.82813.15918,1.72937,1.72937,0,0,1,.6123.46094v-2.73926h.90332v7.5h-.83007l-.03907-.55664a1.72425,1.72425,0,0,1-.62988.48828,2.04,2.04,0,0,1-.85449.166,1.82629,1.82629,0,0,1-.86621-.20508,1.9871,1.9871,0,0,1-.66211-.56641,2.75086,2.75086,0,0,1-.42481-.85156,3.58175,3.58175,0,0,1-.15136-1.05762Zm.90332.10254a3.16383,3.16383,0,0,0,.083.73242,1.90141,1.90141,0,0,0,.25684.61036,1.225,1.225,0,0,0,1.08594.57129,1.474,1.474,0,0,0,.415-.05372,1.20375,1.20375,0,0,0,.33691-.15332,1.25481,1.25481,0,0,0,.26856-.23925,1.64585,1.64585,0,0,0,.20507-.31055V109.3363a1.51476,1.51476,0,0,0-.47363-.5293,1.263,1.263,0,0,0-.74219-.208,1.23592,1.23592,0,0,0-1.0957.5791,1.91974,1.91974,0,0,0-.25684.61524,3.19949,3.19949,0,0,0-.083.73437Z"/><path class="cls-8" d="M146.41249,111.07458a3.11223,3.11223,0,0,1-.2539.90625,2.338,2.338,0,0,1-.4961.708,2.16965,2.16965,0,0,1-.72265.459,2.5414,2.5414,0,0,1-.92969.16309,2.42683,2.42683,0,0,1-.79883-.124,2.20251,2.20251,0,0,1-.63965-.34472,2.30065,2.30065,0,0,1-.48339-.51758,3.16714,3.16714,0,0,1-.33692-.64942,3.93922,3.93922,0,0,1-.20019-.7373,4.95379,4.95379,0,0,1-.07032-.78125v-.99121a4.96419,4.96419,0,0,1,.07032-.78125,3.95985,3.95985,0,0,1,.20019-.73731,3.23413,3.23413,0,0,1,.33692-.65136,2.294,2.294,0,0,1,.48339-.52051,2.202,2.202,0,0,1,.6377-.34375,2.41354,2.41354,0,0,1,.80078-.125,2.6028,2.6028,0,0,1,.95215.16406,2.08875,2.08875,0,0,1,.72266.46387,2.30729,2.30729,0,0,1,.48535.71973,3.2455,3.2455,0,0,1,.24218.92773h-.90332a2.67815,2.67815,0,0,0-.15136-.60059,1.68458,1.68458,0,0,0-.28809-.48828,1.27166,1.27166,0,0,0-.44238-.3291,1.465,1.465,0,0,0-.61719-.12012,1.44063,1.44063,0,0,0-.56934.10547,1.31089,1.31089,0,0,0-.4248.28516,1.6736,1.6736,0,0,0-.29785.41992,2.82373,2.82373,0,0,0-.19238.50781,3.69273,3.69273,0,0,0-.10547.54981,4.98466,4.98466,0,0,0-.03125.54394v1.001a5.01619,5.01619,0,0,0,.03125.54492,3.76655,3.76655,0,0,0,.10547.55176,2.82845,2.82845,0,0,0,.19043.50977,1.57316,1.57316,0,0,0,.29785.42285,1.324,1.324,0,0,0,.4248.28808,1.4444,1.4444,0,0,0,.57129.10449,1.5478,1.5478,0,0,0,.61719-.1123,1.23528,1.23528,0,0,0,.44238-.31445,1.595,1.595,0,0,0,.28809-.47852,2.64769,2.64769,0,0,0,.15136-.59863Z"/><path class="cls-8" d="M152.18789,109.40466h-4.36036v-.78614h4.36036Zm0,2.02636h-4.36036v-.78125h4.36036Z"/><path class="cls-8" d="M158.48671,110.63024a3.94027,3.94027,0,0,1-.13672,1.05762,2.63016,2.63016,0,0,1-.40039.85156,1.83728,1.83728,0,0,1-1.543.77149,1.99646,1.99646,0,0,1-.88184-.18067,1.787,1.787,0,0,1-.63672-.51758l-.04394.60059h-.83008v-7.5h.90332v2.7832a1.73077,1.73077,0,0,1,.625-.49316,2.00941,2.00941,0,0,1,.85449-.1709,1.95367,1.95367,0,0,1,.89844.2002,1.87079,1.87079,0,0,1,.65429.55664,2.57881,2.57881,0,0,1,.40039.85254,4.08635,4.08635,0,0,1,.13672,1.08593Zm-.90332-.10254a3.43521,3.43521,0,0,0-.07617-.73437,1.90155,1.90155,0,0,0-.24121-.61524,1.25055,1.25055,0,0,0-.43457-.42285,1.30139,1.30139,0,0,0-.65918-.15625,1.423,1.423,0,0,0-.42969.06153,1.20173,1.20173,0,0,0-.34961.17089,1.37231,1.37231,0,0,0-.27343.25879,1.59877,1.59877,0,0,0-.20215.32422V111.724a1.85735,1.85735,0,0,0,.207.3252,1.40077,1.40077,0,0,0,.27637.26074,1.20662,1.20662,0,0,0,.35156.17383,1.455,1.455,0,0,0,.42969.06055,1.20162,1.20162,0,0,0,1.07128-.57129,1.93605,1.93605,0,0,0,.249-.61036,3.21872,3.21872,0,0,0,.08105-.73242Z"/><path class="cls-8" d="M159.95644,110.52282a3.29945,3.29945,0,0,1,.166-1.06152,2.55652,2.55652,0,0,1,.47656-.85254,2.21065,2.21065,0,0,1,.7539-.56836,2.33526,2.33526,0,0,1,1.001-.208,2.36157,2.36157,0,0,1,1.00879.208,2.21255,2.21255,0,0,1,.75684.56836,2.5547,2.5547,0,0,1,.47558.85254,3.2731,3.2731,0,0,1,.166,1.06152v.10742a3.25272,3.25272,0,0,1-.166,1.05957,2.54064,2.54064,0,0,1-.47558.84961,2.18492,2.18492,0,0,1-.75489.56641,2.36043,2.36043,0,0,1-1.001.20508,2.389,2.389,0,0,1-1.00782-.20508,2.174,2.174,0,0,1-.75683-.56641,2.54246,2.54246,0,0,1-.47656-.84961,3.27884,3.27884,0,0,1-.166-1.05957Zm.90332.10742a2.94476,2.94476,0,0,0,.09277.74512,1.92778,1.92778,0,0,0,.28125.62207,1.371,1.371,0,0,0,.47071.4248,1.34257,1.34257,0,0,0,.65918.15625,1.31587,1.31587,0,0,0,.65234-.15625,1.39188,1.39188,0,0,0,.46875-.4248,1.92607,1.92607,0,0,0,.28027-.62207,2.90111,2.90111,0,0,0,.09278-.74512v-.10742a2.83023,2.83023,0,0,0-.09473-.73926,1.97847,1.97847,0,0,0-.2832-.623,1.429,1.429,0,0,0-.46875-.42676,1.30754,1.30754,0,0,0-.65723-.15918,1.29382,1.29382,0,0,0-.6543.15918,1.41963,1.41963,0,0,0-.46582.42676,1.933,1.933,0,0,0-.28125.623,2.91545,2.91545,0,0,0-.09277.73926Z"/><path class="cls-8" d="M166.22109,110.5277a3.8905,3.8905,0,0,1,.14355-1.08593,2.56541,2.56541,0,0,1,.418-.85254,1.94735,1.94735,0,0,1,.66406-.55664,1.91494,1.91494,0,0,1,.88379-.2002,1.98105,1.98105,0,0,1,.85645.17383,1.73021,1.73021,0,0,1,.62793.5l.04394-.57617h.82032v5.1709a2.453,2.453,0,0,1-.16407.92773,1.91308,1.91308,0,0,1-1.16406,1.11816,2.68443,2.68443,0,0,1-.9082.14649,2.802,2.802,0,0,1-.46875-.0459,2.92444,2.92444,0,0,1-.53516-.15137,2.48979,2.48979,0,0,1-.52246-.28125,1.73873,1.73873,0,0,1-.43164-.43457l.46875-.542a2.28675,2.28675,0,0,0,.3418.33984,1.7113,1.7113,0,0,0,.35644.22168,1.61773,1.61773,0,0,0,.36133.12012,1.80626,1.80626,0,0,0,.36133.03613,1.69889,1.69889,0,0,0,.581-.09277,1.21549,1.21549,0,0,0,.44141-.27051,1.18552,1.18552,0,0,0,.28125-.44238,1.74975,1.74975,0,0,0,.09766-.60547v-.4541a1.76986,1.76986,0,0,1-.62305.46191,2.04636,2.04636,0,0,1-.832.15821,1.84945,1.84945,0,0,1-.874-.20508,1.94979,1.94979,0,0,1-.66211-.56641,2.67578,2.67578,0,0,1-.417-.85156,3.68172,3.68172,0,0,1-.14648-1.05762Zm.90332.10254a3.21937,3.21937,0,0,0,.08008.73242,1.8761,1.8761,0,0,0,.2539.61036,1.29308,1.29308,0,0,0,.44239.418,1.27454,1.27454,0,0,0,.64453.15333,1.48105,1.48105,0,0,0,.42187-.05567,1.19171,1.19171,0,0,0,.33692-.15918,1.28925,1.28925,0,0,0,.2666-.24414,1.69393,1.69393,0,0,0,.20508-.3125V109.351a1.68227,1.68227,0,0,0-.20508-.30274,1.29257,1.29257,0,0,0-.26856-.23633,1.26611,1.26611,0,0,0-.33691-.15625,1.3931,1.3931,0,0,0-.41016-.05664,1.23606,1.23606,0,0,0-1.09668.5791,1.8944,1.8944,0,0,0-.2539.61524,3.25537,3.25537,0,0,0-.08008.73437Z"/><path class="cls-8" d="M175.99062,112.48571a1.81142,1.81142,0,0,1-1.57227.8252,2.0873,2.0873,0,0,1-.75195-.12891,1.444,1.444,0,0,1-.57617-.40332,1.87039,1.87039,0,0,1-.36914-.69531,3.50054,3.50054,0,0,1-.12891-1.01367v-3.13965h.90332v3.14941a3.083,3.083,0,0,0,.06836.71289,1.10955,1.10955,0,0,0,.20508.45215.7237.7237,0,0,0,.334.23633,1.3888,1.3888,0,0,0,.457.06836,1.58223,1.58223,0,0,0,.89062-.22461,1.36414,1.36414,0,0,0,.50586-.60547v-3.78906h.9082v5.2832h-.82031Z"/><path class="cls-8" d="M182.12343,111.81188a.59966.59966,0,0,0-.27832-.52734,1.6779,1.6779,0,0,0-.40039-.19727,4.2182,4.2182,0,0,0-.62012-.16406,6.19339,6.19339,0,0,1-.82714-.22461,2.71119,2.71119,0,0,1-.63965-.31445,1.37881,1.37881,0,0,1-.41309-.42969,1.10378,1.10378,0,0,1-.14648-.57422,1.25134,1.25134,0,0,1,.15136-.60254,1.55763,1.55763,0,0,1,.42481-.49121,2.15811,2.15811,0,0,1,.65234-.332,2.7054,2.7054,0,0,1,.832-.12207,2.85,2.85,0,0,1,.87891.12695,2.0172,2.0172,0,0,1,.66406.35157,1.59863,1.59863,0,0,1,.42285.52539,1.44423,1.44423,0,0,1,.14844.64648h-.90332a.69713.69713,0,0,0-.08789-.334.95484.95484,0,0,0-.24414-.291,1.27988,1.27988,0,0,0-.37793-.20508,1.51537,1.51537,0,0,0-.501-.07812,1.81861,1.81861,0,0,0-.50488.06348,1.14,1.14,0,0,0-.36133.17089.73582.73582,0,0,0-.21777.249.6536.6536,0,0,0-.01465.57129.55811.55811,0,0,0,.20313.21972,1.50714,1.50714,0,0,0,.38574.17578,5.38261,5.38261,0,0,0,.6123.15137,7.01692,7.01692,0,0,1,.874.23731,2.51746,2.51746,0,0,1,.64941.32226,1.34112,1.34112,0,0,1,.40332.43652,1.16205,1.16205,0,0,1,.13867.57618,1.30488,1.30488,0,0,1-.1582.63965,1.49672,1.49672,0,0,1-.44238.49316,2.1282,2.1282,0,0,1-.67871.31738,3.14272,3.14272,0,0,1-.86426.11231,2.95553,2.95553,0,0,1-.957-.14356,2.31532,2.31532,0,0,1-.71-.38086,1.631,1.631,0,0,1-.44434-.5498,1.4529,1.4529,0,0,1-.1543-.64942h.90332a.93528.93528,0,0,0,.14942.46875,1.03,1.03,0,0,0,.32226.30762,1.32729,1.32729,0,0,0,.42676.166,2.22969,2.22969,0,0,0,.46387.04882,1.67136,1.67136,0,0,0,.90332-.21A.64449.64449,0,0,0,182.12343,111.81188Z"/><rect class="cls-1" x="11.82142" y="36.63677" width="70.9217" height="80.20217"/><path class="cls-3" d="M32.352,101.65466H28.6332l-.64942,1.62793H26.97206l2.94825-7.33789h1.13281l2.96,7.33789H33.00039Zm-3.45508-.81446h3.17969l-1.584-4.082Z"/><path class="cls-3" d="M35.08925,102.17126V98.6947h-.87988v-.72559h.87988V96.517h.8252v1.45215h1.07812v.72559H35.91445v3.30078c0,.3955.17578.68164.53906.68164a.79667.79667,0,0,0,.56152-.21973l.24121.61621a1.34646,1.34646,0,0,1-.98925.34082A1.0875,1.0875,0,0,1,35.08925,102.17126Z"/><path class="cls-3" d="M38.434,102.17126V98.6947H37.5541v-.72559H38.434V96.517h.82519v1.45215H40.3373v.72559H39.25917v3.30078c0,.3955.17579.68164.53907.68164a.79669.79669,0,0,0,.56152-.21973l.24121.61621a1.34648,1.34648,0,0,1-.98926.34082A1.0875,1.0875,0,0,1,38.434,102.17126Z"/><path class="cls-3" d="M44.935,102.67712a2.29816,2.29816,0,0,1-1.76075.7373,1.7687,1.7687,0,0,1-1.8584-1.75976,1.7404,1.7404,0,0,1,1.8584-1.75,2.22179,2.22179,0,0,1,1.76075.72656v-.957c0-.71485-.57227-1.12207-1.34278-1.12207a2.10917,2.10917,0,0,0-1.62793.7373l-.38476-.57226a2.77881,2.77881,0,0,1,2.123-.87989c1.12207,0,2.05762.50586,2.05762,1.793v3.65235H44.935Zm0-1.51758a1.77837,1.77837,0,0,0-1.4629-.66016,1.16911,1.16911,0,1,0,0,2.32129,1.77836,1.77836,0,0,0,1.4629-.66015Z"/><path class="cls-3" d="M49.86269,97.83727A2.27432,2.27432,0,0,1,51.81,98.7611l-.55079.50586a1.57381,1.57381,0,0,0-1.35253-.69336,2.0642,2.0642,0,0,0,0,4.10352,1.60116,1.60116,0,0,0,1.35253-.69239l.55079.50586a2.27432,2.27432,0,0,1-1.94727.92383,2.79212,2.79212,0,0,1,0-5.57715Z"/><path class="cls-3" d="M54.77968,100.89489l-.87988.86914v1.51856h-.8252V95.9447h.8252v4.85156l2.79394-2.82715h1.04493l-2.3545,2.40918,2.36622,2.9043H56.69374Z"/><path class="cls-3" d="M60.89492,97.83727a2.58051,2.58051,0,0,1,2.55273,2.84864v.209H59.14589A1.87283,1.87283,0,0,0,61.06,102.73278a2.32411,2.32411,0,0,0,1.63964-.6709l.39649.53907a2.88945,2.88945,0,0,1-2.11231.81347,2.79193,2.79193,0,0,1-.08886-5.57715Zm-1.749,2.45313H62.6332a1.72244,1.72244,0,0,0-1.749-1.77149A1.773,1.773,0,0,0,59.14589,100.2904Z"/><path class="cls-3" d="M64.88808,97.96911h.8252v.85742a2.25856,2.25856,0,0,1,1.7705-.96777v.84668a1.48062,1.48062,0,0,0-.33007-.03223,1.94187,1.94187,0,0,0-1.44043.84668v3.7627h-.8252Z"/><path class="cls-2" d="M39.28192,89.34529V82.92863s-11.66213.01569-9.79776-14.48534C30.57129,59.98768,36.44434,55.69,41.1523,53.69746a15.6987,15.6987,0,0,1,12.27216.00173c4.70364,1.9932,10.56925,6.29094,11.65606,14.7441,1.86437,14.501-9.80571,14.48534-9.80571,14.48534v6.41666M39.61548,64.944c-2.76143,0-5,2.57436-5,5.75s2.23857,5.75,5,5.75,5-2.57437,5-5.75S42.3769,64.944,39.61548,64.944Zm15.18052,0c-2.76143,0-5,2.57436-5,5.75s2.23857,5.75,5,5.75,5-2.57437,5-5.75S57.55742,64.944,54.796,64.944ZM44.07979,90.94946V84.53279m6.39715,0v6.41667M47.21988,75.80759c-.73506,0-2.482,2.54041-2.482,3.33979a1.57578,1.57578,0,0,0,1.47482,1.66021,1.38851,1.38851,0,0,0,1.02518-.46986,1.38848,1.38848,0,0,0,1.02517.46986,1.57579,1.57579,0,0,0,1.47483-1.66021C49.73787,78.33412,47.95494,75.80759,47.21988,75.80759Z"/></svg>