<?xml version="1.0" encoding="utf-8"?>
<!-- Generator: Adobe Illustrator 25.2.3, SVG Export Plug-In . SVG Version: 6.00 Build 0)  -->
<svg version="1.1" id="Layer_1" xmlns="http://www.w3.org/2000/svg" xmlns:xlink="http://www.w3.org/1999/xlink" x="0px" y="0px"
	 viewBox="0 0 50 50" style="enable-background:new 0 0 50 50;" xml:space="preserve">
<g id="b3192750-7582-4e17-8e35-ccc801cd058b">
	<path style="fill:#1D9CD3;" d="M22.371,24.381c-0.045-0.089-0.076-0.184-0.095-0.282c-0.024-0.116-0.04-0.234-0.05-0.352
		c-0.105,0.103-0.217,0.199-0.336,0.285c-0.128,0.092-0.265,0.171-0.409,0.236c-0.152,0.07-0.312,0.124-0.475,0.161
		c-0.176,0.041-0.356,0.06-0.537,0.059c-0.284,0.004-0.566-0.042-0.835-0.134c-0.232-0.08-0.448-0.203-0.634-0.363
		c-0.171-0.15-0.307-0.335-0.4-0.542c-0.096-0.213-0.145-0.445-0.143-0.679c-0.006-0.291,0.059-0.579,0.191-0.838
		c0.128-0.242,0.313-0.448,0.54-0.6c0.255-0.17,0.54-0.291,0.84-0.357c0.361-0.083,0.73-0.123,1.1-0.119h1.084V20.4
		c0.001-0.163-0.033-0.324-0.1-0.473c-0.064-0.138-0.157-0.26-0.274-0.357c-0.128-0.104-0.275-0.181-0.433-0.228
		c-0.185-0.056-0.378-0.084-0.572-0.081c-0.179-0.003-0.357,0.023-0.528,0.075c-0.142,0.044-0.276,0.111-0.395,0.2
		c-0.104,0.078-0.189,0.178-0.25,0.293c-0.058,0.108-0.089,0.229-0.089,0.352h-1c0.005-0.218,0.061-0.431,0.164-0.623
		c0.113-0.213,0.268-0.4,0.456-0.551c0.217-0.175,0.463-0.31,0.726-0.4c0.312-0.104,0.64-0.155,0.969-0.15
		c0.31-0.003,0.62,0.038,0.919,0.121c0.266,0.072,0.515,0.196,0.733,0.365c0.207,0.163,0.373,0.372,0.486,0.61
		c0.123,0.267,0.184,0.56,0.177,0.854v2.7c0.001,0.206,0.019,0.412,0.054,0.616c0.029,0.194,0.08,0.383,0.15,0.566v0.086
		L22.371,24.381z M20.614,23.624c0.184,0.002,0.367-0.024,0.543-0.076c0.161-0.047,0.315-0.115,0.459-0.2
		c0.131-0.078,0.251-0.173,0.357-0.283c0.095-0.097,0.174-0.209,0.236-0.33v-1.174h-0.923c-0.465-0.023-0.93,0.065-1.354,0.258
		c-0.309,0.15-0.499,0.468-0.483,0.811c-0.002,0.137,0.023,0.272,0.072,0.4c0.047,0.121,0.122,0.228,0.218,0.315
		c0.106,0.093,0.231,0.163,0.365,0.206C20.269,23.604,20.441,23.628,20.614,23.624z"/>
	<path style="fill:#1D9CD3;" d="M30.078,21.54c0.003,0.392-0.048,0.783-0.151,1.162c-0.089,0.337-0.238,0.654-0.44,0.938
		c-0.188,0.26-0.433,0.473-0.717,0.623c-0.302,0.154-0.636,0.231-0.975,0.225c-0.321,0.006-0.64-0.052-0.938-0.172
		c-0.267-0.11-0.507-0.279-0.7-0.494v2.793h-0.994v-8.046h0.908l0.049,0.634c0.188-0.235,0.427-0.424,0.7-0.551
		c0.3-0.132,0.626-0.197,0.954-0.19c0.342-0.007,0.681,0.069,0.988,0.22c0.284,0.145,0.531,0.355,0.72,0.612
		c0.203,0.283,0.352,0.6,0.44,0.937c0.104,0.391,0.155,0.795,0.151,1.2L30.078,21.54z M29.084,21.427
		c0.001-0.272-0.03-0.544-0.094-0.809c-0.056-0.241-0.154-0.47-0.29-0.677c-0.128-0.191-0.299-0.35-0.5-0.464
		c-0.221-0.12-0.469-0.179-0.72-0.172c-0.283-0.01-0.563,0.068-0.8,0.223c-0.216,0.147-0.393,0.343-0.519,0.572v2.8
		c0.126,0.225,0.302,0.418,0.516,0.562c0.244,0.152,0.528,0.228,0.816,0.217c0.249,0.007,0.496-0.053,0.714-0.174
		c0.201-0.115,0.373-0.276,0.5-0.47c0.134-0.209,0.231-0.44,0.287-0.682c0.064-0.266,0.095-0.538,0.094-0.811L29.084,21.427z"/>
	<path style="fill:#1D9CD3;" d="M36.722,21.54c0.003,0.392-0.048,0.783-0.151,1.162c-0.089,0.337-0.238,0.654-0.44,0.938
		c-0.388,0.546-1.022,0.864-1.692,0.848c-0.321,0.006-0.64-0.052-0.938-0.172c-0.267-0.111-0.506-0.279-0.7-0.494v2.793h-0.994
		v-8.046h0.908l0.049,0.634c0.188-0.235,0.427-0.424,0.7-0.551c0.3-0.132,0.626-0.197,0.954-0.19
		c0.342-0.007,0.681,0.068,0.988,0.22c0.285,0.145,0.531,0.355,0.72,0.612c0.203,0.283,0.352,0.6,0.44,0.937
		c0.104,0.391,0.155,0.795,0.151,1.2L36.722,21.54z M35.728,21.427c0.001-0.272-0.03-0.544-0.094-0.809
		c-0.056-0.241-0.154-0.47-0.29-0.677c-0.128-0.191-0.299-0.35-0.5-0.464c-0.221-0.12-0.469-0.179-0.72-0.172
		c-0.283-0.01-0.563,0.068-0.8,0.223c-0.216,0.147-0.393,0.343-0.519,0.572v2.8c0.126,0.225,0.302,0.418,0.516,0.562
		c0.244,0.152,0.528,0.228,0.816,0.217c0.25,0.007,0.496-0.054,0.715-0.174c0.199-0.116,0.368-0.277,0.494-0.47
		c0.134-0.209,0.231-0.44,0.287-0.682c0.064-0.266,0.095-0.538,0.094-0.811L35.728,21.427z"/>
	<g id="b70fa9cd-67cc-4377-a706-d1979a7f1a5c">
		<path style="fill:#1D9CD3;" d="M37.6,40.5H25.535c-0.276,0-0.5-0.224-0.5-0.5s0.224-0.5,0.5-0.5H37.6
			c3.839-0.004,6.951-3.116,6.955-6.955v-20.09C44.551,8.616,41.439,5.504,37.6,5.5H17.506c-3.839,0.004-6.951,3.116-6.955,6.955
			v12.077c0,0.276-0.224,0.5-0.5,0.5s-0.5-0.224-0.5-0.5V12.455c0.006-4.391,3.564-7.949,7.955-7.955H37.6
			c4.391,0.006,7.949,3.564,7.955,7.955v20.09C45.549,36.936,41.991,40.494,37.6,40.5z"/>
	</g>
	<path style="fill:#1D9CD3;" d="M15.235,45.5L15.235,45.5l-1.676-0.008c-0.237-0.001-0.441-0.168-0.488-0.4l-0.424-2.174
		c-0.155-0.038-0.31-0.081-0.465-0.129L10.77,44.46c-0.157,0.185-0.423,0.231-0.633,0.109L8.689,43.73
		c-0.207-0.12-0.3-0.369-0.223-0.595l0.722-2.1c-0.1-0.1-0.2-0.2-0.3-0.3l-2.05,0.761c-0.228,0.085-0.484-0.007-0.606-0.217
		L5.39,39.828c-0.12-0.206-0.078-0.468,0.1-0.626l1.661-1.474c-0.052-0.175-0.1-0.353-0.139-0.532l-2.151-0.383
		c-0.241-0.043-0.416-0.255-0.412-0.5l0.011-1.674c0.001-0.237,0.168-0.441,0.4-0.488l2.179-0.43
		c0.038-0.154,0.082-0.309,0.13-0.466L5.5,31.854c-0.185-0.156-0.232-0.423-0.11-0.633l0.843-1.45
		c0.12-0.206,0.368-0.299,0.593-0.222l2.1,0.715c0.1-0.1,0.2-0.2,0.3-0.3L8.478,27.92c-0.084-0.227,0.007-0.482,0.216-0.605
		l1.449-0.847c0.206-0.12,0.468-0.078,0.626,0.1l1.472,1.655c0.174-0.053,0.35-0.1,0.528-0.14l0.385-2.152
		c0.043-0.238,0.25-0.411,0.492-0.411l0,0h1.677c0.237,0,0.442,0.168,0.489,0.4l0.428,2.174c0.154,0.037,0.309,0.079,0.465,0.127
		l1.409-1.673c0.156-0.185,0.422-0.232,0.632-0.111l1.45,0.836c0.207,0.12,0.3,0.369,0.223,0.595l-0.716,2.1
		c0.1,0.1,0.2,0.2,0.3,0.3l2.048-0.764c0.228-0.085,0.484,0.006,0.607,0.216l0.846,1.444c0.121,0.206,0.079,0.469-0.1,0.627
		l-1.659,1.477c0.053,0.175,0.1,0.352,0.141,0.531l2.151,0.379c0.24,0.042,0.414,0.251,0.413,0.495l-0.008,1.675
		c-0.001,0.237-0.168,0.441-0.4,0.488l-2.178,0.434c-0.037,0.154-0.08,0.31-0.129,0.466l1.671,1.4
		c0.186,0.156,0.232,0.423,0.111,0.633l-0.84,1.451c-0.119,0.206-0.367,0.3-0.592,0.224l-2.105-0.711c-0.1,0.1-0.2,0.2-0.3,0.3
		l0.761,2.044c0.085,0.228-0.006,0.483-0.216,0.606l-1.447,0.849c-0.206,0.12-0.468,0.078-0.626-0.1l-1.475-1.652
		c-0.183,0.056-0.368,0.105-0.556,0.148l-0.39,2.15C15.693,45.322,15.482,45.501,15.235,45.5z M13.971,44.494h0.847l0.375-2.071
		c0.038-0.203,0.197-0.362,0.4-0.4c0.361-0.064,0.716-0.159,1.062-0.282c0.192-0.068,0.406-0.014,0.541,0.138l1.421,1.591
		l0.733-0.429l-0.733-1.97c-0.073-0.196-0.016-0.417,0.143-0.553c0.245-0.211,0.474-0.439,0.686-0.683
		c0.133-0.153,0.346-0.21,0.538-0.145l2.026,0.684l0.424-0.733l-1.609-1.351c-0.161-0.134-0.221-0.355-0.15-0.552
		c0.102-0.282,0.185-0.57,0.248-0.863c0.041-0.2,0.219-0.475,0.415-0.514l2.1-0.419v-0.845l-2.071-0.366
		c-0.205-0.036-0.366-0.195-0.405-0.4c-0.063-0.354-0.155-0.701-0.275-1.04c-0.068-0.191-0.013-0.405,0.138-0.54l1.6-1.423
		l-0.427-0.729l-1.973,0.736c-0.196,0.073-0.418,0.016-0.554-0.143c-0.206-0.247-0.431-0.478-0.671-0.692
		c-0.153-0.133-0.21-0.346-0.145-0.538l0.69-2.025l-0.731-0.422l-1.358,1.613c-0.134,0.159-0.354,0.219-0.55,0.149
		c-0.283-0.102-0.573-0.184-0.867-0.247c-0.229-0.045-0.421-0.201-0.511-0.416l-0.413-2.1h-0.848l-0.371,2.072
		c-0.038,0.203-0.197,0.362-0.4,0.4c-0.353,0.064-0.701,0.157-1.039,0.276c-0.192,0.068-0.405,0.013-0.54-0.139l-1.418-1.594
		l-0.733,0.428l0.729,1.971c0.072,0.196,0.015,0.417-0.144,0.553c-0.245,0.21-0.475,0.438-0.688,0.681
		c-0.133,0.153-0.345,0.21-0.537,0.145L6.9,30.627L6.474,31.36l1.607,1.354c0.16,0.135,0.219,0.355,0.148,0.552
		c-0.104,0.286-0.189,0.579-0.253,0.876c-0.044,0.226-0.2,0.414-0.413,0.5l-2.1,0.415l-0.006,0.845l2.07,0.369
		c0.205,0.039,0.364,0.2,0.4,0.405C7.989,37.03,8.08,37.378,8.2,37.717c0.068,0.192,0.012,0.406-0.14,0.541l-1.6,1.42l0.425,0.729
		l1.975-0.732c0.197-0.073,0.418-0.015,0.554,0.144c0.21,0.245,0.437,0.474,0.679,0.686c0.153,0.134,0.21,0.346,0.144,0.538
		l-0.694,2.023l0.73,0.424l1.361-1.61c0.135-0.16,0.354-0.219,0.551-0.148c0.286,0.104,0.58,0.188,0.878,0.251
		c0.226,0.044,0.415,0.2,0.5,0.414L13.971,44.494z M12.96,42.473l-0.009,0.044h0.011L12.96,42.473z M21.46,36.978h-0.049
		l0.052,0.011L21.46,36.978z M15.937,28.5v0.046l0.011-0.049L15.937,28.5z"/>
	<path style="fill:#1D9CD3;" d="M14.449,40.74c-2.889,0.001-5.231-2.341-5.232-5.23c-0.001-2.889,2.341-5.231,5.23-5.232
		s5.231,2.341,5.232,5.23c0,0.001,0,0.001,0,0.002C19.676,38.397,17.336,40.737,14.449,40.74z M14.449,31.279
		c-2.337-0.001-4.231,1.893-4.232,4.23c-0.001,2.337,1.893,4.231,4.23,4.232s4.231-1.893,4.232-4.23c0,0,0-0.001,0-0.001
		C18.676,33.175,16.784,31.282,14.449,31.279z"/>
</g>
</svg>
