<?xml version="1.0" encoding="utf-8"?>
<!-- Generator: Adobe Illustrator 25.2.3, SVG Export Plug-In . SVG Version: 6.00 Build 0)  -->
<svg version="1.1" id="Layer_1" xmlns="http://www.w3.org/2000/svg" xmlns:xlink="http://www.w3.org/1999/xlink" x="0px" y="0px"
	 viewBox="0 0 50 50" style="enable-background:new 0 0 50 50;" xml:space="preserve">
<g id="ece71838-3a3c-41be-81bb-82d14ca11ef3">
	<path style="fill:#FFFFFF;" d="M14.324,25.88c-5.385,0-9.75,4.365-9.75,9.75s4.365,9.75,9.75,9.75s9.75-4.365,9.75-9.75l0,0
		C24.068,30.248,19.706,25.886,14.324,25.88z M14.324,44.38c-4.832,0-8.75-3.918-8.75-8.75s3.918-8.75,8.75-8.75
		s8.75,3.918,8.75,8.75C23.068,40.46,19.154,44.374,14.324,44.38z"/>
	<path style="fill:#FFFFFF;" d="M21,20.978c-0.37-0.004-0.739,0.035-1.1,0.118c-0.3,0.066-0.584,0.187-0.84,0.357
		c-0.227,0.152-0.412,0.358-0.54,0.6c-0.132,0.259-0.197,0.547-0.191,0.838c-0.002,0.234,0.047,0.466,0.143,0.679
		c0.093,0.207,0.229,0.392,0.4,0.542c0.186,0.16,0.402,0.283,0.634,0.363c0.269,0.092,0.552,0.138,0.836,0.134
		c0.181,0.001,0.361-0.019,0.537-0.059c0.163-0.037,0.322-0.091,0.474-0.161c0.144-0.065,0.281-0.144,0.409-0.236
		c0.119-0.086,0.232-0.181,0.336-0.285c0.01,0.118,0.027,0.236,0.05,0.352c0.019,0.098,0.05,0.193,0.095,0.282h1.036v-0.086
		c-0.07-0.183-0.12-0.373-0.15-0.566c-0.034-0.204-0.052-0.41-0.054-0.616v-2.7c0.007-0.294-0.053-0.587-0.177-0.854
		c-0.113-0.238-0.279-0.447-0.486-0.61c-0.218-0.169-0.467-0.293-0.733-0.365c-0.299-0.083-0.608-0.124-0.918-0.121
		c-0.329-0.005-0.657,0.045-0.97,0.15c-0.263,0.089-0.509,0.222-0.726,0.395c-0.188,0.151-0.343,0.338-0.456,0.551
		c-0.102,0.192-0.158,0.405-0.164,0.623h1c0-0.123,0.031-0.244,0.089-0.352c0.061-0.115,0.146-0.215,0.25-0.293
		c0.119-0.089,0.253-0.157,0.395-0.2c0.171-0.053,0.35-0.079,0.529-0.076c0.193-0.003,0.386,0.025,0.571,0.081
		c0.158,0.047,0.305,0.125,0.433,0.228c0.117,0.097,0.21,0.219,0.274,0.357c0.068,0.148,0.102,0.31,0.1,0.473v0.457L21,20.978z
		 M22.085,22.857c-0.063,0.121-0.142,0.232-0.236,0.331c-0.106,0.109-0.227,0.204-0.358,0.282c-0.144,0.086-0.298,0.153-0.459,0.2
		c-0.176,0.052-0.359,0.078-0.543,0.076c-0.173,0.003-0.345-0.022-0.51-0.076c-0.134-0.043-0.259-0.113-0.365-0.206
		c-0.096-0.087-0.17-0.195-0.218-0.315c-0.049-0.128-0.074-0.263-0.072-0.4c-0.016-0.343,0.175-0.662,0.484-0.811
		c0.424-0.193,0.888-0.282,1.353-0.258h0.924V22.857z"/>
	<path style="fill:#FFFFFF;" d="M26.037,23.942c0.193,0.217,0.432,0.387,0.7,0.5c0.298,0.119,0.617,0.177,0.938,0.171
		c0.67,0.016,1.304-0.302,1.692-0.848c0.202-0.283,0.352-0.601,0.441-0.938c0.102-0.379,0.153-0.77,0.15-1.162v-0.113
		c0.004-0.405-0.047-0.808-0.15-1.2c-0.088-0.337-0.237-0.655-0.441-0.937c-0.188-0.258-0.435-0.468-0.719-0.613
		c-0.307-0.151-0.646-0.227-0.989-0.22c-0.328-0.007-0.654,0.058-0.954,0.19c-0.273,0.127-0.512,0.316-0.7,0.551l-0.049-0.634
		h-0.907v8.046h0.993L26.037,23.942z M26.037,20.22c0.126-0.229,0.303-0.425,0.519-0.572c0.238-0.154,0.517-0.232,0.8-0.223
		c0.251-0.007,0.499,0.052,0.72,0.172c0.201,0.114,0.372,0.273,0.5,0.465c0.136,0.206,0.234,0.435,0.29,0.676
		c0.064,0.265,0.095,0.537,0.094,0.809v0.113c0.001,0.273-0.03,0.545-0.094,0.811c-0.056,0.242-0.153,0.473-0.287,0.682
		c-0.126,0.193-0.295,0.354-0.494,0.47c-0.219,0.121-0.465,0.181-0.715,0.174c-0.288,0.012-0.572-0.064-0.816-0.217
		c-0.214-0.144-0.391-0.336-0.516-0.561L26.037,20.22z"/>
	<path style="fill:#FFFFFF;" d="M33.377,24.437c0.298,0.119,0.616,0.177,0.937,0.171c0.339,0.006,0.673-0.071,0.975-0.225
		c0.284-0.15,0.529-0.363,0.717-0.623c0.202-0.283,0.352-0.601,0.44-0.938c0.104-0.378,0.156-0.769,0.154-1.162v-0.113
		c0.004-0.405-0.046-0.809-0.151-1.2c-0.087-0.337-0.236-0.655-0.44-0.937c-0.189-0.258-0.435-0.468-0.72-0.613
		c-0.307-0.152-0.646-0.227-0.988-0.22c-0.328-0.006-0.653,0.058-0.953,0.19c-0.273,0.127-0.512,0.316-0.7,0.551L32.6,18.684h-0.908
		v8.046h0.994v-2.788C32.877,24.156,33.113,24.325,33.377,24.437z M32.677,20.22c0.125-0.229,0.303-0.425,0.518-0.572
		c0.238-0.154,0.517-0.232,0.8-0.223c0.251-0.007,0.499,0.052,0.72,0.172c0.201,0.114,0.372,0.273,0.5,0.465
		c0.135,0.207,0.233,0.436,0.29,0.676c0.063,0.265,0.095,0.537,0.094,0.809v0.113c0.001,0.273-0.031,0.545-0.094,0.811
		c-0.057,0.242-0.154,0.473-0.288,0.682c-0.125,0.193-0.295,0.354-0.494,0.47c-0.218,0.121-0.465,0.181-0.714,0.174
		c-0.288,0.012-0.573-0.064-0.817-0.217c-0.214-0.144-0.39-0.336-0.515-0.561L32.677,20.22z"/>
	<path style="fill:#FFFFFF;" d="M37.471,4.62h-20.09c-4.391,0.005-7.95,3.564-7.955,7.955v12.077c0,0.276,0.224,0.5,0.5,0.5
		s0.5-0.224,0.5-0.5V12.575c0.004-3.839,3.116-6.951,6.955-6.955h20.09c3.839,0.004,6.951,3.116,6.955,6.955v20.09
		c-0.004,3.839-3.116,6.951-6.955,6.955H25.41c-0.276,0-0.5,0.224-0.5,0.5s0.224,0.5,0.5,0.5h12.061
		c4.391-0.006,7.949-3.564,7.955-7.955v-20.09C45.42,8.184,41.862,4.626,37.471,4.62z"/>
	<path style="fill:#FFFFFF;" d="M17.324,34.343h-0.253v-1.071c0.058-1.517-1.125-2.794-2.642-2.852
		c-1.517-0.058-2.794,1.125-2.852,2.642c-0.003,0.07-0.003,0.14,0,0.21v1.071h-0.253c-0.276,0-0.5,0.224-0.5,0.5v5.5
		c0,0.276,0.224,0.5,0.5,0.5h6c0.276,0,0.5-0.224,0.5-0.5v-5.5C17.824,34.567,17.6,34.343,17.324,34.343z M12.577,33.272
		c-0.057-0.965,0.68-1.793,1.645-1.849s1.793,0.68,1.849,1.645c0.004,0.068,0.004,0.137,0,0.205v1.071h-3.494V33.272z
		 M16.824,39.844h-5v-4.5h5V39.844z"/>
</g>
</svg>
