<?xml version="1.0" encoding="utf-8"?>
<!-- Generator: Adobe Illustrator 25.2.3, SVG Export Plug-In . SVG Version: 6.00 Build 0)  -->
<svg version="1.1" id="Layer_1" xmlns="http://www.w3.org/2000/svg" xmlns:xlink="http://www.w3.org/1999/xlink" x="0px" y="0px"
	 viewBox="0 0 50 50" style="enable-background:new 0 0 50 50;" xml:space="preserve">
<g id="ac1b470b-d1c7-431e-8735-0d6f71554156">
	<g id="e9a81c9d-a0d8-4727-86e8-52d1500946b0">
		<path style="fill:#FFFFFF;" d="M36.48,45.5H13.52c-4.979-0.006-9.014-4.041-9.02-9.02V13.52c0.006-4.979,4.041-9.014,9.02-9.02
			h22.96c4.979,0.006,9.014,4.041,9.02,9.02v22.96C45.494,41.459,41.459,45.494,36.48,45.5z M13.52,5.5
			C9.093,5.505,5.505,9.093,5.5,13.52v22.96c0.005,4.427,3.593,8.015,8.02,8.02h22.96c4.427-0.005,8.015-3.593,8.02-8.02V13.52
			c-0.005-4.427-3.593-8.015-8.02-8.02H13.52z"/>
	</g>
	<path style="fill:#FFFFFF;" d="M19.406,27.026c-0.047-0.097-0.081-0.201-0.1-0.307c-0.026-0.127-0.045-0.255-0.056-0.384
		c-0.114,0.113-0.236,0.217-0.366,0.311c-0.14,0.1-0.289,0.186-0.445,0.257c-0.167,0.076-0.34,0.135-0.519,0.176
		c-0.192,0.044-0.389,0.066-0.586,0.065c-0.31,0.006-0.619-0.043-0.913-0.144c-0.253-0.087-0.488-0.221-0.692-0.395
		c-0.187-0.164-0.337-0.366-0.439-0.592c-0.104-0.233-0.157-0.486-0.155-0.741c-0.007-0.317,0.064-0.632,0.208-0.915
		c0.14-0.263,0.342-0.487,0.589-0.653c0.279-0.185,0.59-0.317,0.917-0.389c0.394-0.09,0.796-0.133,1.2-0.129h1.181v-0.5
		c0.003-0.178-0.033-0.354-0.105-0.516c-0.07-0.151-0.172-0.284-0.3-0.39c-0.14-0.113-0.3-0.197-0.472-0.249
		c-0.202-0.061-0.413-0.091-0.624-0.088c-0.195-0.002-0.39,0.025-0.577,0.082c-0.155,0.047-0.3,0.121-0.43,0.217
		c-0.113,0.085-0.207,0.195-0.273,0.32c-0.064,0.118-0.098,0.249-0.1,0.383h-1.09c0.006-0.237,0.067-0.47,0.178-0.679
		c0.124-0.232,0.294-0.436,0.5-0.6c0.237-0.188,0.504-0.334,0.791-0.431c0.341-0.114,0.699-0.169,1.058-0.164
		c0.338-0.003,0.674,0.042,1,0.132c0.29,0.079,0.562,0.215,0.8,0.4c0.225,0.178,0.406,0.406,0.53,0.665
		c0.134,0.292,0.2,0.61,0.193,0.931v2.948c0.001,0.225,0.021,0.449,0.059,0.67c0.032,0.212,0.087,0.419,0.164,0.619v0.093
		L19.406,27.026z M17.49,26.2c0.2,0.002,0.4-0.026,0.592-0.082c0.175-0.051,0.343-0.124,0.5-0.217
		c0.143-0.084,0.275-0.187,0.39-0.307c0.103-0.107,0.19-0.229,0.257-0.361V23.95h-1.006c-0.508-0.025-1.014,0.071-1.477,0.281
		c-0.337,0.163-0.544,0.511-0.527,0.885c-0.002,0.148,0.025,0.296,0.079,0.434c0.052,0.131,0.133,0.248,0.237,0.343
		c0.117,0.101,0.253,0.178,0.4,0.225C17.114,26.176,17.302,26.203,17.49,26.2z"/>
	<path style="fill:#FFFFFF;" d="M27.756,23.927c0.004,0.428-0.052,0.855-0.164,1.268c-0.097,0.367-0.259,0.714-0.48,1.023
		c-0.205,0.283-0.473,0.516-0.782,0.679c-0.329,0.169-0.694,0.254-1.064,0.247c-0.35,0.007-0.697-0.057-1.022-0.188
		c-0.29-0.121-0.549-0.305-0.759-0.539v3.047H22.4v-8.777h0.99l0.053,0.691c0.205-0.256,0.466-0.462,0.764-0.6
		c0.328-0.144,0.683-0.215,1.041-0.208c0.373-0.008,0.743,0.075,1.078,0.241c0.31,0.158,0.579,0.387,0.785,0.668
		c0.222,0.308,0.385,0.655,0.48,1.022c0.113,0.424,0.168,0.861,0.164,1.3L27.756,23.927z M26.672,23.8
		c0.002-0.297-0.032-0.593-0.1-0.882c-0.061-0.263-0.169-0.513-0.317-0.738c-0.138-0.209-0.324-0.383-0.542-0.507
		c-0.241-0.131-0.511-0.196-0.785-0.188c-0.31-0.011-0.616,0.074-0.876,0.243c-0.235,0.161-0.428,0.375-0.565,0.624v3.053
		c0.136,0.246,0.329,0.455,0.562,0.612c0.266,0.168,0.577,0.251,0.891,0.238c0.272,0.007,0.541-0.059,0.779-0.191
		c0.218-0.125,0.403-0.301,0.539-0.512c0.146-0.228,0.253-0.48,0.314-0.744c0.068-0.29,0.102-0.587,0.1-0.885V23.8z"/>
	<path style="fill:#FFFFFF;" d="M34.947,23.927c0.003,0.428-0.052,0.855-0.164,1.268c-0.098,0.367-0.261,0.714-0.481,1.023
		c-0.205,0.284-0.472,0.516-0.782,0.679c-0.328,0.169-0.694,0.254-1.063,0.247c-0.35,0.007-0.698-0.057-1.023-0.188
		c-0.29-0.121-0.549-0.305-0.759-0.539v3.047h-1.084v-8.777h0.991l0.052,0.691c0.205-0.257,0.467-0.462,0.765-0.6
		c0.327-0.144,0.682-0.215,1.04-0.208c0.373-0.008,0.743,0.075,1.078,0.241c0.311,0.158,0.579,0.387,0.785,0.668
		c0.222,0.308,0.385,0.655,0.481,1.022c0.113,0.424,0.168,0.861,0.164,1.3V23.927z M33.863,23.8c0.003-0.297-0.031-0.593-0.1-0.882
		c-0.061-0.263-0.168-0.513-0.316-0.738c-0.138-0.209-0.324-0.383-0.542-0.507c-0.241-0.13-0.511-0.195-0.785-0.188
		c-0.31-0.011-0.616,0.074-0.876,0.243c-0.235,0.161-0.429,0.375-0.566,0.624v3.053c0.137,0.246,0.33,0.455,0.563,0.612
		c0.266,0.168,0.576,0.251,0.89,0.238c0.272,0.007,0.542-0.059,0.78-0.191c0.217-0.126,0.402-0.301,0.539-0.512
		c0.146-0.228,0.252-0.48,0.313-0.744c0.069-0.29,0.102-0.587,0.1-0.885V23.8z"/>
</g>
</svg>
