<svg xmlns="http://www.w3.org/2000/svg" viewBox="0 0 50 50"><g id="b05ad29a-d014-4f81-923c-42cea0bf01f5" data-name="Isolation Mode"><path d="M25,4.5A20.5,20.5,0,1,0,45.5,25,20.523,20.523,0,0,0,25,4.5Zm0,40A19.5,19.5,0,1,1,44.5,25,19.523,19.523,0,0,1,25,44.5Z"/><path d="M24.259,26.649a.5.5,0,0,0-.659.255l-1.047,2.378a3.112,3.112,0,0,1-2.563,1.761H12.2l2.152-2.167a.5.5,0,0,0-.709-.705l-3,3.018h0l-.007.01a.491.491,0,0,0,0,.686l.007.01h0l3,3.019a.5.5,0,0,0,.707,0,.5.5,0,0,0,0-.707L12.2,32.043h7.79a4,4,0,0,0,3.454-2.311l1.07-2.423A.5.5,0,0,0,24.259,26.649Z"/><path d="M25.688,23.369a.49.49,0,0,0,.2.044.5.5,0,0,0,.456-.3l1.088-2.433a2.984,2.984,0,0,1,2.544-1.727H37.8l-2.152,2.167a.5.5,0,0,0,.355.853.493.493,0,0,0,.354-.148l3-3.019a.445.445,0,0,0,.061-.092.421.421,0,0,0,.045-.068.5.5,0,0,0,0-.386.421.421,0,0,0-.045-.068.445.445,0,0,0-.061-.092l-3-3.02a.5.5,0,1,0-.709.705L37.8,17.957H29.957a3.991,3.991,0,0,0-3.43,2.309l-1.091,2.442A.5.5,0,0,0,25.688,23.369Z"/><path d="M39.462,31.354a.491.491,0,0,0-.112-.167l-2.993-3.016a.5.5,0,1,0-.709.705L37.8,31.043H30a2.992,2.992,0,0,1-2.564-1.716l-4.018-9.1a3.98,3.98,0,0,0-3.432-2.266H12.2l2.152-2.168a.5.5,0,0,0-.709-.7l-3,3.019h0l-.007.01a.491.491,0,0,0,0,.686l.007.01h0l3,3.019a.5.5,0,0,0,.707,0,.5.5,0,0,0,0-.707L12.2,18.957h7.79a3.092,3.092,0,0,1,2.54,1.716l4,9.07a4,4,0,0,0,3.449,2.3H37.8l-2.153,2.168a.5.5,0,0,0,.355.852.492.492,0,0,0,.354-.147l3-3.02a.412.412,0,0,0,.044-.065.513.513,0,0,0,.063-.1A.5.5,0,0,0,39.462,31.354Z"/></g></svg>