<?xml version="1.0" encoding="utf-8"?>
<!-- Generator: Adobe Illustrator 25.2.3, SVG Export Plug-In . SVG Version: 6.00 Build 0)  -->
<svg version="1.1" id="Layer_1" xmlns="http://www.w3.org/2000/svg" xmlns:xlink="http://www.w3.org/1999/xlink" x="0px" y="0px"
	 viewBox="0 0 50 50" style="enable-background:new 0 0 50 50;" xml:space="preserve">
<g id="b9401bfb-f6a5-40ff-a67d-83d414611b72">
	<path style="fill:#1D9CD3;" d="M18.38,15.854H6.5c-0.276,0-0.5,0.224-0.5,0.5s0.224,0.5,0.5,0.5h11.88
		c1.503,0.111,2.835,1.01,3.5,2.362L27.168,31.2c0.808,1.727,2.508,2.863,4.413,2.947H42.3l-3.115,3.139
		c-0.208,0.181-0.23,0.497-0.049,0.705c0.181,0.208,0.497,0.23,0.705,0.049c0.019-0.017,0.037-0.035,0.054-0.055L43.855,34
		c0.01-0.014,0.02-0.028,0.028-0.043c0.078-0.084,0.12-0.195,0.117-0.31l0,0v-0.011c-0.001-0.061-0.014-0.121-0.036-0.178
		c-0.025-0.062-0.063-0.118-0.11-0.166L39.9,29.3c-0.178-0.211-0.494-0.238-0.705-0.059s-0.238,0.494-0.059,0.705
		c0.017,0.02,0.035,0.038,0.054,0.055l3.11,3.147H31.605c-1.522-0.073-2.88-0.982-3.527-2.362l-5.3-12.019
		C21.967,17.054,20.273,15.932,18.38,15.854z"/>
	<path style="fill:#1D9CD3;" d="M6.5,34.146h11.88c1.909-0.086,3.613-1.226,4.42-2.958l1.412-3.2
		c0.111-0.252-0.003-0.547-0.255-0.659c-0.253-0.112-0.548,0.002-0.66,0.255c0,0,0,0.001,0,0.001l-1.389,3.156
		c-0.661,1.375-2.005,2.293-3.526,2.408H6.5c-0.276,0-0.5,0.224-0.5,0.5s0.224,0.5,0.5,0.5V34.146z"/>
	<path style="fill:#1D9CD3;" d="M27.164,18.81l-1.443,3.228c-0.112,0.252,0.001,0.548,0.253,0.66c0.063,0.029,0.131,0.044,0.2,0.044
		c0.198,0,0.378-0.118,0.457-0.3l1.439-3.219c0.64-1.379,1.99-2.292,3.508-2.373H42.3l-3.114,3.138
		c-0.208,0.181-0.23,0.497-0.049,0.705c0.181,0.208,0.497,0.23,0.705,0.049c0.019-0.017,0.037-0.035,0.054-0.055l3.96-3.99
		c0.023-0.027,0.043-0.057,0.059-0.089c0.017-0.022,0.033-0.045,0.046-0.07c0.052-0.123,0.052-0.263,0-0.386
		c-0.013-0.025-0.029-0.048-0.046-0.07c-0.017-0.03-0.037-0.058-0.06-0.083L39.9,12.011c-0.178-0.211-0.494-0.238-0.705-0.059
		c-0.211,0.178-0.238,0.494-0.059,0.705c0.017,0.02,0.035,0.038,0.054,0.055l3.11,3.143H31.557
		C29.657,15.947,27.966,17.085,27.164,18.81z"/>
</g>
</svg>
