<?xml version="1.0" encoding="utf-8"?>
<!-- Generator: Adobe Illustrator 25.2.3, SVG Export Plug-In . SVG Version: 6.00 Build 0)  -->
<svg version="1.1" id="f3e8fe50-15ce-4a60-ac38-6eac2ae89d52"
	 xmlns="http://www.w3.org/2000/svg" xmlns:xlink="http://www.w3.org/1999/xlink" x="0px" y="0px" viewBox="0 0 50 50"
	 style="enable-background:new 0 0 50 50;" xml:space="preserve">
<path style="fill:#1D9CD3;" d="M44.77,41.594H5.23c-0.403,0.001-0.729,0.327-0.73,0.73v2.539c0.001,0.403,0.327,0.73,0.73,0.731
	h39.54c0.403-0.001,0.729-0.328,0.73-0.731v-2.539C45.499,41.921,45.173,41.595,44.77,41.594z M44.5,44.594h-39v-2h39V44.594z"/>
<path style="fill:#1D9CD3;" d="M7,21.594h36c0.276,0,0.5-0.224,0.5-0.5s-0.224-0.5-0.5-0.5H7c-0.276,0-0.5,0.224-0.5,0.5
	S6.724,21.594,7,21.594z"/>
<path style="fill:#1D9CD3;" d="M7,40.594h36c0.276,0,0.5-0.224,0.5-0.5s-0.224-0.5-0.5-0.5H7c-0.276,0-0.5,0.224-0.5,0.5
	S6.724,40.594,7,40.594z"/>
<path style="fill:#1D9CD3;" d="M7,19.594h36c0.276,0,0.5-0.223,0.5-0.5c0-0.155-0.071-0.301-0.193-0.395l-18-14
	c-0.181-0.14-0.433-0.14-0.614,0l-18,14c-0.218,0.169-0.258,0.483-0.088,0.702C6.699,19.523,6.845,19.594,7,19.594z M25,5.727
	l16.543,12.867H8.457L25,5.727z"/>
<path style="fill:#1D9CD3;" d="M9.5,23.094v15c0,0.276,0.224,0.5,0.5,0.5s0.5-0.224,0.5-0.5v-15c0-0.276-0.224-0.5-0.5-0.5
	S9.5,22.818,9.5,23.094z"/>
<path style="fill:#1D9CD3;" d="M15.5,23.094v15c0,0.276,0.224,0.5,0.5,0.5s0.5-0.224,0.5-0.5v-15c0-0.276-0.224-0.5-0.5-0.5
	S15.5,22.818,15.5,23.094z"/>
<path style="fill:#1D9CD3;" d="M21.5,23.094v15c0,0.276,0.224,0.5,0.5,0.5s0.5-0.224,0.5-0.5v-15c0-0.276-0.224-0.5-0.5-0.5
	S21.5,22.818,21.5,23.094z"/>
<path style="fill:#1D9CD3;" d="M27.5,23.094v15c0,0.276,0.224,0.5,0.5,0.5s0.5-0.224,0.5-0.5v-15c0-0.276-0.224-0.5-0.5-0.5
	S27.5,22.818,27.5,23.094z"/>
<path style="fill:#1D9CD3;" d="M33.5,23.094v15c0,0.276,0.224,0.5,0.5,0.5s0.5-0.224,0.5-0.5v-15c0-0.276-0.224-0.5-0.5-0.5
	S33.5,22.818,33.5,23.094z"/>
<path style="fill:#1D9CD3;" d="M39.5,23.094v15c0,0.276,0.224,0.5,0.5,0.5s0.5-0.224,0.5-0.5v-15c0-0.276-0.224-0.5-0.5-0.5
	S39.5,22.818,39.5,23.094z"/>
<path style="fill:#1D9CD3;" d="M27.575,14.031c0.069-1.134-0.569-1.78-2.093-2.122V9.96c0.873,0.154,0.91,0.695,0.937,1.185v0.007
	c0.005,0.265,0.224,0.476,0.489,0.471c0.012,0,0.025-0.001,0.037-0.002c0.276-0.015,0.487-0.251,0.472-0.526
	c0-0.002,0-0.003,0-0.005c0.05-1.121-0.816-2.071-1.936-2.126v-0.12c0-0.276-0.224-0.5-0.5-0.5s-0.5,0.224-0.5,0.5v0.1
	c-0.51,0.037-0.992,0.249-1.364,0.6c-0.333,0.344-0.513,0.808-0.5,1.287c0.012,0.9,0.354,1.534,1.867,1.883v2.17
	c-0.67-0.128-1.132-0.747-1.062-1.426c0-0.276-0.224-0.5-0.5-0.5s-0.5,0.224-0.5,0.5c-0.08,1.235,0.829,2.313,2.06,2.442v0.446
	c0,0.276,0.224,0.5,0.5,0.5s0.5-0.224,0.5-0.5v-0.438C27.249,15.717,27.543,14.559,27.575,14.031z M23.615,10.814
	c-0.006-0.21,0.072-0.414,0.217-0.566c0.183-0.159,0.409-0.259,0.65-0.287v1.732C23.635,11.462,23.619,11.172,23.615,10.814z
	 M26.577,13.969c-0.013,0.212-0.052,0.8-1.1,0.944V12.93C26.62,13.222,26.6,13.616,26.577,13.969z"/>
</svg>
