<?xml version="1.0" encoding="utf-8"?>
<!-- Generator: Adobe Illustrator 25.2.3, SVG Export Plug-In . SVG Version: 6.00 Build 0)  -->
<svg version="1.1" id="Layer_1" xmlns="http://www.w3.org/2000/svg" xmlns:xlink="http://www.w3.org/1999/xlink" x="0px" y="0px"
	 viewBox="0 0 50 50" style="enable-background:new 0 0 50 50;" xml:space="preserve">
<g id="e3da8593-7552-4644-9c6e-25088781afcf">
	<path style="fill:#1D9CD3;" d="M17.005,27.945c-0.276,0-0.5,0.224-0.5,0.5v3.1h-1.5c-0.276,0.001-0.5,0.225-0.499,0.501
		c0.001,0.275,0.224,0.498,0.499,0.499h19.99c0.276,0,0.5-0.224,0.5-0.5s-0.224-0.5-0.5-0.5h-1.49v-13.59c0-0.276-0.224-0.5-0.5-0.5
		s-0.5,0.224-0.5,0.5v13.59h-3V21.183c0-0.276-0.224-0.5-0.5-0.5s-0.5,0.224-0.5,0.5v10.362h-3V23.6c0-0.276-0.224-0.5-0.5-0.5
		s-0.5,0.224-0.5,0.5v7.941h-3v-4.709c0-0.276-0.224-0.5-0.5-0.5s-0.5,0.224-0.5,0.5v4.713h-3v-3.1
		C17.505,28.169,17.281,27.945,17.005,27.945z"/>
	<path style="fill:#1D9CD3;" d="M46.47,38.322l-5.964,0.092c7.385-8.604,6.397-21.566-2.207-28.951
		C31.061,3.25,20.497,2.841,12.8,8.475c-0.235,0.145-0.307,0.453-0.162,0.688c0.145,0.235,0.453,0.307,0.688,0.162
		c0.024-0.015,0.047-0.032,0.068-0.05c8.704-6.374,20.926-4.485,27.3,4.218c5.319,7.263,4.985,17.221-0.809,24.112l-0.109-5.757
		c-0.001-0.272-0.222-0.492-0.495-0.491c-0.005,0-0.01,0-0.014,0c-0.276,0.005-0.496,0.233-0.491,0.509c0,0,0,0.001,0,0.001
		l0.133,7.02c-0.012,0.145,0.041,0.289,0.145,0.391l0,0c0.094,0.094,0.221,0.147,0.353,0.147h0.008l7.069-0.109
		c0.276-0.004,0.497-0.231,0.493-0.507c0,0,0-0.001,0-0.001C46.96,38.539,46.74,38.328,46.47,38.322z"/>
	<path style="fill:#1D9CD3;" d="M36.592,40.721c-8.703,6.374-20.926,4.486-27.3-4.218c-5.325-7.27-4.984-17.24,0.824-24.13
		l0.11,5.792c0.005,0.272,0.228,0.49,0.5,0.49h0.009c0.276-0.005,0.496-0.233,0.491-0.509c0,0,0,0,0,0l-0.134-7.071
		c-0.003-0.134-0.059-0.261-0.157-0.352v-0.005c-0.036-0.031-0.075-0.056-0.118-0.076c-0.011,0-0.019-0.014-0.03-0.019
		c-0.078-0.033-0.162-0.046-0.246-0.037l-7.022,0.108c-0.276,0.002-0.498,0.227-0.497,0.503c0.002,0.276,0.227,0.498,0.503,0.497
		H3.53L9.463,11.6c-7.403,8.585-6.445,21.545,2.139,28.948c7.255,6.256,17.873,6.662,25.584,0.977
		c0.235-0.145,0.307-0.453,0.162-0.688c-0.145-0.235-0.453-0.307-0.688-0.162c-0.024,0.015-0.047,0.032-0.068,0.05V40.721z"/>
</g>
</svg>
