<?xml version="1.0" encoding="utf-8"?>
<!-- Generator: Adobe Illustrator 25.2.3, SVG Export Plug-In . SVG Version: 6.00 Build 0)  -->
<svg version="1.1" id="a01f8019-f58b-4f80-b9e7-e94f08c3f507"
	 xmlns="http://www.w3.org/2000/svg" xmlns:xlink="http://www.w3.org/1999/xlink" x="0px" y="0px" viewBox="0 0 50 50"
	 style="enable-background:new 0 0 50 50;" xml:space="preserve">
<path style="fill:#1D9CD3;" d="M44,38.5h-2.5V12.012c0-0.276-0.224-0.5-0.5-0.5h-9.045c-0.276,0-0.5,0.224-0.5,0.5L31.5,38.5h-2
	V27.991c0-0.276-0.224-0.5-0.5-0.5h-9c-0.276,0-0.5,0.224-0.5,0.5V38.5h-2V33c0-0.276-0.224-0.5-0.5-0.5H9
	c-0.276,0-0.5,0.224-0.5,0.5v5.5H6c-0.276,0-0.5,0.224-0.5,0.5s0.224,0.5,0.5,0.5h38c0.276,0,0.5-0.224,0.5-0.5S44.276,38.5,44,38.5
	z M32.456,12.512H40.5V38.5h-8L32.456,12.512z M20.5,28.491h8V38.5h-8V28.491z M9.5,33.5h7v5h-7V33.5z"/>
<path style="fill:#1D9CD3;" d="M10.042,27.552c0.133,0,0.26-0.053,0.354-0.147l14.176-14.186v9.793c0,0.276,0.224,0.5,0.5,0.5
	s0.5-0.224,0.5-0.5v-11c0-0.276-0.224-0.5-0.5-0.5H13.958c-0.276,0-0.5,0.224-0.5,0.5s0.224,0.5,0.5,0.5h9.908L9.689,26.7
	c-0.196,0.195-0.196,0.512-0.001,0.707c0.094,0.094,0.221,0.147,0.354,0.147V27.552z"/>
</svg>
