<svg id="a01f8019-f58b-4f80-b9e7-e94f08c3f507" data-name="Icons" xmlns="http://www.w3.org/2000/svg" viewBox="0 0 50 50"><path d="M44,38.5H41.5V12.012a.5.5,0,0,0-.5-.5H31.955a.5.5,0,0,0-.5.5L31.5,38.5h-2V27.991a.5.5,0,0,0-.5-.5H20a.5.5,0,0,0-.5.5V38.5h-2V33a.5.5,0,0,0-.5-.5H9a.5.5,0,0,0-.5.5v5.5H6a.5.5,0,0,0,0,1H44a.5.5,0,0,0,0-1ZM32.456,12.512H40.5V38.5h-8ZM20.5,28.491h8V38.5h-8ZM9.5,33.5h7v5h-7Z"/><path d="M10.042,27.552a.5.5,0,0,0,.354-.147L24.572,13.219v9.793a.5.5,0,0,0,1,0v-11a.5.5,0,0,0-.5-.5H13.958a.5.5,0,1,0,0,1h9.908L9.689,26.7a.5.5,0,0,0,.353.854Z"/></svg>