<svg id="Icons" xmlns="http://www.w3.org/2000/svg" viewBox="0 0 128 128"><defs><style>.cls-1{fill:none;stroke:#1d9cd3;stroke-width:3px;}.cls-2{fill:#1d9cd3;}</style></defs><title>be-f5-square_1D9CD3</title><g id="Group_12960" data-name="Group 12960"><path id="Path_61118" data-name="Path 61118" class="cls-1" d="M14.65,35.51v57L64,121l49.35-28.49v-57L64,7Z"/><g id="Group_12960-2" data-name="Group 12960-2"><path id="Path_61119" data-name="Path 61119" class="cls-2" d="M45.24,68.08v1.7c0,4-3.08,6.82-7.48,6.82H26.59V50.92H37c4.39,0,7.51,2.43,7.51,6.17v1.78a5.17,5.17,0,0,1-2.11,4.2A5.88,5.88,0,0,1,45.24,68.08ZM31.06,54.91v6.57h6c1.74,0,3-.84,3-2.58V57.2c0-1.49-1.27-2.29-2.94-2.29Zm9.72,13.17a2.58,2.58,0,0,0-2.5-2.67,2.16,2.16,0,0,0-.44,0H31.06v7.18H37.8a2.64,2.64,0,0,0,3-2.28c0-.13,0-.27,0-.4Z"/><path id="Path_61120" data-name="Path 61120" class="cls-2" d="M63.51,64.63v4.06H51.9v.55c0,2.94,1.38,4.28,3.85,4.28,1.85,0,3.41-.94,3.41-2.5v-.29h4.32c0,4-3.09,6.38-7.73,6.38-5.26,0-8.16-3.19-8.16-8V65.57c0-4.82,2.9-7.9,8-7.9C60.36,57.67,63.51,60.6,63.51,64.63Zm-4.38.76v-.72a3,3,0,0,0-2.54-3.41,2.6,2.6,0,0,0-.88,0c-2.57,0-3.77,1.45-3.81,4.13Z"/><path id="Path_61121" data-name="Path 61121" class="cls-2" d="M70.76,55.06v7.76H81.28V67H70.76v9.65H66.3V50.92H82.48v4.14Z"/><path id="Path_61122" data-name="Path 61122" class="cls-2" d="M101.41,67.5v2.21c0,4.49-3.41,7.4-8.53,7.4s-8.52-2.9-8.52-7.4v-2h4.46V70c0,2,1.45,3.12,4.06,3.12S97,72,97,70V67.24a2.66,2.66,0,0,0-2.59-2.74,2.26,2.26,0,0,0-.45,0H85.08V50.92h15.46v4.14h-11V60.5h4.57a6.7,6.7,0,0,1,7.27,6.09A6.88,6.88,0,0,1,101.41,67.5Z"/></g></g></svg>