<?xml version="1.0" encoding="utf-8"?>
<!-- Generator: Adobe Illustrator 25.2.3, SVG Export Plug-In . SVG Version: 6.00 Build 0)  -->
<svg version="1.1" id="Layer_1" xmlns="http://www.w3.org/2000/svg" xmlns:xlink="http://www.w3.org/1999/xlink" x="0px" y="0px"
	 viewBox="0 0 50 50" style="enable-background:new 0 0 50 50;" xml:space="preserve">
<g id="a83b8bca-fe83-4f12-a891-73acba78a3a1">
	<path style="fill:#1D9CD3;" d="M42.022,16.932c-0.422,0.008-0.841,0.085-1.239,0.226c-2.61-4.324-6.878-7.39-11.809-8.483
		c-0.105-2.207-1.979-3.911-4.185-3.806c-2.06,0.098-3.708,1.746-3.806,3.806c-4.926,1.091-9.19,4.151-11.8,8.469
		c-0.389-0.133-0.796-0.205-1.207-0.212c-2.201-0.007-3.992,1.771-3.999,3.973c-0.006,1.688,1.052,3.196,2.64,3.765
		c-0.085,0.679-0.131,1.362-0.138,2.046c0.003,4.557,1.698,8.951,4.755,12.331c-0.461,0.655-0.712,1.436-0.72,2.237
		c0,2.209,1.791,4,4,4c1.253,0.001,2.432-0.593,3.177-1.6c4.656,2.046,9.957,2.041,14.609-0.013
		c0.744,1.015,1.928,1.614,3.187,1.613c2.209,0,4-1.791,4-4c-0.008-0.812-0.265-1.602-0.737-2.263c3.04-3.376,4.725-7.757,4.73-12.3
		c-0.007-0.678-0.052-1.356-0.136-2.029c1.605-0.549,2.682-2.059,2.679-3.755c0.003-2.209-1.786-4.002-3.995-4.005
		C42.026,16.932,42.024,16.932,42.022,16.932z M24.979,5.716c1.657,0,3,1.343,3,3c-0.002,0.055-0.007,0.109-0.016,0.163L27.948,9
		l0,0c-0.151,1.639-1.601,2.845-3.24,2.695c-1.43-0.131-2.563-1.264-2.695-2.695l0,0l-0.016-0.137
		c-0.009-0.051-0.014-0.102-0.015-0.154C21.986,7.056,23.326,5.718,24.979,5.716z M4.979,20.932c0-1.657,1.343-3,3-3
		c0.418,0.001,0.832,0.09,1.213,0.261c1.518,0.65,2.221,2.408,1.571,3.926c-0.58,1.354-2.059,2.083-3.486,1.72l0,0
		C5.929,23.521,4.977,22.317,4.979,20.932L4.979,20.932z M14.515,44.284c-1.657,0-3-1.343-3-3c0.002-0.714,0.262-1.402,0.732-1.939
		c1.064-1.26,2.947-1.42,4.208-0.356c0.676,0.57,1.064,1.411,1.06,2.295c-0.002,0.542-0.153,1.073-0.437,1.534l0,0
		c-0.534,0.909-1.51,1.467-2.564,1.466L14.515,44.284z M35.487,44.284c-1.649-0.019-2.981-1.351-3-3
		c-0.007-1.65,1.325-2.993,2.974-3c0.874-0.004,1.706,0.376,2.277,1.039c0.482,0.54,0.748,1.238,0.749,1.961
		C38.487,42.941,37.144,44.284,35.487,44.284C35.487,44.284,35.486,44.284,35.487,44.284L35.487,44.284z M38.1,38.271
		c-1.657-1.45-4.175-1.282-5.625,0.375c-0.639,0.73-0.99,1.668-0.986,2.638c0.002,0.526,0.11,1.047,0.317,1.531
		c-4.347,1.854-9.261,1.86-13.612,0.017c0.211-0.489,0.321-1.015,0.323-1.548c0.009-2.2-1.768-3.991-3.968-4
		c-0.983-0.004-1.932,0.355-2.666,1.009c-2.836-3.189-4.401-7.309-4.4-11.577c0.003-0.604,0.039-1.207,0.109-1.807
		c0.129,0.015,0.26,0.023,0.39,0.023c2.209-0.005,3.996-1.799,3.992-4.008c-0.003-1.375-0.712-2.652-1.877-3.382
		c2.46-4.003,6.428-6.846,11.009-7.889c0.505,2.139,2.648,3.463,4.787,2.958c1.467-0.346,2.612-1.491,2.958-2.958
		c4.591,1.044,8.567,3.896,11.028,7.91c-1.153,0.733-1.853,2.003-1.857,3.369c-0.022,2.188,1.735,3.979,3.923,4.001
		c0.142,0.001,0.285-0.005,0.426-0.019c0.069,0.598,0.105,1.198,0.108,1.8C42.481,30.972,40.923,35.083,38.1,38.271z M42.692,23.85
		c-0.22,0.052-0.444,0.079-0.67,0.082c-1.654,0.002-2.997-1.337-2.999-2.991c-0.002-1.177,0.687-2.246,1.759-2.732
		c0.388-0.181,0.811-0.276,1.24-0.277c1.657,0.014,2.988,1.369,2.974,3.026C44.984,22.337,44.033,23.53,42.692,23.85z"/>
	<path style="fill:#1D9CD3;" d="M30.392,24.009c-1.602-2.968-5.299-4.084-8.276-2.5c-2.969,1.58-4.095,5.267-2.515,8.236
		c0.003,0.006,0.006,0.012,0.009,0.017c1.602,2.967,5.3,4.084,8.277,2.5c2.968-1.583,4.09-5.272,2.507-8.24
		c-0.002-0.004-0.005-0.009-0.007-0.013H30.392z M22.592,22.393c2.478-1.338,5.572-0.414,6.911,2.065
		c0.307,0.57,0.504,1.192,0.578,1.835h-2.842c-0.18,0-0.346,0.097-0.435,0.254l-1.055,1.87l-1.168-4.512
		c-0.053-0.205-0.229-0.354-0.439-0.373c-0.21-0.016-0.408,0.098-0.5,0.287l-1.161,2.5h-2.556c0.033-0.305,0.093-0.606,0.179-0.9
		c0.389-1.301,1.283-2.391,2.483-3.026L22.592,22.393z M29.9,28.356c-0.389,1.299-1.283,2.388-2.482,3.023
		c-2.49,1.327-5.584,0.394-6.925-2.089c-0.327-0.612-0.525-1.284-0.582-1.975H22.8c0.194,0,0.371-0.113,0.453-0.289l0.706-1.52
		l1.129,4.36c0.051,0.198,0.217,0.344,0.419,0.371c0.022,0.001,0.043,0.001,0.065,0c0.181,0,0.347-0.097,0.436-0.254l1.52-2.694
		h2.563C30.066,27.651,30.002,28.008,29.9,28.356z"/>
	<path style="fill:#1D9CD3;" d="M36.723,25.9c0-0.007,0.005-0.012,0.005-0.019c-0.06-0.687-0.18-1.367-0.36-2.032
		c-0.004-0.012-0.009-0.023-0.015-0.034c-0.009-0.023-0.019-0.045-0.031-0.067c-0.016-0.032-0.036-0.062-0.06-0.089
		c-0.015-0.018-0.03-0.035-0.047-0.051c-0.031-0.025-0.064-0.047-0.1-0.064c-0.017-0.011-0.035-0.021-0.054-0.029
		c-0.057-0.023-0.118-0.036-0.179-0.037h-2.641c-0.088-0.21-0.182-0.416-0.284-0.616l1.678-2.085c0.059-0.077,0.094-0.169,0.1-0.266
		c0-0.018,0-0.034,0-0.052c0-0.093-0.027-0.183-0.077-0.261c0-0.007,0-0.014-0.006-0.02c-0.393-0.564-0.836-1.092-1.322-1.578
		c-0.006-0.006-0.015,0-0.021-0.011c-0.069-0.063-0.154-0.105-0.246-0.122c-0.019,0-0.035,0-0.054,0
		c-0.097-0.01-0.195,0.01-0.281,0.057l-2.293,1.317c-0.21-0.161-0.426-0.312-0.647-0.452l0.377-2.646
		c0.011-0.096-0.007-0.193-0.051-0.279c-0.006-0.016-0.014-0.032-0.023-0.047c-0.048-0.079-0.117-0.144-0.2-0.185
		c-0.007,0-0.009-0.011-0.015-0.014c-0.629-0.286-1.283-0.516-1.952-0.688c-0.014,0-0.027,0-0.04,0
		c-0.02-0.003-0.041-0.005-0.062-0.006c-0.042-0.002-0.084,0.001-0.125,0.01c-0.017,0.003-0.034,0.008-0.051,0.013
		c-0.042,0.014-0.081,0.034-0.118,0.058c-0.014,0.01-0.029,0.016-0.042,0.027c-0.049,0.039-0.09,0.086-0.122,0.14l-1.3,2.3
		c-0.2-0.025-0.407-0.042-0.612-0.053l-0.981-2.492c-0.039-0.091-0.104-0.168-0.187-0.221c-0.011-0.009-0.023-0.017-0.036-0.025
		c-0.081-0.047-0.174-0.069-0.267-0.064c-0.006,0-0.012,0-0.018,0c-0.689,0.061-1.371,0.183-2.038,0.365
		c-0.012,0.004-0.024,0.01-0.036,0.016c-0.022,0.008-0.043,0.018-0.063,0.029c-0.033,0.017-0.064,0.038-0.092,0.062
		c-0.018,0.014-0.034,0.029-0.049,0.046c-0.025,0.031-0.047,0.064-0.065,0.1c-0.011,0.017-0.021,0.035-0.029,0.054
		c-0.023,0.057-0.035,0.118-0.035,0.179l0.005,2.634c-0.213,0.089-0.42,0.184-0.621,0.285l-2.095-1.669
		c-0.076-0.059-0.167-0.093-0.262-0.1c-0.02-0.002-0.04-0.002-0.06,0c-0.091,0.001-0.179,0.028-0.256,0.077
		c-0.006,0-0.013,0-0.019,0.005c-0.565,0.386-1.096,0.821-1.585,1.3c-0.006,0.006,0,0.015-0.01,0.021
		c-0.064,0.069-0.107,0.155-0.123,0.248c-0.001,0.017-0.001,0.033,0,0.05c-0.011,0.099,0.009,0.198,0.057,0.285l1.326,2.28
		c-0.154,0.2-0.3,0.41-0.436,0.623l-2.657-0.378c-0.095-0.011-0.19,0.007-0.275,0.051c-0.018,0.007-0.036,0.015-0.053,0.025
		c-0.078,0.049-0.141,0.118-0.182,0.2c0,0.007-0.012,0.009-0.015,0.017c-0.287,0.627-0.518,1.278-0.69,1.945
		c-0.001,0.014-0.001,0.028,0,0.042c-0.004,0.022-0.006,0.044-0.006,0.066c-0.001,0.038,0.002,0.077,0.01,0.114
		c0.003,0.021,0.008,0.042,0.015,0.063c0.014,0.038,0.032,0.074,0.054,0.107c0.009,0.017,0.02,0.033,0.031,0.049
		c0.038,0.048,0.086,0.089,0.139,0.119l2.3,1.294c-0.026,0.2-0.043,0.405-0.054,0.607l-2.5,0.976
		c-0.089,0.038-0.166,0.101-0.219,0.182c-0.011,0.014-0.021,0.028-0.03,0.043c-0.046,0.081-0.068,0.173-0.063,0.266
		c0,0.007,0,0.012,0,0.019c0.062,0.686,0.184,1.366,0.365,2.031c0,0.008,0.01,0.012,0.012,0.019
		c0.028,0.089,0.082,0.169,0.154,0.229c0.013,0.011,0.027,0.02,0.042,0.029c0.08,0.058,0.175,0.09,0.274,0.093l0,0h2.645
		c0.088,0.211,0.183,0.417,0.285,0.616l-1.683,2.079c-0.059,0.077-0.094,0.169-0.1,0.266c-0.002,0.018-0.002,0.035,0,0.053
		c0,0.092,0.027,0.182,0.077,0.26c0,0.007,0,0.014,0.006,0.02c0.396,0.566,0.841,1.096,1.33,1.583
		c0.008,0.007,0.017,0.013,0.027,0.018c0.027,0.023,0.056,0.042,0.087,0.058c0.025,0.015,0.052,0.028,0.079,0.039
		c0.033,0.009,0.066,0.016,0.1,0.019c0.021,0,0.042,0.012,0.063,0.012s0.016-0.006,0.024-0.006c0.079-0.002,0.157-0.023,0.226-0.061
		l2.289-1.322c0.2,0.155,0.406,0.3,0.619,0.433l-0.383,2.645c-0.011,0.096,0.007,0.194,0.051,0.28
		c0.007,0.016,0.015,0.032,0.023,0.047c0.047,0.08,0.117,0.144,0.2,0.186c0.006,0,0.008,0.011,0.015,0.014
		c0.629,0.286,1.281,0.516,1.95,0.689c0.015,0,0.029,0,0.044,0.006h0.044c0.012,0,0.025,0.005,0.037,0.005s0.025-0.009,0.038-0.011
		c0.06-0.004,0.118-0.019,0.172-0.045c0.02-0.009,0.039-0.018,0.058-0.029c0.068-0.042,0.125-0.099,0.166-0.168l1.3-2.293
		c0.204,0.025,0.408,0.044,0.612,0.055l0.976,2.494c0.037,0.094,0.102,0.175,0.186,0.231c0.083,0.056,0.18,0.086,0.28,0.086h0.042
		c0.689-0.06,1.371-0.18,2.039-0.359c0.013,0,0.024-0.012,0.037-0.017c0.021-0.008,0.042-0.017,0.062-0.028
		c0.033-0.018,0.064-0.039,0.093-0.063c0.017-0.015,0.033-0.029,0.049-0.046c0.026-0.03,0.048-0.064,0.065-0.1
		c0.011-0.017,0.02-0.035,0.029-0.053c0.023-0.057,0.035-0.118,0.036-0.18V35.1c0.212-0.088,0.419-0.183,0.621-0.285l2.093,1.672
		c0.081,0.062,0.181,0.097,0.283,0.1c0.01,0,0.019,0.011,0.029,0.011s0.014-0.006,0.021-0.007c0.087-0.003,0.172-0.029,0.245-0.076
		c0.006,0,0.014,0,0.019-0.006c0.568-0.394,1.1-0.836,1.59-1.322c0.007-0.007,0.006-0.016,0.011-0.023
		c0.064-0.069,0.106-0.154,0.123-0.246c0.001-0.017,0.001-0.035,0-0.052c0.011-0.098-0.009-0.198-0.057-0.284L32.079,32.3
		c0.155-0.2,0.301-0.407,0.438-0.621l2.655,0.383c0.023,0,0.048,0,0.071,0s0.03-0.011,0.046-0.013
		c0.059-0.007,0.117-0.023,0.17-0.05c0.024-0.009,0.046-0.019,0.068-0.032c0.065-0.046,0.118-0.108,0.155-0.179
		c0-0.007,0.012-0.01,0.015-0.018c0.288-0.626,0.52-1.276,0.694-1.943c0-0.013,0-0.026,0-0.039c0.004-0.024,0.007-0.049,0.007-0.074
		c0.001-0.036-0.002-0.071-0.009-0.106c-0.003-0.023-0.009-0.047-0.016-0.069c-0.014-0.035-0.031-0.069-0.052-0.1
		c-0.01-0.018-0.02-0.035-0.032-0.052c-0.039-0.048-0.086-0.088-0.139-0.119l-2.3-1.3c0.025-0.2,0.042-0.4,0.053-0.606l2.5-0.971
		c0.09-0.038,0.166-0.101,0.22-0.182c0.01-0.015,0.02-0.026,0.029-0.042C36.701,26.087,36.725,25.994,36.723,25.9z M31.461,35.47
		l-2.055-1.642c-0.176-0.136-0.42-0.139-0.6-0.008c-0.023,0.007-0.046,0.016-0.068,0.026c-0.321,0.17-0.653,0.318-0.994,0.444
		l-0.006,0.005c-0.083,0.033-0.155,0.089-0.209,0.161c-0.011,0.015-0.022,0.031-0.031,0.047c-0.051,0.076-0.079,0.165-0.081,0.256
		v2.585c-0.371,0.086-0.747,0.153-1.125,0.2L25.337,35.1c-0.034-0.083-0.09-0.154-0.163-0.206c-0.014-0.011-0.029-0.022-0.045-0.031
		c-0.074-0.049-0.16-0.077-0.249-0.081l0,0c-0.386-0.006-0.772-0.039-1.153-0.1h-0.006c-0.088-0.013-0.178-0.001-0.259,0.035
		c-0.021,0.008-0.042,0.018-0.061,0.03c-0.078,0.042-0.144,0.104-0.189,0.18l-1.277,2.25c-0.365-0.108-0.725-0.235-1.077-0.381
		l0.375-2.594c0.011-0.088-0.003-0.176-0.039-0.257c-0.007-0.019-0.016-0.037-0.027-0.054c-0.04-0.078-0.101-0.143-0.175-0.19l0,0
		c-0.369-0.216-0.72-0.461-1.05-0.734h-0.007c-0.164-0.12-0.381-0.137-0.561-0.044l-2.246,1.3c-0.259-0.278-0.503-0.569-0.731-0.873
		l1.642-2.049c0.138-0.175,0.141-0.422,0.007-0.6c-0.01-0.025-0.018-0.055-0.029-0.076c-0.169-0.316-0.317-0.644-0.442-0.98v-0.007
		c-0.034-0.082-0.089-0.153-0.16-0.206c-0.016-0.012-0.031-0.022-0.049-0.033c-0.076-0.049-0.164-0.077-0.255-0.079l0,0h-2.595
		c-0.087-0.368-0.154-0.741-0.2-1.117l2.451-0.957c0.08-0.034,0.149-0.09,0.2-0.161c0.013-0.019,0.024-0.039,0.033-0.06
		c0.048-0.073,0.076-0.158,0.079-0.246l0,0c0.005-0.385,0.039-0.768,0.1-1.148v-0.009c0.014-0.108-0.008-0.217-0.063-0.311
		c-0.041-0.083-0.104-0.152-0.183-0.2l-2.259-1.269c0.107-0.364,0.235-0.721,0.381-1.071l2.6,0.372c0.024,0,0.047,0,0.071,0
		s0.034-0.012,0.053-0.014c0.046-0.006,0.091-0.017,0.134-0.035c0.03-0.009,0.059-0.022,0.087-0.037
		c0.062-0.039,0.114-0.091,0.154-0.153l0,0c0.218-0.37,0.465-0.722,0.739-1.052v-0.009c0.058-0.069,0.095-0.154,0.107-0.243
		c0.001-0.019,0.001-0.038,0-0.057c0.005-0.091-0.015-0.182-0.059-0.262l-1.3-2.236c0.279-0.258,0.571-0.502,0.876-0.729
		l2.058,1.639c0.178,0.14,0.429,0.14,0.607,0c0.024-0.009,0.054-0.016,0.074-0.026c0.316-0.168,0.643-0.315,0.979-0.439h0.007
		c0.083-0.034,0.155-0.09,0.208-0.162c0.011-0.015,0.022-0.03,0.031-0.046c0.051-0.076,0.079-0.165,0.08-0.256v-2.585
		c0.37-0.087,0.745-0.154,1.123-0.2l0.962,2.444c0.035,0.08,0.091,0.148,0.161,0.2c0.016,0.012,0.033,0.024,0.051,0.034
		c0.073,0.048,0.158,0.075,0.245,0.079l0,0c0.386,0.005,0.771,0.039,1.152,0.1h0.029c0.017,0.001,0.034,0.001,0.051,0
		c0.016,0,0.029-0.011,0.044-0.012c0.057-0.005,0.112-0.02,0.164-0.044c0.021-0.009,0.042-0.019,0.062-0.031
		c0.068-0.041,0.125-0.099,0.165-0.167l1.273-2.252c0.366,0.107,0.725,0.234,1.077,0.379l-0.37,2.594
		c-0.011,0.088,0.004,0.178,0.041,0.259c0.007,0.018,0.015,0.035,0.025,0.052c0.04,0.078,0.101,0.144,0.176,0.19l0,0
		c0.378,0.22,0.738,0.471,1.075,0.751l0.01,0.006c0.017,0.011,0.035,0.022,0.054,0.031c0.034,0.022,0.071,0.04,0.11,0.053
		c0.02,0.006,0.041,0.009,0.062,0.011c0.027,0.007,0.056,0.013,0.084,0.015c0.008,0,0.016-0.007,0.025-0.007
		c0.078-0.002,0.155-0.023,0.224-0.06l2.249-1.292c0.258,0.278,0.501,0.569,0.728,0.873L31.97,22.5
		c-0.137,0.175-0.141,0.42-0.011,0.6c0.009,0.021,0.015,0.047,0.025,0.066c0.171,0.321,0.321,0.653,0.448,0.994v0.007
		c0.034,0.082,0.089,0.154,0.161,0.207c0.015,0.012,0.03,0.023,0.047,0.032c0.076,0.05,0.164,0.078,0.255,0.08h2.595
		c0.087,0.369,0.153,0.742,0.2,1.118l-2.453,0.953c-0.08,0.035-0.149,0.09-0.2,0.16c-0.013,0.017-0.023,0.032-0.034,0.049
		c-0.047,0.074-0.075,0.158-0.079,0.246l0,0c-0.005,0.385-0.039,0.769-0.1,1.149v0.008c-0.012,0.089,0.001,0.179,0.038,0.26
		c0.007,0.018,0.016,0.036,0.026,0.052c0.04,0.083,0.103,0.152,0.182,0.2l2.256,1.273c-0.109,0.363-0.236,0.72-0.382,1.07
		l-2.6-0.375c-0.086-0.009-0.174,0.004-0.253,0.039c-0.022,0.009-0.04,0.018-0.061,0.029c-0.075,0.04-0.139,0.099-0.186,0.171l0,0
		c-0.218,0.37-0.466,0.721-0.741,1.051v0.009c-0.055,0.07-0.089,0.153-0.1,0.241c0,0.021,0,0.039,0,0.059
		c-0.005,0.091,0.015,0.181,0.059,0.261l1.3,2.239C32.075,35.005,31.774,35.246,31.461,35.47z"/>
</g>
</svg>
