<?xml version="1.0" encoding="utf-8"?>
<!-- Generator: Adobe Illustrator 25.2.3, SVG Export Plug-In . SVG Version: 6.00 Build 0)  -->
<svg version="1.1" id="Layer_1" xmlns="http://www.w3.org/2000/svg" xmlns:xlink="http://www.w3.org/1999/xlink" x="0px" y="0px"
	 viewBox="0 0 50 50" style="enable-background:new 0 0 50 50;" xml:space="preserve">
<g id="ac70915c-8cd5-4546-ba5f-fac15bd633db">
	<path style="fill:#FFFFFF;" d="M12.979,13.3c0-2.494-1.1-5.011-3.545-5.011S5.875,10.8,5.875,13.3s1.1,5.024,3.559,5.024
		S12.979,15.8,12.979,13.3z M6.954,13.3c0-0.668,0.12-4,2.48-4s2.466,3.332,2.466,4s-0.119,4.014-2.466,4.014
		S6.954,13.967,6.954,13.3z"/>
	<polygon style="fill:#FFFFFF;" points="16.457,18.157 16.457,8.423 15.615,8.423 13.566,10.615 14.286,11.367 15.418,10.126 
		15.418,18.157 	"/>
	<path style="fill:#FFFFFF;" d="M25.055,13.3c0-2.494-1.1-5.011-3.545-5.011S17.951,10.8,17.951,13.3s1.1,5.024,3.559,5.024
		S25.055,15.8,25.055,13.3z M19.03,13.3c0-0.668,0.12-4,2.48-4s2.466,3.332,2.466,4s-0.119,4.014-2.466,4.014
		S19.03,13.967,19.03,13.3z"/>
	<polygon style="fill:#FFFFFF;" points="28.533,18.157 28.533,8.423 27.692,8.423 25.643,10.615 26.362,11.367 27.494,10.126 
		27.494,18.157 	"/>
	<path style="fill:#FFFFFF;" d="M33.587,8.286c-2.459,0-3.56,2.517-3.56,5.011s1.1,5.024,3.56,5.024s3.545-2.521,3.545-5.021
		S36.036,8.286,33.587,8.286z M33.587,17.311c-2.361,0-2.48-3.344-2.48-4.014s0.119-4,2.48-4s2.465,3.332,2.465,4
		S35.934,17.311,33.587,17.311z"/>
	<polygon style="fill:#FFFFFF;" points="40.609,18.157 40.609,8.423 39.768,8.423 37.719,10.615 38.438,11.367 39.571,10.126 
		39.571,18.157 	"/>
	<polygon style="fill:#FFFFFF;" points="44.402,18.157 44.402,8.423 43.561,8.423 41.511,10.615 42.231,11.367 43.363,10.126 
		43.363,18.157 	"/>
	<polygon style="fill:#FFFFFF;" points="5.283,22.111 6.002,22.863 7.135,21.622 7.135,29.652 8.173,29.652 8.173,19.919 
		7.332,19.919 	"/>
	<path style="fill:#FFFFFF;" d="M16.772,24.792c0-2.494-1.1-5.01-3.545-5.01s-3.56,2.516-3.56,5.01s1.1,5.024,3.56,5.024
		S16.772,27.293,16.772,24.792z M13.227,28.806c-2.361,0-2.48-3.343-2.48-4.014s0.119-4,2.48-4s2.466,3.333,2.466,4
		S15.574,28.806,13.227,28.806z"/>
	<polygon style="fill:#FFFFFF;" points="18.078,22.863 19.21,21.622 19.21,29.652 20.249,29.652 20.249,19.919 19.408,19.919 
		17.359,22.111 	"/>
	<polygon style="fill:#FFFFFF;" points="21.151,22.111 21.871,22.863 23.003,21.622 23.003,29.652 24.042,29.652 24.042,19.919 
		23.201,19.919 	"/>
	<path style="fill:#FFFFFF;" d="M32.641,24.792c0-2.494-1.1-5.01-3.546-5.01s-3.559,2.516-3.559,5.01s1.1,5.024,3.559,5.024
		S32.641,27.293,32.641,24.792z M29.1,28.806c-2.36,0-2.48-3.343-2.48-4.014s0.12-4,2.48-4s2.466,3.333,2.466,4
		S31.442,28.806,29.1,28.806z"/>
	<polygon style="fill:#FFFFFF;" points="36.118,29.652 36.118,19.919 35.277,19.919 33.228,22.111 33.947,22.863 35.08,21.622 
		35.08,29.652 	"/>
	<path style="fill:#FFFFFF;" d="M41.172,19.782c-2.459,0-3.56,2.516-3.56,5.01s1.1,5.024,3.56,5.024s3.545-2.523,3.545-5.024
		S43.621,19.782,41.172,19.782z M41.172,28.806c-2.36,0-2.48-3.343-2.48-4.014s0.12-4,2.48-4s2.466,3.333,2.466,4
		S43.519,28.806,41.172,28.806z"/>
	<polygon style="fill:#FFFFFF;" points="5.283,34.008 6.002,34.76 7.135,33.519 7.135,41.549 8.173,41.549 8.173,31.816 
		7.332,31.816 	"/>
	<polygon style="fill:#FFFFFF;" points="9.075,34.008 9.795,34.76 10.927,33.519 10.927,41.549 11.966,41.549 11.966,31.816 
		11.125,31.816 	"/>
	<path style="fill:#FFFFFF;" d="M17.019,31.679c-2.458,0-3.559,2.516-3.559,5.01s1.1,5.025,3.559,5.025s3.546-2.524,3.546-5.025
		S19.469,31.679,17.019,31.679z M17.019,40.703c-2.36,0-2.48-3.343-2.48-4.014s0.12-4,2.48-4s2.466,3.332,2.466,4
		S19.366,40.7,17.019,40.7V40.703z"/>
	<polygon style="fill:#FFFFFF;" points="21.151,34.008 21.871,34.76 23.003,33.519 23.003,41.549 24.042,41.549 24.042,31.816 
		23.201,31.816 	"/>
	<polygon style="fill:#FFFFFF;" points="24.944,34.008 25.663,34.76 26.796,33.519 26.796,41.549 27.834,41.549 27.834,31.816 
		26.993,31.816 	"/>
	<path style="fill:#FFFFFF;" d="M32.888,31.679c-2.459,0-3.559,2.516-3.559,5.01s1.1,5.025,3.559,5.025s3.545-2.524,3.545-5.025
		S35.337,31.679,32.888,31.679z M32.888,40.703c-2.36,0-2.48-3.343-2.48-4.014s0.12-4,2.48-4s2.466,3.332,2.466,4
		S35.235,40.7,32.888,40.7V40.703z"/>
	<polygon style="fill:#FFFFFF;" points="37.021,34.008 37.74,34.76 38.872,33.519 38.872,41.549 39.911,41.549 39.911,31.816 
		39.07,31.816 	"/>
	<polygon style="fill:#FFFFFF;" points="40.813,34.008 41.532,34.76 42.665,33.519 42.665,41.549 43.703,41.549 43.703,31.816 
		42.862,31.816 	"/>
</g>
</svg>
