<?xml version="1.0" encoding="utf-8"?>
<!-- Generator: Adobe Illustrator 25.2.3, SVG Export Plug-In . SVG Version: 6.00 Build 0)  -->
<svg version="1.1" id="e8d773f9-b1e9-4107-874c-383ea994bb23"
	 xmlns="http://www.w3.org/2000/svg" xmlns:xlink="http://www.w3.org/1999/xlink" x="0px" y="0px" viewBox="0 0 50 50"
	 style="enable-background:new 0 0 50 50;" xml:space="preserve">
<path style="fill:#FFFFFF;" d="M17.147,33.495c0.031,0.025,0.064,0.047,0.1,0.064c4.676,4.282,11.939,3.963,16.221-0.713
	c4.011-4.38,4.019-11.097,0.019-15.487c-0.017-0.034-0.038-0.065-0.063-0.094c-0.019-0.015-0.038-0.028-0.059-0.04
	c-4.347-4.619-11.614-4.84-16.233-0.493s-4.84,11.614-0.493,16.233c0.152,0.161,0.309,0.319,0.47,0.471
	C17.119,33.457,17.133,33.476,17.147,33.495z M25,35.594c-2.477,0.001-4.874-0.878-6.763-2.481l14.8-14.763
	c3.73,4.433,3.16,11.05-1.272,14.78C29.871,34.724,27.475,35.596,25,35.594z M14.5,25.094c-0.004-5.795,4.69-10.495,10.485-10.499
	c2.759-0.002,5.408,1.083,7.373,3.02L17.5,32.433C15.576,30.475,14.499,27.839,14.5,25.094z"/>
<path style="fill:#FFFFFF;" d="M46.47,38.416l-5.964,0.091c7.385-8.604,6.397-21.566-2.207-28.951
	C31.061,3.343,20.497,2.934,12.8,8.568c-0.235,0.145-0.307,0.453-0.162,0.688c0.145,0.235,0.453,0.307,0.688,0.162
	c0.024-0.015,0.047-0.032,0.068-0.05c8.704-6.373,20.926-4.484,27.3,4.22c5.319,7.264,4.984,17.222-0.811,24.112l-0.109-5.759
	c0-0.271-0.22-0.491-0.492-0.49c-0.006,0-0.012,0-0.017,0c-0.276,0.005-0.496,0.233-0.491,0.509c0,0,0,0.001,0,0.001l0.133,7.021
	c-0.012,0.145,0.041,0.289,0.145,0.391l0,0c0.094,0.093,0.221,0.146,0.353,0.146h0.008l7.069-0.108
	c0.276-0.004,0.497-0.231,0.493-0.507c0,0,0-0.001,0-0.001c0.013-0.256-0.184-0.475-0.441-0.488
	C46.513,38.414,46.491,38.414,46.47,38.416z"/>
<path style="fill:#FFFFFF;" d="M36.592,40.814c-8.703,6.374-20.926,4.486-27.3-4.218c-5.325-7.27-4.984-17.24,0.824-24.13
	l0.11,5.792c0.005,0.273,0.227,0.491,0.5,0.491h0.009c0.276-0.005,0.496-0.233,0.491-0.509c0,0,0,0,0,0l-0.134-7.071
	c-0.002-0.206-0.131-0.389-0.323-0.462c-0.074-0.027-0.154-0.037-0.232-0.028l-7.022,0.109c-0.276,0.004-0.497,0.231-0.493,0.507
	c0,0,0,0,0,0c-0.005,0.267,0.207,0.488,0.474,0.494c0.011,0,0.022,0,0.034-0.001L9.463,11.7c-7.394,8.592-6.422,21.552,2.17,28.946
	c7.25,6.239,17.849,6.643,25.553,0.973c0.207-0.183,0.227-0.499,0.044-0.706c-0.161-0.183-0.431-0.222-0.638-0.094V40.814z"/>
</svg>
