<?xml version="1.0" encoding="utf-8"?>
<!-- Generator: Adobe Illustrator 25.2.3, SVG Export Plug-In . SVG Version: 6.00 Build 0)  -->
<svg version="1.1" id="Layer_1" xmlns="http://www.w3.org/2000/svg" xmlns:xlink="http://www.w3.org/1999/xlink" x="0px" y="0px"
	 viewBox="0 0 50 50" style="enable-background:new 0 0 50 50;" xml:space="preserve">
<g id="bb33dc7d-97d4-4aba-b3b9-98db9ef21d11">
	<path style="fill:#FFFFFF;" d="M43.667,33.275c1.007,0.005,1.828-0.807,1.833-1.815c0-0.013,0-0.026,0-0.039V18.644
		c0.017-1.007-0.786-1.836-1.793-1.853c-0.013,0-0.027,0-0.04,0c-1.007,0.031-1.814,0.845-1.834,1.853v12.777
		C41.853,32.429,42.659,33.244,43.667,33.275z M42.833,18.644c0.012-0.459,0.376-0.831,0.834-0.853
		c0.455-0.005,0.828,0.359,0.833,0.814c0,0.013,0,0.026,0,0.039v12.777c0.016,0.455-0.34,0.837-0.795,0.854
		c-0.013,0-0.025,0.001-0.038,0c-0.459-0.022-0.822-0.395-0.834-0.854V18.644z"/>
	<path style="fill:#FFFFFF;" d="M6.333,33.275c1.008,0.005,1.829-0.808,1.834-1.816c0-0.013,0-0.026,0-0.038V18.644
		c0.024-1.013-0.778-1.853-1.791-1.876c-1.013-0.024-1.853,0.778-1.876,1.791c-0.001,0.029-0.001,0.057,0,0.086v12.777
		c-0.017,1.007,0.786,1.837,1.794,1.854C6.307,33.275,6.32,33.275,6.333,33.275z M5.5,18.644c-0.016-0.46,0.344-0.846,0.805-0.862
		c0.46-0.016,0.846,0.344,0.862,0.805c0.001,0.019,0.001,0.039,0,0.058v12.777c0.016,0.46-0.344,0.846-0.805,0.862
		c-0.46,0.016-0.846-0.344-0.862-0.805c-0.001-0.019-0.001-0.039,0-0.058V18.644z"/>
	<path style="fill:#FFFFFF;" d="M31.378,25.962c3.075-0.058,5.52-2.598,5.461-5.673c-0.057-2.992-2.469-5.405-5.461-5.461
		c-3.015-0.005-5.463,2.435-5.468,5.45c0,0.041,0,0.081,0.001,0.122c-0.057,3.014,2.341,5.504,5.355,5.561
		C31.303,25.962,31.341,25.962,31.378,25.962z M31.378,15.828c2.522,0.053,4.524,2.14,4.471,4.663
		c-0.051,2.448-2.023,4.42-4.471,4.471c-2.522-0.053-4.524-2.14-4.471-4.663C26.958,17.851,28.93,15.879,31.378,15.828z"/>
	<path style="fill:#FFFFFF;" d="M16.832,35.979c0.616,0.804,1.767,0.957,2.571,0.341c0.123-0.094,0.233-0.203,0.329-0.325
		l2.982-3.727l3.044,3.711c0.358,0.464,0.914,0.73,1.5,0.718c0.549-0.007,1.065-0.265,1.4-0.7l3.066-3.737l3.049,3.717
		c0.336,0.444,0.857,0.708,1.413,0.718c0.438,0.017,0.863-0.152,1.17-0.465c0.779-0.64,0.915-1.78,0.309-2.586l-4.528-5.474
		c-0.309-0.42-0.795-0.674-1.316-0.687c-0.575-0.018-1.127,0.227-1.5,0.666l-3.064,3.737L24.2,28.172
		c-0.343-0.457-0.883-0.724-1.454-0.719l0,0c-0.563-0.006-1.096,0.253-1.439,0.7l-3.065,3.737L15.2,28.181
		c-0.273-0.396-0.705-0.656-1.183-0.711c-0.497-0.057-0.995,0.096-1.374,0.422c-0.386,0.282-0.637,0.712-0.692,1.187
		c-0.057,0.513,0.099,1.026,0.431,1.421L16.832,35.979z M13.271,28.672c0.148-0.135,0.341-0.211,0.541-0.214
		c0.029,0,0.059,0.001,0.088,0.005c0.208,0.027,0.394,0.145,0.507,0.322l3.838,4.68l3.854-4.7c0.154-0.202,0.396-0.318,0.65-0.311
		c0.263-0.005,0.511,0.119,0.665,0.332l3.839,4.68l3.834-4.675c0.171-0.202,0.427-0.313,0.691-0.3
		c0.224,0.004,0.433,0.116,0.561,0.3l4.522,5.464c0.28,0.373,0.22,0.9-0.137,1.2l-0.062,0.054c-0.122,0.138-0.302,0.21-0.485,0.194
		c-0.248-0.01-0.477-0.133-0.624-0.332l-3.838-4.68l-3.856,4.7c-0.146,0.188-0.368,0.301-0.606,0.311
		c-0.276,0.01-0.539-0.114-0.708-0.332L22.7,30.679l-3.764,4.707c-0.303,0.359-0.839,0.404-1.198,0.102
		c-0.043-0.036-0.082-0.077-0.117-0.121l-4.467-5.5c-0.158-0.183-0.234-0.423-0.209-0.664
		C12.972,28.987,13.091,28.794,13.271,28.672z"/>
	<path style="fill:#FFFFFF;" d="M18.666,25.962c3.075,0.009,5.574-2.476,5.583-5.551s-2.476-5.574-5.551-5.583
		s-5.574,2.476-5.583,5.551c0,0.007,0,0.014,0,0.021c-0.022,3.05,2.434,5.54,5.484,5.562C18.621,25.962,18.644,25.962,18.666,25.962
		z M18.666,15.828c2.522-0.009,4.574,2.029,4.583,4.551s-2.029,4.574-4.551,4.583s-4.574-2.029-4.583-4.551c0-0.004,0-0.007,0-0.011
		c-0.027-2.498,1.976-4.545,4.474-4.572C18.614,15.828,18.64,15.828,18.666,15.828z"/>
	<path style="fill:#FFFFFF;" d="M11.984,40.5h25.907c1.479-0.017,2.666-1.228,2.654-2.707l0.1-25.585
		c0.013-1.48-1.174-2.691-2.654-2.708H12.085c-1.48,0.016-2.667,1.227-2.655,2.707l-0.1,25.585
		C9.318,39.272,10.504,40.482,11.984,40.5z M10.43,12.208c-0.013-0.928,0.727-1.692,1.655-1.708h25.906
		c0.928,0.016,1.668,0.779,1.655,1.707l-0.1,25.585c0.013,0.928-0.727,1.692-1.655,1.708H11.984
		c-0.928-0.016-1.668-0.779-1.655-1.707L10.43,12.208z"/>
</g>
</svg>
