<?xml version="1.0" encoding="utf-8"?>
<!-- Generator: Adobe Illustrator 25.2.3, SVG Export Plug-In . SVG Version: 6.00 Build 0)  -->
<svg version="1.1" id="Layer_1" xmlns="http://www.w3.org/2000/svg" xmlns:xlink="http://www.w3.org/1999/xlink" x="0px" y="0px"
	 viewBox="0 0 50 50" style="enable-background:new 0 0 50 50;" xml:space="preserve">
<g id="Layer_1_1_">
</g>
<g id="Icons">
</g>
<g id="Isolation_Mode">
	<g>
		<path style="fill:#FFFFFF;" d="M20.089,22.034c-2.056,0.737-3.681,0.735-4.828-0.003c-1.571-1.011-1.764-3.124-1.766-3.145
			c-0.022-0.275-0.27-0.483-0.538-0.458c-0.274,0.022-0.479,0.262-0.458,0.537c0.007,0.099,0.215,2.263,1.837,3.601
			c-0.485,1.17-0.112,2.815,0.568,3.906c0.095,0.152,0.258,0.235,0.424,0.235c0.091,0,0.183-0.024,0.265-0.076
			c0.234-0.146,0.306-0.455,0.159-0.689c-0.5-0.802-0.78-2.003-0.553-2.812c0.63,0.299,1.341,0.455,2.135,0.455
			c0.924,0,1.957-0.204,3.093-0.61c0.26-0.093,0.395-0.379,0.302-0.64C20.636,22.076,20.351,21.939,20.089,22.034z"/>
		<path style="fill:#FFFFFF;" d="M19.872,29.869c-0.09,0.042-2.044,0.993-2.732,2.98c-1.268-0.047-2.678,0.878-3.462,1.897
			c-0.168,0.219-0.127,0.533,0.092,0.701c0.091,0.07,0.198,0.104,0.305,0.104c0.149,0,0.298-0.067,0.396-0.195
			c0.576-0.749,1.603-1.43,2.44-1.501c-0.131,1.505,0.527,3.131,1.973,4.844c0.099,0.117,0.24,0.178,0.382,0.178
			c0.114,0,0.229-0.039,0.322-0.118c0.211-0.178,0.238-0.494,0.06-0.705c-1.408-1.669-1.974-3.191-1.683-4.525
			c0.399-1.826,2.312-2.745,2.331-2.753c0.249-0.118,0.357-0.415,0.24-0.665C20.419,29.862,20.123,29.754,19.872,29.869z"/>
		<path style="fill:#FFFFFF;" d="M42.635,27.34c0.21-0.256,0.395-0.525,0.532-0.819c1.274-2.73-1.025-6.053-1.049-6.053
			c0.1-0.482,0.886-4.728-2.124-6.133c-0.845-0.393-1.691-0.637-2.509-0.733c0.473-2.571-0.657-5.033-2.153-5.64
			c-0.435-0.176-0.865-0.222-1.288-0.176c-2.908-2.61-6.267-3.24-8.02-2.466c-0.445,0.227-0.78,0.57-1.025,0.956
			c-0.249-0.389-0.591-0.736-1.048-0.969c-1.725-0.76-5.084-0.133-7.993,2.477c-0.425-0.047-0.855,0-1.289,0.176
			c-1.495,0.606-2.626,3.068-2.153,5.639c-0.818,0.096-1.665,0.341-2.51,0.734c-3.01,1.405-2.223,5.654-2.089,6.054
			c-0.024,0.032-2.366,3.383-1.083,6.133c0.137,0.294,0.322,0.563,0.532,0.819c-1.355,1.348-1.62,3.21-1.137,4.444
			c0.573,1.745,1.992,3.093,2.945,3.257c-0.463,1.783,0.051,3.652,1.357,4.989c0.799,0.973,2.017,1.57,3.39,1.607
			c0.685,2.043,2.707,3.368,4.92,3.368c0.348,0,0.7-0.033,1.053-0.101c3.101-0.361,4.485-1.784,5.105-2.946
			c0.616,1.161,1.991,2.582,5.072,2.941C30.431,44.967,30.792,45,31.146,45c2.233,0,4.258-1.32,4.983-3.333
			c1.323-0.068,2.541-0.665,3.311-1.606c1.339-1.371,1.853-3.247,1.387-5.021c0.952-0.163,2.371-1.511,2.937-3.232
			C44.254,30.552,43.99,28.689,42.635,27.34z M19.742,43.917c-2.107,0.407-4.249-0.736-4.868-2.58
			c-0.128-0.432-0.542-0.712-0.952-0.667c-1.043-0.053-1.997-0.518-2.646-1.306c-1.107-1.135-1.523-2.688-1.111-4.153
			c0.006-0.021,0.021-0.092,0.023-0.113c0.034-0.24-0.029-0.479-0.179-0.673c-0.156-0.203-0.396-0.337-0.655-0.368
			c-0.4-0.048-1.658-1.013-2.185-2.611c-0.37-0.946-0.151-2.362,0.905-3.406c0.898,0.703,2.163,1.21,3.786,1.514
			c0.031,0.005,0.062,0.008,0.093,0.008c0.235,0,0.445-0.167,0.49-0.408c0.051-0.271-0.128-0.533-0.399-0.583
			c-2.289-0.428-3.737-1.26-4.305-2.474c-1.008-2.159,0.962-5.088,0.985-5.122c0.145-0.208,0.193-0.468,0.137-0.711
			c-0.083-0.401-0.746-3.944,1.566-5.024c1.946-0.906,3.872-0.917,5.272-0.036c1.304,0.862,1.98,2.294,1.767,3.738
			c-0.041,0.273,0.147,0.528,0.421,0.568c0.267,0.038,0.528-0.147,0.567-0.421c0.272-1.833-0.571-3.641-2.213-4.726
			c-0.799-0.503-1.727-0.763-2.717-0.798c-0.481-2.256,0.543-4.282,1.518-4.678c1.205-0.487,2.586,0.645,3.922,1.741l0.215,0.176
			c0.213,0.174,0.528,0.144,0.703-0.071c0.175-0.214,0.144-0.529-0.07-0.704l-0.214-0.175c-0.782-0.642-1.622-1.321-2.495-1.725
			c2.604-2.102,5.278-2.423,6.418-1.92c0.668,0.341,0.975,1.131,0.978,1.723c0,0.003-0.001,0.005-0.001,0.008v2.662l0,0
			c0,3.658-2.746,3.929-2.874,3.939c-0.274,0.02-0.48,0.259-0.462,0.534c0.019,0.263,0.238,0.465,0.498,0.465
			c0.013,0,0.024,0,0.036-0.001c0.025-0.002,1.684-0.15,2.802-1.589v13.982c-1.118-1.439-2.777-1.587-2.802-1.589
			c-0.268-0.027-0.512,0.187-0.532,0.461c-0.021,0.274,0.186,0.514,0.46,0.536c0.117,0.009,2.874,0.274,2.874,3.939
			c0,0.001,0.001,0.002,0.001,0.003v9.026C24.495,40.437,24.313,43.383,19.742,43.917z M42.822,31.472
			c-0.518,1.572-1.775,2.538-2.175,2.585c-0.261,0.031-0.5,0.165-0.656,0.368c-0.149,0.194-0.213,0.433-0.18,0.66
			c0.003,0.026,0.018,0.101,0.024,0.126c0.412,1.465-0.004,3.018-1.141,4.185c-0.62,0.756-1.574,1.221-2.541,1.276
			c-0.478-0.049-0.9,0.232-1.022,0.648c-0.624,1.859-2.76,3-4.91,2.591c-4.487-0.523-4.712-3.408-4.721-3.588v-0.001v-9.04
			c0-3.658,2.746-3.929,2.874-3.939c0.274-0.02,0.48-0.259,0.462-0.534c-0.02-0.275-0.272-0.493-0.534-0.463
			c-0.025,0.002-1.684,0.15-2.802,1.588V13.953c1.118,1.439,2.776,1.587,2.802,1.589c0.012,0,0.023,0.001,0.035,0.001
			c0.26,0,0.478-0.2,0.497-0.462c0.021-0.274-0.186-0.514-0.46-0.536c-0.117-0.009-2.874-0.274-2.874-3.939V7.942
			c0-0.003,0-0.005-0.001-0.008c0.003-0.591,0.31-1.382,0.952-1.711c1.17-0.512,3.841-0.194,6.444,1.907
			c-0.874,0.404-1.712,1.083-2.495,1.725l-0.214,0.175c-0.214,0.175-0.245,0.49-0.07,0.704c0.175,0.214,0.49,0.245,0.703,0.071
			l0.215-0.176c1.335-1.095,2.713-2.23,3.922-1.741c0.975,0.396,2,2.422,1.518,4.679c-0.992,0.036-1.922,0.298-2.726,0.803
			c-1.633,1.079-2.477,2.887-2.204,4.72c0.04,0.273,0.298,0.458,0.567,0.421c0.273-0.041,0.462-0.295,0.421-0.568
			c-0.214-1.444,0.463-2.876,1.758-3.732c1.408-0.888,3.332-0.877,5.28,0.03c2.313,1.08,1.65,4.623,1.568,5.022
			c-0.058,0.245-0.009,0.505,0.139,0.718c0.021,0.029,1.99,2.958,0.982,5.116c-0.567,1.214-2.016,2.046-4.305,2.474
			c-0.271,0.051-0.45,0.312-0.399,0.583c0.045,0.241,0.255,0.408,0.49,0.408c0.031,0,0.062-0.003,0.093-0.008
			c1.623-0.304,2.888-0.811,3.786-1.514C42.982,29.085,43.2,30.503,42.822,31.472z"/>
		<path style="fill:#FFFFFF;" d="M37.043,18.428c-0.271-0.024-0.515,0.183-0.538,0.458c-0.002,0.021-0.194,2.134-1.766,3.145
			c-1.148,0.739-2.771,0.741-4.828,0.003c-0.261-0.094-0.546,0.042-0.64,0.302c-0.093,0.26,0.042,0.546,0.302,0.64
			c1.136,0.407,2.169,0.61,3.093,0.61c0.794,0,1.504-0.156,2.135-0.455c0.227,0.809-0.053,2.01-0.552,2.812
			c-0.146,0.234-0.075,0.542,0.159,0.689c0.082,0.051,0.174,0.076,0.265,0.076c0.166,0,0.329-0.083,0.424-0.235
			c0.68-1.09,1.053-2.735,0.568-3.906c1.622-1.339,1.83-3.503,1.837-3.601C37.522,18.689,37.317,18.45,37.043,18.428z"/>
		<path style="fill:#FFFFFF;" d="M32.86,32.849c-0.688-1.987-2.643-2.938-2.732-2.98c-0.251-0.115-0.547-0.007-0.663,0.242
			c-0.117,0.25-0.009,0.547,0.24,0.665c0.02,0.009,1.932,0.927,2.331,2.753c0.291,1.334-0.274,2.856-1.683,4.525
			c-0.179,0.211-0.151,0.526,0.06,0.705c0.094,0.079,0.208,0.118,0.322,0.118c0.142,0,0.283-0.061,0.382-0.178
			c1.446-1.712,2.104-3.338,1.973-4.843c0.838,0.071,1.864,0.752,2.44,1.501c0.099,0.128,0.247,0.195,0.396,0.195
			c0.106,0,0.214-0.034,0.305-0.104c0.219-0.168,0.26-0.482,0.092-0.701C35.538,33.728,34.128,32.803,32.86,32.849z"/>
	</g>
</g>
<g id="Artwork">
</g>
</svg>
