<?xml version="1.0" encoding="utf-8"?>
<!-- Generator: Adobe Illustrator 25.2.3, SVG Export Plug-In . SVG Version: 6.00 Build 0)  -->
<svg version="1.1" id="Layer_1" xmlns="http://www.w3.org/2000/svg" xmlns:xlink="http://www.w3.org/1999/xlink" x="0px" y="0px"
	 viewBox="0 0 50 50" style="enable-background:new 0 0 50 50;" xml:space="preserve">
<g id="e078a407-069b-44cd-93e4-c51795b38c3b">
	<path style="fill:#FFFFFF;" d="M45.034,9.211H4.966c-0.276,0-0.5,0.224-0.5,0.5v30.578c0,0.276,0.224,0.5,0.5,0.5h40.068
		c0.276,0,0.5-0.224,0.5-0.5V9.711C45.534,9.435,45.31,9.211,45.034,9.211z M44.534,39.789H5.466V15.914h39.068V39.789z
		 M44.534,14.914H5.466v-4.7h39.068V14.914z"/>
	<path style="fill:#FFFFFF;" d="M7.828,13.062h2.862c0.276,0,0.5-0.224,0.5-0.5s-0.224-0.5-0.5-0.5H7.828
		c-0.276,0-0.5,0.224-0.5,0.5S7.552,13.062,7.828,13.062z"/>
	<path style="fill:#FFFFFF;" d="M13.552,13.062h2.862c0.276,0,0.5-0.224,0.5-0.5s-0.224-0.5-0.5-0.5h-2.862
		c-0.276,0-0.5,0.224-0.5,0.5S13.276,13.062,13.552,13.062z"/>
	<path style="fill:#FFFFFF;" d="M19.276,13.062h2.862c0.276,0,0.5-0.224,0.5-0.5s-0.224-0.5-0.5-0.5h-2.862
		c-0.276,0-0.5,0.224-0.5,0.5S19,13.062,19.276,13.062z"/>
	<circle style="fill:#FFFFFF;" cx="42.172" cy="12.563" r="1"/>
	<path style="fill:#FFFFFF;" d="M20.662,34.5h8.676c0.276,0,0.5-0.224,0.5-0.5v-7.585c0-0.276-0.224-0.5-0.5-0.5H28.75v-1.666
		c0-2.071-1.679-3.75-3.75-3.75s-3.75,1.679-3.75,3.75v1.666h-0.588c-0.276,0-0.5,0.224-0.5,0.5V34
		C20.162,34.276,20.386,34.5,20.662,34.5z M22.25,24.249c0-1.519,1.231-2.75,2.75-2.75s2.75,1.231,2.75,2.75v1.666h-5.5V24.249z
		 M21.162,26.915h7.676V33.5h-7.676V26.915z"/>
</g>
</svg>
