<svg id="f8bbc45a-a8c1-40c1-8a84-78612592ea87" data-name="Icons" xmlns="http://www.w3.org/2000/svg" viewBox="0 0 50 50"><path d="M20.147,31.329H16.474a.451.451,0,0,0-.491.463v4.946a.451.451,0,0,0,.491.463h3.673a.451.451,0,0,0,.491-.463V31.792A.451.451,0,0,0,20.147,31.329ZM19.638,36.2H16.983V32.329h2.655Z"/><path d="M26.624,25.176H23.343c-.393,0-.589.293-.589.683V36.518a.653.653,0,0,0,.589.683h3.281c.392,0,.588-.292.588-.683V25.859C27.212,25.371,27.114,25.176,26.624,25.176ZM26.212,36.2H23.754V26.176h2.458Z"/><path d="M33.492,28.982H30.015a.547.547,0,0,0-.49.586v7.048a.547.547,0,0,0,.49.585h3.477a.547.547,0,0,0,.491-.585V29.568C33.983,29.177,33.787,28.982,33.492,28.982ZM32.983,36.2H30.525V29.982h2.458Z"/><path d="M18.2,29.753a2.368,2.368,0,0,0,2-3.648l3.464-3.579a2.359,2.359,0,0,0,3.274-.565l2.757,1.962a2.34,2.34,0,0,0-.31,1.15A2.375,2.375,0,1,0,31.754,22.7a2.352,2.352,0,0,0-1.4.469L27.34,21.023a2.417,2.417,0,0,0,.045-.446,2.375,2.375,0,1,0-4.75,0,2.345,2.345,0,0,0,.344,1.213l-3.487,3.6a2.374,2.374,0,1,0-1.3,4.361ZM31.754,23.7a1.376,1.376,0,1,1-1.375,1.376A1.377,1.377,0,0,1,31.754,23.7ZM25.01,19.2a1.376,1.376,0,1,1-1.375,1.376A1.377,1.377,0,0,1,25.01,19.2ZM18.2,26a1.376,1.376,0,1,1-1.375,1.375A1.377,1.377,0,0,1,18.2,26Z"/><path d="M45.017,9.211H4.949a.5.5,0,0,0-.5.5V40.289a.5.5,0,0,0,.5.5H45.017a.5.5,0,0,0,.5-.5V9.711A.5.5,0,0,0,45.017,9.211Zm-.5,30.578H5.449V15.914H44.517Zm0-24.875H5.449v-4.7H44.517Z"/><path d="M7.811,13.062h2.862a.5.5,0,0,0,0-1H7.811a.5.5,0,1,0,0,1Z"/><path d="M13.535,13.062H16.4a.5.5,0,0,0,0-1H13.535a.5.5,0,0,0,0,1Z"/><path d="M19.259,13.062h2.862a.5.5,0,0,0,0-1H19.259a.5.5,0,0,0,0,1Z"/><circle cx="42.155" cy="12.563" r="1"/></svg>