<svg id="fd76145f-c016-4e55-afde-bae506d1fe40" data-name="Icons" xmlns="http://www.w3.org/2000/svg" viewBox="0 0 50 50"><path d="M43.518,6.5H6.482A1.98,1.98,0,0,0,4.5,8.472V31.528A1.98,1.98,0,0,0,6.482,33.5h7.087L13.5,42.038a2.011,2.011,0,0,0,.66,1.355,1.72,1.72,0,0,0,2.133.011,10.839,10.839,0,0,0,1.357-1.315c.237-.254.474-.509.7-.735.96-.954,2.337-2.344,3.875-3.895,1.25-1.263,2.606-2.632,3.93-3.959h17.36A1.98,1.98,0,0,0,45.5,31.528V8.472A1.98,1.98,0,0,0,43.518,6.5ZM44.5,31.528a.978.978,0,0,1-.982.972H25.95a.5.5,0,0,0-.354.146c-1.37,1.375-2.782,2.8-4.079,4.109-1.535,1.549-2.91,2.937-3.87,3.891-.235.234-.482.5-.727.761A10.605,10.605,0,0,1,15.706,42.6a.735.735,0,0,1-.947,0A1.031,1.031,0,0,1,14.5,42l.073-9a.5.5,0,0,0-.5-.5H6.482a.978.978,0,0,1-.982-.972V8.472A.978.978,0,0,1,6.482,7.5H43.518a.978.978,0,0,1,.982.972Z"/><path d="M15,16.494a3.5,3.5,0,1,0,3.5,3.5A3.5,3.5,0,0,0,15,16.494Zm0,6a2.5,2.5,0,1,1,2.5-2.5A2.5,2.5,0,0,1,15,22.494Z"/><path d="M25.049,16.494a3.5,3.5,0,1,0,3.5,3.5A3.5,3.5,0,0,0,25.049,16.494Zm0,6a2.5,2.5,0,1,1,2.5-2.5A2.5,2.5,0,0,1,25.049,22.494Z"/><path d="M35,16.494a3.5,3.5,0,1,0,3.5,3.5A3.5,3.5,0,0,0,35,16.494Zm0,6a2.5,2.5,0,1,1,2.5-2.5A2.5,2.5,0,0,1,35,22.494Z"/></svg>