<svg xmlns="http://www.w3.org/2000/svg" viewBox="0 0 50 50"><g id="bcffe6e4-a29a-4ac7-abb6-fd2e0caa4782" data-name="Isolation Mode"><path d="M26.28,25.715a1.463,1.463,0,0,0-.162-1.658l3.125-5.445c.116.077.24.138.352.222a.5.5,0,0,0,.6-.8c-.145-.108-.3-.187-.454-.286l.479-.835a.5.5,0,1,0-.867-.5l-.471.819A8.678,8.678,0,0,0,16.311,25a.5.5,0,0,0,1,0,7.673,7.673,0,0,1,11.07-6.9l-3.134,5.46a1.461,1.461,0,0,0-.962,2.716,1.464,1.464,0,0,0,2-.565Z"/><path d="M36.5,25A11.5,11.5,0,1,0,25,36.5,11.513,11.513,0,0,0,36.5,25Zm-22,0A10.5,10.5,0,1,1,25,35.5,10.512,10.512,0,0,1,14.5,25Z"/><path d="M31.7,21.222a.5.5,0,1,0,.87-.493,8.709,8.709,0,0,0-1.087-1.515.5.5,0,0,0-.746.666A7.715,7.715,0,0,1,31.7,21.222Z"/><path d="M32.309,22.605A7.688,7.688,0,0,1,32.689,25a.5.5,0,0,0,1,0,8.674,8.674,0,0,0-.43-2.7.5.5,0,1,0-.95.31Z"/><path d="M46.478,38.322H46.47l-5.964.092A20.531,20.531,0,0,0,12.8,8.475a.5.5,0,1,0,.594.8,19.533,19.533,0,0,1,26.491,28.33l-.109-5.757a.488.488,0,0,0-.509-.491.5.5,0,0,0-.491.51l.133,7.02a.49.49,0,0,0,.145.391l0,0a.5.5,0,0,0,.353.147h.008l7.069-.109a.5.5,0,0,0-.007-1Z"/><path d="M36.592,40.721A19.533,19.533,0,0,1,10.116,12.373l.11,5.792a.5.5,0,0,0,.5.49h.009a.5.5,0,0,0,.491-.509l-.134-7.071a.494.494,0,0,0-.157-.352l0-.005a.5.5,0,0,0-.118-.076c-.011,0-.019-.014-.03-.019a.5.5,0,0,0-.246-.037l-7.022.108a.5.5,0,0,0,.007,1H3.53L9.463,11.6A20.525,20.525,0,0,0,37.186,41.525a.5.5,0,1,0-.594-.8Z"/></g></svg>