<svg id="Icons" xmlns="http://www.w3.org/2000/svg" viewBox="0 0 128 128"><defs><style>.cls-1{fill:none;stroke:#1d9cd3;stroke-linecap:round;stroke-linejoin:round;stroke-width:3px;}</style></defs><title>clouds-three-wide_1D9CD3</title><path class="cls-1" d="M69.1,36.76a15.79,15.79,0,0,1,14.1-.55,18.45,18.45,0,0,1,35.08,11.28A13.24,13.24,0,0,1,111,71.8h-8.93"/><path class="cls-1" d="M29.64,82.29H14.36a10.61,10.61,0,0,1,0-21.21h0A15.76,15.76,0,0,1,36.58,46.71,18.45,18.45,0,0,1,72.3,53.18"/><path class="cls-1" d="M82.19,103.75H40.05a10.61,10.61,0,0,1,0-21.21h0A15.76,15.76,0,0,1,62.27,68.17,18.45,18.45,0,0,1,98,74.64a18.24,18.24,0,0,1-.64,4.81,13.23,13.23,0,0,1-7.26,24.3h-7.9Z"/></svg>