<svg id="Icons" xmlns="http://www.w3.org/2000/svg" viewBox="0 0 128 128"><defs><style>.cls-1{fill:none;stroke:#1d9cd3;stroke-linecap:round;stroke-linejoin:round;stroke-width:3px;}</style></defs><title>cloud-with-traffic-wide_1D9CD3</title><polyline class="cls-1" points="87.14 60.48 93.56 67.97 87.14 75.44"/><circle class="cls-1" cx="71.1" cy="67.96" r="9.62"/><circle class="cls-1" cx="47.58" cy="67.96" r="5.35"/><line class="cls-1" x1="52.93" y1="67.96" x2="61.48" y2="67.96"/><line class="cls-1" x1="80.72" y1="67.96" x2="91.42" y2="67.96"/><polyline class="cls-1" points="68.02 47.18 77.17 43.5 82.2 51.98"/><line class="cls-1" x1="72.14" y1="58.35" x2="76.48" y2="45.53"/><polyline class="cls-1" points="68.05 88.79 77.2 92.47 82.23 84"/><line class="cls-1" x1="72.17" y1="77.62" x2="76.51" y2="90.44"/><circle class="cls-1" cx="47.58" cy="67.96" r="5.35"/><path class="cls-1" d="M89.05,101.69H22.25a16.82,16.82,0,0,1-.07-33.63h0A25,25,0,0,1,57.49,45.28a29.24,29.24,0,0,1,55.6,17.88,21,21,0,0,1-11.52,38.53H97.4"/></svg>