<?xml version="1.0" encoding="utf-8"?>
<!-- Generator: Adobe Illustrator 25.2.3, SVG Export Plug-In . SVG Version: 6.00 Build 0)  -->
<svg version="1.1" id="Layer_1" xmlns="http://www.w3.org/2000/svg" xmlns:xlink="http://www.w3.org/1999/xlink" x="0px" y="0px"
	 viewBox="0 0 50 50" style="enable-background:new 0 0 50 50;" xml:space="preserve">
<g id="Layer_1_1_">
</g>
<g id="Icons">
</g>
<g id="Isolation_Mode">
	<g>
		<path style="fill:#1D9CD3;" d="M46.142,13.074c0.126-0.56,0.19-1.132,0.19-1.705c0-4.339-3.583-7.869-7.988-7.869
			c-3.137,0-6.001,1.842-7.282,4.634c-1.664-0.602-3.532-0.536-5.182,0.192C24.783,7.791,23.569,7.5,22.344,7.5
			c-3.137,0-6.001,1.842-7.282,4.634c-0.758-0.274-1.553-0.413-2.369-0.413c-3.645,0-6.638,2.797-6.886,6.328
			C3.392,18.297,1.5,20.319,1.5,22.761c0,2.613,2.157,4.739,4.808,4.739h5.923C10.62,28.267,9.5,29.886,9.5,31.761
			c0,2.057,1.346,3.864,3.35,4.496c0.05,0.016,0.101,0.023,0.15,0.023c0.212,0,0.41-0.136,0.477-0.35
			c0.083-0.263-0.063-0.544-0.327-0.627c-1.585-0.5-2.65-1.923-2.65-3.542c0-2.052,1.701-3.729,3.792-3.739
			c0.275-0.001,0.498-0.225,0.498-0.5c0-0.162,0.012-0.321,0.025-0.479c0,0,0,0,0-0.001l0,0c0.202-2.416,1.937-4.468,4.318-5.108
			c1.387-0.373,2.761-0.246,3.995,0.305c0.065,0.029,0.134,0.043,0.204,0.043c0.065,0,0.13-0.013,0.192-0.038
			c0.127-0.053,0.227-0.155,0.275-0.284c0.925-2.425,3.229-4.155,5.87-4.406l0.171-0.017c0.167-0.018,0.333-0.036,0.504-0.036
			c3.357,0,6.244,2.353,6.863,5.594l0,0l0,0c0.083,0.435,0.125,0.863,0.125,1.275c0,0.602-0.081,1.204-0.241,1.787
			c-0.057,0.21,0.028,0.433,0.21,0.552c1.376,0.891,2.198,2.387,2.198,4.001c0,1.817-1.042,3.455-2.72,4.274
			c-0.248,0.121-0.351,0.42-0.229,0.669c0.087,0.177,0.265,0.28,0.45,0.28c0.074,0,0.148-0.016,0.219-0.051
			c2.023-0.989,3.28-2.971,3.28-5.173c0-1.835-0.875-3.542-2.358-4.635c0.126-0.56,0.19-1.132,0.19-1.705
			c0-0.284-0.023-0.575-0.057-0.869h4.348c3.241,0,5.877-2.598,5.877-5.791C48.5,15.874,47.625,14.167,46.142,13.074z
			 M23.062,21.134c-1.315-0.476-2.756-0.551-4.188-0.167c-2.634,0.708-4.573,2.902-4.979,5.533H6.308
			c-2.1,0-3.808-1.677-3.808-3.739c0-2.052,1.701-3.729,3.792-3.739c0.275-0.001,0.498-0.225,0.498-0.5
			c0-3.199,2.648-5.801,5.903-5.801c0.847,0,1.667,0.174,2.436,0.517c0.126,0.056,0.269,0.058,0.396,0.005
			c0.127-0.053,0.227-0.155,0.275-0.284c1.017-2.667,3.647-4.459,6.545-4.459c1.147,0,2.287,0.281,3.296,0.812c0,0,0,0,0.001,0
			c2.277,1.2,3.691,3.521,3.691,6.056c0,0.404-0.054,0.82-0.138,1.251C26.51,17.006,24.174,18.719,23.062,21.134z M42.623,22.5
			h-4.531c-0.865-3.499-4.054-6-7.748-6c-0.039,0-0.076,0.007-0.114,0.008c0.061-0.386,0.102-0.766,0.102-1.139
			c0-2.558-1.255-4.923-3.332-6.39c1.363-0.403,2.832-0.318,4.127,0.259c0.125,0.056,0.269,0.059,0.396,0.005
			c0.127-0.053,0.227-0.155,0.275-0.284C32.816,6.292,35.446,4.5,38.344,4.5c3.854,0,6.988,3.082,6.988,6.869
			c0,0.602-0.081,1.204-0.241,1.787c-0.057,0.21,0.028,0.433,0.21,0.552c1.376,0.891,2.198,2.387,2.198,4.001
			C47.5,20.351,45.312,22.5,42.623,22.5z"/>
		<path style="fill:#1D9CD3;" d="M14.874,34.564c-0.233,0.046-0.402,0.25-0.403,0.487l-0.012,1.771
			c-0.001,0.244,0.172,0.453,0.412,0.496l2.292,0.408c0.045,0.201,0.097,0.4,0.156,0.595l-1.77,1.571
			c-0.178,0.158-0.22,0.42-0.1,0.626l0.892,1.528c0.123,0.21,0.376,0.3,0.605,0.217l2.184-0.81c0.109,0.117,0.222,0.23,0.338,0.341
			l-0.769,2.238c-0.078,0.226,0.015,0.476,0.222,0.595l1.531,0.888c0.21,0.122,0.477,0.074,0.633-0.11l1.505-1.781
			c0.175,0.055,0.351,0.104,0.525,0.146l0.452,2.316c0.045,0.234,0.25,0.403,0.488,0.404l1.772,0.008c0.001,0,0.001,0,0.002,0
			c0.242,0,0.449-0.173,0.492-0.411l0.415-2.292c0.209-0.047,0.417-0.103,0.622-0.166l1.571,1.76
			c0.158,0.178,0.421,0.219,0.626,0.098l1.53-0.897c0.209-0.123,0.3-0.378,0.216-0.605l-0.811-2.179
			c0.117-0.11,0.232-0.224,0.343-0.341l2.242,0.757c0.227,0.079,0.473-0.017,0.593-0.223l0.887-1.535
			c0.121-0.21,0.074-0.478-0.112-0.633l-1.78-1.494c0.055-0.176,0.104-0.351,0.146-0.525l2.32-0.463
			c0.232-0.046,0.401-0.25,0.402-0.488l0.009-1.771c0.001-0.244-0.173-0.453-0.414-0.495l-2.292-0.403
			c-0.045-0.201-0.098-0.399-0.158-0.595l1.767-1.574c0.178-0.159,0.219-0.42,0.099-0.626l-0.894-1.527
			c-0.123-0.21-0.378-0.299-0.606-0.216l-2.183,0.814c-0.11-0.117-0.223-0.23-0.339-0.34l0.764-2.24
			c0.077-0.226-0.017-0.476-0.223-0.595l-1.533-0.884c-0.209-0.12-0.477-0.074-0.632,0.111l-1.501,1.783
			c-0.176-0.055-0.351-0.103-0.526-0.145l-0.456-2.315c-0.046-0.234-0.251-0.403-0.489-0.403l-1.772-0.005h-0.001
			c-0.242,0-0.449,0.173-0.492,0.412l-0.411,2.293c-0.2,0.045-0.397,0.098-0.592,0.157l-1.568-1.763
			c-0.158-0.178-0.421-0.218-0.626-0.099l-1.531,0.896c-0.209,0.123-0.301,0.377-0.216,0.605l0.807,2.18
			c-0.119,0.11-0.233,0.224-0.344,0.341l-2.241-0.762c-0.223-0.074-0.473,0.017-0.593,0.222l-0.891,1.532
			c-0.122,0.21-0.076,0.478,0.11,0.634l1.778,1.498c-0.056,0.176-0.105,0.352-0.147,0.525L14.874,34.564z M26.586,28.554
			l-0.011,0.052l-0.003-0.049L26.586,28.554z M18.247,33.035l-1.717-1.446l0.474-0.815l2.163,0.735
			c0.193,0.064,0.404,0.007,0.538-0.145c0.223-0.255,0.468-0.499,0.73-0.723c0.159-0.136,0.216-0.357,0.144-0.553L19.8,27.983
			l0.815-0.477l1.514,1.702c0.135,0.152,0.349,0.206,0.541,0.139c0.355-0.125,0.726-0.224,1.101-0.292
			c0.206-0.037,0.366-0.198,0.403-0.404l0.397-2.214l0.943,0.002l0.441,2.239c0.039,0.197,0.322,0.375,0.518,0.417
			c0.303,0.064,0.613,0.152,0.92,0.262c0.195,0.07,0.416,0.011,0.551-0.149l1.451-1.723l0.814,0.469l-0.737,2.162
			c-0.066,0.193-0.008,0.406,0.146,0.539c0.256,0.223,0.499,0.467,0.722,0.727c0.138,0.159,0.357,0.217,0.554,0.143L33,30.739
			l0.475,0.811l-1.706,1.52c-0.152,0.135-0.207,0.349-0.139,0.541c0.126,0.356,0.224,0.728,0.292,1.105
			c0.037,0.207,0.199,0.368,0.406,0.404l2.212,0.39l-0.005,0.941l-2.243,0.448c-0.196,0.039-0.375,0.325-0.416,0.521
			c-0.064,0.301-0.153,0.609-0.264,0.916c-0.071,0.197-0.011,0.417,0.149,0.552l1.72,1.443l-0.472,0.816l-2.164-0.731
			c-0.192-0.065-0.404-0.008-0.538,0.146c-0.225,0.259-0.47,0.503-0.729,0.724c-0.159,0.136-0.216,0.357-0.143,0.554l0.783,2.104
			l-0.815,0.478l-1.518-1.699c-0.136-0.152-0.351-0.208-0.542-0.138c-0.362,0.129-0.742,0.23-1.126,0.299
			c-0.206,0.037-0.367,0.197-0.404,0.403l-0.4,2.213l-0.943-0.004l-0.437-2.239c-0.039-0.197-0.308-0.374-0.504-0.416
			c-0.309-0.065-0.623-0.155-0.933-0.267c-0.198-0.071-0.417-0.013-0.551,0.148l-1.454,1.72l-0.813-0.472l0.742-2.16
			c0.066-0.192,0.009-0.406-0.144-0.54c-0.256-0.223-0.499-0.468-0.721-0.728c-0.137-0.16-0.359-0.217-0.554-0.144l-2.109,0.782
			l-0.474-0.812l1.709-1.517c0.152-0.135,0.207-0.349,0.14-0.541c-0.125-0.354-0.223-0.726-0.29-1.105
			c-0.037-0.207-0.198-0.368-0.404-0.405l-2.212-0.394l0.006-0.941l2.244-0.443c0.196-0.039,0.373-0.312,0.415-0.507
			c0.065-0.304,0.155-0.616,0.268-0.93C18.466,33.39,18.407,33.17,18.247,33.035z"/>
		<path style="fill:#1D9CD3;" d="M25,41.468c3.033,0,5.5-2.467,5.5-5.5s-2.467-5.5-5.5-5.5s-5.5,2.467-5.5,5.5
			S21.967,41.468,25,41.468z M25,31.468c2.481,0,4.5,2.019,4.5,4.5s-2.019,4.5-4.5,4.5s-4.5-2.019-4.5-4.5S22.519,31.468,25,31.468z
			"/>
	</g>
</g>
</svg>
