<svg viewBox="0 0 128 128" xmlns="http://www.w3.org/2000/svg"><g fill="none" stroke="#1d9cd3" stroke-linecap="round" stroke-linejoin="round" stroke-width="3"><path d="m59.79 66.52h-3.43a9.24 9.24 0 0 0 -9.28 9.34v9.33"/><path d="m89.42 92v-7.66a9.17 9.17 0 0 0 -9.2-9.34h-6.93a9.23 9.23 0 0 0 -9.29 9.34v7.66"/><circle cx="59.77" cy="58.89" r="7.64"/><circle cx="76.74" cy="67.37" r="7.64"/><path d="m89.5 102.37h-68a17.12 17.12 0 0 1 -.07-34.24 25.45 25.45 0 0 1 35.94-23.19 29.77 29.77 0 0 1 56.63 18.2 21.37 21.37 0 0 1 -11.73 39.23h-4.27"/></g></svg>