<?xml version="1.0" encoding="utf-8"?>
<!-- Generator: Adobe Illustrator 25.2.3, SVG Export Plug-In . SVG Version: 6.00 Build 0)  -->
<svg version="1.1" id="Layer_1" xmlns="http://www.w3.org/2000/svg" xmlns:xlink="http://www.w3.org/1999/xlink" x="0px" y="0px"
	 viewBox="0 0 50 50" style="enable-background:new 0 0 50 50;" xml:space="preserve">
<g id="Layer_1_1_">
</g>
<g id="Icons">
</g>
<g id="Isolation_Mode">
	<g>
		<path style="fill:#1D9CD3;" d="M44.013,24.472c0.204-0.857,0.308-1.734,0.308-2.612c0-6.264-5.151-11.359-11.482-11.359
			c-4.584,0-8.763,2.749-10.558,6.891c-1.148-0.445-2.356-0.67-3.598-0.67c-5.291,0-9.625,4.132-9.879,9.306
			C5.285,26.289,2.5,29.211,2.5,32.753c0,3.72,3.059,6.747,6.818,6.747h29.796c4.624,0,8.386-3.722,8.386-8.297
			C47.5,28.523,46.203,26.033,44.013,24.472z M39.114,38.5H9.318C6.11,38.5,3.5,35.922,3.5,32.753c0-3.154,2.599-5.732,5.793-5.747
			c0.275-0.001,0.498-0.225,0.498-0.5c0-4.844,3.989-8.786,8.891-8.786c1.273,0,2.507,0.263,3.666,0.783
			c0.125,0.055,0.269,0.058,0.396,0.005c0.127-0.053,0.227-0.156,0.275-0.285c1.526-4.021,5.472-6.724,9.818-6.724
			c5.78,0,10.482,4.647,10.482,10.359c0,0.909-0.122,1.816-0.361,2.697c-0.057,0.209,0.028,0.432,0.209,0.55
			c2.086,1.358,3.331,3.637,3.331,6.096C46.5,35.227,43.187,38.5,39.114,38.5z"/>
	</g>
</g>
</svg>
