<?xml version="1.0" encoding="utf-8"?>
<!-- Generator: Adobe Illustrator 25.2.3, SVG Export Plug-In . SVG Version: 6.00 Build 0)  -->
<svg version="1.1" id="Layer_1" xmlns="http://www.w3.org/2000/svg" xmlns:xlink="http://www.w3.org/1999/xlink" x="0px" y="0px"
	 viewBox="0 0 50 50" style="enable-background:new 0 0 50 50;" xml:space="preserve">
<g id="Layer_1_1_">
</g>
<g id="Icons">
</g>
<g id="Isolation_Mode">
	<g>
		<path style="fill:#1D9CD3;" d="M44.013,18.472c0.204-0.855,0.308-1.732,0.308-2.612C44.32,9.596,39.169,4.5,32.838,4.5
			c-4.585,0-8.764,2.749-10.559,6.891c-1.147-0.445-2.355-0.67-3.598-0.67c-5.291,0-9.625,4.132-9.879,9.306
			C5.285,20.289,2.5,23.211,2.5,26.753c0,3.72,3.059,6.747,6.818,6.747H13c0.276,0,0.5-0.224,0.5-0.5s-0.224-0.5-0.5-0.5H9.318
			C6.11,32.5,3.5,29.922,3.5,26.753c0-3.154,2.599-5.732,5.793-5.747c0.275-0.001,0.498-0.225,0.498-0.5
			c0-4.844,3.988-8.786,8.891-8.786c1.273,0,2.508,0.263,3.667,0.783c0.126,0.056,0.269,0.058,0.396,0.005
			c0.128-0.053,0.228-0.156,0.276-0.285c1.525-4.021,5.47-6.723,9.817-6.723c5.78,0,10.482,4.647,10.482,10.359
			c0,0.911-0.121,1.818-0.361,2.696c-0.058,0.21,0.027,0.433,0.21,0.551c2.086,1.358,3.331,3.637,3.331,6.096
			c0,3.746-2.817,6.88-6.5,7.288h-3c-0.276,0-0.5,0.224-0.5,0.5s0.224,0.5,0.5,0.5l3.055-0.003c4.244-0.466,7.445-4.028,7.445-8.285
			C47.5,22.523,46.203,20.033,44.013,18.472z"/>
		<path style="fill:#1D9CD3;" d="M30.74,43.5c0.479,0,0.952-0.071,1.407-0.212c2.005-0.62,3.353-2.447,3.353-4.548V27.26
			c0-2.625-2.135-4.76-4.76-4.76H19.26c-2.625,0-4.76,2.135-4.76,4.76v11.48c0,2.625,2.135,4.76,4.76,4.76H30.74z M15.5,38.74V27.26
			c0-2.073,1.687-3.76,3.76-3.76h11.48c2.073,0,3.76,1.687,3.76,3.76v11.48c0,1.659-1.064,3.103-2.647,3.593
			c-0.359,0.111-0.733,0.167-1.112,0.167H19.26C17.187,42.5,15.5,40.813,15.5,38.74z"/>
		<path style="fill:#1D9CD3;" d="M20.197,34.876c0.136,0,0.265-0.014,0.381-0.04c0.119-0.027,0.227-0.062,0.331-0.108
			c0.101-0.044,0.195-0.097,0.28-0.158c0.062-0.043,0.12-0.091,0.174-0.143c0.01,0.051,0.021,0.103,0.034,0.158
			c0.017,0.073,0.04,0.138,0.067,0.192l0.01,0.021h1.018v-0.104l-0.003-0.016c-0.051-0.11-0.09-0.241-0.116-0.388
			c-0.027-0.149-0.041-0.317-0.041-0.499v-1.883c0-0.248-0.046-0.466-0.137-0.651c-0.091-0.186-0.218-0.342-0.377-0.466
			c-0.16-0.124-0.352-0.218-0.567-0.28c-0.217-0.062-0.455-0.093-0.706-0.093c-0.278,0-0.53,0.038-0.748,0.111
			s-0.405,0.174-0.557,0.297s-0.269,0.267-0.348,0.427c-0.079,0.159-0.119,0.325-0.119,0.495v0.038h1.008v-0.038
			c0-0.075,0.015-0.146,0.044-0.211c0.028-0.064,0.072-0.122,0.131-0.17c0.058-0.049,0.133-0.088,0.222-0.116
			c0.09-0.028,0.196-0.043,0.316-0.043c0.265,0,0.473,0.063,0.616,0.188c0.144,0.125,0.214,0.29,0.214,0.505v0.24h-0.646
			c-0.636,0-1.131,0.124-1.473,0.366c-0.347,0.247-0.521,0.606-0.521,1.07c0,0.184,0.036,0.357,0.108,0.516s0.176,0.297,0.309,0.413
			c0.132,0.116,0.293,0.208,0.477,0.272C19.762,34.843,19.971,34.876,20.197,34.876z M19.691,33.479
			c0-0.215,0.084-0.376,0.256-0.492c0.173-0.118,0.449-0.177,0.82-0.177h0.557v0.746c-0.034,0.059-0.08,0.118-0.136,0.175
			c-0.061,0.061-0.129,0.113-0.211,0.16s-0.172,0.084-0.277,0.114c-0.1,0.029-0.21,0.043-0.327,0.043
			c-0.12,0-0.225-0.015-0.31-0.045c-0.085-0.029-0.155-0.069-0.21-0.119c-0.055-0.049-0.096-0.109-0.121-0.177
			C19.705,33.636,19.691,33.56,19.691,33.479z"/>
		<path style="fill:#1D9CD3;" d="M24.381,34.478c0.123,0.117,0.265,0.211,0.423,0.278c0.188,0.08,0.406,0.12,0.649,0.12
			c0.271,0,0.515-0.056,0.723-0.167c0.209-0.111,0.388-0.266,0.53-0.46c0.143-0.193,0.252-0.427,0.326-0.693
			c0.073-0.264,0.11-0.556,0.11-0.866v-0.082c0-0.324-0.037-0.622-0.11-0.887c-0.074-0.268-0.185-0.5-0.326-0.692
			c-0.144-0.193-0.323-0.344-0.535-0.451c-0.212-0.106-0.457-0.16-0.729-0.16c-0.252,0-0.476,0.045-0.666,0.134
			c-0.164,0.077-0.312,0.184-0.438,0.318l-0.034-0.374h-0.931v5.927h1.008V34.478z M24.684,33.925
			c-0.127-0.086-0.229-0.199-0.303-0.334v-1.872c0.075-0.139,0.177-0.251,0.304-0.333c0.129-0.084,0.296-0.126,0.495-0.126
			c0.164,0,0.308,0.035,0.427,0.104c0.118,0.069,0.218,0.166,0.296,0.287c0.077,0.122,0.137,0.266,0.175,0.43
			c0.038,0.165,0.058,0.342,0.058,0.529v0.082c0,0.188-0.02,0.366-0.056,0.531c-0.037,0.165-0.095,0.311-0.172,0.434
			c-0.075,0.122-0.174,0.22-0.294,0.292c-0.119,0.072-0.262,0.108-0.426,0.108C24.98,34.055,24.811,34.011,24.684,33.925z"/>
		<path style="fill:#1D9CD3;" d="M29.008,34.478c0.123,0.117,0.265,0.211,0.423,0.278c0.188,0.08,0.406,0.12,0.649,0.12
			c0.271,0,0.515-0.056,0.723-0.167c0.209-0.111,0.388-0.266,0.53-0.46c0.143-0.193,0.252-0.427,0.326-0.693
			c0.073-0.264,0.11-0.556,0.11-0.866v-0.082c0-0.324-0.037-0.622-0.11-0.887c-0.074-0.268-0.185-0.5-0.326-0.692
			c-0.144-0.193-0.323-0.344-0.535-0.451c-0.212-0.106-0.457-0.16-0.729-0.16c-0.252,0-0.476,0.045-0.666,0.134
			c-0.164,0.077-0.312,0.184-0.438,0.318l-0.034-0.374H28v5.927h1.008V34.478z M29.311,33.925c-0.127-0.086-0.229-0.199-0.303-0.334
			v-1.872c0.075-0.139,0.177-0.251,0.304-0.333c0.129-0.084,0.296-0.126,0.495-0.126c0.164,0,0.308,0.035,0.427,0.104
			c0.118,0.069,0.218,0.166,0.296,0.287c0.077,0.122,0.137,0.266,0.175,0.43c0.038,0.165,0.058,0.342,0.058,0.529v0.082
			c0,0.188-0.02,0.366-0.056,0.531c-0.037,0.165-0.095,0.311-0.172,0.434c-0.075,0.122-0.174,0.22-0.294,0.292
			c-0.119,0.072-0.262,0.108-0.426,0.108C29.607,34.055,29.438,34.011,29.311,33.925z"/>
	</g>
</g>
</svg>
