<?xml version="1.0" encoding="utf-8"?>
<!-- Generator: Adobe Illustrator 25.2.3, SVG Export Plug-In . SVG Version: 6.00 Build 0)  -->
<svg version="1.1" id="Layer_1" xmlns="http://www.w3.org/2000/svg" xmlns:xlink="http://www.w3.org/1999/xlink" x="0px" y="0px"
	 viewBox="0 0 50 50" style="enable-background:new 0 0 50 50;" xml:space="preserve">
<g id="Layer_1_1_">
</g>
<g id="Icons">
</g>
<g id="Isolation_Mode">
	<g>
		<path style="fill:#1D9CD3;" d="M20,28.5c1.208,0,2.217-0.86,2.449-2h2.101c0.252,2.244,2.139,4,4.449,4
			c0.224,0,0.438-0.034,0.653-0.066l2.012,4.195l-2.888-0.984c-0.263-0.09-0.545,0.05-0.635,0.312
			c-0.089,0.261,0.051,0.545,0.312,0.634l4.016,1.368c0.053,0.018,0.106,0.027,0.161,0.027c0.073,0,0.146-0.016,0.216-0.049
			c0.001,0,0.001-0.001,0.002-0.001s0.002,0,0.003-0.001c0.053-0.026,0.098-0.064,0.138-0.106c0.004-0.005,0.011-0.007,0.016-0.012
			c0.02-0.023,0.031-0.053,0.047-0.079c0.017-0.029,0.04-0.055,0.051-0.087c0-0.001,0.001-0.002,0.002-0.003l1.368-4.016
			c0.089-0.261-0.051-0.545-0.312-0.634c-0.263-0.091-0.546,0.05-0.635,0.312l-0.973,2.856l-1.912-3.986
			c1.52-0.599,2.619-2,2.808-3.68h4.344l-2.146,2.146c-0.195,0.195-0.195,0.512,0,0.707C35.744,29.451,35.872,29.5,36,29.5
			s0.256-0.049,0.354-0.146l2.999-2.999c0.046-0.046,0.083-0.102,0.109-0.163c0.051-0.122,0.051-0.26,0-0.382
			c-0.025-0.062-0.062-0.117-0.109-0.163l-2.999-2.999c-0.195-0.195-0.512-0.195-0.707,0s-0.195,0.512,0,0.707l2.146,2.146h-4.344
			c-0.189-1.68-1.289-3.081-2.808-3.68l1.912-3.986l0.973,2.856c0.071,0.208,0.266,0.339,0.474,0.339
			c0.054,0,0.107-0.008,0.161-0.027c0.262-0.089,0.401-0.373,0.312-0.634l-1.368-4.016c0-0.001-0.001-0.002-0.002-0.003
			c-0.011-0.032-0.033-0.058-0.051-0.087c-0.016-0.026-0.026-0.056-0.047-0.079c-0.004-0.005-0.011-0.007-0.016-0.012
			c-0.04-0.042-0.085-0.08-0.138-0.106c-0.001-0.001-0.002,0-0.004-0.001c-0.001,0-0.001-0.001-0.001-0.001
			c-0.016-0.008-0.032-0.007-0.048-0.012c-0.046-0.017-0.092-0.033-0.14-0.036c-0.031-0.002-0.06,0.008-0.09,0.012
			c-0.033,0.004-0.067,0.002-0.099,0.013l-4.016,1.368c-0.262,0.089-0.401,0.373-0.312,0.634c0.09,0.262,0.371,0.401,0.635,0.312
			l2.888-0.984l-2.012,4.195C29.438,21.534,29.224,21.5,29,21.5c-2.31,0-4.197,1.756-4.449,4H22.45c-0.232-1.14-1.242-2-2.449-2
			c-1.379,0-2.5,1.122-2.5,2.5S18.621,28.5,20,28.5z M29,22.5c1.93,0,3.5,1.57,3.5,3.5s-1.57,3.5-3.5,3.5s-3.5-1.57-3.5-3.5
			S27.07,22.5,29,22.5z M20,24.5c0.827,0,1.5,0.673,1.5,1.5s-0.673,1.5-1.5,1.5s-1.5-0.673-1.5-1.5S19.173,24.5,20,24.5z"/>
		<path style="fill:#1D9CD3;" d="M9.318,39.5h29.796c4.624,0,8.386-3.722,8.386-8.297c0-2.68-1.297-5.169-3.487-6.731
			c0.204-0.855,0.308-1.732,0.308-2.612c0-6.264-5.151-11.359-11.482-11.359c-4.585,0-8.764,2.749-10.559,6.891
			c-1.147-0.445-2.355-0.67-3.598-0.67c-5.291,0-9.625,4.132-9.879,9.306C5.285,26.289,2.5,29.211,2.5,32.753
			C2.5,36.473,5.559,39.5,9.318,39.5z M9.293,27.006c0.275-0.001,0.498-0.225,0.498-0.5c0-4.844,3.988-8.786,8.891-8.786
			c1.273,0,2.508,0.263,3.667,0.783c0.125,0.056,0.269,0.057,0.396,0.005c0.128-0.053,0.228-0.156,0.276-0.285
			c1.525-4.021,5.471-6.724,9.817-6.724c5.78,0,10.482,4.647,10.482,10.359c0,0.911-0.121,1.818-0.361,2.696
			c-0.058,0.21,0.027,0.433,0.21,0.551c2.086,1.358,3.331,3.637,3.331,6.096c0,4.024-3.313,7.297-7.386,7.297H9.318
			C6.11,38.5,3.5,35.922,3.5,32.753C3.5,29.599,6.099,27.021,9.293,27.006z"/>
	</g>
</g>
</svg>
