<?xml version="1.0" encoding="utf-8"?>
<!-- Generator: Adobe Illustrator 25.2.3, SVG Export Plug-In . SVG Version: 6.00 Build 0)  -->
<svg version="1.1" id="a9325e92-b613-4515-8046-7ea385268ae7"
	 xmlns="http://www.w3.org/2000/svg" xmlns:xlink="http://www.w3.org/1999/xlink" x="0px" y="0px" viewBox="0 0 50 50"
	 style="enable-background:new 0 0 50 50;" xml:space="preserve">
<path style="fill:#1D9CD3;" d="M43.506,16.585H11.498c-1.103,0.003-1.995,0.897-1.995,2V18.6h-4v-4h34v0.5
	c0,0.276,0.224,0.5,0.5,0.5s0.5-0.224,0.5-0.5v-4.5c-0.006-1.101-0.899-1.99-2-1.99h-32c-1.101,0-1.994,0.889-2,1.99v3.487v0.012
	v0.012v4.979v0.009v0.008V31.62c0.006,1.1,0.9,1.989,2,1.989L8,33.6c0.276,0,0.5-0.224,0.5-0.5S8.276,32.6,8,32.6l0,0l-1.5,0.01
	c-0.548,0-0.994-0.441-1-0.989V19.6h4v19.988c0.003,1.1,0.894,1.991,1.994,1.994h32.008l0,0c1.102-0.001,1.995-0.893,1.998-1.995
	V18.58C45.497,17.48,44.606,16.588,43.506,16.585z M6.5,9.606h32c0.548,0,0.995,0.442,1,0.99v3h-34v-3
	C5.505,10.048,5.952,9.606,6.5,9.606z M44.5,39.587c-0.003,0.548-0.446,0.991-0.994,0.994l0,0H11.498
	c-0.548-0.003-0.991-0.446-0.994-0.994V18.58c0-0.55,0.445-0.997,0.995-1h32.008c0.548,0.003,0.991,0.447,0.994,0.995L44.5,39.587z"
	/>
<path style="fill:#1D9CD3;" d="M13.366,29.6h6.268c0.478-0.001,0.865-0.388,0.866-0.866v-5.273
	c-0.001-0.478-0.388-0.865-0.866-0.866h-6.268c-0.478,0.001-0.865,0.388-0.866,0.866v5.268c-0.002,0.479,0.386,0.869,0.865,0.871
	C13.365,29.6,13.366,29.6,13.366,29.6z M19.5,27.1h-6v-0.5h6V27.1z M19.5,25.591h-6V25.1h6V25.591z M13.5,28.591V28.1h6v0.5
	L13.5,28.591z M19.5,23.591V24.1h-6v-0.5L19.5,23.591z"/>
<path style="fill:#1D9CD3;" d="M39,26.6c1.933,0,3.5-1.567,3.5-3.5s-1.567-3.5-3.5-3.5s-3.5,1.567-3.5,3.5l0,0
	C35.5,25.033,37.067,26.6,39,26.6z M39,20.6c1.381,0,2.5,1.119,2.5,2.5s-1.119,2.5-2.5,2.5s-2.5-1.119-2.5-2.5S37.619,20.6,39,20.6z
	"/>
<path style="fill:#1D9CD3;" d="M43,32.6H13c-0.276,0-0.5,0.224-0.5,0.5s0.224,0.5,0.5,0.5h30c0.276,0,0.5-0.224,0.5-0.5
	S43.276,32.6,43,32.6z"/>
<path style="fill:#1D9CD3;" d="M32,35.6H13c-0.276,0-0.5,0.224-0.5,0.5s0.224,0.5,0.5,0.5h19c0.276,0,0.5-0.224,0.5-0.5
	S32.276,35.6,32,35.6z"/>
</svg>
