<?xml version="1.0" encoding="utf-8"?>
<!-- Generator: Adobe Illustrator 25.2.3, SVG Export Plug-In . SVG Version: 6.00 Build 0)  -->
<svg version="1.1" id="Layer_1" xmlns="http://www.w3.org/2000/svg" xmlns:xlink="http://www.w3.org/1999/xlink" x="0px" y="0px"
	 viewBox="0 0 50 50" style="enable-background:new 0 0 50 50;" xml:space="preserve">
<g id="aff0b280-9b60-4456-a82e-a017484ea6c2">
	<path style="fill:#FFFFFF;" d="M24.688,14.3c0.195,0.195,0.512,0.195,0.707,0l7.038-7.02v3.52c0,0.276,0.224,0.5,0.5,0.5
		s0.5-0.224,0.5-0.5V6.075V6.058c-0.009-0.269-0.23-0.483-0.5-0.483H28.2c-0.276,0-0.5,0.224-0.5,0.5s0.224,0.5,0.5,0.5h3.526
		l-6.682,6.666l-9.119-9.095c-0.192-0.198-0.509-0.203-0.707-0.011c-0.198,0.192-0.203,0.509-0.011,0.707
		c0.004,0.004,0.008,0.008,0.012,0.012L24.688,14.3z"/>
	<path style="fill:#FFFFFF;" d="M25,16.5c-4.694,0-8.5,3.806-8.5,8.5s3.806,8.5,8.5,8.5s8.5-3.806,8.5-8.5
		C33.494,20.308,29.692,16.506,25,16.5z M25,32.5c-4.142,0-7.5-3.358-7.5-7.5s3.358-7.5,7.5-7.5s7.5,3.358,7.5,7.5
		C32.496,29.14,29.14,32.496,25,32.5z"/>
	<path style="fill:#FFFFFF;" d="M34.542,20.057l9.578,2.688l-3.074,1.719c-0.241,0.135-0.327,0.44-0.192,0.681
		c0.135,0.241,0.44,0.327,0.681,0.192l4.129-2.311C45.677,23.018,45.689,23.01,45.7,23c0.015-0.01,0.028-0.022,0.041-0.034
		c0.133-0.102,0.201-0.268,0.177-0.434c-0.007-0.055-0.025-0.109-0.051-0.158c-0.002-0.009-0.005-0.018-0.009-0.026l-2.316-4.12
		c-0.135-0.241-0.44-0.326-0.681-0.191c-0.241,0.135-0.326,0.44-0.191,0.681l1.725,3.067l-9.1-2.553l3.488-12.381
		c0.075-0.266-0.08-0.542-0.346-0.618c-0.266-0.075-0.542,0.08-0.618,0.346L34.2,19.44c-0.075,0.266,0.08,0.542,0.346,0.617
		c0,0,0.001,0,0.001,0L34.542,20.057z"/>
	<path style="fill:#FFFFFF;" d="M47.38,26.975l-13,3.2c-0.268,0.066-0.432,0.337-0.366,0.605c0,0,0,0.001,0,0.001l2.386,9.642
		L33.381,38.6c-0.241-0.135-0.546-0.049-0.681,0.192c-0.129,0.23-0.057,0.521,0.165,0.664l4.053,2.444c0.009,0,0.018,0,0.027,0.008
		c0.071,0.04,0.15,0.062,0.231,0.064c0.04,0,0.081-0.005,0.12-0.015c0.026-0.009,0.052-0.021,0.076-0.035
		c0.023-0.009,0.046-0.02,0.067-0.032c0.066-0.039,0.123-0.094,0.164-0.159l0,0l2.446-4.043c0.149-0.232,0.081-0.542-0.151-0.691
		c-0.232-0.149-0.542-0.081-0.691,0.151c-0.005,0.007-0.009,0.014-0.013,0.022l-1.824,3.014L35.1,31.03l12.52-3.085
		c0.27-0.056,0.444-0.32,0.388-0.591c-0.056-0.27-0.32-0.444-0.591-0.388C47.405,26.968,47.392,26.971,47.38,26.975z"/>
	<path style="fill:#FFFFFF;" d="M4.33,28.3l2.457,4.037c0.135,0.241,0.439,0.327,0.68,0.192s0.327-0.439,0.192-0.68
		c-0.006-0.011-0.012-0.021-0.019-0.031l-1.829-3.004l9.181,2.24L11.93,43.545c-0.063,0.267,0.101,0.534,0.367,0.6
		c0.039,0.01,0.08,0.015,0.12,0.015c0.23,0,0.43-0.158,0.485-0.381l3.181-12.978c0.032-0.129,0.011-0.265-0.058-0.378
		c-0.069-0.114-0.18-0.195-0.309-0.227l-9.665-2.353l3.012-1.824c0.242-0.133,0.33-0.437,0.197-0.679
		c-0.133-0.242-0.437-0.33-0.679-0.197c-0.012,0.007-0.024,0.014-0.035,0.021L4.5,27.614c-0.114,0.069-0.196,0.18-0.228,0.309
		c-0.015,0.066-0.018,0.134-0.007,0.2C4.275,28.186,4.297,28.246,4.33,28.3z"/>
	<path style="fill:#FFFFFF;" d="M25.323,35.638c-0.195-0.195-0.511-0.195-0.706,0l-7.086,6.974l0.024-3.518
		c0-0.276-0.224-0.5-0.5-0.5l0,0c-0.276,0-0.5,0.224-0.5,0.5l-0.032,4.723l0,0c0,0.007,0,0.014,0,0.021
		c0.001,0.057,0.012,0.114,0.032,0.168c0.022,0.052,0.053,0.099,0.092,0.14c0.005,0.009,0.01,0.017,0.016,0.025l0,0
		c0.047,0.047,0.102,0.085,0.164,0.11c0.063,0.013,0.126,0.026,0.189,0.039l4.734,0.032l0,0c0.276,0,0.5-0.224,0.5-0.5
		s-0.224-0.5-0.5-0.5l-3.526-0.024l6.738-6.628l9.055,9.156c0.206,0.183,0.522,0.165,0.706-0.042
		c0.166-0.187,0.168-0.468,0.005-0.658L25.323,35.638z"/>
	<path style="fill:#FFFFFF;" d="M15.8,19.9c0.064-0.116,0.079-0.253,0.042-0.381L13.059,9.99l3.092,1.7
		c0.239,0.138,0.545,0.056,0.683-0.184c0.138-0.239,0.056-0.545-0.184-0.683c-0.006-0.004-0.013-0.007-0.019-0.01l-4.143-2.276
		c-0.06-0.034-0.126-0.055-0.194-0.062c-0.039-0.001-0.078,0.002-0.116,0.01c-0.025,0.001-0.051,0.003-0.076,0.007
		c-0.024,0.01-0.047,0.022-0.069,0.036c-0.095,0.033-0.174,0.101-0.219,0.191l-0.01,0.012l-2.28,4.14
		c-0.137,0.24-0.054,0.545,0.185,0.682c0.24,0.137,0.545,0.054,0.682-0.185c0.003-0.005,0.006-0.01,0.008-0.015l1.7-3.085
		l2.64,9.053L2.361,22.914c-0.265,0.077-0.417,0.355-0.34,0.62c0.062,0.213,0.257,0.36,0.479,0.36c0.047,0,0.094-0.007,0.139-0.02
		L15.5,20.142C15.628,20.105,15.736,20.018,15.8,19.9z"/>
</g>
</svg>
