<svg id="b2c38c87-1d26-4d73-a53b-97a48b3adafb" data-name="Icons" xmlns="http://www.w3.org/2000/svg" viewBox="0 0 50 50"><path d="M40.353,15.74l-11-11a.5.5,0,0,0-.162-.108A.481.481,0,0,0,29,4.594H10a.5.5,0,0,0-.5.5v40a.5.5,0,0,0,.5.5H40a.5.5,0,0,0,.5-.5v-29a.508.508,0,0,0-.039-.193A.491.491,0,0,0,40.353,15.74ZM29.5,6.3l9.293,9.293H29.5Zm-19,38.293v-39h18v10.5a.5.5,0,0,0,.5.5H39.5v28Z"/><path d="M35,23.594H15a.5.5,0,0,0,0,1H35a.5.5,0,0,0,0-1Z"/><path d="M35,27.594H15a.5.5,0,0,0,0,1H35a.5.5,0,0,0,0-1Z"/><path d="M35,31.594H15a.5.5,0,0,0,0,1H35a.5.5,0,0,0,0-1Z"/><path d="M35,35.594H15a.5.5,0,0,0,0,1H35a.5.5,0,0,0,0-1Z"/><path d="M25,39.594H15a.5.5,0,0,0,0,1H25a.5.5,0,0,0,0-1Z"/></svg>