<?xml version="1.0" encoding="utf-8"?>
<!-- Generator: Adobe Illustrator 25.2.3, SVG Export Plug-In . SVG Version: 6.00 Build 0)  -->
<svg version="1.1" id="bd3dacb0-0de8-4939-b309-e3568215a879"
	 xmlns="http://www.w3.org/2000/svg" xmlns:xlink="http://www.w3.org/1999/xlink" x="0px" y="0px" viewBox="0 0 50 50"
	 style="enable-background:new 0 0 50 50;" xml:space="preserve">
<path style="fill:#1D9CD3;" d="M40.353,15.74l-11-11c-0.046-0.046-0.101-0.083-0.162-0.108C29.131,4.606,29.066,4.594,29,4.594H10
	c-0.276,0-0.5,0.224-0.5,0.5v40c0,0.276,0.224,0.5,0.5,0.5h30c0.276,0,0.5-0.224,0.5-0.5v-29c0-0.066-0.014-0.132-0.039-0.193
	C40.436,15.841,40.399,15.786,40.353,15.74z M29.5,6.3l9.293,9.293H29.5V6.3z M10.5,44.593v-39h18v10.5c0,0.276,0.224,0.5,0.5,0.5
	h10.5v28H10.5z"/>
<path style="fill:#1D9CD3;" d="M22.08,26.46c-0.148-0.251-0.471-0.334-0.722-0.185c-0.001,0.001-0.003,0.002-0.004,0.002
	l-5.625,3.363c-0.251,0.149-0.333,0.474-0.184,0.725c0.045,0.076,0.108,0.139,0.184,0.184l5.625,3.363
	c0.252,0.151,0.578,0.069,0.729-0.183c0.151-0.252,0.069-0.578-0.183-0.729l-4.864-2.908l4.864-2.906
	C22.149,27.034,22.23,26.71,22.08,26.46z"/>
<path style="fill:#1D9CD3;" d="M28.646,26.277c-0.251-0.15-0.576-0.068-0.726,0.184s-0.068,0.576,0.184,0.726l4.864,2.908L28.1,33
	c-0.245,0.16-0.315,0.488-0.155,0.733c0.151,0.232,0.454,0.309,0.697,0.177l5.625-3.363c0.251-0.149,0.333-0.474,0.184-0.725
	c-0.045-0.076-0.108-0.139-0.184-0.184L28.646,26.277z"/>
<path style="fill:#1D9CD3;" d="M26.293,26.229c-0.277-0.092-0.576,0.057-0.67,0.334l-2.25,6.726
	c-0.092,0.277,0.057,0.577,0.334,0.67c0.054,0.019,0.111,0.028,0.168,0.028c0.227-0.001,0.428-0.147,0.5-0.362l2.25-6.726
	C26.718,26.622,26.569,26.323,26.293,26.229z"/>
</svg>
