<svg id="ea251ae7-eff8-4d14-b910-5166b588ff41" data-name="Icons" xmlns="http://www.w3.org/2000/svg" viewBox="0 0 50 50"><path d="M33.25,36.6a.5.5,0,0,0,.5-.5V20.024h0a.5.5,0,0,0-.175-.38l-6.4-5.909a.489.489,0,0,0-.323-.133.141.141,0,0,0-.02,0H16.75a.5.5,0,0,0-.5.5v22a.5.5,0,0,0,.5.5ZM27.333,15.243l4.638,4.281H27.333ZM17.25,14.6h9.083v5.423a.5.5,0,0,0,.5.5H32.75V35.6H17.25Z"/><path d="M46.47,38.416l-5.964.091A20.531,20.531,0,0,0,12.8,8.568a.5.5,0,1,0,.594.8A19.533,19.533,0,0,1,39.883,37.7l-.109-5.759a.5.5,0,0,0-1,.02l.133,7.021a.492.492,0,0,0,.145.391l0,0a.5.5,0,0,0,.353.146h.008l7.069-.108a.5.5,0,0,0,.493-.508A.467.467,0,0,0,46.47,38.416Z"/><path d="M36.592,40.814A19.533,19.533,0,0,1,10.116,12.466l.11,5.792a.5.5,0,0,0,.5.491h.009a.5.5,0,0,0,.491-.509l-.134-7.071a.483.483,0,0,0-.326-.464.511.511,0,0,0-.229-.026l-7.022.109a.5.5,0,0,0-.493.507.482.482,0,0,0,.508.493L9.463,11.7A20.525,20.525,0,0,0,37.186,41.619a.5.5,0,0,0-.594-.8Z"/></svg>