<svg id="Icons" xmlns="http://www.w3.org/2000/svg" viewBox="0 0 128 128"><defs><style>.cls-1{fill:none;stroke:#1d9cd3;stroke-linecap:round;stroke-linejoin:round;stroke-width:3px;}</style></defs><title>document-with-circular-arrow-and-infinity-tall_1D9CD3</title><g id="Group_13231" data-name="Group 13231"><path class="cls-1" d="M64,10.67H24V117.33h80v-78L72.89,10.67V41.78H95.11"/><g id="Group_13230" data-name="Group 13230"><path id="Path_61040" data-name="Path 61040" class="cls-1" d="M84.67,91.89a26.24,26.24,0,1,1,4.77-16.23,27.39,27.39,0,0,1-1.89,11"/><path class="cls-1" d="M95.55,83.67,87.44,87l-3.33-8.11"/></g></g><path class="cls-1" d="M60.41,81.09a7.27,7.27,0,0,1-5.58,2.23c-4.17,0-7.55-2.81-7.55-6.27s3.38-6.28,7.55-6.28a8,8,0,0,1,7,3.83c.92,1.36,1.84,3,3.09,4.71s3.84,4,7.05,4c4.17,0,7.55-2.81,7.55-6.27s-3.38-6.28-7.55-6.28A7.42,7.42,0,0,0,66.4,73"/></svg>