<?xml version="1.0" encoding="utf-8"?>
<!-- Generator: Adobe Illustrator 25.2.3, SVG Export Plug-In . SVG Version: 6.00 Build 0)  -->
<svg version="1.1" id="b2c38c87-1d26-4d73-a53b-97a48b3adafb"
	 xmlns="http://www.w3.org/2000/svg" xmlns:xlink="http://www.w3.org/1999/xlink" x="0px" y="0px" viewBox="0 0 50 50"
	 style="enable-background:new 0 0 50 50;" xml:space="preserve">
<path style="fill:#FFFFFF;" d="M40.353,15.74l-11-11c-0.046-0.046-0.101-0.083-0.162-0.108C29.131,4.606,29.066,4.594,29,4.594H10
	c-0.276,0-0.5,0.224-0.5,0.5v40c0,0.276,0.224,0.5,0.5,0.5h30c0.276,0,0.5-0.224,0.5-0.5v-29c0-0.066-0.014-0.132-0.039-0.193
	C40.436,15.841,40.399,15.786,40.353,15.74z M29.5,6.3l9.293,9.293H29.5V6.3z M10.5,44.593v-39h18v10.5c0,0.276,0.224,0.5,0.5,0.5
	h10.5v28H10.5z"/>
<path style="fill:#FFFFFF;" d="M35,23.594H15c-0.276,0-0.5,0.224-0.5,0.5s0.224,0.5,0.5,0.5h20c0.276,0,0.5-0.224,0.5-0.5
	S35.276,23.594,35,23.594z"/>
<path style="fill:#FFFFFF;" d="M35,27.594H15c-0.276,0-0.5,0.224-0.5,0.5s0.224,0.5,0.5,0.5h20c0.276,0,0.5-0.224,0.5-0.5
	S35.276,27.594,35,27.594z"/>
<path style="fill:#FFFFFF;" d="M35,31.594H15c-0.276,0-0.5,0.224-0.5,0.5c0,0.276,0.224,0.5,0.5,0.5h20c0.276,0,0.5-0.224,0.5-0.5
	S35.276,31.594,35,31.594z"/>
<path style="fill:#FFFFFF;" d="M35,35.594H15c-0.276,0-0.5,0.224-0.5,0.5s0.224,0.5,0.5,0.5h20c0.276,0,0.5-0.224,0.5-0.5
	S35.276,35.594,35,35.594z"/>
<path style="fill:#FFFFFF;" d="M25,39.594H15c-0.276,0-0.5,0.224-0.5,0.5s0.224,0.5,0.5,0.5h10c0.276,0,0.5-0.224,0.5-0.5
	S25.276,39.594,25,39.594z"/>
</svg>
