<?xml version="1.0" encoding="utf-8"?>
<!-- Generator: Adobe Illustrator 25.2.3, SVG Export Plug-In . SVG Version: 6.00 Build 0)  -->
<svg version="1.1" id="f24d41a3-378f-40e8-a755-a10a53a5c45b"
	 xmlns="http://www.w3.org/2000/svg" xmlns:xlink="http://www.w3.org/1999/xlink" x="0px" y="0px" viewBox="0 0 50 50"
	 style="enable-background:new 0 0 50 50;" xml:space="preserve">
<path style="fill:#1D9CD3;" d="M40.353,15.74l-11-11c-0.046-0.046-0.101-0.083-0.162-0.108C29.131,4.606,29.066,4.594,29,4.594H10
	c-0.276,0-0.5,0.224-0.5,0.5v40c0,0.276,0.224,0.5,0.5,0.5h30c0.276,0,0.5-0.224,0.5-0.5v-29c0-0.066-0.014-0.132-0.039-0.193
	C40.436,15.841,40.399,15.786,40.353,15.74z M29.5,6.3l9.293,9.293H29.5V6.3z M10.5,44.593v-39h18v10.5c0,0.276,0.224,0.5,0.5,0.5
	h10.5v28H10.5z"/>
<path style="fill:#1D9CD3;" d="M20.858,21.543c-0.249,0.12-0.352,0.419-0.232,0.668c0.12,0.249,0.419,0.352,0.668,0.232l0,0
	c4.252-2.086,9.389-0.33,11.475,3.922c2.086,4.252,0.33,9.389-3.922,11.475s-9.389,0.33-11.475-3.922
	c-1.577-3.214-0.991-7.069,1.469-9.669l-0.02,1.862c-0.003,0.276,0.218,0.503,0.494,0.506c0,0,0,0,0,0h0.006
	c0.276,0,0.5-0.224,0.5-0.5l0.032-3.029c-0.003-0.023-0.007-0.046-0.013-0.068c-0.002-0.034-0.009-0.068-0.019-0.1
	c-0.013-0.031-0.028-0.061-0.046-0.09c-0.009-0.022-0.02-0.042-0.033-0.062c-0.005-0.007-0.013-0.01-0.019-0.016
	s-0.009-0.016-0.015-0.023c-0.02-0.015-0.04-0.028-0.061-0.041c-0.026-0.021-0.054-0.039-0.083-0.055
	c-0.026-0.011-0.053-0.02-0.08-0.025c-0.035-0.011-0.071-0.019-0.107-0.022c-0.008,0-0.016-0.005-0.024-0.005l0,0l-3,0.005
	c-0.276,0-0.5,0.224-0.5,0.5c-0.003,0.273,0.215,0.497,0.488,0.5c0.004,0,0.008,0,0.012,0h1.736
	c-3.598,3.813-3.424,9.821,0.39,13.419c1.509,1.424,3.443,2.314,5.505,2.535c0.343,0.037,0.689,0.056,1.034,0.056
	c5.247-0.014,9.489-4.279,9.475-9.525s-4.279-9.489-9.525-9.475C23.544,20.6,22.14,20.923,20.858,21.543z"/>
</svg>
