<?xml version="1.0" encoding="utf-8"?>
<!-- Generator: Adobe Illustrator 25.2.3, SVG Export Plug-In . SVG Version: 6.00 Build 0)  -->
<svg version="1.1" id="a8d66956-6ab3-42c0-8e07-2cfa28113ae5"
	 xmlns="http://www.w3.org/2000/svg" xmlns:xlink="http://www.w3.org/1999/xlink" x="0px" y="0px" viewBox="0 0 50 50"
	 style="enable-background:new 0 0 50 50;" xml:space="preserve">
<path style="fill:#1D9CD3;" d="M30.979,38.272L25.434,43.8V29.54c0-0.276-0.224-0.5-0.5-0.5s-0.5,0.224-0.5,0.5V43.8l-5.544-5.528
	c-0.192-0.198-0.509-0.203-0.707-0.01c-0.198,0.192-0.203,0.509-0.01,0.707c0.004,0.004,0.008,0.008,0.012,0.012l6.394,6.372l0,0
	l0.009,0.006c0.044,0.043,0.096,0.077,0.153,0.1c0.122,0.05,0.259,0.05,0.381,0c0.057-0.023,0.109-0.057,0.153-0.1l0.009-0.006l0,0
	l6.4-6.372c0.192-0.198,0.188-0.515-0.01-0.707C31.481,38.086,31.173,38.085,30.979,38.272z"/>
<path style="fill:#1D9CD3;" d="M22.1,21.949c0-0.276-0.224-0.5-0.5-0.5s-0.5,0.224-0.5,0.5c-0.112,1.93,1.362,3.585,3.292,3.696
	c0.027,0.002,0.053,0.003,0.08,0.004v1.016c0,0.276,0.224,0.5,0.5,0.5s0.5-0.224,0.5-0.5v-0.987c2.818-0.17,3.36-1.812,3.422-2.814
	c0.106-1.744-0.906-2.684-3.422-3.193v-3.809c2.048,0.192,2.121,1.438,2.167,2.286v0.01c-0.003,0.257,0.204,0.468,0.461,0.471
	c0.022,0,0.043-0.001,0.065-0.004c0.276-0.018,0.486-0.255,0.472-0.531c-0.046-0.84-0.168-2.994-3.166-3.235V14.4
	c0-0.276-0.224-0.5-0.5-0.5s-0.5,0.224-0.5,0.5v0.465c-0.857,0.008-1.681,0.328-2.319,0.9c-0.488,0.502-0.752,1.18-0.734,1.88
	c0.018,1.395,0.557,2.313,3.053,2.827v4.165c-1.373-0.061-2.437-1.223-2.377-2.596C22.096,22.01,22.098,21.979,22.1,21.949z
	 M27.9,22.8c-0.071,1.139-0.892,1.763-2.424,1.87v-3.989C27.987,21.228,27.937,22.094,27.9,22.8z M22.423,17.632
	c-0.013-0.43,0.148-0.848,0.447-1.158c0.444-0.392,1.014-0.612,1.606-0.619v3.61c-2.035-0.452-2.049-1.121-2.058-1.833H22.423z"/>
<path style="fill:#1D9CD3;" d="M25,4.5C16.163,4.494,8.995,11.653,8.989,20.489C8.984,28.522,14.936,35.314,22.9,36.363
	c0.274,0.036,0.525-0.157,0.562-0.431s-0.157-0.525-0.431-0.562c-8.212-1.089-13.987-8.629-12.898-16.842S18.762,4.542,26.975,5.631
	s13.987,8.629,12.898,16.842c-0.894,6.74-6.209,12.036-12.952,12.905c-0.276,0.017-0.486,0.255-0.469,0.531
	c0.017,0.276,0.255,0.486,0.531,0.469c0.022,0.001,0.043,0.001,0.065,0c8.769-1.088,14.996-9.079,13.908-17.849
	C39.957,10.487,33.104,4.461,25,4.5z"/>
</svg>
