<svg xmlns="http://www.w3.org/2000/svg" viewBox="0 0 50 50"><g id="e88ba624-4395-4086-b55f-057cc8ef1b69" data-name="Isolation Mode"><path d="M5,33.035h7.256a.5.5,0,0,0,0-1H5.5V10.425l16.99,8.458.034.015a6.544,6.544,0,0,0,2.465.484,6.694,6.694,0,0,0,2.521-.5L44.5,10.425v21.61H37.543a.5.5,0,0,0,0,1H45a.5.5,0,0,0,.5-.5V8.69c0-.013-.006-.023-.007-.036a2.066,2.066,0,0,0-2.087-2.021H6.594A2.069,2.069,0,0,0,4.63,8a2.036,2.036,0,0,0-.119.7.5.5,0,0,0-.011.056V32.535A.5.5,0,0,0,5,33.035ZM5.568,8.34a1.067,1.067,0,0,1,1.026-.707H43.406a1.067,1.067,0,0,1,1.026.707,1.039,1.039,0,0,1-.269,1.136L27.1,17.972a5.555,5.555,0,0,1-4.181.007L5.837,9.476A1.039,1.039,0,0,1,5.568,8.34Z"/><path d="M13.9,32.367a11,11,0,1,0,11-11A11.012,11.012,0,0,0,13.9,32.367Zm21,0a10,10,0,1,1-10-10A10.011,10.011,0,0,1,34.9,32.367Z"/><path d="M23.344,25.731A1.557,1.557,0,1,0,24.9,24.178,1.557,1.557,0,0,0,23.344,25.731Zm1.556-.553a.554.554,0,1,1-.556.553A.556.556,0,0,1,24.9,25.178Z"/><path d="M25.4,28.731v-.474a.5.5,0,1,0-1,0l.007.394a4.319,4.319,0,0,0,1.474,3.409c1.545,1.627,2.419,2.62,2.419,4.107a3.4,3.4,0,0,1-3.4,3.39,3.51,3.51,0,0,1-2.513-1.02,3.156,3.156,0,0,1-.888-2.221,2.931,2.931,0,0,0,.514.724.5.5,0,1,0,.707-.708,5.3,5.3,0,0,1-.894-2.877.5.5,0,0,0-.986-.1,14.823,14.823,0,0,0-.339,2.794,4.206,4.206,0,0,0,1.169,3.081,4.514,4.514,0,0,0,3.23,1.323,4.4,4.4,0,0,0,4.4-4.39c0-1.959-1.248-3.273-2.695-4.8A3.419,3.419,0,0,1,25.4,28.731Z"/></g></svg>