<?xml version="1.0" encoding="utf-8"?>
<!-- Generator: Adobe Illustrator 25.2.3, SVG Export Plug-In . SVG Version: 6.00 Build 0)  -->
<svg version="1.1" id="Layer_1" xmlns="http://www.w3.org/2000/svg" xmlns:xlink="http://www.w3.org/1999/xlink" x="0px" y="0px"
	 viewBox="0 0 50 50" style="enable-background:new 0 0 50 50;" xml:space="preserve">
<g id="e0039138-6522-491a-a9a3-bcc93eca6fcc">
	<path style="fill:#FFFFFF;" d="M27.832,34.8c1.548-0.171,2.665-1.564,2.494-3.112c-0.145-1.313-1.181-2.349-2.494-2.494
		c-1.548,0.171-2.665,1.564-2.494,3.112C25.483,33.619,26.519,34.655,27.832,34.8z M27.832,30.194
		c0.996,0.176,1.66,1.126,1.484,2.122c-0.134,0.757-0.727,1.35-1.484,1.484c-0.996-0.176-1.66-1.126-1.484-2.122
		C26.482,30.921,27.075,30.328,27.832,30.194z"/>
	<path style="fill:#FFFFFF;" d="M24.78,33.543c-0.666,0-1.5,1.333-1.5,1.838c-0.018,0.624,0.472,1.144,1.095,1.165H25.2
		c0.625-0.018,1.118-0.54,1.1-1.165C26.3,34.876,25.453,33.543,24.78,33.543z M25.2,35.543h-0.825c-0.038,0-0.095-0.066-0.1-0.13
		c0.119-0.29,0.288-0.557,0.5-0.788c0.211,0.221,0.385,0.475,0.513,0.753c0.012,0.102-0.05,0.168-0.088,0.168V35.543z"/>
	<path style="fill:#FFFFFF;" d="M24.231,32c0.072-1.465-1.049-2.714-2.513-2.8c-1.548,0.166-2.669,1.555-2.503,3.103
		c0.141,1.32,1.184,2.362,2.503,2.503C23.185,34.721,24.307,33.467,24.231,32z M21.718,33.8c-0.996-0.173-1.663-1.12-1.49-2.116
		c0.132-0.761,0.728-1.358,1.49-1.49c0.996,0.176,1.66,1.126,1.484,2.122C23.068,33.073,22.475,33.666,21.718,33.8z"/>
	<path style="fill:#FFFFFF;" d="M22.143,24.727c-2.694,1.027-4.612,3.443-5,6.3c-0.364,1.696,0.034,3.467,1.09,4.843
		c0.747,0.813,1.757,1.337,2.852,1.48v2.165c0,0.949,2.023,1.148,3.721,1.148s3.721-0.2,3.721-1.2v-2.11
		c1.096-0.143,2.106-0.667,2.854-1.481c1.056-1.376,1.456-3.146,1.092-4.842c-0.388-2.857-2.306-5.273-5-6.3
		C25.771,24.005,23.846,24.004,22.143,24.727z M31.479,31.158c0.316,1.407,0.009,2.882-0.843,4.045
		c-0.683,0.722-1.619,1.151-2.612,1.197c-0.276,0-0.5,0.224-0.5,0.5v2.439c-0.301,0.109-0.614,0.181-0.932,0.217v-2.018
		c0-0.276-0.224-0.5-0.5-0.5s-0.5,0.224-0.5,0.5v2.106c-0.245,0.013-0.5,0.022-0.789,0.022s-0.544-0.009-0.788-0.022v-2.106
		c0-0.276-0.224-0.5-0.5-0.5s-0.5,0.224-0.5,0.5v2.014c-0.318-0.036-0.632-0.108-0.933-0.217V36.9c0-0.276-0.224-0.5-0.5-0.5
		c-0.992-0.048-1.926-0.478-2.607-1.2c-0.851-1.164-1.158-2.639-0.842-4.046c0.326-2.513,2.022-4.636,4.4-5.509
		c1.455-0.619,3.099-0.619,4.554,0C29.463,26.521,31.156,28.646,31.479,31.158z"/>
	<path style="fill:#FFFFFF;" d="M5,33.035h7.256c0.276,0,0.5-0.224,0.5-0.5s-0.224-0.5-0.5-0.5H5.5v-21.61l16.99,8.458l0.034,0.015
		c0.783,0.319,1.62,0.483,2.465,0.484c0.865-0.002,1.721-0.172,2.521-0.5l16.99-8.457v21.61h-6.957c-0.276,0-0.5,0.224-0.5,0.5
		s0.224,0.5,0.5,0.5H45c0.276,0,0.5-0.224,0.5-0.5V8.69c0-0.013-0.006-0.023-0.007-0.036c-0.025-1.132-0.955-2.033-2.087-2.021
		H6.594C5.716,6.625,4.928,7.174,4.63,8C4.55,8.225,4.509,8.461,4.511,8.7C4.506,8.718,4.503,8.737,4.5,8.756v23.779
		C4.5,32.811,4.724,33.035,5,33.035z M5.568,8.34c0.155-0.432,0.568-0.716,1.026-0.707h36.812c0.458-0.009,0.871,0.275,1.026,0.707
		c0.152,0.398,0.045,0.848-0.269,1.136L27.1,17.972c-1.34,0.547-2.84,0.549-4.181,0.007L5.837,9.476
		C5.523,9.188,5.416,8.738,5.568,8.34z"/>
	<path style="fill:#FFFFFF;" d="M13.9,32.367c0,6.075,4.925,11,11,11s11-4.925,11-11s-4.925-11-11-11
		C18.828,21.374,13.907,26.295,13.9,32.367z M34.9,32.367c0,5.523-4.477,10-10,10s-10-4.477-10-10s4.477-10,10-10
		C30.42,22.373,34.894,26.847,34.9,32.367z"/>
</g>
</svg>
