<svg viewBox="0 0 128 128" xmlns="http://www.w3.org/2000/svg"><path d="m79.46 49.75v-23.61l20.93-11.85 20.93 11.85v23.71l-20.93 11.75zm20.93-39-24 13.56v27.25l24 13.57 23.82-13.47v-27.43z"/><path d="m45.93 119.17-42.72-24v-48.31l42.72-24.13 25.31 14.2v8.12l-25.31-14.2-35.67 20.08v40.07l35.67 20 35.67-20v-29.51l7.05 4.06v29.59z"/><path d="m25.42 86.48h5.34v-13.48h11.24v-4.57h-11.35v-7.69h12.61v-4.69h-17.84zm23.51-6.84-3.85 3.19a13.68 13.68 0 0 0 10.15 4.59 10.82 10.82 0 0 0 11.31-10.31c0-.16 0-.32 0-.47a10.24 10.24 0 0 0 -9.89-10.57 8.68 8.68 0 0 0 -1 0 29.35 29.35 0 0 0 -3 .21l.35-5.28h10.44l1.56-4.95h-16.51l-.64 16.12a14 14 0 0 1 6.41-1.7 6.33 6.33 0 0 1 6.91 5.7 4 4 0 0 1 0 .49 5.92 5.92 0 0 1 -5.94 5.88h-.15a9.27 9.27 0 0 1 -6.18-2.88"/><path d="m86.4 42.48h5.23v-1.38h-3.73v-7.37h-1.5zm7.58 0 .75-1.59h4l.75 1.59h1.52l-4.16-9.07h-.11l-4.27 9.07zm1.29-2.77 1.49-3.31 1.39 3.31zm6.84 2.77h2.35c2.25 0 3.31-.85 3.31-2.56a2.07 2.07 0 0 0 -1.59-2.14 1.78 1.78 0 0 0 1.38-1.78c0-1.5-1-2.24-2.88-2.24h-2.58zm1.5-5.12v-2.46h.85c1.18 0 1.71.32 1.71 1.18s-.64 1.28-1.6 1.28zm0 4v-2.83h1c1.06 0 1.59.54 1.59 1.28a1.4 1.4 0 0 1 -1.42 1.4h-1.24z"/><path d="m113.74 33.83a3.49 3.49 0 0 0 -1.39-.32 2.7 2.7 0 0 0 -1.82.64 1.92 1.92 0 0 0 -.75 1.6 1.74 1.74 0 0 0 .11.75 2.29 2.29 0 0 0 .42.64 3.06 3.06 0 0 0 .65.54 4.78 4.78 0 0 0 1.06.53 4.64 4.64 0 0 1 1.07.53 1.26 1.26 0 0 1 .53.54 1.49 1.49 0 0 1 .22.75 1 1 0 0 1 -.43 1 1.87 1.87 0 0 1 -1.07.42 2 2 0 0 1 -1.92-1.45l-1.17.32a3.54 3.54 0 0 0 1.28 1.7 2.93 2.93 0 0 0 1.92.54 2.54 2.54 0 0 0 1.92-.75 2.35 2.35 0 0 0 .75-1.83 1.9 1.9 0 0 0 -.11-.85 1.7 1.7 0 0 0 -.42-.75 5.08 5.08 0 0 0 -.75-.64 7 7 0 0 0 -1.28-.64 3.76 3.76 0 0 1 -1.18-.64.92.92 0 0 1 -.32-.64.81.81 0 0 1 .43-.75 1.58 1.58 0 0 1 1.07-.32 1.68 1.68 0 0 1 .85.21 2.78 2.78 0 0 1 .64.54l1-.75a3.28 3.28 0 0 0 -1.28-1"/></svg>