<?xml version="1.0" encoding="utf-8"?>
<!-- Generator: Adobe Illustrator 25.2.3, SVG Export Plug-In . SVG Version: 6.00 Build 0)  -->
<svg version="1.1" id="Layer_1" xmlns="http://www.w3.org/2000/svg" xmlns:xlink="http://www.w3.org/1999/xlink" x="0px" y="0px"
	 viewBox="0 0 50 50" style="enable-background:new 0 0 50 50;" xml:space="preserve">
<g id="f3da0501-e773-4b75-a765-015ad15412e4">
	<path style="fill:#FFFFFF;" d="M12.2,23.5h8.6c1.491,0,2.7-1.209,2.7-2.7c0,0,0,0,0,0v-8.6c0-1.491-1.209-2.7-2.7-2.7l0,0h-8.6
		c-1.491,0-2.7,1.209-2.7,2.7v8.6C9.5,22.291,10.709,23.5,12.2,23.5L12.2,23.5z M10.5,12.2c0-0.939,0.761-1.7,1.7-1.7h8.6
		c0.939,0,1.7,0.761,1.7,1.7c0,0,0,0,0,0v8.6c0,0.939-0.761,1.7-1.7,1.7h0h-8.6c-0.939,0-1.7-0.761-1.7-1.7l0,0V12.2z"/>
	<path style="fill:#FFFFFF;" d="M12.2,40.5h8.6c1.491,0,2.7-1.209,2.7-2.7l0,0v-8.6c0-1.491-1.209-2.7-2.7-2.7c0,0,0,0,0,0h-8.6
		c-1.491,0-2.7,1.209-2.7,2.7l0,0v8.6C9.5,39.291,10.709,40.5,12.2,40.5z M10.5,29.2c0-0.939,0.761-1.7,1.7-1.7c0,0,0,0,0,0h8.6
		c0.939,0,1.7,0.761,1.7,1.7v0v8.6c0,0.939-0.761,1.7-1.7,1.7h0h-8.6c-0.939,0-1.7-0.761-1.7-1.7l0,0V29.2z"/>
	<path style="fill:#FFFFFF;" d="M29.2,23.5h8.6c1.491,0,2.7-1.209,2.7-2.7c0,0,0,0,0,0v-8.6c0-1.491-1.209-2.7-2.7-2.7l0,0h-8.6
		c-1.491,0-2.7,1.209-2.7,2.7l0,0v8.6C26.5,22.291,27.709,23.5,29.2,23.5C29.2,23.5,29.2,23.5,29.2,23.5z M27.5,12.2
		c0-0.939,0.761-1.7,1.7-1.7l0,0h8.6c0.939,0,1.7,0.761,1.7,1.7c0,0,0,0,0,0v8.6c0,0.939-0.761,1.7-1.7,1.7l0,0h-8.6
		c-0.939,0-1.7-0.761-1.7-1.7v0V12.2z"/>
	<path style="fill:#FFFFFF;" d="M29.2,40.5h8.6c1.491,0,2.7-1.209,2.7-2.7l0,0v-8.6c0-1.491-1.209-2.7-2.7-2.7l0,0h-8.6
		c-1.491,0-2.7,1.209-2.7,2.7l0,0v8.6C26.5,39.291,27.709,40.5,29.2,40.5z M27.5,29.2c0-0.939,0.761-1.7,1.7-1.7h0h8.6
		c0.939,0,1.7,0.761,1.7,1.7v0v8.6c0,0.939-0.761,1.7-1.7,1.7l0,0h-8.6c-0.939,0-1.7-0.761-1.7-1.7l0,0V29.2z"/>
	<path style="fill:#FFFFFF;" d="M13.52,45.5h22.96c4.979-0.006,9.014-4.041,9.02-9.02V13.52c-0.006-4.979-4.041-9.014-9.02-9.02
		H13.52C8.541,4.506,4.506,8.541,4.5,13.52v22.96C4.506,41.459,8.541,45.494,13.52,45.5z M5.5,13.52
		c0.005-4.427,3.593-8.015,8.02-8.02h22.96c4.427,0.005,8.015,3.593,8.02,8.02v22.96c-0.005,4.427-3.593,8.015-8.02,8.02H13.52
		c-4.427-0.005-8.015-3.593-8.02-8.02V13.52z"/>
</g>
</svg>
