<svg viewBox="0 0 128 128" xmlns="http://www.w3.org/2000/svg"><path d="m32.57 118.76h62.86a23.34 23.34 0 0 0 23.33-23.33v-62.86a23.34 23.34 0 0 0 -23.33-23.33h-62.86a23.34 23.34 0 0 0 -23.33 23.33v62.86a23.34 23.34 0 0 0 23.33 23.33z" fill="#f1f1f1"/><path d="m37.13 68.72h9.51c3.54 0 5.51 2.2 5.51 4.93a4.34 4.34 0 0 1 -3.37 4.43 4.76 4.76 0 0 1 3.74 4.76c0 3-2 5.22-5.62 5.22h-9.77zm8.81 8a2.51 2.51 0 1 0 0-5h-5.42v5zm.15 8.35c1.85 0 3-1 3-2.7a2.66 2.66 0 0 0 -3-2.66h-5.57v5.36z" fill="#8b5ba5"/><path d="m62.06 73.71c4.2 0 6.9 3.21 6.9 7.62v.73h-10.81a4.23 4.23 0 0 0 4.46 3.85 5.9 5.9 0 0 0 4-1.54l1.4 2a8.15 8.15 0 0 1 -5.69 2 7.35 7.35 0 0 1 -.23-14.69zm-3.94 6.2h7.88a3.73 3.73 0 0 0 -3.94-3.71 3.86 3.86 0 0 0 -3.94 3.71z" fill="#8b5ba5"/><path d="m72.15 84a7.24 7.24 0 0 0 4.75 2c1.83 0 2.76-.67 2.76-1.71 0-1.22-1.48-1.65-3.19-2-2.41-.52-5.28-1.16-5.28-4.29 0-2.29 2-4.26 5.51-4.26a8 8 0 0 1 5.45 2l-1.27 2.14a5.7 5.7 0 0 0 -4.15-1.68c-1.6 0-2.61.58-2.61 1.57s1.39 1.45 3 1.82c2.44.53 5.43 1.22 5.43 4.53 0 2.46-2.06 4.34-5.83 4.34a8.51 8.51 0 0 1 -6-2.17z" fill="#8b5ba5"/><path d="m86.27 84.81v-8.09h-2.27v-2.67h2.32v-3.82h3v3.82h2.84v2.67h-2.85v7.34c0 1 .46 1.65 1.33 1.65a2 2 0 0 0 1.36-.49l.72 2.29a4 4 0 0 1 -2.87.89 3.22 3.22 0 0 1 -3.58-3.59z" fill="#8b5ba5"/><g fill="#1d9cd3"><path d="m26.24 38.12h9.51c3.54 0 5.51 2.2 5.51 4.92a4.34 4.34 0 0 1 -3.36 4.44 4.76 4.76 0 0 1 3.74 4.75c0 3-2 5.22-5.63 5.22h-9.77zm8.82 8a2.52 2.52 0 1 0 0-5h-5.43v5zm.14 8.35c1.86 0 3-1 3-2.7a2.66 2.66 0 0 0 -3-2.67h-5.57v5.37z"/><path d="m51.17 43.1c4.21 0 6.9 3.22 6.9 7.63v.72h-10.81a4.24 4.24 0 0 0 4.47 3.86 5.92 5.92 0 0 0 4-1.54l1.39 2a8.13 8.13 0 0 1 -5.68 2 7 7 0 0 1 -7.34-7.36 7.08 7.08 0 0 1 7.07-7.31zm-3.94 6.21h7.89a3.74 3.74 0 0 0 -3.95-3.71 3.87 3.87 0 0 0 -3.94 3.71z"/><path d="m61.7 54.21v-8.09h-2.32v-2.67h2.32v-3.83h3v3.83h2.84v2.67h-2.8v7.33c0 1 .46 1.66 1.33 1.66a2 2 0 0 0 1.37-.5l.72 2.29a4 4 0 0 1 -2.87.9 3.22 3.22 0 0 1 -3.59-3.59z"/><path d="m70.94 54.21v-8.09h-2.32v-2.67h2.32v-3.83h3v3.83h2.84v2.67h-2.78v7.33c0 1 .46 1.66 1.33 1.66a2 2 0 0 0 1.36-.5l.73 2.29a4 4 0 0 1 -2.87.9c-2.36 0-3.61-1.27-3.61-3.59z"/><path d="m85.82 43.1c4.2 0 6.89 3.22 6.89 7.63v.72h-10.81a4.24 4.24 0 0 0 4.47 3.86 5.92 5.92 0 0 0 4-1.54l1.39 2a8.13 8.13 0 0 1 -5.68 2 7 7 0 0 1 -7.34-7.36 7.08 7.08 0 0 1 7.08-7.31zm-3.95 6.21h7.89a3.74 3.74 0 0 0 -3.94-3.71 3.87 3.87 0 0 0 -3.95 3.71z"/><path d="m95.73 43.45h3v2.06a6 6 0 0 1 4.55-2.38v3a4.31 4.31 0 0 0 -.95-.09 4.83 4.83 0 0 0 -3.6 1.86v9.53h-3z"/></g></svg>