<?xml version="1.0" encoding="utf-8"?>
<!-- Generator: Adobe Illustrator 25.2.3, SVG Export Plug-In . SVG Version: 6.00 Build 0)  -->
<svg version="1.1" id="Layer_1" xmlns="http://www.w3.org/2000/svg" xmlns:xlink="http://www.w3.org/1999/xlink" x="0px" y="0px"
	 viewBox="0 0 50 50" style="enable-background:new 0 0 50 50;" xml:space="preserve">
<g id="b15bbf71-4228-4ae5-843c-d8ac37b2d9ad">
	<path style="fill:#FFFFFF;" d="M33.905,19.441L33.905,19.441c-0.066-0.105-0.133-0.209-0.2-0.31
		c-1.557-2.293-3.952-3.882-6.67-4.426l-0.127-0.022l0,0c-0.48-0.089-0.966-0.145-1.454-0.167l0,0c-0.3-0.012-0.6-0.012-0.9,0
		h-0.006c-0.459,0.02-0.915,0.074-1.366,0.159c-0.024-0.001-0.048-0.001-0.072,0c-2.69,0.49-5.08,2.015-6.658,4.248
		c-0.122,0.171-0.236,0.347-0.348,0.524c-2.131,3.4-2.131,7.719,0,11.119c1.487,2.366,3.852,4.046,6.575,4.673h0.019l0.062,0.017
		l0.17,0.037c0.444,0.088,0.892,0.148,1.343,0.18h0.009c0.24,0.016,0.481,0.028,0.726,0.028s0.486-0.012,0.726-0.029l0,0
		c0.536-0.04,1.067-0.121,1.591-0.241c0.008-0.002,0.016-0.005,0.024-0.008c0.015,0,0.03,0,0.045,0
		c2.695-0.643,5.031-2.317,6.506-4.663c2.125-3.402,2.125-7.717,0-11.119L33.905,19.441z M32.734,19.488
		c-0.054,0.022-0.114,0.042-0.17,0.063c-0.115,0.044-0.23,0.087-0.352,0.128c-0.08,0.026-0.165,0.051-0.247,0.077
		c-0.12,0.037-0.24,0.074-0.366,0.11l-0.087,0.023c-0.092-0.246-0.189-0.483-0.288-0.7c-0.009-0.03-0.021-0.06-0.035-0.088
		c-0.008-0.018-0.018-0.035-0.029-0.051c-0.012-0.026-0.027-0.047-0.039-0.072c-0.163-0.343-0.343-0.676-0.541-1
		c-0.044-0.073-0.087-0.147-0.133-0.218c-0.195-0.307-0.408-0.602-0.638-0.883c-0.024-0.029-0.044-0.065-0.068-0.094
		C30.919,17.462,31.94,18.384,32.734,19.488z M30.343,30.408c-0.061,0.139-0.124,0.275-0.19,0.409
		c-0.057,0.115-0.114,0.228-0.174,0.34c-0.07,0.129-0.142,0.254-0.215,0.378c-0.063,0.106-0.127,0.211-0.192,0.313
		c-0.078,0.12-0.16,0.234-0.241,0.348c-0.069,0.095-0.136,0.191-0.207,0.281c-0.087,0.111-0.178,0.215-0.269,0.32
		c-0.071,0.081-0.141,0.166-0.215,0.244c-0.1,0.105-0.205,0.2-0.309,0.3c-0.069,0.065-0.136,0.134-0.207,0.194
		c-0.146,0.125-0.3,0.237-0.448,0.344c-0.063,0.044-0.126,0.086-0.19,0.128c-0.15,0.1-0.3,0.188-0.458,0.268l-0.163,0.035
		c0.027-0.048,0.051-0.112,0.078-0.161c0.1-0.187,0.196-0.387,0.289-0.6c0.04-0.092,0.079-0.183,0.117-0.28
		c0.107-0.273,0.208-0.565,0.3-0.879c0.014-0.044,0.029-0.083,0.042-0.128c0.107-0.365,0.2-0.759,0.293-1.172
		c0.023-0.108,0.044-0.222,0.066-0.333c0.064-0.323,0.124-0.658,0.177-1.007c0.011-0.073,0.027-0.137,0.037-0.212
		c0.418,0.046,0.837,0.09,1.229,0.153c0.057,0.009,0.108,0.02,0.165,0.03c0.311,0.051,0.6,0.116,0.892,0.178
		c-0.02,0.05-0.037,0.1-0.057,0.152C30.447,30.168,30.4,30.288,30.343,30.408z M25,28.348c-0.08,0-0.16,0.008-0.241,0.009
		c-0.357,0-0.707,0.025-1.065,0.04s-0.726,0.013-1.084,0.04c-0.046-0.426-0.091-0.853-0.119-1.294c0-0.043-0.008-0.083-0.01-0.125
		c-0.03-0.5-0.039-1.006-0.045-1.516h5.129c-0.007,0.51-0.016,1.02-0.045,1.516c0,0.042-0.008,0.081-0.011,0.122
		c-0.028,0.441-0.073,0.87-0.119,1.3c-0.139-0.011-0.28-0.02-0.421-0.029C26.33,28.37,25.674,28.349,25,28.348z M22.3,32.255
		c0.017,0.057,0.036,0.106,0.053,0.162c0.092,0.302,0.19,0.585,0.293,0.85c0.039,0.1,0.079,0.193,0.12,0.287
		c0.092,0.215,0.188,0.413,0.287,0.6c0.027,0.051,0.051,0.116,0.079,0.164h-0.018l-0.153-0.033
		c-0.191-0.096-0.375-0.205-0.552-0.324l0,0c-0.19-0.13-0.372-0.27-0.546-0.42c-0.057-0.049-0.111-0.106-0.167-0.157
		c-0.118-0.109-0.236-0.218-0.349-0.338c-0.065-0.069-0.126-0.144-0.19-0.216c-0.1-0.114-0.2-0.228-0.293-0.349
		c-0.064-0.083-0.126-0.171-0.188-0.257c-0.088-0.122-0.175-0.246-0.259-0.376c-0.061-0.093-0.119-0.19-0.177-0.288
		c-0.079-0.132-0.156-0.266-0.23-0.405c-0.055-0.1-0.108-0.208-0.16-0.314c-0.071-0.144-0.14-0.291-0.205-0.442
		c-0.048-0.108-0.094-0.216-0.139-0.327c-0.022-0.055-0.041-0.113-0.063-0.169c0.291-0.062,0.578-0.127,0.886-0.178
		c0.059-0.01,0.114-0.023,0.173-0.032c0.392-0.063,0.81-0.108,1.228-0.153c0.011,0.077,0.027,0.144,0.038,0.22
		c0.053,0.34,0.11,0.667,0.173,0.983c0.024,0.121,0.046,0.244,0.072,0.361C22.1,31.5,22.194,31.894,22.3,32.255z M20.154,18.682
		c0.017-0.028,0.036-0.054,0.052-0.083c0.678-1.249,1.726-2.258,3-2.887l-0.013,0.026c-0.136,0.226-0.257,0.459-0.364,0.7
		c-0.021,0.047-0.039,0.1-0.059,0.143c-0.089,0.209-0.172,0.423-0.249,0.642c-0.03,0.087-0.058,0.173-0.087,0.261
		c-0.062,0.194-0.12,0.386-0.174,0.581c-0.023,0.082-0.047,0.162-0.068,0.243c-0.069,0.265-0.133,0.527-0.187,0.779l0,0
		c-0.084,0.394-0.158,0.822-0.227,1.264c-0.007,0.044-0.016,0.082-0.023,0.126c-0.416-0.045-0.834-0.089-1.225-0.15
		c-0.056-0.009-0.107-0.021-0.162-0.03c-0.3-0.05-0.587-0.113-0.873-0.174c0.1-0.264,0.2-0.536,0.318-0.783
		C19.919,19.111,20.034,18.893,20.154,18.682z M23.713,16.921c0.049-0.113,0.1-0.226,0.149-0.324
		c0.031-0.063,0.062-0.116,0.093-0.173c0.046-0.083,0.092-0.167,0.137-0.239c0.034-0.053,0.067-0.1,0.1-0.146
		s0.085-0.121,0.127-0.172s0.066-0.076,0.1-0.112c0.037-0.041,0.075-0.08,0.116-0.117c0.032-0.027,0.065-0.053,0.1-0.076
		c0.025-0.019,0.052-0.036,0.079-0.052c0.194-0.007,0.388-0.008,0.58,0l0.03,0.016c0.196,0.139,0.364,0.314,0.495,0.515
		c0.624,1.064,1.045,2.234,1.242,3.452l0,0c0.069,0.338,0.122,0.713,0.178,1.08l0,0c-0.717,0.052-1.433,0.079-2.135,0.081
		c-0.141,0-0.272-0.01-0.411-0.011c-0.557,0-1.112-0.014-1.641-0.047l-0.3-0.023l0.024-0.164c0.057-0.354,0.118-0.7,0.185-1.017
		c0.007-0.031,0.012-0.066,0.018-0.1c0.067-0.305,0.136-0.59,0.207-0.855L23.2,18.4c0.067-0.245,0.135-0.473,0.206-0.684
		c0.02-0.059,0.04-0.108,0.06-0.164c0.055-0.157,0.11-0.311,0.166-0.449C23.658,17.04,23.685,16.983,23.713,16.921z M26.992,15.809
		c0.083,0.042,0.167,0.082,0.249,0.129s0.185,0.114,0.277,0.174s0.159,0.1,0.237,0.157s0.18,0.141,0.269,0.213
		s0.15,0.119,0.223,0.184c0.089,0.079,0.174,0.167,0.26,0.253c0.069,0.068,0.14,0.134,0.207,0.206
		c0.086,0.093,0.168,0.194,0.251,0.293c0.063,0.076,0.128,0.147,0.189,0.226c0.085,0.11,0.166,0.229,0.247,0.346
		c0.054,0.077,0.11,0.149,0.162,0.229c0.089,0.137,0.173,0.283,0.257,0.428c0.04,0.068,0.082,0.132,0.12,0.2
		c0.12,0.219,0.235,0.446,0.342,0.681l0.009,0.021c0.082,0.18,0.148,0.377,0.221,0.566c-0.29,0.061-0.575,0.125-0.884,0.176
		c-0.051,0.008-0.1,0.019-0.149,0.027c-0.393,0.062-0.814,0.107-1.234,0.152c-0.006-0.042-0.015-0.08-0.021-0.122
		c-0.051-0.326-0.105-0.644-0.165-0.948c0-0.018-0.007-0.038-0.01-0.056s0-0.02-0.006-0.029v-0.027v-0.024
		c0-0.012,0-0.025-0.008-0.037s-0.011-0.046-0.016-0.069c-0.048-0.231-0.1-0.468-0.165-0.71c-0.019-0.078-0.04-0.154-0.061-0.233
		c-0.06-0.227-0.127-0.453-0.2-0.679c-0.018-0.058-0.034-0.115-0.053-0.172c-0.092-0.273-0.192-0.54-0.3-0.8
		c-0.025-0.06-0.054-0.115-0.081-0.174c-0.09-0.2-0.187-0.388-0.29-0.563c-0.021-0.037-0.038-0.08-0.059-0.116
		C26.863,15.746,26.928,15.777,26.992,15.809z M31.234,22.731v0.026c0.078,0.515,0.129,1.033,0.151,1.553
		c0,0.064,0.006,0.128,0.008,0.192h-2.83c-0.008-0.524-0.029-1.041-0.062-1.552v-0.046c-0.031-0.484-0.072-0.96-0.125-1.429
		c0.446-0.049,0.879-0.107,1.3-0.173h0.026c0.4-0.063,0.781-0.134,1.149-0.214c0.018,0.06,0.035,0.12,0.052,0.18
		C31.041,21.749,31.151,22.238,31.234,22.731z M31.257,27.223v0.038c-0.081,0.502-0.191,0.999-0.329,1.488
		c-0.016,0.059-0.033,0.117-0.05,0.176c-0.365-0.08-0.745-0.151-1.136-0.214c-0.017,0-0.032-0.007-0.049-0.009
		c-0.418-0.067-0.849-0.125-1.294-0.174c0.048-0.448,0.084-0.907,0.113-1.371c0-0.027,0.005-0.052,0.006-0.079
		c0.031-0.518,0.051-1.043,0.057-1.576H31.4c0,0.064,0,0.127-0.007,0.191C31.375,26.205,31.33,26.716,31.257,27.223z M20.244,28.715
		c-0.387,0.063-0.764,0.133-1.125,0.212l-0.051-0.18c-0.136-0.486-0.244-0.98-0.324-1.479l0,0c-0.077-0.521-0.124-1.046-0.143-1.572
		c0-0.063-0.005-0.126-0.007-0.189h2.83c0.006,0.527,0.025,1.049,0.056,1.562c0,0.074,0.013,0.145,0.018,0.219
		c0.028,0.42,0.059,0.839,0.1,1.246c-0.444,0.049-0.876,0.107-1.293,0.174C20.285,28.706,20.266,28.711,20.244,28.715z
		 M18.756,22.757V22.74c0.084-0.498,0.197-0.99,0.337-1.475c0.017-0.06,0.035-0.12,0.052-0.179c0.368,0.08,0.75,0.15,1.144,0.214
		l0.04,0.007c0.415,0.067,0.844,0.124,1.286,0.172c-0.052,0.455-0.091,0.921-0.123,1.393c0,0.026,0,0.052-0.007,0.079
		c-0.033,0.509-0.054,1.027-0.063,1.551H18.6c0-0.064,0-0.129,0.008-0.193C18.629,23.789,18.678,23.271,18.756,22.757z
		 M22.628,21.569l0.358,0.025c0.65,0.041,1.323,0.061,2.011,0.061h0.062c0.739,0,1.493-0.028,2.248-0.082l0.061-0.005
		c0.054,0.473,0.108,0.946,0.139,1.436v0.009c0.032,0.488,0.04,0.99,0.049,1.491h-5.118C22.456,23.493,22.519,22.513,22.628,21.569z
		 M20.279,16.756c-0.01,0.012-0.018,0.027-0.028,0.039c-0.229,0.278-0.442,0.569-0.638,0.872c-0.047,0.071-0.092,0.145-0.138,0.218
		c-0.206,0.33-0.395,0.67-0.566,1.019c-0.153,0.317-0.294,0.648-0.424,0.989l-0.075-0.02c-0.131-0.036-0.255-0.075-0.379-0.113
		c-0.082-0.026-0.167-0.051-0.246-0.078c-0.12-0.04-0.233-0.083-0.346-0.125c-0.057-0.022-0.116-0.042-0.171-0.064
		C18.063,18.374,19.09,17.441,20.279,16.756z M16.723,20.356l0.038,0.014c0.2,0.083,0.406,0.163,0.628,0.239l0.152,0.048
		c0.175,0.058,0.355,0.114,0.544,0.168l0.081,0.025c-0.018,0.061-0.025,0.127-0.043,0.189c-0.149,0.522-0.269,1.053-0.358,1.589
		c0,0.017,0,0.035-0.006,0.052c-0.08,0.534-0.131,1.071-0.154,1.61c0,0.073-0.018,0.143-0.021,0.216h-2.073
		c0.077-1.46,0.492-2.882,1.212-4.154V20.356z M17.58,25.506c0,0.074,0.016,0.144,0.019,0.218c0.02,0.525,0.067,1.049,0.14,1.569
		c0,0.036,0.007,0.073,0.013,0.108c0.085,0.534,0.2,1.063,0.344,1.584c0.017,0.062,0.024,0.127,0.042,0.189
		c-0.14,0.039-0.266,0.082-0.4,0.124c-0.076,0.023-0.155,0.046-0.23,0.071c-0.281,0.093-0.549,0.19-0.792,0.293
		c-0.719-1.275-1.131-2.7-1.206-4.162L17.58,25.506z M17.268,30.526c0.192-0.077,0.384-0.154,0.6-0.225L18,30.258
		c0.143-0.045,0.3-0.086,0.454-0.128c0.036,0.1,0.079,0.189,0.117,0.284c0.046,0.116,0.092,0.231,0.142,0.345
		c0.077,0.177,0.159,0.35,0.243,0.52c0.053,0.108,0.106,0.217,0.162,0.323c0.09,0.167,0.184,0.328,0.28,0.487
		c0.059,0.1,0.116,0.2,0.177,0.293c0.106,0.163,0.218,0.317,0.33,0.471c0.058,0.079,0.113,0.162,0.173,0.239
		c0.013,0.016,0.024,0.035,0.037,0.052c-1.117-0.672-2.086-1.564-2.847-2.622V30.526z M24.508,34.49c-0.032-0.03-0.065-0.06-0.1-0.1
		s-0.067-0.072-0.1-0.115c-0.051-0.062-0.1-0.137-0.154-0.214c-0.034-0.05-0.068-0.1-0.1-0.153c-0.056-0.092-0.112-0.2-0.168-0.308
		c-0.03-0.059-0.061-0.111-0.091-0.174c-0.077-0.162-0.153-0.342-0.228-0.535L23.53,32.8c-0.08-0.213-0.158-0.446-0.234-0.7
		c-0.028-0.092-0.053-0.2-0.08-0.293c-0.05-0.179-0.1-0.36-0.147-0.558c-0.03-0.123-0.057-0.258-0.085-0.388
		c-0.041-0.192-0.082-0.387-0.121-0.595c-0.027-0.147-0.051-0.3-0.077-0.458c-0.019-0.119-0.036-0.245-0.055-0.368
		c0.43-0.032,0.862-0.053,1.3-0.066c0.22-0.007,0.437-0.024,0.657-0.026c0.755-0.007,1.505,0.008,2.22,0.051
		c0.122,0.008,0.24,0.019,0.36,0.027c-0.019,0.127-0.037,0.255-0.056,0.376c-0.026,0.155-0.051,0.312-0.078,0.459
		c-0.039,0.211-0.08,0.409-0.122,0.6c-0.027,0.125-0.053,0.254-0.081,0.372c-0.051,0.213-0.105,0.41-0.159,0.6
		c-0.022,0.079-0.043,0.165-0.066,0.24c-0.203,0.794-0.554,1.542-1.033,2.207c-0.014,0.016-0.027,0.029-0.04,0.045
		c-0.047,0.052-0.096,0.101-0.149,0.147c-0.325,0.023-0.651,0.027-0.976,0.014V34.49z M29.887,33.132
		c0.01-0.013,0.019-0.028,0.03-0.041c0.062-0.08,0.119-0.167,0.179-0.249c0.11-0.15,0.219-0.3,0.323-0.459
		c0.064-0.1,0.124-0.206,0.186-0.31c0.092-0.152,0.183-0.305,0.268-0.465c0.061-0.113,0.117-0.23,0.175-0.347
		c0.079-0.161,0.157-0.324,0.23-0.492c0.053-0.12,0.1-0.242,0.151-0.365c0.036-0.091,0.077-0.179,0.112-0.272
		c0.215,0.06,0.441,0.117,0.636,0.182l0.022,0.008c0.192,0.064,0.353,0.134,0.524,0.2c-0.759,1.052-1.724,1.938-2.836,2.606V33.132z
		 M33.278,29.658c-0.226-0.095-0.473-0.186-0.732-0.274c-0.049-0.016-0.1-0.031-0.154-0.047c-0.175-0.057-0.348-0.113-0.536-0.166
		c0.019-0.063,0.026-0.131,0.043-0.2c0.144-0.517,0.258-1.042,0.342-1.572c0.005-0.028,0.006-0.057,0.01-0.085
		c0.075-0.531,0.122-1.065,0.142-1.6c0-0.073,0.017-0.142,0.019-0.216h2.072c-0.075,1.46-0.488,2.883-1.206,4.156V29.658z
		 M32.41,24.5c0-0.073-0.017-0.143-0.02-0.216c-0.023-0.536-0.074-1.07-0.154-1.6c0-0.02,0-0.041-0.007-0.062
		c-0.089-0.537-0.209-1.069-0.358-1.592c-0.017-0.061-0.024-0.126-0.042-0.186l0.055-0.017c0.232-0.065,0.455-0.133,0.667-0.2
		l0.05-0.016c0.225-0.077,0.436-0.158,0.637-0.241c0.013-0.006,0.029-0.011,0.042-0.016c0.715,1.274,1.126,2.696,1.2,4.155
		L32.41,24.5z"/>
	<path style="fill:#FFFFFF;" d="M45.409,23.061c0-0.009-0.008-0.014-0.01-0.022c-0.012-0.093-0.052-0.181-0.113-0.252
		c-0.011-0.013-0.023-0.024-0.036-0.035c-0.069-0.071-0.159-0.119-0.256-0.138l-4.884-0.822c-0.109-0.514-0.244-1.021-0.4-1.517
		l3.774-3.31c0.154-0.144,0.205-0.368,0.127-0.565c0-0.007,0-0.014,0-0.021c-0.507-1.092-1.109-2.138-1.8-3.124
		c-0.008-0.011-0.019-0.017-0.027-0.027c-0.015-0.018-0.031-0.035-0.049-0.051c-0.028-0.025-0.059-0.047-0.092-0.066
		c-0.018-0.011-0.037-0.02-0.056-0.028c-0.04-0.016-0.081-0.027-0.124-0.031c-0.016-0.003-0.032-0.006-0.048-0.007
		c-0.062-0.003-0.125,0.006-0.184,0.027l-4.658,1.692c-0.373-0.421-0.769-0.822-1.185-1.2l1.614-4.746
		c0.028-0.093,0.028-0.191,0-0.284c-0.004-0.017-0.008-0.034-0.014-0.05c-0.032-0.087-0.089-0.164-0.163-0.22
		c-0.005,0-0.005-0.011-0.01-0.015c-0.984-0.695-2.027-1.303-3.117-1.815c-0.007,0-0.015,0-0.022,0
		C33.589,6.396,33.493,6.384,33.4,6.4c-0.015,0.003-0.03,0.008-0.044,0.013c-0.098,0.023-0.186,0.076-0.252,0.151l-3.191,3.791
		c-0.574-0.193-1.159-0.351-1.752-0.475l-1.018-4.913C27.121,4.874,27.071,4.789,27,4.724c-0.014-0.015-0.028-0.029-0.044-0.042
		c-0.072-0.059-0.159-0.096-0.251-0.107c0,0-0.008,0-0.014-0.006c-1.2-0.098-2.407-0.091-3.606,0.02c-0.01,0-0.016,0.01-0.025,0.011
		c-0.112,0.014-0.214,0.069-0.287,0.155C22.706,4.822,22.661,4.907,22.642,5l-0.83,4.883c-0.51,0.107-1.017,0.241-1.516,0.4
		L16.99,6.508c-0.084-0.078-0.188-0.133-0.3-0.158c-0.09-0.015-0.182-0.004-0.267,0.03c-0.007,0-0.014,0-0.021,0
		c-1.093,0.506-2.139,1.108-3.126,1.8c-0.006,0-0.007,0.013-0.013,0.018c-0.075,0.057-0.132,0.134-0.164,0.223
		c-0.006,0.017-0.008,0.031-0.013,0.048c-0.028,0.095-0.026,0.197,0.006,0.291l1.684,4.659c-0.42,0.373-0.821,0.769-1.2,1.184
		L8.83,12.982c-0.091-0.027-0.189-0.027-0.28,0C8.53,12.987,8.51,12.993,8.491,13c-0.085,0.032-0.159,0.087-0.215,0.159
		c0,0.006-0.012,0.006-0.016,0.012c-0.697,0.982-1.306,2.024-1.819,3.114c0,0.008,0,0.016,0,0.023
		c-0.037,0.087-0.048,0.183-0.031,0.276c0,0.017,0.009,0.031,0.013,0.048c0.024,0.096,0.076,0.182,0.15,0.248l3.787,3.2
		c-0.194,0.578-0.354,1.168-0.48,1.765l-4.91,1.011c-0.094,0.021-0.179,0.07-0.245,0.141c-0.014,0.012-0.027,0.025-0.039,0.039
		c-0.058,0.072-0.094,0.158-0.106,0.249c0,0.007-0.007,0.012-0.008,0.019c-0.098,1.198-0.092,2.403,0.018,3.6
		c0,0.009,0.008,0.014,0.01,0.022c0.012,0.093,0.051,0.181,0.112,0.252c0.012,0.012,0.024,0.024,0.037,0.035
		C4.817,27.282,4.905,27.329,5,27.348l4.883,0.831c0.108,0.512,0.241,1.018,0.4,1.517L6.5,33c-0.072,0.066-0.122,0.151-0.144,0.246
		c-0.005,0.016-0.01,0.032-0.013,0.049c-0.017,0.092-0.006,0.186,0.03,0.272c0,0.006,0,0.013,0,0.019
		c0.506,1.094,1.108,2.141,1.8,3.128c0.006,0.008,0.016,0.012,0.022,0.02c0.035,0.043,0.078,0.079,0.125,0.108
		c0.014,0.012,0.029,0.023,0.044,0.033c0.063,0.029,0.131,0.046,0.2,0.049c0.006,0,0.01,0,0.016,0c0.058,0,0.116-0.01,0.17-0.03
		l4.66-1.682c0.374,0.424,0.772,0.828,1.19,1.209l-1.623,4.742c-0.028,0.093-0.028,0.191,0,0.284
		c0.003,0.017,0.008,0.034,0.014,0.051c0.032,0.087,0.087,0.163,0.16,0.219c0.006,0,0.006,0.012,0.012,0.016
		c0.982,0.697,2.024,1.307,3.113,1.821c0.011,0,0.022,0,0.033,0.007c0.04,0.015,0.081,0.024,0.123,0.028
		c0.02,0,0.038,0.013,0.057,0.013c0.007,0,0.013,0,0.02,0c0.049-0.003,0.096-0.014,0.142-0.031c0.018-0.004,0.036-0.009,0.053-0.015
		c0.064-0.029,0.122-0.073,0.167-0.127l3.2-3.785c0.593,0.2,1.197,0.363,1.809,0.49l1.02,4.902c0.021,0.1,0.073,0.19,0.149,0.259
		c0.006,0,0.01,0.012,0.016,0.017c0.075,0.063,0.167,0.102,0.264,0.112c0.008,0,0.012,0.008,0.02,0.009h0.041
		c0.539,0.043,1.08,0.066,1.621,0.066c0.65,0,1.3-0.031,1.944-0.092c0.009,0,0.015-0.009,0.024-0.01
		c0.097-0.013,0.187-0.054,0.261-0.118c0.007-0.006,0.011-0.014,0.017-0.02c0.075-0.071,0.125-0.165,0.143-0.267l0.821-4.885
		c0.511-0.109,1.018-0.244,1.516-0.4l3.312,3.773c0.046,0.052,0.103,0.094,0.166,0.122c0.02,0.007,0.04,0.012,0.06,0.015
		c0.043,0.016,0.088,0.026,0.134,0.029h0.016c0.02-0.003,0.039-0.007,0.058-0.012c0.043-0.004,0.085-0.013,0.125-0.028
		c0.009,0,0.018,0,0.027-0.005c1.092-0.506,2.137-1.109,3.123-1.8c0.007,0,0.007-0.014,0.014-0.019
		c0.075-0.057,0.131-0.135,0.163-0.223c0.005-0.016,0.009-0.032,0.012-0.048c0.028-0.095,0.025-0.196-0.006-0.29l-1.694-4.656
		c0.421-0.373,0.822-0.769,1.2-1.186l4.746,1.61c0.052,0.018,0.107,0.027,0.162,0.027c0.005,0,0.011,0,0.016,0
		c0.072-0.002,0.143-0.019,0.208-0.05c0.008,0,0.013-0.012,0.021-0.016c0.057-0.033,0.106-0.076,0.146-0.128
		c0.005-0.006,0.012-0.008,0.017-0.014c0.696-0.983,1.303-2.026,1.814-3.116c0-0.008,0-0.017,0-0.024
		c0.035-0.087,0.046-0.182,0.03-0.274c-0.004-0.017-0.008-0.033-0.014-0.049c-0.024-0.096-0.076-0.183-0.151-0.248L39.651,29.9
		c0.194-0.578,0.353-1.168,0.477-1.765l4.908-1.02c0.094-0.021,0.18-0.071,0.246-0.142c0.013-0.012,0.025-0.025,0.037-0.038
		c0.058-0.072,0.095-0.159,0.106-0.251c0-0.007,0.007-0.011,0.008-0.018C45.529,25.466,45.521,24.26,45.409,23.061z M34.332,36.027
		v0.007c-0.066,0.06-0.115,0.137-0.141,0.222c-0.006,0.018-0.01,0.037-0.014,0.056c-0.021,0.088-0.016,0.181,0.013,0.267
		l1.674,4.621c-0.741,0.499-1.515,0.946-2.317,1.338l-3.28-3.738c-0.06-0.064-0.136-0.111-0.22-0.136
		c-0.02-0.007-0.041-0.012-0.062-0.017c-0.085-0.019-0.173-0.015-0.256,0.01l0,0c-0.666,0.229-1.348,0.41-2.04,0.541h-0.008
		c-0.085,0.02-0.163,0.062-0.227,0.121c-0.016,0.014-0.031,0.03-0.044,0.047c-0.062,0.066-0.104,0.147-0.121,0.236l-0.814,4.842
		c-0.891,0.066-1.785,0.072-2.677,0.018L22.784,39.6c-0.02-0.087-0.063-0.166-0.125-0.23c-0.014-0.015-0.027-0.027-0.042-0.041
		c-0.065-0.06-0.145-0.101-0.231-0.119l0,0c-0.786-0.144-1.559-0.354-2.31-0.627h-0.01c-0.084-0.027-0.173-0.031-0.259-0.012
		c-0.02,0-0.037,0.01-0.057,0.016c-0.087,0.026-0.166,0.075-0.227,0.143l-3.169,3.752c-0.8-0.396-1.572-0.848-2.31-1.352l1.609-4.7
		c0.027-0.085,0.03-0.175,0.009-0.261c0-0.02-0.009-0.038-0.015-0.058c-0.025-0.084-0.073-0.159-0.137-0.218l0,0l-0.083-0.071
		l-0.09-0.077c-0.493-0.447-0.956-0.926-1.386-1.435l-0.007-0.005c-0.059-0.065-0.134-0.112-0.218-0.138
		c-0.02-0.007-0.042-0.013-0.063-0.016c-0.087-0.02-0.178-0.017-0.264,0.01l-4.621,1.663c-0.497-0.743-0.942-1.52-1.332-2.324
		l3.745-3.272c0.065-0.06,0.113-0.136,0.138-0.221c0.006-0.019,0.011-0.038,0.015-0.057c0.021-0.086,0.017-0.176-0.009-0.26l0,0
		c-0.228-0.666-0.406-1.348-0.535-2.04v-0.007c-0.019-0.087-0.062-0.167-0.123-0.231c-0.013-0.015-0.027-0.029-0.043-0.041
		c-0.066-0.062-0.148-0.104-0.237-0.122l-4.841-0.825c-0.065-0.891-0.069-1.785-0.013-2.677l4.865-1
		c0.086-0.019,0.166-0.062,0.229-0.124c0.015-0.013,0.029-0.028,0.042-0.043c0.059-0.065,0.1-0.144,0.119-0.229l0,0
		c0.145-0.772,0.352-1.53,0.619-2.269v-0.008c0.028-0.085,0.032-0.175,0.012-0.262c-0.004-0.019-0.009-0.038-0.016-0.056
		c-0.026-0.087-0.075-0.165-0.143-0.226l-3.757-3.168c0.396-0.8,0.848-1.572,1.35-2.31l4.705,1.607
		c0.052,0.018,0.107,0.027,0.162,0.027c0.007-0.001,0.014-0.003,0.021-0.005c0.036-0.003,0.071-0.011,0.105-0.022
		c0.03-0.005,0.06-0.013,0.089-0.024c0.06-0.029,0.115-0.069,0.16-0.118l0,0l0.153-0.18c0.445-0.492,0.922-0.953,1.429-1.381
		l0.005-0.007c0.066-0.06,0.114-0.137,0.14-0.222c0.006-0.018,0.01-0.036,0.014-0.055c0.021-0.089,0.018-0.181-0.011-0.268
		l-1.667-4.62c0.741-0.497,1.516-0.943,2.318-1.334l3.276,3.743c0.046,0.053,0.103,0.096,0.167,0.124
		c0.014,0.007,0.029,0.006,0.043,0.012c0.049,0.019,0.1,0.029,0.152,0.032h0.014c0.041-0.002,0.082-0.008,0.122-0.02
		c0.013,0,0.026,0,0.039-0.007l0,0c0.666-0.228,1.347-0.407,2.039-0.536c0.008,0,0.013-0.009,0.021-0.011
		c0.086-0.02,0.165-0.062,0.23-0.122c0.01-0.01,0.016-0.021,0.025-0.031c0.064-0.067,0.108-0.152,0.125-0.243l0.823-4.841
		c0.891-0.066,1.785-0.07,2.677-0.014l1,4.864c0.027,0.106,0.086,0.201,0.17,0.272c0.066,0.06,0.147,0.102,0.234,0.12
		c0.766,0.143,1.519,0.348,2.252,0.612h0.01c0.022,0.007,0.045,0.007,0.067,0.012c0.03,0.008,0.061,0.013,0.092,0.016
		c0.006,0.001,0.013,0.001,0.019,0c0.046-0.003,0.09-0.013,0.133-0.029c0.022-0.004,0.044-0.01,0.066-0.018
		c0.063-0.03,0.119-0.073,0.165-0.126L33.614,7.5c0.8,0.396,1.573,0.846,2.312,1.347l-1.6,4.708
		c-0.027,0.084-0.029,0.174-0.008,0.26c0.004,0.02,0.009,0.039,0.016,0.058c0.025,0.084,0.072,0.159,0.136,0.219l0,0l0.194,0.165
		c0.487,0.44,0.944,0.913,1.368,1.414l0.007,0.005c0.046,0.053,0.102,0.095,0.165,0.125c0.008,0.003,0.016,0.005,0.024,0.006
		c0.055,0.023,0.113,0.035,0.172,0.038h0.013c0.058,0,0.116-0.01,0.171-0.031l4.616-1.669c0.498,0.74,0.945,1.514,1.338,2.316
		l-3.74,3.28c-0.065,0.06-0.112,0.136-0.137,0.221c-0.006,0.019-0.011,0.039-0.015,0.059c-0.019,0.085-0.016,0.174,0.009,0.257l0,0
		c0.229,0.666,0.41,1.348,0.54,2.04v0.008c0.049,0.196,0.203,0.348,0.4,0.393l4.841,0.815c0.067,0.891,0.073,1.785,0.018,2.677
		L39.6,27.224c-0.087,0.019-0.166,0.063-0.229,0.125c-0.015,0.013-0.029,0.027-0.042,0.042c-0.059,0.064-0.1,0.143-0.118,0.228l0,0
		c-0.143,0.772-0.348,1.532-0.613,2.271v0.01c-0.027,0.084-0.03,0.174-0.01,0.26c0.004,0.019,0.009,0.038,0.016,0.057
		c0.026,0.087,0.076,0.165,0.144,0.225l3.76,3.161c-0.396,0.801-0.846,1.573-1.348,2.312l-4.708-1.6
		c-0.084-0.025-0.173-0.027-0.258-0.007c-0.02,0.004-0.04,0.009-0.059,0.016c-0.084,0.025-0.16,0.072-0.219,0.136l0,0l-0.171,0.2
		C35.305,35.147,34.833,35.604,34.332,36.027z"/>
</g>
</svg>
