<?xml version="1.0" encoding="utf-8"?>
<!-- Generator: Adobe Illustrator 25.2.3, SVG Export Plug-In . SVG Version: 6.00 Build 0)  -->
<svg version="1.1" id="Layer_1" xmlns="http://www.w3.org/2000/svg" xmlns:xlink="http://www.w3.org/1999/xlink" x="0px" y="0px"
	 viewBox="0 0 50 50" style="enable-background:new 0 0 50 50;" xml:space="preserve">
<g id="be37419a-2fbf-4b93-a31b-1e8f88c4fc85">
	<path style="fill:#1D9CD3;" d="M22.641,21.965c-0.142-0.237-0.449-0.314-0.686-0.172c0,0,0,0,0,0l-4.647,2.778
		c-0.237,0.142-0.314,0.449-0.172,0.686c0.042,0.071,0.101,0.13,0.172,0.172l4.647,2.778c0.077,0.047,0.166,0.071,0.257,0.071
		c0.276-0.001,0.499-0.225,0.499-0.501c-0.001-0.175-0.092-0.336-0.242-0.427L18.539,25l3.93-2.35
		C22.705,22.508,22.782,22.202,22.641,21.965z"/>
	<path style="fill:#1D9CD3;" d="M28.045,21.793c-0.231-0.151-0.541-0.085-0.692,0.146c-0.151,0.231-0.085,0.541,0.146,0.692
		c0.01,0.007,0.021,0.013,0.032,0.019l3.93,2.35l-3.93,2.35c-0.236,0.143-0.312,0.45-0.17,0.686c0.09,0.149,0.252,0.241,0.427,0.242
		c0.091,0,0.18-0.024,0.257-0.071l4.647-2.778c0.237-0.142,0.314-0.449,0.172-0.686c-0.042-0.071-0.101-0.13-0.172-0.172
		L28.045,21.793z"/>
	<path style="fill:#1D9CD3;" d="M26.088,21.747c-0.262-0.088-0.545,0.054-0.633,0.315c0,0,0,0,0,0.001L23.6,27.62
		c-0.088,0.262,0.054,0.545,0.315,0.633c0,0,0,0,0.001,0c0.051,0.017,0.104,0.026,0.158,0.025c0.215,0,0.407-0.137,0.475-0.341
		L26.4,22.38C26.488,22.119,26.349,21.836,26.088,21.747z"/>
	<path style="fill:#1D9CD3;" d="M32.024,17.2c-4.308-3.882-10.947-3.537-14.829,0.771S13.658,28.918,17.966,32.8
		c1.927,1.736,4.428,2.698,7.021,2.7c0.188,0,0.376-0.006,0.565-0.016c5.791-0.308,10.235-5.253,9.927-11.044
		C35.331,21.665,34.088,19.061,32.024,17.2z M32.061,31.36c-3.513,3.897-9.52,4.209-13.417,0.696s-4.209-9.52-0.696-13.417
		c1.684-1.868,4.04-2.993,6.552-3.126c0.171-0.009,0.341-0.013,0.511-0.013c5.247,0.007,9.494,4.266,9.488,9.512
		c-0.003,2.343-0.872,4.601-2.439,6.343L32.061,31.36z"/>
	<path style="fill:#1D9CD3;" d="M45.409,23.061c0-0.009-0.008-0.014-0.01-0.022c-0.012-0.093-0.052-0.181-0.113-0.252
		c-0.011-0.013-0.023-0.024-0.036-0.035c-0.069-0.071-0.159-0.119-0.256-0.138l-4.884-0.822c-0.109-0.514-0.244-1.021-0.4-1.517
		l3.774-3.31c0.154-0.144,0.205-0.368,0.127-0.565c0-0.007,0-0.014,0-0.021c-0.507-1.092-1.109-2.138-1.8-3.124
		c-0.008-0.011-0.019-0.017-0.027-0.027c-0.015-0.018-0.031-0.035-0.049-0.051c-0.028-0.025-0.059-0.047-0.092-0.066
		c-0.018-0.011-0.037-0.02-0.056-0.028c-0.04-0.016-0.081-0.027-0.124-0.031c-0.016-0.003-0.032-0.006-0.048-0.007
		c-0.062-0.003-0.125,0.006-0.184,0.027l-4.658,1.692c-0.373-0.421-0.769-0.822-1.185-1.2l1.614-4.746
		c0.028-0.093,0.028-0.191,0-0.284c-0.004-0.017-0.008-0.034-0.014-0.05c-0.032-0.087-0.089-0.164-0.163-0.22
		c-0.005,0-0.005-0.011-0.01-0.015c-0.984-0.695-2.027-1.303-3.117-1.815c-0.007,0-0.015,0-0.022,0
		C33.589,6.396,33.493,6.384,33.4,6.4c-0.015,0.003-0.03,0.008-0.044,0.013c-0.098,0.023-0.186,0.076-0.252,0.151l-3.191,3.791
		c-0.574-0.193-1.159-0.351-1.752-0.475l-1.018-4.913C27.121,4.874,27.071,4.789,27,4.724c-0.014-0.015-0.028-0.029-0.044-0.042
		c-0.072-0.059-0.159-0.096-0.251-0.107c0,0-0.008,0-0.014-0.006c-1.2-0.098-2.407-0.091-3.606,0.02c-0.01,0-0.016,0.01-0.025,0.011
		c-0.112,0.014-0.214,0.069-0.287,0.155C22.706,4.822,22.661,4.907,22.642,5l-0.83,4.883c-0.51,0.107-1.017,0.241-1.516,0.4
		L16.99,6.508c-0.065-0.071-0.151-0.122-0.245-0.144c-0.017-0.006-0.034-0.01-0.052-0.014c-0.09-0.015-0.182-0.004-0.267,0.03
		c-0.007,0-0.014,0-0.021,0c-1.093,0.506-2.139,1.108-3.126,1.8c-0.006,0-0.007,0.013-0.013,0.018
		c-0.075,0.057-0.132,0.134-0.164,0.223c-0.006,0.017-0.008,0.031-0.013,0.048c-0.028,0.095-0.026,0.197,0.006,0.291l1.684,4.659
		c-0.42,0.373-0.821,0.769-1.2,1.184L8.83,12.982c-0.091-0.027-0.189-0.027-0.28,0C8.53,12.986,8.51,12.992,8.491,13
		c-0.085,0.032-0.159,0.086-0.215,0.158c0,0.006-0.012,0.006-0.016,0.012c-0.697,0.982-1.306,2.024-1.819,3.114
		c0,0.008,0,0.016,0,0.023c-0.037,0.087-0.048,0.183-0.031,0.276c0,0.017,0.009,0.031,0.013,0.048
		c0.024,0.096,0.076,0.182,0.15,0.248l3.787,3.2c-0.194,0.578-0.354,1.168-0.48,1.765l-4.91,1.011
		c-0.094,0.021-0.179,0.07-0.245,0.141c-0.014,0.012-0.027,0.025-0.039,0.039c-0.058,0.072-0.094,0.158-0.106,0.249
		c0,0.007-0.007,0.012-0.008,0.019c-0.098,1.198-0.092,2.403,0.018,3.6c0,0.009,0.008,0.014,0.01,0.022
		c0.012,0.093,0.051,0.181,0.112,0.252c0.012,0.012,0.024,0.024,0.037,0.035C4.817,27.281,4.905,27.329,5,27.348l4.883,0.831
		c0.108,0.512,0.241,1.018,0.4,1.517L6.5,33c-0.072,0.066-0.122,0.151-0.144,0.246c-0.005,0.016-0.01,0.032-0.013,0.049
		c-0.017,0.092-0.006,0.186,0.03,0.272c0,0.006,0,0.013,0,0.019c0.506,1.094,1.108,2.141,1.8,3.128
		c0.006,0.008,0.016,0.011,0.022,0.019c0.035,0.044,0.078,0.081,0.126,0.111c0.015,0.009,0.027,0.023,0.043,0.031
		c0.063,0.029,0.131,0.046,0.2,0.049c0.006,0,0.01,0,0.016,0c0.058,0,0.116-0.01,0.17-0.03l4.66-1.682
		c0.374,0.424,0.772,0.828,1.19,1.209l-1.623,4.742c-0.028,0.093-0.028,0.191,0,0.284c0.003,0.017,0.008,0.034,0.014,0.051
		c0.032,0.087,0.087,0.163,0.16,0.219c0.006,0,0.006,0.012,0.012,0.016c0.982,0.697,2.024,1.307,3.113,1.821
		c0.011,0,0.022,0,0.032,0.007c0.04,0.015,0.082,0.024,0.125,0.028c0.018,0.005,0.037,0.01,0.056,0.013c0.007,0,0.013,0,0.02,0
		c0.048-0.003,0.096-0.013,0.141-0.031c0.018-0.004,0.036-0.009,0.054-0.015c0.064-0.029,0.122-0.073,0.167-0.127l3.2-3.785
		c0.593,0.2,1.197,0.363,1.809,0.49l1.02,4.902c0.021,0.1,0.073,0.19,0.149,0.259c0.006,0,0.01,0.012,0.016,0.017
		c0.075,0.063,0.167,0.102,0.264,0.112c0.008,0,0.012,0.008,0.02,0.009h0.041c0.539,0.043,1.08,0.066,1.621,0.066
		c0.65,0,1.3-0.031,1.944-0.092c0.009,0,0.015-0.009,0.024-0.01c0.097-0.013,0.187-0.054,0.261-0.118
		c0.007-0.006,0.011-0.014,0.017-0.02c0.075-0.071,0.125-0.165,0.143-0.267l0.821-4.885c0.511-0.109,1.018-0.244,1.516-0.4
		l3.312,3.773c0.046,0.052,0.103,0.094,0.166,0.122c0.02,0.007,0.04,0.012,0.06,0.015c0.043,0.016,0.088,0.026,0.134,0.029h0.016
		c0.02-0.003,0.039-0.007,0.058-0.012c0.043-0.004,0.085-0.013,0.125-0.028c0.009,0,0.018,0,0.027-0.005
		c1.092-0.506,2.137-1.109,3.123-1.8c0.007,0,0.007-0.014,0.014-0.019c0.075-0.057,0.131-0.135,0.163-0.223
		c0.005-0.016,0.009-0.032,0.012-0.048c0.028-0.095,0.025-0.196-0.006-0.29l-1.694-4.656c0.421-0.373,0.822-0.769,1.2-1.186
		l4.746,1.61c0.052,0.018,0.107,0.027,0.162,0.027c0.005,0,0.011,0,0.017,0c0.072-0.002,0.143-0.019,0.208-0.051
		c0.005-0.004,0.01-0.008,0.015-0.012c0.059-0.033,0.11-0.077,0.151-0.131c0.005-0.006,0.012-0.008,0.017-0.014
		c0.696-0.983,1.303-2.026,1.814-3.116c0-0.008,0-0.017,0-0.024c0.035-0.087,0.046-0.182,0.03-0.274
		c-0.004-0.017-0.008-0.033-0.014-0.049c-0.024-0.096-0.076-0.183-0.151-0.248L39.651,29.9c0.194-0.578,0.353-1.168,0.477-1.765
		l4.908-1.02c0.094-0.021,0.18-0.071,0.246-0.142c0.013-0.012,0.025-0.025,0.037-0.038c0.058-0.072,0.095-0.159,0.106-0.251
		c0-0.007,0.007-0.011,0.008-0.018C45.529,25.466,45.521,24.26,45.409,23.061z M34.332,36.027v0.007
		c-0.066,0.06-0.115,0.137-0.141,0.222c-0.006,0.018-0.01,0.037-0.014,0.056c-0.021,0.088-0.016,0.181,0.013,0.267l1.674,4.621
		c-0.741,0.499-1.515,0.946-2.317,1.338l-3.28-3.738c-0.059-0.064-0.135-0.111-0.219-0.136c-0.021-0.007-0.042-0.012-0.063-0.017
		c-0.085-0.019-0.173-0.015-0.256,0.01l0,0c-0.666,0.229-1.348,0.41-2.04,0.541h-0.008c-0.085,0.02-0.162,0.062-0.226,0.121
		c-0.017,0.015-0.032,0.031-0.046,0.048c-0.061,0.066-0.102,0.147-0.12,0.235l-0.814,4.842c-0.891,0.066-1.785,0.072-2.677,0.018
		L22.784,39.6c-0.027-0.106-0.086-0.201-0.17-0.272c-0.064-0.059-0.143-0.1-0.228-0.118l0,0c-0.786-0.144-1.559-0.354-2.31-0.627
		h-0.009c-0.084-0.027-0.173-0.031-0.259-0.012c-0.02,0.004-0.039,0.01-0.058,0.016c-0.087,0.026-0.166,0.076-0.227,0.143
		l-3.169,3.752c-0.8-0.396-1.572-0.848-2.31-1.352l1.609-4.7c0.027-0.085,0.03-0.175,0.009-0.261c0-0.02-0.009-0.038-0.015-0.058
		c-0.025-0.084-0.073-0.159-0.137-0.218l0,0l-0.083-0.071l-0.09-0.077c-0.493-0.447-0.956-0.926-1.386-1.435l-0.007-0.005
		c-0.059-0.064-0.134-0.112-0.217-0.138c-0.021-0.007-0.042-0.012-0.064-0.016c-0.087-0.02-0.178-0.017-0.264,0.01l-4.621,1.663
		c-0.497-0.743-0.942-1.52-1.332-2.324l3.745-3.272c0.065-0.06,0.113-0.136,0.138-0.221c0.006-0.019,0.011-0.038,0.015-0.057
		c0.021-0.086,0.017-0.176-0.009-0.26l0,0c-0.228-0.666-0.406-1.348-0.535-2.04v-0.007c-0.019-0.087-0.062-0.167-0.123-0.231
		c-0.013-0.015-0.027-0.029-0.043-0.041c-0.066-0.062-0.148-0.104-0.237-0.122l-4.841-0.825c-0.065-0.891-0.069-1.785-0.013-2.677
		l4.865-1c0.086-0.019,0.166-0.062,0.229-0.124c0.015-0.013,0.029-0.028,0.042-0.043c0.059-0.065,0.1-0.144,0.119-0.229l0,0
		c0.145-0.772,0.352-1.53,0.619-2.269v-0.008c0.028-0.085,0.032-0.175,0.012-0.262c-0.004-0.019-0.009-0.038-0.016-0.056
		c-0.026-0.087-0.075-0.165-0.143-0.226l-3.757-3.168c0.396-0.8,0.848-1.572,1.35-2.31l4.705,1.607
		c0.052,0.018,0.107,0.027,0.162,0.027c0.007-0.001,0.014-0.003,0.021-0.005c0.034-0.004,0.068-0.011,0.1-0.022
		c0.031-0.005,0.062-0.014,0.091-0.025c0.06-0.028,0.114-0.068,0.159-0.117l0,0l0.153-0.18c0.445-0.492,0.922-0.953,1.429-1.381
		l0.005-0.007c0.066-0.06,0.114-0.137,0.14-0.222c0.006-0.018,0.01-0.036,0.014-0.055c0.021-0.089,0.018-0.181-0.011-0.268
		l-1.663-4.62c0.741-0.497,1.516-0.943,2.318-1.334l3.276,3.743c0.046,0.053,0.103,0.096,0.167,0.124
		c0.013,0.006,0.028,0.006,0.042,0.011c0.049,0.019,0.101,0.03,0.153,0.033h0.014c0.042-0.002,0.084-0.009,0.124-0.021
		c0.012,0,0.024,0,0.036-0.006l0,0c0.666-0.228,1.347-0.407,2.039-0.536c0.008,0,0.013-0.009,0.021-0.011
		c0.086-0.02,0.165-0.062,0.23-0.122c0.01-0.01,0.016-0.021,0.025-0.031c0.064-0.067,0.108-0.152,0.125-0.243l0.823-4.841
		c0.891-0.066,1.785-0.07,2.677-0.014l1,4.864c0.02,0.086,0.063,0.164,0.124,0.227c0.014,0.017,0.03,0.032,0.047,0.046
		c0.066,0.06,0.146,0.101,0.233,0.119c0.766,0.143,1.519,0.348,2.252,0.612h0.01c0.022,0.007,0.045,0.007,0.067,0.012
		c0.03,0.008,0.061,0.013,0.092,0.016c0.006,0.001,0.013,0.001,0.019,0c0.046-0.003,0.09-0.013,0.133-0.029
		c0.022-0.004,0.044-0.01,0.066-0.018c0.063-0.03,0.119-0.073,0.165-0.126L33.614,7.5c0.8,0.396,1.573,0.846,2.312,1.347l-1.6,4.708
		c-0.027,0.084-0.029,0.174-0.008,0.26c0.004,0.02,0.009,0.039,0.016,0.058c0.025,0.084,0.072,0.159,0.136,0.219l0,0l0.194,0.165
		c0.487,0.44,0.944,0.913,1.368,1.414l0.007,0.005c0.046,0.053,0.102,0.095,0.165,0.125c0.008,0.003,0.016,0.005,0.024,0.006
		c0.055,0.023,0.113,0.035,0.172,0.038h0.013c0.058,0,0.116-0.01,0.171-0.031l4.616-1.669c0.498,0.74,0.945,1.514,1.338,2.316
		l-3.74,3.28c-0.065,0.06-0.112,0.136-0.137,0.221c-0.006,0.019-0.011,0.039-0.015,0.059c-0.019,0.085-0.016,0.174,0.009,0.257l0,0
		c0.229,0.666,0.41,1.348,0.54,2.04v0.008c0.049,0.196,0.203,0.348,0.4,0.393l4.841,0.815c0.067,0.891,0.073,1.785,0.018,2.677
		L39.6,27.224c-0.087,0.019-0.166,0.063-0.229,0.125c-0.015,0.013-0.029,0.027-0.042,0.042c-0.059,0.064-0.1,0.143-0.118,0.228l0,0
		c-0.143,0.772-0.348,1.532-0.613,2.271v0.01c-0.027,0.084-0.03,0.174-0.01,0.26c0.004,0.019,0.009,0.038,0.016,0.057
		c0.026,0.087,0.076,0.165,0.144,0.225l3.76,3.161c-0.396,0.801-0.846,1.573-1.348,2.312l-4.708-1.6
		c-0.084-0.025-0.173-0.027-0.258-0.007c-0.02,0.004-0.04,0.009-0.059,0.016c-0.084,0.025-0.16,0.072-0.219,0.136l0,0l-0.171,0.2
		C35.305,35.147,34.833,35.604,34.332,36.027z"/>
</g>
</svg>
