<svg viewBox="0 0 128 128" xmlns="http://www.w3.org/2000/svg"><g fill="none" stroke="#e4002b" stroke-linecap="round" stroke-linejoin="round" stroke-width="3"><circle cx="64" cy="64" r="27.61"/><path d="m57.43 9 5.84 13.62h.74a41.77 41.77 0 0 1 5.62.39l6.9-13.01"/><path d="m63.27 22.59-5.84-13.59a55 55 0 0 0 -9.54 2l.49 14.67"/><path d="m85.8 13-1.74 14.75a41.52 41.52 0 0 1 5.06 3.31l12.39-7.87"/><path d="m84.06 27.75 1.74-14.75a54.61 54.61 0 0 0 -9.27-3l-6.9 13"/><path d="m42.39 28.66-11.92-8.78a55.37 55.37 0 0 0 -7.21 6.56l7.85 12.4"/><path d="m30.47 19.88 11.92 8.78a41 41 0 0 1 6-3l-.5-14.66"/><path d="m100.26 84 14.74 1.76a55.48 55.48 0 0 0 3-9.27l-13-6.9"/><path d="m13.07 42.13 14.72 1.76a43.52 43.52 0 0 1 3.32-5l-7.85-12.4"/><path d="m99.31 42.33 8.77-11.94a56.08 56.08 0 0 0 -6.57-7.2l-12.39 7.87"/><path d="m119 57.39-13.62 5.85v.75a41.36 41.36 0 0 1 -.39 5.6l13 6.9"/><path d="m105.41 63.24 13.59-5.85a54.58 54.58 0 0 0 -2-9.54l-14.67.5"/><path d="m108.08 30.39-8.77 11.94a42 42 0 0 1 3 6l14.67-.5"/><path d="m85.69 99.29 11.94 8.71a55.36 55.36 0 0 0 7.2-6.57l-7.83-12.35"/><path d="m70.47 119-5.81-13.6h-.66a41.12 41.12 0 0 1 -5.7-.4l-6.93 13"/><path d="m64.66 105.4 5.81 13.6a54.84 54.84 0 0 0 9.55-2l-.46-14.68"/><path d="m97.63 108-11.94-8.71a40.9 40.9 0 0 1 -6.13 3.09l.44 14.68"/><path d="m115 85.76-14.74-1.76a41.52 41.52 0 0 1 -3.26 5.08l7.88 12.39"/><path d="m43.89 100.2-1.78 14.72a55.11 55.11 0 0 0 9.26 3l6.94-12.92"/><path d="m9 70.49 13.6-5.82c0-.23 0-.45 0-.68a41.05 41.05 0 0 1 .4-5.68l-13-6.92"/><path d="m27.79 43.89-14.72-1.76a54.82 54.82 0 0 0 -3 9.26l13 6.92"/><path d="m22.6 64.67-13.6 5.82a55.79 55.79 0 0 0 2 9.51l14.68-.47"/><path d="m28.66 85.59-8.79 11.92a55.37 55.37 0 0 0 6.56 7.21l12.41-7.84"/><path d="m42.11 114.92 1.78-14.72a41.88 41.88 0 0 1 -5-3.32l-12.41 7.84"/><path d="m19.87 97.51 8.79-11.92a41.35 41.35 0 0 1 -3-6l-14.66.41"/></g></svg>