<svg xmlns="http://www.w3.org/2000/svg" viewBox="0 0 50 50"><g id="bc90c1d2-9bb8-437e-afae-3b9e0642837f" data-name="Isolation Mode"><path d="M44.013,16.449a11.282,11.282,0,0,0,.307-2.612A11.434,11.434,0,0,0,32.838,2.478a11.549,11.549,0,0,0-10.559,6.89A9.91,9.91,0,0,0,8.8,18a6.744,6.744,0,0,0,.515,13.474H13a.5.5,0,0,0,0-1H9.318a5.748,5.748,0,1,1-.025-11.495.5.5,0,0,0,.5-.5A8.85,8.85,0,0,1,18.682,9.7a8.942,8.942,0,0,1,3.667.782.5.5,0,0,0,.671-.278,10.5,10.5,0,0,1,20.3,3.636,10.272,10.272,0,0,1-.361,2.7.5.5,0,0,0,.21.55,7.26,7.26,0,0,1,3.331,6.1,7.351,7.351,0,0,1-7.386,7.3H37a.5.5,0,0,0,0,1h2.114a8.352,8.352,0,0,0,8.386-8.3A8.249,8.249,0,0,0,44.013,16.449Z"/><path d="M32.538,33.259a.5.5,0,0,0,.108.163h0l.009.005a.487.487,0,0,0,.154.1.5.5,0,0,0,.19.038h4.525a.5.5,0,0,0,0-1H34.119a11.956,11.956,0,0,0-.765-15.955A11.786,11.786,0,0,0,18.484,15.1a.5.5,0,1,0,.555.832,10.785,10.785,0,0,1,13.606,1.384A10.952,10.952,0,0,1,33.5,31.734V28.513a.5.5,0,1,0-1,0v4.554h0A.487.487,0,0,0,32.538,33.259Z"/><path d="M25,31.767a6.75,6.75,0,1,0-6.75-6.75A6.758,6.758,0,0,0,25,31.767Zm0-12.5c.981,0,2.012,1.288,2.473,3.37H22.527C22.988,20.555,24.019,19.267,25,19.267Zm2.636,4.37a11.1,11.1,0,0,1,0,2.766h-5.27a11.1,11.1,0,0,1,0-2.766Zm3.114,1.38a5.715,5.715,0,0,1-.176,1.386H28.646a12.7,12.7,0,0,0,0-2.766h1.929A5.758,5.758,0,0,1,30.75,25.017ZM25,30.767c-.98,0-2.009-1.286-2.471-3.364h4.942C27.009,29.481,25.98,30.767,25,30.767ZM21.354,26.4H19.426a5.552,5.552,0,0,1,0-2.766h1.929a12.7,12.7,0,0,0,0,2.766Zm-1.579,1h1.738a8,8,0,0,0,1.107,2.842A5.782,5.782,0,0,1,19.775,27.4Zm7.605,2.842A8,8,0,0,0,28.487,27.4h1.738A5.782,5.782,0,0,1,27.38,30.245Zm2.848-7.608h-1.74a8.006,8.006,0,0,0-1.108-2.848A5.771,5.771,0,0,1,30.228,22.637ZM22.62,19.789a8.006,8.006,0,0,0-1.108,2.848h-1.74A5.771,5.771,0,0,1,22.62,19.789Z"/><path d="M36.26,38.979a2,2,0,0,0-1.929,1.5H29.118V36.155a11.616,11.616,0,0,0,2.4-1.223.5.5,0,1,0-.555-.832,10.788,10.788,0,0,1-13.606-1.385A10.952,10.952,0,0,1,16.5,18.3V21.52a.5.5,0,0,0,1,0V16.965h0a.487.487,0,0,0-.039-.191.5.5,0,0,0-.108-.162h0l-.009,0a.465.465,0,0,0-.324-.136c-.007,0-.013,0-.02,0H12.476a.5.5,0,0,0,0,1h3.4a11.956,11.956,0,0,0,.765,15.955,11.723,11.723,0,0,0,4.236,2.717v4.342H15.669a2,2,0,1,0,0,1h5.713a.5.5,0,0,0,.5-.5V36.463a11.844,11.844,0,0,0,2.631.407v6.723a2,2,0,1,0,1,0V36.877a11.743,11.743,0,0,0,2.6-.4v4.506a.5.5,0,0,0,.5.5h5.713a2,2,0,1,0,1.929-2.5Zm-22.52,3a1,1,0,1,1,1-1A1,1,0,0,1,13.74,41.979Zm12.273,3.543a1,1,0,1,1-1-1A1,1,0,0,1,26.013,45.522ZM36.26,41.979a1,1,0,1,1,1-1A1,1,0,0,1,36.26,41.979Z"/></g></svg>