<svg id="aa092d7c-db25-4859-8695-68ee371c014a" data-name="Icons" xmlns="http://www.w3.org/2000/svg" viewBox="0 0 50 50"><path d="M13,22.517H37a.5.5,0,0,0,0-1.007H35.457a10.5,10.5,0,0,0-8.484-9.784A2,2,0,0,0,25.5,10.085V8.055h3.943a.5.5,0,0,0,.5-.5V4.594a.5.5,0,0,0-.5-.5H25a.5.5,0,0,0-.5.5l0,5.49a2,2,0,0,0-1.473,1.638,10.483,10.483,0,0,0-8.484,9.788H13a.5.5,0,0,0,0,1.007ZM25.5,5.094h3.442V7.055H25.5ZM25,11.02a1,1,0,0,1,.88.557c-.3-.025-.593-.045-.895-.045s-.579.02-.865.044A.988.988,0,0,1,25,11.02ZM24.983,12.5a9.531,9.531,0,0,1,9.509,9.014H15.508A9.512,9.512,0,0,1,24.983,12.5Z"/><path d="M11,35.144a.449.449,0,0,0-.45.45v5a.45.45,0,0,0,.9,0v-5A.449.449,0,0,0,11,35.144Z"/><path d="M15.667,35.144a.449.449,0,0,0-.45.45v5a.45.45,0,0,0,.9,0v-5A.449.449,0,0,0,15.667,35.144Z"/><path d="M20.333,35.144a.449.449,0,0,0-.45.45v5a.45.45,0,0,0,.9,0v-5A.449.449,0,0,0,20.333,35.144Z"/><path d="M25,35.144a.449.449,0,0,0-.45.45v5a.45.45,0,0,0,.9,0v-5A.449.449,0,0,0,25,35.144Z"/><path d="M29.667,35.144a.449.449,0,0,0-.45.45v5a.45.45,0,1,0,.9,0v-5A.449.449,0,0,0,29.667,35.144Z"/><path d="M34.333,35.144a.449.449,0,0,0-.45.45v5a.45.45,0,0,0,.9,0v-5A.449.449,0,0,0,34.333,35.144Z"/><path d="M15.667,26.144a.449.449,0,0,0-.45.45v5a.45.45,0,1,0,.9,0v-5A.449.449,0,0,0,15.667,26.144Z"/><path d="M20.333,26.144a.449.449,0,0,0-.45.45v5a.45.45,0,1,0,.9,0v-5A.449.449,0,0,0,20.333,26.144Z"/><path d="M25,26.144a.449.449,0,0,0-.45.45v5a.45.45,0,1,0,.9,0v-5A.449.449,0,0,0,25,26.144Z"/><path d="M29.667,26.144a.449.449,0,0,0-.45.45v5a.45.45,0,1,0,.9,0v-5A.449.449,0,0,0,29.667,26.144Z"/><path d="M34.333,26.144a.449.449,0,0,0-.45.45v5a.45.45,0,0,0,.9,0v-5A.449.449,0,0,0,34.333,26.144Z"/><path d="M39,35.144a.449.449,0,0,0-.45.45v5a.45.45,0,1,0,.9,0v-5A.449.449,0,0,0,39,35.144Z"/><path d="M44.77,42.094H43.488v-8.5A.488.488,0,0,0,43,33.1H39.431V24.594a.431.431,0,0,0-.431-.43H11a.431.431,0,0,0-.431.43V33.1H7a.488.488,0,0,0-.488.489v8.5H5.23a.732.732,0,0,0-.73.73v2.539a.732.732,0,0,0,.73.731H44.77a.732.732,0,0,0,.73-.731V42.824A.732.732,0,0,0,44.77,42.094ZM11.431,25.024H38.569V33.1H11.431ZM7.488,34.082H42.512v8.012H7.488ZM44.5,45.094H5.5v-2h39Z"/></svg>