<svg xmlns="http://www.w3.org/2000/svg" viewBox="0 0 50 50"><g id="bda1da20-d431-4b52-9a96-8266cefcf956" data-name="Isolation Mode"><path d="M18.312,18.954a.506.506,0,0,0,.236.059.5.5,0,0,0,.441-.263c.014-.025.089-.161.228-.362L21.2,23.273a3.577,3.577,0,0,0,3.3,2.188h.882a3.575,3.575,0,0,0,3.3-2.175c0-.01.008-.02.012-.03L30.718,18.2a4.613,4.613,0,0,1,.337.533.5.5,0,0,0,.894-.447,7.756,7.756,0,0,0-7.026-3.874,7.873,7.873,0,0,0-6.816,3.861A.5.5,0,0,0,18.312,18.954Zm6.611-3.537a7.04,7.04,0,0,1,5.058,1.94l-2.209,5.51-.007.017a2.575,2.575,0,0,1-2.38,1.577H24.5a2.581,2.581,0,0,1-2.383-1.579l-2.179-5.368A6.781,6.781,0,0,1,24.923,15.417Z"/><path d="M7.5,43.258l2.649.979c.614.231.949.354,1.15.422a2,2,0,0,0,1.062.81.523.523,0,0,0,.124.024l.139.007,24.817,0a.507.507,0,0,0,.154-.025A1.859,1.859,0,0,0,38.77,44.4L42.5,43.258a4.559,4.559,0,0,0,2.812-5.547L41.862,26.086a4.977,4.977,0,0,0-2.174-2.822l-4.182-2.538.622-1.448a3.784,3.784,0,0,0-.336-3.292l-5.23-8.363A6.521,6.521,0,0,0,25.025,4.5c-.009,0-.016,0-.025,0s-.016,0-.025,0a6.521,6.521,0,0,0-5.537,3.123l-5.23,8.363a3.806,3.806,0,0,0-.313,3.348l.6,1.393L10.31,23.265a4.976,4.976,0,0,0-2.172,2.821L4.685,37.712A4.558,4.558,0,0,0,7.5,43.258ZM37.346,44.5l-24.7,0-.032,0c-.134-.057-.508-.238-.508-.489,0-.229.329-.406.49-.472H37.339c.16.065.5.243.5.475S37.509,44.427,37.346,44.5Zm-.408-16.189V42.538H13.012V28.309Zm2.229-4.192A3.971,3.971,0,0,1,40.9,26.372L44.356,38a3.55,3.55,0,0,1-2.172,4.315l-3.527,1.081a1.8,1.8,0,0,0-.719-.68v-14.9a.5.5,0,0,0-.5-.5H31.4l2-1.915a1.136,1.136,0,0,0,.268-.383l1.443-3.357Zm-24.111-7.6,5.23-8.364A5.529,5.529,0,0,1,24.975,5.5c.009,0,.016,0,.025,0s.016,0,.025,0a5.529,5.529,0,0,1,4.689,2.653l5.23,8.364a2.781,2.781,0,0,1,.244,2.422l-2.479,5.728L29.95,27.309H20.026l-2.772-2.693L14.81,18.933A2.777,2.777,0,0,1,15.056,16.517ZM5.644,38,9.1,26.371a3.972,3.972,0,0,1,1.734-2.253l4.061-2.464,1.442,3.354a1.124,1.124,0,0,0,.264.379l1.988,1.922H12.512a.5.5,0,0,0-.5.5v14.9a1.707,1.707,0,0,0-.819.852c-.174-.064-.4-.146-.694-.258l-2.656-.983A3.553,3.553,0,0,1,5.644,38Z"/></g></svg>