<?xml version="1.0" encoding="utf-8"?>
<!-- Generator: Adobe Illustrator 25.2.3, SVG Export Plug-In . SVG Version: 6.00 Build 0)  -->
<svg version="1.1" id="Layer_1" xmlns="http://www.w3.org/2000/svg" xmlns:xlink="http://www.w3.org/1999/xlink" x="0px" y="0px"
	 viewBox="0 0 50 50" style="enable-background:new 0 0 50 50;" xml:space="preserve">
<g id="bda1da20-d431-4b52-9a96-8266cefcf956">
	<path style="fill:#FFFFFF;" d="M18.312,18.954c0.073,0.039,0.154,0.059,0.236,0.059c0.184,0,0.354-0.101,0.441-0.263
		c0.014-0.025,0.089-0.161,0.228-0.362l1.983,4.885c0.559,1.327,1.86,2.189,3.3,2.188h0.882c1.437,0.004,2.737-0.853,3.3-2.175
		c0-0.01,0.008-0.02,0.012-0.03l2.024-5.056c0.124,0.17,0.237,0.348,0.337,0.533c0.131,0.243,0.434,0.334,0.677,0.203
		c0.232-0.125,0.327-0.41,0.217-0.65c-1.44-2.496-4.146-3.988-7.026-3.874c-2.796-0.015-5.391,1.455-6.816,3.861
		c-0.132,0.242-0.043,0.546,0.2,0.678C18.309,18.952,18.31,18.953,18.312,18.954z M24.923,15.417
		c1.877-0.054,3.698,0.645,5.058,1.94l-2.209,5.51l-0.007,0.017c-0.403,0.958-1.341,1.58-2.38,1.577H24.5
		c-1.04,0.002-1.979-0.621-2.383-1.579l-2.179-5.368C21.237,16.154,23.042,15.394,24.923,15.417z"/>
	<path style="fill:#FFFFFF;" d="M7.5,43.258l2.649,0.979c0.614,0.231,0.949,0.354,1.15,0.422c0.251,0.384,0.626,0.67,1.062,0.81
		c0.04,0.013,0.082,0.021,0.124,0.024l0.139,0.007h24.817c0.052,0,0.104-0.009,0.154-0.025c0.533-0.164,0.964-0.559,1.175-1.075
		l3.73-1.142c2.249-0.823,3.477-3.246,2.812-5.547l-3.45-11.625c-0.352-1.177-1.126-2.182-2.174-2.822l-4.182-2.538l0.622-1.448
		c0.399-1.091,0.275-2.304-0.336-3.292l-5.23-8.363C29.383,5.692,27.287,4.51,25.025,4.5c-0.009,0-0.016,0-0.025,0s-0.016,0-0.025,0
		c-2.262,0.01-4.358,1.192-5.537,3.123l-5.23,8.363c-0.618,1.007-0.734,2.244-0.313,3.348l0.6,1.393l-4.185,2.538
		c-1.047,0.64-1.821,1.645-2.172,2.821L4.685,37.712C4.02,40.013,5.25,42.436,7.5,43.258z M37.346,44.5h-24.7h-0.032
		c-0.134-0.057-0.508-0.238-0.508-0.489c0-0.229,0.329-0.406,0.49-0.472h24.743c0.16,0.065,0.5,0.243,0.5,0.475
		S37.509,44.427,37.346,44.5z M36.938,28.311v14.227H13.012V28.309L36.938,28.311z M39.167,24.119
		c0.836,0.511,1.453,1.314,1.733,2.253L44.356,38c0.517,1.785-0.43,3.667-2.172,4.315l-3.527,1.081
		c-0.171-0.289-0.421-0.525-0.719-0.68v-14.9c0-0.276-0.224-0.5-0.5-0.5H31.4l2-1.915c0.115-0.108,0.206-0.238,0.268-0.383
		l1.443-3.357L39.167,24.119z M15.056,16.519l5.23-8.364c0.997-1.638,2.771-2.643,4.689-2.655c0.009,0,0.016,0,0.025,0
		s0.016,0,0.025,0c1.917,0.012,3.692,1.015,4.689,2.653l5.23,8.364c0.449,0.727,0.539,1.62,0.244,2.422l-2.479,5.728l-2.759,2.642
		h-9.924l-2.772-2.693l-2.444-5.683c-0.293-0.8-0.202-1.691,0.246-2.416V16.519z M5.644,38L9.1,26.371
		c0.28-0.939,0.898-1.742,1.734-2.253l4.061-2.464l1.442,3.354c0.061,0.143,0.151,0.272,0.264,0.379l1.988,1.922h-6.077
		c-0.276,0-0.5,0.224-0.5,0.5v14.9c-0.366,0.177-0.656,0.48-0.819,0.852c-0.174-0.064-0.4-0.146-0.694-0.258L7.843,42.32
		C6.089,41.681,5.128,39.794,5.644,38z"/>
</g>
</svg>
