<?xml version="1.0" encoding="utf-8"?>
<!-- Generator: Adobe Illustrator 25.2.3, SVG Export Plug-In . SVG Version: 6.00 Build 0)  -->
<svg version="1.1" id="ed4b46e4-c721-44ee-bc3a-c2fbda940df0"
	 xmlns="http://www.w3.org/2000/svg" xmlns:xlink="http://www.w3.org/1999/xlink" x="0px" y="0px" viewBox="0 0 50 50"
	 style="enable-background:new 0 0 50 50;" xml:space="preserve">
<path style="fill:#1D9CD3;" d="M40.353,15.74l-11-11c-0.046-0.046-0.101-0.083-0.162-0.108C29.131,4.606,29.066,4.594,29,4.594H10
	c-0.276,0-0.5,0.224-0.5,0.5v40c0,0.276,0.224,0.5,0.5,0.5h30c0.276,0,0.5-0.224,0.5-0.5v-29c0-0.066-0.014-0.132-0.039-0.193
	C40.436,15.841,40.399,15.786,40.353,15.74z M29.5,6.3l9.293,9.293H29.5V6.3z M10.5,44.593v-13h4.14l0.885,2.658
	c0.068,0.203,0.258,0.341,0.472,0.342l0,0c0.213,0,0.403-0.135,0.473-0.337l2.584-7.49L22.578,38.3
	c0.063,0.207,0.252,0.35,0.468,0.354h0.011c0.212,0,0.401-0.134,0.471-0.334l2.672-7.598l1.354,3.606
	c0.077,0.197,0.268,0.325,0.479,0.324c0.213-0.005,0.399-0.144,0.464-0.347l0.872-2.711h2.207c0.276,1.069,1.367,1.713,2.436,1.436
	c1.069-0.276,1.713-1.367,1.436-2.436s-1.367-1.713-2.436-1.436c-0.704,0.182-1.255,0.732-1.436,1.436H29
	c-0.217,0-0.41,0.14-0.476,0.347l-0.544,1.691l-1.333-3.55c-0.073-0.195-0.259-0.324-0.467-0.324l0,0
	c-0.21,0.002-0.397,0.135-0.467,0.334l-2.623,7.454L19.563,25c-0.063-0.207-0.253-0.35-0.469-0.354
	c-0.215,0-0.408,0.135-0.482,0.337l-2.6,7.551l-0.533-1.6c-0.069-0.205-0.263-0.342-0.479-0.34h-4.5v-25h18v10.5
	c0,0.276,0.224,0.5,0.5,0.5h10.5v28L10.5,44.593z M32.5,31.093c0-0.552,0.448-1,1-1s1,0.448,1,1s-0.448,1-1,1
	c-0.552,0-0.999-0.447-1-0.999V31.093z"/>
<path style="fill:#1D9CD3;" d="M31.325,21.607c-0.518,0.042-0.999,0.286-1.339,0.679c-0.357-0.407-0.86-0.655-1.4-0.69
	c-0.659-0.041-1.29,0.272-1.656,0.821c-0.692,1.202-0.514,2.716,0.438,3.725c0.719,0.821,1.487,1.598,2.3,2.325
	c0.189,0.168,0.475,0.168,0.664,0c0.815-0.721,1.583-1.493,2.3-2.311c0.953-1.009,1.131-2.523,0.439-3.726
	C32.672,21.87,32.011,21.558,31.325,21.607z M31.864,25.519c-0.583,0.669-1.206,1.303-1.864,1.898
	c-0.657-0.603-1.28-1.243-1.864-1.917c-0.666-0.667-0.82-1.691-0.379-2.524c0.168-0.24,0.441-0.383,0.734-0.384h0.043
	c0.461,0.071,0.85,0.379,1.026,0.811c0.131,0.243,0.434,0.334,0.677,0.204c0.093-0.05,0.168-0.128,0.214-0.224
	c0.148-0.416,0.513-0.716,0.949-0.783c0.329-0.02,0.646,0.126,0.844,0.389C32.686,23.824,32.532,24.851,31.864,25.519z"/>
</svg>
