<svg xmlns="http://www.w3.org/2000/svg" viewBox="0 0 50 50"><g id="b2e0320c-48cc-49f1-ad25-77098a7094bd" data-name="Isolation Mode"><path d="M13.5,45.505a9.75,9.75,0,1,0-9.75-9.75A9.761,9.761,0,0,0,13.5,45.505Zm0-18.5a8.75,8.75,0,1,1-8.75,8.75A8.76,8.76,0,0,1,13.5,27.005Z"/><path d="M24.653,40.39a18.343,18.343,0,0,0,1.952.1,18,18,0,1,0-18-18,18.214,18.214,0,0,0,.219,2.812.5.5,0,1,0,.988-.155A17.213,17.213,0,0,1,9.605,22.5a17,17,0,1,1,17,17,17.353,17.353,0,0,1-1.844-.1.5.5,0,1,0-.108.994Z"/><path d="M21.422,14.3a2.343,2.343,0,1,0,2.343,2.343A2.346,2.346,0,0,0,21.422,14.3Zm0,3.686a1.343,1.343,0,1,1,1.343-1.343A1.345,1.345,0,0,1,21.422,17.99Z"/><path d="M24.552,29.2a1.978,1.978,0,0,0,2.757.034l.038-.035,1.883-1.885,1.378,1.378-1.89,1.891a1.974,1.974,0,0,0,2.8,2.786L33.4,31.488l.634.635a2.009,2.009,0,0,0,2.564.29,1.976,1.976,0,0,0,.285-3.028h0L26.56,19.061a5.661,5.661,0,0,0-2.653-7.435,5.678,5.678,0,0,0-7.366,2.2,5.66,5.66,0,0,0,7.227,8.029l2.67,2.674-1.887,1.881A1.977,1.977,0,0,0,24.552,29.2Zm.706-2.085L27.5,24.883a.5.5,0,0,0,0-.708l-3.279-3.283a.5.5,0,0,0-.592-.086A4.66,4.66,0,0,1,17.4,14.334a4.731,4.731,0,0,1,6.063-1.81,4.66,4.66,0,0,1,2.047,6.4.5.5,0,0,0,.086.591L36.176,30.092a.977.977,0,0,1-.147,1.5,1.026,1.026,0,0,1-1.287-.174l-.987-.99a.5.5,0,0,0-.353-.147h0a.5.5,0,0,0-.353.147l-2.233,2.231a.974.974,0,0,1-1.651-.684.961.961,0,0,1,.267-.688l2.238-2.238a.5.5,0,0,0,0-.707l-2.086-2.085a.5.5,0,0,0-.707,0l-2.205,2.207-.034.031a.974.974,0,1,1-1.379-1.377Z"/><path d="M10.167,40.755h6.675a.5.5,0,0,0,.5-.5V34.421a.5.5,0,0,0-.5-.5H16.5V32.755a3,3,0,1,0-6,0v1.166h-.338a.5.5,0,0,0-.5.5v5.834A.5.5,0,0,0,10.167,40.755Zm6.175-1H10.667V34.921h5.675Zm-4.837-7a2,2,0,1,1,4,0v1.166h-4Z"/></g></svg>