<?xml version="1.0" encoding="utf-8"?>
<!-- Generator: Adobe Illustrator 25.2.3, SVG Export Plug-In . SVG Version: 6.00 Build 0)  -->
<svg version="1.1" id="Layer_1" xmlns="http://www.w3.org/2000/svg" xmlns:xlink="http://www.w3.org/1999/xlink" x="0px" y="0px"
	 viewBox="0 0 50 50" style="enable-background:new 0 0 50 50;" xml:space="preserve">
<g id="b2e0320c-48cc-49f1-ad25-77098a7094bd">
	<path style="fill:#1D9CD3;" d="M13.5,45.505c5.385,0,9.75-4.365,9.75-9.75s-4.365-9.75-9.75-9.75s-9.75,4.365-9.75,9.75
		C3.756,41.137,8.118,45.499,13.5,45.505z M13.5,27.005c4.832,0,8.75,3.918,8.75,8.75s-3.918,8.75-8.75,8.75s-8.75-3.918-8.75-8.75
		C4.756,30.925,8.67,27.011,13.5,27.005z"/>
	<path style="fill:#1D9CD3;" d="M24.653,40.39c0.648,0.068,1.3,0.101,1.952,0.1c9.941,0,18-8.059,18-18s-8.059-18-18-18
		s-18,8.059-18,18c0,0.942,0.073,1.882,0.219,2.812c0.043,0.273,0.299,0.459,0.571,0.417c0.273-0.043,0.459-0.299,0.417-0.572
		c-0.137-0.876-0.206-1.761-0.207-2.647c0-9.389,7.611-17,17-17s17,7.611,17,17s-7.611,17-17,17c-0.616-0.001-1.232-0.034-1.844-0.1
		c-0.274-0.035-0.524,0.159-0.559,0.433c-0.035,0.274,0.159,0.524,0.433,0.559c0.006,0.001,0.011,0.001,0.017,0.002V40.39z"/>
	<path style="fill:#1D9CD3;" d="M21.422,14.3c-1.294,0-2.343,1.049-2.343,2.343c0,1.294,1.049,2.343,2.343,2.343
		c1.294,0,2.343-1.049,2.343-2.343l0,0C23.763,15.35,22.715,14.302,21.422,14.3z M21.422,17.986c-0.742,0-1.343-0.601-1.343-1.343
		S20.68,15.3,21.422,15.3s1.343,0.601,1.343,1.343c0.001,0.743-0.6,1.346-1.343,1.347c0,0,0,0,0,0V17.986z"/>
	<path style="fill:#1D9CD3;" d="M24.552,29.2c0.758,0.756,1.98,0.771,2.757,0.034l0.038-0.035l1.883-1.885l1.378,1.378l-1.89,1.891
		c-0.769,0.773-0.766,2.024,0.007,2.793c0.773,0.769,2.024,0.766,2.793-0.007l1.882-1.881l0.634,0.635
		c0.671,0.705,1.752,0.828,2.564,0.29c0.901-0.615,1.134-1.844,0.519-2.746c-0.069-0.101-0.147-0.195-0.234-0.282l0,0L26.56,19.061
		c1.275-2.788,0.098-6.084-2.653-7.435c-2.654-1.293-5.856-0.337-7.366,2.2c-1.592,2.69-0.702,6.162,1.988,7.754
		c1.596,0.944,3.553,1.047,5.239,0.275l2.67,2.674l-1.887,1.881C23.783,27.182,23.784,28.429,24.552,29.2z M25.258,27.115
		l2.242-2.232c0.196-0.195,0.196-0.512,0.001-0.707c0,0-0.001-0.001-0.001-0.001l-3.279-3.283c-0.157-0.157-0.397-0.192-0.592-0.086
		c-2.263,1.226-5.091,0.385-6.317-1.878c-0.78-1.44-0.747-3.184,0.088-4.594c1.261-2.065,3.876-2.846,6.063-1.81
		c2.311,1.133,3.265,3.925,2.132,6.236c-0.027,0.055-0.055,0.11-0.085,0.164c-0.105,0.194-0.07,0.435,0.086,0.591l10.58,10.577
		c0.381,0.382,0.379,1.001-0.003,1.382c-0.044,0.044-0.092,0.084-0.144,0.118c-0.416,0.255-0.954,0.183-1.287-0.174l-0.987-0.99
		c-0.094-0.094-0.221-0.147-0.353-0.147l0,0c-0.132,0-0.259,0.053-0.353,0.147l-2.233,2.231c-0.387,0.374-1.003,0.364-1.377-0.023
		c-0.172-0.178-0.27-0.414-0.274-0.661c-0.006-0.256,0.09-0.503,0.267-0.688l2.238-2.238c0.195-0.195,0.195-0.512,0-0.707
		l-2.086-2.085c-0.195-0.195-0.512-0.195-0.707,0l-2.205,2.207l-0.034,0.031c-0.38,0.381-0.997,0.381-1.378,0.001
		s-0.381-0.997-0.001-1.378l0,0L25.258,27.115z"/>
	<path style="fill:#1D9CD3;" d="M10.167,40.755h6.675c0.276,0,0.5-0.224,0.5-0.5v-5.834c0-0.276-0.224-0.5-0.5-0.5H16.5v-1.166
		c0-1.657-1.343-3-3-3s-3,1.343-3,3v1.166h-0.338c-0.276,0-0.5,0.224-0.5,0.5v5.834c0,0.276,0.224,0.5,0.5,0.5
		C10.164,40.755,10.165,40.755,10.167,40.755z M16.342,39.755h-5.675v-4.834h5.675V39.755z M11.505,32.755c0-1.105,0.895-2,2-2
		s2,0.895,2,2v1.166h-4V32.755z"/>
</g>
</svg>
