<?xml version="1.0" encoding="utf-8"?>
<!-- Generator: Adobe Illustrator 25.2.3, SVG Export Plug-In . SVG Version: 6.00 Build 0)  -->
<svg version="1.1" id="a1f05e46-df0e-4b9e-85a8-797d434fe500"
	 xmlns="http://www.w3.org/2000/svg" xmlns:xlink="http://www.w3.org/1999/xlink" x="0px" y="0px" viewBox="0 0 50 50"
	 style="enable-background:new 0 0 50 50;" xml:space="preserve">
<path style="fill:#FFFFFF;" d="M18.491,28.312c-1.409-0.001-2.552,1.142-2.553,2.551c-0.001,1.409,1.142,2.552,2.551,2.553
	c1.409,0.001,2.552-1.142,2.553-2.551c0-0.001,0-0.001,0-0.002C21.04,29.455,19.899,28.314,18.491,28.312z M18.491,32.412
	c-0.857,0.001-1.552-0.694-1.553-1.551c-0.001-0.857,0.694-1.552,1.551-1.553c0.857-0.001,1.552,0.694,1.553,1.551
	c0,0,0,0.001,0,0.001c0.001,0.857-0.694,1.553-1.551,1.555V32.412z"/>
<path style="fill:#FFFFFF;" d="M34.93,17.531l0.747-0.745c0.767-0.729,0.9-1.903,0.316-2.786c-0.669-0.978-2.004-1.228-2.981-0.56
	c-0.108,0.074-0.21,0.158-0.303,0.251l0,0l-11.52,11.522c-3.08-1.432-6.739-0.139-8.235,2.91c-1.525,3.089-0.257,6.829,2.831,8.354
	c1.38,0.681,2.962,0.828,4.444,0.413c3.322-0.922,5.267-4.363,4.345-7.684c-0.092-0.331-0.211-0.653-0.356-0.965l3.045-3.041
	l2.137,2.14c0.4,0.403,0.946,0.629,1.514,0.627l0,0c1.182,0.001,2.141-0.957,2.141-2.139c0-0.551-0.211-1.08-0.591-1.478
	c-0.011-0.015-0.023-0.029-0.036-0.041l-2.138-2.136l1.61-1.614l2.144,2.141c0.857,0.816,2.212,0.783,3.028-0.073
	c0.791-0.83,0.788-2.135-0.006-2.962L34.93,17.531z M36.353,21.955c-0.436,0.451-1.154,0.466-1.608,0.034L32.254,19.5
	c-0.199-0.187-0.508-0.187-0.707,0l-2.32,2.321c-0.094,0.094-0.147,0.221-0.147,0.354c0,0.132,0.053,0.259,0.147,0.353l2.458,2.457
	c0.01,0.013,0.021,0.025,0.033,0.036c0.446,0.445,0.446,1.168,0,1.614c-0.214,0.214-0.505,0.334-0.807,0.334l0,0
	c-0.303,0.001-0.593-0.119-0.807-0.333l-2.486-2.496c-0.094-0.094-0.221-0.147-0.354-0.147l0,0c-0.133,0-0.26,0.052-0.354,0.146
	l-3.654,3.65c-0.156,0.156-0.192,0.396-0.087,0.591c1.378,2.546,0.432,5.727-2.114,7.105c-1.62,0.877-3.582,0.839-5.167-0.099
	c-2.322-1.419-3.201-4.362-2.036-6.822c1.268-2.596,4.401-3.673,6.998-2.404c0.068,0.033,0.136,0.068,0.202,0.104
	c0.195,0.105,0.435,0.069,0.591-0.087L33.416,14.4c0.449-0.446,1.174-0.443,1.619,0.005c0.05,0.051,0.096,0.106,0.136,0.165
	c0.3,0.486,0.216,1.115-0.2,1.506l-1.1,1.1c-0.195,0.195-0.195,0.512,0,0.707l2.484,2.486
	C36.784,20.811,36.783,21.514,36.353,21.955z"/>
<path style="fill:#FFFFFF;" d="M46.47,38.416l-5.964,0.092c7.387-8.603,6.401-21.565-2.202-28.952
	C31.065,3.341,20.498,2.931,12.8,8.568c-0.235,0.145-0.307,0.453-0.162,0.688c0.145,0.235,0.453,0.307,0.688,0.162
	c0.024-0.015,0.047-0.032,0.068-0.05c8.704-6.373,20.926-4.484,27.3,4.22c5.319,7.264,4.984,17.222-0.811,24.112l-0.109-5.758
	c0.003-0.268-0.212-0.487-0.479-0.491c-0.01,0-0.02,0-0.03,0.001c-0.276,0.005-0.496,0.233-0.491,0.509c0,0,0,0,0,0l0.133,7.021
	c-0.012,0.145,0.041,0.289,0.145,0.391l0,0c0.094,0.094,0.221,0.147,0.353,0.147h0.008l7.069-0.109
	c0.276-0.004,0.497-0.231,0.493-0.507c0,0,0-0.001,0-0.001c-0.003-0.272-0.227-0.49-0.499-0.487
	C46.474,38.416,46.472,38.416,46.47,38.416z"/>
<path style="fill:#FFFFFF;" d="M36.592,40.815c-8.702,6.375-20.925,4.489-27.301-4.214c-5.327-7.272-4.986-17.244,0.825-24.135
	l0.11,5.792c0.005,0.273,0.227,0.491,0.5,0.491h0.009c0.276-0.005,0.496-0.233,0.491-0.509c0,0,0,0,0,0l-0.134-7.071
	c0.005-0.253-0.189-0.465-0.441-0.484c-0.037-0.006-0.075-0.008-0.112-0.006l-7.024,0.109c-0.276,0.004-0.497,0.231-0.493,0.507
	c0,0,0,0,0,0c-0.004,0.268,0.21,0.489,0.478,0.493c0.01,0,0.02,0,0.03,0L9.463,11.7c-7.392,8.595-6.417,21.554,2.177,28.946
	c7.249,6.235,17.843,6.639,25.546,0.974c0.207-0.183,0.227-0.499,0.044-0.706c-0.161-0.183-0.431-0.222-0.638-0.094V40.815z"/>
</svg>
