<?xml version="1.0" encoding="utf-8"?>
<!-- Generator: Adobe Illustrator 25.2.3, SVG Export Plug-In . SVG Version: 6.00 Build 0)  -->
<svg version="1.1" xmlns="http://www.w3.org/2000/svg" xmlns:xlink="http://www.w3.org/1999/xlink" x="0px" y="0px"
	 viewBox="0 0 50 50" style="enable-background:new 0 0 50 50;" xml:space="preserve">
<g id="Layer_1">
</g>
<g id="Icons">
</g>
<g id="Isolation_Mode">
	<path d="M16.315,19.941H14.97c-0.276,0-0.5,0.224-0.5,0.5s0.224,0.5,0.5,0.5h1.346c0.276,0,0.5-0.224,0.5-0.5
		S16.592,19.941,16.315,19.941z"/>
	<path d="M25.84,19.941h-2.721c-0.276,0-0.5,0.224-0.5,0.5s0.224,0.5,0.5,0.5h2.721c0.276,0,0.5-0.224,0.5-0.5
		S26.117,19.941,25.84,19.941z"/>
	<path d="M30.603,19.941h-2.722c-0.276,0-0.5,0.224-0.5,0.5s0.224,0.5,0.5,0.5h2.722c0.276,0,0.5-0.224,0.5-0.5
		S30.879,19.941,30.603,19.941z"/>
	<path d="M21.078,19.941h-2.722c-0.276,0-0.5,0.224-0.5,0.5s0.224,0.5,0.5,0.5h2.722c0.276,0,0.5-0.224,0.5-0.5
		S21.354,19.941,21.078,19.941z"/>
	<path d="M34.489,20.441c0-0.276-0.224-0.5-0.5-0.5h-1.345c-0.276,0-0.5,0.224-0.5,0.5s0.224,0.5,0.5,0.5h1.345
		C34.266,20.941,34.489,20.718,34.489,20.441z"/>
	<path d="M33.636,17.394c-0.196,0.194-0.196,0.512-0.001,0.707l2.389,2.394l-2.389,2.394c-0.195,0.195-0.195,0.513,0.001,0.707
		c0.098,0.098,0.225,0.146,0.353,0.146s0.256-0.049,0.354-0.146l2.742-2.747c0.195-0.195,0.195-0.512,0-0.707l-2.742-2.747
		C34.148,17.198,33.832,17.198,33.636,17.394z"/>
	<path d="M15.657,17.779c0.098,0.098,0.226,0.146,0.354,0.146s0.255-0.049,0.353-0.146c0.196-0.194,0.196-0.512,0.001-0.707
		l-1.89-1.894h20.757c0.276,0,0.5-0.224,0.5-0.5s-0.224-0.5-0.5-0.5H14.475l1.89-1.893c0.195-0.195,0.195-0.513-0.001-0.707
		c-0.194-0.195-0.512-0.195-0.707,0l-2.742,2.746c-0.195,0.195-0.195,0.512,0,0.707L15.657,17.779z"/>
	<path d="M45.5,29.248V7.5C45.5,7.224,45.276,7,45,7H5C4.724,7,4.5,7.224,4.5,7.5v21.748c-0.369,0.303-1,1-1,2.252
		c0,1.728,1.208,2.41,1.259,2.438C4.833,33.979,4.916,34,5,34h10.425c0.263,5.005,4.405,9,9.475,9s9.212-3.995,9.475-9H45
		c0.084,0,0.167-0.021,0.241-0.062C45.292,33.91,46.5,33.228,46.5,31.5C46.5,30.248,45.869,29.551,45.5,29.248z M44.5,8v21H33.263
		c-1.607-2.974-4.753-5-8.364-5s-6.757,2.026-8.364,5H5.5V8H44.5z M4.5,31.5c0-0.892,0.456-1.346,0.653-1.5h10.924
		c-0.373,0.937-0.596,1.946-0.651,3H5.154C4.953,32.843,4.5,32.39,4.5,31.5z M24.9,42c-4.687,0-8.5-3.813-8.5-8.5s3.813-8.5,8.5-8.5
		s8.5,3.813,8.5,8.5S29.587,42,24.9,42z M44.847,33H34.375c-0.055-1.054-0.278-2.063-0.651-3h11.123
		c0.201,0.157,0.654,0.61,0.654,1.5C45.5,32.392,45.044,32.846,44.847,33z"/>
	<path d="M27.98,31.467c-0.531-0.811-1.345-1.364-2.293-1.562c-0.947-0.196-1.916-0.014-2.726,0.517
		c-0.81,0.531-1.364,1.346-1.561,2.294c-0.197,0.947-0.013,1.915,0.518,2.725s1.345,1.364,2.293,1.562
		c0.248,0.052,0.497,0.077,0.745,0.077c0.698,0,1.382-0.203,1.98-0.595c0.81-0.531,1.364-1.345,1.561-2.293
		C28.694,33.244,28.511,32.276,27.98,31.467z M27.763,34.039c-0.156,0.751-0.596,1.397-1.238,1.818
		c-0.643,0.421-1.411,0.566-2.162,0.41c-0.751-0.156-1.397-0.596-1.818-1.238c-0.421-0.642-0.567-1.409-0.411-2.161
		s0.596-1.397,1.238-1.818c0.474-0.311,1.016-0.472,1.569-0.472c0.197,0,0.395,0.021,0.592,0.062
		c0.751,0.156,1.397,0.596,1.818,1.238C27.773,32.52,27.919,33.287,27.763,34.039z"/>
	<path d="M30.922,30.754c-0.004-0.042,0.003-0.084-0.015-0.123c-0.168-0.35-0.369-0.688-0.597-1.007
		c-0.004-0.005-0.01-0.005-0.014-0.01c-0.045-0.056-0.102-0.097-0.168-0.12c-0.013-0.004-0.024-0.006-0.037-0.009
		c-0.071-0.017-0.145-0.02-0.218,0.007l-1.319,0.497c-0.051-0.054-0.104-0.105-0.157-0.156l0.456-1.359
		c0.024-0.072,0.019-0.144,0.001-0.212c-0.004-0.014-0.006-0.026-0.011-0.039c-0.025-0.065-0.065-0.12-0.122-0.163
		c-0.004-0.003-0.005-0.009-0.009-0.012c-0.314-0.219-0.656-0.414-1.016-0.581c-0.006-0.003-0.012,0-0.018-0.002
		c-0.065-0.026-0.134-0.034-0.202-0.022c-0.015,0.003-0.027,0.008-0.042,0.012c-0.068,0.02-0.133,0.053-0.182,0.112l-0.904,1.082
		c-0.083-0.025-0.167-0.049-0.253-0.069l-0.284-1.401c-0.015-0.076-0.057-0.137-0.108-0.189c-0.008-0.008-0.013-0.015-0.022-0.022
		c-0.056-0.048-0.123-0.078-0.197-0.085c-0.003,0-0.005-0.003-0.007-0.003c-0.388-0.035-0.783-0.035-1.172,0
		c-0.007,0.001-0.011,0.007-0.018,0.008c-0.07,0.01-0.133,0.038-0.186,0.082c-0.012,0.01-0.019,0.02-0.03,0.031
		c-0.05,0.052-0.09,0.113-0.103,0.188l-0.241,1.388c-0.099,0.023-0.197,0.05-0.293,0.079l-0.958-1.066
		c-0.063-0.07-0.147-0.103-0.236-0.113c-0.03-0.004-0.053,0.007-0.083,0.01c-0.041,0.004-0.083-0.003-0.122,0.015
		c-0.352,0.168-0.691,0.368-1.008,0.594c-0.005,0.004-0.006,0.011-0.011,0.015c-0.057,0.044-0.097,0.101-0.121,0.168
		c-0.004,0.013-0.006,0.024-0.009,0.037c-0.017,0.07-0.02,0.145,0.007,0.218l0.496,1.317c-0.053,0.052-0.106,0.103-0.157,0.157
		l-1.361-0.457c-0.072-0.024-0.144-0.019-0.212-0.001c-0.014,0.004-0.025,0.006-0.038,0.011c-0.064,0.025-0.12,0.065-0.163,0.121
		c-0.003,0.004-0.009,0.005-0.012,0.009c-0.222,0.315-0.418,0.656-0.584,1.014c-0.003,0.006,0,0.012-0.002,0.018
		c-0.027,0.067-0.034,0.136-0.022,0.206c0.002,0.013,0.007,0.023,0.01,0.036c0.02,0.07,0.054,0.136,0.114,0.187l1.082,0.903
		c-0.023,0.079-0.045,0.16-0.067,0.251l-1.408,0.282c-0.075,0.015-0.135,0.056-0.185,0.106c-0.01,0.01-0.019,0.017-0.028,0.028
		c-0.044,0.054-0.072,0.117-0.081,0.187c-0.001,0.005-0.006,0.009-0.006,0.014c-0.035,0.391-0.035,0.785-0.001,1.17
		c0.001,0.006,0.006,0.01,0.007,0.016c0.01,0.072,0.038,0.136,0.084,0.19c0.008,0.01,0.017,0.017,0.027,0.026
		c0.052,0.051,0.115,0.091,0.191,0.105l1.39,0.243c0.023,0.1,0.05,0.198,0.08,0.295l-1.068,0.955
		c-0.07,0.062-0.104,0.147-0.114,0.236c-0.004,0.029,0.007,0.052,0.01,0.081c0.004,0.042-0.003,0.084,0.015,0.124
		c0.168,0.352,0.368,0.69,0.595,1.007c0.005,0.006,0.012,0.009,0.017,0.014c0.026,0.033,0.058,0.058,0.093,0.08
		c0.012,0.008,0.021,0.018,0.034,0.024c0.047,0.022,0.099,0.035,0.152,0.037c0.003,0,0.006,0.002,0.009,0.002
		c0.044,0,0.088-0.008,0.132-0.023l1.32-0.495c0.051,0.053,0.103,0.105,0.156,0.156l-0.458,1.357
		c-0.024,0.072-0.019,0.144-0.001,0.213c0.004,0.014,0.006,0.026,0.011,0.039c0.025,0.065,0.065,0.121,0.122,0.164
		c0.004,0.003,0.004,0.008,0.008,0.011c0.313,0.22,0.655,0.416,1.015,0.584c0.007,0.003,0.015,0.002,0.022,0.005
		c0.032,0.013,0.065,0.018,0.099,0.022c0.013,0.001,0.025,0.008,0.038,0.008c0.005,0,0.009-0.003,0.014-0.003
		c0.037-0.001,0.072-0.011,0.107-0.023c0.014-0.005,0.028-0.006,0.042-0.012c0.047-0.022,0.09-0.053,0.125-0.095l0.906-1.081
		c0.078,0.023,0.161,0.046,0.251,0.067l0.283,1.405c0.017,0.085,0.064,0.156,0.127,0.209c0.023,0.02,0.054,0.022,0.081,0.035
		c0.041,0.021,0.078,0.051,0.126,0.055c0.011,0.001,0.022,0,0.032,0.001c0,0,0.001,0,0.001,0c0.001,0,0.002,0,0.003,0
		c0.187,0.016,0.375,0.026,0.562,0.026c0.18,0,0.359-0.008,0.537-0.024c0.001,0,0.003,0,0.004,0c0.001,0,0.001-0.001,0.002-0.001
		c0.01-0.001,0.021,0,0.031-0.001c0.049-0.004,0.087-0.035,0.129-0.057c0.028-0.014,0.059-0.016,0.082-0.036
		c0.063-0.055,0.109-0.128,0.125-0.216l0.244-1.386c0.105-0.025,0.209-0.054,0.312-0.085l0.96,1.064
		c0.065,0.073,0.154,0.109,0.247,0.117c0.007,0.001,0.011,0.004,0.018,0.004c0.005,0,0.009,0.003,0.014,0.003
		c0.055,0,0.111-0.012,0.163-0.037c0.355-0.171,0.694-0.371,1.007-0.596c0.005-0.004,0.005-0.01,0.01-0.014
		c0.057-0.045,0.098-0.102,0.121-0.169c0.004-0.013,0.006-0.024,0.009-0.037c0.017-0.07,0.02-0.145-0.008-0.217l-0.498-1.315
		c0.053-0.052,0.105-0.104,0.156-0.157l1.363,0.454c0.039,0.014,0.079,0.02,0.119,0.02c0.004,0,0.007-0.003,0.011-0.003
		c0.113-0.003,0.215-0.057,0.284-0.147c0.003-0.005,0.009-0.006,0.012-0.011c0.219-0.313,0.415-0.654,0.582-1.016
		c0.003-0.006,0-0.012,0.002-0.018c0.027-0.067,0.035-0.137,0.022-0.206c-0.002-0.013-0.007-0.023-0.011-0.036
		c-0.02-0.07-0.054-0.136-0.114-0.185l-1.084-0.9c0.023-0.078,0.045-0.161,0.066-0.251l1.408-0.286
		c0.074-0.015,0.134-0.056,0.184-0.105c0.01-0.01,0.02-0.018,0.029-0.029c0.044-0.054,0.072-0.117,0.081-0.187
		c0.001-0.005,0.005-0.008,0.006-0.014c0.034-0.392,0.034-0.785-0.001-1.169c-0.001-0.006-0.006-0.01-0.007-0.016
		c-0.01-0.071-0.038-0.135-0.084-0.189c-0.009-0.01-0.018-0.017-0.028-0.027c-0.052-0.05-0.114-0.09-0.191-0.103l-1.391-0.24
		c-0.024-0.1-0.051-0.198-0.08-0.296l1.066-0.956c0.07-0.063,0.103-0.148,0.113-0.237C30.935,30.806,30.925,30.783,30.922,30.754z
		 M27.701,38.691l-0.931-1.032c-0.062-0.068-0.146-0.1-0.233-0.111c-0.025-0.003-0.046,0.002-0.071,0.004
		c-0.034,0.002-0.069-0.007-0.102,0.006c-0.222,0.08-0.455,0.143-0.692,0.186c-0.002,0-0.004,0.003-0.006,0.003
		c-0.066,0.013-0.123,0.047-0.172,0.091c-0.012,0.011-0.022,0.021-0.032,0.034c-0.044,0.05-0.079,0.107-0.091,0.177l-0.237,1.346
		c-0.158,0.006-0.317,0.007-0.475-0.001l-0.275-1.364c-0.034-0.166-0.172-0.282-0.334-0.295c-0.01-0.003-0.021-0.009-0.03-0.011
		c-0.198-0.041-0.39-0.097-0.575-0.162c-0.002-0.001-0.004,0-0.006,0c-0.064-0.021-0.13-0.021-0.196-0.007
		c-0.015,0.003-0.028,0.007-0.043,0.012c-0.063,0.021-0.122,0.053-0.168,0.107l-0.879,1.049c-0.142-0.074-0.279-0.153-0.412-0.236
		l0.445-1.318c0.022-0.066,0.019-0.132,0.006-0.195c-0.003-0.016-0.007-0.029-0.012-0.044c-0.021-0.062-0.053-0.12-0.104-0.164
		c0,0,0-0.001-0.001-0.001c-0.159-0.137-0.308-0.286-0.445-0.445c-0.002-0.002-0.005-0.002-0.006-0.004
		c-0.045-0.05-0.102-0.082-0.165-0.102c-0.015-0.005-0.029-0.008-0.044-0.01c-0.065-0.012-0.133-0.014-0.2,0.01l-1.282,0.48
		c-0.086-0.133-0.166-0.269-0.241-0.408l1.036-0.927c0.068-0.061,0.1-0.144,0.111-0.231c0.004-0.027-0.002-0.048-0.004-0.075
		c-0.002-0.034,0.007-0.067-0.005-0.1c-0.078-0.217-0.139-0.444-0.181-0.678c0-0.003-0.003-0.004-0.003-0.006
		c-0.013-0.066-0.047-0.123-0.091-0.173c-0.01-0.012-0.02-0.021-0.032-0.031c-0.05-0.044-0.108-0.08-0.178-0.092l-1.349-0.235
		c-0.006-0.157-0.006-0.315,0.001-0.473l1.366-0.274c0.165-0.033,0.277-0.171,0.294-0.33c0.004-0.012,0.01-0.025,0.013-0.037
		c0.042-0.196,0.096-0.387,0.162-0.571c0.001-0.002-0.001-0.005,0-0.007c0.021-0.064,0.021-0.131,0.007-0.196
		c-0.003-0.015-0.007-0.028-0.012-0.042c-0.021-0.063-0.054-0.123-0.109-0.169l-1.05-0.876c0.074-0.141,0.152-0.278,0.236-0.41
		l1.321,0.443c0.04,0.013,0.08,0.02,0.12,0.02c0.004,0,0.007-0.002,0.011-0.002c0.044-0.001,0.086-0.011,0.127-0.027
		c0.006-0.003,0.013-0.003,0.02-0.005c0.048-0.022,0.091-0.053,0.126-0.094c0,0,0.001,0,0.001-0.001
		c0.138-0.16,0.287-0.309,0.446-0.445c0.002-0.002,0.002-0.005,0.004-0.006c0.051-0.045,0.083-0.103,0.103-0.167
		c0.005-0.014,0.007-0.027,0.01-0.042c0.013-0.065,0.014-0.133-0.011-0.2l-0.481-1.278c0.133-0.086,0.27-0.166,0.41-0.241
		l0.93,1.035c0.064,0.071,0.153,0.109,0.246,0.117c0.007,0.001,0.012,0.004,0.019,0.004c0.005,0,0.009,0.003,0.014,0.003
		c0.043,0,0.086-0.007,0.127-0.022c0.214-0.077,0.441-0.139,0.674-0.181c0.002,0,0.003-0.002,0.004-0.002
		c0.069-0.013,0.128-0.047,0.178-0.094c0.01-0.009,0.018-0.018,0.027-0.028c0.045-0.051,0.081-0.109,0.093-0.18l0.234-1.347
		c0.16-0.006,0.318-0.006,0.476,0l0.276,1.362c0.01,0.051,0.044,0.098,0.085,0.141c0.041,0.053,0.088,0.088,0.149,0.113
		c0.047,0.025,0.095,0.045,0.139,0.054c0.195,0.04,0.384,0.096,0.567,0.159c0.002,0.001,0.004,0,0.006,0.001
		c0.018,0.006,0.035,0.006,0.053,0.009c0.022,0.004,0.043,0.011,0.065,0.011c0.005,0,0.009-0.003,0.014-0.003
		c0.039-0.001,0.076-0.012,0.113-0.025c0.012-0.004,0.024-0.005,0.036-0.01c0.047-0.023,0.09-0.054,0.126-0.096l0.878-1.051
		c0.142,0.074,0.28,0.152,0.413,0.236l-0.442,1.318c-0.022,0.066-0.019,0.132-0.005,0.195c0.003,0.015,0.007,0.028,0.012,0.043
		c0.021,0.062,0.053,0.12,0.103,0.164c0,0,0,0.001,0.001,0.001c0.16,0.138,0.309,0.285,0.446,0.444
		c0.002,0.002,0.005,0.003,0.007,0.005c0.07,0.077,0.168,0.122,0.272,0.124c0.002,0,0.003,0.001,0.005,0.001
		c0.044,0,0.089-0.008,0.132-0.024l1.281-0.482c0.086,0.133,0.167,0.269,0.242,0.408l-1.034,0.928
		c-0.068,0.061-0.099,0.144-0.111,0.232c-0.004,0.027,0.001,0.048,0.004,0.075c0.002,0.034-0.007,0.067,0.005,0.099
		c0.079,0.22,0.141,0.447,0.184,0.679c0,0.002,0.003,0.003,0.003,0.005c0.013,0.067,0.047,0.124,0.092,0.174
		c0.01,0.011,0.02,0.02,0.031,0.03c0.05,0.044,0.108,0.08,0.178,0.092l1.35,0.233c0.006,0.156,0.006,0.314,0,0.473l-1.366,0.277
		c-0.165,0.034-0.278,0.172-0.293,0.332c-0.005,0.015-0.012,0.03-0.015,0.044c-0.04,0.193-0.094,0.381-0.158,0.562
		c-0.001,0.002,0,0.004,0,0.007c-0.022,0.065-0.021,0.131-0.007,0.197c0.003,0.015,0.007,0.027,0.012,0.042
		c0.022,0.063,0.054,0.123,0.109,0.168l1.052,0.874c-0.074,0.142-0.152,0.279-0.235,0.412l-1.322-0.441
		c-0.065-0.023-0.131-0.02-0.194-0.006c-0.016,0.003-0.031,0.007-0.046,0.013c-0.062,0.022-0.119,0.054-0.162,0.104
		c0,0-0.001,0-0.001,0.001c-0.138,0.159-0.287,0.309-0.445,0.446c-0.002,0.002-0.002,0.004-0.003,0.006
		c-0.05,0.045-0.083,0.103-0.103,0.167c-0.005,0.015-0.007,0.028-0.01,0.043c-0.012,0.066-0.014,0.134,0.011,0.201l0.483,1.277
		C27.979,38.535,27.842,38.616,27.701,38.691z"/>
</g>
</svg>
