<?xml version="1.0" encoding="utf-8"?>
<!-- Generator: Adobe Illustrator 25.2.3, SVG Export Plug-In . SVG Version: 6.00 Build 0)  -->
<svg version="1.1" xmlns="http://www.w3.org/2000/svg" xmlns:xlink="http://www.w3.org/1999/xlink" x="0px" y="0px"
	 viewBox="0 0 50 50" style="enable-background:new 0 0 50 50;" xml:space="preserve">
<g id="Layer_1">
</g>
<g id="Icons">
</g>
<g id="Isolation_Mode">
	<path d="M27.976,35.525h-6c-0.276,0-0.5,0.224-0.5,0.5s0.224,0.5,0.5,0.5h6c0.276,0,0.5-0.224,0.5-0.5S28.252,35.525,27.976,35.525
		z"/>
	<path d="M45.476,33.773V12.025c0-0.276-0.224-0.5-0.5-0.5h-40c-0.276,0-0.5,0.224-0.5,0.5v21.748c-0.369,0.303-1,1.001-1,2.252
		c0,1.727,1.208,2.41,1.259,2.438c0.074,0.041,0.157,0.062,0.241,0.062h40c0.084,0,0.167-0.021,0.241-0.062
		c0.051-0.028,1.259-0.711,1.259-2.438C46.476,34.773,45.845,34.076,45.476,33.773z M44.476,12.525v21h-39v-21H44.476z
		 M44.822,37.525H5.129c-0.2-0.157-0.653-0.611-0.653-1.5c0-0.892,0.456-1.346,0.653-1.5h39.693c0.2,0.157,0.653,0.611,0.653,1.5
		C45.476,36.914,45.022,37.368,44.822,37.525z"/>
	<path d="M20.646,27.511c0.081,0.048,0.169,0.071,0.257,0.071c0.17,0,0.336-0.087,0.429-0.244c0.143-0.237,0.064-0.544-0.172-0.686
		l-6.067-3.627l6.067-3.628c0.236-0.142,0.314-0.449,0.172-0.686c-0.142-0.237-0.448-0.314-0.686-0.172l-6.785,4.057
		c-0.15,0.09-0.243,0.253-0.243,0.429s0.093,0.339,0.243,0.429L20.646,27.511z"/>
	<path d="M28.618,27.338c0.093,0.157,0.259,0.244,0.429,0.244c0.088,0,0.176-0.023,0.257-0.071l6.785-4.057
		c0.15-0.09,0.243-0.253,0.243-0.429s-0.093-0.339-0.243-0.429l-6.785-4.057c-0.238-0.142-0.545-0.065-0.686,0.172
		c-0.143,0.237-0.064,0.544,0.172,0.686l6.067,3.628l-6.067,3.627C28.554,26.794,28.476,27.101,28.618,27.338z"/>
	<path d="M23.46,27.556c0.052,0.018,0.105,0.026,0.158,0.026c0.209,0,0.404-0.132,0.475-0.341l2.714-8.114
		c0.087-0.262-0.054-0.545-0.316-0.633c-0.256-0.087-0.545,0.054-0.633,0.315l-2.714,8.114
		C23.057,27.185,23.197,27.468,23.46,27.556z"/>
</g>
</svg>
