<?xml version="1.0" encoding="utf-8"?>
<!-- Generator: Adobe Illustrator 25.2.3, SVG Export Plug-In . SVG Version: 6.00 Build 0)  -->
<svg version="1.1" id="Layer_1" xmlns="http://www.w3.org/2000/svg" xmlns:xlink="http://www.w3.org/1999/xlink" x="0px" y="0px"
	 viewBox="0 0 50 50" style="enable-background:new 0 0 50 50;" xml:space="preserve">
<g id="e2ca807d-e17c-423c-ab0e-80a110cca18a">
	<path style="fill:#1D9CD3;" d="M4.5,29.98c-0.007,0.189,0.093,0.367,0.259,0.458l20,11c0.15,0.083,0.332,0.083,0.482,0l20-11
		c0.242-0.133,0.33-0.437,0.197-0.679c-0.052-0.095-0.134-0.17-0.233-0.215l-5.086-2.289l5.122-2.817
		c0.242-0.133,0.33-0.437,0.197-0.679c-0.052-0.095-0.134-0.17-0.233-0.215l-5.086-2.289l5.122-2.817
		c0.242-0.133,0.33-0.437,0.197-0.679c-0.052-0.095-0.134-0.17-0.233-0.215l-20-9c-0.13-0.059-0.28-0.059-0.41,0l-20,9
		c-0.252,0.113-0.364,0.409-0.251,0.661c0.044,0.099,0.12,0.181,0.215,0.233l5.122,2.817L4.8,23.544
		c-0.252,0.113-0.364,0.409-0.251,0.661c0.044,0.099,0.12,0.181,0.215,0.233l5.122,2.817L4.8,29.544
		C4.625,29.62,4.509,29.789,4.5,29.98z M25,9.548l18.881,8.5l-5.121,2.814l0,0l-6,3.3l0,0L25,28.429l-7.758-4.266l0,0l-6-3.3l0,0
		l-5.123-2.818L25,9.548z M10.978,21.858l5.781,3.18l0,0l8,4.4c0.15,0.083,0.332,0.083,0.482,0l8-4.4l0,0l5.781-3.18l4.859,2.187
		l-5.122,2.817L25,34.429l-13.759-7.567l-5.122-2.817L10.978,21.858z M10.978,27.858l13.781,7.58c0.15,0.083,0.332,0.083,0.482,0
		l13.781-7.58l4.859,2.187L25,40.429L6.119,30.045L10.978,27.858z"/>
</g>
</svg>
