<?xml version="1.0" encoding="utf-8"?>
<!-- Generator: Adobe Illustrator 25.2.3, SVG Export Plug-In . SVG Version: 6.00 Build 0)  -->
<svg version="1.1" id="Layer_1" xmlns="http://www.w3.org/2000/svg" xmlns:xlink="http://www.w3.org/1999/xlink" x="0px" y="0px"
	 viewBox="0 0 50 50" style="enable-background:new 0 0 50 50;" xml:space="preserve">
<g id="f47ca4d2-fe13-45ce-b02c-435ec54030a8">
	<path style="fill:#FFFFFF;" d="M6.925,37.5h20.8c1.336,0.001,2.42-1.08,2.424-2.416V21.956c-0.004-1.336-1.088-2.417-2.424-2.416
		h-5.55c-0.276,0-0.5,0.224-0.5,0.5s0.224,0.5,0.5,0.5h5.55c0.784-0.001,1.421,0.632,1.424,1.416v13.128
		c-0.003,0.783-0.639,1.416-1.422,1.416H6.925c-0.784,0.002-1.422-0.632-1.425-1.416V21.956c0.003-0.784,0.641-1.418,1.425-1.416
		h11.23c0.276,0,0.5-0.224,0.5-0.5s-0.224-0.5-0.5-0.5H6.925c-1.336-0.001-2.421,1.08-2.425,2.416v13.128
		C4.504,36.42,5.589,37.501,6.925,37.5z"/>
	<path style="fill:#FFFFFF;" d="M22.273,30.46h5.3c0.276,0,0.5-0.224,0.5-0.5s-0.224-0.5-0.5-0.5h-5.3
		c-0.784,0.001-1.421-0.632-1.424-1.416V14.916c0.003-0.784,0.64-1.417,1.424-1.416h20.8c0.785-0.003,1.424,0.631,1.427,1.416
		v13.128c-0.003,0.784-0.641,1.418-1.425,1.416h-11.69c-0.276,0-0.5,0.224-0.5,0.5s0.224,0.5,0.5,0.5h11.69
		c1.336,0.001,2.421-1.08,2.425-2.416V14.916c-0.004-1.336-1.089-2.417-2.425-2.416h-20.8c-1.336-0.001-2.42,1.08-2.424,2.416
		v13.128C19.855,29.379,20.938,30.459,22.273,30.46z"/>
</g>
</svg>
