<?xml version="1.0" encoding="utf-8"?>
<!-- Generator: Adobe Illustrator 25.2.3, SVG Export Plug-In . SVG Version: 6.00 Build 0)  -->
<svg version="1.1" id="Layer_1" xmlns="http://www.w3.org/2000/svg" xmlns:xlink="http://www.w3.org/1999/xlink" x="0px" y="0px"
	 viewBox="0 0 50 50" style="enable-background:new 0 0 50 50;" xml:space="preserve">
<g id="bc34f4ac-b0c6-463d-b542-0f4ec27dac12">
	<path style="fill:#1D9CD3;" d="M23.3,36.551l1.412-3.2c0.128-0.245,0.033-0.547-0.212-0.674c-0.245-0.128-0.547-0.033-0.674,0.212
		c-0.01,0.02-0.02,0.041-0.027,0.062L22.406,36.1c-0.661,1.375-2.005,2.293-3.526,2.408H8.2l3.115-3.138
		c0.21-0.179,0.235-0.495,0.056-0.705c-0.179-0.21-0.495-0.235-0.705-0.056c-0.022,0.019-0.042,0.039-0.06,0.061l-3.957,3.984
		c-0.047,0.047-0.085,0.103-0.111,0.165c-0.077,0.187-0.033,0.403,0.111,0.545l3.957,3.988c0.176,0.212,0.492,0.241,0.704,0.065
		c0.212-0.176,0.241-0.492,0.065-0.704c-0.018-0.022-0.038-0.042-0.06-0.061L8.2,39.509h10.68
		C20.789,39.423,22.493,38.283,23.3,36.551z"/>
	<path style="fill:#1D9CD3;" d="M39.687,26.062c0.195,0.195,0.512,0.195,0.707,0l3.96-3.99C44.372,22.05,44.387,22.025,44.4,22
		c0.022-0.027,0.042-0.056,0.058-0.087c0.052-0.123,0.052-0.263,0-0.386c-0.016-0.031-0.036-0.061-0.058-0.088
		c-0.014-0.025-0.03-0.049-0.048-0.071l-3.96-3.991c-0.176-0.212-0.492-0.241-0.704-0.065c-0.212,0.176-0.241,0.492-0.065,0.704
		c0.018,0.022,0.038,0.042,0.06,0.061l3.117,3.14h-8.107v-5.853c0-0.276-0.224-0.5-0.5-0.5h-1.65v-3.795
		c0.046-3.817-3.011-6.949-6.828-6.995c-3.817-0.046-6.949,3.011-6.995,6.828c-0.001,0.055-0.001,0.111,0,0.166v3.8h-1.613
		c-0.276,0-0.5,0.224-0.5,0.5v5.853H8.2l3.115-3.139c0.21-0.179,0.235-0.495,0.056-0.705c-0.179-0.21-0.495-0.235-0.705-0.056
		c-0.022,0.019-0.042,0.039-0.06,0.061l-3.957,3.979c-0.196,0.194-0.197,0.511-0.003,0.707c0.001,0.001,0.002,0.002,0.003,0.003
		l3.957,3.988c0.176,0.212,0.492,0.241,0.704,0.065c0.212-0.176,0.241-0.492,0.065-0.704c-0.018-0.022-0.038-0.042-0.06-0.061
		L8.2,22.217h8.407v8.2c0,0.276,0.224,0.5,0.5,0.5h8.071l2.49,5.647c0.808,1.727,2.508,2.863,4.413,2.947H42.8l-3.115,3.139
		c-0.21,0.179-0.235,0.495-0.056,0.705s0.495,0.235,0.705,0.056c0.022-0.019,0.042-0.039,0.06-0.061l3.959-3.989l0,0l0.008-0.011
		c0.136-0.142,0.176-0.351,0.1-0.532c-0.026-0.062-0.064-0.119-0.112-0.166l-3.956-3.986c-0.176-0.212-0.492-0.241-0.704-0.065
		c-0.212,0.176-0.241,0.492-0.065,0.704c0.018,0.022,0.038,0.042,0.06,0.061l3.116,3.143H32.1c-1.523-0.074-2.88-0.983-3.527-2.363
		l-2.308-5.232h7.924c0.276,0,0.5-0.224,0.5-0.5v-8.2H42.8l-3.115,3.138c-0.196,0.195-0.196,0.512-0.001,0.707
		C39.685,26.06,39.686,26.061,39.687,26.062z M19.72,11.069c-0.042-3.265,2.57-5.946,5.835-5.988s5.946,2.57,5.988,5.835
		c0.001,0.051,0.001,0.103,0,0.154v3.8H19.72V11.069z M17.607,29.915v-7.7h1.273c1.503,0.112,2.834,1.01,3.5,2.362l2.353,5.336
		L17.607,29.915z M33.693,29.915h-7.865l-2.553-5.786c-0.812-1.71-2.504-2.831-4.395-2.912h-1.273v-5.353h16.086v5.353h-1.636
		c-1.9,0.093-3.591,1.231-4.393,2.956L26.222,27.4c-0.113,0.252,0,0.548,0.252,0.661c0,0,0,0,0,0c0.063,0.028,0.131,0.042,0.2,0.043
		c0.198-0.001,0.377-0.119,0.456-0.3l1.438-3.219c0.641-1.379,1.991-2.291,3.509-2.373h1.612L33.693,29.915z"/>
</g>
</svg>
