<?xml version="1.0" encoding="utf-8"?>
<!-- Generator: Adobe Illustrator 25.2.3, SVG Export Plug-In . SVG Version: 6.00 Build 0)  -->
<svg version="1.1" id="Layer_1" xmlns="http://www.w3.org/2000/svg" xmlns:xlink="http://www.w3.org/1999/xlink" x="0px" y="0px"
	 viewBox="0 0 50 50" style="enable-background:new 0 0 50 50;" xml:space="preserve">
<g id="b2d6a412-4fd1-443a-8d55-bd482ca29165">
	<path style="fill:#FFFFFF;" d="M12,45h26c0.276,0,0.5-0.224,0.5-0.5V21.747c0-0.276-0.224-0.5-0.5-0.5h-2.764v-6
		c0-5.653-4.583-10.236-10.236-10.236S14.764,9.594,14.764,15.247v6H12c-0.276,0-0.5,0.224-0.5,0.5V44.5
		C11.5,44.776,11.724,45,12,45z M15.764,15.248c0-5.101,4.135-9.236,9.236-9.236s9.236,4.135,9.236,9.236v6H15.764V15.248z
		 M12.5,22.248h25V44h-25V22.248z"/>
</g>
</svg>
