<?xml version="1.0" encoding="utf-8"?>
<!-- Generator: Adobe Illustrator 25.2.3, SVG Export Plug-In . SVG Version: 6.00 Build 0)  -->
<svg version="1.1" id="Layer_1" xmlns="http://www.w3.org/2000/svg" xmlns:xlink="http://www.w3.org/1999/xlink" x="0px" y="0px"
	 viewBox="0 0 50 50" style="enable-background:new 0 0 50 50;" xml:space="preserve">
<g id="be45fe34-fa41-4d72-aaed-72f013a57aba">
	<path style="fill:#1D9CD3;" d="M15,33.5h20c0.276,0,0.5-0.224,0.5-0.5v-5c0-0.276-0.224-0.5-0.5-0.5H15c-0.276,0-0.5,0.224-0.5,0.5
		v5C14.5,33.276,14.724,33.5,15,33.5z M15.5,28.5h19v4h-19V28.5z"/>
	<path style="fill:#1D9CD3;" d="M15,40.5h20c0.276,0,0.5-0.224,0.5-0.5v-5c0-0.276-0.224-0.5-0.5-0.5H15c-0.276,0-0.5,0.224-0.5,0.5
		v5C14.5,40.276,14.724,40.5,15,40.5z M15.5,35.5h19v4h-19V35.5z"/>
	<path style="fill:#1D9CD3;" d="M40,4.51H10C9.729,4.51,9.51,4.729,9.51,5v40c0,0.271,0.219,0.49,0.49,0.49h0h30
		c0.271,0,0.49-0.219,0.49-0.49v0V5C40.49,4.729,40.271,4.51,40,4.51L40,4.51z M39.51,44.51H10.49V5.49h29.02V44.51z"/>
	<path style="fill:#1D9CD3;" d="M25,25.185c4.694,0,8.5-3.806,8.5-8.5s-3.806-8.5-8.5-8.5s-8.5,3.806-8.5,8.5l0,0
		C16.506,21.377,20.308,25.179,25,25.185z M25,9.185c4.142,0,7.5,3.358,7.5,7.5s-3.358,7.5-7.5,7.5s-7.5-3.358-7.5-7.5l0,0
		C17.504,12.545,20.86,9.189,25,9.185z"/>
	<path style="fill:#1D9CD3;" d="M22.839,18.371c1.039-0.062,1.835-0.949,1.784-1.989c0.11-0.985-0.6-1.873-1.586-1.982
		c-0.985-0.11-1.873,0.6-1.982,1.586c-0.015,0.132-0.015,0.265,0,0.397C21.004,17.422,21.8,18.309,22.839,18.371z M22.839,15.143
		c0.625,0.062,1.085,0.613,1.034,1.239c0.051,0.626-0.409,1.177-1.034,1.239c-0.625-0.062-1.085-0.613-1.034-1.239
		C21.754,15.756,22.214,15.205,22.839,15.143z"/>
	<path style="fill:#1D9CD3;" d="M23.908,18.756c-0.013,0.45,0.341,0.826,0.791,0.841h0.577c0.45-0.015,0.804-0.391,0.791-0.841
		c0-0.361-0.6-1.314-1.085-1.314S23.908,18.4,23.908,18.756z M24.984,18.264c0.135,0.146,0.248,0.312,0.333,0.492
		c0.004,0.035-0.012,0.07-0.041,0.091H24.7c-0.022-0.014-0.038-0.036-0.044-0.062C24.735,18.594,24.846,18.418,24.984,18.264z"/>
	<path style="fill:#1D9CD3;" d="M27.118,18.371c1.038-0.063,1.833-0.95,1.782-1.989c0.13-0.986-0.563-1.89-1.549-2.02
		c-0.986-0.13-1.89,0.563-2.02,1.549c-0.021,0.156-0.021,0.315,0,0.471C25.28,17.423,26.078,18.31,27.118,18.371z M27.118,15.143
		c0.625,0.062,1.085,0.613,1.034,1.239c0.102,0.571-0.278,1.118-0.849,1.22s-1.118-0.278-1.22-0.849
		c-0.022-0.123-0.022-0.248,0-0.371C26.032,15.756,26.493,15.204,27.118,15.143z"/>
	<path style="fill:#1D9CD3;" d="M22.37,20.159v1.5c0,0.686,1.43,0.829,2.629,0.829s2.629-0.143,2.629-0.866v-1.46
		c0.764-0.105,1.468-0.473,1.989-1.041c0.745-0.971,1.027-2.219,0.772-3.416c-0.27-2.011-1.617-3.713-3.512-4.438
		c-1.198-0.511-2.553-0.511-3.751,0c-1.894,0.723-3.242,2.424-3.515,4.433c-0.256,1.197,0.026,2.446,0.772,3.416
		C20.903,19.685,21.606,20.054,22.37,20.159z M20.355,15.8c0.226-1.751,1.406-3.232,3.063-3.843c1.011-0.432,2.156-0.432,3.167,0
		c1.656,0.611,2.835,2.092,3.06,3.843c0.22,0.98,0.007,2.007-0.585,2.818c-0.473,0.499-1.121,0.795-1.808,0.826
		c-0.206,0.001-0.373,0.169-0.374,0.375v1.7c-0.195,0.066-0.396,0.112-0.6,0.137v-1.388c0-0.207-0.168-0.375-0.375-0.375
		s-0.375,0.168-0.375,0.375v1.45c-0.166,0.009-0.334,0.017-0.526,0.017s-0.36-0.008-0.527-0.016v-1.451
		c0-0.207-0.168-0.375-0.375-0.375s-0.375,0.168-0.375,0.375v1.381c-0.204-0.025-0.405-0.071-0.6-0.136v-1.7
		c-0.001-0.206-0.168-0.374-0.374-0.375c-0.686-0.031-1.334-0.327-1.806-0.826C20.353,17.803,20.138,16.779,20.355,15.8z"/>
</g>
</svg>
