<?xml version="1.0" encoding="utf-8"?>
<!-- Generator: Adobe Illustrator 25.2.3, SVG Export Plug-In . SVG Version: 6.00 Build 0)  -->
<svg version="1.1" id="Layer_1" xmlns="http://www.w3.org/2000/svg" xmlns:xlink="http://www.w3.org/1999/xlink" x="0px" y="0px"
	 viewBox="0 0 50 50" style="enable-background:new 0 0 50 50;" xml:space="preserve">
<g id="b5d0e76e-26f2-4c90-8f8b-cbb189e164ca">
	<path style="fill:#1D9CD3;" d="M25,4.5C13.678,4.5,4.5,13.678,4.5,25S13.678,45.5,25,45.5S45.5,36.322,45.5,25
		C45.487,13.683,36.317,4.513,25,4.5z M25,44.5C14.23,44.5,5.5,35.77,5.5,25S14.23,5.5,25,5.5S44.5,14.23,44.5,25
		C44.487,35.764,35.764,44.487,25,44.5z"/>
	<path style="fill:#1D9CD3;" d="M16.538,21.339c-0.085-0.116-0.19-0.216-0.31-0.295c-0.131-0.085-0.274-0.149-0.424-0.189
		c0.244-0.097,0.458-0.257,0.621-0.463c0.157-0.207,0.239-0.461,0.234-0.721c0.009-0.238-0.042-0.475-0.148-0.689
		c-0.099-0.191-0.243-0.356-0.42-0.479c-0.19-0.13-0.401-0.224-0.625-0.277c-0.251-0.061-0.509-0.093-0.768-0.094h-1.816v5.688
		h1.949c0.264-0.001,0.526-0.038,0.779-0.112c0.227-0.064,0.439-0.17,0.625-0.314c0.176-0.138,0.317-0.314,0.412-0.516
		c0.104-0.223,0.155-0.468,0.149-0.714c0.001-0.151-0.021-0.3-0.067-0.444C16.687,21.583,16.622,21.455,16.538,21.339z
		 M13.823,18.906h0.891c0.135,0.001,0.269,0.018,0.4,0.049c0.115,0.026,0.223,0.074,0.319,0.142c0.089,0.065,0.161,0.151,0.209,0.25
		c0.052,0.115,0.077,0.241,0.074,0.367c0.003,0.12-0.024,0.239-0.078,0.346c-0.052,0.099-0.123,0.185-0.211,0.254
		c-0.094,0.072-0.201,0.124-0.315,0.156c-0.128,0.036-0.259,0.055-0.392,0.057h-0.9L13.823,18.906z M15.778,22.531
		c-0.049,0.107-0.12,0.201-0.209,0.277c-0.093,0.079-0.2,0.139-0.316,0.178c-0.131,0.045-0.268,0.067-0.406,0.068h-1.024v-1.812
		h1.067c0.136,0,0.271,0.023,0.4,0.068c0.111,0.04,0.213,0.102,0.3,0.182c0.084,0.08,0.15,0.178,0.191,0.287
		c0.046,0.123,0.069,0.254,0.066,0.385C15.851,22.29,15.828,22.415,15.778,22.531z"/>
	<polygon style="fill:#1D9CD3;" points="20.797,23.046 19.567,23.046 19.567,18.91 20.797,18.91 20.797,18.132 17.415,18.132 
		17.415,18.91 18.618,18.91 18.618,23.046 17.415,23.046 17.415,23.82 20.797,23.82 	"/>
	<path style="fill:#1D9CD3;" d="M21.905,23.154c0.376,0.485,0.96,0.761,1.573,0.744c0.201,0.001,0.403-0.019,0.6-0.059
		c0.18-0.036,0.356-0.091,0.525-0.164c0.155-0.066,0.302-0.15,0.438-0.25c0.126-0.091,0.24-0.197,0.34-0.316l-0.008-2.168h-1.942
		v0.73h1.027l-0.008,1.137c-0.046,0.062-0.105,0.113-0.172,0.15c-0.073,0.042-0.151,0.076-0.232,0.1
		c-0.088,0.027-0.177,0.046-0.268,0.057c-0.091,0.011-0.182,0.017-0.273,0.017c-0.196,0.003-0.388-0.049-0.555-0.152
		c-0.156-0.101-0.285-0.239-0.377-0.4c-0.102-0.178-0.175-0.371-0.215-0.572c-0.046-0.223-0.07-0.451-0.072-0.679v-0.711
		c0.002-0.229,0.025-0.457,0.07-0.682c0.039-0.201,0.109-0.394,0.207-0.574c0.086-0.157,0.207-0.292,0.354-0.395
		c0.151-0.1,0.329-0.151,0.51-0.146c0.143-0.003,0.285,0.02,0.42,0.068c0.113,0.044,0.216,0.112,0.3,0.2
		c0.087,0.09,0.154,0.197,0.2,0.313c0.052,0.133,0.089,0.272,0.109,0.414h0.922c-0.021-0.253-0.084-0.501-0.186-0.734
		c-0.093-0.212-0.229-0.401-0.4-0.557c-0.174-0.156-0.378-0.275-0.6-0.35c-0.254-0.084-0.521-0.125-0.789-0.121
		c-0.304-0.006-0.604,0.063-0.875,0.2c-0.253,0.133-0.474,0.32-0.646,0.549c-0.183,0.246-0.32,0.523-0.405,0.817
		c-0.095,0.327-0.142,0.666-0.14,1.007v0.7c-0.001,0.341,0.049,0.68,0.146,1.007C21.571,22.631,21.714,22.91,21.905,23.154z"/>
	<rect x="26.341" y="20.949" style="fill:#1D9CD3;" width="3.129" height="0.754"/>
	<polygon style="fill:#1D9CD3;" points="29.848,18.91 31.051,18.91 31.051,23.046 29.848,23.046 29.848,23.82 33.231,23.82 
		33.231,23.046 32,23.046 32,18.91 33.231,18.91 33.231,18.132 29.848,18.132 	"/>
	<path style="fill:#1D9CD3;" d="M37.432,18.611c-0.183-0.157-0.394-0.277-0.623-0.352c-0.254-0.084-0.52-0.127-0.788-0.127h-1.9
		v5.688h0.938v-2.18h0.964c0.268,0,0.534-0.042,0.788-0.125c0.229-0.074,0.44-0.192,0.623-0.348c0.174-0.15,0.313-0.337,0.408-0.546
		c0.1-0.226,0.15-0.472,0.146-0.719c0.005-0.253-0.045-0.504-0.146-0.736C37.747,18.953,37.607,18.764,37.432,18.611z M36.971,20.3
		c-0.044,0.116-0.112,0.221-0.2,0.309c-0.092,0.088-0.202,0.156-0.321,0.2c-0.136,0.05-0.281,0.074-0.426,0.072H35.06V18.89h0.964
		c0.146,0,0.29,0.027,0.426,0.078c0.12,0.047,0.23,0.118,0.321,0.209c0.088,0.093,0.157,0.203,0.2,0.323
		c0.048,0.131,0.072,0.27,0.07,0.41C37.042,20.043,37.019,20.176,36.971,20.3z"/>
	<polygon style="fill:#1D9CD3;" points="19.803,26.132 18.866,26.132 18.866,31.82 22.514,31.82 22.514,31.054 19.803,31.054 	"/>
	<polygon style="fill:#1D9CD3;" points="22.225,26.906 23.959,26.906 23.959,31.82 24.893,31.82 24.893,26.906 26.639,26.906 
		26.639,26.132 22.225,26.132 	"/>
	<polygon style="fill:#1D9CD3;" points="29.056,28.589 28.349,26.132 27.185,26.132 27.185,31.82 28.068,31.82 28.068,29.867 
		28.013,27.468 28.806,30.101 29.298,30.101 30.173,27.375 30.119,29.867 30.119,31.82 31.001,31.82 31.001,26.132 29.837,26.132 	
		"/>
</g>
</svg>
