<svg viewBox="0 0 128 128" xmlns="http://www.w3.org/2000/svg"><g fill="none" stroke="#38313d" stroke-linecap="round" stroke-linejoin="round" stroke-width="2.96"><path d="m104.69 49.24v-46.12h-101.9v14.56h101.42"/><path d="m2.79 25v65.47h50.35"/><path d="m86.1 40.69 1.44-5.53"/><path d="m80.76 61.09 3.12-11.94"/><path d="m45.47 53.27-10.19-1.1a3.58 3.58 0 0 1 -5.38 1.65l-10.53 15.8a3.7 3.7 0 0 1 1.09 1.17"/><path d="m71.1 53.24 6.41 8.3"/><path d="m51.41 50.3 4.83-10.61a3.53 3.53 0 0 0 3.76-.85l5.75 7.44"/><path d="m35.28 52.17a3.77 3.77 0 0 0 .26-1.35 3.6 3.6 0 1 0 -5.64 3"/><path d="m19.37 69.62a3.56 3.56 0 0 0 -2-.6 3.64 3.64 0 1 0 3.63 3.64 3.69 3.69 0 0 0 -.52-1.87"/><path d="m60 38.84a3.67 3.67 0 0 0 1-2.58 3.61 3.61 0 1 0 -4.78 3.43"/><circle cx="88.43" cy="31.63" r="3.59"/><circle cx="79.51" cy="64.54" r="3.59"/><circle cx="49.39" cy="53.51" r="3.59"/><path d="m101.15 94.33 5 6.69s3.53-2.62 6.15.91l12.09 15.93a4.41 4.41 0 0 1 -.91 6.16 4.41 4.41 0 0 1 -6.16-.92l-12.12-15.93"/><path d="m53.93 65.89a29.69 29.69 0 1 1 25 33.72 29.7 29.7 0 0 1 -25-33.72zm26.25 25.33a21.21 21.21 0 1 0 -17.86-24.09 21.21 21.21 0 0 0 17.86 24.09z"/></g></svg>