<?xml version="1.0" encoding="utf-8"?>
<!-- Generator: Adobe Illustrator 25.2.3, SVG Export Plug-In . SVG Version: 6.00 Build 0)  -->
<svg version="1.1" id="bf55e87f-97e6-4777-a0ef-3b3c67b37a38"
	 xmlns="http://www.w3.org/2000/svg" xmlns:xlink="http://www.w3.org/1999/xlink" x="0px" y="0px" viewBox="0 0 50 50"
	 style="enable-background:new 0 0 50 50;" xml:space="preserve">
<path style="fill:#1D9CD3;" d="M45.017,4.355H4.949c-0.276,0-0.5,0.224-0.5,0.5v30.579c0,0.276,0.224,0.5,0.5,0.5h14.275
	c0.276,0,0.5-0.224,0.5-0.5s-0.224-0.5-0.5-0.5H5.449V11.059h39.068v23.875h-6.99c-0.276,0-0.5,0.224-0.5,0.5s0.224,0.5,0.5,0.5
	h7.49c0.276,0,0.5-0.224,0.5-0.5V4.855C45.517,4.579,45.293,4.355,45.017,4.355z M5.449,5.355h39.068v4.7H5.449L5.449,5.355z"/>
<path style="fill:#1D9CD3;" d="M10.673,7.207H7.812c-0.276,0-0.5,0.224-0.5,0.5s0.224,0.5,0.5,0.5h2.861c0.276,0,0.5-0.224,0.5-0.5
	S10.949,7.207,10.673,7.207z"/>
<path style="fill:#1D9CD3;" d="M16.4,7.207h-2.865c-0.276,0-0.5,0.224-0.5,0.5s0.224,0.5,0.5,0.5H16.4c0.276,0,0.5-0.224,0.5-0.5
	S16.676,7.207,16.4,7.207z"/>
<path style="fill:#1D9CD3;" d="M22.121,7.207h-2.862c-0.276,0-0.5,0.224-0.5,0.5s0.224,0.5,0.5,0.5h2.862c0.276,0,0.5-0.224,0.5-0.5
	S22.397,7.207,22.121,7.207z"/>
<circle style="fill:#1D9CD3;" cx="42.155" cy="7.707" r="1"/>
<path style="fill:#1D9CD3;" d="M38.852,37.4c-0.584-0.581-1.482-0.704-2.2-0.3l-1.235-1.235c3.54-3.918,3.233-9.963-0.684-13.503
	c-1.283-1.159-2.856-1.949-4.552-2.284l0.2-0.911c0.548-0.046,1.042-0.349,1.332-0.817l6.863,1.472c0.06,0.966,0.891,1.7,1.857,1.64
	c0.966-0.06,1.7-0.891,1.64-1.857c-0.06-0.966-0.891-1.7-1.857-1.64c-0.59,0.037-1.122,0.368-1.414,0.882l-6.828-1.464
	c-0.022-0.965-0.821-1.729-1.786-1.707c-0.965,0.022-1.729,0.821-1.707,1.786c0.014,0.629,0.365,1.201,0.919,1.499l-0.211,0.963
	c-1.806-0.169-3.623,0.18-5.238,1.007c-0.23,0.117-0.44,0.261-0.657,0.395l-1.333-1.806c0.547-0.8,0.342-1.891-0.458-2.438
	c-0.8-0.547-1.891-0.342-2.438,0.458c-0.439,0.642-0.403,1.496,0.089,2.099l-1.794,3.006c-0.131-0.032-0.265-0.048-0.4-0.049
	c-0.59,0-1.14,0.299-1.462,0.793l-2.352-0.721c0-0.014,0-0.028,0-0.042c0.005-0.966-0.775-1.754-1.741-1.759
	s-1.754,0.775-1.759,1.741c-0.003,0.554,0.257,1.077,0.7,1.409l-1.13,4.377c-0.97,0.011-1.748,0.806-1.738,1.776
	c0.011,0.97,0.806,1.748,1.776,1.738s1.748-0.806,1.738-1.776c-0.006-0.594-0.312-1.144-0.813-1.463l1.118-4.3
	c0.036,0,0.071,0.011,0.107,0.011c0.574,0,1.111-0.283,1.437-0.756l2.373,0.728c-0.002,0.966,0.779,1.752,1.746,1.754
	s1.752-0.779,1.754-1.746c0.001-0.452-0.173-0.888-0.486-1.215l1.753-2.946c0.394,0.135,0.824,0.118,1.207-0.047l1.28,1.733
	c-4.187,3.22-4.971,9.224-1.751,13.41s9.224,4.971,13.41,1.751c0.2-0.154,0.394-0.315,0.581-0.484l1.235,1.237
	c-0.402,0.718-0.28,1.616,0.3,2.2l5.092,5.1c0.721,0.72,1.889,0.72,2.61,0c0.72-0.721,0.72-1.889,0-2.61l0,0L38.852,37.4z
	 M40.312,18.963c0.414,0,0.75,0.336,0.75,0.75s-0.336,0.75-0.75,0.75s-0.75-0.336-0.75-0.75c-0.002-0.415,0.332-0.753,0.747-0.755
	c0.001,0,0.002,0,0.003,0V18.963z M30.228,16.679c0.414,0,0.75,0.336,0.75,0.75s-0.336,0.75-0.75,0.75s-0.75-0.336-0.75-0.75
	C29.479,17.015,29.814,16.68,30.228,16.679z M9.242,30.892c-0.414,0-0.75-0.336-0.75-0.75s0.336-0.75,0.75-0.75
	s0.75,0.336,0.75,0.75C9.991,30.556,9.656,30.891,9.242,30.892z M11.4,23.376c-0.414,0-0.75-0.336-0.75-0.75s0.336-0.75,0.75-0.75
	s0.75,0.336,0.75,0.75C12.149,23.04,11.814,23.375,11.4,23.376z M16.96,25.096c-0.414,0-0.75-0.336-0.75-0.75s0.336-0.75,0.75-0.75
	s0.75,0.336,0.75,0.75c0.001,0.414-0.332,0.751-0.746,0.754L16.96,25.096z M19.76,18.545c0-0.414,0.336-0.75,0.75-0.75
	s0.75,0.336,0.75,0.75s-0.336,0.75-0.75,0.75C20.096,19.294,19.76,18.959,19.76,18.545L19.76,18.545z M19.725,29.459
	c0.001-4.74,3.843-8.582,8.583-8.581s8.582,3.843,8.581,8.583c-0.001,4.739-3.843,8.581-8.582,8.581
	c-4.722,0.018-8.565-3.795-8.583-8.517C19.724,29.503,19.724,29.481,19.725,29.459L19.725,29.459z M43.235,44.4
	c-0.327,0.331-0.861,0.335-1.192,0.008c-0.003-0.003-0.005-0.005-0.008-0.008l-5.092-5.1c-0.331-0.331-0.331-0.869,0-1.2
	s0.869-0.331,1.2,0l5.09,5.1c0.332,0.33,0.334,0.866,0.004,1.198C43.236,44.399,43.236,44.399,43.235,44.4z"/>
<path style="fill:#1D9CD3;" d="M31.211,23.111c-0.426-0.193-0.871-0.342-1.327-0.446c-0.015-0.008-0.03-0.014-0.046-0.02
	c-0.012,0-0.024,0-0.036,0c-1.57-0.347-3.211-0.14-4.646,0.585l0,0c-0.71,0.365-1.352,0.848-1.9,1.429c0,0-0.011,0-0.016,0.008
	c-0.03,0.028-0.057,0.059-0.079,0.093c-2.6,2.847-2.399,7.263,0.448,9.862c2.847,2.6,7.263,2.4,9.862-0.448
	c1.176-1.288,1.828-2.97,1.826-4.715C35.289,26.728,33.694,24.25,31.211,23.111z M25.611,24.121L25.611,24.121
	c1.084-0.547,2.31-0.749,3.513-0.579l-1.07,4.69c-0.095-0.015-0.19-0.025-0.286-0.029c-0.338-0.001-0.672,0.067-0.982,0.2
	l-2.574-3.3c0.416-0.392,0.885-0.722,1.394-0.982H25.611z M27.765,29.2c0.82,0.008,1.478,0.68,1.47,1.5
	c-0.008,0.82-0.68,1.478-1.5,1.47c-0.814-0.008-1.469-0.67-1.47-1.484C26.269,29.862,26.941,29.197,27.765,29.2z M28.306,35.444
	c-3.298,0.009-5.979-2.658-5.988-5.956c-0.004-1.31,0.424-2.585,1.216-3.628l2.427,3.114c-0.447,0.458-0.698,1.072-0.7,1.712
	c-0.014,1.381,1.093,2.511,2.474,2.526c1.381,0.014,2.511-1.093,2.526-2.474c0.009-0.906-0.473-1.747-1.26-2.196l1.099-4.786
	c0.239,0.073,0.473,0.162,0.7,0.265c3.006,1.372,4.331,4.921,2.959,7.927c-0.973,2.133-3.103,3.501-5.448,3.499L28.306,35.444z"/>
</svg>
