<svg id="bf55e87f-97e6-4777-a0ef-3b3c67b37a38" data-name="Icons" xmlns="http://www.w3.org/2000/svg" viewBox="0 0 50 50"><path d="M45.017,4.355H4.949a.5.5,0,0,0-.5.5V35.434a.5.5,0,0,0,.5.5H19.224a.5.5,0,1,0,0-1H5.449V11.059H44.517V34.934h-6.99a.5.5,0,0,0,0,1h7.49a.5.5,0,0,0,.5-.5V4.855A.5.5,0,0,0,45.017,4.355Zm-39.568,1H44.517v4.7H5.449Z"/><path d="M10.673,7.207H7.812a.5.5,0,0,0,0,1h2.861a.5.5,0,0,0,0-1Z"/><path d="M16.4,7.207H13.535a.5.5,0,1,0,0,1H16.4a.5.5,0,0,0,0-1Z"/><path d="M22.121,7.207H19.259a.5.5,0,1,0,0,1h2.862a.5.5,0,1,0,0-1Z"/><circle cx="42.155" cy="7.707" r="1"/><path d="M38.852,37.4a1.84,1.84,0,0,0-2.2-.3l-1.235-1.235a9.56,9.56,0,0,0-5.236-15.787l.2-.911a1.739,1.739,0,0,0,1.332-.817l6.863,1.472a1.752,1.752,0,1,0,.226-.975l-6.828-1.464A1.747,1.747,0,1,0,29.4,18.961l-.211.963a9.546,9.546,0,0,0-5.238,1.007c-.23.117-.44.261-.657.395L21.961,19.52a1.754,1.754,0,1,0-2.807.119L17.36,22.645a1.724,1.724,0,0,0-.4-.049,1.746,1.746,0,0,0-1.462.793l-2.352-.721c0-.014,0-.028,0-.042a1.75,1.75,0,1,0-2.8,1.391L9.216,28.394a1.757,1.757,0,1,0,.963.275l1.118-4.3c.036,0,.071.011.107.011a1.746,1.746,0,0,0,1.437-.756l2.373.728a1.75,1.75,0,1,0,3.014-1.206L19.981,20.2a1.679,1.679,0,0,0,1.207-.047l1.28,1.733a9.563,9.563,0,1,0,12.24,14.677L35.943,37.8a1.844,1.844,0,0,0,.3,2.2l5.092,5.1a1.845,1.845,0,1,0,2.609-2.61Zm1.46-18.437a.75.75,0,1,1-.75.75A.751.751,0,0,1,40.312,18.958ZM30.228,16.679a.75.75,0,1,1-.75.75A.752.752,0,0,1,30.228,16.679ZM9.242,30.892a.75.75,0,1,1,.75-.75A.752.752,0,0,1,9.242,30.892ZM11.4,23.376a.75.75,0,1,1,.75-.75A.752.752,0,0,1,11.4,23.376Zm5.56,1.72a.75.75,0,1,1,.75-.75A.752.752,0,0,1,16.964,25.1Zm2.8-6.551a.75.75,0,1,1,.75.75A.752.752,0,0,1,19.759,18.545Zm-.035,10.914a8.582,8.582,0,1,1,8.582,8.583A8.55,8.55,0,0,1,19.724,29.459ZM43.235,44.4a.843.843,0,0,1-1.2,0l-5.092-5.1a.846.846,0,0,1,1.2-1.2l5.09,5.1A.847.847,0,0,1,43.235,44.4Z"/><path d="M31.211,23.111a6.975,6.975,0,0,0-1.327-.446.458.458,0,0,0-.046-.02c-.012,0-.024,0-.036,0a6.964,6.964,0,0,0-4.646.585h0a7.032,7.032,0,0,0-1.9,1.429s-.011,0-.016.008a.5.5,0,0,0-.079.093,6.981,6.981,0,1,0,12.136,4.7A7.007,7.007,0,0,0,31.211,23.111Zm-5.6,1.01h0a5.952,5.952,0,0,1,3.513-.579l-1.07,4.69a2.451,2.451,0,0,0-.286-.029,2.487,2.487,0,0,0-.982.2l-2.574-3.3A6.031,6.031,0,0,1,25.606,24.121ZM27.765,29.2a1.485,1.485,0,1,1-1.5,1.486A1.494,1.494,0,0,1,27.765,29.2Zm.541,6.244a5.972,5.972,0,0,1-4.772-9.584l2.427,3.114a2.462,2.462,0,0,0-.7,1.712,2.5,2.5,0,1,0,3.74-2.145L30.1,23.755a5.845,5.845,0,0,1,.7.265,5.983,5.983,0,0,1-2.489,11.426Z"/></svg>