<?xml version="1.0" encoding="utf-8"?>
<!-- Generator: Adobe Illustrator 25.2.3, SVG Export Plug-In . SVG Version: 6.00 Build 0)  -->
<svg version="1.1" id="Layer_1" xmlns="http://www.w3.org/2000/svg" xmlns:xlink="http://www.w3.org/1999/xlink" x="0px" y="0px"
	 viewBox="0 0 50 50" style="enable-background:new 0 0 50 50;" xml:space="preserve">
<g id="a49d0d0b-8e27-40e9-aeb5-ba4ba308a84a">
	<path style="fill:#1D9CD3;" d="M12.282,19.893c0.502,0.171,1.052,0.135,1.528-0.1c0.991-0.489,1.398-1.688,0.909-2.678
		s-1.688-1.398-2.678-0.909s-1.398,1.688-0.909,2.678C11.366,19.359,11.78,19.722,12.282,19.893z M11.982,17.678
		C12.12,17.273,12.501,17,12.929,17c0.11,0,0.218,0.018,0.322,0.054l0,0c0.523,0.179,0.801,0.747,0.623,1.27
		c-0.179,0.523-0.747,0.801-1.27,0.623c-0.522-0.179-0.801-0.747-0.623-1.269L11.982,17.678z"/>
	<path style="fill:#1D9CD3;" d="M36.426,33.893c1.045,0.356,2.181-0.202,2.538-1.247c0.357-1.045-0.201-2.182-1.247-2.539
		c0,0,0,0,0,0c-1.045-0.357-2.182,0.202-2.539,1.247C34.822,32.4,35.381,33.537,36.426,33.893z M36.126,31.678
		C36.264,31.273,36.644,31,37.072,31c0.11,0,0.218,0.018,0.322,0.054l0,0c0.523,0.179,0.801,0.747,0.623,1.27
		c-0.179,0.523-0.747,0.801-1.27,0.623c-0.522-0.179-0.801-0.747-0.623-1.269L36.126,31.678z"/>
	<path style="fill:#1D9CD3;" d="M24.354,40.893c1.045,0.357,2.182-0.201,2.539-1.247c0,0,0,0,0,0
		c0.357-1.045-0.202-2.182-1.247-2.539c-1.045-0.357-2.182,0.202-2.539,1.247C22.751,39.4,23.309,40.536,24.354,40.893z
		 M24.054,38.678C24.192,38.273,24.572,38,25,38c0.11,0,0.218,0.018,0.322,0.054l0,0c0.521,0.179,0.8,0.745,0.623,1.267
		c-0.179,0.522-0.747,0.801-1.269,0.623c-0.521-0.179-0.8-0.745-0.623-1.267L24.054,38.678z"/>
	<path style="fill:#1D9CD3;" d="M27,23h-4v4h4V23z M26,26h-2v-2h2V26z"/>
	<path style="fill:#1D9CD3;" d="M35.072,20h4v-4h-4V20z M36.072,17h2v2h-2V17z"/>
	<path style="fill:#1D9CD3;" d="M12.928,29.642l-2.438,4.217h4.877L12.928,29.642z M12.928,31.642l0.7,1.219h-1.41L12.928,31.642z"
		/>
	<path style="fill:#1D9CD3;" d="M22.562,12.859h4.876L25,8.642L22.562,12.859z M24.295,11.859L25,10.64l0.7,1.219H24.295z"/>
	<path style="fill:#1D9CD3;" d="M32.505,11l-3.753-6.5h-7.5L17.5,11l3.753,6.5h7.5L32.505,11z M21.825,16.5L18.649,11l3.176-5.5
		h6.35l3.176,5.5l-3.176,5.5H21.825z"/>
	<path style="fill:#1D9CD3;" d="M40.825,11.5h-7.506L29.566,18l3.753,6.5h7.506l3.752-6.5L40.825,11.5z M40.248,23.5H33.9L30.721,18
		l3.179-5.5h6.352l3.171,5.5L40.248,23.5z"/>
	<path style="fill:#1D9CD3;" d="M40.825,38.5l3.752-6.5l-3.752-6.5h-7.506L29.566,32l3.753,6.5H40.825z M33.9,26.5h6.352l3.171,5.5
		l-3.175,5.5H33.9L30.721,32L33.9,26.5z"/>
	<path style="fill:#1D9CD3;" d="M9.175,24.5h7.506l3.753-6.5l-3.753-6.5H9.175L5.423,18L9.175,24.5z M9.752,12.5H16.1l3.179,5.5
		L16.1,23.5H9.752L6.577,18L9.752,12.5z"/>
	<path style="fill:#1D9CD3;" d="M9.175,38.5h7.506l3.753-6.5l-3.753-6.5H9.175L5.423,32L9.175,38.5z M9.752,26.5H16.1l3.179,5.5
		L16.1,37.5H9.752L6.577,32L9.752,26.5z"/>
	<path style="fill:#1D9CD3;" d="M21.248,31.5h7.5l3.757-6.5l-3.753-6.5h-7.5L17.5,25L21.248,31.5z M21.825,19.5h6.35l3.176,5.5
		l-3.176,5.5h-6.35L18.649,25L21.825,19.5z"/>
	<path style="fill:#1D9CD3;" d="M21.248,45.5h7.5l3.757-6.5l-3.753-6.5h-7.5L17.5,39L21.248,45.5z M21.825,33.5h6.35l3.176,5.5
		l-3.176,5.5h-6.35L18.649,39L21.825,33.5z"/>
</g>
</svg>
