<svg xmlns="http://www.w3.org/2000/svg" viewBox="0 0 50 50"><g id="ad5c0615-4b14-4688-93ea-fe370eb90865" data-name="Isolation Mode"><path d="M16.8,20.519a2.66,2.66,0,1,0,2.383,3.832l3.145,1.018A2.466,2.466,0,0,0,23,27.542L20.925,30.39a2.683,2.683,0,1,0,.831.558l2.05-2.811a2.584,2.584,0,0,0,2.306,0l2.051,2.812a2.661,2.661,0,1,0,.831-.559l-2.077-2.847a2.446,2.446,0,0,0,.677-2.151l3.22-1.042a2.639,2.639,0,1,0-.286-1.174c0,.071.015.139.021.209l-3.274,1.06a2.668,2.668,0,0,0-1.793-1.306V19.767a2.684,2.684,0,1,0-1,.006v3.365a2.663,2.663,0,0,0-1.82,1.287l-3.211-1.04c.006-.069.021-.136.021-.206A2.667,2.667,0,0,0,16.8,20.519ZM19.885,34.5a1.66,1.66,0,1,1,.847-3.083c.013.012.02.028.035.039s.046.011.068.022a1.656,1.656,0,0,1-.95,3.022Zm11.823-1.66A1.669,1.669,0,1,1,29.06,31.5c.033-.014.069-.011.1-.032a.5.5,0,0,0,.062-.068,1.65,1.65,0,0,1,.818-.222A1.667,1.667,0,0,1,31.708,32.84ZM33.2,21.519a1.66,1.66,0,1,1-1.6,2.086c0-.009,0-.019,0-.028s-.009-.014-.012-.022A1.645,1.645,0,0,1,33.2,21.519ZM23.282,17.16a1.669,1.669,0,1,1,1.668,1.66A1.666,1.666,0,0,1,23.282,17.16Zm1.58,6.94a.482.482,0,0,0,.12.024.463.463,0,0,0,.106-.021,1.662,1.662,0,0,1,1.436,1.08c0,.011,0,.022,0,.033s.009.009.012.015a1.631,1.631,0,0,1,.091.519,1.669,1.669,0,1,1-1.768-1.65Zm-8.058.739a1.66,1.66,0,1,1,1.668-1.66A1.667,1.667,0,0,1,16.8,24.839Z"/><path d="M46.478,38.322H46.47l-5.964.092A20.531,20.531,0,0,0,12.8,8.475a.5.5,0,1,0,.594.8,19.533,19.533,0,0,1,26.491,28.33l-.109-5.757a.5.5,0,1,0-1,.019l.133,7.02a.49.49,0,0,0,.145.391l0,0a.5.5,0,0,0,.353.147h.008l7.069-.109a.5.5,0,0,0-.007-1Z"/><path d="M36.592,40.721A19.533,19.533,0,0,1,10.116,12.373l.11,5.792a.5.5,0,0,0,.5.49h.009a.5.5,0,0,0,.491-.509l-.134-7.071a.494.494,0,0,0-.157-.352l0-.005a.5.5,0,0,0-.118-.076c-.011,0-.019-.014-.03-.019a.5.5,0,0,0-.246-.037l-7.022.108a.5.5,0,0,0,.007,1H3.53L9.463,11.6A20.525,20.525,0,0,0,37.186,41.525a.5.5,0,1,0-.594-.8Z"/></g></svg>