<svg xmlns="http://www.w3.org/2000/svg" viewBox="0 0 50 50"><g id="fc5484d6-1b42-48f2-9cca-0ddd1976915e" data-name="Isolation Mode"><path d="M38.2,44.315a8,8,0,0,1-1.719.185h-.658a.5.5,0,0,0,0,1h.658a9.049,9.049,0,0,0,1.934-.208.5.5,0,0,0-.215-.977Z"/><path d="M42.249,42.052a8.052,8.052,0,0,1-1.857,1.431.5.5,0,1,0,.488.873,9.076,9.076,0,0,0,2.088-1.609.5.5,0,0,0-.719-.7Z"/><path d="M45,27.526a.5.5,0,0,0-.5.5v2.5a.5.5,0,0,0,1,0v-2.5A.5.5,0,0,0,45,27.526Z"/><path d="M33.322,44.5h-2.5a.5.5,0,0,0,0,1h2.5a.5.5,0,0,0,0-1Z"/><path d="M45,22.526a.5.5,0,0,0-.5.5v2.5a.5.5,0,0,0,1,0v-2.5A.5.5,0,0,0,45,22.526Z"/><path d="M45,32.526a.5.5,0,0,0-.5.5v2.5a.5.5,0,1,0,1,0v-2.5A.5.5,0,0,0,45,32.526Z"/><path d="M44.952,37.525a.506.506,0,0,0-.582.4,7.944,7.944,0,0,1-.755,2.219.5.5,0,0,0,.216.673.493.493,0,0,0,.229.056A.5.5,0,0,0,44.5,40.6a9,9,0,0,0,.85-2.5A.5.5,0,0,0,44.952,37.525Z"/><path d="M23.322,44.5h-2.5a.5.5,0,0,0,0,1h2.5a.5.5,0,1,0,0-1Z"/><path d="M5.526,37.13a.5.5,0,1,0-1,.08,9.037,9.037,0,0,0,.592,2.568.5.5,0,0,0,.466.318.515.515,0,0,0,.183-.034.5.5,0,0,0,.283-.649A8.039,8.039,0,0,1,5.526,37.13Z"/><path d="M5,35.171a.5.5,0,0,0,.5-.5v-2.5a.5.5,0,0,0-1,0v2.5A.5.5,0,0,0,5,35.171Z"/><path d="M7.6,7.377a.5.5,0,0,0-.707.028A9.1,9.1,0,0,0,5.4,9.582a.5.5,0,0,0,.9.438A8.074,8.074,0,0,1,7.624,8.083.5.5,0,0,0,7.6,7.377Z"/><path d="M7.222,41.446a.5.5,0,1,0-.785.619,9.024,9.024,0,0,0,1.917,1.811.5.5,0,1,0,.573-.82A8.063,8.063,0,0,1,7.222,41.446Z"/><path d="M13.334,44.5a7.969,7.969,0,0,1-2.311-.4.5.5,0,0,0-.31.952,9.029,9.029,0,0,0,2.6.443h.011a.5.5,0,0,0,.012-1Z"/><path d="M11.986,5.122a.5.5,0,0,0-.6-.367,8.963,8.963,0,0,0-2.443.992.5.5,0,1,0,.508.861,7.987,7.987,0,0,1,2.171-.882A.5.5,0,0,0,11.986,5.122Z"/><path d="M18.322,44.5h-2.5a.5.5,0,0,0,0,1h2.5a.5.5,0,1,0,0-1Z"/><path d="M28.322,44.5h-2.5a.5.5,0,0,0,0,1h2.5a.5.5,0,1,0,0-1Z"/><path d="M13.98,5.5h2.5a.5.5,0,0,0,0-1h-2.5a.5.5,0,0,0,0,1Z"/><path d="M23.98,5.5h2.5a.5.5,0,0,0,0-1h-2.5a.5.5,0,0,0,0,1Z"/><path d="M18.98,5.5h2.5a.5.5,0,0,0,0-1h-2.5a.5.5,0,0,0,0,1Z"/><path d="M28.98,5.5h2.5a.5.5,0,1,0,0-1h-2.5a.5.5,0,0,0,0,1Z"/><path d="M45,17.526a.5.5,0,0,0-.5.5v2.5a.5.5,0,0,0,1,0v-2.5A.5.5,0,0,0,45,17.526Z"/><path d="M39.153,5.956a7.97,7.97,0,0,1,2.072,1.1.5.5,0,0,0,.591-.807,8.955,8.955,0,0,0-2.331-1.233.5.5,0,0,0-.332.943Z"/><path d="M33.98,5.5h2.5c.124,0,.249,0,.373.008h.022a.5.5,0,0,0,.022-1c-.138-.007-.277-.01-.417-.01h-2.5a.5.5,0,0,0,0,1Z"/><path d="M44.013,10.76a.5.5,0,0,0,.469.328.511.511,0,0,0,.172-.03.5.5,0,0,0,.3-.642A8.969,8.969,0,0,0,43.69,8.1a.5.5,0,1,0-.8.6A8.025,8.025,0,0,1,44.013,10.76Z"/><path d="M5,30.171a.5.5,0,0,0,.5-.5v-2.5a.5.5,0,0,0-1,0v2.5A.5.5,0,0,0,5,30.171Z"/><path d="M44.96,12.527a.5.5,0,0,0-.473.526c.008.155.013.31.013.467v2.006a.5.5,0,0,0,1,0V13.52c0-.174-.005-.347-.015-.52A.491.491,0,0,0,44.96,12.527Z"/><path d="M5,25.171a.5.5,0,0,0,.5-.5v-2.5a.5.5,0,0,0-1,0v2.5A.5.5,0,0,0,5,25.171Z"/><path d="M5,15.171a.5.5,0,0,0,.5-.5V13.52a7.983,7.983,0,0,1,.1-1.265.5.5,0,0,0-.989-.156A9.1,9.1,0,0,0,4.5,13.52v1.151A.5.5,0,0,0,5,15.171Z"/><path d="M5,20.171a.5.5,0,0,0,.5-.5v-2.5a.5.5,0,0,0-1,0v2.5A.5.5,0,0,0,5,20.171Z"/><path d="M36.966,18.78a3.539,3.539,0,0,0-3.535,3.535,3.589,3.589,0,0,0,.06.6l-5.256,1.7a3.53,3.53,0,0,0-2.735-2.07V17.105a3.534,3.534,0,1,0-1,0v5.443a3.53,3.53,0,0,0-2.735,2.07l-5.257-1.7a3.566,3.566,0,1,0-.314.949l5.317,1.722a3.458,3.458,0,0,0-.045.445,3.513,3.513,0,0,0,1.154,2.6L19.247,33.27a3.5,3.5,0,0,0-1.645-.425,3.55,3.55,0,1,0,2.459,1l3.385-4.658a3.405,3.405,0,0,0,3.107,0l3.383,4.655a3.706,3.706,0,1,0,.815-.579l-3.371-4.64a3.515,3.515,0,0,0,1.154-2.6,3.458,3.458,0,0,0-.045-.445L33.8,23.865a3.529,3.529,0,1,0,3.162-5.085ZM13.034,24.846a2.535,2.535,0,1,1,2.535-2.534A2.537,2.537,0,0,1,13.034,24.846Zm7.1,11.534A2.535,2.535,0,1,1,17.6,33.845,2.538,2.538,0,0,1,20.137,36.38Zm14.789,0a2.535,2.535,0,1,1-2.535-2.535A2.538,2.538,0,0,1,34.926,36.38ZM22.466,13.62A2.534,2.534,0,1,1,25,16.155,2.537,2.537,0,0,1,22.466,13.62ZM25,28.566a2.535,2.535,0,1,1,2.534-2.535A2.537,2.537,0,0,1,25,28.566ZM36.966,24.85A2.535,2.535,0,1,1,39.5,22.315,2.538,2.538,0,0,1,36.966,24.85Z"/></g></svg>