<svg id="Icons" xmlns="http://www.w3.org/2000/svg" viewBox="0 0 128 128"><defs><style>.cls-1{fill:#231f20;}.cls-2{fill:none;stroke:#000;stroke-linecap:round;stroke-linejoin:round;stroke-width:3px;}</style></defs><title>o365-square_38313D</title><path class="cls-1" d="M40.54,51.71a9.26,9.26,0,0,1,9.54,9.66A9.26,9.26,0,0,1,40.54,71,9.27,9.27,0,0,1,31,61.37,9.27,9.27,0,0,1,40.54,51.71Zm0,2.91c-3.78,0-6.19,2.88-6.19,6.75s2.41,6.75,6.19,6.75,6.18-2.92,6.18-6.75S44.29,54.62,40.54,54.62Z"/><path class="cls-1" d="M53,65.85a7,7,0,0,0,5.18,2.27c2.46,0,3.89-1.12,3.89-2.86s-1.49-2.63-4.15-2.63c-.78,0-1.87,0-2.15,0V59.72c.33,0,1.43,0,2.15,0,2.19,0,3.84-.75,3.84-2.46S60.08,54.65,58,54.65a6.6,6.6,0,0,0-4.82,2.07l-1.68-2a8.66,8.66,0,0,1,6.81-2.94c4,0,6.75,1.9,6.75,5,0,2.49-2.13,3.94-4.06,4.28a4.69,4.69,0,0,1,4.34,4.54c0,3.16-2.72,5.43-7,5.43a8.67,8.67,0,0,1-7.06-3Z"/><path class="cls-1" d="M75.31,51.74a7.5,7.5,0,0,1,5.38,2.07L79.15,56.3a4.79,4.79,0,0,0-3.84-1.65c-3.11,0-4.93,2.88-4.93,6.16a3,3,0,0,0,0,.53,6.36,6.36,0,0,1,5-2.6c3.36,0,6.25,2,6.25,6C81.67,68.23,79,71,74.78,71c-5.49,0-7.7-4.45-7.7-9.63C67.08,56,69.91,51.74,75.31,51.74Zm-.78,9.8a5.09,5.09,0,0,0-4.09,2.21c.19,2,1.29,4.37,4.17,4.37a3.46,3.46,0,0,0,3.75-3.25C78.36,62.57,76.57,61.54,74.53,61.54Z"/><path class="cls-1" d="M85.5,65.9a6.45,6.45,0,0,0,5,2.22c2.35,0,3.83-1.46,3.83-3.28,0-2-1.46-3.33-3.75-3.33a5.62,5.62,0,0,0-4.09,1.62l-2.32-.67V52H96.45V54.9h-9v5.4a6.13,6.13,0,0,1,4.23-1.62,5.78,5.78,0,0,1,6,6c0,3.89-2.94,6.33-7.11,6.33a8.5,8.5,0,0,1-6.94-2.89Z"/><circle class="cls-2" cx="64" cy="64" r="53.87"/></svg>