<?xml version="1.0" encoding="utf-8"?>
<!-- Generator: Adobe Illustrator 25.2.3, SVG Export Plug-In . SVG Version: 6.00 Build 0)  -->
<svg version="1.1" id="a5807f2b-5c71-4a73-b7f8-0f6ede3c1b1b"
	 xmlns="http://www.w3.org/2000/svg" xmlns:xlink="http://www.w3.org/1999/xlink" x="0px" y="0px" viewBox="0 0 50 50"
	 style="enable-background:new 0 0 50 50;" xml:space="preserve">
<path style="fill:#1D9CD3;" d="M30.979,38.272L25.434,43.8V30.308c0-0.276-0.224-0.5-0.5-0.5s-0.5,0.224-0.5,0.5V43.8l-5.544-5.528
	c-0.192-0.198-0.509-0.203-0.707-0.01c-0.198,0.192-0.203,0.509-0.01,0.707c0.004,0.004,0.008,0.008,0.012,0.012l6.394,6.372l0,0
	l0.009,0.006c0.044,0.043,0.096,0.077,0.153,0.1c0.122,0.05,0.259,0.05,0.381,0c0.057-0.023,0.109-0.057,0.153-0.1l0.009-0.006l0,0
	l6.4-6.372c0.192-0.198,0.188-0.515-0.01-0.707C31.481,38.086,31.173,38.085,30.979,38.272z"/>
<path style="fill:#1D9CD3;" d="M25,4.5C16.163,4.494,8.995,11.653,8.989,20.489C8.984,28.522,14.936,35.314,22.9,36.363
	c0.274,0.036,0.525-0.157,0.562-0.431s-0.157-0.525-0.431-0.562c-8.212-1.089-13.987-8.629-12.898-16.842S18.762,4.542,26.975,5.631
	s13.987,8.629,12.898,16.842c-0.894,6.74-6.209,12.036-12.952,12.905c-0.276,0.017-0.486,0.255-0.469,0.531
	c0.017,0.276,0.255,0.486,0.531,0.469c0.022,0.001,0.043,0.001,0.065,0c8.769-1.088,14.996-9.079,13.908-17.849
	C39.957,10.487,33.104,4.461,25,4.5z"/>
<path style="fill:#1D9CD3;" d="M37.721,15.144c-0.225-0.16-0.537-0.107-0.697,0.118c-0.001,0.001-0.002,0.003-0.003,0.004
	l-3.03,4.312l-3.031-4.312c-0.15-0.232-0.46-0.298-0.691-0.148c-0.232,0.15-0.298,0.46-0.148,0.691
	c0.007,0.01,0.014,0.021,0.021,0.031l2.872,4.086h-1.24c-0.276,0-0.5,0.224-0.5,0.5s0.224,0.5,0.5,0.5h1.718v1.479h-1.715
	c-0.276,0-0.5,0.224-0.5,0.5s0.224,0.5,0.5,0.5h1.718v1.7c0,0.276,0.224,0.5,0.5,0.5s0.5-0.224,0.5-0.5v-1.7H36.2
	c0.276,0,0.5-0.224,0.5-0.5s-0.224-0.5-0.5-0.5h-1.705v-1.479H36.2c0.276,0,0.5-0.224,0.5-0.5s-0.224-0.5-0.5-0.5h-1.23l2.871-4.086
	C38,15.615,37.946,15.303,37.721,15.144z"/>
<path style="fill:#1D9CD3;" d="M22.594,21.531c0-0.276-0.224-0.5-0.5-0.5s-0.5,0.224-0.5,0.5c-0.101,1.696,1.192,3.153,2.889,3.255
	c0.008,0.001,0.017,0.001,0.025,0.001V25.6c0,0.276,0.224,0.5,0.5,0.5s0.5-0.224,0.5-0.5v-0.8c2.412-0.178,2.9-1.6,2.958-2.476
	c0.094-1.536-0.781-2.368-2.958-2.819v-3.153c0.928-0.038,1.712,0.683,1.75,1.611c0.004,0.096,0,0.193-0.013,0.289v0.01
	c0.013,0.271,0.243,0.481,0.514,0.469c0.004,0,0.008,0,0.012-0.001c0.277-0.018,0.487-0.255,0.472-0.532
	c0.101-1.474-1.012-2.751-2.486-2.852c-0.083-0.006-0.167-0.008-0.25-0.005v-0.33c0-0.276-0.224-0.5-0.5-0.5s-0.5,0.224-0.5,0.5
	v0.332c-0.738,0.013-1.445,0.298-1.986,0.8c-0.434,0.447-0.669,1.05-0.653,1.673c0.017,1.2,0.5,2.04,2.639,2.5v3.472
	c-1.147-0.09-2.004-1.093-1.914-2.241C22.593,21.542,22.594,21.536,22.594,21.531z M27.468,22.262
	c-0.058,0.927-0.719,1.446-1.96,1.55V20.52C27.54,20.981,27.5,21.687,27.468,22.262z M22.868,17.797
	c-0.01-0.354,0.121-0.696,0.366-0.952c0.353-0.311,0.803-0.491,1.273-0.509V19.3c-1.607-0.379-1.63-0.9-1.638-1.5L22.868,17.797z"/>
<path style="fill:#1D9CD3;" d="M11.892,21.456c0,0.276,0.224,0.5,0.5,0.5h0.775c0.5,2.159,1.973,3.654,3.832,3.654
	c1.19-0.02,2.284-0.659,2.886-1.686c0.162-0.224,0.111-0.536-0.112-0.698c-0.224-0.162-0.536-0.111-0.698,0.112
	c-0.005,0.007-0.011,0.015-0.015,0.023c-0.414,0.754-1.199,1.23-2.059,1.249c-1.342,0-2.4-1.053-2.824-2.654h3.983
	c0.276,0,0.5-0.224,0.5-0.5s-0.224-0.5-0.5-0.5h-4.152c-0.018-0.2-0.04-0.408-0.04-0.624s0.022-0.433,0.042-0.644h4.149
	c0.276,0,0.5-0.224,0.5-0.5s-0.224-0.5-0.5-0.5h-3.979c0.429-1.59,1.483-2.635,2.82-2.635c0.851,0.021,1.629,0.488,2.046,1.231
	c0.143,0.237,0.45,0.313,0.686,0.17c0.237-0.143,0.313-0.45,0.17-0.686c-0.008-0.013-0.016-0.025-0.025-0.037
	c-0.601-1.023-1.691-1.659-2.877-1.678c-1.853,0-3.322,1.487-3.828,3.635h-0.779c-0.276,0-0.5,0.224-0.5,0.5s0.224,0.5,0.5,0.5
	h0.621c-0.018,0.214-0.046,0.422-0.046,0.644s0.028,0.417,0.045,0.624h-0.62c-0.276-0.001-0.5,0.223-0.501,0.499
	C11.892,21.455,11.892,21.456,11.892,21.456z"/>
</svg>
