<?xml version="1.0" encoding="utf-8"?>
<!-- Generator: Adobe Illustrator 25.2.3, SVG Export Plug-In . SVG Version: 6.00 Build 0)  -->
<svg version="1.1" id="e500720d-5458-491c-98ef-ca47f2604487"
	 xmlns="http://www.w3.org/2000/svg" xmlns:xlink="http://www.w3.org/1999/xlink" x="0px" y="0px" viewBox="0 0 50 50"
	 style="enable-background:new 0 0 50 50;" xml:space="preserve">
<path style="fill:#1D9CD3;" d="M25,4.594c-11.322,0-20.5,9.178-20.5,20.5s9.178,20.5,20.5,20.5s20.5-9.178,20.5-20.5
	C45.487,13.777,36.317,4.607,25,4.594z M25,44.594c-10.77,0-19.5-8.73-19.5-19.5s8.73-19.5,19.5-19.5s19.5,8.73,19.5,19.5
	C44.487,35.858,35.764,44.581,25,44.594z"/>
<path style="fill:#1D9CD3;" d="M35.484,24.671L18.016,14.662c-0.239-0.138-0.545-0.055-0.683,0.185
	c-0.044,0.076-0.066,0.162-0.066,0.249v20c0,0.276,0.224,0.5,0.5,0.5c0.087,0,0.172-0.023,0.248-0.066l17.468-9.987
	c0.24-0.137,0.323-0.443,0.186-0.682c-0.044-0.077-0.108-0.141-0.186-0.186L35.484,24.671z M18.267,34.23V15.958L34.229,25.1
	L18.267,34.23z"/>
</svg>
