<?xml version="1.0" encoding="utf-8"?>
<!-- Generator: Adobe Illustrator 25.2.3, SVG Export Plug-In . SVG Version: 6.00 Build 0)  -->
<svg version="1.1" id="Layer_1" xmlns="http://www.w3.org/2000/svg" xmlns:xlink="http://www.w3.org/1999/xlink" x="0px" y="0px"
	 viewBox="0 0 50 50" style="enable-background:new 0 0 50 50;" xml:space="preserve">
<g id="f0e09b72-5d24-44cf-aeab-d558f9a88aad">
	<path style="fill:#FFFFFF;" d="M12.03,25.07l-0.542,3.224c-0.04,0.239,0.097,0.473,0.325,0.554l3.093,1.1l0.739,2.847l0,0
		l-2.3,9.425c-0.066,0.268,0.098,0.539,0.367,0.605c0.146,0.036,0.3,0.004,0.42-0.087L19.3,38.85l3.132,5.643
		c0.088,0.159,0.255,0.257,0.437,0.257c0.023,0,0.046-0.001,0.068-0.005c0.204-0.028,0.37-0.179,0.418-0.379l1.678-7.066
		l1.524,7.053c0.044,0.204,0.209,0.359,0.415,0.39c0.024,0.003,0.049,0.005,0.073,0.005c0.182,0,0.349-0.098,0.437-0.257
		l3.132-5.643l5.164,3.89c0.22,0.166,0.534,0.123,0.7-0.098c0.091-0.12,0.122-0.274,0.087-0.42l-2.214-9.077
		c0.036-0.05,0.062-0.106,0.077-0.166L35.2,29.8l3.076-1.145c0.228-0.082,0.365-0.316,0.324-0.555l-0.589-3.216l2.342-2.291
		c0.174-0.17,0.2-0.44,0.063-0.64l-1.851-2.7l1.2-3.041c0.09-0.225,0.006-0.482-0.2-0.61l-2.794-1.717l-0.143-3.266
		c-0.011-0.242-0.194-0.441-0.434-0.473L32.94,9.709L31.47,6.78c-0.108-0.216-0.355-0.324-0.587-0.256l-3.152,0.92L25.2,5.363
		c-0.185-0.154-0.455-0.154-0.64,0l-2.5,2.117l-3.166-0.874c-0.233-0.064-0.478,0.047-0.583,0.265l-1.43,2.952l-3.248,0.484
		c-0.239,0.036-0.419,0.238-0.426,0.48l-0.1,3.268l-2.769,1.756c-0.205,0.13-0.287,0.389-0.194,0.613l1.256,3.024l-1.817,2.725
		c-0.134,0.202-0.104,0.472,0.072,0.639L12.03,25.07z M22.678,42.88l-2.786-5.018c-0.134-0.242-0.438-0.329-0.68-0.195
		c-0.02,0.011-0.04,0.024-0.058,0.038L14.649,41.1l1.862-7.631l3.014-0.228l2.044,2.56c0.095,0.119,0.239,0.188,0.391,0.188
		c0.082,0,0.163-0.021,0.236-0.06l2.276-1.222l0.072,0.332L22.678,42.88z M30.757,37.705c-0.221-0.166-0.534-0.122-0.7,0.099
		c-0.014,0.019-0.027,0.038-0.038,0.058l-2.766,4.983l-1.7-7.879c0-0.014,0-0.026-0.008-0.04l-0.077-0.354L28,35.886
		c0.214,0.111,0.477,0.053,0.625-0.137l2.008-2.589l2.731,0.166l1.9,7.773L30.757,37.705z M12.375,19.78
		c0.092-0.139,0.11-0.314,0.046-0.468l-1.189-2.881l2.64-1.674c0.14-0.089,0.227-0.242,0.232-0.408l0.09-3.115l3.1-0.461
		c0.164-0.024,0.305-0.128,0.377-0.277l1.356-2.81l3.018,0.834c0.159,0.044,0.33,0.007,0.456-0.1l2.383-2.02L27.3,8.384
		c0.127,0.106,0.299,0.141,0.458,0.094L30.763,7.6l1.4,2.791c0.074,0.148,0.217,0.249,0.381,0.271l3.1,0.416l0.136,3.113
		c0.009,0.164,0.098,0.314,0.238,0.4l2.663,1.635l-1.146,2.9c-0.061,0.155-0.042,0.33,0.052,0.467l1.763,2.577l-2.231,2.184
		c-0.119,0.116-0.172,0.284-0.142,0.447l0.561,3.065l-2.931,1.092c-0.156,0.058-0.273,0.189-0.312,0.35l-0.739,3.028l-3.125-0.19
		c-0.165-0.008-0.323,0.064-0.426,0.193l-1.913,2.468l-2.779-1.44c-0.146-0.077-0.32-0.077-0.466,0l-0.266,0.143
		c-0.02,0.009-0.04,0.02-0.059,0.032l-2.432,1.3l-1.949-2.44c-0.095-0.119-0.239-0.188-0.391-0.188h-0.037l-3.122,0.236
		l-0.784-3.018c-0.042-0.16-0.16-0.289-0.316-0.345l-2.947-1.05l0.516-3.072c0.028-0.164-0.028-0.33-0.148-0.445l-2.263-2.152
		L12.375,19.78z"/>
	<path style="fill:#FFFFFF;" d="M23.087,26.313c0.094,0.126,0.243,0.2,0.4,0.2H23.5c0.162-0.006,0.311-0.089,0.4-0.224l6.808-10.3
		c0.161-0.224,0.11-0.537-0.115-0.698c-0.224-0.161-0.537-0.11-0.698,0.115c-0.007,0.01-0.014,0.021-0.021,0.031l-6.419,9.709
		l-3.238-4.3c-0.166-0.221-0.479-0.265-0.7-0.099c-0.22,0.166-0.265,0.479-0.1,0.699L23.087,26.313z"/>
	<path style="fill:#FFFFFF;" d="M25.059,31.363c5.799,0,10.5-4.701,10.5-10.5s-4.701-10.5-10.5-10.5s-10.5,4.701-10.5,10.5l0,0
		C14.566,26.659,19.263,31.356,25.059,31.363z M25.059,11.363c5.247,0,9.5,4.253,9.5,9.5s-4.253,9.5-9.5,9.5s-9.5-4.253-9.5-9.5
		C15.565,15.619,19.815,11.369,25.059,11.363z"/>
</g>
</svg>
