<?xml version="1.0" encoding="utf-8"?>
<!-- Generator: Adobe Illustrator 25.2.3, SVG Export Plug-In . SVG Version: 6.00 Build 0)  -->
<svg version="1.1" id="Layer_1" xmlns="http://www.w3.org/2000/svg" xmlns:xlink="http://www.w3.org/1999/xlink" x="0px" y="0px"
	 viewBox="0 0 50 50" style="enable-background:new 0 0 50 50;" xml:space="preserve">
<g>
	<path d="M15.696,20.489H11.04c-0.357,0-0.647,0.291-0.647,0.647v3.913c0,0.357,0.29,0.647,0.647,0.647h4.656
		c0.357,0,0.647-0.29,0.647-0.647v-3.913C16.343,20.779,16.053,20.489,15.696,20.489z M11.143,22.358h4.45v0.36h-4.45V22.358z
		 M11.143,23.468h4.45v0.37h-4.45V23.468z M15.593,21.239v0.369h-4.45v-0.369H15.593z M11.143,24.946v-0.358h4.45v0.358H11.143z"/>
	<path d="M30.083,18.135c-1.505,0-2.729,1.224-2.729,2.729s1.225,2.729,2.729,2.729s2.729-1.224,2.729-2.729
		S31.588,18.135,30.083,18.135z M30.083,22.593c-0.954,0-1.729-0.775-1.729-1.729s0.775-1.729,1.729-1.729
		c0.953,0,1.729,0.775,1.729,1.729S31.036,22.593,30.083,22.593z"/>
	<path d="M11.083,35.162c0-1.098-0.8-1.99-1.784-1.99c-0.983,0-1.784,0.893-1.784,1.99s0.8,1.99,1.784,1.99
		C10.283,37.152,11.083,36.26,11.083,35.162z M9.299,36.402c-0.57,0-1.034-0.557-1.034-1.24s0.464-1.24,1.034-1.24
		c0.57,0,1.034,0.557,1.034,1.24S9.869,36.402,9.299,36.402z"/>
	<path d="M13.578,33.172c-0.984,0-1.784,0.893-1.784,1.99s0.8,1.99,1.784,1.99c0.983,0,1.784-0.893,1.784-1.99
		S14.562,33.172,13.578,33.172z M13.578,36.402c-0.57,0-1.034-0.557-1.034-1.24s0.464-1.24,1.034-1.24
		c0.57,0,1.034,0.557,1.034,1.24S14.148,36.402,13.578,36.402z"/>
	<path d="M11.443,36.223c-0.478,0-1.075,0.952-1.075,1.313c0,0.464,0.355,0.841,0.791,0.841h0.578c0.436,0,0.791-0.377,0.791-0.841
		C12.528,37.175,11.925,36.223,11.443,36.223z M11.737,37.627h-0.578c-0.01-0.002-0.041-0.034-0.043-0.062
		c0.024-0.109,0.197-0.373,0.329-0.521c0.134,0.146,0.31,0.405,0.333,0.492C11.778,37.593,11.747,37.625,11.737,37.627z"/>
	<path d="M13.338,30.043c-1.21-0.51-2.541-0.51-3.751,0c-1.162,0.491-3.164,1.72-3.515,4.439c-0.189,1.47,0.07,2.618,0.771,3.415
		c0.648,0.737,1.504,0.969,1.988,1.042L8.83,40.425c0,0.004,0,0.007,0,0.011c0,0.686,1.43,0.829,2.629,0.829
		s2.629-0.144,2.629-0.865v-1.461c0.485-0.073,1.341-0.305,1.989-1.042c0.702-0.797,0.961-1.945,0.772-3.415
		C16.498,31.762,14.499,30.533,13.338,30.043z M15.52,37.395c-0.708,0.811-1.797,0.827-1.808,0.827
		c-0.206,0.001-0.374,0.169-0.374,0.375v1.695c-0.108,0.043-0.317,0.094-0.602,0.137v-1.381c0-0.207-0.168-0.375-0.375-0.375
		s-0.375,0.168-0.375,0.375v1.45c-0.166,0.009-0.335,0.017-0.527,0.017c-0.192,0-0.36-0.008-0.526-0.017v-1.45
		c0-0.207-0.168-0.375-0.375-0.375s-0.375,0.168-0.375,0.375v1.381c-0.285-0.042-0.494-0.093-0.602-0.137v-1.694
		c0-0.206-0.168-0.374-0.374-0.375c-0.011,0-1.099-0.017-1.807-0.826c-0.548-0.628-0.745-1.576-0.584-2.818
		c0.288-2.229,1.825-3.321,3.063-3.844c1.021-0.432,2.146-0.432,3.167,0c1.237,0.522,2.771,1.612,3.059,3.843
		C16.265,35.819,16.068,36.767,15.52,37.395z"/>
	<path d="M47.001,15.323c-0.025-0.061-0.062-0.116-0.108-0.162l-8.979-8.978c-0.046-0.046-0.101-0.083-0.162-0.108
		c-0.06-0.025-0.126-0.039-0.192-0.039H22.05c-0.276,0-0.5,0.224-0.5,0.5v9.363L9.652,15.898c-0.888,0-1.61,0.722-1.61,1.61
		L8.04,27.688c-2.987,1.319-5.08,4.306-5.08,7.776c0,4.687,3.813,8.5,8.5,8.5s8.5-3.813,8.5-8.5c0-0.25-0.016-0.495-0.037-0.739
		h1.662v4.465c0,0.276,0.224,0.5,0.5,0.5H46.54c0.276,0,0.5-0.224,0.5-0.5V15.515C47.04,15.448,47.026,15.383,47.001,15.323z
		 M38.06,7.743l7.273,7.272H38.06V7.743z M11.46,42.964c-4.136,0-7.5-3.364-7.5-7.5s3.364-7.5,7.5-7.5s7.5,3.364,7.5,7.5
		S15.596,42.964,11.46,42.964z M18.693,31.021h7.336c0.276,0,0.5-0.224,0.5-0.5s-0.224-0.5-0.5-0.5h-8.048
		c-0.379-0.453-0.807-0.863-1.271-1.229h15.6c0.276,0,0.5-0.224,0.5-0.5s-0.224-0.5-0.5-0.5H15.097
		c-1.104-0.526-2.335-0.829-3.637-0.829c-0.841,0-1.652,0.127-2.42,0.356l0.002-9.812c0-0.336,0.273-0.61,0.61-0.61L33.43,16.9
		c0.337,0,0.61,0.273,0.61,0.61l-0.002,15.605c0,0.336-0.273,0.609-0.61,0.609H19.78C19.576,32.751,19.199,31.843,18.693,31.021z
		 M22.585,38.689v-3.965h10.843c0.888,0,1.61-0.722,1.61-1.609L35.04,17.51c0-0.888-0.723-1.61-1.61-1.61l-10.88-0.001V7.036h14.51
		v8.479c0,0.276,0.224,0.5,0.5,0.5h8.48v22.674H22.585z"/>
</g>
</svg>
