<svg id="Icons" xmlns="http://www.w3.org/2000/svg" viewBox="0 0 128 128"><defs><style>.cls-1{font-size:18px;fill:#fff;font-family:MyriadPro-Regular, Myriad Pro;}.cls-2{letter-spacing:0em;}.cls-3{letter-spacing:0em;}.cls-4{letter-spacing:-0.01em;}.cls-5{letter-spacing:0em;}.cls-6{letter-spacing:-0.01em;}.cls-7,.cls-9{fill:none;stroke:#1d9cd3;stroke-linecap:round;stroke-linejoin:round;}.cls-7{stroke-width:3px;}.cls-8{fill:#1d9cd3;}.cls-9{stroke-width:2.5px;}</style></defs><text class="cls-1" transform="translate(-148.72 -16.43)">shield<tspan class="cls-2" x="44.75" y="0">-</tspan><tspan class="cls-3" x="50.18" y="0">with-speedome</tspan><tspan class="cls-4" x="168.59" y="0">t</tspan><tspan x="174.44" y="0">e</tspan><tspan class="cls-5" x="183.45" y="0">r</tspan><tspan x="189.25" y="0">-squa</tspan><tspan class="cls-6" x="230.63" y="0">r</tspan><tspan x="236.34" y="0">e</tspan></text><path class="cls-7" d="M92.07,18.44c-2,.1-3.95.18-5.91.26v0L72,7.81a12,12,0,0,0-15-.22L41.84,18.7c-2-.08-3.94-.16-5.91-.26C24.77,17.89,16.07,14.72,16.07,30s2.07,40.14,2.07,40.14-1.25,18.62,20.27,34.35C56.92,118,63.93,122.94,63.93,122.94h0s7.15-4.9,25.66-18.42c21.52-15.73,20.27-34.35,20.27-34.35s2.07-24.83,2.07-40.14-8.7-12.14-19.86-11.59"/><circle class="cls-8" cx="64" cy="62" r="3.76"/><line class="cls-9" x1="76.27" y1="40.62" x2="64" y2="62"/><circle class="cls-7" cx="64" cy="62" r="28.2"/><path class="cls-9" d="M84,55.46A21.05,21.05,0,0,1,85,62M79.66,48a20.57,20.57,0,0,1,2.63,3.66M43,62A21,21,0,0,1,76.55,45.16"/></svg>