<svg id="Icons" xmlns="http://www.w3.org/2000/svg" viewBox="0 0 128 128"><defs><style>.cls-1,.cls-2{fill:none;stroke:#1d9cd3;stroke-width:3px;}.cls-1{stroke-linecap:round;stroke-linejoin:round;}.cls-2{stroke-miterlimit:10;}</style></defs><title>shield-with-network-square_1D9CD3</title><path class="cls-1" d="M92.07,18.44c-2,.1-3.95.18-5.91.26v0L72,7.81a12,12,0,0,0-15-.22L41.84,18.7c-2-.08-3.94-.16-5.91-.26C24.77,17.89,16.07,14.72,16.07,30s2.07,40.14,2.07,40.14-1.25,18.62,20.27,34.35C56.92,118,63.93,122.94,63.93,122.94h0s7.15-4.9,25.66-18.42c21.52-15.73,20.27-34.35,20.27-34.35s2.07-24.83,2.07-40.14-8.7-12.14-19.86-11.59"/><circle class="cls-1" cx="63.83" cy="30.28" r="7.54"/><circle class="cls-1" cx="35.5" cy="51.29" r="7.54"/><circle class="cls-1" cx="46.21" cy="85.01" r="7.54"/><circle class="cls-1" cx="81.52" cy="85.01" r="7.54"/><circle class="cls-1" cx="63.87" cy="60.26" r="7.54"/><circle class="cls-1" cx="92.5" cy="51.29" r="7.54"/><line class="cls-2" x1="63.94" y1="37.96" x2="63.94" y2="52.84"/><line class="cls-2" x1="43.02" y1="53.29" x2="56.77" y2="57.76"/><line class="cls-2" x1="50.31" y1="78.77" x2="59.33" y2="66.35"/><line class="cls-2" x1="77.44" y1="78.81" x2="68.41" y2="66.38"/><line class="cls-2" x1="85.25" y1="53.22" x2="70.96" y2="57.86"/></svg>