<svg xmlns="http://www.w3.org/2000/svg" viewBox="0 0 50 50"><g id="f1e170c1-1b0e-4f27-9fa6-ff9433dfa591" data-name="Icons"><path d="M45.979,38h-.007l-5.8.083a20.065,20.065,0,0,0-27.1-29.235.5.5,0,0,0,.594.8A19.067,19.067,0,0,1,39.537,37.3l-.106-5.612a.5.5,0,0,0-.5-.491h-.01a.5.5,0,0,0-.49.509l.131,6.906a.5.5,0,0,0,.5.491h.006l6.917-.1a.5.5,0,0,0-.006-1Z"/><path d="M36.315,40.346A19.067,19.067,0,0,1,10.445,12.7l.106,5.61a.5.5,0,0,0,.5.491h.01a.5.5,0,0,0,.49-.509L11.42,11.39a.486.486,0,0,0-.027-.12.5.5,0,0,0-.015-.067.487.487,0,0,0-.467-.3l-6.9.116a.5.5,0,0,0-.492.508.488.488,0,0,0,.509.492l5.775-.1a20.06,20.06,0,0,0,27.1,29.233.5.5,0,1,0-.594-.805Z"/><path d="M34.123,16.011c-.7-.641-1.727-.553-2.816-.461-.272.023-.556.047-.849.061-.322.016-.644.031-.964.043l-2.62-2.013a2.851,2.851,0,0,0-3.528-.052l-2.829,2.065c-.325-.012-.649-.027-.975-.043-.293-.014-.577-.038-.849-.061-1.089-.092-2.121-.18-2.816.461a3.042,3.042,0,0,0-.739,2.361c0,2.966.4,7.8.4,7.8-.011.16-.21,3.945,4.164,7.139,3.622,2.644,4.993,3.6,4.993,3.6a.5.5,0,0,0,.569,0c.013-.01,1.444-.99,5.024-3.6,4.374-3.194,4.175-6.979,4.163-7.064,0-.049.406-4.9.406-7.874A3.042,3.042,0,0,0,34.123,16.011ZM29.7,32.5c-2.675,1.953-4.142,2.989-4.715,3.388-.563-.4-2.008-1.429-4.691-3.388-3.907-2.853-3.764-6.129-3.757-6.339,0-.049-.4-4.859-.4-7.791a2.263,2.263,0,0,1,.416-1.625,1.5,1.5,0,0,1,1.021-.262c.311,0,.661.03,1.034.061.284.024.579.049.884.064q.582.029,1.16.05a.5.5,0,0,0,.313-.1l2.97-2.168a1.839,1.839,0,0,1,2.329.038l2.726,2.094a.486.486,0,0,0,.356.132q.577-.021,1.16-.05c.3-.015.6-.04.884-.064.9-.076,1.682-.142,2.055.2a2.263,2.263,0,0,1,.416,1.625c0,2.932-.4,7.742-.4,7.863C33.467,26.373,33.61,29.649,29.7,32.5Z"/><path d="M28.364,20.956a.5.5,0,0,0-.692.141l-3.625,5.484-1.736-2.3a.5.5,0,1,0-.8.6l2.162,2.869a.5.5,0,0,0,.4.2h.016a.5.5,0,0,0,.4-.224l4.015-6.074A.5.5,0,0,0,28.364,20.956Z"/><path d="M25,18.012a6.4,6.4,0,1,0,6.4,6.4A6.4,6.4,0,0,0,25,18.012Zm0,11.795a5.4,5.4,0,1,1,5.4-5.4A5.4,5.4,0,0,1,25,29.807Z"/></g></svg>