<?xml version="1.0" encoding="utf-8"?>
<!-- Generator: Adobe Illustrator 25.2.3, SVG Export Plug-In . SVG Version: 6.00 Build 0)  -->
<svg version="1.1" id="Layer_1" xmlns="http://www.w3.org/2000/svg" xmlns:xlink="http://www.w3.org/1999/xlink" x="0px" y="0px"
	 viewBox="0 0 50 50" style="enable-background:new 0 0 50 50;" xml:space="preserve">
<g id="a4f70712-38f8-43c5-9b84-24e9fe188d59">
	<path style="fill:#FFFFFF;" d="M40.821,9.452c-1.1-1.015-2.758-0.875-4.673-0.713c-0.483,0.04-0.989,0.083-1.51,0.109
		c-0.616,0.031-1.23,0.057-1.841,0.08L28.071,5.3c-1.662-1.376-4.058-1.411-5.76-0.085l-5.095,3.713
		c-0.615-0.023-1.233-0.05-1.854-0.08c-0.521-0.026-1.027-0.069-1.51-0.109c-1.916-0.162-3.57-0.3-4.673,0.713
		C8.375,10.191,8,11.423,8,13.329c0,5.22,0.707,13.747,0.713,13.757c-0.018,0.273-0.359,6.737,7.185,12.239
		c6.3,4.6,8.768,6.318,8.791,6.335c0.171,0.118,0.398,0.118,0.569,0c0.024-0.017,2.54-1.74,8.844-6.338
		c7.544-5.5,7.2-11.966,7.184-12.164C41.293,27.073,42,18.546,42,13.326C42,11.423,41.625,10.191,40.821,9.452z M33.513,38.517
		c-5.109,3.726-7.721,5.558-8.535,6.124c-0.806-0.569-3.388-2.4-8.491-6.124c-7.075-5.16-6.779-11.3-6.777-11.439
		C9.7,26.993,9,18.507,9,13.329c0-1.584,0.28-2.612,0.856-3.141c0.585-0.436,1.312-0.637,2.038-0.563
		c0.559,0,1.188,0.052,1.874,0.11c0.495,0.042,1.012,0.085,1.544,0.112c0.682,0.034,1.362,0.063,2.04,0.087
		c0.113,0.009,0.226-0.027,0.313-0.1L22.9,6.021c1.35-1.047,3.245-1.017,4.562,0.071l4.816,3.7c0.095,0.103,0.232,0.157,0.371,0.145
		c0.677-0.025,1.357-0.054,2.04-0.087c0.532-0.027,1.049-0.07,1.544-0.112c1.751-0.147,3.134-0.264,3.912,0.453
		c0.576,0.529,0.856,1.557,0.856,3.141c0,5.178-0.7,13.664-0.711,13.823C40.292,27.213,40.588,33.357,33.513,38.517z"/>
	<path style="fill:#FFFFFF;" d="M27.223,14.332c-5.896-1.222-11.67,2.557-12.91,8.449c-1.222,5.895,2.565,11.664,8.46,12.886
		c0.001,0,0.003,0.001,0.004,0.001c5.897,1.227,11.674-2.554,12.91-8.449c1.222-5.895-2.565-11.664-8.46-12.886
		C27.226,14.333,27.224,14.332,27.223,14.332z M34.708,27.015c-1.128,5.363-6.391,8.796-11.754,7.667
		c-2.562-0.539-4.807-2.069-6.246-4.256c-1.449-2.191-1.959-4.871-1.416-7.441c1.128-5.363,6.391-8.796,11.754-7.667
		c2.562,0.539,4.807,2.069,6.246,4.256C34.741,21.765,35.251,24.445,34.708,27.015z"/>
	<polygon style="fill:#FFFFFF;" points="21.719,20.379 28.156,20.379 23.271,31.088 24.371,31.088 29.342,20.17 29.342,19.474 
		21.719,19.474 	"/>
</g>
</svg>
