<svg id="f94eefb3-5611-4251-8c88-3d73dd912c95" data-name="Icons" xmlns="http://www.w3.org/2000/svg" viewBox="0 0 50 50"><path d="M45,15.594H14.309L12.747,9.47a.5.5,0,0,0-.484-.376H5a.5.5,0,0,0,0,1h6.874L17.463,32.01l-3,4.82a.5.5,0,0,0,.425.764h2.122a2.471,2.471,0,0,0-.513,1.5,2.5,2.5,0,0,0,5,0,2.471,2.471,0,0,0-.513-1.5H36.013a2.471,2.471,0,0,0-.513,1.5,2.5,2.5,0,0,0,5,0,2.471,2.471,0,0,0-.513-1.5h2.146a.5.5,0,0,0,0-1H15.79l2.488-4H39a.5.5,0,0,0,.468-.324l6-16A.5.5,0,0,0,45,15.594Zm-24.5,23.5a1.5,1.5,0,1,1-1.5-1.5A1.5,1.5,0,0,1,20.5,39.094Zm19,0a1.5,1.5,0,1,1-1.5-1.5A1.5,1.5,0,0,1,39.5,39.094Zm-.847-7.5H18.389l-3.826-15H44.278Z"/></svg>