<svg xmlns="http://www.w3.org/2000/svg" viewBox="0 0 50 50"><g id="a8f159e2-52e1-43bd-8431-d4b1c6e58dd7" data-name="Isolation Mode"><path d="M17.333,30.154c3.032,0,5.5-2.794,5.5-6.228s-2.467-6.227-5.5-6.227-5.5,2.793-5.5,6.227S14.3,30.154,17.333,30.154Zm0-11.457c2.481,0,4.5,2.346,4.5,5.229s-2.02,5.23-4.5,5.23-4.5-2.346-4.5-5.23S14.852,18.7,17.333,18.7Z"/><path d="M23.931,34.5H25.98a2.072,2.072,0,0,0,1.975-2.153c0-1-1.9-3.826-3.017-3.826s-2.981,2.822-2.981,3.826A2.072,2.072,0,0,0,23.931,34.5Zm.984-4.983a5.955,5.955,0,0,1,2.042,2.83A1.078,1.078,0,0,1,25.98,33.5H23.931a1.078,1.078,0,0,1-.976-1.155A6.223,6.223,0,0,1,24.915,29.518Z"/><path d="M32.514,30.154c3.032,0,5.5-2.794,5.5-6.228s-2.467-6.227-5.5-6.227-5.5,2.793-5.5,6.227S29.481,30.154,32.514,30.154Zm0-11.457c2.481,0,4.5,2.346,4.5,5.229s-2.02,5.23-4.5,5.23-4.5-2.346-4.5-5.23S30.032,18.7,32.514,18.7Z"/><path d="M16.5,36.59v6.048c0,2.052,7.626,2.111,8.495,2.111s8.5-.059,8.5-2.111V36.59a11.035,11.035,0,0,0,7.266-3.507c2.324-2.64,3.177-6.5,2.536-11.463-1.191-9.235-8-13.415-11.956-15.085a16.165,16.165,0,0,0-12.661,0C14.718,8.2,7.9,12.382,6.707,21.62c-.641,4.968.213,8.826,2.536,11.466A11.031,11.031,0,0,0,16.5,36.59ZM7.7,21.748C8.825,13.005,15.3,9.039,19.064,7.453a15.163,15.163,0,0,1,11.884,0C34.705,9.041,41.176,13.007,42.3,21.748c.6,4.663-.167,8.252-2.287,10.667a10.278,10.278,0,0,1-7.024,3.2.5.5,0,0,0-.5.5v6.393l.013.069c-.171.29-1.514.736-3.813.987V37.713a.5.5,0,0,0-1,0v5.94c-.81.061-1.708.1-2.7.1s-1.886-.04-2.7-.1V37.713a.5.5,0,1,0-1,0v5.844c-2.235-.246-3.583-.672-3.8-.961V36.115a.5.5,0,0,0-.5-.5,10.265,10.265,0,0,1-7.016-3.2C7.865,30,7.1,26.413,7.7,21.748Z"/></g></svg>