<svg xmlns="http://www.w3.org/2000/svg" viewBox="0 0 50 50"><g id="e1951848-b93d-44fa-8db1-af86aaaddce9" data-name="Isolation Mode"><path d="M25,4.5A20.5,20.5,0,1,0,45.5,25,20.523,20.523,0,0,0,25,4.5Zm0,40A19.5,19.5,0,1,1,44.5,25,19.523,19.523,0,0,1,25,44.5Z"/><path d="M33.09,11.909l1.043-1.818a.5.5,0,1,0-.867-.5l-1.043,1.818A15.388,15.388,0,0,0,9.611,25a.5.5,0,0,0,1,0A14.391,14.391,0,0,1,31.725,12.277L25.867,22.485a2.652,2.652,0,1,0,.87.493l5.855-10.2c.344.214.68.441,1.008.686a.5.5,0,0,0,.6-.8C33.839,12.392,33.468,12.144,33.09,11.909Z"/><path d="M36.481,14.752a.5.5,0,0,0-.746.666,14.417,14.417,0,0,1,1.8,2.511.5.5,0,0,0,.871-.492A15.477,15.477,0,0,0,36.481,14.752Z"/><path d="M38.678,20.519A14.372,14.372,0,0,1,39.389,25a.5.5,0,1,0,1,0,15.369,15.369,0,0,0-.761-4.792.5.5,0,1,0-.95.311Z"/></g></svg>