<svg xmlns="http://www.w3.org/2000/svg" viewBox="0 0 50 50"><g id="ad5c46ac-b779-4d0a-ae22-fe0ac3323a62" data-name="Isolation Mode"><path d="M26.312,31.458a.5.5,0,0,0,.5.5h9.642a1.967,1.967,0,0,0,1.963-1.967v-5.9a.5.5,0,0,0-1,0v5.9a.966.966,0,0,1-.963.967H26.812A.5.5,0,0,0,26.312,31.458Z"/><path d="M10.627,7.217v3.039a.5.5,0,0,0,1,0V7.217a.967.967,0,0,1,.964-.967H36.454a.966.966,0,0,1,.963.967v3.07a.5.5,0,0,0,1,0V7.217A1.967,1.967,0,0,0,36.454,5.25H12.591A1.967,1.967,0,0,0,10.627,7.217Z"/><path d="M11.127,23.525a.5.5,0,0,0-.5.5v5.966a1.967,1.967,0,0,0,1.964,1.967H22.746a.5.5,0,0,0,0-1H12.591a.967.967,0,0,1-.964-.967V24.025A.5.5,0,0,0,11.127,23.525Z"/><path d="M8.46,22.544h6.826a.5.5,0,0,0,.5-.5V16.063a.5.5,0,0,0-.5-.5h-.357V14.355a3.056,3.056,0,1,0-6.112,0v1.208H8.46a.5.5,0,0,0-.5.5v5.981A.5.5,0,0,0,8.46,22.544Zm6.326-1H8.96V16.563h5.826ZM9.817,14.355a2.056,2.056,0,1,1,4.112,0v1.208H9.817Z"/><path d="M37.988,11.293a3.063,3.063,0,0,0-3.056,3.062v1.208h-.357a.5.5,0,0,0-.5.5v5.981a.5.5,0,0,0,.5.5H41.4a.5.5,0,0,0,.5-.5V16.063a.5.5,0,0,0-.5-.5h-.357V14.355A3.063,3.063,0,0,0,37.988,11.293Zm-2.056,3.062a2.056,2.056,0,1,1,4.112,0v1.208H35.932ZM40.9,21.544H35.075V16.563H40.9Z"/><path d="M21.38,22.544h6.826a.5.5,0,0,0,.5-.5V16.063a.5.5,0,0,0-.5-.5h-5.47V14.355a2.057,2.057,0,1,1,4.113,0,.5.5,0,0,0,1,0,3.057,3.057,0,1,0-6.113,0v1.208H21.38a.5.5,0,0,0-.5.5v5.981A.5.5,0,0,0,21.38,22.544Zm6.326-1H21.88V16.563h5.826Z"/><path d="M8,41.4H24.813L40.794,41.4,38.3,43.9a.5.5,0,1,0,.708.706l3.347-3.355h0l0-.007a.488.488,0,0,0,.1-.155.5.5,0,0,0,0-.383.477.477,0,0,0-.1-.153l-.005-.008h0l-3.346-3.355a.5.5,0,1,0-.708.706l2.5,2.5L25.312,40.4V26.23l2.52,2.526a.5.5,0,0,0,.708-.706l-3.347-3.356a.515.515,0,0,0-.708,0L21.138,28.05a.5.5,0,0,0,.708.706l2.466-2.473V40.4H8a.5.5,0,0,0,0,1Z"/></g></svg>