<?xml version="1.0" encoding="utf-8"?>
<!-- Generator: Adobe Illustrator 25.2.3, SVG Export Plug-In . SVG Version: 6.00 Build 0)  -->
<svg version="1.1" id="Layer_1" xmlns="http://www.w3.org/2000/svg" xmlns:xlink="http://www.w3.org/1999/xlink" x="0px" y="0px"
	 viewBox="0 0 50 50" style="enable-background:new 0 0 50 50;" xml:space="preserve">
<g id="Layer_1_1_">
</g>
<g id="Icons">
</g>
<g id="Isolation_Mode">
	<path style="fill:#1D9CD3;" d="M41,34.991c0.276,0,0.5-0.224,0.5-0.5V31.51c0-0.276-0.224-0.5-0.5-0.5s-0.5,0.224-0.5,0.5v2.981
		C40.5,34.767,40.724,34.991,41,34.991z"/>
	<path style="fill:#1D9CD3;" d="M37,34.991c0.276,0,0.5-0.224,0.5-0.5V31.51c0-0.276-0.224-0.5-0.5-0.5s-0.5,0.224-0.5,0.5v2.981
		C36.5,34.767,36.724,34.991,37,34.991z"/>
	<path style="fill:#1D9CD3;" d="M33,34.991c0.276,0,0.5-0.224,0.5-0.5V31.51c0-0.276-0.224-0.5-0.5-0.5s-0.5,0.224-0.5,0.5v2.981
		C32.5,34.767,32.724,34.991,33,34.991z"/>
	<path style="fill:#1D9CD3;" d="M10,35c1.103,0,2-0.897,2-2s-0.897-2-2-2s-2,0.897-2,2S8.897,35,10,35z M10,32c0.552,0,1,0.448,1,1
		s-0.448,1-1,1s-1-0.448-1-1S9.448,32,10,32z"/>
	<path style="fill:#1D9CD3;" d="M6.386,37.5h37.228c1.04,0,1.886-0.846,1.886-1.886v-5.191c0-0.56-0.245-1.061-0.629-1.413
		c0.383-0.346,0.629-0.841,0.629-1.396v-5.191c0-0.56-0.245-1.061-0.629-1.413c0.383-0.346,0.629-0.841,0.629-1.396v-5.191
		c0-1.06-0.863-1.923-1.923-1.923H6.386c-1.04,0-1.886,0.846-1.886,1.886v5.228c0,0.55,0.241,1.041,0.617,1.386
		C4.741,21.345,4.5,21.836,4.5,22.386v5.228c0,0.55,0.241,1.041,0.617,1.386C4.741,29.345,4.5,29.836,4.5,30.386v5.228
		C4.5,36.654,5.346,37.5,6.386,37.5z M5.5,19.614v-5.228c0-0.489,0.397-0.886,0.886-0.886h37.191c0.509,0,0.923,0.414,0.923,0.923
		v5.191c0,0.489-0.397,0.886-0.886,0.886h-0.037H6.386C5.897,20.5,5.5,20.103,5.5,19.614z M5.5,27.614v-5.228
		c0-0.489,0.397-0.886,0.886-0.886h37.191c0.509,0,0.923,0.414,0.923,0.923v5.191c0,0.489-0.397,0.886-0.886,0.886h-0.037H6.386
		C5.897,28.5,5.5,28.103,5.5,27.614z M43.577,29.5c0.509,0,0.923,0.414,0.923,0.923v5.191c0,0.489-0.397,0.886-0.886,0.886H6.386
		c-0.489,0-0.886-0.397-0.886-0.886v-5.228c0-0.489,0.397-0.886,0.886-0.886C6.386,29.5,43.577,29.5,43.577,29.5z"/>
	<path style="fill:#1D9CD3;" d="M41,23.009c-0.276,0-0.5,0.224-0.5,0.5v2.981c0,0.276,0.224,0.5,0.5,0.5s0.5-0.224,0.5-0.5v-2.981
		C41.5,23.233,41.276,23.009,41,23.009z"/>
	<path style="fill:#1D9CD3;" d="M37,23.009c-0.276,0-0.5,0.224-0.5,0.5v2.981c0,0.276,0.224,0.5,0.5,0.5s0.5-0.224,0.5-0.5v-2.981
		C37.5,23.233,37.276,23.009,37,23.009z"/>
	<path style="fill:#1D9CD3;" d="M33,23.009c-0.276,0-0.5,0.224-0.5,0.5v2.981c0,0.276,0.224,0.5,0.5,0.5s0.5-0.224,0.5-0.5v-2.981
		C33.5,23.233,33.276,23.009,33,23.009z"/>
	<path style="fill:#1D9CD3;" d="M10,23c-1.103,0-2,0.897-2,2s0.897,2,2,2s2-0.897,2-2S11.103,23,10,23z M10,26c-0.552,0-1-0.448-1-1
		s0.448-1,1-1s1,0.448,1,1S10.552,26,10,26z"/>
	<path style="fill:#1D9CD3;" d="M41,15.009c-0.276,0-0.5,0.224-0.5,0.5v2.981c0,0.276,0.224,0.5,0.5,0.5s0.5-0.224,0.5-0.5v-2.981
		C41.5,15.233,41.276,15.009,41,15.009z"/>
	<path style="fill:#1D9CD3;" d="M37,15.009c-0.276,0-0.5,0.224-0.5,0.5v2.981c0,0.276,0.224,0.5,0.5,0.5s0.5-0.224,0.5-0.5v-2.981
		C37.5,15.233,37.276,15.009,37,15.009z"/>
	<path style="fill:#1D9CD3;" d="M33,15.009c-0.276,0-0.5,0.224-0.5,0.5v2.981c0,0.276,0.224,0.5,0.5,0.5s0.5-0.224,0.5-0.5v-2.981
		C33.5,15.233,33.276,15.009,33,15.009z"/>
	<path style="fill:#1D9CD3;" d="M10,15c-1.103,0-2,0.897-2,2s0.897,2,2,2s2-0.897,2-2S11.103,15,10,15z M10,18c-0.552,0-1-0.448-1-1
		s0.448-1,1-1s1,0.448,1,1S10.552,18,10,18z"/>
</g>
</svg>
