<svg id="e57496c8-ad35-482d-8272-2216f86b1528" data-name="Icons" xmlns="http://www.w3.org/2000/svg" viewBox="0 0 50 50"><path d="M34.8,28.016l-5.238-3.708c-1.748-4.229-4.059-5.472-4.158-5.523a.5.5,0,0,0-.584.09L22.808,20.89l-6.561-6.606c-.119-.232-.6-1.209-1.5-3.577a.491.491,0,0,0-.177-.228L9.256,6.687a.5.5,0,0,0-.644.053L6.646,8.706a.5.5,0,0,0-.053.644l3.792,5.309a.5.5,0,0,0,.228.176c2.368.908,3.345,1.386,3.577,1.5L20.8,22.9l-2.015,2.015a.5.5,0,0,0-.09.585c.052.1,1.294,2.409,5.524,4.159l3.759,5.3,8.343,8.484a.5.5,0,0,0,.354.15h0a.5.5,0,0,0,.354-.147l6.327-6.327a.505.505,0,0,0,.146-.355.5.5,0,0,0-.149-.355Zm1.872,14.368L28.739,34.32l-3.792-5.356a.5.5,0,0,0-.221-.175,11.239,11.239,0,0,1-4.95-3.452l2.082-2.083a.5.5,0,0,0,0-.708l-7.015-6.968a.485.485,0,0,0-.11-.082,33.91,33.91,0,0,0-3.621-1.54L7.653,9.114,9.02,7.747l4.842,3.458a34.5,34.5,0,0,0,1.54,3.621.553.553,0,0,0,.082.11l6.968,7.015a.5.5,0,0,0,.354.148.411.411,0,0,0,.355-.147l2.082-2.082A11.228,11.228,0,0,1,28.7,24.82a.506.506,0,0,0,.175.221l5.295,3.739,8.125,7.99Z"/><path d="M23.036,31.719l-9.723,9.786a3.381,3.381,0,0,1-2.405,1,3.415,3.415,0,0,1-2.418-5.82l9.253-9.3a.5.5,0,0,0-.709-.705l-9.253,9.3a4.411,4.411,0,0,0,6.24,6.235l9.724-9.787a.5.5,0,0,0-.709-.7Z"/><path d="M27.218,17.843l1.12-1.155a.5.5,0,0,0,.129-.456,7.047,7.047,0,0,1,10.4-7.642l-4.743,2.5a.5.5,0,0,0-.266.407l-.265,3.779a.5.5,0,0,0,.229.456l3.3,2.11a.505.505,0,0,0,.461.041l4.788-2.513a6.909,6.909,0,0,1-.387,1.743,7.083,7.083,0,0,1-8.474,4.409.5.5,0,0,0-.485.13l-1.655,1.663a.5.5,0,0,0,0,.707.5.5,0,0,0,.707,0l1.454-1.461a8.041,8.041,0,0,0,9.865-8.045.5.5,0,0,0-.247-.419.5.5,0,0,0-.486-.011l-5.237,2.767-2.814-1.8.225-3.2L40.079,9.08a.5.5,0,0,0,.065-.844,8.09,8.09,0,0,0-2.055-1.107,8.05,8.05,0,0,0-10.652,9.053l-.937.964a.5.5,0,1,0,.718.7Z"/><path d="M9.467,38.566a2.026,2.026,0,1,0,2.026-2.024A2.028,2.028,0,0,0,9.467,38.566Zm3.051,0a1.026,1.026,0,1,1-1.025-1.024A1.027,1.027,0,0,1,12.518,38.566Z"/></svg>