<svg id="Icons" xmlns="http://www.w3.org/2000/svg" viewBox="0 0 128 128"><defs><style>.cls-1,.cls-2{fill:none;stroke:#1d9cd3;stroke-linecap:round;stroke-linejoin:round;}.cls-1{stroke-width:2.5px;}.cls-2{stroke-width:3px;}</style></defs><g id="Group_13093" data-name="Group 13093"><g id="Group_13092" data-name="Group 13092"><line id="Line_255" data-name="Line 255" class="cls-1" x1="82.85" y1="72.54" x2="75.18" y2="82.02"/><line id="Line_256" data-name="Line 256" class="cls-1" x1="75.05" y1="72.54" x2="82.72" y2="82.02"/></g></g><circle id="Ellipse_126" data-name="Ellipse 126" class="cls-1" cx="78.95" cy="77.28" r="8.51"/><g id="Group_13095" data-name="Group 13095"><path id="Path_60913" data-name="Path 60913" class="cls-2" d="M52.78,52.6H47.52A14.15,14.15,0,0,0,33.3,66.67v14.5"/><path id="Path_60914" data-name="Path 60914" class="cls-2" d="M98.11,91.56V79.87a14,14,0,0,0-13.8-14.28H73.37A14.15,14.15,0,0,0,59.14,79.66V91.57"/><circle id="Ellipse_127" data-name="Ellipse 127" class="cls-2" cx="52.71" cy="40.91" r="11.69"/><circle id="Ellipse_128" data-name="Ellipse 128" class="cls-2" cx="78.69" cy="53.9" r="11.69"/></g><g id="Group_13091" data-name="Group 13091"><path id="Path_60912" data-name="Path 60912" class="cls-1" d="M58.37,57.54h0l-6.76,10L48.1,62.6"/></g><circle id="Ellipse_126-2" data-name="Ellipse 126" class="cls-1" cx="53.01" cy="64.09" r="8.51"/><path class="cls-2" d="M125,51.8,112.8,64,100.6,51.8"/><path class="cls-2" d="M3,76.2,15.2,64,27.4,76.2"/><path class="cls-2" d="M112.09,72.13A48.79,48.79,0,0,1,15.2,64"/><path class="cls-2" d="M15.81,55.87A48.79,48.79,0,0,1,112.7,64"/></svg>