<?xml version="1.0" encoding="utf-8"?>
<!-- Generator: Adobe Illustrator 25.2.3, SVG Export Plug-In . SVG Version: 6.00 Build 0)  -->
<svg version="1.1" id="Layer_1" xmlns="http://www.w3.org/2000/svg" xmlns:xlink="http://www.w3.org/1999/xlink" x="0px" y="0px"
	 viewBox="0 0 50 50" style="enable-background:new 0 0 50 50;" xml:space="preserve">
<g id="Layer_1_1_">
</g>
<g id="Icons">
</g>
<g id="Isolation_Mode">
	<g>
		<path style="fill:#FFFFFF;" d="M34.945,31.926c-0.197-0.194-0.513-0.192-0.707,0.005l-1.975,2.003l-1.975-2.003
			c-0.194-0.197-0.51-0.199-0.707-0.005s-0.199,0.51-0.005,0.707l1.985,2.013l-1.907,1.934c-0.194,0.197-0.192,0.513,0.005,0.707
			c0.098,0.096,0.224,0.144,0.351,0.144c0.129,0,0.258-0.05,0.356-0.149l1.897-1.924l1.897,1.924
			c0.098,0.099,0.227,0.149,0.356,0.149c0.127,0,0.253-0.048,0.351-0.144c0.197-0.194,0.199-0.51,0.005-0.707l-1.907-1.934
			l1.985-2.013C35.144,32.437,35.142,32.12,34.945,31.926z"/>
		<path style="fill:#FFFFFF;" d="M20.036,25.563l-2.662,4.033l-1.172-1.688c-0.158-0.227-0.469-0.284-0.696-0.125
			c-0.227,0.157-0.283,0.469-0.125,0.696l1.593,2.294c0.093,0.135,0.247,0.215,0.411,0.215c0.002,0,0.004,0,0.006,0
			c0.166-0.002,0.32-0.086,0.412-0.225l3.069-4.649c0.152-0.23,0.088-0.541-0.142-0.693C20.498,25.27,20.188,25.333,20.036,25.563z"
			/>
		<path style="fill:#FFFFFF;" d="M43.498,32.186c-0.302-1.03-0.971-1.91-1.882-2.477c-0.1-0.062-2.277-1.406-5.506-2.134
			c1.656-1.663,2.654-4.278,2.654-7.089c0-4.373-2.437-6.881-6.686-6.881s-6.686,2.508-6.686,6.881c0,2.812,0.999,5.426,2.654,7.088
			c-3.232,0.728-5.41,2.073-5.508,2.134c-0.913,0.568-1.582,1.448-1.892,2.509l-2.169,9.674c-0.061,0.27,0.109,0.537,0.378,0.597
			c0.037,0.008,0.074,0.012,0.11,0.012c0.229,0,0.435-0.158,0.487-0.391l2.162-9.643c0.232-0.793,0.748-1.472,1.453-1.91
			c0.025-0.016,2.483-1.533,5.954-2.164c1.979,1.364,4.115,1.355,6.094,0c3.478,0.629,5.945,2.148,5.971,2.165
			c0.704,0.438,1.22,1.116,1.444,1.878l2.169,9.674c0.052,0.232,0.258,0.391,0.487,0.391c0.036,0,0.073-0.004,0.11-0.012
			c0.27-0.061,0.439-0.328,0.378-0.597L43.498,32.186z M29.437,27.462C29.437,27.462,29.437,27.461,29.437,27.462
			c-1.878-1.376-3.045-4.049-3.045-6.976c0-4.861,3.092-5.881,5.686-5.881s5.686,1.021,5.686,5.881c0,2.924-1.164,5.594-3.038,6.971
			c-0.003,0.002-0.005,0.004-0.007,0.006C32.975,28.739,31.18,28.739,29.437,27.462z"/>
		<path style="fill:#FFFFFF;" d="M5.3,36.005l2.162-9.643c0.232-0.793,0.748-1.471,1.453-1.91c0.025-0.016,2.483-1.533,5.954-2.164
			c2.044,1.41,4.256,1.367,6.291-0.125c2.13-1.56,3.453-4.542,3.453-7.782c0-4.373-2.437-6.881-6.686-6.881
			s-6.686,2.508-6.686,6.881c0,2.811,0.999,5.425,2.654,7.088c-3.232,0.728-5.41,2.073-5.508,2.135
			c-0.914,0.568-1.583,1.448-1.892,2.508l-2.169,9.674c-0.061,0.27,0.109,0.537,0.378,0.597c0.037,0.008,0.074,0.012,0.11,0.012
			C5.042,36.396,5.248,36.238,5.3,36.005z M17.926,8.5c2.594,0,5.686,1.021,5.686,5.881c0,2.927-1.166,5.6-3.043,6.976
			c-1.744,1.278-3.541,1.278-5.285,0l0,0c-1.877-1.376-3.043-4.049-3.043-6.975C12.24,9.521,15.333,8.5,17.926,8.5z"/>
	</g>
</g>
</svg>
