<svg xmlns="http://www.w3.org/2000/svg" viewBox="0 0 50 50"><g id="bac9dd8a-d170-4d38-a524-bffbbd4c0ff8" data-name="Isolation Mode"><path d="M19.782,14.246l0,2.324a1.587,1.587,0,0,1-.08.523,1.063,1.063,0,0,1-.234.386.983.983,0,0,1-.373.24,1.454,1.454,0,0,1-.5.082,1.335,1.335,0,0,1-.478-.082,1,1,0,0,1-.365-.239,1.06,1.06,0,0,1-.234-.386,1.521,1.521,0,0,1-.083-.524l0-2.324h.677l0,2.324a.906.906,0,0,0,.124.513.405.405,0,0,0,.355.174.447.447,0,0,0,.38-.174.857.857,0,0,0,.133-.513l0-2.324Z" stroke="#000" stroke-miterlimit="10" stroke-width="0.118"/><path d="M22.522,16.838a.487.487,0,0,0-.032-.176.424.424,0,0,0-.111-.153.823.823,0,0,0-.205-.13,1.917,1.917,0,0,0-.314-.109,2.833,2.833,0,0,1-.437-.158,1.581,1.581,0,0,1-.368-.225,1.071,1.071,0,0,1-.254-.309.84.84,0,0,1-.095-.4.855.855,0,0,1,.094-.4.915.915,0,0,1,.26-.308,1.207,1.207,0,0,1,.393-.2,1.679,1.679,0,0,1,.491-.069,1.541,1.541,0,0,1,.5.079,1.152,1.152,0,0,1,.391.223,1.008,1.008,0,0,1,.256.341,1.019,1.019,0,0,1,.092.433h-.661a.68.68,0,0,0-.042-.216.462.462,0,0,0-.11-.17.517.517,0,0,0-.184-.111.76.76,0,0,0-.256-.04.8.8,0,0,0-.24.033.538.538,0,0,0-.177.091.389.389,0,0,0-.109.14.41.41,0,0,0-.037.175.331.331,0,0,0,.049.178.486.486,0,0,0,.143.143,1.153,1.153,0,0,0,.228.117,2.821,2.821,0,0,0,.3.1,2.632,2.632,0,0,1,.443.171,1.393,1.393,0,0,1,.348.24.994.994,0,0,1,.226.315.935.935,0,0,1,.081.394.859.859,0,0,1-.349.714,1.16,1.16,0,0,1-.39.188,1.9,1.9,0,0,1-.825.034,1.569,1.569,0,0,1-.315-.093,1.423,1.423,0,0,1-.281-.156,1.044,1.044,0,0,1-.225-.22.975.975,0,0,1-.15-.284,1.088,1.088,0,0,1-.054-.352h.665a.731.731,0,0,0,.055.273.5.5,0,0,0,.141.185.6.6,0,0,0,.217.106,1.1,1.1,0,0,0,.278.034.835.835,0,0,0,.24-.032.541.541,0,0,0,.177-.086.38.38,0,0,0,.149-.306Z" stroke="#000" stroke-miterlimit="10" stroke-width="0.118"/><path d="M26.116,16.216H24.675v.99h1.684v.547H24V14.246h2.356V14.8H24.675v.884h1.441Z" stroke="#000" stroke-miterlimit="10" stroke-width="0.118"/><path d="M28.4,16.442H27.89v1.311h-.677V14.246h1.176a1.925,1.925,0,0,1,.528.068,1.183,1.183,0,0,1,.4.2.892.892,0,0,1,.258.33,1.1,1.1,0,0,1,.09.458,1.177,1.177,0,0,1-.045.338.94.94,0,0,1-.127.269.906.906,0,0,1-.2.209,1.282,1.282,0,0,1-.261.154l.754,1.448v.031h-.725Zm-.513-.548h.5a.622.622,0,0,0,.442-.146.52.52,0,0,0,.156-.4.54.54,0,0,0-.152-.409.624.624,0,0,0-.448-.146h-.5Z" stroke="#000" stroke-miterlimit="10" stroke-width="0.118"/><path d="M32.782,17.753h-.675l-.975-2.262v2.262H30.45V14.246h.682L32.1,16.5l0-2.252h.679Z" stroke="#000" stroke-miterlimit="10" stroke-width="0.118"/><path d="M35.45,17.021H34.4l-.207.732h-.712l1.148-3.507h.615l1.127,3.507h-.713Zm-.886-.576h.727l-.359-1.291Z" stroke="#000" stroke-miterlimit="10" stroke-width="0.118"/><path d="M37.812,14.246l.333,1.317.378-1.317h.841v3.507h-.622V16.715l.029-1.641-.46,1.523h-.335l-.412-1.457.029,1.575v1.038h-.621V14.246Z" stroke="#000" stroke-miterlimit="10" stroke-width="0.118"/><path d="M42.4,16.216H40.955v.99h1.684v.547H40.276V14.246h2.355V14.8H40.955v.884H42.4Z" stroke="#000" stroke-miterlimit="10" stroke-width="0.118"/><path d="M46,11.5H14a.5.5,0,0,0-.5.5v7.013c-.089,0-.175-.013-.265-.013a9.75,9.75,0,1,0,9.584,11.5H46a.5.5,0,0,0,.5-.5V22a.5.5,0,0,0-.5-.5H19.731a9.685,9.685,0,0,0-1.369-1.027H46a.5.5,0,0,0,.5-.5V12A.5.5,0,0,0,46,11.5Zm-32.765,26a8.75,8.75,0,1,1,8.75-8.75A8.76,8.76,0,0,1,13.235,37.5Zm32.265-8H22.947c.019-.248.038-.5.038-.75a9.7,9.7,0,0,0-2.276-6.25H45.5Zm0-10.027H16.223a9.649,9.649,0,0,0-1.723-.381V12.5h31Z"/><polygon points="24.446 27.152 25.471 26.501 25.416 27.714 26.11 27.714 26.055 26.501 27.069 27.152 27.422 26.557 26.353 26.006 27.422 25.454 27.069 24.848 26.055 25.499 26.11 24.286 25.416 24.286 25.471 25.499 24.446 24.848 24.105 25.454 25.174 26.006 24.105 26.557 24.446 27.152"/><polygon points="28.315 27.152 29.34 26.501 29.284 27.714 29.979 27.714 29.924 26.501 30.938 27.152 31.29 26.557 30.221 26.006 31.29 25.454 30.938 24.848 29.924 25.499 29.979 24.286 29.284 24.286 29.34 25.499 28.315 24.848 27.973 25.454 29.042 26.006 27.973 26.557 28.315 27.152"/><polygon points="32.183 27.152 33.208 26.501 33.153 27.714 33.847 27.714 33.792 26.501 34.806 27.152 35.159 26.557 34.09 26.006 35.159 25.454 34.806 24.848 33.792 25.499 33.847 24.286 33.153 24.286 33.208 25.499 32.183 24.848 31.842 25.454 32.911 26.006 31.842 26.557 32.183 27.152"/><polygon points="36.052 27.152 37.077 26.501 37.021 27.714 37.716 27.714 37.661 26.501 38.674 27.152 39.027 26.557 37.958 26.006 39.027 25.454 38.674 24.848 37.661 25.499 37.716 24.286 37.021 24.286 37.077 25.499 36.052 24.848 35.71 25.454 36.779 26.006 35.71 26.557 36.052 27.152"/><polygon points="39.92 27.152 40.945 26.501 40.89 27.714 41.584 27.714 41.529 26.501 42.543 27.152 42.895 26.557 41.826 26.006 42.895 25.454 42.543 24.848 41.529 25.499 41.584 24.286 40.89 24.286 40.945 25.499 39.92 24.848 39.578 25.454 40.647 26.006 39.578 26.557 39.92 27.152"/><path d="M11.123,28.9a1.689,1.689,0,1,0-1.666-1.689A1.667,1.667,0,0,0,11.123,28.9Zm0-2.628a.939.939,0,1,1-.916.939A.915.915,0,0,1,11.123,26.276Z"/><path d="M15.316,28.9a1.69,1.69,0,0,0,0-3.378,1.69,1.69,0,0,0,0,3.378Zm0-2.628a.94.94,0,0,1,0,1.878.94.94,0,0,1,0-1.878Z"/><path d="M17.5,23.375H8.952a1.1,1.1,0,0,0-1.086,1.11l-.033,8.529a1.1,1.1,0,0,0,1.086,1.111h8.545a1.1,1.1,0,0,0,1.086-1.11l.033-8.529A1.1,1.1,0,0,0,17.5,23.375Zm.3,9.639a.35.35,0,0,1-.336.361H8.919a.35.35,0,0,1-.336-.36l.033-8.529a.35.35,0,0,1,.336-.361H17.5a.35.35,0,0,1,.336.36Z"/><path d="M15.839,29.812a.376.376,0,0,0-.3-.158.363.363,0,0,0-.3.144L13.96,31.432,12.681,29.8a.343.343,0,0,0-.3-.144.373.373,0,0,0-.3.156L10.933,31.4l-1.174-1.6a.376.376,0,0,0-.605.445l1.48,2.011a.378.378,0,0,0,.3.152h0a.381.381,0,0,0,.3-.155L12.4,30.653l1.268,1.618a.387.387,0,0,0,.59,0l1.262-1.614,1.13,1.6a.378.378,0,0,0,.307.158.375.375,0,0,0,.305-.592Z"/><path d="M19.355,30.75a.375.375,0,0,0,.75,0v-4a.375.375,0,0,0-.75,0Z"/><path d="M6.741,26.375a.375.375,0,0,0-.375.375v4a.375.375,0,0,0,.75,0v-4A.375.375,0,0,0,6.741,26.375Z"/></g></svg>