<?xml version="1.0" encoding="utf-8"?>
<!-- Generator: Adobe Illustrator 25.2.3, SVG Export Plug-In . SVG Version: 6.00 Build 0)  -->
<svg version="1.1" id="Layer_1" xmlns="http://www.w3.org/2000/svg" xmlns:xlink="http://www.w3.org/1999/xlink" x="0px" y="0px"
	 viewBox="0 0 50 50" style="enable-background:new 0 0 50 50;" xml:space="preserve">
<g id="Layer_1_1_">
</g>
<g id="Icons">
</g>
<g id="Isolation_Mode">
	<g>
		<path style="fill:#1D9CD3;" d="M27.853,20.947c0.058,0.021,0.118,0.032,0.177,0.032c0.202,0,0.392-0.123,0.468-0.323
			c0.098-0.258-0.033-0.547-0.291-0.645c-1.156-0.437-2.333-0.783-3.51-1.038c2.087-1.997,3.355-5.221,3.355-8.702
			c0-5.261-2.934-8.277-8.049-8.277s-8.049,3.017-8.049,8.277c0,3.479,1.267,6.703,3.353,8.7c-4.036,0.871-6.766,2.556-6.888,2.633
			c-1.092,0.679-1.891,1.729-2.259,2.989L3.512,36.386c-0.061,0.27,0.109,0.537,0.378,0.598c0.037,0.008,0.074,0.012,0.11,0.012
			c0.229,0,0.435-0.158,0.487-0.391l2.64-11.76c0.291-0.992,0.937-1.841,1.82-2.391c0.031-0.02,3.055-1.89,7.35-2.66
			c2.4,1.673,4.985,1.663,7.388,0.001C25.079,20.043,26.481,20.428,27.853,20.947z M16.713,18.862L16.713,18.862
			c-2.319-1.698-3.759-4.989-3.759-8.59c0-6.332,4.417-7.277,7.049-7.277s7.049,0.945,7.049,7.277c0,3.596-1.436,6.881-3.748,8.58
			c-0.007,0.005-0.013,0.01-0.02,0.015C21.12,20.447,18.875,20.446,16.713,18.862z"/>
		<path style="fill:#1D9CD3;" d="M33.5,21.995c-7.168,0-13,5.834-13,13.005s5.832,13.005,13,13.005s13-5.834,13-13.005
			S40.668,21.995,33.5,21.995z M33.5,47.005c-6.617,0-12-5.386-12-12.005s5.383-12.005,12-12.005s12,5.386,12,12.005
			S40.117,47.005,33.5,47.005z"/>
		<path style="fill:#1D9CD3;" d="M30.742,31.567c-0.142-0.236-0.45-0.315-0.686-0.172l-5.312,3.176
			C24.592,34.661,24.5,34.824,24.5,35s0.092,0.339,0.244,0.429l5.312,3.176c0.08,0.049,0.168,0.071,0.256,0.071
			c0.17,0,0.336-0.087,0.43-0.243c0.142-0.237,0.064-0.544-0.173-0.686L25.975,35l4.594-2.747
			C30.806,32.111,30.883,31.805,30.742,31.567z"/>
		<path style="fill:#1D9CD3;" d="M36.258,31.567c-0.142,0.237-0.064,0.544,0.173,0.686L41.025,35l-4.594,2.747
			c-0.237,0.142-0.314,0.448-0.173,0.686c0.094,0.156,0.26,0.243,0.43,0.243c0.087,0,0.176-0.022,0.256-0.071l5.312-3.176
			C42.408,35.339,42.5,35.176,42.5,35s-0.092-0.339-0.244-0.429l-5.312-3.176C36.708,31.252,36.4,31.331,36.258,31.567z"/>
		<path style="fill:#1D9CD3;" d="M34.721,31.35c-0.26-0.085-0.545,0.054-0.633,0.316l-2.125,6.352
			c-0.088,0.262,0.054,0.545,0.315,0.633c0.053,0.018,0.106,0.025,0.159,0.025c0.209,0,0.404-0.132,0.474-0.342l2.125-6.352
			C35.125,31.721,34.983,31.438,34.721,31.35z"/>
	</g>
</g>
</svg>
