<svg xmlns="http://www.w3.org/2000/svg" viewBox="0 0 50 50"><g id="f000bf27-97e4-46f3-bf48-852bec1a31c6" data-name="Isolation Mode"><path d="M23.157,20.548A23.341,23.341,0,0,1,27.325,21.7a.5.5,0,1,0,.354-.935,24.738,24.738,0,0,0-3.51-1.038,12.121,12.121,0,0,0,3.355-8.7c0-5.26-2.934-8.277-8.049-8.277s-8.049,3.017-8.049,8.277a12.122,12.122,0,0,0,3.354,8.7,23.4,23.4,0,0,0-6.888,2.632,5.21,5.21,0,0,0-2.26,2.99L2.984,37.138a.5.5,0,0,0,.379.6.515.515,0,0,0,.11.012.5.5,0,0,0,.487-.391L6.6,25.6a4.2,4.2,0,0,1,1.82-2.391,23.05,23.05,0,0,1,7.35-2.66A6.085,6.085,0,0,0,23.157,20.548ZM12.426,11.024c0-6.332,4.417-7.277,7.049-7.277s7.049.945,7.049,7.277c0,3.6-1.437,6.885-3.751,8.584l-.014.011a5.149,5.149,0,0,1-6.572,0v0C13.867,17.919,12.426,14.627,12.426,11.024Z"/><path d="M32.392,18.9l0,0a3.471,3.471,0,0,0,2.084.754,3.39,3.39,0,0,0,1.882-.623,11.243,11.243,0,0,1,3.487,1.293,1.869,1.869,0,0,1,.79,1.029l.32,1.638a.5.5,0,0,0,.49.4.518.518,0,0,0,.1-.008.5.5,0,0,0,.4-.587l-.33-1.68a2.876,2.876,0,0,0-1.226-1.641,11.8,11.8,0,0,0-3.1-1.27,6.63,6.63,0,0,0,1.458-4.273c0-2.825-1.552-4.445-4.26-4.445s-4.26,1.62-4.26,4.445A6.205,6.205,0,0,0,32.392,18.9Zm2.086-8.407c1.487,0,3.26.6,3.26,3.445A5.2,5.2,0,0,1,35.965,18.1a2.273,2.273,0,0,1-2.973,0h0a5.2,5.2,0,0,1-1.774-4.162C31.218,11.091,32.991,10.493,34.478,10.493Z"/><path d="M31.989,44.638H27.143a.5.5,0,0,0,0,1h4.846a.5.5,0,1,0,0-1Z"/><path d="M46.22,43.275V25.753a.5.5,0,0,0-.5-.5H13.412a.5.5,0,0,0-.5.5V43.275a2.374,2.374,0,0,0-.808,1.863,2.323,2.323,0,0,0,1.067,2.053.508.508,0,0,0,.241.062H45.72a.508.508,0,0,0,.241-.062,2.323,2.323,0,0,0,1.067-2.053A2.374,2.374,0,0,0,46.22,43.275Zm-1-17.022V43.021H13.912V26.253Zm.342,20H13.57a1.571,1.571,0,0,1,0-2.232H45.562a1.569,1.569,0,0,1,0,2.232Z"/><path d="M26.021,38.429a.491.491,0,0,0,.256.071.5.5,0,0,0,.257-.929l-4.763-2.847,4.764-2.849a.5.5,0,1,0-.514-.857L20.54,34.3a.5.5,0,0,0,0,.857Z"/><path d="M32.425,38.257a.5.5,0,0,0,.43.243.488.488,0,0,0,.256-.071l5.481-3.277a.5.5,0,0,0,0-.857l-5.481-3.277a.5.5,0,1,0-.513.857l4.763,2.849L32.6,37.571A.5.5,0,0,0,32.425,38.257Z"/><path d="M28.312,38.475a.506.506,0,0,0,.158.025.5.5,0,0,0,.474-.342L31.136,31.6a.5.5,0,1,0-.948-.316L28,37.842A.5.5,0,0,0,28.312,38.475Z"/></g></svg>