<?xml version="1.0" encoding="utf-8"?>
<!-- Generator: Adobe Illustrator 25.2.1, SVG Export Plug-In . SVG Version: 6.00 Build 0)  -->
<svg version="1.1" xmlns="http://www.w3.org/2000/svg" xmlns:xlink="http://www.w3.org/1999/xlink" x="0px" y="0px"
	 viewBox="0 0 50 50" style="enable-background:new 0 0 50 50;" xml:space="preserve">
<g id="Layer_1">
</g>
<g id="Icons">
</g>
<g id="Isolation_Mode">
	<g>
		<path d="M20.325,24.479c-4.021,0.871-6.741,2.557-6.862,2.633c-1.088,0.679-1.884,1.729-2.25,2.988L8.575,41.891
			c-0.061,0.27,0.109,0.537,0.379,0.597C8.99,42.496,9.027,42.5,9.063,42.5c0.229,0,0.436-0.158,0.487-0.391l2.629-11.76
			c0.29-0.993,0.933-1.841,1.813-2.39c0.031-0.019,3.053-1.891,7.318-2.659c2.393,1.671,4.968,1.66,7.362,0
			c4.272,0.767,7.304,2.641,7.335,2.661c0.879,0.548,1.522,1.396,1.804,2.358l2.637,11.791c0.052,0.232,0.258,0.391,0.487,0.391
			c0.036,0,0.073-0.004,0.11-0.012c0.269-0.06,0.439-0.328,0.378-0.597L38.78,30.069c-0.358-1.229-1.155-2.279-2.241-2.957
			c-0.123-0.077-2.841-1.761-6.86-2.633c2.08-1.997,3.342-5.222,3.342-8.702c0-5.26-2.923-8.277-8.02-8.277
			c-5.096,0-8.019,3.017-8.019,8.277C16.983,19.258,18.246,22.482,20.325,24.479z M25.002,8.5c2.622,0,7.02,0.945,7.02,7.277
			c0,3.596-1.431,6.882-3.734,8.582c-0.006,0.004-0.012,0.009-0.018,0.014c-2.154,1.579-4.387,1.578-6.541-0.003
			c0,0-0.001-0.001-0.001-0.001c-2.31-1.697-3.745-4.989-3.745-8.591C17.983,9.445,22.381,8.5,25.002,8.5z"/>
		<path d="M46.13,26.961c-0.201-0.674-0.647-1.25-1.255-1.619c-0.06-0.037-1.3-0.786-3.16-1.248c0.925-1.052,1.48-2.573,1.48-4.206
			c0-2.789-1.584-4.389-4.347-4.389S34.5,17.1,34.5,19.889c0,2.038,0.854,3.917,2.229,4.903c0,0,0.001,0,0.001,0
			c0.682,0.49,1.395,0.739,2.117,0.739c0.644,0,1.302-0.219,1.92-0.617c2.089,0.384,3.57,1.271,3.586,1.281
			c0.397,0.242,0.688,0.616,0.81,1.021l1.349,5.896C46.565,33.343,46.771,33.5,47,33.5c0.037,0,0.075-0.004,0.112-0.013
			c0.27-0.062,0.438-0.33,0.376-0.599L46.13,26.961z M37.312,23.979c0,0-0.001,0-0.001-0.001c-1.117-0.802-1.811-2.369-1.811-4.09
			c0-2.801,1.82-3.389,3.347-3.389s3.347,0.588,3.347,3.389c0,1.717-0.692,3.281-1.805,4.085c-0.005,0.003-0.01,0.007-0.015,0.01
			C39.359,24.712,38.328,24.711,37.312,23.979z"/>
		<path d="M5.648,26.194c0.015-0.009,1.495-0.896,3.585-1.28c0.618,0.398,1.276,0.617,1.92,0.617c0.722,0,1.435-0.249,2.117-0.739
			c0,0,0.001,0,0.001,0c1.375-0.986,2.229-2.865,2.229-4.903c0-2.789-1.584-4.389-4.347-4.389s-4.347,1.6-4.347,4.389
			c0,1.632,0.555,3.154,1.48,4.206c-1.86,0.463-3.1,1.211-3.158,1.247c-0.609,0.371-1.056,0.946-1.265,1.652l-1.349,5.896
			c-0.062,0.269,0.106,0.537,0.376,0.599C2.926,33.496,2.963,33.5,3,33.5c0.228,0,0.434-0.157,0.487-0.389l1.341-5.864
			C4.958,26.811,5.25,26.437,5.648,26.194z M11.153,16.5c1.527,0,3.347,0.588,3.347,3.389c0,1.721-0.694,3.288-1.811,4.09
			c0,0-0.001,0-0.001,0.001c-1.016,0.732-2.047,0.733-3.064,0.004c-0.004-0.003-0.009-0.006-0.013-0.009
			c-1.114-0.803-1.806-2.368-1.806-4.086C7.806,17.088,9.626,16.5,11.153,16.5z"/>
	</g>
</g>
</svg>
