<?xml version="1.0" encoding="utf-8"?>
<!-- Generator: Adobe Illustrator 25.2.3, SVG Export Plug-In . SVG Version: 6.00 Build 0)  -->
<svg version="1.1" id="Layer_1" xmlns="http://www.w3.org/2000/svg" xmlns:xlink="http://www.w3.org/1999/xlink" x="0px" y="0px"
	 viewBox="0 0 50 50" style="enable-background:new 0 0 50 50;" xml:space="preserve">
<g id="Layer_1_1_">
</g>
<g id="Icons">
</g>
<g id="Isolation_Mode">
	<g>
		<path d="M3.891,36.982C3.928,36.991,3.964,36.995,4,36.995c0.229,0,0.436-0.158,0.488-0.391l2.639-11.759
			c0.292-0.993,0.938-1.842,1.82-2.39c0.031-0.019,3.067-1.892,7.35-2.661c2.399,1.67,4.983,1.662,7.388,0.001
			c1.393,0.248,2.794,0.633,4.168,1.152c0.059,0.022,0.118,0.032,0.177,0.032c0.202,0,0.392-0.123,0.468-0.323
			c0.098-0.258-0.032-0.547-0.291-0.645c-1.157-0.437-2.333-0.783-3.509-1.038c2.087-1.997,3.355-5.221,3.355-8.702
			c0-5.26-2.934-8.277-8.049-8.277s-8.049,3.017-8.049,8.277c0,3.48,1.267,6.704,3.353,8.701c-4.036,0.871-6.767,2.557-6.888,2.633
			c-1.091,0.677-1.891,1.728-2.26,2.989L3.512,36.385C3.451,36.654,3.621,36.922,3.891,36.982z M12.954,10.272
			c0-6.332,4.416-7.277,7.049-7.277s7.049,0.945,7.049,7.277c0,3.602-1.44,6.893-3.759,8.59c-2.165,1.586-4.414,1.585-6.578,0.002
			c0,0,0,0-0.001-0.001C14.395,17.167,12.954,13.875,12.954,10.272z"/>
		<path d="M20.5,35c0,7.171,5.832,13.005,13,13.005s13-5.834,13-13.005s-5.832-13.005-13-13.005S20.5,27.829,20.5,35z M33.5,22.995
			c6.617,0,12,5.386,12,12.005s-5.383,12.005-12,12.005S21.5,41.62,21.5,35S26.883,22.995,33.5,22.995z"/>
		<path d="M29.494,32.364c0.276,0,0.5-0.224,0.5-0.5c0.001-1.933,1.573-3.505,3.506-3.505h0.001c1.933,0,3.505,1.573,3.505,3.505
			c-0.001,1.395-0.826,2.655-2.104,3.212C33.782,35.566,33,36.825,33,38.139v0.395c0,0.276,0.224,0.5,0.5,0.5s0.5-0.224,0.5-0.5
			v-0.395c0-0.914,0.548-1.815,1.303-2.145c1.641-0.716,2.702-2.337,2.703-4.129c0-2.484-2.021-4.505-4.505-4.506c0,0,0,0-0.001,0
			c-2.483,0-4.505,2.021-4.506,4.505C28.994,32.14,29.218,32.364,29.494,32.364z"/>
		<path d="M33.502,40.955c-0.336,0-0.593,0.257-0.593,0.593s0.257,0.593,0.593,0.593s0.593-0.257,0.593-0.593
			C34.095,41.212,33.838,40.955,33.502,40.955z"/>
	</g>
</g>
</svg>
