<?xml version="1.0" encoding="utf-8"?>
<!-- Generator: Adobe Illustrator 25.2.3, SVG Export Plug-In . SVG Version: 6.00 Build 0)  -->
<svg version="1.1" id="Layer_1" xmlns="http://www.w3.org/2000/svg" xmlns:xlink="http://www.w3.org/1999/xlink" x="0px" y="0px"
	 viewBox="0 0 50 50" style="enable-background:new 0 0 50 50;" xml:space="preserve">
<g id="bac9dd8a-d170-4d38-a524-bffbbd4c0ff8">
	<path style="fill:#1D9CD3;stroke:#1D9CD3;stroke-width:0.118;stroke-miterlimit:10;" d="M19.782,14.246v2.324
		c0.003,0.178-0.024,0.354-0.08,0.523c-0.049,0.144-0.129,0.276-0.234,0.386c-0.104,0.107-0.232,0.189-0.373,0.24
		c-0.161,0.056-0.33,0.084-0.5,0.082c-0.163,0.002-0.325-0.026-0.478-0.082c-0.138-0.052-0.262-0.133-0.365-0.239
		c-0.105-0.11-0.185-0.242-0.234-0.386c-0.058-0.168-0.086-0.346-0.083-0.524v-2.324h0.677v2.324
		c-0.01,0.18,0.033,0.358,0.124,0.513c0.08,0.116,0.214,0.182,0.355,0.174c0.148,0.008,0.29-0.057,0.38-0.174
		c0.097-0.153,0.144-0.332,0.133-0.513v-2.324H19.782z"/>
	<path style="fill:#1D9CD3;stroke:#1D9CD3;stroke-width:0.118;stroke-miterlimit:10;" d="M22.522,16.838
		c0-0.06-0.011-0.12-0.032-0.176c-0.025-0.059-0.063-0.111-0.111-0.153c-0.062-0.053-0.131-0.097-0.205-0.13
		c-0.101-0.045-0.206-0.082-0.314-0.109c-0.15-0.041-0.296-0.093-0.437-0.158c-0.132-0.058-0.256-0.134-0.368-0.225
		c-0.103-0.086-0.189-0.191-0.254-0.309c-0.064-0.123-0.097-0.261-0.095-0.4c-0.002-0.139,0.031-0.276,0.094-0.4
		c0.063-0.121,0.152-0.226,0.26-0.308c0.118-0.09,0.251-0.158,0.393-0.2c0.159-0.047,0.325-0.07,0.491-0.069
		c0.17-0.001,0.339,0.025,0.5,0.079c0.144,0.048,0.277,0.124,0.391,0.223c0.109,0.094,0.196,0.21,0.256,0.341
		c0.062,0.136,0.093,0.284,0.092,0.433h-0.661c-0.002-0.074-0.016-0.147-0.042-0.216c-0.024-0.064-0.061-0.122-0.11-0.17
		c-0.053-0.049-0.116-0.087-0.184-0.111c-0.082-0.028-0.169-0.041-0.256-0.04c-0.081-0.001-0.162,0.01-0.24,0.033
		c-0.064,0.019-0.124,0.05-0.177,0.091c-0.047,0.038-0.084,0.086-0.109,0.14c-0.025,0.055-0.038,0.115-0.037,0.175
		c-0.001,0.063,0.016,0.125,0.049,0.178c0.037,0.057,0.086,0.106,0.143,0.143c0.071,0.047,0.148,0.087,0.228,0.117
		c0.098,0.039,0.198,0.072,0.3,0.1c0.153,0.044,0.301,0.101,0.443,0.171c0.128,0.062,0.245,0.143,0.348,0.24
		c0.095,0.089,0.172,0.196,0.226,0.315c0.055,0.124,0.083,0.258,0.081,0.394c0.007,0.281-0.123,0.547-0.349,0.714
		c-0.117,0.087-0.249,0.15-0.39,0.188c-0.269,0.072-0.551,0.083-0.825,0.034c-0.108-0.02-0.214-0.051-0.315-0.093
		c-0.099-0.041-0.194-0.094-0.281-0.156c-0.086-0.062-0.162-0.136-0.225-0.22c-0.065-0.086-0.116-0.182-0.15-0.284
		c-0.037-0.114-0.055-0.232-0.054-0.352h0.665c0.001,0.094,0.019,0.186,0.055,0.273c0.032,0.072,0.08,0.135,0.141,0.185
		c0.064,0.05,0.138,0.086,0.217,0.106c0.091,0.023,0.184,0.035,0.278,0.034c0.081,0.001,0.162-0.01,0.24-0.032
		c0.064-0.018,0.124-0.047,0.177-0.086c0.095-0.073,0.15-0.186,0.149-0.306L22.522,16.838z"/>
	<path style="fill:#1D9CD3;stroke:#1D9CD3;stroke-width:0.118;stroke-miterlimit:10;" d="M26.116,16.216h-1.441v0.99h1.684v0.547H24
		v-3.507h2.356V14.8h-1.681v0.884h1.441V16.216z"/>
	<path style="fill:#1D9CD3;stroke:#1D9CD3;stroke-width:0.118;stroke-miterlimit:10;" d="M28.4,16.442h-0.51v1.311h-0.677v-3.507
		h1.176c0.178-0.002,0.356,0.021,0.528,0.068c0.145,0.041,0.281,0.109,0.4,0.2c0.111,0.088,0.199,0.201,0.258,0.33
		c0.062,0.144,0.093,0.301,0.09,0.458c0.001,0.114-0.014,0.228-0.045,0.338c-0.028,0.096-0.071,0.187-0.127,0.269
		c-0.055,0.08-0.123,0.15-0.2,0.209c-0.081,0.061-0.168,0.113-0.261,0.154l0.754,1.448v0.031h-0.725L28.4,16.442z M27.887,15.894
		h0.5c0.161,0.01,0.319-0.042,0.442-0.146c0.107-0.105,0.164-0.25,0.156-0.4c0.009-0.152-0.046-0.3-0.152-0.409
		c-0.125-0.105-0.285-0.158-0.448-0.146h-0.5L27.887,15.894z"/>
	<path style="fill:#1D9CD3;stroke:#1D9CD3;stroke-width:0.118;stroke-miterlimit:10;" d="M32.782,17.753h-0.675l-0.975-2.262v2.262
		H30.45v-3.507h0.682L32.1,16.5v-2.252h0.679L32.782,17.753z"/>
	<path style="fill:#1D9CD3;stroke:#1D9CD3;stroke-width:0.118;stroke-miterlimit:10;" d="M35.45,17.021H34.4l-0.207,0.732h-0.712
		l1.148-3.507h0.615l1.127,3.507h-0.713L35.45,17.021z M34.564,16.445h0.727l-0.359-1.291L34.564,16.445z"/>
	<path style="fill:#1D9CD3;stroke:#1D9CD3;stroke-width:0.118;stroke-miterlimit:10;" d="M37.812,14.246l0.333,1.317l0.378-1.317
		h0.841v3.507h-0.622v-1.038l0.029-1.641l-0.46,1.523h-0.335l-0.412-1.457l0.029,1.575v1.038h-0.621v-3.507H37.812z"/>
	<path style="fill:#1D9CD3;stroke:#1D9CD3;stroke-width:0.118;stroke-miterlimit:10;" d="M42.4,16.216h-1.445v0.99h1.684v0.547
		h-2.363v-3.507h2.355V14.8h-1.676v0.884H42.4V16.216z"/>
	<path style="fill:#1D9CD3;" d="M46,11.5H14c-0.276,0-0.5,0.224-0.5,0.5v7.013c-0.089,0-0.175-0.013-0.265-0.013
		c-5.385-0.004-9.753,4.358-9.758,9.742c-0.004,5.385,4.358,9.753,9.742,9.758c4.713,0.004,8.753-3.364,9.599-8H46
		c0.276,0,0.5-0.224,0.5-0.5v-8c0-0.276-0.224-0.5-0.5-0.5H19.731c-0.425-0.382-0.883-0.726-1.369-1.027H46
		c0.276,0,0.5-0.224,0.5-0.5V12C46.5,11.724,46.276,11.5,46,11.5z M13.235,37.5c-4.832,0-8.75-3.918-8.75-8.75S8.403,20,13.235,20
		s8.75,3.918,8.75,8.75C21.979,33.58,18.065,37.494,13.235,37.5z M45.5,29.5H22.947c0.019-0.248,0.038-0.5,0.038-0.75
		c0.002-2.286-0.804-4.5-2.276-6.25H45.5V29.5z M45.5,19.473H16.223c-0.561-0.179-1.138-0.307-1.723-0.381V12.5h31V19.473z"/>
	<polygon style="fill:#1D9CD3;" points="24.446,27.152 25.471,26.501 25.416,27.714 26.11,27.714 26.055,26.501 27.069,27.152 
		27.422,26.557 26.353,26.006 27.422,25.454 27.069,24.848 26.055,25.499 26.11,24.286 25.416,24.286 25.471,25.499 24.446,24.848 
		24.105,25.454 25.174,26.006 24.105,26.557 	"/>
	<polygon style="fill:#1D9CD3;" points="28.315,27.152 29.34,26.501 29.284,27.714 29.979,27.714 29.924,26.501 30.938,27.152 
		31.29,26.557 30.221,26.006 31.29,25.454 30.938,24.848 29.924,25.499 29.979,24.286 29.284,24.286 29.34,25.499 28.315,24.848 
		27.973,25.454 29.042,26.006 27.973,26.557 	"/>
	<polygon style="fill:#1D9CD3;" points="32.183,27.152 33.208,26.501 33.153,27.714 33.847,27.714 33.792,26.501 34.806,27.152 
		35.159,26.557 34.09,26.006 35.159,25.454 34.806,24.848 33.792,25.499 33.847,24.286 33.153,24.286 33.208,25.499 32.183,24.848 
		31.842,25.454 32.911,26.006 31.842,26.557 	"/>
	<polygon style="fill:#1D9CD3;" points="36.052,27.152 37.077,26.501 37.021,27.714 37.716,27.714 37.661,26.501 38.674,27.152 
		39.027,26.557 37.958,26.006 39.027,25.454 38.674,24.848 37.661,25.499 37.716,24.286 37.021,24.286 37.077,25.499 36.052,24.848 
		35.71,25.454 36.779,26.006 35.71,26.557 	"/>
	<polygon style="fill:#1D9CD3;" points="39.92,27.152 40.945,26.501 40.89,27.714 41.584,27.714 41.529,26.501 42.543,27.152 
		42.895,26.557 41.826,26.006 42.895,25.454 42.543,24.848 41.529,25.499 41.584,24.286 40.89,24.286 40.945,25.499 39.92,24.848 
		39.578,25.454 40.647,26.006 39.578,26.557 	"/>
	<path style="fill:#1D9CD3;" d="M11.123,28.9c0.933,0.013,1.699-0.733,1.712-1.666c0.013-0.933-0.733-1.699-1.666-1.712
		c-0.933-0.013-1.699,0.733-1.712,1.666c0,0.008,0,0.015,0,0.023c-0.012,0.921,0.724,1.677,1.645,1.689
		C11.109,28.9,11.116,28.9,11.123,28.9z M11.123,26.272c0.518-0.013,0.949,0.397,0.962,0.916c0.013,0.518-0.397,0.949-0.916,0.962
		c-0.518,0.013-0.949-0.397-0.962-0.916c0-0.008,0-0.015,0-0.023c-0.011-0.505,0.39-0.924,0.895-0.935c0.007,0,0.014,0,0.021,0
		V26.272z"/>
	<path style="fill:#1D9CD3;" d="M15.316,28.9c0.933-0.032,1.663-0.814,1.631-1.747c-0.031-0.888-0.743-1.6-1.631-1.631
		c-0.933,0.032-1.663,0.814-1.631,1.747C13.716,28.157,14.428,28.869,15.316,28.9z M15.316,26.272
		c0.519,0.024,0.92,0.464,0.896,0.982c-0.022,0.485-0.411,0.873-0.896,0.896c-0.519-0.024-0.92-0.464-0.896-0.982
		C14.443,26.683,14.831,26.294,15.316,26.272z"/>
	<path style="fill:#1D9CD3;" d="M17.5,23.375H8.952c-0.606,0.008-1.092,0.504-1.086,1.11l-0.033,8.529
		c-0.006,0.606,0.48,1.103,1.086,1.111h8.545c0.606-0.008,1.092-0.504,1.086-1.11l0.033-8.529
		C18.589,23.881,18.105,23.384,17.5,23.375z M17.8,33.014c0.006,0.192-0.144,0.353-0.336,0.361H8.919
		c-0.192-0.008-0.342-0.168-0.336-0.36l0.033-8.529c-0.006-0.192,0.144-0.353,0.336-0.361H17.5c0.192,0.008,0.342,0.168,0.336,0.36
		L17.8,33.014z"/>
	<path style="fill:#1D9CD3;" d="M15.839,29.812c-0.069-0.097-0.181-0.156-0.3-0.158c-0.117-0.003-0.229,0.05-0.3,0.144l-1.279,1.634
		L12.681,29.8c-0.068-0.097-0.182-0.151-0.3-0.144c-0.119,0.001-0.231,0.059-0.3,0.156L10.933,31.4l-1.174-1.6
		c-0.131-0.161-0.368-0.185-0.529-0.053c-0.149,0.122-0.182,0.337-0.076,0.498l1.48,2.011c0.071,0.095,0.182,0.151,0.3,0.152l0,0
		c0.119-0.002,0.23-0.059,0.3-0.155l1.166-1.6l1.268,1.618c0.138,0.163,0.383,0.183,0.545,0.045
		c0.016-0.014,0.031-0.028,0.045-0.045l1.262-1.614l1.13,1.6c0.071,0.099,0.185,0.158,0.307,0.158c0.207,0,0.375-0.169,0.374-0.376
		c0-0.077-0.024-0.153-0.069-0.216L15.839,29.812z"/>
	<path style="fill:#1D9CD3;" d="M19.355,30.75c0,0.207,0.168,0.375,0.375,0.375s0.375-0.168,0.375-0.375v-4
		c0-0.207-0.168-0.375-0.375-0.375s-0.375,0.168-0.375,0.375V30.75z"/>
	<path style="fill:#1D9CD3;" d="M6.741,26.375c-0.207,0-0.375,0.168-0.375,0.375v4c0,0.207,0.168,0.375,0.375,0.375
		s0.375-0.168,0.375-0.375v-4C7.116,26.543,6.948,26.375,6.741,26.375z"/>
</g>
</svg>
