<svg xmlns="http://www.w3.org/2000/svg" viewBox="0 0 50 50"><g id="eeb138f3-1bbe-40bb-843c-393765267bbb" data-name="Icons"><g id="a988376d-7ba9-4198-a8c7-1cc159a871bb" data-name="app"><path d="M36.48,45.5h-.657a.5.5,0,0,1,0-1h.657a8.049,8.049,0,0,0,1.721-.185.5.5,0,0,1,.214.977A9.079,9.079,0,0,1,36.48,45.5Zm-3.157,0h-2.5a.5.5,0,0,1,0-1h2.5a.5.5,0,1,1,0,1Zm-5,0h-2.5a.5.5,0,0,1,0-1h2.5a.5.5,0,1,1,0,1Zm-5,0h-2.5a.5.5,0,0,1,0-1h2.5a.5.5,0,1,1,0,1Zm-5,0h-2.5a.5.5,0,0,1,0-1h2.5a.5.5,0,0,1,0,1Zm-5,0h-.011a9.008,9.008,0,0,1-2.6-.443.5.5,0,0,1,.31-.951,8.014,8.014,0,0,0,2.311.394.5.5,0,0,1-.011,1Zm27.313-1.079a.5.5,0,0,1-.244-.936,8.083,8.083,0,0,0,1.858-1.432.5.5,0,1,1,.718.7,9.038,9.038,0,0,1-2.088,1.61A.5.5,0,0,1,40.636,44.419Zm-32-.453a.49.49,0,0,1-.286-.091,9.016,9.016,0,0,1-1.917-1.809.5.5,0,0,1,.785-.62,8.063,8.063,0,0,0,1.7,1.61.5.5,0,0,1-.287.91Zm35.42-3.091a.486.486,0,0,1-.228-.056.5.5,0,0,1-.217-.673,7.966,7.966,0,0,0,.755-2.219.5.5,0,0,1,.984.179,9,9,0,0,1-.849,2.5A.5.5,0,0,1,44.06,40.875ZM5.588,40.1a.5.5,0,0,1-.465-.317,8.986,8.986,0,0,1-.594-2.57.5.5,0,0,1,1-.08,8.01,8.01,0,0,0,.527,2.284.5.5,0,0,1-.282.648A.512.512,0,0,1,5.588,40.1ZM45,36.026a.5.5,0,0,1-.5-.5v-2.5a.5.5,0,0,1,1,0v2.5A.5.5,0,0,1,45,36.026ZM5,35.171a.5.5,0,0,1-.5-.5v-2.5a.5.5,0,0,1,1,0v2.5A.5.5,0,0,1,5,35.171Zm40-4.145a.5.5,0,0,1-.5-.5v-2.5a.5.5,0,1,1,1,0v2.5A.5.5,0,0,1,45,31.026ZM5,30.171a.5.5,0,0,1-.5-.5v-2.5a.5.5,0,0,1,1,0v2.5A.5.5,0,0,1,5,30.171Zm40-4.145a.5.5,0,0,1-.5-.5v-2.5a.5.5,0,1,1,1,0v2.5A.5.5,0,0,1,45,26.026ZM5,25.171a.5.5,0,0,1-.5-.5v-2.5a.5.5,0,0,1,1,0v2.5A.5.5,0,0,1,5,25.171Zm40-4.145a.5.5,0,0,1-.5-.5v-2.5a.5.5,0,1,1,1,0v2.5A.5.5,0,0,1,45,21.026ZM5,20.171a.5.5,0,0,1-.5-.5v-2.5a.5.5,0,0,1,1,0v2.5A.5.5,0,0,1,5,20.171Zm40-4.145a.5.5,0,0,1-.5-.5V13.52c0-.156,0-.311-.013-.465a.5.5,0,0,1,.471-.528.505.505,0,0,1,.527.471q.015.26.015.522v2.006A.5.5,0,0,1,45,16.026ZM5,15.171a.5.5,0,0,1-.5-.5V13.52A9.107,9.107,0,0,1,4.612,12.1a.5.5,0,0,1,.987.156,8.1,8.1,0,0,0-.1,1.265v1.151A.5.5,0,0,1,5,15.171Zm39.482-4.083a.5.5,0,0,1-.469-.328A8.044,8.044,0,0,0,42.892,8.7a.5.5,0,1,1,.8-.6,9.015,9.015,0,0,1,1.261,2.316.5.5,0,0,1-.469.672ZM5.852,10.3a.5.5,0,0,1-.45-.718A9.052,9.052,0,0,1,6.888,7.406a.5.5,0,1,1,.736.678A7.988,7.988,0,0,0,6.3,10.021.5.5,0,0,1,5.852,10.3ZM41.519,7.149a.492.492,0,0,1-.3-.1,7.981,7.981,0,0,0-2.072-1.1.5.5,0,0,1,.333-.943,8.983,8.983,0,0,1,2.33,1.234.5.5,0,0,1-.3.9ZM9.194,6.679a.5.5,0,0,1-.255-.93,8.956,8.956,0,0,1,2.443-.994.5.5,0,0,1,.236.972,7.913,7.913,0,0,0-2.17.883A.5.5,0,0,1,9.194,6.679Zm27.681-1.17h-.023C36.728,5.5,36.6,5.5,36.478,5.5h-2.5a.5.5,0,0,1,0-1h2.5c.141,0,.279,0,.416.01a.5.5,0,0,1-.021,1ZM31.48,5.5h-2.5a.5.5,0,0,1,0-1h2.5a.5.5,0,1,1,0,1Zm-5,0h-2.5a.5.5,0,0,1,0-1h2.5a.5.5,0,0,1,0,1Zm-5,0h-2.5a.5.5,0,0,1,0-1h2.5a.5.5,0,0,1,0,1Zm-5,0h-2.5a.5.5,0,0,1,0-1h2.5a.5.5,0,0,1,0,1Z"/></g><path d="M21.678,27.534l2.016-6.785h1.154L22.159,29.28h-.944L18.52,20.749h1.16Z"/><path d="M30.886,25.337H27.324V28.36h4.154v.92H26.24V20.749h5.185v.926h-4.1v2.742h3.562Z"/></g></svg>