<?xml version="1.0" encoding="utf-8"?>
<!-- Generator: Adobe Illustrator 25.2.3, SVG Export Plug-In . SVG Version: 6.00 Build 0)  -->
<svg version="1.1" id="Layer_1" xmlns="http://www.w3.org/2000/svg" xmlns:xlink="http://www.w3.org/1999/xlink" x="0px" y="0px"
	 viewBox="0 0 50 50" style="enable-background:new 0 0 50 50;" xml:space="preserve">
<g id="e244e73e-8897-4426-ab13-21d80963319c">
	<path style="fill:#FFFFFF;" d="M42.255,14.2c-0.281-1-0.955-1.844-1.867-2.341L26.5,5.166c-0.957-0.404-2.037-0.404-2.994,0
		L9.611,11.855c-0.913,0.498-1.586,1.344-1.866,2.345l-3.8,16.652L14.594,44.2c0.687,0.781,1.661,1.25,2.7,1.3h15.415
		c1.039-0.05,2.013-0.519,2.7-1.3l9.613-12.054c0.607-0.843,0.848-1.895,0.667-2.918L42.255,14.2z M44.237,31.527l-9.612,12.05
		c-0.497,0.542-1.183,0.872-1.916,0.923H17.291c-0.733-0.051-1.419-0.381-1.916-0.923L5.026,30.6L8.72,14.419
		c0.212-0.704,0.687-1.299,1.326-1.663l13.891-6.69c0.683-0.271,1.443-0.271,2.126,0l13.89,6.69c0.64,0.363,1.115,0.959,1.327,1.663
		l3.431,15.031c0.114,0.726-0.056,1.468-0.474,2.073V31.527z"/>
	<path style="fill:#FFFFFF;" d="M39.077,28.834l-1.964-0.448c0.639-3.343-0.154-6.8-2.185-9.531l1.583-1.262
		c0.223-0.163,0.272-0.475,0.11-0.699c-0.163-0.223-0.475-0.272-0.699-0.11c-0.012,0.009-0.023,0.018-0.034,0.027l-1.581,1.26
		c-2.224-2.57-5.411-4.105-8.807-4.242v-2.021c0-0.276-0.224-0.5-0.5-0.5s-0.5,0.224-0.5,0.5v2.021
		c-3.396,0.136-6.584,1.672-8.807,4.243l-1.582-1.261c-0.223-0.163-0.536-0.113-0.699,0.11c-0.153,0.21-0.12,0.501,0.076,0.671
		l1.583,1.262c-2.031,2.731-2.823,6.188-2.184,9.531l-1.964,0.448c-0.269,0.063-0.436,0.331-0.374,0.6
		c0.052,0.226,0.253,0.386,0.485,0.387c0.038,0,0.075-0.004,0.112-0.012l1.968-0.45c0.894,3.28,3.098,6.047,6.094,7.652
		l-0.873,1.812c-0.13,0.244-0.038,0.547,0.206,0.676c0.244,0.13,0.547,0.038,0.676-0.206c0.006-0.012,0.012-0.024,0.018-0.037
		l0.873-1.812c3.12,1.357,6.665,1.357,9.785,0l0.873,1.812c0.13,0.244,0.433,0.336,0.676,0.206c0.23-0.123,0.327-0.401,0.224-0.64
		l-0.873-1.812c2.996-1.605,5.199-4.373,6.093-7.652l1.968,0.45c0.037,0.008,0.074,0.012,0.112,0.012
		c0.276-0.001,0.499-0.226,0.498-0.502C39.463,29.087,39.303,28.886,39.077,28.834z M36.329,26.134
		c-0.003,0.681-0.067,1.36-0.192,2.029l-8.328-1.9c0-0.043,0.013-0.084,0.013-0.128c-0.003-0.466-0.123-0.925-0.349-1.333
		l6.675-5.323C35.564,21.409,36.328,23.74,36.329,26.134z M25,27.956c-1.006,0-1.822-0.816-1.822-1.822
		c0-1.006,0.816-1.822,1.822-1.822c1.006,0,1.822,0.816,1.822,1.822C26.821,27.14,26.006,27.955,25,27.956z M33.525,18.696
		L26.85,24.02c-0.382-0.338-0.848-0.566-1.35-0.658V14.83c3.092,0.136,5.993,1.535,8.025,3.87V18.696z M24.5,14.83v8.532
		c-0.502,0.092-0.968,0.32-1.35,0.658l-6.675-5.32C18.507,16.365,21.408,14.966,24.5,14.83z M13.671,26.13
		c0-2.394,0.765-4.726,2.181-6.656l6.675,5.326c-0.226,0.408-0.346,0.867-0.349,1.333c0,0.044,0.011,0.085,0.013,0.128l-8.328,1.9
		c-0.125-0.669-0.189-1.347-0.192-2.027V26.13z M14.088,29.13l8.316-1.9c0.203,0.469,0.529,0.874,0.944,1.173l-3.707,7.7
		c-2.722-1.47-4.727-3.985-5.553-6.966L14.088,29.13z M25,37.463c-1.533,0.001-3.051-0.311-4.459-0.918l3.709-7.7
		c0.488,0.152,1.012,0.152,1.5,0l3.71,7.7C28.051,37.151,26.534,37.464,25,37.463z M30.36,36.111l-3.708-7.7
		c0.415-0.299,0.741-0.704,0.944-1.173l8.316,1.9C35.088,32.121,33.083,34.639,30.36,36.111z"/>
</g>
</svg>
