<svg xmlns="http://www.w3.org/2000/svg" viewBox="0 0 650.25 293.64"><defs><style>.cls-1,.cls-10,.cls-11,.cls-12,.cls-2,.cls-4,.cls-5,.cls-6,.cls-7,.cls-8,.cls-9{fill:none;}.cls-1{stroke:#2bad4a;}.cls-1,.cls-10,.cls-11,.cls-12,.cls-4,.cls-5,.cls-6,.cls-7,.cls-8,.cls-9{stroke-linecap:round;}.cls-1,.cls-10,.cls-11,.cls-12,.cls-4,.cls-5,.cls-7,.cls-8,.cls-9{stroke-linejoin:round;}.cls-12,.cls-2,.cls-4,.cls-5,.cls-6{stroke:#000;}.cls-2{stroke-miterlimit:10;}.cls-3{fill:#fff;}.cls-4{stroke-width:0.92px;}.cls-7,.cls-8{stroke:#786ccd;}.cls-7{fill-rule:evenodd;}.cls-10,.cls-11,.cls-9{stroke:#666;}.cls-10{stroke-dasharray:5.07 5.21;}.cls-11{stroke-dasharray:4.87 5;}.cls-12{stroke-width:0.93px;}</style></defs><g id="Layer_2" data-name="Layer 2"><g id="Layer_1-2" data-name="Layer 1"><line class="cls-1" x1="440.89" y1="214.84" x2="458.22" y2="214.59"/><polyline class="cls-2" points="145.15 96.08 145.15 128.27 0.5 128.27 0.5 8.27 145.15 8.27 145.15 44.28"/><rect x="27.81" y="0.1" width="90.03" height="18"/><path class="cls-3" d="M39.66,6.9V8.45h1.72v1.4H39.66V11.2h2.12v1.4H38.11V5.5h3.67V6.9Z"/><path class="cls-3" d="M47.17,5.5v7.1H45.81L44,8.56v4H42.61V5.5H44l1.85,4.06V5.5Z"/><path class="cls-3" d="M52.42,6.9H51v5.7H49.4V6.9H47.92V5.5h4.5Z"/><path class="cls-3" d="M54.73,6.9V8.45h1.71v1.4H54.73V11.2h2.11v1.4H53.18V5.5h3.66V6.9Z"/><path class="cls-3" d="M60,10h-.74V12.6H57.67V5.5H60a2,2,0,0,1,2.12,1.94V8.1a1.86,1.86,0,0,1-.71,1.5l.92,3H60.74Zm-.74-1.4h.91a.44.44,0,0,0,.47-.47v-.8a.43.43,0,0,0-.46-.47h-.92Z"/><path class="cls-3" d="M67.68,7.44v.91a2,2,0,0,1-2.11,2h-.82v2.3H63.2V5.5h2.36A2,2,0,0,1,67.68,7.44Zm-1.55-.07a.44.44,0,0,0-.46-.47h-.92v2h.91a.44.44,0,0,0,.47-.48Z"/><path class="cls-3" d="M70.8,10h-.74V12.6H68.51V5.5h2.36A2,2,0,0,1,73,7.44V8.1a1.86,1.86,0,0,1-.71,1.5l.92,3H71.58Zm-.74-1.4H71a.44.44,0,0,0,.47-.47v-.8A.43.43,0,0,0,71,6.9h-.92Z"/><path class="cls-3" d="M74,5.5h1.55v7.1H74Z"/><path class="cls-3" d="M76.46,10.5v-.28H78v.44a.74.74,0,0,0,.83.73.68.68,0,0,0,.72-.69c0-1.27-3-1-3-3.27a2,2,0,0,1,2.22-2.08,1.93,1.93,0,0,1,2.2,2v.44H79.47V7.24c0-.31-.3-.49-.67-.49a.59.59,0,0,0-.65.6c0,1,3,.79,3,3.21a2.09,2.09,0,0,1-2.3,2.19A2.15,2.15,0,0,1,76.46,10.5Z"/><path class="cls-3" d="M83.54,6.9V8.45h1.72v1.4H83.54V11.2h2.12v1.4H82V5.5h3.67V6.9Z"/><path class="cls-3" d="M90.06,6.9V8.45h1.72v1.4H90.06V11.2h2.12v1.4H88.51V5.5h3.67V6.9Z"/><path class="cls-3" d="M97.58,7.52v3.06a2.05,2.05,0,0,1-2.27,2H93V5.5H95.3A2.06,2.06,0,0,1,97.58,7.52ZM96,7.5a.57.57,0,0,0-.62-.6h-.85v4.3h.84a.57.57,0,0,0,.63-.6Z"/><path class="cls-3" d="M101.58,8.06V7.35c0-.36-.33-.6-.79-.6s-.8.24-.8.6v3.4c0,.36.34.6.79.6s.8-.24.8-.6v-.6h-.81V8.75h2.36v2a2.37,2.37,0,0,1-4.69,0V7.37a2.37,2.37,0,0,1,4.69,0v.69Z"/><path class="cls-3" d="M105.6,6.9V8.45h1.72v1.4H105.6V11.2h2.12v1.4h-3.66V5.5h3.66V6.9Z"/><g id="app"><rect class="cls-4" x="78.71" y="31.24" width="33.92" height="33.92" rx="7.23"/><path d="M90,49.4a2.66,2.66,0,0,1-2,.84,2,2,0,0,1-2.14-2,2,2,0,0,1,2.14-2,2.58,2.58,0,0,1,2,.83V46c0-.82-.66-1.28-1.54-1.28a2.41,2.41,0,0,0-1.87.84l-.45-.65a3.21,3.21,0,0,1,2.44-1c1.29,0,2.37.58,2.37,2.05v4.17H90Zm0-1.73a2,2,0,0,0-1.68-.76,1.34,1.34,0,1,0,0,2.66A2.06,2.06,0,0,0,90,48.81Z"/><path d="M92.77,52.41V44h1v.91a2.54,2.54,0,0,1,2.06-1.06c1.6,0,2.71,1.21,2.71,3.18s-1.11,3.19-2.71,3.19a2.51,2.51,0,0,1-2.06-1.06v3.23Zm2.77-7.7a2.25,2.25,0,0,0-1.82,1v2.74a2.26,2.26,0,0,0,1.82,1c1.22,0,2-1,2-2.35S96.76,44.71,95.54,44.71Z"/><path d="M99.92,52.41V44h1v.91a2.54,2.54,0,0,1,2.06-1.06c1.6,0,2.72,1.21,2.72,3.18s-1.12,3.19-2.72,3.19a2.52,2.52,0,0,1-2.06-1.06v3.23Zm2.77-7.7a2.25,2.25,0,0,0-1.82,1v2.74a2.26,2.26,0,0,0,1.82,1c1.22,0,2-1,2-2.35S103.91,44.71,102.69,44.71Z"/></g><g id="containers"><g id="Group_13206" data-name="Group 13206"><g id="Group_13211" data-name="Group 13211"><rect id="Rectangle_9436" data-name="Rectangle 9436" class="cls-5" x="77.28" y="88.13" width="10.76" height="10.95"/><g id="Group_13210" data-name="Group 13210"><line id="Line_280" data-name="Line 280" class="cls-5" x1="80.25" y1="90.28" x2="80.25" y2="97.05"/><line id="Line_281" data-name="Line 281" class="cls-5" x1="82.66" y1="90.28" x2="82.66" y2="97.05"/><path id="Path_61147" data-name="Path 61147" class="cls-6" d="M85.08,90.28v6.77"/></g></g><g id="Group_13343" data-name="Group 13343"><rect id="Rectangle_9436-2" data-name="Rectangle 9436-2" class="cls-5" x="90.29" y="88.13" width="10.76" height="10.95"/><g id="Group_13210-2" data-name="Group 13210-2"><line id="Line_280-2" data-name="Line 280-2" class="cls-5" x1="93.26" y1="90.28" x2="93.26" y2="97.05"/><line id="Line_281-2" data-name="Line 281-2" class="cls-5" x1="95.67" y1="90.28" x2="95.67" y2="97.05"/><path id="Path_61147-2" data-name="Path 61147-2" class="cls-6" d="M98.08,90.28v6.77"/></g></g><g id="Group_13345" data-name="Group 13345"><rect id="Rectangle_9436-3" data-name="Rectangle 9436-3" class="cls-5" x="90.29" y="75.22" width="10.76" height="10.95"/><g id="Group_13210-3" data-name="Group 13210-3"><line id="Line_280-3" data-name="Line 280-3" class="cls-5" x1="93.26" y1="77.37" x2="93.26" y2="84.14"/><line id="Line_281-3" data-name="Line 281-3" class="cls-5" x1="95.67" y1="77.37" x2="95.67" y2="84.14"/><path id="Path_61147-3" data-name="Path 61147-3" class="cls-6" d="M98.08,77.37v6.77"/></g></g><g id="Group_13341" data-name="Group 13341"><rect id="Rectangle_9436-4" data-name="Rectangle 9436-4" class="cls-5" x="77.28" y="101.05" width="10.76" height="10.95"/><g id="Group_13210-4" data-name="Group 13210-4"><line id="Line_280-4" data-name="Line 280-4" class="cls-5" x1="80.25" y1="103.19" x2="80.25" y2="109.96"/><line id="Line_281-4" data-name="Line 281-4" class="cls-5" x1="82.66" y1="103.19" x2="82.66" y2="109.96"/><path id="Path_61147-4" data-name="Path 61147-4" class="cls-6" d="M85.08,103.19V110"/></g></g><g id="Group_13342" data-name="Group 13342"><rect id="Rectangle_9436-5" data-name="Rectangle 9436-5" class="cls-5" x="90.29" y="101.05" width="10.76" height="10.95"/><g id="Group_13210-5" data-name="Group 13210-5"><line id="Line_280-5" data-name="Line 280-5" class="cls-5" x1="93.26" y1="103.19" x2="93.26" y2="109.96"/><line id="Line_281-5" data-name="Line 281-5" class="cls-5" x1="95.67" y1="103.19" x2="95.67" y2="109.96"/><path id="Path_61147-5" data-name="Path 61147-5" class="cls-6" d="M98.08,103.19V110"/></g></g><g id="Group_13344" data-name="Group 13344"><rect id="Rectangle_9436-6" data-name="Rectangle 9436-6" class="cls-5" x="103.29" y="101.05" width="10.76" height="10.95"/><g id="Group_13210-6" data-name="Group 13210-6"><line id="Line_280-6" data-name="Line 280-6" class="cls-5" x1="106.26" y1="103.19" x2="106.26" y2="109.96"/><line id="Line_281-6" data-name="Line 281-6" class="cls-5" x1="108.67" y1="103.19" x2="108.67" y2="109.96"/><path id="Path_61147-6" data-name="Path 61147-6" class="cls-6" d="M111.08,103.19V110"/></g></g></g></g><path d="M293.87,12.64h1.62l1.85,5.12,1.84-5.12h1.62l-2.57,6.66h-1.78Z"/><path d="M300.82,16.88a2.56,2.56,0,0,1,5.11,0,2.56,2.56,0,0,1-5.11,0Zm3.79,0a1.24,1.24,0,1,0-2.47,0,1.25,1.25,0,1,0,2.47,0Z"/><path d="M307,12.64h1.27V19.3H307Z"/><path d="M310,18.1V15.59h-.8V14.48h.8V13.16h1.28v1.32h1v1.11h-1v2.17c0,.3.16.53.44.53a.69.69,0,0,0,.44-.14l.27,1a1.57,1.57,0,0,1-1.06.31A1.21,1.21,0,0,1,310,18.1Z"/><path d="M313.06,16a3.38,3.38,0,0,1,3.5-3.45,3.08,3.08,0,0,1,2.84,1.63l-1.22.6a1.83,1.83,0,0,0-1.62-1,2.07,2.07,0,0,0-2,2.19,2.06,2.06,0,0,0,2,2.18,1.81,1.81,0,0,0,1.62-1l1.22.59a3.1,3.1,0,0,1-2.84,1.64A3.37,3.37,0,0,1,313.06,16Z"/><path d="M320.12,16.88a2.55,2.55,0,0,1,5.1,0,2.55,2.55,0,0,1-5.1,0Zm3.78,0a1.24,1.24,0,1,0-2.47,0,1.25,1.25,0,1,0,2.47,0Z"/><path d="M329.58,16.38a.78.78,0,0,0-.89-.89,1.38,1.38,0,0,0-1.1.57V19.3h-1.27V14.48h1.27v.63a2.21,2.21,0,0,1,1.69-.75,1.4,1.4,0,0,1,1.57,1.53V19.3h-1.27Z"/><path d="M332.4,17.78a2.76,2.76,0,0,0,1.67.66c.55,0,.81-.19.81-.49s-.42-.46-1-.57c-.83-.16-1.9-.36-1.9-1.51,0-.8.71-1.51,2-1.51a3.09,3.09,0,0,1,1.95.66l-.51.87a2,2,0,0,0-1.43-.56c-.46,0-.76.17-.76.45s.38.41.92.51c.83.16,1.94.38,1.94,1.58,0,.88-.75,1.55-2.09,1.55a3.25,3.25,0,0,1-2.16-.75Z"/><path d="M336.87,16.88a2.55,2.55,0,0,1,5.1,0,2.55,2.55,0,0,1-5.1,0Zm3.78,0a1.24,1.24,0,1,0-2.46,0,1.24,1.24,0,1,0,2.46,0Z"/><path d="M343.07,12.64h1.27V19.3h-1.27Z"/><path d="M347.92,14.36A2.42,2.42,0,0,1,350.34,17v.28h-3.58a1.29,1.29,0,0,0,1.38,1.12,2,2,0,0,0,1.29-.48l.56.82a3,3,0,0,1-2,.67,2.53,2.53,0,0,1-.08-5.06Zm-1.19,2.07h2.38a1.12,1.12,0,0,0-1.19-1.06A1.17,1.17,0,0,0,346.73,16.43Z"/><path d="M336.28,84.4h1.62l1.84,5.13,1.84-5.13h1.62l-2.57,6.67h-1.77Z"/><path d="M343.22,88.65a2.56,2.56,0,1,1,2.55,2.54A2.45,2.45,0,0,1,343.22,88.65Zm3.79,0a1.25,1.25,0,1,0-1.24,1.41A1.27,1.27,0,0,0,347,88.65Z"/><path d="M349.42,84.4h1.27v6.67h-1.27Z"/><path d="M352.41,89.87V87.35h-.8V86.24h.8V84.92h1.28v1.32h1v1.11h-1v2.18c0,.3.16.53.43.53a.69.69,0,0,0,.44-.14l.27,1a1.57,1.57,0,0,1-1.06.31A1.2,1.2,0,0,1,352.41,89.87Z"/><path d="M361.63,86.27l-1.87,4.8h-.62l-1.88-4.8v4.8h-1.42V84.4h2l1.62,4.16,1.61-4.16h2v6.67h-1.43Z"/><path d="M366.76,86.12a2.42,2.42,0,0,1,2.42,2.66v.28h-3.59A1.3,1.3,0,0,0,367,90.18a2,2,0,0,0,1.29-.48l.56.82a3,3,0,0,1-2,.67,2.54,2.54,0,1,1-.08-5.07Zm-1.19,2.08H368a1.12,1.12,0,0,0-1.19-1.07A1.16,1.16,0,0,0,365.57,88.2Z"/><path d="M370.37,89.55a2.76,2.76,0,0,0,1.67.66c.55,0,.81-.19.81-.49s-.42-.46-1-.57c-.83-.16-1.9-.36-1.9-1.51,0-.81.71-1.52,2-1.52a3.09,3.09,0,0,1,2,.66l-.51.87a2,2,0,0,0-1.43-.56c-.46,0-.76.17-.76.45s.38.41.92.52c.83.16,1.94.38,1.94,1.58,0,.88-.75,1.55-2.09,1.55a3.25,3.25,0,0,1-2.16-.75Z"/><path d="M378.42,88.13c0-.67-.35-.88-.9-.88a1.41,1.41,0,0,0-1.1.57v3.25h-1.27V84.4h1.27v2.47a2.23,2.23,0,0,1,1.7-.75,1.39,1.39,0,0,1,1.57,1.52v3.43h-1.27Z"/><path d="M337.11,95.4h2.28a3.34,3.34,0,1,1,0,6.67h-2.28Zm2.28,5.93a2.6,2.6,0,0,0,0-5.19h-1.45v5.19Z"/><path d="M344.15,95.92a.51.51,0,0,1,1,0,.51.51,0,1,1-1,0Zm.13,1.32H345v4.83h-.75Z"/><path d="M346.69,100.89a2.19,2.19,0,0,0,1.59.69c.74,0,1.14-.33,1.14-.8s-.59-.7-1.24-.86c-.82-.19-1.75-.41-1.75-1.41,0-.75.65-1.39,1.8-1.39a2.44,2.44,0,0,1,1.79.7l-.35.52a1.88,1.88,0,0,0-1.44-.61c-.66,0-1.07.3-1.07.73s.55.62,1.18.77c.84.19,1.81.43,1.81,1.5,0,.81-.65,1.46-1.9,1.46a2.57,2.57,0,0,1-1.95-.76Z"/><path d="M351.81,101.06V97.9H351v-.66h.79V95.92h.75v1.32h1v.66h-1v3c0,.36.16.62.49.62a.72.72,0,0,0,.51-.2l.22.56a1.23,1.23,0,0,1-.9.31A1,1,0,0,1,351.81,101.06Z"/><path d="M354.84,97.24h.75V98a2.05,2.05,0,0,1,1.61-.88v.77a1.32,1.32,0,0,0-.3,0,1.77,1.77,0,0,0-1.31.77v3.42h-.75Z"/><path d="M358.19,95.92a.51.51,0,0,1,1,0,.51.51,0,1,1-1,0Zm.13,1.32h.75v4.83h-.75Z"/><path d="M360.73,95.4h.75V98a2,2,0,0,1,1.63-.85,2.25,2.25,0,0,1,2.15,2.54c0,1.57-.89,2.53-2.15,2.53a2,2,0,0,1-1.63-.84v.72h-.75Zm2.19,6.12c1,0,1.56-.79,1.56-1.86s-.58-1.87-1.56-1.87a1.79,1.79,0,0,0-1.44.78v2.19A1.78,1.78,0,0,0,362.92,101.52Z"/><path d="M369.92,101.39a2.36,2.36,0,0,1-1.72.8,1.35,1.35,0,0,1-1.53-1.54V97.24h.74v3.18c0,.85.43,1.1,1.08,1.1a1.85,1.85,0,0,0,1.43-.73V97.24h.75v4.83h-.75Z"/><path d="M372.55,101.06V97.9h-.8v-.66h.8V95.92h.75v1.32h1v.66h-1v3c0,.36.16.62.49.62a.72.72,0,0,0,.51-.2l.22.56a1.23,1.23,0,0,1-.9.31A1,1,0,0,1,372.55,101.06Z"/><path d="M377.51,97.12a2.34,2.34,0,0,1,2.31,2.59v.19h-3.9a1.7,1.7,0,0,0,1.74,1.67,2.07,2.07,0,0,0,1.48-.61l.36.49a2.6,2.6,0,0,1-1.91.74,2.54,2.54,0,0,1-.08-5.07Zm-1.59,2.23h3.17a1.57,1.57,0,0,0-1.59-1.61A1.61,1.61,0,0,0,375.92,99.35Z"/><path d="M384.72,101.35a2,2,0,0,1-1.62.84c-1.26,0-2.15-1-2.15-2.53s.88-2.54,2.15-2.54a2,2,0,0,1,1.62.85V95.4h.75v6.67h-.75Zm0-2.78a1.81,1.81,0,0,0-1.45-.78c-1,0-1.54.8-1.54,1.87s.58,1.86,1.54,1.86a1.8,1.8,0,0,0,1.45-.76Z"/><path d="M393,98.91c0-.85-.43-1.12-1.08-1.12a1.84,1.84,0,0,0-1.42.75v3.53h-.75V97.24h.75v.7a2.37,2.37,0,0,1,1.71-.82,1.37,1.37,0,0,1,1.54,1.56v3.39H393Z"/><path d="M397.53,97.12a2.35,2.35,0,0,1,2.32,2.59v.19h-3.91a1.7,1.7,0,0,0,1.74,1.67,2.11,2.11,0,0,0,1.49-.61l.36.49a2.62,2.62,0,0,1-1.92.74,2.54,2.54,0,0,1-.08-5.07Zm-1.59,2.23h3.17a1.57,1.57,0,0,0-1.59-1.61A1.61,1.61,0,0,0,395.94,99.35Z"/><path d="M401.37,101.06V97.9h-.8v-.66h.8V95.92h.74v1.32h1v.66h-1v3c0,.36.16.62.49.62a.71.71,0,0,0,.51-.2l.22.56a1.22,1.22,0,0,1-.89.31A1,1,0,0,1,401.37,101.06Z"/><path d="M407.49,98.19l-1.25,3.88h-.75L404,97.24h.78l1.18,3.85,1.27-3.85h.63l1.27,3.85,1.18-3.85H411l-1.54,4.83h-.75Z"/><path d="M411.76,99.65c-.18-3.29,4.95-3.29,4.78,0C416.71,103,411.58,103,411.76,99.65Zm4,0a1.62,1.62,0,1,0-3.21,0A1.62,1.62,0,1,0,415.75,99.65Z"/><path d="M417.94,97.24h.75V98a2.05,2.05,0,0,1,1.61-.88v.77a1.32,1.32,0,0,0-.3,0,1.77,1.77,0,0,0-1.31.77v3.42h-.75Z"/><path d="M423,99.9l-.8.79v1.38h-.75V95.4h.75v4.41l2.54-2.57h1l-2.14,2.19,2.15,2.64h-1Z"/><path d="M340.1,112.52a2.12,2.12,0,0,1-1.6.67,1.61,1.61,0,0,1-1.69-1.6A1.58,1.58,0,0,1,338.5,110a2,2,0,0,1,1.6.66v-.87c0-.65-.53-1-1.22-1a1.92,1.92,0,0,0-1.48.67l-.35-.52a2.53,2.53,0,0,1,1.93-.8c1,0,1.86.46,1.86,1.63v3.32h-.74Zm0-1.38a1.62,1.62,0,0,0-1.33-.6,1.06,1.06,0,1,0,0,2.11,1.62,1.62,0,0,0,1.33-.6Z"/><path d="M345.77,109.91c0-.85-.43-1.12-1.08-1.12a1.86,1.86,0,0,0-1.43.75v3.53h-.75v-4.83h.75v.7a2.4,2.4,0,0,1,1.72-.82,1.37,1.37,0,0,1,1.54,1.56v3.39h-.75Z"/><path d="M351.7,112.35a2,2,0,0,1-1.63.84c-1.26,0-2.15-1-2.15-2.53s.88-2.54,2.15-2.54a2,2,0,0,1,1.63.85V106.4h.75v6.67h-.75Zm0-2.78a1.81,1.81,0,0,0-1.45-.78c-1,0-1.55.8-1.55,1.87s.58,1.86,1.55,1.86a1.8,1.8,0,0,0,1.45-.76Z"/><path d="M356.7,111.89a2.19,2.19,0,0,0,1.59.69c.74,0,1.14-.33,1.14-.8s-.59-.7-1.24-.86c-.82-.19-1.75-.41-1.75-1.41,0-.75.65-1.39,1.8-1.39a2.44,2.44,0,0,1,1.79.7l-.35.52a1.88,1.88,0,0,0-1.44-.61c-.66,0-1.07.3-1.07.73s.55.62,1.18.77c.84.19,1.81.43,1.81,1.5,0,.81-.65,1.46-1.9,1.46a2.57,2.57,0,0,1-1.95-.76Z"/><path d="M363.63,108.12a2.34,2.34,0,0,1,2.31,2.59v.19H362a1.7,1.7,0,0,0,1.74,1.67,2.11,2.11,0,0,0,1.49-.61l.35.49a2.6,2.6,0,0,1-1.91.74,2.54,2.54,0,0,1-.08-5.07ZM362,110.35h3.17a1.57,1.57,0,0,0-1.59-1.61A1.61,1.61,0,0,0,362,110.35Z"/><path d="M369.48,108.12a2.06,2.06,0,0,1,1.76.84l-.5.46a1.43,1.43,0,0,0-1.22-.63,1.88,1.88,0,0,0,0,3.73,1.45,1.45,0,0,0,1.22-.63l.5.46a2.06,2.06,0,0,1-1.76.84,2.54,2.54,0,0,1,0-5.07Z"/><path d="M375.69,112.39a2.36,2.36,0,0,1-1.72.8,1.36,1.36,0,0,1-1.54-1.54v-3.41h.75v3.18c0,.85.43,1.1,1.08,1.1a1.85,1.85,0,0,0,1.43-.73v-3.55h.75v4.83h-.75Z"/><path d="M378.11,108.24h.75V109a2.05,2.05,0,0,1,1.61-.88v.77a1.32,1.32,0,0,0-.3,0,1.77,1.77,0,0,0-1.31.77v3.42h-.75Z"/><path d="M381.46,106.92a.51.51,0,0,1,1,0,.51.51,0,1,1-1,0Zm.13,1.32h.75v4.83h-.75Z"/><path d="M384.2,112.06V108.9h-.8v-.66h.8v-1.32H385v1.32h1v.66h-1v3c0,.36.16.62.49.62a.72.72,0,0,0,.51-.2l.22.56a1.23,1.23,0,0,1-.9.31A1,1,0,0,1,384.2,112.06Z"/><path d="M387.72,114.35a.69.69,0,0,0,.72-.5l.32-.73-2-4.88h.81l1.61,4,1.6-4h.82l-2.42,5.81a1.43,1.43,0,0,1-1.42,1,3.19,3.19,0,0,1-.55-.06l.12-.68A1.14,1.14,0,0,0,387.72,114.35Z"/><path d="M395.11,111.89a2.19,2.19,0,0,0,1.59.69c.74,0,1.14-.33,1.14-.8s-.59-.7-1.24-.86c-.82-.19-1.75-.41-1.75-1.41,0-.75.65-1.39,1.8-1.39a2.44,2.44,0,0,1,1.79.7l-.35.52a1.88,1.88,0,0,0-1.44-.61c-.66,0-1.07.3-1.07.73s.55.62,1.18.77c.84.19,1.81.43,1.81,1.5,0,.81-.65,1.46-1.9,1.46a2.57,2.57,0,0,1-1.95-.76Z"/><path d="M402,108.12a2.35,2.35,0,0,1,2.32,2.59v.19h-3.91a1.7,1.7,0,0,0,1.74,1.67,2.11,2.11,0,0,0,1.49-.61l.36.49a2.62,2.62,0,0,1-1.92.74,2.54,2.54,0,0,1-.08-5.07Zm-1.59,2.23h3.17a1.57,1.57,0,0,0-1.59-1.61A1.61,1.61,0,0,0,400.44,110.35Z"/><path d="M405.73,108.24h.75V109a2.05,2.05,0,0,1,1.61-.88v.77a1.32,1.32,0,0,0-.3,0,1.77,1.77,0,0,0-1.31.77v3.42h-.75Z"/><path d="M408.84,108.24h.81l1.61,4,1.6-4h.82l-2,4.83h-.82Z"/><path d="M414.59,106.92a.51.51,0,0,1,1,0,.51.51,0,1,1-1,0Zm.13,1.32h.75v4.83h-.75Z"/><path d="M419.24,108.12A2.07,2.07,0,0,1,421,109l-.5.46a1.43,1.43,0,0,0-1.23-.63,1.88,1.88,0,0,0,0,3.73,1.46,1.46,0,0,0,1.23-.63l.5.46a2.07,2.07,0,0,1-1.77.84,2.54,2.54,0,0,1,0-5.07Z"/><path d="M424.22,108.12a2.35,2.35,0,0,1,2.32,2.59v.19h-3.91a1.7,1.7,0,0,0,1.74,1.67,2.11,2.11,0,0,0,1.49-.61l.36.49a2.62,2.62,0,0,1-1.92.74,2.54,2.54,0,0,1-.08-5.07Zm-1.59,2.23h3.17a1.57,1.57,0,0,0-1.59-1.61A1.61,1.61,0,0,0,422.63,110.35Z"/><path d="M427.88,111.89a2.19,2.19,0,0,0,1.59.69c.74,0,1.14-.33,1.14-.8s-.59-.7-1.24-.86c-.82-.19-1.75-.41-1.75-1.41,0-.75.65-1.39,1.8-1.39a2.44,2.44,0,0,1,1.79.7l-.35.52a1.88,1.88,0,0,0-1.44-.61c-.66,0-1.07.3-1.07.73s.55.62,1.18.77c.84.19,1.81.43,1.81,1.5,0,.81-.65,1.46-1.9,1.46a2.57,2.57,0,0,1-1.95-.76Z"/><path class="cls-7" d="M370.9,57V48.67l-15.42,9V75.6l8.7-5"/><path class="cls-7" d="M340,57.62v-9l15.53,9V75.6l-9.16-5.21"/><path class="cls-7" d="M362.48,43.79l8.42,4.88-15.48,9-15.47-9,7.88-4.57"/><path class="cls-7" d="M343.6,64v7.91l7.31-4.18v-8Z"/><path class="cls-7" d="M343.6,64.05v7.89l-7.3-4.18v-8Z"/><path class="cls-7" d="M350.91,59.76,343.6,64l-7.3-4.29,7.28-4.23Z"/><path class="cls-7" d="M367.35,64v7.91l7.3-4.18v-8Z"/><path class="cls-7" d="M367.35,64.05v7.89L360,67.76v-8Z"/><path class="cls-7" d="M374.65,59.76,367.35,64,360,59.74l7.28-4.23Z"/><path class="cls-7" d="M355.17,44.54v7.92l7.31-4.19v-8Z"/><path class="cls-7" d="M355.17,44.57v7.89l-7.31-4.18v-8Z"/><path class="cls-7" d="M362.48,40.28l-7.31,4.27-7.31-4.29L355.15,36Z"/><path d="M214,84.4h1.62l1.85,5.13,1.84-5.13h1.62l-2.57,6.67h-1.78Z"/><path d="M220.92,88.65a2.56,2.56,0,1,1,2.55,2.54A2.45,2.45,0,0,1,220.92,88.65Zm3.79,0a1.25,1.25,0,1,0-1.24,1.41A1.27,1.27,0,0,0,224.71,88.65Z"/><path d="M227.12,84.4h1.27v6.67h-1.27Z"/><path d="M230.1,89.87V87.35h-.8V86.24h.8V84.92h1.28v1.32h1v1.11h-1v2.18c0,.3.16.53.44.53a.69.69,0,0,0,.44-.14l.27,1a1.57,1.57,0,0,1-1.06.31A1.21,1.21,0,0,1,230.1,89.87Z"/><path d="M233.85,89.05A2.88,2.88,0,0,0,236,90c.78,0,1.16-.37,1.16-.75s-.58-.67-1.35-.85c-1.09-.25-2.48-.55-2.48-2,0-1.11,1-2,2.52-2a3.71,3.71,0,0,1,2.6.93l-.79,1a2.85,2.85,0,0,0-1.91-.73c-.64,0-1,.28-1,.68s.56.59,1.33.77c1.1.25,2.5.58,2.5,2.06,0,1.22-.87,2.14-2.67,2.14a3.78,3.78,0,0,1-2.81-1.06Z"/><path d="M239.88,89.87V87.35h-.8V86.24h.8V84.92h1.27v1.32h1v1.11h-1v2.18c0,.3.16.53.44.53a.69.69,0,0,0,.44-.14l.27,1a1.57,1.57,0,0,1-1.06.31A1.2,1.2,0,0,1,239.88,89.87Z"/><path d="M246.09,90.57a2,2,0,0,1-1.53.62,1.61,1.61,0,0,1-1.68-1.6,1.53,1.53,0,0,1,1.68-1.54,2,2,0,0,1,1.53.59V88c0-.49-.42-.81-1.06-.81a2,2,0,0,0-1.41.57l-.48-.85a3.17,3.17,0,0,1,2.11-.76c1.1,0,2.11.44,2.11,1.83v3.12h-1.27Zm0-1.26a1.27,1.27,0,0,0-1-.42c-.5,0-.91.26-.91.73s.41.71.91.71a1.27,1.27,0,0,0,1-.42Z"/><path d="M251,86.12a2.25,2.25,0,0,1,1.91.87l-.83.78a1.17,1.17,0,0,0-1-.52,1.41,1.41,0,0,0,0,2.81,1.22,1.22,0,0,0,1-.52l.83.77a2.23,2.23,0,0,1-1.91.88,2.54,2.54,0,1,1,0-5.07Z"/><path d="M255.68,89.21l-.58.62v1.24h-1.27V84.4h1.27v4l1.83-2.15h1.56l-1.91,2.19,2,2.64H257Z"/><path d="M214.8,95.4h2.68a2,2,0,1,1,0,4h-1.85v2.65h-.83Zm2.58.74h-1.75v2.54h1.75a1.27,1.27,0,1,0,0-2.54Z"/><path d="M220.78,95.4h.75v6.67h-.75Z"/><path d="M226.21,101.52a2.09,2.09,0,0,1-1.6.67,1.61,1.61,0,0,1-1.69-1.6A1.58,1.58,0,0,1,224.61,99a2,2,0,0,1,1.6.66v-.87c0-.65-.52-1-1.22-1a1.92,1.92,0,0,0-1.48.67l-.35-.52a2.53,2.53,0,0,1,1.93-.8c1,0,1.87.46,1.87,1.63v3.32h-.75Zm0-1.38a1.62,1.62,0,0,0-1.33-.6,1.06,1.06,0,1,0,0,2.11,1.62,1.62,0,0,0,1.33-.6Z"/><path d="M228.79,101.06V97.9H228v-.66h.8V95.92h.75v1.32h1v.66h-1v3c0,.36.16.62.49.62a.72.72,0,0,0,.51-.2l.22.56a1.23,1.23,0,0,1-.9.31A1,1,0,0,1,228.79,101.06Z"/><path d="M232.19,97.9h-.8v-.66h.8v-.37a1.45,1.45,0,0,1,2.13-1.4l-.19.56a.83.83,0,0,0-.43-.11c-.49,0-.76.34-.76,1v.37h1v.66h-1v4.17h-.75Z"/><path d="M234.64,99.65a2.39,2.39,0,1,1,2.39,2.54A2.37,2.37,0,0,1,234.64,99.65Zm4,0a1.62,1.62,0,1,0-1.6,1.87A1.68,1.68,0,0,0,238.63,99.65Z"/><path d="M240.82,97.24h.75V98a2.05,2.05,0,0,1,1.61-.88v.77a1.32,1.32,0,0,0-.3,0,1.77,1.77,0,0,0-1.31.77v3.42h-.75Z"/><path d="M250.13,98.79c0-.61-.27-1-.89-1a1.69,1.69,0,0,0-1.28.74v3.54h-.75V98.79c0-.61-.26-1-.89-1a1.69,1.69,0,0,0-1.27.75v3.53h-.75V97.24h.75v.7a2.09,2.09,0,0,1,1.56-.82,1.24,1.24,0,0,1,1.3.9,2,2,0,0,1,1.62-.9c.88,0,1.35.49,1.35,1.46v3.49h-.75Z"/><path d="M255.13,100.89a2.19,2.19,0,0,0,1.59.69c.74,0,1.14-.33,1.14-.8s-.59-.7-1.24-.86c-.82-.19-1.75-.41-1.75-1.41,0-.75.65-1.39,1.8-1.39a2.44,2.44,0,0,1,1.79.7l-.35.52a1.88,1.88,0,0,0-1.44-.61c-.66,0-1.07.3-1.07.73s.55.62,1.18.77c.84.19,1.81.43,1.81,1.5,0,.81-.65,1.46-1.9,1.46a2.57,2.57,0,0,1-1.95-.76Z"/><path d="M262.06,97.12a2.35,2.35,0,0,1,2.32,2.59v.19h-3.91a1.7,1.7,0,0,0,1.74,1.67,2.11,2.11,0,0,0,1.49-.61l.36.49a2.62,2.62,0,0,1-1.92.74,2.54,2.54,0,0,1-.08-5.07Zm-1.59,2.23h3.17a1.57,1.57,0,0,0-1.59-1.61A1.61,1.61,0,0,0,260.47,99.35Z"/><path d="M265.76,97.24h.75V98a2.05,2.05,0,0,1,1.61-.88v.77a1.32,1.32,0,0,0-.3,0,1.77,1.77,0,0,0-1.31.77v3.42h-.75Z"/><path d="M268.87,97.24h.81l1.6,4,1.6-4h.82l-2,4.83h-.81Z"/><path d="M274.62,95.92a.51.51,0,0,1,1,0,.51.51,0,1,1-1,0Zm.13,1.32h.75v4.83h-.75Z"/><path d="M279.27,97.12A2.07,2.07,0,0,1,281,98l-.5.46a1.43,1.43,0,0,0-1.23-.63,1.88,1.88,0,0,0,0,3.73,1.46,1.46,0,0,0,1.23-.63l.5.46a2.07,2.07,0,0,1-1.77.84,2.54,2.54,0,0,1,0-5.07Z"/><path d="M284.25,97.12a2.35,2.35,0,0,1,2.32,2.59v.19h-3.91a1.7,1.7,0,0,0,1.74,1.67,2.11,2.11,0,0,0,1.49-.61l.36.49a2.62,2.62,0,0,1-1.92.74,2.54,2.54,0,0,1-.08-5.07Zm-1.59,2.23h3.17a1.57,1.57,0,0,0-1.59-1.61A1.61,1.61,0,0,0,282.66,99.35Z"/><path d="M287.91,100.89a2.19,2.19,0,0,0,1.59.69c.74,0,1.14-.33,1.14-.8s-.59-.7-1.24-.86c-.82-.19-1.75-.41-1.75-1.41,0-.75.65-1.39,1.8-1.39a2.44,2.44,0,0,1,1.79.7l-.35.52a1.88,1.88,0,0,0-1.44-.61c-.66,0-1.07.3-1.07.73s.55.62,1.18.77c.84.19,1.81.43,1.81,1.5,0,.81-.65,1.46-1.9,1.46a2.57,2.57,0,0,1-2-.76Z"/><path d="M215,108.9h-.8v-.66h.8v-.37a1.45,1.45,0,0,1,2.13-1.4l-.19.56a.83.83,0,0,0-.43-.11c-.49,0-.76.34-.76,1v.37h1v.66h-1v4.17H215Z"/><path d="M217.43,110.65c-.17-3.29,5-3.29,4.78,0C222.39,114,217.26,114,217.43,110.65Zm4,0a1.62,1.62,0,1,0-3.21,0A1.62,1.62,0,1,0,221.42,110.65Z"/><path d="M223.61,108.24h.75V109a2.05,2.05,0,0,1,1.61-.88v.77a1.32,1.32,0,0,0-.3,0,1.77,1.77,0,0,0-1.31.77v3.42h-.75Z"/><path d="M233.19,112.35a2,2,0,0,1-1.63.84c-1.26,0-2.15-1-2.15-2.53s.88-2.54,2.15-2.54a2,2,0,0,1,1.63.85V106.4h.75v6.67h-.75Zm0-2.78a1.81,1.81,0,0,0-1.45-.78c-1,0-1.55.8-1.55,1.87s.58,1.86,1.55,1.86a1.8,1.8,0,0,0,1.45-.76Z"/><path d="M235.49,106.92a.51.51,0,0,1,1,0,.51.51,0,1,1-1,0Zm.13,1.32h.75v4.83h-.75Z"/><path d="M238,111.89a2.19,2.19,0,0,0,1.59.69c.74,0,1.14-.33,1.14-.8s-.59-.7-1.24-.86c-.82-.19-1.75-.41-1.75-1.41,0-.75.65-1.39,1.8-1.39a2.44,2.44,0,0,1,1.79.7l-.35.52a1.88,1.88,0,0,0-1.44-.61c-.66,0-1.07.3-1.07.73s.55.62,1.18.77c.84.19,1.81.43,1.81,1.5,0,.81-.65,1.46-1.9,1.46a2.57,2.57,0,0,1-2-.76Z"/><path d="M243.15,112.06V108.9h-.8v-.66h.8v-1.32h.75v1.32h1v.66h-1v3c0,.36.16.62.49.62a.72.72,0,0,0,.51-.2l.22.56a1.23,1.23,0,0,1-.9.31A1,1,0,0,1,243.15,112.06Z"/><path d="M246.18,108.24h.75V109a2.05,2.05,0,0,1,1.61-.88v.77a1.32,1.32,0,0,0-.3,0,1.77,1.77,0,0,0-1.31.77v3.42h-.75Z"/><path d="M249.53,106.92a.51.51,0,0,1,1,0,.51.51,0,1,1-1,0Zm.13,1.32h.75v4.83h-.75Z"/><path d="M252.07,106.4h.75V109a2,2,0,0,1,1.63-.85,2.25,2.25,0,0,1,2.15,2.54c0,1.57-.89,2.53-2.15,2.53a2,2,0,0,1-1.63-.84v.72h-.75Zm2.19,6.12c1,0,1.56-.79,1.56-1.86s-.58-1.87-1.56-1.87a1.79,1.79,0,0,0-1.44.78v2.19A1.78,1.78,0,0,0,254.26,112.52Z"/><path d="M261.26,112.39a2.36,2.36,0,0,1-1.72.8,1.36,1.36,0,0,1-1.54-1.54v-3.41h.75v3.18c0,.85.43,1.1,1.08,1.1a1.85,1.85,0,0,0,1.43-.73v-3.55H262v4.83h-.75Z"/><path d="M263.89,112.06V108.9h-.8v-.66h.8v-1.32h.75v1.32h1v.66h-1v3c0,.36.16.62.49.62a.72.72,0,0,0,.51-.2l.22.56a1.23,1.23,0,0,1-.9.31A1,1,0,0,1,263.89,112.06Z"/><path d="M268.85,108.12a2.34,2.34,0,0,1,2.31,2.59v.19h-3.9a1.7,1.7,0,0,0,1.73,1.67,2.11,2.11,0,0,0,1.49-.61l.36.49a2.62,2.62,0,0,1-1.92.74,2.54,2.54,0,0,1-.07-5.07Zm-1.59,2.23h3.16a1.57,1.57,0,0,0-1.59-1.61A1.61,1.61,0,0,0,267.26,110.35Z"/><path d="M276.06,112.35a2,2,0,0,1-1.63.84c-1.26,0-2.14-1-2.14-2.53s.87-2.54,2.14-2.54a2,2,0,0,1,1.63.85V106.4h.75v6.67h-.75Zm0-2.78a1.81,1.81,0,0,0-1.45-.78c-1,0-1.55.8-1.55,1.87s.58,1.86,1.55,1.86a1.8,1.8,0,0,0,1.45-.76Z"/><path d="M214.64,117.92a.51.51,0,0,1,1,0,.51.51,0,1,1-1,0Zm.13,1.32h.75v4.83h-.75Z"/><path d="M220.44,120.91c0-.85-.43-1.12-1.08-1.12a1.86,1.86,0,0,0-1.42.75v3.53h-.75v-4.83h.75v.7a2.39,2.39,0,0,1,1.71-.82,1.37,1.37,0,0,1,1.54,1.56v3.39h-.75Z"/><path d="M223.07,119.9h-.8v-.66h.8v-.37a1.45,1.45,0,0,1,2.13-1.4L225,118a.83.83,0,0,0-.43-.11c-.49,0-.76.34-.76,1v.37h1v.66h-1v4.17h-.75Z"/><path d="M225.89,119.24h.75V120a2.05,2.05,0,0,1,1.61-.88v.77a1.32,1.32,0,0,0-.3,0,1.77,1.77,0,0,0-1.31.77v3.42h-.75Z"/><path d="M232.41,123.52a2.09,2.09,0,0,1-1.6.67,1.61,1.61,0,0,1-1.69-1.6,1.58,1.58,0,0,1,1.69-1.59,2,2,0,0,1,1.6.66v-.87c0-.65-.52-1-1.22-1a1.92,1.92,0,0,0-1.48.67l-.35-.52a2.53,2.53,0,0,1,1.93-.8c1,0,1.87.46,1.87,1.63v3.32h-.75Zm0-1.38a1.62,1.62,0,0,0-1.33-.6,1.06,1.06,0,1,0,0,2.11,1.62,1.62,0,0,0,1.33-.6Z"/><path d="M234.81,122.89a2.18,2.18,0,0,0,1.58.69c.75,0,1.15-.33,1.15-.8s-.59-.7-1.24-.86c-.82-.19-1.75-.41-1.75-1.41,0-.75.65-1.39,1.8-1.39a2.48,2.48,0,0,1,1.79.7l-.36.52a1.86,1.86,0,0,0-1.43-.61c-.66,0-1.07.3-1.07.73s.55.62,1.18.77c.84.19,1.8.43,1.8,1.5,0,.81-.65,1.46-1.89,1.46a2.57,2.57,0,0,1-2-.76Z"/><path d="M239.93,123.06V119.9h-.8v-.66h.8v-1.32h.75v1.32h1v.66h-1v3c0,.36.16.62.49.62a.72.72,0,0,0,.51-.2l.22.56a1.23,1.23,0,0,1-.9.31A1,1,0,0,1,239.93,123.06Z"/><path d="M243,119.24h.75V120a2.05,2.05,0,0,1,1.61-.88v.77a1.32,1.32,0,0,0-.3,0,1.77,1.77,0,0,0-1.31.77v3.42H243Z"/><path d="M249.7,123.39a2.36,2.36,0,0,1-1.72.8,1.36,1.36,0,0,1-1.54-1.54v-3.41h.75v3.18c0,.85.43,1.1,1.08,1.1a1.85,1.85,0,0,0,1.43-.73v-3.55h.75v4.83h-.75Z"/><path d="M254.25,119.12A2.07,2.07,0,0,1,256,120l-.5.46a1.43,1.43,0,0,0-1.22-.63,1.88,1.88,0,0,0,0,3.73,1.45,1.45,0,0,0,1.22-.63l.5.46a2.07,2.07,0,0,1-1.77.84,2.54,2.54,0,0,1,0-5.07Z"/><path d="M257.67,123.06V119.9h-.8v-.66h.8v-1.32h.75v1.32h1v.66h-1v3c0,.36.16.62.49.62a.72.72,0,0,0,.51-.2l.22.56a1.23,1.23,0,0,1-.9.31A1,1,0,0,1,257.67,123.06Z"/><path d="M263.84,123.39a2.36,2.36,0,0,1-1.72.8,1.36,1.36,0,0,1-1.54-1.54v-3.41h.75v3.18c0,.85.43,1.1,1.08,1.1a1.85,1.85,0,0,0,1.43-.73v-3.55h.75v4.83h-.75Z"/><path d="M266.26,119.24H267V120a2.05,2.05,0,0,1,1.61-.88v.77a1.32,1.32,0,0,0-.3,0,1.77,1.77,0,0,0-1.31.77v3.42h-.75Z"/><path d="M271.74,119.12a2.35,2.35,0,0,1,2.32,2.59v.19h-3.91a1.7,1.7,0,0,0,1.74,1.67,2.11,2.11,0,0,0,1.49-.61l.36.49a2.62,2.62,0,0,1-1.92.74,2.54,2.54,0,0,1-.08-5.07Zm-1.59,2.23h3.17a1.57,1.57,0,0,0-1.59-1.61A1.61,1.61,0,0,0,270.15,121.35Z"/><path d="M281.07,123.52a2.09,2.09,0,0,1-1.6.67,1.61,1.61,0,0,1-1.69-1.6,1.58,1.58,0,0,1,1.69-1.59,2,2,0,0,1,1.6.66v-.87c0-.65-.52-1-1.22-1a1.92,1.92,0,0,0-1.48.67l-.35-.52a2.53,2.53,0,0,1,1.93-.8c1,0,1.87.46,1.87,1.63v3.32h-.75Zm0-1.38a1.62,1.62,0,0,0-1.33-.6,1.06,1.06,0,1,0,0,2.11,1.62,1.62,0,0,0,1.33-.6Z"/><path d="M286.75,120.91c0-.85-.43-1.12-1.08-1.12a1.86,1.86,0,0,0-1.43.75v3.53h-.75v-4.83h.75v.7a2.4,2.4,0,0,1,1.72-.82,1.37,1.37,0,0,1,1.54,1.56v3.39h-.75Z"/><path d="M292.68,123.35a2,2,0,0,1-1.63.84c-1.26,0-2.15-1-2.15-2.53s.88-2.54,2.15-2.54a2,2,0,0,1,1.63.85V117.4h.75v6.67h-.75Zm0-2.78a1.81,1.81,0,0,0-1.45-.78c-1,0-1.55.8-1.55,1.87s.58,1.86,1.55,1.86a1.8,1.8,0,0,0,1.45-.76Z"/><path d="M300.73,123.52a2.09,2.09,0,0,1-1.6.67,1.61,1.61,0,0,1-1.69-1.6,1.58,1.58,0,0,1,1.69-1.59,2,2,0,0,1,1.6.66v-.87c0-.65-.52-1-1.22-1a1.92,1.92,0,0,0-1.48.67l-.35-.52a2.53,2.53,0,0,1,1.93-.8c1,0,1.87.46,1.87,1.63v3.32h-.75Zm0-1.38a1.62,1.62,0,0,0-1.33-.6,1.06,1.06,0,1,0,0,2.11,1.62,1.62,0,0,0,1.33-.6Z"/><path d="M303.14,125.9v-6.66h.75V120a2,2,0,0,1,1.63-.84c1.27,0,2.15,1,2.15,2.53s-.88,2.54-2.15,2.54a2,2,0,0,1-1.63-.85v2.56Zm2.19-6.11a1.79,1.79,0,0,0-1.44.77v2.18a1.79,1.79,0,0,0,1.44.78c1,0,1.55-.8,1.55-1.87S306.3,119.79,305.33,119.79Z"/><path d="M309.09,125.9v-6.66h.75V120a2,2,0,0,1,1.63-.84c1.26,0,2.14,1,2.14,2.53s-.88,2.54-2.14,2.54a2,2,0,0,1-1.63-.85v2.56Zm2.18-6.11a1.78,1.78,0,0,0-1.43.77v2.18a1.79,1.79,0,0,0,1.43.78c1,0,1.55-.8,1.55-1.87S312.24,119.79,311.27,119.79Z"/><path d="M315,122.89a2.19,2.19,0,0,0,1.59.69c.74,0,1.14-.33,1.14-.8s-.59-.7-1.24-.86c-.82-.19-1.75-.41-1.75-1.41,0-.75.65-1.39,1.8-1.39a2.44,2.44,0,0,1,1.79.7l-.35.52a1.88,1.88,0,0,0-1.44-.61c-.66,0-1.07.3-1.07.73s.55.62,1.18.77c.84.19,1.81.43,1.81,1.5,0,.81-.65,1.46-1.9,1.46a2.57,2.57,0,0,1-2-.76Z"/><path class="cls-8" d="M216.81,61.61l13.5,7.62v4.15l-13.5-7.61Z"/><path class="cls-8" d="M230.31,73.38l13.49-7.62V61.61l-13.49,7.62Z"/><path class="cls-8" d="M240.52,59.75l3.28,1.86-13.49,7.63-13.5-7.63L220,59.8"/><path class="cls-8" d="M216.81,53.86l13.5,7.62v4L216.81,58Z"/><path class="cls-8" d="M230.31,65.52,243.8,57.9v-4l-13.49,7.5Z"/><path class="cls-8" d="M240.41,51.94l3.39,1.92-13.49,7.63-13.5-7.63,3.39-1.92"/><path class="cls-8" d="M216.81,45.87l13.5,7.62v4.16l-8.85-5-1.26-.71L216.81,50Z"/><path class="cls-8" d="M230.31,57.65l9.22-5.21.88-.5L243.8,50V45.87l-13.49,7.62Z"/><path class="cls-8" d="M216.81,45.87l13.5-7.63,13.49,7.63-13.49,7.64Z"/><polyline class="cls-9" points="440.35 136.31 440.35 138.81 437.85 138.81"/><line class="cls-10" x1="432.64" y1="138.81" x2="209.08" y2="138.81"/><polyline class="cls-9" points="206.48 138.81 203.98 138.81 203.98 136.31"/><line class="cls-11" x1="203.98" y1="131.31" x2="203.98" y2="5.5"/><polyline class="cls-9" points="203.98 3 203.98 0.5 206.48 0.5"/><line class="cls-10" x1="211.68" y1="0.5" x2="435.25" y2="0.5"/><polyline class="cls-9" points="437.85 0.5 440.35 0.5 440.35 3"/><line class="cls-11" x1="440.35" y1="8" x2="440.35" y2="133.81"/><polyline class="cls-1" points="180.59 213.81 180.59 68.29 161.97 68.29"/><line class="cls-1" x1="161.97" y1="214.59" x2="203.44" y2="214.59"/><path class="cls-7" d="M152.54,58.75V54.62l-7.68,4.48V68l4.34-2.49"/><path class="cls-7" d="M137.13,59.08V54.6l7.73,4.51V68l-4.55-2.6"/><path class="cls-7" d="M148.35,52.19l4.19,2.43-7.7,4.49-7.71-4.51,3.92-2.27"/><path class="cls-7" d="M139,62.27v3.94l3.64-2.09v-4Z"/><path class="cls-7" d="M139,62.28v3.93l-3.64-2.08v-4Z"/><path class="cls-7" d="M142.59,60.14,139,62.27l-3.64-2.13L138.94,58Z"/><path class="cls-7" d="M150.77,62.27v3.94l3.64-2.09v-4Z"/><path class="cls-7" d="M150.77,62.28v3.93l-3.63-2.08v-4Z"/><path class="cls-7" d="M154.41,60.14l-3.64,2.13-3.64-2.13L150.76,58Z"/><path class="cls-7" d="M144.71,52.57v3.94l3.64-2.08v-4Z"/><path class="cls-7" d="M144.71,52.58v3.93l-3.64-2.08v-4Z"/><path class="cls-7" d="M148.35,50.45l-3.64,2.12-3.64-2.13,3.63-2.11Z"/><path class="cls-8" d="M131.35,80.59l13.49,7.62v4.16l-13.49-7.62Z"/><path class="cls-8" d="M144.84,92.37l13.49-7.62V80.59l-13.49,7.62Z"/><path class="cls-8" d="M155.05,78.73l3.28,1.86-13.49,7.63-13.49-7.63,3.2-1.81"/><path class="cls-8" d="M131.35,72.84l13.49,7.62v4L131.35,77Z"/><path class="cls-8" d="M144.84,84.5l13.49-7.62v-4l-13.49,7.5Z"/><path class="cls-8" d="M154.94,70.92l3.39,1.92-13.49,7.64-13.49-7.64,3.38-1.92"/><path class="cls-8" d="M131.35,64.85l13.49,7.62v4.16l-8.85-5-1.26-.71L131.35,69Z"/><path class="cls-8" d="M144.84,76.63l9.22-5.21.88-.5L158.33,69V64.85l-13.49,7.62Z"/><path class="cls-8" d="M154.41,62.63l3.92,2.22-13.49,7.64-13.49-7.64,3.6-2"/><rect class="cls-12" x="19.97" y="225.42" width="20.9" height="30.16"/><rect class="cls-12" x="17.93" y="255.57" width="24.99" height="4.81"/><rect class="cls-12" x="24.23" y="229.72" width="12.39" height="8.94"/><path class="cls-12" d="M43.71,229.29c1.4,1.19,3.59,2.8,4,4.9.45,2.38.1,15.65.1,16.54,0,2.36-3.87,2.36-3.87.43,0-1.44-.08-5.68-.19-6.93s-2.77-.67-2.77-.67"/><path class="cls-12" d="M45.76,231.7a3.75,3.75,0,0,0-1,3.19c.12,1.51,2,2.3,2.87,2.62"/><circle class="cls-5" cx="33.77" cy="172.87" r="2.68"/><circle class="cls-5" cx="24.06" cy="181.58" r="2.68"/><path class="cls-5" d="M40.46,187.71a6,6,0,1,1,8.12-8.41"/><path class="cls-5" d="M18.24,203.7a6,6,0,1,1,11.69-.2"/><rect class="cls-5" x="13.76" y="203.7" width="38.32" height="4.48"/><line class="cls-5" x1="26.58" y1="179.87" x2="31.77" y2="174.68"/><line class="cls-5" x1="24.06" y1="184.26" x2="24.06" y2="196.38"/><line class="cls-5" x1="35.95" y1="174.97" x2="39.35" y2="178.36"/><polyline class="cls-2" points="145.15 241.93 145.15 274.12 0.5 274.12 0.5 154.12 145.15 154.12 145.15 191.13"/><rect x="18.52" y="145.95" width="108.61" height="18"/><path class="cls-3" d="M24.53,156.35v-.28h1.55v.44a.74.74,0,0,0,.83.73.68.68,0,0,0,.72-.69c0-1.27-3-1-3-3.27a2,2,0,0,1,2.22-2.08,1.94,1.94,0,0,1,2.21,2v.44H27.54v-.54c0-.31-.3-.49-.67-.49a.59.59,0,0,0-.65.6c0,1,3,.79,3,3.21a2.1,2.1,0,0,1-2.31,2.19A2.15,2.15,0,0,1,24.53,156.35Z"/><path class="cls-3" d="M31.62,152.75v1.55h1.72v1.4H31.62v1.35h2.12v1.4H30.07v-7.1h3.67v1.4Z"/><path class="cls-3" d="M36.86,155.89h-.74v2.56H34.57v-7.1h2.36a2,2,0,0,1,2.12,1.94V154a1.86,1.86,0,0,1-.71,1.5l.92,3H37.64Zm-.74-1.4H37a.44.44,0,0,0,.47-.47v-.8a.43.43,0,0,0-.46-.47h-.92Z"/><path class="cls-3" d="M44.72,151.35l-1.5,7.1h-2l-1.49-7.1h1.55l1,4.87,1-4.87Z"/><path class="cls-3" d="M45.51,151.35h1.55v7.1H45.51Z"/><path class="cls-3" d="M48,156.58v-3.36a2.08,2.08,0,0,1,2.34-2,2.09,2.09,0,0,1,2.35,2v.89H51.1v-.91c0-.36-.26-.6-.77-.6s-.8.24-.8.6v3.4c0,.36.27.6.79.6s.78-.24.78-.6v-.91h1.57v.89a2.08,2.08,0,0,1-2.34,2A2.09,2.09,0,0,1,48,156.58Z"/><path class="cls-3" d="M55.12,152.75v1.55h1.72v1.4H55.12v1.35h2.12v1.4H53.57v-7.1h3.67v1.4Z"/><path class="cls-3" d="M64.57,153.29v.91a2,2,0,0,1-2.11,2h-.82v2.3H60.09v-7.1h2.36A2,2,0,0,1,64.57,153.29ZM63,153.22a.44.44,0,0,0-.46-.47h-.92v2h.91a.44.44,0,0,0,.47-.48Z"/><path class="cls-3" d="M67.69,155.89H67v2.56H65.4v-7.1h2.36a2,2,0,0,1,2.12,1.94V154a1.86,1.86,0,0,1-.71,1.5l.92,3H68.47Zm-.74-1.4h.91a.44.44,0,0,0,.47-.47v-.8a.43.43,0,0,0-.46-.47H67Z"/><path class="cls-3" d="M70.79,156.58v-3.36a2.39,2.39,0,0,1,4.72,0v3.36a2.39,2.39,0,0,1-4.72,0Zm3.17,0v-3.4c0-.36-.24-.6-.8-.6s-.82.24-.82.6v3.4c0,.36.24.6.81.6S74,157,74,156.6Z"/><path class="cls-3" d="M81.14,151.35l-1.5,7.1h-2l-1.49-7.1h1.55l1,4.87,1-4.87Z"/><path class="cls-3" d="M81.94,151.35h1.55v7.1H81.94Z"/><path class="cls-3" d="M89,153.37v3.06a2.05,2.05,0,0,1-2.27,2h-2.3v-7.1h2.29A2.06,2.06,0,0,1,89,153.37Zm-1.55,0a.57.57,0,0,0-.62-.6H86v4.3h.84a.57.57,0,0,0,.63-.6Z"/><path class="cls-3" d="M91.5,152.75v1.55h1.72v1.4H91.5v1.35h2.12v1.4H90v-7.1h3.67v1.4Z"/><path class="cls-3" d="M96.74,155.89H96v2.56H94.45v-7.1h2.36a1.94,1.94,0,0,1,2.11,1.94V154a1.88,1.88,0,0,1-.7,1.5l.91,3H97.52Zm-.74-1.4h.91a.44.44,0,0,0,.47-.47v-.8a.43.43,0,0,0-.46-.47H96Z"/><path class="cls-3" d="M103.55,152.75v1.55h1.72v1.4h-1.72v1.35h2.12v1.4H102v-7.1h3.67v1.4Z"/><path class="cls-3" d="M111.06,153.37v3.06a2.05,2.05,0,0,1-2.27,2H106.5v-7.1h2.28A2.06,2.06,0,0,1,111.06,153.37Zm-1.55,0a.57.57,0,0,0-.62-.6h-.84v4.3h.83a.57.57,0,0,0,.63-.6Z"/><path class="cls-3" d="M115.06,153.91v-.71c0-.36-.33-.6-.79-.6s-.79.24-.79.6v3.4c0,.36.33.6.79.6s.79-.24.79-.6V156h-.81v-1.4h2.36v2a2.37,2.37,0,0,1-4.68,0v-3.36a2.37,2.37,0,0,1,4.68,0v.69Z"/><path class="cls-3" d="M119.09,152.75v1.55h1.72v1.4h-1.72v1.35h2.12v1.4h-3.67v-7.1h3.67v1.4Z"/><g id="containers-2" data-name="containers"><g id="Group_13206-2" data-name="Group 13206"><g id="Group_13211-2" data-name="Group 13211"><rect id="Rectangle_9436-2-2" data-name="Rectangle 9436" class="cls-5" x="77.28" y="233.98" width="10.76" height="10.95"/><g id="Group_13210-2-2" data-name="Group 13210"><line id="Line_280-2-2" data-name="Line 280" class="cls-5" x1="80.25" y1="236.13" x2="80.25" y2="242.9"/><line id="Line_281-2-2" data-name="Line 281" class="cls-5" x1="82.66" y1="236.13" x2="82.66" y2="242.9"/><path id="Path_61147-2-2" data-name="Path 61147" class="cls-6" d="M85.08,236.13v6.77"/></g></g><g id="Group_13343-2" data-name="Group 13343"><rect id="Rectangle_9436-2-3" data-name="Rectangle 9436-2" class="cls-5" x="90.29" y="233.98" width="10.76" height="10.95"/><g id="Group_13210-2-3" data-name="Group 13210-2"><line id="Line_280-2-3" data-name="Line 280-2" class="cls-5" x1="93.26" y1="236.13" x2="93.26" y2="242.9"/><line id="Line_281-2-3" data-name="Line 281-2" class="cls-5" x1="95.67" y1="236.13" x2="95.67" y2="242.9"/><path id="Path_61147-2-3" data-name="Path 61147-2" class="cls-6" d="M98.08,236.13v6.77"/></g></g><g id="Group_13345-2" data-name="Group 13345"><rect id="Rectangle_9436-3-2" data-name="Rectangle 9436-3" class="cls-5" x="90.29" y="221.07" width="10.76" height="10.95"/><g id="Group_13210-3-2" data-name="Group 13210-3"><line id="Line_280-3-2" data-name="Line 280-3" class="cls-5" x1="93.26" y1="223.22" x2="93.26" y2="229.99"/><line id="Line_281-3-2" data-name="Line 281-3" class="cls-5" x1="95.67" y1="223.22" x2="95.67" y2="229.99"/><path id="Path_61147-3-2" data-name="Path 61147-3" class="cls-6" d="M98.08,223.22V230"/></g></g><g id="Group_13341-2" data-name="Group 13341"><rect id="Rectangle_9436-4-2" data-name="Rectangle 9436-4" class="cls-5" x="77.28" y="246.9" width="10.76" height="10.95"/><g id="Group_13210-4-2" data-name="Group 13210-4"><line id="Line_280-4-2" data-name="Line 280-4" class="cls-5" x1="80.25" y1="249.04" x2="80.25" y2="255.81"/><line id="Line_281-4-2" data-name="Line 281-4" class="cls-5" x1="82.66" y1="249.04" x2="82.66" y2="255.81"/><path id="Path_61147-4-2" data-name="Path 61147-4" class="cls-6" d="M85.08,249v6.77"/></g></g><g id="Group_13342-2" data-name="Group 13342"><rect id="Rectangle_9436-5-2" data-name="Rectangle 9436-5" class="cls-5" x="90.29" y="246.9" width="10.76" height="10.95"/><g id="Group_13210-5-2" data-name="Group 13210-5"><line id="Line_280-5-2" data-name="Line 280-5" class="cls-5" x1="93.26" y1="249.04" x2="93.26" y2="255.81"/><line id="Line_281-5-2" data-name="Line 281-5" class="cls-5" x1="95.67" y1="249.04" x2="95.67" y2="255.81"/><path id="Path_61147-5-2" data-name="Path 61147-5" class="cls-6" d="M98.08,249v6.77"/></g></g><g id="Group_13344-2" data-name="Group 13344"><rect id="Rectangle_9436-6-2" data-name="Rectangle 9436-6" class="cls-5" x="103.29" y="246.9" width="10.76" height="10.95"/><g id="Group_13210-6-2" data-name="Group 13210-6"><line id="Line_280-6-2" data-name="Line 280-6" class="cls-5" x1="106.26" y1="249.04" x2="106.26" y2="255.81"/><line id="Line_281-6-2" data-name="Line 281-6" class="cls-5" x1="108.67" y1="249.04" x2="108.67" y2="255.81"/><path id="Path_61147-6-2" data-name="Path 61147-6" class="cls-6" d="M111.08,249v6.77"/></g></g></g></g><g id="containers-3" data-name="containers"><g id="Group_13206-3" data-name="Group 13206"><g id="Group_13211-3" data-name="Group 13211"><rect id="Rectangle_9436-3-3" data-name="Rectangle 9436" class="cls-5" x="77.28" y="187.04" width="10.76" height="10.95"/><g id="Group_13210-3-3" data-name="Group 13210"><line id="Line_280-3-3" data-name="Line 280" class="cls-5" x1="80.25" y1="189.18" x2="80.25" y2="195.95"/><line id="Line_281-3-3" data-name="Line 281" class="cls-5" x1="82.66" y1="189.18" x2="82.66" y2="195.95"/><path id="Path_61147-3-3" data-name="Path 61147" class="cls-6" d="M85.08,189.18V196"/></g></g><g id="Group_13343-3" data-name="Group 13343"><rect id="Rectangle_9436-2-4" data-name="Rectangle 9436-2" class="cls-5" x="90.29" y="187.04" width="10.76" height="10.95"/><g id="Group_13210-2-4" data-name="Group 13210-2"><line id="Line_280-2-4" data-name="Line 280-2" class="cls-5" x1="93.26" y1="189.18" x2="93.26" y2="195.95"/><line id="Line_281-2-4" data-name="Line 281-2" class="cls-5" x1="95.67" y1="189.18" x2="95.67" y2="195.95"/><path id="Path_61147-2-4" data-name="Path 61147-2" class="cls-6" d="M98.08,189.18V196"/></g></g><g id="Group_13345-3" data-name="Group 13345"><rect id="Rectangle_9436-3-4" data-name="Rectangle 9436-3" class="cls-5" x="90.29" y="174.12" width="10.76" height="10.95"/><g id="Group_13210-3-4" data-name="Group 13210-3"><line id="Line_280-3-4" data-name="Line 280-3" class="cls-5" x1="93.26" y1="176.27" x2="93.26" y2="183.04"/><line id="Line_281-3-4" data-name="Line 281-3" class="cls-5" x1="95.67" y1="176.27" x2="95.67" y2="183.04"/><path id="Path_61147-3-4" data-name="Path 61147-3" class="cls-6" d="M98.08,176.27V183"/></g></g><g id="Group_13341-3" data-name="Group 13341"><rect id="Rectangle_9436-4-3" data-name="Rectangle 9436-4" class="cls-5" x="77.28" y="199.95" width="10.76" height="10.95"/><g id="Group_13210-4-3" data-name="Group 13210-4"><line id="Line_280-4-3" data-name="Line 280-4" class="cls-5" x1="80.25" y1="202.1" x2="80.25" y2="208.87"/><line id="Line_281-4-3" data-name="Line 281-4" class="cls-5" x1="82.66" y1="202.1" x2="82.66" y2="208.87"/><path id="Path_61147-4-3" data-name="Path 61147-4" class="cls-6" d="M85.08,202.1v6.77"/></g></g><g id="Group_13342-3" data-name="Group 13342"><rect id="Rectangle_9436-5-3" data-name="Rectangle 9436-5" class="cls-5" x="90.29" y="199.95" width="10.76" height="10.95"/><g id="Group_13210-5-3" data-name="Group 13210-5"><line id="Line_280-5-3" data-name="Line 280-5" class="cls-5" x1="93.26" y1="202.1" x2="93.26" y2="208.87"/><line id="Line_281-5-3" data-name="Line 281-5" class="cls-5" x1="95.67" y1="202.1" x2="95.67" y2="208.87"/><path id="Path_61147-5-3" data-name="Path 61147-5" class="cls-6" d="M98.08,202.1v6.77"/></g></g><g id="Group_13344-3" data-name="Group 13344"><rect id="Rectangle_9436-6-3" data-name="Rectangle 9436-6" class="cls-5" x="103.29" y="199.95" width="10.76" height="10.95"/><g id="Group_13210-6-3" data-name="Group 13210-6"><line id="Line_280-6-3" data-name="Line 280-6" class="cls-5" x1="106.26" y1="202.1" x2="106.26" y2="208.87"/><line id="Line_281-6-3" data-name="Line 281-6" class="cls-5" x1="108.67" y1="202.1" x2="108.67" y2="208.87"/><path id="Path_61147-6-3" data-name="Path 61147-6" class="cls-6" d="M111.08,202.1v6.77"/></g></g></g></g><path class="cls-7" d="M152.54,204.6v-4.13L144.86,205v8.93l4.34-2.49"/><path class="cls-7" d="M137.13,204.93v-4.48l7.73,4.51v8.92l-4.55-2.6"/><path class="cls-7" d="M148.35,198l4.19,2.43-7.7,4.49-7.71-4.51,3.92-2.27"/><path class="cls-7" d="M139,208.12v3.94l3.64-2.09v-4Z"/><path class="cls-7" d="M139,208.13v3.93L135.31,210v-4Z"/><path class="cls-7" d="M142.59,206,139,208.12,135.31,206l3.63-2.11Z"/><path class="cls-7" d="M150.77,208.12v3.94l3.64-2.09v-4Z"/><path class="cls-7" d="M150.77,208.13v3.93L147.14,210v-4Z"/><path class="cls-7" d="M154.41,206l-3.64,2.13L147.13,206l3.63-2.11Z"/><path class="cls-7" d="M144.71,198.42v3.94l3.64-2.08v-4Z"/><path class="cls-7" d="M144.71,198.43v3.93l-3.64-2.08v-4Z"/><path class="cls-7" d="M148.35,196.3l-3.64,2.12-3.64-2.13,3.63-2.11Z"/><path class="cls-8" d="M131.35,226.44l13.49,7.62v4.16l-13.49-7.62Z"/><path class="cls-8" d="M144.84,238.22l13.49-7.62v-4.16l-13.49,7.62Z"/><path class="cls-8" d="M155.05,224.58l3.28,1.86-13.49,7.63-13.49-7.63,3.2-1.81"/><path class="cls-8" d="M131.35,218.69l13.49,7.62v4l-13.49-7.5Z"/><path class="cls-8" d="M144.84,230.35l13.49-7.62v-4l-13.49,7.5Z"/><path class="cls-8" d="M154.94,216.77l3.39,1.92-13.49,7.64-13.49-7.64,3.38-1.92"/><path class="cls-8" d="M131.35,210.7l13.49,7.62v4.16l-8.85-5-1.26-.71-3.38-1.91Z"/><path class="cls-8" d="M144.84,222.48l9.22-5.21.88-.5,3.39-1.91V210.7l-13.49,7.62Z"/><path class="cls-8" d="M154.41,208.48l3.92,2.22-13.49,7.64-13.49-7.64,3.6-2"/><polyline class="cls-2" points="480.36 237.76 480.36 274.95 649.75 274.95 649.75 154.95 480.36 154.95 480.36 188.97"/><path class="cls-7" d="M496.37,214.1v-8.28l-15.42,9v17.93l8.71-5"/><path class="cls-7" d="M465.42,214.76v-9L481,214.83v17.91l-9.15-5.21"/><path class="cls-7" d="M488,200.94l8.42,4.88-15.47,9-15.48-9.05,7.88-4.58"/><path class="cls-7" d="M469.08,221.17v7.92l7.3-4.19v-8Z"/><path class="cls-7" d="M469.08,221.2v7.89l-7.31-4.18v-8Z"/><path class="cls-7" d="M476.38,216.91l-7.3,4.27-7.31-4.29,7.28-4.24Z"/><path class="cls-7" d="M492.82,221.17v7.92l7.31-4.19v-8Z"/><path class="cls-7" d="M492.82,221.2v7.89l-7.3-4.18v-8Z"/><path class="cls-7" d="M500.13,216.91l-7.31,4.27-7.3-4.29,7.28-4.24Z"/><path class="cls-7" d="M480.65,201.69v7.92l7.3-4.19v-8Z"/><path class="cls-7" d="M480.65,201.71v7.9l-7.31-4.18v-8Z"/><path class="cls-7" d="M488,197.43l-7.31,4.26-7.3-4.28,7.28-4.24Z"/><path d="M585,217.94h-3.37l-.59,1.48h-.92l2.67-6.67h1l2.69,6.67h-.92Zm-3.14-.74h2.89l-1.44-3.71Z"/><path d="M587.17,218.84l2.65-3.59h-2.65v-.66h3.63v.57l-2.67,3.61h2.71v.65h-3.67Z"/><path d="M595.37,218.74a2.36,2.36,0,0,1-1.72.8,1.35,1.35,0,0,1-1.53-1.54v-3.41h.74v3.18c0,.85.43,1.1,1.08,1.1a1.85,1.85,0,0,0,1.43-.73v-3.55h.75v4.83h-.75Z"/><path d="M597.63,214.59h.74v.78a2.05,2.05,0,0,1,1.61-.88v.77a1.32,1.32,0,0,0-.3,0,1.77,1.77,0,0,0-1.31.77v3.42h-.74Z"/><path d="M603,214.47a2.35,2.35,0,0,1,2.32,2.59v.19h-3.9a1.69,1.69,0,0,0,1.73,1.67,2.11,2.11,0,0,0,1.49-.61l.36.49a2.62,2.62,0,0,1-1.92.74,2.54,2.54,0,0,1-.08-5.07Zm-1.58,2.23h3.16a1.57,1.57,0,0,0-1.59-1.61A1.6,1.6,0,0,0,601.44,216.7Z"/><path d="M584,228a3.18,3.18,0,0,1,2.59,1.25l-.66.41a2.46,2.46,0,0,0-1.93-.92,2.72,2.72,0,0,0,0,5.43,2.63,2.63,0,0,0,1.79-.72V232.1H583.5v-.74h3.12v2.41a3.47,3.47,0,0,1-2.62,1.15,3.46,3.46,0,0,1,0-6.91Z"/><path d="M587.67,232.37c-.18-3.29,5-3.29,4.77,0C592.62,235.67,587.49,235.67,587.67,232.37Zm4,0a1.62,1.62,0,1,0-3.21,0A1.62,1.62,0,1,0,591.65,232.37Z"/><path d="M593.39,232.37c-.18-3.29,5-3.29,4.77,0C598.34,235.67,593.21,235.67,593.39,232.37Zm4,0a1.62,1.62,0,1,0-3.21,0A1.62,1.62,0,1,0,597.37,232.37Z"/><path d="M599.75,235.47a1.84,1.84,0,0,0,1.57.66,1.38,1.38,0,0,0,1.55-1.45V234a2,2,0,0,1-1.62.86,2.2,2.2,0,0,1-2.15-2.5c0-1.55.88-2.51,2.15-2.51a2,2,0,0,1,1.62.85V230h.75v4.69c0,1.6-1.12,2.1-2.3,2.1a2.47,2.47,0,0,1-2-.72Zm3.12-4.18a1.78,1.78,0,0,0-1.44-.78c-1,0-1.55.77-1.55,1.84s.58,1.84,1.55,1.84a1.79,1.79,0,0,0,1.44-.79Z"/><path d="M605.13,228.12h.74v6.67h-.74Z"/><path d="M609.47,229.84a2.35,2.35,0,0,1,2.32,2.59v.19h-3.9a1.69,1.69,0,0,0,1.73,1.67,2.11,2.11,0,0,0,1.49-.61l.36.49a2.62,2.62,0,0,1-1.92.74,2.54,2.54,0,0,1-.08-5.07Zm-1.58,2.23h3.16a1.57,1.57,0,0,0-1.59-1.61A1.6,1.6,0,0,0,607.89,232.07Z"/><path d="M615.35,231.46a3.32,3.32,0,0,1,3.39-3.45,3,3,0,0,1,2.56,1.32l-.7.39a2.26,2.26,0,0,0-1.86-1,2.72,2.72,0,0,0,0,5.42,2.24,2.24,0,0,0,1.86-1l.71.39a3,3,0,0,1-2.57,1.32A3.32,3.32,0,0,1,615.35,231.46Z"/><path d="M622.35,228.12h.74v6.67h-.74Z"/><path d="M624.31,232.37c-.17-3.29,5-3.29,4.78,0C629.27,235.67,624.14,235.67,624.31,232.37Zm4,0a1.62,1.62,0,1,0-3.21,0A1.62,1.62,0,1,0,628.3,232.37Z"/><path d="M633.57,234.11a2.36,2.36,0,0,1-1.72.8,1.36,1.36,0,0,1-1.54-1.54V230h.75v3.18c0,.85.43,1.1,1.08,1.1a1.85,1.85,0,0,0,1.43-.73V230h.75v4.83h-.75Z"/><path d="M639.32,234.07a2,2,0,0,1-1.63.84c-1.26,0-2.15-1-2.15-2.53s.88-2.54,2.15-2.54a2,2,0,0,1,1.63.85v-2.57h.75v6.67h-.75Zm0-2.78a1.81,1.81,0,0,0-1.45-.78c-1,0-1.55.8-1.55,1.87s.58,1.86,1.55,1.86a1.8,1.8,0,0,0,1.45-.76Z"/><path d="M585,201.21h-3.37l-.59,1.48h-.92l2.67-6.67h1l2.69,6.67h-.92Zm-3.14-.74h2.89l-1.44-3.71Z"/><path d="M590.58,197.31l-1.47,5.38h-.89l-1.9-6.67h.92l1.48,5.56,1.52-5.56h.69l1.53,5.56,1.47-5.56h.92l-1.9,6.67h-.9Z"/><path d="M595.88,201.12a2.82,2.82,0,0,0,2.1.95c1.18,0,1.56-.64,1.56-1.15,0-.8-.81-1-1.69-1.26-1.06-.28-2.25-.58-2.25-1.89,0-1.1,1-1.84,2.28-1.84a3.17,3.17,0,0,1,2.37.92l-.5.61a2.55,2.55,0,0,0-1.93-.8c-.8,0-1.36.43-1.36,1.06s.77.87,1.61,1.1c1.09.29,2.33.63,2.33,2,0,1-.66,2-2.46,2a3.3,3.3,0,0,1-2.55-1.06Z"/><polyline class="cls-2" points="572.96 192.85 572.96 217.12 572.96 238.67"/><line class="cls-2" x1="560" y1="216.95" x2="573.04" y2="216.95"/><rect x="529.9" y="145.95" width="70.3" height="18"/><path class="cls-3" d="M541.42,153.29v.91a2,2,0,0,1-2.11,2h-.82v2.3h-1.55v-7.1h2.36A2,2,0,0,1,541.42,153.29Zm-1.55-.07a.44.44,0,0,0-.46-.47h-.92v2h.91a.44.44,0,0,0,.47-.48Z"/><path class="cls-3" d="M542.22,156.58v-5.23h1.55v5.25c0,.36.22.6.71.6s.73-.24.73-.6v-5.25h1.55v5.23a2.29,2.29,0,0,1-4.54,0Z"/><path class="cls-3" d="M552.19,156.07v.41a1.93,1.93,0,0,1-2,2h-2.45v-7.1H550a1.86,1.86,0,0,1,2,1.77v.51a1.51,1.51,0,0,1-.53,1.12A1.68,1.68,0,0,1,552.19,156.07Zm-2.93-3.37v1.48h.84c.23,0,.41-.22.41-.53v-.5a.43.43,0,0,0-.4-.45Zm1.38,3.35c0-.3-.16-.53-.41-.53h-1v1.58h1c.26,0,.42-.25.42-.55Z"/><path class="cls-3" d="M556.73,157.05v1.4H553v-7.1h1.55v5.7Z"/><path class="cls-3" d="M557.5,151.35h1.55v7.1H557.5Z"/><path class="cls-3" d="M560,156.58v-3.36a2.37,2.37,0,0,1,4.68,0v.89h-1.57v-.91c0-.36-.26-.6-.77-.6s-.8.24-.8.6v3.4c0,.36.27.6.79.6s.78-.24.78-.6v-.91h1.57v.89a2.37,2.37,0,0,1-4.68,0Z"/><path class="cls-3" d="M567.56,156.58v-3.36a2.37,2.37,0,0,1,4.69,0v.89h-1.57v-.91c0-.36-.26-.6-.77-.6s-.8.24-.8.6v3.4c0,.36.27.6.79.6s.78-.24.78-.6v-.91h1.57v.89a2.37,2.37,0,0,1-4.69,0Z"/><path class="cls-3" d="M576.84,157.05v1.4h-3.69v-7.1h1.55v5.7Z"/><path class="cls-3" d="M577.57,156.58v-3.36a2.38,2.38,0,0,1,4.71,0v3.36a2.38,2.38,0,0,1-4.71,0Zm3.16,0v-3.4c0-.36-.24-.6-.79-.6s-.82.24-.82.6v3.4c0,.36.24.6.81.6S580.73,157,580.73,156.6Z"/><path class="cls-3" d="M583.17,156.58v-5.23h1.55v5.25c0,.36.22.6.71.6s.73-.24.73-.6v-5.25h1.55v5.23a2.29,2.29,0,0,1-4.54,0Z"/><path class="cls-3" d="M593.23,153.37v3.06a2.05,2.05,0,0,1-2.27,2h-2.3v-7.1H591A2.06,2.06,0,0,1,593.23,153.37Zm-1.55,0a.57.57,0,0,0-.62-.6h-.85v4.3h.84a.57.57,0,0,0,.63-.6Z"/><g id="app-2" data-name="app"><rect class="cls-4" x="521.57" y="226.49" width="33.92" height="33.92" rx="7.23"/><path d="M532.89,244.66a2.65,2.65,0,0,1-2,.84,2,2,0,0,1-2.13-2,2,2,0,0,1,2.13-2,2.54,2.54,0,0,1,2,.83v-1.1c0-.81-.66-1.28-1.54-1.28a2.45,2.45,0,0,0-1.87.84l-.44-.65a3.21,3.21,0,0,1,2.44-1c1.29,0,2.36.58,2.36,2v4.18h-1Zm0-1.74a2,2,0,0,0-1.68-.75,1.34,1.34,0,1,0,0,2.65,2,2,0,0,0,1.68-.75Z"/><path d="M535.63,247.66v-8.38h1v.9a2.54,2.54,0,0,1,2.06-1.06c1.61,0,2.72,1.21,2.72,3.19s-1.11,3.19-2.72,3.19a2.51,2.51,0,0,1-2.06-1.07v3.23ZM538.4,240a2.29,2.29,0,0,0-1.82,1v2.75a2.3,2.3,0,0,0,1.82,1c1.23,0,2-1,2-2.35S539.63,240,538.4,240Z"/><path d="M542.79,247.66v-8.38h.94v.9a2.56,2.56,0,0,1,2.06-1.06c1.61,0,2.72,1.21,2.72,3.19s-1.11,3.19-2.72,3.19a2.52,2.52,0,0,1-2.06-1.07v3.23Zm2.76-7.69a2.29,2.29,0,0,0-1.82,1v2.75a2.3,2.3,0,0,0,1.82,1c1.23,0,2-1,2-2.35S546.78,240,545.55,240Z"/></g><path class="cls-2" d="M539.66,169.81a3,3,0,0,0-2.26,0l-12.28,5.91a3,3,0,0,0-1.41,1.77l-3,13.3a3,3,0,0,0,.51,2.21l8.49,10.65a3,3,0,0,0,2,1h13.62a3,3,0,0,0,2-1l8.5-10.65a3,3,0,0,0,.5-2.21l-3-13.29a3,3,0,0,0-1.41-1.76Z"/><line class="cls-5" x1="538.53" y1="185.38" x2="538.53" y2="175.28"/><line class="cls-5" x1="536.73" y1="186.5" x2="528.63" y2="180.05"/><line class="cls-5" x1="536.48" y1="188.41" x2="526.19" y2="190.76"/><line class="cls-5" x1="537.54" y1="190" x2="533.04" y2="199.35"/><line class="cls-5" x1="539.47" y1="189.9" x2="544.03" y2="199.35"/><line class="cls-5" x1="540.68" y1="188.43" x2="550.88" y2="190.76"/><line class="cls-5" x1="540.33" y1="186.5" x2="548.43" y2="180.05"/><circle class="cls-2" cx="538.53" cy="187.94" r="2.05"/><circle class="cls-2" cx="538.53" cy="187.94" r="10.45"/><polyline class="cls-1" points="488.75 238.13 488.75 248.27 516.76 248.27"/><polyline class="cls-1" points="488.75 190.58 488.75 179.62 516.76 179.62"/><path d="M266.21,292a2.81,2.81,0,0,0,2.1.94c1.19,0,1.57-.63,1.57-1.14,0-.8-.81-1-1.69-1.26-1.07-.28-2.26-.58-2.26-1.89,0-1.1,1-1.85,2.29-1.85a3.14,3.14,0,0,1,2.37.93l-.5.61a2.55,2.55,0,0,0-1.93-.8c-.8,0-1.37.43-1.37,1.06s.77.87,1.62,1.1c1.09.29,2.33.63,2.33,2,0,1-.66,1.95-2.46,1.95a3.27,3.27,0,0,1-2.56-1.06Z"/><path d="M274.05,288.58a2.35,2.35,0,0,1,2.32,2.59v.19h-3.91A1.7,1.7,0,0,0,274.2,293a2.15,2.15,0,0,0,1.49-.61l.36.48a2.62,2.62,0,0,1-1.92.74,2.39,2.39,0,0,1-2.46-2.53A2.42,2.42,0,0,1,274.05,288.58Zm-1.59,2.23h3.17A1.57,1.57,0,0,0,274,289.2,1.61,1.61,0,0,0,272.46,290.81Z"/><path d="M277.58,288.7h.75v.78a2.05,2.05,0,0,1,1.61-.88v.77a1.32,1.32,0,0,0-.3,0,1.77,1.77,0,0,0-1.31.77v3.41h-.75Z"/><path d="M280.16,288.7H281l1.61,3.95,1.6-3.95H285l-2,4.82h-.82Z"/><path d="M285.65,287.38a.51.51,0,0,1,1,0,.51.51,0,1,1-1,0Zm.13,1.32h.75v4.82h-.75Z"/><path d="M290.16,288.58a2.07,2.07,0,0,1,1.77.84l-.5.46a1.43,1.43,0,0,0-1.23-.63,1.87,1.87,0,0,0,0,3.72,1.45,1.45,0,0,0,1.23-.62l.5.45a2,2,0,0,1-1.77.84,2.53,2.53,0,0,1,0-5.06Z"/><path d="M295.08,288.58a2.35,2.35,0,0,1,2.32,2.59v.19h-3.91a1.7,1.7,0,0,0,1.74,1.67,2.15,2.15,0,0,0,1.49-.61l.36.48a2.62,2.62,0,0,1-1.92.74,2.39,2.39,0,0,1-2.46-2.53A2.42,2.42,0,0,1,295.08,288.58Zm-1.59,2.23h3.17a1.57,1.57,0,0,0-1.59-1.61A1.61,1.61,0,0,0,293.49,290.81Z"/><path d="M301.22,286.86h2.68a2,2,0,1,1,0,4h-1.85v2.64h-.83Zm2.58.74h-1.75v2.54h1.75a1.27,1.27,0,1,0,0-2.54Z"/><path d="M307.06,288.7h.75v.78a2.05,2.05,0,0,1,1.61-.88v.77a1.32,1.32,0,0,0-.3,0,1.77,1.77,0,0,0-1.31.77v3.41h-.75Z"/><path d="M310.08,291.11c-.18-3.3,4.95-3.3,4.78,0C315,294.41,309.91,294.41,310.08,291.11Zm4,0a1.62,1.62,0,1,0-3.21,0A1.62,1.62,0,1,0,314.07,291.11Z"/><path d="M315.36,288.7h.81l1.61,3.95,1.6-3.95h.82l-2,4.82h-.82Z"/><path d="M320.85,287.38a.51.51,0,0,1,1,0,.51.51,0,1,1-1,0Zm.13,1.32h.75v4.82H321Z"/><path d="M326.73,292.8a2,2,0,0,1-1.63.84c-1.26,0-2.15-.95-2.15-2.52s.88-2.54,2.15-2.54a2,2,0,0,1,1.63.85v-2.57h.75v6.66h-.75Zm0-2.77a1.81,1.81,0,0,0-1.45-.78c-1,0-1.55.8-1.55,1.87s.58,1.85,1.55,1.85a1.8,1.8,0,0,0,1.45-.76Z"/><path d="M331.08,288.58a2.35,2.35,0,0,1,2.32,2.59v.19h-3.91a1.7,1.7,0,0,0,1.74,1.67,2.15,2.15,0,0,0,1.49-.61l.36.48a2.62,2.62,0,0,1-1.92.74,2.39,2.39,0,0,1-2.46-2.53A2.42,2.42,0,0,1,331.08,288.58Zm-1.59,2.23h3.17a1.57,1.57,0,0,0-1.59-1.61A1.61,1.61,0,0,0,329.49,290.81Z"/><path d="M334.61,288.7h.75v.78a2.05,2.05,0,0,1,1.61-.88v.77a1.32,1.32,0,0,0-.3,0,1.77,1.77,0,0,0-1.31.77v3.41h-.75Z"/><path d="M341.35,288.15v5.37h-.83v-6.66h.85l3.84,5.26v-5.26H346v6.66h-.8Z"/><path d="M349.67,288.58a2.35,2.35,0,0,1,2.32,2.59v.19h-3.91a1.7,1.7,0,0,0,1.74,1.67,2.15,2.15,0,0,0,1.49-.61l.36.48a2.62,2.62,0,0,1-1.92.74,2.39,2.39,0,0,1-2.46-2.53A2.42,2.42,0,0,1,349.67,288.58Zm-1.59,2.23h3.17a1.57,1.57,0,0,0-1.59-1.61A1.61,1.61,0,0,0,348.08,290.81Z"/><path d="M353.35,292.52v-3.16h-.8v-.66h.8v-1.32h.75v1.32h1v.66h-1v3c0,.35.16.61.49.61a.77.77,0,0,0,.51-.19l.22.55a1.23,1.23,0,0,1-.9.31A1,1,0,0,1,353.35,292.52Z"/><path d="M359.06,289.65l-1.26,3.87h-.75l-1.54-4.82h.78l1.18,3.84,1.27-3.84h.64l1.26,3.84,1.18-3.84h.78l-1.54,4.82h-.74Z"/><path d="M363.2,291.11c-.18-3.3,4.95-3.3,4.78,0C368.15,294.41,363,294.41,363.2,291.11Zm4,0a1.62,1.62,0,1,0-3.21,0A1.62,1.62,0,1,0,367.19,291.11Z"/><path d="M369.2,288.7H370v.78a2.05,2.05,0,0,1,1.61-.88v.77a1.32,1.32,0,0,0-.3,0,1.77,1.77,0,0,0-1.31.77v3.41h-.75Z"/><path d="M374.05,291.36l-.8.78v1.38h-.75v-6.66h.75v4.41l2.54-2.57h.94l-2.13,2.19,2.14,2.63h-.95Z"/><path class="cls-7" d="M245.77,216.86v-8.29l-15.42,9V235.5l8.71-5"/><path class="cls-7" d="M214.83,217.52v-9l15.52,9.06V235.5l-9.15-5.21"/><path class="cls-7" d="M237.35,203.7l8.42,4.87-15.47,9-15.47-9.06L222.7,204"/><path class="cls-7" d="M218.48,223.93v7.92l7.31-4.19v-8Z"/><path class="cls-7" d="M218.48,224v7.9l-7.31-4.18v-8Z"/><path class="cls-7" d="M225.79,219.67l-7.31,4.26-7.31-4.28,7.29-4.24Z"/><path class="cls-7" d="M242.22,223.93v7.92l7.31-4.19v-8Z"/><path class="cls-7" d="M242.22,224v7.9l-7.3-4.18v-8Z"/><path class="cls-7" d="M249.53,219.67l-7.31,4.26-7.3-4.28,7.28-4.24Z"/><path class="cls-7" d="M230.05,204.45v7.92l7.3-4.19v-8Z"/><path class="cls-7" d="M230.05,204.47v7.9l-7.31-4.19v-8Z"/><path class="cls-7" d="M237.35,200.18l-7.3,4.27-7.31-4.28,7.28-4.24Z"/><path class="cls-7" d="M351.54,247.65v-8.29l-15.42,9v17.94l8.71-5"/><path class="cls-7" d="M320.6,248.31v-9l15.52,9.05v17.92L327,261.08"/><path class="cls-7" d="M343.12,234.48l8.42,4.88-15.47,9-15.47-9.05,7.87-4.57"/><path class="cls-7" d="M324.25,254.72v7.92l7.31-4.19v-8Z"/><path class="cls-7" d="M324.25,254.74v7.9l-7.31-4.18v-8Z"/><path class="cls-7" d="M331.56,250.45l-7.31,4.27-7.31-4.28,7.28-4.24Z"/><path class="cls-7" d="M348,254.72v7.92l7.31-4.19v-8Z"/><path class="cls-7" d="M348,254.74v7.9l-7.3-4.18v-8Z"/><path class="cls-7" d="M355.3,250.45,348,254.72l-7.3-4.28L348,246.2Z"/><path class="cls-7" d="M335.82,235.24v7.91l7.3-4.18v-8Z"/><path class="cls-7" d="M335.82,235.26v7.89L328.51,239v-8Z"/><path class="cls-7" d="M343.12,231l-7.3,4.27L328.51,231l7.28-4.24Z"/><g id="server-stack"><line class="cls-5" x1="423.1" y1="254.76" x2="423.1" y2="260.27"/><line class="cls-5" x1="417.55" y1="254.76" x2="417.55" y2="260.27"/><line class="cls-5" x1="412" y1="254.76" x2="412" y2="260.27"/><line class="cls-5" x1="423.1" y1="243.75" x2="423.1" y2="249.26"/><line class="cls-5" x1="417.55" y1="243.75" x2="417.55" y2="249.26"/><line class="cls-5" x1="412" y1="243.75" x2="412" y2="249.26"/><line class="cls-5" x1="423.1" y1="232.74" x2="423.1" y2="238.24"/><line class="cls-5" x1="417.55" y1="232.74" x2="417.55" y2="238.24"/><line class="cls-5" x1="412" y1="232.74" x2="412" y2="238.24"/><path d="M381.47,234.57a.92.92,0,1,1-.92.92.93.93,0,0,1,.92-.92m0-1a1.92,1.92,0,1,0,1.93,1.92,1.92,1.92,0,0,0-1.93-1.92Z"/><path d="M381.47,245.58a.92.92,0,1,1,0,1.84.92.92,0,0,1,0-1.84m0-1a1.92,1.92,0,1,0,1.93,1.92,1.92,1.92,0,0,0-1.93-1.92Z"/><path d="M381.47,256.6a.92.92,0,1,1-.92.91.92.92,0,0,1,.92-.91m0-1a1.92,1.92,0,1,0,1.93,1.91,1.92,1.92,0,0,0-1.93-1.91Z"/><path class="cls-2" d="M378.69,252.93h48.06a1.89,1.89,0,0,1,1.89,1.89v5.44a1.84,1.84,0,0,1-1.84,1.84H378.69a1.84,1.84,0,0,1-1.84-1.84v-5.49A1.84,1.84,0,0,1,378.69,252.93Z"/><rect class="cls-2" x="376.85" y="241.91" width="51.8" height="9.18" rx="1.84"/><rect class="cls-2" x="376.85" y="230.9" width="51.8" height="9.18" rx="1.84"/></g><g id="app-3" data-name="app"><rect class="cls-4" x="261.5" y="229.54" width="33.92" height="33.92" rx="7.23"/><path d="M272.82,247.71a2.65,2.65,0,0,1-2,.84,2,2,0,0,1-2.14-2,2,2,0,0,1,2.14-2,2.54,2.54,0,0,1,2,.83v-1.1c0-.81-.66-1.28-1.54-1.28a2.42,2.42,0,0,0-1.87.84l-.44-.65a3.19,3.19,0,0,1,2.44-1c1.28,0,2.36.58,2.36,2.05v4.18h-.95Zm0-1.74a2,2,0,0,0-1.68-.75,1.34,1.34,0,1,0,0,2.65,2,2,0,0,0,1.68-.76Z"/><path d="M275.56,250.71v-8.39h.95v.91a2.54,2.54,0,0,1,2.06-1.06c1.61,0,2.72,1.21,2.72,3.18s-1.11,3.2-2.72,3.2a2.51,2.51,0,0,1-2.06-1.07v3.23Zm2.77-7.69a2.29,2.29,0,0,0-1.82,1v2.74a2.28,2.28,0,0,0,1.82,1c1.23,0,2-1,2-2.36S279.56,243,278.33,243Z"/><path d="M282.72,250.71v-8.39h.94v.91a2.56,2.56,0,0,1,2.06-1.06c1.61,0,2.72,1.21,2.72,3.18s-1.11,3.2-2.72,3.2a2.52,2.52,0,0,1-2.06-1.07v3.23Zm2.76-7.69a2.29,2.29,0,0,0-1.82,1v2.74a2.28,2.28,0,0,0,1.82,1c1.23,0,2-1,2-2.36S286.71,243,285.48,243Z"/></g><path class="cls-7" d="M278.67,178.39v-4.12L271,178.74v8.93l4.33-2.48"/><path class="cls-7" d="M263.26,178.72v-4.47l7.73,4.5v8.92l-4.56-2.59"/><path class="cls-7" d="M274.47,171.84l4.2,2.43L271,178.75l-7.7-4.5,3.92-2.28"/><path class="cls-7" d="M265.08,181.91v3.94l3.64-2.08v-4Z"/><path class="cls-7" d="M265.08,181.92v3.93l-3.64-2.08v-4Z"/><path class="cls-7" d="M268.72,179.79l-3.64,2.12-3.64-2.13,3.63-2.11Z"/><path class="cls-7" d="M276.9,181.91v3.94l3.64-2.08v-4Z"/><path class="cls-7" d="M276.9,181.92v3.93l-3.64-2.08v-4Z"/><path class="cls-7" d="M280.54,179.79l-3.64,2.12-3.64-2.13,3.63-2.11Z"/><path class="cls-7" d="M270.84,172.21v3.95l3.63-2.09v-4Z"/><path class="cls-7" d="M270.84,172.23v3.93l-3.64-2.09v-4Z"/><path class="cls-7" d="M274.47,170.09l-3.63,2.13-3.64-2.14,3.62-2.11Z"/><path class="cls-8" d="M257.47,200.23l13.5,7.62V212l-13.5-7.62Z"/><path class="cls-8" d="M271,212l13.49-7.62v-4.16L271,207.85Z"/><path class="cls-8" d="M281.18,198.38l3.28,1.85L271,207.87l-13.5-7.64,3.2-1.81"/><path class="cls-8" d="M257.47,192.49l13.5,7.62v4l-13.5-7.49Z"/><path class="cls-8" d="M271,204.14l13.49-7.61v-4L271,200Z"/><path class="cls-8" d="M281.07,190.57l3.39,1.92L271,200.12l-13.5-7.63,3.39-1.92"/><path class="cls-8" d="M257.47,184.5l13.5,7.62v4.16l-8.86-5-1.25-.71-3.39-1.91Z"/><path class="cls-8" d="M271,196.28l9.22-5.21.88-.5,3.39-1.91V184.5L271,192.12Z"/><path class="cls-8" d="M280.54,182.28l3.92,2.22L271,192.13l-13.5-7.63,3.6-2"/><polyline class="cls-2" points="203.98 240.93 203.98 274.12 440.35 274.12 440.35 154.12 203.98 154.12 203.98 251.13"/><rect x="285.47" y="145.95" width="73.4" height="18"/><path class="cls-3" d="M296.33,153.29v.91a2,2,0,0,1-2.11,2h-.82v2.3h-1.55v-7.1h2.36A2,2,0,0,1,296.33,153.29Zm-1.55-.07a.44.44,0,0,0-.46-.47h-.92v2h.91a.44.44,0,0,0,.47-.48Z"/><path class="cls-3" d="M299.46,155.89h-.74v2.56h-1.55v-7.1h2.35a2,2,0,0,1,2.12,1.94V154a1.86,1.86,0,0,1-.71,1.5l.92,3h-1.62Zm-.74-1.4h.91a.44.44,0,0,0,.47-.47v-.8a.44.44,0,0,0-.46-.47h-.92Z"/><path class="cls-3" d="M302.7,151.35h1.55v7.1H302.7Z"/><path class="cls-3" d="M310,151.35l-1.5,7.1h-2l-1.49-7.1h1.55l1,4.87,1-4.87Z"/><path class="cls-3" d="M313.31,157.2h-1.45l-.29,1.25h-1.51l1.53-7.1h2l1.54,7.1H313.6Zm-.72-4-.45,2.56h.9Z"/><path class="cls-3" d="M319.67,152.75H318.2v5.7h-1.55v-5.7h-1.48v-1.4h4.5Z"/><path class="cls-3" d="M322,152.75v1.55h1.72v1.4H322v1.35h2.12v1.4h-3.67v-7.1h3.67v1.4Z"/><path class="cls-3" d="M326.87,156.58v-3.36a2.37,2.37,0,0,1,4.69,0v.89H330v-.91c0-.36-.26-.6-.77-.6s-.8.24-.8.6v3.4c0,.36.27.6.79.6s.78-.24.78-.6v-.91h1.57v.89a2.37,2.37,0,0,1-4.69,0Z"/><path class="cls-3" d="M336.15,157.05v1.4h-3.69v-7.1H334v5.7Z"/><path class="cls-3" d="M336.88,156.58v-3.36a2.38,2.38,0,0,1,4.71,0v3.36a2.38,2.38,0,0,1-4.71,0Zm3.16,0v-3.4c0-.36-.24-.6-.8-.6s-.81.24-.81.6v3.4c0,.36.24.6.8.6S340,157,340,156.6Z"/><path class="cls-3" d="M342.48,156.58v-5.23H344v5.25c0,.36.23.6.72.6s.73-.24.73-.6v-5.25H347v5.23a2.29,2.29,0,0,1-4.54,0Z"/><path class="cls-3" d="M352.54,153.37v3.06a2.05,2.05,0,0,1-2.27,2H348v-7.1h2.29A2.06,2.06,0,0,1,352.54,153.37Zm-1.55,0a.57.57,0,0,0-.62-.6h-.85v4.3h.84a.57.57,0,0,0,.63-.6Z"/><polyline class="cls-1" points="230.2 238.98 230.2 248.12 258.21 248.12"/><polyline class="cls-1" points="229.46 192.43 229.46 179.47 257.46 179.47"/><line class="cls-1" x1="299.26" y1="246.5" x2="316.51" y2="246.5"/><line class="cls-1" x1="355.55" y1="246.5" x2="372.81" y2="246.5"/><g id="factory"><path class="cls-5" d="M34.84,51.82H31.55V46.08l-7.9,5.61V46.15l-8.37,5.68V65.16H45S42.75,57.33,42.3,54.7C41.93,52.51,42,38.11,42,38.11H35.54S35.22,53,34.79,54.83s-3.36,10.09-3.36,10.09"/><rect class="cls-5" x="18.44" y="59.32" width="2.92" height="2.92"/><rect class="cls-5" x="23.18" y="59.32" width="2.92" height="2.92"/><rect class="cls-5" x="27.93" y="59.32" width="2.92" height="2.92"/><rect class="cls-5" x="18.44" y="54.51" width="2.92" height="2.92"/><rect class="cls-5" x="23.18" y="54.51" width="2.92" height="2.92"/><rect class="cls-5" x="27.93" y="54.51" width="2.92" height="2.92"/></g><path class="cls-5" d="M44.14,61.15a11.62,11.62,0,0,0,1-2.64c.2-1.64.16-8.82.16-8.82h6.19s0,9.2.15,10.29a8.69,8.69,0,0,0,3.33,5.18H44"/><line class="cls-2" x1="45.18" y1="52.4" x2="51.45" y2="52.4"/><path class="cls-2" d="M42.14,30.72a1.5,1.5,0,0,0-.37,0,2,2,0,0,0-3.49-.23,1.51,1.51,0,0,0-2.87.25,2.14,2.14,0,1,0,2,3.45,2.31,2.31,0,0,0,4.53.06h.24a1.79,1.79,0,0,0,0-3.58Z"/><line class="cls-5" x1="36.04" y1="41.11" x2="41.45" y2="41.11"/><line class="cls-5" x1="34.67" y1="83.81" x2="34.67" y2="111.43"/><polyline class="cls-5" points="38.55 91.01 28.49 98.97 42.39 104.56 24.54 111.98"/><g id="tower-network"><path class="cls-5" d="M44.81,112l-8-28.36a25.59,25.59,0,0,0-4.35,0l-8,28.36H44.81"/></g><path class="cls-5" d="M34.77,72.75c-.15.9.56,2.53-2.33,4.2-2,1.16-1.22,4.2.77,4.2,2.85,0,3.5-.23,4.18-1.15s1.27-4.09-.38-5.7A14.88,14.88,0,0,0,34.77,72.75Z"/><polyline class="cls-5" points="30.8 91.01 40.86 98.97 26.95 104.56 44.81 111.98"/></g></g></svg>