<svg id="detective" xmlns="http://www.w3.org/2000/svg" viewBox="0 0 79.98 92"><defs><style>.cls-1{fill:#d73291;}</style></defs><title>icon_detective</title><path class="cls-1" d="M75.85,49.7a15.31,15.31,0,1,0,0,21.65A15.32,15.32,0,0,0,75.85,49.7ZM74.44,69.94a13.31,13.31,0,1,1,0-18.82A13.34,13.34,0,0,1,74.44,69.94Z" transform="translate(-33.01 -22.5)"/><path class="cls-1" d="M57.77,53.27a10.87,10.87,0,0,0-2.72,4.5l2.86.89a8,8,0,0,1,5.8-5.4L63,50.34A10.93,10.93,0,0,0,57.77,53.27Z" transform="translate(-33.01 -22.5)"/><path class="cls-1" d="M73,22.5l-40,23v46l40,23,40-23v-46ZM97.76,93.26a4,4,0,0,1-5.69,0L78.55,79.74,80.27,78l-3.71-3.71a18,18,0,1,1,2.25-2.25l3.71,3.71,1.72-1.72L97.76,87.57A4,4,0,0,1,97.76,93.26Z" transform="translate(-33.01 -22.5)"/></svg>