<svg xmlns="http://www.w3.org/2000/svg" viewBox="0 0 850 400"><defs><style>.cls-1,.cls-6{fill:#fff;}.cls-10,.cls-11,.cls-12,.cls-2,.cls-3,.cls-4,.cls-7,.cls-8{fill:none;}.cls-2{stroke:#2bae4a;}.cls-12,.cls-2,.cls-3,.cls-4,.cls-5,.cls-6,.cls-7{stroke-miterlimit:10;}.cls-11,.cls-3,.cls-4,.cls-5,.cls-6,.cls-8{stroke:#000;}.cls-10,.cls-11,.cls-3,.cls-6,.cls-7,.cls-8{stroke-linecap:round;}.cls-5{stroke-width:0.5px;}.cls-7{stroke:#343434;}.cls-10,.cls-11,.cls-8{stroke-linejoin:round;}.cls-9{fill:#010101;}.cls-10,.cls-12{stroke:#010101;}.cls-13{font-size:11px;font-family:ProximaNova-Regular, Proxima Nova;letter-spacing:-0.01em;}</style></defs><g id="Layer_2" data-name="Layer 2"><g id="Layer_1-2" data-name="Layer 1"><rect class="cls-1" width="850" height="400"/><line class="cls-2" x1="717" y1="291.56" x2="730.5" y2="291.56"/><line class="cls-2" x1="717" y1="165.54" x2="730.5" y2="165.54"/><rect class="cls-3" x="22.18" y="72.04" width="295.31" height="301.16"/><rect class="cls-3" x="365.52" y="74.04" width="462.31" height="301.16"/><line class="cls-2" x1="172.19" y1="268.55" x2="172.19" y2="313.66"/><polyline class="cls-2" points="127.53 313.72 127.53 291.84 219.13 291.84 219.13 313.73"/><rect class="cls-4" x="199.98" y="314.11" width="37" height="37" rx="6.26"/><g id="Group_13232-2" data-name="Group 13232-2"><path id="Path_61042" data-name="Path 61042" class="cls-5" d="M212.41,334a3.05,3.05,0,0,1-2.43,1,2.35,2.35,0,0,1-.24-4.69,1,1,0,0,1,.24,0,3.08,3.08,0,0,1,2.43,1v-1.59a1.78,1.78,0,0,0-1.8-1.76h-.19a2.76,2.76,0,0,0-2.26,1.12l-.28-.28a3,3,0,0,1,2.58-1.19c1.39,0,2.42.71,2.42,2.1v5.09h-.43V334Zm0-2.18a2.85,2.85,0,0,0-2.31-1.07,2,2,0,0,0-2.1,1.82v.13a1.94,1.94,0,0,0,1.93,1.95h.17a2.8,2.8,0,0,0,2.31-1.08Z"/><path id="Path_61043" data-name="Path 61043" class="cls-5" d="M215.23,337.53v-9.69h.43V329a3.14,3.14,0,0,1,2.54-1.34c1.91,0,3.14,1.47,3.14,3.65s-1.23,3.7-3.14,3.7a3.17,3.17,0,0,1-2.54-1.4v3.9Zm3-9.45a3.07,3.07,0,0,0-2.54,1.39v3.78a3.08,3.08,0,0,0,2.54,1.43c1.71,0,2.66-1.47,2.66-3.3S219.91,328.08,218.2,328.08Z"/><path id="Path_61044" data-name="Path 61044" class="cls-5" d="M223.33,337.53v-9.69h.44V329a3.13,3.13,0,0,1,2.54-1.34c1.9,0,3.13,1.47,3.13,3.65s-1.23,3.7-3.13,3.7a3.19,3.19,0,0,1-2.55-1.4v3.9Zm3-9.45a3.09,3.09,0,0,0-2.55,1.39v3.78a3.09,3.09,0,0,0,2.55,1.43c1.7,0,2.66-1.47,2.66-3.3S228,328.08,226.31,328.08Z"/></g><rect class="cls-4" x="154.96" y="314.11" width="37" height="37" rx="6.26"/><g id="Group_13232-2-2" data-name="Group 13232-2"><path id="Path_61042-2" data-name="Path 61042" class="cls-5" d="M167.39,334a3,3,0,0,1-2.43,1,2.35,2.35,0,0,1-.24-4.69,1,1,0,0,1,.24,0,3.06,3.06,0,0,1,2.43,1v-1.59a1.78,1.78,0,0,0-1.8-1.76h-.19a2.76,2.76,0,0,0-2.26,1.12l-.28-.28a3,3,0,0,1,2.58-1.19c1.39,0,2.42.71,2.42,2.1v5.09h-.43V334Zm0-2.18a2.83,2.83,0,0,0-2.31-1.07,2,2,0,0,0-2.1,1.82v.13a1.94,1.94,0,0,0,1.93,1.95h.17a2.8,2.8,0,0,0,2.31-1.08Z"/><path id="Path_61043-2" data-name="Path 61043" class="cls-5" d="M170.21,337.53v-9.69h.43V329a3.14,3.14,0,0,1,2.54-1.34c1.91,0,3.14,1.47,3.14,3.65s-1.23,3.7-3.14,3.7a3.17,3.17,0,0,1-2.54-1.4v3.9Zm3-9.45a3.07,3.07,0,0,0-2.54,1.39v3.78a3.08,3.08,0,0,0,2.54,1.43c1.71,0,2.66-1.47,2.66-3.3S174.89,328.08,173.18,328.08Z"/><path id="Path_61044-2" data-name="Path 61044" class="cls-5" d="M178.31,337.53v-9.69h.44V329a3.13,3.13,0,0,1,2.54-1.34c1.9,0,3.13,1.47,3.13,3.65s-1.23,3.7-3.13,3.7a3.19,3.19,0,0,1-2.55-1.4v3.9Zm3-9.45a3.09,3.09,0,0,0-2.55,1.39v3.78a3.09,3.09,0,0,0,2.55,1.43c1.7,0,2.66-1.47,2.66-3.3S183,328.08,181.29,328.08Z"/></g><rect class="cls-4" x="109.94" y="314.11" width="37" height="37" rx="6.26"/><g id="Group_13232-2-3" data-name="Group 13232-2"><path id="Path_61042-3" data-name="Path 61042" class="cls-5" d="M122.37,334a3,3,0,0,1-2.43,1,2.35,2.35,0,0,1-.24-4.69,1,1,0,0,1,.24,0,3.06,3.06,0,0,1,2.43,1v-1.59a1.78,1.78,0,0,0-1.8-1.76h-.19a2.76,2.76,0,0,0-2.26,1.12l-.28-.28a3,3,0,0,1,2.58-1.19c1.39,0,2.42.71,2.42,2.1v5.09h-.43V334Zm0-2.18a2.83,2.83,0,0,0-2.31-1.07,2,2,0,0,0-2.1,1.82v.13a1.94,1.94,0,0,0,1.93,1.95h.17a2.8,2.8,0,0,0,2.31-1.08Z"/><path id="Path_61043-3" data-name="Path 61043" class="cls-5" d="M125.19,337.53v-9.69h.43V329a3.14,3.14,0,0,1,2.54-1.34c1.91,0,3.14,1.47,3.14,3.65s-1.23,3.7-3.14,3.7a3.17,3.17,0,0,1-2.54-1.4v3.9Zm3-9.45a3.07,3.07,0,0,0-2.54,1.39v3.78a3.08,3.08,0,0,0,2.54,1.43c1.71,0,2.66-1.47,2.66-3.3S129.87,328.08,128.16,328.08Z"/><path id="Path_61044-3" data-name="Path 61044" class="cls-5" d="M133.29,337.53v-9.69h.44V329a3.13,3.13,0,0,1,2.54-1.34c1.9,0,3.13,1.47,3.13,3.65s-1.23,3.7-3.13,3.7a3.19,3.19,0,0,1-2.55-1.4v3.9Zm3-9.45a3.09,3.09,0,0,0-2.55,1.39v3.78a3.09,3.09,0,0,0,2.55,1.43c1.7,0,2.66-1.47,2.66-3.3S138,328.08,136.27,328.08Z"/></g><line class="cls-2" x1="457.79" y1="268.55" x2="457.79" y2="313.66"/><polyline class="cls-2" points="413.13 313.72 413.13 291.84 504.74 291.84 504.74 313.73"/><rect class="cls-4" x="485.58" y="314.11" width="37" height="37" rx="6.26"/><g id="Group_13232-2-4" data-name="Group 13232-2"><path id="Path_61042-4" data-name="Path 61042" class="cls-5" d="M498,334a3,3,0,0,1-2.42,1,2.35,2.35,0,1,1-.24-4.69,1,1,0,0,1,.24,0,3.06,3.06,0,0,1,2.42,1v-1.59a1.78,1.78,0,0,0-1.8-1.76H496a2.76,2.76,0,0,0-2.26,1.12l-.28-.28a3,3,0,0,1,2.58-1.19c1.39,0,2.42.71,2.42,2.1v5.09h-.43V334Zm0-2.18a2.83,2.83,0,0,0-2.31-1.07,2,2,0,0,0-2.1,1.82v.13a1.94,1.94,0,0,0,1.93,1.95h.17a2.8,2.8,0,0,0,2.31-1.08Z"/><path id="Path_61043-4" data-name="Path 61043" class="cls-5" d="M500.83,337.53v-9.69h.43V329a3.15,3.15,0,0,1,2.55-1.34c1.9,0,3.13,1.47,3.13,3.65s-1.23,3.7-3.13,3.7a3.18,3.18,0,0,1-2.55-1.4v3.9Zm3-9.45a3.08,3.08,0,0,0-2.55,1.39v3.78a3.09,3.09,0,0,0,2.55,1.43c1.7,0,2.66-1.47,2.66-3.3S505.52,328.08,503.81,328.08Z"/><path id="Path_61044-4" data-name="Path 61044" class="cls-5" d="M508.93,337.53v-9.69h.44V329a3.13,3.13,0,0,1,2.54-1.34c1.91,0,3.14,1.47,3.14,3.65s-1.23,3.7-3.14,3.7a3.17,3.17,0,0,1-2.54-1.4v3.9Zm3-9.45a3.06,3.06,0,0,0-2.54,1.39v3.78a3.07,3.07,0,0,0,2.54,1.43c1.71,0,2.66-1.47,2.66-3.3S513.62,328.08,511.91,328.08Z"/></g><rect class="cls-4" x="440.56" y="314.11" width="37" height="37" rx="6.26"/><g id="Group_13232-2-5" data-name="Group 13232-2"><path id="Path_61042-5" data-name="Path 61042" class="cls-5" d="M453,334a3,3,0,0,1-2.42,1,2.35,2.35,0,1,1-.24-4.69,1,1,0,0,1,.24,0,3.06,3.06,0,0,1,2.42,1v-1.59a1.78,1.78,0,0,0-1.8-1.76H451a2.76,2.76,0,0,0-2.26,1.12l-.28-.28a3,3,0,0,1,2.58-1.19c1.39,0,2.42.71,2.42,2.1v5.09H453V334Zm0-2.18a2.83,2.83,0,0,0-2.31-1.07,2,2,0,0,0-2.1,1.82v.13a1.94,1.94,0,0,0,1.93,1.95h.17a2.8,2.8,0,0,0,2.31-1.08Z"/><path id="Path_61043-5" data-name="Path 61043" class="cls-5" d="M455.81,337.53v-9.69h.43V329a3.15,3.15,0,0,1,2.55-1.34c1.9,0,3.13,1.47,3.13,3.65s-1.23,3.7-3.13,3.7a3.18,3.18,0,0,1-2.55-1.4v3.9Zm3-9.45a3.08,3.08,0,0,0-2.55,1.39v3.78a3.09,3.09,0,0,0,2.55,1.43c1.7,0,2.66-1.47,2.66-3.3S460.5,328.08,458.79,328.08Z"/><path id="Path_61044-5" data-name="Path 61044" class="cls-5" d="M463.91,337.53v-9.69h.44V329a3.13,3.13,0,0,1,2.54-1.34c1.91,0,3.14,1.47,3.14,3.65s-1.23,3.7-3.14,3.7a3.17,3.17,0,0,1-2.54-1.4v3.9Zm3-9.45a3.06,3.06,0,0,0-2.54,1.39v3.78a3.07,3.07,0,0,0,2.54,1.43c1.71,0,2.66-1.47,2.66-3.3S468.6,328.08,466.89,328.08Z"/></g><rect class="cls-4" x="395.54" y="314.11" width="37" height="37" rx="6.26"/><g id="Group_13232-2-6" data-name="Group 13232-2"><path id="Path_61042-6" data-name="Path 61042" class="cls-5" d="M408,334a3,3,0,0,1-2.42,1,2.35,2.35,0,1,1-.24-4.69,1,1,0,0,1,.24,0,3.06,3.06,0,0,1,2.42,1v-1.59a1.78,1.78,0,0,0-1.8-1.76H406a2.76,2.76,0,0,0-2.26,1.12l-.28-.28a3,3,0,0,1,2.58-1.19c1.39,0,2.43.71,2.43,2.1v5.09H408V334Zm0-2.18a2.83,2.83,0,0,0-2.31-1.07,2,2,0,0,0-2.1,1.82v.13a1.94,1.94,0,0,0,1.93,1.95h.17a2.8,2.8,0,0,0,2.31-1.08Z"/><path id="Path_61043-6" data-name="Path 61043" class="cls-5" d="M410.79,337.53v-9.69h.44V329a3.11,3.11,0,0,1,2.54-1.34c1.9,0,3.13,1.47,3.13,3.65s-1.23,3.7-3.13,3.7a3.18,3.18,0,0,1-2.55-1.4v3.9Zm3-9.45a3.09,3.09,0,0,0-2.55,1.39v3.78a3.09,3.09,0,0,0,2.55,1.43c1.7,0,2.66-1.47,2.66-3.3S415.48,328.08,413.77,328.08Z"/><path id="Path_61044-6" data-name="Path 61044" class="cls-5" d="M418.89,337.53v-9.69h.44V329a3.13,3.13,0,0,1,2.54-1.34c1.91,0,3.14,1.47,3.14,3.65s-1.23,3.7-3.14,3.7a3.17,3.17,0,0,1-2.54-1.4v3.9Zm3-9.45a3.06,3.06,0,0,0-2.54,1.39v3.78a3.07,3.07,0,0,0,2.54,1.43c1.71,0,2.66-1.47,2.66-3.3S423.58,328.08,421.87,328.08Z"/></g><rect class="cls-6" x="37.06" y="172.89" width="524.72" height="105.98"/><line class="cls-2" x1="173.38" y1="154.97" x2="173.38" y2="174.05"/><line class="cls-2" x1="441.27" y1="154.97" x2="441.27" y2="174.05"/><line class="cls-2" x1="519.45" y1="154.97" x2="519.45" y2="174.05"/><line class="cls-2" x1="613.87" y1="155.94" x2="613.87" y2="173.05"/><line class="cls-7" x1="719.59" y1="349.95" x2="678.7" y2="349.95"/><line class="cls-7" x1="699.14" y1="344.26" x2="699.14" y2="349.95"/><path d="M674.92,356.51h1v4.67h-1Z"/><path d="M679.3,359.14c0-.47-.24-.63-.62-.63a1,1,0,0,0-.77.4v2.27H677V357.8h.89v.44a1.55,1.55,0,0,1,1.18-.52,1,1,0,0,1,1.1,1.08v2.38h-.89Z"/><path d="M681.59,361.41a1.35,1.35,0,0,0,1.06.42.83.83,0,0,0,.93-.86v-.34a1.31,1.31,0,0,1-1,.53,1.74,1.74,0,0,1,0-3.44,1.28,1.28,0,0,1,1,.52v-.44h.9V361c0,1.29-1,1.61-1.83,1.61a2,2,0,0,1-1.46-.51Zm2-2.52a1,1,0,0,0-.76-.38.93.93,0,0,0,0,1.86,1,1,0,0,0,.76-.38Z"/><path d="M685.53,357.8h.89v.46a1.46,1.46,0,0,1,1.08-.54v.87l-.25,0a1.12,1.12,0,0,0-.83.38v2.23h-.89Z"/><path d="M689.75,357.72a1.69,1.69,0,0,1,1.69,1.86v.2h-2.51a.92.92,0,0,0,1,.78,1.39,1.39,0,0,0,.91-.33l.39.57a2.11,2.11,0,0,1-1.39.47,1.78,1.78,0,1,1-.06-3.55Zm-.83,1.46h1.66a.77.77,0,0,0-.83-.75A.81.81,0,0,0,688.92,359.18Z"/><path d="M692.36,360.12a1.93,1.93,0,0,0,1.17.46c.38,0,.57-.13.57-.34s-.3-.32-.68-.4c-.58-.11-1.33-.25-1.33-1.06,0-.56.49-1.06,1.38-1.06a2.15,2.15,0,0,1,1.37.46l-.36.61a1.41,1.41,0,0,0-1-.39c-.32,0-.53.12-.53.31s.26.29.64.37c.58.11,1.36.26,1.36,1.1,0,.62-.53,1.09-1.46,1.09a2.3,2.3,0,0,1-1.52-.53Z"/><path d="M695.89,360.12a2,2,0,0,0,1.17.46c.39,0,.57-.13.57-.34s-.3-.32-.68-.4c-.58-.11-1.33-.25-1.33-1.06,0-.56.5-1.06,1.39-1.06a2.14,2.14,0,0,1,1.36.46l-.36.61a1.41,1.41,0,0,0-1-.39c-.32,0-.53.12-.53.31s.27.29.64.37c.59.11,1.36.26,1.36,1.1,0,.62-.52,1.09-1.46,1.09a2.25,2.25,0,0,1-1.51-.53Z"/><path d="M700.87,358.85a2.36,2.36,0,0,1,2.45-2.41,2.16,2.16,0,0,1,2,1.14l-.86.42a1.26,1.26,0,0,0-1.13-.68,1.54,1.54,0,0,0,0,3.07,1.26,1.26,0,0,0,1.13-.68l.86.41a2.18,2.18,0,0,1-2,1.15A2.36,2.36,0,0,1,700.87,358.85Z"/><path d="M705.89,359.49c-.15-2.3,3.72-2.3,3.57,0C709.61,361.8,705.74,361.8,705.89,359.49Zm2.65,0a.87.87,0,1,0-1.73,0A.87.87,0,1,0,708.54,359.49Z"/><path d="M712.6,359.14a.55.55,0,0,0-.63-.63,1,1,0,0,0-.77.4v2.27h-.89V357.8h.89v.44a1.55,1.55,0,0,1,1.19-.52,1,1,0,0,1,1.1,1.08v2.38h-.89Z"/><path d="M714.72,360.35v-1.77h-.56v-.78h.56v-.92h.9v.92h.68v.78h-.68v1.53c0,.21.11.37.31.37a.46.46,0,0,0,.3-.1l.19.67a1.08,1.08,0,0,1-.74.22A.85.85,0,0,1,714.72,360.35Z"/><path d="M717.15,357.8H718v.46a1.46,1.46,0,0,1,1.08-.54v.87l-.24,0a1.13,1.13,0,0,0-.84.38v2.23h-.88Z"/><path d="M719.62,359.49c-.14-2.3,3.72-2.3,3.58,0C723.34,361.8,719.48,361.8,719.62,359.49Zm2.65,0a.87.87,0,1,0-1.73,0A.87.87,0,1,0,722.27,359.49Z"/><path d="M724,356.51h.89v4.67H724Z"/><g id="Group_11423" data-name="Group 11423"><path id="Path_60436" data-name="Path 60436" class="cls-8" d="M330.07,35.43h-2.38a6.42,6.42,0,0,0-6.46,6.39v6.06"/><ellipse id="Ellipse_32" data-name="Ellipse 32" class="cls-8" cx="330.03" cy="30.11" rx="5.31" ry="5.32"/><path id="Path_60437" data-name="Path 60437" class="cls-8" d="M351.38,35.43h2.39a6.43,6.43,0,0,1,6.46,6.39v6.06"/><ellipse id="Ellipse_33" data-name="Ellipse 33" class="cls-8" cx="351.43" cy="30.11" rx="5.31" ry="5.32"/><path id="Path_60438" data-name="Path 60438" class="cls-8" d="M341,47.84H338a7.87,7.87,0,0,0-7.92,7.82v8.13"/><path id="Path_60439" data-name="Path 60439" class="cls-8" d="M341.22,47.84h2.92a7.87,7.87,0,0,1,7.92,7.82v8.13"/><ellipse id="Ellipse_34" data-name="Ellipse 34" class="cls-8" cx="340.69" cy="40.75" rx="7.08" ry="7.09"/></g><rect class="cls-9" x="74.15" y="63.04" width="194.16" height="18"/><path class="cls-1" d="M89.1,73.67V70.32a2.38,2.38,0,0,1,4.71,0v3.35a2.38,2.38,0,0,1-4.71,0Zm3.16,0V70.3c0-.36-.24-.6-.8-.6s-.82.24-.82.6v3.39c0,.36.24.6.81.6S92.26,74.05,92.26,73.69Z"/><path class="cls-1" d="M99.3,68.45v7.09H97.94l-1.84-4v4H94.75V68.45H96.1l1.84,4v-4Z"/><path class="cls-1" d="M100.23,71.64h2.36v1.3h-2.36Z"/><path class="cls-1" d="M108,70.39v.91a1.94,1.94,0,0,1-2.11,1.94h-.82v2.3h-1.54V68.45h2.35A2,2,0,0,1,108,70.39Zm-1.55-.07a.44.44,0,0,0-.46-.47h-.92v2H106a.44.44,0,0,0,.47-.48Z"/><path class="cls-1" d="M111.12,73h-.74v2.56h-1.55V68.45h2.36a2,2,0,0,1,2.12,1.94v.66a1.84,1.84,0,0,1-.71,1.49l.92,3H111.9Zm-.74-1.4h.91a.43.43,0,0,0,.47-.46v-.8a.43.43,0,0,0-.46-.47h-.92Z"/><path class="cls-1" d="M115.91,69.85v1.54h1.72v1.4h-1.72v1.35H118v1.4h-3.67V68.45H118v1.4Z"/><path class="cls-1" d="M124.65,75.54h-1.33V71l-1,4.56h-1.11l-1-4.6v4.6h-1.32V68.45h1.84l1.05,4,1-4h1.85Z"/><path class="cls-1" d="M125.65,68.45h1.55v7.09h-1.55Z"/><path class="cls-1" d="M128.06,73.44v-.28h1.55v.44a.74.74,0,0,0,.83.73.68.68,0,0,0,.72-.69c0-1.27-3-1-3-3.26a2,2,0,0,1,2.22-2.08,1.94,1.94,0,0,1,2.21,2v.44h-1.55v-.54c0-.31-.3-.49-.67-.49a.59.59,0,0,0-.65.6c0,1,3,.79,3,3.2a2.1,2.1,0,0,1-2.31,2.19A2.15,2.15,0,0,1,128.06,73.44Z"/><path class="cls-1" d="M135.15,69.85v1.54h1.72v1.4h-1.72v1.35h2.12v1.4H133.6V68.45h3.67v1.4Z"/><path class="cls-1" d="M138,73.44v-.28h1.55v.44a.74.74,0,0,0,.83.73.68.68,0,0,0,.72-.69c0-1.27-3-1-3-3.26a2,2,0,0,1,2.22-2.08,1.94,1.94,0,0,1,2.21,2v.44H141v-.54c0-.31-.3-.49-.67-.49a.59.59,0,0,0-.65.6c0,1,3,.79,3,3.2a2.1,2.1,0,0,1-2.31,2.19A2.15,2.15,0,0,1,138,73.44Z"/><path class="cls-1" d="M146.14,68.1,144.73,76h-1.45l1.4-7.94Z"/><path class="cls-1" d="M146.76,73.67V70.32a2.37,2.37,0,0,1,4.69,0v.89h-1.57V70.3c0-.36-.26-.6-.77-.6s-.8.24-.8.6v3.39c0,.36.27.6.79.6s.78-.24.78-.6v-.91h1.57v.89a2.37,2.37,0,0,1-4.69,0Z"/><path class="cls-1" d="M152.31,73.67V70.32a2.39,2.39,0,0,1,4.72,0v3.35a2.39,2.39,0,0,1-4.72,0Zm3.17,0V70.3c0-.36-.24-.6-.8-.6s-.82.24-.82.6v3.39c0,.36.24.6.81.6S155.48,74.05,155.48,73.69Z"/><path class="cls-1" d="M161.65,74.14v1.4H158V68.45h1.55v5.69Z"/><path class="cls-1" d="M162.38,73.67V70.32a2.39,2.39,0,0,1,4.72,0v3.35a2.39,2.39,0,0,1-4.72,0Zm3.17,0V70.3c0-.36-.24-.6-.8-.6s-.82.24-.82.6v3.39c0,.36.24.6.81.6S165.55,74.05,165.55,73.69Z"/><path class="cls-1" d="M168,73.67V70.32a2.37,2.37,0,0,1,4.69,0v.89h-1.57V70.3c0-.36-.26-.6-.77-.6s-.8.24-.8.6v3.39c0,.36.27.6.79.6s.78-.24.78-.6v-.91h1.57v.89a2.37,2.37,0,0,1-4.69,0Z"/><path class="cls-1" d="M176.51,74.29h-1.44l-.29,1.25h-1.51l1.53-7.09h2l1.54,7.09H176.8Zm-.71-4-.45,2.55h.9Z"/><path class="cls-1" d="M182.87,69.85H181.4v5.69h-1.55V69.85h-1.48v-1.4h4.5Z"/><path class="cls-1" d="M185.18,69.85v1.54h1.72v1.4h-1.72v1.35h2.12v1.4h-3.67V68.45h3.67v1.4Z"/><path class="cls-1" d="M192.7,70.47v3a2.05,2.05,0,0,1-2.27,2h-2.3V68.45h2.29A2.06,2.06,0,0,1,192.7,70.47Zm-1.55,0a.57.57,0,0,0-.62-.6h-.85v4.29h.84a.57.57,0,0,0,.63-.6Z"/><path class="cls-1" d="M200.24,70.47v3a2.05,2.05,0,0,1-2.27,2h-2.3V68.45H198A2.06,2.06,0,0,1,200.24,70.47Zm-1.55,0a.57.57,0,0,0-.62-.6h-.85v4.29h.84a.57.57,0,0,0,.63-.6Z"/><path class="cls-1" d="M204.09,74.29h-1.45l-.29,1.25h-1.51l1.53-7.09h2l1.53,7.09h-1.53Zm-.72-4-.45,2.55h.9Z"/><path class="cls-1" d="M210.44,69.85H209v5.69h-1.55V69.85h-1.48v-1.4h4.5Z"/><path class="cls-1" d="M213.74,74.29h-1.45L212,75.54h-1.51L212,68.45h2l1.54,7.09H214Zm-.72-4-.45,2.55h.9Z"/><path class="cls-1" d="M218.27,73.67V70.32a2.37,2.37,0,0,1,4.69,0v.89h-1.57V70.3c0-.36-.26-.6-.77-.6s-.8.24-.8.6v3.39c0,.36.27.6.79.6s.78-.24.78-.6v-.91H223v.89a2.37,2.37,0,0,1-4.69,0Z"/><path class="cls-1" d="M225.41,69.85v1.54h1.71v1.4h-1.71v1.35h2.11v1.4h-3.66V68.45h3.66v1.4Z"/><path class="cls-1" d="M232.91,68.45v7.09h-1.36l-1.85-4v4h-1.35V68.45h1.35l1.85,4v-4Z"/><path class="cls-1" d="M238.16,69.85h-1.47v5.69h-1.55V69.85h-1.48v-1.4h4.5Z"/><path class="cls-1" d="M240.47,69.85v1.54h1.72v1.4h-1.72v1.35h2.12v1.4h-3.67V68.45h3.67v1.4Z"/><path class="cls-1" d="M245.71,73H245v2.56h-1.55V68.45h2.36a1.94,1.94,0,0,1,2.11,1.94v.66a1.84,1.84,0,0,1-.71,1.49l.92,3h-1.61Zm-.74-1.4h.91a.43.43,0,0,0,.47-.46v-.8a.43.43,0,0,0-.46-.47H245Z"/><path class="cls-1" d="M248.73,73.44v-.28h1.55v.44a.74.74,0,0,0,.83.73.68.68,0,0,0,.72-.69c0-1.27-3-1-3-3.26a2,2,0,0,1,2.22-2.08,1.94,1.94,0,0,1,2.21,2v.44h-1.55v-.54c0-.31-.3-.49-.67-.49a.59.59,0,0,0-.65.6c0,1,3,.79,3,3.2a2.1,2.1,0,0,1-2.31,2.19A2.15,2.15,0,0,1,248.73,73.44Z"/><rect class="cls-9" x="526.78" y="63.04" width="138.39" height="18"/><path class="cls-1" d="M551.38,70.39v.91a1.94,1.94,0,0,1-2.11,1.94h-.82v2.3H546.9V68.45h2.36A2,2,0,0,1,551.38,70.39Zm-1.55-.07a.44.44,0,0,0-.46-.47h-.92v2h.91a.44.44,0,0,0,.47-.48Z"/><path class="cls-1" d="M552.18,73.67V68.45h1.55v5.24c0,.36.23.6.72.6s.73-.24.73-.6V68.45h1.55v5.22a2.29,2.29,0,0,1-4.55,0Z"/><path class="cls-1" d="M562.16,73.16v.41a1.93,1.93,0,0,1-2,2h-2.45V68.45H560a1.86,1.86,0,0,1,2,1.77v.51a1.53,1.53,0,0,1-.53,1.12A1.64,1.64,0,0,1,562.16,73.16Zm-2.93-3.36v1.48h.84c.23,0,.41-.22.41-.53v-.5a.43.43,0,0,0-.4-.45Zm1.38,3.34c0-.3-.16-.53-.41-.53h-1v1.58h1c.26,0,.42-.25.42-.55Z"/><path class="cls-1" d="M566.69,74.14v1.4H563V68.45h1.54v5.69Z"/><path class="cls-1" d="M567.47,68.45H569v7.09h-1.55Z"/><path class="cls-1" d="M569.94,73.67V70.32a2.37,2.37,0,0,1,4.69,0v.89h-1.57V70.3c0-.36-.26-.6-.77-.6s-.8.24-.8.6v3.39c0,.36.27.6.79.6s.78-.24.78-.6v-.91h1.57v.89a2.37,2.37,0,0,1-4.69,0Z"/><path class="cls-1" d="M577.53,73.67V70.32a2.37,2.37,0,0,1,4.69,0v.89h-1.57V70.3c0-.36-.26-.6-.77-.6s-.8.24-.8.6v3.39c0,.36.27.6.79.6s.78-.24.78-.6v-.91h1.57v.89a2.37,2.37,0,0,1-4.69,0Z"/><path class="cls-1" d="M586.8,74.14v1.4h-3.68V68.45h1.55v5.69Z"/><path class="cls-1" d="M587.53,73.67V70.32a2.39,2.39,0,0,1,4.72,0v3.35a2.39,2.39,0,0,1-4.72,0Zm3.17,0V70.3c0-.36-.24-.6-.8-.6s-.82.24-.82.6v3.39c0,.36.24.6.81.6S590.7,74.05,590.7,73.69Z"/><path class="cls-1" d="M593.13,73.67V68.45h1.55v5.24c0,.36.23.6.72.6s.73-.24.73-.6V68.45h1.55v5.22a2.29,2.29,0,0,1-4.55,0Z"/><path class="cls-1" d="M603.2,70.47v3a2.05,2.05,0,0,1-2.27,2h-2.3V68.45h2.29A2.06,2.06,0,0,1,603.2,70.47Zm-1.55,0a.57.57,0,0,0-.62-.6h-.85v4.29H601a.57.57,0,0,0,.63-.6Z"/><path class="cls-1" d="M610.65,70.39v.91a1.94,1.94,0,0,1-2.11,1.94h-.82v2.3h-1.55V68.45h2.36A2,2,0,0,1,610.65,70.39Zm-1.55-.07a.44.44,0,0,0-.46-.47h-.92v2h.91a.44.44,0,0,0,.47-.48Z"/><path class="cls-1" d="M613.77,73H613v2.56h-1.55V68.45h2.36A2,2,0,0,1,616,70.39v.66a1.84,1.84,0,0,1-.71,1.49l.92,3h-1.62Zm-.74-1.4h.91a.43.43,0,0,0,.47-.46v-.8a.43.43,0,0,0-.46-.47H613Z"/><path class="cls-1" d="M616.88,73.67V70.32a2.38,2.38,0,0,1,4.71,0v3.35a2.38,2.38,0,0,1-4.71,0Zm3.16,0V70.3c0-.36-.24-.6-.8-.6s-.82.24-.82.6v3.39c0,.36.24.6.81.6S620,74.05,620,73.69Z"/><path class="cls-1" d="M627.22,68.45l-1.5,7.09h-2l-1.49-7.09h1.55l1,4.86,1-4.86Z"/><path class="cls-1" d="M628,68.45h1.55v7.09H628Z"/><path class="cls-1" d="M635.11,70.47v3a2.05,2.05,0,0,1-2.27,2h-2.29V68.45h2.28A2.06,2.06,0,0,1,635.11,70.47Zm-1.55,0a.57.57,0,0,0-.62-.6h-.85v4.29h.84a.57.57,0,0,0,.63-.6Z"/><path class="cls-1" d="M637.58,69.85v1.54h1.72v1.4h-1.72v1.35h2.12v1.4H636V68.45h3.67v1.4Z"/><path class="cls-1" d="M642.82,73h-.74v2.56h-1.55V68.45h2.36A2,2,0,0,1,645,70.39v.66a1.84,1.84,0,0,1-.71,1.49l.92,3H643.6Zm-.74-1.4H643a.43.43,0,0,0,.47-.46v-.8a.43.43,0,0,0-.46-.47h-.92Z"/><rect class="cls-3" x="576.11" y="172.89" width="75.48" height="177.12"/><path d="M328.82,70.33h.92V74.8a2.08,2.08,0,1,0,4.16,0V70.33h.91v4.48a3,3,0,0,1-6,0Z"/><path d="M336.24,76.37a2.39,2.39,0,0,0,1.75.76c.81,0,1.25-.37,1.25-.88s-.65-.77-1.36-1c-.9-.21-1.93-.45-1.93-1.55,0-.82.72-1.53,2-1.53a2.68,2.68,0,0,1,2,.77l-.38.57a2.11,2.11,0,0,0-1.59-.67c-.72,0-1.17.33-1.17.81s.6.68,1.29.84c.93.21,2,.48,2,1.65,0,.89-.72,1.61-2.1,1.61a2.8,2.8,0,0,1-2.14-.84Z"/><path d="M343.48,72.22A2.59,2.59,0,0,1,346,75.07v.21h-4.3a1.87,1.87,0,0,0,1.91,1.84,2.31,2.31,0,0,0,1.64-.67l.4.54a2.93,2.93,0,0,1-2.11.81A2.63,2.63,0,0,1,340.86,75,2.66,2.66,0,0,1,343.48,72.22Zm-1.75,2.46h3.49a1.73,1.73,0,0,0-1.75-1.78A1.77,1.77,0,0,0,341.73,74.68Z"/><path d="M347.14,72.35H348v.86a2.28,2.28,0,0,1,1.78-1v.85a1.61,1.61,0,0,0-.33,0,2,2,0,0,0-1.45.84v3.77h-.82Z"/><path d="M350.52,76.37a2.39,2.39,0,0,0,1.75.76c.81,0,1.25-.37,1.25-.88s-.65-.77-1.36-1c-.91-.21-1.93-.45-1.93-1.55,0-.82.71-1.53,2-1.53a2.69,2.69,0,0,1,2,.77l-.39.57a2.07,2.07,0,0,0-1.58-.67c-.73,0-1.18.33-1.18.81s.61.68,1.3.84c.93.21,2,.48,2,1.65,0,.89-.71,1.61-2.09,1.61a2.79,2.79,0,0,1-2.14-.84Z"/><path d="M60.53,231.57h.92v6.53h3.41v.81H60.53Z"/><path d="M65.35,236.25c-.19-3.62,5.45-3.62,5.26,0C70.8,239.89,65.16,239.89,65.35,236.25Zm4.39,0a1.78,1.78,0,1,0-3.53,0A1.78,1.78,0,1,0,69.74,236.25Z"/><path d="M75.05,238.31a2.3,2.3,0,0,1-1.76.73,1.77,1.77,0,0,1-1.86-1.76,1.75,1.75,0,0,1,1.86-1.75,2.24,2.24,0,0,1,1.76.73v-1c0-.71-.57-1.12-1.34-1.12a2.11,2.11,0,0,0-1.63.74l-.38-.57a2.75,2.75,0,0,1,2.12-.88c1.12,0,2.06.5,2.06,1.79v3.65h-.83Zm0-1.52a1.78,1.78,0,0,0-1.46-.66,1.17,1.17,0,1,0,0,2.32,1.78,1.78,0,0,0,1.46-.66Z"/><path d="M81.16,238.12a2.24,2.24,0,0,1-1.79.92C78,239,77,238,77,236.26s1-2.79,2.37-2.79a2.23,2.23,0,0,1,1.79.93v-2.83H82v7.34h-.82Zm0-3.06a2,2,0,0,0-1.6-.86c-1.06,0-1.7.88-1.7,2.06s.64,2.05,1.7,2.05a2,2,0,0,0,1.6-.84Z"/><path d="M49.31,242.57h3.27a1.85,1.85,0,0,1,2.05,1.87,1.67,1.67,0,0,1-1.28,1.69,1.83,1.83,0,0,1,1.43,1.8,1.92,1.92,0,0,1-2.13,2H49.31Zm3.11,3.18a1.14,1.14,0,0,0,1.27-1.17,1.16,1.16,0,0,0-1.27-1.19h-2.2v2.36Zm0,3.35a1.22,1.22,0,0,0,1.36-1.27,1.24,1.24,0,0,0-1.36-1.26H50.22v2.53Z"/><path d="M59.3,249.31a2.31,2.31,0,0,1-1.76.73,1.76,1.76,0,0,1-1.86-1.76,1.74,1.74,0,0,1,1.86-1.75,2.25,2.25,0,0,1,1.76.73v-1c0-.71-.58-1.12-1.35-1.12a2.09,2.09,0,0,0-1.62.74l-.39-.57a2.76,2.76,0,0,1,2.12-.88c1.13,0,2.06.5,2.06,1.79v3.65H59.3Zm0-1.52a1.79,1.79,0,0,0-1.47-.66,1.17,1.17,0,1,0,0,2.32,1.79,1.79,0,0,0,1.47-.66Z"/><path d="M61.55,242.57h.83v7.34h-.83Z"/><path d="M67.13,249.31a2.31,2.31,0,0,1-1.76.73,1.77,1.77,0,0,1-1.86-1.76,1.75,1.75,0,0,1,1.86-1.75,2.25,2.25,0,0,1,1.76.73v-1c0-.71-.57-1.12-1.34-1.12a2.1,2.1,0,0,0-1.63.74l-.39-.57a2.77,2.77,0,0,1,2.13-.88c1.12,0,2,.5,2,1.79v3.65h-.82Zm0-1.52a1.78,1.78,0,0,0-1.46-.66,1.17,1.17,0,1,0,0,2.32,1.78,1.78,0,0,0,1.46-.66Z"/><path d="M73,246.44c0-.94-.47-1.24-1.19-1.24a2,2,0,0,0-1.57.83v3.88h-.83V244.6h.83v.77a2.63,2.63,0,0,1,1.89-.9,1.51,1.51,0,0,1,1.69,1.71v3.73H73Z"/><path d="M77.57,244.47a2.24,2.24,0,0,1,1.94.92l-.55.51a1.56,1.56,0,0,0-1.35-.7,2.07,2.07,0,0,0,0,4.11,1.58,1.58,0,0,0,1.35-.7l.55.51a2.24,2.24,0,0,1-1.94.92,2.79,2.79,0,0,1,0-5.57Z"/><path d="M80.3,243.19a.56.56,0,0,1,1.12,0,.56.56,0,0,1-1.12,0Zm.15,1.41h.82v5.31h-.82Z"/><path d="M86.29,246.44c0-.94-.47-1.24-1.19-1.24a2,2,0,0,0-1.57.83v3.88H82.7V244.6h.83v.77a2.63,2.63,0,0,1,1.89-.9,1.51,1.51,0,0,1,1.69,1.71v3.73h-.82Z"/><path d="M89,250.66a2,2,0,0,0,1.73.73,1.52,1.52,0,0,0,1.7-1.6V249a2.21,2.21,0,0,1-1.78.95c-1.38,0-2.36-1-2.36-2.75s1-2.76,2.36-2.76a2.2,2.2,0,0,1,1.78.93v-.8h.83v5.16c0,1.76-1.23,2.31-2.53,2.31a2.75,2.75,0,0,1-2.15-.79Zm3.43-4.6a2,2,0,0,0-1.58-.86c-1.07,0-1.71.85-1.71,2s.64,2,1.71,2a1.93,1.93,0,0,0,1.58-.87Z"/><polyline class="cls-10" points="85.38 199.2 90.13 204.71 85.38 210.21"/><ellipse class="cls-10" cx="73.51" cy="204.7" rx="7.12" ry="7.07"/><ellipse class="cls-10" cx="56.09" cy="204.7" rx="3.96" ry="3.93"/><line class="cls-10" x1="60.05" y1="204.7" x2="66.38" y2="204.7"/><line class="cls-10" x1="80.63" y1="204.7" x2="89.54" y2="204.7"/><polyline class="cls-10" points="71.22 189.43 78 186.72 81.72 192.95"/><line class="cls-10" x1="74.27" y1="197.64" x2="77.86" y2="187.16"/><polyline class="cls-10" points="71.24 220.02 78.02 222.72 81.74 216.49"/><line class="cls-10" x1="74.3" y1="211.81" x2="77.91" y2="222.32"/><ellipse class="cls-10" cx="56.09" cy="204.7" rx="3.96" ry="3.93"/><path d="M425.75,135.09h1.05l2.47,6.34,2.48-6.34h1l-3,7.34H428.7Z"/><path d="M433.35,135.71a.56.56,0,1,1,1.11,0,.56.56,0,0,1-1.11,0Zm.15,1.41h.82v5.31h-.82Z"/><path d="M435.75,137.12h.83V138a2.26,2.26,0,0,1,1.77-1v.84a1.61,1.61,0,0,0-.33,0,1.93,1.93,0,0,0-1.44.85v3.76h-.83Z"/><path d="M439.33,141.32v-3.48h-.88v-.72h.88v-1.45h.82v1.45h1.08v.72h-1.08v3.3c0,.4.18.69.54.69a.8.8,0,0,0,.56-.22l.24.61a1.33,1.33,0,0,1-1,.34A1.08,1.08,0,0,1,439.33,141.32Z"/><path d="M445.76,141.68a2.57,2.57,0,0,1-1.89.88,1.5,1.5,0,0,1-1.7-1.69v-3.75H443v3.5c0,.93.47,1.21,1.19,1.21a2,2,0,0,0,1.57-.81v-3.9h.83v5.31h-.83Z"/><path d="M451.34,141.83a2.31,2.31,0,0,1-1.76.73,1.77,1.77,0,0,1-1.86-1.76,1.75,1.75,0,0,1,1.86-1.75,2.25,2.25,0,0,1,1.76.73v-1c0-.71-.57-1.12-1.34-1.12a2.1,2.1,0,0,0-1.63.74l-.39-.57a2.77,2.77,0,0,1,2.13-.88c1.12,0,2.05.5,2.05,1.79v3.65h-.82Zm0-1.52a1.78,1.78,0,0,0-1.46-.66,1.17,1.17,0,1,0,0,2.32,1.78,1.78,0,0,0,1.46-.66Z"/><path d="M453.59,135.09h.83v7.34h-.83Z"/><path d="M425.4,146.09h4.81v.82h-3.89v2.36h3.82v.82h-3.82v2.53h3.89v.81H425.4Z"/><path d="M435.26,152.64a2.21,2.21,0,0,1-1.79.92c-1.39,0-2.37-1.05-2.37-2.78s1-2.79,2.37-2.79a2.23,2.23,0,0,1,1.79.93v-2.83h.83v7.34h-.83Zm0-3.06a2,2,0,0,0-1.59-.86c-1.07,0-1.71.88-1.71,2.06s.64,2.05,1.71,2.05a2,2,0,0,0,1.59-.84Z"/><path d="M437.37,146.71a.56.56,0,1,1,1.11,0,.56.56,0,0,1-1.11,0Zm.15,1.41h.82v5.31h-.82Z"/><path d="M439.94,152.32v-3.48h-.88v-.72h.88v-1.45h.82v1.45h1.08v.72h-1.08v3.3c0,.4.18.69.54.69a.8.8,0,0,0,.56-.22l.24.61a1.33,1.33,0,0,1-1,.34A1.08,1.08,0,0,1,439.94,152.32Z"/><path d="M442.64,146.71a.56.56,0,1,1,1.11,0,.56.56,0,0,1-1.11,0Zm.14,1.41h.83v5.31h-.83Z"/><path d="M444.73,150.77c-.19-3.62,5.45-3.62,5.26,0C450.18,154.41,444.54,154.4,444.73,150.77Zm4.39,0a1.78,1.78,0,1,0-3.53,0A1.78,1.78,0,1,0,449.12,150.77Z"/><path d="M454.7,150c0-.94-.48-1.24-1.19-1.24a2,2,0,0,0-1.57.83v3.88h-.83v-5.31h.83v.77a2.63,2.63,0,0,1,1.89-.9,1.51,1.51,0,0,1,1.69,1.71v3.73h-.82Z"/><path d="M504.26,135.09h1.05l2.47,6.34,2.48-6.34h1l-2.95,7.34h-1.14Z"/><path d="M511.87,135.71a.56.56,0,0,1,.55-.56.57.57,0,0,1,.56.56.56.56,0,0,1-.56.55A.55.55,0,0,1,511.87,135.71Zm.14,1.41h.82v5.31H512Z"/><path d="M514.26,137.12h.83V138a2.26,2.26,0,0,1,1.77-1v.84a1.61,1.61,0,0,0-.33,0,1.93,1.93,0,0,0-1.44.85v3.76h-.83Z"/><path d="M517.84,141.32v-3.48H517v-.72h.88v-1.45h.82v1.45h1.08v.72h-1.08v3.3c0,.4.18.69.54.69a.8.8,0,0,0,.56-.22l.25.61a1.36,1.36,0,0,1-1,.34A1.08,1.08,0,0,1,517.84,141.32Z"/><path d="M524.27,141.68a2.56,2.56,0,0,1-1.89.88,1.49,1.49,0,0,1-1.69-1.69v-3.75h.82v3.5c0,.93.48,1.21,1.19,1.21a2,2,0,0,0,1.57-.81v-3.9h.83v5.31h-.83Z"/><path d="M529.85,141.83a2.31,2.31,0,0,1-1.76.73,1.77,1.77,0,0,1-1.86-1.76,1.75,1.75,0,0,1,1.86-1.75,2.24,2.24,0,0,1,1.76.73v-1c0-.71-.57-1.12-1.34-1.12a2.1,2.1,0,0,0-1.63.74l-.39-.57a2.79,2.79,0,0,1,2.13-.88c1.12,0,2,.5,2,1.79v3.65h-.82Zm0-1.52a1.78,1.78,0,0,0-1.46-.66,1.17,1.17,0,1,0,0,2.32,1.78,1.78,0,0,0,1.46-.66Z"/><path d="M532.1,135.09h.83v7.34h-.83Z"/><path d="M503.92,146.09h4.8v.82h-3.89v2.36h3.82v.82h-3.82v2.53h3.89v.81h-4.8Z"/><path d="M513.77,152.64a2.21,2.21,0,0,1-1.79.92c-1.39,0-2.36-1.05-2.36-2.78s1-2.79,2.36-2.79a2.21,2.21,0,0,1,1.79.93v-2.83h.83v7.34h-.83Zm0-3.06a2,2,0,0,0-1.59-.86c-1.07,0-1.71.88-1.71,2.06s.64,2.05,1.71,2.05a2,2,0,0,0,1.59-.84Z"/><path d="M515.88,146.71a.56.56,0,1,1,.55.55A.55.55,0,0,1,515.88,146.71Zm.15,1.41h.82v5.31H516Z"/><path d="M518.45,152.32v-3.48h-.88v-.72h.88v-1.45h.82v1.45h1.08v.72h-1.08v3.3c0,.4.18.69.54.69a.8.8,0,0,0,.56-.22l.25.61a1.35,1.35,0,0,1-1,.34A1.08,1.08,0,0,1,518.45,152.32Z"/><path d="M521.15,146.71a.56.56,0,1,1,1.11,0,.56.56,0,0,1-1.11,0Zm.15,1.41h.82v5.31h-.82Z"/><path d="M523.24,150.77c-.19-3.62,5.46-3.62,5.26,0C528.69,154.41,523.05,154.4,523.24,150.77Zm4.39,0a1.78,1.78,0,1,0-3.53,0A1.78,1.78,0,1,0,527.63,150.77Z"/><path d="M533.21,150c0-.94-.47-1.24-1.19-1.24a2,2,0,0,0-1.57.83v3.88h-.83v-5.31h.83v.77a2.63,2.63,0,0,1,1.89-.9A1.51,1.51,0,0,1,534,149.7v3.73h-.82Z"/><path d="M603.26,232.46h.91V239h3.41v.82h-4.32Z"/><path d="M608.08,237.13c-.2-3.62,5.45-3.62,5.26,0C613.53,240.77,607.88,240.77,608.08,237.13Zm4.39,0a1.78,1.78,0,1,0-3.54,0A1.78,1.78,0,1,0,612.47,237.13Z"/><path d="M617.78,239.19a2.32,2.32,0,0,1-1.76.74,1.77,1.77,0,0,1-1.86-1.76,1.74,1.74,0,0,1,1.86-1.75,2.23,2.23,0,0,1,1.76.72v-.95c0-.72-.57-1.13-1.34-1.13a2.13,2.13,0,0,0-1.63.74l-.39-.57a2.82,2.82,0,0,1,2.13-.88c1.12,0,2.05.51,2.05,1.79v3.66h-.82Zm0-1.52a1.78,1.78,0,0,0-1.46-.66,1.17,1.17,0,1,0,0,2.32,1.78,1.78,0,0,0,1.46-.66Z"/><path d="M623.88,239a2.22,2.22,0,0,1-1.79.93c-1.39,0-2.37-1.06-2.37-2.79s1-2.79,2.37-2.79a2.2,2.2,0,0,1,1.79.93v-2.82h.83v7.34h-.83Zm0-3.06a2,2,0,0,0-1.59-.85c-1.07,0-1.71.88-1.71,2s.64,2.05,1.71,2.05a1.94,1.94,0,0,0,1.59-.84Z"/><path d="M592,243.46h3.27a1.85,1.85,0,0,1,2.06,1.87,1.67,1.67,0,0,1-1.29,1.68,1.83,1.83,0,0,1,1.43,1.8,1.92,1.92,0,0,1-2.12,2H592Zm3.12,3.18a1.14,1.14,0,0,0,1.26-1.18,1.15,1.15,0,0,0-1.26-1.19H593v2.37Zm0,3.34a1.21,1.21,0,0,0,1.37-1.26,1.26,1.26,0,0,0-1.37-1.27H593V250Z"/><path d="M602,250.19a2.31,2.31,0,0,1-1.76.74,1.77,1.77,0,0,1-1.86-1.76,1.74,1.74,0,0,1,1.86-1.75,2.23,2.23,0,0,1,1.76.72v-.95c0-.72-.57-1.13-1.34-1.13a2.15,2.15,0,0,0-1.63.74l-.38-.57a2.78,2.78,0,0,1,2.12-.88c1.12,0,2.06.51,2.06,1.79v3.66H602Zm0-1.52a1.78,1.78,0,0,0-1.46-.66,1.17,1.17,0,1,0,0,2.32,1.78,1.78,0,0,0,1.46-.66Z"/><path d="M604.28,243.46h.82v7.34h-.82Z"/><path d="M609.85,250.19a2.31,2.31,0,0,1-1.76.74,1.77,1.77,0,0,1-1.86-1.76,1.74,1.74,0,0,1,1.86-1.75,2.23,2.23,0,0,1,1.76.72v-.95c0-.72-.57-1.13-1.34-1.13a2.15,2.15,0,0,0-1.63.74l-.38-.57a2.78,2.78,0,0,1,2.12-.88c1.12,0,2.06.51,2.06,1.79v3.66h-.83Zm0-1.52a1.77,1.77,0,0,0-1.46-.66,1.17,1.17,0,1,0,0,2.32,1.77,1.77,0,0,0,1.46-.66Z"/><path d="M615.7,247.32c0-.94-.48-1.23-1.19-1.23a2.06,2.06,0,0,0-1.58.82v3.89h-.82v-5.32h.82v.77a2.65,2.65,0,0,1,1.9-.9,1.51,1.51,0,0,1,1.69,1.72v3.73h-.82Z"/><path d="M620.29,245.35a2.3,2.3,0,0,1,2,.92l-.55.51a1.57,1.57,0,0,0-1.35-.69,2.06,2.06,0,0,0,0,4.1,1.6,1.6,0,0,0,1.35-.69l.55.5a2.28,2.28,0,0,1-2,.93,2.79,2.79,0,0,1,0-5.58Z"/><path d="M623,244.07a.56.56,0,1,1,1.11,0,.56.56,0,0,1-1.11,0Zm.14,1.41H624v5.32h-.83Z"/><path d="M629,247.32c0-.94-.48-1.23-1.19-1.23a2.06,2.06,0,0,0-1.58.82v3.89h-.82v-5.32h.82v.77a2.65,2.65,0,0,1,1.9-.9,1.51,1.51,0,0,1,1.69,1.72v3.73H629Z"/><path d="M631.68,251.54a2,2,0,0,0,1.72.73,1.53,1.53,0,0,0,1.71-1.6v-.75a2.24,2.24,0,0,1-1.78.94c-1.39,0-2.37-1-2.37-2.75s1-2.76,2.37-2.76a2.21,2.21,0,0,1,1.78.93v-.8h.82v5.16c0,1.76-1.23,2.31-2.53,2.31a2.7,2.7,0,0,1-2.14-.79Zm3.43-4.6a2,2,0,0,0-1.59-.85c-1.06,0-1.7.84-1.7,2s.64,2,1.7,2a2,2,0,0,0,1.59-.87Z"/><polyline class="cls-10" points="628.11 202.4 632.86 207.91 628.11 213.41"/><ellipse class="cls-10" cx="616.23" cy="207.91" rx="7.12" ry="7.07"/><ellipse class="cls-10" cx="598.82" cy="207.91" rx="3.96" ry="3.93"/><line class="cls-10" x1="602.77" y1="207.91" x2="609.11" y2="207.91"/><line class="cls-10" x1="623.36" y1="207.91" x2="632.27" y2="207.91"/><polyline class="cls-10" points="613.95 192.63 620.73 189.93 624.45 196.15"/><line class="cls-10" x1="617" y1="200.84" x2="620.58" y2="190.36"/><polyline class="cls-10" points="613.97 223.22 620.75 225.93 624.47 219.7"/><line class="cls-10" x1="617.02" y1="215.01" x2="620.64" y2="225.52"/><ellipse class="cls-10" cx="598.82" cy="207.91" rx="3.96" ry="3.93"/><path d="M366.8,231.57h4.81v.82h-3.89v2.36h3.81v.82h-3.81v3.34h-.92Z"/><path d="M376.19,238.16a2.57,2.57,0,0,1-1.89.88,1.49,1.49,0,0,1-1.7-1.69V233.6h.83v3.5c0,.93.47,1.21,1.18,1.21a2.05,2.05,0,0,0,1.58-.81v-3.9H377v5.31h-.82Z"/><path d="M378.44,231.57h.83v7.34h-.83Z"/><path d="M380.7,231.57h.82v7.34h-.82Z"/><path d="M362.06,242.57H365a2.22,2.22,0,1,1,0,4.43h-2v2.91h-.91Zm2.84.82H363v2.79h1.93a1.4,1.4,0,1,0,0-2.79Z"/><path d="M368.26,244.6h.83v.86a2.24,2.24,0,0,1,1.77-1v.85a1.11,1.11,0,0,0-.33,0,1.93,1.93,0,0,0-1.44.85v3.76h-.83Z"/><path d="M371.36,247.25c-.19-3.62,5.46-3.62,5.26,0C376.81,250.89,371.17,250.89,371.36,247.25Zm4.39,0a1.78,1.78,0,1,0-3.53,0A1.78,1.78,0,1,0,375.75,247.25Z"/><path d="M379.25,247.73l-1.6,2.18h-.94l2-2.73-1.92-2.58h1l1.47,2,1.47-2h1l-1.92,2.58,2,2.73h-.95Z"/><path d="M382.81,251.33a.77.77,0,0,0,.8-.56l.35-.8-2.22-5.37h.89L384.4,249l1.76-4.36h.9L384.4,251a1.58,1.58,0,0,1-1.56,1.08,2.37,2.37,0,0,1-.61-.08l.13-.75A1.17,1.17,0,0,0,382.81,251.33Z"/><g id="Group_13317" data-name="Group 13317"><path id="Path_61126" data-name="Path 61126" class="cls-8" d="M359.24,213.55a5.92,5.92,0,0,1,0-11.84h0a8.86,8.86,0,0,1,8.9-8.82,8.29,8.29,0,0,1,3.67.8,10.41,10.41,0,0,1,13.35-6.07,10.27,10.27,0,0,1,6.4,12.38,7.39,7.39,0,0,1-.71,12.78"/></g><g id="Group_13318" data-name="Group 13318"><line id="Line_238" data-name="Line 238" class="cls-8" x1="380" y1="205.14" x2="380" y2="206.43"/><line id="Line_241" data-name="Line 241" class="cls-8" x1="380" y1="212.25" x2="380" y2="213.54"/><line id="Line_244" data-name="Line 244" class="cls-8" x1="380" y1="219.36" x2="380" y2="220.65"/><line id="Line_239" data-name="Line 239" class="cls-8" x1="382.61" y1="205.14" x2="382.61" y2="206.43"/><line id="Line_242" data-name="Line 242" class="cls-8" x1="382.61" y1="212.25" x2="382.61" y2="213.54"/><line id="Line_245" data-name="Line 245" class="cls-8" x1="382.61" y1="219.36" x2="382.61" y2="220.65"/><line id="Line_240" data-name="Line 240" class="cls-8" x1="385.23" y1="205.14" x2="385.23" y2="206.43"/><line id="Line_243" data-name="Line 243" class="cls-8" x1="385.23" y1="212.25" x2="385.23" y2="213.54"/><line id="Line_246" data-name="Line 246" class="cls-8" x1="385.23" y1="219.36" x2="385.23" y2="220.65"/><g id="Group_13061" data-name="Group 13061"><path id="Path_60851" data-name="Path 60851" d="M363.53,204.84a1,1,0,1,0,1,1,1,1,0,0,0-.94-1Z"/></g><g id="Group_13066" data-name="Group 13066"><path id="Path_60851-2" data-name="Path 60851-2" d="M363.53,212a1,1,0,1,0,1,1,1,1,0,0,0-.94-1Z"/></g><g id="Group_13067" data-name="Group 13067"><path id="Path_60851-3" data-name="Path 60851-3" d="M363.53,219.09a1,1,0,1,0,0,2,1,1,0,0,0,1-1,1,1,0,0,0-.94-1Z"/></g><path id="Path_60856" data-name="Path 60856" class="cls-4" d="M388,203.35H362.06a1,1,0,0,0-1,1h0v2.94a1,1,0,0,0,1,1H388a1,1,0,0,0,1-1h0v-2.94a1,1,0,0,0-1-1Z"/><path id="Path_60857" data-name="Path 60857" class="cls-4" d="M388,210.46H362.06a1,1,0,0,0-1,1h0v2.94a1,1,0,0,0,1,1H388a1,1,0,0,0,1-1h0v-2.94a1,1,0,0,0-1-1Z"/><path id="Path_60858" data-name="Path 60858" class="cls-4" d="M388,217.57H362.06a1,1,0,0,0-1,1h0v2.94a1,1,0,0,0,1,1H388a1,1,0,0,0,1-1h0v-2.94a1,1,0,0,0-1-1Z"/></g><path d="M750,155.68a3.66,3.66,0,0,1,3.74-3.79,3.33,3.33,0,0,1,2.82,1.45l-.77.43a2.49,2.49,0,0,0-2-1.07,3,3,0,0,0,0,6,2.47,2.47,0,0,0,2-1.07l.78.43a3.36,3.36,0,0,1-2.83,1.45A3.66,3.66,0,0,1,750,155.68Z"/><path d="M757.16,156.32c-.19-3.14,5.46-3.15,5.26,0C762.61,159.47,757,159.47,757.16,156.32Zm4.39,0c.16-2.31-3.69-2.3-3.53,0C757.86,158.62,761.72,158.63,761.55,156.32Z"/><path d="M767.13,155.87c0-.93-.47-1.23-1.19-1.23a2,2,0,0,0-1.57.82v3.89h-.83V154h.83v.77a2.63,2.63,0,0,1,1.89-.9,1.51,1.51,0,0,1,1.69,1.72v3.73h-.82Z"/><path d="M769.55,158.24v-3.48h-.88V154h.88v-1.45h.82V154h1.08v.73h-1.08v3.3c0,.4.18.68.54.68a.8.8,0,0,0,.56-.22l.25.62a1.36,1.36,0,0,1-1,.34A1.08,1.08,0,0,1,769.55,158.24Z"/><path d="M774.71,153.9a2.59,2.59,0,0,1,2.55,2.85V157H773a1.87,1.87,0,0,0,1.91,1.84,2.31,2.31,0,0,0,1.64-.67l.4.54a2.94,2.94,0,0,1-2.12.81,2.63,2.63,0,0,1-2.7-2.79A2.66,2.66,0,0,1,774.71,153.9ZM773,156.36h3.48a1.72,1.72,0,0,0-1.74-1.78A1.77,1.77,0,0,0,773,156.36Z"/><path d="M782,155.87c0-.93-.48-1.23-1.19-1.23a2.06,2.06,0,0,0-1.58.82v3.89h-.82V154h.82v.77a2.65,2.65,0,0,1,1.9-.9,1.51,1.51,0,0,1,1.69,1.72v3.73H782Z"/><path d="M784.38,158.24v-3.48h-.88V154h.88v-1.45h.82V154h1.08v.73H785.2v3.3c0,.4.18.68.54.68a.8.8,0,0,0,.56-.22l.24.62a1.33,1.33,0,0,1-1,.34A1.08,1.08,0,0,1,784.38,158.24Z"/><path d="M749.45,166.68a3.66,3.66,0,0,1,3.74-3.79,3.3,3.3,0,0,1,2.81,1.45l-.77.43a2.49,2.49,0,0,0-2-1.07,3,3,0,0,0,0,6,2.46,2.46,0,0,0,2-1.07l.78.43a3.33,3.33,0,0,1-2.82,1.45A3.66,3.66,0,0,1,749.45,166.68Z"/><path d="M760.25,169.74a2.29,2.29,0,0,1-1.76.74,1.77,1.77,0,0,1-1.86-1.76,1.74,1.74,0,0,1,1.86-1.75,2.22,2.22,0,0,1,1.76.73v-1c0-.72-.57-1.12-1.34-1.12a2.12,2.12,0,0,0-1.63.73l-.39-.57a2.81,2.81,0,0,1,2.13-.88c1.12,0,2.05.51,2.05,1.8v3.65h-.82Zm0-1.52a1.79,1.79,0,0,0-1.47-.66,1.17,1.17,0,1,0,0,2.33,1.79,1.79,0,0,0,1.47-.66Z"/><path d="M764.85,164.9a2.26,2.26,0,0,1,1.94.93l-.55.5a1.57,1.57,0,0,0-1.35-.69,2.06,2.06,0,0,0,0,4.1,1.6,1.6,0,0,0,1.35-.69l.55.51a2.28,2.28,0,0,1-1.94.92,2.79,2.79,0,0,1,0-5.58Z"/><path d="M771.32,166.85c0-.94-.48-1.21-1.19-1.21a2.09,2.09,0,0,0-1.58.82v3.89h-.82V163h.82v2.79a2.65,2.65,0,0,1,1.91-.9,1.49,1.49,0,0,1,1.69,1.7v3.75h-.83Z"/><path d="M773.44,163.63a.57.57,0,0,1,.55-.57.57.57,0,0,1,.56.57.56.56,0,0,1-.56.55A.55.55,0,0,1,773.44,163.63Zm.14,1.4h.82v5.32h-.82Z"/><path d="M779.42,166.87c0-.93-.47-1.23-1.19-1.23a2,2,0,0,0-1.57.82v3.89h-.83V165h.83v.77a2.63,2.63,0,0,1,1.89-.9,1.52,1.52,0,0,1,1.7,1.72v3.73h-.83Z"/><path d="M782.08,171.1a2.05,2.05,0,0,0,1.73.72,1.52,1.52,0,0,0,1.7-1.59v-.76a2.2,2.2,0,0,1-1.78.94c-1.38,0-2.36-1-2.36-2.75s1-2.76,2.36-2.76a2.16,2.16,0,0,1,1.78.94V165h.83v5.16c0,1.76-1.23,2.31-2.53,2.31a2.72,2.72,0,0,1-2.15-.79Zm3.43-4.6a1.92,1.92,0,0,0-1.58-.86c-1.07,0-1.71.85-1.71,2s.64,2,1.71,2a2,2,0,0,0,1.58-.87Z"/><path d="M117,237.18a3.08,3.08,0,0,0,2.31,1c1.31,0,1.72-.7,1.72-1.26,0-.88-.89-1.13-1.85-1.39-1.18-.31-2.49-.64-2.49-2.08,0-1.21,1.08-2,2.52-2a3.47,3.47,0,0,1,2.61,1l-.55.67a2.79,2.79,0,0,0-2.13-.88c-.88,0-1.5.47-1.5,1.16s.84,1,1.78,1.21c1.2.32,2.56.7,2.56,2.24,0,1.07-.72,2.15-2.71,2.15a3.62,3.62,0,0,1-2.81-1.16Z"/><path d="M123.22,237.18a3.12,3.12,0,0,0,2.31,1c1.31,0,1.73-.7,1.73-1.26,0-.88-.89-1.13-1.86-1.39-1.18-.31-2.48-.64-2.48-2.08,0-1.21,1.07-2,2.51-2a3.44,3.44,0,0,1,2.61,1l-.55.67a2.79,2.79,0,0,0-2.12-.88c-.88,0-1.51.47-1.51,1.16s.85,1,1.78,1.21c1.2.32,2.57.7,2.57,2.24,0,1.07-.73,2.15-2.71,2.15a3.65,3.65,0,0,1-2.82-1.16Z"/><path d="M129.35,231.57h.91v6.53h3.41v.81h-4.32Z"/><path d="M111.94,242.45c4.78-.17,4.78,7.76,0,7.59C107.16,250.22,107.16,242.28,111.94,242.45Zm0,.82c-3.55-.16-3.55,6.11,0,6C115.49,249.38,115.49,243.11,111.94,243.27Z"/><path d="M117,245.32h-.88v-.72H117v-.41a1.52,1.52,0,0,1,1.54-1.73,1.51,1.51,0,0,1,.8.19l-.2.62a.92.92,0,0,0-.48-.12c-.54,0-.83.37-.83,1v.41h1.07v.72h-1.07v4.59H117Zm3.11,0h-.88v-.72h.88v-.41a1.52,1.52,0,0,1,1.55-1.73,1.55,1.55,0,0,1,.8.19l-.21.63a.8.8,0,0,0-.47-.13c-.54,0-.84.37-.84,1v.41H122v.72h-1.08v4.59h-.83Zm2.89-2.75h.82v7.34H123Z"/><path d="M124.94,247.25c-.19-3.62,5.46-3.62,5.26,0C130.4,250.89,124.75,250.89,124.94,247.25Zm4.39,0a1.78,1.78,0,1,0-3.53,0A1.78,1.78,0,1,0,129.33,247.25Z"/><path d="M134.65,249.31a2.31,2.31,0,0,1-1.76.73,1.77,1.77,0,0,1-1.86-1.76,1.75,1.75,0,0,1,1.86-1.75,2.25,2.25,0,0,1,1.76.73v-1c0-.71-.58-1.12-1.34-1.12a2.1,2.1,0,0,0-1.63.74l-.39-.57a2.76,2.76,0,0,1,2.12-.88c1.13,0,2.06.5,2.06,1.79v3.65h-.82Zm0-1.52a1.79,1.79,0,0,0-1.47-.66,1.17,1.17,0,1,0,0,2.32,1.79,1.79,0,0,0,1.47-.66Z"/><path d="M140.75,249.12A2.21,2.21,0,0,1,139,250c-1.39,0-2.37-1-2.37-2.78s1-2.79,2.37-2.79a2.23,2.23,0,0,1,1.79.93v-2.83h.83v7.34h-.83Zm0-3.06a2,2,0,0,0-1.59-.86c-1.07,0-1.71.88-1.71,2.06s.64,2.05,1.71,2.05a2,2,0,0,0,1.59-.84Z"/><path class="cls-11" d="M137.88,203.81v5.9a1.47,1.47,0,0,1-1.47,1.47h-9.64"/><path class="cls-11" d="M111.09,190v-3a1.47,1.47,0,0,1,1.46-1.47h23.86a1.47,1.47,0,0,1,1.47,1.47V190"/><path class="cls-11" d="M122.71,211.18H112.55a1.47,1.47,0,0,1-1.46-1.47v-6"/><rect class="cls-11" x="108.42" y="195.79" width="6.83" height="5.98"/><path class="cls-11" d="M114.39,195.79v-1.71a2.56,2.56,0,1,0-5.11,0v1.71"/><rect class="cls-11" x="134.54" y="195.79" width="6.83" height="5.98"/><path class="cls-11" d="M140.5,195.79v-1.71a2.56,2.56,0,1,0-5.11,0v1.71"/><rect class="cls-11" x="121.34" y="195.79" width="6.83" height="5.98"/><path class="cls-11" d="M127.31,194.08a2.56,2.56,0,1,0-5.11,0v1.71"/><polyline class="cls-11" points="128.15 208.13 124.8 204.77 121.45 208.13"/><polyline class="cls-11" points="138.61 223.97 141.96 220.62 138.61 217.26"/><polyline class="cls-11" points="107.96 220.63 124.77 220.63 124.77 204.96"/><line class="cls-11" x1="126.62" y1="220.63" x2="141.96" y2="220.62"/><path d="M242.12,232.39H239.8v-.82h5.56v.82H243v6.52h-.91Z"/><path d="M245.76,235.25a3.66,3.66,0,0,1,3.74-3.8,3.31,3.31,0,0,1,2.82,1.46l-.77.42a2.51,2.51,0,0,0-2.05-1.06,3,3,0,0,0,0,6,2.47,2.47,0,0,0,2.05-1.07l.78.43A3.34,3.34,0,0,1,249.5,239,3.66,3.66,0,0,1,245.76,235.25Z"/><path d="M253.27,231.57h3a2.22,2.22,0,1,1,0,4.43h-2v2.91h-.92Zm2.84.82h-1.92v2.79h1.92a1.4,1.4,0,1,0,0-2.79Z"/><path d="M224.15,242.45c4.78-.17,4.78,7.76,0,7.59C219.36,250.22,219.36,242.28,224.15,242.45Zm0,.82c-3.56-.16-3.56,6.11,0,6C227.7,249.38,227.69,243.11,224.15,243.27Z"/><path d="M229,251.94V244.6h.83v.79a2.2,2.2,0,0,1,1.79-.92c1.4,0,2.37,1.05,2.37,2.78s-1,2.79-2.37,2.79a2.17,2.17,0,0,1-1.79-.93v2.83Zm2.41-6.74a2,2,0,0,0-1.58.85v2.4a2,2,0,0,0,1.58.86c1.07,0,1.71-.88,1.71-2.06S232.44,245.2,231.37,245.2Z"/><path d="M235.22,248.8v-3.48h-.88v-.72h.88v-1.45h.83v1.45h1.08v.72h-1.08v3.31c0,.39.17.68.54.68a.8.8,0,0,0,.56-.22l.24.61a1.35,1.35,0,0,1-1,.34A1.09,1.09,0,0,1,235.22,248.8Z"/><path d="M237.93,243.19a.56.56,0,1,1,1.11,0,.56.56,0,0,1-1.11,0Zm.14,1.41h.83v5.31h-.83Z"/><path d="M246.74,246.3c0-.67-.3-1.1-1-1.1a1.87,1.87,0,0,0-1.41.82v3.89h-.82V246.3c0-.67-.29-1.1-1-1.1a1.87,1.87,0,0,0-1.4.83v3.88h-.82V244.6h.82v.77a2.31,2.31,0,0,1,1.72-.9,1.37,1.37,0,0,1,1.43,1,2.21,2.21,0,0,1,1.78-1c1,0,1.48.54,1.48,1.6v3.84h-.82Z"/><path d="M248.85,243.19a.56.56,0,1,1,1.11,0,.56.56,0,0,1-1.11,0Zm.14,1.41h.83v5.31H249Z"/><path d="M251,249.27l2.92-4H251v-.72h4v.63l-2.95,4h3v.71h-4Z"/><path d="M259.54,249.31a2.3,2.3,0,0,1-1.76.73,1.77,1.77,0,0,1-1.86-1.76,1.75,1.75,0,0,1,1.86-1.75,2.24,2.24,0,0,1,1.76.73v-1c0-.71-.57-1.12-1.34-1.12a2.11,2.11,0,0,0-1.63.74l-.38-.57a2.75,2.75,0,0,1,2.12-.88c1.12,0,2.06.5,2.06,1.79v3.65h-.83Zm0-1.52a1.78,1.78,0,0,0-1.46-.66,1.17,1.17,0,1,0,0,2.32,1.78,1.78,0,0,0,1.46-.66Z"/><path d="M262,248.8v-3.48h-.88v-.72H262v-1.45h.83v1.45h1.08v.72h-1.08v3.31c0,.39.17.68.54.68a.8.8,0,0,0,.56-.22l.24.61a1.35,1.35,0,0,1-1,.34A1.09,1.09,0,0,1,262,248.8Z"/><path d="M264.67,243.19a.56.56,0,1,1,1.11,0,.56.56,0,0,1-1.11,0Zm.14,1.41h.83v5.31h-.83Z"/><path d="M266.76,247.25c-.2-3.62,5.45-3.62,5.26,0C272.21,250.89,266.57,250.88,266.76,247.25Zm4.39,0a1.78,1.78,0,1,0-3.53,0A1.78,1.78,0,1,0,271.15,247.25Z"/><path d="M276.72,246.44c0-.94-.47-1.24-1.18-1.24A2.07,2.07,0,0,0,274,246v3.88h-.82V244.6H274v.77a2.65,2.65,0,0,1,1.9-.9,1.51,1.51,0,0,1,1.69,1.71v3.73h-.83Z"/><circle cx="249.05" cy="204.72" r="2.46"/><line class="cls-8" x1="257.53" y1="189.94" x2="249.05" y2="204.72"/><circle class="cls-8" cx="249.05" cy="204.72" r="19.5"/><path class="cls-8" d="M262.71,199.79a14.64,14.64,0,0,1,.86,4.93m-3.69-9.67a15.26,15.26,0,0,1,1.82,2.54m-27.17,7.13A14.51,14.51,0,0,1,258,193.3"/><path d="M296.61,235.25a3.66,3.66,0,0,1,3.74-3.8,3.3,3.3,0,0,1,2.82,1.46l-.77.42a2.51,2.51,0,0,0-2-1.06,3,3,0,0,0,0,6,2.47,2.47,0,0,0,2-1.07l.78.43a3.34,3.34,0,0,1-2.83,1.45A3.66,3.66,0,0,1,296.61,235.25Z"/><path d="M303.78,236.25c-.19-3.62,5.46-3.62,5.26,0C309.23,239.89,303.59,239.89,303.78,236.25Zm4.39,0a1.78,1.78,0,1,0-3.53,0A1.78,1.78,0,1,0,308.17,236.25Z"/><path d="M313.75,235.44c0-.94-.47-1.24-1.19-1.24A2,2,0,0,0,311,235v3.88h-.83V233.6H311v.77a2.63,2.63,0,0,1,1.89-.9,1.51,1.51,0,0,1,1.7,1.71v3.73h-.83Z"/><path d="M316.17,237.8v-3.48h-.88v-.72h.88v-1.45H317v1.45h1.07v.72H317v3.31c0,.39.17.68.53.68a.81.81,0,0,0,.57-.22l.24.61a1.35,1.35,0,0,1-1,.34A1.09,1.09,0,0,1,316.17,237.8Z"/><path d="M321.33,233.47a2.57,2.57,0,0,1,2.55,2.85v.2h-4.3a1.87,1.87,0,0,0,1.91,1.84,2.3,2.3,0,0,0,1.64-.67l.4.54a2.87,2.87,0,0,1-2.11.81,2.79,2.79,0,0,1-.09-5.57Zm-1.75,2.45h3.49a1.72,1.72,0,0,0-1.75-1.77A1.78,1.78,0,0,0,319.58,235.92Z"/><path d="M328.58,235.44c0-.94-.47-1.24-1.19-1.24a2,2,0,0,0-1.57.83v3.88H325V233.6h.83v.77a2.63,2.63,0,0,1,1.89-.9,1.51,1.51,0,0,1,1.69,1.71v3.73h-.82Z"/><path d="M331,237.8v-3.48h-.88v-.72H331v-1.45h.82v1.45h1.08v.72h-1.08v3.31c0,.39.18.68.54.68a.8.8,0,0,0,.56-.22l.24.61a1.32,1.32,0,0,1-1,.34A1.08,1.08,0,0,1,331,237.8Z"/><path d="M294.42,242.45c4.78-.17,4.78,7.76,0,7.59C289.64,250.22,289.64,242.28,294.42,242.45Zm0,.82c-3.55-.16-3.55,6.11,0,6C298,249.38,298,243.11,294.42,243.27Z"/><path d="M299.47,245.32h-.88v-.72h.88v-.41a1.52,1.52,0,0,1,1.54-1.73,1.57,1.57,0,0,1,.81.19l-.21.62a.92.92,0,0,0-.48-.12c-.54,0-.83.37-.83,1v.41h1.08v.72H300.3v4.59h-.83Zm3.12,0h-.88v-.72h.88v-.41a1.52,1.52,0,0,1,1.54-1.73,1.55,1.55,0,0,1,.8.19l-.21.63a.8.8,0,0,0-.47-.13c-.54,0-.84.37-.84,1v.41h1.08v.72h-1.08v4.59h-.82Zm2.88-2.75h.82v7.34h-.82Z"/><path d="M307.42,247.25c-.19-3.62,5.46-3.62,5.26,0C312.88,250.89,307.23,250.89,307.42,247.25Zm4.39,0a1.78,1.78,0,1,0-3.53,0A1.78,1.78,0,1,0,311.81,247.25Z"/><path d="M317.13,249.31a2.31,2.31,0,0,1-1.76.73,1.77,1.77,0,0,1-1.86-1.76,1.75,1.75,0,0,1,1.86-1.75,2.25,2.25,0,0,1,1.76.73v-1c0-.71-.57-1.12-1.35-1.12a2.09,2.09,0,0,0-1.62.74l-.39-.57a2.77,2.77,0,0,1,2.13-.88c1.12,0,2.05.5,2.05,1.79v3.65h-.82Zm0-1.52a1.79,1.79,0,0,0-1.47-.66,1.17,1.17,0,1,0,0,2.32,1.79,1.79,0,0,0,1.47-.66Z"/><path d="M323.23,249.12a2.21,2.21,0,0,1-1.79.92c-1.39,0-2.37-1-2.37-2.78s1-2.79,2.37-2.79a2.23,2.23,0,0,1,1.79.93v-2.83h.83v7.34h-.83Zm0-3.06a2,2,0,0,0-1.59-.86c-1.07,0-1.71.88-1.71,2.06s.64,2.05,1.71,2.05a2,2,0,0,0,1.59-.84Z"/><path d="M325.34,243.19a.56.56,0,1,1,1.11,0,.56.56,0,0,1-1.11,0Zm.15,1.41h.82v5.31h-.82Z"/><path d="M331.33,246.44c0-.94-.47-1.24-1.19-1.24a2,2,0,0,0-1.57.83v3.88h-.83V244.6h.83v.77a2.63,2.63,0,0,1,1.89-.9,1.51,1.51,0,0,1,1.69,1.71v3.73h-.82Z"/><path d="M334,250.66a2,2,0,0,0,1.73.73,1.52,1.52,0,0,0,1.7-1.6V249a2.21,2.21,0,0,1-1.78.95c-1.39,0-2.37-1-2.37-2.75s1-2.76,2.37-2.76a2.2,2.2,0,0,1,1.78.93v-.8h.83v5.16c0,1.76-1.23,2.31-2.53,2.31a2.75,2.75,0,0,1-2.15-.79Zm3.43-4.6a2,2,0,0,0-1.58-.86c-1.07,0-1.71.85-1.71,2s.64,2,1.71,2a1.93,1.93,0,0,0,1.58-.87Z"/><g id="Group_12856" data-name="Group 12856"><g id="Group_12834" data-name="Group 12834"><line id="Line_255" data-name="Line 255" class="cls-8" x1="316.18" y1="205.55" x2="316.18" y2="216.33"/><path id="Path_60588" data-name="Path 60588" class="cls-8" d="M310.62,213.49l5.56,5.54,5.51-5.54"/></g><g id="Group_12835" data-name="Group 12835"><path id="Path_60589" data-name="Path 60589" class="cls-8" d="M323.31,223H299.9a5.9,5.9,0,0,1,0-11.79h0a8.75,8.75,0,0,1,12.34-8.05,10.24,10.24,0,0,1,19.84,3.64,9.18,9.18,0,0,1-.36,2.66,7.38,7.38,0,0,1-4,13.54Z"/></g></g><line class="cls-2" x1="341.16" y1="81.41" x2="341.16" y2="129.6"/><line class="cls-2" x1="318.82" y1="129.6" x2="365.14" y2="129.6"/><path d="M162.13,135.19h3.27a1.85,1.85,0,0,1,2.06,1.87,1.68,1.68,0,0,1-1.29,1.69,1.83,1.83,0,0,1,1.43,1.8,1.91,1.91,0,0,1-2.12,2h-3.35Zm3.12,3.18a1.18,1.18,0,1,0,0-2.36h-2.2v2.36Zm0,3.35a1.21,1.21,0,0,0,1.36-1.27,1.24,1.24,0,0,0-1.36-1.26h-2.24v2.53Z"/><path d="M168.66,135.81a.56.56,0,0,1,.55-.56.57.57,0,0,1,.56.56.56.56,0,0,1-.56.55A.55.55,0,0,1,168.66,135.81Zm.14,1.41h.82v5.31h-.82Z"/><path d="M171.46,143.28a2,2,0,0,0,1.73.72,1.52,1.52,0,0,0,1.7-1.59v-.76a2.21,2.21,0,0,1-1.78.95c-1.39,0-2.36-1-2.36-2.75s1-2.77,2.36-2.77a2.2,2.2,0,0,1,1.78.94v-.8h.83v5.16c0,1.76-1.23,2.31-2.53,2.31a2.72,2.72,0,0,1-2.15-.8Zm3.43-4.6a2,2,0,0,0-1.58-.86c-1.07,0-1.71.85-1.71,2s.64,2,1.71,2a2,2,0,0,0,1.58-.87Z"/><path d="M179.8,135.19h.91v7.34h-.91Z"/><path d="M182.21,135.19h2.94a2.22,2.22,0,1,1,0,4.43h-2v2.91h-.91ZM185,136h-1.92v2.79H185a1.4,1.4,0,1,0,0-2.79Z"/><path d="M157.73,150.16h-4.29v3.37h-.91v-7.34h.91v3.16h4.29v-3.16h.92v7.34h-.92Z"/><path d="M163.43,152.92a2.27,2.27,0,0,1-1.76.74,1.77,1.77,0,0,1-1.86-1.76,1.74,1.74,0,0,1,1.86-1.75,2.2,2.2,0,0,1,1.76.73v-1c0-.71-.57-1.12-1.34-1.12a2.1,2.1,0,0,0-1.63.74l-.39-.58a2.82,2.82,0,0,1,2.13-.88c1.12,0,2.06.51,2.06,1.8v3.65h-.83Zm0-1.51a1.78,1.78,0,0,0-1.46-.66,1.17,1.17,0,1,0,0,2.32,1.78,1.78,0,0,0,1.46-.66Z"/><path d="M165.69,148.22h.82v.85a2.26,2.26,0,0,1,1.77-1V149a1.61,1.61,0,0,0-.33,0,2,2,0,0,0-1.44.85v3.76h-.82Z"/><path d="M173,152.74a2.25,2.25,0,0,1-1.8.92c-1.38,0-2.36-1-2.36-2.78s1-2.8,2.36-2.8a2.24,2.24,0,0,1,1.8.94v-2.83h.82v7.34H173Zm0-3.06a2,2,0,0,0-1.6-.86c-1.07,0-1.71.88-1.71,2.06s.64,2,1.71,2a2,2,0,0,0,1.6-.83Z"/><path d="M178.41,149.26,177,153.53h-.83l-1.69-5.31h.85l1.3,4.23,1.4-4.23h.7l1.4,4.23,1.3-4.23h.86l-1.7,5.31h-.82Z"/><path d="M186.38,152.92a2.29,2.29,0,0,1-1.76.74,1.76,1.76,0,0,1-1.86-1.76,1.74,1.74,0,0,1,1.86-1.75,2.22,2.22,0,0,1,1.76.73v-1c0-.71-.58-1.12-1.35-1.12a2.13,2.13,0,0,0-1.63.74L183,149a2.78,2.78,0,0,1,2.12-.88c1.13,0,2.06.51,2.06,1.8v3.65h-.82Zm0-1.51a1.79,1.79,0,0,0-1.47-.66,1.17,1.17,0,1,0,0,2.32,1.79,1.79,0,0,0,1.47-.66Z"/><path d="M188.63,148.22h.83v.85a2.23,2.23,0,0,1,1.77-1V149a1.61,1.61,0,0,0-.33,0,1.93,1.93,0,0,0-1.44.85v3.76h-.83Z"/><path d="M194.35,148.08a2.58,2.58,0,0,1,2.55,2.85v.21h-4.3a1.88,1.88,0,0,0,1.92,1.84,2.29,2.29,0,0,0,1.63-.67l.4.54a2.87,2.87,0,0,1-2.11.81,2.64,2.64,0,0,1-2.71-2.79A2.66,2.66,0,0,1,194.35,148.08Zm-1.75,2.46h3.49a1.72,1.72,0,0,0-1.75-1.77A1.78,1.78,0,0,0,192.6,150.54Z"/><g id="Group_13317-2" data-name="Group 13317"><path id="Path_61126-2" data-name="Path 61126" class="cls-8" d="M158.73,118.26a5.92,5.92,0,0,1,0-11.84h0a8.87,8.87,0,0,1,8.9-8.83,8.3,8.3,0,0,1,3.67.81,10.41,10.41,0,0,1,13.34-6.08A10.29,10.29,0,0,1,191,104.7a7.4,7.4,0,0,1-.71,12.79"/></g><g id="Group_13318-2" data-name="Group 13318"><line id="Line_238-2" data-name="Line 238" class="cls-8" x1="179.49" y1="109.84" x2="179.49" y2="111.14"/><line id="Line_241-2" data-name="Line 241" class="cls-8" x1="179.49" y1="116.95" x2="179.49" y2="118.25"/><line id="Line_244-2" data-name="Line 244" class="cls-8" x1="179.49" y1="124.06" x2="179.49" y2="125.36"/><line id="Line_239-2" data-name="Line 239" class="cls-8" x1="182.1" y1="109.84" x2="182.1" y2="111.14"/><line id="Line_242-2" data-name="Line 242" class="cls-8" x1="182.1" y1="116.95" x2="182.1" y2="118.25"/><line id="Line_245-2" data-name="Line 245" class="cls-8" x1="182.1" y1="124.06" x2="182.1" y2="125.36"/><line id="Line_240-2" data-name="Line 240" class="cls-8" x1="184.71" y1="109.84" x2="184.71" y2="111.14"/><line id="Line_243-2" data-name="Line 243" class="cls-8" x1="184.71" y1="116.95" x2="184.71" y2="118.25"/><line id="Line_246-2" data-name="Line 246" class="cls-8" x1="184.71" y1="124.06" x2="184.71" y2="125.36"/><g id="Group_13061-2" data-name="Group 13061"><path id="Path_60851-2-2" data-name="Path 60851" d="M163,109.55a1,1,0,1,0,1,1,1,1,0,0,0-.94-1Z"/></g><g id="Group_13066-2" data-name="Group 13066"><path id="Path_60851-2-3" data-name="Path 60851-2" d="M163,116.67a1,1,0,1,0,0,2,1,1,0,0,0,1-1,1,1,0,0,0-.94-1Z"/></g><g id="Group_13067-2" data-name="Group 13067"><path id="Path_60851-3-2" data-name="Path 60851-3" d="M163,123.79a1,1,0,1,0,0,2,1,1,0,0,0,1-1,1,1,0,0,0-.94-1Z"/></g><path id="Path_60856-2" data-name="Path 60856" class="cls-4" d="M187.47,108.06H161.54a1,1,0,0,0-1,1h0V112a1,1,0,0,0,1,1h25.93a1,1,0,0,0,1-1h0V109a1,1,0,0,0-1-1Z"/><path id="Path_60857-2" data-name="Path 60857" class="cls-4" d="M187.47,115.17H161.54a1,1,0,0,0-1,1h0v2.94a1,1,0,0,0,1,1h25.93a1,1,0,0,0,1-1h0v-2.94a1,1,0,0,0-1-1Z"/><path id="Path_60858-2" data-name="Path 60858" class="cls-4" d="M187.47,122.28H161.54a1,1,0,0,0-1,1h0v2.94a1,1,0,0,0,1,1h25.93a1,1,0,0,0,1-1h0v-2.94a1,1,0,0,0-1-1Z"/></g><path d="M611.41,320.34h-3.72L607,322h-1l3-7.34h1.13l3,7.34h-1Zm-3.45-.81h3.18l-1.59-4.09Z"/><path d="M613.81,314.63h3a2.21,2.21,0,1,1,0,4.42h-2V322h-.91Zm2.84.81h-1.93v2.8h1.93a1.4,1.4,0,1,0,0-2.8Z"/><path d="M620.05,314.63H621V322h-.91Z"/><path d="M597.7,325.51a3.47,3.47,0,0,1,2.85,1.38l-.72.45a2.69,2.69,0,0,0-2.13-1,3,3,0,0,0,0,6,2.88,2.88,0,0,0,2-.79V330h-2.52v-.81h3.44v2.65a3.83,3.83,0,0,1-2.89,1.26,3.8,3.8,0,0,1,0-7.6Z"/><path d="M605.14,332.36a2.27,2.27,0,0,1-1.76.74,1.77,1.77,0,0,1-1.86-1.76,1.74,1.74,0,0,1,1.86-1.75,2.2,2.2,0,0,1,1.76.73v-1c0-.71-.57-1.12-1.34-1.12a2.1,2.1,0,0,0-1.63.74l-.38-.58a2.78,2.78,0,0,1,2.12-.88c1.12,0,2.06.51,2.06,1.8V333h-.83Zm0-1.51a1.78,1.78,0,0,0-1.46-.66,1.17,1.17,0,1,0,0,2.32,1.78,1.78,0,0,0,1.46-.66Z"/><path d="M607.56,331.86v-3.48h-.88v-.72h.88V326.2h.82v1.46h1.08v.72h-1.08v3.3c0,.4.18.68.54.68a.81.81,0,0,0,.57-.22l.24.62a1.35,1.35,0,0,1-1,.34A1.09,1.09,0,0,1,607.56,331.86Z"/><path d="M612.72,327.52a2.58,2.58,0,0,1,2.55,2.85v.21H611a1.88,1.88,0,0,0,1.91,1.84,2.3,2.3,0,0,0,1.64-.67l.4.54a2.91,2.91,0,0,1-2.11.81,2.63,2.63,0,0,1-2.71-2.79A2.66,2.66,0,0,1,612.72,327.52ZM611,330h3.49a1.72,1.72,0,0,0-1.75-1.77A1.77,1.77,0,0,0,611,330Z"/><path d="M619.59,328.7,618.21,333h-.83l-1.69-5.31h.86l1.29,4.23,1.4-4.23H620l1.39,4.23,1.3-4.23h.86L621.81,333H621Z"/><path d="M627.56,332.36a2.29,2.29,0,0,1-1.76.74,1.77,1.77,0,0,1-1.86-1.76,1.74,1.74,0,0,1,1.86-1.75,2.22,2.22,0,0,1,1.76.73v-1c0-.71-.57-1.12-1.34-1.12a2.1,2.1,0,0,0-1.63.74l-.39-.58a2.82,2.82,0,0,1,2.13-.88c1.12,0,2,.51,2,1.8V333h-.82Zm0-1.51a1.78,1.78,0,0,0-1.46-.66,1.17,1.17,0,1,0,0,2.32,1.78,1.78,0,0,0,1.46-.66Z"/><path d="M630.1,334.39a.77.77,0,0,0,.79-.56l.35-.81L629,327.66h.89l1.77,4.35,1.76-4.35h.9l-2.66,6.39a1.59,1.59,0,0,1-1.56,1.08,2.81,2.81,0,0,1-.6-.08l.13-.75A1.39,1.39,0,0,0,630.1,334.39Z"/><circle class="cls-8" cx="613.86" cy="282.16" r="11.75"/><circle class="cls-8" cx="613.86" cy="302.66" r="5.75"/><polyline class="cls-8" points="617.33 301.89 613.9 304.91 610.38 301.99"/><line class="cls-8" x1="613.9" y1="304.91" x2="613.91" y2="283.91"/><polyline class="cls-8" points="600.91 297.48 596.39 296.8 596.37 292.24"/><circle class="cls-8" cx="598.11" cy="295.33" r="5.75"/><line class="cls-8" x1="596.39" y1="296.8" x2="612.53" y2="283.31"/><polyline class="cls-8" points="631.22 292.19 631.33 296.75 626.83 297.56"/><circle class="cls-8" cx="629.61" cy="295.29" r="5.75"/><line class="cls-8" x1="631.33" y1="296.75" x2="615.22" y2="283.26"/><circle class="cls-4" cx="613.86" cy="282.16" r="1.75"/><rect class="cls-3" x="730.38" y="96.21" width="75.48" height="159.11"/><path d="M752.49,229.33H751v2.91h-.91V224.9h3a2.14,2.14,0,0,1,2.3,2.21,2,2,0,0,1-1.91,2.14l2,3h-1.08Zm.47-3.61H751v2.8H753a1.4,1.4,0,1,0,0-2.8Z"/><path d="M758.53,226.8a2.58,2.58,0,0,1,2.56,2.84v.21h-4.31a1.88,1.88,0,0,0,1.92,1.84,2.33,2.33,0,0,0,1.64-.67l.39.54a2.86,2.86,0,0,1-2.11.81,2.79,2.79,0,0,1-.09-5.57Zm-1.75,2.45h3.49a1.72,1.72,0,0,0-1.75-1.77A1.78,1.78,0,0,0,756.78,229.25Z"/><path d="M761.4,226.93h.9l1.77,4.35,1.76-4.35h.9l-2.21,5.31h-.91Z"/><path d="M769.68,226.8a2.58,2.58,0,0,1,2.55,2.84v.21h-4.3a1.87,1.87,0,0,0,1.91,1.84,2.31,2.31,0,0,0,1.64-.67l.4.54a2.9,2.9,0,0,1-2.12.81,2.79,2.79,0,0,1-.08-5.57Zm-1.75,2.45h3.48a1.71,1.71,0,0,0-1.74-1.77A1.76,1.76,0,0,0,767.93,229.25Z"/><path d="M773.34,226.93h.82v.85a2.26,2.26,0,0,1,1.77-1v.84a1.48,1.48,0,0,0-.33,0,2,2,0,0,0-1.44.85v3.76h-.82Z"/><path d="M776.72,230.94a2.38,2.38,0,0,0,1.74.76c.82,0,1.26-.36,1.26-.88s-.65-.77-1.37-.94c-.9-.21-1.92-.46-1.92-1.56,0-.82.71-1.52,2-1.52a2.73,2.73,0,0,1,2,.76l-.39.58a2,2,0,0,0-1.58-.67c-.73,0-1.18.33-1.18.8s.61.68,1.3.85c.92.21,2,.47,2,1.65,0,.89-.71,1.6-2.09,1.6a2.82,2.82,0,0,1-2.14-.83Z"/><path d="M784,226.8a2.58,2.58,0,0,1,2.56,2.84v.21H782.2a1.88,1.88,0,0,0,1.92,1.84,2.33,2.33,0,0,0,1.64-.67l.39.54a2.86,2.86,0,0,1-2.11.81,2.79,2.79,0,0,1-.09-5.57Zm-1.75,2.45h3.49a1.72,1.72,0,0,0-1.75-1.77A1.78,1.78,0,0,0,782.2,229.25Z"/><path d="M756.05,235.9h3a2.22,2.22,0,1,1,0,4.43h-2v2.91h-.91Zm2.83.82H757v2.79h1.92a1.4,1.4,0,1,0,0-2.79Z"/><path d="M762.25,237.93h.83v.85a2.23,2.23,0,0,1,1.77-1v.84a1.61,1.61,0,0,0-.33,0,1.93,1.93,0,0,0-1.44.85v3.76h-.83Z"/><path d="M765.35,240.58c-.19-3.62,5.45-3.62,5.26,0C770.8,244.21,765.16,244.21,765.35,240.58Zm4.39,0a1.78,1.78,0,1,0-3.53,0A1.78,1.78,0,1,0,769.74,240.58Z"/><path d="M773.24,241.06l-1.6,2.18h-.94l2-2.73-1.92-2.58h1l1.48,2,1.47-2h1l-1.92,2.58,2,2.73h-.95Z"/><path d="M776.8,244.66a.75.75,0,0,0,.79-.56l.36-.8-2.23-5.37h.9l1.77,4.35,1.76-4.35h.9l-2.66,6.39a1.59,1.59,0,0,1-1.57,1.08,2.89,2.89,0,0,1-.6-.08l.13-.75A1.17,1.17,0,0,0,776.8,244.66Z"/><circle class="cls-8" cx="768.12" cy="192.43" r="11.75"/><circle class="cls-8" cx="768.12" cy="212.94" r="5.75"/><polyline class="cls-8" points="771.59 212.16 768.16 215.18 764.64 212.26"/><line class="cls-8" x1="768.16" y1="215.18" x2="768.17" y2="194.18"/><polyline class="cls-8" points="755.18 207.75 750.65 207.07 750.63 202.51"/><circle class="cls-8" cx="752.37" cy="205.6" r="5.75"/><line class="cls-8" x1="750.65" y1="207.07" x2="766.79" y2="193.58"/><polyline class="cls-8" points="785.48 202.46 785.59 207.02 781.09 207.83"/><circle class="cls-8" cx="783.87" cy="205.56" r="5.75"/><line class="cls-8" x1="785.59" y1="207.02" x2="769.48" y2="193.53"/><circle class="cls-4" cx="768.12" cy="192.43" r="1.75"/><rect class="cls-3" x="730.38" y="264.04" width="75.48" height="86.1"/><path d="M743.94,323.75l-.74.84v2.46h-.91v-7.34h.91v3.8l3.24-3.8h1.15l-3.06,3.49,3.32,3.85h-1.13Z"/><path d="M752,326.3a2.61,2.61,0,0,1-1.89.88,1.5,1.5,0,0,1-1.7-1.69v-3.75h.83v3.49c0,.94.47,1.21,1.19,1.21a2,2,0,0,0,1.57-.8v-3.9h.83v5.31H752Z"/><path d="M754.26,319.71h.83v2.83a2.22,2.22,0,0,1,1.79-.94c1.39,0,2.37,1.1,2.37,2.8s-1,2.78-2.37,2.78a2.23,2.23,0,0,1-1.79-.92v.79h-.83Zm2.41,6.73c1.08,0,1.72-.87,1.72-2s-.64-2.06-1.72-2.06a2,2,0,0,0-1.58.86v2.41A2,2,0,0,0,756.67,326.44Z"/><path d="M762.68,321.6a2.58,2.58,0,0,1,2.55,2.85v.21h-4.3a1.88,1.88,0,0,0,1.91,1.84,2.3,2.3,0,0,0,1.64-.67l.4.54a2.91,2.91,0,0,1-2.11.81,2.64,2.64,0,0,1-2.71-2.79A2.66,2.66,0,0,1,762.68,321.6Zm-1.75,2.46h3.49a1.72,1.72,0,0,0-1.75-1.77A1.77,1.77,0,0,0,760.93,324.06Z"/><path d="M766.34,321.74h.83v.85a2.25,2.25,0,0,1,1.77-1v.84a1.61,1.61,0,0,0-.33,0,1.93,1.93,0,0,0-1.44.85v3.76h-.83Z"/><path d="M773.34,323.57c0-.93-.47-1.23-1.19-1.23a2,2,0,0,0-1.57.83v3.88h-.83v-5.31h.83v.77a2.63,2.63,0,0,1,1.89-.91,1.51,1.51,0,0,1,1.69,1.72v3.73h-.82Z"/><path d="M777.9,321.6a2.59,2.59,0,0,1,2.56,2.85v.21h-4.31a1.88,1.88,0,0,0,1.92,1.84,2.33,2.33,0,0,0,1.64-.67l.39.54a2.9,2.9,0,0,1-2.11.81,2.64,2.64,0,0,1-2.71-2.79A2.66,2.66,0,0,1,777.9,321.6Zm-1.75,2.46h3.49a1.72,1.72,0,0,0-1.75-1.77A1.78,1.78,0,0,0,776.15,324.06Z"/><path d="M781.73,325.94v-3.48h-.88v-.72h.88v-1.46h.83v1.46h1.07v.72h-1.07v3.3c0,.4.17.68.54.68a.76.76,0,0,0,.56-.22l.24.62a1.35,1.35,0,0,1-1,.34A1.09,1.09,0,0,1,781.73,325.94Z"/><path d="M786.89,321.6a2.58,2.58,0,0,1,2.55,2.85v.21h-4.3a1.88,1.88,0,0,0,1.92,1.84,2.29,2.29,0,0,0,1.63-.67l.4.54a2.91,2.91,0,0,1-2.11.81,2.64,2.64,0,0,1-2.71-2.79A2.66,2.66,0,0,1,786.89,321.6Zm-1.75,2.46h3.49a1.72,1.72,0,0,0-1.75-1.77A1.78,1.78,0,0,0,785.14,324.06Z"/><path d="M790.52,325.75a2.39,2.39,0,0,0,1.75.76c.81,0,1.25-.36,1.25-.88s-.65-.77-1.36-.95c-.9-.21-1.93-.45-1.93-1.55,0-.82.72-1.53,2-1.53a2.68,2.68,0,0,1,2,.77l-.38.58a2.06,2.06,0,0,0-1.59-.68c-.72,0-1.17.33-1.17.81s.6.68,1.3.85c.92.2,2,.47,2,1.64,0,.9-.72,1.61-2.09,1.61a2.84,2.84,0,0,1-2.15-.83Z"/><path d="M752.28,334.39a3.67,3.67,0,0,1,3.75-3.8,3.3,3.3,0,0,1,2.81,1.45l-.77.43a2.49,2.49,0,0,0-2-1.07,3,3,0,0,0,0,6,2.46,2.46,0,0,0,2-1.07l.78.43a3.33,3.33,0,0,1-2.82,1.45A3.67,3.67,0,0,1,752.28,334.39Z"/><path d="M759.76,330.71h.83v7.34h-.83Z"/><path d="M765.61,337.3a2.62,2.62,0,0,1-1.9.88,1.49,1.49,0,0,1-1.69-1.69v-3.75h.82v3.49c0,.94.48,1.21,1.19,1.21a2,2,0,0,0,1.58-.8v-3.9h.82v5.31h-.82Z"/><path d="M767.83,336.75a2.39,2.39,0,0,0,1.75.76c.81,0,1.25-.36,1.25-.88s-.65-.77-1.36-.95c-.91-.21-1.93-.45-1.93-1.55,0-.82.72-1.53,2-1.53a2.69,2.69,0,0,1,2,.77l-.38.58a2.08,2.08,0,0,0-1.59-.68c-.72,0-1.18.33-1.18.81s.61.68,1.3.85c.93.2,2,.47,2,1.64,0,.9-.71,1.61-2.09,1.61a2.82,2.82,0,0,1-2.14-.83Z"/><path d="M772.92,336.94v-3.48H772v-.72h.88v-1.46h.83v1.46h1.07v.72h-1.07v3.3c0,.4.17.68.53.68a.74.74,0,0,0,.56-.22l.25.62a1.35,1.35,0,0,1-1,.34A1.09,1.09,0,0,1,772.92,336.94Z"/><path d="M778.08,332.6a2.59,2.59,0,0,1,2.55,2.85v.21h-4.3a1.88,1.88,0,0,0,1.91,1.84,2.3,2.3,0,0,0,1.64-.67l.4.54a2.91,2.91,0,0,1-2.11.81,2.63,2.63,0,0,1-2.71-2.79A2.66,2.66,0,0,1,778.08,332.6Zm-1.75,2.46h3.49a1.72,1.72,0,0,0-1.75-1.77A1.76,1.76,0,0,0,776.33,335.06Z"/><path d="M781.74,332.74h.83v.85a2.25,2.25,0,0,1,1.77-1v.84a1.61,1.61,0,0,0-.33,0,1.93,1.93,0,0,0-1.44.85v3.76h-.83Z"/><line class="cls-2" x1="652.83" y1="245.97" x2="668.63" y2="245.97"/><polyline class="cls-2" points="682.04 166.42 668.63 166.42 668.63 291.56 682.13 291.56"/><path d="M404.05,231.57H405v7.34h-.91Z"/><path d="M410,235.44c0-.94-.47-1.24-1.19-1.24a2,2,0,0,0-1.57.83v3.88h-.83V233.6h.83v.77a2.63,2.63,0,0,1,1.89-.9,1.51,1.51,0,0,1,1.7,1.71v3.73H410Z"/><path d="M412.43,237.8v-3.48h-.88v-.72h.88v-1.45h.83v1.45h1.07v.72h-1.07v3.31c0,.39.17.68.53.68a.83.83,0,0,0,.57-.22l.24.61a1.35,1.35,0,0,1-1,.34A1.09,1.09,0,0,1,412.43,237.8Z"/><path d="M417.59,233.47a2.58,2.58,0,0,1,2.55,2.85v.2h-4.3a1.87,1.87,0,0,0,1.91,1.84,2.31,2.31,0,0,0,1.64-.67l.4.54a2.87,2.87,0,0,1-2.11.81,2.79,2.79,0,0,1-.09-5.57Zm-1.75,2.45h3.49a1.72,1.72,0,0,0-1.75-1.77A1.77,1.77,0,0,0,415.84,235.92Z"/><path d="M421.25,231.57h.83v7.34h-.83Z"/><path d="M423.51,231.57h.82v7.34h-.82Z"/><path d="M425.62,232.19a.56.56,0,1,1,1.11,0,.56.56,0,0,1-1.11,0Zm.14,1.41h.83v5.31h-.83Z"/><path d="M428.42,239.66a2,2,0,0,0,1.73.73,1.53,1.53,0,0,0,1.71-1.6V238a2.24,2.24,0,0,1-1.79.95c-1.38,0-2.36-1-2.36-2.75s1-2.76,2.36-2.76a2.21,2.21,0,0,1,1.79.93v-.8h.82v5.16c0,1.76-1.23,2.31-2.53,2.31a2.72,2.72,0,0,1-2.14-.79Zm3.44-4.6a2,2,0,0,0-1.59-.86c-1.07,0-1.7.85-1.7,2s.63,2,1.7,2a2,2,0,0,0,1.59-.87Z"/><path d="M436.42,233.47a2.57,2.57,0,0,1,2.55,2.85v.2h-4.3a1.87,1.87,0,0,0,1.92,1.84,2.29,2.29,0,0,0,1.63-.67l.4.54a2.87,2.87,0,0,1-2.11.81,2.79,2.79,0,0,1-.09-5.57Zm-1.75,2.45h3.49a1.72,1.72,0,0,0-1.75-1.77A1.78,1.78,0,0,0,434.67,235.92Z"/><path d="M443.67,235.44c0-.94-.47-1.24-1.19-1.24a2,2,0,0,0-1.57.83v3.88h-.83V233.6h.83v.77a2.63,2.63,0,0,1,1.89-.9,1.51,1.51,0,0,1,1.7,1.71v3.73h-.83Z"/><path d="M446.09,237.8v-3.48h-.88v-.72h.88v-1.45h.82v1.45H448v.72h-1.08v3.31c0,.39.18.68.54.68a.8.8,0,0,0,.56-.22l.25.61a1.35,1.35,0,0,1-1,.34A1.08,1.08,0,0,1,446.09,237.8Z"/><path d="M453.4,232.39h-2.32v-.82h5.57v.82h-2.33v6.52h-.92Z"/><path d="M456.67,233.6h.83v.86a2.24,2.24,0,0,1,1.77-1v.85a1.11,1.11,0,0,0-.33,0,1.93,1.93,0,0,0-1.44.85v3.76h-.83Z"/><path d="M463.4,238.31a2.3,2.3,0,0,1-1.76.73,1.77,1.77,0,0,1-1.86-1.76,1.75,1.75,0,0,1,1.86-1.75,2.24,2.24,0,0,1,1.76.73v-1c0-.71-.57-1.12-1.34-1.12a2.11,2.11,0,0,0-1.63.74l-.38-.57a2.75,2.75,0,0,1,2.12-.88c1.12,0,2.06.5,2.06,1.79v3.65h-.83Zm0-1.52a1.78,1.78,0,0,0-1.46-.66,1.17,1.17,0,1,0,0,2.32,1.78,1.78,0,0,0,1.46-.66Z"/><path d="M465.89,234.32H465v-.72h.88v-.41a1.59,1.59,0,0,1,2.34-1.54l-.21.62a.86.86,0,0,0-.47-.12c-.54,0-.84.37-.84,1v.41h1.08v.72h-1.08v4.59h-.82Zm3.11,0h-.88v-.72H469v-.41a1.52,1.52,0,0,1,1.54-1.73,1.51,1.51,0,0,1,.8.19l-.2.63a.85.85,0,0,0-.48-.13c-.54,0-.83.37-.83,1v.41h1.08v.72h-1.08v4.59H469Zm2.74-2.13a.56.56,0,1,1,1.11,0,.56.56,0,0,1-1.11,0Zm.14,1.41h.83v5.31h-.83Z"/><path d="M476.49,233.47a2.27,2.27,0,0,1,1.95.92l-.55.51a1.56,1.56,0,0,0-1.35-.7,2.07,2.07,0,0,0,0,4.11,1.58,1.58,0,0,0,1.35-.7l.55.51a2.27,2.27,0,0,1-1.95.92,2.79,2.79,0,0,1,0-5.57Z"/><path d="M403.48,242.57H406a3.67,3.67,0,1,1,0,7.34h-2.51ZM406,249.1a2.86,2.86,0,0,0,0-5.71h-1.6v5.71Z"/><path d="M413.24,244.47a2.58,2.58,0,0,1,2.55,2.85v.2h-4.3a1.87,1.87,0,0,0,1.91,1.84,2.31,2.31,0,0,0,1.64-.67l.4.54a2.87,2.87,0,0,1-2.11.81,2.79,2.79,0,0,1-.09-5.57Zm-1.75,2.45H415a1.72,1.72,0,0,0-1.75-1.77A1.77,1.77,0,0,0,411.49,246.92Z"/><path d="M419.24,244.47a2.27,2.27,0,0,1,1.95.92l-.55.51a1.56,1.56,0,0,0-1.35-.7,2.07,2.07,0,0,0,0,4.11,1.58,1.58,0,0,0,1.35-.7l.55.51a2.27,2.27,0,0,1-1.95.92,2.79,2.79,0,0,1,0-5.57Z"/><path d="M422,243.19a.56.56,0,1,1,1.11,0,.56.56,0,0,1-1.11,0Zm.15,1.41H423v5.31h-.82Z"/><path d="M424.35,248.61a2.39,2.39,0,0,0,1.75.76c.81,0,1.25-.36,1.25-.88s-.65-.77-1.36-.94c-.9-.21-1.93-.45-1.93-1.55,0-.83.72-1.53,2-1.53a2.69,2.69,0,0,1,2,.77l-.38.57a2.07,2.07,0,0,0-1.59-.67c-.72,0-1.18.33-1.18.8s.61.68,1.3.85c.93.21,2,.47,2,1.65,0,.89-.71,1.6-2.09,1.6a2.82,2.82,0,0,1-2.14-.83Z"/><path d="M429.13,243.19a.56.56,0,1,1,1.11,0,.56.56,0,0,1-1.11,0Zm.15,1.41h.82v5.31h-.82Z"/><path d="M431.22,247.25c-.19-3.62,5.46-3.62,5.26,0C436.67,250.89,431,250.88,431.22,247.25Zm4.39,0a1.78,1.78,0,1,0-3.53,0A1.78,1.78,0,1,0,435.61,247.25Z"/><path d="M441.19,246.44c0-.94-.47-1.24-1.19-1.24a2,2,0,0,0-1.57.83v3.88h-.83V244.6h.83v.77a2.63,2.63,0,0,1,1.89-.9,1.51,1.51,0,0,1,1.69,1.71v3.73h-.82Z"/><path d="M452.37,243.81l-2.5,6.1h-.38l-2.48-6.1v6.1h-.92v-7.34h1.31l2.28,5.59,2.29-5.59h1.31v7.34h-.91Z"/><path d="M458.06,249.31a2.3,2.3,0,0,1-1.76.73,1.77,1.77,0,0,1-1.86-1.76,1.75,1.75,0,0,1,1.86-1.75,2.24,2.24,0,0,1,1.76.73v-1c0-.71-.57-1.12-1.34-1.12a2.11,2.11,0,0,0-1.63.74l-.38-.57a2.75,2.75,0,0,1,2.12-.88c1.12,0,2.06.5,2.06,1.79v3.65h-.83Zm0-1.52a1.78,1.78,0,0,0-1.46-.66,1.17,1.17,0,1,0,0,2.32,1.78,1.78,0,0,0,1.46-.66Z"/><path d="M462,247.52l-.88.87v1.52h-.82v-7.34h.82v4.86l2.8-2.83h1L462.63,247l2.36,2.9h-1.05Z"/><path d="M465.61,243.19a.56.56,0,1,1,1.11,0,.56.56,0,0,1-1.11,0Zm.14,1.41h.83v5.31h-.83Z"/><path d="M471.59,246.44c0-.94-.47-1.24-1.19-1.24a2.06,2.06,0,0,0-1.57.83v3.88H468V244.6h.82v.77a2.64,2.64,0,0,1,1.89-.9,1.51,1.51,0,0,1,1.7,1.71v3.73h-.83Z"/><path d="M474.25,250.66a2,2,0,0,0,1.73.73,1.53,1.53,0,0,0,1.71-1.6V249a2.24,2.24,0,0,1-1.79.95c-1.38,0-2.36-1-2.36-2.75s1-2.76,2.36-2.76a2.21,2.21,0,0,1,1.79.93v-.8h.82v5.16c0,1.76-1.23,2.31-2.53,2.31a2.72,2.72,0,0,1-2.14-.79Zm3.44-4.6a2,2,0,0,0-1.59-.86c-1.06,0-1.7.85-1.7,2s.64,2,1.7,2a2,2,0,0,0,1.59-.87Z"/><path class="cls-8" d="M456.53,219.06,448,219a5,5,0,0,1-4.27-2.86L438,203.37a5,5,0,0,0-4.27-2.85l-8.56,0"/><path class="cls-8" d="M439.43,213.33,438,216.16a5,5,0,0,1-4.29,2.83l-8.56,0"/><path class="cls-8" d="M456.59,200.59l-8.56,0a5.06,5.06,0,0,0-4.29,2.83l-1.43,2.84"/><polyline class="cls-8" points="456.6 196.33 460.87 200.6 456.58 204.85"/><polyline class="cls-8" points="456.86 214.38 460.81 218.34 456.84 222.28"/><polyline class="cls-8" points="425.22 196.23 420.93 200.48 425.19 204.75"/><polyline class="cls-8" points="425.16 214.7 420.87 218.95 425.13 223.23"/><path d="M500.11,236h-1.46v2.91h-.91v-7.33h2.94a2.13,2.13,0,0,1,2.3,2.21,2,2,0,0,1-1.9,2.13l2,3H502Zm.47-3.61h-1.93v2.8h1.93a1.4,1.4,0,1,0,0-2.8Z"/><path d="M506.15,233.47a2.57,2.57,0,0,1,2.55,2.85v.21h-4.3a1.87,1.87,0,0,0,1.92,1.83,2.33,2.33,0,0,0,1.64-.67l.39.54a2.88,2.88,0,0,1-2.11.82,2.79,2.79,0,0,1-.09-5.58Zm-1.75,2.45h3.49a1.72,1.72,0,0,0-1.75-1.77A1.78,1.78,0,0,0,504.4,235.92Z"/><path d="M513.14,238.31a2.32,2.32,0,0,1-1.76.74,1.77,1.77,0,0,1-1.86-1.76,1.74,1.74,0,0,1,1.86-1.75,2.24,2.24,0,0,1,1.76.72v-1c0-.71-.58-1.12-1.35-1.12a2.09,2.09,0,0,0-1.62.74l-.39-.57a2.76,2.76,0,0,1,2.12-.88c1.13,0,2.06.5,2.06,1.79v3.65h-.82Zm0-1.52a1.79,1.79,0,0,0-1.47-.66,1.17,1.17,0,1,0,0,2.32,1.79,1.79,0,0,0,1.47-.66Z"/><path d="M515.39,231.58h.83v7.33h-.83Z"/><path d="M517.15,235.89h2.64v.72h-2.64Z"/><path d="M522.57,232.39h-2.32v-.81h5.57v.81h-2.33v6.52h-.92Z"/><path d="M526.63,232.19a.56.56,0,1,1,1.11,0,.56.56,0,0,1-1.11,0Zm.15,1.41h.82v5.31h-.82Z"/><path d="M535.45,235.3c0-.67-.3-1.1-1-1.1a1.85,1.85,0,0,0-1.41.82v3.89h-.83V235.3c0-.67-.28-1.1-1-1.1a1.85,1.85,0,0,0-1.39.83v3.88H529V233.6h.83v.77a2.29,2.29,0,0,1,1.71-.9,1.36,1.36,0,0,1,1.43,1,2.23,2.23,0,0,1,1.79-1c1,0,1.48.54,1.48,1.6v3.84h-.82Z"/><path d="M540,233.47a2.57,2.57,0,0,1,2.55,2.85v.21h-4.3a1.87,1.87,0,0,0,1.91,1.83,2.3,2.3,0,0,0,1.64-.67l.4.54a2.88,2.88,0,0,1-2.11.82,2.79,2.79,0,0,1-.09-5.58Zm-1.75,2.45h3.49a1.72,1.72,0,0,0-1.75-1.77A1.78,1.78,0,0,0,538.26,235.92Z"/><path d="M508.63,243.39H506.3v-.81h5.57v.81h-2.33v6.52h-.91Z"/><path d="M511.89,244.6h.83v.86a2.26,2.26,0,0,1,1.77-1v.85a1.11,1.11,0,0,0-.33,0,1.93,1.93,0,0,0-1.44.85v3.76h-.83Z"/><path d="M518.63,249.31a2.32,2.32,0,0,1-1.76.74,1.77,1.77,0,0,1-1.86-1.76,1.74,1.74,0,0,1,1.86-1.75,2.24,2.24,0,0,1,1.76.72v-1c0-.71-.58-1.12-1.35-1.12a2.09,2.09,0,0,0-1.62.74l-.39-.57a2.75,2.75,0,0,1,2.12-.88c1.13,0,2.06.5,2.06,1.79v3.65h-.82Zm0-1.52a1.79,1.79,0,0,0-1.47-.66,1.17,1.17,0,1,0,0,2.32,1.79,1.79,0,0,0,1.47-.66Z"/><path d="M521.11,245.33h-.88v-.73h.88v-.41a1.6,1.6,0,0,1,2.34-1.54l-.2.62a.92.92,0,0,0-.48-.12c-.54,0-.83.37-.83,1v.41H523v.73h-1.07v4.58h-.83Zm3.11,0h-.88v-.73h.88v-.41a1.51,1.51,0,0,1,1.54-1.72,1.57,1.57,0,0,1,.81.18l-.21.63a.82.82,0,0,0-.47-.13c-.54,0-.84.37-.84,1v.41h1.08v.73h-1.08v4.58h-.83Zm2.74-2.14a.56.56,0,1,1,.55.55A.55.55,0,0,1,527,243.19Zm.15,1.41h.82v5.31h-.82Z"/><path d="M531.72,244.47a2.25,2.25,0,0,1,1.94.92l-.55.51a1.56,1.56,0,0,0-1.35-.7,2.07,2.07,0,0,0,0,4.11,1.6,1.6,0,0,0,1.35-.69l.55.5a2.26,2.26,0,0,1-1.94.93,2.79,2.79,0,0,1,0-5.58Z"/><path d="M496.37,254.81l-2.49,6.1h-.38l-2.48-6.1v6.1h-.92v-7.33h1.31l2.28,5.58,2.29-5.58h1.31v7.33h-.92Z"/><path d="M502.07,260.31a2.31,2.31,0,0,1-1.76.74,1.77,1.77,0,0,1-1.86-1.76,1.74,1.74,0,0,1,1.86-1.75,2.23,2.23,0,0,1,1.76.72v-1c0-.71-.57-1.12-1.34-1.12a2.1,2.1,0,0,0-1.63.74l-.38-.57a2.75,2.75,0,0,1,2.12-.88c1.12,0,2.06.5,2.06,1.79v3.65h-.83Zm0-1.52a1.78,1.78,0,0,0-1.46-.66,1.17,1.17,0,1,0,0,2.32,1.78,1.78,0,0,0,1.46-.66Z"/><path d="M507.91,257.44c0-.94-.47-1.24-1.19-1.24a2,2,0,0,0-1.57.83v3.88h-.82V255.6h.82v.77a2.63,2.63,0,0,1,1.89-.9,1.51,1.51,0,0,1,1.7,1.71v3.73h-.83Z"/><path d="M513.49,260.31a2.32,2.32,0,0,1-1.76.74,1.77,1.77,0,0,1-1.86-1.76,1.74,1.74,0,0,1,1.86-1.75,2.24,2.24,0,0,1,1.76.72v-1c0-.71-.57-1.12-1.34-1.12a2.1,2.1,0,0,0-1.63.74l-.39-.57a2.79,2.79,0,0,1,2.13-.88c1.12,0,2,.5,2,1.79v3.65h-.82Zm0-1.52a1.78,1.78,0,0,0-1.46-.66,1.17,1.17,0,1,0,0,2.32,1.78,1.78,0,0,0,1.46-.66Z"/><path d="M516.15,261.66a2,2,0,0,0,1.73.73,1.52,1.52,0,0,0,1.7-1.6V260a2.21,2.21,0,0,1-1.78,1c-1.39,0-2.36-1-2.36-2.75s1-2.76,2.36-2.76a2.2,2.2,0,0,1,1.78.93v-.8h.83v5.16c0,1.76-1.23,2.31-2.53,2.31a2.75,2.75,0,0,1-2.15-.79Zm3.43-4.6a2,2,0,0,0-1.58-.86c-1.07,0-1.71.85-1.71,2s.64,2,1.71,2a1.93,1.93,0,0,0,1.58-.87Z"/><path d="M524.15,255.47a2.58,2.58,0,0,1,2.55,2.85v.21h-4.3a1.86,1.86,0,0,0,1.91,1.83,2.31,2.31,0,0,0,1.64-.67l.4.54a2.9,2.9,0,0,1-2.11.82,2.79,2.79,0,0,1-.09-5.58Zm-1.75,2.45h3.49a1.72,1.72,0,0,0-1.75-1.77A1.77,1.77,0,0,0,522.4,257.92Z"/><path d="M534.22,257.3c0-.67-.29-1.1-1-1.1a1.85,1.85,0,0,0-1.41.82v3.89H531V257.3c0-.67-.28-1.1-1-1.1a1.83,1.83,0,0,0-1.39.83v3.88h-.83V255.6h.83v.77a2.29,2.29,0,0,1,1.71-.9,1.36,1.36,0,0,1,1.43,1,2.22,2.22,0,0,1,1.78-1c1,0,1.49.54,1.49,1.6v3.84h-.83Z"/><path d="M538.79,255.47a2.58,2.58,0,0,1,2.55,2.85v.21H537a1.87,1.87,0,0,0,1.91,1.83,2.31,2.31,0,0,0,1.64-.67l.4.54a2.88,2.88,0,0,1-2.11.82,2.79,2.79,0,0,1-.09-5.58ZM537,257.92h3.49a1.72,1.72,0,0,0-1.75-1.77A1.77,1.77,0,0,0,537,257.92Z"/><path d="M546,257.44c0-.94-.48-1.24-1.19-1.24a2,2,0,0,0-1.57.83v3.88h-.83V255.6h.83v.77a2.63,2.63,0,0,1,1.89-.9,1.51,1.51,0,0,1,1.69,1.71v3.73H546Z"/><path d="M548.46,259.8v-3.47h-.88v-.73h.88v-1.45h.82v1.45h1.08v.73h-1.08v3.3c0,.39.18.68.54.68a.8.8,0,0,0,.56-.22l.24.61a1.32,1.32,0,0,1-1,.35C548.85,261.05,548.46,260.59,548.46,259.8Z"/><path class="cls-8" d="M535.59,219.06,527,219a5,5,0,0,1-4.27-2.86l-5.67-12.81a5,5,0,0,0-4.27-2.85l-8.56,0"/><path class="cls-8" d="M518.5,213.33l-1.44,2.83a5,5,0,0,1-4.29,2.83l-8.56,0"/><path class="cls-8" d="M535.66,200.59l-8.56,0a5,5,0,0,0-4.29,2.83l-1.44,2.84"/><polyline class="cls-8" points="535.67 196.33 539.93 200.6 535.64 204.85"/><polyline class="cls-8" points="535.93 214.38 539.88 218.34 535.9 222.28"/><polyline class="cls-8" points="504.29 196.23 500 200.48 504.26 204.75"/><polyline class="cls-8" points="504.23 214.7 499.94 218.95 504.2 223.23"/><path d="M507.07,101.59h3.13a1.69,1.69,0,0,1,1.88,1.7,1.51,1.51,0,0,1-1.16,1.53,1.65,1.65,0,0,1,1.29,1.64,1.74,1.74,0,0,1-1.93,1.8h-3.21Zm2.94,2.83a1,1,0,1,0,0-2h-1.94v2Zm.05,3a1,1,0,0,0,1.12-1,1,1,0,0,0-1.12-1h-2v2.08Z"/><path d="M513.2,101.59h1v6.67h-1Z"/><path d="M518.62,101.48a3.14,3.14,0,0,1,2.64,1.32l-.81.47a2.3,2.3,0,0,0-1.83-.9,2.57,2.57,0,0,0,0,5.13,2.59,2.59,0,0,0,1.69-.66v-1.2h-2.14v-.88h3.14v2.45a3.55,3.55,0,0,1-2.69,1.18,3.46,3.46,0,1,1,0-6.91Z"/><path d="M521.9,105.45h2.4v.78h-2.4Z"/><path d="M525.09,101.59h1v6.67h-1Z"/><path d="M527.33,101.59h2.81a2.05,2.05,0,1,1,0,4.1h-1.81v2.57h-1Zm2.68.88h-1.68v2.34H530a1.17,1.17,0,1,0,0-2.34Z"/><path d="M513.43,110.81h1.14l2.12,5.58,2.14-5.58H520l-2.65,6.67h-1.25Z"/><path d="M520.53,110.81H525v.88h-3.47v2h3.4v.88h-3.4v2.08H525v.88h-4.47Z"/><circle class="cls-4" cx="519.45" cy="109" r="19.5"/><path d="M428.9,101.59H432a1.69,1.69,0,0,1,1.88,1.7,1.51,1.51,0,0,1-1.16,1.53,1.65,1.65,0,0,1,1.29,1.64,1.74,1.74,0,0,1-1.93,1.8H428.9Zm2.94,2.83a1,1,0,1,0,0-2H429.9v2Zm.05,3a1,1,0,0,0,1.12-1,1,1,0,0,0-1.12-1h-2v2.08Z"/><path d="M435,101.59h1v6.67h-1Z"/><path d="M440.45,101.48a3.14,3.14,0,0,1,2.64,1.32l-.81.47a2.3,2.3,0,0,0-1.83-.9,2.57,2.57,0,0,0,0,5.13,2.54,2.54,0,0,0,1.68-.66v-1.2H440v-.88h3.13v2.45a3.51,3.51,0,0,1-2.68,1.18,3.46,3.46,0,1,1,0-6.91Z"/><path d="M443.73,105.45h2.4v.78h-2.4Z"/><path d="M446.92,101.59h1v6.67h-1Z"/><path d="M449.16,101.59H452a2.05,2.05,0,1,1,0,4.1h-1.81v2.57h-1Zm2.68.88h-1.68v2.34h1.68a1.17,1.17,0,1,0,0-2.34Z"/><path d="M435.25,110.81h1.14l2.13,5.58,2.14-5.58h1.14l-2.65,6.67H437.9Z"/><path d="M442.35,110.81h4.48v.88h-3.48v2h3.41v.88h-3.41v2.08h3.48v.88h-4.48Z"/><circle class="cls-4" cx="441.27" cy="109" r="19.5"/><path class="cls-12" d="M780.86,296.68l-2.84-.89a10.24,10.24,0,0,0,.09-1.36,10,10,0,0,0-1.66-5.53l2.17-2s.62-.58.28-1l-.06-.07c-.34-.42-1,.06-1,.06l-2.47,1.66a10,10,0,0,0-6.36-3.06l-.24-3s-.06-.85-.6-.85H768c-.54,0-.6.85-.6.85l-.24,3a10,10,0,0,0-6.36,3.06l-2.47-1.66s-.7-.48-1-.06l-.06.07c-.34.43.29,1,.29,1l2.17,2a10,10,0,0,0-1.67,5.53,10.24,10.24,0,0,0,.1,1.36l-2.84.89s-.82.25-.7.78l0,.09c.12.53,1,.4,1,.4l2.94-.42a10.07,10.07,0,0,0,4.4,5.52l-1.07,2.77s-.31.79.18,1l.08,0c.49.24.92-.5.92-.5l1.5-2.57a10.06,10.06,0,0,0,7.06,0l1.5,2.57s.43.74.92.5l.08,0c.49-.24.18-1,.18-1l-1.07-2.77a10.07,10.07,0,0,0,4.4-5.52l3,.42s.84.13,1-.4l0-.09C781.67,296.93,780.86,296.68,780.86,296.68Zm-4.8-2.25a5.85,5.85,0,0,1,0,.73l-4.5-1.42,0-.18,3.44-3.22A7.91,7.91,0,0,1,776.06,294.43Zm-2.46-5.75-3.92,2.63-.16-.08-.38-4.7A7.91,7.91,0,0,1,773.6,288.68Zm-5.52,4.38a1.38,1.38,0,1,1-1.37,1.37A1.37,1.37,0,0,1,768.08,293.06ZM767,286.53l-.38,4.7-.16.08-3.92-2.63A8,8,0,0,1,767,286.53Zm-6.92,7.9a7.91,7.91,0,0,1,1.14-4.09l3.44,3.22,0,.18-4.5,1.42C760.12,294.92,760.1,294.68,760.1,294.43Zm.51,2.8,4.67-.68.12.14-1.7,4.41A8.08,8.08,0,0,1,760.61,297.23Zm7.47,5.18a8.08,8.08,0,0,1-2.47-.39l2.38-4.08h.18l2.39,4.08A8.1,8.1,0,0,1,768.08,302.41Zm4.39-1.31-1.7-4.41.11-.14,4.67.68A8.06,8.06,0,0,1,772.47,301.1Z"/><polygon class="cls-10" points="768.08 275.51 753.03 282.76 749.32 299.04 759.73 312.1 776.43 312.1 786.85 299.04 783.13 282.76 768.08 275.51"/><path d="M171.4,231.57h2.51a3.67,3.67,0,1,1,0,7.34H171.4Zm2.51,6.53a2.86,2.86,0,0,0,0-5.71h-1.6v5.71Z"/><path d="M178.88,231.57h2.51a3.67,3.67,0,1,1,0,7.34h-2.51Zm2.51,6.53a2.86,2.86,0,0,0,0-5.71h-1.6v5.71Z"/><path d="M186,236.25c-.2-3.62,5.45-3.62,5.26,0C191.47,239.88,185.83,239.89,186,236.25Zm4.39,0a1.78,1.78,0,1,0-3.53,0A1.78,1.78,0,1,0,190.41,236.25Z"/><path d="M192.53,237.18a3.1,3.1,0,0,0,2.31,1c1.31,0,1.73-.7,1.73-1.26,0-.88-.89-1.13-1.86-1.39-1.18-.31-2.49-.64-2.49-2.08,0-1.21,1.08-2,2.52-2a3.47,3.47,0,0,1,2.61,1l-.55.67a2.79,2.79,0,0,0-2.13-.88c-.87,0-1.5.47-1.5,1.16s.84,1,1.78,1.21c1.2.32,2.56.7,2.56,2.24,0,1.07-.72,2.15-2.7,2.15a3.65,3.65,0,0,1-2.82-1.16Z"/><path d="M168.77,243.81l-2.5,6.1h-.37l-2.49-6.1v6.1h-.91v-7.34h1.31l2.28,5.59,2.28-5.59h1.31v7.34h-.91Z"/><path d="M171,243.19a.56.56,0,1,1,1.11,0,.56.56,0,0,1-1.11,0Zm.15,1.41H172v5.31h-.82Z"/><path d="M173.57,248.8v-3.48h-.88v-.72h.88v-1.45h.82v1.45h1.08v.72h-1.08v3.31c0,.39.18.68.54.68a.8.8,0,0,0,.56-.22l.24.61a1.33,1.33,0,0,1-1,.34A1.08,1.08,0,0,1,173.57,248.8Z"/><path d="M176.27,243.19a.56.56,0,1,1,1.11,0,.56.56,0,0,1-1.11,0Zm.14,1.41h.83v5.31h-.83Z"/><path d="M179.08,250.66a2,2,0,0,0,1.72.73,1.53,1.53,0,0,0,1.71-1.6V249a2.24,2.24,0,0,1-1.78.95c-1.39,0-2.37-1-2.37-2.75s1-2.76,2.37-2.76a2.21,2.21,0,0,1,1.78.93v-.8h.82v5.16c0,1.76-1.23,2.31-2.53,2.31a2.73,2.73,0,0,1-2.14-.79Zm3.43-4.6a2,2,0,0,0-1.59-.86c-1.06,0-1.7.85-1.7,2s.64,2,1.7,2a2,2,0,0,0,1.59-.87Z"/><path d="M188.09,249.31a2.31,2.31,0,0,1-1.76.73,1.76,1.76,0,0,1-1.86-1.76,1.74,1.74,0,0,1,1.86-1.75,2.25,2.25,0,0,1,1.76.73v-1c0-.71-.58-1.12-1.35-1.12a2.09,2.09,0,0,0-1.62.74l-.39-.57a2.75,2.75,0,0,1,2.12-.88c1.13,0,2.06.5,2.06,1.79v3.65h-.82Zm0-1.52a1.79,1.79,0,0,0-1.47-.66,1.17,1.17,0,1,0,0,2.32,1.79,1.79,0,0,0,1.47-.66Z"/><path d="M190.51,248.8v-3.48h-.88v-.72h.88v-1.45h.82v1.45h1.08v.72h-1.08v3.31c0,.39.18.68.54.68a.8.8,0,0,0,.56-.22l.24.61a1.33,1.33,0,0,1-1,.34A1.08,1.08,0,0,1,190.51,248.8Z"/><path d="M193.21,243.19a.56.56,0,1,1,1.11,0,.56.56,0,0,1-1.11,0Zm.14,1.41h.83v5.31h-.83Z"/><path d="M195.3,247.25c-.19-3.62,5.45-3.62,5.26,0C200.75,250.89,195.11,250.88,195.3,247.25Zm4.39,0a1.78,1.78,0,1,0-3.53,0A1.78,1.78,0,1,0,199.69,247.25Z"/><path d="M205.27,246.44c0-.94-.48-1.24-1.19-1.24a2,2,0,0,0-1.57.83v3.88h-.83V244.6h.83v.77a2.63,2.63,0,0,1,1.89-.9,1.51,1.51,0,0,1,1.69,1.71v3.73h-.82Z"/><polyline class="cls-8" points="174.74 184.22 184.21 193.67 189.76 188"/><polyline class="cls-8" points="187.37 185.8 192.1 185.8 192.1 190.52"/><ellipse class="cls-8" cx="184.21" cy="204.69" rx="7.89" ry="7.87"/><polyline class="cls-8" points="197.47 186.44 193.84 199.3 201.51 201.36"/><polyline class="cls-8" points="202.27 198.19 204.59 202.31 200.46 204.62"/><polyline class="cls-8" points="206.67 207.18 193.67 210.39 195.66 218.06"/><polyline class="cls-8" points="198.79 217.15 196.34 221.19 192.29 218.75"/><polyline class="cls-8" points="171.59 223.39 174.77 210.41 167.03 208.61"/><polyline class="cls-8" points="166.38 211.8 163.93 207.76 167.97 205.31"/><polyline class="cls-8" points="193.54 225.22 184.14 215.71 178.54 221.34"/><polyline class="cls-8" points="180.93 223.56 176.19 223.53 176.22 218.81"/><polyline class="cls-8" points="161.67 203.12 174.53 199.38 172.22 191.8"/><polyline class="cls-8" points="169.13 192.83 171.41 188.69 175.56 190.97"/><path d="M685.13,317.85v5.92h-.91v-7.34h.93l4.23,5.8v-5.8h.91v7.34h-.88Z"/><path d="M695.37,316.31a3.51,3.51,0,0,1,2.85,1.38l-.73.45a2.71,2.71,0,0,0-2.12-1,3,3,0,0,0,0,6,2.9,2.9,0,0,0,2-.79v-1.5h-2.52V320h3.43v2.65a3.81,3.81,0,0,1-2.88,1.26,3.8,3.8,0,0,1,0-7.6Z"/><path d="M699.63,316.43h.91v7.34h-.91Z"/><path d="M703.06,317.85v5.92h-.92v-7.34h.94l4.22,5.8v-5.8h.92v7.34h-.88Z"/><path d="M712.55,320.65l-2.34,3.12H709.1L712,320l-2.7-3.58h1.11l2.18,2.94,2.17-2.94h1.11L713.15,320l2.84,3.77h-1.1Z"/><path d="M690.72,327.43h2.94a2.22,2.22,0,1,1,0,4.43h-2v2.91h-.91Zm2.83.82h-1.92V331h1.92a1.4,1.4,0,1,0,0-2.79Z"/><path d="M697,327.43h.83v7.34H697Z"/><path d="M703,334a2.57,2.57,0,0,1-1.89.88,1.5,1.5,0,0,1-1.7-1.69v-3.75h.83V333c0,.93.47,1.21,1.19,1.21a2,2,0,0,0,1.57-.81v-3.9h.83v5.31H703Z"/><path d="M705.31,333.47a2.42,2.42,0,0,0,1.75.76c.82,0,1.26-.36,1.26-.88s-.65-.77-1.37-.94c-.9-.21-1.92-.45-1.92-1.56,0-.82.71-1.52,2-1.52a2.69,2.69,0,0,1,2,.77l-.39.57A2,2,0,0,0,707,330c-.73,0-1.18.33-1.18.8s.6.68,1.3.85c.92.21,2,.47,2,1.65,0,.89-.72,1.6-2.09,1.6a2.84,2.84,0,0,1-2.15-.83Z"/><text class="cls-13" transform="translate(683.36 198.84)">NGINX<tspan x="6.5" y="11">Plus</tspan></text><path d="M600.13,138.61v5.92h-.92v-7.34h.94l4.22,5.8v-5.8h.92v7.34h-.88Z"/><path d="M610.37,137.07a3.48,3.48,0,0,1,2.85,1.38l-.73.45a2.68,2.68,0,0,0-2.12-1,3,3,0,0,0,0,6,2.9,2.9,0,0,0,2-.79v-1.5h-2.52v-.81h3.43v2.65a3.81,3.81,0,0,1-2.88,1.26,3.8,3.8,0,0,1,0-7.6Z"/><path d="M614.62,137.19h.92v7.34h-.92Z"/><path d="M618.06,138.61v5.92h-.92v-7.34h.94l4.22,5.8v-5.8h.92v7.34h-.88Z"/><path d="M627.55,141.41l-2.34,3.12H624.1l2.86-3.76-2.7-3.58h1.11l2.18,2.94,2.17-2.94h1.11l-2.69,3.57,2.85,3.77h-1.1Z"/><path d="M605.72,148.19h2.94a2.21,2.21,0,1,1,0,4.42h-2v2.92h-.91Zm2.83.82h-1.92v2.79h1.92a1.4,1.4,0,1,0,0-2.79Z"/><path d="M612,148.19h.82v7.34H612Z"/><path d="M618,154.78a2.61,2.61,0,0,1-1.89.88,1.5,1.5,0,0,1-1.7-1.69v-3.75h.83v3.49c0,.94.47,1.21,1.19,1.21a2,2,0,0,0,1.57-.8v-3.9h.83v5.31H618Z"/><path d="M620.31,154.23a2.41,2.41,0,0,0,1.75.76c.82,0,1.26-.36,1.26-.88s-.65-.77-1.37-1c-.9-.2-1.92-.45-1.92-1.55,0-.82.71-1.53,2-1.53a2.73,2.73,0,0,1,2,.77l-.39.58a2,2,0,0,0-1.58-.67c-.73,0-1.18.33-1.18.8s.6.68,1.3.85c.92.2,2,.47,2,1.64,0,.9-.72,1.61-2.09,1.61a2.84,2.84,0,0,1-2.15-.83Z"/><polygon class="cls-8" points="717.25 300.59 717.25 280.36 699.75 270.24 682.25 280.36 682.25 300.59 699.75 310.71 717.25 300.59"/><polyline class="cls-8" points="687.5 296.5 687.5 284.6 698.23 296.5 698.23 284.6"/><line class="cls-8" x1="708.06" y1="295.05" x2="708.06" y2="286.05"/><line class="cls-8" x1="703.56" y1="290.55" x2="712.57" y2="290.55"/><polygon class="cls-8" points="717.25 175.66 717.25 155.43 699.75 145.31 682.25 155.43 682.25 175.66 699.75 185.78 717.25 175.66"/><polyline class="cls-8" points="687.5 171.57 687.5 159.67 698.23 171.57 698.23 159.67"/><line class="cls-8" x1="708.06" y1="170.12" x2="708.06" y2="161.12"/><line class="cls-8" x1="703.56" y1="165.62" x2="712.57" y2="165.62"/><polygon class="cls-8" points="632.25 121.35 632.25 101.12 614.75 91 597.25 101.12 597.25 121.35 614.75 131.47 632.25 121.35"/><polyline class="cls-8" points="602.5 117.26 602.5 105.36 613.23 117.26 613.23 105.36"/><line class="cls-8" x1="623.06" y1="115.81" x2="623.06" y2="106.81"/><line class="cls-8" x1="618.56" y1="111.31" x2="627.57" y2="111.31"/><path class="cls-8" d="M777.48,140v2.77c0,2.47-4.08,4.47-9.52,4.47s-9.61-2-9.61-4.47V137c0,1.08.85,2.07,2.25,2.85A15.4,15.4,0,0,0,768,141.5a15,15,0,0,0,7.27-1.62c1.4-.78,2.25-1.77,2.25-2.85v-3.25a2.45,2.45,0,0,1-.68,1.62c-1.43,1.67-4.67,2.85-8.84,2.85s-7.5-1.18-8.93-2.85a2.45,2.45,0,0,1-.68-1.62V128.9a3.13,3.13,0,0,0,1.6,2.44,11.43,11.43,0,0,0,4.14,1.62,18,18,0,0,0,3.87.41,17.1,17.1,0,0,0,3.78-.41,11.43,11.43,0,0,0,4.14-1.62,3.13,3.13,0,0,0,1.6-2.44c0-2.47-4.08-4.47-9.52-4.47-4.16,0-7.5,1.17-8.93,2.84"/><polyline class="cls-8" points="777.48 139.95 787.16 139.95 787.16 118.08"/><path class="cls-8" d="M748.66,118.08V140h9.63m-9.63-27.34h38.5v5.47h-38.5Z"/><line class="cls-8" x1="751.41" y1="115.35" x2="754.16" y2="115.35"/><line class="cls-8" x1="756.91" y1="115.35" x2="759.66" y2="115.35"/><line class="cls-8" x1="762.41" y1="115.35" x2="765.16" y2="115.35"/><path class="cls-8" d="M785.62,115.35a1.21,1.21,0,1,1-1.21-1.2A1.2,1.2,0,0,1,785.62,115.35Z"/></g></g></svg>