<svg id="Layer_1" data-name="Layer 1" xmlns="http://www.w3.org/2000/svg" viewBox="0 0 300 300"><defs><style>.cls-1{fill:none;stroke:#00953b;stroke-linecap:round;stroke-linejoin:round;stroke-width:8px;}.cls-2{fill:#00953b;}.cls-3{fill:#fff;}.cls-4{fill:#009639;}</style></defs><title>icons-PMS355</title><line class="cls-1" x1="56.34545" y1="149.99967" x2="6.2747" y2="149.99967"/><line class="cls-1" x1="33.6685" y1="166.22959" x2="56.34545" y2="150"/><line class="cls-1" x1="33.6685" y1="133.7704" x2="56.34545" y2="150"/><line class="cls-1" x1="69.01299" y1="115.39318" x2="33.60762" y2="79.98781"/><line class="cls-1" x1="41.50168" y1="110.83444" x2="69.01276" y2="115.39341"/><line class="cls-1" x1="64.45379" y1="87.88233" x2="69.01276" y2="115.39341"/><line class="cls-1" x1="69.01299" y1="187.00149" x2="33.60762" y2="222.40685"/><line class="cls-1" x1="41.50168" y1="191.56022" x2="69.01276" y2="187.00126"/><line class="cls-1" x1="64.45379" y1="214.51234" x2="69.01276" y2="187.00126"/><path class="cls-2" d="M293.42623,167.16445,279.357,106.04764a10.93043,10.93043,0,0,0-5.8528-7.316L216.55182,71.60609a11.00989,11.00989,0,0,0-4.61471-1.013,13.55835,13.55835,0,0,0-4.72726.90043L150.25748,98.73163a10.74784,10.74784,0,0,0-5.8528,7.316l-14.06924,61.11681a11.2684,11.2684,0,0,0,2.13852,9.22942l39.39387,48.961a10.72289,10.72289,0,0,0,8.44163,4.05194h63.14283a10.72279,10.72279,0,0,0,8.44146-4.05194l39.394-48.961A10.525,10.525,0,0,0,293.42623,167.16445Z"/><path class="cls-3" d="M269.00193,162.32463h-.11243c-.11267,0-.22522,0-.22522-.11255-.2251,0-.45019-.11255-.67529-.11255a15.38067,15.38067,0,0,0-2.13855-.2251,4.2233,4.2233,0,0,1-1.12561-.11255h-.11243a29.70776,29.70776,0,0,1-6.07788-1.01294,2.19328,2.19328,0,0,1-1.23816-1.23816c0-.11254-.11255-.11254-.11255-.22509l-1.46325-.45032a44.51925,44.51925,0,0,0-.78772-15.87,46.38333,46.38333,0,0,0-6.303-14.7445l1.12549-1.01319v-.22509a2.54318,2.54318,0,0,1,.56262-1.68824,32.84612,32.84612,0,0,1,5.06506-3.48925c.33753-.2251.6753-.33765,1.01294-.56275a16.95363,16.95363,0,0,0,1.91345-1.12549c.11243-.11255.33753-.22509.56263-.45019.11267-.11255.22509-.11255.22509-.2251a3.75912,3.75912,0,0,0,.78809-5.06494,3.20228,3.20228,0,0,0-2.58887-1.238,4.18323,4.18323,0,0,0-2.47619.90039c-.11243.11255-.11243.11255-.2251.2251-.22522.11255-.33753.33765-.56262.4502a18.65149,18.65149,0,0,0-1.46338,1.57568,5.1999,5.1999,0,0,1-.78784.788,28.61663,28.61663,0,0,1-4.50208,4.05188,1.816,1.816,0,0,1-1.01306.33765,1.42746,1.42746,0,0,1-.67529-.11255h-.2251l-1.35071.90051a54.66238,54.66238,0,0,0-4.61462-4.2771,44.94935,44.94935,0,0,0-23.52393-9.34192l-.11255-1.46325-.2251-.2251a2.35193,2.35193,0,0,1-.90039-1.46326,39.49621,39.49621,0,0,1,.33765-6.07788v-.11255a3.99874,3.99874,0,0,1,.2251-1.12548c.11255-.6753.22509-1.35059.33764-2.13855V95.01725a3.434,3.434,0,0,0-5.96533-2.58862,3.56546,3.56546,0,0,0-1.01294,2.58862v.90052a6.55308,6.55308,0,0,0,.33765,2.13855c.11255.33764.11255.67529.2251,1.12548v.11255a29.076,29.076,0,0,1,.33764,6.07788,2.35188,2.35188,0,0,1-.90039,1.46326l-.2251.2251-.11254,1.46326a56.54683,56.54683,0,0,0-6.07789.90039,43.3891,43.3891,0,0,0-22.28576,12.606l-1.12561-.78784h-.2251c-.2251,0-.45019.11255-.67529.11255a1.8153,1.8153,0,0,1-1.01294-.33765,29.84158,29.84158,0,0,1-4.5022-4.16442,5.19446,5.19446,0,0,0-.78784-.788,18.67088,18.67088,0,0,0-1.46326-1.57568c-.11242-.11255-.33752-.2251-.56262-.4502-.11279-.11255-.22522-.11255-.22522-.2251a3.93346,3.93346,0,0,0-2.4762-.90039,3.20242,3.20242,0,0,0-2.58886,1.238,3.75912,3.75912,0,0,0,.78808,5.06494c.11243,0,.11243.11255.2251.11255.2251.11255.33752.33765.56274.4502a16.94563,16.94563,0,0,0,1.91333,1.12549,4.55866,4.55866,0,0,1,1.01294.56274,32.84555,32.84555,0,0,1,5.06507,3.48926,2.06762,2.06762,0,0,1,.56262,1.68823v.2251l1.12561,1.01306a3.94234,3.94234,0,0,0-.56262.90051,43.83506,43.83506,0,0,0-6.3031,29.71411l-1.46326.4502c0,.11255-.11255.11255-.11255.22522a2.61722,2.61722,0,0,1-1.238,1.238,28.41819,28.41819,0,0,1-6.078,1.01306h-.11243a3.82884,3.82884,0,0,0-1.12561.11255,15.38073,15.38073,0,0,0-2.13855.22509c-.22509,0-.45019.11255-.67529.11255a.41344.41344,0,0,0-.33764.11255,3.69116,3.69116,0,0,0-2.92652,4.16455,3.46909,3.46909,0,0,0,3.60181,2.58862,2.47836,2.47836,0,0,0,.90039-.11254c.11255,0,.2251,0,.2251-.11243.22522,0,.45031-.11267.67541-.11267a10.83751,10.83751,0,0,0,2.026-.78784c.33753-.11255.6753-.33765,1.01294-.4502h.11255a27.6505,27.6505,0,0,1,5.85278-1.68835h.2251a2.504,2.504,0,0,1,1.46314.56286c.11267,0,.11267.11255.22509.11255l1.57581-.2251a44.51527,44.51527,0,0,0,14.74463,21.16,45.57612,45.57612,0,0,0,4.83972,3.26416l-.67529,1.46313c0,.11267.11255.11267.11255.2251a2.31078,2.31078,0,0,1,.22509,1.8009,31.73326,31.73326,0,0,1-2.92627,5.29v.11255c-.22509.33765-.45019.56275-.67529.90039-.45032.56287-.78808,1.12549-1.23828,1.80078a2.46792,2.46792,0,0,0-.33752.563.39329.39329,0,0,1-.11268.2251,3.55972,3.55972,0,0,0,1.46338,4.8396,2.99558,2.99558,0,0,0,1.35059.33789,4.04671,4.04671,0,0,0,3.37659-2.13867.39309.39309,0,0,1,.11242-.2251,2.45974,2.45974,0,0,1,.33777-.56274,21.35274,21.35274,0,0,0,.67542-2.02588q.16863-.50665.33752-1.01319a26.46169,26.46169,0,0,1,2.36365-5.62768,2.88929,2.88929,0,0,1,1.46313-1.01282c.11267,0,.11267,0,.2251-.11267l.78809-1.46313a43.97584,43.97584,0,0,0,15.75744,2.92651,40.86337,40.86337,0,0,0,9.79224-1.12561,50.02348,50.02348,0,0,0,5.85278-1.68836l.67542,1.23816c.11255,0,.11255,0,.2251.11243a2.08661,2.08661,0,0,1,1.46313,1.01306,38.54683,38.54683,0,0,1,2.36365,5.62781v.1123q.16882.50683.33764,1.01319a14.25456,14.25456,0,0,0,.6753,2.02588c.11255.22509.22509.33764.33777.56274a.393.393,0,0,0,.11254.2251,3.82365,3.82365,0,0,0,3.37647,2.13867,2.99609,2.99609,0,0,0,1.35071-.33789,3.35213,3.35213,0,0,0,1.68835-2.02588,4.07094,4.07094,0,0,0-.2251-2.81372c0-.11267-.11254-.11267-.11254-.2251a2.4681,2.4681,0,0,0-.33765-.563,10.20467,10.20467,0,0,0-1.23816-1.80078c-.2251-.33764-.4502-.56274-.67542-.90039v-.11255a25.26163,25.26163,0,0,1-2.92626-5.29,3.13653,3.13653,0,0,1,.11254-1.8009c0-.11243.11255-.11243.11255-.2251l-.56274-1.35071a44.65161,44.65161,0,0,0,19.58447-24.64929l1.35059.22522c.11255,0,.11255-.11255.2251-.11255a2.85907,2.85907,0,0,1,1.46313-.56286h.2251a27.65109,27.65109,0,0,1,5.85278,1.68835h.11267c.33753.11255.67529.33765,1.01282.4502a10.83872,10.83872,0,0,0,2.02612.78784c.2251,0,.4502.11255.67529.11255a.41319.41319,0,0,1,.33765.11267,2.48063,2.48063,0,0,0,.90039.11243,3.78878,3.78878,0,0,0,3.60181-2.58863A4.33223,4.33223,0,0,0,269.00193,162.32463ZM236.5864,127.658l-14.74463,10.46753a2.9972,2.9972,0,0,1-3.93933-.67541,2.49835,2.49835,0,0,1-.56274-1.238l-1.01306-18.34632A34.16316,34.16316,0,0,1,236.5864,127.658Zm-27.46313,19.58435h5.51513l3.37671,4.2771-1.12561,5.29-4.95239,2.36365-4.95239-2.36365-1.23816-5.29Zm-5.17749-28.81372c1.238-.2251,2.36364-.45032,3.6018-.67541l-1.01306,18.00866a3.0806,3.0806,0,0,1-3.03894,2.92639,2.6735,2.6735,0,0,1-1.35059-.33764L187.17515,127.658A34.33532,34.33532,0,0,1,203.94578,118.42863ZM181.77256,134.4113l13.394,11.93066a2.99664,2.99664,0,0,1,.33753,4.16455,2.24,2.24,0,0,1-1.35059.90039l-17.4458,5.06494A36.23378,36.23378,0,0,1,181.77256,134.4113ZM199.66868,166.039,192.803,182.58439a35.478,35.478,0,0,1-14.06933-17.671l17.896-3.03894a3.03486,3.03486,0,0,1,3.15162,2.36353A3.21558,3.21558,0,0,1,199.66868,166.039Zm20.14721,21.27259a36.75341,36.75341,0,0,1-7.87878.90051,38.13171,38.13171,0,0,1-11.36792-1.8009l8.89172-16.0951a2.95471,2.95471,0,0,1,3.60181-.78808,4.80209,4.80209,0,0,1,1.35059,1.23828l8.66662,15.6449C222.067,186.74894,220.94138,186.974,219.81589,187.31157Zm21.948-15.6449a35.71954,35.71954,0,0,1-10.80517,10.91772l-7.09082-16.99572a3.02953,3.02953,0,0,1,1.57568-3.48914,3.5948,3.5948,0,0,1,1.57568-.33765l18.00879,3.03894A22.64843,22.64843,0,0,1,241.76389,171.66667Zm5.29-15.19483-17.2207-4.95239a3.05077,3.05077,0,0,1-2.13855-3.60181,2.68284,2.68284,0,0,1,.67529-1.238l13.619-12.26831a36.05642,36.05642,0,0,1,4.2771,10.69262A35.49132,35.49132,0,0,1,247.05393,156.47184Z"/><path class="cls-4" d="M69.16078,165.00091a3.03094,3.03094,0,0,0,1.13868,1.13l23.29411,13.44887.00073-.00073a3.05663,3.05663,0,0,0,3.09609,0l23.29484-13.44887a3.05475,3.05475,0,0,0,1.54732-2.68017V136.55222l-.00073-.00072a3.05571,3.05571,0,0,0-1.548-2.68091L96.68893,120.42173V120.421a3.05263,3.05263,0,0,0-3.09391,0v.00073L70.30091,133.87059a3.05441,3.05441,0,0,0-1.54877,2.68091l-.00073.00072V163.45a3.03688,3.03688,0,0,0,.40865,1.551"/><path class="cls-3" d="M87.68373,160.24007a2.99575,2.99575,0,1,1-5.99149,0l.00073.00073.0029-20.56449a3.12313,3.12313,0,0,1,3.40148-2.91068,5.32734,5.32734,0,0,1,4.08353,1.82581l.90527,1.08341,12.51524,14.97728v-14.8922h-.00146a2.99575,2.99575,0,1,1,5.9915,0h-.00073l-.00291,20.563a3.12356,3.12356,0,0,1-3.40148,2.91068,5.32383,5.32383,0,0,1-4.08352-1.82581L87.68228,145.34714V160.2408Z"/></svg>