<svg xmlns="http://www.w3.org/2000/svg" viewBox="0 0 413.66 137.81"><title>Asset 1</title><g id="Layer_2" data-name="Layer 2"><g id="Layer_1-2" data-name="Layer 1"><path d="M209.19,89.5a46.06,46.06,0,0,1-10.66-6.07,10.21,10.21,0,0,1-3.18-3.61l-.15-.32.28-.56a3.19,3.19,0,0,1,.31-.58,66.85,66.85,0,0,0,6.66-12.54,82.88,82.88,0,0,0,6.87-30.48,43.22,43.22,0,0,0-1.58-13.41,19.23,19.23,0,0,0-2.88-6.36,5.44,5.44,0,0,0-4.37-2.42,6.09,6.09,0,0,0-3.35,1.1,11.31,11.31,0,0,0-3.95,4.34,59.26,59.26,0,0,0-3.53,8,124.88,124.88,0,0,0-5.47,28.18,59.68,59.68,0,0,0,1.56,20.47c.93,3.53.77,3.9-2.38,5.7a12.89,12.89,0,0,1-1.68.81,8.2,8.2,0,0,1-3,.64,6,6,0,0,1-5.18-3.18c-2.21-3.45-2.18-6.72-2.18-10.26,0-6-.1-9.92-1.25-13.59A6.23,6.23,0,0,0,167,51.7a12.19,12.19,0,0,0-1.34-.71,10.45,10.45,0,0,0-4-.84A10.23,10.23,0,0,0,155,51.71a6.59,6.59,0,0,1-2,.95A74.76,74.76,0,0,0,139,58.9c-.93.52-1.89,1-2.84,1.5-.68.35-1.37.7-2,1.07a3.36,3.36,0,0,1-1.61.42,4.53,4.53,0,0,1-1.58-.32,9.1,9.1,0,0,0-3.06-.56h-.29a3.62,3.62,0,0,0-3.24,2.82,3.44,3.44,0,0,0,1.41,3.93,5.71,5.71,0,0,0,2.66,1.16,3.72,3.72,0,0,1,3.54,3.22,15.32,15.32,0,0,1-2.37,13.15c-1.56,2.16-3.27,3.25-5.09,3.25-1.65,0-3.32-.92-5-2.72a14.93,14.93,0,0,1-3.56-8,47.72,47.72,0,0,1,0-12.35,13,13,0,0,1,4-8.25c6.85-7,12.33-15.56,16.75-26.14a71.55,71.55,0,0,0,5.11-18.34,17.78,17.78,0,0,0-.74-9c-.92-2.4-2.64-3.77-4.7-3.77a5.91,5.91,0,0,0-3.43,1.23,16.89,16.89,0,0,0-3.93,4C122.3,14.76,118,23.89,115.84,33.16c-1,4.29-2,8.67-2.89,12.91-.62,2.8-1.23,5.61-1.86,8.4l0,.23a4.44,4.44,0,0,1-1.1,2.46,36,36,0,0,1-7.62,4.9l-.65.33-.32-.66c-.06-.13-.12-.24-.17-.33a4,4,0,0,1-.28-.64c-1.62-6-5.83-10.18-12.51-12.36a14.54,14.54,0,0,0-4.4-.76c-4.36,0-7.43,2.65-8.89,7.66-.18.61-.34,1.24-.5,1.85l-.39,1.51-.63-.08a11.09,11.09,0,0,0-1.31-.09c-2,0-2.8.75-3.61,3.35S67.21,66.28,66.51,68a18.47,18.47,0,0,1-4.12,6.31A6.38,6.38,0,0,1,58,76.48a6.36,6.36,0,0,1-4.6-2.43,2.79,2.79,0,0,1-.6-3.22c1.14-2.84,2-5.17,2.72-7.34a227.28,227.28,0,0,0,7-28A72.73,72.73,0,0,0,64,16.15C63.79,13,63.24,9,60.9,5.48,59.24,3,57.43,1.72,55.53,1.72c-1.54,0-3.23.82-5,2.43a22.36,22.36,0,0,0-5.71,8.7C40.36,23.94,38.46,34.2,39,44.22s1.88,17.33,4.38,24l.18.47-.38.33c-1.4,1.21-2.9,2.51-4.35,3.84a1.8,1.8,0,0,1-.58.34l-.32.14-.92.44-.27-2.43c-.1-1-.21-2-.34-2.93l-.18-1.29c-.85-6.13-1.65-11.91-5.37-17-2-2.73-4.15-4-6.74-4a8,8,0,0,0-1.17.09A24.81,24.81,0,0,0,6.49,55.93,28.86,28.86,0,0,0,0,75.23c.14,4.63,2.12,8,5.89,10a14.25,14.25,0,0,0,6.71,1.72,14.85,14.85,0,0,0,4.86-.85,20.08,20.08,0,0,0,8.86-5.9l2.35-2.83,2.13-2.57.27,1.52c.38,2,.58,4.21-1.4,6.1-1.46,1.4-2.83,3-4.15,4.47-.53.6-1.06,1.21-1.6,1.8a69.55,69.55,0,0,0-11.11,16.65C9,113.4,9,121.76,13,130.88a16.49,16.49,0,0,0,2.91,4.42,7,7,0,0,0,5.22,2.51,7.59,7.59,0,0,0,4-1.2,20.91,20.91,0,0,0,4-3.23,31.87,31.87,0,0,0,8.11-14.63c1.65-6.45,1.52-12.9,1.18-18.36l-.07-1.14c-.29-4.57-.58-9.3-.94-13.94a4.28,4.28,0,0,1,1.49-3.73L44,76.77l2.41-2.28.47.75c2,3.31,2.91,4.22,3.28,4.48a13,13,0,0,0,7.83,3c2.94,0,5.92-1.37,8.84-4.08l.93-.85.45,2.07c.13.57.23,1,.34,1.52A18.66,18.66,0,0,0,72,88.74c2.56,3.29,5.8,5,9.35,5a13,13,0,0,0,6.82-2.1A22.58,22.58,0,0,0,94.91,85a30.28,30.28,0,0,0,4.91-10.58c.75-3.46,2.39-5.37,5.31-6.2a9.06,9.06,0,0,0,1.66-.75c.32-.18.66-.36,1-.54l1.1-.53-.15,2.44c0,.75-.08,1.39-.1,2a34.54,34.54,0,0,0,1.94,13.46,18.33,18.33,0,0,0,8.21,9.6,11.34,11.34,0,0,0,5.53,1.49h.51c3.56-.17,6.63-1.85,9.37-5.14A20.78,20.78,0,0,0,139.07,75a37.5,37.5,0,0,0-.79-5c-.16-.81-.33-1.63-.48-2.48l-.09-.51,10.47-5.71L147.77,63s-.39,1.56-.46,1.86c-.25,1-.5,2-.76,3.07-.57,2.3-1.17,4.68-1.62,7a19.5,19.5,0,0,0,.58,10.14c1.44,4.18,4.85,6.77,8.9,6.77a10.51,10.51,0,0,0,5.67-1.76,21.58,21.58,0,0,0,5.45-5.29c.23-.3.48-.59.76-.91l.43-.51.55-.65.55.66.58.7a11.71,11.71,0,0,0,.93,1.09,12.63,12.63,0,0,0,9.28,4.14h.15a16.47,16.47,0,0,0,9.05-3l2.28-1.49.7.64.52.49a27.27,27.27,0,0,0,9.45,6.08,13.57,13.57,0,0,0,5.07,1h.42c2.63-.08,5.55-.48,7.19-2.65A13.43,13.43,0,0,1,209.19,89.5Zm-90.5-45.44c3.52-14,8.11-25.76,15.53-35.84l1-1.4.27,1.71a19.75,19.75,0,0,1-.67,7.7c-2.34,9.74-4.91,17.74-11,26.46-.2.28-1.94,2.73-2.81,3.67l-3.24,3.45ZM26.77,60.66c0,.41,0,.79,0,1.11A27.33,27.33,0,0,1,23.59,73.9,12.75,12.75,0,0,1,14,80.78a4.54,4.54,0,0,1-.93.08,8.48,8.48,0,0,1-3.3-.47,3.38,3.38,0,0,1-1.88-2.16,17.45,17.45,0,0,1-.21-7.69A27,27,0,0,1,14.33,56.7a12,12,0,0,1,9-3.82h.13a2.84,2.84,0,0,1,2.11.84C27,55.22,26.88,58.36,26.77,60.66Zm5.85,51a26,26,0,0,1-6.31,16.26,28.66,28.66,0,0,1-3.69,3.48,2.5,2.5,0,0,1-1.51.68A2.29,2.29,0,0,1,19.42,131,9.79,9.79,0,0,1,18,128.65c-2.89-6.81-3.09-13-.62-18.87,2.71-6.45,6.8-12.4,12.87-18.74l.27-.28,1.19-1.54.2,1.79,0,.56.18,2.07c.14,1.52.28,3.09.33,4.65,0,.9.06,1.8.1,2.7C32.65,104.48,32.78,108.09,32.62,111.64ZM50.11,60.23c-.13.4-.27.79-.46,1.31l-.36,1-.72,2-.65-2.05-.34-1.08c-.2-.61-.35-1.09-.48-1.58a87.4,87.4,0,0,1-2.32-17.27c-.5-8.52,1-17.36,4.82-27.82a30.12,30.12,0,0,1,1.84-4,9.7,9.7,0,0,1,3.3-3.66l.47-.31.41.38a8.43,8.43,0,0,1,2.19,4.13,29.37,29.37,0,0,1,.8,8.4A86.18,86.18,0,0,1,56.44,36,229.6,229.6,0,0,1,50.11,60.23Zm43,13.44c-1.68,4.84-3.81,8.31-6.72,10.91a7.76,7.76,0,0,1-4.92,2.33c-2.14,0-4-1.49-5.39-4.45a14.59,14.59,0,0,1-1.41-6.41c0-2.15.09-4.33.19-6.44l.09-2.24a1.52,1.52,0,0,1,.22-.68c0-.09.1-.19.16-.34l.49-1.1.74,1a12.24,12.24,0,0,0,7.09,4.62c2,.46,4,.75,6.11,1.06l2.77.42.57,0,0,.58A1.44,1.44,0,0,1,93.07,73.67Zm1.46-9.51-.22.67-.43.08a17.73,17.73,0,0,1-3.14.29,17.23,17.23,0,0,1-6.84-1.45,4.68,4.68,0,0,1-2.7-3.17,6.69,6.69,0,0,1,1.12-5.52,2.88,2.88,0,0,1,2.14-.78h.24a11.54,11.54,0,0,1,6.52,3,8.64,8.64,0,0,1,3.39,6.39A1.25,1.25,0,0,1,94.53,64.16ZM165.45,67a24.45,24.45,0,0,1-3.93,12.19c-.89,1.77-1.76,2.09-3.13,3.46a14.07,14.07,0,0,1-2.73,2.16,3.94,3.94,0,0,1-1.87.58,2.8,2.8,0,0,1-2.73-1.92,11.48,11.48,0,0,1-1-4.65,41.62,41.62,0,0,1,4-16.42,12.33,12.33,0,0,1,.83-1.62c.16-.31.32-.63.49-.94a6.57,6.57,0,0,1,1.77-2.28,8.68,8.68,0,0,1,5.13-1.85C165.7,55.82,165.63,60.22,165.45,67Zm28.55.83a9.24,9.24,0,0,1-.59,1c-.12.19-.26.4-.41.65l-.82,1.32-.48-1.47a20.13,20.13,0,0,1-.82-5.08l0-.71a89.37,89.37,0,0,1,1.28-20.16,94.81,94.81,0,0,1,3.46-15.67c.56-1.65,1.29-3.26,2-4.82l.31-.68a8.16,8.16,0,0,1,.88-1.38c.18-.24.38-.51.59-.82l.72-1.06.53,1.17a27.64,27.64,0,0,1,2.23,10c.63,10.23-1.43,20.8-6.31,32.29-.62,1.46-1.32,2.91-2,4.31Z"/><path d="M409.33,80.11c-4.57-1.29-10.49-4.47-11.29-4.79-1.1-.44-2.88-2.12-4.76-3.69a3.43,3.43,0,0,1-1-4.1c1.25-3.64,2.69-8,3.9-12.47,2.25-8.37,3.2-15.23,3-21.6A34,34,0,0,0,396,19.11a20.37,20.37,0,0,0-3.37-4.86,5.87,5.87,0,0,0-4.38-2,6.82,6.82,0,0,0-1.81.26A8.18,8.18,0,0,0,382,15.84a23.43,23.43,0,0,0-3.46,7.29c-2.61,8.65-3.19,18.1-1.76,28.87a58.35,58.35,0,0,0,1.17,5.77c.21.87.42,1.73.6,2.58l.15.71-.7.15c-1.35.29-2.71.56-4.08.84-3,.6-6.16,1.23-9.17,2.08s-5.9,1.92-9,3.05c-1.33.49-2.67,1-4,1.47l-.79.28-.3-1.55c-.1-.48-.19-.92-.26-1.36a15.05,15.05,0,0,0-5.09-9.1,22.36,22.36,0,0,0-6.57-4,12.34,12.34,0,0,0-4.47-.91,15.83,15.83,0,0,0-9.09,3.42s-4.28,4.23-5,6.55a77.06,77.06,0,0,1-8.74,2.37c-.44.1-.89.15-1.37.21l-.67.08-.53.08a9.65,9.65,0,0,0-.25-1.79l-.18-.73c-1.62-6-5.83-10.18-12.51-12.35a14.27,14.27,0,0,0-4.4-.77c-4.36,0-7.43,2.65-8.89,7.66-.18.62-.34,1.24-.5,1.85l-.39,1.51-.63-.07a11.09,11.09,0,0,0-1.31-.09c-2,0-2.8.75-3.61,3.34s-1.45,4.44-2.15,6.18c-1,2.48-2.92,4.18-4.65,5.89,0,0-.87.55-5.47,3.76L263.7,73s-.28-2.46-.33-2.94c-.11-1-.21-1.94-.34-2.89l-.18-1.29c-.85-6.12-1.65-11.91-5.38-17-1.88-2.56-4.88-4.32-7.9-3.91a24.79,24.79,0,0,0-16.44,9.64A28.84,28.84,0,0,0,226.65,74c.14,4.63,2.12,8,5.88,10a14.28,14.28,0,0,0,6.71,1.72,14.91,14.91,0,0,0,4.87-.85A20.05,20.05,0,0,0,253,78.9c.77-.9,1.52-1.82,2.32-2.79l2.16-2.61.28,1.52c1.27,4,.65,3.61-1.41,6.11-1.28,1.56-2.83,3-4.16,4.48l-1.58,1.78c-4.48,5-7.79,10.8-11.11,16.65-5.38,9.44-5.16,15.25-1.89,24.64a13.07,13.07,0,0,0,4,5.82,10.12,10.12,0,0,0,6.14,2,7.62,7.62,0,0,0,4-1.2,20.85,20.85,0,0,0,4-3.22,31.91,31.91,0,0,0,8.11-14.64c1.65-6.44,1.52-12.9,1.18-18.36L265,97.83c-.25-4-.51-8.11-.82-12.18,2.3-1,7.9-3.36,10.19-5.49l.93-.85.45,2.07c.13.57.23,1.05.34,1.52a18.59,18.59,0,0,0,3.43,7.32c2.56,3.29,5.8,5,9.35,5a13,13,0,0,0,6.82-2.1,22.31,22.31,0,0,0,6.74-6.66,35.4,35.4,0,0,0,5.35-10.66,26.51,26.51,0,0,0,.68-4c2.15-.43,5.19-1.1,6.51-1.39l2.31-.49.65-.13-.23,1.08c-.11.52-.22,1-.32,1.5-.21,1-.41,1.86-.56,2.75-.56,3.31-1,7.64.46,11.83a10.94,10.94,0,0,0,10.62,7.71c.43,0,.87,0,1.31-.06,7.42-.75,13.26-4.49,17.36-11.13A32.91,32.91,0,0,0,348.71,79c.16-.4.33-.79.5-1.18a2.77,2.77,0,0,1,1.72-1.74c2.35-.82,4.69-1.66,7-2.5L362.54,72a4.32,4.32,0,0,1,1-.21l.53-.08,1.27-.22-.83,2.06c-.23.56-.42,1-.62,1.55a21,21,0,0,0-1.63,10.54c.66,5.4,4.59,9.16,9.55,9.16a11.12,11.12,0,0,0,5.62-1.62,14.81,14.81,0,0,0,5.17-5c1.25-2,2.4-4.12,3.51-6.17.45-.82.89-1.64,1.35-2.45.2-.37.39-.74.59-1.15l.33-.66.37-.74,2.41,1.68h0a27.14,27.14,0,0,0,10.09,4.94,13.57,13.57,0,0,0,5.15.39l.41-.06c2.61-.38,5.47-1.11,6.84-3.46A13.36,13.36,0,0,1,409.33,80.11ZM254,61.16a32.6,32.6,0,0,1-5,12.06,11.79,11.79,0,0,1-9.59,5.29,4.22,4.22,0,0,1-.86,0,7.88,7.88,0,0,1-3-.79,3.92,3.92,0,0,1-2-2.09c-.69-2-.14-5,.63-7.72a24.2,24.2,0,0,1,7.49-11.81,11.32,11.32,0,0,1,8.68-2.72,3.67,3.67,0,0,1,2.53,1.54C254.13,56.44,254.29,59.06,254,61.16Zm5.48,49.59c-.28,6-2,11.21-5.88,15.53a29.72,29.72,0,0,1-3.73,3.35,3.84,3.84,0,0,1-1.9.67c-.72,0-2,0-2.43-.53a15.54,15.54,0,0,1-1.89-2.93c-2.89-6.52-2.87-11.14.56-17.87,4.65-9.15,8.75-13.73,14.44-20a.27.27,0,0,1,.48.11c.4,2.59.07,6.29.15,8.92,0,.86.06,1.73.1,2.59C259.46,103.9,259.59,107.35,259.43,110.75Zm41.19-35.34c-1.83,4.88-4.8,7.89-7.66,10.65-1.61,1.55-3.14,2.33-4.55,2.33-2,0-3.66-1.49-5-4.44a15.84,15.84,0,0,1-1.31-6.42c0-2.15-.16-4.27-.07-6.38a10.48,10.48,0,0,1,.61-3.35s.31-1,.52-1.07.69,1,.69,1c1.73,2.41,4.21,3.44,6.84,4.09,1.84.46,3.42.81,5.38,1.13a8.44,8.44,0,0,0,1.36.16,29,29,0,0,0,4-.3.15.15,0,0,1,.16.18A9,9,0,0,1,300.62,75.41Zm2.23-10.2a.94.94,0,0,1-.73.74,21.92,21.92,0,0,1-3.59.3,22.28,22.28,0,0,1-7.8-1.44,4.89,4.89,0,0,1-3.08-3.13,5.85,5.85,0,0,1,1.28-5.43,3.57,3.57,0,0,1,2.44-.77h.27a14.14,14.14,0,0,1,7.44,3,8.25,8.25,0,0,1,3.87,6.3A.87.87,0,0,1,302.85,65.21Zm39.46,13.62c-1.81,4.6-7.78,9.31-12.75,9.69l-.3,0a4.36,4.36,0,0,1-4.74-2.94,13.07,13.07,0,0,1-.87-3.23,25.56,25.56,0,0,1,1-10.51l.36-1.33.88,1c3.63,4.31,7,5.5,11.65,5.73,1.92.09,6.11-1.63,6.1-2C343.69,75.34,342.7,77.86,342.31,78.83Zm1.88-8.72a7,7,0,0,1-3.68,1.28,15,15,0,0,1-5.76-.9c-2.88-.94-4.19-3.51-4.72-6.71a4.48,4.48,0,0,1,.76-3.5,3.88,3.88,0,0,1,2.72-1.49,5,5,0,0,1,1.9.2c5.06,1.47,7.87,4.29,8.57,8.61A17.71,17.71,0,0,1,344.19,70.11Zm39.71,1v.07l0,.06a39,39,0,0,1-7.16,13.82,11,11,0,0,1-3.21,2.7,3.57,3.57,0,0,1-1.74.49,2.93,2.93,0,0,1-2.8-2.52,10,10,0,0,1-.24-3.61,20.47,20.47,0,0,1,5.62-11.65l.32-.33a6.22,6.22,0,0,1,3.77-2.38,8.89,8.89,0,0,1,1.15-.08A5,5,0,0,1,383.22,69,2.72,2.72,0,0,1,383.9,71.11Zm5.33-15.06c-.27,1-.58,1.93-.94,3-.17.55-.36,1.13-.56,1.77l-.57,1.82-.77-1.75L386,60c-.23-.51-.41-.9-.55-1.3a44.88,44.88,0,0,1-2.68-13.21c-.51-8.2.06-14.73,1.78-20.55a35.87,35.87,0,0,1,1.58-4.16,7.05,7.05,0,0,1,.86-1.37l.4-.56.42-.63.61.45a7.87,7.87,0,0,1,2.54,3.84l0,.09a32.28,32.28,0,0,1,2,13C392.73,42.69,391,49.62,389.23,56.05Z"/></g></g></svg>