<svg id="Layer_1" data-name="Layer 1" xmlns="http://www.w3.org/2000/svg" viewBox="0 0 128 128"><defs><style>.cls-1,.cls-3{fill:none;stroke:#1d9cd3;stroke-linecap:round;stroke-linejoin:round;}.cls-1{stroke-width:3px;}.cls-2{fill:#1d9cd3;}.cls-3{stroke-width:2.75px;}</style></defs><path class="cls-1" d="M66,22.52A18.94,18.94,0,0,1,76.2,39.27a16,16,0,0,1-.1,1.85"/><path class="cls-1" d="M66,22.52A19.46,19.46,0,0,0,38.8,32.6,16.7,16.7,0,0,0,32,31.16,16.39,16.39,0,0,0,15.48,47.41h0a10.93,10.93,0,1,0,0,21.86H31.61"/><path class="cls-1" d="M66,22.52a16.64,16.64,0,0,1,14.08-.23A19.36,19.36,0,0,1,117.47,29a18.83,18.83,0,0,1-.67,4.95,13.57,13.57,0,0,1,6.26,11.4A13.76,13.76,0,0,1,109.19,59H96.49"/><path class="cls-1" d="M32.45,83.53V55.36A13.62,13.62,0,0,1,46,41.77H82.29A13.62,13.62,0,0,1,95.88,55.36V91.61a13.63,13.63,0,0,1-13.59,13.6H52"/><path class="cls-2" d="M54.56,64.42V79.07h-2.3l-.58-1.15a6,6,0,0,1-4.38,1.56c-3.52,0-5.71-1.82-5.71-6.17V70.19c0-4.35,2.19-6.17,5.71-6.17a6,6,0,0,1,4.38,1.56l.58-1.16Zm-3.43,9.29V69.79a2.77,2.77,0,0,0-3.08-2.57c-1.93,0-3,1-3,3.15v2.76c0,2.17,1.1,3.15,3,3.15A2.79,2.79,0,0,0,51.13,73.71Z"/><path class="cls-2" d="M70.85,70.19v3.12c0,4.35-2.19,6.17-5.77,6.17a6.15,6.15,0,0,1-3.81-1.13v7.36h-3.4V64.42h2.31l.57,1.16A5.91,5.91,0,0,1,65.08,64C68.66,64,70.85,65.84,70.85,70.19Zm-3.43.18c0-2.17-1.1-3.15-3-3.15a2.79,2.79,0,0,0-3.12,2.89v3.28a2.81,2.81,0,0,0,3.12,2.89c1.93,0,3-1,3-3.12Z"/><path class="cls-2" d="M86.74,70.19v3.12c0,4.35-2.19,6.17-5.77,6.17a6.12,6.12,0,0,1-3.8-1.13v7.36H73.76V64.42h2.31l.58,1.16A5.9,5.9,0,0,1,81,64C84.55,64,86.74,65.84,86.74,70.19Zm-3.43.18c0-2.17-1.1-3.15-3-3.15a2.78,2.78,0,0,0-3.11,2.89v3.28a2.8,2.8,0,0,0,3.11,2.89c1.93,0,3-1,3-3.12Z"/><path class="cls-3" d="M46.35,85.67l-1.88.08h0L40,82.29a3.81,3.81,0,0,0-4.76-.07l-4.83,3.53-1.87-.08c-3.55-.18-6.31-1.19-6.31,3.68s.66,12.75.66,12.75S22.47,108,29.31,113c5.87,4.29,8.1,5.85,8.1,5.85h0s2.27-1.56,8.15-5.85C52.39,108,52,102.1,52,102.1s.66-7.89.66-12.75-2.77-3.86-6.31-3.68"/><polyline class="cls-3" points="43.97 92.02 35.91 103.82 32.03 98.39"/><circle class="cls-3" cx="37.43" cy="98.75" r="9.38"/></svg>