<svg xmlns="http://www.w3.org/2000/svg" viewBox="0 0 50 50"><g id="b3192750-7582-4e17-8e35-ccc801cd058b" data-name="Isolation Mode"><path d="M22.371,24.381a1.08,1.08,0,0,1-.095-.282,2.983,2.983,0,0,1-.05-.352,2.879,2.879,0,0,1-.336.285,2.388,2.388,0,0,1-.409.236,2.457,2.457,0,0,1-.475.161,2.314,2.314,0,0,1-.537.059,2.467,2.467,0,0,1-.835-.134A1.932,1.932,0,0,1,19,23.991a1.577,1.577,0,0,1-.4-.542,1.612,1.612,0,0,1-.143-.679,1.762,1.762,0,0,1,.191-.838,1.655,1.655,0,0,1,.54-.6,2.473,2.473,0,0,1,.84-.357,4.7,4.7,0,0,1,1.1-.119h1.084V20.4a1.126,1.126,0,0,0-.1-.473,1.02,1.02,0,0,0-.274-.357,1.248,1.248,0,0,0-.433-.228,1.882,1.882,0,0,0-.572-.081,1.722,1.722,0,0,0-.528.075,1.305,1.305,0,0,0-.395.2.882.882,0,0,0-.25.293.748.748,0,0,0-.089.352h-1a1.392,1.392,0,0,1,.164-.623,1.774,1.774,0,0,1,.456-.551,2.387,2.387,0,0,1,.726-.4,2.908,2.908,0,0,1,.969-.15,3.327,3.327,0,0,1,.919.121,2.085,2.085,0,0,1,.733.365,1.722,1.722,0,0,1,.486.61,1.935,1.935,0,0,1,.177.854v2.7a3.768,3.768,0,0,0,.054.616,2.712,2.712,0,0,0,.15.566v.086Zm-1.757-.757a1.866,1.866,0,0,0,.543-.076,2.025,2.025,0,0,0,.459-.2,1.669,1.669,0,0,0,.357-.283,1.351,1.351,0,0,0,.236-.33V21.561h-.923a2.915,2.915,0,0,0-1.354.258.858.858,0,0,0-.483.811,1.07,1.07,0,0,0,.072.4.831.831,0,0,0,.218.315,1.031,1.031,0,0,0,.365.206A1.555,1.555,0,0,0,20.614,23.624Z"/><path d="M30.078,21.54a4.319,4.319,0,0,1-.151,1.162,2.893,2.893,0,0,1-.44.938,2.091,2.091,0,0,1-.717.623,2.062,2.062,0,0,1-.975.225,2.382,2.382,0,0,1-.938-.172,1.933,1.933,0,0,1-.7-.494v2.793h-.994V18.569h.908l.049.634a1.95,1.95,0,0,1,.7-.551,2.25,2.25,0,0,1,.954-.19,2.136,2.136,0,0,1,.988.22,2.051,2.051,0,0,1,.72.612,2.83,2.83,0,0,1,.44.937,4.506,4.506,0,0,1,.151,1.2Zm-.994-.113a3.383,3.383,0,0,0-.094-.809,2.114,2.114,0,0,0-.29-.677,1.48,1.48,0,0,0-.5-.464,1.424,1.424,0,0,0-.72-.172,1.38,1.38,0,0,0-.8.223,1.658,1.658,0,0,0-.519.572v2.8a1.646,1.646,0,0,0,.516.562,1.437,1.437,0,0,0,.816.217,1.4,1.4,0,0,0,.714-.174,1.473,1.473,0,0,0,.5-.47,2.184,2.184,0,0,0,.287-.682,3.412,3.412,0,0,0,.094-.811Z"/><path d="M36.722,21.54a4.319,4.319,0,0,1-.151,1.162,2.893,2.893,0,0,1-.44.938,2.016,2.016,0,0,1-1.692.848,2.382,2.382,0,0,1-.938-.172,1.942,1.942,0,0,1-.7-.494v2.793h-.994V18.569h.908l.049.634a1.95,1.95,0,0,1,.7-.551,2.25,2.25,0,0,1,.954-.19,2.133,2.133,0,0,1,.988.22,2.042,2.042,0,0,1,.72.612,2.83,2.83,0,0,1,.44.937,4.506,4.506,0,0,1,.151,1.2Zm-.994-.113a3.383,3.383,0,0,0-.094-.809,2.114,2.114,0,0,0-.29-.677,1.48,1.48,0,0,0-.5-.464,1.424,1.424,0,0,0-.72-.172,1.38,1.38,0,0,0-.8.223,1.658,1.658,0,0,0-.519.572v2.8a1.646,1.646,0,0,0,.516.562,1.437,1.437,0,0,0,.816.217,1.405,1.405,0,0,0,.715-.174,1.48,1.48,0,0,0,.494-.47,2.184,2.184,0,0,0,.287-.682,3.412,3.412,0,0,0,.094-.811Z"/><g id="b70fa9cd-67cc-4377-a706-d1979a7f1a5c" data-name="app"><path d="M37.6,40.5H25.535a.5.5,0,1,1,0-1H37.6a6.963,6.963,0,0,0,6.955-6.955V12.455A6.963,6.963,0,0,0,37.6,5.5H17.506a6.963,6.963,0,0,0-6.955,6.955V24.532a.5.5,0,0,1-1,0V12.455A7.965,7.965,0,0,1,17.506,4.5H37.6a7.965,7.965,0,0,1,7.955,7.955v20.09A7.965,7.965,0,0,1,37.6,40.5Z"/></g><path d="M15.235,45.5h0l-1.676-.008a.5.5,0,0,1-.488-.4l-.424-2.174q-.232-.057-.465-.129l-1.412,1.671a.5.5,0,0,1-.633.109l-1.448-.839a.5.5,0,0,1-.223-.595l.722-2.1c-.1-.1-.2-.2-.3-.3l-2.05.761a.5.5,0,0,1-.606-.217L5.39,39.828a.5.5,0,0,1,.1-.626l1.661-1.474c-.052-.175-.1-.353-.139-.532l-2.151-.383a.5.5,0,0,1-.412-.5l.011-1.674a.5.5,0,0,1,.4-.488l2.179-.43c.038-.154.082-.309.13-.466L5.5,31.854a.5.5,0,0,1-.11-.633l.843-1.45a.5.5,0,0,1,.593-.222l2.1.715c.1-.1.2-.2.3-.3L8.478,27.92a.5.5,0,0,1,.216-.605l1.449-.847a.5.5,0,0,1,.626.1l1.472,1.655c.174-.053.35-.1.528-.14l.385-2.152a.5.5,0,0,1,.492-.411h0l1.677,0a.5.5,0,0,1,.489.4l.428,2.174c.154.037.309.079.465.127l1.409-1.673a.5.5,0,0,1,.632-.111l1.45.836a.5.5,0,0,1,.223.595l-.716,2.1c.1.1.2.2.3.3l2.048-.764a.5.5,0,0,1,.607.216l.846,1.444a.5.5,0,0,1-.1.627l-1.659,1.477c.053.175.1.352.141.531l2.151.379a.5.5,0,0,1,.413.495l-.008,1.675a.5.5,0,0,1-.4.488l-2.178.434c-.037.154-.08.31-.129.466l1.671,1.4a.5.5,0,0,1,.111.633l-.84,1.451a.5.5,0,0,1-.592.224l-2.105-.711c-.1.1-.2.2-.3.3l.761,2.044a.5.5,0,0,1-.216.606l-1.447.849a.5.5,0,0,1-.626-.1l-1.475-1.652q-.274.084-.556.148l-.39,2.15A.5.5,0,0,1,15.235,45.5Zm-1.264-1.006.847,0,.375-2.071a.5.5,0,0,1,.4-.4,6.61,6.61,0,0,0,1.062-.282.5.5,0,0,1,.541.138l1.421,1.591.733-.429-.733-1.97a.5.5,0,0,1,.143-.553,6.7,6.7,0,0,0,.686-.683.5.5,0,0,1,.538-.145l2.026.684.424-.733-1.609-1.351a.5.5,0,0,1-.15-.552,6.593,6.593,0,0,0,.248-.863c.041-.2.219-.475.415-.514l2.1-.419,0-.845-2.071-.366a.5.5,0,0,1-.405-.4,6.635,6.635,0,0,0-.275-1.04.5.5,0,0,1,.138-.54l1.6-1.423-.427-.729-1.973.736a.5.5,0,0,1-.554-.143A6.572,6.572,0,0,0,18.8,30.5a.5.5,0,0,1-.145-.538l.69-2.025-.731-.422-1.358,1.613a.5.5,0,0,1-.55.149,6.649,6.649,0,0,0-.867-.247.7.7,0,0,1-.511-.416l-.413-2.1-.848,0-.371,2.072a.5.5,0,0,1-.4.4,6.754,6.754,0,0,0-1.039.276.5.5,0,0,1-.54-.139l-1.418-1.594-.733.428.729,1.971a.5.5,0,0,1-.144.553,6.7,6.7,0,0,0-.688.681.5.5,0,0,1-.537.145L6.9,30.627l-.426.733,1.607,1.354a.5.5,0,0,1,.148.552,6.751,6.751,0,0,0-.253.876.681.681,0,0,1-.413.5l-2.1.415-.006.845,2.07.369a.5.5,0,0,1,.4.405A6.5,6.5,0,0,0,8.2,37.717a.5.5,0,0,1-.14.541l-1.6,1.42.425.729,1.975-.732a.5.5,0,0,1,.554.144,6.764,6.764,0,0,0,.679.686.5.5,0,0,1,.144.538l-.694,2.023.73.424,1.361-1.61a.5.5,0,0,1,.551-.148,6.577,6.577,0,0,0,.878.251.675.675,0,0,1,.5.414ZM12.96,42.473l-.009.044.011,0Zm8.5-5.495-.049,0,.052.011ZM15.937,28.5l0,.046.011-.049Z"/><path d="M14.449,40.74a5.231,5.231,0,1,1,5.23-5.23A5.236,5.236,0,0,1,14.449,40.74Zm0-9.461a4.231,4.231,0,1,0,4.23,4.231A4.236,4.236,0,0,0,14.449,31.279Z"/></g></svg>