<svg xmlns="http://www.w3.org/2000/svg" viewBox="0 0 50 50"><g id="e3da8593-7552-4644-9c6e-25088781afcf" data-name="Isolation Mode"><path d="M17.005,27.945a.5.5,0,0,0-.5.5v3.1h-1.5a.5.5,0,0,0,0,1h19.99a.5.5,0,0,0,0-1h-1.49V17.955a.5.5,0,0,0-1,0v13.59h-3V21.183a.5.5,0,0,0-1,0V31.545h-3V23.6a.5.5,0,0,0-1,0v7.941h-3V26.832a.5.5,0,0,0-1,0v4.713h-3v-3.1A.5.5,0,0,0,17.005,27.945Z"/><path d="M46.47,38.322l-5.964.092A20.531,20.531,0,0,0,12.8,8.475a.5.5,0,1,0,.594.8,19.533,19.533,0,0,1,26.491,28.33l-.109-5.757a.493.493,0,0,0-.509-.491.5.5,0,0,0-.491.51l.133,7.02a.49.49,0,0,0,.145.391l0,0a.5.5,0,0,0,.353.147h.008l7.069-.109a.5.5,0,0,0,.493-.508A.519.519,0,0,0,46.47,38.322Z"/><path d="M36.592,40.721A19.533,19.533,0,0,1,10.116,12.373l.11,5.792a.5.5,0,0,0,.5.49h.009a.5.5,0,0,0,.491-.509l-.134-7.071a.494.494,0,0,0-.157-.352l0-.005a.5.5,0,0,0-.118-.076c-.011,0-.019-.014-.03-.019a.5.5,0,0,0-.246-.037l-7.022.108a.5.5,0,0,0,.007,1H3.53L9.463,11.6A20.525,20.525,0,0,0,37.186,41.525a.5.5,0,1,0-.594-.8Z"/></g></svg>