<?xml version="1.0" encoding="utf-8"?>
<!-- Generator: Adobe Illustrator 25.2.1, SVG Export Plug-In . SVG Version: 6.00 Build 0)  -->
<svg version="1.1" xmlns="http://www.w3.org/2000/svg" xmlns:xlink="http://www.w3.org/1999/xlink" x="0px" y="0px"
	 viewBox="0 0 50 50" style="enable-background:new 0 0 50 50;" xml:space="preserve">
<g id="Layer_1">
</g>
<g id="Icons">
</g>
<g id="Isolation_Mode">
	<g>
		<path d="M44.013,19.44c0.204-0.857,0.308-1.735,0.308-2.613c0-6.264-5.151-11.359-11.482-11.359
			c-4.584,0-8.763,2.749-10.558,6.891c-1.147-0.445-2.355-0.67-3.598-0.67c-5.291,0-9.625,4.132-9.879,9.306
			C5.285,21.257,2.5,24.179,2.5,27.722c0,3.72,3.059,6.747,6.818,6.747H13c0.276,0,0.5-0.224,0.5-0.5s-0.224-0.5-0.5-0.5H9.318
			c-3.208,0-5.818-2.578-5.818-5.747c0-3.155,2.599-5.733,5.793-5.747c0.275-0.001,0.498-0.225,0.498-0.5
			c0-4.844,3.989-8.786,8.891-8.786c1.274,0,2.508,0.263,3.666,0.782c0.125,0.056,0.269,0.058,0.396,0.005
			c0.127-0.053,0.227-0.156,0.275-0.285c1.526-4.021,5.472-6.724,9.818-6.724c5.78,0,10.482,4.647,10.482,10.359
			c0,0.908-0.122,1.816-0.361,2.698c-0.057,0.209,0.028,0.432,0.209,0.55c2.086,1.357,3.331,3.636,3.331,6.096
			c0,4.024-3.313,7.297-7.386,7.297H37c-0.276,0-0.5,0.224-0.5,0.5s0.224,0.5,0.5,0.5h2.114c4.624,0,8.386-3.722,8.386-8.297
			C47.5,23.491,46.203,21.001,44.013,19.44z"/>
		<path d="M14.874,32.564c-0.233,0.046-0.402,0.25-0.403,0.487l-0.012,1.771c-0.001,0.244,0.172,0.453,0.412,0.496l2.292,0.408
			c0.045,0.201,0.097,0.4,0.156,0.595l-1.77,1.571c-0.178,0.158-0.22,0.42-0.1,0.626l0.892,1.528
			c0.122,0.21,0.377,0.299,0.605,0.217l2.184-0.81c0.109,0.117,0.222,0.23,0.338,0.341l-0.769,2.238
			c-0.078,0.226,0.015,0.476,0.222,0.595l1.531,0.888c0.21,0.122,0.478,0.075,0.633-0.11l1.505-1.781
			c0.175,0.055,0.351,0.104,0.525,0.146l0.452,2.316c0.045,0.234,0.25,0.403,0.488,0.404l1.772,0.008c0.001,0,0.001,0,0.002,0
			c0.242,0,0.449-0.173,0.492-0.411l0.415-2.292c0.209-0.047,0.417-0.103,0.622-0.166l1.571,1.76
			c0.159,0.178,0.421,0.219,0.626,0.098l1.53-0.897c0.209-0.123,0.3-0.378,0.216-0.605l-0.811-2.179
			c0.117-0.11,0.232-0.224,0.343-0.341l2.242,0.757c0.226,0.079,0.474-0.018,0.593-0.223l0.887-1.535
			c0.121-0.21,0.074-0.478-0.112-0.633l-1.78-1.494c0.055-0.176,0.104-0.351,0.146-0.525l2.32-0.463
			c0.232-0.046,0.401-0.25,0.402-0.488l0.009-1.771c0.001-0.244-0.173-0.453-0.414-0.495l-2.292-0.403
			c-0.045-0.201-0.098-0.399-0.158-0.595l1.767-1.574c0.178-0.159,0.219-0.42,0.099-0.626l-0.894-1.527
			c-0.123-0.21-0.379-0.3-0.606-0.216l-2.183,0.814c-0.11-0.117-0.223-0.23-0.339-0.34l0.764-2.24
			c0.077-0.226-0.017-0.476-0.223-0.595l-1.533-0.884c-0.209-0.121-0.477-0.075-0.632,0.111l-1.501,1.783
			c-0.176-0.055-0.351-0.103-0.526-0.145l-0.456-2.315c-0.046-0.234-0.251-0.403-0.489-0.403l-1.772-0.005c0,0-0.001,0-0.001,0
			c-0.242,0-0.449,0.173-0.492,0.412l-0.411,2.293c-0.2,0.045-0.397,0.098-0.592,0.157l-1.568-1.763
			c-0.159-0.178-0.42-0.219-0.626-0.099l-1.531,0.896c-0.209,0.123-0.301,0.377-0.216,0.605l0.807,2.18
			c-0.119,0.11-0.233,0.224-0.344,0.341l-2.241-0.762c-0.224-0.074-0.473,0.017-0.593,0.222l-0.891,1.532
			c-0.122,0.21-0.076,0.478,0.11,0.634l1.778,1.498c-0.056,0.176-0.105,0.352-0.147,0.525L14.874,32.564z M26.586,26.554
			l-0.011,0.052l-0.003-0.049L26.586,26.554z M18.247,31.035l-1.717-1.446l0.474-0.815l2.163,0.735
			c0.191,0.063,0.405,0.008,0.538-0.145c0.223-0.255,0.468-0.499,0.73-0.723c0.159-0.136,0.216-0.357,0.144-0.553l-0.779-2.105
			l0.815-0.477l1.514,1.702c0.135,0.151,0.348,0.207,0.541,0.139c0.355-0.125,0.726-0.224,1.101-0.292
			c0.206-0.037,0.366-0.198,0.403-0.404l0.397-2.214l0.943,0.002l0.441,2.239c0.039,0.197,0.322,0.375,0.518,0.417
			c0.303,0.064,0.613,0.152,0.92,0.262c0.195,0.07,0.416,0.012,0.551-0.149l1.451-1.723l0.814,0.469l-0.737,2.162
			c-0.066,0.193-0.008,0.406,0.146,0.539c0.256,0.223,0.499,0.467,0.722,0.727c0.137,0.159,0.357,0.217,0.554,0.143L33,28.739
			l0.475,0.811l-1.706,1.52c-0.152,0.135-0.207,0.349-0.139,0.541c0.126,0.356,0.224,0.728,0.292,1.105
			c0.037,0.207,0.199,0.368,0.406,0.404l2.212,0.39l-0.005,0.941l-2.243,0.448c-0.196,0.039-0.375,0.325-0.416,0.521
			c-0.064,0.301-0.153,0.609-0.264,0.916c-0.071,0.197-0.011,0.417,0.149,0.552l1.72,1.443l-0.472,0.816l-2.164-0.731
			c-0.192-0.064-0.404-0.007-0.538,0.146c-0.225,0.259-0.47,0.503-0.729,0.724c-0.159,0.136-0.216,0.357-0.143,0.554l0.783,2.104
			l-0.815,0.478l-1.518-1.699c-0.136-0.152-0.351-0.207-0.542-0.138c-0.362,0.129-0.742,0.23-1.126,0.299
			c-0.206,0.037-0.367,0.197-0.404,0.403l-0.4,2.213l-0.943-0.004l-0.437-2.239c-0.039-0.197-0.308-0.374-0.504-0.416
			c-0.309-0.065-0.623-0.155-0.933-0.267c-0.198-0.071-0.417-0.012-0.551,0.148l-1.454,1.72l-0.813-0.472l0.742-2.16
			c0.066-0.192,0.009-0.406-0.144-0.54c-0.256-0.223-0.499-0.468-0.721-0.728c-0.136-0.159-0.358-0.217-0.554-0.144l-2.109,0.782
			l-0.474-0.812l1.709-1.517c0.152-0.135,0.207-0.349,0.14-0.541c-0.125-0.354-0.223-0.726-0.29-1.105
			c-0.037-0.207-0.198-0.368-0.404-0.405l-2.212-0.394l0.006-0.941l2.244-0.443c0.196-0.039,0.373-0.312,0.415-0.507
			c0.065-0.304,0.155-0.616,0.268-0.93C18.466,31.39,18.407,31.17,18.247,31.035z"/>
		<path d="M25,39.468c3.033,0,5.5-2.467,5.5-5.5s-2.467-5.5-5.5-5.5s-5.5,2.467-5.5,5.5S21.967,39.468,25,39.468z M25,29.468
			c2.481,0,4.5,2.019,4.5,4.5s-2.019,4.5-4.5,4.5s-4.5-2.019-4.5-4.5S22.519,29.468,25,29.468z"/>
	</g>
</g>
</svg>
