<svg xmlns="http://www.w3.org/2000/svg" viewBox="0 0 50 50"><g id="e853b765-5957-40f0-8a87-a8465fa3d2d9" data-name="Isolation Mode"><path d="M11.428,45.245l.014.009a.311.311,0,0,0,.061.01,8.935,8.935,0,0,0,2.017.236H36.48a9.03,9.03,0,0,0,9.02-9.02V13.52A9.03,9.03,0,0,0,36.48,4.5H13.52a8.96,8.96,0,0,0-1.244.1.465.465,0,0,0-.137.021A9.026,9.026,0,0,0,4.5,13.52V36.48A9.027,9.027,0,0,0,11.428,45.245Zm.895-.844a21.809,21.809,0,0,1,5.4-7.728c.017.015.039.024.057.039a2.888,2.888,0,0,0,.347.234c.069.042.133.091.2.127a2.914,2.914,0,0,0,.489.186c.046.014.088.036.135.047a2.974,2.974,0,0,0,.526.073c.053,0,.1.017.156.018.015,0,.029,0,.044,0a3,3,0,0,0,.6-.064c.011,0,.022,0,.033,0A27.892,27.892,0,0,0,25.007,44.5H13.52A8,8,0,0,1,12.323,44.4Zm4.395-23.032a2.054,2.054,0,0,1,2.247-1.283,1.993,1.993,0,0,1,1.436,2.82,2.028,2.028,0,0,1-1.986,1.135h0a1.993,1.993,0,0,1-1.7-2.672Zm2.092-7.077h0a2.022,2.022,0,0,1,2.326-.487h0A2.006,2.006,0,0,1,22.3,15.62a1.976,1.976,0,0,1-.385,1.174h0A2,2,0,0,1,18.3,15.62,1.993,1.993,0,0,1,18.81,14.292Zm25.69,18a23.816,23.816,0,0,0-11.167-2.8c-.349,0-.693.02-1.038.036a2.98,2.98,0,0,0-4.473-1.756A27.167,27.167,0,0,0,21.457,22.9a2.955,2.955,0,0,0,.139-.846,3,3,0,0,0-1.932-2.8c.056-.224.114-.446.175-.668a2.875,2.875,0,0,0,.463.04,2.99,2.99,0,0,0,2.1-.893A27.848,27.848,0,0,0,37.5,22.167a28,28,0,0,0,7-.907ZM31.406,30.319a2,2,0,0,1-3.944.456v0A1.972,1.972,0,0,1,28.1,28.81h0A2,2,0,0,1,31.4,30.1h0C31.4,30.176,31.406,30.247,31.406,30.319ZM26.346,44.5a26.865,26.865,0,0,1-5.087-7.551,2.965,2.965,0,0,0,1.2-3.673,22.763,22.763,0,0,1,4.2-1.763,2.984,2.984,0,0,0,4,1.53A26.117,26.117,0,0,1,34.394,44.5ZM21,31.712c-.041-.02-.08-.042-.122-.06a2.99,2.99,0,0,0-.551-.182l-.016,0a2.948,2.948,0,0,0-.549-.059c-.026,0-.05-.008-.075-.008-.088,0-.177,0-.266.013a26.978,26.978,0,0,1-.587-5.581c0-.266.006-.53.015-.793a3.022,3.022,0,0,0,2.188-1.25,26.193,26.193,0,0,1,6.043,4.639,2.989,2.989,0,0,0-.673,1.89c0,.07,0,.141.008.213a23.81,23.81,0,0,0-4.483,1.882,3.057,3.057,0,0,0-.424-.389c-.04-.031-.082-.058-.123-.086A2.923,2.923,0,0,0,21,31.712Zm-1.834.761h0a1.966,1.966,0,0,1,2.207.86h0a2,2,0,0,1-3.239,2.33h0a2,2,0,0,1,1.032-3.188ZM36.48,44.5H35.4a27.129,27.129,0,0,0-3.91-12.024,3,3,0,0,0,.91-1.953,22.746,22.746,0,0,1,12.1,2.906V36.48A8.029,8.029,0,0,1,36.48,44.5ZM44.5,13.52v6.711a27.018,27.018,0,0,1-7,.936A26.856,26.856,0,0,1,23,16.934a2.975,2.975,0,0,0,.3-1.314,3.007,3.007,0,0,0-1.291-2.463A26.932,26.932,0,0,1,28.092,5.5H36.48A8.029,8.029,0,0,1,44.5,13.52ZM26.642,5.5a27.934,27.934,0,0,0-5.522,7.238,3.063,3.063,0,0,0-2.667.529,26.614,26.614,0,0,1-5.444-7.741c.17-.011.338-.026.511-.026Zm-14.675.154a27.6,27.6,0,0,0,5.8,8.357,2.994,2.994,0,0,0,1.107,4.248c-.072.262-.141.527-.206.792a3.069,3.069,0,0,0-2.7,1.543A27.158,27.158,0,0,0,8.333,19.5a26.8,26.8,0,0,0-2.833.165V13.52A8.032,8.032,0,0,1,11.967,5.654ZM5.5,20.669A25.886,25.886,0,0,1,8.333,20.5a26.128,26.128,0,0,1,7.307,1.052,2.976,2.976,0,0,0,2.218,3.4c-.011.293-.025.586-.025.882a27.972,27.972,0,0,0,.628,5.834A2.985,2.985,0,0,0,17.1,35.906a22.8,22.8,0,0,0-5.767,8.282A8.028,8.028,0,0,1,5.5,36.48Z"/></g></svg>