<svg id="bd3dacb0-0de8-4939-b309-e3568215a879" data-name="Icons" xmlns="http://www.w3.org/2000/svg" viewBox="0 0 50 50"><path d="M40.353,15.74l-11-11a.5.5,0,0,0-.162-.108A.481.481,0,0,0,29,4.594H10a.5.5,0,0,0-.5.5v40a.5.5,0,0,0,.5.5H40a.5.5,0,0,0,.5-.5v-29a.508.508,0,0,0-.039-.193A.491.491,0,0,0,40.353,15.74ZM29.5,6.3l9.293,9.293H29.5Zm-19,38.293v-39h18v10.5a.5.5,0,0,0,.5.5H39.5v28Z"/><path d="M22.08,26.46a.527.527,0,0,0-.726-.183L15.729,29.64a.529.529,0,0,0,0,.909l5.625,3.363A.53.53,0,1,0,21.9,33l-4.864-2.908L21.9,27.186A.531.531,0,0,0,22.08,26.46Z"/><path d="M28.646,26.277a.529.529,0,1,0-.542.909l4.864,2.908L28.1,33a.53.53,0,0,0,.542.91l5.625-3.363a.529.529,0,0,0,0-.909Z"/><path d="M26.293,26.229a.531.531,0,0,0-.67.334l-2.25,6.726a.53.53,0,0,0,.334.67.519.519,0,0,0,.168.028.529.529,0,0,0,.5-.362l2.25-6.726A.53.53,0,0,0,26.293,26.229Z"/></svg>