<?xml version="1.0" encoding="utf-8"?>
<!-- Generator: Adobe Illustrator 25.2.3, SVG Export Plug-In . SVG Version: 6.00 Build 0)  -->
<svg version="1.1" id="a7f98e09-0ffe-477e-b1aa-36d559a0c1ee"
	 xmlns="http://www.w3.org/2000/svg" xmlns:xlink="http://www.w3.org/1999/xlink" x="0px" y="0px" viewBox="0 0 50 50"
	 style="enable-background:new 0 0 50 50;" xml:space="preserve">
<path style="fill:#1D9CD3;" d="M25.45,23.9v-7.176c4.185,0.228,4.334,2.74,4.418,4.27v0.019c0.014,0.27,0.245,0.478,0.515,0.464
	c0.004,0,0.007,0,0.011-0.001c0.277-0.02,0.487-0.259,0.471-0.537c-0.082-1.506-0.286-4.952-5.416-5.213v-1.12
	c0-0.276-0.224-0.5-0.5-0.5s-0.5,0.224-0.5,0.5v1.119c-1.497-0.063-2.959,0.467-4.068,1.475c-0.769,0.791-1.184,1.859-1.153,2.962
	c0.025,1.957,0.456,3.653,5.222,4.562v7.816c-2.579,0.061-4.719-1.979-4.781-4.558c-0.004-0.154,0-0.309,0.012-0.463
	c0-0.276-0.224-0.5-0.5-0.5s-0.5,0.224-0.5,0.5c-0.193,3.125,2.184,5.816,5.309,6.009c0.153,0.009,0.307,0.013,0.46,0.01v2.044
	c0,0.276,0.224,0.5,0.5,0.5s0.5-0.224,0.5-0.5V33.55c4.837-0.17,5.753-2.862,5.854-4.492C31.452,26.651,30.489,24.85,25.45,23.9z
	 M20.228,20.145c-0.024-0.833,0.288-1.641,0.866-2.242c0.925-0.81,2.127-1.232,3.356-1.178v6.983
	c-4.176-0.837-4.205-2.219-4.222-3.565V20.145z M30.306,29c-0.139,2.251-1.785,3.435-4.856,3.548v-7.633
	C30.086,25.827,30.406,27.364,30.306,29z"/>
<path style="fill:#1D9CD3;" d="M25,4.594c-11.322,0-20.5,9.178-20.5,20.5s9.178,20.5,20.5,20.5s20.5-9.178,20.5-20.5
	C45.487,13.777,36.317,4.607,25,4.594z M25,44.594c-10.77,0-19.5-8.73-19.5-19.5s8.73-19.5,19.5-19.5s19.5,8.73,19.5,19.5
	C44.487,35.858,35.764,44.581,25,44.594z"/>
</svg>
