<svg xmlns="http://www.w3.org/2000/svg" viewBox="0 0 50 50"><g id="b88afedd-080e-46a6-8754-18cf1d598f5c" data-name="Isolation Mode"><path d="M6.75,10.262l10.165,0v6.628H6.773a.5.5,0,0,0,0,1H9.315v6.623H6.773a.5.5,0,0,0,0,1H16.915v6.624H6.773a.5.5,0,1,0,0,1H9.315v6.624H6.773a.5.5,0,0,0,0,1H43.25a.5.5,0,0,0,0-1H40.709V33.127H43.25a.5.5,0,0,0,0-1H33.11V25.505H43.25a.5.5,0,1,0,0-1H40.709V17.884H43.25a.5.5,0,0,0,0-1H33.11V10.253l10.14,0a.5.5,0,1,0,0-1l-36.5.013a.5.5,0,1,0,0,1Zm3.563,7.622h14.2v6.623h-14.2Zm0,15.243h14.2v6.624h-14.2Zm29.4,6.624h-14.2V33.127h14.2Zm-7.6-7.622h-14.2V25.505h14.2Zm7.6-7.622h-14.2V17.884h14.2Zm-7.6-7.621h-14.2V10.258l14.2,0Z"/></g></svg>