<svg id="Icons" xmlns="http://www.w3.org/2000/svg" viewBox="0 0 128 128"><defs><style>.cls-1,.cls-2,.cls-3{fill:none;stroke:#1d9cd3;stroke-width:3px;}.cls-1,.cls-2{stroke-linecap:round;stroke-linejoin:round;}.cls-1{stroke-dasharray:8 6;}.cls-3{stroke-miterlimit:10;}</style></defs><title>gear-with-arrows-contained-dotted-square_1D9CD3</title><rect class="cls-1" x="12.02" y="12.02" width="103.96" height="103.96" rx="22.14" ry="22.14"/><polyline class="cls-2" points="110.05 54.62 100.84 64 91.63 54.62"/><polyline class="cls-2" points="17.95 73.37 27.16 64 36.37 73.37"/><path class="cls-2" d="M100.31,70.25A37,37,0,0,1,64,101.49c-20.35,0-36.84-16.78-36.84-37.49"/><path class="cls-2" d="M27.65,57.75A37,37,0,0,1,64,26.5c20.35,0,36.84,16.79,36.84,37.5"/><circle class="cls-3" cx="64" cy="64" r="12.98"/><path class="cls-3" d="M66.12,39.52,67.42,46l.32.06a19,19,0,0,1,2.41.67l4.16-5"/><path class="cls-3" d="M67.42,46l-1.3-6.44a24.08,24.08,0,0,0-4.33,0l-1.11,6.41"/><path class="cls-3" d="M78.06,43.84,76,50.07A17.84,17.84,0,0,1,77.87,52L84,49.67"/><path class="cls-3" d="M76,50.07l2.08-6.23a23.84,23.84,0,0,0-3.75-2.15l-4.16,5"/><path class="cls-3" d="M57.81,46.71l-4.39-4.89A24.36,24.36,0,0,0,49.7,44L52,50.11"/><path class="cls-3" d="M53.42,41.82l4.39,4.89a17.63,17.63,0,0,1,2.87-.78l1.11-6.41"/><path class="cls-3" d="M77.93,76l6.24,2.08a25.1,25.1,0,0,0,2.14-3.75l-5-4.17"/><path class="cls-3" d="M43.86,49.91,50.09,52A17.84,17.84,0,0,1,52,50.11L49.7,44"/><path class="cls-3" d="M81.28,57.78l4.89-4.39A24.47,24.47,0,0,0,84,49.67L77.87,52"/><path class="cls-3" d="M88.48,66.1,82,67.41l-.06.33a18.73,18.73,0,0,1-.67,2.39l5,4.17"/><path class="cls-3" d="M82,67.41l6.44-1.31a24,24,0,0,0,0-4.32l-6.42-1.11"/><path class="cls-3" d="M86.17,53.39l-4.89,4.39a17.86,17.86,0,0,1,.78,2.89l6.42,1.11"/><path class="cls-3" d="M70.23,81.28l4.39,4.88A24.47,24.47,0,0,0,78.34,84L76,77.87"/><path class="cls-3" d="M61.84,88.47,60.54,82l-.28,0a19.53,19.53,0,0,1-2.44-.69l-4.18,5"/><path class="cls-3" d="M60.54,82l1.3,6.44a24,24,0,0,0,4.32,0l1.13-6.41"/><path class="cls-3" d="M74.62,86.16l-4.39-4.88a19.93,19.93,0,0,1-2.94.79l-1.13,6.41"/><path class="cls-3" d="M84.17,78.05,77.93,76A18.83,18.83,0,0,1,76,77.87L78.34,84"/><path class="cls-3" d="M52,77.9l-2.1,6.23a24.2,24.2,0,0,0,3.74,2.15l4.18-5"/><path class="cls-3" d="M39.52,61.85,46,60.55l.06-.29a18.89,18.89,0,0,1,.68-2.43l-5-4.18"/><path class="cls-3" d="M50.09,52l-6.23-2.09a24.2,24.2,0,0,0-2.15,3.74l5,4.18"/><path class="cls-3" d="M46,60.55l-6.44,1.3a24,24,0,0,0,0,4.32l6.41,1.12"/><path class="cls-3" d="M46.7,70.18l-4.89,4.38A25.36,25.36,0,0,0,44,78.29L50.1,76"/><path class="cls-3" d="M49.9,84.13,52,77.9A18.93,18.93,0,0,1,50.1,76L44,78.29"/><path class="cls-3" d="M41.81,74.56l4.89-4.38a18.62,18.62,0,0,1-.77-2.89l-6.41-1.12"/></svg>