<?xml version="1.0" encoding="utf-8"?>
<!-- Generator: Adobe Illustrator 25.2.3, SVG Export Plug-In . SVG Version: 6.00 Build 0)  -->
<svg version="1.1" id="Layer_1" xmlns="http://www.w3.org/2000/svg" xmlns:xlink="http://www.w3.org/1999/xlink" x="0px" y="0px"
	 viewBox="0 0 50 50" style="enable-background:new 0 0 50 50;" xml:space="preserve">
<g id="Layer_1_1_">
</g>
<g id="Icons">
</g>
<g id="Isolation_Mode">
	<path style="fill:#1D9CD3;" d="M16.315,19.941H14.97c-0.276,0-0.5,0.224-0.5,0.5s0.224,0.5,0.5,0.5h1.346
		c0.276,0,0.5-0.224,0.5-0.5S16.592,19.941,16.315,19.941z"/>
	<path style="fill:#1D9CD3;" d="M25.84,19.941h-2.721c-0.276,0-0.5,0.224-0.5,0.5s0.224,0.5,0.5,0.5h2.721
		c0.276,0,0.5-0.224,0.5-0.5S26.117,19.941,25.84,19.941z"/>
	<path style="fill:#1D9CD3;" d="M21.078,19.941h-2.722c-0.276,0-0.5,0.224-0.5,0.5s0.224,0.5,0.5,0.5h2.722
		c0.276,0,0.5-0.224,0.5-0.5S21.354,19.941,21.078,19.941z"/>
	<path style="fill:#1D9CD3;" d="M30.603,19.941h-2.722c-0.276,0-0.5,0.224-0.5,0.5s0.224,0.5,0.5,0.5h2.722
		c0.276,0,0.5-0.224,0.5-0.5S30.879,19.941,30.603,19.941z"/>
	<path style="fill:#1D9CD3;" d="M34.489,20.441c0-0.276-0.224-0.5-0.5-0.5h-1.345c-0.276,0-0.5,0.224-0.5,0.5s0.224,0.5,0.5,0.5
		h1.345C34.266,20.941,34.489,20.718,34.489,20.441z"/>
	<path style="fill:#1D9CD3;" d="M33.636,17.394c-0.196,0.194-0.196,0.512-0.001,0.707l2.389,2.394l-2.389,2.394
		c-0.195,0.195-0.195,0.513,0.001,0.707c0.098,0.098,0.225,0.146,0.353,0.146s0.256-0.049,0.354-0.146l2.742-2.747
		c0.195-0.195,0.195-0.512,0-0.707l-2.742-2.747C34.148,17.198,33.832,17.198,33.636,17.394z"/>
	<path style="fill:#1D9CD3;" d="M15.657,17.779c0.098,0.098,0.226,0.146,0.354,0.146s0.255-0.049,0.353-0.146
		c0.196-0.194,0.196-0.512,0.001-0.707l-1.89-1.894h20.757c0.276,0,0.5-0.224,0.5-0.5s-0.224-0.5-0.5-0.5H14.475l1.89-1.893
		c0.195-0.195,0.195-0.513-0.001-0.707c-0.194-0.195-0.512-0.195-0.707,0l-2.742,2.746c-0.195,0.195-0.195,0.512,0,0.707
		L15.657,17.779z"/>
	<path style="fill:#1D9CD3;" d="M45.5,29.248V7.5C45.5,7.224,45.276,7,45,7H5C4.724,7,4.5,7.224,4.5,7.5v21.748
		c-0.369,0.303-1,1-1,2.252c0,1.728,1.208,2.41,1.259,2.438C4.833,33.979,4.916,34,5,34h10.425c0.263,5.005,4.405,9,9.475,9
		s9.212-3.995,9.475-9H45c0.084,0,0.167-0.021,0.241-0.062c0.051-0.028,1.259-0.71,1.259-2.438
		C46.5,30.248,45.869,29.551,45.5,29.248z M44.5,8v21H33.263c-1.607-2.974-4.753-5-8.364-5s-6.757,2.026-8.364,5H5.5V8H44.5z
		 M4.5,31.5c0-0.892,0.456-1.346,0.653-1.5h10.924c-0.373,0.937-0.596,1.946-0.651,3H5.154C4.953,32.843,4.5,32.39,4.5,31.5z
		 M24.9,42c-4.687,0-8.5-3.813-8.5-8.5s3.813-8.5,8.5-8.5s8.5,3.813,8.5,8.5S29.587,42,24.9,42z M44.847,33H34.375
		c-0.055-1.054-0.278-2.063-0.651-3h11.123c0.201,0.157,0.654,0.61,0.654,1.5C45.5,32.392,45.044,32.846,44.847,33z"/>
	<path style="fill:#1D9CD3;" d="M28.684,31.202h-0.45v-1.395c0-1.843-1.496-3.342-3.334-3.342s-3.334,1.499-3.334,3.342v1.395h-0.45
		c-0.276,0-0.5,0.224-0.5,0.5v6.632c0,0.276,0.224,0.5,0.5,0.5h7.568c0.276,0,0.5-0.224,0.5-0.5v-6.632
		C29.184,31.426,28.96,31.202,28.684,31.202z M22.566,29.808c0-1.291,1.047-2.342,2.334-2.342s2.334,1.051,2.334,2.342v1.395h-4.668
		C22.566,31.203,22.566,29.808,22.566,29.808z M28.184,37.834h-6.568v-5.632h6.568C28.184,32.202,28.184,37.834,28.184,37.834z"/>
</g>
</svg>
