<svg xmlns="http://www.w3.org/2000/svg" viewBox="0 0 50 50"><g id="b5e33eb9-5a3e-40bc-9182-8b8e03caf37b" data-name="Isolation Mode"><path d="M16.784,26.106a1.05,1.05,0,1,0,.655,1.333A1.051,1.051,0,0,0,16.784,26.106Z"/><path d="M33.685,35.906a1.05,1.05,0,1,0,.654,1.333A1.05,1.05,0,0,0,33.685,35.906Z"/><path d="M25.234,40.806a1.05,1.05,0,1,0,.655,1.333A1.05,1.05,0,0,0,25.234,40.806Z"/><rect x="23.845" y="30.95" width="2.1" height="2.1"/><rect x="32.346" y="26.1" width="2" height="2"/><polygon points="15.345 37.851 17.545 37.851 16.445 35.949 15.345 37.851"/><polygon points="23.795 23.151 25.995 23.151 24.895 21.249 23.795 23.151"/><path d="M22.471,18l-2.425,4.2,2.425,4.2H27.32l2.425-4.2L27.32,18Zm4.272,7.4H23.048L21.2,22.2,23.048,19h3.7l1.847,3.2Z"/><path d="M35.771,31.3,38.2,27.1l-2.424-4.2h-4.85L28.5,27.1l2.425,4.2ZM31.5,23.9h3.695l1.848,3.2-1.848,3.2H31.5l-1.847-3.2Z"/><path d="M30.921,32.7,28.5,36.9l2.425,4.2h4.85L38.2,36.9l-2.424-4.2Zm4.272,7.4H31.5l-1.847-3.2L31.5,33.7h3.695l1.848,3.2Z"/><path d="M14.02,22.9,11.6,27.1l2.425,4.2h4.85L21.3,27.1,18.87,22.9Zm4.273,7.4H14.6L12.75,27.1,14.6,23.9h3.695l1.847,3.2Z"/><path d="M18.87,32.7H14.02L11.6,36.9l2.425,4.2h4.85L21.3,36.9Zm-.577,7.4H14.6L12.75,36.9,14.6,33.7h3.695l1.847,3.2Z"/><path d="M22.471,27.8,20.046,32l2.425,4.2H27.32L29.745,32,27.32,27.8Zm4.272,7.4H23.048L21.2,32l1.848-3.2h3.7L28.59,32Z"/><path d="M22.471,37.6l-2.425,4.2L22.471,46H27.32l2.425-4.2L27.32,37.6ZM26.743,45H23.048L21.2,41.8l1.848-3.2h3.7l1.847,3.2Z"/><path d="M44.013,17.472a11.259,11.259,0,0,0,.307-2.613,11.5,11.5,0,0,0-22.041-4.468A9.912,9.912,0,0,0,8.8,19.026,6.744,6.744,0,0,0,9.318,32.5h1.965a.5.5,0,1,0,0-1H9.318a5.747,5.747,0,1,1-.025-11.494.5.5,0,0,0,.5-.5,8.909,8.909,0,0,1,12.558-8,.493.493,0,0,0,.395.006.5.5,0,0,0,.277-.284,10.5,10.5,0,0,1,20.3,3.634,10.228,10.228,0,0,1-.361,2.7.5.5,0,0,0,.21.55A7.3,7.3,0,0,1,40,31.49H38.607a.5.5,0,1,0,0,1l1.448,0A8.334,8.334,0,0,0,47.5,24.2,8.25,8.25,0,0,0,44.013,17.472Z"/></g></svg>