<svg xmlns="http://www.w3.org/2000/svg" viewBox="0 0 50 50"><g id="e6beef53-2220-4ab0-a1c6-93b9f386d604" data-name="Isolation Mode"><path d="M9.271,25.956a4.5,4.5,0,0,0,4.088-2.645L20.6,25.658a4.526,4.526,0,0,0-.071.7,4.48,4.48,0,0,0,1.582,3.4l-4.61,6.346a4.449,4.449,0,0,0-2.214-.607,4.541,4.541,0,1,0,3.025,1.191l4.625-6.366a4.333,4.333,0,0,0,4.2,0l4.622,6.361a4.635,4.635,0,1,0,.811-.584l-4.607-6.341a4.28,4.28,0,0,0,1.512-4.1l7.242-2.346a4.481,4.481,0,1,0-.409-1.851,4.556,4.556,0,0,0,.091.9L29.223,24.69A4.5,4.5,0,0,0,25.542,21.9V14.449a4.5,4.5,0,1,0-1,0V21.9a4.5,4.5,0,0,0-3.68,2.79l-7.184-2.328a4.444,4.444,0,0,0,.093-.907,4.5,4.5,0,1,0-4.5,4.5ZM18.791,40a3.5,3.5,0,1,1-3.5-3.5A3.5,3.5,0,0,1,18.791,40Zm19.494,0a3.5,3.5,0,1,1-3.5-3.5A3.5,3.5,0,0,1,38.285,40Zm2.529-22.039a3.5,3.5,0,1,1-3.5,3.5A3.5,3.5,0,0,1,40.814,17.961ZM21.542,10a3.5,3.5,0,1,1,3.5,3.5A3.5,3.5,0,0,1,21.542,10Zm3.5,12.869a3.491,3.491,0,1,1-3.49,3.491A3.495,3.495,0,0,1,25.042,22.869ZM9.271,17.956a3.5,3.5,0,1,1-3.5,3.5A3.5,3.5,0,0,1,9.271,17.956Z"/></g></svg>