<?xml version="1.0" encoding="utf-8"?>
<!-- Generator: Adobe Illustrator 25.2.3, SVG Export Plug-In . SVG Version: 6.00 Build 0)  -->
<svg version="1.1" id="Layer_1" xmlns="http://www.w3.org/2000/svg" xmlns:xlink="http://www.w3.org/1999/xlink" x="0px" y="0px"
	 viewBox="0 0 50 50" style="enable-background:new 0 0 50 50;" xml:space="preserve">
<g id="ac678e8a-e3c9-41c0-a510-6c0070287457">
	<path style="fill:#1D9CD3;" d="M25,4.5C13.678,4.5,4.5,13.678,4.5,25S13.678,45.5,25,45.5S45.5,36.322,45.5,25
		C45.487,13.683,36.317,4.513,25,4.5z M25,44.5C14.23,44.5,5.5,35.77,5.5,25S14.23,5.5,25,5.5S44.5,14.23,44.5,25
		C44.487,35.764,35.764,44.487,25,44.5z"/>
	<path style="fill:#1D9CD3;" d="M38.678,20.519c0.473,1.447,0.713,2.959,0.711,4.481c0,0.276,0.224,0.5,0.5,0.5s0.5-0.224,0.5-0.5
		c0.002-1.628-0.255-3.245-0.761-4.792c-0.079-0.265-0.357-0.416-0.622-0.337c-0.265,0.079-0.416,0.357-0.337,0.622
		C38.672,20.501,38.675,20.51,38.678,20.519z"/>
	<path style="fill:#1D9CD3;" d="M36.481,14.752c-0.184-0.206-0.5-0.224-0.706-0.04c-0.206,0.184-0.224,0.5-0.04,0.706
		c0.688,0.77,1.292,1.612,1.8,2.511c0.144,0.236,0.451,0.311,0.687,0.167c0.225-0.137,0.305-0.426,0.183-0.659
		C37.862,16.476,37.217,15.576,36.481,14.752z"/>
	<path style="fill:#1D9CD3;" d="M25,9.61c-6.838,0.011-12.85,4.526-14.767,11.09l-2.04-0.522c-0.265-0.079-0.543,0.072-0.622,0.337
		s0.072,0.543,0.337,0.622c0.012,0.004,0.025,0.007,0.037,0.01l2.039,0.523C9.739,22.762,9.613,23.879,9.611,25
		c0,0.276,0.224,0.5,0.5,0.5s0.5-0.224,0.5-0.5c0.002-1.037,0.116-2.07,0.341-3.082l11.4,2.919
		c-0.077,1.461,1.045,2.708,2.506,2.784c1.461,0.077,2.708-1.045,2.784-2.506c0.077-1.461-1.045-2.708-2.506-2.784
		c-1.015-0.053-1.971,0.479-2.46,1.369c-0.03,0.055-0.047,0.113-0.073,0.169l-11.4-2.92c2.232-7.623,10.222-11.993,17.844-9.76
		c1.642,0.481,3.184,1.251,4.556,2.273c0.221,0.165,0.534,0.12,0.7-0.101c0.165-0.221,0.12-0.533-0.1-0.699
		C31.548,10.672,28.318,9.6,25,9.61z"/>
</g>
</svg>
