<?xml version="1.0" encoding="utf-8"?>
<!-- Generator: Adobe Illustrator 25.2.3, SVG Export Plug-In . SVG Version: 6.00 Build 0)  -->
<svg version="1.1" id="afc6aad1-3f49-4a89-95bb-dd8ab01a844c"
	 xmlns="http://www.w3.org/2000/svg" xmlns:xlink="http://www.w3.org/1999/xlink" x="0px" y="0px" viewBox="0 0 50 50"
	 style="enable-background:new 0 0 50 50;" xml:space="preserve">
<path style="fill:#1D9CD3;" d="M9.584,43.344h4.677c1.015,0.001,1.838-0.82,1.839-1.835c0,0,0,0,0,0v-0.527l1.586,0.007
	c0.979,0.796,2.027,1.503,3.133,2.111c0.073,0.039,0.154,0.059,0.237,0.059l18.292,0.008c1.587,0.012,2.883-1.264,2.895-2.851
	c0.001-0.109-0.005-0.219-0.016-0.327C42.305,38.97,41.838,37.985,41,37.4c0.857-0.608,1.332-1.621,1.25-2.669
	c0.079-1.026-0.394-2.017-1.242-2.6c0.847-0.61,1.314-1.618,1.233-2.658c0.078-1.022-0.391-2.009-1.233-2.593
	c0.847-0.61,1.315-1.618,1.234-2.659c0.157-1.534-0.959-2.905-2.493-3.062c-0.128-0.013-0.257-0.017-0.386-0.013h-9.577
	c0.229-0.5,0.433-0.92,0.612-1.291c0.647-1.061,1.004-2.272,1.038-3.514c0-0.175,0.006-0.4,0.013-0.665
	c0.07-2.472,0.231-8.261-3.605-8.786c-0.779-0.183-1.6-0.022-2.253,0.441c-0.572,0.6-0.863,1.415-0.8,2.242
	c-0.006,0.127-0.011,0.245-0.02,0.348c-0.155,1.527-0.9,6.317-1.473,7.03c-1.204,1.453-2.507,2.822-3.9,4.095
	c-0.535,0-2.5,0.02-3.3,0.027V20.91c-0.001-1.012-0.822-1.833-1.834-1.834h-4.68c-1.013,0.001-1.833,0.821-1.834,1.834v20.6
	C7.751,42.522,8.572,43.343,9.584,43.344z M19.5,22.049c0.809,0,4.538-4.423,4.574-4.468c0.948-1.179,1.682-7.495,1.688-7.558
	c0.012-0.119,0.018-0.255,0.025-0.4C25.732,9.077,25.891,8.531,26.23,8.1c0.443-0.27,0.976-0.349,1.478-0.219
	c2.947,0.4,2.8,5.564,2.741,7.767c-0.007,0.276-0.013,0.511-0.013,0.693c-0.037,1.091-0.361,2.153-0.938,3.079
	c-0.263,0.543-0.577,1.192-0.941,2.026c-0.11,0.253,0.005,0.548,0.258,0.658c0.063,0.027,0.131,0.042,0.2,0.042h10.348
	c0.565,0,1.879,0.2,1.879,2.075c0,2.072-1.565,2.177-1.879,2.177h-5.71c-0.276,0-0.5,0.224-0.5,0.5s0.224,0.5,0.5,0.5h5.709
	c0.565,0,1.879,0.2,1.879,2.074c0,2.073-1.565,2.178-1.879,2.178h-5.685c-0.276,0.001-0.5,0.225-0.499,0.501
	c0.001,0.275,0.224,0.498,0.499,0.499h1.343c0.01,0,0.017,0,0.027,0h4.324c0.565,0,1.879,0.2,1.879,2.075
	c0,2.072-1.565,2.177-1.879,2.177h-4.146c-0.01,0.001-0.019,0.003-0.029,0.006h-1.543c-0.276,0-0.5,0.224-0.5,0.5s0.224,0.5,0.5,0.5
	h5.7c0.564,0,1.879,0.2,1.879,2.074c0,2.073-1.566,2.178-1.879,2.178l-18.165-0.008c-1.059-0.593-2.063-1.28-3-2.052
	c-0.091-0.076-0.205-0.118-0.323-0.119L16.1,39.982V22.076C16.958,22.068,19.2,22.049,19.5,22.049z M8.75,20.91
	c0.001-0.46,0.374-0.833,0.834-0.834h4.677c0.46,0.001,0.833,0.374,0.834,0.834v20.6c-0.001,0.461-0.373,0.834-0.834,0.835H9.584
	c-0.461-0.001-0.833-0.374-0.834-0.835V20.91z"/>
</svg>
