<svg id="Icons" xmlns="http://www.w3.org/2000/svg" viewBox="0 0 128 128"><defs><style>.cls-1{fill:none;stroke:#1d9cd3;stroke-linecap:round;stroke-linejoin:round;stroke-width:3px;}</style></defs><polyline class="cls-1" points="82.78 56.28 89.38 63.98 82.78 71.67"/><circle class="cls-1" cx="66.3" cy="63.97" r="9.89"/><circle class="cls-1" cx="42.12" cy="63.97" r="5.5"/><line class="cls-1" x1="47.61" y1="63.97" x2="56.4" y2="63.97"/><line class="cls-1" x1="76.19" y1="63.97" x2="87.18" y2="63.97"/><polyline class="cls-1" points="63.13 42.62 72.53 38.83 77.7 47.54"/><line class="cls-1" x1="67.36" y1="54.09" x2="71.82" y2="40.92"/><polyline class="cls-1" points="63.16 85.38 72.56 89.17 77.73 80.46"/><line class="cls-1" x1="67.39" y1="73.91" x2="71.85" y2="87.08"/><circle class="cls-1" cx="42.12" cy="63.97" r="5.5"/><polyline class="cls-1" points="125.29 51.74 113.03 64 100.78 51.74"/><polyline class="cls-1" points="2.71 76.26 14.97 64 27.23 76.26"/><path class="cls-1" d="M112.33,72.17A49,49,0,0,1,14.94,64"/><path class="cls-1" d="M15.62,55.83A49,49,0,0,1,113,64"/></svg>