<svg id="Layer_1" data-name="Layer 1" xmlns="http://www.w3.org/2000/svg" viewBox="0 0 128 128"><defs><style>.cls-1,.cls-2{fill:none;stroke:#1d9cd3;stroke-width:2.62px;}.cls-1{stroke-linecap:round;stroke-linejoin:round;}.cls-2{stroke-miterlimit:10;}</style></defs><path class="cls-1" d="M59.15,49.13c6.12-4.48,10.28-13.24,10.28-23.31,0-14.64-8.77-20.17-19.57-20.17S30.28,11.18,30.28,25.82c0,10.07,4.16,18.84,10.28,23.31"/><path class="cls-1" d="M8.37,93.8l6.86-30.57a12.21,12.21,0,0,1,5.28-6.93,60.41,60.41,0,0,1,20.05-7.17,15.81,15.81,0,0,0,9.3,3.35,15.78,15.78,0,0,0,9.29-3.35"/><path class="cls-1" d="M70.67,52.28a62.44,62.44,0,0,0-11.53-3.15"/><path class="cls-1" d="M101.74,117a32,32,0,0,1-40.52-4.12,32.56,32.56,0,0,1,0-45.84"/><path class="cls-1" d="M66.23,62.9A32,32,0,0,1,106.75,67a32.56,32.56,0,0,1,0,45.84"/><polyline class="cls-1" points="48.34 67.02 61.22 67.02 61.22 79.99"/><polyline class="cls-1" points="119.63 112.86 106.75 112.86 106.75 99.89"/><circle class="cls-2" cx="84.37" cy="89.76" r="17.76"/><ellipse class="cls-2" cx="84.3" cy="89.76" rx="9.16" ry="17.76"/><line class="cls-2" x1="67.43" y1="84.42" x2="101.31" y2="84.42"/><line class="cls-2" x1="67.44" y1="95.12" x2="101.3" y2="95.12"/></svg>