<svg version="1" xmlns="http://www.w3.org/2000/svg" width="1045.333" height="1045.333" viewBox="0 0 784.000000 784.000000"><path d="M347.2 35c-3.5.3-8.4.5-10.8.5-2.4 0-4.4.2-4.4.5s-1.9.5-4.3.6c-4.6.1-14.3 1.3-22.7 2.9-1.4.3-4.1.7-6 1-7 1.1-26 5.6-34.1 8.1-4.6 1.3-9.3 2.7-10.4 2.9-1.1.3-2.9.9-4 1.4-1.1.5-5.6 2.1-10 3.6s-9.3 3.3-11 4.1c-1.6.7-6.4 2.7-10.5 4.5-8.3 3.5-30.3 14.8-36.2 18.5-2.1 1.3-4.2 2.4-4.8 2.4-.5 0-1 .4-1 1 0 .5-.5 1-1.1 1-.6 0-3.1 1.4-5.7 3.2-2.6 1.8-4.9 3.2-5.2 3.2-.3 0-1.4.8-2.4 1.8-1.1 1-2.3 1.8-2.7 1.8-.4 0-1.4.6-2.1 1.3-.7.7-2.9 2.4-4.8 3.7-4 2.8-3.5 2.4-11.5 8.7-20.1 15.7-43.3 38.9-58.8 58.7-2.6 3.4-5.3 6.8-6.1 7.6-.7.8-3.3 4.4-5.7 8-2.4 3.6-4.6 6.7-4.9 7-3.1 2.6-30.9 53-29.3 53 .3 0 .1.6-.5 1.2-.9 1.2-6 12.8-6.6 15.3-.2.5-.8 2.1-1.3 3.5-1.1 2.6-8.2 22.9-8.2 23.3 0 .1-.2.9-.5 1.7-.8 2.2-3.6 13.1-4.2 16-.2 1.4-.7 3.2-1 4-.3.8-.8 2.6-1 4-.3 1.4-1.3 7-2.4 12.5-1.1 5.5-2.1 11.6-2.4 13.5-.2 1.9-.5 3.5-.6 3.5-.1 0-.3 1.6-.5 3.5-.1 1.9-.6 7.3-1.1 12-1.1 11.1-1.1 56.2 0 66.5.4 4.4.9 9.3 1.1 11 .2 1.6.6 4.3.9 6 .3 1.6.8 5.2 1.2 8 .3 2.7.8 5.4 1.1 5.8.2.4.6 2.2.8 4 .4 3.3 1.1 6.7 1.9 9.5.3.9.8 3 1.1 4.7.3 1.6.7 3.4.9 4 .2.5.6 2.3 1 4 1 4 6.5 22.6 7.3 24.5.3.8.7 1.9.8 2.5.5 1.8 4.6 12.9 6.2 16.5.8 1.9 2.1 4.8 2.8 6.5 7.3 17.4 21.2 43.9 23.9 45.7.6.4.8.8.4.8s1.3 3 3.7 6.8c6 9.1 6.4 9.6 11.2 16.3 2.4 3.3 4.1 6 3.8 6-.3.1-.9.2-1.5.3-1.8.2-1.2 1.6 2.2 5.9 15 18.6 17 20.7 19.4 20.7 1.9 0 5 2.4 11.3 8.8 10.9 10.7 16.8 16.2 24.6 22.7 3.3 2.7 6.2 5.2 6.5 5.6.3.3 5.2 4 11 8.2 5.8 4.2 11 8.1 11.7 8.7.7.5 1.7 1 2.3 1 .5 0 1 .4 1 1 0 .5.7 1 1.5 1s1.5.4 1.5.9.8 1.1 1.8 1.4c1.8.6 7.4 3.8 8.2 4.8.6.7 18.4 10.7 21.3 12 1.2.5 2.9 1.3 3.7 1.9 2.8 1.7 17.4 8.2 27 12 5.2 2 10.4 4.1 11.5 4.5 1.1.5 2.2.9 2.5 1 .3 0 4.1 1.3 8.5 2.7 7.5 2.5 21.6 6.5 25.3 7.3.9.2 4.9 1.1 8.7 2 8.6 2.1 8.9 2.1 14.5 2.9 2.5.3 5.6.8 7 1.1 2.3.5 7.2 1.2 14 2.1 15.1 1.9 57.8 2.6 72.5 1.1 10.9-1.1 16.7-1.8 20-2.3 1.7-.3 4.2-.7 5.6-.9 4.8-.7 19.3-3.5 23.4-4.6 2.2-.6 5.1-1.3 6.5-1.5 1.4-.3 3.4-.8 4.5-1.1 1.1-.4 2.5-.8 3-.9 4.6-.8 25.8-7.7 31.2-10 1.7-.8 3.6-1.4 4.2-1.4 1.2 0 2.2-.4 7.9-3.4 1.7-.9 3.2-1.4 3.2-1 0 .3.7 0 1.6-.7.9-.7 2.2-1.4 2.9-1.5 1.4-.2 22.6-10.8 31.2-15.5 14.5-8 39.5-25 47.4-32.2 1-.9 2.1-1.7 2.4-1.7.3 0 1.6-1 2.9-2.2 1.3-1.3 4.5-4.1 7.1-6.3 12.5-10.5 34.7-33.8 45.8-48 2.6-3.3 5.1-6.5 5.5-7 2-2.5 15.2-21.6 15.2-22 0-.2 1.3-2.3 2.9-4.7 1.6-2.4 3.9-6.1 5.1-8.3 1.1-2.2 3.4-6.3 5.1-9 1.6-2.8 3.3-6 3.9-7.3.6-1.3 3-6.5 5.4-11.5 7.5-15.7 19-46.4 21-56 .3-1.2.9-3.7 1.5-5.5.5-1.8 1-3.5 1-3.7.1-.3.1-.6.2-.8.1-.5.8-3.5 3.2-15.7 5.3-26.1 7.1-44.6 7.1-71-.1-14.1-1.1-35-1.9-38-.2-.8-.7-4.2-1-7.4-.8-8.4-1.3-11.5-4.2-25.6-3.1-15-2.9-14.1-3.6-16-.6-1.6-1.8-6.4-2.4-9.4-.2-1.1-1-4-1.9-6.5-.9-2.5-1.7-5.3-1.9-6.1-.3-1.4-2.8-8.4-7-19.9-.9-2.4-2.5-6.2-3.5-8.4-1.1-2.3-2-4.5-2-4.9 0-1.9-18-37.1-19.2-37.6-.5-.2-.8-.8-.8-1.3 0-.4-2.3-4.4-5-8.7-4.1-6.4-4.9-8.5-4.4-10.9.5-2.5-.4-4.1-7.1-12.1-4.2-5.1-8-9-8.5-8.7-1.1.7-2.9-1.1-11-10.5-18.9-22.1-33.5-35.8-59.5-55.8-.5-.4-2.6-1.8-4.5-3.2-1.9-1.3-3.7-2.7-4-3-.8-.9-8.9-6-9.5-6-.3 0-1.5-.8-2.6-1.8-1-1.1-3.2-2.5-4.7-3.3-1.5-.7-3.8-2.1-5.2-3C536.4 78 494.7 58 490.9 58c-.6 0-2.5-.7-4.2-1.5-3.7-1.7-14.1-5.3-17.5-6.1-1.3-.2-4.2-1.1-6.5-1.8-5.2-1.8-18.6-5-29.5-7.1-12.1-2.4-14.1-2.7-32.2-5-12-1.5-43-2.4-53.8-1.5zM736.8 591c-9.5 4.2-15.9 13.8-16.3 24.5-.1 3.1 2.2 12.6 3.4 13.5.3.3 1.2 1.6 1.9 3 1.7 3.2 10.1 8.7 15.1 9.9 19.3 4.3 36.8-12.7 32.7-31.9-1.7-8-8.3-15.7-16.3-19.1-5.6-2.4-15-2.3-20.5.1zm18.5 3.5c1.5.4 2.7 1.1 2.7 1.6s.5.9 1 .9c1.6 0 7 5.2 7 6.7 0 .7.4 1.3.9 1.3 1.3 0 2.9 7.2 2.6 12.1-.4 5.9-2.7 11-7 15-2 1.9-3.9 3.4-4.3 3.5-.4 0-1.9.6-3.4 1.2-9.3 3.9-22.4-1.1-27.2-10.2-8-15.6 3.6-34.1 20.9-33 2.2.1 5.2.5 6.8.9z"/><path d="M740.8 603l-2.5.5.1 12.5c.1 6.9.4 12.4.9 12.2.4-.1 1.1-.2 1.5-.2.5 0 .8-2.4.8-5.3-.1-5.1 0-5.2 2.9-5.4 3.6-.3 5.1.8 9.2 6.8 1.8 2.5 3.9 4.6 4.7 4.6.9 0 1.6-.2 1.6-.4 0-1-2.5-5.1-5.4-8.8-1.7-2.1-2.6-3.6-2-3.2 1 .6 5.2-2.5 5.5-4.1 1.2-6.3-1.3-8.9-9.2-9.4-3.1-.1-6.8-.1-8.1.2zm11.7 3.4c2.5.7 3.1 4.9.9 6.7-1.5 1.2-9.4 1.7-11.1.6-.7-.4-1.1-8.1-.4-8.2 1.7-.2 9.1.4 10.6.9z"/></svg>