<?xml version="1.0" encoding="utf-8"?>
<!-- Generator: Adobe Illustrator 24.1.2, SVG Export Plug-In . SVG Version: 6.00 Build 0)  -->
<svg version="1.1" id="Layer_1" xmlns="http://www.w3.org/2000/svg" xmlns:xlink="http://www.w3.org/1999/xlink" x="0px" y="0px"
	 viewBox="0 0 130 46" style="enable-background:new 0 0 130 46;" xml:space="preserve">
<style type="text/css">
	.st0{fill-rule:evenodd;clip-rule:evenodd;fill:#6C778C;}
	.st1{fill:#6C778C;}
</style>
<g id="Page-1">
	<g id="Customer" transform="translate(-1627.000000, -30.000000)">
		<g id="digitalvirgo" transform="translate(1627.000000, 30.000000)">
			<path id="Fill-1" class="st0" d="M53.7,22v4.5c0.2,0,0.3,0.1,0.4,0.1c3,0,5.9,0,8.9,0c0.7,0,1.4-0.1,2.1-0.4
				c0.5-0.2,0.7-0.5,0.7-1s0-0.9,0-1.4c0-0.8-0.2-1.1-1-1.4c-0.8-0.3-1.7-0.3-2.5-0.4c-2.6,0-5.3,0-7.9,0C54.2,22,54,22,53.7,22
				 M58.7,28.7c0.2,0.1,0.4,0.2,0.6,0.3c2.5,1.1,4.9,2.1,7.4,3.2c0.2,0.1,0.5,0.2,0.7,0.4c0.5,0.4,0.4,1-0.1,1.3
				c-0.7,0.3-1.4,0.3-2.1,0c-1.9-0.8-3.8-1.6-5.6-2.4c-1.7-0.7-3.5-1.5-5.2-2.3c-0.2-0.1-0.4-0.1-0.6-0.2c0,0.2,0,0.4,0,0.5
				c0,1.1,0,2.3,0,3.4c0,0.9-0.3,1.1-1.1,1.1c-0.1,0-0.3,0-0.4,0c-0.7-0.1-0.9-0.3-0.9-1c0-4,0-8,0-12c0-0.7,0.2-0.9,0.9-0.9
				c3.8,0,7.6,0,11.4,0c1,0,2,0.3,3,0.7c1.2,0.6,2,1.5,1.9,2.9c0,0.4,0,0.9,0,1.3c0.1,1.3-0.6,2.2-1.8,2.8c-0.9,0.4-1.8,0.7-2.7,0.7
				c-1.4,0-2.8,0-4.2,0c-0.3,0-0.6,0-0.9,0C58.7,28.6,58.7,28.6,58.7,28.7"/>
			<path id="_x5B_SMARTDATAPERFORMER_x5D_" class="st1" d="M25.8,41.3V41h-0.5v-3.8h0.5v-0.3h-0.9v4.4
				C24.9,41.3,25.8,41.3,25.8,41.3z M29.8,40.6c0.2,0,0.3,0,0.5-0.1s0.3-0.1,0.4-0.2s0.2-0.2,0.3-0.3c0.1-0.1,0.1-0.3,0.1-0.5
				s0-0.4-0.1-0.5s-0.2-0.2-0.3-0.3c-0.1-0.1-0.3-0.1-0.4-0.2c-0.2,0-0.3-0.1-0.4-0.1c-0.1-0.1-0.2-0.1-0.3-0.2
				c-0.1-0.1-0.1-0.2-0.1-0.3s0-0.1,0-0.2c0-0.1,0.1-0.1,0.1-0.2s0.1-0.1,0.2-0.1s0.2-0.1,0.3-0.1c0.1,0,0.3,0,0.4,0.1
				s0.2,0.1,0.3,0.2l0,0l0.4-0.4c-0.1-0.2-0.3-0.3-0.5-0.3s-0.4-0.1-0.6-0.1s-0.4,0-0.5,0.1c-0.2,0.1-0.3,0.1-0.4,0.2
				c-0.1,0.1-0.2,0.2-0.2,0.3s-0.1,0.2-0.1,0.3c0,0.2,0,0.4,0.1,0.5s0.2,0.2,0.3,0.3c0.1,0.1,0.3,0.1,0.4,0.2c0.2,0,0.3,0.1,0.4,0.1
				s0.2,0.1,0.3,0.2c0.1,0.1,0.1,0.2,0.1,0.3s0,0.2-0.1,0.3c0,0.1-0.1,0.1-0.2,0.2c-0.1,0-0.1,0.1-0.2,0.1s-0.2,0-0.2,0
				c-0.1,0-0.3,0-0.4-0.1s-0.2-0.2-0.3-0.3l0,0l-0.4,0.3c0.1,0.2,0.3,0.3,0.5,0.4C29.4,40.5,29.6,40.6,29.8,40.6z M32.8,40.5v-2.9
				l0,0l1.2,2.9h0.3l1.2-2.9l0,0v2.9H36V37h-0.7l-1.1,2.7l0,0L33,37h-0.7v3.5H32.8z M37.6,40.5l0.4-0.9h1.7l0.3,0.9h0.6L39,37h-0.4
				L37,40.5H37.6z M39.5,39.2h-1.3l0.7-1.6l0,0L39.5,39.2z M42.1,40.5v-1.6h0.5l0.9,1.6h0.6l-1-1.6c0.1,0,0.3,0,0.4-0.1
				s0.2-0.1,0.3-0.2s0.1-0.2,0.2-0.3c0-0.1,0.1-0.2,0.1-0.3s0-0.2-0.1-0.3c0-0.1-0.1-0.2-0.2-0.3c-0.1-0.1-0.2-0.2-0.3-0.2
				c-0.1-0.1-0.3-0.1-0.6-0.1l0,0h-1.2v3.4H42.1z M42.7,38.5h-0.6v-1.1h0.6c0.1,0,0.2,0,0.3,0s0.2,0,0.2,0.1c0.1,0,0.1,0.1,0.2,0.2
				c0,0.1,0.1,0.2,0.1,0.3s0,0.2-0.1,0.3c0,0.1-0.1,0.1-0.2,0.2c0,0-0.1,0-0.2,0S42.8,38.5,42.7,38.5L42.7,38.5z M46.4,40.5v-3.1
				h1.1v-0.5h-2.8v0.5h1.1v3.1H46.4z M51.7,40.5c0.3,0,0.6,0,0.8-0.2c0.2-0.1,0.4-0.2,0.6-0.4s0.3-0.4,0.4-0.6
				c0.1-0.2,0.1-0.4,0.1-0.7c0-0.1,0-0.2,0-0.4c0-0.1-0.1-0.3-0.1-0.4c-0.1-0.1-0.1-0.3-0.2-0.4s-0.2-0.2-0.3-0.3s-0.3-0.2-0.5-0.2
				c-0.2-0.1-0.4-0.1-0.7-0.1l0,0h-1.2v3.7H51.7z M51.6,40H51v-2.6h0.7c0.3,0,0.5,0,0.7,0.1s0.3,0.2,0.4,0.3
				c0.1,0.1,0.2,0.3,0.2,0.4c0,0.2,0.1,0.3,0.1,0.4c0,0.2,0,0.4-0.1,0.6c-0.1,0.2-0.2,0.3-0.3,0.4c-0.1,0.1-0.3,0.2-0.5,0.2
				S51.8,40,51.6,40L51.6,40z M55.1,40.5l0.3-0.9h1.7l0.4,0.9H58L56.5,37h-0.4l-1.6,3.5H55.1z M56.9,39.2h-1.3l0.7-1.6l0,0
				L56.9,39.2z M59.8,40.5v-3.1H61v-0.5h-2.8v0.5h1.1v3.1H59.8z M61.7,40.5l0.4-0.9h1.7l0.4,0.9h0.6L63.3,37h-0.4l-1.7,3.5H61.7z
				 M63.6,39.2h-1.3l0.7-1.6l0,0L63.6,39.2z M68.2,40.5v-1.6H69c0.2,0,0.4,0,0.6-0.1s0.3-0.1,0.3-0.2c0.1-0.1,0.1-0.2,0.2-0.3
				s0-0.2,0-0.3s0-0.2,0-0.3s-0.1-0.2-0.2-0.3s-0.2-0.2-0.3-0.2c-0.1-0.1-0.3-0.1-0.6-0.1l0,0h-1.2v3.4H68.2z M68.8,38.5h-0.6v-1.1
				h0.6c0.1,0,0.2,0,0.3,0c0.1,0,0.2,0,0.2,0.1s0.1,0.1,0.2,0.2c0,0.1,0.1,0.2,0.1,0.3s0,0.2-0.1,0.3s-0.1,0.1-0.2,0.2s-0.1,0-0.2,0
				S68.9,38.5,68.8,38.5L68.8,38.5z M73.7,40.5V40h-1.9v-1.1h1.7v-0.4h-1.7v-1.1h1.8v-0.5h-2.3v3.6H73.7z M75.4,40.5v-1.6H76
				l0.9,1.6h0.6l-1-1.6c0.1,0,0.3,0,0.4-0.1s0.2-0.1,0.3-0.2s0.1-0.2,0.2-0.3s0.1-0.2,0.1-0.3s0-0.2,0-0.3s-0.1-0.2-0.2-0.3
				s-0.2-0.2-0.3-0.2c-0.1-0.1-0.3-0.1-0.6-0.1l0,0h-1.2v3.4H75.4z M76.1,38.5h-0.6v-1.1h0.6c0.1,0,0.2,0,0.3,0c0.1,0,0.2,0,0.2,0.1
				s0.1,0.1,0.2,0.2c0,0.1,0.1,0.2,0.1,0.3s0,0.2-0.1,0.3s-0.1,0.1-0.2,0.2s-0.2,0-0.3,0C76.2,38.5,76.1,38.5,76.1,38.5L76.1,38.5z
				 M79.1,40.5V39h1.6v-0.5h-1.6v-1.1h1.7v-0.5h-2.2v3.6H79.1z M83.7,40.6c0.3,0,0.5,0,0.7-0.1s0.4-0.2,0.6-0.4s0.3-0.4,0.4-0.6
				c0.1-0.2,0.1-0.5,0.1-0.7s0-0.5-0.1-0.7s-0.2-0.4-0.4-0.6c-0.2-0.2-0.4-0.3-0.6-0.4C84.2,37,83.9,37,83.7,37s-0.5,0-0.7,0.1
				s-0.4,0.2-0.6,0.4s-0.3,0.4-0.4,0.6c-0.1,0.2-0.1,0.5-0.1,0.7s0,0.5,0.1,0.7s0.2,0.4,0.4,0.6s0.4,0.3,0.6,0.4
				C83.2,40.5,83.4,40.6,83.7,40.6z M83.7,40.1c-0.2,0-0.4,0-0.5-0.1c-0.2-0.1-0.3-0.2-0.4-0.3s-0.2-0.3-0.3-0.4
				c-0.1-0.2-0.1-0.4-0.1-0.5s0-0.4,0.1-0.5c0.1-0.2,0.2-0.3,0.3-0.4c0.1-0.1,0.3-0.2,0.4-0.3c0.2-0.1,0.3-0.1,0.5-0.1
				s0.4,0,0.5,0.1c0.2,0.1,0.3,0.2,0.4,0.3s0.2,0.3,0.3,0.4c0.1,0.1,0.1,0.2,0.1,0.4s0,0.4-0.1,0.5c-0.1,0.2-0.2,0.3-0.3,0.4
				c-0.1,0.1-0.3,0.2-0.4,0.3C84.1,40.1,83.9,40.1,83.7,40.1z M87.3,40.5v-1.6h0.5l0.9,1.6h0.6l-1-1.6c0.1,0,0.3,0,0.4-0.1
				s0.2-0.1,0.3-0.2c0.1-0.1,0.1-0.2,0.2-0.3s0.1-0.2,0.1-0.3s0-0.2,0-0.3s-0.1-0.2-0.2-0.3s-0.2-0.2-0.3-0.2
				c-0.1-0.1-0.3-0.1-0.6-0.1l0,0H87v3.4H87.3z M87.9,38.5h-0.6v-1.1h0.6c0.1,0,0.2,0,0.3,0s0.2,0,0.2,0.1s0.1,0.1,0.2,0.2
				c0,0.1,0.1,0.2,0.1,0.3s0,0.2-0.1,0.3s-0.1,0.1-0.2,0.2s-0.1,0-0.2,0C88.1,38.5,88,38.5,87.9,38.5L87.9,38.5z M90.9,40.5v-2.9
				l0,0l1.2,2.9h0.3l1.2-2.9l0,0v2.9h0.5V37h-0.7l-1.1,2.7l0,0L91.2,37h-0.7v3.5H90.9z M98,40.5V40h-1.9v-1.1h1.7v-0.4h-1.7v-1.1
				h1.8v-0.5h-2.3v3.6H98z M99.8,40.5v-1.6h0.5l0.9,1.6h0.6l-1-1.6c0.1,0,0.3,0,0.4-0.1s0.2-0.1,0.3-0.2c0.1-0.1,0.1-0.2,0.2-0.3
				c0-0.1,0.1-0.2,0.1-0.3s0-0.2-0.1-0.3c0-0.1-0.1-0.2-0.2-0.3s-0.2-0.2-0.3-0.2c-0.1-0.1-0.3-0.1-0.6-0.1l0,0h-1.2v3.4H99.8z
				 M100.4,38.5h-0.6v-1.1h0.6c0.1,0,0.2,0,0.3,0s0.2,0,0.2,0.1c0.1,0,0.1,0.1,0.2,0.2c0,0.1,0.1,0.2,0.1,0.3s0,0.2-0.1,0.3
				c0,0.1-0.1,0.1-0.2,0.2c-0.1,0-0.2,0.1-0.2,0.1C100.6,38.5,100.5,38.5,100.4,38.5L100.4,38.5z M105.5,41.3v-4.4h-0.9v0.3h0.4V41
				h-0.4v0.3C104.6,41.3,105.5,41.3,105.5,41.3z"/>
			<path id="Fill-3" class="st0" d="M102.8,27L102.8,27c0-1,0-2,0-3s-0.5-1.4-1.2-1.7c-0.8-0.3-1.7-0.3-2.6-0.4c-1.4,0-2.8,0-4.2,0
				c-0.9,0-1.8,0.1-2.6,0.4C91.3,22.6,91,23,91,24c0,2,0,3.9,0,5.9c0,0.8,0.3,1.3,1,1.5s1.4,0.4,2.1,0.4c1.9,0.1,3.7,0.1,5.6,0
				c0.7,0,1.4-0.2,2.1-0.4c0.7-0.2,1-0.7,1-1.4C102.8,29,102.8,28,102.8,27L102.8,27z M105.3,26.9c0,1.1,0,2.3,0,3.4
				c0,1.5-0.8,2.4-2,2.9c-0.8,0.4-1.7,0.6-2.6,0.6c-2.1,0-4.2,0.1-6.3,0.1c-1.1,0-2.2-0.2-3.3-0.5c-0.8-0.3-1.4-0.6-2-1.3
				c-0.4-0.5-0.6-1-0.6-1.7c0-2.3,0-4.7,0-7c0-0.8,0.4-1.5,1-2.1c0.8-0.7,1.7-1,2.7-1.1c0.7-0.1,1.4-0.2,2.1-0.2c1.7,0,3.5,0,5.2,0
				c1,0,1.9,0.1,2.9,0.3c0.7,0.2,1.3,0.4,1.8,0.9c0.6,0.5,1,1.2,1,2C105.3,24.4,105.3,25.6,105.3,26.9L105.3,26.9z"/>
			<path id="Fill-5" class="st0" d="M84.5,28.5c-0.4,0-0.6,0-0.9,0c-1.9,0-3.8,0-5.7,0c-0.8,0-0.9-0.1-0.9-0.9c0-0.3,0-0.5,0-0.8
				s0.1-0.5,0.2-0.8c0.3,0,0.6,0,0.8,0c2.6,0,5.2,0,7.8,0c0.1,0,0.2,0,0.3,0c0.5,0,0.8,0.3,0.8,0.8c0,1.2,0,2.5,0,3.7
				c0,0.9-0.4,1.8-1.2,2.3c-0.9,0.5-1.8,0.9-2.8,1c-2.6,0.2-5.2,0.1-7.8,0.1c-1.1,0-2.1-0.2-3.1-0.6c-1.4-0.6-2.1-1.5-2.2-3.1
				c0-2.2,0-4.5,0-6.7c0-1.1,0.4-1.8,1.3-2.4c1.1-0.7,2.2-1,3.5-1.1c1.2-0.1,2.3,0,3.5,0c0.6,0,0.8,0.3,0.8,0.9
				c0,0.9-0.3,1.1-1.2,1.1c-1.3-0.1-2.7-0.1-4,0.3c-0.2,0.1-0.5,0.1-0.7,0.2c-0.5,0.2-0.7,0.6-0.7,1.1c0,2.2,0,4.5,0,6.7
				c0,0.6,0.3,1,0.8,1.2c0.7,0.3,1.4,0.4,2.1,0.4c2.1,0,4.3,0,6.4,0c0.8,0,1.5-0.2,2.1-0.6c0.5-0.2,0.7-0.6,0.7-1.2
				C84.5,29.6,84.5,29.1,84.5,28.5"/>
			<path id="Fill-7" class="st0" d="M27.6,14.5c0.2,0,0.3,0,0.5,0c2.3,0,4.6,0,6.9,0c0.6,0,1.1-0.2,1.7-0.3c0.7-0.2,1-0.7,1-1.3
				c0-1.6,0-3.3,0-4.9c0-0.7-0.2-1-0.9-1.2c-0.6-0.2-1.1-0.3-1.7-0.3c-2.3,0-4.6,0-7,0c-0.2,0-0.3,0-0.5,0.1
				C27.6,6.6,27.6,14.5,27.6,14.5z M25.5,10.5c0-1.6,0-3.1,0-4.7c0-0.9,0.1-1.1,1-1.1c2.9,0,5.8,0,8.6,0c0.9,0,1.9,0.1,2.8,0.5
				c1,0.4,1.8,1.2,1.8,2.6c0,1.8,0,3.5,0,5.3c0,1.2-0.5,1.9-1.5,2.4c-0.9,0.4-1.8,0.7-2.8,0.7c-3,0-6,0-9,0c-0.8,0-0.9-0.2-0.9-1
				C25.5,13.7,25.5,12.1,25.5,10.5L25.5,10.5z"/>
			<path id="Fill-9" class="st0" d="M35.5,31.3c0.9-1.3,1.7-2.4,2.5-3.6c1.7-2.4,3.3-4.8,5-7.1c0.4-0.6,1.7-0.8,2.3-0.4
				c0.2,0.2,0.3,0.4,0.2,0.6s-0.2,0.5-0.3,0.7c-1.9,2.7-3.7,5.3-5.6,8c-0.9,1.3-1.8,2.5-2.7,3.7c-0.5,0.7-1.4,1-2.2,0.6
				c-0.3-0.1-0.5-0.3-0.7-0.6c-0.7-0.9-1.4-1.9-2-2.8c-1.9-3-4-5.9-6.1-8.9c-0.7-1-0.5-1.5,0.7-1.6c0.6,0,1.2,0.1,1.6,0.7
				c1.1,1.6,2.2,3.3,3.4,4.9c1.2,1.8,2.5,3.6,3.8,5.3C35.4,31,35.4,31.1,35.5,31.3"/>
			<path id="Fill-11" class="st0" d="M57.4,11.8h-5.9c-0.4-0.6-0.2-1.2-0.1-1.8c0-0.1,0.2-0.2,0.3-0.3s0.3,0,0.4,0
				c2.2,0,4.3,0,6.5,0c0.8,0,0.9,0.2,1,0.9c0,0.9,0,1.8,0,2.6c0,0.9-0.4,1.7-1.2,2.2c-0.9,0.5-1.8,0.8-2.8,0.8c-1.9,0-3.9,0-5.8,0
				c-1,0-2-0.2-2.9-0.7s-1.4-1.2-1.4-2.2c0-1.9,0-3.7,0-5.6c0-1,0.5-1.7,1.3-2.1c0.6-0.3,1.3-0.6,2-0.7c1.3-0.2,2.6-0.2,4-0.1
				c0.1,0.3,0.2,0.5,0.3,0.7c-0.1,0.6-0.4,1-1,1c-0.7,0-1.4,0-2.2,0c-0.5,0-1.1,0.1-1.6,0.3c-0.7,0.2-0.9,0.5-0.9,1.1
				c0,1.7,0,3.4,0,5.2c0,0.7,0.2,1,0.9,1.2c0.5,0.1,1.1,0.2,1.6,0.2c1.6,0,3.2,0,4.7,0c0.7,0,1.3-0.1,2-0.4c0.4-0.2,0.7-0.5,0.6-1
				C57.4,12.7,57.4,12.3,57.4,11.8"/>
			<path id="Fill-13" class="st0" d="M83,6.9c-1.1,1.6-2.1,3-3.1,4.6c1.9,0.1,5.6,0.1,6.1-0.1C85,9.9,84,8.4,83,6.9 M87.4,13.2h-8.7
				c-0.4,0.6-0.9,1.3-1.3,1.9c-0.2,0.2-0.3,0.5-0.5,0.7c-0.6,0.8-1.3,0.8-1.8-0.2c0.1-0.2,0.2-0.4,0.4-0.6c2-3.1,4.1-6.2,6.1-9.3
				c0.4-0.7,1-1.1,1.8-1c0.4,0,0.6,0.2,0.9,0.5c2.2,3.2,4.5,6.4,6.7,9.6c0.1,0.2,0.3,0.4,0.3,0.6c0.1,0.4-0.1,0.8-0.4,1
				c-0.4,0.2-0.9,0.2-1.2-0.1c-0.2-0.2-0.3-0.4-0.5-0.6C88.5,14.9,87.9,14.1,87.4,13.2"/>
			<path id="Fill-16" class="st0" d="M77.7,4.8c0.1,0.3,0.2,0.5,0.2,0.7c0.1,0.6-0.2,1-0.8,1c-1.2,0-2.5,0-3.7,0h-0.8
				c0,0.2,0,0.5,0,0.7c0,2.6,0,5.2,0,7.8c0,1.2-0.2,1.4-1.4,1.3c-0.5,0-0.7-0.2-0.7-0.7c0-0.2,0-0.3,0-0.5V7.6v-1
				c-0.3-0.1-0.5-0.1-0.6-0.1c-1.3,0-2.6,0-3.8,0c-0.8,0-1.2-0.7-0.8-1.4c0.1-0.3,0.4-0.3,0.7-0.4c0.3,0,0.6,0,1,0
				c3.3,0,6.5,0,9.8,0C77,4.8,77.3,4.8,77.7,4.8"/>
			<path id="Fill-18" class="st0" d="M105.2,14.6c0.1,0.2,0.1,0.4,0.2,0.5c0.2,0.8-0.1,1.1-0.9,1.1c-2.5,0-5,0-7.5,0
				c-0.8,0-1.7-0.1-2.5-0.4c-1.5-0.5-2.1-1.4-2.1-2.9c0-2.4,0-4.7,0-7.1c0-0.3,0-0.6,0.1-0.8c0.6-0.4,1.2-0.2,1.7-0.2
				c0.3,0.3,0.4,0.6,0.4,1c0,2.3,0,4.7,0,7c0,0.9,0.2,1.3,1.1,1.4c0.7,0.3,1.5,0.3,2.3,0.3c2.1,0,4.3,0,6.4,0
				C104.7,14.5,104.9,14.6,105.2,14.6"/>
			<path id="Fill-21" class="st0" d="M47.1,26.9c0-1.9,0-3.9,0-5.8c0-0.2,0-0.3,0-0.5c0-0.3,0.2-0.5,0.5-0.5c0.4,0,0.7,0,1.1,0
				c0.4,0,0.7,0.3,0.8,0.7c0,0.2,0,0.4,0,0.6c0,3.8,0,7.6,0,11.4c0,0.2,0,0.3,0,0.5c0,0.4-0.2,0.7-0.6,0.7c-0.5,0-1,0-1.4-0.1
				c-0.3,0-0.4-0.3-0.4-0.6c0-0.2,0-0.4,0-0.6C47.1,30.8,47.1,28.8,47.1,26.9"/>
			<path id="Fill-23" class="st0" d="M61.5,4.8c0.3,0,0.7-0.1,1.1-0.1c0.6,0,0.7,0.2,0.8,0.8c0,0.4,0,0.7,0,1.1c0,2.8,0,5.6,0,8.4
				c0,0.1,0,0.3,0,0.4c0,0.2,0,0.3-0.1,0.5c-0.4,0.5-0.9,0.3-1.4,0.3c-0.4,0-0.6-0.3-0.6-0.6c0-0.1,0-0.3,0-0.4c0-3.1,0-6.2,0-9.3
				C61.2,5.5,61.2,5.2,61.5,4.8"/>
			<path id="Fill-25" class="st0" d="M43.6,10.5c0,1.6,0,3.2,0,4.8c0,0.7-0.3,1-0.9,1c-0.2,0-0.3,0-0.5,0c-0.5-0.1-0.7-0.2-0.7-0.7
				c0-0.2,0-0.3,0-0.5c0-3,0-6,0-9.1c0-0.2,0-0.4,0-0.6c0-0.3,0.2-0.5,0.5-0.5s0.6-0.1,0.8,0c0.5,0,0.7,0.2,0.7,0.8
				c0,0.8,0,1.6,0,2.4C43.6,8.8,43.6,9.6,43.6,10.5"/>
		</g>
	</g>
</g>
</svg>
