<?xml version="1.0" encoding="utf-8"?>
<!-- Generator: Adobe Illustrator 24.1.2, SVG Export Plug-In . SVG Version: 6.00 Build 0)  -->
<svg version="1.1" id="Layer_1" xmlns="http://www.w3.org/2000/svg" xmlns:xlink="http://www.w3.org/1999/xlink" x="0px" y="0px"
	 viewBox="0 0 130 46" style="enable-background:new 0 0 130 46;" xml:space="preserve">
<style type="text/css">
	.st0{fill-rule:evenodd;clip-rule:evenodd;fill:#6C778C;}
</style>
<g id="Page-1">
	<g id="Customer" transform="translate(-1082.000000, -37.000000)">
		<g id="kindred" transform="translate(1082.000000, 37.000000)">
			<g id="Group-15" transform="translate(34.587156, 6.519878)">
				<path id="Fill-1" class="st0" d="M86.6,19.2L86.6,19.2c0,0.8,0,1.6,0,2.5c0,0.5,0.1,1.1,0.8,1.2c1.2,0.1,2.5,0.1,3.6-0.6
					c0.4-0.3,0.7-0.6,0.6-1.1c0-1.4,0-2.7,0-4.1c0-0.5-0.2-0.8-0.7-1.1c-0.8-0.5-1.9-0.5-2.9-0.5s-1.3,0.3-1.3,1.2
					C86.6,17.6,86.6,18.4,86.6,19.2L86.6,19.2z M87.1,24.9c-2.4-0.7-2.4-1.7-2.5-3.6c0-1.4,0-2.9,0-4.3c0-0.4,0-0.7,0.1-1.1
					c0.2-1.2,0.8-1.9,2-2.2c1.5-0.3,2.9-0.1,4.3,0.7c0.1,0.1,0.3,0.2,0.4,0.3s0.2,0.1,0.3,0.2v-3.2c-0.6-0.1-1.2-0.1-1.9-0.2
					c0-0.5,0-1-0.1-1.4c0.9-0.3,2.3-0.4,4-0.1c0.2,1.1,0.1,2.1,0.1,3.2s0,2.2,0,3.3v3.2V23c0.6,0.1,1,0.1,1.6,0.1v1.5h-3.5
					c-0.1-0.4-0.1-0.7-0.2-0.9c-1,0.4-1.9,0.8-2.9,1.2C88.8,24.9,87.1,24.9,87.1,24.9z"/>
				<path id="Fill-3" class="st0" d="M45.2,19.2L45.2,19.2c0,0.9,0,1.9,0,2.8c0,0.4,0.1,0.8,0.6,0.8c1.3,0.1,2.5,0.1,3.7-0.5
					c0.4-0.2,0.6-0.6,0.6-1.1c0-1.4,0-2.7,0-4.1c0-0.6-0.2-0.9-0.7-1.1c-1.1-0.6-2.3-0.5-3.5-0.5c-0.5,0-0.7,0.3-0.7,0.8
					C45.2,17.3,45.2,18.3,45.2,19.2L45.2,19.2z M45.6,24.9c-0.2-0.1-0.5-0.2-0.7-0.2c-1.2-0.4-1.8-1.1-1.8-2.3c0-2.1,0-4.2,0-6.3
					c0-1.3,0.6-2,1.9-2.4c1.5-0.4,2.9-0.2,4.2,0.5c0.2,0.1,0.5,0.3,0.8,0.5v-3.1c-0.6-0.1-1.2-0.2-1.8-0.2V9.9
					c1.3-0.1,2.5-0.1,3.9,0V23c0.6,0.1,1.1,0.1,1.7,0.2c0,0.4,0,0.9,0.1,1.4c-1.2,0.2-2.3,0.1-3.5,0.1c-0.1-0.4-0.2-0.7-0.3-0.9
					c-1,0.4-1.9,0.8-2.9,1.1C47.2,24.9,45.6,24.9,45.6,24.9z"/>
				<path id="Fill-13" class="st0" d="M3.8,19.4C5,18,6,16.8,7.1,15.6c-0.3-0.3-0.7-0.5-0.8-0.7c-0.1-0.3,0-0.7,0-1.1
					c1.7-0.3,3.3-0.1,4.9-0.1v1.6c-1.7,0.2-1.7,0.2-2.9,1.5c-0.4,0.4-0.7,0.8-1.1,1.2c0.1,0.2,0.1,0.4,0.2,0.5
					c0.8,1.5,1.7,3,2.5,4.5c0.5,0,1,0.1,1.7,0.1c0,0.4,0.1,0.9,0.1,1.3c-0.9,0.4-1.9,0.2-2.7,0.1c-0.3,0-0.6-0.5-0.8-0.8
					c-0.8-1.4-1.5-2.7-2.4-4.3c-0.7,1.2-2.3,1.7-1.9,3.5c0.5,0.1,1,0.1,1.5,0.2v1.4H0.1v-1.4c0.5-0.1,1-0.1,1.4-0.2
					c0.2-0.9,0.3-10,0.1-11.3c-0.5-0.2-1.1-0.2-1.4-0.5C0,11,0.1,10.4,0,9.9c0.7,0,1.3,0,1.8-0.1c0.6,0,1.1,0,1.9,0
					c0.1,1.6,0,3.2,0,4.7C3.8,16.1,3.8,17.6,3.8,19.4"/>
				<path id="Fill-15" class="st0" d="M30,23c0.6,0.1,0.9,0.1,1.5,0.1c0,0.4,0,0.9,0.1,1.3c-0.9,0.3-3.9,0.4-5.4,0.1v-1.3
					c0.5-0.1,1-0.1,1.6-0.2c0.1-2.5,0.1-5,0-7.6c-0.5,0-1-0.1-1.6-0.1c0-0.4-0.1-0.7-0.1-1c0-0.4,0.2-0.6,0.6-0.6c0.9,0,1.7,0,2.6,0
					c0.7,0,0.6,0.6,0.8,1.1c1.1-0.8,2.3-1.2,3.6-1.2c2.1,0.1,3,1,3,3.1c0,1.7,0,3.4,0,5.2c0,0.4,0,0.8,0,1.3c0.6,0.1,1,0.1,1.6,0.2
					v1.5h-2.6h-2.6v-1.5c0.5-0.1,0.9-0.1,1.4-0.2c0-0.3,0.1-0.5,0.1-0.8c0-1.8,0-3.6,0-5.4c0-1.1-0.3-1.4-1.4-1.4
					c-0.9,0.1-1.8,0.1-2.6,0.5c-0.3,0.2-0.6,0.4-0.6,0.8C30,18.9,30,20.9,30,23"/>
				<path id="Fill-17" class="st0" d="M77.6,18.1c0-0.6,0-1,0-1.4c0-1-0.3-1.3-1.3-1.3c-0.7,0-1.3,0-2,0c-1.1,0-1.3,0.3-1.3,1.4
					c0,0.4,0,0.9,0,1.4h4.6V18.1z M79.6,19.8H73c0,0.9,0,1.7,0,2.5c0,0.4,0.3,0.6,0.6,0.6c1.1,0,2.1,0,3.2,0c0.4,0,0.7-0.3,0.7-0.7
					c0-0.3,0.1-0.6,0.1-1h1.8c0.6,2-0.4,3.4-2.5,3.5c-1.2,0-2.3,0-3.5,0c-1.8,0-2.6-0.8-2.6-2.6c0-2,0-4,0-6c0-1.4,0.6-2.2,2-2.4
					c1.6-0.2,3.2-0.1,4.8,0c1.1,0.1,1.8,0.9,1.9,1.9C79.7,17,79.6,18.3,79.6,19.8L79.6,19.8z"/>
				<path id="Fill-19" class="st0" d="M62.3,23c0.8,0.1,1.3,0.1,2,0.1v1.4h-5.7c0-0.4,0-0.9-0.1-1.4c0.6-0.1,1.1-0.1,1.7-0.2v-7.6
					c-0.5-0.1-1-0.1-1.6-0.2v-1.6c1,0,2.1,0,3.1,0c0.2,0,0.4,0.3,0.6,0.5c0.1,0.2,0.1,0.5,0.1,0.6c0.9-0.4,1.7-0.8,2.6-1
					c1.1-0.3,1.3,0,1.3,1.1c0,0.2-0.1,0.4-0.1,0.7c-0.3,0-0.7,0.1-1,0.1c-0.6,0.1-1.3,0.3-1.9,0.5c-0.7,0.2-1,0.7-1,1.5
					C62.3,19.3,62.3,21.1,62.3,23"/>
				<path id="Fill-21" class="st0" d="M17.8,23v-7.6c-0.5-0.1-1-0.1-1.6-0.2v-1.6h3.7v9.3c0.6,0.1,1.1,0.1,1.6,0.2v1.4
					c-0.9,0.3-3.8,0.3-5.3,0.1v-1.4C16.7,23.2,17.1,23.1,17.8,23"/>
				<polygon id="Fill-23" class="st0" points="17.8,12.2 19.8,12.2 19.8,10.1 17.8,10.1 				"/>
			</g>
			<g id="Group-17" transform="translate(0.000000, 0.000000)">
				<path id="Fill-6" class="st0" d="M12.9,31.2h-2.6c0-0.3-0.1-0.6-0.1-0.8c0-6.5,0-13,0-19.6c0-0.9,0-1,1-1c0.5,0,1.1,0,1.6,0
					C13.1,10.6,13.1,30.1,12.9,31.2"/>
				<path id="Fill-9" class="st0" d="M16.3,23.5c2.3,2.5,4.6,5,7,7.7c-1.3,0-2.3,0-3.3,0c-0.2,0-0.5-0.2-0.7-0.4
					c-1.6-1.8-3.1-3.7-4.7-5.5c-0.5-0.6-0.9-1.1-1.4-1.7c0.4-0.5,0.7-0.9,1.1-1.3c1.5-1.6,3-3.3,4.5-4.9c0.4-0.4,0.8-0.6,1.4-0.6
					c0.7,0,1.5,0,2.2,0c0,0.1,0.1,0.1,0.1,0.2c-1,1.1-2,2.1-3.1,3.2C18.4,21.2,17.4,22.3,16.3,23.5"/>
				<path id="Fill-11" class="st0" d="M7.1,23.4C5,21.2,3,19.1,0.9,16.9c1-0.2,1.9-0.1,2.7-0.1c0.2,0,0.4,0.2,0.6,0.4
					c1.1,1.1,2.2,2.3,3.2,3.4c0.9,1,1.7,1.9,2.6,3c-0.3,0.5-0.7,0.9-1,1.4c-1.5,1.8-3.1,3.7-4.6,5.5C4,31,3.5,31.3,2.7,31.3
					c-0.8-0.1-1.6,0-2.6,0c0.9-1,1.6-1.9,2.4-2.7c0.8-0.8,1.5-1.7,2.3-2.5C5.5,25.2,6.3,24.3,7.1,23.4"/>
			</g>
		</g>
	</g>
</g>
</svg>
