<?xml version="1.0" encoding="utf-8"?>
<!-- Generator: Adobe Illustrator 24.1.2, SVG Export Plug-In . SVG Version: 6.00 Build 0)  -->
<svg version="1.1" id="Layer_1" xmlns="http://www.w3.org/2000/svg" xmlns:xlink="http://www.w3.org/1999/xlink" x="0px" y="0px"
	 viewBox="0 0 130 46" style="enable-background:new 0 0 130 46;" xml:space="preserve">
<style type="text/css">
	.st0{fill-rule:evenodd;clip-rule:evenodd;fill:#A0A7C2;}
	.st1{fill-rule:evenodd;clip-rule:evenodd;fill:#6C778C;}
	.st2{fill-rule:evenodd;clip-rule:evenodd;fill:#FBFCFD;}
</style>
<g id="Page-1">
	<g id="Customer" transform="translate(-1770.000000, -25.000000)">
		<g id="mediapart" transform="translate(1770.000000, 25.000000)">
			<polygon id="Fill-1" class="st0" points="76.4,16.2 81.5,13 80.2,19.2 85.9,17.1 83.4,22.8 83.4,22.8 89.4,22.1 85.8,27.1 
				91.8,27.7 87.2,31.7 93,33.5 37,33.5 42.8,31.7 38.2,27.6 44.2,27 40.6,22.1 46.6,22.8 44.1,17.1 49.8,19.2 48.5,13.1 53.6,16.3 
				53.6,10 58.1,14.3 58.1,14.3 59.2,8.1 62.6,13.2 65,7.5 67.4,13.2 70.9,8.1 71.9,13.6 76.7,9.8 			"/>
			<path id="Combined-Shape" class="st1" d="M54.8,37.3c0.6,0.6,1.2,1.7,1.2,3.2c0,1.6-0.7,2.8-1.4,3.5c-0.6,0.6-1.9,1.5-4.3,1.5
				c-0.5,0-1-0.1-1.5-0.1c-0.5-0.1-1-0.1-1.3-0.1h-0.7c-0.3,0-0.6,0-0.9,0c-0.1,0-0.3,0-0.3-0.1s0.1-0.1,0.2-0.1
				c0.2,0,0.3,0,0.4-0.1c0.3-0.1,0.3-0.3,0.4-0.7c0.1-0.5,0.1-1.5,0.1-2.7v-4.9c0-0.4-0.1-0.6-0.6-0.7c-0.1,0-0.3,0-0.5,0
				c-0.1,0-0.2,0-0.2-0.1s0.1-0.1,0.3-0.1c0.7,0,1.5,0,1.8,0c0.4,0,1.3,0,2.1,0C51.2,35.9,53.4,35.9,54.8,37.3z M95.1,35.9
				c0.8,0,1.7,0.1,2.4,0.5c0.4,0.3,0.9,0.9,0.9,1.8c0,0.9-0.5,1.8-1.8,2.8c1.1,1.4,2,2.6,2.8,3.4c0.7,0.7,1.2,0.8,1.4,0.8
				c0.1,0,0.2,0,0.3,0c0.1,0,0.2,0.1,0.2,0.1c0,0.1-0.1,0.1-0.2,0.1h-1.2c-0.7,0-1-0.1-1.4-0.3c-0.6-0.3-1-0.9-1.7-1.9
				c-0.5-0.7-1-1.5-1.2-1.7c-0.2,0-0.2,0-0.3,0h-1.2c-0.1,0-0.1,0-0.1,0.1v0.2c0,1.2,0,2.2,0.1,2.7c0.1,0.4,0.1,0.6,0.5,0.7
				c0.2,0,0.5,0,0.6,0s0.2,0.1,0.2,0.1c0,0.1-0.1,0.1-0.3,0.1c-0.8,0-1.8,0-2,0c-0.3,0-1,0-1.6,0c-0.1,0-0.2,0-0.2-0.1
				s0-0.1,0.2-0.1s0.3,0,0.4,0c0.3-0.1,0.3-0.3,0.4-0.7c0-0.4,0.1-1.2,0.1-2.1v-5.5c0-0.4-0.1-0.6-0.6-0.7c-0.1,0-0.3,0-0.5,0
				c-0.1,0-0.2,0-0.2-0.1s0.1-0.1,0.3-0.1c0.7,0,1.5,0,1.7,0C93.6,35.9,94.8,35.9,95.1,35.9z M77.6,35.9c1.6,0,2.2,0.5,2.4,0.7
				c0.3,0.3,0.6,0.8,0.6,1.5c0,1.8-1.4,3.1-3.2,3.1H77c-0.1,0-0.2-0.1-0.2-0.1c0-0.1,0.1-0.2,0.4-0.2c0.7,0,1.7-0.8,1.7-2
				c0-0.4,0-1.2-0.8-1.9c-0.3-0.5-0.8-0.5-1.1-0.5c-0.2,0-0.4,0-0.6,0.1c-0.1,0-0.1,0.1-0.1,0.2v5.6c0,0.9,0,1.7,0.1,2.2
				c0.1,0.4,0.1,0.6,0.5,0.6c0.2,0,0.5,0.1,0.6,0.1s0.2,0.1,0.2,0.1c0,0.1-0.1,0.1-0.2,0.1c-0.8,0-1.6,0-2,0h-0.1
				c-0.3,0-1.1,0-1.6,0c-0.1,0-0.2,0-0.2-0.1s0-0.1,0.2-0.1s0.3,0,0.5-0.1c0.3-0.1,0.3-0.3,0.4-0.7c0.1-0.5,0.1-1.5,0.1-2.7l0.1-2.3
				v-2.7c0-0.4-0.1-0.6-0.6-0.7c-0.1,0-0.3,0-0.5,0c-0.1,0-0.2,0-0.2-0.1s0.1-0.1,0.3-0.1c0.7,0,1.5,0,1.8,0
				C76,35.9,77,35.9,77.6,35.9z M32.6,33.8c0.1,0,0.2,0.1,0.3,0.5l1.3,9.2c0.1,0.9,0.3,1.3,0.7,1.5s0.6,0.2,0.8,0.1h0.1
				c0.1,0,0.2,0,0.2,0.1s-0.2,0.1-0.4,0.1c-0.3,0-2.4-0.1-2.9-0.1c-0.3,0-0.4-0.1-0.4-0.2c0-0.1,0.1-0.1,0.2-0.2
				c0.1,0,0.1-0.2,0.1-0.6l-0.9-6.5h-0.1l-3.2,6.8c-0.3,0.7-0.4,0.8-0.5,0.8s-0.3-0.3-0.5-0.7c-0.3-0.7-1.5-2.9-1.7-3.4
				c-0.1-0.3-1-2.2-1.5-3.3h-0.1l-0.8,5.9c0,0.3,0,0.5,0,0.7c0,0.3,0.2,0.4,0.4,0.5s0.5,0.1,0.6,0.1s0.2,0,0.2,0.1s-0.1,0.2-0.3,0.2
				c-0.6-0.1-1.3-0.1-1.5-0.1c-0.3,0-1,0.1-1.5,0.1c-0.1,0-0.3-0.1-0.3-0.2c0-0.1,0.1-0.1,0.2-0.1s0.2,0,0.4-0.1
				c0.4-0.1,0.5-0.6,0.6-1.2l1.4-9.7c0-0.3,0.1-0.4,0.2-0.4s0.2,0.1,0.4,0.5l4,8.4l4-8.5C32.4,33.9,32.5,33.8,32.6,33.8z M61.5,35.8
				c0.2,0,0.3,0,0.3,0.1S61.7,36,61.6,36c-0.1,0-0.2,0-0.4,0c-0.3,0.1-0.4,0.2-0.5,0.7c0,0.3,0,0.5,0,1.3v4.4c0,0.9,0,1.6,0.1,2
				s0.1,0.5,0.5,0.6c0.2,0,0.5,0.1,0.7,0.1c0.1,0,0.2,0.1,0.2,0.1c0,0.1-0.1,0.1-0.3,0.1c-0.8,0-1.7-0.1-2.1-0.1
				c-0.3,0-1.2,0.1-1.7,0.1c-0.2,0-0.3-0.1-0.3-0.1c0-0.1,0-0.1,0.2-0.1s0.3,0,0.4-0.1c0.3-0.1,0.4-0.2,0.4-0.6
				c0.1-0.5,0.1-1.5,0.1-2.7v-2.2v-2.7c0-0.4-0.2-0.6-0.4-0.7c-0.1,0-0.3-0.1-0.5-0.1c-0.1,0-0.2,0-0.2-0.1s0.1-0.1,0.3-0.1
				c0.5,0,1.3,0,1.7,0S61,35.8,61.5,35.8z M100.7,35.6c0.1,0,0.2,0.1,0.6,0.1s0.8,0.1,1.3,0.1h5.2c0.4,0,0.7,0,0.9-0.1
				c0.2,0,0.3-0.1,0.3-0.1c0.1,0,0.1,0,0.1,0.2v0.1c0,0.3,0,1.2,0,1.5c0,0.1,0,0.2-0.1,0.2s-0.1-0.1-0.1-0.3v-0.1
				c0-0.3-0.3-0.7-1.5-0.7h-1.6v5.1c0,1.1,0,2.2,0.1,2.7c0.1,0.4,0.1,0.6,0.5,0.6c0.2,0,0.5,0,0.6,0s0.2,0.1,0.2,0.1
				c0,0.1-0.1,0.1-0.2,0.1c-0.8,0-1.7-0.1-2.1-0.1c-0.3,0-1.2,0.1-1.7,0.1c-0.2,0-0.3-0.1-0.3-0.1c0-0.1,0-0.1,0.2-0.1s0.4,0,0.4,0
				c0.3-0.1,0.3-0.3,0.4-0.7c0-0.4,0.1-1.2,0.1-2.1v-5.7l-1.9,0.1c-0.7,0-1,0.1-1.2,0.4c-0.1,0.1-0.2,0.3-0.2,0.4
				c0,0.1-0.1,0.1-0.1,0.1c-0.1,0-0.1-0.1-0.1-0.2c0-0.2,0.3-1.4,0.3-1.5C100.5,35.7,100.6,35.6,100.7,35.6z M85.4,35.5
				c0.2,0,0.2,0.1,0.4,0.4c0.3,0.7,2.4,5.9,3.3,7.8c0.5,1.1,0.8,1.3,1.1,1.3c0.2,0,0.3,0,0.5,0c0.1,0,0.2,0,0.2,0.1
				s-0.1,0.1-0.6,0.1H90c-0.5,0-1.3,0-2.2,0c-0.2,0-0.4,0-0.4-0.1s0-0.1,0.2-0.1c0.1,0,0.2-0.1,0.1-0.3l-1-2.5
				c0-0.1-0.1-0.1-0.1-0.1h-3.1c-0.1,0-0.1,0-0.1,0.1l-0.7,1.7c-0.1,0.3-0.2,0.6-0.2,0.8s0.1,0.4,0.5,0.4h0.2c0.2,0,0.2,0.1,0.2,0.1
				c0,0.1-0.1,0.1-0.2,0.1c-0.4,0-1-0.1-1.4-0.1c-0.1,0-0.8,0.1-1.5,0.1c-0.2,0-0.2,0-0.2-0.1s0-0.1,0.1-0.1s0.3,0,0.4,0
				c0.6-0.1,0.8-0.5,1.1-1.1l3.4-7.9C85.1,35.7,85.2,35.5,85.4,35.5z M67.6,35.5c0.2,0,0.3,0.1,0.4,0.4c0.3,0.7,2.4,5.9,3.3,7.8
				c0.5,1.1,0.8,1.3,1.1,1.3c0.2,0,0.3,0,0.5,0c0.1,0,0.2,0,0.2,0.1s-0.1,0.1-0.6,0.1h-0.3c-0.5,0-1.3,0-2.2,0c-0.2,0-0.4,0-0.4-0.1
				s0-0.1,0.2-0.1c0.1,0,0.2-0.1,0.1-0.3l-1-2.5c0-0.1-0.1-0.1-0.1-0.1h-3c-0.1,0-0.1,0-0.1,0.1L65,43.9c-0.1,0.3-0.2,0.6-0.2,0.8
				s0.1,0.4,0.5,0.4h0.2c0.2,0,0.2,0.1,0.2,0.1c0,0.1-0.1,0.1-0.2,0.1c-0.4,0-1-0.1-1.4-0.1c-0.1,0-0.8,0.1-1.5,0.1
				c-0.1,0-0.2,0-0.2-0.1s0.1-0.1,0.1-0.1c0.1,0,0.3,0,0.4,0c0.6-0.1,0.8-0.5,1-1.1l3.4-7.9C67.4,35.7,67.5,35.5,67.6,35.5z
				 M43.4,35.8C43.5,35.8,43.5,35.9,43.4,35.8c0.1,0.2,0,0.3,0,0.9c0,0.1-0.1,0.7-0.1,0.8s0,0.2-0.1,0.2s-0.1-0.1-0.1-0.2
				c0-0.1,0-0.3-0.1-0.5s-0.2-0.4-0.8-0.5c-0.2,0-1.7-0.1-2-0.1c-0.1,0-0.1,0.1-0.1,0.1v3.1c0,0.1,0,0.1,0.1,0.1h0.3
				c0.6,0,1.7,0,1.9,0c0.3,0,0.5-0.1,0.6-0.2c0.1-0.1,0.1-0.2,0.2-0.2s0.1,0.1,0.1,0.1c0,0.1,0,0.3-0.1,0.9c0,0.3-0.1,0.6-0.1,0.8
				c0,0.1,0,0.3-0.1,0.3s-0.1,0-0.1-0.1s0-0.3-0.1-0.5c-0.1-0.3-0.2-0.4-0.7-0.5c-0.2,0-1.7-0.1-2-0.1c0,0-0.1,0-0.1,0.1v1
				c0,0.4,0,1.5,0,1.9c0,0.8,0.4,1.1,1.7,1.1c0.3,0,0.9,0,1.2-0.2c0.3-0.1,0.5-0.4,0.6-0.9c0-0.1,0.1-0.2,0.1-0.2
				c0.1,0,0.1,0.2,0.1,0.3c0,0.3-0.1,1.1-0.2,1.4C43.4,45,43.3,45,42.8,45c-1,0-1.7,0-2.4-0.1C39.8,45,39.4,45,39,45h-0.9
				c-0.3,0-0.6,0-0.9,0c-0.1,0-0.2,0-0.2-0.1s0-0.1,0.2-0.1s0.3,0,0.5-0.1c0.3-0.1,0.3-0.3,0.4-0.7c0-0.4,0.1-1.2,0.1-2.1v-3.8
				c0-1,0-1.3,0-1.6c0-0.4-0.1-0.6-0.6-0.7c-0.1,0-0.3,0-0.5,0c-0.1,0-0.2,0-0.2-0.1s0.1-0.1,0.3-0.1c0.7,0,1.5,0,1.9,0h3.5
				c0.2,0,0.4-0.1,0.5-0.1C43.3,35.8,43.4,35.8,43.4,35.8z M49.4,36.5c-0.3,0-0.7,0-0.8,0.1s-0.2,0.1-0.2,0.3c0,0.4,0,1.5,0,2.5V41
				c0,1.3,0,2.3,0,2.5c0,0.3,0.1,0.8,0.1,0.9c0.1,0.2,0.7,0.5,1.7,0.5c1.2,0,2-0.2,2.8-0.8c0.8-0.7,1.1-1.8,1.1-3.1
				c0-1.6-0.6-2.6-1.2-3.2C51.8,36.6,50.4,36.5,49.4,36.5z M85,38.1L85,38.1l-1.3,3.3c0,0.1,0,0.1,0,0.1h2.4l0,0
				c0.1,0,0.1,0,0.1-0.1L85,38.1C85.1,38.2,85,38.1,85,38.1z M67.3,38.1L67.3,38.1L66,41.4c0,0.1,0,0.1,0,0.1h2.4
				c0.1,0,0.1,0,0.1-0.1l-1.2-3.2V38.1z M94.9,36.5h-0.3c-0.2,0-0.4,0-0.5,0S94,36.6,94,36.7v3.8c0,0.1,0,0.2,0.1,0.2
				c0.3,0.1,0.6,0.1,1,0.1c0.5,0,0.7,0,0.9-0.2c0.4-0.3,0.8-0.8,0.8-1.9C96.9,36.9,95.7,36.5,94.9,36.5z M81.2,0.5
				c1,0,1.6,0.2,1.8,0.7l0,0l4.3-0.4l0.6,9.8l-0.6,8.8L81.8,19l-6.2,0.4l0.6-8.4v-0.2c-2.4,1.6-5.1,3.3-4.8,4.7
				c0.2,0.6,0.3,1.3,0.3,2.2c0,6.4-0.6,12.5-1,15.5c0,0-8.8,0-9.9,0h-0.1c-0.7-0.1-1.2-0.6-1.9-1.5c-0.4,0-1.6,0-2.8-0.1
				c-1.6,0-3.2-0.1-3.7-0.2c-0.1,0-0.1,0-0.3-0.1l0,0l0,0v-0.1c-0.6-1.5-1.3-4.5-1.3-7.2c0-1.3,0.1-2.5,0.5-3.4l0,0l0.1-0.3l1.4,0.3
				c0.1-0.4,0.3-0.8,0.5-1.1l0,0l0.1-0.3h0.2c0.2,0,0.2,0.2,0.4,0.2c0.2,0.1,0.4,0.2,0.6,0.3c0.5,0.2,1.1,0.4,1.8,0.7
				c0.2,0.1,0.5,0.2,0.7,0.3c0.5-1.3,1.2-2.3,1.8-3.2c-0.6,0.1-1.2,0.2-1.9,0.2l0,0l0,0c-0.9,0-1.8-0.4-2.5-0.8
				c-0.7-0.5-1.3-0.9-1.5-1.4c0-0.1,0-0.1,0-0.2c0-0.5,0.4-0.7,0.7-0.9c0.3-0.3,0.8-0.5,1.2-0.8c0.3-0.2,0.7-0.4,1.2-0.4
				c0.3,0,0.6,0.1,0.9,0.3c0.5,0.4,1.4,0.7,2.4,0.7c0.8,0,1.6-0.2,2.4-0.5l0,0v-0.1c-0.1-0.4-0.3-0.8-0.4-0.8
				c-0.1-0.1-0.2-0.3-0.2-0.5c0-0.4,0.3-0.5,0.3-0.8l0,0v-0.1c-0.6-0.5-1.1-1.3-1.4-2.1l-0.1-0.1l0,0h-0.1c-1,0-1.6-0.5-1.9-1.2
				c-0.1-0.3-0.2-0.6-0.2-1c0-0.7,0.2-1.5,0.6-2.2c1.2-1.9,4.1-3.6,6.2-3.6c1.7,0,2.6,1.3,3.2,1.6c0.9,0.1,1.8,0.3,1.8,0.3
				c0.2,0.5-0.3,1.4-1.4,2.3c0.4,0.7,0.7,1.5,0.7,2.4c0,0.6-0.1,1.2-0.3,1.7l0,0h0.1c0.2,0,0.3,0.1,0.4,0.2c0.1,0.1,0.1,0.2,0.2,0.3
				c0.1,0.2,0.2,0.4,0.2,0.6c0,0.1,0,0.1,0,0.2c0,0,0.1,0,0.1-0.1c2.3-1.2,4.6-2.4,6.4-3.6l0,0L75,0.9l4.4,0.3
				C79.5,0.8,80.3,0.5,81.2,0.5z"/>
			<path id="Fill-4" class="st2" d="M59.9,29.1c-1-2.5-0.9-3.1-0.9-3.7c0-1,0.6-2.2,1.7-3.5l5.3-0.4c-0.2,1.3-0.8,5.2-0.8,7.5
				c0,0.5,0,0.9,0.1,1.2l-4.8,0.3c-0.2-0.4-0.3-0.8-0.5-1.2L59.9,29.1z"/>
			<path id="Fill-6" class="st2" d="M55.5,31.4c-0.8,0-1.7-0.1-2.3-0.1c-0.3,0-0.6,0-0.8-0.1h-0.2c-0.6-1.4-1.2-4.3-1.2-6.8
				c0-1.1,0.1-2.1,0.3-2.9l4.8,1c-0.3,0.8-0.5,1.6-0.7,2.4c-0.3,1.5-0.3,2.6,0.9,4.3l0.4,0.6c0.1,0.1,0.2,0.2,0.3,0.3
				c0.3,0.4,0.6,0.8,1,1.2C57.4,31.5,56.4,31.5,55.5,31.4"/>
			<polygon id="Fill-8" class="st2" points="86.5,18.5 81.4,18.1 75.8,18.4 76.4,10.8 75,1.5 79.6,1.9 82.7,1.9 86.4,1.5 87,10.5 
							"/>
			<path id="Fill-10" class="st2" d="M68,7.7c0,0.2-0.3,0.6-0.8,0.7c-0.1,0.1-0.3,0.1-0.4,0.1C66.3,8.5,66,8.4,66,8
				c0-0.9,0.6-1.5,1.1-1.5c0.1,0,0.1,0,0.1,0C67.7,6.6,68,7.1,68,7.7"/>
			<path id="Fill-12" class="st2" d="M56.5,16.5L56.5,16.5c-0.7,0-1.6-0.3-2.3-0.7c-0.6-0.3-1.1-0.8-1.2-0.9c0-0.2,0.9-0.7,1.6-1.1
				c0.3-0.2,0.6-0.3,0.9-0.3c0.2,0,0.3,0,0.5,0.2c0.7,0.5,1.8,0.8,3,0.8c0.9,0,1.9-0.2,2.8-0.6c0,0,0,0.1,0.1,0.1l0.1,0.1
				c-0.9,0.5-1.8,1.2-2.7,2.1C58.5,16.4,57.6,16.5,56.5,16.5L56.5,16.5"/>
			<path id="Fill-14" class="st2" d="M59.5,8.5c-0.9,0-1-0.3-1.3-1C58.1,7.3,58,7,58,6.7c0-0.6,0.2-1.3,0.5-1.9
				c0.9-1.7,3.8-3.3,5.6-3.3c1.4,0,2.1,1.1,2.9,1.6l0,0c-1.5,0.5-2.7,1.6-3.8,2.6C61.7,7.2,60.4,8.5,59.5,8.5"/>
			<path id="Fill-16" class="st2" d="M68.7,10.3c-0.3,0.3-1,0.9-2.2,1.7c-0.1,0.1-0.2,0.1-0.3,0.2c-0.8,0.3-1.6,0.6-2.4,1.1
				c-0.5,0.1-0.8,0.1-1,0.1c-0.1-0.1-0.2-0.4-0.3-0.7c-0.1-0.4-0.3-0.8-0.5-1l0,0c0-0.1,0.1-0.2,0.2-0.3c0.7-0.1,3.2-0.6,6.6-1.9
				c0,0.1,0.1,0.1,0.1,0.2c0,0.1,0,0.1,0.1,0.2l0,0C69,10,69,10,68.7,10.3"/>
			<path id="Fill-18" class="st2" d="M66.7,28.7c-0.1,0.6-0.3,1.1-0.4,1.4c-0.1,0.2-0.3,0.4-0.4,0.4c0-0.3-0.1-0.7-0.1-1.2
				c0-2.7,0.8-7.8,0.8-7.8l0.1-0.4L62,21.5l0.1-0.1l4.8-0.9c0,0.7,0.1,2.2,0.1,3.9C67,25.9,66.9,27.5,66.7,28.7"/>
			<path id="Fill-20" class="st2" d="M54.2,20.5c0.4,0.1,1.4,0.4,2.3,0.7l0.5,0.2c0,0,0,0.1-0.1,0.1L54,21
				C54.1,20.8,54.1,20.6,54.2,20.5"/>
			<path id="Combined-Shape_1_" class="st0" d="M85.6,16.2v0.3h-3.5v-0.3H85.6z M81.2,16.2v0.3h-3.5v-0.3H81.2z M85.7,14.8v0.3h-3.5
				v-0.3H85.7z M81.3,14.7V15h-3.5v-0.3H81.3z M85.8,13.3v0.3h-3.5v-0.3H85.8z M81.4,13.3v0.3h-3.5v-0.3H81.4z M85.9,11.9v0.3h-3.5
				v-0.3H85.9z M81.5,11.9v0.3H78v-0.3H81.5z M86,10.5v0.3h-3.5v-0.3H86z M81.6,10.5v0.3h-3.5v-0.3H81.6z M85.9,9.1v0.4h-3.5V9.1
				H85.9z M81.5,9.1v0.3H78V9.1H81.5z M85.8,7.7V8h-3.5V7.7H85.8z M81.2,7.7V8h-3.5V7.7H81.2z M85.6,6.3v0.3h-3.5V6.3H85.6z M81,6.3
				v0.3h-3.5V6.3H81z M85.5,4.9v0.3H82V4.9H85.5z M80.7,4.9v0.3h-3.5V4.9H80.7z M80.5,3.5v0.3H77V3.5H80.5z M85.3,3.5v0.3h-3.5V3.5
				H85.3z"/>
			<path id="Combined-Shape_2_" class="st0" d="M60.9,26.9l0.3,2.5h-0.3l-0.1-0.2l-0.3-2.3H60.9z M62.2,26.9l0.3,2.5h-0.3l-0.3-2.5
				H62.2z M63.4,26.9l0.2,2.5h-0.3l-0.2-2.5H63.4z M57.1,28.6l0.4,0.6v0.1l-0.3,0.1L57.1,28.6z M64.7,26.8l0.2,2.5h-0.3l-0.2-2.5
				H64.7z M55.9,26.6l0.4,2.6L56,29.3l-0.4-2.6L55.9,26.6z M54.7,26.4l0.4,2.6l-0.3,0.1l-0.4-2.6L54.7,26.4z M53.5,26.3l0.4,2.6
				L53.6,29l-0.4-2.6L53.5,26.3z M60.8,23.2h0.3L61,25.7h-0.3L60.8,23.2z M62.1,23.1h0.3l-0.2,2.5h-0.3L62.1,23.1z M63.4,23.1h0.3
				l-0.2,2.5h-0.3L63.4,23.1z M64.7,23.1H65l-0.2,2.4h-0.3L64.7,23.1z M55.8,22.8h0.3l-0.2,2.7h-0.3L55.8,22.8z M54.5,22.7h0.3
				l-0.3,2.6h-0.3L54.5,22.7z M53.2,22.5h0.3l-0.2,2.6H53L53.2,22.5z"/>
		</g>
	</g>
</g>
</svg>
