<?xml version="1.0" encoding="utf-8"?>
<!-- Generator: Adobe Illustrator 24.1.2, SVG Export Plug-In . SVG Version: 6.00 Build 0)  -->
<svg version="1.1" id="Layer_1" xmlns="http://www.w3.org/2000/svg" xmlns:xlink="http://www.w3.org/1999/xlink" x="0px" y="0px"
	 viewBox="0 0 130 46" style="enable-background:new 0 0 130 46;" xml:space="preserve">
<style type="text/css">
	.st0{fill-rule:evenodd;clip-rule:evenodd;fill:#6C778C;}
</style>
<g id="Page-1">
	<g id="Customer" transform="translate(-903.000000, -36.000000)">
		<g id="netone" transform="translate(903.000000, 36.000000)">
			<path id="Fill-1" class="st0" d="M19.3,22.8c-0.9,0-1.5-0.1-2.2,0c-1.2,0.1-2.3,0.9-2.3,1.9c-0.1,1.5,0,3.1,0,4.9
				c1-0.1,1.8-0.1,2.6-0.2c1.1-0.1,1.8-0.9,1.9-1.8C19.4,26,19.3,24.5,19.3,22.8L19.3,22.8z M18.8,9v4.1h-1.3c-2.8,0-5.5,0-8.3,0
				c-1.9,0-2.8,0.8-2.8,2.7c0,3.6,0,7.2,0,10.9c0,1.9,0.9,2.7,2.8,2.7c0.4,0,0.9,0,1.5,0c0-1.2,0-2.3,0-3.5
				c-0.1-4.3,2.6-6.5,6.4-6.5c4.9,0,9.7,0,14.6,0c0.4,0,0.8,0,1.2,0.2c0.8,0.3,1.1,1,0.9,1.8c-0.2,0.9-0.9,1.3-1.7,1.3
				c-1.9,0-3.9,0-5.8,0c-0.9,0-1.9,0-3,0c0,0.6-0.1,1.1-0.1,1.6c-0.1,1.4,0,2.9-0.2,4.3c-0.5,2.6-2.3,4.1-4.9,4.5
				c-0.4,0.1-0.8,0.2-1.2,0.3h-8c-0.4-0.1-0.8-0.3-1.2-0.3c-3.1-0.5-5-2.5-5.2-5.6c-0.1-4.2-0.1-8.5,0-12.7c0-2.5,1.8-4.6,4.2-5.3
				C7.4,9.3,8.1,9.1,8.8,9C8.8,9,18.8,9,18.8,9z"/>
			<path id="Fill-4" class="st0" d="M94.9,26.4L94.9,26.4c0-0.8,0-1.6,0-2.3c0-0.7-0.4-1.2-1.2-1.3c-0.9,0-1.9,0-2.8,0
				s-1.3,0.6-1.4,1.4c0,1.4,0,2.9,0,4.3c0,0.9,0.5,1.4,1.4,1.4s1.8,0,2.7,0c0.9,0,1.3-0.6,1.4-1.4C94.9,27.8,94.9,27.1,94.9,26.4
				 M92.1,19.6c0.7,0,1.3,0,2,0c2.4,0.1,3.5,0.9,4,3.3s0.5,4.8,0,7.2c-0.3,1.7-1.4,2.8-3.1,2.9c-1.9,0.1-3.9,0.1-5.8,0
				c-1.7-0.1-2.6-1.2-3-2.8c-0.5-2.5-0.6-5,0-7.5c0.4-2,1.6-3,3.6-3.1C90.6,19.6,91.4,19.6,92.1,19.6L92.1,19.6"/>
			<path id="Fill-6" class="st0" d="M118.8,24.6h5.1c-0.2-1.5-0.5-1.9-1.7-2c-0.6-0.1-1.2,0-1.8,0C119.2,22.8,118.8,23.3,118.8,24.6
				L118.8,24.6z M124.2,33.3c-1.9-0.1-3.6-0.1-5.3-0.3c-2-0.3-3.2-1.5-3.4-3.5c-0.2-2.1-0.2-4.2,0-6.3c0.2-2.2,1.7-3.4,3.9-3.6
				c1.3-0.1,2.5-0.1,3.8,0c2.5,0.2,3.9,1.5,4.1,3.9c0.1,1.3,0,2.5,0,4H119c-0.4,1.9,0.1,2.5,1.9,2.5c1.1,0,2.2,0,3.4,0L124.2,33.3
				L124.2,33.3z"/>
			<path id="Fill-8" class="st0" d="M63.6,24.7c0-1.3-0.3-1.9-1.4-2c-0.7-0.1-1.5-0.1-2.2,0c-1.1,0.2-1.5,0.8-1.3,2H63.6z
				 M67.3,27.5h-8.5c-0.5,1.8,0,2.4,1.8,2.4c1.1,0,2.2,0,3.4,0v3.2c-2.1,0-4.2,0.3-6.3-0.4c-1.7-0.6-2.4-2.1-2.5-3.8
				c-0.1-1.8-0.1-3.5,0-5.3c0.1-2.4,1.6-3.9,4-4c1.4-0.1,2.8-0.1,4.2,0c1.9,0.1,3.2,1.3,3.5,3.1C67.1,24.2,67.1,25.8,67.3,27.5
				L67.3,27.5z"/>
			<path id="Fill-10" class="st0" d="M44.1,23.1v9.5h-3.5v-13c1.2,0,2.5,0,3.7,0c1.6,0,3.1,0,4.7,0c1.7,0.1,2.7,1,3.2,2.6
				c0.1,0.4,0.2,0.7,0.2,1.1c0,3.1,0,6.1,0,9.3H49c0-0.6,0-1.1,0-1.7c0-2,0-4,0-6.1c0-1.3-0.5-1.7-1.8-1.8
				C46.2,23.1,45.3,23.1,44.1,23.1"/>
			<path id="Fill-12" class="st0" d="M109.2,32.6c0-2.5,0-4.9,0-7.4c0-1.7-0.4-2.1-2.2-2.2c-0.8,0-1.6,0-2.6,0v9.5h-3.5v-13
				c1.3,0,2.6,0,3.9,0c1.4,0,2.7,0,4.1,0c2.1,0,3.6,1.1,3.7,3.2c0.2,3.2,0.1,6.5,0.1,9.8L109.2,32.6L109.2,32.6z"/>
			<path id="Fill-14" class="st0" d="M71,23.4c-0.6,0-1.1-0.1-1.7-0.1v-3c0.5-0.1,1-0.1,1.6-0.2v-2.6h3.3c0.1,0.8,0.1,1.7,0.2,2.7
				h4.9v3.1h-4.9c0,1.9,0,3.7,0,5.5c0,0.7,0.6,0.9,1.2,0.9c1.2,0,2.4,0,3.6,0v3.2c-1.8,0-3.6,0.1-5.3,0c-1.7-0.2-2.6-1.2-2.8-2.9
				c-0.2-1.5-0.1-3-0.1-4.6C70.9,24.8,71,24.2,71,23.4"/>
		</g>
	</g>
</g>
</svg>
