<?xml version="1.0" encoding="utf-8"?>
<!-- Generator: Adobe Illustrator 24.1.2, SVG Export Plug-In . SVG Version: 6.00 Build 0)  -->
<svg version="1.1" id="Layer_1" xmlns="http://www.w3.org/2000/svg" xmlns:xlink="http://www.w3.org/1999/xlink" x="0px" y="0px"
	 viewBox="0 0 130 46" style="enable-background:new 0 0 130 46;" xml:space="preserve">
<style type="text/css">
	.st0{fill-rule:evenodd;clip-rule:evenodd;fill:#6C778C;}
	.st1{fill:#6C778C;}
</style>
<g id="Page-1">
	<g id="Customer" transform="translate(-2055.000000, -32.000000)">
		<g id="relaxgaming" transform="translate(2055.000000, 32.000000)">
			<path id="Fill-1" class="st0" d="M18.4,14.6c2,0,3.8,0,5.7,0c0.3,0,0.6-0.1,0.9-0.3s0.6-0.4,0.8-0.7c0.9-1.7,0-3.3-1.9-3.4
				c-1.4-0.1-2.8,0-4.2,0c-0.4,0-0.8,0-1.3,0.1C18.4,10.3,18.4,14.6,18.4,14.6z M18.3,17.9v3.5v3.1c-1.3,0.3-2.4,0.1-3.5,0.1
				c-0.1-0.1-0.1-0.1-0.2-0.2l-0.1-0.1c0-0.3-0.1-0.6-0.1-0.9c0-5.3,0-10.7,0-16c0-0.1,0.1-0.2,0.2-0.3c0.3,0,0.6-0.1,1-0.1
				c2.7,0,5.4,0,8.2,0c0.9,0,1.9,0.2,2.8,0.5c2.1,0.6,3.1,2.1,3.1,4.2c0,0.5,0,1,0,1.5c0,1.7-0.8,3-2.4,3.8
				c-0.2,0.1-0.5,0.3-0.7,0.4c0,0-0.1,0.1-0.2,0.2c1.1,2.3,2.7,4.4,3.9,6.9c-1.3,0.3-2.4,0.2-3.5,0.1c-0.5,0-0.7-0.5-1-0.9
				c-0.9-1.7-1.9-3.3-2.7-5c-0.4-0.7-0.8-1-1.6-0.9C20.5,17.9,19.5,17.9,18.3,17.9L18.3,17.9z"/>
			<path id="Fill-3" class="st0" d="M49.9,7.1v3c-0.4,0-0.7,0.1-1.1,0.1c-1.9,0-3.7,0-5.6,0c-2.2,0.1-3.5,1.6-3.3,4
				c0.4,0,0.8,0.1,1.1,0.1c2.5,0,4.9,0,7.4,0c0.4,0,0.9,0,1.4,0.1v2.9c-0.4,0-0.8,0.1-1.2,0.1c-2.5,0-5.1,0-7.6,0
				c-0.4,0-0.9,0-1.4,0.1c0.1,0.8,0.2,1.4,0.4,2.1c0.4,1.4,1.7,2.2,3.2,2.2c1.7,0,3.4,0,5.2,0c0.4,0,0.9,0,1.4,0
				c0.3,1,0.1,1.9,0.2,2.9c-0.4,0.1-0.8,0.1-1.1,0.1c-2.2,0-4.4,0-6.7,0c-3.2,0-5.7-2.4-6.4-5.3c-0.5-2.3-0.4-4.6,0-6.9
				c0.6-3,2.9-4.9,6.1-5.3c2.4-0.3,4.9-0.1,7.3-0.2C49.4,7,49.6,7.1,49.9,7.1"/>
			<path id="Fill-5" class="st0" d="M82.1,11c-0.1,0-0.2,0-0.3-0.1c-0.8,2.1-1.6,4.2-2.4,6.4c1.6,0,3.1,0,4.5,0
				c0.2,0,0.3-0.1,0.6-0.1C83.7,15.1,82.9,13.1,82.1,11 M91.4,24.6c-1.4,0.2-2.6,0.1-3.9,0.1c-0.6-1.3-1.1-2.7-1.7-4h-7.6
				c-0.5,1.3-1.1,2.6-1.6,4h-3.7c0.1-0.3,0-0.6,0.1-0.8c1.7-3.9,3.4-7.8,5-11.7c0.6-1.3,1.1-2.7,1.6-4c0.4-1,0.5-1.1,1.6-1.1
				c0.6,0,1.3,0,1.9,0c0.7,0,1,0.3,1.2,0.8c1.3,3.2,2.7,6.4,4,9.6c0.9,2,1.8,4.1,2.6,6.1C91.2,23.9,91.3,24.2,91.4,24.6"/>
			<path id="Fill-7" class="st0" d="M68.2,24.6c-0.5,0-0.8,0.1-1.1,0.1c-1.9,0-3.7,0-5.6,0c-2.7,0.1-5.1-2.4-5.3-4.6
				c-0.1-1-0.2-2-0.2-3c0-2.8,0-5.6,0-8.4c0-0.3,0-0.6,0-1c0-0.5,0.3-0.8,0.8-0.8c0.9,0,1.9,0,3,0c0,0.6,0.1,1.1,0.1,1.6
				c0,3.3,0.1,6.5,0,9.8c-0.1,2.1,1.2,3.5,3.4,3.4c1.2-0.1,2.5,0,3.7,0c1.3,0,1.4,0.1,1.4,1.4C68.2,23.6,68.2,24,68.2,24.6"/>
			<path id="Fill-9" class="st0" d="M98.3,19.8c1.6,0,2.4,0.9,2.4,2.5s-1.1,2.8-2.6,2.7c-1.4-0.1-2.5-1-2.5-2.7
				C95.4,20.8,96.7,19.8,98.3,19.8"/>
			<path id="Fill-11" class="st0" d="M98.1,12.2c-1.5,0.2-2.7-1.4-2.7-2.5C95.5,8,96.7,7,98.1,7c1.5,0,2.5,1.2,2.5,2.8
				C100.6,11.2,99.6,12.2,98.1,12.2"/>
			<path id="Fill-13" class="st0" d="M102.3,15.9c0-1.5,1.2-2.7,2.7-2.6c1.4,0.1,2.4,1.1,2.5,2.7c0,1.4-1.2,2.5-2.8,2.4
				C103.3,18.4,102.3,17.3,102.3,15.9"/>
			<path id="Fill-15" class="st0" d="M111.8,12.2c-1.5,0-2.7-1.1-2.7-2.4c0-1.7,1.2-2.7,2.6-2.7c1.5,0,2.6,1.1,2.6,2.6
				C114.3,11.1,113.2,12.2,111.8,12.2"/>
			<path id="Fill-18" class="st0" d="M111.9,19.8c1.4,0,2.5,1.2,2.4,2.7c0,1.4-1.2,2.6-2.6,2.5s-2.5-1-2.5-2.7
				C109.1,20.9,110.3,19.8,111.9,19.8"/>
			<path id="GAMING" class="st1" d="M17.7,38.2c0.6,0,1.3-0.4,1.7-0.7c0.1-0.1,0.4-0.4,0.6-1c0-0.2,0.1-0.5,0.1-0.9
				c0-0.5-0.2-0.7-0.7-0.7h-1.3c-0.2,0-0.3,0.2-0.3,0.4s0.1,0.3,0.3,0.3h1c0.2,0,0.2,0.1,0.2,0.2V36c0,0.9-0.8,1.5-1.6,1.5
				c-1.2,0-2-0.9-2-2.5s0.8-2.5,2-2.5c0.9,0,1.3,0.5,1.5,1c0.1,0.2,0.2,0.2,0.3,0.2c0.1,0,0.1,0,0.2,0s0.2-0.2,0.2-0.3s0-0.1,0-0.2
				c-0.3-0.6-0.9-1.3-2.2-1.3c-1.7,0-2.8,1.4-2.8,3.2C14.9,36.9,16,38.2,17.7,38.2z M112.3,38.2c0.6,0,1.3-0.4,1.7-0.7
				c0.1-0.1,0.4-0.4,0.6-1c0-0.2,0.1-0.5,0.1-0.9c0-0.5-0.2-0.7-0.7-0.7h-1.3c-0.2,0-0.3,0.2-0.3,0.4s0.1,0.3,0.3,0.3h1
				c0.2,0,0.2,0.1,0.2,0.2V36c0,0.9-0.8,1.5-1.6,1.5c-1.2,0-2-0.9-2-2.5s0.8-2.5,2-2.5c0.9,0,1.3,0.5,1.5,1c0.1,0.2,0.2,0.2,0.3,0.2
				c0.1,0,0.1,0,0.2,0s0.2-0.2,0.2-0.3s0-0.1,0-0.2c-0.3-0.6-0.9-1.3-2.2-1.3c-1.7,0-2.8,1.4-2.8,3.2
				C109.5,36.9,110.5,38.2,112.3,38.2z M39.1,38.1L39.1,38.1c0.3,0,0.4-0.2,0.4-0.3v-0.1l-2.2-5.5c-0.1-0.3-0.3-0.4-0.6-0.4
				c-0.2,0-0.4,0.1-0.6,0.4l-2.2,5.5v0.1c0,0.2,0.1,0.3,0.3,0.3c0.1,0,0.1,0,0.2,0c0.1,0,0.3-0.1,0.3-0.2l0.6-1.6h2.8l0.6,1.7
				C38.9,38.1,39,38.1,39.1,38.1z M37.9,35.6h-2.3l0.9-2.3c0.1-0.2,0.2-0.5,0.2-0.8c0.1,0.3,0.2,0.5,0.2,0.8L37.9,35.6z M59.6,38.1
				c0.2,0,0.4-0.1,0.4-0.3v-5.5c0-0.3-0.2-0.5-0.5-0.5c-0.4,0-0.5,0.1-0.7,0.4l-1.4,3.7c-0.2,0.5-0.4,1.2-0.5,1.5
				c-0.1-0.3-0.3-1.1-0.5-1.5l-1.5-3.7c-0.1-0.3-0.3-0.4-0.6-0.4s-0.5,0.2-0.5,0.5v5.5c0,0.2,0.2,0.3,0.4,0.3s0.4-0.1,0.4-0.3v-2.2
				c0-1.1-0.1-2.6-0.1-3.1c0.2,0.5,0.5,1.7,0.8,2.2l1.2,3c0.1,0.3,0.3,0.4,0.5,0.4c0.3,0,0.4-0.1,0.5-0.4l1.2-3.1
				c0.2-0.5,0.6-1.7,0.8-2.2c0,0.5-0.1,2-0.1,3.1v2.2C59.2,38,59.4,38.1,59.6,38.1z M74.9,38.1c0.2,0,0.4-0.1,0.4-0.3v-5.7
				c0-0.2-0.2-0.3-0.4-0.3c-0.2,0-0.4,0.1-0.4,0.3v5.7C74.5,38,74.7,38.1,74.9,38.1z M94.2,38.1c0.3,0,0.5-0.2,0.5-0.5v-5.5
				c0-0.2-0.2-0.3-0.4-0.3s-0.4,0.1-0.4,0.3v2.4c0,1.2,0.1,2.3,0.1,2.8c-0.2-0.4-0.7-1.3-1-1.9l-2-3.3c-0.2-0.2-0.3-0.4-0.6-0.4
				c-0.3,0-0.5,0.2-0.5,0.5v5.5c0,0.2,0.2,0.3,0.4,0.3c0.2,0,0.4-0.1,0.4-0.3v-2.5c0-1.2-0.1-2.3-0.1-2.8c0.2,0.4,0.6,1.2,0.9,1.7
				l2.1,3.4C93.7,38,93.8,38.1,94.2,38.1z"/>
		</g>
	</g>
</g>
</svg>
