<svg xmlns="http://www.w3.org/2000/svg" width="950" height="429.75657" viewBox="0 0 950 429.75657"><defs><style>.cls-1{fill:#fff;}.cls-2{fill:#e4002b;}.cls-3{fill:#1d9cd3;}.cls-4,.cls-5,.cls-6,.cls-7{fill:none;stroke-miterlimit:10;stroke-width:0.85px;}.cls-4{stroke:#666667;}.cls-5,.cls-6,.cls-7{stroke:#e4002b;stroke-linecap:round;}.cls-6{stroke-dasharray:1.71532 3.43064;}.cls-7{stroke-dasharray:1.69877 3.39755;}</style></defs><g id="Layer_2" data-name="Layer 2"><g id="Layer_1-2" data-name="Layer 1"><rect class="cls-1" width="950" height="429.75657"/></g><g id="Isolation_Mode" data-name="Isolation Mode"><path d="M62.48479,29.7414v.8226h-4.8626v-.8226h2.00132V18.25726H57.62219v-.8226h2.86128V29.7414Z"/><path d="M65.04558,29.08646h.99111V30.564h-.99111Z"/><path d="M68.63567,27.04779V20.96913c-.30846-4.93642,7.40688-4.95128,7.08883.00021l0,6.07845C76.04089,31.97123,68.32831,31.95917,68.63567,27.04779Zm6.22808-.13115V21.10028a2.70538,2.70538,0,1,0-5.36726.00012l0,5.81624A2.70321,2.70321,0,1,0,74.86375,26.91664Z"/><path d="M85.59749,25.81347c1.14485,6.52664-7.94591,6.5919-6.82657.01909h.86079c-1.12088,4.32838,4.87545,6.072,5.10626,1.3272.62457-4.075-2.46785-3.89359-5.518-3.7585v-5.9666h6.05957v.8226H80.08079v4.33965C82.50856,22.36965,85.75664,22.77667,85.59749,25.81347Z"/><path d="M88.23381,24.99086h3.88975v.7479H88.23381Z"/><path d="M99.361,29.7414v.8226h-4.8626v-.8226h2.00132V18.25726H94.49841v-.8226h2.86128V29.7414Z"/><path d="M101.86536,27.04779V20.96913c-.30846-4.93642,7.40688-4.95128,7.08883.00021l0,6.07845C109.27058,31.97123,101.558,31.95917,101.86536,27.04779Zm6.22807-.13115V21.10028a2.70538,2.70538,0,1,0-5.36725.00012l0,5.81624A2.70321,2.70321,0,1,0,108.09343,26.91664Z"/><path d="M115.57742,21.79838c.86613,2.85438-3.91037,3.76164-4.05275.87144-.038-.85712-.04664-1.9867.89347-2.33155-1.67-.88466-.98743-3.96129,1.133-3.76925,2.12922-.19319,2.799,2.88471,1.13309,3.76925A1.47858,1.47858,0,0,1,115.57742,21.79838Zm-.49058.05395c-.07645-2.21317-3.79121-1.48906-3.061.75209C112.13911,24.95106,115.81151,24.0928,115.08684,21.85233Zm-1.53564-1.73154c2.22957.2059,1.97608-3.26023.01084-3.09454C111.58664,16.85276,111.33223,20.31942,113.5512,20.12079Z"/><path d="M86.37444,66.73632v6.09775c.42393,4.44036-6.5773,5.16406-6.71367.76616h.8417c.16191,3.39737,5.483,2.62,5.01171-.87909l.0003-2.54332c-2.6442,3.00418-7.04364.31149-6.07808-3.55368C79.15441,61.83707,86.7169,61.88744,86.37444,66.73632Zm-.86,1.7581c1.09866-5.14135-4.86115-6.68155-5.21835-1.75823C79.31423,70.7011,84.48212,72.45618,85.51448,68.49442Z"/><path d="M89.16018,70.7954h3.88975v.7479H89.16018Z"/><path d="M100.28655,75.54594v.8226H95.424v-.8226h2.00132V64.06181H95.424V63.2392h2.86128V75.54594Z"/><path d="M102.79089,72.85233V66.77367c-.30839-4.9363,7.40625-4.95135,7.08884.00021l0,6.07845C110.19548,77.77584,102.4836,77.7636,102.79089,72.85233Zm6.22808-.13115V66.90482a2.70538,2.70538,0,1,0-5.36725.00012l0,5.81624A2.70321,2.70321,0,1,0,109.019,72.72118Z"/><path d="M115.90447,62.49379v.47978l-2.74507,7.16856h-.53374l2.74507-7.16856h-3.19248v-.47978Z"/><path d="M73.99548,109.04457v.82261L69.2823,122.17392h-.91641l4.71319-12.30674H67.5989v-.82261Z"/><path d="M76.06985,120.69638H77.061v1.47754h-.99111Z"/><path d="M86.52385,117.42338c1.14486,6.52664-7.94591,6.5919-6.82656.01909h.86079c-1.12089,4.32838,4.87545,6.072,5.10626,1.32721.62457-4.075-2.46785-3.8936-5.518-3.75851v-5.9666h6.05957v.82261H81.00715v4.33965C83.43493,113.97956,86.683,114.38658,86.52385,117.42338Z"/><path d="M89.16018,116.60077h3.88975v.7479H89.16018Z"/><path d="M100.28655,121.35131v.82261H95.424v-.82261h2.00132V109.86718H95.424v-.82261h2.86128v12.30674Z"/><path d="M102.79172,118.6577V112.579c-.30846-4.93642,7.40689-4.95128,7.08884.00021l0,6.07845C110.197,123.58114,102.48437,123.56908,102.79172,118.6577Zm6.22808-.13115v-5.81636a2.70538,2.70538,0,1,0-5.36725.00012l0,5.81624A2.70321,2.70321,0,1,0,109.0198,118.52655Z"/><path d="M115.90447,108.29833v.47978l-2.74507,7.16856h-.53374l2.74507-7.16856h-3.19248v-.47978Z"/><path d="M86.37444,163.20966c1.29639,5.51787-6.79059,7.1469-6.939,1.27153l.00039-6.09761c-.42323-4.44718,6.588-5.15733,6.73359-.76616h-.86079c-.1473-3.39605-5.48594-2.62246-5.01171.8791l-.0003,2.56157C82.12109,158.69793,86.69352,159.80007,86.37444,163.20966Zm-.86.093c.00926-4.46155-6.33073-3.10907-5.21745,1.10409C80.37429,169.24148,86.62029,167.76313,85.51448,163.30263Z"/><path d="M89.16018,162.40531h3.88975v.7479H89.16018Z"/><path d="M100.28655,167.15585v.82261H95.424v-.82261h2.00132V155.67172H95.424v-.82261h2.86128v12.30674Z"/><path d="M102.79089,164.46225v-6.07867c-.30839-4.9363,7.40625-4.95135,7.08884.00021l0,6.07846C110.19548,169.38575,102.4836,169.37351,102.79089,164.46225Zm6.22808-.13116v-5.81635a2.70538,2.70538,0,1,0-5.36725.00011l0,5.81624A2.70321,2.70321,0,1,0,109.019,164.33109Z"/><path d="M115.90447,154.10287v.47979l-2.74507,7.16855h-.53374l2.74507-7.16855h-3.19248v-.47979Z"/><path d="M73.15461,210.67934h-.01909v3.10449h-.8417v-3.10449H66.72068c-.585-.01143,3.793-9.75054,3.83413-10.02486h.91641l-3.83414,9.20142h4.65674v-4.07652h.8417v4.07652h.01909Z"/><path d="M76.07068,212.30629h.99111v1.47754h-.99111Z"/><path d="M86.52468,209.03329c1.14486,6.52664-7.94591,6.59191-6.82656.01909h.86079c-1.12089,4.32838,4.87545,6.072,5.10626,1.32721.62457-4.075-2.46785-3.89359-5.518-3.75851v-5.9666h6.05957v.82261H81.008v4.33965C83.43576,205.58947,86.68383,205.9965,86.52468,209.03329Z"/><path d="M89.16018,208.21068h3.89058v.7479H89.16018Z"/><path d="M100.28655,212.96122v.82261H95.424v-.82261h2.00132V201.47709H95.424v-.82261h2.86128v12.30674Z"/><path d="M102.79172,210.26762V204.189c-.30846-4.93642,7.40689-4.95127,7.08884.00021l0,6.07846C110.197,215.19105,102.48437,215.179,102.79172,210.26762Zm6.22808-.13116v-5.81635a2.70538,2.70538,0,1,0-5.36725.00012l0,5.81623A2.70321,2.70321,0,1,0,109.0198,210.13646Z"/><path d="M115.90447,199.90824v.47979l-2.74507,7.16855h-.53374l2.74507-7.16855h-3.19248v-.47979Z"/><path d="M86.35618,255.604c.81276,5.67733-7.75592,5.48148-6.78921-.22412h.86079c-1.01354,3.92944,5.01287,5.11931,5.08706,1.0474.40463-2.57185-1.58038-3.50444-3.79712-3.179v-.80351c2.10547.29486,4.109-.50853,3.70356-2.97528-.08491-3.84173-5.90624-2.71818-4.9935,1.02957H79.567c-1.03606-4.77056,6.5899-5.92824,6.71479-1.122.12246,1.35684-.23118,2.88611-1.47783,3.45953A3.023,3.023,0,0,1,86.35618,255.604Z"/><path d="M89.16018,254.01522h3.88975v.74707H89.16018Z"/><path d="M100.28655,258.76493v.82344H95.424v-.82344h2.00132v-11.4833H95.424v-.82178h2.86128v12.30508Z"/><path d="M102.79089,256.07216v-6.07783c-.30855-4.93658,7.40641-4.95162,7.08884.0002l0,6.07763C110.19533,260.99539,102.48376,260.98315,102.79089,256.07216Zm6.22808-.13115v-5.81553a2.70553,2.70553,0,1,0-5.36725.00012l0,5.81541A2.70321,2.70321,0,1,0,109.019,255.941Z"/><path d="M115.90447,245.71278v.47979l-2.74507,7.16855h-.53374l2.74507-7.16855h-3.19248v-.47979Z"/><path d="M73.50906,304.5703v.82344h-4.8626v-.82344h2.00132V293.087H68.64646v-.82178h2.86128V304.5703Z"/><path d="M76.06985,303.9162H77.061v1.47754h-.99111Z"/><path d="M86.52385,300.644c1.14454,6.52495-7.94584,6.59167-6.82656.01826h.86079c-1.12081,4.32774,4.87512,6.07036,5.10626,1.328.62436-4.07572-2.46684-3.89565-5.518-3.76016v-5.96495h6.05957v.82178H81.00715v4.33965C83.43526,297.19913,86.683,297.60709,86.52385,300.644Z"/><path d="M89.16018,299.82059h3.88975v.74708H89.16018Z"/><path d="M100.28655,304.5703v.82344H95.424v-.82344h2.00132V293.087H95.424v-.82178h2.86128V304.5703Z"/><path d="M102.79172,301.87753V295.7997c-.30861-4.9367,7.407-4.95155,7.08884.00021l0,6.07762C110.19679,306.80069,102.48452,306.78864,102.79172,301.87753Zm6.22808-.13115v-5.81553a2.70553,2.70553,0,1,0-5.36725.00012l0,5.81541A2.70321,2.70321,0,1,0,109.0198,301.74638Z"/><path d="M115.90447,291.51815v.47979l-2.74507,7.16855h-.53374l2.74507-7.16855h-3.19248v-.47979Z"/><path d="M259.15437,367.81229v.82344h-4.8626v-.82344h2.00132V356.329h-2.00132v-.82177h2.86128v12.30507Z"/><path d="M267.73738,363.886c1.14454,6.525-7.94585,6.59167-6.82656.01827h.86079c-1.12082,4.32773,4.87512,6.07036,5.10625,1.328.62436-4.07572-2.46684-3.89564-5.518-3.76016v-5.96494h6.05957v.82177h-5.19878v4.33965C264.64879,360.44112,267.89649,360.84908,267.73738,363.886Z"/><path d="M127.91487,365.11952v-6.07783c-.30862-4.93669,7.407-4.95154,7.08883.00021l0,6.07762C135.31994,370.04268,127.60767,370.03063,127.91487,365.11952Zm6.22807-.13115v-5.81553a2.70553,2.70553,0,1,0-5.36725.00012l0,5.81541A2.70321,2.70321,0,1,0,134.14294,364.98837Z"/><path d="M36.046,212.4308c4.6278-.717,4.30573,4.21094,4.17612,7.4126H27.47542c.00545-2.40888-.57451-7.17385,2.91126-7.01483a3.09379,3.09379,0,0,1,3.09186,1.17523A2.80287,2.80287,0,0,1,36.046,212.4308Zm-7.1063,5.82134H32.9c.08164-1.93734.2419-4.32367-2.45974-3.85049C28.53,214.27478,28.98631,216.97529,28.93967,218.25214Zm7.142-4.23091c-2.23516-.14583-1.67752,2.80659-1.7357,4.23091h4.41187C38.852,216.1436,39.03751,213.47493,36.08167,214.02123Z"/><path d="M27.47542,210.49589v-1.59126H40.22209v1.59126Z"/><path d="M28.9762,199.75634v3.146H40.22209v1.59043H28.9762v3.146H27.47542v-7.88242Z"/><path d="M36.82292,199.10473h-.5246V197.5143c3.05463.78886,3.75807-4.53185.65148-4.53824-3.14587.0002-2.188,5.85806-6.31013,5.85806-4.89114.25935-4.21862-8.3132.65078-7.26816v1.59043c-2.752-.85427-3.61213,4.03144-.74113,4.06848,2.784-.00027,1.88-5.83987,6.25534-5.85813C41.58443,190.99417,41.63548,199.44627,36.82292,199.10473Z"/><path d="M26.78894,182.32636l14.33711,2.62138v1.50078l-14.33711-2.62138Z"/><path d="M38.70305,172.23759h1.519v5.22534h-1.519V175.655H28.9762v1.80791H27.47542v-3.39917H38.70305Z"/><path d="M36.82292,167.24716h-.5246v-1.59043c3.05463.78886,3.75807-4.53185.65148-4.53823-3.14587.00019-2.188,5.858-6.31013,5.858-4.89114.25935-4.21862-8.3132.65078-7.26816v1.59043c-2.752-.85426-3.61213,4.03144-.74113,4.06848,2.784-.00027,1.88-5.83987,6.25534-5.85813C41.58443,159.1366,41.63548,167.5887,36.82292,167.24716Z"/><path d="M28.9762,155.983h4.21264v-3.83247h1.51905V155.983h3.99516v-4.64678h1.519v6.238H27.47542v-6.238H28.9762Z"/><path d="M36.84119,149.61879h-6.0023c-5.58075-.13308-4.289-9.19288,1.2833-7.84673v1.60869c-3.65356-1.02522-4.8566,4.38694-1.22937,4.64719l5.91184-.00041c3.64771-.26657,2.40082-5.67724-1.2476-4.64678v-1.60869C41.14762,140.421,42.40717,149.48905,36.84119,149.61879Z"/><path class="cls-2" d="M246.67249,31.90956c.54281,4.25391-1.79948,5.35022-5.78565,4.9896v4.5563h-1.59043V28.70878C241.89194,28.67375,246.87828,28.16253,246.67249,31.90956Zm-1.59043,0c.17319-2.16108-2.78358-1.65307-4.19522-1.7v5.18882C244.082,35.524,245.483,35.56981,245.08206,31.90956Z"/><path class="cls-2" d="M250.23518,30.20956v4.21265h3.8333v1.519h-3.8333v3.99517H254.882v1.519h-6.23721V28.70878H254.882v1.50078Z"/><path class="cls-2" d="M262.15012,38.12851h-3.59756l-.90478,3.327h-1.55391L259.366,28.70878h2.0063l3.25474,12.74668h-1.573Zm-3.219-1.51822H261.77l-1.40948-5.98486Z"/><path class="cls-2" d="M271.98572,41.45546l-4.19439-6.14756v6.14756h-1.59126V28.70878h1.59126v5.76738l3.95948-5.76738h1.80791L269.581,34.92855l4.23091,6.52691Z"/><path class="cls-2" d="M282.12844,34.09682c.832.52124,1.74792.71263,1.77222-.48809h1.35552c-.26,5.38943-4.88582-.60735-5.06182,2.423h-1.37461C278.63821,33.82736,280.52846,32.9003,282.12844,34.09682Z"/><path class="cls-2" d="M292.03625,39.93642v1.519h-5.22534v-1.519h1.80791V30.20956h-1.80791V28.70878h3.39917V39.93642Z"/><path class="cls-2" d="M293.48225,38.07455V32.108c-.27137-4.784,7.504-4.78653,7.23244.00023l0,5.96637C300.97913,42.84763,293.22186,42.81866,293.48225,38.07455Zm5.64121-.03652V32.14447c.25676-2.87914-4.30144-2.8497-4.04993.0001l0,5.89346C294.827,40.87827,299.38243,40.87565,299.12346,38.038Z"/><path class="cls-2" d="M309.84558,37.20629c1.27035,5.0212-6.92564,6.29144-7.21457,1.33795-.05716-1.29541-.051-2.9594,1.17575-3.66964-2.37581-1.93979-1.15836-6.66522,2.44121-6.40052,3.57827-.26372,4.798,4.471,2.42222,6.40052A2.69788,2.69788,0,0,1,309.84558,37.20629Zm-1.59126-.07222c.30985-2.147-4.34722-2.13025-4.03166.00011l0,1.44672c-.21273,2.22417,4.23878,2.24167,4.03167-.00009Zm-2.0063-2.89282c2.92514.27083,2.691-4.583.00019-4.35708C303.53063,29.65477,303.29635,34.515,306.248,34.24125Z"/><path class="cls-2" d="M325.305,41.45546h-1.37461V31.13178l-2.838,10.32368h-1.19365l-2.83887-10.32368V41.45546H315.686V28.70878h1.86187l2.9476,9.78164,2.965-9.78164H325.305Z"/><path class="cls-2" d="M334.10959,35.54364c.59074,3.9027-1.17476,8.3003-5.261,5.17056l-.23491.74126H327.547V27.53339h1.53647v5.28012C331.19106,31.18939,334.31967,32.26445,334.10959,35.54364Zm-1.53647.054a1.76613,1.76613,0,1,0-3.48977-.54288c.152,1.389-.73873,5.43062,1.7541,5.17117C333.14919,40.468,332.48284,37.075,332.57312,35.5976Z"/><path class="cls-2" d="M342.58967,35.54364c.523,3.68046-.90054,8.043-5.02612,5.42373v4.64678h-1.53647V32.3246h1.06665l.23491.72383A3.03278,3.03278,0,0,1,342.58967,35.54364Zm-1.53647.054a1.76613,1.76613,0,1,0-3.48977-.54288l.00012,3.67061a1.76748,1.76748,0,1,0,3.4895-.5603Z"/><path class="cls-2" d="M344.00081,38.77929v-.18013h1.50078c-.38384,1.947,3.28316,2.24835,3.27228.41579-.00012-1.98879-4.51989-1.1031-4.51989-4.26735-.1417-3.72429,6.46536-3.3788,5.94834.34365h-1.50078c.42279-1.82718-2.94533-2.15627-2.94691-.434.00013,1.88087,4.51991,1.08482,4.51991,4.303C350.37378,42.7358,343.67627,42.4248,344.00081,38.77929Z"/><path class="cls-2" d="M673.04543,236.38934h-3.59755l-.90479,3.327h-1.55391l3.27217-12.74668h2.00713l3.25391,12.74668h-1.57383Zm-3.219-1.51738h2.83887l-1.40947-5.98569Z"/><path class="cls-2" d="M683.67708,226.95136l-3.16426,12.76494h-2.00713l-3.1626-12.76494h1.59043l2.58486,10.39756,2.58653-10.39756Z"/><path class="cls-2" d="M686.82307,228.4704v4.21348h3.8333v1.519h-3.8333v3.99434h4.64678v1.519h-6.23721V226.96962h6.23721v1.50078Z"/><path class="cls-2" d="M699.515,239.7163l-2.09678-5.29756h-2.38731v5.29756h-1.59043V226.96962c2.59964-.02575,7.58132-.56362,7.37587,3.201.1421,1.58257-.23986,3.33478-1.826,3.90445l2.18808,5.64121Zm-2.24122-6.8166c1.876.085,2.06725-1.33395,1.95221-2.72939.17354-2.16061-2.78359-1.65325-4.19508-1.69991v4.4293Z"/><path class="cls-2" d="M708.3387,236.38934h-3.59756l-.90479,3.327h-1.5539l3.27216-12.74668h2.00547l3.25557,12.74668h-1.57217Zm-3.21905-1.51738h2.83887l-1.40947-5.98569Z"/><path class="cls-2" d="M718.19172,231.41718c.9827-3.4776-4.53481-4.53635-4.682-1.03008l.00034,5.9126c-.25111,2.84294,4.93725,2.82834,4.68162-.00011l0-1.77128h-2.29433v-1.50078h3.86816v3.30869c.34378,4.77568-8.18707,4.74641-7.84586-.00026l0-6.00287c-.06023-5.41976,9.19482-4.30006,7.8459,1.08409Z"/><path class="cls-2" d="M723.4179,228.4704v4.21348h3.8333v1.519h-3.8333v3.99434h4.64843v1.519h-6.23886V226.96962h6.23886v1.50078Z"/><path class="cls-2" d="M736.72571,232.35849c.8325.51959,1.74813.71229,1.773-.48892h1.35469c-.25931,5.38914-4.88691-.60612-5.06181,2.423H733.417C733.23538,232.08842,735.12625,231.16026,736.72571,232.35849Z"/><path class="cls-2" d="M748.06125,231.76083v7.95547h-1.59042v-2.87373H741.3011c-.56361-.94007,2.78617-8.85851,3.07129-9.873h1.6834l-3.09287,8.3539h3.50791v-3.56269Z"/><path class="cls-2" d="M750.0136,236.33622v-5.96743c-.27093-4.78359,7.50419-4.7869,7.23327.00023l0,5.9672C757.5105,241.11047,749.75346,241.07909,750.0136,236.33622Zm5.64121-.03652v-5.89439c.25635-2.88033-4.3007-2.84849-4.0491.0001l0,5.89429C751.35915,239.1386,755.91361,239.13678,755.65481,236.2997Z"/><path class="cls-2" d="M772.70627,239.7163h-1.3746V229.39262l-2.83721,10.32368h-1.19531l-2.83887-10.32368V239.7163h-1.373V226.96962h1.861l2.94844,9.78164,2.965-9.78164h1.84443Z"/><path class="cls-2" d="M781.51008,233.80448c.59063,3.901-1.174,8.302-5.25937,5.17139l-.23574.74043h-1.06582V225.79423h1.53564v5.28012C778.59268,229.45042,781.71974,230.52505,781.51008,233.80448Zm-1.53564.05479a1.76614,1.76614,0,1,0-3.48977-.54288l.00012,3.67061a1.76755,1.76755,0,1,0,3.4895-.56113Z"/><path class="cls-2" d="M789.99016,233.80448c.52273,3.67938-.89969,8.045-5.02529,5.42373V243.875h-1.53565V230.58544H784.495l.23575.72383A3.03186,3.03186,0,0,1,789.99016,233.80448Zm-1.53564.05479a1.76615,1.76615,0,1,0-3.48978-.54288l.00013,3.67061a1.76755,1.76755,0,1,0,3.48949-.56113Z"/><path class="cls-2" d="M791.40129,237.04013v-.1793h1.50079c-.38385,1.94839,3.28566,2.24729,3.27393.415-.00011-1.98879-4.52071-1.10227-4.52071-4.26652-.14178-3.72555,6.46539-3.37994,5.94834.34365h-1.50078c.42278-1.82822-2.94409-2.15689-2.94691-.43487.00013,1.88087,4.52073,1.08565,4.52073,4.303C797.77585,240.997,791.07788,240.68767,791.40129,237.04013Z"/><path d="M473.32781,398.96347h-3.146v11.24589h-1.59043V398.96347h-3.146v-1.50079h7.88242Z"/><path d="M474.59368,397.46268h1.59126v12.74668h-1.59126Z"/><path d="M488.11814,410.20936h-1.37461V399.88485l-2.838,10.32451h-1.19365L479.873,399.88485v10.32451h-1.37378V397.46268h1.86187l2.94761,9.78165,2.965-9.78165h1.84443Z"/><path d="M492.02366,398.96347v4.21347h3.83247v1.51739h-3.83247v3.996h4.64677v1.519h-6.238V397.46268h6.238v1.50079Z"/><path d="M502.29338,409.68476c.68724-2.98867-2.24476-13.90085,3.4-13.39747v1.46426c-3.46163-.55931-1.29419,10.28054-1.86333,11.93315.00064,1.446.63316,2.04371,1.86333,2.04371v1.46426C503.56008,413.19267,502.29338,411.98075,502.29338,409.68476Z"/><path d="M506.54338,406.811v-.5246h1.59043c-.789,3.0542,4.53162,3.75844,4.5374.65065-.00019-3.14587-5.85722-2.188-5.85722-6.31013-.25987-4.8904,8.31323-4.2178,7.26816.65078h-1.59043c.85392-2.75288-4.03233-3.614-4.06931-.7403.00027,2.784,5.8407,1.87917,5.859,6.25534C514.65346,411.57244,506.20241,411.62309,506.54338,406.811Z"/><path d="M517.80754,398.96347v4.21347h3.83164v1.51739h-3.83164v3.996h4.64678v1.519h-6.23887V397.46268h6.23887v1.50079Z"/><path d="M524.17092,406.82763v-6.00147c.13269-5.57917,9.194-4.28879,7.84756,1.2833h-1.60869c1.02513-3.65293-4.38608-4.85839-4.64719-1.2302l.00041,5.9135c.26744,3.6466,5.677,2.39926,4.64678-1.24843h1.60869C533.36887,411.13569,524.30055,412.39564,524.17092,406.82763Z"/><path d="M533.82805,406.82763v-5.96495c-.40348-4.78782,8.2738-4.79312,7.88239.00027l0,5.96468C542.11246,411.59314,533.42457,411.59459,533.82805,406.82763Zm6.29033-.03487v-5.89521c.39392-2.86906-5.0932-2.86862-4.69987.00012l0,5.89509C535.02654,409.63408,540.51114,409.63615,540.11838,406.79276Z"/><path d="M551.185,397.46268v12.74668h-1.40948l-4.59365-9.58242v9.58242h-1.40947V397.46268h1.40947l4.59365,9.63721v-9.63721Z"/><path d="M561.05627,401.00712c.08613,6.95022.96773,9.92046-7.557,9.20224V397.46268C556.32308,397.37476,561.28063,397.01638,561.05627,401.00712Zm-1.59043.03486c.19081-2.41886-2.70782-2.10068-4.37617-2.07851v9.72685C561.34789,409.58158,559.06455,404.98227,559.46584,401.042Z"/><path d="M562.738,406.811v-.5246h1.59209c-.789,3.0542,4.53162,3.75844,4.5374.65065-.00019-3.14587-5.85722-2.188-5.85722-6.31013-.25987-4.8904,8.31322-4.2178,7.26816.65078h-1.59209c.85432-2.75342-4.03181-3.61362-4.06765-.7403.00027,2.784,5.8407,1.87917,5.8573,6.25534C570.84894,411.5739,562.39649,411.62171,562.738,406.811Z"/><path d="M571.32766,411.72841c3.48319.63543,1.34443-10.282,1.89816-11.93316-.0006-1.446-.65138-2.0437-1.89816-2.0437v-1.46426c5.68932-.53415,2.74879,10.41525,3.43547,13.3978a3.14517,3.14517,0,0,1-3.43547,3.50758Z"/><path d="M390.12327,364.65136c.81276,5.67733-7.75592,5.48147-6.78921-.22412h.86079c-1.01354,3.92943,5.01287,5.1193,5.08706,1.04739.40463-2.57184-1.58038-3.50444-3.79712-3.179v-.80351c2.10547.29486,4.109-.50852,3.70356-2.97528-.08491-3.84172-5.90624-2.71818-4.9935,1.02958h-.86079c-1.03606-4.77057,6.5899-5.92825,6.71479-1.122.12246,1.35684-.23118,2.88611-1.47783,3.45954A3.023,3.023,0,0,1,390.12327,364.65136Z"/><path d="M392.42175,365.11952v-6.07783c-.30855-4.93658,7.40641-4.95162,7.08884.00021l0,6.07762C399.82619,370.04276,392.11462,370.03052,392.42175,365.11952Zm6.22808-.13115v-5.81553a2.70553,2.70553,0,1,0-5.36725.00012l0,5.81541A2.70321,2.70321,0,1,0,398.64983,364.98837Z"/><path d="M520.22141,365.53124h-.01826v3.10449h-.8417v-3.10449h-5.57314c-.58418-.01676,3.79174-9.74653,3.8333-10.024h.9164l-3.8333,9.20058h4.65674v-4.07734h.8417v4.07734h.01826Z"/><path d="M529.27258,363.886c1.14448,6.5255-7.94557,6.591-6.82656.01827h.86c-1.12071,4.327,4.87682,6.07092,5.10709,1.328.62425-4.07478-2.46583-3.89589-5.51715-3.76016v-5.96494h6.05957v.82177h-5.19961v4.33965C526.18409,360.44121,529.43191,360.84852,529.27258,363.886Z"/><path d="M652.17063,363.8661c1.29668,5.51872-6.79206,7.14842-6.93983,1.27153l.00038-6.09594c-.42382-4.44657,6.58828-5.158,6.73359-.767h-.86c-.14735-3.39528-5.48662-2.62321-5.01337.87826l-.0003,2.56324C647.91568,359.35515,652.48859,360.457,652.17063,363.8661Zm-.86.09463c.00926-4.462-6.33068-3.11018-5.21911,1.10243C646.16818,369.89575,652.41558,368.422,651.31067,363.96073Z"/><path d="M654.45,365.11952c.25975-2.973-1.369-10.097,3.55445-9.81788,4.90488-.28074,3.27608,6.8601,3.53444,9.81816C661.85486,370.04338,654.14329,370.02989,654.45,365.11952Zm6.22891-.13115v-5.81553a2.70627,2.70627,0,1,0-5.36891.00012l0,5.81541A2.704,2.704,0,1,0,660.67893,364.98837Z"/><path d="M782.795,355.50722v.82177l-4.71318,12.30674h-.91641l4.71319-12.30674h-5.47852v-.82177Z"/><path d="M791.37805,363.886c1.14447,6.5255-7.94557,6.591-6.82656.01827h.86c-1.12071,4.327,4.87682,6.07092,5.10709,1.328.62425-4.07478-2.46583-3.89589-5.51715-3.76016v-5.96494H791.061v.82177h-5.19961v4.33965C788.28956,360.44121,791.53738,360.84852,791.37805,363.886Z"/><path d="M913.8428,359.00351v6.09775c.424,4.4385-6.57879,5.16533-6.71533.767h.8417c.16285,3.39449,5.484,2.61864,5.01337-.87992l.0003-2.54332c-2.64491,3.00406-7.04321.31448-6.07891-3.55286C906.62183,354.10457,914.18489,354.15611,913.8428,359.00351Zm-.86,1.7581c1.09893-5.14062-4.86236-6.682-5.22-1.75824C906.78113,362.96958,911.95094,364.72411,912.98284,360.76161Z"/><path d="M916.12219,365.11952c.25975-2.973-1.369-10.097,3.55445-9.81788,4.90488-.28074,3.27608,6.8601,3.53444,9.81816C923.527,370.04338,915.81545,370.02989,916.12219,365.11952Zm6.22891-.13115v-5.81553a2.70627,2.70627,0,1,0-5.36892.00012l0,5.81541A2.704,2.704,0,1,0,922.3511,364.98837Z"/><path class="cls-3" d="M128.39254,345.05828c4.01207.04162,12.08356.07362,16.08693.05978,3.30356-17.53007,11.06316-52.60352,15.856-69.60892l7.985-52.52073,7.98547-14.50917c4.0816-43.23344,12.09984-130.50432,15.97122-173.80813l7.98549,1.48725c6.02538,61.38239,13.31558,204.05783,15.97119,266.954l7.98549-26.06612,7.98563,35.5672,7.98559-54.01456,8.01948,86.5192c2.16883-22.68139,7.65448-90.14123,15.9372-110.667l7.944,110.667c5.00557-25.04736,12.83122-78.02983,16.01273-103.627l7.98552,68.77563,7.98558-75.814,8.02754,110.66542,7.94356-110.762,7.95411,110.762,8.01708-66.79765,7.98552,42.58192,7.98558-61.82893,8.02754,86.04466,7.94359-110.74475,8.018,110.87755,7.9532-110.904,8.014,110.77124,7.95706-125.40125,7.94909,125.40125h8.06395l7.94367-110.74077,7.94364,110.74077h8.06913l7.94391-110.74487,8.24176,110.74487,7.72937-4.23475,7.98558-103.55746L479.75748,345.264l7.98546-4.192,7.98561-64.1251,7.94412,68.17123H511.963l7.72222-11.73883,7.98558-86.69653,8.02745,98.43536,7.94365-110.74316,8.02558,110.74316L559.613,229.89453l8.02767,115.22353,7.94355-108.03549,7.98549,107.201,8.49113.83447L599.541,336.511l7.98549-93.17637,8.02082,101.78346,7.9504-110.78178,7.98543,110.92078,7.98567-11.9862,7.61,11.8472c29.20069,0,59.07945,0,88.27923,0,10.00864,0,21.93992,0,31.94957,0,4.27528-.02476,12.96481.035,17.2574.10371l6.6295-1.96131c9.75936,2.91957,21.90127,1.61968,31.94223,1.8576,7.09734,0,16.85537,0,23.95671,0l7.98558-4.5176,7.33368,4.67516c18.48913-.16973,38.06231-.18111,56.55084-.15756"/><polyline class="cls-4" points="922.504 345.118 128.393 345.118 128.393 16.564"/><line class="cls-5" x1="130.24523" y1="34.67111" x2="131.09523" y2="34.67111"/><line class="cls-6" x1="134.52587" y1="34.67111" x2="230.58393" y2="34.67111"/><line class="cls-5" x1="232.29925" y1="34.67111" x2="233.14925" y2="34.67111"/><line class="cls-5" x1="130.24523" y1="233.94266" x2="131.09523" y2="233.94266"/><line class="cls-7" x1="134.49277" y1="233.94266" x2="657.71488" y2="233.94266"/><line class="cls-5" x1="659.41367" y1="233.94266" x2="660.26365" y2="233.94266"/></g></g></svg>