<?xml version="1.0" encoding="UTF-8"?>
<svg width="138px" height="138px" viewBox="0 0 138 138" version="1.1" xmlns="http://www.w3.org/2000/svg" xmlns:xlink="http://www.w3.org/1999/xlink">
    <!-- Generator: Sketch 64 (93537) - https://sketch.com -->
    <title>bubbles1</title>
    <desc>Created with Sketch.</desc>
    <g id="new" stroke="none" stroke-width="1" fill="none" fill-rule="evenodd" opacity="0.100000001">
        <g id="VC_Updated_dee" transform="translate(-1153.000000, -2657.000000)" stroke="#FFFFFF">
            <g id="Group-13" transform="translate(0.000000, 2430.000000)">
                <g id="Combined-Shape-+-Combined-Shape-Copy-Mask">
                    <path d="M1180,360 C1181.10457,360 1182,360.895431 1182,362 C1182,363.104569 1181.10457,364 1180,364 C1178.89543,364 1178,363.104569 1178,362 C1178,360.895431 1178.89543,360 1180,360 Z M1192,360 C1193.10457,360 1194,360.895431 1194,362 C1194,363.104569 1193.10457,364 1192,364 C1190.89543,364 1190,363.104569 1190,362 C1190,360.895431 1190.89543,360 1192,360 Z M1228,360 C1229.10457,360 1230,360.895431 1230,362 C1230,363.104569 1229.10457,364 1228,364 C1226.89543,364 1226,363.104569 1226,362 C1226,360.895431 1226.89543,360 1228,360 Z M1240,360 C1241.10457,360 1242,360.895431 1242,362 C1242,363.104569 1241.10457,364 1240,364 C1238.89543,364 1238,363.104569 1238,362 C1238,360.895431 1238.89543,360 1240,360 Z M1264,360 C1265.10457,360 1266,360.895431 1266,362 C1266,363.104569 1265.10457,364 1264,364 C1262.89543,364 1262,363.104569 1262,362 C1262,360.895431 1262.89543,360 1264,360 Z M1276,360 C1277.10457,360 1278,360.895431 1278,362 C1278,363.104569 1277.10457,364 1276,364 C1274.89543,364 1274,363.104569 1274,362 C1274,360.895431 1274.89543,360 1276,360 Z M1288,360 C1289.10457,360 1290,360.895431 1290,362 C1290,363.104569 1289.10457,364 1288,364 C1286.89543,364 1286,363.104569 1286,362 C1286,360.895431 1286.89543,360 1288,360 Z M1240,348 C1241.10457,348 1242,348.895431 1242,350 C1242,351.104569 1241.10457,352 1240,352 C1238.89543,352 1238,351.104569 1238,350 C1238,348.895431 1238.89543,348 1240,348 Z M1252,348 C1253.10457,348 1254,348.895431 1254,350 C1254,351.104569 1253.10457,352 1252,352 C1250.89543,352 1250,351.104569 1250,350 C1250,348.895431 1250.89543,348 1252,348 Z M1288,348 C1289.10457,348 1290,348.895431 1290,350 C1290,351.104569 1289.10457,352 1288,352 C1286.89543,352 1286,351.104569 1286,350 C1286,348.895431 1286.89543,348 1288,348 Z M1156,348 C1157.10457,348 1158,348.895431 1158,350 C1158,351.104569 1157.10457,352 1156,352 C1154.89543,352 1154,351.104569 1154,350 C1154,348.895431 1154.89543,348 1156,348 Z M1180,348 C1181.10457,348 1182,348.895431 1182,350 C1182,351.104569 1181.10457,352 1180,352 C1178.89543,352 1178,351.104569 1178,350 C1178,348.895431 1178.89543,348 1180,348 Z M1228,336 C1229.10457,336 1230,336.895431 1230,338 C1230,339.104569 1229.10457,340 1228,340 C1226.89543,340 1226,339.104569 1226,338 C1226,336.895431 1226.89543,336 1228,336 Z M1240,336 C1241.10457,336 1242,336.895431 1242,338 C1242,339.104569 1241.10457,340 1240,340 C1238.89543,340 1238,339.104569 1238,338 C1238,336.895431 1238.89543,336 1240,336 Z M1252,336 C1253.10457,336 1254,336.895431 1254,338 C1254,339.104569 1253.10457,340 1252,340 C1250.89543,340 1250,339.104569 1250,338 C1250,336.895431 1250.89543,336 1252,336 Z M1288,336 C1289.10457,336 1290,336.895431 1290,338 C1290,339.104569 1289.10457,340 1288,340 C1286.89543,340 1286,339.104569 1286,338 C1286,336.895431 1286.89543,336 1288,336 Z M1156,336 C1157.10457,336 1158,336.895431 1158,338 C1158,339.104569 1157.10457,340 1156,340 C1154.89543,340 1154,339.104569 1154,338 C1154,336.895431 1154.89543,336 1156,336 Z M1168,336 C1169.10457,336 1170,336.895431 1170,338 C1170,339.104569 1169.10457,340 1168,340 C1166.89543,340 1166,339.104569 1166,338 C1166,336.895431 1166.89543,336 1168,336 Z M1180,336 C1181.10457,336 1182,336.895431 1182,338 C1182,339.104569 1181.10457,340 1180,340 C1178.89543,340 1178,339.104569 1178,338 C1178,336.895431 1178.89543,336 1180,336 Z M1216,336 C1217.10457,336 1218,336.895431 1218,338 C1218,339.104569 1217.10457,340 1216,340 C1214.89543,340 1214,339.104569 1214,338 C1214,336.895431 1214.89543,336 1216,336 Z M1252,324 C1253.10457,324 1254,324.895431 1254,326 C1254,327.104569 1253.10457,328 1252,328 C1250.89543,328 1250,327.104569 1250,326 C1250,324.895431 1250.89543,324 1252,324 Z M1276,324 C1277.10457,324 1278,324.895431 1278,326 C1278,327.104569 1277.10457,328 1276,328 C1274.89543,328 1274,327.104569 1274,326 C1274,324.895431 1274.89543,324 1276,324 Z M1288,324 C1289.10457,324 1290,324.895431 1290,326 C1290,327.104569 1289.10457,328 1288,328 C1286.89543,328 1286,327.104569 1286,326 C1286,324.895431 1286.89543,324 1288,324 Z M1156,324 C1157.10457,324 1158,324.895431 1158,326 C1158,327.104569 1157.10457,328 1156,328 C1154.89543,328 1154,327.104569 1154,326 C1154,324.895431 1154.89543,324 1156,324 Z M1168,324 C1169.10457,324 1170,324.895431 1170,326 C1170,327.104569 1169.10457,328 1168,328 C1166.89543,328 1166,327.104569 1166,326 C1166,324.895431 1166.89543,324 1168,324 Z M1216,324 C1217.10457,324 1218,324.895431 1218,326 C1218,327.104569 1217.10457,328 1216,328 C1214.89543,328 1214,327.104569 1214,326 C1214,324.895431 1214.89543,324 1216,324 Z M1228,324 C1229.10457,324 1230,324.895431 1230,326 C1230,327.104569 1229.10457,328 1228,328 C1226.89543,328 1226,327.104569 1226,326 C1226,324.895431 1226.89543,324 1228,324 Z M1240,324 C1241.10457,324 1242,324.895431 1242,326 C1242,327.104569 1241.10457,328 1240,328 C1238.89543,328 1238,327.104569 1238,326 C1238,324.895431 1238.89543,324 1240,324 Z M1276,312 C1277.10457,312 1278,312.895431 1278,314 C1278,315.104569 1277.10457,316 1276,316 C1274.89543,316 1274,315.104569 1274,314 C1274,312.895431 1274.89543,312 1276,312 Z M1288,312 C1289.10457,312 1290,312.895431 1290,314 C1290,315.104569 1289.10457,316 1288,316 C1286.89543,316 1286,315.104569 1286,314 C1286,312.895431 1286.89543,312 1288,312 Z M1168,312 C1169.10457,312 1170,312.895431 1170,314 C1170,315.104569 1169.10457,316 1168,316 C1166.89543,316 1166,315.104569 1166,314 C1166,312.895431 1166.89543,312 1168,312 Z M1216,312 C1217.10457,312 1218,312.895431 1218,314 C1218,315.104569 1217.10457,316 1216,316 C1214.89543,316 1214,315.104569 1214,314 C1214,312.895431 1214.89543,312 1216,312 Z M1228,312 C1229.10457,312 1230,312.895431 1230,314 C1230,315.104569 1229.10457,316 1228,316 C1226.89543,316 1226,315.104569 1226,314 C1226,312.895431 1226.89543,312 1228,312 Z M1180,312 C1181.10457,312 1182,312.895431 1182,314 C1182,315.104569 1181.10457,316 1180,316 C1178.89543,316 1178,315.104569 1178,314 C1178,312.895431 1178.89543,312 1180,312 Z M1192,312 C1193.10457,312 1194,312.895431 1194,314 C1194,315.104569 1193.10457,316 1192,316 C1190.89543,316 1190,315.104569 1190,314 C1190,312.895431 1190.89543,312 1192,312 Z M1204,312 C1205.10457,312 1206,312.895431 1206,314 C1206,315.104569 1205.10457,316 1204,316 C1202.89543,316 1202,315.104569 1202,314 C1202,312.895431 1202.89543,312 1204,312 Z M1264,312 C1265.10457,312 1266,312.895431 1266,314 C1266,315.104569 1265.10457,316 1264,316 C1262.89543,316 1262,315.104569 1262,314 C1262,312.895431 1262.89543,312 1264,312 Z M1252,312 C1253.10457,312 1254,312.895431 1254,314 C1254,315.104569 1253.10457,316 1252,316 C1250.89543,316 1250,315.104569 1250,314 C1250,312.895431 1250.89543,312 1252,312 Z M1204,300 C1205.10457,300 1206,300.895431 1206,302 C1206,303.104569 1205.10457,304 1204,304 C1202.89543,304 1202,303.104569 1202,302 C1202,300.895431 1202.89543,300 1204,300 Z M1288,300 C1289.10457,300 1290,300.895431 1290,302 C1290,303.104569 1289.10457,304 1288,304 C1286.89543,304 1286,303.104569 1286,302 C1286,300.895431 1286.89543,300 1288,300 Z M1192,300 C1193.10457,300 1194,300.895431 1194,302 C1194,303.104569 1193.10457,304 1192,304 C1190.89543,304 1190,303.104569 1190,302 C1190,300.895431 1190.89543,300 1192,300 Z M1216,300 C1217.10457,300 1218,300.895431 1218,302 C1218,303.104569 1217.10457,304 1216,304 C1214.89543,304 1214,303.104569 1214,302 C1214,300.895431 1214.89543,300 1216,300 Z M1228,300 C1229.10457,300 1230,300.895431 1230,302 C1230,303.104569 1229.10457,304 1228,304 C1226.89543,304 1226,303.104569 1226,302 C1226,300.895431 1226.89543,300 1228,300 Z M1240,300 C1241.10457,300 1242,300.895431 1242,302 C1242,303.104569 1241.10457,304 1240,304 C1238.89543,304 1238,303.104569 1238,302 C1238,300.895431 1238.89543,300 1240,300 Z M1252,300 C1253.10457,300 1254,300.895431 1254,302 C1254,303.104569 1253.10457,304 1252,304 C1250.89543,304 1250,303.104569 1250,302 C1250,300.895431 1250.89543,300 1252,300 Z M1264,300 C1265.10457,300 1266,300.895431 1266,302 C1266,303.104569 1265.10457,304 1264,304 C1262.89543,304 1262,303.104569 1262,302 C1262,300.895431 1262.89543,300 1264,300 Z M1276,300 C1277.10457,300 1278,300.895431 1278,302 C1278,303.104569 1277.10457,304 1276,304 C1274.89543,304 1274,303.104569 1274,302 C1274,300.895431 1274.89543,300 1276,300 Z M1180,288 C1181.10457,288 1182,288.895431 1182,290 C1182,291.104569 1181.10457,292 1180,292 C1178.89543,292 1178,291.104569 1178,290 C1178,288.895431 1178.89543,288 1180,288 Z M1228,288 C1229.10457,288 1230,288.895431 1230,290 C1230,291.104569 1229.10457,292 1228,292 C1226.89543,292 1226,291.104569 1226,290 C1226,288.895431 1226.89543,288 1228,288 Z M1252,288 C1253.10457,288 1254,288.895431 1254,290 C1254,291.104569 1253.10457,292 1252,292 C1250.89543,292 1250,291.104569 1250,290 C1250,288.895431 1250.89543,288 1252,288 Z M1240,288 C1241.10457,288 1242,288.895431 1242,290 C1242,291.104569 1241.10457,292 1240,292 C1238.89543,292 1238,291.104569 1238,290 C1238,288.895431 1238.89543,288 1240,288 Z M1288,288 C1289.10457,288 1290,288.895431 1290,290 C1290,291.104569 1289.10457,292 1288,292 C1286.89543,292 1286,291.104569 1286,290 C1286,288.895431 1286.89543,288 1288,288 Z M1264,288 C1265.10457,288 1266,288.895431 1266,290 C1266,291.104569 1265.10457,292 1264,292 C1262.89543,292 1262,291.104569 1262,290 C1262,288.895431 1262.89543,288 1264,288 Z M1216,288 C1217.10457,288 1218,288.895431 1218,290 C1218,291.104569 1217.10457,292 1216,292 C1214.89543,292 1214,291.104569 1214,290 C1214,288.895431 1214.89543,288 1216,288 Z M1204,288 C1205.10457,288 1206,288.895431 1206,290 C1206,291.104569 1205.10457,292 1204,292 C1202.89543,292 1202,291.104569 1202,290 C1202,288.895431 1202.89543,288 1204,288 Z M1192,288 C1193.10457,288 1194,288.895431 1194,290 C1194,291.104569 1193.10457,292 1192,292 C1190.89543,292 1190,291.104569 1190,290 C1190,288.895431 1190.89543,288 1192,288 Z M1204,276 C1205.10457,276 1206,276.895431 1206,278 C1206,279.104569 1205.10457,280 1204,280 C1202.89543,280 1202,279.104569 1202,278 C1202,276.895431 1202.89543,276 1204,276 Z M1216,276 C1217.10457,276 1218,276.895431 1218,278 C1218,279.104569 1217.10457,280 1216,280 C1214.89543,280 1214,279.104569 1214,278 C1214,276.895431 1214.89543,276 1216,276 Z M1264,276 C1265.10457,276 1266,276.895431 1266,278 C1266,279.104569 1265.10457,280 1264,280 C1262.89543,280 1262,279.104569 1262,278 C1262,276.895431 1262.89543,276 1264,276 Z M1276,276 C1277.10457,276 1278,276.895431 1278,278 C1278,279.104569 1277.10457,280 1276,280 C1274.89543,280 1274,279.104569 1274,278 C1274,276.895431 1274.89543,276 1276,276 Z M1240,276 C1241.10457,276 1242,276.895431 1242,278 C1242,279.104569 1241.10457,280 1240,280 C1238.89543,280 1238,279.104569 1238,278 C1238,276.895431 1238.89543,276 1240,276 Z M1252,276 C1253.10457,276 1254,276.895431 1254,278 C1254,279.104569 1253.10457,280 1252,280 C1250.89543,280 1250,279.104569 1250,278 C1250,276.895431 1250.89543,276 1252,276 Z M1168,276 C1169.10457,276 1170,276.895431 1170,278 C1170,279.104569 1169.10457,280 1168,280 C1166.89543,280 1166,279.104569 1166,278 C1166,276.895431 1166.89543,276 1168,276 Z M1180,276 C1181.10457,276 1182,276.895431 1182,278 C1182,279.104569 1181.10457,280 1180,280 C1178.89543,280 1178,279.104569 1178,278 C1178,276.895431 1178.89543,276 1180,276 Z M1288,276 C1289.10457,276 1290,276.895431 1290,278 C1290,279.104569 1289.10457,280 1288,280 C1286.89543,280 1286,279.104569 1286,278 C1286,276.895431 1286.89543,276 1288,276 Z M1156,276 C1157.10457,276 1158,276.895431 1158,278 C1158,279.104569 1157.10457,280 1156,280 C1154.89543,280 1154,279.104569 1154,278 C1154,276.895431 1154.89543,276 1156,276 Z M1276,264 C1277.10457,264 1278,264.895431 1278,266 C1278,267.104569 1277.10457,268 1276,268 C1274.89543,268 1274,267.104569 1274,266 C1274,264.895431 1274.89543,264 1276,264 Z M1228,264 C1229.10457,264 1230,264.895431 1230,266 C1230,267.104569 1229.10457,268 1228,268 C1226.89543,268 1226,267.104569 1226,266 C1226,264.895431 1226.89543,264 1228,264 Z M1168,264 C1169.10457,264 1170,264.895431 1170,266 C1170,267.104569 1169.10457,268 1168,268 C1166.89543,268 1166,267.104569 1166,266 C1166,264.895431 1166.89543,264 1168,264 Z M1204,264 C1205.10457,264 1206,264.895431 1206,266 C1206,267.104569 1205.10457,268 1204,268 C1202.89543,268 1202,267.104569 1202,266 C1202,264.895431 1202.89543,264 1204,264 Z M1180,264 C1181.10457,264 1182,264.895431 1182,266 C1182,267.104569 1181.10457,268 1180,268 C1178.89543,268 1178,267.104569 1178,266 C1178,264.895431 1178.89543,264 1180,264 Z M1192,264 C1193.10457,264 1194,264.895431 1194,266 C1194,267.104569 1193.10457,268 1192,268 C1190.89543,268 1190,267.104569 1190,266 C1190,264.895431 1190.89543,264 1192,264 Z M1216,264 C1217.10457,264 1218,264.895431 1218,266 C1218,267.104569 1217.10457,268 1216,268 C1214.89543,268 1214,267.104569 1214,266 C1214,264.895431 1214.89543,264 1216,264 Z M1264,264 C1265.10457,264 1266,264.895431 1266,266 C1266,267.104569 1265.10457,268 1264,268 C1262.89543,268 1262,267.104569 1262,266 C1262,264.895431 1262.89543,264 1264,264 Z M1156,264 C1157.10457,264 1158,264.895431 1158,266 C1158,267.104569 1157.10457,268 1156,268 C1154.89543,268 1154,267.104569 1154,266 C1154,264.895431 1154.89543,264 1156,264 Z M1252,264 C1253.10457,264 1254,264.895431 1254,266 C1254,267.104569 1253.10457,268 1252,268 C1250.89543,268 1250,267.104569 1250,266 C1250,264.895431 1250.89543,264 1252,264 Z M1240,252 C1241.10457,252 1242,252.895431 1242,254 C1242,255.104569 1241.10457,256 1240,256 C1238.89543,256 1238,255.104569 1238,254 C1238,252.895431 1238.89543,252 1240,252 Z M1216,252 C1217.10457,252 1218,252.895431 1218,254 C1218,255.104569 1217.10457,256 1216,256 C1214.89543,256 1214,255.104569 1214,254 C1214,252.895431 1214.89543,252 1216,252 Z M1156,252 C1157.10457,252 1158,252.895431 1158,254 C1158,255.104569 1157.10457,256 1156,256 C1154.89543,256 1154,255.104569 1154,254 C1154,252.895431 1154.89543,252 1156,252 Z M1264,252 C1265.10457,252 1266,252.895431 1266,254 C1266,255.104569 1265.10457,256 1264,256 C1262.89543,256 1262,255.104569 1262,254 C1262,252.895431 1262.89543,252 1264,252 Z M1228,252 C1229.10457,252 1230,252.895431 1230,254 C1230,255.104569 1229.10457,256 1228,256 C1226.89543,256 1226,255.104569 1226,254 C1226,252.895431 1226.89543,252 1228,252 Z M1168,252 C1169.10457,252 1170,252.895431 1170,254 C1170,255.104569 1169.10457,256 1168,256 C1166.89543,256 1166,255.104569 1166,254 C1166,252.895431 1166.89543,252 1168,252 Z M1192,252 C1193.10457,252 1194,252.895431 1194,254 C1194,255.104569 1193.10457,256 1192,256 C1190.89543,256 1190,255.104569 1190,254 C1190,252.895431 1190.89543,252 1192,252 Z M1252,252 C1253.10457,252 1254,252.895431 1254,254 C1254,255.104569 1253.10457,256 1252,256 C1250.89543,256 1250,255.104569 1250,254 C1250,252.895431 1250.89543,252 1252,252 Z M1156,240 C1157.10457,240 1158,240.895431 1158,242 C1158,243.104569 1157.10457,244 1156,244 C1154.89543,244 1154,243.104569 1154,242 C1154,240.895431 1154.89543,240 1156,240 Z M1168,240 C1169.10457,240 1170,240.895431 1170,242 C1170,243.104569 1169.10457,244 1168,244 C1166.89543,244 1166,243.104569 1166,242 C1166,240.895431 1166.89543,240 1168,240 Z M1180,240 C1181.10457,240 1182,240.895431 1182,242 C1182,243.104569 1181.10457,244 1180,244 C1178.89543,244 1178,243.104569 1178,242 C1178,240.895431 1178.89543,240 1180,240 Z M1204,240 C1205.10457,240 1206,240.895431 1206,242 C1206,243.104569 1205.10457,244 1204,244 C1202.89543,244 1202,243.104569 1202,242 C1202,240.895431 1202.89543,240 1204,240 Z M1216,240 C1217.10457,240 1218,240.895431 1218,242 C1218,243.104569 1217.10457,244 1216,244 C1214.89543,244 1214,243.104569 1214,242 C1214,240.895431 1214.89543,240 1216,240 Z M1240,240 C1241.10457,240 1242,240.895431 1242,242 C1242,243.104569 1241.10457,244 1240,244 C1238.89543,244 1238,243.104569 1238,242 C1238,240.895431 1238.89543,240 1240,240 Z M1252,240 C1253.10457,240 1254,240.895431 1254,242 C1254,243.104569 1253.10457,244 1252,244 C1250.89543,244 1250,243.104569 1250,242 C1250,240.895431 1250.89543,240 1252,240 Z M1156,228 C1157.10457,228 1158,228.895431 1158,230 C1158,231.104569 1157.10457,232 1156,232 C1154.89543,232 1154,231.104569 1154,230 C1154,228.895431 1154.89543,228 1156,228 Z M1180,228 C1181.10457,228 1182,228.895431 1182,230 C1182,231.104569 1181.10457,232 1180,232 C1178.89543,232 1178,231.104569 1178,230 C1178,228.895431 1178.89543,228 1180,228 Z M1192,228 C1193.10457,228 1194,228.895431 1194,230 C1194,231.104569 1193.10457,232 1192,232 C1190.89543,232 1190,231.104569 1190,230 C1190,228.895431 1190.89543,228 1192,228 Z M1204,228 C1205.10457,228 1206,228.895431 1206,230 C1206,231.104569 1205.10457,232 1204,232 C1202.89543,232 1202,231.104569 1202,230 C1202,228.895431 1202.89543,228 1204,228 Z M1240,228 C1241.10457,228 1242,228.895431 1242,230 C1242,231.104569 1241.10457,232 1240,232 C1238.89543,232 1238,231.104569 1238,230 C1238,228.895431 1238.89543,228 1240,228 Z M1252,228 C1253.10457,228 1254,228.895431 1254,230 C1254,231.104569 1253.10457,232 1252,232 C1250.89543,232 1250,231.104569 1250,230 C1250,228.895431 1250.89543,228 1252,228 Z M1264,228 C1265.10457,228 1266,228.895431 1266,230 C1266,231.104569 1265.10457,232 1264,232 C1262.89543,232 1262,231.104569 1262,230 C1262,228.895431 1262.89543,228 1264,228 Z" id="bubbles1"></path>
                </g>
            </g>
        </g>
    </g>
</svg>