<?xml version="1.0" encoding="UTF-8"?>
<svg width="138px" height="42px" viewBox="0 0 138 42" version="1.1" xmlns="http://www.w3.org/2000/svg" xmlns:xlink="http://www.w3.org/1999/xlink">
    <title>start-bubble3</title>
    <g id="Page-1" stroke="none" stroke-width="1" fill="none" fill-rule="evenodd">
        <g id="Home-updated-Copy-5" transform="translate(-631.000000, -5852.000000)" stroke="#E5E9F7">
            <g id="Group-19-Copy-3" transform="translate(150.000000, 5850.000000)">
                <g id="Combined-Shape">
                    <path d="M508,39 C509.104569,39 510,39.8954305 510,41 C510,42.1045695 509.104569,43 508,43 C506.895431,43 506,42.1045695 506,41 C506,39.8954305 506.895431,39 508,39 Z M520,39 C521.104569,39 522,39.8954305 522,41 C522,42.1045695 521.104569,43 520,43 C518.895431,43 518,42.1045695 518,41 C518,39.8954305 518.895431,39 520,39 Z M556,39 C557.104569,39 558,39.8954305 558,41 C558,42.1045695 557.104569,43 556,43 C554.895431,43 554,42.1045695 554,41 C554,39.8954305 554.895431,39 556,39 Z M568,39 C569.104569,39 570,39.8954305 570,41 C570,42.1045695 569.104569,43 568,43 C566.895431,43 566,42.1045695 566,41 C566,39.8954305 566.895431,39 568,39 Z M592,39 C593.104569,39 594,39.8954305 594,41 C594,42.1045695 593.104569,43 592,43 C590.895431,43 590,42.1045695 590,41 C590,39.8954305 590.895431,39 592,39 Z M604,39 C605.104569,39 606,39.8954305 606,41 C606,42.1045695 605.104569,43 604,43 C602.895431,43 602,42.1045695 602,41 C602,39.8954305 602.895431,39 604,39 Z M616,39 C617.104569,39 618,39.8954305 618,41 C618,42.1045695 617.104569,43 616,43 C614.895431,43 614,42.1045695 614,41 C614,39.8954305 614.895431,39 616,39 Z M568,27 C569.104569,27 570,27.8954305 570,29 C570,30.1045695 569.104569,31 568,31 C566.895431,31 566,30.1045695 566,29 C566,27.8954305 566.895431,27 568,27 Z M580,27 C581.104569,27 582,27.8954305 582,29 C582,30.1045695 581.104569,31 580,31 C578.895431,31 578,30.1045695 578,29 C578,27.8954305 578.895431,27 580,27 Z M616,27 C617.104569,27 618,27.8954305 618,29 C618,30.1045695 617.104569,31 616,31 C614.895431,31 614,30.1045695 614,29 C614,27.8954305 614.895431,27 616,27 Z M484,27 C485.104569,27 486,27.8954305 486,29 C486,30.1045695 485.104569,31 484,31 C482.895431,31 482,30.1045695 482,29 C482,27.8954305 482.895431,27 484,27 Z M508,27 C509.104569,27 510,27.8954305 510,29 C510,30.1045695 509.104569,31 508,31 C506.895431,31 506,30.1045695 506,29 C506,27.8954305 506.895431,27 508,27 Z M556,15 C557.104569,15 558,15.8954305 558,17 C558,18.1045695 557.104569,19 556,19 C554.895431,19 554,18.1045695 554,17 C554,15.8954305 554.895431,15 556,15 Z M568,15 C569.104569,15 570,15.8954305 570,17 C570,18.1045695 569.104569,19 568,19 C566.895431,19 566,18.1045695 566,17 C566,15.8954305 566.895431,15 568,15 Z M580,15 C581.104569,15 582,15.8954305 582,17 C582,18.1045695 581.104569,19 580,19 C578.895431,19 578,18.1045695 578,17 C578,15.8954305 578.895431,15 580,15 Z M616,15 C617.104569,15 618,15.8954305 618,17 C618,18.1045695 617.104569,19 616,19 C614.895431,19 614,18.1045695 614,17 C614,15.8954305 614.895431,15 616,15 Z M484,15 C485.104569,15 486,15.8954305 486,17 C486,18.1045695 485.104569,19 484,19 C482.895431,19 482,18.1045695 482,17 C482,15.8954305 482.895431,15 484,15 Z M496,15 C497.104569,15 498,15.8954305 498,17 C498,18.1045695 497.104569,19 496,19 C494.895431,19 494,18.1045695 494,17 C494,15.8954305 494.895431,15 496,15 Z M508,15 C509.104569,15 510,15.8954305 510,17 C510,18.1045695 509.104569,19 508,19 C506.895431,19 506,18.1045695 506,17 C506,15.8954305 506.895431,15 508,15 Z M544,15 C545.104569,15 546,15.8954305 546,17 C546,18.1045695 545.104569,19 544,19 C542.895431,19 542,18.1045695 542,17 C542,15.8954305 542.895431,15 544,15 Z M580,3 C581.104569,3 582,3.8954305 582,5 C582,6.1045695 581.104569,7 580,7 C578.895431,7 578,6.1045695 578,5 C578,3.8954305 578.895431,3 580,3 Z M604,3 C605.104569,3 606,3.8954305 606,5 C606,6.1045695 605.104569,7 604,7 C602.895431,7 602,6.1045695 602,5 C602,3.8954305 602.895431,3 604,3 Z M616,3 C617.104569,3 618,3.8954305 618,5 C618,6.1045695 617.104569,7 616,7 C614.895431,7 614,6.1045695 614,5 C614,3.8954305 614.895431,3 616,3 Z M484,3 C485.104569,3 486,3.8954305 486,5 C486,6.1045695 485.104569,7 484,7 C482.895431,7 482,6.1045695 482,5 C482,3.8954305 482.895431,3 484,3 Z M496,3 C497.104569,3 498,3.8954305 498,5 C498,6.1045695 497.104569,7 496,7 C494.895431,7 494,6.1045695 494,5 C494,3.8954305 494.895431,3 496,3 Z M544,3 C545.104569,3 546,3.8954305 546,5 C546,6.1045695 545.104569,7 544,7 C542.895431,7 542,6.1045695 542,5 C542,3.8954305 542.895431,3 544,3 Z M556,3 C557.104569,3 558,3.8954305 558,5 C558,6.1045695 557.104569,7 556,7 C554.895431,7 554,6.1045695 554,5 C554,3.8954305 554.895431,3 556,3 Z M568,3 C569.104569,3 570,3.8954305 570,5 C570,6.1045695 569.104569,7 568,7 C566.895431,7 566,6.1045695 566,5 C566,3.8954305 566.895431,3 568,3 Z M604,-9 C605.104569,-9 606,-8.1045695 606,-7 C606,-5.8954305 605.104569,-5 604,-5 C602.895431,-5 602,-5.8954305 602,-7 C602,-8.1045695 602.895431,-9 604,-9 Z M616,-9 C617.104569,-9 618,-8.1045695 618,-7 C618,-5.8954305 617.104569,-5 616,-5 C614.895431,-5 614,-5.8954305 614,-7 C614,-8.1045695 614.895431,-9 616,-9 Z M496,-9 C497.104569,-9 498,-8.1045695 498,-7 C498,-5.8954305 497.104569,-5 496,-5 C494.895431,-5 494,-5.8954305 494,-7 C494,-8.1045695 494.895431,-9 496,-9 Z M544,-9 C545.104569,-9 546,-8.1045695 546,-7 C546,-5.8954305 545.104569,-5 544,-5 C542.895431,-5 542,-5.8954305 542,-7 C542,-8.1045695 542.895431,-9 544,-9 Z M556,-9 C557.104569,-9 558,-8.1045695 558,-7 C558,-5.8954305 557.104569,-5 556,-5 C554.895431,-5 554,-5.8954305 554,-7 C554,-8.1045695 554.895431,-9 556,-9 Z M508,-9 C509.104569,-9 510,-8.1045695 510,-7 C510,-5.8954305 509.104569,-5 508,-5 C506.895431,-5 506,-5.8954305 506,-7 C506,-8.1045695 506.895431,-9 508,-9 Z M520,-9 C521.104569,-9 522,-8.1045695 522,-7 C522,-5.8954305 521.104569,-5 520,-5 C518.895431,-5 518,-5.8954305 518,-7 C518,-8.1045695 518.895431,-9 520,-9 Z M532,-9 C533.104569,-9 534,-8.1045695 534,-7 C534,-5.8954305 533.104569,-5 532,-5 C530.895431,-5 530,-5.8954305 530,-7 C530,-8.1045695 530.895431,-9 532,-9 Z M592,-9 C593.104569,-9 594,-8.1045695 594,-7 C594,-5.8954305 593.104569,-5 592,-5 C590.895431,-5 590,-5.8954305 590,-7 C590,-8.1045695 590.895431,-9 592,-9 Z M580,-9 C581.104569,-9 582,-8.1045695 582,-7 C582,-5.8954305 581.104569,-5 580,-5 C578.895431,-5 578,-5.8954305 578,-7 C578,-8.1045695 578.895431,-9 580,-9 Z M532,-21 C533.104569,-21 534,-20.1045695 534,-19 C534,-17.8954305 533.104569,-17 532,-17 C530.895431,-17 530,-17.8954305 530,-19 C530,-20.1045695 530.895431,-21 532,-21 Z M616,-21 C617.104569,-21 618,-20.1045695 618,-19 C618,-17.8954305 617.104569,-17 616,-17 C614.895431,-17 614,-17.8954305 614,-19 C614,-20.1045695 614.895431,-21 616,-21 Z M520,-21 C521.104569,-21 522,-20.1045695 522,-19 C522,-17.8954305 521.104569,-17 520,-17 C518.895431,-17 518,-17.8954305 518,-19 C518,-20.1045695 518.895431,-21 520,-21 Z M544,-21 C545.104569,-21 546,-20.1045695 546,-19 C546,-17.8954305 545.104569,-17 544,-17 C542.895431,-17 542,-17.8954305 542,-19 C542,-20.1045695 542.895431,-21 544,-21 Z M556,-21 C557.104569,-21 558,-20.1045695 558,-19 C558,-17.8954305 557.104569,-17 556,-17 C554.895431,-17 554,-17.8954305 554,-19 C554,-20.1045695 554.895431,-21 556,-21 Z M568,-21 C569.104569,-21 570,-20.1045695 570,-19 C570,-17.8954305 569.104569,-17 568,-17 C566.895431,-17 566,-17.8954305 566,-19 C566,-20.1045695 566.895431,-21 568,-21 Z M580,-21 C581.104569,-21 582,-20.1045695 582,-19 C582,-17.8954305 581.104569,-17 580,-17 C578.895431,-17 578,-17.8954305 578,-19 C578,-20.1045695 578.895431,-21 580,-21 Z M592,-21 C593.104569,-21 594,-20.1045695 594,-19 C594,-17.8954305 593.104569,-17 592,-17 C590.895431,-17 590,-17.8954305 590,-19 C590,-20.1045695 590.895431,-21 592,-21 Z M604,-21 C605.104569,-21 606,-20.1045695 606,-19 C606,-17.8954305 605.104569,-17 604,-17 C602.895431,-17 602,-17.8954305 602,-19 C602,-20.1045695 602.895431,-21 604,-21 Z M508,-33 C509.104569,-33 510,-32.1045695 510,-31 C510,-29.8954305 509.104569,-29 508,-29 C506.895431,-29 506,-29.8954305 506,-31 C506,-32.1045695 506.895431,-33 508,-33 Z M556,-33 C557.104569,-33 558,-32.1045695 558,-31 C558,-29.8954305 557.104569,-29 556,-29 C554.895431,-29 554,-29.8954305 554,-31 C554,-32.1045695 554.895431,-33 556,-33 Z M580,-33 C581.104569,-33 582,-32.1045695 582,-31 C582,-29.8954305 581.104569,-29 580,-29 C578.895431,-29 578,-29.8954305 578,-31 C578,-32.1045695 578.895431,-33 580,-33 Z M568,-33 C569.104569,-33 570,-32.1045695 570,-31 C570,-29.8954305 569.104569,-29 568,-29 C566.895431,-29 566,-29.8954305 566,-31 C566,-32.1045695 566.895431,-33 568,-33 Z M616,-33 C617.104569,-33 618,-32.1045695 618,-31 C618,-29.8954305 617.104569,-29 616,-29 C614.895431,-29 614,-29.8954305 614,-31 C614,-32.1045695 614.895431,-33 616,-33 Z M592,-33 C593.104569,-33 594,-32.1045695 594,-31 C594,-29.8954305 593.104569,-29 592,-29 C590.895431,-29 590,-29.8954305 590,-31 C590,-32.1045695 590.895431,-33 592,-33 Z M544,-33 C545.104569,-33 546,-32.1045695 546,-31 C546,-29.8954305 545.104569,-29 544,-29 C542.895431,-29 542,-29.8954305 542,-31 C542,-32.1045695 542.895431,-33 544,-33 Z M532,-33 C533.104569,-33 534,-32.1045695 534,-31 C534,-29.8954305 533.104569,-29 532,-29 C530.895431,-29 530,-29.8954305 530,-31 C530,-32.1045695 530.895431,-33 532,-33 Z M520,-33 C521.104569,-33 522,-32.1045695 522,-31 C522,-29.8954305 521.104569,-29 520,-29 C518.895431,-29 518,-29.8954305 518,-31 C518,-32.1045695 518.895431,-33 520,-33 Z M532,-45 C533.104569,-45 534,-44.1045695 534,-43 C534,-41.8954305 533.104569,-41 532,-41 C530.895431,-41 530,-41.8954305 530,-43 C530,-44.1045695 530.895431,-45 532,-45 Z M544,-45 C545.104569,-45 546,-44.1045695 546,-43 C546,-41.8954305 545.104569,-41 544,-41 C542.895431,-41 542,-41.8954305 542,-43 C542,-44.1045695 542.895431,-45 544,-45 Z M592,-45 C593.104569,-45 594,-44.1045695 594,-43 C594,-41.8954305 593.104569,-41 592,-41 C590.895431,-41 590,-41.8954305 590,-43 C590,-44.1045695 590.895431,-45 592,-45 Z M604,-45 C605.104569,-45 606,-44.1045695 606,-43 C606,-41.8954305 605.104569,-41 604,-41 C602.895431,-41 602,-41.8954305 602,-43 C602,-44.1045695 602.895431,-45 604,-45 Z M568,-45 C569.104569,-45 570,-44.1045695 570,-43 C570,-41.8954305 569.104569,-41 568,-41 C566.895431,-41 566,-41.8954305 566,-43 C566,-44.1045695 566.895431,-45 568,-45 Z M580,-45 C581.104569,-45 582,-44.1045695 582,-43 C582,-41.8954305 581.104569,-41 580,-41 C578.895431,-41 578,-41.8954305 578,-43 C578,-44.1045695 578.895431,-45 580,-45 Z M496,-45 C497.104569,-45 498,-44.1045695 498,-43 C498,-41.8954305 497.104569,-41 496,-41 C494.895431,-41 494,-41.8954305 494,-43 C494,-44.1045695 494.895431,-45 496,-45 Z M508,-45 C509.104569,-45 510,-44.1045695 510,-43 C510,-41.8954305 509.104569,-41 508,-41 C506.895431,-41 506,-41.8954305 506,-43 C506,-44.1045695 506.895431,-45 508,-45 Z M616,-45 C617.104569,-45 618,-44.1045695 618,-43 C618,-41.8954305 617.104569,-41 616,-41 C614.895431,-41 614,-41.8954305 614,-43 C614,-44.1045695 614.895431,-45 616,-45 Z M484,-45 C485.104569,-45 486,-44.1045695 486,-43 C486,-41.8954305 485.104569,-41 484,-41 C482.895431,-41 482,-41.8954305 482,-43 C482,-44.1045695 482.895431,-45 484,-45 Z M604,-57 C605.104569,-57 606,-56.1045695 606,-55 C606,-53.8954305 605.104569,-53 604,-53 C602.895431,-53 602,-53.8954305 602,-55 C602,-56.1045695 602.895431,-57 604,-57 Z M556,-57 C557.104569,-57 558,-56.1045695 558,-55 C558,-53.8954305 557.104569,-53 556,-53 C554.895431,-53 554,-53.8954305 554,-55 C554,-56.1045695 554.895431,-57 556,-57 Z M496,-57 C497.104569,-57 498,-56.1045695 498,-55 C498,-53.8954305 497.104569,-53 496,-53 C494.895431,-53 494,-53.8954305 494,-55 C494,-56.1045695 494.895431,-57 496,-57 Z M532,-57 C533.104569,-57 534,-56.1045695 534,-55 C534,-53.8954305 533.104569,-53 532,-53 C530.895431,-53 530,-53.8954305 530,-55 C530,-56.1045695 530.895431,-57 532,-57 Z M508,-57 C509.104569,-57 510,-56.1045695 510,-55 C510,-53.8954305 509.104569,-53 508,-53 C506.895431,-53 506,-53.8954305 506,-55 C506,-56.1045695 506.895431,-57 508,-57 Z M520,-57 C521.104569,-57 522,-56.1045695 522,-55 C522,-53.8954305 521.104569,-53 520,-53 C518.895431,-53 518,-53.8954305 518,-55 C518,-56.1045695 518.895431,-57 520,-57 Z M544,-57 C545.104569,-57 546,-56.1045695 546,-55 C546,-53.8954305 545.104569,-53 544,-53 C542.895431,-53 542,-53.8954305 542,-55 C542,-56.1045695 542.895431,-57 544,-57 Z M592,-57 C593.104569,-57 594,-56.1045695 594,-55 C594,-53.8954305 593.104569,-53 592,-53 C590.895431,-53 590,-53.8954305 590,-55 C590,-56.1045695 590.895431,-57 592,-57 Z M484,-57 C485.104569,-57 486,-56.1045695 486,-55 C486,-53.8954305 485.104569,-53 484,-53 C482.895431,-53 482,-53.8954305 482,-55 C482,-56.1045695 482.895431,-57 484,-57 Z M580,-57 C581.104569,-57 582,-56.1045695 582,-55 C582,-53.8954305 581.104569,-53 580,-53 C578.895431,-53 578,-53.8954305 578,-55 C578,-56.1045695 578.895431,-57 580,-57 Z M568,-69 C569.104569,-69 570,-68.1045695 570,-67 C570,-65.8954305 569.104569,-65 568,-65 C566.895431,-65 566,-65.8954305 566,-67 C566,-68.1045695 566.895431,-69 568,-69 Z M544,-69 C545.104569,-69 546,-68.1045695 546,-67 C546,-65.8954305 545.104569,-65 544,-65 C542.895431,-65 542,-65.8954305 542,-67 C542,-68.1045695 542.895431,-69 544,-69 Z M484,-69 C485.104569,-69 486,-68.1045695 486,-67 C486,-65.8954305 485.104569,-65 484,-65 C482.895431,-65 482,-65.8954305 482,-67 C482,-68.1045695 482.895431,-69 484,-69 Z M592,-69 C593.104569,-69 594,-68.1045695 594,-67 C594,-65.8954305 593.104569,-65 592,-65 C590.895431,-65 590,-65.8954305 590,-67 C590,-68.1045695 590.895431,-69 592,-69 Z M556,-69 C557.104569,-69 558,-68.1045695 558,-67 C558,-65.8954305 557.104569,-65 556,-65 C554.895431,-65 554,-65.8954305 554,-67 C554,-68.1045695 554.895431,-69 556,-69 Z M496,-69 C497.104569,-69 498,-68.1045695 498,-67 C498,-65.8954305 497.104569,-65 496,-65 C494.895431,-65 494,-65.8954305 494,-67 C494,-68.1045695 494.895431,-69 496,-69 Z M520,-69 C521.104569,-69 522,-68.1045695 522,-67 C522,-65.8954305 521.104569,-65 520,-65 C518.895431,-65 518,-65.8954305 518,-67 C518,-68.1045695 518.895431,-69 520,-69 Z M580,-69 C581.104569,-69 582,-68.1045695 582,-67 C582,-65.8954305 581.104569,-65 580,-65 C578.895431,-65 578,-65.8954305 578,-67 C578,-68.1045695 578.895431,-69 580,-69 Z M484,-81 C485.104569,-81 486,-80.1045695 486,-79 C486,-77.8954305 485.104569,-77 484,-77 C482.895431,-77 482,-77.8954305 482,-79 C482,-80.1045695 482.895431,-81 484,-81 Z M496,-81 C497.104569,-81 498,-80.1045695 498,-79 C498,-77.8954305 497.104569,-77 496,-77 C494.895431,-77 494,-77.8954305 494,-79 C494,-80.1045695 494.895431,-81 496,-81 Z M508,-81 C509.104569,-81 510,-80.1045695 510,-79 C510,-77.8954305 509.104569,-77 508,-77 C506.895431,-77 506,-77.8954305 506,-79 C506,-80.1045695 506.895431,-81 508,-81 Z M532,-81 C533.104569,-81 534,-80.1045695 534,-79 C534,-77.8954305 533.104569,-77 532,-77 C530.895431,-77 530,-77.8954305 530,-79 C530,-80.1045695 530.895431,-81 532,-81 Z M544,-81 C545.104569,-81 546,-80.1045695 546,-79 C546,-77.8954305 545.104569,-77 544,-77 C542.895431,-77 542,-77.8954305 542,-79 C542,-80.1045695 542.895431,-81 544,-81 Z M568,-81 C569.104569,-81 570,-80.1045695 570,-79 C570,-77.8954305 569.104569,-77 568,-77 C566.895431,-77 566,-77.8954305 566,-79 C566,-80.1045695 566.895431,-81 568,-81 Z M580,-81 C581.104569,-81 582,-80.1045695 582,-79 C582,-77.8954305 581.104569,-77 580,-77 C578.895431,-77 578,-77.8954305 578,-79 C578,-80.1045695 578.895431,-81 580,-81 Z M484,-93 C485.104569,-93 486,-92.1045695 486,-91 C486,-89.8954305 485.104569,-89 484,-89 C482.895431,-89 482,-89.8954305 482,-91 C482,-92.1045695 482.895431,-93 484,-93 Z M508,-93 C509.104569,-93 510,-92.1045695 510,-91 C510,-89.8954305 509.104569,-89 508,-89 C506.895431,-89 506,-89.8954305 506,-91 C506,-92.1045695 506.895431,-93 508,-93 Z M520,-93 C521.104569,-93 522,-92.1045695 522,-91 C522,-89.8954305 521.104569,-89 520,-89 C518.895431,-89 518,-89.8954305 518,-91 C518,-92.1045695 518.895431,-93 520,-93 Z M532,-93 C533.104569,-93 534,-92.1045695 534,-91 C534,-89.8954305 533.104569,-89 532,-89 C530.895431,-89 530,-89.8954305 530,-91 C530,-92.1045695 530.895431,-93 532,-93 Z M568,-93 C569.104569,-93 570,-92.1045695 570,-91 C570,-89.8954305 569.104569,-89 568,-89 C566.895431,-89 566,-89.8954305 566,-91 C566,-92.1045695 566.895431,-93 568,-93 Z M580,-93 C581.104569,-93 582,-92.1045695 582,-91 C582,-89.8954305 581.104569,-89 580,-89 C578.895431,-89 578,-89.8954305 578,-91 C578,-92.1045695 578.895431,-93 580,-93 Z M592,-93 C593.104569,-93 594,-92.1045695 594,-91 C594,-89.8954305 593.104569,-89 592,-89 C590.895431,-89 590,-89.8954305 590,-91 C590,-92.1045695 590.895431,-93 592,-93 Z" id="start-bubble3"></path>
                </g>
            </g>
        </g>
    </g>
</svg>