<svg xmlns="http://www.w3.org/2000/svg" viewBox="0 0 751.47 408.11"><defs><style>.cls-1,.cls-10,.cls-12,.cls-13,.cls-14,.cls-2,.cls-3,.cls-4,.cls-5,.cls-6,.cls-7{fill:none;}.cls-1,.cls-3{stroke:#25af4b;}.cls-1,.cls-10,.cls-11,.cls-13,.cls-15,.cls-16,.cls-2,.cls-3,.cls-5,.cls-6,.cls-7{stroke-miterlimit:10;}.cls-2,.cls-6{stroke:#0c5c8d;}.cls-10,.cls-11,.cls-12,.cls-13,.cls-14,.cls-2,.cls-3,.cls-4,.cls-7{stroke-linecap:round;}.cls-11,.cls-15,.cls-4,.cls-5,.cls-7{stroke:#000;}.cls-12,.cls-14,.cls-4{stroke-linejoin:round;}.cls-11,.cls-15,.cls-16,.cls-8{fill:#fff;}.cls-9{fill:#343434;}.cls-10{stroke:#343434;}.cls-12{stroke:#29ae4a;}.cls-13,.cls-14{stroke:#1d9cd3;}.cls-16{stroke:#221f1f;}</style></defs><g id="Layer_2" data-name="Layer 2"><g id="Layer_1-2" data-name="Layer 1"><polyline class="cls-1" points="283.07 119.05 243.86 119.05 243.86 80.19 161.43 80.19"/><polyline class="cls-2" points="636.59 43.97 547.88 43.97 547.88 93.7"/><polyline class="cls-3" points="636.59 48.97 552.75 48.97 552.75 93.7"/><polyline class="cls-2" points="636.59 323.16 547.88 323.16 547.88 238.42"/><polyline class="cls-3" points="636.59 318.16 552.75 318.16 552.75 238.42"/><polyline class="cls-2" points="656.26 340.55 656.26 361.02 702.46 361.02"/><polyline class="cls-3" points="702.46 281.79 656.26 281.79 656.26 300.79"/><line class="cls-3" x1="106.69" y1="240.45" x2="190.22" y2="240.45"/><line class="cls-2" x1="106.56" y1="235.45" x2="191.43" y2="235.45"/><path d="M201.66,261h-3.72l-.65,1.63h-1l2.95-7.34h1.13l3,7.34h-1Zm-3.46-.82h3.18l-1.58-4.08Z"/><path d="M206.7,257.15a2.26,2.26,0,0,1,1.94.93l-.55.5a1.57,1.57,0,0,0-1.35-.69,2.06,2.06,0,0,0,0,4.1,1.6,1.6,0,0,0,1.35-.69l.55.5a2.26,2.26,0,0,1-1.94.93,2.79,2.79,0,0,1,0-5.58Z"/><path d="M212.25,257.15a2.28,2.28,0,0,1,1.95.93l-.55.5a1.57,1.57,0,0,0-1.35-.69,2.06,2.06,0,0,0,0,4.1,1.6,1.6,0,0,0,1.35-.69l.55.5a2.28,2.28,0,0,1-1.95.93,2.79,2.79,0,0,1,0-5.58Z"/><path d="M217.77,257.15a2.59,2.59,0,0,1,2.56,2.85v.21H216a1.88,1.88,0,0,0,1.92,1.84,2.38,2.38,0,0,0,1.64-.67l.39.54a2.9,2.9,0,0,1-2.11.81,2.79,2.79,0,0,1-.09-5.58ZM216,259.61h3.49a1.73,1.73,0,0,0-1.75-1.78A1.78,1.78,0,0,0,216,259.61Z"/><path d="M221.73,261.3a2.44,2.44,0,0,0,1.75.76c.82,0,1.26-.36,1.26-.88s-.65-.77-1.37-.95c-.9-.21-1.92-.45-1.92-1.55,0-.82.71-1.53,2-1.53a2.69,2.69,0,0,1,2,.77l-.39.57a2.08,2.08,0,0,0-1.58-.67c-.73,0-1.18.33-1.18.8s.6.69,1.3.85c.92.21,2,.48,2,1.65,0,.89-.72,1.61-2.09,1.61a2.85,2.85,0,0,1-2.15-.84Z"/><path d="M227,261.3a2.43,2.43,0,0,0,1.75.76c.81,0,1.25-.36,1.25-.88s-.65-.77-1.36-.95c-.91-.21-1.93-.45-1.93-1.55,0-.82.72-1.53,2-1.53a2.69,2.69,0,0,1,2,.77l-.38.57a2.11,2.11,0,0,0-1.59-.67c-.72,0-1.18.33-1.18.8s.61.69,1.3.85c.93.21,2,.48,2,1.65,0,.89-.71,1.61-2.09,1.61a2.83,2.83,0,0,1-2.14-.84Z"/><line class="cls-3" x1="318.81" y1="240.45" x2="363.55" y2="240.45"/><line class="cls-2" x1="318.68" y1="235.45" x2="363.55" y2="235.45"/><line class="cls-3" x1="236.91" y1="240.45" x2="282.47" y2="240.45"/><line class="cls-2" x1="237" y1="235.45" x2="282.47" y2="235.45"/><path class="cls-4" d="M310.44,243.65l-5.3,0a3.09,3.09,0,0,1-2.64-1.77L299,233.93a3.12,3.12,0,0,0-2.64-1.77l-5.3,0"/><path class="cls-4" d="M299.85,240.09l-.89,1.76a3.12,3.12,0,0,1-2.65,1.75l-5.3,0"/><path class="cls-4" d="M310.48,232.21l-5.3,0a3.13,3.13,0,0,0-2.66,1.75l-.89,1.76"/><polyline class="cls-4" points="310.49 229.57 313.13 232.22 310.47 234.85"/><polyline class="cls-4" points="310.65 240.75 313.09 243.2 310.63 245.63"/><polyline class="cls-4" points="291.06 229.5 288.4 232.14 291.04 234.78"/><polyline class="cls-4" points="291.02 240.94 288.36 243.57 291 246.22"/><circle class="cls-5" cx="300.74" cy="237.86" r="17.82"/><path d="M274.74,264.49H278a1.85,1.85,0,0,1,2.06,1.87,1.68,1.68,0,0,1-1.29,1.69,1.83,1.83,0,0,1,1.43,1.8,1.91,1.91,0,0,1-2.12,2h-3.35Zm3.12,3.18a1.18,1.18,0,1,0,0-2.36h-2.2v2.36Zm0,3.35a1.22,1.22,0,0,0,1.37-1.27,1.25,1.25,0,0,0-1.37-1.26h-2.24V271Z"/><path d="M284.15,268.92h-1.46v2.91h-.92v-7.34h3a2.13,2.13,0,0,1,2.3,2.21,2,2,0,0,1-1.9,2.14l2,3H286Zm.46-3.61h-1.92v2.8h1.92a1.4,1.4,0,1,0,0-2.8Z"/><path d="M293.19,270.2h-3.72l-.64,1.63h-1l2.95-7.34h1.14l3,7.34h-1Zm-3.45-.81h3.18l-1.59-4.08Z"/><path d="M295.86,270.1a3.12,3.12,0,0,0,2.32,1c1.31,0,1.72-.7,1.72-1.27,0-.88-.89-1.12-1.86-1.38-1.17-.31-2.48-.64-2.48-2.08,0-1.21,1.08-2,2.52-2a3.43,3.43,0,0,1,2.6,1l-.55.67a2.79,2.79,0,0,0-2.12-.88c-.88,0-1.51.47-1.51,1.16s.85,1,1.79,1.21c1.2.32,2.56.7,2.56,2.24,0,1.06-.73,2.15-2.71,2.15a3.62,3.62,0,0,1-2.81-1.16Z"/><path d="M304.07,264.27h.65l-2.61,7.78h-.65Z"/><path d="M305.69,264.49H309a1.85,1.85,0,0,1,2.06,1.87,1.67,1.67,0,0,1-1.28,1.69,1.82,1.82,0,0,1,1.42,1.8,1.91,1.91,0,0,1-2.12,2h-3.34Zm3.11,3.18a1.18,1.18,0,1,0,0-2.36h-2.2v2.36Zm.05,3.35a1.22,1.22,0,0,0,1.36-1.27,1.24,1.24,0,0,0-1.36-1.26H306.6V271Z"/><path d="M313.63,265.91v5.92h-.91v-7.34h.93l4.23,5.8v-5.8h.91v7.34h-.88Z"/><path d="M324.09,264.37a3.48,3.48,0,0,1,2.85,1.38l-.73.45a2.68,2.68,0,0,0-2.12-1,3,3,0,0,0,0,6,2.9,2.9,0,0,0,2-.79v-1.5h-2.52v-.81H327v2.65a3.81,3.81,0,0,1-2.88,1.26,3.8,3.8,0,0,1,0-7.6Z"/><path class="cls-4" d="M223.73,246.25H197.07a6.75,6.75,0,0,1,0-13.49h0a10,10,0,0,1,10-10,9.76,9.76,0,0,1,4.11.9,11.66,11.66,0,0,1,22.6,4.12,11.4,11.4,0,0,1-.41,3,8.43,8.43,0,0,1-4.59,15.46h-1.67"/><polyline class="cls-2" points="656.26 180.13 656.26 200.6 702.46 200.6"/><polyline class="cls-3" points="702.46 121.37 656.26 121.37 656.26 140.38"/><line class="cls-1" x1="151.62" y1="80.19" x2="106.38" y2="80.19"/><line class="cls-1" x1="150.39" y1="161.14" x2="106.06" y2="161.14"/><path d="M150.53,190.39a2.56,2.56,0,0,0,2.05,1c1.07,0,1.72-.53,1.72-1.38s-.75-1.3-1.83-1.3h-.76v-.83h.76c.92,0,1.71-.36,1.71-1.21s-.75-1.26-1.64-1.26a2.47,2.47,0,0,0-1.94.9l-.51-.58a3.21,3.21,0,0,1,2.51-1.13c1.41,0,2.49.72,2.49,2a1.78,1.78,0,0,1-1.59,1.7,1.85,1.85,0,0,1,1.7,1.81c0,1.22-1,2.11-2.6,2.11A3.12,3.12,0,0,1,150,191Z"/><path d="M160.25,184.58A3.5,3.5,0,0,1,163.1,186l-.73.46a2.68,2.68,0,0,0-2.12-1,3,3,0,0,0,0,6,2.93,2.93,0,0,0,2-.79v-1.5H159.7v-.81h3.43v2.65a3.81,3.81,0,0,1-2.88,1.26,3.8,3.8,0,0,1,0-7.6Z"/><polyline class="cls-6" points="283.3 124.05 239.11 124.05 238.86 124.05 238.86 85.19 162.76 85.19"/><polyline class="cls-1" points="284.5 129.05 239.11 129.05 238.86 129.05 238.86 161.14 162.76 161.14"/><line class="cls-6" x1="150.39" y1="85.19" x2="106.06" y2="85.19"/><path class="cls-4" d="M150.2,71.77l-1.47-2a4.14,4.14,0,0,1,.08-5.16l1.39-1.83"/><path class="cls-4" d="M147.23,74.15,144,69.74a4.14,4.14,0,0,1,.08-5.16l3.12-4.08"/><path class="cls-4" d="M143.63,75.94,139,69.59a4.16,4.16,0,0,1,.07-5.17l4.54-5.93"/><path class="cls-4" d="M163,62.66l1.47,2a4.15,4.15,0,0,1-.07,5.16L163,71.68"/><path class="cls-4" d="M165.92,60.28l3.2,4.41a4.15,4.15,0,0,1-.07,5.16l-3.13,4.08"/><path class="cls-4" d="M169.53,58.49l4.61,6.35a4.15,4.15,0,0,1-.08,5.17l-4.53,5.93"/><path class="cls-4" d="M166.69,99.19l-7.94-28.3a4.26,4.26,0,1,0-4.35,0l-7.94,28.3H163.8"/><line class="cls-4" x1="150.8" y1="93.42" x2="162.36" y2="93.42"/><line class="cls-4" x1="152.24" y1="87.57" x2="160.91" y2="87.57"/><line class="cls-4" x1="153.69" y1="81.75" x2="159.47" y2="81.75"/><line class="cls-2" x1="318.81" y1="124.08" x2="363.55" y2="124.08"/><line class="cls-3" x1="318.68" y1="119.08" x2="363.55" y2="119.08"/><line class="cls-2" x1="592.41" y1="162.74" x2="636.59" y2="162.74"/><line class="cls-3" x1="592.27" y1="157.74" x2="636.59" y2="157.74"/><path d="M144.55,114.23h-3.49v-.76l3.15-4.72h1.25v4.68h1v.8h-1v1.86h-.91Zm-2.57-.8h2.57V109.6Z"/><path d="M151.29,108.63a3.48,3.48,0,0,1,2.85,1.38l-.72.45a2.7,2.7,0,0,0-2.13-1,3,3,0,0,0,0,6,2.9,2.9,0,0,0,2-.79v-1.5h-2.52v-.81h3.44V115a3.84,3.84,0,0,1-2.89,1.26,3.8,3.8,0,0,1,0-7.6Z"/><path d="M157.52,108.53h.65l-2.61,7.78h-.65Z"/><path d="M159.57,114.44a2.4,2.4,0,0,0,2,1,1.58,1.58,0,0,0,1.69-1.58,1.54,1.54,0,0,0-1.68-1.58,2.29,2.29,0,0,0-1.69.69l-.67-.23v-4h4.48v.82h-3.57v2.55a2.48,2.48,0,0,1,1.71-.66,2.24,2.24,0,0,1,2.34,2.34,2.4,2.4,0,0,1-2.61,2.42A3,3,0,0,1,159,115Z"/><path d="M169.21,108.63a3.48,3.48,0,0,1,2.85,1.38l-.72.45a2.71,2.71,0,0,0-2.13-1,3,3,0,0,0,0,6,2.9,2.9,0,0,0,2-.79v-1.5h-2.52v-.81h3.43V115a3.81,3.81,0,0,1-2.88,1.26,3.8,3.8,0,0,1,0-7.6Z"/><path d="M701.84,148.42h.91v7.33h-.91Z"/><path d="M708.13,152.28c0-.94-.47-1.24-1.19-1.24a2,2,0,0,0-1.57.83v3.88h-.83v-5.31h.83v.77a2.63,2.63,0,0,1,1.89-.9A1.51,1.51,0,0,1,709,152v3.73h-.82Z"/><path d="M710.88,154.64v-3.47H710v-.73h.88V149h.82v1.45h1.08v.73H711.7v3.3c0,.39.18.68.54.68a.8.8,0,0,0,.56-.22l.25.61a1.35,1.35,0,0,1-1,.34A1.09,1.09,0,0,1,710.88,154.64Z"/><path d="M716.37,150.31a2.58,2.58,0,0,1,2.55,2.85v.2h-4.3a1.87,1.87,0,0,0,1.91,1.84,2.31,2.31,0,0,0,1.64-.67l.4.54a2.87,2.87,0,0,1-2.11.81,2.79,2.79,0,0,1-.09-5.57Zm-1.75,2.45h3.49a1.72,1.72,0,0,0-1.75-1.77A1.77,1.77,0,0,0,714.62,152.76Z"/><path d="M720.36,150.44h.83v.86a2.24,2.24,0,0,1,1.77-1v.85a1.11,1.11,0,0,0-.33,0,1.93,1.93,0,0,0-1.44.85v3.76h-.83Z"/><path d="M727.69,152.28c0-.94-.48-1.24-1.19-1.24a2,2,0,0,0-1.57.83v3.88h-.83v-5.31h.83v.77a2.63,2.63,0,0,1,1.89-.9,1.51,1.51,0,0,1,1.69,1.71v3.73h-.82Z"/><path d="M732.58,150.31a2.57,2.57,0,0,1,2.55,2.85v.2h-4.3a1.87,1.87,0,0,0,1.92,1.84,2.33,2.33,0,0,0,1.64-.67l.39.54a2.87,2.87,0,0,1-2.11.81,2.79,2.79,0,0,1-.09-5.57Zm-1.75,2.45h3.49a1.72,1.72,0,0,0-1.75-1.77A1.78,1.78,0,0,0,730.83,152.76Z"/><path d="M736.74,154.64v-3.47h-.88v-.73h.88V149h.82v1.45h1.08v.73h-1.08v3.3c0,.39.18.68.54.68a.8.8,0,0,0,.56-.22l.25.61a1.35,1.35,0,0,1-1,.34A1.09,1.09,0,0,1,736.74,154.64Z"/><path d="M710.37,159.42h.91v7.33h-.91Z"/><path d="M713.11,159.42h2.94a2.21,2.21,0,1,1,0,4.42h-2v2.91h-.91Zm2.83.81H714V163h1.92a1.4,1.4,0,1,0,0-2.79Z"/><path d="M718.85,161.44h.89l1.77,4.36,1.76-4.36h.9L722,166.75h-.9Z"/><path d="M728.15,164.89h-3.48v-.76l3.14-4.71h1.26v4.67h1v.8h-1v1.86h-.92Zm-2.57-.8h2.57v-3.83Z"/><g id="laptop"><line class="cls-4" x1="69.2" y1="113.73" x2="75.2" y2="113.73"/><path class="cls-4" d="M94.68,113.68a2.72,2.72,0,0,1-1.49,2.3H51.38l-.18,0a2.63,2.63,0,0,1-1.52-2.26,2.59,2.59,0,0,1,1.52-2.24h42v-24h-42v21"/></g><g id="mobile-phone"><ellipse cx="14.53" cy="97.63" rx="0.48" ry="0.46"/><path d="M14.53,96.67a1,1,0,1,0,1,1,1,1,0,0,0-1-1Z"/><line class="cls-4" x1="19.73" y1="129.8" x2="24.95" y2="129.8"/><path class="cls-4" d="M32.78,126.59v3.86a1.3,1.3,0,0,1-1.3,1.28H13.24a1.29,1.29,0,0,1-1.3-1.28V97a1.3,1.3,0,0,1,1.3-1.29H31.48A1.3,1.3,0,0,1,32.78,97v.67"/><rect class="cls-4" x="11.94" y="99.59" width="20.84" height="28.29" rx="1.29"/></g><g id="monitor"><polyline class="cls-4" points="85.04 161.79 85.04 163.4 40.04 163.4 40.04 158.58 85.04 158.58 85.04 132.86 40.04 132.86 40.04 155.36"/><line class="cls-4" x1="62.56" y1="163.56" x2="62.56" y2="166.61"/><line class="cls-4" x1="52.9" y1="166.61" x2="72.18" y2="166.61"/><circle cx="62.56" cy="160.99" r="1.01"/></g><polygon class="cls-7" points="106.12 89.83 106.12 178.29 0.5 178.29 0.5 60.55 106.12 60.55 106.12 76.53 106.12 89.83"/><rect x="7.03" y="51.59" width="92.55" height="18"/><path class="cls-8" d="M13.29,57h1.55v7.09H13.29Z"/><path class="cls-8" d="M20.29,58.94v.91a2,2,0,0,1-2.11,1.95h-.82v2.29H15.81V57h2.36A2,2,0,0,1,20.29,58.94Zm-1.55-.07a.44.44,0,0,0-.46-.47h-.92v2h.91a.44.44,0,0,0,.47-.48Z"/><path class="cls-8" d="M25.17,59,24,64.09H22.09L20.91,59h1.53l.65,3.43L23.64,59Z"/><path class="cls-8" d="M29.82,59.52v4.57H28.27V62.6H25.62V61.21L26.8,57h1.63l-1.19,4.21h1V59.52Z"/><path class="cls-8" d="M38,61.15h-.6v1.07a1.83,1.83,0,0,1-1.86,1.87h-.75a1.81,1.81,0,0,1-1.86-1.81v-.63a1.83,1.83,0,0,1,.41-1.17,1.73,1.73,0,0,1-.41-1.14v-.52A1.82,1.82,0,0,1,34.76,57h1.48v1.35H34.75c-.18,0-.31.16-.31.4v.66c0,.24.13.4.31.4h1.07V59h1.55v.81H38Zm-2.15,0H34.75c-.18,0-.31.17-.31.43v.76c0,.24.14.4.32.4h.75c.19,0,.31-.16.31-.4Z"/><path class="cls-8" d="M40.69,57h1.54v7.09H40.69Z"/><path class="cls-8" d="M47.69,58.94v.91a2,2,0,0,1-2.11,1.95h-.82v2.29H43.21V57h2.36A2,2,0,0,1,47.69,58.94Zm-1.55-.07a.44.44,0,0,0-.46-.47h-.92v2h.91a.44.44,0,0,0,.47-.48Z"/><path class="cls-8" d="M52.57,59l-1.19,5.09H49.49L48.31,59h1.53l.65,3.43L51,59Z"/><path class="cls-8" d="M57.61,61.39v.91a2,2,0,0,1-2.17,1.94,2,2,0,0,1-2.17-2V58.87a2.16,2.16,0,0,1,4.32,0H56.05a.59.59,0,0,0-.61-.67.58.58,0,0,0-.62.65v1a2,2,0,0,1,.89-.23A1.77,1.77,0,0,1,57.61,61.39Zm-1.55-.15c0-.3-.23-.48-.61-.48s-.63.2-.63.5v1.09c0,.33.24.53.63.53s.61-.2.61-.53Z"/><path class="cls-8" d="M65.2,59v3a2.05,2.05,0,0,1-2.27,2h-2.3V57h2.29A2.06,2.06,0,0,1,65.2,59Zm-1.55,0a.57.57,0,0,0-.62-.6h-.85v4.29H63a.57.57,0,0,0,.63-.6Z"/><path class="cls-8" d="M67.67,58.4V60h1.72v1.4H67.67v1.34h2.12v1.4H66.12V57h3.67v1.4Z"/><path class="cls-8" d="M75.49,57,74,64.09H72L70.48,57H72l1,4.86L74,57Z"/><path class="cls-8" d="M76.29,57h1.55v7.09H76.29Z"/><path class="cls-8" d="M78.76,62.22V58.87a2.37,2.37,0,0,1,4.69,0v.89H81.88v-.91c0-.36-.26-.6-.77-.6s-.8.24-.8.6v3.39c0,.36.27.6.79.6s.78-.24.78-.6v-.9h1.57v.88a2.37,2.37,0,0,1-4.69,0Z"/><path class="cls-8" d="M85.89,58.4V60h1.72v1.4H85.89v1.34H88v1.4H84.34V57H88v1.4Z"/><path class="cls-8" d="M88.77,62v-.28h1.55v.43a.74.74,0,0,0,.83.73.68.68,0,0,0,.72-.68c0-1.27-3-1-3-3.27a2,2,0,0,1,2.22-2.08,1.94,1.94,0,0,1,2.21,2v.44H91.78v-.54c0-.31-.3-.49-.67-.49a.59.59,0,0,0-.65.6c0,1,3,.79,3,3.2a2.1,2.1,0,0,1-2.31,2.19A2.15,2.15,0,0,1,88.77,62Z"/><path class="cls-4" d="M714.91,122v-.13h-6.75v.09a25.17,25.17,0,0,0,1.21,7.84,42.17,42.17,0,0,1,6-.95A54.38,54.38,0,0,1,714.91,122Z"/><path class="cls-4" d="M715.32,128.81a42.17,42.17,0,0,0-6,.95c1.42,4.3,4,7.64,7,9.18l.42.1a20.64,20.64,0,0,0,2.25.3C717.37,138,716,134.05,715.32,128.81Z"/><path class="cls-4" d="M725.26,114.86a55.8,55.8,0,0,1,.45,7h6.75a25,25,0,0,0-1.28-7.92A40.11,40.11,0,0,1,725.26,114.86Z"/><path class="cls-4" d="M725.29,128.81c-.51-.05-1-.09-1.58-.12-1.1-.07-2.24-.11-3.4-.11-1.74,0-3.41.08-5,.23.66,5.24,2,9.21,3.76,10.53.4,0,.81,0,1.23,0s.81,0,1.21,0h0C723.24,138,724.63,134,725.29,128.81Z"/><path class="cls-4" d="M721.54,139.32h0a16.56,16.56,0,0,0,2.66-.4c3.1-1.54,5.64-4.87,7.06-9.17a40.55,40.55,0,0,0-6-.95C724.63,134,723.24,138,721.54,139.32Z"/><path class="cls-4" d="M725.71,122a54.3,54.3,0,0,1-.42,6.85,40.55,40.55,0,0,1,6,.95,25.17,25.17,0,0,0,1.22-7.84v-.09h-6.75Z"/><path class="cls-4" d="M715.36,114.86a40.54,40.54,0,0,1-5.93-.94,25.22,25.22,0,0,0-1.27,7.91h6.75A52.23,52.23,0,0,1,715.36,114.86Z"/><path class="cls-4" d="M720.31,115.08c-1.19,0-2.35,0-3.48-.11-.5,0-1-.06-1.47-.11a52.23,52.23,0,0,0-.45,7h10.8a55.8,55.8,0,0,0-.45-7l-1,.08C723,115,721.68,115.08,720.31,115.08Z"/><path class="cls-4" d="M714.91,122a54.38,54.38,0,0,0,.41,6.85c1.58-.15,3.25-.23,5-.23,1.16,0,2.3,0,3.4.11.54,0,1.07.07,1.58.12a54.3,54.3,0,0,0,.42-6.85v-.13h-10.8Z"/><path class="cls-4" d="M724.78,112h0c.19.9.35,1.87.48,2.88a40.11,40.11,0,0,0,5.92-1,19.37,19.37,0,0,0-.8-2c-1.61-3.52-4-6.14-6.89-7.28a17.54,17.54,0,0,0-2.43-.28,2.69,2.69,0,0,1,.29.16C722.78,105.39,724,108.15,724.78,112Z"/><path class="cls-4" d="M715.91,111.63c-.22,1-.4,2.09-.55,3.23.48,0,1,.08,1.47.11,1.13.07,2.29.11,3.48.11,1.37,0,2.71,0,4-.14l1-.08c-.13-1-.29-2-.48-2.88-.78-3.83-2-6.59-3.43-7.52a2.69,2.69,0,0,0-.29-.16l-.75,0-.77,0C718.05,105,716.75,107.74,715.91,111.63Z"/><path class="cls-4" d="M715.91,111.63c.84-3.89,2.14-6.62,3.63-7.33a17.28,17.28,0,0,0-2.4.27,13.46,13.46,0,0,0-6.73,6.94,21.66,21.66,0,0,0-1,2.41,40.54,40.54,0,0,0,5.93.94C715.51,113.72,715.69,112.64,715.91,111.63Z"/><path class="cls-4" d="M716.41,138.94c-3.09-1.54-5.62-4.88-7-9.18a22.47,22.47,0,0,0-3.36,1.1l-.59.27A17.53,17.53,0,0,0,716.41,138.94Z"/><path class="cls-4" d="M732.46,121.83v.09a25.17,25.17,0,0,1-1.22,7.84,21.3,21.3,0,0,1,3.62,1.2h0l.33.16a17.39,17.39,0,0,0,2.67-9.29Z"/><path class="cls-4" d="M731.24,129.76c-1.42,4.3-4,7.63-7.06,9.17l.12,0a17.57,17.57,0,0,0,10.89-7.79l-.33-.16A21.3,21.3,0,0,0,731.24,129.76Z"/><path class="cls-4" d="M723.71,104.62l-.22,0c2.85,1.14,5.28,3.76,6.89,7.28h0a19.37,19.37,0,0,1,.8,2,20.18,20.18,0,0,0,4-1.37l-.34-.53A17.57,17.57,0,0,0,723.71,104.62Z"/><path class="cls-4" d="M732.46,121.83h5.4a17.5,17.5,0,0,0-2.66-9.29,20.18,20.18,0,0,1-4,1.37A25,25,0,0,1,732.46,121.83Z"/><path class="cls-4" d="M709.43,113.92a20.18,20.18,0,0,1-4-1.37,17.39,17.39,0,0,0-2.68,9.28h5.41A25.22,25.22,0,0,1,709.43,113.92Z"/><path class="cls-4" d="M709.37,129.76a25.17,25.17,0,0,1-1.21-7.84v-.09h-5.41a17.45,17.45,0,0,0,2.67,9.3l.59-.27A22.47,22.47,0,0,1,709.37,129.76Z"/><path class="cls-4" d="M710.41,111.51a13.46,13.46,0,0,1,6.73-6.94,17.52,17.52,0,0,0-11.13,7.1c-.2.29-.39.58-.58.88a20.18,20.18,0,0,0,4,1.37A21.66,21.66,0,0,1,710.41,111.51Z"/><path d="M701.84,227.33h.91v7.33h-.91Z"/><path d="M708.13,231.19c0-.94-.47-1.24-1.19-1.24a2,2,0,0,0-1.57.83v3.88h-.83v-5.31h.83v.77a2.63,2.63,0,0,1,1.89-.9,1.51,1.51,0,0,1,1.69,1.71v3.73h-.82Z"/><path d="M710.88,233.55v-3.47H710v-.73h.88V227.9h.82v1.45h1.08v.73H711.7v3.3c0,.39.18.68.54.68a.8.8,0,0,0,.56-.22l.25.61a1.35,1.35,0,0,1-1,.35A1.1,1.1,0,0,1,710.88,233.55Z"/><path d="M716.37,229.22a2.58,2.58,0,0,1,2.55,2.85v.21h-4.3a1.87,1.87,0,0,0,1.91,1.83,2.31,2.31,0,0,0,1.64-.67l.4.54a2.88,2.88,0,0,1-2.11.82,2.79,2.79,0,0,1-.09-5.58Zm-1.75,2.45h3.49a1.72,1.72,0,0,0-1.75-1.77A1.77,1.77,0,0,0,714.62,231.67Z"/><path d="M720.36,229.35h.83v.86a2.24,2.24,0,0,1,1.77-1v.85a1.57,1.57,0,0,0-.33,0,1.93,1.93,0,0,0-1.44.85v3.76h-.83Z"/><path d="M727.69,231.19c0-.94-.48-1.24-1.19-1.24a2,2,0,0,0-1.57.83v3.88h-.83v-5.31h.83v.77a2.63,2.63,0,0,1,1.89-.9,1.51,1.51,0,0,1,1.69,1.71v3.73h-.82Z"/><path d="M732.58,229.22a2.57,2.57,0,0,1,2.55,2.85v.21h-4.3a1.87,1.87,0,0,0,1.92,1.83,2.33,2.33,0,0,0,1.64-.67l.39.54a2.88,2.88,0,0,1-2.11.82,2.79,2.79,0,0,1-.09-5.58Zm-1.75,2.45h3.49a1.72,1.72,0,0,0-1.75-1.77A1.78,1.78,0,0,0,730.83,231.67Z"/><path d="M736.74,233.55v-3.47h-.88v-.73h.88V227.9h.82v1.45h1.08v.73h-1.08v3.3c0,.39.18.68.54.68a.8.8,0,0,0,.56-.22l.25.61a1.35,1.35,0,0,1-1,.35A1.1,1.1,0,0,1,736.74,233.55Z"/><path d="M710.19,238.33h.91v7.33h-.91Z"/><path d="M712.92,238.33h3a2.21,2.21,0,1,1,0,4.42h-2v2.91h-.92Zm2.84.81h-1.92v2.79h1.92a1.4,1.4,0,1,0,0-2.79Z"/><path d="M718.67,240.35h.89l1.77,4.36,1.76-4.36h.9l-2.21,5.31h-.9Z"/><path d="M727.68,238.22a2.54,2.54,0,0,1,2,.88l-.46.68a1.88,1.88,0,0,0-1.57-.75c-1.42,0-2.07,1.44-2.07,2.88a2.81,2.81,0,0,0,0,.29,2.63,2.63,0,0,1,2.08-1.15,2.23,2.23,0,0,1,2.4,2.35,2.42,2.42,0,0,1-2.58,2.4c-2,0-2.82-1.8-2.82-3.79S725.62,238.22,727.68,238.22Zm-.2,3.63a2.26,2.26,0,0,0-1.84,1.1c.09.91.57,2,1.85,2a1.59,1.59,0,0,0,1.68-1.55A1.51,1.51,0,0,0,727.48,241.85Z"/><path class="cls-4" d="M714.91,200.87v-.13h-6.75v.09a25.28,25.28,0,0,0,1.21,7.85,40.7,40.7,0,0,1,6-1A54.38,54.38,0,0,1,714.91,200.87Z"/><path class="cls-4" d="M715.32,207.72a40.7,40.7,0,0,0-6,1c1.42,4.29,4,7.63,7,9.17l.42.1a18.45,18.45,0,0,0,2.25.3C717.37,216.94,716,213,715.32,207.72Z"/><path class="cls-4" d="M725.26,193.77a55.8,55.8,0,0,1,.45,7h6.75a25,25,0,0,0-1.28-7.92A40.11,40.11,0,0,1,725.26,193.77Z"/><path class="cls-4" d="M725.29,207.72c-.51-.05-1-.09-1.58-.12-1.1-.07-2.24-.11-3.4-.11-1.74,0-3.41.08-5,.23.66,5.24,2,9.22,3.76,10.53.4,0,.81,0,1.23,0s.81,0,1.21,0l0,0C723.24,216.92,724.63,213,725.29,207.72Z"/><path class="cls-4" d="M721.54,218.23l0,0a17.77,17.77,0,0,0,2.66-.41c3.1-1.54,5.64-4.87,7.06-9.17a40.55,40.55,0,0,0-6-.95C724.63,213,723.24,216.92,721.54,218.23Z"/><path class="cls-4" d="M725.71,200.87a54.3,54.3,0,0,1-.42,6.85,40.55,40.55,0,0,1,6,.95,25.17,25.17,0,0,0,1.22-7.84v-.09h-6.75Z"/><path class="cls-4" d="M715.36,193.77a40.54,40.54,0,0,1-5.93-.94,25.22,25.22,0,0,0-1.27,7.91h6.75A52.23,52.23,0,0,1,715.36,193.77Z"/><path class="cls-4" d="M720.31,194c-1.19,0-2.35,0-3.48-.1-.5,0-1-.07-1.47-.12a52.23,52.23,0,0,0-.45,7h10.8a55.8,55.8,0,0,0-.45-7l-1,.08C723,193.94,721.68,194,720.31,194Z"/><path class="cls-4" d="M714.91,200.87a54.38,54.38,0,0,0,.41,6.85c1.58-.15,3.25-.23,5-.23,1.16,0,2.3,0,3.4.11.54,0,1.07.07,1.58.12a54.3,54.3,0,0,0,.42-6.85v-.13h-10.8Z"/><path class="cls-4" d="M724.78,190.89h0c.19.9.35,1.87.48,2.88a40.11,40.11,0,0,0,5.92-1,19.37,19.37,0,0,0-.8-2c-1.61-3.52-4-6.14-6.89-7.28a17.54,17.54,0,0,0-2.43-.28,2.69,2.69,0,0,1,.29.16C722.78,184.3,724,187.06,724.78,190.89Z"/><path class="cls-4" d="M715.91,190.54c-.22,1-.4,2.09-.55,3.23.48,0,1,.08,1.47.12,1.13.06,2.29.1,3.48.1,1.37,0,2.71-.05,4-.14l1-.08c-.13-1-.29-2-.48-2.88-.78-3.83-2-6.59-3.43-7.52a2.69,2.69,0,0,0-.29-.16l-.75,0-.77,0C718.05,183.92,716.75,186.65,715.91,190.54Z"/><path class="cls-4" d="M715.91,190.54c.84-3.89,2.14-6.62,3.63-7.33a19,19,0,0,0-2.4.27,13.46,13.46,0,0,0-6.73,6.94,21.66,21.66,0,0,0-1,2.41,40.54,40.54,0,0,0,5.93.94C715.51,192.63,715.69,191.55,715.91,190.54Z"/><path class="cls-4" d="M716.41,217.85c-3.09-1.54-5.62-4.88-7-9.17a21.42,21.42,0,0,0-3.36,1.09l-.59.27A17.53,17.53,0,0,0,716.41,217.85Z"/><path class="cls-4" d="M732.46,200.74v.09a25.17,25.17,0,0,1-1.22,7.84,21.3,21.3,0,0,1,3.62,1.2h0l.33.16a17.39,17.39,0,0,0,2.67-9.29Z"/><path class="cls-4" d="M731.24,208.67c-1.42,4.3-4,7.63-7.06,9.17l.12,0A17.57,17.57,0,0,0,735.19,210l-.33-.16A21.3,21.3,0,0,0,731.24,208.67Z"/><path class="cls-4" d="M723.71,183.53l-.22,0c2.85,1.14,5.28,3.76,6.89,7.28h0a19.37,19.37,0,0,1,.8,2,20.18,20.18,0,0,0,4-1.37c-.11-.18-.23-.35-.34-.52A17.58,17.58,0,0,0,723.71,183.53Z"/><path class="cls-4" d="M732.46,200.74h5.4a17.5,17.5,0,0,0-2.66-9.29,20.18,20.18,0,0,1-4,1.37A25,25,0,0,1,732.46,200.74Z"/><path class="cls-4" d="M709.43,192.83a20.18,20.18,0,0,1-4-1.37,17.39,17.39,0,0,0-2.68,9.28h5.41A25.22,25.22,0,0,1,709.43,192.83Z"/><path class="cls-4" d="M709.37,208.68a25.28,25.28,0,0,1-1.21-7.85v-.09h-5.41a17.43,17.43,0,0,0,2.67,9.3l.59-.27A21.42,21.42,0,0,1,709.37,208.68Z"/><path class="cls-4" d="M710.41,190.42a13.46,13.46,0,0,1,6.73-6.94,17.56,17.56,0,0,0-11.13,7.1c-.2.29-.39.58-.58.88a20.18,20.18,0,0,0,4,1.37A21.66,21.66,0,0,1,710.41,190.42Z"/><path class="cls-4" d="M728.41,299.58H701.75a6.75,6.75,0,0,1,0-13.5h0a10,10,0,0,1,14.09-9.14,11.66,11.66,0,0,1,22.6,4.12,11.89,11.89,0,0,1-.41,3.06,8.43,8.43,0,0,1-4.6,15.46h-1.66"/><path class="cls-4" d="M728.41,378.38H701.75a6.75,6.75,0,0,1,0-13.49h0a10,10,0,0,1,10-10,9.8,9.8,0,0,1,4.11.9,11.66,11.66,0,0,1,22.6,4.11,11.83,11.83,0,0,1-.41,3.06,8.43,8.43,0,0,1-4.6,15.46h-1.66"/><path class="cls-4" d="M310.44,127.27h-5.3a3.11,3.11,0,0,1-2.64-1.77L299,117.56a3.1,3.1,0,0,0-2.64-1.77l-5.3,0"/><path class="cls-4" d="M299.85,123.72l-.89,1.76a3.12,3.12,0,0,1-2.65,1.75l-5.3,0"/><path class="cls-4" d="M310.48,115.83h-5.3a3.11,3.11,0,0,0-2.66,1.75l-.89,1.76"/><polyline class="cls-4" points="310.49 113.19 313.13 115.84 310.47 118.47"/><polyline class="cls-4" points="310.65 124.37 313.09 126.83 310.63 129.26"/><polyline class="cls-4" points="291.06 113.13 288.4 115.76 291.04 118.41"/><polyline class="cls-4" points="291.02 124.57 288.36 127.2 291 129.85"/><circle class="cls-5" cx="300.74" cy="121.49" r="17.82"/><path d="M274.43,148a3.5,3.5,0,0,1,2.85,1.37l-.72.45a2.74,2.74,0,0,0-2.13-1,3,3,0,0,0,0,6,2.86,2.86,0,0,0,2-.8V152.5h-2.52v-.82h3.43v2.66a3.84,3.84,0,0,1-2.88,1.26,3.8,3.8,0,0,1,0-7.6Z"/><path d="M282.38,148a3.49,3.49,0,0,1,2.85,1.37l-.72.45a2.71,2.71,0,0,0-2.13-1,3,3,0,1,0,2,5.18V152.5h-2.52v-.82h3.44v2.66a3.86,3.86,0,0,1-2.89,1.26,3.8,3.8,0,0,1,0-7.6Z"/><path d="M287,153.73a3.12,3.12,0,0,0,2.31,1.05c1.31,0,1.73-.71,1.73-1.27,0-.88-.89-1.12-1.86-1.39-1.18-.3-2.49-.63-2.49-2.08,0-1.21,1.08-2,2.52-2a3.46,3.46,0,0,1,2.61,1l-.55.67a2.82,2.82,0,0,0-2.12-.88c-.88,0-1.51.48-1.51,1.17s.85,1,1.78,1.21c1.2.32,2.56.69,2.56,2.23,0,1.07-.72,2.16-2.7,2.16a3.62,3.62,0,0,1-2.82-1.17Z"/><path d="M294.33,149.54v5.92h-.91v-7.34h.93l4.23,5.8v-5.8h.91v7.34h-.88Z"/><path d="M303.06,147.9h.65l-2.6,7.78h-.65Z"/><path d="M304.68,148.12h2.95a2.21,2.21,0,1,1,0,4.42h-2v2.92h-.91Zm2.84.81h-1.93v2.8h1.93a1.4,1.4,0,1,0,0-2.8Z"/><path d="M314.72,148a3.49,3.49,0,0,1,2.85,1.37l-.72.45a2.71,2.71,0,0,0-2.13-1,3,3,0,1,0,2,5.18V152.5h-2.52v-.82h3.44v2.66a3.86,3.86,0,0,1-2.89,1.26,3.8,3.8,0,0,1,0-7.6Z"/><path d="M323.16,149.54l-1.62,5.92h-1l-2.09-7.34h1l1.62,6.12,1.69-6.12h.76l1.68,6.12,1.62-6.12h1l-2.09,7.34h-1Z"/><path d="M330.74,147.9h.65l-2.61,7.78h-.65Z"/><path d="M291.39,159.12h.91v4.47a2.08,2.08,0,1,0,4.16,0v-4.47h.91v4.48a3,3,0,0,1-6,0Z"/><path d="M299.2,159.12h2.95a2.21,2.21,0,1,1,0,4.42h-2v2.92h-.91Zm2.84.81h-1.93v2.8H302a1.4,1.4,0,1,0,0-2.8Z"/><path d="M305.77,159.12h4.8v.81h-3.89v2.37h3.82v.81h-3.82v3.35h-.91Z"/><path class="cls-9" d="M200.24,52.31h1.84a2.34,2.34,0,1,1,0,4.67h-1.84Zm1.84,3.8a1.4,1.4,0,0,0,1.47-1.46,1.37,1.37,0,0,0-1.47-1.47h-.84v2.93Z"/><path class="cls-9" d="M205.79,57.56a.46.46,0,0,0,.47-.24l.12-.29L205,53.6h1l.89,2.35.88-2.35h1l-1.59,3.93a1.22,1.22,0,0,1-1.28.82,2.2,2.2,0,0,1-.44-.05l.13-.79A.92.92,0,0,0,205.79,57.56Z"/><path class="cls-9" d="M211.59,54.94c0-.47-.24-.63-.62-.63a1,1,0,0,0-.77.39V57h-.89V53.6h.89V54a1.55,1.55,0,0,1,1.18-.53,1,1,0,0,1,1.1,1.08V57h-.89Z"/><path class="cls-9" d="M215.57,56.63a1.41,1.41,0,0,1-1.07.43,1.13,1.13,0,0,1-1.18-1.12,1.07,1.07,0,0,1,1.18-1.07,1.36,1.36,0,0,1,1.07.41v-.47c0-.34-.29-.57-.74-.57a1.47,1.47,0,0,0-1,.4l-.33-.59a2.18,2.18,0,0,1,1.47-.54c.78,0,1.48.31,1.48,1.29V57h-.89Zm0-.88a.86.86,0,0,0-.71-.3c-.35,0-.64.19-.64.52s.29.49.64.49a.88.88,0,0,0,.71-.29Z"/><path class="cls-9" d="M221.71,54.84a.46.46,0,0,0-.51-.53.92.92,0,0,0-.7.39V57h-.9V54.84c0-.31-.14-.53-.5-.53a.92.92,0,0,0-.7.39V57h-.89V53.6h.89V54a1.5,1.5,0,0,1,1.11-.53.9.9,0,0,1,.94.62,1.42,1.42,0,0,1,1.16-.62.9.9,0,0,1,1,1V57h-.89Z"/><path class="cls-9" d="M223.56,52.63a.53.53,0,0,1,.53-.53.53.53,0,0,1,.53.53.52.52,0,0,1-.53.53A.53.53,0,0,1,223.56,52.63Zm.09,1h.89V57h-.89Z"/><path class="cls-9" d="M227.16,53.51a1.61,1.61,0,0,1,1.34.61l-.58.55a.82.82,0,0,0-.72-.36,1,1,0,0,0,0,2,.87.87,0,0,0,.72-.36l.58.54a1.59,1.59,0,0,1-1.34.61,1.78,1.78,0,1,1,0-3.55Z"/><path class="cls-9" d="M185.11,62.57a2.06,2.06,0,0,0,1.48.63c.55,0,.81-.26.81-.53s-.4-.47-.94-.59c-.76-.18-1.74-.39-1.74-1.43,0-.78.67-1.41,1.77-1.41a2.58,2.58,0,0,1,1.82.65l-.55.73a2,2,0,0,0-1.34-.51c-.45,0-.69.19-.69.47s.39.42.93.54c.77.18,1.75.41,1.75,1.45,0,.85-.61,1.49-1.87,1.49a2.66,2.66,0,0,1-2-.74Z"/><path class="cls-9" d="M189.27,65.27V60.6h.89V61a1.32,1.32,0,0,1,1.05-.52c.87,0,1.5.65,1.5,1.78s-.63,1.77-1.5,1.77a1.3,1.3,0,0,1-1.05-.51v1.72Zm1.66-4a1,1,0,0,0-.77.38v1.2a1,1,0,0,0,.77.38,1,1,0,0,0,0-2Z"/><path class="cls-9" d="M195.11,60.51a1.7,1.7,0,0,1,1.7,1.87v.19H194.3a.9.9,0,0,0,1,.79,1.37,1.37,0,0,0,.9-.34l.39.58a2.12,2.12,0,0,1-1.39.46,1.71,1.71,0,0,1-1.81-1.77A1.73,1.73,0,0,1,195.11,60.51ZM194.28,62H196a.79.79,0,0,0-.84-.75A.81.81,0,0,0,194.28,62Z"/><path class="cls-9" d="M199.24,60.51a1.61,1.61,0,0,1,1.34.61l-.58.55a.82.82,0,0,0-.72-.36,1,1,0,0,0,0,2,.87.87,0,0,0,.72-.36l.58.54a1.59,1.59,0,0,1-1.34.61,1.78,1.78,0,1,1,0-3.55Z"/><path class="cls-9" d="M201.65,63.14V61.38h-.56V60.6h.56v-.93h.9v.93h.68v.78h-.68V62.9c0,.21.11.37.3.37a.47.47,0,0,0,.31-.1l.19.68a1.09,1.09,0,0,1-.74.21A.85.85,0,0,1,201.65,63.14Z"/><path class="cls-9" d="M204.07,60.6H205v.46a1.46,1.46,0,0,1,1.08-.54v.87a1.42,1.42,0,0,0-.24,0,1.14,1.14,0,0,0-.84.39V64h-.89Z"/><path class="cls-9" d="M209,63.55a1.58,1.58,0,0,1-1.19.51,1,1,0,0,1-1.1-1.06V60.6h.89v2c0,.47.25.62.63.62a1,1,0,0,0,.77-.38V60.6h.89V64H209Z"/><path class="cls-9" d="M215.16,61.84c0-.31-.14-.53-.5-.53a.9.9,0,0,0-.7.39V64h-.9V61.84c0-.31-.14-.53-.5-.53a.92.92,0,0,0-.7.39V64H211V60.6h.89V61a1.5,1.5,0,0,1,1.11-.53.88.88,0,0,1,.93.62,1.45,1.45,0,0,1,1.17-.62.9.9,0,0,1,1,1V64h-.9Z"/><path class="cls-9" d="M219.11,62.57a2.06,2.06,0,0,0,1.49.63c.54,0,.81-.26.81-.53s-.41-.47-.95-.59c-.76-.18-1.74-.39-1.74-1.43,0-.78.67-1.41,1.77-1.41a2.58,2.58,0,0,1,1.82.65l-.55.73a2,2,0,0,0-1.34-.51c-.45,0-.69.19-.69.47s.4.42.94.54c.77.18,1.75.41,1.75,1.45,0,.85-.61,1.49-1.87,1.49a2.68,2.68,0,0,1-2-.74Z"/><path class="cls-9" d="M225.57,61.92c0-.47-.25-.61-.63-.61a1,1,0,0,0-.77.39V64h-.89V59.31h.89V61a1.54,1.54,0,0,1,1.19-.53,1,1,0,0,1,1.1,1.07V64h-.89Z"/><path class="cls-9" d="M229.55,63.63a1.41,1.41,0,0,1-1.07.43,1.13,1.13,0,0,1-1.18-1.12,1.07,1.07,0,0,1,1.18-1.07,1.39,1.39,0,0,1,1.07.41v-.47c0-.34-.3-.57-.75-.57a1.43,1.43,0,0,0-1,.4l-.34-.59a2.2,2.2,0,0,1,1.48-.54c.77,0,1.48.31,1.48,1.29V64h-.89Zm0-.88a.89.89,0,0,0-.72-.3c-.35,0-.63.19-.63.52s.28.49.63.49a.92.92,0,0,0,.72-.29Z"/><path class="cls-9" d="M231.48,60.6h.89v.46a1.46,1.46,0,0,1,1.08-.54v.87a1.29,1.29,0,0,0-.24,0,1.14,1.14,0,0,0-.84.39V64h-.89Z"/><path class="cls-9" d="M234.06,59.63a.54.54,0,0,1,1.07,0,.54.54,0,0,1-1.07,0Zm.09,1H235V64h-.89Z"/><path class="cls-9" d="M238.38,61.94c0-.47-.24-.63-.62-.63a1,1,0,0,0-.77.39V64h-.89V60.6H237V61a1.53,1.53,0,0,1,1.18-.53,1,1,0,0,1,1.1,1.08V64h-.89Z"/><path class="cls-9" d="M240.67,64.2a1.32,1.32,0,0,0,1.06.43.83.83,0,0,0,.93-.86v-.34a1.34,1.34,0,0,1-1,.53,1.74,1.74,0,0,1,0-3.45,1.32,1.32,0,0,1,1,.52V60.6h.89v3.15c0,1.29-1,1.6-1.82,1.6a2.07,2.07,0,0,1-1.46-.5Zm2-2.51a1,1,0,0,0-.76-.38.93.93,0,0,0,0,1.86,1,1,0,0,0,.76-.39Z"/><line class="cls-10" x1="192.61" y1="69.53" x2="234.24" y2="69.53"/><line class="cls-10" x1="213.43" y1="75.22" x2="213.43" y2="69.53"/><path class="cls-9" d="M563.92,339.18h1.84a2.34,2.34,0,1,1,0,4.67h-1.84Zm1.84,3.79a1.39,1.39,0,0,0,1.46-1.45,1.37,1.37,0,0,0-1.46-1.47h-.85V343Z"/><path class="cls-9" d="M570.67,340.38a1.7,1.7,0,0,1,1.69,1.86v.2h-2.51a.9.9,0,0,0,1,.78,1.35,1.35,0,0,0,.9-.33l.4.57a2.11,2.11,0,0,1-1.4.47,1.78,1.78,0,1,1-.05-3.55Zm-.84,1.46h1.67a.79.79,0,0,0-.83-.75A.81.81,0,0,0,569.83,341.84Z"/><path class="cls-9" d="M573.28,342.78a1.93,1.93,0,0,0,1.17.46c.38,0,.56-.13.56-.34s-.29-.32-.68-.4c-.58-.11-1.33-.25-1.33-1.05,0-.57.5-1.07,1.39-1.07a2.23,2.23,0,0,1,1.37.46l-.36.61a1.45,1.45,0,0,0-1-.39c-.33,0-.54.12-.54.31s.27.29.65.37c.58.11,1.36.27,1.36,1.11,0,.61-.53,1.08-1.47,1.08a2.28,2.28,0,0,1-1.51-.52Z"/><path class="cls-9" d="M576.93,343v-1.77h-.56v-.78h.56v-.92h.9v.92h.68v.78h-.68v1.53c0,.21.11.37.3.37a.47.47,0,0,0,.31-.1l.19.67a1.08,1.08,0,0,1-.74.22A.85.85,0,0,1,576.93,343Z"/><path class="cls-9" d="M579.25,339.5a.54.54,0,1,1,.53.53A.54.54,0,0,1,579.25,339.5Zm.09,1h.89v3.39h-.89Z"/><path class="cls-9" d="M583.57,341.8a.55.55,0,0,0-.62-.63,1,1,0,0,0-.77.4v2.28h-.89v-3.39h.89v.45a1.53,1.53,0,0,1,1.18-.53,1,1,0,0,1,1.1,1.08v2.39h-.89Z"/><path class="cls-9" d="M587.55,343.5a1.41,1.41,0,0,1-1.07.43,1.13,1.13,0,0,1-1.18-1.12,1.08,1.08,0,0,1,1.18-1.08,1.35,1.35,0,0,1,1.07.42v-.47c0-.35-.3-.57-.74-.57a1.41,1.41,0,0,0-1,.4l-.34-.6a2.26,2.26,0,0,1,1.48-.53c.77,0,1.48.31,1.48,1.28v2.19h-.89Zm0-.89a.92.92,0,0,0-.72-.29c-.35,0-.63.18-.63.51s.28.5.63.5a.89.89,0,0,0,.72-.3Z"/><path class="cls-9" d="M589.66,343v-1.77h-.56v-.78h.56v-.92h.9v.92h.68v.78h-.68v1.53c0,.21.11.37.3.37a.47.47,0,0,0,.31-.1l.19.67a1.08,1.08,0,0,1-.74.22A.85.85,0,0,1,589.66,343Z"/><path class="cls-9" d="M592,339.5a.54.54,0,1,1,.53.53A.54.54,0,0,1,592,339.5Zm.09,1H593v3.39h-.89Z"/><path class="cls-9" d="M593.79,342.15a1.79,1.79,0,1,1,1.78,1.78A1.71,1.71,0,0,1,593.79,342.15Zm2.65,0a.87.87,0,1,0-.87,1A.89.89,0,0,0,596.44,342.15Z"/><path class="cls-9" d="M600.5,341.8c0-.47-.24-.63-.62-.63a1,1,0,0,0-.77.4v2.28h-.89v-3.39h.89v.45a1.53,1.53,0,0,1,1.18-.53,1,1,0,0,1,1.1,1.08v2.39h-.89Z"/><path class="cls-9" d="M602.32,341.77H604v.76h-1.68Z"/><path class="cls-9" d="M607,343.5a1.41,1.41,0,0,1-1.07.43,1.13,1.13,0,0,1-1.18-1.12,1.08,1.08,0,0,1,1.18-1.08,1.35,1.35,0,0,1,1.07.42v-.47c0-.35-.3-.57-.74-.57a1.41,1.41,0,0,0-1,.4l-.34-.6a2.26,2.26,0,0,1,1.48-.53c.77,0,1.48.31,1.48,1.28v2.19H607Zm0-.89a.92.92,0,0,0-.72-.29c-.35,0-.63.18-.63.51s.28.5.63.5a.89.89,0,0,0,.72-.3Z"/><path class="cls-9" d="M611.11,341.54l-.71,2.31h-.95l-1-3.39h.92l.63,2.28.75-2.28h.79l.74,2.28.63-2.28h.92l-1,3.39h-.94Z"/><path class="cls-9" d="M616.46,343.5a1.44,1.44,0,0,1-1.08.43,1.12,1.12,0,0,1-1.17-1.12,1.07,1.07,0,0,1,1.17-1.08,1.37,1.37,0,0,1,1.08.42v-.47c0-.35-.3-.57-.75-.57a1.38,1.38,0,0,0-1,.4l-.34-.6a2.22,2.22,0,0,1,1.48-.53c.77,0,1.48.31,1.48,1.28v2.19h-.89Zm0-.89a.92.92,0,0,0-.72-.29c-.35,0-.64.18-.64.51s.29.5.64.5a.89.89,0,0,0,.72-.3Z"/><path class="cls-9" d="M618.39,340.46h.89v.47a1.46,1.46,0,0,1,1.08-.54v.87a.83.83,0,0,0-.24,0,1.16,1.16,0,0,0-.84.38v2.24h-.89Z"/><path class="cls-9" d="M622.61,340.38a1.7,1.7,0,0,1,1.7,1.86v.2h-2.52a.91.91,0,0,0,1,.78,1.39,1.39,0,0,0,.9-.33l.39.57a2.07,2.07,0,0,1-1.39.47,1.78,1.78,0,1,1-.06-3.55Zm-.83,1.46h1.67a.79.79,0,0,0-.84-.75A.81.81,0,0,0,621.78,341.84Z"/><path class="cls-9" d="M582.13,348.52a2.37,2.37,0,0,1,2.45-2.42,2.15,2.15,0,0,1,2,1.14l-.85.42a1.29,1.29,0,0,0-1.14-.68,1.54,1.54,0,0,0,0,3.07,1.29,1.29,0,0,0,1.14-.68l.85.41a2.16,2.16,0,0,1-2,1.15A2.37,2.37,0,0,1,582.13,348.52Z"/><path class="cls-9" d="M589.56,346.1a2.17,2.17,0,0,1,1.93,1l-.82.45a1.34,1.34,0,0,0-1.11-.59,1.54,1.54,0,0,0,0,3.07,1.6,1.6,0,0,0,1-.36v-.57h-1.25v-.85h2.23v1.79a2.6,2.6,0,0,1-2,.88,2.42,2.42,0,1,1,0-4.84Z"/><path class="cls-9" d="M593.6,347.71v3.14h-1v-4.67h1l2.17,3v-3h1v4.67h-1Z"/><path class="cls-9" d="M600.91,350h-2.09l-.29.81h-1.09l1.8-4.67h1.25l1.8,4.67H601.2Zm-1.82-.86h1.55l-.77-2.14Z"/><path class="cls-9" d="M603.54,347.05h-1.37v-.87h3.73v.87h-1.36v3.8h-1Z"/><line class="cls-10" x1="614.02" y1="333.67" x2="572.38" y2="333.67"/><line class="cls-10" x1="593.2" y1="327.98" x2="593.2" y2="333.67"/><g id="laptop-2" data-name="laptop"><line class="cls-4" x1="69.2" y1="266.56" x2="75.2" y2="266.56"/><path class="cls-4" d="M94.68,266.51a2.72,2.72,0,0,1-1.49,2.3H51.38l-.18,0a2.63,2.63,0,0,1-1.52-2.26,2.59,2.59,0,0,1,1.52-2.24h42v-24h-42v21"/></g><g id="mobile-phone-2" data-name="mobile-phone"><path d="M14.53,250.93a.47.47,0,1,1,.47-.47A.47.47,0,0,1,14.53,250.93Z"/><path d="M14.53,249.5a1,1,0,1,0,1,1,1,1,0,0,0-1-1Z"/><line class="cls-4" x1="19.73" y1="282.63" x2="24.95" y2="282.63"/><path class="cls-4" d="M32.78,279.42v3.86a1.3,1.3,0,0,1-1.3,1.28H13.24a1.29,1.29,0,0,1-1.3-1.28V249.85a1.3,1.3,0,0,1,1.3-1.29H31.48a1.3,1.3,0,0,1,1.3,1.29v.67"/><rect class="cls-4" x="11.94" y="252.42" width="20.84" height="28.29" rx="1.29"/></g><g id="monitor-2" data-name="monitor"><polyline class="cls-4" points="85.04 314.62 85.04 316.23 40.04 316.23 40.04 311.41 85.04 311.41 85.04 285.69 40.04 285.69 40.04 308.19"/><line class="cls-4" x1="62.56" y1="316.39" x2="62.56" y2="319.44"/><line class="cls-4" x1="52.9" y1="319.44" x2="72.18" y2="319.44"/><circle cx="62.56" cy="313.82" r="1.01"/></g><polygon class="cls-7" points="106.12 242.66 106.12 331.12 0.5 331.12 0.5 213.38 106.12 213.38 106.12 229.36 106.12 242.66"/><rect x="7.03" y="204.42" width="92.55" height="18"/><path class="cls-8" d="M13.29,209.83h1.55v7.09H13.29Z"/><path class="cls-8" d="M20.29,211.77v.91a1.94,1.94,0,0,1-2.11,1.94h-.82v2.3H15.81v-7.09h2.36A2,2,0,0,1,20.29,211.77Zm-1.55-.07a.44.44,0,0,0-.46-.47h-.92v2h.91a.44.44,0,0,0,.47-.48Z"/><path class="cls-8" d="M25.17,211.83,24,216.92H22.09l-1.18-5.09h1.53l.65,3.44.55-3.44Z"/><path class="cls-8" d="M29.82,212.35v4.57H28.27v-1.48H25.62V214l1.18-4.21h1.63L27.24,214h1v-1.69Z"/><path class="cls-8" d="M38,214h-.6v1.07a1.83,1.83,0,0,1-1.86,1.87h-.75a1.81,1.81,0,0,1-1.86-1.81v-.63a1.83,1.83,0,0,1,.41-1.17,1.73,1.73,0,0,1-.41-1.14v-.52a1.82,1.82,0,0,1,1.86-1.82h1.48v1.35H34.75c-.18,0-.31.16-.31.4v.66c0,.24.13.4.31.4h1.07v-.81h1.55v.81H38Zm-2.15,0H34.75c-.18,0-.31.17-.31.43v.77a.35.35,0,0,0,.32.39h.75c.19,0,.31-.16.31-.39Z"/><path class="cls-8" d="M40.69,209.83h1.54v7.09H40.69Z"/><path class="cls-8" d="M47.69,211.77v.91a1.94,1.94,0,0,1-2.11,1.94h-.82v2.3H43.21v-7.09h2.36A2,2,0,0,1,47.69,211.77Zm-1.55-.07a.44.44,0,0,0-.46-.47h-.92v2h.91a.44.44,0,0,0,.47-.48Z"/><path class="cls-8" d="M52.57,211.83l-1.19,5.09H49.49l-1.18-5.09h1.53l.65,3.44.55-3.44Z"/><path class="cls-8" d="M57.61,214.22v.9a2,2,0,0,1-2.17,1.95,2,2,0,0,1-2.17-2V211.7a2.16,2.16,0,0,1,4.32,0H56.05a.59.59,0,0,0-.61-.67.58.58,0,0,0-.62.65v.95a2,2,0,0,1,.89-.23A1.77,1.77,0,0,1,57.61,214.22Zm-1.55-.15c0-.3-.23-.48-.61-.48s-.63.2-.63.5v1.1c0,.33.24.52.63.52s.61-.19.61-.52Z"/><path class="cls-8" d="M65.2,211.85v3.05a2.05,2.05,0,0,1-2.27,2h-2.3v-7.09h2.29A2.06,2.06,0,0,1,65.2,211.85Zm-1.55,0a.57.57,0,0,0-.62-.6h-.85v4.3H63a.58.58,0,0,0,.63-.6Z"/><path class="cls-8" d="M67.67,211.23v1.55h1.72v1.4H67.67v1.35h2.12v1.39H66.12v-7.09h3.67v1.4Z"/><path class="cls-8" d="M75.49,209.83,74,216.92H72l-1.49-7.09H72l1,4.87,1-4.87Z"/><path class="cls-8" d="M76.29,209.83h1.55v7.09H76.29Z"/><path class="cls-8" d="M78.76,215.05V211.7a2.37,2.37,0,0,1,4.69,0v.89H81.88v-.91c0-.36-.26-.6-.77-.6s-.8.24-.8.6v3.39c0,.37.27.6.79.6s.78-.23.78-.6v-.9h1.57v.88a2.37,2.37,0,0,1-4.69,0Z"/><path class="cls-8" d="M85.89,211.23v1.55h1.72v1.4H85.89v1.35H88v1.39H84.34v-7.09H88v1.4Z"/><path class="cls-8" d="M88.77,214.83v-.29h1.55V215a.73.73,0,0,0,.83.72.68.68,0,0,0,.72-.68c0-1.27-3-1-3-3.27a2,2,0,0,1,2.22-2.08,1.94,1.94,0,0,1,2.21,2v.44H91.78v-.54c0-.31-.3-.49-.67-.49a.59.59,0,0,0-.65.6c0,1,3,.79,3,3.2a2.1,2.1,0,0,1-2.31,2.19A2.15,2.15,0,0,1,88.77,214.83Z"/><circle class="cls-5" cx="656.36" cy="160.31" r="19.5"/><line class="cls-4" x1="671.71" y1="160.31" x2="658.33" y2="160.31"/><polyline class="cls-4" points="663.8 165.87 658.23 160.31 663.8 154.74"/><line class="cls-4" x1="641" y1="160.31" x2="654.38" y2="160.31"/><polyline class="cls-4" points="648.92 165.87 654.49 160.31 648.92 154.74"/><line class="cls-4" x1="656.36" y1="162.54" x2="656.36" y2="175.92"/><polyline class="cls-4" points="661.92 170.46 656.36 176.02 650.79 170.46"/><line class="cls-4" x1="656.36" y1="158.07" x2="656.36" y2="144.69"/><polyline class="cls-4" points="661.92 150.16 656.36 144.59 650.79 150.16"/><path d="M710.37,308.83h.91v7.34h-.91Z"/><path d="M713.11,308.83h2.94a2.22,2.22,0,1,1,0,4.43h-2v2.91h-.91Zm2.83.82H714v2.79h1.92a1.4,1.4,0,1,0,0-2.79Z"/><path d="M718.85,310.86h.89l1.77,4.36,1.76-4.36h.9L722,316.17h-.9Z"/><path d="M728.15,314.31h-3.48v-.76l3.14-4.72h1.26v4.68h1v.8h-1v1.86h-.92Zm-2.57-.8h2.57v-3.83Z"/><path d="M695.24,325.54h-3.72l-.65,1.63h-1l2.95-7.34h1.13l3,7.34h-1Zm-3.46-.81H695l-1.58-4.08Z"/><path d="M697.93,329.2v-7.34h.83v.79a2.2,2.2,0,0,1,1.79-.92c1.4,0,2.36,1,2.36,2.78s-1,2.79-2.36,2.79a2.17,2.17,0,0,1-1.79-.93v2.83Zm2.41-6.74a2,2,0,0,0-1.58.85v2.4a2,2,0,0,0,1.58.86c1.07,0,1.71-.88,1.71-2.06S701.41,322.46,700.34,322.46Z"/><path d="M704.36,329.2v-7.34h.82v.79a2.23,2.23,0,0,1,1.79-.92c1.4,0,2.37,1,2.37,2.78s-1,2.79-2.37,2.79a2.19,2.19,0,0,1-1.79-.93v2.83Zm2.41-6.74a2,2,0,0,0-1.59.85v2.4a2,2,0,0,0,1.59.86c1.06,0,1.7-.88,1.7-2.06S707.83,322.46,706.77,322.46Z"/><path d="M710.78,319.83h.83v7.34h-.83Z"/><path d="M713.22,320.41a.56.56,0,0,1,1.11,0,.56.56,0,1,1-1.11,0Zm.14,1.45h.83v5.31h-.83Z"/><path d="M718.29,321.73a2.27,2.27,0,0,1,2,.92l-.55.51a1.56,1.56,0,0,0-1.35-.7,2.07,2.07,0,0,0,0,4.11,1.58,1.58,0,0,0,1.35-.7l.55.51a2.27,2.27,0,0,1-2,.92,2.79,2.79,0,0,1,0-5.57Z"/><path d="M724.83,326.57a2.31,2.31,0,0,1-1.76.73,1.76,1.76,0,0,1-1.86-1.76,1.74,1.74,0,0,1,1.86-1.75,2.25,2.25,0,0,1,1.76.73v-1c0-.71-.57-1.12-1.35-1.12a2.09,2.09,0,0,0-1.62.74l-.39-.57a2.77,2.77,0,0,1,2.13-.88c1.12,0,2,.5,2,1.79v3.65h-.82Zm0-1.52a1.79,1.79,0,0,0-1.47-.66,1.17,1.17,0,1,0,0,2.32,1.79,1.79,0,0,0,1.47-.66Z"/><path d="M727.58,326.06v-3.48h-.88v-.72h.88v-1.45h.82v1.45h1.08v.72H728.4v3.31c0,.39.18.68.54.68a.8.8,0,0,0,.56-.22l.24.61a1.33,1.33,0,0,1-1,.34A1.08,1.08,0,0,1,727.58,326.06Z"/><path d="M730.61,320.41a.56.56,0,0,1,1.11,0,.56.56,0,1,1-1.11,0Zm.15,1.45h.82v5.31h-.82Z"/><path d="M733,324.51c-.19-3.62,5.45-3.62,5.26,0C738.48,328.15,732.84,328.15,733,324.51Zm4.39,0a1.78,1.78,0,1,0-3.53,0A1.78,1.78,0,1,0,737.42,324.51Z"/><path d="M743.33,323.7c0-.94-.47-1.24-1.19-1.24a2,2,0,0,0-1.57.83v3.88h-.83v-5.31h.83v.77a2.63,2.63,0,0,1,1.89-.9,1.51,1.51,0,0,1,1.69,1.71v3.73h-.82Z"/><path d="M745.88,325.87a2.39,2.39,0,0,0,1.75.76c.81,0,1.25-.36,1.25-.88s-.65-.77-1.36-.94c-.9-.21-1.93-.45-1.93-1.55,0-.83.72-1.53,2-1.53a2.68,2.68,0,0,1,2,.77l-.38.57a2.05,2.05,0,0,0-1.59-.67c-.72,0-1.17.33-1.17.8s.6.68,1.3.85c.92.21,2,.47,2,1.65,0,.89-.72,1.6-2.09,1.6a2.84,2.84,0,0,1-2.15-.83Z"/><path d="M710.19,387.75h.91v7.33h-.91Z"/><path d="M712.92,387.75h3a2.21,2.21,0,1,1,0,4.42h-2v2.91h-.92Zm2.84.81h-1.92v2.79h1.92a1.4,1.4,0,1,0,0-2.79Z"/><path d="M718.67,389.77h.89l1.77,4.36,1.76-4.36h.9l-2.21,5.31h-.9Z"/><path d="M727.68,387.64a2.54,2.54,0,0,1,2,.88l-.46.68a1.88,1.88,0,0,0-1.57-.75c-1.42,0-2.07,1.44-2.07,2.88a2.81,2.81,0,0,0,0,.29,2.63,2.63,0,0,1,2.08-1.15,2.23,2.23,0,0,1,2.4,2.35,2.42,2.42,0,0,1-2.58,2.4c-2,0-2.82-1.8-2.82-3.79S725.62,387.64,727.68,387.64Zm-.2,3.63a2.26,2.26,0,0,0-1.84,1.1c.09.91.57,2,1.85,2a1.59,1.59,0,0,0,1.68-1.55A1.51,1.51,0,0,0,727.48,391.27Z"/><path d="M695.24,404.46h-3.72l-.65,1.62h-1l2.95-7.33h1.13l3,7.33h-1Zm-3.46-.82H695l-1.58-4.08Z"/><path d="M697.93,408.11v-7.34h.83v.79a2.2,2.2,0,0,1,1.79-.92c1.4,0,2.36,1.05,2.36,2.78s-1,2.8-2.36,2.8a2.18,2.18,0,0,1-1.79-.94v2.83Zm2.41-6.74a2,2,0,0,0-1.58.85v2.4a2,2,0,0,0,1.58.86c1.07,0,1.71-.88,1.71-2.06S701.41,401.37,700.34,401.37Z"/><path d="M704.36,408.11v-7.34h.82v.79a2.23,2.23,0,0,1,1.79-.92c1.4,0,2.37,1.05,2.37,2.78s-1,2.8-2.37,2.8a2.2,2.2,0,0,1-1.79-.94v2.83Zm2.41-6.74a2,2,0,0,0-1.59.85v2.4a2,2,0,0,0,1.59.86c1.06,0,1.7-.88,1.7-2.06S707.83,401.37,706.77,401.37Z"/><path d="M710.78,398.75h.83v7.33h-.83Z"/><path d="M713.22,399.32a.56.56,0,0,1,1.11,0,.56.56,0,1,1-1.11,0Zm.14,1.45h.83v5.31h-.83Z"/><path d="M718.29,400.64a2.27,2.27,0,0,1,2,.92l-.55.51a1.56,1.56,0,0,0-1.35-.7,2.07,2.07,0,0,0,0,4.11,1.6,1.6,0,0,0,1.35-.69l.55.5a2.28,2.28,0,0,1-2,.93,2.79,2.79,0,0,1,0-5.58Z"/><path d="M724.83,405.48a2.32,2.32,0,0,1-1.76.74,1.77,1.77,0,0,1-1.86-1.76,1.74,1.74,0,0,1,1.86-1.75,2.24,2.24,0,0,1,1.76.72v-.95c0-.72-.57-1.13-1.35-1.13a2.09,2.09,0,0,0-1.62.74l-.39-.57a2.77,2.77,0,0,1,2.13-.88c1.12,0,2,.5,2,1.79v3.65h-.82Zm0-1.52a1.79,1.79,0,0,0-1.47-.66,1.17,1.17,0,1,0,0,2.32,1.79,1.79,0,0,0,1.47-.66Z"/><path d="M727.58,405V401.5h-.88v-.73h.88v-1.45h.82v1.45h1.08v.73H728.4v3.3c0,.39.18.68.54.68a.8.8,0,0,0,.56-.22l.24.61a1.33,1.33,0,0,1-1,.35C728,406.22,727.58,405.76,727.58,405Z"/><path d="M730.61,399.32a.56.56,0,0,1,1.11,0,.56.56,0,1,1-1.11,0Zm.15,1.45h.82v5.31h-.82Z"/><path d="M733,403.42c-.19-3.62,5.45-3.62,5.26,0C738.48,407.06,732.84,407.06,733,403.42Zm4.39,0a1.78,1.78,0,1,0-3.53,0A1.78,1.78,0,1,0,737.42,403.42Z"/><path d="M743.33,402.61c0-.94-.47-1.24-1.19-1.24a2,2,0,0,0-1.57.83v3.88h-.83v-5.31h.83v.77a2.63,2.63,0,0,1,1.89-.9,1.51,1.51,0,0,1,1.69,1.71v3.73h-.82Z"/><path d="M745.88,404.79a2.42,2.42,0,0,0,1.75.75c.81,0,1.25-.36,1.25-.88s-.65-.77-1.36-.94c-.9-.21-1.93-.45-1.93-1.55,0-.83.72-1.53,2-1.53a2.68,2.68,0,0,1,2,.77l-.38.57a2.09,2.09,0,0,0-1.59-.67c-.72,0-1.17.33-1.17.8s.6.68,1.3.85c.92.21,2,.47,2,1.65,0,.89-.72,1.61-2.09,1.61a2.85,2.85,0,0,1-2.15-.84Z"/><circle class="cls-5" cx="656.36" cy="320.73" r="19.5"/><line class="cls-4" x1="671.71" y1="320.73" x2="658.33" y2="320.73"/><polyline class="cls-4" points="663.8 326.29 658.23 320.73 663.8 315.16"/><line class="cls-4" x1="641" y1="320.73" x2="654.38" y2="320.73"/><polyline class="cls-4" points="648.92 326.29 654.49 320.73 648.92 315.16"/><line class="cls-4" x1="656.36" y1="322.96" x2="656.36" y2="336.34"/><polyline class="cls-4" points="661.92 330.87 656.36 336.44 650.79 330.87"/><line class="cls-4" x1="656.36" y1="318.49" x2="656.36" y2="305.11"/><polyline class="cls-4" points="661.92 310.58 656.36 305.01 650.79 310.58"/><path class="cls-4" d="M150.2,147.72l-1.47-2a4.14,4.14,0,0,1,.08-5.16l1.39-1.83"/><path class="cls-4" d="M147.23,150.1l-3.2-4.41a4.14,4.14,0,0,1,.08-5.16l3.12-4.09"/><path class="cls-4" d="M143.63,151.89,139,145.54a4.16,4.16,0,0,1,.07-5.17l4.54-5.93"/><path class="cls-4" d="M163,138.61l1.47,2a4.15,4.15,0,0,1-.07,5.16l-1.4,1.83"/><path class="cls-4" d="M165.92,136.23l3.2,4.41a4.15,4.15,0,0,1-.07,5.16l-3.13,4.08"/><path class="cls-4" d="M169.53,134.44l4.61,6.35a4.15,4.15,0,0,1-.08,5.17l-4.53,5.93"/><path class="cls-4" d="M166.69,175.14l-7.94-28.3a4.26,4.26,0,1,0-4.35,0l-7.94,28.3H163.8"/><line class="cls-4" x1="150.8" y1="169.37" x2="162.36" y2="169.37"/><line class="cls-4" x1="152.24" y1="163.51" x2="160.91" y2="163.51"/><line class="cls-4" x1="153.69" y1="157.7" x2="159.47" y2="157.7"/><polygon class="cls-11" points="750.97 64.39 750.97 9 597.24 9 597.24 78.07 750.97 78.07 750.97 69.69 750.97 64.39"/><rect x="649.56" width="49.09" height="18"/><path class="cls-8" d="M660.89,11.1v1.4H657.2V5.4h1.55v5.7Z"/><path class="cls-8" d="M661.62,10.63V7.27a2.39,2.39,0,0,1,4.72,0v3.36a2.39,2.39,0,0,1-4.72,0Zm3.17,0V7.25c0-.36-.24-.6-.8-.6s-.82.24-.82.6v3.4c0,.36.24.6.81.6S664.79,11,664.79,10.65Z"/><path class="cls-8" d="M670.34,8V7.25c0-.36-.33-.6-.79-.6s-.8.24-.8.6v3.4c0,.36.34.6.79.6s.8-.24.8-.6v-.6h-.81V8.65h2.36v2a2.37,2.37,0,0,1-4.69,0V7.27a2.37,2.37,0,0,1,4.69,0V8Z"/><path class="cls-8" d="M675.89,8V7.25c0-.36-.33-.6-.79-.6s-.8.24-.8.6v3.4c0,.36.34.6.79.6s.8-.24.8-.6v-.6h-.81V8.65h2.36v2a2.37,2.37,0,0,1-4.69,0V7.27a2.37,2.37,0,0,1,4.69,0V8Z"/><path class="cls-8" d="M678.37,5.4h1.55v7.1h-1.55Z"/><path class="cls-8" d="M685.45,5.4v7.1h-1.36l-1.85-4v4H680.9V5.4h1.34l1.85,4.06V5.4Z"/><path class="cls-8" d="M689.52,8V7.25c0-.36-.33-.6-.79-.6s-.8.24-.8.6v3.4c0,.36.34.6.79.6s.8-.24.8-.6v-.6h-.81V8.65h2.36v2a2.37,2.37,0,0,1-4.69,0V7.27a2.37,2.37,0,0,1,4.69,0V8Z"/><path class="cls-4" d="M735.45,54v4.42c0,3.83-6.34,6.94-14.77,6.94s-14.93-3.11-14.93-6.94V49.6c0,1.68,1.31,3.22,3.49,4.42a23.94,23.94,0,0,0,11.44,2.52A23.25,23.25,0,0,0,732,54c2.18-1.2,3.49-2.74,3.49-4.42V44.55a3.88,3.88,0,0,1-1.05,2.52c-2.22,2.59-7.25,4.42-13.72,4.42S709,49.66,706.8,47.07a3.88,3.88,0,0,1-1-2.52V37c0,1.4.91,2.7,2.48,3.79a17.73,17.73,0,0,0,6.43,2.53,28.3,28.3,0,0,0,6,.63,26.79,26.79,0,0,0,5.86-.63A17.73,17.73,0,0,0,733,40.76c1.57-1.09,2.48-2.39,2.48-3.79,0-3.83-6.34-6.94-14.77-6.94-6.47,0-11.66,1.83-13.88,4.41"/><path class="cls-4" d="M642.45,54v4.42c0,3.83-6.33,6.94-14.76,6.94s-14.93-3.11-14.93-6.94V49.6c0,1.68,1.31,3.22,3.49,4.42a23.91,23.91,0,0,0,11.44,2.52A23.21,23.21,0,0,0,639,54c2.18-1.2,3.49-2.74,3.49-4.42V44.55a3.86,3.86,0,0,1-1,2.52c-2.22,2.59-7.25,4.42-13.72,4.42S616,49.66,613.81,47.07a3.83,3.83,0,0,1-1-2.52V37c0,1.4.91,2.7,2.47,3.79a17.71,17.71,0,0,0,6.44,2.53,28.23,28.23,0,0,0,6,.63,26.63,26.63,0,0,0,5.85-.63A17.71,17.71,0,0,0,640,40.76c1.56-1.09,2.47-2.39,2.47-3.79,0-3.83-6.33-6.94-14.76-6.94-6.47,0-11.66,1.83-13.88,4.41"/><path class="cls-4" d="M689,54v4.42c0,3.83-6.33,6.94-14.77,6.94s-14.92-3.11-14.92-6.94V49.6c0,1.68,1.31,3.22,3.49,4.42a23.89,23.89,0,0,0,11.43,2.52A23.25,23.25,0,0,0,685.46,54c2.18-1.2,3.49-2.74,3.49-4.42V44.55a3.83,3.83,0,0,1-1.05,2.52c-2.22,2.59-7.24,4.42-13.72,4.42s-11.66-1.83-13.88-4.42a3.86,3.86,0,0,1-1-2.52V37c0,1.4.91,2.7,2.47,3.79a17.71,17.71,0,0,0,6.44,2.53,28.14,28.14,0,0,0,6,.63,26.79,26.79,0,0,0,5.86-.63,17.71,17.71,0,0,0,6.44-2.53C688,39.67,689,38.37,689,37c0-3.83-6.33-6.94-14.77-6.94-6.47,0-11.65,1.83-13.88,4.41"/><line class="cls-2" x1="131.09" y1="388.71" x2="111.4" y2="388.71"/><line class="cls-12" x1="131.09" y1="379.71" x2="111.4" y2="379.71"/><path class="cls-9" d="M135,377.43h1v4.67h-1Z"/><path class="cls-9" d="M137.17,377.43h2.18a1.5,1.5,0,1,1,0,3h-1.19v1.68h-1Zm2.05.85h-1.06v1.29h1.06a.64.64,0,0,0,.69-.64A.65.65,0,0,0,139.22,378.28Z"/><path class="cls-9" d="M141.4,378.72h.95l.88,2.35.88-2.35h1l-1.35,3.38h-1Z"/><path class="cls-9" d="M147.54,381.13H145.3v-.78l1.86-2.92h1.37v2.83h.6v.87h-.6v1h-1Zm-1.26-.87h1.26v-1.95Z"/><path class="cls-9" d="M152.78,378.3h-1.37v-.87h3.73v.87h-1.36v3.8h-1Z"/><path class="cls-9" d="M155.47,378.72h.89v.46a1.46,1.46,0,0,1,1.08-.54v.87a.83.83,0,0,0-.24,0,1.16,1.16,0,0,0-.84.38v2.24h-.89Z"/><path class="cls-9" d="M160.19,381.75a1.41,1.41,0,0,1-1.07.43,1.13,1.13,0,0,1-1.18-1.12,1.08,1.08,0,0,1,1.18-1.08,1.34,1.34,0,0,1,1.07.42v-.47c0-.35-.29-.57-.74-.57a1.41,1.41,0,0,0-1,.4l-.34-.6a2.26,2.26,0,0,1,1.48-.53c.77,0,1.48.31,1.48,1.28v2.19h-.89Zm0-.88a.89.89,0,0,0-.71-.3c-.35,0-.64.18-.64.51s.29.5.64.5a.91.91,0,0,0,.71-.29Z"/><path class="cls-9" d="M162.32,379.49h-.56v-.77h.56v-.19a1.09,1.09,0,0,1,1.14-1.17,1.36,1.36,0,0,1,.65.14l-.18.63a.57.57,0,0,0-.29-.07c-.25,0-.42.17-.42.49v.17h.69v.77h-.69v2.61h-.9Zm2.29,0h-.56v-.77h.56v-.19a1.09,1.09,0,0,1,1.15-1.17,1.35,1.35,0,0,1,.64.14l-.18.64a.5.5,0,0,0-.29-.08.41.41,0,0,0-.42.47v.19h.69v.77h-.69v2.61h-.9Zm2-1.74a.53.53,0,0,1,1.06,0,.53.53,0,1,1-1.06,0Zm.09,1h.89v3.38h-.89Z"/><path class="cls-9" d="M170.24,378.63a1.55,1.55,0,0,1,1.33.61l-.58.55a.81.81,0,0,0-.71-.37,1,1,0,0,0,0,2A.85.85,0,0,0,171,381l.58.54a1.55,1.55,0,0,1-1.33.61,1.78,1.78,0,1,1,0-3.55Z"/><path class="cls-9" d="M135,386.43h1v4.67h-1Z"/><path class="cls-9" d="M137.17,386.43h2.18a1.5,1.5,0,1,1,0,3h-1.19v1.68h-1Zm2.05.85h-1.06v1.29h1.06a.64.64,0,0,0,.69-.64A.65.65,0,0,0,139.22,387.28Z"/><path class="cls-9" d="M141.4,387.72h.95l.88,2.35.88-2.35h1l-1.35,3.38h-1Z"/><path class="cls-9" d="M147.71,386.36a2.07,2.07,0,0,1,1.38.48l-.45.75a1.23,1.23,0,0,0-2.1,1,.31.31,0,0,0,0,.1,1.52,1.52,0,0,1,1.2-.6,1.47,1.47,0,0,1,1.59,1.51,1.64,1.64,0,0,1-1.79,1.6c-1.42,0-2-1.09-2-2.41A2.16,2.16,0,0,1,147.71,386.36Zm-.25,2.54a1.17,1.17,0,0,0-.91.45.94.94,0,0,0,.95,1,.75.75,0,0,0,.83-.69C148.33,389.12,147.91,388.9,147.46,388.9Z"/><path class="cls-9" d="M153,387.3h-1.36v-.87h3.72v.87H154v3.8h-1Z"/><path class="cls-9" d="M155.72,387.72h.89v.46a1.44,1.44,0,0,1,1.08-.54v.87a.9.9,0,0,0-.25,0,1.14,1.14,0,0,0-.83.38v2.24h-.89Z"/><path class="cls-9" d="M160.43,390.75a1.41,1.41,0,0,1-1.07.43,1.12,1.12,0,0,1-1.17-1.12,1.07,1.07,0,0,1,1.17-1.08,1.34,1.34,0,0,1,1.07.42v-.47c0-.35-.29-.57-.74-.57a1.43,1.43,0,0,0-1,.4l-.33-.6a2.22,2.22,0,0,1,1.48-.53c.77,0,1.47.31,1.47,1.28v2.19h-.89Zm0-.88a.86.86,0,0,0-.71-.3c-.35,0-.64.18-.64.51s.29.5.64.5a.88.88,0,0,0,.71-.29Z"/><path class="cls-9" d="M162.57,388.49H162v-.77h.56v-.19a1.08,1.08,0,0,1,1.14-1.17,1.35,1.35,0,0,1,.64.14l-.18.63a.54.54,0,0,0-.29-.07c-.25,0-.42.17-.42.49v.17h.69v.77h-.69v2.61h-.89Zm2.29,0h-.56v-.77h.56v-.19a1.08,1.08,0,0,1,1.14-1.17,1.35,1.35,0,0,1,.64.14l-.18.64a.5.5,0,0,0-.29-.08.41.41,0,0,0-.42.47v.19h.69v.77h-.69v2.61h-.89Zm2-1.74a.54.54,0,1,1,.53.53A.54.54,0,0,1,166.86,386.75Zm.09,1h.89v3.38H167Z"/><path class="cls-9" d="M170.48,387.63a1.59,1.59,0,0,1,1.34.61l-.58.55a.83.83,0,0,0-.72-.37,1,1,0,0,0,0,2,.87.87,0,0,0,.72-.36l.58.54a1.59,1.59,0,0,1-1.34.61,1.78,1.78,0,1,1,0-3.55Z"/><polygon class="cls-11" points="592.14 136.33 592.14 264.16 363.7 264.16 363.7 94.02 592.14 94.02 592.14 117.12 592.14 136.33"/><rect x="446.78" y="85.07" width="62.28" height="18"/><path class="cls-8" d="M458.11,90.47v7.1h-1.36l-1.85-4v4h-1.35v-7.1h1.35l1.85,4.06V90.47Z"/><path class="cls-8" d="M463.4,94.86v.91a2,2,0,0,1-2.17,2,2,2,0,0,1-2.17-2V92.34a2.16,2.16,0,0,1,4.32,0h-1.54a.59.59,0,0,0-.61-.67.58.58,0,0,0-.62.65v1a2,2,0,0,1,.89-.23A1.77,1.77,0,0,1,463.4,94.86Zm-1.55-.15c0-.3-.23-.48-.61-.48s-.63.2-.63.5v1.1c0,.33.24.53.63.53s.61-.2.61-.53Z"/><path class="cls-8" d="M466.91,90.12l-1.41,7.95H464l1.41-7.95Z"/><path class="cls-8" d="M467.45,95.47v-.28H469v.44a.74.74,0,0,0,.83.73.68.68,0,0,0,.72-.69c0-1.27-3-1-3-3.27a2,2,0,0,1,2.22-2.08,1.94,1.94,0,0,1,2.21,2v.44h-1.55v-.54c0-.31-.3-.49-.67-.49a.59.59,0,0,0-.65.6c0,1,3,.79,3,3.21a2.1,2.1,0,0,1-2.31,2.19A2.15,2.15,0,0,1,467.45,95.47Z"/><path class="cls-8" d="M475.57,90.12l-1.41,7.95H472.7l1.41-7.95Z"/><path class="cls-8" d="M479.33,93v-.71c0-.36-.33-.6-.79-.6s-.8.24-.8.6v3.4c0,.36.34.6.79.6s.8-.24.8-.6v-.6h-.81v-1.4h2.36v2a2.37,2.37,0,0,1-4.69,0V92.34a2.37,2.37,0,0,1,4.69,0V93Z"/><path class="cls-8" d="M481.82,90.47h1.5v1.46h-1.5Zm0,2h1.5v5.1h-1.5Z"/><path class="cls-8" d="M484.27,93.67h2.35V95h-2.35Z"/><path class="cls-8" d="M491.24,96.17v1.4h-3.69v-7.1h1.55v5.7Z"/><path class="cls-8" d="M495.12,96.32h-1.45l-.29,1.25h-1.5l1.52-7.1h2l1.54,7.1h-1.54Zm-.72-4L494,94.92h.9Z"/><path class="cls-8" d="M502.31,90.47v7.1H501l-1.85-4v4h-1.35v-7.1h1.35L501,94.53V90.47Z"/><polyline class="cls-13" points="501.48 152.53 501.48 160.15 454.36 160.15 454.36 152.53"/><line class="cls-14" x1="477.92" y1="171.27" x2="477.92" y2="160.27"/><rect class="cls-11" x="377.87" y="171.71" width="200.11" height="75.73"/><circle class="cls-15" cx="415.55" cy="209.99" r="19.17"/><path d="M403.38,202.71h3.08a1.67,1.67,0,0,1,1.85,1.67,1.48,1.48,0,0,1-1.14,1.5,1.63,1.63,0,0,1,1.26,1.61,1.7,1.7,0,0,1-1.89,1.77h-3.16Zm2.89,2.78a.92.92,0,0,0,1-1,.94.94,0,0,0-1-1h-1.9v1.92Zm.05,2.91a1,1,0,0,0,1.1-1,1,1,0,0,0-1.1-1h-1.95v2Z"/><path d="M409.41,202.71h1v6.55h-1Z"/><path d="M414.74,202.6a3.08,3.08,0,0,1,2.59,1.3l-.8.46a2.25,2.25,0,0,0-1.79-.88,2.52,2.52,0,0,0,0,5,2.6,2.6,0,0,0,1.66-.65v-1.18h-2.11v-.87h3.09v2.41a3.47,3.47,0,0,1-2.64,1.16,3.4,3.4,0,1,1,0-6.79Z"/><path d="M418,206.5h2.36v.77H418Z"/><path d="M421.1,202.71h1v6.55h-1Z"/><path d="M423.3,202.71h2.76a2,2,0,1,1,0,4h-1.78v2.52h-1Zm2.63.86h-1.65v2.3h1.65a1.15,1.15,0,1,0,0-2.3Z"/><path d="M409.63,211.77h1.12l2.09,5.48,2.11-5.48h1.12l-2.61,6.55h-1.22Z"/><path d="M416.61,211.77H421v.86h-3.42v1.92h3.35v.87h-3.35v2H421v.86h-4.4Z"/><path class="cls-5" d="M448.79,199.77h58.12a1.25,1.25,0,0,0,1.24-1.25v-8.09a1.25,1.25,0,0,0-1.24-1.25H448.79a1.25,1.25,0,0,0-1.24,1.25v8.09A1.25,1.25,0,0,0,448.79,199.77Z"/><path class="cls-5" d="M503.25,191.92a1.76,1.76,0,1,1-1.76,1.76A1.76,1.76,0,0,1,503.25,191.92Z"/><path class="cls-5" d="M480.71,192.8a.82.82,0,0,1,.81-.83H491.9a.82.82,0,0,1,.8.83v1.86a.82.82,0,0,1-.8.83H481.52a.82.82,0,0,1-.81-.83Z"/><path class="cls-5" d="M453.65,202h-4.79a1.25,1.25,0,0,0-1.24,1.25v26.35a1.25,1.25,0,0,0,1.24,1.25h4.79a1.24,1.24,0,0,0,1.23-1.25V203.2A1.24,1.24,0,0,0,453.65,202Z"/><path class="cls-5" d="M452.72,220.91a1,1,0,0,1-1,1h-.9a1,1,0,0,1-1-1v-9.35a1,1,0,0,1,1-1h.9a1,1,0,0,1,1,1Z"/><path class="cls-5" d="M506.81,225.1H458.39a1.41,1.41,0,0,0-1.4,1.42v2.83a1.41,1.41,0,0,0,1.4,1.42h48.42a1.41,1.41,0,0,0,1.4-1.42v-2.83A1.41,1.41,0,0,0,506.81,225.1Z"/><path class="cls-5" d="M501.82,228.23a.78.78,0,0,1-.81.72H490.63a.77.77,0,0,1-.81-.72v-.68a.77.77,0,0,1,.81-.72H501a.77.77,0,0,1,.81.72Z"/><path class="cls-5" d="M506.81,217.38H458.39a1.41,1.41,0,0,0-1.4,1.42v2.83a1.41,1.41,0,0,0,1.4,1.42h48.42a1.41,1.41,0,0,0,1.4-1.42V218.8A1.41,1.41,0,0,0,506.81,217.38Z"/><path class="cls-5" d="M501.82,220.5a.77.77,0,0,1-.81.72H490.63a.77.77,0,0,1-.81-.72v-.68a.76.76,0,0,1,.81-.71H501a.77.77,0,0,1,.81.71Z"/><path class="cls-5" d="M506.81,209.66H458.39a1.41,1.41,0,0,0-1.4,1.42v2.82a1.41,1.41,0,0,0,1.4,1.42h48.42a1.41,1.41,0,0,0,1.4-1.42v-2.82A1.41,1.41,0,0,0,506.81,209.66Z"/><path class="cls-5" d="M501.82,212.78a.77.77,0,0,1-.81.72H490.63a.77.77,0,0,1-.81-.72v-.68a.77.77,0,0,1,.81-.72H501a.78.78,0,0,1,.81.72Z"/><path class="cls-5" d="M506.81,201.93H458.39a1.41,1.41,0,0,0-1.4,1.42v2.83a1.41,1.41,0,0,0,1.4,1.42h48.42a1.41,1.41,0,0,0,1.4-1.42v-2.83A1.41,1.41,0,0,0,506.81,201.93Z"/><path class="cls-5" d="M501.82,205.06a.78.78,0,0,1-.81.72H490.63a.77.77,0,0,1-.81-.72v-.68a.77.77,0,0,1,.81-.72H501a.77.77,0,0,1,.81.72Z"/><line class="cls-4" x1="449.84" y1="197.73" x2="505.86" y2="197.73"/><rect class="cls-16" x="474.09" y="204.04" width="1.33" height="1.35" rx="0.66" transform="translate(270.04 679.47) rotate(-90)"/><rect class="cls-16" x="477.04" y="204.04" width="1.33" height="1.35" rx="0.66" transform="translate(272.99 682.42) rotate(-90)"/><rect class="cls-16" x="480" y="204.04" width="1.33" height="1.35" rx="0.66" transform="translate(275.95 685.38) rotate(-90)"/><rect class="cls-16" x="482.96" y="204.04" width="1.33" height="1.35" rx="0.66" transform="translate(278.91 688.34) rotate(-90)"/><rect class="cls-16" x="485.92" y="204.04" width="1.33" height="1.35" rx="0.66" transform="translate(281.87 691.29) rotate(-90)"/><rect class="cls-16" x="474.09" y="211.77" width="1.33" height="1.35" rx="0.66" transform="translate(262.31 687.19) rotate(-90)"/><rect class="cls-16" x="477.04" y="211.77" width="1.33" height="1.35" rx="0.66" transform="translate(265.27 690.15) rotate(-90)"/><rect class="cls-16" x="480" y="211.77" width="1.33" height="1.35" rx="0.66" transform="translate(268.22 693.11) rotate(-90)"/><rect class="cls-16" x="482.96" y="211.77" width="1.33" height="1.35" rx="0.66" transform="translate(271.18 696.06) rotate(-90)"/><rect class="cls-16" x="485.92" y="211.77" width="1.33" height="1.35" rx="0.66" transform="translate(274.14 699.02) rotate(-90)"/><rect class="cls-16" x="474.09" y="219.49" width="1.33" height="1.35" rx="0.66" transform="translate(254.58 694.92) rotate(-90)"/><rect class="cls-16" x="477.04" y="219.49" width="1.33" height="1.35" rx="0.66" transform="translate(257.54 697.88) rotate(-90)"/><rect class="cls-16" x="480" y="219.49" width="1.33" height="1.35" rx="0.66" transform="translate(260.5 700.83) rotate(-90)"/><rect class="cls-16" x="482.96" y="219.49" width="1.33" height="1.35" rx="0.66" transform="translate(263.45 703.79) rotate(-90)"/><rect class="cls-16" x="485.92" y="219.49" width="1.33" height="1.35" rx="0.66" transform="translate(266.41 706.75) rotate(-90)"/><rect class="cls-16" x="474.09" y="227.22" width="1.33" height="1.35" rx="0.66" transform="translate(246.86 702.65) rotate(-90)"/><rect class="cls-16" x="477.04" y="227.22" width="1.33" height="1.35" rx="0.66" transform="translate(249.81 705.6) rotate(-90)"/><rect class="cls-16" x="480" y="227.22" width="1.33" height="1.35" rx="0.66" transform="translate(252.77 708.56) rotate(-90)"/><rect class="cls-16" x="482.96" y="227.22" width="1.33" height="1.35" rx="0.66" transform="translate(255.73 711.52) rotate(-90)"/><rect class="cls-16" x="485.92" y="227.22" width="1.33" height="1.35" rx="0.66" transform="translate(258.69 714.47) rotate(-90)"/><circle class="cls-5" cx="527.94" cy="202.6" r="1.56"/><circle class="cls-5" cx="552.6" cy="217.05" r="1.56"/><circle class="cls-5" cx="540.06" cy="224.47" r="1.56"/><rect class="cls-5" x="538.85" y="208.39" width="2.78" height="2.78"/><rect class="cls-5" x="551.25" y="201.24" width="2.78" height="2.78"/><polygon class="cls-5" points="527.98 215.33 526.39 218.08 529.57 218.08 527.98 215.33"/><polygon class="cls-5" points="539.97 193.88 538.38 196.63 541.56 196.63 539.97 193.88"/><polygon class="cls-5" points="531.44 196.76 524.46 196.76 520.97 202.8 524.46 208.84 531.44 208.84 534.93 202.8 531.44 196.76"/><polygon class="cls-5" points="543.65 189.74 536.67 189.74 533.18 195.78 536.67 201.81 543.65 201.81 547.14 195.78 543.65 189.74"/><polygon class="cls-5" points="543.65 218.17 536.67 218.17 533.18 224.2 536.67 230.24 543.65 230.24 547.14 224.2 543.65 218.17"/><polygon class="cls-5" points="543.77 204 536.79 204 533.3 210.04 536.79 216.07 543.77 216.07 547.26 210.04 543.77 204"/><polygon class="cls-5" points="555.98 196.74 549 196.74 545.51 202.78 549 208.82 555.98 208.82 559.47 202.78 555.98 196.74"/><polygon class="cls-5" points="531.44 211.14 524.46 211.14 520.97 217.18 524.46 223.22 531.44 223.22 534.93 217.18 531.44 211.14"/><polygon class="cls-5" points="555.98 211.12 549 211.12 545.51 217.16 549 223.19 555.98 223.19 559.47 217.16 555.98 211.12"/><circle class="cls-5" cx="477.92" cy="131.69" r="19.5"/><path d="M462.6,131.64a3.33,3.33,0,0,1,3.41-3.45,3,3,0,0,1,2.65,1.41l-.85.45a2.11,2.11,0,0,0-1.8-1,2.57,2.57,0,0,0,0,5.12,2.11,2.11,0,0,0,1.8-1l.85.45a3,3,0,0,1-2.65,1.41A3.33,3.33,0,0,1,462.6,131.64Z"/><path d="M472.59,128.19a3.14,3.14,0,0,1,2.64,1.32l-.81.47a2.3,2.3,0,0,0-1.83-.9,2.57,2.57,0,0,0,0,5.13,2.59,2.59,0,0,0,1.69-.66v-1.2h-2.14v-.88h3.14v2.45a3.55,3.55,0,0,1-2.69,1.18,3.46,3.46,0,0,1,0-6.91Z"/><path d="M477.32,129.85V135h-1V128.3h1l3.63,5v-5h1V135h-1Z"/><path d="M487.42,133.59h-3.26l-.54,1.38h-1.1l2.64-6.67h1.25l2.65,6.67H488Zm-3-.89h2.68l-1.35-3.53Z"/><path d="M490.59,129.18h-2.07v-.88h5.12v.88h-2.06V135h-1Z"/></g></g></svg>