<svg id="Layer_1" data-name="Layer 1" xmlns="http://www.w3.org/2000/svg" viewBox="0 0 598.71 376.74"><defs><style>.cls-1,.cls-11,.cls-3,.cls-4,.cls-5,.cls-6{fill:none;}.cls-1{stroke:#2bae4a;}.cls-1,.cls-10,.cls-2,.cls-5,.cls-6{stroke-miterlimit:10;}.cls-10,.cls-2,.cls-8{fill:#fff;}.cls-10,.cls-11,.cls-2,.cls-4,.cls-6{stroke:#000;}.cls-3{stroke:#2aa9e0;}.cls-10,.cls-11,.cls-3,.cls-4{stroke-linecap:round;}.cls-11,.cls-3,.cls-4{stroke-linejoin:round;}.cls-5{stroke:#343434;}.cls-7{fill:#010101;}.cls-9{fill:#e0e0e0;}.cls-11{stroke-width:0.5px;}</style></defs><line class="cls-1" x1="502.82" y1="73.26" x2="542.45" y2="73.26"/><rect class="cls-2" x="316.9" y="172.23" width="168.35" height="185.77"/><rect class="cls-2" x="299.07" y="31.26" width="204" height="84"/><polyline class="cls-3" points="370.19 245.24 370.19 254.81 431.45 254.81 431.45 245.24"/><line class="cls-3" x1="400.82" y1="270" x2="400.82" y2="254.81"/><line class="cls-1" x1="420.77" y1="222.1" x2="522.32" y2="222.1"/><line class="cls-1" x1="304.07" y1="222.1" x2="381.16" y2="222.1"/><line class="cls-1" x1="239.55" y1="222.01" x2="265.07" y2="222.01"/><line class="cls-1" x1="172.32" y1="222.01" x2="206.23" y2="222.01"/><line class="cls-1" x1="133.32" y1="222.01" x2="164.32" y2="221.95"/><path class="cls-4" d="M574.32,71.44v4.69c0,4.07-6.72,7.37-15.67,7.37s-15.83-3.3-15.83-7.37V66.76c0,1.78,1.39,3.41,3.7,4.68a25.27,25.27,0,0,0,12.13,2.68,24.75,24.75,0,0,0,12-2.68c2.32-1.27,3.71-2.9,3.71-4.68V61.4a4.12,4.12,0,0,1-1.11,2.68c-2.36,2.74-7.69,4.68-14.56,4.68s-12.37-1.94-14.72-4.68a4.07,4.07,0,0,1-1.11-2.68v-8c0,1.49,1,2.86,2.62,4a18.94,18.94,0,0,0,6.83,2.68,29.8,29.8,0,0,0,6.38.67,28.28,28.28,0,0,0,6.22-.67,19,19,0,0,0,6.82-2.68c1.66-1.16,2.63-2.53,2.63-4,0-4.07-6.72-7.36-15.67-7.36-6.86,0-12.36,1.94-14.72,4.68" transform="translate(-0.5 -0.49)"/><line class="cls-5" x1="401.07" y1="115.26" x2="401.07" y2="163"/><path d="M540.32,90.59h4.81v.81h-3.9v2.37h3.82v.81h-3.82v3.34h-.91Z" transform="translate(-0.5 -0.49)"/><path d="M546.58,96.27a2.39,2.39,0,0,0,2,1,1.59,1.59,0,0,0,1.69-1.47.34.34,0,0,0,0-.1,1.55,1.55,0,0,0-1.51-1.59h-.18a2.3,2.3,0,0,0-1.69.7l-.67-.23v-4h4.49v.81h-3.58V94a2.49,2.49,0,0,1,1.72-.66,2.25,2.25,0,0,1,2.33,2.16v.19a2.4,2.4,0,0,1-2.38,2.42h-.23A3,3,0,0,1,546,96.88Z" transform="translate(-0.5 -0.49)"/><path d="M554.28,90.59h1l2.48,6.33,2.47-6.33h1.05l-3,7.33h-1.13Z" transform="translate(-0.5 -0.49)"/><path d="M563,92v5.92h-.92V90.59H563l4.22,5.79V90.59h.92v7.33h-.88Z" transform="translate(-0.5 -0.49)"/><path d="M569.62,90.59h4.81v.81h-3.89v2.37h3.81v.81h-3.81v3.34h-.92Z" transform="translate(-0.5 -0.49)"/><path d="M574.92,94.9h2.64v.72h-2.64Z" transform="translate(-0.5 -0.49)"/><path d="M545.12,102.82l-2.5,6.1h-.37l-2.49-6.1v6.1h-.91v-7.33h1.31l2.28,5.58,2.29-5.58H546v7.33h-.92Z" transform="translate(-0.5 -0.49)"/><path d="M550.82,108.32a2.31,2.31,0,0,1-1.76.74,1.78,1.78,0,0,1-1.86-1.68v-.08a1.74,1.74,0,0,1,1.73-1.76h.13a2.22,2.22,0,0,1,1.76.72v-1c0-.71-.57-1.12-1.34-1.12a2.14,2.14,0,0,0-1.63.74l-.39-.57a2.76,2.76,0,0,1,2.13-.88c1.12,0,2,.5,2,1.79v3.65h-.82Zm0-1.52a1.77,1.77,0,0,0-1.46-.66,1.17,1.17,0,1,0-.28,2.32,1.31,1.31,0,0,0,.28,0,1.77,1.77,0,0,0,1.46-.66Z" transform="translate(-0.5 -0.49)"/><path d="M556.66,105.45c0-.94-.47-1.24-1.19-1.24a2.07,2.07,0,0,0-1.57.83v3.88h-.83v-5.31h.83v.77a2.6,2.6,0,0,1,1.89-.9,1.51,1.51,0,0,1,1.7,1.29,1.48,1.48,0,0,1,0,.42v3.73h-.83Z" transform="translate(-0.5 -0.49)"/><path d="M562.24,108.32a2.32,2.32,0,0,1-1.76.74,1.78,1.78,0,0,1-1.86-1.68v-.08a1.74,1.74,0,0,1,1.72-1.76h.14a2.22,2.22,0,0,1,1.76.72v-1c0-.71-.58-1.12-1.35-1.12a2.13,2.13,0,0,0-1.62.74l-.39-.57a2.75,2.75,0,0,1,2.12-.88c1.13,0,2.06.5,2.06,1.79v3.65h-.82Zm0-1.52a1.78,1.78,0,0,0-1.47-.66,1.17,1.17,0,0,0-.28,2.32,1.31,1.31,0,0,0,.28,0,1.78,1.78,0,0,0,1.47-.66Z" transform="translate(-0.5 -0.49)"/><path d="M564.9,109.67a2,2,0,0,0,1.73.73,1.52,1.52,0,0,0,1.69-1.33,1.22,1.22,0,0,0,0-.27V108a2.2,2.2,0,0,1-1.78.95c-1.39,0-2.37-1-2.37-2.75s1-2.76,2.37-2.76a2.18,2.18,0,0,1,1.78.93v-.8h.83v5.16c0,1.76-1.24,2.31-2.53,2.31a2.76,2.76,0,0,1-2.15-.79Zm3.43-4.6a2,2,0,0,0-1.58-.86c-1.07,0-1.71.85-1.71,2s.64,2,1.71,2a2,2,0,0,0,1.58-.87Z" transform="translate(-0.5 -0.49)"/><path d="M572.9,103.48a2.58,2.58,0,0,1,2.56,2.59,2.26,2.26,0,0,1,0,.26v.21h-4.3a1.87,1.87,0,0,0,1.9,1.83h0a2.35,2.35,0,0,0,1.64-.67l.4.54a2.93,2.93,0,0,1-2.12.82,2.79,2.79,0,0,1-.08-5.58Zm-1.75,2.45h3.48a1.72,1.72,0,0,0-1.67-1.77h-.08A1.77,1.77,0,0,0,571.15,105.93Z" transform="translate(-0.5 -0.49)"/><path d="M576.56,103.61h.82v.86a2.28,2.28,0,0,1,1.78-1v.85a1.24,1.24,0,0,0-.33,0,2,2,0,0,0-1.45.85v3.76h-.82Z" transform="translate(-0.5 -0.49)"/><path d="M524.62,249h.91v7.34h-.91Z" transform="translate(-0.5 -0.49)"/><path d="M530.58,252.83c0-.93-.47-1.23-1.19-1.23a2,2,0,0,0-1.57.82v3.89H527V251h.83v.77a2.68,2.68,0,0,1,1.89-.9,1.51,1.51,0,0,1,1.7,1.3,1.48,1.48,0,0,1,0,.42v3.73h-.82Z" transform="translate(-0.5 -0.49)"/><path d="M533,255.2v-3.48h-.88V251H533v-1.45h.82V251h1.08v.73h-1.08V255c0,.4.18.68.54.68a.74.74,0,0,0,.56-.22l.25.62a1.38,1.38,0,0,1-1,.34,1.09,1.09,0,0,1-1.19-1A1.11,1.11,0,0,1,533,255.2Z" transform="translate(-0.5 -0.49)"/><path d="M538.16,250.86a2.58,2.58,0,0,1,2.56,2.6,2.09,2.09,0,0,1,0,.25v.21h-4.3a1.87,1.87,0,0,0,1.9,1.84h0a2.31,2.31,0,0,0,1.64-.67l.4.54a2.92,2.92,0,0,1-2.11.81,2.79,2.79,0,0,1-.09-5.58Zm-1.75,2.46h3.49a1.74,1.74,0,0,0-1.68-1.78h-.07a1.78,1.78,0,0,0-1.74,1.78Z" transform="translate(-0.5 -0.49)"/><path d="M541.82,251h.83v.86a2.27,2.27,0,0,1,1.77-1v.85l-.33,0a1.9,1.9,0,0,0-1.44.85v3.76h-.83Z" transform="translate(-0.5 -0.49)"/><path d="M548.82,252.83c0-.93-.48-1.23-1.19-1.23a2.1,2.1,0,0,0-1.58.82v3.89h-.82V251h.82v.77a2.7,2.7,0,0,1,1.9-.9,1.51,1.51,0,0,1,1.69,1.3,1.48,1.48,0,0,1,0,.42v3.73h-.82Z" transform="translate(-0.5 -0.49)"/><path d="M553.38,250.86a2.58,2.58,0,0,1,2.57,2.6,2.11,2.11,0,0,1,0,.25v.21h-4.3a1.88,1.88,0,0,0,1.91,1.84h0a2.35,2.35,0,0,0,1.64-.67l.39.54a2.9,2.9,0,0,1-2.11.81,2.79,2.79,0,0,1-.09-5.58Zm-1.75,2.46h3.49a1.72,1.72,0,0,0-1.68-1.78h-.07a1.78,1.78,0,0,0-1.74,1.78Z" transform="translate(-0.5 -0.49)"/><path d="M557.21,255.2v-3.48h-.88V251h.88v-1.45H558V251h1.08v.73H558V255c0,.4.17.68.53.68a.74.74,0,0,0,.56-.22l.25.62a1.38,1.38,0,0,1-1,.34,1.09,1.09,0,0,1-1.19-1A1.11,1.11,0,0,1,557.21,255.2Z" transform="translate(-0.5 -0.49)"/><path d="M276.33,249h.91v4.47a2.08,2.08,0,0,0,4.16.21.74.74,0,0,0,0-.21V249h.92v4.48a3,3,0,0,1-6,0Z" transform="translate(-0.5 -0.49)"/><path d="M283.81,249h2.95a2.21,2.21,0,1,1,.17,4.42.49.49,0,0,1-.17,0h-2v2.92h-.92Zm2.84.81h-1.92v2.8h1.92a1.4,1.4,0,0,0,.13-2.8Z" transform="translate(-0.5 -0.49)"/><path d="M290.05,249h4.81v.81H291v2.37h3.82V253H291v3.35h-.91Z" transform="translate(-0.5 -0.49)"/><path d="M210.61,254.68h-3.72l-.65,1.63h-1l3-7.34h1.13l3,7.34h-1Zm-3.45-.81h3.17l-1.58-4.09Z" transform="translate(-0.5 -0.49)"/><path d="M215.32,250.86a2.25,2.25,0,0,1,1.94.93l-.55.5a1.55,1.55,0,0,0-1.35-.69,2.06,2.06,0,0,0,0,4.1,1.6,1.6,0,0,0,1.35-.69l.55.51a2.27,2.27,0,0,1-1.94.92,2.79,2.79,0,0,1,0-5.58Z" transform="translate(-0.5 -0.49)"/><path d="M220.54,250.86a2.27,2.27,0,0,1,2,.93l-.55.5a1.55,1.55,0,0,0-1.35-.69,2.06,2.06,0,0,0,0,4.1,1.62,1.62,0,0,0,1.35-.69l.55.51a2.29,2.29,0,0,1-2,.92,2.79,2.79,0,0,1,0-5.58Z" transform="translate(-0.5 -0.49)"/><path d="M225.73,250.86a2.58,2.58,0,0,1,2.57,2.6c0,.08,0,.17,0,.25v.21H224a1.88,1.88,0,0,0,1.91,1.84h0a2.35,2.35,0,0,0,1.64-.67l.39.54a2.89,2.89,0,0,1-2.11.81,2.79,2.79,0,0,1-.09-5.58ZM224,253.32h3.49a1.72,1.72,0,0,0-1.67-1.78h-.08a1.78,1.78,0,0,0-1.74,1.78Z" transform="translate(-0.5 -0.49)"/><path d="M229.36,255a2.43,2.43,0,0,0,1.75.76c.82,0,1.26-.36,1.26-.88s-.65-.77-1.37-.95c-.9-.21-1.92-.45-1.92-1.55,0-.82.71-1.53,2-1.53a2.74,2.74,0,0,1,2,.77l-.39.57a2.09,2.09,0,0,0-1.58-.67c-.73,0-1.18.33-1.18.81s.61.68,1.3.84c.92.21,2,.48,2,1.65,0,.9-.72,1.61-2.09,1.61a2.85,2.85,0,0,1-2.15-.84Z" transform="translate(-0.5 -0.49)"/><path d="M234.26,255a2.41,2.41,0,0,0,1.75.76c.81,0,1.25-.36,1.25-.88s-.65-.77-1.36-.95c-.9-.21-1.93-.45-1.93-1.55,0-.82.72-1.53,2-1.53a2.71,2.71,0,0,1,2,.77l-.38.57a2.12,2.12,0,0,0-1.59-.67c-.72,0-1.17.33-1.17.81s.6.68,1.29.84c.93.21,2,.48,2,1.65,0,.9-.72,1.61-2.09,1.61a2.82,2.82,0,0,1-2.15-.84Z" transform="translate(-0.5 -0.49)"/><path d="M203.86,261.39v5.92h-.92V260h.94l4.22,5.8V260H209v7.34h-.89Z" transform="translate(-0.5 -0.49)"/><path d="M212.79,261.86a2.58,2.58,0,0,1,2.56,2.6,2.09,2.09,0,0,1,0,.25v.21H211a1.87,1.87,0,0,0,1.9,1.84h0a2.31,2.31,0,0,0,1.64-.67l.4.54a2.92,2.92,0,0,1-2.11.81,2.79,2.79,0,0,1-.09-5.58ZM211,264.32h3.49a1.74,1.74,0,0,0-1.68-1.78h-.07a1.78,1.78,0,0,0-1.74,1.78Z" transform="translate(-0.5 -0.49)"/><path d="M216.62,266.2v-3.48h-.88V262h.88v-1.45h.82V262h1.08v.73h-1.08V266c0,.4.18.68.54.68a.74.74,0,0,0,.56-.22l.24.62a1.38,1.38,0,0,1-1,.34,1.07,1.07,0,0,1-1.18-1A.75.75,0,0,1,216.62,266.2Z" transform="translate(-0.5 -0.49)"/><path d="M222.68,263l-1.39,4.27h-.83L218.77,262h.86l1.3,4.24,1.39-4.24H223l1.4,4.24,1.29-4.24h.86l-1.69,5.32h-.83Z" transform="translate(-0.5 -0.49)"/><path d="M227,264.65a2.56,2.56,0,1,1,0,.21A1.48,1.48,0,0,1,227,264.65Zm4.39,0a1.79,1.79,0,1,0-1.76,2.05,1.85,1.85,0,0,0,1.77-1.92S231.4,264.69,231.4,264.65Z" transform="translate(-0.5 -0.49)"/><path d="M233.39,262h.83v.86a2.27,2.27,0,0,1,1.77-1v.85a1.84,1.84,0,0,0-.33,0,1.9,1.9,0,0,0-1.44.85v3.76h-.83Z" transform="translate(-0.5 -0.49)"/><path d="M238.5,264.92l-.88.87v1.52h-.82V260h.82v4.85l2.8-2.83h1l-2.35,2.41,2.37,2.91h-1.06Z" transform="translate(-0.5 -0.49)"/><path class="cls-4" d="M296.37,229.13l-6.08,0a3.57,3.57,0,0,1-3-2l-4-9.1a3.56,3.56,0,0,0-3-2l-6.08,0" transform="translate(-0.5 -0.49)"/><path class="cls-4" d="M284.23,225.05l-1,2a3.59,3.59,0,0,1-3,2l-6.08,0" transform="translate(-0.5 -0.49)"/><path class="cls-4" d="M296.42,216l-6.08,0a3.56,3.56,0,0,0-3,2l-1,2" transform="translate(-0.5 -0.49)"/><polyline class="cls-4" points="295.93 212.49 298.96 215.53 295.91 218.54"/><polyline class="cls-4" points="296.11 225.31 298.92 228.13 296.1 230.92"/><polyline class="cls-4" points="273.63 212.41 270.58 215.43 273.61 218.47"/><polyline class="cls-4" points="273.59 225.54 270.54 228.56 273.57 231.6"/><rect class="cls-6" x="265.07" y="203.26" width="39" height="39" rx="5.92"/><path class="cls-4" d="M162.62,216.06l-1.34-1.84a3.75,3.75,0,0,1,.07-4.69l1.27-1.66" transform="translate(-0.5 -0.49)"/><path class="cls-4" d="M159.91,218.23l-2.9-4a3.75,3.75,0,0,1,.07-4.69l2.83-3.71" transform="translate(-0.5 -0.49)"/><path class="cls-4" d="M156.64,219.85l-4.19-5.77a3.75,3.75,0,0,1,.07-4.69l4.12-5.39" transform="translate(-0.5 -0.49)"/><path class="cls-4" d="M174.21,207.79l1.34,1.84a3.77,3.77,0,0,1-.08,4.7L174.21,216" transform="translate(-0.5 -0.49)"/><path class="cls-4" d="M176.91,205.62l2.91,4a3.77,3.77,0,0,1-.07,4.69L176.91,218" transform="translate(-0.5 -0.49)"/><path class="cls-4" d="M180.18,204l4.2,5.77a3.76,3.76,0,0,1-.08,4.69l-4.12,5.39" transform="translate(-0.5 -0.49)"/><path class="cls-4" d="M177.61,241l-7.22-25.73a3.89,3.89,0,1,0-3.95,0L159.22,241H175" transform="translate(-0.5 -0.49)"/><line class="cls-4" x1="162.66" y1="235.26" x2="173.17" y2="235.26"/><line class="cls-4" x1="163.97" y1="229.93" x2="171.86" y2="229.93"/><line class="cls-4" x1="165.29" y1="224.65" x2="170.54" y2="224.65"/><path class="cls-4" d="M230.87,236.25H206.63a6.14,6.14,0,0,1,0-12.27h0a9.08,9.08,0,0,1,9.07-9.12,9,9,0,0,1,3.74.81A10.6,10.6,0,0,1,240,219.41a10.83,10.83,0,0,1-.37,2.78,7.67,7.67,0,0,1-4.18,14.06H233.9" transform="translate(-0.5 -0.49)"/><path d="M466.29,90.59h2.94a2.21,2.21,0,1,1,.18,4.42H467.2v2.91h-.91Zm2.83.81H467.2v2.79h1.92a1.4,1.4,0,0,0,.13-2.79Z" transform="translate(-0.5 -0.49)"/><path d="M472.22,94.26a3.66,3.66,0,0,1,3.53-3.79H476a3.31,3.31,0,0,1,2.82,1.46l-.77.43A2.49,2.49,0,0,0,476,91.28a3,3,0,0,0,0,6A2.44,2.44,0,0,0,478,96.17l.78.43A3.35,3.35,0,0,1,476,98.06a3.67,3.67,0,0,1-3.74-3.59Z" transform="translate(-0.5 -0.49)"/><path d="M479.74,90.59h4.8v.81h-3.89v2.37h3.82v.81h-3.82v3.34h-.91Z" transform="translate(-0.5 -0.49)"/><path d="M419.45,90.46c4.78-.17,4.78,7.77,0,7.6C414.67,98.23,414.67,90.29,419.45,90.46Zm0,.82c-3.55-.16-3.55,6.11,0,6,3.55.15,3.55-6.11,0-6Z" transform="translate(-0.5 -0.49)"/><path d="M424,94.26a3.66,3.66,0,0,1,3.53-3.79h.22a3.3,3.3,0,0,1,2.81,1.46l-.77.43a2.48,2.48,0,0,0-2-1.07,3,3,0,0,0,0,6,2.43,2.43,0,0,0,2-1.07l.78.43a3.35,3.35,0,0,1-2.82,1.46A3.67,3.67,0,0,1,424,94.47Z" transform="translate(-0.5 -0.49)"/><path d="M431.62,96.2a3.07,3.07,0,0,0,2.31,1c1.31,0,1.72-.7,1.72-1.26,0-.88-.89-1.13-1.86-1.39-1.17-.31-2.48-.64-2.48-2.08,0-1.21,1.08-2,2.52-2a3.42,3.42,0,0,1,2.61,1l-.56.67a2.81,2.81,0,0,0-2.12-.88c-.88,0-1.5.47-1.5,1.17s.84,1,1.78,1.21c1.2.31,2.56.69,2.56,2.23,0,1.07-.73,2.16-2.71,2.16a3.65,3.65,0,0,1-2.81-1.17Z" transform="translate(-0.5 -0.49)"/><path d="M366.11,90.59H367v4.46a2.08,2.08,0,0,0,4.16.22V90.59h.91v4.47a3,3,0,0,1-6,0Z" transform="translate(-0.5 -0.49)"/><path d="M373.59,90.59h2.51a3.67,3.67,0,1,1,.18,7.33h-2.69Zm2.51,6.52a2.86,2.86,0,0,0,0-5.71h-1.6v5.71Z" transform="translate(-0.5 -0.49)"/><path d="M387.34,91.82l-2.5,6.1h-.37L382,91.82v6.1h-.91V90.59h1.31l2.27,5.58,2.29-5.58h1.31v7.33h-.91Z" transform="translate(-0.5 -0.49)"/><path d="M339.2,320.26a3.66,3.66,0,0,1,3.53-3.79h.21a3.31,3.31,0,0,1,2.82,1.46l-.77.43a2.5,2.5,0,0,0-2.05-1.07,3,3,0,0,0,0,6,2.45,2.45,0,0,0,2.05-1.07l.78.43a3.36,3.36,0,0,1-2.83,1.46,3.66,3.66,0,0,1-3.74-3.59Z" transform="translate(-0.5 -0.49)"/><path d="M350.06,316.46c4.78-.17,4.78,7.77,0,7.6C345.27,324.23,345.27,316.29,350.06,316.46Zm0,.82c-3.56-.16-3.56,6.11,0,6,3.55.15,3.55-6.11,0-6Z" transform="translate(-0.5 -0.49)"/><path d="M356.43,317.4h-2.32v-.81h5.56v.81h-2.33v6.52h-.91Z" transform="translate(-0.5 -0.49)"/><path d="M360.73,322.2a3.07,3.07,0,0,0,2.31,1c1.31,0,1.72-.7,1.72-1.26,0-.88-.89-1.13-1.86-1.39-1.17-.31-2.48-.64-2.48-2.08,0-1.21,1.08-2,2.52-2a3.38,3.38,0,0,1,2.6,1l-.55.67a2.82,2.82,0,0,0-2.12-.88c-.88,0-1.5.47-1.5,1.17s.84,1,1.78,1.21c1.2.31,2.56.69,2.56,2.23,0,1.07-.73,2.16-2.71,2.16a3.65,3.65,0,0,1-2.81-1.17Z" transform="translate(-0.5 -0.49)"/><path d="M388.2,320.26a3.66,3.66,0,0,1,3.53-3.79h.21a3.31,3.31,0,0,1,2.82,1.46l-.77.43a2.5,2.5,0,0,0-2.05-1.07,3,3,0,0,0,0,6,2.45,2.45,0,0,0,2.05-1.07l.78.43a3.36,3.36,0,0,1-2.83,1.46,3.66,3.66,0,0,1-3.74-3.59Z" transform="translate(-0.5 -0.49)"/><path d="M399.06,316.46c4.78-.17,4.78,7.77,0,7.6C394.27,324.23,394.27,316.29,399.06,316.46Zm0,.82c-3.55-.16-3.56,6.11,0,6,3.55.15,3.55-6.11,0-6Z" transform="translate(-0.5 -0.49)"/><path d="M405.43,317.4h-2.32v-.81h5.56v.81h-2.33v6.52h-.91Z" transform="translate(-0.5 -0.49)"/><path d="M409.73,322.2a3.07,3.07,0,0,0,2.31,1c1.31,0,1.73-.7,1.73-1.26,0-.88-.9-1.13-1.86-1.39-1.18-.31-2.49-.64-2.49-2.08,0-1.21,1.08-2,2.52-2a3.38,3.38,0,0,1,2.6,1l-.54.67a2.85,2.85,0,0,0-2.13-.88c-.88,0-1.5.47-1.5,1.17s.84,1,1.78,1.21c1.2.31,2.56.69,2.56,2.23,0,1.07-.73,2.16-2.71,2.16a3.65,3.65,0,0,1-2.81-1.17Z" transform="translate(-0.5 -0.49)"/><path d="M437.2,320.26a3.66,3.66,0,0,1,3.53-3.79h.21a3.31,3.31,0,0,1,2.82,1.46l-.77.43a2.5,2.5,0,0,0-2.05-1.07,3,3,0,0,0,0,6,2.45,2.45,0,0,0,2.05-1.07l.78.43a3.36,3.36,0,0,1-2.83,1.46,3.66,3.66,0,0,1-3.74-3.59Z" transform="translate(-0.5 -0.49)"/><path d="M448.06,316.46c4.78-.17,4.78,7.77,0,7.6C443.27,324.23,443.27,316.29,448.06,316.46Zm0,.82c-3.55-.16-3.56,6.11,0,6,3.55.15,3.55-6.11,0-6Z" transform="translate(-0.5 -0.49)"/><path d="M454.43,317.4h-2.32v-.81h5.56v.81h-2.33v6.52h-.91Z" transform="translate(-0.5 -0.49)"/><path d="M458.73,322.2a3.07,3.07,0,0,0,2.31,1c1.31,0,1.72-.7,1.72-1.26,0-.88-.89-1.13-1.85-1.39-1.18-.31-2.49-.64-2.49-2.08,0-1.21,1.08-2,2.52-2a3.38,3.38,0,0,1,2.6,1l-.55.67a2.81,2.81,0,0,0-2.12-.88c-.88,0-1.5.47-1.5,1.17s.84,1,1.78,1.21c1.2.31,2.56.69,2.56,2.23,0,1.07-.73,2.16-2.71,2.16a3.65,3.65,0,0,1-2.81-1.17Z" transform="translate(-0.5 -0.49)"/><path d="M320.41,96.3H316.7l-.65,1.62h-1l3-7.33h1.14l2.95,7.33h-1ZM317,95.48h3.18l-1.59-4.08Z" transform="translate(-0.5 -0.49)"/><path d="M322.52,90.59h.92v4.46a2.08,2.08,0,0,0,4.16.22V90.59h.91v4.47a3,3,0,0,1-6,0Z" transform="translate(-0.5 -0.49)"/><path d="M330.1,96.2a3.1,3.1,0,0,0,2.31,1c1.31,0,1.73-.7,1.73-1.26,0-.88-.89-1.13-1.86-1.39-1.17-.31-2.48-.64-2.48-2.08,0-1.21,1.07-2,2.52-2a3.38,3.38,0,0,1,2.6,1l-.55.67a2.82,2.82,0,0,0-2.12-.88c-.88,0-1.51.47-1.51,1.17s.85,1,1.78,1.21c1.2.31,2.57.69,2.57,2.23,0,1.07-.73,2.16-2.71,2.16a3.68,3.68,0,0,1-2.82-1.17Z" transform="translate(-0.5 -0.49)"/><path d="M336.23,90.59H341v.81h-3.9v2.37H341v.81h-3.82v3.34h-.91Z" transform="translate(-0.5 -0.49)"/><rect class="cls-6" x="325.82" y="269.95" width="150" height="70"/><rect class="cls-7" x="342.32" y="331.35" width="117" height="18"/><path class="cls-8" d="M362,337.25v7.09h-1.36l-1.85-4v4h-1.35v-7.09h1.35l1.85,4.05v-4.05Z" transform="translate(-0.5 -0.49)"/><path class="cls-8" d="M364.52,338.65v1.79h1.82v1.4h-1.82v2.5H363v-7.09h3.67v1.4Z" transform="translate(-0.5 -0.49)"/><path class="cls-8" d="M372.34,337.25l-1.5,7.09h-2l-1.49-7.09h1.55l1,4.86,1-4.86Z" transform="translate(-0.5 -0.49)"/><path class="cls-8" d="M375.11,337.25h1.55v7.09h-1.55Z" transform="translate(-0.5 -0.49)"/><path class="cls-8" d="M382.19,337.25v7.09h-1.36l-1.85-4v4h-1.35v-7.09H379l1.85,4.05v-4.05Z" transform="translate(-0.5 -0.49)"/><path class="cls-8" d="M384.73,338.65v1.79h1.82v1.4h-1.82v2.5h-1.55v-7.09h3.67v1.4Z" transform="translate(-0.5 -0.49)"/><path class="cls-8" d="M390,341.78h-.74v2.56h-1.55v-7.09H390a1.94,1.94,0,0,1,2.11,1.76v.84a1.84,1.84,0,0,1-.7,1.49l.91,3h-1.61Zm-.74-1.4h.91a.43.43,0,0,0,.47-.39v-.87a.44.44,0,0,0-.4-.47h-1Z" transform="translate(-0.5 -0.49)"/><path class="cls-8" d="M396.31,343.09h-1.45l-.29,1.25h-1.51l1.53-7.09h2l1.54,7.09H396.6Zm-.72-3.95-.45,2.55h.9Z" transform="translate(-0.5 -0.49)"/><path class="cls-8" d="M398.72,342.24V342h1.55v.44a.74.74,0,0,0,.73.74h.1a.68.68,0,0,0,.72-.63v-.06c0-1.27-3-1-3-3.26a2,2,0,0,1,1.9-2.09,1.15,1.15,0,0,1,.32,0,1.94,1.94,0,0,1,2.19,1.65c0,.11,0,.22,0,.34v.43h-1.55V339c0-.31-.3-.49-.67-.49a.58.58,0,0,0-.65.51v.09c0,1,3,.79,3,3.2a2.1,2.1,0,0,1-2,2.2,1.58,1.58,0,0,1-.31,0,2.14,2.14,0,0,1-2.34-1.94A1.61,1.61,0,0,1,398.72,342.24Z" transform="translate(-0.5 -0.49)"/><path class="cls-8" d="M408.52,338.65h-1.47v5.69H405.5v-5.69H404v-1.4h4.5Z" transform="translate(-0.5 -0.49)"/><path class="cls-8" d="M411.56,341.78h-.74v2.56h-1.55v-7.09h2.36a1.94,1.94,0,0,1,2.11,1.76,1.09,1.09,0,0,1,0,.18v.66a1.85,1.85,0,0,1-.71,1.49l.92,3h-1.62Zm-.74-1.4h.91a.43.43,0,0,0,.47-.39v-.87a.43.43,0,0,0-.39-.47h-1Z" transform="translate(-0.5 -0.49)"/><path class="cls-8" d="M414.66,342.47v-5.22h1.55v5.24c0,.36.23.6.72.6s.73-.24.73-.6v-5.24h1.55v5.22a2.29,2.29,0,0,1-2.54,2A2.31,2.31,0,0,1,414.66,342.47Z" transform="translate(-0.5 -0.49)"/><path class="cls-8" d="M420.09,342.47v-3.35a2.37,2.37,0,0,1,4.69,0V340h-1.57v-.91c0-.36-.26-.6-.77-.6s-.8.24-.8.6v3.39c0,.36.27.6.79.6s.78-.24.78-.6v-.91h1.57v.89a2.37,2.37,0,0,1-2.69,2A2.4,2.4,0,0,1,420.09,342.47Z" transform="translate(-0.5 -0.49)"/><path class="cls-8" d="M430,338.65h-1.47v5.69H427v-5.69h-1.48v-1.4H430Z" transform="translate(-0.5 -0.49)"/><path class="cls-8" d="M430.7,342.47v-5.22h1.55v5.24c0,.36.23.6.72.6s.73-.24.73-.6v-5.24h1.55v5.22a2.29,2.29,0,0,1-2.54,2A2.31,2.31,0,0,1,430.7,342.47Z" transform="translate(-0.5 -0.49)"/><path class="cls-8" d="M438.49,341.78h-.74v2.56H436.2v-7.09h2.36a1.94,1.94,0,0,1,2.11,1.76c0,.06,0,.12,0,.18v.66a1.85,1.85,0,0,1-.71,1.49l.92,3h-1.62Zm-.74-1.4h.91a.43.43,0,0,0,.47-.39v-.87a.44.44,0,0,0-.4-.47h-1Z" transform="translate(-0.5 -0.49)"/><path class="cls-8" d="M443.28,338.65v1.54H445v1.4h-1.71v1.35h2.11v1.4h-3.66v-7.09h3.66v1.4Z" transform="translate(-0.5 -0.49)"/><line class="cls-4" x1="416.14" y1="305.73" x2="416.14" y2="308.46"/><line class="cls-4" x1="411.96" y1="305.73" x2="411.96" y2="308.46"/><line class="cls-4" x1="407.79" y1="305.73" x2="407.79" y2="308.46"/><path d="M385.3,306.88a.71.71,0,1,1-.7.71h0a.71.71,0,0,1,.7-.71h0m0-1a1.71,1.71,0,1,0,1.7,1.71h0A1.71,1.71,0,0,0,385.3,305.88Z" transform="translate(-0.5 -0.49)"/><rect class="cls-6" x="381.32" y="304.32" width="39" height="5.54" rx="1.71"/><line class="cls-4" x1="367.14" y1="305.73" x2="367.14" y2="308.46"/><line class="cls-4" x1="362.96" y1="305.73" x2="362.96" y2="308.46"/><line class="cls-4" x1="358.79" y1="305.73" x2="358.79" y2="308.46"/><path d="M336.3,306.88a.71.71,0,1,1-.7.71h0a.71.71,0,0,1,.7-.71h0m0-1a1.71,1.71,0,1,0,1.7,1.71h0A1.71,1.71,0,0,0,336.3,305.88Z" transform="translate(-0.5 -0.49)"/><rect class="cls-6" x="332.32" y="304.32" width="39" height="5.54" rx="1.71"/><line class="cls-4" x1="465.14" y1="305.73" x2="465.14" y2="308.46"/><line class="cls-4" x1="460.96" y1="305.73" x2="460.96" y2="308.46"/><line class="cls-4" x1="456.79" y1="305.73" x2="456.79" y2="308.46"/><path d="M434.3,306.88a.71.71,0,1,1-.7.71h0a.71.71,0,0,1,.7-.71h0m0-1a1.71,1.71,0,1,0,1.7,1.71h0A1.71,1.71,0,0,0,434.3,305.88Z" transform="translate(-0.5 -0.49)"/><rect class="cls-6" x="430.32" y="304.32" width="39" height="5.54" rx="1.71"/><rect class="cls-9" x="332.32" y="279.45" width="137" height="17"/><path d="M389.28,219.12h3.13a1.69,1.69,0,0,1,1.87,1.49,1.48,1.48,0,0,1,0,.21,1.52,1.52,0,0,1-1.16,1.53,1.64,1.64,0,0,1,1.29,1.64,1.73,1.73,0,0,1-1.67,1.8,2.26,2.26,0,0,1-.26,0h-3.21Zm2.94,2.83a1,1,0,0,0,.13-1.95h-2.07V222Zm0,3a1,1,0,0,0,1.11-.88,1.06,1.06,0,0,0-1-1.21h-2.11v2.08Z" transform="translate(-0.5 -0.49)"/><path d="M395.41,219.12h1v6.67h-1Z" transform="translate(-0.5 -0.49)"/><path d="M400.83,219a3.12,3.12,0,0,1,2.64,1.32l-.81.47a2.3,2.3,0,0,0-1.83-.9,2.57,2.57,0,0,0,0,5.13,2.63,2.63,0,0,0,1.69-.66v-1.2h-2.14v-.88h3.14v2.45a3.56,3.56,0,0,1-2.69,1.18,3.46,3.46,0,0,1,0-6.91Z" transform="translate(-0.5 -0.49)"/><path d="M404.11,223h2.4v.78h-2.4Z" transform="translate(-0.5 -0.49)"/><path d="M407.3,219.12h1v6.67h-1Z" transform="translate(-0.5 -0.49)"/><path d="M409.54,219.12h2.81a2.05,2.05,0,1,1,.16,4.1h-2v2.57h-1Zm2.68.88h-1.68v2.34h1.68a1.17,1.17,0,1,0,.12-2.34Z" transform="translate(-0.5 -0.49)"/><circle class="cls-6" cx="401.16" cy="222.03" r="19.5"/><path d="M387,289.11h-2.2l-.44,2h-1l1-4.67h1l-.4,1.84h2.2l.41-1.84h1l-1,4.67h-1Z" transform="translate(-0.5 -0.49)"/><path d="M388.87,291.65a.45.45,0,0,0,.42-.24l.21-.31-.6-3.41h.92l.36,2.35,1.42-2.35h1l-2.47,3.94a1.41,1.41,0,0,1-1.31.82,1.88,1.88,0,0,1-.57-.09l.3-.77A1,1,0,0,0,388.87,291.65Z" transform="translate(-0.5 -0.49)"/><path d="M393,292.36h-.89l1-4.67h.89l-.1.42a1.28,1.28,0,0,1,1-.5,1.24,1.24,0,0,1,1.29,1.2,1.34,1.34,0,0,1,0,.2,2,2,0,0,1-1.78,2.15,1.29,1.29,0,0,1-1.08-.53Zm1.56-4a1,1,0,0,0-.77.4l-.26,1.18a.94.94,0,0,0,.79.39,1.09,1.09,0,0,0,1-1.18h0a.72.72,0,0,0-.67-.79Z" transform="translate(-0.5 -0.49)"/><path d="M398.82,287.61a1.44,1.44,0,0,1,1.52,1.35v.16a2.08,2.08,0,0,1-.07.55h-2.51v.08a.81.81,0,0,0,.92.7,1.51,1.51,0,0,0,.85-.25l.28.61a2.18,2.18,0,0,1-1.19.35c-1.07,0-1.75-.58-1.75-1.52a2,2,0,0,1,1.92-2Zm.72,1.38a.68.68,0,0,0-.7-.68h-.08a1,1,0,0,0-.91.75h1.69Z" transform="translate(-0.5 -0.49)"/><path d="M401.52,287.69h.89l-.11.45a1.54,1.54,0,0,1,1.2-.53l-.19.89a1.88,1.88,0,0,0-.33-.05,1.25,1.25,0,0,0-.84.41l-.48,2.21h-.89Z" transform="translate(-0.5 -0.49)"/><path d="M403.9,287.69h.92l.36,2.35,1.42-2.35h1l-2.11,3.38h-1Z" transform="translate(-0.5 -0.49)"/><path d="M408.18,287.69h.89l-.75,3.38h-.89Zm.72-1.56a.47.47,0,0,1,.48.44h0a.6.6,0,0,1-.6.61h0a.44.44,0,0,1-.47-.43v0A.6.6,0,0,1,408.9,286.13Z" transform="translate(-0.5 -0.49)"/><path d="M409.77,290a1.74,1.74,0,0,0,1.19.52c.3,0,.49-.16.49-.36s-.29-.31-.62-.42-1.09-.38-1.09-.95a1.23,1.23,0,0,1,1.31-1.15h.08a2,2,0,0,1,1.43.55l-.44.56a1.43,1.43,0,0,0-1-.43c-.32,0-.5.14-.5.33s.26.26.59.37c.49.16,1.13.37,1.13,1s-.54,1.19-1.46,1.19a2.2,2.2,0,0,1-1.6-.61Z" transform="translate(-0.5 -0.49)"/><path d="M415,287.61a1.5,1.5,0,0,1,1.67,1.33,1.48,1.48,0,0,1,0,.21,2,2,0,0,1-1.95,2h0a1.52,1.52,0,0,1-1.67-1.32c0-.07,0-.14,0-.22a2,2,0,0,1,2-2Zm0,.79a1.1,1.1,0,0,0-1,1.17.74.74,0,0,0,.66.8h.13a1.1,1.1,0,0,0,1-1.18.72.72,0,0,0-.65-.79Z" transform="translate(-0.5 -0.49)"/><path d="M417.86,287.69h.89l-.1.45a1.53,1.53,0,0,1,1.2-.53l-.19.89a1.88,1.88,0,0,0-.33-.05,1.21,1.21,0,0,0-.84.41l-.49,2.21h-.89Z" transform="translate(-0.5 -0.49)"/><path class="cls-4" d="M534.93,222.55v-.15h-7.5v.1a27.77,27.77,0,0,0,1.35,8.72,44.71,44.71,0,0,1,6.6-1.07A60.32,60.32,0,0,1,534.93,222.55Z" transform="translate(-0.5 -0.49)"/><path class="cls-4" d="M535.38,230.15a44.71,44.71,0,0,0-6.6,1.07c1.57,4.77,4.38,8.48,7.82,10.2l.47.1a20.69,20.69,0,0,0,2.49.33C537.67,240.4,536.12,236,535.38,230.15Z" transform="translate(-0.5 -0.49)"/><path class="cls-4" d="M546.43,214.65a60.87,60.87,0,0,1,.5,7.75h7.5a28,28,0,0,0-1.42-8.8A45.53,45.53,0,0,1,546.43,214.65Z" transform="translate(-0.5 -0.49)"/><path class="cls-4" d="M546.47,230.15l-1.76-.13c-1.23-.07-2.49-.12-3.78-.12-1.93,0-3.79.09-5.55.25.74,5.83,2.29,10.25,4.18,11.7.45,0,.91.06,1.37.06s.9,0,1.35-.06h0C544.19,240.38,545.74,236,546.47,230.15Z" transform="translate(-0.5 -0.49)"/><path class="cls-4" d="M542.29,241.84h0a20,20,0,0,0,3-.44c3.44-1.72,6.26-5.42,7.83-10.2a46,46,0,0,0-6.6-1.06C545.74,236,544.19,240.38,542.29,241.84Z" transform="translate(-0.5 -0.49)"/><path class="cls-4" d="M546.93,222.55a62.26,62.26,0,0,1-.46,7.6,46,46,0,0,1,6.6,1.06,28,28,0,0,0,1.36-8.71v-.1h-7.5Z" transform="translate(-0.5 -0.49)"/><path class="cls-4" d="M535.43,214.66a45.89,45.89,0,0,1-6.59-1,27.69,27.69,0,0,0-1.41,8.79h7.5A60.72,60.72,0,0,1,535.43,214.66Z" transform="translate(-0.5 -0.49)"/><path class="cls-4" d="M540.93,214.9c-1.33,0-2.62,0-3.86-.12-.56,0-1.11-.07-1.64-.12a60.72,60.72,0,0,0-.5,7.74h12a60.87,60.87,0,0,0-.5-7.75l-1.07.09C543.94,214.84,542.46,214.9,540.93,214.9Z" transform="translate(-0.5 -0.49)"/><path class="cls-4" d="M534.93,222.55a60.32,60.32,0,0,0,.45,7.6c1.76-.16,3.62-.25,5.55-.25,1.29,0,2.55,0,3.78.12l1.76.13a62.26,62.26,0,0,0,.46-7.6v-.15h-12Z" transform="translate(-0.5 -0.49)"/><path class="cls-4" d="M545.9,211.46h0c.21,1,.38,2.07.53,3.19A45.53,45.53,0,0,0,553,213.6a20.93,20.93,0,0,0-.89-2.27c-1.79-3.92-4.49-6.83-7.65-8.1a20.63,20.63,0,0,0-2.71-.31,1.74,1.74,0,0,1,.33.18C543.67,204.13,545,207.2,545.9,211.46Z" transform="translate(-0.5 -0.49)"/><path class="cls-4" d="M536,211.07c-.24,1.12-.44,2.32-.61,3.59.53.05,1.08.09,1.64.12,1.24.08,2.53.12,3.86.12,1.53,0,3-.06,4.43-.16l1.07-.09c-.15-1.12-.32-2.19-.53-3.19-.87-4.26-2.23-7.33-3.81-8.36a1.74,1.74,0,0,0-.33-.18l-.83,0c-.29,0-.57,0-.85,0C538.42,203.71,537,206.74,536,211.07Z" transform="translate(-0.5 -0.49)"/><path class="cls-4" d="M536,211.07c.93-4.33,2.38-7.36,4-8.14a18.32,18.32,0,0,0-2.67.29c-3.06,1.22-5.69,4-7.48,7.71a23.88,23.88,0,0,0-1.09,2.68,45.89,45.89,0,0,0,6.59,1C535.6,213.39,535.8,212.19,536,211.07Z" transform="translate(-0.5 -0.49)"/><path class="cls-4" d="M536.6,241.42c-3.44-1.72-6.25-5.43-7.82-10.2a24.35,24.35,0,0,0-3.74,1.21l-.65.31A19.55,19.55,0,0,0,536.6,241.42Z" transform="translate(-0.5 -0.49)"/><path class="cls-4" d="M554.43,222.4v.1a28,28,0,0,1-1.36,8.71,23,23,0,0,1,4,1.34h0l.37.18a19.47,19.47,0,0,0,3-10.33Z" transform="translate(-0.5 -0.49)"/><path class="cls-4" d="M553.07,231.21c-1.57,4.78-4.39,8.48-7.83,10.2l.12,0a19.6,19.6,0,0,0,12.11-8.65l-.37-.18A23,23,0,0,0,553.07,231.21Z" transform="translate(-0.5 -0.49)"/><path class="cls-4" d="M544.71,203.27l-.24,0c3.16,1.27,5.86,4.18,7.65,8.1h0a20.93,20.93,0,0,1,.89,2.27,22.56,22.56,0,0,0,4.46-1.52c-.12-.2-.25-.39-.37-.58A19.55,19.55,0,0,0,544.71,203.27Z" transform="translate(-0.5 -0.49)"/><path class="cls-4" d="M554.43,222.4h6a19.32,19.32,0,0,0-3-10.32A22.56,22.56,0,0,1,553,213.6,28,28,0,0,1,554.43,222.4Z" transform="translate(-0.5 -0.49)"/><path class="cls-4" d="M528.84,213.61a22.38,22.38,0,0,1-4.44-1.52,19.3,19.3,0,0,0-3,10.31h6A27.69,27.69,0,0,1,528.84,213.61Z" transform="translate(-0.5 -0.49)"/><path class="cls-4" d="M528.78,231.22a27.77,27.77,0,0,1-1.35-8.72v-.1h-6a19.48,19.48,0,0,0,3,10.34l.65-.31A24.35,24.35,0,0,1,528.78,231.22Z" transform="translate(-0.5 -0.49)"/><path class="cls-4" d="M529.93,210.93c1.79-3.71,4.42-6.49,7.48-7.71A19.51,19.51,0,0,0,525,211.11c-.22.32-.44.65-.64,1a22.38,22.38,0,0,0,4.44,1.52A23.88,23.88,0,0,1,529.93,210.93Z" transform="translate(-0.5 -0.49)"/><line class="cls-4" x1="344.1" y1="76.46" x2="344.1" y2="80.87"/><line class="cls-4" x1="339.65" y1="76.46" x2="339.65" y2="80.87"/><line class="cls-4" x1="335.21" y1="76.46" x2="335.21" y2="80.87"/><line class="cls-4" x1="344.1" y1="67.64" x2="344.1" y2="72.05"/><line class="cls-4" x1="339.65" y1="67.64" x2="339.65" y2="72.05"/><line class="cls-4" x1="335.21" y1="67.64" x2="335.21" y2="72.05"/><line class="cls-4" x1="344.1" y1="58.82" x2="344.1" y2="63.23"/><line class="cls-4" x1="339.65" y1="58.82" x2="339.65" y2="63.23"/><line class="cls-4" x1="335.21" y1="58.82" x2="335.21" y2="63.23"/><path d="M311.25,60.78a.74.74,0,1,1-.74.73.73.73,0,0,1,.74-.73h0m0-1A1.74,1.74,0,1,0,313,61.51,1.73,1.73,0,0,0,311.25,59.78Z" transform="translate(-0.5 -0.49)"/><path d="M311.25,69.6a.74.74,0,0,1,.73.74.74.74,0,0,1-1.47,0,.74.74,0,0,1,.74-.74h0m0-1A1.74,1.74,0,1,0,313,70.34,1.73,1.73,0,0,0,311.25,68.6Z" transform="translate(-0.5 -0.49)"/><path d="M311.25,78.43a.73.73,0,0,1,.73.74.74.74,0,0,1-1.47,0,.72.72,0,0,1,.74-.73h0m0-1A1.74,1.74,0,1,0,313,79.16,1.73,1.73,0,0,0,311.25,77.43Z" transform="translate(-0.5 -0.49)"/><path class="cls-6" d="M309,75.48h38.51A1.51,1.51,0,0,1,349,77v4.36a1.47,1.47,0,0,1-1.47,1.48H309a1.48,1.48,0,0,1-1.48-1.48V77A1.49,1.49,0,0,1,309,75.48Z" transform="translate(-0.5 -0.49)"/><rect class="cls-6" x="307.05" y="66.17" width="41.5" height="7.35" rx="1.48"/><rect class="cls-6" x="307.05" y="57.34" width="41.5" height="7.35" rx="1.48"/><line class="cls-4" x1="393.1" y1="76.46" x2="393.1" y2="80.87"/><line class="cls-4" x1="388.65" y1="76.46" x2="388.65" y2="80.87"/><line class="cls-4" x1="384.21" y1="76.46" x2="384.21" y2="80.87"/><line class="cls-4" x1="393.1" y1="67.64" x2="393.1" y2="72.05"/><line class="cls-4" x1="388.65" y1="67.64" x2="388.65" y2="72.05"/><line class="cls-4" x1="384.21" y1="67.64" x2="384.21" y2="72.05"/><line class="cls-4" x1="393.1" y1="58.82" x2="393.1" y2="63.23"/><line class="cls-4" x1="388.65" y1="58.82" x2="388.65" y2="63.23"/><line class="cls-4" x1="384.21" y1="58.82" x2="384.21" y2="63.23"/><path d="M360.25,60.78a.74.74,0,1,1-.74.73.73.73,0,0,1,.74-.73h0m0-1A1.74,1.74,0,1,0,362,61.51,1.73,1.73,0,0,0,360.25,59.78Z" transform="translate(-0.5 -0.49)"/><path d="M360.25,69.6a.74.74,0,0,1,.73.74.74.74,0,0,1-1.47,0,.74.74,0,0,1,.74-.74h0m0-1A1.74,1.74,0,1,0,362,70.34,1.73,1.73,0,0,0,360.25,68.6Z" transform="translate(-0.5 -0.49)"/><path d="M360.25,78.43a.73.73,0,0,1,.73.74.74.74,0,1,1-1.47,0,.72.72,0,0,1,.74-.73h0m0-1A1.74,1.74,0,1,0,362,79.16,1.73,1.73,0,0,0,360.25,77.43Z" transform="translate(-0.5 -0.49)"/><path class="cls-6" d="M358,75.48h38.51A1.51,1.51,0,0,1,398,77v4.36a1.47,1.47,0,0,1-1.47,1.48H358a1.48,1.48,0,0,1-1.48-1.48V77A1.49,1.49,0,0,1,358,75.48Z" transform="translate(-0.5 -0.49)"/><rect class="cls-6" x="356.05" y="66.17" width="41.5" height="7.35" rx="1.48"/><rect class="cls-6" x="356.05" y="57.34" width="41.5" height="7.35" rx="1.48"/><line class="cls-4" x1="442.1" y1="76.46" x2="442.1" y2="80.87"/><line class="cls-4" x1="437.65" y1="76.46" x2="437.65" y2="80.87"/><line class="cls-4" x1="433.21" y1="76.46" x2="433.21" y2="80.87"/><line class="cls-4" x1="442.1" y1="67.64" x2="442.1" y2="72.05"/><line class="cls-4" x1="437.65" y1="67.64" x2="437.65" y2="72.05"/><line class="cls-4" x1="433.21" y1="67.64" x2="433.21" y2="72.05"/><line class="cls-4" x1="442.1" y1="58.82" x2="442.1" y2="63.23"/><line class="cls-4" x1="437.65" y1="58.82" x2="437.65" y2="63.23"/><line class="cls-4" x1="433.21" y1="58.82" x2="433.21" y2="63.23"/><path d="M409.25,60.78a.74.74,0,1,1-.74.73.73.73,0,0,1,.74-.73h0m0-1A1.74,1.74,0,1,0,411,61.51,1.73,1.73,0,0,0,409.25,59.78Z" transform="translate(-0.5 -0.49)"/><path d="M409.25,69.6a.74.74,0,0,1,.73.74.74.74,0,0,1-1.47,0,.74.74,0,0,1,.74-.74h0m0-1A1.74,1.74,0,1,0,411,70.34,1.73,1.73,0,0,0,409.25,68.6Z" transform="translate(-0.5 -0.49)"/><path d="M409.25,78.43a.73.73,0,0,1,.73.74.74.74,0,1,1-1.47,0,.72.72,0,0,1,.74-.73h0m0-1A1.74,1.74,0,1,0,411,79.16,1.73,1.73,0,0,0,409.25,77.43Z" transform="translate(-0.5 -0.49)"/><path class="cls-6" d="M407,75.48h38.51A1.51,1.51,0,0,1,447,77v4.36a1.47,1.47,0,0,1-1.47,1.48H407a1.48,1.48,0,0,1-1.48-1.48h0V77A1.49,1.49,0,0,1,407,75.48Z" transform="translate(-0.5 -0.49)"/><rect class="cls-6" x="405.05" y="66.17" width="41.5" height="7.35" rx="1.48"/><rect class="cls-6" x="405.05" y="57.34" width="41.5" height="7.35" rx="1.48"/><line class="cls-4" x1="491.1" y1="76.46" x2="491.1" y2="80.87"/><line class="cls-4" x1="486.65" y1="76.46" x2="486.65" y2="80.87"/><line class="cls-4" x1="482.21" y1="76.46" x2="482.21" y2="80.87"/><line class="cls-4" x1="491.1" y1="67.64" x2="491.1" y2="72.05"/><line class="cls-4" x1="486.65" y1="67.64" x2="486.65" y2="72.05"/><line class="cls-4" x1="482.21" y1="67.64" x2="482.21" y2="72.05"/><line class="cls-4" x1="491.1" y1="58.82" x2="491.1" y2="63.23"/><line class="cls-4" x1="486.65" y1="58.82" x2="486.65" y2="63.23"/><line class="cls-4" x1="482.21" y1="58.82" x2="482.21" y2="63.23"/><path d="M458.25,60.78a.74.74,0,1,1-.74.73.73.73,0,0,1,.74-.73h0m0-1A1.74,1.74,0,1,0,460,61.51,1.73,1.73,0,0,0,458.25,59.78Z" transform="translate(-0.5 -0.49)"/><path d="M458.25,69.6a.74.74,0,0,1,.73.74.74.74,0,0,1-1.47,0,.74.74,0,0,1,.74-.74h0m0-1A1.74,1.74,0,1,0,460,70.34,1.73,1.73,0,0,0,458.25,68.6Z" transform="translate(-0.5 -0.49)"/><path d="M458.25,78.43a.73.73,0,0,1,.73.74.74.74,0,1,1-1.47,0,.72.72,0,0,1,.74-.73h0m0-1A1.74,1.74,0,1,0,460,79.16,1.73,1.73,0,0,0,458.25,77.43Z" transform="translate(-0.5 -0.49)"/><path class="cls-6" d="M456,75.48h38.51A1.51,1.51,0,0,1,496,77v4.36a1.47,1.47,0,0,1-1.47,1.48H456a1.48,1.48,0,0,1-1.48-1.48h0V77A1.49,1.49,0,0,1,456,75.48Z" transform="translate(-0.5 -0.49)"/><rect class="cls-6" x="454.05" y="66.17" width="41.5" height="7.35" rx="1.48"/><rect class="cls-6" x="454.05" y="57.34" width="41.5" height="7.35" rx="1.48"/><rect class="cls-7" x="349.59" y="162.65" width="102.97" height="18"/><path class="cls-8" d="M367.19,168.55v7.09h-1.36l-1.85-4v4h-1.35v-7.09H364l1.85,4.06v-4.06Z" transform="translate(-0.5 -0.49)"/><path class="cls-8" d="M372.48,172.94v.91a2,2,0,0,1-2,2h-.13a2,2,0,0,1-2.16-1.86.61.61,0,0,1,0-.14v-3.37a2.16,2.16,0,0,1,4.32,0h-1.54a.59.59,0,0,0-.49-.67h-.12a.57.57,0,0,0-.62.52v1.08a1.87,1.87,0,0,1,.89-.23,1.77,1.77,0,0,1,1.9,1.62Zm-1.55-.15c0-.3-.23-.48-.61-.48s-.63.2-.63.5v1.09c0,.33.24.53.63.53s.61-.2.61-.53Z" transform="translate(-0.5 -0.49)"/><path class="cls-8" d="M379.19,174.24v1.4H375.5v-7.09h1.55v5.69Z" transform="translate(-0.5 -0.49)"/><path class="cls-8" d="M383.08,174.39h-1.45l-.29,1.25h-1.51l1.53-7.09h2l1.54,7.09h-1.54Zm-.72-3.95-.45,2.56h.9Z" transform="translate(-0.5 -0.49)"/><path class="cls-8" d="M390.26,168.55v7.09H388.9l-1.85-4v4H385.7v-7.09h1.35l1.85,4.06v-4.06Z" transform="translate(-0.5 -0.49)"/><path class="cls-8" d="M397.86,170.57v3.06a2.06,2.06,0,0,1-2.08,2l-.19,0h-2.3v-7.09h2.29a2.06,2.06,0,0,1,2.27,1.83A1.21,1.21,0,0,1,397.86,170.57Zm-1.55,0a.56.56,0,0,0-.53-.6h-.94v4.29h.84a.57.57,0,0,0,.63-.5v-3.19Z" transform="translate(-0.5 -0.49)"/><path class="cls-8" d="M401.71,174.39h-1.45l-.29,1.25h-1.51l1.53-7.09h2l1.54,7.09H402Zm-.72-3.95-.45,2.56h.9Z" transform="translate(-0.5 -0.49)"/><path class="cls-8" d="M408.07,170H406.6v5.69h-1.55V170h-1.48v-1.4h4.5Z" transform="translate(-0.5 -0.49)"/><path class="cls-8" d="M411.36,174.39h-1.45l-.29,1.25h-1.51l1.53-7.09h2l1.54,7.09h-1.54Zm-.72-3.95-.45,2.56h.9Z" transform="translate(-0.5 -0.49)"/><path class="cls-8" d="M420.44,170.49v.91a1.94,1.94,0,0,1-1.93,1.95h-1v2.29H416v-7.09h2.36a2,2,0,0,1,2.12,1.78Zm-1.55-.07a.44.44,0,0,0-.4-.47h-1v2h.91a.44.44,0,0,0,.47-.42.06.06,0,0,0,0-.06Z" transform="translate(-0.5 -0.49)"/><path class="cls-8" d="M425,174.24v1.4h-3.69v-7.09h1.55v5.69Z" transform="translate(-0.5 -0.49)"/><path class="cls-8" d="M428.86,174.39h-1.45l-.29,1.25h-1.51l1.53-7.09h2l1.53,7.09h-1.53Zm-.72-3.95-.45,2.56h.9Z" transform="translate(-0.5 -0.49)"/><path class="cls-8" d="M436,168.55v7.09h-1.36l-1.85-4v4h-1.35v-7.09h1.35l1.85,4.06v-4.06Z" transform="translate(-0.5 -0.49)"/><path class="cls-8" d="M438.57,170v1.55h1.72v1.4h-1.72v1.34h2.12v1.4H437v-7.09h3.66V170Z" transform="translate(-0.5 -0.49)"/><rect class="cls-7" x="342.57" y="22.65" width="117" height="18"/><path class="cls-8" d="M358.94,28.55v7.09h-1.36l-1.85-4v4h-1.35V28.55h1.35l1.85,4.06V28.55Z" transform="translate(-0.5 -0.49)"/><path class="cls-8" d="M364.23,32.94v.91a2,2,0,0,1-2,1.95h-.13a2,2,0,0,1-2.17-1.86V30.42a2.16,2.16,0,0,1,4.31,0h-1.53a.6.6,0,0,0-.5-.67h-.11a.58.58,0,0,0-.63.53.49.49,0,0,0,0,.12v.95a1.82,1.82,0,0,1,.89-.23,1.75,1.75,0,0,1,1.89,1.62A1.2,1.2,0,0,1,364.23,32.94Zm-1.54-.15c0-.3-.24-.48-.61-.48s-.63.2-.63.5v1.1c0,.33.24.53.63.53s.61-.2.61-.53Z" transform="translate(-0.5 -0.49)"/><path class="cls-8" d="M370.94,34.25v1.39h-3.68V28.55h1.55v5.7Z" transform="translate(-0.5 -0.49)"/><path class="cls-8" d="M374.83,34.4h-1.45l-.29,1.24h-1.51l1.53-7.09h2l1.54,7.09h-1.54Zm-.72-4L373.66,33h.9Z" transform="translate(-0.5 -0.49)"/><path class="cls-8" d="M382,28.55v7.09h-1.35l-1.85-4v4h-1.35V28.55h1.35l1.85,4.06V28.55Z" transform="translate(-0.5 -0.49)"/><path class="cls-8" d="M385,33.78V30.42a2.36,2.36,0,0,1,4.68,0v.89H388.1V30.4c0-.36-.26-.6-.77-.6s-.8.24-.8.6v3.4c0,.36.27.6.79.6s.78-.24.78-.6v-.91h1.56v.89a2.37,2.37,0,0,1-4.68,0Z" transform="translate(-0.5 -0.49)"/><path class="cls-8" d="M390.53,33.78V30.42a2.38,2.38,0,0,1,4.71,0v3.36a2.38,2.38,0,0,1-4.71,0Zm3.17,0V30.4c0-.36-.25-.6-.8-.6s-.82.24-.82.6v3.4c0,.36.24.6.81.6s.81-.24.81-.6Z" transform="translate(-0.5 -0.49)"/><path class="cls-8" d="M400.73,28.55v7.09h-1.36l-1.84-4v4h-1.35V28.55h1.35l1.84,4.06V28.55Z" transform="translate(-0.5 -0.49)"/><path class="cls-8" d="M406,30h-1.47v5.69H403V30h-1.48v-1.4H406Z" transform="translate(-0.5 -0.49)"/><path class="cls-8" d="M409,33.09h-.74v2.55h-1.55V28.55h2.36a1.94,1.94,0,0,1,2.11,1.76c0,.06,0,.12,0,.18v.66a1.87,1.87,0,0,1-.71,1.5l.92,3h-1.62Zm-.74-1.4h.91a.44.44,0,0,0,.47-.4v-.87a.44.44,0,0,0-.4-.47h-1Z" transform="translate(-0.5 -0.49)"/><path class="cls-8" d="M412.13,33.78V30.42a2.39,2.39,0,0,1,4.72,0v3.36a2.39,2.39,0,0,1-4.72,0Zm3.17,0V30.4c0-.36-.24-.6-.8-.6s-.82.24-.82.6v3.4c0,.36.24.6.81.6s.81-.24.81-.6Z" transform="translate(-0.5 -0.49)"/><path class="cls-8" d="M421.47,34.25v1.39h-3.69V28.55h1.55v5.7Z" transform="translate(-0.5 -0.49)"/><path class="cls-8" d="M428.69,30.49v.91a1.94,1.94,0,0,1-1.94,2h-1v2.29h-1.55V28.55h2.36a2,2,0,0,1,2.11,1.78A.81.81,0,0,1,428.69,30.49Zm-1.55-.07a.44.44,0,0,0-.41-.47h-1v2h.91a.45.45,0,0,0,.47-.42V30.42Z" transform="translate(-0.5 -0.49)"/><path class="cls-8" d="M433.21,34.25v1.39h-3.68V28.55h1.54v5.7Z" transform="translate(-0.5 -0.49)"/><path class="cls-8" d="M437.1,34.4h-1.45l-.29,1.24h-1.51l1.53-7.09h2l1.54,7.09h-1.54Zm-.72-4L435.93,33h.9Z" transform="translate(-0.5 -0.49)"/><path class="cls-8" d="M444.28,28.55v7.09h-1.36l-1.84-4v4h-1.35V28.55h1.35l1.84,4.06V28.55Z" transform="translate(-0.5 -0.49)"/><path class="cls-8" d="M446.82,30V31.5h1.72v1.4h-1.72v1.35h2.12v1.39h-3.67V28.55h3.67V30Z" transform="translate(-0.5 -0.49)"/><polygon class="cls-10" points="133.28 195.94 133.28 290.56 22.91 290.56 22.91 161.37 133.28 161.37 133.28 180.24 133.28 195.94"/><g id="laptop"><line class="cls-4" x1="93.99" y1="217.57" x2="99.99" y2="217.57"/><path class="cls-4" d="M120,218a2.69,2.69,0,0,1-1.49,2.3h-42A2.63,2.63,0,0,1,75,218a2.58,2.58,0,0,1,1.52-2.24h42v-24h-42v21" transform="translate(-0.5 -0.49)"/></g><g id="mobile-phone"><path d="M39.81,202.43a.46.46,0,0,1-.45-.48.45.45,0,0,1,.47-.45.47.47,0,0,1,.46.46A.48.48,0,0,1,39.81,202.43Z" transform="translate(-0.5 -0.49)"/><path d="M39.81,201a1,1,0,0,0,0,1.93,1,1,0,1,0,0-1.93Z" transform="translate(-0.5 -0.49)"/><line class="cls-4" x1="44.52" y1="233.64" x2="49.74" y2="233.64"/><path class="cls-4" d="M58.06,230.92v3.86a1.3,1.3,0,0,1-1.3,1.28H38.52a1.3,1.3,0,0,1-1.3-1.28V201.35a1.3,1.3,0,0,1,1.3-1.29H56.76a1.3,1.3,0,0,1,1.3,1.29V202" transform="translate(-0.5 -0.49)"/><rect class="cls-4" x="36.72" y="203.43" width="20.84" height="28.29" rx="1.29"/></g><g id="monitor"><polyline class="cls-4" points="109.82 265.63 109.82 267.24 64.82 267.24 64.82 262.41 109.82 262.41 109.82 236.7 64.82 236.7 64.82 259.2"/><line class="cls-4" x1="87.34" y1="267.39" x2="87.34" y2="270.45"/><line class="cls-4" x1="77.68" y1="270.45" x2="96.97" y2="270.45"/><circle cx="87.34" cy="264.82" r="1.01"/></g><rect class="cls-7" x="50.59" y="152.37" width="55" height="18"/><path class="cls-8" d="M66.81,160.28v3.06a2.06,2.06,0,0,1-2.08,2H62.24v-7.1h2.29a2.07,2.07,0,0,1,2.27,1.84C66.8,160.16,66.81,160.22,66.81,160.28Zm-1.55,0a.57.57,0,0,0-.53-.6h-.94V164h.84a.58.58,0,0,0,.63-.51v-3.19Z" transform="translate(-0.5 -0.49)"/><path class="cls-8" d="M69.28,159.66v1.55H71v1.4H69.28V164h2.11v1.4H67.73v-7.1h3.66v1.4Z" transform="translate(-0.5 -0.49)"/><path class="cls-8" d="M77.1,158.26l-1.5,7.1h-2l-1.49-7.1h1.55l1,4.87,1-4.87Z" transform="translate(-0.5 -0.49)"/><path class="cls-8" d="M77.89,158.26h1.55v7.1H77.89Z" transform="translate(-0.5 -0.49)"/><path class="cls-8" d="M80.37,163.49v-3.36a2.37,2.37,0,0,1,4.68,0V161H83.48v-.91c0-.36-.26-.6-.77-.6s-.79.24-.79.6v3.4c0,.36.27.6.78.6s.78-.24.78-.6v-.91h1.57v.89a2.37,2.37,0,0,1-4.68,0Z" transform="translate(-0.5 -0.49)"/><path class="cls-8" d="M87.5,159.66v1.55h1.72v1.4H87.5V164h2.12v1.4H86v-7.1h3.67v1.4Z" transform="translate(-0.5 -0.49)"/><path class="cls-8" d="M90.38,163.26V163h1.55v.44a.74.74,0,0,0,.74.74h.09a.69.69,0,0,0,.72-.63v-.06c0-1.27-3-1-3-3.27a2,2,0,0,1,1.9-2.09h.32a1.94,1.94,0,0,1,2.19,1.66,1.83,1.83,0,0,1,0,.33v.44H93.39V160c0-.31-.3-.49-.67-.49a.6.6,0,0,0-.65.52v.08c0,1,3,.79,3,3.21a2.11,2.11,0,0,1-2,2.2h-.31a2.15,2.15,0,0,1-2.34-1.95C90.38,163.46,90.38,163.36,90.38,163.26Z" transform="translate(-0.5 -0.49)"/><rect class="cls-11" x="0.25" y="0.25" width="598.21" height="376.24"/></svg>