<svg version="1" xmlns="http://www.w3.org/2000/svg" width="933.333" height="933.333" viewBox="0 0 700.000000 700.000000"><path d="M336.5.6C266.6 3.9 202 26 147.1 65.3 64.2 124.8 12.2 214.8 1.9 316.5c-1.5 15.4-1.5 51.6 0 67 5.4 52.8 21.9 102.7 49 147.5l6.9 11.5 4.4-.3c7.8-.4 14.8-2.3 17.5-4.6l2.6-2.3-1.6-16.9c-6-61-7.2-87.8-7.2-162.2V290l-7 .5c-24.1 1.8-32.6 2.5-36.9 3.1l-4.9.7.6-2.9c.4-1.6 1.2-11 1.8-20.9.6-9.9 1.3-18.2 1.5-18.4.4-.4 37.2-2.9 45-3l3.1-.1 1.2-12.4c2.6-27 6.1-42.4 13.1-57.1 18.6-39 61.3-71.6 119.6-91.1 30.1-10.1 57.8-14.7 88.4-14.8 19.8-.1 21.9.1 26 2 4.6 2.1 46.5 32.4 48.8 35.2 1.9 2.4 1.4 7.6-1 10.8-3.3 4.3-15.8 18.6-18.5 21.1-1.9 1.9-3.6 2.3-8.4 2.3-5.4 0-7.3-.7-23.1-8.6-18.6-9.3-42.9-19.3-54.8-22.5-4.1-1.1-12.3-2.3-18.2-2.6-10.2-.6-11-.4-16.2 2.1-3 1.5-6.9 4.3-8.7 6.3-4.6 5.3-8.7 14.7-9.8 22.8-.9 6.5-3.3 48.6-4.6 82.3l-.5 14.4 59.5-.8 59.5-.7V265l-20.1 10-20.1 10h-22.1c-12.2 0-30 .3-39.6.7l-17.4.6.6 87.6c.8 127.5 2.9 169.6 8.9 176 6 6.5 26.4 11.7 56.1 14.2l14.7 1.3V590.1l-9.2-.5c-5.1-.3-16.7-.8-25.8-1.1-46.6-1.6-110.2-8-157.7-15.8-10.5-1.8-18.8-2.8-18.5-2.2 1.8 3.2 19.4 22.4 27.8 30.5 57.6 55.4 130.4 89.1 209.9 97.1 15.5 1.5 51.7 1.5 67 0 101.7-10.3 191.7-62.3 251.2-145.2 35.3-49.2 57.1-107.7 63.4-169.4 1.5-15.4 1.5-51.6 0-67-6.2-61-28-119.8-62.4-167.9-6.5-9.2-7.1-9.8-7.8-7.5-.5 1.3-2.9 13.2-5.5 26.4-2.5 13.2-4.7 24.1-4.9 24.3-.2.2-9.7-.6-21.2-1.7-11.4-1.2-29.3-2.8-39.8-3.7-21.2-1.7-120.9-8.4-121.1-8.1-.9 1.3-17.5 53-17.1 53.4.3.3 5.7.9 11.9 1.4 68.9 5.4 121.7 20.6 159.9 46 14.2 9.5 33.6 28 43.6 41.5 10.9 14.8 19.2 33.5 23.4 52.4 4.1 19.1 3.6 52.6-1.2 74.9-7.4 33.8-27.6 68.7-52.4 90.5-26.2 22.9-67.6 42.1-106.8 49.7-28.9 5.5-72.8 4.6-116.2-2.5-13.4-2.1-32.2-6.5-38.8-9l-5.8-2.2-14.9-34.2c-14-32.3-15.4-35.9-15.1-40.6.1-1 7.9-9.7 17.4-19.3 16.8-17.1 24.5-23.1 28-21.7.8.3 12.8 17.5 26.6 38.3 27.3 41 32.5 47.3 45.6 55 16.1 9.6 38.6 13.1 65 10.1 33.8-3.9 61.5-26 71.2-56.8 2.3-7.6 2.5-9.3 2.1-20.5-.4-9.3-1.2-14.1-3.1-20-8.7-26.9-33.1-49-72.2-65.2-22.8-9.5-52.9-17.6-86.5-23.4-20.2-3.5-55.6-7.9-67.2-8.3-3.9-.1-4.5-.4-3.7-1.7.5-.9 21.1-61.9 45.8-135.6l44.9-134 9.8.3c15.9.5 43.9 2.1 73.9 4.3 24.2 1.7 33.3 2.9 66.3 8.5 21.1 3.6 38.6 6.3 39 6 .9-.9-17.4-19.1-30.6-30.4C515.4 31.6 441 3 358.5.7c-8.2-.2-18.1-.3-22-.1z"/></svg>